<?xml version="1.0" encoding="UTF-8" standalone="no"?>
<!DOCTYPE svg PUBLIC "-//W3C//DTD SVG 1.1//EN"
 "http://www.w3.org/Graphics/SVG/1.1/DTD/svg11.dtd">
<!-- Generated by graphviz version 2.40.1 (20161225.0304)
 -->
<!-- Title: %3 Pages: 1 -->
<svg width="1390pt" height="381pt"
 viewBox="0.00 0.00 1389.64 380.72" xmlns="http://www.w3.org/2000/svg" xmlns:xlink="http://www.w3.org/1999/xlink">
<g id="graph0" class="graph" transform="scale(1 1) rotate(0) translate(4 376.7178)">
<title>%3</title>
<polygon fill="#ffffff" stroke="transparent" points="-4,4 -4,-376.7178 1385.6419,-376.7178 1385.6419,4 -4,4"/>
<!-- x&#45;vel -->
<g id="node1" class="node">
<title>x&#45;vel</title>
<polygon fill="#d3d3d3" stroke="#000000" points="347.3931,-302.9691 312.3931,-302.9691 312.3931,-284.9691 347.3931,-284.9691 347.3931,-302.9691"/>
<text text-anchor="middle" x="329.8931" y="-291.7691" font-family="Times,serif" font-size="9.00" fill="#000000">x&#45;vel</text>
</g>
<!-- none -->
<g id="node13" class="node">
<title>none</title>
<ellipse fill="#add8e6" stroke="#000000" cx="556.8931" cy="-197.1579" rx="24.0833" ry="24.0833"/>
<text text-anchor="middle" x="556.8931" y="-194.9579" font-family="Times,serif" font-size="9.00" fill="#000000">none</text>
</g>
<!-- x&#45;vel&#45;&gt;none -->
<g id="edge3" class="edge">
<title>x&#45;vel&#45;&gt;none</title>
<path fill="none" stroke="#00ff00" stroke-width=".1148" stroke-dasharray="1,5" d="M338.1695,-284.7535C343.1783,-279.6192 349.9283,-273.432 356.8931,-269.2203 411.0463,-236.4733 482.3823,-215.2647 523.5881,-204.829"/>
<polygon fill="#00ff00" stroke="#00ff00" stroke-width=".1148" points="524.518,-208.2045 533.3862,-202.4075 522.8385,-201.409 524.518,-208.2045"/>
</g>
<!-- right -->
<g id="node14" class="node">
<title>right</title>
<ellipse fill="#add8e6" stroke="#000000" cx="267.8931" cy="-197.1579" rx="23.1702" ry="23.1702"/>
<text text-anchor="middle" x="267.8931" y="-194.9579" font-family="Times,serif" font-size="9.00" fill="#000000">right</text>
</g>
<!-- x&#45;vel&#45;&gt;right -->
<g id="edge18" class="edge">
<title>x&#45;vel&#45;&gt;right</title>
<path fill="none" stroke="#ff0000" stroke-width=".1714" d="M323.9483,-284.6864C315.2885,-271.1644 298.8375,-245.4766 285.9877,-225.412"/>
<polygon fill="#ff0000" stroke="#ff0000" stroke-width=".1714" points="288.8971,-223.465 280.5566,-216.9315 283.0023,-227.2402 288.8971,-223.465"/>
</g>
<!-- left -->
<g id="node15" class="node">
<title>left</title>
<ellipse fill="#add8e6" stroke="#000000" cx="567.8931" cy="-19.799" rx="19.6" ry="19.6"/>
<text text-anchor="middle" x="567.8931" y="-17.599" font-family="Times,serif" font-size="9.00" fill="#000000">left</text>
</g>
<!-- x&#45;vel&#45;&gt;left -->
<g id="edge23" class="edge">
<title>x&#45;vel&#45;&gt;left</title>
<path fill="none" stroke="#ff0000" stroke-width=".4689" stroke-dasharray="1,5" d="M337.8118,-284.847C370.8688,-246.7661 498.4305,-99.8182 548.0177,-42.695"/>
<polygon fill="#ff0000" stroke="#ff0000" stroke-width=".4689" points="550.8352,-44.7884 554.7475,-34.9424 545.5491,-40.1996 550.8352,-44.7884"/>
</g>
<!-- forward -->
<g id="node16" class="node">
<title>forward</title>
<ellipse fill="#add8e6" stroke="#000000" cx="1045.8931" cy="-197.1579" rx="31.6406" ry="31.6406"/>
<text text-anchor="middle" x="1045.8931" y="-194.9579" font-family="Times,serif" font-size="9.00" fill="#000000">forward</text>
</g>
<!-- x&#45;vel&#45;&gt;forward -->
<g id="edge15" class="edge">
<title>x&#45;vel&#45;&gt;forward</title>
<path fill="none" stroke="#ff0000" stroke-width=".4081" stroke-dasharray="1,5" d="M337.3277,-284.4957C342.2372,-278.9949 349.1745,-272.518 356.8931,-269.2203 469.1201,-221.2733 784.3729,-252.4222 904.8931,-233.2203 939.3392,-227.7322 977.6362,-217.6766 1005.6146,-209.5753"/>
<polygon fill="#ff0000" stroke="#ff0000" stroke-width=".4081" points="1006.8219,-212.8686 1015.4294,-206.6911 1004.8482,-206.1525 1006.8219,-212.8686"/>
</g>
<!-- y&#45;vel -->
<g id="node2" class="node">
<title>y&#45;vel</title>
<polygon fill="#d3d3d3" stroke="#000000" points="627.3931,-372.7178 592.3931,-372.7178 592.3931,-354.7178 627.3931,-354.7178 627.3931,-372.7178"/>
<text text-anchor="middle" x="609.8931" y="-361.5178" font-family="Times,serif" font-size="9.00" fill="#000000">y&#45;vel</text>
</g>
<!-- y&#45;vel&#45;&gt;none -->
<g id="edge2" class="edge">
<title>y&#45;vel&#45;&gt;none</title>
<path fill="none" stroke="#00ff00" stroke-width=".4675" d="M608.8173,-354.6718C606.6284,-337.6263 600.9888,-299.7226 590.8931,-269.2203 586.217,-255.0923 579.4669,-240.1127 573.2116,-227.4921"/>
<polygon fill="#00ff00" stroke="#00ff00" stroke-width=".4675" points="576.2182,-225.6828 568.5672,-218.354 569.978,-228.8545 576.2182,-225.6828"/>
</g>
<!-- y&#45;vel&#45;&gt;left -->
<g id="edge7" class="edge">
<title>y&#45;vel&#45;&gt;left</title>
<path fill="none" stroke="#ff0000" stroke-width=".3868" stroke-dasharray="1,5" d="M610.5705,-354.5738C611.6932,-337.6782 613.5648,-300.4431 610.8931,-269.2203 604.0289,-189.0013 584.9628,-95.8412 574.6778,-49.3587"/>
<polygon fill="#ff0000" stroke="#ff0000" stroke-width=".3868" points="578.043,-48.369 572.4441,-39.3743 571.2118,-49.8973 578.043,-48.369"/>
</g>
<!-- 1138 -->
<g id="node24" class="node">
<title>1138</title>
<ellipse fill="#ffffff" stroke="#000000" cx="556.8931" cy="-293.9691" rx="25" ry="25"/>
<text text-anchor="middle" x="556.8931" y="-291.7691" font-family="Times,serif" font-size="9.00" fill="#000000">1138</text>
</g>
<!-- y&#45;vel&#45;&gt;1138 -->
<g id="edge35" class="edge">
<title>y&#45;vel&#45;&gt;1138</title>
<path fill="none" stroke="#00ff00" stroke-width=".4292" d="M602.9643,-354.5994C596.6874,-346.3389 587.1005,-333.7225 578.2944,-322.1334"/>
<polygon fill="#00ff00" stroke="#00ff00" stroke-width=".4292" points="580.9155,-319.7979 572.0786,-313.9534 575.342,-324.0331 580.9155,-319.7979"/>
</g>
<!-- x&#45;pos -->
<g id="node3" class="node">
<title>x&#45;pos</title>
<polygon fill="#d3d3d3" stroke="#000000" points="877.8931,-372.7178 841.8931,-372.7178 841.8931,-354.7178 877.8931,-354.7178 877.8931,-372.7178"/>
<text text-anchor="middle" x="859.8931" y="-361.5178" font-family="Times,serif" font-size="9.00" fill="#000000">x&#45;pos</text>
</g>
<!-- x&#45;pos&#45;&gt;none -->
<g id="edge12" class="edge">
<title>x&#45;pos&#45;&gt;none</title>
<path fill="none" stroke="#00ff00" stroke-width=".9482" d="M841.4504,-360.7901C811.6129,-355.5265 751.4972,-342.7101 705.8931,-318.7178 656.7416,-292.8592 608.5497,-249.2746 580.8266,-221.9221"/>
<polygon fill="#00ff00" stroke="#00ff00" stroke-width=".9482" points="583.1135,-219.2594 573.5662,-214.6659 578.1652,-224.2106 583.1135,-219.2594"/>
</g>
<!-- x&#45;pos&#45;&gt;forward -->
<g id="edge17" class="edge">
<title>x&#45;pos&#45;&gt;forward</title>
<path fill="none" stroke="#00ff00" stroke-width=".502" stroke-dasharray="1,5" d="M878.0391,-363.1979C929.1439,-361.3147 1072.4065,-353.0158 1100.8931,-318.7178 1123.6578,-291.309 1099.2106,-252.9521 1076.0671,-226.6984"/>
<polygon fill="#00ff00" stroke="#00ff00" stroke-width=".502" points="1078.6307,-224.3153 1069.2983,-219.2996 1073.466,-229.0403 1078.6307,-224.3153"/>
</g>
<!-- backward -->
<g id="node17" class="node">
<title>backward</title>
<ellipse fill="#add8e6" stroke="#000000" cx="859.8931" cy="-197.1579" rx="36.125" ry="36.125"/>
<text text-anchor="middle" x="859.8931" y="-194.9579" font-family="Times,serif" font-size="9.00" fill="#000000">backward</text>
</g>
<!-- x&#45;pos&#45;&gt;backward -->
<g id="edge9" class="edge">
<title>x&#45;pos&#45;&gt;backward</title>
<path fill="none" stroke="#00ff00" stroke-width=".6681" stroke-dasharray="1,5" d="M858.0244,-354.4588C856.2968,-345.3951 853.8561,-331.1729 852.8931,-318.7178 850.9643,-293.7697 852.3158,-265.9032 854.3265,-243.1511"/>
<polygon fill="#00ff00" stroke="#00ff00" stroke-width=".6681" points="857.8211,-243.3736 855.2873,-233.0862 850.8528,-242.7084 857.8211,-243.3736"/>
</g>
<!-- 1231 -->
<g id="node23" class="node">
<title>1231</title>
<ellipse fill="#ffffff" stroke="#000000" cx="886.8931" cy="-293.9691" rx="25" ry="25"/>
<text text-anchor="middle" x="886.8931" y="-291.7691" font-family="Times,serif" font-size="9.00" fill="#000000">1231</text>
</g>
<!-- x&#45;pos&#45;&gt;1231 -->
<g id="edge37" class="edge">
<title>x&#45;pos&#45;&gt;1231</title>
<path fill="none" stroke="#00ff00" stroke-width=".2563" d="M863.4229,-354.5994C866.196,-347.4357 870.2372,-336.9961 874.1874,-326.7915"/>
<polygon fill="#00ff00" stroke="#00ff00" stroke-width=".2563" points="877.5564,-327.7836 877.9025,-317.1944 871.0285,-325.2565 877.5564,-327.7836"/>
</g>
<!-- y&#45;pos -->
<g id="node4" class="node">
<title>y&#45;pos</title>
<polygon fill="#d3d3d3" stroke="#000000" points="1068.8931,-372.7178 1032.8931,-372.7178 1032.8931,-354.7178 1068.8931,-354.7178 1068.8931,-372.7178"/>
<text text-anchor="middle" x="1050.8931" y="-361.5178" font-family="Times,serif" font-size="9.00" fill="#000000">y&#45;pos</text>
</g>
<!-- y&#45;pos&#45;&gt;left -->
<g id="edge20" class="edge">
<title>y&#45;pos&#45;&gt;left</title>
<path fill="none" stroke="#ff0000" stroke-width=".2126" stroke-dasharray="1,5" d="M1069.1295,-357.3879C1085.4752,-350.6259 1108.4395,-338.1711 1118.8931,-318.7178 1141.6365,-276.3946 1089.7954,-163.9348 1086.8931,-161.0955 1015.0003,-90.7625 696.6521,-38.7533 597.4876,-24.0261"/>
<polygon fill="#ff0000" stroke="#ff0000" stroke-width=".2126" points="597.9458,-20.5559 587.5433,-22.5657 596.9286,-27.4816 597.9458,-20.5559"/>
</g>
<!-- y&#45;pos&#45;&gt;1231 -->
<g id="edge41" class="edge">
<title>y&#45;pos&#45;&gt;1231</title>
<path fill="none" stroke="#ff0000" stroke-width="1.2194" d="M1032.5371,-359.2111C1006.7066,-352.4645 958.5773,-338.3954 920.8931,-318.7178 918.895,-317.6744 916.8842,-316.5227 914.893,-315.304"/>
<polygon fill="#ff0000" stroke="#ff0000" stroke-width="1.2194" points="916.6552,-312.2729 906.3876,-309.66 912.7848,-318.1056 916.6552,-312.2729"/>
</g>
<!-- x&#45;lm1&#45;vec -->
<g id="node5" class="node">
<title>x&#45;lm1&#45;vec</title>
<polygon fill="#d3d3d3" stroke="#000000" points="294.3931,-302.9691 241.3931,-302.9691 241.3931,-284.9691 294.3931,-284.9691 294.3931,-302.9691"/>
<text text-anchor="middle" x="267.8931" y="-291.7691" font-family="Times,serif" font-size="9.00" fill="#000000">x&#45;lm1&#45;vec</text>
</g>
<!-- x&#45;lm1&#45;vec&#45;&gt;right -->
<g id="edge16" class="edge">
<title>x&#45;lm1&#45;vec&#45;&gt;right</title>
<path fill="none" stroke="#00ff00" stroke-width="2.6523" d="M267.8931,-284.6864C267.8931,-272.3875 267.8931,-250.0241 267.8931,-230.9815"/>
<polygon fill="#00ff00" stroke="#00ff00" stroke-width="2.6523" points="271.3932,-230.8289 267.8931,-220.829 264.3932,-230.829 271.3932,-230.8289"/>
</g>
<!-- x&#45;lm1&#45;vec&#45;&gt;backward -->
<g id="edge11" class="edge">
<title>x&#45;lm1&#45;vec&#45;&gt;backward</title>
<path fill="none" stroke="#00ff00" stroke-width=".4317" d="M277.8292,-284.922C284.4424,-279.4394 293.5961,-272.8277 302.8931,-269.2203 422.7425,-222.717 462.4025,-249.7301 589.8931,-233.2203 668.5966,-223.0284 760.1369,-210.7023 813.8654,-203.4195"/>
<polygon fill="#00ff00" stroke="#00ff00" stroke-width=".4317" points="814.6532,-206.8448 824.092,-202.0323 813.7122,-199.9083 814.6532,-206.8448"/>
</g>
<!-- y&#45;lm1&#45;vec -->
<g id="node6" class="node">
<title>y&#45;lm1&#45;vec</title>
<polygon fill="#d3d3d3" stroke="#000000" points="982.3931,-302.9691 929.3931,-302.9691 929.3931,-284.9691 982.3931,-284.9691 982.3931,-302.9691"/>
<text text-anchor="middle" x="955.8931" y="-291.7691" font-family="Times,serif" font-size="9.00" fill="#000000">y&#45;lm1&#45;vec</text>
</g>
<!-- y&#45;lm1&#45;vec&#45;&gt;none -->
<g id="edge14" class="edge">
<title>y&#45;lm1&#45;vec&#45;&gt;none</title>
<path fill="none" stroke="#00ff00" stroke-width=".6998" d="M945.5669,-284.9019C938.9434,-279.554 929.9201,-273.0952 920.8931,-269.2203 806.7786,-220.2369 658.1286,-204.1625 591.658,-199.2101"/>
<polygon fill="#00ff00" stroke="#00ff00" stroke-width=".6998" points="591.5624,-195.6948 581.3409,-198.4827 591.07,-202.6774 591.5624,-195.6948"/>
</g>
<!-- y&#45;lm1&#45;vec&#45;&gt;forward -->
<g id="edge19" class="edge">
<title>y&#45;lm1&#45;vec&#45;&gt;forward</title>
<path fill="none" stroke="#00ff00" stroke-width="2.4247" d="M964.5227,-284.6864C976.4857,-271.8181 998.6914,-247.9318 1016.8868,-228.3594"/>
<polygon fill="#00ff00" stroke="#00ff00" stroke-width="2.4247" points="1019.6421,-230.5361 1023.8874,-220.829 1014.5153,-225.7699 1019.6421,-230.5361"/>
</g>
<!-- y&#45;lm1&#45;vec&#45;&gt;backward -->
<g id="edge31" class="edge">
<title>y&#45;lm1&#45;vec&#45;&gt;backward</title>
<path fill="none" stroke="#ff0000" stroke-width="1.3881" d="M946.6882,-284.6864C934.2874,-272.1808 911.5682,-249.2696 892.4842,-230.0244"/>
<polygon fill="#ff0000" stroke="#ff0000" stroke-width="1.3881" points="894.9037,-227.4936 885.3772,-222.8573 889.9332,-232.4225 894.9037,-227.4936"/>
</g>
<!-- x&#45;lm2&#45;vec -->
<g id="node7" class="node">
<title>x&#45;lm2&#45;vec</title>
<polygon fill="#d3d3d3" stroke="#000000" points="1244.3931,-302.9691 1191.3931,-302.9691 1191.3931,-284.9691 1244.3931,-284.9691 1244.3931,-302.9691"/>
<text text-anchor="middle" x="1217.8931" y="-291.7691" font-family="Times,serif" font-size="9.00" fill="#000000">x&#45;lm2&#45;vec</text>
</g>
<!-- x&#45;lm2&#45;vec&#45;&gt;none -->
<g id="edge27" class="edge">
<title>x&#45;lm2&#45;vec&#45;&gt;none</title>
<path fill="none" stroke="#ff0000" stroke-width=".5751" stroke-dasharray="1,5" d="M1191.3691,-289.4C1161.416,-284.2852 1111.2028,-275.8461 1067.8931,-269.2203 1020.6939,-261.9996 697.7561,-216.8338 591.0407,-201.9261"/>
<polygon fill="#ff0000" stroke="#ff0000" stroke-width=".5751" points="591.2189,-198.4171 580.8308,-200.5 590.2505,-205.3498 591.2189,-198.4171"/>
</g>
<!-- x&#45;lm2&#45;vec&#45;&gt;left -->
<g id="edge21" class="edge">
<title>x&#45;lm2&#45;vec&#45;&gt;left</title>
<path fill="none" stroke="#00ff00" stroke-width=".1073" d="M1215.8675,-284.8866C1207.249,-247.0945 1172.4421,-102.9989 1136.8931,-75.598 1093.9544,-42.5011 709.8902,-25.2555 598.2185,-20.9109"/>
<polygon fill="#00ff00" stroke="#00ff00" stroke-width=".1073" points="598.1179,-17.4046 587.9914,-20.5197 597.8503,-24.3994 598.1179,-17.4046"/>
</g>
<!-- x&#45;lm2&#45;vec&#45;&gt;forward -->
<g id="edge22" class="edge">
<title>x&#45;lm2&#45;vec&#45;&gt;forward</title>
<path fill="none" stroke="#ff0000" stroke-width=".3761" stroke-dasharray="1,5" d="M1201.7118,-284.8613C1174.6519,-269.6305 1119.5596,-238.6215 1082.6753,-217.8609"/>
<polygon fill="#ff0000" stroke="#ff0000" stroke-width=".3761" points="1084.1495,-214.6744 1073.7183,-212.8195 1080.716,-220.7745 1084.1495,-214.6744"/>
</g>
<!-- x&#45;lm2&#45;vec&#45;&gt;backward -->
<g id="edge5" class="edge">
<title>x&#45;lm2&#45;vec&#45;&gt;backward</title>
<path fill="none" stroke="#ff0000" stroke-width=".1651" stroke-dasharray="1,5" d="M1191.2774,-286.7716C1130.3299,-270.29 980.1006,-229.6647 904.6508,-209.2614"/>
<polygon fill="#ff0000" stroke="#ff0000" stroke-width=".1651" points="905.5222,-205.8714 894.9553,-206.6395 903.6948,-212.6287 905.5222,-205.8714"/>
</g>
<!-- 1902 -->
<g id="node22" class="node">
<title>1902</title>
<ellipse fill="#ffffff" stroke="#000000" cx="1289.8931" cy="-197.1579" rx="25" ry="25"/>
<text text-anchor="middle" x="1289.8931" y="-194.9579" font-family="Times,serif" font-size="9.00" fill="#000000">1902</text>
</g>
<!-- x&#45;lm2&#45;vec&#45;&gt;1902 -->
<g id="edge48" class="edge">
<title>x&#45;lm2&#45;vec&#45;&gt;1902</title>
<path fill="none" stroke="#ff0000" stroke-width=".1122" d="M1224.7968,-284.6864C1234.8368,-271.1866 1253.8951,-245.5609 1268.8066,-225.5108"/>
<polygon fill="#ff0000" stroke="#ff0000" stroke-width=".1122" points="1271.7457,-227.4238 1274.905,-217.3109 1266.1288,-223.2464 1271.7457,-227.4238"/>
</g>
<!-- 630 -->
<g id="node26" class="node">
<title>630</title>
<ellipse fill="#ffffff" stroke="#000000" cx="1289.8931" cy="-100.3467" rx="21.4286" ry="21.4286"/>
<text text-anchor="middle" x="1289.8931" y="-98.1467" font-family="Times,serif" font-size="9.00" fill="#000000">630</text>
</g>
<!-- x&#45;lm2&#45;vec&#45;&gt;630 -->
<g id="edge30" class="edge">
<title>x&#45;lm2&#45;vec&#45;&gt;630</title>
<path fill="none" stroke="#ff0000" stroke-width=".3928" stroke-dasharray="1,5" d="M1219.7663,-284.6996C1224.3769,-262.7021 1237.2698,-205.8408 1255.8931,-161.0955 1260.7063,-149.531 1267.1949,-137.3734 1273.2135,-126.9984"/>
<polygon fill="#ff0000" stroke="#ff0000" stroke-width=".3928" points="1276.224,-128.7835 1278.3276,-118.3996 1270.2077,-125.2053 1276.224,-128.7835"/>
</g>
<!-- 1302 -->
<g id="node27" class="node">
<title>1302</title>
<ellipse fill="#ffffff" stroke="#000000" cx="1213.8931" cy="-100.3467" rx="25" ry="25"/>
<text text-anchor="middle" x="1213.8931" y="-98.1467" font-family="Times,serif" font-size="9.00" fill="#000000">1302</text>
</g>
<!-- x&#45;lm2&#45;vec&#45;&gt;1302 -->
<g id="edge39" class="edge">
<title>x&#45;lm2&#45;vec&#45;&gt;1302</title>
<path fill="none" stroke="#00ff00" stroke-width=".101" d="M1217.7056,-284.89C1217.161,-258.5323 1215.5589,-180.979 1214.6137,-135.2282"/>
<polygon fill="#00ff00" stroke="#00ff00" stroke-width=".101" points="1218.1115,-135.0807 1214.4056,-125.1551 1211.113,-135.2253 1218.1115,-135.0807"/>
</g>
<!-- 1468 -->
<g id="node29" class="node">
<title>1468</title>
<ellipse fill="#ffffff" stroke="#000000" cx="1356.8931" cy="-197.1579" rx="25" ry="25"/>
<text text-anchor="middle" x="1356.8931" y="-194.9579" font-family="Times,serif" font-size="9.00" fill="#000000">1468</text>
</g>
<!-- x&#45;lm2&#45;vec&#45;&gt;1468 -->
<g id="edge42" class="edge">
<title>x&#45;lm2&#45;vec&#45;&gt;1468</title>
<path fill="none" stroke="#ff0000" stroke-width=".5537" stroke-dasharray="1,5" d="M1237.793,-284.8823C1259.9962,-274.2351 1296.4059,-255.2245 1323.8931,-233.2203 1327.4169,-230.3995 1330.9009,-227.1941 1334.2096,-223.8858"/>
<polygon fill="#ff0000" stroke="#ff0000" stroke-width=".5537" points="1336.7857,-226.2557 1341.1201,-216.588 1331.7029,-221.4426 1336.7857,-226.2557"/>
</g>
<!-- y&#45;lm2&#45;vec -->
<g id="node8" class="node">
<title>y&#45;lm2&#45;vec</title>
<polygon fill="#d3d3d3" stroke="#000000" points="767.3931,-302.9691 714.3931,-302.9691 714.3931,-284.9691 767.3931,-284.9691 767.3931,-302.9691"/>
<text text-anchor="middle" x="740.8931" y="-291.7691" font-family="Times,serif" font-size="9.00" fill="#000000">y&#45;lm2&#45;vec</text>
</g>
<!-- y&#45;lm2&#45;vec&#45;&gt;none -->
<g id="edge10" class="edge">
<title>y&#45;lm2&#45;vec&#45;&gt;none</title>
<path fill="none" stroke="#00ff00" stroke-width=".6496" stroke-dasharray="1,5" d="M726.2498,-284.7586C718.4985,-279.978 708.7707,-274.1273 699.8931,-269.2203 662.0752,-248.3173 617.4656,-226.2325 588.2522,-212.1064"/>
<polygon fill="#00ff00" stroke="#00ff00" stroke-width=".6496" points="589.4955,-208.8204 578.9673,-207.6341 586.4578,-215.127 589.4955,-208.8204"/>
</g>
<!-- y&#45;lm2&#45;vec&#45;&gt;backward -->
<g id="edge13" class="edge">
<title>y&#45;lm2&#45;vec&#45;&gt;backward</title>
<path fill="none" stroke="#ff0000" stroke-width=".3787" stroke-dasharray="1,5" d="M752.3033,-284.6864C768.6101,-271.4203 799.3104,-246.4443 823.756,-226.5569"/>
<polygon fill="#ff0000" stroke="#ff0000" stroke-width=".3787" points="826.2282,-229.0577 831.7766,-220.0318 821.8106,-223.6276 826.2282,-229.0577"/>
</g>
<!-- x&#45;other&#45;vec -->
<g id="node9" class="node">
<title>x&#45;other&#45;vec</title>
<polygon fill="#d3d3d3" stroke="#000000" points="222.8931,-302.9691 164.8931,-302.9691 164.8931,-284.9691 222.8931,-284.9691 222.8931,-302.9691"/>
<text text-anchor="middle" x="193.8931" y="-291.7691" font-family="Times,serif" font-size="9.00" fill="#000000">x&#45;other&#45;vec</text>
</g>
<!-- x&#45;other&#45;vec&#45;&gt;none -->
<g id="edge8" class="edge">
<title>x&#45;other&#45;vec&#45;&gt;none</title>
<path fill="none" stroke="#00ff00" stroke-width=".2098" d="M205.5903,-284.7658C212.8054,-279.5048 222.4571,-273.1847 231.8931,-269.2203 332.6736,-226.8794 461.9458,-207.767 522.5932,-200.6721"/>
<polygon fill="#00ff00" stroke="#00ff00" stroke-width=".2098" points="523.2113,-204.1246 532.7541,-199.5217 522.4238,-197.169 523.2113,-204.1246"/>
</g>
<!-- x&#45;other&#45;vec&#45;&gt;right -->
<g id="edge6" class="edge">
<title>x&#45;other&#45;vec&#45;&gt;right</title>
<path fill="none" stroke="#ff0000" stroke-width=".3451" stroke-dasharray="1,5" d="M200.9886,-284.6864C211.6079,-270.7936 232.0435,-244.0585 247.5483,-223.7743"/>
<polygon fill="#ff0000" stroke="#ff0000" stroke-width=".3451" points="250.3453,-225.8783 253.6375,-215.8079 244.7839,-221.6273 250.3453,-225.8783"/>
</g>
<!-- y&#45;other&#45;vec -->
<g id="node10" class="node">
<title>y&#45;other&#45;vec</title>
<polygon fill="#d3d3d3" stroke="#000000" points="1058.8931,-302.9691 1000.8931,-302.9691 1000.8931,-284.9691 1058.8931,-284.9691 1058.8931,-302.9691"/>
<text text-anchor="middle" x="1029.8931" y="-291.7691" font-family="Times,serif" font-size="9.00" fill="#000000">y&#45;other&#45;vec</text>
</g>
<!-- y&#45;other&#45;vec&#45;&gt;forward -->
<g id="edge24" class="edge">
<title>y&#45;other&#45;vec&#45;&gt;forward</title>
<path fill="none" stroke="#00ff00" stroke-width=".5002" stroke-dasharray="1,5" d="M1031.4273,-284.6864C1033.1761,-274.1046 1036.1563,-256.0722 1038.9589,-239.1149"/>
<polygon fill="#00ff00" stroke="#00ff00" stroke-width=".5002" points="1042.4908,-239.2086 1040.6683,-228.7717 1035.5845,-238.0671 1042.4908,-239.2086"/>
</g>
<!-- y&#45;other&#45;vec&#45;&gt;backward -->
<g id="edge4" class="edge">
<title>y&#45;other&#45;vec&#45;&gt;backward</title>
<path fill="none" stroke="#ff0000" stroke-width=".2415" stroke-dasharray="1,5" d="M1016.3359,-284.7742C1009.1557,-279.9979 1000.1389,-274.1463 991.8931,-269.2203 961.9179,-251.3136 927.2383,-232.4502 900.9495,-218.5162"/>
<polygon fill="#ff0000" stroke="#ff0000" stroke-width=".2415" points="902.4995,-215.3767 892.0223,-213.8028 899.2312,-221.5669 902.4995,-215.3767"/>
</g>
<!-- x&#45;other&#45;vel -->
<g id="node11" class="node">
<title>x&#45;other&#45;vel</title>
<polygon fill="#d3d3d3" stroke="#000000" points="478.8931,-372.7178 422.8931,-372.7178 422.8931,-354.7178 478.8931,-354.7178 478.8931,-372.7178"/>
<text text-anchor="middle" x="450.8931" y="-361.5178" font-family="Times,serif" font-size="9.00" fill="#000000">x&#45;other&#45;vel</text>
</g>
<!-- x&#45;other&#45;vel&#45;&gt;none -->
<g id="edge25" class="edge">
<title>x&#45;other&#45;vel&#45;&gt;none</title>
<path fill="none" stroke="#ff0000" stroke-width=".17" d="M458.2368,-354.6315C465.343,-345.6958 476.2742,-331.5656 484.8931,-318.7178 505.1282,-288.5545 526.0446,-252.613 540.0835,-227.6707"/>
<polygon fill="#ff0000" stroke="#ff0000" stroke-width=".17" points="543.2828,-229.1206 545.1116,-218.6848 537.1741,-225.7025 543.2828,-229.1206"/>
</g>
<!-- x&#45;other&#45;vel&#45;&gt;left -->
<g id="edge26" class="edge">
<title>x&#45;other&#45;vel&#45;&gt;left</title>
<path fill="none" stroke="#ff0000" stroke-width=".2642" stroke-dasharray="1,5" d="M422.5876,-362.9972C329.2807,-360.3334 35.7504,-349.5482 7.8931,-318.7178 -6.8555,-302.3952 3.4144,-290.7585 7.8931,-269.2203 31.5083,-155.6551 74.5983,-117.1549 182.8931,-75.598 248.0843,-50.5816 459.1379,-29.5741 537.8933,-22.4201"/>
<polygon fill="#ff0000" stroke="#ff0000" stroke-width=".2642" points="538.4523,-25.8841 548.0991,-21.5036 537.8261,-18.9121 538.4523,-25.8841"/>
</g>
<!-- x&#45;other&#45;vel&#45;&gt;forward -->
<g id="edge28" class="edge">
<title>x&#45;other&#45;vel&#45;&gt;forward</title>
<path fill="none" stroke="#ff0000" stroke-width=".1355" d="M479.2861,-361.7762C600.0988,-353.4987 1065.3478,-321.4555 1067.8931,-318.7178 1088.9248,-296.0964 1079.3298,-260.4548 1066.9114,-233.6022"/>
<polygon fill="#ff0000" stroke="#ff0000" stroke-width=".1355" points="1069.995,-231.941 1062.4468,-224.5064 1063.7112,-235.0255 1069.995,-231.941"/>
</g>
<!-- x&#45;other&#45;vel&#45;&gt;backward -->
<g id="edge1" class="edge">
<title>x&#45;other&#45;vel&#45;&gt;backward</title>
<path fill="none" stroke="#ff0000" stroke-width=".3773" stroke-dasharray="1,5" d="M479.1183,-361.1392C553.646,-354.1466 751.7253,-334.3026 776.8931,-318.7178 806.5311,-300.365 828.1507,-267.054 841.8817,-239.938"/>
<polygon fill="#ff0000" stroke="#ff0000" stroke-width=".3773" points="845.1782,-241.1628 846.4097,-230.6397 838.8847,-238.098 845.1782,-241.1628"/>
</g>
<!-- 1028 -->
<g id="node18" class="node">
<title>1028</title>
<ellipse fill="#ffffff" stroke="#000000" cx="88.8931" cy="-197.1579" rx="25" ry="25"/>
<text text-anchor="middle" x="88.8931" y="-194.9579" font-family="Times,serif" font-size="9.00" fill="#000000">1028</text>
</g>
<!-- x&#45;other&#45;vel&#45;&gt;1028 -->
<g id="edge32" class="edge">
<title>x&#45;other&#45;vel&#45;&gt;1028</title>
<path fill="none" stroke="#ff0000" stroke-width=".5939" stroke-dasharray="1,5" d="M422.7803,-362.9113C331.5137,-360.0068 47.8331,-348.6242 20.8931,-318.7178 -6.4756,-288.3355 31.9831,-245.0512 61.2461,-219.1665"/>
<polygon fill="#ff0000" stroke="#ff0000" stroke-width=".5939" points="63.8801,-221.5184 69.1935,-212.3523 59.3237,-216.2043 63.8801,-221.5184"/>
</g>
<!-- 2313 -->
<g id="node21" class="node">
<title>2313</title>
<ellipse fill="#ffffff" stroke="#000000" cx="450.8931" cy="-293.9691" rx="25" ry="25"/>
<text text-anchor="middle" x="450.8931" y="-291.7691" font-family="Times,serif" font-size="9.00" fill="#000000">2313</text>
</g>
<!-- x&#45;other&#45;vel&#45;&gt;2313 -->
<g id="edge53" class="edge">
<title>x&#45;other&#45;vel&#45;&gt;2313</title>
<path fill="none" stroke="#ff0000" stroke-width=".147" d="M450.8931,-354.5994C450.8931,-347.9827 450.8931,-338.5712 450.8931,-329.1315"/>
<polygon fill="#ff0000" stroke="#ff0000" stroke-width=".147" points="454.3932,-329.0083 450.8931,-319.0083 447.3932,-329.0084 454.3932,-329.0083"/>
</g>
<!-- x&#45;other&#45;vel&#45;&gt;1138 -->
<g id="edge44" class="edge">
<title>x&#45;other&#45;vel&#45;&gt;1138</title>
<path fill="none" stroke="#00ff00" stroke-width=".4639" d="M464.7508,-354.5994C480.6603,-344.1308 507.2017,-326.6664 527.7233,-313.1631"/>
<polygon fill="#00ff00" stroke="#00ff00" stroke-width=".4639" points="529.6712,-316.0711 536.1011,-307.6504 525.8234,-310.2234 529.6712,-316.0711"/>
</g>
<!-- 1810 -->
<g id="node25" class="node">
<title>1810</title>
<ellipse fill="#ffffff" stroke="#000000" cx="121.8931" cy="-293.9691" rx="25" ry="25"/>
<text text-anchor="middle" x="121.8931" y="-291.7691" font-family="Times,serif" font-size="9.00" fill="#000000">1810</text>
</g>
<!-- x&#45;other&#45;vel&#45;&gt;1810 -->
<g id="edge46" class="edge">
<title>x&#45;other&#45;vel&#45;&gt;1810</title>
<path fill="none" stroke="#00ff00" stroke-width=".2836" d="M422.562,-361.1221C358.4419,-354.9708 204.0444,-338.5271 155.8931,-318.7178 153.7536,-317.8376 151.6228,-316.7962 149.5314,-315.6468"/>
<polygon fill="#00ff00" stroke="#00ff00" stroke-width=".2836" points="151.0345,-312.4569 140.709,-310.0829 147.3004,-318.3777 151.0345,-312.4569"/>
</g>
<!-- 2169 -->
<g id="node28" class="node">
<title>2169</title>
<ellipse fill="#ffffff" stroke="#000000" cx="54.8931" cy="-293.9691" rx="25" ry="25"/>
<text text-anchor="middle" x="54.8931" y="-291.7691" font-family="Times,serif" font-size="9.00" fill="#000000">2169</text>
</g>
<!-- x&#45;other&#45;vel&#45;&gt;2169 -->
<g id="edge51" class="edge">
<title>x&#45;other&#45;vel&#45;&gt;2169</title>
<path fill="none" stroke="#ff0000" stroke-width=".1895" d="M422.7865,-362.1054C348.5651,-357.5521 148.847,-343.3047 87.8931,-318.7178 86.0003,-317.9543 84.12,-317.0541 82.2728,-316.057"/>
<polygon fill="#ff0000" stroke="#ff0000" stroke-width=".1895" points="83.7307,-312.8378 73.4085,-310.4496 79.9884,-318.7535 83.7307,-312.8378"/>
</g>
<!-- y&#45;other&#45;vel -->
<g id="node12" class="node">
<title>y&#45;other&#45;vel</title>
<polygon fill="#d3d3d3" stroke="#000000" points="1142.8931,-372.7178 1086.8931,-372.7178 1086.8931,-354.7178 1142.8931,-354.7178 1142.8931,-372.7178"/>
<text text-anchor="middle" x="1114.8931" y="-361.5178" font-family="Times,serif" font-size="9.00" fill="#000000">y&#45;other&#45;vel</text>
</g>
<!-- 1121 -->
<g id="node19" class="node">
<title>1121</title>
<ellipse fill="#ffffff" stroke="#000000" cx="311.8931" cy="-100.3467" rx="25" ry="25"/>
<text text-anchor="middle" x="311.8931" y="-98.1467" font-family="Times,serif" font-size="9.00" fill="#000000">1121</text>
</g>
<!-- right&#45;&gt;1121 -->
<g id="edge45" class="edge">
<title>right&#45;&gt;1121</title>
<path fill="none" stroke="#00ff00" stroke-width=".3435" d="M277.6582,-175.6724C283.418,-162.9993 290.8184,-146.7166 297.2642,-132.534"/>
<polygon fill="#00ff00" stroke="#00ff00" stroke-width=".3435" points="300.591,-133.6732 301.5423,-123.1211 294.2183,-130.7768 300.591,-133.6732"/>
</g>
<!-- 1028&#45;&gt;left -->
<g id="edge33" class="edge">
<title>1028&#45;&gt;left</title>
<path fill="none" stroke="#00ff00" stroke-width=".2955" d="M108.1841,-181.124C140.9081,-154.7981 210.3458,-102.6419 277.8931,-75.598 368.066,-39.4956 483.595,-26.2689 537.5685,-21.8317"/>
<polygon fill="#00ff00" stroke="#00ff00" stroke-width=".2955" points="538.1201,-25.2995 547.8189,-21.0352 537.5777,-18.3206 538.1201,-25.2995"/>
</g>
<!-- 1121&#45;&gt;left -->
<g id="edge34" class="edge">
<title>1121&#45;&gt;left</title>
<path fill="none" stroke="#ff0000" stroke-width=".1311" stroke-dasharray="1,5" d="M335.5181,-92.9134C382.6493,-78.084 488.1984,-44.8741 539.2094,-28.824"/>
<polygon fill="#ff0000" stroke="#ff0000" stroke-width=".1311" points="540.4504,-32.1028 548.9388,-25.7628 538.3494,-25.4255 540.4504,-32.1028"/>
</g>
<!-- 297 -->
<g id="node20" class="node">
<title>297</title>
<ellipse fill="#ffffff" stroke="#000000" cx="386.8931" cy="-293.9691" rx="21.4286" ry="21.4286"/>
<text text-anchor="middle" x="386.8931" y="-291.7691" font-family="Times,serif" font-size="9.00" fill="#000000">297</text>
</g>
<!-- 297&#45;&gt;none -->
<g id="edge29" class="edge">
<title>297&#45;&gt;none</title>
<path fill="none" stroke="#00ff00" stroke-width=".1369" d="M402.909,-279.6912C407.2991,-276.0779 412.1571,-272.3407 416.8931,-269.2203 452.3736,-245.8442 496.3782,-224.2893 525.4771,-210.9613"/>
<polygon fill="#00ff00" stroke="#00ff00" stroke-width=".1369" points="527.0748,-214.08 534.7401,-206.766 524.1868,-207.7035 527.0748,-214.08"/>
</g>
<!-- 2313&#45;&gt;none -->
<g id="edge54" class="edge">
<title>2313&#45;&gt;none</title>
<path fill="none" stroke="#00ff00" stroke-width=".533" stroke-dasharray="1,5" d="M469.3569,-277.1059C486.5608,-261.3933 512.3639,-237.827 531.5028,-220.3472"/>
<polygon fill="#00ff00" stroke="#00ff00" stroke-width=".533" points="533.9706,-222.8335 538.9941,-213.5053 529.2499,-217.6648 533.9706,-222.8335"/>
</g>
<!-- 1902&#45;&gt;630 -->
<g id="edge49" class="edge">
<title>1902&#45;&gt;630</title>
<path fill="none" stroke="#ff0000" stroke-width=".2179" d="M1289.8931,-172.2266C1289.8931,-159.8487 1289.8931,-144.7688 1289.8931,-131.6236"/>
<polygon fill="#ff0000" stroke="#ff0000" stroke-width=".2179" points="1293.3932,-131.5848 1289.8931,-121.5849 1286.3932,-131.5849 1293.3932,-131.5848"/>
</g>
<!-- 1231&#45;&gt;backward -->
<g id="edge38" class="edge">
<title>1231&#45;&gt;backward</title>
<path fill="none" stroke="#ff0000" stroke-width=".3629" stroke-dasharray="1,5" d="M880.219,-270.0382C877.8546,-261.5605 875.1111,-251.7235 872.4195,-242.0726"/>
<polygon fill="#ff0000" stroke="#ff0000" stroke-width=".3629" points="875.7093,-240.8396 869.6515,-232.1474 868.9666,-242.7201 875.7093,-240.8396"/>
</g>
<!-- 1138&#45;&gt;none -->
<g id="edge36" class="edge">
<title>1138&#45;&gt;none</title>
<path fill="none" stroke="#00ff00" stroke-width=".2725" d="M556.8931,-269.0378C556.8931,-257.5703 556.8931,-243.7836 556.8931,-231.3649"/>
<polygon fill="#00ff00" stroke="#00ff00" stroke-width=".2725" points="560.3932,-231.3357 556.8931,-221.3358 553.3932,-231.3358 560.3932,-231.3357"/>
</g>
<!-- 1810&#45;&gt;right -->
<g id="edge50" class="edge">
<title>1810&#45;&gt;right</title>
<path fill="none" stroke="#00ff00" stroke-width=".2551" d="M141.8926,-279.1189C146.4586,-275.8104 151.315,-272.3555 155.8931,-269.2203 183.8498,-250.0749 216.501,-229.2343 239.3108,-214.9133"/>
<polygon fill="#00ff00" stroke="#00ff00" stroke-width=".2551" points="241.2209,-217.8468 247.84,-209.5741 237.5067,-211.9135 241.2209,-217.8468"/>
</g>
<!-- 1810&#45;&gt;1028 -->
<g id="edge47" class="edge">
<title>1810&#45;&gt;1028</title>
<path fill="none" stroke="#00ff00" stroke-width=".8229" stroke-dasharray="1,5" d="M113.9047,-270.5338C109.8006,-258.4936 104.729,-243.6152 100.2278,-230.4101"/>
<polygon fill="#00ff00" stroke="#00ff00" stroke-width=".8229" points="103.4616,-229.0489 96.9223,-220.7129 96.836,-231.3074 103.4616,-229.0489"/>
</g>
<!-- 1302&#45;&gt;left -->
<g id="edge40" class="edge">
<title>1302&#45;&gt;left</title>
<path fill="none" stroke="#ff0000" stroke-width=".697" stroke-dasharray="1,5" d="M1194.1796,-85.3027C1188.2681,-81.5111 1181.5724,-77.8751 1174.8931,-75.598 1066.0698,-38.4977 704.6814,-24.1783 597.8714,-20.6959"/>
<polygon fill="#ff0000" stroke="#ff0000" stroke-width=".697" points="597.8943,-17.1949 587.788,-20.3749 597.6716,-24.1914 597.8943,-17.1949"/>
</g>
<!-- 2169&#45;&gt;1028 -->
<g id="edge52" class="edge">
<title>2169&#45;&gt;1028</title>
<path fill="none" stroke="#ff0000" stroke-width=".3726" d="M63.1236,-270.5338C67.3521,-258.4936 72.5774,-243.6152 77.215,-230.4101"/>
<polygon fill="#ff0000" stroke="#ff0000" stroke-width=".3726" points="80.6092,-231.3078 80.6206,-220.7129 74.0047,-228.9882 80.6092,-231.3078"/>
</g>
<!-- 1468&#45;&gt;630 -->
<g id="edge43" class="edge">
<title>1468&#45;&gt;630</title>
<path fill="none" stroke="#ff0000" stroke-width=".1139" d="M1342.6841,-176.6267C1332.5072,-161.9216 1318.7271,-142.0102 1307.7979,-126.218"/>
<polygon fill="#ff0000" stroke="#ff0000" stroke-width=".1139" points="1310.6291,-124.1587 1302.0603,-117.9276 1304.8731,-128.1422 1310.6291,-124.1587"/>
</g>
</g>
</svg>
