<?xml version="1.0" encoding="UTF-8" standalone="no"?>
<!DOCTYPE svg PUBLIC "-//W3C//DTD SVG 1.1//EN"
 "http://www.w3.org/Graphics/SVG/1.1/DTD/svg11.dtd">
<!-- Generated by graphviz version 2.40.1 (20161225.0304)
 -->
<!-- Title: %3 Pages: 1 -->
<svg width="809pt" height="483pt"
 viewBox="0.00 0.00 808.70 483.19" xmlns="http://www.w3.org/2000/svg" xmlns:xlink="http://www.w3.org/1999/xlink">
<g id="graph0" class="graph" transform="scale(1 1) rotate(0) translate(4 479.1859)">
<title>%3</title>
<polygon fill="#ffffff" stroke="transparent" points="-4,4 -4,-479.1859 804.696,-479.1859 804.696,4 -4,4"/>
<!-- x&#45;vel -->
<g id="node1" class="node">
<title>x&#45;vel</title>
<polygon fill="#d3d3d3" stroke="#000000" points="253.2875,-475.1859 218.2875,-475.1859 218.2875,-457.1859 253.2875,-457.1859 253.2875,-475.1859"/>
<text text-anchor="middle" x="235.7875" y="-463.9859" font-family="Times,serif" font-size="9.00" fill="#000000">x&#45;vel</text>
</g>
<!-- none -->
<g id="node13" class="node">
<title>none</title>
<ellipse fill="#add8e6" stroke="#000000" cx="129.7875" cy="-310.9396" rx="24.0833" ry="24.0833"/>
<text text-anchor="middle" x="129.7875" y="-308.7396" font-family="Times,serif" font-size="9.00" fill="#000000">none</text>
</g>
<!-- x&#45;vel&#45;&gt;none -->
<g id="edge5" class="edge">
<title>x&#45;vel&#45;&gt;none</title>
<path fill="none" stroke="#ff0000" stroke-width=".1482" stroke-dasharray="1,5" d="M218.0995,-462.9478C196.5123,-457.992 160.6818,-446.3171 142.7875,-421.1859 127.1804,-399.2667 124.7302,-368.4646 125.728,-344.9882"/>
<polygon fill="#ff0000" stroke="#ff0000" stroke-width=".1482" points="129.2358,-344.9822 126.3943,-334.7755 122.2506,-344.5265 129.2358,-344.9822"/>
</g>
<!-- right -->
<g id="node14" class="node">
<title>right</title>
<ellipse fill="#add8e6" stroke="#000000" cx="192.7875" cy="-31.8198" rx="23.1702" ry="23.1702"/>
<text text-anchor="middle" x="192.7875" y="-29.6198" font-family="Times,serif" font-size="9.00" fill="#000000">right</text>
</g>
<!-- x&#45;vel&#45;&gt;right -->
<g id="edge21" class="edge">
<title>x&#45;vel&#45;&gt;right</title>
<path fill="none" stroke="#00ff00" stroke-width=".5501" stroke-dasharray="1,5" d="M218.0942,-464.7833C172.7367,-460.8261 53.9673,-448.0704 26.7875,-421.1859 -8.9326,-385.8537 1.7875,-361.182 1.7875,-310.9396 1.7875,-310.9396 1.7875,-310.9396 1.7875,-214.1285 1.7875,-126.9565 107.1802,-68.6953 161.3882,-44.4944"/>
<polygon fill="#00ff00" stroke="#00ff00" stroke-width=".5501" points="163.0997,-47.567 170.8774,-40.3726 160.3109,-41.1465 163.0997,-47.567"/>
</g>
<!-- left -->
<g id="node15" class="node">
<title>left</title>
<ellipse fill="#add8e6" stroke="#000000" cx="521.7875" cy="-310.9396" rx="19.6" ry="19.6"/>
<text text-anchor="middle" x="521.7875" y="-308.7396" font-family="Times,serif" font-size="9.00" fill="#000000">left</text>
</g>
<!-- x&#45;vel&#45;&gt;left -->
<g id="edge28" class="edge">
<title>x&#45;vel&#45;&gt;left</title>
<path fill="none" stroke="#00ff00" stroke-width=".2189" stroke-dasharray="1,5" d="M253.5275,-457.1973C271.1636,-448.2174 298.9518,-433.9495 322.7875,-421.1859 385.0581,-387.8412 457.4459,-347.2802 495.4236,-325.8596"/>
<polygon fill="#00ff00" stroke="#00ff00" stroke-width=".2189" points="497.3232,-328.8064 504.3104,-320.8421 493.8817,-322.7109 497.3232,-328.8064"/>
</g>
<!-- backward -->
<g id="node17" class="node">
<title>backward</title>
<ellipse fill="#add8e6" stroke="#000000" cx="377.7875" cy="-214.1285" rx="36.125" ry="36.125"/>
<text text-anchor="middle" x="377.7875" y="-211.9285" font-family="Times,serif" font-size="9.00" fill="#000000">backward</text>
</g>
<!-- x&#45;vel&#45;&gt;backward -->
<g id="edge4" class="edge">
<title>x&#45;vel&#45;&gt;backward</title>
<path fill="none" stroke="#00ff00" stroke-width=".1123" stroke-dasharray="1,5" d="M234.9873,-456.9462C233.9081,-438.5466 234.1074,-396.9302 254.7875,-371.6884 281.0474,-339.636 313.0039,-366.4293 340.7875,-335.6884 359.4434,-315.0469 368.6976,-285.2389 373.2859,-260.3067"/>
<polygon fill="#00ff00" stroke="#00ff00" stroke-width=".1123" points="376.7597,-260.7513 374.929,-250.3158 369.8525,-259.6152 376.7597,-260.7513"/>
</g>
<!-- 1238 -->
<g id="node22" class="node">
<title>1238</title>
<ellipse fill="#ffffff" stroke="#000000" cx="288.7875" cy="-396.4371" rx="25" ry="25"/>
<text text-anchor="middle" x="288.7875" y="-394.2371" font-family="Times,serif" font-size="9.00" fill="#000000">1238</text>
</g>
<!-- x&#45;vel&#45;&gt;1238 -->
<g id="edge48" class="edge">
<title>x&#45;vel&#45;&gt;1238</title>
<path fill="none" stroke="#ff0000" stroke-width=".4726" d="M242.7164,-457.0674C248.9933,-448.8069 258.5801,-436.1905 267.3863,-424.6015"/>
<polygon fill="#ff0000" stroke="#ff0000" stroke-width=".4726" points="270.3386,-426.5011 273.6021,-416.4214 264.7651,-422.266 270.3386,-426.5011"/>
</g>
<!-- y&#45;vel -->
<g id="node2" class="node">
<title>y&#45;vel</title>
<polygon fill="#d3d3d3" stroke="#000000" points="285.2875,-129.8528 250.2875,-129.8528 250.2875,-111.8528 285.2875,-111.8528 285.2875,-129.8528"/>
<text text-anchor="middle" x="267.7875" y="-118.6528" font-family="Times,serif" font-size="9.00" fill="#000000">y&#45;vel</text>
</g>
<!-- y&#45;vel&#45;&gt;right -->
<g id="edge18" class="edge">
<title>y&#45;vel&#45;&gt;right</title>
<path fill="none" stroke="#ff0000" stroke-width=".3301" stroke-dasharray="1,5" d="M260.0437,-111.6601C249.3982,-99.0227 229.8237,-75.7857 214.5265,-57.6263"/>
<polygon fill="#ff0000" stroke="#ff0000" stroke-width=".3301" points="216.966,-55.0896 207.8465,-49.6964 211.6124,-59.5994 216.966,-55.0896"/>
</g>
<!-- forward -->
<g id="node16" class="node">
<title>forward</title>
<ellipse fill="#add8e6" stroke="#000000" cx="413.7875" cy="-31.8198" rx="31.6406" ry="31.6406"/>
<text text-anchor="middle" x="413.7875" y="-29.6198" font-family="Times,serif" font-size="9.00" fill="#000000">forward</text>
</g>
<!-- y&#45;vel&#45;&gt;forward -->
<g id="edge40" class="edge">
<title>y&#45;vel&#45;&gt;forward</title>
<path fill="none" stroke="#00ff00" stroke-width=".5364" d="M278.5465,-111.8042C283.3865,-107.8912 289.2471,-103.3651 294.7875,-99.6396 321.0927,-81.9516 352.2694,-64.2952 376.1117,-51.4337"/>
<polygon fill="#00ff00" stroke="#00ff00" stroke-width=".5364" points="378.0239,-54.3801 385.1901,-46.5764 374.7216,-48.208 378.0239,-54.3801"/>
</g>
<!-- x&#45;pos -->
<g id="node3" class="node">
<title>x&#45;pos</title>
<polygon fill="#d3d3d3" stroke="#000000" points="339.7875,-129.8528 303.7875,-129.8528 303.7875,-111.8528 339.7875,-111.8528 339.7875,-129.8528"/>
<text text-anchor="middle" x="321.7875" y="-118.6528" font-family="Times,serif" font-size="9.00" fill="#000000">x&#45;pos</text>
</g>
<!-- x&#45;pos&#45;&gt;right -->
<g id="edge6" class="edge">
<title>x&#45;pos&#45;&gt;right</title>
<path fill="none" stroke="#ff0000" stroke-width=".2757" d="M310.1821,-111.8262C305.1857,-108.0013 299.2481,-103.5366 293.7875,-99.6396 269.6766,-82.4323 241.6707,-63.7241 221.2738,-50.324"/>
<polygon fill="#ff0000" stroke="#ff0000" stroke-width=".2757" points="223.0391,-47.2963 212.7559,-44.7458 219.2041,-53.1523 223.0391,-47.2963"/>
</g>
<!-- x&#45;pos&#45;&gt;forward -->
<g id="edge11" class="edge">
<title>x&#45;pos&#45;&gt;forward</title>
<path fill="none" stroke="#ff0000" stroke-width=".2524" d="M331.2866,-111.6601C343.4987,-99.8419 365.2897,-78.7536 383.4103,-61.2174"/>
<polygon fill="#ff0000" stroke="#ff0000" stroke-width=".2524" points="386.161,-63.4261 390.913,-53.9567 381.293,-58.3958 386.161,-63.4261"/>
</g>
<!-- y&#45;pos -->
<g id="node4" class="node">
<title>y&#45;pos</title>
<polygon fill="#d3d3d3" stroke="#000000" points="547.7875,-475.1859 511.7875,-475.1859 511.7875,-457.1859 547.7875,-457.1859 547.7875,-475.1859"/>
<text text-anchor="middle" x="529.7875" y="-463.9859" font-family="Times,serif" font-size="9.00" fill="#000000">y&#45;pos</text>
</g>
<!-- y&#45;pos&#45;&gt;none -->
<g id="edge43" class="edge">
<title>y&#45;pos&#45;&gt;none</title>
<path fill="none" stroke="#00ff00" stroke-width=".4585" d="M511.3705,-460.9128C486.3964,-453.4719 440.6741,-438.8123 403.7875,-421.1859 365.721,-402.9956 361.8899,-387.5299 322.7875,-371.6884 255.2321,-344.3197 228.9681,-366.2323 162.7875,-335.6884 160.7272,-334.7375 158.6712,-333.6428 156.6502,-332.4545"/>
<polygon fill="#00ff00" stroke="#00ff00" stroke-width=".4585" points="158.3786,-329.4013 148.1078,-326.8009 154.5153,-335.2386 158.3786,-329.4013"/>
</g>
<!-- y&#45;pos&#45;&gt;left -->
<g id="edge27" class="edge">
<title>y&#45;pos&#45;&gt;left</title>
<path fill="none" stroke="#ff0000" stroke-width=".2939" d="M529.3111,-456.9394C528.1618,-434.6373 525.1962,-377.0878 523.3501,-341.2628"/>
<polygon fill="#ff0000" stroke="#ff0000" stroke-width=".2939" points="526.8265,-340.7118 522.8164,-330.9052 519.8357,-341.0721 526.8265,-340.7118"/>
</g>
<!-- y&#45;pos&#45;&gt;forward -->
<g id="edge16" class="edge">
<title>y&#45;pos&#45;&gt;forward</title>
<path fill="none" stroke="#ff0000" stroke-width=".4695" d="M547.8166,-460.2276C551.1232,-459.1813 554.5517,-458.1272 557.7875,-457.1859 618.6505,-439.4806 641.2542,-453.4952 695.7875,-421.1859 753.7397,-386.851 799.7875,-378.2993 799.7875,-310.9396 799.7875,-310.9396 799.7875,-310.9396 799.7875,-214.1285 799.7875,-161.5266 808.226,-135.5484 769.7875,-99.6396 724.7601,-57.5755 540.2267,-40.1771 456.0269,-34.3248"/>
<polygon fill="#ff0000" stroke="#ff0000" stroke-width=".4695" points="456.0051,-30.8155 445.7927,-33.6362 455.5351,-37.7997 456.0051,-30.8155"/>
</g>
<!-- y&#45;pos&#45;&gt;backward -->
<g id="edge9" class="edge">
<title>y&#45;pos&#45;&gt;backward</title>
<path fill="none" stroke="#00ff00" stroke-width=".4626" d="M511.6222,-462.1674C490.5726,-456.5705 456.2893,-444.3927 436.7875,-421.1859 398.4153,-375.5233 384.9563,-306.3377 380.2614,-260.6952"/>
<polygon fill="#00ff00" stroke="#00ff00" stroke-width=".4626" points="383.7227,-260.115 379.3161,-250.48 376.7525,-260.76 383.7227,-260.115"/>
</g>
<!-- 384 -->
<g id="node18" class="node">
<title>384</title>
<ellipse fill="#ffffff" stroke="#000000" cx="578.7875" cy="-396.4371" rx="21.4286" ry="21.4286"/>
<text text-anchor="middle" x="578.7875" y="-394.2371" font-family="Times,serif" font-size="9.00" fill="#000000">384</text>
</g>
<!-- y&#45;pos&#45;&gt;384 -->
<g id="edge32" class="edge">
<title>y&#45;pos&#45;&gt;384</title>
<path fill="none" stroke="#ff0000" stroke-width="1.0598" stroke-dasharray="1,5" d="M536.1934,-457.0674C542.3724,-448.2721 552.0205,-434.5385 560.5728,-422.3647"/>
<polygon fill="#ff0000" stroke="#ff0000" stroke-width="1.0598" points="563.6567,-424.0636 566.5413,-413.869 557.9289,-420.0396 563.6567,-424.0636"/>
</g>
<!-- x&#45;lm1&#45;vec -->
<g id="node5" class="node">
<title>x&#45;lm1&#45;vec</title>
<polygon fill="#d3d3d3" stroke="#000000" points="225.2875,-319.9396 172.2875,-319.9396 172.2875,-301.9396 225.2875,-301.9396 225.2875,-319.9396"/>
<text text-anchor="middle" x="198.7875" y="-308.7396" font-family="Times,serif" font-size="9.00" fill="#000000">x&#45;lm1&#45;vec</text>
</g>
<!-- x&#45;lm1&#45;vec&#45;&gt;forward -->
<g id="edge26" class="edge">
<title>x&#45;lm1&#45;vec&#45;&gt;forward</title>
<path fill="none" stroke="#00ff00" stroke-width=".2192" d="M208.2758,-301.6026C233.0815,-276.9219 301.2284,-207.3627 348.7875,-142.066 365.6134,-118.9649 381.9403,-91.2463 394.022,-69.3821"/>
<polygon fill="#00ff00" stroke="#00ff00" stroke-width=".2192" points="397.2059,-70.8545 398.9291,-60.4007 391.0629,-67.4982 397.2059,-70.8545"/>
</g>
<!-- x&#45;lm1&#45;vec&#45;&gt;backward -->
<g id="edge20" class="edge">
<title>x&#45;lm1&#45;vec&#45;&gt;backward</title>
<path fill="none" stroke="#00ff00" stroke-width=".4956" stroke-dasharray="1,5" d="M212.5266,-301.9146C220.3487,-296.964 230.4271,-290.8952 239.7875,-286.1909 277.5447,-267.2153 290.8374,-270.6938 327.7875,-250.1909 332.0662,-247.8168 336.4113,-245.1405 340.6627,-242.3456"/>
<polygon fill="#00ff00" stroke="#00ff00" stroke-width=".4956" points="342.9288,-245.0361 349.2062,-236.5012 338.9765,-239.2585 342.9288,-245.0361"/>
</g>
<!-- y&#45;lm1&#45;vec -->
<g id="node6" class="node">
<title>y&#45;lm1&#45;vec</title>
<polygon fill="#d3d3d3" stroke="#000000" points="89.2875,-405.4371 36.2875,-405.4371 36.2875,-387.4371 89.2875,-387.4371 89.2875,-405.4371"/>
<text text-anchor="middle" x="62.7875" y="-394.2371" font-family="Times,serif" font-size="9.00" fill="#000000">y&#45;lm1&#45;vec</text>
</g>
<!-- y&#45;lm1&#45;vec&#45;&gt;none -->
<g id="edge17" class="edge">
<title>y&#45;lm1&#45;vec&#45;&gt;none</title>
<path fill="none" stroke="#ff0000" stroke-width=".279" stroke-dasharray="1,5" d="M69.9577,-387.2874C79.1252,-375.589 95.3992,-354.822 108.6622,-337.8974"/>
<polygon fill="#ff0000" stroke="#ff0000" stroke-width=".279" points="111.4736,-339.9841 114.8869,-329.9541 105.9638,-335.6663 111.4736,-339.9841"/>
</g>
<!-- y&#45;lm1&#45;vec&#45;&gt;forward -->
<g id="edge15" class="edge">
<title>y&#45;lm1&#45;vec&#45;&gt;forward</title>
<path fill="none" stroke="#ff0000" stroke-width=".3656" stroke-dasharray="1,5" d="M62.8201,-387.203C63.4958,-346.3516 71.9245,-180.3376 162.7875,-99.6396 193.7188,-72.1687 309.0331,-49.2679 372.0368,-38.476"/>
<polygon fill="#ff0000" stroke="#ff0000" stroke-width=".3656" points="372.7704,-41.9017 382.0492,-36.7875 371.6063,-34.9992 372.7704,-41.9017"/>
</g>
<!-- x&#45;lm2&#45;vec -->
<g id="node7" class="node">
<title>x&#45;lm2&#45;vec</title>
<polygon fill="#d3d3d3" stroke="#000000" points="686.2875,-405.4371 633.2875,-405.4371 633.2875,-387.4371 686.2875,-387.4371 686.2875,-405.4371"/>
<text text-anchor="middle" x="659.7875" y="-394.2371" font-family="Times,serif" font-size="9.00" fill="#000000">x&#45;lm2&#45;vec</text>
</g>
<!-- x&#45;lm2&#45;vec&#45;&gt;right -->
<g id="edge23" class="edge">
<title>x&#45;lm2&#45;vec&#45;&gt;right</title>
<path fill="none" stroke="#00ff00" stroke-width=".1197" d="M669.6342,-387.26C680.6566,-376.2464 697.8769,-356.6276 704.7875,-335.6884 726.7431,-269.1634 746.976,-233.9923 704.7875,-178.066 674.8853,-138.4267 334.5588,-62.3163 225.9105,-38.8699"/>
<polygon fill="#00ff00" stroke="#00ff00" stroke-width=".1197" points="226.3597,-35.3866 215.8473,-36.7061 224.8881,-42.2301 226.3597,-35.3866"/>
</g>
<!-- x&#45;lm2&#45;vec&#45;&gt;left -->
<g id="edge14" class="edge">
<title>x&#45;lm2&#45;vec&#45;&gt;left</title>
<path fill="none" stroke="#00ff00" stroke-width=".1064" d="M645.0191,-387.2874C621.8048,-372.905 576.4661,-344.8156 547.728,-327.0109"/>
<polygon fill="#00ff00" stroke="#00ff00" stroke-width=".1064" points="549.3739,-323.9134 539.0298,-321.622 545.6872,-329.864 549.3739,-323.9134"/>
</g>
<!-- x&#45;lm2&#45;vec&#45;&gt;forward -->
<g id="edge10" class="edge">
<title>x&#45;lm2&#45;vec&#45;&gt;forward</title>
<path fill="none" stroke="#00ff00" stroke-width=".3443" d="M679.5998,-387.3749C698.379,-377.5854 725.4897,-360.0515 737.7875,-335.6884 785.0728,-242.012 809.0751,-180.9853 742.7875,-99.6396 707.0453,-55.7779 536.4733,-39.4443 455.9971,-34.1071"/>
<polygon fill="#00ff00" stroke="#00ff00" stroke-width=".3443" points="455.9248,-30.5955 445.7227,-33.4532 455.4801,-37.5814 455.9248,-30.5955"/>
</g>
<!-- x&#45;lm2&#45;vec&#45;&gt;backward -->
<g id="edge29" class="edge">
<title>x&#45;lm2&#45;vec&#45;&gt;backward</title>
<path fill="none" stroke="#ff0000" stroke-width=".3223" stroke-dasharray="1,5" d="M654.6102,-387.3754C642.3221,-366.622 609.3652,-315.2063 568.7875,-286.1909 562.4814,-281.6816 475.5492,-249.665 421.1642,-229.8542"/>
<polygon fill="#ff0000" stroke="#ff0000" stroke-width=".3223" points="422.3387,-226.5571 411.7446,-226.4264 419.9449,-233.1351 422.3387,-226.5571"/>
</g>
<!-- 512 -->
<g id="node20" class="node">
<title>512</title>
<ellipse fill="#ffffff" stroke="#000000" cx="674.7875" cy="-310.9396" rx="21.4286" ry="21.4286"/>
<text text-anchor="middle" x="674.7875" y="-308.7396" font-family="Times,serif" font-size="9.00" fill="#000000">512</text>
</g>
<!-- x&#45;lm2&#45;vec&#45;&gt;512 -->
<g id="edge38" class="edge">
<title>x&#45;lm2&#45;vec&#45;&gt;512</title>
<path fill="none" stroke="#00ff00" stroke-width=".584" stroke-dasharray="1,5" d="M661.3928,-387.2874C663.2775,-376.5448 666.5039,-358.1549 669.3179,-342.1157"/>
<polygon fill="#00ff00" stroke="#00ff00" stroke-width=".584" points="672.8085,-342.4734 671.0893,-332.019 665.9138,-341.2637 672.8085,-342.4734"/>
</g>
<!-- 474 -->
<g id="node24" class="node">
<title>474</title>
<ellipse fill="#ffffff" stroke="#000000" cx="614.7875" cy="-214.1285" rx="21.4286" ry="21.4286"/>
<text text-anchor="middle" x="614.7875" y="-211.9285" font-family="Times,serif" font-size="9.00" fill="#000000">474</text>
</g>
<!-- x&#45;lm2&#45;vec&#45;&gt;474 -->
<g id="edge36" class="edge">
<title>x&#45;lm2&#45;vec&#45;&gt;474</title>
<path fill="none" stroke="#ff0000" stroke-width=".379" d="M657.4941,-387.1458C651.0908,-361.2038 632.8064,-287.1282 622.3559,-244.7902"/>
<polygon fill="#ff0000" stroke="#ff0000" stroke-width=".379" points="625.7362,-243.8795 619.9417,-235.0096 618.9402,-245.557 625.7362,-243.8795"/>
</g>
<!-- y&#45;lm2&#45;vec -->
<g id="node8" class="node">
<title>y&#45;lm2&#45;vec</title>
<polygon fill="#d3d3d3" stroke="#000000" points="619.2875,-475.1859 566.2875,-475.1859 566.2875,-457.1859 619.2875,-457.1859 619.2875,-475.1859"/>
<text text-anchor="middle" x="592.7875" y="-463.9859" font-family="Times,serif" font-size="9.00" fill="#000000">y&#45;lm2&#45;vec</text>
</g>
<!-- x&#45;other&#45;vec -->
<g id="node9" class="node">
<title>x&#45;other&#45;vec</title>
<polygon fill="#d3d3d3" stroke="#000000" points="733.7875,-129.8528 675.7875,-129.8528 675.7875,-111.8528 733.7875,-111.8528 733.7875,-129.8528"/>
<text text-anchor="middle" x="704.7875" y="-118.6528" font-family="Times,serif" font-size="9.00" fill="#000000">x&#45;other&#45;vec</text>
</g>
<!-- x&#45;other&#45;vec&#45;&gt;forward -->
<g id="edge3" class="edge">
<title>x&#45;other&#45;vec&#45;&gt;forward</title>
<path fill="none" stroke="#ff0000" stroke-width=".2377" d="M688.3733,-111.8322C680.491,-107.7416 670.8158,-103.0649 661.7875,-99.6396 590.9228,-72.7538 504.9577,-51.6967 455.101,-40.5645"/>
<polygon fill="#ff0000" stroke="#ff0000" stroke-width=".2377" points="455.8469,-37.145 445.3275,-38.4063 454.3375,-43.9803 455.8469,-37.145"/>
</g>
<!-- y&#45;other&#45;vec -->
<g id="node10" class="node">
<title>y&#45;other&#45;vec</title>
<polygon fill="#d3d3d3" stroke="#000000" points="695.7875,-475.1859 637.7875,-475.1859 637.7875,-457.1859 695.7875,-457.1859 695.7875,-475.1859"/>
<text text-anchor="middle" x="666.7875" y="-463.9859" font-family="Times,serif" font-size="9.00" fill="#000000">y&#45;other&#45;vec</text>
</g>
<!-- x&#45;other&#45;vel -->
<g id="node11" class="node">
<title>x&#45;other&#45;vel</title>
<polygon fill="#d3d3d3" stroke="#000000" points="501.7875,-405.4371 445.7875,-405.4371 445.7875,-387.4371 501.7875,-387.4371 501.7875,-405.4371"/>
<text text-anchor="middle" x="473.7875" y="-394.2371" font-family="Times,serif" font-size="9.00" fill="#000000">x&#45;other&#45;vel</text>
</g>
<!-- x&#45;other&#45;vel&#45;&gt;none -->
<g id="edge25" class="edge">
<title>x&#45;other&#45;vel&#45;&gt;none</title>
<path fill="none" stroke="#ff0000" stroke-width=".2619" stroke-dasharray="1,5" d="M447.747,-387.3283C432.2305,-382.1661 412.0595,-375.9148 393.7875,-371.6884 292.5545,-348.2723 258.5301,-376.0592 162.7875,-335.6884 160.6966,-334.8067 158.6177,-333.7641 156.5798,-332.614"/>
<polygon fill="#ff0000" stroke="#ff0000" stroke-width=".2619" points="158.2931,-329.5535 147.9987,-327.0481 154.4838,-335.4263 158.2931,-329.5535"/>
</g>
<!-- x&#45;other&#45;vel&#45;&gt;left -->
<g id="edge2" class="edge">
<title>x&#45;other&#45;vel&#45;&gt;left</title>
<path fill="none" stroke="#00ff00" stroke-width=".1926" stroke-dasharray="1,5" d="M478.9244,-387.2874C485.5768,-375.4382 497.4525,-354.2852 507.0192,-337.2449"/>
<polygon fill="#00ff00" stroke="#00ff00" stroke-width=".1926" points="510.2052,-338.7196 512.0487,-328.2864 504.1013,-335.2928 510.2052,-338.7196"/>
</g>
<!-- x&#45;other&#45;vel&#45;&gt;forward -->
<g id="edge30" class="edge">
<title>x&#45;other&#45;vel&#45;&gt;forward</title>
<path fill="none" stroke="#00ff00" stroke-width=".3558" d="M472.5109,-387.2667C468.3037,-357.2139 454.3679,-258.9865 440.7875,-178.066 434.8243,-142.5333 427.3395,-102.2831 421.7638,-73.0168"/>
<polygon fill="#00ff00" stroke="#00ff00" stroke-width=".3558" points="425.1928,-72.3134 419.8769,-63.1487 418.3174,-73.6281 425.1928,-72.3134"/>
</g>
<!-- x&#45;other&#45;vel&#45;&gt;backward -->
<g id="edge19" class="edge">
<title>x&#45;other&#45;vel&#45;&gt;backward</title>
<path fill="none" stroke="#ff0000" stroke-width=".4196" stroke-dasharray="1,5" d="M468.8949,-387.1458C456.2672,-363.1651 421.9808,-298.0536 399.2583,-254.9024"/>
<polygon fill="#ff0000" stroke="#ff0000" stroke-width=".4196" points="402.3532,-253.2679 394.597,-246.0504 396.1595,-256.5294 402.3532,-253.2679"/>
</g>
<!-- y&#45;other&#45;vel -->
<g id="node12" class="node">
<title>y&#45;other&#45;vel</title>
<polygon fill="#d3d3d3" stroke="#000000" points="207.7875,-405.4371 151.7875,-405.4371 151.7875,-387.4371 207.7875,-387.4371 207.7875,-405.4371"/>
<text text-anchor="middle" x="179.7875" y="-394.2371" font-family="Times,serif" font-size="9.00" fill="#000000">y&#45;other&#45;vel</text>
</g>
<!-- y&#45;other&#45;vel&#45;&gt;none -->
<g id="edge24" class="edge">
<title>y&#45;other&#45;vel&#45;&gt;none</title>
<path fill="none" stroke="#00ff00" stroke-width=".2574" d="M174.4367,-387.2874C167.9748,-376.2378 156.7815,-357.0979 147.2192,-340.7469"/>
<polygon fill="#00ff00" stroke="#00ff00" stroke-width=".2574" points="150.1846,-338.8843 142.115,-332.019 144.142,-342.4181 150.1846,-338.8843"/>
</g>
<!-- y&#45;other&#45;vel&#45;&gt;right -->
<g id="edge31" class="edge">
<title>y&#45;other&#45;vel&#45;&gt;right</title>
<path fill="none" stroke="#00ff00" stroke-width=".4887" stroke-dasharray="1,5" d="M157.8405,-387.4259C137.8153,-377.8744 109.4716,-360.6904 96.7875,-335.6884 86.8346,-316.0698 93.0652,-307.8726 96.7875,-286.1909 111.3649,-201.2812 153.954,-108.1462 177.2025,-61.675"/>
<polygon fill="#00ff00" stroke="#00ff00" stroke-width=".4887" points="180.46,-62.9895 181.8529,-52.4866 174.2143,-59.8285 180.46,-62.9895"/>
</g>
<!-- y&#45;other&#45;vel&#45;&gt;left -->
<g id="edge22" class="edge">
<title>y&#45;other&#45;vel&#45;&gt;left</title>
<path fill="none" stroke="#ff0000" stroke-width=".6648" d="M205.2896,-387.3535C219.714,-382.3846 238.1427,-376.3169 254.7875,-371.6884 340.1277,-347.9573 442.6843,-326.5892 492.1861,-316.716"/>
<polygon fill="#ff0000" stroke="#ff0000" stroke-width=".6648" points="493.0692,-320.1092 502.198,-314.732 491.7084,-313.2427 493.0692,-320.1092"/>
</g>
<!-- y&#45;other&#45;vel&#45;&gt;backward -->
<g id="edge8" class="edge">
<title>y&#45;other&#45;vel&#45;&gt;backward</title>
<path fill="none" stroke="#ff0000" stroke-width=".1096" stroke-dasharray="1,5" d="M188.3817,-387.1188C199.1868,-375.3245 218.2076,-354.2989 233.7875,-335.6884 251.7657,-314.2132 252.1338,-305.107 272.7875,-286.1909 294.3322,-266.4588 303.7116,-266.7402 327.7875,-250.1909 331.82,-247.4191 336.0068,-244.4872 340.1643,-241.5407"/>
<polygon fill="#ff0000" stroke="#ff0000" stroke-width=".1096" points="342.4935,-244.1782 348.598,-235.5188 338.4257,-238.4814 342.4935,-244.1782"/>
</g>
<!-- 1348 -->
<g id="node21" class="node">
<title>1348</title>
<ellipse fill="#ffffff" stroke="#000000" cx="306.7875" cy="-310.9396" rx="25" ry="25"/>
<text text-anchor="middle" x="306.7875" y="-308.7396" font-family="Times,serif" font-size="9.00" fill="#000000">1348</text>
</g>
<!-- y&#45;other&#45;vel&#45;&gt;1348 -->
<g id="edge52" class="edge">
<title>y&#45;other&#45;vel&#45;&gt;1348</title>
<path fill="none" stroke="#00ff00" stroke-width=".2261" d="M193.3788,-387.2874C213.3854,-373.8187 251.248,-348.3293 277.6983,-330.5228"/>
<polygon fill="#00ff00" stroke="#00ff00" stroke-width=".2261" points="279.8478,-333.295 286.1886,-324.807 275.9386,-327.4882 279.8478,-333.295"/>
</g>
<!-- 449 -->
<g id="node19" class="node">
<title>449</title>
<ellipse fill="#ffffff" stroke="#000000" cx="192.7875" cy="-120.8528" rx="21.4286" ry="21.4286"/>
<text text-anchor="middle" x="192.7875" y="-118.6528" font-family="Times,serif" font-size="9.00" fill="#000000">449</text>
</g>
<!-- none&#45;&gt;449 -->
<g id="edge46" class="edge">
<title>none&#45;&gt;449</title>
<path fill="none" stroke="#ff0000" stroke-width=".7711" d="M137.3868,-288.0107C148.7728,-253.6564 170.2655,-188.8075 182.8723,-150.7696"/>
<polygon fill="#ff0000" stroke="#ff0000" stroke-width=".7711" points="186.2018,-151.8487 186.0256,-141.2553 179.5572,-149.6465 186.2018,-151.8487"/>
</g>
<!-- right&#45;&gt;right -->
<g id="edge12" class="edge">
<title>right&#45;&gt;right</title>
<path fill="none" stroke="#00ff00" stroke-width=".2501" d="M210.6319,-46.8656C222.5354,-51.1007 234.1221,-46.0854 234.1221,-31.8198 234.1221,-21.6778 228.2658,-16.2113 220.6029,-15.4202"/>
<polygon fill="#00ff00" stroke="#00ff00" stroke-width=".2501" points="220.0701,-11.9603 210.6319,-16.774 221.012,-18.8967 220.0701,-11.9603"/>
</g>
<!-- right&#45;&gt;449 -->
<g id="edge34" class="edge">
<title>right&#45;&gt;449</title>
<path fill="none" stroke="#ff0000" stroke-width=".2216" stroke-dasharray="1,5" d="M198.7602,-54.5458C199.5954,-65.3175 199.7576,-78.3487 199.2467,-89.9979"/>
<polygon fill="#ff0000" stroke="#ff0000" stroke-width=".2216" points="195.7395,-89.9984 198.5883,-100.2031 202.725,-90.4492 195.7395,-89.9984"/>
</g>
<!-- left&#45;&gt;left -->
<g id="edge1" class="edge">
<title>left&#45;&gt;left</title>
<path fill="none" stroke="#00ff00" stroke-width=".2413" d="M536.531,-324.6555C547.9451,-329.785 559.5865,-325.2131 559.5865,-310.9396 559.5865,-300.9036 553.8312,-295.6639 546.4462,-295.2204"/>
<polygon fill="#00ff00" stroke="#00ff00" stroke-width=".2413" points="545.6397,-291.8125 536.531,-297.2238 547.0261,-298.6739 545.6397,-291.8125"/>
</g>
<!-- left&#45;&gt;449 -->
<g id="edge45" class="edge">
<title>left&#45;&gt;449</title>
<path fill="none" stroke="#ff0000" stroke-width=".2887" stroke-dasharray="1,5" d="M532.6141,-294.3333C549.1717,-266.6474 575.9562,-210.8674 546.7875,-178.066 501.2889,-126.9008 306.8373,-160.1057 240.7875,-142.066 234.3277,-140.3017 227.6205,-137.8018 221.3404,-135.1342"/>
<polygon fill="#ff0000" stroke="#ff0000" stroke-width=".2887" points="222.4751,-131.8065 211.9204,-130.8858 219.5972,-138.1876 222.4751,-131.8065"/>
</g>
<!-- 1272 -->
<g id="node23" class="node">
<title>1272</title>
<ellipse fill="#ffffff" stroke="#000000" cx="512.7875" cy="-214.1285" rx="25" ry="25"/>
<text text-anchor="middle" x="512.7875" y="-211.9285" font-family="Times,serif" font-size="9.00" fill="#000000">1272</text>
</g>
<!-- left&#45;&gt;1272 -->
<g id="edge50" class="edge">
<title>left&#45;&gt;1272</title>
<path fill="none" stroke="#ff0000" stroke-width=".2469" d="M519.9227,-290.8803C518.8068,-278.8758 517.3569,-263.2801 516.0559,-249.2851"/>
<polygon fill="#ff0000" stroke="#ff0000" stroke-width=".2469" points="519.5087,-248.6142 515.098,-238.9812 512.5387,-249.2622 519.5087,-248.6142"/>
</g>
<!-- left&#45;&gt;474 -->
<g id="edge47" class="edge">
<title>left&#45;&gt;474</title>
<path fill="none" stroke="#00ff00" stroke-width=".3454" stroke-dasharray="1,5" d="M535.51,-296.6548C550.63,-280.9152 575.1574,-255.3826 592.9304,-236.8813"/>
<polygon fill="#00ff00" stroke="#00ff00" stroke-width=".3454" points="595.6831,-239.0681 600.0867,-229.4317 590.6349,-234.2187 595.6831,-239.0681"/>
</g>
<!-- forward&#45;&gt;forward -->
<g id="edge7" class="edge">
<title>forward&#45;&gt;forward</title>
<path fill="none" stroke="#00ff00" stroke-width=".8389" stroke-dasharray="1,5" d="M441.2005,-48.0932C453.2439,-49.5333 463.6074,-44.1089 463.6074,-31.8198 463.6074,-23.1791 458.4838,-17.9321 451.2553,-16.0788"/>
<polygon fill="#00ff00" stroke="#00ff00" stroke-width=".8389" points="451.3716,-12.5802 441.2005,-15.5464 451.0014,-19.5704 451.3716,-12.5802"/>
</g>
<!-- backward&#45;&gt;backward -->
<g id="edge13" class="edge">
<title>backward&#45;&gt;backward</title>
<path fill="none" stroke="#00ff00" stroke-width=".4226" d="M409.7096,-231.3269C421.8271,-231.9902 431.85,-226.2574 431.85,-214.1285 431.85,-205.6003 426.8948,-200.2343 419.7405,-198.0305"/>
<polygon fill="#00ff00" stroke="#00ff00" stroke-width=".4226" points="420.0317,-194.5415 409.7096,-196.9301 419.2683,-201.4997 420.0317,-194.5415"/>
</g>
<!-- 384&#45;&gt;left -->
<g id="edge33" class="edge">
<title>384&#45;&gt;left</title>
<path fill="none" stroke="#00ff00" stroke-width=".2474" d="M566.9771,-378.722C558.7383,-366.3642 547.6265,-349.697 538.4834,-335.9827"/>
<polygon fill="#00ff00" stroke="#00ff00" stroke-width=".2474" points="541.2687,-333.8509 532.8094,-327.4719 535.4444,-337.7339 541.2687,-333.8509"/>
</g>
<!-- 449&#45;&gt;right -->
<g id="edge35" class="edge">
<title>449&#45;&gt;right</title>
<path fill="none" stroke="#ff0000" stroke-width=".2246" d="M186.9868,-100.2031C186.0544,-89.6346 185.8089,-76.5181 186.2502,-64.6077"/>
<polygon fill="#ff0000" stroke="#ff0000" stroke-width=".2246" points="189.749,-64.7262 186.8149,-54.5458 182.76,-64.334 189.749,-64.7262"/>
</g>
<!-- 449&#45;&gt;forward -->
<g id="edge44" class="edge">
<title>449&#45;&gt;forward</title>
<path fill="none" stroke="#00ff00" stroke-width=".403" d="M212.3235,-111.9939C221.0038,-108.1161 231.3686,-103.565 240.7875,-99.6396 286.3787,-80.639 339.3162,-60.1076 374.5056,-46.6726"/>
<polygon fill="#00ff00" stroke="#00ff00" stroke-width=".403" points="375.8405,-49.9095 383.9393,-43.0786 373.3484,-43.3681 375.8405,-49.9095"/>
</g>
<!-- 449&#45;&gt;449 -->
<g id="edge42" class="edge">
<title>449&#45;&gt;449</title>
<path fill="none" stroke="#00ff00" stroke-width=".3254" d="M208.491,-135.4031C220.1998,-140.4842 232.0007,-135.6341 232.0007,-120.8528 232.0007,-110.3443 226.0362,-104.8552 218.3805,-104.3857"/>
<polygon fill="#00ff00" stroke="#00ff00" stroke-width=".3254" points="217.6423,-100.9636 208.491,-106.3025 218.9743,-107.8357 217.6423,-100.9636"/>
</g>
<!-- 512&#45;&gt;backward -->
<g id="edge39" class="edge">
<title>512&#45;&gt;backward</title>
<path fill="none" stroke="#ff0000" stroke-width=".1998" d="M654.7221,-303.8829C640.0988,-298.8023 619.781,-291.8714 601.7875,-286.1909 547.47,-269.0429 532.9654,-267.7751 478.7875,-250.1909 459.8107,-244.0317 439.0244,-236.7103 421.2684,-230.2787"/>
<polygon fill="#ff0000" stroke="#ff0000" stroke-width=".1998" points="422.3404,-226.9443 411.7464,-226.8103 419.9445,-233.5216 422.3404,-226.9443"/>
</g>
<!-- 703 -->
<g id="node25" class="node">
<title>703</title>
<ellipse fill="#ffffff" stroke="#000000" cx="674.7875" cy="-214.1285" rx="21.4286" ry="21.4286"/>
<text text-anchor="middle" x="674.7875" y="-211.9285" font-family="Times,serif" font-size="9.00" fill="#000000">703</text>
</g>
<!-- 512&#45;&gt;703 -->
<g id="edge41" class="edge">
<title>512&#45;&gt;703</title>
<path fill="none" stroke="#00ff00" stroke-width=".769" d="M674.7875,-289.4541C674.7875,-276.6696 674.7875,-260.2117 674.7875,-245.9422"/>
<polygon fill="#00ff00" stroke="#00ff00" stroke-width=".769" points="678.2876,-245.5539 674.7875,-235.5539 671.2876,-245.554 678.2876,-245.5539"/>
</g>
<!-- 1348&#45;&gt;backward -->
<g id="edge53" class="edge">
<title>1348&#45;&gt;backward</title>
<path fill="none" stroke="#ff0000" stroke-width=".1823" d="M321.4988,-290.8803C329.8407,-279.5058 340.5472,-264.9071 350.3791,-251.501"/>
<polygon fill="#ff0000" stroke="#ff0000" stroke-width=".1823" points="353.2672,-253.4811 356.3588,-243.3474 347.6225,-249.3413 353.2672,-253.4811"/>
</g>
<!-- 1238&#45;&gt;left -->
<g id="edge49" class="edge">
<title>1238&#45;&gt;left</title>
<path fill="none" stroke="#ff0000" stroke-width=".3567" d="M309.2649,-382.0311C315.0779,-378.3367 321.5319,-374.5912 327.7875,-371.6884 383.6801,-345.7523 453.5656,-326.9381 492.3632,-317.5945"/>
<polygon fill="#ff0000" stroke="#ff0000" stroke-width=".3567" points="493.5173,-320.9183 502.4443,-315.2122 491.9074,-314.1059 493.5173,-320.9183"/>
</g>
<!-- 1272&#45;&gt;449 -->
<g id="edge51" class="edge">
<title>1272&#45;&gt;449</title>
<path fill="none" stroke="#00ff00" stroke-width=".3806" d="M491.4279,-201.394C477.4568,-193.584 458.5629,-183.9806 440.7875,-178.066 355.0897,-149.5509 327.1478,-168.5074 240.7875,-142.066 234.3845,-140.1056 227.7014,-137.5222 221.427,-134.8352"/>
<polygon fill="#00ff00" stroke="#00ff00" stroke-width=".3806" points="222.5587,-131.5067 212.0025,-130.6021 219.6906,-137.8922 222.5587,-131.5067"/>
</g>
<!-- 474&#45;&gt;forward -->
<g id="edge37" class="edge">
<title>474&#45;&gt;forward</title>
<path fill="none" stroke="#00ff00" stroke-width=".1437" d="M600.0593,-198.4233C593.9042,-192.0003 586.6091,-184.5663 579.7875,-178.066 534.6101,-135.0165 479.9128,-87.703 445.9771,-58.8783"/>
<polygon fill="#00ff00" stroke="#00ff00" stroke-width=".1437" points="448.123,-56.1091 438.2312,-52.314 443.5974,-61.4494 448.123,-56.1091"/>
</g>
</g>
</svg>
