<?xml version="1.0" encoding="UTF-8" standalone="no"?>
<!DOCTYPE svg PUBLIC "-//W3C//DTD SVG 1.1//EN"
 "http://www.w3.org/Graphics/SVG/1.1/DTD/svg11.dtd">
<!-- Generated by graphviz version 2.40.1 (20161225.0304)
 -->
<!-- Title: %3 Pages: 1 -->
<svg width="1194pt" height="297pt"
 viewBox="0.00 0.00 1193.88 296.63" xmlns="http://www.w3.org/2000/svg" xmlns:xlink="http://www.w3.org/1999/xlink">
<g id="graph0" class="graph" transform="scale(1 1) rotate(0) translate(4 292.6346)">
<title>%3</title>
<polygon fill="#ffffff" stroke="transparent" points="-4,4 -4,-292.6346 1189.881,-292.6346 1189.881,4 -4,4"/>
<!-- x&#45;vel -->
<g id="node1" class="node">
<title>x&#45;vel</title>
<polygon fill="#d3d3d3" stroke="#000000" points="691,-222.4214 656,-222.4214 656,-204.4214 691,-204.4214 691,-222.4214"/>
<text text-anchor="middle" x="673.5" y="-211.2214" font-family="Times,serif" font-size="9.00" fill="#000000">x&#45;vel</text>
</g>
<!-- none -->
<g id="node13" class="node">
<title>none</title>
<ellipse fill="#add8e6" stroke="#000000" cx="624.5" cy="-24.0416" rx="24.0833" ry="24.0833"/>
<text text-anchor="middle" x="624.5" y="-21.8416" font-family="Times,serif" font-size="9.00" fill="#000000">none</text>
</g>
<!-- x&#45;vel&#45;&gt;none -->
<g id="edge22" class="edge">
<title>x&#45;vel&#45;&gt;none</title>
<path fill="none" stroke="#00ff00" stroke-width=".4339" d="M672.7364,-204.1414C670.7919,-182.6354 664.8342,-127.8803 651.5,-84.0833 648.5105,-74.2642 644.2958,-63.9454 640.0834,-54.6859"/>
<polygon fill="#00ff00" stroke="#00ff00" stroke-width=".4339" points="643.1761,-53.038 635.7459,-45.4852 636.8444,-56.023 643.1761,-53.038"/>
</g>
<!-- left -->
<g id="node15" class="node">
<title>left</title>
<ellipse fill="#add8e6" stroke="#000000" cx="429.5" cy="-120.1457" rx="19.6" ry="19.6"/>
<text text-anchor="middle" x="429.5" y="-117.9457" font-family="Times,serif" font-size="9.00" fill="#000000">left</text>
</g>
<!-- x&#45;vel&#45;&gt;left -->
<g id="edge30" class="edge">
<title>x&#45;vel&#45;&gt;left</title>
<path fill="none" stroke="#00ff00" stroke-width=".2709" d="M663.5717,-204.2654C658.7053,-200.1451 652.5906,-195.4826 646.5,-192.2082 583.5135,-158.3456 501.7176,-136.4564 458.7749,-126.4578"/>
<polygon fill="#00ff00" stroke="#00ff00" stroke-width=".2709" points="459.505,-123.0345 448.9775,-124.227 457.9509,-129.8598 459.505,-123.0345"/>
</g>
<!-- forward -->
<g id="node16" class="node">
<title>forward</title>
<ellipse fill="#add8e6" stroke="#000000" cx="730.5" cy="-120.1457" rx="31.6406" ry="31.6406"/>
<text text-anchor="middle" x="730.5" y="-117.9457" font-family="Times,serif" font-size="9.00" fill="#000000">forward</text>
</g>
<!-- x&#45;vel&#45;&gt;forward -->
<g id="edge6" class="edge">
<title>x&#45;vel&#45;&gt;forward</title>
<path fill="none" stroke="#00ff00" stroke-width=".6638" stroke-dasharray="1,5" d="M679.1738,-204.1367C685.9839,-192.9926 697.8121,-173.6366 708.3985,-156.313"/>
<polygon fill="#00ff00" stroke="#00ff00" stroke-width=".6638" points="711.5601,-157.8513 713.7881,-147.4934 705.5871,-154.2012 711.5601,-157.8513"/>
</g>
<!-- backward -->
<g id="node17" class="node">
<title>backward</title>
<ellipse fill="#add8e6" stroke="#000000" cx="1061.5" cy="-120.1457" rx="36.125" ry="36.125"/>
<text text-anchor="middle" x="1061.5" y="-117.9457" font-family="Times,serif" font-size="9.00" fill="#000000">backward</text>
</g>
<!-- x&#45;vel&#45;&gt;backward -->
<g id="edge2" class="edge">
<title>x&#45;vel&#45;&gt;backward</title>
<path fill="none" stroke="#00ff00" stroke-width=".1304" d="M682.6803,-204.1681C687.5604,-199.8138 693.9052,-194.9795 700.5,-192.2082 814.5451,-144.283 857.1279,-188.6645 976.5,-156.2082 990.939,-152.2823 1006.1491,-146.4249 1019.6485,-140.5664"/>
<polygon fill="#00ff00" stroke="#00ff00" stroke-width=".1304" points="1021.4363,-143.6012 1029.1402,-136.3279 1018.5821,-137.2095 1021.4363,-143.6012"/>
</g>
<!-- 11 -->
<g id="node20" class="node">
<title>11</title>
<ellipse fill="#ffffff" stroke="#000000" cx="624.5" cy="-120.1457" rx="18.2703" ry="18.2703"/>
<text text-anchor="middle" x="624.5" y="-117.9457" font-family="Times,serif" font-size="9.00" fill="#000000">11</text>
</g>
<!-- x&#45;vel&#45;&gt;11 -->
<g id="edge31" class="edge">
<title>x&#45;vel&#45;&gt;11</title>
<path fill="none" stroke="#ff0000" stroke-width=".2674" stroke-dasharray="1,5" d="M668.6226,-204.1367C661.508,-190.5935 648.0223,-164.9224 637.8244,-145.5098"/>
<polygon fill="#ff0000" stroke="#ff0000" stroke-width=".2674" points="640.8737,-143.7884 633.1246,-136.5633 634.6767,-147.0438 640.8737,-143.7884"/>
</g>
<!-- y&#45;vel -->
<g id="node2" class="node">
<title>y&#45;vel</title>
<polygon fill="#d3d3d3" stroke="#000000" points="567,-222.4214 532,-222.4214 532,-204.4214 567,-204.4214 567,-222.4214"/>
<text text-anchor="middle" x="549.5" y="-211.2214" font-family="Times,serif" font-size="9.00" fill="#000000">y&#45;vel</text>
</g>
<!-- y&#45;vel&#45;&gt;left -->
<g id="edge13" class="edge">
<title>y&#45;vel&#45;&gt;left</title>
<path fill="none" stroke="#00ff00" stroke-width=".5364" d="M537.9512,-204.3201C533.1744,-200.5629 527.5758,-196.1686 522.5,-192.2082 499.0389,-173.9025 472.1614,-153.0935 453.3541,-138.559"/>
<polygon fill="#00ff00" stroke="#00ff00" stroke-width=".5364" points="455.3755,-135.6978 445.3221,-132.354 451.096,-141.2373 455.3755,-135.6978"/>
</g>
<!-- y&#45;vel&#45;&gt;forward -->
<g id="edge23" class="edge">
<title>y&#45;vel&#45;&gt;forward</title>
<path fill="none" stroke="#ff0000" stroke-width=".2739" d="M559.6766,-204.1251C564.3034,-200.1662 569.9711,-195.6728 575.5,-192.2082 580.8591,-188.85 647.8266,-158.0032 691.9661,-137.7708"/>
<polygon fill="#ff0000" stroke="#ff0000" stroke-width=".2739" points="693.6467,-140.8507 701.2802,-133.5036 690.7311,-134.4868 693.6467,-140.8507"/>
</g>
<!-- x&#45;pos -->
<g id="node3" class="node">
<title>x&#45;pos</title>
<polygon fill="#d3d3d3" stroke="#000000" points="1137.5,-288.6346 1101.5,-288.6346 1101.5,-270.6346 1137.5,-270.6346 1137.5,-288.6346"/>
<text text-anchor="middle" x="1119.5" y="-277.4346" font-family="Times,serif" font-size="9.00" fill="#000000">x&#45;pos</text>
</g>
<!-- x&#45;pos&#45;&gt;none -->
<g id="edge16" class="edge">
<title>x&#45;pos&#45;&gt;none</title>
<path fill="none" stroke="#00ff00" stroke-width=".4182" stroke-dasharray="1,5" d="M1137.502,-270.5501C1150.4408,-262.9205 1166.8921,-250.689 1174.5,-234.6346 1205.9408,-168.2868 1168.4446,-123.4967 1106.5,-84.0833 1031.9236,-36.6326 756.2538,-26.6328 658.8576,-24.5672"/>
<polygon fill="#00ff00" stroke="#00ff00" stroke-width=".4182" points="658.7428,-21.0644 648.6758,-24.3668 658.605,-28.063 658.7428,-21.0644"/>
</g>
<!-- x&#45;pos&#45;&gt;left -->
<g id="edge8" class="edge">
<title>x&#45;pos&#45;&gt;left</title>
<path fill="none" stroke="#ff0000" stroke-width=".1041" d="M1101.2546,-279.0455C996.3099,-275.5786 473.3908,-257.2098 448.5,-234.6346 425.4139,-213.6962 423.2901,-176.2601 425.2248,-149.9086"/>
<polygon fill="#ff0000" stroke="#ff0000" stroke-width=".1041" points="428.7312,-150.0109 426.2114,-139.7201 421.7637,-149.3361 428.7312,-150.0109"/>
</g>
<!-- x&#45;pos&#45;&gt;backward -->
<g id="edge1" class="edge">
<title>x&#45;pos&#45;&gt;backward</title>
<path fill="none" stroke="#00ff00" stroke-width=".5122" stroke-dasharray="1,5" d="M1116.2155,-270.6028C1108.8681,-250.3989 1090.6995,-200.4387 1077.3046,-163.6053"/>
<polygon fill="#00ff00" stroke="#00ff00" stroke-width=".5122" points="1080.5461,-162.2776 1073.8391,-154.0759 1073.9676,-164.67 1080.5461,-162.2776"/>
</g>
<!-- 181 -->
<g id="node22" class="node">
<title>181</title>
<ellipse fill="#ffffff" stroke="#000000" cx="1144.5" cy="-213.4214" rx="21.4286" ry="21.4286"/>
<text text-anchor="middle" x="1144.5" y="-211.2214" font-family="Times,serif" font-size="9.00" fill="#000000">181</text>
</g>
<!-- x&#45;pos&#45;&gt;181 -->
<g id="edge35" class="edge">
<title>x&#45;pos&#45;&gt;181</title>
<path fill="none" stroke="#00ff00" stroke-width=".4435" d="M1122.9761,-270.4279C1125.6729,-263.2855 1129.5695,-252.9653 1133.3082,-243.0631"/>
<polygon fill="#00ff00" stroke="#00ff00" stroke-width=".4435" points="1136.6861,-244.0252 1136.9441,-233.4335 1130.1373,-241.5525 1136.6861,-244.0252"/>
</g>
<!-- y&#45;pos -->
<g id="node4" class="node">
<title>y&#45;pos</title>
<polygon fill="#d3d3d3" stroke="#000000" points="843.5,-222.4214 807.5,-222.4214 807.5,-204.4214 843.5,-204.4214 843.5,-222.4214"/>
<text text-anchor="middle" x="825.5" y="-211.2214" font-family="Times,serif" font-size="9.00" fill="#000000">y&#45;pos</text>
</g>
<!-- y&#45;pos&#45;&gt;none -->
<g id="edge10" class="edge">
<title>y&#45;pos&#45;&gt;none</title>
<path fill="none" stroke="#ff0000" stroke-width=".1934" d="M824.1404,-204.2505C820.2357,-181.0207 806.9087,-119.2188 771.5,-84.0833 740.3344,-53.1581 691.052,-37.4731 658.2568,-30.0349"/>
<polygon fill="#ff0000" stroke="#ff0000" stroke-width=".1934" points="658.7418,-26.5598 648.2322,-27.9009 657.2842,-33.4064 658.7418,-26.5598"/>
</g>
<!-- y&#45;pos&#45;&gt;forward -->
<g id="edge27" class="edge">
<title>y&#45;pos&#45;&gt;forward</title>
<path fill="none" stroke="#ff0000" stroke-width=".3179" d="M816.0437,-204.1367C803.2826,-191.6073 779.9495,-168.6976 760.8722,-149.9666"/>
<polygon fill="#ff0000" stroke="#ff0000" stroke-width=".3179" points="763.1224,-147.2709 753.5347,-142.7623 758.2182,-152.2658 763.1224,-147.2709"/>
</g>
<!-- x&#45;lm1&#45;vec -->
<g id="node5" class="node">
<title>x&#45;lm1&#45;vec</title>
<polygon fill="#d3d3d3" stroke="#000000" points="638,-222.4214 585,-222.4214 585,-204.4214 638,-204.4214 638,-222.4214"/>
<text text-anchor="middle" x="611.5" y="-211.2214" font-family="Times,serif" font-size="9.00" fill="#000000">x&#45;lm1&#45;vec</text>
</g>
<!-- right -->
<g id="node14" class="node">
<title>right</title>
<ellipse fill="#add8e6" stroke="#000000" cx="944.5" cy="-120.1457" rx="23.1702" ry="23.1702"/>
<text text-anchor="middle" x="944.5" y="-117.9457" font-family="Times,serif" font-size="9.00" fill="#000000">right</text>
</g>
<!-- x&#45;lm1&#45;vec&#45;&gt;right -->
<g id="edge21" class="edge">
<title>x&#45;lm1&#45;vec&#45;&gt;right</title>
<path fill="none" stroke="#00ff00" stroke-width=".7419" d="M624.2893,-204.3604C630.7069,-200.1608 638.7487,-195.4041 646.5,-192.2082 694.8446,-172.275 844.5307,-140.4881 911.5124,-126.7865"/>
<polygon fill="#00ff00" stroke="#00ff00" stroke-width=".7419" points="912.424,-130.1728 921.5243,-124.7473 911.0269,-123.3136 912.424,-130.1728"/>
</g>
<!-- x&#45;lm1&#45;vec&#45;&gt;left -->
<g id="edge24" class="edge">
<title>x&#45;lm1&#45;vec&#45;&gt;left</title>
<path fill="none" stroke="#ff0000" stroke-width="1.0584" d="M596.5782,-204.2943C590.1541,-200.4524 582.5201,-196.0022 575.5,-192.2082 534.8383,-170.2321 486.5555,-146.9297 456.9764,-132.9611"/>
<polygon fill="#ff0000" stroke="#ff0000" stroke-width="1.0584" points="458.239,-129.6871 447.7003,-128.5971 455.259,-136.0212 458.239,-129.6871"/>
</g>
<!-- y&#45;lm1&#45;vec -->
<g id="node6" class="node">
<title>y&#45;lm1&#45;vec</title>
<polygon fill="#d3d3d3" stroke="#000000" points="1067,-222.4214 1014,-222.4214 1014,-204.4214 1067,-204.4214 1067,-222.4214"/>
<text text-anchor="middle" x="1040.5" y="-211.2214" font-family="Times,serif" font-size="9.00" fill="#000000">y&#45;lm1&#45;vec</text>
</g>
<!-- y&#45;lm1&#45;vec&#45;&gt;none -->
<g id="edge20" class="edge">
<title>y&#45;lm1&#45;vec&#45;&gt;none</title>
<path fill="none" stroke="#ff0000" stroke-width=".1627" stroke-dasharray="1,5" d="M1036.5952,-204.3744C1024.4001,-176.2978 987.1997,-92.0516 976.5,-84.0833 926.4607,-46.8174 737.5008,-31.0348 659.0105,-25.9906"/>
<polygon fill="#ff0000" stroke="#ff0000" stroke-width=".1627" points="658.8923,-22.4765 648.6943,-25.349 658.4577,-29.463 658.8923,-22.4765"/>
</g>
<!-- y&#45;lm1&#45;vec&#45;&gt;right -->
<g id="edge17" class="edge">
<title>y&#45;lm1&#45;vec&#45;&gt;right</title>
<path fill="none" stroke="#ff0000" stroke-width=".2379" d="M1030.9442,-204.1367C1016.5619,-190.1626 988.8906,-163.2765 968.718,-143.6764"/>
<polygon fill="#ff0000" stroke="#ff0000" stroke-width=".2379" points="971.0083,-141.0217 961.3971,-136.5633 966.1302,-146.0422 971.0083,-141.0217"/>
</g>
<!-- y&#45;lm1&#45;vec&#45;&gt;forward -->
<g id="edge28" class="edge">
<title>y&#45;lm1&#45;vec&#45;&gt;forward</title>
<path fill="none" stroke="#00ff00" stroke-width="1.1618" d="M1026.9454,-204.2317C1020.3874,-200.104 1012.2676,-195.445 1004.5,-192.2082 925.3772,-159.2368 827.0058,-137.7611 772.2579,-127.4091"/>
<polygon fill="#00ff00" stroke="#00ff00" stroke-width="1.1618" points="772.7041,-123.9322 762.2329,-125.5461 771.4251,-130.8144 772.7041,-123.9322"/>
</g>
<!-- y&#45;lm1&#45;vec&#45;&gt;backward -->
<g id="edge12" class="edge">
<title>y&#45;lm1&#45;vec&#45;&gt;backward</title>
<path fill="none" stroke="#ff0000" stroke-width=".5221" d="M1042.5903,-204.1367C1044.6639,-194.9265 1048.0003,-180.1072 1051.2975,-165.4619"/>
<polygon fill="#ff0000" stroke="#ff0000" stroke-width=".5221" points="1054.776,-165.9463 1053.558,-155.4217 1047.947,-164.4087 1054.776,-165.9463"/>
</g>
<!-- x&#45;lm2&#45;vec -->
<g id="node7" class="node">
<title>x&#45;lm2&#45;vec</title>
<polygon fill="#d3d3d3" stroke="#000000" points="53,-129.1457 0,-129.1457 0,-111.1457 53,-111.1457 53,-129.1457"/>
<text text-anchor="middle" x="26.5" y="-117.9457" font-family="Times,serif" font-size="9.00" fill="#000000">x&#45;lm2&#45;vec</text>
</g>
<!-- x&#45;lm2&#45;vec&#45;&gt;none -->
<g id="edge7" class="edge">
<title>x&#45;lm2&#45;vec&#45;&gt;none</title>
<path fill="none" stroke="#ff0000" stroke-width=".1829" stroke-dasharray="1,5" d="M33.8974,-110.9888C41.3854,-102.4374 53.7898,-90.1139 67.5,-84.0833 162.1806,-42.4362 484.0275,-28.5468 590.2048,-25.0394"/>
<polygon fill="#ff0000" stroke="#ff0000" stroke-width=".1829" points="590.4804,-28.5325 600.3632,-24.7141 590.2563,-21.5361 590.4804,-28.5325"/>
</g>
<!-- y&#45;lm2&#45;vec -->
<g id="node8" class="node">
<title>y&#45;lm2&#45;vec</title>
<polygon fill="#d3d3d3" stroke="#000000" points="267,-288.6346 214,-288.6346 214,-270.6346 267,-270.6346 267,-288.6346"/>
<text text-anchor="middle" x="240.5" y="-277.4346" font-family="Times,serif" font-size="9.00" fill="#000000">y&#45;lm2&#45;vec</text>
</g>
<!-- y&#45;lm2&#45;vec&#45;&gt;none -->
<g id="edge25" class="edge">
<title>y&#45;lm2&#45;vec&#45;&gt;none</title>
<path fill="none" stroke="#00ff00" stroke-width=".3167" d="M213.7752,-274.8816C177.0439,-267.7429 113.9599,-253.099 100.5,-234.6346 76.6058,-201.856 93.4501,-110.852 122.5,-84.0833 156.9355,-52.3519 482.7717,-31.8019 590.2754,-25.8405"/>
<polygon fill="#00ff00" stroke="#00ff00" stroke-width=".3167" points="590.476,-29.3349 600.2698,-25.2937 590.0935,-22.3453 590.476,-29.3349"/>
</g>
<!-- y&#45;lm2&#45;vec&#45;&gt;left -->
<g id="edge4" class="edge">
<title>y&#45;lm2&#45;vec&#45;&gt;left</title>
<path fill="none" stroke="#00ff00" stroke-width=".3478" stroke-dasharray="1,5" d="M240.4091,-270.5327C240.718,-253.2127 243.7729,-215.1944 263.5,-192.2082 298.8834,-150.9789 362.2107,-132.5682 399.5835,-124.9611"/>
<polygon fill="#00ff00" stroke="#00ff00" stroke-width=".3478" points="400.6694,-128.3175 409.8405,-123.0126 399.3629,-121.4405 400.6694,-128.3175"/>
</g>
<!-- y&#45;lm2&#45;vec&#45;&gt;forward -->
<g id="edge9" class="edge">
<title>y&#45;lm2&#45;vec&#45;&gt;forward</title>
<path fill="none" stroke="#00ff00" stroke-width=".1695" stroke-dasharray="1,5" d="M267.1116,-276.4822C282.9065,-274.66 303.3322,-272.3884 321.5,-270.6346 370.215,-265.9317 727.3375,-270.6279 760.5,-234.6346 780.3402,-213.1008 768.7972,-180.0659 754.6619,-155.0061"/>
<polygon fill="#00ff00" stroke="#00ff00" stroke-width=".1695" points="757.5196,-152.9648 749.3902,-146.1705 751.5083,-156.5514 757.5196,-152.9648"/>
</g>
<!-- 344 -->
<g id="node23" class="node">
<title>344</title>
<ellipse fill="#ffffff" stroke="#000000" cx="730.5" cy="-213.4214" rx="21.4286" ry="21.4286"/>
<text text-anchor="middle" x="730.5" y="-211.2214" font-family="Times,serif" font-size="9.00" fill="#000000">344</text>
</g>
<!-- y&#45;lm2&#45;vec&#45;&gt;344 -->
<g id="edge41" class="edge">
<title>y&#45;lm2&#45;vec&#45;&gt;344</title>
<path fill="none" stroke="#00ff00" stroke-width=".3304" d="M267.1204,-276.5703C282.9183,-274.7783 303.3441,-272.5077 321.5,-270.6346 489.3692,-253.3158 540.8289,-292.1104 699.5,-234.6346 701.3854,-233.9516 703.2652,-233.1266 705.1135,-232.2036"/>
<polygon fill="#00ff00" stroke="#00ff00" stroke-width=".3304" points="707.1393,-235.0722 713.9725,-226.9753 703.5815,-229.0437 707.1393,-235.0722"/>
</g>
<!-- x&#45;other&#45;vec -->
<g id="node9" class="node">
<title>x&#45;other&#45;vec</title>
<polygon fill="#d3d3d3" stroke="#000000" points="341.5,-222.4214 283.5,-222.4214 283.5,-204.4214 341.5,-204.4214 341.5,-222.4214"/>
<text text-anchor="middle" x="312.5" y="-211.2214" font-family="Times,serif" font-size="9.00" fill="#000000">x&#45;other&#45;vec</text>
</g>
<!-- x&#45;other&#45;vec&#45;&gt;none -->
<g id="edge18" class="edge">
<title>x&#45;other&#45;vec&#45;&gt;none</title>
<path fill="none" stroke="#ff0000" stroke-width=".2846" stroke-dasharray="1,5" d="M316.0396,-204.2549C325.7009,-180.4884 354.8881,-116.4824 400.5,-84.0833 458.5104,-42.8771 543.1833,-29.9495 590.0571,-25.8943"/>
<polygon fill="#ff0000" stroke="#ff0000" stroke-width=".2846" points="590.5934,-29.3633 600.2922,-25.0991 590.0511,-22.3843 590.5934,-29.3633"/>
</g>
<!-- x&#45;other&#45;vec&#45;&gt;left -->
<g id="edge15" class="edge">
<title>x&#45;other&#45;vec&#45;&gt;left</title>
<path fill="none" stroke="#ff0000" stroke-width=".408" d="M324.1462,-204.1367C343.1525,-188.9843 381.2014,-158.6507 405.9933,-138.8859"/>
<polygon fill="#ff0000" stroke="#ff0000" stroke-width=".408" points="408.2086,-141.596 413.8461,-132.6255 403.845,-136.1225 408.2086,-141.596"/>
</g>
<!-- x&#45;other&#45;vec&#45;&gt;forward -->
<g id="edge29" class="edge">
<title>x&#45;other&#45;vec&#45;&gt;forward</title>
<path fill="none" stroke="#ff0000" stroke-width=".3529" d="M325.629,-204.4104C332.692,-200.0073 341.7332,-195.056 350.5,-192.2082 478.6398,-150.5825 521.7815,-192.617 651.5,-156.2082 665.6336,-152.2412 680.4441,-146.0751 693.372,-139.9565"/>
<polygon fill="#ff0000" stroke="#ff0000" stroke-width=".3529" points="694.965,-143.0737 702.4163,-135.5418 691.8944,-136.7831 694.965,-143.0737"/>
</g>
<!-- y&#45;other&#45;vec -->
<g id="node10" class="node">
<title>y&#45;other&#45;vec</title>
<polygon fill="#d3d3d3" stroke="#000000" points="995.5,-222.4214 937.5,-222.4214 937.5,-204.4214 995.5,-204.4214 995.5,-222.4214"/>
<text text-anchor="middle" x="966.5" y="-211.2214" font-family="Times,serif" font-size="9.00" fill="#000000">y&#45;other&#45;vec</text>
</g>
<!-- y&#45;other&#45;vec&#45;&gt;right -->
<g id="edge26" class="edge">
<title>y&#45;other&#45;vec&#45;&gt;right</title>
<path fill="none" stroke="#00ff00" stroke-width=".4757" d="M964.3101,-204.1367C961.517,-192.2945 956.5369,-171.1796 952.2689,-153.0841"/>
<polygon fill="#00ff00" stroke="#00ff00" stroke-width=".4757" points="955.6272,-152.076 949.925,-143.1465 948.8141,-153.6829 955.6272,-152.076"/>
</g>
<!-- x&#45;other&#45;vel -->
<g id="node11" class="node">
<title>x&#45;other&#45;vel</title>
<polygon fill="#d3d3d3" stroke="#000000" points="386.5,-288.6346 330.5,-288.6346 330.5,-270.6346 386.5,-270.6346 386.5,-288.6346"/>
<text text-anchor="middle" x="358.5" y="-277.4346" font-family="Times,serif" font-size="9.00" fill="#000000">x&#45;other&#45;vel</text>
</g>
<!-- x&#45;other&#45;vel&#45;&gt;none -->
<g id="edge3" class="edge">
<title>x&#45;other&#45;vel&#45;&gt;none</title>
<path fill="none" stroke="#00ff00" stroke-width=".3016" stroke-dasharray="1,5" d="M386.5159,-279.2337C486.416,-277.5185 820.9258,-269.2157 852.5,-234.6346 888.8742,-194.7963 838.5261,-113.5385 806.5,-84.0833 765.0234,-45.9362 698.7673,-31.9843 658.673,-26.91"/>
<polygon fill="#00ff00" stroke="#00ff00" stroke-width=".3016" points="658.9216,-23.4156 648.5875,-25.7514 658.1227,-30.3699 658.9216,-23.4156"/>
</g>
<!-- x&#45;other&#45;vel&#45;&gt;right -->
<g id="edge5" class="edge">
<title>x&#45;other&#45;vel&#45;&gt;right</title>
<path fill="none" stroke="#ff0000" stroke-width=".1802" d="M386.783,-278.8062C490.1867,-275.5634 843.8697,-262.5126 885.5,-234.6346 913.5071,-215.8794 928.988,-179.5151 936.9836,-152.7825"/>
<polygon fill="#ff0000" stroke="#ff0000" stroke-width=".1802" points="940.3785,-153.6379 939.692,-143.0653 933.6355,-151.7584 940.3785,-153.6379"/>
</g>
<!-- x&#45;other&#45;vel&#45;&gt;left -->
<g id="edge19" class="edge">
<title>x&#45;other&#45;vel&#45;&gt;left</title>
<path fill="none" stroke="#00ff00" stroke-width=".4979" stroke-dasharray="1,5" d="M330.131,-272.6669C310.7484,-266.2671 286.4832,-254.6486 274.5,-234.6346 264.8136,-218.4565 264.3595,-208.1055 274.5,-192.2082 302.0254,-149.0563 362.8176,-131.3399 399.557,-124.3727"/>
<polygon fill="#00ff00" stroke="#00ff00" stroke-width=".4979" points="400.4276,-127.7739 409.6786,-122.6096 399.2263,-120.8777 400.4276,-127.7739"/>
</g>
<!-- 64 -->
<g id="node18" class="node">
<title>64</title>
<ellipse fill="#ffffff" stroke="#000000" cx="179.5" cy="-120.1457" rx="18.2703" ry="18.2703"/>
<text text-anchor="middle" x="179.5" y="-117.9457" font-family="Times,serif" font-size="9.00" fill="#000000">64</text>
</g>
<!-- x&#45;other&#45;vel&#45;&gt;64 -->
<g id="edge33" class="edge">
<title>x&#45;other&#45;vel&#45;&gt;64</title>
<path fill="none" stroke="#00ff00" stroke-width=".1566" d="M330.6512,-270.6258C310.5287,-263.1732 283.4851,-251.1321 263.5,-234.6346 232.9869,-209.4462 207.7171,-170.8409 193.1094,-145.5422"/>
<polygon fill="#00ff00" stroke="#00ff00" stroke-width=".1566" points="196.0027,-143.5473 188.0442,-136.5535 189.9043,-146.9838 196.0027,-143.5473"/>
</g>
<!-- 194 -->
<g id="node19" class="node">
<title>194</title>
<ellipse fill="#ffffff" stroke="#000000" cx="380.5" cy="-213.4214" rx="21.4286" ry="21.4286"/>
<text text-anchor="middle" x="380.5" y="-211.2214" font-family="Times,serif" font-size="9.00" fill="#000000">194</text>
</g>
<!-- x&#45;other&#45;vel&#45;&gt;194 -->
<g id="edge37" class="edge">
<title>x&#45;other&#45;vel&#45;&gt;194</title>
<path fill="none" stroke="#00ff00" stroke-width=".1286" d="M361.559,-270.4279C363.9144,-263.3388 367.31,-253.1191 370.5775,-243.2849"/>
<polygon fill="#00ff00" stroke="#00ff00" stroke-width=".1286" points="373.9274,-244.3028 373.7591,-233.7093 367.2845,-242.0956 373.9274,-244.3028"/>
</g>
<!-- 235 -->
<g id="node21" class="node">
<title>235</title>
<ellipse fill="#ffffff" stroke="#000000" cx="130.5" cy="-213.4214" rx="21.4286" ry="21.4286"/>
<text text-anchor="middle" x="130.5" y="-211.2214" font-family="Times,serif" font-size="9.00" fill="#000000">235</text>
</g>
<!-- x&#45;other&#45;vel&#45;&gt;235 -->
<g id="edge39" class="edge">
<title>x&#45;other&#45;vel&#45;&gt;235</title>
<path fill="none" stroke="#00ff00" stroke-width=".3712" d="M330.4919,-275.9411C292.1693,-270.259 221.7356,-257.552 165.5,-234.6346 162.6316,-233.4656 159.7251,-232.0796 156.8768,-230.5844"/>
<polygon fill="#00ff00" stroke="#00ff00" stroke-width=".3712" points="158.5134,-227.4885 148.094,-225.5682 155.0417,-233.567 158.5134,-227.4885"/>
</g>
<!-- y&#45;other&#45;vel -->
<g id="node12" class="node">
<title>y&#45;other&#45;vel</title>
<polygon fill="#d3d3d3" stroke="#000000" points="513.5,-222.4214 457.5,-222.4214 457.5,-204.4214 513.5,-204.4214 513.5,-222.4214"/>
<text text-anchor="middle" x="485.5" y="-211.2214" font-family="Times,serif" font-size="9.00" fill="#000000">y&#45;other&#45;vel</text>
</g>
<!-- y&#45;other&#45;vel&#45;&gt;left -->
<g id="edge11" class="edge">
<title>y&#45;other&#45;vel&#45;&gt;left</title>
<path fill="none" stroke="#ff0000" stroke-width=".2346" stroke-dasharray="1,5" d="M479.9258,-204.1367C471.8534,-190.6911 456.6043,-165.2916 444.9803,-145.9303"/>
<polygon fill="#ff0000" stroke="#ff0000" stroke-width=".2346" points="447.9214,-144.0293 439.7733,-137.2573 441.9199,-147.6324 447.9214,-144.0293"/>
</g>
<!-- y&#45;other&#45;vel&#45;&gt;forward -->
<g id="edge14" class="edge">
<title>y&#45;other&#45;vel&#45;&gt;forward</title>
<path fill="none" stroke="#ff0000" stroke-width=".364" d="M499.485,-204.3027C506.237,-200.1906 514.5767,-195.5241 522.5,-192.2082 577.4092,-169.228 595.5886,-176.6295 651.5,-156.2082 665.2888,-151.1719 680.0168,-144.7498 692.9749,-138.7247"/>
<polygon fill="#ff0000" stroke="#ff0000" stroke-width=".364" points="694.5121,-141.8694 702.0588,-134.4331 691.5219,-135.5402 694.5121,-141.8694"/>
</g>
<!-- 64&#45;&gt;none -->
<g id="edge34" class="edge">
<title>64&#45;&gt;none</title>
<path fill="none" stroke="#00ff00" stroke-width=".2458" stroke-dasharray="1,5" d="M197.3637,-115.7596C225.8777,-108.7982 283.4648,-94.9011 332.5,-84.0833 425.6037,-63.5432 535.9183,-41.4732 590.4617,-30.7114"/>
<polygon fill="#00ff00" stroke="#00ff00" stroke-width=".2458" points="591.47,-34.0802 600.6052,-28.7136 590.1173,-27.2121 591.47,-34.0802"/>
</g>
<!-- 194&#45;&gt;left -->
<g id="edge38" class="edge">
<title>194&#45;&gt;left</title>
<path fill="none" stroke="#00ff00" stroke-width=".3624" d="M390.4159,-194.5456C397.6413,-180.7915 407.5274,-161.9724 415.5488,-146.7029"/>
<polygon fill="#00ff00" stroke="#00ff00" stroke-width=".3624" points="418.7097,-148.2118 420.2619,-137.7312 412.5128,-144.9563 418.7097,-148.2118"/>
</g>
<!-- 11&#45;&gt;none -->
<g id="edge32" class="edge">
<title>11&#45;&gt;none</title>
<path fill="none" stroke="#ff0000" stroke-width=".2621" d="M624.5,-101.6159C624.5,-89.4141 624.5,-73.0659 624.5,-58.5238"/>
<polygon fill="#ff0000" stroke="#ff0000" stroke-width=".2621" points="628.0001,-58.3393 624.5,-48.3393 621.0001,-58.3393 628.0001,-58.3393"/>
</g>
<!-- 235&#45;&gt;none -->
<g id="edge40" class="edge">
<title>235&#45;&gt;none</title>
<path fill="none" stroke="#ff0000" stroke-width=".731" d="M127.1788,-192.0442C124.0235,-163.1338 123.401,-111.9863 152.5,-84.0833 184.0997,-53.7823 487.0489,-32.4917 590.2599,-26.0678"/>
<polygon fill="#ff0000" stroke="#ff0000" stroke-width=".731" points="590.6797,-29.5487 600.4462,-25.4419 590.2504,-22.5619 590.6797,-29.5487"/>
</g>
<!-- 235&#45;&gt;64 -->
<g id="edge43" class="edge">
<title>235&#45;&gt;64</title>
<path fill="none" stroke="#00ff00" stroke-width=".1891" d="M140.4159,-194.5456C147.8265,-180.4388 158.0361,-161.004 166.1621,-145.5355"/>
<polygon fill="#00ff00" stroke="#00ff00" stroke-width=".1891" points="169.3566,-146.9804 170.9088,-136.4998 163.1597,-143.7249 169.3566,-146.9804"/>
</g>
<!-- 181&#45;&gt;backward -->
<g id="edge36" class="edge">
<title>181&#45;&gt;backward</title>
<path fill="none" stroke="#00ff00" stroke-width=".1616" d="M1130.0425,-197.174C1119.6968,-185.5474 1105.3796,-169.4577 1092.5048,-154.989"/>
<polygon fill="#00ff00" stroke="#00ff00" stroke-width=".1616" points="1094.7972,-152.3001 1085.5349,-147.1562 1089.5678,-156.9535 1094.7972,-152.3001"/>
</g>
<!-- 344&#45;&gt;forward -->
<g id="edge42" class="edge">
<title>344&#45;&gt;forward</title>
<path fill="none" stroke="#ff0000" stroke-width=".1409" stroke-dasharray="1,5" d="M730.5,-191.7876C730.5,-182.9884 730.5,-172.5033 730.5,-162.3064"/>
<polygon fill="#ff0000" stroke="#ff0000" stroke-width=".1409" points="734.0001,-162.2785 730.5,-152.2785 727.0001,-162.2786 734.0001,-162.2785"/>
</g>
</g>
</svg>
