<?xml version="1.0" encoding="UTF-8" standalone="no"?>
<!DOCTYPE svg PUBLIC "-//W3C//DTD SVG 1.1//EN"
 "http://www.w3.org/Graphics/SVG/1.1/DTD/svg11.dtd">
<!-- Generated by graphviz version 2.40.1 (20161225.0304)
 -->
<!-- Title: %3 Pages: 1 -->
<svg width="973pt" height="388pt"
 viewBox="0.00 0.00 972.86 387.79" xmlns="http://www.w3.org/2000/svg" xmlns:xlink="http://www.w3.org/1999/xlink">
<g id="graph0" class="graph" transform="scale(1 1) rotate(0) translate(4 383.7889)">
<title>%3</title>
<polygon fill="#ffffff" stroke="transparent" points="-4,4 -4,-383.7889 968.8603,-383.7889 968.8603,4 -4,4"/>
<!-- x&#45;vel -->
<g id="node1" class="node">
<title>x&#45;vel</title>
<polygon fill="#d3d3d3" stroke="#000000" points="108.6802,-116.4178 73.6802,-116.4178 73.6802,-98.4178 108.6802,-98.4178 108.6802,-116.4178"/>
<text text-anchor="middle" x="91.1802" y="-105.2178" font-family="Times,serif" font-size="9.00" fill="#000000">x&#45;vel</text>
</g>
<!-- right -->
<g id="node14" class="node">
<title>right</title>
<ellipse fill="#add8e6" stroke="#000000" cx="388.1802" cy="-23.3345" rx="23.1702" ry="23.1702"/>
<text text-anchor="middle" x="388.1802" y="-21.1345" font-family="Times,serif" font-size="9.00" fill="#000000">right</text>
</g>
<!-- x&#45;vel&#45;&gt;right -->
<g id="edge23" class="edge">
<title>x&#45;vel&#45;&gt;right</title>
<path fill="none" stroke="#ff0000" stroke-width=".3779" d="M100.5247,-98.3984C106.5441,-93.0685 114.7897,-86.6118 123.1802,-82.669 201.2229,-45.9958 303.0168,-31.4383 354.7877,-26.1148"/>
<polygon fill="#ff0000" stroke="#ff0000" stroke-width=".3779" points="355.1389,-29.5973 364.7513,-25.1418 354.4585,-22.6304 355.1389,-29.5973"/>
</g>
<!-- y&#45;vel -->
<g id="node2" class="node">
<title>y&#45;vel</title>
<polygon fill="#d3d3d3" stroke="#000000" points="162.6802,-310.0402 127.6802,-310.0402 127.6802,-292.0402 162.6802,-292.0402 162.6802,-310.0402"/>
<text text-anchor="middle" x="145.1802" y="-298.8402" font-family="Times,serif" font-size="9.00" fill="#000000">y&#45;vel</text>
</g>
<!-- none -->
<g id="node13" class="node">
<title>none</title>
<ellipse fill="#add8e6" stroke="#000000" cx="61.1802" cy="-204.229" rx="24.0833" ry="24.0833"/>
<text text-anchor="middle" x="61.1802" y="-202.029" font-family="Times,serif" font-size="9.00" fill="#000000">none</text>
</g>
<!-- y&#45;vel&#45;&gt;none -->
<g id="edge5" class="edge">
<title>y&#45;vel&#45;&gt;none</title>
<path fill="none" stroke="#ff0000" stroke-width=".1909" d="M137.1259,-291.7575C124.9454,-277.7193 101.3878,-250.5689 83.7239,-230.211"/>
<polygon fill="#ff0000" stroke="#ff0000" stroke-width=".1909" points="86.2389,-227.7689 77.0416,-222.5095 80.9517,-232.3565 86.2389,-227.7689"/>
</g>
<!-- left -->
<g id="node15" class="node">
<title>left</title>
<ellipse fill="#add8e6" stroke="#000000" cx="436.1802" cy="-204.229" rx="19.6" ry="19.6"/>
<text text-anchor="middle" x="436.1802" y="-202.029" font-family="Times,serif" font-size="9.00" fill="#000000">left</text>
</g>
<!-- y&#45;vel&#45;&gt;left -->
<g id="edge16" class="edge">
<title>y&#45;vel&#45;&gt;left</title>
<path fill="none" stroke="#00ff00" stroke-width=".191" stroke-dasharray="1,5" d="M153.3267,-291.5992C158.2922,-286.3898 165.0422,-280.2026 172.1802,-276.2914 226.6375,-246.4519 247.2772,-256.6509 307.1802,-240.2914 341.6393,-230.8806 381.1906,-219.7794 407.3163,-212.4047"/>
<polygon fill="#00ff00" stroke="#00ff00" stroke-width=".191" points="408.2959,-215.765 416.9673,-209.6775 406.3924,-209.0288 408.2959,-215.765"/>
</g>
<!-- backward -->
<g id="node17" class="node">
<title>backward</title>
<ellipse fill="#add8e6" stroke="#000000" cx="262.1802" cy="-204.229" rx="36.125" ry="36.125"/>
<text text-anchor="middle" x="262.1802" y="-202.029" font-family="Times,serif" font-size="9.00" fill="#000000">backward</text>
</g>
<!-- y&#45;vel&#45;&gt;backward -->
<g id="edge32" class="edge">
<title>y&#45;vel&#45;&gt;backward</title>
<path fill="none" stroke="#00ff00" stroke-width=".3851" d="M154.7869,-291.9457C159.8815,-287.1969 166.2896,-281.3396 172.1802,-276.2914 189.2645,-261.6501 208.6976,-245.973 225.123,-232.9925"/>
<polygon fill="#00ff00" stroke="#00ff00" stroke-width=".3851" points="227.7166,-235.4052 233.4099,-226.4701 223.3872,-229.9046 227.7166,-235.4052"/>
</g>
<!-- x&#45;pos -->
<g id="node3" class="node">
<title>x&#45;pos</title>
<polygon fill="#d3d3d3" stroke="#000000" points="217.1802,-310.0402 181.1802,-310.0402 181.1802,-292.0402 217.1802,-292.0402 217.1802,-310.0402"/>
<text text-anchor="middle" x="199.1802" y="-298.8402" font-family="Times,serif" font-size="9.00" fill="#000000">x&#45;pos</text>
</g>
<!-- x&#45;pos&#45;&gt;none -->
<g id="edge21" class="edge">
<title>x&#45;pos&#45;&gt;none</title>
<path fill="none" stroke="#ff0000" stroke-width=".1329" stroke-dasharray="1,5" d="M189.6249,-291.9789C184.3445,-287.1313 177.5753,-281.1722 171.1802,-276.2914 145.0207,-256.3263 113.4466,-235.9983 90.8486,-222.0455"/>
<polygon fill="#ff0000" stroke="#ff0000" stroke-width=".1329" points="92.4122,-218.8989 82.0569,-216.659 88.7553,-224.8677 92.4122,-218.8989"/>
</g>
<!-- x&#45;pos&#45;&gt;right -->
<g id="edge22" class="edge">
<title>x&#45;pos&#45;&gt;right</title>
<path fill="none" stroke="#ff0000" stroke-width=".5318" stroke-dasharray="1,5" d="M198.2813,-291.9751C196.4777,-269.4608 194.3561,-209.8114 217.1802,-168.1665 250.1567,-107.9974 318.8538,-61.9936 358.4043,-39.194"/>
<polygon fill="#ff0000" stroke="#ff0000" stroke-width=".5318" points="360.3318,-42.1251 367.321,-34.1626 356.8918,-36.0287 360.3318,-42.1251"/>
</g>
<!-- x&#45;pos&#45;&gt;left -->
<g id="edge8" class="edge">
<title>x&#45;pos&#45;&gt;left</title>
<path fill="none" stroke="#ff0000" stroke-width=".444" stroke-dasharray="1,5" d="M207.4326,-291.7846C212.4334,-286.637 219.1834,-280.4498 226.1802,-276.2914 257.5012,-257.6762 357.0882,-227.255 407.0327,-212.617"/>
<polygon fill="#ff0000" stroke="#ff0000" stroke-width=".444" points="408.2731,-215.9011 416.8944,-209.7429 406.3145,-209.1807 408.2731,-215.9011"/>
</g>
<!-- forward -->
<g id="node16" class="node">
<title>forward</title>
<ellipse fill="#add8e6" stroke="#000000" cx="654.1802" cy="-204.229" rx="31.6406" ry="31.6406"/>
<text text-anchor="middle" x="654.1802" y="-202.029" font-family="Times,serif" font-size="9.00" fill="#000000">forward</text>
</g>
<!-- x&#45;pos&#45;&gt;forward -->
<g id="edge2" class="edge">
<title>x&#45;pos&#45;&gt;forward</title>
<path fill="none" stroke="#00ff00" stroke-width=".5188" stroke-dasharray="1,5" d="M206.7168,-291.7925C211.6648,-286.3767 218.6066,-279.9099 226.1802,-276.2914 323.106,-229.9823 359.2904,-258.3615 465.1802,-240.2914 516.0469,-231.611 574.344,-220.2754 612.5825,-212.6498"/>
<polygon fill="#00ff00" stroke="#00ff00" stroke-width=".5188" points="613.6941,-215.9968 622.813,-210.6027 612.3206,-209.1329 613.6941,-215.9968"/>
</g>
<!-- x&#45;pos&#45;&gt;backward -->
<g id="edge7" class="edge">
<title>x&#45;pos&#45;&gt;backward</title>
<path fill="none" stroke="#ff0000" stroke-width=".1701" stroke-dasharray="1,5" d="M205.2209,-291.7575C212.5257,-280.5323 225.2863,-260.9232 236.8803,-243.1069"/>
<polygon fill="#ff0000" stroke="#ff0000" stroke-width=".1701" points="239.9283,-244.84 242.4491,-234.5494 234.0612,-241.022 239.9283,-244.84"/>
</g>
<!-- y&#45;pos -->
<g id="node4" class="node">
<title>y&#45;pos</title>
<polygon fill="#d3d3d3" stroke="#000000" points="672.1802,-310.0402 636.1802,-310.0402 636.1802,-292.0402 672.1802,-292.0402 672.1802,-310.0402"/>
<text text-anchor="middle" x="654.1802" y="-298.8402" font-family="Times,serif" font-size="9.00" fill="#000000">y&#45;pos</text>
</g>
<!-- y&#45;pos&#45;&gt;forward -->
<g id="edge9" class="edge">
<title>y&#45;pos&#45;&gt;forward</title>
<path fill="none" stroke="#ff0000" stroke-width=".3446" stroke-dasharray="1,5" d="M654.1802,-291.7575C654.1802,-281.254 654.1802,-263.41 654.1802,-246.563"/>
<polygon fill="#ff0000" stroke="#ff0000" stroke-width=".3446" points="657.6802,-246.2766 654.1802,-236.2766 650.6802,-246.2767 657.6802,-246.2766"/>
</g>
<!-- x&#45;lm1&#45;vec -->
<g id="node5" class="node">
<title>x&#45;lm1&#45;vec</title>
<polygon fill="#d3d3d3" stroke="#000000" points="234.6802,-379.7889 181.6802,-379.7889 181.6802,-361.7889 234.6802,-361.7889 234.6802,-379.7889"/>
<text text-anchor="middle" x="208.1802" y="-368.5889" font-family="Times,serif" font-size="9.00" fill="#000000">x&#45;lm1&#45;vec</text>
</g>
<!-- x&#45;lm1&#45;vec&#45;&gt;none -->
<g id="edge15" class="edge">
<title>x&#45;lm1&#45;vec&#45;&gt;none</title>
<path fill="none" stroke="#ff0000" stroke-width=".2413" stroke-dasharray="1,5" d="M181.451,-368.7723C132.2599,-364.446 30.4633,-352.4222 9.1802,-325.7889 -14.3249,-296.3752 13.6406,-254.7477 36.7676,-228.6343"/>
<polygon fill="#ff0000" stroke="#ff0000" stroke-width=".2413" points="39.5392,-230.7909 43.7273,-221.059 34.3843,-226.0551 39.5392,-230.7909"/>
</g>
<!-- x&#45;lm1&#45;vec&#45;&gt;right -->
<g id="edge27" class="edge">
<title>x&#45;lm1&#45;vec&#45;&gt;right</title>
<path fill="none" stroke="#00ff00" stroke-width="2.3523" d="M181.3269,-365.3807C160.1079,-359.5423 131.8645,-347.9307 118.1802,-325.7889 106.6147,-307.0755 110.211,-296.7961 118.1802,-276.2914 163.7901,-158.9374 297.8461,-72.9949 358.1662,-39.162"/>
<polygon fill="#00ff00" stroke="#00ff00" stroke-width="2.3523" points="360.125,-42.0787 367.1893,-34.1826 356.7429,-35.9499 360.125,-42.0787"/>
</g>
<!-- x&#45;lm1&#45;vec&#45;&gt;left -->
<g id="edge20" class="edge">
<title>x&#45;lm1&#45;vec&#45;&gt;left</title>
<path fill="none" stroke="#ff0000" stroke-width="1.874" d="M229.8757,-361.6657C248.4349,-353.4367 275.5045,-340.4073 297.1802,-325.7889 342.4169,-295.2805 388.943,-251.6075 415.0488,-225.7597"/>
<polygon fill="#ff0000" stroke="#ff0000" stroke-width="1.874" points="417.5593,-228.199 422.1619,-218.6561 412.6128,-223.2459 417.5593,-228.199"/>
</g>
<!-- 566 -->
<g id="node21" class="node">
<title>566</title>
<ellipse fill="#ffffff" stroke="#000000" cx="711.1802" cy="-301.0402" rx="21.4286" ry="21.4286"/>
<text text-anchor="middle" x="711.1802" y="-298.8402" font-family="Times,serif" font-size="9.00" fill="#000000">566</text>
</g>
<!-- x&#45;lm1&#45;vec&#45;&gt;566 -->
<g id="edge30" class="edge">
<title>x&#45;lm1&#45;vec&#45;&gt;566</title>
<path fill="none" stroke="#ff0000" stroke-width=".3282" d="M234.6902,-370.298C321.9556,-368.3684 599.3369,-359.6525 681.1802,-325.7889 683.5275,-324.8176 685.833,-323.5973 688.058,-322.222"/>
<polygon fill="#ff0000" stroke="#ff0000" stroke-width=".3282" points="690.1175,-325.052 696.1605,-316.3495 686.0095,-319.3841 690.1175,-325.052"/>
</g>
<!-- y&#45;lm1&#45;vec -->
<g id="node6" class="node">
<title>y&#45;lm1&#45;vec</title>
<polygon fill="#d3d3d3" stroke="#000000" points="579.6802,-310.0402 526.6802,-310.0402 526.6802,-292.0402 579.6802,-292.0402 579.6802,-310.0402"/>
<text text-anchor="middle" x="553.1802" y="-298.8402" font-family="Times,serif" font-size="9.00" fill="#000000">y&#45;lm1&#45;vec</text>
</g>
<!-- y&#45;lm1&#45;vec&#45;&gt;left -->
<g id="edge14" class="edge">
<title>y&#45;lm1&#45;vec&#45;&gt;left</title>
<path fill="none" stroke="#ff0000" stroke-width=".1234" d="M541.9617,-291.7575C523.0514,-276.1102 484.4534,-244.1725 459.4799,-223.5083"/>
<polygon fill="#ff0000" stroke="#ff0000" stroke-width=".1234" points="461.5169,-220.6509 451.5811,-216.9724 457.0543,-226.0441 461.5169,-220.6509"/>
</g>
<!-- y&#45;lm1&#45;vec&#45;&gt;forward -->
<g id="edge35" class="edge">
<title>y&#45;lm1&#45;vec&#45;&gt;forward</title>
<path fill="none" stroke="#00ff00" stroke-width=".4003" d="M562.8645,-291.7575C576.7602,-278.4381 602.9705,-253.3148 623.7587,-233.3888"/>
<polygon fill="#00ff00" stroke="#00ff00" stroke-width=".4003" points="626.342,-235.7608 631.1393,-226.3143 621.4981,-230.7074 626.342,-235.7608"/>
</g>
<!-- y&#45;lm1&#45;vec&#45;&gt;backward -->
<g id="edge11" class="edge">
<title>y&#45;lm1&#45;vec&#45;&gt;backward</title>
<path fill="none" stroke="#ff0000" stroke-width="1.7805" d="M542.4367,-291.9819C535.802,-286.7724 526.9128,-280.4554 518.1802,-276.2914 480.8729,-258.5024 370.5406,-230.3499 307.5697,-215.0297"/>
<polygon fill="#ff0000" stroke="#ff0000" stroke-width="1.7805" points="308.0569,-211.5466 297.514,-212.5944 306.4092,-218.3499 308.0569,-211.5466"/>
</g>
<!-- x&#45;lm2&#45;vec -->
<g id="node7" class="node">
<title>x&#45;lm2&#45;vec</title>
<polygon fill="#d3d3d3" stroke="#000000" points="510.6802,-379.7889 457.6802,-379.7889 457.6802,-361.7889 510.6802,-361.7889 510.6802,-379.7889"/>
<text text-anchor="middle" x="484.1802" y="-368.5889" font-family="Times,serif" font-size="9.00" fill="#000000">x&#45;lm2&#45;vec</text>
</g>
<!-- x&#45;lm2&#45;vec&#45;&gt;none -->
<g id="edge13" class="edge">
<title>x&#45;lm2&#45;vec&#45;&gt;none</title>
<path fill="none" stroke="#00ff00" stroke-width=".2634" d="M457.5282,-370.0759C366.9087,-367.3805 74.7708,-356.3666 47.1802,-325.7889 25.2527,-301.4875 34.7915,-262.4041 45.8626,-235.1354"/>
<polygon fill="#00ff00" stroke="#00ff00" stroke-width=".2634" points="49.1979,-236.2406 49.9554,-225.6728 42.7731,-233.4617 49.1979,-236.2406"/>
</g>
<!-- x&#45;lm2&#45;vec&#45;&gt;left -->
<g id="edge26" class="edge">
<title>x&#45;lm2&#45;vec&#45;&gt;left</title>
<path fill="none" stroke="#00ff00" stroke-width=".1674" stroke-dasharray="1,5" d="M457.6282,-368.1918C431.4303,-364.0576 392.6966,-353.3697 374.1802,-325.7889 351.5626,-292.0993 386.9647,-249.0745 412.8732,-224.2874"/>
<polygon fill="#00ff00" stroke="#00ff00" stroke-width=".1674" points="415.5633,-226.5672 420.5342,-217.2109 410.8136,-221.4252 415.5633,-226.5672"/>
</g>
<!-- x&#45;lm2&#45;vec&#45;&gt;forward -->
<g id="edge6" class="edge">
<title>x&#45;lm2&#45;vec&#45;&gt;forward</title>
<path fill="none" stroke="#00ff00" stroke-width=".3198" stroke-dasharray="1,5" d="M510.8018,-364.5357C533.5883,-358.0517 566.1151,-345.9718 588.1802,-325.7889 612.4555,-303.5842 629.6503,-270.3323 640.3909,-244.2161"/>
<polygon fill="#00ff00" stroke="#00ff00" stroke-width=".3198" points="643.773,-245.1806 644.1926,-234.5941 637.2627,-242.6083 643.773,-245.1806"/>
</g>
<!-- 1315 -->
<g id="node18" class="node">
<title>1315</title>
<ellipse fill="#ffffff" stroke="#000000" cx="484.1802" cy="-301.0402" rx="25" ry="25"/>
<text text-anchor="middle" x="484.1802" y="-298.8402" font-family="Times,serif" font-size="9.00" fill="#000000">1315</text>
</g>
<!-- x&#45;lm2&#45;vec&#45;&gt;1315 -->
<g id="edge39" class="edge">
<title>x&#45;lm2&#45;vec&#45;&gt;1315</title>
<path fill="none" stroke="#00ff00" stroke-width=".1777" d="M484.1802,-361.6705C484.1802,-355.0537 484.1802,-345.6422 484.1802,-336.2026"/>
<polygon fill="#00ff00" stroke="#00ff00" stroke-width=".1777" points="487.6803,-336.0794 484.1802,-326.0794 480.6803,-336.0795 487.6803,-336.0794"/>
</g>
<!-- x&#45;lm2&#45;vec&#45;&gt;566 -->
<g id="edge41" class="edge">
<title>x&#45;lm2&#45;vec&#45;&gt;566</title>
<path fill="none" stroke="#00ff00" stroke-width=".3996" d="M510.9768,-368.6157C550.1426,-364.5867 624.5171,-353.6634 681.1802,-325.7889 683.4597,-324.6675 685.7171,-323.3412 687.9098,-321.8943"/>
<polygon fill="#00ff00" stroke="#00ff00" stroke-width=".3996" points="690.0305,-324.679 695.9552,-315.8956 685.8462,-319.0672 690.0305,-324.679"/>
</g>
<!-- y&#45;lm2&#45;vec -->
<g id="node8" class="node">
<title>y&#45;lm2&#45;vec</title>
<polygon fill="#d3d3d3" stroke="#000000" points="288.6802,-310.0402 235.6802,-310.0402 235.6802,-292.0402 288.6802,-292.0402 288.6802,-310.0402"/>
<text text-anchor="middle" x="262.1802" y="-298.8402" font-family="Times,serif" font-size="9.00" fill="#000000">y&#45;lm2&#45;vec</text>
</g>
<!-- y&#45;lm2&#45;vec&#45;&gt;backward -->
<g id="edge18" class="edge">
<title>y&#45;lm2&#45;vec&#45;&gt;backward</title>
<path fill="none" stroke="#ff0000" stroke-width=".7806" stroke-dasharray="1,5" d="M262.1802,-291.7575C262.1802,-282.1295 262.1802,-266.3339 262.1802,-250.7919"/>
<polygon fill="#ff0000" stroke="#ff0000" stroke-width=".7806" points="265.6803,-250.6825 262.1802,-240.6826 258.6803,-250.6826 265.6803,-250.6825"/>
</g>
<!-- x&#45;other&#45;vec -->
<g id="node9" class="node">
<title>x&#45;other&#45;vec</title>
<polygon fill="#d3d3d3" stroke="#000000" points="441.1802,-310.0402 383.1802,-310.0402 383.1802,-292.0402 441.1802,-292.0402 441.1802,-310.0402"/>
<text text-anchor="middle" x="412.1802" y="-298.8402" font-family="Times,serif" font-size="9.00" fill="#000000">x&#45;other&#45;vec</text>
</g>
<!-- x&#45;other&#45;vec&#45;&gt;right -->
<g id="edge24" class="edge">
<title>x&#45;other&#45;vec&#45;&gt;right</title>
<path fill="none" stroke="#00ff00" stroke-width=".4626" stroke-dasharray="1,5" d="M411.3816,-291.8004C408.2369,-255.413 396.6112,-120.891 391.1065,-57.1951"/>
<polygon fill="#00ff00" stroke="#00ff00" stroke-width=".4626" points="394.5635,-56.5458 390.2154,-46.8843 387.5895,-57.1485 394.5635,-56.5458"/>
</g>
<!-- x&#45;other&#45;vec&#45;&gt;left -->
<g id="edge4" class="edge">
<title>x&#45;other&#45;vec&#45;&gt;left</title>
<path fill="none" stroke="#00ff00" stroke-width=".426" stroke-dasharray="1,5" d="M414.4814,-291.7575C417.7784,-278.4581 423.9929,-253.39 428.9291,-233.4784"/>
<polygon fill="#00ff00" stroke="#00ff00" stroke-width=".426" points="432.3625,-234.174 431.3716,-223.6256 425.5682,-232.4896 432.3625,-234.174"/>
</g>
<!-- x&#45;other&#45;vec&#45;&gt;forward -->
<g id="edge19" class="edge">
<title>x&#45;other&#45;vec&#45;&gt;forward</title>
<path fill="none" stroke="#00ff00" stroke-width=".6313" stroke-dasharray="1,5" d="M424.4024,-292.0105C431.6431,-286.9382 441.1431,-280.751 450.1802,-276.2914 504.4804,-249.4952 571.2882,-227.8711 613.3185,-215.5311"/>
<polygon fill="#00ff00" stroke="#00ff00" stroke-width=".6313" points="614.5584,-218.8158 623.1888,-212.6703 612.6097,-212.0925 614.5584,-218.8158"/>
</g>
<!-- y&#45;other&#45;vec -->
<g id="node10" class="node">
<title>y&#45;other&#45;vec</title>
<polygon fill="#d3d3d3" stroke="#000000" points="846.1802,-310.0402 788.1802,-310.0402 788.1802,-292.0402 846.1802,-292.0402 846.1802,-310.0402"/>
<text text-anchor="middle" x="817.1802" y="-298.8402" font-family="Times,serif" font-size="9.00" fill="#000000">y&#45;other&#45;vec</text>
</g>
<!-- y&#45;other&#45;vec&#45;&gt;left -->
<g id="edge17" class="edge">
<title>y&#45;other&#45;vec&#45;&gt;left</title>
<path fill="none" stroke="#00ff00" stroke-width=".6993" stroke-dasharray="1,5" d="M791.3134,-292.0281C776.6889,-287.0816 758.015,-281.0125 741.1802,-276.2914 640.9876,-248.1938 520.272,-221.8589 465.6166,-210.3346"/>
<polygon fill="#00ff00" stroke="#00ff00" stroke-width=".6993" points="466.0976,-206.8594 455.592,-208.2311 464.66,-213.7102 466.0976,-206.8594"/>
</g>
<!-- y&#45;other&#45;vec&#45;&gt;forward -->
<g id="edge3" class="edge">
<title>y&#45;other&#45;vec&#45;&gt;forward</title>
<path fill="none" stroke="#ff0000" stroke-width=".2672" stroke-dasharray="1,5" d="M801.8455,-291.9324C776.6012,-276.939 725.6129,-246.6553 690.6843,-225.91"/>
<polygon fill="#ff0000" stroke="#ff0000" stroke-width=".2672" points="692.1202,-222.6921 681.7351,-220.5948 688.5456,-228.7106 692.1202,-222.6921"/>
</g>
<!-- 1396 -->
<g id="node20" class="node">
<title>1396</title>
<ellipse fill="#ffffff" stroke="#000000" cx="794.1802" cy="-204.229" rx="25" ry="25"/>
<text text-anchor="middle" x="794.1802" y="-202.029" font-family="Times,serif" font-size="9.00" fill="#000000">1396</text>
</g>
<!-- y&#45;other&#45;vec&#45;&gt;1396 -->
<g id="edge42" class="edge">
<title>y&#45;other&#45;vec&#45;&gt;1396</title>
<path fill="none" stroke="#ff0000" stroke-width=".1372" d="M814.9748,-291.7575C812.0775,-279.5621 806.8292,-257.4709 802.3302,-238.5341"/>
<polygon fill="#ff0000" stroke="#ff0000" stroke-width=".1372" points="805.7119,-237.6256 799.9952,-228.7054 798.9014,-239.2437 805.7119,-237.6256"/>
</g>
<!-- x&#45;other&#45;vel -->
<g id="node11" class="node">
<title>x&#45;other&#45;vel</title>
<polygon fill="#d3d3d3" stroke="#000000" points="958.1802,-310.0402 902.1802,-310.0402 902.1802,-292.0402 958.1802,-292.0402 958.1802,-310.0402"/>
<text text-anchor="middle" x="930.1802" y="-298.8402" font-family="Times,serif" font-size="9.00" fill="#000000">x&#45;other&#45;vel</text>
</g>
<!-- x&#45;other&#45;vel&#45;&gt;right -->
<g id="edge25" class="edge">
<title>x&#45;other&#45;vel&#45;&gt;right</title>
<path fill="none" stroke="#00ff00" stroke-width=".5616" stroke-dasharray="1,5" d="M934.4274,-291.7466C949.285,-257.6967 994.83,-138.8338 934.1802,-82.669 896.4812,-47.758 535.1898,-29.5717 421.9487,-24.6959"/>
<polygon fill="#00ff00" stroke="#00ff00" stroke-width=".5616" points="421.9225,-21.1917 411.7834,-24.2654 421.6263,-28.1854 421.9225,-21.1917"/>
</g>
<!-- x&#45;other&#45;vel&#45;&gt;left -->
<g id="edge29" class="edge">
<title>x&#45;other&#45;vel&#45;&gt;left</title>
<path fill="none" stroke="#00ff00" stroke-width=".4186" d="M906.1625,-291.9494C891.592,-286.7284 872.5225,-280.4107 855.1802,-276.2914 749.3845,-251.1621 720.271,-259.1525 613.1802,-240.2914 561.1194,-231.1224 500.8783,-218.393 465.8006,-210.7672"/>
<polygon fill="#00ff00" stroke="#00ff00" stroke-width=".4186" points="466.2758,-207.2885 455.7592,-208.574 464.782,-214.1273 466.2758,-207.2885"/>
</g>
<!-- x&#45;other&#45;vel&#45;&gt;forward -->
<g id="edge12" class="edge">
<title>x&#45;other&#45;vel&#45;&gt;forward</title>
<path fill="none" stroke="#ff0000" stroke-width=".1077" stroke-dasharray="1,5" d="M904.2147,-291.9324C855.7567,-274.935 751.2764,-238.287 693.9028,-218.1623"/>
<polygon fill="#ff0000" stroke="#ff0000" stroke-width=".1077" points="695.0332,-214.8498 684.4383,-214.8425 692.7161,-221.4552 695.0332,-214.8498"/>
</g>
<!-- 1129 -->
<g id="node19" class="node">
<title>1129</title>
<ellipse fill="#ffffff" stroke="#000000" cx="900.1802" cy="-204.229" rx="25" ry="25"/>
<text text-anchor="middle" x="900.1802" y="-202.029" font-family="Times,serif" font-size="9.00" fill="#000000">1129</text>
</g>
<!-- x&#45;other&#45;vel&#45;&gt;1129 -->
<g id="edge36" class="edge">
<title>x&#45;other&#45;vel&#45;&gt;1129</title>
<path fill="none" stroke="#00ff00" stroke-width=".6798" d="M927.3036,-291.7575C923.4571,-279.3447 916.4338,-256.6801 910.4978,-237.5245"/>
<polygon fill="#00ff00" stroke="#00ff00" stroke-width=".6798" points="913.8186,-236.4159 907.5154,-227.9 907.1322,-238.4879 913.8186,-236.4159"/>
</g>
<!-- 1015 -->
<g id="node22" class="node">
<title>1015</title>
<ellipse fill="#ffffff" stroke="#000000" cx="900.1802" cy="-107.4178" rx="25" ry="25"/>
<text text-anchor="middle" x="900.1802" y="-105.2178" font-family="Times,serif" font-size="9.00" fill="#000000">1015</text>
</g>
<!-- x&#45;other&#45;vel&#45;&gt;1015 -->
<g id="edge33" class="edge">
<title>x&#45;other&#45;vel&#45;&gt;1015</title>
<path fill="none" stroke="#00ff00" stroke-width=".1878" stroke-dasharray="1,5" d="M932.2094,-291.8193C936.653,-269.9271 945.9452,-213.2767 934.1802,-168.1665 931.314,-157.1769 925.9709,-146.07 920.3555,-136.4127"/>
<polygon fill="#00ff00" stroke="#00ff00" stroke-width=".1878" points="923.1832,-134.3295 914.9601,-127.6488 917.2222,-137.9993 923.1832,-134.3295"/>
</g>
<!-- y&#45;other&#45;vel -->
<g id="node12" class="node">
<title>y&#45;other&#45;vel</title>
<polygon fill="#d3d3d3" stroke="#000000" points="763.1802,-379.7889 707.1802,-379.7889 707.1802,-361.7889 763.1802,-361.7889 763.1802,-379.7889"/>
<text text-anchor="middle" x="735.1802" y="-368.5889" font-family="Times,serif" font-size="9.00" fill="#000000">y&#45;other&#45;vel</text>
</g>
<!-- y&#45;other&#45;vel&#45;&gt;none -->
<g id="edge28" class="edge">
<title>y&#45;other&#45;vel&#45;&gt;none</title>
<path fill="none" stroke="#ff0000" stroke-width=".2588" d="M707.1178,-369.5305C589.7003,-364.1647 142.763,-342.6998 118.1802,-325.7889 88.9332,-305.6695 74.3115,-266.4663 67.2647,-238.0063"/>
<polygon fill="#ff0000" stroke="#ff0000" stroke-width=".2588" points="70.633,-237.0344 64.9982,-228.0623 63.8081,-238.5901 70.633,-237.0344"/>
</g>
<!-- y&#45;other&#45;vel&#45;&gt;right -->
<g id="edge10" class="edge">
<title>y&#45;other&#45;vel&#45;&gt;right</title>
<path fill="none" stroke="#ff0000" stroke-width=".2998" stroke-dasharray="1,5" d="M763.3441,-364.1564C795.3151,-355.9903 844.4394,-341.2878 855.1802,-325.7889 879.7011,-290.4051 842.0602,-183.103 828.1802,-168.1665 770.9206,-106.5489 513.443,-48.9248 421.1932,-29.9109"/>
<polygon fill="#ff0000" stroke="#ff0000" stroke-width=".2998" points="421.7828,-26.4591 411.2846,-27.8865 420.3816,-33.3174 421.7828,-26.4591"/>
</g>
<!-- y&#45;other&#45;vel&#45;&gt;forward -->
<g id="edge1" class="edge">
<title>y&#45;other&#45;vel&#45;&gt;forward</title>
<path fill="none" stroke="#ff0000" stroke-width=".2499" stroke-dasharray="1,5" d="M738.5442,-361.6533C744.4144,-344.1329 754.6801,-305.003 741.1802,-276.2914 730.806,-254.2276 709.9922,-236.5995 691.324,-224.3018"/>
<polygon fill="#ff0000" stroke="#ff0000" stroke-width=".2499" points="692.9957,-221.2187 682.6659,-218.8636 689.2725,-227.1464 692.9957,-221.2187"/>
</g>
<!-- y&#45;other&#45;vel&#45;&gt;566 -->
<g id="edge43" class="edge">
<title>y&#45;other&#45;vel&#45;&gt;566</title>
<path fill="none" stroke="#00ff00" stroke-width=".2691" d="M732.0426,-361.6705C729.3302,-353.7879 725.2531,-341.9388 721.4206,-330.801"/>
<polygon fill="#00ff00" stroke="#00ff00" stroke-width=".2691" points="724.7195,-329.631 718.1562,-321.3139 718.1004,-331.9086 724.7195,-329.631"/>
</g>
<!-- backward&#45;&gt;1015 -->
<g id="edge38" class="edge">
<title>backward&#45;&gt;1015</title>
<path fill="none" stroke="#ff0000" stroke-width=".1447" d="M297.0804,-194.2853C326.2904,-186.2687 369.1755,-175.2072 407.1802,-168.1665 577.5978,-136.595 784.2867,-117.1538 865.2634,-110.2551"/>
<polygon fill="#ff0000" stroke="#ff0000" stroke-width=".1447" points="865.7245,-113.7287 875.3955,-109.4018 865.137,-106.7534 865.7245,-113.7287"/>
</g>
<!-- 1315&#45;&gt;left -->
<g id="edge40" class="edge">
<title>1315&#45;&gt;left</title>
<path fill="none" stroke="#00ff00" stroke-width=".1083" d="M473.0473,-278.5864C466.0501,-264.4737 456.9811,-246.1824 449.589,-231.2732"/>
<polygon fill="#00ff00" stroke="#00ff00" stroke-width=".1083" points="452.5899,-229.4465 445.012,-222.042 446.3184,-232.556 452.5899,-229.4465"/>
</g>
<!-- 1129&#45;&gt;1015 -->
<g id="edge37" class="edge">
<title>1129&#45;&gt;1015</title>
<path fill="none" stroke="#ff0000" stroke-width=".1842" d="M900.1802,-179.2977C900.1802,-168.1182 900.1802,-154.7345 900.1802,-142.5629"/>
<polygon fill="#ff0000" stroke="#ff0000" stroke-width=".1842" points="903.6802,-142.2646 900.1802,-132.2646 896.6802,-142.2646 903.6802,-142.2646"/>
</g>
<!-- 566&#45;&gt;forward -->
<g id="edge31" class="edge">
<title>566&#45;&gt;forward</title>
<path fill="none" stroke="#ff0000" stroke-width=".2161" d="M700.19,-282.374C693.2902,-270.6551 684.1549,-255.1393 675.8439,-241.0235"/>
<polygon fill="#ff0000" stroke="#ff0000" stroke-width=".2161" points="678.6229,-238.8451 670.5331,-232.0036 672.5908,-242.3967 678.6229,-238.8451"/>
</g>
<!-- 1015&#45;&gt;right -->
<g id="edge34" class="edge">
<title>1015&#45;&gt;right</title>
<path fill="none" stroke="#ff0000" stroke-width=".6806" d="M880.4168,-92.5163C874.5044,-88.7269 867.8208,-85.0565 861.1802,-82.669 779.7209,-53.3832 515.558,-32.3399 421.6725,-25.6232"/>
<polygon fill="#ff0000" stroke="#ff0000" stroke-width=".6806" points="421.8185,-22.1249 411.5965,-24.9108 421.3247,-29.1074 421.8185,-22.1249"/>
</g>
</g>
</svg>
