<?xml version="1.0" encoding="UTF-8" standalone="no"?>
<!DOCTYPE svg PUBLIC "-//W3C//DTD SVG 1.1//EN"
 "http://www.w3.org/Graphics/SVG/1.1/DTD/svg11.dtd">
<!-- Generated by graphviz version 2.40.1 (20161225.0304)
 -->
<!-- Title: %3 Pages: 1 -->
<svg width="2797pt" height="1084pt"
 viewBox="0.00 0.00 2796.79 1084.24" xmlns="http://www.w3.org/2000/svg" xmlns:xlink="http://www.w3.org/1999/xlink">
<g id="graph0" class="graph" transform="scale(1 1) rotate(0) translate(4 1080.2367)">
<title>%3</title>
<polygon fill="#ffffff" stroke="transparent" points="-4,4 -4,-1080.2367 2792.795,-1080.2367 2792.795,4 -4,4"/>
<!-- A_agent -->
<g id="node1" class="node">
<title>A_agent</title>
<polygon fill="#d3d3d3" stroke="#000000" points="1519.0311,-462.0057 1472.0311,-462.0057 1472.0311,-444.0057 1519.0311,-444.0057 1519.0311,-462.0057"/>
<text text-anchor="middle" x="1495.5311" y="-450.8057" font-family="Times,serif" font-size="9.00" fill="#000000">A_agent</text>
</g>
<!-- none -->
<g id="node18" class="node">
<title>none</title>
<ellipse fill="#add8e6" stroke="#000000" cx="718.5311" cy="-257.9691" rx="24.0833" ry="24.0833"/>
<text text-anchor="middle" x="718.5311" y="-255.7691" font-family="Times,serif" font-size="9.00" fill="#000000">none</text>
</g>
<!-- A_agent&#45;&gt;none -->
<g id="edge48" class="edge">
<title>A_agent&#45;&gt;none</title>
<path fill="none" stroke="#ff0000" stroke-width=".1834" stroke-dasharray="1,5" d="M1491.9328,-443.7284C1481.5769,-418.446 1449.0387,-348.257 1396.5311,-318.7178 1340.0528,-286.9449 882.6596,-265.0231 752.7964,-259.3953"/>
<polygon fill="#ff0000" stroke="#ff0000" stroke-width=".1834" points="752.7777,-255.8914 742.6368,-258.9595 752.4776,-262.885 752.7777,-255.8914"/>
</g>
<!-- forward -->
<g id="node21" class="node">
<title>forward</title>
<ellipse fill="#add8e6" stroke="#000000" cx="2064.5311" cy="-355.4874" rx="31.6406" ry="31.6406"/>
<text text-anchor="middle" x="2064.5311" y="-353.2874" font-family="Times,serif" font-size="9.00" fill="#000000">forward</text>
</g>
<!-- A_agent&#45;&gt;forward -->
<g id="edge51" class="edge">
<title>A_agent&#45;&gt;forward</title>
<path fill="none" stroke="#ff0000" stroke-width=".2839" stroke-dasharray="1,5" d="M1519.2502,-447.1423C1541.2664,-441.8138 1574.9947,-433.9398 1604.5311,-428.2569 1757.8335,-398.761 1941.5595,-372.3629 2022.6104,-361.1686"/>
<polygon fill="#ff0000" stroke="#ff0000" stroke-width=".2839" points="2023.4648,-364.5841 2032.8945,-359.7539 2022.5107,-357.6495 2023.4648,-364.5841"/>
</g>
<!-- backward -->
<g id="node22" class="node">
<title>backward</title>
<ellipse fill="#add8e6" stroke="#000000" cx="1074.5311" cy="-355.4874" rx="36.125" ry="36.125"/>
<text text-anchor="middle" x="1074.5311" y="-353.2874" font-family="Times,serif" font-size="9.00" fill="#000000">backward</text>
</g>
<!-- A_agent&#45;&gt;backward -->
<g id="edge8" class="edge">
<title>A_agent&#45;&gt;backward</title>
<path fill="none" stroke="#00ff00" stroke-width=".1098" d="M1485.8945,-443.8904C1479.6871,-438.5244 1471.1838,-432.0634 1462.5311,-428.2569 1346.4448,-377.1887 1195.4539,-361.9269 1120.6735,-357.3899"/>
<polygon fill="#00ff00" stroke="#00ff00" stroke-width=".1098" points="1120.8219,-353.8927 1110.639,-356.8183 1120.4237,-360.8814 1120.8219,-353.8927"/>
</g>
<!-- counterclockwise -->
<g id="node23" class="node">
<title>counterclockwise</title>
<ellipse fill="#add8e6" stroke="#000000" cx="1714.5311" cy="-55.8614" rx="55.7232" ry="55.7232"/>
<text text-anchor="middle" x="1714.5311" y="-53.6614" font-family="Times,serif" font-size="9.00" fill="#000000">counterclockwise</text>
</g>
<!-- A_agent&#45;&gt;counterclockwise -->
<g id="edge33" class="edge">
<title>A_agent&#45;&gt;counterclockwise</title>
<path fill="none" stroke="#00ff00" stroke-width=".2311" stroke-dasharray="1,5" d="M1493.4322,-443.9548C1484.8311,-404.506 1455.8328,-245.2092 1523.5311,-147.7229 1552.7379,-105.6647 1606.6309,-82.1871 1649.7411,-69.5175"/>
<polygon fill="#00ff00" stroke="#00ff00" stroke-width=".2311" points="1650.92,-72.8219 1659.6022,-66.7499 1649.0284,-66.0824 1650.92,-72.8219"/>
</g>
<!-- A_lm -->
<g id="node2" class="node">
<title>A_lm</title>
<polygon fill="#d3d3d3" stroke="#000000" points="1992.0311,-547.5031 1955.0311,-547.5031 1955.0311,-529.5031 1992.0311,-529.5031 1992.0311,-547.5031"/>
<text text-anchor="middle" x="1973.5311" y="-536.3031" font-family="Times,serif" font-size="9.00" fill="#000000">A_lm</text>
</g>
<!-- left -->
<g id="node20" class="node">
<title>left</title>
<ellipse fill="#add8e6" stroke="#000000" cx="1929.5311" cy="-453.0057" rx="19.6" ry="19.6"/>
<text text-anchor="middle" x="1929.5311" y="-450.8057" font-family="Times,serif" font-size="9.00" fill="#000000">left</text>
</g>
<!-- A_lm&#45;&gt;left -->
<g id="edge12" class="edge">
<title>A_lm&#45;&gt;left</title>
<path fill="none" stroke="#ff0000" stroke-width=".157" stroke-dasharray="1,5" d="M1968.8223,-529.3534C1962.7617,-517.5769 1951.9716,-496.6104 1943.2303,-479.625"/>
<polygon fill="#ff0000" stroke="#ff0000" stroke-width=".157" points="1946.316,-477.9719 1938.6279,-470.6819 1940.0918,-481.1751 1946.316,-477.9719"/>
</g>
<!-- A_lm&#45;&gt;forward -->
<g id="edge32" class="edge">
<title>A_lm&#45;&gt;forward</title>
<path fill="none" stroke="#ff0000" stroke-width=".5702" stroke-dasharray="1,5" d="M1983.0391,-529.3792C1988.3057,-524.5132 1995.0767,-518.5566 2001.5311,-513.7544 2025.8724,-495.6438 2044.2435,-503.961 2059.5311,-477.7544 2073.6439,-453.5618 2074.547,-421.8605 2072.1031,-396.8004"/>
<polygon fill="#ff0000" stroke="#ff0000" stroke-width=".5702" points="2075.5776,-396.3775 2070.9282,-386.8574 2068.626,-397.199 2075.5776,-396.3775"/>
</g>
<!-- A_lm&#45;&gt;backward -->
<g id="edge35" class="edge">
<title>A_lm&#45;&gt;backward</title>
<path fill="none" stroke="#ff0000" stroke-width=".1644" stroke-dasharray="1,5" d="M1965.7514,-529.0266C1960.6338,-523.5247 1953.4365,-517.0476 1945.5311,-513.7544 1720.2192,-419.8935 1629.1104,-554.867 1397.5311,-477.7544 1359.2858,-465.0193 1358.1396,-445.1302 1321.5311,-428.2569 1254.302,-397.2702 1170.7,-375.9233 1120.0355,-364.7104"/>
<polygon fill="#ff0000" stroke="#ff0000" stroke-width=".1644" points="1120.5649,-361.2438 1110.0493,-362.5374 1119.0764,-368.0837 1120.5649,-361.2438"/>
</g>
<!-- 1108 -->
<g id="node52" class="node">
<title>1108</title>
<ellipse fill="#ffffff" stroke="#000000" cx="2299.5311" cy="-355.4874" rx="25" ry="25"/>
<text text-anchor="middle" x="2299.5311" y="-353.2874" font-family="Times,serif" font-size="9.00" fill="#000000">1108</text>
</g>
<!-- A_lm&#45;&gt;1108 -->
<g id="edge58" class="edge">
<title>A_lm&#45;&gt;1108</title>
<path fill="none" stroke="#00ff00" stroke-width=".1959" stroke-dasharray="1,5" d="M1982.5628,-529.2946C1987.795,-524.2866 1994.6849,-518.2215 2001.5311,-513.7544 2033.5072,-492.8903 2045.4873,-495.0402 2079.5311,-477.7544 2148.4982,-442.7361 2227.2737,-397.6882 2269.32,-373.2231"/>
<polygon fill="#00ff00" stroke="#00ff00" stroke-width=".1959" points="2271.0886,-376.2434 2277.9638,-368.1822 2267.5622,-370.1965 2271.0886,-376.2434"/>
</g>
<!-- B_agent -->
<g id="node3" class="node">
<title>B_agent</title>
<polygon fill="#d3d3d3" stroke="#000000" points="1936.5311,-547.5031 1890.5311,-547.5031 1890.5311,-529.5031 1936.5311,-529.5031 1936.5311,-547.5031"/>
<text text-anchor="middle" x="1913.5311" y="-536.3031" font-family="Times,serif" font-size="9.00" fill="#000000">B_agent</text>
</g>
<!-- B_agent&#45;&gt;none -->
<g id="edge27" class="edge">
<title>B_agent&#45;&gt;none</title>
<path fill="none" stroke="#00ff00" stroke-width=".2443" stroke-dasharray="1,5" d="M1890.4876,-536.4547C1796.4143,-528.0019 1444.2415,-495.4485 1397.5311,-477.7544 1368.5613,-466.7805 1197.4066,-329.9375 1168.5311,-318.7178 1092.2817,-289.0909 843.9216,-267.5759 752.6135,-260.4912"/>
<polygon fill="#00ff00" stroke="#00ff00" stroke-width=".2443" points="752.7651,-256.9926 742.5268,-259.7179 752.2299,-263.9721 752.7651,-256.9926"/>
</g>
<!-- B_agent&#45;&gt;left -->
<g id="edge22" class="edge">
<title>B_agent&#45;&gt;left</title>
<path fill="none" stroke="#00ff00" stroke-width=".4234" d="M1915.2434,-529.3534C1917.3066,-518.3281 1920.8773,-499.2478 1923.9328,-482.9205"/>
<polygon fill="#00ff00" stroke="#00ff00" stroke-width=".4234" points="1927.446,-483.1742 1925.8453,-472.701 1920.5655,-481.8865 1927.446,-483.1742"/>
</g>
<!-- B_agent&#45;&gt;forward -->
<g id="edge37" class="edge">
<title>B_agent&#45;&gt;forward</title>
<path fill="none" stroke="#00ff00" stroke-width=".1205" stroke-dasharray="1,5" d="M1924.4061,-529.3867C1930.6446,-524.4076 1938.7602,-518.3406 1946.5311,-513.7544 1980.1091,-493.9374 2000.6862,-506.9476 2026.5311,-477.7544 2046.2378,-455.4946 2055.7253,-423.1211 2060.2925,-397.2775"/>
<polygon fill="#00ff00" stroke="#00ff00" stroke-width=".1205" points="2063.7541,-397.7947 2061.8636,-387.3699 2056.8405,-396.6983 2063.7541,-397.7947"/>
</g>
<!-- 5265 -->
<g id="node29" class="node">
<title>5265</title>
<ellipse fill="#ffffff" stroke="#000000" cx="1992.5311" cy="-453.0057" rx="25" ry="25"/>
<text text-anchor="middle" x="1992.5311" y="-450.8057" font-family="Times,serif" font-size="9.00" fill="#000000">5265</text>
</g>
<!-- B_agent&#45;&gt;5265 -->
<g id="edge127" class="edge">
<title>B_agent&#45;&gt;5265</title>
<path fill="none" stroke="#ff0000" stroke-width=".1741" stroke-dasharray="1,5" d="M1921.9855,-529.3534C1933.0312,-517.3992 1952.8267,-495.9756 1968.6426,-478.8589"/>
<polygon fill="#ff0000" stroke="#ff0000" stroke-width=".1741" points="1971.3677,-481.067 1975.5836,-471.347 1966.2265,-476.3164 1971.3677,-481.067"/>
</g>
<!-- B_lm -->
<g id="node4" class="node">
<title>B_lm</title>
<polygon fill="#d3d3d3" stroke="#000000" points="1481.0311,-547.5031 1444.0311,-547.5031 1444.0311,-529.5031 1481.0311,-529.5031 1481.0311,-547.5031"/>
<text text-anchor="middle" x="1462.5311" y="-536.3031" font-family="Times,serif" font-size="9.00" fill="#000000">B_lm</text>
</g>
<!-- B_lm&#45;&gt;left -->
<g id="edge47" class="edge">
<title>B_lm&#45;&gt;left</title>
<path fill="none" stroke="#00ff00" stroke-width=".1507" stroke-dasharray="1,5" d="M1470.0522,-529.2227C1474.9943,-523.7945 1481.9354,-517.3262 1489.5311,-513.7544 1526.7017,-496.2752 1806.7839,-465.8111 1899.6885,-456.0839"/>
<polygon fill="#00ff00" stroke="#00ff00" stroke-width=".1507" points="1900.2337,-459.5461 1909.8169,-455.0281 1899.5078,-452.5839 1900.2337,-459.5461"/>
</g>
<!-- B_lm&#45;&gt;forward -->
<g id="edge7" class="edge">
<title>B_lm&#45;&gt;forward</title>
<path fill="none" stroke="#00ff00" stroke-width=".1458" stroke-dasharray="1,5" d="M1470.1261,-529.3741C1475.096,-524.003 1482.0404,-517.5414 1489.5311,-513.7544 1563.507,-476.3555 1603.5838,-523.7694 1672.5311,-477.7544 1694.5229,-463.0772 1683.5815,-442.9973 1705.5311,-428.2569 1757.1722,-393.577 1939.5375,-369.4047 2022.6728,-359.933"/>
<polygon fill="#00ff00" stroke="#00ff00" stroke-width=".1458" points="2023.2302,-363.3925 2032.7773,-358.7987 2022.4492,-356.4362 2023.2302,-363.3925"/>
</g>
<!-- B_lm&#45;&gt;backward -->
<g id="edge34" class="edge">
<title>B_lm&#45;&gt;backward</title>
<path fill="none" stroke="#00ff00" stroke-width=".9873" stroke-dasharray="1,5" d="M1443.9462,-537.84C1378.4715,-535.1314 1159.7546,-522.8097 1109.5311,-477.7544 1088.275,-458.6857 1079.5632,-427.6778 1076.1459,-401.6612"/>
<polygon fill="#00ff00" stroke="#00ff00" stroke-width=".9873" points="1079.6127,-401.1651 1075.048,-391.604 1072.654,-401.9248 1079.6127,-401.1651"/>
</g>
<!-- B_lm&#45;&gt;counterclockwise -->
<g id="edge20" class="edge">
<title>B_lm&#45;&gt;counterclockwise</title>
<path fill="none" stroke="#00ff00" stroke-width=".212" stroke-dasharray="1,5" d="M1471.6101,-529.2923C1476.6624,-524.4008 1483.1951,-518.4476 1489.5311,-513.7544 1514.8275,-495.0167 1530.1501,-501.7466 1550.5311,-477.7544 1640.6713,-371.6427 1684.5948,-210.3314 1703.0981,-121.0498"/>
<polygon fill="#00ff00" stroke="#00ff00" stroke-width=".212" points="1706.5675,-121.5516 1705.1253,-111.0554 1699.7072,-120.16 1706.5675,-121.5516"/>
</g>
<!-- 897 -->
<g id="node25" class="node">
<title>897</title>
<ellipse fill="#ffffff" stroke="#000000" cx="1553.5311" cy="-172.4716" rx="21.4286" ry="21.4286"/>
<text text-anchor="middle" x="1553.5311" y="-170.2716" font-family="Times,serif" font-size="9.00" fill="#000000">897</text>
</g>
<!-- B_lm&#45;&gt;897 -->
<g id="edge54" class="edge">
<title>B_lm&#45;&gt;897</title>
<path fill="none" stroke="#00ff00" stroke-width=".5779" d="M1472.5355,-529.3238C1490.5638,-512.7592 1526.7214,-479.4217 1527.5311,-477.7544 1571.9369,-386.3129 1564.5334,-261.2694 1557.9264,-203.7498"/>
<polygon fill="#00ff00" stroke="#00ff00" stroke-width=".5779" points="1561.4001,-203.3212 1556.7146,-193.8187 1554.4517,-204.169 1561.4001,-203.3212"/>
</g>
<!-- 3232 -->
<g id="node34" class="node">
<title>3232</title>
<ellipse fill="#ffffff" stroke="#000000" cx="1638.5311" cy="-453.0057" rx="25" ry="25"/>
<text text-anchor="middle" x="1638.5311" y="-450.8057" font-family="Times,serif" font-size="9.00" fill="#000000">3232</text>
</g>
<!-- B_lm&#45;&gt;3232 -->
<g id="edge99" class="edge">
<title>B_lm&#45;&gt;3232</title>
<path fill="none" stroke="#00ff00" stroke-width=".4029" stroke-dasharray="1,5" d="M1470.7614,-529.21C1475.7548,-524.0499 1482.5048,-517.8628 1489.5311,-513.7544 1533.9376,-487.7893 1553.0094,-499.7056 1599.5311,-477.7544 1602.747,-476.237 1606.019,-474.5027 1609.2311,-472.6721"/>
<polygon fill="#00ff00" stroke="#00ff00" stroke-width=".4029" points="1611.2784,-475.5245 1618.029,-467.3587 1607.6595,-469.5325 1611.2784,-475.5245"/>
</g>
<!-- C_agent -->
<g id="node5" class="node">
<title>C_agent</title>
<polygon fill="#d3d3d3" stroke="#000000" points="2484.5311,-547.5031 2438.5311,-547.5031 2438.5311,-529.5031 2484.5311,-529.5031 2484.5311,-547.5031"/>
<text text-anchor="middle" x="2461.5311" y="-536.3031" font-family="Times,serif" font-size="9.00" fill="#000000">C_agent</text>
</g>
<!-- C_agent&#45;&gt;left -->
<g id="edge14" class="edge">
<title>C_agent&#45;&gt;left</title>
<path fill="none" stroke="#00ff00" stroke-width=".1569" stroke-dasharray="1,5" d="M2452.6397,-529.3008C2446.6703,-523.7563 2438.3145,-517.1339 2429.5311,-513.7544 2233.5901,-438.3649 2152.6001,-557.8398 1958.5311,-477.7544 1956.0684,-476.7382 1953.6633,-475.4297 1951.3584,-473.946"/>
<polygon fill="#00ff00" stroke="#00ff00" stroke-width=".1569" points="1953.1277,-470.8931 1943.0566,-467.6029 1948.8778,-476.4553 1953.1277,-470.8931"/>
</g>
<!-- C_agent&#45;&gt;forward -->
<g id="edge134" class="edge">
<title>C_agent&#45;&gt;forward</title>
<path fill="none" stroke="#ff0000" stroke-width=".7395" stroke-dasharray="1,5" d="M2459.0964,-529.3732C2452.9017,-508.0128 2434.4318,-454.6023 2398.5311,-428.2569 2374.992,-410.983 2190.2727,-377.265 2106.0876,-362.5924"/>
<polygon fill="#ff0000" stroke="#ff0000" stroke-width=".7395" points="2106.5487,-359.1202 2096.0974,-360.8584 2105.3515,-366.0171 2106.5487,-359.1202"/>
</g>
<!-- C_agent&#45;&gt;counterclockwise -->
<g id="edge16" class="edge">
<title>C_agent&#45;&gt;counterclockwise</title>
<path fill="none" stroke="#ff0000" stroke-width=".1233" d="M2484.5677,-531.252C2519.7752,-519.7134 2584.4823,-496.5565 2599.5311,-477.7544 2634.1353,-434.5195 2623.5311,-410.8653 2623.5311,-355.4874 2623.5311,-355.4874 2623.5311,-355.4874 2623.5311,-257.9691 2623.5311,-207.8232 2636.9007,-181.1613 2599.5311,-147.7229 2538.7446,-93.3309 1975.7944,-66.159 1780.7128,-58.3175"/>
<polygon fill="#ff0000" stroke="#ff0000" stroke-width=".1233" points="1780.7308,-54.8155 1770.5995,-57.9151 1780.4524,-61.81 1780.7308,-54.8155"/>
</g>
<!-- 1191 -->
<g id="node36" class="node">
<title>1191</title>
<ellipse fill="#ffffff" stroke="#000000" cx="2714.5311" cy="-453.0057" rx="25" ry="25"/>
<text text-anchor="middle" x="2714.5311" y="-450.8057" font-family="Times,serif" font-size="9.00" fill="#000000">1191</text>
</g>
<!-- C_agent&#45;&gt;1191 -->
<g id="edge61" class="edge">
<title>C_agent&#45;&gt;1191</title>
<path fill="none" stroke="#ff0000" stroke-width=".1689" stroke-dasharray="1,5" d="M2484.8792,-530.613C2529.9497,-515.3821 2629.0751,-481.8842 2681.1202,-464.2963"/>
<polygon fill="#ff0000" stroke="#ff0000" stroke-width=".1689" points="2682.5184,-467.5184 2690.8716,-461.001 2680.2773,-460.8868 2682.5184,-467.5184"/>
</g>
<!-- C_lm -->
<g id="node6" class="node">
<title>C_lm</title>
<polygon fill="#d3d3d3" stroke="#000000" points="2281.0311,-974.9905 2244.0311,-974.9905 2244.0311,-956.9905 2281.0311,-956.9905 2281.0311,-974.9905"/>
<text text-anchor="middle" x="2262.5311" y="-963.7905" font-family="Times,serif" font-size="9.00" fill="#000000">C_lm</text>
</g>
<!-- C_lm&#45;&gt;forward -->
<g id="edge65" class="edge">
<title>C_lm&#45;&gt;forward</title>
<path fill="none" stroke="#00ff00" stroke-width=".2297" stroke-dasharray="1,5" d="M2261.8082,-956.7884C2257.3338,-900.5078 2232.8418,-602.2363 2209.5311,-513.7544 2199.0274,-473.8848 2199.7862,-460.0466 2173.5311,-428.2569 2154.2163,-404.8706 2125.4613,-386.1083 2102.3348,-373.4956"/>
<polygon fill="#00ff00" stroke="#00ff00" stroke-width=".2297" points="2103.9342,-370.3821 2093.4579,-368.8014 2100.6619,-376.5702 2103.9342,-370.3821"/>
</g>
<!-- C_lm&#45;&gt;backward -->
<g id="edge28" class="edge">
<title>C_lm&#45;&gt;backward</title>
<path fill="none" stroke="#00ff00" stroke-width=".5139" d="M2252.1504,-956.9057C2223.3424,-931.7631 2143.5956,-862.6551 2129.5311,-855.7443 1908.7452,-747.2571 1811.2911,-840.7286 1589.5311,-734.2468 1502.8713,-692.6357 1509.2748,-636.2108 1420.5311,-599.2519 1292.0803,-545.7563 1226.0404,-639.324 1109.5311,-563.2519 1055.9585,-528.2728 1053.0392,-491.9076 1059.5311,-428.2569 1060.444,-419.3062 1061.973,-409.8308 1063.7145,-400.7812"/>
<polygon fill="#00ff00" stroke="#00ff00" stroke-width=".5139" points="1067.1821,-401.293 1065.7496,-390.7955 1060.3231,-399.8951 1067.1821,-401.293"/>
</g>
<!-- C_lm&#45;&gt;counterclockwise -->
<g id="edge24" class="edge">
<title>C_lm&#45;&gt;counterclockwise</title>
<path fill="none" stroke="#ff0000" stroke-width=".219" stroke-dasharray="1,5" d="M2268.9456,-956.5813C2273.2366,-951.1047 2279.3944,-944.6307 2286.5311,-941.2418 2370.7507,-901.2492 2634.982,-967.3326 2704.5311,-905.2418 2828.5715,-794.5032 2778.5311,-704.7831 2778.5311,-538.5031 2778.5311,-538.5031 2778.5311,-538.5031 2778.5311,-257.9691 2778.5311,-199.2028 2755.9603,-177.8953 2705.5311,-147.7229 2626.3827,-100.3674 1989.8622,-68.1023 1780.7981,-58.6984"/>
<polygon fill="#ff0000" stroke="#ff0000" stroke-width=".219" points="1780.7265,-55.1918 1770.5802,-58.2417 1780.4139,-62.1848 1780.7265,-55.1918"/>
</g>
<!-- clockwise -->
<g id="node24" class="node">
<title>clockwise</title>
<ellipse fill="#add8e6" stroke="#000000" cx="2425.5311" cy="-355.4874" rx="36.5405" ry="36.5405"/>
<text text-anchor="middle" x="2425.5311" y="-353.2874" font-family="Times,serif" font-size="9.00" fill="#000000">clockwise</text>
</g>
<!-- C_lm&#45;&gt;clockwise -->
<g id="edge36" class="edge">
<title>C_lm&#45;&gt;clockwise</title>
<path fill="none" stroke="#ff0000" stroke-width=".527" stroke-dasharray="1,5" d="M2281.1473,-959.1355C2337.7133,-937.1192 2507.1962,-862.0858 2564.5311,-734.2468 2622.2906,-605.461 2545.0479,-553.2749 2479.5311,-428.2569 2472.8909,-415.5863 2464.1551,-402.7359 2455.65,-391.432"/>
<polygon fill="#ff0000" stroke="#ff0000" stroke-width=".527" points="2458.41,-389.2796 2449.531,-383.4991 2452.8673,-393.5549 2458.41,-389.2796"/>
</g>
<!-- 2458 -->
<g id="node32" class="node">
<title>2458</title>
<ellipse fill="#ffffff" stroke="#000000" cx="2095.5311" cy="-880.493" rx="25" ry="25"/>
<text text-anchor="middle" x="2095.5311" y="-878.293" font-family="Times,serif" font-size="9.00" fill="#000000">2458</text>
</g>
<!-- C_lm&#45;&gt;2458 -->
<g id="edge80" class="edge">
<title>C_lm&#45;&gt;2458</title>
<path fill="none" stroke="#ff0000" stroke-width=".183" d="M2243.9481,-958.0293C2218.7206,-947.029 2172.4343,-926.1601 2134.5311,-905.2418 2131.4178,-903.5236 2128.2129,-901.6581 2125.0415,-899.7478"/>
<polygon fill="#ff0000" stroke="#ff0000" stroke-width=".183" points="2126.6408,-896.6214 2116.2965,-894.331 2122.9547,-902.5723 2126.6408,-896.6214"/>
</g>
<!-- C_lm&#45;&gt;1191 -->
<g id="edge59" class="edge">
<title>C_lm&#45;&gt;1191</title>
<path fill="none" stroke="#ff0000" stroke-width=".3142" d="M2281.2885,-964.5016C2358.4808,-958.2087 2648.9449,-932.8443 2678.5311,-905.2418 2715.1975,-871.0338 2702.5311,-845.1415 2702.5311,-794.9956 2702.5311,-794.9956 2702.5311,-794.9956 2702.5311,-624.0006 2702.5311,-576.6688 2707.1629,-522.1479 2710.6713,-487.64"/>
<polygon fill="#ff0000" stroke="#ff0000" stroke-width=".3142" points="2714.1618,-487.9123 2711.7176,-477.6033 2707.1995,-487.1864 2714.1618,-487.9123"/>
</g>
<!-- 4326 -->
<g id="node59" class="node">
<title>4326</title>
<ellipse fill="#ffffff" stroke="#000000" cx="2175.5311" cy="-538.5031" rx="25" ry="25"/>
<text text-anchor="middle" x="2175.5311" y="-536.3031" font-family="Times,serif" font-size="9.00" fill="#000000">4326</text>
</g>
<!-- C_lm&#45;&gt;4326 -->
<g id="edge111" class="edge">
<title>C_lm&#45;&gt;4326</title>
<path fill="none" stroke="#ff0000" stroke-width=".733" d="M2255.2439,-956.9859C2236.2217,-932.5394 2186.5311,-862.2431 2186.5311,-794.9956 2186.5311,-794.9956 2186.5311,-794.9956 2186.5311,-709.4981 2186.5311,-662.3196 2182.3094,-607.97 2179.0968,-573.4409"/>
<polygon fill="#ff0000" stroke="#ff0000" stroke-width=".733" points="2182.572,-573.0136 2178.1379,-563.3912 2175.6036,-573.6785 2182.572,-573.0136"/>
</g>
<!-- D_agent -->
<g id="node7" class="node">
<title>D_agent</title>
<polygon fill="#d3d3d3" stroke="#000000" points="1546.0311,-547.5031 1499.0311,-547.5031 1499.0311,-529.5031 1546.0311,-529.5031 1546.0311,-547.5031"/>
<text text-anchor="middle" x="1522.5311" y="-536.3031" font-family="Times,serif" font-size="9.00" fill="#000000">D_agent</text>
</g>
<!-- D_agent&#45;&gt;none -->
<g id="edge43" class="edge">
<title>D_agent&#45;&gt;none</title>
<path fill="none" stroke="#00ff00" stroke-width=".287" stroke-dasharray="1,5" d="M1512.9392,-529.2839C1506.7486,-523.8787 1498.2473,-517.4131 1489.5311,-513.7544 1391.6985,-472.6879 1345.5427,-530.5894 1253.5311,-477.7544 1229.003,-463.6699 1231.6317,-449.9909 1213.5311,-428.2569 1172.4766,-378.9614 1175.6453,-349.8098 1119.5311,-318.7178 1056.4805,-283.7825 837.7853,-265.8706 752.7377,-260.0984"/>
<polygon fill="#00ff00" stroke="#00ff00" stroke-width=".287" points="752.7913,-256.5943 742.5814,-259.424 752.3275,-263.5789 752.7913,-256.5943"/>
</g>
<!-- D_agent&#45;&gt;left -->
<g id="edge13" class="edge">
<title>D_agent&#45;&gt;left</title>
<path fill="none" stroke="#ff0000" stroke-width=".2053" d="M1532.1315,-529.3041C1538.3253,-523.9065 1546.827,-517.4418 1555.5311,-513.7544 1649.1844,-474.0788 1681.1492,-494.1422 1781.5311,-477.7544 1822.5198,-471.0628 1869.8532,-463.1078 1899.7334,-458.0579"/>
<polygon fill="#ff0000" stroke="#ff0000" stroke-width=".2053" points="1900.6321,-461.4557 1909.9081,-456.3366 1899.4644,-454.5537 1900.6321,-461.4557"/>
</g>
<!-- D_agent&#45;&gt;forward -->
<g id="edge49" class="edge">
<title>D_agent&#45;&gt;forward</title>
<path fill="none" stroke="#00ff00" stroke-width=".1128" stroke-dasharray="1,5" d="M1532.5216,-529.2976C1538.728,-524.0358 1547.1062,-517.7157 1555.5311,-513.7544 1617.575,-484.5824 1645.9707,-511.7103 1705.5311,-477.7544 1732.1528,-462.5772 1726.8663,-443.3583 1753.5311,-428.2569 1840.6499,-378.9179 1959.5831,-362.9774 2022.1178,-357.8671"/>
<polygon fill="#00ff00" stroke="#00ff00" stroke-width=".1128" points="2022.6824,-361.3343 2032.3875,-357.0846 2022.1505,-354.3546 2022.6824,-361.3343"/>
</g>
<!-- D_agent&#45;&gt;backward -->
<g id="edge50" class="edge">
<title>D_agent&#45;&gt;backward</title>
<path fill="none" stroke="#ff0000" stroke-width=".2602" d="M1513.242,-529.4734C1507.0383,-523.9978 1498.413,-517.3873 1489.5311,-513.7544 1377.8875,-468.09 1326.7152,-534.9773 1220.5311,-477.7544 1194.8782,-463.93 1199.1427,-447.8049 1177.5311,-428.2569 1157.8702,-410.4735 1133.7658,-393.2333 1113.8195,-380.0007"/>
<polygon fill="#ff0000" stroke="#ff0000" stroke-width=".2602" points="1115.5491,-376.9497 1105.2655,-374.4007 1111.715,-382.8063 1115.5491,-376.9497"/>
</g>
<!-- D_agent&#45;&gt;clockwise -->
<g id="edge38" class="edge">
<title>D_agent&#45;&gt;clockwise</title>
<path fill="none" stroke="#00ff00" stroke-width=".2071" stroke-dasharray="1,5" d="M1532.1727,-529.3994C1538.3821,-524.0378 1546.8856,-517.5773 1555.5311,-513.7544 1633.3374,-479.3494 1661.0457,-498.5796 1743.5311,-477.7544 1814.4686,-459.8447 1828.7426,-442.3746 1900.5311,-428.2569 2090.0103,-390.9946 2145.5779,-436.5794 2333.5311,-392.2569 2350.1679,-388.3337 2367.7516,-381.9157 2383.0401,-375.5309"/>
<polygon fill="#00ff00" stroke="#00ff00" stroke-width=".2071" points="2384.4266,-378.7446 2392.2338,-371.5823 2381.6641,-372.3127 2384.4266,-378.7446"/>
</g>
<!-- 3509 -->
<g id="node40" class="node">
<title>3509</title>
<ellipse fill="#ffffff" stroke="#000000" cx="1143.5311" cy="-453.0057" rx="25" ry="25"/>
<text text-anchor="middle" x="1143.5311" y="-450.8057" font-family="Times,serif" font-size="9.00" fill="#000000">3509</text>
</g>
<!-- D_agent&#45;&gt;3509 -->
<g id="edge102" class="edge">
<title>D_agent&#45;&gt;3509</title>
<path fill="none" stroke="#00ff00" stroke-width=".1689" d="M1513.262,-529.424C1507.0662,-523.9287 1498.4424,-517.3147 1489.5311,-513.7544 1361.957,-462.7844 1311.9958,-523.7105 1182.5311,-477.7544 1178.9982,-476.5003 1175.455,-474.8789 1172.0231,-473.0662"/>
<polygon fill="#00ff00" stroke="#00ff00" stroke-width=".1689" points="1173.6791,-469.9799 1163.2821,-467.9418 1170.1388,-476.0187 1173.6791,-469.9799"/>
</g>
<!-- D_lm -->
<g id="node8" class="node">
<title>D_lm</title>
<polygon fill="#d3d3d3" stroke="#000000" points="2061.0311,-1060.488 2024.0311,-1060.488 2024.0311,-1042.488 2061.0311,-1042.488 2061.0311,-1060.488"/>
<text text-anchor="middle" x="2042.5311" y="-1049.288" font-family="Times,serif" font-size="9.00" fill="#000000">D_lm</text>
</g>
<!-- D_lm&#45;&gt;left -->
<g id="edge30" class="edge">
<title>D_lm&#45;&gt;left</title>
<path fill="none" stroke="#00ff00" stroke-width=".1268" d="M2030.1613,-1042.3066C1990.7232,-1011.8783 1870.5311,-909.7323 1870.5311,-794.9956 1870.5311,-794.9956 1870.5311,-794.9956 1870.5311,-709.4981 1870.5311,-622.3636 1850.6387,-595.2288 1881.5311,-513.7544 1887.2065,-498.7862 1897.9896,-484.5974 1907.8998,-473.7023"/>
<polygon fill="#00ff00" stroke="#00ff00" stroke-width=".1268" points="1910.5075,-476.0393 1914.8762,-466.3871 1905.4418,-471.2083 1910.5075,-476.0393"/>
</g>
<!-- D_lm&#45;&gt;forward -->
<g id="edge5" class="edge">
<title>D_lm&#45;&gt;forward</title>
<path fill="none" stroke="#ff0000" stroke-width=".2812" d="M2043.4441,-1042.1718C2050.2452,-972.7021 2092.8196,-536.585 2095.5311,-477.7544 2096.544,-455.7789 2099.9309,-449.8113 2095.5311,-428.2569 2093.1095,-416.3936 2088.6786,-404.0699 2083.9097,-393.0102"/>
<polygon fill="#ff0000" stroke="#ff0000" stroke-width=".2812" points="2086.9885,-391.3245 2079.6739,-383.6598 2080.6123,-394.213 2086.9885,-391.3245"/>
</g>
<!-- D_lm&#45;&gt;backward -->
<g id="edge140" class="edge">
<title>D_lm&#45;&gt;backward</title>
<path fill="none" stroke="#00ff00" stroke-width=".3247" stroke-dasharray="1,5" d="M2023.9157,-1051.282C1940.8922,-1050.08 1596.3366,-1042.0864 1319.5311,-990.7392 1185.7339,-965.92 1124.7019,-998.4235 1025.5311,-905.2418 945.7569,-830.2853 842.0598,-519.5018 902.5311,-428.2569 930.3546,-386.2742 987.74,-368.4476 1028.5681,-360.9195"/>
<polygon fill="#00ff00" stroke="#00ff00" stroke-width=".3247" points="1029.2919,-364.3467 1038.5633,-359.219 1028.1179,-357.4459 1029.2919,-364.3467"/>
</g>
<!-- D_lm&#45;&gt;1191 -->
<g id="edge67" class="edge">
<title>D_lm&#45;&gt;1191</title>
<path fill="none" stroke="#00ff00" stroke-width=".1907" stroke-dasharray="1,5" d="M2050.0831,-1042.2722C2055.0369,-1036.8684 2061.9793,-1030.403 2069.5311,-1026.7392 2159.0671,-983.3006 2192.4801,-1007.7569 2290.5311,-990.7392 2509.6106,-952.7159 2778.5311,-1102.8478 2778.5311,-880.493 2778.5311,-880.493 2778.5311,-880.493 2778.5311,-794.9956 2778.5311,-680.2233 2743.2743,-547.4251 2725.0971,-486.586"/>
<polygon fill="#00ff00" stroke="#00ff00" stroke-width=".1907" points="2728.3719,-485.3236 2722.1241,-476.767 2721.6723,-487.3522 2728.3719,-485.3236"/>
</g>
<!-- 2879 -->
<g id="node43" class="node">
<title>2879</title>
<ellipse fill="#ffffff" stroke="#000000" cx="2095.5311" cy="-965.9905" rx="25" ry="25"/>
<text text-anchor="middle" x="2095.5311" y="-963.7905" font-family="Times,serif" font-size="9.00" fill="#000000">2879</text>
</g>
<!-- D_lm&#45;&gt;2879 -->
<g id="edge88" class="edge">
<title>D_lm&#45;&gt;2879</title>
<path fill="none" stroke="#00ff00" stroke-width=".3065" d="M2048.203,-1042.3383C2055.0526,-1031.2887 2066.9176,-1012.1487 2077.0536,-995.7977"/>
<polygon fill="#00ff00" stroke="#00ff00" stroke-width=".3065" points="2080.1699,-997.4134 2082.464,-987.0699 2074.2203,-993.7252 2080.1699,-997.4134"/>
</g>
<!-- E_agent -->
<g id="node9" class="node">
<title>E_agent</title>
<polygon fill="#d3d3d3" stroke="#000000" points="1610.5311,-547.5031 1564.5311,-547.5031 1564.5311,-529.5031 1610.5311,-529.5031 1610.5311,-547.5031"/>
<text text-anchor="middle" x="1587.5311" y="-536.3031" font-family="Times,serif" font-size="9.00" fill="#000000">E_agent</text>
</g>
<!-- E_agent&#45;&gt;left -->
<g id="edge39" class="edge">
<title>E_agent&#45;&gt;left</title>
<path fill="none" stroke="#ff0000" stroke-width=".3588" d="M1610.6001,-529.986C1625.3114,-524.7808 1644.8647,-518.2775 1662.5311,-513.7544 1747.9084,-491.8952 1772.2904,-500.1403 1857.5311,-477.7544 1872.2011,-473.9018 1888.186,-468.5304 1901.3595,-463.7759"/>
<polygon fill="#ff0000" stroke="#ff0000" stroke-width=".3588" points="1902.6409,-467.0339 1910.817,-460.2958 1900.2235,-460.4646 1902.6409,-467.0339"/>
</g>
<!-- E_agent&#45;&gt;forward -->
<g id="edge23" class="edge">
<title>E_agent&#45;&gt;forward</title>
<path fill="none" stroke="#00ff00" stroke-width=".3442" d="M1598.5125,-529.4122C1605.5389,-524.0553 1615.0807,-517.5954 1624.5311,-513.7544 1706.1762,-480.5703 1741.8389,-519.3601 1819.5311,-477.7544 1846.5455,-463.2877 1841.8532,-444.9813 1867.5311,-428.2569 1916.6413,-396.2707 1981.75,-375.7624 2023.4028,-364.9291"/>
<polygon fill="#00ff00" stroke="#00ff00" stroke-width=".3442" points="2024.3712,-368.2944 2033.2054,-362.4457 2022.6521,-361.5088 2024.3712,-368.2944"/>
</g>
<!-- E_agent&#45;&gt;counterclockwise -->
<g id="edge44" class="edge">
<title>E_agent&#45;&gt;counterclockwise</title>
<path fill="none" stroke="#ff0000" stroke-width=".4756" stroke-dasharray="1,5" d="M1598.5435,-529.3328C1604.388,-524.5632 1611.7465,-518.7101 1618.5311,-513.7544 1706.4551,-449.5308 1805.5311,-464.3694 1805.5311,-355.4874 1805.5311,-355.4874 1805.5311,-355.4874 1805.5311,-257.9691 1805.5311,-204.1275 1778.3474,-148.7667 1753.6948,-109.6309"/>
<polygon fill="#ff0000" stroke="#ff0000" stroke-width=".4756" points="1756.5162,-107.5478 1748.1576,-101.0375 1750.6319,-111.3394 1756.5162,-107.5478"/>
</g>
<!-- 3018 -->
<g id="node48" class="node">
<title>3018</title>
<ellipse fill="#ffffff" stroke="#000000" cx="1287.5311" cy="-453.0057" rx="25" ry="25"/>
<text text-anchor="middle" x="1287.5311" y="-450.8057" font-family="Times,serif" font-size="9.00" fill="#000000">3018</text>
</g>
<!-- E_agent&#45;&gt;3018 -->
<g id="edge93" class="edge">
<title>E_agent&#45;&gt;3018</title>
<path fill="none" stroke="#00ff00" stroke-width=".2255" stroke-dasharray="1,5" d="M1577.9325,-529.2999C1571.7393,-523.9008 1563.2377,-517.4359 1554.5311,-513.7544 1460.0422,-473.8008 1422.5062,-513.9928 1326.5311,-477.7544 1323.2044,-476.4983 1319.86,-474.9348 1316.6039,-473.208"/>
<polygon fill="#00ff00" stroke="#00ff00" stroke-width=".2255" points="1318.148,-470.0565 1307.749,-468.0292 1314.614,-476.099 1318.148,-470.0565"/>
</g>
<!-- E_lm -->
<g id="node10" class="node">
<title>E_lm</title>
<polygon fill="#d3d3d3" stroke="#000000" points="2557.5311,-462.0057 2521.5311,-462.0057 2521.5311,-444.0057 2557.5311,-444.0057 2557.5311,-462.0057"/>
<text text-anchor="middle" x="2539.5311" y="-450.8057" font-family="Times,serif" font-size="9.00" fill="#000000">E_lm</text>
</g>
<!-- E_lm&#45;&gt;counterclockwise -->
<g id="edge26" class="edge">
<title>E_lm&#45;&gt;counterclockwise</title>
<path fill="none" stroke="#00ff00" stroke-width=".2254" d="M2537.0433,-443.8614C2524.8915,-401.171 2467.3982,-220.4946 2346.5311,-147.7229 2252.0673,-90.848 1922.8882,-66.8989 1780.7372,-59.0447"/>
<polygon fill="#00ff00" stroke="#00ff00" stroke-width=".2254" points="1780.5982,-55.5321 1770.4232,-58.485 1780.2188,-62.5218 1780.5982,-55.5321"/>
</g>
<!-- E_lm&#45;&gt;clockwise -->
<g id="edge9" class="edge">
<title>E_lm&#45;&gt;clockwise</title>
<path fill="none" stroke="#ff0000" stroke-width="4.745" d="M2528.6003,-443.6552C2513.2792,-430.5491 2484.6944,-406.0971 2461.5075,-386.2624"/>
<polygon fill="#ff0000" stroke="#ff0000" stroke-width="4.745" points="2464.1759,-383.0813 2453.878,-379.736 2458.7781,-389.3914 2464.1759,-383.0813"/>
</g>
<!-- F_agent -->
<g id="node11" class="node">
<title>F_agent</title>
<polygon fill="#d3d3d3" stroke="#000000" points="1374.0311,-974.9905 1329.0311,-974.9905 1329.0311,-956.9905 1374.0311,-956.9905 1374.0311,-974.9905"/>
<text text-anchor="middle" x="1351.5311" y="-963.7905" font-family="Times,serif" font-size="9.00" fill="#000000">F_agent</text>
</g>
<!-- F_agent&#45;&gt;none -->
<g id="edge19" class="edge">
<title>F_agent&#45;&gt;none</title>
<path fill="none" stroke="#ff0000" stroke-width=".2423" stroke-dasharray="1,5" d="M1345.9333,-956.9822C1338.6151,-945.1639 1325.4437,-923.7514 1314.5311,-905.2418 1305.7612,-890.3666 1250.4251,-781.7327 1237.5311,-770.2468 1231.1049,-764.5225 959.872,-653.2409 952.5311,-648.7494 851.326,-586.8266 804.7658,-581.6826 747.5311,-477.7544 715.0448,-418.7649 713.4189,-337.7388 715.6442,-292.3568"/>
<polygon fill="#ff0000" stroke="#ff0000" stroke-width=".2423" points="719.1507,-292.3462 716.2398,-282.1591 712.1626,-291.938 719.1507,-292.3462"/>
</g>
<!-- F_agent&#45;&gt;left -->
<g id="edge2" class="edge">
<title>F_agent&#45;&gt;left</title>
<path fill="none" stroke="#ff0000" stroke-width=".6391" stroke-dasharray="1,5" d="M1374.5029,-964.7344C1444.1001,-960.5199 1651.0726,-944.8555 1703.5311,-905.2418 1746.9168,-872.4793 1756.5311,-849.3619 1756.5311,-794.9956 1756.5311,-794.9956 1756.5311,-794.9956 1756.5311,-709.4981 1756.5311,-613.371 1787.8382,-588.2982 1848.5311,-513.7544 1856.9798,-503.3776 1884.0288,-483.8567 1904.5657,-469.7385"/>
<polygon fill="#ff0000" stroke="#ff0000" stroke-width=".6391" points="1906.6034,-472.5853 1912.8953,-464.061 1902.6609,-466.8011 1906.6034,-472.5853"/>
</g>
<!-- F_agent&#45;&gt;forward -->
<g id="edge11" class="edge">
<title>F_agent&#45;&gt;forward</title>
<path fill="none" stroke="#ff0000" stroke-width=".1742" stroke-dasharray="1,5" d="M1374.3679,-964.6479C1485.2893,-957.5188 1962.5311,-919.6052 1962.5311,-794.9956 1962.5311,-794.9956 1962.5311,-794.9956 1962.5311,-709.4981 1962.5311,-629.9972 2035.4563,-636.8446 2065.5311,-563.2519 2088.3497,-507.415 2085.6515,-488.2652 2079.5311,-428.2569 2078.4709,-417.8625 2076.58,-406.7606 2074.4901,-396.4396"/>
<polygon fill="#ff0000" stroke="#ff0000" stroke-width=".1742" points="2077.8652,-395.4845 2072.3573,-386.434 2071.019,-396.9439 2077.8652,-395.4845"/>
</g>
<!-- F_agent&#45;&gt;backward -->
<g id="edge4" class="edge">
<title>F_agent&#45;&gt;backward</title>
<path fill="none" stroke="#00ff00" stroke-width=".3812" stroke-dasharray="1,5" d="M1349.6015,-956.9345C1342.9635,-927.4351 1318.7758,-832.4312 1270.5311,-770.2468 1231.7093,-720.2079 1209.9994,-718.6929 1156.5311,-684.7494 1059.261,-622.9989 986.9158,-661.9841 927.5311,-563.2519 896.6068,-511.8377 895.8868,-479.2311 927.5311,-428.2569 949.5396,-392.8044 994.5165,-374.0956 1028.9564,-364.578"/>
<polygon fill="#00ff00" stroke="#00ff00" stroke-width=".3812" points="1030.0142,-367.9195 1038.8151,-362.0209 1028.2567,-361.1437 1030.0142,-367.9195"/>
</g>
<!-- 5015 -->
<g id="node30" class="node">
<title>5015</title>
<ellipse fill="#ffffff" stroke="#000000" cx="1623.5311" cy="-709.4981" rx="25" ry="25"/>
<text text-anchor="middle" x="1623.5311" y="-707.2981" font-family="Times,serif" font-size="9.00" fill="#000000">5015</text>
</g>
<!-- F_agent&#45;&gt;5015 -->
<g id="edge124" class="edge">
<title>F_agent&#45;&gt;5015</title>
<path fill="none" stroke="#00ff00" stroke-width=".2083" d="M1361.2117,-956.8618C1399.3417,-920.9057 1539.9053,-788.3561 1598.073,-733.5047"/>
<polygon fill="#00ff00" stroke="#00ff00" stroke-width=".2083" points="1600.5186,-736.0093 1605.3928,-726.6022 1595.7162,-730.9165 1600.5186,-736.0093"/>
</g>
<!-- 2083 -->
<g id="node35" class="node">
<title>2083</title>
<ellipse fill="#ffffff" stroke="#000000" cx="1669.5311" cy="-880.493" rx="25" ry="25"/>
<text text-anchor="middle" x="1669.5311" y="-878.293" font-family="Times,serif" font-size="9.00" fill="#000000">2083</text>
</g>
<!-- F_agent&#45;&gt;2083 -->
<g id="edge72" class="edge">
<title>F_agent&#45;&gt;2083</title>
<path fill="none" stroke="#00ff00" stroke-width=".1753" d="M1374.1689,-962.6318C1420.8119,-955.3245 1530.6193,-936.1175 1618.5311,-905.2418 1625.1442,-902.9192 1632.0249,-899.9735 1638.5124,-896.9311"/>
<polygon fill="#00ff00" stroke="#00ff00" stroke-width=".1753" points="1640.2084,-899.998 1647.6593,-892.4658 1637.1375,-893.7076 1640.2084,-899.998"/>
</g>
<!-- 4947 -->
<g id="node51" class="node">
<title>4947</title>
<ellipse fill="#ffffff" stroke="#000000" cx="1165.5311" cy="-880.493" rx="25" ry="25"/>
<text text-anchor="middle" x="1165.5311" y="-878.293" font-family="Times,serif" font-size="9.00" fill="#000000">4947</text>
</g>
<!-- F_agent&#45;&gt;4947 -->
<g id="edge120" class="edge">
<title>F_agent&#45;&gt;4947</title>
<path fill="none" stroke="#00ff00" stroke-width=".4749" d="M1328.8204,-958.0052C1299.461,-947.3684 1247.057,-927.3094 1204.5311,-905.2418 1201.3748,-903.6039 1198.1418,-901.7909 1194.9533,-899.9125"/>
<polygon fill="#00ff00" stroke="#00ff00" stroke-width=".4749" points="1196.5408,-896.7804 1186.1862,-894.537 1192.8818,-902.748 1196.5408,-896.7804"/>
</g>
<!-- 3159 -->
<g id="node54" class="node">
<title>3159</title>
<ellipse fill="#ffffff" stroke="#000000" cx="1317.5311" cy="-624.0006" rx="25" ry="25"/>
<text text-anchor="middle" x="1317.5311" y="-621.8006" font-family="Times,serif" font-size="9.00" fill="#000000">3159</text>
</g>
<!-- F_agent&#45;&gt;3159 -->
<g id="edge97" class="edge">
<title>F_agent&#45;&gt;3159</title>
<path fill="none" stroke="#ff0000" stroke-width=".1292" stroke-dasharray="1,5" d="M1350.6217,-956.8431C1346.4057,-914.4366 1328.6459,-735.7994 1321.0266,-659.1606"/>
<polygon fill="#ff0000" stroke="#ff0000" stroke-width=".1292" points="1324.4935,-658.653 1320.0213,-649.0483 1317.5279,-659.3456 1324.4935,-658.653"/>
</g>
<!-- 4846 -->
<g id="node64" class="node">
<title>4846</title>
<ellipse fill="#ffffff" stroke="#000000" cx="1203.5311" cy="-794.9956" rx="25" ry="25"/>
<text text-anchor="middle" x="1203.5311" y="-792.7956" font-family="Times,serif" font-size="9.00" fill="#000000">4846</text>
</g>
<!-- F_agent&#45;&gt;4846 -->
<g id="edge117" class="edge">
<title>F_agent&#45;&gt;4846</title>
<path fill="none" stroke="#ff0000" stroke-width=".2399" d="M1328.7454,-958.773C1304.2064,-949.8957 1265.5914,-932.5545 1242.5311,-905.2418 1224.3907,-883.7562 1214.4635,-853.2487 1209.1722,-829.7707"/>
<polygon fill="#ff0000" stroke="#ff0000" stroke-width=".2399" points="1212.5749,-828.9419 1207.1161,-819.8615 1205.7208,-830.3641 1212.5749,-828.9419"/>
</g>
<!-- 1524 -->
<g id="node65" class="node">
<title>1524</title>
<ellipse fill="#ffffff" stroke="#000000" cx="961.5311" cy="-538.5031" rx="25" ry="25"/>
<text text-anchor="middle" x="961.5311" y="-536.3031" font-family="Times,serif" font-size="9.00" fill="#000000">1524</text>
</g>
<!-- F_agent&#45;&gt;1524 -->
<g id="edge63" class="edge">
<title>F_agent&#45;&gt;1524</title>
<path fill="none" stroke="#00ff00" stroke-width=".1839" stroke-dasharray="1,5" d="M1353.2845,-956.7628C1357.9881,-931.177 1370.5311,-857.1238 1370.5311,-794.9956 1370.5311,-794.9956 1370.5311,-794.9956 1370.5311,-709.4981 1370.5311,-659.7774 1387.8715,-633.1859 1351.5311,-599.2519 1294.2225,-545.7381 1074.6115,-588.944 1000.5311,-563.2519 996.9891,-562.0235 993.4402,-560.4184 990.005,-558.6151"/>
<polygon fill="#00ff00" stroke="#00ff00" stroke-width=".1839" points="991.6595,-555.5282 981.2602,-553.5017 988.126,-561.5709 991.6595,-555.5282"/>
</g>
<!-- F_lm -->
<g id="node12" class="node">
<title>F_lm</title>
<polygon fill="#d3d3d3" stroke="#000000" points="1589.5311,-633.0006 1553.5311,-633.0006 1553.5311,-615.0006 1589.5311,-615.0006 1589.5311,-633.0006"/>
<text text-anchor="middle" x="1571.5311" y="-621.8006" font-family="Times,serif" font-size="9.00" fill="#000000">F_lm</text>
</g>
<!-- F_lm&#45;&gt;none -->
<g id="edge6" class="edge">
<title>F_lm&#45;&gt;none</title>
<path fill="none" stroke="#ff0000" stroke-width=".2358" d="M1553.4802,-621.603C1520.1175,-617.1736 1446.5456,-607.4147 1384.5311,-599.2519 1262.3202,-583.1656 1227.8353,-597.8696 1109.5311,-563.2519 1088.0879,-556.9772 945.6518,-490.8243 927.5311,-477.7544 848.0936,-420.4586 773.7524,-330.3883 739.0413,-285.4217"/>
<polygon fill="#ff0000" stroke="#ff0000" stroke-width=".2358" points="741.6904,-283.1242 732.8331,-277.3105 736.1317,-287.3787 741.6904,-283.1242"/>
</g>
<!-- right -->
<g id="node19" class="node">
<title>right</title>
<ellipse fill="#add8e6" stroke="#000000" cx="2033.5311" cy="-538.5031" rx="23.1702" ry="23.1702"/>
<text text-anchor="middle" x="2033.5311" y="-536.3031" font-family="Times,serif" font-size="9.00" fill="#000000">right</text>
</g>
<!-- F_lm&#45;&gt;right -->
<g id="edge3" class="edge">
<title>F_lm&#45;&gt;right</title>
<path fill="none" stroke="#00ff00" stroke-width=".2627" stroke-dasharray="1,5" d="M1589.5397,-620.2745C1615.0502,-615.0819 1663.2088,-605.5944 1704.5311,-599.2519 1835.9581,-579.0793 1878.5225,-613.7384 2001.5311,-563.2519 2003.6427,-562.3852 2005.7339,-561.3397 2007.7759,-560.1748"/>
<polygon fill="#00ff00" stroke="#00ff00" stroke-width=".2627" points="2009.9372,-562.9407 2016.3233,-554.4868 2006.0591,-557.1131 2009.9372,-562.9407"/>
</g>
<!-- F_lm&#45;&gt;forward -->
<g id="edge40" class="edge">
<title>F_lm&#45;&gt;forward</title>
<path fill="none" stroke="#00ff00" stroke-width="2.7467" d="M1577.8904,-614.8212C1593.2907,-593.3541 1634.922,-539.7295 1683.5311,-513.7544 1753.1816,-476.5354 1789.3851,-517.6615 1857.5311,-477.7544 1882.6773,-463.0285 1877.0979,-445.5794 1900.5311,-428.2569 1938.6035,-400.1127 1989.2795,-379.7361 2024.1714,-367.8247"/>
<polygon fill="#00ff00" stroke="#00ff00" stroke-width="2.7467" points="2025.6343,-371.0266 2034.0155,-364.5454 2023.4219,-364.3854 2025.6343,-371.0266"/>
</g>
<!-- F_lm&#45;&gt;backward -->
<g id="edge101" class="edge">
<title>F_lm&#45;&gt;backward</title>
<path fill="none" stroke="#ff0000" stroke-width=".2322" stroke-dasharray="1,5" d="M1553.3017,-618.4663C1536.6904,-613.4309 1511.4734,-605.8063 1489.5311,-599.2519 1307.0188,-544.7334 1195.0224,-628.462 1078.5311,-477.7544 1061.9212,-456.2658 1060.9076,-425.7359 1064.0533,-400.5598"/>
<polygon fill="#ff0000" stroke="#ff0000" stroke-width=".2322" points="1067.5406,-400.9043 1065.5604,-390.4962 1060.6178,-399.8675 1067.5406,-400.9043"/>
</g>
<!-- G_agent -->
<g id="node13" class="node">
<title>G_agent</title>
<polygon fill="#d3d3d3" stroke="#000000" points="707.0311,-974.9905 660.0311,-974.9905 660.0311,-956.9905 707.0311,-956.9905 707.0311,-974.9905"/>
<text text-anchor="middle" x="683.5311" y="-963.7905" font-family="Times,serif" font-size="9.00" fill="#000000">G_agent</text>
</g>
<!-- G_agent&#45;&gt;none -->
<g id="edge45" class="edge">
<title>G_agent&#45;&gt;none</title>
<path fill="none" stroke="#ff0000" stroke-width=".4754" d="M659.7039,-963.1834C560.1392,-950.8049 182.5311,-897.1259 182.5311,-794.9956 182.5311,-794.9956 182.5311,-794.9956 182.5311,-453.0057 182.5311,-391.851 167.1747,-359.7385 212.5311,-318.7178 230.1322,-302.7993 573.7285,-270.8861 684.4583,-260.9754"/>
<polygon fill="#ff0000" stroke="#ff0000" stroke-width=".4754" points="684.7789,-264.4608 694.4284,-260.0863 684.157,-257.4885 684.7789,-264.4608"/>
</g>
<!-- G_agent&#45;&gt;right -->
<g id="edge21" class="edge">
<title>G_agent&#45;&gt;right</title>
<path fill="none" stroke="#ff0000" stroke-width=".904" stroke-dasharray="1,5" d="M707.1244,-962.9921C791.8523,-952.16 1076.6478,-915.1697 1093.5311,-905.2418 1117.4382,-891.1835 1108.2045,-870.7462 1131.5311,-855.7443 1181.9816,-823.2983 1601.0652,-754.4853 1657.5311,-734.2468 1818.255,-676.6404 1856.857,-653.9165 2001.5311,-563.2519 2003.4169,-562.0701 2005.3261,-560.8017 2007.224,-559.4862"/>
<polygon fill="#ff0000" stroke="#ff0000" stroke-width=".904" points="2009.3542,-562.2646 2015.3655,-553.5402 2005.2256,-556.6117 2009.3542,-562.2646"/>
</g>
<!-- G_agent&#45;&gt;backward -->
<g id="edge17" class="edge">
<title>G_agent&#45;&gt;backward</title>
<path fill="none" stroke="#00ff00" stroke-width=".4744" d="M699.3187,-956.8873C735.9323,-934.4617 823.5311,-872.6895 823.5311,-794.9956 823.5311,-794.9956 823.5311,-794.9956 823.5311,-624.0006 823.5311,-535.7758 799.1692,-495.2885 856.5311,-428.2569 879.1684,-401.8035 972.2561,-377.5984 1029.2179,-364.8704"/>
<polygon fill="#00ff00" stroke="#00ff00" stroke-width=".4744" points="1030.0501,-368.2711 1039.0644,-362.7039 1028.5458,-361.4346 1030.0501,-368.2711"/>
</g>
<!-- G_agent&#45;&gt;counterclockwise -->
<g id="edge29" class="edge">
<title>G_agent&#45;&gt;counterclockwise</title>
<path fill="none" stroke="#ff0000" stroke-width=".117" stroke-dasharray="1,5" d="M660.0207,-965.2744C539.9219,-960.9956 .5311,-934.0391 .5311,-794.9956 .5311,-794.9956 .5311,-794.9956 .5311,-257.9691 .5311,-229.4424 -7.9664,-201.0351 124.5311,-147.7229 267.3767,-90.2469 1365.4067,-63.2444 1648.25,-57.1993"/>
<polygon fill="#ff0000" stroke="#ff0000" stroke-width=".117" points="1648.4358,-60.6962 1658.3592,-56.9847 1648.2872,-53.6978 1648.4358,-60.6962"/>
</g>
<!-- 571 -->
<g id="node42" class="node">
<title>571</title>
<ellipse fill="#ffffff" stroke="#000000" cx="525.5311" cy="-880.493" rx="21.4286" ry="21.4286"/>
<text text-anchor="middle" x="525.5311" y="-878.293" font-family="Times,serif" font-size="9.00" fill="#000000">571</text>
</g>
<!-- G_agent&#45;&gt;571 -->
<g id="edge53" class="edge">
<title>G_agent&#45;&gt;571</title>
<path fill="none" stroke="#00ff00" stroke-width=".251" stroke-dasharray="1,5" d="M666.6223,-956.8408C639.5236,-942.177 586.0934,-913.2647 553.3221,-895.5314"/>
<polygon fill="#00ff00" stroke="#00ff00" stroke-width=".251" points="554.7271,-892.3121 544.2665,-890.6312 551.3957,-898.4686 554.7271,-892.3121"/>
</g>
<!-- 3908 -->
<g id="node46" class="node">
<title>3908</title>
<ellipse fill="#ffffff" stroke="#000000" cx="1059.5311" cy="-880.493" rx="25" ry="25"/>
<text text-anchor="middle" x="1059.5311" y="-878.293" font-family="Times,serif" font-size="9.00" fill="#000000">3908</text>
</g>
<!-- G_agent&#45;&gt;3908 -->
<g id="edge105" class="edge">
<title>G_agent&#45;&gt;3908</title>
<path fill="none" stroke="#00ff00" stroke-width=".1699" stroke-dasharray="1,5" d="M707.0516,-960.6423C771.2356,-946.0476 949.6281,-905.4835 1025.1023,-888.3217"/>
<polygon fill="#00ff00" stroke="#00ff00" stroke-width=".1699" points="1026.0714,-891.6908 1035.0464,-886.0605 1024.5193,-884.865 1026.0714,-891.6908"/>
</g>
<!-- G_lm -->
<g id="node14" class="node">
<title>G_lm</title>
<polygon fill="#d3d3d3" stroke="#000000" points="591.0311,-803.9956 554.0311,-803.9956 554.0311,-785.9956 591.0311,-785.9956 591.0311,-803.9956"/>
<text text-anchor="middle" x="572.5311" y="-792.7956" font-family="Times,serif" font-size="9.00" fill="#000000">G_lm</text>
</g>
<!-- G_lm&#45;&gt;none -->
<g id="edge41" class="edge">
<title>G_lm&#45;&gt;none</title>
<path fill="none" stroke="#00ff00" stroke-width=".4598" stroke-dasharray="1,5" d="M553.6906,-787.524C496.6759,-764.5749 327.627,-693.9312 290.5311,-648.7494 258.1555,-609.3168 258.5311,-589.5238 258.5311,-538.5031 258.5311,-538.5031 258.5311,-538.5031 258.5311,-453.0057 258.5311,-388.5103 262.7976,-358.5395 313.5311,-318.7178 370.9781,-273.6265 597.0277,-261.7844 684.0905,-258.8655"/>
<polygon fill="#00ff00" stroke="#00ff00" stroke-width=".4598" points="684.3523,-262.359 694.2368,-258.545 684.1313,-255.3625 684.3523,-262.359"/>
</g>
<!-- G_lm&#45;&gt;right -->
<g id="edge25" class="edge">
<title>G_lm&#45;&gt;right</title>
<path fill="none" stroke="#ff0000" stroke-width=".1461" stroke-dasharray="1,5" d="M591.2303,-793.2055C693.5194,-783.2318 1195.4498,-731.9547 1598.5311,-648.7494 1680.6272,-631.8028 1698.6075,-617.0141 1780.5311,-599.2519 1877.7882,-578.1651 1910.2579,-602.9105 2001.5311,-563.2519 2003.6246,-562.3423 2005.7022,-561.2647 2007.7344,-560.0766"/>
<polygon fill="#ff0000" stroke="#ff0000" stroke-width=".1461" points="2009.9193,-562.8249 2016.26,-554.3369 2006.01,-557.0182 2009.9193,-562.8249"/>
</g>
<!-- G_lm&#45;&gt;backward -->
<g id="edge1" class="edge">
<title>G_lm&#45;&gt;backward</title>
<path fill="none" stroke="#00ff00" stroke-width=".3132" stroke-dasharray="1,5" d="M586.7851,-785.983C617.7877,-765.5939 691.5272,-712.6896 728.5311,-648.7494 778.9635,-561.6056 709.73,-499.8437 780.5311,-428.2569 814.9626,-393.4434 954.8979,-370.7698 1028.6057,-360.9978"/>
<polygon fill="#00ff00" stroke="#00ff00" stroke-width=".3132" points="1029.0837,-364.4652 1038.5488,-359.7046 1028.1808,-357.5237 1029.0837,-364.4652"/>
</g>
<!-- 1078 -->
<g id="node39" class="node">
<title>1078</title>
<ellipse fill="#ffffff" stroke="#000000" cx="510.5311" cy="-709.4981" rx="25" ry="25"/>
<text text-anchor="middle" x="510.5311" y="-707.2981" font-family="Times,serif" font-size="9.00" fill="#000000">1078</text>
</g>
<!-- G_lm&#45;&gt;1078 -->
<g id="edge56" class="edge">
<title>G_lm&#45;&gt;1078</title>
<path fill="none" stroke="#00ff00" stroke-width=".6431" d="M565.896,-785.8458C557.6494,-774.4739 543.1885,-754.5324 531.1137,-737.8814"/>
<polygon fill="#00ff00" stroke="#00ff00" stroke-width=".6431" points="533.7665,-735.5775 525.0624,-729.5367 528.0996,-739.6869 533.7665,-735.5775"/>
</g>
<!-- 2665 -->
<g id="node61" class="node">
<title>2665</title>
<ellipse fill="#ffffff" stroke="#000000" cx="235.5311" cy="-709.4981" rx="25" ry="25"/>
<text text-anchor="middle" x="235.5311" y="-707.2981" font-family="Times,serif" font-size="9.00" fill="#000000">2665</text>
</g>
<!-- G_lm&#45;&gt;2665 -->
<g id="edge85" class="edge">
<title>G_lm&#45;&gt;2665</title>
<path fill="none" stroke="#ff0000" stroke-width=".3413" d="M553.8027,-786.7976C540.7695,-781.3859 522.8669,-774.5287 506.5311,-770.2468 405.5958,-743.79 372.1983,-770.9759 274.5311,-734.2468 271.2027,-732.9951 267.8572,-731.4345 264.6004,-729.7095"/>
<polygon fill="#ff0000" stroke="#ff0000" stroke-width=".3413" points="266.1442,-726.5579 255.7447,-724.5329 262.6116,-732.6011 266.1442,-726.5579"/>
</g>
<!-- H_agent -->
<g id="node15" class="node">
<title>H_agent</title>
<polygon fill="#d3d3d3" stroke="#000000" points="1454.0311,-462.0057 1407.0311,-462.0057 1407.0311,-444.0057 1454.0311,-444.0057 1454.0311,-462.0057"/>
<text text-anchor="middle" x="1430.5311" y="-450.8057" font-family="Times,serif" font-size="9.00" fill="#000000">H_agent</text>
</g>
<!-- H_agent&#45;&gt;none -->
<g id="edge42" class="edge">
<title>H_agent&#45;&gt;none</title>
<path fill="none" stroke="#00ff00" stroke-width=".2763" d="M1428.4475,-443.8114C1422.2322,-418.7412 1401.2757,-349.0443 1354.5311,-318.7178 1303.7848,-285.7952 877.7198,-264.8705 752.8145,-259.4018"/>
<polygon fill="#00ff00" stroke="#00ff00" stroke-width=".2763" points="752.8193,-255.8988 742.6773,-258.9631 752.5166,-262.8922 752.8193,-255.8988"/>
</g>
<!-- H_agent&#45;&gt;backward -->
<g id="edge46" class="edge">
<title>H_agent&#45;&gt;backward</title>
<path fill="none" stroke="#ff0000" stroke-width=".6284" stroke-dasharray="1,5" d="M1418.8242,-443.8255C1411.6056,-438.5727 1401.9536,-432.2531 1392.5311,-428.2569 1300.418,-389.1906 1183.9963,-369.388 1120.6841,-360.8662"/>
<polygon fill="#ff0000" stroke="#ff0000" stroke-width=".6284" points="1120.9876,-357.3761 1110.6174,-359.5465 1120.0776,-364.3168 1120.9876,-357.3761"/>
</g>
<!-- H_agent&#45;&gt;clockwise -->
<g id="edge31" class="edge">
<title>H_agent&#45;&gt;clockwise</title>
<path fill="none" stroke="#ff0000" stroke-width=".4902" d="M1439.1182,-443.9477C1445.0876,-438.3106 1453.558,-431.5304 1462.5311,-428.2569 1644.5199,-361.8654 2144.0971,-432.7848 2333.5311,-392.2569 2350.246,-388.6809 2367.8471,-382.3405 2383.1278,-375.9208"/>
<polygon fill="#ff0000" stroke="#ff0000" stroke-width=".4902" points="2384.5316,-379.127 2392.3136,-371.9373 2381.7466,-372.7049 2384.5316,-379.127"/>
</g>
<!-- H_lm -->
<g id="node16" class="node">
<title>H_lm</title>
<polygon fill="#d3d3d3" stroke="#000000" points="2399.0311,-718.4981 2362.0311,-718.4981 2362.0311,-700.4981 2399.0311,-700.4981 2399.0311,-718.4981"/>
<text text-anchor="middle" x="2380.5311" y="-707.2981" font-family="Times,serif" font-size="9.00" fill="#000000">H_lm</text>
</g>
<!-- H_lm&#45;&gt;forward -->
<g id="edge15" class="edge">
<title>H_lm&#45;&gt;forward</title>
<path fill="none" stroke="#00ff00" stroke-width=".1026" stroke-dasharray="1,5" d="M2377.3005,-700.4686C2363.3209,-662.5202 2304.5171,-513.9641 2211.5311,-428.2569 2180.6004,-399.7475 2136.4203,-379.9101 2104.58,-368.2293"/>
<polygon fill="#00ff00" stroke="#00ff00" stroke-width=".1026" points="2105.7177,-364.9192 2095.123,-364.8655 2103.3718,-371.5144 2105.7177,-364.9192"/>
</g>
<!-- H_lm&#45;&gt;clockwise -->
<g id="edge10" class="edge">
<title>H_lm&#45;&gt;clockwise</title>
<path fill="none" stroke="#ff0000" stroke-width=".1363" d="M2399.2839,-701.0707C2419.0642,-691.2495 2449.7752,-673.193 2467.5311,-648.7494 2490.8733,-616.6154 2487.6898,-602.537 2493.5311,-563.2519 2496.7665,-541.4922 2497.9642,-535.302 2493.5311,-513.7544 2492.2828,-507.6868 2464.1573,-443.1578 2444.4738,-398.3958"/>
<polygon fill="#ff0000" stroke="#ff0000" stroke-width=".1363" points="2447.6462,-396.9151 2440.4144,-389.1723 2441.2393,-399.7349 2447.6462,-396.9151"/>
</g>
<!-- 5849 -->
<g id="node56" class="node">
<title>5849</title>
<ellipse fill="#ffffff" stroke="#000000" cx="2433.5311" cy="-624.0006" rx="25" ry="25"/>
<text text-anchor="middle" x="2433.5311" y="-621.8006" font-family="Times,serif" font-size="9.00" fill="#000000">5849</text>
</g>
<!-- H_lm&#45;&gt;5849 -->
<g id="edge144" class="edge">
<title>H_lm&#45;&gt;5849</title>
<path fill="none" stroke="#00ff00" stroke-width=".1258" d="M2386.203,-700.3484C2393.0526,-689.2988 2404.9176,-670.1588 2415.0536,-653.8078"/>
<polygon fill="#00ff00" stroke="#00ff00" stroke-width=".1258" points="2418.1699,-655.4235 2420.464,-645.08 2412.2203,-651.7353 2418.1699,-655.4235"/>
</g>
<!-- 2024 -->
<g id="node60" class="node">
<title>2024</title>
<ellipse fill="#ffffff" stroke="#000000" cx="2364.5311" cy="-453.0057" rx="25" ry="25"/>
<text text-anchor="middle" x="2364.5311" y="-450.8057" font-family="Times,serif" font-size="9.00" fill="#000000">2024</text>
</g>
<!-- H_lm&#45;&gt;2024 -->
<g id="edge69" class="edge">
<title>H_lm&#45;&gt;2024</title>
<path fill="none" stroke="#ff0000" stroke-width=".5242" stroke-dasharray="1,5" d="M2378.9151,-700.2988C2374.966,-677.2942 2364.9027,-615.3738 2361.5311,-563.2519 2360.111,-541.2989 2360.9884,-535.7466 2361.5311,-513.7544 2361.7362,-505.4413 2362.099,-496.4942 2362.5031,-488.0897"/>
<polygon fill="#ff0000" stroke="#ff0000" stroke-width=".5242" points="2366.0128,-487.9887 2363.0282,-477.8229 2359.0219,-487.631 2366.0128,-487.9887"/>
</g>
<!-- 4987 -->
<g id="node68" class="node">
<title>4987</title>
<ellipse fill="#ffffff" stroke="#000000" cx="2395.5311" cy="-538.5031" rx="25" ry="25"/>
<text text-anchor="middle" x="2395.5311" y="-536.3031" font-family="Times,serif" font-size="9.00" fill="#000000">4987</text>
</g>
<!-- H_lm&#45;&gt;4987 -->
<g id="edge122" class="edge">
<title>H_lm&#45;&gt;4987</title>
<path fill="none" stroke="#ff0000" stroke-width=".1273" stroke-dasharray="1,5" d="M2381.3376,-700.3047C2383.3988,-676.8069 2388.9451,-613.5814 2392.4629,-573.4793"/>
<polygon fill="#ff0000" stroke="#ff0000" stroke-width=".1273" points="2395.9661,-573.5949 2393.3535,-563.3273 2388.9929,-572.9831 2395.9661,-573.5949"/>
</g>
<!-- no_stimuli -->
<g id="node17" class="node">
<title>no_stimuli</title>
<polygon fill="#d3d3d3" stroke="#000000" points="129.0311,-633.0006 74.0311,-633.0006 74.0311,-615.0006 129.0311,-615.0006 129.0311,-633.0006"/>
<text text-anchor="middle" x="101.5311" y="-621.8006" font-family="Times,serif" font-size="9.00" fill="#000000">no_stimuli</text>
</g>
<!-- no_stimuli&#45;&gt;counterclockwise -->
<g id="edge18" class="edge">
<title>no_stimuli&#45;&gt;counterclockwise</title>
<path fill="none" stroke="#00ff00" stroke-width=".6524" stroke-dasharray="1,5" d="M95.4904,-614.8028C79.722,-589.8764 38.5311,-518.4951 38.5311,-453.0057 38.5311,-453.0057 38.5311,-453.0057 38.5311,-257.9691 38.5311,-92.88 1336.8387,-61.832 1648.0688,-56.7609"/>
<polygon fill="#00ff00" stroke="#00ff00" stroke-width=".6524" points="1648.3454,-60.257 1658.2883,-56.598 1648.2338,-53.2579 1648.3454,-60.257"/>
</g>
<!-- 2350 -->
<g id="node37" class="node">
<title>2350</title>
<ellipse fill="#ffffff" stroke="#000000" cx="371.5311" cy="-257.9691" rx="25" ry="25"/>
<text text-anchor="middle" x="371.5311" y="-255.7691" font-family="Times,serif" font-size="9.00" fill="#000000">2350</text>
</g>
<!-- no_stimuli&#45;&gt;2350 -->
<g id="edge77" class="edge">
<title>no_stimuli&#45;&gt;2350</title>
<path fill="none" stroke="#ff0000" stroke-width=".4202" stroke-dasharray="1,5" d="M99.594,-614.7637C95.9114,-595.708 88.8392,-550.7235 95.5311,-513.7544 112.0169,-422.6787 100.9171,-381.9232 168.5311,-318.7178 193.0443,-295.8029 285.7101,-274.6972 336.9456,-264.4591"/>
<polygon fill="#ff0000" stroke="#ff0000" stroke-width=".4202" points="337.772,-267.8637 346.9092,-262.5008 336.4219,-260.9952 337.772,-267.8637"/>
</g>
<!-- no_stimuli&#45;&gt;1524 -->
<g id="edge71" class="edge">
<title>no_stimuli&#45;&gt;1524</title>
<path fill="none" stroke="#ff0000" stroke-width=".1171" stroke-dasharray="1,5" d="M129.2059,-620.5475C169.9649,-615.5192 248.5537,-606.0425 315.5311,-599.2519 498.8429,-580.6664 545.1347,-580.9833 728.5311,-563.2519 798.9638,-556.4422 881.258,-547.46 926.7746,-542.4018"/>
<polygon fill="#ff0000" stroke="#ff0000" stroke-width=".1171" points="927.1677,-545.8798 936.7187,-541.2941 926.3926,-538.9228 927.1677,-545.8798"/>
</g>
<!-- 1534 -->
<g id="node69" class="node">
<title>1534</title>
<ellipse fill="#ffffff" stroke="#000000" cx="129.5311" cy="-538.5031" rx="25" ry="25"/>
<text text-anchor="middle" x="129.5311" y="-536.3031" font-family="Times,serif" font-size="9.00" fill="#000000">1534</text>
</g>
<!-- no_stimuli&#45;&gt;1534 -->
<g id="edge64" class="edge">
<title>no_stimuli&#45;&gt;1534</title>
<path fill="none" stroke="#00ff00" stroke-width=".4285" stroke-dasharray="1,5" d="M104.5276,-614.8509C107.8837,-604.603 113.5189,-587.396 118.5908,-571.9091"/>
<polygon fill="#00ff00" stroke="#00ff00" stroke-width=".4285" points="122.0266,-572.6635 121.8128,-562.0708 115.3743,-570.4848 122.0266,-572.6635"/>
</g>
<!-- none&#45;&gt;897 -->
<g id="edge62" class="edge">
<title>none&#45;&gt;897</title>
<path fill="none" stroke="#ff0000" stroke-width=".4173" stroke-dasharray="1,5" d="M742.6205,-255.5025C861.7288,-243.3068 1387.36,-189.4862 1522.0172,-175.6984"/>
<polygon fill="#ff0000" stroke="#ff0000" stroke-width=".4173" points="1522.4897,-179.1684 1532.0812,-174.6679 1521.7767,-172.2048 1522.4897,-179.1684"/>
</g>
<!-- 4291 -->
<g id="node45" class="node">
<title>4291</title>
<ellipse fill="#ffffff" stroke="#000000" cx="2312.5311" cy="-172.4716" rx="25" ry="25"/>
<text text-anchor="middle" x="2312.5311" y="-170.2716" font-family="Times,serif" font-size="9.00" fill="#000000">4291</text>
</g>
<!-- right&#45;&gt;4291 -->
<g id="edge129" class="edge">
<title>right&#45;&gt;4291</title>
<path fill="none" stroke="#ff0000" stroke-width=".4742" stroke-dasharray="1,5" d="M2047.7503,-519.8484C2093.4208,-459.9313 2236.5723,-272.1251 2291.1254,-200.5546"/>
<polygon fill="#ff0000" stroke="#ff0000" stroke-width=".4742" points="2294.048,-202.494 2297.3265,-192.4191 2288.4808,-198.2505 2294.048,-202.494"/>
</g>
<!-- right&#45;&gt;2024 -->
<g id="edge92" class="edge">
<title>right&#45;&gt;2024</title>
<path fill="none" stroke="#ff0000" stroke-width=".2073" d="M2056.3819,-533.2736C2110.1238,-520.9363 2243.322,-490.1264 2287.5311,-477.7544 2301.9701,-473.7136 2317.7605,-468.7379 2331.2627,-464.3102"/>
<polygon fill="#ff0000" stroke="#ff0000" stroke-width=".2073" points="2332.6906,-467.5242 2341.0816,-461.0557 2330.4883,-460.8797 2332.6906,-467.5242"/>
</g>
<!-- clockwise&#45;&gt;4291 -->
<g id="edge110" class="edge">
<title>clockwise&#45;&gt;4291</title>
<path fill="none" stroke="#00ff00" stroke-width=".8243" stroke-dasharray="1,5" d="M2414.6052,-320.2139C2405.7782,-294.7578 2391.8203,-260.2546 2373.5311,-233.2203 2364.0727,-219.2394 2351.0877,-205.7711 2339.5284,-195.084"/>
<polygon fill="#00ff00" stroke="#00ff00" stroke-width=".8243" points="2341.5935,-192.2344 2331.8145,-188.1575 2336.9167,-197.4429 2341.5935,-192.2344"/>
</g>
<!-- 897&#45;&gt;counterclockwise -->
<g id="edge55" class="edge">
<title>897&#45;&gt;counterclockwise</title>
<path fill="none" stroke="#00ff00" stroke-width=".4247" stroke-dasharray="1,5" d="M1570.7609,-159.9923C1592.1326,-144.513 1629.5771,-117.3925 1660.8946,-94.7096"/>
<polygon fill="#00ff00" stroke="#00ff00" stroke-width=".4247" points="1663.082,-97.447 1669.1278,-88.7465 1658.9758,-91.7778 1663.082,-97.447"/>
</g>
<!-- 2432 -->
<g id="node26" class="node">
<title>2432</title>
<ellipse fill="#ffffff" stroke="#000000" cx="961.5311" cy="-453.0057" rx="25" ry="25"/>
<text text-anchor="middle" x="961.5311" y="-450.8057" font-family="Times,serif" font-size="9.00" fill="#000000">2432</text>
</g>
<!-- 2432&#45;&gt;backward -->
<g id="edge79" class="edge">
<title>2432&#45;&gt;backward</title>
<path fill="none" stroke="#00ff00" stroke-width=".8037" d="M980.4448,-436.6833C996.4587,-422.8633 1019.8453,-402.6808 1039.2955,-385.8955"/>
<polygon fill="#00ff00" stroke="#00ff00" stroke-width=".8037" points="1041.7972,-388.3597 1047.0812,-379.1765 1037.2238,-383.0602 1041.7972,-388.3597"/>
</g>
<!-- 2432&#45;&gt;counterclockwise -->
<g id="edge82" class="edge">
<title>2432&#45;&gt;counterclockwise</title>
<path fill="none" stroke="#ff0000" stroke-width="1.1086" stroke-dasharray="1,5" d="M967.9129,-428.8465C976.9378,-399.1011 996.1643,-348.8337 1029.5311,-318.7178 1214.5385,-151.7358 1516.8683,-86.4559 1649.1247,-64.9579"/>
<polygon fill="#ff0000" stroke="#ff0000" stroke-width="1.1086" points="1649.7859,-68.3968 1659.11,-63.3658 1648.6836,-61.4841 1649.7859,-68.3968"/>
</g>
<!-- 5383 -->
<g id="node27" class="node">
<title>5383</title>
<ellipse fill="#ffffff" stroke="#000000" cx="694.5311" cy="-538.5031" rx="25" ry="25"/>
<text text-anchor="middle" x="694.5311" y="-536.3031" font-family="Times,serif" font-size="9.00" fill="#000000">5383</text>
</g>
<!-- 5516 -->
<g id="node28" class="node">
<title>5516</title>
<ellipse fill="#ffffff" stroke="#000000" cx="627.5311" cy="-453.0057" rx="25" ry="25"/>
<text text-anchor="middle" x="627.5311" y="-450.8057" font-family="Times,serif" font-size="9.00" fill="#000000">5516</text>
</g>
<!-- 5383&#45;&gt;5516 -->
<g id="edge135" class="edge">
<title>5383&#45;&gt;5516</title>
<path fill="none" stroke="#00ff00" stroke-width=".7181" d="M678.9915,-518.6734C670.197,-507.4509 659.0579,-493.2364 649.3941,-480.9046"/>
<polygon fill="#00ff00" stroke="#00ff00" stroke-width=".7181" points="651.9094,-478.4401 642.9864,-472.7279 646.3997,-482.7578 651.9094,-478.4401"/>
</g>
<!-- 5383&#45;&gt;2024 -->
<g id="edge143" class="edge">
<title>5383&#45;&gt;2024</title>
<path fill="none" stroke="#ff0000" stroke-width=".4651" stroke-dasharray="1,5" d="M719.3068,-535.2697C761.8201,-529.8564 851.4411,-519.0346 927.5311,-513.7544 1415.0651,-479.9224 1538.5088,-503.6037 2026.5311,-477.7544 2137.1087,-471.8974 2267.7765,-461.2764 2329.2334,-456.0615"/>
<polygon fill="#ff0000" stroke="#ff0000" stroke-width=".4651" points="2329.8691,-459.5201 2339.5354,-455.1828 2329.2741,-452.5454 2329.8691,-459.5201"/>
</g>
<!-- 2548 -->
<g id="node66" class="node">
<title>2548</title>
<ellipse fill="#ffffff" stroke="#000000" cx="627.5311" cy="-355.4874" rx="25" ry="25"/>
<text text-anchor="middle" x="627.5311" y="-353.2874" font-family="Times,serif" font-size="9.00" fill="#000000">2548</text>
</g>
<!-- 5383&#45;&gt;2548 -->
<g id="edge132" class="edge">
<title>5383&#45;&gt;2548</title>
<path fill="none" stroke="#00ff00" stroke-width=".2383" d="M688.4377,-514.5114C682.4532,-491.9499 672.6261,-457.3825 661.5311,-428.2569 656.27,-414.446 649.5376,-399.5981 643.4539,-386.9389"/>
<polygon fill="#00ff00" stroke="#00ff00" stroke-width=".2383" points="646.4949,-385.1899 638.9632,-377.7385 640.2043,-388.2604 646.4949,-385.1899"/>
</g>
<!-- 5516&#45;&gt;2548 -->
<g id="edge136" class="edge">
<title>5516&#45;&gt;2548</title>
<path fill="none" stroke="#00ff00" stroke-width=".1321" stroke-dasharray="1,5" d="M627.5311,-428.1454C627.5311,-416.683 627.5311,-402.8796 627.5311,-390.3968"/>
<polygon fill="#00ff00" stroke="#00ff00" stroke-width=".1321" points="631.0312,-390.3022 627.5311,-380.3023 624.0312,-390.3023 631.0312,-390.3022"/>
</g>
<!-- 5265&#45;&gt;forward -->
<g id="edge128" class="edge">
<title>5265&#45;&gt;forward</title>
<path fill="none" stroke="#00ff00" stroke-width=".4587" stroke-dasharray="1,5" d="M2007.4495,-432.7998C2016.6774,-420.3014 2028.7585,-403.9385 2039.4293,-389.4858"/>
<polygon fill="#00ff00" stroke="#00ff00" stroke-width=".4587" points="2042.3928,-391.3645 2045.5168,-381.2407 2036.7614,-387.2067 2042.3928,-391.3645"/>
</g>
<!-- 5015&#45;&gt;left -->
<g id="edge125" class="edge">
<title>5015&#45;&gt;left</title>
<path fill="none" stroke="#00ff00" stroke-width=".5669" d="M1629.6783,-685.297C1642.0576,-642.1684 1674.4475,-552.8811 1738.5311,-513.7544 1799.6315,-476.4491 1830.3793,-507.4222 1895.5311,-477.7544 1899.1648,-476.0997 1902.7976,-474.0226 1906.2641,-471.779"/>
<polygon fill="#00ff00" stroke="#00ff00" stroke-width=".5669" points="1908.2927,-474.6312 1914.444,-466.005 1904.2559,-468.9125 1908.2927,-474.6312"/>
</g>
<!-- 537 -->
<g id="node31" class="node">
<title>537</title>
<ellipse fill="#ffffff" stroke="#000000" cx="1369.5311" cy="-1051.488" rx="21.4286" ry="21.4286"/>
<text text-anchor="middle" x="1369.5311" y="-1049.288" font-family="Times,serif" font-size="9.00" fill="#000000">537</text>
</g>
<!-- 537&#45;&gt;right -->
<g id="edge52" class="edge">
<title>537&#45;&gt;right</title>
<path fill="none" stroke="#ff0000" stroke-width=".4951" d="M1390.6501,-1049.3751C1487.8841,-1039.2222 1891.3533,-992.3211 1976.5311,-905.2418 2011.5961,-869.394 2000.5311,-845.1415 2000.5311,-794.9956 2000.5311,-794.9956 2000.5311,-794.9956 2000.5311,-709.4981 2000.5311,-660.4522 2013.7817,-604.9036 2023.49,-570.7869"/>
<polygon fill="#ff0000" stroke="#ff0000" stroke-width=".4951" points="2026.9284,-571.4981 2026.3706,-560.918 2020.2088,-569.5367 2026.9284,-571.4981"/>
</g>
<!-- 4685 -->
<g id="node50" class="node">
<title>4685</title>
<ellipse fill="#ffffff" stroke="#000000" cx="914.5311" cy="-965.9905" rx="25" ry="25"/>
<text text-anchor="middle" x="914.5311" y="-963.7905" font-family="Times,serif" font-size="9.00" fill="#000000">4685</text>
</g>
<!-- 537&#45;&gt;4685 -->
<g id="edge114" class="edge">
<title>537&#45;&gt;4685</title>
<path fill="none" stroke="#00ff00" stroke-width=".1126" stroke-dasharray="1,5" d="M1348.1663,-1049.5582C1273.9197,-1042.6678 1027.6079,-1018.2196 953.5311,-990.7392 950.1972,-989.5025 946.848,-987.9516 943.589,-986.2325"/>
<polygon fill="#00ff00" stroke="#00ff00" stroke-width=".1126" points="945.1316,-983.0803 934.7304,-981.0636 941.6037,-989.1264 945.1316,-983.0803"/>
</g>
<!-- 2229 -->
<g id="node38" class="node">
<title>2229</title>
<ellipse fill="#ffffff" stroke="#000000" cx="2434.5311" cy="-794.9956" rx="25" ry="25"/>
<text text-anchor="middle" x="2434.5311" y="-792.7956" font-family="Times,serif" font-size="9.00" fill="#000000">2229</text>
</g>
<!-- 2458&#45;&gt;2229 -->
<g id="edge81" class="edge">
<title>2458&#45;&gt;2229</title>
<path fill="none" stroke="#00ff00" stroke-width=".3118" d="M2119.6394,-874.4128C2178.9175,-859.4626 2331.9265,-820.8729 2400.4569,-803.5892"/>
<polygon fill="#00ff00" stroke="#00ff00" stroke-width=".3118" points="2401.4785,-806.9413 2410.3189,-801.102 2399.7666,-800.1538 2401.4785,-806.9413"/>
</g>
<!-- 4893 -->
<g id="node33" class="node">
<title>4893</title>
<ellipse fill="#ffffff" stroke="#000000" cx="627.5311" cy="-624.0006" rx="25" ry="25"/>
<text text-anchor="middle" x="627.5311" y="-621.8006" font-family="Times,serif" font-size="9.00" fill="#000000">4893</text>
</g>
<!-- 2924 -->
<g id="node63" class="node">
<title>2924</title>
<ellipse fill="#ffffff" stroke="#000000" cx="627.5311" cy="-538.5031" rx="25" ry="25"/>
<text text-anchor="middle" x="627.5311" y="-536.3031" font-family="Times,serif" font-size="9.00" fill="#000000">2924</text>
</g>
<!-- 4893&#45;&gt;2924 -->
<g id="edge118" class="edge">
<title>4893&#45;&gt;2924</title>
<path fill="none" stroke="#ff0000" stroke-width=".2154" d="M627.5311,-598.811C627.5311,-590.8967 627.5311,-582.0107 627.5311,-573.5421"/>
<polygon fill="#ff0000" stroke="#ff0000" stroke-width=".2154" points="631.0312,-573.5127 627.5311,-563.5127 624.0312,-573.5128 631.0312,-573.5127"/>
</g>
<!-- 3232&#45;&gt;897 -->
<g id="edge100" class="edge">
<title>3232&#45;&gt;897</title>
<path fill="none" stroke="#ff0000" stroke-width=".505" stroke-dasharray="1,5" d="M1631.284,-429.0875C1615.8259,-378.0696 1579.6453,-258.6591 1562.6519,-202.574"/>
<polygon fill="#ff0000" stroke="#ff0000" stroke-width=".505" points="1565.9609,-201.4248 1559.7115,-192.8694 1559.2617,-203.4546 1565.9609,-201.4248"/>
</g>
<!-- 2083&#45;&gt;left -->
<g id="edge73" class="edge">
<title>2083&#45;&gt;left</title>
<path fill="none" stroke="#ff0000" stroke-width=".4705" d="M1668.715,-855.5768C1667.9953,-789.2311 1675.7595,-606.9966 1776.5311,-513.7544 1816.1531,-477.0928 1843.8123,-501.0022 1892.5311,-477.7544 1896.7246,-475.7533 1900.9893,-473.327 1905.0604,-470.7856"/>
<polygon fill="#ff0000" stroke="#ff0000" stroke-width=".4705" points="1907.154,-473.5972 1913.5606,-465.1587 1903.2901,-467.7602 1907.154,-473.5972"/>
</g>
<!-- 1191&#45;&gt;counterclockwise -->
<g id="edge60" class="edge">
<title>1191&#45;&gt;counterclockwise</title>
<path fill="none" stroke="#ff0000" stroke-width=".3849" stroke-dasharray="1,5" d="M2720.2259,-428.8729C2732.3118,-370.9334 2753.436,-223.1918 2675.5311,-147.7229 2611.3468,-85.5455 1987.1135,-63.211 1780.5369,-57.4878"/>
<polygon fill="#ff0000" stroke="#ff0000" stroke-width=".3849" points="1780.5283,-53.9864 1770.4365,-57.2121 1780.3372,-60.9838 1780.5283,-53.9864"/>
</g>
<!-- 2350&#45;&gt;counterclockwise -->
<g id="edge78" class="edge">
<title>2350&#45;&gt;counterclockwise</title>
<path fill="none" stroke="#ff0000" stroke-width=".2224" d="M396.0101,-252.8543C476.8545,-236.0834 742.7937,-181.8806 964.5311,-147.7229 1216.3669,-108.9286 1517.8174,-76.1199 1648.6105,-62.5476"/>
<polygon fill="#ff0000" stroke="#ff0000" stroke-width=".2224" points="1649.2701,-65.9981 1658.8568,-61.4875 1648.5497,-59.0353 1649.2701,-65.9981"/>
</g>
<!-- 2229&#45;&gt;counterclockwise -->
<g id="edge75" class="edge">
<title>2229&#45;&gt;counterclockwise</title>
<path fill="none" stroke="#00ff00" stroke-width=".7427" d="M2449.0624,-774.7963C2483.6524,-725.9407 2571.9085,-596.631 2624.5311,-477.7544 2647.5123,-425.8389 2661.5311,-412.262 2661.5311,-355.4874 2661.5311,-355.4874 2661.5311,-355.4874 2661.5311,-257.9691 2661.5311,-206.5608 2666.4437,-180.1234 2626.5311,-147.7229 2561.0684,-94.581 1978.9102,-66.4683 1780.4595,-58.3656"/>
<polygon fill="#00ff00" stroke="#00ff00" stroke-width=".7427" points="1780.5942,-54.8683 1770.4608,-57.9611 1780.3112,-61.8626 1780.5942,-54.8683"/>
</g>
<!-- 2229&#45;&gt;1191 -->
<g id="edge133" class="edge">
<title>2229&#45;&gt;1191</title>
<path fill="none" stroke="#00ff00" stroke-width=".2466" d="M2458.8845,-789.4986C2487.7507,-781.8016 2535.5776,-765.1542 2564.5311,-734.2468 2636.4434,-657.4816 2591.8632,-601.0605 2650.5311,-513.7544 2660.414,-499.0473 2674.431,-485.229 2686.8291,-474.4985"/>
<polygon fill="#00ff00" stroke="#00ff00" stroke-width=".2466" points="2689.2679,-477.0212 2694.6829,-467.9147 2684.7709,-471.6568 2689.2679,-477.0212"/>
</g>
<!-- 3064 -->
<g id="node67" class="node">
<title>3064</title>
<ellipse fill="#ffffff" stroke="#000000" cx="2281.5311" cy="-709.4981" rx="25" ry="25"/>
<text text-anchor="middle" x="2281.5311" y="-707.2981" font-family="Times,serif" font-size="9.00" fill="#000000">3064</text>
</g>
<!-- 2229&#45;&gt;3064 -->
<g id="edge95" class="edge">
<title>2229&#45;&gt;3064</title>
<path fill="none" stroke="#00ff00" stroke-width=".4346" stroke-dasharray="1,5" d="M2412.6099,-782.7459C2386.365,-768.08 2342.2373,-743.4211 2312.5147,-726.8119"/>
<polygon fill="#00ff00" stroke="#00ff00" stroke-width=".4346" points="2313.8485,-723.5479 2303.4116,-721.7251 2310.4338,-729.6585 2313.8485,-723.5479"/>
</g>
<!-- 1078&#45;&gt;none -->
<g id="edge57" class="edge">
<title>1078&#45;&gt;none</title>
<path fill="none" stroke="#ff0000" stroke-width=".2299" stroke-dasharray="1,5" d="M486.112,-705.1544C439.0152,-696.2754 338.2622,-674.6806 315.5311,-648.7494 282.7562,-611.3602 296.5311,-588.2238 296.5311,-538.5031 296.5311,-538.5031 296.5311,-538.5031 296.5311,-453.0057 296.5311,-350.3234 391.504,-362.1874 484.5311,-318.7178 551.8756,-287.2491 638.0351,-270.2466 684.7446,-262.7556"/>
<polygon fill="#ff0000" stroke="#ff0000" stroke-width=".2299" points="685.2968,-266.2119 694.6404,-261.217 684.2213,-259.295 685.2968,-266.2119"/>
</g>
<!-- 2764 -->
<g id="node49" class="node">
<title>2764</title>
<ellipse fill="#ffffff" stroke="#000000" cx="694.5311" cy="-624.0006" rx="25" ry="25"/>
<text text-anchor="middle" x="694.5311" y="-621.8006" font-family="Times,serif" font-size="9.00" fill="#000000">2764</text>
</g>
<!-- 1078&#45;&gt;2764 -->
<g id="edge87" class="edge">
<title>1078&#45;&gt;2764</title>
<path fill="none" stroke="#ff0000" stroke-width=".2564" d="M533.5205,-700.2932C575.4159,-683.5126 660.05,-649.5836 661.5311,-648.7494 663.2626,-647.774 665.0064,-646.7194 666.7396,-645.614"/>
<polygon fill="#ff0000" stroke="#ff0000" stroke-width=".2564" points="668.9479,-648.3434 675.2103,-639.7974 664.9854,-642.5729 668.9479,-648.3434"/>
</g>
<!-- 2262 -->
<g id="node53" class="node">
<title>2262</title>
<ellipse fill="#ffffff" stroke="#000000" cx="416.5311" cy="-624.0006" rx="25" ry="25"/>
<text text-anchor="middle" x="416.5311" y="-621.8006" font-family="Times,serif" font-size="9.00" fill="#000000">2262</text>
</g>
<!-- 1078&#45;&gt;2262 -->
<g id="edge76" class="edge">
<title>1078&#45;&gt;2262</title>
<path fill="none" stroke="#00ff00" stroke-width=".2013" d="M491.9597,-692.6065C477.9264,-679.8426 458.4769,-662.1523 442.8428,-647.9324"/>
<polygon fill="#00ff00" stroke="#00ff00" stroke-width=".2013" points="444.8166,-644.9965 435.0639,-640.8571 440.1066,-650.1749 444.8166,-644.9965"/>
</g>
<!-- 5594 -->
<g id="node57" class="node">
<title>5594</title>
<ellipse fill="#ffffff" stroke="#000000" cx="483.5311" cy="-624.0006" rx="25" ry="25"/>
<text text-anchor="middle" x="483.5311" y="-621.8006" font-family="Times,serif" font-size="9.00" fill="#000000">5594</text>
</g>
<!-- 1078&#45;&gt;5594 -->
<g id="edge138" class="edge">
<title>1078&#45;&gt;5594</title>
<path fill="none" stroke="#ff0000" stroke-width=".2238" d="M503.0101,-685.6823C500.2307,-676.8811 497.0276,-666.7382 494.0319,-657.2523"/>
<polygon fill="#ff0000" stroke="#ff0000" stroke-width=".2238" points="497.3608,-656.1705 491.0118,-647.6887 490.6857,-658.2785 497.3608,-656.1705"/>
</g>
<!-- 2156 -->
<g id="node62" class="node">
<title>2156</title>
<ellipse fill="#ffffff" stroke="#000000" cx="349.5311" cy="-624.0006" rx="25" ry="25"/>
<text text-anchor="middle" x="349.5311" y="-621.8006" font-family="Times,serif" font-size="9.00" fill="#000000">2156</text>
</g>
<!-- 1078&#45;&gt;2156 -->
<g id="edge74" class="edge">
<title>1078&#45;&gt;2156</title>
<path fill="none" stroke="#ff0000" stroke-width=".1986" d="M487.154,-700.0794C460.9277,-689.1347 417.4841,-669.8583 382.5311,-648.7494 380.83,-647.722 379.1099,-646.6266 377.395,-645.4899"/>
<polygon fill="#ff0000" stroke="#ff0000" stroke-width=".1986" points="379.1721,-642.4614 368.9747,-639.5871 375.1539,-648.1933 379.1721,-642.4614"/>
</g>
<!-- 1078&#45;&gt;2548 -->
<g id="edge83" class="edge">
<title>1078&#45;&gt;2548</title>
<path fill="none" stroke="#ff0000" stroke-width=".3326" stroke-dasharray="1,5" d="M514.9829,-685.1325C524.5042,-635.5285 549.0746,-519.7678 586.5311,-428.2569 592.5425,-413.5702 600.907,-398.1419 608.5141,-385.29"/>
<polygon fill="#ff0000" stroke="#ff0000" stroke-width=".3326" points="611.6902,-386.8017 613.8749,-376.4345 605.702,-383.1766 611.6902,-386.8017"/>
</g>
<!-- 3509&#45;&gt;backward -->
<g id="edge103" class="edge">
<title>3509&#45;&gt;backward</title>
<path fill="none" stroke="#00ff00" stroke-width=".438" d="M1129.2342,-432.7998C1121.1927,-421.4346 1110.8901,-406.8739 1101.3988,-393.4598"/>
<polygon fill="#00ff00" stroke="#00ff00" stroke-width=".438" points="1104.2546,-391.4363 1095.6215,-385.2946 1098.5404,-395.4795 1104.2546,-391.4363"/>
</g>
<!-- 4024 -->
<g id="node41" class="node">
<title>4024</title>
<ellipse fill="#ffffff" stroke="#000000" cx="472.5311" cy="-794.9956" rx="25" ry="25"/>
<text text-anchor="middle" x="472.5311" y="-792.7956" font-family="Times,serif" font-size="9.00" fill="#000000">4024</text>
</g>
<!-- 4024&#45;&gt;1078 -->
<g id="edge108" class="edge">
<title>4024&#45;&gt;1078</title>
<path fill="none" stroke="#ff0000" stroke-width=".4415" d="M482.7144,-772.0838C486.8794,-762.7128 491.7708,-751.7076 496.2806,-741.5607"/>
<polygon fill="#ff0000" stroke="#ff0000" stroke-width=".4415" points="499.5882,-742.7362 500.4514,-732.1766 493.1916,-739.8932 499.5882,-742.7362"/>
</g>
<!-- 571&#45;&gt;1078 -->
<g id="edge66" class="edge">
<title>571&#45;&gt;1078</title>
<path fill="none" stroke="#00ff00" stroke-width=".3478" stroke-dasharray="1,5" d="M523.6617,-859.1821C521.1421,-830.4605 516.6248,-778.9645 513.6025,-744.5107"/>
<polygon fill="#00ff00" stroke="#00ff00" stroke-width=".3478" points="517.0769,-744.0652 512.7164,-734.4094 510.1037,-744.677 517.0769,-744.0652"/>
</g>
<!-- 571&#45;&gt;4024 -->
<g id="edge107" class="edge">
<title>571&#45;&gt;4024</title>
<path fill="none" stroke="#ff0000" stroke-width=".1791" d="M514.2912,-862.3612C507.5426,-851.4747 498.7911,-837.3572 491.0442,-824.8601"/>
<polygon fill="#ff0000" stroke="#ff0000" stroke-width=".1791" points="493.8673,-822.7714 485.6237,-816.1161 487.9178,-826.4596 493.8673,-822.7714"/>
</g>
<!-- 2879&#45;&gt;2432 -->
<g id="edge119" class="edge">
<title>2879&#45;&gt;2432</title>
<path fill="none" stroke="#ff0000" stroke-width=".4873" stroke-dasharray="1,5" d="M2071.7581,-958.9451C2010.7913,-940.9551 1843.8039,-892.1751 1703.5311,-855.7443 1636.7544,-838.4015 1610.7277,-856.7991 1552.5311,-819.7443 1446.9969,-752.5487 1486.7527,-660.2712 1377.5311,-599.2519 1259.9109,-533.5404 1198.3336,-620.8422 1076.5311,-563.2519 1037.2733,-544.6901 1002.9126,-507.4274 982.209,-481.3848"/>
<polygon fill="#ff0000" stroke="#ff0000" stroke-width=".4873" points="984.8761,-479.1127 975.9781,-473.3616 979.3475,-483.4063 984.8761,-479.1127"/>
</g>
<!-- 2879&#45;&gt;2458 -->
<g id="edge109" class="edge">
<title>2879&#45;&gt;2458</title>
<path fill="none" stroke="#00ff00" stroke-width=".1782" stroke-dasharray="1,5" d="M2095.5311,-940.8009C2095.5311,-932.8866 2095.5311,-924.0006 2095.5311,-915.532"/>
<polygon fill="#00ff00" stroke="#00ff00" stroke-width=".1782" points="2099.0312,-915.5026 2095.5311,-905.5026 2092.0312,-915.5027 2099.0312,-915.5026"/>
</g>
<!-- 2879&#45;&gt;1191 -->
<g id="edge89" class="edge">
<title>2879&#45;&gt;1191</title>
<path fill="none" stroke="#00ff00" stroke-width=".1844" stroke-dasharray="1,5" d="M2120.0662,-962.212C2201.3608,-948.3518 2464.1265,-892.5864 2594.5311,-734.2468 2657.4367,-657.8657 2692.3556,-543.6117 2706.6933,-487.1307"/>
<polygon fill="#00ff00" stroke="#00ff00" stroke-width=".1844" points="2710.1265,-487.8271 2709.133,-477.2789 2703.3318,-486.1443 2710.1265,-487.8271"/>
</g>
<!-- 1986 -->
<g id="node44" class="node">
<title>1986</title>
<ellipse fill="#ffffff" stroke="#000000" cx="876.5311" cy="-794.9956" rx="25" ry="25"/>
<text text-anchor="middle" x="876.5311" y="-792.7956" font-family="Times,serif" font-size="9.00" fill="#000000">1986</text>
</g>
<!-- 1986&#45;&gt;none -->
<g id="edge68" class="edge">
<title>1986&#45;&gt;none</title>
<path fill="none" stroke="#ff0000" stroke-width=".1731" stroke-dasharray="1,5" d="M852.0814,-790.795C795.0607,-779.5506 653.5685,-742.9609 593.5311,-648.7494 514.7028,-525.0508 511.7874,-440.5094 593.5311,-318.7178 614.28,-287.8036 655.4307,-272.0859 684.8499,-264.4767"/>
<polygon fill="#ff0000" stroke="#ff0000" stroke-width=".1731" points="685.8055,-267.8469 694.7139,-262.1118 684.1734,-261.0398 685.8055,-267.8469"/>
</g>
<!-- 3908&#45;&gt;right -->
<g id="edge106" class="edge">
<title>3908&#45;&gt;right</title>
<path fill="none" stroke="#ff0000" stroke-width=".3036" d="M1074.1436,-859.9421C1093.1677,-834.7821 1128.8337,-792.751 1169.5311,-770.2468 1276.0325,-711.3554 1587.8228,-686.4632 1703.5311,-648.7494 1756.4362,-631.5055 1765.3776,-615.7142 1818.5311,-599.2519 1897.7126,-574.7283 1926.0567,-597.5263 2001.5311,-563.2519 2003.6094,-562.3081 2005.6757,-561.2051 2007.6997,-559.9984"/>
<polygon fill="#ff0000" stroke="#ff0000" stroke-width=".3036" points="2009.9029,-562.7329 2016.207,-554.2176 2005.9687,-556.9431 2009.9029,-562.7329"/>
</g>
<!-- 3908&#45;&gt;4846 -->
<g id="edge126" class="edge">
<title>3908&#45;&gt;4846</title>
<path fill="none" stroke="#00ff00" stroke-width=".1175" d="M1080.4236,-866.8779C1086.2382,-863.1866 1092.5892,-859.245 1098.5311,-855.7443 1127.3196,-838.7835 1135.7426,-836.7051 1164.5311,-819.7443 1167.5949,-817.9393 1170.7674,-816.017 1173.9191,-814.0723"/>
<polygon fill="#00ff00" stroke="#00ff00" stroke-width=".1175" points="1176.0217,-816.8852 1182.6386,-808.6107 1172.3059,-810.9529 1176.0217,-816.8852"/>
</g>
<!-- 4804 -->
<g id="node47" class="node">
<title>4804</title>
<ellipse fill="#ffffff" stroke="#000000" cx="2103.5311" cy="-1051.488" rx="25" ry="25"/>
<text text-anchor="middle" x="2103.5311" y="-1049.288" font-family="Times,serif" font-size="9.00" fill="#000000">4804</text>
</g>
<!-- 3018&#45;&gt;backward -->
<g id="edge94" class="edge">
<title>3018&#45;&gt;backward</title>
<path fill="none" stroke="#ff0000" stroke-width=".4266" d="M1264.7364,-442.5695C1229.4681,-426.4225 1161.1153,-395.1284 1116.6776,-374.7834"/>
<polygon fill="#ff0000" stroke="#ff0000" stroke-width=".4266" points="1118.128,-371.5981 1107.5786,-370.6176 1115.214,-377.9628 1118.128,-371.5981"/>
</g>
<!-- 2764&#45;&gt;5383 -->
<g id="edge131" class="edge">
<title>2764&#45;&gt;5383</title>
<path fill="none" stroke="#00ff00" stroke-width=".1996" stroke-dasharray="1,5" d="M694.5311,-598.811C694.5311,-590.8967 694.5311,-582.0107 694.5311,-573.5421"/>
<polygon fill="#00ff00" stroke="#00ff00" stroke-width=".1996" points="698.0312,-573.5127 694.5311,-563.5127 691.0312,-573.5128 698.0312,-573.5127"/>
</g>
<!-- 2764&#45;&gt;2924 -->
<g id="edge90" class="edge">
<title>2764&#45;&gt;2924</title>
<path fill="none" stroke="#00ff00" stroke-width=".4283" d="M678.9915,-604.1709C670.197,-592.9484 659.0579,-578.7339 649.3941,-566.4021"/>
<polygon fill="#00ff00" stroke="#00ff00" stroke-width=".4283" points="651.9094,-563.9376 642.9864,-558.2253 646.3997,-568.2553 651.9094,-563.9376"/>
</g>
<!-- 4685&#45;&gt;2458 -->
<g id="edge149" class="edge">
<title>4685&#45;&gt;2458</title>
<path fill="none" stroke="#ff0000" stroke-width=".3686" d="M939.4704,-964.185C1090.7019,-953.2368 1884.3013,-895.7848 2060.7471,-883.0112"/>
<polygon fill="#ff0000" stroke="#ff0000" stroke-width=".3686" points="2061.0561,-886.4981 2070.7772,-882.2851 2060.5506,-879.5164 2061.0561,-886.4981"/>
</g>
<!-- 4685&#45;&gt;1986 -->
<g id="edge116" class="edge">
<title>4685&#45;&gt;1986</title>
<path fill="none" stroke="#ff0000" stroke-width=".8892" stroke-dasharray="1,5" d="M899.9604,-945.7029C892.679,-934.3763 884.5756,-919.6725 880.5311,-905.2418 873.6907,-880.835 872.8538,-852.1993 873.6413,-830.23"/>
<polygon fill="#ff0000" stroke="#ff0000" stroke-width=".8892" points="877.1475,-830.1871 874.1392,-820.0283 870.1558,-829.8458 877.1475,-830.1871"/>
</g>
<!-- 5719 -->
<g id="node55" class="node">
<title>5719</title>
<ellipse fill="#ffffff" stroke="#000000" cx="914.5311" cy="-880.493" rx="25" ry="25"/>
<text text-anchor="middle" x="914.5311" y="-878.293" font-family="Times,serif" font-size="9.00" fill="#000000">5719</text>
</g>
<!-- 4685&#45;&gt;5719 -->
<g id="edge141" class="edge">
<title>4685&#45;&gt;5719</title>
<path fill="none" stroke="#ff0000" stroke-width=".1279" stroke-dasharray="1,5" d="M914.5311,-940.8009C914.5311,-932.8866 914.5311,-924.0006 914.5311,-915.532"/>
<polygon fill="#ff0000" stroke="#ff0000" stroke-width=".1279" points="918.0312,-915.5026 914.5311,-905.5026 911.0312,-915.5027 918.0312,-915.5026"/>
</g>
<!-- 4947&#45;&gt;4846 -->
<g id="edge121" class="edge">
<title>4947&#45;&gt;4846</title>
<path fill="none" stroke="#ff0000" stroke-width=".4569" d="M1175.7144,-857.5813C1179.8794,-848.2102 1184.7708,-837.2051 1189.2806,-827.0582"/>
<polygon fill="#ff0000" stroke="#ff0000" stroke-width=".4569" points="1192.5882,-828.2337 1193.4514,-817.6741 1186.1916,-825.3906 1192.5882,-828.2337"/>
</g>
<!-- 1108&#45;&gt;4291 -->
<g id="edge137" class="edge">
<title>1108&#45;&gt;4291</title>
<path fill="none" stroke="#ff0000" stroke-width=".5986" stroke-dasharray="1,5" d="M2300.2722,-330.6338C2301.1222,-305.9075 2302.7674,-266.8985 2305.5311,-233.2203 2306.2225,-224.7953 2307.161,-215.7343 2308.1259,-207.2479"/>
<polygon fill="#ff0000" stroke="#ff0000" stroke-width=".5986" points="2311.6082,-207.6034 2309.3014,-197.2627 2304.6562,-206.7849 2311.6082,-207.6034"/>
</g>
<!-- 6116 -->
<g id="node58" class="node">
<title>6116</title>
<ellipse fill="#ffffff" stroke="#000000" cx="2339.5311" cy="-257.9691" rx="25" ry="25"/>
<text text-anchor="middle" x="2339.5311" y="-255.7691" font-family="Times,serif" font-size="9.00" fill="#000000">6116</text>
</g>
<!-- 1108&#45;&gt;6116 -->
<g id="edge147" class="edge">
<title>1108&#45;&gt;6116</title>
<path fill="none" stroke="#00ff00" stroke-width=".2108" d="M2309.0105,-332.3769C2314.1415,-319.8679 2320.5639,-304.2103 2326.1919,-290.4895"/>
<polygon fill="#00ff00" stroke="#00ff00" stroke-width=".2108" points="2329.5629,-291.4939 2330.1197,-280.9137 2323.0865,-288.8374 2329.5629,-291.4939"/>
</g>
<!-- 3159&#45;&gt;left -->
<g id="edge98" class="edge">
<title>3159&#45;&gt;left</title>
<path fill="none" stroke="#ff0000" stroke-width=".1742" d="M1342.2283,-621.9715C1394.839,-617.0235 1521.1893,-601.7934 1619.5311,-563.2519 1658.8116,-547.8573 1661.4612,-529.6758 1700.5311,-513.7544 1766.8264,-486.7383 1788.6957,-497.4173 1857.5311,-477.7544 1872.1152,-473.5884 1888.0912,-468.1846 1901.281,-463.4898"/>
<polygon fill="#ff0000" stroke="#ff0000" stroke-width=".1742" points="1902.5374,-466.7573 1910.7551,-460.07 1900.1607,-460.1732 1902.5374,-466.7573"/>
</g>
<!-- 3159&#45;&gt;2924 -->
<g id="edge130" class="edge">
<title>3159&#45;&gt;2924</title>
<path fill="none" stroke="#00ff00" stroke-width=".3804" d="M1292.4779,-623.4982C1187.0361,-621.1082 779.3087,-609.0263 660.5311,-563.2519 658.6266,-562.5179 656.7372,-561.6407 654.8831,-560.6611"/>
<polygon fill="#00ff00" stroke="#00ff00" stroke-width=".3804" points="656.3337,-557.44 646.0004,-555.1005 652.6194,-563.3733 656.3337,-557.44"/>
</g>
<!-- 5719&#45;&gt;1986 -->
<g id="edge142" class="edge">
<title>5719&#45;&gt;1986</title>
<path fill="none" stroke="#ff0000" stroke-width=".3297" d="M904.3478,-857.5813C900.1828,-848.2102 895.2914,-837.2051 890.7816,-827.0582"/>
<polygon fill="#ff0000" stroke="#ff0000" stroke-width=".3297" points="893.8706,-825.3906 886.6107,-817.6741 887.474,-828.2337 893.8706,-825.3906"/>
</g>
<!-- 5849&#45;&gt;4987 -->
<g id="edge145" class="edge">
<title>5849&#45;&gt;4987</title>
<path fill="none" stroke="#ff0000" stroke-width=".2833" d="M2423.3478,-601.0889C2419.1828,-591.7178 2414.2914,-580.7127 2409.7816,-570.5658"/>
<polygon fill="#ff0000" stroke="#ff0000" stroke-width=".2833" points="2412.8706,-568.8982 2405.6107,-561.1817 2406.474,-571.7413 2412.8706,-568.8982"/>
</g>
<!-- 6116&#45;&gt;4291 -->
<g id="edge148" class="edge">
<title>6116&#45;&gt;4291</title>
<path fill="none" stroke="#00ff00" stroke-width=".3237" d="M2332.0101,-234.1533C2329.2307,-225.3521 2326.0276,-215.2091 2323.0319,-205.7233"/>
<polygon fill="#00ff00" stroke="#00ff00" stroke-width=".3237" points="2326.3608,-204.6415 2320.0118,-196.1597 2319.6857,-206.7495 2326.3608,-204.6415"/>
</g>
<!-- 4326&#45;&gt;3232 -->
<g id="edge113" class="edge">
<title>4326&#45;&gt;3232</title>
<path fill="none" stroke="#ff0000" stroke-width=".1779" stroke-dasharray="1,5" d="M2151.1798,-532.436C2128.9656,-527.042 2095.1818,-519.1901 2065.5311,-513.7544 1920.5709,-487.1796 1746.1109,-465.5593 1673.1975,-456.9835"/>
<polygon fill="#ff0000" stroke="#ff0000" stroke-width=".1779" points="1673.531,-453.4987 1663.1922,-455.8138 1672.7182,-460.4513 1673.531,-453.4987"/>
</g>
<!-- 4326&#45;&gt;1191 -->
<g id="edge112" class="edge">
<title>4326&#45;&gt;1191</title>
<path fill="none" stroke="#00ff00" stroke-width=".1012" d="M2200.2498,-534.7641C2262.0365,-525.3958 2428.1785,-500.0691 2566.5311,-477.7544 2605.4117,-471.4834 2649.9834,-463.9883 2679.966,-458.9017"/>
<polygon fill="#00ff00" stroke="#00ff00" stroke-width=".1012" points="2680.6571,-462.3345 2689.9296,-457.2089 2679.4846,-455.4334 2680.6571,-462.3345"/>
</g>
<!-- 2024&#45;&gt;forward -->
<g id="edge70" class="edge">
<title>2024&#45;&gt;forward</title>
<path fill="none" stroke="#ff0000" stroke-width=".1704" stroke-dasharray="1,5" d="M2344.1133,-438.4686C2338.3005,-434.7737 2331.8318,-431.0607 2325.5311,-428.2569 2251.3947,-395.2667 2158.6631,-373.6954 2106.0575,-363.1332"/>
<polygon fill="#ff0000" stroke="#ff0000" stroke-width=".1704" points="2106.577,-359.6683 2096.0888,-361.1674 2105.2227,-366.5361 2106.577,-359.6683"/>
</g>
<!-- 2024&#45;&gt;1108 -->
<g id="edge115" class="edge">
<title>2024&#45;&gt;1108</title>
<path fill="none" stroke="#00ff00" stroke-width=".4481" stroke-dasharray="1,5" d="M2350.7463,-432.3245C2341.5253,-418.4905 2329.2552,-400.082 2319.0368,-384.7515"/>
<polygon fill="#00ff00" stroke="#00ff00" stroke-width=".4481" points="2321.7547,-382.5185 2313.296,-376.1387 2315.93,-386.4009 2321.7547,-382.5185"/>
</g>
<!-- 2665&#45;&gt;none -->
<g id="edge86" class="edge">
<title>2665&#45;&gt;none</title>
<path fill="none" stroke="#00ff00" stroke-width=".5031" d="M232.0143,-684.9218C227.5807,-651.7583 220.5311,-590.8032 220.5311,-538.5031 220.5311,-538.5031 220.5311,-538.5031 220.5311,-453.0057 220.5311,-392.3765 200.6143,-360.5175 244.5311,-318.7178 276.3814,-288.4029 580.5377,-266.6365 684.1562,-260.0495"/>
<polygon fill="#00ff00" stroke="#00ff00" stroke-width=".5031" points="684.6217,-263.5273 694.3828,-259.4075 684.1831,-256.541 684.6217,-263.5273"/>
</g>
<!-- 2924&#45;&gt;2548 -->
<g id="edge91" class="edge">
<title>2924&#45;&gt;2548</title>
<path fill="none" stroke="#00ff00" stroke-width=".2219" stroke-dasharray="1,5" d="M612.7511,-518.2721C605.4085,-506.9621 597.3132,-492.2561 593.5311,-477.7544 587.9794,-456.4676 588.7615,-449.7325 593.5311,-428.2569 596.7594,-413.7209 603.21,-398.6505 609.6332,-386.0205"/>
<polygon fill="#00ff00" stroke="#00ff00" stroke-width=".2219" points="612.8846,-387.3605 614.4858,-376.8873 606.7029,-384.076 612.8846,-387.3605"/>
</g>
<!-- 4846&#45;&gt;1078 -->
<g id="edge146" class="edge">
<title>4846&#45;&gt;1078</title>
<path fill="none" stroke="#ff0000" stroke-width=".6067" d="M1178.8669,-791.9527C1074.3633,-779.0597 667.8604,-728.9083 545.543,-713.8176"/>
<polygon fill="#ff0000" stroke="#ff0000" stroke-width=".6067" points="545.614,-710.2999 535.2607,-712.5491 544.7569,-717.2472 545.614,-710.2999"/>
</g>
<!-- 1524&#45;&gt;2432 -->
<g id="edge139" class="edge">
<title>1524&#45;&gt;2432</title>
<path fill="none" stroke="#00ff00" stroke-width=".201" d="M961.5311,-513.3135C961.5311,-505.3993 961.5311,-496.5132 961.5311,-488.0446"/>
<polygon fill="#00ff00" stroke="#00ff00" stroke-width=".201" points="965.0312,-488.0152 961.5311,-478.0153 958.0312,-488.0153 965.0312,-488.0152"/>
</g>
<!-- 2548&#45;&gt;none -->
<g id="edge84" class="edge">
<title>2548&#45;&gt;none</title>
<path fill="none" stroke="#ff0000" stroke-width=".5828" d="M644.6475,-337.1449C658.9347,-321.8344 679.4385,-299.8619 695.2233,-282.9464"/>
<polygon fill="#ff0000" stroke="#ff0000" stroke-width=".5828" points="697.8408,-285.2715 702.1044,-275.5724 692.7229,-280.4958 697.8408,-285.2715"/>
</g>
<!-- 3064&#45;&gt;counterclockwise -->
<g id="edge96" class="edge">
<title>3064&#45;&gt;counterclockwise</title>
<path fill="none" stroke="#ff0000" stroke-width=".1016" stroke-dasharray="1,5" d="M2284.091,-684.5692C2289.8375,-642.3278 2307.7917,-557.0628 2361.5311,-513.7544 2433.558,-455.7082 2501.7665,-543.8058 2566.5311,-477.7544 2605.0327,-438.4878 2585.5311,-410.4805 2585.5311,-355.4874 2585.5311,-355.4874 2585.5311,-355.4874 2585.5311,-257.9691 2585.5311,-92.8967 1984.385,-62.6083 1780.9214,-57.0843"/>
<polygon fill="#ff0000" stroke="#ff0000" stroke-width=".1016" points="1780.762,-53.5791 1770.6745,-56.8181 1780.5801,-60.5767 1780.762,-53.5791"/>
</g>
<!-- 3064&#45;&gt;2764 -->
<g id="edge104" class="edge">
<title>3064&#45;&gt;2764</title>
<path fill="none" stroke="#00ff00" stroke-width=".7249" d="M2256.6031,-708.1551C2073.9539,-698.3151 943.3859,-637.4073 729.4466,-625.8816"/>
<polygon fill="#00ff00" stroke="#00ff00" stroke-width=".7249" points="729.578,-622.3837 719.4042,-625.3406 729.2014,-629.3736 729.578,-622.3837"/>
</g>
<!-- 4987&#45;&gt;2024 -->
<g id="edge123" class="edge">
<title>4987&#45;&gt;2024</title>
<path fill="none" stroke="#ff0000" stroke-width=".4958" d="M2387.0602,-515.1406C2383.7796,-506.0927 2379.966,-495.5749 2376.4195,-485.7938"/>
<polygon fill="#ff0000" stroke="#ff0000" stroke-width=".4958" points="2379.6909,-484.548 2372.9917,-476.34 2373.1101,-486.9342 2379.6909,-484.548"/>
</g>
</g>
</svg>
