<?xml version="1.0" encoding="UTF-8" standalone="no"?>
<!DOCTYPE svg PUBLIC "-//W3C//DTD SVG 1.1//EN"
 "http://www.w3.org/Graphics/SVG/1.1/DTD/svg11.dtd">
<!-- Generated by graphviz version 2.40.1 (20161225.0304)
 -->
<!-- Title: %3 Pages: 1 -->
<svg width="879pt" height="312pt"
 viewBox="0.00 0.00 878.81 312.19" xmlns="http://www.w3.org/2000/svg" xmlns:xlink="http://www.w3.org/1999/xlink">
<g id="graph0" class="graph" transform="scale(1 1) rotate(0) translate(4 308.1909)">
<title>%3</title>
<polygon fill="#ffffff" stroke="transparent" points="-4,4 -4,-308.1909 874.8061,-308.1909 874.8061,4 -4,4"/>
<!-- x&#45;vel -->
<g id="node1" class="node">
<title>x&#45;vel</title>
<polygon fill="#d3d3d3" stroke="#000000" points="67.3061,-148.9447 32.3061,-148.9447 32.3061,-130.9447 67.3061,-130.9447 67.3061,-148.9447"/>
<text text-anchor="middle" x="49.8061" y="-137.7447" font-family="Times,serif" font-size="9.00" fill="#000000">x&#45;vel</text>
</g>
<!-- right -->
<g id="node14" class="node">
<title>right</title>
<ellipse fill="#add8e6" stroke="#000000" cx="76.8061" cy="-36.0624" rx="23.1702" ry="23.1702"/>
<text text-anchor="middle" x="76.8061" y="-33.8624" font-family="Times,serif" font-size="9.00" fill="#000000">right</text>
</g>
<!-- x&#45;vel&#45;&gt;right -->
<g id="edge17" class="edge">
<title>x&#45;vel&#45;&gt;right</title>
<path fill="none" stroke="#ff0000" stroke-width=".4899" stroke-dasharray="1,5" d="M52.2022,-130.7258C55.7898,-116.9226 62.7342,-90.2041 68.3329,-68.663"/>
<polygon fill="#ff0000" stroke="#ff0000" stroke-width=".4899" points="71.7449,-69.4489 70.873,-58.89 64.97,-67.688 71.7449,-69.4489"/>
</g>
<!-- y&#45;vel -->
<g id="node2" class="node">
<title>y&#45;vel</title>
<polygon fill="#d3d3d3" stroke="#000000" points="362.3061,-237.9777 327.3061,-237.9777 327.3061,-219.9777 362.3061,-219.9777 362.3061,-237.9777"/>
<text text-anchor="middle" x="344.8061" y="-226.7777" font-family="Times,serif" font-size="9.00" fill="#000000">y&#45;vel</text>
</g>
<!-- none -->
<g id="node13" class="node">
<title>none</title>
<ellipse fill="#add8e6" stroke="#000000" cx="371.8061" cy="-139.9447" rx="24.0833" ry="24.0833"/>
<text text-anchor="middle" x="371.8061" y="-137.7447" font-family="Times,serif" font-size="9.00" fill="#000000">none</text>
</g>
<!-- y&#45;vel&#45;&gt;none -->
<g id="edge14" class="edge">
<title>y&#45;vel&#45;&gt;none</title>
<path fill="none" stroke="#00ff00" stroke-width=".6477" d="M347.5939,-219.7849C350.9189,-208.8206 356.6636,-189.8774 361.723,-173.1941"/>
<polygon fill="#00ff00" stroke="#00ff00" stroke-width=".6477" points="365.2041,-173.7753 364.7568,-163.1899 358.5053,-171.7438 365.2041,-173.7753"/>
</g>
<!-- left -->
<g id="node15" class="node">
<title>left</title>
<ellipse fill="#add8e6" stroke="#000000" cx="433.8061" cy="-139.9447" rx="19.6" ry="19.6"/>
<text text-anchor="middle" x="433.8061" y="-137.7447" font-family="Times,serif" font-size="9.00" fill="#000000">left</text>
</g>
<!-- y&#45;vel&#45;&gt;left -->
<g id="edge18" class="edge">
<title>y&#45;vel&#45;&gt;left</title>
<path fill="none" stroke="#ff0000" stroke-width=".5527" d="M354.7791,-219.8691C366.8545,-208.7495 387.7004,-189.2605 404.8061,-171.7645 407.6637,-168.8418 410.6237,-165.7157 413.5121,-162.6065"/>
<polygon fill="#ff0000" stroke="#ff0000" stroke-width=".5527" points="416.2713,-164.776 420.4452,-155.038 411.1095,-160.0477 416.2713,-164.776"/>
</g>
<!-- 279 -->
<g id="node19" class="node">
<title>279</title>
<ellipse fill="#ffffff" stroke="#000000" cx="198.8061" cy="-139.9447" rx="21.4286" ry="21.4286"/>
<text text-anchor="middle" x="198.8061" y="-137.7447" font-family="Times,serif" font-size="9.00" fill="#000000">279</text>
</g>
<!-- y&#45;vel&#45;&gt;279 -->
<g id="edge32" class="edge">
<title>y&#45;vel&#45;&gt;279</title>
<path fill="none" stroke="#00ff00" stroke-width=".1709" stroke-dasharray="1,5" d="M335.2013,-219.9719C330.5054,-215.8844 324.6218,-211.2062 318.8061,-207.7645 282.0855,-186.0334 265.228,-195.5539 229.8061,-171.7645 226.2767,-169.3941 222.8299,-166.5692 219.5937,-163.5953"/>
<polygon fill="#00ff00" stroke="#00ff00" stroke-width=".1709" points="222.0452,-161.0971 212.4853,-156.5299 217.1104,-166.0619 222.0452,-161.0971"/>
</g>
<!-- x&#45;pos -->
<g id="node3" class="node">
<title>x&#45;pos</title>
<polygon fill="#d3d3d3" stroke="#000000" points="121.8061,-148.9447 85.8061,-148.9447 85.8061,-130.9447 121.8061,-130.9447 121.8061,-148.9447"/>
<text text-anchor="middle" x="103.8061" y="-137.7447" font-family="Times,serif" font-size="9.00" fill="#000000">x&#45;pos</text>
</g>
<!-- x&#45;pos&#45;&gt;right -->
<g id="edge1" class="edge">
<title>x&#45;pos&#45;&gt;right</title>
<path fill="none" stroke="#ff0000" stroke-width=".271" d="M101.4101,-130.7258C97.8225,-116.9226 90.8781,-90.2041 85.2793,-68.663"/>
<polygon fill="#ff0000" stroke="#ff0000" stroke-width=".271" points="88.6423,-67.688 82.7392,-58.89 81.8674,-69.4489 88.6423,-67.688"/>
</g>
<!-- backward -->
<g id="node17" class="node">
<title>backward</title>
<ellipse fill="#add8e6" stroke="#000000" cx="291.8061" cy="-36.0624" rx="36.125" ry="36.125"/>
<text text-anchor="middle" x="291.8061" y="-33.8624" font-family="Times,serif" font-size="9.00" fill="#000000">backward</text>
</g>
<!-- x&#45;pos&#45;&gt;backward -->
<g id="edge22" class="edge">
<title>x&#45;pos&#45;&gt;backward</title>
<path fill="none" stroke="#00ff00" stroke-width=".4442" stroke-dasharray="1,5" d="M111.5032,-130.7011C117.5766,-123.8291 126.5438,-114.5662 135.8061,-108.1249 170.7658,-83.8127 215.2371,-64.2093 247.7455,-51.6219"/>
<polygon fill="#00ff00" stroke="#00ff00" stroke-width=".4442" points="249.3219,-54.7671 257.4265,-47.9432 246.8354,-48.2236 249.3219,-54.7671"/>
</g>
<!-- y&#45;pos -->
<g id="node4" class="node">
<title>y&#45;pos</title>
<polygon fill="#d3d3d3" stroke="#000000" points="216.8061,-237.9777 180.8061,-237.9777 180.8061,-219.9777 216.8061,-219.9777 216.8061,-237.9777"/>
<text text-anchor="middle" x="198.8061" y="-226.7777" font-family="Times,serif" font-size="9.00" fill="#000000">y&#45;pos</text>
</g>
<!-- y&#45;pos&#45;&gt;none -->
<g id="edge21" class="edge">
<title>y&#45;pos&#45;&gt;none</title>
<path fill="none" stroke="#00ff00" stroke-width=".1207" d="M216.3463,-219.9508C245.6015,-204.8948 304.7205,-174.4697 341.0305,-155.7831"/>
<polygon fill="#00ff00" stroke="#00ff00" stroke-width=".1207" points="342.8906,-158.7622 350.1806,-151.0741 339.6874,-152.5381 342.8906,-158.7622"/>
</g>
<!-- y&#45;pos&#45;&gt;right -->
<g id="edge5" class="edge">
<title>y&#45;pos&#45;&gt;right</title>
<path fill="none" stroke="#ff0000" stroke-width=".138" d="M180.5534,-225.8075C139.4594,-218.2602 41.7839,-197.8891 22.8061,-171.7645 -2.3943,-137.074 29.2595,-89.0024 53.6528,-60.3641"/>
<polygon fill="#ff0000" stroke="#ff0000" stroke-width=".138" points="56.3057,-62.6475 60.2872,-52.8292 51.0519,-58.0216 56.3057,-62.6475"/>
</g>
<!-- y&#45;pos&#45;&gt;left -->
<g id="edge11" class="edge">
<title>y&#45;pos&#45;&gt;left</title>
<path fill="none" stroke="#ff0000" stroke-width=".1115" d="M217.1106,-220.103C226.1899,-215.9474 237.4126,-211.174 247.8061,-207.7645 315.8283,-185.4503 342.9871,-207.8663 404.8061,-171.7645 408.5819,-169.5595 412.1464,-166.7006 415.399,-163.6019"/>
<polygon fill="#ff0000" stroke="#ff0000" stroke-width=".1115" points="418.1084,-165.8286 422.3751,-156.1309 412.992,-161.0512 418.1084,-165.8286"/>
</g>
<!-- y&#45;pos&#45;&gt;backward -->
<g id="edge26" class="edge">
<title>y&#45;pos&#45;&gt;backward</title>
<path fill="none" stroke="#00ff00" stroke-width=".1367" d="M192.255,-219.8602C178.0163,-198.8263 147.1998,-145.8249 168.8061,-108.1249 185.5938,-78.8327 219.4166,-60.2961 247.3524,-49.37"/>
<polygon fill="#00ff00" stroke="#00ff00" stroke-width=".1367" points="248.7871,-52.5711 256.9505,-45.8176 246.3573,-46.0063 248.7871,-52.5711"/>
</g>
<!-- y&#45;pos&#45;&gt;279 -->
<g id="edge30" class="edge">
<title>y&#45;pos&#45;&gt;279</title>
<path fill="none" stroke="#00ff00" stroke-width=".8929" d="M198.8061,-219.7849C198.8061,-208.4527 198.8061,-188.5971 198.8061,-171.5226"/>
<polygon fill="#00ff00" stroke="#00ff00" stroke-width=".8929" points="202.3062,-171.3517 198.8061,-161.3517 195.3062,-171.3518 202.3062,-171.3517"/>
</g>
<!-- x&#45;lm1&#45;vec -->
<g id="node5" class="node">
<title>x&#45;lm1&#45;vec</title>
<polygon fill="#d3d3d3" stroke="#000000" points="441.3061,-304.1909 388.3061,-304.1909 388.3061,-286.1909 441.3061,-286.1909 441.3061,-304.1909"/>
<text text-anchor="middle" x="414.8061" y="-292.9909" font-family="Times,serif" font-size="9.00" fill="#000000">x&#45;lm1&#45;vec</text>
</g>
<!-- x&#45;lm1&#45;vec&#45;&gt;none -->
<g id="edge7" class="edge">
<title>x&#45;lm1&#45;vec&#45;&gt;none</title>
<path fill="none" stroke="#00ff00" stroke-width=".1148" d="M412.245,-285.9445C406.2387,-264.2591 391.002,-209.2492 381.0418,-173.2889"/>
<polygon fill="#00ff00" stroke="#00ff00" stroke-width=".1148" points="384.3027,-171.9499 378.2604,-163.247 377.5567,-173.8184 384.3027,-171.9499"/>
</g>
<!-- x&#45;lm1&#45;vec&#45;&gt;right -->
<g id="edge12" class="edge">
<title>x&#45;lm1&#45;vec&#45;&gt;right</title>
<path fill="none" stroke="#00ff00" stroke-width="2.033" d="M387.9773,-292.5962C342.5625,-287.6834 248.0409,-275.1994 171.8061,-250.1909 95.798,-225.2567 52.2955,-239.5407 9.8061,-171.7645 -5.2174,-147.8 -.5406,-134.4487 9.8061,-108.1249 17.8733,-87.6005 34.8419,-69.4511 49.6829,-56.5005"/>
<polygon fill="#00ff00" stroke="#00ff00" stroke-width="2.033" points="52.2055,-58.954 57.6391,-49.8586 47.7194,-53.5804 52.2055,-58.954"/>
</g>
<!-- forward -->
<g id="node16" class="node">
<title>forward</title>
<ellipse fill="#add8e6" stroke="#000000" cx="715.8061" cy="-139.9447" rx="31.6406" ry="31.6406"/>
<text text-anchor="middle" x="715.8061" y="-137.7447" font-family="Times,serif" font-size="9.00" fill="#000000">forward</text>
</g>
<!-- x&#45;lm1&#45;vec&#45;&gt;forward -->
<g id="edge15" class="edge">
<title>x&#45;lm1&#45;vec&#45;&gt;forward</title>
<path fill="none" stroke="#ff0000" stroke-width=".3627" stroke-dasharray="1,5" d="M441.5817,-294.6327C504.2829,-292.7551 658.0346,-284.6609 693.8061,-250.1909 711.7828,-232.8683 717.2877,-205.3332 718.296,-182.1156"/>
<polygon fill="#ff0000" stroke="#ff0000" stroke-width=".3627" points="721.8007,-181.8622 718.4715,-171.8041 714.8017,-181.743 721.8007,-181.8622"/>
</g>
<!-- 153 -->
<g id="node20" class="node">
<title>153</title>
<ellipse fill="#ffffff" stroke="#000000" cx="439.8061" cy="-228.9777" rx="21.4286" ry="21.4286"/>
<text text-anchor="middle" x="439.8061" y="-226.7777" font-family="Times,serif" font-size="9.00" fill="#000000">153</text>
</g>
<!-- x&#45;lm1&#45;vec&#45;&gt;153 -->
<g id="edge28" class="edge">
<title>x&#45;lm1&#45;vec&#45;&gt;153</title>
<path fill="none" stroke="#00ff00" stroke-width=".2488" stroke-dasharray="1,5" d="M418.2823,-285.9842C420.979,-278.8418 424.8756,-268.5216 428.6143,-258.6195"/>
<polygon fill="#00ff00" stroke="#00ff00" stroke-width=".2488" points="431.9922,-259.5815 432.2502,-248.9898 425.4435,-257.1089 431.9922,-259.5815"/>
</g>
<!-- y&#45;lm1&#45;vec -->
<g id="node6" class="node">
<title>y&#45;lm1&#45;vec</title>
<polygon fill="#d3d3d3" stroke="#000000" points="291.3061,-148.9447 238.3061,-148.9447 238.3061,-130.9447 291.3061,-130.9447 291.3061,-148.9447"/>
<text text-anchor="middle" x="264.8061" y="-137.7447" font-family="Times,serif" font-size="9.00" fill="#000000">y&#45;lm1&#45;vec</text>
</g>
<!-- y&#45;lm1&#45;vec&#45;&gt;backward -->
<g id="edge16" class="edge">
<title>y&#45;lm1&#45;vec&#45;&gt;backward</title>
<path fill="none" stroke="#ff0000" stroke-width=".9612" d="M267.2022,-130.7258C270.1341,-119.4454 275.3079,-99.5392 280.157,-80.8823"/>
<polygon fill="#ff0000" stroke="#ff0000" stroke-width=".9612" points="283.597,-81.5604 282.7251,-71.0015 276.8221,-79.7995 283.597,-81.5604"/>
</g>
<!-- x&#45;lm2&#45;vec -->
<g id="node7" class="node">
<title>x&#45;lm2&#45;vec</title>
<polygon fill="#d3d3d3" stroke="#000000" points="309.3061,-237.9777 256.3061,-237.9777 256.3061,-219.9777 309.3061,-219.9777 309.3061,-237.9777"/>
<text text-anchor="middle" x="282.8061" y="-226.7777" font-family="Times,serif" font-size="9.00" fill="#000000">x&#45;lm2&#45;vec</text>
</g>
<!-- x&#45;lm2&#45;vec&#45;&gt;none -->
<g id="edge24" class="edge">
<title>x&#45;lm2&#45;vec&#45;&gt;none</title>
<path fill="none" stroke="#ff0000" stroke-width=".2879" stroke-dasharray="1,5" d="M291.9955,-219.7849C304.8974,-206.8782 328.8516,-182.9152 347.1628,-164.5971"/>
<polygon fill="#ff0000" stroke="#ff0000" stroke-width=".2879" points="350.0219,-166.6877 354.6164,-157.1408 345.0712,-161.7388 350.0219,-166.6877"/>
</g>
<!-- x&#45;lm2&#45;vec&#45;&gt;backward -->
<g id="edge4" class="edge">
<title>x&#45;lm2&#45;vec&#45;&gt;backward</title>
<path fill="none" stroke="#00ff00" stroke-width=".3795" stroke-dasharray="1,5" d="M286.6256,-219.8693C291.0629,-208.7499 298.1187,-189.2611 300.8061,-171.7645 305.3788,-141.9937 303.1595,-108.1968 299.7817,-81.7786"/>
<polygon fill="#00ff00" stroke="#00ff00" stroke-width=".3795" points="303.2218,-81.103 298.3886,-71.6748 296.2874,-82.0592 303.2218,-81.103"/>
</g>
<!-- y&#45;lm2&#45;vec -->
<g id="node8" class="node">
<title>y&#45;lm2&#45;vec</title>
<polygon fill="#d3d3d3" stroke="#000000" points="532.3061,-237.9777 479.3061,-237.9777 479.3061,-219.9777 532.3061,-219.9777 532.3061,-237.9777"/>
<text text-anchor="middle" x="505.8061" y="-226.7777" font-family="Times,serif" font-size="9.00" fill="#000000">y&#45;lm2&#45;vec</text>
</g>
<!-- y&#45;lm2&#45;vec&#45;&gt;none -->
<g id="edge13" class="edge">
<title>y&#45;lm2&#45;vec&#45;&gt;none</title>
<path fill="none" stroke="#00ff00" stroke-width=".2372" d="M490.4425,-219.8029C484.0787,-216.0344 476.6086,-211.6515 469.8061,-207.7645 441.1333,-191.3804 431.3633,-191.3931 404.8061,-171.7645 401.814,-169.553 398.8142,-167.0881 395.9093,-164.536"/>
<polygon fill="#00ff00" stroke="#00ff00" stroke-width=".2372" points="398.2289,-161.9139 388.5119,-157.6913 393.4748,-167.0519 398.2289,-161.9139"/>
</g>
<!-- y&#45;lm2&#45;vec&#45;&gt;right -->
<g id="edge10" class="edge">
<title>y&#45;lm2&#45;vec&#45;&gt;right</title>
<path fill="none" stroke="#00ff00" stroke-width=".5012" stroke-dasharray="1,5" d="M505.516,-219.6543C504.2626,-196.7158 497.6394,-137.2896 462.8061,-108.1249 388.1841,-45.6465 342.432,-90.2273 246.8061,-72.1249 198.8521,-63.047 143.6221,-51.0421 109.4593,-43.4342"/>
<polygon fill="#00ff00" stroke="#00ff00" stroke-width=".5012" points="110.0874,-39.9883 99.5647,-41.2224 108.5603,-46.8197 110.0874,-39.9883"/>
</g>
<!-- y&#45;lm2&#45;vec&#45;&gt;left -->
<g id="edge33" class="edge">
<title>y&#45;lm2&#45;vec&#45;&gt;left</title>
<path fill="none" stroke="#00ff00" stroke-width=".14" d="M498.372,-219.7849C487.7162,-206.6082 467.7411,-181.9076 452.8185,-163.4549"/>
<polygon fill="#00ff00" stroke="#00ff00" stroke-width=".14" points="455.379,-161.0549 446.3694,-155.4801 449.9361,-165.4566 455.379,-161.0549"/>
</g>
<!-- y&#45;lm2&#45;vec&#45;&gt;forward -->
<g id="edge9" class="edge">
<title>y&#45;lm2&#45;vec&#45;&gt;forward</title>
<path fill="none" stroke="#00ff00" stroke-width=".1197" d="M519.8808,-219.9724C526.4143,-215.9788 534.3669,-211.3771 541.8061,-207.7645 586.5925,-186.0158 640.2578,-165.956 676.0346,-153.3846"/>
<polygon fill="#00ff00" stroke="#00ff00" stroke-width=".1197" points="677.337,-156.6372 685.6289,-150.0422 675.0341,-150.0269 677.337,-156.6372"/>
</g>
<!-- y&#45;lm2&#45;vec&#45;&gt;backward -->
<g id="edge25" class="edge">
<title>y&#45;lm2&#45;vec&#45;&gt;backward</title>
<path fill="none" stroke="#ff0000" stroke-width=".2194" d="M519.2342,-219.8756C532.6581,-209.8807 552.4681,-192.4693 560.8061,-171.7645 571.3719,-145.5278 578.0251,-130.5638 560.8061,-108.1249 533.8246,-72.964 407.5213,-51.2048 337.9966,-41.6854"/>
<polygon fill="#ff0000" stroke="#ff0000" stroke-width=".2194" points="338.1353,-38.1729 327.7594,-40.316 337.2071,-45.1111 338.1353,-38.1729"/>
</g>
<!-- 534 -->
<g id="node18" class="node">
<title>534</title>
<ellipse fill="#ffffff" stroke="#000000" cx="530.8061" cy="-139.9447" rx="21.4286" ry="21.4286"/>
<text text-anchor="middle" x="530.8061" y="-137.7447" font-family="Times,serif" font-size="9.00" fill="#000000">534</text>
</g>
<!-- y&#45;lm2&#45;vec&#45;&gt;534 -->
<g id="edge34" class="edge">
<title>y&#45;lm2&#45;vec&#45;&gt;534</title>
<path fill="none" stroke="#00ff00" stroke-width=".4289" d="M508.3874,-219.7849C511.6412,-208.1972 517.3974,-187.6975 522.2622,-170.3722"/>
<polygon fill="#00ff00" stroke="#00ff00" stroke-width=".4289" points="525.6642,-171.2033 524.9979,-160.6295 518.9248,-169.3109 525.6642,-171.2033"/>
</g>
<!-- x&#45;other&#45;vec -->
<g id="node9" class="node">
<title>x&#45;other&#45;vec</title>
<polygon fill="#d3d3d3" stroke="#000000" points="684.8061,-237.9777 626.8061,-237.9777 626.8061,-219.9777 684.8061,-219.9777 684.8061,-237.9777"/>
<text text-anchor="middle" x="655.8061" y="-226.7777" font-family="Times,serif" font-size="9.00" fill="#000000">x&#45;other&#45;vec</text>
</g>
<!-- x&#45;other&#45;vec&#45;&gt;forward -->
<g id="edge20" class="edge">
<title>x&#45;other&#45;vec&#45;&gt;forward</title>
<path fill="none" stroke="#00ff00" stroke-width=".192" d="M662.0012,-219.7849C669.0748,-209.2885 681.0763,-191.4797 691.952,-175.3415"/>
<polygon fill="#00ff00" stroke="#00ff00" stroke-width=".192" points="695.1536,-176.8534 697.8397,-166.6048 689.3487,-172.9415 695.1536,-176.8534"/>
</g>
<!-- x&#45;other&#45;vec&#45;&gt;backward -->
<g id="edge6" class="edge">
<title>x&#45;other&#45;vec&#45;&gt;backward</title>
<path fill="none" stroke="#ff0000" stroke-width=".1834" d="M654.4227,-219.7334C650.5093,-196.9753 637.1819,-137.9285 600.8061,-108.1249 560.8734,-75.4071 413.7713,-51.9688 337.8376,-41.7606"/>
<polygon fill="#ff0000" stroke="#ff0000" stroke-width=".1834" points="337.9865,-38.2499 327.6139,-40.4084 337.0686,-45.1894 337.9865,-38.2499"/>
</g>
<!-- y&#45;other&#45;vec -->
<g id="node10" class="node">
<title>y&#45;other&#45;vec</title>
<polygon fill="#d3d3d3" stroke="#000000" points="608.8061,-237.9777 550.8061,-237.9777 550.8061,-219.9777 608.8061,-219.9777 608.8061,-237.9777"/>
<text text-anchor="middle" x="579.8061" y="-226.7777" font-family="Times,serif" font-size="9.00" fill="#000000">y&#45;other&#45;vec</text>
</g>
<!-- y&#45;other&#45;vec&#45;&gt;none -->
<g id="edge23" class="edge">
<title>y&#45;other&#45;vec&#45;&gt;none</title>
<path fill="none" stroke="#ff0000" stroke-width=".3101" stroke-dasharray="1,5" d="M565.4358,-219.823C558.4998,-215.7029 549.9354,-211.0403 541.8061,-207.7645 483.4128,-184.2342 459.6866,-202.6123 404.8061,-171.7645 401.489,-169.9 398.2598,-167.622 395.2014,-165.15"/>
<polygon fill="#ff0000" stroke="#ff0000" stroke-width=".3101" points="397.3448,-162.371 387.5616,-158.3041 392.6734,-167.5843 397.3448,-162.371"/>
</g>
<!-- y&#45;other&#45;vec&#45;&gt;left -->
<g id="edge2" class="edge">
<title>y&#45;other&#45;vec&#45;&gt;left</title>
<path fill="none" stroke="#00ff00" stroke-width=".5385" stroke-dasharray="1,5" d="M565.0034,-219.9508C540.3007,-204.8867 490.3679,-174.4369 459.7291,-155.7529"/>
<polygon fill="#00ff00" stroke="#00ff00" stroke-width=".5385" points="461.2492,-152.5805 450.8892,-150.3622 457.6047,-158.5569 461.2492,-152.5805"/>
</g>
<!-- y&#45;other&#45;vec&#45;&gt;forward -->
<g id="edge3" class="edge">
<title>y&#45;other&#45;vec&#45;&gt;forward</title>
<path fill="none" stroke="#00ff00" stroke-width=".42" d="M593.595,-219.9508C613.8517,-206.6896 652.3217,-181.5051 680.7103,-162.9203"/>
<polygon fill="#00ff00" stroke="#00ff00" stroke-width=".42" points="682.7161,-165.7906 689.1656,-157.385 678.882,-159.934 682.7161,-165.7906"/>
</g>
<!-- y&#45;other&#45;vec&#45;&gt;backward -->
<g id="edge27" class="edge">
<title>y&#45;other&#45;vec&#45;&gt;backward</title>
<path fill="none" stroke="#ff0000" stroke-width=".2878" stroke-dasharray="1,5" d="M583.1761,-219.8997C590.658,-198.0188 606.0145,-141.699 579.8061,-108.1249 550.3334,-70.369 411.8524,-49.4519 338.181,-40.8242"/>
<polygon fill="#ff0000" stroke="#ff0000" stroke-width=".2878" points="338.1348,-37.2962 327.8024,-39.6398 337.3411,-44.2511 338.1348,-37.2962"/>
</g>
<!-- x&#45;other&#45;vel -->
<g id="node11" class="node">
<title>x&#45;other&#45;vel</title>
<polygon fill="#d3d3d3" stroke="#000000" points="796.8061,-237.9777 740.8061,-237.9777 740.8061,-219.9777 796.8061,-219.9777 796.8061,-237.9777"/>
<text text-anchor="middle" x="768.8061" y="-226.7777" font-family="Times,serif" font-size="9.00" fill="#000000">x&#45;other&#45;vel</text>
</g>
<!-- x&#45;other&#45;vel&#45;&gt;forward -->
<g id="edge8" class="edge">
<title>x&#45;other&#45;vel&#45;&gt;forward</title>
<path fill="none" stroke="#00ff00" stroke-width=".2416" d="M763.3338,-219.7849C757.1747,-209.4385 746.7861,-191.987 737.2896,-176.0341"/>
<polygon fill="#00ff00" stroke="#00ff00" stroke-width=".2416" points="740.2607,-174.1827 732.1381,-167.3802 734.2458,-177.7633 740.2607,-174.1827"/>
</g>
<!-- y&#45;other&#45;vel -->
<g id="node12" class="node">
<title>y&#45;other&#45;vel</title>
<polygon fill="#d3d3d3" stroke="#000000" points="870.8061,-237.9777 814.8061,-237.9777 814.8061,-219.9777 870.8061,-219.9777 870.8061,-237.9777"/>
<text text-anchor="middle" x="842.8061" y="-226.7777" font-family="Times,serif" font-size="9.00" fill="#000000">y&#45;other&#45;vel</text>
</g>
<!-- y&#45;other&#45;vel&#45;&gt;forward -->
<g id="edge19" class="edge">
<title>y&#45;other&#45;vel&#45;&gt;forward</title>
<path fill="none" stroke="#ff0000" stroke-width=".6547" d="M829.6932,-219.7849C811.245,-206.8519 776.961,-182.8172 750.8111,-164.4849"/>
<polygon fill="#ff0000" stroke="#ff0000" stroke-width=".6547" points="752.4868,-161.3852 742.2894,-158.5107 748.4685,-167.117 752.4868,-161.3852"/>
</g>
<!-- 534&#45;&gt;right -->
<g id="edge35" class="edge">
<title>534&#45;&gt;right</title>
<path fill="none" stroke="#00ff00" stroke-width=".5071" d="M516.9479,-123.7981C511.0331,-117.9319 503.6793,-111.8383 495.8061,-108.1249 394.6732,-60.4255 356.89,-91.7372 246.8061,-72.1249 198.757,-63.5645 143.5521,-51.4232 109.4206,-43.6446"/>
<polygon fill="#00ff00" stroke="#00ff00" stroke-width=".5071" points="110.065,-40.2016 99.5359,-41.3794 108.5014,-47.0248 110.065,-40.2016"/>
</g>
<!-- 279&#45;&gt;backward -->
<g id="edge31" class="edge">
<title>279&#45;&gt;backward</title>
<path fill="none" stroke="#ff0000" stroke-width=".1481" d="M213.3374,-123.7131C226.0323,-109.5326 244.8889,-88.4697 260.9354,-70.5455"/>
<polygon fill="#ff0000" stroke="#ff0000" stroke-width=".1481" points="263.5519,-72.8702 267.6142,-63.0851 258.3365,-68.2011 263.5519,-72.8702"/>
</g>
<!-- 153&#45;&gt;none -->
<g id="edge29" class="edge">
<title>153&#45;&gt;none</title>
<path fill="none" stroke="#ff0000" stroke-width=".3278" d="M426.695,-211.8112C417.081,-199.2235 403.8287,-181.8722 392.7544,-167.3725"/>
<polygon fill="#ff0000" stroke="#ff0000" stroke-width=".3278" points="395.381,-165.0452 386.5297,-159.2224 389.818,-169.2941 395.381,-165.0452"/>
</g>
</g>
</svg>
