<?xml version="1.0" encoding="UTF-8" standalone="no"?>
<!DOCTYPE svg PUBLIC "-//W3C//DTD SVG 1.1//EN"
 "http://www.w3.org/Graphics/SVG/1.1/DTD/svg11.dtd">
<!-- Generated by graphviz version 2.40.1 (20161225.0304)
 -->
<!-- Title: %3 Pages: 1 -->
<svg width="2085pt" height="662pt"
 viewBox="0.00 0.00 2084.69 662.02" xmlns="http://www.w3.org/2000/svg" xmlns:xlink="http://www.w3.org/1999/xlink">
<g id="graph0" class="graph" transform="scale(1 1) rotate(0) translate(4 658.0214)">
<title>%3</title>
<polygon fill="#ffffff" stroke="transparent" points="-4,4 -4,-658.0214 2080.6884,-658.0214 2080.6884,4 -4,4"/>
<!-- A_agent -->
<g id="node1" class="node">
<title>A_agent</title>
<polygon fill="#d3d3d3" stroke="#000000" points="602.5748,-584.2727 555.5748,-584.2727 555.5748,-566.2727 602.5748,-566.2727 602.5748,-584.2727"/>
<text text-anchor="middle" x="579.0748" y="-573.0727" font-family="Times,serif" font-size="9.00" fill="#000000">A_agent</text>
</g>
<!-- none -->
<g id="node18" class="node">
<title>none</title>
<ellipse fill="#add8e6" stroke="#000000" cx="594.0748" cy="-392.964" rx="24.0833" ry="24.0833"/>
<text text-anchor="middle" x="594.0748" y="-390.764" font-family="Times,serif" font-size="9.00" fill="#000000">none</text>
</g>
<!-- A_agent&#45;&gt;none -->
<g id="edge52" class="edge">
<title>A_agent&#45;&gt;none</title>
<path fill="none" stroke="#ff0000" stroke-width=".1759" stroke-dasharray="1,5" d="M575.0048,-566.034C570.0878,-554.3219 562.0991,-533.381 559.0748,-514.524 555.5912,-492.8027 554.1438,-486.4656 559.0748,-465.0265 562.4534,-450.3368 569.244,-435.1698 575.9522,-422.5622"/>
<polygon fill="#ff0000" stroke="#ff0000" stroke-width=".1759" points="579.2069,-423.9109 581.0081,-413.4703 573.0892,-420.5089 579.2069,-423.9109"/>
</g>
<!-- forward -->
<g id="node21" class="node">
<title>forward</title>
<ellipse fill="#add8e6" stroke="#000000" cx="1374.0748" cy="-31.8198" rx="31.6406" ry="31.6406"/>
<text text-anchor="middle" x="1374.0748" y="-29.6198" font-family="Times,serif" font-size="9.00" fill="#000000">forward</text>
</g>
<!-- A_agent&#45;&gt;forward -->
<g id="edge55" class="edge">
<title>A_agent&#45;&gt;forward</title>
<path fill="none" stroke="#00ff00" stroke-width=".445" d="M570.1813,-566.0757C564.2111,-560.5334 555.8551,-553.9114 547.0748,-550.524 451.4124,-513.6174 169.7524,-575.1688 87.0748,-514.524 40.1051,-480.0712 38.0748,-451.2148 38.0748,-392.964 38.0748,-392.964 38.0748,-392.964 38.0748,-284.132 38.0748,-228.201 12.315,-201.7943 473.0748,-99.6396 640.1858,-62.5896 1177.1592,-39.4221 1331.9483,-33.3932"/>
<polygon fill="#00ff00" stroke="#00ff00" stroke-width=".445" points="1332.1463,-36.8882 1342.0037,-33.0048 1331.876,-29.8934 1332.1463,-36.8882"/>
</g>
<!-- backward -->
<g id="node22" class="node">
<title>backward</title>
<ellipse fill="#add8e6" stroke="#000000" cx="1460.0748" cy="-392.964" rx="36.125" ry="36.125"/>
<text text-anchor="middle" x="1460.0748" y="-390.764" font-family="Times,serif" font-size="9.00" fill="#000000">backward</text>
</g>
<!-- A_agent&#45;&gt;backward -->
<g id="edge8" class="edge">
<title>A_agent&#45;&gt;backward</title>
<path fill="none" stroke="#ff0000" stroke-width=".2417" stroke-dasharray="1,5" d="M602.6693,-571.759C639.576,-566.3871 713.2469,-556.1639 776.0748,-550.524 849.7755,-543.908 1386.1773,-564.1408 1441.0748,-514.524 1461.64,-495.9369 1466.2376,-464.9565 1465.7717,-438.9243"/>
<polygon fill="#ff0000" stroke="#ff0000" stroke-width=".2417" points="1469.2655,-438.7019 1465.344,-428.8596 1462.2718,-438.9992 1469.2655,-438.7019"/>
</g>
<!-- counterclockwise -->
<g id="node23" class="node">
<title>counterclockwise</title>
<ellipse fill="#add8e6" stroke="#000000" cx="684.0748" cy="-155.501" rx="55.7232" ry="55.7232"/>
<text text-anchor="middle" x="684.0748" y="-153.301" font-family="Times,serif" font-size="9.00" fill="#000000">counterclockwise</text>
</g>
<!-- A_agent&#45;&gt;counterclockwise -->
<g id="edge35" class="edge">
<title>A_agent&#45;&gt;counterclockwise</title>
<path fill="none" stroke="#ff0000" stroke-width=".4252" d="M570.1732,-566.0967C564.1998,-560.5627 555.8432,-553.9421 547.0748,-550.524 459.3838,-516.3397 189.1396,-583.473 125.0748,-514.524 44.1701,-427.4511 55.0816,-333.4111 137.0748,-247.3625 201.9941,-179.2322 486.6478,-161.5879 617.6562,-157.0528"/>
<polygon fill="#ff0000" stroke="#ff0000" stroke-width=".4252" points="618.0754,-160.5409 627.9543,-156.7124 617.8442,-153.5447 618.0754,-160.5409"/>
</g>
<!-- 1805 -->
<g id="node27" class="node">
<title>1805</title>
<ellipse fill="#ffffff" stroke="#000000" cx="1407.0748" cy="-489.7752" rx="25" ry="25"/>
<text text-anchor="middle" x="1407.0748" y="-487.5752" font-family="Times,serif" font-size="9.00" fill="#000000">1805</text>
</g>
<!-- A_agent&#45;&gt;1805 -->
<g id="edge88" class="edge">
<title>A_agent&#45;&gt;1805</title>
<path fill="none" stroke="#00ff00" stroke-width=".5367" d="M602.6735,-571.8053C639.5859,-566.4954 713.2643,-556.3538 776.0748,-550.524 908.6345,-538.2203 1249.0991,-560.3991 1374.0748,-514.524 1375.9908,-513.8207 1377.8892,-512.9672 1379.7501,-512.0058"/>
<polygon fill="#00ff00" stroke="#00ff00" stroke-width=".5367" points="1381.9919,-514.7343 1388.6511,-506.4938 1378.3065,-508.783 1381.9919,-514.7343"/>
</g>
<!-- A_lm -->
<g id="node2" class="node">
<title>A_lm</title>
<polygon fill="#d3d3d3" stroke="#000000" points="1633.5748,-584.2727 1596.5748,-584.2727 1596.5748,-566.2727 1633.5748,-566.2727 1633.5748,-584.2727"/>
<text text-anchor="middle" x="1615.0748" y="-573.0727" font-family="Times,serif" font-size="9.00" fill="#000000">A_lm</text>
</g>
<!-- left -->
<g id="node20" class="node">
<title>left</title>
<ellipse fill="#add8e6" stroke="#000000" cx="924.0748" cy="-392.964" rx="19.6" ry="19.6"/>
<text text-anchor="middle" x="924.0748" y="-390.764" font-family="Times,serif" font-size="9.00" fill="#000000">left</text>
</g>
<!-- A_lm&#45;&gt;left -->
<g id="edge12" class="edge">
<title>A_lm&#45;&gt;left</title>
<path fill="none" stroke="#ff0000" stroke-width=".2603" stroke-dasharray="1,5" d="M1596.4571,-574.7367C1542.1368,-572.6301 1379.863,-562.4616 1256.0748,-514.524 1218.1371,-499.8324 1217.0575,-479.6013 1179.0748,-465.0265 1086.1634,-429.3743 1045.9682,-475.6994 958.0748,-429.0265 952.2896,-425.9544 946.9385,-421.5206 942.275,-416.8065"/>
<polygon fill="#ff0000" stroke="#ff0000" stroke-width=".2603" points="944.8368,-414.4209 935.5489,-409.3234 939.6307,-419.1004 944.8368,-414.4209"/>
</g>
<!-- A_lm&#45;&gt;forward -->
<g id="edge34" class="edge">
<title>A_lm&#45;&gt;forward</title>
<path fill="none" stroke="#ff0000" stroke-width=".3976" stroke-dasharray="1,5" d="M1633.7504,-573.204C1676.4205,-567.9597 1783.6563,-551.8216 1865.0748,-514.524 1949.5203,-475.8396 2035.0748,-485.8485 2035.0748,-392.964 2035.0748,-392.964 2035.0748,-392.964 2035.0748,-284.132 2035.0748,-200.135 2056.6372,-155.6882 1994.0748,-99.6396 1951.0344,-61.0804 1548.6703,-39.6704 1416.1634,-33.6207"/>
<polygon fill="#ff0000" stroke="#ff0000" stroke-width=".3976" points="1416.1517,-30.1167 1406.0042,-33.163 1415.8365,-37.1096 1416.1517,-30.1167"/>
</g>
<!-- A_lm&#45;&gt;backward -->
<g id="edge37" class="edge">
<title>A_lm&#45;&gt;backward</title>
<path fill="none" stroke="#00ff00" stroke-width=".9616" stroke-dasharray="1,5" d="M1619.3344,-566.1824C1628.184,-545.8104 1645.9136,-495.8722 1623.0748,-465.0265 1590.4472,-420.96 1553.5605,-454.6303 1505.0748,-429.0265 1501.7826,-427.2879 1498.4972,-425.2935 1495.2863,-423.1543"/>
<polygon fill="#00ff00" stroke="#00ff00" stroke-width=".9616" points="1497.1759,-420.2026 1487.0068,-417.2294 1493.1023,-425.8952 1497.1759,-420.2026"/>
</g>
<!-- 1162 -->
<g id="node26" class="node">
<title>1162</title>
<ellipse fill="#ffffff" stroke="#000000" cx="1648.0748" cy="-392.964" rx="25" ry="25"/>
<text text-anchor="middle" x="1648.0748" y="-390.764" font-family="Times,serif" font-size="9.00" fill="#000000">1162</text>
</g>
<!-- A_lm&#45;&gt;1162 -->
<g id="edge69" class="edge">
<title>A_lm&#45;&gt;1162</title>
<path fill="none" stroke="#00ff00" stroke-width=".2228" d="M1633.6945,-573.2817C1683.9969,-567.4818 1820.6169,-548.8018 1847.0748,-514.524 1860.5166,-497.1093 1859.7076,-483.0366 1847.0748,-465.0265 1827.7295,-437.4464 1733.9996,-412.4044 1682.3705,-400.4146"/>
<polygon fill="#00ff00" stroke="#00ff00" stroke-width=".2228" points="1682.8653,-396.9376 1672.3373,-398.1258 1681.3084,-403.7623 1682.8653,-396.9376"/>
</g>
<!-- 1459 -->
<g id="node31" class="node">
<title>1459</title>
<ellipse fill="#ffffff" stroke="#000000" cx="1039.0748" cy="-489.7752" rx="25" ry="25"/>
<text text-anchor="middle" x="1039.0748" y="-487.5752" font-family="Times,serif" font-size="9.00" fill="#000000">1459</text>
</g>
<!-- A_lm&#45;&gt;1459 -->
<g id="edge79" class="edge">
<title>A_lm&#45;&gt;1459</title>
<path fill="none" stroke="#ff0000" stroke-width=".1011" d="M1596.5261,-574.4502C1530.0052,-571.2033 1297.4814,-557.2894 1111.0748,-514.524 1097.9904,-511.5221 1083.9555,-507.0068 1071.7838,-502.6514"/>
<polygon fill="#ff0000" stroke="#ff0000" stroke-width=".1011" points="1072.6529,-499.2416 1062.0595,-499.0672 1070.232,-505.8097 1072.6529,-499.2416"/>
</g>
<!-- 1108 -->
<g id="node39" class="node">
<title>1108</title>
<ellipse fill="#ffffff" stroke="#000000" cx="1589.0748" cy="-489.7752" rx="25" ry="25"/>
<text text-anchor="middle" x="1589.0748" y="-487.5752" font-family="Times,serif" font-size="9.00" fill="#000000">1108</text>
</g>
<!-- A_lm&#45;&gt;1108 -->
<g id="edge68" class="edge">
<title>A_lm&#45;&gt;1108</title>
<path fill="none" stroke="#ff0000" stroke-width=".6641" d="M1612.2924,-566.123C1609.1974,-555.9457 1604.0153,-538.9051 1599.3312,-523.5018"/>
<polygon fill="#ff0000" stroke="#ff0000" stroke-width=".6641" points="1602.61,-522.2538 1596.3518,-513.7047 1595.9128,-524.2905 1602.61,-522.2538"/>
</g>
<!-- B_agent -->
<g id="node3" class="node">
<title>B_agent</title>
<polygon fill="#d3d3d3" stroke="#000000" points="470.0748,-584.2727 424.0748,-584.2727 424.0748,-566.2727 470.0748,-566.2727 470.0748,-584.2727"/>
<text text-anchor="middle" x="447.0748" y="-573.0727" font-family="Times,serif" font-size="9.00" fill="#000000">B_agent</text>
</g>
<!-- B_agent&#45;&gt;none -->
<g id="edge29" class="edge">
<title>B_agent&#45;&gt;none</title>
<path fill="none" stroke="#00ff00" stroke-width=".1972" stroke-dasharray="1,5" d="M444.5043,-566.1539C439.3365,-545.7236 430.0434,-495.6736 453.0748,-465.0265 482.2081,-426.2598 514.6759,-454.2799 556.0748,-429.0265 561.1485,-425.9315 566.1078,-422.067 570.6806,-418.0274"/>
<polygon fill="#00ff00" stroke="#00ff00" stroke-width=".1972" points="573.0831,-420.5727 577.9634,-411.1688 568.2839,-415.4768 573.0831,-420.5727"/>
</g>
<!-- B_agent&#45;&gt;left -->
<g id="edge24" class="edge">
<title>B_agent&#45;&gt;left</title>
<path fill="none" stroke="#ff0000" stroke-width=".3399" d="M455.9868,-566.1231C461.9644,-560.5997 470.3216,-553.9809 479.0748,-550.524 558.379,-519.2036 790.3818,-562.1959 861.0748,-514.524 877.8633,-503.2026 900.2098,-453.1085 913.2802,-420.8648"/>
<polygon fill="#ff0000" stroke="#ff0000" stroke-width=".3399" points="916.5641,-422.0788 917.0223,-411.4939 910.0632,-419.4828 916.5641,-422.0788"/>
</g>
<!-- B_agent&#45;&gt;forward -->
<g id="edge39" class="edge">
<title>B_agent&#45;&gt;forward</title>
<path fill="none" stroke="#ff0000" stroke-width=".5956" d="M423.8312,-574.832C346.8668,-572.9188 101.8788,-563.0594 43.0748,-514.524 -1.1222,-478.0448 .0748,-450.2712 .0748,-392.964 .0748,-392.964 .0748,-392.964 .0748,-284.132 .0748,-194.9343 5.9268,-150.6847 79.0748,-99.6396 131.6399,-62.958 1115.8052,-37.8626 1332.2224,-32.7739"/>
<polygon fill="#ff0000" stroke="#ff0000" stroke-width=".5956" points="1332.3146,-36.2728 1342.23,-32.54 1332.151,-29.2747 1332.3146,-36.2728"/>
</g>
<!-- 2110 -->
<g id="node35" class="node">
<title>2110</title>
<ellipse fill="#ffffff" stroke="#000000" cx="487.0748" cy="-489.7752" rx="25" ry="25"/>
<text text-anchor="middle" x="487.0748" y="-487.5752" font-family="Times,serif" font-size="9.00" fill="#000000">2110</text>
</g>
<!-- B_agent&#45;&gt;2110 -->
<g id="edge99" class="edge">
<title>B_agent&#45;&gt;2110</title>
<path fill="none" stroke="#00ff00" stroke-width=".285" d="M451.3555,-566.123C456.3424,-555.4638 464.8517,-537.2758 472.314,-521.3255"/>
<polygon fill="#00ff00" stroke="#00ff00" stroke-width=".285" points="475.4847,-522.8075 476.5522,-512.2666 469.1443,-519.8411 475.4847,-522.8075"/>
</g>
<!-- B_lm -->
<g id="node4" class="node">
<title>B_lm</title>
<polygon fill="#d3d3d3" stroke="#000000" points="851.5748,-498.7752 814.5748,-498.7752 814.5748,-480.7752 851.5748,-480.7752 851.5748,-498.7752"/>
<text text-anchor="middle" x="833.0748" y="-487.5752" font-family="Times,serif" font-size="9.00" fill="#000000">B_lm</text>
</g>
<!-- B_lm&#45;&gt;left -->
<g id="edge50" class="edge">
<title>B_lm&#45;&gt;left</title>
<path fill="none" stroke="#00ff00" stroke-width=".8015" stroke-dasharray="1,5" d="M841.8003,-480.4926C855.8431,-465.553 883.8448,-435.7631 903.2547,-415.1137"/>
<polygon fill="#00ff00" stroke="#00ff00" stroke-width=".8015" points="905.9272,-417.3807 910.226,-407.6972 900.8268,-412.5864 905.9272,-417.3807"/>
</g>
<!-- B_lm&#45;&gt;forward -->
<g id="edge6" class="edge">
<title>B_lm&#45;&gt;forward</title>
<path fill="none" stroke="#ff0000" stroke-width=".9414" stroke-dasharray="1,5" d="M835.7013,-480.4747C851.7864,-423.7969 937.3409,-126.4037 969.0748,-99.6396 1023.5174,-53.7232 1239.6764,-38.1683 1331.9602,-33.5516"/>
<polygon fill="#ff0000" stroke="#ff0000" stroke-width=".9414" points="1332.2414,-37.0422 1342.0616,-33.0654 1331.9048,-30.0503 1332.2414,-37.0422"/>
</g>
<!-- B_lm&#45;&gt;backward -->
<g id="edge36" class="edge">
<title>B_lm&#45;&gt;backward</title>
<path fill="none" stroke="#ff0000" stroke-width=".1302" d="M851.7038,-481.1651C864.6927,-475.5695 882.5831,-468.6618 899.0748,-465.0265 1107.1262,-419.1652 1170.2636,-480.1905 1377.0748,-429.0265 1391.0655,-425.5653 1405.6871,-419.954 1418.6909,-414.178"/>
<polygon fill="#ff0000" stroke="#ff0000" stroke-width=".1302" points="1420.2176,-417.3283 1427.8417,-409.9714 1417.2938,-410.9682 1420.2176,-417.3283"/>
</g>
<!-- B_lm&#45;&gt;counterclockwise -->
<g id="edge20" class="edge">
<title>B_lm&#45;&gt;counterclockwise</title>
<path fill="none" stroke="#00ff00" stroke-width=".1449" stroke-dasharray="1,5" d="M822.4791,-480.4773C810.3985,-469.3502 790.8098,-449.6248 779.0748,-429.0265 737.1203,-355.3842 749.816,-327.0952 721.0748,-247.3625 717.4591,-237.3318 713.4238,-226.7701 709.3845,-216.5233"/>
<polygon fill="#00ff00" stroke="#00ff00" stroke-width=".1449" points="712.6343,-215.2238 705.6857,-207.2259 706.1301,-217.8114 712.6343,-215.2238"/>
</g>
<!-- 897 -->
<g id="node25" class="node">
<title>897</title>
<ellipse fill="#ffffff" stroke="#000000" cx="493.0748" cy="-284.132" rx="21.4286" ry="21.4286"/>
<text text-anchor="middle" x="493.0748" y="-281.932" font-family="Times,serif" font-size="9.00" fill="#000000">897</text>
</g>
<!-- B_lm&#45;&gt;897 -->
<g id="edge61" class="edge">
<title>B_lm&#45;&gt;897</title>
<path fill="none" stroke="#ff0000" stroke-width=".3058" d="M823.5852,-480.6265C818.324,-475.7532 811.5522,-469.7976 805.0748,-465.0265 802.7458,-463.311 629.5826,-358.3431 627.0748,-356.9016 590.7352,-336.0135 548.0885,-313.1273 520.8371,-298.7048"/>
<polygon fill="#ff0000" stroke="#ff0000" stroke-width=".3058" points="522.3529,-295.5472 511.8756,-293.9735 519.0846,-301.7375 522.3529,-295.5472"/>
</g>
<!-- C_agent -->
<g id="node5" class="node">
<title>C_agent</title>
<polygon fill="#d3d3d3" stroke="#000000" points="796.0748,-498.7752 750.0748,-498.7752 750.0748,-480.7752 796.0748,-480.7752 796.0748,-498.7752"/>
<text text-anchor="middle" x="773.0748" y="-487.5752" font-family="Times,serif" font-size="9.00" fill="#000000">C_agent</text>
</g>
<!-- C_agent&#45;&gt;left -->
<g id="edge14" class="edge">
<title>C_agent&#45;&gt;left</title>
<path fill="none" stroke="#00ff00" stroke-width=".1974" d="M784.7904,-480.5617C791.01,-475.7804 798.8437,-469.9298 806.0748,-465.0265 836.7684,-444.2137 873.3907,-422.2766 897.6075,-408.1521"/>
<polygon fill="#00ff00" stroke="#00ff00" stroke-width=".1974" points="899.6602,-411.0076 906.5526,-402.9612 896.1467,-404.9532 899.6602,-411.0076"/>
</g>
<!-- C_agent&#45;&gt;counterclockwise -->
<g id="edge16" class="edge">
<title>C_agent&#45;&gt;counterclockwise</title>
<path fill="none" stroke="#00ff00" stroke-width=".2299" d="M768.282,-480.531C762.368,-468.8132 752.3301,-447.8664 746.0748,-429.0265 722.9644,-359.4209 705.5856,-277.0325 695.1942,-221.0004"/>
<polygon fill="#00ff00" stroke="#00ff00" stroke-width=".2299" points="698.5802,-220.0593 693.3355,-210.8537 691.6948,-221.3207 698.5802,-220.0593"/>
</g>
<!-- 1191 -->
<g id="node29" class="node">
<title>1191</title>
<ellipse fill="#ffffff" stroke="#000000" cx="813.0748" cy="-392.964" rx="25" ry="25"/>
<text text-anchor="middle" x="813.0748" y="-390.764" font-family="Times,serif" font-size="9.00" fill="#000000">1191</text>
</g>
<!-- C_agent&#45;&gt;1191 -->
<g id="edge77" class="edge">
<title>C_agent&#45;&gt;1191</title>
<path fill="none" stroke="#ff0000" stroke-width=".622" d="M776.9102,-480.4926C782.1293,-467.8609 791.7349,-444.6127 799.7352,-425.2495"/>
<polygon fill="#ff0000" stroke="#ff0000" stroke-width=".622" points="803.0399,-426.4167 803.6239,-415.8379 796.5704,-423.7436 803.0399,-426.4167"/>
</g>
<!-- C_lm -->
<g id="node6" class="node">
<title>C_lm</title>
<polygon fill="#d3d3d3" stroke="#000000" points="1364.5748,-498.7752 1327.5748,-498.7752 1327.5748,-480.7752 1364.5748,-480.7752 1364.5748,-498.7752"/>
<text text-anchor="middle" x="1346.0748" y="-487.5752" font-family="Times,serif" font-size="9.00" fill="#000000">C_lm</text>
</g>
<!-- right -->
<g id="node19" class="node">
<title>right</title>
<ellipse fill="#add8e6" stroke="#000000" cx="1135.0748" cy="-284.132" rx="23.1702" ry="23.1702"/>
<text text-anchor="middle" x="1135.0748" y="-281.932" font-family="Times,serif" font-size="9.00" fill="#000000">right</text>
</g>
<!-- C_lm&#45;&gt;right -->
<g id="edge48" class="edge">
<title>C_lm&#45;&gt;right</title>
<path fill="none" stroke="#00ff00" stroke-width=".1212" stroke-dasharray="1,5" d="M1340.1231,-480.4131C1332.6545,-468.5735 1319.5545,-447.5013 1309.0748,-429.0265 1291.1981,-397.5112 1296.6129,-382.6037 1271.0748,-356.9016 1241.3989,-327.0351 1196.8757,-306.4059 1166.9363,-294.9332"/>
<polygon fill="#00ff00" stroke="#00ff00" stroke-width=".1212" points="1167.9776,-291.5865 1157.3846,-291.3933 1165.5451,-298.1503 1167.9776,-291.5865"/>
</g>
<!-- C_lm&#45;&gt;forward -->
<g id="edge92" class="edge">
<title>C_lm&#45;&gt;forward</title>
<path fill="none" stroke="#00ff00" stroke-width=".9499" d="M1352.6268,-480.4403C1360.2433,-468.9648 1372.3698,-448.5977 1377.0748,-429.0265 1407.495,-302.4885 1391.4344,-146.6564 1380.8912,-73.486"/>
<polygon fill="#00ff00" stroke="#00ff00" stroke-width=".9499" points="1384.3104,-72.6822 1379.3818,-63.3035 1377.386,-73.7087 1384.3104,-72.6822"/>
</g>
<!-- C_lm&#45;&gt;backward -->
<g id="edge30" class="edge">
<title>C_lm&#45;&gt;backward</title>
<path fill="none" stroke="#ff0000" stroke-width=".4632" stroke-dasharray="1,5" d="M1355.7162,-480.7208C1360.8202,-475.983 1367.2264,-470.1233 1373.0748,-465.0265 1389.5689,-450.6519 1408.2083,-435.1213 1423.9912,-422.1718"/>
<polygon fill="#ff0000" stroke="#ff0000" stroke-width=".4632" points="1426.4336,-424.6958 1431.9578,-415.6551 1422.0015,-419.2776 1426.4336,-424.6958"/>
</g>
<!-- C_lm&#45;&gt;counterclockwise -->
<g id="edge26" class="edge">
<title>C_lm&#45;&gt;counterclockwise</title>
<path fill="none" stroke="#ff0000" stroke-width=".362" stroke-dasharray="1,5" d="M1338.5161,-480.5732C1333.5598,-475.1746 1326.617,-468.7098 1319.0748,-465.0265 1232.4098,-422.7027 1194.946,-464.0306 1105.0748,-429.0265 1027.8123,-398.9333 832.8576,-262.4918 737.8221,-194.3985"/>
<polygon fill="#ff0000" stroke="#ff0000" stroke-width=".362" points="739.6617,-191.4107 729.4963,-188.4247 735.5809,-197.0982 739.6617,-191.4107"/>
</g>
<!-- clockwise -->
<g id="node24" class="node">
<title>clockwise</title>
<ellipse fill="#add8e6" stroke="#000000" cx="1739.0748" cy="-284.132" rx="36.5405" ry="36.5405"/>
<text text-anchor="middle" x="1739.0748" y="-281.932" font-family="Times,serif" font-size="9.00" fill="#000000">clockwise</text>
</g>
<!-- C_lm&#45;&gt;clockwise -->
<g id="edge38" class="edge">
<title>C_lm&#45;&gt;clockwise</title>
<path fill="none" stroke="#00ff00" stroke-width=".1267" d="M1353.5696,-480.4379C1358.5018,-474.9883 1365.4417,-468.5175 1373.0748,-465.0265 1498.8108,-407.5207 1572.5098,-513.3589 1682.0748,-429.0265 1690.5348,-422.5148 1710.2592,-368.8642 1724.1241,-328.732"/>
<polygon fill="#00ff00" stroke="#00ff00" stroke-width=".1267" points="1727.489,-329.7094 1727.4246,-319.1147 1720.8681,-327.4371 1727.489,-329.7094"/>
</g>
<!-- C_lm&#45;&gt;1191 -->
<g id="edge71" class="edge">
<title>C_lm&#45;&gt;1191</title>
<path fill="none" stroke="#ff0000" stroke-width=".1708" d="M1338.6178,-480.3536C1333.6999,-474.8723 1326.7616,-468.3977 1319.0748,-465.0265 1145.8773,-389.0664 1078.3406,-475.7272 895.0748,-429.0265 877.6438,-424.5846 859.2248,-416.7949 844.2689,-409.5893"/>
<polygon fill="#ff0000" stroke="#ff0000" stroke-width=".1708" points="845.4992,-406.2925 834.9861,-404.9796 842.3859,-412.5621 845.4992,-406.2925"/>
</g>
<!-- 2249 -->
<g id="node38" class="node">
<title>2249</title>
<ellipse fill="#ffffff" stroke="#000000" cx="1237.0748" cy="-392.964" rx="25" ry="25"/>
<text text-anchor="middle" x="1237.0748" y="-390.764" font-family="Times,serif" font-size="9.00" fill="#000000">2249</text>
</g>
<!-- C_lm&#45;&gt;2249 -->
<g id="edge102" class="edge">
<title>C_lm&#45;&gt;2249</title>
<path fill="none" stroke="#00ff00" stroke-width=".2252" d="M1336.4224,-480.7335C1331.3153,-475.9991 1324.9098,-470.1387 1319.0748,-465.0265 1300.3277,-448.6015 1294.7861,-445.4923 1276.0748,-429.0265 1271.748,-425.2189 1267.2092,-421.1209 1262.82,-417.1014"/>
<polygon fill="#00ff00" stroke="#00ff00" stroke-width=".2252" points="1264.8812,-414.2409 1255.1589,-410.0306 1260.1336,-419.3849 1264.8812,-414.2409"/>
</g>
<!-- D_agent -->
<g id="node7" class="node">
<title>D_agent</title>
<polygon fill="#d3d3d3" stroke="#000000" points="1782.5748,-498.7752 1735.5748,-498.7752 1735.5748,-480.7752 1782.5748,-480.7752 1782.5748,-498.7752"/>
<text text-anchor="middle" x="1759.0748" y="-487.5752" font-family="Times,serif" font-size="9.00" fill="#000000">D_agent</text>
</g>
<!-- D_agent&#45;&gt;none -->
<g id="edge45" class="edge">
<title>D_agent&#45;&gt;none</title>
<path fill="none" stroke="#ff0000" stroke-width=".5802" stroke-dasharray="1,5" d="M1750.4914,-480.7073C1744.5235,-475.066 1736.0534,-468.2849 1727.0748,-465.0265 1627.9889,-429.0669 883.7849,-441.1467 779.0748,-429.0265 725.6736,-422.8453 664.6244,-409.7462 627.7346,-401.1537"/>
<polygon fill="#ff0000" stroke="#ff0000" stroke-width=".5802" points="628.0834,-397.64 617.5471,-398.7518 626.477,-404.4532 628.0834,-397.64"/>
</g>
<!-- D_agent&#45;&gt;left -->
<g id="edge13" class="edge">
<title>D_agent&#45;&gt;left</title>
<path fill="none" stroke="#00ff00" stroke-width=".4573" d="M1750.4697,-480.766C1744.4927,-475.1494 1736.0206,-468.3739 1727.0748,-465.0265 1597.4023,-416.5042 1242.4091,-446.5957 1105.0748,-429.0265 1050.9817,-422.1063 988.8108,-408.4477 953.2129,-400.0694"/>
<polygon fill="#00ff00" stroke="#00ff00" stroke-width=".4573" points="954.0197,-396.6637 943.4811,-397.7542 952.3995,-403.4737 954.0197,-396.6637"/>
</g>
<!-- D_agent&#45;&gt;forward -->
<g id="edge53" class="edge">
<title>D_agent&#45;&gt;forward</title>
<path fill="none" stroke="#00ff00" stroke-width=".3211" d="M1770.323,-480.5446C1776.5425,-475.6473 1784.5209,-469.6949 1792.0748,-465.0265 1822.5089,-446.2177 1845.2657,-459.4603 1864.0748,-429.0265 1910.362,-354.1322 1851.5852,-305.0516 1785.0748,-247.3625 1666.8773,-144.8415 1491.5003,-73.8296 1413.7077,-45.5168"/>
<polygon fill="#00ff00" stroke="#00ff00" stroke-width=".3211" points="1414.8682,-42.2147 1404.2738,-42.1191 1412.4963,-48.8006 1414.8682,-42.2147"/>
</g>
<!-- D_agent&#45;&gt;backward -->
<g id="edge54" class="edge">
<title>D_agent&#45;&gt;backward</title>
<path fill="none" stroke="#00ff00" stroke-width=".2357" stroke-dasharray="1,5" d="M1749.8102,-480.5789C1743.8209,-475.1825 1735.5788,-468.7179 1727.0748,-465.0265 1635.385,-425.2258 1596.4174,-469.6177 1505.0748,-429.0265 1501.6725,-427.5146 1498.3092,-425.6809 1495.0451,-423.6509"/>
<polygon fill="#00ff00" stroke="#00ff00" stroke-width=".2357" points="1496.9034,-420.6813 1486.6788,-417.905 1492.9405,-426.4515 1496.9034,-420.6813"/>
</g>
<!-- D_agent&#45;&gt;clockwise -->
<g id="edge40" class="edge">
<title>D_agent&#45;&gt;clockwise</title>
<path fill="none" stroke="#ff0000" stroke-width=".9911" stroke-dasharray="1,5" d="M1759.1171,-480.7163C1759.1193,-459.174 1758.5475,-403.225 1753.0748,-356.9016 1752.055,-348.2695 1750.5984,-339.1252 1749.0065,-330.3403"/>
<polygon fill="#ff0000" stroke="#ff0000" stroke-width=".9911" points="1752.3942,-329.4185 1747.0937,-320.2448 1745.5166,-330.7216 1752.3942,-329.4185"/>
</g>
<!-- 2036 -->
<g id="node44" class="node">
<title>2036</title>
<ellipse fill="#ffffff" stroke="#000000" cx="1830.0748" cy="-392.964" rx="25" ry="25"/>
<text text-anchor="middle" x="1830.0748" y="-390.764" font-family="Times,serif" font-size="9.00" fill="#000000">2036</text>
</g>
<!-- D_agent&#45;&gt;2036 -->
<g id="edge96" class="edge">
<title>D_agent&#45;&gt;2036</title>
<path fill="none" stroke="#00ff00" stroke-width=".5261" d="M1765.8826,-480.4926C1775.7832,-466.9927 1794.5768,-441.367 1809.2812,-421.317"/>
<polygon fill="#00ff00" stroke="#00ff00" stroke-width=".5261" points="1812.2032,-423.2508 1815.2948,-413.1171 1806.5585,-419.1111 1812.2032,-423.2508"/>
</g>
<!-- D_lm -->
<g id="node8" class="node">
<title>D_lm</title>
<polygon fill="#d3d3d3" stroke="#000000" points="1837.5748,-498.7752 1800.5748,-498.7752 1800.5748,-480.7752 1837.5748,-480.7752 1837.5748,-498.7752"/>
<text text-anchor="middle" x="1819.0748" y="-487.5752" font-family="Times,serif" font-size="9.00" fill="#000000">D_lm</text>
</g>
<!-- D_lm&#45;&gt;left -->
<g id="edge32" class="edge">
<title>D_lm&#45;&gt;left</title>
<path fill="none" stroke="#00ff00" stroke-width=".2725" d="M1812.0957,-480.7643C1807.1714,-475.147 1800.0497,-468.3713 1792.0748,-465.0265 1651.0968,-405.897 1256.7675,-448.0118 1105.0748,-429.0265 1050.963,-422.254 988.7983,-408.5467 953.2066,-400.1192"/>
<polygon fill="#00ff00" stroke="#00ff00" stroke-width=".2725" points="954.0168,-396.7143 943.4767,-397.7896 952.3868,-403.5219 954.0168,-396.7143"/>
</g>
<!-- D_lm&#45;&gt;forward -->
<g id="edge4" class="edge">
<title>D_lm&#45;&gt;forward</title>
<path fill="none" stroke="#ff0000" stroke-width=".2365" d="M1837.7462,-484.1091C1861.5265,-475.9046 1902.1573,-458.3943 1924.0748,-429.0265 1968.2794,-369.7959 2019.2923,-154.7753 1970.0748,-99.6396 1933.228,-58.3621 1546.8001,-38.8789 1416.6143,-33.4519"/>
<polygon fill="#ff0000" stroke="#ff0000" stroke-width=".2365" points="1416.3908,-29.9399 1406.2558,-33.0274 1416.1041,-36.934 1416.3908,-29.9399"/>
</g>
<!-- D_lm&#45;&gt;backward -->
<g id="edge7" class="edge">
<title>D_lm&#45;&gt;backward</title>
<path fill="none" stroke="#00ff00" stroke-width=".2557" stroke-dasharray="1,5" d="M1811.5692,-480.4615C1806.6329,-475.0209 1799.6925,-468.5511 1792.0748,-465.0265 1675.4029,-411.0441 1623.4727,-479.1101 1505.0748,-429.0265 1501.6459,-427.576 1498.2636,-425.786 1494.9867,-423.7856"/>
<polygon fill="#00ff00" stroke="#00ff00" stroke-width=".2557" points="1496.8381,-420.8121 1486.5994,-418.0881 1492.9047,-426.6025 1496.8381,-420.8121"/>
</g>
<!-- 1217 -->
<g id="node37" class="node">
<title>1217</title>
<ellipse fill="#ffffff" stroke="#000000" cx="1936.0748" cy="-155.501" rx="25" ry="25"/>
<text text-anchor="middle" x="1936.0748" y="-153.301" font-family="Times,serif" font-size="9.00" fill="#000000">1217</text>
</g>
<!-- D_lm&#45;&gt;1217 -->
<g id="edge73" class="edge">
<title>D_lm&#45;&gt;1217</title>
<path fill="none" stroke="#ff0000" stroke-width=".5171" stroke-dasharray="1,5" d="M1837.6012,-480.7639C1855.9378,-470.7979 1883.2155,-452.9341 1897.0748,-429.0265 1941.1666,-352.9674 1942.1144,-245.6143 1939.0952,-190.7624"/>
<polygon fill="#ff0000" stroke="#ff0000" stroke-width=".5171" points="1942.5716,-190.2772 1938.45,-180.5169 1935.5855,-190.7171 1942.5716,-190.2772"/>
</g>
<!-- E_agent -->
<g id="node9" class="node">
<title>E_agent</title>
<polygon fill="#d3d3d3" stroke="#000000" points="368.0748,-498.7752 322.0748,-498.7752 322.0748,-480.7752 368.0748,-480.7752 368.0748,-498.7752"/>
<text text-anchor="middle" x="345.0748" y="-487.5752" font-family="Times,serif" font-size="9.00" fill="#000000">E_agent</text>
</g>
<!-- E_agent&#45;&gt;left -->
<g id="edge41" class="edge">
<title>E_agent&#45;&gt;left</title>
<path fill="none" stroke="#ff0000" stroke-width=".7934" d="M368.4932,-483.4514C390.2501,-477.8054 423.6313,-469.7234 453.0748,-465.0265 626.7198,-437.3258 677.3522,-475.0061 847.0748,-429.0265 864.8402,-424.2136 883.5665,-415.5341 898.1032,-407.8962"/>
<polygon fill="#ff0000" stroke="#ff0000" stroke-width=".7934" points="899.8723,-410.9185 906.9987,-403.0785 896.5387,-404.7632 899.8723,-410.9185"/>
</g>
<!-- E_agent&#45;&gt;forward -->
<g id="edge25" class="edge">
<title>E_agent&#45;&gt;forward</title>
<path fill="none" stroke="#ff0000" stroke-width=".3466" stroke-dasharray="1,5" d="M349.569,-480.7287C355.4547,-468.8691 366.0822,-447.412 375.0748,-429.0265 455.1223,-265.3688 453.0123,-174.5707 619.0748,-99.6396 684.2374,-70.2368 1182.694,-41.8883 1331.9667,-33.9865"/>
<polygon fill="#ff0000" stroke="#ff0000" stroke-width=".3466" points="1332.298,-37.474 1342.1002,-33.4532 1331.93,-30.4837 1332.298,-37.474"/>
</g>
<!-- E_agent&#45;&gt;backward -->
<g id="edge51" class="edge">
<title>E_agent&#45;&gt;backward</title>
<path fill="none" stroke="#00ff00" stroke-width=".4478" d="M368.4407,-483.092C390.1613,-477.1981 423.5188,-468.9538 453.0748,-465.0265 656.7735,-437.9595 1176.7382,-474.7542 1377.0748,-429.0265 1391.2492,-425.7911 1406.0215,-420.1826 1419.1073,-414.3393"/>
<polygon fill="#00ff00" stroke="#00ff00" stroke-width=".4478" points="1420.7058,-417.4562 1428.3051,-410.0737 1417.7606,-411.1058 1420.7058,-417.4562"/>
</g>
<!-- E_agent&#45;&gt;counterclockwise -->
<g id="edge46" class="edge">
<title>E_agent&#45;&gt;counterclockwise</title>
<path fill="none" stroke="#ff0000" stroke-width=".372" d="M360.4579,-480.6329C378.6395,-469.5022 409.4104,-449.6257 433.0748,-429.0265 513.6298,-358.9056 595.0649,-264.9591 642.4895,-207.4106"/>
<polygon fill="#ff0000" stroke="#ff0000" stroke-width=".372" points="645.3123,-209.4881 648.9519,-199.5381 639.9017,-205.0467 645.3123,-209.4881"/>
</g>
<!-- 571 -->
<g id="node34" class="node">
<title>571</title>
<ellipse fill="#ffffff" stroke="#000000" cx="345.0748" cy="-392.964" rx="21.4286" ry="21.4286"/>
<text text-anchor="middle" x="345.0748" y="-390.764" font-family="Times,serif" font-size="9.00" fill="#000000">571</text>
</g>
<!-- E_agent&#45;&gt;571 -->
<g id="edge95" class="edge">
<title>E_agent&#45;&gt;571</title>
<path fill="none" stroke="#ff0000" stroke-width=".2169" d="M345.0748,-480.4926C345.0748,-467.6553 345.0748,-443.8532 345.0748,-424.3073"/>
<polygon fill="#ff0000" stroke="#ff0000" stroke-width=".2169" points="348.5749,-424.2695 345.0748,-414.2696 341.5749,-424.2696 348.5749,-424.2695"/>
</g>
<!-- E_lm -->
<g id="node10" class="node">
<title>E_lm</title>
<polygon fill="#d3d3d3" stroke="#000000" points="1550.0748,-401.964 1514.0748,-401.964 1514.0748,-383.964 1550.0748,-383.964 1550.0748,-401.964"/>
<text text-anchor="middle" x="1532.0748" y="-390.764" font-family="Times,serif" font-size="9.00" fill="#000000">E_lm</text>
</g>
<!-- E_lm&#45;&gt;counterclockwise -->
<g id="edge28" class="edge">
<title>E_lm&#45;&gt;counterclockwise</title>
<path fill="none" stroke="#00ff00" stroke-width=".3953" stroke-dasharray="1,5" d="M1526.4126,-383.6739C1521.4153,-375.9455 1513.613,-364.9473 1505.0748,-356.9016 1440.7436,-296.2815 1422.4035,-276.8519 1339.0748,-247.3625 1183.3196,-192.2418 1132.5555,-235.2801 969.0748,-211.3625 892.9492,-200.2251 806.3197,-182.5185 748.7534,-170.0306"/>
<polygon fill="#00ff00" stroke="#00ff00" stroke-width=".3953" points="749.2232,-166.5509 738.7071,-167.8402 747.732,-173.3902 749.2232,-166.5509"/>
</g>
<!-- E_lm&#45;&gt;clockwise -->
<g id="edge9" class="edge">
<title>E_lm&#45;&gt;clockwise</title>
<path fill="none" stroke="#ff0000" stroke-width="2.9498" d="M1537.234,-383.8618C1542.1889,-375.8259 1550.3451,-364.273 1560.0748,-356.9016 1600.2066,-326.4969 1654.8082,-306.7309 1693.1186,-295.5799"/>
<polygon fill="#ff0000" stroke="#ff0000" stroke-width="2.9498" points="1694.3047,-298.8819 1702.9768,-292.7954 1692.4019,-292.1454 1694.3047,-298.8819"/>
</g>
<!-- F_agent -->
<g id="node11" class="node">
<title>F_agent</title>
<polygon fill="#d3d3d3" stroke="#000000" points="1309.5748,-498.7752 1264.5748,-498.7752 1264.5748,-480.7752 1309.5748,-480.7752 1309.5748,-498.7752"/>
<text text-anchor="middle" x="1287.0748" y="-487.5752" font-family="Times,serif" font-size="9.00" fill="#000000">F_agent</text>
</g>
<!-- F_agent&#45;&gt;none -->
<g id="edge19" class="edge">
<title>F_agent&#45;&gt;none</title>
<path fill="none" stroke="#00ff00" stroke-width=".7596" stroke-dasharray="1,5" d="M1264.4942,-483.6597C1242.7642,-477.9988 1208.9015,-469.7638 1179.0748,-465.0265 1002.7882,-437.0273 955.7963,-454.1355 779.0748,-429.0265 725.8516,-421.4644 664.7519,-408.7568 627.8032,-400.6219"/>
<polygon fill="#00ff00" stroke="#00ff00" stroke-width=".7596" points="628.119,-397.1069 617.5981,-398.3559 626.6016,-403.9404 628.119,-397.1069"/>
</g>
<!-- F_agent&#45;&gt;left -->
<g id="edge2" class="edge">
<title>F_agent&#45;&gt;left</title>
<path fill="none" stroke="#00ff00" stroke-width=".1486" d="M1264.399,-481.1213C1249.6757,-475.7956 1229.9653,-469.211 1212.0748,-465.0265 1101.054,-439.0594 1059.3224,-481.4557 958.0748,-429.0265 952.2581,-426.0144 946.8943,-421.6049 942.2284,-416.8953"/>
<polygon fill="#00ff00" stroke="#00ff00" stroke-width=".1486" points="944.7902,-414.5096 935.5059,-409.4054 939.5807,-419.1853 944.7902,-414.5096"/>
</g>
<!-- F_agent&#45;&gt;forward -->
<g id="edge11" class="edge">
<title>F_agent&#45;&gt;forward</title>
<path fill="none" stroke="#00ff00" stroke-width=".1167" d="M1268.4163,-480.755C1257.6498,-475.7468 1243.7685,-469.62 1231.0748,-465.0265 1176.3095,-445.2082 1140.5757,-475.1967 1105.0748,-429.0265 1055.8568,-365.0167 1067.9941,-320.0881 1103.0748,-247.3625 1151.6426,-146.677 1272.6412,-78.5367 1335.2196,-48.7859"/>
<polygon fill="#00ff00" stroke="#00ff00" stroke-width=".1167" points="1336.7981,-51.9116 1344.3773,-44.5085 1333.8357,-45.5694 1336.7981,-51.9116"/>
</g>
<!-- F_agent&#45;&gt;backward -->
<g id="edge3" class="edge">
<title>F_agent&#45;&gt;backward</title>
<path fill="none" stroke="#ff0000" stroke-width=".7702" d="M1297.9594,-480.5424C1303.9837,-475.6445 1311.7213,-469.6922 1319.0748,-465.0265 1350.879,-444.8472 1389.0281,-425.6262 1417.6204,-412.118"/>
<polygon fill="#ff0000" stroke="#ff0000" stroke-width=".7702" points="1419.3536,-415.1713 1426.9276,-407.7628 1416.3867,-408.8311 1419.3536,-415.1713"/>
</g>
<!-- 487 -->
<g id="node42" class="node">
<title>487</title>
<ellipse fill="#ffffff" stroke="#000000" cx="1309.0748" cy="-284.132" rx="21.4286" ry="21.4286"/>
<text text-anchor="middle" x="1309.0748" y="-281.932" font-family="Times,serif" font-size="9.00" fill="#000000">487</text>
</g>
<!-- F_agent&#45;&gt;487 -->
<g id="edge56" class="edge">
<title>F_agent&#45;&gt;487</title>
<path fill="none" stroke="#00ff00" stroke-width=".3213" d="M1273.9569,-480.7549C1250.8266,-464.7857 1205.0297,-432.8529 1203.0748,-429.0265 1188.4906,-400.4808 1188.1418,-385.2664 1203.0748,-356.9016 1219.0481,-326.5608 1254.0169,-306.4309 1279.4342,-295.1822"/>
<polygon fill="#00ff00" stroke="#00ff00" stroke-width=".3213" points="1281.1213,-298.2697 1288.9844,-291.1689 1278.4094,-291.8164 1281.1213,-298.2697"/>
</g>
<!-- 1524 -->
<g id="node43" class="node">
<title>1524</title>
<ellipse fill="#ffffff" stroke="#000000" cx="1343.0748" cy="-392.964" rx="25" ry="25"/>
<text text-anchor="middle" x="1343.0748" y="-390.764" font-family="Times,serif" font-size="9.00" fill="#000000">1524</text>
</g>
<!-- F_agent&#45;&gt;1524 -->
<g id="edge82" class="edge">
<title>F_agent&#45;&gt;1524</title>
<path fill="none" stroke="#00ff00" stroke-width=".365" d="M1292.4443,-480.4926C1299.9936,-467.4416 1314.0984,-443.0577 1325.507,-423.3348"/>
<polygon fill="#00ff00" stroke="#00ff00" stroke-width=".365" points="1328.5483,-425.067 1330.5258,-414.6583 1322.489,-421.562 1328.5483,-425.067"/>
</g>
<!-- F_lm -->
<g id="node12" class="node">
<title>F_lm</title>
<polygon fill="#d3d3d3" stroke="#000000" points="531.0748,-654.0214 495.0748,-654.0214 495.0748,-636.0214 531.0748,-636.0214 531.0748,-654.0214"/>
<text text-anchor="middle" x="513.0748" y="-642.8214" font-family="Times,serif" font-size="9.00" fill="#000000">F_lm</text>
</g>
<!-- F_lm&#45;&gt;none -->
<g id="edge5" class="edge">
<title>F_lm&#45;&gt;none</title>
<path fill="none" stroke="#ff0000" stroke-width=".6502" stroke-dasharray="1,5" d="M494.764,-642.5689C471.6129,-638.3781 432.6584,-627.4443 415.0748,-600.0214 397.3663,-572.4038 432.8463,-466.3419 434.0748,-465.0265 472.6627,-423.7103 507.1009,-457.2684 556.0748,-429.0265 561.2232,-426.0575 566.2191,-422.2547 570.805,-418.2371"/>
<polygon fill="#ff0000" stroke="#ff0000" stroke-width=".6502" points="573.2056,-420.7841 578.0901,-411.3823 568.4087,-415.686 573.2056,-420.7841"/>
</g>
<!-- F_lm&#45;&gt;forward -->
<g id="edge42" class="edge">
<title>F_lm&#45;&gt;forward</title>
<path fill="none" stroke="#00ff00" stroke-width="1.1162" d="M531.3533,-644.6809C675.4449,-641.9544 1626.0389,-623.175 1751.0748,-600.0214 1899.8129,-572.4788 2073.0748,-641.042 2073.0748,-489.7752 2073.0748,-489.7752 2073.0748,-489.7752 2073.0748,-284.132 2073.0748,-199.9377 2093.2383,-155.3088 2030.0748,-99.6396 1983.9792,-59.0132 1553.9572,-38.8342 1416.2681,-33.3761"/>
<polygon fill="#00ff00" stroke="#00ff00" stroke-width="1.1162" points="1416.243,-29.8726 1406.114,-32.9794 1415.9697,-36.8673 1416.243,-29.8726"/>
</g>
<!-- F_lm&#45;&gt;clockwise -->
<g id="edge22" class="edge">
<title>F_lm&#45;&gt;clockwise</title>
<path fill="none" stroke="#ff0000" stroke-width=".181" d="M531.475,-644.6518C668.6751,-641.8482 1529.8721,-623.4062 1643.0748,-600.0214 1746.6195,-578.6317 1805.236,-601.6924 1865.0748,-514.524 1877.4118,-496.5524 1889.4888,-400.634 1864.0748,-356.9016 1846.9198,-327.3812 1812.7257,-308.691 1784.4318,-297.6541"/>
<polygon fill="#ff0000" stroke="#ff0000" stroke-width=".181" points="1785.3008,-294.2441 1774.7075,-294.0642 1782.8765,-300.8109 1785.3008,-294.2441"/>
</g>
<!-- F_lm&#45;&gt;897 -->
<g id="edge70" class="edge">
<title>F_lm&#45;&gt;897</title>
<path fill="none" stroke="#ff0000" stroke-width=".3498" stroke-dasharray="1,5" d="M494.8579,-641.5512C448.5267,-631.6011 326.7822,-598.1342 283.0748,-514.524 270.272,-490.0327 265.2351,-386.5985 287.0748,-356.9016 297.8415,-342.2614 407.9388,-308.7582 462.6095,-292.8396"/>
<polygon fill="#ff0000" stroke="#ff0000" stroke-width=".3498" points="463.8159,-296.1341 472.4478,-289.9907 461.8689,-289.4104 463.8159,-296.1341"/>
</g>
<!-- 1344 -->
<g id="node36" class="node">
<title>1344</title>
<ellipse fill="#ffffff" stroke="#000000" cx="513.0748" cy="-575.2727" rx="25" ry="25"/>
<text text-anchor="middle" x="513.0748" y="-573.0727" font-family="Times,serif" font-size="9.00" fill="#000000">1344</text>
</g>
<!-- F_lm&#45;&gt;1344 -->
<g id="edge75" class="edge">
<title>F_lm&#45;&gt;1344</title>
<path fill="none" stroke="#ff0000" stroke-width=".1449" d="M513.0748,-635.903C513.0748,-629.2863 513.0748,-619.8748 513.0748,-610.4351"/>
<polygon fill="#ff0000" stroke="#ff0000" stroke-width=".1449" points="516.5749,-610.3119 513.0748,-600.312 509.5749,-610.312 516.5749,-610.3119"/>
</g>
<!-- G_agent -->
<g id="node13" class="node">
<title>G_agent</title>
<polygon fill="#d3d3d3" stroke="#000000" points="831.5748,-584.2727 784.5748,-584.2727 784.5748,-566.2727 831.5748,-566.2727 831.5748,-584.2727"/>
<text text-anchor="middle" x="808.0748" y="-573.0727" font-family="Times,serif" font-size="9.00" fill="#000000">G_agent</text>
</g>
<!-- G_agent&#45;&gt;none -->
<g id="edge47" class="edge">
<title>G_agent&#45;&gt;none</title>
<path fill="none" stroke="#00ff00" stroke-width=".2308" d="M784.5054,-569.5308C755.0071,-561.3825 704.2196,-544.0728 670.0748,-514.524 641.5795,-489.8642 620.2062,-451.8531 607.4978,-424.9091"/>
<polygon fill="#00ff00" stroke="#00ff00" stroke-width=".2308" points="610.5507,-423.1687 603.2107,-415.5283 604.1841,-426.0784 610.5507,-423.1687"/>
</g>
<!-- G_agent&#45;&gt;right -->
<g id="edge21" class="edge">
<title>G_agent&#45;&gt;right</title>
<path fill="none" stroke="#00ff00" stroke-width=".5844" stroke-dasharray="1,5" d="M831.6102,-573.3064C890.3396,-567.8891 1040.9399,-550.6903 1073.0748,-514.524 1119.8758,-461.8517 1067.2002,-423.5458 1090.0748,-356.9016 1095.7316,-340.4209 1105.6527,-323.7646 1114.7425,-310.554"/>
<polygon fill="#00ff00" stroke="#00ff00" stroke-width=".5844" points="1117.5942,-312.5832 1120.5425,-302.4069 1111.8917,-308.5235 1117.5942,-312.5832"/>
</g>
<!-- G_agent&#45;&gt;left -->
<g id="edge23" class="edge">
<title>G_agent&#45;&gt;left</title>
<path fill="none" stroke="#00ff00" stroke-width=".1267" d="M831.7931,-569.6941C872.1218,-559.6754 951.2399,-537.5253 967.0748,-514.524 988.1733,-483.8769 963.7487,-441.7833 944.0199,-416.0258"/>
<polygon fill="#00ff00" stroke="#00ff00" stroke-width=".1267" points="946.5546,-413.5908 937.5818,-407.957 941.0829,-417.9567 946.5546,-413.5908"/>
</g>
<!-- G_agent&#45;&gt;backward -->
<g id="edge17" class="edge">
<title>G_agent&#45;&gt;backward</title>
<path fill="none" stroke="#ff0000" stroke-width=".4684" stroke-dasharray="1,5" d="M831.7371,-573.5506C949.0366,-564.9606 1462.9809,-526.6758 1474.0748,-514.524 1493.3161,-493.4477 1488.5082,-461.0173 1479.5926,-434.9529"/>
<polygon fill="#ff0000" stroke="#ff0000" stroke-width=".4684" points="1482.7757,-433.4703 1476.016,-425.3121 1476.2128,-435.9051 1482.7757,-433.4703"/>
</g>
<!-- G_agent&#45;&gt;counterclockwise -->
<g id="edge31" class="edge">
<title>G_agent&#45;&gt;counterclockwise</title>
<path fill="none" stroke="#00ff00" stroke-width=".2864" stroke-dasharray="1,5" d="M793.6777,-566.1649C778.2516,-555.6328 754.2175,-536.8502 741.0748,-514.524 687.411,-423.3619 679.5842,-297.6641 680.5764,-221.7362"/>
<polygon fill="#00ff00" stroke="#00ff00" stroke-width=".2864" points="684.0827,-221.4255 680.7711,-211.3615 677.084,-221.2941 684.0827,-221.4255"/>
</g>
<!-- 1832 -->
<g id="node30" class="node">
<title>1832</title>
<ellipse fill="#ffffff" stroke="#000000" cx="933.0748" cy="-489.7752" rx="25" ry="25"/>
<text text-anchor="middle" x="933.0748" y="-487.5752" font-family="Times,serif" font-size="9.00" fill="#000000">1832</text>
</g>
<!-- G_agent&#45;&gt;1832 -->
<g id="edge90" class="edge">
<title>G_agent&#45;&gt;1832</title>
<path fill="none" stroke="#ff0000" stroke-width=".4788" d="M821.452,-566.123C841.0304,-552.7317 877.9821,-527.4575 903.9937,-509.6661"/>
<polygon fill="#ff0000" stroke="#ff0000" stroke-width=".4788" points="906.0767,-512.4818 912.3547,-503.9473 902.1248,-506.704 906.0767,-512.4818"/>
</g>
<!-- G_agent&#45;&gt;571 -->
<g id="edge59" class="edge">
<title>G_agent&#45;&gt;571</title>
<path fill="none" stroke="#00ff00" stroke-width=".2489" d="M784.5475,-572.2573C747.7578,-567.5522 674.3681,-558.2068 612.0748,-550.524 545.6538,-542.332 357.479,-564.5952 313.0748,-514.524 289.3984,-487.8258 309.0231,-445.6397 326.2928,-418.6432"/>
<polygon fill="#00ff00" stroke="#00ff00" stroke-width=".2489" points="329.3462,-420.3733 331.9932,-410.1145 323.5264,-416.4835 329.3462,-420.3733"/>
</g>
<!-- 1882 -->
<g id="node40" class="node">
<title>1882</title>
<ellipse fill="#ffffff" stroke="#000000" cx="593.0748" cy="-489.7752" rx="25" ry="25"/>
<text text-anchor="middle" x="593.0748" y="-487.5752" font-family="Times,serif" font-size="9.00" fill="#000000">1882</text>
</g>
<!-- G_agent&#45;&gt;1882 -->
<g id="edge93" class="edge">
<title>G_agent&#45;&gt;1882</title>
<path fill="none" stroke="#00ff00" stroke-width=".1779" stroke-dasharray="1,5" d="M784.3222,-568.9864C749.8455,-559.4401 684.3485,-539.7048 632.0748,-514.524 628.8712,-512.9807 625.6072,-511.2296 622.4,-509.3888"/>
<polygon fill="#00ff00" stroke="#00ff00" stroke-width=".1779" points="623.9748,-506.2507 613.6085,-504.0621 620.3474,-512.2375 623.9748,-506.2507"/>
</g>
<!-- G_lm -->
<g id="node14" class="node">
<title>G_lm</title>
<polygon fill="#d3d3d3" stroke="#000000" points="1208.5748,-584.2727 1171.5748,-584.2727 1171.5748,-566.2727 1208.5748,-566.2727 1208.5748,-584.2727"/>
<text text-anchor="middle" x="1190.0748" y="-573.0727" font-family="Times,serif" font-size="9.00" fill="#000000">G_lm</text>
</g>
<!-- G_lm&#45;&gt;none -->
<g id="edge43" class="edge">
<title>G_lm&#45;&gt;none</title>
<path fill="none" stroke="#ff0000" stroke-width=".1559" stroke-dasharray="1,5" d="M1171.4649,-573.9697C1097.1354,-568.5803 821.6799,-546.7887 741.0748,-514.524 711.0119,-502.4904 646.5403,-451.3414 623.0748,-429.0265 620.2093,-426.3015 617.3738,-423.2913 614.6625,-420.2064"/>
<polygon fill="#ff0000" stroke="#ff0000" stroke-width=".1559" points="617.3278,-417.9376 608.2327,-412.5035 611.954,-422.4234 617.3278,-417.9376"/>
</g>
<!-- G_lm&#45;&gt;right -->
<g id="edge27" class="edge">
<title>G_lm&#45;&gt;right</title>
<path fill="none" stroke="#ff0000" stroke-width=".2526" d="M1191.937,-565.9803C1195.4688,-545.6279 1200.9631,-496.4284 1179.0748,-465.0265 1158.1606,-435.0219 1124.4719,-460.0335 1105.0748,-429.0265 1082.7273,-393.3029 1101.3347,-343.8715 1117.5884,-312.9653"/>
<polygon fill="#ff0000" stroke="#ff0000" stroke-width=".2526" points="1120.7638,-314.4542 1122.5092,-304.0042 1114.628,-311.0849 1120.7638,-314.4542"/>
</g>
<!-- G_lm&#45;&gt;backward -->
<g id="edge1" class="edge">
<title>G_lm&#45;&gt;backward</title>
<path fill="none" stroke="#00ff00" stroke-width=".3246" d="M1208.7648,-574.7358C1271.5206,-572.5034 1472.9543,-561.7151 1512.0748,-514.524 1533.5819,-488.5799 1513.3188,-452.4136 1492.1215,-426.2823"/>
<polygon fill="#00ff00" stroke="#00ff00" stroke-width=".3246" points="1494.6866,-423.8951 1485.5582,-418.5171 1489.3404,-428.4139 1494.6866,-423.8951"/>
</g>
<!-- 1078 -->
<g id="node32" class="node">
<title>1078</title>
<ellipse fill="#ffffff" stroke="#000000" cx="1145.0748" cy="-489.7752" rx="25" ry="25"/>
<text text-anchor="middle" x="1145.0748" y="-487.5752" font-family="Times,serif" font-size="9.00" fill="#000000">1078</text>
</g>
<!-- G_lm&#45;&gt;1078 -->
<g id="edge65" class="edge">
<title>G_lm&#45;&gt;1078</title>
<path fill="none" stroke="#00ff00" stroke-width=".6562" stroke-dasharray="1,5" d="M1185.259,-566.123C1179.6109,-555.3918 1169.9463,-537.0297 1161.5107,-521.0025"/>
<polygon fill="#00ff00" stroke="#00ff00" stroke-width=".6562" points="1164.4804,-519.1301 1156.7256,-511.9111 1158.286,-522.3904 1164.4804,-519.1301"/>
</g>
<!-- H_agent -->
<g id="node15" class="node">
<title>H_agent</title>
<polygon fill="#d3d3d3" stroke="#000000" points="1717.5748,-498.7752 1670.5748,-498.7752 1670.5748,-480.7752 1717.5748,-480.7752 1717.5748,-498.7752"/>
<text text-anchor="middle" x="1694.0748" y="-487.5752" font-family="Times,serif" font-size="9.00" fill="#000000">H_agent</text>
</g>
<!-- H_agent&#45;&gt;none -->
<g id="edge44" class="edge">
<title>H_agent&#45;&gt;none</title>
<path fill="none" stroke="#ff0000" stroke-width=".447" stroke-dasharray="1,5" d="M1673.3927,-480.7582C1659.46,-475.1384 1640.5118,-468.3622 1623.0748,-465.0265 1254.3096,-394.4819 1151.935,-473.0679 779.0748,-429.0265 725.6882,-422.7206 664.6348,-409.6569 627.7403,-401.1056"/>
<polygon fill="#ff0000" stroke="#ff0000" stroke-width=".447" points="628.0863,-397.5919 617.5512,-398.716 626.4879,-404.407 628.0863,-397.5919"/>
</g>
<!-- H_agent&#45;&gt;backward -->
<g id="edge49" class="edge">
<title>H_agent&#45;&gt;backward</title>
<path fill="none" stroke="#ff0000" stroke-width=".1013" stroke-dasharray="1,5" d="M1682.3546,-480.6261C1675.1314,-475.3844 1665.4791,-469.0654 1656.0748,-465.0265 1592.682,-437.8005 1567.0533,-459.3344 1505.0748,-429.0265 1501.7302,-427.3909 1498.4077,-425.4696 1495.1715,-423.38"/>
<polygon fill="#ff0000" stroke="#ff0000" stroke-width=".1013" points="1497.0458,-420.4194 1486.8507,-417.5365 1493.0228,-426.1479 1497.0458,-420.4194"/>
</g>
<!-- H_agent&#45;&gt;clockwise -->
<g id="edge33" class="edge">
<title>H_agent&#45;&gt;clockwise</title>
<path fill="none" stroke="#ff0000" stroke-width=".2198" d="M1697.8493,-480.4548C1702.4973,-468.6583 1710.3544,-447.6305 1715.0748,-429.0265 1723.2848,-396.6693 1729.3745,-359.5117 1733.3652,-330.9264"/>
<polygon fill="#ff0000" stroke="#ff0000" stroke-width=".2198" points="1736.8618,-331.188 1734.7406,-320.8077 1729.9256,-330.2451 1736.8618,-331.188"/>
</g>
<!-- H_lm -->
<g id="node16" class="node">
<title>H_lm</title>
<polygon fill="#d3d3d3" stroke="#000000" points="1605.5748,-401.964 1568.5748,-401.964 1568.5748,-383.964 1605.5748,-383.964 1605.5748,-401.964"/>
<text text-anchor="middle" x="1587.0748" y="-390.764" font-family="Times,serif" font-size="9.00" fill="#000000">H_lm</text>
</g>
<!-- H_lm&#45;&gt;forward -->
<g id="edge15" class="edge">
<title>H_lm&#45;&gt;forward</title>
<path fill="none" stroke="#ff0000" stroke-width=".1259" d="M1581.5956,-383.6739C1555.5125,-339.4498 1443.2245,-149.0639 1395.5808,-68.2834"/>
<polygon fill="#ff0000" stroke="#ff0000" stroke-width=".1259" points="1398.4639,-66.2821 1390.3689,-59.4467 1392.4344,-69.8383 1398.4639,-66.2821"/>
</g>
<!-- H_lm&#45;&gt;clockwise -->
<g id="edge10" class="edge">
<title>H_lm&#45;&gt;clockwise</title>
<path fill="none" stroke="#00ff00" stroke-width=".1011" d="M1592.4271,-383.8596C1597.3435,-376.0396 1605.1975,-364.8087 1614.0748,-356.9016 1638.6241,-335.0351 1670.7567,-316.5019 1696.2955,-303.6115"/>
<polygon fill="#00ff00" stroke="#00ff00" stroke-width=".1011" points="1697.9656,-306.6903 1705.3799,-299.1221 1694.8642,-300.4148 1697.9656,-306.6903"/>
</g>
<!-- no_stimuli -->
<g id="node17" class="node">
<title>no_stimuli</title>
<polygon fill="#d3d3d3" stroke="#000000" points="189.5748,-498.7752 134.5748,-498.7752 134.5748,-480.7752 189.5748,-480.7752 189.5748,-498.7752"/>
<text text-anchor="middle" x="162.0748" y="-487.5752" font-family="Times,serif" font-size="9.00" fill="#000000">no_stimuli</text>
</g>
<!-- no_stimuli&#45;&gt;counterclockwise -->
<g id="edge18" class="edge">
<title>no_stimuli&#45;&gt;counterclockwise</title>
<path fill="none" stroke="#00ff00" stroke-width=".4523" d="M168.2521,-480.3665C176.0251,-468.4789 189.7309,-447.357 201.0748,-429.0265 220.714,-397.2917 216.7297,-382.2991 244.0748,-356.9016 354.693,-254.1621 526.8218,-196.4209 619.5979,-171.1286"/>
<polygon fill="#00ff00" stroke="#00ff00" stroke-width=".4523" points="620.6661,-174.4659 629.4165,-168.4925 618.851,-167.7053 620.6661,-174.4659"/>
</g>
<!-- 952 -->
<g id="node33" class="node">
<title>952</title>
<ellipse fill="#ffffff" stroke="#000000" cx="167.0748" cy="-284.132" rx="21.4286" ry="21.4286"/>
<text text-anchor="middle" x="167.0748" y="-281.932" font-family="Times,serif" font-size="9.00" fill="#000000">952</text>
</g>
<!-- no_stimuli&#45;&gt;952 -->
<g id="edge63" class="edge">
<title>no_stimuli&#45;&gt;952</title>
<path fill="none" stroke="#ff0000" stroke-width=".2392" d="M155.941,-480.3745C148.8113,-468.8342 137.4627,-448.4034 133.0748,-429.0265 125.9951,-397.7625 126.1249,-388.1946 133.0748,-356.9016 136.6024,-341.0181 143.9774,-324.4966 150.9598,-311.2182"/>
<polygon fill="#ff0000" stroke="#ff0000" stroke-width=".2392" points="154.1774,-312.6296 155.9141,-302.1781 148.0388,-309.2654 154.1774,-312.6296"/>
</g>
<!-- 1534 -->
<g id="node45" class="node">
<title>1534</title>
<ellipse fill="#ffffff" stroke="#000000" cx="167.0748" cy="-392.964" rx="25" ry="25"/>
<text text-anchor="middle" x="167.0748" y="-390.764" font-family="Times,serif" font-size="9.00" fill="#000000">1534</text>
</g>
<!-- no_stimuli&#45;&gt;1534 -->
<g id="edge85" class="edge">
<title>no_stimuli&#45;&gt;1534</title>
<path fill="none" stroke="#00ff00" stroke-width=".4385" stroke-dasharray="1,5" d="M162.5542,-480.4926C163.1771,-468.4332 164.2996,-446.6977 165.2703,-427.9042"/>
<polygon fill="#00ff00" stroke="#00ff00" stroke-width=".4385" points="168.7692,-428.0134 165.7897,-417.8462 161.7785,-427.6523 168.7692,-428.0134"/>
</g>
<!-- none&#45;&gt;897 -->
<g id="edge78" class="edge">
<title>none&#45;&gt;897</title>
<path fill="none" stroke="#00ff00" stroke-width=".3562" d="M577.3967,-374.9926C560.2825,-356.5513 533.5769,-327.7749 514.8154,-307.5585"/>
<polygon fill="#00ff00" stroke="#00ff00" stroke-width=".3562" points="517.1729,-304.9535 507.805,-300.0045 512.042,-309.7152 517.1729,-304.9535"/>
</g>
<!-- 613 -->
<g id="node41" class="node">
<title>613</title>
<ellipse fill="#ffffff" stroke="#000000" cx="999.0748" cy="-155.501" rx="21.4286" ry="21.4286"/>
<text text-anchor="middle" x="999.0748" y="-153.301" font-family="Times,serif" font-size="9.00" fill="#000000">613</text>
</g>
<!-- left&#45;&gt;613 -->
<g id="edge101" class="edge">
<title>left&#45;&gt;613</title>
<path fill="none" stroke="#00ff00" stroke-width=".1953" d="M930.0856,-373.9328C943.0664,-332.8335 973.8125,-235.4859 989.5034,-185.8057"/>
<polygon fill="#00ff00" stroke="#00ff00" stroke-width=".1953" points="992.9371,-186.5552 992.6114,-175.9654 986.2621,-184.447 992.9371,-186.5552"/>
</g>
<!-- backward&#45;&gt;487 -->
<g id="edge67" class="edge">
<title>backward&#45;&gt;487</title>
<path fill="none" stroke="#ff0000" stroke-width=".3092" d="M1428.1001,-376.0255C1403.9504,-362.5552 1370.5576,-342.4474 1344.0748,-320.9016 1339.2573,-316.9821 1334.4399,-312.4343 1329.9877,-307.9011"/>
<polygon fill="#ff0000" stroke="#ff0000" stroke-width=".3092" points="1332.3144,-305.2672 1322.904,-300.3993 1327.2248,-310.0731 1332.3144,-305.2672"/>
</g>
<!-- 897&#45;&gt;counterclockwise -->
<g id="edge62" class="edge">
<title>897&#45;&gt;counterclockwise</title>
<path fill="none" stroke="#00ff00" stroke-width=".179" d="M506.8338,-267.7774C512.953,-261.0277 520.4828,-253.3911 528.0748,-247.3625 557.9652,-223.6273 594.6011,-201.7396 624.8569,-185.2875"/>
<polygon fill="#00ff00" stroke="#00ff00" stroke-width=".179" points="626.875,-188.1764 634.0273,-180.3601 623.5617,-182.0102 626.875,-188.1764"/>
</g>
<!-- 1805&#45;&gt;backward -->
<g id="edge89" class="edge">
<title>1805&#45;&gt;backward</title>
<path fill="none" stroke="#00ff00" stroke-width=".3732" stroke-dasharray="1,5" d="M1419.1013,-467.8073C1424.6503,-457.6713 1431.4207,-445.3044 1437.8468,-433.5663"/>
<polygon fill="#00ff00" stroke="#00ff00" stroke-width=".3732" points="1440.9358,-435.2123 1442.6679,-424.76 1434.7957,-431.8508 1440.9358,-435.2123"/>
</g>
<!-- 537 -->
<g id="node28" class="node">
<title>537</title>
<ellipse fill="#ffffff" stroke="#000000" cx="1135.0748" cy="-392.964" rx="21.4286" ry="21.4286"/>
<text text-anchor="middle" x="1135.0748" y="-390.764" font-family="Times,serif" font-size="9.00" fill="#000000">537</text>
</g>
<!-- 537&#45;&gt;right -->
<g id="edge58" class="edge">
<title>537&#45;&gt;right</title>
<path fill="none" stroke="#00ff00" stroke-width=".3555" d="M1135.0748,-371.7218C1135.0748,-356.456 1135.0748,-335.5575 1135.0748,-318.0027"/>
<polygon fill="#00ff00" stroke="#00ff00" stroke-width=".3555" points="1138.5749,-317.5847 1135.0748,-307.5847 1131.5749,-317.5848 1138.5749,-317.5847"/>
</g>
<!-- 1191&#45;&gt;counterclockwise -->
<g id="edge72" class="edge">
<title>1191&#45;&gt;counterclockwise</title>
<path fill="none" stroke="#ff0000" stroke-width=".3234" d="M810.3651,-368.3233C806.201,-338.1387 796.2491,-286.2314 774.0748,-247.3625 763.8999,-229.5271 749.4201,-212.6506 735.0417,-198.346"/>
<polygon fill="#ff0000" stroke="#ff0000" stroke-width=".3234" points="737.1776,-195.5427 727.5553,-191.1086 732.3122,-200.5755 737.1776,-195.5427"/>
</g>
<!-- 1832&#45;&gt;left -->
<g id="edge91" class="edge">
<title>1832&#45;&gt;left</title>
<path fill="none" stroke="#ff0000" stroke-width="1.4705" d="M930.7804,-465.0952C929.5887,-452.276 928.1228,-436.5074 926.8658,-422.9864"/>
<polygon fill="#ff0000" stroke="#ff0000" stroke-width="1.4705" points="930.3225,-422.357 925.9118,-412.7239 923.3526,-423.005 930.3225,-422.357"/>
</g>
<!-- 1459&#45;&gt;left -->
<g id="edge80" class="edge">
<title>1459&#45;&gt;left</title>
<path fill="none" stroke="#00ff00" stroke-width=".6703" d="M1018.3484,-475.7164C1001.5166,-463.9548 977.4754,-446.3591 958.0748,-429.0265 953.3885,-424.8397 948.609,-420.1069 944.1708,-415.4802"/>
<polygon fill="#00ff00" stroke="#00ff00" stroke-width=".6703" points="946.4839,-412.8291 937.1006,-407.9093 941.3678,-417.6068 946.4839,-412.8291"/>
</g>
<!-- 1078&#45;&gt;none -->
<g id="edge66" class="edge">
<title>1078&#45;&gt;none</title>
<path fill="none" stroke="#00ff00" stroke-width=".1094" d="M1122.0875,-480.4947C1108.1245,-475.2064 1089.8193,-468.8846 1073.0748,-465.0265 944.7934,-435.4687 909.0946,-449.633 779.0748,-429.0265 725.9798,-420.6116 664.8437,-408.1457 627.8525,-400.2935"/>
<polygon fill="#00ff00" stroke="#00ff00" stroke-width=".1094" points="628.1453,-396.7772 617.6348,-398.1114 626.6833,-403.6228 628.1453,-396.7772"/>
</g>
<!-- 1078&#45;&gt;1162 -->
<g id="edge87" class="edge">
<title>1078&#45;&gt;1162</title>
<path fill="none" stroke="#ff0000" stroke-width=".138" d="M1169.1658,-483.53C1191.5423,-477.9382 1225.8608,-469.8918 1256.0748,-465.0265 1335.233,-452.2797 1543.4039,-464.9678 1615.0748,-429.0265 1619.1974,-426.9591 1623.0568,-424.1444 1626.5789,-420.9927"/>
<polygon fill="#ff0000" stroke="#ff0000" stroke-width=".138" points="1629.2154,-423.3032 1633.722,-413.7146 1624.2195,-418.4 1629.2154,-423.3032"/>
</g>
<!-- 952&#45;&gt;counterclockwise -->
<g id="edge64" class="edge">
<title>952&#45;&gt;counterclockwise</title>
<path fill="none" stroke="#00ff00" stroke-width=".3968" stroke-dasharray="1,5" d="M180.6869,-267.5809C187.5566,-260.2898 196.4651,-252.2792 206.0748,-247.3625 277.3662,-210.8869 505.0973,-178.0698 618.5514,-163.487"/>
<polygon fill="#00ff00" stroke="#00ff00" stroke-width=".3968" points="619.0278,-166.9546 628.5042,-162.2168 618.1416,-160.011 619.0278,-166.9546"/>
</g>
<!-- 2110&#45;&gt;none -->
<g id="edge100" class="edge">
<title>2110&#45;&gt;none</title>
<path fill="none" stroke="#ff0000" stroke-width=".3096" d="M505.9857,-473.4612C519.9469,-461.3364 539.3471,-444.3178 556.0748,-429.0265 560.2704,-425.1911 564.6824,-421.079 568.955,-417.0539"/>
<polygon fill="#ff0000" stroke="#ff0000" stroke-width=".3096" points="571.5673,-419.4003 576.4183,-409.9812 566.7523,-414.3194 571.5673,-419.4003"/>
</g>
<!-- 1344&#45;&gt;897 -->
<g id="edge76" class="edge">
<title>1344&#45;&gt;897</title>
<path fill="none" stroke="#ff0000" stroke-width=".3172" stroke-dasharray="1,5" d="M493.8238,-559.0738C489.219,-555.8353 484.1575,-552.7498 479.0748,-550.524 403.9433,-517.6216 350.1084,-577.926 298.0748,-514.524 276.1093,-487.7593 292.5862,-385.3263 315.0748,-356.9016 351.2987,-311.1161 421.0925,-293.9266 461.6903,-287.63"/>
<polygon fill="#ff0000" stroke="#ff0000" stroke-width=".3172" points="462.4211,-291.0614 471.8297,-286.1902 461.4369,-284.1309 462.4211,-291.0614"/>
</g>
<!-- 1344&#45;&gt;1459 -->
<g id="edge81" class="edge">
<title>1344&#45;&gt;1459</title>
<path fill="none" stroke="#ff0000" stroke-width=".1301" d="M531.7914,-558.9057C536.4995,-555.5916 541.7398,-552.516 547.0748,-550.524 722.59,-484.9886 783.7732,-553.2663 967.0748,-514.524 980.209,-511.7479 994.2541,-507.2793 1006.4201,-502.8979"/>
<polygon fill="#ff0000" stroke="#ff0000" stroke-width=".1301" points="1007.988,-506.0489 1016.1364,-499.2772 1005.5437,-499.4895 1007.988,-506.0489"/>
</g>
<!-- 1217&#45;&gt;forward -->
<g id="edge74" class="edge">
<title>1217&#45;&gt;forward</title>
<path fill="none" stroke="#00ff00" stroke-width=".2335" stroke-dasharray="1,5" d="M1925.9761,-132.8941C1919.4647,-121.0204 1909.8179,-107.3673 1897.0748,-99.6396 1816.2086,-50.6001 1525.2734,-36.5431 1415.9715,-32.9435"/>
<polygon fill="#00ff00" stroke="#00ff00" stroke-width=".2335" points="1416.0799,-29.4453 1405.9741,-32.627 1415.8583,-36.4418 1416.0799,-29.4453"/>
</g>
<!-- 2249&#45;&gt;right -->
<g id="edge103" class="edge">
<title>2249&#45;&gt;right</title>
<path fill="none" stroke="#00ff00" stroke-width=".4144" d="M1219.7719,-374.5022C1202.812,-356.4063 1176.8531,-328.7086 1158.1447,-308.7471"/>
<polygon fill="#00ff00" stroke="#00ff00" stroke-width=".4144" points="1160.5079,-306.1504 1151.1157,-301.2474 1155.4004,-310.9372 1160.5079,-306.1504"/>
</g>
<!-- 1108&#45;&gt;1524 -->
<g id="edge98" class="edge">
<title>1108&#45;&gt;1524</title>
<path fill="none" stroke="#00ff00" stroke-width=".1228" d="M1565.3525,-482.5605C1531.5192,-472.0314 1467.6774,-451.274 1415.0748,-429.0265 1401.4282,-423.2549 1386.7405,-416.0812 1374.2126,-409.6555"/>
<polygon fill="#00ff00" stroke="#00ff00" stroke-width=".1228" points="1375.5938,-406.4289 1365.1065,-404.9233 1372.3659,-412.6403 1375.5938,-406.4289"/>
</g>
<!-- 1882&#45;&gt;none -->
<g id="edge94" class="edge">
<title>1882&#45;&gt;none</title>
<path fill="none" stroke="#ff0000" stroke-width=".6747" stroke-dasharray="1,5" d="M593.3323,-464.8439C593.4508,-453.3764 593.5932,-439.5898 593.7215,-427.171"/>
<polygon fill="#ff0000" stroke="#ff0000" stroke-width=".6747" points="597.2215,-427.1776 593.8251,-417.1419 590.2219,-427.1052 597.2215,-427.1776"/>
</g>
<!-- 613&#45;&gt;forward -->
<g id="edge60" class="edge">
<title>613&#45;&gt;forward</title>
<path fill="none" stroke="#ff0000" stroke-width=".4707" stroke-dasharray="1,5" d="M1006.7451,-135.4669C1012.4545,-123.2462 1021.4524,-108.3491 1034.0748,-99.6396 1082.0804,-66.5157 1252.2534,-44.6763 1332.1143,-36.0191"/>
<polygon fill="#ff0000" stroke="#ff0000" stroke-width=".4707" points="1332.7329,-39.4731 1342.3057,-34.9329 1331.991,-32.5125 1332.7329,-39.4731"/>
</g>
<!-- 487&#45;&gt;forward -->
<g id="edge57" class="edge">
<title>487&#45;&gt;forward</title>
<path fill="none" stroke="#ff0000" stroke-width=".267" stroke-dasharray="1,5" d="M1314.394,-263.4843C1325.1264,-221.8241 1349.5442,-127.0411 1363.595,-72.4996"/>
<polygon fill="#ff0000" stroke="#ff0000" stroke-width=".267" points="1366.9869,-73.3626 1366.0923,-62.8056 1360.2082,-71.6163 1366.9869,-73.3626"/>
</g>
<!-- 487&#45;&gt;613 -->
<g id="edge84" class="edge">
<title>487&#45;&gt;613</title>
<path fill="none" stroke="#00ff00" stroke-width=".1529" d="M1289.2113,-275.8899C1236.0623,-253.8363 1090.4112,-193.4001 1028.0409,-167.5202"/>
<polygon fill="#00ff00" stroke="#00ff00" stroke-width=".1529" points="1029.3507,-164.2744 1018.7729,-163.6745 1026.6679,-170.7399 1029.3507,-164.2744"/>
</g>
<!-- 1524&#45;&gt;487 -->
<g id="edge83" class="edge">
<title>1524&#45;&gt;487</title>
<path fill="none" stroke="#00ff00" stroke-width=".2818" d="M1335.6134,-369.0804C1330.5804,-352.9702 1323.8983,-331.5812 1318.4984,-314.2963"/>
<polygon fill="#00ff00" stroke="#00ff00" stroke-width=".2818" points="1321.8121,-313.1658 1315.4893,-304.6644 1315.1306,-315.2532 1321.8121,-313.1658"/>
</g>
<!-- 2036&#45;&gt;clockwise -->
<g id="edge97" class="edge">
<title>2036&#45;&gt;clockwise</title>
<path fill="none" stroke="#00ff00" stroke-width=".2009" stroke-dasharray="1,5" d="M1814.0153,-373.7576C1801.7145,-359.0464 1784.3829,-338.3185 1769.4851,-320.5014"/>
<polygon fill="#00ff00" stroke="#00ff00" stroke-width=".2009" points="1771.9379,-317.9785 1762.8382,-312.552 1766.5678,-322.4687 1771.9379,-317.9785"/>
</g>
<!-- 1534&#45;&gt;952 -->
<g id="edge86" class="edge">
<title>1534&#45;&gt;952</title>
<path fill="none" stroke="#00ff00" stroke-width=".4451" stroke-dasharray="1,5" d="M167.0748,-367.9958C167.0748,-352.552 167.0748,-332.5796 167.0748,-316"/>
<polygon fill="#00ff00" stroke="#00ff00" stroke-width=".4451" points="170.5749,-315.6764 167.0748,-305.6764 163.5749,-315.6764 170.5749,-315.6764"/>
</g>
</g>
</svg>
