<?xml version="1.0" encoding="UTF-8" standalone="no"?>
<!DOCTYPE svg PUBLIC "-//W3C//DTD SVG 1.1//EN"
 "http://www.w3.org/Graphics/SVG/1.1/DTD/svg11.dtd">
<!-- Generated by graphviz version 2.40.1 (20161225.0304)
 -->
<!-- Title: %3 Pages: 1 -->
<svg width="826pt" height="291pt"
 viewBox="0.00 0.00 826.27 290.98" xmlns="http://www.w3.org/2000/svg" xmlns:xlink="http://www.w3.org/1999/xlink">
<g id="graph0" class="graph" transform="scale(1 1) rotate(0) translate(4 286.9777)">
<title>%3</title>
<polygon fill="#ffffff" stroke="transparent" points="-4,4 -4,-286.9777 822.2749,-286.9777 822.2749,4 -4,4"/>
<!-- x&#45;vel -->
<g id="node1" class="node">
<title>x&#45;vel</title>
<polygon fill="#d3d3d3" stroke="#000000" points="501.5,-138.3381 466.5,-138.3381 466.5,-120.3381 501.5,-120.3381 501.5,-138.3381"/>
<text text-anchor="middle" x="484" y="-127.1381" font-family="Times,serif" font-size="9.00" fill="#000000">x&#45;vel</text>
</g>
<!-- left -->
<g id="node15" class="node">
<title>left</title>
<ellipse fill="#add8e6" stroke="#000000" cx="275" cy="-36.0624" rx="19.6" ry="19.6"/>
<text text-anchor="middle" x="275" y="-33.8624" font-family="Times,serif" font-size="9.00" fill="#000000">left</text>
</g>
<!-- x&#45;vel&#45;&gt;left -->
<g id="edge4" class="edge">
<title>x&#45;vel&#45;&gt;left</title>
<path fill="none" stroke="#ff0000" stroke-width=".1828" d="M474.5362,-120.0805C469.8712,-115.9379 463.9729,-111.286 458,-108.1249 408.4095,-81.8794 388.502,-94.3869 337,-72.1249 324.409,-66.6824 311.174,-59.2464 300.1807,-52.5404"/>
<polygon fill="#ff0000" stroke="#ff0000" stroke-width=".1828" points="301.8719,-49.4701 291.5368,-47.1387 298.1623,-55.4063 301.8719,-49.4701"/>
</g>
<!-- forward -->
<g id="node16" class="node">
<title>forward</title>
<ellipse fill="#add8e6" stroke="#000000" cx="378" cy="-36.0624" rx="31.6406" ry="31.6406"/>
<text text-anchor="middle" x="378" y="-33.8624" font-family="Times,serif" font-size="9.00" fill="#000000">forward</text>
</g>
<!-- x&#45;vel&#45;&gt;forward -->
<g id="edge6" class="edge">
<title>x&#45;vel&#45;&gt;forward</title>
<path fill="none" stroke="#00ff00" stroke-width=".1264" d="M473.4488,-120.0535C458.711,-107.0848 431.3355,-82.9955 409.6687,-63.9296"/>
<polygon fill="#00ff00" stroke="#00ff00" stroke-width=".1264" points="411.798,-61.1412 401.9785,-57.1626 407.1737,-66.3963 411.798,-61.1412"/>
</g>
<!-- backward -->
<g id="node17" class="node">
<title>backward</title>
<ellipse fill="#add8e6" stroke="#000000" cx="474" cy="-36.0624" rx="36.125" ry="36.125"/>
<text text-anchor="middle" x="474" y="-33.8624" font-family="Times,serif" font-size="9.00" fill="#000000">backward</text>
</g>
<!-- x&#45;vel&#45;&gt;backward -->
<g id="edge27" class="edge">
<title>x&#45;vel&#45;&gt;backward</title>
<path fill="none" stroke="#00ff00" stroke-width=".2629" d="M483.0046,-120.0535C482.0426,-111.0801 480.5097,-96.7825 478.9795,-82.5089"/>
<polygon fill="#00ff00" stroke="#00ff00" stroke-width=".2629" points="482.42,-81.7661 477.8739,-72.1962 475.4599,-82.5123 482.42,-81.7661"/>
</g>
<!-- y&#45;vel -->
<g id="node2" class="node">
<title>y&#45;vel</title>
<polygon fill="#d3d3d3" stroke="#000000" points="322.5,-138.3381 287.5,-138.3381 287.5,-120.3381 322.5,-120.3381 322.5,-138.3381"/>
<text text-anchor="middle" x="305" y="-127.1381" font-family="Times,serif" font-size="9.00" fill="#000000">y&#45;vel</text>
</g>
<!-- none -->
<g id="node13" class="node">
<title>none</title>
<ellipse fill="#add8e6" stroke="#000000" cx="172" cy="-36.0624" rx="24.0833" ry="24.0833"/>
<text text-anchor="middle" x="172" y="-33.8624" font-family="Times,serif" font-size="9.00" fill="#000000">none</text>
</g>
<!-- y&#45;vel&#45;&gt;none -->
<g id="edge9" class="edge">
<title>y&#45;vel&#45;&gt;none</title>
<path fill="none" stroke="#ff0000" stroke-width=".3252" d="M294.2969,-120.2358C289.6697,-116.398 284.1456,-111.9443 279,-108.1249 253.2361,-89.0013 222.7988,-68.7137 200.9872,-54.5537"/>
<polygon fill="#ff0000" stroke="#ff0000" stroke-width=".3252" points="202.7966,-51.5558 192.4977,-49.069 198.9979,-57.4355 202.7966,-51.5558"/>
</g>
<!-- right -->
<g id="node14" class="node">
<title>right</title>
<ellipse fill="#add8e6" stroke="#000000" cx="711" cy="-36.0624" rx="23.1702" ry="23.1702"/>
<text text-anchor="middle" x="711" y="-33.8624" font-family="Times,serif" font-size="9.00" fill="#000000">right</text>
</g>
<!-- y&#45;vel&#45;&gt;right -->
<g id="edge25" class="edge">
<title>y&#45;vel&#45;&gt;right</title>
<path fill="none" stroke="#00ff00" stroke-width=".5584" d="M314.2509,-120.2463C319.149,-115.9331 325.4886,-111.0869 332,-108.1249 333.995,-107.2174 586.374,-59.5664 678.1331,-42.2593"/>
<polygon fill="#00ff00" stroke="#00ff00" stroke-width=".5584" points="678.8249,-45.6906 688.003,-40.3978 677.5275,-38.8118 678.8249,-45.6906"/>
</g>
<!-- y&#45;vel&#45;&gt;forward -->
<g id="edge24" class="edge">
<title>y&#45;vel&#45;&gt;forward</title>
<path fill="none" stroke="#00ff00" stroke-width=".1129" d="M312.2664,-120.0535C321.4609,-108.3052 337.7978,-87.4308 351.884,-69.4322"/>
<polygon fill="#00ff00" stroke="#00ff00" stroke-width=".1129" points="354.757,-71.4401 358.1639,-61.408 349.2445,-67.1259 354.757,-71.4401"/>
</g>
<!-- x&#45;pos -->
<g id="node3" class="node">
<title>x&#45;pos</title>
<polygon fill="#d3d3d3" stroke="#000000" points="706,-138.3381 670,-138.3381 670,-120.3381 706,-120.3381 706,-138.3381"/>
<text text-anchor="middle" x="688" y="-127.1381" font-family="Times,serif" font-size="9.00" fill="#000000">x&#45;pos</text>
</g>
<!-- x&#45;pos&#45;&gt;right -->
<g id="edge16" class="edge">
<title>x&#45;pos&#45;&gt;right</title>
<path fill="none" stroke="#ff0000" stroke-width=".3426" d="M690.2894,-120.0535C693.2095,-108.2112 698.416,-87.0963 702.878,-69.0009"/>
<polygon fill="#ff0000" stroke="#ff0000" stroke-width=".3426" points="706.3325,-69.6104 705.3284,-59.0632 699.5361,-67.9345 706.3325,-69.6104"/>
</g>
<!-- x&#45;pos&#45;&gt;backward -->
<g id="edge15" class="edge">
<title>x&#45;pos&#45;&gt;backward</title>
<path fill="none" stroke="#ff0000" stroke-width=".3223" d="M678.0009,-120.3103C673.1189,-116.218 667.0117,-111.5421 661,-108.1249 615.0472,-82.0039 557.7772,-61.5066 518.8064,-49.1578"/>
<polygon fill="#ff0000" stroke="#ff0000" stroke-width=".3223" points="519.407,-45.6789 508.8185,-46.0442 517.3237,-52.3617 519.407,-45.6789"/>
</g>
<!-- y&#45;pos -->
<g id="node4" class="node">
<title>y&#45;pos</title>
<polygon fill="#d3d3d3" stroke="#000000" points="377,-138.3381 341,-138.3381 341,-120.3381 377,-120.3381 377,-138.3381"/>
<text text-anchor="middle" x="359" y="-127.1381" font-family="Times,serif" font-size="9.00" fill="#000000">y&#45;pos</text>
</g>
<!-- y&#45;pos&#45;&gt;left -->
<g id="edge23" class="edge">
<title>y&#45;pos&#45;&gt;left</title>
<path fill="none" stroke="#00ff00" stroke-width=".1066" d="M350.6387,-120.0535C337.8003,-105.7974 312.8602,-78.1033 295.1307,-58.4161"/>
<polygon fill="#00ff00" stroke="#00ff00" stroke-width=".1066" points="297.5565,-55.8795 288.2637,-50.7908 292.3548,-60.5639 297.5565,-55.8795"/>
</g>
<!-- y&#45;pos&#45;&gt;forward -->
<g id="edge30" class="edge">
<title>y&#45;pos&#45;&gt;forward</title>
<path fill="none" stroke="#00ff00" stroke-width=".2332" d="M360.8913,-120.0535C362.924,-110.0743 366.298,-93.5104 369.515,-77.7175"/>
<polygon fill="#00ff00" stroke="#00ff00" stroke-width=".2332" points="373.0242,-78.0249 371.5906,-67.5275 366.165,-76.6277 373.0242,-78.0249"/>
</g>
<!-- y&#45;pos&#45;&gt;backward -->
<g id="edge3" class="edge">
<title>y&#45;pos&#45;&gt;backward</title>
<path fill="none" stroke="#00ff00" stroke-width=".203" d="M370.4471,-120.0535C385.9981,-107.4401 414.5189,-84.3071 437.6968,-65.5077"/>
<polygon fill="#00ff00" stroke="#00ff00" stroke-width=".203" points="440.0805,-68.0809 445.6422,-59.0632 435.6709,-62.6443 440.0805,-68.0809"/>
</g>
<!-- x&#45;lm1&#45;vec -->
<g id="node5" class="node">
<title>x&#45;lm1&#45;vec</title>
<polygon fill="#d3d3d3" stroke="#000000" points="198.5,-138.3381 145.5,-138.3381 145.5,-120.3381 198.5,-120.3381 198.5,-138.3381"/>
<text text-anchor="middle" x="172" y="-127.1381" font-family="Times,serif" font-size="9.00" fill="#000000">x&#45;lm1&#45;vec</text>
</g>
<!-- x&#45;lm1&#45;vec&#45;&gt;none -->
<g id="edge8" class="edge">
<title>x&#45;lm1&#45;vec&#45;&gt;none</title>
<path fill="none" stroke="#00ff00" stroke-width=".1211" d="M172,-120.0535C172,-108.4974 172,-88.1115 172,-70.318"/>
<polygon fill="#00ff00" stroke="#00ff00" stroke-width=".1211" points="175.5001,-70.2273 172,-60.2273 168.5001,-70.2273 175.5001,-70.2273"/>
</g>
<!-- x&#45;lm1&#45;vec&#45;&gt;left -->
<g id="edge13" class="edge">
<title>x&#45;lm1&#45;vec&#45;&gt;left</title>
<path fill="none" stroke="#ff0000" stroke-width="1.3514" d="M182.2526,-120.0535C198.5673,-105.279 230.8199,-76.0714 252.6513,-56.3012"/>
<polygon fill="#ff0000" stroke="#ff0000" stroke-width="1.3514" points="255.1111,-58.7955 260.1741,-49.4886 250.4124,-53.6068 255.1111,-58.7955"/>
</g>
<!-- x&#45;lm1&#45;vec&#45;&gt;forward -->
<g id="edge17" class="edge">
<title>x&#45;lm1&#45;vec&#45;&gt;forward</title>
<path fill="none" stroke="#ff0000" stroke-width=".5394" d="M185.6277,-120.2513C191.9685,-116.2412 199.7068,-111.6491 207,-108.1249 248.4039,-88.1178 261.7251,-90.2191 304,-72.1249 316.026,-66.9776 328.9124,-60.901 340.5064,-55.2175"/>
<polygon fill="#ff0000" stroke="#ff0000" stroke-width=".5394" points="342.0793,-58.3443 349.4865,-50.7691 338.972,-52.0718 342.0793,-58.3443"/>
</g>
<!-- y&#45;lm1&#45;vec -->
<g id="node6" class="node">
<title>y&#45;lm1&#45;vec</title>
<polygon fill="#d3d3d3" stroke="#000000" points="127.5,-138.3381 74.5,-138.3381 74.5,-120.3381 127.5,-120.3381 127.5,-138.3381"/>
<text text-anchor="middle" x="101" y="-127.1381" font-family="Times,serif" font-size="9.00" fill="#000000">y&#45;lm1&#45;vec</text>
</g>
<!-- y&#45;lm1&#45;vec&#45;&gt;none -->
<g id="edge11" class="edge">
<title>y&#45;lm1&#45;vec&#45;&gt;none</title>
<path fill="none" stroke="#00ff00" stroke-width=".4978" stroke-dasharray="1,5" d="M108.0673,-120.0535C118.0279,-106.9678 136.6068,-82.5599 151.1798,-63.4149"/>
<polygon fill="#00ff00" stroke="#00ff00" stroke-width=".4978" points="154.0734,-65.392 157.3453,-55.315 148.5034,-61.1522 154.0734,-65.392"/>
</g>
<!-- y&#45;lm1&#45;vec&#45;&gt;left -->
<g id="edge7" class="edge">
<title>y&#45;lm1&#45;vec&#45;&gt;left</title>
<path fill="none" stroke="#00ff00" stroke-width=".379" stroke-dasharray="1,5" d="M115.517,-120.2425C121.7643,-116.4059 129.1848,-111.9512 136,-108.1249 141.3806,-105.104 209.0809,-70.1027 247.9724,-50.0159"/>
<polygon fill="#00ff00" stroke="#00ff00" stroke-width=".379" points="249.9047,-52.9572 257.1839,-45.2589 246.6927,-46.7376 249.9047,-52.9572"/>
</g>
<!-- y&#45;lm1&#45;vec&#45;&gt;forward -->
<g id="edge14" class="edge">
<title>y&#45;lm1&#45;vec&#45;&gt;forward</title>
<path fill="none" stroke="#00ff00" stroke-width=".8966" d="M113.7534,-120.1885C120.1626,-115.9679 128.2076,-111.2191 136,-108.1249 206.9712,-79.9434 231.8151,-97.0338 304,-72.1249 316.4723,-67.821 329.5728,-61.9314 341.2262,-56.1594"/>
<polygon fill="#00ff00" stroke="#00ff00" stroke-width=".8966" points="342.8927,-59.2386 350.2222,-51.5882 339.7216,-52.9981 342.8927,-59.2386"/>
</g>
<!-- x&#45;lm2&#45;vec -->
<g id="node7" class="node">
<title>x&#45;lm2&#45;vec</title>
<polygon fill="#d3d3d3" stroke="#000000" points="448.5,-138.3381 395.5,-138.3381 395.5,-120.3381 448.5,-120.3381 448.5,-138.3381"/>
<text text-anchor="middle" x="422" y="-127.1381" font-family="Times,serif" font-size="9.00" fill="#000000">x&#45;lm2&#45;vec</text>
</g>
<!-- x&#45;lm2&#45;vec&#45;&gt;left -->
<g id="edge12" class="edge">
<title>x&#45;lm2&#45;vec&#45;&gt;left</title>
<path fill="none" stroke="#ff0000" stroke-width=".19" d="M407.6374,-120.2246C382.7826,-104.4535 331.442,-71.8765 300.4323,-52.2"/>
<polygon fill="#ff0000" stroke="#ff0000" stroke-width=".19" points="302.2074,-49.1812 291.8885,-46.7787 298.457,-55.0917 302.2074,-49.1812"/>
</g>
<!-- x&#45;lm2&#45;vec&#45;&gt;forward -->
<g id="edge10" class="edge">
<title>x&#45;lm2&#45;vec&#45;&gt;forward</title>
<path fill="none" stroke="#00ff00" stroke-width=".3807" stroke-dasharray="1,5" d="M417.6203,-120.0535C412.5583,-109.3226 403.9046,-90.9777 395.9737,-74.1649"/>
<polygon fill="#00ff00" stroke="#00ff00" stroke-width=".3807" points="399.1013,-72.5912 391.6694,-65.0402 392.7703,-75.5777 399.1013,-72.5912"/>
</g>
<!-- x&#45;lm2&#45;vec&#45;&gt;backward -->
<g id="edge20" class="edge">
<title>x&#45;lm2&#45;vec&#45;&gt;backward</title>
<path fill="none" stroke="#00ff00" stroke-width=".314" stroke-dasharray="1,5" d="M427.1761,-120.0535C432.855,-109.8669 442.3588,-92.8192 451.3261,-76.734"/>
<polygon fill="#00ff00" stroke="#00ff00" stroke-width=".314" points="454.4127,-78.3852 456.225,-67.9466 448.2986,-74.9767 454.4127,-78.3852"/>
</g>
<!-- y&#45;lm2&#45;vec -->
<g id="node8" class="node">
<title>y&#45;lm2&#45;vec</title>
<polygon fill="#d3d3d3" stroke="#000000" points="269.5,-138.3381 216.5,-138.3381 216.5,-120.3381 269.5,-120.3381 269.5,-138.3381"/>
<text text-anchor="middle" x="243" y="-127.1381" font-family="Times,serif" font-size="9.00" fill="#000000">y&#45;lm2&#45;vec</text>
</g>
<!-- y&#45;lm2&#45;vec&#45;&gt;none -->
<g id="edge22" class="edge">
<title>y&#45;lm2&#45;vec&#45;&gt;none</title>
<path fill="none" stroke="#ff0000" stroke-width=".1332" stroke-dasharray="1,5" d="M235.9327,-120.0535C225.9721,-106.9678 207.3932,-82.5599 192.8202,-63.4149"/>
<polygon fill="#ff0000" stroke="#ff0000" stroke-width=".1332" points="195.4966,-61.1522 186.6547,-55.315 189.9266,-65.392 195.4966,-61.1522"/>
</g>
<!-- y&#45;lm2&#45;vec&#45;&gt;left -->
<g id="edge21" class="edge">
<title>y&#45;lm2&#45;vec&#45;&gt;left</title>
<path fill="none" stroke="#ff0000" stroke-width=".2295" d="M246.1853,-120.0535C250.5806,-107.2418 258.6992,-83.577 265.2014,-64.6241"/>
<polygon fill="#ff0000" stroke="#ff0000" stroke-width=".2295" points="268.585,-65.5468 268.5195,-54.9522 261.9638,-63.2753 268.585,-65.5468"/>
</g>
<!-- y&#45;lm2&#45;vec&#45;&gt;backward -->
<g id="edge18" class="edge">
<title>y&#45;lm2&#45;vec&#45;&gt;backward</title>
<path fill="none" stroke="#00ff00" stroke-width=".1617" d="M256.5466,-120.1293C263.1029,-115.9974 271.2235,-111.3404 279,-108.1249 338.371,-83.5752 360.2336,-98.0886 419,-72.1249 424.8259,-69.5509 430.7243,-66.3865 436.3869,-63.0111"/>
<polygon fill="#00ff00" stroke="#00ff00" stroke-width=".1617" points="438.4293,-65.8618 445.0469,-57.5878 434.714,-59.9291 438.4293,-65.8618"/>
</g>
<!-- x&#45;other&#45;vec -->
<g id="node9" class="node">
<title>x&#45;other&#45;vec</title>
<polygon fill="#d3d3d3" stroke="#000000" points="787,-282.9777 729,-282.9777 729,-264.9777 787,-264.9777 787,-282.9777"/>
<text text-anchor="middle" x="758" y="-271.7777" font-family="Times,serif" font-size="9.00" fill="#000000">x&#45;other&#45;vec</text>
</g>
<!-- x&#45;other&#45;vec&#45;&gt;right -->
<g id="edge26" class="edge">
<title>x&#45;other&#45;vec&#45;&gt;right</title>
<path fill="none" stroke="#00ff00" stroke-width=".1325" d="M756.2149,-264.9417C749.9139,-233.0457 728.5058,-124.6772 717.5604,-69.2715"/>
<polygon fill="#00ff00" stroke="#00ff00" stroke-width=".1325" points="720.9532,-68.3857 715.5814,-59.2536 714.0859,-69.7424 720.9532,-68.3857"/>
</g>
<!-- 137 -->
<g id="node18" class="node">
<title>137</title>
<ellipse fill="#ffffff" stroke="#000000" cx="783" cy="-207.7645" rx="21.4286" ry="21.4286"/>
<text text-anchor="middle" x="783" y="-205.5645" font-family="Times,serif" font-size="9.00" fill="#000000">137</text>
</g>
<!-- x&#45;other&#45;vec&#45;&gt;137 -->
<g id="edge31" class="edge">
<title>x&#45;other&#45;vec&#45;&gt;137</title>
<path fill="none" stroke="#ff0000" stroke-width=".325" d="M761.4761,-264.771C764.1729,-257.6286 768.0695,-247.3084 771.8082,-237.4063"/>
<polygon fill="#ff0000" stroke="#ff0000" stroke-width=".325" points="775.1861,-238.3683 775.4441,-227.7766 768.6373,-235.8957 775.1861,-238.3683"/>
</g>
<!-- y&#45;other&#45;vec -->
<g id="node10" class="node">
<title>y&#45;other&#45;vec</title>
<polygon fill="#d3d3d3" stroke="#000000" points="578,-138.3381 520,-138.3381 520,-120.3381 578,-120.3381 578,-138.3381"/>
<text text-anchor="middle" x="549" y="-127.1381" font-family="Times,serif" font-size="9.00" fill="#000000">y&#45;other&#45;vec</text>
</g>
<!-- y&#45;other&#45;vec&#45;&gt;right -->
<g id="edge2" class="edge">
<title>y&#45;other&#45;vec&#45;&gt;right</title>
<path fill="none" stroke="#00ff00" stroke-width=".2921" d="M564.8282,-120.2246C591.8274,-104.6791 647.1858,-72.8051 681.4923,-53.0523"/>
<polygon fill="#00ff00" stroke="#00ff00" stroke-width=".2921" points="683.6494,-55.849 690.5692,-47.826 680.1566,-49.7827 683.6494,-55.849"/>
</g>
<!-- y&#45;other&#45;vec&#45;&gt;left -->
<g id="edge29" class="edge">
<title>y&#45;other&#45;vec&#45;&gt;left</title>
<path fill="none" stroke="#00ff00" stroke-width=".1553" d="M535.0613,-120.2042C528.0811,-115.9873 519.3547,-111.2371 511,-108.1249 436.9965,-80.5581 410.757,-100.3445 337,-72.1249 324.1887,-67.2233 310.9231,-59.8628 299.9662,-53.0671"/>
<polygon fill="#00ff00" stroke="#00ff00" stroke-width=".1553" points="301.6745,-50.0049 291.3661,-47.5579 297.8986,-55.8992 301.6745,-50.0049"/>
</g>
<!-- y&#45;other&#45;vec&#45;&gt;forward -->
<g id="edge5" class="edge">
<title>y&#45;other&#45;vec&#45;&gt;forward</title>
<path fill="none" stroke="#00ff00" stroke-width=".3784" d="M533.6485,-120.3293C526.7979,-116.4237 518.5773,-111.8924 511,-108.1249 475.3605,-90.4043 463.6475,-91.7144 429,-72.1249 423.3007,-68.9026 417.4531,-65.1943 411.844,-61.4086"/>
<polygon fill="#00ff00" stroke="#00ff00" stroke-width=".3784" points="413.49,-58.2902 403.2817,-55.4546 409.4936,-64.0373 413.49,-58.2902"/>
</g>
<!-- x&#45;other&#45;vel -->
<g id="node11" class="node">
<title>x&#45;other&#45;vel</title>
<polygon fill="#d3d3d3" stroke="#000000" points="56,-138.3381 0,-138.3381 0,-120.3381 56,-120.3381 56,-138.3381"/>
<text text-anchor="middle" x="28" y="-127.1381" font-family="Times,serif" font-size="9.00" fill="#000000">x&#45;other&#45;vel</text>
</g>
<!-- x&#45;other&#45;vel&#45;&gt;none -->
<g id="edge1" class="edge">
<title>x&#45;other&#45;vel&#45;&gt;none</title>
<path fill="none" stroke="#ff0000" stroke-width=".2187" d="M42.0695,-120.2246C65.3865,-105.1211 112.4988,-74.6042 143.1258,-54.7656"/>
<polygon fill="#ff0000" stroke="#ff0000" stroke-width=".2187" points="145.1847,-57.6022 151.6749,-49.228 141.379,-51.727 145.1847,-57.6022"/>
</g>
<!-- x&#45;other&#45;vel&#45;&gt;left -->
<g id="edge28" class="edge">
<title>x&#45;other&#45;vel&#45;&gt;left</title>
<path fill="none" stroke="#ff0000" stroke-width=".2977" d="M41.955,-120.1466C48.7004,-116.0185 57.0432,-111.3597 65,-108.1249 124.5161,-83.929 144.9562,-94.9798 205,-72.1249 220.1131,-66.3723 236.2051,-58.2363 249.1446,-51.1477"/>
<polygon fill="#ff0000" stroke="#ff0000" stroke-width=".2977" points="250.9328,-54.1579 257.9503,-46.2203 247.5145,-48.0492 250.9328,-54.1579"/>
</g>
<!-- y&#45;other&#45;vel -->
<g id="node12" class="node">
<title>y&#45;other&#45;vel</title>
<polygon fill="#d3d3d3" stroke="#000000" points="652,-138.3381 596,-138.3381 596,-120.3381 652,-120.3381 652,-138.3381"/>
<text text-anchor="middle" x="624" y="-127.1381" font-family="Times,serif" font-size="9.00" fill="#000000">y&#45;other&#45;vel</text>
</g>
<!-- y&#45;other&#45;vel&#45;&gt;forward -->
<g id="edge33" class="edge">
<title>y&#45;other&#45;vel&#45;&gt;forward</title>
<path fill="none" stroke="#00ff00" stroke-width=".1837" d="M610.4315,-120.2618C603.6357,-116.0585 595.1387,-111.3032 587,-108.1249 519.9121,-81.9262 494.7697,-101.4763 429,-72.1249 423.0212,-69.4567 417.0259,-66.0413 411.3543,-62.3794"/>
<polygon fill="#00ff00" stroke="#00ff00" stroke-width=".1837" points="412.9861,-59.255 402.7573,-56.4942 409.0319,-65.0312 412.9861,-59.255"/>
</g>
<!-- y&#45;other&#45;vel&#45;&gt;backward -->
<g id="edge19" class="edge">
<title>y&#45;other&#45;vel&#45;&gt;backward</title>
<path fill="none" stroke="#00ff00" stroke-width=".1049" d="M609.3443,-120.2246C587.3099,-106.5228 544.8761,-80.1359 513.3701,-60.5443"/>
<polygon fill="#00ff00" stroke="#00ff00" stroke-width=".1049" points="515.1399,-57.5233 504.7996,-55.2148 511.4434,-63.4677 515.1399,-57.5233"/>
</g>
<!-- 137&#45;&gt;right -->
<g id="edge32" class="edge">
<title>137&#45;&gt;right</title>
<path fill="none" stroke="#00ff00" stroke-width=".1341" d="M795.9043,-190.4563C809.469,-169.9753 827.0406,-135.2357 813,-108.1249 798.2116,-79.5701 766.3229,-59.9144 742.1116,-48.4306"/>
<polygon fill="#00ff00" stroke="#00ff00" stroke-width=".1341" points="743.4881,-45.2119 732.9337,-44.2877 740.6081,-51.5921 743.4881,-45.2119"/>
</g>
<!-- 430 -->
<g id="node19" class="node">
<title>430</title>
<ellipse fill="#ffffff" stroke="#000000" cx="783" cy="-129.3381" rx="21.4286" ry="21.4286"/>
<text text-anchor="middle" x="783" y="-127.1381" font-family="Times,serif" font-size="9.00" fill="#000000">430</text>
</g>
<!-- 137&#45;&gt;430 -->
<g id="edge34" class="edge">
<title>137&#45;&gt;430</title>
<path fill="none" stroke="#ff0000" stroke-width=".6804" d="M783,-186.3341C783,-178.4669 783,-169.388 783,-160.8216"/>
<polygon fill="#ff0000" stroke="#ff0000" stroke-width=".6804" points="786.5001,-160.7425 783,-150.7425 779.5001,-160.7426 786.5001,-160.7425"/>
</g>
<!-- 430&#45;&gt;right -->
<g id="edge35" class="edge">
<title>430&#45;&gt;right</title>
<path fill="none" stroke="#ff0000" stroke-width=".1791" d="M769.7941,-112.2299C759.0771,-98.346 743.7816,-78.5309 731.478,-62.5916"/>
<polygon fill="#ff0000" stroke="#ff0000" stroke-width=".1791" points="734.2378,-60.4389 725.3568,-54.6616 728.6966,-64.7162 734.2378,-60.4389"/>
</g>
</g>
</svg>
