<?xml version="1.0" encoding="UTF-8" standalone="no"?>
<!DOCTYPE svg PUBLIC "-//W3C//DTD SVG 1.1//EN"
 "http://www.w3.org/Graphics/SVG/1.1/DTD/svg11.dtd">
<!-- Generated by graphviz version 2.40.1 (20161225.0304)
 -->
<!-- Title: %3 Pages: 1 -->
<svg width="1565pt" height="213pt"
 viewBox="0.00 0.00 1565.30 212.55" xmlns="http://www.w3.org/2000/svg" xmlns:xlink="http://www.w3.org/1999/xlink">
<g id="graph0" class="graph" transform="scale(1 1) rotate(0) translate(4 208.5513)">
<title>%3</title>
<polygon fill="#ffffff" stroke="transparent" points="-4,4 -4,-208.5513 1561.3021,-208.5513 1561.3021,4 -4,4"/>
<!-- A_agent -->
<g id="node1" class="node">
<title>A_agent</title>
<polygon fill="#d3d3d3" stroke="#000000" points="301.8021,-138.3381 254.8021,-138.3381 254.8021,-120.3381 301.8021,-120.3381 301.8021,-138.3381"/>
<text text-anchor="middle" x="278.3021" y="-127.1381" font-family="Times,serif" font-size="9.00" fill="#000000">A_agent</text>
</g>
<!-- no_move -->
<g id="node26" class="node">
<title>no_move</title>
<ellipse fill="#add8e6" stroke="#000000" cx="406.3021" cy="-36.0624" rx="35.2113" ry="35.2113"/>
<text text-anchor="middle" x="406.3021" y="-33.8624" font-family="Times,serif" font-size="9.00" fill="#000000">no_move</text>
</g>
<!-- A_agent&#45;&gt;no_move -->
<g id="edge92" class="edge">
<title>A_agent&#45;&gt;no_move</title>
<path fill="none" stroke="#00ff00" stroke-width=".7017" d="M291.0432,-120.0535C309.131,-106.8726 342.983,-82.2041 369.3394,-62.9978"/>
<polygon fill="#00ff00" stroke="#00ff00" stroke-width=".7017" points="371.5832,-65.6934 377.6038,-56.9754 367.4607,-60.0361 371.5832,-65.6934"/>
</g>
<!-- backward -->
<g id="node30" class="node">
<title>backward</title>
<ellipse fill="#add8e6" stroke="#000000" cx="1190.3021" cy="-36.0624" rx="36.125" ry="36.125"/>
<text text-anchor="middle" x="1190.3021" y="-33.8624" font-family="Times,serif" font-size="9.00" fill="#000000">backward</text>
</g>
<!-- A_agent&#45;&gt;backward -->
<g id="edge43" class="edge">
<title>A_agent&#45;&gt;backward</title>
<path fill="none" stroke="#ff0000" stroke-width=".5873" d="M288.7834,-120.2754C294.6897,-115.7407 302.4431,-110.6838 310.3021,-108.1249 482.6826,-51.9984 950.8427,-121.4114 1125.3021,-72.1249 1134.2399,-69.5999 1143.2896,-65.6444 1151.6817,-61.2624"/>
<polygon fill="#ff0000" stroke="#ff0000" stroke-width=".5873" points="1153.4377,-64.2909 1160.4937,-56.3875 1150.0492,-58.1657 1153.4377,-64.2909"/>
</g>
<!-- no_turn -->
<g id="node31" class="node">
<title>no_turn</title>
<ellipse fill="#add8e6" stroke="#000000" cx="490.3021" cy="-36.0624" rx="31.2258" ry="31.2258"/>
<text text-anchor="middle" x="490.3021" y="-33.8624" font-family="Times,serif" font-size="9.00" fill="#000000">no_turn</text>
</g>
<!-- A_agent&#45;&gt;no_turn -->
<g id="edge24" class="edge">
<title>A_agent&#45;&gt;no_turn</title>
<path fill="none" stroke="#00ff00" stroke-width=".468" d="M289.9085,-120.2778C295.7556,-116.0783 303.1158,-111.3215 310.3021,-108.1249 369.0029,-82.0131 393.6967,-102.5129 450.3021,-72.1249 454.0092,-70.1348 457.649,-67.73 461.1306,-65.1179"/>
<polygon fill="#00ff00" stroke="#00ff00" stroke-width=".468" points="463.3991,-67.784 468.9244,-58.744 458.9677,-62.3653 463.3991,-67.784"/>
</g>
<!-- cw -->
<g id="node33" class="node">
<title>cw</title>
<ellipse fill="#add8e6" stroke="#000000" cx="558.3021" cy="-36.0624" rx="19.1842" ry="19.1842"/>
<text text-anchor="middle" x="558.3021" y="-33.8624" font-family="Times,serif" font-size="9.00" fill="#000000">cw</text>
</g>
<!-- A_agent&#45;&gt;cw -->
<g id="edge39" class="edge">
<title>A_agent&#45;&gt;cw</title>
<path fill="none" stroke="#00ff00" stroke-width=".1616" d="M289.4956,-120.2113C295.3593,-115.8892 302.8559,-111.0456 310.3021,-108.1249 402.5386,-71.946 445.1388,-122.758 530.3021,-72.1249 534.9521,-69.3603 539.1129,-65.5066 542.7147,-61.341"/>
<polygon fill="#00ff00" stroke="#00ff00" stroke-width=".1616" points="545.674,-63.2313 548.9341,-53.1505 540.0991,-58.998 545.674,-63.2313"/>
</g>
<!-- A_lm -->
<g id="node2" class="node">
<title>A_lm</title>
<polygon fill="#d3d3d3" stroke="#000000" points="1394.8021,-138.3381 1357.8021,-138.3381 1357.8021,-120.3381 1394.8021,-120.3381 1394.8021,-138.3381"/>
<text text-anchor="middle" x="1376.3021" y="-127.1381" font-family="Times,serif" font-size="9.00" fill="#000000">A_lm</text>
</g>
<!-- right -->
<g id="node27" class="node">
<title>right</title>
<ellipse fill="#add8e6" stroke="#000000" cx="1267.3021" cy="-36.0624" rx="23.1702" ry="23.1702"/>
<text text-anchor="middle" x="1267.3021" y="-33.8624" font-family="Times,serif" font-size="9.00" fill="#000000">right</text>
</g>
<!-- A_lm&#45;&gt;right -->
<g id="edge87" class="edge">
<title>A_lm&#45;&gt;right</title>
<path fill="none" stroke="#00ff00" stroke-width=".3599" d="M1365.4522,-120.0535C1348.6895,-105.7089 1316.0275,-77.7587 1292.9964,-58.0501"/>
<polygon fill="#00ff00" stroke="#00ff00" stroke-width=".3599" points="1295.1671,-55.301 1285.2936,-51.4585 1290.6158,-60.6195 1295.1671,-55.301"/>
</g>
<!-- left -->
<g id="node28" class="node">
<title>left</title>
<ellipse fill="#add8e6" stroke="#000000" cx="1096.3021" cy="-36.0624" rx="19.6" ry="19.6"/>
<text text-anchor="middle" x="1096.3021" y="-33.8624" font-family="Times,serif" font-size="9.00" fill="#000000">left</text>
</g>
<!-- A_lm&#45;&gt;left -->
<g id="edge5" class="edge">
<title>A_lm&#45;&gt;left</title>
<path fill="none" stroke="#00ff00" stroke-width=".6115" d="M1367.0676,-120.2098C1362.1737,-115.8873 1355.8329,-111.0438 1349.3021,-108.1249 1265.2477,-70.5574 1229.9374,-108.3645 1145.3021,-72.1249 1136.0322,-68.1557 1126.8617,-62.1316 1119.0057,-56.1373"/>
<polygon fill="#00ff00" stroke="#00ff00" stroke-width=".6115" points="1121.0406,-53.2824 1111.0544,-49.7431 1116.6539,-58.7374 1121.0406,-53.2824"/>
</g>
<!-- forward -->
<g id="node29" class="node">
<title>forward</title>
<ellipse fill="#add8e6" stroke="#000000" cx="837.3021" cy="-36.0624" rx="31.6406" ry="31.6406"/>
<text text-anchor="middle" x="837.3021" y="-33.8624" font-family="Times,serif" font-size="9.00" fill="#000000">forward</text>
</g>
<!-- A_lm&#45;&gt;forward -->
<g id="edge34" class="edge">
<title>A_lm&#45;&gt;forward</title>
<path fill="none" stroke="#ff0000" stroke-width=".4778" d="M1367.1655,-119.978C1362.2965,-115.5965 1355.9485,-110.77 1349.3021,-108.1249 1186.747,-43.4315 1129.0507,-105.4686 957.3021,-72.1249 930.021,-66.8285 900.0848,-57.8377 876.9371,-50.1587"/>
<polygon fill="#ff0000" stroke="#ff0000" stroke-width=".4778" points="878.0539,-46.8417 867.4598,-46.9625 875.817,-53.4747 878.0539,-46.8417"/>
</g>
<!-- A_lm&#45;&gt;backward -->
<g id="edge80" class="edge">
<title>A_lm&#45;&gt;backward</title>
<path fill="none" stroke="#ff0000" stroke-width=".4294" d="M1366.3953,-120.1418C1361.5336,-116.0126 1355.4167,-111.3543 1349.3021,-108.1249 1302.3193,-83.311 1282.1647,-97.165 1235.3021,-72.1249 1232.0184,-70.3703 1228.7391,-68.3645 1225.5323,-66.2175"/>
<polygon fill="#ff0000" stroke="#ff0000" stroke-width=".4294" points="1227.4244,-63.2674 1217.2595,-60.28 1223.3428,-68.9543 1227.4244,-63.2674"/>
</g>
<!-- ccw -->
<g id="node32" class="node">
<title>ccw</title>
<ellipse fill="#add8e6" stroke="#000000" cx="988.3021" cy="-36.0624" rx="21.8409" ry="21.8409"/>
<text text-anchor="middle" x="988.3021" y="-33.8624" font-family="Times,serif" font-size="9.00" fill="#000000">ccw</text>
</g>
<!-- A_lm&#45;&gt;ccw -->
<g id="edge85" class="edge">
<title>A_lm&#45;&gt;ccw</title>
<path fill="none" stroke="#00ff00" stroke-width=".5315" d="M1367.125,-120.0772C1362.2457,-115.721 1355.9007,-110.8872 1349.3021,-108.1249 1232.7521,-59.3341 1188.8152,-106.7515 1067.3021,-72.1249 1049.8177,-67.1425 1031.2767,-58.8525 1016.5538,-51.4763"/>
<polygon fill="#00ff00" stroke="#00ff00" stroke-width=".5315" points="1017.9726,-48.2702 1007.4796,-46.8051 1014.7687,-54.494 1017.9726,-48.2702"/>
</g>
<!-- A_wall -->
<g id="node3" class="node">
<title>A_wall</title>
<polygon fill="#d3d3d3" stroke="#000000" points="116.8021,-138.3381 73.8021,-138.3381 73.8021,-120.3381 116.8021,-120.3381 116.8021,-138.3381"/>
<text text-anchor="middle" x="95.3021" y="-127.1381" font-family="Times,serif" font-size="9.00" fill="#000000">A_wall</text>
</g>
<!-- A_wall&#45;&gt;no_move -->
<g id="edge12" class="edge">
<title>A_wall&#45;&gt;no_move</title>
<path fill="none" stroke="#00ff00" stroke-width=".3086" d="M106.5059,-120.2632C112.1608,-116.0603 119.2946,-111.3048 126.3021,-108.1249 204.8332,-72.488 304.0692,-52.2273 360.8487,-42.7552"/>
<polygon fill="#00ff00" stroke="#00ff00" stroke-width=".3086" points="361.6349,-46.1733 370.942,-41.1108 360.5093,-39.2644 361.6349,-46.1733"/>
</g>
<!-- A_wall&#45;&gt;forward -->
<g id="edge58" class="edge">
<title>A_wall&#45;&gt;forward</title>
<path fill="none" stroke="#ff0000" stroke-width=".1954" d="M105.7239,-120.1616C111.4069,-115.7133 118.7991,-110.7714 126.3021,-108.1249 319.6935,-39.9098 382.481,-94.7186 586.3021,-72.1249 660.2409,-63.9287 745.9308,-50.8402 795.6428,-42.8891"/>
<polygon fill="#ff0000" stroke="#ff0000" stroke-width=".1954" points="796.3701,-46.3172 805.6876,-41.274 795.2588,-39.406 796.3701,-46.3172"/>
</g>
<!-- A_wall&#45;&gt;no_turn -->
<g id="edge89" class="edge">
<title>A_wall&#45;&gt;no_turn</title>
<path fill="none" stroke="#ff0000" stroke-width=".5271" d="M105.7602,-120.2617C111.453,-115.8408 118.8431,-110.8932 126.3021,-108.1249 262.1348,-57.7118 318.1365,-131.4903 450.3021,-72.1249 454.1402,-70.4009 457.8649,-68.1687 461.3976,-65.6603"/>
<polygon fill="#ff0000" stroke="#ff0000" stroke-width=".5271" points="463.6042,-68.3773 469.2547,-59.4149 459.2485,-62.8975 463.6042,-68.3773"/>
</g>
<!-- B_agent -->
<g id="node4" class="node">
<title>B_agent</title>
<polygon fill="#d3d3d3" stroke="#000000" points="581.3021,-138.3381 535.3021,-138.3381 535.3021,-120.3381 581.3021,-120.3381 581.3021,-138.3381"/>
<text text-anchor="middle" x="558.3021" y="-127.1381" font-family="Times,serif" font-size="9.00" fill="#000000">B_agent</text>
</g>
<!-- B_agent&#45;&gt;no_move -->
<g id="edge42" class="edge">
<title>B_agent&#45;&gt;no_move</title>
<path fill="none" stroke="#ff0000" stroke-width=".1521" d="M545.0458,-120.2842C539.1105,-116.3702 531.9616,-111.8449 525.3021,-108.1249 493.0223,-90.0936 481.4897,-91.9856 450.3021,-72.1249 447.204,-70.152 444.0775,-67.9913 440.9963,-65.739"/>
<polygon fill="#ff0000" stroke="#ff0000" stroke-width=".1521" points="443.068,-62.9173 432.9963,-59.6292 438.8193,-68.4804 443.068,-62.9173"/>
</g>
<!-- B_agent&#45;&gt;forward -->
<g id="edge47" class="edge">
<title>B_agent&#45;&gt;forward</title>
<path fill="none" stroke="#ff0000" stroke-width=".2701" d="M570.2533,-120.1654C576.0613,-116.0414 583.2891,-111.3806 590.3021,-108.1249 659.2893,-76.098 745.7751,-54.7954 795.9638,-44.1193"/>
<polygon fill="#ff0000" stroke="#ff0000" stroke-width=".2701" points="796.7295,-47.535 805.8025,-42.064 795.298,-40.6829 796.7295,-47.535"/>
</g>
<!-- B_agent&#45;&gt;ccw -->
<g id="edge94" class="edge">
<title>B_agent&#45;&gt;ccw</title>
<path fill="none" stroke="#ff0000" stroke-width=".2276" d="M569.1587,-120.3088C575.052,-115.9007 582.677,-110.9505 590.3021,-108.1249 711.2604,-63.302 752.4314,-100.3483 878.3021,-72.1249 905.8516,-65.9476 936.2906,-55.6901 958.1513,-47.6907"/>
<polygon fill="#ff0000" stroke="#ff0000" stroke-width=".2276" points="959.3966,-50.9619 967.5506,-44.1971 956.9577,-44.4005 959.3966,-50.9619"/>
</g>
<!-- B_agent&#45;&gt;cw -->
<g id="edge17" class="edge">
<title>B_agent&#45;&gt;cw</title>
<path fill="none" stroke="#ff0000" stroke-width=".1433" d="M558.3021,-120.0535C558.3021,-107.4372 558.3021,-84.2966 558.3021,-65.4949"/>
<polygon fill="#ff0000" stroke="#ff0000" stroke-width=".1433" points="561.8022,-65.3149 558.3021,-55.315 554.8022,-65.315 561.8022,-65.3149"/>
</g>
<!-- B_lm -->
<g id="node5" class="node">
<title>B_lm</title>
<polygon fill="#d3d3d3" stroke="#000000" points="356.8021,-138.3381 319.8021,-138.3381 319.8021,-120.3381 356.8021,-120.3381 356.8021,-138.3381"/>
<text text-anchor="middle" x="338.3021" y="-127.1381" font-family="Times,serif" font-size="9.00" fill="#000000">B_lm</text>
</g>
<!-- B_lm&#45;&gt;no_move -->
<g id="edge30" class="edge">
<title>B_lm&#45;&gt;no_move</title>
<path fill="none" stroke="#ff0000" stroke-width=".4659" d="M345.0708,-120.0535C353.0387,-109.1238 366.7649,-90.2956 379.2043,-73.2325"/>
<polygon fill="#ff0000" stroke="#ff0000" stroke-width=".4659" points="382.1139,-75.1827 385.1766,-65.0402 376.4574,-71.059 382.1139,-75.1827"/>
</g>
<!-- B_lm&#45;&gt;backward -->
<g id="edge91" class="edge">
<title>B_lm&#45;&gt;backward</title>
<path fill="none" stroke="#00ff00" stroke-width=".1139" d="M347.2876,-120.2907C352.4012,-115.7605 359.1927,-110.7029 366.3021,-108.1249 525.0437,-50.5615 962.8808,-118.2959 1125.3021,-72.1249 1134.2358,-69.5853 1143.2836,-65.6235 1151.6754,-61.2399"/>
<polygon fill="#00ff00" stroke="#00ff00" stroke-width=".1139" points="1153.4314,-64.2684 1160.4873,-56.3649 1150.0428,-58.1432 1153.4314,-64.2684"/>
</g>
<!-- B_lm&#45;&gt;no_turn -->
<g id="edge32" class="edge">
<title>B_lm&#45;&gt;no_turn</title>
<path fill="none" stroke="#ff0000" stroke-width=".1255" d="M349.0419,-120.2238C354.0817,-116.2082 360.2916,-111.6193 366.3021,-108.1249 401.4162,-87.7098 416.0905,-94.0189 450.3021,-72.1249 453.6614,-69.975 457.0119,-67.5404 460.263,-64.9755"/>
<polygon fill="#ff0000" stroke="#ff0000" stroke-width=".1255" points="462.6707,-67.5245 468.0888,-58.4198 458.1755,-62.1585 462.6707,-67.5245"/>
</g>
<!-- B_lm&#45;&gt;cw -->
<g id="edge14" class="edge">
<title>B_lm&#45;&gt;cw</title>
<path fill="none" stroke="#00ff00" stroke-width=".1082" d="M347.9864,-120.334C353.089,-116.0432 359.6567,-111.1905 366.3021,-108.1249 434.0638,-76.8656 467.2089,-111.9752 530.3021,-72.1249 534.8759,-69.236 539.0011,-65.3243 542.5918,-61.1404"/>
<polygon fill="#00ff00" stroke="#00ff00" stroke-width=".1082" points="545.5479,-63.0353 548.8154,-52.9569 539.9761,-58.7979 545.5479,-63.0353"/>
</g>
<!-- B_wall -->
<g id="node6" class="node">
<title>B_wall</title>
<polygon fill="#d3d3d3" stroke="#000000" points="541.3021,-204.5513 499.3021,-204.5513 499.3021,-186.5513 541.3021,-186.5513 541.3021,-204.5513"/>
<text text-anchor="middle" x="520.3021" y="-193.3513" font-family="Times,serif" font-size="9.00" fill="#000000">B_wall</text>
</g>
<!-- C_agent -->
<g id="node7" class="node">
<title>C_agent</title>
<polygon fill="#d3d3d3" stroke="#000000" points="645.3021,-138.3381 599.3021,-138.3381 599.3021,-120.3381 645.3021,-120.3381 645.3021,-138.3381"/>
<text text-anchor="middle" x="622.3021" y="-127.1381" font-family="Times,serif" font-size="9.00" fill="#000000">C_agent</text>
</g>
<!-- C_agent&#45;&gt;no_move -->
<g id="edge8" class="edge">
<title>C_agent&#45;&gt;no_move</title>
<path fill="none" stroke="#ff0000" stroke-width=".1797" d="M610.6956,-120.2778C604.8486,-116.0783 597.4883,-111.3215 590.3021,-108.1249 531.6013,-82.0131 507.6073,-101.1716 450.3021,-72.1249 447.026,-70.4643 443.7732,-68.5252 440.6061,-66.4235"/>
<polygon fill="#ff0000" stroke="#ff0000" stroke-width=".1797" points="442.6255,-63.5647 432.4656,-60.5602 438.5344,-69.2447 442.6255,-63.5647"/>
</g>
<!-- C_agent&#45;&gt;left -->
<g id="edge65" class="edge">
<title>C_agent&#45;&gt;left</title>
<path fill="none" stroke="#ff0000" stroke-width=".116" d="M633.129,-120.227C639.0141,-115.7965 646.6408,-110.851 654.3021,-108.1249 807.8788,-53.4783 862.1186,-115.3151 1019.3021,-72.1249 1037.0501,-67.2482 1055.7759,-58.567 1070.3168,-50.9442"/>
<polygon fill="#ff0000" stroke="#ff0000" stroke-width=".116" points="1072.0798,-53.9699 1079.2155,-46.1384 1068.7535,-47.8107 1072.0798,-53.9699"/>
</g>
<!-- C_agent&#45;&gt;forward -->
<g id="edge60" class="edge">
<title>C_agent&#45;&gt;forward</title>
<path fill="none" stroke="#ff0000" stroke-width=".1698" d="M634.6963,-120.2387C640.4804,-116.2262 647.5631,-111.6356 654.3021,-108.1249 701.6984,-83.4337 759.5434,-61.998 797.3446,-49.0663"/>
<polygon fill="#ff0000" stroke="#ff0000" stroke-width=".1698" points="798.6261,-52.3277 806.9766,-45.807 796.3823,-45.697 798.6261,-52.3277"/>
</g>
<!-- C_agent&#45;&gt;no_turn -->
<g id="edge86" class="edge">
<title>C_agent&#45;&gt;no_turn</title>
<path fill="none" stroke="#ff0000" stroke-width=".5793" d="M608.9997,-120.3268C603.2829,-116.5044 596.5028,-112.0376 590.3021,-108.1249 564.002,-91.5293 555.3007,-90.623 530.3021,-72.1249 527.096,-69.7525 523.8478,-67.1695 520.6605,-64.5119"/>
<polygon fill="#ff0000" stroke="#ff0000" stroke-width=".5793" points="522.7781,-61.7162 512.9219,-57.8296 518.2032,-67.0143 522.7781,-61.7162"/>
</g>
<!-- C_agent&#45;&gt;ccw -->
<g id="edge99" class="edge">
<title>C_agent&#45;&gt;ccw</title>
<path fill="none" stroke="#ff0000" stroke-width=".2744" d="M633.4921,-120.2023C639.3549,-115.878 646.8518,-111.035 654.3021,-108.1249 748.2246,-71.4389 780.3131,-95.9046 878.3021,-72.1249 905.7393,-65.4665 936.1892,-55.2559 958.0827,-47.3969"/>
<polygon fill="#ff0000" stroke="#ff0000" stroke-width=".2744" points="959.2966,-50.6797 967.4982,-43.9727 956.9042,-44.1013 959.2966,-50.6797"/>
</g>
<!-- C_lm -->
<g id="node8" class="node">
<title>C_lm</title>
<polygon fill="#d3d3d3" stroke="#000000" points="1164.8021,-138.3381 1127.8021,-138.3381 1127.8021,-120.3381 1164.8021,-120.3381 1164.8021,-138.3381"/>
<text text-anchor="middle" x="1146.3021" y="-127.1381" font-family="Times,serif" font-size="9.00" fill="#000000">C_lm</text>
</g>
<!-- C_lm&#45;&gt;no_move -->
<g id="edge74" class="edge">
<title>C_lm&#45;&gt;no_move</title>
<path fill="none" stroke="#00ff00" stroke-width=".6049" d="M1137.6877,-120.3106C1132.7714,-115.7862 1126.2205,-110.7278 1119.3021,-108.1249 979.9564,-55.6983 589.0995,-125.9863 450.3021,-72.1249 446.7801,-70.7582 443.3283,-68.9948 440.0044,-66.9838"/>
<polygon fill="#00ff00" stroke="#00ff00" stroke-width=".6049" points="441.771,-63.9514 431.5438,-61.1846 437.8134,-69.7253 441.771,-63.9514"/>
</g>
<!-- C_lm&#45;&gt;right -->
<g id="edge13" class="edge">
<title>C_lm&#45;&gt;right</title>
<path fill="none" stroke="#00ff00" stroke-width=".2908" d="M1157.7992,-120.155C1162.7773,-116.3036 1168.7305,-111.8615 1174.3021,-108.1249 1200.4471,-90.5907 1211.0047,-92.1411 1235.3021,-72.1249 1238.8876,-69.1711 1242.4225,-65.8031 1245.7602,-62.3393"/>
<polygon fill="#00ff00" stroke="#00ff00" stroke-width=".2908" points="1248.5478,-64.4766 1252.6951,-54.7271 1243.3732,-59.7624 1248.5478,-64.4766"/>
</g>
<!-- C_lm&#45;&gt;left -->
<g id="edge67" class="edge">
<title>C_lm&#45;&gt;left</title>
<path fill="none" stroke="#ff0000" stroke-width=".2142" stroke-dasharray="1,5" d="M1141.3251,-120.0535C1134.1927,-106.7478 1120.7853,-81.7362 1110.4491,-62.454"/>
<polygon fill="#ff0000" stroke="#ff0000" stroke-width=".2142" points="1113.472,-60.6848 1105.6627,-53.5248 1107.3025,-63.992 1113.472,-60.6848"/>
</g>
<!-- C_lm&#45;&gt;ccw -->
<g id="edge38" class="edge">
<title>C_lm&#45;&gt;ccw</title>
<path fill="none" stroke="#00ff00" stroke-width=".2698" d="M1135.5697,-120.2497C1130.7345,-116.3293 1124.8705,-111.8085 1119.3021,-108.1249 1085.606,-85.8343 1044.4582,-64.0101 1017.3763,-50.3252"/>
<polygon fill="#00ff00" stroke="#00ff00" stroke-width=".2698" points="1018.9274,-47.1877 1008.419,-45.8368 1015.7913,-53.4459 1018.9274,-47.1877"/>
</g>
<!-- C_wall -->
<g id="node9" class="node">
<title>C_wall</title>
<polygon fill="#d3d3d3" stroke="#000000" points="827.3021,-138.3381 785.3021,-138.3381 785.3021,-120.3381 827.3021,-120.3381 827.3021,-138.3381"/>
<text text-anchor="middle" x="806.3021" y="-127.1381" font-family="Times,serif" font-size="9.00" fill="#000000">C_wall</text>
</g>
<!-- C_wall&#45;&gt;right -->
<g id="edge40" class="edge">
<title>C_wall&#45;&gt;right</title>
<path fill="none" stroke="#00ff00" stroke-width=".2618" d="M816.7372,-120.1989C822.4238,-115.7608 829.8152,-110.8168 837.3021,-108.1249 1004.438,-48.031 1076.758,-152.1839 1235.3021,-72.1249 1239.7384,-69.8847 1243.8383,-66.7437 1247.5191,-63.2404"/>
<polygon fill="#00ff00" stroke="#00ff00" stroke-width=".2618" points="1250.2542,-65.4372 1254.4595,-55.7127 1245.1078,-60.6923 1250.2542,-65.4372"/>
</g>
<!-- C_wall&#45;&gt;forward -->
<g id="edge2" class="edge">
<title>C_wall&#45;&gt;forward</title>
<path fill="none" stroke="#00ff00" stroke-width=".1769" d="M809.3878,-120.0535C812.8121,-109.7503 818.5691,-92.4279 823.9685,-76.1819"/>
<polygon fill="#00ff00" stroke="#00ff00" stroke-width=".1769" points="827.4275,-76.8714 827.26,-66.2779 820.7847,-74.6637 827.4275,-76.8714"/>
</g>
<!-- C_wall&#45;&gt;no_turn -->
<g id="edge27" class="edge">
<title>C_wall&#45;&gt;no_turn</title>
<path fill="none" stroke="#00ff00" stroke-width=".2693" d="M795.9154,-120.1447C790.4456,-115.8057 783.4096,-110.967 776.3021,-108.1249 673.7028,-67.0985 630.299,-119.1396 530.3021,-72.1249 526.4944,-70.3347 522.7894,-68.0595 519.2686,-65.5253"/>
<polygon fill="#00ff00" stroke="#00ff00" stroke-width=".2693" points="521.4205,-62.7645 511.4262,-59.2479 517.0461,-68.2295 521.4205,-62.7645"/>
</g>
<!-- C_wall&#45;&gt;ccw -->
<g id="edge56" class="edge">
<title>C_wall&#45;&gt;ccw</title>
<path fill="none" stroke="#ff0000" stroke-width=".2469" d="M818.6858,-120.2142C824.2487,-116.2872 830.9733,-111.7711 837.3021,-108.1249 877.9552,-84.7031 927.4193,-62.15 958.393,-48.6931"/>
<polygon fill="#ff0000" stroke="#ff0000" stroke-width=".2469" points="959.9668,-51.8261 967.765,-44.6541 957.1963,-45.3977 959.9668,-51.8261"/>
</g>
<!-- C_wall&#45;&gt;cw -->
<g id="edge4" class="edge">
<title>C_wall&#45;&gt;cw</title>
<path fill="none" stroke="#00ff00" stroke-width=".4816" d="M795.1259,-120.2354C789.687,-116.1267 782.908,-111.4586 776.3021,-108.1249 712.0016,-75.6751 629.8683,-53.1329 587.1078,-42.678"/>
<polygon fill="#00ff00" stroke="#00ff00" stroke-width=".4816" points="587.6603,-39.2112 577.1196,-40.2817 586.0272,-46.0181 587.6603,-39.2112"/>
</g>
<!-- D_agent -->
<g id="node10" class="node">
<title>D_agent</title>
<polygon fill="#d3d3d3" stroke="#000000" points="1109.8021,-138.3381 1062.8021,-138.3381 1062.8021,-120.3381 1109.8021,-120.3381 1109.8021,-138.3381"/>
<text text-anchor="middle" x="1086.3021" y="-127.1381" font-family="Times,serif" font-size="9.00" fill="#000000">D_agent</text>
</g>
<!-- D_agent&#45;&gt;no_move -->
<g id="edge88" class="edge">
<title>D_agent&#45;&gt;no_move</title>
<path fill="none" stroke="#00ff00" stroke-width=".152" d="M1062.6376,-120.7984C1048.9846,-116.2447 1031.3852,-111.0014 1015.3021,-108.1249 891.4572,-85.9747 567.3646,-118.218 450.3021,-72.1249 446.7869,-70.7408 443.3399,-68.9652 440.0191,-66.9461"/>
<polygon fill="#00ff00" stroke="#00ff00" stroke-width=".152" points="441.7872,-63.9143 431.5637,-61.1339 437.8219,-69.6829 441.7872,-63.9143"/>
</g>
<!-- D_agent&#45;&gt;right -->
<g id="edge23" class="edge">
<title>D_agent&#45;&gt;right</title>
<path fill="none" stroke="#00ff00" stroke-width=".2473" d="M1098.6906,-120.2386C1104.6941,-116.1307 1112.1411,-111.4622 1119.3021,-108.1249 1168.2306,-85.322 1189.9419,-101.3896 1235.3021,-72.1249 1239.3947,-69.4845 1243.2801,-66.1813 1246.841,-62.653"/>
<polygon fill="#00ff00" stroke="#00ff00" stroke-width=".2473" points="1249.4684,-64.9665 1253.657,-55.2348 1244.3138,-60.2304 1249.4684,-64.9665"/>
</g>
<!-- D_agent&#45;&gt;left -->
<g id="edge16" class="edge">
<title>D_agent&#45;&gt;left</title>
<path fill="none" stroke="#ff0000" stroke-width=".3269" d="M1087.2975,-120.0535C1088.6335,-107.592 1091.0702,-84.8629 1093.0723,-66.1889"/>
<polygon fill="#ff0000" stroke="#ff0000" stroke-width=".3269" points="1096.5735,-66.3635 1094.1595,-56.0474 1089.6134,-65.6173 1096.5735,-66.3635"/>
</g>
<!-- D_agent&#45;&gt;backward -->
<g id="edge29" class="edge">
<title>D_agent&#45;&gt;backward</title>
<path fill="none" stroke="#ff0000" stroke-width=".6169" d="M1096.6542,-120.0535C1110.3216,-107.7954 1135.0666,-85.6021 1155.6888,-67.1065"/>
<polygon fill="#ff0000" stroke="#ff0000" stroke-width=".6169" points="1158.2513,-69.5097 1163.3589,-60.2273 1153.5775,-64.2986 1158.2513,-69.5097"/>
</g>
<!-- D_agent&#45;&gt;no_turn -->
<g id="edge84" class="edge">
<title>D_agent&#45;&gt;no_turn</title>
<path fill="none" stroke="#ff0000" stroke-width=".2648" d="M1062.626,-120.8625C1048.9692,-116.3294 1031.3699,-111.0855 1015.3021,-108.1249 909.017,-88.5412 629.6809,-114.5973 530.3021,-72.1249 526.4331,-70.4714 522.6883,-68.2849 519.1437,-65.8038"/>
<polygon fill="#ff0000" stroke="#ff0000" stroke-width=".2648" points="521.2902,-63.0392 511.2717,-59.5925 516.9541,-68.5346 521.2902,-63.0392"/>
</g>
<!-- D_agent&#45;&gt;ccw -->
<g id="edge98" class="edge">
<title>D_agent&#45;&gt;ccw</title>
<path fill="none" stroke="#ff0000" stroke-width=".2193" stroke-dasharray="1,5" d="M1076.5472,-120.0535C1061.6077,-105.8342 1032.6221,-78.2459 1011.9479,-58.5684"/>
<polygon fill="#ff0000" stroke="#ff0000" stroke-width=".2193" points="1014.1345,-55.8176 1004.4779,-51.4585 1009.3084,-60.8881 1014.1345,-55.8176"/>
</g>
<!-- D_lm -->
<g id="node11" class="node">
<title>D_lm</title>
<polygon fill="#d3d3d3" stroke="#000000" points="1274.8021,-138.3381 1237.8021,-138.3381 1237.8021,-120.3381 1274.8021,-120.3381 1274.8021,-138.3381"/>
<text text-anchor="middle" x="1256.3021" y="-127.1381" font-family="Times,serif" font-size="9.00" fill="#000000">D_lm</text>
</g>
<!-- D_lm&#45;&gt;left -->
<g id="edge75" class="edge">
<title>D_lm&#45;&gt;left</title>
<path fill="none" stroke="#00ff00" stroke-width=".1529" d="M1245.991,-120.1986C1241.1403,-116.178 1235.1468,-111.5921 1229.3021,-108.1249 1194.3688,-87.4018 1180.5572,-92.2955 1145.3021,-72.1249 1136.5495,-67.1172 1127.5104,-60.8292 1119.6158,-54.9123"/>
<polygon fill="#00ff00" stroke="#00ff00" stroke-width=".1529" points="1121.6253,-52.0422 1111.5662,-48.7155 1117.3552,-57.589 1121.6253,-52.0422"/>
</g>
<!-- D_lm&#45;&gt;backward -->
<g id="edge73" class="edge">
<title>D_lm&#45;&gt;backward</title>
<path fill="none" stroke="#ff0000" stroke-width=".261" d="M1249.7325,-120.0535C1242.1803,-109.3802 1229.2982,-91.1744 1217.4543,-74.4358"/>
<polygon fill="#ff0000" stroke="#ff0000" stroke-width=".261" points="1220.0223,-72.0055 1211.3891,-65.864 1214.3081,-76.0488 1220.0223,-72.0055"/>
</g>
<!-- D_lm&#45;&gt;cw -->
<g id="edge52" class="edge">
<title>D_lm&#45;&gt;cw</title>
<path fill="none" stroke="#00ff00" stroke-width=".1762" stroke-dasharray="1,5" d="M1247.1751,-119.9537C1242.3086,-115.566 1235.9599,-110.7413 1229.3021,-108.1249 1139.4381,-72.8094 892.2,-83.3638 796.3021,-72.1249 720.6021,-63.2531 631.9679,-48.7191 587.2492,-41.0933"/>
<polygon fill="#00ff00" stroke="#00ff00" stroke-width=".1762" points="587.8179,-37.6398 577.3702,-39.399 586.6346,-44.5391 587.8179,-37.6398"/>
</g>
<!-- D_wall -->
<g id="node12" class="node">
<title>D_wall</title>
<polygon fill="#d3d3d3" stroke="#000000" points="951.8021,-138.3381 908.8021,-138.3381 908.8021,-120.3381 951.8021,-120.3381 951.8021,-138.3381"/>
<text text-anchor="middle" x="930.3021" y="-127.1381" font-family="Times,serif" font-size="9.00" fill="#000000">D_wall</text>
</g>
<!-- D_wall&#45;&gt;left -->
<g id="edge49" class="edge">
<title>D_wall&#45;&gt;left</title>
<path fill="none" stroke="#00ff00" stroke-width=".3504" d="M943.0652,-120.139C948.5825,-116.2849 955.1686,-111.8451 961.3021,-108.1249 997.878,-85.9402 1041.8498,-63.1545 1069.4445,-49.3001"/>
<polygon fill="#00ff00" stroke="#00ff00" stroke-width=".3504" points="1071.0994,-52.3859 1078.4831,-44.7877 1067.9727,-46.123 1071.0994,-52.3859"/>
</g>
<!-- D_wall&#45;&gt;forward -->
<g id="edge31" class="edge">
<title>D_wall&#45;&gt;forward</title>
<path fill="none" stroke="#00ff00" stroke-width=".3522" d="M921.0449,-120.0535C908.5525,-107.524 885.7105,-84.6144 867.0349,-65.8834"/>
<polygon fill="#00ff00" stroke="#00ff00" stroke-width=".3522" points="869.391,-63.2894 859.8519,-58.6791 864.434,-68.2318 869.391,-63.2894"/>
</g>
<!-- D_wall&#45;&gt;backward -->
<g id="edge20" class="edge">
<title>D_wall&#45;&gt;backward</title>
<path fill="none" stroke="#ff0000" stroke-width=".5436" d="M941.4573,-120.1534C947.1006,-115.9245 954.2388,-111.1789 961.3021,-108.1249 1029.7981,-78.5092 1055.4958,-98.5043 1125.3021,-72.1249 1133.81,-68.9098 1142.5598,-64.7318 1150.7734,-60.3647"/>
<polygon fill="#ff0000" stroke="#ff0000" stroke-width=".5436" points="1152.7139,-63.2914 1159.7777,-55.395 1149.3314,-57.1629 1152.7139,-63.2914"/>
</g>
<!-- D_wall&#45;&gt;cw -->
<g id="edge81" class="edge">
<title>D_wall&#45;&gt;cw</title>
<path fill="none" stroke="#00ff00" stroke-width=".4587" d="M919.8375,-120.3312C914.3478,-116.0397 907.3175,-111.1872 900.3021,-108.1249 791.1817,-60.4933 648.4165,-43.5429 587.6899,-38.2239"/>
<polygon fill="#00ff00" stroke="#00ff00" stroke-width=".4587" points="587.9202,-34.731 577.6638,-37.3875 587.3382,-41.7068 587.9202,-34.731"/>
</g>
<!-- E_agent -->
<g id="node13" class="node">
<title>E_agent</title>
<polygon fill="#d3d3d3" stroke="#000000" points="1497.3021,-138.3381 1451.3021,-138.3381 1451.3021,-120.3381 1497.3021,-120.3381 1497.3021,-138.3381"/>
<text text-anchor="middle" x="1474.3021" y="-127.1381" font-family="Times,serif" font-size="9.00" fill="#000000">E_agent</text>
</g>
<!-- E_agent&#45;&gt;right -->
<g id="edge70" class="edge">
<title>E_agent&#45;&gt;right</title>
<path fill="none" stroke="#00ff00" stroke-width=".1114" d="M1459.4024,-120.2532C1452.7408,-116.3334 1444.7303,-111.8122 1437.3021,-108.1249 1390.0006,-84.6448 1333.1793,-61.5427 1298.6781,-48.0553"/>
<polygon fill="#00ff00" stroke="#00ff00" stroke-width=".1114" points="1299.7329,-44.7102 1289.1441,-44.3511 1297.1978,-51.2351 1299.7329,-44.7102"/>
</g>
<!-- E_agent&#45;&gt;left -->
<g id="edge64" class="edge">
<title>E_agent&#45;&gt;left</title>
<path fill="none" stroke="#00ff00" stroke-width=".3669" d="M1461.5467,-120.3334C1454.6772,-115.9321 1445.8723,-110.9804 1437.3021,-108.1249 1313.2467,-66.7906 1266.8041,-120.4522 1145.3021,-72.1249 1135.9322,-68.398 1126.7362,-62.4355 1118.8876,-56.4232"/>
<polygon fill="#00ff00" stroke="#00ff00" stroke-width=".3669" points="1120.9249,-53.5689 1110.9554,-49.9829 1116.5127,-59.0033 1120.9249,-53.5689"/>
</g>
<!-- E_agent&#45;&gt;backward -->
<g id="edge50" class="edge">
<title>E_agent&#45;&gt;backward</title>
<path fill="none" stroke="#ff0000" stroke-width=".2464" stroke-dasharray="1,5" d="M1461.1409,-120.3073C1454.3052,-116.0096 1445.6534,-111.1589 1437.3021,-108.1249 1351.5908,-76.9861 1318.3451,-109.8065 1235.3021,-72.1249 1231.9117,-70.5865 1228.5568,-68.734 1225.2985,-66.6913"/>
<polygon fill="#ff0000" stroke="#ff0000" stroke-width=".2464" points="1227.16,-63.7234 1216.9415,-60.9244 1223.1842,-69.4848 1227.16,-63.7234"/>
</g>
<!-- E_agent&#45;&gt;no_turn -->
<g id="edge33" class="edge">
<title>E_agent&#45;&gt;no_turn</title>
<path fill="none" stroke="#00ff00" stroke-width=".1321" d="M1451.0047,-120.6579C1437.5548,-116.0587 1420.203,-110.8169 1404.3021,-108.1249 1212.6424,-75.6773 710.2822,-145.5648 530.3021,-72.1249 526.4064,-70.5353 522.6443,-68.3902 519.0893,-65.9341"/>
<polygon fill="#00ff00" stroke="#00ff00" stroke-width=".1321" points="521.2339,-63.1681 511.2044,-59.7537 516.9156,-68.6774 521.2339,-63.1681"/>
</g>
<!-- E_lm -->
<g id="node14" class="node">
<title>E_lm</title>
<polygon fill="#d3d3d3" stroke="#000000" points="171.3021,-138.3381 135.3021,-138.3381 135.3021,-120.3381 171.3021,-120.3381 171.3021,-138.3381"/>
<text text-anchor="middle" x="153.3021" y="-127.1381" font-family="Times,serif" font-size="9.00" fill="#000000">E_lm</text>
</g>
<!-- E_lm&#45;&gt;no_move -->
<g id="edge15" class="edge">
<title>E_lm&#45;&gt;no_move</title>
<path fill="none" stroke="#00ff00" stroke-width=".4001" d="M163.2129,-120.1494C168.0755,-116.0219 174.192,-111.3628 180.3021,-108.1249 239.4596,-76.7753 314.6234,-56.1811 361.6069,-45.3246"/>
<polygon fill="#00ff00" stroke="#00ff00" stroke-width=".4001" points="362.4955,-48.7121 371.4766,-43.0917 360.9508,-41.8847 362.4955,-48.7121"/>
</g>
<!-- E_lm&#45;&gt;no_turn -->
<g id="edge21" class="edge">
<title>E_lm&#45;&gt;no_turn</title>
<path fill="none" stroke="#00ff00" stroke-width=".3545" stroke-dasharray="1,5" d="M162.4857,-120.0928C167.3667,-115.7405 173.7112,-110.9056 180.3021,-108.1249 291.843,-61.065 340.4186,-122.9345 450.3021,-72.1249 454.1211,-70.359 457.8334,-68.0996 461.3586,-65.5748"/>
<polygon fill="#00ff00" stroke="#00ff00" stroke-width=".3545" points="463.5754,-68.2837 469.2065,-59.3093 459.2079,-62.8133 463.5754,-68.2837"/>
</g>
<!-- E_lm&#45;&gt;ccw -->
<g id="edge11" class="edge">
<title>E_lm&#45;&gt;ccw</title>
<path fill="none" stroke="#00ff00" stroke-width=".2843" d="M161.9142,-120.3045C166.8297,-115.7783 173.3807,-110.7201 180.3021,-108.1249 325.732,-53.5942 725.6113,-100.5674 878.3021,-72.1249 906.2296,-66.9227 936.8527,-56.4708 958.6802,-48.1525"/>
<polygon fill="#00ff00" stroke="#00ff00" stroke-width=".2843" points="959.9986,-51.3952 968.0489,-44.5073 957.4603,-44.8716 959.9986,-51.3952"/>
</g>
<!-- E_lm&#45;&gt;cw -->
<g id="edge62" class="edge">
<title>E_lm&#45;&gt;cw</title>
<path fill="none" stroke="#00ff00" stroke-width=".1397" d="M162.451,-120.0087C167.3231,-115.635 173.6702,-110.8063 180.3021,-108.1249 325.2771,-49.5093 393.5626,-147.9922 530.3021,-72.1249 535.2405,-69.3849 539.5989,-65.3766 543.3177,-61.0183"/>
<polygon fill="#00ff00" stroke="#00ff00" stroke-width=".1397" points="546.1307,-63.1009 549.3077,-52.9936 540.5211,-58.9136 546.1307,-63.1009"/>
</g>
<!-- E_wall -->
<g id="node15" class="node">
<title>E_wall</title>
<polygon fill="#d3d3d3" stroke="#000000" points="767.3021,-138.3381 725.3021,-138.3381 725.3021,-120.3381 767.3021,-120.3381 767.3021,-138.3381"/>
<text text-anchor="middle" x="746.3021" y="-127.1381" font-family="Times,serif" font-size="9.00" fill="#000000">E_wall</text>
</g>
<!-- E_wall&#45;&gt;no_move -->
<g id="edge90" class="edge">
<title>E_wall&#45;&gt;no_move</title>
<path fill="none" stroke="#00ff00" stroke-width=".1352" d="M735.8158,-120.3362C730.1153,-115.9357 722.7268,-110.9839 715.3021,-108.1249 604.3817,-65.4133 559.2727,-119.5907 450.3021,-72.1249 446.8385,-70.6162 443.4277,-68.7533 440.1312,-66.6757"/>
<polygon fill="#00ff00" stroke="#00ff00" stroke-width=".1352" points="441.9107,-63.6487 431.7143,-60.7705 437.8903,-69.3791 441.9107,-63.6487"/>
</g>
<!-- E_wall&#45;&gt;left -->
<g id="edge55" class="edge">
<title>E_wall&#45;&gt;left</title>
<path fill="none" stroke="#ff0000" stroke-width=".1825" d="M756.6909,-120.1501C762.1613,-115.8124 769.1971,-110.9732 776.3021,-108.1249 877.6407,-67.4986 914.7619,-103.6105 1019.3021,-72.1249 1036.8099,-66.8518 1055.4022,-58.2388 1069.9306,-50.7523"/>
<polygon fill="#ff0000" stroke="#ff0000" stroke-width=".1825" points="1071.6347,-53.8105 1078.8388,-46.0418 1068.3625,-47.6224 1071.6347,-53.8105"/>
</g>
<!-- E_wall&#45;&gt;forward -->
<g id="edge69" class="edge">
<title>E_wall&#45;&gt;forward</title>
<path fill="none" stroke="#ff0000" stroke-width=".1811" d="M755.3602,-120.0535C767.5046,-107.6054 789.6449,-84.9114 807.8522,-66.2488"/>
<polygon fill="#ff0000" stroke="#ff0000" stroke-width=".1811" points="810.3844,-68.6653 814.8624,-59.0632 805.3739,-63.777 810.3844,-68.6653"/>
</g>
<!-- E_wall&#45;&gt;ccw -->
<g id="edge25" class="edge">
<title>E_wall&#45;&gt;ccw</title>
<path fill="none" stroke="#00ff00" stroke-width=".594" stroke-dasharray="1,5" d="M757.4909,-120.2603C762.9325,-116.1571 769.7102,-111.4864 776.3021,-108.1249 784.6736,-103.8559 901.3783,-64.9131 957.9637,-46.1196"/>
<polygon fill="#00ff00" stroke="#00ff00" stroke-width=".594" points="959.0813,-49.4364 967.4694,-42.9642 956.876,-42.7929 959.0813,-49.4364"/>
</g>
<!-- E_wall&#45;&gt;cw -->
<g id="edge77" class="edge">
<title>E_wall&#45;&gt;cw</title>
<path fill="none" stroke="#00ff00" stroke-width=".5422" d="M733.9441,-120.1692C728.386,-116.2339 721.6579,-111.7237 715.3021,-108.1249 671.5005,-83.3236 617.6501,-60.0681 585.754,-46.9917"/>
<polygon fill="#00ff00" stroke="#00ff00" stroke-width=".5422" points="586.7921,-43.6357 576.2101,-43.1147 584.1576,-50.121 586.7921,-43.6357"/>
</g>
<!-- F_agent -->
<g id="node16" class="node">
<title>F_agent</title>
<polygon fill="#d3d3d3" stroke="#000000" points="890.8021,-138.3381 845.8021,-138.3381 845.8021,-120.3381 890.8021,-120.3381 890.8021,-138.3381"/>
<text text-anchor="middle" x="868.3021" y="-127.1381" font-family="Times,serif" font-size="9.00" fill="#000000">F_agent</text>
</g>
<!-- F_agent&#45;&gt;no_move -->
<g id="edge7" class="edge">
<title>F_agent&#45;&gt;no_move</title>
<path fill="none" stroke="#00ff00" stroke-width=".1402" d="M857.4811,-120.2102C851.5976,-115.7752 843.9705,-110.8306 836.3021,-108.1249 673.8193,-50.7955 609.6779,-137.5975 450.3021,-72.1249 446.8076,-70.6893 443.3751,-68.8777 440.064,-66.8344"/>
<polygon fill="#00ff00" stroke="#00ff00" stroke-width=".1402" points="441.8365,-63.8044 431.624,-60.9838 437.8486,-69.5573 441.8365,-63.8044"/>
</g>
<!-- F_agent&#45;&gt;right -->
<g id="edge10" class="edge">
<title>F_agent&#45;&gt;right</title>
<path fill="none" stroke="#00ff00" stroke-width=".278" d="M879.1389,-120.2545C885.0267,-115.8315 892.6528,-110.8844 900.3021,-108.1249 1041.1623,-57.3086 1102.2048,-140.7471 1235.3021,-72.1249 1239.7194,-69.8474 1243.8091,-66.6865 1247.4854,-63.1744"/>
<polygon fill="#00ff00" stroke="#00ff00" stroke-width=".278" points="1250.2225,-65.369 1254.4238,-55.6427 1245.0741,-60.6262 1250.2225,-65.369"/>
</g>
<!-- F_agent&#45;&gt;left -->
<g id="edge18" class="edge">
<title>F_agent&#45;&gt;left</title>
<path fill="none" stroke="#ff0000" stroke-width=".1255" d="M880.2679,-120.1965C886.079,-116.0793 893.3053,-111.4153 900.3021,-108.1249 950.3049,-84.61 967.7036,-91.8942 1019.3021,-72.1249 1036.3765,-65.5831 1054.9548,-56.929 1069.5842,-49.7383"/>
<polygon fill="#ff0000" stroke="#ff0000" stroke-width=".1255" points="1071.1817,-52.8528 1078.5721,-45.2612 1068.0606,-46.5871 1071.1817,-52.8528"/>
</g>
<!-- F_agent&#45;&gt;forward -->
<g id="edge78" class="edge">
<title>F_agent&#45;&gt;forward</title>
<path fill="none" stroke="#00ff00" stroke-width=".1728" d="M865.2164,-120.0535C861.7921,-109.7503 856.035,-92.4279 850.6357,-76.1819"/>
<polygon fill="#00ff00" stroke="#00ff00" stroke-width=".1728" points="853.8194,-74.6637 847.3441,-66.2779 847.1767,-76.8714 853.8194,-74.6637"/>
</g>
<!-- F_agent&#45;&gt;cw -->
<g id="edge37" class="edge">
<title>F_agent&#45;&gt;cw</title>
<path fill="none" stroke="#00ff00" stroke-width=".3189" d="M856.6929,-120.2839C850.8452,-116.0858 843.4852,-111.3285 836.3021,-108.1249 750.0033,-69.6362 639.1197,-48.6402 587.349,-40.3309"/>
<polygon fill="#00ff00" stroke="#00ff00" stroke-width=".3189" points="587.6497,-36.8354 577.229,-38.7486 586.5683,-43.7514 587.6497,-36.8354"/>
</g>
<!-- F_lm -->
<g id="node17" class="node">
<title>F_lm</title>
<polygon fill="#d3d3d3" stroke="#000000" points="1006.3021,-138.3381 970.3021,-138.3381 970.3021,-120.3381 1006.3021,-120.3381 1006.3021,-138.3381"/>
<text text-anchor="middle" x="988.3021" y="-127.1381" font-family="Times,serif" font-size="9.00" fill="#000000">F_lm</text>
</g>
<!-- F_lm&#45;&gt;forward -->
<g id="edge51" class="edge">
<title>F_lm&#45;&gt;forward</title>
<path fill="none" stroke="#00ff00" stroke-width=".5791" d="M977.5282,-120.3116C972.6853,-116.4027 966.8268,-111.8738 961.3021,-108.1249 933.0431,-88.9494 899.4709,-69.6358 874.3903,-55.8364"/>
<polygon fill="#00ff00" stroke="#00ff00" stroke-width=".5791" points="876.0138,-52.7351 865.5599,-51.0124 872.6578,-58.8782 876.0138,-52.7351"/>
</g>
<!-- F_lm&#45;&gt;backward -->
<g id="edge36" class="edge">
<title>F_lm&#45;&gt;backward</title>
<path fill="none" stroke="#ff0000" stroke-width=".2626" d="M1006.3159,-122.5522C1032.779,-112.4188 1083.5466,-92.3499 1125.3021,-72.1249 1133.4032,-68.201 1141.9151,-63.7382 1150.0125,-59.3215"/>
<polygon fill="#ff0000" stroke="#ff0000" stroke-width=".2626" points="1151.8787,-62.2891 1158.9347,-54.3857 1148.4902,-56.1639 1151.8787,-62.2891"/>
</g>
<!-- F_lm&#45;&gt;ccw -->
<g id="edge22" class="edge">
<title>F_lm&#45;&gt;ccw</title>
<path fill="none" stroke="#ff0000" stroke-width=".2859" d="M988.3021,-120.0535C988.3021,-108.1122 988.3021,-86.7426 988.3021,-68.5477"/>
<polygon fill="#ff0000" stroke="#ff0000" stroke-width=".2859" points="991.8022,-68.2969 988.3021,-58.2969 984.8022,-68.2969 991.8022,-68.2969"/>
</g>
<!-- F_wall -->
<g id="node18" class="node">
<title>F_wall</title>
<polygon fill="#d3d3d3" stroke="#000000" points="1557.3021,-138.3381 1515.3021,-138.3381 1515.3021,-120.3381 1557.3021,-120.3381 1557.3021,-138.3381"/>
<text text-anchor="middle" x="1536.3021" y="-127.1381" font-family="Times,serif" font-size="9.00" fill="#000000">F_wall</text>
</g>
<!-- F_wall&#45;&gt;right -->
<g id="edge1" class="edge">
<title>F_wall&#45;&gt;right</title>
<path fill="none" stroke="#ff0000" stroke-width=".31" d="M1525.1648,-120.1569C1519.7345,-116.031 1512.9515,-111.3711 1506.3021,-108.1249 1436.6044,-74.0985 1347.5526,-52.4285 1300.2692,-42.4679"/>
<polygon fill="#ff0000" stroke="#ff0000" stroke-width=".31" points="1300.785,-39.0007 1290.2842,-40.4086 1299.3711,-45.8564 1300.785,-39.0007"/>
</g>
<!-- F_wall&#45;&gt;backward -->
<g id="edge72" class="edge">
<title>F_wall&#45;&gt;backward</title>
<path fill="none" stroke="#ff0000" stroke-width=".1798" d="M1526.2032,-120.3219C1520.7,-115.9174 1513.547,-110.9664 1506.3021,-108.1249 1393.1886,-63.7605 1347.0314,-119.8682 1235.3021,-72.1249 1231.8785,-70.6619 1228.4999,-68.863 1225.2256,-66.8567"/>
<polygon fill="#ff0000" stroke="#ff0000" stroke-width=".1798" points="1227.0783,-63.8839 1216.8424,-61.1494 1223.1389,-69.6702 1227.0783,-63.8839"/>
</g>
<!-- F_wall&#45;&gt;ccw -->
<g id="edge19" class="edge">
<title>F_wall&#45;&gt;ccw</title>
<path fill="none" stroke="#ff0000" stroke-width=".5923" d="M1526.26,-120.1716C1520.7723,-115.7259 1513.6161,-110.7835 1506.3021,-108.1249 1322.3144,-41.2454 1256.7363,-121.5113 1067.3021,-72.1249 1049.7097,-67.5385 1031.1624,-59.2714 1016.4631,-51.8087"/>
<polygon fill="#ff0000" stroke="#ff0000" stroke-width=".5923" points="1017.8906,-48.6054 1007.408,-47.0676 1014.6436,-54.8068 1017.8906,-48.6054"/>
</g>
<!-- G_agent -->
<g id="node19" class="node">
<title>G_agent</title>
<polygon fill="#d3d3d3" stroke="#000000" points="1339.8021,-138.3381 1292.8021,-138.3381 1292.8021,-120.3381 1339.8021,-120.3381 1339.8021,-138.3381"/>
<text text-anchor="middle" x="1316.3021" y="-127.1381" font-family="Times,serif" font-size="9.00" fill="#000000">G_agent</text>
</g>
<!-- G_agent&#45;&gt;right -->
<g id="edge41" class="edge">
<title>G_agent&#45;&gt;right</title>
<path fill="none" stroke="#00ff00" stroke-width=".1122" stroke-dasharray="1,5" d="M1311.4246,-120.0535C1304.8394,-107.5179 1292.7958,-84.592 1282.9533,-65.8559"/>
<polygon fill="#00ff00" stroke="#00ff00" stroke-width=".1122" points="1285.9392,-64.0138 1278.1901,-56.7887 1279.7422,-67.2692 1285.9392,-64.0138"/>
</g>
<!-- G_agent&#45;&gt;left -->
<g id="edge54" class="edge">
<title>G_agent&#45;&gt;left</title>
<path fill="none" stroke="#00ff00" stroke-width=".4868" d="M1304.6932,-120.2832C1298.8456,-116.085 1291.4856,-111.3278 1284.3021,-108.1249 1226.017,-82.1375 1202.9322,-99.5341 1145.3021,-72.1249 1136.1957,-67.7938 1127.0667,-61.6778 1119.1985,-55.7104"/>
<polygon fill="#00ff00" stroke="#00ff00" stroke-width=".4868" points="1121.2275,-52.8526 1111.2161,-49.385 1116.88,-58.3389 1121.2275,-52.8526"/>
</g>
<!-- G_agent&#45;&gt;forward -->
<g id="edge57" class="edge">
<title>G_agent&#45;&gt;forward</title>
<path fill="none" stroke="#ff0000" stroke-width=".1263" stroke-dasharray="1,5" d="M1305.4623,-120.2626C1299.5737,-115.8419 1291.9477,-110.8943 1284.3021,-108.1249 1146.8314,-58.3295 1100.5759,-101.2861 957.3021,-72.1249 930.1916,-66.607 900.4011,-57.6712 877.2845,-50.0753"/>
<polygon fill="#ff0000" stroke="#ff0000" stroke-width=".1263" points="878.0845,-46.6526 867.4908,-46.8066 875.8683,-53.2925 878.0845,-46.6526"/>
</g>
<!-- G_agent&#45;&gt;backward -->
<g id="edge79" class="edge">
<title>G_agent&#45;&gt;backward</title>
<path fill="none" stroke="#00ff00" stroke-width=".7035" d="M1302.9371,-120.2656C1286.7322,-109.1814 1258.6856,-89.7275 1235.3021,-72.1249 1232.4976,-70.0137 1229.6171,-67.8043 1226.7342,-65.5633"/>
<polygon fill="#00ff00" stroke="#00ff00" stroke-width=".7035" points="1228.6884,-62.6476 1218.6637,-59.2189 1224.3622,-68.1507 1228.6884,-62.6476"/>
</g>
<!-- G_agent&#45;&gt;cw -->
<g id="edge66" class="edge">
<title>G_agent&#45;&gt;cw</title>
<path fill="none" stroke="#ff0000" stroke-width=".1273" d="M1305.5023,-120.1491C1299.6246,-115.6973 1291.9964,-110.7562 1284.3021,-108.1249 1181.4133,-72.9383 904.3598,-84.2791 796.3021,-72.1249 720.5616,-63.6057 631.9446,-48.9219 587.2392,-41.1808"/>
<polygon fill="#ff0000" stroke="#ff0000" stroke-width=".1273" points="587.8157,-37.7286 577.3632,-39.4596 586.6138,-44.6246 587.8157,-37.7286"/>
</g>
<!-- G_lm -->
<g id="node20" class="node">
<title>G_lm</title>
<polygon fill="#d3d3d3" stroke="#000000" points="55.8021,-138.3381 18.8021,-138.3381 18.8021,-120.3381 55.8021,-120.3381 55.8021,-138.3381"/>
<text text-anchor="middle" x="37.3021" y="-127.1381" font-family="Times,serif" font-size="9.00" fill="#000000">G_lm</text>
</g>
<!-- G_lm&#45;&gt;no_move -->
<g id="edge3" class="edge">
<title>G_lm&#45;&gt;no_move</title>
<path fill="none" stroke="#00ff00" stroke-width=".4427" d="M46.5781,-120.3007C51.4826,-116.0014 57.8203,-111.1512 64.3021,-108.1249 163.5924,-61.7676 292.9866,-44.9534 360.6033,-39.07"/>
<polygon fill="#00ff00" stroke="#00ff00" stroke-width=".4427" points="361.2337,-42.5299 370.9109,-38.2168 360.6562,-35.5538 361.2337,-42.5299"/>
</g>
<!-- G_lm&#45;&gt;cw -->
<g id="edge96" class="edge">
<title>G_lm&#45;&gt;cw</title>
<path fill="none" stroke="#00ff00" stroke-width=".1334" d="M46.4226,-119.9372C51.2875,-115.5453 57.6367,-110.7218 64.3021,-108.1249 161.0801,-70.4187 438.8481,-121.3582 530.3021,-72.1249 535.2749,-69.4478 539.6486,-65.4675 543.3714,-61.1166"/>
<polygon fill="#00ff00" stroke="#00ff00" stroke-width=".1334" points="546.1871,-63.1956 549.3585,-53.0865 540.5752,-59.0115 546.1871,-63.1956"/>
</g>
<!-- G_wall -->
<g id="node21" class="node">
<title>G_wall</title>
<polygon fill="#d3d3d3" stroke="#000000" points="516.8021,-138.3381 473.8021,-138.3381 473.8021,-120.3381 516.8021,-120.3381 516.8021,-138.3381"/>
<text text-anchor="middle" x="495.3021" y="-127.1381" font-family="Times,serif" font-size="9.00" fill="#000000">G_wall</text>
</g>
<!-- G_wall&#45;&gt;no_move -->
<g id="edge53" class="edge">
<title>G_wall&#45;&gt;no_move</title>
<path fill="none" stroke="#00ff00" stroke-width=".327" stroke-dasharray="1,5" d="M486.443,-120.0535C475.2093,-108.28 455.2303,-87.3412 438.0317,-69.3164"/>
<polygon fill="#00ff00" stroke="#00ff00" stroke-width=".327" points="440.3003,-66.6239 430.8647,-61.8051 435.2358,-71.4562 440.3003,-66.6239"/>
</g>
<!-- G_wall&#45;&gt;ccw -->
<g id="edge61" class="edge">
<title>G_wall&#45;&gt;ccw</title>
<path fill="none" stroke="#00ff00" stroke-width=".2605" stroke-dasharray="1,5" d="M505.7503,-120.2349C511.4404,-115.8066 518.8311,-110.8606 526.3021,-108.1249 673.9736,-54.0509 724.4755,-104.8087 878.3021,-72.1249 905.9192,-66.257 936.3515,-55.9693 958.1926,-47.8798"/>
<polygon fill="#00ff00" stroke="#00ff00" stroke-width=".2605" points="959.4587,-51.143 967.5821,-44.3414 956.9903,-44.5926 959.4587,-51.143"/>
</g>
<!-- G_wall&#45;&gt;cw -->
<g id="edge82" class="edge">
<title>G_wall&#45;&gt;cw</title>
<path fill="none" stroke="#00ff00" stroke-width=".3259" d="M501.5731,-120.0535C510.8575,-106.3072 528.5808,-80.0667 541.7575,-60.5577"/>
<polygon fill="#00ff00" stroke="#00ff00" stroke-width=".3259" points="544.7484,-62.3828 547.4451,-52.1369 538.9475,-58.4648 544.7484,-62.3828"/>
</g>
<!-- H_agent -->
<g id="node22" class="node">
<title>H_agent</title>
<polygon fill="#d3d3d3" stroke="#000000" points="236.8021,-138.3381 189.8021,-138.3381 189.8021,-120.3381 236.8021,-120.3381 236.8021,-138.3381"/>
<text text-anchor="middle" x="213.3021" y="-127.1381" font-family="Times,serif" font-size="9.00" fill="#000000">H_agent</text>
</g>
<!-- H_agent&#45;&gt;no_move -->
<g id="edge95" class="edge">
<title>H_agent&#45;&gt;no_move</title>
<path fill="none" stroke="#ff0000" stroke-width=".1705" stroke-dasharray="1,5" d="M226.0784,-120.1698C231.8194,-116.2347 238.7619,-111.7244 245.3021,-108.1249 284.2493,-86.6897 330.7974,-66.392 363.8018,-52.8346"/>
<polygon fill="#ff0000" stroke="#ff0000" stroke-width=".1705" points="365.219,-56.0366 373.1593,-49.0222 362.5778,-49.554 365.219,-56.0366"/>
</g>
<!-- H_agent&#45;&gt;left -->
<g id="edge76" class="edge">
<title>H_agent&#45;&gt;left</title>
<path fill="none" stroke="#ff0000" stroke-width=".3194" d="M223.7858,-120.2828C229.6928,-115.7502 237.4461,-110.6929 245.3021,-108.1249 408.9657,-54.6252 852.1435,-113.4286 1019.3021,-72.1249 1037.1705,-67.7097 1055.8995,-59.0405 1070.4118,-51.3085"/>
<polygon fill="#ff0000" stroke="#ff0000" stroke-width=".3194" points="1072.2192,-54.3088 1079.2882,-46.417 1068.8407,-48.178 1072.2192,-54.3088"/>
</g>
<!-- H_agent&#45;&gt;no_turn -->
<g id="edge44" class="edge">
<title>H_agent&#45;&gt;no_turn</title>
<path fill="none" stroke="#ff0000" stroke-width=".2601" d="M224.5101,-120.2479C230.3775,-115.9352 237.873,-111.0889 245.3021,-108.1249 331.2216,-73.8456 367.1577,-112.6742 450.3021,-72.1249 454.0838,-70.2805 457.772,-67.9703 461.2827,-65.4149"/>
<polygon fill="#ff0000" stroke="#ff0000" stroke-width=".2601" points="463.5179,-68.1088 469.1126,-59.1115 459.1283,-62.6561 463.5179,-68.1088"/>
</g>
<!-- H_agent&#45;&gt;cw -->
<g id="edge45" class="edge">
<title>H_agent&#45;&gt;cw</title>
<path fill="none" stroke="#00ff00" stroke-width=".6012" stroke-dasharray="1,5" d="M224.1602,-120.3128C230.0539,-115.9059 237.6788,-110.9554 245.3021,-108.1249 364.9911,-63.6841 419.3859,-135.3549 530.3021,-72.1249 535.2084,-69.3279 539.5527,-65.2944 543.2676,-60.9293"/>
<polygon fill="#00ff00" stroke="#00ff00" stroke-width=".6012" points="546.0782,-63.0151 549.2603,-52.9094 540.4707,-58.825 546.0782,-63.0151"/>
</g>
<!-- H_lm -->
<g id="node23" class="node">
<title>H_lm</title>
<polygon fill="#d3d3d3" stroke="#000000" points="1219.8021,-138.3381 1182.8021,-138.3381 1182.8021,-120.3381 1219.8021,-120.3381 1219.8021,-138.3381"/>
<text text-anchor="middle" x="1201.3021" y="-127.1381" font-family="Times,serif" font-size="9.00" fill="#000000">H_lm</text>
</g>
<!-- H_lm&#45;&gt;no_move -->
<g id="edge6" class="edge">
<title>H_lm&#45;&gt;no_move</title>
<path fill="none" stroke="#00ff00" stroke-width=".2275" d="M1192.6919,-120.2994C1187.7769,-115.7717 1181.2258,-110.7137 1174.3021,-108.1249 1023.4169,-51.7076 600.5971,-130.0959 450.3021,-72.1249 446.7773,-70.7653 443.3236,-69.007 439.9983,-66.9993"/>
<polygon fill="#00ff00" stroke="#00ff00" stroke-width=".2275" points="441.7644,-63.9668 431.5357,-61.2055 437.8099,-69.7428 441.7644,-63.9668"/>
</g>
<!-- H_lm&#45;&gt;right -->
<g id="edge28" class="edge">
<title>H_lm&#45;&gt;right</title>
<path fill="none" stroke="#00ff00" stroke-width=".2769" stroke-dasharray="1,5" d="M1207.8717,-120.0535C1217.0893,-107.0265 1234.2467,-82.7786 1247.7656,-63.6727"/>
<polygon fill="#00ff00" stroke="#00ff00" stroke-width=".2769" points="1250.7604,-65.4998 1253.6794,-55.315 1245.0461,-61.4565 1250.7604,-65.4998"/>
</g>
<!-- H_lm&#45;&gt;left -->
<g id="edge35" class="edge">
<title>H_lm&#45;&gt;left</title>
<path fill="none" stroke="#ff0000" stroke-width=".5762" d="M1190.8504,-120.0535C1174.2189,-105.279 1141.34,-76.0714 1119.0848,-56.3012"/>
<polygon fill="#ff0000" stroke="#ff0000" stroke-width=".5762" points="1121.2165,-53.5133 1111.4159,-49.4886 1116.5676,-58.7467 1121.2165,-53.5133"/>
</g>
<!-- H_lm&#45;&gt;forward -->
<g id="edge68" class="edge">
<title>H_lm&#45;&gt;forward</title>
<path fill="none" stroke="#00ff00" stroke-width=".2829" d="M1192.0803,-120.1814C1187.1896,-115.8517 1180.8478,-111.0102 1174.3021,-108.1249 1084.8447,-68.6925 1052.5309,-94.2381 957.3021,-72.1249 930.3528,-65.867 900.5633,-56.9264 877.407,-49.5132"/>
<polygon fill="#00ff00" stroke="#00ff00" stroke-width=".2829" points="878.1851,-46.0863 867.5933,-46.3361 876.0291,-52.746 878.1851,-46.0863"/>
</g>
<!-- H_lm&#45;&gt;backward -->
<g id="edge26" class="edge">
<title>H_lm&#45;&gt;backward</title>
<path fill="none" stroke="#ff0000" stroke-width=".1813" d="M1200.2071,-120.0535C1199.1489,-111.0801 1197.4628,-96.7825 1195.7795,-82.5089"/>
<polygon fill="#ff0000" stroke="#ff0000" stroke-width=".1813" points="1199.2105,-81.7174 1194.5633,-72.1962 1192.2587,-82.5373 1199.2105,-81.7174"/>
</g>
<!-- H_lm&#45;&gt;ccw -->
<g id="edge48" class="edge">
<title>H_lm&#45;&gt;ccw</title>
<path fill="none" stroke="#ff0000" stroke-width=".1781" d="M1191.368,-120.1929C1186.5003,-116.0749 1180.3863,-111.4112 1174.3021,-108.1249 1130.1556,-84.2792 1113.9647,-90.5677 1067.3021,-72.1249 1050.5094,-65.4878 1032.1385,-57.1679 1017.3414,-50.1924"/>
<polygon fill="#ff0000" stroke="#ff0000" stroke-width=".1781" points="1018.7197,-46.9722 1008.1862,-45.8338 1015.7107,-53.2925 1018.7197,-46.9722"/>
</g>
<!-- H_wall -->
<g id="node24" class="node">
<title>H_wall</title>
<polygon fill="#d3d3d3" stroke="#000000" points="706.8021,-138.3381 663.8021,-138.3381 663.8021,-120.3381 706.8021,-120.3381 706.8021,-138.3381"/>
<text text-anchor="middle" x="685.3021" y="-127.1381" font-family="Times,serif" font-size="9.00" fill="#000000">H_wall</text>
</g>
<!-- H_wall&#45;&gt;left -->
<g id="edge46" class="edge">
<title>H_wall&#45;&gt;left</title>
<path fill="none" stroke="#ff0000" stroke-width=".1495" d="M695.7689,-120.285C701.4641,-115.8704 708.8537,-110.9215 716.3021,-108.1249 843.2616,-60.4553 888.8998,-109.3588 1019.3021,-72.1249 1037.0006,-67.0714 1055.7251,-58.3856 1070.2777,-50.8047"/>
<polygon fill="#ff0000" stroke="#ff0000" stroke-width=".1495" points="1072.0242,-53.8397 1079.1856,-46.0317 1068.7181,-47.6696 1072.0242,-53.8397"/>
</g>
<!-- H_wall&#45;&gt;forward -->
<g id="edge59" class="edge">
<title>H_wall&#45;&gt;forward</title>
<path fill="none" stroke="#ff0000" stroke-width=".2878" d="M698.1518,-120.2781C703.6838,-116.4475 710.2574,-111.9877 716.3021,-108.1249 744.2534,-90.263 776.5618,-71.0943 800.7591,-57.0204"/>
<polygon fill="#ff0000" stroke="#ff0000" stroke-width=".2878" points="802.714,-59.9328 809.6098,-51.8892 799.2031,-53.8769 802.714,-59.9328"/>
</g>
<!-- H_wall&#45;&gt;no_turn -->
<g id="edge83" class="edge">
<title>H_wall&#45;&gt;no_turn</title>
<path fill="none" stroke="#00ff00" stroke-width=".2022" d="M673.7657,-120.1435C668.1483,-116.0146 661.1421,-111.3562 654.3021,-108.1249 602.414,-83.6125 580.4387,-100.0454 530.3021,-72.1249 526.6261,-70.0778 523.0065,-67.6361 519.5371,-65.0018"/>
<polygon fill="#00ff00" stroke="#00ff00" stroke-width=".2022" points="521.7039,-62.2521 511.7583,-58.6004 517.2559,-67.6573 521.7039,-62.2521"/>
</g>
<!-- H_wall&#45;&gt;cw -->
<g id="edge71" class="edge">
<title>H_wall&#45;&gt;cw</title>
<path fill="none" stroke="#00ff00" stroke-width=".2905" d="M672.6605,-120.0535C651.6003,-104.5857 609.0007,-73.2982 582.1567,-53.5826"/>
<polygon fill="#00ff00" stroke="#00ff00" stroke-width=".2905" points="584.1736,-50.7214 574.042,-47.6227 580.03,-56.3632 584.1736,-50.7214"/>
</g>
<!-- hunger_change -->
<g id="node25" class="node">
<title>hunger_change</title>
<polygon fill="#d3d3d3" stroke="#000000" points="480.8021,-204.5513 409.8021,-204.5513 409.8021,-186.5513 480.8021,-186.5513 480.8021,-204.5513"/>
<text text-anchor="middle" x="445.3021" y="-193.3513" font-family="Times,serif" font-size="9.00" fill="#000000">hunger_change</text>
</g>
<!-- hunger_change&#45;&gt;no_move -->
<g id="edge97" class="edge">
<title>hunger_change&#45;&gt;no_move</title>
<path fill="none" stroke="#ff0000" stroke-width=".8841" d="M409.6598,-194.5545C310.3388,-191.4121 35.9665,-180.1095 9.3021,-150.5513 -3.3283,-136.5502 -2.7821,-122.6 9.3021,-108.1249 53.6539,-54.9977 266.0518,-40.9516 360.6617,-37.3077"/>
<polygon fill="#ff0000" stroke="#ff0000" stroke-width=".8841" points="360.9236,-40.8006 370.7901,-36.9403 360.6697,-33.8052 360.9236,-40.8006"/>
</g>
<!-- hunger_change&#45;&gt;left -->
<g id="edge9" class="edge">
<title>hunger_change&#45;&gt;left</title>
<path fill="none" stroke="#00ff00" stroke-width=".5162" d="M481.0816,-187.8652C484.1904,-187.3586 487.2957,-186.9089 490.3021,-186.5513 540.7636,-180.5495 1369.0831,-187.1847 1404.3021,-150.5513 1417.3704,-136.9581 1416.6836,-122.3465 1404.3021,-108.1249 1366.146,-64.2985 1199.1292,-94.0174 1145.3021,-72.1249 1135.9612,-68.3258 1126.7727,-62.3449 1118.9219,-56.3379"/>
<polygon fill="#00ff00" stroke="#00ff00" stroke-width=".5162" points="1120.9586,-53.4836 1110.9841,-49.9115 1116.5539,-58.9241 1120.9586,-53.4836"/>
</g>
<!-- hunger_change&#45;&gt;ccw -->
<g id="edge93" class="edge">
<title>hunger_change&#45;&gt;ccw</title>
<path fill="none" stroke="#00ff00" stroke-width=".1039" d="M481.0937,-187.9603C484.1998,-187.433 487.3013,-186.9526 490.3021,-186.5513 548.2566,-178.8017 975.3966,-193.2869 1015.3021,-150.5513 1037.4946,-126.7849 1021.6354,-88.292 1006.4739,-62.586"/>
<polygon fill="#00ff00" stroke="#00ff00" stroke-width=".1039" points="1009.4429,-60.7325 1001.2037,-54.0718 1003.4909,-64.4168 1009.4429,-60.7325"/>
</g>
<!-- hunger_change&#45;&gt;cw -->
<g id="edge63" class="edge">
<title>hunger_change&#45;&gt;cw</title>
<path fill="none" stroke="#00ff00" stroke-width=".2983" d="M444.9193,-186.3669C444.6771,-169.2382 446.4272,-131.9967 464.3021,-108.1249 484.3292,-81.3787 504.8535,-93.777 530.3021,-72.1249 534.3488,-68.6819 538.196,-64.5695 541.6707,-60.3742"/>
<polygon fill="#00ff00" stroke="#00ff00" stroke-width=".2983" points="544.5159,-62.4161 547.8482,-52.3589 538.9715,-58.1429 544.5159,-62.4161"/>
</g>
<!-- 191 -->
<g id="node34" class="node">
<title>191</title>
<ellipse fill="#ffffff" stroke="#000000" cx="396.3021" cy="-129.3381" rx="21.4286" ry="21.4286"/>
<text text-anchor="middle" x="396.3021" y="-127.1381" font-family="Times,serif" font-size="9.00" fill="#000000">191</text>
</g>
<!-- hunger_change&#45;&gt;191 -->
<g id="edge100" class="edge">
<title>hunger_change&#45;&gt;191</title>
<path fill="none" stroke="#00ff00" stroke-width=".1487" d="M438.4888,-186.3446C432.4538,-178.1895 423.3528,-165.8915 415.1471,-154.8032"/>
<polygon fill="#00ff00" stroke="#00ff00" stroke-width=".1487" points="417.8743,-152.6046 409.1123,-146.6483 412.2475,-156.7687 417.8743,-152.6046"/>
</g>
<!-- 191&#45;&gt;cw -->
<g id="edge101" class="edge">
<title>191&#45;&gt;cw</title>
<path fill="none" stroke="#00ff00" stroke-width=".8335" d="M414.0916,-117.6326C419.4972,-114.3303 425.5351,-110.8881 431.3021,-108.1249 473.5243,-87.8941 492.4624,-99.6959 530.3021,-72.1249 534.6744,-68.9391 538.7055,-64.8888 542.2665,-60.6614"/>
<polygon fill="#00ff00" stroke="#00ff00" stroke-width=".8335" points="545.2153,-62.5668 548.5014,-52.4945 539.6513,-58.3191 545.2153,-62.5668"/>
</g>
</g>
</svg>
