<?xml version="1.0" encoding="utf-8" standalone="no"?>
<!DOCTYPE svg PUBLIC "-//W3C//DTD SVG 1.1//EN"
  "http://www.w3.org/Graphics/SVG/1.1/DTD/svg11.dtd">
<!-- Created with matplotlib (https://matplotlib.org/) -->
<svg height="345.6pt" version="1.1" viewBox="0 0 460.8 345.6" width="460.8pt" xmlns="http://www.w3.org/2000/svg" xmlns:xlink="http://www.w3.org/1999/xlink">
 <metadata>
  <rdf:RDF xmlns:cc="http://creativecommons.org/ns#" xmlns:dc="http://purl.org/dc/elements/1.1/" xmlns:rdf="http://www.w3.org/1999/02/22-rdf-syntax-ns#">
   <cc:Work>
    <dc:type rdf:resource="http://purl.org/dc/dcmitype/StillImage"/>
    <dc:date>2021-04-15T02:05:42.908097</dc:date>
    <dc:format>image/svg+xml</dc:format>
    <dc:creator>
     <cc:Agent>
      <dc:title>Matplotlib v3.3.4, https://matplotlib.org/</dc:title>
     </cc:Agent>
    </dc:creator>
   </cc:Work>
  </rdf:RDF>
 </metadata>
 <defs>
  <style type="text/css">*{stroke-linecap:butt;stroke-linejoin:round;}</style>
 </defs>
 <g id="figure_1">
  <g id="patch_1">
   <path d="M 0 345.6 
L 460.8 345.6 
L 460.8 0 
L 0 0 
z
" style="fill:#ffffff;"/>
  </g>
  <g id="axes_1">
   <g id="patch_2">
    <path d="M 57.6 307.584 
L 414.72 307.584 
L 414.72 41.472 
L 57.6 41.472 
z
" style="fill:#ffffff;"/>
   </g>
   <g id="matplotlib.axis_1">
    <g id="xtick_1">
     <g id="line2d_1">
      <path clip-path="url(#pa295c66061)" d="M 73.832727 307.584 
L 73.832727 41.472 
" style="fill:none;stroke:#b0b0b0;stroke-linecap:square;stroke-width:0.8;"/>
     </g>
     <g id="line2d_2">
      <defs>
       <path d="M 0 0 
L 0 3.5 
" id="m84e44ec7d9" style="stroke:#000000;stroke-width:0.8;"/>
      </defs>
      <g>
       <use style="stroke:#000000;stroke-width:0.8;" x="73.832727" xlink:href="#m84e44ec7d9" y="307.584"/>
      </g>
     </g>
     <g id="text_1">
      <!-- 0 -->
      <g transform="translate(70.651477 322.182437)scale(0.1 -0.1)">
       <defs>
        <path d="M 31.78125 66.40625 
Q 24.171875 66.40625 20.328125 58.90625 
Q 16.5 51.421875 16.5 36.375 
Q 16.5 21.390625 20.328125 13.890625 
Q 24.171875 6.390625 31.78125 6.390625 
Q 39.453125 6.390625 43.28125 13.890625 
Q 47.125 21.390625 47.125 36.375 
Q 47.125 51.421875 43.28125 58.90625 
Q 39.453125 66.40625 31.78125 66.40625 
z
M 31.78125 74.21875 
Q 44.046875 74.21875 50.515625 64.515625 
Q 56.984375 54.828125 56.984375 36.375 
Q 56.984375 17.96875 50.515625 8.265625 
Q 44.046875 -1.421875 31.78125 -1.421875 
Q 19.53125 -1.421875 13.0625 8.265625 
Q 6.59375 17.96875 6.59375 36.375 
Q 6.59375 54.828125 13.0625 64.515625 
Q 19.53125 74.21875 31.78125 74.21875 
z
" id="DejaVuSans-48"/>
       </defs>
       <use xlink:href="#DejaVuSans-48"/>
      </g>
     </g>
    </g>
    <g id="xtick_2">
     <g id="line2d_3">
      <path clip-path="url(#pa295c66061)" d="M 138.248312 307.584 
L 138.248312 41.472 
" style="fill:none;stroke:#b0b0b0;stroke-linecap:square;stroke-width:0.8;"/>
     </g>
     <g id="line2d_4">
      <g>
       <use style="stroke:#000000;stroke-width:0.8;" x="138.248312" xlink:href="#m84e44ec7d9" y="307.584"/>
      </g>
     </g>
     <g id="text_2">
      <!-- 100 -->
      <g transform="translate(128.704562 322.182437)scale(0.1 -0.1)">
       <defs>
        <path d="M 12.40625 8.296875 
L 28.515625 8.296875 
L 28.515625 63.921875 
L 10.984375 60.40625 
L 10.984375 69.390625 
L 28.421875 72.90625 
L 38.28125 72.90625 
L 38.28125 8.296875 
L 54.390625 8.296875 
L 54.390625 0 
L 12.40625 0 
z
" id="DejaVuSans-49"/>
       </defs>
       <use xlink:href="#DejaVuSans-49"/>
       <use x="63.623047" xlink:href="#DejaVuSans-48"/>
       <use x="127.246094" xlink:href="#DejaVuSans-48"/>
      </g>
     </g>
    </g>
    <g id="xtick_3">
     <g id="line2d_5">
      <path clip-path="url(#pa295c66061)" d="M 202.663896 307.584 
L 202.663896 41.472 
" style="fill:none;stroke:#b0b0b0;stroke-linecap:square;stroke-width:0.8;"/>
     </g>
     <g id="line2d_6">
      <g>
       <use style="stroke:#000000;stroke-width:0.8;" x="202.663896" xlink:href="#m84e44ec7d9" y="307.584"/>
      </g>
     </g>
     <g id="text_3">
      <!-- 200 -->
      <g transform="translate(193.120146 322.182437)scale(0.1 -0.1)">
       <defs>
        <path d="M 19.1875 8.296875 
L 53.609375 8.296875 
L 53.609375 0 
L 7.328125 0 
L 7.328125 8.296875 
Q 12.9375 14.109375 22.625 23.890625 
Q 32.328125 33.6875 34.8125 36.53125 
Q 39.546875 41.84375 41.421875 45.53125 
Q 43.3125 49.21875 43.3125 52.78125 
Q 43.3125 58.59375 39.234375 62.25 
Q 35.15625 65.921875 28.609375 65.921875 
Q 23.96875 65.921875 18.8125 64.3125 
Q 13.671875 62.703125 7.8125 59.421875 
L 7.8125 69.390625 
Q 13.765625 71.78125 18.9375 73 
Q 24.125 74.21875 28.421875 74.21875 
Q 39.75 74.21875 46.484375 68.546875 
Q 53.21875 62.890625 53.21875 53.421875 
Q 53.21875 48.921875 51.53125 44.890625 
Q 49.859375 40.875 45.40625 35.40625 
Q 44.1875 33.984375 37.640625 27.21875 
Q 31.109375 20.453125 19.1875 8.296875 
z
" id="DejaVuSans-50"/>
       </defs>
       <use xlink:href="#DejaVuSans-50"/>
       <use x="63.623047" xlink:href="#DejaVuSans-48"/>
       <use x="127.246094" xlink:href="#DejaVuSans-48"/>
      </g>
     </g>
    </g>
    <g id="xtick_4">
     <g id="line2d_7">
      <path clip-path="url(#pa295c66061)" d="M 267.079481 307.584 
L 267.079481 41.472 
" style="fill:none;stroke:#b0b0b0;stroke-linecap:square;stroke-width:0.8;"/>
     </g>
     <g id="line2d_8">
      <g>
       <use style="stroke:#000000;stroke-width:0.8;" x="267.079481" xlink:href="#m84e44ec7d9" y="307.584"/>
      </g>
     </g>
     <g id="text_4">
      <!-- 300 -->
      <g transform="translate(257.535731 322.182437)scale(0.1 -0.1)">
       <defs>
        <path d="M 40.578125 39.3125 
Q 47.65625 37.796875 51.625 33 
Q 55.609375 28.21875 55.609375 21.1875 
Q 55.609375 10.40625 48.1875 4.484375 
Q 40.765625 -1.421875 27.09375 -1.421875 
Q 22.515625 -1.421875 17.65625 -0.515625 
Q 12.796875 0.390625 7.625 2.203125 
L 7.625 11.71875 
Q 11.71875 9.328125 16.59375 8.109375 
Q 21.484375 6.890625 26.8125 6.890625 
Q 36.078125 6.890625 40.9375 10.546875 
Q 45.796875 14.203125 45.796875 21.1875 
Q 45.796875 27.640625 41.28125 31.265625 
Q 36.765625 34.90625 28.71875 34.90625 
L 20.21875 34.90625 
L 20.21875 43.015625 
L 29.109375 43.015625 
Q 36.375 43.015625 40.234375 45.921875 
Q 44.09375 48.828125 44.09375 54.296875 
Q 44.09375 59.90625 40.109375 62.90625 
Q 36.140625 65.921875 28.71875 65.921875 
Q 24.65625 65.921875 20.015625 65.03125 
Q 15.375 64.15625 9.8125 62.3125 
L 9.8125 71.09375 
Q 15.4375 72.65625 20.34375 73.4375 
Q 25.25 74.21875 29.59375 74.21875 
Q 40.828125 74.21875 47.359375 69.109375 
Q 53.90625 64.015625 53.90625 55.328125 
Q 53.90625 49.265625 50.4375 45.09375 
Q 46.96875 40.921875 40.578125 39.3125 
z
" id="DejaVuSans-51"/>
       </defs>
       <use xlink:href="#DejaVuSans-51"/>
       <use x="63.623047" xlink:href="#DejaVuSans-48"/>
       <use x="127.246094" xlink:href="#DejaVuSans-48"/>
      </g>
     </g>
    </g>
    <g id="xtick_5">
     <g id="line2d_9">
      <path clip-path="url(#pa295c66061)" d="M 331.495065 307.584 
L 331.495065 41.472 
" style="fill:none;stroke:#b0b0b0;stroke-linecap:square;stroke-width:0.8;"/>
     </g>
     <g id="line2d_10">
      <g>
       <use style="stroke:#000000;stroke-width:0.8;" x="331.495065" xlink:href="#m84e44ec7d9" y="307.584"/>
      </g>
     </g>
     <g id="text_5">
      <!-- 400 -->
      <g transform="translate(321.951315 322.182437)scale(0.1 -0.1)">
       <defs>
        <path d="M 37.796875 64.3125 
L 12.890625 25.390625 
L 37.796875 25.390625 
z
M 35.203125 72.90625 
L 47.609375 72.90625 
L 47.609375 25.390625 
L 58.015625 25.390625 
L 58.015625 17.1875 
L 47.609375 17.1875 
L 47.609375 0 
L 37.796875 0 
L 37.796875 17.1875 
L 4.890625 17.1875 
L 4.890625 26.703125 
z
" id="DejaVuSans-52"/>
       </defs>
       <use xlink:href="#DejaVuSans-52"/>
       <use x="63.623047" xlink:href="#DejaVuSans-48"/>
       <use x="127.246094" xlink:href="#DejaVuSans-48"/>
      </g>
     </g>
    </g>
    <g id="xtick_6">
     <g id="line2d_11">
      <path clip-path="url(#pa295c66061)" d="M 395.910649 307.584 
L 395.910649 41.472 
" style="fill:none;stroke:#b0b0b0;stroke-linecap:square;stroke-width:0.8;"/>
     </g>
     <g id="line2d_12">
      <g>
       <use style="stroke:#000000;stroke-width:0.8;" x="395.910649" xlink:href="#m84e44ec7d9" y="307.584"/>
      </g>
     </g>
     <g id="text_6">
      <!-- 500 -->
      <g transform="translate(386.366899 322.182437)scale(0.1 -0.1)">
       <defs>
        <path d="M 10.796875 72.90625 
L 49.515625 72.90625 
L 49.515625 64.59375 
L 19.828125 64.59375 
L 19.828125 46.734375 
Q 21.96875 47.46875 24.109375 47.828125 
Q 26.265625 48.1875 28.421875 48.1875 
Q 40.625 48.1875 47.75 41.5 
Q 54.890625 34.8125 54.890625 23.390625 
Q 54.890625 11.625 47.5625 5.09375 
Q 40.234375 -1.421875 26.90625 -1.421875 
Q 22.3125 -1.421875 17.546875 -0.640625 
Q 12.796875 0.140625 7.71875 1.703125 
L 7.71875 11.625 
Q 12.109375 9.234375 16.796875 8.0625 
Q 21.484375 6.890625 26.703125 6.890625 
Q 35.15625 6.890625 40.078125 11.328125 
Q 45.015625 15.765625 45.015625 23.390625 
Q 45.015625 31 40.078125 35.4375 
Q 35.15625 39.890625 26.703125 39.890625 
Q 22.75 39.890625 18.8125 39.015625 
Q 14.890625 38.140625 10.796875 36.28125 
z
" id="DejaVuSans-53"/>
       </defs>
       <use xlink:href="#DejaVuSans-53"/>
       <use x="63.623047" xlink:href="#DejaVuSans-48"/>
       <use x="127.246094" xlink:href="#DejaVuSans-48"/>
      </g>
     </g>
    </g>
    <g id="text_7">
     <!-- Generations -->
     <g transform="translate(205.662344 335.860562)scale(0.1 -0.1)">
      <defs>
       <path d="M 59.515625 10.40625 
L 59.515625 29.984375 
L 43.40625 29.984375 
L 43.40625 38.09375 
L 69.28125 38.09375 
L 69.28125 6.78125 
Q 63.578125 2.734375 56.6875 0.65625 
Q 49.8125 -1.421875 42 -1.421875 
Q 24.90625 -1.421875 15.25 8.5625 
Q 5.609375 18.5625 5.609375 36.375 
Q 5.609375 54.25 15.25 64.234375 
Q 24.90625 74.21875 42 74.21875 
Q 49.125 74.21875 55.546875 72.453125 
Q 61.96875 70.703125 67.390625 67.28125 
L 67.390625 56.78125 
Q 61.921875 61.421875 55.765625 63.765625 
Q 49.609375 66.109375 42.828125 66.109375 
Q 29.4375 66.109375 22.71875 58.640625 
Q 16.015625 51.171875 16.015625 36.375 
Q 16.015625 21.625 22.71875 14.15625 
Q 29.4375 6.6875 42.828125 6.6875 
Q 48.046875 6.6875 52.140625 7.59375 
Q 56.25 8.5 59.515625 10.40625 
z
" id="DejaVuSans-71"/>
       <path d="M 56.203125 29.59375 
L 56.203125 25.203125 
L 14.890625 25.203125 
Q 15.484375 15.921875 20.484375 11.0625 
Q 25.484375 6.203125 34.421875 6.203125 
Q 39.59375 6.203125 44.453125 7.46875 
Q 49.3125 8.734375 54.109375 11.28125 
L 54.109375 2.78125 
Q 49.265625 0.734375 44.1875 -0.34375 
Q 39.109375 -1.421875 33.890625 -1.421875 
Q 20.796875 -1.421875 13.15625 6.1875 
Q 5.515625 13.8125 5.515625 26.8125 
Q 5.515625 40.234375 12.765625 48.109375 
Q 20.015625 56 32.328125 56 
Q 43.359375 56 49.78125 48.890625 
Q 56.203125 41.796875 56.203125 29.59375 
z
M 47.21875 32.234375 
Q 47.125 39.59375 43.09375 43.984375 
Q 39.0625 48.390625 32.421875 48.390625 
Q 24.90625 48.390625 20.390625 44.140625 
Q 15.875 39.890625 15.1875 32.171875 
z
" id="DejaVuSans-101"/>
       <path d="M 54.890625 33.015625 
L 54.890625 0 
L 45.90625 0 
L 45.90625 32.71875 
Q 45.90625 40.484375 42.875 44.328125 
Q 39.84375 48.1875 33.796875 48.1875 
Q 26.515625 48.1875 22.3125 43.546875 
Q 18.109375 38.921875 18.109375 30.90625 
L 18.109375 0 
L 9.078125 0 
L 9.078125 54.6875 
L 18.109375 54.6875 
L 18.109375 46.1875 
Q 21.34375 51.125 25.703125 53.5625 
Q 30.078125 56 35.796875 56 
Q 45.21875 56 50.046875 50.171875 
Q 54.890625 44.34375 54.890625 33.015625 
z
" id="DejaVuSans-110"/>
       <path d="M 41.109375 46.296875 
Q 39.59375 47.171875 37.8125 47.578125 
Q 36.03125 48 33.890625 48 
Q 26.265625 48 22.1875 43.046875 
Q 18.109375 38.09375 18.109375 28.8125 
L 18.109375 0 
L 9.078125 0 
L 9.078125 54.6875 
L 18.109375 54.6875 
L 18.109375 46.1875 
Q 20.953125 51.171875 25.484375 53.578125 
Q 30.03125 56 36.53125 56 
Q 37.453125 56 38.578125 55.875 
Q 39.703125 55.765625 41.0625 55.515625 
z
" id="DejaVuSans-114"/>
       <path d="M 34.28125 27.484375 
Q 23.390625 27.484375 19.1875 25 
Q 14.984375 22.515625 14.984375 16.5 
Q 14.984375 11.71875 18.140625 8.90625 
Q 21.296875 6.109375 26.703125 6.109375 
Q 34.1875 6.109375 38.703125 11.40625 
Q 43.21875 16.703125 43.21875 25.484375 
L 43.21875 27.484375 
z
M 52.203125 31.203125 
L 52.203125 0 
L 43.21875 0 
L 43.21875 8.296875 
Q 40.140625 3.328125 35.546875 0.953125 
Q 30.953125 -1.421875 24.3125 -1.421875 
Q 15.921875 -1.421875 10.953125 3.296875 
Q 6 8.015625 6 15.921875 
Q 6 25.140625 12.171875 29.828125 
Q 18.359375 34.515625 30.609375 34.515625 
L 43.21875 34.515625 
L 43.21875 35.40625 
Q 43.21875 41.609375 39.140625 45 
Q 35.0625 48.390625 27.6875 48.390625 
Q 23 48.390625 18.546875 47.265625 
Q 14.109375 46.140625 10.015625 43.890625 
L 10.015625 52.203125 
Q 14.9375 54.109375 19.578125 55.046875 
Q 24.21875 56 28.609375 56 
Q 40.484375 56 46.34375 49.84375 
Q 52.203125 43.703125 52.203125 31.203125 
z
" id="DejaVuSans-97"/>
       <path d="M 18.3125 70.21875 
L 18.3125 54.6875 
L 36.8125 54.6875 
L 36.8125 47.703125 
L 18.3125 47.703125 
L 18.3125 18.015625 
Q 18.3125 11.328125 20.140625 9.421875 
Q 21.96875 7.515625 27.59375 7.515625 
L 36.8125 7.515625 
L 36.8125 0 
L 27.59375 0 
Q 17.1875 0 13.234375 3.875 
Q 9.28125 7.765625 9.28125 18.015625 
L 9.28125 47.703125 
L 2.6875 47.703125 
L 2.6875 54.6875 
L 9.28125 54.6875 
L 9.28125 70.21875 
z
" id="DejaVuSans-116"/>
       <path d="M 9.421875 54.6875 
L 18.40625 54.6875 
L 18.40625 0 
L 9.421875 0 
z
M 9.421875 75.984375 
L 18.40625 75.984375 
L 18.40625 64.59375 
L 9.421875 64.59375 
z
" id="DejaVuSans-105"/>
       <path d="M 30.609375 48.390625 
Q 23.390625 48.390625 19.1875 42.75 
Q 14.984375 37.109375 14.984375 27.296875 
Q 14.984375 17.484375 19.15625 11.84375 
Q 23.34375 6.203125 30.609375 6.203125 
Q 37.796875 6.203125 41.984375 11.859375 
Q 46.1875 17.53125 46.1875 27.296875 
Q 46.1875 37.015625 41.984375 42.703125 
Q 37.796875 48.390625 30.609375 48.390625 
z
M 30.609375 56 
Q 42.328125 56 49.015625 48.375 
Q 55.71875 40.765625 55.71875 27.296875 
Q 55.71875 13.875 49.015625 6.21875 
Q 42.328125 -1.421875 30.609375 -1.421875 
Q 18.84375 -1.421875 12.171875 6.21875 
Q 5.515625 13.875 5.515625 27.296875 
Q 5.515625 40.765625 12.171875 48.375 
Q 18.84375 56 30.609375 56 
z
" id="DejaVuSans-111"/>
       <path d="M 44.28125 53.078125 
L 44.28125 44.578125 
Q 40.484375 46.53125 36.375 47.5 
Q 32.28125 48.484375 27.875 48.484375 
Q 21.1875 48.484375 17.84375 46.4375 
Q 14.5 44.390625 14.5 40.28125 
Q 14.5 37.15625 16.890625 35.375 
Q 19.28125 33.59375 26.515625 31.984375 
L 29.59375 31.296875 
Q 39.15625 29.25 43.1875 25.515625 
Q 47.21875 21.78125 47.21875 15.09375 
Q 47.21875 7.46875 41.1875 3.015625 
Q 35.15625 -1.421875 24.609375 -1.421875 
Q 20.21875 -1.421875 15.453125 -0.5625 
Q 10.6875 0.296875 5.421875 2 
L 5.421875 11.28125 
Q 10.40625 8.6875 15.234375 7.390625 
Q 20.0625 6.109375 24.8125 6.109375 
Q 31.15625 6.109375 34.5625 8.28125 
Q 37.984375 10.453125 37.984375 14.40625 
Q 37.984375 18.0625 35.515625 20.015625 
Q 33.0625 21.96875 24.703125 23.78125 
L 21.578125 24.515625 
Q 13.234375 26.265625 9.515625 29.90625 
Q 5.8125 33.546875 5.8125 39.890625 
Q 5.8125 47.609375 11.28125 51.796875 
Q 16.75 56 26.8125 56 
Q 31.78125 56 36.171875 55.265625 
Q 40.578125 54.546875 44.28125 53.078125 
z
" id="DejaVuSans-115"/>
      </defs>
      <use xlink:href="#DejaVuSans-71"/>
      <use x="77.490234" xlink:href="#DejaVuSans-101"/>
      <use x="139.013672" xlink:href="#DejaVuSans-110"/>
      <use x="202.392578" xlink:href="#DejaVuSans-101"/>
      <use x="263.916016" xlink:href="#DejaVuSans-114"/>
      <use x="305.029297" xlink:href="#DejaVuSans-97"/>
      <use x="366.308594" xlink:href="#DejaVuSans-116"/>
      <use x="405.517578" xlink:href="#DejaVuSans-105"/>
      <use x="433.300781" xlink:href="#DejaVuSans-111"/>
      <use x="494.482422" xlink:href="#DejaVuSans-110"/>
      <use x="557.861328" xlink:href="#DejaVuSans-115"/>
     </g>
    </g>
   </g>
   <g id="matplotlib.axis_2">
    <g id="ytick_1">
     <g id="line2d_13">
      <path clip-path="url(#pa295c66061)" d="M 57.6 231.89667 
L 414.72 231.89667 
" style="fill:none;stroke:#b0b0b0;stroke-linecap:square;stroke-width:0.8;"/>
     </g>
     <g id="line2d_14">
      <defs>
       <path d="M 0 0 
L -3.5 0 
" id="m96cc9905c1" style="stroke:#000000;stroke-width:0.8;"/>
      </defs>
      <g>
       <use style="stroke:#000000;stroke-width:0.8;" x="57.6" xlink:href="#m96cc9905c1" y="231.89667"/>
      </g>
     </g>
     <g id="text_8">
      <!-- $\mathdefault{-10^{4}}$ -->
      <g transform="translate(24.6 235.695888)scale(0.1 -0.1)">
       <defs>
        <path d="M 10.59375 35.5 
L 73.1875 35.5 
L 73.1875 27.203125 
L 10.59375 27.203125 
z
" id="DejaVuSans-8722"/>
       </defs>
       <use transform="translate(0 0.684375)" xlink:href="#DejaVuSans-8722"/>
       <use transform="translate(83.789062 0.684375)" xlink:href="#DejaVuSans-49"/>
       <use transform="translate(147.412109 0.684375)" xlink:href="#DejaVuSans-48"/>
       <use transform="translate(211.992188 38.965625)scale(0.7)" xlink:href="#DejaVuSans-52"/>
      </g>
     </g>
    </g>
    <g id="text_9">
     <!-- Fitness -->
     <g transform="translate(18.520312 191.845187)rotate(-90)scale(0.1 -0.1)">
      <defs>
       <path d="M 9.8125 72.90625 
L 51.703125 72.90625 
L 51.703125 64.59375 
L 19.671875 64.59375 
L 19.671875 43.109375 
L 48.578125 43.109375 
L 48.578125 34.8125 
L 19.671875 34.8125 
L 19.671875 0 
L 9.8125 0 
z
" id="DejaVuSans-70"/>
      </defs>
      <use xlink:href="#DejaVuSans-70"/>
      <use x="50.269531" xlink:href="#DejaVuSans-105"/>
      <use x="78.052734" xlink:href="#DejaVuSans-116"/>
      <use x="117.261719" xlink:href="#DejaVuSans-110"/>
      <use x="180.640625" xlink:href="#DejaVuSans-101"/>
      <use x="242.164062" xlink:href="#DejaVuSans-115"/>
      <use x="294.263672" xlink:href="#DejaVuSans-115"/>
     </g>
    </g>
   </g>
   <g id="line2d_15">
    <path clip-path="url(#pa295c66061)" d="M 73.832727 295.488 
L 74.476883 268.284554 
L 75.121039 255.023512 
L 75.765195 251.970335 
L 76.409351 245.658383 
L 77.053506 242.942031 
L 77.697662 234.41793 
L 78.341818 228.689571 
L 78.985974 225.013823 
L 79.63013 225.335975 
L 80.274286 221.478609 
L 80.918442 221.041118 
L 82.206753 205.40546 
L 82.850909 203.661628 
L 83.495065 212.4996 
L 84.139221 212.672642 
L 84.783377 214.489579 
L 85.427532 219.154415 
L 86.071688 215.628524 
L 86.715844 215.142974 
L 87.36 200.564805 
L 88.004156 206.045765 
L 88.648312 214.115933 
L 89.292468 212.175981 
L 89.936623 209.769485 
L 90.580779 200.835638 
L 91.224935 201.385872 
L 91.869091 205.962881 
L 92.513247 199.345507 
L 93.157403 197.890121 
L 93.801558 200.346205 
L 94.445714 201.517441 
L 95.08987 194.931227 
L 95.734026 202.429356 
L 96.378182 203.749044 
L 97.022338 211.672811 
L 97.666494 206.808106 
L 98.310649 209.596352 
L 98.954805 210.931161 
L 99.598961 204.846176 
L 100.243117 200.476594 
L 100.887273 198.652455 
L 101.531429 184.551042 
L 102.175584 179.923908 
L 102.81974 201.108369 
L 103.463896 196.315983 
L 104.108052 190.168645 
L 104.752208 198.852724 
L 105.396364 205.562027 
L 106.040519 203.173534 
L 106.684675 186.761598 
L 107.972987 199.69921 
L 108.617143 196.436495 
L 109.261299 197.956339 
L 109.905455 175.012463 
L 110.54961 188.331691 
L 111.193766 189.700238 
L 111.837922 186.003257 
L 112.482078 180.701395 
L 113.126234 186.526485 
L 113.77039 191.111764 
L 114.414545 184.958684 
L 115.058701 189.456766 
L 115.702857 187.855239 
L 116.347013 188.772389 
L 116.991169 169.957253 
L 117.635325 186.044054 
L 118.279481 185.786677 
L 118.923636 184.615809 
L 119.567792 192.989253 
L 120.211948 189.219141 
L 120.856104 194.153666 
L 121.50026 207.209014 
L 122.144416 208.634844 
L 122.788571 194.514094 
L 123.432727 198.044177 
L 124.076883 179.037888 
L 125.365195 192.497516 
L 126.009351 195.802307 
L 126.653506 183.878184 
L 127.297662 182.835105 
L 127.941818 177.945699 
L 128.585974 197.958745 
L 129.23013 189.340906 
L 129.874286 193.450655 
L 130.518442 201.142143 
L 131.162597 187.83804 
L 131.806753 185.10699 
L 132.450909 200.574829 
L 133.095065 194.856188 
L 133.739221 196.549558 
L 134.383377 197.030144 
L 135.027532 202.666533 
L 135.671688 210.988862 
L 136.315844 190.887234 
L 136.96 202.755832 
L 137.604156 206.782826 
L 138.248312 194.588866 
L 138.892468 192.492927 
L 139.536623 178.84189 
L 140.180779 195.310507 
L 140.824935 182.602883 
L 141.469091 200.05429 
L 142.113247 187.091865 
L 142.757403 188.566169 
L 143.401558 180.814294 
L 144.045714 196.108946 
L 144.68987 191.171851 
L 145.334026 189.698533 
L 145.978182 187.222123 
L 146.622338 199.783939 
L 147.266494 190.832926 
L 147.910649 192.067912 
L 148.554805 186.197298 
L 149.198961 202.631915 
L 149.843117 185.736798 
L 150.487273 203.487477 
L 151.131429 201.25555 
L 151.775584 196.654496 
L 152.41974 195.10212 
L 153.063896 202.469872 
L 153.708052 197.892146 
L 154.352208 192.009339 
L 154.996364 195.273951 
L 155.640519 180.18326 
L 156.284675 178.548153 
L 156.928831 190.878022 
L 157.572987 195.316356 
L 158.217143 176.588178 
L 158.861299 194.25222 
L 159.505455 182.84235 
L 160.14961 178.699189 
L 160.793766 177.888861 
L 161.437922 197.09966 
L 162.082078 186.222133 
L 162.726234 178.027468 
L 163.37039 174.202747 
L 164.014545 187.820142 
L 164.658701 189.342939 
L 165.302857 179.246265 
L 165.947013 191.829345 
L 166.591169 194.410752 
L 167.235325 192.910628 
L 167.879481 163.709015 
L 168.523636 189.708774 
L 169.167792 172.032222 
L 169.811948 186.553714 
L 170.456104 186.18809 
L 171.10026 174.870323 
L 171.744416 197.458818 
L 172.388571 178.83501 
L 173.032727 169.464693 
L 173.676883 183.223592 
L 174.321039 172.975219 
L 174.965195 168.72348 
L 175.609351 181.432709 
L 176.253506 182.000455 
L 176.897662 193.456681 
L 177.541818 186.37358 
L 178.185974 183.591221 
L 178.83013 188.575573 
L 179.474286 176.187944 
L 180.118442 193.365617 
L 180.762597 197.171543 
L 181.406753 194.924214 
L 182.050909 195.830658 
L 182.695065 198.62956 
L 183.339221 202.23372 
L 183.983377 192.026377 
L 184.627532 188.785643 
L 185.271688 181.104532 
L 185.915844 191.375184 
L 186.56 181.437623 
L 187.204156 196.160234 
L 187.848312 202.937147 
L 188.492468 191.341821 
L 189.136623 193.046227 
L 189.780779 201.744838 
L 190.424935 202.29032 
L 191.069091 192.231501 
L 191.713247 193.331312 
L 192.357403 183.80794 
L 193.001558 186.870568 
L 193.645714 186.948481 
L 194.28987 201.07398 
L 194.934026 199.162831 
L 195.578182 212.712186 
L 196.222338 194.905611 
L 196.866494 195.309182 
L 197.510649 198.053119 
L 198.154805 192.814044 
L 198.798961 197.228605 
L 199.443117 183.138747 
L 200.087273 197.955937 
L 200.731429 203.663949 
L 201.375584 186.941858 
L 202.01974 190.668893 
L 202.663896 195.367762 
L 203.308052 193.703733 
L 203.952208 190.070633 
L 204.596364 213.306581 
L 205.240519 193.653015 
L 205.884675 196.89206 
L 206.528831 213.092849 
L 207.172987 205.811989 
L 207.817143 194.394125 
L 208.461299 204.260092 
L 209.105455 200.118179 
L 209.74961 202.75065 
L 210.393766 218.588431 
L 211.682078 207.037086 
L 212.326234 204.840832 
L 212.97039 195.33853 
L 213.614545 190.348572 
L 214.258701 203.156088 
L 214.902857 198.584615 
L 215.547013 190.350712 
L 216.191169 194.968548 
L 216.835325 204.578291 
L 217.479481 204.948934 
L 218.123636 190.567971 
L 218.767792 197.9186 
L 219.411948 203.581559 
L 220.056104 205.830529 
L 220.70026 184.262821 
L 221.344416 173.081843 
L 221.988571 177.830714 
L 222.632727 183.778305 
L 223.276883 184.314084 
L 224.565195 193.987951 
L 225.209351 181.442871 
L 225.853506 191.83384 
L 226.497662 178.7168 
L 227.141818 194.962554 
L 227.785974 173.053052 
L 228.43013 185.715572 
L 229.074286 181.614281 
L 229.718442 174.356605 
L 230.362597 183.665473 
L 231.006753 170.734065 
L 231.650909 168.52872 
L 232.295065 181.44219 
L 232.939221 190.001049 
L 233.583377 188.581566 
L 234.871688 198.359423 
L 235.515844 193.990153 
L 236.16 202.609624 
L 236.804156 200.802165 
L 237.448312 204.376339 
L 238.092468 195.861121 
L 238.736623 199.468581 
L 239.380779 206.086799 
L 240.024935 208.632765 
L 240.669091 205.954715 
L 241.313247 207.125419 
L 241.957403 200.864981 
L 242.601558 186.507928 
L 243.245714 204.131588 
L 243.88987 195.671488 
L 244.534026 195.537319 
L 245.178182 188.223655 
L 245.822338 202.142738 
L 246.466494 188.192469 
L 247.110649 181.501996 
L 247.754805 190.546726 
L 248.398961 195.804251 
L 249.043117 180.245271 
L 250.331429 192.748787 
L 250.975584 189.031955 
L 251.61974 180.67171 
L 252.263896 195.266466 
L 252.908052 200.507974 
L 253.552208 192.714523 
L 254.196364 187.661015 
L 254.840519 187.264152 
L 255.484675 198.083782 
L 256.128831 192.671615 
L 256.772987 204.646438 
L 257.417143 203.282938 
L 258.705455 189.252236 
L 259.34961 194.349733 
L 259.993766 172.317386 
L 260.637922 187.287571 
L 261.282078 177.210333 
L 261.926234 171.835149 
L 262.57039 186.441532 
L 263.214545 177.970054 
L 263.858701 190.429659 
L 264.502857 182.484692 
L 265.147013 180.271215 
L 265.791169 176.474419 
L 266.435325 189.857359 
L 267.079481 196.726066 
L 267.723636 184.640506 
L 268.367792 194.410553 
L 269.011948 193.398468 
L 269.656104 184.027828 
L 270.30026 192.447468 
L 270.944416 199.314335 
L 271.588571 185.19086 
L 272.232727 180.329621 
L 272.876883 183.85553 
L 273.521039 191.929065 
L 274.165195 186.453475 
L 274.809351 184.482944 
L 275.453506 178.361911 
L 276.097662 186.949027 
L 276.741818 181.542612 
L 277.385974 189.013228 
L 278.03013 173.426007 
L 278.674286 199.22708 
L 279.318442 196.703717 
L 279.962597 191.979466 
L 280.606753 185.834849 
L 281.250909 180.862636 
L 281.895065 194.225196 
L 282.539221 203.34206 
L 283.183377 182.006662 
L 283.827532 181.251493 
L 284.471688 190.916961 
L 285.115844 186.668839 
L 285.76 193.342254 
L 286.404156 193.660789 
L 287.048312 171.006797 
L 287.692468 169.502136 
L 288.336623 188.900686 
L 288.980779 189.361648 
L 289.624935 185.422843 
L 290.269091 174.049629 
L 290.913247 183.761359 
L 291.557403 188.188339 
L 292.201558 184.664348 
L 292.845714 183.051888 
L 293.48987 190.607042 
L 294.134026 199.955539 
L 294.778182 189.201513 
L 295.422338 189.811444 
L 296.066494 200.942081 
L 296.710649 200.317808 
L 297.354805 210.079886 
L 297.998961 200.956386 
L 298.643117 196.960006 
L 299.287273 187.14812 
L 299.931429 201.030227 
L 300.575584 184.446869 
L 301.21974 191.664726 
L 301.863896 191.026158 
L 302.508052 185.02054 
L 303.152208 182.491414 
L 303.796364 182.374324 
L 304.440519 187.140355 
L 305.084675 181.874548 
L 305.728831 185.912091 
L 306.372987 196.638784 
L 307.017143 191.194362 
L 307.661299 195.430736 
L 308.305455 190.17688 
L 309.593766 201.432748 
L 310.237922 193.075642 
L 310.882078 179.106789 
L 311.526234 186.833358 
L 312.17039 202.38265 
L 312.814545 198.299219 
L 313.458701 199.866525 
L 314.102857 208.713788 
L 314.747013 201.87629 
L 315.391169 182.987258 
L 316.035325 177.363435 
L 316.679481 195.987918 
L 317.323636 196.752384 
L 317.967792 179.3717 
L 318.611948 191.172889 
L 319.256104 185.446092 
L 319.90026 185.931353 
L 320.544416 181.646275 
L 321.188571 197.343441 
L 321.832727 183.085371 
L 322.476883 188.619118 
L 323.121039 187.583375 
L 323.765195 185.644776 
L 324.409351 198.613764 
L 325.053506 195.75897 
L 325.697662 201.627494 
L 326.341818 181.957563 
L 326.985974 179.333156 
L 327.63013 179.424096 
L 328.274286 194.226326 
L 328.918442 202.271682 
L 329.562597 191.664202 
L 330.206753 192.724164 
L 330.850909 187.849069 
L 331.495065 193.039179 
L 332.139221 190.604546 
L 332.783377 186.099874 
L 333.427532 190.98952 
L 334.071688 188.983063 
L 334.715844 202.834689 
L 335.36 186.520749 
L 336.004156 197.427338 
L 336.648312 205.313191 
L 337.292468 204.140798 
L 337.936623 203.637533 
L 338.580779 187.237082 
L 339.224935 202.650928 
L 339.869091 203.829065 
L 340.513247 199.59035 
L 341.157403 186.04421 
L 341.801558 198.58797 
L 342.445714 200.590584 
L 343.08987 195.10373 
L 343.734026 180.581374 
L 344.378182 199.408074 
L 345.022338 202.18536 
L 345.666494 190.225138 
L 346.310649 173.483457 
L 346.954805 195.662904 
L 348.243117 183.001081 
L 348.887273 194.274838 
L 349.531429 200.416118 
L 350.175584 190.817151 
L 351.463896 176.321643 
L 352.108052 180.510718 
L 352.752208 178.575749 
L 353.396364 178.562623 
L 354.040519 169.234273 
L 354.684675 176.492222 
L 355.328831 172.801651 
L 355.972987 186.010941 
L 356.617143 181.129207 
L 357.261299 179.853378 
L 357.905455 195.944519 
L 358.54961 195.228027 
L 359.193766 186.292158 
L 359.837922 198.91845 
L 360.482078 192.159304 
L 361.126234 177.455072 
L 361.77039 198.465941 
L 362.414545 172.787056 
L 363.058701 174.436226 
L 363.702857 180.923797 
L 364.347013 182.837389 
L 364.991169 181.467369 
L 366.279481 190.640128 
L 366.923636 188.93161 
L 367.567792 189.916828 
L 368.211948 184.227714 
L 368.856104 180.343821 
L 369.50026 184.332575 
L 370.144416 180.999661 
L 371.432727 192.837979 
L 372.076883 193.254067 
L 372.721039 195.052163 
L 373.365195 194.894065 
L 374.009351 185.678848 
L 374.653506 189.954548 
L 375.941818 181.661823 
L 376.585974 175.859782 
L 377.23013 199.024371 
L 377.874286 208.436873 
L 378.518442 193.260539 
L 379.162597 197.170887 
L 379.806753 202.614664 
L 380.450909 202.950914 
L 381.095065 204.044948 
L 381.739221 199.885606 
L 382.383377 197.270034 
L 383.027532 188.57684 
L 383.671688 202.93893 
L 384.315844 186.934682 
L 384.96 186.08686 
L 385.604156 192.500086 
L 386.248312 189.573107 
L 386.892468 180.860127 
L 387.536623 189.198368 
L 388.180779 194.473165 
L 388.824935 176.375496 
L 389.469091 175.555838 
L 390.757403 185.699525 
L 391.401558 185.295377 
L 392.045714 180.308275 
L 392.68987 168.230057 
L 393.978182 188.595407 
L 394.622338 185.687512 
L 395.266494 185.801723 
L 395.910649 174.33785 
L 396.554805 182.032723 
L 397.198961 187.501025 
L 397.843117 188.187231 
L 398.487273 191.511766 
L 398.487273 191.511766 
" style="fill:none;stroke:#0000ff;stroke-linecap:square;stroke-width:1.5;"/>
   </g>
   <g id="line2d_16">
    <path clip-path="url(#pa295c66061)" d="M 73.832727 262.148204 
L 74.476883 241.017684 
L 75.121039 224.975587 
L 75.765195 221.28422 
L 76.409351 208.801132 
L 77.053506 212.561277 
L 77.697662 197.11474 
L 78.341818 193.873819 
L 78.985974 168.032982 
L 80.274286 176.575383 
L 80.918442 187.301089 
L 81.562597 156.031325 
L 82.206753 153.265034 
L 82.850909 155.156659 
L 83.495065 164.437265 
L 84.139221 146.495826 
L 84.783377 157.479319 
L 85.427532 182.592692 
L 86.071688 161.335282 
L 86.715844 154.991919 
L 87.36 136.658161 
L 88.004156 164.712531 
L 88.648312 155.020284 
L 89.292468 165.039459 
L 89.936623 145.811983 
L 90.580779 133.211043 
L 91.224935 139.020582 
L 91.869091 135.555475 
L 92.513247 149.297969 
L 93.157403 130.849022 
L 93.801558 132.465315 
L 94.445714 116.83512 
L 95.08987 132.08199 
L 95.734026 138.470805 
L 96.378182 151.907221 
L 97.022338 175.062935 
L 97.666494 145.173701 
L 98.310649 141.051573 
L 98.954805 130.930971 
L 99.598961 151.580691 
L 100.243117 150.527549 
L 100.887273 124.074727 
L 101.531429 108.866754 
L 102.175584 114.180163 
L 102.81974 140.055246 
L 103.463896 137.215138 
L 104.108052 106.110833 
L 105.396364 133.225883 
L 106.040519 137.128828 
L 106.684675 108.235923 
L 107.328831 138.710767 
L 107.972987 133.413336 
L 108.617143 109.298869 
L 109.261299 139.708214 
L 109.905455 119.425455 
L 110.54961 118.228862 
L 111.193766 124.609637 
L 111.837922 113.670992 
L 112.482078 121.867725 
L 113.126234 121.306005 
L 113.77039 122.457016 
L 114.414545 119.69986 
L 115.058701 88.05761 
L 115.702857 120.624532 
L 116.347013 115.538675 
L 116.991169 83.556642 
L 117.635325 132.075641 
L 118.279481 123.794692 
L 118.923636 121.188468 
L 119.567792 145.710285 
L 120.211948 119.147528 
L 120.856104 113.036854 
L 121.50026 148.30459 
L 122.144416 149.040948 
L 122.788571 131.11437 
L 123.432727 133.263414 
L 124.076883 90.912422 
L 124.721039 98.052266 
L 125.365195 109.771547 
L 126.009351 108.031962 
L 126.653506 124.982978 
L 127.297662 123.059591 
L 127.941818 115.097653 
L 128.585974 145.387078 
L 129.23013 121.997294 
L 129.874286 135.799774 
L 130.518442 121.772179 
L 131.162597 96.996861 
L 131.806753 119.642461 
L 133.095065 139.525813 
L 133.739221 140.915371 
L 134.383377 120.13884 
L 135.027532 131.343744 
L 135.671688 151.715609 
L 136.315844 127.932563 
L 136.96 141.03557 
L 137.604156 134.848649 
L 138.248312 118.629926 
L 138.892468 134.18087 
L 139.536623 104.835305 
L 140.180779 102.969779 
L 140.824935 102.193979 
L 141.469091 127.287412 
L 142.113247 109.316402 
L 142.757403 111.091181 
L 143.401558 102.164269 
L 144.045714 132.353151 
L 144.68987 123.714922 
L 145.334026 119.969366 
L 146.622338 130.083947 
L 147.266494 131.301875 
L 147.910649 128.282009 
L 148.554805 130.058905 
L 149.198961 140.689432 
L 149.843117 122.008777 
L 150.487273 146.883809 
L 151.775584 114.969526 
L 152.41974 103.298812 
L 153.063896 132.031401 
L 153.708052 127.695161 
L 154.352208 128.732815 
L 154.996364 134.399668 
L 155.640519 95.688791 
L 156.284675 109.555077 
L 156.928831 128.533075 
L 157.572987 135.639837 
L 158.217143 96.2578 
L 158.861299 127.736224 
L 159.505455 66.428033 
L 160.14961 106.02751 
L 160.793766 103.04721 
L 161.437922 122.847006 
L 162.082078 123.885365 
L 162.726234 108.270268 
L 163.37039 78.331573 
L 164.014545 108.295743 
L 164.658701 93.002029 
L 165.302857 96.060686 
L 165.947013 104.43626 
L 166.591169 108.206974 
L 167.235325 117.698615 
L 167.879481 78.856906 
L 168.523636 86.183402 
L 169.167792 86.857353 
L 169.811948 108.090461 
L 170.456104 96.046063 
L 171.10026 106.091651 
L 171.744416 119.492485 
L 172.388571 102.725693 
L 173.032727 104.317984 
L 173.676883 89.039064 
L 174.321039 68.837543 
L 174.965195 70.47632 
L 175.609351 93.16201 
L 176.253506 76.671598 
L 177.541818 96.76846 
L 178.185974 98.664934 
L 178.83013 111.631776 
L 179.474286 101.90835 
L 180.118442 76.100291 
L 180.762597 107.024111 
L 181.406753 121.158963 
L 182.050909 127.393351 
L 182.695065 129.522985 
L 183.339221 127.941376 
L 184.627532 86.328684 
L 185.271688 90.593941 
L 185.915844 96.683621 
L 186.56 70.04922 
L 187.848312 135.343928 
L 188.492468 117.34924 
L 189.136623 122.729744 
L 189.780779 132.427685 
L 190.424935 135.853192 
L 191.069091 104.714531 
L 191.713247 113.298289 
L 192.357403 87.6497 
L 193.001558 94.216598 
L 193.645714 120.800607 
L 194.28987 111.728147 
L 194.934026 129.60594 
L 195.578182 131.832051 
L 196.222338 115.0277 
L 196.866494 114.104435 
L 197.510649 130.893375 
L 198.154805 88.458323 
L 198.798961 120.111223 
L 199.443117 100.576651 
L 200.087273 116.769708 
L 200.731429 137.099169 
L 201.375584 107.237832 
L 202.663896 134.591602 
L 203.308052 141.376064 
L 203.952208 108.14946 
L 204.596364 144.268348 
L 205.240519 134.814868 
L 205.884675 117.195491 
L 206.528831 132.181668 
L 207.172987 112.789396 
L 207.817143 119.529728 
L 208.461299 106.234451 
L 209.105455 100.426785 
L 209.74961 133.666153 
L 210.393766 141.797145 
L 211.037922 136.041387 
L 211.682078 136.135567 
L 212.326234 111.439444 
L 212.97039 124.427054 
L 213.614545 123.090433 
L 214.258701 150.601177 
L 214.902857 139.094859 
L 215.547013 101.479611 
L 216.191169 120.414159 
L 216.835325 128.20798 
L 217.479481 133.325625 
L 218.123636 104.731443 
L 218.767792 96.297165 
L 219.411948 125.761067 
L 220.056104 135.987412 
L 220.70026 96.897017 
L 221.344416 81.173247 
L 221.988571 95.076617 
L 222.632727 97.764166 
L 223.276883 102.830756 
L 223.921039 106.906768 
L 224.565195 111.986708 
L 225.209351 64.033885 
L 225.853506 122.982888 
L 226.497662 100.283966 
L 227.141818 71.701338 
L 227.785974 85.138001 
L 228.43013 105.111133 
L 229.074286 85.617938 
L 229.718442 83.59216 
L 230.362597 95.07363 
L 231.006753 71.06187 
L 231.650909 72.447115 
L 232.295065 102.282777 
L 232.939221 103.043823 
L 233.583377 124.018525 
L 234.227532 110.936178 
L 234.871688 101.075855 
L 235.515844 102.684986 
L 236.16 128.38332 
L 236.804156 98.01521 
L 237.448312 130.828985 
L 238.092468 107.75082 
L 238.736623 112.352145 
L 239.380779 135.51282 
L 240.024935 131.298136 
L 240.669091 109.192239 
L 241.313247 119.88575 
L 241.957403 133.450952 
L 242.601558 106.761858 
L 243.245714 135.001404 
L 243.88987 125.404806 
L 244.534026 136.453866 
L 245.178182 99.270754 
L 245.822338 107.079763 
L 247.110649 109.99613 
L 247.754805 90.094545 
L 248.398961 120.474629 
L 249.043117 97.422018 
L 249.687273 90.636051 
L 250.331429 118.87274 
L 250.975584 124.245207 
L 251.61974 105.140814 
L 252.263896 123.987859 
L 252.908052 117.054295 
L 253.552208 133.472899 
L 254.196364 91.702666 
L 254.840519 126.468228 
L 255.484675 126.850554 
L 256.128831 123.570561 
L 256.772987 126.193969 
L 257.417143 139.324053 
L 258.061299 133.886265 
L 258.705455 118.592773 
L 259.34961 109.616709 
L 259.993766 98.226944 
L 260.637922 107.873061 
L 261.282078 106.181476 
L 262.57039 121.347731 
L 263.214545 96.368547 
L 263.858701 124.760945 
L 264.502857 120.279079 
L 265.147013 109.547004 
L 265.791169 108.019692 
L 266.435325 111.205842 
L 267.079481 133.362842 
L 267.723636 120.322455 
L 268.367792 95.806349 
L 269.011948 120.91287 
L 269.656104 109.356536 
L 270.30026 106.651894 
L 270.944416 128.92852 
L 271.588571 91.08075 
L 272.232727 86.147757 
L 272.876883 111.367144 
L 273.521039 91.566439 
L 274.165195 106.401862 
L 274.809351 86.086443 
L 275.453506 101.353474 
L 276.097662 108.620163 
L 276.741818 119.003873 
L 277.385974 97.356949 
L 278.03013 103.171144 
L 278.674286 118.346059 
L 279.318442 125.64205 
L 279.962597 135.320395 
L 280.606753 106.940931 
L 281.250909 91.672826 
L 281.895065 134.084668 
L 282.539221 131.491384 
L 283.183377 101.984301 
L 283.827532 101.577525 
L 284.471688 90.504283 
L 285.115844 98.957136 
L 285.76 102.81927 
L 286.404156 114.524012 
L 287.048312 84.266621 
L 287.692468 95.709684 
L 288.336623 79.094553 
L 288.980779 120.86546 
L 289.624935 98.072052 
L 290.269091 90.832189 
L 290.913247 107.561167 
L 291.557403 115.451625 
L 292.201558 92.215318 
L 292.845714 91.864789 
L 293.48987 108.711578 
L 294.134026 141.320653 
L 294.778182 116.230561 
L 295.422338 115.367967 
L 296.066494 109.845168 
L 296.710649 134.916749 
L 297.354805 130.720136 
L 297.998961 133.72667 
L 298.643117 126.794071 
L 299.287273 99.413626 
L 299.931429 122.376803 
L 300.575584 75.936017 
L 301.21974 121.462167 
L 301.863896 89.590479 
L 302.508052 76.444878 
L 303.152208 108.323561 
L 303.796364 96.792281 
L 304.440519 102.090911 
L 305.084675 108.753904 
L 306.372987 96.665657 
L 307.017143 109.055204 
L 307.661299 123.991318 
L 308.305455 117.422757 
L 309.593766 143.906206 
L 310.237922 107.93729 
L 310.882078 96.399802 
L 311.526234 108.246563 
L 312.17039 79.334863 
L 312.814545 109.801 
L 313.458701 117.366382 
L 314.102857 133.322444 
L 314.747013 127.306017 
L 315.391169 97.686138 
L 316.035325 91.819851 
L 316.679481 135.454392 
L 317.323636 108.271372 
L 317.967792 99.031886 
L 318.611948 111.81156 
L 319.256104 99.03369 
L 319.90026 93.228893 
L 320.544416 81.108242 
L 321.188571 116.395194 
L 321.832727 109.731156 
L 322.476883 115.708872 
L 323.121039 104.700699 
L 323.765195 90.293378 
L 324.409351 109.635593 
L 325.053506 124.695445 
L 325.697662 115.154027 
L 326.341818 115.185084 
L 326.985974 95.546382 
L 328.274286 122.603145 
L 328.918442 129.697812 
L 329.562597 86.144272 
L 330.206753 102.754418 
L 330.850909 113.190986 
L 331.495065 102.200617 
L 332.139221 120.143809 
L 332.783377 111.424027 
L 333.427532 108.254893 
L 334.071688 113.075524 
L 334.715844 127.548723 
L 335.36 100.667512 
L 336.004156 103.827028 
L 336.648312 145.651058 
L 337.292468 104.858985 
L 337.936623 141.573708 
L 338.580779 129.826361 
L 339.224935 129.177423 
L 339.869091 144.054769 
L 340.513247 114.492999 
L 341.157403 111.194533 
L 341.801558 123.081584 
L 342.445714 130.41621 
L 343.08987 110.013935 
L 343.734026 101.20143 
L 344.378182 148.45225 
L 345.022338 106.202823 
L 345.666494 111.288881 
L 346.310649 94.879682 
L 346.954805 127.078662 
L 347.598961 113.6615 
L 348.243117 112.357171 
L 348.887273 129.212438 
L 349.531429 135.969639 
L 350.175584 141.482789 
L 350.81974 112.922071 
L 351.463896 91.382128 
L 352.108052 88.414819 
L 352.752208 95.801402 
L 353.396364 111.020421 
L 354.040519 91.029394 
L 354.684675 109.415118 
L 355.328831 97.346688 
L 355.972987 123.800592 
L 356.617143 103.736746 
L 357.261299 71.869078 
L 357.905455 108.734121 
L 358.54961 136.301218 
L 359.193766 128.771177 
L 359.837922 143.2382 
L 360.482078 108.464686 
L 361.126234 53.568 
L 361.77039 139.763304 
L 362.414545 83.604464 
L 363.058701 61.141886 
L 363.702857 112.211017 
L 364.347013 104.505714 
L 364.991169 113.677419 
L 365.635325 118.576395 
L 366.279481 99.935646 
L 366.923636 99.051058 
L 367.567792 126.605739 
L 368.211948 117.35479 
L 368.856104 111.870243 
L 369.50026 76.675087 
L 370.144416 101.383992 
L 370.788571 106.061303 
L 371.432727 114.650936 
L 372.076883 116.335506 
L 372.721039 121.068469 
L 373.365195 117.841892 
L 374.009351 122.81731 
L 374.653506 113.668808 
L 375.297662 82.489615 
L 375.941818 104.274948 
L 376.585974 99.694459 
L 377.23013 116.314063 
L 377.874286 156.492859 
L 378.518442 131.380436 
L 379.162597 134.451385 
L 379.806753 152.9131 
L 380.450909 136.777192 
L 381.095065 146.086182 
L 381.739221 143.462664 
L 382.383377 141.793168 
L 383.027532 120.900754 
L 383.671688 130.326625 
L 384.315844 130.209147 
L 384.96 139.179728 
L 385.604156 100.888855 
L 386.248312 107.938396 
L 386.892468 81.611722 
L 387.536623 109.411822 
L 388.180779 126.924588 
L 388.824935 82.101766 
L 389.469091 101.302159 
L 390.113247 102.862703 
L 390.757403 77.355582 
L 391.401558 94.378304 
L 392.045714 105.158417 
L 392.68987 88.3364 
L 393.334026 103.781059 
L 393.978182 133.304228 
L 394.622338 102.896425 
L 395.266494 111.235014 
L 395.910649 91.276242 
L 396.554805 111.481271 
L 397.198961 114.250714 
L 397.843117 110.910185 
L 398.487273 86.166507 
L 398.487273 86.166507 
" style="fill:none;stroke:#ff0000;stroke-linecap:square;stroke-width:1.5;"/>
   </g>
   <g id="patch_3">
    <path d="M 57.6 307.584 
L 57.6 41.472 
" style="fill:none;stroke:#000000;stroke-linecap:square;stroke-linejoin:miter;stroke-width:0.8;"/>
   </g>
   <g id="patch_4">
    <path d="M 414.72 307.584 
L 414.72 41.472 
" style="fill:none;stroke:#000000;stroke-linecap:square;stroke-linejoin:miter;stroke-width:0.8;"/>
   </g>
   <g id="patch_5">
    <path d="M 57.6 307.584 
L 414.72 307.584 
" style="fill:none;stroke:#000000;stroke-linecap:square;stroke-linejoin:miter;stroke-width:0.8;"/>
   </g>
   <g id="patch_6">
    <path d="M 57.6 41.472 
L 414.72 41.472 
" style="fill:none;stroke:#000000;stroke-linecap:square;stroke-linejoin:miter;stroke-width:0.8;"/>
   </g>
   <g id="text_10">
    <!-- Population's average and best fitness -->
    <g transform="translate(123.529687 35.472)scale(0.12 -0.12)">
     <defs>
      <path d="M 19.671875 64.796875 
L 19.671875 37.40625 
L 32.078125 37.40625 
Q 38.96875 37.40625 42.71875 40.96875 
Q 46.484375 44.53125 46.484375 51.125 
Q 46.484375 57.671875 42.71875 61.234375 
Q 38.96875 64.796875 32.078125 64.796875 
z
M 9.8125 72.90625 
L 32.078125 72.90625 
Q 44.34375 72.90625 50.609375 67.359375 
Q 56.890625 61.8125 56.890625 51.125 
Q 56.890625 40.328125 50.609375 34.8125 
Q 44.34375 29.296875 32.078125 29.296875 
L 19.671875 29.296875 
L 19.671875 0 
L 9.8125 0 
z
" id="DejaVuSans-80"/>
      <path d="M 18.109375 8.203125 
L 18.109375 -20.796875 
L 9.078125 -20.796875 
L 9.078125 54.6875 
L 18.109375 54.6875 
L 18.109375 46.390625 
Q 20.953125 51.265625 25.265625 53.625 
Q 29.59375 56 35.59375 56 
Q 45.5625 56 51.78125 48.09375 
Q 58.015625 40.1875 58.015625 27.296875 
Q 58.015625 14.40625 51.78125 6.484375 
Q 45.5625 -1.421875 35.59375 -1.421875 
Q 29.59375 -1.421875 25.265625 0.953125 
Q 20.953125 3.328125 18.109375 8.203125 
z
M 48.6875 27.296875 
Q 48.6875 37.203125 44.609375 42.84375 
Q 40.53125 48.484375 33.40625 48.484375 
Q 26.265625 48.484375 22.1875 42.84375 
Q 18.109375 37.203125 18.109375 27.296875 
Q 18.109375 17.390625 22.1875 11.75 
Q 26.265625 6.109375 33.40625 6.109375 
Q 40.53125 6.109375 44.609375 11.75 
Q 48.6875 17.390625 48.6875 27.296875 
z
" id="DejaVuSans-112"/>
      <path d="M 8.5 21.578125 
L 8.5 54.6875 
L 17.484375 54.6875 
L 17.484375 21.921875 
Q 17.484375 14.15625 20.5 10.265625 
Q 23.53125 6.390625 29.59375 6.390625 
Q 36.859375 6.390625 41.078125 11.03125 
Q 45.3125 15.671875 45.3125 23.6875 
L 45.3125 54.6875 
L 54.296875 54.6875 
L 54.296875 0 
L 45.3125 0 
L 45.3125 8.40625 
Q 42.046875 3.421875 37.71875 1 
Q 33.40625 -1.421875 27.6875 -1.421875 
Q 18.265625 -1.421875 13.375 4.4375 
Q 8.5 10.296875 8.5 21.578125 
z
M 31.109375 56 
z
" id="DejaVuSans-117"/>
      <path d="M 9.421875 75.984375 
L 18.40625 75.984375 
L 18.40625 0 
L 9.421875 0 
z
" id="DejaVuSans-108"/>
      <path d="M 17.921875 72.90625 
L 17.921875 45.796875 
L 9.625 45.796875 
L 9.625 72.90625 
z
" id="DejaVuSans-39"/>
      <path id="DejaVuSans-32"/>
      <path d="M 2.984375 54.6875 
L 12.5 54.6875 
L 29.59375 8.796875 
L 46.6875 54.6875 
L 56.203125 54.6875 
L 35.6875 0 
L 23.484375 0 
z
" id="DejaVuSans-118"/>
      <path d="M 45.40625 27.984375 
Q 45.40625 37.75 41.375 43.109375 
Q 37.359375 48.484375 30.078125 48.484375 
Q 22.859375 48.484375 18.828125 43.109375 
Q 14.796875 37.75 14.796875 27.984375 
Q 14.796875 18.265625 18.828125 12.890625 
Q 22.859375 7.515625 30.078125 7.515625 
Q 37.359375 7.515625 41.375 12.890625 
Q 45.40625 18.265625 45.40625 27.984375 
z
M 54.390625 6.78125 
Q 54.390625 -7.171875 48.1875 -13.984375 
Q 42 -20.796875 29.203125 -20.796875 
Q 24.46875 -20.796875 20.265625 -20.09375 
Q 16.0625 -19.390625 12.109375 -17.921875 
L 12.109375 -9.1875 
Q 16.0625 -11.328125 19.921875 -12.34375 
Q 23.78125 -13.375 27.78125 -13.375 
Q 36.625 -13.375 41.015625 -8.765625 
Q 45.40625 -4.15625 45.40625 5.171875 
L 45.40625 9.625 
Q 42.625 4.78125 38.28125 2.390625 
Q 33.9375 0 27.875 0 
Q 17.828125 0 11.671875 7.65625 
Q 5.515625 15.328125 5.515625 27.984375 
Q 5.515625 40.671875 11.671875 48.328125 
Q 17.828125 56 27.875 56 
Q 33.9375 56 38.28125 53.609375 
Q 42.625 51.21875 45.40625 46.390625 
L 45.40625 54.6875 
L 54.390625 54.6875 
z
" id="DejaVuSans-103"/>
      <path d="M 45.40625 46.390625 
L 45.40625 75.984375 
L 54.390625 75.984375 
L 54.390625 0 
L 45.40625 0 
L 45.40625 8.203125 
Q 42.578125 3.328125 38.25 0.953125 
Q 33.9375 -1.421875 27.875 -1.421875 
Q 17.96875 -1.421875 11.734375 6.484375 
Q 5.515625 14.40625 5.515625 27.296875 
Q 5.515625 40.1875 11.734375 48.09375 
Q 17.96875 56 27.875 56 
Q 33.9375 56 38.25 53.625 
Q 42.578125 51.265625 45.40625 46.390625 
z
M 14.796875 27.296875 
Q 14.796875 17.390625 18.875 11.75 
Q 22.953125 6.109375 30.078125 6.109375 
Q 37.203125 6.109375 41.296875 11.75 
Q 45.40625 17.390625 45.40625 27.296875 
Q 45.40625 37.203125 41.296875 42.84375 
Q 37.203125 48.484375 30.078125 48.484375 
Q 22.953125 48.484375 18.875 42.84375 
Q 14.796875 37.203125 14.796875 27.296875 
z
" id="DejaVuSans-100"/>
      <path d="M 48.6875 27.296875 
Q 48.6875 37.203125 44.609375 42.84375 
Q 40.53125 48.484375 33.40625 48.484375 
Q 26.265625 48.484375 22.1875 42.84375 
Q 18.109375 37.203125 18.109375 27.296875 
Q 18.109375 17.390625 22.1875 11.75 
Q 26.265625 6.109375 33.40625 6.109375 
Q 40.53125 6.109375 44.609375 11.75 
Q 48.6875 17.390625 48.6875 27.296875 
z
M 18.109375 46.390625 
Q 20.953125 51.265625 25.265625 53.625 
Q 29.59375 56 35.59375 56 
Q 45.5625 56 51.78125 48.09375 
Q 58.015625 40.1875 58.015625 27.296875 
Q 58.015625 14.40625 51.78125 6.484375 
Q 45.5625 -1.421875 35.59375 -1.421875 
Q 29.59375 -1.421875 25.265625 0.953125 
Q 20.953125 3.328125 18.109375 8.203125 
L 18.109375 0 
L 9.078125 0 
L 9.078125 75.984375 
L 18.109375 75.984375 
z
" id="DejaVuSans-98"/>
      <path d="M 37.109375 75.984375 
L 37.109375 68.5 
L 28.515625 68.5 
Q 23.6875 68.5 21.796875 66.546875 
Q 19.921875 64.59375 19.921875 59.515625 
L 19.921875 54.6875 
L 34.71875 54.6875 
L 34.71875 47.703125 
L 19.921875 47.703125 
L 19.921875 0 
L 10.890625 0 
L 10.890625 47.703125 
L 2.296875 47.703125 
L 2.296875 54.6875 
L 10.890625 54.6875 
L 10.890625 58.5 
Q 10.890625 67.625 15.140625 71.796875 
Q 19.390625 75.984375 28.609375 75.984375 
z
" id="DejaVuSans-102"/>
     </defs>
     <use xlink:href="#DejaVuSans-80"/>
     <use x="56.677734" xlink:href="#DejaVuSans-111"/>
     <use x="117.859375" xlink:href="#DejaVuSans-112"/>
     <use x="181.335938" xlink:href="#DejaVuSans-117"/>
     <use x="244.714844" xlink:href="#DejaVuSans-108"/>
     <use x="272.498047" xlink:href="#DejaVuSans-97"/>
     <use x="333.777344" xlink:href="#DejaVuSans-116"/>
     <use x="372.986328" xlink:href="#DejaVuSans-105"/>
     <use x="400.769531" xlink:href="#DejaVuSans-111"/>
     <use x="461.951172" xlink:href="#DejaVuSans-110"/>
     <use x="525.330078" xlink:href="#DejaVuSans-39"/>
     <use x="552.820312" xlink:href="#DejaVuSans-115"/>
     <use x="604.919922" xlink:href="#DejaVuSans-32"/>
     <use x="636.707031" xlink:href="#DejaVuSans-97"/>
     <use x="697.986328" xlink:href="#DejaVuSans-118"/>
     <use x="757.166016" xlink:href="#DejaVuSans-101"/>
     <use x="818.689453" xlink:href="#DejaVuSans-114"/>
     <use x="859.802734" xlink:href="#DejaVuSans-97"/>
     <use x="921.082031" xlink:href="#DejaVuSans-103"/>
     <use x="984.558594" xlink:href="#DejaVuSans-101"/>
     <use x="1046.082031" xlink:href="#DejaVuSans-32"/>
     <use x="1077.869141" xlink:href="#DejaVuSans-97"/>
     <use x="1139.148438" xlink:href="#DejaVuSans-110"/>
     <use x="1202.527344" xlink:href="#DejaVuSans-100"/>
     <use x="1266.003906" xlink:href="#DejaVuSans-32"/>
     <use x="1297.791016" xlink:href="#DejaVuSans-98"/>
     <use x="1361.267578" xlink:href="#DejaVuSans-101"/>
     <use x="1422.791016" xlink:href="#DejaVuSans-115"/>
     <use x="1474.890625" xlink:href="#DejaVuSans-116"/>
     <use x="1514.099609" xlink:href="#DejaVuSans-32"/>
     <use x="1545.886719" xlink:href="#DejaVuSans-102"/>
     <use x="1581.091797" xlink:href="#DejaVuSans-105"/>
     <use x="1608.875" xlink:href="#DejaVuSans-116"/>
     <use x="1648.083984" xlink:href="#DejaVuSans-110"/>
     <use x="1711.462891" xlink:href="#DejaVuSans-101"/>
     <use x="1772.986328" xlink:href="#DejaVuSans-115"/>
     <use x="1825.085938" xlink:href="#DejaVuSans-115"/>
    </g>
   </g>
   <g id="legend_1">
    <g id="patch_7">
     <path d="M 64.6 78.82825 
L 137.540625 78.82825 
Q 139.540625 78.82825 139.540625 76.82825 
L 139.540625 48.472 
Q 139.540625 46.472 137.540625 46.472 
L 64.6 46.472 
Q 62.6 46.472 62.6 48.472 
L 62.6 76.82825 
Q 62.6 78.82825 64.6 78.82825 
z
" style="fill:#ffffff;opacity:0.8;stroke:#cccccc;stroke-linejoin:miter;"/>
    </g>
    <g id="line2d_17">
     <path d="M 66.6 54.570437 
L 86.6 54.570437 
" style="fill:none;stroke:#0000ff;stroke-linecap:square;stroke-width:1.5;"/>
    </g>
    <g id="line2d_18"/>
    <g id="text_11">
     <!-- average -->
     <g transform="translate(94.6 58.070437)scale(0.1 -0.1)">
      <use xlink:href="#DejaVuSans-97"/>
      <use x="61.279297" xlink:href="#DejaVuSans-118"/>
      <use x="120.458984" xlink:href="#DejaVuSans-101"/>
      <use x="181.982422" xlink:href="#DejaVuSans-114"/>
      <use x="223.095703" xlink:href="#DejaVuSans-97"/>
      <use x="284.375" xlink:href="#DejaVuSans-103"/>
      <use x="347.851562" xlink:href="#DejaVuSans-101"/>
     </g>
    </g>
    <g id="line2d_19">
     <path d="M 66.6 69.248562 
L 86.6 69.248562 
" style="fill:none;stroke:#ff0000;stroke-linecap:square;stroke-width:1.5;"/>
    </g>
    <g id="line2d_20"/>
    <g id="text_12">
     <!-- best -->
     <g transform="translate(94.6 72.748562)scale(0.1 -0.1)">
      <use xlink:href="#DejaVuSans-98"/>
      <use x="63.476562" xlink:href="#DejaVuSans-101"/>
      <use x="125" xlink:href="#DejaVuSans-115"/>
      <use x="177.099609" xlink:href="#DejaVuSans-116"/>
     </g>
    </g>
   </g>
  </g>
 </g>
 <defs>
  <clipPath id="pa295c66061">
   <rect height="266.112" width="357.12" x="57.6" y="41.472"/>
  </clipPath>
 </defs>
</svg>
