<?xml version="1.0" encoding="UTF-8" standalone="no"?>
<!DOCTYPE svg PUBLIC "-//W3C//DTD SVG 1.1//EN"
 "http://www.w3.org/Graphics/SVG/1.1/DTD/svg11.dtd">
<!-- Generated by graphviz version 2.40.1 (20161225.0304)
 -->
<!-- Title: %3 Pages: 1 -->
<svg width="1062pt" height="469pt"
 viewBox="0.00 0.00 1062.24 469.04" xmlns="http://www.w3.org/2000/svg" xmlns:xlink="http://www.w3.org/1999/xlink">
<g id="graph0" class="graph" transform="scale(1 1) rotate(0) translate(4 465.0437)">
<title>%3</title>
<polygon fill="#ffffff" stroke="transparent" points="-4,4 -4,-465.0437 1058.2394,-465.0437 1058.2394,4 -4,4"/>
<!-- x&#45;vel -->
<g id="node1" class="node">
<title>x&#45;vel</title>
<polygon fill="#d3d3d3" stroke="#000000" points="426.5652,-394.8305 391.5652,-394.8305 391.5652,-376.8305 426.5652,-376.8305 426.5652,-394.8305"/>
<text text-anchor="middle" x="409.0652" y="-383.6305" font-family="Times,serif" font-size="9.00" fill="#000000">x&#45;vel</text>
</g>
<!-- none -->
<g id="node13" class="node">
<title>none</title>
<ellipse fill="#add8e6" stroke="#000000" cx="641.0652" cy="-292.5549" rx="24.0833" ry="24.0833"/>
<text text-anchor="middle" x="641.0652" y="-290.3549" font-family="Times,serif" font-size="9.00" fill="#000000">none</text>
</g>
<!-- x&#45;vel&#45;&gt;none -->
<g id="edge21" class="edge">
<title>x&#45;vel&#45;&gt;none</title>
<path fill="none" stroke="#00ff00" stroke-width=".5164" stroke-dasharray="1,5" d="M426.8846,-378.6662C465.9776,-362.9489 559.7169,-325.261 609.2115,-305.3617"/>
<polygon fill="#00ff00" stroke="#00ff00" stroke-width=".5164" points="610.5186,-308.6085 618.4912,-301.6308 607.9073,-302.1138 610.5186,-308.6085"/>
</g>
<!-- backward -->
<g id="node17" class="node">
<title>backward</title>
<ellipse fill="#add8e6" stroke="#000000" cx="311.0652" cy="-292.5549" rx="36.125" ry="36.125"/>
<text text-anchor="middle" x="311.0652" y="-290.3549" font-family="Times,serif" font-size="9.00" fill="#000000">backward</text>
</g>
<!-- x&#45;vel&#45;&gt;backward -->
<g id="edge23" class="edge">
<title>x&#45;vel&#45;&gt;backward</title>
<path fill="none" stroke="#ff0000" stroke-width=".4391" stroke-dasharray="1,5" d="M399.3103,-376.5459C386.6591,-364.5046 363.9353,-342.8762 344.7158,-324.5833"/>
<polygon fill="#ff0000" stroke="#ff0000" stroke-width=".4391" points="346.9357,-321.8642 337.2791,-317.5051 342.1096,-326.9346 346.9357,-321.8642"/>
</g>
<!-- y&#45;vel -->
<g id="node2" class="node">
<title>y&#45;vel</title>
<polygon fill="#d3d3d3" stroke="#000000" points="663.5652,-394.8305 628.5652,-394.8305 628.5652,-376.8305 663.5652,-376.8305 663.5652,-394.8305"/>
<text text-anchor="middle" x="646.0652" y="-383.6305" font-family="Times,serif" font-size="9.00" fill="#000000">y&#45;vel</text>
</g>
<!-- y&#45;vel&#45;&gt;none -->
<g id="edge27" class="edge">
<title>y&#45;vel&#45;&gt;none</title>
<path fill="none" stroke="#00ff00" stroke-width=".4701" stroke-dasharray="1,5" d="M645.5675,-376.5459C644.948,-364.9899 643.8553,-344.6039 642.9015,-326.8104"/>
<polygon fill="#00ff00" stroke="#00ff00" stroke-width=".4701" points="646.3909,-326.518 642.3605,-316.7197 639.4009,-326.8928 646.3909,-326.518"/>
</g>
<!-- left -->
<g id="node15" class="node">
<title>left</title>
<ellipse fill="#add8e6" stroke="#000000" cx="745.0652" cy="-292.5549" rx="19.6" ry="19.6"/>
<text text-anchor="middle" x="745.0652" y="-290.3549" font-family="Times,serif" font-size="9.00" fill="#000000">left</text>
</g>
<!-- y&#45;vel&#45;&gt;left -->
<g id="edge13" class="edge">
<title>y&#45;vel&#45;&gt;left</title>
<path fill="none" stroke="#ff0000" stroke-width=".6468" stroke-dasharray="1,5" d="M655.9196,-376.5459C671.4452,-361.918 701.9875,-333.1418 722.9572,-313.3846"/>
<polygon fill="#ff0000" stroke="#ff0000" stroke-width=".6468" points="725.5958,-315.7073 730.474,-306.3023 720.7955,-310.6125 725.5958,-315.7073"/>
</g>
<!-- x&#45;pos -->
<g id="node3" class="node">
<title>x&#45;pos</title>
<polygon fill="#d3d3d3" stroke="#000000" points="234.0652,-461.0437 198.0652,-461.0437 198.0652,-443.0437 234.0652,-443.0437 234.0652,-461.0437"/>
<text text-anchor="middle" x="216.0652" y="-449.8437" font-family="Times,serif" font-size="9.00" fill="#000000">x&#45;pos</text>
</g>
<!-- forward -->
<g id="node16" class="node">
<title>forward</title>
<ellipse fill="#add8e6" stroke="#000000" cx="218.0652" cy="-31.8198" rx="31.6406" ry="31.6406"/>
<text text-anchor="middle" x="218.0652" y="-29.6198" font-family="Times,serif" font-size="9.00" fill="#000000">forward</text>
</g>
<!-- x&#45;pos&#45;&gt;forward -->
<g id="edge6" class="edge">
<title>x&#45;pos&#45;&gt;forward</title>
<path fill="none" stroke="#ff0000" stroke-width=".162" stroke-dasharray="1,5" d="M197.8728,-450.1758C155.2792,-445.4297 50.8843,-431.5175 27.0652,-407.0437 -9.1956,-369.7864 3.0652,-344.5448 3.0652,-292.5549 3.0652,-292.5549 3.0652,-292.5549 3.0652,-199.2792 3.0652,-153.7284 -3.4124,-133.4921 27.0652,-99.6396 65.5362,-56.9086 132.7108,-41.0964 176.2737,-35.2482"/>
<polygon fill="#ff0000" stroke="#ff0000" stroke-width=".162" points="176.7678,-38.714 186.2686,-34.0251 175.9175,-31.7658 176.7678,-38.714"/>
</g>
<!-- x&#45;pos&#45;&gt;backward -->
<g id="edge19" class="edge">
<title>x&#45;pos&#45;&gt;backward</title>
<path fill="none" stroke="#00ff00" stroke-width=".3347" stroke-dasharray="1,5" d="M222.4671,-442.8619C228.6796,-433.8554 238.2834,-419.6743 246.0652,-407.0437 260.9231,-382.9282 276.628,-355.3315 288.8781,-333.2751"/>
<polygon fill="#00ff00" stroke="#00ff00" stroke-width=".3347" points="291.9557,-334.9423 293.7335,-324.4976 285.8303,-331.5539 291.9557,-334.9423"/>
</g>
<!-- 524 -->
<g id="node18" class="node">
<title>524</title>
<ellipse fill="#ffffff" stroke="#000000" cx="216.0652" cy="-385.8305" rx="21.4286" ry="21.4286"/>
<text text-anchor="middle" x="216.0652" y="-383.6305" font-family="Times,serif" font-size="9.00" fill="#000000">524</text>
</g>
<!-- x&#45;pos&#45;&gt;524 -->
<g id="edge39" class="edge">
<title>x&#45;pos&#45;&gt;524</title>
<path fill="none" stroke="#00ff00" stroke-width=".4741" stroke-dasharray="1,5" d="M216.0652,-442.8371C216.0652,-436.176 216.0652,-426.7511 216.0652,-417.479"/>
<polygon fill="#00ff00" stroke="#00ff00" stroke-width=".4741" points="219.5653,-417.2309 216.0652,-407.2309 212.5653,-417.2309 219.5653,-417.2309"/>
</g>
<!-- y&#45;pos -->
<g id="node4" class="node">
<title>y&#45;pos</title>
<polygon fill="#d3d3d3" stroke="#000000" points="177.0652,-394.8305 141.0652,-394.8305 141.0652,-376.8305 177.0652,-376.8305 177.0652,-394.8305"/>
<text text-anchor="middle" x="159.0652" y="-383.6305" font-family="Times,serif" font-size="9.00" fill="#000000">y&#45;pos</text>
</g>
<!-- y&#45;pos&#45;&gt;forward -->
<g id="edge14" class="edge">
<title>y&#45;pos&#45;&gt;forward</title>
<path fill="none" stroke="#00ff00" stroke-width=".3326" stroke-dasharray="1,5" d="M160.5829,-376.7239C167.6401,-334.3795 197.4802,-155.3338 211.1608,-73.2472"/>
<polygon fill="#00ff00" stroke="#00ff00" stroke-width=".3326" points="214.6328,-73.7044 212.8245,-63.265 207.7281,-72.5536 214.6328,-73.7044"/>
</g>
<!-- y&#45;pos&#45;&gt;backward -->
<g id="edge10" class="edge">
<title>y&#45;pos&#45;&gt;backward</title>
<path fill="none" stroke="#00ff00" stroke-width=".3999" d="M169.7395,-376.6527C174.5639,-372.7157 180.4356,-368.2067 186.0652,-364.6173 215.8974,-345.5965 226.5217,-346.4737 257.0652,-328.6173 262.24,-325.592 267.5948,-322.2677 272.8315,-318.8991"/>
<polygon fill="#00ff00" stroke="#00ff00" stroke-width=".3999" points="275.0335,-321.6407 281.4804,-313.2331 271.1975,-315.7853 275.0335,-321.6407"/>
</g>
<!-- 122 -->
<g id="node21" class="node">
<title>122</title>
<ellipse fill="#ffffff" stroke="#000000" cx="267.0652" cy="-199.2792" rx="21.4286" ry="21.4286"/>
<text text-anchor="middle" x="267.0652" y="-197.0792" font-family="Times,serif" font-size="9.00" fill="#000000">122</text>
</g>
<!-- y&#45;pos&#45;&gt;122 -->
<g id="edge35" class="edge">
<title>y&#45;pos&#45;&gt;122</title>
<path fill="none" stroke="#00ff00" stroke-width=".4797" stroke-dasharray="1,5" d="M164.4209,-376.5794C180.1633,-349.3872 226.7255,-268.9591 251.3649,-226.3987"/>
<polygon fill="#00ff00" stroke="#00ff00" stroke-width=".4797" points="254.4325,-228.0856 256.4138,-217.6777 248.3745,-224.5784 254.4325,-228.0856"/>
</g>
<!-- x&#45;lm1&#45;vec -->
<g id="node5" class="node">
<title>x&#45;lm1&#45;vec</title>
<polygon fill="#d3d3d3" stroke="#000000" points="662.5652,-461.0437 609.5652,-461.0437 609.5652,-443.0437 662.5652,-443.0437 662.5652,-461.0437"/>
<text text-anchor="middle" x="636.0652" y="-449.8437" font-family="Times,serif" font-size="9.00" fill="#000000">x&#45;lm1&#45;vec</text>
</g>
<!-- right -->
<g id="node14" class="node">
<title>right</title>
<ellipse fill="#add8e6" stroke="#000000" cx="921.0652" cy="-292.5549" rx="23.1702" ry="23.1702"/>
<text text-anchor="middle" x="921.0652" y="-290.3549" font-family="Times,serif" font-size="9.00" fill="#000000">right</text>
</g>
<!-- x&#45;lm1&#45;vec&#45;&gt;right -->
<g id="edge4" class="edge">
<title>x&#45;lm1&#45;vec&#45;&gt;right</title>
<path fill="none" stroke="#00ff00" stroke-width=".1076" d="M662.7103,-450.7214C742.4273,-446.4954 974.9338,-432.1052 997.0652,-407.0437 1024.3185,-376.1823 980.2884,-334.9002 948.6986,-311.2724"/>
<polygon fill="#00ff00" stroke="#00ff00" stroke-width=".1076" points="950.7355,-308.426 940.5876,-305.3811 946.6217,-314.0897 950.7355,-308.426"/>
</g>
<!-- x&#45;lm1&#45;vec&#45;&gt;forward -->
<g id="edge22" class="edge">
<title>x&#45;lm1&#45;vec&#45;&gt;forward</title>
<path fill="none" stroke="#00ff00" stroke-width=".2372" stroke-dasharray="1,5" d="M662.8051,-450.5054C744.6234,-445.5753 987.7011,-429.1869 1015.0652,-407.0437 1056.8526,-373.229 1054.0652,-346.31 1054.0652,-292.5549 1054.0652,-292.5549 1054.0652,-292.5549 1054.0652,-199.2792 1054.0652,-117.3619 428.9714,-51.901 259.831,-35.6877"/>
<polygon fill="#00ff00" stroke="#00ff00" stroke-width=".2372" points="260.1033,-32.1979 249.8165,-34.7344 259.4398,-39.1664 260.1033,-32.1979"/>
</g>
<!-- x&#45;lm1&#45;vec&#45;&gt;backward -->
<g id="edge20" class="edge">
<title>x&#45;lm1&#45;vec&#45;&gt;backward</title>
<path fill="none" stroke="#00ff00" stroke-width=".1322" d="M609.4984,-450.0324C552.3394,-445.278 419.8833,-431.8407 383.0652,-407.0437 369.0944,-397.6344 348.1685,-362.8117 332.4714,-334.0163"/>
<polygon fill="#00ff00" stroke="#00ff00" stroke-width=".1322" points="335.396,-332.0651 327.5742,-324.9188 329.2323,-335.3831 335.396,-332.0651"/>
</g>
<!-- 407 -->
<g id="node20" class="node">
<title>407</title>
<ellipse fill="#ffffff" stroke="#000000" cx="314.0652" cy="-385.8305" rx="21.4286" ry="21.4286"/>
<text text-anchor="middle" x="314.0652" y="-383.6305" font-family="Times,serif" font-size="9.00" fill="#000000">407</text>
</g>
<!-- x&#45;lm1&#45;vec&#45;&gt;407 -->
<g id="edge37" class="edge">
<title>x&#45;lm1&#45;vec&#45;&gt;407</title>
<path fill="none" stroke="#00ff00" stroke-width=".2182" d="M609.49,-451.294C557.7949,-449.1024 440.7335,-440.5268 349.0652,-407.0437 346.1557,-405.981 343.2222,-404.6651 340.3572,-403.213"/>
<polygon fill="#00ff00" stroke="#00ff00" stroke-width=".2182" points="341.9831,-400.1118 331.5524,-398.2541 338.5479,-406.211 341.9831,-400.1118"/>
</g>
<!-- x&#45;lm1&#45;vec&#45;&gt;122 -->
<g id="edge32" class="edge">
<title>x&#45;lm1&#45;vec&#45;&gt;122</title>
<path fill="none" stroke="#ff0000" stroke-width=".1232" stroke-dasharray="1,5" d="M609.5603,-449.7945C575.6267,-445.8329 516.1904,-435.1565 474.0652,-407.0437 456.3866,-395.2457 371.7795,-270.8028 356.0652,-256.4924 337.4761,-239.564 313.3226,-224.3823 294.8689,-213.9187"/>
<polygon fill="#ff0000" stroke="#ff0000" stroke-width=".1232" points="296.501,-210.8216 286.0581,-209.0336 293.1067,-216.9436 296.501,-210.8216"/>
</g>
<!-- 571 -->
<g id="node22" class="node">
<title>571</title>
<ellipse fill="#ffffff" stroke="#000000" cx="817.0652" cy="-385.8305" rx="21.4286" ry="21.4286"/>
<text text-anchor="middle" x="817.0652" y="-383.6305" font-family="Times,serif" font-size="9.00" fill="#000000">571</text>
</g>
<!-- x&#45;lm1&#45;vec&#45;&gt;571 -->
<g id="edge42" class="edge">
<title>x&#45;lm1&#45;vec&#45;&gt;571</title>
<path fill="none" stroke="#00ff00" stroke-width=".5512" stroke-dasharray="1,5" d="M662.6185,-445.9547C692.4331,-438.6431 741.897,-425.075 782.0652,-407.0437 784.891,-405.7752 787.7694,-404.3236 790.6004,-402.788"/>
<polygon fill="#00ff00" stroke="#00ff00" stroke-width=".5512" points="792.4585,-405.7566 799.3602,-397.7182 788.952,-399.6981 792.4585,-405.7566"/>
</g>
<!-- y&#45;lm1&#45;vec -->
<g id="node6" class="node">
<title>y&#45;lm1&#45;vec</title>
<polygon fill="#d3d3d3" stroke="#000000" points="340.5652,-461.0437 287.5652,-461.0437 287.5652,-443.0437 340.5652,-443.0437 340.5652,-461.0437"/>
<text text-anchor="middle" x="314.0652" y="-449.8437" font-family="Times,serif" font-size="9.00" fill="#000000">y&#45;lm1&#45;vec</text>
</g>
<!-- y&#45;lm1&#45;vec&#45;&gt;left -->
<g id="edge7" class="edge">
<title>y&#45;lm1&#45;vec&#45;&gt;left</title>
<path fill="none" stroke="#ff0000" stroke-width=".1221" stroke-dasharray="1,5" d="M340.5956,-451.3211C430.8018,-448.5941 721.6066,-437.4893 749.0652,-407.0437 769.8791,-383.9656 763.7939,-346.4057 755.8924,-320.6411"/>
<polygon fill="#ff0000" stroke="#ff0000" stroke-width=".1221" points="759.1851,-319.4506 752.7085,-311.0658 752.5427,-321.6593 759.1851,-319.4506"/>
</g>
<!-- y&#45;lm1&#45;vec&#45;&gt;forward -->
<g id="edge31" class="edge">
<title>y&#45;lm1&#45;vec&#45;&gt;forward</title>
<path fill="none" stroke="#00ff00" stroke-width=".2394" d="M287.5191,-448.1563C224.2223,-438.7756 69.0774,-415.0806 61.0652,-407.0437 24.5963,-370.4623 41.0652,-344.2094 41.0652,-292.5549 41.0652,-292.5549 41.0652,-292.5549 41.0652,-199.2792 41.0652,-123.8129 127.0192,-72.2048 179.1311,-47.8508"/>
<polygon fill="#00ff00" stroke="#00ff00" stroke-width=".2394" points="180.7833,-50.9445 188.4394,-43.6209 177.8873,-44.5716 180.7833,-50.9445"/>
</g>
<!-- y&#45;lm1&#45;vec&#45;&gt;407 -->
<g id="edge41" class="edge">
<title>y&#45;lm1&#45;vec&#45;&gt;407</title>
<path fill="none" stroke="#00ff00" stroke-width=".1335" d="M314.0652,-442.8371C314.0652,-436.176 314.0652,-426.7511 314.0652,-417.479"/>
<polygon fill="#00ff00" stroke="#00ff00" stroke-width=".1335" points="317.5653,-417.2309 314.0652,-407.2309 310.5653,-417.2309 317.5653,-417.2309"/>
</g>
<!-- x&#45;lm2&#45;vec -->
<g id="node7" class="node">
<title>x&#45;lm2&#45;vec</title>
<polygon fill="#d3d3d3" stroke="#000000" points="610.5652,-394.8305 557.5652,-394.8305 557.5652,-376.8305 610.5652,-376.8305 610.5652,-394.8305"/>
<text text-anchor="middle" x="584.0652" y="-383.6305" font-family="Times,serif" font-size="9.00" fill="#000000">x&#45;lm2&#45;vec</text>
</g>
<!-- x&#45;lm2&#45;vec&#45;&gt;none -->
<g id="edge9" class="edge">
<title>x&#45;lm2&#45;vec&#45;&gt;none</title>
<path fill="none" stroke="#ff0000" stroke-width=".2221" stroke-dasharray="1,5" d="M589.739,-376.5459C597.4693,-363.8958 611.6656,-340.6648 623.1717,-321.8361"/>
<polygon fill="#ff0000" stroke="#ff0000" stroke-width=".2221" points="626.1717,-323.639 628.3996,-313.2811 620.1986,-319.9889 626.1717,-323.639"/>
</g>
<!-- x&#45;lm2&#45;vec&#45;&gt;left -->
<g id="edge5" class="edge">
<title>x&#45;lm2&#45;vec&#45;&gt;left</title>
<path fill="none" stroke="#ff0000" stroke-width=".1314" d="M598.9966,-376.7211C605.4223,-372.8822 613.0549,-368.4295 620.0652,-364.6173 651.4957,-347.5257 661.2066,-346.721 692.0652,-328.6173 701.5686,-323.042 711.6479,-316.3857 720.4365,-310.3182"/>
<polygon fill="#ff0000" stroke="#ff0000" stroke-width=".1314" points="722.5453,-313.1143 728.7257,-304.5089 718.5278,-307.3819 722.5453,-313.1143"/>
</g>
<!-- x&#45;lm2&#45;vec&#45;&gt;forward -->
<g id="edge1" class="edge">
<title>x&#45;lm2&#45;vec&#45;&gt;forward</title>
<path fill="none" stroke="#00ff00" stroke-width=".1264" d="M577.5402,-376.8012C550.2373,-339.4312 441.3089,-194.3979 328.0652,-99.6396 305.6838,-80.9117 277.647,-63.7058 255.4805,-51.3104"/>
<polygon fill="#00ff00" stroke="#00ff00" stroke-width=".1264" points="257.1314,-48.2239 246.6828,-46.4695 253.7568,-54.3568 257.1314,-48.2239"/>
</g>
<!-- x&#45;lm2&#45;vec&#45;&gt;backward -->
<g id="edge11" class="edge">
<title>x&#45;lm2&#45;vec&#45;&gt;backward</title>
<path fill="none" stroke="#00ff00" stroke-width=".3445" d="M570.4542,-376.7728C563.8838,-372.674 555.7699,-368.0012 548.0652,-364.6173 483.7338,-336.3635 404.9853,-314.8219 356.4236,-302.9328"/>
<polygon fill="#00ff00" stroke="#00ff00" stroke-width=".3445" points="357.0777,-299.4902 346.5354,-300.5433 355.4335,-306.2943 357.0777,-299.4902"/>
</g>
<!-- y&#45;lm2&#45;vec -->
<g id="node8" class="node">
<title>y&#45;lm2&#45;vec</title>
<polygon fill="#d3d3d3" stroke="#000000" points="122.5652,-394.8305 69.5652,-394.8305 69.5652,-376.8305 122.5652,-376.8305 122.5652,-394.8305"/>
<text text-anchor="middle" x="96.0652" y="-383.6305" font-family="Times,serif" font-size="9.00" fill="#000000">y&#45;lm2&#45;vec</text>
</g>
<!-- y&#45;lm2&#45;vec&#45;&gt;forward -->
<g id="edge18" class="edge">
<title>y&#45;lm2&#45;vec&#45;&gt;forward</title>
<path fill="none" stroke="#00ff00" stroke-width="1.0853" d="M99.2035,-376.7239C113.8679,-334.1719 176.1056,-153.5752 204.202,-72.047"/>
<polygon fill="#00ff00" stroke="#00ff00" stroke-width="1.0853" points="207.6641,-72.7431 207.6133,-62.1484 201.046,-70.4624 207.6641,-72.7431"/>
</g>
<!-- y&#45;lm2&#45;vec&#45;&gt;backward -->
<g id="edge8" class="edge">
<title>y&#45;lm2&#45;vec&#45;&gt;backward</title>
<path fill="none" stroke="#ff0000" stroke-width="1.0812" d="M110.5038,-376.6528C116.9745,-372.716 124.7763,-368.2069 132.0652,-364.6173 177.0338,-342.4715 230.5863,-321.5952 267.3258,-308.07"/>
<polygon fill="#ff0000" stroke="#ff0000" stroke-width="1.0812" points="268.5631,-311.3443 276.7543,-304.6245 266.1604,-304.7695 268.5631,-311.3443"/>
</g>
<!-- x&#45;other&#45;vec -->
<g id="node9" class="node">
<title>x&#45;other&#45;vec</title>
<polygon fill="#d3d3d3" stroke="#000000" points="988.0652,-394.8305 930.0652,-394.8305 930.0652,-376.8305 988.0652,-376.8305 988.0652,-394.8305"/>
<text text-anchor="middle" x="959.0652" y="-383.6305" font-family="Times,serif" font-size="9.00" fill="#000000">x&#45;other&#45;vec</text>
</g>
<!-- x&#45;other&#45;vec&#45;&gt;right -->
<g id="edge30" class="edge">
<title>x&#45;other&#45;vec&#45;&gt;right</title>
<path fill="none" stroke="#00ff00" stroke-width="1.1247" d="M955.2827,-376.5459C950.3179,-364.3592 941.3524,-342.3523 933.844,-323.9219"/>
<polygon fill="#00ff00" stroke="#00ff00" stroke-width="1.1247" points="936.9828,-322.3496 929.9685,-314.4091 930.5001,-324.9906 936.9828,-322.3496"/>
</g>
<!-- x&#45;other&#45;vec&#45;&gt;left -->
<g id="edge15" class="edge">
<title>x&#45;other&#45;vec&#45;&gt;left</title>
<path fill="none" stroke="#ff0000" stroke-width="1.1609" d="M943.758,-376.7313C936.9155,-372.809 928.6891,-368.2896 921.0652,-364.6173 870.166,-340.1001 808.6799,-316.1632 773.4987,-302.984"/>
<polygon fill="#ff0000" stroke="#ff0000" stroke-width="1.1609" points="774.4775,-299.6137 763.8847,-299.4054 772.0355,-306.174 774.4775,-299.6137"/>
</g>
<!-- y&#45;other&#45;vec -->
<g id="node10" class="node">
<title>y&#45;other&#45;vec</title>
<polygon fill="#d3d3d3" stroke="#000000" points="740.0652,-394.8305 682.0652,-394.8305 682.0652,-376.8305 740.0652,-376.8305 740.0652,-394.8305"/>
<text text-anchor="middle" x="711.0652" y="-383.6305" font-family="Times,serif" font-size="9.00" fill="#000000">y&#45;other&#45;vec</text>
</g>
<!-- y&#45;other&#45;vec&#45;&gt;none -->
<g id="edge25" class="edge">
<title>y&#45;other&#45;vec&#45;&gt;none</title>
<path fill="none" stroke="#ff0000" stroke-width=".5503" stroke-dasharray="1,5" d="M704.0974,-376.5459C694.2771,-363.4602 675.9599,-339.0523 661.5922,-319.9073"/>
<polygon fill="#ff0000" stroke="#ff0000" stroke-width=".5503" points="664.3153,-317.7048 655.5135,-311.8074 658.7166,-321.9065 664.3153,-317.7048"/>
</g>
<!-- y&#45;other&#45;vec&#45;&gt;right -->
<g id="edge26" class="edge">
<title>y&#45;other&#45;vec&#45;&gt;right</title>
<path fill="none" stroke="#ff0000" stroke-width=".2735" stroke-dasharray="1,5" d="M731.5832,-376.717C768.6197,-360.2666 846.823,-325.531 890.2912,-306.2237"/>
<polygon fill="#ff0000" stroke="#ff0000" stroke-width=".2735" points="891.8066,-309.3804 899.5249,-302.1224 888.9651,-302.9831 891.8066,-309.3804"/>
</g>
<!-- x&#45;other&#45;vel -->
<g id="node11" class="node">
<title>x&#45;other&#45;vel</title>
<polygon fill="#d3d3d3" stroke="#000000" points="912.0652,-394.8305 856.0652,-394.8305 856.0652,-376.8305 912.0652,-376.8305 912.0652,-394.8305"/>
<text text-anchor="middle" x="884.0652" y="-383.6305" font-family="Times,serif" font-size="9.00" fill="#000000">x&#45;other&#45;vel</text>
</g>
<!-- x&#45;other&#45;vel&#45;&gt;right -->
<g id="edge29" class="edge">
<title>x&#45;other&#45;vel&#45;&gt;right</title>
<path fill="none" stroke="#ff0000" stroke-width=".2777" d="M887.7482,-376.5459C892.5823,-364.3592 901.3119,-342.3523 908.6227,-323.9219"/>
<polygon fill="#ff0000" stroke="#ff0000" stroke-width=".2777" points="911.9623,-324.9951 912.3962,-314.4091 905.4555,-322.414 911.9623,-324.9951"/>
</g>
<!-- x&#45;other&#45;vel&#45;&gt;left -->
<g id="edge28" class="edge">
<title>x&#45;other&#45;vel&#45;&gt;left</title>
<path fill="none" stroke="#ff0000" stroke-width=".6376" d="M870.4842,-376.717C847.3305,-361.1798 799.8697,-329.3313 770.4304,-309.5761"/>
<polygon fill="#ff0000" stroke="#ff0000" stroke-width=".6376" points="772.1734,-306.5308 761.9194,-303.8649 768.2729,-312.3434 772.1734,-306.5308"/>
</g>
<!-- y&#45;other&#45;vel -->
<g id="node12" class="node">
<title>y&#45;other&#45;vel</title>
<polygon fill="#d3d3d3" stroke="#000000" points="539.0652,-394.8305 483.0652,-394.8305 483.0652,-376.8305 539.0652,-376.8305 539.0652,-394.8305"/>
<text text-anchor="middle" x="511.0652" y="-383.6305" font-family="Times,serif" font-size="9.00" fill="#000000">y&#45;other&#45;vel</text>
</g>
<!-- y&#45;other&#45;vel&#45;&gt;left -->
<g id="edge16" class="edge">
<title>y&#45;other&#45;vel&#45;&gt;left</title>
<path fill="none" stroke="#00ff00" stroke-width=".2854" d="M525.4204,-376.6381C532.3532,-372.5097 540.9191,-367.851 549.0652,-364.6173 609.9798,-340.4364 632.2774,-355.4637 692.0652,-328.6173 702.2688,-324.0356 712.6292,-317.4934 721.4508,-311.2361"/>
<polygon fill="#00ff00" stroke="#00ff00" stroke-width=".2854" points="723.7245,-313.9083 729.6965,-305.157 719.5706,-308.2739 723.7245,-313.9083"/>
</g>
<!-- y&#45;other&#45;vel&#45;&gt;forward -->
<g id="edge24" class="edge">
<title>y&#45;other&#45;vel&#45;&gt;forward</title>
<path fill="none" stroke="#00ff00" stroke-width=".3413" stroke-dasharray="1,5" d="M505.0894,-376.3588C481.3246,-339.0413 390.2741,-199.3459 297.0652,-99.6396 283.1086,-84.7101 266.0705,-69.7392 251.3951,-57.6756"/>
<polygon fill="#00ff00" stroke="#00ff00" stroke-width=".3413" points="253.492,-54.8699 243.5198,-51.2914 249.0839,-60.3076 253.492,-54.8699"/>
</g>
<!-- y&#45;other&#45;vel&#45;&gt;backward -->
<g id="edge17" class="edge">
<title>y&#45;other&#45;vel&#45;&gt;backward</title>
<path fill="none" stroke="#00ff00" stroke-width=".2833" d="M491.5242,-376.717C459.6325,-361.8434 395.6903,-332.0222 353.1266,-312.1714"/>
<polygon fill="#00ff00" stroke="#00ff00" stroke-width=".2833" points="354.4015,-308.9041 343.8593,-307.8493 351.4428,-315.2481 354.4015,-308.9041"/>
</g>
<!-- none&#45;&gt;none -->
<g id="edge3" class="edge">
<title>none&#45;&gt;none</title>
<path fill="none" stroke="#00ff00" stroke-width=".4033" stroke-dasharray="1,5" d="M659.6523,-308.4404C671.6042,-312.5844 683.1068,-307.2892 683.1068,-292.5549 683.1068,-282.0797 677.293,-276.3753 669.6373,-275.4418"/>
<polygon fill="#00ff00" stroke="#00ff00" stroke-width=".4033" points="669.1505,-271.9753 659.6523,-276.6694 670.0047,-278.9229 669.1505,-271.9753"/>
</g>
<!-- left&#45;&gt;left -->
<g id="edge12" class="edge">
<title>left&#45;&gt;left</title>
<path fill="none" stroke="#ff0000" stroke-width=".2383" stroke-dasharray="1,5" d="M759.022,-307.1727C770.6813,-313.4197 782.8642,-308.5471 782.8642,-292.5549 782.8642,-281.0605 776.5705,-275.3105 768.7011,-275.3049"/>
<polygon fill="#ff0000" stroke="#ff0000" stroke-width=".2383" points="767.7531,-271.9355 759.022,-277.937 769.59,-278.6902 767.7531,-271.9355"/>
</g>
<!-- forward&#45;&gt;forward -->
<g id="edge2" class="edge">
<title>forward&#45;&gt;forward</title>
<path fill="none" stroke="#00ff00" stroke-width=".3042" stroke-dasharray="1,5" d="M245.4782,-48.0932C257.5216,-49.5333 267.885,-44.1089 267.885,-31.8198 267.885,-23.1791 262.7615,-17.9321 255.5329,-16.0788"/>
<polygon fill="#00ff00" stroke="#00ff00" stroke-width=".3042" points="255.6493,-12.5802 245.4782,-15.5464 255.2791,-19.5704 255.6493,-12.5802"/>
</g>
<!-- backward&#45;&gt;122 -->
<g id="edge36" class="edge">
<title>backward&#45;&gt;122</title>
<path fill="none" stroke="#ff0000" stroke-width=".6976" d="M295.6761,-259.9316C290.7558,-249.5009 285.349,-238.0391 280.5731,-227.9146"/>
<polygon fill="#ff0000" stroke="#ff0000" stroke-width=".6976" points="283.6557,-226.2455 276.2238,-218.6945 277.3247,-229.232 283.6557,-226.2455"/>
</g>
<!-- 524&#45;&gt;backward -->
<g id="edge40" class="edge">
<title>524&#45;&gt;backward</title>
<path fill="none" stroke="#00ff00" stroke-width=".1027" d="M231.3286,-370.8442C243.769,-358.6295 261.7953,-340.9305 277.5622,-325.4498"/>
<polygon fill="#00ff00" stroke="#00ff00" stroke-width=".1027" points="280.403,-327.5656 285.0864,-318.0621 275.4987,-322.5707 280.403,-327.5656"/>
</g>
<!-- 820 -->
<g id="node19" class="node">
<title>820</title>
<ellipse fill="#ffffff" stroke="#000000" cx="267.0652" cy="-120.8528" rx="21.4286" ry="21.4286"/>
<text text-anchor="middle" x="267.0652" y="-118.6528" font-family="Times,serif" font-size="9.00" fill="#000000">820</text>
</g>
<!-- 820&#45;&gt;forward -->
<g id="edge44" class="edge">
<title>820&#45;&gt;forward</title>
<path fill="none" stroke="#ff0000" stroke-width=".3079" d="M256.6736,-101.9712C251.3535,-92.3046 244.6871,-80.1917 238.3981,-68.7646"/>
<polygon fill="#ff0000" stroke="#ff0000" stroke-width=".3079" points="241.3562,-66.8804 233.4682,-59.8071 235.2236,-70.2556 241.3562,-66.8804"/>
</g>
<!-- 407&#45;&gt;backward -->
<g id="edge38" class="edge">
<title>407&#45;&gt;backward</title>
<path fill="none" stroke="#ff0000" stroke-width=".3686" stroke-dasharray="1,5" d="M313.3694,-364.1968C313.1256,-356.6152 312.8415,-347.7821 312.5577,-338.96"/>
<polygon fill="#ff0000" stroke="#ff0000" stroke-width=".3686" points="316.047,-338.5667 312.2272,-328.6844 309.0506,-338.7918 316.047,-338.5667"/>
</g>
<!-- 122&#45;&gt;forward -->
<g id="edge33" class="edge">
<title>122&#45;&gt;forward</title>
<path fill="none" stroke="#00ff00" stroke-width=".3301" stroke-dasharray="1,5" d="M255.6701,-181.1246C249.291,-170.1889 241.7097,-155.7683 237.0652,-142.066 229.6514,-120.1935 225.0255,-94.8542 222.1973,-73.9878"/>
<polygon fill="#00ff00" stroke="#00ff00" stroke-width=".3301" points="225.6401,-73.3148 220.9129,-63.833 218.6955,-74.1932 225.6401,-73.3148"/>
</g>
<!-- 122&#45;&gt;820 -->
<g id="edge43" class="edge">
<title>122&#45;&gt;820</title>
<path fill="none" stroke="#00ff00" stroke-width=".2496" d="M267.0652,-177.8489C267.0652,-169.9816 267.0652,-160.9027 267.0652,-152.3363"/>
<polygon fill="#00ff00" stroke="#00ff00" stroke-width=".2496" points="270.5653,-152.2572 267.0652,-142.2573 263.5653,-152.2573 270.5653,-152.2572"/>
</g>
<!-- 122&#45;&gt;122 -->
<g id="edge34" class="edge">
<title>122&#45;&gt;122</title>
<path fill="none" stroke="#ff0000" stroke-width=".1126" stroke-dasharray="1,5" d="M283.9938,-212.6152C295.2864,-216.3691 306.2784,-211.9238 306.2784,-199.2792 306.2784,-190.5861 301.083,-185.7684 294.1663,-184.8261"/>
<polygon fill="#ff0000" stroke="#ff0000" stroke-width=".1126" points="293.552,-181.3724 283.9938,-185.9432 294.3161,-188.3306 293.552,-181.3724"/>
</g>
</g>
</svg>
