<?xml version="1.0" encoding="utf-8" standalone="no"?>
<!DOCTYPE svg PUBLIC "-//W3C//DTD SVG 1.1//EN"
  "http://www.w3.org/Graphics/SVG/1.1/DTD/svg11.dtd">
<!-- Created with matplotlib (https://matplotlib.org/) -->
<svg height="345.6pt" version="1.1" viewBox="0 0 460.8 345.6" width="460.8pt" xmlns="http://www.w3.org/2000/svg" xmlns:xlink="http://www.w3.org/1999/xlink">
 <metadata>
  <rdf:RDF xmlns:cc="http://creativecommons.org/ns#" xmlns:dc="http://purl.org/dc/elements/1.1/" xmlns:rdf="http://www.w3.org/1999/02/22-rdf-syntax-ns#">
   <cc:Work>
    <dc:type rdf:resource="http://purl.org/dc/dcmitype/StillImage"/>
    <dc:date>2021-04-15T00:41:20.000827</dc:date>
    <dc:format>image/svg+xml</dc:format>
    <dc:creator>
     <cc:Agent>
      <dc:title>Matplotlib v3.3.4, https://matplotlib.org/</dc:title>
     </cc:Agent>
    </dc:creator>
   </cc:Work>
  </rdf:RDF>
 </metadata>
 <defs>
  <style type="text/css">*{stroke-linecap:butt;stroke-linejoin:round;}</style>
 </defs>
 <g id="figure_1">
  <g id="patch_1">
   <path d="M 0 345.6 
L 460.8 345.6 
L 460.8 0 
L 0 0 
z
" style="fill:#ffffff;"/>
  </g>
  <g id="axes_1">
   <g id="patch_2">
    <path d="M 57.6 307.584 
L 414.72 307.584 
L 414.72 41.472 
L 57.6 41.472 
z
" style="fill:#ffffff;"/>
   </g>
   <g id="matplotlib.axis_1">
    <g id="xtick_1">
     <g id="line2d_1">
      <path clip-path="url(#pf1b2b4d105)" d="M 73.832727 307.584 
L 73.832727 41.472 
" style="fill:none;stroke:#b0b0b0;stroke-linecap:square;stroke-width:0.8;"/>
     </g>
     <g id="line2d_2">
      <defs>
       <path d="M 0 0 
L 0 3.5 
" id="m017d22acf4" style="stroke:#000000;stroke-width:0.8;"/>
      </defs>
      <g>
       <use style="stroke:#000000;stroke-width:0.8;" x="73.832727" xlink:href="#m017d22acf4" y="307.584"/>
      </g>
     </g>
     <g id="text_1">
      <!-- 0 -->
      <g transform="translate(70.651477 322.182437)scale(0.1 -0.1)">
       <defs>
        <path d="M 31.78125 66.40625 
Q 24.171875 66.40625 20.328125 58.90625 
Q 16.5 51.421875 16.5 36.375 
Q 16.5 21.390625 20.328125 13.890625 
Q 24.171875 6.390625 31.78125 6.390625 
Q 39.453125 6.390625 43.28125 13.890625 
Q 47.125 21.390625 47.125 36.375 
Q 47.125 51.421875 43.28125 58.90625 
Q 39.453125 66.40625 31.78125 66.40625 
z
M 31.78125 74.21875 
Q 44.046875 74.21875 50.515625 64.515625 
Q 56.984375 54.828125 56.984375 36.375 
Q 56.984375 17.96875 50.515625 8.265625 
Q 44.046875 -1.421875 31.78125 -1.421875 
Q 19.53125 -1.421875 13.0625 8.265625 
Q 6.59375 17.96875 6.59375 36.375 
Q 6.59375 54.828125 13.0625 64.515625 
Q 19.53125 74.21875 31.78125 74.21875 
z
" id="DejaVuSans-48"/>
       </defs>
       <use xlink:href="#DejaVuSans-48"/>
      </g>
     </g>
    </g>
    <g id="xtick_2">
     <g id="line2d_3">
      <path clip-path="url(#pf1b2b4d105)" d="M 150.402196 307.584 
L 150.402196 41.472 
" style="fill:none;stroke:#b0b0b0;stroke-linecap:square;stroke-width:0.8;"/>
     </g>
     <g id="line2d_4">
      <g>
       <use style="stroke:#000000;stroke-width:0.8;" x="150.402196" xlink:href="#m017d22acf4" y="307.584"/>
      </g>
     </g>
     <g id="text_2">
      <!-- 100 -->
      <g transform="translate(140.858446 322.182437)scale(0.1 -0.1)">
       <defs>
        <path d="M 12.40625 8.296875 
L 28.515625 8.296875 
L 28.515625 63.921875 
L 10.984375 60.40625 
L 10.984375 69.390625 
L 28.421875 72.90625 
L 38.28125 72.90625 
L 38.28125 8.296875 
L 54.390625 8.296875 
L 54.390625 0 
L 12.40625 0 
z
" id="DejaVuSans-49"/>
       </defs>
       <use xlink:href="#DejaVuSans-49"/>
       <use x="63.623047" xlink:href="#DejaVuSans-48"/>
       <use x="127.246094" xlink:href="#DejaVuSans-48"/>
      </g>
     </g>
    </g>
    <g id="xtick_3">
     <g id="line2d_5">
      <path clip-path="url(#pf1b2b4d105)" d="M 226.971664 307.584 
L 226.971664 41.472 
" style="fill:none;stroke:#b0b0b0;stroke-linecap:square;stroke-width:0.8;"/>
     </g>
     <g id="line2d_6">
      <g>
       <use style="stroke:#000000;stroke-width:0.8;" x="226.971664" xlink:href="#m017d22acf4" y="307.584"/>
      </g>
     </g>
     <g id="text_3">
      <!-- 200 -->
      <g transform="translate(217.427914 322.182437)scale(0.1 -0.1)">
       <defs>
        <path d="M 19.1875 8.296875 
L 53.609375 8.296875 
L 53.609375 0 
L 7.328125 0 
L 7.328125 8.296875 
Q 12.9375 14.109375 22.625 23.890625 
Q 32.328125 33.6875 34.8125 36.53125 
Q 39.546875 41.84375 41.421875 45.53125 
Q 43.3125 49.21875 43.3125 52.78125 
Q 43.3125 58.59375 39.234375 62.25 
Q 35.15625 65.921875 28.609375 65.921875 
Q 23.96875 65.921875 18.8125 64.3125 
Q 13.671875 62.703125 7.8125 59.421875 
L 7.8125 69.390625 
Q 13.765625 71.78125 18.9375 73 
Q 24.125 74.21875 28.421875 74.21875 
Q 39.75 74.21875 46.484375 68.546875 
Q 53.21875 62.890625 53.21875 53.421875 
Q 53.21875 48.921875 51.53125 44.890625 
Q 49.859375 40.875 45.40625 35.40625 
Q 44.1875 33.984375 37.640625 27.21875 
Q 31.109375 20.453125 19.1875 8.296875 
z
" id="DejaVuSans-50"/>
       </defs>
       <use xlink:href="#DejaVuSans-50"/>
       <use x="63.623047" xlink:href="#DejaVuSans-48"/>
       <use x="127.246094" xlink:href="#DejaVuSans-48"/>
      </g>
     </g>
    </g>
    <g id="xtick_4">
     <g id="line2d_7">
      <path clip-path="url(#pf1b2b4d105)" d="M 303.541132 307.584 
L 303.541132 41.472 
" style="fill:none;stroke:#b0b0b0;stroke-linecap:square;stroke-width:0.8;"/>
     </g>
     <g id="line2d_8">
      <g>
       <use style="stroke:#000000;stroke-width:0.8;" x="303.541132" xlink:href="#m017d22acf4" y="307.584"/>
      </g>
     </g>
     <g id="text_4">
      <!-- 300 -->
      <g transform="translate(293.997382 322.182437)scale(0.1 -0.1)">
       <defs>
        <path d="M 40.578125 39.3125 
Q 47.65625 37.796875 51.625 33 
Q 55.609375 28.21875 55.609375 21.1875 
Q 55.609375 10.40625 48.1875 4.484375 
Q 40.765625 -1.421875 27.09375 -1.421875 
Q 22.515625 -1.421875 17.65625 -0.515625 
Q 12.796875 0.390625 7.625 2.203125 
L 7.625 11.71875 
Q 11.71875 9.328125 16.59375 8.109375 
Q 21.484375 6.890625 26.8125 6.890625 
Q 36.078125 6.890625 40.9375 10.546875 
Q 45.796875 14.203125 45.796875 21.1875 
Q 45.796875 27.640625 41.28125 31.265625 
Q 36.765625 34.90625 28.71875 34.90625 
L 20.21875 34.90625 
L 20.21875 43.015625 
L 29.109375 43.015625 
Q 36.375 43.015625 40.234375 45.921875 
Q 44.09375 48.828125 44.09375 54.296875 
Q 44.09375 59.90625 40.109375 62.90625 
Q 36.140625 65.921875 28.71875 65.921875 
Q 24.65625 65.921875 20.015625 65.03125 
Q 15.375 64.15625 9.8125 62.3125 
L 9.8125 71.09375 
Q 15.4375 72.65625 20.34375 73.4375 
Q 25.25 74.21875 29.59375 74.21875 
Q 40.828125 74.21875 47.359375 69.109375 
Q 53.90625 64.015625 53.90625 55.328125 
Q 53.90625 49.265625 50.4375 45.09375 
Q 46.96875 40.921875 40.578125 39.3125 
z
" id="DejaVuSans-51"/>
       </defs>
       <use xlink:href="#DejaVuSans-51"/>
       <use x="63.623047" xlink:href="#DejaVuSans-48"/>
       <use x="127.246094" xlink:href="#DejaVuSans-48"/>
      </g>
     </g>
    </g>
    <g id="xtick_5">
     <g id="line2d_9">
      <path clip-path="url(#pf1b2b4d105)" d="M 380.1106 307.584 
L 380.1106 41.472 
" style="fill:none;stroke:#b0b0b0;stroke-linecap:square;stroke-width:0.8;"/>
     </g>
     <g id="line2d_10">
      <g>
       <use style="stroke:#000000;stroke-width:0.8;" x="380.1106" xlink:href="#m017d22acf4" y="307.584"/>
      </g>
     </g>
     <g id="text_5">
      <!-- 400 -->
      <g transform="translate(370.56685 322.182437)scale(0.1 -0.1)">
       <defs>
        <path d="M 37.796875 64.3125 
L 12.890625 25.390625 
L 37.796875 25.390625 
z
M 35.203125 72.90625 
L 47.609375 72.90625 
L 47.609375 25.390625 
L 58.015625 25.390625 
L 58.015625 17.1875 
L 47.609375 17.1875 
L 47.609375 0 
L 37.796875 0 
L 37.796875 17.1875 
L 4.890625 17.1875 
L 4.890625 26.703125 
z
" id="DejaVuSans-52"/>
       </defs>
       <use xlink:href="#DejaVuSans-52"/>
       <use x="63.623047" xlink:href="#DejaVuSans-48"/>
       <use x="127.246094" xlink:href="#DejaVuSans-48"/>
      </g>
     </g>
    </g>
    <g id="text_6">
     <!-- Generations -->
     <g transform="translate(205.662344 335.860562)scale(0.1 -0.1)">
      <defs>
       <path d="M 59.515625 10.40625 
L 59.515625 29.984375 
L 43.40625 29.984375 
L 43.40625 38.09375 
L 69.28125 38.09375 
L 69.28125 6.78125 
Q 63.578125 2.734375 56.6875 0.65625 
Q 49.8125 -1.421875 42 -1.421875 
Q 24.90625 -1.421875 15.25 8.5625 
Q 5.609375 18.5625 5.609375 36.375 
Q 5.609375 54.25 15.25 64.234375 
Q 24.90625 74.21875 42 74.21875 
Q 49.125 74.21875 55.546875 72.453125 
Q 61.96875 70.703125 67.390625 67.28125 
L 67.390625 56.78125 
Q 61.921875 61.421875 55.765625 63.765625 
Q 49.609375 66.109375 42.828125 66.109375 
Q 29.4375 66.109375 22.71875 58.640625 
Q 16.015625 51.171875 16.015625 36.375 
Q 16.015625 21.625 22.71875 14.15625 
Q 29.4375 6.6875 42.828125 6.6875 
Q 48.046875 6.6875 52.140625 7.59375 
Q 56.25 8.5 59.515625 10.40625 
z
" id="DejaVuSans-71"/>
       <path d="M 56.203125 29.59375 
L 56.203125 25.203125 
L 14.890625 25.203125 
Q 15.484375 15.921875 20.484375 11.0625 
Q 25.484375 6.203125 34.421875 6.203125 
Q 39.59375 6.203125 44.453125 7.46875 
Q 49.3125 8.734375 54.109375 11.28125 
L 54.109375 2.78125 
Q 49.265625 0.734375 44.1875 -0.34375 
Q 39.109375 -1.421875 33.890625 -1.421875 
Q 20.796875 -1.421875 13.15625 6.1875 
Q 5.515625 13.8125 5.515625 26.8125 
Q 5.515625 40.234375 12.765625 48.109375 
Q 20.015625 56 32.328125 56 
Q 43.359375 56 49.78125 48.890625 
Q 56.203125 41.796875 56.203125 29.59375 
z
M 47.21875 32.234375 
Q 47.125 39.59375 43.09375 43.984375 
Q 39.0625 48.390625 32.421875 48.390625 
Q 24.90625 48.390625 20.390625 44.140625 
Q 15.875 39.890625 15.1875 32.171875 
z
" id="DejaVuSans-101"/>
       <path d="M 54.890625 33.015625 
L 54.890625 0 
L 45.90625 0 
L 45.90625 32.71875 
Q 45.90625 40.484375 42.875 44.328125 
Q 39.84375 48.1875 33.796875 48.1875 
Q 26.515625 48.1875 22.3125 43.546875 
Q 18.109375 38.921875 18.109375 30.90625 
L 18.109375 0 
L 9.078125 0 
L 9.078125 54.6875 
L 18.109375 54.6875 
L 18.109375 46.1875 
Q 21.34375 51.125 25.703125 53.5625 
Q 30.078125 56 35.796875 56 
Q 45.21875 56 50.046875 50.171875 
Q 54.890625 44.34375 54.890625 33.015625 
z
" id="DejaVuSans-110"/>
       <path d="M 41.109375 46.296875 
Q 39.59375 47.171875 37.8125 47.578125 
Q 36.03125 48 33.890625 48 
Q 26.265625 48 22.1875 43.046875 
Q 18.109375 38.09375 18.109375 28.8125 
L 18.109375 0 
L 9.078125 0 
L 9.078125 54.6875 
L 18.109375 54.6875 
L 18.109375 46.1875 
Q 20.953125 51.171875 25.484375 53.578125 
Q 30.03125 56 36.53125 56 
Q 37.453125 56 38.578125 55.875 
Q 39.703125 55.765625 41.0625 55.515625 
z
" id="DejaVuSans-114"/>
       <path d="M 34.28125 27.484375 
Q 23.390625 27.484375 19.1875 25 
Q 14.984375 22.515625 14.984375 16.5 
Q 14.984375 11.71875 18.140625 8.90625 
Q 21.296875 6.109375 26.703125 6.109375 
Q 34.1875 6.109375 38.703125 11.40625 
Q 43.21875 16.703125 43.21875 25.484375 
L 43.21875 27.484375 
z
M 52.203125 31.203125 
L 52.203125 0 
L 43.21875 0 
L 43.21875 8.296875 
Q 40.140625 3.328125 35.546875 0.953125 
Q 30.953125 -1.421875 24.3125 -1.421875 
Q 15.921875 -1.421875 10.953125 3.296875 
Q 6 8.015625 6 15.921875 
Q 6 25.140625 12.171875 29.828125 
Q 18.359375 34.515625 30.609375 34.515625 
L 43.21875 34.515625 
L 43.21875 35.40625 
Q 43.21875 41.609375 39.140625 45 
Q 35.0625 48.390625 27.6875 48.390625 
Q 23 48.390625 18.546875 47.265625 
Q 14.109375 46.140625 10.015625 43.890625 
L 10.015625 52.203125 
Q 14.9375 54.109375 19.578125 55.046875 
Q 24.21875 56 28.609375 56 
Q 40.484375 56 46.34375 49.84375 
Q 52.203125 43.703125 52.203125 31.203125 
z
" id="DejaVuSans-97"/>
       <path d="M 18.3125 70.21875 
L 18.3125 54.6875 
L 36.8125 54.6875 
L 36.8125 47.703125 
L 18.3125 47.703125 
L 18.3125 18.015625 
Q 18.3125 11.328125 20.140625 9.421875 
Q 21.96875 7.515625 27.59375 7.515625 
L 36.8125 7.515625 
L 36.8125 0 
L 27.59375 0 
Q 17.1875 0 13.234375 3.875 
Q 9.28125 7.765625 9.28125 18.015625 
L 9.28125 47.703125 
L 2.6875 47.703125 
L 2.6875 54.6875 
L 9.28125 54.6875 
L 9.28125 70.21875 
z
" id="DejaVuSans-116"/>
       <path d="M 9.421875 54.6875 
L 18.40625 54.6875 
L 18.40625 0 
L 9.421875 0 
z
M 9.421875 75.984375 
L 18.40625 75.984375 
L 18.40625 64.59375 
L 9.421875 64.59375 
z
" id="DejaVuSans-105"/>
       <path d="M 30.609375 48.390625 
Q 23.390625 48.390625 19.1875 42.75 
Q 14.984375 37.109375 14.984375 27.296875 
Q 14.984375 17.484375 19.15625 11.84375 
Q 23.34375 6.203125 30.609375 6.203125 
Q 37.796875 6.203125 41.984375 11.859375 
Q 46.1875 17.53125 46.1875 27.296875 
Q 46.1875 37.015625 41.984375 42.703125 
Q 37.796875 48.390625 30.609375 48.390625 
z
M 30.609375 56 
Q 42.328125 56 49.015625 48.375 
Q 55.71875 40.765625 55.71875 27.296875 
Q 55.71875 13.875 49.015625 6.21875 
Q 42.328125 -1.421875 30.609375 -1.421875 
Q 18.84375 -1.421875 12.171875 6.21875 
Q 5.515625 13.875 5.515625 27.296875 
Q 5.515625 40.765625 12.171875 48.375 
Q 18.84375 56 30.609375 56 
z
" id="DejaVuSans-111"/>
       <path d="M 44.28125 53.078125 
L 44.28125 44.578125 
Q 40.484375 46.53125 36.375 47.5 
Q 32.28125 48.484375 27.875 48.484375 
Q 21.1875 48.484375 17.84375 46.4375 
Q 14.5 44.390625 14.5 40.28125 
Q 14.5 37.15625 16.890625 35.375 
Q 19.28125 33.59375 26.515625 31.984375 
L 29.59375 31.296875 
Q 39.15625 29.25 43.1875 25.515625 
Q 47.21875 21.78125 47.21875 15.09375 
Q 47.21875 7.46875 41.1875 3.015625 
Q 35.15625 -1.421875 24.609375 -1.421875 
Q 20.21875 -1.421875 15.453125 -0.5625 
Q 10.6875 0.296875 5.421875 2 
L 5.421875 11.28125 
Q 10.40625 8.6875 15.234375 7.390625 
Q 20.0625 6.109375 24.8125 6.109375 
Q 31.15625 6.109375 34.5625 8.28125 
Q 37.984375 10.453125 37.984375 14.40625 
Q 37.984375 18.0625 35.515625 20.015625 
Q 33.0625 21.96875 24.703125 23.78125 
L 21.578125 24.515625 
Q 13.234375 26.265625 9.515625 29.90625 
Q 5.8125 33.546875 5.8125 39.890625 
Q 5.8125 47.609375 11.28125 51.796875 
Q 16.75 56 26.8125 56 
Q 31.78125 56 36.171875 55.265625 
Q 40.578125 54.546875 44.28125 53.078125 
z
" id="DejaVuSans-115"/>
      </defs>
      <use xlink:href="#DejaVuSans-71"/>
      <use x="77.490234" xlink:href="#DejaVuSans-101"/>
      <use x="139.013672" xlink:href="#DejaVuSans-110"/>
      <use x="202.392578" xlink:href="#DejaVuSans-101"/>
      <use x="263.916016" xlink:href="#DejaVuSans-114"/>
      <use x="305.029297" xlink:href="#DejaVuSans-97"/>
      <use x="366.308594" xlink:href="#DejaVuSans-116"/>
      <use x="405.517578" xlink:href="#DejaVuSans-105"/>
      <use x="433.300781" xlink:href="#DejaVuSans-111"/>
      <use x="494.482422" xlink:href="#DejaVuSans-110"/>
      <use x="557.861328" xlink:href="#DejaVuSans-115"/>
     </g>
    </g>
   </g>
   <g id="matplotlib.axis_2">
    <g id="ytick_1">
     <g id="line2d_11">
      <path clip-path="url(#pf1b2b4d105)" d="M 57.6 210.337983 
L 414.72 210.337983 
" style="fill:none;stroke:#b0b0b0;stroke-linecap:square;stroke-width:0.8;"/>
     </g>
     <g id="line2d_12">
      <defs>
       <path d="M 0 0 
L -3.5 0 
" id="ma784fc71fb" style="stroke:#000000;stroke-width:0.8;"/>
      </defs>
      <g>
       <use style="stroke:#000000;stroke-width:0.8;" x="57.6" xlink:href="#ma784fc71fb" y="210.337983"/>
      </g>
     </g>
     <g id="text_7">
      <!-- $\mathdefault{-10^{4}}$ -->
      <g transform="translate(24.6 214.137202)scale(0.1 -0.1)">
       <defs>
        <path d="M 10.59375 35.5 
L 73.1875 35.5 
L 73.1875 27.203125 
L 10.59375 27.203125 
z
" id="DejaVuSans-8722"/>
       </defs>
       <use transform="translate(0 0.684375)" xlink:href="#DejaVuSans-8722"/>
       <use transform="translate(83.789062 0.684375)" xlink:href="#DejaVuSans-49"/>
       <use transform="translate(147.412109 0.684375)" xlink:href="#DejaVuSans-48"/>
       <use transform="translate(211.992188 38.965625)scale(0.7)" xlink:href="#DejaVuSans-52"/>
      </g>
     </g>
    </g>
    <g id="text_8">
     <!-- Fitness -->
     <g transform="translate(18.520312 191.845187)rotate(-90)scale(0.1 -0.1)">
      <defs>
       <path d="M 9.8125 72.90625 
L 51.703125 72.90625 
L 51.703125 64.59375 
L 19.671875 64.59375 
L 19.671875 43.109375 
L 48.578125 43.109375 
L 48.578125 34.8125 
L 19.671875 34.8125 
L 19.671875 0 
L 9.8125 0 
z
" id="DejaVuSans-70"/>
      </defs>
      <use xlink:href="#DejaVuSans-70"/>
      <use x="50.269531" xlink:href="#DejaVuSans-105"/>
      <use x="78.052734" xlink:href="#DejaVuSans-116"/>
      <use x="117.261719" xlink:href="#DejaVuSans-110"/>
      <use x="180.640625" xlink:href="#DejaVuSans-101"/>
      <use x="242.164062" xlink:href="#DejaVuSans-115"/>
      <use x="294.263672" xlink:href="#DejaVuSans-115"/>
     </g>
    </g>
   </g>
   <g id="line2d_13">
    <path clip-path="url(#pf1b2b4d105)" d="M 73.832727 295.488 
L 74.598422 260.619798 
L 75.364117 240.60515 
L 76.129811 236.870078 
L 76.895506 225.198913 
L 77.661201 225.642479 
L 78.426895 214.157622 
L 79.19259 211.900064 
L 79.958285 212.265682 
L 80.723979 211.427974 
L 81.489674 212.684463 
L 82.255369 207.759536 
L 83.786758 194.140623 
L 84.552453 194.463979 
L 85.318148 201.214779 
L 86.083842 206.111176 
L 86.849537 203.123706 
L 87.615232 206.966026 
L 88.380926 206.804878 
L 89.146621 204.768441 
L 89.912316 198.388811 
L 90.67801 200.369074 
L 91.443705 204.055841 
L 92.2094 205.74006 
L 92.975094 200.473754 
L 93.740789 196.426114 
L 94.506484 201.662616 
L 95.272178 197.748978 
L 96.037873 198.632689 
L 96.803568 194.46895 
L 97.569262 195.819403 
L 98.334957 197.977247 
L 99.100652 193.2281 
L 99.866346 193.275743 
L 100.632041 196.426822 
L 101.397736 200.36507 
L 102.163431 201.106574 
L 102.929125 185.811636 
L 103.69482 192.923606 
L 105.226209 211.101533 
L 105.991904 195.6237 
L 106.757599 192.802298 
L 107.523293 188.985208 
L 108.288988 182.345414 
L 109.054683 191.233544 
L 109.820377 204.545398 
L 110.586072 183.775364 
L 111.351767 187.471167 
L 112.117461 188.397034 
L 112.883156 186.462626 
L 113.648851 206.265823 
L 114.414545 196.135831 
L 115.18024 191.156974 
L 115.945935 182.848651 
L 116.71163 191.713455 
L 117.477324 202.090232 
L 118.243019 190.706025 
L 119.008714 200.847579 
L 119.774408 197.844978 
L 120.540103 199.92297 
L 121.305798 192.613267 
L 122.071492 200.602939 
L 122.837187 196.126431 
L 123.602882 194.780113 
L 124.368576 198.252394 
L 125.134271 185.880185 
L 125.899966 183.432646 
L 126.66566 186.380888 
L 127.431355 196.871962 
L 128.19705 201.536774 
L 128.962744 196.452581 
L 129.728439 185.956925 
L 130.494134 179.406357 
L 131.259828 194.564621 
L 132.025523 173.170346 
L 132.791218 179.076942 
L 133.556913 164.916482 
L 134.322607 185.022424 
L 135.088302 182.008241 
L 135.853997 172.358134 
L 136.619691 176.395268 
L 137.385386 181.041948 
L 138.916775 194.610207 
L 139.68247 197.137949 
L 140.448165 183.560928 
L 141.213859 195.789039 
L 141.979554 185.549281 
L 142.745249 177.320274 
L 143.510943 195.878776 
L 145.042333 185.39766 
L 145.808027 189.813648 
L 146.573722 180.636716 
L 147.339417 203.767318 
L 148.105111 201.490847 
L 148.870806 199.860747 
L 149.636501 193.8252 
L 150.402196 196.170807 
L 151.16789 196.349801 
L 151.933585 194.61614 
L 152.69928 176.77085 
L 153.464974 202.593381 
L 154.230669 194.961134 
L 154.996364 205.967543 
L 155.762058 205.859739 
L 156.527753 199.687721 
L 157.293448 185.271707 
L 158.059142 186.088717 
L 158.824837 194.238434 
L 159.590532 197.702048 
L 160.356226 186.154597 
L 161.121921 197.480319 
L 161.887616 179.556981 
L 162.65331 193.151748 
L 163.419005 191.848569 
L 164.1847 205.279935 
L 164.950395 204.685166 
L 165.716089 185.294941 
L 166.481784 188.217032 
L 167.247479 201.606636 
L 168.013173 204.561284 
L 168.778868 194.737441 
L 169.544563 192.771034 
L 170.310257 195.173322 
L 171.075952 201.29275 
L 171.841647 204.384916 
L 172.607341 198.158668 
L 173.373036 202.370633 
L 174.138731 201.275961 
L 174.904425 199.58 
L 175.67012 177.375647 
L 176.435815 202.417285 
L 177.201509 197.974471 
L 177.967204 188.916966 
L 178.732899 171.099147 
L 179.498593 183.303156 
L 180.264288 197.390424 
L 181.029983 192.77939 
L 181.795678 193.558058 
L 182.561372 199.332675 
L 183.327067 198.878555 
L 184.092762 190.065163 
L 184.858456 200.481271 
L 185.624151 196.623268 
L 186.389846 197.530109 
L 187.15554 197.507646 
L 187.921235 181.32609 
L 188.68693 182.448731 
L 189.452624 186.218246 
L 190.218319 191.943628 
L 190.984014 183.56963 
L 191.749708 187.259752 
L 192.515403 191.727842 
L 193.281098 187.201075 
L 194.046792 184.21079 
L 194.812487 191.833321 
L 195.578182 189.9082 
L 196.343877 202.389263 
L 197.109571 197.225322 
L 197.875266 197.865755 
L 198.640961 199.463453 
L 199.406655 194.911449 
L 200.17235 195.396886 
L 200.938045 200.253763 
L 201.703739 203.508296 
L 202.469434 203.885323 
L 203.235129 210.792196 
L 204.000823 206.401149 
L 204.766518 200.836726 
L 205.532213 196.645656 
L 206.297907 190.286421 
L 207.063602 198.430053 
L 207.829297 194.237268 
L 208.594991 205.516433 
L 209.360686 206.470097 
L 210.126381 201.121492 
L 211.65777 205.988889 
L 212.423465 205.617259 
L 213.18916 204.565257 
L 213.954854 202.912956 
L 214.720549 200.52172 
L 215.486244 200.670147 
L 216.251938 197.82591 
L 217.017633 210.564486 
L 217.783328 208.481175 
L 218.549022 214.540448 
L 219.314717 207.968376 
L 220.080412 207.91647 
L 220.846106 213.229107 
L 221.611801 203.148381 
L 222.377496 203.990859 
L 223.14319 201.446174 
L 223.908885 213.003854 
L 224.67458 213.812752 
L 225.440274 198.69035 
L 226.205969 202.722627 
L 226.971664 209.584116 
L 227.737358 206.017729 
L 228.503053 200.074323 
L 229.268748 223.026795 
L 230.034443 213.641143 
L 230.800137 208.970878 
L 231.565832 219.51088 
L 232.331527 217.235231 
L 233.097221 212.815275 
L 233.862916 212.881045 
L 234.628611 215.936448 
L 235.394305 214.252126 
L 236.16 226.864683 
L 236.925695 227.593773 
L 237.691389 220.857607 
L 238.457084 216.129008 
L 239.222779 216.597861 
L 239.988473 203.941215 
L 240.754168 217.636874 
L 241.519863 208.503465 
L 242.285557 208.504567 
L 243.051252 214.70477 
L 243.816947 215.701341 
L 244.582642 214.574879 
L 245.348336 208.411781 
L 246.114031 212.427637 
L 246.879726 213.389626 
L 247.64542 210.353573 
L 248.411115 203.078051 
L 249.17681 193.924156 
L 249.942504 200.892107 
L 250.708199 203.575162 
L 251.473894 203.51967 
L 252.239588 209.045571 
L 253.005283 206.840119 
L 253.770978 201.477811 
L 254.536672 208.185603 
L 255.302367 192.356003 
L 256.068062 212.759576 
L 256.833756 195.193154 
L 257.599451 204.841831 
L 258.365146 199.971295 
L 259.13084 197.043322 
L 259.896535 201.515619 
L 260.66223 190.849325 
L 261.427925 192.386674 
L 262.193619 208.502245 
L 262.959314 204.741696 
L 263.725009 203.224109 
L 264.490703 207.448741 
L 265.256398 207.996879 
L 266.022093 208.053452 
L 266.787787 216.464282 
L 267.553482 210.637553 
L 268.319177 213.600944 
L 269.084871 209.955975 
L 269.850566 209.334599 
L 270.616261 218.964471 
L 271.381955 211.671196 
L 272.14765 210.849576 
L 272.913345 214.105328 
L 273.679039 206.529812 
L 274.444734 196.594917 
L 275.210429 204.434178 
L 275.976123 199.586043 
L 276.741818 210.604108 
L 277.507513 201.322781 
L 278.273208 209.816568 
L 279.038902 203.787587 
L 279.804597 195.08763 
L 280.570292 201.761492 
L 281.335986 210.273943 
L 282.101681 195.652092 
L 282.867376 198.407589 
L 283.63307 209.742603 
L 284.398765 199.463828 
L 285.16446 195.377799 
L 285.930154 206.325655 
L 286.695849 208.153687 
L 287.461544 202.035585 
L 288.227238 211.739919 
L 288.992933 201.512044 
L 289.758628 203.112162 
L 290.524322 202.97518 
L 291.290017 210.265695 
L 292.055712 203.133884 
L 292.821407 202.196674 
L 293.587101 196.242243 
L 294.352796 205.64098 
L 295.118491 184.252834 
L 295.884185 189.536849 
L 296.64988 188.882261 
L 297.415575 190.162728 
L 298.181269 192.03191 
L 298.946964 184.162467 
L 299.712659 201.932099 
L 300.478353 196.663217 
L 301.244048 196.866085 
L 302.009743 193.009289 
L 302.775437 194.467167 
L 303.541132 200.21242 
L 304.306827 196.279524 
L 305.838216 206.375231 
L 306.603911 199.873187 
L 307.369605 204.638759 
L 308.1353 205.431285 
L 308.900995 191.521621 
L 310.432384 198.048892 
L 311.198079 205.063399 
L 311.963774 202.08876 
L 312.729468 198.188423 
L 313.495163 197.530145 
L 314.260858 195.533853 
L 315.026552 195.185373 
L 315.792247 202.982899 
L 316.557942 183.284604 
L 317.323636 204.004204 
L 318.089331 195.941669 
L 318.855026 202.278169 
L 320.386415 191.004649 
L 321.15211 205.005099 
L 321.917804 211.351058 
L 322.683499 188.146832 
L 323.449194 190.278041 
L 324.214889 198.924857 
L 324.980583 201.153517 
L 325.746278 208.142859 
L 326.511973 200.249463 
L 327.277667 189.058757 
L 328.043362 192.30012 
L 328.809057 205.423211 
L 329.574751 208.263807 
L 330.340446 204.152961 
L 331.106141 198.481285 
L 331.871835 202.345121 
L 332.63753 213.5443 
L 333.403225 201.665506 
L 334.168919 194.591972 
L 334.934614 195.776221 
L 335.700309 204.679676 
L 336.466003 198.585869 
L 337.231698 204.171968 
L 337.997393 203.486778 
L 338.763087 205.804743 
L 339.528782 219.319627 
L 340.294477 210.632406 
L 341.060172 204.722969 
L 341.825866 201.637082 
L 342.591561 209.822602 
L 343.357256 198.30508 
L 344.12295 204.080931 
L 344.888645 195.027309 
L 345.65434 190.377523 
L 346.420034 190.010486 
L 347.185729 181.662889 
L 347.951424 190.493452 
L 348.717118 186.351993 
L 349.482813 188.694134 
L 350.248508 194.843017 
L 351.014202 190.551162 
L 351.779897 195.169495 
L 352.545592 196.372829 
L 353.311286 202.611222 
L 354.076981 207.216119 
L 354.842676 198.786153 
L 355.60837 192.803893 
L 356.374065 190.562589 
L 357.13976 201.547431 
L 357.905455 187.087484 
L 358.671149 192.80413 
L 359.436844 205.320768 
L 360.202539 188.396421 
L 360.968233 167.216088 
L 361.733928 170.202197 
L 362.499623 188.890902 
L 363.265317 175.417361 
L 364.031012 173.958953 
L 364.796707 178.928443 
L 365.562401 179.616038 
L 366.328096 180.075541 
L 367.093791 179.337615 
L 367.859485 192.095674 
L 368.62518 173.92109 
L 369.390875 183.095388 
L 370.156569 184.145715 
L 370.922264 189.561096 
L 371.687959 193.991634 
L 372.453654 189.605517 
L 373.219348 193.218173 
L 373.985043 176.708874 
L 374.750738 180.132526 
L 376.282127 203.662293 
L 377.047822 204.317789 
L 377.813516 197.495751 
L 378.579211 199.089208 
L 379.344906 197.708676 
L 380.1106 198.177303 
L 380.876295 206.234595 
L 381.64199 208.834668 
L 382.407684 206.689305 
L 383.173379 200.08852 
L 383.939074 210.279682 
L 384.704768 203.662776 
L 385.470463 208.310627 
L 386.236158 214.573254 
L 387.001852 211.699835 
L 387.767547 216.013837 
L 388.533242 205.28547 
L 389.298937 214.081969 
L 390.064631 212.444093 
L 390.830326 208.530654 
L 391.596021 202.186681 
L 392.361715 211.166025 
L 393.893105 210.141327 
L 394.658799 198.503343 
L 395.424494 211.430516 
L 396.955883 209.918699 
L 397.721578 199.81952 
L 398.487273 208.38797 
L 398.487273 208.38797 
" style="fill:none;stroke:#0000ff;stroke-linecap:square;stroke-width:1.5;"/>
   </g>
   <g id="line2d_14">
    <path clip-path="url(#pf1b2b4d105)" d="M 73.832727 248.657225 
L 74.598422 218.418179 
L 75.364117 203.96798 
L 76.129811 200.087786 
L 76.895506 191.771142 
L 77.661201 188.802307 
L 78.426895 162.357806 
L 79.19259 155.538086 
L 79.958285 144.197832 
L 80.723979 159.288736 
L 81.489674 163.497602 
L 82.255369 147.363442 
L 83.021063 134.740094 
L 83.786758 143.30776 
L 84.552453 140.523977 
L 85.318148 81.493824 
L 86.083842 153.944137 
L 86.849537 114.333632 
L 87.615232 148.287031 
L 88.380926 136.306805 
L 89.912316 77.918725 
L 90.67801 128.51098 
L 91.443705 123.582048 
L 92.2094 114.534298 
L 92.975094 147.07215 
L 93.740789 85.214103 
L 94.506484 140.172569 
L 96.803568 111.555369 
L 97.569262 130.903931 
L 98.334957 135.957931 
L 99.100652 131.387965 
L 99.866346 119.521494 
L 100.632041 140.064761 
L 101.397736 135.66591 
L 102.163431 134.800679 
L 102.929125 135.183277 
L 103.69482 127.16883 
L 104.460515 143.392482 
L 105.226209 150.201318 
L 105.991904 142.895148 
L 106.757599 133.048894 
L 107.523293 113.613308 
L 108.288988 114.14397 
L 109.054683 109.968829 
L 109.820377 147.152709 
L 110.586072 120.101987 
L 111.351767 138.469662 
L 112.117461 130.761987 
L 112.883156 112.169008 
L 113.648851 138.318923 
L 114.414545 107.268697 
L 115.18024 112.826632 
L 115.945935 120.704993 
L 116.71163 111.083186 
L 117.477324 142.435052 
L 118.243019 116.555177 
L 119.008714 150.080002 
L 119.774408 133.057242 
L 120.540103 151.587542 
L 121.305798 136.481227 
L 122.071492 136.755019 
L 122.837187 139.807489 
L 123.602882 128.08673 
L 124.368576 110.177885 
L 125.134271 79.856698 
L 125.899966 102.776771 
L 126.66566 111.398789 
L 128.19705 122.7387 
L 128.962744 139.286007 
L 129.728439 110.460556 
L 130.494134 96.869723 
L 131.259828 124.712718 
L 132.025523 112.75825 
L 132.791218 115.110827 
L 133.556913 104.005368 
L 134.322607 90.336314 
L 135.088302 79.938969 
L 135.853997 103.949519 
L 136.619691 114.58408 
L 137.385386 94.034622 
L 138.151081 78.113332 
L 138.916775 129.301773 
L 139.68247 115.1076 
L 140.448165 91.369247 
L 141.213859 115.994934 
L 141.979554 100.460166 
L 142.745249 97.425529 
L 143.510943 120.975143 
L 144.276638 83.752833 
L 145.042333 103.127983 
L 146.573722 125.804813 
L 147.339417 143.644282 
L 148.105111 114.587582 
L 148.870806 143.346733 
L 149.636501 111.232481 
L 150.402196 141.93373 
L 151.16789 111.750833 
L 151.933585 119.340197 
L 152.69928 103.334003 
L 153.464974 140.056793 
L 154.230669 127.125293 
L 154.996364 146.688344 
L 155.762058 125.946398 
L 156.527753 133.816698 
L 157.293448 122.271195 
L 158.059142 122.027547 
L 158.824837 123.684401 
L 159.590532 145.84007 
L 160.356226 113.817067 
L 161.121921 124.915257 
L 161.887616 116.412748 
L 163.419005 138.458344 
L 164.1847 144.876199 
L 164.950395 149.751795 
L 165.716089 122.730606 
L 166.481784 116.162419 
L 167.247479 142.425624 
L 168.013173 134.321728 
L 168.778868 101.654088 
L 169.544563 130.965849 
L 170.310257 122.963612 
L 171.075952 138.600874 
L 171.841647 129.692751 
L 172.607341 141.69578 
L 173.373036 122.775984 
L 174.138731 111.020281 
L 174.904425 123.117725 
L 175.67012 123.403452 
L 176.435815 122.752429 
L 177.201509 146.245402 
L 177.967204 125.279451 
L 178.732899 109.950206 
L 179.498593 127.014784 
L 180.264288 123.230836 
L 181.029983 142.822705 
L 181.795678 125.982061 
L 182.561372 142.7566 
L 183.327067 142.896895 
L 184.092762 106.726302 
L 184.858456 133.351099 
L 185.624151 121.022242 
L 186.389846 121.709114 
L 187.15554 120.398637 
L 187.921235 101.15764 
L 188.68693 115.154523 
L 189.452624 120.006443 
L 190.218319 123.736878 
L 190.984014 105.333688 
L 191.749708 124.284354 
L 192.515403 133.680955 
L 193.281098 123.237777 
L 194.046792 134.002239 
L 194.812487 122.677262 
L 195.578182 125.789496 
L 197.109571 143.475721 
L 197.875266 142.862804 
L 198.640961 140.381037 
L 199.406655 136.46751 
L 200.17235 137.903466 
L 200.938045 145.023325 
L 201.703739 140.026244 
L 202.469434 143.302436 
L 203.235129 153.907806 
L 204.000823 122.502136 
L 204.766518 127.909006 
L 205.532213 135.895215 
L 206.297907 138.869257 
L 207.063602 138.392526 
L 207.829297 153.74868 
L 208.594991 157.895779 
L 209.360686 122.52056 
L 210.126381 134.455888 
L 210.892075 108.100748 
L 211.65777 132.983815 
L 212.423465 151.321581 
L 213.18916 129.549318 
L 213.954854 125.127034 
L 214.720549 131.490726 
L 215.486244 148.519553 
L 216.251938 130.165458 
L 217.017633 146.765305 
L 217.783328 154.509528 
L 218.549022 143.978491 
L 219.314717 137.214562 
L 220.080412 148.76452 
L 220.846106 133.313113 
L 221.611801 133.84579 
L 222.377496 136.15463 
L 223.14319 155.625105 
L 223.908885 137.120433 
L 224.67458 143.935399 
L 225.440274 131.567997 
L 226.205969 146.012577 
L 226.971664 135.951184 
L 227.737358 155.397215 
L 228.503053 128.0704 
L 229.268748 149.606426 
L 230.034443 150.888096 
L 230.800137 155.343089 
L 231.565832 163.165396 
L 232.331527 158.910772 
L 233.097221 160.390279 
L 233.862916 170.123346 
L 234.628611 153.791289 
L 235.394305 148.059746 
L 236.16 161.362346 
L 236.925695 167.61128 
L 237.691389 164.908788 
L 238.457084 160.982957 
L 239.222779 162.999828 
L 239.988473 156.58917 
L 240.754168 154.529922 
L 241.519863 136.774255 
L 242.285557 151.223211 
L 243.051252 136.676154 
L 243.816947 149.358733 
L 244.582642 144.076103 
L 245.348336 149.454508 
L 246.114031 157.764108 
L 246.879726 153.699463 
L 247.64542 135.757674 
L 248.411115 134.223283 
L 249.17681 139.750254 
L 249.942504 123.740128 
L 250.708199 136.580421 
L 251.473894 134.75672 
L 252.239588 147.652169 
L 253.005283 143.975486 
L 253.770978 131.987095 
L 254.536672 135.710382 
L 255.302367 143.002694 
L 256.068062 152.212229 
L 256.833756 136.716586 
L 257.599451 149.171503 
L 258.365146 124.874597 
L 259.13084 133.956432 
L 259.896535 137.988094 
L 260.66223 120.845416 
L 261.427925 137.949965 
L 262.193619 138.076209 
L 262.959314 128.317286 
L 263.725009 116.50953 
L 264.490703 145.848175 
L 265.256398 131.113268 
L 266.022093 153.019569 
L 266.787787 159.341804 
L 267.553482 149.614483 
L 268.319177 142.09898 
L 269.850566 162.641889 
L 270.616261 168.172959 
L 271.381955 163.812778 
L 272.14765 141.44495 
L 272.913345 150.547344 
L 273.679039 144.481467 
L 274.444734 146.790916 
L 275.210429 134.002006 
L 275.976123 126.284894 
L 276.741818 145.916028 
L 277.507513 128.269027 
L 278.273208 152.177496 
L 279.038902 133.207141 
L 279.804597 107.616578 
L 281.335986 150.019141 
L 282.101681 123.145081 
L 282.867376 136.078365 
L 283.63307 142.326776 
L 284.398765 131.125923 
L 285.16446 96.259338 
L 285.930154 129.525318 
L 286.695849 118.406023 
L 287.461544 131.017753 
L 288.227238 132.71452 
L 288.992933 104.229298 
L 289.758628 115.345865 
L 290.524322 113.176534 
L 291.290017 124.201894 
L 292.055712 116.971322 
L 292.821407 119.050728 
L 293.587101 128.843357 
L 295.118491 120.145732 
L 295.884185 118.376621 
L 296.64988 97.164242 
L 297.415575 106.765794 
L 298.181269 98.959108 
L 298.946964 111.289098 
L 299.712659 115.534158 
L 300.478353 71.213879 
L 301.244048 128.267547 
L 302.009743 103.764757 
L 302.775437 136.331932 
L 303.541132 124.422684 
L 304.306827 122.645311 
L 305.072521 77.783364 
L 305.838216 92.241684 
L 306.603911 119.150849 
L 307.369605 116.073186 
L 308.1353 129.817239 
L 308.900995 134.235972 
L 309.66669 111.933209 
L 310.432384 115.85884 
L 311.198079 110.943569 
L 311.963774 141.631178 
L 312.729468 113.098392 
L 313.495163 111.040676 
L 314.260858 101.663995 
L 315.026552 108.399413 
L 315.792247 119.505198 
L 316.557942 105.846483 
L 317.323636 123.84023 
L 318.089331 133.281501 
L 318.855026 128.896911 
L 319.62072 120.68713 
L 320.386415 131.545888 
L 321.15211 122.45635 
L 321.917804 117.834095 
L 322.683499 79.061383 
L 323.449194 101.276819 
L 324.214889 101.692052 
L 324.980583 119.379368 
L 325.746278 120.450343 
L 326.511973 112.502684 
L 327.277667 120.82629 
L 328.043362 109.926006 
L 328.809057 133.689791 
L 329.574751 124.8389 
L 330.340446 124.292845 
L 331.106141 105.543229 
L 331.871835 115.443276 
L 332.63753 136.880258 
L 333.403225 97.94503 
L 334.168919 108.873043 
L 334.934614 104.746477 
L 335.700309 114.177514 
L 337.231698 106.179394 
L 337.997393 139.316221 
L 338.763087 132.729262 
L 339.528782 127.816519 
L 340.294477 132.025455 
L 341.060172 124.01704 
L 342.591561 134.002416 
L 343.357256 125.668263 
L 344.12295 120.634019 
L 344.888645 128.164937 
L 345.65434 116.779229 
L 346.420034 95.146497 
L 347.185729 95.51443 
L 347.951424 105.168959 
L 348.717118 81.965417 
L 349.482813 109.793811 
L 350.248508 106.579878 
L 351.014202 106.197114 
L 351.779897 126.146537 
L 352.545592 113.434404 
L 353.311286 103.099346 
L 354.076981 118.582964 
L 354.842676 126.541269 
L 355.60837 100.95831 
L 356.374065 104.732531 
L 357.13976 121.416906 
L 357.905455 97.706877 
L 358.671149 112.523191 
L 359.436844 122.889707 
L 360.202539 98.237505 
L 360.968233 53.568 
L 361.733928 59.10883 
L 362.499623 106.753017 
L 363.265317 66.827549 
L 364.031012 75.284834 
L 364.796707 90.134248 
L 365.562401 96.257771 
L 366.328096 85.75525 
L 367.093791 81.961777 
L 367.859485 87.64077 
L 368.62518 77.547381 
L 369.390875 85.696708 
L 370.156569 103.45244 
L 370.922264 105.267739 
L 371.687959 121.346336 
L 372.453654 94.321369 
L 373.219348 100.440645 
L 373.985043 90.940822 
L 374.750738 91.193742 
L 376.282127 146.012597 
L 377.047822 123.702035 
L 377.813516 118.332621 
L 378.579211 111.285724 
L 379.344906 116.430909 
L 380.1106 142.417778 
L 380.876295 141.780277 
L 381.64199 138.258457 
L 383.173379 116.834096 
L 383.939074 131.165881 
L 384.704768 131.098103 
L 385.470463 151.813025 
L 386.236158 142.95228 
L 387.001852 140.949907 
L 387.767547 135.879765 
L 388.533242 147.924698 
L 389.298937 137.035901 
L 390.064631 133.64682 
L 390.830326 133.193991 
L 391.596021 105.882015 
L 392.361715 140.77105 
L 393.12741 125.749054 
L 393.893105 125.090204 
L 394.658799 98.552119 
L 395.424494 132.838712 
L 396.190189 135.810811 
L 396.955883 126.277261 
L 397.721578 133.586117 
L 398.487273 135.859118 
L 398.487273 135.859118 
" style="fill:none;stroke:#ff0000;stroke-linecap:square;stroke-width:1.5;"/>
   </g>
   <g id="patch_3">
    <path d="M 57.6 307.584 
L 57.6 41.472 
" style="fill:none;stroke:#000000;stroke-linecap:square;stroke-linejoin:miter;stroke-width:0.8;"/>
   </g>
   <g id="patch_4">
    <path d="M 414.72 307.584 
L 414.72 41.472 
" style="fill:none;stroke:#000000;stroke-linecap:square;stroke-linejoin:miter;stroke-width:0.8;"/>
   </g>
   <g id="patch_5">
    <path d="M 57.6 307.584 
L 414.72 307.584 
" style="fill:none;stroke:#000000;stroke-linecap:square;stroke-linejoin:miter;stroke-width:0.8;"/>
   </g>
   <g id="patch_6">
    <path d="M 57.6 41.472 
L 414.72 41.472 
" style="fill:none;stroke:#000000;stroke-linecap:square;stroke-linejoin:miter;stroke-width:0.8;"/>
   </g>
   <g id="text_9">
    <!-- Population's average and best fitness -->
    <g transform="translate(123.529687 35.472)scale(0.12 -0.12)">
     <defs>
      <path d="M 19.671875 64.796875 
L 19.671875 37.40625 
L 32.078125 37.40625 
Q 38.96875 37.40625 42.71875 40.96875 
Q 46.484375 44.53125 46.484375 51.125 
Q 46.484375 57.671875 42.71875 61.234375 
Q 38.96875 64.796875 32.078125 64.796875 
z
M 9.8125 72.90625 
L 32.078125 72.90625 
Q 44.34375 72.90625 50.609375 67.359375 
Q 56.890625 61.8125 56.890625 51.125 
Q 56.890625 40.328125 50.609375 34.8125 
Q 44.34375 29.296875 32.078125 29.296875 
L 19.671875 29.296875 
L 19.671875 0 
L 9.8125 0 
z
" id="DejaVuSans-80"/>
      <path d="M 18.109375 8.203125 
L 18.109375 -20.796875 
L 9.078125 -20.796875 
L 9.078125 54.6875 
L 18.109375 54.6875 
L 18.109375 46.390625 
Q 20.953125 51.265625 25.265625 53.625 
Q 29.59375 56 35.59375 56 
Q 45.5625 56 51.78125 48.09375 
Q 58.015625 40.1875 58.015625 27.296875 
Q 58.015625 14.40625 51.78125 6.484375 
Q 45.5625 -1.421875 35.59375 -1.421875 
Q 29.59375 -1.421875 25.265625 0.953125 
Q 20.953125 3.328125 18.109375 8.203125 
z
M 48.6875 27.296875 
Q 48.6875 37.203125 44.609375 42.84375 
Q 40.53125 48.484375 33.40625 48.484375 
Q 26.265625 48.484375 22.1875 42.84375 
Q 18.109375 37.203125 18.109375 27.296875 
Q 18.109375 17.390625 22.1875 11.75 
Q 26.265625 6.109375 33.40625 6.109375 
Q 40.53125 6.109375 44.609375 11.75 
Q 48.6875 17.390625 48.6875 27.296875 
z
" id="DejaVuSans-112"/>
      <path d="M 8.5 21.578125 
L 8.5 54.6875 
L 17.484375 54.6875 
L 17.484375 21.921875 
Q 17.484375 14.15625 20.5 10.265625 
Q 23.53125 6.390625 29.59375 6.390625 
Q 36.859375 6.390625 41.078125 11.03125 
Q 45.3125 15.671875 45.3125 23.6875 
L 45.3125 54.6875 
L 54.296875 54.6875 
L 54.296875 0 
L 45.3125 0 
L 45.3125 8.40625 
Q 42.046875 3.421875 37.71875 1 
Q 33.40625 -1.421875 27.6875 -1.421875 
Q 18.265625 -1.421875 13.375 4.4375 
Q 8.5 10.296875 8.5 21.578125 
z
M 31.109375 56 
z
" id="DejaVuSans-117"/>
      <path d="M 9.421875 75.984375 
L 18.40625 75.984375 
L 18.40625 0 
L 9.421875 0 
z
" id="DejaVuSans-108"/>
      <path d="M 17.921875 72.90625 
L 17.921875 45.796875 
L 9.625 45.796875 
L 9.625 72.90625 
z
" id="DejaVuSans-39"/>
      <path id="DejaVuSans-32"/>
      <path d="M 2.984375 54.6875 
L 12.5 54.6875 
L 29.59375 8.796875 
L 46.6875 54.6875 
L 56.203125 54.6875 
L 35.6875 0 
L 23.484375 0 
z
" id="DejaVuSans-118"/>
      <path d="M 45.40625 27.984375 
Q 45.40625 37.75 41.375 43.109375 
Q 37.359375 48.484375 30.078125 48.484375 
Q 22.859375 48.484375 18.828125 43.109375 
Q 14.796875 37.75 14.796875 27.984375 
Q 14.796875 18.265625 18.828125 12.890625 
Q 22.859375 7.515625 30.078125 7.515625 
Q 37.359375 7.515625 41.375 12.890625 
Q 45.40625 18.265625 45.40625 27.984375 
z
M 54.390625 6.78125 
Q 54.390625 -7.171875 48.1875 -13.984375 
Q 42 -20.796875 29.203125 -20.796875 
Q 24.46875 -20.796875 20.265625 -20.09375 
Q 16.0625 -19.390625 12.109375 -17.921875 
L 12.109375 -9.1875 
Q 16.0625 -11.328125 19.921875 -12.34375 
Q 23.78125 -13.375 27.78125 -13.375 
Q 36.625 -13.375 41.015625 -8.765625 
Q 45.40625 -4.15625 45.40625 5.171875 
L 45.40625 9.625 
Q 42.625 4.78125 38.28125 2.390625 
Q 33.9375 0 27.875 0 
Q 17.828125 0 11.671875 7.65625 
Q 5.515625 15.328125 5.515625 27.984375 
Q 5.515625 40.671875 11.671875 48.328125 
Q 17.828125 56 27.875 56 
Q 33.9375 56 38.28125 53.609375 
Q 42.625 51.21875 45.40625 46.390625 
L 45.40625 54.6875 
L 54.390625 54.6875 
z
" id="DejaVuSans-103"/>
      <path d="M 45.40625 46.390625 
L 45.40625 75.984375 
L 54.390625 75.984375 
L 54.390625 0 
L 45.40625 0 
L 45.40625 8.203125 
Q 42.578125 3.328125 38.25 0.953125 
Q 33.9375 -1.421875 27.875 -1.421875 
Q 17.96875 -1.421875 11.734375 6.484375 
Q 5.515625 14.40625 5.515625 27.296875 
Q 5.515625 40.1875 11.734375 48.09375 
Q 17.96875 56 27.875 56 
Q 33.9375 56 38.25 53.625 
Q 42.578125 51.265625 45.40625 46.390625 
z
M 14.796875 27.296875 
Q 14.796875 17.390625 18.875 11.75 
Q 22.953125 6.109375 30.078125 6.109375 
Q 37.203125 6.109375 41.296875 11.75 
Q 45.40625 17.390625 45.40625 27.296875 
Q 45.40625 37.203125 41.296875 42.84375 
Q 37.203125 48.484375 30.078125 48.484375 
Q 22.953125 48.484375 18.875 42.84375 
Q 14.796875 37.203125 14.796875 27.296875 
z
" id="DejaVuSans-100"/>
      <path d="M 48.6875 27.296875 
Q 48.6875 37.203125 44.609375 42.84375 
Q 40.53125 48.484375 33.40625 48.484375 
Q 26.265625 48.484375 22.1875 42.84375 
Q 18.109375 37.203125 18.109375 27.296875 
Q 18.109375 17.390625 22.1875 11.75 
Q 26.265625 6.109375 33.40625 6.109375 
Q 40.53125 6.109375 44.609375 11.75 
Q 48.6875 17.390625 48.6875 27.296875 
z
M 18.109375 46.390625 
Q 20.953125 51.265625 25.265625 53.625 
Q 29.59375 56 35.59375 56 
Q 45.5625 56 51.78125 48.09375 
Q 58.015625 40.1875 58.015625 27.296875 
Q 58.015625 14.40625 51.78125 6.484375 
Q 45.5625 -1.421875 35.59375 -1.421875 
Q 29.59375 -1.421875 25.265625 0.953125 
Q 20.953125 3.328125 18.109375 8.203125 
L 18.109375 0 
L 9.078125 0 
L 9.078125 75.984375 
L 18.109375 75.984375 
z
" id="DejaVuSans-98"/>
      <path d="M 37.109375 75.984375 
L 37.109375 68.5 
L 28.515625 68.5 
Q 23.6875 68.5 21.796875 66.546875 
Q 19.921875 64.59375 19.921875 59.515625 
L 19.921875 54.6875 
L 34.71875 54.6875 
L 34.71875 47.703125 
L 19.921875 47.703125 
L 19.921875 0 
L 10.890625 0 
L 10.890625 47.703125 
L 2.296875 47.703125 
L 2.296875 54.6875 
L 10.890625 54.6875 
L 10.890625 58.5 
Q 10.890625 67.625 15.140625 71.796875 
Q 19.390625 75.984375 28.609375 75.984375 
z
" id="DejaVuSans-102"/>
     </defs>
     <use xlink:href="#DejaVuSans-80"/>
     <use x="56.677734" xlink:href="#DejaVuSans-111"/>
     <use x="117.859375" xlink:href="#DejaVuSans-112"/>
     <use x="181.335938" xlink:href="#DejaVuSans-117"/>
     <use x="244.714844" xlink:href="#DejaVuSans-108"/>
     <use x="272.498047" xlink:href="#DejaVuSans-97"/>
     <use x="333.777344" xlink:href="#DejaVuSans-116"/>
     <use x="372.986328" xlink:href="#DejaVuSans-105"/>
     <use x="400.769531" xlink:href="#DejaVuSans-111"/>
     <use x="461.951172" xlink:href="#DejaVuSans-110"/>
     <use x="525.330078" xlink:href="#DejaVuSans-39"/>
     <use x="552.820312" xlink:href="#DejaVuSans-115"/>
     <use x="604.919922" xlink:href="#DejaVuSans-32"/>
     <use x="636.707031" xlink:href="#DejaVuSans-97"/>
     <use x="697.986328" xlink:href="#DejaVuSans-118"/>
     <use x="757.166016" xlink:href="#DejaVuSans-101"/>
     <use x="818.689453" xlink:href="#DejaVuSans-114"/>
     <use x="859.802734" xlink:href="#DejaVuSans-97"/>
     <use x="921.082031" xlink:href="#DejaVuSans-103"/>
     <use x="984.558594" xlink:href="#DejaVuSans-101"/>
     <use x="1046.082031" xlink:href="#DejaVuSans-32"/>
     <use x="1077.869141" xlink:href="#DejaVuSans-97"/>
     <use x="1139.148438" xlink:href="#DejaVuSans-110"/>
     <use x="1202.527344" xlink:href="#DejaVuSans-100"/>
     <use x="1266.003906" xlink:href="#DejaVuSans-32"/>
     <use x="1297.791016" xlink:href="#DejaVuSans-98"/>
     <use x="1361.267578" xlink:href="#DejaVuSans-101"/>
     <use x="1422.791016" xlink:href="#DejaVuSans-115"/>
     <use x="1474.890625" xlink:href="#DejaVuSans-116"/>
     <use x="1514.099609" xlink:href="#DejaVuSans-32"/>
     <use x="1545.886719" xlink:href="#DejaVuSans-102"/>
     <use x="1581.091797" xlink:href="#DejaVuSans-105"/>
     <use x="1608.875" xlink:href="#DejaVuSans-116"/>
     <use x="1648.083984" xlink:href="#DejaVuSans-110"/>
     <use x="1711.462891" xlink:href="#DejaVuSans-101"/>
     <use x="1772.986328" xlink:href="#DejaVuSans-115"/>
     <use x="1825.085938" xlink:href="#DejaVuSans-115"/>
    </g>
   </g>
   <g id="legend_1">
    <g id="patch_7">
     <path d="M 334.779375 302.584 
L 407.72 302.584 
Q 409.72 302.584 409.72 300.584 
L 409.72 272.22775 
Q 409.72 270.22775 407.72 270.22775 
L 334.779375 270.22775 
Q 332.779375 270.22775 332.779375 272.22775 
L 332.779375 300.584 
Q 332.779375 302.584 334.779375 302.584 
z
" style="fill:#ffffff;opacity:0.8;stroke:#cccccc;stroke-linejoin:miter;"/>
    </g>
    <g id="line2d_15">
     <path d="M 336.779375 278.326187 
L 356.779375 278.326187 
" style="fill:none;stroke:#0000ff;stroke-linecap:square;stroke-width:1.5;"/>
    </g>
    <g id="line2d_16"/>
    <g id="text_10">
     <!-- average -->
     <g transform="translate(364.779375 281.826187)scale(0.1 -0.1)">
      <use xlink:href="#DejaVuSans-97"/>
      <use x="61.279297" xlink:href="#DejaVuSans-118"/>
      <use x="120.458984" xlink:href="#DejaVuSans-101"/>
      <use x="181.982422" xlink:href="#DejaVuSans-114"/>
      <use x="223.095703" xlink:href="#DejaVuSans-97"/>
      <use x="284.375" xlink:href="#DejaVuSans-103"/>
      <use x="347.851562" xlink:href="#DejaVuSans-101"/>
     </g>
    </g>
    <g id="line2d_17">
     <path d="M 336.779375 293.004312 
L 356.779375 293.004312 
" style="fill:none;stroke:#ff0000;stroke-linecap:square;stroke-width:1.5;"/>
    </g>
    <g id="line2d_18"/>
    <g id="text_11">
     <!-- best -->
     <g transform="translate(364.779375 296.504312)scale(0.1 -0.1)">
      <use xlink:href="#DejaVuSans-98"/>
      <use x="63.476562" xlink:href="#DejaVuSans-101"/>
      <use x="125" xlink:href="#DejaVuSans-115"/>
      <use x="177.099609" xlink:href="#DejaVuSans-116"/>
     </g>
    </g>
   </g>
  </g>
 </g>
 <defs>
  <clipPath id="pf1b2b4d105">
   <rect height="266.112" width="357.12" x="57.6" y="41.472"/>
  </clipPath>
 </defs>
</svg>
