<?xml version="1.0" encoding="UTF-8" standalone="no"?>
<!DOCTYPE svg PUBLIC "-//W3C//DTD SVG 1.1//EN"
 "http://www.w3.org/Graphics/SVG/1.1/DTD/svg11.dtd">
<!-- Generated by graphviz version 2.40.1 (20161225.0304)
 -->
<!-- Title: %3 Pages: 1 -->
<svg width="1080pt" height="487pt"
 viewBox="0.00 0.00 1079.61 487.43" xmlns="http://www.w3.org/2000/svg" xmlns:xlink="http://www.w3.org/1999/xlink">
<g id="graph0" class="graph" transform="scale(1 1) rotate(0) translate(4 483.4285)">
<title>%3</title>
<polygon fill="#ffffff" stroke="transparent" points="-4,4 -4,-483.4285 1075.6064,-483.4285 1075.6064,4 -4,4"/>
<!-- x&#45;vel -->
<g id="node1" class="node">
<title>x&#45;vel</title>
<polygon fill="#d3d3d3" stroke="#000000" points="837.1364,-479.4285 802.1364,-479.4285 802.1364,-461.4285 837.1364,-461.4285 837.1364,-479.4285"/>
<text text-anchor="middle" x="819.6364" y="-468.2285" font-family="Times,serif" font-size="9.00" fill="#000000">x&#45;vel</text>
</g>
<!-- left -->
<g id="node15" class="node">
<title>left</title>
<ellipse fill="#add8e6" stroke="#000000" cx="766.6364" cy="-222.6137" rx="19.6" ry="19.6"/>
<text text-anchor="middle" x="766.6364" y="-220.4137" font-family="Times,serif" font-size="9.00" fill="#000000">left</text>
</g>
<!-- x&#45;vel&#45;&gt;left -->
<g id="edge18" class="edge">
<title>x&#45;vel&#45;&gt;left</title>
<path fill="none" stroke="#ff0000" stroke-width=".1766" stroke-dasharray="1,5" d="M810.3433,-461.3847C802.288,-452.9151 791.0925,-439.4861 785.6364,-425.4285 763.0833,-367.3208 762.5788,-293.0905 764.4531,-252.4807"/>
<polygon fill="#ff0000" stroke="#ff0000" stroke-width=".1766" points="767.9512,-252.6098 764.9985,-242.4347 760.9615,-252.2303 767.9512,-252.6098"/>
</g>
<!-- 2086 -->
<g id="node19" class="node">
<title>2086</title>
<ellipse fill="#ffffff" stroke="#000000" cx="819.6364" cy="-400.6798" rx="25" ry="25"/>
<text text-anchor="middle" x="819.6364" y="-398.4798" font-family="Times,serif" font-size="9.00" fill="#000000">2086</text>
</g>
<!-- x&#45;vel&#45;&gt;2086 -->
<g id="edge40" class="edge">
<title>x&#45;vel&#45;&gt;2086</title>
<path fill="none" stroke="#ff0000" stroke-width=".1406" d="M819.6364,-461.3101C819.6364,-454.6934 819.6364,-445.2818 819.6364,-435.8422"/>
<polygon fill="#ff0000" stroke="#ff0000" stroke-width=".1406" points="823.1365,-435.719 819.6364,-425.719 816.1365,-435.7191 823.1365,-435.719"/>
</g>
<!-- 500 -->
<g id="node22" class="node">
<title>500</title>
<ellipse fill="#ffffff" stroke="#000000" cx="853.6364" cy="-315.1823" rx="21.4286" ry="21.4286"/>
<text text-anchor="middle" x="853.6364" y="-312.9823" font-family="Times,serif" font-size="9.00" fill="#000000">500</text>
</g>
<!-- x&#45;vel&#45;&gt;500 -->
<g id="edge46" class="edge">
<title>x&#45;vel&#45;&gt;500</title>
<path fill="none" stroke="#ff0000" stroke-width=".7767" d="M829.5685,-461.1692C837.8056,-452.7582 848.9048,-439.5398 853.6364,-425.4285 862.2511,-399.7363 861.3372,-368.7426 858.7994,-346.1693"/>
<polygon fill="#ff0000" stroke="#ff0000" stroke-width=".7767" points="862.2552,-345.6017 857.5028,-336.1325 855.3129,-346.4986 862.2552,-345.6017"/>
</g>
<!-- y&#45;vel -->
<g id="node2" class="node">
<title>y&#45;vel</title>
<polygon fill="#d3d3d3" stroke="#000000" points="196.1364,-409.6798 161.1364,-409.6798 161.1364,-391.6798 196.1364,-391.6798 196.1364,-409.6798"/>
<text text-anchor="middle" x="178.6364" y="-398.4798" font-family="Times,serif" font-size="9.00" fill="#000000">y&#45;vel</text>
</g>
<!-- none -->
<g id="node13" class="node">
<title>none</title>
<ellipse fill="#add8e6" stroke="#000000" cx="316.6364" cy="-222.6137" rx="24.0833" ry="24.0833"/>
<text text-anchor="middle" x="316.6364" y="-220.4137" font-family="Times,serif" font-size="9.00" fill="#000000">none</text>
</g>
<!-- y&#45;vel&#45;&gt;none -->
<g id="edge22" class="edge">
<title>y&#45;vel&#45;&gt;none</title>
<path fill="none" stroke="#00ff00" stroke-width=".3326" stroke-dasharray="1,5" d="M180.5644,-391.5351C185.1527,-371.4774 198.2794,-322.829 223.6364,-290.4335 240.6193,-268.7366 266.2869,-250.7376 286.3573,-238.7473"/>
<polygon fill="#00ff00" stroke="#00ff00" stroke-width=".3326" points="288.2309,-241.7069 295.1337,-233.6694 284.7252,-235.648 288.2309,-241.7069"/>
</g>
<!-- right -->
<g id="node14" class="node">
<title>right</title>
<ellipse fill="#add8e6" stroke="#000000" cx="483.6364" cy="-131.4594" rx="23.1702" ry="23.1702"/>
<text text-anchor="middle" x="483.6364" y="-129.2594" font-family="Times,serif" font-size="9.00" fill="#000000">right</text>
</g>
<!-- y&#45;vel&#45;&gt;right -->
<g id="edge28" class="edge">
<title>y&#45;vel&#45;&gt;right</title>
<path fill="none" stroke="#00ff00" stroke-width=".337" stroke-dasharray="1,5" d="M164.3077,-391.5521C149.4296,-381.132 127.0399,-362.5671 117.6364,-339.931 109.1968,-319.6154 106.7992,-309.5779 117.6364,-290.4335 186.2473,-169.2287 372.8209,-140.3493 449.7633,-133.5357"/>
<polygon fill="#00ff00" stroke="#00ff00" stroke-width=".337" points="450.1858,-137.0129 459.8689,-132.7134 449.618,-130.036 450.1858,-137.0129"/>
</g>
<!-- y&#45;vel&#45;&gt;left -->
<g id="edge8" class="edge">
<title>y&#45;vel&#45;&gt;left</title>
<path fill="none" stroke="#ff0000" stroke-width=".5576" d="M196.4393,-399.6921C264.5561,-395.6499 508.1029,-378.71 573.6364,-339.931 597.5048,-325.8071 588.8053,-306.1793 611.6364,-290.4335 657.474,-258.821 683.1674,-281.8417 731.6364,-254.4335 736.5509,-251.6545 741.3501,-248.0732 745.7414,-244.321"/>
<polygon fill="#ff0000" stroke="#ff0000" stroke-width=".5576" points="748.148,-246.8628 753.142,-237.5188 743.411,-241.709 748.148,-246.8628"/>
</g>
<!-- 2423 -->
<g id="node25" class="node">
<title>2423</title>
<ellipse fill="#ffffff" stroke="#000000" cx="151.6364" cy="-315.1823" rx="25" ry="25"/>
<text text-anchor="middle" x="151.6364" y="-312.9823" font-family="Times,serif" font-size="9.00" fill="#000000">2423</text>
</g>
<!-- y&#45;vel&#45;&gt;2423 -->
<g id="edge47" class="edge">
<title>y&#45;vel&#45;&gt;2423</title>
<path fill="none" stroke="#00ff00" stroke-width=".3512" stroke-dasharray="1,5" d="M175.7469,-391.53C172.533,-381.3528 167.1515,-364.3122 162.2872,-348.9089"/>
<polygon fill="#00ff00" stroke="#00ff00" stroke-width=".3512" points="165.5423,-347.5936 159.1933,-339.1118 158.8672,-349.7016 165.5423,-347.5936"/>
</g>
<!-- x&#45;pos -->
<g id="node3" class="node">
<title>x&#45;pos</title>
<polygon fill="#d3d3d3" stroke="#000000" points="966.6364,-324.1823 930.6364,-324.1823 930.6364,-306.1823 966.6364,-306.1823 966.6364,-324.1823"/>
<text text-anchor="middle" x="948.6364" y="-312.9823" font-family="Times,serif" font-size="9.00" fill="#000000">x&#45;pos</text>
</g>
<!-- x&#45;pos&#45;&gt;right -->
<g id="edge6" class="edge">
<title>x&#45;pos&#45;&gt;right</title>
<path fill="none" stroke="#00ff00" stroke-width=".5103" stroke-dasharray="1,5" d="M936.2091,-306.1142C929.3783,-301.2645 920.6806,-295.3058 912.6364,-290.4335 883.3868,-272.7178 870.7741,-276.4835 844.6364,-254.4335 817.3516,-231.4159 826.0449,-209.4914 795.6364,-190.7939 749.1738,-162.2252 588.1806,-142.3756 517.4319,-134.8314"/>
<polygon fill="#00ff00" stroke="#00ff00" stroke-width=".5103" points="517.5878,-131.3287 507.2774,-133.7673 516.8582,-138.2905 517.5878,-131.3287"/>
</g>
<!-- x&#45;pos&#45;&gt;left -->
<g id="edge19" class="edge">
<title>x&#45;pos&#45;&gt;left</title>
<path fill="none" stroke="#00ff00" stroke-width=".368" stroke-dasharray="1,5" d="M938.6022,-305.9492C932.5908,-300.8091 924.5908,-294.6219 916.6364,-290.4335 870.3718,-266.0734 850.4196,-279.6867 804.6364,-254.4335 799.1338,-251.3984 793.6782,-247.5054 788.6905,-243.491"/>
<polygon fill="#00ff00" stroke="#00ff00" stroke-width=".368" points="790.6865,-240.5925 780.8128,-236.7504 786.1355,-245.9112 790.6865,-240.5925"/>
</g>
<!-- forward -->
<g id="node16" class="node">
<title>forward</title>
<ellipse fill="#add8e6" stroke="#000000" cx="690.6364" cy="-222.6137" rx="31.6406" ry="31.6406"/>
<text text-anchor="middle" x="690.6364" y="-220.4137" font-family="Times,serif" font-size="9.00" fill="#000000">forward</text>
</g>
<!-- x&#45;pos&#45;&gt;forward -->
<g id="edge3" class="edge">
<title>x&#45;pos&#45;&gt;forward</title>
<path fill="none" stroke="#ff0000" stroke-width="1.0098" stroke-dasharray="1,5" d="M939.3217,-306.0984C933.3136,-300.7442 925.0693,-294.2846 916.6364,-290.4335 842.8207,-256.724 812.4798,-285.7951 737.6364,-254.4335 733.2115,-252.5794 728.7698,-250.2796 724.4776,-247.7707"/>
<polygon fill="#ff0000" stroke="#ff0000" stroke-width="1.0098" points="726.2605,-244.7575 715.9306,-242.403 722.5376,-250.6854 726.2605,-244.7575"/>
</g>
<!-- backward -->
<g id="node17" class="node">
<title>backward</title>
<ellipse fill="#add8e6" stroke="#000000" cx="882.6364" cy="-36.0624" rx="36.125" ry="36.125"/>
<text text-anchor="middle" x="882.6364" y="-33.8624" font-family="Times,serif" font-size="9.00" fill="#000000">backward</text>
</g>
<!-- x&#45;pos&#45;&gt;backward -->
<g id="edge21" class="edge">
<title>x&#45;pos&#45;&gt;backward</title>
<path fill="none" stroke="#00ff00" stroke-width=".1264" stroke-dasharray="1,5" d="M942.8431,-305.8939C928.3106,-281.9777 890.5503,-215.8692 877.6364,-154.7939 872.6255,-131.0954 873.2624,-104.1611 875.4207,-81.9436"/>
<polygon fill="#00ff00" stroke="#00ff00" stroke-width=".1264" points="878.9249,-82.0982 876.5443,-71.7743 871.9672,-81.3294 878.9249,-82.0982"/>
</g>
<!-- 2134 -->
<g id="node23" class="node">
<title>2134</title>
<ellipse fill="#ffffff" stroke="#000000" cx="1001.6364" cy="-222.6137" rx="25" ry="25"/>
<text text-anchor="middle" x="1001.6364" y="-220.4137" font-family="Times,serif" font-size="9.00" fill="#000000">2134</text>
</g>
<!-- x&#45;pos&#45;&gt;2134 -->
<g id="edge44" class="edge">
<title>x&#45;pos&#45;&gt;2134</title>
<path fill="none" stroke="#ff0000" stroke-width=".15" stroke-dasharray="1,5" d="M953.912,-305.968C960.9323,-293.7065 973.6879,-271.4279 984.2465,-252.9865"/>
<polygon fill="#ff0000" stroke="#ff0000" stroke-width=".15" points="987.2872,-254.7197 989.2186,-244.3023 981.2124,-251.2415 987.2872,-254.7197"/>
</g>
<!-- 823 -->
<g id="node24" class="node">
<title>823</title>
<ellipse fill="#ffffff" stroke="#000000" cx="967.6364" cy="-131.4594" rx="21.4286" ry="21.4286"/>
<text text-anchor="middle" x="967.6364" y="-129.2594" font-family="Times,serif" font-size="9.00" fill="#000000">823</text>
</g>
<!-- x&#45;pos&#45;&gt;823 -->
<g id="edge37" class="edge">
<title>x&#45;pos&#45;&gt;823</title>
<path fill="none" stroke="#ff0000" stroke-width=".3902" d="M949.5786,-306.0714C952.25,-280.2397 959.9663,-205.6262 964.3998,-162.7563"/>
<polygon fill="#ff0000" stroke="#ff0000" stroke-width=".3902" points="967.9038,-162.8971 965.4511,-152.5901 960.9409,-162.177 967.9038,-162.8971"/>
</g>
<!-- y&#45;pos -->
<g id="node4" class="node">
<title>y&#45;pos</title>
<polygon fill="#d3d3d3" stroke="#000000" points="490.6364,-324.1823 454.6364,-324.1823 454.6364,-306.1823 490.6364,-306.1823 490.6364,-324.1823"/>
<text text-anchor="middle" x="472.6364" y="-312.9823" font-family="Times,serif" font-size="9.00" fill="#000000">y&#45;pos</text>
</g>
<!-- y&#45;pos&#45;&gt;none -->
<g id="edge1" class="edge">
<title>y&#45;pos&#45;&gt;none</title>
<path fill="none" stroke="#ff0000" stroke-width=".2768" d="M463.6478,-305.8461C458.622,-300.918 452.0857,-294.9697 445.6364,-290.4335 414.486,-268.5238 375.3718,-248.9334 348.4267,-236.5089"/>
<polygon fill="#ff0000" stroke="#ff0000" stroke-width=".2768" points="349.6396,-233.2156 339.0875,-232.2646 346.7434,-239.5884 349.6396,-233.2156"/>
</g>
<!-- y&#45;pos&#45;&gt;forward -->
<g id="edge23" class="edge">
<title>y&#45;pos&#45;&gt;forward</title>
<path fill="none" stroke="#ff0000" stroke-width=".4321" stroke-dasharray="1,5" d="M480.9055,-305.9546C485.9118,-300.8163 492.6618,-294.6291 499.6364,-290.4335 547.5866,-261.5892 609.6663,-242.4105 649.8188,-232.0194"/>
<polygon fill="#ff0000" stroke="#ff0000" stroke-width=".4321" points="650.694,-235.4083 659.5327,-229.5663 648.98,-228.6214 650.694,-235.4083"/>
</g>
<!-- x&#45;lm1&#45;vec -->
<g id="node5" class="node">
<title>x&#45;lm1&#45;vec</title>
<polygon fill="#d3d3d3" stroke="#000000" points="436.1364,-324.1823 383.1364,-324.1823 383.1364,-306.1823 436.1364,-306.1823 436.1364,-324.1823"/>
<text text-anchor="middle" x="409.6364" y="-312.9823" font-family="Times,serif" font-size="9.00" fill="#000000">x&#45;lm1&#45;vec</text>
</g>
<!-- x&#45;lm1&#45;vec&#45;&gt;none -->
<g id="edge24" class="edge">
<title>x&#45;lm1&#45;vec&#45;&gt;none</title>
<path fill="none" stroke="#00ff00" stroke-width=".2281" d="M400.3792,-305.968C386.6093,-292.262 360.265,-266.04 340.7862,-246.6515"/>
<polygon fill="#00ff00" stroke="#00ff00" stroke-width=".2281" points="343.254,-244.1696 333.6974,-239.5956 338.3158,-249.1309 343.254,-244.1696"/>
</g>
<!-- x&#45;lm1&#45;vec&#45;&gt;forward -->
<g id="edge25" class="edge">
<title>x&#45;lm1&#45;vec&#45;&gt;forward</title>
<path fill="none" stroke="#ff0000" stroke-width=".1074" stroke-dasharray="1,5" d="M420.7198,-306.1251C427.5559,-300.9159 436.6997,-294.5989 445.6364,-290.4335 455.0298,-286.0553 582.5656,-251.5829 649.7964,-233.5409"/>
<polygon fill="#ff0000" stroke="#ff0000" stroke-width=".1074" points="650.8973,-236.8695 659.6494,-230.8986 649.084,-230.1084 650.8973,-236.8695"/>
</g>
<!-- y&#45;lm1&#45;vec -->
<g id="node6" class="node">
<title>y&#45;lm1&#45;vec</title>
<polygon fill="#d3d3d3" stroke="#000000" points="954.1364,-409.6798 901.1364,-409.6798 901.1364,-391.6798 954.1364,-391.6798 954.1364,-409.6798"/>
<text text-anchor="middle" x="927.6364" y="-398.4798" font-family="Times,serif" font-size="9.00" fill="#000000">y&#45;lm1&#45;vec</text>
</g>
<!-- y&#45;lm1&#45;vec&#45;&gt;none -->
<g id="edge20" class="edge">
<title>y&#45;lm1&#45;vec&#45;&gt;none</title>
<path fill="none" stroke="#00ff00" stroke-width=".3884" stroke-dasharray="1,5" d="M905.3602,-391.6184C890.872,-386.1302 871.4311,-379.5175 853.6364,-375.931 748.9959,-354.8411 463.1364,-399.6149 374.6364,-339.931 359.5084,-329.7288 340.5319,-286.1472 328.4912,-255.0875"/>
<polygon fill="#00ff00" stroke="#00ff00" stroke-width=".3884" points="331.6701,-253.6002 324.8393,-245.5014 325.1287,-256.0923 331.6701,-253.6002"/>
</g>
<!-- y&#45;lm1&#45;vec&#45;&gt;forward -->
<g id="edge16" class="edge">
<title>y&#45;lm1&#45;vec&#45;&gt;forward</title>
<path fill="none" stroke="#ff0000" stroke-width=".3118" stroke-dasharray="1,5" d="M926.742,-391.3668C924.1842,-370.085 914.8757,-317.6346 883.6364,-290.4335 833.2334,-246.5461 798.7026,-281.5901 737.6364,-254.4335 733.2527,-252.4841 728.8364,-250.1252 724.5585,-247.5832"/>
<polygon fill="#ff0000" stroke="#ff0000" stroke-width=".3118" points="726.3477,-244.5735 716.0267,-242.1805 722.6027,-250.4875 726.3477,-244.5735"/>
</g>
<!-- y&#45;lm1&#45;vec&#45;&gt;backward -->
<g id="edge29" class="edge">
<title>y&#45;lm1&#45;vec&#45;&gt;backward</title>
<path fill="none" stroke="#ff0000" stroke-width=".9089" stroke-dasharray="1,5" d="M954.229,-397.5774C986.8831,-392.1844 1040.9636,-377.7497 1065.6364,-339.931 1077.6565,-321.5064 1067.1706,-312.3789 1065.6364,-290.4335 1059.8642,-207.8676 1080.7066,-171.6387 1027.6364,-108.1249 1001.9089,-77.3346 959.7945,-58.4769 927.5643,-47.8175"/>
<polygon fill="#ff0000" stroke="#ff0000" stroke-width=".9089" points="928.498,-44.442 917.9082,-44.7684 926.3902,-51.1171 928.498,-44.442"/>
</g>
<!-- 584 -->
<g id="node20" class="node">
<title>584</title>
<ellipse fill="#ffffff" stroke="#000000" cx="907.6364" cy="-131.4594" rx="21.4286" ry="21.4286"/>
<text text-anchor="middle" x="907.6364" y="-129.2594" font-family="Times,serif" font-size="9.00" fill="#000000">584</text>
</g>
<!-- y&#45;lm1&#45;vec&#45;&gt;584 -->
<g id="edge35" class="edge">
<title>y&#45;lm1&#45;vec&#45;&gt;584</title>
<path fill="none" stroke="#ff0000" stroke-width=".2127" d="M954.1769,-395.679C982.9089,-388.694 1027.34,-372.9549 1047.6364,-339.931 1059.1553,-321.1889 1059.5811,-308.9071 1047.6364,-290.4335 1026.4661,-257.6919 995.6313,-281.5718 967.6364,-254.4335 941.3201,-228.9225 924.9308,-189.4933 916.0617,-162.1892"/>
<polygon fill="#ff0000" stroke="#ff0000" stroke-width=".2127" points="919.3241,-160.892 913.0257,-152.3726 912.6367,-162.9603 919.3241,-160.892"/>
</g>
<!-- y&#45;lm1&#45;vec&#45;&gt;500 -->
<g id="edge33" class="edge">
<title>y&#45;lm1&#45;vec&#45;&gt;500</title>
<path fill="none" stroke="#ff0000" stroke-width=".2902" stroke-dasharray="1,5" d="M919.7171,-391.53C908.9178,-379.0529 889.1897,-356.2595 874.0909,-338.8148"/>
<polygon fill="#ff0000" stroke="#ff0000" stroke-width=".2902" points="876.7189,-336.503 867.5281,-331.2323 871.426,-341.0841 876.7189,-336.503"/>
</g>
<!-- x&#45;lm2&#45;vec -->
<g id="node7" class="node">
<title>x&#45;lm2&#45;vec</title>
<polygon fill="#d3d3d3" stroke="#000000" points="70.1364,-324.1823 17.1364,-324.1823 17.1364,-306.1823 70.1364,-306.1823 70.1364,-324.1823"/>
<text text-anchor="middle" x="43.6364" y="-312.9823" font-family="Times,serif" font-size="9.00" fill="#000000">x&#45;lm2&#45;vec</text>
</g>
<!-- x&#45;lm2&#45;vec&#45;&gt;none -->
<g id="edge26" class="edge">
<title>x&#45;lm2&#45;vec&#45;&gt;none</title>
<path fill="none" stroke="#00ff00" stroke-width=".2273" stroke-dasharray="1,5" d="M70.3098,-306.1379C120.7061,-289.0496 229.7354,-252.08 284.2429,-233.5977"/>
<polygon fill="#00ff00" stroke="#00ff00" stroke-width=".2273" points="285.4133,-236.8966 293.7598,-230.3707 283.1654,-230.2674 285.4133,-236.8966"/>
</g>
<!-- x&#45;lm2&#45;vec&#45;&gt;backward -->
<g id="edge15" class="edge">
<title>x&#45;lm2&#45;vec&#45;&gt;backward</title>
<path fill="none" stroke="#00ff00" stroke-width=".3777" d="M42.3551,-305.9826C39.7819,-283.781 36.2942,-226.4692 62.6364,-190.7939 112.7795,-122.885 152.519,-131.49 233.6364,-108.1249 347.409,-75.3537 707.5866,-48.0856 836.3279,-39.1574"/>
<polygon fill="#00ff00" stroke="#00ff00" stroke-width=".3777" points="836.8904,-42.627 846.6263,-38.4482 836.4094,-35.6436 836.8904,-42.627"/>
</g>
<!-- y&#45;lm2&#45;vec -->
<g id="node8" class="node">
<title>y&#45;lm2&#45;vec</title>
<polygon fill="#d3d3d3" stroke="#000000" points="1038.1364,-324.1823 985.1364,-324.1823 985.1364,-306.1823 1038.1364,-306.1823 1038.1364,-324.1823"/>
<text text-anchor="middle" x="1011.6364" y="-312.9823" font-family="Times,serif" font-size="9.00" fill="#000000">y&#45;lm2&#45;vec</text>
</g>
<!-- y&#45;lm2&#45;vec&#45;&gt;left -->
<g id="edge32" class="edge">
<title>y&#45;lm2&#45;vec&#45;&gt;left</title>
<path fill="none" stroke="#00ff00" stroke-width=".1588" stroke-dasharray="1,5" d="M1000.167,-306.0274C993.3439,-300.9134 984.3439,-294.7262 975.6364,-290.4335 914.7313,-260.4082 837.4761,-239.3481 796.055,-229.3024"/>
<polygon fill="#00ff00" stroke="#00ff00" stroke-width=".1588" points="796.6257,-225.8405 786.0871,-226.9307 795.0054,-232.6504 796.6257,-225.8405"/>
</g>
<!-- y&#45;lm2&#45;vec&#45;&gt;backward -->
<g id="edge9" class="edge">
<title>y&#45;lm2&#45;vec&#45;&gt;backward</title>
<path fill="none" stroke="#00ff00" stroke-width=".1834" stroke-dasharray="1,5" d="M1016.5144,-306.0416C1022.4086,-294.4306 1031.9887,-273.594 1035.6364,-254.4335 1048.2008,-188.4354 1041.9838,-158.592 997.6364,-108.1249 977.6591,-85.3909 948.7771,-67.3284 924.9557,-54.973"/>
<polygon fill="#00ff00" stroke="#00ff00" stroke-width=".1834" points="926.2764,-51.7196 915.7695,-50.3568 923.1333,-57.9743 926.2764,-51.7196"/>
</g>
<!-- x&#45;other&#45;vec -->
<g id="node9" class="node">
<title>x&#45;other&#45;vec</title>
<polygon fill="#d3d3d3" stroke="#000000" points="129.6364,-231.6137 71.6364,-231.6137 71.6364,-213.6137 129.6364,-213.6137 129.6364,-231.6137"/>
<text text-anchor="middle" x="100.6364" y="-220.4137" font-family="Times,serif" font-size="9.00" fill="#000000">x&#45;other&#45;vec</text>
</g>
<!-- x&#45;other&#45;vec&#45;&gt;right -->
<g id="edge13" class="edge">
<title>x&#45;other&#45;vec&#45;&gt;right</title>
<path fill="none" stroke="#00ff00" stroke-width="2.5668" d="M110.0624,-213.5879C118.2702,-206.263 130.8324,-196.2818 143.6364,-190.7939 198.7538,-167.1703 375.5269,-144.2159 450.0266,-135.3255"/>
<polygon fill="#00ff00" stroke="#00ff00" stroke-width="2.5668" points="450.7294,-138.7669 460.2496,-134.1175 449.9079,-131.8153 450.7294,-138.7669"/>
</g>
<!-- x&#45;other&#45;vec&#45;&gt;backward -->
<g id="edge14" class="edge">
<title>x&#45;other&#45;vec&#45;&gt;backward</title>
<path fill="none" stroke="#00ff00" stroke-width=".5265" d="M110.529,-213.5922C118.8202,-206.4697 131.2579,-196.768 143.6364,-190.7939 386.2868,-73.6862 715.6953,-44.8824 836.1127,-38.0776"/>
<polygon fill="#00ff00" stroke="#00ff00" stroke-width=".5265" points="836.6399,-41.5543 846.4365,-37.5198 836.2622,-34.5645 836.6399,-41.5543"/>
</g>
<!-- y&#45;other&#45;vec -->
<g id="node10" class="node">
<title>y&#45;other&#45;vec</title>
<polygon fill="#d3d3d3" stroke="#000000" points="670.6364,-409.6798 612.6364,-409.6798 612.6364,-391.6798 670.6364,-391.6798 670.6364,-409.6798"/>
<text text-anchor="middle" x="641.6364" y="-398.4798" font-family="Times,serif" font-size="9.00" fill="#000000">y&#45;other&#45;vec</text>
</g>
<!-- y&#45;other&#45;vec&#45;&gt;none -->
<g id="edge7" class="edge">
<title>y&#45;other&#45;vec&#45;&gt;none</title>
<path fill="none" stroke="#ff0000" stroke-width=".37" d="M612.449,-398.805C544.5378,-393.8345 378.8071,-378.001 340.6364,-339.931 319.1605,-318.5118 314.3682,-283.4018 314.2185,-257.1632"/>
<polygon fill="#ff0000" stroke="#ff0000" stroke-width=".37" points="317.7226,-256.939 314.3895,-246.8821 310.7236,-256.8225 317.7226,-256.939"/>
</g>
<!-- y&#45;other&#45;vec&#45;&gt;left -->
<g id="edge10" class="edge">
<title>y&#45;other&#45;vec&#45;&gt;left</title>
<path fill="none" stroke="#ff0000" stroke-width=".3949" stroke-dasharray="1,5" d="M649.5857,-391.4471C659.546,-379.7411 676.9663,-358.8067 690.6364,-339.931 712.851,-309.2572 736.225,-272.3828 751.0891,-248.2673"/>
<polygon fill="#ff0000" stroke="#ff0000" stroke-width=".3949" points="754.1054,-250.0436 756.349,-239.689 748.1379,-246.3844 754.1054,-250.0436"/>
</g>
<!-- y&#45;other&#45;vec&#45;&gt;forward -->
<g id="edge5" class="edge">
<title>y&#45;other&#45;vec&#45;&gt;forward</title>
<path fill="none" stroke="#00ff00" stroke-width="2.1252" d="M647.2154,-391.5743C654.0483,-379.9996 665.4716,-359.2006 671.6364,-339.931 679.4601,-315.4761 684.1671,-287.075 686.9389,-264.3427"/>
<polygon fill="#00ff00" stroke="#00ff00" stroke-width="2.1252" points="690.4249,-264.6638 688.0804,-254.3316 683.4699,-263.8707 690.4249,-264.6638"/>
</g>
<!-- y&#45;other&#45;vec&#45;&gt;backward -->
<g id="edge11" class="edge">
<title>y&#45;other&#45;vec&#45;&gt;backward</title>
<path fill="none" stroke="#ff0000" stroke-width="2.1464" d="M612.561,-398.976C490.9351,-391.7121 28.2959,-362.6648 7.6364,-339.931 -7.1587,-323.6505 4.431,-312.1977 7.6364,-290.4335 20.7177,-201.6123 17.1367,-153.4475 94.6364,-108.1249 158.6838,-70.6693 675.8091,-45.1112 835.704,-38.0442"/>
<polygon fill="#ff0000" stroke="#ff0000" stroke-width="2.1464" points="836.3129,-41.521 846.1501,-37.5865 836.0064,-34.5277 836.3129,-41.521"/>
</g>
<!-- 160 -->
<g id="node18" class="node">
<title>160</title>
<ellipse fill="#ffffff" stroke="#000000" cx="641.6364" cy="-315.1823" rx="21.4286" ry="21.4286"/>
<text text-anchor="middle" x="641.6364" y="-312.9823" font-family="Times,serif" font-size="9.00" fill="#000000">160</text>
</g>
<!-- y&#45;other&#45;vec&#45;&gt;160 -->
<g id="edge30" class="edge">
<title>y&#45;other&#45;vec&#45;&gt;160</title>
<path fill="none" stroke="#ff0000" stroke-width=".1363" d="M641.6364,-391.53C641.6364,-380.8581 641.6364,-362.6392 641.6364,-346.6752"/>
<polygon fill="#ff0000" stroke="#ff0000" stroke-width=".1363" points="645.1365,-346.6121 641.6364,-336.6121 638.1365,-346.6121 645.1365,-346.6121"/>
</g>
<!-- x&#45;other&#45;vel -->
<g id="node11" class="node">
<title>x&#45;other&#45;vel</title>
<polygon fill="#d3d3d3" stroke="#000000" points="288.6364,-324.1823 232.6364,-324.1823 232.6364,-306.1823 288.6364,-306.1823 288.6364,-324.1823"/>
<text text-anchor="middle" x="260.6364" y="-312.9823" font-family="Times,serif" font-size="9.00" fill="#000000">x&#45;other&#45;vel</text>
</g>
<!-- x&#45;other&#45;vel&#45;&gt;none -->
<g id="edge17" class="edge">
<title>x&#45;other&#45;vel&#45;&gt;none</title>
<path fill="none" stroke="#ff0000" stroke-width="1.3812" stroke-dasharray="1,5" d="M266.2106,-305.968C273.7234,-293.5493 287.4525,-270.8551 298.6901,-252.2791"/>
<polygon fill="#ff0000" stroke="#ff0000" stroke-width="1.3812" points="301.787,-253.9217 303.9685,-243.5539 295.7977,-250.2984 301.787,-253.9217"/>
</g>
<!-- y&#45;other&#45;vel -->
<g id="node12" class="node">
<title>y&#45;other&#45;vel</title>
<polygon fill="#d3d3d3" stroke="#000000" points="564.6364,-324.1823 508.6364,-324.1823 508.6364,-306.1823 564.6364,-306.1823 564.6364,-324.1823"/>
<text text-anchor="middle" x="536.6364" y="-312.9823" font-family="Times,serif" font-size="9.00" fill="#000000">y&#45;other&#45;vel</text>
</g>
<!-- y&#45;other&#45;vel&#45;&gt;none -->
<g id="edge12" class="edge">
<title>y&#45;other&#45;vel&#45;&gt;none</title>
<path fill="none" stroke="#ff0000" stroke-width=".7044" d="M524.4115,-305.9445C517.4069,-300.9273 508.3082,-294.8628 499.6364,-290.4335 449.4386,-264.7943 387.2022,-243.838 349.7718,-232.3057"/>
<polygon fill="#ff0000" stroke="#ff0000" stroke-width=".7044" points="350.4886,-228.8655 339.903,-229.3068 348.4533,-235.5631 350.4886,-228.8655"/>
</g>
<!-- y&#45;other&#45;vel&#45;&gt;right -->
<g id="edge4" class="edge">
<title>y&#45;other&#45;vel&#45;&gt;right</title>
<path fill="none" stroke="#ff0000" stroke-width=".3262" stroke-dasharray="1,5" d="M529.969,-305.7982C522.1261,-294.2743 509.3287,-273.8595 502.6364,-254.4335 492.6006,-225.3025 487.8498,-190.4607 485.6102,-165.3134"/>
<polygon fill="#ff0000" stroke="#ff0000" stroke-width=".3262" points="489.0853,-164.8622 484.796,-155.1745 482.1078,-165.4226 489.0853,-164.8622"/>
</g>
<!-- y&#45;other&#45;vel&#45;&gt;left -->
<g id="edge2" class="edge">
<title>y&#45;other&#45;vel&#45;&gt;left</title>
<path fill="none" stroke="#00ff00" stroke-width=".1666" stroke-dasharray="1,5" d="M549.724,-306.0771C557.7549,-300.8508 568.4261,-294.5328 578.6364,-290.4335 643.4637,-264.4063 669.8182,-286.9684 731.6364,-254.4335 736.6326,-251.8041 741.4695,-248.292 745.8724,-244.561"/>
<polygon fill="#00ff00" stroke="#00ff00" stroke-width=".1666" points="748.2822,-247.0999 753.2695,-237.7523 743.5415,-241.9496 748.2822,-247.0999"/>
</g>
<!-- y&#45;other&#45;vel&#45;&gt;forward -->
<g id="edge27" class="edge">
<title>y&#45;other&#45;vel&#45;&gt;forward</title>
<path fill="none" stroke="#00ff00" stroke-width=".2333" stroke-dasharray="1,5" d="M551.6829,-306.1379C575.2734,-291.9578 621.639,-264.0877 654.3067,-244.4513"/>
<polygon fill="#00ff00" stroke="#00ff00" stroke-width=".2333" points="656.3595,-247.3011 663.1272,-239.1494 652.7532,-241.3015 656.3595,-247.3011"/>
</g>
<!-- 2097 -->
<g id="node21" class="node">
<title>2097</title>
<ellipse fill="#ffffff" stroke="#000000" cx="536.6364" cy="-222.6137" rx="25" ry="25"/>
<text text-anchor="middle" x="536.6364" y="-220.4137" font-family="Times,serif" font-size="9.00" fill="#000000">2097</text>
</g>
<!-- y&#45;other&#45;vel&#45;&gt;2097 -->
<g id="edge42" class="edge">
<title>y&#45;other&#45;vel&#45;&gt;2097</title>
<path fill="none" stroke="#00ff00" stroke-width=".4025" d="M536.6364,-305.968C536.6364,-294.7583 536.6364,-275.1764 536.6364,-257.8082"/>
<polygon fill="#00ff00" stroke="#00ff00" stroke-width=".4025" points="540.1365,-257.3748 536.6364,-247.3748 533.1365,-257.3748 540.1365,-257.3748"/>
</g>
<!-- forward&#45;&gt;584 -->
<g id="edge39" class="edge">
<title>forward&#45;&gt;584</title>
<path fill="none" stroke="#00ff00" stroke-width=".1786" d="M716.2519,-203.523C722.9988,-198.9887 730.4159,-194.4207 737.6364,-190.7939 784.2166,-167.3976 842.2427,-149.306 877.0406,-139.5352"/>
<polygon fill="#00ff00" stroke="#00ff00" stroke-width=".1786" points="878.3462,-142.8058 887.0559,-136.7733 876.4852,-136.0577 878.3462,-142.8058"/>
</g>
<!-- 160&#45;&gt;forward -->
<g id="edge31" class="edge">
<title>160&#45;&gt;forward</title>
<path fill="none" stroke="#00ff00" stroke-width=".2922" stroke-dasharray="1,5" d="M651.7892,-296.002C657.2844,-285.6208 664.2663,-272.4309 670.791,-260.1047"/>
<polygon fill="#00ff00" stroke="#00ff00" stroke-width=".2922" points="674.0741,-261.3837 675.6591,-250.9081 667.8874,-258.1088 674.0741,-261.3837"/>
</g>
<!-- 2086&#45;&gt;left -->
<g id="edge41" class="edge">
<title>2086&#45;&gt;left</title>
<path fill="none" stroke="#00ff00" stroke-width=".2444" d="M812.4886,-376.665C802.835,-344.2314 785.6477,-286.4867 775.2797,-251.6531"/>
<polygon fill="#00ff00" stroke="#00ff00" stroke-width=".2444" points="778.5043,-250.2177 772.2969,-241.6317 771.7952,-252.2146 778.5043,-250.2177"/>
</g>
<!-- 2086&#45;&gt;500 -->
<g id="edge49" class="edge">
<title>2086&#45;&gt;500</title>
<path fill="none" stroke="#ff0000" stroke-width=".1722" d="M828.927,-377.3172C832.9614,-367.1724 837.7306,-355.1795 841.9977,-344.4492"/>
<polygon fill="#ff0000" stroke="#ff0000" stroke-width=".1722" points="845.2969,-345.6245 845.7399,-335.0389 838.7923,-343.0378 845.2969,-345.6245"/>
</g>
<!-- 584&#45;&gt;backward -->
<g id="edge36" class="edge">
<title>584&#45;&gt;backward</title>
<path fill="none" stroke="#ff0000" stroke-width=".1661" stroke-dasharray="1,5" d="M902.2118,-110.7597C899.9046,-101.9559 897.118,-91.3225 894.3799,-80.8744"/>
<polygon fill="#ff0000" stroke="#ff0000" stroke-width=".1661" points="897.7077,-79.7658 891.7869,-70.9797 890.9363,-81.5403 897.7077,-79.7658"/>
</g>
<!-- 2097&#45;&gt;right -->
<g id="edge43" class="edge">
<title>2097&#45;&gt;right</title>
<path fill="none" stroke="#ff0000" stroke-width=".202" stroke-dasharray="1,5" d="M524.0761,-201.0114C517.0126,-188.863 508.102,-173.5377 500.4439,-160.3665"/>
<polygon fill="#ff0000" stroke="#ff0000" stroke-width=".202" points="503.4325,-158.5434 495.3803,-151.6577 497.3811,-162.0619 503.4325,-158.5434"/>
</g>
<!-- 500&#45;&gt;forward -->
<g id="edge34" class="edge">
<title>500&#45;&gt;forward</title>
<path fill="none" stroke="#00ff00" stroke-width=".3478" stroke-dasharray="1,5" d="M834.3895,-305.9347C811.0773,-294.5452 770.8083,-274.2628 737.6364,-254.4335 733.5184,-251.972 729.2668,-249.2957 725.0813,-246.5756"/>
<polygon fill="#00ff00" stroke="#00ff00" stroke-width=".3478" points="726.9159,-243.5926 716.6469,-240.985 723.0485,-249.4272 726.9159,-243.5926"/>
</g>
<!-- 2134&#45;&gt;823 -->
<g id="edge45" class="edge">
<title>2134&#45;&gt;823</title>
<path fill="none" stroke="#00ff00" stroke-width=".2799" d="M992.8805,-199.1392C988.5334,-187.4846 983.2374,-173.2858 978.6208,-160.9088"/>
<polygon fill="#00ff00" stroke="#00ff00" stroke-width=".2799" points="981.8693,-159.6029 975.0952,-151.4566 975.3107,-162.0492 981.8693,-159.6029"/>
</g>
<!-- 823&#45;&gt;backward -->
<g id="edge38" class="edge">
<title>823&#45;&gt;backward</title>
<path fill="none" stroke="#00ff00" stroke-width=".151" stroke-dasharray="1,5" d="M953.2173,-115.2766C942.4077,-103.1448 927.2114,-86.0897 913.6866,-70.9107"/>
<polygon fill="#00ff00" stroke="#00ff00" stroke-width=".151" points="916.0643,-68.3179 906.7985,-63.1801 910.8379,-72.9747 916.0643,-68.3179"/>
</g>
<!-- 2423&#45;&gt;none -->
<g id="edge48" class="edge">
<title>2423&#45;&gt;none</title>
<path fill="none" stroke="#00ff00" stroke-width=".4757" d="M172.516,-301.5452C178.3306,-297.8539 184.6848,-293.9176 190.6364,-290.4335 222.7145,-271.6548 260.3377,-251.6596 286.066,-238.2848"/>
<polygon fill="#00ff00" stroke="#00ff00" stroke-width=".4757" points="287.704,-241.3781 294.9743,-233.6714 284.4848,-235.1622 287.704,-241.3781"/>
</g>
</g>
</svg>
