<?xml version="1.0" encoding="UTF-8" standalone="no"?>
<!DOCTYPE svg PUBLIC "-//W3C//DTD SVG 1.1//EN"
 "http://www.w3.org/Graphics/SVG/1.1/DTD/svg11.dtd">
<!-- Generated by graphviz version 2.40.1 (20161225.0304)
 -->
<!-- Title: %3 Pages: 1 -->
<svg width="806pt" height="636pt"
 viewBox="0.00 0.00 806.00 635.80" xmlns="http://www.w3.org/2000/svg" xmlns:xlink="http://www.w3.org/1999/xlink">
<g id="graph0" class="graph" transform="scale(1 1) rotate(0) translate(4 631.796)">
<title>%3</title>
<polygon fill="#ffffff" stroke="transparent" points="-4,4 -4,-631.796 802,-631.796 802,4 -4,4"/>
<!-- x&#45;vel -->
<g id="node1" class="node">
<title>x&#45;vel</title>
<polygon fill="#d3d3d3" stroke="#000000" points="364.5,-627.796 329.5,-627.796 329.5,-609.796 364.5,-609.796 364.5,-627.796"/>
<text text-anchor="middle" x="347" y="-616.596" font-family="Times,serif" font-size="9.00" fill="#000000">x&#45;vel</text>
</g>
<!-- none -->
<g id="node13" class="node">
<title>none</title>
<ellipse fill="#add8e6" stroke="#000000" cx="263" cy="-24.0416" rx="24.0833" ry="24.0833"/>
<text text-anchor="middle" x="263" y="-21.8416" font-family="Times,serif" font-size="9.00" fill="#000000">none</text>
</g>
<!-- x&#45;vel&#45;&gt;none -->
<g id="edge16" class="edge">
<title>x&#45;vel&#45;&gt;none</title>
<path fill="none" stroke="#ff0000" stroke-width=".5124" stroke-dasharray="1,5" d="M345.6141,-609.6868C342.2175,-586.9097 333.5011,-525.6166 330,-474.1564 323.603,-380.1316 326,-356.3914 326,-262.1493 326,-262.1493 326,-262.1493 326,-183.7229 326,-135.17 300.4848,-83.7437 281.9301,-52.7653"/>
<polygon fill="#ff0000" stroke="#ff0000" stroke-width=".5124" points="284.8898,-50.8965 276.6701,-44.2116 278.927,-54.5633 284.8898,-50.8965"/>
</g>
<!-- left -->
<g id="node15" class="node">
<title>left</title>
<ellipse fill="#add8e6" stroke="#000000" cx="210" cy="-541.9762" rx="19.6" ry="19.6"/>
<text text-anchor="middle" x="210" y="-539.7762" font-family="Times,serif" font-size="9.00" fill="#000000">left</text>
</g>
<!-- x&#45;vel&#45;&gt;left -->
<g id="edge3" class="edge">
<title>x&#45;vel&#45;&gt;left</title>
<path fill="none" stroke="#ff0000" stroke-width=".477" stroke-dasharray="1,5" d="M329.2446,-609.8044C311.9268,-600.939 284.9206,-586.8593 262,-573.796 253.3564,-568.8698 244.0495,-563.2711 235.7317,-558.158"/>
<polygon fill="#ff0000" stroke="#ff0000" stroke-width=".477" points="237.5166,-555.1465 227.1725,-552.8551 233.8299,-561.097 237.5166,-555.1465"/>
</g>
<!-- forward -->
<g id="node16" class="node">
<title>forward</title>
<ellipse fill="#add8e6" stroke="#000000" cx="564" cy="-541.9762" rx="31.6406" ry="31.6406"/>
<text text-anchor="middle" x="564" y="-539.7762" font-family="Times,serif" font-size="9.00" fill="#000000">forward</text>
</g>
<!-- x&#45;vel&#45;&gt;forward -->
<g id="edge14" class="edge">
<title>x&#45;vel&#45;&gt;forward</title>
<path fill="none" stroke="#ff0000" stroke-width=".2712" stroke-dasharray="1,5" d="M364.5573,-613.4888C390.9007,-605.4318 442.1387,-589.3959 485,-573.796 498.1758,-569.0006 512.4301,-563.3917 525.1561,-558.2301"/>
<polygon fill="#ff0000" stroke="#ff0000" stroke-width=".2712" points="526.6149,-561.415 534.5467,-554.391 523.9659,-554.9355 526.6149,-561.415"/>
</g>
<!-- 519 -->
<g id="node18" class="node">
<title>519</title>
<ellipse fill="#ffffff" stroke="#000000" cx="401" cy="-541.9762" rx="21.4286" ry="21.4286"/>
<text text-anchor="middle" x="401" y="-539.7762" font-family="Times,serif" font-size="9.00" fill="#000000">519</text>
</g>
<!-- x&#45;vel&#45;&gt;519 -->
<g id="edge33" class="edge">
<title>x&#45;vel&#45;&gt;519</title>
<path fill="none" stroke="#ff0000" stroke-width=".2587" d="M353.4066,-609.6821C360.5787,-599.4792 372.5238,-582.4862 382.6524,-568.0773"/>
<polygon fill="#ff0000" stroke="#ff0000" stroke-width=".2587" points="385.7778,-569.7173 388.6653,-559.5235 380.0511,-565.6917 385.7778,-569.7173"/>
</g>
<!-- 51 -->
<g id="node23" class="node">
<title>51</title>
<ellipse fill="#ffffff" stroke="#000000" cx="357" cy="-438.094" rx="18.2703" ry="18.2703"/>
<text text-anchor="middle" x="357" y="-435.894" font-family="Times,serif" font-size="9.00" fill="#000000">51</text>
</g>
<!-- x&#45;vel&#45;&gt;51 -->
<g id="edge30" class="edge">
<title>x&#45;vel&#45;&gt;51</title>
<path fill="none" stroke="#00ff00" stroke-width=".433" stroke-dasharray="1,5" d="M347.5096,-609.5866C348.9522,-583.5188 353.1083,-508.4174 355.4132,-466.7684"/>
<polygon fill="#00ff00" stroke="#00ff00" stroke-width=".433" points="358.912,-466.885 355.97,-456.7068 351.9227,-466.4981 358.912,-466.885"/>
</g>
<!-- y&#45;vel -->
<g id="node2" class="node">
<title>y&#45;vel</title>
<polygon fill="#d3d3d3" stroke="#000000" points="652.5,-627.796 617.5,-627.796 617.5,-609.796 652.5,-609.796 652.5,-627.796"/>
<text text-anchor="middle" x="635" y="-616.596" font-family="Times,serif" font-size="9.00" fill="#000000">y&#45;vel</text>
</g>
<!-- right -->
<g id="node14" class="node">
<title>right</title>
<ellipse fill="#add8e6" stroke="#000000" cx="613" cy="-342.697" rx="23.1702" ry="23.1702"/>
<text text-anchor="middle" x="613" y="-340.497" font-family="Times,serif" font-size="9.00" fill="#000000">right</text>
</g>
<!-- y&#45;vel&#45;&gt;right -->
<g id="edge21" class="edge">
<title>y&#45;vel&#45;&gt;right</title>
<path fill="none" stroke="#ff0000" stroke-width=".5115" stroke-dasharray="1,5" d="M650.2987,-609.487C661.6903,-601.5835 676.3703,-589.0989 683,-573.796 694.2438,-547.8427 688.5629,-537.8882 683,-510.1564 672.7905,-459.2603 646.7335,-404.5228 629.4529,-371.9642"/>
<polygon fill="#ff0000" stroke="#ff0000" stroke-width=".5115" points="632.4433,-370.1356 624.6157,-362.9957 626.2823,-373.4586 632.4433,-370.1356"/>
</g>
<!-- y&#45;vel&#45;&gt;left -->
<g id="edge10" class="edge">
<title>y&#45;vel&#45;&gt;left</title>
<path fill="none" stroke="#00ff00" stroke-width=".2489" stroke-dasharray="1,5" d="M617.4657,-614.8327C609.9497,-613.1873 601.0615,-611.3124 593,-609.796 494.7672,-591.3184 469.3772,-591.4887 371,-573.796 325.1467,-565.5495 272.1847,-554.8558 239.9023,-548.2055"/>
<polygon fill="#00ff00" stroke="#00ff00" stroke-width=".2489" points="240.2888,-544.7115 229.7873,-546.1146 238.8717,-551.5666 240.2888,-544.7115"/>
</g>
<!-- y&#45;vel&#45;&gt;forward -->
<g id="edge17" class="edge">
<title>y&#45;vel&#45;&gt;forward</title>
<path fill="none" stroke="#ff0000" stroke-width=".1009" d="M626.5766,-609.6821C618.2244,-600.6454 604.9494,-586.2822 592.771,-573.1055"/>
<polygon fill="#ff0000" stroke="#ff0000" stroke-width=".1009" points="595.1305,-570.5019 585.7728,-565.5337 589.9899,-575.2531 595.1305,-570.5019"/>
</g>
<!-- backward -->
<g id="node17" class="node">
<title>backward</title>
<ellipse fill="#add8e6" stroke="#000000" cx="440" cy="-438.094" rx="36.125" ry="36.125"/>
<text text-anchor="middle" x="440" y="-435.894" font-family="Times,serif" font-size="9.00" fill="#000000">backward</text>
</g>
<!-- y&#45;vel&#45;&gt;backward -->
<g id="edge9" class="edge">
<title>y&#45;vel&#45;&gt;backward</title>
<path fill="none" stroke="#ff0000" stroke-width=".411" stroke-dasharray="1,5" d="M643.4969,-609.6483C650.8046,-601.1087 660.8098,-587.6354 665,-573.796 673.1963,-546.7254 681.6731,-533.0039 665,-510.1564 643.6862,-480.9498 545.0175,-457.7936 485.6472,-446.2062"/>
<polygon fill="#ff0000" stroke="#ff0000" stroke-width=".411" points="486.2404,-442.7563 475.7604,-444.3124 484.9234,-449.6313 486.2404,-442.7563"/>
</g>
<!-- 655 -->
<g id="node22" class="node">
<title>655</title>
<ellipse fill="#ffffff" stroke="#000000" cx="635" cy="-541.9762" rx="21.4286" ry="21.4286"/>
<text text-anchor="middle" x="635" y="-539.7762" font-family="Times,serif" font-size="9.00" fill="#000000">655</text>
</g>
<!-- y&#45;vel&#45;&gt;655 -->
<g id="edge42" class="edge">
<title>y&#45;vel&#45;&gt;655</title>
<path fill="none" stroke="#ff0000" stroke-width=".6584" d="M635,-609.6821C635,-600.7131 635,-586.497 635,-573.4018"/>
<polygon fill="#ff0000" stroke="#ff0000" stroke-width=".6584" points="638.5001,-573.2616 635,-563.2617 631.5001,-573.2617 638.5001,-573.2616"/>
</g>
<!-- x&#45;pos -->
<g id="node3" class="node">
<title>x&#45;pos</title>
<polygon fill="#d3d3d3" stroke="#000000" points="476,-550.9762 440,-550.9762 440,-532.9762 476,-532.9762 476,-550.9762"/>
<text text-anchor="middle" x="458" y="-539.7762" font-family="Times,serif" font-size="9.00" fill="#000000">x&#45;pos</text>
</g>
<!-- x&#45;pos&#45;&gt;backward -->
<g id="edge19" class="edge">
<title>x&#45;pos&#45;&gt;backward</title>
<path fill="none" stroke="#ff0000" stroke-width=".1074" stroke-dasharray="1,5" d="M456.4026,-532.7574C454.4861,-521.6965 451.1325,-502.3424 447.9551,-484.0046"/>
<polygon fill="#ff0000" stroke="#ff0000" stroke-width=".1074" points="451.3742,-483.2363 446.2182,-473.9807 444.477,-484.4315 451.3742,-483.2363"/>
</g>
<!-- y&#45;pos -->
<g id="node4" class="node">
<title>y&#45;pos</title>
<polygon fill="#d3d3d3" stroke="#000000" points="584,-627.796 548,-627.796 548,-609.796 584,-609.796 584,-627.796"/>
<text text-anchor="middle" x="566" y="-616.596" font-family="Times,serif" font-size="9.00" fill="#000000">y&#45;pos</text>
</g>
<!-- y&#45;pos&#45;&gt;forward -->
<g id="edge2" class="edge">
<title>y&#45;pos&#45;&gt;forward</title>
<path fill="none" stroke="#00ff00" stroke-width=".4593" stroke-dasharray="1,5" d="M565.7627,-609.6821C565.5922,-603.1337 565.3489,-593.7883 565.0973,-584.1243"/>
<polygon fill="#00ff00" stroke="#00ff00" stroke-width=".4593" points="568.594,-583.9474 564.8348,-574.0419 561.5964,-584.1296 568.594,-583.9474"/>
</g>
<!-- x&#45;lm1&#45;vec -->
<g id="node5" class="node">
<title>x&#45;lm1&#45;vec</title>
<polygon fill="#d3d3d3" stroke="#000000" points="165.5,-627.796 112.5,-627.796 112.5,-609.796 165.5,-609.796 165.5,-627.796"/>
<text text-anchor="middle" x="139" y="-616.596" font-family="Times,serif" font-size="9.00" fill="#000000">x&#45;lm1&#45;vec</text>
</g>
<!-- x&#45;lm1&#45;vec&#45;&gt;left -->
<g id="edge24" class="edge">
<title>x&#45;lm1&#45;vec&#45;&gt;left</title>
<path fill="none" stroke="#00ff00" stroke-width=".215" d="M147.4234,-609.6821C157.7459,-598.5135 175.5882,-579.2088 189.586,-564.0636"/>
<polygon fill="#00ff00" stroke="#00ff00" stroke-width=".215" points="192.2782,-566.3073 196.4953,-556.5879 187.1376,-561.5561 192.2782,-566.3073"/>
</g>
<!-- x&#45;lm1&#45;vec&#45;&gt;backward -->
<g id="edge18" class="edge">
<title>x&#45;lm1&#45;vec&#45;&gt;backward</title>
<path fill="none" stroke="#ff0000" stroke-width="1.1678" d="M139.6375,-609.484C141.6243,-588.229 149.6191,-535.9879 181,-510.1564 251.7447,-451.9221 298.6981,-507.6174 384,-474.1564 390.0756,-471.7732 396.194,-468.6881 402.0412,-465.3263"/>
<polygon fill="#ff0000" stroke="#ff0000" stroke-width="1.1678" points="404.2522,-468.0771 410.9611,-459.8771 400.6028,-462.1036 404.2522,-468.0771"/>
</g>
<!-- 156 -->
<g id="node25" class="node">
<title>156</title>
<ellipse fill="#ffffff" stroke="#000000" cx="176" cy="-183.7229" rx="21.4286" ry="21.4286"/>
<text text-anchor="middle" x="176" y="-181.5229" font-family="Times,serif" font-size="9.00" fill="#000000">156</text>
</g>
<!-- x&#45;lm1&#45;vec&#45;&gt;156 -->
<g id="edge28" class="edge">
<title>x&#45;lm1&#45;vec&#45;&gt;156</title>
<path fill="none" stroke="#ff0000" stroke-width=".3171" d="M136.7814,-609.4532C130.663,-582.8401 114,-504.2857 114,-438.094 114,-438.094 114,-438.094 114,-342.697 114,-293.2984 140.3053,-240.8036 158.6471,-210.205"/>
<polygon fill="#ff0000" stroke="#ff0000" stroke-width=".3171" points="161.7817,-211.7896 164.0458,-201.4395 155.8214,-208.1186 161.7817,-211.7896"/>
</g>
<!-- y&#45;lm1&#45;vec -->
<g id="node6" class="node">
<title>y&#45;lm1&#45;vec</title>
<polygon fill="#d3d3d3" stroke="#000000" points="529.5,-627.796 476.5,-627.796 476.5,-609.796 529.5,-609.796 529.5,-627.796"/>
<text text-anchor="middle" x="503" y="-616.596" font-family="Times,serif" font-size="9.00" fill="#000000">y&#45;lm1&#45;vec</text>
</g>
<!-- y&#45;lm1&#45;vec&#45;&gt;right -->
<g id="edge8" class="edge">
<title>y&#45;lm1&#45;vec&#45;&gt;right</title>
<path fill="none" stroke="#00ff00" stroke-width=".3995" d="M503.7291,-609.5349C505.4402,-590.4641 510.5495,-545.6234 523,-510.1564 541.187,-458.348 573.7431,-403.157 594.3128,-370.8581"/>
<polygon fill="#00ff00" stroke="#00ff00" stroke-width=".3995" points="597.3028,-372.6795 599.7747,-362.377 591.4176,-368.8893 597.3028,-372.6795"/>
</g>
<!-- y&#45;lm1&#45;vec&#45;&gt;left -->
<g id="edge25" class="edge">
<title>y&#45;lm1&#45;vec&#45;&gt;left</title>
<path fill="none" stroke="#00ff00" stroke-width=".1167" d="M476.4814,-611.8433C421.7117,-597.4836 296.4564,-564.6437 239.3489,-549.671"/>
<polygon fill="#00ff00" stroke="#00ff00" stroke-width=".1167" points="240.0718,-546.2423 229.511,-547.0917 238.2964,-553.0135 240.0718,-546.2423"/>
</g>
<!-- y&#45;lm1&#45;vec&#45;&gt;forward -->
<g id="edge13" class="edge">
<title>y&#45;lm1&#45;vec&#45;&gt;forward</title>
<path fill="none" stroke="#00ff00" stroke-width="3.226" d="M510.237,-609.6821C517.0198,-601.1403 527.5815,-587.8395 537.5545,-575.2802"/>
<polygon fill="#00ff00" stroke="#00ff00" stroke-width="3.226" points="540.4998,-577.1992 543.9775,-567.1914 535.0179,-572.8462 540.4998,-577.1992"/>
</g>
<!-- x&#45;lm2&#45;vec -->
<g id="node7" class="node">
<title>x&#45;lm2&#45;vec</title>
<polygon fill="#d3d3d3" stroke="#000000" points="236.5,-627.796 183.5,-627.796 183.5,-609.796 236.5,-609.796 236.5,-627.796"/>
<text text-anchor="middle" x="210" y="-616.596" font-family="Times,serif" font-size="9.00" fill="#000000">x&#45;lm2&#45;vec</text>
</g>
<!-- x&#45;lm2&#45;vec&#45;&gt;left -->
<g id="edge23" class="edge">
<title>x&#45;lm2&#45;vec&#45;&gt;left</title>
<path fill="none" stroke="#ff0000" stroke-width=".4489" d="M210,-609.6821C210,-600.4622 210,-585.6976 210,-572.3057"/>
<polygon fill="#ff0000" stroke="#ff0000" stroke-width=".4489" points="213.5001,-571.992 210,-561.992 206.5001,-571.9921 213.5001,-571.992"/>
</g>
<!-- y&#45;lm2&#45;vec -->
<g id="node8" class="node">
<title>y&#45;lm2&#45;vec</title>
<polygon fill="#d3d3d3" stroke="#000000" points="786.5,-627.796 733.5,-627.796 733.5,-609.796 786.5,-609.796 786.5,-627.796"/>
<text text-anchor="middle" x="760" y="-616.596" font-family="Times,serif" font-size="9.00" fill="#000000">y&#45;lm2&#45;vec</text>
</g>
<!-- y&#45;lm2&#45;vec&#45;&gt;none -->
<g id="edge20" class="edge">
<title>y&#45;lm2&#45;vec&#45;&gt;none</title>
<path fill="none" stroke="#00ff00" stroke-width=".3554" d="M763.3722,-609.5351C772.6723,-583.1374 798,-505.0953 798,-438.094 798,-438.094 798,-438.094 798,-183.7229 798,-78.7994 415.3908,-37.1399 297.2945,-26.7803"/>
<polygon fill="#00ff00" stroke="#00ff00" stroke-width=".3554" points="297.2895,-23.2672 287.0272,-25.9007 296.6919,-30.2416 297.2895,-23.2672"/>
</g>
<!-- y&#45;lm2&#45;vec&#45;&gt;right -->
<g id="edge11" class="edge">
<title>y&#45;lm2&#45;vec&#45;&gt;right</title>
<path fill="none" stroke="#00ff00" stroke-width=".3464" stroke-dasharray="1,5" d="M757.6569,-609.5024C749.4944,-578.2571 720.1551,-474.8774 672,-402.0315 662.8224,-388.1483 650.0433,-374.8082 638.7241,-364.3054"/>
<polygon fill="#00ff00" stroke="#00ff00" stroke-width=".3464" points="640.9566,-361.6059 631.1831,-357.5158 636.2728,-366.8081 640.9566,-361.6059"/>
</g>
<!-- y&#45;lm2&#45;vec&#45;&gt;forward -->
<g id="edge5" class="edge">
<title>y&#45;lm2&#45;vec&#45;&gt;forward</title>
<path fill="none" stroke="#00ff00" stroke-width=".1744" d="M733.3641,-614.2409C701.5479,-608.096 647.3179,-595.3599 605,-573.796 602.1099,-572.3233 599.2219,-570.6356 596.3924,-568.8224"/>
<polygon fill="#00ff00" stroke="#00ff00" stroke-width=".1744" points="598.3483,-565.9195 588.1366,-563.0961 594.3588,-571.6714 598.3483,-565.9195"/>
</g>
<!-- x&#45;other&#45;vec -->
<g id="node9" class="node">
<title>x&#45;other&#45;vec</title>
<polygon fill="#d3d3d3" stroke="#000000" points="86,-550.9762 28,-550.9762 28,-532.9762 86,-532.9762 86,-550.9762"/>
<text text-anchor="middle" x="57" y="-539.7762" font-family="Times,serif" font-size="9.00" fill="#000000">x&#45;other&#45;vec</text>
</g>
<!-- x&#45;other&#45;vec&#45;&gt;none -->
<g id="edge6" class="edge">
<title>x&#45;other&#45;vec&#45;&gt;none</title>
<path fill="none" stroke="#00ff00" stroke-width=".1111" stroke-dasharray="1,5" d="M55.5091,-532.8687C51.03,-504.6879 38,-416.3754 38,-342.697 38,-342.697 38,-342.697 38,-183.7229 38,-90.9329 166.8347,-47.1385 229.525,-31.3209"/>
<polygon fill="#00ff00" stroke="#00ff00" stroke-width=".1111" points="230.4548,-34.6969 239.3463,-28.9357 228.8028,-27.8946 230.4548,-34.6969"/>
</g>
<!-- x&#45;other&#45;vec&#45;&gt;51 -->
<g id="edge26" class="edge">
<title>x&#45;other&#45;vec&#45;&gt;51</title>
<path fill="none" stroke="#00ff00" stroke-width=".1673" d="M81.6104,-532.9336C99.2312,-526.4944 123.5375,-517.6837 145,-510.1564 211.1414,-486.9596 289.2787,-460.6912 329.704,-447.185"/>
<polygon fill="#00ff00" stroke="#00ff00" stroke-width=".1673" points="330.9934,-450.4445 339.3709,-443.9585 328.7772,-443.8046 330.9934,-450.4445"/>
</g>
<!-- 596 -->
<g id="node24" class="node">
<title>596</title>
<ellipse fill="#ffffff" stroke="#000000" cx="176" cy="-105.2965" rx="21.4286" ry="21.4286"/>
<text text-anchor="middle" x="176" y="-103.0965" font-family="Times,serif" font-size="9.00" fill="#000000">596</text>
</g>
<!-- x&#45;other&#45;vec&#45;&gt;596 -->
<g id="edge37" class="edge">
<title>x&#45;other&#45;vec&#45;&gt;596</title>
<path fill="none" stroke="#ff0000" stroke-width=".1346" d="M58.4909,-532.8687C62.97,-504.6879 76,-416.3754 76,-342.697 76,-342.697 76,-342.697 76,-262.1493 76,-205.8225 122.4176,-153.4398 152.0038,-125.7725"/>
<polygon fill="#ff0000" stroke="#ff0000" stroke-width=".1346" points="154.447,-128.2814 159.487,-118.9622 149.7355,-123.1044 154.447,-128.2814"/>
</g>
<!-- y&#45;other&#45;vec -->
<g id="node10" class="node">
<title>y&#45;other&#45;vec</title>
<polygon fill="#d3d3d3" stroke="#000000" points="67,-627.796 9,-627.796 9,-609.796 67,-609.796 67,-627.796"/>
<text text-anchor="middle" x="38" y="-616.596" font-family="Times,serif" font-size="9.00" fill="#000000">y&#45;other&#45;vec</text>
</g>
<!-- y&#45;other&#45;vec&#45;&gt;none -->
<g id="edge22" class="edge">
<title>y&#45;other&#45;vec&#45;&gt;none</title>
<path fill="none" stroke="#ff0000" stroke-width=".1592" d="M33.346,-609.7397C28.967,-600.8262 22.565,-586.712 19,-573.796 2.7964,-515.0909 0,-498.9943 0,-438.094 0,-438.094 0,-438.094 0,-183.7229 0,-133.3533 14.7375,-115.6357 54,-84.0833 81.049,-62.3459 177.0261,-40.866 228.9875,-30.4832"/>
<polygon fill="#ff0000" stroke="#ff0000" stroke-width=".1592" points="229.928,-33.8653 239.0632,-28.4988 228.5753,-26.9972 229.928,-33.8653"/>
</g>
<!-- y&#45;other&#45;vec&#45;&gt;left -->
<g id="edge15" class="edge">
<title>y&#45;other&#45;vec&#45;&gt;left</title>
<path fill="none" stroke="#ff0000" stroke-width=".2928" d="M58.4061,-609.6821C89.1829,-595.9364 147.5535,-569.8665 182.1946,-554.3949"/>
<polygon fill="#ff0000" stroke="#ff0000" stroke-width=".2928" points="184.0067,-557.4188 191.7101,-550.145 181.152,-551.0273 184.0067,-557.4188"/>
</g>
<!-- x&#45;other&#45;vel -->
<g id="node11" class="node">
<title>x&#45;other&#45;vel</title>
<polygon fill="#d3d3d3" stroke="#000000" points="410,-114.2965 354,-114.2965 354,-96.2965 410,-96.2965 410,-114.2965"/>
<text text-anchor="middle" x="382" y="-103.0965" font-family="Times,serif" font-size="9.00" fill="#000000">x&#45;other&#45;vel</text>
</g>
<!-- x&#45;other&#45;vel&#45;&gt;none -->
<g id="edge1" class="edge">
<title>x&#45;other&#45;vel&#45;&gt;none</title>
<path fill="none" stroke="#ff0000" stroke-width=".1478" d="M368.8102,-96.2903C350.2703,-83.631 316.0312,-60.252 291.5199,-43.5154"/>
<polygon fill="#ff0000" stroke="#ff0000" stroke-width=".1478" points="293.2087,-40.4305 282.9766,-37.6819 289.2614,-46.2114 293.2087,-40.4305"/>
</g>
<!-- y&#45;other&#45;vel -->
<g id="node12" class="node">
<title>y&#45;other&#45;vel</title>
<polygon fill="#d3d3d3" stroke="#000000" points="311,-627.796 255,-627.796 255,-609.796 311,-609.796 311,-627.796"/>
<text text-anchor="middle" x="283" y="-616.596" font-family="Times,serif" font-size="9.00" fill="#000000">y&#45;other&#45;vel</text>
</g>
<!-- y&#45;other&#45;vel&#45;&gt;left -->
<g id="edge4" class="edge">
<title>y&#45;other&#45;vel&#45;&gt;left</title>
<path fill="none" stroke="#00ff00" stroke-width=".1529" stroke-dasharray="1,5" d="M274.3393,-609.6821C263.726,-598.5135 245.3812,-579.2088 230.9891,-564.0636"/>
<polygon fill="#00ff00" stroke="#00ff00" stroke-width=".1529" points="233.3108,-561.4259 223.8851,-556.5879 228.2365,-566.2479 233.3108,-561.4259"/>
</g>
<!-- y&#45;other&#45;vel&#45;&gt;backward -->
<g id="edge12" class="edge">
<title>y&#45;other&#45;vel&#45;&gt;backward</title>
<path fill="none" stroke="#00ff00" stroke-width=".1046" d="M290.0532,-609.5726C304.6738,-590.5712 339.5499,-545.8519 371,-510.1564 382.4739,-497.1337 395.537,-483.2651 407.1873,-471.2079"/>
<polygon fill="#00ff00" stroke="#00ff00" stroke-width=".1046" points="409.7729,-473.5694 414.2318,-463.9585 404.7527,-468.691 409.7729,-473.5694"/>
</g>
<!-- left&#45;&gt;left -->
<g id="edge7" class="edge">
<title>left&#45;&gt;left</title>
<path fill="none" stroke="#ff0000" stroke-width=".4567" d="M225.5308,-554.692C236.6866,-558.832 247.799,-554.5934 247.799,-541.9762 247.799,-533.3019 242.5467,-528.5878 235.6389,-527.8339"/>
<polygon fill="#ff0000" stroke="#ff0000" stroke-width=".4567" points="234.9435,-524.3972 225.5308,-529.2605 235.9219,-531.3285 234.9435,-524.3972"/>
</g>
<!-- 363 -->
<g id="node19" class="node">
<title>363</title>
<ellipse fill="#ffffff" stroke="#000000" cx="210" cy="-438.094" rx="21.4286" ry="21.4286"/>
<text text-anchor="middle" x="210" y="-435.894" font-family="Times,serif" font-size="9.00" fill="#000000">363</text>
</g>
<!-- left&#45;&gt;363 -->
<g id="edge41" class="edge">
<title>left&#45;&gt;363</title>
<path fill="none" stroke="#ff0000" stroke-width=".348" d="M210,-521.9467C210,-507.1038 210,-486.5844 210,-469.5594"/>
<polygon fill="#ff0000" stroke="#ff0000" stroke-width=".348" points="213.5001,-469.4925 210,-459.4925 206.5001,-469.4925 213.5001,-469.4925"/>
</g>
<!-- 519&#45;&gt;51 -->
<g id="edge34" class="edge">
<title>519&#45;&gt;51</title>
<path fill="none" stroke="#ff0000" stroke-width=".3716" d="M392.7239,-522.4368C385.7925,-506.072 375.8349,-482.5624 368.1924,-464.5189"/>
<polygon fill="#ff0000" stroke="#ff0000" stroke-width=".3716" points="371.3418,-462.9802 364.2187,-455.1371 364.8961,-465.7103 371.3418,-462.9802"/>
</g>
<!-- 427 -->
<g id="node20" class="node">
<title>427</title>
<ellipse fill="#ffffff" stroke="#000000" cx="261" cy="-262.1493" rx="21.4286" ry="21.4286"/>
<text text-anchor="middle" x="261" y="-259.9493" font-family="Times,serif" font-size="9.00" fill="#000000">427</text>
</g>
<!-- 363&#45;&gt;427 -->
<g id="edge31" class="edge">
<title>363&#45;&gt;427</title>
<path fill="none" stroke="#00ff00" stroke-width=".7272" d="M215.9502,-417.5665C224.8944,-386.7098 241.8583,-328.1862 252.2248,-292.423"/>
<polygon fill="#00ff00" stroke="#00ff00" stroke-width=".7272" points="255.6653,-293.1251 255.0877,-282.546 248.942,-291.1762 255.6653,-293.1251"/>
</g>
<!-- 619 -->
<g id="node21" class="node">
<title>619</title>
<ellipse fill="#ffffff" stroke="#000000" cx="277" cy="-342.697" rx="21.4286" ry="21.4286"/>
<text text-anchor="middle" x="277" y="-340.497" font-family="Times,serif" font-size="9.00" fill="#000000">619</text>
</g>
<!-- 363&#45;&gt;619 -->
<g id="edge39" class="edge">
<title>363&#45;&gt;619</title>
<path fill="none" stroke="#00ff00" stroke-width=".4691" d="M222.2888,-420.5967C232.4889,-406.0735 247.1458,-385.2045 258.7224,-368.7213"/>
<polygon fill="#00ff00" stroke="#00ff00" stroke-width=".4691" points="261.9058,-370.2783 264.7891,-360.0834 256.1774,-366.2551 261.9058,-370.2783"/>
</g>
<!-- 363&#45;&gt;156 -->
<g id="edge29" class="edge">
<title>363&#45;&gt;156</title>
<path fill="none" stroke="#00ff00" stroke-width=".409" d="M203.1949,-417.8759C193.7407,-388.6155 177.1064,-332.5739 171,-283.3625 168.678,-264.6498 170.1784,-259.7743 171,-240.9361 171.3666,-232.5313 172.0346,-223.4517 172.7657,-215.0552"/>
<polygon fill="#00ff00" stroke="#00ff00" stroke-width=".409" points="176.2702,-215.1673 173.7073,-204.8871 169.3,-214.5217 176.2702,-215.1673"/>
</g>
<!-- 543 -->
<g id="node26" class="node">
<title>543</title>
<ellipse fill="#ffffff" stroke="#000000" cx="201" cy="-262.1493" rx="21.4286" ry="21.4286"/>
<text text-anchor="middle" x="201" y="-259.9493" font-family="Times,serif" font-size="9.00" fill="#000000">543</text>
</g>
<!-- 363&#45;&gt;543 -->
<g id="edge35" class="edge">
<title>363&#45;&gt;543</title>
<path fill="none" stroke="#ff0000" stroke-width=".3006" d="M208.9144,-416.8709C207.3467,-386.2239 204.4379,-329.3582 202.617,-293.76"/>
<polygon fill="#ff0000" stroke="#ff0000" stroke-width=".3006" points="206.0958,-293.2557 202.0895,-283.4476 199.105,-293.6134 206.0958,-293.2557"/>
</g>
<!-- 427&#45;&gt;156 -->
<g id="edge32" class="edge">
<title>427&#45;&gt;156</title>
<path fill="none" stroke="#ff0000" stroke-width=".8538" d="M245.0122,-247.3979C232.1088,-235.4924 213.7769,-218.5782 199.2496,-205.1744"/>
<polygon fill="#ff0000" stroke="#ff0000" stroke-width=".8538" points="201.352,-202.352 191.629,-198.1432 196.6051,-207.4967 201.352,-202.352"/>
</g>
<!-- 619&#45;&gt;427 -->
<g id="edge40" class="edge">
<title>619&#45;&gt;427</title>
<path fill="none" stroke="#00ff00" stroke-width=".2954" d="M272.7962,-321.534C271.0691,-312.8396 269.0348,-302.5982 267.1463,-293.0911"/>
<polygon fill="#00ff00" stroke="#00ff00" stroke-width=".2954" points="270.5571,-292.2973 265.1757,-283.1709 263.6912,-293.6612 270.5571,-292.2973"/>
</g>
<!-- 655&#45;&gt;backward -->
<g id="edge43" class="edge">
<title>655&#45;&gt;backward</title>
<path fill="none" stroke="#ff0000" stroke-width=".1852" d="M621.477,-525.1406C616.6692,-519.875 610.9603,-514.3516 605,-510.1564 567.6592,-483.8744 519.2074,-464.1222 484.4837,-452.0055"/>
<polygon fill="#ff0000" stroke="#ff0000" stroke-width=".1852" points="485.2205,-448.5588 474.626,-448.6416 482.9597,-455.1837 485.2205,-448.5588"/>
</g>
<!-- 51&#45;&gt;right -->
<g id="edge27" class="edge">
<title>51&#45;&gt;right</title>
<path fill="none" stroke="#00ff00" stroke-width=".3076" stroke-dasharray="1,5" d="M369.0506,-423.6287C375.9483,-416.1954 385.171,-407.5617 395,-402.0315 454.9722,-368.2891 535.1263,-352.9285 579.6365,-346.6022"/>
<polygon fill="#00ff00" stroke="#00ff00" stroke-width=".3076" points="580.1853,-350.0599 589.6254,-345.25 579.2463,-343.1232 580.1853,-350.0599"/>
</g>
<!-- 596&#45;&gt;none -->
<g id="edge38" class="edge">
<title>596&#45;&gt;none</title>
<path fill="none" stroke="#00ff00" stroke-width=".3755" d="M191.5539,-90.7697C204.373,-78.7971 222.8073,-61.5802 237.7398,-47.6338"/>
<polygon fill="#00ff00" stroke="#00ff00" stroke-width=".3755" points="240.2617,-50.0675 245.181,-40.6839 235.4838,-44.9517 240.2617,-50.0675"/>
</g>
<!-- 156&#45;&gt;596 -->
<g id="edge44" class="edge">
<title>156&#45;&gt;596</title>
<path fill="none" stroke="#00ff00" stroke-width=".2927" d="M176,-162.2925C176,-154.4252 176,-145.3464 176,-136.78"/>
<polygon fill="#00ff00" stroke="#00ff00" stroke-width=".2927" points="179.5001,-136.7009 176,-126.7009 172.5001,-136.7009 179.5001,-136.7009"/>
</g>
<!-- 543&#45;&gt;156 -->
<g id="edge36" class="edge">
<title>543&#45;&gt;156</title>
<path fill="none" stroke="#00ff00" stroke-width=".3743" stroke-dasharray="1,5" d="M194.4315,-241.5437C191.733,-233.0782 188.5543,-223.1066 185.6036,-213.8498"/>
<polygon fill="#00ff00" stroke="#00ff00" stroke-width=".3743" points="188.8965,-212.6555 182.5246,-204.1909 182.2271,-214.7815 188.8965,-212.6555"/>
</g>
</g>
</svg>
