<?xml version="1.0" encoding="UTF-8" standalone="no"?>
<!DOCTYPE svg PUBLIC "-//W3C//DTD SVG 1.1//EN"
 "http://www.w3.org/Graphics/SVG/1.1/DTD/svg11.dtd">
<!-- Generated by graphviz version 2.40.1 (20161225.0304)
 -->
<!-- Title: %3 Pages: 1 -->
<svg width="1237pt" height="647pt"
 viewBox="0.00 0.00 1236.74 647.11" xmlns="http://www.w3.org/2000/svg" xmlns:xlink="http://www.w3.org/1999/xlink">
<g id="graph0" class="graph" transform="scale(1 1) rotate(0) translate(4 643.1097)">
<title>%3</title>
<polygon fill="#ffffff" stroke="transparent" points="-4,4 -4,-643.1097 1232.7358,-643.1097 1232.7358,4 -4,4"/>
<!-- agent_E -->
<g id="node1" class="node">
<title>agent_E</title>
<polygon fill="#d3d3d3" stroke="#000000" points="362.5226,-569.361 316.5226,-569.361 316.5226,-551.361 362.5226,-551.361 362.5226,-569.361"/>
<text text-anchor="middle" x="339.5226" y="-558.161" font-family="Times,serif" font-size="9.00" fill="#000000">agent_E</text>
</g>
<!-- right -->
<g id="node17" class="node">
<title>right</title>
<ellipse fill="#add8e6" stroke="#000000" cx="371.5226" cy="-366.7386" rx="23.1702" ry="23.1702"/>
<text text-anchor="middle" x="371.5226" y="-364.5386" font-family="Times,serif" font-size="9.00" fill="#000000">right</text>
</g>
<!-- agent_E&#45;&gt;right -->
<g id="edge29" class="edge">
<title>agent_E&#45;&gt;right</title>
<path fill="none" stroke="#00ff00" stroke-width=".6208" stroke-dasharray="1,5" d="M337.1167,-551.1035C331.8297,-529.1321 320.6548,-472.3229 333.5226,-427.4874 336.9997,-415.3721 343.6769,-403.331 350.4765,-393.2031"/>
<polygon fill="#00ff00" stroke="#00ff00" stroke-width=".6208" points="353.4764,-395.0233 356.406,-384.8415 347.7664,-390.9741 353.4764,-395.0233"/>
</g>
<!-- left -->
<g id="node18" class="node">
<title>left</title>
<ellipse fill="#add8e6" stroke="#000000" cx="650.5226" cy="-202.8148" rx="19.6" ry="19.6"/>
<text text-anchor="middle" x="650.5226" y="-200.6148" font-family="Times,serif" font-size="9.00" fill="#000000">left</text>
</g>
<!-- agent_E&#45;&gt;left -->
<g id="edge22" class="edge">
<title>agent_E&#45;&gt;left</title>
<path fill="none" stroke="#00ff00" stroke-width=".4405" stroke-dasharray="1,5" d="M362.731,-556.6701C412.5815,-548.3061 527.6314,-526.5274 555.5226,-499.6123 565.5182,-489.9665 620.63,-304.7369 642.0265,-231.888"/>
<polygon fill="#00ff00" stroke="#00ff00" stroke-width=".4405" points="645.4737,-232.5703 644.9293,-221.9895 638.7566,-230.6004 645.4737,-232.5703"/>
</g>
<!-- backward -->
<g id="node20" class="node">
<title>backward</title>
<ellipse fill="#add8e6" stroke="#000000" cx="858.5226" cy="-463.5498" rx="36.125" ry="36.125"/>
<text text-anchor="middle" x="858.5226" y="-461.3498" font-family="Times,serif" font-size="9.00" fill="#000000">backward</text>
</g>
<!-- agent_E&#45;&gt;backward -->
<g id="edge10" class="edge">
<title>agent_E&#45;&gt;backward</title>
<path fill="none" stroke="#00ff00" stroke-width=".3204" stroke-dasharray="1,5" d="M362.6119,-557.9674C424.0902,-551.3513 596.6809,-531.1901 737.5226,-499.6123 763.3278,-493.8265 791.6844,-485.4847 814.4563,-478.281"/>
<polygon fill="#00ff00" stroke="#00ff00" stroke-width=".3204" points="815.7163,-481.5526 824.1726,-475.1697 813.5815,-474.8861 815.7163,-481.5526"/>
</g>
<!-- 843 -->
<g id="node24" class="node">
<title>843</title>
<ellipse fill="#ffffff" stroke="#000000" cx="197.5226" cy="-463.5498" rx="21.4286" ry="21.4286"/>
<text text-anchor="middle" x="197.5226" y="-461.3498" font-family="Times,serif" font-size="9.00" fill="#000000">843</text>
</g>
<!-- agent_E&#45;&gt;843 -->
<g id="edge43" class="edge">
<title>agent_E&#45;&gt;843</title>
<path fill="none" stroke="#ff0000" stroke-width=".1982" d="M316.9565,-551.1876C293.184,-540.8543 255.4009,-522.4786 227.5226,-499.6123 223.6344,-496.423 219.8764,-492.6741 216.4121,-488.8211"/>
<polygon fill="#ff0000" stroke="#ff0000" stroke-width=".1982" points="218.8789,-486.3162 209.7659,-480.912 213.5198,-490.8196 218.8789,-486.3162"/>
</g>
<!-- 973 -->
<g id="node25" class="node">
<title>973</title>
<ellipse fill="#ffffff" stroke="#000000" cx="363.5226" cy="-463.5498" rx="21.4286" ry="21.4286"/>
<text text-anchor="middle" x="363.5226" y="-461.3498" font-family="Times,serif" font-size="9.00" fill="#000000">973</text>
</g>
<!-- agent_E&#45;&gt;973 -->
<g id="edge50" class="edge">
<title>agent_E&#45;&gt;973</title>
<path fill="none" stroke="#00ff00" stroke-width=".8057" d="M341.8239,-551.0783C345.0409,-538.1013 351.0358,-513.9194 355.9104,-494.2562"/>
<polygon fill="#00ff00" stroke="#00ff00" stroke-width=".8057" points="359.3276,-495.0172 358.3367,-484.4689 352.5332,-493.3328 359.3276,-495.0172"/>
</g>
<!-- 1362 -->
<g id="node30" class="node">
<title>1362</title>
<ellipse fill="#ffffff" stroke="#000000" cx="261.5226" cy="-463.5498" rx="25" ry="25"/>
<text text-anchor="middle" x="261.5226" y="-461.3498" font-family="Times,serif" font-size="9.00" fill="#000000">1362</text>
</g>
<!-- agent_E&#45;&gt;1362 -->
<g id="edge67" class="edge">
<title>agent_E&#45;&gt;1362</title>
<path fill="none" stroke="#00ff00" stroke-width=".4646" d="M332.0437,-551.0783C320.9844,-537.3519 299.8245,-511.0889 283.5566,-490.8977"/>
<polygon fill="#00ff00" stroke="#00ff00" stroke-width=".4646" points="286.1498,-488.5376 277.1503,-482.9464 280.6989,-492.9294 286.1498,-488.5376"/>
</g>
<!-- landmark_E -->
<g id="node2" class="node">
<title>landmark_E</title>
<polygon fill="#d3d3d3" stroke="#000000" points="538.5226,-129.8528 478.5226,-129.8528 478.5226,-111.8528 538.5226,-111.8528 538.5226,-129.8528"/>
<text text-anchor="middle" x="508.5226" y="-118.6528" font-family="Times,serif" font-size="9.00" fill="#000000">landmark_E</text>
</g>
<!-- forward -->
<g id="node19" class="node">
<title>forward</title>
<ellipse fill="#add8e6" stroke="#000000" cx="643.5226" cy="-31.8198" rx="31.6406" ry="31.6406"/>
<text text-anchor="middle" x="643.5226" y="-29.6198" font-family="Times,serif" font-size="9.00" fill="#000000">forward</text>
</g>
<!-- landmark_E&#45;&gt;forward -->
<g id="edge7" class="edge">
<title>landmark_E&#45;&gt;forward</title>
<path fill="none" stroke="#ff0000" stroke-width=".2347" stroke-dasharray="1,5" d="M522.2101,-111.8259C542.2572,-98.6048 580.2744,-73.5322 608.4292,-54.964"/>
<polygon fill="#ff0000" stroke="#ff0000" stroke-width=".2347" points="610.3984,-57.858 616.8195,-49.4306 606.5445,-52.0144 610.3984,-57.858"/>
</g>
<!-- agent_NE -->
<g id="node3" class="node">
<title>agent_NE</title>
<polygon fill="#d3d3d3" stroke="#000000" points="120.5226,-569.361 68.5226,-569.361 68.5226,-551.361 120.5226,-551.361 120.5226,-569.361"/>
<text text-anchor="middle" x="94.5226" y="-558.161" font-family="Times,serif" font-size="9.00" fill="#000000">agent_NE</text>
</g>
<!-- agent_NE&#45;&gt;right -->
<g id="edge8" class="edge">
<title>agent_NE&#45;&gt;right</title>
<path fill="none" stroke="#ff0000" stroke-width=".2807" stroke-dasharray="1,5" d="M94.2596,-551.2597C94.0948,-527.0386 97.2331,-460.5983 134.5226,-427.4874 203.6945,-366.0668 254.9096,-428.8754 339.5226,-391.4874 341.6104,-390.5648 343.6839,-389.4777 345.713,-388.2825"/>
<polygon fill="#ff0000" stroke="#ff0000" stroke-width=".2807" points="347.9049,-391.0256 354.2318,-382.5273 343.9862,-385.2253 347.9049,-391.0256"/>
</g>
<!-- agent_NE&#45;&gt;forward -->
<g id="edge4" class="edge">
<title>agent_NE&#45;&gt;forward</title>
<path fill="none" stroke="#ff0000" stroke-width=".4786" d="M77.492,-551.2365C60.3209,-541.0644 34.5478,-522.9317 21.5226,-499.6123 -7.5679,-447.5303 2.5226,-426.3943 2.5226,-366.7386 2.5226,-366.7386 2.5226,-366.7386 2.5226,-202.8148 2.5226,-128.0026 66.5073,-128.5142 135.5226,-99.6396 219.8255,-64.369 495.9014,-42.0359 601.7241,-34.5864"/>
<polygon fill="#ff0000" stroke="#ff0000" stroke-width=".4786" points="601.9828,-38.077 611.7159,-33.8918 601.4972,-31.0938 601.9828,-38.077"/>
</g>
<!-- agent_NE&#45;&gt;backward -->
<g id="edge18" class="edge">
<title>agent_NE&#45;&gt;backward</title>
<path fill="none" stroke="#00ff00" stroke-width=".2591" stroke-dasharray="1,5" d="M120.7263,-557.0415C160.8889,-552.016 240.1036,-542.3495 307.5226,-535.6123 498.3519,-516.5427 549.0718,-535.1892 737.5226,-499.6123 763.6032,-494.6886 792.0813,-486.3551 814.8546,-478.9387"/>
<polygon fill="#00ff00" stroke="#00ff00" stroke-width=".2591" points="816.1728,-482.1891 824.5637,-475.7205 813.9703,-475.5446 816.1728,-482.1891"/>
</g>
<!-- landmark_NE -->
<g id="node4" class="node">
<title>landmark_NE</title>
<polygon fill="#d3d3d3" stroke="#000000" points="546.0226,-472.5498 479.0226,-472.5498 479.0226,-454.5498 546.0226,-454.5498 546.0226,-472.5498"/>
<text text-anchor="middle" x="512.5226" y="-461.3498" font-family="Times,serif" font-size="9.00" fill="#000000">landmark_NE</text>
</g>
<!-- landmark_NE&#45;&gt;right -->
<g id="edge28" class="edge">
<title>landmark_NE&#45;&gt;right</title>
<path fill="none" stroke="#ff0000" stroke-width=".1681" stroke-dasharray="1,5" d="M500.846,-454.4388C491.223,-447.0127 477.1537,-436.3433 464.5226,-427.4874 443.2175,-412.5498 418.5371,-396.4834 399.957,-384.6273"/>
<polygon fill="#ff0000" stroke="#ff0000" stroke-width=".1681" points="401.6847,-381.5783 391.3675,-379.1686 397.9302,-387.4862 401.6847,-381.5783"/>
</g>
<!-- landmark_NE&#45;&gt;left -->
<g id="edge26" class="edge">
<title>landmark_NE&#45;&gt;left</title>
<path fill="none" stroke="#00ff00" stroke-width=".3987" d="M513.8447,-454.2381C518.9548,-419.2061 538.2431,-295.6925 560.5226,-263.5635 576.0095,-241.2301 602.5963,-224.785 622.8695,-214.6789"/>
<polygon fill="#00ff00" stroke="#00ff00" stroke-width=".3987" points="624.4303,-217.8124 631.9574,-210.3562 621.4235,-211.491 624.4303,-217.8124"/>
</g>
<!-- 1154 -->
<g id="node21" class="node">
<title>1154</title>
<ellipse fill="#ffffff" stroke="#000000" cx="483.5226" cy="-366.7386" rx="25" ry="25"/>
<text text-anchor="middle" x="483.5226" y="-364.5386" font-family="Times,serif" font-size="9.00" fill="#000000">1154</text>
</g>
<!-- landmark_NE&#45;&gt;1154 -->
<g id="edge58" class="edge">
<title>landmark_NE&#45;&gt;1154</title>
<path fill="none" stroke="#00ff00" stroke-width=".2022" stroke-dasharray="1,5" d="M509.742,-454.2672C506.0479,-441.935 499.3225,-419.4837 493.6083,-400.4078"/>
<polygon fill="#00ff00" stroke="#00ff00" stroke-width=".2022" points="496.9561,-399.3865 490.7337,-390.8114 490.2505,-401.3952 496.9561,-399.3865"/>
</g>
<!-- 468 -->
<g id="node28" class="node">
<title>468</title>
<ellipse fill="#ffffff" stroke="#000000" cx="483.5226" cy="-284.7767" rx="21.4286" ry="21.4286"/>
<text text-anchor="middle" x="483.5226" y="-282.5767" font-family="Times,serif" font-size="9.00" fill="#000000">468</text>
</g>
<!-- landmark_NE&#45;&gt;468 -->
<g id="edge39" class="edge">
<title>landmark_NE&#45;&gt;468</title>
<path fill="none" stroke="#00ff00" stroke-width=".2169" stroke-dasharray="1,5" d="M500.4007,-454.4375C485.1386,-442.1198 459.687,-418.5569 449.5226,-391.4874 441.7895,-370.8925 443.6952,-363.2029 449.5226,-341.9899 452.5843,-330.8448 458.4446,-319.674 464.4488,-310.1993"/>
<polygon fill="#00ff00" stroke="#00ff00" stroke-width=".2169" points="467.4931,-311.9441 470.163,-301.6912 461.682,-308.0413 467.4931,-311.9441"/>
</g>
<!-- agent_N -->
<g id="node5" class="node">
<title>agent_N</title>
<polygon fill="#d3d3d3" stroke="#000000" points="604.0226,-129.8528 557.0226,-129.8528 557.0226,-111.8528 604.0226,-111.8528 604.0226,-129.8528"/>
<text text-anchor="middle" x="580.5226" y="-118.6528" font-family="Times,serif" font-size="9.00" fill="#000000">agent_N</text>
</g>
<!-- agent_N&#45;&gt;forward -->
<g id="edge15" class="edge">
<title>agent_N&#45;&gt;forward</title>
<path fill="none" stroke="#ff0000" stroke-width=".478" d="M587.0275,-111.6601C594.5771,-100.9908 607.4728,-82.7662 619.039,-66.4207"/>
<polygon fill="#ff0000" stroke="#ff0000" stroke-width=".478" points="622.0116,-68.279 624.9308,-58.0943 616.2974,-64.2357 622.0116,-68.279"/>
</g>
<!-- landmark_N -->
<g id="node6" class="node">
<title>landmark_N</title>
<polygon fill="#d3d3d3" stroke="#000000" points="330.0226,-375.7386 269.0226,-375.7386 269.0226,-357.7386 330.0226,-357.7386 330.0226,-375.7386"/>
<text text-anchor="middle" x="299.5226" y="-364.5386" font-family="Times,serif" font-size="9.00" fill="#000000">landmark_N</text>
</g>
<!-- landmark_N&#45;&gt;left -->
<g id="edge21" class="edge">
<title>landmark_N&#45;&gt;left</title>
<path fill="none" stroke="#ff0000" stroke-width=".7796" d="M310.7974,-357.4714C335.334,-337.7043 396,-290.9751 453.5226,-263.5635 510.1991,-236.5551 581.701,-218.0369 621.0996,-209.0548"/>
<polygon fill="#ff0000" stroke="#ff0000" stroke-width=".7796" points="622.0928,-212.4193 631.0905,-206.8255 620.5683,-205.5873 622.0928,-212.4193"/>
</g>
<!-- landmark_N&#45;&gt;forward -->
<g id="edge9" class="edge">
<title>landmark_N&#45;&gt;forward</title>
<path fill="none" stroke="#00ff00" stroke-width=".1975" d="M302.8276,-357.7046C316.9009,-320.4315 375.4535,-176.9347 469.5226,-99.6396 508.4481,-67.6552 564.2275,-49.5118 602.0585,-40.191"/>
<polygon fill="#00ff00" stroke="#00ff00" stroke-width=".1975" points="603.2953,-43.4953 612.2239,-37.7919 601.6873,-36.6825 603.2953,-43.4953"/>
</g>
<!-- landmark_N&#45;&gt;468 -->
<g id="edge37" class="edge">
<title>landmark_N&#45;&gt;468</title>
<path fill="none" stroke="#00ff00" stroke-width=".1803" d="M312.8805,-357.6518C320.4974,-352.6819 330.331,-346.6143 339.5226,-341.9899 360.2255,-331.5742 418.2917,-309.2617 454.0481,-295.785"/>
<polygon fill="#00ff00" stroke="#00ff00" stroke-width=".1803" points="455.3628,-299.0299 463.4921,-292.2354 452.9,-292.4775 455.3628,-299.0299"/>
</g>
<!-- agent_NW -->
<g id="node7" class="node">
<title>agent_NW</title>
<polygon fill="#d3d3d3" stroke="#000000" points="690.0226,-639.1097 635.0226,-639.1097 635.0226,-621.1097 690.0226,-621.1097 690.0226,-639.1097"/>
<text text-anchor="middle" x="662.5226" y="-627.9097" font-family="Times,serif" font-size="9.00" fill="#000000">agent_NW</text>
</g>
<!-- agent_NW&#45;&gt;left -->
<g id="edge11" class="edge">
<title>agent_NW&#45;&gt;left</title>
<path fill="none" stroke="#ff0000" stroke-width=".4666" stroke-dasharray="1,5" d="M688.9073,-621.0073C705.5406,-613.8682 725.9866,-602.2385 737.5226,-585.1097 768.069,-539.7544 756.5226,-518.2324 756.5226,-463.5498 756.5226,-463.5498 756.5226,-463.5498 756.5226,-366.7386 756.5226,-306.3841 705.2264,-250.6735 674.0023,-222.3529"/>
<polygon fill="#ff0000" stroke="#ff0000" stroke-width=".4666" points="675.9765,-219.4271 666.1633,-215.433 671.3439,-224.6749 675.9765,-219.4271"/>
</g>
<!-- 755 -->
<g id="node27" class="node">
<title>755</title>
<ellipse fill="#ffffff" stroke="#000000" cx="603.5226" cy="-560.361" rx="21.4286" ry="21.4286"/>
<text text-anchor="middle" x="603.5226" y="-558.161" font-family="Times,serif" font-size="9.00" fill="#000000">755</text>
</g>
<!-- agent_NW&#45;&gt;755 -->
<g id="edge48" class="edge">
<title>agent_NW&#45;&gt;755</title>
<path fill="none" stroke="#00ff00" stroke-width=".3917" stroke-dasharray="1,5" d="M654.8094,-620.9913C647.02,-611.7828 634.6518,-597.1613 624.0129,-584.5842"/>
<polygon fill="#00ff00" stroke="#00ff00" stroke-width=".3917" points="626.4674,-582.0664 617.3369,-576.692 621.123,-586.5872 626.4674,-582.0664"/>
</g>
<!-- landmark_NW -->
<g id="node8" class="node">
<title>landmark_NW</title>
<polygon fill="#d3d3d3" stroke="#000000" points="930.5226,-569.361 860.5226,-569.361 860.5226,-551.361 930.5226,-551.361 930.5226,-569.361"/>
<text text-anchor="middle" x="895.5226" y="-558.161" font-family="Times,serif" font-size="9.00" fill="#000000">landmark_NW</text>
</g>
<!-- landmark_NW&#45;&gt;backward -->
<g id="edge14" class="edge">
<title>landmark_NW&#45;&gt;backward</title>
<path fill="none" stroke="#00ff00" stroke-width=".7537" stroke-dasharray="1,5" d="M891.9749,-551.0783C888.0437,-540.7923 881.422,-523.4664 875.1024,-506.9311"/>
<polygon fill="#00ff00" stroke="#00ff00" stroke-width=".7537" points="878.2785,-505.4375 871.4391,-497.346 871.7398,-507.9365 878.2785,-505.4375"/>
</g>
<!-- agent_W -->
<g id="node9" class="node">
<title>agent_W</title>
<polygon fill="#d3d3d3" stroke="#000000" points="889.0226,-639.1097 840.0226,-639.1097 840.0226,-621.1097 889.0226,-621.1097 889.0226,-639.1097"/>
<text text-anchor="middle" x="864.5226" y="-627.9097" font-family="Times,serif" font-size="9.00" fill="#000000">agent_W</text>
</g>
<!-- landmark_W -->
<g id="node10" class="node">
<title>landmark_W</title>
<polygon fill="#d3d3d3" stroke="#000000" points="970.0226,-639.1097 907.0226,-639.1097 907.0226,-621.1097 970.0226,-621.1097 970.0226,-639.1097"/>
<text text-anchor="middle" x="938.5226" y="-627.9097" font-family="Times,serif" font-size="9.00" fill="#000000">landmark_W</text>
</g>
<!-- agent_SW -->
<g id="node11" class="node">
<title>agent_SW</title>
<polygon fill="#d3d3d3" stroke="#000000" points="821.5226,-639.1097 767.5226,-639.1097 767.5226,-621.1097 821.5226,-621.1097 821.5226,-639.1097"/>
<text text-anchor="middle" x="794.5226" y="-627.9097" font-family="Times,serif" font-size="9.00" fill="#000000">agent_SW</text>
</g>
<!-- agent_SW&#45;&gt;right -->
<g id="edge20" class="edge">
<title>agent_SW&#45;&gt;right</title>
<path fill="none" stroke="#ff0000" stroke-width=".2298" stroke-dasharray="1,5" d="M767.4983,-627.5287C748.4881,-625.7182 722.4511,-623.2487 699.5226,-621.1097 525.3236,-604.8593 473.6012,-640.1305 307.5226,-585.1097 238.3142,-562.1814 203.1955,-563.1966 167.5226,-499.6123 151.8382,-471.656 147.3107,-452.3677 167.5226,-427.4874 216.7676,-366.8682 268.6072,-424.2097 339.5226,-391.4874 341.5952,-390.531 343.6572,-389.4187 345.6781,-388.2052"/>
<polygon fill="#ff0000" stroke="#ff0000" stroke-width=".2298" points="347.888,-390.9346 354.1785,-382.4094 343.9445,-385.1511 347.888,-390.9346"/>
</g>
<!-- agent_SW&#45;&gt;left -->
<g id="edge27" class="edge">
<title>agent_SW&#45;&gt;left</title>
<path fill="none" stroke="#00ff00" stroke-width=".6035" stroke-dasharray="1,5" d="M794.5226,-621.0823C794.5226,-596.0604 794.5226,-523.6965 794.5226,-463.5498 794.5226,-463.5498 794.5226,-463.5498 794.5226,-366.7386 794.5226,-314.9821 775.0227,-302.1443 740.5226,-263.5635 722.7045,-243.6377 697.0132,-227.1478 677.6371,-216.4008"/>
<polygon fill="#00ff00" stroke="#00ff00" stroke-width=".6035" points="679.1603,-213.2461 668.6947,-211.5965 675.8473,-219.4125 679.1603,-213.2461"/>
</g>
<!-- agent_SW&#45;&gt;backward -->
<g id="edge24" class="edge">
<title>agent_SW&#45;&gt;backward</title>
<path fill="none" stroke="#ff0000" stroke-width=".3906" d="M798.1469,-620.6775C806.4108,-599.1709 827.0804,-545.3783 841.9324,-506.7259"/>
<polygon fill="#ff0000" stroke="#ff0000" stroke-width=".3906" points="845.2522,-507.8442 845.5719,-497.2541 838.7179,-505.3334 845.2522,-507.8442"/>
</g>
<!-- agent_SW&#45;&gt;755 -->
<g id="edge41" class="edge">
<title>agent_SW&#45;&gt;755</title>
<path fill="none" stroke="#00ff00" stroke-width=".349" d="M767.4177,-623.0738C738.2896,-615.1698 690.8733,-601.3063 651.5226,-585.1097 644.8819,-582.3764 637.918,-579.0633 631.4189,-575.7619"/>
<polygon fill="#00ff00" stroke="#00ff00" stroke-width=".349" points="632.8044,-572.5367 622.3212,-571.0024 629.5595,-578.7392 632.8044,-572.5367"/>
</g>
<!-- 1343 -->
<g id="node33" class="node">
<title>1343</title>
<ellipse fill="#ffffff" stroke="#000000" cx="973.5226" cy="-560.361" rx="25" ry="25"/>
<text text-anchor="middle" x="973.5226" y="-558.161" font-family="Times,serif" font-size="9.00" fill="#000000">1343</text>
</g>
<!-- agent_SW&#45;&gt;1343 -->
<g id="edge65" class="edge">
<title>agent_SW&#45;&gt;1343</title>
<path fill="none" stroke="#00ff00" stroke-width=".3593" d="M821.7735,-622.804C857.6847,-612.9796 918.7322,-595.5418 939.5226,-585.1097 941.5374,-584.0988 943.5607,-582.9717 945.5613,-581.7712"/>
<polygon fill="#00ff00" stroke="#00ff00" stroke-width=".3593" points="947.6518,-584.5856 954.0887,-576.1703 943.8089,-578.7347 947.6518,-584.5856"/>
</g>
<!-- landmark_SW -->
<g id="node12" class="node">
<title>landmark_SW</title>
<polygon fill="#d3d3d3" stroke="#000000" points="728.5226,-569.361 660.5226,-569.361 660.5226,-551.361 728.5226,-551.361 728.5226,-569.361"/>
<text text-anchor="middle" x="694.5226" y="-558.161" font-family="Times,serif" font-size="9.00" fill="#000000">landmark_SW</text>
</g>
<!-- landmark_SW&#45;&gt;right -->
<g id="edge25" class="edge">
<title>landmark_SW&#45;&gt;right</title>
<path fill="none" stroke="#00ff00" stroke-width=".2573" d="M681.5638,-551.266C673.3239,-545.9077 662.226,-539.4476 651.5226,-535.6123 560.3155,-502.9301 514.184,-557.5396 436.5226,-499.6123 419.2391,-486.7205 396.6622,-433.5695 383.1729,-398.5225"/>
<polygon fill="#00ff00" stroke="#00ff00" stroke-width=".2573" points="386.2771,-396.8376 379.4577,-388.7292 379.7322,-399.3205 386.2771,-396.8376"/>
</g>
<!-- landmark_SW&#45;&gt;left -->
<g id="edge2" class="edge">
<title>landmark_SW&#45;&gt;left</title>
<path fill="none" stroke="#00ff00" stroke-width=".2251" d="M689.6411,-551.2048C683.7073,-539.5777 673.9406,-518.7246 669.5226,-499.6123 647.4922,-404.3079 647.6629,-287.5197 649.2406,-233.2383"/>
<polygon fill="#00ff00" stroke="#00ff00" stroke-width=".2251" points="652.7487,-233.0467 649.5799,-222.9369 645.7525,-232.8162 652.7487,-233.0467"/>
</g>
<!-- landmark_SW&#45;&gt;backward -->
<g id="edge6" class="edge">
<title>landmark_SW&#45;&gt;backward</title>
<path fill="none" stroke="#ff0000" stroke-width=".5646" stroke-dasharray="1,5" d="M709.9514,-551.2532C734.5454,-536.7351 783.4251,-507.8808 818.405,-487.2317"/>
<polygon fill="#ff0000" stroke="#ff0000" stroke-width=".5646" points="820.5901,-490.0063 827.4224,-481.9087 817.0316,-483.9782 820.5901,-490.0063"/>
</g>
<!-- 1051 -->
<g id="node32" class="node">
<title>1051</title>
<ellipse fill="#ffffff" stroke="#000000" cx="703.5226" cy="-463.5498" rx="25" ry="25"/>
<text text-anchor="middle" x="703.5226" y="-461.3498" font-family="Times,serif" font-size="9.00" fill="#000000">1051</text>
</g>
<!-- landmark_SW&#45;&gt;1051 -->
<g id="edge54" class="edge">
<title>landmark_SW&#45;&gt;1051</title>
<path fill="none" stroke="#00ff00" stroke-width=".1263" d="M695.3856,-551.0783C696.5067,-539.019 698.5273,-517.2835 700.2744,-498.49"/>
<polygon fill="#00ff00" stroke="#00ff00" stroke-width=".1263" points="703.7687,-498.7131 701.2095,-488.432 696.7988,-498.065 703.7687,-498.7131"/>
</g>
<!-- agent_S -->
<g id="node13" class="node">
<title>agent_S</title>
<polygon fill="#d3d3d3" stroke="#000000" points="1061.0226,-569.361 1016.0226,-569.361 1016.0226,-551.361 1061.0226,-551.361 1061.0226,-569.361"/>
<text text-anchor="middle" x="1038.5226" y="-558.161" font-family="Times,serif" font-size="9.00" fill="#000000">agent_S</text>
</g>
<!-- agent_S&#45;&gt;right -->
<g id="edge16" class="edge">
<title>agent_S&#45;&gt;right</title>
<path fill="none" stroke="#00ff00" stroke-width=".3084" stroke-dasharray="1,5" d="M1029.9729,-551.1317C1024.2155,-545.5765 1016.1252,-538.9522 1007.5226,-535.6123 896.0297,-492.3252 571.829,-563.1849 470.5226,-499.6123 439.2901,-480.013 451.5305,-457.0722 429.5226,-427.4874 419.6228,-414.1791 407.0694,-400.7036 396.1753,-389.8371"/>
<polygon fill="#00ff00" stroke="#00ff00" stroke-width=".3084" points="398.5455,-387.2595 388.9512,-382.765 393.6486,-392.2616 398.5455,-387.2595"/>
</g>
<!-- agent_S&#45;&gt;backward -->
<g id="edge5" class="edge">
<title>agent_S&#45;&gt;backward</title>
<path fill="none" stroke="#ff0000" stroke-width=".5374" stroke-dasharray="1,5" d="M1028.7885,-551.2213C1022.9605,-546.1123 1015.2105,-539.9252 1007.5226,-535.6123 966.6904,-512.7053 949.9025,-521.5144 908.5226,-499.6123 904.1979,-497.3232 899.8231,-494.7016 895.5542,-491.9391"/>
<polygon fill="#ff0000" stroke="#ff0000" stroke-width=".5374" points="897.2312,-488.8476 886.9901,-486.1326 893.3029,-494.6414 897.2312,-488.8476"/>
</g>
<!-- 277 -->
<g id="node29" class="node">
<title>277</title>
<ellipse fill="#ffffff" stroke="#000000" cx="913.5226" cy="-284.7767" rx="21.4286" ry="21.4286"/>
<text text-anchor="middle" x="913.5226" y="-282.5767" font-family="Times,serif" font-size="9.00" fill="#000000">277</text>
</g>
<!-- agent_S&#45;&gt;277 -->
<g id="edge35" class="edge">
<title>agent_S&#45;&gt;277</title>
<path fill="none" stroke="#00ff00" stroke-width=".8934" stroke-dasharray="1,5" d="M1030.3562,-551.304C1009.2365,-527.299 952.7102,-459.2307 927.5226,-391.4874 918.5131,-367.2557 915.1528,-338.0463 913.9671,-316.3178"/>
<polygon fill="#00ff00" stroke="#00ff00" stroke-width=".8934" points="917.4632,-316.1501 913.5444,-306.3067 910.4694,-316.4454 917.4632,-316.1501"/>
</g>
<!-- landmark_S -->
<g id="node14" class="node">
<title>landmark_S</title>
<polygon fill="#d3d3d3" stroke="#000000" points="1074.5226,-472.5498 1014.5226,-472.5498 1014.5226,-454.5498 1074.5226,-454.5498 1074.5226,-472.5498"/>
<text text-anchor="middle" x="1044.5226" y="-461.3498" font-family="Times,serif" font-size="9.00" fill="#000000">landmark_S</text>
</g>
<!-- landmark_S&#45;&gt;left -->
<g id="edge17" class="edge">
<title>landmark_S&#45;&gt;left</title>
<path fill="none" stroke="#00ff00" stroke-width=".5997" stroke-dasharray="1,5" d="M1043.9158,-454.4606C1042.1934,-433.4753 1035.9867,-380.5001 1015.5226,-341.9899 993.3187,-300.2055 984.6733,-286.9211 943.5226,-263.5635 920.5857,-250.5442 749.664,-219.9533 679.9725,-207.8611"/>
<polygon fill="#00ff00" stroke="#00ff00" stroke-width=".5997" points="680.5238,-204.4046 670.0738,-206.15 679.3314,-211.3023 680.5238,-204.4046"/>
</g>
<!-- landmark_S&#45;&gt;forward -->
<g id="edge19" class="edge">
<title>landmark_S&#45;&gt;forward</title>
<path fill="none" stroke="#ff0000" stroke-width=".1369" stroke-dasharray="1,5" d="M1051.5363,-454.4502C1070.3508,-429.1005 1120.5226,-354.9251 1120.5226,-284.7767 1120.5226,-284.7767 1120.5226,-284.7767 1120.5226,-202.8148 1120.5226,-110.6944 801.2859,-54.8582 685.1366,-37.5917"/>
<polygon fill="#ff0000" stroke="#ff0000" stroke-width=".1369" points="685.5912,-34.121 675.1894,-36.1338 684.5761,-41.047 685.5912,-34.121"/>
</g>
<!-- 902 -->
<g id="node22" class="node">
<title>902</title>
<ellipse fill="#ffffff" stroke="#000000" cx="957.5226" cy="-366.7386" rx="21.4286" ry="21.4286"/>
<text text-anchor="middle" x="957.5226" y="-364.5386" font-family="Times,serif" font-size="9.00" fill="#000000">902</text>
</g>
<!-- landmark_S&#45;&gt;902 -->
<g id="edge46" class="edge">
<title>landmark_S&#45;&gt;902</title>
<path fill="none" stroke="#00ff00" stroke-width=".1733" d="M1036.1807,-454.2672C1023.1147,-439.7276 997.4085,-411.1225 978.9356,-390.5664"/>
<polygon fill="#00ff00" stroke="#00ff00" stroke-width=".1733" points="981.2954,-387.956 972.008,-382.8575 976.0889,-392.6349 981.2954,-387.956"/>
</g>
<!-- landmark_S&#45;&gt;277 -->
<g id="edge31" class="edge">
<title>landmark_S&#45;&gt;277</title>
<path fill="none" stroke="#ff0000" stroke-width=".1328" d="M1041.9142,-454.5099C1035.4333,-433.1764 1016.9658,-378.7327 987.5226,-341.9899 974.4498,-325.6761 955.812,-311.3018 940.5118,-301.0417"/>
<polygon fill="#ff0000" stroke="#ff0000" stroke-width=".1328" points="942.2507,-297.9979 931.9563,-295.4926 938.4415,-303.8707 942.2507,-297.9979"/>
</g>
<!-- 1017 -->
<g id="node31" class="node">
<title>1017</title>
<ellipse fill="#ffffff" stroke="#000000" cx="825.5226" cy="-202.8148" rx="25" ry="25"/>
<text text-anchor="middle" x="825.5226" y="-200.6148" font-family="Times,serif" font-size="9.00" fill="#000000">1017</text>
</g>
<!-- landmark_S&#45;&gt;1017 -->
<g id="edge62" class="edge">
<title>landmark_S&#45;&gt;1017</title>
<path fill="none" stroke="#00ff00" stroke-width=".1839" d="M1049.0057,-454.3604C1063.3035,-423.5879 1104.2767,-322.7763 1058.5226,-263.5635 1034.4101,-232.3581 919.2812,-214.1527 860.3911,-206.735"/>
<polygon fill="#00ff00" stroke="#00ff00" stroke-width=".1839" points="860.7749,-203.2559 850.4237,-205.5151 859.9244,-210.2041 860.7749,-203.2559"/>
</g>
<!-- agent_SE -->
<g id="node15" class="node">
<title>agent_SE</title>
<polygon fill="#d3d3d3" stroke="#000000" points="82.0226,-472.5498 31.0226,-472.5498 31.0226,-454.5498 82.0226,-454.5498 82.0226,-472.5498"/>
<text text-anchor="middle" x="56.5226" y="-461.3498" font-family="Times,serif" font-size="9.00" fill="#000000">agent_SE</text>
</g>
<!-- agent_SE&#45;&gt;right -->
<g id="edge30" class="edge">
<title>agent_SE&#45;&gt;right</title>
<path fill="none" stroke="#00ff00" stroke-width=".6249" d="M63.745,-454.5102C71.0543,-446.0458 83.1591,-433.7849 96.5226,-427.4874 195.2847,-380.9465 239.0772,-434.2743 339.5226,-391.4874 341.6226,-390.5929 343.7051,-389.5266 345.7408,-388.3466"/>
<polygon fill="#00ff00" stroke="#00ff00" stroke-width=".6249" points="347.9174,-391.1011 354.2742,-382.6251 344.0192,-385.287 347.9174,-391.1011"/>
</g>
<!-- agent_SE&#45;&gt;forward -->
<g id="edge12" class="edge">
<title>agent_SE&#45;&gt;forward</title>
<path fill="none" stroke="#ff0000" stroke-width=".8979" stroke-dasharray="1,5" d="M59.6287,-454.3688C68.1945,-428.2031 91.5226,-350.8755 91.5226,-284.7767 91.5226,-284.7767 91.5226,-284.7767 91.5226,-202.8148 91.5226,-96.2056 471.9579,-48.7567 601.171,-35.7155"/>
<polygon fill="#ff0000" stroke="#ff0000" stroke-width=".8979" points="601.8525,-39.1652 611.4588,-34.6966 601.1626,-32.1993 601.8525,-39.1652"/>
</g>
<!-- 395 -->
<g id="node23" class="node">
<title>395</title>
<ellipse fill="#ffffff" stroke="#000000" cx="643.5226" cy="-120.8528" rx="21.4286" ry="21.4286"/>
<text text-anchor="middle" x="643.5226" y="-118.6528" font-family="Times,serif" font-size="9.00" fill="#000000">395</text>
</g>
<!-- agent_SE&#45;&gt;395 -->
<g id="edge33" class="edge">
<title>agent_SE&#45;&gt;395</title>
<path fill="none" stroke="#ff0000" stroke-width=".2359" d="M65.3196,-454.3455C72.9152,-446.6694 84.3916,-435.6999 95.5226,-427.4874 276.4083,-294.0298 334.6545,-278.9747 535.5226,-178.066 569.6403,-160.9266 580.4636,-161.1679 613.5226,-142.066 615.0035,-141.2103 616.5033,-140.3012 618.0018,-139.3592"/>
<polygon fill="#ff0000" stroke="#ff0000" stroke-width=".2359" points="620.0452,-142.2035 626.429,-133.7478 616.1655,-136.377 620.0452,-142.2035"/>
</g>
<!-- landmark_SE -->
<g id="node16" class="node">
<title>landmark_SE</title>
<polygon fill="#d3d3d3" stroke="#000000" points="1144.0226,-569.361 1079.0226,-569.361 1079.0226,-551.361 1144.0226,-551.361 1144.0226,-569.361"/>
<text text-anchor="middle" x="1111.5226" y="-558.161" font-family="Times,serif" font-size="9.00" fill="#000000">landmark_SE</text>
</g>
<!-- landmark_SE&#45;&gt;left -->
<g id="edge56" class="edge">
<title>landmark_SE&#45;&gt;left</title>
<path fill="none" stroke="#00ff00" stroke-width=".2089" stroke-dasharray="1,5" d="M1096.7993,-551.292C1089.0261,-546.5502 1079.3029,-540.6914 1070.5226,-535.6123 1041.9371,-519.0764 1030.9803,-520.6473 1005.5226,-499.6123 900.1834,-412.5729 919.6412,-343.0925 808.5226,-263.5635 768.6288,-235.011 713.5794,-217.8645 680.1033,-209.3897"/>
<polygon fill="#00ff00" stroke="#00ff00" stroke-width=".2089" points="680.5832,-205.9043 670.0391,-206.9393 678.9273,-212.7056 680.5832,-205.9043"/>
</g>
<!-- landmark_SE&#45;&gt;forward -->
<g id="edge3" class="edge">
<title>landmark_SE&#45;&gt;forward</title>
<path fill="none" stroke="#00ff00" stroke-width=".1009" d="M1115.3688,-551.2818C1126.5938,-523.933 1158.5226,-439.726 1158.5226,-366.7386 1158.5226,-366.7386 1158.5226,-366.7386 1158.5226,-202.8148 1158.5226,-176.3744 1151.6357,-151.1754 1038.5226,-99.6396 975.853,-71.0865 773.9232,-46.14 685.5718,-36.2951"/>
<polygon fill="#00ff00" stroke="#00ff00" stroke-width=".1009" points="685.7009,-32.7881 675.3773,-35.1701 684.9331,-39.7459 685.7009,-32.7881"/>
</g>
<!-- landmark_SE&#45;&gt;backward -->
<g id="edge13" class="edge">
<title>landmark_SE&#45;&gt;backward</title>
<path fill="none" stroke="#ff0000" stroke-width=".715" d="M1098.7953,-551.1966C1090.9727,-545.9495 1080.5567,-539.6302 1070.5226,-535.6123 1002.0517,-508.1945 975.8158,-529.8055 908.5226,-499.6123 903.8812,-497.5298 899.2397,-494.9774 894.7581,-492.2014"/>
<polygon fill="#ff0000" stroke="#ff0000" stroke-width=".715" points="896.649,-489.2557 886.379,-486.6522 892.7839,-495.0919 896.649,-489.2557"/>
</g>
<!-- left&#45;&gt;left -->
<g id="edge1" class="edge">
<title>left&#45;&gt;left</title>
<path fill="none" stroke="#ff0000" stroke-width=".1305" stroke-dasharray="1,5" d="M665.6597,-216.0423C676.9463,-220.6614 688.3216,-216.2523 688.3216,-202.8148 688.3216,-193.5765 682.945,-188.6055 675.917,-187.9018"/>
<polygon fill="#ff0000" stroke="#ff0000" stroke-width=".1305" points="674.9599,-184.512 665.6597,-189.5872 676.0949,-191.4194 674.9599,-184.512"/>
</g>
<!-- forward&#45;&gt;forward -->
<g id="edge23" class="edge">
<title>forward&#45;&gt;forward</title>
<path fill="none" stroke="#00ff00" stroke-width=".207" stroke-dasharray="1,5" d="M670.9356,-48.0932C682.979,-49.5333 693.3424,-44.1089 693.3424,-31.8198 693.3424,-23.1791 688.2189,-17.9321 680.9904,-16.0788"/>
<polygon fill="#00ff00" stroke="#00ff00" stroke-width=".207" points="681.1067,-12.5802 670.9356,-15.5464 680.7365,-19.5704 681.1067,-12.5802"/>
</g>
<!-- forward&#45;&gt;395 -->
<g id="edge36" class="edge">
<title>forward&#45;&gt;395</title>
<path fill="none" stroke="#ff0000" stroke-width=".3808" d="M650.0034,-63.1782C650.3706,-71.9098 650.3622,-81.3834 649.9782,-90.081"/>
<polygon fill="#ff0000" stroke="#ff0000" stroke-width=".3808" points="646.4763,-89.998 649.3234,-100.2031 653.4617,-90.4499 646.4763,-89.998"/>
</g>
<!-- forward&#45;&gt;1017 -->
<g id="edge52" class="edge">
<title>forward&#45;&gt;1017</title>
<path fill="none" stroke="#ff0000" stroke-width=".1374" d="M666.9695,-53.8489C701.1642,-85.9759 764.4845,-145.4675 799.8795,-178.7222"/>
<polygon fill="#ff0000" stroke="#ff0000" stroke-width=".1374" points="797.7218,-181.4974 807.4064,-185.794 802.515,-176.3958 797.7218,-181.4974"/>
</g>
<!-- backward&#45;&gt;902 -->
<g id="edge49" class="edge">
<title>backward&#45;&gt;902</title>
<path fill="none" stroke="#ff0000" stroke-width=".3457" d="M884.5337,-438.1138C900.145,-422.8477 919.814,-403.6136 934.7994,-388.9595"/>
<polygon fill="#ff0000" stroke="#ff0000" stroke-width=".3457" points="937.4599,-391.2532 942.1625,-381.7592 932.5658,-386.2484 937.4599,-391.2532"/>
</g>
<!-- 1154&#45;&gt;468 -->
<g id="edge59" class="edge">
<title>1154&#45;&gt;468</title>
<path fill="none" stroke="#00ff00" stroke-width=".743" d="M483.5226,-341.702C483.5226,-333.6915 483.5226,-324.7181 483.5226,-316.3066"/>
<polygon fill="#00ff00" stroke="#00ff00" stroke-width=".743" points="487.0227,-316.0672 483.5226,-306.0672 480.0227,-316.0673 487.0227,-316.0672"/>
</g>
<!-- 902&#45;&gt;277 -->
<g id="edge47" class="edge">
<title>902&#45;&gt;277</title>
<path fill="none" stroke="#ff0000" stroke-width=".3161" stroke-dasharray="1,5" d="M947.3176,-347.7289C941.7087,-337.2808 934.6476,-324.1276 928.432,-312.5494"/>
<polygon fill="#ff0000" stroke="#ff0000" stroke-width=".3161" points="931.4861,-310.8386 923.6724,-303.6833 925.3186,-314.1495 931.4861,-310.8386"/>
</g>
<!-- 395&#45;&gt;forward -->
<g id="edge34" class="edge">
<title>395&#45;&gt;forward</title>
<path fill="none" stroke="#ff0000" stroke-width=".5166" stroke-dasharray="1,5" d="M637.7219,-100.2031C637.0097,-92.13 636.6982,-82.5702 636.7876,-73.1968"/>
<polygon fill="#ff0000" stroke="#ff0000" stroke-width=".5166" points="640.2869,-73.2638 637.0419,-63.1782 633.2892,-73.0862 640.2869,-73.2638"/>
</g>
<!-- 843&#45;&gt;right -->
<g id="edge44" class="edge">
<title>843&#45;&gt;right</title>
<path fill="none" stroke="#00ff00" stroke-width=".2172" d="M209.2683,-445.5199C214.2362,-439.0679 220.5035,-432.2274 227.5226,-427.4874 270.8538,-398.2259 293.2581,-415.8475 339.5226,-391.4874 341.4918,-390.4505 343.4638,-389.2912 345.4077,-388.0555"/>
<polygon fill="#00ff00" stroke="#00ff00" stroke-width=".2172" points="347.4622,-390.8898 353.6548,-382.2931 343.4529,-385.1517 347.4622,-390.8898"/>
</g>
<!-- 973&#45;&gt;right -->
<g id="edge51" class="edge">
<title>973&#45;&gt;right</title>
<path fill="none" stroke="#ff0000" stroke-width=".5513" d="M365.2981,-442.0643C366.3105,-429.8125 367.6017,-414.187 368.7454,-400.3471"/>
<polygon fill="#ff0000" stroke="#ff0000" stroke-width=".5513" points="372.2486,-400.4514 369.5842,-390.1971 365.2724,-399.8748 372.2486,-400.4514"/>
</g>
<!-- 722 -->
<g id="node26" class="node">
<title>722</title>
<ellipse fill="#ffffff" stroke="#000000" cx="1207.5226" cy="-120.8528" rx="21.4286" ry="21.4286"/>
<text text-anchor="middle" x="1207.5226" y="-118.6528" font-family="Times,serif" font-size="9.00" fill="#000000">722</text>
</g>
<!-- 722&#45;&gt;forward -->
<g id="edge40" class="edge">
<title>722&#45;&gt;forward</title>
<path fill="none" stroke="#00ff00" stroke-width=".287" d="M1190.0735,-108.3229C1184.6775,-104.9974 1178.5594,-101.7493 1172.5226,-99.6396 1082.4328,-68.1564 794.4361,-43.4022 685.6609,-34.9533"/>
<polygon fill="#00ff00" stroke="#00ff00" stroke-width=".287" points="685.6436,-31.4417 675.4045,-34.1638 685.1063,-38.421 685.6436,-31.4417"/>
</g>
<!-- 755&#45;&gt;left -->
<g id="edge42" class="edge">
<title>755&#45;&gt;left</title>
<path fill="none" stroke="#ff0000" stroke-width=".4255" stroke-dasharray="1,5" d="M606.322,-539.0656C614.3296,-478.1487 637.3465,-303.0506 646.6005,-232.6519"/>
<polygon fill="#ff0000" stroke="#ff0000" stroke-width=".4255" points="650.0797,-233.0384 647.913,-222.6675 643.1394,-232.126 650.0797,-233.0384"/>
</g>
<!-- 755&#45;&gt;973 -->
<g id="edge64" class="edge">
<title>755&#45;&gt;973</title>
<path fill="none" stroke="#00ff00" stroke-width=".1772" d="M582.3171,-557.7002C543.4393,-552.0693 459.1793,-536.3204 398.5226,-499.6123 393.2627,-496.429 388.2465,-492.2657 383.7384,-487.9031"/>
<polygon fill="#00ff00" stroke="#00ff00" stroke-width=".1772" points="386.1159,-485.325 376.678,-480.5109 381.0538,-490.1599 386.1159,-485.325"/>
</g>
<!-- 755&#45;&gt;755 -->
<g id="edge45" class="edge">
<title>755&#45;&gt;755</title>
<path fill="none" stroke="#ff0000" stroke-width=".1148" d="M621.2669,-572.2114C632.2672,-575.0689 642.7358,-571.1188 642.7358,-560.361 642.7358,-553.1331 638.0101,-548.9783 631.5725,-547.8966"/>
<polygon fill="#ff0000" stroke="#ff0000" stroke-width=".1148" points="631.041,-544.4219 621.2669,-548.5106 631.4574,-551.4095 631.041,-544.4219"/>
</g>
<!-- 468&#45;&gt;left -->
<g id="edge38" class="edge">
<title>468&#45;&gt;left</title>
<path fill="none" stroke="#ff0000" stroke-width=".1657" stroke-dasharray="1,5" d="M502.0593,-274.4237C508.4973,-270.9002 515.7904,-266.9887 522.5226,-263.5635 556.7371,-246.1559 596.8053,-227.3959 622.8749,-215.4017"/>
<polygon fill="#ff0000" stroke="#ff0000" stroke-width=".1657" points="624.5087,-218.503 632.1395,-211.153 621.5907,-212.1402 624.5087,-218.503"/>
</g>
<!-- 468&#45;&gt;395 -->
<g id="edge60" class="edge">
<title>468&#45;&gt;395</title>
<path fill="none" stroke="#00ff00" stroke-width=".2401" d="M498.5751,-269.3551C526.9256,-240.3093 588.3541,-177.3743 621.4076,-143.5102"/>
<polygon fill="#00ff00" stroke="#00ff00" stroke-width=".2401" points="623.9134,-145.9538 628.3937,-136.3528 618.9041,-141.0643 623.9134,-145.9538"/>
</g>
<!-- 277&#45;&gt;left -->
<g id="edge32" class="edge">
<title>277&#45;&gt;left</title>
<path fill="none" stroke="#00ff00" stroke-width=".4825" d="M895.88,-272.7464C890.4786,-269.4351 884.4061,-266.0693 878.5226,-263.5635 810.2802,-234.4985 724.5101,-216.1577 680.1476,-207.9112"/>
<polygon fill="#00ff00" stroke="#00ff00" stroke-width=".4825" points="680.5164,-204.421 670.0518,-206.0769 679.265,-211.3082 680.5164,-204.421"/>
</g>
<!-- 277&#45;&gt;backward -->
<g id="edge63" class="edge">
<title>277&#45;&gt;backward</title>
<path fill="none" stroke="#ff0000" stroke-width=".2291" d="M906.5894,-305.1133C902.9164,-316.0203 898.3796,-329.7078 894.5226,-341.9899 886.5381,-367.4161 878.0531,-395.984 871.3273,-419.0338"/>
<polygon fill="#ff0000" stroke="#ff0000" stroke-width=".2291" points="867.8968,-418.2965 868.4643,-428.8761 874.6182,-420.2517 867.8968,-418.2965"/>
</g>
<!-- 277&#45;&gt;1017 -->
<g id="edge57" class="edge">
<title>277&#45;&gt;1017</title>
<path fill="none" stroke="#ff0000" stroke-width=".398" d="M897.79,-270.1235C884.9077,-258.1252 866.4193,-240.9053 851.3679,-226.8867"/>
<polygon fill="#ff0000" stroke="#ff0000" stroke-width=".398" points="853.5613,-224.1466 843.8582,-219.8922 848.7904,-229.269 853.5613,-224.1466"/>
</g>
<!-- 1362&#45;&gt;right -->
<g id="edge68" class="edge">
<title>1362&#45;&gt;right</title>
<path fill="none" stroke="#ff0000" stroke-width=".5505" d="M279.6432,-446.5245C286.1743,-440.4601 293.6324,-433.6166 300.5226,-427.4874 315.2779,-414.3617 332.055,-399.9825 345.5945,-388.5099"/>
<polygon fill="#ff0000" stroke="#ff0000" stroke-width=".5505" points="348.1803,-390.9072 353.5594,-381.7794 343.6622,-385.5605 348.1803,-390.9072"/>
</g>
<!-- 1017&#45;&gt;395 -->
<g id="edge53" class="edge">
<title>1017&#45;&gt;395</title>
<path fill="none" stroke="#ff0000" stroke-width=".2167" d="M802.8402,-192.5999C769.829,-177.7337 708.5519,-150.1381 672.3725,-133.8451"/>
<polygon fill="#ff0000" stroke="#ff0000" stroke-width=".2167" points="673.4332,-130.4842 662.8779,-129.5693 670.5588,-136.8669 673.4332,-130.4842"/>
</g>
<!-- 1051&#45;&gt;right -->
<g id="edge55" class="edge">
<title>1051&#45;&gt;right</title>
<path fill="none" stroke="#00ff00" stroke-width=".106" d="M679.6389,-457.0379C634.541,-444.6833 533.8094,-416.8091 449.5226,-391.4874 434.4134,-386.9482 417.7355,-381.6902 403.6929,-377.1911"/>
<polygon fill="#00ff00" stroke="#00ff00" stroke-width=".106" points="404.585,-373.8015 393.9936,-374.0704 402.441,-380.4651 404.585,-373.8015"/>
</g>
<!-- 1051&#45;&gt;277 -->
<g id="edge61" class="edge">
<title>1051&#45;&gt;277</title>
<path fill="none" stroke="#ff0000" stroke-width=".4598" d="M722.5291,-447.3696C760.8638,-414.7353 847.3766,-341.0869 889.5302,-305.2014"/>
<polygon fill="#ff0000" stroke="#ff0000" stroke-width=".4598" points="891.9964,-307.6985 897.3421,-298.5512 887.4588,-302.3684 891.9964,-307.6985"/>
</g>
<!-- 1343&#45;&gt;backward -->
<g id="edge66" class="edge">
<title>1343&#45;&gt;backward</title>
<path fill="none" stroke="#00ff00" stroke-width=".4888" d="M954.5327,-544.3746C938.0875,-530.5304 913.8642,-510.1384 893.8638,-493.3013"/>
<polygon fill="#00ff00" stroke="#00ff00" stroke-width=".4888" points="896.0545,-490.5704 886.1503,-486.8078 891.5464,-495.9255 896.0545,-490.5704"/>
</g>
</g>
</svg>
