<?xml version="1.0" encoding="UTF-8" standalone="no"?>
<!DOCTYPE svg PUBLIC "-//W3C//DTD SVG 1.1//EN"
 "http://www.w3.org/Graphics/SVG/1.1/DTD/svg11.dtd">
<!-- Generated by graphviz version 2.40.1 (20161225.0304)
 -->
<!-- Title: %3 Pages: 1 -->
<svg width="1097pt" height="213pt"
 viewBox="0.00 0.00 1097.43 212.55" xmlns="http://www.w3.org/2000/svg" xmlns:xlink="http://www.w3.org/1999/xlink">
<g id="graph0" class="graph" transform="scale(1 1) rotate(0) translate(4 208.5513)">
<title>%3</title>
<polygon fill="#ffffff" stroke="transparent" points="-4,4 -4,-208.5513 1093.4264,-208.5513 1093.4264,4 -4,4"/>
<!-- x&#45;vel -->
<g id="node1" class="node">
<title>x&#45;vel</title>
<polygon fill="#d3d3d3" stroke="#000000" points="674.7132,-138.3381 639.7132,-138.3381 639.7132,-120.3381 674.7132,-120.3381 674.7132,-138.3381"/>
<text text-anchor="middle" x="657.2132" y="-127.1381" font-family="Times,serif" font-size="9.00" fill="#000000">x&#45;vel</text>
</g>
<!-- right -->
<g id="node14" class="node">
<title>right</title>
<ellipse fill="#add8e6" stroke="#000000" cx="231.2132" cy="-36.0624" rx="23.1702" ry="23.1702"/>
<text text-anchor="middle" x="231.2132" y="-33.8624" font-family="Times,serif" font-size="9.00" fill="#000000">right</text>
</g>
<!-- x&#45;vel&#45;&gt;right -->
<g id="edge8" class="edge">
<title>x&#45;vel&#45;&gt;right</title>
<path fill="none" stroke="#ff0000" stroke-width=".9193" d="M648.4543,-120.0279C643.7757,-115.6591 637.6599,-110.829 631.2132,-108.1249 496.7904,-51.7397 445.2363,-112.6504 305.2132,-72.1249 289.7476,-67.6488 273.5631,-60.1286 260.2875,-53.1102"/>
<polygon fill="#ff0000" stroke="#ff0000" stroke-width=".9193" points="261.6407,-49.8613 251.1868,-48.1391 258.2851,-56.0046 261.6407,-49.8613"/>
</g>
<!-- left -->
<g id="node15" class="node">
<title>left</title>
<ellipse fill="#add8e6" stroke="#000000" cx="438.2132" cy="-36.0624" rx="19.6" ry="19.6"/>
<text text-anchor="middle" x="438.2132" y="-33.8624" font-family="Times,serif" font-size="9.00" fill="#000000">left</text>
</g>
<!-- x&#45;vel&#45;&gt;left -->
<g id="edge23" class="edge">
<title>x&#45;vel&#45;&gt;left</title>
<path fill="none" stroke="#00ff00" stroke-width=".25" stroke-dasharray="1,5" d="M647.6496,-120.2615C642.9628,-116.1585 637.0749,-111.4877 631.2132,-108.1249 576.9086,-76.9706 506.6335,-54.7292 467.617,-43.7776"/>
<polygon fill="#00ff00" stroke="#00ff00" stroke-width=".25" points="468.0506,-40.267 457.4805,-40.9901 466.1945,-47.0164 468.0506,-40.267"/>
</g>
<!-- forward -->
<g id="node16" class="node">
<title>forward</title>
<ellipse fill="#add8e6" stroke="#000000" cx="812.2132" cy="-36.0624" rx="31.6406" ry="31.6406"/>
<text text-anchor="middle" x="812.2132" y="-33.8624" font-family="Times,serif" font-size="9.00" fill="#000000">forward</text>
</g>
<!-- x&#45;vel&#45;&gt;forward -->
<g id="edge19" class="edge">
<title>x&#45;vel&#45;&gt;forward</title>
<path fill="none" stroke="#ff0000" stroke-width=".5523" stroke-dasharray="1,5" d="M667.9629,-120.2756C672.8012,-116.3601 678.663,-111.8359 684.2132,-108.1249 713.5732,-88.4942 748.6277,-69.0132 774.6227,-55.2651"/>
<polygon fill="#ff0000" stroke="#ff0000" stroke-width=".5523" points="776.5335,-58.2152 783.7626,-50.4698 773.2813,-52.0165 776.5335,-58.2152"/>
</g>
<!-- backward -->
<g id="node17" class="node">
<title>backward</title>
<ellipse fill="#add8e6" stroke="#000000" cx="657.2132" cy="-36.0624" rx="36.125" ry="36.125"/>
<text text-anchor="middle" x="657.2132" y="-33.8624" font-family="Times,serif" font-size="9.00" fill="#000000">backward</text>
</g>
<!-- x&#45;vel&#45;&gt;backward -->
<g id="edge12" class="edge">
<title>x&#45;vel&#45;&gt;backward</title>
<path fill="none" stroke="#ff0000" stroke-width=".1861" d="M657.2132,-120.0535C657.2132,-111.0801 657.2132,-96.7825 657.2132,-82.5089"/>
<polygon fill="#ff0000" stroke="#ff0000" stroke-width=".1861" points="660.7133,-82.1961 657.2132,-72.1962 653.7133,-82.1962 660.7133,-82.1961"/>
</g>
<!-- y&#45;vel -->
<g id="node2" class="node">
<title>y&#45;vel</title>
<polygon fill="#d3d3d3" stroke="#000000" points="87.7132,-204.5513 52.7132,-204.5513 52.7132,-186.5513 87.7132,-186.5513 87.7132,-204.5513"/>
<text text-anchor="middle" x="70.2132" y="-193.3513" font-family="Times,serif" font-size="9.00" fill="#000000">y&#45;vel</text>
</g>
<!-- none -->
<g id="node13" class="node">
<title>none</title>
<ellipse fill="#add8e6" stroke="#000000" cx="338.2132" cy="-36.0624" rx="24.0833" ry="24.0833"/>
<text text-anchor="middle" x="338.2132" y="-33.8624" font-family="Times,serif" font-size="9.00" fill="#000000">none</text>
</g>
<!-- y&#45;vel&#45;&gt;none -->
<g id="edge31" class="edge">
<title>y&#45;vel&#45;&gt;none</title>
<path fill="none" stroke="#ff0000" stroke-width=".6164" d="M75.0725,-186.324C85.9318,-166.0356 112.3757,-118.5246 127.2132,-108.1249 184.7721,-67.7812 216.3868,-99.2943 281.2132,-72.1249 291.1761,-67.9493 301.3604,-62.1003 310.3127,-56.3261"/>
<polygon fill="#ff0000" stroke="#ff0000" stroke-width=".6164" points="312.4394,-59.1142 318.8006,-50.6415 308.5442,-53.2981 312.4394,-59.1142"/>
</g>
<!-- y&#45;vel&#45;&gt;right -->
<g id="edge18" class="edge">
<title>y&#45;vel&#45;&gt;right</title>
<path fill="none" stroke="#00ff00" stroke-width=".3667" stroke-dasharray="1,5" d="M70.4124,-186.3067C71.2445,-169.0776 75.2758,-131.6757 94.2132,-108.1249 121.0343,-74.7697 167.5075,-55.0257 198.8,-44.867"/>
<polygon fill="#00ff00" stroke="#00ff00" stroke-width=".3667" points="199.8647,-48.2013 208.3823,-41.9004 197.7945,-41.5144 199.8647,-48.2013"/>
</g>
<!-- 128 -->
<g id="node18" class="node">
<title>128</title>
<ellipse fill="#ffffff" stroke="#000000" cx="21.2132" cy="-129.3381" rx="21.4286" ry="21.4286"/>
<text text-anchor="middle" x="21.2132" y="-127.1381" font-family="Times,serif" font-size="9.00" fill="#000000">128</text>
</g>
<!-- y&#45;vel&#45;&gt;128 -->
<g id="edge34" class="edge">
<title>y&#45;vel&#45;&gt;128</title>
<path fill="none" stroke="#00ff00" stroke-width=".1358" d="M63.4,-186.3446C57.3649,-178.1895 48.264,-165.8915 40.0582,-154.8032"/>
<polygon fill="#00ff00" stroke="#00ff00" stroke-width=".1358" points="42.7854,-152.6046 34.0234,-146.6483 37.1586,-156.7687 42.7854,-152.6046"/>
</g>
<!-- x&#45;pos -->
<g id="node3" class="node">
<title>x&#45;pos</title>
<polygon fill="#d3d3d3" stroke="#000000" points="729.2132,-138.3381 693.2132,-138.3381 693.2132,-120.3381 729.2132,-120.3381 729.2132,-138.3381"/>
<text text-anchor="middle" x="711.2132" y="-127.1381" font-family="Times,serif" font-size="9.00" fill="#000000">x&#45;pos</text>
</g>
<!-- x&#45;pos&#45;&gt;none -->
<g id="edge25" class="edge">
<title>x&#45;pos&#45;&gt;none</title>
<path fill="none" stroke="#00ff00" stroke-width=".6186" d="M702.0324,-120.0862C697.1521,-115.7322 690.8074,-110.8978 684.2132,-108.1249 570.5855,-60.3439 526.9704,-108.5601 409.2132,-72.1249 395.0048,-67.7287 380.2,-60.659 367.8091,-53.9391"/>
<polygon fill="#00ff00" stroke="#00ff00" stroke-width=".6186" points="369.2883,-50.7559 358.854,-48.9186 365.8651,-56.8618 369.2883,-50.7559"/>
</g>
<!-- x&#45;pos&#45;&gt;forward -->
<g id="edge22" class="edge">
<title>x&#45;pos&#45;&gt;forward</title>
<path fill="none" stroke="#ff0000" stroke-width=".4118" d="M721.2667,-120.0535C735.0708,-107.3051 760.5108,-83.8108 780.9815,-64.9056"/>
<polygon fill="#ff0000" stroke="#ff0000" stroke-width=".4118" points="783.5773,-67.2726 788.5491,-57.9167 778.8281,-62.1301 783.5773,-67.2726"/>
</g>
<!-- y&#45;pos -->
<g id="node4" class="node">
<title>y&#45;pos</title>
<polygon fill="#d3d3d3" stroke="#000000" points="775.2132,-204.5513 739.2132,-204.5513 739.2132,-186.5513 775.2132,-186.5513 775.2132,-204.5513"/>
<text text-anchor="middle" x="757.2132" y="-193.3513" font-family="Times,serif" font-size="9.00" fill="#000000">y&#45;pos</text>
</g>
<!-- y&#45;pos&#45;&gt;none -->
<g id="edge2" class="edge">
<title>y&#45;pos&#45;&gt;none</title>
<path fill="none" stroke="#00ff00" stroke-width=".4215" d="M739.0217,-195.1651C657.8167,-193.2572 331.1271,-183.5626 301.2132,-150.5513 279.0337,-126.0753 298.3701,-88.1556 316.3976,-62.7381"/>
<polygon fill="#00ff00" stroke="#00ff00" stroke-width=".4215" points="319.2599,-64.754 322.3992,-54.635 313.6348,-60.5877 319.2599,-64.754"/>
</g>
<!-- y&#45;pos&#45;&gt;left -->
<g id="edge26" class="edge">
<title>y&#45;pos&#45;&gt;left</title>
<path fill="none" stroke="#00ff00" stroke-width=".1292" d="M739.0031,-194.8035C684.634,-192.2299 524.8053,-182.0866 485.2132,-150.5513 459.2484,-129.8703 447.5052,-92.4544 442.2748,-66.0341"/>
<polygon fill="#00ff00" stroke="#00ff00" stroke-width=".1292" points="445.7155,-65.3913 440.5181,-56.1589 438.8237,-66.6173 445.7155,-65.3913"/>
</g>
<!-- y&#45;pos&#45;&gt;forward -->
<g id="edge1" class="edge">
<title>y&#45;pos&#45;&gt;forward</title>
<path fill="none" stroke="#ff0000" stroke-width=".456" d="M775.3642,-193.4173C814.7524,-188.3746 905.9963,-174.3268 924.2132,-150.5513 953.1245,-112.8183 893.4753,-74.4246 850.6534,-53.0798"/>
<polygon fill="#ff0000" stroke="#ff0000" stroke-width=".456" points="852.066,-49.8751 841.5406,-48.6636 849.0133,-56.1744 852.066,-49.8751"/>
</g>
<!-- y&#45;pos&#45;&gt;backward -->
<g id="edge14" class="edge">
<title>y&#45;pos&#45;&gt;backward</title>
<path fill="none" stroke="#00ff00" stroke-width=".3843" stroke-dasharray="1,5" d="M757.0555,-186.4586C756.3909,-169.7984 753.1817,-133.7389 738.2132,-108.1249 727.7965,-90.2998 711.4359,-74.5202 696.1373,-62.3055"/>
<polygon fill="#00ff00" stroke="#00ff00" stroke-width=".3843" points="697.8546,-59.2113 687.7918,-55.896 693.5908,-64.763 697.8546,-59.2113"/>
</g>
<!-- 227 -->
<g id="node19" class="node">
<title>227</title>
<ellipse fill="#ffffff" stroke="#000000" cx="1068.2132" cy="-129.3381" rx="21.4286" ry="21.4286"/>
<text text-anchor="middle" x="1068.2132" y="-127.1381" font-family="Times,serif" font-size="9.00" fill="#000000">227</text>
</g>
<!-- y&#45;pos&#45;&gt;227 -->
<g id="edge36" class="edge">
<title>y&#45;pos&#45;&gt;227</title>
<path fill="none" stroke="#ff0000" stroke-width=".2081" d="M775.348,-193.7329C829.594,-188.1241 989.8326,-170.2766 1038.2132,-150.5513 1039.8376,-149.889 1041.4591,-149.1242 1043.0598,-148.2866"/>
<polygon fill="#ff0000" stroke="#ff0000" stroke-width=".2081" points="1045.1655,-151.1016 1051.8717,-142.8994 1041.5142,-145.1293 1045.1655,-151.1016"/>
</g>
<!-- x&#45;lm1&#45;vec -->
<g id="node5" class="node">
<title>x&#45;lm1&#45;vec</title>
<polygon fill="#d3d3d3" stroke="#000000" points="232.7132,-204.5513 179.7132,-204.5513 179.7132,-186.5513 232.7132,-186.5513 232.7132,-204.5513"/>
<text text-anchor="middle" x="206.2132" y="-193.3513" font-family="Times,serif" font-size="9.00" fill="#000000">x&#45;lm1&#45;vec</text>
</g>
<!-- x&#45;lm1&#45;vec&#45;&gt;none -->
<g id="edge4" class="edge">
<title>x&#45;lm1&#45;vec&#45;&gt;none</title>
<path fill="none" stroke="#00ff00" stroke-width=".9969" d="M211.9429,-186.5343C222.4029,-170.2975 245.6036,-135.3045 268.2132,-108.1249 282.2361,-91.2676 299.3678,-73.5879 313.173,-59.9591"/>
<polygon fill="#00ff00" stroke="#00ff00" stroke-width=".9969" points="315.7559,-62.3288 320.4595,-52.8353 310.8623,-57.3235 315.7559,-62.3288"/>
</g>
<!-- x&#45;lm1&#45;vec&#45;&gt;right -->
<g id="edge9" class="edge">
<title>x&#45;lm1&#45;vec&#45;&gt;right</title>
<path fill="none" stroke="#00ff00" stroke-width=".1257" stroke-dasharray="1,5" d="M207.6289,-186.5195C211.1035,-164.3537 220.1922,-106.3718 226.0185,-69.2023"/>
<polygon fill="#00ff00" stroke="#00ff00" stroke-width=".1257" points="229.4771,-69.7389 227.568,-59.3175 222.5615,-68.6548 229.4771,-69.7389"/>
</g>
<!-- 313 -->
<g id="node20" class="node">
<title>313</title>
<ellipse fill="#ffffff" stroke="#000000" cx="157.2132" cy="-129.3381" rx="21.4286" ry="21.4286"/>
<text text-anchor="middle" x="157.2132" y="-127.1381" font-family="Times,serif" font-size="9.00" fill="#000000">313</text>
</g>
<!-- x&#45;lm1&#45;vec&#45;&gt;313 -->
<g id="edge38" class="edge">
<title>x&#45;lm1&#45;vec&#45;&gt;313</title>
<path fill="none" stroke="#00ff00" stroke-width=".3152" stroke-dasharray="1,5" d="M199.4,-186.3446C193.3649,-178.1895 184.264,-165.8915 176.0582,-154.8032"/>
<polygon fill="#00ff00" stroke="#00ff00" stroke-width=".3152" points="178.7854,-152.6046 170.0234,-146.6483 173.1586,-156.7687 178.7854,-152.6046"/>
</g>
<!-- y&#45;lm1&#45;vec -->
<g id="node6" class="node">
<title>y&#45;lm1&#45;vec</title>
<polygon fill="#d3d3d3" stroke="#000000" points="838.7132,-138.3381 785.7132,-138.3381 785.7132,-120.3381 838.7132,-120.3381 838.7132,-138.3381"/>
<text text-anchor="middle" x="812.2132" y="-127.1381" font-family="Times,serif" font-size="9.00" fill="#000000">y&#45;lm1&#45;vec</text>
</g>
<!-- y&#45;lm1&#45;vec&#45;&gt;forward -->
<g id="edge5" class="edge">
<title>y&#45;lm1&#45;vec&#45;&gt;forward</title>
<path fill="none" stroke="#00ff00" stroke-width=".2686" d="M812.2132,-120.0535C812.2132,-110.1499 812.2132,-93.761 812.2132,-78.0765"/>
<polygon fill="#00ff00" stroke="#00ff00" stroke-width=".2686" points="815.7133,-77.9465 812.2132,-67.9466 808.7133,-77.9466 815.7133,-77.9465"/>
</g>
<!-- y&#45;lm1&#45;vec&#45;&gt;backward -->
<g id="edge13" class="edge">
<title>y&#45;lm1&#45;vec&#45;&gt;backward</title>
<path fill="none" stroke="#ff0000" stroke-width=".4273" d="M797.0689,-120.2246C774.0912,-106.3971 729.6455,-79.6506 697.0025,-60.0068"/>
<polygon fill="#ff0000" stroke="#ff0000" stroke-width=".4273" points="698.509,-56.8285 688.1361,-54.6712 694.8996,-62.8263 698.509,-56.8285"/>
</g>
<!-- x&#45;lm2&#45;vec -->
<g id="node7" class="node">
<title>x&#45;lm2&#45;vec</title>
<polygon fill="#d3d3d3" stroke="#000000" points="437.7132,-138.3381 384.7132,-138.3381 384.7132,-120.3381 437.7132,-120.3381 437.7132,-138.3381"/>
<text text-anchor="middle" x="411.2132" y="-127.1381" font-family="Times,serif" font-size="9.00" fill="#000000">x&#45;lm2&#45;vec</text>
</g>
<!-- x&#45;lm2&#45;vec&#45;&gt;right -->
<g id="edge6" class="edge">
<title>x&#45;lm2&#45;vec&#45;&gt;right</title>
<path fill="none" stroke="#00ff00" stroke-width=".6176" d="M396.2812,-120.2299C389.8553,-116.3911 382.2229,-111.9383 375.2132,-108.1249 354.1923,-96.6891 296.8855,-68.3201 261.2268,-50.7807"/>
<polygon fill="#00ff00" stroke="#00ff00" stroke-width=".6176" points="262.7457,-47.6274 252.2272,-46.3579 259.6583,-53.9097 262.7457,-47.6274"/>
</g>
<!-- x&#45;lm2&#45;vec&#45;&gt;left -->
<g id="edge11" class="edge">
<title>x&#45;lm2&#45;vec&#45;&gt;left</title>
<path fill="none" stroke="#ff0000" stroke-width=".8895" d="M413.9008,-120.0535C417.5867,-107.3199 424.376,-83.8651 429.8451,-64.9713"/>
<polygon fill="#ff0000" stroke="#ff0000" stroke-width=".8895" points="433.2217,-65.8938 432.6403,-55.315 426.4977,-63.9474 433.2217,-65.8938"/>
</g>
<!-- x&#45;lm2&#45;vec&#45;&gt;backward -->
<g id="edge15" class="edge">
<title>x&#45;lm2&#45;vec&#45;&gt;backward</title>
<path fill="none" stroke="#ff0000" stroke-width=".3264" stroke-dasharray="1,5" d="M435.2486,-120.2246C476.5912,-104.5488 561.723,-72.2694 613.7089,-52.5579"/>
<polygon fill="#ff0000" stroke="#ff0000" stroke-width=".3264" points="615.2171,-55.7293 623.3267,-48.9112 612.7353,-49.184 615.2171,-55.7293"/>
</g>
<!-- y&#45;lm2&#45;vec -->
<g id="node8" class="node">
<title>y&#45;lm2&#45;vec</title>
<polygon fill="#d3d3d3" stroke="#000000" points="621.7132,-138.3381 568.7132,-138.3381 568.7132,-120.3381 621.7132,-120.3381 621.7132,-138.3381"/>
<text text-anchor="middle" x="595.2132" y="-127.1381" font-family="Times,serif" font-size="9.00" fill="#000000">y&#45;lm2&#45;vec</text>
</g>
<!-- y&#45;lm2&#45;vec&#45;&gt;none -->
<g id="edge28" class="edge">
<title>y&#45;lm2&#45;vec&#45;&gt;none</title>
<path fill="none" stroke="#ff0000" stroke-width=".7549" d="M582.0271,-120.2868C575.4186,-116.0895 567.1499,-111.3319 559.2132,-108.1249 495.6467,-82.4393 473.5514,-95.8112 409.2132,-72.1249 395.2561,-66.9865 380.4913,-59.7984 368.0624,-53.1907"/>
<polygon fill="#ff0000" stroke="#ff0000" stroke-width=".7549" points="369.5219,-50.0003 359.0653,-48.2944 366.1758,-56.1488 369.5219,-50.0003"/>
</g>
<!-- y&#45;lm2&#45;vec&#45;&gt;right -->
<g id="edge27" class="edge">
<title>y&#45;lm2&#45;vec&#45;&gt;right</title>
<path fill="none" stroke="#00ff00" stroke-width=".2126" stroke-dasharray="1,5" d="M582.4847,-120.173C575.8535,-115.8412 567.4298,-111.0004 559.2132,-108.1249 451.5958,-70.4632 414.2342,-105.5062 305.2132,-72.1249 289.9283,-67.4448 273.8734,-59.97 260.6393,-53.0362"/>
<polygon fill="#00ff00" stroke="#00ff00" stroke-width=".2126" points="262.0149,-49.8014 251.5526,-48.1305 258.6894,-55.961 262.0149,-49.8014"/>
</g>
<!-- y&#45;lm2&#45;vec&#45;&gt;forward -->
<g id="edge16" class="edge">
<title>y&#45;lm2&#45;vec&#45;&gt;forward</title>
<path fill="none" stroke="#00ff00" stroke-width="1.0902" d="M609.6453,-120.1472C616.1148,-116.2078 623.9174,-111.7005 631.2132,-108.1249 678.4695,-84.965 735.1457,-63.3371 772.3338,-49.9345"/>
<polygon fill="#00ff00" stroke="#00ff00" stroke-width="1.0902" points="773.5786,-53.2065 781.8159,-46.5433 771.2213,-46.6153 773.5786,-53.2065"/>
</g>
<!-- y&#45;lm2&#45;vec&#45;&gt;backward -->
<g id="edge24" class="edge">
<title>y&#45;lm2&#45;vec&#45;&gt;backward</title>
<path fill="none" stroke="#ff0000" stroke-width=".9673" d="M601.3847,-120.0535C608.427,-109.4587 620.4028,-91.4417 631.461,-74.8053"/>
<polygon fill="#ff0000" stroke="#ff0000" stroke-width=".9673" points="634.5082,-76.5435 637.1291,-66.2779 628.6786,-72.6685 634.5082,-76.5435"/>
</g>
<!-- x&#45;other&#45;vec -->
<g id="node9" class="node">
<title>x&#45;other&#45;vec</title>
<polygon fill="#d3d3d3" stroke="#000000" points="1029.2132,-138.3381 971.2132,-138.3381 971.2132,-120.3381 1029.2132,-120.3381 1029.2132,-138.3381"/>
<text text-anchor="middle" x="1000.2132" y="-127.1381" font-family="Times,serif" font-size="9.00" fill="#000000">x&#45;other&#45;vec</text>
</g>
<!-- x&#45;other&#45;vec&#45;&gt;forward -->
<g id="edge29" class="edge">
<title>x&#45;other&#45;vec&#45;&gt;forward</title>
<path fill="none" stroke="#ff0000" stroke-width=".4044" d="M981.8447,-120.2246C951.4792,-105.1589 890.2029,-74.7568 850.2106,-54.9147"/>
<polygon fill="#ff0000" stroke="#ff0000" stroke-width=".4044" points="851.5431,-51.6688 841.0295,-50.3595 848.4319,-57.9394 851.5431,-51.6688"/>
</g>
<!-- y&#45;other&#45;vec -->
<g id="node10" class="node">
<title>y&#45;other&#45;vec</title>
<polygon fill="#d3d3d3" stroke="#000000" points="915.2132,-138.3381 857.2132,-138.3381 857.2132,-120.3381 915.2132,-120.3381 915.2132,-138.3381"/>
<text text-anchor="middle" x="886.2132" y="-127.1381" font-family="Times,serif" font-size="9.00" fill="#000000">y&#45;other&#45;vec</text>
</g>
<!-- y&#45;other&#45;vec&#45;&gt;forward -->
<g id="edge7" class="edge">
<title>y&#45;other&#45;vec&#45;&gt;forward</title>
<path fill="none" stroke="#ff0000" stroke-width=".4576" d="M878.8473,-120.0535C869.4634,-108.2253 852.7405,-87.1464 838.3959,-69.0652"/>
<polygon fill="#ff0000" stroke="#ff0000" stroke-width=".4576" points="840.9645,-66.6714 832.0074,-61.0126 835.4806,-71.022 840.9645,-66.6714"/>
</g>
<!-- y&#45;other&#45;vec&#45;&gt;backward -->
<g id="edge3" class="edge">
<title>y&#45;other&#45;vec&#45;&gt;backward</title>
<path fill="none" stroke="#00ff00" stroke-width=".1554" stroke-dasharray="1,5" d="M870.9538,-120.1378C864.1202,-116.1968 855.8875,-111.6907 848.2132,-108.1249 799.0271,-85.271 740.394,-63.9895 701.1845,-50.5671"/>
<polygon fill="#00ff00" stroke="#00ff00" stroke-width=".1554" points="702.2464,-47.2315 691.652,-47.3278 699.9941,-53.8592 702.2464,-47.2315"/>
</g>
<!-- x&#45;other&#45;vel -->
<g id="node11" class="node">
<title>x&#45;other&#45;vel</title>
<polygon fill="#d3d3d3" stroke="#000000" points="366.2132,-138.3381 310.2132,-138.3381 310.2132,-120.3381 366.2132,-120.3381 366.2132,-138.3381"/>
<text text-anchor="middle" x="338.2132" y="-127.1381" font-family="Times,serif" font-size="9.00" fill="#000000">x&#45;other&#45;vel</text>
</g>
<!-- x&#45;other&#45;vel&#45;&gt;none -->
<g id="edge33" class="edge">
<title>x&#45;other&#45;vel&#45;&gt;none</title>
<path fill="none" stroke="#ff0000" stroke-width=".2887" stroke-dasharray="1,5" d="M338.2132,-120.0535C338.2132,-108.4974 338.2132,-88.1115 338.2132,-70.318"/>
<polygon fill="#ff0000" stroke="#ff0000" stroke-width=".2887" points="341.7133,-70.2273 338.2132,-60.2273 334.7133,-70.2273 341.7133,-70.2273"/>
</g>
<!-- x&#45;other&#45;vel&#45;&gt;right -->
<g id="edge17" class="edge">
<title>x&#45;other&#45;vel&#45;&gt;right</title>
<path fill="none" stroke="#ff0000" stroke-width=".3476" d="M327.5624,-120.0535C311.1073,-105.7089 279.0446,-77.7587 256.4361,-58.0501"/>
<polygon fill="#ff0000" stroke="#ff0000" stroke-width=".3476" points="258.7125,-55.3913 248.8746,-51.4585 254.1127,-60.6679 258.7125,-55.3913"/>
</g>
<!-- x&#45;other&#45;vel&#45;&gt;left -->
<g id="edge32" class="edge">
<title>x&#45;other&#45;vel&#45;&gt;left</title>
<path fill="none" stroke="#ff0000" stroke-width=".4427" d="M348.1672,-120.0535C363.9187,-105.3611 394.9725,-76.3955 416.1612,-56.6316"/>
<polygon fill="#ff0000" stroke="#ff0000" stroke-width=".4427" points="418.5493,-59.1903 423.4747,-49.8099 413.7746,-54.0714 418.5493,-59.1903"/>
</g>
<!-- x&#45;other&#45;vel&#45;&gt;forward -->
<g id="edge20" class="edge">
<title>x&#45;other&#45;vel&#45;&gt;forward</title>
<path fill="none" stroke="#00ff00" stroke-width=".4772" d="M351.3316,-120.2945C358.3918,-115.8825 367.4336,-110.9331 376.2132,-108.1249 515.0538,-63.7168 559.7499,-102.9953 702.2132,-72.1249 726.1213,-66.9442 752.1627,-58.5371 772.9035,-51.1431"/>
<polygon fill="#00ff00" stroke="#00ff00" stroke-width=".4772" points="774.1227,-54.424 782.3293,-47.7231 771.7352,-47.8438 774.1227,-54.424"/>
</g>
<!-- y&#45;other&#45;vel -->
<g id="node12" class="node">
<title>y&#45;other&#45;vel</title>
<polygon fill="#d3d3d3" stroke="#000000" points="550.2132,-138.3381 494.2132,-138.3381 494.2132,-120.3381 550.2132,-120.3381 550.2132,-138.3381"/>
<text text-anchor="middle" x="522.2132" y="-127.1381" font-family="Times,serif" font-size="9.00" fill="#000000">y&#45;other&#45;vel</text>
</g>
<!-- y&#45;other&#45;vel&#45;&gt;none -->
<g id="edge30" class="edge">
<title>y&#45;other&#45;vel&#45;&gt;none</title>
<path fill="none" stroke="#ff0000" stroke-width=".2314" stroke-dasharray="1,5" d="M504.2044,-120.229C481.9018,-108.9459 442.7492,-89.1315 409.2132,-72.1249 395.9484,-65.3981 381.2941,-57.9566 368.7606,-51.5889"/>
<polygon fill="#ff0000" stroke="#ff0000" stroke-width=".2314" points="370.1483,-48.3681 359.6476,-46.9584 366.9773,-54.6087 370.1483,-48.3681"/>
</g>
<!-- y&#45;other&#45;vel&#45;&gt;backward -->
<g id="edge10" class="edge">
<title>y&#45;other&#45;vel&#45;&gt;backward</title>
<path fill="none" stroke="#ff0000" stroke-width=".4558" d="M535.6511,-120.0535C554.9315,-106.732 591.1948,-81.6766 619.1158,-62.3851"/>
<polygon fill="#ff0000" stroke="#ff0000" stroke-width=".4558" points="621.2474,-65.1665 627.4851,-56.6025 617.2683,-59.4075 621.2474,-65.1665"/>
</g>
<!-- right&#45;&gt;right -->
<g id="edge21" class="edge">
<title>right&#45;&gt;right</title>
<path fill="none" stroke="#00ff00" stroke-width=".2988" stroke-dasharray="1,5" d="M248.6272,-51.6279C260.6802,-56.3447 272.5477,-51.1562 272.5477,-36.0624 272.5477,-25.3317 266.5495,-19.6075 258.7508,-18.8896"/>
<polygon fill="#00ff00" stroke="#00ff00" stroke-width=".2988" points="257.9547,-15.4721 248.6272,-20.497 259.0524,-22.3855 257.9547,-15.4721"/>
</g>
<!-- 128&#45;&gt;right -->
<g id="edge35" class="edge">
<title>128&#45;&gt;right</title>
<path fill="none" stroke="#ff0000" stroke-width=".3265" stroke-dasharray="1,5" d="M39.0772,-117.7841C44.4849,-114.4861 50.5053,-111.0082 56.2132,-108.1249 104.7939,-83.5846 163.7761,-60.6306 199.3585,-47.4849"/>
<polygon fill="#ff0000" stroke="#ff0000" stroke-width=".3265" points="200.9938,-50.6133 209.1792,-43.8866 198.5855,-44.0406 200.9938,-50.6133"/>
</g>
<!-- 227&#45;&gt;forward -->
<g id="edge37" class="edge">
<title>227&#45;&gt;forward</title>
<path fill="none" stroke="#00ff00" stroke-width=".2525" d="M1051.3308,-116.0499C1047.1917,-113.1788 1042.6669,-110.343 1038.2132,-108.1249 976.8669,-77.5723 899.7764,-56.2899 853.3341,-45.1361"/>
<polygon fill="#00ff00" stroke="#00ff00" stroke-width=".2525" points="853.8792,-41.6687 843.3427,-42.7796 852.2722,-48.4818 853.8792,-41.6687"/>
</g>
<!-- 313&#45;&gt;right -->
<g id="edge39" class="edge">
<title>313&#45;&gt;right</title>
<path fill="none" stroke="#00ff00" stroke-width=".5958" d="M170.4429,-112.6623C181.4882,-98.74 197.4343,-78.6401 210.2208,-62.523"/>
<polygon fill="#00ff00" stroke="#00ff00" stroke-width=".5958" points="213.1034,-64.521 216.5766,-54.5116 207.6195,-60.1704 213.1034,-64.521"/>
</g>
</g>
</svg>
