<?xml version="1.0" encoding="UTF-8" standalone="no"?>
<!DOCTYPE svg PUBLIC "-//W3C//DTD SVG 1.1//EN"
 "http://www.w3.org/Graphics/SVG/1.1/DTD/svg11.dtd">
<!-- Generated by graphviz version 2.40.1 (20161225.0304)
 -->
<!-- Title: %3 Pages: 1 -->
<svg width="917pt" height="213pt"
 viewBox="0.00 0.00 917.15 212.55" xmlns="http://www.w3.org/2000/svg" xmlns:xlink="http://www.w3.org/1999/xlink">
<g id="graph0" class="graph" transform="scale(1 1) rotate(0) translate(4 208.5513)">
<title>%3</title>
<polygon fill="#ffffff" stroke="transparent" points="-4,4 -4,-208.5513 913.1464,-208.5513 913.1464,4 -4,4"/>
<!-- x&#45;vel -->
<g id="node1" class="node">
<title>x&#45;vel</title>
<polygon fill="#d3d3d3" stroke="#000000" points="615.1464,-204.5513 580.1464,-204.5513 580.1464,-186.5513 615.1464,-186.5513 615.1464,-204.5513"/>
<text text-anchor="middle" x="597.6464" y="-193.3513" font-family="Times,serif" font-size="9.00" fill="#000000">x&#45;vel</text>
</g>
<!-- left -->
<g id="node15" class="node">
<title>left</title>
<ellipse fill="#add8e6" stroke="#000000" cx="419.6464" cy="-36.0624" rx="19.6" ry="19.6"/>
<text text-anchor="middle" x="419.6464" y="-33.8624" font-family="Times,serif" font-size="9.00" fill="#000000">left</text>
</g>
<!-- x&#45;vel&#45;&gt;left -->
<g id="edge12" class="edge">
<title>x&#45;vel&#45;&gt;left</title>
<path fill="none" stroke="#ff0000" stroke-width=".2447" d="M579.9632,-191.8936C546.5977,-184.6692 476.1309,-167.7716 458.6464,-150.5513 435.7674,-128.0179 426.3057,-91.5496 422.3955,-65.8366"/>
<polygon fill="#ff0000" stroke="#ff0000" stroke-width=".2447" points="425.8601,-65.3382 421.0748,-55.8856 418.9209,-66.2592 425.8601,-65.3382"/>
</g>
<!-- backward -->
<g id="node17" class="node">
<title>backward</title>
<ellipse fill="#add8e6" stroke="#000000" cx="597.6464" cy="-36.0624" rx="36.125" ry="36.125"/>
<text text-anchor="middle" x="597.6464" y="-33.8624" font-family="Times,serif" font-size="9.00" fill="#000000">backward</text>
</g>
<!-- x&#45;vel&#45;&gt;backward -->
<g id="edge27" class="edge">
<title>x&#45;vel&#45;&gt;backward</title>
<path fill="none" stroke="#00ff00" stroke-width=".448" d="M615.3728,-193.7157C639.6505,-190.1423 682.4199,-179.8196 701.6464,-150.5513 711.9992,-134.7914 710.3943,-124.8291 701.6464,-108.1249 688.7039,-83.411 663.0068,-65.4825 640.3957,-53.6895"/>
<polygon fill="#00ff00" stroke="#00ff00" stroke-width=".448" points="641.7809,-50.4697 631.267,-49.1627 638.6711,-56.741 641.7809,-50.4697"/>
</g>
<!-- 572 -->
<g id="node20" class="node">
<title>572</title>
<ellipse fill="#ffffff" stroke="#000000" cx="597.6464" cy="-129.3381" rx="21.4286" ry="21.4286"/>
<text text-anchor="middle" x="597.6464" y="-127.1381" font-family="Times,serif" font-size="9.00" fill="#000000">572</text>
</g>
<!-- x&#45;vel&#45;&gt;572 -->
<g id="edge30" class="edge">
<title>x&#45;vel&#45;&gt;572</title>
<path fill="none" stroke="#00ff00" stroke-width=".3365" d="M597.6464,-186.3446C597.6464,-179.6836 597.6464,-170.2587 597.6464,-160.9866"/>
<polygon fill="#00ff00" stroke="#00ff00" stroke-width=".3365" points="601.1465,-160.7384 597.6464,-150.7385 594.1465,-160.7385 601.1465,-160.7384"/>
</g>
<!-- y&#45;vel -->
<g id="node2" class="node">
<title>y&#45;vel</title>
<polygon fill="#d3d3d3" stroke="#000000" points="909.1464,-138.3381 874.1464,-138.3381 874.1464,-120.3381 909.1464,-120.3381 909.1464,-138.3381"/>
<text text-anchor="middle" x="891.6464" y="-127.1381" font-family="Times,serif" font-size="9.00" fill="#000000">y&#45;vel</text>
</g>
<!-- forward -->
<g id="node16" class="node">
<title>forward</title>
<ellipse fill="#add8e6" stroke="#000000" cx="762.6464" cy="-36.0624" rx="31.6406" ry="31.6406"/>
<text text-anchor="middle" x="762.6464" y="-33.8624" font-family="Times,serif" font-size="9.00" fill="#000000">forward</text>
</g>
<!-- y&#45;vel&#45;&gt;forward -->
<g id="edge5" class="edge">
<title>y&#45;vel&#45;&gt;forward</title>
<path fill="none" stroke="#ff0000" stroke-width="1.068" d="M881.315,-120.2768C876.6596,-116.3614 871.0123,-111.8371 865.6464,-108.1249 839.4421,-89.9964 829.5104,-90.7358 803.6464,-72.1249 800.2704,-69.6956 796.8473,-67.0397 793.4923,-64.3063"/>
<polygon fill="#ff0000" stroke="#ff0000" stroke-width="1.068" points="795.744,-61.6267 785.8423,-57.8576 791.2324,-66.9789 795.744,-61.6267"/>
</g>
<!-- x&#45;pos -->
<g id="node3" class="node">
<title>x&#45;pos</title>
<polygon fill="#d3d3d3" stroke="#000000" points="784.6464,-138.3381 748.6464,-138.3381 748.6464,-120.3381 784.6464,-120.3381 784.6464,-138.3381"/>
<text text-anchor="middle" x="766.6464" y="-127.1381" font-family="Times,serif" font-size="9.00" fill="#000000">x&#45;pos</text>
</g>
<!-- x&#45;pos&#45;&gt;forward -->
<g id="edge24" class="edge">
<title>x&#45;pos&#45;&gt;forward</title>
<path fill="none" stroke="#ff0000" stroke-width=".4192" d="M766.2483,-120.0535C765.8236,-110.1499 765.1208,-93.761 764.4481,-78.0765"/>
<polygon fill="#ff0000" stroke="#ff0000" stroke-width=".4192" points="767.9391,-77.7874 764.0137,-67.9466 760.9455,-78.0874 767.9391,-77.7874"/>
</g>
<!-- x&#45;pos&#45;&gt;backward -->
<g id="edge25" class="edge">
<title>x&#45;pos&#45;&gt;backward</title>
<path fill="none" stroke="#ff0000" stroke-width=".2837" d="M753.449,-120.1553C747.7498,-116.304 740.9546,-111.8619 734.6464,-108.1249 703.2785,-89.5424 666.6825,-70.4175 639.2086,-56.5436"/>
<polygon fill="#ff0000" stroke="#ff0000" stroke-width=".2837" points="640.7687,-53.4105 630.2618,-52.0482 637.6259,-59.6654 640.7687,-53.4105"/>
</g>
<!-- y&#45;pos -->
<g id="node4" class="node">
<title>y&#45;pos</title>
<polygon fill="#d3d3d3" stroke="#000000" points="296.6464,-138.3381 260.6464,-138.3381 260.6464,-120.3381 296.6464,-120.3381 296.6464,-138.3381"/>
<text text-anchor="middle" x="278.6464" y="-127.1381" font-family="Times,serif" font-size="9.00" fill="#000000">y&#45;pos</text>
</g>
<!-- none -->
<g id="node13" class="node">
<title>none</title>
<ellipse fill="#add8e6" stroke="#000000" cx="278.6464" cy="-36.0624" rx="24.0833" ry="24.0833"/>
<text text-anchor="middle" x="278.6464" y="-33.8624" font-family="Times,serif" font-size="9.00" fill="#000000">none</text>
</g>
<!-- y&#45;pos&#45;&gt;none -->
<g id="edge13" class="edge">
<title>y&#45;pos&#45;&gt;none</title>
<path fill="none" stroke="#00ff00" stroke-width=".1096" stroke-dasharray="1,5" d="M278.6464,-120.0535C278.6464,-108.4974 278.6464,-88.1115 278.6464,-70.318"/>
<polygon fill="#00ff00" stroke="#00ff00" stroke-width=".1096" points="282.1465,-70.2273 278.6464,-60.2273 275.1465,-70.2273 282.1465,-70.2273"/>
</g>
<!-- right -->
<g id="node14" class="node">
<title>right</title>
<ellipse fill="#add8e6" stroke="#000000" cx="167.6464" cy="-36.0624" rx="23.1702" ry="23.1702"/>
<text text-anchor="middle" x="167.6464" y="-33.8624" font-family="Times,serif" font-size="9.00" fill="#000000">right</text>
</g>
<!-- y&#45;pos&#45;&gt;right -->
<g id="edge4" class="edge">
<title>y&#45;pos&#45;&gt;right</title>
<path fill="none" stroke="#00ff00" stroke-width=".1965" d="M267.5975,-120.0535C250.4291,-105.6264 216.883,-77.437 193.4089,-57.7112"/>
<polygon fill="#00ff00" stroke="#00ff00" stroke-width=".1965" points="195.4767,-54.8771 185.5691,-51.1233 190.9733,-60.2362 195.4767,-54.8771"/>
</g>
<!-- y&#45;pos&#45;&gt;backward -->
<g id="edge21" class="edge">
<title>y&#45;pos&#45;&gt;backward</title>
<path fill="none" stroke="#00ff00" stroke-width=".362" stroke-dasharray="1,5" d="M287.9383,-120.3344C292.8468,-116.0437 299.1834,-111.191 305.6464,-108.1249 371.8923,-76.6974 395.5012,-89.8605 466.6464,-72.1249 495.5415,-64.9217 527.795,-56.0531 553.0679,-48.9133"/>
<polygon fill="#00ff00" stroke="#00ff00" stroke-width=".362" points="554.0742,-52.266 562.7391,-46.1693 552.1635,-45.5318 554.0742,-52.266"/>
</g>
<!-- x&#45;lm1&#45;vec -->
<g id="node5" class="node">
<title>x&#45;lm1&#45;vec</title>
<polygon fill="#d3d3d3" stroke="#000000" points="427.1464,-204.5513 374.1464,-204.5513 374.1464,-186.5513 427.1464,-186.5513 427.1464,-204.5513"/>
<text text-anchor="middle" x="400.6464" y="-193.3513" font-family="Times,serif" font-size="9.00" fill="#000000">x&#45;lm1&#45;vec</text>
</g>
<!-- x&#45;lm1&#45;vec&#45;&gt;none -->
<g id="edge16" class="edge">
<title>x&#45;lm1&#45;vec&#45;&gt;none</title>
<path fill="none" stroke="#00ff00" stroke-width=".3455" stroke-dasharray="1,5" d="M373.9402,-193.458C304.4491,-187.7421 122.1584,-170.9267 104.6464,-150.5513 92.3559,-136.251 93.5193,-123.348 104.6464,-108.1249 135.7505,-65.5713 169.5432,-93.6738 217.6464,-72.1249 228.5634,-67.2344 239.9875,-60.8564 249.9585,-54.8264"/>
<polygon fill="#00ff00" stroke="#00ff00" stroke-width=".3455" points="251.9948,-57.6821 258.6509,-49.4391 248.3072,-51.7322 251.9948,-57.6821"/>
</g>
<!-- x&#45;lm1&#45;vec&#45;&gt;left -->
<g id="edge1" class="edge">
<title>x&#45;lm1&#45;vec&#45;&gt;left</title>
<path fill="none" stroke="#00ff00" stroke-width=".2131" stroke-dasharray="1,5" d="M401.7224,-186.5195C404.4375,-163.7287 411.6633,-103.0736 416.067,-66.1091"/>
<polygon fill="#00ff00" stroke="#00ff00" stroke-width=".2131" points="419.5739,-66.2581 417.2815,-55.9142 412.623,-65.43 419.5739,-66.2581"/>
</g>
<!-- x&#45;lm1&#45;vec&#45;&gt;572 -->
<g id="edge33" class="edge">
<title>x&#45;lm1&#45;vec&#45;&gt;572</title>
<path fill="none" stroke="#ff0000" stroke-width=".1734" d="M427.2115,-190.5116C459.9381,-183.7786 516.8272,-170.3524 562.6464,-150.5513 565.4898,-149.3225 568.3797,-147.8971 571.2178,-146.3777"/>
<polygon fill="#ff0000" stroke="#ff0000" stroke-width=".1734" points="573.0668,-149.3518 579.987,-141.3292 569.5743,-143.2853 573.0668,-149.3518"/>
</g>
<!-- y&#45;lm1&#45;vec -->
<g id="node6" class="node">
<title>y&#45;lm1&#45;vec</title>
<polygon fill="#d3d3d3" stroke="#000000" points="166.1464,-138.3381 113.1464,-138.3381 113.1464,-120.3381 166.1464,-120.3381 166.1464,-138.3381"/>
<text text-anchor="middle" x="139.6464" y="-127.1381" font-family="Times,serif" font-size="9.00" fill="#000000">y&#45;lm1&#45;vec</text>
</g>
<!-- y&#45;lm1&#45;vec&#45;&gt;none -->
<g id="edge10" class="edge">
<title>y&#45;lm1&#45;vec&#45;&gt;none</title>
<path fill="none" stroke="#00ff00" stroke-width=".2633" d="M153.2274,-120.2246C175.5144,-105.269 220.3228,-75.2004 249.9017,-55.3515"/>
<polygon fill="#00ff00" stroke="#00ff00" stroke-width=".2633" points="252.1972,-58.0262 258.5506,-49.5477 248.2967,-52.2136 252.1972,-58.0262"/>
</g>
<!-- y&#45;lm1&#45;vec&#45;&gt;right -->
<g id="edge6" class="edge">
<title>y&#45;lm1&#45;vec&#45;&gt;right</title>
<path fill="none" stroke="#ff0000" stroke-width=".2443" d="M142.4335,-120.0535C146.0283,-108.0784 152.4694,-86.6214 157.9412,-68.3931"/>
<polygon fill="#ff0000" stroke="#ff0000" stroke-width=".2443" points="161.3343,-69.2632 160.8572,-58.6791 154.6298,-67.2505 161.3343,-69.2632"/>
</g>
<!-- y&#45;lm1&#45;vec&#45;&gt;left -->
<g id="edge23" class="edge">
<title>y&#45;lm1&#45;vec&#45;&gt;left</title>
<path fill="none" stroke="#00ff00" stroke-width=".4308" d="M153.2033,-120.154C159.7618,-116.0275 167.8814,-111.3679 175.6464,-108.1249 233.3429,-84.0281 251.7404,-90.0356 311.6464,-72.1249 338.7873,-64.0103 369.3848,-53.6801 391.0642,-46.1576"/>
<polygon fill="#00ff00" stroke="#00ff00" stroke-width=".4308" points="392.3556,-49.414 400.6442,-42.8147 390.0493,-42.8048 392.3556,-49.414"/>
</g>
<!-- x&#45;lm2&#45;vec -->
<g id="node7" class="node">
<title>x&#45;lm2&#45;vec</title>
<polygon fill="#d3d3d3" stroke="#000000" points="520.1464,-138.3381 467.1464,-138.3381 467.1464,-120.3381 520.1464,-120.3381 520.1464,-138.3381"/>
<text text-anchor="middle" x="493.6464" y="-127.1381" font-family="Times,serif" font-size="9.00" fill="#000000">x&#45;lm2&#45;vec</text>
</g>
<!-- x&#45;lm2&#45;vec&#45;&gt;none -->
<g id="edge14" class="edge">
<title>x&#45;lm2&#45;vec&#45;&gt;none</title>
<path fill="none" stroke="#ff0000" stroke-width=".1295" d="M472.6399,-120.2246C434.7404,-103.7823 354.7356,-69.073 310.2193,-49.76"/>
<polygon fill="#ff0000" stroke="#ff0000" stroke-width=".1295" points="311.5908,-46.5399 301.0239,-45.7707 308.8048,-52.9616 311.5908,-46.5399"/>
</g>
<!-- x&#45;lm2&#45;vec&#45;&gt;backward -->
<g id="edge18" class="edge">
<title>x&#45;lm2&#45;vec&#45;&gt;backward</title>
<path fill="none" stroke="#00ff00" stroke-width=".9979" stroke-dasharray="1,5" d="M503.9986,-120.0535C517.6659,-107.7954 542.4109,-85.6021 563.0331,-67.1065"/>
<polygon fill="#00ff00" stroke="#00ff00" stroke-width=".9979" points="565.5956,-69.5097 570.7032,-60.2273 560.9218,-64.2986 565.5956,-69.5097"/>
</g>
<!-- y&#45;lm2&#45;vec -->
<g id="node8" class="node">
<title>y&#45;lm2&#45;vec</title>
<polygon fill="#d3d3d3" stroke="#000000" points="856.1464,-138.3381 803.1464,-138.3381 803.1464,-120.3381 856.1464,-120.3381 856.1464,-138.3381"/>
<text text-anchor="middle" x="829.6464" y="-127.1381" font-family="Times,serif" font-size="9.00" fill="#000000">y&#45;lm2&#45;vec</text>
</g>
<!-- y&#45;lm2&#45;vec&#45;&gt;left -->
<g id="edge22" class="edge">
<title>y&#45;lm2&#45;vec&#45;&gt;left</title>
<path fill="none" stroke="#00ff00" stroke-width=".1145" stroke-dasharray="1,5" d="M816.9088,-120.1991C810.2752,-115.8739 801.8522,-111.0311 793.6464,-108.1249 691.5603,-71.9694 658.6444,-94.3334 552.6464,-72.1249 516.4712,-64.5455 475.5205,-52.9805 448.7331,-45.0007"/>
<polygon fill="#00ff00" stroke="#00ff00" stroke-width=".1145" points="449.4429,-41.5594 438.8585,-42.0302 447.4263,-48.2626 449.4429,-41.5594"/>
</g>
<!-- y&#45;lm2&#45;vec&#45;&gt;forward -->
<g id="edge3" class="edge">
<title>y&#45;lm2&#45;vec&#45;&gt;forward</title>
<path fill="none" stroke="#00ff00" stroke-width=".7172" d="M822.9773,-120.0535C814.7283,-108.5694 800.2155,-88.3652 787.4913,-70.6509"/>
<polygon fill="#00ff00" stroke="#00ff00" stroke-width=".7172" points="790.1005,-68.2839 781.4238,-62.2039 784.4152,-72.3677 790.1005,-68.2839"/>
</g>
<!-- y&#45;lm2&#45;vec&#45;&gt;backward -->
<g id="edge11" class="edge">
<title>y&#45;lm2&#45;vec&#45;&gt;backward</title>
<path fill="none" stroke="#ff0000" stroke-width="1.8195" d="M815.6036,-120.2663C809.0766,-116.2593 801.1202,-111.6654 793.6464,-108.1249 743.0978,-84.179 682.2903,-62.9228 641.9478,-49.8113"/>
<polygon fill="#ff0000" stroke="#ff0000" stroke-width="1.8195" points="642.9949,-46.4716 632.4034,-46.7373 640.8489,-53.1345 642.9949,-46.4716"/>
</g>
<!-- 663 -->
<g id="node19" class="node">
<title>663</title>
<ellipse fill="#ffffff" stroke="#000000" cx="833.6464" cy="-36.0624" rx="21.4286" ry="21.4286"/>
<text text-anchor="middle" x="833.6464" y="-33.8624" font-family="Times,serif" font-size="9.00" fill="#000000">663</text>
</g>
<!-- y&#45;lm2&#45;vec&#45;&gt;663 -->
<g id="edge32" class="edge">
<title>y&#45;lm2&#45;vec&#45;&gt;663</title>
<path fill="none" stroke="#ff0000" stroke-width=".1133" stroke-dasharray="1,5" d="M830.0446,-120.0535C830.5657,-107.9016 831.5055,-85.9859 832.2945,-67.588"/>
<polygon fill="#ff0000" stroke="#ff0000" stroke-width=".1133" points="835.7937,-67.6794 832.7255,-57.5386 828.8001,-67.3794 835.7937,-67.6794"/>
</g>
<!-- x&#45;other&#45;vec -->
<g id="node9" class="node">
<title>x&#45;other&#45;vec</title>
<polygon fill="#d3d3d3" stroke="#000000" points="372.6464,-138.3381 314.6464,-138.3381 314.6464,-120.3381 372.6464,-120.3381 372.6464,-138.3381"/>
<text text-anchor="middle" x="343.6464" y="-127.1381" font-family="Times,serif" font-size="9.00" fill="#000000">x&#45;other&#45;vec</text>
</g>
<!-- x&#45;other&#45;vec&#45;&gt;none -->
<g id="edge26" class="edge">
<title>x&#45;other&#45;vec&#45;&gt;none</title>
<path fill="none" stroke="#00ff00" stroke-width=".348" stroke-dasharray="1,5" d="M337.1763,-120.0535C328.2098,-107.1863 311.6145,-83.3719 298.3786,-64.3783"/>
<polygon fill="#00ff00" stroke="#00ff00" stroke-width=".348" points="301.162,-62.2507 292.5731,-56.0474 295.4189,-66.2529 301.162,-62.2507"/>
</g>
<!-- x&#45;other&#45;vec&#45;&gt;right -->
<g id="edge2" class="edge">
<title>x&#45;other&#45;vec&#45;&gt;right</title>
<path fill="none" stroke="#ff0000" stroke-width=".4326" stroke-dasharray="1,5" d="M327.4286,-120.1539C320.7113,-116.3839 312.8262,-112.0026 305.6464,-108.1249 268.683,-88.1616 225.7334,-65.8754 197.6924,-51.446"/>
<polygon fill="#ff0000" stroke="#ff0000" stroke-width=".4326" points="199.2787,-48.3261 188.7846,-46.8685 196.0792,-54.5522 199.2787,-48.3261"/>
</g>
<!-- x&#45;other&#45;vec&#45;&gt;forward -->
<g id="edge7" class="edge">
<title>x&#45;other&#45;vec&#45;&gt;forward</title>
<path fill="none" stroke="#00ff00" stroke-width=".5291" stroke-dasharray="1,5" d="M372.6612,-123.9623C442.5705,-110.9844 616.5,-78.5372 642.6464,-72.1249 669.5165,-65.5351 699.3054,-56.5925 722.4814,-49.2611"/>
<polygon fill="#00ff00" stroke="#00ff00" stroke-width=".5291" points="723.843,-52.5006 732.3049,-46.1251 721.7141,-45.8321 723.843,-52.5006"/>
</g>
<!-- y&#45;other&#45;vec -->
<g id="node10" class="node">
<title>y&#45;other&#45;vec</title>
<polygon fill="#d3d3d3" stroke="#000000" points="242.6464,-138.3381 184.6464,-138.3381 184.6464,-120.3381 242.6464,-120.3381 242.6464,-138.3381"/>
<text text-anchor="middle" x="213.6464" y="-127.1381" font-family="Times,serif" font-size="9.00" fill="#000000">y&#45;other&#45;vec</text>
</g>
<!-- y&#45;other&#45;vec&#45;&gt;right -->
<g id="edge9" class="edge">
<title>y&#45;other&#45;vec&#45;&gt;right</title>
<path fill="none" stroke="#00ff00" stroke-width=".6393" stroke-dasharray="1,5" d="M209.0676,-120.0535C202.9244,-107.5967 191.7214,-84.8799 182.514,-66.2099"/>
<polygon fill="#00ff00" stroke="#00ff00" stroke-width=".6393" points="185.6143,-64.5832 178.0522,-57.1626 179.3362,-67.6793 185.6143,-64.5832"/>
</g>
<!-- y&#45;other&#45;vec&#45;&gt;left -->
<g id="edge28" class="edge">
<title>y&#45;other&#45;vec&#45;&gt;left</title>
<path fill="none" stroke="#00ff00" stroke-width=".1974" d="M228.9828,-120.2988C235.8307,-116.3875 244.0532,-111.8603 251.6464,-108.1249 299.7776,-84.4473 357.5837,-60.6234 391.3099,-47.167"/>
<polygon fill="#00ff00" stroke="#00ff00" stroke-width=".1974" points="392.9621,-50.277 400.9662,-43.3354 390.3803,-43.7705 392.9621,-50.277"/>
</g>
<!-- x&#45;other&#45;vel -->
<g id="node11" class="node">
<title>x&#45;other&#45;vel</title>
<polygon fill="#d3d3d3" stroke="#000000" points="63.6464,-204.5513 7.6464,-204.5513 7.6464,-186.5513 63.6464,-186.5513 63.6464,-204.5513"/>
<text text-anchor="middle" x="35.6464" y="-193.3513" font-family="Times,serif" font-size="9.00" fill="#000000">x&#45;other&#45;vel</text>
</g>
<!-- x&#45;other&#45;vel&#45;&gt;right -->
<g id="edge19" class="edge">
<title>x&#45;other&#45;vel&#45;&gt;right</title>
<path fill="none" stroke="#ff0000" stroke-width=".5354" d="M27.5971,-186.4757C13.867,-169.8432 -11.0508,-133.8271 5.6464,-108.1249 34.0038,-64.4743 95.5836,-47.0477 134.1223,-40.2466"/>
<polygon fill="#ff0000" stroke="#ff0000" stroke-width=".5354" points="135.0205,-43.6469 144.3344,-38.5971 133.9042,-36.7365 135.0205,-43.6469"/>
</g>
<!-- x&#45;other&#45;vel&#45;&gt;backward -->
<g id="edge17" class="edge">
<title>x&#45;other&#45;vel&#45;&gt;backward</title>
<path fill="none" stroke="#00ff00" stroke-width=".1282" d="M63.7972,-194.4721C162.658,-190.4804 490.1337,-175.4805 529.6464,-150.5513 543.6282,-141.73 563.2116,-107.0309 577.7736,-78.122"/>
<polygon fill="#00ff00" stroke="#00ff00" stroke-width=".1282" points="581.0005,-79.493 582.3116,-68.9796 574.7304,-76.3807 581.0005,-79.493"/>
</g>
<!-- 771 -->
<g id="node18" class="node">
<title>771</title>
<ellipse fill="#ffffff" stroke="#000000" cx="35.6464" cy="-129.3381" rx="21.4286" ry="21.4286"/>
<text text-anchor="middle" x="35.6464" y="-127.1381" font-family="Times,serif" font-size="9.00" fill="#000000">771</text>
</g>
<!-- x&#45;other&#45;vel&#45;&gt;771 -->
<g id="edge34" class="edge">
<title>x&#45;other&#45;vel&#45;&gt;771</title>
<path fill="none" stroke="#00ff00" stroke-width=".2005" d="M35.6464,-186.3446C35.6464,-179.6836 35.6464,-170.2587 35.6464,-160.9866"/>
<polygon fill="#00ff00" stroke="#00ff00" stroke-width=".2005" points="39.1465,-160.7384 35.6464,-150.7385 32.1465,-160.7385 39.1465,-160.7384"/>
</g>
<!-- y&#45;other&#45;vel -->
<g id="node12" class="node">
<title>y&#45;other&#45;vel</title>
<polygon fill="#d3d3d3" stroke="#000000" points="692.6464,-138.3381 636.6464,-138.3381 636.6464,-120.3381 692.6464,-120.3381 692.6464,-138.3381"/>
<text text-anchor="middle" x="664.6464" y="-127.1381" font-family="Times,serif" font-size="9.00" fill="#000000">y&#45;other&#45;vel</text>
</g>
<!-- y&#45;other&#45;vel&#45;&gt;left -->
<g id="edge20" class="edge">
<title>y&#45;other&#45;vel&#45;&gt;left</title>
<path fill="none" stroke="#00ff00" stroke-width=".2705" stroke-dasharray="1,5" d="M650.2151,-120.2254C643.507,-116.2101 635.3295,-111.6211 627.6464,-108.1249 565.7278,-79.9488 489.352,-56.115 448.5609,-44.2075"/>
<polygon fill="#00ff00" stroke="#00ff00" stroke-width=".2705" points="449.3289,-40.7864 438.7504,-41.3741 447.3865,-47.5115 449.3289,-40.7864"/>
</g>
<!-- y&#45;other&#45;vel&#45;&gt;forward -->
<g id="edge29" class="edge">
<title>y&#45;other&#45;vel&#45;&gt;forward</title>
<path fill="none" stroke="#ff0000" stroke-width=".203" stroke-dasharray="1,5" d="M674.4013,-120.0535C687.7095,-107.3868 712.1637,-84.1115 731.9598,-65.2697"/>
<polygon fill="#ff0000" stroke="#ff0000" stroke-width=".203" points="734.4553,-67.7265 739.2858,-58.2969 729.6293,-62.656 734.4553,-67.7265"/>
</g>
<!-- right&#45;&gt;right -->
<g id="edge8" class="edge">
<title>right&#45;&gt;right</title>
<path fill="none" stroke="#00ff00" stroke-width=".3411" d="M185.0605,-51.6279C197.1134,-56.3447 208.981,-51.1562 208.981,-36.0624 208.981,-25.3317 202.9827,-19.6075 195.184,-18.8896"/>
<polygon fill="#00ff00" stroke="#00ff00" stroke-width=".3411" points="194.3879,-15.4721 185.0605,-20.497 195.4856,-22.3855 194.3879,-15.4721"/>
</g>
<!-- left&#45;&gt;left -->
<g id="edge15" class="edge">
<title>left&#45;&gt;left</title>
<path fill="none" stroke="#00ff00" stroke-width=".5839" d="M433.6032,-50.6803C445.2626,-56.9273 457.4454,-52.0546 457.4454,-36.0624 457.4454,-24.5681 451.1517,-18.8181 443.2823,-18.8124"/>
<polygon fill="#00ff00" stroke="#00ff00" stroke-width=".5839" points="442.3343,-15.4431 433.6032,-21.4446 444.1712,-22.1978 442.3343,-15.4431"/>
</g>
<!-- 771&#45;&gt;right -->
<g id="edge35" class="edge">
<title>771&#45;&gt;right</title>
<path fill="none" stroke="#00ff00" stroke-width=".1175" d="M53.175,-116.9518C75.3536,-101.2796 113.8074,-74.1069 139.9691,-55.6202"/>
<polygon fill="#00ff00" stroke="#00ff00" stroke-width=".1175" points="142.1819,-58.3423 148.3288,-49.7129 138.1422,-52.6255 142.1819,-58.3423"/>
</g>
<!-- 572&#45;&gt;backward -->
<g id="edge31" class="edge">
<title>572&#45;&gt;backward</title>
<path fill="none" stroke="#00ff00" stroke-width=".2115" d="M597.6464,-107.7043C597.6464,-100.1228 597.6464,-91.2896 597.6464,-82.4676"/>
<polygon fill="#00ff00" stroke="#00ff00" stroke-width=".2115" points="601.1465,-82.192 597.6464,-72.192 594.1465,-82.192 601.1465,-82.192"/>
</g>
</g>
</svg>
