<?xml version="1.0" encoding="UTF-8" standalone="no"?>
<!DOCTYPE svg PUBLIC "-//W3C//DTD SVG 1.1//EN"
 "http://www.w3.org/Graphics/SVG/1.1/DTD/svg11.dtd">
<!-- Generated by graphviz version 2.40.1 (20161225.0304)
 -->
<!-- Title: %3 Pages: 1 -->
<svg width="884pt" height="405pt"
 viewBox="0.00 0.00 884.00 404.76" xmlns="http://www.w3.org/2000/svg" xmlns:xlink="http://www.w3.org/1999/xlink">
<g id="graph0" class="graph" transform="scale(1 1) rotate(0) translate(4 400.7595)">
<title>%3</title>
<polygon fill="#ffffff" stroke="transparent" points="-4,4 -4,-400.7595 880,-400.7595 880,4 -4,4"/>
<!-- x&#45;vel -->
<g id="node1" class="node">
<title>x&#45;vel</title>
<polygon fill="#d3d3d3" stroke="#000000" points="121.5,-241.5132 86.5,-241.5132 86.5,-223.5132 121.5,-223.5132 121.5,-241.5132"/>
<text text-anchor="middle" x="104" y="-230.3132" font-family="Times,serif" font-size="9.00" fill="#000000">x&#45;vel</text>
</g>
<!-- right -->
<g id="node14" class="node">
<title>right</title>
<ellipse fill="#add8e6" stroke="#000000" cx="335" cy="-31.8198" rx="23.1702" ry="23.1702"/>
<text text-anchor="middle" x="335" y="-29.6198" font-family="Times,serif" font-size="9.00" fill="#000000">right</text>
</g>
<!-- x&#45;vel&#45;&gt;right -->
<g id="edge4" class="edge">
<title>x&#45;vel&#45;&gt;right</title>
<path fill="none" stroke="#ff0000" stroke-width=".2159" d="M91.3146,-223.4914C77.6377,-212.9025 56.6632,-193.9439 48,-171.7645 36.3374,-141.9059 28.1097,-124.7779 48,-99.6396 79.2861,-60.0988 232.3212,-41.256 301.2413,-34.6681"/>
<polygon fill="#ff0000" stroke="#ff0000" stroke-width=".2159" points="301.9137,-38.1209 311.5488,-33.7147 301.2689,-31.1507 301.9137,-38.1209"/>
</g>
<!-- left -->
<g id="node15" class="node">
<title>left</title>
<ellipse fill="#add8e6" stroke="#000000" cx="276" cy="-135.7021" rx="19.6" ry="19.6"/>
<text text-anchor="middle" x="276" y="-133.5021" font-family="Times,serif" font-size="9.00" fill="#000000">left</text>
</g>
<!-- x&#45;vel&#45;&gt;left -->
<g id="edge30" class="edge">
<title>x&#45;vel&#45;&gt;left</title>
<path fill="none" stroke="#00ff00" stroke-width=".4808" d="M112.9476,-223.1182C117.9615,-218.1729 124.4994,-212.2269 131,-207.7645 168.8964,-181.7504 217.5385,-159.5684 247.7381,-146.9364"/>
<polygon fill="#00ff00" stroke="#00ff00" stroke-width=".4808" points="249.3169,-150.0714 257.2305,-143.0268 246.6511,-143.5989 249.3169,-150.0714"/>
</g>
<!-- forward -->
<g id="node16" class="node">
<title>forward</title>
<ellipse fill="#add8e6" stroke="#000000" cx="490" cy="-31.8198" rx="31.6406" ry="31.6406"/>
<text text-anchor="middle" x="490" y="-29.6198" font-family="Times,serif" font-size="9.00" fill="#000000">forward</text>
</g>
<!-- x&#45;vel&#45;&gt;forward -->
<g id="edge5" class="edge">
<title>x&#45;vel&#45;&gt;forward</title>
<path fill="none" stroke="#00ff00" stroke-width=".1287" d="M98.0598,-223.4262C83.4315,-199.8066 49.0985,-135.8084 81,-99.6396 123.3725,-51.5992 304.0858,-75.6859 367,-63.6396 394.8648,-58.3043 425.7798,-50.2975 449.6455,-43.6507"/>
<polygon fill="#00ff00" stroke="#00ff00" stroke-width=".1287" points="450.7375,-46.9793 459.4126,-40.897 448.838,-40.2419 450.7375,-46.9793"/>
</g>
<!-- backward -->
<g id="node17" class="node">
<title>backward</title>
<ellipse fill="#add8e6" stroke="#000000" cx="126" cy="-135.7021" rx="36.125" ry="36.125"/>
<text text-anchor="middle" x="126" y="-133.5021" font-family="Times,serif" font-size="9.00" fill="#000000">backward</text>
</g>
<!-- x&#45;vel&#45;&gt;backward -->
<g id="edge17" class="edge">
<title>x&#45;vel&#45;&gt;backward</title>
<path fill="none" stroke="#ff0000" stroke-width=".1789" d="M106.1095,-223.2306C108.3538,-213.3542 112.0731,-196.9876 115.692,-181.0623"/>
<polygon fill="#ff0000" stroke="#ff0000" stroke-width=".1789" points="119.1153,-181.7926 117.9183,-171.2656 112.2893,-180.2414 119.1153,-181.7926"/>
</g>
<!-- 887 -->
<g id="node20" class="node">
<title>887</title>
<ellipse fill="#ffffff" stroke="#000000" cx="335" cy="-135.7021" rx="21.4286" ry="21.4286"/>
<text text-anchor="middle" x="335" y="-133.5021" font-family="Times,serif" font-size="9.00" fill="#000000">887</text>
</g>
<!-- x&#45;vel&#45;&gt;887 -->
<g id="edge26" class="edge">
<title>x&#45;vel&#45;&gt;887</title>
<path fill="none" stroke="#00ff00" stroke-width=".7521" d="M111.6081,-223.41C116.5829,-218.0485 123.5279,-211.588 131,-207.7645 201.3017,-171.7906 237.2846,-212.3979 305,-171.7645 309.5107,-169.0578 313.6551,-165.4211 317.3309,-161.496"/>
<polygon fill="#00ff00" stroke="#00ff00" stroke-width=".7521" points="320.0679,-163.6789 323.795,-153.7613 314.6966,-159.19 320.0679,-163.6789"/>
</g>
<!-- y&#45;vel -->
<g id="node2" class="node">
<title>y&#45;vel</title>
<polygon fill="#d3d3d3" stroke="#000000" points="448.5,-241.5132 413.5,-241.5132 413.5,-223.5132 448.5,-223.5132 448.5,-241.5132"/>
<text text-anchor="middle" x="431" y="-230.3132" font-family="Times,serif" font-size="9.00" fill="#000000">y&#45;vel</text>
</g>
<!-- none -->
<g id="node13" class="node">
<title>none</title>
<ellipse fill="#add8e6" stroke="#000000" cx="694" cy="-135.7021" rx="24.0833" ry="24.0833"/>
<text text-anchor="middle" x="694" y="-133.5021" font-family="Times,serif" font-size="9.00" fill="#000000">none</text>
</g>
<!-- y&#45;vel&#45;&gt;none -->
<g id="edge18" class="edge">
<title>y&#45;vel&#45;&gt;none</title>
<path fill="none" stroke="#00ff00" stroke-width=".2099" stroke-dasharray="1,5" d="M439.1857,-223.1425C444.1642,-217.9565 450.9142,-211.7693 458,-207.7645 507.2166,-179.9478 525.9358,-188.2907 580,-171.7645 607.3719,-163.3975 638.3294,-153.582 661.0696,-146.3055"/>
<polygon fill="#00ff00" stroke="#00ff00" stroke-width=".2099" points="662.4428,-149.5408 670.8971,-143.1553 660.306,-142.8749 662.4428,-149.5408"/>
</g>
<!-- y&#45;vel&#45;&gt;right -->
<g id="edge23" class="edge">
<title>y&#45;vel&#45;&gt;right</title>
<path fill="none" stroke="#ff0000" stroke-width="1.29" d="M426.6256,-223.3684C413.1675,-195.2333 371.9457,-109.0569 349.6626,-62.4728"/>
<polygon fill="#ff0000" stroke="#ff0000" stroke-width="1.29" points="352.6844,-60.679 345.2119,-53.1683 346.3697,-63.6997 352.6844,-60.679"/>
</g>
<!-- y&#45;vel&#45;&gt;left -->
<g id="edge13" class="edge">
<title>y&#45;vel&#45;&gt;left</title>
<path fill="none" stroke="#00ff00" stroke-width=".2668" stroke-dasharray="1,5" d="M422.719,-223.3053C417.7086,-218.1736 410.9586,-211.9864 404,-207.7645 363.9724,-183.4789 343.0736,-199.0116 305,-171.7645 300.6206,-168.6304 296.5463,-164.6651 292.9177,-160.5188"/>
<polygon fill="#00ff00" stroke="#00ff00" stroke-width=".2668" points="295.4936,-158.135 286.5258,-152.4931 290.018,-162.4959 295.4936,-158.135"/>
</g>
<!-- x&#45;pos -->
<g id="node3" class="node">
<title>x&#45;pos</title>
<polygon fill="#d3d3d3" stroke="#000000" points="176,-241.5132 140,-241.5132 140,-223.5132 176,-223.5132 176,-241.5132"/>
<text text-anchor="middle" x="158" y="-230.3132" font-family="Times,serif" font-size="9.00" fill="#000000">x&#45;pos</text>
</g>
<!-- x&#45;pos&#45;&gt;left -->
<g id="edge12" class="edge">
<title>x&#45;pos&#45;&gt;left</title>
<path fill="none" stroke="#00ff00" stroke-width=".1069" stroke-dasharray="1,5" d="M167.5956,-223.4058C172.6872,-218.6534 179.0959,-212.7968 185,-207.7645 207.2113,-188.8329 233.4145,-168.2592 251.985,-153.9597"/>
<polygon fill="#00ff00" stroke="#00ff00" stroke-width=".1069" points="254.1337,-156.7227 259.9386,-147.8597 249.8736,-151.1683 254.1337,-156.7227"/>
</g>
<!-- x&#45;pos&#45;&gt;backward -->
<g id="edge10" class="edge">
<title>x&#45;pos&#45;&gt;backward</title>
<path fill="none" stroke="#00ff00" stroke-width=".3381" stroke-dasharray="1,5" d="M154.9317,-223.2306C151.6153,-213.1974 146.0851,-196.4664 140.7429,-180.3043"/>
<polygon fill="#00ff00" stroke="#00ff00" stroke-width=".3381" points="143.924,-178.776 137.4623,-170.3797 137.2776,-180.9729 143.924,-178.776"/>
</g>
<!-- y&#45;pos -->
<g id="node4" class="node">
<title>y&#45;pos</title>
<polygon fill="#d3d3d3" stroke="#000000" points="36,-241.5132 0,-241.5132 0,-223.5132 36,-223.5132 36,-241.5132"/>
<text text-anchor="middle" x="18" y="-230.3132" font-family="Times,serif" font-size="9.00" fill="#000000">y&#45;pos</text>
</g>
<!-- y&#45;pos&#45;&gt;right -->
<g id="edge24" class="edge">
<title>y&#45;pos&#45;&gt;right</title>
<path fill="none" stroke="#ff0000" stroke-width=".2573" stroke-dasharray="1,5" d="M15.7559,-223.37C10.518,-199.6148 .2133,-135.3173 32,-99.6396 67.5578,-59.7292 229.8648,-40.9536 301.2001,-34.5189"/>
<polygon fill="#ff0000" stroke="#ff0000" stroke-width=".2573" points="301.7801,-37.9817 311.4374,-33.6243 301.1706,-31.0082 301.7801,-37.9817"/>
</g>
<!-- y&#45;pos&#45;&gt;backward -->
<g id="edge7" class="edge">
<title>y&#45;pos&#45;&gt;backward</title>
<path fill="none" stroke="#00ff00" stroke-width=".2917" stroke-dasharray="1,5" d="M28.3555,-223.2306C42.8071,-210.2761 69.7153,-186.1557 91.6303,-166.511"/>
<polygon fill="#00ff00" stroke="#00ff00" stroke-width=".2917" points="94.035,-169.0559 99.1451,-159.7748 89.3626,-163.8435 94.035,-169.0559"/>
</g>
<!-- x&#45;lm1&#45;vec -->
<g id="node5" class="node">
<title>x&#45;lm1&#45;vec</title>
<polygon fill="#d3d3d3" stroke="#000000" points="247.5,-241.5132 194.5,-241.5132 194.5,-223.5132 247.5,-223.5132 247.5,-241.5132"/>
<text text-anchor="middle" x="221" y="-230.3132" font-family="Times,serif" font-size="9.00" fill="#000000">x&#45;lm1&#45;vec</text>
</g>
<!-- x&#45;lm1&#45;vec&#45;&gt;right -->
<g id="edge3" class="edge">
<title>x&#45;lm1&#45;vec&#45;&gt;right</title>
<path fill="none" stroke="#00ff00" stroke-width=".1185" stroke-dasharray="1,5" d="M217.3022,-223.3263C208.7675,-200.5339 190.1783,-140.2999 214,-99.6396 232.9476,-67.2986 273.5845,-49.2137 302.5321,-40.0048"/>
<polygon fill="#00ff00" stroke="#00ff00" stroke-width=".1185" points="303.6487,-43.3241 312.229,-37.1088 301.6456,-36.6169 303.6487,-43.3241"/>
</g>
<!-- x&#45;lm1&#45;vec&#45;&gt;left -->
<g id="edge2" class="edge">
<title>x&#45;lm1&#45;vec&#45;&gt;left</title>
<path fill="none" stroke="#ff0000" stroke-width=".2208" stroke-dasharray="1,5" d="M226.2736,-223.2306C234.201,-209.2767 249.4886,-182.3676 261.0304,-162.0516"/>
<polygon fill="#ff0000" stroke="#ff0000" stroke-width=".2208" points="264.1334,-163.6751 266.03,-153.2514 258.0471,-160.2173 264.1334,-163.6751"/>
</g>
<!-- x&#45;lm1&#45;vec&#45;&gt;forward -->
<g id="edge14" class="edge">
<title>x&#45;lm1&#45;vec&#45;&gt;forward</title>
<path fill="none" stroke="#ff0000" stroke-width=".2601" stroke-dasharray="1,5" d="M219.8273,-223.357C217.3278,-199.5703 214.1382,-135.2035 247,-99.6396 250.4989,-95.8531 380.3645,-60.9329 448.7743,-42.7366"/>
<polygon fill="#ff0000" stroke="#ff0000" stroke-width=".2601" points="450.0327,-46.0238 458.7984,-40.073 448.235,-39.2586 450.0327,-46.0238"/>
</g>
<!-- y&#45;lm1&#45;vec -->
<g id="node6" class="node">
<title>y&#45;lm1&#45;vec</title>
<polygon fill="#d3d3d3" stroke="#000000" points="594.5,-241.5132 541.5,-241.5132 541.5,-223.5132 594.5,-223.5132 594.5,-241.5132"/>
<text text-anchor="middle" x="568" y="-230.3132" font-family="Times,serif" font-size="9.00" fill="#000000">y&#45;lm1&#45;vec</text>
</g>
<!-- y&#45;lm1&#45;vec&#45;&gt;none -->
<g id="edge25" class="edge">
<title>y&#45;lm1&#45;vec&#45;&gt;none</title>
<path fill="none" stroke="#00ff00" stroke-width=".1332" d="M580.0814,-223.2306C599.8679,-208.0277 639.6693,-177.4466 666.5816,-156.7688"/>
<polygon fill="#00ff00" stroke="#00ff00" stroke-width=".1332" points="669.0276,-159.3033 674.8248,-150.4352 664.7627,-153.7525 669.0276,-159.3033"/>
</g>
<!-- y&#45;lm1&#45;vec&#45;&gt;left -->
<g id="edge8" class="edge">
<title>y&#45;lm1&#45;vec&#45;&gt;left</title>
<path fill="none" stroke="#ff0000" stroke-width=".3493" stroke-dasharray="1,5" d="M557.388,-223.331C550.5789,-217.9398 541.2981,-211.4758 532,-207.7645 437.1285,-169.8967 393.372,-222.9988 305,-171.7645 300.341,-169.0634 296.1336,-165.3044 292.4607,-161.2266"/>
<polygon fill="#ff0000" stroke="#ff0000" stroke-width=".3493" points="295.037,-158.8426 286.0782,-153.1865 289.5544,-163.1949 295.037,-158.8426"/>
</g>
<!-- x&#45;lm2&#45;vec -->
<g id="node7" class="node">
<title>x&#45;lm2&#45;vec</title>
<polygon fill="#d3d3d3" stroke="#000000" points="318.5,-241.5132 265.5,-241.5132 265.5,-223.5132 318.5,-223.5132 318.5,-241.5132"/>
<text text-anchor="middle" x="292" y="-230.3132" font-family="Times,serif" font-size="9.00" fill="#000000">x&#45;lm2&#45;vec</text>
</g>
<!-- x&#45;lm2&#45;vec&#45;&gt;left -->
<g id="edge11" class="edge">
<title>x&#45;lm2&#45;vec&#45;&gt;left</title>
<path fill="none" stroke="#ff0000" stroke-width="3.2253" d="M290.4659,-223.2306C288.2912,-210.0724 284.2126,-185.3942 280.9392,-165.5876"/>
<polygon fill="#ff0000" stroke="#ff0000" stroke-width="3.2253" points="284.3518,-164.7711 279.268,-155.4757 277.4455,-165.9126 284.3518,-164.7711"/>
</g>
<!-- x&#45;lm2&#45;vec&#45;&gt;forward -->
<g id="edge36" class="edge">
<title>x&#45;lm2&#45;vec&#45;&gt;forward</title>
<path fill="none" stroke="#ff0000" stroke-width=".1303" d="M303.0484,-223.3797C309.872,-218.1435 319.0151,-211.8249 328,-207.7645 387.7232,-180.7748 427.3159,-220.6215 471,-171.7645 494.5662,-145.4077 497.6121,-104.3413 495.7779,-73.4991"/>
<polygon fill="#ff0000" stroke="#ff0000" stroke-width=".1303" points="499.2624,-73.1633 494.9913,-63.4676 492.2838,-73.7106 499.2624,-73.1633"/>
</g>
<!-- x&#45;lm2&#45;vec&#45;&gt;backward -->
<g id="edge21" class="edge">
<title>x&#45;lm2&#45;vec&#45;&gt;backward</title>
<path fill="none" stroke="#00ff00" stroke-width=".4408" stroke-dasharray="1,5" d="M279.535,-223.5067C272.6932,-218.6751 263.997,-212.7139 256,-207.7645 226.8817,-189.7428 193.0194,-171.0411 167.1558,-157.207"/>
<polygon fill="#00ff00" stroke="#00ff00" stroke-width=".4408" points="168.4846,-153.9494 158.0126,-152.3408 165.1958,-160.1288 168.4846,-153.9494"/>
</g>
<!-- x&#45;lm2&#45;vec&#45;&gt;887 -->
<g id="edge28" class="edge">
<title>x&#45;lm2&#45;vec&#45;&gt;887</title>
<path fill="none" stroke="#00ff00" stroke-width=".3437" stroke-dasharray="1,5" d="M296.123,-223.2306C302.0843,-209.8091 313.3692,-184.4022 322.2513,-164.4048"/>
<polygon fill="#00ff00" stroke="#00ff00" stroke-width=".3437" points="325.5241,-165.6585 326.3847,-155.0987 319.1268,-162.817 325.5241,-165.6585"/>
</g>
<!-- y&#45;lm2&#45;vec -->
<g id="node8" class="node">
<title>y&#45;lm2&#45;vec</title>
<polygon fill="#d3d3d3" stroke="#000000" points="665.5,-241.5132 612.5,-241.5132 612.5,-223.5132 665.5,-223.5132 665.5,-241.5132"/>
<text text-anchor="middle" x="639" y="-230.3132" font-family="Times,serif" font-size="9.00" fill="#000000">y&#45;lm2&#45;vec</text>
</g>
<!-- y&#45;lm2&#45;vec&#45;&gt;none -->
<g id="edge1" class="edge">
<title>y&#45;lm2&#45;vec&#45;&gt;none</title>
<path fill="none" stroke="#00ff00" stroke-width=".1308" stroke-dasharray="1,5" d="M644.2736,-223.2306C651.7814,-210.0154 665.8905,-185.1805 677.1675,-165.3308"/>
<polygon fill="#00ff00" stroke="#00ff00" stroke-width=".1308" points="680.219,-167.0448 682.1156,-156.6211 674.1327,-163.587 680.219,-167.0448"/>
</g>
<!-- y&#45;lm2&#45;vec&#45;&gt;forward -->
<g id="edge15" class="edge">
<title>y&#45;lm2&#45;vec&#45;&gt;forward</title>
<path fill="none" stroke="#00ff00" stroke-width="3.2626" d="M638.5334,-223.4586C636.9225,-200.455 629.901,-138.8179 600,-99.6396 581.8555,-75.8654 552.7808,-58.4613 529.0791,-47.2396"/>
<polygon fill="#00ff00" stroke="#00ff00" stroke-width="3.2626" points="530.5146,-44.0475 519.9625,-43.0971 527.6188,-50.4205 530.5146,-44.0475"/>
</g>
<!-- y&#45;lm2&#45;vec&#45;&gt;887 -->
<g id="edge33" class="edge">
<title>y&#45;lm2&#45;vec&#45;&gt;887</title>
<path fill="none" stroke="#ff0000" stroke-width=".3534" d="M628.3605,-223.3989C621.541,-218.0333 612.259,-211.5724 603,-207.7645 519.4707,-173.412 488.3602,-201.275 403,-171.7645 388.8095,-166.8586 373.9763,-159.3122 361.7981,-152.3882"/>
<polygon fill="#ff0000" stroke="#ff0000" stroke-width=".3534" points="363.4553,-149.3027 353.0575,-147.2687 359.9174,-155.3429 363.4553,-149.3027"/>
</g>
<!-- x&#45;other&#45;vec -->
<g id="node9" class="node">
<title>x&#45;other&#45;vec</title>
<polygon fill="#d3d3d3" stroke="#000000" points="802,-396.7595 744,-396.7595 744,-378.7595 802,-378.7595 802,-396.7595"/>
<text text-anchor="middle" x="773" y="-385.5595" font-family="Times,serif" font-size="9.00" fill="#000000">x&#45;other&#45;vec</text>
</g>
<!-- x&#45;other&#45;vec&#45;&gt;none -->
<g id="edge6" class="edge">
<title>x&#45;other&#45;vec&#45;&gt;none</title>
<path fill="none" stroke="#00ff00" stroke-width=".37" d="M776.2579,-378.5663C785.4384,-351.0397 809.0835,-267.4924 781,-207.7645 769.421,-183.1383 744.8367,-164.0377 724.7461,-151.7072"/>
<polygon fill="#00ff00" stroke="#00ff00" stroke-width=".37" points="726.2921,-148.5566 715.8943,-146.5227 722.7543,-154.5969 726.2921,-148.5566"/>
</g>
<!-- 1267 -->
<g id="node18" class="node">
<title>1267</title>
<ellipse fill="#ffffff" stroke="#000000" cx="747" cy="-318.0107" rx="25" ry="25"/>
<text text-anchor="middle" x="747" y="-315.8107" font-family="Times,serif" font-size="9.00" fill="#000000">1267</text>
</g>
<!-- x&#45;other&#45;vec&#45;&gt;1267 -->
<g id="edge31" class="edge">
<title>x&#45;other&#45;vec&#45;&gt;1267</title>
<path fill="none" stroke="#ff0000" stroke-width=".5021" stroke-dasharray="1,5" d="M769.601,-378.641C766.9306,-371.4773 763.039,-361.0377 759.2351,-350.8331"/>
<polygon fill="#ff0000" stroke="#ff0000" stroke-width=".5021" points="762.4301,-349.3837 755.6576,-341.236 755.871,-351.8287 762.4301,-349.3837"/>
</g>
<!-- y&#45;other&#45;vec -->
<g id="node10" class="node">
<title>y&#45;other&#45;vec</title>
<polygon fill="#d3d3d3" stroke="#000000" points="395,-241.5132 337,-241.5132 337,-223.5132 395,-223.5132 395,-241.5132"/>
<text text-anchor="middle" x="366" y="-230.3132" font-family="Times,serif" font-size="9.00" fill="#000000">y&#45;other&#45;vec</text>
</g>
<!-- y&#45;other&#45;vec&#45;&gt;forward -->
<g id="edge19" class="edge">
<title>y&#45;other&#45;vec&#45;&gt;forward</title>
<path fill="none" stroke="#ff0000" stroke-width=".3427" stroke-dasharray="1,5" d="M378.2323,-223.5039C385.4764,-218.4383 394.9764,-212.2512 404,-207.7645 446.2969,-186.7339 476.8383,-210.411 504,-171.7645 524.5613,-142.5094 517.0169,-100.9292 506.7941,-70.6986"/>
<polygon fill="#ff0000" stroke="#ff0000" stroke-width=".3427" points="509.9499,-69.1325 503.2613,-60.9158 503.366,-71.5101 509.9499,-69.1325"/>
</g>
<!-- y&#45;other&#45;vec&#45;&gt;backward -->
<g id="edge20" class="edge">
<title>y&#45;other&#45;vec&#45;&gt;backward</title>
<path fill="none" stroke="#ff0000" stroke-width=".3353" stroke-dasharray="1,5" d="M353.0649,-223.283C345.6662,-218.2682 336.0767,-212.2035 327,-207.7645 275.161,-182.4124 212.0464,-161.2471 170.536,-148.5507"/>
<polygon fill="#ff0000" stroke="#ff0000" stroke-width=".3353" points="171.3122,-145.129 160.7272,-145.5853 169.2865,-151.8295 171.3122,-145.129"/>
</g>
<!-- x&#45;other&#45;vel -->
<g id="node11" class="node">
<title>x&#45;other&#45;vel</title>
<polygon fill="#d3d3d3" stroke="#000000" points="523,-241.5132 467,-241.5132 467,-223.5132 523,-223.5132 523,-241.5132"/>
<text text-anchor="middle" x="495" y="-230.3132" font-family="Times,serif" font-size="9.00" fill="#000000">x&#45;other&#45;vel</text>
</g>
<!-- x&#45;other&#45;vel&#45;&gt;none -->
<g id="edge9" class="edge">
<title>x&#45;other&#45;vel&#45;&gt;none</title>
<path fill="none" stroke="#00ff00" stroke-width=".3703" d="M507.2975,-223.414C514.3248,-218.4402 523.4221,-212.3729 532,-207.7645 568.5019,-188.1545 580.161,-188.6507 618,-171.7645 632.9538,-165.0911 649.3878,-157.3455 663.1367,-150.747"/>
<polygon fill="#00ff00" stroke="#00ff00" stroke-width=".3703" points="664.6873,-153.8851 672.175,-146.3894 661.6473,-147.5796 664.6873,-153.8851"/>
</g>
<!-- x&#45;other&#45;vel&#45;&gt;right -->
<g id="edge22" class="edge">
<title>x&#45;other&#45;vel&#45;&gt;right</title>
<path fill="none" stroke="#00ff00" stroke-width=".4424" d="M495.9548,-223.3714C497.8775,-200.1631 499.8313,-138.0853 471,-99.6396 445.8275,-66.0729 399.4501,-48.0388 367.9255,-39.1924"/>
<polygon fill="#00ff00" stroke="#00ff00" stroke-width=".4424" points="368.4181,-35.7027 357.856,-36.5354 366.6321,-42.471 368.4181,-35.7027"/>
</g>
<!-- x&#45;other&#45;vel&#45;&gt;left -->
<g id="edge40" class="edge">
<title>x&#45;other&#45;vel&#45;&gt;left</title>
<path fill="none" stroke="#ff0000" stroke-width=".3424" d="M483.282,-223.3591C476.0595,-218.1155 466.4073,-211.7965 457,-207.7645 393.1895,-180.4153 363.7078,-208.8205 305,-171.7645 300.446,-168.89 296.2885,-165.0484 292.6322,-160.9432"/>
<polygon fill="#ff0000" stroke="#ff0000" stroke-width=".3424" points="295.2085,-158.5594 286.2462,-152.9089 289.7286,-162.915 295.2085,-158.5594"/>
</g>
<!-- x&#45;other&#45;vel&#45;&gt;forward -->
<g id="edge16" class="edge">
<title>x&#45;other&#45;vel&#45;&gt;forward</title>
<path fill="none" stroke="#00ff00" stroke-width=".4447" stroke-dasharray="1,5" d="M508.2736,-223.4977C531.6782,-207.5361 578.0189,-175.6153 580,-171.7645 594.6642,-143.2598 594.3031,-128.3272 580,-99.6396 569.1479,-77.8737 547.613,-61.2545 528.3293,-49.9161"/>
<polygon fill="#00ff00" stroke="#00ff00" stroke-width=".4447" points="529.8261,-46.7433 519.3881,-44.9269 526.4151,-52.8561 529.8261,-46.7433"/>
</g>
<!-- 1620 -->
<g id="node19" class="node">
<title>1620</title>
<ellipse fill="#ffffff" stroke="#000000" cx="437" cy="-135.7021" rx="25" ry="25"/>
<text text-anchor="middle" x="437" y="-133.5021" font-family="Times,serif" font-size="9.00" fill="#000000">1620</text>
</g>
<!-- x&#45;other&#45;vel&#45;&gt;1620 -->
<g id="edge34" class="edge">
<title>x&#45;other&#45;vel&#45;&gt;1620</title>
<path fill="none" stroke="#ff0000" stroke-width=".5633" d="M489.4387,-223.2306C481.5707,-210.0975 466.8273,-185.4885 454.9726,-165.7012"/>
<polygon fill="#ff0000" stroke="#ff0000" stroke-width=".5633" points="457.906,-163.7871 449.7642,-157.0076 451.9012,-167.3847 457.906,-163.7871"/>
</g>
<!-- y&#45;other&#45;vel -->
<g id="node12" class="node">
<title>y&#45;other&#45;vel</title>
<polygon fill="#d3d3d3" stroke="#000000" points="876,-396.7595 820,-396.7595 820,-378.7595 876,-378.7595 876,-396.7595"/>
<text text-anchor="middle" x="848" y="-385.5595" font-family="Times,serif" font-size="9.00" fill="#000000">y&#45;other&#45;vel</text>
</g>
<!-- 1267&#45;&gt;none -->
<g id="edge32" class="edge">
<title>1267&#45;&gt;none</title>
<path fill="none" stroke="#ff0000" stroke-width=".3006" stroke-dasharray="1,5" d="M733.1068,-297.5113C726.0239,-286.1227 717.8939,-271.4272 713,-257.262 703.1738,-228.8201 698.4085,-194.8699 696.1098,-170.0866"/>
<polygon fill="#ff0000" stroke="#ff0000" stroke-width=".3006" points="699.5932,-169.741 695.2681,-160.0692 692.6178,-170.3272 699.5932,-169.741"/>
</g>
<!-- 1944 -->
<g id="node21" class="node">
<title>1944</title>
<ellipse fill="#ffffff" stroke="#000000" cx="747" cy="-232.5132" rx="25" ry="25"/>
<text text-anchor="middle" x="747" y="-230.3132" font-family="Times,serif" font-size="9.00" fill="#000000">1944</text>
</g>
<!-- 1267&#45;&gt;1944 -->
<g id="edge37" class="edge">
<title>1267&#45;&gt;1944</title>
<path fill="none" stroke="#00ff00" stroke-width=".1609" d="M747,-292.8211C747,-284.9068 747,-276.0208 747,-267.5522"/>
<polygon fill="#00ff00" stroke="#00ff00" stroke-width=".1609" points="750.5001,-267.5228 747,-257.5228 743.5001,-267.5229 750.5001,-267.5228"/>
</g>
<!-- 1620&#45;&gt;right -->
<g id="edge35" class="edge">
<title>1620&#45;&gt;right</title>
<path fill="none" stroke="#ff0000" stroke-width=".2123" d="M419.233,-117.6071C402.5521,-100.6184 377.4699,-75.0734 359.0122,-56.2751"/>
<polygon fill="#ff0000" stroke="#ff0000" stroke-width=".2123" points="361.0547,-53.3596 351.5511,-48.6763 356.0599,-58.2639 361.0547,-53.3596"/>
</g>
<!-- 887&#45;&gt;right -->
<g id="edge27" class="edge">
<title>887&#45;&gt;right</title>
<path fill="none" stroke="#ff0000" stroke-width=".3212" stroke-dasharray="1,5" d="M335,-114.4293C335,-100.3082 335,-81.4754 335,-65.3578"/>
<polygon fill="#ff0000" stroke="#ff0000" stroke-width=".3212" points="338.5001,-65.2352 335,-55.2352 331.5001,-65.2352 338.5001,-65.2352"/>
</g>
<!-- 887&#45;&gt;forward -->
<g id="edge39" class="edge">
<title>887&#45;&gt;forward</title>
<path fill="none" stroke="#00ff00" stroke-width=".324" d="M352.7805,-123.7854C377.566,-107.174 423.029,-76.7043 454.8076,-55.406"/>
<polygon fill="#00ff00" stroke="#00ff00" stroke-width=".324" points="457.021,-58.136 463.3793,-49.6612 453.1238,-52.3212 457.021,-58.136"/>
</g>
<!-- 1944&#45;&gt;none -->
<g id="edge38" class="edge">
<title>1944&#45;&gt;none</title>
<path fill="none" stroke="#ff0000" stroke-width=".4099" d="M734.9735,-210.5453C727.7581,-197.3654 718.4776,-180.4135 710.5741,-165.9767"/>
<polygon fill="#ff0000" stroke="#ff0000" stroke-width=".4099" points="713.4868,-164.0086 705.6147,-156.9178 707.3467,-167.3701 713.4868,-164.0086"/>
</g>
<!-- 991 -->
<g id="node22" class="node">
<title>991</title>
<ellipse fill="#ffffff" stroke="#000000" cx="849" cy="-232.5132" rx="21.4286" ry="21.4286"/>
<text text-anchor="middle" x="849" y="-230.3132" font-family="Times,serif" font-size="9.00" fill="#000000">991</text>
</g>
<!-- 991&#45;&gt;none -->
<g id="edge29" class="edge">
<title>991&#45;&gt;none</title>
<path fill="none" stroke="#ff0000" stroke-width=".945" d="M831.7296,-219.917C826.1337,-215.9395 819.8586,-211.5873 814,-207.7645 783.8627,-188.0995 748.439,-167.0727 723.9287,-152.8395"/>
<polygon fill="#ff0000" stroke="#ff0000" stroke-width=".945" points="725.5116,-149.7118 715.103,-147.7341 722.0065,-155.771 725.5116,-149.7118"/>
</g>
</g>
</svg>
