<?xml version="1.0" encoding="UTF-8" standalone="no"?>
<!DOCTYPE svg PUBLIC "-//W3C//DTD SVG 1.1//EN"
 "http://www.w3.org/Graphics/SVG/1.1/DTD/svg11.dtd">
<!-- Generated by graphviz version 2.40.1 (20161225.0304)
 -->
<!-- Title: %3 Pages: 1 -->
<svg width="916pt" height="463pt"
 viewBox="0.00 0.00 916.27 463.39" xmlns="http://www.w3.org/2000/svg" xmlns:xlink="http://www.w3.org/1999/xlink">
<g id="graph0" class="graph" transform="scale(1 1) rotate(0) translate(4 459.3869)">
<title>%3</title>
<polygon fill="#ffffff" stroke="transparent" points="-4,4 -4,-459.3869 912.2737,-459.3869 912.2737,4 -4,4"/>
<!-- x&#45;vel -->
<g id="node1" class="node">
<title>x&#45;vel</title>
<polygon fill="#d3d3d3" stroke="#000000" points="702,-316.4041 667,-316.4041 667,-298.4041 702,-298.4041 702,-316.4041"/>
<text text-anchor="middle" x="684.5" y="-305.2041" font-family="Times,serif" font-size="9.00" fill="#000000">x&#45;vel</text>
</g>
<!-- none -->
<g id="node13" class="node">
<title>none</title>
<ellipse fill="#add8e6" stroke="#000000" cx="449.5" cy="-218.3711" rx="24.0833" ry="24.0833"/>
<text text-anchor="middle" x="449.5" y="-216.1711" font-family="Times,serif" font-size="9.00" fill="#000000">none</text>
</g>
<!-- x&#45;vel&#45;&gt;none -->
<g id="edge4" class="edge">
<title>x&#45;vel&#45;&gt;none</title>
<path fill="none" stroke="#ff0000" stroke-width=".6776" d="M675.6303,-298.3419C670.9234,-294.0363 664.8158,-289.1879 658.5,-286.1909 586.3674,-251.9623 553.1535,-287.3769 482.5,-250.1909 479.1327,-248.4186 475.872,-246.1984 472.7957,-243.7594"/>
<polygon fill="#ff0000" stroke="#ff0000" stroke-width=".6776" points="474.9353,-240.9784 465.1363,-236.9496 470.2842,-246.2097 474.9353,-240.9784"/>
</g>
<!-- right -->
<g id="node14" class="node">
<title>right</title>
<ellipse fill="#add8e6" stroke="#000000" cx="794.5" cy="-218.3711" rx="23.1702" ry="23.1702"/>
<text text-anchor="middle" x="794.5" y="-216.1711" font-family="Times,serif" font-size="9.00" fill="#000000">right</text>
</g>
<!-- x&#45;vel&#45;&gt;right -->
<g id="edge22" class="edge">
<title>x&#45;vel&#45;&gt;right</title>
<path fill="none" stroke="#ff0000" stroke-width=".3224" stroke-dasharray="1,5" d="M695.8576,-298.2114C712.773,-284.5202 745.0594,-258.3879 768.0867,-239.7498"/>
<polygon fill="#ff0000" stroke="#ff0000" stroke-width=".3224" points="770.5349,-242.2711 776.1059,-233.2591 766.1309,-236.83 770.5349,-242.2711"/>
</g>
<!-- left -->
<g id="node15" class="node">
<title>left</title>
<ellipse fill="#add8e6" stroke="#000000" cx="677.5" cy="-218.3711" rx="19.6" ry="19.6"/>
<text text-anchor="middle" x="677.5" y="-216.1711" font-family="Times,serif" font-size="9.00" fill="#000000">left</text>
</g>
<!-- x&#45;vel&#45;&gt;left -->
<g id="edge29" class="edge">
<title>x&#45;vel&#45;&gt;left</title>
<path fill="none" stroke="#ff0000" stroke-width=".6538" d="M683.7772,-298.2114C682.8631,-286.5848 681.2436,-265.9863 679.8786,-248.6243"/>
<polygon fill="#ff0000" stroke="#ff0000" stroke-width=".6538" points="683.3432,-248.0363 679.0701,-238.3415 676.3648,-248.5851 683.3432,-248.0363"/>
</g>
<!-- y&#45;vel -->
<g id="node2" class="node">
<title>y&#45;vel</title>
<polygon fill="#d3d3d3" stroke="#000000" points="832,-316.4041 797,-316.4041 797,-298.4041 832,-298.4041 832,-316.4041"/>
<text text-anchor="middle" x="814.5" y="-305.2041" font-family="Times,serif" font-size="9.00" fill="#000000">y&#45;vel</text>
</g>
<!-- y&#45;vel&#45;&gt;right -->
<g id="edge19" class="edge">
<title>y&#45;vel&#45;&gt;right</title>
<path fill="none" stroke="#00ff00" stroke-width=".2118" stroke-dasharray="1,5" d="M812.435,-298.2114C809.9555,-287.1735 805.6595,-268.0492 801.8936,-251.2849"/>
<polygon fill="#00ff00" stroke="#00ff00" stroke-width=".2118" points="805.245,-250.2348 799.6383,-241.2451 798.4152,-251.7691 805.245,-250.2348"/>
</g>
<!-- x&#45;pos -->
<g id="node3" class="node">
<title>x&#45;pos</title>
<polygon fill="#d3d3d3" stroke="#000000" points="429.5,-316.4041 393.5,-316.4041 393.5,-298.4041 429.5,-298.4041 429.5,-316.4041"/>
<text text-anchor="middle" x="411.5" y="-305.2041" font-family="Times,serif" font-size="9.00" fill="#000000">x&#45;pos</text>
</g>
<!-- x&#45;pos&#45;&gt;right -->
<g id="edge5" class="edge">
<title>x&#45;pos&#45;&gt;right</title>
<path fill="none" stroke="#00ff00" stroke-width=".3596" d="M420.675,-298.1383C425.5538,-293.7808 431.899,-288.9474 438.5,-286.1909 556.7203,-236.823 601.2322,-285.0947 724.5,-250.1909 738.1824,-246.3167 752.5982,-240.1572 764.7681,-234.2851"/>
<polygon fill="#00ff00" stroke="#00ff00" stroke-width=".3596" points="766.6026,-237.2814 773.9897,-229.6865 763.4787,-231.0171 766.6026,-237.2814"/>
</g>
<!-- forward -->
<g id="node16" class="node">
<title>forward</title>
<ellipse fill="#add8e6" stroke="#000000" cx="195.5" cy="-218.3711" rx="31.6406" ry="31.6406"/>
<text text-anchor="middle" x="195.5" y="-216.1711" font-family="Times,serif" font-size="9.00" fill="#000000">forward</text>
</g>
<!-- x&#45;pos&#45;&gt;forward -->
<g id="edge11" class="edge">
<title>x&#45;pos&#45;&gt;forward</title>
<path fill="none" stroke="#ff0000" stroke-width=".3592" stroke-dasharray="1,5" d="M401.5362,-298.3133C396.662,-294.2072 390.5511,-289.5379 384.5,-286.1909 336.3724,-259.5707 275.7831,-240.0036 236.3705,-228.9065"/>
<polygon fill="#ff0000" stroke="#ff0000" stroke-width=".3592" points="237.1526,-225.4915 226.5816,-226.202 235.2884,-232.2387 237.1526,-225.4915"/>
</g>
<!-- y&#45;pos -->
<g id="node4" class="node">
<title>y&#45;pos</title>
<polygon fill="#d3d3d3" stroke="#000000" points="252.5,-392.0021 216.5,-392.0021 216.5,-374.0021 252.5,-374.0021 252.5,-392.0021"/>
<text text-anchor="middle" x="234.5" y="-380.8021" font-family="Times,serif" font-size="9.00" fill="#000000">y&#45;pos</text>
</g>
<!-- y&#45;pos&#45;&gt;left -->
<g id="edge28" class="edge">
<title>y&#45;pos&#45;&gt;left</title>
<path fill="none" stroke="#00ff00" stroke-width=".2011" d="M252.6943,-382.3307C336.2342,-379.0653 680.317,-363.5577 711.5,-328.6173 733.118,-304.3945 713.7287,-266.6471 696.5951,-242.2133"/>
<polygon fill="#00ff00" stroke="#00ff00" stroke-width=".2011" points="699.2043,-239.853 690.4649,-233.8634 693.5617,-243.9956 699.2043,-239.853"/>
</g>
<!-- y&#45;pos&#45;&gt;forward -->
<g id="edge17" class="edge">
<title>y&#45;pos&#45;&gt;forward</title>
<path fill="none" stroke="#00ff00" stroke-width=".2029" stroke-dasharray="1,5" d="M226.0607,-373.8397C217.2947,-363.6639 204.0935,-346.3246 198.5,-328.6173 191.5926,-306.7508 190.4917,-281.2146 191.276,-260.2282"/>
<polygon fill="#00ff00" stroke="#00ff00" stroke-width=".2029" points="194.7828,-260.1916 191.8161,-250.0206 187.7926,-259.8216 194.7828,-260.1916"/>
</g>
<!-- backward -->
<g id="node17" class="node">
<title>backward</title>
<ellipse fill="#add8e6" stroke="#000000" cx="457.5" cy="-36.0624" rx="36.125" ry="36.125"/>
<text text-anchor="middle" x="457.5" y="-33.8624" font-family="Times,serif" font-size="9.00" fill="#000000">backward</text>
</g>
<!-- y&#45;pos&#45;&gt;backward -->
<g id="edge8" class="edge">
<title>y&#45;pos&#45;&gt;backward</title>
<path fill="none" stroke="#00ff00" stroke-width=".1858" d="M240.4807,-373.787C247.4774,-362.9882 259.3919,-344.5436 269.5,-328.6173 331.45,-231.0093 343.8637,-204.642 407.5,-108.1249 414.8414,-96.9902 423.012,-85.0394 430.5852,-74.1342"/>
<polygon fill="#00ff00" stroke="#00ff00" stroke-width=".1858" points="433.6538,-75.8527 436.5034,-65.6482 427.9122,-71.8484 433.6538,-75.8527"/>
</g>
<!-- 390 -->
<g id="node19" class="node">
<title>390</title>
<ellipse fill="#ffffff" stroke="#000000" cx="130.5" cy="-307.4041" rx="21.4286" ry="21.4286"/>
<text text-anchor="middle" x="130.5" y="-305.2041" font-family="Times,serif" font-size="9.00" fill="#000000">390</text>
</g>
<!-- y&#45;pos&#45;&gt;390 -->
<g id="edge39" class="edge">
<title>y&#45;pos&#45;&gt;390</title>
<path fill="none" stroke="#ff0000" stroke-width=".3664" d="M221.7476,-373.7323C205.4437,-361.881 176.8334,-341.084 155.9858,-325.9298"/>
<polygon fill="#ff0000" stroke="#ff0000" stroke-width=".3664" points="158.0101,-323.0743 147.8633,-320.0256 153.8942,-328.7365 158.0101,-323.0743"/>
</g>
<!-- x&#45;lm1&#45;vec -->
<g id="node5" class="node">
<title>x&#45;lm1&#45;vec</title>
<polygon fill="#d3d3d3" stroke="#000000" points="53,-316.4041 0,-316.4041 0,-298.4041 53,-298.4041 53,-316.4041"/>
<text text-anchor="middle" x="26.5" y="-305.2041" font-family="Times,serif" font-size="9.00" fill="#000000">x&#45;lm1&#45;vec</text>
</g>
<!-- x&#45;lm1&#45;vec&#45;&gt;forward -->
<g id="edge27" class="edge">
<title>x&#45;lm1&#45;vec&#45;&gt;forward</title>
<path fill="none" stroke="#ff0000" stroke-width=".9455" d="M43.6347,-298.3772C70.2876,-284.3358 122.3147,-256.9268 157.9776,-238.1388"/>
<polygon fill="#ff0000" stroke="#ff0000" stroke-width=".9455" points="159.9005,-241.0818 167.1164,-233.3242 156.6377,-234.8887 159.9005,-241.0818"/>
</g>
<!-- x&#45;lm1&#45;vec&#45;&gt;backward -->
<g id="edge21" class="edge">
<title>x&#45;lm1&#45;vec&#45;&gt;backward</title>
<path fill="none" stroke="#ff0000" stroke-width=".409" stroke-dasharray="1,5" d="M30.1194,-298.107C43.0741,-266.1149 90.3965,-159.7099 165.5,-108.1249 205.2925,-80.7933 339.9388,-55.3492 411.6551,-43.3249"/>
<polygon fill="#ff0000" stroke="#ff0000" stroke-width=".409" points="412.4679,-46.738 421.7608,-41.6496 411.323,-39.8323 412.4679,-46.738"/>
</g>
<!-- y&#45;lm1&#45;vec -->
<g id="node6" class="node">
<title>y&#45;lm1&#45;vec</title>
<polygon fill="#d3d3d3" stroke="#000000" points="261,-316.4041 208,-316.4041 208,-298.4041 261,-298.4041 261,-316.4041"/>
<text text-anchor="middle" x="234.5" y="-305.2041" font-family="Times,serif" font-size="9.00" fill="#000000">y&#45;lm1&#45;vec</text>
</g>
<!-- y&#45;lm1&#45;vec&#45;&gt;none -->
<g id="edge18" class="edge">
<title>y&#45;lm1&#45;vec&#45;&gt;none</title>
<path fill="none" stroke="#00ff00" stroke-width="1.1051" stroke-dasharray="1,5" d="M256.2985,-298.3772C294.4105,-282.5947 373.3047,-249.9241 417.5798,-231.5895"/>
<polygon fill="#00ff00" stroke="#00ff00" stroke-width="1.1051" points="419.0987,-234.7488 426.9987,-227.689 416.4205,-228.2814 419.0987,-234.7488"/>
</g>
<!-- y&#45;lm1&#45;vec&#45;&gt;forward -->
<g id="edge15" class="edge">
<title>y&#45;lm1&#45;vec&#45;&gt;forward</title>
<path fill="none" stroke="#00ff00" stroke-width=".4948" d="M230.4732,-298.2114C226.1861,-288.4244 219.1143,-272.2802 212.4475,-257.0605"/>
<polygon fill="#00ff00" stroke="#00ff00" stroke-width=".4948" points="215.5956,-255.5241 208.3773,-247.7687 209.1838,-258.3328 215.5956,-255.5241"/>
</g>
<!-- x&#45;lm2&#45;vec -->
<g id="node7" class="node">
<title>x&#45;lm2&#45;vec</title>
<polygon fill="#d3d3d3" stroke="#000000" points="649,-316.4041 596,-316.4041 596,-298.4041 649,-298.4041 649,-316.4041"/>
<text text-anchor="middle" x="622.5" y="-305.2041" font-family="Times,serif" font-size="9.00" fill="#000000">x&#45;lm2&#45;vec</text>
</g>
<!-- x&#45;lm2&#45;vec&#45;&gt;right -->
<g id="edge24" class="edge">
<title>x&#45;lm2&#45;vec&#45;&gt;right</title>
<path fill="none" stroke="#ff0000" stroke-width=".2294" d="M637.4294,-298.2911C643.8548,-294.4515 651.4877,-289.9994 658.5,-286.1909 694.1728,-266.8168 736.0914,-246.2333 763.8626,-232.8923"/>
<polygon fill="#ff0000" stroke="#ff0000" stroke-width=".2294" points="765.5531,-235.9635 773.0622,-228.4893 762.5311,-229.6494 765.5531,-235.9635"/>
</g>
<!-- x&#45;lm2&#45;vec&#45;&gt;left -->
<g id="edge14" class="edge">
<title>x&#45;lm2&#45;vec&#45;&gt;left</title>
<path fill="none" stroke="#ff0000" stroke-width=".2757" d="M628.1788,-298.2114C635.9851,-285.5747 650.3386,-262.3395 661.5562,-244.1806"/>
<polygon fill="#ff0000" stroke="#ff0000" stroke-width=".2757" points="664.8073,-245.5775 667.0852,-235.2304 658.8519,-241.8985 664.8073,-245.5775"/>
</g>
<!-- x&#45;lm2&#45;vec&#45;&gt;forward -->
<g id="edge9" class="edge">
<title>x&#45;lm2&#45;vec&#45;&gt;forward</title>
<path fill="none" stroke="#ff0000" stroke-width=".3427" d="M609.733,-298.3464C603.092,-294.0419 594.6711,-289.1932 586.5,-286.1909 553.9706,-274.2388 331.0379,-239.1794 237.0977,-224.7191"/>
<polygon fill="#ff0000" stroke="#ff0000" stroke-width=".3427" points="237.5092,-221.2414 227.0937,-223.1821 236.4461,-228.1602 237.5092,-221.2414"/>
</g>
<!-- x&#45;lm2&#45;vec&#45;&gt;backward -->
<g id="edge30" class="edge">
<title>x&#45;lm2&#45;vec&#45;&gt;backward</title>
<path fill="none" stroke="#00ff00" stroke-width=".1693" stroke-dasharray="1,5" d="M621.4674,-298.1587C617.7118,-268.0474 602.4934,-171.1127 556.5,-108.1249 541.3205,-87.3366 518.3531,-70.0922 498.3606,-57.6898"/>
<polygon fill="#00ff00" stroke="#00ff00" stroke-width=".1693" points="500.0916,-54.6468 489.7153,-52.5061 496.4919,-60.6504 500.0916,-54.6468"/>
</g>
<!-- 90 -->
<g id="node24" class="node">
<title>90</title>
<ellipse fill="#ffffff" stroke="#000000" cx="509.5" cy="-218.3711" rx="18.2703" ry="18.2703"/>
<text text-anchor="middle" x="509.5" y="-216.1711" font-family="Times,serif" font-size="9.00" fill="#000000">90</text>
</g>
<!-- x&#45;lm2&#45;vec&#45;&gt;90 -->
<g id="edge33" class="edge">
<title>x&#45;lm2&#45;vec&#45;&gt;90</title>
<path fill="none" stroke="#00ff00" stroke-width=".1788" d="M610.8326,-298.2114C592.351,-283.6497 556.0074,-255.0144 532.2432,-236.2906"/>
<polygon fill="#00ff00" stroke="#00ff00" stroke-width=".1788" points="534.1345,-233.3249 524.1136,-229.8852 529.8023,-238.8233 534.1345,-233.3249"/>
</g>
<!-- y&#45;lm2&#45;vec -->
<g id="node8" class="node">
<title>y&#45;lm2&#45;vec</title>
<polygon fill="#d3d3d3" stroke="#000000" points="451,-455.3869 398,-455.3869 398,-437.3869 451,-437.3869 451,-455.3869"/>
<text text-anchor="middle" x="424.5" y="-444.1869" font-family="Times,serif" font-size="9.00" fill="#000000">y&#45;lm2&#45;vec</text>
</g>
<!-- y&#45;lm2&#45;vec&#45;&gt;forward -->
<g id="edge10" class="edge">
<title>y&#45;lm2&#45;vec&#45;&gt;forward</title>
<path fill="none" stroke="#ff0000" stroke-width=".2482" d="M397.7861,-444.2323C355.8134,-440.1119 272.5051,-428.9362 207.5,-401.3869 154.5479,-378.9456 127.4027,-379.4482 100.5,-328.6173 91.6794,-311.9514 91.8696,-302.9561 100.5,-286.1909 112.3768,-263.1195 136.1409,-246.1602 156.9288,-234.971"/>
<polygon fill="#ff0000" stroke="#ff0000" stroke-width=".2482" points="158.6004,-238.0473 165.9138,-230.3815 155.4162,-231.8135 158.6004,-238.0473"/>
</g>
<!-- 73 -->
<g id="node22" class="node">
<title>73</title>
<ellipse fill="#ffffff" stroke="#000000" cx="819.5" cy="-383.0021" rx="18.2703" ry="18.2703"/>
<text text-anchor="middle" x="819.5" y="-380.8021" font-family="Times,serif" font-size="9.00" fill="#000000">73</text>
</g>
<!-- y&#45;lm2&#45;vec&#45;&gt;73 -->
<g id="edge31" class="edge">
<title>y&#45;lm2&#45;vec&#45;&gt;73</title>
<path fill="none" stroke="#ff0000" stroke-width=".4239" d="M451.1727,-439.4201C454.3072,-438.6901 457.4679,-437.9941 460.5,-437.3869 582.6575,-412.9214 730.1643,-393.8179 791.0754,-386.3787"/>
<polygon fill="#ff0000" stroke="#ff0000" stroke-width=".4239" points="791.5796,-389.8433 801.0862,-385.1663 790.7379,-382.8941 791.5796,-389.8433"/>
</g>
<!-- x&#45;other&#45;vec -->
<g id="node9" class="node">
<title>x&#45;other&#45;vec</title>
<polygon fill="#d3d3d3" stroke="#000000" points="375.5,-316.4041 317.5,-316.4041 317.5,-298.4041 375.5,-298.4041 375.5,-316.4041"/>
<text text-anchor="middle" x="346.5" y="-305.2041" font-family="Times,serif" font-size="9.00" fill="#000000">x&#45;other&#45;vec</text>
</g>
<!-- x&#45;other&#45;vec&#45;&gt;none -->
<g id="edge16" class="edge">
<title>x&#45;other&#45;vec&#45;&gt;none</title>
<path fill="none" stroke="#ff0000" stroke-width=".1239" d="M357.1349,-298.2114C372.6309,-284.8166 401.9033,-259.5136 423.3551,-240.9707"/>
<polygon fill="#ff0000" stroke="#ff0000" stroke-width=".1239" points="425.8722,-243.4213 431.1488,-234.2339 421.2945,-238.1255 425.8722,-243.4213"/>
</g>
<!-- x&#45;other&#45;vec&#45;&gt;forward -->
<g id="edge3" class="edge">
<title>x&#45;other&#45;vec&#45;&gt;forward</title>
<path fill="none" stroke="#ff0000" stroke-width=".1571" stroke-dasharray="1,5" d="M331.1903,-298.3772C308.1247,-284.7772 263.7906,-258.6368 232.0731,-239.9355"/>
<polygon fill="#ff0000" stroke="#ff0000" stroke-width=".1571" points="233.4737,-236.6982 223.0818,-234.634 229.9183,-242.728 233.4737,-236.6982"/>
</g>
<!-- y&#45;other&#45;vec -->
<g id="node10" class="node">
<title>y&#45;other&#45;vec</title>
<polygon fill="#d3d3d3" stroke="#000000" points="527.5,-455.3869 469.5,-455.3869 469.5,-437.3869 527.5,-437.3869 527.5,-455.3869"/>
<text text-anchor="middle" x="498.5" y="-444.1869" font-family="Times,serif" font-size="9.00" fill="#000000">y&#45;other&#45;vec</text>
</g>
<!-- x&#45;other&#45;vel -->
<g id="node11" class="node">
<title>x&#45;other&#45;vel</title>
<polygon fill="#d3d3d3" stroke="#000000" points="503.5,-316.4041 447.5,-316.4041 447.5,-298.4041 503.5,-298.4041 503.5,-316.4041"/>
<text text-anchor="middle" x="475.5" y="-305.2041" font-family="Times,serif" font-size="9.00" fill="#000000">x&#45;other&#45;vel</text>
</g>
<!-- x&#45;other&#45;vel&#45;&gt;none -->
<g id="edge26" class="edge">
<title>x&#45;other&#45;vel&#45;&gt;none</title>
<path fill="none" stroke="#ff0000" stroke-width=".1911" stroke-dasharray="1,5" d="M472.8155,-298.2114C469.6136,-287.247 464.0817,-268.3038 459.2097,-251.6205"/>
<polygon fill="#ff0000" stroke="#ff0000" stroke-width=".1911" points="462.4511,-250.2343 456.2882,-241.6163 455.7318,-252.1965 462.4511,-250.2343"/>
</g>
<!-- x&#45;other&#45;vel&#45;&gt;left -->
<g id="edge2" class="edge">
<title>x&#45;other&#45;vel&#45;&gt;left</title>
<path fill="none" stroke="#00ff00" stroke-width=".1357" d="M490.3806,-298.2805C497.0387,-294.3536 505.0517,-289.8374 512.5,-286.1909 559.3881,-263.2354 616.0657,-241.1064 649.3127,-228.6679"/>
<polygon fill="#00ff00" stroke="#00ff00" stroke-width=".1357" points="650.686,-231.8915 658.8416,-225.1286 648.2487,-225.3295 650.686,-231.8915"/>
</g>
<!-- x&#45;other&#45;vel&#45;&gt;backward -->
<g id="edge20" class="edge">
<title>x&#45;other&#45;vel&#45;&gt;backward</title>
<path fill="none" stroke="#00ff00" stroke-width=".4031" d="M460.8545,-298.3549C446.4813,-288.521 425.4538,-271.3459 416.5,-250.1909 392.3782,-193.199 415.7934,-121.6601 435.863,-77.404"/>
<polygon fill="#00ff00" stroke="#00ff00" stroke-width=".4031" points="439.1394,-78.6603 440.2068,-68.1193 432.7989,-75.694 439.1394,-78.6603"/>
</g>
<!-- x&#45;other&#45;vel&#45;&gt;90 -->
<g id="edge37" class="edge">
<title>x&#45;other&#45;vel&#45;&gt;90</title>
<path fill="none" stroke="#ff0000" stroke-width=".6413" d="M479.0105,-298.2114C483.7633,-285.7656 492.4421,-263.0391 499.3283,-245.007"/>
<polygon fill="#ff0000" stroke="#ff0000" stroke-width=".6413" points="502.6352,-246.1579 502.9331,-235.5672 496.0958,-243.6606 502.6352,-246.1579"/>
</g>
<!-- y&#45;other&#45;vel -->
<g id="node12" class="node">
<title>y&#45;other&#45;vel</title>
<polygon fill="#d3d3d3" stroke="#000000" points="577.5,-316.4041 521.5,-316.4041 521.5,-298.4041 577.5,-298.4041 577.5,-316.4041"/>
<text text-anchor="middle" x="549.5" y="-305.2041" font-family="Times,serif" font-size="9.00" fill="#000000">y&#45;other&#45;vel</text>
</g>
<!-- y&#45;other&#45;vel&#45;&gt;none -->
<g id="edge25" class="edge">
<title>y&#45;other&#45;vel&#45;&gt;none</title>
<path fill="none" stroke="#00ff00" stroke-width=".25" d="M538.4156,-298.2885C524.9827,-287.162 501.7552,-267.6664 482.5,-250.1909 479.7448,-247.6904 476.8954,-245.042 474.0781,-242.3831"/>
<polygon fill="#00ff00" stroke="#00ff00" stroke-width=".25" points="476.4311,-239.7906 466.7821,-235.4148 471.5963,-244.8527 476.4311,-239.7906"/>
</g>
<!-- y&#45;other&#45;vel&#45;&gt;left -->
<g id="edge23" class="edge">
<title>y&#45;other&#45;vel&#45;&gt;left</title>
<path fill="none" stroke="#00ff00" stroke-width=".1361" stroke-dasharray="1,5" d="M562.7161,-298.2114C583.8347,-283.5219 625.5429,-254.5109 652.4428,-235.8001"/>
<polygon fill="#00ff00" stroke="#00ff00" stroke-width=".1361" points="654.7358,-238.4687 660.9466,-229.8852 650.7386,-232.7221 654.7358,-238.4687"/>
</g>
<!-- y&#45;other&#45;vel&#45;&gt;backward -->
<g id="edge7" class="edge">
<title>y&#45;other&#45;vel&#45;&gt;backward</title>
<path fill="none" stroke="#ff0000" stroke-width=".4014" d="M551.2316,-298.0589C556.2506,-268.439 568.5029,-174.6787 536.5,-108.1249 527.6757,-89.7737 511.9101,-73.9187 496.7714,-61.7899"/>
<polygon fill="#ff0000" stroke="#ff0000" stroke-width=".4014" points="498.5429,-58.7384 488.4737,-55.4428 494.29,-64.2984 498.5429,-58.7384"/>
</g>
<!-- right&#45;&gt;right -->
<g id="edge12" class="edge">
<title>right&#45;&gt;right</title>
<path fill="none" stroke="#00ff00" stroke-width=".2456" d="M812.3444,-233.4169C824.2479,-237.652 835.8345,-232.6367 835.8345,-218.3711 835.8345,-208.2291 829.9783,-202.7626 822.3153,-201.9715"/>
<polygon fill="#00ff00" stroke="#00ff00" stroke-width=".2456" points="821.7825,-198.5116 812.3444,-203.3253 822.7244,-205.448 821.7825,-198.5116"/>
</g>
<!-- 454 -->
<g id="node20" class="node">
<title>454</title>
<ellipse fill="#ffffff" stroke="#000000" cx="794.5" cy="-129.3381" rx="21.4286" ry="21.4286"/>
<text text-anchor="middle" x="794.5" y="-127.1381" font-family="Times,serif" font-size="9.00" fill="#000000">454</text>
</g>
<!-- right&#45;&gt;454 -->
<g id="edge41" class="edge">
<title>right&#45;&gt;454</title>
<path fill="none" stroke="#00ff00" stroke-width=".2126" d="M788.5118,-195.4429C787.6843,-184.6343 787.531,-171.5854 788.0518,-159.9465"/>
<polygon fill="#00ff00" stroke="#00ff00" stroke-width=".2126" points="791.5579,-159.9664 788.7196,-149.7588 784.5729,-159.5084 791.5579,-159.9664"/>
</g>
<!-- left&#45;&gt;left -->
<g id="edge1" class="edge">
<title>left&#45;&gt;left</title>
<path fill="none" stroke="#ff0000" stroke-width=".7682" d="M691.85,-232.5508C703.3884,-238.2227 715.299,-233.4961 715.299,-218.3711 715.299,-207.6182 709.279,-202.1209 701.6526,-201.8794"/>
<polygon fill="#ff0000" stroke="#ff0000" stroke-width=".7682" points="700.7794,-198.4892 691.85,-204.1914 702.3864,-205.3023 700.7794,-198.4892"/>
</g>
<!-- forward&#45;&gt;forward -->
<g id="edge6" class="edge">
<title>forward&#45;&gt;forward</title>
<path fill="none" stroke="#00ff00" stroke-width=".2697" stroke-dasharray="1,5" d="M222.913,-234.6445C234.9564,-236.0846 245.3198,-230.6602 245.3198,-218.3711 245.3198,-209.7304 240.1963,-204.4834 232.9677,-202.6301"/>
<polygon fill="#00ff00" stroke="#00ff00" stroke-width=".2697" points="233.0841,-199.1315 222.913,-202.0977 232.7139,-206.1217 233.0841,-199.1315"/>
</g>
<!-- 532 -->
<g id="node23" class="node">
<title>532</title>
<ellipse fill="#ffffff" stroke="#000000" cx="195.5" cy="-129.3381" rx="21.4286" ry="21.4286"/>
<text text-anchor="middle" x="195.5" y="-127.1381" font-family="Times,serif" font-size="9.00" fill="#000000">532</text>
</g>
<!-- forward&#45;&gt;532 -->
<g id="edge45" class="edge">
<title>forward&#45;&gt;532</title>
<path fill="none" stroke="#00ff00" stroke-width=".3063" d="M189.0179,-186.9814C188.6507,-178.2255 188.661,-168.7256 189.0489,-160.0116"/>
<polygon fill="#00ff00" stroke="#00ff00" stroke-width=".3063" points="192.5516,-160.0814 189.7092,-149.875 185.5664,-159.6263 192.5516,-160.0814"/>
</g>
<!-- backward&#45;&gt;backward -->
<g id="edge13" class="edge">
<title>backward&#45;&gt;backward</title>
<path fill="none" stroke="#00ff00" stroke-width=".5382" d="M489.4221,-53.2609C501.5396,-53.9242 511.5624,-48.1914 511.5624,-36.0624 511.5624,-27.5343 506.6073,-22.1683 499.453,-19.9644"/>
<polygon fill="#00ff00" stroke="#00ff00" stroke-width=".5382" points="499.7441,-16.4755 489.4221,-18.864 498.9808,-23.4337 499.7441,-16.4755"/>
</g>
<!-- 164 -->
<g id="node18" class="node">
<title>164</title>
<ellipse fill="#ffffff" stroke="#000000" cx="506.5" cy="-129.3381" rx="21.4286" ry="21.4286"/>
<text text-anchor="middle" x="506.5" y="-127.1381" font-family="Times,serif" font-size="9.00" fill="#000000">164</text>
</g>
<!-- 164&#45;&gt;backward -->
<g id="edge36" class="edge">
<title>164&#45;&gt;backward</title>
<path fill="none" stroke="#ff0000" stroke-width=".9285" stroke-dasharray="1,5" d="M496.5841,-110.4624C491.5531,-100.8854 485.232,-88.8527 479.1487,-77.2726"/>
<polygon fill="#ff0000" stroke="#ff0000" stroke-width=".9285" points="482.0993,-75.3632 474.3502,-68.1382 475.9023,-78.6187 482.0993,-75.3632"/>
</g>
<!-- 390&#45;&gt;forward -->
<g id="edge40" class="edge">
<title>390&#45;&gt;forward</title>
<path fill="none" stroke="#00ff00" stroke-width=".2117" d="M143.0327,-290.2377C150.8403,-279.5432 161.1581,-265.4105 170.5769,-252.5093"/>
<polygon fill="#00ff00" stroke="#00ff00" stroke-width=".2117" points="173.5314,-254.3981 176.6011,-244.2577 167.8777,-250.2706 173.5314,-254.3981"/>
</g>
<!-- 454&#45;&gt;right -->
<g id="edge42" class="edge">
<title>454&#45;&gt;right</title>
<path fill="none" stroke="#ff0000" stroke-width=".1026" d="M800.2804,-149.7588C801.2235,-160.2988 801.4786,-173.4181 801.0457,-185.3536"/>
<polygon fill="#ff0000" stroke="#ff0000" stroke-width=".1026" points="797.5454,-185.265 800.4882,-195.4429 804.5347,-185.6513 797.5454,-185.265"/>
</g>
<!-- 482 -->
<g id="node21" class="node">
<title>482</title>
<ellipse fill="#ffffff" stroke="#000000" cx="871.5" cy="-307.4041" rx="21.4286" ry="21.4286"/>
<text text-anchor="middle" x="871.5" y="-305.2041" font-family="Times,serif" font-size="9.00" fill="#000000">482</text>
</g>
<!-- 482&#45;&gt;right -->
<g id="edge44" class="edge">
<title>482&#45;&gt;right</title>
<path fill="none" stroke="#ff0000" stroke-width=".1044" d="M857.377,-291.0741C845.9157,-277.8217 829.5581,-258.9079 816.4001,-243.6935"/>
<polygon fill="#ff0000" stroke="#ff0000" stroke-width=".1044" points="819.0426,-241.3985 809.8538,-236.1243 813.7479,-245.9775 819.0426,-241.3985"/>
</g>
<!-- 73&#45;&gt;right -->
<g id="edge32" class="edge">
<title>73&#45;&gt;right</title>
<path fill="none" stroke="#00ff00" stroke-width=".5518" stroke-dasharray="1,5" d="M837.0957,-377.1052C856.8549,-369.4235 887.9281,-353.9041 901.5,-328.6173 910.4172,-312.0029 910.5887,-302.7121 901.5,-286.1909 885.684,-257.4408 851.9605,-239.1666 826.5741,-228.9226"/>
<polygon fill="#00ff00" stroke="#00ff00" stroke-width=".5518" points="827.5575,-225.5519 816.9666,-225.2619 825.0651,-232.0931 827.5575,-225.5519"/>
</g>
<!-- 73&#45;&gt;left -->
<g id="edge38" class="edge">
<title>73&#45;&gt;left</title>
<path fill="none" stroke="#00ff00" stroke-width=".2161" d="M808.6022,-367.7976C794.4638,-348.3459 768.7317,-313.8625 744.5,-286.1909 730.1896,-269.8491 712.9428,-252.4383 699.5315,-239.3496"/>
<polygon fill="#00ff00" stroke="#00ff00" stroke-width=".2161" points="701.7486,-236.6245 692.1295,-232.1833 696.8796,-241.6537 701.7486,-236.6245"/>
</g>
<!-- 73&#45;&gt;482 -->
<g id="edge43" class="edge">
<title>73&#45;&gt;482</title>
<path fill="none" stroke="#00ff00" stroke-width=".2939" d="M830.023,-367.7037C836.7865,-357.8708 845.747,-344.844 853.6085,-333.4149"/>
<polygon fill="#00ff00" stroke="#00ff00" stroke-width=".2939" points="856.5678,-335.2885 859.3514,-325.0658 850.8004,-331.3214 856.5678,-335.2885"/>
</g>
<!-- 532&#45;&gt;forward -->
<g id="edge46" class="edge">
<title>532&#45;&gt;forward</title>
<path fill="none" stroke="#00ff00" stroke-width=".3707" d="M201.2908,-149.875C202.0086,-157.9549 202.3235,-167.5371 202.2356,-176.9353"/>
<polygon fill="#00ff00" stroke="#00ff00" stroke-width=".3707" points="198.7356,-176.8963 201.9821,-186.9814 205.7334,-177.0729 198.7356,-176.8963"/>
</g>
<!-- 90&#45;&gt;backward -->
<g id="edge34" class="edge">
<title>90&#45;&gt;backward</title>
<path fill="none" stroke="#00ff00" stroke-width=".345" stroke-dasharray="1,5" d="M500.1303,-202.4733C492.6335,-189.0646 482.4268,-169.1396 476.5,-150.5513 469.478,-128.5281 464.9339,-103.2505 462.057,-82.0586"/>
<polygon fill="#00ff00" stroke="#00ff00" stroke-width=".345" points="465.5132,-81.4919 460.7751,-72.0156 458.5695,-82.3783 465.5132,-81.4919"/>
</g>
<!-- 90&#45;&gt;164 -->
<g id="edge35" class="edge">
<title>90&#45;&gt;164</title>
<path fill="none" stroke="#00ff00" stroke-width=".2131" d="M508.8784,-199.9234C508.4965,-188.5897 507.9973,-173.7753 507.5549,-160.6463"/>
<polygon fill="#00ff00" stroke="#00ff00" stroke-width=".2131" points="511.0505,-160.4535 507.2157,-150.5771 504.0545,-160.6893 511.0505,-160.4535"/>
</g>
</g>
</svg>
