<?xml version="1.0" encoding="UTF-8" standalone="no"?>
<!DOCTYPE svg PUBLIC "-//W3C//DTD SVG 1.1//EN"
 "http://www.w3.org/Graphics/SVG/1.1/DTD/svg11.dtd">
<!-- Generated by graphviz version 2.40.1 (20161225.0304)
 -->
<!-- Title: %3 Pages: 1 -->
<svg width="1310pt" height="298pt"
 viewBox="0.00 0.00 1309.50 298.05" xmlns="http://www.w3.org/2000/svg" xmlns:xlink="http://www.w3.org/1999/xlink">
<g id="graph0" class="graph" transform="scale(1 1) rotate(0) translate(4 294.0488)">
<title>%3</title>
<polygon fill="#ffffff" stroke="transparent" points="-4,4 -4,-294.0488 1305.5,-294.0488 1305.5,4 -4,4"/>
<!-- x&#45;vel -->
<g id="node1" class="node">
<title>x&#45;vel</title>
<polygon fill="#d3d3d3" stroke="#000000" points="618.5,-220.3 583.5,-220.3 583.5,-202.3 618.5,-202.3 618.5,-220.3"/>
<text text-anchor="middle" x="601" y="-209.1" font-family="Times,serif" font-size="9.00" fill="#000000">x&#45;vel</text>
</g>
<!-- right -->
<g id="node14" class="node">
<title>right</title>
<ellipse fill="#add8e6" stroke="#000000" cx="356" cy="-114.4889" rx="23.1702" ry="23.1702"/>
<text text-anchor="middle" x="356" y="-112.2889" font-family="Times,serif" font-size="9.00" fill="#000000">right</text>
</g>
<!-- x&#45;vel&#45;&gt;right -->
<g id="edge30" class="edge">
<title>x&#45;vel&#45;&gt;right</title>
<path fill="none" stroke="#ff0000" stroke-width=".2967" d="M592.7651,-202.0147C587.7702,-196.8573 581.0202,-190.6701 574,-186.5513 513.5246,-151.0699 433.2347,-130.3258 388.9106,-120.8181"/>
<polygon fill="#ff0000" stroke="#ff0000" stroke-width=".2967" points="389.4765,-117.3609 378.9726,-118.7463 388.0478,-124.2135 389.4765,-117.3609"/>
</g>
<!-- forward -->
<g id="node16" class="node">
<title>forward</title>
<ellipse fill="#add8e6" stroke="#000000" cx="929" cy="-114.4889" rx="31.6406" ry="31.6406"/>
<text text-anchor="middle" x="929" y="-112.2889" font-family="Times,serif" font-size="9.00" fill="#000000">forward</text>
</g>
<!-- x&#45;vel&#45;&gt;forward -->
<g id="edge6" class="edge">
<title>x&#45;vel&#45;&gt;forward</title>
<path fill="none" stroke="#ff0000" stroke-width=".9714" d="M608.6504,-202.2779C613.6411,-196.9469 620.588,-190.4901 628,-186.5513 712.8248,-141.475 825.9595,-124.2129 886.5028,-117.9"/>
<polygon fill="#ff0000" stroke="#ff0000" stroke-width=".9714" points="887.2157,-121.3466 896.8218,-116.8776 886.5255,-114.3807 887.2157,-121.3466"/>
</g>
<!-- y&#45;vel -->
<g id="node2" class="node">
<title>y&#45;vel</title>
<polygon fill="#d3d3d3" stroke="#000000" points="181.5,-220.3 146.5,-220.3 146.5,-202.3 181.5,-202.3 181.5,-220.3"/>
<text text-anchor="middle" x="164" y="-209.1" font-family="Times,serif" font-size="9.00" fill="#000000">y&#45;vel</text>
</g>
<!-- none -->
<g id="node13" class="node">
<title>none</title>
<ellipse fill="#add8e6" stroke="#000000" cx="601" cy="-114.4889" rx="24.0833" ry="24.0833"/>
<text text-anchor="middle" x="601" y="-112.2889" font-family="Times,serif" font-size="9.00" fill="#000000">none</text>
</g>
<!-- y&#45;vel&#45;&gt;none -->
<g id="edge7" class="edge">
<title>y&#45;vel&#45;&gt;none</title>
<path fill="none" stroke="#00ff00" stroke-width=".316" stroke-dasharray="1,5" d="M181.6531,-203.6288C194.5705,-198.2507 212.6259,-191.2168 229,-186.5513 261.53,-177.2825 481.9013,-136.3935 567.292,-120.6746"/>
<polygon fill="#00ff00" stroke="#00ff00" stroke-width=".316" points="568.0469,-124.0945 577.2488,-118.8432 566.7806,-117.21 568.0469,-124.0945"/>
</g>
<!-- y&#45;vel&#45;&gt;right -->
<g id="edge10" class="edge">
<title>y&#45;vel&#45;&gt;right</title>
<path fill="none" stroke="#ff0000" stroke-width=".6366" stroke-dasharray="1,5" d="M174.5058,-202.1598C180.5428,-197.1732 188.4133,-191.1067 196,-186.5513 238.3692,-161.1111 291.2879,-138.9766 324.3737,-126.1735"/>
<polygon fill="#ff0000" stroke="#ff0000" stroke-width=".6366" points="325.8792,-129.3451 333.9713,-122.5064 323.3807,-122.8062 325.8792,-129.3451"/>
</g>
<!-- left -->
<g id="node15" class="node">
<title>left</title>
<ellipse fill="#add8e6" stroke="#000000" cx="110" cy="-114.4889" rx="19.6" ry="19.6"/>
<text text-anchor="middle" x="110" y="-112.2889" font-family="Times,serif" font-size="9.00" fill="#000000">left</text>
</g>
<!-- y&#45;vel&#45;&gt;left -->
<g id="edge11" class="edge">
<title>y&#45;vel&#45;&gt;left</title>
<path fill="none" stroke="#00ff00" stroke-width=".1846" stroke-dasharray="1,5" d="M158.8223,-202.0174C151.039,-188.0635 136.0294,-161.1544 124.6974,-140.8384"/>
<polygon fill="#00ff00" stroke="#00ff00" stroke-width=".1846" points="127.7168,-139.0665 119.7888,-132.0382 121.6035,-142.4764 127.7168,-139.0665"/>
</g>
<!-- 212 -->
<g id="node21" class="node">
<title>212</title>
<ellipse fill="#ffffff" stroke="#000000" cx="411" cy="-21.2132" rx="21.4286" ry="21.4286"/>
<text text-anchor="middle" x="411" y="-19.0132" font-family="Times,serif" font-size="9.00" fill="#000000">212</text>
</g>
<!-- y&#45;vel&#45;&gt;212 -->
<g id="edge34" class="edge">
<title>y&#45;vel&#45;&gt;212</title>
<path fill="none" stroke="#00ff00" stroke-width=".5128" stroke-dasharray="1,5" d="M174.1595,-202.1813C199.001,-180.0383 265.0932,-122.0455 324,-78.4264 343.5472,-63.9522 366.5792,-48.8886 384.0335,-37.8534"/>
<polygon fill="#00ff00" stroke="#00ff00" stroke-width=".5128" points="385.995,-40.7547 392.6046,-32.4743 382.2739,-34.8256 385.995,-40.7547"/>
</g>
<!-- x&#45;pos -->
<g id="node3" class="node">
<title>x&#45;pos</title>
<polygon fill="#d3d3d3" stroke="#000000" points="36,-220.3 0,-220.3 0,-202.3 36,-202.3 36,-220.3"/>
<text text-anchor="middle" x="18" y="-209.1" font-family="Times,serif" font-size="9.00" fill="#000000">x&#45;pos</text>
</g>
<!-- x&#45;pos&#45;&gt;left -->
<g id="edge3" class="edge">
<title>x&#45;pos&#45;&gt;left</title>
<path fill="none" stroke="#ff0000" stroke-width=".1961" stroke-dasharray="1,5" d="M26.8213,-202.0174C41.0982,-186.9939 69.6464,-156.9527 89.281,-136.2914"/>
<polygon fill="#ff0000" stroke="#ff0000" stroke-width=".1961" points="91.9698,-138.5428 96.3214,-128.8828 86.8956,-133.7207 91.9698,-138.5428"/>
</g>
<!-- y&#45;pos -->
<g id="node4" class="node">
<title>y&#45;pos</title>
<polygon fill="#d3d3d3" stroke="#000000" points="128,-220.3 92,-220.3 92,-202.3 128,-202.3 128,-220.3"/>
<text text-anchor="middle" x="110" y="-209.1" font-family="Times,serif" font-size="9.00" fill="#000000">y&#45;pos</text>
</g>
<!-- y&#45;pos&#45;&gt;right -->
<g id="edge20" class="edge">
<title>y&#45;pos&#45;&gt;right</title>
<path fill="none" stroke="#ff0000" stroke-width=".6503" d="M118.2328,-202.0112C123.227,-196.8525 129.977,-190.6653 137,-186.5513 197.7498,-150.9645 278.4091,-130.2599 322.9375,-120.7871"/>
<polygon fill="#ff0000" stroke="#ff0000" stroke-width=".6503" points="323.8368,-124.1753 332.9214,-118.7236 322.4199,-117.3202 323.8368,-124.1753"/>
</g>
<!-- y&#45;pos&#45;&gt;left -->
<g id="edge12" class="edge">
<title>y&#45;pos&#45;&gt;left</title>
<path fill="none" stroke="#00ff00" stroke-width=".2107" stroke-dasharray="1,5" d="M110,-202.0174C110,-188.9394 110,-164.4816 110,-144.7373"/>
<polygon fill="#00ff00" stroke="#00ff00" stroke-width=".2107" points="113.5001,-144.6419 110,-134.6419 106.5001,-144.6419 113.5001,-144.6419"/>
</g>
<!-- x&#45;lm1&#45;vec -->
<g id="node5" class="node">
<title>x&#45;lm1&#45;vec</title>
<polygon fill="#d3d3d3" stroke="#000000" points="733.5,-290.0488 680.5,-290.0488 680.5,-272.0488 733.5,-272.0488 733.5,-290.0488"/>
<text text-anchor="middle" x="707" y="-278.8488" font-family="Times,serif" font-size="9.00" fill="#000000">x&#45;lm1&#45;vec</text>
</g>
<!-- x&#45;lm1&#45;vec&#45;&gt;none -->
<g id="edge8" class="edge">
<title>x&#45;lm1&#45;vec&#45;&gt;none</title>
<path fill="none" stroke="#00ff00" stroke-width=".2884" stroke-dasharray="1,5" d="M707.1273,-272.0088C706.9788,-254.3169 704.6555,-214.4174 688,-186.5513 674.126,-163.339 649.959,-144.2263 630.6114,-131.5308"/>
<polygon fill="#00ff00" stroke="#00ff00" stroke-width=".2884" points="632.4378,-128.5447 622.1154,-126.1576 628.6962,-134.4608 632.4378,-128.5447"/>
</g>
<!-- x&#45;lm1&#45;vec&#45;&gt;right -->
<g id="edge36" class="edge">
<title>x&#45;lm1&#45;vec&#45;&gt;right</title>
<path fill="none" stroke="#00ff00" stroke-width=".636" stroke-dasharray="1,5" d="M680.1122,-280.4846C613.7815,-278.572 444.6327,-270.3665 402,-236.0488 375.3476,-214.5946 364.1299,-175.9094 359.4132,-147.9317"/>
<polygon fill="#00ff00" stroke="#00ff00" stroke-width=".636" points="362.8382,-147.1677 357.9052,-137.7914 355.9143,-148.1975 362.8382,-147.1677"/>
</g>
<!-- x&#45;lm1&#45;vec&#45;&gt;left -->
<g id="edge16" class="edge">
<title>x&#45;lm1&#45;vec&#45;&gt;left</title>
<path fill="none" stroke="#ff0000" stroke-width="1.6558" d="M680.2789,-279.6157C562.2911,-273.2267 93.3468,-247.1686 83,-236.0488 58.6552,-209.8851 77.0107,-166.822 93.0705,-139.5952"/>
<polygon fill="#ff0000" stroke="#ff0000" stroke-width="1.6558" points="96.0915,-141.3645 98.3639,-131.0162 90.1342,-137.6887 96.0915,-141.3645"/>
</g>
<!-- x&#45;lm1&#45;vec&#45;&gt;forward -->
<g id="edge2" class="edge">
<title>x&#45;lm1&#45;vec&#45;&gt;forward</title>
<path fill="none" stroke="#00ff00" stroke-width=".1258" d="M733.8843,-278.7918C783.4193,-274.0599 886.2189,-261.3799 910,-236.0488 929.7474,-215.0143 933.9459,-182.3361 933.5059,-156.1568"/>
<polygon fill="#00ff00" stroke="#00ff00" stroke-width=".1258" points="937.0014,-155.972 933.111,-146.1174 930.0068,-156.2472 937.0014,-155.972"/>
</g>
<!-- backward -->
<g id="node17" class="node">
<title>backward</title>
<ellipse fill="#add8e6" stroke="#000000" cx="1126" cy="-114.4889" rx="36.125" ry="36.125"/>
<text text-anchor="middle" x="1126" y="-112.2889" font-family="Times,serif" font-size="9.00" fill="#000000">backward</text>
</g>
<!-- x&#45;lm1&#45;vec&#45;&gt;backward -->
<g id="edge5" class="edge">
<title>x&#45;lm1&#45;vec&#45;&gt;backward</title>
<path fill="none" stroke="#ff0000" stroke-width=".4734" stroke-dasharray="1,5" d="M733.7204,-280.6413C806.1076,-279.0727 1004.0994,-271.5605 1057,-236.0488 1083.9168,-217.9798 1101.5311,-185.6652 1112.2218,-158.8939"/>
<polygon fill="#ff0000" stroke="#ff0000" stroke-width=".4734" points="1115.5797,-159.9096 1115.8516,-149.3183 1109.0342,-157.4284 1115.5797,-159.9096"/>
</g>
<!-- 1419 -->
<g id="node19" class="node">
<title>1419</title>
<ellipse fill="#ffffff" stroke="#000000" cx="330" cy="-211.3" rx="25" ry="25"/>
<text text-anchor="middle" x="330" y="-209.1" font-family="Times,serif" font-size="9.00" fill="#000000">1419</text>
</g>
<!-- x&#45;lm1&#45;vec&#45;&gt;1419 -->
<g id="edge45" class="edge">
<title>x&#45;lm1&#45;vec&#45;&gt;1419</title>
<path fill="none" stroke="#ff0000" stroke-width=".2422" d="M680.4183,-278.9958C611.1391,-273.4098 426.4394,-256.9448 369,-236.0488 365.6583,-234.8331 362.3041,-233.296 359.042,-231.5853"/>
<polygon fill="#ff0000" stroke="#ff0000" stroke-width=".2422" points="360.5828,-228.4324 350.1794,-226.4273 357.0617,-234.4824 360.5828,-228.4324"/>
</g>
<!-- 1589 -->
<g id="node22" class="node">
<title>1589</title>
<ellipse fill="#ffffff" stroke="#000000" cx="1172" cy="-211.3" rx="25" ry="25"/>
<text text-anchor="middle" x="1172" y="-209.1" font-family="Times,serif" font-size="9.00" fill="#000000">1589</text>
</g>
<!-- x&#45;lm1&#45;vec&#45;&gt;1589 -->
<g id="edge48" class="edge">
<title>x&#45;lm1&#45;vec&#45;&gt;1589</title>
<path fill="none" stroke="#00ff00" stroke-width=".3188" d="M733.6378,-279.756C796.9432,-276.2955 961.1206,-265.0356 1095,-236.0488 1109.6542,-232.8759 1125.4803,-228.0441 1138.951,-223.4892"/>
<polygon fill="#00ff00" stroke="#00ff00" stroke-width=".3188" points="1140.4359,-226.6787 1148.7346,-220.0921 1138.1397,-220.066 1140.4359,-226.6787"/>
</g>
<!-- y&#45;lm1&#45;vec -->
<g id="node6" class="node">
<title>y&#45;lm1&#45;vec</title>
<polygon fill="#d3d3d3" stroke="#000000" points="995.5,-290.0488 942.5,-290.0488 942.5,-272.0488 995.5,-272.0488 995.5,-290.0488"/>
<text text-anchor="middle" x="969" y="-278.8488" font-family="Times,serif" font-size="9.00" fill="#000000">y&#45;lm1&#45;vec</text>
</g>
<!-- y&#45;lm1&#45;vec&#45;&gt;none -->
<g id="edge22" class="edge">
<title>y&#45;lm1&#45;vec&#45;&gt;none</title>
<path fill="none" stroke="#ff0000" stroke-width=".1651" stroke-dasharray="1,5" d="M942.2985,-276.4287C914.4809,-270.6148 870.6241,-258.547 839,-236.0488 816.1789,-219.8132 822.7053,-202.9484 800,-186.5513 748.7848,-149.5653 676.6036,-129.7554 634.7183,-120.733"/>
<polygon fill="#ff0000" stroke="#ff0000" stroke-width=".1651" points="635.2557,-117.2701 624.7535,-118.6678 633.835,-124.1244 635.2557,-117.2701"/>
</g>
<!-- y&#45;lm1&#45;vec&#45;&gt;forward -->
<g id="edge25" class="edge">
<title>y&#45;lm1&#45;vec&#45;&gt;forward</title>
<path fill="none" stroke="#00ff00" stroke-width="1.4511" d="M987.002,-271.9643C999.9408,-264.3347 1016.3921,-252.1032 1024,-236.0488 1033.4206,-216.1691 1033.7845,-206.2544 1024,-186.5513 1012.1297,-162.648 988.1218,-144.5441 967.2119,-132.4606"/>
<polygon fill="#00ff00" stroke="#00ff00" stroke-width="1.4511" points="968.6305,-129.2464 958.1819,-127.4925 965.2562,-135.3795 968.6305,-129.2464"/>
</g>
<!-- y&#45;lm1&#45;vec&#45;&gt;backward -->
<g id="edge27" class="edge">
<title>y&#45;lm1&#45;vec&#45;&gt;backward</title>
<path fill="none" stroke="#ff0000" stroke-width="1.0664" d="M995.5056,-278.8994C1064.0128,-273.0775 1242.8235,-256.0856 1260,-236.0488 1274.3177,-219.3468 1271.2857,-205.4347 1260,-186.5513 1240.8637,-154.5321 1202.0643,-135.9102 1171.1183,-125.6481"/>
<polygon fill="#ff0000" stroke="#ff0000" stroke-width="1.0664" points="1171.9706,-122.2475 1161.3817,-122.6036 1169.8815,-128.9286 1171.9706,-122.2475"/>
</g>
<!-- 536 -->
<g id="node24" class="node">
<title>536</title>
<ellipse fill="#ffffff" stroke="#000000" cx="658" cy="-211.3" rx="21.4286" ry="21.4286"/>
<text text-anchor="middle" x="658" y="-209.1" font-family="Times,serif" font-size="9.00" fill="#000000">536</text>
</g>
<!-- y&#45;lm1&#45;vec&#45;&gt;536 -->
<g id="edge37" class="edge">
<title>y&#45;lm1&#45;vec&#45;&gt;536</title>
<path fill="none" stroke="#ff0000" stroke-width=".4989" d="M942.427,-277.6016C897.3891,-271.4327 803.4085,-257.1459 726,-236.0488 713.0267,-232.513 699.0151,-227.6077 687.101,-223.0961"/>
<polygon fill="#ff0000" stroke="#ff0000" stroke-width=".4989" points="688.2446,-219.7857 677.6554,-219.4377 685.7163,-226.3132 688.2446,-219.7857"/>
</g>
<!-- x&#45;lm2&#45;vec -->
<g id="node7" class="node">
<title>x&#45;lm2&#45;vec</title>
<polygon fill="#d3d3d3" stroke="#000000" points="1301.5,-290.0488 1248.5,-290.0488 1248.5,-272.0488 1301.5,-272.0488 1301.5,-290.0488"/>
<text text-anchor="middle" x="1275" y="-278.8488" font-family="Times,serif" font-size="9.00" fill="#000000">x&#45;lm2&#45;vec</text>
</g>
<!-- x&#45;lm2&#45;vec&#45;&gt;backward -->
<g id="edge17" class="edge">
<title>x&#45;lm2&#45;vec&#45;&gt;backward</title>
<path fill="none" stroke="#00ff00" stroke-width=".5212" stroke-dasharray="1,5" d="M1280.7885,-271.8688C1291.2858,-253.9316 1310.8021,-213.6219 1293,-186.5513 1266.3454,-146.0192 1211.5408,-128.1825 1171.9712,-120.3987"/>
<polygon fill="#00ff00" stroke="#00ff00" stroke-width=".5212" points="1172.4778,-116.9335 1162.0127,-118.5862 1171.2243,-123.8204 1172.4778,-116.9335"/>
</g>
<!-- 87 -->
<g id="node23" class="node">
<title>87</title>
<ellipse fill="#ffffff" stroke="#000000" cx="1233" cy="-211.3" rx="18.2703" ry="18.2703"/>
<text text-anchor="middle" x="1233" y="-209.1" font-family="Times,serif" font-size="9.00" fill="#000000">87</text>
</g>
<!-- x&#45;lm2&#45;vec&#45;&gt;87 -->
<g id="edge31" class="edge">
<title>x&#45;lm2&#45;vec&#45;&gt;87</title>
<path fill="none" stroke="#00ff00" stroke-width=".2787" d="M1269.5092,-271.9303C1263.9983,-262.7784 1255.2677,-248.2797 1247.7259,-235.7552"/>
<polygon fill="#00ff00" stroke="#00ff00" stroke-width=".2787" points="1250.6645,-233.8502 1242.5075,-227.089 1244.6677,-237.4612 1250.6645,-233.8502"/>
</g>
<!-- y&#45;lm2&#45;vec -->
<g id="node8" class="node">
<title>y&#45;lm2&#45;vec</title>
<polygon fill="#d3d3d3" stroke="#000000" points="900.5,-220.3 847.5,-220.3 847.5,-202.3 900.5,-202.3 900.5,-220.3"/>
<text text-anchor="middle" x="874" y="-209.1" font-family="Times,serif" font-size="9.00" fill="#000000">y&#45;lm2&#45;vec</text>
</g>
<!-- y&#45;lm2&#45;vec&#45;&gt;none -->
<g id="edge14" class="edge">
<title>y&#45;lm2&#45;vec&#45;&gt;none</title>
<path fill="none" stroke="#00ff00" stroke-width=".2492" d="M860.7811,-202.1958C852.9582,-197.0986 842.7082,-190.9115 833,-186.5513 765.0395,-156.0287 680.4088,-133.3183 634.4691,-122.1711"/>
<polygon fill="#00ff00" stroke="#00ff00" stroke-width=".2492" points="635.2737,-118.7648 624.7337,-119.8419 633.6449,-125.5727 635.2737,-118.7648"/>
</g>
<!-- y&#45;lm2&#45;vec&#45;&gt;right -->
<g id="edge24" class="edge">
<title>y&#45;lm2&#45;vec&#45;&gt;right</title>
<path fill="none" stroke="#ff0000" stroke-width=".1246" d="M850.3038,-202.2373C835.9281,-197.0262 817.1128,-190.7091 800,-186.5513 698.6048,-161.9158 670.992,-167.3009 568,-150.5513 504.6437,-140.2476 430.7657,-127.518 389.0754,-120.2684"/>
<polygon fill="#ff0000" stroke="#ff0000" stroke-width=".1246" points="389.6478,-116.8155 379.1956,-118.5482 388.447,-123.7117 389.6478,-116.8155"/>
</g>
<!-- y&#45;lm2&#45;vec&#45;&gt;forward -->
<g id="edge15" class="edge">
<title>y&#45;lm2&#45;vec&#45;&gt;forward</title>
<path fill="none" stroke="#ff0000" stroke-width=".2348" stroke-dasharray="1,5" d="M879.2736,-202.0174C885.9281,-190.3041 897.7688,-169.4621 908.2268,-151.054"/>
<polygon fill="#ff0000" stroke="#ff0000" stroke-width=".2348" points="911.3243,-152.6872 913.2208,-142.2635 905.2379,-149.2294 911.3243,-152.6872"/>
</g>
<!-- y&#45;lm2&#45;vec&#45;&gt;backward -->
<g id="edge47" class="edge">
<title>y&#45;lm2&#45;vec&#45;&gt;backward</title>
<path fill="none" stroke="#ff0000" stroke-width=".2451" d="M897.7075,-202.1923C940.0389,-185.9298 1029.1933,-151.6792 1082.703,-131.1223"/>
<polygon fill="#ff0000" stroke="#ff0000" stroke-width=".2451" points="1084.1807,-134.3041 1092.2603,-127.4507 1081.6703,-127.7697 1084.1807,-134.3041"/>
</g>
<!-- x&#45;other&#45;vec -->
<g id="node9" class="node">
<title>x&#45;other&#45;vec</title>
<polygon fill="#d3d3d3" stroke="#000000" points="524,-290.0488 466,-290.0488 466,-272.0488 524,-272.0488 524,-290.0488"/>
<text text-anchor="middle" x="495" y="-278.8488" font-family="Times,serif" font-size="9.00" fill="#000000">x&#45;other&#45;vec</text>
</g>
<!-- x&#45;other&#45;vec&#45;&gt;none -->
<g id="edge26" class="edge">
<title>x&#45;other&#45;vec&#45;&gt;none</title>
<path fill="none" stroke="#00ff00" stroke-width=".1572" d="M494.8727,-272.0088C495.0212,-254.3169 497.3445,-214.4174 514,-186.5513 527.874,-163.339 552.041,-144.2263 571.3886,-131.5308"/>
<polygon fill="#00ff00" stroke="#00ff00" stroke-width=".1572" points="573.3038,-134.4608 579.8846,-126.1576 569.5622,-128.5447 573.3038,-134.4608"/>
</g>
<!-- x&#45;other&#45;vec&#45;&gt;right -->
<g id="edge4" class="edge">
<title>x&#45;other&#45;vec&#45;&gt;right</title>
<path fill="none" stroke="#00ff00" stroke-width=".5414" stroke-dasharray="1,5" d="M465.5453,-278.1992C399.5084,-271.5142 244.1908,-254.0253 229,-236.0488 214.8009,-219.2459 217.9294,-205.5616 229,-186.5513 249.1726,-151.9111 292.8784,-132.5702 323.3494,-122.8446"/>
<polygon fill="#00ff00" stroke="#00ff00" stroke-width=".5414" points="324.5534,-126.1375 333.1225,-119.9068 322.5382,-119.4338 324.5534,-126.1375"/>
</g>
<!-- x&#45;other&#45;vec&#45;&gt;backward -->
<g id="edge1" class="edge">
<title>x&#45;other&#45;vec&#45;&gt;backward</title>
<path fill="none" stroke="#00ff00" stroke-width=".2061" stroke-dasharray="1,5" d="M524.3327,-279.2595C632.2801,-272.5835 1002.328,-248.8581 1024,-236.0488 1046.7613,-222.5956 1040.4601,-207.1788 1057,-186.5513 1067.9473,-172.8985 1081.0006,-158.7981 1092.7927,-146.7299"/>
<polygon fill="#00ff00" stroke="#00ff00" stroke-width=".2061" points="1095.399,-149.072 1099.9418,-139.5005 1090.4216,-144.15 1095.399,-149.072"/>
</g>
<!-- 1139 -->
<g id="node20" class="node">
<title>1139</title>
<ellipse fill="#ffffff" stroke="#000000" cx="263" cy="-211.3" rx="25" ry="25"/>
<text text-anchor="middle" x="263" y="-209.1" font-family="Times,serif" font-size="9.00" fill="#000000">1139</text>
</g>
<!-- x&#45;other&#45;vec&#45;&gt;1139 -->
<g id="edge42" class="edge">
<title>x&#45;other&#45;vec&#45;&gt;1139</title>
<path fill="none" stroke="#00ff00" stroke-width=".8497" stroke-dasharray="1,5" d="M465.7642,-278.3132C425.8408,-273.7297 352.75,-262.2773 296,-236.0488 294.1961,-235.215 292.3955,-234.2713 290.6187,-233.2511"/>
<polygon fill="#00ff00" stroke="#00ff00" stroke-width=".8497" points="292.3203,-230.1828 282.0279,-227.6693 288.5064,-236.0526 292.3203,-230.1828"/>
</g>
<!-- x&#45;other&#45;vec&#45;&gt;536 -->
<g id="edge44" class="edge">
<title>x&#45;other&#45;vec&#45;&gt;536</title>
<path fill="none" stroke="#ff0000" stroke-width=".2633" d="M524.0198,-274.4839C551.8446,-267.4535 594.4561,-254.7245 628,-236.0488 630.0131,-234.928 632.0226,-233.6662 633.9936,-232.321"/>
<polygon fill="#ff0000" stroke="#ff0000" stroke-width=".2633" points="636.4069,-234.8847 642.281,-226.0674 632.1904,-229.297 636.4069,-234.8847"/>
</g>
<!-- y&#45;other&#45;vec -->
<g id="node10" class="node">
<title>y&#45;other&#45;vec</title>
<polygon fill="#d3d3d3" stroke="#000000" points="1015,-220.3 957,-220.3 957,-202.3 1015,-202.3 1015,-220.3"/>
<text text-anchor="middle" x="986" y="-209.1" font-family="Times,serif" font-size="9.00" fill="#000000">y&#45;other&#45;vec</text>
</g>
<!-- y&#45;other&#45;vec&#45;&gt;none -->
<g id="edge23" class="edge">
<title>y&#45;other&#45;vec&#45;&gt;none</title>
<path fill="none" stroke="#00ff00" stroke-width=".4834" stroke-dasharray="1,5" d="M960.1385,-202.2691C945.5157,-197.3167 926.8416,-191.248 910,-186.5513 810.8459,-158.8998 691.8014,-133.2195 634.7379,-121.3664"/>
<polygon fill="#00ff00" stroke="#00ff00" stroke-width=".4834" points="635.3245,-117.9138 624.8229,-119.3168 633.9073,-124.7688 635.3245,-117.9138"/>
</g>
<!-- y&#45;other&#45;vec&#45;&gt;forward -->
<g id="edge19" class="edge">
<title>y&#45;other&#45;vec&#45;&gt;forward</title>
<path fill="none" stroke="#00ff00" stroke-width=".5216" stroke-dasharray="1,5" d="M980.5346,-202.0174C973.6381,-190.3041 961.3668,-169.4621 950.5286,-151.054"/>
<polygon fill="#00ff00" stroke="#00ff00" stroke-width=".5216" points="953.4428,-149.105 945.353,-142.2635 947.4106,-152.6566 953.4428,-149.105"/>
</g>
<!-- y&#45;other&#45;vec&#45;&gt;backward -->
<g id="edge18" class="edge">
<title>y&#45;other&#45;vec&#45;&gt;backward</title>
<path fill="none" stroke="#00ff00" stroke-width=".2358" stroke-dasharray="1,5" d="M999.1709,-202.1923C1019.2436,-188.3118 1058.267,-161.3268 1087.7528,-140.9371"/>
<polygon fill="#00ff00" stroke="#00ff00" stroke-width=".2358" points="1089.9441,-143.6772 1096.1784,-135.1107 1085.9627,-137.9197 1089.9441,-143.6772"/>
</g>
<!-- x&#45;other&#45;vel -->
<g id="node11" class="node">
<title>x&#45;other&#45;vel</title>
<polygon fill="#d3d3d3" stroke="#000000" points="467,-220.3 411,-220.3 411,-202.3 467,-202.3 467,-220.3"/>
<text text-anchor="middle" x="439" y="-209.1" font-family="Times,serif" font-size="9.00" fill="#000000">x&#45;other&#45;vel</text>
</g>
<!-- x&#45;other&#45;vel&#45;&gt;none -->
<g id="edge21" class="edge">
<title>x&#45;other&#45;vel&#45;&gt;none</title>
<path fill="none" stroke="#00ff00" stroke-width=".5367" d="M454.2406,-202.1923C480.993,-186.205 536.8356,-152.8335 571.4001,-132.1777"/>
<polygon fill="#00ff00" stroke="#00ff00" stroke-width=".5367" points="573.3321,-135.1006 580.1207,-126.9663 569.7412,-129.0918 573.3321,-135.1006"/>
</g>
<!-- x&#45;other&#45;vel&#45;&gt;right -->
<g id="edge28" class="edge">
<title>x&#45;other&#45;vel&#45;&gt;right</title>
<path fill="none" stroke="#00ff00" stroke-width=".4263" stroke-dasharray="1,5" d="M431.0416,-202.0174C418.9345,-187.8957 395.4515,-160.5051 377.9644,-140.1081"/>
<polygon fill="#00ff00" stroke="#00ff00" stroke-width=".4263" points="380.524,-137.7162 371.358,-132.4025 375.2097,-142.2724 380.524,-137.7162"/>
</g>
<!-- y&#45;other&#45;vel -->
<g id="node12" class="node">
<title>y&#45;other&#45;vel</title>
<polygon fill="#d3d3d3" stroke="#000000" points="791,-220.3 735,-220.3 735,-202.3 791,-202.3 791,-220.3"/>
<text text-anchor="middle" x="763" y="-209.1" font-family="Times,serif" font-size="9.00" fill="#000000">y&#45;other&#45;vel</text>
</g>
<!-- y&#45;other&#45;vel&#45;&gt;none -->
<g id="edge29" class="edge">
<title>y&#45;other&#45;vel&#45;&gt;none</title>
<path fill="none" stroke="#00ff00" stroke-width=".4276" d="M747.7594,-202.1923C721.007,-186.205 665.1644,-152.8335 630.5999,-132.1777"/>
<polygon fill="#00ff00" stroke="#00ff00" stroke-width=".4276" points="632.2588,-129.0918 621.8793,-126.9663 628.6679,-135.1006 632.2588,-129.0918"/>
</g>
<!-- none&#45;&gt;212 -->
<g id="edge41" class="edge">
<title>none&#45;&gt;212</title>
<path fill="none" stroke="#00ff00" stroke-width=".4094" stroke-dasharray="1,5" d="M578.6032,-105.5452C543.461,-89.7818 476.0474,-56.8587 438.2032,-37.1348"/>
<polygon fill="#00ff00" stroke="#00ff00" stroke-width=".4094" points="439.7354,-33.9861 429.2565,-32.4231 436.4736,-40.1797 439.7354,-33.9861"/>
</g>
<!-- right&#45;&gt;right -->
<g id="edge13" class="edge">
<title>right&#45;&gt;right</title>
<path fill="none" stroke="#00ff00" stroke-width=".3521" d="M373.414,-130.0543C385.467,-134.7711 397.3345,-129.5826 397.3345,-114.4889 397.3345,-103.7581 391.3363,-98.0339 383.5376,-97.316"/>
<polygon fill="#00ff00" stroke="#00ff00" stroke-width=".3521" points="382.7414,-93.8985 373.414,-98.9234 383.8392,-100.8119 382.7414,-93.8985"/>
</g>
<!-- left&#45;&gt;left -->
<g id="edge9" class="edge">
<title>left&#45;&gt;left</title>
<path fill="none" stroke="#ff0000" stroke-width=".3441" stroke-dasharray="1,5" d="M123.9568,-129.1067C135.6161,-135.3537 147.799,-130.481 147.799,-114.4889 147.799,-102.9945 141.5053,-97.2445 133.6359,-97.2389"/>
<polygon fill="#ff0000" stroke="#ff0000" stroke-width=".3441" points="132.6879,-93.8695 123.9568,-99.871 134.5248,-100.6242 132.6879,-93.8695"/>
</g>
<!-- left&#45;&gt;212 -->
<g id="edge40" class="edge">
<title>left&#45;&gt;212</title>
<path fill="none" stroke="#ff0000" stroke-width=".2089" stroke-dasharray="1,5" d="M128.8778,-107.5255C149.4538,-100.0188 183.4001,-87.8767 213,-78.4264 271.9818,-59.5954 341.6904,-40.0818 380.6774,-29.4118"/>
<polygon fill="#ff0000" stroke="#ff0000" stroke-width=".2089" points="381.637,-32.778 390.3636,-26.77 379.7951,-26.0247 381.637,-32.778"/>
</g>
<!-- 714 -->
<g id="node18" class="node">
<title>714</title>
<ellipse fill="#ffffff" stroke="#000000" cx="544" cy="-211.3" rx="21.4286" ry="21.4286"/>
<text text-anchor="middle" x="544" y="-209.1" font-family="Times,serif" font-size="9.00" fill="#000000">714</text>
</g>
<!-- 714&#45;&gt;none -->
<g id="edge39" class="edge">
<title>714&#45;&gt;none</title>
<path fill="none" stroke="#ff0000" stroke-width=".1351" d="M554.9902,-192.6339C563.049,-178.9464 574.1575,-160.0792 583.4404,-144.3128"/>
<polygon fill="#ff0000" stroke="#ff0000" stroke-width=".1351" points="586.6005,-145.8438 588.6582,-135.4507 580.5684,-142.2922 586.6005,-145.8438"/>
</g>
<!-- 1419&#45;&gt;right -->
<g id="edge46" class="edge">
<title>1419&#45;&gt;right</title>
<path fill="none" stroke="#00ff00" stroke-width=".2323" stroke-dasharray="1,5" d="M336.427,-187.3692C339.7104,-175.1434 343.7529,-160.0909 347.31,-146.846"/>
<polygon fill="#00ff00" stroke="#00ff00" stroke-width=".2323" points="350.7013,-147.7123 349.9149,-137.1467 343.9409,-145.8966 350.7013,-147.7123"/>
</g>
<!-- 1139&#45;&gt;right -->
<g id="edge43" class="edge">
<title>1139&#45;&gt;right</title>
<path fill="none" stroke="#ff0000" stroke-width=".7032" d="M280.4926,-193.0906C295.2763,-177.7011 316.5731,-155.5315 332.7826,-138.6577"/>
<polygon fill="#ff0000" stroke="#ff0000" stroke-width=".7032" points="335.4269,-140.9573 339.8305,-131.321 330.3787,-136.1079 335.4269,-140.9573"/>
</g>
<!-- 212&#45;&gt;none -->
<g id="edge35" class="edge">
<title>212&#45;&gt;none</title>
<path fill="none" stroke="#00ff00" stroke-width=".2288" d="M430.7483,-28.9742C464.3268,-43.8957 532.0499,-76.9075 571.3045,-97.2714"/>
<polygon fill="#00ff00" stroke="#00ff00" stroke-width=".2288" points="569.6815,-100.3723 580.1643,-101.9093 572.928,-94.1706 569.6815,-100.3723"/>
</g>
<!-- 1589&#45;&gt;backward -->
<g id="edge49" class="edge">
<title>1589&#45;&gt;backward</title>
<path fill="none" stroke="#ff0000" stroke-width=".4109" d="M1161.3311,-188.8463C1156.7279,-179.1585 1151.1892,-167.5017 1145.8769,-156.3216"/>
<polygon fill="#ff0000" stroke="#ff0000" stroke-width=".4109" points="1148.9464,-154.6262 1141.4933,-147.096 1142.6238,-157.6304 1148.9464,-154.6262"/>
</g>
<!-- 87&#45;&gt;right -->
<g id="edge33" class="edge">
<title>87&#45;&gt;right</title>
<path fill="none" stroke="#ff0000" stroke-width=".4296" stroke-dasharray="1,5" d="M1221.1343,-197.1621C1216.8276,-192.997 1211.6246,-188.9237 1206,-186.5513 1075.159,-131.3646 709.1068,-166.4831 568,-150.5513 504.2166,-143.3498 430.4851,-129.5555 388.9372,-121.2721"/>
<polygon fill="#ff0000" stroke="#ff0000" stroke-width=".4296" points="389.587,-117.8327 379.0932,-119.2922 388.2067,-124.6953 389.587,-117.8327"/>
</g>
<!-- 87&#45;&gt;backward -->
<g id="edge32" class="edge">
<title>87&#45;&gt;backward</title>
<path fill="none" stroke="#00ff00" stroke-width=".3611" d="M1219.2855,-198.6866C1215.0344,-194.7883 1210.3296,-190.4855 1206,-186.5513 1191.1755,-173.0807 1174.7448,-158.2612 1160.6498,-145.5822"/>
<polygon fill="#00ff00" stroke="#00ff00" stroke-width=".3611" points="1162.8612,-142.8637 1153.0847,-138.7806 1158.1811,-148.0692 1162.8612,-142.8637"/>
</g>
<!-- 536&#45;&gt;none -->
<g id="edge38" class="edge">
<title>536&#45;&gt;none</title>
<path fill="none" stroke="#00ff00" stroke-width=".8458" stroke-dasharray="1,5" d="M647.0098,-192.6339C638.951,-178.9464 627.8425,-160.0792 618.5596,-144.3128"/>
<polygon fill="#00ff00" stroke="#00ff00" stroke-width=".8458" points="621.4316,-142.2922 613.3418,-135.4507 615.3995,-145.8438 621.4316,-142.2922"/>
</g>
</g>
</svg>
