<?xml version="1.0" encoding="UTF-8" standalone="no"?>
<!DOCTYPE svg PUBLIC "-//W3C//DTD SVG 1.1//EN"
 "http://www.w3.org/Graphics/SVG/1.1/DTD/svg11.dtd">
<!-- Generated by graphviz version 2.40.1 (20161225.0304)
 -->
<!-- Title: %3 Pages: 1 -->
<svg width="910pt" height="220pt"
 viewBox="0.00 0.00 910.25 219.62" xmlns="http://www.w3.org/2000/svg" xmlns:xlink="http://www.w3.org/1999/xlink">
<g id="graph0" class="graph" transform="scale(1 1) rotate(0) translate(4 215.6224)">
<title>%3</title>
<polygon fill="#ffffff" stroke="transparent" points="-4,4 -4,-215.6224 906.2487,-215.6224 906.2487,4 -4,4"/>
<!-- x&#45;vel -->
<g id="node1" class="node">
<title>x&#45;vel</title>
<polygon fill="#d3d3d3" stroke="#000000" points="35,-141.8736 0,-141.8736 0,-123.8736 35,-123.8736 35,-141.8736"/>
<text text-anchor="middle" x="17.5" y="-130.6736" font-family="Times,serif" font-size="9.00" fill="#000000">x&#45;vel</text>
</g>
<!-- left -->
<g id="node15" class="node">
<title>left</title>
<ellipse fill="#add8e6" stroke="#000000" cx="223.5" cy="-36.0624" rx="19.6" ry="19.6"/>
<text text-anchor="middle" x="223.5" y="-33.8624" font-family="Times,serif" font-size="9.00" fill="#000000">left</text>
</g>
<!-- x&#45;vel&#45;&gt;left -->
<g id="edge2" class="edge">
<title>x&#45;vel&#45;&gt;left</title>
<path fill="none" stroke="#00ff00" stroke-width=".6068" d="M25.6791,-123.4912C30.6555,-118.3013 37.4055,-112.1142 44.5,-108.1249 94.5211,-79.998 116.3723,-96.1237 168.5,-72.1249 179.0322,-67.276 189.8628,-60.5997 199.0979,-54.3086"/>
<polygon fill="#00ff00" stroke="#00ff00" stroke-width=".6068" points="201.2363,-57.0836 207.4015,-48.4672 197.2087,-51.3583 201.2363,-57.0836"/>
</g>
<!-- y&#45;vel -->
<g id="node2" class="node">
<title>y&#45;vel</title>
<polygon fill="#d3d3d3" stroke="#000000" points="775,-211.6224 740,-211.6224 740,-193.6224 775,-193.6224 775,-211.6224"/>
<text text-anchor="middle" x="757.5" y="-200.4224" font-family="Times,serif" font-size="9.00" fill="#000000">y&#45;vel</text>
</g>
<!-- right -->
<g id="node14" class="node">
<title>right</title>
<ellipse fill="#add8e6" stroke="#000000" cx="523.5" cy="-36.0624" rx="23.1702" ry="23.1702"/>
<text text-anchor="middle" x="523.5" y="-33.8624" font-family="Times,serif" font-size="9.00" fill="#000000">right</text>
</g>
<!-- y&#45;vel&#45;&gt;right -->
<g id="edge17" class="edge">
<title>y&#45;vel&#45;&gt;right</title>
<path fill="none" stroke="#00ff00" stroke-width=".1883" d="M739.9366,-202.1531C689.0625,-200.3885 543.3779,-192.339 514.5,-157.6224 493.8601,-132.8094 501.0077,-94.4159 510.1589,-67.4305"/>
<polygon fill="#00ff00" stroke="#00ff00" stroke-width=".1883" points="513.57,-68.2926 513.7106,-57.6987 506.9943,-65.8927 513.57,-68.2926"/>
</g>
<!-- forward -->
<g id="node16" class="node">
<title>forward</title>
<ellipse fill="#add8e6" stroke="#000000" cx="368.5" cy="-36.0624" rx="31.6406" ry="31.6406"/>
<text text-anchor="middle" x="368.5" y="-33.8624" font-family="Times,serif" font-size="9.00" fill="#000000">forward</text>
</g>
<!-- y&#45;vel&#45;&gt;forward -->
<g id="edge19" class="edge">
<title>y&#45;vel&#45;&gt;forward</title>
<path fill="none" stroke="#ff0000" stroke-width=".1712" d="M739.7707,-202.0256C664.8543,-199.3254 376.8807,-187.0806 350.5,-157.6224 330.282,-135.0457 338.0444,-100.0945 348.96,-73.4538"/>
<polygon fill="#ff0000" stroke="#ff0000" stroke-width=".1712" points="352.2714,-74.6172 353.0782,-64.0531 345.8597,-71.8083 352.2714,-74.6172"/>
</g>
<!-- backward -->
<g id="node17" class="node">
<title>backward</title>
<ellipse fill="#add8e6" stroke="#000000" cx="701.5" cy="-36.0624" rx="36.125" ry="36.125"/>
<text text-anchor="middle" x="701.5" y="-33.8624" font-family="Times,serif" font-size="9.00" fill="#000000">backward</text>
</g>
<!-- y&#45;vel&#45;&gt;backward -->
<g id="edge16" class="edge">
<title>y&#45;vel&#45;&gt;backward</title>
<path fill="none" stroke="#ff0000" stroke-width=".4178" stroke-dasharray="1,5" d="M756.5197,-193.5438C754.4901,-176.4442 749.1051,-138.4538 738.5,-108.1249 734.7683,-97.4527 729.7316,-86.377 724.5776,-76.2036"/>
<polygon fill="#ff0000" stroke="#ff0000" stroke-width=".4178" points="727.5801,-74.3922 719.8453,-67.1517 721.3767,-77.6353 727.5801,-74.3922"/>
</g>
<!-- 1305 -->
<g id="node19" class="node">
<title>1305</title>
<ellipse fill="#ffffff" stroke="#000000" cx="810.5" cy="-132.8736" rx="25" ry="25"/>
<text text-anchor="middle" x="810.5" y="-130.6736" font-family="Times,serif" font-size="9.00" fill="#000000">1305</text>
</g>
<!-- y&#45;vel&#45;&gt;1305 -->
<g id="edge27" class="edge">
<title>y&#45;vel&#45;&gt;1305</title>
<path fill="none" stroke="#ff0000" stroke-width=".1567" stroke-dasharray="1,5" d="M764.4288,-193.5039C770.7057,-185.2434 780.2926,-172.627 789.0988,-161.038"/>
<polygon fill="#ff0000" stroke="#ff0000" stroke-width=".1567" points="792.0511,-162.9376 795.3145,-152.8579 786.4776,-158.7025 792.0511,-162.9376"/>
</g>
<!-- 1468 -->
<g id="node20" class="node">
<title>1468</title>
<ellipse fill="#ffffff" stroke="#000000" cx="877.5" cy="-132.8736" rx="25" ry="25"/>
<text text-anchor="middle" x="877.5" y="-130.6736" font-family="Times,serif" font-size="9.00" fill="#000000">1468</text>
</g>
<!-- y&#45;vel&#45;&gt;1468 -->
<g id="edge29" class="edge">
<title>y&#45;vel&#45;&gt;1468</title>
<path fill="none" stroke="#00ff00" stroke-width=".805" d="M775.3047,-194.4852C793.231,-186.047 821.4538,-172.0844 844.5,-157.6224 846.1833,-156.5661 847.8894,-155.448 849.5936,-154.2939"/>
<polygon fill="#00ff00" stroke="#00ff00" stroke-width=".805" points="851.8523,-156.9829 857.9843,-148.343 847.8027,-151.2731 851.8523,-156.9829"/>
</g>
<!-- x&#45;pos -->
<g id="node3" class="node">
<title>x&#45;pos</title>
<polygon fill="#d3d3d3" stroke="#000000" points="467.5,-141.8736 431.5,-141.8736 431.5,-123.8736 467.5,-123.8736 467.5,-141.8736"/>
<text text-anchor="middle" x="449.5" y="-130.6736" font-family="Times,serif" font-size="9.00" fill="#000000">x&#45;pos</text>
</g>
<!-- x&#45;pos&#45;&gt;forward -->
<g id="edge12" class="edge">
<title>x&#45;pos&#45;&gt;forward</title>
<path fill="none" stroke="#00ff00" stroke-width=".1731" stroke-dasharray="1,5" d="M441.7334,-123.591C431.1536,-110.946 411.6724,-87.6621 395.4614,-68.2868"/>
<polygon fill="#00ff00" stroke="#00ff00" stroke-width=".1731" points="398.0803,-65.9625 388.979,-60.5389 392.7116,-70.4545 398.0803,-65.9625"/>
</g>
<!-- y&#45;pos -->
<g id="node4" class="node">
<title>y&#45;pos</title>
<polygon fill="#d3d3d3" stroke="#000000" points="89.5,-141.8736 53.5,-141.8736 53.5,-123.8736 89.5,-123.8736 89.5,-141.8736"/>
<text text-anchor="middle" x="71.5" y="-130.6736" font-family="Times,serif" font-size="9.00" fill="#000000">y&#45;pos</text>
</g>
<!-- y&#45;pos&#45;&gt;left -->
<g id="edge23" class="edge">
<title>y&#45;pos&#45;&gt;left</title>
<path fill="none" stroke="#00ff00" stroke-width=".3527" stroke-dasharray="1,5" d="M80.4723,-123.5143C85.4934,-118.5793 92.0303,-112.632 98.5,-108.1249 127.2055,-88.1275 138.2744,-89.7407 168.5,-72.1249 178.5176,-66.2865 189.2419,-59.4057 198.536,-53.2281"/>
<polygon fill="#00ff00" stroke="#00ff00" stroke-width=".3527" points="200.5936,-56.0622 206.9388,-47.5776 196.6874,-50.2534 200.5936,-56.0622"/>
</g>
<!-- x&#45;lm1&#45;vec -->
<g id="node5" class="node">
<title>x&#45;lm1&#45;vec</title>
<polygon fill="#d3d3d3" stroke="#000000" points="161,-141.8736 108,-141.8736 108,-123.8736 161,-123.8736 161,-141.8736"/>
<text text-anchor="middle" x="134.5" y="-130.6736" font-family="Times,serif" font-size="9.00" fill="#000000">x&#45;lm1&#45;vec</text>
</g>
<!-- none -->
<g id="node13" class="node">
<title>none</title>
<ellipse fill="#add8e6" stroke="#000000" cx="285.5" cy="-36.0624" rx="24.0833" ry="24.0833"/>
<text text-anchor="middle" x="285.5" y="-33.8624" font-family="Times,serif" font-size="9.00" fill="#000000">none</text>
</g>
<!-- x&#45;lm1&#45;vec&#45;&gt;none -->
<g id="edge13" class="edge">
<title>x&#45;lm1&#45;vec&#45;&gt;none</title>
<path fill="none" stroke="#00ff00" stroke-width=".2921" stroke-dasharray="1,5" d="M146.0874,-123.7655C152.7208,-118.789 161.3272,-112.7218 169.5,-108.1249 204.546,-88.4128 219.7623,-95.4709 252.5,-72.1249 256.4385,-69.3163 260.2591,-65.9706 263.8191,-62.4661"/>
<polygon fill="#00ff00" stroke="#00ff00" stroke-width=".2921" points="266.3888,-64.8427 270.7147,-55.1712 261.3018,-60.0341 266.3888,-64.8427"/>
</g>
<!-- 1153 -->
<g id="node18" class="node">
<title>1153</title>
<ellipse fill="#ffffff" stroke="#000000" cx="134.5" cy="-36.0624" rx="25" ry="25"/>
<text text-anchor="middle" x="134.5" y="-33.8624" font-family="Times,serif" font-size="9.00" fill="#000000">1153</text>
</g>
<!-- x&#45;lm1&#45;vec&#45;&gt;1153 -->
<g id="edge26" class="edge">
<title>x&#45;lm1&#45;vec&#45;&gt;1153</title>
<path fill="none" stroke="#00ff00" stroke-width=".4926" d="M134.5,-123.591C134.5,-111.5316 134.5,-89.7961 134.5,-71.0026"/>
<polygon fill="#00ff00" stroke="#00ff00" stroke-width=".4926" points="138.0001,-70.9446 134.5,-60.9446 131.0001,-70.9446 138.0001,-70.9446"/>
</g>
<!-- y&#45;lm1&#45;vec -->
<g id="node6" class="node">
<title>y&#45;lm1&#45;vec</title>
<polygon fill="#d3d3d3" stroke="#000000" points="232,-141.8736 179,-141.8736 179,-123.8736 232,-123.8736 232,-141.8736"/>
<text text-anchor="middle" x="205.5" y="-130.6736" font-family="Times,serif" font-size="9.00" fill="#000000">y&#45;lm1&#45;vec</text>
</g>
<!-- y&#45;lm1&#45;vec&#45;&gt;none -->
<g id="edge3" class="edge">
<title>y&#45;lm1&#45;vec&#45;&gt;none</title>
<path fill="none" stroke="#ff0000" stroke-width=".1517" stroke-dasharray="1,5" d="M213.1707,-123.591C224.6511,-109.6981 246.7437,-82.963 263.5056,-62.6788"/>
<polygon fill="#ff0000" stroke="#ff0000" stroke-width=".1517" points="266.4165,-64.6507 270.0885,-54.7125 261.0204,-60.1916 266.4165,-64.6507"/>
</g>
<!-- x&#45;lm2&#45;vec -->
<g id="node7" class="node">
<title>x&#45;lm2&#45;vec</title>
<polygon fill="#d3d3d3" stroke="#000000" points="303,-141.8736 250,-141.8736 250,-123.8736 303,-123.8736 303,-141.8736"/>
<text text-anchor="middle" x="276.5" y="-130.6736" font-family="Times,serif" font-size="9.00" fill="#000000">x&#45;lm2&#45;vec</text>
</g>
<!-- x&#45;lm2&#45;vec&#45;&gt;none -->
<g id="edge8" class="edge">
<title>x&#45;lm2&#45;vec&#45;&gt;none</title>
<path fill="none" stroke="#ff0000" stroke-width=".1305" stroke-dasharray="1,5" d="M277.363,-123.591C278.4989,-111.3719 280.5584,-89.2186 282.3211,-70.2574"/>
<polygon fill="#ff0000" stroke="#ff0000" stroke-width=".1305" points="285.8213,-70.4163 283.2621,-60.1352 278.8514,-69.7683 285.8213,-70.4163"/>
</g>
<!-- x&#45;lm2&#45;vec&#45;&gt;right -->
<g id="edge5" class="edge">
<title>x&#45;lm2&#45;vec&#45;&gt;right</title>
<path fill="none" stroke="#00ff00" stroke-width="1.2458" d="M299.7372,-123.7659C344.3214,-106.2912 441.8968,-68.0467 492.1749,-48.3402"/>
<polygon fill="#00ff00" stroke="#00ff00" stroke-width="1.2458" points="493.5371,-51.5657 501.5702,-44.6578 490.9826,-45.0484 493.5371,-51.5657"/>
</g>
<!-- x&#45;lm2&#45;vec&#45;&gt;left -->
<g id="edge1" class="edge">
<title>x&#45;lm2&#45;vec&#45;&gt;left</title>
<path fill="none" stroke="#ff0000" stroke-width="1.5862" d="M271.4181,-123.591C263.779,-109.6371 249.0474,-82.7279 237.9252,-62.412"/>
<polygon fill="#ff0000" stroke="#ff0000" stroke-width="1.5862" points="240.9797,-60.7026 233.1075,-53.6118 234.8396,-64.0641 240.9797,-60.7026"/>
</g>
<!-- x&#45;lm2&#45;vec&#45;&gt;forward -->
<g id="edge4" class="edge">
<title>x&#45;lm2&#45;vec&#45;&gt;forward</title>
<path fill="none" stroke="#00ff00" stroke-width=".1075" d="M285.3213,-123.591C297.684,-110.5818 320.7476,-86.3121 339.4585,-66.6227"/>
<polygon fill="#00ff00" stroke="#00ff00" stroke-width=".1075" points="342.0335,-68.9938 346.3851,-59.3339 336.9593,-64.1718 342.0335,-68.9938"/>
</g>
<!-- y&#45;lm2&#45;vec -->
<g id="node8" class="node">
<title>y&#45;lm2&#45;vec</title>
<polygon fill="#d3d3d3" stroke="#000000" points="413,-141.8736 360,-141.8736 360,-123.8736 413,-123.8736 413,-141.8736"/>
<text text-anchor="middle" x="386.5" y="-130.6736" font-family="Times,serif" font-size="9.00" fill="#000000">y&#45;lm2&#45;vec</text>
</g>
<!-- y&#45;lm2&#45;vec&#45;&gt;none -->
<g id="edge21" class="edge">
<title>y&#45;lm2&#45;vec&#45;&gt;none</title>
<path fill="none" stroke="#ff0000" stroke-width=".5598" stroke-dasharray="1,5" d="M376.8157,-123.591C361.6887,-109.0914 331.9681,-80.6033 310.5356,-60.0597"/>
<polygon fill="#ff0000" stroke="#ff0000" stroke-width=".5598" points="312.6979,-57.2842 303.0568,-52.8911 307.8541,-62.3376 312.6979,-57.2842"/>
</g>
<!-- y&#45;lm2&#45;vec&#45;&gt;right -->
<g id="edge15" class="edge">
<title>y&#45;lm2&#45;vec&#45;&gt;right</title>
<path fill="none" stroke="#ff0000" stroke-width=".482" stroke-dasharray="1,5" d="M399.3886,-123.7659C421.335,-108.2574 466.431,-76.3903 495.7945,-55.6405"/>
<polygon fill="#ff0000" stroke="#ff0000" stroke-width=".482" points="497.846,-58.4766 503.9929,-49.8472 493.8063,-52.7599 497.846,-58.4766"/>
</g>
<!-- y&#45;lm2&#45;vec&#45;&gt;left -->
<g id="edge11" class="edge">
<title>y&#45;lm2&#45;vec&#45;&gt;left</title>
<path fill="none" stroke="#ff0000" stroke-width=".4091" d="M359.8465,-124.9214C331.2871,-115.5063 285.6039,-97.7947 252.5,-72.1249 248.3216,-68.8848 244.375,-64.9273 240.8171,-60.8354"/>
<polygon fill="#ff0000" stroke="#ff0000" stroke-width=".4091" points="243.4827,-58.5649 234.4955,-52.954 238.0222,-62.9447 243.4827,-58.5649"/>
</g>
<!-- y&#45;lm2&#45;vec&#45;&gt;forward -->
<g id="edge14" class="edge">
<title>y&#45;lm2&#45;vec&#45;&gt;forward</title>
<path fill="none" stroke="#00ff00" stroke-width="3.1677" d="M384.7741,-123.591C382.788,-112.9093 379.3905,-94.6359 376.2118,-77.5398"/>
<polygon fill="#00ff00" stroke="#00ff00" stroke-width="3.1677" points="379.647,-76.8679 374.3779,-67.6762 372.7649,-78.1475 379.647,-76.8679"/>
</g>
<!-- y&#45;lm2&#45;vec&#45;&gt;backward -->
<g id="edge25" class="edge">
<title>y&#45;lm2&#45;vec&#45;&gt;backward</title>
<path fill="none" stroke="#ff0000" stroke-width="1.1179" d="M397.5575,-123.7602C404.3844,-118.531 413.5276,-112.2128 422.5,-108.1249 433.2696,-103.2181 580.5947,-66.1827 656.687,-47.2037"/>
<polygon fill="#ff0000" stroke="#ff0000" stroke-width="1.1179" points="657.63,-50.5758 666.4866,-44.7611 655.9369,-43.7837 657.63,-50.5758"/>
</g>
<!-- x&#45;other&#45;vec -->
<g id="node9" class="node">
<title>x&#45;other&#45;vec</title>
<polygon fill="#d3d3d3" stroke="#000000" points="851.5,-211.6224 793.5,-211.6224 793.5,-193.6224 851.5,-193.6224 851.5,-211.6224"/>
<text text-anchor="middle" x="822.5" y="-200.4224" font-family="Times,serif" font-size="9.00" fill="#000000">x&#45;other&#45;vec</text>
</g>
<!-- y&#45;other&#45;vec -->
<g id="node10" class="node">
<title>y&#45;other&#45;vec</title>
<polygon fill="#d3d3d3" stroke="#000000" points="655.5,-141.8736 597.5,-141.8736 597.5,-123.8736 655.5,-123.8736 655.5,-141.8736"/>
<text text-anchor="middle" x="626.5" y="-130.6736" font-family="Times,serif" font-size="9.00" fill="#000000">y&#45;other&#45;vec</text>
</g>
<!-- y&#45;other&#45;vec&#45;&gt;none -->
<g id="edge7" class="edge">
<title>y&#45;other&#45;vec&#45;&gt;none</title>
<path fill="none" stroke="#00ff00" stroke-width=".154" d="M615.2435,-123.6365C608.0353,-118.2247 598.2365,-111.7583 588.5,-108.1249 478.7919,-67.1844 434.2642,-120.2228 327.5,-72.1249 321.1416,-69.2604 315.0134,-65.1225 309.4957,-60.6631"/>
<polygon fill="#00ff00" stroke="#00ff00" stroke-width=".154" points="311.7234,-57.9616 301.8928,-54.0105 307.1138,-63.2296 311.7234,-57.9616"/>
</g>
<!-- y&#45;other&#45;vec&#45;&gt;right -->
<g id="edge22" class="edge">
<title>y&#45;other&#45;vec&#45;&gt;right</title>
<path fill="none" stroke="#00ff00" stroke-width=".2354" d="M616.6239,-123.591C600.9496,-108.8584 569.9106,-79.6844 547.9846,-59.0759"/>
<polygon fill="#00ff00" stroke="#00ff00" stroke-width=".2354" points="550.333,-56.4798 540.6493,-52.1813 545.5388,-61.5804 550.333,-56.4798"/>
</g>
<!-- y&#45;other&#45;vec&#45;&gt;backward -->
<g id="edge10" class="edge">
<title>y&#45;other&#45;vec&#45;&gt;backward</title>
<path fill="none" stroke="#00ff00" stroke-width=".6115" stroke-dasharray="1,5" d="M633.6913,-123.591C642.7209,-111.9354 658.7532,-91.2407 672.9621,-72.8997"/>
<polygon fill="#00ff00" stroke="#00ff00" stroke-width=".6115" points="675.973,-74.7281 679.3304,-64.6793 670.4393,-70.4411 675.973,-74.7281"/>
</g>
<!-- x&#45;other&#45;vel -->
<g id="node11" class="node">
<title>x&#45;other&#45;vel</title>
<polygon fill="#d3d3d3" stroke="#000000" points="729.5,-141.8736 673.5,-141.8736 673.5,-123.8736 729.5,-123.8736 729.5,-141.8736"/>
<text text-anchor="middle" x="701.5" y="-130.6736" font-family="Times,serif" font-size="9.00" fill="#000000">x&#45;other&#45;vel</text>
</g>
<!-- x&#45;other&#45;vel&#45;&gt;right -->
<g id="edge6" class="edge">
<title>x&#45;other&#45;vel&#45;&gt;right</title>
<path fill="none" stroke="#ff0000" stroke-width=".8331" stroke-dasharray="1,5" d="M688.724,-123.79C681.7024,-118.9358 672.7633,-112.9777 664.5,-108.1249 627.4418,-86.3618 583.0642,-64.3061 554.1255,-50.4306"/>
<polygon fill="#ff0000" stroke="#ff0000" stroke-width=".8331" points="555.4692,-47.1939 544.9362,-46.0508 552.4574,-53.5129 555.4692,-47.1939"/>
</g>
<!-- x&#45;other&#45;vel&#45;&gt;backward -->
<g id="edge24" class="edge">
<title>x&#45;other&#45;vel&#45;&gt;backward</title>
<path fill="none" stroke="#ff0000" stroke-width=".2548" stroke-dasharray="1,5" d="M701.5,-123.591C701.5,-113.963 701.5,-98.1674 701.5,-82.6253"/>
<polygon fill="#ff0000" stroke="#ff0000" stroke-width=".2548" points="705.0001,-82.516 701.5,-72.516 698.0001,-82.5161 705.0001,-82.516"/>
</g>
<!-- y&#45;other&#45;vel -->
<g id="node12" class="node">
<title>y&#45;other&#45;vel</title>
<polygon fill="#d3d3d3" stroke="#000000" points="579.5,-141.8736 523.5,-141.8736 523.5,-123.8736 579.5,-123.8736 579.5,-141.8736"/>
<text text-anchor="middle" x="551.5" y="-130.6736" font-family="Times,serif" font-size="9.00" fill="#000000">y&#45;other&#45;vel</text>
</g>
<!-- y&#45;other&#45;vel&#45;&gt;right -->
<g id="edge9" class="edge">
<title>y&#45;other&#45;vel&#45;&gt;right</title>
<path fill="none" stroke="#00ff00" stroke-width=".505" stroke-dasharray="1,5" d="M548.8152,-123.591C545.1552,-110.9364 538.4136,-87.6267 532.8072,-68.2426"/>
<polygon fill="#00ff00" stroke="#00ff00" stroke-width=".505" points="536.1419,-67.1748 530.0013,-58.541 529.4175,-69.1197 536.1419,-67.1748"/>
</g>
<!-- y&#45;other&#45;vel&#45;&gt;left -->
<g id="edge18" class="edge">
<title>y&#45;other&#45;vel&#45;&gt;left</title>
<path fill="none" stroke="#00ff00" stroke-width=".2532" d="M527.4646,-123.8564C512.8879,-118.6614 493.818,-112.3453 476.5,-108.1249 378.5341,-84.2504 339.6805,-122.7891 252.5,-72.1249 247.8438,-69.419 243.6377,-65.6577 239.9653,-61.5791"/>
<polygon fill="#00ff00" stroke="#00ff00" stroke-width=".2532" points="242.5415,-59.1951 233.5827,-53.5392 237.0591,-63.5475 242.5415,-59.1951"/>
</g>
<!-- y&#45;other&#45;vel&#45;&gt;backward -->
<g id="edge20" class="edge">
<title>y&#45;other&#45;vel&#45;&gt;backward</title>
<path fill="none" stroke="#00ff00" stroke-width=".1082" d="M564.8116,-123.8679C571.8333,-119.1433 580.6064,-113.2809 588.5,-108.1249 612.8123,-92.2443 640.2764,-74.7205 662.0407,-60.9301"/>
<polygon fill="#00ff00" stroke="#00ff00" stroke-width=".1082" points="664.1108,-63.7621 670.6889,-55.4567 660.3673,-57.8471 664.1108,-63.7621"/>
</g>
<!-- 1305&#45;&gt;backward -->
<g id="edge28" class="edge">
<title>1305&#45;&gt;backward</title>
<path fill="none" stroke="#ff0000" stroke-width=".3113" stroke-dasharray="1,5" d="M791.5136,-116.0104C776.3565,-102.5482 754.7083,-83.3208 736.4404,-67.0957"/>
<polygon fill="#ff0000" stroke="#ff0000" stroke-width=".3113" points="738.648,-64.3753 728.847,-60.3514 733.9996,-69.609 738.648,-64.3753"/>
</g>
<!-- 1468&#45;&gt;backward -->
<g id="edge30" class="edge">
<title>1468&#45;&gt;backward</title>
<path fill="none" stroke="#ff0000" stroke-width=".137" d="M858.0068,-117.3683C853.6609,-114.1642 849.0036,-110.918 844.5,-108.1249 812.0238,-87.9835 773.1941,-68.695 744.1976,-55.1507"/>
<polygon fill="#ff0000" stroke="#ff0000" stroke-width=".137" points="745.3097,-51.8087 734.7644,-50.7846 742.3694,-58.1613 745.3097,-51.8087"/>
</g>
</g>
</svg>
