<?xml version="1.0" encoding="UTF-8" standalone="no"?>
<!DOCTYPE svg PUBLIC "-//W3C//DTD SVG 1.1//EN"
 "http://www.w3.org/Graphics/SVG/1.1/DTD/svg11.dtd">
<!-- Generated by graphviz version 2.40.1 (20161225.0304)
 -->
<!-- Title: %3 Pages: 1 -->
<svg width="932pt" height="319pt"
 viewBox="0.00 0.00 931.62 319.26" xmlns="http://www.w3.org/2000/svg" xmlns:xlink="http://www.w3.org/1999/xlink">
<g id="graph0" class="graph" transform="scale(1 1) rotate(0) translate(4 315.262)">
<title>%3</title>
<polygon fill="#ffffff" stroke="transparent" points="-4,4 -4,-315.262 927.6161,-315.262 927.6161,4 -4,4"/>
<!-- x&#45;vel -->
<g id="node1" class="node">
<title>x&#45;vel</title>
<polygon fill="#d3d3d3" stroke="#000000" points="442.1294,-241.5132 407.1294,-241.5132 407.1294,-223.5132 442.1294,-223.5132 442.1294,-241.5132"/>
<text text-anchor="middle" x="424.6294" y="-230.3132" font-family="Times,serif" font-size="9.00" fill="#000000">x&#45;vel</text>
</g>
<!-- left -->
<g id="node15" class="node">
<title>left</title>
<ellipse fill="#add8e6" stroke="#000000" cx="100.6294" cy="-139.9447" rx="19.6" ry="19.6"/>
<text text-anchor="middle" x="100.6294" y="-137.7447" font-family="Times,serif" font-size="9.00" fill="#000000">left</text>
</g>
<!-- x&#45;vel&#45;&gt;left -->
<g id="edge2" class="edge">
<title>x&#45;vel&#45;&gt;left</title>
<path fill="none" stroke="#00ff00" stroke-width=".7046" d="M417.0273,-223.3982C412.0548,-218.0323 405.1101,-211.5714 397.6294,-207.7645 325.6954,-171.1576 298.2091,-190.1981 219.6294,-171.7645 188.7974,-164.5318 153.8162,-155.0193 129.803,-148.2848"/>
<polygon fill="#00ff00" stroke="#00ff00" stroke-width=".7046" points="130.4867,-144.8411 119.912,-145.4939 128.5857,-151.578 130.4867,-144.8411"/>
</g>
<!-- 1305 -->
<g id="node20" class="node">
<title>1305</title>
<ellipse fill="#ffffff" stroke="#000000" cx="881.6294" cy="-139.9447" rx="25" ry="25"/>
<text text-anchor="middle" x="881.6294" y="-137.7447" font-family="Times,serif" font-size="9.00" fill="#000000">1305</text>
</g>
<!-- x&#45;vel&#45;&gt;1305 -->
<g id="edge34" class="edge">
<title>x&#45;vel&#45;&gt;1305</title>
<path fill="none" stroke="#ff0000" stroke-width=".1667" d="M431.7465,-223.1086C436.4583,-217.6337 443.1368,-211.1599 450.6294,-207.7645 612.405,-134.4546 687.091,-245.5954 848.6294,-171.7645 852.0134,-170.2179 855.262,-168.1749 858.3117,-165.8686"/>
<polygon fill="#ff0000" stroke="#ff0000" stroke-width=".1667" points="860.6149,-168.5041 865.8767,-159.3082 856.0287,-163.2157 860.6149,-168.5041"/>
</g>
<!-- y&#45;vel -->
<g id="node2" class="node">
<title>y&#45;vel</title>
<polygon fill="#d3d3d3" stroke="#000000" points="836.1294,-241.5132 801.1294,-241.5132 801.1294,-223.5132 836.1294,-223.5132 836.1294,-241.5132"/>
<text text-anchor="middle" x="818.6294" y="-230.3132" font-family="Times,serif" font-size="9.00" fill="#000000">y&#45;vel</text>
</g>
<!-- right -->
<g id="node14" class="node">
<title>right</title>
<ellipse fill="#add8e6" stroke="#000000" cx="251.6294" cy="-139.9447" rx="23.1702" ry="23.1702"/>
<text text-anchor="middle" x="251.6294" y="-137.7447" font-family="Times,serif" font-size="9.00" fill="#000000">right</text>
</g>
<!-- y&#45;vel&#45;&gt;right -->
<g id="edge17" class="edge">
<title>y&#45;vel&#45;&gt;right</title>
<path fill="none" stroke="#ff0000" stroke-width=".2075" d="M811.1333,-223.1789C806.2006,-217.7305 799.2606,-211.2598 791.6294,-207.7645 667.1299,-150.7394 621.4795,-188.9909 485.6294,-171.7645 414.0859,-162.6925 330.384,-151.0648 285.0083,-144.6765"/>
<polygon fill="#ff0000" stroke="#ff0000" stroke-width=".2075" points="285.251,-141.1762 274.8602,-143.2451 284.2733,-148.1075 285.251,-141.1762"/>
</g>
<!-- forward -->
<g id="node16" class="node">
<title>forward</title>
<ellipse fill="#add8e6" stroke="#000000" cx="701.6294" cy="-139.9447" rx="31.6406" ry="31.6406"/>
<text text-anchor="middle" x="701.6294" y="-137.7447" font-family="Times,serif" font-size="9.00" fill="#000000">forward</text>
</g>
<!-- y&#45;vel&#45;&gt;forward -->
<g id="edge19" class="edge">
<title>y&#45;vel&#45;&gt;forward</title>
<path fill="none" stroke="#00ff00" stroke-width=".2206" stroke-dasharray="1,5" d="M808.8323,-223.1118C803.795,-218.3871 797.4957,-212.6442 791.6294,-207.7645 773.8257,-192.9549 753.245,-177.3414 736.2614,-164.8334"/>
<polygon fill="#00ff00" stroke="#00ff00" stroke-width=".2206" points="737.8782,-161.6794 727.7418,-158.5964 733.7432,-167.3276 737.8782,-161.6794"/>
</g>
<!-- backward -->
<g id="node17" class="node">
<title>backward</title>
<ellipse fill="#add8e6" stroke="#000000" cx="323.6294" cy="-36.0624" rx="36.125" ry="36.125"/>
<text text-anchor="middle" x="323.6294" y="-33.8624" font-family="Times,serif" font-size="9.00" fill="#000000">backward</text>
</g>
<!-- y&#45;vel&#45;&gt;backward -->
<g id="edge16" class="edge">
<title>y&#45;vel&#45;&gt;backward</title>
<path fill="none" stroke="#00ff00" stroke-width=".2728" stroke-dasharray="1,5" d="M812.9054,-223.4924C805.4163,-211.6606 791.9182,-190.2334 780.6294,-171.7645 763.4489,-143.6564 769.7921,-126.7642 742.6294,-108.1249 682.5144,-66.8733 465.6647,-46.3751 369.779,-39.1654"/>
<polygon fill="#00ff00" stroke="#00ff00" stroke-width=".2728" points="370.0229,-35.674 359.7928,-38.4299 369.5086,-42.6551 370.0229,-35.674"/>
</g>
<!-- 1654 -->
<g id="node18" class="node">
<title>1654</title>
<ellipse fill="#ffffff" stroke="#000000" cx="814.6294" cy="-139.9447" rx="25" ry="25"/>
<text text-anchor="middle" x="814.6294" y="-137.7447" font-family="Times,serif" font-size="9.00" fill="#000000">1654</text>
</g>
<!-- y&#45;vel&#45;&gt;1654 -->
<g id="edge29" class="edge">
<title>y&#45;vel&#45;&gt;1654</title>
<path fill="none" stroke="#ff0000" stroke-width=".2122" d="M818.2313,-223.299C817.7469,-212.0892 816.9007,-192.5073 816.1502,-175.1392"/>
<polygon fill="#ff0000" stroke="#ff0000" stroke-width=".2122" points="819.6279,-174.5453 815.6994,-164.7057 812.6345,-174.8476 819.6279,-174.5453"/>
</g>
<!-- y&#45;vel&#45;&gt;1305 -->
<g id="edge26" class="edge">
<title>y&#45;vel&#45;&gt;1305</title>
<path fill="none" stroke="#00ff00" stroke-width=".6271" d="M824.9004,-223.299C833.4445,-210.7448 849.1352,-187.6899 861.8524,-169.0039"/>
<polygon fill="#00ff00" stroke="#00ff00" stroke-width=".6271" points="864.8977,-170.7501 867.6306,-160.5138 859.1107,-166.8116 864.8977,-170.7501"/>
</g>
<!-- x&#45;pos -->
<g id="node3" class="node">
<title>x&#45;pos</title>
<polygon fill="#d3d3d3" stroke="#000000" points="782.6294,-241.5132 746.6294,-241.5132 746.6294,-223.5132 782.6294,-223.5132 782.6294,-241.5132"/>
<text text-anchor="middle" x="764.6294" y="-230.3132" font-family="Times,serif" font-size="9.00" fill="#000000">x&#45;pos</text>
</g>
<!-- x&#45;pos&#45;&gt;forward -->
<g id="edge12" class="edge">
<title>x&#45;pos&#45;&gt;forward</title>
<path fill="none" stroke="#ff0000" stroke-width=".3268" stroke-dasharray="1,5" d="M758.3584,-223.299C750.6554,-211.9806 737.1436,-192.1271 725.2388,-174.635"/>
<polygon fill="#ff0000" stroke="#ff0000" stroke-width=".3268" points="728.0762,-172.5832 719.5563,-166.2854 722.2892,-176.5217 728.0762,-172.5832"/>
</g>
<!-- y&#45;pos -->
<g id="node4" class="node">
<title>y&#45;pos</title>
<polygon fill="#d3d3d3" stroke="#000000" points="54.6294,-241.5132 18.6294,-241.5132 18.6294,-223.5132 54.6294,-223.5132 54.6294,-241.5132"/>
<text text-anchor="middle" x="36.6294" y="-230.3132" font-family="Times,serif" font-size="9.00" fill="#000000">y&#45;pos</text>
</g>
<!-- y&#45;pos&#45;&gt;left -->
<g id="edge23" class="edge">
<title>y&#45;pos&#45;&gt;left</title>
<path fill="none" stroke="#00ff00" stroke-width=".1063" stroke-dasharray="1,5" d="M43,-223.299C52.377,-209.7363 70.2274,-183.9178 83.5883,-164.5927"/>
<polygon fill="#00ff00" stroke="#00ff00" stroke-width=".1063" points="86.5566,-166.4538 89.3647,-156.2378 80.7988,-162.4729 86.5566,-166.4538"/>
</g>
<!-- x&#45;lm1&#45;vec -->
<g id="node5" class="node">
<title>x&#45;lm1&#45;vec</title>
<polygon fill="#d3d3d3" stroke="#000000" points="690.1294,-241.5132 637.1294,-241.5132 637.1294,-223.5132 690.1294,-223.5132 690.1294,-241.5132"/>
<text text-anchor="middle" x="663.6294" y="-230.3132" font-family="Times,serif" font-size="9.00" fill="#000000">x&#45;lm1&#45;vec</text>
</g>
<!-- none -->
<g id="node13" class="node">
<title>none</title>
<ellipse fill="#add8e6" stroke="#000000" cx="518.6294" cy="-139.9447" rx="24.0833" ry="24.0833"/>
<text text-anchor="middle" x="518.6294" y="-137.7447" font-family="Times,serif" font-size="9.00" fill="#000000">none</text>
</g>
<!-- x&#45;lm1&#45;vec&#45;&gt;none -->
<g id="edge13" class="edge">
<title>x&#45;lm1&#45;vec&#45;&gt;none</title>
<path fill="none" stroke="#ff0000" stroke-width=".4703" d="M649.4622,-223.4688C625.9833,-208.4798 578.5438,-178.1943 547.7042,-158.5061"/>
<polygon fill="#ff0000" stroke="#ff0000" stroke-width=".4703" points="549.4079,-155.4414 539.0957,-153.0104 545.6411,-161.3415 549.4079,-155.4414"/>
</g>
<!-- y&#45;lm1&#45;vec -->
<g id="node6" class="node">
<title>y&#45;lm1&#45;vec</title>
<polygon fill="#d3d3d3" stroke="#000000" points="580.1294,-241.5132 527.1294,-241.5132 527.1294,-223.5132 580.1294,-223.5132 580.1294,-241.5132"/>
<text text-anchor="middle" x="553.6294" y="-230.3132" font-family="Times,serif" font-size="9.00" fill="#000000">y&#45;lm1&#45;vec</text>
</g>
<!-- y&#45;lm1&#45;vec&#45;&gt;none -->
<g id="edge3" class="edge">
<title>y&#45;lm1&#45;vec&#45;&gt;none</title>
<path fill="none" stroke="#00ff00" stroke-width=".3347" stroke-dasharray="1,5" d="M550.1455,-223.299C545.6813,-211.4919 537.7052,-190.3966 530.8943,-172.383"/>
<polygon fill="#00ff00" stroke="#00ff00" stroke-width=".3347" points="534.0706,-170.887 527.2601,-162.7711 527.523,-173.3627 534.0706,-170.887"/>
</g>
<!-- x&#45;lm2&#45;vec -->
<g id="node7" class="node">
<title>x&#45;lm2&#45;vec</title>
<polygon fill="#d3d3d3" stroke="#000000" points="635.1294,-311.262 582.1294,-311.262 582.1294,-293.262 635.1294,-293.262 635.1294,-311.262"/>
<text text-anchor="middle" x="608.6294" y="-300.062" font-family="Times,serif" font-size="9.00" fill="#000000">x&#45;lm2&#45;vec</text>
</g>
<!-- x&#45;lm2&#45;vec&#45;&gt;none -->
<g id="edge8" class="edge">
<title>x&#45;lm2&#45;vec&#45;&gt;none</title>
<path fill="none" stroke="#00ff00" stroke-width=".3079" stroke-dasharray="1,5" d="M608.5743,-293.0499C608.0964,-275.3989 605.2085,-236.0555 589.6294,-207.7645 579.2227,-188.8663 561.7523,-172.0778 546.7461,-159.932"/>
<polygon fill="#00ff00" stroke="#00ff00" stroke-width=".3079" points="548.762,-157.0657 538.7233,-153.6781 544.4584,-162.5865 548.762,-157.0657"/>
</g>
<!-- x&#45;lm2&#45;vec&#45;&gt;right -->
<g id="edge5" class="edge">
<title>x&#45;lm2&#45;vec&#45;&gt;right</title>
<path fill="none" stroke="#00ff00" stroke-width="1.7809" d="M581.8499,-300.9129C502.3086,-296.6348 271.6056,-282.1648 249.6294,-257.262 229.4009,-234.3396 233.5774,-197.9737 240.4965,-171.8046"/>
<polygon fill="#00ff00" stroke="#00ff00" stroke-width="1.7809" points="243.9225,-172.5567 243.3462,-161.9776 237.1995,-170.6071 243.9225,-172.5567"/>
</g>
<!-- x&#45;lm2&#45;vec&#45;&gt;left -->
<g id="edge1" class="edge">
<title>x&#45;lm2&#45;vec&#45;&gt;left</title>
<path fill="none" stroke="#ff0000" stroke-width="1.9622" d="M581.9392,-301.2591C468.2646,-296.8614 29.3778,-278.5495 9.6294,-257.262 -5.3321,-241.1343 -.2386,-227.426 9.6294,-207.7645 22.7949,-181.5332 51.4487,-162.8665 73.1094,-151.8424"/>
<polygon fill="#ff0000" stroke="#ff0000" stroke-width="1.9622" points="74.7137,-154.9544 82.1933,-147.4505 71.6668,-148.6522 74.7137,-154.9544"/>
</g>
<!-- x&#45;lm2&#45;vec&#45;&gt;forward -->
<g id="edge4" class="edge">
<title>x&#45;lm2&#45;vec&#45;&gt;forward</title>
<path fill="none" stroke="#ff0000" stroke-width=".2613" d="M633.7887,-293.2231C658.0051,-283.9581 692.0414,-269.2502 699.6294,-257.262 713.8334,-234.8214 714.0885,-204.8099 710.9185,-180.7592"/>
<polygon fill="#ff0000" stroke="#ff0000" stroke-width=".2613" points="714.3739,-180.2008 709.381,-170.8562 707.4567,-181.2748 714.3739,-180.2008"/>
</g>
<!-- 1752 -->
<g id="node19" class="node">
<title>1752</title>
<ellipse fill="#ffffff" stroke="#000000" cx="484.6294" cy="-232.5132" rx="25" ry="25"/>
<text text-anchor="middle" x="484.6294" y="-230.3132" font-family="Times,serif" font-size="9.00" fill="#000000">1752</text>
</g>
<!-- x&#45;lm2&#45;vec&#45;&gt;1752 -->
<g id="edge32" class="edge">
<title>x&#45;lm2&#45;vec&#45;&gt;1752</title>
<path fill="none" stroke="#00ff00" stroke-width=".2531" d="M588.0987,-293.1811C569.5148,-284.6865 541.6147,-271.2417 518.6294,-257.262 516.7035,-256.0906 514.7476,-254.8418 512.7969,-253.5513"/>
<polygon fill="#00ff00" stroke="#00ff00" stroke-width=".2531" points="514.6035,-250.5453 504.3876,-247.737 510.6225,-256.303 514.6035,-250.5453"/>
</g>
<!-- x&#45;lm2&#45;vec&#45;&gt;1305 -->
<g id="edge28" class="edge">
<title>x&#45;lm2&#45;vec&#45;&gt;1305</title>
<path fill="none" stroke="#00ff00" stroke-width=".1419" stroke-dasharray="1,5" d="M635.2923,-295.2447C638.4285,-294.5237 641.5923,-293.8437 644.6294,-293.262 703.647,-281.9574 873.0685,-302.4924 912.6294,-257.262 934.2169,-232.5808 918.0943,-194.5438 902.137,-168.5155"/>
<polygon fill="#00ff00" stroke="#00ff00" stroke-width=".1419" points="904.9164,-166.3668 896.5617,-159.8514 899.0298,-170.1547 904.9164,-166.3668"/>
</g>
<!-- 1694 -->
<g id="node21" class="node">
<title>1694</title>
<ellipse fill="#ffffff" stroke="#000000" cx="878.6294" cy="-232.5132" rx="25" ry="25"/>
<text text-anchor="middle" x="878.6294" y="-230.3132" font-family="Times,serif" font-size="9.00" fill="#000000">1694</text>
</g>
<!-- x&#45;lm2&#45;vec&#45;&gt;1694 -->
<g id="edge30" class="edge">
<title>x&#45;lm2&#45;vec&#45;&gt;1694</title>
<path fill="none" stroke="#00ff00" stroke-width=".3571" d="M635.3189,-295.3758C638.4503,-294.6313 641.6058,-293.9099 644.6294,-293.262 733.3696,-274.2454 762.409,-293.4669 845.6294,-257.262 847.4517,-256.4692 849.2667,-255.5575 851.0545,-254.5619"/>
<polygon fill="#00ff00" stroke="#00ff00" stroke-width=".3571" points="853.1372,-257.3846 859.6758,-249.0481 849.3656,-251.4875 853.1372,-257.3846"/>
</g>
<!-- y&#45;lm2&#45;vec -->
<g id="node8" class="node">
<title>y&#45;lm2&#45;vec</title>
<polygon fill="#d3d3d3" stroke="#000000" points="312.1294,-241.5132 259.1294,-241.5132 259.1294,-223.5132 312.1294,-223.5132 312.1294,-241.5132"/>
<text text-anchor="middle" x="285.6294" y="-230.3132" font-family="Times,serif" font-size="9.00" fill="#000000">y&#45;lm2&#45;vec</text>
</g>
<!-- y&#45;lm2&#45;vec&#45;&gt;none -->
<g id="edge21" class="edge">
<title>y&#45;lm2&#45;vec&#45;&gt;none</title>
<path fill="none" stroke="#ff0000" stroke-width=".1374" d="M297.1277,-223.4163C303.9605,-218.3216 312.9605,-212.1344 321.6294,-207.7645 376.4503,-180.1302 445.1724,-159.3278 485.266,-148.4452"/>
<polygon fill="#ff0000" stroke="#ff0000" stroke-width=".1374" points="486.2989,-151.7921 495.0575,-145.8308 484.4931,-145.029 486.2989,-151.7921"/>
</g>
<!-- y&#45;lm2&#45;vec&#45;&gt;right -->
<g id="edge15" class="edge">
<title>y&#45;lm2&#45;vec&#45;&gt;right</title>
<path fill="none" stroke="#00ff00" stroke-width=".3196" stroke-dasharray="1,5" d="M282.2451,-223.299C277.8314,-211.2822 269.8838,-189.6442 263.1924,-171.4261"/>
<polygon fill="#00ff00" stroke="#00ff00" stroke-width=".3196" points="266.4673,-170.1907 259.7341,-162.0106 259.8965,-172.6042 266.4673,-170.1907"/>
</g>
<!-- y&#45;lm2&#45;vec&#45;&gt;left -->
<g id="edge11" class="edge">
<title>y&#45;lm2&#45;vec&#45;&gt;left</title>
<path fill="none" stroke="#ff0000" stroke-width=".5805" stroke-dasharray="1,5" d="M267.554,-223.4688C234.8656,-207.1125 165.7752,-172.5417 127.5251,-153.4025"/>
<polygon fill="#ff0000" stroke="#ff0000" stroke-width=".5805" points="129.015,-150.2343 118.5059,-148.8895 125.8826,-156.4944 129.015,-150.2343"/>
</g>
<!-- y&#45;lm2&#45;vec&#45;&gt;forward -->
<g id="edge14" class="edge">
<title>y&#45;lm2&#45;vec&#45;&gt;forward</title>
<path fill="none" stroke="#00ff00" stroke-width="2.8997" d="M296.2388,-223.3244C303.0469,-217.9307 312.3276,-211.4665 321.6294,-207.7645 417.7628,-169.5055 449.8743,-190.5067 551.6294,-171.7645 588.5152,-164.9706 630.2332,-156.017 660.2927,-149.3387"/>
<polygon fill="#00ff00" stroke="#00ff00" stroke-width="2.8997" points="661.4152,-152.6743 670.4118,-147.0787 659.8894,-145.8426 661.4152,-152.6743"/>
</g>
<!-- y&#45;lm2&#45;vec&#45;&gt;backward -->
<g id="edge25" class="edge">
<title>y&#45;lm2&#45;vec&#45;&gt;backward</title>
<path fill="none" stroke="#ff0000" stroke-width=".7495" d="M287.4113,-223.3015C292.2232,-198.425 305.7293,-128.6017 314.8182,-81.6142"/>
<polygon fill="#ff0000" stroke="#ff0000" stroke-width=".7495" points="318.2795,-82.1494 316.7424,-71.6667 311.4069,-80.82 318.2795,-82.1494"/>
</g>
<!-- x&#45;other&#45;vec -->
<g id="node9" class="node">
<title>x&#45;other&#45;vec</title>
<polygon fill="#d3d3d3" stroke="#000000" points="711.6294,-311.262 653.6294,-311.262 653.6294,-293.262 711.6294,-293.262 711.6294,-311.262"/>
<text text-anchor="middle" x="682.6294" y="-300.062" font-family="Times,serif" font-size="9.00" fill="#000000">x&#45;other&#45;vec</text>
</g>
<!-- y&#45;other&#45;vec -->
<g id="node10" class="node">
<title>y&#45;other&#45;vec</title>
<polygon fill="#d3d3d3" stroke="#000000" points="388.6294,-241.5132 330.6294,-241.5132 330.6294,-223.5132 388.6294,-223.5132 388.6294,-241.5132"/>
<text text-anchor="middle" x="359.6294" y="-230.3132" font-family="Times,serif" font-size="9.00" fill="#000000">y&#45;other&#45;vec</text>
</g>
<!-- y&#45;other&#45;vec&#45;&gt;none -->
<g id="edge7" class="edge">
<title>y&#45;other&#45;vec&#45;&gt;none</title>
<path fill="none" stroke="#ff0000" stroke-width=".3745" d="M373.602,-223.4034C380.9872,-218.6504 390.2379,-212.7939 398.6294,-207.7645 428.8428,-189.6563 463.9844,-169.9504 488.3982,-156.4707"/>
<polygon fill="#ff0000" stroke="#ff0000" stroke-width=".3745" points="490.1256,-159.5151 497.1972,-151.6256 486.7492,-153.3833 490.1256,-159.5151"/>
</g>
<!-- y&#45;other&#45;vec&#45;&gt;right -->
<g id="edge22" class="edge">
<title>y&#45;other&#45;vec&#45;&gt;right</title>
<path fill="none" stroke="#00ff00" stroke-width=".3046" stroke-dasharray="1,5" d="M348.8791,-223.299C332.2702,-209.0632 299.9078,-181.3249 277.0881,-161.7657"/>
<polygon fill="#00ff00" stroke="#00ff00" stroke-width=".3046" points="279.3263,-159.0744 269.4559,-155.224 274.7708,-164.3893 279.3263,-159.0744"/>
</g>
<!-- y&#45;other&#45;vec&#45;&gt;backward -->
<g id="edge10" class="edge">
<title>y&#45;other&#45;vec&#45;&gt;backward</title>
<path fill="none" stroke="#ff0000" stroke-width=".2126" stroke-dasharray="1,5" d="M357.9414,-223.3015C353.3827,-198.425 340.5874,-128.6017 331.9769,-81.6142"/>
<polygon fill="#ff0000" stroke="#ff0000" stroke-width=".2126" points="335.3992,-80.872 330.154,-71.6667 328.5139,-82.1338 335.3992,-80.872"/>
</g>
<!-- x&#45;other&#45;vel -->
<g id="node11" class="node">
<title>x&#45;other&#45;vel</title>
<polygon fill="#d3d3d3" stroke="#000000" points="202.6294,-241.5132 146.6294,-241.5132 146.6294,-223.5132 202.6294,-223.5132 202.6294,-241.5132"/>
<text text-anchor="middle" x="174.6294" y="-230.3132" font-family="Times,serif" font-size="9.00" fill="#000000">x&#45;other&#45;vel</text>
</g>
<!-- x&#45;other&#45;vel&#45;&gt;right -->
<g id="edge6" class="edge">
<title>x&#45;other&#45;vel&#45;&gt;right</title>
<path fill="none" stroke="#ff0000" stroke-width=".1199" stroke-dasharray="1,5" d="M182.294,-223.299C193.3445,-210.0142 214.1759,-184.9709 230.1319,-165.7888"/>
<polygon fill="#ff0000" stroke="#ff0000" stroke-width=".1199" points="232.9247,-167.9044 236.6289,-157.9782 227.5431,-163.4279 232.9247,-167.9044"/>
</g>
<!-- x&#45;other&#45;vel&#45;&gt;backward -->
<g id="edge24" class="edge">
<title>x&#45;other&#45;vel&#45;&gt;backward</title>
<path fill="none" stroke="#00ff00" stroke-width=".3739" stroke-dasharray="1,5" d="M175.9609,-223.4766C179.5597,-201.6369 191.1948,-145.0679 219.6294,-108.1249 236.1594,-86.6487 260.9118,-69.1355 282.1219,-56.7535"/>
<polygon fill="#00ff00" stroke="#00ff00" stroke-width=".3739" points="283.9727,-59.728 290.9608,-51.7645 280.5318,-53.632 283.9727,-59.728"/>
</g>
<!-- y&#45;other&#45;vel -->
<g id="node12" class="node">
<title>y&#45;other&#45;vel</title>
<polygon fill="#d3d3d3" stroke="#000000" points="128.6294,-241.5132 72.6294,-241.5132 72.6294,-223.5132 128.6294,-223.5132 128.6294,-241.5132"/>
<text text-anchor="middle" x="100.6294" y="-230.3132" font-family="Times,serif" font-size="9.00" fill="#000000">y&#45;other&#45;vel</text>
</g>
<!-- y&#45;other&#45;vel&#45;&gt;right -->
<g id="edge9" class="edge">
<title>y&#45;other&#45;vel&#45;&gt;right</title>
<path fill="none" stroke="#00ff00" stroke-width=".1723" stroke-dasharray="1,5" d="M113.8761,-223.4063C120.88,-218.6541 129.6568,-212.7975 137.6294,-207.7645 166.1673,-189.7491 199.3898,-170.1351 222.5816,-156.6563"/>
<polygon fill="#00ff00" stroke="#00ff00" stroke-width=".1723" points="224.3556,-159.6736 231.2527,-151.6311 220.8457,-153.6172 224.3556,-159.6736"/>
</g>
<!-- y&#45;other&#45;vel&#45;&gt;left -->
<g id="edge18" class="edge">
<title>y&#45;other&#45;vel&#45;&gt;left</title>
<path fill="none" stroke="#ff0000" stroke-width=".2689" d="M100.6294,-223.299C100.6294,-210.932 100.6294,-188.3752 100.6294,-169.8428"/>
<polygon fill="#ff0000" stroke="#ff0000" stroke-width=".2689" points="104.1295,-169.7781 100.6294,-159.7781 97.1295,-169.7782 104.1295,-169.7781"/>
</g>
<!-- y&#45;other&#45;vel&#45;&gt;backward -->
<g id="edge20" class="edge">
<title>y&#45;other&#45;vel&#45;&gt;backward</title>
<path fill="none" stroke="#ff0000" stroke-width=".3543" stroke-dasharray="1,5" d="M104.9462,-223.2603C115.7445,-200.9405 145.9325,-143.386 185.6294,-108.1249 213.4068,-83.4514 251.1422,-64.4979 280.1327,-52.2355"/>
<polygon fill="#ff0000" stroke="#ff0000" stroke-width=".3543" points="281.6888,-55.3799 289.602,-48.3349 279.0226,-48.9075 281.6888,-55.3799"/>
</g>
<!-- 1752&#45;&gt;none -->
<g id="edge33" class="edge">
<title>1752&#45;&gt;none</title>
<path fill="none" stroke="#ff0000" stroke-width=".1262" d="M493.2091,-209.1543C497.3381,-197.9126 502.3538,-184.2569 506.8352,-172.0556"/>
<polygon fill="#ff0000" stroke="#ff0000" stroke-width=".1262" points="510.1252,-173.2498 510.2876,-162.6562 503.5544,-170.8363 510.1252,-173.2498"/>
</g>
<!-- 1305&#45;&gt;backward -->
<g id="edge27" class="edge">
<title>1305&#45;&gt;backward</title>
<path fill="none" stroke="#00ff00" stroke-width=".2897" stroke-dasharray="1,5" d="M865.7876,-120.7703C860.7988,-115.8981 854.9304,-111.1826 848.6294,-108.1249 764.4375,-67.2684 482.5123,-45.839 370.2906,-38.7616"/>
<polygon fill="#00ff00" stroke="#00ff00" stroke-width=".2897" points="370.1701,-35.2475 359.9725,-38.1213 369.7365,-42.234 370.1701,-35.2475"/>
</g>
<!-- 1694&#45;&gt;1305 -->
<g id="edge31" class="edge">
<title>1694&#45;&gt;1305</title>
<path fill="none" stroke="#00ff00" stroke-width=".3338" d="M879.4334,-207.7066C879.7596,-197.6417 880.1422,-185.8357 880.4958,-174.9229"/>
<polygon fill="#00ff00" stroke="#00ff00" stroke-width=".3338" points="883.9974,-174.928 880.8233,-164.8198 877.0011,-174.7012 883.9974,-174.928"/>
</g>
</g>
</svg>
