<?xml version="1.0" encoding="utf-8" standalone="no"?>
<!DOCTYPE svg PUBLIC "-//W3C//DTD SVG 1.1//EN"
  "http://www.w3.org/Graphics/SVG/1.1/DTD/svg11.dtd">
<!-- Created with matplotlib (https://matplotlib.org/) -->
<svg height="345.6pt" version="1.1" viewBox="0 0 460.8 345.6" width="460.8pt" xmlns="http://www.w3.org/2000/svg" xmlns:xlink="http://www.w3.org/1999/xlink">
 <metadata>
  <rdf:RDF xmlns:cc="http://creativecommons.org/ns#" xmlns:dc="http://purl.org/dc/elements/1.1/" xmlns:rdf="http://www.w3.org/1999/02/22-rdf-syntax-ns#">
   <cc:Work>
    <dc:type rdf:resource="http://purl.org/dc/dcmitype/StillImage"/>
    <dc:date>2021-04-27T03:22:07.485814</dc:date>
    <dc:format>image/svg+xml</dc:format>
    <dc:creator>
     <cc:Agent>
      <dc:title>Matplotlib v3.3.4, https://matplotlib.org/</dc:title>
     </cc:Agent>
    </dc:creator>
   </cc:Work>
  </rdf:RDF>
 </metadata>
 <defs>
  <style type="text/css">*{stroke-linecap:butt;stroke-linejoin:round;}</style>
 </defs>
 <g id="figure_1">
  <g id="patch_1">
   <path d="M 0 345.6 
L 460.8 345.6 
L 460.8 0 
L 0 0 
z
" style="fill:#ffffff;"/>
  </g>
  <g id="axes_1">
   <g id="patch_2">
    <path d="M 57.6 307.584 
L 414.72 307.584 
L 414.72 41.472 
L 57.6 41.472 
z
" style="fill:#ffffff;"/>
   </g>
   <g id="matplotlib.axis_1">
    <g id="xtick_1">
     <g id="line2d_1">
      <path clip-path="url(#pc20cb35252)" d="M 73.832727 307.584 
L 73.832727 41.472 
" style="fill:none;stroke:#b0b0b0;stroke-linecap:square;stroke-width:0.8;"/>
     </g>
     <g id="line2d_2">
      <defs>
       <path d="M 0 0 
L 0 3.5 
" id="mbc83714b6d" style="stroke:#000000;stroke-width:0.8;"/>
      </defs>
      <g>
       <use style="stroke:#000000;stroke-width:0.8;" x="73.832727" xlink:href="#mbc83714b6d" y="307.584"/>
      </g>
     </g>
     <g id="text_1">
      <!-- 0 -->
      <g transform="translate(70.651477 322.182437)scale(0.1 -0.1)">
       <defs>
        <path d="M 31.78125 66.40625 
Q 24.171875 66.40625 20.328125 58.90625 
Q 16.5 51.421875 16.5 36.375 
Q 16.5 21.390625 20.328125 13.890625 
Q 24.171875 6.390625 31.78125 6.390625 
Q 39.453125 6.390625 43.28125 13.890625 
Q 47.125 21.390625 47.125 36.375 
Q 47.125 51.421875 43.28125 58.90625 
Q 39.453125 66.40625 31.78125 66.40625 
z
M 31.78125 74.21875 
Q 44.046875 74.21875 50.515625 64.515625 
Q 56.984375 54.828125 56.984375 36.375 
Q 56.984375 17.96875 50.515625 8.265625 
Q 44.046875 -1.421875 31.78125 -1.421875 
Q 19.53125 -1.421875 13.0625 8.265625 
Q 6.59375 17.96875 6.59375 36.375 
Q 6.59375 54.828125 13.0625 64.515625 
Q 19.53125 74.21875 31.78125 74.21875 
z
" id="DejaVuSans-48"/>
       </defs>
       <use xlink:href="#DejaVuSans-48"/>
      </g>
     </g>
    </g>
    <g id="xtick_2">
     <g id="line2d_3">
      <path clip-path="url(#pc20cb35252)" d="M 140.360298 307.584 
L 140.360298 41.472 
" style="fill:none;stroke:#b0b0b0;stroke-linecap:square;stroke-width:0.8;"/>
     </g>
     <g id="line2d_4">
      <g>
       <use style="stroke:#000000;stroke-width:0.8;" x="140.360298" xlink:href="#mbc83714b6d" y="307.584"/>
      </g>
     </g>
     <g id="text_2">
      <!-- 50 -->
      <g transform="translate(133.997798 322.182437)scale(0.1 -0.1)">
       <defs>
        <path d="M 10.796875 72.90625 
L 49.515625 72.90625 
L 49.515625 64.59375 
L 19.828125 64.59375 
L 19.828125 46.734375 
Q 21.96875 47.46875 24.109375 47.828125 
Q 26.265625 48.1875 28.421875 48.1875 
Q 40.625 48.1875 47.75 41.5 
Q 54.890625 34.8125 54.890625 23.390625 
Q 54.890625 11.625 47.5625 5.09375 
Q 40.234375 -1.421875 26.90625 -1.421875 
Q 22.3125 -1.421875 17.546875 -0.640625 
Q 12.796875 0.140625 7.71875 1.703125 
L 7.71875 11.625 
Q 12.109375 9.234375 16.796875 8.0625 
Q 21.484375 6.890625 26.703125 6.890625 
Q 35.15625 6.890625 40.078125 11.328125 
Q 45.015625 15.765625 45.015625 23.390625 
Q 45.015625 31 40.078125 35.4375 
Q 35.15625 39.890625 26.703125 39.890625 
Q 22.75 39.890625 18.8125 39.015625 
Q 14.890625 38.140625 10.796875 36.28125 
z
" id="DejaVuSans-53"/>
       </defs>
       <use xlink:href="#DejaVuSans-53"/>
       <use x="63.623047" xlink:href="#DejaVuSans-48"/>
      </g>
     </g>
    </g>
    <g id="xtick_3">
     <g id="line2d_5">
      <path clip-path="url(#pc20cb35252)" d="M 206.887869 307.584 
L 206.887869 41.472 
" style="fill:none;stroke:#b0b0b0;stroke-linecap:square;stroke-width:0.8;"/>
     </g>
     <g id="line2d_6">
      <g>
       <use style="stroke:#000000;stroke-width:0.8;" x="206.887869" xlink:href="#mbc83714b6d" y="307.584"/>
      </g>
     </g>
     <g id="text_3">
      <!-- 100 -->
      <g transform="translate(197.344119 322.182437)scale(0.1 -0.1)">
       <defs>
        <path d="M 12.40625 8.296875 
L 28.515625 8.296875 
L 28.515625 63.921875 
L 10.984375 60.40625 
L 10.984375 69.390625 
L 28.421875 72.90625 
L 38.28125 72.90625 
L 38.28125 8.296875 
L 54.390625 8.296875 
L 54.390625 0 
L 12.40625 0 
z
" id="DejaVuSans-49"/>
       </defs>
       <use xlink:href="#DejaVuSans-49"/>
       <use x="63.623047" xlink:href="#DejaVuSans-48"/>
       <use x="127.246094" xlink:href="#DejaVuSans-48"/>
      </g>
     </g>
    </g>
    <g id="xtick_4">
     <g id="line2d_7">
      <path clip-path="url(#pc20cb35252)" d="M 273.41544 307.584 
L 273.41544 41.472 
" style="fill:none;stroke:#b0b0b0;stroke-linecap:square;stroke-width:0.8;"/>
     </g>
     <g id="line2d_8">
      <g>
       <use style="stroke:#000000;stroke-width:0.8;" x="273.41544" xlink:href="#mbc83714b6d" y="307.584"/>
      </g>
     </g>
     <g id="text_4">
      <!-- 150 -->
      <g transform="translate(263.87169 322.182437)scale(0.1 -0.1)">
       <use xlink:href="#DejaVuSans-49"/>
       <use x="63.623047" xlink:href="#DejaVuSans-53"/>
       <use x="127.246094" xlink:href="#DejaVuSans-48"/>
      </g>
     </g>
    </g>
    <g id="xtick_5">
     <g id="line2d_9">
      <path clip-path="url(#pc20cb35252)" d="M 339.94301 307.584 
L 339.94301 41.472 
" style="fill:none;stroke:#b0b0b0;stroke-linecap:square;stroke-width:0.8;"/>
     </g>
     <g id="line2d_10">
      <g>
       <use style="stroke:#000000;stroke-width:0.8;" x="339.94301" xlink:href="#mbc83714b6d" y="307.584"/>
      </g>
     </g>
     <g id="text_5">
      <!-- 200 -->
      <g transform="translate(330.39926 322.182437)scale(0.1 -0.1)">
       <defs>
        <path d="M 19.1875 8.296875 
L 53.609375 8.296875 
L 53.609375 0 
L 7.328125 0 
L 7.328125 8.296875 
Q 12.9375 14.109375 22.625 23.890625 
Q 32.328125 33.6875 34.8125 36.53125 
Q 39.546875 41.84375 41.421875 45.53125 
Q 43.3125 49.21875 43.3125 52.78125 
Q 43.3125 58.59375 39.234375 62.25 
Q 35.15625 65.921875 28.609375 65.921875 
Q 23.96875 65.921875 18.8125 64.3125 
Q 13.671875 62.703125 7.8125 59.421875 
L 7.8125 69.390625 
Q 13.765625 71.78125 18.9375 73 
Q 24.125 74.21875 28.421875 74.21875 
Q 39.75 74.21875 46.484375 68.546875 
Q 53.21875 62.890625 53.21875 53.421875 
Q 53.21875 48.921875 51.53125 44.890625 
Q 49.859375 40.875 45.40625 35.40625 
Q 44.1875 33.984375 37.640625 27.21875 
Q 31.109375 20.453125 19.1875 8.296875 
z
" id="DejaVuSans-50"/>
       </defs>
       <use xlink:href="#DejaVuSans-50"/>
       <use x="63.623047" xlink:href="#DejaVuSans-48"/>
       <use x="127.246094" xlink:href="#DejaVuSans-48"/>
      </g>
     </g>
    </g>
    <g id="xtick_6">
     <g id="line2d_11">
      <path clip-path="url(#pc20cb35252)" d="M 406.470581 307.584 
L 406.470581 41.472 
" style="fill:none;stroke:#b0b0b0;stroke-linecap:square;stroke-width:0.8;"/>
     </g>
     <g id="line2d_12">
      <g>
       <use style="stroke:#000000;stroke-width:0.8;" x="406.470581" xlink:href="#mbc83714b6d" y="307.584"/>
      </g>
     </g>
     <g id="text_6">
      <!-- 250 -->
      <g transform="translate(396.926831 322.182437)scale(0.1 -0.1)">
       <use xlink:href="#DejaVuSans-50"/>
       <use x="63.623047" xlink:href="#DejaVuSans-53"/>
       <use x="127.246094" xlink:href="#DejaVuSans-48"/>
      </g>
     </g>
    </g>
    <g id="text_7">
     <!-- Generations -->
     <g transform="translate(205.662344 335.860562)scale(0.1 -0.1)">
      <defs>
       <path d="M 59.515625 10.40625 
L 59.515625 29.984375 
L 43.40625 29.984375 
L 43.40625 38.09375 
L 69.28125 38.09375 
L 69.28125 6.78125 
Q 63.578125 2.734375 56.6875 0.65625 
Q 49.8125 -1.421875 42 -1.421875 
Q 24.90625 -1.421875 15.25 8.5625 
Q 5.609375 18.5625 5.609375 36.375 
Q 5.609375 54.25 15.25 64.234375 
Q 24.90625 74.21875 42 74.21875 
Q 49.125 74.21875 55.546875 72.453125 
Q 61.96875 70.703125 67.390625 67.28125 
L 67.390625 56.78125 
Q 61.921875 61.421875 55.765625 63.765625 
Q 49.609375 66.109375 42.828125 66.109375 
Q 29.4375 66.109375 22.71875 58.640625 
Q 16.015625 51.171875 16.015625 36.375 
Q 16.015625 21.625 22.71875 14.15625 
Q 29.4375 6.6875 42.828125 6.6875 
Q 48.046875 6.6875 52.140625 7.59375 
Q 56.25 8.5 59.515625 10.40625 
z
" id="DejaVuSans-71"/>
       <path d="M 56.203125 29.59375 
L 56.203125 25.203125 
L 14.890625 25.203125 
Q 15.484375 15.921875 20.484375 11.0625 
Q 25.484375 6.203125 34.421875 6.203125 
Q 39.59375 6.203125 44.453125 7.46875 
Q 49.3125 8.734375 54.109375 11.28125 
L 54.109375 2.78125 
Q 49.265625 0.734375 44.1875 -0.34375 
Q 39.109375 -1.421875 33.890625 -1.421875 
Q 20.796875 -1.421875 13.15625 6.1875 
Q 5.515625 13.8125 5.515625 26.8125 
Q 5.515625 40.234375 12.765625 48.109375 
Q 20.015625 56 32.328125 56 
Q 43.359375 56 49.78125 48.890625 
Q 56.203125 41.796875 56.203125 29.59375 
z
M 47.21875 32.234375 
Q 47.125 39.59375 43.09375 43.984375 
Q 39.0625 48.390625 32.421875 48.390625 
Q 24.90625 48.390625 20.390625 44.140625 
Q 15.875 39.890625 15.1875 32.171875 
z
" id="DejaVuSans-101"/>
       <path d="M 54.890625 33.015625 
L 54.890625 0 
L 45.90625 0 
L 45.90625 32.71875 
Q 45.90625 40.484375 42.875 44.328125 
Q 39.84375 48.1875 33.796875 48.1875 
Q 26.515625 48.1875 22.3125 43.546875 
Q 18.109375 38.921875 18.109375 30.90625 
L 18.109375 0 
L 9.078125 0 
L 9.078125 54.6875 
L 18.109375 54.6875 
L 18.109375 46.1875 
Q 21.34375 51.125 25.703125 53.5625 
Q 30.078125 56 35.796875 56 
Q 45.21875 56 50.046875 50.171875 
Q 54.890625 44.34375 54.890625 33.015625 
z
" id="DejaVuSans-110"/>
       <path d="M 41.109375 46.296875 
Q 39.59375 47.171875 37.8125 47.578125 
Q 36.03125 48 33.890625 48 
Q 26.265625 48 22.1875 43.046875 
Q 18.109375 38.09375 18.109375 28.8125 
L 18.109375 0 
L 9.078125 0 
L 9.078125 54.6875 
L 18.109375 54.6875 
L 18.109375 46.1875 
Q 20.953125 51.171875 25.484375 53.578125 
Q 30.03125 56 36.53125 56 
Q 37.453125 56 38.578125 55.875 
Q 39.703125 55.765625 41.0625 55.515625 
z
" id="DejaVuSans-114"/>
       <path d="M 34.28125 27.484375 
Q 23.390625 27.484375 19.1875 25 
Q 14.984375 22.515625 14.984375 16.5 
Q 14.984375 11.71875 18.140625 8.90625 
Q 21.296875 6.109375 26.703125 6.109375 
Q 34.1875 6.109375 38.703125 11.40625 
Q 43.21875 16.703125 43.21875 25.484375 
L 43.21875 27.484375 
z
M 52.203125 31.203125 
L 52.203125 0 
L 43.21875 0 
L 43.21875 8.296875 
Q 40.140625 3.328125 35.546875 0.953125 
Q 30.953125 -1.421875 24.3125 -1.421875 
Q 15.921875 -1.421875 10.953125 3.296875 
Q 6 8.015625 6 15.921875 
Q 6 25.140625 12.171875 29.828125 
Q 18.359375 34.515625 30.609375 34.515625 
L 43.21875 34.515625 
L 43.21875 35.40625 
Q 43.21875 41.609375 39.140625 45 
Q 35.0625 48.390625 27.6875 48.390625 
Q 23 48.390625 18.546875 47.265625 
Q 14.109375 46.140625 10.015625 43.890625 
L 10.015625 52.203125 
Q 14.9375 54.109375 19.578125 55.046875 
Q 24.21875 56 28.609375 56 
Q 40.484375 56 46.34375 49.84375 
Q 52.203125 43.703125 52.203125 31.203125 
z
" id="DejaVuSans-97"/>
       <path d="M 18.3125 70.21875 
L 18.3125 54.6875 
L 36.8125 54.6875 
L 36.8125 47.703125 
L 18.3125 47.703125 
L 18.3125 18.015625 
Q 18.3125 11.328125 20.140625 9.421875 
Q 21.96875 7.515625 27.59375 7.515625 
L 36.8125 7.515625 
L 36.8125 0 
L 27.59375 0 
Q 17.1875 0 13.234375 3.875 
Q 9.28125 7.765625 9.28125 18.015625 
L 9.28125 47.703125 
L 2.6875 47.703125 
L 2.6875 54.6875 
L 9.28125 54.6875 
L 9.28125 70.21875 
z
" id="DejaVuSans-116"/>
       <path d="M 9.421875 54.6875 
L 18.40625 54.6875 
L 18.40625 0 
L 9.421875 0 
z
M 9.421875 75.984375 
L 18.40625 75.984375 
L 18.40625 64.59375 
L 9.421875 64.59375 
z
" id="DejaVuSans-105"/>
       <path d="M 30.609375 48.390625 
Q 23.390625 48.390625 19.1875 42.75 
Q 14.984375 37.109375 14.984375 27.296875 
Q 14.984375 17.484375 19.15625 11.84375 
Q 23.34375 6.203125 30.609375 6.203125 
Q 37.796875 6.203125 41.984375 11.859375 
Q 46.1875 17.53125 46.1875 27.296875 
Q 46.1875 37.015625 41.984375 42.703125 
Q 37.796875 48.390625 30.609375 48.390625 
z
M 30.609375 56 
Q 42.328125 56 49.015625 48.375 
Q 55.71875 40.765625 55.71875 27.296875 
Q 55.71875 13.875 49.015625 6.21875 
Q 42.328125 -1.421875 30.609375 -1.421875 
Q 18.84375 -1.421875 12.171875 6.21875 
Q 5.515625 13.875 5.515625 27.296875 
Q 5.515625 40.765625 12.171875 48.375 
Q 18.84375 56 30.609375 56 
z
" id="DejaVuSans-111"/>
       <path d="M 44.28125 53.078125 
L 44.28125 44.578125 
Q 40.484375 46.53125 36.375 47.5 
Q 32.28125 48.484375 27.875 48.484375 
Q 21.1875 48.484375 17.84375 46.4375 
Q 14.5 44.390625 14.5 40.28125 
Q 14.5 37.15625 16.890625 35.375 
Q 19.28125 33.59375 26.515625 31.984375 
L 29.59375 31.296875 
Q 39.15625 29.25 43.1875 25.515625 
Q 47.21875 21.78125 47.21875 15.09375 
Q 47.21875 7.46875 41.1875 3.015625 
Q 35.15625 -1.421875 24.609375 -1.421875 
Q 20.21875 -1.421875 15.453125 -0.5625 
Q 10.6875 0.296875 5.421875 2 
L 5.421875 11.28125 
Q 10.40625 8.6875 15.234375 7.390625 
Q 20.0625 6.109375 24.8125 6.109375 
Q 31.15625 6.109375 34.5625 8.28125 
Q 37.984375 10.453125 37.984375 14.40625 
Q 37.984375 18.0625 35.515625 20.015625 
Q 33.0625 21.96875 24.703125 23.78125 
L 21.578125 24.515625 
Q 13.234375 26.265625 9.515625 29.90625 
Q 5.8125 33.546875 5.8125 39.890625 
Q 5.8125 47.609375 11.28125 51.796875 
Q 16.75 56 26.8125 56 
Q 31.78125 56 36.171875 55.265625 
Q 40.578125 54.546875 44.28125 53.078125 
z
" id="DejaVuSans-115"/>
      </defs>
      <use xlink:href="#DejaVuSans-71"/>
      <use x="77.490234" xlink:href="#DejaVuSans-101"/>
      <use x="139.013672" xlink:href="#DejaVuSans-110"/>
      <use x="202.392578" xlink:href="#DejaVuSans-101"/>
      <use x="263.916016" xlink:href="#DejaVuSans-114"/>
      <use x="305.029297" xlink:href="#DejaVuSans-97"/>
      <use x="366.308594" xlink:href="#DejaVuSans-116"/>
      <use x="405.517578" xlink:href="#DejaVuSans-105"/>
      <use x="433.300781" xlink:href="#DejaVuSans-111"/>
      <use x="494.482422" xlink:href="#DejaVuSans-110"/>
      <use x="557.861328" xlink:href="#DejaVuSans-115"/>
     </g>
    </g>
   </g>
   <g id="matplotlib.axis_2">
    <g id="ytick_1">
     <g id="line2d_13">
      <path clip-path="url(#pc20cb35252)" d="M 57.6 298.937047 
L 414.72 298.937047 
" style="fill:none;stroke:#b0b0b0;stroke-linecap:square;stroke-width:0.8;"/>
     </g>
     <g id="line2d_14">
      <defs>
       <path d="M 0 0 
L -3.5 0 
" id="m8557ab5363" style="stroke:#000000;stroke-width:0.8;"/>
      </defs>
      <g>
       <use style="stroke:#000000;stroke-width:0.8;" x="57.6" xlink:href="#m8557ab5363" y="298.937047"/>
      </g>
     </g>
     <g id="text_8">
      <!-- $\mathdefault{-10^{3}}$ -->
      <g transform="translate(24.6 302.736266)scale(0.1 -0.1)">
       <defs>
        <path d="M 10.59375 35.5 
L 73.1875 35.5 
L 73.1875 27.203125 
L 10.59375 27.203125 
z
" id="DejaVuSans-8722"/>
        <path d="M 40.578125 39.3125 
Q 47.65625 37.796875 51.625 33 
Q 55.609375 28.21875 55.609375 21.1875 
Q 55.609375 10.40625 48.1875 4.484375 
Q 40.765625 -1.421875 27.09375 -1.421875 
Q 22.515625 -1.421875 17.65625 -0.515625 
Q 12.796875 0.390625 7.625 2.203125 
L 7.625 11.71875 
Q 11.71875 9.328125 16.59375 8.109375 
Q 21.484375 6.890625 26.8125 6.890625 
Q 36.078125 6.890625 40.9375 10.546875 
Q 45.796875 14.203125 45.796875 21.1875 
Q 45.796875 27.640625 41.28125 31.265625 
Q 36.765625 34.90625 28.71875 34.90625 
L 20.21875 34.90625 
L 20.21875 43.015625 
L 29.109375 43.015625 
Q 36.375 43.015625 40.234375 45.921875 
Q 44.09375 48.828125 44.09375 54.296875 
Q 44.09375 59.90625 40.109375 62.90625 
Q 36.140625 65.921875 28.71875 65.921875 
Q 24.65625 65.921875 20.015625 65.03125 
Q 15.375 64.15625 9.8125 62.3125 
L 9.8125 71.09375 
Q 15.4375 72.65625 20.34375 73.4375 
Q 25.25 74.21875 29.59375 74.21875 
Q 40.828125 74.21875 47.359375 69.109375 
Q 53.90625 64.015625 53.90625 55.328125 
Q 53.90625 49.265625 50.4375 45.09375 
Q 46.96875 40.921875 40.578125 39.3125 
z
" id="DejaVuSans-51"/>
       </defs>
       <use transform="translate(0 0.765625)" xlink:href="#DejaVuSans-8722"/>
       <use transform="translate(83.789062 0.765625)" xlink:href="#DejaVuSans-49"/>
       <use transform="translate(147.412109 0.765625)" xlink:href="#DejaVuSans-48"/>
       <use transform="translate(211.992188 39.046875)scale(0.7)" xlink:href="#DejaVuSans-51"/>
      </g>
     </g>
    </g>
    <g id="text_9">
     <!-- Fitness -->
     <g transform="translate(18.520312 191.845187)rotate(-90)scale(0.1 -0.1)">
      <defs>
       <path d="M 9.8125 72.90625 
L 51.703125 72.90625 
L 51.703125 64.59375 
L 19.671875 64.59375 
L 19.671875 43.109375 
L 48.578125 43.109375 
L 48.578125 34.8125 
L 19.671875 34.8125 
L 19.671875 0 
L 9.8125 0 
z
" id="DejaVuSans-70"/>
      </defs>
      <use xlink:href="#DejaVuSans-70"/>
      <use x="50.269531" xlink:href="#DejaVuSans-105"/>
      <use x="78.052734" xlink:href="#DejaVuSans-116"/>
      <use x="117.261719" xlink:href="#DejaVuSans-110"/>
      <use x="180.640625" xlink:href="#DejaVuSans-101"/>
      <use x="242.164062" xlink:href="#DejaVuSans-115"/>
      <use x="294.263672" xlink:href="#DejaVuSans-115"/>
     </g>
    </g>
   </g>
   <g id="line2d_15">
    <path clip-path="url(#pc20cb35252)" d="M 73.832727 295.488 
L 75.163279 288.173709 
L 76.49383 288.963304 
L 77.824382 286.325957 
L 79.154933 285.197872 
L 80.485484 284.695379 
L 81.816036 279.568707 
L 83.146587 279.935769 
L 84.477139 273.763911 
L 85.80769 273.494852 
L 87.138241 271.776355 
L 88.468793 270.898251 
L 89.799344 273.335591 
L 91.129896 270.50227 
L 92.460447 265.531915 
L 93.790999 268.18527 
L 95.12155 266.557009 
L 96.452101 266.989879 
L 97.782653 265.376852 
L 99.113204 264.200653 
L 100.443756 260.48063 
L 101.774307 260.091552 
L 103.104858 264.169183 
L 104.43541 261.228695 
L 105.765961 266.724891 
L 107.096513 267.135312 
L 108.427064 262.828582 
L 109.757615 263.091588 
L 111.088167 265.012534 
L 112.418718 264.281513 
L 113.74927 265.104492 
L 115.079821 257.476611 
L 116.410373 259.149599 
L 117.740924 255.137252 
L 120.402027 262.358085 
L 121.732578 259.5001 
L 123.06313 257.609142 
L 124.393681 254.057581 
L 125.724232 248.130617 
L 127.054784 255.181531 
L 128.385335 252.320727 
L 129.715887 246.508331 
L 131.046438 246.398228 
L 132.37699 248.578629 
L 133.707541 251.560207 
L 135.038092 247.234814 
L 136.368644 241.916485 
L 137.699195 242.945106 
L 139.029747 242.605406 
L 140.360298 247.669346 
L 141.690849 244.374303 
L 143.021401 251.930914 
L 144.351952 248.596896 
L 145.682504 253.564786 
L 147.013055 250.297935 
L 148.343607 248.737362 
L 149.674158 254.733827 
L 151.004709 248.547529 
L 152.335261 255.873187 
L 153.665812 245.434451 
L 154.996364 250.426267 
L 156.326915 246.629868 
L 157.657466 247.64976 
L 158.988018 252.991704 
L 160.318569 242.255386 
L 161.649121 239.209368 
L 162.979672 247.450098 
L 164.310224 244.818678 
L 165.640775 250.254131 
L 166.971326 244.324246 
L 168.301878 246.737713 
L 169.632429 248.520129 
L 170.962981 258.397951 
L 172.293532 252.776938 
L 173.624083 256.055987 
L 174.954635 251.956747 
L 176.285186 249.609101 
L 177.615738 249.668525 
L 178.946289 250.541801 
L 180.276841 245.46538 
L 181.607392 249.581748 
L 182.937943 244.716082 
L 184.268495 249.461428 
L 185.599046 247.579195 
L 186.929598 242.065616 
L 188.260149 245.342966 
L 189.5907 249.682389 
L 190.921252 241.888886 
L 192.251803 254.287873 
L 193.582355 252.241442 
L 194.912906 248.14584 
L 196.243458 257.375926 
L 197.574009 258.111595 
L 198.90456 252.534964 
L 200.235112 249.545986 
L 201.565663 252.098864 
L 202.896215 252.322621 
L 204.226766 253.247116 
L 205.557317 249.329519 
L 206.887869 260.018096 
L 208.21842 254.441641 
L 209.548972 250.942646 
L 210.879523 264.307495 
L 212.210075 254.828244 
L 213.540626 256.793328 
L 214.871177 254.995262 
L 216.201729 244.127406 
L 217.53228 254.727574 
L 218.862832 254.907389 
L 220.193383 248.669298 
L 221.523934 250.726974 
L 222.854486 246.359495 
L 224.185037 247.534343 
L 225.515589 250.8684 
L 226.84614 255.633426 
L 228.176692 246.397695 
L 229.507243 241.881281 
L 230.837794 244.51192 
L 232.168346 251.237712 
L 233.498897 240.209055 
L 234.829449 250.111376 
L 236.16 252.085855 
L 237.490551 256.292096 
L 238.821103 252.730349 
L 240.151654 250.847197 
L 241.482206 258.885491 
L 242.812757 257.841295 
L 244.143308 249.910117 
L 245.47386 247.727056 
L 246.804411 248.637718 
L 249.465514 241.816486 
L 250.796066 245.155173 
L 252.126617 257.729992 
L 253.457168 250.636462 
L 254.78772 242.487466 
L 256.118271 250.523602 
L 257.448823 257.339463 
L 258.779374 239.841802 
L 260.109925 238.174627 
L 261.440477 242.397845 
L 262.771028 236.37183 
L 264.10158 241.818145 
L 265.432131 240.709747 
L 266.762683 244.444383 
L 268.093234 239.604595 
L 269.423785 245.724396 
L 270.754337 241.727011 
L 272.084888 250.332497 
L 273.41544 241.507338 
L 274.745991 237.444514 
L 276.076542 236.221618 
L 277.407094 228.119638 
L 278.737645 237.380156 
L 280.068197 235.013174 
L 281.398748 228.949064 
L 282.7293 235.876228 
L 284.059851 241.631138 
L 285.390402 241.726147 
L 286.720954 240.507278 
L 288.051505 245.454494 
L 289.382057 246.597451 
L 290.712608 232.230082 
L 292.043159 233.849973 
L 293.373711 240.785248 
L 294.704262 233.661588 
L 296.034814 235.272817 
L 297.365365 229.883746 
L 298.695917 241.895013 
L 300.026468 235.097697 
L 301.357019 241.804862 
L 302.687571 236.434545 
L 304.018122 242.128172 
L 305.348674 244.589595 
L 306.679225 245.158073 
L 308.009776 238.657957 
L 309.340328 235.624674 
L 310.670879 236.510903 
L 312.001431 237.187312 
L 313.331982 251.40308 
L 314.662534 237.909621 
L 315.993085 241.941843 
L 317.323636 247.89149 
L 318.654188 233.46572 
L 319.984739 245.221814 
L 321.315291 241.755376 
L 322.645842 242.444134 
L 323.976393 247.820162 
L 325.306945 247.38358 
L 326.637496 243.843525 
L 327.968048 245.357591 
L 329.298599 243.076363 
L 330.629151 241.609677 
L 331.959702 229.002832 
L 333.290253 244.364419 
L 334.620805 231.182728 
L 335.951356 241.608283 
L 337.281908 247.317128 
L 338.612459 238.384264 
L 339.94301 244.854964 
L 341.273562 242.777058 
L 342.604113 249.159827 
L 343.934665 242.680934 
L 345.265216 237.095558 
L 346.595768 248.920413 
L 347.926319 250.489421 
L 349.25687 243.197024 
L 350.587422 249.780881 
L 351.917973 242.982971 
L 353.248525 231.311661 
L 354.579076 236.571285 
L 355.909627 243.469137 
L 357.240179 236.467502 
L 358.57073 237.298223 
L 359.901282 244.001532 
L 361.231833 239.631973 
L 362.562385 259.484624 
L 363.892936 249.496153 
L 365.223487 249.701946 
L 366.554039 248.164911 
L 367.88459 239.290342 
L 369.215142 249.045866 
L 370.545693 231.48744 
L 371.876244 246.012434 
L 373.206796 249.50021 
L 374.537347 250.26265 
L 375.867899 243.032063 
L 377.19845 247.507743 
L 378.529001 242.267848 
L 379.859553 240.582147 
L 381.190104 244.065109 
L 382.520656 246.771246 
L 383.851207 248.109806 
L 385.181759 244.351633 
L 386.51231 239.892373 
L 387.842861 240.892122 
L 389.173413 243.697843 
L 390.503964 230.510465 
L 391.834516 236.418883 
L 393.165067 223.530946 
L 394.495618 229.885393 
L 395.82617 236.934811 
L 397.156721 245.026965 
L 398.487273 236.51732 
L 398.487273 236.51732 
" style="fill:none;stroke:#0000ff;stroke-linecap:square;stroke-width:1.5;"/>
   </g>
   <g id="line2d_16">
    <path clip-path="url(#pc20cb35252)" d="M 73.832727 263.064683 
L 75.163279 249.938345 
L 76.49383 252.37033 
L 77.824382 237.559435 
L 79.154933 242.119615 
L 80.485484 238.921439 
L 81.816036 208.197439 
L 83.146587 228.800188 
L 84.477139 205.291964 
L 85.80769 217.094216 
L 87.138241 212.984102 
L 88.468793 210.183992 
L 89.799344 199.306515 
L 91.129896 206.97972 
L 92.460447 203.031186 
L 93.790999 217.394718 
L 95.12155 214.75109 
L 96.452101 202.877472 
L 97.782653 182.511907 
L 99.113204 204.47758 
L 100.443756 188.520246 
L 101.774307 203.913682 
L 103.104858 192.915937 
L 104.43541 189.640676 
L 105.765961 209.818488 
L 107.096513 177.837007 
L 108.427064 182.356417 
L 109.757615 173.442229 
L 111.088167 193.17936 
L 112.418718 180.780034 
L 113.74927 185.221331 
L 115.079821 169.872415 
L 116.410373 164.563885 
L 117.740924 141.497441 
L 119.071475 126.130787 
L 120.402027 195.560449 
L 121.732578 143.169912 
L 123.06313 155.788177 
L 124.393681 159.717091 
L 125.724232 137.928328 
L 127.054784 149.821716 
L 128.385335 149.761083 
L 129.715887 143.002987 
L 131.046438 130.937043 
L 132.37699 131.410861 
L 133.707541 147.542471 
L 135.038092 142.930225 
L 136.368644 151.622987 
L 137.699195 126.228071 
L 139.029747 142.956165 
L 140.360298 167.148875 
L 141.690849 158.05297 
L 143.021401 142.669171 
L 144.351952 156.751248 
L 145.682504 179.152155 
L 147.013055 90.857883 
L 148.343607 128.228094 
L 149.674158 137.471022 
L 151.004709 160.390228 
L 152.335261 198.945464 
L 153.665812 128.61517 
L 154.996364 136.535479 
L 157.657466 177.914357 
L 158.988018 176.897552 
L 160.318569 158.797152 
L 161.649121 145.832792 
L 162.979672 176.629476 
L 164.310224 159.320149 
L 165.640775 84.946861 
L 166.971326 167.024279 
L 168.301878 189.07426 
L 169.632429 184.624379 
L 170.962981 149.112904 
L 172.293532 197.281109 
L 173.624083 147.28429 
L 174.954635 156.369143 
L 176.285186 172.703759 
L 177.615738 176.328631 
L 178.946289 168.365159 
L 180.276841 152.328373 
L 181.607392 112.2131 
L 182.937943 143.498831 
L 184.268495 166.860128 
L 185.599046 165.792175 
L 186.929598 148.407799 
L 188.260149 126.035091 
L 189.5907 174.576575 
L 190.921252 141.856913 
L 192.251803 191.614291 
L 193.582355 142.232069 
L 194.912906 160.520727 
L 196.243458 184.177747 
L 197.574009 181.16031 
L 198.90456 102.008233 
L 200.235112 157.233074 
L 201.565663 141.800491 
L 202.896215 172.489956 
L 204.226766 180.365202 
L 205.557317 163.476674 
L 206.887869 184.369614 
L 208.21842 172.832356 
L 209.548972 156.967565 
L 210.879523 193.659035 
L 212.210075 139.346351 
L 213.540626 176.993845 
L 214.871177 182.242452 
L 216.201729 160.33748 
L 217.53228 134.756085 
L 218.862832 163.501316 
L 220.193383 141.927326 
L 221.523934 151.221442 
L 222.854486 140.256608 
L 224.185037 141.228616 
L 225.515589 157.795886 
L 226.84614 161.038825 
L 228.176692 166.678677 
L 229.507243 181.960647 
L 230.837794 174.104497 
L 232.168346 120.99135 
L 233.498897 150.041752 
L 234.829449 157.653589 
L 236.16 176.770358 
L 237.490551 160.143648 
L 238.821103 154.553839 
L 240.151654 144.796437 
L 241.482206 177.440757 
L 242.812757 180.776593 
L 244.143308 141.882597 
L 245.47386 174.975898 
L 246.804411 163.318025 
L 248.134963 170.582961 
L 249.465514 172.483745 
L 250.796066 123.657711 
L 252.126617 181.185019 
L 253.457168 174.406186 
L 254.78772 173.11895 
L 257.448823 192.549741 
L 258.779374 161.857261 
L 260.109925 154.499518 
L 261.440477 154.276763 
L 262.771028 155.946151 
L 264.10158 132.839 
L 265.432131 149.706371 
L 266.762683 162.764421 
L 268.093234 133.872488 
L 269.423785 170.371572 
L 270.754337 145.305547 
L 272.084888 132.714199 
L 273.41544 166.469143 
L 274.745991 141.057058 
L 276.076542 159.399496 
L 277.407094 126.919088 
L 278.737645 64.306857 
L 280.068197 104.388538 
L 282.7293 167.667501 
L 284.059851 124.154855 
L 285.390402 147.500517 
L 286.720954 150.744585 
L 288.051505 159.050812 
L 289.382057 132.803909 
L 290.712608 165.145747 
L 292.043159 53.568 
L 293.373711 129.969966 
L 294.704262 165.737842 
L 296.034814 156.304064 
L 297.365365 136.802773 
L 298.695917 168.840197 
L 300.026468 145.280335 
L 301.357019 164.315048 
L 302.687571 174.636214 
L 304.018122 164.051268 
L 305.348674 157.828026 
L 306.679225 154.590991 
L 308.009776 137.309266 
L 309.340328 165.088332 
L 310.670879 135.416124 
L 312.001431 155.446025 
L 313.331982 161.184692 
L 314.662534 134.841053 
L 315.993085 161.455487 
L 317.323636 152.319081 
L 318.654188 148.373663 
L 321.315291 161.569293 
L 322.645842 161.942284 
L 323.976393 178.437836 
L 325.306945 166.711136 
L 326.637496 160.608205 
L 327.968048 160.470134 
L 329.298599 145.328904 
L 330.629151 103.96102 
L 331.959702 130.780986 
L 333.290253 134.372349 
L 334.620805 157.259177 
L 335.951356 139.857087 
L 337.281908 163.633094 
L 338.612459 129.060486 
L 339.94301 171.750796 
L 341.273562 106.39312 
L 342.604113 167.13994 
L 343.934665 131.620996 
L 345.265216 167.886384 
L 346.595768 155.450916 
L 347.926319 157.592752 
L 349.25687 167.294226 
L 350.587422 163.826737 
L 351.917973 172.533586 
L 353.248525 142.087416 
L 354.579076 170.080241 
L 355.909627 125.4449 
L 357.240179 139.369052 
L 358.57073 169.783315 
L 359.901282 170.496815 
L 361.231833 146.330564 
L 362.562385 151.725832 
L 363.892936 154.877533 
L 365.223487 171.296897 
L 366.554039 159.915743 
L 367.88459 99.191525 
L 369.215142 183.694869 
L 370.545693 101.662456 
L 371.876244 156.105428 
L 373.206796 168.668159 
L 374.537347 157.373665 
L 375.867899 141.841981 
L 377.19845 147.731278 
L 378.529001 163.633082 
L 379.859553 109.566333 
L 381.190104 169.523701 
L 382.520656 171.845364 
L 383.851207 167.955788 
L 385.181759 129.449773 
L 386.51231 159.200836 
L 387.842861 155.885433 
L 389.173413 151.945573 
L 390.503964 178.336952 
L 391.834516 183.975905 
L 393.165067 156.463027 
L 394.495618 159.766087 
L 395.82617 148.881505 
L 397.156721 148.334547 
L 398.487273 145.425251 
L 398.487273 145.425251 
" style="fill:none;stroke:#ff0000;stroke-linecap:square;stroke-width:1.5;"/>
   </g>
   <g id="patch_3">
    <path d="M 57.6 307.584 
L 57.6 41.472 
" style="fill:none;stroke:#000000;stroke-linecap:square;stroke-linejoin:miter;stroke-width:0.8;"/>
   </g>
   <g id="patch_4">
    <path d="M 414.72 307.584 
L 414.72 41.472 
" style="fill:none;stroke:#000000;stroke-linecap:square;stroke-linejoin:miter;stroke-width:0.8;"/>
   </g>
   <g id="patch_5">
    <path d="M 57.6 307.584 
L 414.72 307.584 
" style="fill:none;stroke:#000000;stroke-linecap:square;stroke-linejoin:miter;stroke-width:0.8;"/>
   </g>
   <g id="patch_6">
    <path d="M 57.6 41.472 
L 414.72 41.472 
" style="fill:none;stroke:#000000;stroke-linecap:square;stroke-linejoin:miter;stroke-width:0.8;"/>
   </g>
   <g id="text_10">
    <!-- Population's average and best fitness -->
    <g transform="translate(123.529687 35.472)scale(0.12 -0.12)">
     <defs>
      <path d="M 19.671875 64.796875 
L 19.671875 37.40625 
L 32.078125 37.40625 
Q 38.96875 37.40625 42.71875 40.96875 
Q 46.484375 44.53125 46.484375 51.125 
Q 46.484375 57.671875 42.71875 61.234375 
Q 38.96875 64.796875 32.078125 64.796875 
z
M 9.8125 72.90625 
L 32.078125 72.90625 
Q 44.34375 72.90625 50.609375 67.359375 
Q 56.890625 61.8125 56.890625 51.125 
Q 56.890625 40.328125 50.609375 34.8125 
Q 44.34375 29.296875 32.078125 29.296875 
L 19.671875 29.296875 
L 19.671875 0 
L 9.8125 0 
z
" id="DejaVuSans-80"/>
      <path d="M 18.109375 8.203125 
L 18.109375 -20.796875 
L 9.078125 -20.796875 
L 9.078125 54.6875 
L 18.109375 54.6875 
L 18.109375 46.390625 
Q 20.953125 51.265625 25.265625 53.625 
Q 29.59375 56 35.59375 56 
Q 45.5625 56 51.78125 48.09375 
Q 58.015625 40.1875 58.015625 27.296875 
Q 58.015625 14.40625 51.78125 6.484375 
Q 45.5625 -1.421875 35.59375 -1.421875 
Q 29.59375 -1.421875 25.265625 0.953125 
Q 20.953125 3.328125 18.109375 8.203125 
z
M 48.6875 27.296875 
Q 48.6875 37.203125 44.609375 42.84375 
Q 40.53125 48.484375 33.40625 48.484375 
Q 26.265625 48.484375 22.1875 42.84375 
Q 18.109375 37.203125 18.109375 27.296875 
Q 18.109375 17.390625 22.1875 11.75 
Q 26.265625 6.109375 33.40625 6.109375 
Q 40.53125 6.109375 44.609375 11.75 
Q 48.6875 17.390625 48.6875 27.296875 
z
" id="DejaVuSans-112"/>
      <path d="M 8.5 21.578125 
L 8.5 54.6875 
L 17.484375 54.6875 
L 17.484375 21.921875 
Q 17.484375 14.15625 20.5 10.265625 
Q 23.53125 6.390625 29.59375 6.390625 
Q 36.859375 6.390625 41.078125 11.03125 
Q 45.3125 15.671875 45.3125 23.6875 
L 45.3125 54.6875 
L 54.296875 54.6875 
L 54.296875 0 
L 45.3125 0 
L 45.3125 8.40625 
Q 42.046875 3.421875 37.71875 1 
Q 33.40625 -1.421875 27.6875 -1.421875 
Q 18.265625 -1.421875 13.375 4.4375 
Q 8.5 10.296875 8.5 21.578125 
z
M 31.109375 56 
z
" id="DejaVuSans-117"/>
      <path d="M 9.421875 75.984375 
L 18.40625 75.984375 
L 18.40625 0 
L 9.421875 0 
z
" id="DejaVuSans-108"/>
      <path d="M 17.921875 72.90625 
L 17.921875 45.796875 
L 9.625 45.796875 
L 9.625 72.90625 
z
" id="DejaVuSans-39"/>
      <path id="DejaVuSans-32"/>
      <path d="M 2.984375 54.6875 
L 12.5 54.6875 
L 29.59375 8.796875 
L 46.6875 54.6875 
L 56.203125 54.6875 
L 35.6875 0 
L 23.484375 0 
z
" id="DejaVuSans-118"/>
      <path d="M 45.40625 27.984375 
Q 45.40625 37.75 41.375 43.109375 
Q 37.359375 48.484375 30.078125 48.484375 
Q 22.859375 48.484375 18.828125 43.109375 
Q 14.796875 37.75 14.796875 27.984375 
Q 14.796875 18.265625 18.828125 12.890625 
Q 22.859375 7.515625 30.078125 7.515625 
Q 37.359375 7.515625 41.375 12.890625 
Q 45.40625 18.265625 45.40625 27.984375 
z
M 54.390625 6.78125 
Q 54.390625 -7.171875 48.1875 -13.984375 
Q 42 -20.796875 29.203125 -20.796875 
Q 24.46875 -20.796875 20.265625 -20.09375 
Q 16.0625 -19.390625 12.109375 -17.921875 
L 12.109375 -9.1875 
Q 16.0625 -11.328125 19.921875 -12.34375 
Q 23.78125 -13.375 27.78125 -13.375 
Q 36.625 -13.375 41.015625 -8.765625 
Q 45.40625 -4.15625 45.40625 5.171875 
L 45.40625 9.625 
Q 42.625 4.78125 38.28125 2.390625 
Q 33.9375 0 27.875 0 
Q 17.828125 0 11.671875 7.65625 
Q 5.515625 15.328125 5.515625 27.984375 
Q 5.515625 40.671875 11.671875 48.328125 
Q 17.828125 56 27.875 56 
Q 33.9375 56 38.28125 53.609375 
Q 42.625 51.21875 45.40625 46.390625 
L 45.40625 54.6875 
L 54.390625 54.6875 
z
" id="DejaVuSans-103"/>
      <path d="M 45.40625 46.390625 
L 45.40625 75.984375 
L 54.390625 75.984375 
L 54.390625 0 
L 45.40625 0 
L 45.40625 8.203125 
Q 42.578125 3.328125 38.25 0.953125 
Q 33.9375 -1.421875 27.875 -1.421875 
Q 17.96875 -1.421875 11.734375 6.484375 
Q 5.515625 14.40625 5.515625 27.296875 
Q 5.515625 40.1875 11.734375 48.09375 
Q 17.96875 56 27.875 56 
Q 33.9375 56 38.25 53.625 
Q 42.578125 51.265625 45.40625 46.390625 
z
M 14.796875 27.296875 
Q 14.796875 17.390625 18.875 11.75 
Q 22.953125 6.109375 30.078125 6.109375 
Q 37.203125 6.109375 41.296875 11.75 
Q 45.40625 17.390625 45.40625 27.296875 
Q 45.40625 37.203125 41.296875 42.84375 
Q 37.203125 48.484375 30.078125 48.484375 
Q 22.953125 48.484375 18.875 42.84375 
Q 14.796875 37.203125 14.796875 27.296875 
z
" id="DejaVuSans-100"/>
      <path d="M 48.6875 27.296875 
Q 48.6875 37.203125 44.609375 42.84375 
Q 40.53125 48.484375 33.40625 48.484375 
Q 26.265625 48.484375 22.1875 42.84375 
Q 18.109375 37.203125 18.109375 27.296875 
Q 18.109375 17.390625 22.1875 11.75 
Q 26.265625 6.109375 33.40625 6.109375 
Q 40.53125 6.109375 44.609375 11.75 
Q 48.6875 17.390625 48.6875 27.296875 
z
M 18.109375 46.390625 
Q 20.953125 51.265625 25.265625 53.625 
Q 29.59375 56 35.59375 56 
Q 45.5625 56 51.78125 48.09375 
Q 58.015625 40.1875 58.015625 27.296875 
Q 58.015625 14.40625 51.78125 6.484375 
Q 45.5625 -1.421875 35.59375 -1.421875 
Q 29.59375 -1.421875 25.265625 0.953125 
Q 20.953125 3.328125 18.109375 8.203125 
L 18.109375 0 
L 9.078125 0 
L 9.078125 75.984375 
L 18.109375 75.984375 
z
" id="DejaVuSans-98"/>
      <path d="M 37.109375 75.984375 
L 37.109375 68.5 
L 28.515625 68.5 
Q 23.6875 68.5 21.796875 66.546875 
Q 19.921875 64.59375 19.921875 59.515625 
L 19.921875 54.6875 
L 34.71875 54.6875 
L 34.71875 47.703125 
L 19.921875 47.703125 
L 19.921875 0 
L 10.890625 0 
L 10.890625 47.703125 
L 2.296875 47.703125 
L 2.296875 54.6875 
L 10.890625 54.6875 
L 10.890625 58.5 
Q 10.890625 67.625 15.140625 71.796875 
Q 19.390625 75.984375 28.609375 75.984375 
z
" id="DejaVuSans-102"/>
     </defs>
     <use xlink:href="#DejaVuSans-80"/>
     <use x="56.677734" xlink:href="#DejaVuSans-111"/>
     <use x="117.859375" xlink:href="#DejaVuSans-112"/>
     <use x="181.335938" xlink:href="#DejaVuSans-117"/>
     <use x="244.714844" xlink:href="#DejaVuSans-108"/>
     <use x="272.498047" xlink:href="#DejaVuSans-97"/>
     <use x="333.777344" xlink:href="#DejaVuSans-116"/>
     <use x="372.986328" xlink:href="#DejaVuSans-105"/>
     <use x="400.769531" xlink:href="#DejaVuSans-111"/>
     <use x="461.951172" xlink:href="#DejaVuSans-110"/>
     <use x="525.330078" xlink:href="#DejaVuSans-39"/>
     <use x="552.820312" xlink:href="#DejaVuSans-115"/>
     <use x="604.919922" xlink:href="#DejaVuSans-32"/>
     <use x="636.707031" xlink:href="#DejaVuSans-97"/>
     <use x="697.986328" xlink:href="#DejaVuSans-118"/>
     <use x="757.166016" xlink:href="#DejaVuSans-101"/>
     <use x="818.689453" xlink:href="#DejaVuSans-114"/>
     <use x="859.802734" xlink:href="#DejaVuSans-97"/>
     <use x="921.082031" xlink:href="#DejaVuSans-103"/>
     <use x="984.558594" xlink:href="#DejaVuSans-101"/>
     <use x="1046.082031" xlink:href="#DejaVuSans-32"/>
     <use x="1077.869141" xlink:href="#DejaVuSans-97"/>
     <use x="1139.148438" xlink:href="#DejaVuSans-110"/>
     <use x="1202.527344" xlink:href="#DejaVuSans-100"/>
     <use x="1266.003906" xlink:href="#DejaVuSans-32"/>
     <use x="1297.791016" xlink:href="#DejaVuSans-98"/>
     <use x="1361.267578" xlink:href="#DejaVuSans-101"/>
     <use x="1422.791016" xlink:href="#DejaVuSans-115"/>
     <use x="1474.890625" xlink:href="#DejaVuSans-116"/>
     <use x="1514.099609" xlink:href="#DejaVuSans-32"/>
     <use x="1545.886719" xlink:href="#DejaVuSans-102"/>
     <use x="1581.091797" xlink:href="#DejaVuSans-105"/>
     <use x="1608.875" xlink:href="#DejaVuSans-116"/>
     <use x="1648.083984" xlink:href="#DejaVuSans-110"/>
     <use x="1711.462891" xlink:href="#DejaVuSans-101"/>
     <use x="1772.986328" xlink:href="#DejaVuSans-115"/>
     <use x="1825.085938" xlink:href="#DejaVuSans-115"/>
    </g>
   </g>
   <g id="legend_1">
    <g id="patch_7">
     <path d="M 334.779375 78.82825 
L 407.72 78.82825 
Q 409.72 78.82825 409.72 76.82825 
L 409.72 48.472 
Q 409.72 46.472 407.72 46.472 
L 334.779375 46.472 
Q 332.779375 46.472 332.779375 48.472 
L 332.779375 76.82825 
Q 332.779375 78.82825 334.779375 78.82825 
z
" style="fill:#ffffff;opacity:0.8;stroke:#cccccc;stroke-linejoin:miter;"/>
    </g>
    <g id="line2d_17">
     <path d="M 336.779375 54.570437 
L 356.779375 54.570437 
" style="fill:none;stroke:#0000ff;stroke-linecap:square;stroke-width:1.5;"/>
    </g>
    <g id="line2d_18"/>
    <g id="text_11">
     <!-- average -->
     <g transform="translate(364.779375 58.070437)scale(0.1 -0.1)">
      <use xlink:href="#DejaVuSans-97"/>
      <use x="61.279297" xlink:href="#DejaVuSans-118"/>
      <use x="120.458984" xlink:href="#DejaVuSans-101"/>
      <use x="181.982422" xlink:href="#DejaVuSans-114"/>
      <use x="223.095703" xlink:href="#DejaVuSans-97"/>
      <use x="284.375" xlink:href="#DejaVuSans-103"/>
      <use x="347.851562" xlink:href="#DejaVuSans-101"/>
     </g>
    </g>
    <g id="line2d_19">
     <path d="M 336.779375 69.248562 
L 356.779375 69.248562 
" style="fill:none;stroke:#ff0000;stroke-linecap:square;stroke-width:1.5;"/>
    </g>
    <g id="line2d_20"/>
    <g id="text_12">
     <!-- best -->
     <g transform="translate(364.779375 72.748562)scale(0.1 -0.1)">
      <use xlink:href="#DejaVuSans-98"/>
      <use x="63.476562" xlink:href="#DejaVuSans-101"/>
      <use x="125" xlink:href="#DejaVuSans-115"/>
      <use x="177.099609" xlink:href="#DejaVuSans-116"/>
     </g>
    </g>
   </g>
  </g>
 </g>
 <defs>
  <clipPath id="pc20cb35252">
   <rect height="266.112" width="357.12" x="57.6" y="41.472"/>
  </clipPath>
 </defs>
</svg>
