<?xml version="1.0" encoding="utf-8" standalone="no"?>
<!DOCTYPE svg PUBLIC "-//W3C//DTD SVG 1.1//EN"
  "http://www.w3.org/Graphics/SVG/1.1/DTD/svg11.dtd">
<!-- Created with matplotlib (https://matplotlib.org/) -->
<svg height="345.6pt" version="1.1" viewBox="0 0 460.8 345.6" width="460.8pt" xmlns="http://www.w3.org/2000/svg" xmlns:xlink="http://www.w3.org/1999/xlink">
 <metadata>
  <rdf:RDF xmlns:cc="http://creativecommons.org/ns#" xmlns:dc="http://purl.org/dc/elements/1.1/" xmlns:rdf="http://www.w3.org/1999/02/22-rdf-syntax-ns#">
   <cc:Work>
    <dc:type rdf:resource="http://purl.org/dc/dcmitype/StillImage"/>
    <dc:date>2021-02-23T22:12:33.318348</dc:date>
    <dc:format>image/svg+xml</dc:format>
    <dc:creator>
     <cc:Agent>
      <dc:title>Matplotlib v3.3.4, https://matplotlib.org/</dc:title>
     </cc:Agent>
    </dc:creator>
   </cc:Work>
  </rdf:RDF>
 </metadata>
 <defs>
  <style type="text/css">*{stroke-linecap:butt;stroke-linejoin:round;}</style>
 </defs>
 <g id="figure_1">
  <g id="patch_1">
   <path d="M 0 345.6 
L 460.8 345.6 
L 460.8 0 
L 0 0 
z
" style="fill:#ffffff;"/>
  </g>
  <g id="axes_1">
   <g id="patch_2">
    <path d="M 57.6 307.584 
L 414.72 307.584 
L 414.72 41.472 
L 57.6 41.472 
z
" style="fill:#ffffff;"/>
   </g>
   <g id="matplotlib.axis_1">
    <g id="xtick_1">
     <g id="line2d_1">
      <path clip-path="url(#p298e0df7a1)" d="M 73.832727 307.584 
L 73.832727 41.472 
" style="fill:none;stroke:#b0b0b0;stroke-linecap:square;stroke-width:0.8;"/>
     </g>
     <g id="line2d_2">
      <defs>
       <path d="M 0 0 
L 0 3.5 
" id="md959d71eea" style="stroke:#000000;stroke-width:0.8;"/>
      </defs>
      <g>
       <use style="stroke:#000000;stroke-width:0.8;" x="73.832727" xlink:href="#md959d71eea" y="307.584"/>
      </g>
     </g>
     <g id="text_1">
      <!-- 0 -->
      <g transform="translate(70.651477 322.182437)scale(0.1 -0.1)">
       <defs>
        <path d="M 31.78125 66.40625 
Q 24.171875 66.40625 20.328125 58.90625 
Q 16.5 51.421875 16.5 36.375 
Q 16.5 21.390625 20.328125 13.890625 
Q 24.171875 6.390625 31.78125 6.390625 
Q 39.453125 6.390625 43.28125 13.890625 
Q 47.125 21.390625 47.125 36.375 
Q 47.125 51.421875 43.28125 58.90625 
Q 39.453125 66.40625 31.78125 66.40625 
z
M 31.78125 74.21875 
Q 44.046875 74.21875 50.515625 64.515625 
Q 56.984375 54.828125 56.984375 36.375 
Q 56.984375 17.96875 50.515625 8.265625 
Q 44.046875 -1.421875 31.78125 -1.421875 
Q 19.53125 -1.421875 13.0625 8.265625 
Q 6.59375 17.96875 6.59375 36.375 
Q 6.59375 54.828125 13.0625 64.515625 
Q 19.53125 74.21875 31.78125 74.21875 
z
" id="DejaVuSans-48"/>
       </defs>
       <use xlink:href="#DejaVuSans-48"/>
      </g>
     </g>
    </g>
    <g id="xtick_2">
     <g id="line2d_3">
      <path clip-path="url(#p298e0df7a1)" d="M 123.85654 307.584 
L 123.85654 41.472 
" style="fill:none;stroke:#b0b0b0;stroke-linecap:square;stroke-width:0.8;"/>
     </g>
     <g id="line2d_4">
      <g>
       <use style="stroke:#000000;stroke-width:0.8;" x="123.85654" xlink:href="#md959d71eea" y="307.584"/>
      </g>
     </g>
     <g id="text_2">
      <!-- 100 -->
      <g transform="translate(114.31279 322.182437)scale(0.1 -0.1)">
       <defs>
        <path d="M 12.40625 8.296875 
L 28.515625 8.296875 
L 28.515625 63.921875 
L 10.984375 60.40625 
L 10.984375 69.390625 
L 28.421875 72.90625 
L 38.28125 72.90625 
L 38.28125 8.296875 
L 54.390625 8.296875 
L 54.390625 0 
L 12.40625 0 
z
" id="DejaVuSans-49"/>
       </defs>
       <use xlink:href="#DejaVuSans-49"/>
       <use x="63.623047" xlink:href="#DejaVuSans-48"/>
       <use x="127.246094" xlink:href="#DejaVuSans-48"/>
      </g>
     </g>
    </g>
    <g id="xtick_3">
     <g id="line2d_5">
      <path clip-path="url(#p298e0df7a1)" d="M 173.880353 307.584 
L 173.880353 41.472 
" style="fill:none;stroke:#b0b0b0;stroke-linecap:square;stroke-width:0.8;"/>
     </g>
     <g id="line2d_6">
      <g>
       <use style="stroke:#000000;stroke-width:0.8;" x="173.880353" xlink:href="#md959d71eea" y="307.584"/>
      </g>
     </g>
     <g id="text_3">
      <!-- 200 -->
      <g transform="translate(164.336603 322.182437)scale(0.1 -0.1)">
       <defs>
        <path d="M 19.1875 8.296875 
L 53.609375 8.296875 
L 53.609375 0 
L 7.328125 0 
L 7.328125 8.296875 
Q 12.9375 14.109375 22.625 23.890625 
Q 32.328125 33.6875 34.8125 36.53125 
Q 39.546875 41.84375 41.421875 45.53125 
Q 43.3125 49.21875 43.3125 52.78125 
Q 43.3125 58.59375 39.234375 62.25 
Q 35.15625 65.921875 28.609375 65.921875 
Q 23.96875 65.921875 18.8125 64.3125 
Q 13.671875 62.703125 7.8125 59.421875 
L 7.8125 69.390625 
Q 13.765625 71.78125 18.9375 73 
Q 24.125 74.21875 28.421875 74.21875 
Q 39.75 74.21875 46.484375 68.546875 
Q 53.21875 62.890625 53.21875 53.421875 
Q 53.21875 48.921875 51.53125 44.890625 
Q 49.859375 40.875 45.40625 35.40625 
Q 44.1875 33.984375 37.640625 27.21875 
Q 31.109375 20.453125 19.1875 8.296875 
z
" id="DejaVuSans-50"/>
       </defs>
       <use xlink:href="#DejaVuSans-50"/>
       <use x="63.623047" xlink:href="#DejaVuSans-48"/>
       <use x="127.246094" xlink:href="#DejaVuSans-48"/>
      </g>
     </g>
    </g>
    <g id="xtick_4">
     <g id="line2d_7">
      <path clip-path="url(#p298e0df7a1)" d="M 223.904166 307.584 
L 223.904166 41.472 
" style="fill:none;stroke:#b0b0b0;stroke-linecap:square;stroke-width:0.8;"/>
     </g>
     <g id="line2d_8">
      <g>
       <use style="stroke:#000000;stroke-width:0.8;" x="223.904166" xlink:href="#md959d71eea" y="307.584"/>
      </g>
     </g>
     <g id="text_4">
      <!-- 300 -->
      <g transform="translate(214.360416 322.182437)scale(0.1 -0.1)">
       <defs>
        <path d="M 40.578125 39.3125 
Q 47.65625 37.796875 51.625 33 
Q 55.609375 28.21875 55.609375 21.1875 
Q 55.609375 10.40625 48.1875 4.484375 
Q 40.765625 -1.421875 27.09375 -1.421875 
Q 22.515625 -1.421875 17.65625 -0.515625 
Q 12.796875 0.390625 7.625 2.203125 
L 7.625 11.71875 
Q 11.71875 9.328125 16.59375 8.109375 
Q 21.484375 6.890625 26.8125 6.890625 
Q 36.078125 6.890625 40.9375 10.546875 
Q 45.796875 14.203125 45.796875 21.1875 
Q 45.796875 27.640625 41.28125 31.265625 
Q 36.765625 34.90625 28.71875 34.90625 
L 20.21875 34.90625 
L 20.21875 43.015625 
L 29.109375 43.015625 
Q 36.375 43.015625 40.234375 45.921875 
Q 44.09375 48.828125 44.09375 54.296875 
Q 44.09375 59.90625 40.109375 62.90625 
Q 36.140625 65.921875 28.71875 65.921875 
Q 24.65625 65.921875 20.015625 65.03125 
Q 15.375 64.15625 9.8125 62.3125 
L 9.8125 71.09375 
Q 15.4375 72.65625 20.34375 73.4375 
Q 25.25 74.21875 29.59375 74.21875 
Q 40.828125 74.21875 47.359375 69.109375 
Q 53.90625 64.015625 53.90625 55.328125 
Q 53.90625 49.265625 50.4375 45.09375 
Q 46.96875 40.921875 40.578125 39.3125 
z
" id="DejaVuSans-51"/>
       </defs>
       <use xlink:href="#DejaVuSans-51"/>
       <use x="63.623047" xlink:href="#DejaVuSans-48"/>
       <use x="127.246094" xlink:href="#DejaVuSans-48"/>
      </g>
     </g>
    </g>
    <g id="xtick_5">
     <g id="line2d_9">
      <path clip-path="url(#p298e0df7a1)" d="M 273.927979 307.584 
L 273.927979 41.472 
" style="fill:none;stroke:#b0b0b0;stroke-linecap:square;stroke-width:0.8;"/>
     </g>
     <g id="line2d_10">
      <g>
       <use style="stroke:#000000;stroke-width:0.8;" x="273.927979" xlink:href="#md959d71eea" y="307.584"/>
      </g>
     </g>
     <g id="text_5">
      <!-- 400 -->
      <g transform="translate(264.384229 322.182437)scale(0.1 -0.1)">
       <defs>
        <path d="M 37.796875 64.3125 
L 12.890625 25.390625 
L 37.796875 25.390625 
z
M 35.203125 72.90625 
L 47.609375 72.90625 
L 47.609375 25.390625 
L 58.015625 25.390625 
L 58.015625 17.1875 
L 47.609375 17.1875 
L 47.609375 0 
L 37.796875 0 
L 37.796875 17.1875 
L 4.890625 17.1875 
L 4.890625 26.703125 
z
" id="DejaVuSans-52"/>
       </defs>
       <use xlink:href="#DejaVuSans-52"/>
       <use x="63.623047" xlink:href="#DejaVuSans-48"/>
       <use x="127.246094" xlink:href="#DejaVuSans-48"/>
      </g>
     </g>
    </g>
    <g id="xtick_6">
     <g id="line2d_11">
      <path clip-path="url(#p298e0df7a1)" d="M 323.951792 307.584 
L 323.951792 41.472 
" style="fill:none;stroke:#b0b0b0;stroke-linecap:square;stroke-width:0.8;"/>
     </g>
     <g id="line2d_12">
      <g>
       <use style="stroke:#000000;stroke-width:0.8;" x="323.951792" xlink:href="#md959d71eea" y="307.584"/>
      </g>
     </g>
     <g id="text_6">
      <!-- 500 -->
      <g transform="translate(314.408042 322.182437)scale(0.1 -0.1)">
       <defs>
        <path d="M 10.796875 72.90625 
L 49.515625 72.90625 
L 49.515625 64.59375 
L 19.828125 64.59375 
L 19.828125 46.734375 
Q 21.96875 47.46875 24.109375 47.828125 
Q 26.265625 48.1875 28.421875 48.1875 
Q 40.625 48.1875 47.75 41.5 
Q 54.890625 34.8125 54.890625 23.390625 
Q 54.890625 11.625 47.5625 5.09375 
Q 40.234375 -1.421875 26.90625 -1.421875 
Q 22.3125 -1.421875 17.546875 -0.640625 
Q 12.796875 0.140625 7.71875 1.703125 
L 7.71875 11.625 
Q 12.109375 9.234375 16.796875 8.0625 
Q 21.484375 6.890625 26.703125 6.890625 
Q 35.15625 6.890625 40.078125 11.328125 
Q 45.015625 15.765625 45.015625 23.390625 
Q 45.015625 31 40.078125 35.4375 
Q 35.15625 39.890625 26.703125 39.890625 
Q 22.75 39.890625 18.8125 39.015625 
Q 14.890625 38.140625 10.796875 36.28125 
z
" id="DejaVuSans-53"/>
       </defs>
       <use xlink:href="#DejaVuSans-53"/>
       <use x="63.623047" xlink:href="#DejaVuSans-48"/>
       <use x="127.246094" xlink:href="#DejaVuSans-48"/>
      </g>
     </g>
    </g>
    <g id="xtick_7">
     <g id="line2d_13">
      <path clip-path="url(#p298e0df7a1)" d="M 373.975604 307.584 
L 373.975604 41.472 
" style="fill:none;stroke:#b0b0b0;stroke-linecap:square;stroke-width:0.8;"/>
     </g>
     <g id="line2d_14">
      <g>
       <use style="stroke:#000000;stroke-width:0.8;" x="373.975604" xlink:href="#md959d71eea" y="307.584"/>
      </g>
     </g>
     <g id="text_7">
      <!-- 600 -->
      <g transform="translate(364.431854 322.182437)scale(0.1 -0.1)">
       <defs>
        <path d="M 33.015625 40.375 
Q 26.375 40.375 22.484375 35.828125 
Q 18.609375 31.296875 18.609375 23.390625 
Q 18.609375 15.53125 22.484375 10.953125 
Q 26.375 6.390625 33.015625 6.390625 
Q 39.65625 6.390625 43.53125 10.953125 
Q 47.40625 15.53125 47.40625 23.390625 
Q 47.40625 31.296875 43.53125 35.828125 
Q 39.65625 40.375 33.015625 40.375 
z
M 52.59375 71.296875 
L 52.59375 62.3125 
Q 48.875 64.0625 45.09375 64.984375 
Q 41.3125 65.921875 37.59375 65.921875 
Q 27.828125 65.921875 22.671875 59.328125 
Q 17.53125 52.734375 16.796875 39.40625 
Q 19.671875 43.65625 24.015625 45.921875 
Q 28.375 48.1875 33.59375 48.1875 
Q 44.578125 48.1875 50.953125 41.515625 
Q 57.328125 34.859375 57.328125 23.390625 
Q 57.328125 12.15625 50.6875 5.359375 
Q 44.046875 -1.421875 33.015625 -1.421875 
Q 20.359375 -1.421875 13.671875 8.265625 
Q 6.984375 17.96875 6.984375 36.375 
Q 6.984375 53.65625 15.1875 63.9375 
Q 23.390625 74.21875 37.203125 74.21875 
Q 40.921875 74.21875 44.703125 73.484375 
Q 48.484375 72.75 52.59375 71.296875 
z
" id="DejaVuSans-54"/>
       </defs>
       <use xlink:href="#DejaVuSans-54"/>
       <use x="63.623047" xlink:href="#DejaVuSans-48"/>
       <use x="127.246094" xlink:href="#DejaVuSans-48"/>
      </g>
     </g>
    </g>
    <g id="text_8">
     <!-- Generations -->
     <g transform="translate(205.662344 335.860562)scale(0.1 -0.1)">
      <defs>
       <path d="M 59.515625 10.40625 
L 59.515625 29.984375 
L 43.40625 29.984375 
L 43.40625 38.09375 
L 69.28125 38.09375 
L 69.28125 6.78125 
Q 63.578125 2.734375 56.6875 0.65625 
Q 49.8125 -1.421875 42 -1.421875 
Q 24.90625 -1.421875 15.25 8.5625 
Q 5.609375 18.5625 5.609375 36.375 
Q 5.609375 54.25 15.25 64.234375 
Q 24.90625 74.21875 42 74.21875 
Q 49.125 74.21875 55.546875 72.453125 
Q 61.96875 70.703125 67.390625 67.28125 
L 67.390625 56.78125 
Q 61.921875 61.421875 55.765625 63.765625 
Q 49.609375 66.109375 42.828125 66.109375 
Q 29.4375 66.109375 22.71875 58.640625 
Q 16.015625 51.171875 16.015625 36.375 
Q 16.015625 21.625 22.71875 14.15625 
Q 29.4375 6.6875 42.828125 6.6875 
Q 48.046875 6.6875 52.140625 7.59375 
Q 56.25 8.5 59.515625 10.40625 
z
" id="DejaVuSans-71"/>
       <path d="M 56.203125 29.59375 
L 56.203125 25.203125 
L 14.890625 25.203125 
Q 15.484375 15.921875 20.484375 11.0625 
Q 25.484375 6.203125 34.421875 6.203125 
Q 39.59375 6.203125 44.453125 7.46875 
Q 49.3125 8.734375 54.109375 11.28125 
L 54.109375 2.78125 
Q 49.265625 0.734375 44.1875 -0.34375 
Q 39.109375 -1.421875 33.890625 -1.421875 
Q 20.796875 -1.421875 13.15625 6.1875 
Q 5.515625 13.8125 5.515625 26.8125 
Q 5.515625 40.234375 12.765625 48.109375 
Q 20.015625 56 32.328125 56 
Q 43.359375 56 49.78125 48.890625 
Q 56.203125 41.796875 56.203125 29.59375 
z
M 47.21875 32.234375 
Q 47.125 39.59375 43.09375 43.984375 
Q 39.0625 48.390625 32.421875 48.390625 
Q 24.90625 48.390625 20.390625 44.140625 
Q 15.875 39.890625 15.1875 32.171875 
z
" id="DejaVuSans-101"/>
       <path d="M 54.890625 33.015625 
L 54.890625 0 
L 45.90625 0 
L 45.90625 32.71875 
Q 45.90625 40.484375 42.875 44.328125 
Q 39.84375 48.1875 33.796875 48.1875 
Q 26.515625 48.1875 22.3125 43.546875 
Q 18.109375 38.921875 18.109375 30.90625 
L 18.109375 0 
L 9.078125 0 
L 9.078125 54.6875 
L 18.109375 54.6875 
L 18.109375 46.1875 
Q 21.34375 51.125 25.703125 53.5625 
Q 30.078125 56 35.796875 56 
Q 45.21875 56 50.046875 50.171875 
Q 54.890625 44.34375 54.890625 33.015625 
z
" id="DejaVuSans-110"/>
       <path d="M 41.109375 46.296875 
Q 39.59375 47.171875 37.8125 47.578125 
Q 36.03125 48 33.890625 48 
Q 26.265625 48 22.1875 43.046875 
Q 18.109375 38.09375 18.109375 28.8125 
L 18.109375 0 
L 9.078125 0 
L 9.078125 54.6875 
L 18.109375 54.6875 
L 18.109375 46.1875 
Q 20.953125 51.171875 25.484375 53.578125 
Q 30.03125 56 36.53125 56 
Q 37.453125 56 38.578125 55.875 
Q 39.703125 55.765625 41.0625 55.515625 
z
" id="DejaVuSans-114"/>
       <path d="M 34.28125 27.484375 
Q 23.390625 27.484375 19.1875 25 
Q 14.984375 22.515625 14.984375 16.5 
Q 14.984375 11.71875 18.140625 8.90625 
Q 21.296875 6.109375 26.703125 6.109375 
Q 34.1875 6.109375 38.703125 11.40625 
Q 43.21875 16.703125 43.21875 25.484375 
L 43.21875 27.484375 
z
M 52.203125 31.203125 
L 52.203125 0 
L 43.21875 0 
L 43.21875 8.296875 
Q 40.140625 3.328125 35.546875 0.953125 
Q 30.953125 -1.421875 24.3125 -1.421875 
Q 15.921875 -1.421875 10.953125 3.296875 
Q 6 8.015625 6 15.921875 
Q 6 25.140625 12.171875 29.828125 
Q 18.359375 34.515625 30.609375 34.515625 
L 43.21875 34.515625 
L 43.21875 35.40625 
Q 43.21875 41.609375 39.140625 45 
Q 35.0625 48.390625 27.6875 48.390625 
Q 23 48.390625 18.546875 47.265625 
Q 14.109375 46.140625 10.015625 43.890625 
L 10.015625 52.203125 
Q 14.9375 54.109375 19.578125 55.046875 
Q 24.21875 56 28.609375 56 
Q 40.484375 56 46.34375 49.84375 
Q 52.203125 43.703125 52.203125 31.203125 
z
" id="DejaVuSans-97"/>
       <path d="M 18.3125 70.21875 
L 18.3125 54.6875 
L 36.8125 54.6875 
L 36.8125 47.703125 
L 18.3125 47.703125 
L 18.3125 18.015625 
Q 18.3125 11.328125 20.140625 9.421875 
Q 21.96875 7.515625 27.59375 7.515625 
L 36.8125 7.515625 
L 36.8125 0 
L 27.59375 0 
Q 17.1875 0 13.234375 3.875 
Q 9.28125 7.765625 9.28125 18.015625 
L 9.28125 47.703125 
L 2.6875 47.703125 
L 2.6875 54.6875 
L 9.28125 54.6875 
L 9.28125 70.21875 
z
" id="DejaVuSans-116"/>
       <path d="M 9.421875 54.6875 
L 18.40625 54.6875 
L 18.40625 0 
L 9.421875 0 
z
M 9.421875 75.984375 
L 18.40625 75.984375 
L 18.40625 64.59375 
L 9.421875 64.59375 
z
" id="DejaVuSans-105"/>
       <path d="M 30.609375 48.390625 
Q 23.390625 48.390625 19.1875 42.75 
Q 14.984375 37.109375 14.984375 27.296875 
Q 14.984375 17.484375 19.15625 11.84375 
Q 23.34375 6.203125 30.609375 6.203125 
Q 37.796875 6.203125 41.984375 11.859375 
Q 46.1875 17.53125 46.1875 27.296875 
Q 46.1875 37.015625 41.984375 42.703125 
Q 37.796875 48.390625 30.609375 48.390625 
z
M 30.609375 56 
Q 42.328125 56 49.015625 48.375 
Q 55.71875 40.765625 55.71875 27.296875 
Q 55.71875 13.875 49.015625 6.21875 
Q 42.328125 -1.421875 30.609375 -1.421875 
Q 18.84375 -1.421875 12.171875 6.21875 
Q 5.515625 13.875 5.515625 27.296875 
Q 5.515625 40.765625 12.171875 48.375 
Q 18.84375 56 30.609375 56 
z
" id="DejaVuSans-111"/>
       <path d="M 44.28125 53.078125 
L 44.28125 44.578125 
Q 40.484375 46.53125 36.375 47.5 
Q 32.28125 48.484375 27.875 48.484375 
Q 21.1875 48.484375 17.84375 46.4375 
Q 14.5 44.390625 14.5 40.28125 
Q 14.5 37.15625 16.890625 35.375 
Q 19.28125 33.59375 26.515625 31.984375 
L 29.59375 31.296875 
Q 39.15625 29.25 43.1875 25.515625 
Q 47.21875 21.78125 47.21875 15.09375 
Q 47.21875 7.46875 41.1875 3.015625 
Q 35.15625 -1.421875 24.609375 -1.421875 
Q 20.21875 -1.421875 15.453125 -0.5625 
Q 10.6875 0.296875 5.421875 2 
L 5.421875 11.28125 
Q 10.40625 8.6875 15.234375 7.390625 
Q 20.0625 6.109375 24.8125 6.109375 
Q 31.15625 6.109375 34.5625 8.28125 
Q 37.984375 10.453125 37.984375 14.40625 
Q 37.984375 18.0625 35.515625 20.015625 
Q 33.0625 21.96875 24.703125 23.78125 
L 21.578125 24.515625 
Q 13.234375 26.265625 9.515625 29.90625 
Q 5.8125 33.546875 5.8125 39.890625 
Q 5.8125 47.609375 11.28125 51.796875 
Q 16.75 56 26.8125 56 
Q 31.78125 56 36.171875 55.265625 
Q 40.578125 54.546875 44.28125 53.078125 
z
" id="DejaVuSans-115"/>
      </defs>
      <use xlink:href="#DejaVuSans-71"/>
      <use x="77.490234" xlink:href="#DejaVuSans-101"/>
      <use x="139.013672" xlink:href="#DejaVuSans-110"/>
      <use x="202.392578" xlink:href="#DejaVuSans-101"/>
      <use x="263.916016" xlink:href="#DejaVuSans-114"/>
      <use x="305.029297" xlink:href="#DejaVuSans-97"/>
      <use x="366.308594" xlink:href="#DejaVuSans-116"/>
      <use x="405.517578" xlink:href="#DejaVuSans-105"/>
      <use x="433.300781" xlink:href="#DejaVuSans-111"/>
      <use x="494.482422" xlink:href="#DejaVuSans-110"/>
      <use x="557.861328" xlink:href="#DejaVuSans-115"/>
     </g>
    </g>
   </g>
   <g id="matplotlib.axis_2">
    <g id="ytick_1">
     <g id="line2d_15">
      <path clip-path="url(#p298e0df7a1)" d="M 57.6 299.00036 
L 414.72 299.00036 
" style="fill:none;stroke:#b0b0b0;stroke-linecap:square;stroke-width:0.8;"/>
     </g>
     <g id="line2d_16">
      <defs>
       <path d="M 0 0 
L -3.5 0 
" id="m7dc12d64fb" style="stroke:#000000;stroke-width:0.8;"/>
      </defs>
      <g>
       <use style="stroke:#000000;stroke-width:0.8;" x="57.6" xlink:href="#m7dc12d64fb" y="299.00036"/>
      </g>
     </g>
     <g id="text_9">
      <!-- $\mathdefault{-10^{4}}$ -->
      <g transform="translate(24.6 302.799579)scale(0.1 -0.1)">
       <defs>
        <path d="M 10.59375 35.5 
L 73.1875 35.5 
L 73.1875 27.203125 
L 10.59375 27.203125 
z
" id="DejaVuSans-8722"/>
       </defs>
       <use transform="translate(0 0.684375)" xlink:href="#DejaVuSans-8722"/>
       <use transform="translate(83.789062 0.684375)" xlink:href="#DejaVuSans-49"/>
       <use transform="translate(147.412109 0.684375)" xlink:href="#DejaVuSans-48"/>
       <use transform="translate(211.992188 38.965625)scale(0.7)" xlink:href="#DejaVuSans-52"/>
      </g>
     </g>
    </g>
    <g id="ytick_2">
     <g id="line2d_17">
      <path clip-path="url(#p298e0df7a1)" d="M 57.6 265.830852 
L 414.72 265.830852 
" style="fill:none;stroke:#b0b0b0;stroke-linecap:square;stroke-width:0.8;"/>
     </g>
     <g id="line2d_18">
      <g>
       <use style="stroke:#000000;stroke-width:0.8;" x="57.6" xlink:href="#m7dc12d64fb" y="265.830852"/>
      </g>
     </g>
     <g id="text_10">
      <!-- $\mathdefault{-10^{3}}$ -->
      <g transform="translate(24.6 269.630071)scale(0.1 -0.1)">
       <use transform="translate(0 0.765625)" xlink:href="#DejaVuSans-8722"/>
       <use transform="translate(83.789062 0.765625)" xlink:href="#DejaVuSans-49"/>
       <use transform="translate(147.412109 0.765625)" xlink:href="#DejaVuSans-48"/>
       <use transform="translate(211.992188 39.046875)scale(0.7)" xlink:href="#DejaVuSans-51"/>
      </g>
     </g>
    </g>
    <g id="ytick_3">
     <g id="line2d_19">
      <path clip-path="url(#p298e0df7a1)" d="M 57.6 232.661344 
L 414.72 232.661344 
" style="fill:none;stroke:#b0b0b0;stroke-linecap:square;stroke-width:0.8;"/>
     </g>
     <g id="line2d_20">
      <g>
       <use style="stroke:#000000;stroke-width:0.8;" x="57.6" xlink:href="#m7dc12d64fb" y="232.661344"/>
      </g>
     </g>
     <g id="text_11">
      <!-- $\mathdefault{-10^{2}}$ -->
      <g transform="translate(24.6 236.460563)scale(0.1 -0.1)">
       <use transform="translate(0 0.765625)" xlink:href="#DejaVuSans-8722"/>
       <use transform="translate(83.789062 0.765625)" xlink:href="#DejaVuSans-49"/>
       <use transform="translate(147.412109 0.765625)" xlink:href="#DejaVuSans-48"/>
       <use transform="translate(211.992188 39.046875)scale(0.7)" xlink:href="#DejaVuSans-50"/>
      </g>
     </g>
    </g>
    <g id="ytick_4">
     <g id="line2d_21">
      <path clip-path="url(#p298e0df7a1)" d="M 57.6 199.491836 
L 414.72 199.491836 
" style="fill:none;stroke:#b0b0b0;stroke-linecap:square;stroke-width:0.8;"/>
     </g>
     <g id="line2d_22">
      <g>
       <use style="stroke:#000000;stroke-width:0.8;" x="57.6" xlink:href="#m7dc12d64fb" y="199.491836"/>
      </g>
     </g>
     <g id="text_12">
      <!-- $\mathdefault{-10^{1}}$ -->
      <g transform="translate(24.6 203.291055)scale(0.1 -0.1)">
       <use transform="translate(0 0.684375)" xlink:href="#DejaVuSans-8722"/>
       <use transform="translate(83.789062 0.684375)" xlink:href="#DejaVuSans-49"/>
       <use transform="translate(147.412109 0.684375)" xlink:href="#DejaVuSans-48"/>
       <use transform="translate(211.992188 38.965625)scale(0.7)" xlink:href="#DejaVuSans-49"/>
      </g>
     </g>
    </g>
    <g id="ytick_5">
     <g id="line2d_23">
      <path clip-path="url(#p298e0df7a1)" d="M 57.6 157.879841 
L 414.72 157.879841 
" style="fill:none;stroke:#b0b0b0;stroke-linecap:square;stroke-width:0.8;"/>
     </g>
     <g id="line2d_24">
      <g>
       <use style="stroke:#000000;stroke-width:0.8;" x="57.6" xlink:href="#m7dc12d64fb" y="157.879841"/>
      </g>
     </g>
     <g id="text_13">
      <!-- $\mathdefault{-10^{0}}$ -->
      <g transform="translate(24.6 161.67906)scale(0.1 -0.1)">
       <use transform="translate(0 0.765625)" xlink:href="#DejaVuSans-8722"/>
       <use transform="translate(83.789062 0.765625)" xlink:href="#DejaVuSans-49"/>
       <use transform="translate(147.412109 0.765625)" xlink:href="#DejaVuSans-48"/>
       <use transform="translate(211.992188 39.046875)scale(0.7)" xlink:href="#DejaVuSans-48"/>
      </g>
     </g>
    </g>
    <g id="ytick_6">
     <g id="line2d_25">
      <path clip-path="url(#p298e0df7a1)" d="M 57.6 139.452337 
L 414.72 139.452337 
" style="fill:none;stroke:#b0b0b0;stroke-linecap:square;stroke-width:0.8;"/>
     </g>
     <g id="line2d_26">
      <g>
       <use style="stroke:#000000;stroke-width:0.8;" x="57.6" xlink:href="#m7dc12d64fb" y="139.452337"/>
      </g>
     </g>
     <g id="text_14">
      <!-- $\mathdefault{0}$ -->
      <g transform="translate(44.2 143.251555)scale(0.1 -0.1)">
       <use transform="translate(0 0.78125)" xlink:href="#DejaVuSans-48"/>
      </g>
     </g>
    </g>
    <g id="ytick_7">
     <g id="line2d_27">
      <path clip-path="url(#p298e0df7a1)" d="M 57.6 121.024832 
L 414.72 121.024832 
" style="fill:none;stroke:#b0b0b0;stroke-linecap:square;stroke-width:0.8;"/>
     </g>
     <g id="line2d_28">
      <g>
       <use style="stroke:#000000;stroke-width:0.8;" x="57.6" xlink:href="#m7dc12d64fb" y="121.024832"/>
      </g>
     </g>
     <g id="text_15">
      <!-- $\mathdefault{10^{0}}$ -->
      <g transform="translate(33 124.824051)scale(0.1 -0.1)">
       <use transform="translate(0 0.765625)" xlink:href="#DejaVuSans-49"/>
       <use transform="translate(63.623047 0.765625)" xlink:href="#DejaVuSans-48"/>
       <use transform="translate(128.203125 39.046875)scale(0.7)" xlink:href="#DejaVuSans-48"/>
      </g>
     </g>
    </g>
    <g id="ytick_8">
     <g id="line2d_29">
      <path clip-path="url(#p298e0df7a1)" d="M 57.6 79.412837 
L 414.72 79.412837 
" style="fill:none;stroke:#b0b0b0;stroke-linecap:square;stroke-width:0.8;"/>
     </g>
     <g id="line2d_30">
      <g>
       <use style="stroke:#000000;stroke-width:0.8;" x="57.6" xlink:href="#m7dc12d64fb" y="79.412837"/>
      </g>
     </g>
     <g id="text_16">
      <!-- $\mathdefault{10^{1}}$ -->
      <g transform="translate(33 83.212056)scale(0.1 -0.1)">
       <use transform="translate(0 0.684375)" xlink:href="#DejaVuSans-49"/>
       <use transform="translate(63.623047 0.684375)" xlink:href="#DejaVuSans-48"/>
       <use transform="translate(128.203125 38.965625)scale(0.7)" xlink:href="#DejaVuSans-49"/>
      </g>
     </g>
    </g>
    <g id="ytick_9">
     <g id="line2d_31">
      <path clip-path="url(#p298e0df7a1)" d="M 57.6 46.243329 
L 414.72 46.243329 
" style="fill:none;stroke:#b0b0b0;stroke-linecap:square;stroke-width:0.8;"/>
     </g>
     <g id="line2d_32">
      <g>
       <use style="stroke:#000000;stroke-width:0.8;" x="57.6" xlink:href="#m7dc12d64fb" y="46.243329"/>
      </g>
     </g>
     <g id="text_17">
      <!-- $\mathdefault{10^{2}}$ -->
      <g transform="translate(33 50.042548)scale(0.1 -0.1)">
       <use transform="translate(0 0.765625)" xlink:href="#DejaVuSans-49"/>
       <use transform="translate(63.623047 0.765625)" xlink:href="#DejaVuSans-48"/>
       <use transform="translate(128.203125 39.046875)scale(0.7)" xlink:href="#DejaVuSans-50"/>
      </g>
     </g>
    </g>
    <g id="text_18">
     <!-- Fitness -->
     <g transform="translate(18.520312 191.845187)rotate(-90)scale(0.1 -0.1)">
      <defs>
       <path d="M 9.8125 72.90625 
L 51.703125 72.90625 
L 51.703125 64.59375 
L 19.671875 64.59375 
L 19.671875 43.109375 
L 48.578125 43.109375 
L 48.578125 34.8125 
L 19.671875 34.8125 
L 19.671875 0 
L 9.8125 0 
z
" id="DejaVuSans-70"/>
      </defs>
      <use xlink:href="#DejaVuSans-70"/>
      <use x="50.269531" xlink:href="#DejaVuSans-105"/>
      <use x="78.052734" xlink:href="#DejaVuSans-116"/>
      <use x="117.261719" xlink:href="#DejaVuSans-110"/>
      <use x="180.640625" xlink:href="#DejaVuSans-101"/>
      <use x="242.164062" xlink:href="#DejaVuSans-115"/>
      <use x="294.263672" xlink:href="#DejaVuSans-115"/>
     </g>
    </g>
   </g>
   <g id="line2d_33">
    <path clip-path="url(#p298e0df7a1)" d="M 73.832727 295.488 
L 74.332965 291.242294 
L 74.833204 288.605929 
L 75.333442 289.474709 
L 76.333918 285.1197 
L 76.834156 287.472906 
L 77.334394 286.389427 
L 77.834632 284.067882 
L 78.33487 285.392828 
L 78.835109 282.041811 
L 79.335347 284.508308 
L 79.835585 282.593638 
L 80.335823 281.581495 
L 81.336299 281.881858 
L 81.836537 283.541488 
L 82.336775 281.936851 
L 82.837014 282.677838 
L 83.337252 283.186707 
L 83.83749 283.227028 
L 84.337728 282.280802 
L 84.837966 284.763835 
L 85.338204 284.102351 
L 85.838442 284.535534 
L 86.33868 282.182811 
L 86.838919 281.062737 
L 87.339157 283.279028 
L 87.839395 284.6965 
L 88.339633 283.084692 
L 88.839871 282.936218 
L 89.340109 283.18804 
L 89.840347 280.092043 
L 90.340586 282.225324 
L 90.840824 282.66197 
L 91.341062 279.802941 
L 91.8413 280.593775 
L 92.341538 281.105934 
L 92.841776 280.692052 
L 93.342014 279.101186 
L 93.842252 279.779675 
L 94.342491 279.184563 
L 94.842729 281.866728 
L 95.342967 279.575753 
L 95.843205 278.519408 
L 96.343443 280.688973 
L 96.843681 277.78269 
L 97.343919 275.558214 
L 97.844157 277.961221 
L 98.344396 277.545501 
L 98.844634 279.05732 
L 99.344872 279.282871 
L 100.345348 275.968321 
L 100.845586 280.72934 
L 101.345824 278.18922 
L 101.846062 273.515565 
L 102.346301 273.281703 
L 102.846539 276.601218 
L 103.847015 274.407448 
L 104.347253 272.695313 
L 104.847491 275.209437 
L 105.347729 278.469875 
L 105.847968 274.918755 
L 106.348206 276.66059 
L 106.848444 276.366242 
L 107.348682 277.074914 
L 107.84892 278.914372 
L 108.349158 279.06649 
L 108.849396 275.228365 
L 109.349634 276.733184 
L 109.849873 275.678178 
L 110.350111 276.275731 
L 110.850349 275.760881 
L 111.350587 279.396973 
L 111.850825 280.148298 
L 112.351063 278.585724 
L 112.851301 277.887531 
L 113.351539 273.841171 
L 113.851778 276.566904 
L 114.352016 275.912498 
L 114.852254 274.411205 
L 115.352492 273.861475 
L 115.85273 270.868204 
L 116.352968 277.138301 
L 116.853206 278.076556 
L 117.353444 272.574011 
L 117.853683 269.041483 
L 118.353921 272.209642 
L 118.854159 274.169531 
L 119.354397 271.139199 
L 119.854635 270.072957 
L 120.354873 276.22339 
L 120.855111 271.634369 
L 121.355349 277.378014 
L 121.855588 273.199283 
L 122.355826 272.67682 
L 122.856064 269.782613 
L 123.356302 273.889013 
L 123.85654 275.79842 
L 124.356778 276.090939 
L 124.857016 271.605858 
L 125.357255 275.754515 
L 125.857493 274.230444 
L 126.357731 275.807649 
L 126.857969 276.637721 
L 127.358207 273.859673 
L 127.858445 272.818723 
L 128.358683 275.190775 
L 128.858921 276.977527 
L 129.35916 275.153705 
L 129.859398 276.400813 
L 130.359636 275.157138 
L 130.859874 273.458218 
L 131.360112 277.093162 
L 131.86035 276.238201 
L 132.360588 273.135385 
L 132.860826 274.124353 
L 133.361065 276.023581 
L 133.861303 270.318254 
L 134.361541 274.797925 
L 134.861779 274.633442 
L 135.362017 276.376458 
L 135.862255 273.354758 
L 136.362493 274.166565 
L 136.862731 273.250308 
L 137.36297 269.763344 
L 138.363446 271.744337 
L 138.863684 274.942141 
L 139.363922 269.614458 
L 139.86416 271.75965 
L 140.364398 273.309102 
L 140.864637 273.678856 
L 141.364875 269.968895 
L 141.865113 274.457702 
L 142.365351 271.376794 
L 142.865589 272.920429 
L 143.365827 271.681377 
L 143.866065 271.613796 
L 144.366303 271.749197 
L 144.866542 267.2425 
L 145.36678 271.817674 
L 145.867018 267.179142 
L 146.367256 269.343092 
L 146.867494 267.659152 
L 147.367732 268.193214 
L 147.86797 269.31955 
L 148.368208 267.727784 
L 148.868447 268.141386 
L 149.368685 276.020582 
L 149.868923 266.083413 
L 150.369161 264.145381 
L 150.869399 269.623294 
L 151.369637 271.795012 
L 151.869875 272.385839 
L 152.370113 271.492104 
L 152.870352 271.557713 
L 153.37059 267.904684 
L 153.870828 272.146954 
L 154.371066 271.452347 
L 154.871304 271.149773 
L 155.371542 271.619038 
L 155.87178 267.33537 
L 156.372018 269.631811 
L 156.872257 269.381902 
L 157.372495 272.061757 
L 157.872733 269.015921 
L 158.372971 268.754123 
L 158.873209 270.709136 
L 159.373447 268.966754 
L 159.873685 270.293943 
L 160.373924 272.478342 
L 160.874162 276.390437 
L 161.3744 273.54095 
L 161.874638 272.281217 
L 162.374876 274.185751 
L 162.875114 269.662172 
L 163.375352 269.197695 
L 164.375829 273.031385 
L 164.876067 269.7878 
L 165.376305 270.039595 
L 166.376781 271.501613 
L 166.877019 269.891294 
L 167.377257 273.838931 
L 167.877495 273.01172 
L 168.377734 272.405079 
L 168.877972 266.97675 
L 169.37821 271.8019 
L 169.878448 273.980781 
L 170.378686 275.452255 
L 170.878924 275.466898 
L 171.379162 271.695489 
L 171.8794 273.135121 
L 172.379639 272.726495 
L 172.879877 274.964119 
L 173.380115 275.901177 
L 173.880353 273.56152 
L 174.380591 274.449784 
L 174.880829 274.036018 
L 175.381067 272.916115 
L 175.881306 273.533132 
L 176.381544 275.321924 
L 176.881782 279.330293 
L 177.882258 273.049965 
L 178.382496 274.531176 
L 178.882734 272.538525 
L 179.382972 273.468037 
L 179.883211 273.666321 
L 180.383449 272.216912 
L 180.883687 275.834415 
L 181.383925 270.962358 
L 182.384401 275.218387 
L 182.884639 275.497005 
L 183.384877 276.378037 
L 183.885116 274.757994 
L 184.385354 273.752852 
L 184.885592 272.412735 
L 185.38583 274.069659 
L 185.886068 272.350499 
L 186.386306 277.057381 
L 186.886544 276.901349 
L 187.386782 273.904975 
L 187.887021 276.490613 
L 188.387259 277.781028 
L 188.887497 275.479277 
L 189.387735 276.719944 
L 189.887973 276.554614 
L 190.388211 277.526736 
L 190.888449 275.440681 
L 191.388687 279.256511 
L 191.888926 277.451598 
L 192.389164 277.117075 
L 192.889402 277.656452 
L 193.38964 274.838237 
L 193.889878 276.458379 
L 194.390116 276.361702 
L 194.890354 283.899361 
L 195.390593 282.828243 
L 195.890831 282.748362 
L 196.391069 280.724846 
L 196.891307 280.042933 
L 197.391545 277.018912 
L 197.891783 278.31456 
L 198.392021 273.345614 
L 198.892259 273.114131 
L 199.392498 276.476776 
L 199.892736 274.765683 
L 200.392974 277.477802 
L 200.893212 277.017044 
L 201.39345 273.474875 
L 201.893688 277.906806 
L 202.393926 276.738034 
L 202.894164 277.891445 
L 203.394403 276.88309 
L 203.894641 277.366644 
L 204.394879 279.295394 
L 204.895117 275.786032 
L 205.395355 278.514384 
L 205.895593 274.578814 
L 206.896069 278.780484 
L 207.896546 279.617662 
L 208.396784 277.19384 
L 208.897022 274.001891 
L 209.39726 274.111231 
L 209.897498 277.119027 
L 210.397736 275.181289 
L 210.897975 275.295293 
L 211.398213 276.379042 
L 211.898451 276.880538 
L 212.398689 275.707926 
L 212.898927 274.991688 
L 213.399165 274.007768 
L 213.899403 273.706478 
L 214.399641 274.832631 
L 214.89988 274.848367 
L 215.400118 273.369556 
L 215.900356 271.072946 
L 216.400594 274.178187 
L 216.900832 272.743447 
L 217.901308 275.847902 
L 218.401546 278.297153 
L 218.901785 281.306497 
L 219.402023 275.194286 
L 219.902261 274.827429 
L 220.402499 276.597941 
L 220.902737 274.211412 
L 221.402975 274.629722 
L 221.903213 276.771844 
L 222.90369 273.059265 
L 223.403928 273.91762 
L 223.904166 275.612296 
L 224.404404 274.505672 
L 224.904642 272.811184 
L 225.40488 272.191453 
L 225.905118 269.838303 
L 226.405356 270.095214 
L 226.905595 271.134739 
L 227.405833 271.243163 
L 227.906071 272.612569 
L 228.406309 272.552232 
L 228.906547 273.529382 
L 229.406785 276.07565 
L 229.907023 272.796243 
L 230.9075 277.341253 
L 231.407738 275.479904 
L 231.907976 274.398898 
L 232.408214 273.032019 
L 232.908452 274.279314 
L 233.40869 275.226624 
L 233.908928 274.696602 
L 234.409167 268.461542 
L 234.909405 274.174758 
L 235.409643 272.364841 
L 235.909881 275.715744 
L 236.410119 274.683651 
L 236.910357 270.967294 
L 237.410595 274.261433 
L 237.910833 273.321997 
L 238.411072 275.732348 
L 238.91131 279.228872 
L 239.411548 277.699981 
L 239.911786 277.464293 
L 240.412024 276.54787 
L 240.912262 276.520192 
L 241.4125 278.346585 
L 241.912738 277.914599 
L 242.412977 281.157373 
L 242.913215 275.825908 
L 243.413453 274.326316 
L 243.913691 277.538114 
L 244.413929 273.700899 
L 244.914167 279.551968 
L 245.414405 275.821286 
L 245.914644 277.789291 
L 246.414882 276.888718 
L 246.91512 278.335776 
L 247.415358 278.899691 
L 247.915596 279.949814 
L 248.415834 278.407897 
L 248.916072 275.56346 
L 249.41631 274.989979 
L 249.916549 277.967278 
L 250.416787 279.07132 
L 250.917025 281.114664 
L 251.417263 279.591535 
L 251.917501 279.044965 
L 252.417739 281.221536 
L 252.917977 280.94371 
L 253.418215 279.420053 
L 253.918454 279.508044 
L 254.418692 275.652446 
L 254.91893 277.808634 
L 255.419168 275.71524 
L 255.919406 280.246766 
L 256.419644 278.991529 
L 256.919882 275.213464 
L 257.42012 276.788983 
L 257.920359 273.438912 
L 258.420597 272.940527 
L 258.920835 277.328303 
L 259.421073 278.681597 
L 259.921311 278.530883 
L 260.421549 276.671485 
L 260.921787 272.504616 
L 261.422025 276.807704 
L 261.922264 275.646506 
L 262.422502 277.761177 
L 262.92274 275.810524 
L 263.422978 276.268725 
L 263.923216 272.361333 
L 264.923692 275.144923 
L 265.423931 275.560986 
L 265.924169 279.495966 
L 266.424407 280.129885 
L 266.924645 277.861343 
L 267.424883 276.536072 
L 267.925121 273.972216 
L 268.425359 278.596661 
L 268.925597 277.734313 
L 269.425836 274.538345 
L 269.926074 275.398976 
L 270.426312 275.697594 
L 270.92655 279.907063 
L 271.426788 275.909329 
L 271.927026 275.356348 
L 272.427264 276.248116 
L 272.927502 275.336906 
L 273.427741 282.181714 
L 273.927979 276.130629 
L 274.428217 277.858351 
L 274.928455 276.63886 
L 275.428693 274.758831 
L 275.928931 277.881427 
L 276.429169 276.944417 
L 276.929407 278.23077 
L 277.429646 277.831803 
L 277.929884 277.931084 
L 278.430122 276.643512 
L 278.93036 274.059676 
L 279.430598 275.998891 
L 279.930836 275.788993 
L 280.431074 276.727518 
L 280.931313 276.296396 
L 281.431551 276.527458 
L 282.432027 275.921738 
L 282.932265 278.556242 
L 283.432503 277.998162 
L 283.932741 277.060955 
L 284.432979 275.496161 
L 284.933218 279.400241 
L 285.433456 279.61143 
L 285.933694 277.31637 
L 286.433932 277.274954 
L 286.93417 279.536979 
L 287.434408 278.335254 
L 287.934646 278.274934 
L 288.434884 273.568478 
L 288.935123 274.964928 
L 289.435361 280.488005 
L 289.935599 275.120357 
L 290.936075 280.713546 
L 291.436313 278.936967 
L 291.936551 282.253388 
L 292.436789 279.445145 
L 292.937028 282.071305 
L 293.437266 279.120812 
L 293.937504 274.614447 
L 294.437742 277.795345 
L 294.93798 278.846856 
L 295.438218 277.90529 
L 295.938456 280.587015 
L 296.438694 278.099087 
L 297.439171 278.681936 
L 297.939409 279.111758 
L 298.439647 280.745075 
L 298.939885 280.39533 
L 299.440123 279.067353 
L 299.940361 279.222928 
L 300.4406 276.27062 
L 300.940838 279.55509 
L 301.441076 278.925115 
L 301.941314 273.150836 
L 302.441552 279.107006 
L 302.94179 274.00343 
L 303.442028 275.888456 
L 303.942266 281.042484 
L 304.442505 275.400277 
L 304.942743 278.253901 
L 305.442981 275.86472 
L 305.943219 277.803625 
L 306.443457 278.648054 
L 306.943695 276.338674 
L 307.443933 275.931298 
L 307.944171 278.426499 
L 308.44441 275.204462 
L 308.944648 276.14015 
L 309.444886 278.399762 
L 309.945124 278.8642 
L 310.445362 276.146041 
L 310.9456 278.028406 
L 311.445838 278.469311 
L 311.946076 277.460558 
L 312.446315 279.554539 
L 312.946553 278.473295 
L 313.446791 275.236479 
L 313.947029 279.354942 
L 314.447267 277.03448 
L 314.947505 273.221296 
L 315.447743 270.321717 
L 315.947982 274.136045 
L 316.44822 273.231304 
L 316.948458 276.455734 
L 317.448696 273.732983 
L 317.948934 275.369456 
L 318.449172 278.626834 
L 318.94941 277.206624 
L 319.449648 271.044429 
L 319.949887 277.059093 
L 320.450125 275.277018 
L 320.950363 276.979151 
L 321.450601 276.200403 
L 321.950839 279.311354 
L 322.451077 277.511948 
L 322.951315 274.202356 
L 323.451553 277.888482 
L 323.951792 275.841491 
L 324.45203 275.047806 
L 324.952268 273.5001 
L 325.452506 275.435739 
L 325.952744 276.338093 
L 326.452982 277.760066 
L 326.95322 279.960717 
L 327.453458 278.902885 
L 327.953697 280.93739 
L 328.453935 280.961949 
L 328.954173 281.808169 
L 329.454411 278.793067 
L 329.954649 279.254179 
L 330.454887 278.2903 
L 330.955125 281.51293 
L 331.455363 278.287545 
L 331.955602 278.897157 
L 332.45584 277.683115 
L 332.956078 275.416103 
L 333.456316 275.731158 
L 333.956554 280.750223 
L 334.456792 275.90583 
L 334.95703 280.185095 
L 335.457269 278.570669 
L 335.957507 281.182313 
L 336.457745 277.811267 
L 336.957983 276.548542 
L 337.458221 277.784015 
L 337.958459 275.109632 
L 338.458697 278.141016 
L 338.958935 277.054833 
L 339.459174 277.300394 
L 339.959412 275.490858 
L 340.45965 276.081137 
L 341.460126 280.319027 
L 341.960364 278.328834 
L 342.460602 277.062579 
L 342.96084 282.420122 
L 343.461079 283.013446 
L 343.961317 283.022204 
L 344.461555 280.080021 
L 344.961793 277.928381 
L 345.462031 280.851193 
L 345.962269 282.496879 
L 346.462507 279.173449 
L 346.962745 280.473913 
L 347.462984 279.563097 
L 347.963222 277.791646 
L 348.46346 280.568877 
L 348.963698 280.470521 
L 349.463936 279.223033 
L 349.964174 278.766564 
L 350.464412 278.901015 
L 350.964651 277.59343 
L 351.965127 281.954603 
L 352.465365 279.057402 
L 352.965603 280.409727 
L 353.465841 278.077014 
L 353.966079 277.862279 
L 354.466317 277.247316 
L 354.966556 279.461906 
L 355.466794 278.170177 
L 355.967032 280.113335 
L 356.46727 279.725388 
L 356.967508 276.808071 
L 357.467746 276.7586 
L 357.967984 277.62272 
L 358.468222 280.471951 
L 358.968461 279.908959 
L 359.468699 277.399045 
L 359.968937 280.792158 
L 360.469175 275.517834 
L 360.969413 281.339799 
L 361.469651 280.967903 
L 361.969889 279.181574 
L 362.470127 280.448012 
L 362.970366 274.983888 
L 363.470604 277.948917 
L 363.970842 278.083479 
L 364.47108 280.796211 
L 364.971318 280.67412 
L 365.471556 278.336656 
L 365.971794 280.161692 
L 366.472032 273.260199 
L 367.472509 279.117992 
L 367.972747 276.730111 
L 368.472985 275.911974 
L 368.973223 278.3002 
L 369.473461 277.173473 
L 369.973699 278.312077 
L 370.473938 275.031082 
L 370.974176 272.91768 
L 371.474414 279.796561 
L 371.974652 274.069277 
L 373.475366 279.940137 
L 373.975604 280.108889 
L 374.475843 277.6837 
L 374.976081 277.509468 
L 375.476319 279.981926 
L 375.976557 279.503469 
L 376.476795 281.393143 
L 376.977033 278.140901 
L 377.477271 278.098967 
L 377.977509 282.121897 
L 378.477748 278.489912 
L 378.977986 278.906527 
L 379.978462 276.740264 
L 380.4787 278.322096 
L 380.978938 274.489112 
L 381.979414 279.818049 
L 382.479653 280.336876 
L 382.979891 276.772108 
L 383.480129 280.281703 
L 383.980367 277.620682 
L 384.480605 281.490303 
L 384.980843 279.558415 
L 385.481081 280.190146 
L 385.98132 276.207736 
L 386.481558 277.689709 
L 386.981796 277.110827 
L 387.482034 279.65782 
L 387.982272 278.505507 
L 388.48251 278.129335 
L 388.982748 276.715092 
L 389.482986 273.840836 
L 389.983225 276.100233 
L 390.483463 274.47006 
L 390.983701 276.234327 
L 391.483939 274.664034 
L 391.984177 276.049488 
L 392.484415 275.844744 
L 392.984653 274.564487 
L 393.484891 275.142956 
L 393.98513 272.35899 
L 394.485368 276.600901 
L 394.985606 273.923436 
L 395.485844 274.823179 
L 395.986082 275.135424 
L 396.48632 278.029298 
L 396.986558 276.998574 
L 397.486796 277.448168 
L 397.987035 274.561251 
L 398.487273 273.685037 
L 398.487273 273.685037 
" style="fill:none;stroke:#0000ff;stroke-linecap:square;stroke-width:1.5;"/>
   </g>
   <g id="line2d_34">
    <path clip-path="url(#p298e0df7a1)" d="M 73.832727 288.99028 
L 74.332965 283.136263 
L 74.833204 280.442473 
L 75.83368 278.662042 
L 76.333918 277.279527 
L 76.834156 277.311662 
L 77.334394 276.737176 
L 77.834632 274.904001 
L 78.33487 277.57715 
L 79.335347 273.397659 
L 79.835585 273.276532 
L 80.335823 270.099498 
L 80.836061 270.107866 
L 81.336299 271.968941 
L 81.836537 275.080803 
L 82.336775 268.164805 
L 82.837014 271.133879 
L 83.337252 272.500318 
L 83.83749 272.701038 
L 84.337728 269.134965 
L 84.837966 274.809132 
L 85.338204 275.956039 
L 85.838442 272.788786 
L 86.33868 270.430673 
L 86.838919 268.945313 
L 87.339157 268.69695 
L 87.839395 273.747052 
L 88.339633 272.829627 
L 88.839871 267.133282 
L 89.340109 269.129521 
L 89.840347 263.958756 
L 90.340586 270.585081 
L 90.840824 271.94459 
L 91.341062 269.131115 
L 91.8413 272.06037 
L 92.341538 268.41202 
L 92.841776 263.248422 
L 93.342014 265.831713 
L 93.842252 271.283887 
L 94.342491 264.731747 
L 94.842729 267.487946 
L 95.342967 266.921125 
L 95.843205 263.101274 
L 96.343443 260.216963 
L 96.843681 266.714479 
L 97.343919 252.422912 
L 97.844157 264.090408 
L 98.344396 263.148255 
L 98.844634 260.58931 
L 99.344872 264.505971 
L 99.84511 260.553655 
L 100.345348 258.523758 
L 100.845586 262.776538 
L 101.345824 245.901631 
L 101.846062 253.644441 
L 102.346301 254.955821 
L 102.846539 259.991368 
L 103.346777 251.098559 
L 103.847015 253.698785 
L 104.347253 240.81664 
L 104.847491 249.331168 
L 105.347729 254.302545 
L 105.847968 253.154473 
L 106.348206 255.801983 
L 106.848444 248.195775 
L 107.348682 243.163252 
L 107.84892 255.724598 
L 108.349158 252.031208 
L 108.849396 242.838187 
L 109.349634 251.722439 
L 109.849873 254.18716 
L 110.350111 246.423867 
L 110.850349 245.837851 
L 111.350587 253.95853 
L 111.850825 251.656187 
L 112.351063 252.864973 
L 112.851301 241.762289 
L 113.351539 244.898924 
L 113.851778 250.073938 
L 114.352016 240.267728 
L 114.852254 243.380416 
L 115.352492 214.476774 
L 115.85273 212.834038 
L 116.352968 246.43728 
L 116.853206 225.49247 
L 117.353444 226.171527 
L 117.853683 242.457674 
L 118.353921 243.41077 
L 118.854159 240.146721 
L 119.354397 239.935596 
L 119.854635 239.049952 
L 120.354873 239.895126 
L 120.855111 250.493239 
L 121.355349 247.095226 
L 121.855588 240.685313 
L 122.355826 248.546559 
L 122.856064 241.623073 
L 123.356302 247.875948 
L 123.85654 232.918602 
L 124.356778 244.792864 
L 124.857016 227.683663 
L 125.357255 245.801061 
L 125.857493 241.637178 
L 126.357731 255.896509 
L 126.857969 239.726476 
L 127.358207 244.074317 
L 127.858445 240.916945 
L 128.358683 248.270241 
L 128.858921 239.231555 
L 129.35916 249.120195 
L 129.859398 234.04616 
L 130.359636 230.740923 
L 130.859874 235.39178 
L 131.360112 202.857225 
L 131.86035 240.665391 
L 132.360588 242.736754 
L 132.860826 245.605736 
L 133.361065 246.810525 
L 133.861303 242.218468 
L 134.361541 246.965829 
L 134.861779 246.947477 
L 135.362017 251.406864 
L 135.862255 246.052213 
L 136.362493 247.159973 
L 136.862731 241.413963 
L 137.36297 241.025711 
L 137.863208 238.567494 
L 138.363446 241.5652 
L 138.863684 242.147407 
L 139.363922 232.187753 
L 140.864637 249.551802 
L 141.364875 238.938837 
L 141.865113 241.556626 
L 142.365351 211.12529 
L 142.865589 245.083794 
L 143.365827 244.766809 
L 143.866065 241.817072 
L 144.366303 241.184273 
L 144.866542 235.160995 
L 145.36678 241.290741 
L 146.367256 234.506697 
L 146.867494 240.07529 
L 147.367732 232.787646 
L 147.86797 242.313109 
L 148.368208 239.058432 
L 148.868447 227.139236 
L 149.368685 235.908586 
L 149.868923 221.448481 
L 150.369161 214.121688 
L 151.369637 235.895172 
L 151.869875 222.453621 
L 152.370113 235.074971 
L 152.870352 227.937592 
L 153.37059 213.825201 
L 153.870828 233.347335 
L 154.371066 231.706297 
L 154.871304 237.934561 
L 155.371542 230.316024 
L 155.87178 204.025819 
L 156.372018 215.347814 
L 156.872257 232.318483 
L 157.372495 242.14484 
L 157.872733 225.551904 
L 158.372971 238.830632 
L 158.873209 238.182337 
L 159.373447 226.52632 
L 159.873685 240.039083 
L 160.373924 237.326544 
L 160.874162 239.468062 
L 161.3744 236.392109 
L 161.874638 234.606192 
L 162.374876 244.382501 
L 163.375352 226.521235 
L 163.87559 240.460321 
L 164.375829 240.596112 
L 164.876067 219.628355 
L 165.376305 236.534476 
L 165.876543 242.163848 
L 166.376781 241.936218 
L 166.877019 237.280085 
L 167.377257 246.043719 
L 167.877495 243.013573 
L 168.377734 245.942536 
L 168.877972 225.102572 
L 169.37821 234.564717 
L 170.378686 243.890856 
L 170.878924 240.146655 
L 171.379162 223.770787 
L 172.379639 245.876801 
L 172.879877 244.276907 
L 173.380115 237.292137 
L 173.880353 235.302225 
L 174.380591 237.921857 
L 174.880829 238.300245 
L 175.381067 234.643062 
L 175.881306 236.822347 
L 176.381544 240.751171 
L 176.881782 233.142717 
L 177.38202 238.818171 
L 177.882258 241.291408 
L 178.382496 234.920741 
L 178.882734 240.222242 
L 179.382972 239.057116 
L 179.883211 224.669248 
L 180.383449 242.677052 
L 180.883687 246.041876 
L 181.383925 226.413864 
L 181.884163 234.497205 
L 182.384401 247.827658 
L 182.884639 248.257927 
L 183.384877 245.098361 
L 183.885116 250.525664 
L 184.385354 245.747835 
L 185.38583 239.618253 
L 185.886068 237.889929 
L 186.386306 245.670024 
L 186.886544 245.554076 
L 187.386782 238.979438 
L 187.887021 244.773882 
L 188.387259 249.238185 
L 188.887497 241.670423 
L 189.387735 237.860756 
L 189.887973 242.064944 
L 190.388211 250.34609 
L 190.888449 237.327478 
L 191.388687 247.768599 
L 191.888926 241.843723 
L 192.389164 244.450198 
L 192.889402 252.576696 
L 193.38964 240.940805 
L 193.889878 247.955164 
L 194.390116 237.135782 
L 194.890354 251.414165 
L 195.390593 255.974488 
L 195.890831 255.54225 
L 196.391069 248.140686 
L 196.891307 224.997116 
L 197.391545 238.9472 
L 197.891783 248.147102 
L 198.392021 232.588034 
L 198.892259 234.47509 
L 199.392498 242.238115 
L 199.892736 235.748435 
L 200.392974 245.046256 
L 200.893212 246.623285 
L 201.39345 244.246366 
L 201.893688 241.303484 
L 202.393926 245.478116 
L 202.894164 252.247207 
L 203.394403 246.78594 
L 203.894641 244.864623 
L 204.394879 244.74693 
L 204.895117 251.916284 
L 205.395355 253.339929 
L 205.895593 234.199613 
L 206.395831 237.529401 
L 206.896069 246.030208 
L 207.396308 245.855432 
L 207.896546 232.709771 
L 208.396784 247.609541 
L 208.897022 240.48708 
L 209.39726 228.395262 
L 209.897498 249.147381 
L 210.397736 243.862326 
L 210.897975 245.923481 
L 211.398213 249.800797 
L 211.898451 238.69697 
L 212.398689 235.461978 
L 212.898927 244.055253 
L 213.399165 231.441109 
L 213.899403 244.573632 
L 214.399641 250.771778 
L 214.89988 234.872155 
L 215.400118 247.54788 
L 215.900356 237.459182 
L 216.400594 243.258313 
L 216.900832 238.21281 
L 217.40107 241.756924 
L 217.901308 248.789204 
L 218.401546 244.114935 
L 218.901785 247.306126 
L 219.402023 246.38768 
L 219.902261 244.075293 
L 220.402499 250.782997 
L 220.902737 248.985819 
L 221.402975 240.325657 
L 222.403451 245.359761 
L 222.90369 251.732857 
L 223.403928 247.00956 
L 223.904166 250.821164 
L 224.404404 241.437651 
L 224.904642 244.403202 
L 225.40488 232.326193 
L 225.905118 239.250545 
L 226.405356 234.042452 
L 226.905595 232.140509 
L 227.405833 248.205389 
L 227.906071 251.638094 
L 228.906547 239.98504 
L 229.406785 241.666449 
L 229.907023 248.977294 
L 230.407262 246.747701 
L 230.9075 251.196437 
L 231.407738 244.565468 
L 231.907976 240.553726 
L 232.408214 248.582489 
L 232.908452 249.978072 
L 233.40869 250.442434 
L 233.908928 243.64583 
L 234.409167 241.831094 
L 234.909405 246.575728 
L 235.409643 244.996634 
L 235.909881 247.05009 
L 236.410119 249.661839 
L 236.910357 246.759388 
L 237.410595 234.958384 
L 237.910833 242.537424 
L 238.411072 236.686118 
L 238.91131 255.22703 
L 239.411548 254.504577 
L 239.911786 256.839344 
L 240.412024 252.930057 
L 240.912262 256.614989 
L 241.4125 253.006142 
L 241.912738 253.355452 
L 242.412977 254.210454 
L 242.913215 246.757104 
L 243.413453 233.75439 
L 243.913691 252.667055 
L 244.413929 253.865986 
L 244.914167 257.215323 
L 245.414405 249.365772 
L 245.914644 256.351006 
L 246.414882 250.858762 
L 246.91512 252.935613 
L 247.415358 253.96378 
L 247.915596 250.125048 
L 248.415834 251.251877 
L 248.916072 249.259257 
L 249.41631 255.588062 
L 249.916549 254.785553 
L 250.416787 257.530924 
L 250.917025 255.88429 
L 251.417263 252.479864 
L 251.917501 254.106331 
L 252.417739 257.456198 
L 252.917977 251.951155 
L 253.418215 251.182771 
L 253.918454 253.973632 
L 254.91893 237.002422 
L 255.419168 254.083166 
L 255.919406 251.089811 
L 256.419644 251.387966 
L 256.919882 250.923735 
L 257.920359 247.83716 
L 258.420597 243.070275 
L 258.920835 241.691121 
L 259.421073 255.340192 
L 259.921311 246.043613 
L 260.421549 243.879848 
L 260.921787 240.03615 
L 261.422025 257.408996 
L 261.922264 226.073913 
L 262.422502 242.33966 
L 262.92274 244.049902 
L 263.422978 242.561552 
L 263.923216 230.090586 
L 264.423454 224.208204 
L 264.923692 231.648982 
L 265.423931 232.356325 
L 265.924169 245.817636 
L 266.424407 243.172174 
L 266.924645 245.301199 
L 267.424883 240.480161 
L 267.925121 224.826511 
L 268.425359 245.962504 
L 269.425836 229.087391 
L 269.926074 231.839373 
L 270.426312 233.747492 
L 270.92655 249.944149 
L 271.426788 239.21477 
L 271.927026 240.841152 
L 272.427264 239.286184 
L 272.927502 240.146083 
L 273.427741 243.248503 
L 273.927979 234.450998 
L 274.428217 241.734123 
L 274.928455 241.094113 
L 275.428693 244.410038 
L 275.928931 237.772945 
L 276.429169 247.117347 
L 276.929407 234.831171 
L 277.429646 226.888969 
L 277.929884 243.434593 
L 278.430122 236.769169 
L 278.93036 240.380445 
L 279.430598 246.156825 
L 280.431074 237.005887 
L 280.931313 239.016251 
L 281.431551 224.539675 
L 281.931789 219.826138 
L 282.432027 243.887103 
L 282.932265 184.697474 
L 283.432503 241.584673 
L 283.932741 239.393009 
L 284.432979 226.407733 
L 284.933218 244.856023 
L 285.433456 235.151586 
L 285.933694 235.891549 
L 286.433932 244.394451 
L 286.93417 233.68499 
L 287.434408 245.053281 
L 287.934646 231.96415 
L 288.434884 242.247062 
L 288.935123 234.94272 
L 289.435361 244.672129 
L 289.935599 194.307884 
L 290.435837 232.7358 
L 290.936075 240.507929 
L 291.436313 237.055643 
L 291.936551 246.222591 
L 292.436789 242.384649 
L 292.937028 247.814631 
L 293.437266 238.4514 
L 293.937504 247.104937 
L 294.437742 230.682395 
L 294.93798 245.286241 
L 295.438218 245.913292 
L 295.938456 257.974783 
L 296.438694 236.053306 
L 296.938933 238.058734 
L 297.439171 238.767482 
L 298.439647 246.505482 
L 298.939885 242.394726 
L 299.440123 250.642689 
L 299.940361 247.054508 
L 300.4406 240.166835 
L 300.940838 244.103378 
L 301.441076 251.751541 
L 301.941314 230.295395 
L 302.441552 245.745618 
L 302.94179 234.807258 
L 303.442028 236.529243 
L 303.942266 247.959412 
L 304.442505 232.13369 
L 304.942743 246.829594 
L 305.442981 241.839103 
L 306.443457 246.904549 
L 307.443933 230.387078 
L 308.44441 238.590785 
L 308.944648 238.438597 
L 309.444886 247.49568 
L 309.945124 248.36503 
L 310.445362 243.608723 
L 310.9456 245.058216 
L 311.445838 244.025703 
L 311.946076 253.132979 
L 312.446315 249.63251 
L 312.946553 240.060436 
L 313.446791 250.209308 
L 313.947029 251.325417 
L 314.447267 233.343907 
L 314.947505 232.299175 
L 315.447743 241.39514 
L 315.947982 243.347621 
L 316.44822 242.188147 
L 316.948458 250.034368 
L 317.448696 240.457233 
L 317.948934 218.36004 
L 318.449172 251.90528 
L 318.94941 250.746486 
L 319.449648 234.547322 
L 320.450125 248.740334 
L 320.950363 243.066059 
L 321.450601 244.583791 
L 321.950839 238.142258 
L 322.451077 236.054449 
L 322.951315 238.247611 
L 323.451553 243.2677 
L 323.951792 242.233727 
L 324.45203 244.273219 
L 324.952268 244.566965 
L 325.452506 237.952969 
L 325.952744 251.501824 
L 326.452982 256.185478 
L 326.95322 250.31443 
L 327.453458 234.819307 
L 327.953697 248.301296 
L 328.453935 248.636898 
L 328.954173 237.20645 
L 329.454411 251.158127 
L 329.954649 241.179022 
L 330.454887 242.080303 
L 330.955125 245.701197 
L 331.455363 244.946765 
L 331.955602 228.435752 
L 332.45584 233.206693 
L 332.956078 251.59448 
L 333.456316 245.560111 
L 333.956554 246.356178 
L 334.456792 223.187264 
L 334.95703 246.292587 
L 335.457269 235.511648 
L 335.957507 238.484416 
L 336.457745 249.035095 
L 336.957983 242.972114 
L 337.458221 209.143291 
L 337.958459 235.252699 
L 338.458697 240.188852 
L 338.958935 238.704662 
L 339.459174 245.734314 
L 339.959412 236.46171 
L 340.45965 235.540793 
L 340.959888 238.622586 
L 341.460126 249.257883 
L 341.960364 237.881957 
L 342.460602 246.408258 
L 342.96084 246.12309 
L 343.461079 250.515958 
L 343.961317 249.47751 
L 344.461555 252.315659 
L 344.961793 238.630704 
L 345.462031 230.86708 
L 345.962269 236.786215 
L 346.462507 240.805532 
L 346.962745 241.065914 
L 347.462984 245.694747 
L 347.963222 222.454085 
L 348.46346 243.131727 
L 348.963698 246.008247 
L 349.463936 258.644287 
L 349.964174 229.152997 
L 350.464412 246.106196 
L 350.964651 231.841857 
L 351.464889 241.007664 
L 351.965127 245.966433 
L 352.465365 244.836172 
L 353.465841 256.278269 
L 353.966079 243.265549 
L 354.466317 257.002828 
L 354.966556 257.984509 
L 355.466794 235.617981 
L 355.967032 256.036476 
L 356.46727 235.962794 
L 356.967508 238.873879 
L 357.467746 229.443287 
L 357.967984 231.355613 
L 358.468222 60.771974 
L 358.968461 237.155309 
L 359.468699 238.80917 
L 359.968937 233.958312 
L 360.469175 98.589408 
L 360.969413 245.262504 
L 361.469651 246.023856 
L 361.969889 247.780179 
L 362.470127 237.288208 
L 362.970366 241.249392 
L 363.470604 247.746456 
L 363.970842 240.940496 
L 364.47108 250.329009 
L 364.971318 251.325068 
L 365.971794 244.848816 
L 366.472032 239.469224 
L 366.972271 235.589713 
L 367.472509 239.247493 
L 367.972747 247.798849 
L 368.472985 234.24355 
L 368.973223 148.663267 
L 369.473461 243.396587 
L 369.973699 238.348729 
L 370.473938 240.257485 
L 370.974176 196.075995 
L 371.474414 243.154906 
L 371.974652 232.241798 
L 372.47489 230.044383 
L 372.975128 231.137379 
L 373.475366 237.731569 
L 373.975604 234.59962 
L 374.475843 235.295016 
L 374.976081 238.407565 
L 375.476319 244.270815 
L 375.976557 241.261401 
L 376.476795 241.366762 
L 376.977033 244.102526 
L 377.477271 225.554733 
L 377.977509 246.181907 
L 378.477748 240.092259 
L 378.977986 223.266308 
L 379.478224 235.280123 
L 379.978462 234.175678 
L 380.4787 231.860311 
L 380.978938 227.386358 
L 381.479176 238.300013 
L 381.979414 222.237523 
L 382.479653 247.295496 
L 382.979891 229.886576 
L 383.480129 238.361191 
L 383.980367 228.491646 
L 384.480605 236.336259 
L 384.980843 236.788235 
L 385.481081 239.685975 
L 385.98132 236.578468 
L 386.481558 241.192647 
L 386.981796 232.168842 
L 387.482034 242.884732 
L 387.982272 224.034605 
L 388.48251 232.526308 
L 388.982748 219.947787 
L 389.482986 239.843435 
L 389.983225 225.654232 
L 390.483463 240.635003 
L 390.983701 231.705954 
L 391.483939 233.313996 
L 391.984177 53.568 
L 392.484415 221.556191 
L 392.984653 226.688135 
L 393.484891 227.36999 
L 393.98513 235.528244 
L 394.485368 232.122436 
L 394.985606 234.399274 
L 395.485844 234.562037 
L 395.986082 233.082393 
L 396.48632 220.644165 
L 396.986558 236.068903 
L 397.486796 246.796184 
L 397.987035 243.738615 
L 398.487273 237.880626 
L 398.487273 237.880626 
" style="fill:none;stroke:#ff0000;stroke-linecap:square;stroke-width:1.5;"/>
   </g>
   <g id="patch_3">
    <path d="M 57.6 307.584 
L 57.6 41.472 
" style="fill:none;stroke:#000000;stroke-linecap:square;stroke-linejoin:miter;stroke-width:0.8;"/>
   </g>
   <g id="patch_4">
    <path d="M 414.72 307.584 
L 414.72 41.472 
" style="fill:none;stroke:#000000;stroke-linecap:square;stroke-linejoin:miter;stroke-width:0.8;"/>
   </g>
   <g id="patch_5">
    <path d="M 57.6 307.584 
L 414.72 307.584 
" style="fill:none;stroke:#000000;stroke-linecap:square;stroke-linejoin:miter;stroke-width:0.8;"/>
   </g>
   <g id="patch_6">
    <path d="M 57.6 41.472 
L 414.72 41.472 
" style="fill:none;stroke:#000000;stroke-linecap:square;stroke-linejoin:miter;stroke-width:0.8;"/>
   </g>
   <g id="text_19">
    <!-- Population's average and best fitness -->
    <g transform="translate(123.529687 35.472)scale(0.12 -0.12)">
     <defs>
      <path d="M 19.671875 64.796875 
L 19.671875 37.40625 
L 32.078125 37.40625 
Q 38.96875 37.40625 42.71875 40.96875 
Q 46.484375 44.53125 46.484375 51.125 
Q 46.484375 57.671875 42.71875 61.234375 
Q 38.96875 64.796875 32.078125 64.796875 
z
M 9.8125 72.90625 
L 32.078125 72.90625 
Q 44.34375 72.90625 50.609375 67.359375 
Q 56.890625 61.8125 56.890625 51.125 
Q 56.890625 40.328125 50.609375 34.8125 
Q 44.34375 29.296875 32.078125 29.296875 
L 19.671875 29.296875 
L 19.671875 0 
L 9.8125 0 
z
" id="DejaVuSans-80"/>
      <path d="M 18.109375 8.203125 
L 18.109375 -20.796875 
L 9.078125 -20.796875 
L 9.078125 54.6875 
L 18.109375 54.6875 
L 18.109375 46.390625 
Q 20.953125 51.265625 25.265625 53.625 
Q 29.59375 56 35.59375 56 
Q 45.5625 56 51.78125 48.09375 
Q 58.015625 40.1875 58.015625 27.296875 
Q 58.015625 14.40625 51.78125 6.484375 
Q 45.5625 -1.421875 35.59375 -1.421875 
Q 29.59375 -1.421875 25.265625 0.953125 
Q 20.953125 3.328125 18.109375 8.203125 
z
M 48.6875 27.296875 
Q 48.6875 37.203125 44.609375 42.84375 
Q 40.53125 48.484375 33.40625 48.484375 
Q 26.265625 48.484375 22.1875 42.84375 
Q 18.109375 37.203125 18.109375 27.296875 
Q 18.109375 17.390625 22.1875 11.75 
Q 26.265625 6.109375 33.40625 6.109375 
Q 40.53125 6.109375 44.609375 11.75 
Q 48.6875 17.390625 48.6875 27.296875 
z
" id="DejaVuSans-112"/>
      <path d="M 8.5 21.578125 
L 8.5 54.6875 
L 17.484375 54.6875 
L 17.484375 21.921875 
Q 17.484375 14.15625 20.5 10.265625 
Q 23.53125 6.390625 29.59375 6.390625 
Q 36.859375 6.390625 41.078125 11.03125 
Q 45.3125 15.671875 45.3125 23.6875 
L 45.3125 54.6875 
L 54.296875 54.6875 
L 54.296875 0 
L 45.3125 0 
L 45.3125 8.40625 
Q 42.046875 3.421875 37.71875 1 
Q 33.40625 -1.421875 27.6875 -1.421875 
Q 18.265625 -1.421875 13.375 4.4375 
Q 8.5 10.296875 8.5 21.578125 
z
M 31.109375 56 
z
" id="DejaVuSans-117"/>
      <path d="M 9.421875 75.984375 
L 18.40625 75.984375 
L 18.40625 0 
L 9.421875 0 
z
" id="DejaVuSans-108"/>
      <path d="M 17.921875 72.90625 
L 17.921875 45.796875 
L 9.625 45.796875 
L 9.625 72.90625 
z
" id="DejaVuSans-39"/>
      <path id="DejaVuSans-32"/>
      <path d="M 2.984375 54.6875 
L 12.5 54.6875 
L 29.59375 8.796875 
L 46.6875 54.6875 
L 56.203125 54.6875 
L 35.6875 0 
L 23.484375 0 
z
" id="DejaVuSans-118"/>
      <path d="M 45.40625 27.984375 
Q 45.40625 37.75 41.375 43.109375 
Q 37.359375 48.484375 30.078125 48.484375 
Q 22.859375 48.484375 18.828125 43.109375 
Q 14.796875 37.75 14.796875 27.984375 
Q 14.796875 18.265625 18.828125 12.890625 
Q 22.859375 7.515625 30.078125 7.515625 
Q 37.359375 7.515625 41.375 12.890625 
Q 45.40625 18.265625 45.40625 27.984375 
z
M 54.390625 6.78125 
Q 54.390625 -7.171875 48.1875 -13.984375 
Q 42 -20.796875 29.203125 -20.796875 
Q 24.46875 -20.796875 20.265625 -20.09375 
Q 16.0625 -19.390625 12.109375 -17.921875 
L 12.109375 -9.1875 
Q 16.0625 -11.328125 19.921875 -12.34375 
Q 23.78125 -13.375 27.78125 -13.375 
Q 36.625 -13.375 41.015625 -8.765625 
Q 45.40625 -4.15625 45.40625 5.171875 
L 45.40625 9.625 
Q 42.625 4.78125 38.28125 2.390625 
Q 33.9375 0 27.875 0 
Q 17.828125 0 11.671875 7.65625 
Q 5.515625 15.328125 5.515625 27.984375 
Q 5.515625 40.671875 11.671875 48.328125 
Q 17.828125 56 27.875 56 
Q 33.9375 56 38.28125 53.609375 
Q 42.625 51.21875 45.40625 46.390625 
L 45.40625 54.6875 
L 54.390625 54.6875 
z
" id="DejaVuSans-103"/>
      <path d="M 45.40625 46.390625 
L 45.40625 75.984375 
L 54.390625 75.984375 
L 54.390625 0 
L 45.40625 0 
L 45.40625 8.203125 
Q 42.578125 3.328125 38.25 0.953125 
Q 33.9375 -1.421875 27.875 -1.421875 
Q 17.96875 -1.421875 11.734375 6.484375 
Q 5.515625 14.40625 5.515625 27.296875 
Q 5.515625 40.1875 11.734375 48.09375 
Q 17.96875 56 27.875 56 
Q 33.9375 56 38.25 53.625 
Q 42.578125 51.265625 45.40625 46.390625 
z
M 14.796875 27.296875 
Q 14.796875 17.390625 18.875 11.75 
Q 22.953125 6.109375 30.078125 6.109375 
Q 37.203125 6.109375 41.296875 11.75 
Q 45.40625 17.390625 45.40625 27.296875 
Q 45.40625 37.203125 41.296875 42.84375 
Q 37.203125 48.484375 30.078125 48.484375 
Q 22.953125 48.484375 18.875 42.84375 
Q 14.796875 37.203125 14.796875 27.296875 
z
" id="DejaVuSans-100"/>
      <path d="M 48.6875 27.296875 
Q 48.6875 37.203125 44.609375 42.84375 
Q 40.53125 48.484375 33.40625 48.484375 
Q 26.265625 48.484375 22.1875 42.84375 
Q 18.109375 37.203125 18.109375 27.296875 
Q 18.109375 17.390625 22.1875 11.75 
Q 26.265625 6.109375 33.40625 6.109375 
Q 40.53125 6.109375 44.609375 11.75 
Q 48.6875 17.390625 48.6875 27.296875 
z
M 18.109375 46.390625 
Q 20.953125 51.265625 25.265625 53.625 
Q 29.59375 56 35.59375 56 
Q 45.5625 56 51.78125 48.09375 
Q 58.015625 40.1875 58.015625 27.296875 
Q 58.015625 14.40625 51.78125 6.484375 
Q 45.5625 -1.421875 35.59375 -1.421875 
Q 29.59375 -1.421875 25.265625 0.953125 
Q 20.953125 3.328125 18.109375 8.203125 
L 18.109375 0 
L 9.078125 0 
L 9.078125 75.984375 
L 18.109375 75.984375 
z
" id="DejaVuSans-98"/>
      <path d="M 37.109375 75.984375 
L 37.109375 68.5 
L 28.515625 68.5 
Q 23.6875 68.5 21.796875 66.546875 
Q 19.921875 64.59375 19.921875 59.515625 
L 19.921875 54.6875 
L 34.71875 54.6875 
L 34.71875 47.703125 
L 19.921875 47.703125 
L 19.921875 0 
L 10.890625 0 
L 10.890625 47.703125 
L 2.296875 47.703125 
L 2.296875 54.6875 
L 10.890625 54.6875 
L 10.890625 58.5 
Q 10.890625 67.625 15.140625 71.796875 
Q 19.390625 75.984375 28.609375 75.984375 
z
" id="DejaVuSans-102"/>
     </defs>
     <use xlink:href="#DejaVuSans-80"/>
     <use x="56.677734" xlink:href="#DejaVuSans-111"/>
     <use x="117.859375" xlink:href="#DejaVuSans-112"/>
     <use x="181.335938" xlink:href="#DejaVuSans-117"/>
     <use x="244.714844" xlink:href="#DejaVuSans-108"/>
     <use x="272.498047" xlink:href="#DejaVuSans-97"/>
     <use x="333.777344" xlink:href="#DejaVuSans-116"/>
     <use x="372.986328" xlink:href="#DejaVuSans-105"/>
     <use x="400.769531" xlink:href="#DejaVuSans-111"/>
     <use x="461.951172" xlink:href="#DejaVuSans-110"/>
     <use x="525.330078" xlink:href="#DejaVuSans-39"/>
     <use x="552.820312" xlink:href="#DejaVuSans-115"/>
     <use x="604.919922" xlink:href="#DejaVuSans-32"/>
     <use x="636.707031" xlink:href="#DejaVuSans-97"/>
     <use x="697.986328" xlink:href="#DejaVuSans-118"/>
     <use x="757.166016" xlink:href="#DejaVuSans-101"/>
     <use x="818.689453" xlink:href="#DejaVuSans-114"/>
     <use x="859.802734" xlink:href="#DejaVuSans-97"/>
     <use x="921.082031" xlink:href="#DejaVuSans-103"/>
     <use x="984.558594" xlink:href="#DejaVuSans-101"/>
     <use x="1046.082031" xlink:href="#DejaVuSans-32"/>
     <use x="1077.869141" xlink:href="#DejaVuSans-97"/>
     <use x="1139.148438" xlink:href="#DejaVuSans-110"/>
     <use x="1202.527344" xlink:href="#DejaVuSans-100"/>
     <use x="1266.003906" xlink:href="#DejaVuSans-32"/>
     <use x="1297.791016" xlink:href="#DejaVuSans-98"/>
     <use x="1361.267578" xlink:href="#DejaVuSans-101"/>
     <use x="1422.791016" xlink:href="#DejaVuSans-115"/>
     <use x="1474.890625" xlink:href="#DejaVuSans-116"/>
     <use x="1514.099609" xlink:href="#DejaVuSans-32"/>
     <use x="1545.886719" xlink:href="#DejaVuSans-102"/>
     <use x="1581.091797" xlink:href="#DejaVuSans-105"/>
     <use x="1608.875" xlink:href="#DejaVuSans-116"/>
     <use x="1648.083984" xlink:href="#DejaVuSans-110"/>
     <use x="1711.462891" xlink:href="#DejaVuSans-101"/>
     <use x="1772.986328" xlink:href="#DejaVuSans-115"/>
     <use x="1825.085938" xlink:href="#DejaVuSans-115"/>
    </g>
   </g>
   <g id="legend_1">
    <g id="patch_7">
     <path d="M 64.6 78.82825 
L 137.540625 78.82825 
Q 139.540625 78.82825 139.540625 76.82825 
L 139.540625 48.472 
Q 139.540625 46.472 137.540625 46.472 
L 64.6 46.472 
Q 62.6 46.472 62.6 48.472 
L 62.6 76.82825 
Q 62.6 78.82825 64.6 78.82825 
z
" style="fill:#ffffff;opacity:0.8;stroke:#cccccc;stroke-linejoin:miter;"/>
    </g>
    <g id="line2d_35">
     <path d="M 66.6 54.570437 
L 86.6 54.570437 
" style="fill:none;stroke:#0000ff;stroke-linecap:square;stroke-width:1.5;"/>
    </g>
    <g id="line2d_36"/>
    <g id="text_20">
     <!-- average -->
     <g transform="translate(94.6 58.070437)scale(0.1 -0.1)">
      <use xlink:href="#DejaVuSans-97"/>
      <use x="61.279297" xlink:href="#DejaVuSans-118"/>
      <use x="120.458984" xlink:href="#DejaVuSans-101"/>
      <use x="181.982422" xlink:href="#DejaVuSans-114"/>
      <use x="223.095703" xlink:href="#DejaVuSans-97"/>
      <use x="284.375" xlink:href="#DejaVuSans-103"/>
      <use x="347.851562" xlink:href="#DejaVuSans-101"/>
     </g>
    </g>
    <g id="line2d_37">
     <path d="M 66.6 69.248562 
L 86.6 69.248562 
" style="fill:none;stroke:#ff0000;stroke-linecap:square;stroke-width:1.5;"/>
    </g>
    <g id="line2d_38"/>
    <g id="text_21">
     <!-- best -->
     <g transform="translate(94.6 72.748562)scale(0.1 -0.1)">
      <use xlink:href="#DejaVuSans-98"/>
      <use x="63.476562" xlink:href="#DejaVuSans-101"/>
      <use x="125" xlink:href="#DejaVuSans-115"/>
      <use x="177.099609" xlink:href="#DejaVuSans-116"/>
     </g>
    </g>
   </g>
  </g>
 </g>
 <defs>
  <clipPath id="p298e0df7a1">
   <rect height="266.112" width="357.12" x="57.6" y="41.472"/>
  </clipPath>
 </defs>
</svg>
