<?xml version="1.0" encoding="utf-8" standalone="no"?>
<!DOCTYPE svg PUBLIC "-//W3C//DTD SVG 1.1//EN"
  "http://www.w3.org/Graphics/SVG/1.1/DTD/svg11.dtd">
<!-- Created with matplotlib (https://matplotlib.org/) -->
<svg height="345.6pt" version="1.1" viewBox="0 0 460.8 345.6" width="460.8pt" xmlns="http://www.w3.org/2000/svg" xmlns:xlink="http://www.w3.org/1999/xlink">
 <metadata>
  <rdf:RDF xmlns:cc="http://creativecommons.org/ns#" xmlns:dc="http://purl.org/dc/elements/1.1/" xmlns:rdf="http://www.w3.org/1999/02/22-rdf-syntax-ns#">
   <cc:Work>
    <dc:type rdf:resource="http://purl.org/dc/dcmitype/StillImage"/>
    <dc:date>2021-02-23T22:12:35.021637</dc:date>
    <dc:format>image/svg+xml</dc:format>
    <dc:creator>
     <cc:Agent>
      <dc:title>Matplotlib v3.3.4, https://matplotlib.org/</dc:title>
     </cc:Agent>
    </dc:creator>
   </cc:Work>
  </rdf:RDF>
 </metadata>
 <defs>
  <style type="text/css">*{stroke-linecap:butt;stroke-linejoin:round;}</style>
 </defs>
 <g id="figure_1">
  <g id="patch_1">
   <path d="M 0 345.6 
L 460.8 345.6 
L 460.8 0 
L 0 0 
z
" style="fill:#ffffff;"/>
  </g>
  <g id="axes_1">
   <g id="patch_2">
    <path d="M 57.6 307.584 
L 414.72 307.584 
L 414.72 41.472 
L 57.6 41.472 
z
" style="fill:#ffffff;"/>
   </g>
   <g id="matplotlib.axis_1">
    <g id="xtick_1">
     <g id="line2d_1">
      <path clip-path="url(#p1012bdf688)" d="M 73.832727 307.584 
L 73.832727 41.472 
" style="fill:none;stroke:#b0b0b0;stroke-linecap:square;stroke-width:0.8;"/>
     </g>
     <g id="line2d_2">
      <defs>
       <path d="M 0 0 
L 0 3.5 
" id="m84668f40e6" style="stroke:#000000;stroke-width:0.8;"/>
      </defs>
      <g>
       <use style="stroke:#000000;stroke-width:0.8;" x="73.832727" xlink:href="#m84668f40e6" y="307.584"/>
      </g>
     </g>
     <g id="text_1">
      <!-- 0 -->
      <g transform="translate(70.651477 322.182437)scale(0.1 -0.1)">
       <defs>
        <path d="M 31.78125 66.40625 
Q 24.171875 66.40625 20.328125 58.90625 
Q 16.5 51.421875 16.5 36.375 
Q 16.5 21.390625 20.328125 13.890625 
Q 24.171875 6.390625 31.78125 6.390625 
Q 39.453125 6.390625 43.28125 13.890625 
Q 47.125 21.390625 47.125 36.375 
Q 47.125 51.421875 43.28125 58.90625 
Q 39.453125 66.40625 31.78125 66.40625 
z
M 31.78125 74.21875 
Q 44.046875 74.21875 50.515625 64.515625 
Q 56.984375 54.828125 56.984375 36.375 
Q 56.984375 17.96875 50.515625 8.265625 
Q 44.046875 -1.421875 31.78125 -1.421875 
Q 19.53125 -1.421875 13.0625 8.265625 
Q 6.59375 17.96875 6.59375 36.375 
Q 6.59375 54.828125 13.0625 64.515625 
Q 19.53125 74.21875 31.78125 74.21875 
z
" id="DejaVuSans-48"/>
       </defs>
       <use xlink:href="#DejaVuSans-48"/>
      </g>
     </g>
    </g>
    <g id="xtick_2">
     <g id="line2d_3">
      <path clip-path="url(#p1012bdf688)" d="M 123.85654 307.584 
L 123.85654 41.472 
" style="fill:none;stroke:#b0b0b0;stroke-linecap:square;stroke-width:0.8;"/>
     </g>
     <g id="line2d_4">
      <g>
       <use style="stroke:#000000;stroke-width:0.8;" x="123.85654" xlink:href="#m84668f40e6" y="307.584"/>
      </g>
     </g>
     <g id="text_2">
      <!-- 100 -->
      <g transform="translate(114.31279 322.182437)scale(0.1 -0.1)">
       <defs>
        <path d="M 12.40625 8.296875 
L 28.515625 8.296875 
L 28.515625 63.921875 
L 10.984375 60.40625 
L 10.984375 69.390625 
L 28.421875 72.90625 
L 38.28125 72.90625 
L 38.28125 8.296875 
L 54.390625 8.296875 
L 54.390625 0 
L 12.40625 0 
z
" id="DejaVuSans-49"/>
       </defs>
       <use xlink:href="#DejaVuSans-49"/>
       <use x="63.623047" xlink:href="#DejaVuSans-48"/>
       <use x="127.246094" xlink:href="#DejaVuSans-48"/>
      </g>
     </g>
    </g>
    <g id="xtick_3">
     <g id="line2d_5">
      <path clip-path="url(#p1012bdf688)" d="M 173.880353 307.584 
L 173.880353 41.472 
" style="fill:none;stroke:#b0b0b0;stroke-linecap:square;stroke-width:0.8;"/>
     </g>
     <g id="line2d_6">
      <g>
       <use style="stroke:#000000;stroke-width:0.8;" x="173.880353" xlink:href="#m84668f40e6" y="307.584"/>
      </g>
     </g>
     <g id="text_3">
      <!-- 200 -->
      <g transform="translate(164.336603 322.182437)scale(0.1 -0.1)">
       <defs>
        <path d="M 19.1875 8.296875 
L 53.609375 8.296875 
L 53.609375 0 
L 7.328125 0 
L 7.328125 8.296875 
Q 12.9375 14.109375 22.625 23.890625 
Q 32.328125 33.6875 34.8125 36.53125 
Q 39.546875 41.84375 41.421875 45.53125 
Q 43.3125 49.21875 43.3125 52.78125 
Q 43.3125 58.59375 39.234375 62.25 
Q 35.15625 65.921875 28.609375 65.921875 
Q 23.96875 65.921875 18.8125 64.3125 
Q 13.671875 62.703125 7.8125 59.421875 
L 7.8125 69.390625 
Q 13.765625 71.78125 18.9375 73 
Q 24.125 74.21875 28.421875 74.21875 
Q 39.75 74.21875 46.484375 68.546875 
Q 53.21875 62.890625 53.21875 53.421875 
Q 53.21875 48.921875 51.53125 44.890625 
Q 49.859375 40.875 45.40625 35.40625 
Q 44.1875 33.984375 37.640625 27.21875 
Q 31.109375 20.453125 19.1875 8.296875 
z
" id="DejaVuSans-50"/>
       </defs>
       <use xlink:href="#DejaVuSans-50"/>
       <use x="63.623047" xlink:href="#DejaVuSans-48"/>
       <use x="127.246094" xlink:href="#DejaVuSans-48"/>
      </g>
     </g>
    </g>
    <g id="xtick_4">
     <g id="line2d_7">
      <path clip-path="url(#p1012bdf688)" d="M 223.904166 307.584 
L 223.904166 41.472 
" style="fill:none;stroke:#b0b0b0;stroke-linecap:square;stroke-width:0.8;"/>
     </g>
     <g id="line2d_8">
      <g>
       <use style="stroke:#000000;stroke-width:0.8;" x="223.904166" xlink:href="#m84668f40e6" y="307.584"/>
      </g>
     </g>
     <g id="text_4">
      <!-- 300 -->
      <g transform="translate(214.360416 322.182437)scale(0.1 -0.1)">
       <defs>
        <path d="M 40.578125 39.3125 
Q 47.65625 37.796875 51.625 33 
Q 55.609375 28.21875 55.609375 21.1875 
Q 55.609375 10.40625 48.1875 4.484375 
Q 40.765625 -1.421875 27.09375 -1.421875 
Q 22.515625 -1.421875 17.65625 -0.515625 
Q 12.796875 0.390625 7.625 2.203125 
L 7.625 11.71875 
Q 11.71875 9.328125 16.59375 8.109375 
Q 21.484375 6.890625 26.8125 6.890625 
Q 36.078125 6.890625 40.9375 10.546875 
Q 45.796875 14.203125 45.796875 21.1875 
Q 45.796875 27.640625 41.28125 31.265625 
Q 36.765625 34.90625 28.71875 34.90625 
L 20.21875 34.90625 
L 20.21875 43.015625 
L 29.109375 43.015625 
Q 36.375 43.015625 40.234375 45.921875 
Q 44.09375 48.828125 44.09375 54.296875 
Q 44.09375 59.90625 40.109375 62.90625 
Q 36.140625 65.921875 28.71875 65.921875 
Q 24.65625 65.921875 20.015625 65.03125 
Q 15.375 64.15625 9.8125 62.3125 
L 9.8125 71.09375 
Q 15.4375 72.65625 20.34375 73.4375 
Q 25.25 74.21875 29.59375 74.21875 
Q 40.828125 74.21875 47.359375 69.109375 
Q 53.90625 64.015625 53.90625 55.328125 
Q 53.90625 49.265625 50.4375 45.09375 
Q 46.96875 40.921875 40.578125 39.3125 
z
" id="DejaVuSans-51"/>
       </defs>
       <use xlink:href="#DejaVuSans-51"/>
       <use x="63.623047" xlink:href="#DejaVuSans-48"/>
       <use x="127.246094" xlink:href="#DejaVuSans-48"/>
      </g>
     </g>
    </g>
    <g id="xtick_5">
     <g id="line2d_9">
      <path clip-path="url(#p1012bdf688)" d="M 273.927979 307.584 
L 273.927979 41.472 
" style="fill:none;stroke:#b0b0b0;stroke-linecap:square;stroke-width:0.8;"/>
     </g>
     <g id="line2d_10">
      <g>
       <use style="stroke:#000000;stroke-width:0.8;" x="273.927979" xlink:href="#m84668f40e6" y="307.584"/>
      </g>
     </g>
     <g id="text_5">
      <!-- 400 -->
      <g transform="translate(264.384229 322.182437)scale(0.1 -0.1)">
       <defs>
        <path d="M 37.796875 64.3125 
L 12.890625 25.390625 
L 37.796875 25.390625 
z
M 35.203125 72.90625 
L 47.609375 72.90625 
L 47.609375 25.390625 
L 58.015625 25.390625 
L 58.015625 17.1875 
L 47.609375 17.1875 
L 47.609375 0 
L 37.796875 0 
L 37.796875 17.1875 
L 4.890625 17.1875 
L 4.890625 26.703125 
z
" id="DejaVuSans-52"/>
       </defs>
       <use xlink:href="#DejaVuSans-52"/>
       <use x="63.623047" xlink:href="#DejaVuSans-48"/>
       <use x="127.246094" xlink:href="#DejaVuSans-48"/>
      </g>
     </g>
    </g>
    <g id="xtick_6">
     <g id="line2d_11">
      <path clip-path="url(#p1012bdf688)" d="M 323.951792 307.584 
L 323.951792 41.472 
" style="fill:none;stroke:#b0b0b0;stroke-linecap:square;stroke-width:0.8;"/>
     </g>
     <g id="line2d_12">
      <g>
       <use style="stroke:#000000;stroke-width:0.8;" x="323.951792" xlink:href="#m84668f40e6" y="307.584"/>
      </g>
     </g>
     <g id="text_6">
      <!-- 500 -->
      <g transform="translate(314.408042 322.182437)scale(0.1 -0.1)">
       <defs>
        <path d="M 10.796875 72.90625 
L 49.515625 72.90625 
L 49.515625 64.59375 
L 19.828125 64.59375 
L 19.828125 46.734375 
Q 21.96875 47.46875 24.109375 47.828125 
Q 26.265625 48.1875 28.421875 48.1875 
Q 40.625 48.1875 47.75 41.5 
Q 54.890625 34.8125 54.890625 23.390625 
Q 54.890625 11.625 47.5625 5.09375 
Q 40.234375 -1.421875 26.90625 -1.421875 
Q 22.3125 -1.421875 17.546875 -0.640625 
Q 12.796875 0.140625 7.71875 1.703125 
L 7.71875 11.625 
Q 12.109375 9.234375 16.796875 8.0625 
Q 21.484375 6.890625 26.703125 6.890625 
Q 35.15625 6.890625 40.078125 11.328125 
Q 45.015625 15.765625 45.015625 23.390625 
Q 45.015625 31 40.078125 35.4375 
Q 35.15625 39.890625 26.703125 39.890625 
Q 22.75 39.890625 18.8125 39.015625 
Q 14.890625 38.140625 10.796875 36.28125 
z
" id="DejaVuSans-53"/>
       </defs>
       <use xlink:href="#DejaVuSans-53"/>
       <use x="63.623047" xlink:href="#DejaVuSans-48"/>
       <use x="127.246094" xlink:href="#DejaVuSans-48"/>
      </g>
     </g>
    </g>
    <g id="xtick_7">
     <g id="line2d_13">
      <path clip-path="url(#p1012bdf688)" d="M 373.975604 307.584 
L 373.975604 41.472 
" style="fill:none;stroke:#b0b0b0;stroke-linecap:square;stroke-width:0.8;"/>
     </g>
     <g id="line2d_14">
      <g>
       <use style="stroke:#000000;stroke-width:0.8;" x="373.975604" xlink:href="#m84668f40e6" y="307.584"/>
      </g>
     </g>
     <g id="text_7">
      <!-- 600 -->
      <g transform="translate(364.431854 322.182437)scale(0.1 -0.1)">
       <defs>
        <path d="M 33.015625 40.375 
Q 26.375 40.375 22.484375 35.828125 
Q 18.609375 31.296875 18.609375 23.390625 
Q 18.609375 15.53125 22.484375 10.953125 
Q 26.375 6.390625 33.015625 6.390625 
Q 39.65625 6.390625 43.53125 10.953125 
Q 47.40625 15.53125 47.40625 23.390625 
Q 47.40625 31.296875 43.53125 35.828125 
Q 39.65625 40.375 33.015625 40.375 
z
M 52.59375 71.296875 
L 52.59375 62.3125 
Q 48.875 64.0625 45.09375 64.984375 
Q 41.3125 65.921875 37.59375 65.921875 
Q 27.828125 65.921875 22.671875 59.328125 
Q 17.53125 52.734375 16.796875 39.40625 
Q 19.671875 43.65625 24.015625 45.921875 
Q 28.375 48.1875 33.59375 48.1875 
Q 44.578125 48.1875 50.953125 41.515625 
Q 57.328125 34.859375 57.328125 23.390625 
Q 57.328125 12.15625 50.6875 5.359375 
Q 44.046875 -1.421875 33.015625 -1.421875 
Q 20.359375 -1.421875 13.671875 8.265625 
Q 6.984375 17.96875 6.984375 36.375 
Q 6.984375 53.65625 15.1875 63.9375 
Q 23.390625 74.21875 37.203125 74.21875 
Q 40.921875 74.21875 44.703125 73.484375 
Q 48.484375 72.75 52.59375 71.296875 
z
" id="DejaVuSans-54"/>
       </defs>
       <use xlink:href="#DejaVuSans-54"/>
       <use x="63.623047" xlink:href="#DejaVuSans-48"/>
       <use x="127.246094" xlink:href="#DejaVuSans-48"/>
      </g>
     </g>
    </g>
    <g id="text_8">
     <!-- Generations -->
     <g transform="translate(205.662344 335.860562)scale(0.1 -0.1)">
      <defs>
       <path d="M 59.515625 10.40625 
L 59.515625 29.984375 
L 43.40625 29.984375 
L 43.40625 38.09375 
L 69.28125 38.09375 
L 69.28125 6.78125 
Q 63.578125 2.734375 56.6875 0.65625 
Q 49.8125 -1.421875 42 -1.421875 
Q 24.90625 -1.421875 15.25 8.5625 
Q 5.609375 18.5625 5.609375 36.375 
Q 5.609375 54.25 15.25 64.234375 
Q 24.90625 74.21875 42 74.21875 
Q 49.125 74.21875 55.546875 72.453125 
Q 61.96875 70.703125 67.390625 67.28125 
L 67.390625 56.78125 
Q 61.921875 61.421875 55.765625 63.765625 
Q 49.609375 66.109375 42.828125 66.109375 
Q 29.4375 66.109375 22.71875 58.640625 
Q 16.015625 51.171875 16.015625 36.375 
Q 16.015625 21.625 22.71875 14.15625 
Q 29.4375 6.6875 42.828125 6.6875 
Q 48.046875 6.6875 52.140625 7.59375 
Q 56.25 8.5 59.515625 10.40625 
z
" id="DejaVuSans-71"/>
       <path d="M 56.203125 29.59375 
L 56.203125 25.203125 
L 14.890625 25.203125 
Q 15.484375 15.921875 20.484375 11.0625 
Q 25.484375 6.203125 34.421875 6.203125 
Q 39.59375 6.203125 44.453125 7.46875 
Q 49.3125 8.734375 54.109375 11.28125 
L 54.109375 2.78125 
Q 49.265625 0.734375 44.1875 -0.34375 
Q 39.109375 -1.421875 33.890625 -1.421875 
Q 20.796875 -1.421875 13.15625 6.1875 
Q 5.515625 13.8125 5.515625 26.8125 
Q 5.515625 40.234375 12.765625 48.109375 
Q 20.015625 56 32.328125 56 
Q 43.359375 56 49.78125 48.890625 
Q 56.203125 41.796875 56.203125 29.59375 
z
M 47.21875 32.234375 
Q 47.125 39.59375 43.09375 43.984375 
Q 39.0625 48.390625 32.421875 48.390625 
Q 24.90625 48.390625 20.390625 44.140625 
Q 15.875 39.890625 15.1875 32.171875 
z
" id="DejaVuSans-101"/>
       <path d="M 54.890625 33.015625 
L 54.890625 0 
L 45.90625 0 
L 45.90625 32.71875 
Q 45.90625 40.484375 42.875 44.328125 
Q 39.84375 48.1875 33.796875 48.1875 
Q 26.515625 48.1875 22.3125 43.546875 
Q 18.109375 38.921875 18.109375 30.90625 
L 18.109375 0 
L 9.078125 0 
L 9.078125 54.6875 
L 18.109375 54.6875 
L 18.109375 46.1875 
Q 21.34375 51.125 25.703125 53.5625 
Q 30.078125 56 35.796875 56 
Q 45.21875 56 50.046875 50.171875 
Q 54.890625 44.34375 54.890625 33.015625 
z
" id="DejaVuSans-110"/>
       <path d="M 41.109375 46.296875 
Q 39.59375 47.171875 37.8125 47.578125 
Q 36.03125 48 33.890625 48 
Q 26.265625 48 22.1875 43.046875 
Q 18.109375 38.09375 18.109375 28.8125 
L 18.109375 0 
L 9.078125 0 
L 9.078125 54.6875 
L 18.109375 54.6875 
L 18.109375 46.1875 
Q 20.953125 51.171875 25.484375 53.578125 
Q 30.03125 56 36.53125 56 
Q 37.453125 56 38.578125 55.875 
Q 39.703125 55.765625 41.0625 55.515625 
z
" id="DejaVuSans-114"/>
       <path d="M 34.28125 27.484375 
Q 23.390625 27.484375 19.1875 25 
Q 14.984375 22.515625 14.984375 16.5 
Q 14.984375 11.71875 18.140625 8.90625 
Q 21.296875 6.109375 26.703125 6.109375 
Q 34.1875 6.109375 38.703125 11.40625 
Q 43.21875 16.703125 43.21875 25.484375 
L 43.21875 27.484375 
z
M 52.203125 31.203125 
L 52.203125 0 
L 43.21875 0 
L 43.21875 8.296875 
Q 40.140625 3.328125 35.546875 0.953125 
Q 30.953125 -1.421875 24.3125 -1.421875 
Q 15.921875 -1.421875 10.953125 3.296875 
Q 6 8.015625 6 15.921875 
Q 6 25.140625 12.171875 29.828125 
Q 18.359375 34.515625 30.609375 34.515625 
L 43.21875 34.515625 
L 43.21875 35.40625 
Q 43.21875 41.609375 39.140625 45 
Q 35.0625 48.390625 27.6875 48.390625 
Q 23 48.390625 18.546875 47.265625 
Q 14.109375 46.140625 10.015625 43.890625 
L 10.015625 52.203125 
Q 14.9375 54.109375 19.578125 55.046875 
Q 24.21875 56 28.609375 56 
Q 40.484375 56 46.34375 49.84375 
Q 52.203125 43.703125 52.203125 31.203125 
z
" id="DejaVuSans-97"/>
       <path d="M 18.3125 70.21875 
L 18.3125 54.6875 
L 36.8125 54.6875 
L 36.8125 47.703125 
L 18.3125 47.703125 
L 18.3125 18.015625 
Q 18.3125 11.328125 20.140625 9.421875 
Q 21.96875 7.515625 27.59375 7.515625 
L 36.8125 7.515625 
L 36.8125 0 
L 27.59375 0 
Q 17.1875 0 13.234375 3.875 
Q 9.28125 7.765625 9.28125 18.015625 
L 9.28125 47.703125 
L 2.6875 47.703125 
L 2.6875 54.6875 
L 9.28125 54.6875 
L 9.28125 70.21875 
z
" id="DejaVuSans-116"/>
       <path d="M 9.421875 54.6875 
L 18.40625 54.6875 
L 18.40625 0 
L 9.421875 0 
z
M 9.421875 75.984375 
L 18.40625 75.984375 
L 18.40625 64.59375 
L 9.421875 64.59375 
z
" id="DejaVuSans-105"/>
       <path d="M 30.609375 48.390625 
Q 23.390625 48.390625 19.1875 42.75 
Q 14.984375 37.109375 14.984375 27.296875 
Q 14.984375 17.484375 19.15625 11.84375 
Q 23.34375 6.203125 30.609375 6.203125 
Q 37.796875 6.203125 41.984375 11.859375 
Q 46.1875 17.53125 46.1875 27.296875 
Q 46.1875 37.015625 41.984375 42.703125 
Q 37.796875 48.390625 30.609375 48.390625 
z
M 30.609375 56 
Q 42.328125 56 49.015625 48.375 
Q 55.71875 40.765625 55.71875 27.296875 
Q 55.71875 13.875 49.015625 6.21875 
Q 42.328125 -1.421875 30.609375 -1.421875 
Q 18.84375 -1.421875 12.171875 6.21875 
Q 5.515625 13.875 5.515625 27.296875 
Q 5.515625 40.765625 12.171875 48.375 
Q 18.84375 56 30.609375 56 
z
" id="DejaVuSans-111"/>
       <path d="M 44.28125 53.078125 
L 44.28125 44.578125 
Q 40.484375 46.53125 36.375 47.5 
Q 32.28125 48.484375 27.875 48.484375 
Q 21.1875 48.484375 17.84375 46.4375 
Q 14.5 44.390625 14.5 40.28125 
Q 14.5 37.15625 16.890625 35.375 
Q 19.28125 33.59375 26.515625 31.984375 
L 29.59375 31.296875 
Q 39.15625 29.25 43.1875 25.515625 
Q 47.21875 21.78125 47.21875 15.09375 
Q 47.21875 7.46875 41.1875 3.015625 
Q 35.15625 -1.421875 24.609375 -1.421875 
Q 20.21875 -1.421875 15.453125 -0.5625 
Q 10.6875 0.296875 5.421875 2 
L 5.421875 11.28125 
Q 10.40625 8.6875 15.234375 7.390625 
Q 20.0625 6.109375 24.8125 6.109375 
Q 31.15625 6.109375 34.5625 8.28125 
Q 37.984375 10.453125 37.984375 14.40625 
Q 37.984375 18.0625 35.515625 20.015625 
Q 33.0625 21.96875 24.703125 23.78125 
L 21.578125 24.515625 
Q 13.234375 26.265625 9.515625 29.90625 
Q 5.8125 33.546875 5.8125 39.890625 
Q 5.8125 47.609375 11.28125 51.796875 
Q 16.75 56 26.8125 56 
Q 31.78125 56 36.171875 55.265625 
Q 40.578125 54.546875 44.28125 53.078125 
z
" id="DejaVuSans-115"/>
      </defs>
      <use xlink:href="#DejaVuSans-71"/>
      <use x="77.490234" xlink:href="#DejaVuSans-101"/>
      <use x="139.013672" xlink:href="#DejaVuSans-110"/>
      <use x="202.392578" xlink:href="#DejaVuSans-101"/>
      <use x="263.916016" xlink:href="#DejaVuSans-114"/>
      <use x="305.029297" xlink:href="#DejaVuSans-97"/>
      <use x="366.308594" xlink:href="#DejaVuSans-116"/>
      <use x="405.517578" xlink:href="#DejaVuSans-105"/>
      <use x="433.300781" xlink:href="#DejaVuSans-111"/>
      <use x="494.482422" xlink:href="#DejaVuSans-110"/>
      <use x="557.861328" xlink:href="#DejaVuSans-115"/>
     </g>
    </g>
   </g>
   <g id="matplotlib.axis_2">
    <g id="ytick_1">
     <g id="line2d_15">
      <path clip-path="url(#p1012bdf688)" d="M 57.6 276.912818 
L 414.72 276.912818 
" style="fill:none;stroke:#b0b0b0;stroke-linecap:square;stroke-width:0.8;"/>
     </g>
     <g id="line2d_16">
      <defs>
       <path d="M 0 0 
L -3.5 0 
" id="m7ae7f8e71f" style="stroke:#000000;stroke-width:0.8;"/>
      </defs>
      <g>
       <use style="stroke:#000000;stroke-width:0.8;" x="57.6" xlink:href="#m7ae7f8e71f" y="276.912818"/>
      </g>
     </g>
     <g id="text_9">
      <!-- $\mathdefault{-10^{3}}$ -->
      <g transform="translate(24.6 280.712036)scale(0.1 -0.1)">
       <defs>
        <path d="M 10.59375 35.5 
L 73.1875 35.5 
L 73.1875 27.203125 
L 10.59375 27.203125 
z
" id="DejaVuSans-8722"/>
       </defs>
       <use transform="translate(0 0.765625)" xlink:href="#DejaVuSans-8722"/>
       <use transform="translate(83.789062 0.765625)" xlink:href="#DejaVuSans-49"/>
       <use transform="translate(147.412109 0.765625)" xlink:href="#DejaVuSans-48"/>
       <use transform="translate(211.992188 39.046875)scale(0.7)" xlink:href="#DejaVuSans-51"/>
      </g>
     </g>
    </g>
    <g id="ytick_2">
     <g id="line2d_17">
      <path clip-path="url(#p1012bdf688)" d="M 57.6 242.585158 
L 414.72 242.585158 
" style="fill:none;stroke:#b0b0b0;stroke-linecap:square;stroke-width:0.8;"/>
     </g>
     <g id="line2d_18">
      <g>
       <use style="stroke:#000000;stroke-width:0.8;" x="57.6" xlink:href="#m7ae7f8e71f" y="242.585158"/>
      </g>
     </g>
     <g id="text_10">
      <!-- $\mathdefault{-10^{2}}$ -->
      <g transform="translate(24.6 246.384377)scale(0.1 -0.1)">
       <use transform="translate(0 0.765625)" xlink:href="#DejaVuSans-8722"/>
       <use transform="translate(83.789062 0.765625)" xlink:href="#DejaVuSans-49"/>
       <use transform="translate(147.412109 0.765625)" xlink:href="#DejaVuSans-48"/>
       <use transform="translate(211.992188 39.046875)scale(0.7)" xlink:href="#DejaVuSans-50"/>
      </g>
     </g>
    </g>
    <g id="ytick_3">
     <g id="line2d_19">
      <path clip-path="url(#p1012bdf688)" d="M 57.6 208.257499 
L 414.72 208.257499 
" style="fill:none;stroke:#b0b0b0;stroke-linecap:square;stroke-width:0.8;"/>
     </g>
     <g id="line2d_20">
      <g>
       <use style="stroke:#000000;stroke-width:0.8;" x="57.6" xlink:href="#m7ae7f8e71f" y="208.257499"/>
      </g>
     </g>
     <g id="text_11">
      <!-- $\mathdefault{-10^{1}}$ -->
      <g transform="translate(24.6 212.056718)scale(0.1 -0.1)">
       <use transform="translate(0 0.684375)" xlink:href="#DejaVuSans-8722"/>
       <use transform="translate(83.789062 0.684375)" xlink:href="#DejaVuSans-49"/>
       <use transform="translate(147.412109 0.684375)" xlink:href="#DejaVuSans-48"/>
       <use transform="translate(211.992188 38.965625)scale(0.7)" xlink:href="#DejaVuSans-49"/>
      </g>
     </g>
    </g>
    <g id="ytick_4">
     <g id="line2d_21">
      <path clip-path="url(#p1012bdf688)" d="M 57.6 165.192573 
L 414.72 165.192573 
" style="fill:none;stroke:#b0b0b0;stroke-linecap:square;stroke-width:0.8;"/>
     </g>
     <g id="line2d_22">
      <g>
       <use style="stroke:#000000;stroke-width:0.8;" x="57.6" xlink:href="#m7ae7f8e71f" y="165.192573"/>
      </g>
     </g>
     <g id="text_12">
      <!-- $\mathdefault{-10^{0}}$ -->
      <g transform="translate(24.6 168.991792)scale(0.1 -0.1)">
       <use transform="translate(0 0.765625)" xlink:href="#DejaVuSans-8722"/>
       <use transform="translate(83.789062 0.765625)" xlink:href="#DejaVuSans-49"/>
       <use transform="translate(147.412109 0.765625)" xlink:href="#DejaVuSans-48"/>
       <use transform="translate(211.992188 39.046875)scale(0.7)" xlink:href="#DejaVuSans-48"/>
      </g>
     </g>
    </g>
    <g id="ytick_5">
     <g id="line2d_23">
      <path clip-path="url(#p1012bdf688)" d="M 57.6 146.121651 
L 414.72 146.121651 
" style="fill:none;stroke:#b0b0b0;stroke-linecap:square;stroke-width:0.8;"/>
     </g>
     <g id="line2d_24">
      <g>
       <use style="stroke:#000000;stroke-width:0.8;" x="57.6" xlink:href="#m7ae7f8e71f" y="146.121651"/>
      </g>
     </g>
     <g id="text_13">
      <!-- $\mathdefault{0}$ -->
      <g transform="translate(44.2 149.92087)scale(0.1 -0.1)">
       <use transform="translate(0 0.78125)" xlink:href="#DejaVuSans-48"/>
      </g>
     </g>
    </g>
    <g id="ytick_6">
     <g id="line2d_25">
      <path clip-path="url(#p1012bdf688)" d="M 57.6 127.05073 
L 414.72 127.05073 
" style="fill:none;stroke:#b0b0b0;stroke-linecap:square;stroke-width:0.8;"/>
     </g>
     <g id="line2d_26">
      <g>
       <use style="stroke:#000000;stroke-width:0.8;" x="57.6" xlink:href="#m7ae7f8e71f" y="127.05073"/>
      </g>
     </g>
     <g id="text_14">
      <!-- $\mathdefault{10^{0}}$ -->
      <g transform="translate(33 130.849948)scale(0.1 -0.1)">
       <use transform="translate(0 0.765625)" xlink:href="#DejaVuSans-49"/>
       <use transform="translate(63.623047 0.765625)" xlink:href="#DejaVuSans-48"/>
       <use transform="translate(128.203125 39.046875)scale(0.7)" xlink:href="#DejaVuSans-48"/>
      </g>
     </g>
    </g>
    <g id="ytick_7">
     <g id="line2d_27">
      <path clip-path="url(#p1012bdf688)" d="M 57.6 83.985804 
L 414.72 83.985804 
" style="fill:none;stroke:#b0b0b0;stroke-linecap:square;stroke-width:0.8;"/>
     </g>
     <g id="line2d_28">
      <g>
       <use style="stroke:#000000;stroke-width:0.8;" x="57.6" xlink:href="#m7ae7f8e71f" y="83.985804"/>
      </g>
     </g>
     <g id="text_15">
      <!-- $\mathdefault{10^{1}}$ -->
      <g transform="translate(33 87.785022)scale(0.1 -0.1)">
       <use transform="translate(0 0.684375)" xlink:href="#DejaVuSans-49"/>
       <use transform="translate(63.623047 0.684375)" xlink:href="#DejaVuSans-48"/>
       <use transform="translate(128.203125 38.965625)scale(0.7)" xlink:href="#DejaVuSans-49"/>
      </g>
     </g>
    </g>
    <g id="ytick_8">
     <g id="line2d_29">
      <path clip-path="url(#p1012bdf688)" d="M 57.6 49.658144 
L 414.72 49.658144 
" style="fill:none;stroke:#b0b0b0;stroke-linecap:square;stroke-width:0.8;"/>
     </g>
     <g id="line2d_30">
      <g>
       <use style="stroke:#000000;stroke-width:0.8;" x="57.6" xlink:href="#m7ae7f8e71f" y="49.658144"/>
      </g>
     </g>
     <g id="text_16">
      <!-- $\mathdefault{10^{2}}$ -->
      <g transform="translate(33 53.457363)scale(0.1 -0.1)">
       <use transform="translate(0 0.765625)" xlink:href="#DejaVuSans-49"/>
       <use transform="translate(63.623047 0.765625)" xlink:href="#DejaVuSans-48"/>
       <use transform="translate(128.203125 39.046875)scale(0.7)" xlink:href="#DejaVuSans-50"/>
      </g>
     </g>
    </g>
    <g id="text_17">
     <!-- Fitness -->
     <g transform="translate(18.520312 191.845187)rotate(-90)scale(0.1 -0.1)">
      <defs>
       <path d="M 9.8125 72.90625 
L 51.703125 72.90625 
L 51.703125 64.59375 
L 19.671875 64.59375 
L 19.671875 43.109375 
L 48.578125 43.109375 
L 48.578125 34.8125 
L 19.671875 34.8125 
L 19.671875 0 
L 9.8125 0 
z
" id="DejaVuSans-70"/>
      </defs>
      <use xlink:href="#DejaVuSans-70"/>
      <use x="50.269531" xlink:href="#DejaVuSans-105"/>
      <use x="78.052734" xlink:href="#DejaVuSans-116"/>
      <use x="117.261719" xlink:href="#DejaVuSans-110"/>
      <use x="180.640625" xlink:href="#DejaVuSans-101"/>
      <use x="242.164062" xlink:href="#DejaVuSans-115"/>
      <use x="294.263672" xlink:href="#DejaVuSans-115"/>
     </g>
    </g>
   </g>
   <g id="line2d_31">
    <path clip-path="url(#p1012bdf688)" d="M 73.832727 295.488 
L 74.332965 291.502319 
L 74.833204 289.169574 
L 75.333442 289.959711 
L 76.333918 285.838825 
L 76.834156 288.099514 
L 77.334394 286.453415 
L 77.834632 284.396274 
L 78.33487 285.946052 
L 78.835109 282.674447 
L 79.335347 285.122598 
L 79.835585 284.766722 
L 80.335823 283.573986 
L 80.836061 283.08922 
L 81.336299 283.826986 
L 81.836537 284.218842 
L 82.336775 282.079518 
L 82.837014 285.119769 
L 83.337252 284.391941 
L 84.337728 283.913433 
L 84.837966 286.767282 
L 85.338204 285.794766 
L 85.838442 286.581725 
L 86.33868 284.091236 
L 86.838919 282.604292 
L 87.339157 285.148239 
L 87.839395 286.109882 
L 88.839871 284.40079 
L 89.340109 285.493579 
L 89.840347 282.475187 
L 90.840824 285.377101 
L 91.341062 281.826617 
L 91.8413 283.528128 
L 92.341538 283.527308 
L 92.841776 283.775826 
L 93.342014 281.68456 
L 93.842252 281.703669 
L 94.342491 281.299208 
L 94.842729 283.796582 
L 95.342967 281.6944 
L 95.843205 281.454104 
L 96.343443 282.57629 
L 97.343919 276.765282 
L 97.844157 279.331725 
L 98.344396 280.654545 
L 98.844634 281.648274 
L 99.344872 283.379878 
L 100.345348 277.903474 
L 100.845586 283.202731 
L 101.345824 280.300951 
L 101.846062 275.643663 
L 102.346301 275.789999 
L 102.846539 278.865432 
L 103.346777 277.528624 
L 103.847015 277.321038 
L 104.347253 274.862252 
L 104.847491 276.434936 
L 105.347729 280.395228 
L 105.847968 277.883226 
L 106.348206 278.894569 
L 106.848444 278.31376 
L 107.348682 280.249479 
L 107.84892 281.292913 
L 108.349158 281.574676 
L 108.849396 276.65536 
L 109.349634 279.693723 
L 109.849873 277.821273 
L 110.350111 279.265021 
L 110.850349 277.877116 
L 111.350587 281.384077 
L 111.850825 280.184265 
L 112.351063 280.248928 
L 112.851301 279.804586 
L 113.351539 277.274761 
L 113.851778 279.273117 
L 114.352016 278.091314 
L 114.852254 275.970667 
L 115.352492 275.964557 
L 115.85273 271.967117 
L 116.352968 281.061785 
L 116.853206 281.537246 
L 117.353444 274.045637 
L 117.853683 271.477877 
L 118.353921 274.294592 
L 118.854159 276.352665 
L 119.854635 271.704286 
L 120.354873 277.930281 
L 120.855111 272.575992 
L 121.355349 278.818445 
L 121.855588 274.96159 
L 122.355826 274.192249 
L 122.856064 271.659801 
L 123.356302 275.410602 
L 123.85654 277.393388 
L 124.356778 277.436197 
L 124.857016 272.273794 
L 125.357255 276.547634 
L 125.857493 276.778038 
L 126.357731 279.174308 
L 126.857969 278.428525 
L 127.358207 274.818211 
L 127.858445 274.857173 
L 128.358683 277.018529 
L 128.858921 278.535477 
L 129.35916 276.396743 
L 129.859398 277.533157 
L 130.359636 275.251158 
L 130.859874 275.916261 
L 131.360112 279.489746 
L 131.86035 279.788612 
L 132.360588 276.847449 
L 132.860826 277.95735 
L 133.361065 278.689007 
L 133.861303 273.181641 
L 134.361541 278.191494 
L 134.861779 277.196466 
L 135.362017 279.47247 
L 135.862255 276.841375 
L 136.862731 276.34146 
L 137.36297 272.681168 
L 137.863208 273.94132 
L 138.363446 275.801022 
L 138.863684 275.781364 
L 139.363922 271.728333 
L 139.86416 275.627715 
L 140.864637 275.258703 
L 141.364875 273.384708 
L 141.865113 277.0438 
L 142.365351 273.409561 
L 142.865589 275.678664 
L 143.365827 275.575905 
L 143.866065 274.028429 
L 144.366303 273.827256 
L 144.866542 268.7728 
L 145.36678 275.797931 
L 145.867018 269.156477 
L 146.367256 272.934161 
L 146.867494 271.735391 
L 147.367732 272.315705 
L 147.86797 271.927063 
L 148.368208 270.795962 
L 148.868447 270.931689 
L 149.368685 278.876478 
L 149.868923 269.309101 
L 150.369161 267.759218 
L 150.869399 270.690703 
L 151.369637 274.821224 
L 151.869875 276.33838 
L 152.370113 273.158188 
L 152.870352 273.132293 
L 153.37059 268.587725 
L 153.870828 272.65948 
L 154.371066 274.367336 
L 154.871304 274.061071 
L 155.87178 269.411948 
L 156.372018 271.092663 
L 156.872257 270.422412 
L 157.372495 274.097022 
L 157.872733 269.139783 
L 158.372971 270.502922 
L 158.873209 273.796085 
L 159.373447 270.999798 
L 159.873685 271.074946 
L 160.373924 274.203071 
L 160.874162 278.250149 
L 161.3744 275.92003 
L 161.874638 274.846853 
L 162.374876 275.909759 
L 162.875114 273.443639 
L 163.375352 269.948686 
L 163.87559 274.25745 
L 164.375829 275.773928 
L 164.876067 272.600897 
L 165.376305 271.807062 
L 165.876543 274.288161 
L 166.376781 272.171055 
L 166.877019 271.569844 
L 167.377257 278.586779 
L 167.877495 276.849103 
L 168.377734 276.818363 
L 168.877972 270.370561 
L 169.37821 275.712636 
L 169.878448 276.764152 
L 170.378686 279.099793 
L 170.878924 278.7416 
L 171.379162 274.901716 
L 171.8794 277.296914 
L 172.379639 275.963412 
L 172.879877 278.842584 
L 173.380115 279.118008 
L 173.880353 274.694946 
L 174.380591 278.630753 
L 175.381067 275.046693 
L 175.881306 275.125013 
L 176.381544 276.875088 
L 176.881782 281.51808 
L 177.38202 277.434774 
L 177.882258 276.085868 
L 178.382496 277.316503 
L 178.882734 276.678723 
L 179.382972 275.205256 
L 179.883211 275.75459 
L 180.383449 273.550385 
L 180.883687 278.341067 
L 181.383925 273.964081 
L 181.884163 275.956308 
L 182.884639 278.551637 
L 183.384877 279.241552 
L 183.885116 278.734385 
L 184.385354 274.717172 
L 184.885592 274.77177 
L 185.38583 276.735328 
L 185.886068 275.88854 
L 186.386306 280.731256 
L 186.886544 280.038378 
L 187.386782 276.051839 
L 187.887021 279.780018 
L 188.387259 281.748209 
L 188.887497 277.571064 
L 189.387735 278.173039 
L 189.887973 277.738994 
L 190.388211 279.73396 
L 190.888449 276.202834 
L 191.388687 281.109652 
L 191.888926 279.978884 
L 192.389164 277.968023 
L 192.889402 279.678662 
L 193.38964 276.783781 
L 193.889878 276.057243 
L 194.390116 276.588032 
L 194.890354 284.076042 
L 195.390593 284.29824 
L 195.890831 282.9272 
L 196.391069 280.872076 
L 196.891307 280.275556 
L 197.391545 277.383062 
L 197.891783 278.119295 
L 198.392021 274.412116 
L 198.892259 275.998573 
L 199.392498 279.065339 
L 199.892736 277.469029 
L 200.392974 279.802065 
L 200.893212 279.310617 
L 201.39345 275.371062 
L 201.893688 278.72678 
L 202.393926 278.278825 
L 202.894164 279.961404 
L 203.394403 278.119068 
L 204.394879 280.4827 
L 204.895117 277.502274 
L 205.395355 278.869173 
L 205.895593 274.399153 
L 206.395831 278.26114 
L 206.896069 278.523403 
L 207.396308 280.418937 
L 207.896546 283.354437 
L 208.396784 279.042899 
L 208.897022 276.123857 
L 209.39726 275.132518 
L 209.897498 278.243047 
L 210.397736 277.183518 
L 211.398213 276.911192 
L 211.898451 280.069238 
L 212.398689 277.080525 
L 212.898927 278.081142 
L 213.399165 277.249758 
L 213.899403 276.904012 
L 214.399641 277.577132 
L 215.400118 277.034606 
L 215.900356 274.893743 
L 216.400594 274.513297 
L 216.900832 274.373064 
L 217.40107 277.120547 
L 217.901308 277.153766 
L 218.401546 279.411477 
L 218.901785 283.090556 
L 219.402023 278.439563 
L 219.902261 276.894995 
L 220.402499 278.468189 
L 220.902737 276.561199 
L 221.402975 277.290131 
L 221.903213 278.957792 
L 222.403451 276.220349 
L 222.90369 276.603546 
L 223.403928 275.506659 
L 223.904166 278.293876 
L 224.404404 277.985591 
L 224.904642 274.758844 
L 225.40488 273.368905 
L 225.905118 271.455949 
L 226.405356 272.494805 
L 226.905595 270.769368 
L 227.405833 272.866028 
L 227.906071 274.351976 
L 228.406309 274.633158 
L 229.406785 277.999695 
L 229.907023 276.799711 
L 230.407262 278.469973 
L 230.9075 281.8749 
L 231.407738 278.20422 
L 231.907976 277.207307 
L 232.408214 275.846881 
L 232.908452 278.704802 
L 233.40869 278.921051 
L 233.908928 276.592561 
L 234.409167 271.386528 
L 234.909405 274.647431 
L 235.409643 273.439908 
L 235.909881 277.940763 
L 236.410119 278.512689 
L 236.910357 274.117274 
L 237.410595 275.993415 
L 237.910833 276.784233 
L 238.411072 277.230291 
L 238.91131 282.940489 
L 239.411548 280.792055 
L 239.911786 280.800381 
L 240.412024 281.51533 
L 240.912262 278.675403 
L 241.4125 282.665962 
L 241.912738 281.734547 
L 242.412977 284.536123 
L 242.913215 278.51463 
L 243.413453 277.405281 
L 243.913691 281.251692 
L 244.413929 277.408793 
L 244.914167 283.059135 
L 245.414405 279.202723 
L 245.914644 281.544265 
L 246.414882 279.598791 
L 246.91512 280.973865 
L 247.415358 280.956636 
L 247.915596 283.69166 
L 248.415834 281.678709 
L 248.916072 279.052449 
L 249.41631 278.628951 
L 249.916549 281.527596 
L 250.416787 282.784288 
L 250.917025 284.742105 
L 251.417263 282.06639 
L 251.917501 281.452998 
L 252.417739 283.30435 
L 252.917977 283.938609 
L 253.418215 282.1112 
L 253.918454 282.371617 
L 254.418692 278.362971 
L 254.91893 280.904019 
L 255.419168 279.534199 
L 255.919406 283.837179 
L 256.919882 280.417323 
L 257.42012 279.581734 
L 257.920359 276.051706 
L 258.420597 277.013802 
L 258.920835 280.715688 
L 259.421073 282.055117 
L 259.921311 281.0783 
L 260.421549 279.211031 
L 260.921787 275.76164 
L 261.422025 279.864252 
L 261.922264 278.870293 
L 262.422502 279.575946 
L 262.92274 278.660699 
L 263.422978 279.610292 
L 263.923216 274.516632 
L 264.423454 276.085697 
L 264.923692 279.133991 
L 265.423931 278.490302 
L 265.924169 282.510635 
L 266.424407 283.655699 
L 267.424883 280.392785 
L 267.925121 277.278588 
L 268.425359 282.192554 
L 268.925597 279.729627 
L 269.425836 278.177058 
L 269.926074 278.159724 
L 270.426312 278.398553 
L 270.92655 282.227286 
L 271.426788 278.726658 
L 271.927026 278.52855 
L 272.427264 279.391276 
L 272.927502 278.596922 
L 273.427741 285.278035 
L 273.927979 278.558382 
L 274.428217 280.869694 
L 274.928455 278.942414 
L 275.428693 277.948343 
L 276.429169 280.893886 
L 276.929407 281.543579 
L 277.429646 280.154845 
L 277.929884 281.65611 
L 278.93036 274.663214 
L 279.430598 277.620397 
L 279.930836 277.21695 
L 280.431074 276.542782 
L 280.931313 277.066673 
L 281.431551 277.401098 
L 281.931789 278.219038 
L 282.432027 277.248226 
L 282.932265 278.518495 
L 283.432503 279.107088 
L 283.932741 279.397041 
L 284.432979 276.655871 
L 284.933218 282.097073 
L 285.433456 282.254634 
L 285.933694 279.623713 
L 286.433932 279.320944 
L 286.93417 280.688598 
L 287.434408 280.526205 
L 287.934646 280.822954 
L 288.434884 275.185023 
L 288.935123 277.453242 
L 289.435361 283.36635 
L 289.935599 276.699683 
L 290.435837 279.877249 
L 290.936075 282.023482 
L 291.436313 281.271533 
L 291.936551 283.519457 
L 292.436789 279.730968 
L 292.937028 283.546348 
L 293.437266 279.512854 
L 293.937504 273.358044 
L 294.437742 278.469926 
L 294.93798 279.178055 
L 295.438218 279.085754 
L 295.938456 282.323638 
L 296.438694 279.860805 
L 296.938933 279.90071 
L 297.939409 281.489972 
L 298.439647 283.524202 
L 298.939885 283.746646 
L 299.940361 282.15274 
L 300.4406 279.729289 
L 300.940838 282.373893 
L 301.441076 281.800523 
L 301.941314 274.755209 
L 302.441552 282.363799 
L 302.94179 276.568005 
L 303.942266 283.101668 
L 304.442505 278.360723 
L 304.942743 281.186126 
L 305.442981 279.450099 
L 306.443457 281.688537 
L 306.943695 279.409257 
L 307.443933 279.009019 
L 307.944171 282.727493 
L 308.44441 277.56164 
L 308.944648 278.801238 
L 309.444886 281.780129 
L 309.945124 282.777586 
L 310.445362 277.407707 
L 310.9456 281.96652 
L 311.445838 280.636392 
L 311.946076 280.745871 
L 312.446315 281.478862 
L 312.946553 282.456286 
L 313.446791 278.695495 
L 313.947029 281.664174 
L 314.447267 279.466844 
L 315.447743 273.588744 
L 315.947982 277.313842 
L 316.44822 275.580011 
L 316.948458 281.179891 
L 317.448696 277.523013 
L 317.948934 278.610006 
L 318.449172 283.094531 
L 318.94941 280.250295 
L 319.449648 274.104139 
L 319.949887 277.990113 
L 320.450125 278.299019 
L 320.950363 281.151461 
L 321.450601 279.381622 
L 321.950839 283.107321 
L 322.451077 280.598302 
L 322.951315 276.483311 
L 323.451553 281.110465 
L 323.951792 278.200177 
L 324.45203 279.201354 
L 324.952268 277.72538 
L 325.952744 278.939834 
L 326.452982 281.43962 
L 326.95322 282.651172 
L 327.453458 281.279793 
L 327.953697 283.852188 
L 328.453935 284.875793 
L 328.954173 283.531072 
L 329.454411 280.650996 
L 329.954649 281.440799 
L 330.454887 280.794279 
L 330.955125 284.300845 
L 331.455363 280.683701 
L 331.955602 281.778035 
L 332.45584 279.903116 
L 332.956078 276.978317 
L 333.456316 278.128048 
L 333.956554 283.771687 
L 334.456792 278.345018 
L 334.95703 284.000019 
L 335.457269 279.732467 
L 335.957507 283.635743 
L 336.457745 279.760573 
L 336.957983 278.949478 
L 337.458221 279.473432 
L 337.958459 276.807563 
L 338.458697 281.38087 
L 338.958935 279.414257 
L 339.459174 281.467913 
L 339.959412 278.865376 
L 340.45965 277.758468 
L 340.959888 277.380892 
L 341.460126 281.593689 
L 341.960364 278.835748 
L 342.460602 280.55705 
L 342.96084 284.703555 
L 343.461079 284.025425 
L 343.961317 285.032952 
L 344.961793 277.82396 
L 345.462031 282.75524 
L 345.962269 283.673955 
L 346.462507 279.949715 
L 346.962745 281.36685 
L 347.462984 282.002604 
L 347.963222 278.596125 
L 348.46346 282.791391 
L 348.963698 283.093288 
L 349.463936 281.834895 
L 349.964174 278.48941 
L 350.464412 281.081074 
L 350.964651 278.027209 
L 351.464889 281.735765 
L 351.965127 284.370311 
L 352.465365 281.359359 
L 352.965603 281.377893 
L 353.465841 279.545478 
L 353.966079 279.661319 
L 354.466317 280.240012 
L 354.966556 281.695033 
L 355.466794 279.127139 
L 356.46727 283.058866 
L 356.967508 280.147284 
L 357.467746 278.231579 
L 357.967984 280.949052 
L 358.468222 282.527771 
L 358.968461 281.907382 
L 359.468699 280.592852 
L 359.968937 283.955637 
L 360.469175 277.087306 
L 360.969413 284.659118 
L 361.469651 284.066174 
L 361.969889 281.911854 
L 362.470127 282.724811 
L 362.970366 276.189043 
L 363.470604 280.189658 
L 363.970842 281.042945 
L 364.47108 283.161391 
L 364.971318 282.92405 
L 365.471556 280.901743 
L 365.971794 282.271439 
L 366.472032 276.650262 
L 366.972271 277.664543 
L 367.472509 280.485462 
L 367.972747 278.897959 
L 368.472985 278.704016 
L 369.473461 281.374299 
L 369.973699 278.810055 
L 370.473938 279.875728 
L 370.974176 276.727867 
L 371.474414 282.29458 
L 371.974652 277.879217 
L 372.47489 278.318662 
L 372.975128 280.67788 
L 373.475366 284.997509 
L 373.975604 283.356855 
L 374.976081 278.875821 
L 375.476319 282.640916 
L 375.976557 283.471659 
L 376.476795 282.287021 
L 376.977033 281.865123 
L 377.477271 280.720109 
L 377.977509 284.781302 
L 378.477748 281.385022 
L 378.977986 280.835821 
L 379.478224 279.497661 
L 379.978462 279.989333 
L 380.4787 280.045961 
L 380.978938 276.466299 
L 381.979414 281.4138 
L 382.479653 282.159584 
L 382.979891 278.221499 
L 383.480129 282.538343 
L 383.980367 279.284636 
L 384.480605 283.741588 
L 384.980843 281.72567 
L 385.481081 282.112983 
L 385.98132 279.306342 
L 386.481558 279.821868 
L 386.981796 280.597775 
L 387.482034 283.113 
L 387.982272 280.904193 
L 388.48251 280.113523 
L 388.982748 279.734216 
L 389.482986 275.701346 
L 389.983225 280.21474 
L 390.483463 278.325833 
L 390.983701 278.823777 
L 391.483939 276.781744 
L 391.984177 277.674916 
L 392.484415 275.533424 
L 392.984653 277.721196 
L 393.484891 278.087315 
L 393.98513 276.450707 
L 394.485368 279.131266 
L 394.985606 278.013306 
L 395.485844 277.752564 
L 395.986082 277.19396 
L 396.48632 278.845581 
L 396.986558 279.411511 
L 397.486796 280.797419 
L 397.987035 278.067269 
L 398.487273 276.618285 
L 398.487273 276.618285 
" style="fill:none;stroke:#0000ff;stroke-linecap:square;stroke-width:1.5;"/>
   </g>
   <g id="line2d_32">
    <path clip-path="url(#p1012bdf688)" d="M 73.832727 280.550358 
L 74.833204 275.678414 
L 75.333442 278.555117 
L 75.83368 274.97962 
L 76.333918 274.520527 
L 76.834156 274.23507 
L 77.834632 271.571887 
L 78.33487 272.695011 
L 78.835109 272.054789 
L 79.335347 274.376643 
L 79.835585 281.419922 
L 80.335823 276.831904 
L 80.836061 278.898056 
L 81.336299 273.756376 
L 81.836537 280.175711 
L 82.336775 270.873976 
L 82.837014 279.413656 
L 83.337252 265.751927 
L 83.83749 278.740323 
L 84.337728 268.609128 
L 84.837966 268.540633 
L 85.338204 280.397733 
L 85.838442 273.096463 
L 86.33868 279.238962 
L 86.838919 270.229152 
L 87.339157 279.802658 
L 87.839395 273.567252 
L 88.339633 278.072991 
L 89.340109 280.289644 
L 89.840347 276.347919 
L 90.340586 270.68319 
L 90.840824 277.834474 
L 91.341062 274.510203 
L 91.8413 276.790793 
L 92.341538 276.610948 
L 92.841776 279.477528 
L 93.342014 266.64869 
L 93.842252 269.620178 
L 94.342491 263.841328 
L 94.842729 260.522079 
L 95.342967 266.146167 
L 95.843205 263.175064 
L 96.343443 262.24651 
L 96.843681 268.711888 
L 97.343919 262.017901 
L 97.844157 260.123503 
L 98.344396 261.344376 
L 98.844634 209.713721 
L 99.344872 261.743895 
L 99.84511 262.868867 
L 100.345348 258.935437 
L 100.845586 258.131402 
L 101.345824 237.280496 
L 101.846062 254.394184 
L 102.346301 251.571451 
L 102.846539 246.891627 
L 103.346777 236.322155 
L 103.847015 249.169342 
L 104.347253 250.86629 
L 104.847491 254.706217 
L 105.347729 249.822036 
L 105.847968 256.058634 
L 106.348206 252.795509 
L 106.848444 237.351846 
L 107.348682 236.379609 
L 107.84892 254.009039 
L 108.349158 239.595874 
L 108.849396 244.694839 
L 109.349634 241.231899 
L 110.350111 206.950637 
L 110.850349 249.276689 
L 111.350587 253.194704 
L 111.850825 247.138253 
L 112.351063 248.758408 
L 112.851301 242.400532 
L 113.351539 245.753434 
L 113.851778 254.403962 
L 114.352016 230.344135 
L 114.852254 229.092513 
L 115.352492 218.473906 
L 115.85273 66.175305 
L 116.352968 239.026894 
L 116.853206 72.917851 
L 117.353444 185.028433 
L 117.853683 235.920135 
L 118.353921 244.980296 
L 119.354397 214.672218 
L 119.854635 237.339842 
L 120.354873 238.485885 
L 120.855111 235.677383 
L 121.355349 243.188618 
L 121.855588 241.031702 
L 122.355826 248.604899 
L 122.856064 239.671867 
L 123.356302 249.514907 
L 123.85654 229.141553 
L 124.356778 242.380162 
L 124.857016 230.836141 
L 125.357255 216.284936 
L 125.857493 230.951532 
L 126.357731 204.914372 
L 126.857969 220.479309 
L 127.358207 216.85119 
L 127.858445 229.58506 
L 128.358683 245.797793 
L 128.858921 235.414866 
L 129.35916 248.16735 
L 129.859398 227.324593 
L 130.359636 235.159568 
L 130.859874 219.986424 
L 131.360112 218.768801 
L 131.86035 244.567387 
L 132.360588 247.084157 
L 132.860826 246.95535 
L 133.361065 245.072558 
L 134.361541 240.707256 
L 134.861779 248.558346 
L 135.362017 246.122622 
L 135.862255 252.627838 
L 136.362493 229.961053 
L 136.862731 237.877879 
L 137.36297 241.316582 
L 137.863208 242.03986 
L 138.363446 232.547849 
L 138.863684 250.283763 
L 139.363922 242.496609 
L 139.86416 228.30658 
L 140.364398 234.14349 
L 140.864637 237.628556 
L 141.364875 247.265203 
L 141.865113 242.693956 
L 142.365351 235.948133 
L 142.865589 234.566156 
L 143.365827 197.316621 
L 143.866065 245.481704 
L 144.866542 225.640608 
L 145.36678 235.176299 
L 145.867018 247.491357 
L 146.367256 231.866374 
L 146.867494 245.573954 
L 147.367732 238.715219 
L 147.86797 235.935157 
L 148.368208 215.559816 
L 148.868447 219.487489 
L 149.368685 228.41383 
L 149.868923 232.248172 
L 150.369161 227.551599 
L 150.869399 239.655872 
L 151.369637 227.817801 
L 151.869875 238.975481 
L 152.370113 239.860793 
L 152.870352 201.311399 
L 153.37059 223.787031 
L 153.870828 233.835643 
L 154.371066 236.006117 
L 154.871304 220.224367 
L 155.371542 225.825721 
L 155.87178 223.19492 
L 156.372018 233.063121 
L 156.872257 226.619581 
L 157.372495 241.819856 
L 157.872733 218.960013 
L 158.372971 220.038355 
L 158.873209 240.99829 
L 159.873685 229.262194 
L 160.373924 231.710228 
L 160.874162 237.232139 
L 161.3744 229.37116 
L 161.874638 235.005534 
L 162.374876 243.367094 
L 162.875114 241.436072 
L 163.375352 224.921636 
L 163.87559 237.463293 
L 164.375829 242.450516 
L 164.876067 222.030168 
L 165.376305 206.404818 
L 165.876543 240.469131 
L 166.376781 234.581763 
L 166.877019 262.99628 
L 167.377257 245.712937 
L 167.877495 267.728537 
L 168.377734 240.583929 
L 168.877972 244.803082 
L 169.37821 235.180786 
L 170.378686 241.840104 
L 170.878924 230.59641 
L 171.379162 75.870673 
L 171.8794 232.91546 
L 172.379639 245.491537 
L 172.879877 245.430301 
L 173.380115 203.489572 
L 173.880353 227.102496 
L 174.380591 232.529202 
L 174.880829 242.132934 
L 175.381067 233.360263 
L 175.881306 244.788848 
L 176.381544 238.037707 
L 176.881782 211.179991 
L 177.38202 235.194722 
L 177.882258 245.573922 
L 178.382496 243.75236 
L 178.882734 237.508971 
L 179.883211 218.805574 
L 180.383449 245.300992 
L 180.883687 237.860265 
L 181.383925 209.730091 
L 181.884163 203.046108 
L 182.384401 223.676369 
L 182.884639 219.678447 
L 183.384877 242.485869 
L 183.885116 229.439617 
L 184.385354 225.257185 
L 184.885592 234.840405 
L 185.38583 237.910081 
L 185.886068 236.698033 
L 186.386306 243.369832 
L 186.886544 237.530662 
L 187.386782 236.727841 
L 187.887021 231.453669 
L 188.387259 244.588841 
L 188.887497 239.24649 
L 189.387735 232.438425 
L 189.887973 217.850821 
L 190.388211 240.300571 
L 190.888449 246.225222 
L 191.388687 134.914747 
L 191.888926 66.106373 
L 192.389164 243.765694 
L 192.889402 254.545243 
L 193.38964 239.945941 
L 193.889878 238.343439 
L 194.390116 244.967339 
L 195.390593 235.21457 
L 195.890831 221.232072 
L 196.391069 250.665426 
L 196.891307 239.091608 
L 197.391545 240.211466 
L 197.891783 225.583258 
L 198.892259 239.595315 
L 199.392498 235.500631 
L 199.892736 237.235285 
L 200.392974 238.208909 
L 200.893212 240.288979 
L 201.39345 239.941859 
L 201.893688 81.503546 
L 202.393926 243.34172 
L 202.894164 248.193798 
L 203.394403 246.899392 
L 203.894641 239.874656 
L 204.394879 247.503888 
L 205.395355 225.25367 
L 205.895593 242.522621 
L 206.395831 242.317976 
L 206.896069 241.425374 
L 207.396308 243.346461 
L 207.896546 236.341231 
L 208.396784 247.557485 
L 208.897022 246.745598 
L 209.39726 234.808821 
L 209.897498 229.172241 
L 210.397736 244.887297 
L 211.398213 234.812827 
L 211.898451 239.464869 
L 212.398689 218.301521 
L 212.898927 245.498419 
L 213.399165 236.391605 
L 214.399641 251.2486 
L 214.89988 226.495659 
L 215.400118 248.819228 
L 215.900356 245.971061 
L 216.400594 230.817359 
L 216.900832 240.765044 
L 217.40107 234.219171 
L 217.901308 251.326988 
L 218.401546 240.519477 
L 218.901785 226.747581 
L 219.402023 252.98275 
L 219.902261 245.807093 
L 220.402499 249.957086 
L 220.902737 241.162065 
L 221.402975 244.817913 
L 221.903213 231.485906 
L 222.403451 249.556441 
L 222.90369 247.637568 
L 223.403928 244.851915 
L 223.904166 245.366473 
L 224.404404 245.103813 
L 224.904642 250.397018 
L 225.40488 238.469716 
L 225.905118 234.639262 
L 226.405356 217.50975 
L 226.905595 243.745996 
L 227.405833 241.25445 
L 227.906071 248.314724 
L 228.406309 245.268807 
L 228.906547 247.328868 
L 229.406785 244.46418 
L 229.907023 248.968314 
L 230.407262 251.743891 
L 230.9075 248.7771 
L 231.407738 239.436772 
L 231.907976 247.214651 
L 232.408214 246.207431 
L 232.908452 252.663811 
L 233.40869 247.844986 
L 233.908928 229.026975 
L 234.409167 252.300908 
L 234.909405 252.035215 
L 235.409643 240.453351 
L 235.909881 243.80568 
L 236.410119 240.843955 
L 236.910357 240.73244 
L 237.410595 247.512315 
L 237.910833 249.053615 
L 238.411072 236.034866 
L 238.91131 254.702922 
L 239.411548 252.916213 
L 239.911786 248.825944 
L 240.412024 237.245648 
L 240.912262 255.249095 
L 241.4125 259.047754 
L 241.912738 254.249073 
L 242.412977 243.775505 
L 242.913215 244.958375 
L 243.413453 244.139505 
L 243.913691 245.165959 
L 244.914167 249.616921 
L 245.414405 245.73501 
L 245.914644 257.204933 
L 246.414882 254.144515 
L 246.91512 256.88657 
L 247.415358 252.719635 
L 247.915596 259.002661 
L 248.415834 239.891201 
L 248.916072 258.735188 
L 249.41631 256.016398 
L 249.916549 254.888405 
L 250.416787 258.256618 
L 250.917025 252.039241 
L 251.417263 249.265697 
L 251.917501 248.524651 
L 252.417739 257.612365 
L 252.917977 258.637101 
L 253.418215 234.004875 
L 253.918454 250.955811 
L 254.418692 255.489105 
L 254.91893 237.732772 
L 255.419168 254.608518 
L 255.919406 253.470538 
L 256.419644 241.53232 
L 256.919882 252.309168 
L 257.42012 252.556255 
L 257.920359 259.148233 
L 258.920835 246.979968 
L 259.421073 252.995074 
L 259.921311 247.834292 
L 260.421549 248.991669 
L 260.921787 242.014703 
L 261.422025 260.508525 
L 261.922264 232.939795 
L 262.422502 243.898575 
L 262.92274 243.946022 
L 263.422978 237.620138 
L 263.923216 224.17654 
L 264.423454 236.725392 
L 264.923692 209.452889 
L 265.423931 237.073299 
L 265.924169 243.92956 
L 266.424407 228.173287 
L 266.924645 234.926172 
L 267.424883 238.752921 
L 267.925121 226.708021 
L 268.425359 238.171362 
L 268.925597 83.850671 
L 269.425836 221.75958 
L 269.926074 63.444143 
L 270.426312 235.911095 
L 270.92655 235.626722 
L 271.426788 220.622892 
L 271.927026 232.802421 
L 272.427264 229.681185 
L 272.927502 230.155965 
L 273.427741 222.305864 
L 273.927979 207.193743 
L 274.428217 242.054291 
L 274.928455 236.045247 
L 275.428693 242.560897 
L 275.928931 220.579776 
L 276.429169 99.09648 
L 276.929407 74.220074 
L 277.429646 92.877123 
L 277.929884 238.648688 
L 278.430122 229.567871 
L 278.93036 229.733792 
L 279.430598 244.799459 
L 279.930836 241.519022 
L 280.431074 84.2532 
L 280.931313 230.670744 
L 281.431551 226.405331 
L 281.931789 71.179726 
L 282.932265 64.449031 
L 283.432503 241.05707 
L 283.932741 215.292784 
L 284.933218 231.224463 
L 285.433456 204.843315 
L 285.933694 215.207278 
L 286.433932 238.022624 
L 286.93417 239.413652 
L 287.934646 216.511201 
L 288.434884 232.528683 
L 288.935123 244.312577 
L 289.435361 66.216516 
L 289.935599 137.591242 
L 290.435837 71.77376 
L 290.936075 235.288365 
L 291.436313 227.359149 
L 291.936551 221.705667 
L 292.436789 239.635153 
L 292.937028 225.713088 
L 293.937504 240.937152 
L 294.437742 224.794961 
L 294.93798 238.263097 
L 295.438218 226.591537 
L 295.938456 246.458175 
L 296.438694 225.368119 
L 296.938933 237.190481 
L 297.439171 228.812018 
L 298.439647 241.26734 
L 298.939885 235.250619 
L 299.440123 238.496752 
L 299.940361 239.67965 
L 300.4406 222.528605 
L 300.940838 225.22728 
L 301.441076 222.144357 
L 301.941314 231.851468 
L 302.94179 242.589058 
L 303.442028 215.092165 
L 303.942266 233.171758 
L 304.442505 214.255186 
L 304.942743 240.217222 
L 305.442981 242.012461 
L 305.943219 231.421159 
L 306.443457 239.867731 
L 306.943695 239.518432 
L 307.443933 236.234564 
L 307.944171 76.923724 
L 308.44441 244.18176 
L 308.944648 240.228673 
L 309.444886 247.678363 
L 309.945124 220.063468 
L 310.445362 246.621264 
L 310.9456 237.205721 
L 311.445838 247.468696 
L 312.446315 238.760691 
L 312.946553 231.6654 
L 313.446791 242.307068 
L 313.947029 238.293451 
L 314.447267 240.496779 
L 314.947505 226.842999 
L 315.447743 249.330942 
L 316.44822 237.486249 
L 316.948458 242.778261 
L 317.448696 222.244273 
L 317.948934 232.536829 
L 318.449172 245.624383 
L 318.94941 245.18166 
L 319.449648 226.801621 
L 320.450125 240.731607 
L 320.950363 86.401031 
L 321.450601 239.381305 
L 321.950839 235.365443 
L 322.451077 239.457206 
L 322.951315 240.883577 
L 323.451553 243.991073 
L 323.951792 234.705997 
L 324.45203 244.320058 
L 324.952268 246.70372 
L 325.452506 236.432524 
L 325.952744 256.484071 
L 326.452982 233.474637 
L 326.95322 230.493513 
L 327.453458 243.152628 
L 327.953697 238.382577 
L 328.453935 250.504804 
L 329.454411 228.883662 
L 329.954649 238.686408 
L 330.454887 229.39742 
L 330.955125 242.950373 
L 331.455363 243.695954 
L 331.955602 225.716765 
L 332.45584 241.731487 
L 332.956078 232.559456 
L 333.456316 231.222403 
L 333.956554 232.787253 
L 334.456792 235.67689 
L 334.95703 236.521492 
L 335.457269 231.640205 
L 335.957507 211.193969 
L 336.457745 226.450276 
L 337.458221 220.408128 
L 337.958459 240.194376 
L 338.458697 242.931882 
L 338.958935 238.930058 
L 339.459174 226.321372 
L 339.959412 239.687805 
L 340.45965 224.500888 
L 340.959888 236.994793 
L 341.460126 237.462493 
L 341.960364 235.079447 
L 342.460602 240.623948 
L 342.96084 209.395291 
L 343.461079 203.922386 
L 343.961317 223.605118 
L 344.461555 218.113079 
L 344.961793 234.628499 
L 345.462031 223.872575 
L 345.962269 198.041049 
L 346.462507 66.505036 
L 346.962745 93.997274 
L 347.462984 224.206235 
L 347.963222 221.624061 
L 348.46346 226.704401 
L 348.963698 193.793653 
L 349.463936 240.688887 
L 349.964174 66.572441 
L 350.464412 225.962952 
L 350.964651 140.451503 
L 351.464889 215.94106 
L 351.965127 222.988118 
L 352.465365 233.562142 
L 352.965603 53.568 
L 353.465841 83.272511 
L 353.966079 216.019764 
L 354.466317 230.700239 
L 354.966556 238.100618 
L 355.466794 70.352123 
L 355.967032 214.132932 
L 356.46727 229.455644 
L 356.967508 239.994855 
L 357.467746 230.312931 
L 357.967984 69.817914 
L 358.468222 225.210045 
L 358.968461 211.938541 
L 359.468699 215.651384 
L 359.968937 81.978862 
L 360.469175 211.557707 
L 360.969413 104.463506 
L 361.469651 213.738403 
L 361.969889 66.354093 
L 362.470127 57.32685 
L 362.970366 224.287115 
L 363.470604 223.346407 
L 363.970842 74.240944 
L 364.47108 213.724657 
L 364.971318 244.633979 
L 365.471556 229.129224 
L 365.971794 234.909097 
L 366.472032 230.095008 
L 366.972271 200.998215 
L 367.472509 235.098841 
L 367.972747 225.641706 
L 368.472985 60.80259 
L 368.973223 74.280647 
L 369.473461 226.025288 
L 369.973699 225.819179 
L 370.473938 221.440368 
L 370.974176 65.342765 
L 371.474414 57.543005 
L 371.974652 236.460118 
L 372.47489 230.888171 
L 372.975128 234.624366 
L 373.475366 117.652513 
L 373.975604 194.425568 
L 374.475843 238.620679 
L 374.976081 213.74956 
L 375.476319 231.859053 
L 375.976557 226.840185 
L 376.476795 218.231579 
L 376.977033 82.820372 
L 377.477271 77.024203 
L 377.977509 204.909758 
L 378.477748 227.63005 
L 378.977986 212.760195 
L 379.478224 214.697413 
L 379.978462 211.082864 
L 380.4787 217.050494 
L 380.978938 211.297112 
L 381.479176 216.653656 
L 381.979414 81.92504 
L 382.479653 206.982058 
L 382.979891 232.92011 
L 383.480129 200.650208 
L 383.980367 204.883149 
L 384.480605 233.107992 
L 384.980843 70.497802 
L 385.481081 223.357165 
L 385.98132 232.317989 
L 386.481558 236.713226 
L 386.981796 218.563953 
L 387.482034 64.08842 
L 387.982272 220.492101 
L 388.48251 71.067131 
L 388.982748 224.185936 
L 389.482986 205.968255 
L 389.983225 221.561971 
L 390.483463 219.010714 
L 390.983701 86.315049 
L 391.483939 74.822628 
L 391.984177 53.907016 
L 392.484415 228.156398 
L 392.984653 149.924681 
L 393.484891 90.291331 
L 393.98513 190.569195 
L 394.485368 86.45655 
L 394.985606 218.163529 
L 395.485844 237.333674 
L 395.986082 207.153626 
L 396.48632 68.816455 
L 396.986558 134.410638 
L 397.486796 219.669614 
L 397.987035 222.334012 
L 398.487273 216.06814 
L 398.487273 216.06814 
" style="fill:none;stroke:#ff0000;stroke-linecap:square;stroke-width:1.5;"/>
   </g>
   <g id="patch_3">
    <path d="M 57.6 307.584 
L 57.6 41.472 
" style="fill:none;stroke:#000000;stroke-linecap:square;stroke-linejoin:miter;stroke-width:0.8;"/>
   </g>
   <g id="patch_4">
    <path d="M 414.72 307.584 
L 414.72 41.472 
" style="fill:none;stroke:#000000;stroke-linecap:square;stroke-linejoin:miter;stroke-width:0.8;"/>
   </g>
   <g id="patch_5">
    <path d="M 57.6 307.584 
L 414.72 307.584 
" style="fill:none;stroke:#000000;stroke-linecap:square;stroke-linejoin:miter;stroke-width:0.8;"/>
   </g>
   <g id="patch_6">
    <path d="M 57.6 41.472 
L 414.72 41.472 
" style="fill:none;stroke:#000000;stroke-linecap:square;stroke-linejoin:miter;stroke-width:0.8;"/>
   </g>
   <g id="text_18">
    <!-- Population's average and best fitness -->
    <g transform="translate(123.529687 35.472)scale(0.12 -0.12)">
     <defs>
      <path d="M 19.671875 64.796875 
L 19.671875 37.40625 
L 32.078125 37.40625 
Q 38.96875 37.40625 42.71875 40.96875 
Q 46.484375 44.53125 46.484375 51.125 
Q 46.484375 57.671875 42.71875 61.234375 
Q 38.96875 64.796875 32.078125 64.796875 
z
M 9.8125 72.90625 
L 32.078125 72.90625 
Q 44.34375 72.90625 50.609375 67.359375 
Q 56.890625 61.8125 56.890625 51.125 
Q 56.890625 40.328125 50.609375 34.8125 
Q 44.34375 29.296875 32.078125 29.296875 
L 19.671875 29.296875 
L 19.671875 0 
L 9.8125 0 
z
" id="DejaVuSans-80"/>
      <path d="M 18.109375 8.203125 
L 18.109375 -20.796875 
L 9.078125 -20.796875 
L 9.078125 54.6875 
L 18.109375 54.6875 
L 18.109375 46.390625 
Q 20.953125 51.265625 25.265625 53.625 
Q 29.59375 56 35.59375 56 
Q 45.5625 56 51.78125 48.09375 
Q 58.015625 40.1875 58.015625 27.296875 
Q 58.015625 14.40625 51.78125 6.484375 
Q 45.5625 -1.421875 35.59375 -1.421875 
Q 29.59375 -1.421875 25.265625 0.953125 
Q 20.953125 3.328125 18.109375 8.203125 
z
M 48.6875 27.296875 
Q 48.6875 37.203125 44.609375 42.84375 
Q 40.53125 48.484375 33.40625 48.484375 
Q 26.265625 48.484375 22.1875 42.84375 
Q 18.109375 37.203125 18.109375 27.296875 
Q 18.109375 17.390625 22.1875 11.75 
Q 26.265625 6.109375 33.40625 6.109375 
Q 40.53125 6.109375 44.609375 11.75 
Q 48.6875 17.390625 48.6875 27.296875 
z
" id="DejaVuSans-112"/>
      <path d="M 8.5 21.578125 
L 8.5 54.6875 
L 17.484375 54.6875 
L 17.484375 21.921875 
Q 17.484375 14.15625 20.5 10.265625 
Q 23.53125 6.390625 29.59375 6.390625 
Q 36.859375 6.390625 41.078125 11.03125 
Q 45.3125 15.671875 45.3125 23.6875 
L 45.3125 54.6875 
L 54.296875 54.6875 
L 54.296875 0 
L 45.3125 0 
L 45.3125 8.40625 
Q 42.046875 3.421875 37.71875 1 
Q 33.40625 -1.421875 27.6875 -1.421875 
Q 18.265625 -1.421875 13.375 4.4375 
Q 8.5 10.296875 8.5 21.578125 
z
M 31.109375 56 
z
" id="DejaVuSans-117"/>
      <path d="M 9.421875 75.984375 
L 18.40625 75.984375 
L 18.40625 0 
L 9.421875 0 
z
" id="DejaVuSans-108"/>
      <path d="M 17.921875 72.90625 
L 17.921875 45.796875 
L 9.625 45.796875 
L 9.625 72.90625 
z
" id="DejaVuSans-39"/>
      <path id="DejaVuSans-32"/>
      <path d="M 2.984375 54.6875 
L 12.5 54.6875 
L 29.59375 8.796875 
L 46.6875 54.6875 
L 56.203125 54.6875 
L 35.6875 0 
L 23.484375 0 
z
" id="DejaVuSans-118"/>
      <path d="M 45.40625 27.984375 
Q 45.40625 37.75 41.375 43.109375 
Q 37.359375 48.484375 30.078125 48.484375 
Q 22.859375 48.484375 18.828125 43.109375 
Q 14.796875 37.75 14.796875 27.984375 
Q 14.796875 18.265625 18.828125 12.890625 
Q 22.859375 7.515625 30.078125 7.515625 
Q 37.359375 7.515625 41.375 12.890625 
Q 45.40625 18.265625 45.40625 27.984375 
z
M 54.390625 6.78125 
Q 54.390625 -7.171875 48.1875 -13.984375 
Q 42 -20.796875 29.203125 -20.796875 
Q 24.46875 -20.796875 20.265625 -20.09375 
Q 16.0625 -19.390625 12.109375 -17.921875 
L 12.109375 -9.1875 
Q 16.0625 -11.328125 19.921875 -12.34375 
Q 23.78125 -13.375 27.78125 -13.375 
Q 36.625 -13.375 41.015625 -8.765625 
Q 45.40625 -4.15625 45.40625 5.171875 
L 45.40625 9.625 
Q 42.625 4.78125 38.28125 2.390625 
Q 33.9375 0 27.875 0 
Q 17.828125 0 11.671875 7.65625 
Q 5.515625 15.328125 5.515625 27.984375 
Q 5.515625 40.671875 11.671875 48.328125 
Q 17.828125 56 27.875 56 
Q 33.9375 56 38.28125 53.609375 
Q 42.625 51.21875 45.40625 46.390625 
L 45.40625 54.6875 
L 54.390625 54.6875 
z
" id="DejaVuSans-103"/>
      <path d="M 45.40625 46.390625 
L 45.40625 75.984375 
L 54.390625 75.984375 
L 54.390625 0 
L 45.40625 0 
L 45.40625 8.203125 
Q 42.578125 3.328125 38.25 0.953125 
Q 33.9375 -1.421875 27.875 -1.421875 
Q 17.96875 -1.421875 11.734375 6.484375 
Q 5.515625 14.40625 5.515625 27.296875 
Q 5.515625 40.1875 11.734375 48.09375 
Q 17.96875 56 27.875 56 
Q 33.9375 56 38.25 53.625 
Q 42.578125 51.265625 45.40625 46.390625 
z
M 14.796875 27.296875 
Q 14.796875 17.390625 18.875 11.75 
Q 22.953125 6.109375 30.078125 6.109375 
Q 37.203125 6.109375 41.296875 11.75 
Q 45.40625 17.390625 45.40625 27.296875 
Q 45.40625 37.203125 41.296875 42.84375 
Q 37.203125 48.484375 30.078125 48.484375 
Q 22.953125 48.484375 18.875 42.84375 
Q 14.796875 37.203125 14.796875 27.296875 
z
" id="DejaVuSans-100"/>
      <path d="M 48.6875 27.296875 
Q 48.6875 37.203125 44.609375 42.84375 
Q 40.53125 48.484375 33.40625 48.484375 
Q 26.265625 48.484375 22.1875 42.84375 
Q 18.109375 37.203125 18.109375 27.296875 
Q 18.109375 17.390625 22.1875 11.75 
Q 26.265625 6.109375 33.40625 6.109375 
Q 40.53125 6.109375 44.609375 11.75 
Q 48.6875 17.390625 48.6875 27.296875 
z
M 18.109375 46.390625 
Q 20.953125 51.265625 25.265625 53.625 
Q 29.59375 56 35.59375 56 
Q 45.5625 56 51.78125 48.09375 
Q 58.015625 40.1875 58.015625 27.296875 
Q 58.015625 14.40625 51.78125 6.484375 
Q 45.5625 -1.421875 35.59375 -1.421875 
Q 29.59375 -1.421875 25.265625 0.953125 
Q 20.953125 3.328125 18.109375 8.203125 
L 18.109375 0 
L 9.078125 0 
L 9.078125 75.984375 
L 18.109375 75.984375 
z
" id="DejaVuSans-98"/>
      <path d="M 37.109375 75.984375 
L 37.109375 68.5 
L 28.515625 68.5 
Q 23.6875 68.5 21.796875 66.546875 
Q 19.921875 64.59375 19.921875 59.515625 
L 19.921875 54.6875 
L 34.71875 54.6875 
L 34.71875 47.703125 
L 19.921875 47.703125 
L 19.921875 0 
L 10.890625 0 
L 10.890625 47.703125 
L 2.296875 47.703125 
L 2.296875 54.6875 
L 10.890625 54.6875 
L 10.890625 58.5 
Q 10.890625 67.625 15.140625 71.796875 
Q 19.390625 75.984375 28.609375 75.984375 
z
" id="DejaVuSans-102"/>
     </defs>
     <use xlink:href="#DejaVuSans-80"/>
     <use x="56.677734" xlink:href="#DejaVuSans-111"/>
     <use x="117.859375" xlink:href="#DejaVuSans-112"/>
     <use x="181.335938" xlink:href="#DejaVuSans-117"/>
     <use x="244.714844" xlink:href="#DejaVuSans-108"/>
     <use x="272.498047" xlink:href="#DejaVuSans-97"/>
     <use x="333.777344" xlink:href="#DejaVuSans-116"/>
     <use x="372.986328" xlink:href="#DejaVuSans-105"/>
     <use x="400.769531" xlink:href="#DejaVuSans-111"/>
     <use x="461.951172" xlink:href="#DejaVuSans-110"/>
     <use x="525.330078" xlink:href="#DejaVuSans-39"/>
     <use x="552.820312" xlink:href="#DejaVuSans-115"/>
     <use x="604.919922" xlink:href="#DejaVuSans-32"/>
     <use x="636.707031" xlink:href="#DejaVuSans-97"/>
     <use x="697.986328" xlink:href="#DejaVuSans-118"/>
     <use x="757.166016" xlink:href="#DejaVuSans-101"/>
     <use x="818.689453" xlink:href="#DejaVuSans-114"/>
     <use x="859.802734" xlink:href="#DejaVuSans-97"/>
     <use x="921.082031" xlink:href="#DejaVuSans-103"/>
     <use x="984.558594" xlink:href="#DejaVuSans-101"/>
     <use x="1046.082031" xlink:href="#DejaVuSans-32"/>
     <use x="1077.869141" xlink:href="#DejaVuSans-97"/>
     <use x="1139.148438" xlink:href="#DejaVuSans-110"/>
     <use x="1202.527344" xlink:href="#DejaVuSans-100"/>
     <use x="1266.003906" xlink:href="#DejaVuSans-32"/>
     <use x="1297.791016" xlink:href="#DejaVuSans-98"/>
     <use x="1361.267578" xlink:href="#DejaVuSans-101"/>
     <use x="1422.791016" xlink:href="#DejaVuSans-115"/>
     <use x="1474.890625" xlink:href="#DejaVuSans-116"/>
     <use x="1514.099609" xlink:href="#DejaVuSans-32"/>
     <use x="1545.886719" xlink:href="#DejaVuSans-102"/>
     <use x="1581.091797" xlink:href="#DejaVuSans-105"/>
     <use x="1608.875" xlink:href="#DejaVuSans-116"/>
     <use x="1648.083984" xlink:href="#DejaVuSans-110"/>
     <use x="1711.462891" xlink:href="#DejaVuSans-101"/>
     <use x="1772.986328" xlink:href="#DejaVuSans-115"/>
     <use x="1825.085938" xlink:href="#DejaVuSans-115"/>
    </g>
   </g>
   <g id="legend_1">
    <g id="patch_7">
     <path d="M 199.689687 190.706125 
L 272.630313 190.706125 
Q 274.630313 190.706125 274.630313 188.706125 
L 274.630313 160.349875 
Q 274.630313 158.349875 272.630313 158.349875 
L 199.689687 158.349875 
Q 197.689687 158.349875 197.689687 160.349875 
L 197.689687 188.706125 
Q 197.689687 190.706125 199.689687 190.706125 
z
" style="fill:#ffffff;opacity:0.8;stroke:#cccccc;stroke-linejoin:miter;"/>
    </g>
    <g id="line2d_33">
     <path d="M 201.689687 166.448312 
L 221.689687 166.448312 
" style="fill:none;stroke:#0000ff;stroke-linecap:square;stroke-width:1.5;"/>
    </g>
    <g id="line2d_34"/>
    <g id="text_19">
     <!-- average -->
     <g transform="translate(229.689687 169.948312)scale(0.1 -0.1)">
      <use xlink:href="#DejaVuSans-97"/>
      <use x="61.279297" xlink:href="#DejaVuSans-118"/>
      <use x="120.458984" xlink:href="#DejaVuSans-101"/>
      <use x="181.982422" xlink:href="#DejaVuSans-114"/>
      <use x="223.095703" xlink:href="#DejaVuSans-97"/>
      <use x="284.375" xlink:href="#DejaVuSans-103"/>
      <use x="347.851562" xlink:href="#DejaVuSans-101"/>
     </g>
    </g>
    <g id="line2d_35">
     <path d="M 201.689687 181.126437 
L 221.689687 181.126437 
" style="fill:none;stroke:#ff0000;stroke-linecap:square;stroke-width:1.5;"/>
    </g>
    <g id="line2d_36"/>
    <g id="text_20">
     <!-- best -->
     <g transform="translate(229.689687 184.626437)scale(0.1 -0.1)">
      <use xlink:href="#DejaVuSans-98"/>
      <use x="63.476562" xlink:href="#DejaVuSans-101"/>
      <use x="125" xlink:href="#DejaVuSans-115"/>
      <use x="177.099609" xlink:href="#DejaVuSans-116"/>
     </g>
    </g>
   </g>
  </g>
 </g>
 <defs>
  <clipPath id="p1012bdf688">
   <rect height="266.112" width="357.12" x="57.6" y="41.472"/>
  </clipPath>
 </defs>
</svg>
