<?xml version="1.0" encoding="UTF-8" standalone="no"?>
<!DOCTYPE svg PUBLIC "-//W3C//DTD SVG 1.1//EN"
 "http://www.w3.org/Graphics/SVG/1.1/DTD/svg11.dtd">
<!-- Generated by graphviz version 2.40.1 (20161225.0304)
 -->
<!-- Title: %3 Pages: 1 -->
<svg width="2101pt" height="213pt"
 viewBox="0.00 0.00 2101.01 212.55" xmlns="http://www.w3.org/2000/svg" xmlns:xlink="http://www.w3.org/1999/xlink">
<g id="graph0" class="graph" transform="scale(1 1) rotate(0) translate(4 208.5513)">
<title>%3</title>
<polygon fill="#ffffff" stroke="transparent" points="-4,4 -4,-208.5513 2097.0147,-208.5513 2097.0147,4 -4,4"/>
<!-- A_agent -->
<g id="node1" class="node">
<title>A_agent</title>
<polygon fill="#d3d3d3" stroke="#000000" points="251.9245,-138.3381 204.9245,-138.3381 204.9245,-120.3381 251.9245,-120.3381 251.9245,-138.3381"/>
<text text-anchor="middle" x="228.4245" y="-127.1381" font-family="Times,serif" font-size="9.00" fill="#000000">A_agent</text>
</g>
<!-- backward -->
<g id="node35" class="node">
<title>backward</title>
<ellipse fill="#add8e6" stroke="#000000" cx="511.4245" cy="-36.0624" rx="36.125" ry="36.125"/>
<text text-anchor="middle" x="511.4245" y="-33.8624" font-family="Times,serif" font-size="9.00" fill="#000000">backward</text>
</g>
<!-- A_agent&#45;&gt;backward -->
<g id="edge18" class="edge">
<title>A_agent&#45;&gt;backward</title>
<path fill="none" stroke="#ff0000" stroke-width=".4968" d="M240.3695,-120.1519C246.1761,-116.0249 253.4046,-111.3656 260.4245,-108.1249 328.9213,-76.5041 414.4244,-55.5432 465.8827,-44.7446"/>
<polygon fill="#ff0000" stroke="#ff0000" stroke-width=".4968" points="466.6176,-48.1668 475.7053,-42.7203 465.2046,-41.3109 466.6176,-48.1668"/>
</g>
<!-- cw -->
<g id="node38" class="node">
<title>cw</title>
<ellipse fill="#add8e6" stroke="#000000" cx="993.4245" cy="-36.0624" rx="19.1842" ry="19.1842"/>
<text text-anchor="middle" x="993.4245" y="-33.8624" font-family="Times,serif" font-size="9.00" fill="#000000">cw</text>
</g>
<!-- A_agent&#45;&gt;cw -->
<g id="edge59" class="edge">
<title>A_agent&#45;&gt;cw</title>
<path fill="none" stroke="#ff0000" stroke-width=".3576" stroke-dasharray="1,5" d="M238.9131,-120.2977C244.8215,-115.7695 252.5746,-110.7116 260.4245,-108.1249 408.7823,-59.2375 822.1797,-140.91 962.4245,-72.1249 967.933,-69.4232 972.8556,-65.2512 977.0683,-60.6902"/>
<polygon fill="#ff0000" stroke="#ff0000" stroke-width=".3576" points="979.8629,-62.8014 983.466,-52.8381 974.4361,-58.3799 979.8629,-62.8014"/>
</g>
<!-- A_lm -->
<g id="node2" class="node">
<title>A_lm</title>
<polygon fill="#d3d3d3" stroke="#000000" points="864.9245,-138.3381 827.9245,-138.3381 827.9245,-120.3381 864.9245,-120.3381 864.9245,-138.3381"/>
<text text-anchor="middle" x="846.4245" y="-127.1381" font-family="Times,serif" font-size="9.00" fill="#000000">A_lm</text>
</g>
<!-- right -->
<g id="node32" class="node">
<title>right</title>
<ellipse fill="#add8e6" stroke="#000000" cx="1258.4245" cy="-36.0624" rx="23.1702" ry="23.1702"/>
<text text-anchor="middle" x="1258.4245" y="-33.8624" font-family="Times,serif" font-size="9.00" fill="#000000">right</text>
</g>
<!-- A_lm&#45;&gt;right -->
<g id="edge91" class="edge">
<title>A_lm&#45;&gt;right</title>
<path fill="none" stroke="#ff0000" stroke-width=".1157" d="M856.0248,-120.1435C861.106,-115.8042 867.6799,-110.9655 874.4245,-108.1249 973.8279,-66.259 1008.6536,-93.2508 1114.4245,-72.1249 1152.9143,-64.4372 1196.5723,-53.1334 1225.6271,-45.2367"/>
<polygon fill="#ff0000" stroke="#ff0000" stroke-width=".1157" points="1226.9147,-48.513 1235.6341,-42.4946 1225.0647,-41.7619 1226.9147,-48.513"/>
</g>
<!-- left -->
<g id="node33" class="node">
<title>left</title>
<ellipse fill="#add8e6" stroke="#000000" cx="787.4245" cy="-36.0624" rx="19.6" ry="19.6"/>
<text text-anchor="middle" x="787.4245" y="-33.8624" font-family="Times,serif" font-size="9.00" fill="#000000">left</text>
</g>
<!-- A_lm&#45;&gt;left -->
<g id="edge21" class="edge">
<title>A_lm&#45;&gt;left</title>
<path fill="none" stroke="#ff0000" stroke-width=".3676" d="M840.5517,-120.0535C831.9965,-106.5282 815.7904,-80.9074 803.5171,-61.504"/>
<polygon fill="#ff0000" stroke="#ff0000" stroke-width=".3676" points="806.3316,-59.406 798.0279,-52.8258 800.4157,-63.148 806.3316,-59.406"/>
</g>
<!-- A_lm&#45;&gt;backward -->
<g id="edge22" class="edge">
<title>A_lm&#45;&gt;backward</title>
<path fill="none" stroke="#ff0000" stroke-width=".3621" d="M836.6239,-119.9312C831.7855,-115.7558 825.6574,-111.1195 819.4245,-108.1249 732.6244,-66.4214 620.2235,-48.0384 558.0207,-40.595"/>
<polygon fill="#ff0000" stroke="#ff0000" stroke-width=".3621" points="558.0789,-37.0787 547.7439,-39.4107 557.2774,-44.0326 558.0789,-37.0787"/>
</g>
<!-- no_turn -->
<g id="node36" class="node">
<title>no_turn</title>
<ellipse fill="#add8e6" stroke="#000000" cx="1419.4245" cy="-36.0624" rx="31.2258" ry="31.2258"/>
<text text-anchor="middle" x="1419.4245" y="-33.8624" font-family="Times,serif" font-size="9.00" fill="#000000">no_turn</text>
</g>
<!-- A_lm&#45;&gt;no_turn -->
<g id="edge73" class="edge">
<title>A_lm&#45;&gt;no_turn</title>
<path fill="none" stroke="#00ff00" stroke-width=".2561" d="M855.6966,-120.1724C860.7909,-115.7271 867.4758,-110.7846 874.4245,-108.1249 1055.1868,-38.936 1118.6717,-110.2825 1308.4245,-72.1249 1332.9473,-67.1936 1359.6311,-58.6323 1380.6891,-51.0887"/>
<polygon fill="#00ff00" stroke="#00ff00" stroke-width=".2561" points="1382.048,-54.3186 1390.2398,-47.5997 1379.646,-47.7436 1382.048,-54.3186"/>
</g>
<!-- A_lm&#45;&gt;cw -->
<g id="edge16" class="edge">
<title>A_lm&#45;&gt;cw</title>
<path fill="none" stroke="#ff0000" stroke-width=".3402" d="M857.1378,-120.1777C862.1722,-116.1528 868.3853,-111.5694 874.4245,-108.1249 911.1311,-87.1891 928.1438,-96.8335 962.4245,-72.1249 967.1966,-68.6853 971.7137,-64.3669 975.748,-59.9252"/>
<polygon fill="#ff0000" stroke="#ff0000" stroke-width=".3402" points="978.6868,-61.8684 982.4394,-51.9603 973.3271,-57.3657 978.6868,-61.8684"/>
</g>
<!-- A_wall -->
<g id="node3" class="node">
<title>A_wall</title>
<polygon fill="#d3d3d3" stroke="#000000" points="1893.9245,-138.3381 1850.9245,-138.3381 1850.9245,-120.3381 1893.9245,-120.3381 1893.9245,-138.3381"/>
<text text-anchor="middle" x="1872.4245" y="-127.1381" font-family="Times,serif" font-size="9.00" fill="#000000">A_wall</text>
</g>
<!-- no_move -->
<g id="node31" class="node">
<title>no_move</title>
<ellipse fill="#add8e6" stroke="#000000" cx="1070.4245" cy="-36.0624" rx="35.2113" ry="35.2113"/>
<text text-anchor="middle" x="1070.4245" y="-33.8624" font-family="Times,serif" font-size="9.00" fill="#000000">no_move</text>
</g>
<!-- A_wall&#45;&gt;no_move -->
<g id="edge115" class="edge">
<title>A_wall&#45;&gt;no_move</title>
<path fill="none" stroke="#00ff00" stroke-width=".2331" stroke-dasharray="1,5" d="M1850.6896,-121.21C1837.2655,-116.5546 1819.576,-111.0688 1803.4245,-108.1249 1550.646,-62.0515 1480.6807,-109.1864 1226.4245,-72.1249 1188.2426,-66.5593 1145.6022,-56.4268 1114.5639,-48.3162"/>
<polygon fill="#00ff00" stroke="#00ff00" stroke-width=".2331" points="1115.0686,-44.8293 1104.5058,-45.6527 1113.2766,-51.5961 1115.0686,-44.8293"/>
</g>
<!-- A_wall&#45;&gt;no_turn -->
<g id="edge53" class="edge">
<title>A_wall&#45;&gt;no_turn</title>
<path fill="none" stroke="#ff0000" stroke-width=".1001" stroke-dasharray="1,5" d="M1859.6987,-120.1655C1853.0681,-115.8318 1844.6442,-110.9915 1836.4245,-108.1249 1727.1043,-69.9995 1692.3141,-92.9478 1578.4245,-72.1249 1537.7227,-64.6832 1491.6604,-53.9817 1459.6305,-46.1696"/>
<polygon fill="#ff0000" stroke="#ff0000" stroke-width=".1001" points="1460.2951,-42.7289 1449.7489,-43.7425 1458.6254,-49.5268 1460.2951,-42.7289"/>
</g>
<!-- B_agent -->
<g id="node4" class="node">
<title>B_agent</title>
<polygon fill="#d3d3d3" stroke="#000000" points="1043.4245,-138.3381 997.4245,-138.3381 997.4245,-120.3381 1043.4245,-120.3381 1043.4245,-138.3381"/>
<text text-anchor="middle" x="1020.4245" y="-127.1381" font-family="Times,serif" font-size="9.00" fill="#000000">B_agent</text>
</g>
<!-- B_agent&#45;&gt;no_move -->
<g id="edge58" class="edge">
<title>B_agent&#45;&gt;no_move</title>
<path fill="none" stroke="#00ff00" stroke-width=".2832" stroke-dasharray="1,5" d="M1025.4015,-120.0535C1030.9036,-109.7891 1040.1401,-92.5585 1048.8201,-76.3658"/>
<polygon fill="#00ff00" stroke="#00ff00" stroke-width=".2832" points="1051.918,-77.9947 1053.5578,-67.5275 1045.7485,-74.6875 1051.918,-77.9947"/>
</g>
<!-- B_agent&#45;&gt;left -->
<g id="edge102" class="edge">
<title>B_agent&#45;&gt;left</title>
<path fill="none" stroke="#00ff00" stroke-width=".2531" d="M1008.4814,-120.1479C1002.6752,-116.02 995.4465,-111.3611 988.4245,-108.1249 935.5305,-83.7481 916.865,-92.8186 862.4245,-72.1249 845.9652,-65.8684 828.1791,-57.3956 814.0599,-50.2348"/>
<polygon fill="#00ff00" stroke="#00ff00" stroke-width=".2531" points="815.4247,-47.0007 804.9324,-45.5302 812.2176,-53.2228 815.4247,-47.0007"/>
</g>
<!-- B_agent&#45;&gt;no_turn -->
<g id="edge118" class="edge">
<title>B_agent&#45;&gt;no_turn</title>
<path fill="none" stroke="#00ff00" stroke-width=".3001" d="M1031.5906,-120.1403C1037.4473,-115.8001 1044.946,-110.9617 1052.4245,-108.1249 1159.8528,-67.375 1196.4727,-97.9741 1308.4245,-72.1249 1332.797,-66.4974 1359.4754,-57.9114 1380.5682,-50.5288"/>
<polygon fill="#00ff00" stroke="#00ff00" stroke-width=".3001" points="1381.8871,-53.7746 1390.138,-47.1283 1379.5433,-47.1786 1381.8871,-53.7746"/>
</g>
<!-- B_agent&#45;&gt;cw -->
<g id="edge23" class="edge">
<title>B_agent&#45;&gt;cw</title>
<path fill="none" stroke="#ff0000" stroke-width=".5133" stroke-dasharray="1,5" d="M1017.7369,-120.0535C1014.0058,-107.1636 1007.0946,-83.288 1001.5919,-64.2779"/>
<polygon fill="#ff0000" stroke="#ff0000" stroke-width=".5133" points="1004.9306,-63.2242 998.7881,-54.5918 998.2067,-65.1706 1004.9306,-63.2242"/>
</g>
<!-- B_lm -->
<g id="node5" class="node">
<title>B_lm</title>
<polygon fill="#d3d3d3" stroke="#000000" points="526.9245,-204.5513 489.9245,-204.5513 489.9245,-186.5513 526.9245,-186.5513 526.9245,-204.5513"/>
<text text-anchor="middle" x="508.4245" y="-193.3513" font-family="Times,serif" font-size="9.00" fill="#000000">B_lm</text>
</g>
<!-- B_lm&#45;&gt;no_move -->
<g id="edge45" class="edge">
<title>B_lm&#45;&gt;no_move</title>
<path fill="none" stroke="#00ff00" stroke-width=".1726" d="M526.9322,-195.3827C655.9134,-194.1197 1416.3792,-185.2146 1449.4245,-150.5513 1462.4355,-136.9032 1461.6493,-122.4814 1449.4245,-108.1249 1416.8809,-69.9062 1275.6837,-81.7833 1226.4245,-72.1249 1188.6826,-64.7247 1146.169,-54.7897 1115.0661,-47.2214"/>
<polygon fill="#00ff00" stroke="#00ff00" stroke-width=".1726" points="1115.5243,-43.7303 1104.9789,-44.7526 1113.8602,-50.5296 1115.5243,-43.7303"/>
</g>
<!-- B_lm&#45;&gt;right -->
<g id="edge17" class="edge">
<title>B_lm&#45;&gt;right</title>
<path fill="none" stroke="#ff0000" stroke-width=".203" d="M527.3723,-195.2566C685.4766,-192.7539 1780.2259,-174.5701 1803.4245,-150.5513 1816.5243,-136.9884 1816.1814,-122.0108 1803.4245,-108.1249 1771.4375,-73.3069 1425.8793,-80.9232 1379.4245,-72.1249 1348.5186,-66.2715 1314.2414,-55.649 1290.0834,-47.4432"/>
<polygon fill="#ff0000" stroke="#ff0000" stroke-width=".203" points="1290.9836,-44.0513 1280.3889,-44.0954 1288.6987,-50.6679 1290.9836,-44.0513"/>
</g>
<!-- forward -->
<g id="node34" class="node">
<title>forward</title>
<ellipse fill="#add8e6" stroke="#000000" cx="903.4245" cy="-36.0624" rx="31.6406" ry="31.6406"/>
<text text-anchor="middle" x="903.4245" y="-33.8624" font-family="Times,serif" font-size="9.00" fill="#000000">forward</text>
</g>
<!-- B_lm&#45;&gt;forward -->
<g id="edge28" class="edge">
<title>B_lm&#45;&gt;forward</title>
<path fill="none" stroke="#00ff00" stroke-width=".8573" d="M489.7096,-192.8937C452.3712,-187.1678 370.7973,-172.3931 354.4245,-150.5513 343.1146,-135.4635 341.6196,-121.9664 354.4245,-108.1249 389.3899,-70.3289 766.3551,-84.1317 816.4245,-72.1249 832.9886,-68.1528 850.4792,-61.4413 865.399,-54.8778"/>
<polygon fill="#00ff00" stroke="#00ff00" stroke-width=".8573" points="867.1347,-57.9338 874.7967,-50.6163 864.2438,-51.5587 867.1347,-57.9338"/>
</g>
<!-- B_lm&#45;&gt;backward -->
<g id="edge10" class="edge">
<title>B_lm&#45;&gt;backward</title>
<path fill="none" stroke="#ff0000" stroke-width="1.3569" stroke-dasharray="1,5" d="M489.6971,-195.3204C402.8841,-194.06 42.4317,-186.6691 9.4245,-150.5513 -3.296,-136.6321 -2.9253,-122.3741 9.4245,-108.1249 39.1268,-73.8544 346.1758,-48.0701 464.9091,-39.3101"/>
<polygon fill="#ff0000" stroke="#ff0000" stroke-width="1.3569" points="465.4136,-42.7827 475.1322,-38.5637 464.9038,-35.8013 465.4136,-42.7827"/>
</g>
<!-- ccw -->
<g id="node37" class="node">
<title>ccw</title>
<ellipse fill="#add8e6" stroke="#000000" cx="1609.4245" cy="-36.0624" rx="21.8409" ry="21.8409"/>
<text text-anchor="middle" x="1609.4245" y="-33.8624" font-family="Times,serif" font-size="9.00" fill="#000000">ccw</text>
</g>
<!-- B_lm&#45;&gt;ccw -->
<g id="edge15" class="edge">
<title>B_lm&#45;&gt;ccw</title>
<path fill="none" stroke="#ff0000" stroke-width=".1094" stroke-dasharray="1,5" d="M527.1281,-195.3779C702.643,-193.7083 2054.902,-179.9003 2083.4245,-150.5513 2096.5661,-137.0289 2095.715,-122.4252 2083.4245,-108.1249 2054.408,-74.3636 1742.8794,-46.705 1641.2704,-38.526"/>
<polygon fill="#ff0000" stroke="#ff0000" stroke-width=".1094" points="1641.5396,-35.0365 1631.2933,-37.7314 1640.9839,-42.0144 1641.5396,-35.0365"/>
</g>
<!-- B_lm&#45;&gt;cw -->
<g id="edge42" class="edge">
<title>B_lm&#45;&gt;cw</title>
<path fill="none" stroke="#00ff00" stroke-width=".3332" d="M527.29,-193.3619C557.7211,-189.1346 618.6527,-177.743 662.4245,-150.5513 684.1808,-137.036 678.7331,-120.0035 701.4245,-108.1249 805.1676,-53.8168 859.5997,-128.1522 962.4245,-72.1249 967.812,-69.1894 972.6839,-64.9193 976.8855,-60.3369"/>
<polygon fill="#00ff00" stroke="#00ff00" stroke-width=".3332" points="979.6672,-62.4644 983.2965,-52.5106 974.252,-58.0285 979.6672,-62.4644"/>
</g>
<!-- 433 -->
<g id="node39" class="node">
<title>433</title>
<ellipse fill="#ffffff" stroke="#000000" cx="39.4245" cy="-129.3381" rx="21.4286" ry="21.4286"/>
<text text-anchor="middle" x="39.4245" y="-127.1381" font-family="Times,serif" font-size="9.00" fill="#000000">433</text>
</g>
<!-- B_lm&#45;&gt;433 -->
<g id="edge127" class="edge">
<title>B_lm&#45;&gt;433</title>
<path fill="none" stroke="#00ff00" stroke-width=".5886" d="M489.5033,-194.8876C415.8303,-192.1085 148.3334,-180.1461 69.4245,-150.5513 67.782,-149.9353 66.1463,-149.2068 64.5347,-148.3972"/>
<polygon fill="#00ff00" stroke="#00ff00" stroke-width=".5886" points="66.0668,-145.2348 55.6913,-143.0902 62.4648,-151.237 66.0668,-145.2348"/>
</g>
<!-- 375 -->
<g id="node40" class="node">
<title>375</title>
<ellipse fill="#ffffff" stroke="#000000" cx="99.4245" cy="-129.3381" rx="21.4286" ry="21.4286"/>
<text text-anchor="middle" x="99.4245" y="-127.1381" font-family="Times,serif" font-size="9.00" fill="#000000">375</text>
</g>
<!-- B_lm&#45;&gt;375 -->
<g id="edge125" class="edge">
<title>B_lm&#45;&gt;375</title>
<path fill="none" stroke="#ff0000" stroke-width=".1741" stroke-dasharray="1,5" d="M489.8509,-194.5577C423.2323,-190.8074 196.689,-176.3957 129.4245,-150.5513 127.787,-149.9221 126.1552,-149.1834 124.5466,-148.3658"/>
<polygon fill="#ff0000" stroke="#ff0000" stroke-width=".1741" points="126.0824,-145.2047 115.7119,-143.036 122.4664,-151.1985 126.0824,-145.2047"/>
</g>
<!-- B_wall -->
<g id="node6" class="node">
<title>B_wall</title>
<polygon fill="#d3d3d3" stroke="#000000" points="1440.4245,-138.3381 1398.4245,-138.3381 1398.4245,-120.3381 1440.4245,-120.3381 1440.4245,-138.3381"/>
<text text-anchor="middle" x="1419.4245" y="-127.1381" font-family="Times,serif" font-size="9.00" fill="#000000">B_wall</text>
</g>
<!-- B_wall&#45;&gt;right -->
<g id="edge87" class="edge">
<title>B_wall&#45;&gt;right</title>
<path fill="none" stroke="#00ff00" stroke-width=".1648" d="M1407.0852,-120.1412C1401.7479,-116.2874 1395.3725,-111.8473 1389.4245,-108.1249 1355.5704,-86.9379 1315.0904,-65.188 1288.1777,-51.205"/>
<polygon fill="#00ff00" stroke="#00ff00" stroke-width=".1648" points="1289.7482,-48.0769 1279.2573,-46.5966 1286.5353,-54.2961 1289.7482,-48.0769"/>
</g>
<!-- B_wall&#45;&gt;forward -->
<g id="edge74" class="edge">
<title>B_wall&#45;&gt;forward</title>
<path fill="none" stroke="#00ff00" stroke-width=".3384" d="M1409.3793,-120.1802C1403.8907,-115.737 1396.7347,-110.7941 1389.4245,-108.1249 1211.7739,-43.259 1145.7751,-129.0543 965.4245,-72.1249 956.0824,-69.176 946.6269,-64.6338 938.0099,-59.7561"/>
<polygon fill="#00ff00" stroke="#00ff00" stroke-width=".3384" points="939.7547,-56.7215 929.3736,-54.6042 936.1686,-62.7331 939.7547,-56.7215"/>
</g>
<!-- B_wall&#45;&gt;no_turn -->
<g id="edge47" class="edge">
<title>B_wall&#45;&gt;no_turn</title>
<path fill="none" stroke="#ff0000" stroke-width=".4355" d="M1419.4245,-120.0535C1419.4245,-110.0743 1419.4245,-93.5104 1419.4245,-77.7175"/>
<polygon fill="#ff0000" stroke="#ff0000" stroke-width=".4355" points="1422.9246,-77.5275 1419.4245,-67.5275 1415.9246,-77.5276 1422.9246,-77.5275"/>
</g>
<!-- B_wall&#45;&gt;cw -->
<g id="edge68" class="edge">
<title>B_wall&#45;&gt;cw</title>
<path fill="none" stroke="#00ff00" stroke-width=".2501" stroke-dasharray="1,5" d="M1409.3636,-120.2227C1403.8707,-115.791 1396.7156,-110.8457 1389.4245,-108.1249 1237.5311,-51.4429 1171.3873,-144.7212 1026.4245,-72.1249 1020.5484,-69.1822 1015.2077,-64.72 1010.6162,-59.9269"/>
<polygon fill="#00ff00" stroke="#00ff00" stroke-width=".2501" points="1013.2236,-57.591 1004.0483,-52.2933 1007.9173,-62.1565 1013.2236,-57.591"/>
</g>
<!-- C_agent -->
<g id="node7" class="node">
<title>C_agent</title>
<polygon fill="#d3d3d3" stroke="#000000" points="2074.4245,-138.3381 2028.4245,-138.3381 2028.4245,-120.3381 2074.4245,-120.3381 2074.4245,-138.3381"/>
<text text-anchor="middle" x="2051.4245" y="-127.1381" font-family="Times,serif" font-size="9.00" fill="#000000">C_agent</text>
</g>
<!-- C_agent&#45;&gt;left -->
<g id="edge40" class="edge">
<title>C_agent&#45;&gt;left</title>
<path fill="none" stroke="#00ff00" stroke-width=".1911" d="M2040.9563,-120.2345C2035.054,-115.6879 2027.3,-110.6325 2019.4245,-108.1249 1774.3137,-30.0813 1112.3085,-133.1832 862.4245,-72.1249 845.2054,-67.9175 827.2648,-59.4601 813.2492,-51.7926"/>
<polygon fill="#00ff00" stroke="#00ff00" stroke-width=".1911" points="814.6545,-48.5658 804.2302,-46.6726 811.1986,-54.6533 814.6545,-48.5658"/>
</g>
<!-- C_agent&#45;&gt;no_turn -->
<g id="edge29" class="edge">
<title>C_agent&#45;&gt;no_turn</title>
<path fill="none" stroke="#ff0000" stroke-width=".3855" stroke-dasharray="1,5" d="M2040.6162,-120.1738C2034.7362,-115.7288 2027.1085,-110.7863 2019.4245,-108.1249 1833.6028,-43.7643 1772.8019,-101.9483 1578.4245,-72.1249 1537.5265,-65.8499 1491.4921,-54.9827 1459.5223,-46.8137"/>
<polygon fill="#ff0000" stroke="#ff0000" stroke-width=".3855" points="1460.2187,-43.3788 1449.661,-44.2655 1458.4673,-50.1562 1460.2187,-43.3788"/>
</g>
<!-- C_agent&#45;&gt;ccw -->
<g id="edge86" class="edge">
<title>C_agent&#45;&gt;ccw</title>
<path fill="none" stroke="#00ff00" stroke-width=".3907" stroke-dasharray="1,5" d="M2040.2163,-120.2484C2034.3489,-115.9358 2026.8533,-111.0894 2019.4245,-108.1249 1885.9846,-54.875 1712.5507,-40.8717 1641.7036,-37.2724"/>
<polygon fill="#00ff00" stroke="#00ff00" stroke-width=".3907" points="1641.7771,-33.7721 1631.6232,-36.7965 1641.4469,-40.7643 1641.7771,-33.7721"/>
</g>
<!-- C_lm -->
<g id="node8" class="node">
<title>C_lm</title>
<polygon fill="#d3d3d3" stroke="#000000" points="306.9245,-138.3381 269.9245,-138.3381 269.9245,-120.3381 306.9245,-120.3381 306.9245,-138.3381"/>
<text text-anchor="middle" x="288.4245" y="-127.1381" font-family="Times,serif" font-size="9.00" fill="#000000">C_lm</text>
</g>
<!-- C_lm&#45;&gt;left -->
<g id="edge114" class="edge">
<title>C_lm&#45;&gt;left</title>
<path fill="none" stroke="#00ff00" stroke-width=".1597" d="M299.9842,-120.1523C306.0353,-115.8152 313.765,-110.9759 321.4245,-108.1249 427.8671,-68.5051 462.2008,-89.6062 574.4245,-72.1249 640.0496,-61.9023 716.8048,-48.5665 757.8901,-41.316"/>
<polygon fill="#00ff00" stroke="#00ff00" stroke-width=".1597" points="758.5402,-44.7555 767.7777,-39.567 757.3209,-37.8625 758.5402,-44.7555"/>
</g>
<!-- C_lm&#45;&gt;backward -->
<g id="edge117" class="edge">
<title>C_lm&#45;&gt;backward</title>
<path fill="none" stroke="#ff0000" stroke-width=".2249" d="M301.2212,-120.2243C307.189,-116.2088 314.4913,-111.6199 321.4245,-108.1249 369.6336,-83.8232 428.1004,-62.8248 467.3342,-49.8644"/>
<polygon fill="#ff0000" stroke="#ff0000" stroke-width=".2249" points="468.4588,-53.1791 476.8766,-46.7455 466.284,-46.5255 468.4588,-53.1791"/>
</g>
<!-- C_lm&#45;&gt;cw -->
<g id="edge82" class="edge">
<title>C_lm&#45;&gt;cw</title>
<path fill="none" stroke="#00ff00" stroke-width=".3493" stroke-dasharray="1,5" d="M307.1594,-121.9199C320.1955,-117.1067 338.0989,-111.1811 354.4245,-108.1249 487.4612,-83.2198 841.1424,-132.2053 962.4245,-72.1249 967.9222,-69.4014 972.8404,-65.2204 977.0521,-60.6574"/>
<polygon fill="#00ff00" stroke="#00ff00" stroke-width=".3493" points="979.8455,-62.7701 983.451,-52.8076 974.4197,-58.3472 979.8455,-62.7701"/>
</g>
<!-- C_wall -->
<g id="node9" class="node">
<title>C_wall</title>
<polygon fill="#d3d3d3" stroke="#000000" points="1794.4245,-138.3381 1752.4245,-138.3381 1752.4245,-120.3381 1794.4245,-120.3381 1794.4245,-138.3381"/>
<text text-anchor="middle" x="1773.4245" y="-127.1381" font-family="Times,serif" font-size="9.00" fill="#000000">C_wall</text>
</g>
<!-- C_wall&#45;&gt;no_move -->
<g id="edge96" class="edge">
<title>C_wall&#45;&gt;no_move</title>
<path fill="none" stroke="#00ff00" stroke-width=".2734" d="M1763.3957,-120.1345C1757.9117,-115.6788 1750.7547,-110.7385 1743.4245,-108.1249 1634.9466,-69.4468 1340.3266,-89.1473 1226.4245,-72.1249 1188.2629,-66.4217 1145.6208,-56.3008 1114.5766,-48.2297"/>
<polygon fill="#00ff00" stroke="#00ff00" stroke-width=".2734" points="1115.0781,-44.7425 1104.5165,-45.5805 1113.2955,-51.5117 1115.0781,-44.7425"/>
</g>
<!-- C_wall&#45;&gt;right -->
<g id="edge48" class="edge">
<title>C_wall&#45;&gt;right</title>
<path fill="none" stroke="#ff0000" stroke-width=".8032" d="M1763.3639,-120.2219C1757.8711,-115.79 1750.716,-110.8447 1743.4245,-108.1249 1591.1091,-51.3088 1538.9383,-103.4842 1379.4245,-72.1249 1348.56,-66.0571 1314.2777,-55.4606 1290.1074,-47.3191"/>
<polygon fill="#ff0000" stroke="#ff0000" stroke-width=".8032" points="1291.0018,-43.926 1280.4072,-44.0005 1288.7359,-50.5491 1291.0018,-43.926"/>
</g>
<!-- C_wall&#45;&gt;no_turn -->
<g id="edge9" class="edge">
<title>C_wall&#45;&gt;no_turn</title>
<path fill="none" stroke="#00ff00" stroke-width=".4756" stroke-dasharray="1,5" d="M1762.6747,-120.1376C1757.2242,-115.905 1750.3122,-111.1608 1743.4245,-108.1249 1674.7417,-77.8519 1651.6915,-88.4261 1578.4245,-72.1249 1538.0356,-63.1387 1491.9288,-52.6566 1459.8033,-45.3169"/>
<polygon fill="#00ff00" stroke="#00ff00" stroke-width=".4756" points="1460.4177,-41.8672 1449.8892,-43.0502 1458.8575,-48.6911 1460.4177,-41.8672"/>
</g>
<!-- C_wall&#45;&gt;ccw -->
<g id="edge97" class="edge">
<title>C_wall&#45;&gt;ccw</title>
<path fill="none" stroke="#00ff00" stroke-width=".198" stroke-dasharray="1,5" d="M1761.3923,-120.3234C1756,-116.4167 1749.4986,-111.8862 1743.4245,-108.1249 1708.2689,-86.3552 1666.0021,-64.2635 1638.4666,-50.384"/>
<polygon fill="#00ff00" stroke="#00ff00" stroke-width=".198" points="1639.8857,-47.1803 1629.3772,-45.8311 1636.7507,-53.4391 1639.8857,-47.1803"/>
</g>
<!-- C_wall&#45;&gt;cw -->
<g id="edge108" class="edge">
<title>C_wall&#45;&gt;cw</title>
<path fill="none" stroke="#00ff00" stroke-width=".4138" d="M1763.6843,-120.2957C1758.1724,-115.7669 1750.9003,-110.7091 1743.4245,-108.1249 1592.6451,-56.0031 1170.7673,-140.068 1026.4245,-72.1249 1020.4785,-69.3261 1015.1102,-64.9208 1010.5142,-60.1369"/>
<polygon fill="#00ff00" stroke="#00ff00" stroke-width=".4138" points="1013.1206,-57.7997 1003.9555,-52.4844 1007.8056,-62.355 1013.1206,-57.7997"/>
</g>
<!-- D_agent -->
<g id="node10" class="node">
<title>D_agent</title>
<polygon fill="#d3d3d3" stroke="#000000" points="1669.9245,-138.3381 1622.9245,-138.3381 1622.9245,-120.3381 1669.9245,-120.3381 1669.9245,-138.3381"/>
<text text-anchor="middle" x="1646.4245" y="-127.1381" font-family="Times,serif" font-size="9.00" fill="#000000">D_agent</text>
</g>
<!-- D_agent&#45;&gt;right -->
<g id="edge76" class="edge">
<title>D_agent&#45;&gt;right</title>
<path fill="none" stroke="#ff0000" stroke-width=".1975" d="M1635.2435,-120.1792C1629.383,-115.8489 1621.8855,-111.0076 1614.4245,-108.1249 1515.8627,-70.0432 1482.5214,-95.2695 1379.4245,-72.1249 1348.9202,-65.2769 1314.8481,-54.8658 1290.6519,-46.9874"/>
<polygon fill="#ff0000" stroke="#ff0000" stroke-width=".1975" points="1291.519,-43.5881 1280.9259,-43.7838 1289.3289,-50.2367 1291.519,-43.5881"/>
</g>
<!-- D_agent&#45;&gt;no_turn -->
<g id="edge63" class="edge">
<title>D_agent&#45;&gt;no_turn</title>
<path fill="none" stroke="#ff0000" stroke-width=".5756" d="M1634.0642,-120.1728C1628.287,-116.1469 1621.2002,-111.5641 1614.4245,-108.1249 1562.8003,-81.9215 1499.311,-60.263 1459.0939,-47.7416"/>
<polygon fill="#ff0000" stroke="#ff0000" stroke-width=".5756" points="1459.9791,-44.3521 1449.392,-44.7578 1457.9213,-51.0428 1459.9791,-44.3521"/>
</g>
<!-- D_agent&#45;&gt;cw -->
<g id="edge34" class="edge">
<title>D_agent&#45;&gt;cw</title>
<path fill="none" stroke="#ff0000" stroke-width=".1404" d="M1635.9256,-120.3287C1630.0142,-115.8096 1622.2615,-110.7505 1614.4245,-108.1249 1490.2943,-66.538 1144.5622,-128.5275 1026.4245,-72.1249 1020.494,-69.2935 1015.1318,-64.8753 1010.5368,-60.0894"/>
<polygon fill="#ff0000" stroke="#ff0000" stroke-width=".1404" points="1013.1434,-57.7524 1003.976,-52.4411 1007.8304,-62.31 1013.1434,-57.7524"/>
</g>
<!-- D_lm -->
<g id="node11" class="node">
<title>D_lm</title>
<polygon fill="#d3d3d3" stroke="#000000" points="2009.9245,-138.3381 1972.9245,-138.3381 1972.9245,-120.3381 2009.9245,-120.3381 2009.9245,-138.3381"/>
<text text-anchor="middle" x="1991.4245" y="-127.1381" font-family="Times,serif" font-size="9.00" fill="#000000">D_lm</text>
</g>
<!-- D_lm&#45;&gt;right -->
<g id="edge7" class="edge">
<title>D_lm&#45;&gt;right</title>
<path fill="none" stroke="#ff0000" stroke-width=".2715" d="M1982.4242,-120.3308C1977.3063,-115.8124 1970.5154,-110.7532 1963.4245,-108.1249 1841.5061,-62.9345 1507.4489,-94.8413 1379.4245,-72.1249 1348.453,-66.6294 1314.1837,-55.9636 1290.0454,-47.6506"/>
<polygon fill="#ff0000" stroke="#ff0000" stroke-width=".2715" points="1290.9547,-44.2605 1280.3598,-44.2539 1288.638,-50.8661 1290.9547,-44.2605"/>
</g>
<!-- D_lm&#45;&gt;no_turn -->
<g id="edge44" class="edge">
<title>D_lm&#45;&gt;no_turn</title>
<path fill="none" stroke="#00ff00" stroke-width=".2963" d="M1982.1409,-120.2023C1977.0434,-115.7651 1970.3592,-110.821 1963.4245,-108.1249 1803.2465,-45.851 1748.1377,-99.1884 1578.4245,-72.1249 1537.5642,-65.609 1491.5244,-54.7761 1459.5431,-46.6808"/>
<polygon fill="#00ff00" stroke="#00ff00" stroke-width=".2963" points="1460.2333,-43.2447 1449.6779,-44.1576 1458.4987,-50.0264 1460.2333,-43.2447"/>
</g>
<!-- D_wall -->
<g id="node12" class="node">
<title>D_wall</title>
<polygon fill="#d3d3d3" stroke="#000000" points="1379.9245,-138.3381 1336.9245,-138.3381 1336.9245,-120.3381 1379.9245,-120.3381 1379.9245,-138.3381"/>
<text text-anchor="middle" x="1358.4245" y="-127.1381" font-family="Times,serif" font-size="9.00" fill="#000000">D_wall</text>
</g>
<!-- D_wall&#45;&gt;forward -->
<g id="edge93" class="edge">
<title>D_wall&#45;&gt;forward</title>
<path fill="none" stroke="#00ff00" stroke-width=".1817" d="M1347.9795,-120.2263C1342.2902,-115.7957 1334.8993,-110.8501 1327.4245,-108.1249 1175.5231,-52.7427 1119.253,-121.9047 965.4245,-72.1249 956.1039,-69.1087 946.6567,-64.5406 938.0409,-59.6592"/>
<polygon fill="#00ff00" stroke="#00ff00" stroke-width=".1817" points="939.7853,-56.6244 929.4034,-54.5109 936.2013,-62.6373 939.7853,-56.6244"/>
</g>
<!-- D_wall&#45;&gt;no_turn -->
<g id="edge62" class="edge">
<title>D_wall&#45;&gt;no_turn</title>
<path fill="none" stroke="#ff0000" stroke-width=".3398" d="M1364.4964,-120.0535C1372.0067,-108.5694 1385.2198,-88.3652 1396.8045,-70.6509"/>
<polygon fill="#ff0000" stroke="#ff0000" stroke-width=".3398" points="1399.7846,-72.4887 1402.3287,-62.2039 1393.9261,-68.6574 1399.7846,-72.4887"/>
</g>
<!-- E_agent -->
<g id="node13" class="node">
<title>E_agent</title>
<polygon fill="#d3d3d3" stroke="#000000" points="1734.4245,-138.3381 1688.4245,-138.3381 1688.4245,-120.3381 1734.4245,-120.3381 1734.4245,-138.3381"/>
<text text-anchor="middle" x="1711.4245" y="-127.1381" font-family="Times,serif" font-size="9.00" fill="#000000">E_agent</text>
</g>
<!-- E_agent&#45;&gt;right -->
<g id="edge51" class="edge">
<title>E_agent&#45;&gt;right</title>
<path fill="none" stroke="#00ff00" stroke-width=".145" d="M1700.5736,-120.2933C1694.6819,-115.881 1687.0565,-110.9317 1679.4245,-108.1249 1553.3878,-61.7728 1510.915,-99.4017 1379.4245,-72.1249 1348.6249,-65.7357 1314.3348,-55.1781 1290.145,-47.1329"/>
<polygon fill="#00ff00" stroke="#00ff00" stroke-width=".145" points="1291.0301,-43.7377 1280.4359,-43.8582 1288.7929,-50.3706 1291.0301,-43.7377"/>
</g>
<!-- E_agent&#45;&gt;backward -->
<g id="edge6" class="edge">
<title>E_agent&#45;&gt;backward</title>
<path fill="none" stroke="#00ff00" stroke-width=".5757" d="M1700.9483,-120.2595C1695.0436,-115.7202 1687.29,-110.6638 1679.4245,-108.1249 1484.5048,-45.2064 962.3808,-90.9467 758.4245,-72.1249 687.9213,-65.6186 606.8056,-52.7288 557.3391,-44.2533"/>
<polygon fill="#00ff00" stroke="#00ff00" stroke-width=".5757" points="557.7289,-40.7689 547.279,-42.5157 556.5374,-47.6668 557.7289,-40.7689"/>
</g>
<!-- E_agent&#45;&gt;ccw -->
<g id="edge89" class="edge">
<title>E_agent&#45;&gt;ccw</title>
<path fill="none" stroke="#00ff00" stroke-width=".287" d="M1701.2715,-120.0535C1685.5639,-105.6894 1654.9379,-77.683 1633.3812,-57.9701"/>
<polygon fill="#00ff00" stroke="#00ff00" stroke-width=".287" points="1635.6356,-55.2889 1625.894,-51.1233 1630.9117,-60.4546 1635.6356,-55.2889"/>
</g>
<!-- E_lm -->
<g id="node14" class="node">
<title>E_lm</title>
<polygon fill="#d3d3d3" stroke="#000000" points="1097.4245,-138.3381 1061.4245,-138.3381 1061.4245,-120.3381 1097.4245,-120.3381 1097.4245,-138.3381"/>
<text text-anchor="middle" x="1079.4245" y="-127.1381" font-family="Times,serif" font-size="9.00" fill="#000000">E_lm</text>
</g>
<!-- E_lm&#45;&gt;no_move -->
<g id="edge27" class="edge">
<title>E_lm&#45;&gt;no_move</title>
<path fill="none" stroke="#00ff00" stroke-width=".4618" d="M1078.5287,-120.0535C1077.64,-110.8432 1076.2101,-96.024 1074.797,-81.3787"/>
<polygon fill="#00ff00" stroke="#00ff00" stroke-width=".4618" points="1078.2726,-80.956 1073.8282,-71.3384 1071.3049,-81.6284 1078.2726,-80.956"/>
</g>
<!-- E_lm&#45;&gt;right -->
<g id="edge3" class="edge">
<title>E_lm&#45;&gt;right</title>
<path fill="none" stroke="#ff0000" stroke-width=".1882" stroke-dasharray="1,5" d="M1090.2306,-120.3351C1095.2838,-116.342 1101.4858,-111.74 1107.4245,-108.1249 1147.053,-84.0019 1196.0085,-61.9297 1227.2282,-48.739"/>
<polygon fill="#ff0000" stroke="#ff0000" stroke-width=".1882" points="1228.8304,-51.8628 1236.707,-44.777 1226.1308,-45.4043 1228.8304,-51.8628"/>
</g>
<!-- E_lm&#45;&gt;left -->
<g id="edge83" class="edge">
<title>E_lm&#45;&gt;left</title>
<path fill="none" stroke="#ff0000" stroke-width=".6129" d="M1070.1744,-120.2445C1065.2765,-115.9309 1058.9369,-111.0848 1052.4245,-108.1249 974.1804,-72.562 944.0696,-98.9752 862.4245,-72.1249 845.6975,-66.6239 827.8986,-58.1873 813.8395,-50.8569"/>
<polygon fill="#ff0000" stroke="#ff0000" stroke-width=".6129" points="815.2325,-47.633 804.7629,-46.0085 811.9343,-53.8073 815.2325,-47.633"/>
</g>
<!-- E_lm&#45;&gt;forward -->
<g id="edge43" class="edge">
<title>E_lm&#45;&gt;forward</title>
<path fill="none" stroke="#00ff00" stroke-width=".8257" d="M1069.1334,-120.1647C1064.2867,-116.1372 1058.2909,-111.5554 1052.4245,-108.1249 1016.3011,-87.0012 1002.9288,-90.6867 965.4245,-72.1249 956.8189,-67.8658 947.7725,-62.9006 939.3314,-58.0411"/>
<polygon fill="#00ff00" stroke="#00ff00" stroke-width=".8257" points="940.8575,-54.8789 930.4592,-52.848 937.3214,-60.9202 940.8575,-54.8789"/>
</g>
<!-- E_lm&#45;&gt;backward -->
<g id="edge101" class="edge">
<title>E_lm&#45;&gt;backward</title>
<path fill="none" stroke="#ff0000" stroke-width=".2791" d="M1070.2534,-120.0629C1065.3756,-115.703 1059.0302,-110.8703 1052.4245,-108.1249 930.8628,-57.6022 888.8974,-89.6353 758.4245,-72.1249 688.2508,-62.7071 607.0441,-50.622 557.4685,-43.11"/>
<polygon fill="#ff0000" stroke="#ff0000" stroke-width=".2791" points="557.7972,-39.6198 547.3851,-41.579 556.7463,-46.5405 557.7972,-39.6198"/>
</g>
<!-- E_lm&#45;&gt;no_turn -->
<g id="edge79" class="edge">
<title>E_lm&#45;&gt;no_turn</title>
<path fill="none" stroke="#ff0000" stroke-width=".1591" d="M1089.0594,-120.2242C1094.1495,-115.9054 1100.7208,-111.0608 1107.4245,-108.1249 1190.5564,-71.717 1220.3948,-94.1977 1308.4245,-72.1249 1332.6871,-66.0412 1359.3616,-57.439 1380.4799,-50.1619"/>
<polygon fill="#ff0000" stroke="#ff0000" stroke-width=".1591" points="1381.774,-53.4174 1390.0637,-46.8194 1379.4688,-46.8078 1381.774,-53.4174"/>
</g>
<!-- E_lm&#45;&gt;ccw -->
<g id="edge123" class="edge">
<title>E_lm&#45;&gt;ccw</title>
<path fill="none" stroke="#ff0000" stroke-width=".3429" d="M1088.7123,-120.213C1093.8109,-115.7787 1100.4949,-110.834 1107.4245,-108.1249 1261.3042,-47.9667 1314.9276,-102.0037 1477.4245,-72.1249 1512.49,-65.6773 1551.8075,-54.3954 1578.3403,-46.1634"/>
<polygon fill="#ff0000" stroke="#ff0000" stroke-width=".3429" points="1579.7019,-49.4042 1588.1908,-43.0647 1577.6014,-42.7268 1579.7019,-49.4042"/>
</g>
<!-- E_wall -->
<g id="node15" class="node">
<title>E_wall</title>
<polygon fill="#d3d3d3" stroke="#000000" points="1954.4245,-138.3381 1912.4245,-138.3381 1912.4245,-120.3381 1954.4245,-120.3381 1954.4245,-138.3381"/>
<text text-anchor="middle" x="1933.4245" y="-127.1381" font-family="Times,serif" font-size="9.00" fill="#000000">E_wall</text>
</g>
<!-- E_wall&#45;&gt;no_move -->
<g id="edge88" class="edge">
<title>E_wall&#45;&gt;no_move</title>
<path fill="none" stroke="#00ff00" stroke-width=".2919" stroke-dasharray="1,5" d="M1923.6813,-120.3045C1918.1685,-115.7783 1910.8964,-110.7202 1903.4245,-108.1249 1761.108,-58.6927 1375.6043,-93.1708 1226.4245,-72.1249 1188.2174,-66.7347 1145.5791,-56.5874 1114.5481,-48.4265"/>
<polygon fill="#00ff00" stroke="#00ff00" stroke-width=".2919" points="1115.0568,-44.9399 1104.4926,-45.7448 1113.253,-51.7035 1115.0568,-44.9399"/>
</g>
<!-- E_wall&#45;&gt;right -->
<g id="edge72" class="edge">
<title>E_wall&#45;&gt;right</title>
<path fill="none" stroke="#00ff00" stroke-width=".2367" d="M1923.3967,-120.1318C1917.913,-115.6752 1910.7559,-110.7351 1903.4245,-108.1249 1683.5089,-29.8282 1609.1274,-113.7161 1379.4245,-72.1249 1348.4725,-66.5206 1314.2008,-55.8679 1290.0567,-47.5876"/>
<polygon fill="#00ff00" stroke="#00ff00" stroke-width=".2367" points="1290.9633,-44.197 1280.3685,-44.2057 1288.6563,-50.8059 1290.9633,-44.197"/>
</g>
<!-- E_wall&#45;&gt;no_turn -->
<g id="edge4" class="edge">
<title>E_wall&#45;&gt;no_turn</title>
<path fill="none" stroke="#00ff00" stroke-width=".4864" stroke-dasharray="1,5" d="M1923.3507,-120.257C1917.8543,-115.8347 1910.6999,-110.8875 1903.4245,-108.1249 1767.5616,-56.5355 1721.7384,-96.2357 1578.4245,-72.1249 1537.6214,-65.2603 1491.5735,-54.4768 1459.5746,-46.4882"/>
<polygon fill="#00ff00" stroke="#00ff00" stroke-width=".4864" points="1460.2556,-43.0505 1449.7035,-44.0012 1458.5454,-49.8383 1460.2556,-43.0505"/>
</g>
<!-- E_wall&#45;&gt;ccw -->
<g id="edge106" class="edge">
<title>E_wall&#45;&gt;ccw</title>
<path fill="none" stroke="#ff0000" stroke-width=".2236" stroke-dasharray="1,5" d="M1922.6404,-120.2141C1917.1818,-115.9996 1910.2729,-111.2485 1903.4245,-108.1249 1813.3622,-67.0463 1696.6679,-47.4047 1641.2899,-39.8931"/>
<polygon fill="#ff0000" stroke="#ff0000" stroke-width=".2236" points="1641.7412,-36.4224 1631.3703,-38.5894 1640.829,-43.3627 1641.7412,-36.4224"/>
</g>
<!-- F_agent -->
<g id="node16" class="node">
<title>F_agent</title>
<polygon fill="#d3d3d3" stroke="#000000" points="469.9245,-138.3381 424.9245,-138.3381 424.9245,-120.3381 469.9245,-120.3381 469.9245,-138.3381"/>
<text text-anchor="middle" x="447.4245" y="-127.1381" font-family="Times,serif" font-size="9.00" fill="#000000">F_agent</text>
</g>
<!-- F_agent&#45;&gt;no_move -->
<g id="edge75" class="edge">
<title>F_agent&#45;&gt;no_move</title>
<path fill="none" stroke="#ff0000" stroke-width=".3733" d="M457.8335,-120.1249C463.513,-115.6665 470.9059,-110.7268 478.4245,-108.1249 706.9889,-29.0293 794.2523,-155.1344 1021.4245,-72.1249 1026.261,-70.3576 1031.0323,-67.9557 1035.588,-65.2249"/>
<polygon fill="#ff0000" stroke="#ff0000" stroke-width=".3733" points="1037.6223,-68.076 1044.0433,-59.6485 1033.7683,-62.2324 1037.6223,-68.076"/>
</g>
<!-- F_agent&#45;&gt;forward -->
<g id="edge100" class="edge">
<title>F_agent&#45;&gt;forward</title>
<path fill="none" stroke="#ff0000" stroke-width=".1094" d="M457.8774,-120.2478C463.5689,-115.823 470.9593,-110.8762 478.4245,-108.1249 620.1756,-55.8817 670.0316,-109.432 816.4245,-72.1249 832.9307,-67.9184 850.4105,-61.1633 865.3379,-54.6306"/>
<polygon fill="#ff0000" stroke="#ff0000" stroke-width=".1094" points="867.0597,-57.6939 874.7428,-50.3987 864.1873,-51.3103 867.0597,-57.6939"/>
</g>
<!-- F_agent&#45;&gt;backward -->
<g id="edge103" class="edge">
<title>F_agent&#45;&gt;backward</title>
<path fill="none" stroke="#ff0000" stroke-width=".3526" d="M453.7951,-120.0535C461.1184,-109.3802 473.6101,-91.1744 485.0951,-74.4358"/>
<polygon fill="#ff0000" stroke="#ff0000" stroke-width=".3526" points="488.2048,-76.0899 490.9765,-65.864 482.4328,-72.1295 488.2048,-76.0899"/>
</g>
<!-- F_agent&#45;&gt;cw -->
<g id="edge94" class="edge">
<title>F_agent&#45;&gt;cw</title>
<path fill="none" stroke="#ff0000" stroke-width=".1508" d="M457.8422,-120.1497C463.524,-115.6981 470.9164,-110.757 478.4245,-108.1249 580.2043,-72.4447 866.1444,-120.7287 962.4245,-72.1249 967.9015,-69.36 972.811,-65.1615 977.0208,-60.5948"/>
<polygon fill="#ff0000" stroke="#ff0000" stroke-width=".1508" points="979.8118,-62.7104 983.4219,-52.7496 974.3881,-58.285 979.8118,-62.7104"/>
</g>
<!-- F_lm -->
<g id="node17" class="node">
<title>F_lm</title>
<polygon fill="#d3d3d3" stroke="#000000" points="919.4245,-138.3381 883.4245,-138.3381 883.4245,-120.3381 919.4245,-120.3381 919.4245,-138.3381"/>
<text text-anchor="middle" x="901.4245" y="-127.1381" font-family="Times,serif" font-size="9.00" fill="#000000">F_lm</text>
</g>
<!-- F_lm&#45;&gt;no_move -->
<g id="edge122" class="edge">
<title>F_lm&#45;&gt;no_move</title>
<path fill="none" stroke="#00ff00" stroke-width=".3419" d="M911.4259,-120.3144C916.3084,-116.223 922.4154,-111.5466 928.4245,-108.1249 966.9399,-86.193 982.5686,-93.4478 1021.4245,-72.1249 1025.713,-69.7715 1030.0535,-67.0894 1034.2868,-64.2745"/>
<polygon fill="#00ff00" stroke="#00ff00" stroke-width=".3419" points="1036.5624,-66.9552 1042.7748,-58.3728 1032.5663,-61.2079 1036.5624,-66.9552"/>
</g>
<!-- F_lm&#45;&gt;left -->
<g id="edge81" class="edge">
<title>F_lm&#45;&gt;left</title>
<path fill="none" stroke="#ff0000" stroke-width=".752" stroke-dasharray="1,5" d="M890.077,-120.0535C871.7392,-105.0494 835.2087,-75.1598 811.0416,-55.3861"/>
<polygon fill="#ff0000" stroke="#ff0000" stroke-width=".752" points="813.0149,-52.4784 803.059,-48.8547 808.5822,-57.8961 813.0149,-52.4784"/>
</g>
<!-- F_lm&#45;&gt;forward -->
<g id="edge84" class="edge">
<title>F_lm&#45;&gt;forward</title>
<path fill="none" stroke="#00ff00" stroke-width=".6056" d="M901.6236,-120.0535C901.8359,-110.1499 902.1873,-93.761 902.5237,-78.0765"/>
<polygon fill="#00ff00" stroke="#00ff00" stroke-width=".6056" points="906.0256,-78.0193 902.7409,-67.9466 899.0272,-77.8692 906.0256,-78.0193"/>
</g>
<!-- F_lm&#45;&gt;ccw -->
<g id="edge60" class="edge">
<title>F_lm&#45;&gt;ccw</title>
<path fill="none" stroke="#ff0000" stroke-width=".1624" d="M910.5323,-119.9044C915.394,-115.5041 921.7441,-110.6831 928.4245,-108.1249 1042.6012,-64.4022 1356.8449,-92.3377 1477.4245,-72.1249 1512.5872,-66.2306 1551.888,-54.8533 1578.3903,-46.4475"/>
<polygon fill="#ff0000" stroke="#ff0000" stroke-width=".1624" points="1579.7838,-49.6757 1588.2281,-43.2769 1577.6365,-43.0132 1579.7838,-49.6757"/>
</g>
<!-- F_wall -->
<g id="node18" class="node">
<title>F_wall</title>
<polygon fill="#d3d3d3" stroke="#000000" points="979.4245,-138.3381 937.4245,-138.3381 937.4245,-120.3381 979.4245,-120.3381 979.4245,-138.3381"/>
<text text-anchor="middle" x="958.4245" y="-127.1381" font-family="Times,serif" font-size="9.00" fill="#000000">F_wall</text>
</g>
<!-- F_wall&#45;&gt;no_move -->
<g id="edge33" class="edge">
<title>F_wall&#45;&gt;no_move</title>
<path fill="none" stroke="#00ff00" stroke-width=".3521" stroke-dasharray="1,5" d="M969.573,-120.0535C984.7183,-107.4401 1012.4951,-84.3071 1035.0683,-65.5077"/>
<polygon fill="#00ff00" stroke="#00ff00" stroke-width=".3521" points="1037.3621,-68.1523 1042.8065,-59.0632 1032.8825,-62.7733 1037.3621,-68.1523"/>
</g>
<!-- F_wall&#45;&gt;right -->
<g id="edge35" class="edge">
<title>F_wall&#45;&gt;right</title>
<path fill="none" stroke="#00ff00" stroke-width=".3813" d="M969.2367,-120.275C974.702,-116.0749 981.6084,-111.3184 988.4245,-108.1249 1010.0574,-97.9894 1158.2301,-60.7924 1225.4209,-44.1751"/>
<polygon fill="#00ff00" stroke="#00ff00" stroke-width=".3813" points="1226.6081,-47.4872 1235.4776,-41.6922 1224.9301,-40.6913 1226.6081,-47.4872"/>
</g>
<!-- F_wall&#45;&gt;forward -->
<g id="edge69" class="edge">
<title>F_wall&#45;&gt;forward</title>
<path fill="none" stroke="#00ff00" stroke-width=".4403" stroke-dasharray="1,5" d="M952.9498,-120.0535C946.4249,-108.9878 935.1259,-89.8256 924.9665,-72.596"/>
<polygon fill="#00ff00" stroke="#00ff00" stroke-width=".4403" points="927.8832,-70.6517 919.789,-63.8154 921.8534,-74.2072 927.8832,-70.6517"/>
</g>
<!-- F_wall&#45;&gt;cw -->
<g id="edge124" class="edge">
<title>F_wall&#45;&gt;cw</title>
<path fill="none" stroke="#ff0000" stroke-width=".5018" d="M961.9084,-120.0535C966.7968,-107.0258 975.8961,-82.7759 983.0654,-63.6696"/>
<polygon fill="#ff0000" stroke="#ff0000" stroke-width=".5018" points="986.3698,-64.8259 986.6061,-54.2337 979.816,-62.3667 986.3698,-64.8259"/>
</g>
<!-- G_agent -->
<g id="node19" class="node">
<title>G_agent</title>
<polygon fill="#d3d3d3" stroke="#000000" points="534.9245,-138.3381 487.9245,-138.3381 487.9245,-120.3381 534.9245,-120.3381 534.9245,-138.3381"/>
<text text-anchor="middle" x="511.4245" y="-127.1381" font-family="Times,serif" font-size="9.00" fill="#000000">G_agent</text>
</g>
<!-- G_agent&#45;&gt;no_move -->
<g id="edge56" class="edge">
<title>G_agent&#45;&gt;no_move</title>
<path fill="none" stroke="#00ff00" stroke-width=".1002" d="M522.2259,-120.154C528.1041,-115.7035 535.7322,-110.7621 543.4245,-108.1249 744.9554,-39.0312 821.649,-146.1409 1021.4245,-72.1249 1026.253,-70.336 1031.0194,-67.9206 1035.5723,-65.1823"/>
<polygon fill="#00ff00" stroke="#00ff00" stroke-width=".1002" points="1037.6105,-68.0307 1044.0247,-59.5981 1033.7519,-62.1902 1037.6105,-68.0307"/>
</g>
<!-- G_agent&#45;&gt;right -->
<g id="edge46" class="edge">
<title>G_agent&#45;&gt;right</title>
<path fill="none" stroke="#ff0000" stroke-width=".1997" d="M521.9253,-120.3343C527.8373,-115.8169 535.5899,-110.7576 543.4245,-108.1249 663.9428,-67.6263 988.7918,-91.6493 1114.4245,-72.1249 1153.3791,-66.071 1197.1936,-54.3764 1226.1524,-45.9434"/>
<polygon fill="#ff0000" stroke="#ff0000" stroke-width=".1997" points="1227.1442,-49.3 1235.7436,-43.1111 1225.1617,-42.5866 1227.1442,-49.3"/>
</g>
<!-- G_agent&#45;&gt;left -->
<g id="edge57" class="edge">
<title>G_agent&#45;&gt;left</title>
<path fill="none" stroke="#ff0000" stroke-width=".1893" d="M523.3806,-120.1758C529.1896,-116.0541 536.4169,-111.3922 543.4245,-108.1249 617.1154,-73.7663 710.9885,-51.56 757.9184,-41.7944"/>
<polygon fill="#ff0000" stroke="#ff0000" stroke-width=".1893" points="758.6333,-45.2207 767.7318,-39.7923 757.234,-38.362 758.6333,-45.2207"/>
</g>
<!-- G_agent&#45;&gt;forward -->
<g id="edge121" class="edge">
<title>G_agent&#45;&gt;forward</title>
<path fill="none" stroke="#ff0000" stroke-width=".1785" d="M522.289,-120.3299C528.1845,-115.9277 535.809,-110.9762 543.4245,-108.1249 658.0381,-65.2121 698.2183,-103.8277 816.4245,-72.1249 832.8768,-67.7124 850.3466,-60.919 865.281,-54.4132"/>
<polygon fill="#ff0000" stroke="#ff0000" stroke-width=".1785" points="866.9909,-57.4827 874.6928,-50.2074 864.1349,-51.0918 866.9909,-57.4827"/>
</g>
<!-- G_agent&#45;&gt;backward -->
<g id="edge109" class="edge">
<title>G_agent&#45;&gt;backward</title>
<path fill="none" stroke="#ff0000" stroke-width=".1122" d="M511.4245,-120.0535C511.4245,-111.0801 511.4245,-96.7825 511.4245,-82.5089"/>
<polygon fill="#ff0000" stroke="#ff0000" stroke-width=".1122" points="514.9246,-82.1961 511.4245,-72.1962 507.9246,-82.1962 514.9246,-82.1961"/>
</g>
<!-- G_agent&#45;&gt;cw -->
<g id="edge67" class="edge">
<title>G_agent&#45;&gt;cw</title>
<path fill="none" stroke="#00ff00" stroke-width=".5886" d="M522.2375,-120.1873C528.1187,-115.7459 535.7462,-110.8026 543.4245,-108.1249 719.9086,-46.5775 796.0569,-157.3103 962.4245,-72.1249 967.8856,-69.3287 972.7883,-65.117 976.9967,-60.5474"/>
<polygon fill="#00ff00" stroke="#00ff00" stroke-width=".5886" points="979.786,-62.6652 983.3996,-52.7057 974.3639,-58.2379 979.786,-62.6652"/>
</g>
<!-- G_lm -->
<g id="node20" class="node">
<title>G_lm</title>
<polygon fill="#d3d3d3" stroke="#000000" points="589.9245,-138.3381 552.9245,-138.3381 552.9245,-120.3381 589.9245,-120.3381 589.9245,-138.3381"/>
<text text-anchor="middle" x="571.4245" y="-127.1381" font-family="Times,serif" font-size="9.00" fill="#000000">G_lm</text>
</g>
<!-- G_lm&#45;&gt;right -->
<g id="edge66" class="edge">
<title>G_lm&#45;&gt;right</title>
<path fill="none" stroke="#00ff00" stroke-width=".2324" d="M580.6825,-120.1354C585.773,-115.6798 592.4587,-110.7395 599.4245,-108.1249 706.8315,-67.8102 1001.1224,-90.1292 1114.4245,-72.1249 1153.1882,-65.9651 1196.7942,-54.3712 1225.7619,-45.9889"/>
<polygon fill="#00ff00" stroke="#00ff00" stroke-width=".2324" points="1227.126,-49.2363 1235.7358,-43.062 1225.1549,-42.5195 1227.126,-49.2363"/>
</g>
<!-- G_lm&#45;&gt;left -->
<g id="edge1" class="edge">
<title>G_lm&#45;&gt;left</title>
<path fill="none" stroke="#ff0000" stroke-width=".6358" d="M581.8392,-120.3274C586.9119,-116.2389 593.2407,-111.5612 599.4245,-108.1249 652.628,-78.5606 720.4345,-55.8746 758.3632,-44.3881"/>
<polygon fill="#ff0000" stroke="#ff0000" stroke-width=".6358" points="759.6469,-47.6577 768.2317,-41.4488 757.6487,-40.949 759.6469,-47.6577"/>
</g>
<!-- G_lm&#45;&gt;forward -->
<g id="edge55" class="edge">
<title>G_lm&#45;&gt;forward</title>
<path fill="none" stroke="#ff0000" stroke-width=".1684" d="M581.0436,-120.1877C586.1296,-115.8597 592.7021,-111.0178 599.4245,-108.1249 689.2252,-69.4807 722.4335,-99.0178 816.4245,-72.1249 832.8011,-67.4392 850.2568,-60.5949 865.2011,-54.1249"/>
<polygon fill="#ff0000" stroke="#ff0000" stroke-width=".1684" points="866.8955,-57.2025 874.6225,-49.9537 864.0617,-50.8017 866.8955,-57.2025"/>
</g>
<!-- G_lm&#45;&gt;backward -->
<g id="edge49" class="edge">
<title>G_lm&#45;&gt;backward</title>
<path fill="none" stroke="#ff0000" stroke-width=".1483" d="M565.4521,-120.0535C558.6874,-109.5371 547.2189,-91.7082 536.584,-75.1752"/>
<polygon fill="#ff0000" stroke="#ff0000" stroke-width=".1483" points="539.4815,-73.21 531.1279,-66.6932 533.5943,-76.997 539.4815,-73.21"/>
</g>
<!-- G_lm&#45;&gt;ccw -->
<g id="edge119" class="edge">
<title>G_lm&#45;&gt;ccw</title>
<path fill="none" stroke="#ff0000" stroke-width=".1618" d="M580.4035,-120.2725C585.5152,-115.737 592.3069,-110.6801 599.4245,-108.1249 783.215,-42.1445 1284.4555,-102.0468 1477.4245,-72.1249 1512.864,-66.6296 1552.4079,-55.0752 1578.892,-46.5185"/>
<polygon fill="#ff0000" stroke="#ff0000" stroke-width=".1618" points="1580.3019,-49.7393 1588.7082,-43.2907 1578.1153,-43.0896 1580.3019,-49.7393"/>
</g>
<!-- G_wall -->
<g id="node21" class="node">
<title>G_wall</title>
<polygon fill="#d3d3d3" stroke="#000000" points="1539.9245,-138.3381 1496.9245,-138.3381 1496.9245,-120.3381 1539.9245,-120.3381 1539.9245,-138.3381"/>
<text text-anchor="middle" x="1518.4245" y="-127.1381" font-family="Times,serif" font-size="9.00" fill="#000000">G_wall</text>
</g>
<!-- G_wall&#45;&gt;right -->
<g id="edge120" class="edge">
<title>G_wall&#45;&gt;right</title>
<path fill="none" stroke="#ff0000" stroke-width=".4078" d="M1504.7889,-120.3358C1498.2131,-116.2491 1490.1018,-111.5706 1482.4245,-108.1249 1447.4985,-92.4496 1343.6505,-61.1018 1290.5178,-45.4313"/>
<polygon fill="#ff0000" stroke="#ff0000" stroke-width=".4078" points="1291.49,-42.0691 1280.9087,-42.6053 1289.5148,-48.7847 1291.49,-42.0691"/>
</g>
<!-- G_wall&#45;&gt;forward -->
<g id="edge8" class="edge">
<title>G_wall&#45;&gt;forward</title>
<path fill="none" stroke="#ff0000" stroke-width=".3637" d="M1496.6769,-121.2788C1483.2481,-116.6487 1465.5581,-111.1651 1449.4245,-108.1249 1237.4499,-68.1806 1171.4618,-135.9797 965.4245,-72.1249 956.0671,-69.2249 946.6057,-64.7015 937.9879,-59.8264"/>
<polygon fill="#ff0000" stroke="#ff0000" stroke-width=".3637" points="939.7329,-56.792 929.3523,-54.6721 936.1453,-62.8027 939.7329,-56.792"/>
</g>
<!-- G_wall&#45;&gt;no_turn -->
<g id="edge24" class="edge">
<title>G_wall&#45;&gt;no_turn</title>
<path fill="none" stroke="#ff0000" stroke-width=".6433" d="M1508.5701,-120.0535C1494.9526,-107.2234 1469.783,-83.5091 1449.6525,-64.5426"/>
<polygon fill="#ff0000" stroke="#ff0000" stroke-width=".6433" points="1451.8972,-61.8487 1442.2187,-57.5386 1447.0969,-66.9436 1451.8972,-61.8487"/>
</g>
<!-- G_wall&#45;&gt;cw -->
<g id="edge5" class="edge">
<title>G_wall&#45;&gt;cw</title>
<path fill="none" stroke="#00ff00" stroke-width=".4635" d="M1496.6651,-121.3403C1483.232,-116.7326 1465.5417,-111.251 1449.4245,-108.1249 1356.8108,-90.1612 1111.0704,-113.7791 1026.4245,-72.1249 1020.528,-69.2232 1015.1793,-64.7773 1010.5864,-59.9868"/>
<polygon fill="#00ff00" stroke="#00ff00" stroke-width=".4635" points="1013.1936,-57.6506 1004.0213,-52.3478 1007.8848,-62.2131 1013.1936,-57.6506"/>
</g>
<!-- H_agent -->
<g id="node22" class="node">
<title>H_agent</title>
<polygon fill="#d3d3d3" stroke="#000000" points="1604.9245,-138.3381 1557.9245,-138.3381 1557.9245,-120.3381 1604.9245,-120.3381 1604.9245,-138.3381"/>
<text text-anchor="middle" x="1581.4245" y="-127.1381" font-family="Times,serif" font-size="9.00" fill="#000000">H_agent</text>
</g>
<!-- H_agent&#45;&gt;no_move -->
<g id="edge30" class="edge">
<title>H_agent&#45;&gt;no_move</title>
<path fill="none" stroke="#00ff00" stroke-width=".6043" stroke-dasharray="1,5" d="M1570.5832,-120.2669C1564.6942,-115.8473 1557.0683,-110.8995 1549.4245,-108.1249 1413.6483,-58.8398 1368.809,-96.4325 1226.4245,-72.1249 1188.5125,-65.6526 1146.0126,-55.6425 1114.9583,-47.8092"/>
<polygon fill="#00ff00" stroke="#00ff00" stroke-width=".6043" points="1115.4433,-44.3211 1104.8887,-45.2444 1113.7154,-51.1045 1115.4433,-44.3211"/>
</g>
<!-- H_agent&#45;&gt;no_turn -->
<g id="edge107" class="edge">
<title>H_agent&#45;&gt;no_turn</title>
<path fill="none" stroke="#ff0000" stroke-width=".1467" d="M1568.1867,-120.2226C1562.4808,-116.3826 1555.6913,-111.9308 1549.4245,-108.1249 1518.4485,-89.3128 1482.3344,-69.4533 1456.0422,-55.3573"/>
<polygon fill="#ff0000" stroke="#ff0000" stroke-width=".1467" points="1457.6463,-52.2462 1447.1765,-50.6229 1454.3489,-58.4209 1457.6463,-52.2462"/>
</g>
<!-- H_agent&#45;&gt;cw -->
<g id="edge78" class="edge">
<title>H_agent&#45;&gt;cw</title>
<path fill="none" stroke="#ff0000" stroke-width=".3286" d="M1570.63,-120.1336C1564.7538,-115.6776 1557.1252,-110.7373 1549.4245,-108.1249 1439.1028,-70.6987 1131.3637,-122.7152 1026.4245,-72.1249 1020.5047,-69.271 1015.1468,-64.844 1010.5525,-60.0566"/>
<polygon fill="#ff0000" stroke="#ff0000" stroke-width=".3286" points="1013.1593,-57.7199 1003.9903,-52.4113 1007.8476,-62.2791 1013.1593,-57.7199"/>
</g>
<!-- H_lm -->
<g id="node23" class="node">
<title>H_lm</title>
<polygon fill="#d3d3d3" stroke="#000000" points="746.9245,-138.3381 709.9245,-138.3381 709.9245,-120.3381 746.9245,-120.3381 746.9245,-138.3381"/>
<text text-anchor="middle" x="728.4245" y="-127.1381" font-family="Times,serif" font-size="9.00" fill="#000000">H_lm</text>
</g>
<!-- H_lm&#45;&gt;no_move -->
<g id="edge105" class="edge">
<title>H_lm&#45;&gt;no_move</title>
<path fill="none" stroke="#ff0000" stroke-width=".3882" stroke-dasharray="1,5" d="M737.7556,-120.3209C742.8661,-115.9162 749.5476,-110.9653 756.4245,-108.1249 866.2823,-62.7502 911.2541,-116.7352 1021.4245,-72.1249 1026.1376,-70.2164 1030.8109,-67.7505 1035.2927,-65.0042"/>
<polygon fill="#ff0000" stroke="#ff0000" stroke-width=".3882" points="1037.2508,-67.9054 1043.6354,-59.4504 1033.3717,-62.0785 1037.2508,-67.9054"/>
</g>
<!-- H_lm&#45;&gt;right -->
<g id="edge54" class="edge">
<title>H_lm&#45;&gt;right</title>
<path fill="none" stroke="#ff0000" stroke-width=".1621" d="M737.7159,-120.2222C742.8155,-115.7905 749.4992,-110.8452 756.4245,-108.1249 905.2669,-49.6587 956.8926,-99.6213 1114.4245,-72.1249 1153.09,-65.376 1196.7146,-53.894 1225.7136,-45.6989"/>
<polygon fill="#ff0000" stroke="#ff0000" stroke-width=".1621" points="1227.0471,-48.9579 1235.6994,-42.8432 1225.1224,-42.2277 1227.0471,-48.9579"/>
</g>
<!-- H_lm&#45;&gt;left -->
<g id="edge71" class="edge">
<title>H_lm&#45;&gt;left</title>
<path fill="none" stroke="#00ff00" stroke-width=".4777" d="M734.2974,-120.0535C742.8525,-106.5282 759.0586,-80.9074 771.3319,-61.504"/>
<polygon fill="#00ff00" stroke="#00ff00" stroke-width=".4777" points="774.4333,-63.148 776.8211,-52.8258 768.5175,-59.406 774.4333,-63.148"/>
</g>
<!-- H_lm&#45;&gt;forward -->
<g id="edge116" class="edge">
<title>H_lm&#45;&gt;forward</title>
<path fill="none" stroke="#00ff00" stroke-width=".6837" stroke-dasharray="1,5" d="M739.5154,-120.1535C744.5224,-116.2153 750.6088,-111.7072 756.4245,-108.1249 791.6907,-86.4022 834.4412,-66.0592 864.7272,-52.5643"/>
<polygon fill="#00ff00" stroke="#00ff00" stroke-width=".6837" points="866.3607,-55.6692 874.0971,-48.4304 863.5351,-49.2648 866.3607,-55.6692"/>
</g>
<!-- H_lm&#45;&gt;backward -->
<g id="edge85" class="edge">
<title>H_lm&#45;&gt;backward</title>
<path fill="none" stroke="#00ff00" stroke-width=".303" d="M709.9232,-121.3855C675.6914,-106.6712 601.6534,-74.8466 554.309,-54.496"/>
<polygon fill="#00ff00" stroke="#00ff00" stroke-width=".303" points="555.495,-51.1962 544.9256,-50.4626 552.7307,-57.6273 555.495,-51.1962"/>
</g>
<!-- H_lm&#45;&gt;no_turn -->
<g id="edge70" class="edge">
<title>H_lm&#45;&gt;no_turn</title>
<path fill="none" stroke="#00ff00" stroke-width=".6256" stroke-dasharray="1,5" d="M737.6775,-120.122C742.7666,-115.6628 749.4526,-110.7232 756.4245,-108.1249 871.6123,-65.196 1187.7008,-95.2958 1308.4245,-72.1249 1332.9898,-67.41 1359.6751,-58.8564 1380.7233,-51.2628"/>
<polygon fill="#00ff00" stroke="#00ff00" stroke-width=".6256" points="1382.0951,-54.4874 1390.2686,-47.7462 1379.6752,-47.919 1382.0951,-54.4874"/>
</g>
<!-- H_lm&#45;&gt;cw -->
<g id="edge25" class="edge">
<title>H_lm&#45;&gt;cw</title>
<path fill="none" stroke="#00ff00" stroke-width=".1542" d="M738.0542,-120.2122C743.1429,-115.8904 749.7146,-111.0467 756.4245,-108.1249 841.6392,-71.0187 881.6229,-118.0544 962.4245,-72.1249 967.7584,-69.093 972.6077,-64.7826 976.8045,-60.1913"/>
<polygon fill="#00ff00" stroke="#00ff00" stroke-width=".1542" points="979.5809,-62.3254 983.2214,-52.3756 974.1708,-57.8834 979.5809,-62.3254"/>
</g>
<!-- H_wall -->
<g id="node24" class="node">
<title>H_wall</title>
<polygon fill="#d3d3d3" stroke="#000000" points="406.9245,-138.3381 363.9245,-138.3381 363.9245,-120.3381 406.9245,-120.3381 406.9245,-138.3381"/>
<text text-anchor="middle" x="385.4245" y="-127.1381" font-family="Times,serif" font-size="9.00" fill="#000000">H_wall</text>
</g>
<!-- H_wall&#45;&gt;left -->
<g id="edge37" class="edge">
<title>H_wall&#45;&gt;left</title>
<path fill="none" stroke="#ff0000" stroke-width=".2612" d="M395.8681,-120.2826C401.3525,-115.9787 408.3843,-111.1298 415.4245,-108.1249 447.0141,-94.6417 674.6411,-55.1977 757.4254,-41.1242"/>
<polygon fill="#ff0000" stroke="#ff0000" stroke-width=".2612" points="758.1741,-44.5473 767.4479,-39.4242 757.0034,-37.6459 758.1741,-44.5473"/>
</g>
<!-- H_wall&#45;&gt;cw -->
<g id="edge112" class="edge">
<title>H_wall&#45;&gt;cw</title>
<path fill="none" stroke="#ff0000" stroke-width=".7805" d="M395.4492,-120.1231C400.9321,-115.6642 408.0893,-110.7246 415.4245,-108.1249 530.2451,-67.4312 853.444,-126.5584 962.4245,-72.1249 967.9133,-69.3834 972.8276,-65.1947 977.0385,-60.6301"/>
<polygon fill="#ff0000" stroke="#ff0000" stroke-width=".7805" points="979.8309,-62.7441 983.4384,-52.7823 974.406,-58.3201 979.8309,-62.7441"/>
</g>
<!-- right_t&#45;1 -->
<g id="node25" class="node">
<title>right_t&#45;1</title>
<polygon fill="#d3d3d3" stroke="#000000" points="1318.4245,-138.3381 1270.4245,-138.3381 1270.4245,-120.3381 1318.4245,-120.3381 1318.4245,-138.3381"/>
<text text-anchor="middle" x="1294.4245" y="-127.1381" font-family="Times,serif" font-size="9.00" fill="#000000">right_t&#45;1</text>
</g>
<!-- right_t&#45;1&#45;&gt;right -->
<g id="edge19" class="edge">
<title>right_t&#45;1&#45;&gt;right</title>
<path fill="none" stroke="#ff0000" stroke-width=".8025" d="M1290.8411,-120.0535C1286.1376,-107.8667 1277.644,-85.8599 1270.5307,-67.4295"/>
<polygon fill="#ff0000" stroke="#ff0000" stroke-width=".8025" points="1273.7252,-65.9857 1266.8592,-57.9167 1267.1947,-68.5062 1273.7252,-65.9857"/>
</g>
<!-- right_t&#45;1&#45;&gt;forward -->
<g id="edge65" class="edge">
<title>right_t&#45;1&#45;&gt;forward</title>
<path fill="none" stroke="#00ff00" stroke-width=".2206" d="M1283.1898,-120.3036C1277.1018,-115.8941 1269.2408,-110.9442 1261.4245,-108.1249 1136.7611,-63.1594 1091.0574,-114.306 965.4245,-72.1249 956.322,-69.0687 947.0779,-64.5818 938.6034,-59.8034"/>
<polygon fill="#00ff00" stroke="#00ff00" stroke-width=".2206" points="940.14,-56.6455 929.7529,-54.5577 936.5709,-62.6673 940.14,-56.6455"/>
</g>
<!-- right_t&#45;1&#45;&gt;no_turn -->
<g id="edge113" class="edge">
<title>right_t&#45;1&#45;&gt;no_turn</title>
<path fill="none" stroke="#ff0000" stroke-width=".1989" d="M1306.867,-120.0535C1325.1438,-106.4152 1359.9023,-80.4783 1385.9801,-61.0188"/>
<polygon fill="#ff0000" stroke="#ff0000" stroke-width=".1989" points="1388.1887,-63.7379 1394.1101,-54.9522 1384.0023,-58.1277 1388.1887,-63.7379"/>
</g>
<!-- right_t&#45;1&#45;&gt;cw -->
<g id="edge32" class="edge">
<title>right_t&#45;1&#45;&gt;cw</title>
<path fill="none" stroke="#ff0000" stroke-width=".3889" d="M1282.8519,-120.1869C1276.7975,-115.8586 1269.0687,-111.0167 1261.4245,-108.1249 1162.597,-70.7383 1119.6115,-121.9328 1026.4245,-72.1249 1020.6287,-69.0271 1015.3197,-64.5036 1010.7334,-59.7005"/>
<polygon fill="#ff0000" stroke="#ff0000" stroke-width=".3889" points="1013.3414,-57.3655 1004.155,-52.0872 1008.0448,-61.9422 1013.3414,-57.3655"/>
</g>
<!-- forward_t&#45;1 -->
<g id="node26" class="node">
<title>forward_t&#45;1</title>
<polygon fill="#d3d3d3" stroke="#000000" points="1251.9245,-138.3381 1192.9245,-138.3381 1192.9245,-120.3381 1251.9245,-120.3381 1251.9245,-138.3381"/>
<text text-anchor="middle" x="1222.4245" y="-127.1381" font-family="Times,serif" font-size="9.00" fill="#000000">forward_t&#45;1</text>
</g>
<!-- forward_t&#45;1&#45;&gt;no_move -->
<g id="edge61" class="edge">
<title>forward_t&#45;1&#45;&gt;no_move</title>
<path fill="none" stroke="#ff0000" stroke-width=".803" d="M1207.5734,-120.2246C1185.0404,-106.3971 1141.4549,-79.6506 1109.4437,-60.0068"/>
<polygon fill="#ff0000" stroke="#ff0000" stroke-width=".803" points="1111.1027,-56.9184 1100.7489,-54.6712 1107.4415,-62.8846 1111.1027,-56.9184"/>
</g>
<!-- forward_t&#45;1&#45;&gt;right -->
<g id="edge41" class="edge">
<title>forward_t&#45;1&#45;&gt;right</title>
<path fill="none" stroke="#ff0000" stroke-width=".763" stroke-dasharray="1,5" d="M1226.0079,-120.0535C1230.7114,-107.8667 1239.205,-85.8599 1246.3183,-67.4295"/>
<polygon fill="#ff0000" stroke="#ff0000" stroke-width=".763" points="1249.6543,-68.5062 1249.9898,-57.9167 1243.1238,-65.9857 1249.6543,-68.5062"/>
</g>
<!-- forward_t&#45;1&#45;&gt;left -->
<g id="edge20" class="edge">
<title>forward_t&#45;1&#45;&gt;left</title>
<path fill="none" stroke="#00ff00" stroke-width=".3871" d="M1209.3045,-120.2994C1202.2439,-115.8887 1193.2022,-110.939 1184.4245,-108.1249 1047.2966,-64.1621 1000.8284,-111.8887 862.4245,-72.1249 845.5008,-67.2627 827.6925,-58.8566 813.6775,-51.3829"/>
<polygon fill="#00ff00" stroke="#00ff00" stroke-width=".3871" points="815.0875,-48.164 804.6384,-46.4128 811.7148,-54.2979 815.0875,-48.164"/>
</g>
<!-- forward_t&#45;1&#45;&gt;forward -->
<g id="edge11" class="edge">
<title>forward_t&#45;1&#45;&gt;forward</title>
<path fill="none" stroke="#00ff00" stroke-width=".2888" stroke-dasharray="1,5" d="M1208.8928,-120.2698C1201.8687,-115.9626 1192.9841,-111.1146 1184.4245,-108.1249 1091.3019,-75.5986 1058.2561,-105.4727 965.4245,-72.1249 956.388,-68.8787 947.1702,-64.3163 938.7002,-59.525"/>
<polygon fill="#00ff00" stroke="#00ff00" stroke-width=".2888" points="940.2356,-56.3668 929.8467,-54.2876 936.6715,-62.3915 940.2356,-56.3668"/>
</g>
<!-- forward_t&#45;1&#45;&gt;ccw -->
<g id="edge36" class="edge">
<title>forward_t&#45;1&#45;&gt;ccw</title>
<path fill="none" stroke="#ff0000" stroke-width=".2355" d="M1236.3459,-120.2883C1243.5635,-115.9859 1252.6794,-111.1365 1261.4245,-108.1249 1353.4449,-76.4349 1382.3602,-92.9763 1477.4245,-72.1249 1512.2499,-64.4863 1551.6089,-53.4099 1578.2171,-45.5517"/>
<polygon fill="#ff0000" stroke="#ff0000" stroke-width=".2355" points="1579.5142,-48.8173 1588.0988,-42.608 1577.5157,-42.1087 1579.5142,-48.8173"/>
</g>
<!-- forward_t&#45;1&#45;&gt;cw -->
<g id="edge52" class="edge">
<title>forward_t&#45;1&#45;&gt;cw</title>
<path fill="none" stroke="#ff0000" stroke-width=".1942" d="M1208.4583,-120.2769C1201.4716,-116.0772 1192.7477,-111.3205 1184.4245,-108.1249 1117.188,-82.31 1088.6793,-108.3396 1026.4245,-72.1249 1020.744,-68.8204 1015.4805,-64.2154 1010.9016,-59.3989"/>
<polygon fill="#ff0000" stroke="#ff0000" stroke-width=".1942" points="1013.5098,-57.0644 1004.3081,-51.8127 1008.2265,-61.6564 1013.5098,-57.0644"/>
</g>
<!-- turn_t&#45;1 -->
<g id="node27" class="node">
<title>turn_t&#45;1</title>
<polygon fill="#d3d3d3" stroke="#000000" points="652.9245,-138.3381 607.9245,-138.3381 607.9245,-120.3381 652.9245,-120.3381 652.9245,-138.3381"/>
<text text-anchor="middle" x="630.4245" y="-127.1381" font-family="Times,serif" font-size="9.00" fill="#000000">turn_t&#45;1</text>
</g>
<!-- turn_t&#45;1&#45;&gt;no_move -->
<g id="edge26" class="edge">
<title>turn_t&#45;1&#45;&gt;no_move</title>
<path fill="none" stroke="#00ff00" stroke-width=".4683" d="M653.1834,-121.4088C666.9846,-116.885 685.0376,-111.4669 701.4245,-108.1249 841.6573,-79.5257 888.159,-124.3117 1021.4245,-72.1249 1026.1593,-70.2708 1030.846,-67.8387 1035.3355,-65.1116"/>
<polygon fill="#00ff00" stroke="#00ff00" stroke-width=".4683" points="1037.2836,-68.0195 1043.6863,-59.5782 1033.417,-62.1842 1037.2836,-68.0195"/>
</g>
<!-- turn_t&#45;1&#45;&gt;right -->
<g id="edge104" class="edge">
<title>turn_t&#45;1&#45;&gt;right</title>
<path fill="none" stroke="#00ff00" stroke-width=".2012" stroke-dasharray="1,5" d="M653.1539,-121.2593C666.9446,-116.6824 684.9969,-111.2611 701.4245,-108.1249 882.4075,-73.5733 932.7108,-102.6007 1114.4245,-72.1249 1153.1339,-65.6328 1196.7502,-54.102 1225.7352,-45.8253"/>
<polygon fill="#00ff00" stroke="#00ff00" stroke-width=".2012" points="1227.0819,-49.0793 1235.7157,-42.9386 1225.1369,-42.3549 1227.0819,-49.0793"/>
</g>
<!-- turn_t&#45;1&#45;&gt;left -->
<g id="edge92" class="edge">
<title>turn_t&#45;1&#45;&gt;left</title>
<path fill="none" stroke="#ff0000" stroke-width=".1477" d="M645.7642,-120.2246C672.7058,-104.2182 728.7854,-70.9007 761.7298,-51.328"/>
<polygon fill="#ff0000" stroke="#ff0000" stroke-width=".1477" points="763.5554,-54.3145 770.3649,-46.1978 759.98,-48.2965 763.5554,-54.3145"/>
</g>
<!-- turn_t&#45;1&#45;&gt;forward -->
<g id="edge98" class="edge">
<title>turn_t&#45;1&#45;&gt;forward</title>
<path fill="none" stroke="#ff0000" stroke-width=".4685" stroke-dasharray="1,5" d="M644.0112,-120.308C650.8114,-116.1156 659.3067,-111.3562 667.4245,-108.1249 730.722,-82.9294 751.6492,-93.2326 816.4245,-72.1249 832.6201,-66.8474 850.0421,-59.893 865.0101,-53.5005"/>
<polygon fill="#ff0000" stroke="#ff0000" stroke-width=".4685" points="866.6729,-56.5944 874.4544,-49.4041 863.8875,-50.1724 866.6729,-56.5944"/>
</g>
<!-- turn_t&#45;1&#45;&gt;backward -->
<g id="edge50" class="edge">
<title>turn_t&#45;1&#45;&gt;backward</title>
<path fill="none" stroke="#ff0000" stroke-width=".3857" d="M618.5793,-120.0535C602.3114,-107.3022 572.3277,-83.8001 548.206,-64.8928"/>
<polygon fill="#ff0000" stroke="#ff0000" stroke-width=".3857" points="550.3081,-62.0935 540.2785,-58.6791 545.9898,-67.6028 550.3081,-62.0935"/>
</g>
<!-- turn_t&#45;1&#45;&gt;no_turn -->
<g id="edge2" class="edge">
<title>turn_t&#45;1&#45;&gt;no_turn</title>
<path fill="none" stroke="#00ff00" stroke-width=".1076" d="M653.1235,-121.0937C666.9034,-116.4581 684.9551,-111.0332 701.4245,-108.1249 967.5587,-61.1286 1042.8683,-122.2841 1308.4245,-72.1249 1333.0036,-67.4823 1359.6894,-58.9313 1380.7344,-51.3209"/>
<polygon fill="#00ff00" stroke="#00ff00" stroke-width=".1076" points="1382.1105,-54.5438 1390.278,-47.7952 1379.6847,-47.9776 1382.1105,-54.5438"/>
</g>
<!-- right_t&#45;2 -->
<g id="node28" class="node">
<title>right_t&#45;2</title>
<polygon fill="#d3d3d3" stroke="#000000" points="186.4245,-138.3381 138.4245,-138.3381 138.4245,-120.3381 186.4245,-120.3381 186.4245,-138.3381"/>
<text text-anchor="middle" x="162.4245" y="-127.1381" font-family="Times,serif" font-size="9.00" fill="#000000">right_t&#45;2</text>
</g>
<!-- right_t&#45;2&#45;&gt;forward -->
<g id="edge99" class="edge">
<title>right_t&#45;2&#45;&gt;forward</title>
<path fill="none" stroke="#ff0000" stroke-width=".1565" stroke-dasharray="1,5" d="M173.2922,-120.3189C179.4003,-115.797 187.3937,-110.7383 195.4245,-108.1249 458.3183,-22.5744 546.9562,-133.9214 816.4245,-72.1249 833.0273,-68.3174 850.525,-61.6366 865.4398,-55.0515"/>
<polygon fill="#ff0000" stroke="#ff0000" stroke-width=".1565" points="867.1855,-58.1023 874.8325,-50.7692 864.2816,-51.733 867.1855,-58.1023"/>
</g>
<!-- right_t&#45;2&#45;&gt;backward -->
<g id="edge14" class="edge">
<title>right_t&#45;2&#45;&gt;backward</title>
<path fill="none" stroke="#ff0000" stroke-width=".7037" stroke-dasharray="1,5" d="M174.395,-120.2049C180.4251,-115.9882 188.0152,-111.238 195.4245,-108.1249 286.8266,-69.7215 402.0985,-50.0453 465.0878,-41.5095"/>
<polygon fill="#ff0000" stroke="#ff0000" stroke-width=".7037" points="465.6528,-44.9654 475.1084,-40.1862 464.7363,-38.0256 465.6528,-44.9654"/>
</g>
<!-- forward_t&#45;2 -->
<g id="node29" class="node">
<title>forward_t&#45;2</title>
<polygon fill="#d3d3d3" stroke="#000000" points="1174.9245,-138.3381 1115.9245,-138.3381 1115.9245,-120.3381 1174.9245,-120.3381 1174.9245,-138.3381"/>
<text text-anchor="middle" x="1145.4245" y="-127.1381" font-family="Times,serif" font-size="9.00" fill="#000000">forward_t&#45;2</text>
</g>
<!-- forward_t&#45;2&#45;&gt;forward -->
<g id="edge13" class="edge">
<title>forward_t&#45;2&#45;&gt;forward</title>
<path fill="none" stroke="#ff0000" stroke-width=".273" d="M1130.6575,-120.1756C1123.5349,-116.0538 1114.7471,-111.392 1106.4245,-108.1249 1046.2202,-84.4912 1025.2841,-96.6185 965.4245,-72.1249 956.5378,-68.4886 947.3796,-63.771 938.9196,-58.9535"/>
<polygon fill="#ff0000" stroke="#ff0000" stroke-width=".273" points="940.4521,-55.7941 930.0596,-53.7332 936.8986,-61.8251 940.4521,-55.7941"/>
</g>
<!-- forward_t&#45;2&#45;&gt;backward -->
<g id="edge90" class="edge">
<title>forward_t&#45;2&#45;&gt;backward</title>
<path fill="none" stroke="#ff0000" stroke-width=".3616" d="M1131.9369,-120.275C1124.6845,-115.8577 1115.4061,-110.9094 1106.4245,-108.1249 957.9061,-62.0809 912.7221,-91.3611 758.4245,-72.1249 688.1656,-63.3657 606.9824,-51.0986 557.435,-43.3686"/>
<polygon fill="#ff0000" stroke="#ff0000" stroke-width=".3616" points="557.7787,-39.8799 547.3576,-41.7909 556.6959,-46.7956 557.7787,-39.8799"/>
</g>
<!-- forward_t&#45;2&#45;&gt;no_turn -->
<g id="edge110" class="edge">
<title>forward_t&#45;2&#45;&gt;no_turn</title>
<path fill="none" stroke="#00ff00" stroke-width=".6746" stroke-dasharray="1,5" d="M1160.2403,-120.2968C1167.3736,-116.2016 1176.1563,-111.5271 1184.4245,-108.1249 1237.4941,-86.2879 1253.5729,-88.9929 1308.4245,-72.1249 1332.3333,-64.7725 1358.9952,-56.1251 1380.1952,-49.1415"/>
<polygon fill="#00ff00" stroke="#00ff00" stroke-width=".6746" points="1381.4268,-52.4207 1389.8241,-45.9604 1379.2309,-45.7741 1381.4268,-52.4207"/>
</g>
<!-- forward_t&#45;2&#45;&gt;ccw -->
<g id="edge80" class="edge">
<title>forward_t&#45;2&#45;&gt;ccw</title>
<path fill="none" stroke="#ff0000" stroke-width=".4798" d="M1159.293,-120.1289C1166.497,-115.7859 1175.6168,-110.9483 1184.4245,-108.1249 1309.3636,-68.0743 1348.6962,-97.4795 1477.4245,-72.1249 1512.4058,-65.2349 1551.7378,-54.0294 1578.2971,-45.9362"/>
<polygon fill="#ff0000" stroke="#ff0000" stroke-width=".4798" points="1579.634,-49.1866 1588.1585,-42.8951 1577.5711,-42.4974 1579.634,-49.1866"/>
</g>
<!-- forward_t&#45;2&#45;&gt;cw -->
<g id="edge39" class="edge">
<title>forward_t&#45;2&#45;&gt;cw</title>
<path fill="none" stroke="#00ff00" stroke-width=".2381" d="M1129.2495,-120.1855C1122.2884,-116.3392 1114.0197,-111.8927 1106.4245,-108.1249 1071.4965,-90.7976 1058.0144,-94.9782 1026.4245,-72.1249 1021.3149,-68.4284 1016.391,-63.8392 1011.9756,-59.187"/>
<polygon fill="#00ff00" stroke="#00ff00" stroke-width=".2381" points="1014.3458,-56.5857 1005.0818,-51.4448 1009.1179,-61.2408 1014.3458,-56.5857"/>
</g>
<!-- turn_t&#45;2 -->
<g id="node30" class="node">
<title>turn_t&#45;2</title>
<polygon fill="#d3d3d3" stroke="#000000" points="809.9245,-138.3381 764.9245,-138.3381 764.9245,-120.3381 809.9245,-120.3381 809.9245,-138.3381"/>
<text text-anchor="middle" x="787.4245" y="-127.1381" font-family="Times,serif" font-size="9.00" fill="#000000">turn_t&#45;2</text>
</g>
<!-- turn_t&#45;2&#45;&gt;right -->
<g id="edge38" class="edge">
<title>turn_t&#45;2&#45;&gt;right</title>
<path fill="none" stroke="#00ff00" stroke-width=".2234" d="M798.2778,-120.2996C804.1701,-115.889 811.7953,-110.9393 819.4245,-108.1249 943.3449,-62.41 984.5561,-96.2148 1114.4245,-72.1249 1153.0162,-64.9663 1196.6549,-53.562 1225.6773,-45.4972"/>
<polygon fill="#00ff00" stroke="#00ff00" stroke-width=".2234" points="1226.9903,-48.7639 1235.672,-42.6911 1225.0981,-42.0245 1226.9903,-48.7639"/>
</g>
<!-- turn_t&#45;2&#45;&gt;left -->
<g id="edge64" class="edge">
<title>turn_t&#45;2&#45;&gt;left</title>
<path fill="none" stroke="#00ff00" stroke-width=".5509" d="M787.4245,-120.0535C787.4245,-107.592 787.4245,-84.8629 787.4245,-66.1889"/>
<polygon fill="#00ff00" stroke="#00ff00" stroke-width=".5509" points="790.9246,-66.0473 787.4245,-56.0474 783.9246,-66.0474 790.9246,-66.0473"/>
</g>
<!-- right&#45;&gt;right -->
<g id="edge95" class="edge">
<title>right&#45;&gt;right</title>
<path fill="none" stroke="#ff0000" stroke-width=".2644" stroke-dasharray="1,5" d="M1275.8385,-51.6279C1287.8915,-56.3447 1299.759,-51.1562 1299.759,-36.0624 1299.759,-25.3317 1293.7608,-19.6075 1285.9621,-18.8896"/>
<polygon fill="#ff0000" stroke="#ff0000" stroke-width=".2644" points="1285.166,-15.4721 1275.8385,-20.497 1286.2637,-22.3855 1285.166,-15.4721"/>
</g>
<!-- forward&#45;&gt;forward -->
<g id="edge31" class="edge">
<title>forward&#45;&gt;forward</title>
<path fill="none" stroke="#00ff00" stroke-width=".103" d="M930.5846,-53.0429C942.7354,-54.6601 953.2443,-48.9999 953.2443,-36.0624 953.2443,-26.9658 948.0489,-21.4669 940.7403,-19.5658"/>
<polygon fill="#00ff00" stroke="#00ff00" stroke-width=".103" points="940.7398,-16.0619 930.5846,-19.082 940.4066,-23.054 940.7398,-16.0619"/>
</g>
<!-- backward&#45;&gt;backward -->
<g id="edge111" class="edge">
<title>backward&#45;&gt;backward</title>
<path fill="none" stroke="#00ff00" stroke-width="1.0654" stroke-dasharray="1,5" d="M543.3466,-53.2609C555.4641,-53.9242 565.487,-48.1914 565.487,-36.0624 565.487,-27.5343 560.5318,-22.1683 553.3775,-19.9644"/>
<polygon fill="#00ff00" stroke="#00ff00" stroke-width="1.0654" points="553.6687,-16.4755 543.3466,-18.864 552.9053,-23.4337 553.6687,-16.4755"/>
</g>
<!-- no_turn&#45;&gt;no_turn -->
<g id="edge12" class="edge">
<title>no_turn&#45;&gt;no_turn</title>
<path fill="none" stroke="#ff0000" stroke-width=".4854" d="M1445.6991,-52.9713C1457.8877,-54.8159 1468.5372,-49.1796 1468.5372,-36.0624 1468.5372,-26.8394 1463.2723,-21.3148 1455.9093,-19.4887"/>
<polygon fill="#ff0000" stroke="#ff0000" stroke-width=".4854" points="1455.8085,-15.9836 1445.6991,-19.1536 1455.5788,-22.9798 1455.8085,-15.9836"/>
</g>
<!-- ccw&#45;&gt;ccw -->
<g id="edge77" class="edge">
<title>ccw&#45;&gt;ccw</title>
<path fill="none" stroke="#00ff00" stroke-width=".8724" d="M1625.4111,-51.2741C1637.331,-56.5861 1649.3448,-51.5156 1649.3448,-36.0624 1649.3448,-24.9555 1643.1385,-19.2122 1635.2215,-18.8326"/>
<polygon fill="#00ff00" stroke="#00ff00" stroke-width=".8724" points="1634.5007,-15.4075 1625.4111,-20.8508 1635.9113,-22.2639 1634.5007,-15.4075"/>
</g>
<!-- 433&#45;&gt;backward -->
<g id="edge128" class="edge">
<title>433&#45;&gt;backward</title>
<path fill="none" stroke="#ff0000" stroke-width="1.4613" d="M55.7698,-115.7863C60.0011,-112.8548 64.7018,-110.0582 69.4245,-108.1249 140.7579,-78.924 366.7369,-51.7279 465.0205,-40.9479"/>
<polygon fill="#ff0000" stroke="#ff0000" stroke-width="1.4613" points="465.6791,-44.397 475.2418,-39.8356 464.9218,-37.438 465.6791,-44.397"/>
</g>
<!-- 375&#45;&gt;backward -->
<g id="edge126" class="edge">
<title>375&#45;&gt;backward</title>
<path fill="none" stroke="#ff0000" stroke-width=".3485" d="M116.1225,-115.6494C120.2692,-112.7948 124.8436,-110.0669 129.4245,-108.1249 243.726,-59.6687 391.0022,-43.6419 464.8458,-38.459"/>
<polygon fill="#ff0000" stroke="#ff0000" stroke-width=".3485" points="465.4497,-41.9266 475.1953,-37.7704 464.985,-34.942 465.4497,-41.9266"/>
</g>
</g>
</svg>
