<?xml version="1.0" encoding="UTF-8" standalone="no"?>
<!DOCTYPE svg PUBLIC "-//W3C//DTD SVG 1.1//EN"
 "http://www.w3.org/Graphics/SVG/1.1/DTD/svg11.dtd">
<!-- Generated by graphviz version 2.40.1 (20161225.0304)
 -->
<!-- Title: %3 Pages: 1 -->
<svg width="2973pt" height="305pt"
 viewBox="0.00 0.00 2972.97 305.12" xmlns="http://www.w3.org/2000/svg" xmlns:xlink="http://www.w3.org/1999/xlink">
<g id="graph0" class="graph" transform="scale(1 1) rotate(0) translate(4 301.1198)">
<title>%3</title>
<polygon fill="#ffffff" stroke="transparent" points="-4,4 -4,-301.1198 2968.9742,-301.1198 2968.9742,4 -4,4"/>
<!-- A_agent -->
<g id="node1" class="node">
<title>A_agent</title>
<polygon fill="#d3d3d3" stroke="#000000" points="2422.7255,-297.1198 2375.7255,-297.1198 2375.7255,-279.1198 2422.7255,-279.1198 2422.7255,-297.1198"/>
<text text-anchor="middle" x="2399.2255" y="-285.9198" font-family="Times,serif" font-size="9.00" fill="#000000">A_agent</text>
</g>
<!-- right -->
<g id="node26" class="node">
<title>right</title>
<ellipse fill="#add8e6" stroke="#000000" cx="920.2255" cy="-121.5599" rx="23.1702" ry="23.1702"/>
<text text-anchor="middle" x="920.2255" y="-119.3599" font-family="Times,serif" font-size="9.00" fill="#000000">right</text>
</g>
<!-- A_agent&#45;&gt;right -->
<g id="edge55" class="edge">
<title>A_agent&#45;&gt;right</title>
<path fill="none" stroke="#ff0000" stroke-width=".3193" d="M2375.6637,-287.3305C2328.6267,-285.7562 2219.7363,-282.1194 2128.2255,-279.1198 2066.393,-277.0931 1069.6998,-272.444 1015.2255,-243.1198 991.5015,-230.3489 996.6358,-214.9912 980.2255,-193.6224 968.1548,-177.9045 953.9965,-160.8401 942.4655,-147.2639"/>
<polygon fill="#ff0000" stroke="#ff0000" stroke-width=".3193" points="944.8235,-144.6356 935.6675,-139.3048 939.5008,-149.1819 944.8235,-144.6356"/>
</g>
<!-- left -->
<g id="node27" class="node">
<title>left</title>
<ellipse fill="#add8e6" stroke="#000000" cx="1405.2255" cy="-121.5599" rx="19.6" ry="19.6"/>
<text text-anchor="middle" x="1405.2255" y="-119.3599" font-family="Times,serif" font-size="9.00" fill="#000000">left</text>
</g>
<!-- A_agent&#45;&gt;left -->
<g id="edge5" class="edge">
<title>A_agent&#45;&gt;left</title>
<path fill="none" stroke="#00ff00" stroke-width=".2029" d="M2375.7009,-287.2665C2234.1485,-282.0956 1501.1178,-254.7889 1481.2255,-243.1198 1476.4342,-240.3092 1441.3579,-182.2894 1420.5713,-147.4379"/>
<polygon fill="#00ff00" stroke="#00ff00" stroke-width=".2029" points="1423.4957,-145.5079 1415.3728,-138.7057 1417.4808,-149.0887 1423.4957,-145.5079"/>
</g>
<!-- forward -->
<g id="node28" class="node">
<title>forward</title>
<ellipse fill="#add8e6" stroke="#000000" cx="262.2255" cy="-121.5599" rx="31.6406" ry="31.6406"/>
<text text-anchor="middle" x="262.2255" y="-119.3599" font-family="Times,serif" font-size="9.00" fill="#000000">forward</text>
</g>
<!-- A_agent&#45;&gt;forward -->
<g id="edge67" class="edge">
<title>A_agent&#45;&gt;forward</title>
<path fill="none" stroke="#00ff00" stroke-width=".3469" d="M2375.6653,-287.2792C2328.6311,-285.6138 2219.7456,-281.823 2128.2255,-279.1198 1818.9236,-269.9844 1042.7012,-285.8249 736.2255,-243.1198 572.2217,-220.2672 383.1783,-161.7453 302.2979,-135.1176"/>
<polygon fill="#00ff00" stroke="#00ff00" stroke-width=".3469" points="303.1175,-131.7021 292.5241,-131.8813 300.9171,-138.3473 303.1175,-131.7021"/>
</g>
<!-- backward -->
<g id="node29" class="node">
<title>backward</title>
<ellipse fill="#add8e6" stroke="#000000" cx="2367.2255" cy="-121.5599" rx="36.125" ry="36.125"/>
<text text-anchor="middle" x="2367.2255" y="-119.3599" font-family="Times,serif" font-size="9.00" fill="#000000">backward</text>
</g>
<!-- A_agent&#45;&gt;backward -->
<g id="edge87" class="edge">
<title>A_agent&#45;&gt;backward</title>
<path fill="none" stroke="#00ff00" stroke-width=".3029" d="M2422.7883,-286.7829C2473.3125,-283.3732 2589.4206,-272.451 2613.2255,-243.1198 2627.0884,-226.0386 2627.1993,-210.613 2613.2255,-193.6224 2560.5717,-129.6013 2507.8893,-186.5955 2430.2255,-157.6224 2422.163,-154.6146 2413.9195,-150.6458 2406.1651,-146.4425"/>
<polygon fill="#00ff00" stroke="#00ff00" stroke-width=".3029" points="2407.7544,-143.3204 2397.327,-141.4442 2404.3085,-149.4135 2407.7544,-143.3204"/>
</g>
<!-- no_turn -->
<g id="node30" class="node">
<title>no_turn</title>
<ellipse fill="#add8e6" stroke="#000000" cx="780.2255" cy="-121.5599" rx="31.2258" ry="31.2258"/>
<text text-anchor="middle" x="780.2255" y="-119.3599" font-family="Times,serif" font-size="9.00" fill="#000000">no_turn</text>
</g>
<!-- A_agent&#45;&gt;no_turn -->
<g id="edge57" class="edge">
<title>A_agent&#45;&gt;no_turn</title>
<path fill="none" stroke="#00ff00" stroke-width=".2236" stroke-dasharray="1,5" d="M2375.6653,-287.2817C2328.6309,-285.6208 2219.7451,-281.8376 2128.2255,-279.1198 2090.0348,-277.9857 779.8864,-270.4879 753.2255,-243.1198 730.9984,-220.3032 743.3017,-183.482 757.7499,-156.3358"/>
<polygon fill="#00ff00" stroke="#00ff00" stroke-width=".2236" points="760.8468,-157.9689 762.6852,-147.5348 754.7413,-154.5451 760.8468,-157.9689"/>
</g>
<!-- ccw -->
<g id="node31" class="node">
<title>ccw</title>
<ellipse fill="#add8e6" stroke="#000000" cx="2461.2255" cy="-121.5599" rx="21.8409" ry="21.8409"/>
<text text-anchor="middle" x="2461.2255" y="-119.3599" font-family="Times,serif" font-size="9.00" fill="#000000">ccw</text>
</g>
<!-- A_agent&#45;&gt;ccw -->
<g id="edge46" class="edge">
<title>A_agent&#45;&gt;ccw</title>
<path fill="none" stroke="#ff0000" stroke-width=".4856" stroke-dasharray="1,5" d="M2422.7849,-287.4623C2508.8611,-284.8208 2802.7478,-273.6158 2830.2255,-243.1198 2844.9512,-226.7766 2844.211,-210.6034 2830.2255,-193.6224 2787.5336,-141.7866 2575.0863,-126.7234 2493.3477,-122.8076"/>
<polygon fill="#ff0000" stroke="#ff0000" stroke-width=".4856" points="2493.3041,-119.3021 2483.1557,-122.3452 2492.9868,-126.2949 2493.3041,-119.3021"/>
</g>
<!-- 1730 -->
<g id="node39" class="node">
<title>1730</title>
<ellipse fill="#ffffff" stroke="#000000" cx="2690.2255" cy="-218.3711" rx="25" ry="25"/>
<text text-anchor="middle" x="2690.2255" y="-216.1711" font-family="Times,serif" font-size="9.00" fill="#000000">1730</text>
</g>
<!-- A_agent&#45;&gt;1730 -->
<g id="edge114" class="edge">
<title>A_agent&#45;&gt;1730</title>
<path fill="none" stroke="#00ff00" stroke-width=".1215" d="M2422.9758,-286.9364C2468.6521,-284.0055 2571.2905,-274.2235 2651.2255,-243.1198 2654.5394,-241.8304 2657.8754,-240.245 2661.1265,-238.505"/>
<polygon fill="#00ff00" stroke="#00ff00" stroke-width=".1215" points="2663.124,-241.3909 2669.9748,-233.309 2659.5793,-235.3547 2663.124,-241.3909"/>
</g>
<!-- 1508 -->
<g id="node42" class="node">
<title>1508</title>
<ellipse fill="#ffffff" stroke="#000000" cx="2796.2255" cy="-218.3711" rx="25" ry="25"/>
<text text-anchor="middle" x="2796.2255" y="-216.1711" font-family="Times,serif" font-size="9.00" fill="#000000">1508</text>
</g>
<!-- A_agent&#45;&gt;1508 -->
<g id="edge106" class="edge">
<title>A_agent&#45;&gt;1508</title>
<path fill="none" stroke="#00ff00" stroke-width=".2533" d="M2422.7645,-286.431C2476.7014,-282.2215 2613.1383,-269.6385 2724.2255,-243.1198 2737.2829,-240.0028 2751.3122,-235.4637 2763.487,-231.1215"/>
<polygon fill="#00ff00" stroke="#00ff00" stroke-width=".2533" points="2765.0309,-234.2834 2773.2157,-227.5559 2762.622,-227.7109 2765.0309,-234.2834"/>
</g>
<!-- A_lm -->
<g id="node2" class="node">
<title>A_lm</title>
<polygon fill="#d3d3d3" stroke="#000000" points="853.7255,-227.3711 816.7255,-227.3711 816.7255,-209.3711 853.7255,-209.3711 853.7255,-227.3711"/>
<text text-anchor="middle" x="835.2255" y="-216.1711" font-family="Times,serif" font-size="9.00" fill="#000000">A_lm</text>
</g>
<!-- A_lm&#45;&gt;right -->
<g id="edge64" class="edge">
<title>A_lm&#45;&gt;right</title>
<path fill="none" stroke="#00ff00" stroke-width=".1834" d="M843.3756,-209.0884C855.8478,-194.8832 880.1084,-167.2515 898.0491,-146.8178"/>
<polygon fill="#00ff00" stroke="#00ff00" stroke-width=".1834" points="900.8495,-148.9331 904.8172,-139.1092 895.5893,-144.3146 900.8495,-148.9331"/>
</g>
<!-- A_lm&#45;&gt;forward -->
<g id="edge82" class="edge">
<title>A_lm&#45;&gt;forward</title>
<path fill="none" stroke="#ff0000" stroke-width=".1741" d="M827.7118,-209.0747C822.7726,-203.6405 815.8318,-197.1715 808.2255,-193.6224 718.4118,-151.7152 415.9964,-130.4236 304.215,-123.8407"/>
<polygon fill="#ff0000" stroke="#ff0000" stroke-width=".1741" points="304.1918,-120.3335 294.0061,-123.2493 303.7869,-127.3218 304.1918,-120.3335"/>
</g>
<!-- A_lm&#45;&gt;ccw -->
<g id="edge31" class="edge">
<title>A_lm&#45;&gt;ccw</title>
<path fill="none" stroke="#00ff00" stroke-width=".643" d="M853.8077,-215.1205C886.3801,-209.5788 955.9602,-198.4355 1015.2255,-193.6224 1093.604,-187.2569 2359.1828,-191.3365 2430.2255,-157.6224 2434.9525,-155.3791 2439.239,-152.0364 2443.0133,-148.2761"/>
<polygon fill="#00ff00" stroke="#00ff00" stroke-width=".643" points="2445.6796,-150.5439 2449.6213,-140.7096 2440.4072,-145.9394 2445.6796,-150.5439"/>
</g>
<!-- A_wall -->
<g id="node3" class="node">
<title>A_wall</title>
<polygon fill="#d3d3d3" stroke="#000000" points="2172.7255,-227.3711 2129.7255,-227.3711 2129.7255,-209.3711 2172.7255,-209.3711 2172.7255,-227.3711"/>
<text text-anchor="middle" x="2151.2255" y="-216.1711" font-family="Times,serif" font-size="9.00" fill="#000000">A_wall</text>
</g>
<!-- no_move -->
<g id="node25" class="node">
<title>no_move</title>
<ellipse fill="#add8e6" stroke="#000000" cx="1879.2255" cy="-121.5599" rx="35.2113" ry="35.2113"/>
<text text-anchor="middle" x="1879.2255" y="-119.3599" font-family="Times,serif" font-size="9.00" fill="#000000">no_move</text>
</g>
<!-- A_wall&#45;&gt;no_move -->
<g id="edge71" class="edge">
<title>A_wall&#45;&gt;no_move</title>
<path fill="none" stroke="#00ff00" stroke-width=".1218" stroke-dasharray="1,5" d="M2139.7839,-209.1592C2132.97,-204.0262 2123.97,-197.839 2115.2255,-193.6224 2051.821,-163.0484 1972.5843,-142.0347 1923.9596,-130.9043"/>
<polygon fill="#00ff00" stroke="#00ff00" stroke-width=".1218" points="1924.5893,-127.4585 1914.065,-128.6793 1923.0535,-134.288 1924.5893,-127.4585"/>
</g>
<!-- A_wall&#45;&gt;backward -->
<g id="edge56" class="edge">
<title>A_wall&#45;&gt;backward</title>
<path fill="none" stroke="#00ff00" stroke-width=".2426" d="M2160.9443,-209.204C2166.7673,-204.086 2174.5173,-197.8988 2182.2255,-193.6224 2224.2634,-170.3002 2239.485,-175.212 2284.2255,-157.6224 2297.6386,-152.349 2312.0965,-146.2243 2325.1282,-140.5356"/>
<polygon fill="#00ff00" stroke="#00ff00" stroke-width=".2426" points="2326.585,-143.7184 2334.3298,-136.4887 2323.7669,-137.3107 2326.585,-143.7184"/>
</g>
<!-- A_wall&#45;&gt;no_turn -->
<g id="edge11" class="edge">
<title>A_wall&#45;&gt;no_turn</title>
<path fill="none" stroke="#00ff00" stroke-width=".5936" d="M2131.1652,-209.2793C2117.6416,-203.628 2099.2308,-196.8446 2082.2255,-193.6224 1560.5993,-94.7831 1410.9126,-250.6883 888.2255,-157.6224 864.4763,-153.3938 838.8282,-145.0022 818.488,-137.3773"/>
<polygon fill="#00ff00" stroke="#00ff00" stroke-width=".5936" points="819.5509,-134.0363 808.9608,-133.7174 817.0406,-140.5707 819.5509,-134.0363"/>
</g>
<!-- cw -->
<g id="node32" class="node">
<title>cw</title>
<ellipse fill="#add8e6" stroke="#000000" cx="2256.2255" cy="-121.5599" rx="19.1842" ry="19.1842"/>
<text text-anchor="middle" x="2256.2255" y="-119.3599" font-family="Times,serif" font-size="9.00" fill="#000000">cw</text>
</g>
<!-- A_wall&#45;&gt;cw -->
<g id="edge94" class="edge">
<title>A_wall&#45;&gt;cw</title>
<path fill="none" stroke="#00ff00" stroke-width=".4794" stroke-dasharray="1,5" d="M2161.2933,-209.0884C2178.0985,-193.5939 2212.2289,-162.1252 2234.6558,-141.4474"/>
<polygon fill="#00ff00" stroke="#00ff00" stroke-width=".4794" points="2237.0733,-143.9791 2242.0528,-134.6273 2232.3283,-138.8327 2237.0733,-143.9791"/>
</g>
<!-- B_agent -->
<g id="node4" class="node">
<title>B_agent</title>
<polygon fill="#d3d3d3" stroke="#000000" points="630.2255,-297.1198 584.2255,-297.1198 584.2255,-279.1198 630.2255,-279.1198 630.2255,-297.1198"/>
<text text-anchor="middle" x="607.2255" y="-285.9198" font-family="Times,serif" font-size="9.00" fill="#000000">B_agent</text>
</g>
<!-- B_agent&#45;&gt;right -->
<g id="edge85" class="edge">
<title>B_agent&#45;&gt;right</title>
<path fill="none" stroke="#ff0000" stroke-width=".1903" stroke-dasharray="1,5" d="M610.8009,-278.8579C618.7187,-259.6552 639.6502,-215.4766 672.2255,-193.6224 734.917,-151.5637 766.4226,-180.9355 838.2255,-157.6224 855.6984,-151.9492 874.5053,-143.8334 889.6949,-136.7369"/>
<polygon fill="#ff0000" stroke="#ff0000" stroke-width=".1903" points="891.58,-139.7159 899.104,-132.2567 888.5705,-133.3959 891.58,-139.7159"/>
</g>
<!-- B_agent&#45;&gt;left -->
<g id="edge72" class="edge">
<title>B_agent&#45;&gt;left</title>
<path fill="none" stroke="#00ff00" stroke-width=".3939" d="M630.5135,-280.9514C633.426,-280.2384 636.3804,-279.6015 639.2255,-279.1198 768.0814,-257.3045 1109.0275,-300.9506 1226.2255,-243.1198 1252.3579,-230.2249 1246.4095,-211.7502 1269.2255,-193.6224 1302.912,-166.8576 1348.0247,-145.2533 1376.8637,-132.906"/>
<polygon fill="#00ff00" stroke="#00ff00" stroke-width=".3939" points="1378.4723,-136.0268 1386.3404,-128.9314 1375.7649,-129.5716 1378.4723,-136.0268"/>
</g>
<!-- B_agent&#45;&gt;forward -->
<g id="edge73" class="edge">
<title>B_agent&#45;&gt;forward</title>
<path fill="none" stroke="#ff0000" stroke-width=".8731" d="M583.9898,-287.1286C480.3801,-282.5989 64.7813,-263.2237 46.2255,-243.1198 31.3048,-226.9544 33.3648,-211.4705 46.2255,-193.6224 66.8941,-164.9384 164.1276,-141.1578 220.8442,-129.4317"/>
<polygon fill="#ff0000" stroke="#ff0000" stroke-width=".8731" points="221.8312,-132.8028 230.9353,-127.3839 220.439,-125.9426 221.8312,-132.8028"/>
</g>
<!-- 773 -->
<g id="node33" class="node">
<title>773</title>
<ellipse fill="#ffffff" stroke="#000000" cx="1299.2255" cy="-218.3711" rx="21.4286" ry="21.4286"/>
<text text-anchor="middle" x="1299.2255" y="-216.1711" font-family="Times,serif" font-size="9.00" fill="#000000">773</text>
</g>
<!-- B_agent&#45;&gt;773 -->
<g id="edge96" class="edge">
<title>B_agent&#45;&gt;773</title>
<path fill="none" stroke="#00ff00" stroke-width=".4109" d="M630.5118,-280.9411C633.4246,-280.2298 636.3795,-279.5962 639.2255,-279.1198 776.4356,-256.1523 1132.9091,-289.056 1264.2255,-243.1198 1267.808,-241.8666 1271.3523,-240.1305 1274.7312,-238.1536"/>
<polygon fill="#00ff00" stroke="#00ff00" stroke-width=".4109" points="1276.8105,-240.9743 1283.2024,-232.5247 1272.9364,-235.144 1276.8105,-240.9743"/>
</g>
<!-- 1141 -->
<g id="node43" class="node">
<title>1141</title>
<ellipse fill="#ffffff" stroke="#000000" cx="384.2255" cy="-24.7487" rx="25" ry="25"/>
<text text-anchor="middle" x="384.2255" y="-22.5487" font-family="Times,serif" font-size="9.00" fill="#000000">1141</text>
</g>
<!-- B_agent&#45;&gt;1141 -->
<g id="edge99" class="edge">
<title>B_agent&#45;&gt;1141</title>
<path fill="none" stroke="#00ff00" stroke-width=".3298" d="M584.0397,-286.7335C477.7443,-280.3252 41.7753,-253.4463 32.2255,-243.1198 -72.0886,-130.3231 242.8393,-53.7104 349.9273,-31.443"/>
<polygon fill="#00ff00" stroke="#00ff00" stroke-width=".3298" points="350.8155,-34.8338 359.9107,-29.4 349.412,-27.976 350.8155,-34.8338"/>
</g>
<!-- B_lm -->
<g id="node5" class="node">
<title>B_lm</title>
<polygon fill="#d3d3d3" stroke="#000000" points="1627.7255,-297.1198 1590.7255,-297.1198 1590.7255,-279.1198 1627.7255,-279.1198 1627.7255,-297.1198"/>
<text text-anchor="middle" x="1609.2255" y="-285.9198" font-family="Times,serif" font-size="9.00" fill="#000000">B_lm</text>
</g>
<!-- B_lm&#45;&gt;no_move -->
<g id="edge2" class="edge">
<title>B_lm&#45;&gt;no_move</title>
<path fill="none" stroke="#00ff00" stroke-width=".2646" d="M1627.7829,-286.4868C1687.1186,-281.08 1869.3366,-262.9738 1886.2255,-243.1198 1904.3631,-221.7979 1901.8635,-190.0085 1895.2238,-164.2859"/>
<polygon fill="#00ff00" stroke="#00ff00" stroke-width=".2646" points="1898.5123,-163.0553 1892.3993,-154.4018 1891.7817,-164.9786 1898.5123,-163.0553"/>
</g>
<!-- B_lm&#45;&gt;right -->
<g id="edge22" class="edge">
<title>B_lm&#45;&gt;right</title>
<path fill="none" stroke="#ff0000" stroke-width=".401" d="M1590.7208,-281.4357C1587.5865,-280.5168 1584.3389,-279.6933 1581.2255,-279.1198 1507.3613,-265.5154 957.9003,-297.6241 906.2255,-243.1198 883.3451,-218.9866 893.6822,-178.9136 905.1677,-151.419"/>
<polygon fill="#ff0000" stroke="#ff0000" stroke-width=".401" points="908.3726,-152.8257 909.2256,-142.2652 901.9732,-149.9888 908.3726,-152.8257"/>
</g>
<!-- B_lm&#45;&gt;left -->
<g id="edge32" class="edge">
<title>B_lm&#45;&gt;left</title>
<path fill="none" stroke="#ff0000" stroke-width=".7335" d="M1590.5869,-281.9953C1587.4687,-281.009 1584.2611,-280.018 1581.2255,-279.1198 1522.5037,-261.7454 1493.1341,-284.7532 1448.2255,-243.1198 1422.5737,-219.3389 1412.2163,-179.2997 1408.0395,-151.7098"/>
<polygon fill="#ff0000" stroke="#ff0000" stroke-width=".7335" points="1411.4632,-150.9023 1406.6816,-141.4479 1404.5237,-151.8207 1411.4632,-150.9023"/>
</g>
<!-- B_lm&#45;&gt;forward -->
<g id="edge40" class="edge">
<title>B_lm&#45;&gt;forward</title>
<path fill="none" stroke="#00ff00" stroke-width=".1639" stroke-dasharray="1,5" d="M1590.4297,-281.2764C1587.3881,-280.4023 1584.2456,-279.6345 1581.2255,-279.1198 1507.1009,-266.4874 280.6833,-296.992 228.2255,-243.1198 205.4635,-219.7441 220.6781,-182.4414 237.3949,-155.318"/>
<polygon fill="#00ff00" stroke="#00ff00" stroke-width=".1639" points="240.346,-157.1998 242.829,-146.9 234.4649,-153.4033 240.346,-157.1998"/>
</g>
<!-- B_lm&#45;&gt;cw -->
<g id="edge66" class="edge">
<title>B_lm&#45;&gt;cw</title>
<path fill="none" stroke="#00ff00" stroke-width=".2193" stroke-dasharray="1,5" d="M1627.9404,-287.4306C1729.8509,-283.5963 2214.1964,-264.3018 2237.2255,-243.1198 2262.3183,-220.0397 2263.5074,-178.4865 2260.8453,-150.467"/>
<polygon fill="#00ff00" stroke="#00ff00" stroke-width=".2193" points="2264.3129,-149.9849 2259.6783,-140.4575 2257.36,-150.7956 2264.3129,-149.9849"/>
</g>
<!-- 1686 -->
<g id="node35" class="node">
<title>1686</title>
<ellipse fill="#ffffff" stroke="#000000" cx="2508.2255" cy="-218.3711" rx="25" ry="25"/>
<text text-anchor="middle" x="2508.2255" y="-216.1711" font-family="Times,serif" font-size="9.00" fill="#000000">1686</text>
</g>
<!-- B_lm&#45;&gt;1686 -->
<g id="edge113" class="edge">
<title>B_lm&#45;&gt;1686</title>
<path fill="none" stroke="#ff0000" stroke-width=".4889" d="M1627.9225,-287.7111C1746.0489,-285.0538 2386.5243,-269.5082 2469.2255,-243.1198 2472.797,-241.9802 2476.3647,-240.4315 2479.8108,-238.6611"/>
<polygon fill="#ff0000" stroke="#ff0000" stroke-width=".4889" points="2481.6713,-241.6282 2488.5683,-233.5856 2478.1612,-235.5718 2481.6713,-241.6282"/>
</g>
<!-- B_wall -->
<g id="node6" class="node">
<title>B_wall</title>
<polygon fill="#d3d3d3" stroke="#000000" points="2013.2255,-227.3711 1971.2255,-227.3711 1971.2255,-209.3711 2013.2255,-209.3711 2013.2255,-227.3711"/>
<text text-anchor="middle" x="1992.2255" y="-216.1711" font-family="Times,serif" font-size="9.00" fill="#000000">B_wall</text>
</g>
<!-- B_wall&#45;&gt;no_move -->
<g id="edge81" class="edge">
<title>B_wall&#45;&gt;no_move</title>
<path fill="none" stroke="#00ff00" stroke-width=".1053" stroke-dasharray="1,5" d="M1981.3906,-209.0884C1966.0053,-195.9073 1937.1268,-171.1661 1913.9877,-151.342"/>
<polygon fill="#00ff00" stroke="#00ff00" stroke-width=".1053" points="1916.2597,-148.6796 1906.3884,-144.8314 1911.7053,-153.9955 1916.2597,-148.6796"/>
</g>
<!-- B_wall&#45;&gt;right -->
<g id="edge13" class="edge">
<title>B_wall&#45;&gt;right</title>
<path fill="none" stroke="#00ff00" stroke-width=".1134" d="M1970.8995,-212.3372C1949.6306,-206.5703 1915.9358,-198.1102 1886.2255,-193.6224 1661.5437,-159.6833 1602.8225,-174.5797 1376.2255,-157.6224 1218.4717,-145.8169 1030.1192,-130.5482 954.3075,-124.3543"/>
<polygon fill="#00ff00" stroke="#00ff00" stroke-width=".1134" points="954.2079,-120.8345 943.9559,-123.5077 953.6373,-127.8112 954.2079,-120.8345"/>
</g>
<!-- B_wall&#45;&gt;backward -->
<g id="edge7" class="edge">
<title>B_wall&#45;&gt;backward</title>
<path fill="none" stroke="#00ff00" stroke-width=".5068" stroke-dasharray="1,5" d="M2000.7773,-209.0953C2006.3419,-203.6689 2014.0629,-197.2008 2022.2255,-193.6224 2129.8738,-146.4298 2171.0466,-189.3375 2284.2255,-157.6224 2298.1034,-153.7335 2312.693,-148.001 2325.7023,-142.2456"/>
<polygon fill="#00ff00" stroke="#00ff00" stroke-width=".5068" points="2327.2109,-145.4045 2334.863,-138.0768 2324.3114,-139.0332 2327.2109,-145.4045"/>
</g>
<!-- B_wall&#45;&gt;no_turn -->
<g id="edge51" class="edge">
<title>B_wall&#45;&gt;no_turn</title>
<path fill="none" stroke="#ff0000" stroke-width=".3117" d="M1970.9308,-212.1167C1949.6858,-206.1824 1916.0086,-197.5984 1886.2255,-193.6224 1446.2844,-134.8912 1324.9649,-236.7183 888.2255,-157.6224 864.4889,-153.3235 838.8414,-144.9287 818.4984,-137.3196"/>
<polygon fill="#ff0000" stroke="#ff0000" stroke-width=".3117" points="819.5599,-133.9783 808.9696,-133.6688 817.0554,-140.5149 819.5599,-133.9783"/>
</g>
<!-- B_wall&#45;&gt;ccw -->
<g id="edge41" class="edge">
<title>B_wall&#45;&gt;ccw</title>
<path fill="none" stroke="#ff0000" stroke-width=".1618" d="M2000.7179,-208.9551C2006.2601,-203.476 2013.9785,-197.0017 2022.2255,-193.6224 2190.6706,-124.6004 2268.2886,-240.7742 2430.2255,-157.6224 2434.88,-155.2323 2439.1299,-151.8156 2442.8901,-148.0269"/>
<polygon fill="#ff0000" stroke="#ff0000" stroke-width=".1618" points="2445.5592,-150.2914 2449.4955,-140.4549 2440.2843,-145.6898 2445.5592,-150.2914"/>
</g>
<!-- C_agent -->
<g id="node7" class="node">
<title>C_agent</title>
<polygon fill="#d3d3d3" stroke="#000000" points="1130.2255,-227.3711 1084.2255,-227.3711 1084.2255,-209.3711 1130.2255,-209.3711 1130.2255,-227.3711"/>
<text text-anchor="middle" x="1107.2255" y="-216.1711" font-family="Times,serif" font-size="9.00" fill="#000000">C_agent</text>
</g>
<!-- C_agent&#45;&gt;left -->
<g id="edge33" class="edge">
<title>C_agent&#45;&gt;left</title>
<path fill="none" stroke="#ff0000" stroke-width=".2967" d="M1116.9092,-209.241C1122.926,-204.006 1131.0502,-197.6874 1139.2255,-193.6224 1219.6182,-153.6481 1325.078,-133.5573 1375.6595,-125.6789"/>
<polygon fill="#ff0000" stroke="#ff0000" stroke-width=".2967" points="1376.2255,-129.1332 1385.5913,-124.1803 1375.181,-122.2115 1376.2255,-129.1332"/>
</g>
<!-- C_agent&#45;&gt;no_turn -->
<g id="edge59" class="edge">
<title>C_agent&#45;&gt;no_turn</title>
<path fill="none" stroke="#ff0000" stroke-width=".7513" stroke-dasharray="1,5" d="M1097.922,-209.2626C1091.918,-203.8992 1083.6743,-197.4385 1075.2255,-193.6224 998.0915,-158.7827 970.0995,-179.0723 888.2255,-157.6224 865.0546,-151.5519 839.6224,-143.1487 819.2606,-135.981"/>
<polygon fill="#ff0000" stroke="#ff0000" stroke-width=".7513" points="820.299,-132.6355 809.7043,-132.5773 817.9502,-139.2297 820.299,-132.6355"/>
</g>
<!-- C_lm -->
<g id="node8" class="node">
<title>C_lm</title>
<polygon fill="#d3d3d3" stroke="#000000" points="995.7255,-297.1198 958.7255,-297.1198 958.7255,-279.1198 995.7255,-279.1198 995.7255,-297.1198"/>
<text text-anchor="middle" x="977.2255" y="-285.9198" font-family="Times,serif" font-size="9.00" fill="#000000">C_lm</text>
</g>
<!-- C_lm&#45;&gt;right -->
<g id="edge77" class="edge">
<title>C_lm&#45;&gt;right</title>
<path fill="none" stroke="#00ff00" stroke-width=".3546" stroke-dasharray="1,5" d="M958.5907,-287.832C904.6111,-286.5663 750.02,-279.7504 719.2255,-243.1198 705.0693,-226.2808 706.1141,-211.2871 719.2255,-193.6224 752.1583,-149.2527 786.3965,-176.7795 838.2255,-157.6224 855.4569,-151.2533 874.2452,-143.0837 889.4848,-136.1313"/>
<polygon fill="#00ff00" stroke="#00ff00" stroke-width=".3546" points="891.3222,-139.1381 898.9349,-131.7695 888.3886,-132.7825 891.3222,-139.1381"/>
</g>
<!-- C_lm&#45;&gt;left -->
<g id="edge3" class="edge">
<title>C_lm&#45;&gt;left</title>
<path fill="none" stroke="#00ff00" stroke-width=".3662" d="M995.7689,-287.8052C1060.1391,-286.4034 1273.0637,-279.0861 1329.2255,-243.1198 1333.9033,-240.1241 1369.0243,-182.1774 1389.8485,-147.3871"/>
<polygon fill="#00ff00" stroke="#00ff00" stroke-width=".3662" points="1392.9318,-149.0503 1395.0567,-138.6708 1386.9228,-145.4598 1392.9318,-149.0503"/>
</g>
<!-- C_lm&#45;&gt;no_turn -->
<g id="edge19" class="edge">
<title>C_lm&#45;&gt;no_turn</title>
<path fill="none" stroke="#ff0000" stroke-width=".3498" stroke-dasharray="1,5" d="M958.4937,-287.511C855.3932,-284.0716 360.9194,-266.3978 339.2255,-243.1198 324.2271,-227.0264 324.9793,-210.3854 339.2255,-193.6224 365.0588,-163.2251 634.0674,-135.154 738.8108,-125.294"/>
<polygon fill="#ff0000" stroke="#ff0000" stroke-width=".3498" points="739.3731,-128.7569 749.0049,-124.3432 738.723,-121.7871 739.3731,-128.7569"/>
</g>
<!-- C_lm&#45;&gt;1686 -->
<g id="edge112" class="edge">
<title>C_lm&#45;&gt;1686</title>
<path fill="none" stroke="#00ff00" stroke-width=".1606" d="M995.8853,-287.5337C1041.9503,-286.0884 1164.7672,-282.244 1267.2255,-279.1198 1400.7788,-275.0475 2341.4873,-282.3123 2469.2255,-243.1198 2472.8095,-242.0202 2476.3851,-240.4968 2479.8359,-238.7412"/>
<polygon fill="#00ff00" stroke="#00ff00" stroke-width=".1606" points="2481.6878,-241.7135 2488.5987,-233.6828 2478.1882,-235.651 2481.6878,-241.7135"/>
</g>
<!-- C_wall -->
<g id="node9" class="node">
<title>C_wall</title>
<polygon fill="#d3d3d3" stroke="#000000" points="1066.2255,-227.3711 1024.2255,-227.3711 1024.2255,-209.3711 1066.2255,-209.3711 1066.2255,-227.3711"/>
<text text-anchor="middle" x="1045.2255" y="-216.1711" font-family="Times,serif" font-size="9.00" fill="#000000">C_wall</text>
</g>
<!-- C_wall&#45;&gt;right -->
<g id="edge8" class="edge">
<title>C_wall&#45;&gt;right</title>
<path fill="none" stroke="#00ff00" stroke-width=".7251" stroke-dasharray="1,5" d="M1033.24,-209.0884C1013.5002,-193.8002 973.6807,-162.9604 946.9775,-142.2791"/>
<polygon fill="#00ff00" stroke="#00ff00" stroke-width=".7251" points="948.8598,-139.31 938.8106,-135.9539 944.5736,-144.8443 948.8598,-139.31"/>
</g>
<!-- C_wall&#45;&gt;left -->
<g id="edge58" class="edge">
<title>C_wall&#45;&gt;left</title>
<path fill="none" stroke="#ff0000" stroke-width=".1214" stroke-dasharray="1,5" d="M1053.8805,-209.3187C1059.4839,-203.9763 1067.2095,-197.5181 1075.2255,-193.6224 1177.7577,-143.7916 1314.8642,-128.0865 1374.9097,-123.4136"/>
<polygon fill="#ff0000" stroke="#ff0000" stroke-width=".1214" points="1375.4799,-126.8814 1385.199,-122.6637 1374.971,-119.8999 1375.4799,-126.8814"/>
</g>
<!-- C_wall&#45;&gt;no_turn -->
<g id="edge35" class="edge">
<title>C_wall&#45;&gt;no_turn</title>
<path fill="none" stroke="#00ff00" stroke-width=".2351" d="M1023.9874,-210.6123C979.4961,-194.3585 875.9384,-156.5263 819.1672,-135.7863"/>
<polygon fill="#00ff00" stroke="#00ff00" stroke-width=".2351" points="820.0641,-132.3878 809.4703,-132.2438 817.6621,-138.9628 820.0641,-132.3878"/>
</g>
<!-- D_agent -->
<g id="node10" class="node">
<title>D_agent</title>
<polygon fill="#d3d3d3" stroke="#000000" points="1322.7255,-297.1198 1275.7255,-297.1198 1275.7255,-279.1198 1322.7255,-279.1198 1322.7255,-297.1198"/>
<text text-anchor="middle" x="1299.2255" y="-285.9198" font-family="Times,serif" font-size="9.00" fill="#000000">D_agent</text>
</g>
<!-- D_agent&#45;&gt;no_move -->
<g id="edge47" class="edge">
<title>D_agent&#45;&gt;no_move</title>
<path fill="none" stroke="#ff0000" stroke-width=".1881" stroke-dasharray="1,5" d="M1322.8907,-286.315C1381.3598,-281.5318 1531.0264,-267.2192 1574.2255,-243.1198 1599.6741,-228.9229 1592.5663,-209.1501 1617.2255,-193.6224 1685.2935,-150.7602 1778.9188,-133.0261 1833.859,-125.9617"/>
<polygon fill="#ff0000" stroke="#ff0000" stroke-width=".1881" points="1834.4806,-129.4119 1843.9823,-124.7249 1833.6316,-122.4635 1834.4806,-129.4119"/>
</g>
<!-- D_agent&#45;&gt;right -->
<g id="edge95" class="edge">
<title>D_agent&#45;&gt;right</title>
<path fill="none" stroke="#00ff00" stroke-width=".3484" stroke-dasharray="1,5" d="M1275.5871,-287.0575C1173.0627,-282.338 771.2065,-262.6438 753.2255,-243.1198 738.3225,-226.938 741.0761,-211.9621 753.2255,-193.6224 775.8831,-159.4202 800.5582,-173.8808 838.2255,-157.6224 855.0922,-150.3421 873.8523,-142.1023 889.1674,-135.3385"/>
<polygon fill="#00ff00" stroke="#00ff00" stroke-width=".3484" points="890.9497,-138.3773 898.6796,-131.1317 888.1184,-131.9754 890.9497,-138.3773"/>
</g>
<!-- D_agent&#45;&gt;left -->
<g id="edge25" class="edge">
<title>D_agent&#45;&gt;left</title>
<path fill="none" stroke="#00ff00" stroke-width=".6809" d="M1317.5876,-279.0188C1331.5918,-271.23 1350.4233,-258.7982 1362.2255,-243.1198 1382.8145,-215.7689 1394.1497,-177.7154 1399.9397,-151.5069"/>
<polygon fill="#00ff00" stroke="#00ff00" stroke-width=".6809" points="1403.4305,-151.9091 1402.0268,-141.4076 1396.5754,-150.4923 1403.4305,-151.9091"/>
</g>
<!-- D_agent&#45;&gt;no_turn -->
<g id="edge80" class="edge">
<title>D_agent&#45;&gt;no_turn</title>
<path fill="none" stroke="#ff0000" stroke-width=".7771" d="M1275.4861,-287.4097C1132.6548,-283.0825 393.1997,-259.8927 377.2255,-243.1198 362.0538,-227.1896 363.1052,-210.4915 377.2255,-193.6224 423.0748,-138.8472 645.3711,-125.6618 738.7671,-122.5245"/>
<polygon fill="#ff0000" stroke="#ff0000" stroke-width=".7771" points="739.0881,-126.0162 748.9736,-122.2047 738.8689,-119.0197 739.0881,-126.0162"/>
</g>
<!-- D_agent&#45;&gt;773 -->
<g id="edge102" class="edge">
<title>D_agent&#45;&gt;773</title>
<path fill="none" stroke="#00ff00" stroke-width=".6352" stroke-dasharray="1,5" d="M1299.2255,-279.0014C1299.2255,-271.5792 1299.2255,-260.6404 1299.2255,-250.09"/>
<polygon fill="#00ff00" stroke="#00ff00" stroke-width=".6352" points="1302.7256,-249.8136 1299.2255,-239.8136 1295.7256,-249.8137 1302.7256,-249.8136"/>
</g>
<!-- D_lm -->
<g id="node11" class="node">
<title>D_lm</title>
<polygon fill="#d3d3d3" stroke="#000000" points="798.7255,-227.3711 761.7255,-227.3711 761.7255,-209.3711 798.7255,-209.3711 798.7255,-227.3711"/>
<text text-anchor="middle" x="780.2255" y="-216.1711" font-family="Times,serif" font-size="9.00" fill="#000000">D_lm</text>
</g>
<!-- D_lm&#45;&gt;right -->
<g id="edge21" class="edge">
<title>D_lm&#45;&gt;right</title>
<path fill="none" stroke="#00ff00" stroke-width=".2823" stroke-dasharray="1,5" d="M789.7647,-209.2888C795.0405,-204.4351 801.8103,-198.4768 808.2255,-193.6224 835.2453,-173.176 868.0323,-152.524 891.1294,-138.6019"/>
<polygon fill="#00ff00" stroke="#00ff00" stroke-width=".2823" points="892.9926,-141.5659 899.7789,-133.4297 889.4,-135.558 892.9926,-141.5659"/>
</g>
<!-- D_lm&#45;&gt;left -->
<g id="edge65" class="edge">
<title>D_lm&#45;&gt;left</title>
<path fill="none" stroke="#00ff00" stroke-width=".1696" stroke-dasharray="1,5" d="M788.0704,-209.0454C793.2126,-203.6002 800.4128,-197.1299 808.2255,-193.6224 911.583,-147.2197 1268.8187,-127.7004 1375.1428,-122.8345"/>
<polygon fill="#00ff00" stroke="#00ff00" stroke-width=".1696" points="1375.3558,-126.3286 1385.1891,-122.3845 1375.0425,-119.3356 1375.3558,-126.3286"/>
</g>
<!-- D_lm&#45;&gt;forward -->
<g id="edge42" class="edge">
<title>D_lm&#45;&gt;forward</title>
<path fill="none" stroke="#00ff00" stroke-width="2.0838" d="M761.4836,-214.8683C686.7934,-200.9092 409.2984,-149.047 303.533,-129.2801"/>
<polygon fill="#00ff00" stroke="#00ff00" stroke-width="2.0838" points="304.0251,-125.8115 293.5523,-127.4147 302.739,-132.6924 304.0251,-125.8115"/>
</g>
<!-- D_lm&#45;&gt;backward -->
<g id="edge37" class="edge">
<title>D_lm&#45;&gt;backward</title>
<path fill="none" stroke="#00ff00" stroke-width=".2212" stroke-dasharray="1,5" d="M787.5008,-209.2808C792.6233,-203.6301 800.0124,-196.8469 808.2255,-193.6224 960.9274,-133.6713 2124.0287,-192.9634 2284.2255,-157.6224 2298.423,-154.4903 2313.2017,-148.9103 2326.2863,-143.0615"/>
<polygon fill="#00ff00" stroke="#00ff00" stroke-width=".2212" points="2327.8896,-146.1759 2335.482,-138.7863 2324.9385,-139.8284 2327.8896,-146.1759"/>
</g>
<!-- D_lm&#45;&gt;no_turn -->
<g id="edge108" class="edge">
<title>D_lm&#45;&gt;no_turn</title>
<path fill="none" stroke="#ff0000" stroke-width=".552" d="M780.2255,-209.0884C780.2255,-198.4282 780.2255,-180.2067 780.2255,-163.1403"/>
<polygon fill="#ff0000" stroke="#ff0000" stroke-width=".552" points="783.7256,-162.7411 780.2255,-152.7412 776.7256,-162.7412 783.7256,-162.7411"/>
</g>
<!-- D_wall -->
<g id="node12" class="node">
<title>D_wall</title>
<polygon fill="#d3d3d3" stroke="#000000" points="2327.7255,-227.3711 2284.7255,-227.3711 2284.7255,-209.3711 2327.7255,-209.3711 2327.7255,-227.3711"/>
<text text-anchor="middle" x="2306.2255" y="-216.1711" font-family="Times,serif" font-size="9.00" fill="#000000">D_wall</text>
</g>
<!-- D_wall&#45;&gt;left -->
<g id="edge54" class="edge">
<title>D_wall&#45;&gt;left</title>
<path fill="none" stroke="#ff0000" stroke-width=".4222" d="M2285.5001,-209.3495C2272.009,-203.8772 2253.8848,-197.2672 2237.2255,-193.6224 2217.1898,-189.2389 1582.2273,-136.277 1435.3434,-124.0619"/>
<polygon fill="#ff0000" stroke="#ff0000" stroke-width=".4222" points="1435.506,-120.5634 1425.2504,-123.2228 1434.926,-127.5393 1435.506,-120.5634"/>
</g>
<!-- D_wall&#45;&gt;backward -->
<g id="edge74" class="edge">
<title>D_wall&#45;&gt;backward</title>
<path fill="none" stroke="#ff0000" stroke-width=".2016" stroke-dasharray="1,5" d="M2312.0744,-209.0884C2319.0961,-197.9446 2331.3241,-178.5379 2342.4845,-160.8255"/>
<polygon fill="#ff0000" stroke="#ff0000" stroke-width=".2016" points="2345.4803,-162.6365 2347.8501,-152.31 2339.5579,-158.9048 2345.4803,-162.6365"/>
</g>
<!-- D_wall&#45;&gt;cw -->
<g id="edge52" class="edge">
<title>D_wall&#45;&gt;cw</title>
<path fill="none" stroke="#ff0000" stroke-width=".4688" stroke-dasharray="1,5" d="M2301.4313,-209.0884C2294.2148,-195.1157 2280.2892,-168.1527 2269.7917,-147.8271"/>
<polygon fill="#ff0000" stroke="#ff0000" stroke-width=".4688" points="2272.801,-146.0264 2265.1024,-138.7476 2266.5815,-149.2386 2272.801,-146.0264"/>
</g>
<!-- E_agent -->
<g id="node13" class="node">
<title>E_agent</title>
<polygon fill="#d3d3d3" stroke="#000000" points="1572.2255,-297.1198 1526.2255,-297.1198 1526.2255,-279.1198 1572.2255,-279.1198 1572.2255,-297.1198"/>
<text text-anchor="middle" x="1549.2255" y="-285.9198" font-family="Times,serif" font-size="9.00" fill="#000000">E_agent</text>
</g>
<!-- E_agent&#45;&gt;no_move -->
<g id="edge84" class="edge">
<title>E_agent&#45;&gt;no_move</title>
<path fill="none" stroke="#ff0000" stroke-width=".2003" stroke-dasharray="1,5" d="M1572.5563,-281.7514C1598.741,-274.1894 1642.1476,-260.3975 1677.2255,-243.1198 1713.3869,-225.3085 1718.8266,-214.6368 1753.2255,-193.6224 1781.667,-176.2473 1814.3515,-157.5912 1839.3034,-143.6152"/>
<polygon fill="#ff0000" stroke="#ff0000" stroke-width=".2003" points="1841.1001,-146.6207 1848.1242,-138.689 1837.6869,-140.5092 1841.1001,-146.6207"/>
</g>
<!-- E_agent&#45;&gt;forward -->
<g id="edge75" class="edge">
<title>E_agent&#45;&gt;forward</title>
<path fill="none" stroke="#00ff00" stroke-width=".1685" stroke-dasharray="1,5" d="M1526.1053,-287.0865C1486.443,-285.3304 1402.877,-281.7034 1332.2255,-279.1198 1269.0694,-276.8104 239.2006,-288.5094 195.2255,-243.1198 168.3661,-215.3965 201.3525,-174.773 229.807,-148.2478"/>
<polygon fill="#00ff00" stroke="#00ff00" stroke-width=".1685" points="232.2081,-150.7954 237.2807,-141.4938 227.5147,-145.6019 232.2081,-150.7954"/>
</g>
<!-- E_agent&#45;&gt;no_turn -->
<g id="edge70" class="edge">
<title>E_agent&#45;&gt;no_turn</title>
<path fill="none" stroke="#ff0000" stroke-width=".3491" stroke-dasharray="1,5" d="M1526.028,-287.1652C1377.9976,-281.0604 571.508,-247.6031 567.2255,-243.1198 509.9484,-183.158 663.0968,-144.0754 739.6518,-128.8075"/>
<polygon fill="#ff0000" stroke="#ff0000" stroke-width=".3491" points="740.3272,-132.2418 749.4741,-126.8952 738.9895,-125.3708 740.3272,-132.2418"/>
</g>
<!-- 1801 -->
<g id="node34" class="node">
<title>1801</title>
<ellipse fill="#ffffff" stroke="#000000" cx="1787.2255" cy="-218.3711" rx="25" ry="25"/>
<text text-anchor="middle" x="1787.2255" y="-216.1711" font-family="Times,serif" font-size="9.00" fill="#000000">1801</text>
</g>
<!-- E_agent&#45;&gt;1801 -->
<g id="edge117" class="edge">
<title>E_agent&#45;&gt;1801</title>
<path fill="none" stroke="#00ff00" stroke-width=".2928" d="M1572.2642,-281.6703C1575.5991,-280.7852 1578.9952,-279.91 1582.2255,-279.1198 1655.5562,-261.1819 1678.3875,-271.7871 1748.2255,-243.1198 1751.5151,-241.7695 1754.8352,-240.1444 1758.0766,-238.3803"/>
<polygon fill="#00ff00" stroke="#00ff00" stroke-width=".2928" points="1760.0879,-241.257 1766.9124,-233.1529 1756.5236,-235.2324 1760.0879,-241.257"/>
</g>
<!-- E_lm -->
<g id="node14" class="node">
<title>E_lm</title>
<polygon fill="#d3d3d3" stroke="#000000" points="1184.2255,-227.3711 1148.2255,-227.3711 1148.2255,-209.3711 1184.2255,-209.3711 1184.2255,-227.3711"/>
<text text-anchor="middle" x="1166.2255" y="-216.1711" font-family="Times,serif" font-size="9.00" fill="#000000">E_lm</text>
</g>
<!-- E_lm&#45;&gt;no_move -->
<g id="edge38" class="edge">
<title>E_lm&#45;&gt;no_move</title>
<path fill="none" stroke="#00ff00" stroke-width=".1858" stroke-dasharray="1,5" d="M1184.3221,-213.3351C1204.7856,-207.8018 1239.1719,-198.9888 1269.2255,-193.6224 1478.5971,-156.2366 1731.9779,-133.3648 1833.7174,-125.0835"/>
<polygon fill="#00ff00" stroke="#00ff00" stroke-width=".1858" points="1834.2541,-128.5516 1843.9404,-124.2591 1833.6914,-121.5743 1834.2541,-128.5516"/>
</g>
<!-- E_lm&#45;&gt;right -->
<g id="edge53" class="edge">
<title>E_lm&#45;&gt;right</title>
<path fill="none" stroke="#00ff00" stroke-width=".3552" d="M1157.9927,-209.0822C1152.9984,-203.9235 1146.2484,-197.7364 1139.2255,-193.6224 1078.4757,-158.0356 997.8164,-137.3309 953.288,-127.8582"/>
<polygon fill="#00ff00" stroke="#00ff00" stroke-width=".3552" points="953.8056,-124.3913 943.3041,-125.7946 952.3887,-131.2464 953.8056,-124.3913"/>
</g>
<!-- E_lm&#45;&gt;no_turn -->
<g id="edge44" class="edge">
<title>E_lm&#45;&gt;no_turn</title>
<path fill="none" stroke="#ff0000" stroke-width=".2684" d="M1158.6977,-209.1047C1153.7531,-203.6818 1146.8117,-197.2141 1139.2255,-193.6224 1037.3679,-145.3972 997.8939,-183.574 888.2255,-157.6224 864.9164,-152.1066 839.4767,-143.7329 819.1456,-136.4426"/>
<polygon fill="#ff0000" stroke="#ff0000" stroke-width=".2684" points="820.2009,-133.1021 809.6069,-132.968 817.805,-139.6793 820.2009,-133.1021"/>
</g>
<!-- E_wall -->
<g id="node15" class="node">
<title>E_wall</title>
<polygon fill="#d3d3d3" stroke="#000000" points="690.2255,-297.1198 648.2255,-297.1198 648.2255,-279.1198 690.2255,-279.1198 690.2255,-297.1198"/>
<text text-anchor="middle" x="669.2255" y="-285.9198" font-family="Times,serif" font-size="9.00" fill="#000000">E_wall</text>
</g>
<!-- E_wall&#45;&gt;no_move -->
<g id="edge26" class="edge">
<title>E_wall&#45;&gt;no_move</title>
<path fill="none" stroke="#00ff00" stroke-width=".3266" stroke-dasharray="1,5" d="M690.2769,-287.294C821.479,-282.1155 1522.1194,-253.9874 1541.2255,-243.1198 1564.2076,-230.0475 1552.5148,-208.7123 1574.2255,-193.6224 1616.0426,-164.5575 1759.7872,-139.4672 1834.0344,-128.0797"/>
<polygon fill="#00ff00" stroke="#00ff00" stroke-width=".3266" points="1834.6692,-131.5236 1844.0319,-126.5649 1833.6204,-124.6026 1834.6692,-131.5236"/>
</g>
<!-- E_wall&#45;&gt;right -->
<g id="edge60" class="edge">
<title>E_wall&#45;&gt;right</title>
<path fill="none" stroke="#00ff00" stroke-width=".2841" d="M669.8874,-279.0757C671.7599,-260.2851 678.7572,-216.8432 704.2255,-193.6224 749.7952,-152.074 780.0553,-178.0942 838.2255,-157.6224 855.5545,-151.5238 874.3503,-143.3751 889.5697,-136.3667"/>
<polygon fill="#00ff00" stroke="#00ff00" stroke-width=".2841" points="891.4251,-139.3631 899.0032,-131.9589 888.4618,-133.0212 891.4251,-139.3631"/>
</g>
<!-- E_wall&#45;&gt;forward -->
<g id="edge45" class="edge">
<title>E_wall&#45;&gt;forward</title>
<path fill="none" stroke="#ff0000" stroke-width=".2234" stroke-dasharray="1,5" d="M648.0599,-281.1504C645.1168,-280.3636 642.1128,-279.6542 639.2255,-279.1198 586.4175,-269.3464 193.7589,-282.4836 157.2255,-243.1198 142.2604,-226.9954 146.9761,-213.0877 157.2255,-193.6224 171.048,-167.3711 199.229,-148.8407 222.9181,-137.1496"/>
<polygon fill="#ff0000" stroke="#ff0000" stroke-width=".2234" points="224.5053,-140.271 232.0703,-132.8534 221.5308,-133.9345 224.5053,-140.271"/>
</g>
<!-- E_wall&#45;&gt;backward -->
<g id="edge23" class="edge">
<title>E_wall&#45;&gt;backward</title>
<path fill="none" stroke="#00ff00" stroke-width=".3328" stroke-dasharray="1,5" d="M690.3741,-287.3907C737.1912,-285.7881 853.1334,-281.8816 950.2255,-279.1198 990.4439,-277.9758 2370.1311,-271.9214 2398.2255,-243.1198 2419.6769,-221.1284 2408.0777,-186.4663 2393.3366,-159.7729"/>
<polygon fill="#00ff00" stroke="#00ff00" stroke-width=".3328" points="2396.3172,-157.9359 2388.2603,-151.0557 2390.2681,-161.4586 2396.3172,-157.9359"/>
</g>
<!-- 1826 -->
<g id="node36" class="node">
<title>1826</title>
<ellipse fill="#ffffff" stroke="#000000" cx="80.2255" cy="-218.3711" rx="25" ry="25"/>
<text text-anchor="middle" x="80.2255" y="-216.1711" font-family="Times,serif" font-size="9.00" fill="#000000">1826</text>
</g>
<!-- E_wall&#45;&gt;1826 -->
<g id="edge120" class="edge">
<title>E_wall&#45;&gt;1826</title>
<path fill="none" stroke="#ff0000" stroke-width=".13" d="M648.0626,-281.1357C645.1191,-280.3512 642.1142,-279.6464 639.2255,-279.1198 411.316,-237.5793 339.3261,-315.3976 119.2255,-243.1198 115.6637,-241.9502 112.1022,-240.3824 108.6596,-238.6009"/>
<polygon fill="#ff0000" stroke="#ff0000" stroke-width=".13" points="110.3108,-235.5123 99.9064,-233.5126 106.7928,-241.5641 110.3108,-235.5123"/>
</g>
<!-- F_agent -->
<g id="node16" class="node">
<title>F_agent</title>
<polygon fill="#d3d3d3" stroke="#000000" points="406.7255,-297.1198 361.7255,-297.1198 361.7255,-279.1198 406.7255,-279.1198 406.7255,-297.1198"/>
<text text-anchor="middle" x="384.2255" y="-285.9198" font-family="Times,serif" font-size="9.00" fill="#000000">F_agent</text>
</g>
<!-- F_agent&#45;&gt;right -->
<g id="edge17" class="edge">
<title>F_agent&#45;&gt;right</title>
<path fill="none" stroke="#ff0000" stroke-width=".6017" stroke-dasharray="1,5" d="M403.4392,-279.0035C443.6768,-260.2695 540.1275,-217.225 625.2255,-193.6224 717.7421,-167.9621 746.2494,-185.1573 838.2255,-157.6224 855.9468,-152.3171 874.9026,-144.1566 890.1201,-136.9395"/>
<polygon fill="#ff0000" stroke="#ff0000" stroke-width=".6017" points="892.0617,-139.8876 899.5298,-132.3725 889.0052,-133.5902 892.0617,-139.8876"/>
</g>
<!-- F_agent&#45;&gt;left -->
<g id="edge61" class="edge">
<title>F_agent&#45;&gt;left</title>
<path fill="none" stroke="#00ff00" stroke-width=".7452" d="M406.8674,-286.998C537.0206,-280.5327 1184.4376,-248.1417 1193.2255,-243.1198 1216.1813,-230.0015 1205.7124,-210.304 1226.2255,-193.6224 1271.483,-156.818 1337.9891,-136.7412 1375.8988,-127.664"/>
<polygon fill="#00ff00" stroke="#00ff00" stroke-width=".7452" points="1376.8294,-131.0415 1385.7915,-125.3907 1375.2616,-124.2193 1376.8294,-131.0415"/>
</g>
<!-- F_agent&#45;&gt;forward -->
<g id="edge15" class="edge">
<title>F_agent&#45;&gt;forward</title>
<path fill="none" stroke="#00ff00" stroke-width=".2272" d="M361.5849,-287.0879C284.6065,-283.3508 36.4604,-269.3433 13.2255,-243.1198 -50.0791,-171.6728 134.3613,-137.9508 220.5121,-126.3975"/>
<polygon fill="#00ff00" stroke="#00ff00" stroke-width=".2272" points="221.0428,-129.858 230.5078,-125.0974 220.1399,-122.9165 221.0428,-129.858"/>
</g>
<!-- 1332 -->
<g id="node37" class="node">
<title>1332</title>
<ellipse fill="#ffffff" stroke="#000000" cx="262.2255" cy="-218.3711" rx="25" ry="25"/>
<text text-anchor="middle" x="262.2255" y="-216.1711" font-family="Times,serif" font-size="9.00" fill="#000000">1332</text>
</g>
<!-- F_agent&#45;&gt;1332 -->
<g id="edge100" class="edge">
<title>F_agent&#45;&gt;1332</title>
<path fill="none" stroke="#00ff00" stroke-width=".3832" stroke-dasharray="1,5" d="M366.5429,-278.9836C349.6047,-270.1266 323.4145,-256.1546 301.2255,-243.1198 298.1594,-241.3187 294.9854,-239.399 291.8328,-237.4558"/>
<polygon fill="#00ff00" stroke="#00ff00" stroke-width=".3832" points="293.4454,-234.336 283.1121,-231.9962 289.7309,-240.2693 293.4454,-234.336"/>
</g>
<!-- F_lm -->
<g id="node17" class="node">
<title>F_lm</title>
<polygon fill="#d3d3d3" stroke="#000000" points="2119.2255,-297.1198 2083.2255,-297.1198 2083.2255,-279.1198 2119.2255,-279.1198 2119.2255,-297.1198"/>
<text text-anchor="middle" x="2101.2255" y="-285.9198" font-family="Times,serif" font-size="9.00" fill="#000000">F_lm</text>
</g>
<!-- F_lm&#45;&gt;no_move -->
<g id="edge88" class="edge">
<title>F_lm&#45;&gt;no_move</title>
<path fill="none" stroke="#ff0000" stroke-width=".2949" d="M2102.1234,-279.0651C2103.4317,-260.6338 2103.7055,-218.409 2082.2255,-193.6224 2061.1723,-169.3283 1976.844,-145.1643 1923.7219,-131.9122"/>
<polygon fill="#ff0000" stroke="#ff0000" stroke-width=".2949" points="1924.4115,-128.4776 1913.865,-129.4888 1922.7402,-135.2752 1924.4115,-128.4776"/>
</g>
<!-- F_lm&#45;&gt;right -->
<g id="edge79" class="edge">
<title>F_lm&#45;&gt;right</title>
<path fill="none" stroke="#ff0000" stroke-width=".3302" d="M2083.147,-285.5488C2067.7746,-283.466 2045.0976,-280.6368 2025.2255,-279.1198 1967.4147,-274.7069 1031.137,-274.2521 982.2255,-243.1198 965.7889,-232.6579 944.8785,-185.4566 932.0288,-153.0462"/>
<polygon fill="#ff0000" stroke="#ff0000" stroke-width=".3302" points="935.2078,-151.5646 928.3137,-143.5197 928.6862,-154.108 935.2078,-151.5646"/>
</g>
<!-- F_lm&#45;&gt;forward -->
<g id="edge91" class="edge">
<title>F_lm&#45;&gt;forward</title>
<path fill="none" stroke="#ff0000" stroke-width=".1721" d="M2083.1509,-285.4954C2067.781,-283.38 2045.1053,-280.533 2025.2255,-279.1198 1859.3736,-267.3302 691.2808,-280.3208 529.2255,-243.1198 517.2297,-240.3661 371.0912,-172.4503 300.2484,-139.358"/>
<polygon fill="#ff0000" stroke="#ff0000" stroke-width=".1721" points="301.722,-136.1834 291.1806,-135.1203 298.7583,-142.525 301.722,-136.1834"/>
</g>
<!-- F_lm&#45;&gt;backward -->
<g id="edge9" class="edge">
<title>F_lm&#45;&gt;backward</title>
<path fill="none" stroke="#00ff00" stroke-width=".2232" stroke-dasharray="1,5" d="M2119.2935,-287.8079C2202.2552,-286.1925 2543.974,-277.4787 2575.2255,-243.1198 2590.0277,-226.8458 2588.7779,-210.951 2575.2255,-193.6224 2534.3191,-141.318 2491.8496,-182.352 2430.2255,-157.6224 2422.3233,-154.4513 2414.2042,-150.4422 2406.5329,-146.2583"/>
<polygon fill="#00ff00" stroke="#00ff00" stroke-width=".2232" points="2408.2008,-143.1806 2397.7731,-141.3061 2404.7559,-149.2743 2408.2008,-143.1806"/>
</g>
<!-- F_lm&#45;&gt;1686 -->
<g id="edge110" class="edge">
<title>F_lm&#45;&gt;1686</title>
<path fill="none" stroke="#00ff00" stroke-width=".3313" d="M2119.6673,-286.9428C2184.7751,-282.6208 2403.471,-266.644 2469.2255,-243.1198 2472.7553,-241.857 2476.2965,-240.2301 2479.7273,-238.4141"/>
<polygon fill="#00ff00" stroke="#00ff00" stroke-width=".3313" points="2481.6133,-241.3655 2488.4669,-233.286 2478.0707,-235.3281 2481.6133,-241.3655"/>
</g>
<!-- F_wall -->
<g id="node18" class="node">
<title>F_wall</title>
<polygon fill="#d3d3d3" stroke="#000000" points="1532.2255,-227.3711 1490.2255,-227.3711 1490.2255,-209.3711 1532.2255,-209.3711 1532.2255,-227.3711"/>
<text text-anchor="middle" x="1511.2255" y="-216.1711" font-family="Times,serif" font-size="9.00" fill="#000000">F_wall</text>
</g>
<!-- F_wall&#45;&gt;no_move -->
<g id="edge86" class="edge">
<title>F_wall&#45;&gt;no_move</title>
<path fill="none" stroke="#00ff00" stroke-width=".2314" stroke-dasharray="1,5" d="M1521.5761,-209.3599C1528.2087,-204.0331 1537.2331,-197.5768 1546.2255,-193.6224 1643.3656,-150.9049 1767.8947,-132.669 1833.7187,-125.5807"/>
<polygon fill="#00ff00" stroke="#00ff00" stroke-width=".2314" points="1834.1811,-129.0516 1843.7658,-124.5367 1833.4576,-122.089 1834.1811,-129.0516"/>
</g>
<!-- F_wall&#45;&gt;forward -->
<g id="edge49" class="edge">
<title>F_wall&#45;&gt;forward</title>
<path fill="none" stroke="#ff0000" stroke-width=".3671" stroke-dasharray="1,5" d="M1489.9907,-214.963C1456.0924,-209.6401 1387.6173,-199.369 1329.2255,-193.6224 1068.2201,-167.9356 1001.8825,-175.4881 740.2255,-157.6224 578.9886,-146.6133 387.3152,-131.5551 304.1625,-124.9259"/>
<polygon fill="#ff0000" stroke="#ff0000" stroke-width=".3671" points="304.3465,-121.4295 294.0996,-124.1225 303.7893,-128.4073 304.3465,-121.4295"/>
</g>
<!-- F_wall&#45;&gt;no_turn -->
<g id="edge12" class="edge">
<title>F_wall&#45;&gt;no_turn</title>
<path fill="none" stroke="#ff0000" stroke-width=".7061" stroke-dasharray="1,5" d="M1489.9761,-215.1043C1456.0577,-209.975 1387.5557,-199.9645 1329.2255,-193.6224 1133.7257,-172.3661 1080.8845,-197.0498 888.2255,-157.6224 864.5926,-152.7859 838.9499,-144.366 818.5836,-136.8779"/>
<polygon fill="#ff0000" stroke="#ff0000" stroke-width=".7061" points="819.6335,-133.5337 809.0413,-133.2966 817.1738,-140.0873 819.6335,-133.5337"/>
</g>
<!-- F_wall&#45;&gt;cw -->
<g id="edge36" class="edge">
<title>F_wall&#45;&gt;cw</title>
<path fill="none" stroke="#ff0000" stroke-width=".394" stroke-dasharray="1,5" d="M1532.5929,-212.5939C1553.8932,-207.022 1587.6113,-198.7062 1617.2255,-193.6224 1760.0227,-169.1083 1797.2523,-173.8621 1941.2255,-157.6224 2046.3479,-145.7648 2171.1664,-131.3862 2226.8612,-124.9547"/>
<polygon fill="#ff0000" stroke="#ff0000" stroke-width=".394" points="2227.5199,-128.402 2237.0521,-123.7775 2226.7165,-121.4482 2227.5199,-128.402"/>
</g>
<!-- G_agent -->
<g id="node19" class="node">
<title>G_agent</title>
<polygon fill="#d3d3d3" stroke="#000000" points="1876.7255,-227.3711 1829.7255,-227.3711 1829.7255,-209.3711 1876.7255,-209.3711 1876.7255,-227.3711"/>
<text text-anchor="middle" x="1853.2255" y="-216.1711" font-family="Times,serif" font-size="9.00" fill="#000000">G_agent</text>
</g>
<!-- G_agent&#45;&gt;no_move -->
<g id="edge89" class="edge">
<title>G_agent&#45;&gt;no_move</title>
<path fill="none" stroke="#ff0000" stroke-width=".2386" d="M1855.7185,-209.0884C1858.4341,-198.9769 1862.9767,-182.0624 1867.3486,-165.7835"/>
<polygon fill="#ff0000" stroke="#ff0000" stroke-width=".2386" points="1870.8173,-166.3618 1870.0308,-155.7962 1864.0568,-164.5462 1870.8173,-166.3618"/>
</g>
<!-- G_agent&#45;&gt;right -->
<g id="edge28" class="edge">
<title>G_agent&#45;&gt;right</title>
<path fill="none" stroke="#ff0000" stroke-width=".7358" d="M1844.33,-209.1793C1838.359,-203.639 1830.0029,-197.0173 1821.2255,-193.6224 1818.6407,-192.6226 1118.0719,-137.1983 954.2174,-124.2461"/>
<polygon fill="#ff0000" stroke="#ff0000" stroke-width=".7358" points="954.0325,-120.7206 943.7878,-123.4217 953.4809,-127.6989 954.0325,-120.7206"/>
</g>
<!-- G_agent&#45;&gt;left -->
<g id="edge34" class="edge">
<title>G_agent&#45;&gt;left</title>
<path fill="none" stroke="#ff0000" stroke-width=".2304" stroke-dasharray="1,5" d="M1843.9468,-209.207C1837.9522,-203.8226 1829.7095,-197.3595 1821.2255,-193.6224 1751.1802,-162.7682 1518.5586,-134.2958 1435.2389,-124.8536"/>
<polygon fill="#ff0000" stroke="#ff0000" stroke-width=".2304" points="1435.4974,-121.3607 1425.1693,-123.7231 1434.7164,-128.317 1435.4974,-121.3607"/>
</g>
<!-- G_agent&#45;&gt;backward -->
<g id="edge16" class="edge">
<title>G_agent&#45;&gt;backward</title>
<path fill="none" stroke="#00ff00" stroke-width=".4595" d="M1876.8878,-212.1929C1898.8647,-206.6473 1932.5673,-198.6311 1962.2255,-193.6224 2104.2176,-169.6425 2145.0852,-194.7274 2284.2255,-157.6224 2298.1513,-153.9087 2312.7545,-148.2259 2325.7615,-142.4621"/>
<polygon fill="#00ff00" stroke="#00ff00" stroke-width=".4595" points="2327.2774,-145.6176 2334.9179,-138.2778 2324.3679,-139.2508 2327.2774,-145.6176"/>
</g>
<!-- G_agent&#45;&gt;cw -->
<g id="edge90" class="edge">
<title>G_agent&#45;&gt;cw</title>
<path fill="none" stroke="#00ff00" stroke-width=".254" stroke-dasharray="1,5" d="M1876.9304,-212.6766C1946.8662,-195.8761 2152.1613,-146.5589 2227.8108,-128.3859"/>
<polygon fill="#00ff00" stroke="#00ff00" stroke-width=".254" points="2228.6914,-131.774 2237.5972,-126.0349 2227.0563,-124.9676 2228.6914,-131.774"/>
</g>
<!-- G_lm -->
<g id="node20" class="node">
<title>G_lm</title>
<polygon fill="#d3d3d3" stroke="#000000" points="2227.7255,-227.3711 2190.7255,-227.3711 2190.7255,-209.3711 2227.7255,-209.3711 2227.7255,-227.3711"/>
<text text-anchor="middle" x="2209.2255" y="-216.1711" font-family="Times,serif" font-size="9.00" fill="#000000">G_lm</text>
</g>
<!-- G_lm&#45;&gt;no_move -->
<g id="edge43" class="edge">
<title>G_lm&#45;&gt;no_move</title>
<path fill="none" stroke="#ff0000" stroke-width=".3297" d="M2201.5772,-209.345C2196.5872,-204.0126 2189.6404,-197.5556 2182.2255,-193.6224 2098.2373,-149.0711 1986.6848,-131.7237 1925.052,-125.2278"/>
<polygon fill="#ff0000" stroke="#ff0000" stroke-width=".3297" points="1925.1711,-121.7222 1914.8716,-124.2061 1924.4721,-128.6872 1925.1711,-121.7222"/>
</g>
<!-- G_lm&#45;&gt;right -->
<g id="edge20" class="edge">
<title>G_lm&#45;&gt;right</title>
<path fill="none" stroke="#00ff00" stroke-width=".1438" d="M2202.2548,-209.3399C2197.3341,-203.714 2190.2132,-196.9364 2182.2255,-193.6224 2099.4243,-159.2688 1465.6993,-163.1569 1376.2255,-157.6224 1218.3324,-147.8557 1030.0574,-131.4529 954.287,-124.6553"/>
<polygon fill="#00ff00" stroke="#00ff00" stroke-width=".1438" points="954.2146,-121.1348 943.9411,-123.724 953.587,-128.1066 954.2146,-121.1348"/>
</g>
<!-- G_lm&#45;&gt;left -->
<g id="edge1" class="edge">
<title>G_lm&#45;&gt;left</title>
<path fill="none" stroke="#00ff00" stroke-width="1.1094" stroke-dasharray="1,5" d="M2201.7592,-208.9705C2196.8378,-203.4971 2189.8991,-197.0235 2182.2255,-193.6224 2164.7791,-185.8898 1575.8171,-135.9186 1435.1687,-124.0745"/>
<polygon fill="#00ff00" stroke="#00ff00" stroke-width="1.1094" points="1435.3653,-120.5788 1425.107,-123.2279 1434.7783,-127.5541 1435.3653,-120.5788"/>
</g>
<!-- G_lm&#45;&gt;backward -->
<g id="edge14" class="edge">
<title>G_lm&#45;&gt;backward</title>
<path fill="none" stroke="#00ff00" stroke-width=".135" stroke-dasharray="1,5" d="M2224.0897,-209.2633C2247.5724,-194.8748 2294.0364,-166.405 2327.6697,-145.7969"/>
<polygon fill="#00ff00" stroke="#00ff00" stroke-width=".135" points="2329.6553,-148.6851 2336.3534,-140.4762 2325.9981,-142.7164 2329.6553,-148.6851"/>
</g>
<!-- G_lm&#45;&gt;ccw -->
<g id="edge30" class="edge">
<title>G_lm&#45;&gt;ccw</title>
<path fill="none" stroke="#00ff00" stroke-width=".6322" stroke-dasharray="1,5" d="M2227.7869,-210.8074C2241.1198,-205.549 2259.5988,-198.6155 2276.2255,-193.6224 2343.5451,-173.4057 2370.1259,-194.0734 2430.2255,-157.6224 2434.6992,-154.909 2438.8578,-151.3289 2442.5831,-147.4776"/>
<polygon fill="#00ff00" stroke="#00ff00" stroke-width=".6322" points="2445.2581,-149.7352 2449.1818,-139.8937 2439.9773,-145.1404 2445.2581,-149.7352"/>
</g>
<!-- G_wall -->
<g id="node21" class="node">
<title>G_wall</title>
<polygon fill="#d3d3d3" stroke="#000000" points="2822.7255,-297.1198 2779.7255,-297.1198 2779.7255,-279.1198 2822.7255,-279.1198 2822.7255,-297.1198"/>
<text text-anchor="middle" x="2801.2255" y="-285.9198" font-family="Times,serif" font-size="9.00" fill="#000000">G_wall</text>
</g>
<!-- H_agent -->
<g id="node22" class="node">
<title>H_agent</title>
<polygon fill="#d3d3d3" stroke="#000000" points="2015.7255,-297.1198 1968.7255,-297.1198 1968.7255,-279.1198 2015.7255,-279.1198 2015.7255,-297.1198"/>
<text text-anchor="middle" x="1992.2255" y="-285.9198" font-family="Times,serif" font-size="9.00" fill="#000000">H_agent</text>
</g>
<!-- H_agent&#45;&gt;no_move -->
<g id="edge68" class="edge">
<title>H_agent&#45;&gt;no_move</title>
<path fill="none" stroke="#00ff00" stroke-width=".7984" d="M1985.8263,-278.6876C1970.5476,-256.167 1931.2508,-198.2443 1904.8804,-159.3749"/>
<polygon fill="#00ff00" stroke="#00ff00" stroke-width=".7984" points="1907.6457,-157.2166 1899.1351,-150.9063 1901.853,-161.1466 1907.6457,-157.2166"/>
</g>
<!-- H_agent&#45;&gt;right -->
<g id="edge6" class="edge">
<title>H_agent&#45;&gt;right</title>
<path fill="none" stroke="#00ff00" stroke-width=".1634" d="M1968.3603,-287.5007C1814.1615,-283.4516 964.3262,-260.3757 944.2255,-243.1198 919.4765,-221.8736 915.6255,-183.15 916.5992,-155.1064"/>
<polygon fill="#00ff00" stroke="#00ff00" stroke-width=".1634" points="920.1038,-155.122 917.175,-144.94 913.115,-154.7261 920.1038,-155.122"/>
</g>
<!-- H_agent&#45;&gt;forward -->
<g id="edge78" class="edge">
<title>H_agent&#45;&gt;forward</title>
<path fill="none" stroke="#ff0000" stroke-width=".588" d="M1968.6691,-287.5169C1776.4415,-282.5863 472.1599,-248.9356 453.2255,-243.1198 391.0473,-224.0216 329.4441,-178.819 293.6545,-149.2415"/>
<polygon fill="#ff0000" stroke="#ff0000" stroke-width=".588" points="295.9007,-146.5573 285.9881,-142.8168 291.4045,-151.9225 295.9007,-146.5573"/>
</g>
<!-- H_agent&#45;&gt;backward -->
<g id="edge62" class="edge">
<title>H_agent&#45;&gt;backward</title>
<path fill="none" stroke="#ff0000" stroke-width=".4093" d="M2015.8878,-285.3165C2032.2563,-283.428 2054.5472,-280.9561 2074.2255,-279.1198 2126.1535,-274.2742 2506.7897,-281.3861 2542.2255,-243.1198 2557.1726,-226.9788 2555.1842,-211.3994 2542.2255,-193.6224 2511.4257,-151.3707 2478.0639,-178.7249 2430.2255,-157.6224 2422.4351,-154.1859 2414.3687,-150.0514 2406.7145,-145.8269"/>
<polygon fill="#ff0000" stroke="#ff0000" stroke-width=".4093" points="2408.3851,-142.7506 2397.9598,-140.8625 2404.9322,-148.8398 2408.3851,-142.7506"/>
</g>
<!-- H_agent&#45;&gt;cw -->
<g id="edge48" class="edge">
<title>H_agent&#45;&gt;cw</title>
<path fill="none" stroke="#00ff00" stroke-width=".4892" d="M2015.7826,-285.535C2102.3407,-276.034 2397.8217,-243.5708 2398.2255,-243.1198 2412.8992,-226.7298 2409.9894,-212.2117 2398.2255,-193.6224 2378.2389,-162.0396 2355.5277,-174.5901 2322.2255,-157.6224 2308.6899,-150.7259 2293.8255,-142.6495 2281.6359,-135.89"/>
<polygon fill="#00ff00" stroke="#00ff00" stroke-width=".4892" points="2283.3404,-132.8332 2272.902,-131.0191 2279.9309,-138.9467 2283.3404,-132.8332"/>
</g>
<!-- 199 -->
<g id="node40" class="node">
<title>199</title>
<ellipse fill="#ffffff" stroke="#000000" cx="2052.2255" cy="-218.3711" rx="21.4286" ry="21.4286"/>
<text text-anchor="middle" x="2052.2255" y="-216.1711" font-family="Times,serif" font-size="9.00" fill="#000000">199</text>
</g>
<!-- H_agent&#45;&gt;199 -->
<g id="edge92" class="edge">
<title>H_agent&#45;&gt;199</title>
<path fill="none" stroke="#ff0000" stroke-width=".1126" stroke-dasharray="1,5" d="M2000.0694,-279.0014C2007.9908,-269.7929 2020.5687,-255.1714 2031.3879,-242.5943"/>
<polygon fill="#ff0000" stroke="#ff0000" stroke-width=".1126" points="2034.309,-244.5656 2038.1771,-234.7021 2029.0023,-240.0006 2034.309,-244.5656"/>
</g>
<!-- H_lm -->
<g id="node23" class="node">
<title>H_lm</title>
<polygon fill="#d3d3d3" stroke="#000000" points="2761.7255,-297.1198 2724.7255,-297.1198 2724.7255,-279.1198 2761.7255,-279.1198 2761.7255,-297.1198"/>
<text text-anchor="middle" x="2743.2255" y="-285.9198" font-family="Times,serif" font-size="9.00" fill="#000000">H_lm</text>
</g>
<!-- H_lm&#45;&gt;left -->
<g id="edge24" class="edge">
<title>H_lm&#45;&gt;left</title>
<path fill="none" stroke="#ff0000" stroke-width=".7606" d="M2724.4657,-287.5479C2591.9831,-283.4737 1801.2336,-258.5696 1753.2255,-243.1198 1714.8536,-230.7711 1714.0627,-209.9903 1677.2255,-193.6224 1593.4522,-156.3992 1486.344,-135.0263 1435.1232,-126.2672"/>
<polygon fill="#ff0000" stroke="#ff0000" stroke-width=".7606" points="1435.51,-122.7834 1425.0701,-124.5884 1434.357,-129.6878 1435.51,-122.7834"/>
</g>
<!-- H_lm&#45;&gt;backward -->
<g id="edge27" class="edge">
<title>H_lm&#45;&gt;backward</title>
<path fill="none" stroke="#ff0000" stroke-width=".6795" stroke-dasharray="1,5" d="M2744.517,-278.9451C2746.625,-259.9073 2748.4114,-216.0237 2724.2255,-193.6224 2675.9353,-148.8954 2492.6874,-178.3818 2430.2255,-157.6224 2422.0594,-154.9084 2413.7676,-151.0766 2405.9981,-146.9164"/>
<polygon fill="#ff0000" stroke="#ff0000" stroke-width=".6795" points="2407.5856,-143.7935 2397.1561,-141.9292 2404.1466,-149.8905 2407.5856,-143.7935"/>
</g>
<!-- H_lm&#45;&gt;ccw -->
<g id="edge50" class="edge">
<title>H_lm&#45;&gt;ccw</title>
<path fill="none" stroke="#00ff00" stroke-width=".8719" d="M2761.9856,-281.435C2791.0381,-270.8973 2844.1222,-250.8305 2849.2255,-243.1198 2861.3671,-224.775 2863.2892,-210.5387 2849.2255,-193.6224 2803.8617,-139.0574 2577.881,-125.614 2493.2735,-122.47"/>
<polygon fill="#00ff00" stroke="#00ff00" stroke-width=".8719" points="2493.3341,-118.9701 2483.2186,-122.1208 2493.091,-125.9659 2493.3341,-118.9701"/>
</g>
<!-- 1467 -->
<g id="node38" class="node">
<title>1467</title>
<ellipse fill="#ffffff" stroke="#000000" cx="2940.2255" cy="-218.3711" rx="25" ry="25"/>
<text text-anchor="middle" x="2940.2255" y="-216.1711" font-family="Times,serif" font-size="9.00" fill="#000000">1467</text>
</g>
<!-- H_lm&#45;&gt;1467 -->
<g id="edge104" class="edge">
<title>H_lm&#45;&gt;1467</title>
<path fill="none" stroke="#ff0000" stroke-width=".3419" stroke-dasharray="1,5" d="M2761.8685,-282.0104C2764.9862,-281.0224 2768.1924,-280.0268 2771.2255,-279.1198 2828.6645,-261.9433 2846.4303,-267.4459 2901.2255,-243.1198 2904.4756,-241.677 2907.7699,-239.9914 2910.9956,-238.1905"/>
<polygon fill="#ff0000" stroke="#ff0000" stroke-width=".3419" points="2913.0271,-241.0537 2919.811,-232.9155 2909.4327,-235.0469 2913.0271,-241.0537"/>
</g>
<!-- 862 -->
<g id="node41" class="node">
<title>862</title>
<ellipse fill="#ffffff" stroke="#000000" cx="1647.2255" cy="-218.3711" rx="21.4286" ry="21.4286"/>
<text text-anchor="middle" x="1647.2255" y="-216.1711" font-family="Times,serif" font-size="9.00" fill="#000000">862</text>
</g>
<!-- H_lm&#45;&gt;862 -->
<g id="edge103" class="edge">
<title>H_lm&#45;&gt;862</title>
<path fill="none" stroke="#00ff00" stroke-width=".2839" d="M2724.3982,-287.469C2584.2164,-282.6053 1707.9071,-251.8859 1682.2255,-243.1198 1678.6335,-241.8938 1675.0837,-240.174 1671.7017,-238.2059"/>
<polygon fill="#00ff00" stroke="#00ff00" stroke-width=".2839" points="1673.4958,-235.196 1663.2278,-232.5847 1669.6263,-241.0293 1673.4958,-235.196"/>
</g>
<!-- H_wall -->
<g id="node24" class="node">
<title>H_wall</title>
<polygon fill="#d3d3d3" stroke="#000000" points="2388.7255,-227.3711 2345.7255,-227.3711 2345.7255,-209.3711 2388.7255,-209.3711 2388.7255,-227.3711"/>
<text text-anchor="middle" x="2367.2255" y="-216.1711" font-family="Times,serif" font-size="9.00" fill="#000000">H_wall</text>
</g>
<!-- H_wall&#45;&gt;no_move -->
<g id="edge4" class="edge">
<title>H_wall&#45;&gt;no_move</title>
<path fill="none" stroke="#ff0000" stroke-width=".1711" d="M2358.6488,-209.1512C2353.0748,-203.7459 2345.3527,-197.2803 2337.2255,-193.6224 2263.7641,-160.559 2025.1756,-135.1435 1924.5974,-125.63"/>
<polygon fill="#ff0000" stroke="#ff0000" stroke-width=".1711" points="1924.7339,-122.1276 1914.4512,-124.6801 1924.0814,-129.0971 1924.7339,-122.1276"/>
</g>
<!-- H_wall&#45;&gt;left -->
<g id="edge69" class="edge">
<title>H_wall&#45;&gt;left</title>
<path fill="none" stroke="#ff0000" stroke-width=".4592" stroke-dasharray="1,5" d="M2358.7524,-208.9074C2353.2174,-203.4103 2345.4999,-196.9338 2337.2255,-193.6224 2233.3901,-152.067 1946.7307,-166.296 1835.2255,-157.6224 1685.2796,-145.9586 1506.0652,-130.4104 1435.7044,-124.2434"/>
<polygon fill="#ff0000" stroke="#ff0000" stroke-width=".4592" points="1435.6355,-120.724 1425.3677,-123.3362 1435.0234,-127.6972 1435.6355,-120.724"/>
</g>
<!-- H_wall&#45;&gt;backward -->
<g id="edge29" class="edge">
<title>H_wall&#45;&gt;backward</title>
<path fill="none" stroke="#00ff00" stroke-width=".2771" d="M2367.2255,-209.0884C2367.2255,-199.4605 2367.2255,-183.6648 2367.2255,-168.1228"/>
<polygon fill="#00ff00" stroke="#00ff00" stroke-width=".2771" points="2370.7256,-168.0135 2367.2255,-158.0135 2363.7256,-168.0135 2370.7256,-168.0135"/>
</g>
<!-- H_wall&#45;&gt;ccw -->
<g id="edge83" class="edge">
<title>H_wall&#45;&gt;ccw</title>
<path fill="none" stroke="#ff0000" stroke-width=".4853" d="M2377.3272,-209.1786C2390.0106,-197.514 2412.2816,-176.6223 2430.2255,-157.6224 2433.5913,-154.0585 2437.0634,-150.2078 2440.4115,-146.3951"/>
<polygon fill="#ff0000" stroke="#ff0000" stroke-width=".4853" points="2443.1474,-148.5821 2447.0357,-138.7265 2437.8501,-144.0062 2443.1474,-148.5821"/>
</g>
<!-- H_wall&#45;&gt;cw -->
<g id="edge63" class="edge">
<title>H_wall&#45;&gt;cw</title>
<path fill="none" stroke="#00ff00" stroke-width=".2219" d="M2356.5823,-209.0884C2338.7198,-193.5092 2302.3412,-161.7808 2278.6402,-141.1094"/>
<polygon fill="#00ff00" stroke="#00ff00" stroke-width=".2219" points="2280.6735,-138.2387 2270.8366,-134.3034 2276.0724,-143.5141 2280.6735,-138.2387"/>
</g>
<!-- no_move&#45;&gt;no_move -->
<g id="edge39" class="edge">
<title>no_move&#45;&gt;no_move</title>
<path fill="none" stroke="#ff0000" stroke-width=".1377" stroke-dasharray="1,5" d="M1909.9298,-139.4501C1922.2445,-140.4608 1932.5808,-134.4974 1932.5808,-121.5599 1932.5808,-112.4632 1927.4707,-106.8145 1920.1558,-104.6136"/>
<polygon fill="#ff0000" stroke="#ff0000" stroke-width=".1377" points="1920.2092,-101.1037 1909.9298,-103.6698 1919.5658,-108.0741 1920.2092,-101.1037"/>
</g>
<!-- backward&#45;&gt;backward -->
<g id="edge18" class="edge">
<title>backward&#45;&gt;backward</title>
<path fill="none" stroke="#ff0000" stroke-width=".5783" d="M2398.6077,-139.4709C2410.9659,-140.374 2421.2879,-134.4037 2421.2879,-121.5599 2421.2879,-112.5292 2416.1849,-106.8965 2408.859,-104.662"/>
<polygon fill="#ff0000" stroke="#ff0000" stroke-width=".5783" points="2408.9034,-101.1494 2398.6077,-103.6489 2408.215,-108.1155 2408.9034,-101.1494"/>
</g>
<!-- no_turn&#45;&gt;no_turn -->
<g id="edge76" class="edge">
<title>no_turn&#45;&gt;no_turn</title>
<path fill="none" stroke="#ff0000" stroke-width=".2083" stroke-dasharray="1,5" d="M805.9983,-139.1205C818.3949,-141.2884 829.3382,-135.4349 829.3382,-121.5599 829.3382,-111.6957 823.8071,-105.8857 816.155,-104.1301"/>
<polygon fill="#ff0000" stroke="#ff0000" stroke-width=".2083" points="816.0425,-100.6285 805.9983,-103.9994 815.9524,-107.6279 816.0425,-100.6285"/>
</g>
<!-- no_turn&#45;&gt;1141 -->
<g id="edge116" class="edge">
<title>no_turn&#45;&gt;1141</title>
<path fill="none" stroke="#00ff00" stroke-width=".3228" d="M749.8096,-114.1241C677.3334,-96.4056 494.8184,-51.7857 418.5519,-33.1406"/>
<polygon fill="#00ff00" stroke="#00ff00" stroke-width=".3228" points="419.0632,-29.6626 408.518,-30.6876 417.4008,-36.4623 419.0632,-29.6626"/>
</g>
<!-- ccw&#45;&gt;ccw -->
<g id="edge10" class="edge">
<title>ccw&#45;&gt;ccw</title>
<path fill="none" stroke="#ff0000" stroke-width=".5673" d="M2476.7963,-137.2352C2488.851,-143.0975 2501.1458,-137.8724 2501.1458,-121.5599 2501.1458,-109.8353 2494.7943,-103.8385 2486.7456,-103.5694"/>
<polygon fill="#ff0000" stroke="#ff0000" stroke-width=".5673" points="2485.7428,-100.2091 2476.7963,-105.8846 2487.3294,-107.027 2485.7428,-100.2091"/>
</g>
<!-- 773&#45;&gt;left -->
<g id="edge97" class="edge">
<title>773&#45;&gt;left</title>
<path fill="none" stroke="#00ff00" stroke-width=".3284" stroke-dasharray="1,5" d="M1315.3246,-203.6676C1333.3221,-187.2302 1362.5897,-160.4998 1382.8172,-142.0257"/>
<polygon fill="#00ff00" stroke="#00ff00" stroke-width=".3284" points="1385.3235,-144.4767 1390.3471,-135.1486 1380.6028,-139.308 1385.3235,-144.4767"/>
</g>
<!-- 1801&#45;&gt;no_move -->
<g id="edge118" class="edge">
<title>1801&#45;&gt;no_move</title>
<path fill="none" stroke="#ff0000" stroke-width=".2397" d="M1804.53,-200.1617C1816.6969,-187.3584 1833.3233,-169.8626 1847.8013,-154.6275"/>
<polygon fill="#ff0000" stroke="#ff0000" stroke-width=".2397" points="1850.3556,-157.0204 1854.7071,-147.3605 1845.2813,-152.1984 1850.3556,-157.0204"/>
</g>
<!-- 1686&#45;&gt;backward -->
<g id="edge111" class="edge">
<title>1686&#45;&gt;backward</title>
<path fill="none" stroke="#00ff00" stroke-width=".412" d="M2487.7229,-204.2939C2466.2198,-189.5298 2431.9317,-165.9875 2405.4201,-147.7845"/>
<polygon fill="#00ff00" stroke="#00ff00" stroke-width=".412" points="2407.3368,-144.8549 2397.1118,-142.08 2403.3746,-150.6257 2407.3368,-144.8549"/>
</g>
<!-- 1826&#45;&gt;forward -->
<g id="edge121" class="edge">
<title>1826&#45;&gt;forward</title>
<path fill="none" stroke="#ff0000" stroke-width=".3007" d="M101.0436,-204.6274C106.858,-200.9356 113.2274,-197.0258 119.2255,-193.6224 153.9831,-173.8999 194.7954,-153.6048 223.9033,-139.5988"/>
<polygon fill="#ff0000" stroke="#ff0000" stroke-width=".3007" points="225.7921,-142.575 233.3003,-135.1 222.7693,-136.2613 225.7921,-142.575"/>
</g>
<!-- 1332&#45;&gt;forward -->
<g id="edge101" class="edge">
<title>1332&#45;&gt;forward</title>
<path fill="none" stroke="#ff0000" stroke-width=".1531" stroke-dasharray="1,5" d="M262.2255,-193.4398C262.2255,-184.4584 262.2255,-174.0544 262.2255,-163.9991"/>
<polygon fill="#ff0000" stroke="#ff0000" stroke-width=".1531" points="265.7256,-163.721 262.2255,-153.721 258.7256,-163.721 265.7256,-163.721"/>
</g>
<!-- 1332&#45;&gt;no_turn -->
<g id="edge109" class="edge">
<title>1332&#45;&gt;no_turn</title>
<path fill="none" stroke="#00ff00" stroke-width=".1594" d="M282.4317,-203.3165C288.2436,-199.6196 294.7648,-196.035 301.2255,-193.6224 381.5945,-163.6103 638.1146,-135.6633 738.9545,-125.5531"/>
<polygon fill="#00ff00" stroke="#00ff00" stroke-width=".1594" points="739.4565,-129.0206 749.0608,-124.5475 738.7633,-122.055 739.4565,-129.0206"/>
</g>
<!-- 1467&#45;&gt;ccw -->
<g id="edge105" class="edge">
<title>1467&#45;&gt;ccw</title>
<path fill="none" stroke="#00ff00" stroke-width=".1701" d="M2919.9983,-203.372C2914.1863,-199.6753 2907.6703,-196.0769 2901.2255,-193.6224 2756.0922,-138.3468 2568.1904,-125.4504 2493.7011,-122.4575"/>
<polygon fill="#00ff00" stroke="#00ff00" stroke-width=".1701" points="2493.6744,-118.9543 2483.5523,-122.084 2493.4168,-125.9495 2493.6744,-118.9543"/>
</g>
<!-- 1730&#45;&gt;backward -->
<g id="edge115" class="edge">
<title>1730&#45;&gt;backward</title>
<path fill="none" stroke="#00ff00" stroke-width=".3489" d="M2669.9997,-203.3684C2664.1877,-199.6717 2657.6713,-196.0742 2651.2255,-193.6224 2558.2101,-158.2422 2524.0227,-190.8742 2430.2255,-157.6224 2422.1148,-154.7471 2413.8488,-150.8401 2406.0874,-146.6562"/>
<polygon fill="#00ff00" stroke="#00ff00" stroke-width=".3489" points="2407.6758,-143.5337 2397.2475,-141.6629 2404.233,-149.6286 2407.6758,-143.5337"/>
</g>
<!-- 199&#45;&gt;right -->
<g id="edge93" class="edge">
<title>199&#45;&gt;right</title>
<path fill="none" stroke="#00ff00" stroke-width=".2189" stroke-dasharray="1,5" d="M2037.262,-202.9222C2032.7935,-199.2237 2027.6334,-195.7369 2022.2255,-193.6224 1888.3191,-141.2652 1519.6783,-167.2906 1376.2255,-157.6224 1218.3887,-146.9847 1030.0824,-131.0664 954.2953,-124.5267"/>
<polygon fill="#00ff00" stroke="#00ff00" stroke-width=".2189" points="954.2115,-121.0065 943.947,-123.6316 953.6082,-127.9804 954.2115,-121.0065"/>
</g>
<!-- 199&#45;&gt;ccw -->
<g id="edge119" class="edge">
<title>199&#45;&gt;ccw</title>
<path fill="none" stroke="#00ff00" stroke-width=".2496" d="M2071.7918,-209.9979C2085.4115,-204.508 2104.1262,-197.6293 2121.2255,-193.6224 2255.841,-162.077 2308.1258,-222.4923 2430.2255,-157.6224 2434.8461,-155.1675 2439.0789,-151.7179 2442.8326,-147.9167"/>
<polygon fill="#00ff00" stroke="#00ff00" stroke-width=".2496" points="2445.5029,-150.1798 2449.4367,-140.3423 2440.2268,-145.5795 2445.5029,-150.1798"/>
</g>
<!-- 862&#45;&gt;left -->
<g id="edge98" class="edge">
<title>862&#45;&gt;left</title>
<path fill="none" stroke="#00ff00" stroke-width=".412" stroke-dasharray="1,5" d="M1627.4216,-210.4486C1584.439,-193.2536 1482.4976,-152.4723 1433.0635,-132.6964"/>
<polygon fill="#00ff00" stroke="#00ff00" stroke-width=".412" points="1434.2152,-129.3875 1423.6306,-128.9228 1431.6152,-135.8868 1434.2152,-129.3875"/>
</g>
<!-- 1508&#45;&gt;ccw -->
<g id="edge107" class="edge">
<title>1508&#45;&gt;ccw</title>
<path fill="none" stroke="#ff0000" stroke-width=".1429" d="M2775.868,-203.6956C2770.0554,-200.0002 2763.5717,-196.3215 2757.2255,-193.6224 2665.5491,-154.6313 2548.5332,-134.0053 2493.0979,-125.8277"/>
<polygon fill="#ff0000" stroke="#ff0000" stroke-width=".1429" points="2493.5667,-122.3592 2483.1703,-124.4002 2492.5703,-129.288 2493.5667,-122.3592"/>
</g>
</g>
</svg>
