<?xml version="1.0" encoding="UTF-8" standalone="no"?>
<!DOCTYPE svg PUBLIC "-//W3C//DTD SVG 1.1//EN"
 "http://www.w3.org/Graphics/SVG/1.1/DTD/svg11.dtd">
<!-- Generated by graphviz version 2.40.1 (20161225.0304)
 -->
<!-- Title: %3 Pages: 1 -->
<svg width="3523pt" height="768pt"
 viewBox="0.00 0.00 3523.00 767.96" xmlns="http://www.w3.org/2000/svg" xmlns:xlink="http://www.w3.org/1999/xlink">
<g id="graph0" class="graph" transform="scale(1 1) rotate(0) translate(4 763.9626)">
<title>%3</title>
<polygon fill="#ffffff" stroke="transparent" points="-4,4 -4,-763.9626 3519,-763.9626 3519,4 -4,4"/>
<!-- A_agent -->
<g id="node1" class="node">
<title>A_agent</title>
<polygon fill="#d3d3d3" stroke="#000000" points="380.5,-433.7214 333.5,-433.7214 333.5,-415.7214 380.5,-415.7214 380.5,-433.7214"/>
<text text-anchor="middle" x="357" y="-422.5214" font-family="Times,serif" font-size="9.00" fill="#000000">A_agent</text>
</g>
<!-- cw -->
<g id="node33" class="node">
<title>cw</title>
<ellipse fill="#add8e6" stroke="#000000" cx="643" cy="-228.9777" rx="19.1842" ry="19.1842"/>
<text text-anchor="middle" x="643" y="-226.7777" font-family="Times,serif" font-size="9.00" fill="#000000">cw</text>
</g>
<!-- A_agent&#45;&gt;cw -->
<g id="edge61" class="edge">
<title>A_agent&#45;&gt;cw</title>
<path fill="none" stroke="#ff0000" stroke-width=".3405" stroke-dasharray="1,5" d="M362.109,-415.7042C377.5751,-388.5209 423.4721,-308.7211 434,-300.333 488.3209,-257.0531 570.4148,-239.2953 613.7775,-232.611"/>
<polygon fill="#ff0000" stroke="#ff0000" stroke-width=".3405" points="614.5317,-236.0384 623.9269,-231.1414 613.5286,-229.1106 614.5317,-236.0384"/>
</g>
<!-- 424 -->
<g id="node45" class="node">
<title>424</title>
<ellipse fill="#ffffff" stroke="#000000" cx="643" cy="-132.8736" rx="21.4286" ry="21.4286"/>
<text text-anchor="middle" x="643" y="-130.6736" font-family="Times,serif" font-size="9.00" fill="#000000">424</text>
</g>
<!-- A_agent&#45;&gt;424 -->
<g id="edge140" class="edge">
<title>A_agent&#45;&gt;424</title>
<path fill="none" stroke="#00ff00" stroke-width=".2873" stroke-dasharray="1,5" d="M349.9738,-415.6165C334.2894,-394.1006 299.5815,-339.0196 323,-300.333 387.5718,-193.6629 544.9194,-151.6673 611.942,-138.2347"/>
<polygon fill="#00ff00" stroke="#00ff00" stroke-width=".2873" points="612.7371,-141.646 621.8951,-136.3186 611.4138,-134.7722 612.7371,-141.646"/>
</g>
<!-- 6447 -->
<g id="node48" class="node">
<title>6447</title>
<ellipse fill="#ffffff" stroke="#000000" cx="357" cy="-332.1528" rx="25" ry="25"/>
<text text-anchor="middle" x="357" y="-329.9528" font-family="Times,serif" font-size="9.00" fill="#000000">6447</text>
</g>
<!-- A_agent&#45;&gt;6447 -->
<g id="edge157" class="edge">
<title>A_agent&#45;&gt;6447</title>
<path fill="none" stroke="#00ff00" stroke-width=".1514" d="M357,-415.5071C357,-404.2974 357,-384.7155 357,-367.3473"/>
<polygon fill="#00ff00" stroke="#00ff00" stroke-width=".1514" points="360.5001,-366.9139 357,-356.9139 353.5001,-366.9139 360.5001,-366.9139"/>
</g>
<!-- A_lm -->
<g id="node2" class="node">
<title>A_lm</title>
<polygon fill="#d3d3d3" stroke="#000000" points="1804.5,-433.7214 1767.5,-433.7214 1767.5,-415.7214 1804.5,-415.7214 1804.5,-433.7214"/>
<text text-anchor="middle" x="1786" y="-422.5214" font-family="Times,serif" font-size="9.00" fill="#000000">A_lm</text>
</g>
<!-- no_move -->
<g id="node26" class="node">
<title>no_move</title>
<ellipse fill="#add8e6" stroke="#000000" cx="1458" cy="-228.9777" rx="35.2113" ry="35.2113"/>
<text text-anchor="middle" x="1458" y="-226.7777" font-family="Times,serif" font-size="9.00" fill="#000000">no_move</text>
</g>
<!-- A_lm&#45;&gt;no_move -->
<g id="edge5" class="edge">
<title>A_lm&#45;&gt;no_move</title>
<path fill="none" stroke="#ff0000" stroke-width=".2281" stroke-dasharray="1,5" d="M1767.2337,-417.0269C1753.5084,-411.6376 1734.3374,-404.5997 1717,-399.9727 1629.3142,-376.5708 1587.0729,-420.4092 1516,-363.9727 1488.1815,-341.8829 1473.4654,-303.8795 1465.8287,-273.8122"/>
<polygon fill="#ff0000" stroke="#ff0000" stroke-width=".2281" points="1469.2055,-272.8825 1463.5016,-263.9541 1462.3928,-274.4908 1469.2055,-272.8825"/>
</g>
<!-- right -->
<g id="node27" class="node">
<title>right</title>
<ellipse fill="#add8e6" stroke="#000000" cx="2302" cy="-36.0624" rx="23.1702" ry="23.1702"/>
<text text-anchor="middle" x="2302" y="-33.8624" font-family="Times,serif" font-size="9.00" fill="#000000">right</text>
</g>
<!-- A_lm&#45;&gt;right -->
<g id="edge83" class="edge">
<title>A_lm&#45;&gt;right</title>
<path fill="none" stroke="#ff0000" stroke-width=".3001" stroke-dasharray="1,5" d="M1785.9046,-415.529C1786.0117,-394.2832 1788.1756,-340.5215 1806,-300.333 1850.38,-200.2699 1866.7654,-165.4792 1960,-108.1249 2011.8462,-76.2311 2192.4897,-50.0668 2268.2029,-40.2412"/>
<polygon fill="#ff0000" stroke="#ff0000" stroke-width=".3001" points="2269.1103,-43.6536 2278.5845,-38.9113 2268.2209,-36.7104 2269.1103,-43.6536"/>
</g>
<!-- forward -->
<g id="node29" class="node">
<title>forward</title>
<ellipse fill="#add8e6" stroke="#000000" cx="1978" cy="-332.1528" rx="31.6406" ry="31.6406"/>
<text text-anchor="middle" x="1978" y="-329.9528" font-family="Times,serif" font-size="9.00" fill="#000000">forward</text>
</g>
<!-- A_lm&#45;&gt;forward -->
<g id="edge4" class="edge">
<title>A_lm&#45;&gt;forward</title>
<path fill="none" stroke="#00ff00" stroke-width=".3333" stroke-dasharray="1,5" d="M1795.0842,-415.6703C1800.5289,-410.5909 1807.7789,-404.4037 1815,-399.9727 1854.351,-375.826 1903.827,-356.6148 1937.8888,-344.8911"/>
<polygon fill="#00ff00" stroke="#00ff00" stroke-width=".3333" points="1939.1489,-348.1597 1947.5006,-341.6406 1936.9063,-341.5286 1939.1489,-348.1597"/>
</g>
<!-- backward -->
<g id="node30" class="node">
<title>backward</title>
<ellipse fill="#add8e6" stroke="#000000" cx="786" cy="-36.0624" rx="36.125" ry="36.125"/>
<text text-anchor="middle" x="786" y="-33.8624" font-family="Times,serif" font-size="9.00" fill="#000000">backward</text>
</g>
<!-- A_lm&#45;&gt;backward -->
<g id="edge48" class="edge">
<title>A_lm&#45;&gt;backward</title>
<path fill="none" stroke="#00ff00" stroke-width=".4712" stroke-dasharray="1,5" d="M1767.3986,-416.3137C1753.753,-410.5791 1734.6097,-403.4216 1717,-399.9727 1624.4512,-381.8466 941.7589,-423.9724 869,-363.9727 823.9062,-326.7866 823.3183,-164.5306 808,-108.1249 805.5579,-99.1325 802.7715,-89.5649 800.0214,-80.4384"/>
<polygon fill="#00ff00" stroke="#00ff00" stroke-width=".4712" points="803.3338,-79.3011 797.0696,-70.7565 796.638,-81.3425 803.3338,-79.3011"/>
</g>
<!-- no_turn -->
<g id="node31" class="node">
<title>no_turn</title>
<ellipse fill="#add8e6" stroke="#000000" cx="2660" cy="-228.9777" rx="31.2258" ry="31.2258"/>
<text text-anchor="middle" x="2660" y="-226.7777" font-family="Times,serif" font-size="9.00" fill="#000000">no_turn</text>
</g>
<!-- A_lm&#45;&gt;no_turn -->
<g id="edge21" class="edge">
<title>A_lm&#45;&gt;no_turn</title>
<path fill="none" stroke="#00ff00" stroke-width=".259" d="M1793.6196,-415.6754C1798.9608,-410.0433 1806.6217,-403.2643 1815,-399.9727 1903.1893,-365.3254 2601.4303,-432.3714 2667,-363.9727 2691.0022,-338.9349 2684.9576,-297.8135 2675.5594,-267.5241"/>
<polygon fill="#00ff00" stroke="#00ff00" stroke-width=".259" points="2678.7685,-266.0835 2672.2822,-257.7062 2672.1286,-268.3 2678.7685,-266.0835"/>
</g>
<!-- ccw -->
<g id="node32" class="node">
<title>ccw</title>
<ellipse fill="#add8e6" stroke="#000000" cx="2258" cy="-228.9777" rx="21.8409" ry="21.8409"/>
<text text-anchor="middle" x="2258" y="-226.7777" font-family="Times,serif" font-size="9.00" fill="#000000">ccw</text>
</g>
<!-- A_lm&#45;&gt;ccw -->
<g id="edge16" class="edge">
<title>A_lm&#45;&gt;ccw</title>
<path fill="none" stroke="#ff0000" stroke-width=".5899" stroke-dasharray="1,5" d="M1794.2582,-415.5494C1799.6341,-410.1621 1807.0974,-403.6986 1815,-399.9727 1898.276,-360.71 1944.7997,-418.4774 2019,-363.9727 2044.6777,-345.1108 2027.2921,-320.4484 2052,-300.333 2097.8288,-263.0226 2124.4841,-284.5898 2180,-264.333 2196.455,-258.3289 2214.2842,-250.3632 2228.7377,-243.5129"/>
<polygon fill="#ff0000" stroke="#ff0000" stroke-width=".5899" points="2230.6524,-246.4759 2238.1464,-238.9865 2227.6176,-240.1679 2230.6524,-246.4759"/>
</g>
<!-- 6316 -->
<g id="node47" class="node">
<title>6316</title>
<ellipse fill="#ffffff" stroke="#000000" cx="1405" cy="-332.1528" rx="25" ry="25"/>
<text text-anchor="middle" x="1405" y="-329.9528" font-family="Times,serif" font-size="9.00" fill="#000000">6316</text>
</g>
<!-- A_lm&#45;&gt;6316 -->
<g id="edge152" class="edge">
<title>A_lm&#45;&gt;6316</title>
<path fill="none" stroke="#ff0000" stroke-width=".2112" d="M1767.2955,-416.7842C1753.6001,-411.2773 1734.4395,-404.1988 1717,-399.9727 1598.0588,-371.1495 1556.3509,-412.5015 1444,-363.9727 1439.4274,-361.9976 1434.9575,-359.3245 1430.7714,-356.3622"/>
<polygon fill="#ff0000" stroke="#ff0000" stroke-width=".2112" points="1432.6704,-353.4044 1422.6352,-350.0064 1428.3612,-358.9207 1432.6704,-353.4044"/>
</g>
<!-- A_wall -->
<g id="node3" class="node">
<title>A_wall</title>
<polygon fill="#d3d3d3" stroke="#000000" points="1567.5,-341.1528 1524.5,-341.1528 1524.5,-323.1528 1567.5,-323.1528 1567.5,-341.1528"/>
<text text-anchor="middle" x="1546" y="-329.9528" font-family="Times,serif" font-size="9.00" fill="#000000">A_wall</text>
</g>
<!-- A_wall&#45;&gt;no_move -->
<g id="edge84" class="edge">
<title>A_wall&#45;&gt;no_move</title>
<path fill="none" stroke="#ff0000" stroke-width=".6698" d="M1538.1906,-322.9967C1526.9262,-309.7899 1505.5084,-284.6787 1487.6395,-263.7284"/>
<polygon fill="#ff0000" stroke="#ff0000" stroke-width=".6698" points="1490.1458,-261.2734 1480.9935,-255.9363 1484.8199,-265.816 1490.1458,-261.2734"/>
</g>
<!-- B_agent -->
<g id="node4" class="node">
<title>B_agent</title>
<polygon fill="#d3d3d3" stroke="#000000" points="3204,-759.9626 3158,-759.9626 3158,-741.9626 3204,-741.9626 3204,-759.9626"/>
<text text-anchor="middle" x="3181" y="-748.7626" font-family="Times,serif" font-size="9.00" fill="#000000">B_agent</text>
</g>
<!-- B_agent&#45;&gt;no_move -->
<g id="edge31" class="edge">
<title>B_agent&#45;&gt;no_move</title>
<path fill="none" stroke="#00ff00" stroke-width=".4174" stroke-dasharray="1,5" d="M3157.593,-750.5236C3013.1672,-747.7384 2246.0513,-731.8128 2145,-705.9626 1894.9565,-641.9982 1792.0997,-645.3162 1624,-449.4701 1578.7362,-396.7351 1620.046,-354.8935 1577,-300.333 1557.2865,-275.3464 1526.2247,-257.1449 1500.7791,-245.3803"/>
<polygon fill="#00ff00" stroke="#00ff00" stroke-width=".4174" points="1501.897,-242.0471 1491.3372,-241.1858 1499.0551,-248.4443 1501.897,-242.0471"/>
</g>
<!-- B_agent&#45;&gt;right -->
<g id="edge59" class="edge">
<title>B_agent&#45;&gt;right</title>
<path fill="none" stroke="#ff0000" stroke-width=".1199" stroke-dasharray="1,5" d="M3204.3858,-749.2619C3260.6674,-744.8034 3401.8968,-731.3316 3441,-705.9626 3490.5067,-673.844 3515,-654.7292 3515,-595.7163 3515,-595.7163 3515,-595.7163 3515,-228.9777 3515,-96.6934 3371.2607,-140.5029 3243,-108.1249 3065.7367,-63.3768 2482.4345,-41.8837 2335.7212,-37.1064"/>
<polygon fill="#ff0000" stroke="#ff0000" stroke-width=".1199" points="2335.6475,-33.6023 2325.5401,-36.779 2335.4225,-40.5987 2335.6475,-33.6023"/>
</g>
<!-- left -->
<g id="node28" class="node">
<title>left</title>
<ellipse fill="#add8e6" stroke="#000000" cx="3113" cy="-228.9777" rx="19.6" ry="19.6"/>
<text text-anchor="middle" x="3113" y="-226.7777" font-family="Times,serif" font-size="9.00" fill="#000000">left</text>
</g>
<!-- B_agent&#45;&gt;left -->
<g id="edge1" class="edge">
<title>B_agent&#45;&gt;left</title>
<path fill="none" stroke="#ff0000" stroke-width=".1124" stroke-dasharray="1,5" d="M3204.2266,-749.683C3274.0059,-744.4707 3477,-718.7358 3477,-595.7163 3477,-595.7163 3477,-595.7163 3477,-424.7214 3477,-367.8525 3489.2222,-338.4297 3447,-300.333 3402.5495,-260.2257 3237.0203,-282.5849 3180,-264.333 3165.5265,-259.7002 3150.4691,-252.0468 3138.3034,-245.0434"/>
<polygon fill="#ff0000" stroke="#ff0000" stroke-width=".1124" points="3140.0045,-241.9829 3129.6214,-239.8753 3136.424,-247.9979 3140.0045,-241.9829"/>
</g>
<!-- B_agent&#45;&gt;no_turn -->
<g id="edge15" class="edge">
<title>B_agent&#45;&gt;no_turn</title>
<path fill="none" stroke="#00ff00" stroke-width=".4683" d="M3175.7622,-741.959C3142.0763,-684.3089 2954.5321,-367.2298 2866,-300.333 2816.2733,-262.7585 2745.2827,-243.9988 2700.96,-235.396"/>
<polygon fill="#00ff00" stroke="#00ff00" stroke-width=".4683" points="2701.5817,-231.9516 2691.1106,-233.5664 2700.3032,-238.8339 2701.5817,-231.9516"/>
</g>
<!-- B_agent&#45;&gt;cw -->
<g id="edge52" class="edge">
<title>B_agent&#45;&gt;cw</title>
<path fill="none" stroke="#00ff00" stroke-width=".1645" d="M3157.8759,-750.9015C2989.6123,-750.3656 1951.2003,-745.4784 1639,-705.9626 1510.9472,-689.7546 586.5658,-550.3134 506,-449.4701 493.5143,-433.8419 485.9691,-336.0803 508,-300.333 531.3439,-262.4554 582.105,-243.5734 614.2996,-235.0603"/>
<polygon fill="#00ff00" stroke="#00ff00" stroke-width=".1645" points="615.1752,-238.4493 624.0417,-232.6498 613.4938,-231.6542 615.1752,-238.4493"/>
</g>
<!-- 4704 -->
<g id="node59" class="node">
<title>4704</title>
<ellipse fill="#ffffff" stroke="#000000" cx="2179" cy="-681.2138" rx="25" ry="25"/>
<text text-anchor="middle" x="2179" y="-679.0138" font-family="Times,serif" font-size="9.00" fill="#000000">4704</text>
</g>
<!-- B_agent&#45;&gt;4704 -->
<g id="edge137" class="edge">
<title>B_agent&#45;&gt;4704</title>
<path fill="none" stroke="#00ff00" stroke-width=".3123" stroke-dasharray="1,5" d="M3157.7068,-749.3411C3025.8638,-740.1636 2373.4678,-694.7506 2214.1442,-683.6602"/>
<polygon fill="#00ff00" stroke="#00ff00" stroke-width=".3123" points="2214.174,-680.1539 2203.9551,-682.9509 2213.6879,-687.137 2214.174,-680.1539"/>
</g>
<!-- 3702 -->
<g id="node65" class="node">
<title>3702</title>
<ellipse fill="#ffffff" stroke="#000000" cx="2257" cy="-132.8736" rx="25" ry="25"/>
<text text-anchor="middle" x="2257" y="-130.6736" font-family="Times,serif" font-size="9.00" fill="#000000">3702</text>
</g>
<!-- B_agent&#45;&gt;3702 -->
<g id="edge100" class="edge">
<title>B_agent&#45;&gt;3702</title>
<path fill="none" stroke="#ff0000" stroke-width=".195" stroke-dasharray="1,5" d="M3185.3534,-741.6339C3208.588,-690.3255 3312.7894,-439.7342 3200,-300.333 3182.1343,-278.2521 2728.0452,-198.1189 2700,-193.6224 2553.0149,-170.056 2513.8528,-181.9994 2367,-157.6224 2341.3278,-153.3609 2312.6536,-146.851 2291.019,-141.5773"/>
<polygon fill="#ff0000" stroke="#ff0000" stroke-width=".195" points="2291.8573,-138.1792 2281.3097,-139.1785 2290.1784,-144.9749 2291.8573,-138.1792"/>
</g>
<!-- B_lm -->
<g id="node5" class="node">
<title>B_lm</title>
<polygon fill="#d3d3d3" stroke="#000000" points="1860.5,-433.7214 1823.5,-433.7214 1823.5,-415.7214 1860.5,-415.7214 1860.5,-433.7214"/>
<text text-anchor="middle" x="1842" y="-422.5214" font-family="Times,serif" font-size="9.00" fill="#000000">B_lm</text>
</g>
<!-- B_lm&#45;&gt;no_move -->
<g id="edge74" class="edge">
<title>B_lm&#45;&gt;no_move</title>
<path fill="none" stroke="#00ff00" stroke-width=".1351" d="M1832.5204,-415.559C1827.2621,-410.6817 1820.49,-404.7267 1814,-399.9727 1744.5834,-349.1239 1727.4125,-333.4678 1648,-300.333 1588.3105,-275.4277 1565.5851,-291.7355 1507,-264.333 1502.5993,-262.2747 1498.1872,-259.804 1493.9119,-257.1375"/>
<polygon fill="#00ff00" stroke="#00ff00" stroke-width=".1351" points="1495.6401,-254.0835 1485.3756,-251.4585 1491.7628,-259.9116 1495.6401,-254.0835"/>
</g>
<!-- B_lm&#45;&gt;forward -->
<g id="edge72" class="edge">
<title>B_lm&#45;&gt;forward</title>
<path fill="none" stroke="#ff0000" stroke-width=".4178" d="M1851.1232,-415.5695C1856.1884,-410.6953 1862.7194,-404.7398 1869,-399.9727 1891.8346,-382.6406 1919.2399,-365.6043 1940.8583,-352.942"/>
<polygon fill="#ff0000" stroke="#ff0000" stroke-width=".4178" points="1942.842,-355.8377 1949.7388,-347.795 1939.3319,-349.7813 1942.842,-355.8377"/>
</g>
<!-- B_lm&#45;&gt;backward -->
<g id="edge64" class="edge">
<title>B_lm&#45;&gt;backward</title>
<path fill="none" stroke="#00ff00" stroke-width=".5549" d="M1834.7023,-415.6873C1829.5703,-410.0603 1822.1791,-403.2824 1814,-399.9727 1649.86,-333.5517 1173.383,-448.8832 1018,-363.9727 958.1178,-331.2494 854.2048,-156.9172 808.5797,-76.6157"/>
<polygon fill="#00ff00" stroke="#00ff00" stroke-width=".5549" points="811.5416,-74.7429 803.5702,-67.7638 805.4495,-78.1906 811.5416,-74.7429"/>
</g>
<!-- B_lm&#45;&gt;ccw -->
<g id="edge69" class="edge">
<title>B_lm&#45;&gt;ccw</title>
<path fill="none" stroke="#00ff00" stroke-width=".2198" stroke-dasharray="1,5" d="M1849.595,-415.5924C1854.5649,-410.2212 1861.5093,-403.7596 1869,-399.9727 1942.9759,-362.5738 1981.7433,-407.9625 2052,-363.9727 2082.0272,-345.1717 2072.3131,-322.4362 2100,-300.333 2130.4707,-276.0075 2144.4662,-280.3814 2180,-264.333 2195.9636,-257.1233 2213.7537,-249.0616 2228.3082,-242.4591"/>
<polygon fill="#00ff00" stroke="#00ff00" stroke-width=".2198" points="2230.1452,-245.469 2237.8052,-238.1496 2227.2526,-239.0946 2230.1452,-245.469"/>
</g>
<!-- B_wall -->
<g id="node6" class="node">
<title>B_wall</title>
<polygon fill="#d3d3d3" stroke="#000000" points="2385,-433.7214 2343,-433.7214 2343,-415.7214 2385,-415.7214 2385,-433.7214"/>
<text text-anchor="middle" x="2364" y="-422.5214" font-family="Times,serif" font-size="9.00" fill="#000000">B_wall</text>
</g>
<!-- B_wall&#45;&gt;right -->
<g id="edge57" class="edge">
<title>B_wall&#45;&gt;right</title>
<path fill="none" stroke="#ff0000" stroke-width=".3599" d="M2385.2347,-423.9319C2480.0225,-420.1941 2861.3402,-402.8155 2896,-363.9727 2914.8313,-342.8686 2899.2473,-328.4303 2896,-300.333 2890.4075,-251.944 2901.1068,-231.9154 2871,-193.6224 2818.9735,-127.4496 2781.815,-134.8675 2702,-108.1249 2570.5839,-64.093 2405.3554,-45.2068 2335.5618,-38.8006"/>
<polygon fill="#ff0000" stroke="#ff0000" stroke-width=".3599" points="2335.8566,-35.3131 2325.5852,-37.911 2335.2348,-42.2854 2335.8566,-35.3131"/>
</g>
<!-- B_wall&#45;&gt;left -->
<g id="edge50" class="edge">
<title>B_wall&#45;&gt;left</title>
<path fill="none" stroke="#ff0000" stroke-width=".704" d="M2385.293,-423.7571C2491.0636,-418.8308 2957.1156,-395.4732 3013,-363.9727 3055.8284,-339.8314 3085.6116,-288.9542 3100.9604,-257.016"/>
<polygon fill="#ff0000" stroke="#ff0000" stroke-width=".704" points="3104.22,-258.3065 3105.2588,-247.7627 3097.8716,-255.3574 3104.22,-258.3065"/>
</g>
<!-- B_wall&#45;&gt;forward -->
<g id="edge27" class="edge">
<title>B_wall&#45;&gt;forward</title>
<path fill="none" stroke="#00ff00" stroke-width=".1326" d="M2355.3812,-415.5932C2349.7913,-410.2224 2342.0673,-403.7609 2334,-399.9727 2305.7189,-386.6926 2106.9956,-353.1901 2019.3554,-338.8424"/>
<polygon fill="#00ff00" stroke="#00ff00" stroke-width=".1326" points="2019.9186,-335.3881 2009.4853,-337.2307 2018.7905,-342.2966 2019.9186,-335.3881"/>
</g>
<!-- B_wall&#45;&gt;backward -->
<g id="edge3" class="edge">
<title>B_wall&#45;&gt;backward</title>
<path fill="none" stroke="#ff0000" stroke-width=".188" stroke-dasharray="1,5" d="M2356.0717,-415.6318C2350.5269,-409.9813 2342.5974,-403.1981 2334,-399.9727 2200.4757,-349.8793 1177.9818,-428.8857 1051,-363.9727 1019.1142,-347.6726 878.3073,-135.3125 855,-108.1249 843.7037,-94.9479 830.6791,-81.0457 819.01,-69.0049"/>
<polygon fill="#ff0000" stroke="#ff0000" stroke-width=".188" points="821.4375,-66.4812 811.947,-61.7715 816.4291,-71.3716 821.4375,-66.4812"/>
</g>
<!-- B_wall&#45;&gt;ccw -->
<g id="edge36" class="edge">
<title>B_wall&#45;&gt;ccw</title>
<path fill="none" stroke="#00ff00" stroke-width=".1497" stroke-dasharray="1,5" d="M2364.871,-415.4914C2366.4709,-393.7053 2367.8531,-338.0827 2345,-300.333 2331.0051,-277.2157 2316.816,-281.5657 2296,-264.333 2291.1976,-260.3573 2286.2154,-255.9482 2281.5014,-251.6302"/>
<polygon fill="#00ff00" stroke="#00ff00" stroke-width=".1497" points="2283.6009,-248.8024 2273.9003,-244.5422 2278.8269,-253.9219 2283.6009,-248.8024"/>
</g>
<!-- 5782 -->
<g id="node39" class="node">
<title>5782</title>
<ellipse fill="#ffffff" stroke="#000000" cx="2311" cy="-332.1528" rx="25" ry="25"/>
<text text-anchor="middle" x="2311" y="-329.9528" font-family="Times,serif" font-size="9.00" fill="#000000">5782</text>
</g>
<!-- B_wall&#45;&gt;5782 -->
<g id="edge135" class="edge">
<title>B_wall&#45;&gt;5782</title>
<path fill="none" stroke="#ff0000" stroke-width=".207" d="M2358.7244,-415.5071C2351.7041,-403.2456 2338.9485,-380.9671 2328.3899,-362.5256"/>
<polygon fill="#ff0000" stroke="#ff0000" stroke-width=".207" points="2331.4239,-360.7806 2323.4178,-353.8414 2325.3492,-364.2588 2331.4239,-360.7806"/>
</g>
<!-- 2471 -->
<g id="node44" class="node">
<title>2471</title>
<ellipse fill="#ffffff" stroke="#000000" cx="577" cy="-332.1528" rx="25" ry="25"/>
<text text-anchor="middle" x="577" y="-329.9528" font-family="Times,serif" font-size="9.00" fill="#000000">2471</text>
</g>
<!-- B_wall&#45;&gt;2471 -->
<g id="edge88" class="edge">
<title>B_wall&#45;&gt;2471</title>
<path fill="none" stroke="#ff0000" stroke-width=".2697" stroke-dasharray="1,5" d="M2356.0777,-415.6156C2350.5355,-409.9583 2342.6066,-403.1737 2334,-399.9727 2166.3945,-337.6358 902.5984,-384.8601 725,-363.9727 685.3071,-359.3044 640.5472,-348.9541 610.7465,-341.3196"/>
<polygon fill="#ff0000" stroke="#ff0000" stroke-width=".2697" points="611.4215,-337.8788 600.8623,-338.7463 609.6578,-344.653 611.4215,-337.8788"/>
</g>
<!-- C_agent -->
<g id="node7" class="node">
<title>C_agent</title>
<polygon fill="#d3d3d3" stroke="#000000" points="1106,-341.1528 1060,-341.1528 1060,-323.1528 1106,-323.1528 1106,-341.1528"/>
<text text-anchor="middle" x="1083" y="-329.9528" font-family="Times,serif" font-size="9.00" fill="#000000">C_agent</text>
</g>
<!-- C_agent&#45;&gt;right -->
<g id="edge43" class="edge">
<title>C_agent&#45;&gt;right</title>
<path fill="none" stroke="#ff0000" stroke-width=".361" d="M1102.6988,-323.1045C1140.378,-305.7384 1219.3575,-269.0301 1224,-264.333 1248.3795,-239.6672 1233.1782,-218.8272 1257,-193.6224 1280.2196,-169.0547 1295.9374,-176.4693 1324,-157.6224 1352.6981,-138.3486 1351.9487,-121.0776 1384,-108.1249 1467.3192,-74.4536 2112.4843,-44.3375 2268.2402,-37.5077"/>
<polygon fill="#ff0000" stroke="#ff0000" stroke-width=".361" points="2268.7563,-40.9887 2278.5944,-37.0565 2268.4515,-33.9953 2268.7563,-40.9887"/>
</g>
<!-- C_agent&#45;&gt;cw -->
<g id="edge85" class="edge">
<title>C_agent&#45;&gt;cw</title>
<path fill="none" stroke="#ff0000" stroke-width=".364" stroke-dasharray="1,5" d="M1064.6008,-323.0704C1049.6593,-316.0091 1027.8808,-306.4209 1008,-300.333 886.0243,-262.9817 734.9219,-240.7827 672.3006,-232.5951"/>
<polygon fill="#ff0000" stroke="#ff0000" stroke-width=".364" points="672.7084,-229.1188 662.3436,-231.3145 671.8154,-236.0616 672.7084,-229.1188"/>
</g>
<!-- 6035 -->
<g id="node38" class="node">
<title>6035</title>
<ellipse fill="#ffffff" stroke="#000000" cx="1123" cy="-228.9777" rx="25" ry="25"/>
<text text-anchor="middle" x="1123" y="-226.7777" font-family="Times,serif" font-size="9.00" fill="#000000">6035</text>
</g>
<!-- C_agent&#45;&gt;6035 -->
<g id="edge147" class="edge">
<title>C_agent&#45;&gt;6035</title>
<path fill="none" stroke="#ff0000" stroke-width=".3225" d="M1086.5497,-322.9967C1091.8556,-309.311 1102.1174,-282.8418 1110.4044,-261.4664"/>
<polygon fill="#ff0000" stroke="#ff0000" stroke-width=".3225" points="1113.6966,-262.657 1114.0481,-252.068 1107.17,-260.1266 1113.6966,-262.657"/>
</g>
<!-- C_agent&#45;&gt;424 -->
<g id="edge95" class="edge">
<title>C_agent&#45;&gt;424</title>
<path fill="none" stroke="#ff0000" stroke-width=".1519" d="M1062.9508,-323.0724C992.3527,-291.098 755.0646,-183.6285 672.007,-146.0111"/>
<polygon fill="#ff0000" stroke="#ff0000" stroke-width=".1519" points="673.2174,-142.7171 662.6642,-141.7797 670.3294,-149.0936 673.2174,-142.7171"/>
</g>
<!-- 3949 -->
<g id="node63" class="node">
<title>3949</title>
<ellipse fill="#ffffff" stroke="#000000" cx="1149" cy="-132.8736" rx="25" ry="25"/>
<text text-anchor="middle" x="1149" y="-130.6736" font-family="Times,serif" font-size="9.00" fill="#000000">3949</text>
</g>
<!-- C_agent&#45;&gt;3949 -->
<g id="edge102" class="edge">
<title>C_agent&#45;&gt;3949</title>
<path fill="none" stroke="#00ff00" stroke-width=".17" d="M1081.2122,-322.8995C1077.2148,-299.8777 1069.3689,-238.6368 1089,-193.6224 1095.8539,-177.9063 1108.7625,-163.9907 1120.8555,-153.4569"/>
<polygon fill="#00ff00" stroke="#00ff00" stroke-width=".17" points="1123.1397,-156.1098 1128.6128,-147.0381 1118.6771,-150.7167 1123.1397,-156.1098"/>
</g>
<!-- C_lm -->
<g id="node8" class="node">
<title>C_lm</title>
<polygon fill="#d3d3d3" stroke="#000000" points="724.5,-433.7214 687.5,-433.7214 687.5,-415.7214 724.5,-415.7214 724.5,-433.7214"/>
<text text-anchor="middle" x="706" y="-422.5214" font-family="Times,serif" font-size="9.00" fill="#000000">C_lm</text>
</g>
<!-- C_lm&#45;&gt;forward -->
<g id="edge34" class="edge">
<title>C_lm&#45;&gt;forward</title>
<path fill="none" stroke="#00ff00" stroke-width="1.8424" d="M724.5663,-424.287C854.4639,-421.1665 1628.7836,-401.22 1861,-363.9727 1886.9548,-359.8095 1915.4277,-352.1366 1937.7863,-345.3686"/>
<polygon fill="#00ff00" stroke="#00ff00" stroke-width="1.8424" points="1939.076,-348.6335 1947.5979,-342.3385 1937.0104,-341.9452 1939.076,-348.6335"/>
</g>
<!-- C_lm&#45;&gt;backward -->
<g id="edge29" class="edge">
<title>C_lm&#45;&gt;backward</title>
<path fill="none" stroke="#00ff00" stroke-width=".1959" d="M707.1501,-415.6291C709.8081,-395.0275 716.7823,-343.2446 725,-300.333 739.8206,-222.9427 761.3308,-133.806 774.4519,-81.3491"/>
<polygon fill="#00ff00" stroke="#00ff00" stroke-width=".1959" points="777.919,-81.9125 776.9598,-71.3612 771.1298,-80.2077 777.919,-81.9125"/>
</g>
<!-- C_lm&#45;&gt;cw -->
<g id="edge17" class="edge">
<title>C_lm&#45;&gt;cw</title>
<path fill="none" stroke="#ff0000" stroke-width=".2392" d="M703.0459,-415.5428C693.9958,-387.4238 666.3959,-301.6698 651.981,-256.882"/>
<polygon fill="#ff0000" stroke="#ff0000" stroke-width=".2392" points="655.2629,-255.6549 648.8674,-247.2081 648.5995,-257.7996 655.2629,-255.6549"/>
</g>
<!-- C_wall -->
<g id="node9" class="node">
<title>C_wall</title>
<polygon fill="#d3d3d3" stroke="#000000" points="2325,-433.7214 2283,-433.7214 2283,-415.7214 2325,-415.7214 2325,-433.7214"/>
<text text-anchor="middle" x="2304" y="-422.5214" font-family="Times,serif" font-size="9.00" fill="#000000">C_wall</text>
</g>
<!-- C_wall&#45;&gt;right -->
<g id="edge55" class="edge">
<title>C_wall&#45;&gt;right</title>
<path fill="none" stroke="#00ff00" stroke-width="1.2495" d="M2312.4684,-415.246C2318.0016,-409.7444 2325.7189,-403.2675 2334,-399.9727 2389.0491,-378.0702 2825.5455,-407.2572 2866,-363.9727 3038.781,-179.1045 2480.4552,-67.1687 2335.4963,-41.6643"/>
<polygon fill="#00ff00" stroke="#00ff00" stroke-width="1.2495" points="2335.8595,-38.175 2325.408,-39.9121 2334.6616,-45.0718 2335.8595,-38.175"/>
</g>
<!-- C_wall&#45;&gt;left -->
<g id="edge28" class="edge">
<title>C_wall&#45;&gt;left</title>
<path fill="none" stroke="#ff0000" stroke-width=".4879" d="M2312.4638,-415.2345C2317.9953,-409.7286 2325.7124,-403.2512 2334,-399.9727 2567.9774,-307.4125 2659.6205,-441.4983 2899,-363.9727 2939.536,-350.8446 3041.5277,-280.0909 3088.5544,-246.5881"/>
<polygon fill="#ff0000" stroke="#ff0000" stroke-width=".4879" points="3090.8312,-249.2629 3096.9308,-240.6 3086.7603,-243.5683 3090.8312,-249.2629"/>
</g>
<!-- C_wall&#45;&gt;forward -->
<g id="edge40" class="edge">
<title>C_wall&#45;&gt;forward</title>
<path fill="none" stroke="#ff0000" stroke-width=".1622" stroke-dasharray="1,5" d="M2282.6102,-418.6477C2229.0101,-403.4278 2088.2618,-363.462 2018.4536,-343.6398"/>
<polygon fill="#ff0000" stroke="#ff0000" stroke-width=".1622" points="2019.2634,-340.2314 2008.6876,-340.8667 2017.3513,-346.9652 2019.2634,-340.2314"/>
</g>
<!-- C_wall&#45;&gt;no_turn -->
<g id="edge47" class="edge">
<title>C_wall&#45;&gt;no_turn</title>
<path fill="none" stroke="#ff0000" stroke-width=".188" d="M2312.5044,-415.3345C2318.0512,-409.8663 2325.7701,-403.3933 2334,-399.9727 2409.4669,-368.6061 2645.1124,-424.5239 2700,-363.9727 2725.5503,-335.7859 2705.2493,-291.9762 2685.4044,-261.9578"/>
<polygon fill="#ff0000" stroke="#ff0000" stroke-width=".188" points="2688.137,-259.7545 2679.5855,-253.4997 2682.37,-263.7221 2688.137,-259.7545"/>
</g>
<!-- C_wall&#45;&gt;ccw -->
<g id="edge14" class="edge">
<title>C_wall&#45;&gt;ccw</title>
<path fill="none" stroke="#00ff00" stroke-width=".15" stroke-dasharray="1,5" d="M2298.9528,-415.5558C2292.7763,-403.9191 2282.4675,-383.0561 2277,-363.9727 2267.1594,-329.6257 2262.3177,-288.8444 2260.0011,-261.1609"/>
<polygon fill="#00ff00" stroke="#00ff00" stroke-width=".15" points="2263.4664,-260.5752 2259.2063,-250.8746 2256.4872,-261.1146 2263.4664,-260.5752"/>
</g>
<!-- C_wall&#45;&gt;cw -->
<g id="edge13" class="edge">
<title>C_wall&#45;&gt;cw</title>
<path fill="none" stroke="#ff0000" stroke-width=".5437" stroke-dasharray="1,5" d="M2282.7101,-418.4314C2261.4686,-412.47 2227.7941,-403.8659 2198,-399.9727 2067.9336,-382.9768 1141.2993,-408.7321 1018,-363.9727 974.9657,-348.3506 978.2963,-320.097 937,-300.333 872.8163,-269.6155 850.1363,-281.164 781,-264.333 743.0716,-255.0995 699.4545,-243.8122 671.5812,-236.5135"/>
<polygon fill="#ff0000" stroke="#ff0000" stroke-width=".5437" points="672.2749,-233.0771 661.714,-233.9241 670.4981,-239.8478 672.2749,-233.0771"/>
</g>
<!-- 4621 -->
<g id="node37" class="node">
<title>4621</title>
<ellipse fill="#ffffff" stroke="#000000" cx="903" cy="-332.1528" rx="25" ry="25"/>
<text text-anchor="middle" x="903" y="-329.9528" font-family="Times,serif" font-size="9.00" fill="#000000">4621</text>
</g>
<!-- C_wall&#45;&gt;4621 -->
<g id="edge108" class="edge">
<title>C_wall&#45;&gt;4621</title>
<path fill="none" stroke="#ff0000" stroke-width=".7663" stroke-dasharray="1,5" d="M2282.7109,-418.4252C2261.47,-412.4593 2227.7959,-403.8517 2198,-399.9727 1929.4811,-365.015 1244.7958,-420.6084 980,-363.9727 964.5205,-360.6618 948.2041,-354.3667 934.5951,-348.2438"/>
<polygon fill="#ff0000" stroke="#ff0000" stroke-width=".7663" points="935.7564,-344.9232 925.2149,-343.861 932.7931,-351.2651 935.7564,-344.9232"/>
</g>
<!-- 3391 -->
<g id="node52" class="node">
<title>3391</title>
<ellipse fill="#ffffff" stroke="#000000" cx="2205" cy="-332.1528" rx="25" ry="25"/>
<text text-anchor="middle" x="2205" y="-329.9528" font-family="Times,serif" font-size="9.00" fill="#000000">3391</text>
</g>
<!-- C_wall&#45;&gt;3391 -->
<g id="edge97" class="edge">
<title>C_wall&#45;&gt;3391</title>
<path fill="none" stroke="#ff0000" stroke-width=".5127" stroke-dasharray="1,5" d="M2294.1456,-415.5071C2279.4873,-401.8011 2251.4434,-375.5791 2230.7078,-356.1906"/>
<polygon fill="#ff0000" stroke="#ff0000" stroke-width=".5127" points="2232.8565,-353.408 2223.1617,-349.1347 2228.0757,-358.5211 2232.8565,-353.408"/>
</g>
<!-- D_agent -->
<g id="node10" class="node">
<title>D_agent</title>
<polygon fill="#d3d3d3" stroke="#000000" points="2657.5,-341.1528 2610.5,-341.1528 2610.5,-323.1528 2657.5,-323.1528 2657.5,-341.1528"/>
<text text-anchor="middle" x="2634" y="-329.9528" font-family="Times,serif" font-size="9.00" fill="#000000">D_agent</text>
</g>
<!-- D_agent&#45;&gt;left -->
<g id="edge35" class="edge">
<title>D_agent&#45;&gt;left</title>
<path fill="none" stroke="#ff0000" stroke-width=".5149" stroke-dasharray="1,5" d="M2657.6429,-324.5561C2679.6064,-317.6652 2713.3002,-307.5153 2743,-300.333 2868.3282,-270.0252 3019.9961,-244.0891 3083.1549,-233.7585"/>
<polygon fill="#ff0000" stroke="#ff0000" stroke-width=".5149" points="3083.8968,-237.184 3093.2055,-232.1245 3082.7734,-230.2747 3083.8968,-237.184"/>
</g>
<!-- D_agent&#45;&gt;no_turn -->
<g id="edge18" class="edge">
<title>D_agent&#45;&gt;no_turn</title>
<path fill="none" stroke="#ff0000" stroke-width=".2016" stroke-dasharray="1,5" d="M2636.3073,-322.9967C2639.348,-310.9304 2644.8929,-288.9269 2649.8543,-269.2387"/>
<polygon fill="#ff0000" stroke="#ff0000" stroke-width=".2016" points="2653.2544,-270.0692 2652.3041,-259.5171 2646.4666,-268.3586 2653.2544,-270.0692"/>
</g>
<!-- D_agent&#45;&gt;ccw -->
<g id="edge25" class="edge">
<title>D_agent&#45;&gt;ccw</title>
<path fill="none" stroke="#ff0000" stroke-width=".1946" stroke-dasharray="1,5" d="M2626.8962,-322.8799C2620.8165,-315.6116 2611.4142,-305.8364 2601,-300.333 2546.669,-271.6217 2364.4149,-243.7797 2290.0273,-233.322"/>
<polygon fill="#ff0000" stroke="#ff0000" stroke-width=".1946" points="2290.2499,-229.8194 2279.8629,-231.9072 2289.2848,-236.7525 2290.2499,-229.8194"/>
</g>
<!-- D_agent&#45;&gt;cw -->
<g id="edge66" class="edge">
<title>D_agent&#45;&gt;cw</title>
<path fill="none" stroke="#ff0000" stroke-width=".4954" stroke-dasharray="1,5" d="M2627.6134,-322.9728C2621.704,-315.3376 2612.1634,-304.9937 2601,-300.333 2523.4625,-267.9613 1172.9126,-268.6547 1089,-264.333 931.4732,-256.2202 743.2143,-238.7307 672.1066,-231.846"/>
<polygon fill="#ff0000" stroke="#ff0000" stroke-width=".4954" points="672.394,-228.3575 662.1019,-230.8722 671.7158,-235.3246 672.394,-228.3575"/>
</g>
<!-- D_lm -->
<g id="node11" class="node">
<title>D_lm</title>
<polygon fill="#d3d3d3" stroke="#000000" points="2856.5,-341.1528 2819.5,-341.1528 2819.5,-323.1528 2856.5,-323.1528 2856.5,-341.1528"/>
<text text-anchor="middle" x="2838" y="-329.9528" font-family="Times,serif" font-size="9.00" fill="#000000">D_lm</text>
</g>
<!-- D_lm&#45;&gt;left -->
<g id="edge81" class="edge">
<title>D_lm&#45;&gt;left</title>
<path fill="none" stroke="#00ff00" stroke-width=".6965" d="M2856.9019,-325.0612C2904.3106,-307.2743 3028.482,-260.6874 3084.6641,-239.6088"/>
<polygon fill="#00ff00" stroke="#00ff00" stroke-width=".6965" points="3086.1962,-242.7723 3094.3295,-235.9825 3083.7373,-236.2184 3086.1962,-242.7723"/>
</g>
<!-- D_lm&#45;&gt;ccw -->
<g id="edge91" class="edge">
<title>D_lm&#45;&gt;ccw</title>
<path fill="none" stroke="#00ff00" stroke-width=".2783" stroke-dasharray="1,5" d="M2832.8576,-322.9731C2828.1774,-315.5543 2820.5489,-305.5217 2811,-300.333 2764.9545,-275.3132 2401.1479,-241.5669 2290.0853,-231.7578"/>
<polygon fill="#00ff00" stroke="#00ff00" stroke-width=".2783" points="2290.12,-228.2475 2279.8521,-230.8588 2289.5073,-235.2206 2290.12,-228.2475"/>
</g>
<!-- D_wall -->
<g id="node12" class="node">
<title>D_wall</title>
<polygon fill="#d3d3d3" stroke="#000000" points="1316.5,-759.9626 1273.5,-759.9626 1273.5,-741.9626 1316.5,-741.9626 1316.5,-759.9626"/>
<text text-anchor="middle" x="1295" y="-748.7626" font-family="Times,serif" font-size="9.00" fill="#000000">D_wall</text>
</g>
<!-- D_wall&#45;&gt;no_move -->
<g id="edge49" class="edge">
<title>D_wall&#45;&gt;no_move</title>
<path fill="none" stroke="#00ff00" stroke-width=".6475" d="M1294.2944,-741.9089C1290.9133,-693.0418 1280.0603,-457.1642 1371,-300.333 1377.4448,-289.2186 1400.236,-270.687 1420.8736,-255.2948"/>
<polygon fill="#00ff00" stroke="#00ff00" stroke-width=".6475" points="1422.96,-258.1051 1428.9351,-249.3559 1418.808,-252.4693 1422.96,-258.1051"/>
</g>
<!-- D_wall&#45;&gt;right -->
<g id="edge82" class="edge">
<title>D_wall&#45;&gt;right</title>
<path fill="none" stroke="#ff0000" stroke-width=".257" stroke-dasharray="1,5" d="M1293.1087,-741.9108C1288.3029,-718.0918 1276,-651.6527 1276,-595.7163 1276,-595.7163 1276,-595.7163 1276,-424.7214 1276,-305.0917 1318.2302,-265.312 1414,-193.6224 1506.9988,-124.007 1547.6978,-133.7702 1661,-108.1249 1889.2182,-56.469 2171.9161,-41.1295 2268.126,-37.2357"/>
<polygon fill="#ff0000" stroke="#ff0000" stroke-width=".257" points="2268.5488,-40.722 2278.4049,-36.8351 2268.2761,-33.7273 2268.5488,-40.722"/>
</g>
<!-- D_wall&#45;&gt;backward -->
<g id="edge63" class="edge">
<title>D_wall&#45;&gt;backward</title>
<path fill="none" stroke="#00ff00" stroke-width=".6433" stroke-dasharray="1,5" d="M1273.409,-750.7937C1126.5501,-749.5543 276.964,-740.9057 168,-705.9626 82.9577,-678.6908 0,-685.0245 0,-595.7163 0,-595.7163 0,-595.7163 0,-228.9777 0,-169.5909 8.4707,-142.3551 57,-108.1249 112.757,-68.7966 587.3118,-44.7653 739.3438,-38.0212"/>
<polygon fill="#00ff00" stroke="#00ff00" stroke-width=".6433" points="739.8857,-41.5009 749.7225,-37.5655 739.5786,-34.5076 739.8857,-41.5009"/>
</g>
<!-- D_wall&#45;&gt;ccw -->
<g id="edge73" class="edge">
<title>D_wall&#45;&gt;ccw</title>
<path fill="none" stroke="#00ff00" stroke-width=".2935" stroke-dasharray="1,5" d="M1316.5499,-750.2778C1390.8357,-747.6609 1635.5893,-736.8373 1707,-705.9626 1760.6724,-682.757 1763.1098,-659.1028 1807,-620.4651 1934.4134,-508.2996 1982.4203,-495.281 2090,-363.9727 2110.8776,-338.4901 2104.2869,-323.2005 2128,-300.333 2143.6867,-285.2057 2195.4754,-258.8818 2228.7589,-242.7847"/>
<polygon fill="#00ff00" stroke="#00ff00" stroke-width=".2935" points="2230.522,-245.8208 2238.0219,-238.3373 2227.4922,-239.5104 2230.522,-245.8208"/>
</g>
<!-- D_wall&#45;&gt;cw -->
<g id="edge51" class="edge">
<title>D_wall&#45;&gt;cw</title>
<path fill="none" stroke="#00ff00" stroke-width=".3542" d="M1273.3799,-749.9315C1128.456,-742.742 304,-697.3746 304,-595.7163 304,-595.7163 304,-595.7163 304,-424.7214 304,-368.7965 284.8186,-341.1959 323,-300.333 362.6431,-257.9058 542.3525,-237.7827 613.6884,-231.3606"/>
<polygon fill="#00ff00" stroke="#00ff00" stroke-width=".3542" points="614.1266,-234.8357 623.7841,-230.4787 613.5174,-227.8623 614.1266,-234.8357"/>
</g>
<!-- 3201 -->
<g id="node34" class="node">
<title>3201</title>
<ellipse fill="#ffffff" stroke="#000000" cx="2904" cy="-595.7163" rx="25" ry="25"/>
<text text-anchor="middle" x="2904" y="-593.5163" font-family="Times,serif" font-size="9.00" fill="#000000">3201</text>
</g>
<!-- D_wall&#45;&gt;3201 -->
<g id="edge99" class="edge">
<title>D_wall&#45;&gt;3201</title>
<path fill="none" stroke="#00ff00" stroke-width=".484" stroke-dasharray="1,5" d="M1316.7523,-750.7725C1418.3562,-749.701 1856.2973,-743.0484 2213,-705.9626 2466.8252,-679.5727 2769.3623,-622.2596 2869.7588,-602.5419"/>
<polygon fill="#00ff00" stroke="#00ff00" stroke-width=".484" points="2870.5128,-605.9607 2879.6471,-600.5928 2869.159,-599.0929 2870.5128,-605.9607"/>
</g>
<!-- D_wall&#45;&gt;424 -->
<g id="edge86" class="edge">
<title>D_wall&#45;&gt;424</title>
<path fill="none" stroke="#ff0000" stroke-width=".396" stroke-dasharray="1,5" d="M1273.1896,-750.8267C1155.1043,-749.9415 591.412,-743.7715 422,-705.9626 295.4942,-677.7293 152,-725.3344 152,-595.7163 152,-595.7163 152,-595.7163 152,-424.7214 152,-290.0446 232.1584,-262.3141 348,-193.6224 392.5223,-167.2215 544.614,-145.3227 611.269,-136.7523"/>
<polygon fill="#ff0000" stroke="#ff0000" stroke-width=".396" points="612.0929,-140.176 621.5734,-135.4464 611.2127,-133.2315 612.0929,-140.176"/>
</g>
<!-- 4668 -->
<g id="node51" class="node">
<title>4668</title>
<ellipse fill="#ffffff" stroke="#000000" cx="1673" cy="-681.2138" rx="25" ry="25"/>
<text text-anchor="middle" x="1673" y="-679.0138" font-family="Times,serif" font-size="9.00" fill="#000000">4668</text>
</g>
<!-- D_wall&#45;&gt;4668 -->
<g id="edge110" class="edge">
<title>D_wall&#45;&gt;4668</title>
<path fill="none" stroke="#ff0000" stroke-width=".3853" stroke-dasharray="1,5" d="M1316.6806,-746.962C1379.4586,-735.3782 1561.7758,-701.737 1638.4185,-687.5948"/>
<polygon fill="#ff0000" stroke="#ff0000" stroke-width=".3853" points="1639.3095,-690.9896 1648.5083,-685.733 1638.0392,-684.1058 1639.3095,-690.9896"/>
</g>
<!-- D_wall&#45;&gt;4704 -->
<g id="edge112" class="edge">
<title>D_wall&#45;&gt;4704</title>
<path fill="none" stroke="#ff0000" stroke-width=".4586" d="M1316.6679,-750.2428C1403.7455,-747.214 1736.6023,-734.3266 2009,-705.9626 2056.1806,-701.0498 2110.3542,-692.6887 2144.6207,-687.0604"/>
<polygon fill="#ff0000" stroke="#ff0000" stroke-width=".4586" points="2145.2933,-690.4967 2154.5862,-685.4082 2144.1484,-683.591 2145.2933,-690.4967"/>
</g>
<!-- 5746 -->
<g id="node64" class="node">
<title>5746</title>
<ellipse fill="#ffffff" stroke="#000000" cx="1190" cy="-228.9777" rx="25" ry="25"/>
<text text-anchor="middle" x="1190" y="-226.7777" font-family="Times,serif" font-size="9.00" fill="#000000">5746</text>
</g>
<!-- D_wall&#45;&gt;5746 -->
<g id="edge133" class="edge">
<title>D_wall&#45;&gt;5746</title>
<path fill="none" stroke="#ff0000" stroke-width=".22" d="M1273.2868,-742.2144C1229.3407,-722.9086 1134,-672.2101 1134,-595.7163 1134,-595.7163 1134,-595.7163 1134,-424.7214 1134,-368.7276 1136.7407,-353.6005 1154,-300.333 1158.5329,-286.3433 1165.4828,-271.707 1172.0715,-259.3573"/>
<polygon fill="#ff0000" stroke="#ff0000" stroke-width=".22" points="1175.2413,-260.8566 1176.9936,-250.4077 1169.1077,-257.4833 1175.2413,-260.8566"/>
</g>
<!-- E_agent -->
<g id="node13" class="node">
<title>E_agent</title>
<polygon fill="#d3d3d3" stroke="#000000" points="2592,-341.1528 2546,-341.1528 2546,-323.1528 2592,-323.1528 2592,-341.1528"/>
<text text-anchor="middle" x="2569" y="-329.9528" font-family="Times,serif" font-size="9.00" fill="#000000">E_agent</text>
</g>
<!-- E_agent&#45;&gt;no_move -->
<g id="edge38" class="edge">
<title>E_agent&#45;&gt;no_move</title>
<path fill="none" stroke="#ff0000" stroke-width=".3427" d="M2562.8206,-323.0926C2557.099,-315.5342 2547.8527,-305.2357 2537,-300.333 2525.0183,-294.9204 1707.1412,-244.3023 1503.5193,-231.7728"/>
<polygon fill="#ff0000" stroke="#ff0000" stroke-width=".3427" points="1503.6588,-228.2748 1493.4628,-231.1542 1503.229,-235.2616 1503.6588,-228.2748"/>
</g>
<!-- E_agent&#45;&gt;right -->
<g id="edge79" class="edge">
<title>E_agent&#45;&gt;right</title>
<path fill="none" stroke="#ff0000" stroke-width=".2292" stroke-dasharray="1,5" d="M2565.5613,-322.8767C2552.9154,-289.8268 2506.0026,-176.1718 2435,-108.1249 2405.4885,-79.8419 2362.6975,-59.3121 2333.6843,-47.5628"/>
<polygon fill="#ff0000" stroke="#ff0000" stroke-width=".2292" points="2334.6283,-44.1733 2324.0409,-43.7748 2332.069,-50.6887 2334.6283,-44.1733"/>
</g>
<!-- E_agent&#45;&gt;backward -->
<g id="edge11" class="edge">
<title>E_agent&#45;&gt;backward</title>
<path fill="none" stroke="#00ff00" stroke-width=".1586" d="M2560.3098,-322.9435C2554.0243,-316.4256 2545.2251,-307.5895 2537,-300.333 2510.9887,-277.3848 2323.5178,-120.1998 2291,-108.1249 2151.458,-56.3086 1070.287,-39.6661 832.2545,-36.6127"/>
<polygon fill="#00ff00" stroke="#00ff00" stroke-width=".1586" points="832.247,-33.1124 822.2034,-36.4854 832.1583,-40.1118 832.247,-33.1124"/>
</g>
<!-- E_agent&#45;&gt;no_turn -->
<g id="edge8" class="edge">
<title>E_agent&#45;&gt;no_turn</title>
<path fill="none" stroke="#ff0000" stroke-width=".6576" d="M2577.0756,-322.9967C2589.3952,-309.029 2613.4592,-281.7454 2632.5048,-260.1516"/>
<polygon fill="#ff0000" stroke="#ff0000" stroke-width=".6576" points="2635.2737,-262.3035 2639.2635,-252.4886 2630.0239,-257.6731 2635.2737,-262.3035"/>
</g>
<!-- E_lm -->
<g id="node14" class="node">
<title>E_lm</title>
<polygon fill="#d3d3d3" stroke="#000000" points="124,-341.1528 88,-341.1528 88,-323.1528 124,-323.1528 124,-341.1528"/>
<text text-anchor="middle" x="106" y="-329.9528" font-family="Times,serif" font-size="9.00" fill="#000000">E_lm</text>
</g>
<!-- E_lm&#45;&gt;no_move -->
<g id="edge6" class="edge">
<title>E_lm&#45;&gt;no_move</title>
<path fill="none" stroke="#ff0000" stroke-width="2.0013" d="M124.2116,-328.8167C161.4137,-322.1494 248.8805,-307.2286 323,-300.333 722.0408,-263.2091 825.0411,-302.3267 1224,-264.333 1290.1123,-258.037 1366.0266,-245.5965 1413.0077,-237.2809"/>
<polygon fill="#ff0000" stroke="#ff0000" stroke-width="2.0013" points="1413.6375,-240.7238 1422.8669,-235.521 1412.4074,-233.8328 1413.6375,-240.7238"/>
</g>
<!-- E_lm&#45;&gt;backward -->
<g id="edge45" class="edge">
<title>E_lm&#45;&gt;backward</title>
<path fill="none" stroke="#ff0000" stroke-width=".399" stroke-dasharray="1,5" d="M107.1558,-323.1487C112.2421,-285.002 133.9072,-137.3364 168,-108.1249 211.2697,-71.0504 603.0527,-46.1357 739.4431,-38.5226"/>
<polygon fill="#ff0000" stroke="#ff0000" stroke-width=".399" points="739.7805,-42.0094 749.5722,-37.963 739.3942,-35.0201 739.7805,-42.0094"/>
</g>
<!-- E_lm&#45;&gt;cw -->
<g id="edge78" class="edge">
<title>E_lm&#45;&gt;cw</title>
<path fill="none" stroke="#ff0000" stroke-width=".2294" d="M124.1747,-328.6609C203.1105,-313.4948 516.59,-253.2652 613.9792,-234.5535"/>
<polygon fill="#ff0000" stroke="#ff0000" stroke-width=".2294" points="614.837,-237.9528 623.997,-232.6288 613.5162,-231.0786 614.837,-237.9528"/>
</g>
<!-- 5804 -->
<g id="node46" class="node">
<title>5804</title>
<ellipse fill="#ffffff" stroke="#000000" cx="53" cy="-228.9777" rx="25" ry="25"/>
<text text-anchor="middle" x="53" y="-226.7777" font-family="Times,serif" font-size="9.00" fill="#000000">5804</text>
</g>
<!-- E_lm&#45;&gt;5804 -->
<g id="edge138" class="edge">
<title>E_lm&#45;&gt;5804</title>
<path fill="none" stroke="#00ff00" stroke-width=".3868" d="M101.2966,-322.9967C94.1464,-309.0775 80.2035,-281.9349 69.1294,-260.3769"/>
<polygon fill="#00ff00" stroke="#00ff00" stroke-width=".3868" points="72.1155,-258.53 64.4329,-251.2342 65.889,-261.7285 72.1155,-258.53"/>
</g>
<!-- 3130 -->
<g id="node50" class="node">
<title>3130</title>
<ellipse fill="#ffffff" stroke="#000000" cx="91" cy="-132.8736" rx="25" ry="25"/>
<text text-anchor="middle" x="91" y="-130.6736" font-family="Times,serif" font-size="9.00" fill="#000000">3130</text>
</g>
<!-- E_lm&#45;&gt;3130 -->
<g id="edge93" class="edge">
<title>E_lm&#45;&gt;3130</title>
<path fill="none" stroke="#00ff00" stroke-width=".292" d="M105.3165,-323.0724C103.2811,-296.0312 97.1813,-214.9934 93.6348,-167.877"/>
<polygon fill="#00ff00" stroke="#00ff00" stroke-width=".292" points="97.1176,-167.516 92.8768,-157.8069 90.1373,-168.0414 97.1176,-167.516"/>
</g>
<!-- E_wall -->
<g id="node15" class="node">
<title>E_wall</title>
<polygon fill="#d3d3d3" stroke="#000000" points="1247,-519.2189 1205,-519.2189 1205,-501.2189 1247,-501.2189 1247,-519.2189"/>
<text text-anchor="middle" x="1226" y="-508.0189" font-family="Times,serif" font-size="9.00" fill="#000000">E_wall</text>
</g>
<!-- E_wall&#45;&gt;cw -->
<g id="edge42" class="edge">
<title>E_wall&#45;&gt;cw</title>
<path fill="none" stroke="#00ff00" stroke-width=".2614" stroke-dasharray="1,5" d="M1215.8049,-501.1935C1208.7903,-495.5702 1198.9711,-488.7931 1189,-485.4701 1118.483,-461.9693 572.1254,-503.425 521,-449.4701 505.2928,-432.8937 507.1782,-334.8499 528,-300.333 547.4565,-268.0795 587.6424,-248.2395 614.9654,-237.9141"/>
<polygon fill="#00ff00" stroke="#00ff00" stroke-width=".2614" points="616.1561,-241.2054 624.3876,-234.5351 613.7931,-234.6163 616.1561,-241.2054"/>
</g>
<!-- 5058 -->
<g id="node53" class="node">
<title>5058</title>
<ellipse fill="#ffffff" stroke="#000000" cx="1903" cy="-424.7214" rx="25" ry="25"/>
<text text-anchor="middle" x="1903" y="-422.5214" font-family="Times,serif" font-size="9.00" fill="#000000">5058</text>
</g>
<!-- E_wall&#45;&gt;5058 -->
<g id="edge118" class="edge">
<title>E_wall&#45;&gt;5058</title>
<path fill="none" stroke="#ff0000" stroke-width=".4556" d="M1247.1839,-509.7578C1344.8911,-507.3989 1752.2847,-494.9603 1870,-449.4701 1871.9038,-448.7344 1873.7927,-447.8558 1875.6464,-446.8752"/>
<polygon fill="#ff0000" stroke="#ff0000" stroke-width=".4556" points="1877.9113,-449.5865 1884.528,-441.3118 1874.1953,-443.6542 1877.9113,-449.5865"/>
</g>
<!-- F_agent -->
<g id="node16" class="node">
<title>F_agent</title>
<polygon fill="#d3d3d3" stroke="#000000" points="1707.5,-433.7214 1662.5,-433.7214 1662.5,-415.7214 1707.5,-415.7214 1707.5,-433.7214"/>
<text text-anchor="middle" x="1685" y="-422.5214" font-family="Times,serif" font-size="9.00" fill="#000000">F_agent</text>
</g>
<!-- F_agent&#45;&gt;right -->
<g id="edge76" class="edge">
<title>F_agent&#45;&gt;right</title>
<path fill="none" stroke="#ff0000" stroke-width=".8026" d="M1681.6271,-415.6538C1666.7761,-373.9955 1611.5627,-199.1189 1695,-108.1249 1734.0743,-65.5117 2146.4836,-43.2287 2268.3017,-37.5427"/>
<polygon fill="#ff0000" stroke="#ff0000" stroke-width=".8026" points="2268.6904,-41.0287 2278.5191,-37.0732 2268.369,-34.036 2268.6904,-41.0287"/>
</g>
<!-- F_agent&#45;&gt;forward -->
<g id="edge77" class="edge">
<title>F_agent&#45;&gt;forward</title>
<path fill="none" stroke="#00ff00" stroke-width=".5048" d="M1707.6277,-417.0074C1722.2561,-412.0567 1741.7212,-405.5367 1759,-399.9727 1821.2128,-379.9391 1893.7208,-357.702 1937.7191,-344.331"/>
<polygon fill="#00ff00" stroke="#00ff00" stroke-width=".5048" points="1938.9114,-347.6269 1947.4636,-341.373 1936.8781,-340.9287 1938.9114,-347.6269"/>
</g>
<!-- F_agent&#45;&gt;backward -->
<g id="edge41" class="edge">
<title>F_agent&#45;&gt;backward</title>
<path fill="none" stroke="#00ff00" stroke-width=".4359" stroke-dasharray="1,5" d="M1662.338,-423.8929C1530.5196,-418.9753 867.2847,-392.8529 836,-363.9727 815.568,-345.1109 797.5049,-168.0484 789.8669,-82.2427"/>
<polygon fill="#00ff00" stroke="#00ff00" stroke-width=".4359" points="793.3506,-81.9025 788.9877,-72.2477 786.3775,-82.516 793.3506,-81.9025"/>
</g>
<!-- 4766 -->
<g id="node42" class="node">
<title>4766</title>
<ellipse fill="#ffffff" stroke="#000000" cx="759" cy="-332.1528" rx="25" ry="25"/>
<text text-anchor="middle" x="759" y="-329.9528" font-family="Times,serif" font-size="9.00" fill="#000000">4766</text>
</g>
<!-- F_agent&#45;&gt;4766 -->
<g id="edge114" class="edge">
<title>F_agent&#45;&gt;4766</title>
<path fill="none" stroke="#ff0000" stroke-width="1.2285" stroke-dasharray="1,5" d="M1662.4939,-421.5183C1624.6723,-416.2477 1545.9299,-405.7557 1479,-399.9727 1328.0179,-386.9271 939.3666,-418.5736 798,-363.9727 793.3536,-362.178 788.8428,-359.6051 784.6376,-356.6894"/>
<polygon fill="#ff0000" stroke="#ff0000" stroke-width="1.2285" points="786.5347,-353.7312 776.4896,-350.3627 782.2416,-359.2602 786.5347,-353.7312"/>
</g>
<!-- 5994 -->
<g id="node62" class="node">
<title>5994</title>
<ellipse fill="#ffffff" stroke="#000000" cx="1729" cy="-132.8736" rx="25" ry="25"/>
<text text-anchor="middle" x="1729" y="-130.6736" font-family="Times,serif" font-size="9.00" fill="#000000">5994</text>
</g>
<!-- F_agent&#45;&gt;5994 -->
<g id="edge145" class="edge">
<title>F_agent&#45;&gt;5994</title>
<path fill="none" stroke="#ff0000" stroke-width=".1891" d="M1686.3651,-415.6669C1692.0103,-378.223 1713.7069,-234.3111 1723.7914,-167.4215"/>
<polygon fill="#ff0000" stroke="#ff0000" stroke-width=".1891" points="1727.276,-167.7857 1725.306,-157.3756 1720.3542,-166.7421 1727.276,-167.7857"/>
</g>
<!-- F_lm -->
<g id="node17" class="node">
<title>F_lm</title>
<polygon fill="#d3d3d3" stroke="#000000" points="2528,-341.1528 2492,-341.1528 2492,-323.1528 2528,-323.1528 2528,-341.1528"/>
<text text-anchor="middle" x="2510" y="-329.9528" font-family="Times,serif" font-size="9.00" fill="#000000">F_lm</text>
</g>
<!-- F_lm&#45;&gt;no_move -->
<g id="edge26" class="edge">
<title>F_lm&#45;&gt;no_move</title>
<path fill="none" stroke="#00ff00" stroke-width=".4495" d="M2505.1177,-323.1264C2500.5027,-315.5897 2492.8266,-305.304 2483,-300.333 2460.8129,-289.1093 1699.3581,-243.2861 1503.5426,-231.6663"/>
<polygon fill="#00ff00" stroke="#00ff00" stroke-width=".4495" points="1503.5065,-228.1581 1493.3168,-231.0601 1503.0921,-235.1458 1503.5065,-228.1581"/>
</g>
<!-- F_lm&#45;&gt;left -->
<g id="edge44" class="edge">
<title>F_lm&#45;&gt;left</title>
<path fill="none" stroke="#00ff00" stroke-width=".2914" d="M2515.1356,-322.9606C2519.8117,-315.5343 2527.438,-305.4974 2537,-300.333 2585.4784,-274.1502 2971.5633,-240.6219 3082.9919,-231.4112"/>
<polygon fill="#00ff00" stroke="#00ff00" stroke-width=".2914" points="3083.5076,-234.8807 3093.1872,-230.5732 3082.9341,-227.9043 3083.5076,-234.8807"/>
</g>
<!-- F_lm&#45;&gt;no_turn -->
<g id="edge56" class="edge">
<title>F_lm&#45;&gt;no_turn</title>
<path fill="none" stroke="#ff0000" stroke-width=".4248" stroke-dasharray="1,5" d="M2516.3862,-323.0534C2521.454,-316.2569 2528.9965,-307.0254 2537,-300.333 2563.2287,-278.401 2597.0765,-259.3156 2622.6236,-246.4156"/>
<polygon fill="#ff0000" stroke="#ff0000" stroke-width=".4248" points="2624.2267,-249.5274 2631.6306,-241.949 2621.1167,-243.2562 2624.2267,-249.5274"/>
</g>
<!-- F_lm&#45;&gt;ccw -->
<g id="edge80" class="edge">
<title>F_lm&#45;&gt;ccw</title>
<path fill="none" stroke="#ff0000" stroke-width=".8663" d="M2504.7727,-323.1237C2500.0407,-315.7968 2492.3839,-305.8145 2483,-300.333 2409.9177,-257.6431 2371.4685,-302.647 2296,-264.333 2290.1998,-261.3884 2284.6492,-257.2932 2279.6686,-252.9304"/>
<polygon fill="#ff0000" stroke="#ff0000" stroke-width=".8663" points="2282.0168,-250.3336 2272.3572,-245.9813 2277.1943,-255.4075 2282.0168,-250.3336"/>
</g>
<!-- F_lm&#45;&gt;cw -->
<g id="edge2" class="edge">
<title>F_lm&#45;&gt;cw</title>
<path fill="none" stroke="#00ff00" stroke-width=".3463" stroke-dasharray="1,5" d="M2505.1703,-323.0195C2500.589,-315.4143 2492.9329,-305.0882 2483,-300.333 2413.1242,-266.8813 1166.3637,-268.3955 1089,-264.333 931.4815,-256.0616 743.2177,-238.6651 672.1077,-231.8256"/>
<polygon fill="#00ff00" stroke="#00ff00" stroke-width=".3463" points="672.3931,-228.337 662.1027,-230.8584 671.7195,-235.3045 672.3931,-228.337"/>
</g>
<!-- F_wall -->
<g id="node18" class="node">
<title>F_wall</title>
<polygon fill="#d3d3d3" stroke="#000000" points="3058,-433.7214 3016,-433.7214 3016,-415.7214 3058,-415.7214 3058,-433.7214"/>
<text text-anchor="middle" x="3037" y="-422.5214" font-family="Times,serif" font-size="9.00" fill="#000000">F_wall</text>
</g>
<!-- F_wall&#45;&gt;right -->
<g id="edge10" class="edge">
<title>F_wall&#45;&gt;right</title>
<path fill="none" stroke="#ff0000" stroke-width=".1537" stroke-dasharray="1,5" d="M3058.1108,-419.9915C3098.2984,-410.5138 3183.2899,-388.0333 3200,-363.9727 3216.1341,-340.7414 3207.0949,-327.713 3200,-300.333 3195.4088,-282.6149 3188.7768,-280.3948 3180,-264.333 3162.8919,-233.0249 3170.2848,-215.3677 3142,-193.6224 3011.4485,-93.2543 2475.7832,-48.4841 2335.6674,-38.3544"/>
<polygon fill="#ff0000" stroke="#ff0000" stroke-width=".1537" points="2335.7594,-34.8521 2325.536,-37.6328 2335.2621,-41.8345 2335.7594,-34.8521"/>
</g>
<!-- F_wall&#45;&gt;left -->
<g id="edge32" class="edge">
<title>F_wall&#45;&gt;left</title>
<path fill="none" stroke="#ff0000" stroke-width="1.0601" stroke-dasharray="1,5" d="M3047.673,-415.595C3059.7474,-404.629 3079.0246,-385.0549 3089,-363.9727 3104.8889,-330.3927 3110.3247,-287.5858 3112.1474,-259.2813"/>
<polygon fill="#ff0000" stroke="#ff0000" stroke-width="1.0601" points="3115.6478,-259.3645 3112.6832,-249.1929 3108.6576,-258.9931 3115.6478,-259.3645"/>
</g>
<!-- F_wall&#45;&gt;forward -->
<g id="edge53" class="edge">
<title>F_wall&#45;&gt;forward</title>
<path fill="none" stroke="#00ff00" stroke-width=".3195" stroke-dasharray="1,5" d="M3015.8324,-423.9661C2918.7771,-420.3501 2506.6826,-403.3313 2171,-363.9727 2118.3655,-357.8013 2058.1833,-347.3297 2019.2143,-340.0939"/>
<polygon fill="#00ff00" stroke="#00ff00" stroke-width=".3195" points="2019.7693,-336.6371 2009.296,-338.237 2018.4811,-343.5176 2019.7693,-336.6371"/>
</g>
<!-- F_wall&#45;&gt;backward -->
<g id="edge30" class="edge">
<title>F_wall&#45;&gt;backward</title>
<path fill="none" stroke="#00ff00" stroke-width=".1276" d="M3015.856,-423.9005C2832.6494,-416.7848 1520.5768,-365.7681 1516,-363.9727 1505.8239,-359.9806 1226.9052,-112.7485 1217,-108.1249 1149.014,-76.3901 928.7962,-50.6757 832.1685,-40.6229"/>
<polygon fill="#00ff00" stroke="#00ff00" stroke-width=".1276" points="832.4176,-37.1301 822.1116,-39.5868 831.7002,-44.0932 832.4176,-37.1301"/>
</g>
<!-- F_wall&#45;&gt;no_turn -->
<g id="edge58" class="edge">
<title>F_wall&#45;&gt;no_turn</title>
<path fill="none" stroke="#00ff00" stroke-width=".1116" d="M3035.2308,-415.515C3030.2595,-392.2675 3013.9068,-330.8783 2975,-300.333 2964.1353,-291.8033 2783.3269,-254.1204 2700.6619,-237.224"/>
<polygon fill="#00ff00" stroke="#00ff00" stroke-width=".1116" points="2701.1126,-233.7439 2690.6148,-235.174 2699.7132,-240.6026 2701.1126,-233.7439"/>
</g>
<!-- F_wall&#45;&gt;ccw -->
<g id="edge22" class="edge">
<title>F_wall&#45;&gt;ccw</title>
<path fill="none" stroke="#00ff00" stroke-width=".3762" stroke-dasharray="1,5" d="M3015.8542,-423.5736C2913.8887,-417.9138 2475.69,-392.1162 2422,-363.9727 2389.1456,-346.7509 2397.181,-323.2343 2368,-300.333 2339.8553,-278.2451 2325.3961,-284.7259 2296,-264.333 2290.8774,-260.7794 2285.7481,-256.5641 2280.9899,-252.3044"/>
<polygon fill="#00ff00" stroke="#00ff00" stroke-width=".3762" points="2283.0928,-249.4789 2273.3992,-245.2028 2278.3104,-254.5906 2283.0928,-249.4789"/>
</g>
<!-- 6503 -->
<g id="node61" class="node">
<title>6503</title>
<ellipse fill="#ffffff" stroke="#000000" cx="3166" cy="-332.1528" rx="25" ry="25"/>
<text text-anchor="middle" x="3166" y="-329.9528" font-family="Times,serif" font-size="9.00" fill="#000000">6503</text>
</g>
<!-- F_wall&#45;&gt;6503 -->
<g id="edge159" class="edge">
<title>F_wall&#45;&gt;6503</title>
<path fill="none" stroke="#00ff00" stroke-width=".1827" d="M3051.3045,-415.6383C3069.2931,-404.0867 3100.9742,-383.3115 3127,-363.9727 3130.9147,-361.0637 3134.9763,-357.9108 3138.9345,-354.7584"/>
<polygon fill="#00ff00" stroke="#00ff00" stroke-width=".1827" points="3141.2613,-357.3779 3146.834,-348.3671 3136.8584,-351.936 3141.2613,-357.3779"/>
</g>
<!-- G_agent -->
<g id="node19" class="node">
<title>G_agent</title>
<polygon fill="#d3d3d3" stroke="#000000" points="3383.5,-519.2189 3336.5,-519.2189 3336.5,-501.2189 3383.5,-501.2189 3383.5,-519.2189"/>
<text text-anchor="middle" x="3360" y="-508.0189" font-family="Times,serif" font-size="9.00" fill="#000000">G_agent</text>
</g>
<!-- G_agent&#45;&gt;no_move -->
<g id="edge75" class="edge">
<title>G_agent&#45;&gt;no_move</title>
<path fill="none" stroke="#00ff00" stroke-width=".7198" d="M3336.4001,-509.7609C3133.4264,-505.7762 1688.8334,-476.4905 1654,-449.4701 1599.3948,-407.1127 1655.0148,-352.7691 1610,-300.333 1582.1747,-267.9205 1536.4019,-249.2348 1502.3449,-239.1812"/>
<polygon fill="#00ff00" stroke="#00ff00" stroke-width=".7198" points="1503.2043,-235.7872 1492.6303,-236.4514 1501.3106,-242.5262 1503.2043,-235.7872"/>
</g>
<!-- G_agent&#45;&gt;left -->
<g id="edge65" class="edge">
<title>G_agent&#45;&gt;left</title>
<path fill="none" stroke="#00ff00" stroke-width=".4221" stroke-dasharray="1,5" d="M3374.0999,-501.0342C3388.7393,-490.5653 3410.7664,-471.959 3420,-449.4701 3445.1755,-388.1541 3463.2535,-350.5585 3420,-300.333 3384.8076,-259.4681 3231.2392,-281.1554 3180,-264.333 3165.5614,-259.5927 3150.5073,-251.9289 3138.3348,-244.9463"/>
<polygon fill="#00ff00" stroke="#00ff00" stroke-width=".4221" points="3140.0336,-241.8847 3129.6461,-239.7993 3136.4659,-247.9073 3140.0336,-241.8847"/>
</g>
<!-- 4096 -->
<g id="node35" class="node">
<title>4096</title>
<ellipse fill="#ffffff" stroke="#000000" cx="3386" cy="-332.1528" rx="25" ry="25"/>
<text text-anchor="middle" x="3386" y="-329.9528" font-family="Times,serif" font-size="9.00" fill="#000000">4096</text>
</g>
<!-- G_agent&#45;&gt;4096 -->
<g id="edge104" class="edge">
<title>G_agent&#45;&gt;4096</title>
<path fill="none" stroke="#ff0000" stroke-width=".4318" d="M3357.5339,-501.2128C3352.7248,-482.2155 3343.2947,-436.7616 3352,-399.9727 3355.135,-386.724 3361.2816,-373.1172 3367.4966,-361.6016"/>
<polygon fill="#ff0000" stroke="#ff0000" stroke-width=".4318" points="3370.5633,-363.2888 3372.4393,-352.8614 3364.4701,-359.843 3370.5633,-363.2888"/>
</g>
<!-- 5926 -->
<g id="node43" class="node">
<title>5926</title>
<ellipse fill="#ffffff" stroke="#000000" cx="3386" cy="-424.7214" rx="25" ry="25"/>
<text text-anchor="middle" x="3386" y="-422.5214" font-family="Times,serif" font-size="9.00" fill="#000000">5926</text>
</g>
<!-- G_agent&#45;&gt;5926 -->
<g id="edge143" class="edge">
<title>G_agent&#45;&gt;5926</title>
<path fill="none" stroke="#00ff00" stroke-width=".2002" d="M3362.7825,-501.0691C3365.8774,-490.8919 3371.0595,-473.8513 3375.7437,-458.448"/>
<polygon fill="#00ff00" stroke="#00ff00" stroke-width=".2002" points="3379.162,-459.2366 3378.723,-448.6509 3372.4649,-457.2 3379.162,-459.2366"/>
</g>
<!-- G_lm -->
<g id="node20" class="node">
<title>G_lm</title>
<polygon fill="#d3d3d3" stroke="#000000" points="566.5,-433.7214 529.5,-433.7214 529.5,-415.7214 566.5,-415.7214 566.5,-433.7214"/>
<text text-anchor="middle" x="548" y="-422.5214" font-family="Times,serif" font-size="9.00" fill="#000000">G_lm</text>
</g>
<!-- G_lm&#45;&gt;no_move -->
<g id="edge37" class="edge">
<title>G_lm&#45;&gt;no_move</title>
<path fill="none" stroke="#00ff00" stroke-width=".1108" d="M559.1456,-415.7077C566.7813,-410.0893 577.4083,-403.3133 588,-399.9727 721.9457,-357.7254 1101.1128,-440.3198 1219,-363.9727 1245.7424,-346.6535 1227.8991,-321.1719 1252,-300.333 1264.6266,-289.4155 1357.6707,-259.6612 1414.3061,-242.215"/>
<polygon fill="#00ff00" stroke="#00ff00" stroke-width=".1108" points="1415.5556,-245.4927 1424.0884,-239.2124 1413.5016,-238.8008 1415.5556,-245.4927"/>
</g>
<!-- G_lm&#45;&gt;backward -->
<g id="edge33" class="edge">
<title>G_lm&#45;&gt;backward</title>
<path fill="none" stroke="#ff0000" stroke-width=".5001" d="M529.4988,-421.4202C475.3401,-411.5757 320.0534,-381.9899 306,-363.9727 258.2908,-302.8068 297.6173,-255.8001 344,-193.6224 382.5093,-141.9992 402.3154,-134.6586 461,-108.1249 554.533,-65.8348 674.7206,-47.5386 739.5543,-40.299"/>
<polygon fill="#ff0000" stroke="#ff0000" stroke-width=".5001" points="740.2854,-43.7407 749.8534,-39.1905 739.5363,-36.7809 740.2854,-43.7407"/>
</g>
<!-- G_lm&#45;&gt;cw -->
<g id="edge71" class="edge">
<title>G_lm&#45;&gt;cw</title>
<path fill="none" stroke="#00ff00" stroke-width=".1099" stroke-dasharray="1,5" d="M544.7586,-415.6335C537.6814,-394.1543 523.0137,-339.1471 543,-300.333 558.1034,-271.0019 591.4659,-251.0643 615.5071,-239.8776"/>
<polygon fill="#00ff00" stroke="#00ff00" stroke-width=".1099" points="617.1107,-242.9954 624.8411,-235.7503 614.2798,-236.5934 617.1107,-242.9954"/>
</g>
<!-- G_lm&#45;&gt;2471 -->
<g id="edge120" class="edge">
<title>G_lm&#45;&gt;2471</title>
<path fill="none" stroke="#ff0000" stroke-width=".5363" d="M550.8867,-415.5071C554.4795,-404.0387 560.8176,-383.8073 566.3497,-366.1487"/>
<polygon fill="#ff0000" stroke="#ff0000" stroke-width=".5363" points="569.8373,-366.7236 569.487,-356.1345 563.1574,-364.6308 569.8373,-366.7236"/>
</g>
<!-- G_wall -->
<g id="node21" class="node">
<title>G_wall</title>
<polygon fill="#d3d3d3" stroke="#000000" points="2473.5,-341.1528 2430.5,-341.1528 2430.5,-323.1528 2473.5,-323.1528 2473.5,-341.1528"/>
<text text-anchor="middle" x="2452" y="-329.9528" font-family="Times,serif" font-size="9.00" fill="#000000">G_wall</text>
</g>
<!-- G_wall&#45;&gt;right -->
<g id="edge46" class="edge">
<title>G_wall&#45;&gt;right</title>
<path fill="none" stroke="#ff0000" stroke-width=".4024" d="M2447.3463,-322.9668C2427.598,-283.9849 2350.2286,-131.2626 2317.1417,-65.9512"/>
<polygon fill="#ff0000" stroke="#ff0000" stroke-width=".4024" points="2320.2349,-64.3121 2312.5935,-56.9732 2313.9905,-67.4756 2320.2349,-64.3121"/>
</g>
<!-- G_wall&#45;&gt;no_turn -->
<g id="edge9" class="edge">
<title>G_wall&#45;&gt;no_turn</title>
<path fill="none" stroke="#ff0000" stroke-width=".221" stroke-dasharray="1,5" d="M2459.0723,-323.0511C2464.8807,-316.0731 2473.6486,-306.6056 2483,-300.333 2525.8825,-271.5694 2582.1515,-251.382 2619.6153,-239.9889"/>
<polygon fill="#ff0000" stroke="#ff0000" stroke-width=".221" points="2621.0657,-243.2094 2629.6566,-237.0089 2619.0741,-236.4987 2621.0657,-243.2094"/>
</g>
<!-- G_wall&#45;&gt;ccw -->
<g id="edge39" class="edge">
<title>G_wall&#45;&gt;ccw</title>
<path fill="none" stroke="#ff0000" stroke-width=".3893" stroke-dasharray="1,5" d="M2443.9448,-323.1458C2437.135,-316.0318 2426.7885,-306.3344 2416,-300.333 2367.3404,-273.2649 2344.3103,-292.0199 2296,-264.333 2290.3563,-261.0986 2284.8739,-256.877 2279.9106,-252.4822"/>
<polygon fill="#ff0000" stroke="#ff0000" stroke-width=".3893" points="2282.2576,-249.8845 2272.5898,-245.5504 2277.4448,-254.9675 2282.2576,-249.8845"/>
</g>
<!-- G_wall&#45;&gt;cw -->
<g id="edge12" class="edge">
<title>G_wall&#45;&gt;cw</title>
<path fill="none" stroke="#ff0000" stroke-width=".2899" stroke-dasharray="1,5" d="M2430.2568,-323.8634C2408.9075,-316.1624 2375.2355,-305.1769 2345,-300.333 2069.2899,-256.1633 1367.8205,-279.3706 1089,-264.333 931.4934,-255.8383 743.2226,-238.5728 672.1092,-231.797"/>
<polygon fill="#ff0000" stroke="#ff0000" stroke-width=".2899" points="672.3918,-228.3081 662.1037,-230.839 671.7246,-235.2763 672.3918,-228.3081"/>
</g>
<!-- H_agent -->
<g id="node22" class="node">
<title>H_agent</title>
<polygon fill="#d3d3d3" stroke="#000000" points="1209.5,-341.1528 1162.5,-341.1528 1162.5,-323.1528 1209.5,-323.1528 1209.5,-341.1528"/>
<text text-anchor="middle" x="1186" y="-329.9528" font-family="Times,serif" font-size="9.00" fill="#000000">H_agent</text>
</g>
<!-- H_agent&#45;&gt;no_move -->
<g id="edge103" class="edge">
<title>H_agent&#45;&gt;no_move</title>
<path fill="none" stroke="#00ff00" stroke-width=".6374" d="M1194.9005,-322.8918C1202.1479,-315.8259 1212.9543,-306.3179 1224,-300.333 1240.9256,-291.1623 1351.2417,-259.1924 1414.1797,-241.316"/>
<polygon fill="#00ff00" stroke="#00ff00" stroke-width=".6374" points="1415.1864,-244.6686 1423.8525,-238.5736 1413.277,-237.9341 1415.1864,-244.6686"/>
</g>
<!-- H_agent&#45;&gt;right -->
<g id="edge68" class="edge">
<title>H_agent&#45;&gt;right</title>
<path fill="none" stroke="#ff0000" stroke-width=".6527" stroke-dasharray="1,5" d="M1193.3731,-322.9943C1198.9551,-316.3384 1207.0031,-307.3114 1215,-300.333 1328.454,-201.3291 1352.3514,-159.2056 1494,-108.1249 1640.2427,-55.3875 2135.1693,-40.0165 2268.6159,-36.7847"/>
<polygon fill="#ff0000" stroke="#ff0000" stroke-width=".6527" points="2268.7334,-40.283 2278.6481,-36.5484 2268.5684,-33.285 2268.7334,-40.283"/>
</g>
<!-- H_agent&#45;&gt;backward -->
<g id="edge7" class="edge">
<title>H_agent&#45;&gt;backward</title>
<path fill="none" stroke="#00ff00" stroke-width=".2699" stroke-dasharray="1,5" d="M1193.3729,-322.7295C1202.6448,-310.2207 1218.0681,-287.0555 1224,-264.333 1242.1306,-194.8832 1240.0711,-151.6552 1183,-108.1249 1128.4309,-66.5029 924.8074,-46.3784 832.2794,-39.2272"/>
<polygon fill="#00ff00" stroke="#00ff00" stroke-width=".2699" points="832.3265,-35.7209 822.0913,-38.4577 831.7993,-42.701 832.3265,-35.7209"/>
</g>
<!-- H_agent&#45;&gt;cw -->
<g id="edge62" class="edge">
<title>H_agent&#45;&gt;cw</title>
<path fill="none" stroke="#00ff00" stroke-width=".5242" stroke-dasharray="1,5" d="M1169.2786,-323.0958C1155.1945,-315.8537 1134.3107,-306.005 1115,-300.333 952.0532,-252.4725 747.5368,-235.5126 672.4118,-230.6501"/>
<polygon fill="#00ff00" stroke="#00ff00" stroke-width=".5242" points="672.4857,-227.148 662.287,-230.0183 672.0496,-234.1344 672.4857,-227.148"/>
</g>
<!-- H_lm -->
<g id="node23" class="node">
<title>H_lm</title>
<polygon fill="#d3d3d3" stroke="#000000" points="1851.5,-341.1528 1814.5,-341.1528 1814.5,-323.1528 1851.5,-323.1528 1851.5,-341.1528"/>
<text text-anchor="middle" x="1833" y="-329.9528" font-family="Times,serif" font-size="9.00" fill="#000000">H_lm</text>
</g>
<!-- H_lm&#45;&gt;backward -->
<g id="edge23" class="edge">
<title>H_lm&#45;&gt;backward</title>
<path fill="none" stroke="#00ff00" stroke-width=".3133" stroke-dasharray="1,5" d="M1817.6284,-322.9959C1758.6918,-288.3553 1540.5957,-164.4474 1344,-108.1249 1159.4011,-55.2393 929.2645,-41.0822 832.3861,-37.3595"/>
<polygon fill="#00ff00" stroke="#00ff00" stroke-width=".3133" points="832.4566,-33.8599 822.3356,-36.9928 832.2013,-40.8552 832.4566,-33.8599"/>
</g>
<!-- H_lm&#45;&gt;no_turn -->
<g id="edge60" class="edge">
<title>H_lm&#45;&gt;no_turn</title>
<path fill="none" stroke="#ff0000" stroke-width=".2635" stroke-dasharray="1,5" d="M1851.501,-325.2683C1872.0783,-317.9009 1906.4516,-306.4506 1937,-300.333 1953.871,-296.9545 2467.5234,-247.4687 2618.5971,-232.9522"/>
<polygon fill="#ff0000" stroke="#ff0000" stroke-width=".2635" points="2619.2166,-236.4089 2628.836,-231.9685 2618.5471,-229.441 2619.2166,-236.4089"/>
</g>
<!-- H_lm&#45;&gt;ccw -->
<g id="edge24" class="edge">
<title>H_lm&#45;&gt;ccw</title>
<path fill="none" stroke="#ff0000" stroke-width=".1447" d="M1851.5609,-325.5495C1872.1906,-318.4284 1906.6097,-307.1927 1937,-300.333 2043.4995,-276.2943 2075.2661,-295.1683 2180,-264.333 2197.0816,-259.3039 2215.2523,-251.2422 2229.7544,-244.0861"/>
<polygon fill="#ff0000" stroke="#ff0000" stroke-width=".1447" points="2231.3645,-247.194 2238.7062,-239.5553 2228.2034,-240.9484 2231.3645,-247.194"/>
</g>
<!-- H_lm&#45;&gt;cw -->
<g id="edge67" class="edge">
<title>H_lm&#45;&gt;cw</title>
<path fill="none" stroke="#00ff00" stroke-width=".2478" d="M1814.4055,-329.5176C1772.2476,-323.6139 1666.1374,-309.155 1577,-300.333 1360.5791,-278.9137 1305.8443,-280.9261 1089,-264.333 931.7242,-252.2982 743.318,-237.109 672.1388,-231.3431"/>
<polygon fill="#00ff00" stroke="#00ff00" stroke-width=".2478" points="672.3739,-227.8507 662.1238,-230.5313 671.8083,-234.8279 672.3739,-227.8507"/>
</g>
<!-- H_wall -->
<g id="node24" class="node">
<title>H_wall</title>
<polygon fill="#d3d3d3" stroke="#000000" points="3145.5,-141.8736 3102.5,-141.8736 3102.5,-123.8736 3145.5,-123.8736 3145.5,-141.8736"/>
<text text-anchor="middle" x="3124" y="-130.6736" font-family="Times,serif" font-size="9.00" fill="#000000">H_wall</text>
</g>
<!-- H_wall&#45;&gt;right -->
<g id="edge20" class="edge">
<title>H_wall&#45;&gt;right</title>
<path fill="none" stroke="#00ff00" stroke-width=".1444" d="M3113.7769,-123.7226C3106.9734,-118.1986 3097.5579,-111.5797 3088,-108.1249 2946.2016,-56.8708 2467.3735,-40.4844 2335.7348,-36.8939"/>
<polygon fill="#00ff00" stroke="#00ff00" stroke-width=".1444" points="2335.5607,-33.3881 2325.4712,-36.6209 2335.3745,-40.3856 2335.5607,-33.3881"/>
</g>
<!-- hunger_change -->
<g id="node25" class="node">
<title>hunger_change</title>
<polygon fill="#d3d3d3" stroke="#000000" points="667.5,-433.7214 596.5,-433.7214 596.5,-415.7214 667.5,-415.7214 667.5,-433.7214"/>
<text text-anchor="middle" x="632" y="-422.5214" font-family="Times,serif" font-size="9.00" fill="#000000">hunger_change</text>
</g>
<!-- hunger_change&#45;&gt;no_move -->
<g id="edge19" class="edge">
<title>hunger_change&#45;&gt;no_move</title>
<path fill="none" stroke="#ff0000" stroke-width="2.066" d="M645.7428,-415.4923C654.783,-409.9371 667.1027,-403.3129 679,-399.9727 924.67,-330.9991 1012.2932,-451.447 1252,-363.9727 1296.6681,-347.6723 1298.4039,-326.6596 1338,-300.333 1364.1305,-282.9594 1394.521,-264.9094 1418.1802,-251.3101"/>
<polygon fill="#ff0000" stroke="#ff0000" stroke-width="2.066" points="1419.9518,-254.329 1426.8954,-246.3267 1416.477,-248.2523 1419.9518,-254.329"/>
</g>
<!-- hunger_change&#45;&gt;forward -->
<g id="edge70" class="edge">
<title>hunger_change&#45;&gt;forward</title>
<path fill="none" stroke="#00ff00" stroke-width=".1975" stroke-dasharray="1,5" d="M645.3052,-415.6115C654.3654,-409.9524 666.872,-403.1673 679,-399.9727 933.1201,-333.0343 1601.0841,-402.7221 1861,-363.9727 1886.9992,-360.0966 1915.4732,-352.4307 1937.8212,-345.5945"/>
<polygon fill="#00ff00" stroke="#00ff00" stroke-width=".1975" points="1939.1274,-348.8533 1947.6273,-342.5286 1937.0385,-342.1722 1939.1274,-348.8533"/>
</g>
<!-- hunger_change&#45;&gt;backward -->
<g id="edge54" class="edge">
<title>hunger_change&#45;&gt;backward</title>
<path fill="none" stroke="#00ff00" stroke-width=".1649" stroke-dasharray="1,5" d="M614.8065,-415.6441C603.9563,-410.2924 589.4892,-403.8331 576,-399.9727 521.4033,-384.3477 360.2198,-406.8635 323,-363.9727 304.4622,-342.6103 309.6203,-325.2526 323,-300.333 410.2142,-137.8975 642.0388,-68.242 740.6168,-45.3289"/>
<polygon fill="#00ff00" stroke="#00ff00" stroke-width=".1649" points="741.5924,-48.6965 750.5697,-43.0698 740.043,-41.8702 741.5924,-48.6965"/>
</g>
<!-- hunger_change&#45;&gt;cw -->
<g id="edge117" class="edge">
<title>hunger_change&#45;&gt;cw</title>
<path fill="none" stroke="#00ff00" stroke-width=".7845" stroke-dasharray="1,5" d="M632.5158,-415.5428C634.0809,-387.6929 638.8231,-303.306 641.359,-258.1791"/>
<polygon fill="#00ff00" stroke="#00ff00" stroke-width=".7845" points="644.8569,-258.3128 641.9236,-248.1322 637.8679,-257.92 644.8569,-258.3128"/>
</g>
<!-- 5850 -->
<g id="node58" class="node">
<title>5850</title>
<ellipse fill="#ffffff" stroke="#000000" cx="2146" cy="-228.9777" rx="25" ry="25"/>
<text text-anchor="middle" x="2146" y="-226.7777" font-family="Times,serif" font-size="9.00" fill="#000000">5850</text>
</g>
<!-- forward&#45;&gt;5850 -->
<g id="edge141" class="edge">
<title>forward&#45;&gt;5850</title>
<path fill="none" stroke="#00ff00" stroke-width=".1424" stroke-dasharray="1,5" d="M2003.7785,-313.1984C2010.2447,-308.7595 2017.2632,-304.2015 2024,-300.333 2056.7608,-281.5211 2068.826,-284.1318 2101,-264.333 2107.0262,-260.6247 2113.1822,-256.2434 2118.9294,-251.8505"/>
<polygon fill="#00ff00" stroke="#00ff00" stroke-width=".1424" points="2121.3145,-254.4269 2126.9944,-245.4832 2116.9769,-248.9327 2121.3145,-254.4269"/>
</g>
<!-- forward&#45;&gt;3702 -->
<g id="edge116" class="edge">
<title>forward&#45;&gt;3702</title>
<path fill="none" stroke="#ff0000" stroke-width=".334" d="M1982.2619,-300.5434C1988.1812,-269.0077 2001.9229,-221.3691 2033,-193.6224 2060.9546,-168.6634 2166.5481,-147.9024 2222.1954,-138.4161"/>
<polygon fill="#ff0000" stroke="#ff0000" stroke-width=".334" points="2223.0135,-141.8279 2232.2981,-136.7243 2221.8574,-134.924 2223.0135,-141.8279"/>
</g>
<!-- ccw&#45;&gt;3702 -->
<g id="edge107" class="edge">
<title>ccw&#45;&gt;3702</title>
<path fill="none" stroke="#00ff00" stroke-width=".1801" d="M2257.7681,-206.6879C2257.6479,-195.1371 2257.4983,-180.7666 2257.3632,-167.7828"/>
<polygon fill="#00ff00" stroke="#00ff00" stroke-width=".1801" points="2260.8628,-167.7108 2257.2588,-157.7478 2253.8632,-167.7837 2260.8628,-167.7108"/>
</g>
<!-- cw&#45;&gt;424 -->
<g id="edge92" class="edge">
<title>cw&#45;&gt;424</title>
<path fill="none" stroke="#ff0000" stroke-width=".3653" d="M643,-209.5296C643,-196.6422 643,-179.4389 643,-164.5952"/>
<polygon fill="#ff0000" stroke="#ff0000" stroke-width=".3653" points="646.5001,-164.2992 643,-154.2992 639.5001,-164.2993 646.5001,-164.2992"/>
</g>
<!-- 3201&#45;&gt;left -->
<g id="edge96" class="edge">
<title>3201&#45;&gt;left</title>
<path fill="none" stroke="#00ff00" stroke-width=".2069" stroke-dasharray="1,5" d="M2927.8091,-587.9257C2991.5385,-565.5293 3164.7737,-494.0951 3218,-363.9727 3228.7084,-337.7938 3231.2353,-325.3296 3218,-300.333 3209.429,-284.1456 3167.7259,-258.8987 3139.5265,-243.18"/>
<polygon fill="#00ff00" stroke="#00ff00" stroke-width=".2069" points="3140.9971,-239.9944 3130.5483,-238.2414 3137.6233,-246.1278 3140.9971,-239.9944"/>
</g>
<!-- 4096&#45;&gt;left -->
<g id="edge105" class="edge">
<title>4096&#45;&gt;left</title>
<path fill="none" stroke="#ff0000" stroke-width=".3507" d="M3368.1991,-314.6624C3361.9342,-309.3532 3354.5599,-303.9694 3347,-300.333 3278.5768,-267.421 3251.3516,-290.2925 3180,-264.333 3165.8174,-259.1731 3150.8876,-251.5353 3138.73,-244.6778"/>
<polygon fill="#ff0000" stroke="#ff0000" stroke-width=".3507" points="3140.4393,-241.6231 3130.0317,-239.6399 3136.9309,-247.6805 3140.4393,-241.6231"/>
</g>
<!-- 5121 -->
<g id="node36" class="node">
<title>5121</title>
<ellipse fill="#ffffff" stroke="#000000" cx="3214" cy="-228.9777" rx="25" ry="25"/>
<text text-anchor="middle" x="3214" y="-226.7777" font-family="Times,serif" font-size="9.00" fill="#000000">5121</text>
</g>
<!-- 5121&#45;&gt;right -->
<g id="edge121" class="edge">
<title>5121&#45;&gt;right</title>
<path fill="none" stroke="#00ff00" stroke-width=".6032" d="M3224.3187,-206.1106C3234.7783,-179.0517 3246.2696,-134.3698 3222,-108.1249 3191.2971,-74.9231 2498.945,-44.2255 2336.0824,-37.4473"/>
<polygon fill="#00ff00" stroke="#00ff00" stroke-width=".6032" points="2335.8453,-33.9346 2325.7092,-37.0182 2335.5559,-40.9286 2335.8453,-33.9346"/>
</g>
<!-- 5275 -->
<g id="node40" class="node">
<title>5275</title>
<ellipse fill="#ffffff" stroke="#000000" cx="2401" cy="-132.8736" rx="25" ry="25"/>
<text text-anchor="middle" x="2401" y="-130.6736" font-family="Times,serif" font-size="9.00" fill="#000000">5275</text>
</g>
<!-- 5121&#45;&gt;5275 -->
<g id="edge124" class="edge">
<title>5121&#45;&gt;5275</title>
<path fill="none" stroke="#ff0000" stroke-width=".2245" d="M3192.7858,-215.9227C3178.8726,-208.0384 3159.9888,-198.584 3142,-193.6224 3006.2967,-156.1926 2563.9131,-138.4447 2435.9603,-134.0118"/>
<polygon fill="#ff0000" stroke="#ff0000" stroke-width=".2245" points="2436.042,-130.5126 2425.9284,-133.6694 2435.8032,-137.5086 2436.042,-130.5126"/>
</g>
<!-- 6220 -->
<g id="node56" class="node">
<title>6220</title>
<ellipse fill="#ffffff" stroke="#000000" cx="3188" cy="-132.8736" rx="25" ry="25"/>
<text text-anchor="middle" x="3188" y="-130.6736" font-family="Times,serif" font-size="9.00" fill="#000000">6220</text>
</g>
<!-- 5121&#45;&gt;6220 -->
<g id="edge150" class="edge">
<title>5121&#45;&gt;6220</title>
<path fill="none" stroke="#00ff00" stroke-width=".2978" d="M3207.4391,-204.7266C3204.3053,-193.1433 3200.5037,-179.0913 3197.0965,-166.497"/>
<polygon fill="#00ff00" stroke="#00ff00" stroke-width=".2978" points="3200.4589,-165.523 3194.4687,-156.7841 3193.7018,-167.3511 3200.4589,-165.523"/>
</g>
<!-- 4621&#45;&gt;cw -->
<g id="edge109" class="edge">
<title>4621&#45;&gt;cw</title>
<path fill="none" stroke="#00ff00" stroke-width=".1617" d="M879.9267,-322.9967C832.0398,-303.9939 722.0449,-260.3449 670.5433,-239.9076"/>
<polygon fill="#00ff00" stroke="#00ff00" stroke-width=".1617" points="671.6445,-236.5792 661.0586,-236.1438 669.0625,-243.0856 671.6445,-236.5792"/>
</g>
<!-- 6035&#45;&gt;3949 -->
<g id="edge148" class="edge">
<title>6035&#45;&gt;3949</title>
<path fill="none" stroke="#ff0000" stroke-width=".2646" d="M1129.5609,-204.7266C1132.6947,-193.1433 1136.4963,-179.0913 1139.9035,-166.497"/>
<polygon fill="#ff0000" stroke="#ff0000" stroke-width=".2646" points="1143.2982,-167.3511 1142.5313,-156.7841 1136.5411,-165.523 1143.2982,-167.3511"/>
</g>
<!-- 5782&#45;&gt;ccw -->
<g id="edge136" class="edge">
<title>5782&#45;&gt;ccw</title>
<path fill="none" stroke="#00ff00" stroke-width=".2027" stroke-dasharray="1,5" d="M2299.6302,-310.0192C2291.7989,-294.7741 2281.3165,-274.368 2272.8297,-257.8467"/>
<polygon fill="#00ff00" stroke="#00ff00" stroke-width=".2027" points="2275.7811,-255.9323 2268.0985,-248.6365 2269.5546,-259.1308 2275.7811,-255.9323"/>
</g>
<!-- 5275&#45;&gt;right -->
<g id="edge125" class="edge">
<title>5275&#45;&gt;right</title>
<path fill="none" stroke="#00ff00" stroke-width=".5883" d="M2383.3008,-115.5657C2367.3387,-99.9566 2343.7259,-76.8658 2326.055,-59.5856"/>
<polygon fill="#00ff00" stroke="#00ff00" stroke-width=".5883" points="2328.4819,-57.0635 2318.8852,-52.5743 2323.5878,-62.0683 2328.4819,-57.0635"/>
</g>
<!-- 5405 -->
<g id="node41" class="node">
<title>5405</title>
<ellipse fill="#ffffff" stroke="#000000" cx="2179" cy="-595.7163" rx="25" ry="25"/>
<text text-anchor="middle" x="2179" y="-593.5163" font-family="Times,serif" font-size="9.00" fill="#000000">5405</text>
</g>
<!-- 6329 -->
<g id="node49" class="node">
<title>6329</title>
<ellipse fill="#ffffff" stroke="#000000" cx="2164" cy="-424.7214" rx="25" ry="25"/>
<text text-anchor="middle" x="2164" y="-422.5214" font-family="Times,serif" font-size="9.00" fill="#000000">6329</text>
</g>
<!-- 5405&#45;&gt;6329 -->
<g id="edge154" class="edge">
<title>5405&#45;&gt;6329</title>
<path fill="none" stroke="#00ff00" stroke-width=".2357" stroke-dasharray="1,5" d="M2176.8189,-570.8522C2174.2527,-541.5987 2169.9749,-492.8335 2167.0735,-459.7583"/>
<polygon fill="#00ff00" stroke="#00ff00" stroke-width=".2357" points="2170.5443,-459.2714 2166.1838,-449.6155 2163.5711,-459.8832 2170.5443,-459.2714"/>
</g>
<!-- 5405&#45;&gt;3391 -->
<g id="edge127" class="edge">
<title>5405&#45;&gt;3391</title>
<path fill="none" stroke="#00ff00" stroke-width=".157" stroke-dasharray="1,5" d="M2182.7165,-571.1928C2186.9889,-542.1886 2193.9337,-492.4197 2198,-449.4701 2200.6184,-421.8143 2202.4316,-390.3925 2203.5555,-367.0327"/>
<polygon fill="#00ff00" stroke="#00ff00" stroke-width=".157" points="2207.0578,-367.0607 2204.0238,-356.9096 2200.0653,-366.7372 2207.0578,-367.0607"/>
</g>
<!-- 4551 -->
<g id="node54" class="node">
<title>4551</title>
<ellipse fill="#ffffff" stroke="#000000" cx="2126" cy="-510.2189" rx="25" ry="25"/>
<text text-anchor="middle" x="2126" y="-508.0189" font-family="Times,serif" font-size="9.00" fill="#000000">4551</text>
</g>
<!-- 5405&#45;&gt;4551 -->
<g id="edge149" class="edge">
<title>5405&#45;&gt;4551</title>
<path fill="none" stroke="#ff0000" stroke-width=".1162" stroke-dasharray="1,5" d="M2165.8989,-574.5821C2159.4649,-564.2031 2151.6009,-551.5172 2144.5606,-540.1601"/>
<polygon fill="#ff0000" stroke="#ff0000" stroke-width=".1162" points="2147.3777,-538.0616 2139.1341,-531.4063 2141.4281,-541.7498 2147.3777,-538.0616"/>
</g>
<!-- 4766&#45;&gt;backward -->
<g id="edge115" class="edge">
<title>4766&#45;&gt;backward</title>
<path fill="none" stroke="#00ff00" stroke-width=".2861" d="M761.2556,-307.4176C765.7697,-257.9137 775.9778,-145.9685 781.7734,-82.4126"/>
<polygon fill="#00ff00" stroke="#00ff00" stroke-width=".2861" points="785.2759,-82.5436 782.6986,-72.2671 778.3048,-81.9079 785.2759,-82.5436"/>
</g>
<!-- 5926&#45;&gt;4096 -->
<g id="edge144" class="edge">
<title>5926&#45;&gt;4096</title>
<path fill="none" stroke="#00ff00" stroke-width=".2208" d="M3386,-399.9147C3386,-389.8498 3386,-378.0438 3386,-367.1311"/>
<polygon fill="#00ff00" stroke="#00ff00" stroke-width=".2208" points="3389.5001,-367.028 3386,-357.028 3382.5001,-367.028 3389.5001,-367.028"/>
</g>
<!-- 2471&#45;&gt;cw -->
<g id="edge89" class="edge">
<title>2471&#45;&gt;cw</title>
<path fill="none" stroke="#00ff00" stroke-width=".2371" d="M590.3561,-311.2738C601.0052,-294.6265 615.9453,-271.2712 627.1906,-253.6919"/>
<polygon fill="#00ff00" stroke="#00ff00" stroke-width=".2371" points="630.2517,-255.4017 632.692,-245.0917 624.3549,-251.6296 630.2517,-255.4017"/>
</g>
<!-- 424&#45;&gt;backward -->
<g id="edge87" class="edge">
<title>424&#45;&gt;backward</title>
<path fill="none" stroke="#ff0000" stroke-width=".3685" stroke-dasharray="1,5" d="M660.8219,-120.8082C682.3986,-106.2007 719.3445,-81.1883 747.522,-62.1121"/>
<polygon fill="#ff0000" stroke="#ff0000" stroke-width=".3685" points="749.6399,-64.905 755.9585,-56.4006 745.7156,-59.1084 749.6399,-64.905"/>
</g>
<!-- 5804&#45;&gt;3130 -->
<g id="edge139" class="edge">
<title>5804&#45;&gt;3130</title>
<path fill="none" stroke="#00ff00" stroke-width=".1849" stroke-dasharray="1,5" d="M62.1987,-205.7136C66.9597,-193.6728 72.8513,-178.7726 78.063,-165.5919"/>
<polygon fill="#00ff00" stroke="#00ff00" stroke-width=".1849" points="81.4637,-166.5099 81.886,-155.9235 74.9541,-163.936 81.4637,-166.5099"/>
</g>
<!-- 6316&#45;&gt;no_move -->
<g id="edge153" class="edge">
<title>6316&#45;&gt;no_move</title>
<path fill="none" stroke="#ff0000" stroke-width=".2997" d="M1416.3698,-310.0192C1422.3999,-298.2805 1430.0017,-283.482 1437.0541,-269.7531"/>
<polygon fill="#ff0000" stroke="#ff0000" stroke-width=".2997" points="1440.3666,-270.9644 1441.8227,-260.4701 1434.1401,-267.7659 1440.3666,-270.9644"/>
</g>
<!-- 6447&#45;&gt;cw -->
<g id="edge158" class="edge">
<title>6447&#45;&gt;cw</title>
<path fill="none" stroke="#ff0000" stroke-width=".2934" d="M374.953,-314.9651C381.228,-309.676 388.5699,-304.2277 396,-300.333 469.508,-261.8026 566.5375,-241.6002 614.1421,-233.4282"/>
<polygon fill="#ff0000" stroke="#ff0000" stroke-width=".2934" points="614.7734,-236.8713 624.0634,-231.7777 613.6246,-229.9662 614.7734,-236.8713"/>
</g>
<!-- 6329&#45;&gt;3391 -->
<g id="edge155" class="edge">
<title>6329&#45;&gt;3391</title>
<path fill="none" stroke="#00ff00" stroke-width="1.0481" d="M2174.1348,-401.8393C2179.1121,-390.6018 2185.1955,-376.8668 2190.6418,-364.5704"/>
<polygon fill="#00ff00" stroke="#00ff00" stroke-width="1.0481" points="2193.9901,-365.6533 2194.8397,-355.0926 2187.5897,-362.8184 2193.9901,-365.6533"/>
</g>
<!-- 3130&#45;&gt;backward -->
<g id="edge94" class="edge">
<title>3130&#45;&gt;backward</title>
<path fill="none" stroke="#ff0000" stroke-width=".1925" stroke-dasharray="1,5" d="M110.7399,-117.9061C116.6519,-114.1157 123.3412,-110.4612 130,-108.1249 243.1568,-68.4232 609.8799,-45.4663 739.827,-38.4157"/>
<polygon fill="#ff0000" stroke="#ff0000" stroke-width=".1925" points="740.0556,-41.9085 749.8537,-37.8778 739.6805,-34.9186 740.0556,-41.9085"/>
</g>
<!-- 4668&#45;&gt;forward -->
<g id="edge111" class="edge">
<title>4668&#45;&gt;forward</title>
<path fill="none" stroke="#ff0000" stroke-width=".2893" stroke-dasharray="1,5" d="M1694.459,-668.0297C1744.1873,-636.4267 1868.2937,-551.3578 1937,-449.4701 1952.5157,-426.4612 1962.7903,-396.9571 1969.1736,-373.2933"/>
<polygon fill="#ff0000" stroke="#ff0000" stroke-width=".2893" points="1972.5796,-374.1013 1971.675,-363.5451 1965.7992,-372.3614 1972.5796,-374.1013"/>
</g>
<!-- 3391&#45;&gt;ccw -->
<g id="edge98" class="edge">
<title>3391&#45;&gt;ccw</title>
<path fill="none" stroke="#00ff00" stroke-width=".3145" stroke-dasharray="1,5" d="M2216.3698,-310.0192C2224.2011,-294.7741 2234.6835,-274.368 2243.1703,-257.8467"/>
<polygon fill="#00ff00" stroke="#00ff00" stroke-width=".3145" points="2246.4454,-259.1308 2247.9015,-248.6365 2240.2189,-255.9323 2246.4454,-259.1308"/>
</g>
<!-- 5058&#45;&gt;right -->
<g id="edge119" class="edge">
<title>5058&#45;&gt;right</title>
<path fill="none" stroke="#00ff00" stroke-width=".4302" stroke-dasharray="1,5" d="M1902.948,-399.7408C1903.2826,-374.4807 1904.8768,-334.411 1911,-300.333 1928.6456,-202.1282 1940.673,-158.1569 2027,-108.1249 2106.0649,-62.3017 2214.6163,-45.0664 2268.641,-39.0364"/>
<polygon fill="#00ff00" stroke="#00ff00" stroke-width=".4302" points="2269.117,-42.5057 2278.694,-37.9746 2268.3817,-35.5444 2269.117,-42.5057"/>
</g>
<!-- 5058&#45;&gt;4096 -->
<g id="edge122" class="edge">
<title>5058&#45;&gt;4096</title>
<path fill="none" stroke="#ff0000" stroke-width=".2019" d="M1927.8015,-421.4012C1969.4804,-415.9601 2056.2522,-405.226 2130,-399.9727 2604.622,-366.1633 2726.6259,-412.2016 3200,-363.9727 3253.4752,-358.5244 3314.8079,-346.9892 3351.96,-339.4075"/>
<polygon fill="#ff0000" stroke="#ff0000" stroke-width=".2019" points="3352.685,-342.8317 3361.7709,-337.3822 3351.2698,-335.9762 3352.685,-342.8317"/>
</g>
<!-- 5449 -->
<g id="node55" class="node">
<title>5449</title>
<ellipse fill="#ffffff" stroke="#000000" cx="2061" cy="-132.8736" rx="25" ry="25"/>
<text text-anchor="middle" x="2061" y="-130.6736" font-family="Times,serif" font-size="9.00" fill="#000000">5449</text>
</g>
<!-- 5058&#45;&gt;5449 -->
<g id="edge128" class="edge">
<title>5058&#45;&gt;5449</title>
<path fill="none" stroke="#00ff00" stroke-width=".341" d="M1906.9585,-400.0542C1915.2202,-354.9879 1937.8554,-258.0614 1988,-193.6224 2000.2736,-177.85 2017.29,-163.3946 2031.8064,-152.5449"/>
<polygon fill="#00ff00" stroke="#00ff00" stroke-width=".341" points="2033.9727,-155.2974 2040.0098,-146.5908 2029.8609,-149.6323 2033.9727,-155.2974"/>
</g>
<!-- 4551&#45;&gt;left -->
<g id="edge106" class="edge">
<title>4551&#45;&gt;left</title>
<path fill="none" stroke="#ff0000" stroke-width=".1477" stroke-dasharray="1,5" d="M2150.8354,-509.3607C2290.7673,-504.4268 2977.6815,-478.8609 3067,-449.4701 3133.7502,-427.5056 3166.3265,-425.6503 3200,-363.9727 3213.5537,-339.1473 3212.0969,-325.8999 3200,-300.333 3187.6832,-274.3016 3160.701,-254.5884 3140.0284,-242.5491"/>
<polygon fill="#ff0000" stroke="#ff0000" stroke-width=".1477" points="3141.4912,-239.358 3131.0496,-237.5624 3138.0925,-245.4775 3141.4912,-239.358"/>
</g>
<!-- 4551&#45;&gt;4766 -->
<g id="edge132" class="edge">
<title>4551&#45;&gt;4766</title>
<path fill="none" stroke="#ff0000" stroke-width=".3867" d="M2101.0292,-509.3928C1939.9917,-503.7815 1046.8015,-468.2913 798,-363.9727 793.4065,-362.0467 788.925,-359.4008 784.7335,-356.4512"/>
<polygon fill="#ff0000" stroke="#ff0000" stroke-width=".3867" points="786.6319,-353.4932 776.594,-350.1034 782.3271,-359.0131 786.6319,-353.4932"/>
</g>
<!-- 4551&#45;&gt;6329 -->
<g id="edge161" class="edge">
<title>4551&#45;&gt;6329</title>
<path fill="none" stroke="#00ff00" stroke-width=".5835" d="M2136.1833,-487.3071C2140.3483,-477.9361 2145.2397,-466.9309 2149.7495,-456.784"/>
<polygon fill="#00ff00" stroke="#00ff00" stroke-width=".5835" points="2153.0571,-457.9595 2153.9204,-447.3999 2146.6605,-455.1165 2153.0571,-457.9595"/>
</g>
<!-- 5449&#45;&gt;right -->
<g id="edge129" class="edge">
<title>5449&#45;&gt;right</title>
<path fill="none" stroke="#00ff00" stroke-width=".3123" stroke-dasharray="1,5" d="M2084.1081,-123.591C2127.5347,-106.1462 2221.3668,-68.4533 2270.5192,-48.7085"/>
<polygon fill="#00ff00" stroke="#00ff00" stroke-width=".3123" points="2272.0361,-51.871 2280.0108,-44.8956 2269.4268,-45.3755 2272.0361,-51.871"/>
</g>
<!-- 6220&#45;&gt;right -->
<g id="edge151" class="edge">
<title>6220&#45;&gt;right</title>
<path fill="none" stroke="#ff0000" stroke-width=".459" d="M3169.5421,-116.2464C3165.061,-113.0301 3160.0862,-110.0619 3155,-108.1249 3001.0276,-49.4864 2473.8967,-38.3653 2335.4997,-36.4385"/>
<polygon fill="#ff0000" stroke="#ff0000" stroke-width=".459" points="2335.5336,-32.9387 2325.4881,-36.3059 2335.4408,-39.9381 2335.5336,-32.9387"/>
</g>
<!-- 2777 -->
<g id="node57" class="node">
<title>2777</title>
<ellipse fill="#ffffff" stroke="#000000" cx="2777" cy="-332.1528" rx="25" ry="25"/>
<text text-anchor="middle" x="2777" y="-329.9528" font-family="Times,serif" font-size="9.00" fill="#000000">2777</text>
</g>
<!-- 2777&#45;&gt;no_turn -->
<g id="edge90" class="edge">
<title>2777&#45;&gt;no_turn</title>
<path fill="none" stroke="#ff0000" stroke-width=".1773" d="M2758.2019,-315.576C2740.1372,-299.6458 2712.5091,-275.2823 2691.1542,-256.4507"/>
<polygon fill="#ff0000" stroke="#ff0000" stroke-width=".1773" points="2693.4149,-253.7778 2683.5997,-249.7888 2688.7851,-259.028 2693.4149,-253.7778"/>
</g>
<!-- 5850&#45;&gt;3702 -->
<g id="edge142" class="edge">
<title>5850&#45;&gt;3702</title>
<path fill="none" stroke="#ff0000" stroke-width=".3658" d="M2164.8296,-212.675C2182.8492,-197.0736 2210.2037,-173.39 2230.4359,-155.8729"/>
<polygon fill="#ff0000" stroke="#ff0000" stroke-width=".3658" points="2232.8088,-158.448 2238.078,-149.2564 2228.2269,-153.1559 2232.8088,-158.448"/>
</g>
<!-- 4704&#45;&gt;ccw -->
<g id="edge113" class="edge">
<title>4704&#45;&gt;ccw</title>
<path fill="none" stroke="#00ff00" stroke-width=".2525" d="M2162.8603,-661.9824C2141.7367,-635.4262 2105.7849,-585.1026 2092,-534.9676 2086.1677,-513.7559 2087.5937,-507.0232 2092,-485.4701 2109.9187,-397.8218 2117.3165,-371.8969 2171,-300.333 2187.3937,-278.4791 2211.84,-259.2073 2230.6481,-246.2186"/>
<polygon fill="#00ff00" stroke="#00ff00" stroke-width=".2525" points="2232.7578,-249.0178 2239.1055,-240.535 2228.8533,-243.2079 2232.7578,-249.0178"/>
</g>
<!-- 4704&#45;&gt;5405 -->
<g id="edge126" class="edge">
<title>4704&#45;&gt;5405</title>
<path fill="none" stroke="#ff0000" stroke-width=".3618" d="M2179,-656.0242C2179,-648.1099 2179,-639.2239 2179,-630.7553"/>
<polygon fill="#ff0000" stroke="#ff0000" stroke-width=".3618" points="2182.5001,-630.7259 2179,-620.7259 2175.5001,-630.726 2182.5001,-630.7259"/>
</g>
<!-- 4704&#45;&gt;3391 -->
<g id="edge123" class="edge">
<title>4704&#45;&gt;3391</title>
<path fill="none" stroke="#ff0000" stroke-width=".2596" d="M2193.78,-660.9828C2201.1226,-649.6728 2209.2179,-634.9668 2213,-620.4651 2236.2685,-531.2478 2221.9256,-421.2153 2212.0388,-366.4674"/>
<polygon fill="#ff0000" stroke="#ff0000" stroke-width=".2596" points="2215.4708,-365.7786 2210.194,-356.5913 2208.5898,-367.064 2215.4708,-365.7786"/>
</g>
<!-- 5473 -->
<g id="node60" class="node">
<title>5473</title>
<ellipse fill="#ffffff" stroke="#000000" cx="2067" cy="-228.9777" rx="25" ry="25"/>
<text text-anchor="middle" x="2067" y="-226.7777" font-family="Times,serif" font-size="9.00" fill="#000000">5473</text>
</g>
<!-- 5473&#45;&gt;5275 -->
<g id="edge131" class="edge">
<title>5473&#45;&gt;5275</title>
<path fill="none" stroke="#ff0000" stroke-width=".302" d="M2084.9609,-211.6972C2092.7251,-205.1118 2102.2565,-198.117 2112,-193.6224 2185.6864,-159.6312 2211.6323,-174.5296 2291,-157.6224 2316.3373,-152.2249 2344.8755,-145.7939 2366.5337,-140.8403"/>
<polygon fill="#ff0000" stroke="#ff0000" stroke-width=".302" points="2367.6047,-144.1856 2376.569,-138.5383 2366.0396,-137.3629 2367.6047,-144.1856"/>
</g>
<!-- 5473&#45;&gt;3949 -->
<g id="edge130" class="edge">
<title>5473&#45;&gt;3949</title>
<path fill="none" stroke="#00ff00" stroke-width=".16" d="M2041.9696,-226.3573C1914.0042,-212.9608 1333.1331,-152.1502 1183.9882,-136.5365"/>
<polygon fill="#00ff00" stroke="#00ff00" stroke-width=".16" points="1184.3181,-133.052 1174.008,-135.4917 1183.5892,-140.0139 1184.3181,-133.052"/>
</g>
<!-- 6503&#45;&gt;left -->
<g id="edge160" class="edge">
<title>6503&#45;&gt;left</title>
<path fill="none" stroke="#ff0000" stroke-width=".9781" d="M3154.6302,-310.0192C3146.4938,-294.1801 3135.4957,-272.7701 3126.8471,-255.9339"/>
<polygon fill="#ff0000" stroke="#ff0000" stroke-width=".9781" points="3129.7484,-253.922 3122.0658,-246.6262 3123.5219,-257.1205 3129.7484,-253.922"/>
</g>
<!-- 5994&#45;&gt;right -->
<g id="edge146" class="edge">
<title>5994&#45;&gt;right</title>
<path fill="none" stroke="#ff0000" stroke-width=".2175" stroke-dasharray="1,5" d="M1749.6587,-118.8247C1756.5037,-114.7696 1764.3368,-110.7385 1772,-108.1249 1865.1615,-76.3507 2167.4869,-47.7833 2268.6646,-38.9014"/>
<polygon fill="#ff0000" stroke="#ff0000" stroke-width=".2175" points="2268.974,-42.3878 2278.6325,-38.0331 2268.3665,-35.4142 2268.974,-42.3878"/>
</g>
<!-- 5746&#45;&gt;right -->
<g id="edge134" class="edge">
<title>5746&#45;&gt;right</title>
<path fill="none" stroke="#ff0000" stroke-width=".2594" d="M1207.051,-210.7953C1234.7413,-182.692 1292.6026,-129.6972 1354,-108.1249 1527.9527,-47.0058 2120.2799,-37.6809 2268.2764,-36.2972"/>
<polygon fill="#ff0000" stroke="#ff0000" stroke-width=".2594" points="2268.5699,-39.7948 2278.5389,-36.2075 2268.5087,-32.7951 2268.5699,-39.7948"/>
</g>
<!-- 5746&#45;&gt;3949 -->
<g id="edge156" class="edge">
<title>5746&#45;&gt;3949</title>
<path fill="none" stroke="#ff0000" stroke-width=".1946" d="M1180.2836,-206.2024C1175.0625,-193.9641 1168.5367,-178.6678 1162.7982,-165.2167"/>
<polygon fill="#ff0000" stroke="#ff0000" stroke-width=".1946" points="1165.9321,-163.643 1158.7888,-155.8185 1159.4936,-166.3899 1165.9321,-163.643"/>
</g>
<!-- 3702&#45;&gt;right -->
<g id="edge101" class="edge">
<title>3702&#45;&gt;right</title>
<path fill="none" stroke="#ff0000" stroke-width=".11" stroke-dasharray="1,5" d="M2267.437,-110.4199C2273.4703,-97.44 2281.1466,-80.9255 2287.7318,-66.7585"/>
<polygon fill="#ff0000" stroke="#ff0000" stroke-width=".11" points="2291.0415,-67.9415 2292.0828,-57.3979 2284.6937,-64.9909 2291.0415,-67.9415"/>
</g>
</g>
</svg>
