<?xml version="1.0" encoding="utf-8" standalone="no"?>
<!DOCTYPE svg PUBLIC "-//W3C//DTD SVG 1.1//EN"
  "http://www.w3.org/Graphics/SVG/1.1/DTD/svg11.dtd">
<!-- Created with matplotlib (https://matplotlib.org/) -->
<svg height="345.6pt" version="1.1" viewBox="0 0 460.8 345.6" width="460.8pt" xmlns="http://www.w3.org/2000/svg" xmlns:xlink="http://www.w3.org/1999/xlink">
 <metadata>
  <rdf:RDF xmlns:cc="http://creativecommons.org/ns#" xmlns:dc="http://purl.org/dc/elements/1.1/" xmlns:rdf="http://www.w3.org/1999/02/22-rdf-syntax-ns#">
   <cc:Work>
    <dc:type rdf:resource="http://purl.org/dc/dcmitype/StillImage"/>
    <dc:date>2021-04-15T01:12:07.891993</dc:date>
    <dc:format>image/svg+xml</dc:format>
    <dc:creator>
     <cc:Agent>
      <dc:title>Matplotlib v3.3.4, https://matplotlib.org/</dc:title>
     </cc:Agent>
    </dc:creator>
   </cc:Work>
  </rdf:RDF>
 </metadata>
 <defs>
  <style type="text/css">*{stroke-linecap:butt;stroke-linejoin:round;}</style>
 </defs>
 <g id="figure_1">
  <g id="patch_1">
   <path d="M 0 345.6 
L 460.8 345.6 
L 460.8 0 
L 0 0 
z
" style="fill:#ffffff;"/>
  </g>
  <g id="axes_1">
   <g id="patch_2">
    <path d="M 57.6 307.584 
L 414.72 307.584 
L 414.72 41.472 
L 57.6 41.472 
z
" style="fill:#ffffff;"/>
   </g>
   <g id="matplotlib.axis_1">
    <g id="xtick_1">
     <g id="line2d_1">
      <path clip-path="url(#p816f37f8b2)" d="M 73.832727 307.584 
L 73.832727 41.472 
" style="fill:none;stroke:#b0b0b0;stroke-linecap:square;stroke-width:0.8;"/>
     </g>
     <g id="line2d_2">
      <defs>
       <path d="M 0 0 
L 0 3.5 
" id="mf4d2d9e344" style="stroke:#000000;stroke-width:0.8;"/>
      </defs>
      <g>
       <use style="stroke:#000000;stroke-width:0.8;" x="73.832727" xlink:href="#mf4d2d9e344" y="307.584"/>
      </g>
     </g>
     <g id="text_1">
      <!-- 0 -->
      <g transform="translate(70.651477 322.182437)scale(0.1 -0.1)">
       <defs>
        <path d="M 31.78125 66.40625 
Q 24.171875 66.40625 20.328125 58.90625 
Q 16.5 51.421875 16.5 36.375 
Q 16.5 21.390625 20.328125 13.890625 
Q 24.171875 6.390625 31.78125 6.390625 
Q 39.453125 6.390625 43.28125 13.890625 
Q 47.125 21.390625 47.125 36.375 
Q 47.125 51.421875 43.28125 58.90625 
Q 39.453125 66.40625 31.78125 66.40625 
z
M 31.78125 74.21875 
Q 44.046875 74.21875 50.515625 64.515625 
Q 56.984375 54.828125 56.984375 36.375 
Q 56.984375 17.96875 50.515625 8.265625 
Q 44.046875 -1.421875 31.78125 -1.421875 
Q 19.53125 -1.421875 13.0625 8.265625 
Q 6.59375 17.96875 6.59375 36.375 
Q 6.59375 54.828125 13.0625 64.515625 
Q 19.53125 74.21875 31.78125 74.21875 
z
" id="DejaVuSans-48"/>
       </defs>
       <use xlink:href="#DejaVuSans-48"/>
      </g>
     </g>
    </g>
    <g id="xtick_2">
     <g id="line2d_3">
      <path clip-path="url(#p816f37f8b2)" d="M 145.342539 307.584 
L 145.342539 41.472 
" style="fill:none;stroke:#b0b0b0;stroke-linecap:square;stroke-width:0.8;"/>
     </g>
     <g id="line2d_4">
      <g>
       <use style="stroke:#000000;stroke-width:0.8;" x="145.342539" xlink:href="#mf4d2d9e344" y="307.584"/>
      </g>
     </g>
     <g id="text_2">
      <!-- 100 -->
      <g transform="translate(135.798789 322.182437)scale(0.1 -0.1)">
       <defs>
        <path d="M 12.40625 8.296875 
L 28.515625 8.296875 
L 28.515625 63.921875 
L 10.984375 60.40625 
L 10.984375 69.390625 
L 28.421875 72.90625 
L 38.28125 72.90625 
L 38.28125 8.296875 
L 54.390625 8.296875 
L 54.390625 0 
L 12.40625 0 
z
" id="DejaVuSans-49"/>
       </defs>
       <use xlink:href="#DejaVuSans-49"/>
       <use x="63.623047" xlink:href="#DejaVuSans-48"/>
       <use x="127.246094" xlink:href="#DejaVuSans-48"/>
      </g>
     </g>
    </g>
    <g id="xtick_3">
     <g id="line2d_5">
      <path clip-path="url(#p816f37f8b2)" d="M 216.852351 307.584 
L 216.852351 41.472 
" style="fill:none;stroke:#b0b0b0;stroke-linecap:square;stroke-width:0.8;"/>
     </g>
     <g id="line2d_6">
      <g>
       <use style="stroke:#000000;stroke-width:0.8;" x="216.852351" xlink:href="#mf4d2d9e344" y="307.584"/>
      </g>
     </g>
     <g id="text_3">
      <!-- 200 -->
      <g transform="translate(207.308601 322.182437)scale(0.1 -0.1)">
       <defs>
        <path d="M 19.1875 8.296875 
L 53.609375 8.296875 
L 53.609375 0 
L 7.328125 0 
L 7.328125 8.296875 
Q 12.9375 14.109375 22.625 23.890625 
Q 32.328125 33.6875 34.8125 36.53125 
Q 39.546875 41.84375 41.421875 45.53125 
Q 43.3125 49.21875 43.3125 52.78125 
Q 43.3125 58.59375 39.234375 62.25 
Q 35.15625 65.921875 28.609375 65.921875 
Q 23.96875 65.921875 18.8125 64.3125 
Q 13.671875 62.703125 7.8125 59.421875 
L 7.8125 69.390625 
Q 13.765625 71.78125 18.9375 73 
Q 24.125 74.21875 28.421875 74.21875 
Q 39.75 74.21875 46.484375 68.546875 
Q 53.21875 62.890625 53.21875 53.421875 
Q 53.21875 48.921875 51.53125 44.890625 
Q 49.859375 40.875 45.40625 35.40625 
Q 44.1875 33.984375 37.640625 27.21875 
Q 31.109375 20.453125 19.1875 8.296875 
z
" id="DejaVuSans-50"/>
       </defs>
       <use xlink:href="#DejaVuSans-50"/>
       <use x="63.623047" xlink:href="#DejaVuSans-48"/>
       <use x="127.246094" xlink:href="#DejaVuSans-48"/>
      </g>
     </g>
    </g>
    <g id="xtick_4">
     <g id="line2d_7">
      <path clip-path="url(#p816f37f8b2)" d="M 288.362163 307.584 
L 288.362163 41.472 
" style="fill:none;stroke:#b0b0b0;stroke-linecap:square;stroke-width:0.8;"/>
     </g>
     <g id="line2d_8">
      <g>
       <use style="stroke:#000000;stroke-width:0.8;" x="288.362163" xlink:href="#mf4d2d9e344" y="307.584"/>
      </g>
     </g>
     <g id="text_4">
      <!-- 300 -->
      <g transform="translate(278.818413 322.182437)scale(0.1 -0.1)">
       <defs>
        <path d="M 40.578125 39.3125 
Q 47.65625 37.796875 51.625 33 
Q 55.609375 28.21875 55.609375 21.1875 
Q 55.609375 10.40625 48.1875 4.484375 
Q 40.765625 -1.421875 27.09375 -1.421875 
Q 22.515625 -1.421875 17.65625 -0.515625 
Q 12.796875 0.390625 7.625 2.203125 
L 7.625 11.71875 
Q 11.71875 9.328125 16.59375 8.109375 
Q 21.484375 6.890625 26.8125 6.890625 
Q 36.078125 6.890625 40.9375 10.546875 
Q 45.796875 14.203125 45.796875 21.1875 
Q 45.796875 27.640625 41.28125 31.265625 
Q 36.765625 34.90625 28.71875 34.90625 
L 20.21875 34.90625 
L 20.21875 43.015625 
L 29.109375 43.015625 
Q 36.375 43.015625 40.234375 45.921875 
Q 44.09375 48.828125 44.09375 54.296875 
Q 44.09375 59.90625 40.109375 62.90625 
Q 36.140625 65.921875 28.71875 65.921875 
Q 24.65625 65.921875 20.015625 65.03125 
Q 15.375 64.15625 9.8125 62.3125 
L 9.8125 71.09375 
Q 15.4375 72.65625 20.34375 73.4375 
Q 25.25 74.21875 29.59375 74.21875 
Q 40.828125 74.21875 47.359375 69.109375 
Q 53.90625 64.015625 53.90625 55.328125 
Q 53.90625 49.265625 50.4375 45.09375 
Q 46.96875 40.921875 40.578125 39.3125 
z
" id="DejaVuSans-51"/>
       </defs>
       <use xlink:href="#DejaVuSans-51"/>
       <use x="63.623047" xlink:href="#DejaVuSans-48"/>
       <use x="127.246094" xlink:href="#DejaVuSans-48"/>
      </g>
     </g>
    </g>
    <g id="xtick_5">
     <g id="line2d_9">
      <path clip-path="url(#p816f37f8b2)" d="M 359.871974 307.584 
L 359.871974 41.472 
" style="fill:none;stroke:#b0b0b0;stroke-linecap:square;stroke-width:0.8;"/>
     </g>
     <g id="line2d_10">
      <g>
       <use style="stroke:#000000;stroke-width:0.8;" x="359.871974" xlink:href="#mf4d2d9e344" y="307.584"/>
      </g>
     </g>
     <g id="text_5">
      <!-- 400 -->
      <g transform="translate(350.328224 322.182437)scale(0.1 -0.1)">
       <defs>
        <path d="M 37.796875 64.3125 
L 12.890625 25.390625 
L 37.796875 25.390625 
z
M 35.203125 72.90625 
L 47.609375 72.90625 
L 47.609375 25.390625 
L 58.015625 25.390625 
L 58.015625 17.1875 
L 47.609375 17.1875 
L 47.609375 0 
L 37.796875 0 
L 37.796875 17.1875 
L 4.890625 17.1875 
L 4.890625 26.703125 
z
" id="DejaVuSans-52"/>
       </defs>
       <use xlink:href="#DejaVuSans-52"/>
       <use x="63.623047" xlink:href="#DejaVuSans-48"/>
       <use x="127.246094" xlink:href="#DejaVuSans-48"/>
      </g>
     </g>
    </g>
    <g id="text_6">
     <!-- Generations -->
     <g transform="translate(205.662344 335.860562)scale(0.1 -0.1)">
      <defs>
       <path d="M 59.515625 10.40625 
L 59.515625 29.984375 
L 43.40625 29.984375 
L 43.40625 38.09375 
L 69.28125 38.09375 
L 69.28125 6.78125 
Q 63.578125 2.734375 56.6875 0.65625 
Q 49.8125 -1.421875 42 -1.421875 
Q 24.90625 -1.421875 15.25 8.5625 
Q 5.609375 18.5625 5.609375 36.375 
Q 5.609375 54.25 15.25 64.234375 
Q 24.90625 74.21875 42 74.21875 
Q 49.125 74.21875 55.546875 72.453125 
Q 61.96875 70.703125 67.390625 67.28125 
L 67.390625 56.78125 
Q 61.921875 61.421875 55.765625 63.765625 
Q 49.609375 66.109375 42.828125 66.109375 
Q 29.4375 66.109375 22.71875 58.640625 
Q 16.015625 51.171875 16.015625 36.375 
Q 16.015625 21.625 22.71875 14.15625 
Q 29.4375 6.6875 42.828125 6.6875 
Q 48.046875 6.6875 52.140625 7.59375 
Q 56.25 8.5 59.515625 10.40625 
z
" id="DejaVuSans-71"/>
       <path d="M 56.203125 29.59375 
L 56.203125 25.203125 
L 14.890625 25.203125 
Q 15.484375 15.921875 20.484375 11.0625 
Q 25.484375 6.203125 34.421875 6.203125 
Q 39.59375 6.203125 44.453125 7.46875 
Q 49.3125 8.734375 54.109375 11.28125 
L 54.109375 2.78125 
Q 49.265625 0.734375 44.1875 -0.34375 
Q 39.109375 -1.421875 33.890625 -1.421875 
Q 20.796875 -1.421875 13.15625 6.1875 
Q 5.515625 13.8125 5.515625 26.8125 
Q 5.515625 40.234375 12.765625 48.109375 
Q 20.015625 56 32.328125 56 
Q 43.359375 56 49.78125 48.890625 
Q 56.203125 41.796875 56.203125 29.59375 
z
M 47.21875 32.234375 
Q 47.125 39.59375 43.09375 43.984375 
Q 39.0625 48.390625 32.421875 48.390625 
Q 24.90625 48.390625 20.390625 44.140625 
Q 15.875 39.890625 15.1875 32.171875 
z
" id="DejaVuSans-101"/>
       <path d="M 54.890625 33.015625 
L 54.890625 0 
L 45.90625 0 
L 45.90625 32.71875 
Q 45.90625 40.484375 42.875 44.328125 
Q 39.84375 48.1875 33.796875 48.1875 
Q 26.515625 48.1875 22.3125 43.546875 
Q 18.109375 38.921875 18.109375 30.90625 
L 18.109375 0 
L 9.078125 0 
L 9.078125 54.6875 
L 18.109375 54.6875 
L 18.109375 46.1875 
Q 21.34375 51.125 25.703125 53.5625 
Q 30.078125 56 35.796875 56 
Q 45.21875 56 50.046875 50.171875 
Q 54.890625 44.34375 54.890625 33.015625 
z
" id="DejaVuSans-110"/>
       <path d="M 41.109375 46.296875 
Q 39.59375 47.171875 37.8125 47.578125 
Q 36.03125 48 33.890625 48 
Q 26.265625 48 22.1875 43.046875 
Q 18.109375 38.09375 18.109375 28.8125 
L 18.109375 0 
L 9.078125 0 
L 9.078125 54.6875 
L 18.109375 54.6875 
L 18.109375 46.1875 
Q 20.953125 51.171875 25.484375 53.578125 
Q 30.03125 56 36.53125 56 
Q 37.453125 56 38.578125 55.875 
Q 39.703125 55.765625 41.0625 55.515625 
z
" id="DejaVuSans-114"/>
       <path d="M 34.28125 27.484375 
Q 23.390625 27.484375 19.1875 25 
Q 14.984375 22.515625 14.984375 16.5 
Q 14.984375 11.71875 18.140625 8.90625 
Q 21.296875 6.109375 26.703125 6.109375 
Q 34.1875 6.109375 38.703125 11.40625 
Q 43.21875 16.703125 43.21875 25.484375 
L 43.21875 27.484375 
z
M 52.203125 31.203125 
L 52.203125 0 
L 43.21875 0 
L 43.21875 8.296875 
Q 40.140625 3.328125 35.546875 0.953125 
Q 30.953125 -1.421875 24.3125 -1.421875 
Q 15.921875 -1.421875 10.953125 3.296875 
Q 6 8.015625 6 15.921875 
Q 6 25.140625 12.171875 29.828125 
Q 18.359375 34.515625 30.609375 34.515625 
L 43.21875 34.515625 
L 43.21875 35.40625 
Q 43.21875 41.609375 39.140625 45 
Q 35.0625 48.390625 27.6875 48.390625 
Q 23 48.390625 18.546875 47.265625 
Q 14.109375 46.140625 10.015625 43.890625 
L 10.015625 52.203125 
Q 14.9375 54.109375 19.578125 55.046875 
Q 24.21875 56 28.609375 56 
Q 40.484375 56 46.34375 49.84375 
Q 52.203125 43.703125 52.203125 31.203125 
z
" id="DejaVuSans-97"/>
       <path d="M 18.3125 70.21875 
L 18.3125 54.6875 
L 36.8125 54.6875 
L 36.8125 47.703125 
L 18.3125 47.703125 
L 18.3125 18.015625 
Q 18.3125 11.328125 20.140625 9.421875 
Q 21.96875 7.515625 27.59375 7.515625 
L 36.8125 7.515625 
L 36.8125 0 
L 27.59375 0 
Q 17.1875 0 13.234375 3.875 
Q 9.28125 7.765625 9.28125 18.015625 
L 9.28125 47.703125 
L 2.6875 47.703125 
L 2.6875 54.6875 
L 9.28125 54.6875 
L 9.28125 70.21875 
z
" id="DejaVuSans-116"/>
       <path d="M 9.421875 54.6875 
L 18.40625 54.6875 
L 18.40625 0 
L 9.421875 0 
z
M 9.421875 75.984375 
L 18.40625 75.984375 
L 18.40625 64.59375 
L 9.421875 64.59375 
z
" id="DejaVuSans-105"/>
       <path d="M 30.609375 48.390625 
Q 23.390625 48.390625 19.1875 42.75 
Q 14.984375 37.109375 14.984375 27.296875 
Q 14.984375 17.484375 19.15625 11.84375 
Q 23.34375 6.203125 30.609375 6.203125 
Q 37.796875 6.203125 41.984375 11.859375 
Q 46.1875 17.53125 46.1875 27.296875 
Q 46.1875 37.015625 41.984375 42.703125 
Q 37.796875 48.390625 30.609375 48.390625 
z
M 30.609375 56 
Q 42.328125 56 49.015625 48.375 
Q 55.71875 40.765625 55.71875 27.296875 
Q 55.71875 13.875 49.015625 6.21875 
Q 42.328125 -1.421875 30.609375 -1.421875 
Q 18.84375 -1.421875 12.171875 6.21875 
Q 5.515625 13.875 5.515625 27.296875 
Q 5.515625 40.765625 12.171875 48.375 
Q 18.84375 56 30.609375 56 
z
" id="DejaVuSans-111"/>
       <path d="M 44.28125 53.078125 
L 44.28125 44.578125 
Q 40.484375 46.53125 36.375 47.5 
Q 32.28125 48.484375 27.875 48.484375 
Q 21.1875 48.484375 17.84375 46.4375 
Q 14.5 44.390625 14.5 40.28125 
Q 14.5 37.15625 16.890625 35.375 
Q 19.28125 33.59375 26.515625 31.984375 
L 29.59375 31.296875 
Q 39.15625 29.25 43.1875 25.515625 
Q 47.21875 21.78125 47.21875 15.09375 
Q 47.21875 7.46875 41.1875 3.015625 
Q 35.15625 -1.421875 24.609375 -1.421875 
Q 20.21875 -1.421875 15.453125 -0.5625 
Q 10.6875 0.296875 5.421875 2 
L 5.421875 11.28125 
Q 10.40625 8.6875 15.234375 7.390625 
Q 20.0625 6.109375 24.8125 6.109375 
Q 31.15625 6.109375 34.5625 8.28125 
Q 37.984375 10.453125 37.984375 14.40625 
Q 37.984375 18.0625 35.515625 20.015625 
Q 33.0625 21.96875 24.703125 23.78125 
L 21.578125 24.515625 
Q 13.234375 26.265625 9.515625 29.90625 
Q 5.8125 33.546875 5.8125 39.890625 
Q 5.8125 47.609375 11.28125 51.796875 
Q 16.75 56 26.8125 56 
Q 31.78125 56 36.171875 55.265625 
Q 40.578125 54.546875 44.28125 53.078125 
z
" id="DejaVuSans-115"/>
      </defs>
      <use xlink:href="#DejaVuSans-71"/>
      <use x="77.490234" xlink:href="#DejaVuSans-101"/>
      <use x="139.013672" xlink:href="#DejaVuSans-110"/>
      <use x="202.392578" xlink:href="#DejaVuSans-101"/>
      <use x="263.916016" xlink:href="#DejaVuSans-114"/>
      <use x="305.029297" xlink:href="#DejaVuSans-97"/>
      <use x="366.308594" xlink:href="#DejaVuSans-116"/>
      <use x="405.517578" xlink:href="#DejaVuSans-105"/>
      <use x="433.300781" xlink:href="#DejaVuSans-111"/>
      <use x="494.482422" xlink:href="#DejaVuSans-110"/>
      <use x="557.861328" xlink:href="#DejaVuSans-115"/>
     </g>
    </g>
   </g>
   <g id="matplotlib.axis_2">
    <g id="ytick_1">
     <g id="line2d_11">
      <path clip-path="url(#p816f37f8b2)" d="M 57.6 231.89667 
L 414.72 231.89667 
" style="fill:none;stroke:#b0b0b0;stroke-linecap:square;stroke-width:0.8;"/>
     </g>
     <g id="line2d_12">
      <defs>
       <path d="M 0 0 
L -3.5 0 
" id="m5947ffb79f" style="stroke:#000000;stroke-width:0.8;"/>
      </defs>
      <g>
       <use style="stroke:#000000;stroke-width:0.8;" x="57.6" xlink:href="#m5947ffb79f" y="231.89667"/>
      </g>
     </g>
     <g id="text_7">
      <!-- $\mathdefault{-10^{4}}$ -->
      <g transform="translate(24.6 235.695888)scale(0.1 -0.1)">
       <defs>
        <path d="M 10.59375 35.5 
L 73.1875 35.5 
L 73.1875 27.203125 
L 10.59375 27.203125 
z
" id="DejaVuSans-8722"/>
       </defs>
       <use transform="translate(0 0.684375)" xlink:href="#DejaVuSans-8722"/>
       <use transform="translate(83.789062 0.684375)" xlink:href="#DejaVuSans-49"/>
       <use transform="translate(147.412109 0.684375)" xlink:href="#DejaVuSans-48"/>
       <use transform="translate(211.992188 38.965625)scale(0.7)" xlink:href="#DejaVuSans-52"/>
      </g>
     </g>
    </g>
    <g id="text_8">
     <!-- Fitness -->
     <g transform="translate(18.520312 191.845187)rotate(-90)scale(0.1 -0.1)">
      <defs>
       <path d="M 9.8125 72.90625 
L 51.703125 72.90625 
L 51.703125 64.59375 
L 19.671875 64.59375 
L 19.671875 43.109375 
L 48.578125 43.109375 
L 48.578125 34.8125 
L 19.671875 34.8125 
L 19.671875 0 
L 9.8125 0 
z
" id="DejaVuSans-70"/>
      </defs>
      <use xlink:href="#DejaVuSans-70"/>
      <use x="50.269531" xlink:href="#DejaVuSans-105"/>
      <use x="78.052734" xlink:href="#DejaVuSans-116"/>
      <use x="117.261719" xlink:href="#DejaVuSans-110"/>
      <use x="180.640625" xlink:href="#DejaVuSans-101"/>
      <use x="242.164062" xlink:href="#DejaVuSans-115"/>
      <use x="294.263672" xlink:href="#DejaVuSans-115"/>
     </g>
    </g>
   </g>
   <g id="line2d_13">
    <path clip-path="url(#p816f37f8b2)" d="M 73.832727 295.488 
L 74.547825 268.284554 
L 75.262924 255.023512 
L 75.978022 251.970335 
L 76.69312 245.658383 
L 77.408218 242.942031 
L 78.123316 234.41793 
L 78.838414 228.689571 
L 79.553512 225.013823 
L 80.26861 225.335975 
L 80.983708 221.478609 
L 81.698807 221.041118 
L 83.129003 205.40546 
L 83.844101 203.661628 
L 84.559199 212.4996 
L 85.274297 212.672642 
L 85.989395 214.489579 
L 86.704493 219.154415 
L 87.419592 215.628524 
L 88.13469 215.142974 
L 88.849788 200.564805 
L 89.564886 206.045765 
L 90.279984 214.115933 
L 90.995082 212.175981 
L 91.71018 209.769485 
L 92.425278 200.835638 
L 93.140376 201.385872 
L 93.855475 205.962881 
L 94.570573 199.345507 
L 95.285671 197.890121 
L 96.000769 200.346205 
L 96.715867 201.517441 
L 97.430965 194.931227 
L 98.146063 202.429356 
L 98.861161 203.749044 
L 99.57626 211.672811 
L 100.291358 206.808106 
L 101.006456 209.596352 
L 101.721554 210.931161 
L 102.436652 204.846176 
L 103.15175 200.476594 
L 103.866848 198.652455 
L 104.581946 184.551042 
L 105.297044 179.923908 
L 106.012143 201.108369 
L 106.727241 196.315983 
L 107.442339 190.168645 
L 108.157437 198.852724 
L 108.872535 205.562027 
L 109.587633 203.173534 
L 110.302731 186.761598 
L 111.732928 199.69921 
L 112.448026 196.436495 
L 113.163124 197.956339 
L 113.878222 175.012463 
L 114.59332 188.331691 
L 115.308418 189.700238 
L 116.023516 186.003257 
L 116.738614 180.701395 
L 117.453712 186.526485 
L 118.168811 191.111764 
L 118.883909 184.958684 
L 119.599007 189.456766 
L 120.314105 187.855239 
L 121.029203 188.772389 
L 121.744301 169.957253 
L 122.459399 186.044054 
L 123.174497 185.786677 
L 123.889596 184.615809 
L 124.604694 192.989253 
L 125.319792 189.219141 
L 126.03489 194.153666 
L 126.749988 207.209014 
L 127.465086 208.634844 
L 128.180184 194.514094 
L 128.895282 198.044177 
L 129.61038 179.037888 
L 131.040577 192.497516 
L 131.755675 195.802307 
L 132.470773 183.878184 
L 133.185871 182.835105 
L 133.900969 177.945699 
L 134.616067 197.958745 
L 135.331165 189.340906 
L 136.046264 193.450655 
L 136.761362 201.142143 
L 137.47646 187.83804 
L 138.191558 185.10699 
L 138.906656 200.574829 
L 139.621754 194.856188 
L 140.336852 196.549558 
L 141.05195 197.030144 
L 141.767048 202.666533 
L 142.482147 210.988862 
L 143.197245 190.887234 
L 143.912343 202.755832 
L 144.627441 206.782826 
L 145.342539 194.588866 
L 146.057637 192.492927 
L 146.772735 178.84189 
L 147.487833 195.310507 
L 148.202932 182.602883 
L 148.91803 200.05429 
L 149.633128 187.091865 
L 150.348226 188.566169 
L 151.063324 180.814294 
L 151.778422 196.108946 
L 152.49352 191.171851 
L 153.208618 189.698533 
L 153.923716 187.222123 
L 154.638815 199.783939 
L 155.353913 190.832926 
L 156.069011 192.067912 
L 156.784109 186.197298 
L 157.499207 202.631915 
L 158.214305 185.736798 
L 158.929403 203.487477 
L 159.644501 201.25555 
L 160.3596 196.654496 
L 161.074698 195.10212 
L 161.789796 202.469872 
L 162.504894 197.892146 
L 163.219992 192.009339 
L 163.93509 195.273951 
L 164.650188 180.18326 
L 165.365286 178.548153 
L 166.080384 190.878022 
L 166.795483 195.316356 
L 167.510581 176.588178 
L 168.225679 194.25222 
L 168.940777 182.84235 
L 169.655875 178.699189 
L 170.370973 177.888861 
L 171.086071 197.09966 
L 171.801169 186.222133 
L 172.516268 178.027468 
L 173.231366 174.202747 
L 173.946464 187.820142 
L 174.661562 189.342939 
L 175.37666 179.246265 
L 176.091758 191.829345 
L 176.806856 194.410752 
L 177.521954 192.910628 
L 178.237052 163.709015 
L 178.952151 189.708774 
L 179.667249 172.032222 
L 180.382347 186.553714 
L 181.097445 186.18809 
L 181.812543 174.870323 
L 182.527641 197.458818 
L 183.242739 178.83501 
L 183.957837 169.464693 
L 184.672936 183.223592 
L 185.388034 172.975219 
L 186.103132 168.72348 
L 186.81823 181.432709 
L 187.533328 182.000455 
L 188.248426 193.456681 
L 188.963524 186.37358 
L 189.678622 183.591221 
L 190.39372 188.575573 
L 191.108819 176.187944 
L 191.823917 193.365617 
L 192.539015 197.171543 
L 193.254113 194.924214 
L 193.969211 195.830658 
L 194.684309 198.62956 
L 195.399407 202.23372 
L 196.114505 192.026377 
L 196.829604 188.785643 
L 197.544702 181.104532 
L 198.2598 191.375184 
L 198.974898 181.437623 
L 199.689996 196.160234 
L 200.405094 202.937147 
L 201.120192 191.341821 
L 201.83529 193.046227 
L 202.550388 201.744838 
L 203.265487 202.29032 
L 203.980585 192.231501 
L 204.695683 193.331312 
L 205.410781 183.80794 
L 206.125879 186.870568 
L 206.840977 186.948481 
L 207.556075 201.07398 
L 208.271173 199.162831 
L 208.986272 212.712186 
L 209.70137 194.905611 
L 210.416468 195.309182 
L 211.131566 198.053119 
L 211.846664 192.814044 
L 212.561762 197.228605 
L 213.27686 183.138747 
L 213.991958 197.955937 
L 214.707056 203.663949 
L 215.422155 186.941858 
L 216.137253 190.668893 
L 216.852351 195.367762 
L 217.567449 193.703733 
L 218.282547 190.070633 
L 218.997645 213.306581 
L 219.712743 193.653015 
L 220.427841 196.89206 
L 221.14294 213.092849 
L 221.858038 205.811989 
L 222.573136 194.394125 
L 223.288234 204.260092 
L 224.003332 200.118179 
L 224.71843 202.75065 
L 225.433528 218.588431 
L 226.863724 207.037086 
L 227.578823 204.840832 
L 228.293921 195.33853 
L 229.009019 190.348572 
L 229.724117 203.156088 
L 230.439215 198.584615 
L 231.154313 190.350712 
L 231.869411 194.968548 
L 232.584509 204.578291 
L 233.299608 204.948934 
L 234.014706 190.567971 
L 234.729804 197.9186 
L 235.444902 203.581559 
L 236.16 205.830529 
L 236.875098 184.262821 
L 237.590196 173.081843 
L 238.305294 177.830714 
L 239.020392 183.778305 
L 239.735491 184.314084 
L 241.165687 193.987951 
L 241.880785 181.442871 
L 242.595883 191.83384 
L 243.310981 178.7168 
L 244.026079 194.962554 
L 244.741177 173.053052 
L 245.456276 185.715572 
L 246.171374 181.614281 
L 246.886472 174.356605 
L 247.60157 183.665473 
L 248.316668 170.734065 
L 249.031766 168.52872 
L 249.746864 181.44219 
L 250.461962 190.001049 
L 251.17706 188.581566 
L 252.607257 198.359423 
L 253.322355 193.990153 
L 254.037453 202.609624 
L 254.752551 200.802165 
L 255.467649 204.376339 
L 256.182747 195.861121 
L 256.897845 199.468581 
L 257.612944 206.086799 
L 258.328042 208.632765 
L 259.04314 205.954715 
L 259.758238 207.125419 
L 260.473336 200.864981 
L 261.188434 186.507928 
L 261.903532 204.131588 
L 262.61863 195.671488 
L 263.333728 195.537319 
L 264.048827 188.223655 
L 264.763925 202.142738 
L 265.479023 188.192469 
L 266.194121 181.501996 
L 266.909219 190.546726 
L 267.624317 195.804251 
L 268.339415 180.245271 
L 269.769612 192.748787 
L 270.48471 189.031955 
L 271.199808 180.67171 
L 271.914906 195.266466 
L 272.630004 200.507974 
L 273.345102 192.714523 
L 274.0602 187.661015 
L 274.775298 187.264152 
L 275.490396 198.083782 
L 276.205495 192.671615 
L 276.920593 204.646438 
L 277.635691 203.282938 
L 279.065887 189.252236 
L 279.780985 194.349733 
L 280.496083 172.317386 
L 281.211181 187.287571 
L 281.92628 177.210333 
L 282.641378 171.835149 
L 283.356476 186.441532 
L 284.071574 177.970054 
L 284.786672 190.429659 
L 285.50177 182.484692 
L 286.216868 180.271215 
L 286.931966 176.474419 
L 287.647064 189.857359 
L 288.362163 196.726066 
L 289.077261 184.640506 
L 289.792359 194.410553 
L 290.507457 193.398468 
L 291.222555 184.027828 
L 291.937653 192.447468 
L 292.652751 199.314335 
L 293.367849 185.19086 
L 294.082948 180.329621 
L 294.798046 183.85553 
L 295.513144 191.929065 
L 296.228242 186.453475 
L 296.94334 184.482944 
L 297.658438 178.361911 
L 298.373536 186.949027 
L 299.088634 181.542612 
L 299.803732 189.013228 
L 300.518831 173.426007 
L 301.233929 199.22708 
L 301.949027 196.703717 
L 302.664125 191.979466 
L 303.379223 185.834849 
L 304.094321 180.862636 
L 304.809419 194.225196 
L 305.524517 203.34206 
L 306.239616 182.006662 
L 306.954714 181.251493 
L 307.669812 190.916961 
L 308.38491 186.668839 
L 309.100008 193.342254 
L 309.815106 193.660789 
L 310.530204 171.006797 
L 311.245302 169.502136 
L 311.9604 188.900686 
L 312.675499 189.361648 
L 313.390597 185.422843 
L 314.105695 174.049629 
L 314.820793 183.761359 
L 315.535891 188.188339 
L 316.250989 184.664348 
L 316.966087 183.051888 
L 317.681185 190.607042 
L 318.396284 199.955539 
L 319.111382 189.201513 
L 319.82648 189.811444 
L 320.541578 200.942081 
L 321.256676 200.317808 
L 321.971774 210.079886 
L 322.686872 200.956386 
L 323.40197 196.960006 
L 324.117068 187.14812 
L 324.832167 201.030227 
L 325.547265 184.446869 
L 326.262363 191.664726 
L 326.977461 191.026158 
L 327.692559 185.02054 
L 328.407657 182.491414 
L 329.122755 182.374324 
L 329.837853 187.140355 
L 330.552952 181.874548 
L 331.26805 185.912091 
L 331.983148 196.638784 
L 332.698246 191.194362 
L 333.413344 195.430736 
L 334.128442 190.17688 
L 335.558638 201.432748 
L 336.273736 193.075642 
L 336.988835 179.106789 
L 337.703933 186.833358 
L 338.419031 202.38265 
L 339.134129 198.299219 
L 339.849227 199.866525 
L 340.564325 208.713788 
L 341.279423 201.87629 
L 341.994521 182.987258 
L 342.70962 177.363435 
L 343.424718 195.987918 
L 344.139816 196.752384 
L 344.854914 179.3717 
L 345.570012 191.172889 
L 346.28511 185.446092 
L 347.000208 185.931353 
L 347.715306 181.646275 
L 348.430404 197.343441 
L 349.145503 183.085371 
L 349.860601 188.619118 
L 350.575699 187.583375 
L 351.290797 185.644776 
L 352.005895 198.613764 
L 352.720993 195.75897 
L 353.436091 201.627494 
L 354.151189 181.957563 
L 354.866288 179.333156 
L 355.581386 179.424096 
L 356.296484 194.226326 
L 357.011582 202.271682 
L 357.72668 191.664202 
L 358.441778 192.724164 
L 359.156876 187.849069 
L 359.871974 193.039179 
L 360.587072 190.604546 
L 361.302171 186.099874 
L 362.017269 190.98952 
L 362.732367 188.983063 
L 363.447465 202.834689 
L 364.162563 186.520749 
L 364.877661 197.427338 
L 365.592759 205.313191 
L 366.307857 204.140798 
L 367.022956 203.637533 
L 367.738054 187.237082 
L 368.453152 202.650928 
L 369.16825 203.829065 
L 369.883348 199.59035 
L 370.598446 186.04421 
L 371.313544 198.58797 
L 372.028642 200.590584 
L 372.74374 195.10373 
L 373.458839 180.581374 
L 374.173937 199.408074 
L 374.889035 202.18536 
L 375.604133 190.225138 
L 376.319231 173.483457 
L 377.034329 195.662904 
L 378.464525 183.001081 
L 379.179624 194.274838 
L 379.894722 200.416118 
L 380.60982 190.817151 
L 382.040016 176.321643 
L 382.755114 180.510718 
L 383.470212 178.575749 
L 384.18531 178.562623 
L 384.900408 169.234273 
L 385.615507 176.492222 
L 386.330605 172.801651 
L 387.045703 186.010941 
L 387.760801 181.129207 
L 388.475899 179.853378 
L 389.190997 195.944519 
L 389.906095 195.228027 
L 390.621193 186.292158 
L 391.336292 198.91845 
L 392.05139 192.159304 
L 392.766488 177.455072 
L 393.481586 198.465941 
L 394.196684 172.787056 
L 394.911782 174.436226 
L 395.62688 180.923797 
L 396.341978 182.837389 
L 397.057076 181.467369 
L 398.487273 190.640128 
L 398.487273 190.640128 
" style="fill:none;stroke:#0000ff;stroke-linecap:square;stroke-width:1.5;"/>
   </g>
   <g id="line2d_14">
    <path clip-path="url(#p816f37f8b2)" d="M 73.832727 262.148204 
L 74.547825 241.017684 
L 75.262924 224.975587 
L 75.978022 221.28422 
L 76.69312 208.801132 
L 77.408218 212.561277 
L 78.123316 197.11474 
L 78.838414 193.873819 
L 79.553512 168.032982 
L 80.983708 176.575383 
L 81.698807 187.301089 
L 82.413905 156.031325 
L 83.129003 153.265034 
L 83.844101 155.156659 
L 84.559199 164.437265 
L 85.274297 146.495826 
L 85.989395 157.479319 
L 86.704493 182.592692 
L 87.419592 161.335282 
L 88.13469 154.991919 
L 88.849788 136.658161 
L 89.564886 164.712531 
L 90.279984 155.020284 
L 90.995082 165.039459 
L 91.71018 145.811983 
L 92.425278 133.211043 
L 93.140376 139.020582 
L 93.855475 135.555475 
L 94.570573 149.297969 
L 95.285671 130.849022 
L 96.000769 132.465315 
L 96.715867 116.83512 
L 97.430965 132.08199 
L 98.146063 138.470805 
L 98.861161 151.907221 
L 99.57626 175.062935 
L 100.291358 145.173701 
L 101.006456 141.051573 
L 101.721554 130.930971 
L 102.436652 151.580691 
L 103.15175 150.527549 
L 103.866848 124.074727 
L 104.581946 108.866754 
L 105.297044 114.180163 
L 106.012143 140.055246 
L 106.727241 137.215138 
L 107.442339 106.110833 
L 108.872535 133.225883 
L 109.587633 137.128828 
L 110.302731 108.235923 
L 111.017829 138.710767 
L 111.732928 133.413336 
L 112.448026 109.298869 
L 113.163124 139.708214 
L 113.878222 119.425455 
L 114.59332 118.228862 
L 115.308418 124.609637 
L 116.023516 113.670992 
L 116.738614 121.867725 
L 117.453712 121.306005 
L 118.168811 122.457016 
L 118.883909 119.69986 
L 119.599007 88.05761 
L 120.314105 120.624532 
L 121.029203 115.538675 
L 121.744301 83.556642 
L 122.459399 132.075641 
L 123.174497 123.794692 
L 123.889596 121.188468 
L 124.604694 145.710285 
L 125.319792 119.147528 
L 126.03489 113.036854 
L 126.749988 148.30459 
L 127.465086 149.040948 
L 128.180184 131.11437 
L 128.895282 133.263414 
L 129.61038 90.912422 
L 130.325479 98.052266 
L 131.040577 109.771547 
L 131.755675 108.031962 
L 132.470773 124.982978 
L 133.185871 123.059591 
L 133.900969 115.097653 
L 134.616067 145.387078 
L 135.331165 121.997294 
L 136.046264 135.799774 
L 136.761362 121.772179 
L 137.47646 96.996861 
L 138.191558 119.642461 
L 139.621754 139.525813 
L 140.336852 140.915371 
L 141.05195 120.13884 
L 141.767048 131.343744 
L 142.482147 151.715609 
L 143.197245 127.932563 
L 143.912343 141.03557 
L 144.627441 134.848649 
L 145.342539 118.629926 
L 146.057637 134.18087 
L 146.772735 104.835305 
L 147.487833 102.969779 
L 148.202932 102.193979 
L 148.91803 127.287412 
L 149.633128 109.316402 
L 150.348226 111.091181 
L 151.063324 102.164269 
L 151.778422 132.353151 
L 152.49352 123.714922 
L 153.208618 119.969366 
L 154.638815 130.083947 
L 155.353913 131.301875 
L 156.069011 128.282009 
L 156.784109 130.058905 
L 157.499207 140.689432 
L 158.214305 122.008777 
L 158.929403 146.883809 
L 160.3596 114.969526 
L 161.074698 103.298812 
L 161.789796 132.031401 
L 162.504894 127.695161 
L 163.219992 128.732815 
L 163.93509 134.399668 
L 164.650188 95.688791 
L 165.365286 109.555077 
L 166.080384 128.533075 
L 166.795483 135.639837 
L 167.510581 96.2578 
L 168.225679 127.736224 
L 168.940777 66.428033 
L 169.655875 106.02751 
L 170.370973 103.04721 
L 171.086071 122.847006 
L 171.801169 123.885365 
L 172.516268 108.270268 
L 173.231366 78.331573 
L 173.946464 108.295743 
L 174.661562 93.002029 
L 175.37666 96.060686 
L 176.091758 104.43626 
L 176.806856 108.206974 
L 177.521954 117.698615 
L 178.237052 78.856906 
L 178.952151 86.183402 
L 179.667249 86.857353 
L 180.382347 108.090461 
L 181.097445 96.046063 
L 181.812543 106.091651 
L 182.527641 119.492485 
L 183.242739 102.725693 
L 183.957837 104.317984 
L 184.672936 89.039064 
L 185.388034 68.837543 
L 186.103132 70.47632 
L 186.81823 93.16201 
L 187.533328 76.671598 
L 188.963524 96.76846 
L 189.678622 98.664934 
L 190.39372 111.631776 
L 191.108819 101.90835 
L 191.823917 76.100291 
L 192.539015 107.024111 
L 193.254113 121.158963 
L 193.969211 127.393351 
L 194.684309 129.522985 
L 195.399407 127.941376 
L 196.829604 86.328684 
L 197.544702 90.593941 
L 198.2598 96.683621 
L 198.974898 70.04922 
L 200.405094 135.343928 
L 201.120192 117.34924 
L 201.83529 122.729744 
L 202.550388 132.427685 
L 203.265487 135.853192 
L 203.980585 104.714531 
L 204.695683 113.298289 
L 205.410781 87.6497 
L 206.125879 94.216598 
L 206.840977 120.800607 
L 207.556075 111.728147 
L 208.271173 129.60594 
L 208.986272 131.832051 
L 209.70137 115.0277 
L 210.416468 114.104435 
L 211.131566 130.893375 
L 211.846664 88.458323 
L 212.561762 120.111223 
L 213.27686 100.576651 
L 213.991958 116.769708 
L 214.707056 137.099169 
L 215.422155 107.237832 
L 216.852351 134.591602 
L 217.567449 141.376064 
L 218.282547 108.14946 
L 218.997645 144.268348 
L 219.712743 134.814868 
L 220.427841 117.195491 
L 221.14294 132.181668 
L 221.858038 112.789396 
L 222.573136 119.529728 
L 223.288234 106.234451 
L 224.003332 100.426785 
L 224.71843 133.666153 
L 225.433528 141.797145 
L 226.148626 136.041387 
L 226.863724 136.135567 
L 227.578823 111.439444 
L 228.293921 124.427054 
L 229.009019 123.090433 
L 229.724117 150.601177 
L 230.439215 139.094859 
L 231.154313 101.479611 
L 231.869411 120.414159 
L 232.584509 128.20798 
L 233.299608 133.325625 
L 234.014706 104.731443 
L 234.729804 96.297165 
L 235.444902 125.761067 
L 236.16 135.987412 
L 236.875098 96.897017 
L 237.590196 81.173247 
L 238.305294 95.076617 
L 239.020392 97.764166 
L 239.735491 102.830756 
L 240.450589 106.906768 
L 241.165687 111.986708 
L 241.880785 64.033885 
L 242.595883 122.982888 
L 243.310981 100.283966 
L 244.026079 71.701338 
L 244.741177 85.138001 
L 245.456276 105.111133 
L 246.171374 85.617938 
L 246.886472 83.59216 
L 247.60157 95.07363 
L 248.316668 71.06187 
L 249.031766 72.447115 
L 249.746864 102.282777 
L 250.461962 103.043823 
L 251.17706 124.018525 
L 251.892159 110.936178 
L 252.607257 101.075855 
L 253.322355 102.684986 
L 254.037453 128.38332 
L 254.752551 98.01521 
L 255.467649 130.828985 
L 256.182747 107.75082 
L 256.897845 112.352145 
L 257.612944 135.51282 
L 258.328042 131.298136 
L 259.04314 109.192239 
L 259.758238 119.88575 
L 260.473336 133.450952 
L 261.188434 106.761858 
L 261.903532 135.001404 
L 262.61863 125.404806 
L 263.333728 136.453866 
L 264.048827 99.270754 
L 264.763925 107.079763 
L 265.479023 108.676304 
L 266.194121 109.99613 
L 266.909219 90.094545 
L 267.624317 120.474629 
L 268.339415 97.422018 
L 269.054513 90.636051 
L 269.769612 118.87274 
L 270.48471 124.245207 
L 271.199808 105.140814 
L 271.914906 123.987859 
L 272.630004 117.054295 
L 273.345102 133.472899 
L 274.0602 91.702666 
L 274.775298 126.468228 
L 275.490396 126.850554 
L 276.205495 123.570561 
L 276.920593 126.193969 
L 277.635691 139.324053 
L 278.350789 133.886265 
L 279.065887 118.592773 
L 279.780985 109.616709 
L 280.496083 98.226944 
L 281.211181 107.873061 
L 281.92628 106.181476 
L 283.356476 121.347731 
L 284.071574 96.368547 
L 284.786672 124.760945 
L 285.50177 120.279079 
L 286.216868 109.547004 
L 286.931966 108.019692 
L 287.647064 111.205842 
L 288.362163 133.362842 
L 289.077261 120.322455 
L 289.792359 95.806349 
L 290.507457 120.91287 
L 291.222555 109.356536 
L 291.937653 106.651894 
L 292.652751 128.92852 
L 293.367849 91.08075 
L 294.082948 86.147757 
L 294.798046 111.367144 
L 295.513144 91.566439 
L 296.228242 106.401862 
L 296.94334 86.086443 
L 297.658438 101.353474 
L 298.373536 108.620163 
L 299.088634 119.003873 
L 299.803732 97.356949 
L 300.518831 103.171144 
L 301.233929 118.346059 
L 301.949027 125.64205 
L 302.664125 135.320395 
L 303.379223 106.940931 
L 304.094321 91.672826 
L 304.809419 134.084668 
L 305.524517 131.491384 
L 306.239616 101.984301 
L 306.954714 101.577525 
L 307.669812 90.504283 
L 308.38491 98.957136 
L 309.100008 102.81927 
L 309.815106 114.524012 
L 310.530204 84.266621 
L 311.245302 95.709684 
L 311.9604 79.094553 
L 312.675499 120.86546 
L 313.390597 98.072052 
L 314.105695 90.832189 
L 314.820793 107.561167 
L 315.535891 115.451625 
L 316.250989 92.215318 
L 316.966087 91.864789 
L 317.681185 108.711578 
L 318.396284 141.320653 
L 319.111382 116.230561 
L 319.82648 115.367967 
L 320.541578 109.845168 
L 321.256676 134.916749 
L 321.971774 130.720136 
L 322.686872 133.72667 
L 323.40197 126.794071 
L 324.117068 99.413626 
L 324.832167 122.376803 
L 325.547265 75.936017 
L 326.262363 121.462167 
L 326.977461 89.590479 
L 327.692559 76.444878 
L 328.407657 108.323561 
L 329.122755 96.792281 
L 329.837853 102.090911 
L 330.552952 108.753904 
L 331.983148 96.665657 
L 332.698246 109.055204 
L 333.413344 123.991318 
L 334.128442 117.422757 
L 335.558638 143.906206 
L 336.273736 107.93729 
L 336.988835 96.399802 
L 337.703933 108.246563 
L 338.419031 79.334863 
L 339.134129 109.801 
L 339.849227 117.366382 
L 340.564325 133.322444 
L 341.279423 127.306017 
L 341.994521 97.686138 
L 342.70962 91.819851 
L 343.424718 135.454392 
L 344.139816 108.271372 
L 344.854914 99.031886 
L 345.570012 111.81156 
L 346.28511 99.03369 
L 347.000208 93.228893 
L 347.715306 81.108242 
L 348.430404 116.395194 
L 349.145503 109.731156 
L 349.860601 115.708872 
L 350.575699 104.700699 
L 351.290797 90.293378 
L 352.005895 109.635593 
L 352.720993 124.695445 
L 353.436091 115.154027 
L 354.151189 115.185084 
L 354.866288 95.546382 
L 356.296484 122.603145 
L 357.011582 129.697812 
L 357.72668 86.144272 
L 358.441778 102.754418 
L 359.156876 113.190986 
L 359.871974 102.200617 
L 360.587072 120.143809 
L 361.302171 111.424027 
L 362.017269 108.254893 
L 362.732367 113.075524 
L 363.447465 127.548723 
L 364.162563 100.667512 
L 364.877661 103.827028 
L 365.592759 145.651058 
L 366.307857 104.858985 
L 367.022956 141.573708 
L 367.738054 129.826361 
L 368.453152 129.177423 
L 369.16825 144.054769 
L 369.883348 114.492999 
L 370.598446 111.194533 
L 371.313544 123.081584 
L 372.028642 130.41621 
L 372.74374 110.013935 
L 373.458839 101.20143 
L 374.173937 148.45225 
L 374.889035 106.202823 
L 375.604133 111.288881 
L 376.319231 94.879682 
L 377.034329 127.078662 
L 377.749427 113.6615 
L 378.464525 112.357171 
L 379.179624 129.212438 
L 379.894722 135.969639 
L 380.60982 141.482789 
L 381.324918 112.922071 
L 382.040016 91.382128 
L 382.755114 88.414819 
L 383.470212 95.801402 
L 384.18531 111.020421 
L 384.900408 91.029394 
L 385.615507 109.415118 
L 386.330605 97.346688 
L 387.045703 123.800592 
L 387.760801 103.736746 
L 388.475899 71.869078 
L 389.190997 108.734121 
L 389.906095 136.301218 
L 390.621193 128.771177 
L 391.336292 143.2382 
L 392.05139 108.464686 
L 392.766488 53.568 
L 393.481586 139.763304 
L 394.196684 83.604464 
L 394.911782 61.141886 
L 395.62688 112.211017 
L 396.341978 104.505714 
L 397.057076 113.677419 
L 397.772175 118.576395 
L 398.487273 99.935646 
L 398.487273 99.935646 
" style="fill:none;stroke:#ff0000;stroke-linecap:square;stroke-width:1.5;"/>
   </g>
   <g id="patch_3">
    <path d="M 57.6 307.584 
L 57.6 41.472 
" style="fill:none;stroke:#000000;stroke-linecap:square;stroke-linejoin:miter;stroke-width:0.8;"/>
   </g>
   <g id="patch_4">
    <path d="M 414.72 307.584 
L 414.72 41.472 
" style="fill:none;stroke:#000000;stroke-linecap:square;stroke-linejoin:miter;stroke-width:0.8;"/>
   </g>
   <g id="patch_5">
    <path d="M 57.6 307.584 
L 414.72 307.584 
" style="fill:none;stroke:#000000;stroke-linecap:square;stroke-linejoin:miter;stroke-width:0.8;"/>
   </g>
   <g id="patch_6">
    <path d="M 57.6 41.472 
L 414.72 41.472 
" style="fill:none;stroke:#000000;stroke-linecap:square;stroke-linejoin:miter;stroke-width:0.8;"/>
   </g>
   <g id="text_9">
    <!-- Population's average and best fitness -->
    <g transform="translate(123.529687 35.472)scale(0.12 -0.12)">
     <defs>
      <path d="M 19.671875 64.796875 
L 19.671875 37.40625 
L 32.078125 37.40625 
Q 38.96875 37.40625 42.71875 40.96875 
Q 46.484375 44.53125 46.484375 51.125 
Q 46.484375 57.671875 42.71875 61.234375 
Q 38.96875 64.796875 32.078125 64.796875 
z
M 9.8125 72.90625 
L 32.078125 72.90625 
Q 44.34375 72.90625 50.609375 67.359375 
Q 56.890625 61.8125 56.890625 51.125 
Q 56.890625 40.328125 50.609375 34.8125 
Q 44.34375 29.296875 32.078125 29.296875 
L 19.671875 29.296875 
L 19.671875 0 
L 9.8125 0 
z
" id="DejaVuSans-80"/>
      <path d="M 18.109375 8.203125 
L 18.109375 -20.796875 
L 9.078125 -20.796875 
L 9.078125 54.6875 
L 18.109375 54.6875 
L 18.109375 46.390625 
Q 20.953125 51.265625 25.265625 53.625 
Q 29.59375 56 35.59375 56 
Q 45.5625 56 51.78125 48.09375 
Q 58.015625 40.1875 58.015625 27.296875 
Q 58.015625 14.40625 51.78125 6.484375 
Q 45.5625 -1.421875 35.59375 -1.421875 
Q 29.59375 -1.421875 25.265625 0.953125 
Q 20.953125 3.328125 18.109375 8.203125 
z
M 48.6875 27.296875 
Q 48.6875 37.203125 44.609375 42.84375 
Q 40.53125 48.484375 33.40625 48.484375 
Q 26.265625 48.484375 22.1875 42.84375 
Q 18.109375 37.203125 18.109375 27.296875 
Q 18.109375 17.390625 22.1875 11.75 
Q 26.265625 6.109375 33.40625 6.109375 
Q 40.53125 6.109375 44.609375 11.75 
Q 48.6875 17.390625 48.6875 27.296875 
z
" id="DejaVuSans-112"/>
      <path d="M 8.5 21.578125 
L 8.5 54.6875 
L 17.484375 54.6875 
L 17.484375 21.921875 
Q 17.484375 14.15625 20.5 10.265625 
Q 23.53125 6.390625 29.59375 6.390625 
Q 36.859375 6.390625 41.078125 11.03125 
Q 45.3125 15.671875 45.3125 23.6875 
L 45.3125 54.6875 
L 54.296875 54.6875 
L 54.296875 0 
L 45.3125 0 
L 45.3125 8.40625 
Q 42.046875 3.421875 37.71875 1 
Q 33.40625 -1.421875 27.6875 -1.421875 
Q 18.265625 -1.421875 13.375 4.4375 
Q 8.5 10.296875 8.5 21.578125 
z
M 31.109375 56 
z
" id="DejaVuSans-117"/>
      <path d="M 9.421875 75.984375 
L 18.40625 75.984375 
L 18.40625 0 
L 9.421875 0 
z
" id="DejaVuSans-108"/>
      <path d="M 17.921875 72.90625 
L 17.921875 45.796875 
L 9.625 45.796875 
L 9.625 72.90625 
z
" id="DejaVuSans-39"/>
      <path id="DejaVuSans-32"/>
      <path d="M 2.984375 54.6875 
L 12.5 54.6875 
L 29.59375 8.796875 
L 46.6875 54.6875 
L 56.203125 54.6875 
L 35.6875 0 
L 23.484375 0 
z
" id="DejaVuSans-118"/>
      <path d="M 45.40625 27.984375 
Q 45.40625 37.75 41.375 43.109375 
Q 37.359375 48.484375 30.078125 48.484375 
Q 22.859375 48.484375 18.828125 43.109375 
Q 14.796875 37.75 14.796875 27.984375 
Q 14.796875 18.265625 18.828125 12.890625 
Q 22.859375 7.515625 30.078125 7.515625 
Q 37.359375 7.515625 41.375 12.890625 
Q 45.40625 18.265625 45.40625 27.984375 
z
M 54.390625 6.78125 
Q 54.390625 -7.171875 48.1875 -13.984375 
Q 42 -20.796875 29.203125 -20.796875 
Q 24.46875 -20.796875 20.265625 -20.09375 
Q 16.0625 -19.390625 12.109375 -17.921875 
L 12.109375 -9.1875 
Q 16.0625 -11.328125 19.921875 -12.34375 
Q 23.78125 -13.375 27.78125 -13.375 
Q 36.625 -13.375 41.015625 -8.765625 
Q 45.40625 -4.15625 45.40625 5.171875 
L 45.40625 9.625 
Q 42.625 4.78125 38.28125 2.390625 
Q 33.9375 0 27.875 0 
Q 17.828125 0 11.671875 7.65625 
Q 5.515625 15.328125 5.515625 27.984375 
Q 5.515625 40.671875 11.671875 48.328125 
Q 17.828125 56 27.875 56 
Q 33.9375 56 38.28125 53.609375 
Q 42.625 51.21875 45.40625 46.390625 
L 45.40625 54.6875 
L 54.390625 54.6875 
z
" id="DejaVuSans-103"/>
      <path d="M 45.40625 46.390625 
L 45.40625 75.984375 
L 54.390625 75.984375 
L 54.390625 0 
L 45.40625 0 
L 45.40625 8.203125 
Q 42.578125 3.328125 38.25 0.953125 
Q 33.9375 -1.421875 27.875 -1.421875 
Q 17.96875 -1.421875 11.734375 6.484375 
Q 5.515625 14.40625 5.515625 27.296875 
Q 5.515625 40.1875 11.734375 48.09375 
Q 17.96875 56 27.875 56 
Q 33.9375 56 38.25 53.625 
Q 42.578125 51.265625 45.40625 46.390625 
z
M 14.796875 27.296875 
Q 14.796875 17.390625 18.875 11.75 
Q 22.953125 6.109375 30.078125 6.109375 
Q 37.203125 6.109375 41.296875 11.75 
Q 45.40625 17.390625 45.40625 27.296875 
Q 45.40625 37.203125 41.296875 42.84375 
Q 37.203125 48.484375 30.078125 48.484375 
Q 22.953125 48.484375 18.875 42.84375 
Q 14.796875 37.203125 14.796875 27.296875 
z
" id="DejaVuSans-100"/>
      <path d="M 48.6875 27.296875 
Q 48.6875 37.203125 44.609375 42.84375 
Q 40.53125 48.484375 33.40625 48.484375 
Q 26.265625 48.484375 22.1875 42.84375 
Q 18.109375 37.203125 18.109375 27.296875 
Q 18.109375 17.390625 22.1875 11.75 
Q 26.265625 6.109375 33.40625 6.109375 
Q 40.53125 6.109375 44.609375 11.75 
Q 48.6875 17.390625 48.6875 27.296875 
z
M 18.109375 46.390625 
Q 20.953125 51.265625 25.265625 53.625 
Q 29.59375 56 35.59375 56 
Q 45.5625 56 51.78125 48.09375 
Q 58.015625 40.1875 58.015625 27.296875 
Q 58.015625 14.40625 51.78125 6.484375 
Q 45.5625 -1.421875 35.59375 -1.421875 
Q 29.59375 -1.421875 25.265625 0.953125 
Q 20.953125 3.328125 18.109375 8.203125 
L 18.109375 0 
L 9.078125 0 
L 9.078125 75.984375 
L 18.109375 75.984375 
z
" id="DejaVuSans-98"/>
      <path d="M 37.109375 75.984375 
L 37.109375 68.5 
L 28.515625 68.5 
Q 23.6875 68.5 21.796875 66.546875 
Q 19.921875 64.59375 19.921875 59.515625 
L 19.921875 54.6875 
L 34.71875 54.6875 
L 34.71875 47.703125 
L 19.921875 47.703125 
L 19.921875 0 
L 10.890625 0 
L 10.890625 47.703125 
L 2.296875 47.703125 
L 2.296875 54.6875 
L 10.890625 54.6875 
L 10.890625 58.5 
Q 10.890625 67.625 15.140625 71.796875 
Q 19.390625 75.984375 28.609375 75.984375 
z
" id="DejaVuSans-102"/>
     </defs>
     <use xlink:href="#DejaVuSans-80"/>
     <use x="56.677734" xlink:href="#DejaVuSans-111"/>
     <use x="117.859375" xlink:href="#DejaVuSans-112"/>
     <use x="181.335938" xlink:href="#DejaVuSans-117"/>
     <use x="244.714844" xlink:href="#DejaVuSans-108"/>
     <use x="272.498047" xlink:href="#DejaVuSans-97"/>
     <use x="333.777344" xlink:href="#DejaVuSans-116"/>
     <use x="372.986328" xlink:href="#DejaVuSans-105"/>
     <use x="400.769531" xlink:href="#DejaVuSans-111"/>
     <use x="461.951172" xlink:href="#DejaVuSans-110"/>
     <use x="525.330078" xlink:href="#DejaVuSans-39"/>
     <use x="552.820312" xlink:href="#DejaVuSans-115"/>
     <use x="604.919922" xlink:href="#DejaVuSans-32"/>
     <use x="636.707031" xlink:href="#DejaVuSans-97"/>
     <use x="697.986328" xlink:href="#DejaVuSans-118"/>
     <use x="757.166016" xlink:href="#DejaVuSans-101"/>
     <use x="818.689453" xlink:href="#DejaVuSans-114"/>
     <use x="859.802734" xlink:href="#DejaVuSans-97"/>
     <use x="921.082031" xlink:href="#DejaVuSans-103"/>
     <use x="984.558594" xlink:href="#DejaVuSans-101"/>
     <use x="1046.082031" xlink:href="#DejaVuSans-32"/>
     <use x="1077.869141" xlink:href="#DejaVuSans-97"/>
     <use x="1139.148438" xlink:href="#DejaVuSans-110"/>
     <use x="1202.527344" xlink:href="#DejaVuSans-100"/>
     <use x="1266.003906" xlink:href="#DejaVuSans-32"/>
     <use x="1297.791016" xlink:href="#DejaVuSans-98"/>
     <use x="1361.267578" xlink:href="#DejaVuSans-101"/>
     <use x="1422.791016" xlink:href="#DejaVuSans-115"/>
     <use x="1474.890625" xlink:href="#DejaVuSans-116"/>
     <use x="1514.099609" xlink:href="#DejaVuSans-32"/>
     <use x="1545.886719" xlink:href="#DejaVuSans-102"/>
     <use x="1581.091797" xlink:href="#DejaVuSans-105"/>
     <use x="1608.875" xlink:href="#DejaVuSans-116"/>
     <use x="1648.083984" xlink:href="#DejaVuSans-110"/>
     <use x="1711.462891" xlink:href="#DejaVuSans-101"/>
     <use x="1772.986328" xlink:href="#DejaVuSans-115"/>
     <use x="1825.085938" xlink:href="#DejaVuSans-115"/>
    </g>
   </g>
   <g id="legend_1">
    <g id="patch_7">
     <path d="M 64.6 78.82825 
L 137.540625 78.82825 
Q 139.540625 78.82825 139.540625 76.82825 
L 139.540625 48.472 
Q 139.540625 46.472 137.540625 46.472 
L 64.6 46.472 
Q 62.6 46.472 62.6 48.472 
L 62.6 76.82825 
Q 62.6 78.82825 64.6 78.82825 
z
" style="fill:#ffffff;opacity:0.8;stroke:#cccccc;stroke-linejoin:miter;"/>
    </g>
    <g id="line2d_15">
     <path d="M 66.6 54.570437 
L 86.6 54.570437 
" style="fill:none;stroke:#0000ff;stroke-linecap:square;stroke-width:1.5;"/>
    </g>
    <g id="line2d_16"/>
    <g id="text_10">
     <!-- average -->
     <g transform="translate(94.6 58.070437)scale(0.1 -0.1)">
      <use xlink:href="#DejaVuSans-97"/>
      <use x="61.279297" xlink:href="#DejaVuSans-118"/>
      <use x="120.458984" xlink:href="#DejaVuSans-101"/>
      <use x="181.982422" xlink:href="#DejaVuSans-114"/>
      <use x="223.095703" xlink:href="#DejaVuSans-97"/>
      <use x="284.375" xlink:href="#DejaVuSans-103"/>
      <use x="347.851562" xlink:href="#DejaVuSans-101"/>
     </g>
    </g>
    <g id="line2d_17">
     <path d="M 66.6 69.248562 
L 86.6 69.248562 
" style="fill:none;stroke:#ff0000;stroke-linecap:square;stroke-width:1.5;"/>
    </g>
    <g id="line2d_18"/>
    <g id="text_11">
     <!-- best -->
     <g transform="translate(94.6 72.748562)scale(0.1 -0.1)">
      <use xlink:href="#DejaVuSans-98"/>
      <use x="63.476562" xlink:href="#DejaVuSans-101"/>
      <use x="125" xlink:href="#DejaVuSans-115"/>
      <use x="177.099609" xlink:href="#DejaVuSans-116"/>
     </g>
    </g>
   </g>
  </g>
 </g>
 <defs>
  <clipPath id="p816f37f8b2">
   <rect height="266.112" width="357.12" x="57.6" y="41.472"/>
  </clipPath>
 </defs>
</svg>
