<?xml version="1.0" encoding="UTF-8" standalone="no"?>
<!DOCTYPE svg PUBLIC "-//W3C//DTD SVG 1.1//EN"
 "http://www.w3.org/Graphics/SVG/1.1/DTD/svg11.dtd">
<!-- Generated by graphviz version 2.40.1 (20161225.0304)
 -->
<!-- Title: %3 Pages: 1 -->
<svg width="1757pt" height="213pt"
 viewBox="0.00 0.00 1756.58 212.55" xmlns="http://www.w3.org/2000/svg" xmlns:xlink="http://www.w3.org/1999/xlink">
<g id="graph0" class="graph" transform="scale(1 1) rotate(0) translate(4 208.5513)">
<title>%3</title>
<polygon fill="#ffffff" stroke="transparent" points="-4,4 -4,-208.5513 1752.577,-208.5513 1752.577,4 -4,4"/>
<!-- A_agent -->
<g id="node1" class="node">
<title>A_agent</title>
<polygon fill="#d3d3d3" stroke="#000000" points="945.8638,-138.3381 898.8638,-138.3381 898.8638,-120.3381 945.8638,-120.3381 945.8638,-138.3381"/>
<text text-anchor="middle" x="922.3638" y="-127.1381" font-family="Times,serif" font-size="9.00" fill="#000000">A_agent</text>
</g>
<!-- no_move -->
<g id="node25" class="node">
<title>no_move</title>
<ellipse fill="#add8e6" stroke="#000000" cx="701.3638" cy="-36.0624" rx="35.2113" ry="35.2113"/>
<text text-anchor="middle" x="701.3638" y="-33.8624" font-family="Times,serif" font-size="9.00" fill="#000000">no_move</text>
</g>
<!-- A_agent&#45;&gt;no_move -->
<g id="edge47" class="edge">
<title>A_agent&#45;&gt;no_move</title>
<path fill="none" stroke="#ff0000" stroke-width=".3532" d="M909.9871,-120.2049C904.2066,-116.1855 897.1217,-111.5989 890.3638,-108.1249 842.6287,-83.5861 784.5231,-62.6615 745.4455,-49.7825"/>
<polygon fill="#ff0000" stroke="#ff0000" stroke-width=".3532" points="746.0385,-46.2947 735.4462,-46.5257 743.8706,-52.9506 746.0385,-46.2947"/>
</g>
<!-- ccw -->
<g id="node29" class="node">
<title>ccw</title>
<ellipse fill="#add8e6" stroke="#000000" cx="922.3638" cy="-36.0624" rx="21.8409" ry="21.8409"/>
<text text-anchor="middle" x="922.3638" y="-33.8624" font-family="Times,serif" font-size="9.00" fill="#000000">ccw</text>
</g>
<!-- A_agent&#45;&gt;ccw -->
<g id="edge67" class="edge">
<title>A_agent&#45;&gt;ccw</title>
<path fill="none" stroke="#00ff00" stroke-width=".3782" d="M922.3638,-120.0535C922.3638,-108.1122 922.3638,-86.7426 922.3638,-68.5477"/>
<polygon fill="#00ff00" stroke="#00ff00" stroke-width=".3782" points="925.8639,-68.2969 922.3638,-58.2969 918.8639,-68.2969 925.8639,-68.2969"/>
</g>
<!-- A_lm -->
<g id="node2" class="node">
<title>A_lm</title>
<polygon fill="#d3d3d3" stroke="#000000" points="290.8638,-138.3381 253.8638,-138.3381 253.8638,-120.3381 290.8638,-120.3381 290.8638,-138.3381"/>
<text text-anchor="middle" x="272.3638" y="-127.1381" font-family="Times,serif" font-size="9.00" fill="#000000">A_lm</text>
</g>
<!-- A_lm&#45;&gt;no_move -->
<g id="edge37" class="edge">
<title>A_lm&#45;&gt;no_move</title>
<path fill="none" stroke="#00ff00" stroke-width=".6098" d="M281.9564,-120.1251C287.0356,-115.7811 293.6101,-110.9438 300.3638,-108.1249 404.3653,-64.7159 440.6777,-93.3198 551.3638,-72.1249 587.1314,-65.2759 627.2192,-55.5291 656.9481,-47.8949"/>
<polygon fill="#00ff00" stroke="#00ff00" stroke-width=".6098" points="658.2037,-51.1853 667.0075,-45.2909 656.4495,-44.4087 658.2037,-51.1853"/>
</g>
<!-- forward -->
<g id="node26" class="node">
<title>forward</title>
<ellipse fill="#add8e6" stroke="#000000" cx="510.3638" cy="-36.0624" rx="31.6406" ry="31.6406"/>
<text text-anchor="middle" x="510.3638" y="-33.8624" font-family="Times,serif" font-size="9.00" fill="#000000">forward</text>
</g>
<!-- A_lm&#45;&gt;forward -->
<g id="edge40" class="edge">
<title>A_lm&#45;&gt;forward</title>
<path fill="none" stroke="#00ff00" stroke-width=".5091" d="M282.0401,-120.3165C287.1407,-116.0213 293.7089,-111.1699 300.3638,-108.1249 370.1972,-76.1723 400.7439,-106.6065 469.3638,-72.1249 472.977,-70.3093 476.5244,-68.0975 479.9276,-65.6719"/>
<polygon fill="#00ff00" stroke="#00ff00" stroke-width=".5091" points="482.3361,-68.2311 488.0456,-59.3062 478.0167,-62.7226 482.3361,-68.2311"/>
</g>
<!-- backward -->
<g id="node27" class="node">
<title>backward</title>
<ellipse fill="#add8e6" stroke="#000000" cx="424.3638" cy="-36.0624" rx="36.125" ry="36.125"/>
<text text-anchor="middle" x="424.3638" y="-33.8624" font-family="Times,serif" font-size="9.00" fill="#000000">backward</text>
</g>
<!-- A_lm&#45;&gt;backward -->
<g id="edge30" class="edge">
<title>A_lm&#45;&gt;backward</title>
<path fill="none" stroke="#00ff00" stroke-width=".8804" stroke-dasharray="1,5" d="M283.8487,-120.1367C288.8248,-116.2822 294.7797,-111.8428 300.3638,-108.1249 327.2873,-90.1993 358.816,-71.9104 383.3436,-58.2425"/>
<polygon fill="#00ff00" stroke="#00ff00" stroke-width=".8804" points="385.3239,-61.1468 392.377,-53.2409 381.9331,-55.0228 385.3239,-61.1468"/>
</g>
<!-- A_wall -->
<g id="node3" class="node">
<title>A_wall</title>
<polygon fill="#d3d3d3" stroke="#000000" points="120.8638,-138.3381 77.8638,-138.3381 77.8638,-120.3381 120.8638,-120.3381 120.8638,-138.3381"/>
<text text-anchor="middle" x="99.3638" y="-127.1381" font-family="Times,serif" font-size="9.00" fill="#000000">A_wall</text>
</g>
<!-- A_wall&#45;&gt;backward -->
<g id="edge71" class="edge">
<title>A_wall&#45;&gt;backward</title>
<path fill="none" stroke="#00ff00" stroke-width=".5696" d="M112.5623,-120.3173C119.1737,-116.1272 127.4413,-111.3669 135.3638,-108.1249 217.9831,-74.3159 320.5969,-53.3347 378.667,-43.2551"/>
<polygon fill="#00ff00" stroke="#00ff00" stroke-width=".5696" points="379.3613,-46.6873 388.6311,-41.557 378.1852,-39.7868 379.3613,-46.6873"/>
</g>
<!-- B_agent -->
<g id="node4" class="node">
<title>B_agent</title>
<polygon fill="#d3d3d3" stroke="#000000" points="117.3638,-204.5513 71.3638,-204.5513 71.3638,-186.5513 117.3638,-186.5513 117.3638,-204.5513"/>
<text text-anchor="middle" x="94.3638" y="-193.3513" font-family="Times,serif" font-size="9.00" fill="#000000">B_agent</text>
</g>
<!-- B_agent&#45;&gt;forward -->
<g id="edge22" class="edge">
<title>B_agent&#45;&gt;forward</title>
<path fill="none" stroke="#00ff00" stroke-width=".2312" stroke-dasharray="1,5" d="M101.8542,-186.4707C117.574,-168.1212 156.0665,-126.7885 198.3638,-108.1249 309.5257,-59.075 358.7577,-122.4155 469.3638,-72.1249 473.0449,-70.4512 476.6375,-68.334 480.069,-65.9676"/>
<polygon fill="#00ff00" stroke="#00ff00" stroke-width=".2312" points="482.4407,-68.5587 488.2256,-59.6826 478.1681,-63.0138 482.4407,-68.5587"/>
</g>
<!-- B_agent&#45;&gt;backward -->
<g id="edge61" class="edge">
<title>B_agent&#45;&gt;backward</title>
<path fill="none" stroke="#ff0000" stroke-width=".2755" stroke-dasharray="1,5" d="M71.0838,-190.4986C50.5638,-184.6786 21.8901,-172.8951 8.3638,-150.5513 -1.4012,-134.4206 -3.7784,-122.5513 8.3638,-108.1249 55.2131,-52.4624 279.5571,-39.7941 377.9454,-36.9114"/>
<polygon fill="#ff0000" stroke="#ff0000" stroke-width=".2755" points="378.2826,-40.4036 388.184,-36.6336 378.0927,-33.4062 378.2826,-40.4036"/>
</g>
<!-- cw -->
<g id="node30" class="node">
<title>cw</title>
<ellipse fill="#add8e6" stroke="#000000" cx="1316.3638" cy="-36.0624" rx="19.1842" ry="19.1842"/>
<text text-anchor="middle" x="1316.3638" y="-33.8624" font-family="Times,serif" font-size="9.00" fill="#000000">cw</text>
</g>
<!-- B_agent&#45;&gt;cw -->
<g id="edge68" class="edge">
<title>B_agent&#45;&gt;cw</title>
<path fill="none" stroke="#ff0000" stroke-width=".5089" d="M117.5178,-195.0895C307.8474,-191.2674 1607.6659,-164.6588 1621.3638,-150.5513 1705.4148,-63.9869 1437.589,-42.1907 1345.9675,-37.3296"/>
<polygon fill="#ff0000" stroke="#ff0000" stroke-width=".5089" points="1345.8652,-33.8202 1335.7032,-36.8175 1345.5163,-40.8115 1345.8652,-33.8202"/>
</g>
<!-- 125 -->
<g id="node32" class="node">
<title>125</title>
<ellipse fill="#ffffff" stroke="#000000" cx="38.3638" cy="-129.3381" rx="21.4286" ry="21.4286"/>
<text text-anchor="middle" x="38.3638" y="-127.1381" font-family="Times,serif" font-size="9.00" fill="#000000">125</text>
</g>
<!-- B_agent&#45;&gt;125 -->
<g id="edge73" class="edge">
<title>B_agent&#45;&gt;125</title>
<path fill="none" stroke="#00ff00" stroke-width=".2443" d="M86.5772,-186.3446C79.4189,-177.8808 68.4865,-164.9545 58.8406,-153.5495"/>
<polygon fill="#00ff00" stroke="#00ff00" stroke-width=".2443" points="61.2468,-150.9745 52.1167,-145.5993 55.902,-155.4948 61.2468,-150.9745"/>
</g>
<!-- B_lm -->
<g id="node5" class="node">
<title>B_lm</title>
<polygon fill="#d3d3d3" stroke="#000000" points="573.8638,-204.5513 536.8638,-204.5513 536.8638,-186.5513 573.8638,-186.5513 573.8638,-204.5513"/>
<text text-anchor="middle" x="555.3638" y="-193.3513" font-family="Times,serif" font-size="9.00" fill="#000000">B_lm</text>
</g>
<!-- B_lm&#45;&gt;no_move -->
<g id="edge15" class="edge">
<title>B_lm&#45;&gt;no_move</title>
<path fill="none" stroke="#00ff00" stroke-width=".7587" d="M546.8854,-186.4558C532.415,-169.7911 506.1098,-133.7244 523.3638,-108.1249 552.7997,-64.4512 613.6886,-47.2373 656.0027,-40.458"/>
<polygon fill="#00ff00" stroke="#00ff00" stroke-width=".7587" points="656.6752,-43.897 666.0626,-38.985 655.6609,-36.9708 656.6752,-43.897"/>
</g>
<!-- B_lm&#45;&gt;forward -->
<g id="edge48" class="edge">
<title>B_lm&#45;&gt;forward</title>
<path fill="none" stroke="#00ff00" stroke-width=".2461" d="M536.7791,-194.5292C468.3224,-190.5777 233.0673,-175.2788 211.3638,-150.5513 198.9252,-136.3796 198.986,-122.3497 211.3638,-108.1249 249.3638,-64.4544 416.7455,-96.2584 469.3638,-72.1249 473.0393,-70.4391 476.6283,-68.3139 480.0575,-65.9424"/>
<polygon fill="#00ff00" stroke="#00ff00" stroke-width=".2461" points="482.4324,-68.5308 488.211,-59.6505 478.1558,-62.989 482.4324,-68.5308"/>
</g>
<!-- B_lm&#45;&gt;ccw -->
<g id="edge36" class="edge">
<title>B_lm&#45;&gt;ccw</title>
<path fill="none" stroke="#ff0000" stroke-width=".3683" stroke-dasharray="1,5" d="M573.9818,-195.3935C662.8244,-194.4518 1040.7957,-188.2401 1075.3638,-150.5513 1088.1094,-136.6551 1085.4646,-124.0475 1075.3638,-108.1249 1073.5589,-105.2796 995.6349,-69.4446 951.7116,-49.4066"/>
<polygon fill="#ff0000" stroke="#ff0000" stroke-width=".3683" points="952.9279,-46.1146 942.3769,-45.1523 950.0249,-52.4843 952.9279,-46.1146"/>
</g>
<!-- 315 -->
<g id="node31" class="node">
<title>315</title>
<ellipse fill="#ffffff" stroke="#000000" cx="607.3638" cy="-129.3381" rx="21.4286" ry="21.4286"/>
<text text-anchor="middle" x="607.3638" y="-127.1381" font-family="Times,serif" font-size="9.00" fill="#000000">315</text>
</g>
<!-- B_lm&#45;&gt;315 -->
<g id="edge77" class="edge">
<title>B_lm&#45;&gt;315</title>
<path fill="none" stroke="#00ff00" stroke-width=".3221" d="M562.5942,-186.3446C569.1514,-177.9952 579.119,-165.3031 587.9858,-154.0127"/>
<polygon fill="#00ff00" stroke="#00ff00" stroke-width=".3221" points="590.7594,-156.1478 594.1832,-146.1214 585.2541,-151.8242 590.7594,-156.1478"/>
</g>
<!-- B_wall -->
<g id="node6" class="node">
<title>B_wall</title>
<polygon fill="#d3d3d3" stroke="#000000" points="815.3638,-138.3381 773.3638,-138.3381 773.3638,-120.3381 815.3638,-120.3381 815.3638,-138.3381"/>
<text text-anchor="middle" x="794.3638" y="-127.1381" font-family="Times,serif" font-size="9.00" fill="#000000">B_wall</text>
</g>
<!-- B_wall&#45;&gt;no_move -->
<g id="edge19" class="edge">
<title>B_wall&#45;&gt;no_move</title>
<path fill="none" stroke="#ff0000" stroke-width=".6089" d="M785.1066,-120.0535C773.2875,-108.1994 752.2046,-87.0539 734.1506,-68.9464"/>
<polygon fill="#ff0000" stroke="#ff0000" stroke-width=".6089" points="736.1736,-66.0183 726.6344,-61.408 731.2165,-70.9608 736.1736,-66.0183"/>
</g>
<!-- B_wall&#45;&gt;backward -->
<g id="edge10" class="edge">
<title>B_wall&#45;&gt;backward</title>
<path fill="none" stroke="#ff0000" stroke-width=".1363" d="M784.2773,-120.2902C778.7774,-115.877 771.6237,-110.9279 764.3638,-108.1249 641.1449,-60.5515 591.0975,-123.3794 469.3638,-72.1249 465.9325,-70.6802 462.5484,-68.8942 459.2704,-66.8966"/>
<polygon fill="#ff0000" stroke="#ff0000" stroke-width=".1363" points="461.1211,-63.9227 450.8811,-61.2037 457.1905,-69.715 461.1211,-63.9227"/>
</g>
<!-- B_wall&#45;&gt;ccw -->
<g id="edge5" class="edge">
<title>B_wall&#45;&gt;ccw</title>
<path fill="none" stroke="#ff0000" stroke-width=".1782" d="M807.1049,-120.0535C827.7604,-105.0015 868.9733,-74.9689 896.1058,-55.1971"/>
<polygon fill="#ff0000" stroke="#ff0000" stroke-width=".1782" points="898.3558,-57.8882 904.3763,-49.1702 894.2332,-52.231 898.3558,-57.8882"/>
</g>
<!-- B_wall&#45;&gt;cw -->
<g id="edge17" class="edge">
<title>B_wall&#45;&gt;cw</title>
<path fill="none" stroke="#ff0000" stroke-width=".3739" d="M805.1367,-120.1322C810.7991,-115.79 818.0667,-110.9522 825.3638,-108.1249 932.911,-66.4558 968.2542,-88.9091 1082.3638,-72.1249 1156.1876,-61.2663 1242.9769,-47.674 1287.2224,-40.6852"/>
<polygon fill="#ff0000" stroke="#ff0000" stroke-width=".3739" points="1287.9376,-44.1156 1297.2681,-39.0963 1286.844,-37.2016 1287.9376,-44.1156"/>
</g>
<!-- C_agent -->
<g id="node7" class="node">
<title>C_agent</title>
<polygon fill="#d3d3d3" stroke="#000000" points="1403.3638,-138.3381 1357.3638,-138.3381 1357.3638,-120.3381 1403.3638,-120.3381 1403.3638,-138.3381"/>
<text text-anchor="middle" x="1380.3638" y="-127.1381" font-family="Times,serif" font-size="9.00" fill="#000000">C_agent</text>
</g>
<!-- C_agent&#45;&gt;ccw -->
<g id="edge1" class="edge">
<title>C_agent&#45;&gt;ccw</title>
<path fill="none" stroke="#00ff00" stroke-width=".3776" d="M1369.5308,-120.2439C1363.6441,-115.818 1356.0177,-110.8715 1348.3638,-108.1249 1202.8419,-55.9045 1151.6318,-112.4074 1002.3638,-72.1249 984.6273,-67.3384 965.8497,-59.0597 950.9472,-51.6407"/>
<polygon fill="#00ff00" stroke="#00ff00" stroke-width=".3776" points="952.2594,-48.3804 941.7636,-46.9349 949.0671,-54.6102 952.2594,-48.3804"/>
</g>
<!-- C_agent&#45;&gt;cw -->
<g id="edge51" class="edge">
<title>C_agent&#45;&gt;cw</title>
<path fill="none" stroke="#ff0000" stroke-width=".2208" stroke-dasharray="1,5" d="M1373.9933,-120.0535C1364.5614,-106.3072 1346.5568,-80.0667 1333.171,-60.5577"/>
<polygon fill="#ff0000" stroke="#ff0000" stroke-width=".2208" points="1335.9368,-58.4024 1327.3931,-52.1369 1330.1648,-62.3628 1335.9368,-58.4024"/>
</g>
<!-- C_lm -->
<g id="node8" class="node">
<title>C_lm</title>
<polygon fill="#d3d3d3" stroke="#000000" points="1611.8638,-138.3381 1574.8638,-138.3381 1574.8638,-120.3381 1611.8638,-120.3381 1611.8638,-138.3381"/>
<text text-anchor="middle" x="1593.3638" y="-127.1381" font-family="Times,serif" font-size="9.00" fill="#000000">C_lm</text>
</g>
<!-- no_turn -->
<g id="node28" class="node">
<title>no_turn</title>
<ellipse fill="#add8e6" stroke="#000000" cx="1042.3638" cy="-36.0624" rx="31.2258" ry="31.2258"/>
<text text-anchor="middle" x="1042.3638" y="-33.8624" font-family="Times,serif" font-size="9.00" fill="#000000">no_turn</text>
</g>
<!-- C_lm&#45;&gt;no_turn -->
<g id="edge41" class="edge">
<title>C_lm&#45;&gt;no_turn</title>
<path fill="none" stroke="#00ff00" stroke-width=".3067" stroke-dasharray="1,5" d="M1584.1846,-120.0823C1579.3048,-115.7273 1572.9599,-110.8932 1566.3638,-108.1249 1451.4838,-59.9112 1411.7808,-89.1609 1288.3638,-72.1249 1216.26,-62.172 1132.41,-49.6841 1083.573,-42.3192"/>
<polygon fill="#00ff00" stroke="#00ff00" stroke-width=".3067" points="1083.8173,-38.8165 1073.4067,-40.7838 1082.7719,-45.738 1083.8173,-38.8165"/>
</g>
<!-- C_lm&#45;&gt;cw -->
<g id="edge8" class="edge">
<title>C_lm&#45;&gt;cw</title>
<path fill="none" stroke="#ff0000" stroke-width=".4863" stroke-dasharray="1,5" d="M1583.4932,-120.0723C1578.6394,-115.9279 1572.5187,-111.2769 1566.3638,-108.1249 1491.6086,-69.8416 1393.561,-49.1543 1345.4926,-40.6983"/>
<polygon fill="#ff0000" stroke="#ff0000" stroke-width=".4863" points="1345.9222,-37.2211 1335.4756,-38.9873 1344.7435,-44.1212 1345.9222,-37.2211"/>
</g>
<!-- C_wall -->
<g id="node9" class="node">
<title>C_wall</title>
<polygon fill="#d3d3d3" stroke="#000000" points="476.3638,-138.3381 434.3638,-138.3381 434.3638,-120.3381 476.3638,-120.3381 476.3638,-138.3381"/>
<text text-anchor="middle" x="455.3638" y="-127.1381" font-family="Times,serif" font-size="9.00" fill="#000000">C_wall</text>
</g>
<!-- C_wall&#45;&gt;no_move -->
<g id="edge42" class="edge">
<title>C_wall&#45;&gt;no_move</title>
<path fill="none" stroke="#ff0000" stroke-width=".4555" d="M468.9494,-120.1626C475.2816,-116.1346 483.0249,-111.553 490.3638,-108.1249 546.0026,-82.1351 613.7122,-60.6831 657.1655,-48.1256"/>
<polygon fill="#ff0000" stroke="#ff0000" stroke-width=".4555" points="658.2076,-51.4679 666.8611,-45.355 656.2843,-44.7373 658.2076,-51.4679"/>
</g>
<!-- C_wall&#45;&gt;backward -->
<g id="edge39" class="edge">
<title>C_wall&#45;&gt;backward</title>
<path fill="none" stroke="#00ff00" stroke-width=".2353" d="M452.2781,-120.0535C449.1374,-110.6035 444.0342,-95.2486 439.0446,-80.2354"/>
<polygon fill="#00ff00" stroke="#00ff00" stroke-width=".2353" points="442.2792,-78.8701 435.8039,-70.4843 435.6364,-81.0778 442.2792,-78.8701"/>
</g>
<!-- C_wall&#45;&gt;ccw -->
<g id="edge64" class="edge">
<title>C_wall&#45;&gt;ccw</title>
<path fill="none" stroke="#ff0000" stroke-width=".1217" d="M476.5875,-121.8656C489.893,-117.3943 507.4756,-111.8715 523.3638,-108.1249 620.6511,-85.1838 647.0389,-90.1061 745.3638,-72.1249 796.385,-62.7944 855.3589,-50.4678 890.7141,-42.911"/>
<polygon fill="#ff0000" stroke="#ff0000" stroke-width=".1217" points="891.8497,-46.2471 900.8931,-40.7275 890.3815,-39.4028 891.8497,-46.2471"/>
</g>
<!-- D_agent -->
<g id="node10" class="node">
<title>D_agent</title>
<polygon fill="#d3d3d3" stroke="#000000" points="1065.8638,-138.3381 1018.8638,-138.3381 1018.8638,-120.3381 1065.8638,-120.3381 1065.8638,-138.3381"/>
<text text-anchor="middle" x="1042.3638" y="-127.1381" font-family="Times,serif" font-size="9.00" fill="#000000">D_agent</text>
</g>
<!-- D_agent&#45;&gt;forward -->
<g id="edge12" class="edge">
<title>D_agent&#45;&gt;forward</title>
<path fill="none" stroke="#ff0000" stroke-width=".3407" d="M1031.151,-120.2421C1025.0689,-115.8158 1017.2066,-110.8694 1009.3638,-108.1249 860.9291,-56.1825 812.3241,-98.9235 657.3638,-72.1249 620.999,-65.836 580.2923,-55.5939 550.952,-47.6287"/>
<polygon fill="#ff0000" stroke="#ff0000" stroke-width=".3407" points="551.6437,-44.1891 541.0738,-44.9165 549.7902,-50.9393 551.6437,-44.1891"/>
</g>
<!-- D_agent&#45;&gt;backward -->
<g id="edge14" class="edge">
<title>D_agent&#45;&gt;backward</title>
<path fill="none" stroke="#00ff00" stroke-width=".2887" d="M1031.1898,-120.1278C1025.1184,-115.6702 1017.2539,-110.7303 1009.3638,-108.1249 780.9616,-32.7031 693.5252,-159.3468 469.3638,-72.1249 465.8941,-70.7748 462.4829,-69.056 459.1864,-67.1041"/>
<polygon fill="#00ff00" stroke="#00ff00" stroke-width=".2887" points="461.0277,-64.1251 450.7668,-61.4859 457.1423,-69.9478 461.0277,-64.1251"/>
</g>
<!-- D_agent&#45;&gt;no_turn -->
<g id="edge60" class="edge">
<title>D_agent&#45;&gt;no_turn</title>
<path fill="none" stroke="#ff0000" stroke-width=".3161" stroke-dasharray="1,5" d="M1042.3638,-120.0535C1042.3638,-110.0743 1042.3638,-93.5104 1042.3638,-77.7175"/>
<polygon fill="#ff0000" stroke="#ff0000" stroke-width=".3161" points="1045.8639,-77.5275 1042.3638,-67.5275 1038.8639,-77.5276 1045.8639,-77.5275"/>
</g>
<!-- D_agent&#45;&gt;ccw -->
<g id="edge62" class="edge">
<title>D_agent&#45;&gt;ccw</title>
<path fill="none" stroke="#ff0000" stroke-width=".3505" stroke-dasharray="1,5" d="M1030.419,-120.0535C1011.3514,-105.2322 973.5975,-75.8863 948.1598,-56.1136"/>
<polygon fill="#ff0000" stroke="#ff0000" stroke-width=".3505" points="950.0934,-53.1836 940.0501,-49.8099 945.7975,-58.7104 950.0934,-53.1836"/>
</g>
<!-- D_agent&#45;&gt;cw -->
<g id="edge24" class="edge">
<title>D_agent&#45;&gt;cw</title>
<path fill="none" stroke="#ff0000" stroke-width=".2654" d="M1066.2002,-121.2237C1116.7171,-104.0266 1234.33,-63.9885 1288.3382,-45.603"/>
<polygon fill="#ff0000" stroke="#ff0000" stroke-width=".2654" points="1289.6143,-48.8659 1297.9529,-42.3299 1287.3585,-42.2393 1289.6143,-48.8659"/>
</g>
<!-- D_lm -->
<g id="node11" class="node">
<title>D_lm</title>
<polygon fill="#d3d3d3" stroke="#000000" points="1214.8638,-138.3381 1177.8638,-138.3381 1177.8638,-120.3381 1214.8638,-120.3381 1214.8638,-138.3381"/>
<text text-anchor="middle" x="1196.3638" y="-127.1381" font-family="Times,serif" font-size="9.00" fill="#000000">D_lm</text>
</g>
<!-- D_lm&#45;&gt;ccw -->
<g id="edge11" class="edge">
<title>D_lm&#45;&gt;ccw</title>
<path fill="none" stroke="#00ff00" stroke-width=".5207" d="M1187.0819,-120.3134C1182.1758,-116.0174 1175.8385,-111.1662 1169.3638,-108.1249 1100.6405,-75.8441 1074.4863,-95.8585 1002.3638,-72.1249 984.9133,-66.3824 966.1524,-58.0483 951.1873,-50.8383"/>
<polygon fill="#00ff00" stroke="#00ff00" stroke-width=".5207" points="952.4719,-47.5698 941.9533,-46.3011 949.3849,-53.8524 952.4719,-47.5698"/>
</g>
<!-- D_wall -->
<g id="node12" class="node">
<title>D_wall</title>
<polygon fill="#d3d3d3" stroke="#000000" points="1605.8638,-204.5513 1562.8638,-204.5513 1562.8638,-186.5513 1605.8638,-186.5513 1605.8638,-204.5513"/>
<text text-anchor="middle" x="1584.3638" y="-193.3513" font-family="Times,serif" font-size="9.00" fill="#000000">D_wall</text>
</g>
<!-- D_wall&#45;&gt;forward -->
<g id="edge3" class="edge">
<title>D_wall&#45;&gt;forward</title>
<path fill="none" stroke="#00ff00" stroke-width=".1774" stroke-dasharray="1,5" d="M1562.6399,-195.2383C1391.6417,-192.725 268.281,-175.2851 244.3638,-150.5513 231.2561,-136.9961 232.129,-122.4729 244.3638,-108.1249 310.074,-31.0653 377.7394,-115.2637 469.3638,-72.1249 473.0223,-70.4024 476.5999,-68.2527 480.022,-65.8659"/>
<polygon fill="#00ff00" stroke="#00ff00" stroke-width=".1774" points="482.4065,-68.446 488.1657,-59.5532 478.1179,-62.9135 482.4065,-68.446"/>
</g>
<!-- D_wall&#45;&gt;no_turn -->
<g id="edge38" class="edge">
<title>D_wall&#45;&gt;no_turn</title>
<path fill="none" stroke="#ff0000" stroke-width=".4169" d="M1566.651,-186.4368C1551.2807,-178.1185 1528.818,-164.955 1511.3638,-150.5513 1491.6092,-134.2493 1494.8807,-120.331 1472.3638,-108.1249 1455.2344,-98.8393 1187.4238,-57.8632 1083.3145,-42.189"/>
<polygon fill="#ff0000" stroke="#ff0000" stroke-width=".4169" points="1083.5933,-38.6917 1073.1841,-40.6659 1082.5525,-45.6139 1083.5933,-38.6917"/>
</g>
<!-- D_wall&#45;&gt;cw -->
<g id="edge44" class="edge">
<title>D_wall&#45;&gt;cw</title>
<path fill="none" stroke="#00ff00" stroke-width=".3299" stroke-dasharray="1,5" d="M1606.0932,-188.1622C1622.6167,-181.2625 1644.187,-169.1918 1654.3638,-150.5513 1663.3995,-134.001 1666.2259,-122.7826 1654.3638,-108.1249 1615.5106,-60.1149 1420.5519,-42.7187 1345.6954,-37.7469"/>
<polygon fill="#00ff00" stroke="#00ff00" stroke-width=".3299" points="1345.7575,-34.2439 1335.5553,-37.1014 1345.3127,-41.2297 1345.7575,-34.2439"/>
</g>
<!-- 287 -->
<g id="node33" class="node">
<title>287</title>
<ellipse fill="#ffffff" stroke="#000000" cx="1727.3638" cy="-129.3381" rx="21.4286" ry="21.4286"/>
<text text-anchor="middle" x="1727.3638" y="-127.1381" font-family="Times,serif" font-size="9.00" fill="#000000">287</text>
</g>
<!-- D_wall&#45;&gt;287 -->
<g id="edge75" class="edge">
<title>D_wall&#45;&gt;287</title>
<path fill="none" stroke="#00ff00" stroke-width=".4693" d="M1605.897,-187.6766C1628.0055,-179.3387 1663.2043,-165.3574 1692.3638,-150.5513 1695.1256,-149.1489 1697.9618,-147.609 1700.7669,-146.0191"/>
<polygon fill="#00ff00" stroke="#00ff00" stroke-width=".4693" points="1702.6539,-148.9697 1709.4922,-140.8771 1699.0999,-142.939 1702.6539,-148.9697"/>
</g>
<!-- E_agent -->
<g id="node13" class="node">
<title>E_agent</title>
<polygon fill="#d3d3d3" stroke="#000000" points="416.3638,-138.3381 370.3638,-138.3381 370.3638,-120.3381 416.3638,-120.3381 416.3638,-138.3381"/>
<text text-anchor="middle" x="393.3638" y="-127.1381" font-family="Times,serif" font-size="9.00" fill="#000000">E_agent</text>
</g>
<!-- E_agent&#45;&gt;forward -->
<g id="edge55" class="edge">
<title>E_agent&#45;&gt;forward</title>
<path fill="none" stroke="#ff0000" stroke-width=".3951" d="M405.9608,-120.3077C421.2215,-109.2651 447.592,-89.852 469.3638,-72.1249 472.4191,-69.6372 475.5631,-67.0067 478.6863,-64.3454"/>
<polygon fill="#ff0000" stroke="#ff0000" stroke-width=".3951" points="481.065,-66.9156 486.345,-57.7302 476.4893,-61.6181 481.065,-66.9156"/>
</g>
<!-- E_agent&#45;&gt;backward -->
<g id="edge29" class="edge">
<title>E_agent&#45;&gt;backward</title>
<path fill="none" stroke="#00ff00" stroke-width=".3421" d="M396.4495,-120.0535C399.5902,-110.6035 404.6934,-95.2486 409.683,-80.2354"/>
<polygon fill="#00ff00" stroke="#00ff00" stroke-width=".3421" points="413.0912,-81.0778 412.9237,-70.4843 406.4484,-78.8701 413.0912,-81.0778"/>
</g>
<!-- E_agent&#45;&gt;ccw -->
<g id="edge34" class="edge">
<title>E_agent&#45;&gt;ccw</title>
<path fill="none" stroke="#00ff00" stroke-width=".7521" d="M404.2063,-120.2701C410.0956,-115.8515 417.7214,-110.9034 425.3638,-108.1249 559.8693,-59.2225 603.9937,-94.4332 745.3638,-72.1249 796.5971,-64.0402 855.5091,-51.3498 890.7938,-43.3792"/>
<polygon fill="#00ff00" stroke="#00ff00" stroke-width=".7521" points="891.9772,-46.6995 900.951,-41.0674 890.4236,-39.874 891.9772,-46.6995"/>
</g>
<!-- E_lm -->
<g id="node14" class="node">
<title>E_lm</title>
<polygon fill="#d3d3d3" stroke="#000000" points="1000.3638,-138.3381 964.3638,-138.3381 964.3638,-120.3381 1000.3638,-120.3381 1000.3638,-138.3381"/>
<text text-anchor="middle" x="982.3638" y="-127.1381" font-family="Times,serif" font-size="9.00" fill="#000000">E_lm</text>
</g>
<!-- E_lm&#45;&gt;forward -->
<g id="edge50" class="edge">
<title>E_lm&#45;&gt;forward</title>
<path fill="none" stroke="#ff0000" stroke-width=".1517" d="M973.1946,-120.0584C968.3173,-115.6973 961.9717,-110.8649 955.3638,-108.1249 832.1311,-57.0247 788.6063,-96.0609 657.3638,-72.1249 621.0581,-65.5035 580.3456,-55.2937 550.9882,-47.4254"/>
<polygon fill="#ff0000" stroke="#ff0000" stroke-width=".1517" points="551.6706,-43.9843 541.1035,-44.7497 549.8415,-50.7411 551.6706,-43.9843"/>
</g>
<!-- E_lm&#45;&gt;backward -->
<g id="edge28" class="edge">
<title>E_lm&#45;&gt;backward</title>
<path fill="none" stroke="#00ff00" stroke-width=".7354" d="M973.2468,-119.9283C968.3828,-115.5341 962.0333,-110.7113 955.3638,-108.1249 753.4248,-29.8137 670.9229,-151.4087 469.3638,-72.1249 465.8991,-70.762 462.4915,-69.0342 459.1973,-67.0761"/>
<polygon fill="#00ff00" stroke="#00ff00" stroke-width=".7354" points="461.0398,-64.0977 450.7817,-61.4478 457.1484,-69.9164 461.0398,-64.0977"/>
</g>
<!-- E_lm&#45;&gt;no_turn -->
<g id="edge31" class="edge">
<title>E_lm&#45;&gt;no_turn</title>
<path fill="none" stroke="#ff0000" stroke-width=".8729" stroke-dasharray="1,5" d="M988.3362,-120.0535C995.6724,-108.6486 1008.5408,-88.6435 1019.8787,-71.0177"/>
<polygon fill="#ff0000" stroke="#ff0000" stroke-width=".8729" points="1022.8242,-72.9081 1025.2906,-62.6043 1016.937,-69.1211 1022.8242,-72.9081"/>
</g>
<!-- E_lm&#45;&gt;cw -->
<g id="edge25" class="edge">
<title>E_lm&#45;&gt;cw</title>
<path fill="none" stroke="#ff0000" stroke-width=".3948" stroke-dasharray="1,5" d="M992.3246,-120.1622C997.3946,-115.9354 1003.8523,-111.189 1010.3638,-108.1249 1105.5051,-63.3551 1230.7503,-45.1568 1286.9058,-38.892"/>
<polygon fill="#ff0000" stroke="#ff0000" stroke-width=".3948" points="1287.6146,-42.3363 1297.1863,-37.7938 1286.8711,-35.3759 1287.6146,-42.3363"/>
</g>
<!-- E_wall -->
<g id="node15" class="node">
<title>E_wall</title>
<polygon fill="#d3d3d3" stroke="#000000" points="1463.3638,-138.3381 1421.3638,-138.3381 1421.3638,-120.3381 1463.3638,-120.3381 1463.3638,-138.3381"/>
<text text-anchor="middle" x="1442.3638" y="-127.1381" font-family="Times,serif" font-size="9.00" fill="#000000">E_wall</text>
</g>
<!-- E_wall&#45;&gt;no_turn -->
<g id="edge59" class="edge">
<title>E_wall&#45;&gt;no_turn</title>
<path fill="none" stroke="#ff0000" stroke-width=".3415" stroke-dasharray="1,5" d="M1431.9189,-120.2856C1426.4342,-115.9825 1419.4025,-111.1334 1412.3638,-108.1249 1353.2125,-82.8425 1166.7112,-53.8935 1083.3365,-41.8191"/>
<polygon fill="#ff0000" stroke="#ff0000" stroke-width=".3415" points="1083.6192,-38.3238 1073.2227,-40.364 1082.6223,-45.2524 1083.6192,-38.3238"/>
</g>
<!-- F_agent -->
<g id="node16" class="node">
<title>F_agent</title>
<polygon fill="#d3d3d3" stroke="#000000" points="1338.8638,-138.3381 1293.8638,-138.3381 1293.8638,-120.3381 1338.8638,-120.3381 1338.8638,-138.3381"/>
<text text-anchor="middle" x="1316.3638" y="-127.1381" font-family="Times,serif" font-size="9.00" fill="#000000">F_agent</text>
</g>
<!-- F_agent&#45;&gt;no_move -->
<g id="edge56" class="edge">
<title>F_agent&#45;&gt;no_move</title>
<path fill="none" stroke="#00ff00" stroke-width=".3464" d="M1305.5446,-120.205C1299.6616,-115.7686 1292.0345,-110.8243 1284.3638,-108.1249 1118.9116,-49.9009 1065.0589,-96.5066 891.3638,-72.1249 841.3084,-65.0986 784.4177,-53.8647 746.0417,-45.802"/>
<polygon fill="#00ff00" stroke="#00ff00" stroke-width=".3464" points="746.7234,-42.3688 736.2153,-43.7217 745.2736,-49.217 746.7234,-42.3688"/>
</g>
<!-- F_agent&#45;&gt;no_turn -->
<g id="edge46" class="edge">
<title>F_agent&#45;&gt;no_turn</title>
<path fill="none" stroke="#ff0000" stroke-width=".2434" stroke-dasharray="1,5" d="M1304.4044,-120.1828C1298.5947,-116.0626 1291.3677,-111.4001 1284.3638,-108.1249 1216.8911,-76.5734 1132.3762,-55.1591 1083.1658,-44.3249"/>
<polygon fill="#ff0000" stroke="#ff0000" stroke-width=".2434" points="1083.7335,-40.8668 1073.2196,-42.1737 1082.2537,-47.7086 1083.7335,-40.8668"/>
</g>
<!-- F_agent&#45;&gt;ccw -->
<g id="edge20" class="edge">
<title>F_agent&#45;&gt;ccw</title>
<path fill="none" stroke="#ff0000" stroke-width=".5145" d="M1305.5041,-120.317C1299.61,-115.9112 1291.9852,-110.9605 1284.3638,-108.1249 1165.9439,-64.0662 1123.9585,-106.4639 1002.3638,-72.1249 984.6842,-67.1321 965.91,-58.8414 950.995,-51.4676"/>
<polygon fill="#ff0000" stroke="#ff0000" stroke-width=".5145" points="952.3023,-48.206 941.8014,-46.7982 949.1324,-54.4472 952.3023,-48.206"/>
</g>
<!-- F_agent&#45;&gt;cw -->
<g id="edge27" class="edge">
<title>F_agent&#45;&gt;cw</title>
<path fill="none" stroke="#ff0000" stroke-width=".1235" d="M1316.3638,-120.0535C1316.3638,-107.4372 1316.3638,-84.2966 1316.3638,-65.4949"/>
<polygon fill="#ff0000" stroke="#ff0000" stroke-width=".1235" points="1319.8639,-65.3149 1316.3638,-55.315 1312.8639,-65.315 1319.8639,-65.3149"/>
</g>
<!-- F_lm -->
<g id="node17" class="node">
<title>F_lm</title>
<polygon fill="#d3d3d3" stroke="#000000" points="568.3638,-138.3381 532.3638,-138.3381 532.3638,-120.3381 568.3638,-120.3381 568.3638,-138.3381"/>
<text text-anchor="middle" x="550.3638" y="-127.1381" font-family="Times,serif" font-size="9.00" fill="#000000">F_lm</text>
</g>
<!-- F_lm&#45;&gt;no_move -->
<g id="edge13" class="edge">
<title>F_lm&#45;&gt;no_move</title>
<path fill="none" stroke="#00ff00" stroke-width=".6932" d="M561.1377,-120.3116C565.9805,-116.4027 571.8391,-111.8738 577.3638,-108.1249 604.4027,-89.7773 636.3059,-71.3033 660.9805,-57.6542"/>
<polygon fill="#00ff00" stroke="#00ff00" stroke-width=".6932" points="662.9773,-60.5508 670.0582,-52.6696 659.6081,-54.4149 662.9773,-60.5508"/>
</g>
<!-- F_lm&#45;&gt;backward -->
<g id="edge16" class="edge">
<title>F_lm&#45;&gt;backward</title>
<path fill="none" stroke="#00ff00" stroke-width=".6088" d="M536.9988,-120.2656C520.7939,-109.1814 492.7473,-89.7275 469.3638,-72.1249 466.5593,-70.0137 463.6788,-67.8043 460.7959,-65.5633"/>
<polygon fill="#00ff00" stroke="#00ff00" stroke-width=".6088" points="462.7501,-62.6476 452.7254,-59.2189 458.4239,-68.1507 462.7501,-62.6476"/>
</g>
<!-- F_lm&#45;&gt;no_turn -->
<g id="edge45" class="edge">
<title>F_lm&#45;&gt;no_turn</title>
<path fill="none" stroke="#00ff00" stroke-width=".2767" d="M559.5047,-119.9889C564.3748,-115.6101 570.7225,-110.7829 577.3638,-108.1249 733.2201,-45.7475 790.3087,-112.0645 953.3638,-72.1249 970.7965,-67.8548 989.3066,-60.7986 1004.905,-54.0547"/>
<polygon fill="#00ff00" stroke="#00ff00" stroke-width=".2767" points="1006.487,-57.1818 1014.2053,-49.9238 1003.6455,-50.7845 1006.487,-57.1818"/>
</g>
<!-- F_wall -->
<g id="node18" class="node">
<title>F_wall</title>
<polygon fill="#d3d3d3" stroke="#000000" points="1275.3638,-138.3381 1233.3638,-138.3381 1233.3638,-120.3381 1275.3638,-120.3381 1275.3638,-138.3381"/>
<text text-anchor="middle" x="1254.3638" y="-127.1381" font-family="Times,serif" font-size="9.00" fill="#000000">F_wall</text>
</g>
<!-- F_wall&#45;&gt;no_move -->
<g id="edge49" class="edge">
<title>F_wall&#45;&gt;no_move</title>
<path fill="none" stroke="#ff0000" stroke-width=".5113" d="M1244.2929,-120.2491C1238.7974,-115.8247 1231.6428,-110.8779 1224.3638,-108.1249 1085.1273,-55.4638 1038.6069,-94.0218 891.3638,-72.1249 841.3675,-64.6898 784.4664,-53.528 746.0718,-45.5939"/>
<polygon fill="#ff0000" stroke="#ff0000" stroke-width=".5113" points="746.7435,-42.1588 736.2403,-43.5492 745.3181,-49.0121 746.7435,-42.1588"/>
</g>
<!-- F_wall&#45;&gt;cw -->
<g id="edge4" class="edge">
<title>F_wall&#45;&gt;cw</title>
<path fill="none" stroke="#ff0000" stroke-width=".2005" stroke-dasharray="1,5" d="M1260.5353,-120.0535C1269.6724,-106.3072 1287.1143,-80.0667 1300.0819,-60.5577"/>
<polygon fill="#ff0000" stroke="#ff0000" stroke-width=".2005" points="1303.0583,-62.4025 1305.6792,-52.1369 1297.2287,-58.5275 1303.0583,-62.4025"/>
</g>
<!-- G_agent -->
<g id="node19" class="node">
<title>G_agent</title>
<polygon fill="#d3d3d3" stroke="#000000" points="880.8638,-138.3381 833.8638,-138.3381 833.8638,-120.3381 880.8638,-120.3381 880.8638,-138.3381"/>
<text text-anchor="middle" x="857.3638" y="-127.1381" font-family="Times,serif" font-size="9.00" fill="#000000">G_agent</text>
</g>
<!-- G_agent&#45;&gt;no_move -->
<g id="edge18" class="edge">
<title>G_agent&#45;&gt;no_move</title>
<path fill="none" stroke="#00ff00" stroke-width=".3553" d="M843.6361,-120.3339C837.7389,-116.5128 830.7483,-112.0449 824.3638,-108.1249 796.7787,-91.188 765.2746,-72.7475 741.0562,-58.7606"/>
<polygon fill="#00ff00" stroke="#00ff00" stroke-width=".3553" points="742.5662,-55.5912 732.1544,-53.6305 739.0709,-61.6562 742.5662,-55.5912"/>
</g>
<!-- G_agent&#45;&gt;forward -->
<g id="edge43" class="edge">
<title>G_agent&#45;&gt;forward</title>
<path fill="none" stroke="#ff0000" stroke-width=".3622" d="M845.4093,-120.1665C839.3831,-115.9407 831.7915,-111.1939 824.3638,-108.1249 754.1906,-79.1307 731.3526,-89.1717 657.3638,-72.1249 621.4014,-63.8392 580.6556,-53.7912 551.198,-46.4081"/>
<polygon fill="#ff0000" stroke="#ff0000" stroke-width=".3622" points="551.8271,-42.9575 541.2756,-43.915 550.1213,-49.7464 551.8271,-42.9575"/>
</g>
<!-- G_agent&#45;&gt;backward -->
<g id="edge35" class="edge">
<title>G_agent&#45;&gt;backward</title>
<path fill="none" stroke="#ff0000" stroke-width=".1147" d="M846.1519,-120.2394C840.0702,-115.8123 832.2078,-110.866 824.3638,-108.1249 674.6547,-55.8084 616.1431,-132.172 469.3638,-72.1249 465.9179,-70.7152 462.5236,-68.9541 459.2386,-66.9734"/>
<polygon fill="#ff0000" stroke="#ff0000" stroke-width=".1147" points="461.0856,-63.9975 450.8378,-61.3081 457.1718,-69.8011 461.0856,-63.9975"/>
</g>
<!-- G_agent&#45;&gt;no_turn -->
<g id="edge26" class="edge">
<title>G_agent&#45;&gt;no_turn</title>
<path fill="none" stroke="#00ff00" stroke-width=".1107" d="M870.6116,-120.269C876.5454,-116.3522 883.6953,-111.8288 890.3638,-108.1249 928.1927,-87.1131 973.152,-66.2831 1004.3146,-52.4635"/>
<polygon fill="#00ff00" stroke="#00ff00" stroke-width=".1107" points="1005.7801,-55.6426 1013.5197,-48.4073 1002.9574,-49.2369 1005.7801,-55.6426"/>
</g>
<!-- G_agent&#45;&gt;ccw -->
<g id="edge52" class="edge">
<title>G_agent&#45;&gt;ccw</title>
<path fill="none" stroke="#00ff00" stroke-width=".5648" d="M863.8339,-120.0535C873.0789,-106.7867 890.4339,-81.8822 903.8547,-62.6231"/>
<polygon fill="#00ff00" stroke="#00ff00" stroke-width=".5648" points="906.8552,-64.4392 909.701,-54.2337 901.1121,-60.437 906.8552,-64.4392"/>
</g>
<!-- G_agent&#45;&gt;cw -->
<g id="edge70" class="edge">
<title>G_agent&#45;&gt;cw</title>
<path fill="none" stroke="#00ff00" stroke-width=".1627" stroke-dasharray="1,5" d="M868.9557,-120.2372C875.015,-115.9217 882.7423,-111.0761 890.3638,-108.1249 909.0772,-100.8786 1194.2575,-55.3799 1287.2716,-40.6546"/>
<polygon fill="#00ff00" stroke="#00ff00" stroke-width=".1627" points="1288.0574,-44.0739 1297.3877,-39.0545 1286.9637,-37.1599 1288.0574,-44.0739"/>
</g>
<!-- G_lm -->
<g id="node20" class="node">
<title>G_lm</title>
<polygon fill="#d3d3d3" stroke="#000000" points="1159.8638,-138.3381 1122.8638,-138.3381 1122.8638,-120.3381 1159.8638,-120.3381 1159.8638,-138.3381"/>
<text text-anchor="middle" x="1141.3638" y="-127.1381" font-family="Times,serif" font-size="9.00" fill="#000000">G_lm</text>
</g>
<!-- G_lm&#45;&gt;forward -->
<g id="edge66" class="edge">
<title>G_lm&#45;&gt;forward</title>
<path fill="none" stroke="#00ff00" stroke-width=".3924" d="M1122.6019,-122.059C1109.5537,-117.3079 1091.647,-111.3994 1075.3638,-108.1249 892.5579,-71.3636 841.3504,-102.4289 657.3638,-72.1249 620.9498,-66.1272 580.2479,-55.8568 550.922,-47.8067"/>
<polygon fill="#00ff00" stroke="#00ff00" stroke-width=".3924" points="551.6212,-44.3685 541.0492,-45.0626 549.7466,-51.1128 551.6212,-44.3685"/>
</g>
<!-- G_lm&#45;&gt;ccw -->
<g id="edge23" class="edge">
<title>G_lm&#45;&gt;ccw</title>
<path fill="none" stroke="#ff0000" stroke-width=".7926" stroke-dasharray="1,5" d="M1128.9351,-120.3234C1122.9228,-116.234 1115.48,-111.5568 1108.3638,-108.1249 1063.5491,-86.5124 1048.652,-90.3693 1002.3638,-72.1249 985.2725,-65.3884 966.5323,-56.9967 951.4888,-50.0039"/>
<polygon fill="#ff0000" stroke="#ff0000" stroke-width=".7926" points="952.7312,-46.7208 942.1914,-45.6421 949.758,-53.058 952.7312,-46.7208"/>
</g>
<!-- G_lm&#45;&gt;cw -->
<g id="edge65" class="edge">
<title>G_lm&#45;&gt;cw</title>
<path fill="none" stroke="#ff0000" stroke-width=".4657" d="M1152.4547,-120.1535C1157.4617,-116.2153 1163.548,-111.7072 1169.3638,-108.1249 1209.3693,-83.4829 1259.0059,-60.6164 1289.1529,-47.508"/>
<polygon fill="#ff0000" stroke="#ff0000" stroke-width=".4657" points="1290.7852,-50.6159 1298.5874,-43.4481 1288.0183,-44.186 1290.7852,-50.6159"/>
</g>
<!-- G_wall -->
<g id="node21" class="node">
<title>G_wall</title>
<polygon fill="#d3d3d3" stroke="#000000" points="754.8638,-138.3381 711.8638,-138.3381 711.8638,-120.3381 754.8638,-120.3381 754.8638,-138.3381"/>
<text text-anchor="middle" x="733.3638" y="-127.1381" font-family="Times,serif" font-size="9.00" fill="#000000">G_wall</text>
</g>
<!-- G_wall&#45;&gt;no_move -->
<g id="edge32" class="edge">
<title>G_wall&#45;&gt;no_move</title>
<path fill="none" stroke="#00ff00" stroke-width=".8727" d="M730.1785,-120.0535C726.8847,-110.4523 721.4997,-94.7558 716.271,-79.515"/>
<polygon fill="#00ff00" stroke="#00ff00" stroke-width=".8727" points="719.4369,-77.9572 712.8812,-69.6341 712.8157,-80.2288 719.4369,-77.9572"/>
</g>
<!-- G_wall&#45;&gt;backward -->
<g id="edge7" class="edge">
<title>G_wall&#45;&gt;backward</title>
<path fill="none" stroke="#ff0000" stroke-width=".2641" stroke-dasharray="1,5" d="M722.9683,-120.1668C717.4962,-115.8334 710.4608,-110.993 703.3638,-108.1249 605.8058,-68.6985 565.693,-114.465 469.3638,-72.1249 465.9554,-70.6268 462.5877,-68.8029 459.3208,-66.7796"/>
<polygon fill="#ff0000" stroke="#ff0000" stroke-width=".2641" points="461.1774,-63.809 450.9496,-61.0446 457.2211,-69.5838 461.1774,-63.809"/>
</g>
<!-- G_wall&#45;&gt;no_turn -->
<g id="edge57" class="edge">
<title>G_wall&#45;&gt;no_turn</title>
<path fill="none" stroke="#00ff00" stroke-width=".4825" stroke-dasharray="1,5" d="M744.1973,-120.283C749.8751,-115.9792 757.1382,-111.1302 764.3638,-108.1249 843.3169,-75.2857 871.3415,-96.298 953.3638,-72.1249 970.5798,-67.0511 989.0554,-59.8672 1004.6867,-53.2451"/>
<polygon fill="#00ff00" stroke="#00ff00" stroke-width=".4825" points="1006.221,-56.395 1014.0151,-49.2185 1003.4468,-49.9682 1006.221,-56.395"/>
</g>
<!-- G_wall&#45;&gt;ccw -->
<g id="edge2" class="edge">
<title>G_wall&#45;&gt;ccw</title>
<path fill="none" stroke="#ff0000" stroke-width=".2782" d="M745.7177,-120.1619C751.275,-116.2253 758.0036,-111.716 764.3638,-108.1249 807.4271,-83.8099 860.173,-61.0687 892.5134,-47.8672"/>
<polygon fill="#ff0000" stroke="#ff0000" stroke-width=".2782" points="893.9041,-51.0802 901.8616,-44.0852 891.2789,-44.5911 893.9041,-51.0802"/>
</g>
<!-- H_agent -->
<g id="node22" class="node">
<title>H_agent</title>
<polygon fill="#d3d3d3" stroke="#000000" points="693.8638,-138.3381 646.8638,-138.3381 646.8638,-120.3381 693.8638,-120.3381 693.8638,-138.3381"/>
<text text-anchor="middle" x="670.3638" y="-127.1381" font-family="Times,serif" font-size="9.00" fill="#000000">H_agent</text>
</g>
<!-- H_agent&#45;&gt;no_move -->
<g id="edge54" class="edge">
<title>H_agent&#45;&gt;no_move</title>
<path fill="none" stroke="#00ff00" stroke-width=".2333" stroke-dasharray="1,5" d="M673.4495,-120.0535C676.6405,-110.4523 681.8572,-94.7558 686.9224,-79.515"/>
<polygon fill="#00ff00" stroke="#00ff00" stroke-width=".2333" points="690.3738,-80.2276 690.2063,-69.6341 683.731,-78.0199 690.3738,-80.2276"/>
</g>
<!-- H_agent&#45;&gt;backward -->
<g id="edge33" class="edge">
<title>H_agent&#45;&gt;backward</title>
<path fill="none" stroke="#ff0000" stroke-width=".3422" stroke-dasharray="1,5" d="M658.411,-120.1625C652.3851,-115.9357 644.7934,-111.1893 637.3638,-108.1249 566.7712,-79.0081 538.3432,-104.8809 469.3638,-72.1249 466.0007,-70.5278 462.665,-68.6338 459.4199,-66.5628"/>
<polygon fill="#ff0000" stroke="#ff0000" stroke-width=".3422" points="461.2889,-63.5991 451.0844,-60.7496 457.2846,-69.3408 461.2889,-63.5991"/>
</g>
<!-- H_agent&#45;&gt;no_turn -->
<g id="edge58" class="edge">
<title>H_agent&#45;&gt;no_turn</title>
<path fill="none" stroke="#00ff00" stroke-width=".1459" d="M681.9255,-120.1577C687.9771,-115.822 695.7066,-110.9823 703.3638,-108.1249 808.5366,-68.8775 844.9958,-101.4174 953.3638,-72.1249 970.69,-67.4415 989.1832,-60.3196 1004.7978,-53.6384"/>
<polygon fill="#00ff00" stroke="#00ff00" stroke-width=".1459" points="1006.3547,-56.7775 1014.1118,-49.561 1003.5476,-50.365 1006.3547,-56.7775"/>
</g>
<!-- H_agent&#45;&gt;ccw -->
<g id="edge69" class="edge">
<title>H_agent&#45;&gt;ccw</title>
<path fill="none" stroke="#ff0000" stroke-width=".7201" stroke-dasharray="1,5" d="M682.778,-120.2931C688.7871,-116.197 696.2314,-111.5229 703.3638,-108.1249 767.2913,-77.6688 847.451,-54.892 890.8778,-43.7257"/>
<polygon fill="#ff0000" stroke="#ff0000" stroke-width=".7201" points="892.0061,-47.0505 900.8408,-41.2026 890.2876,-40.2647 892.0061,-47.0505"/>
</g>
<!-- H_lm -->
<g id="node23" class="node">
<title>H_lm</title>
<polygon fill="#d3d3d3" stroke="#000000" points="1556.8638,-138.3381 1519.8638,-138.3381 1519.8638,-120.3381 1556.8638,-120.3381 1556.8638,-138.3381"/>
<text text-anchor="middle" x="1538.3638" y="-127.1381" font-family="Times,serif" font-size="9.00" fill="#000000">H_lm</text>
</g>
<!-- H_lm&#45;&gt;no_turn -->
<g id="edge63" class="edge">
<title>H_lm&#45;&gt;no_turn</title>
<path fill="none" stroke="#ff0000" stroke-width=".2282" d="M1526.7882,-120.1946C1520.7331,-115.8683 1513.0046,-111.0259 1505.3638,-108.1249 1485.6094,-100.6247 1192.8689,-57.8208 1083.327,-41.9673"/>
<polygon fill="#ff0000" stroke="#ff0000" stroke-width=".2282" points="1083.7114,-38.4866 1073.3134,-40.5194 1082.7096,-45.4146 1083.7114,-38.4866"/>
</g>
<!-- H_lm&#45;&gt;ccw -->
<g id="edge6" class="edge">
<title>H_lm&#45;&gt;ccw</title>
<path fill="none" stroke="#ff0000" stroke-width=".4296" d="M1519.6116,-122.0099C1506.5678,-117.2368 1488.6623,-111.3223 1472.3638,-108.1249 1266.7816,-67.7948 1205.353,-123.9511 1002.3638,-72.1249 984.5638,-67.5803 965.7825,-59.3156 950.8939,-51.8438"/>
<polygon fill="#ff0000" stroke="#ff0000" stroke-width=".4296" points="952.2112,-48.5845 941.7215,-47.0953 948.9929,-54.8009 952.2112,-48.5845"/>
</g>
<!-- H_lm&#45;&gt;cw -->
<g id="edge9" class="edge">
<title>H_lm&#45;&gt;cw</title>
<path fill="none" stroke="#00ff00" stroke-width=".2067" d="M1525.5643,-120.2299C1519.5959,-116.2155 1512.2939,-111.6259 1505.3638,-108.1249 1450.4984,-80.4074 1382.2995,-56.9029 1344.6523,-44.8087"/>
<polygon fill="#00ff00" stroke="#00ff00" stroke-width=".2067" points="1345.4707,-41.3965 1334.8804,-41.7061 1343.3524,-48.0683 1345.4707,-41.3965"/>
</g>
<!-- H_wall -->
<g id="node24" class="node">
<title>H_wall</title>
<polygon fill="#d3d3d3" stroke="#000000" points="351.8638,-138.3381 308.8638,-138.3381 308.8638,-120.3381 351.8638,-120.3381 351.8638,-138.3381"/>
<text text-anchor="middle" x="330.3638" y="-127.1381" font-family="Times,serif" font-size="9.00" fill="#000000">H_wall</text>
</g>
<!-- H_wall&#45;&gt;forward -->
<g id="edge53" class="edge">
<title>H_wall&#45;&gt;forward</title>
<path fill="none" stroke="#00ff00" stroke-width=".5164" stroke-dasharray="1,5" d="M341.9581,-120.2632C347.5883,-116.1606 354.5884,-111.4896 361.3638,-108.1249 406.68,-85.6206 425.4951,-97.3347 469.3638,-72.1249 472.8698,-70.1101 476.3458,-67.7655 479.7043,-65.257"/>
<polygon fill="#00ff00" stroke="#00ff00" stroke-width=".5164" points="482.1617,-67.7722 487.7614,-58.778 477.7751,-62.3171 482.1617,-67.7722"/>
</g>
<!-- H_wall&#45;&gt;backward -->
<g id="edge72" class="edge">
<title>H_wall&#45;&gt;backward</title>
<path fill="none" stroke="#ff0000" stroke-width=".4328" stroke-dasharray="1,5" d="M339.7205,-120.0535C351.5854,-108.28 372.6868,-87.3412 390.8516,-69.3164"/>
<polygon fill="#ff0000" stroke="#ff0000" stroke-width=".4328" points="393.7882,-71.3332 398.4213,-61.8051 388.8576,-66.3643 393.7882,-71.3332"/>
</g>
<!-- H_wall&#45;&gt;ccw -->
<g id="edge21" class="edge">
<title>H_wall&#45;&gt;ccw</title>
<path fill="none" stroke="#00ff00" stroke-width=".5276" d="M340.8026,-120.209C346.4901,-115.7736 353.8813,-110.829 361.3638,-108.1249 522.5741,-49.8638 575.8034,-97.272 745.3638,-72.1249 796.6699,-64.5158 855.5607,-51.6864 890.8212,-43.5579"/>
<polygon fill="#00ff00" stroke="#00ff00" stroke-width=".5276" points="892.0238,-46.8717 900.9709,-41.1972 890.438,-40.0537 892.0238,-46.8717"/>
</g>
<!-- 315&#45;&gt;no_move -->
<g id="edge78" class="edge">
<title>315&#45;&gt;no_move</title>
<path fill="none" stroke="#00ff00" stroke-width=".1512" stroke-dasharray="1,5" d="M622.4665,-114.3517C634.8652,-102.0486 652.8713,-84.1813 668.5522,-68.6212"/>
<polygon fill="#00ff00" stroke="#00ff00" stroke-width=".1512" points="671.3955,-70.7305 676.0286,-61.2024 666.4649,-65.7617 671.3955,-70.7305"/>
</g>
<!-- 125&#45;&gt;backward -->
<g id="edge74" class="edge">
<title>125&#45;&gt;backward</title>
<path fill="none" stroke="#00ff00" stroke-width=".2006" d="M55.0806,-115.6934C59.2265,-112.837 63.7959,-110.0972 68.3638,-108.1249 173.4024,-62.771 308.3725,-45.5076 378.0857,-39.2987"/>
<polygon fill="#00ff00" stroke="#00ff00" stroke-width=".2006" points="378.6269,-42.7653 388.2931,-38.4276 378.0316,-35.7907 378.6269,-42.7653"/>
</g>
<!-- 287&#45;&gt;cw -->
<g id="edge76" class="edge">
<title>287&#45;&gt;cw</title>
<path fill="none" stroke="#ff0000" stroke-width=".2437" d="M1709.8288,-117.0423C1704.4303,-113.7235 1698.3325,-110.4202 1692.3638,-108.1249 1569.211,-60.7656 1410.958,-43.523 1346.0967,-38.1674"/>
<polygon fill="#ff0000" stroke="#ff0000" stroke-width=".2437" points="1346.047,-34.6526 1335.8023,-37.3537 1345.4954,-41.6309 1346.047,-34.6526"/>
</g>
</g>
</svg>
