<?xml version="1.0" encoding="utf-8" standalone="no"?>
<!DOCTYPE svg PUBLIC "-//W3C//DTD SVG 1.1//EN"
  "http://www.w3.org/Graphics/SVG/1.1/DTD/svg11.dtd">
<!-- Created with matplotlib (https://matplotlib.org/) -->
<svg height="345.6pt" version="1.1" viewBox="0 0 460.8 345.6" width="460.8pt" xmlns="http://www.w3.org/2000/svg" xmlns:xlink="http://www.w3.org/1999/xlink">
 <metadata>
  <rdf:RDF xmlns:cc="http://creativecommons.org/ns#" xmlns:dc="http://purl.org/dc/elements/1.1/" xmlns:rdf="http://www.w3.org/1999/02/22-rdf-syntax-ns#">
   <cc:Work>
    <dc:type rdf:resource="http://purl.org/dc/dcmitype/StillImage"/>
    <dc:date>2021-04-29T19:53:27.430190</dc:date>
    <dc:format>image/svg+xml</dc:format>
    <dc:creator>
     <cc:Agent>
      <dc:title>Matplotlib v3.3.4, https://matplotlib.org/</dc:title>
     </cc:Agent>
    </dc:creator>
   </cc:Work>
  </rdf:RDF>
 </metadata>
 <defs>
  <style type="text/css">*{stroke-linecap:butt;stroke-linejoin:round;}</style>
 </defs>
 <g id="figure_1">
  <g id="patch_1">
   <path d="M 0 345.6 
L 460.8 345.6 
L 460.8 0 
L 0 0 
z
" style="fill:#ffffff;"/>
  </g>
  <g id="axes_1">
   <g id="patch_2">
    <path d="M 57.6 307.584 
L 414.72 307.584 
L 414.72 41.472 
L 57.6 41.472 
z
" style="fill:#ffffff;"/>
   </g>
   <g id="matplotlib.axis_1">
    <g id="xtick_1">
     <g id="line2d_1">
      <path clip-path="url(#p8be08bb5f7)" d="M 73.832727 307.584 
L 73.832727 41.472 
" style="fill:none;stroke:#b0b0b0;stroke-linecap:square;stroke-width:0.8;"/>
     </g>
     <g id="line2d_2">
      <defs>
       <path d="M 0 0 
L 0 3.5 
" id="meace4147e4" style="stroke:#000000;stroke-width:0.8;"/>
      </defs>
      <g>
       <use style="stroke:#000000;stroke-width:0.8;" x="73.832727" xlink:href="#meace4147e4" y="307.584"/>
      </g>
     </g>
     <g id="text_1">
      <!-- 0 -->
      <g transform="translate(70.651477 322.182437)scale(0.1 -0.1)">
       <defs>
        <path d="M 31.78125 66.40625 
Q 24.171875 66.40625 20.328125 58.90625 
Q 16.5 51.421875 16.5 36.375 
Q 16.5 21.390625 20.328125 13.890625 
Q 24.171875 6.390625 31.78125 6.390625 
Q 39.453125 6.390625 43.28125 13.890625 
Q 47.125 21.390625 47.125 36.375 
Q 47.125 51.421875 43.28125 58.90625 
Q 39.453125 66.40625 31.78125 66.40625 
z
M 31.78125 74.21875 
Q 44.046875 74.21875 50.515625 64.515625 
Q 56.984375 54.828125 56.984375 36.375 
Q 56.984375 17.96875 50.515625 8.265625 
Q 44.046875 -1.421875 31.78125 -1.421875 
Q 19.53125 -1.421875 13.0625 8.265625 
Q 6.59375 17.96875 6.59375 36.375 
Q 6.59375 54.828125 13.0625 64.515625 
Q 19.53125 74.21875 31.78125 74.21875 
z
" id="DejaVuSans-48"/>
       </defs>
       <use xlink:href="#DejaVuSans-48"/>
      </g>
     </g>
    </g>
    <g id="xtick_2">
     <g id="line2d_3">
      <path clip-path="url(#p8be08bb5f7)" d="M 127.229856 307.584 
L 127.229856 41.472 
" style="fill:none;stroke:#b0b0b0;stroke-linecap:square;stroke-width:0.8;"/>
     </g>
     <g id="line2d_4">
      <g>
       <use style="stroke:#000000;stroke-width:0.8;" x="127.229856" xlink:href="#meace4147e4" y="307.584"/>
      </g>
     </g>
     <g id="text_2">
      <!-- 50 -->
      <g transform="translate(120.867356 322.182437)scale(0.1 -0.1)">
       <defs>
        <path d="M 10.796875 72.90625 
L 49.515625 72.90625 
L 49.515625 64.59375 
L 19.828125 64.59375 
L 19.828125 46.734375 
Q 21.96875 47.46875 24.109375 47.828125 
Q 26.265625 48.1875 28.421875 48.1875 
Q 40.625 48.1875 47.75 41.5 
Q 54.890625 34.8125 54.890625 23.390625 
Q 54.890625 11.625 47.5625 5.09375 
Q 40.234375 -1.421875 26.90625 -1.421875 
Q 22.3125 -1.421875 17.546875 -0.640625 
Q 12.796875 0.140625 7.71875 1.703125 
L 7.71875 11.625 
Q 12.109375 9.234375 16.796875 8.0625 
Q 21.484375 6.890625 26.703125 6.890625 
Q 35.15625 6.890625 40.078125 11.328125 
Q 45.015625 15.765625 45.015625 23.390625 
Q 45.015625 31 40.078125 35.4375 
Q 35.15625 39.890625 26.703125 39.890625 
Q 22.75 39.890625 18.8125 39.015625 
Q 14.890625 38.140625 10.796875 36.28125 
z
" id="DejaVuSans-53"/>
       </defs>
       <use xlink:href="#DejaVuSans-53"/>
       <use x="63.623047" xlink:href="#DejaVuSans-48"/>
      </g>
     </g>
    </g>
    <g id="xtick_3">
     <g id="line2d_5">
      <path clip-path="url(#p8be08bb5f7)" d="M 180.626986 307.584 
L 180.626986 41.472 
" style="fill:none;stroke:#b0b0b0;stroke-linecap:square;stroke-width:0.8;"/>
     </g>
     <g id="line2d_6">
      <g>
       <use style="stroke:#000000;stroke-width:0.8;" x="180.626986" xlink:href="#meace4147e4" y="307.584"/>
      </g>
     </g>
     <g id="text_3">
      <!-- 100 -->
      <g transform="translate(171.083236 322.182437)scale(0.1 -0.1)">
       <defs>
        <path d="M 12.40625 8.296875 
L 28.515625 8.296875 
L 28.515625 63.921875 
L 10.984375 60.40625 
L 10.984375 69.390625 
L 28.421875 72.90625 
L 38.28125 72.90625 
L 38.28125 8.296875 
L 54.390625 8.296875 
L 54.390625 0 
L 12.40625 0 
z
" id="DejaVuSans-49"/>
       </defs>
       <use xlink:href="#DejaVuSans-49"/>
       <use x="63.623047" xlink:href="#DejaVuSans-48"/>
       <use x="127.246094" xlink:href="#DejaVuSans-48"/>
      </g>
     </g>
    </g>
    <g id="xtick_4">
     <g id="line2d_7">
      <path clip-path="url(#p8be08bb5f7)" d="M 234.024115 307.584 
L 234.024115 41.472 
" style="fill:none;stroke:#b0b0b0;stroke-linecap:square;stroke-width:0.8;"/>
     </g>
     <g id="line2d_8">
      <g>
       <use style="stroke:#000000;stroke-width:0.8;" x="234.024115" xlink:href="#meace4147e4" y="307.584"/>
      </g>
     </g>
     <g id="text_4">
      <!-- 150 -->
      <g transform="translate(224.480365 322.182437)scale(0.1 -0.1)">
       <use xlink:href="#DejaVuSans-49"/>
       <use x="63.623047" xlink:href="#DejaVuSans-53"/>
       <use x="127.246094" xlink:href="#DejaVuSans-48"/>
      </g>
     </g>
    </g>
    <g id="xtick_5">
     <g id="line2d_9">
      <path clip-path="url(#p8be08bb5f7)" d="M 287.421244 307.584 
L 287.421244 41.472 
" style="fill:none;stroke:#b0b0b0;stroke-linecap:square;stroke-width:0.8;"/>
     </g>
     <g id="line2d_10">
      <g>
       <use style="stroke:#000000;stroke-width:0.8;" x="287.421244" xlink:href="#meace4147e4" y="307.584"/>
      </g>
     </g>
     <g id="text_5">
      <!-- 200 -->
      <g transform="translate(277.877494 322.182437)scale(0.1 -0.1)">
       <defs>
        <path d="M 19.1875 8.296875 
L 53.609375 8.296875 
L 53.609375 0 
L 7.328125 0 
L 7.328125 8.296875 
Q 12.9375 14.109375 22.625 23.890625 
Q 32.328125 33.6875 34.8125 36.53125 
Q 39.546875 41.84375 41.421875 45.53125 
Q 43.3125 49.21875 43.3125 52.78125 
Q 43.3125 58.59375 39.234375 62.25 
Q 35.15625 65.921875 28.609375 65.921875 
Q 23.96875 65.921875 18.8125 64.3125 
Q 13.671875 62.703125 7.8125 59.421875 
L 7.8125 69.390625 
Q 13.765625 71.78125 18.9375 73 
Q 24.125 74.21875 28.421875 74.21875 
Q 39.75 74.21875 46.484375 68.546875 
Q 53.21875 62.890625 53.21875 53.421875 
Q 53.21875 48.921875 51.53125 44.890625 
Q 49.859375 40.875 45.40625 35.40625 
Q 44.1875 33.984375 37.640625 27.21875 
Q 31.109375 20.453125 19.1875 8.296875 
z
" id="DejaVuSans-50"/>
       </defs>
       <use xlink:href="#DejaVuSans-50"/>
       <use x="63.623047" xlink:href="#DejaVuSans-48"/>
       <use x="127.246094" xlink:href="#DejaVuSans-48"/>
      </g>
     </g>
    </g>
    <g id="xtick_6">
     <g id="line2d_11">
      <path clip-path="url(#p8be08bb5f7)" d="M 340.818373 307.584 
L 340.818373 41.472 
" style="fill:none;stroke:#b0b0b0;stroke-linecap:square;stroke-width:0.8;"/>
     </g>
     <g id="line2d_12">
      <g>
       <use style="stroke:#000000;stroke-width:0.8;" x="340.818373" xlink:href="#meace4147e4" y="307.584"/>
      </g>
     </g>
     <g id="text_6">
      <!-- 250 -->
      <g transform="translate(331.274623 322.182437)scale(0.1 -0.1)">
       <use xlink:href="#DejaVuSans-50"/>
       <use x="63.623047" xlink:href="#DejaVuSans-53"/>
       <use x="127.246094" xlink:href="#DejaVuSans-48"/>
      </g>
     </g>
    </g>
    <g id="xtick_7">
     <g id="line2d_13">
      <path clip-path="url(#p8be08bb5f7)" d="M 394.215502 307.584 
L 394.215502 41.472 
" style="fill:none;stroke:#b0b0b0;stroke-linecap:square;stroke-width:0.8;"/>
     </g>
     <g id="line2d_14">
      <g>
       <use style="stroke:#000000;stroke-width:0.8;" x="394.215502" xlink:href="#meace4147e4" y="307.584"/>
      </g>
     </g>
     <g id="text_7">
      <!-- 300 -->
      <g transform="translate(384.671752 322.182437)scale(0.1 -0.1)">
       <defs>
        <path d="M 40.578125 39.3125 
Q 47.65625 37.796875 51.625 33 
Q 55.609375 28.21875 55.609375 21.1875 
Q 55.609375 10.40625 48.1875 4.484375 
Q 40.765625 -1.421875 27.09375 -1.421875 
Q 22.515625 -1.421875 17.65625 -0.515625 
Q 12.796875 0.390625 7.625 2.203125 
L 7.625 11.71875 
Q 11.71875 9.328125 16.59375 8.109375 
Q 21.484375 6.890625 26.8125 6.890625 
Q 36.078125 6.890625 40.9375 10.546875 
Q 45.796875 14.203125 45.796875 21.1875 
Q 45.796875 27.640625 41.28125 31.265625 
Q 36.765625 34.90625 28.71875 34.90625 
L 20.21875 34.90625 
L 20.21875 43.015625 
L 29.109375 43.015625 
Q 36.375 43.015625 40.234375 45.921875 
Q 44.09375 48.828125 44.09375 54.296875 
Q 44.09375 59.90625 40.109375 62.90625 
Q 36.140625 65.921875 28.71875 65.921875 
Q 24.65625 65.921875 20.015625 65.03125 
Q 15.375 64.15625 9.8125 62.3125 
L 9.8125 71.09375 
Q 15.4375 72.65625 20.34375 73.4375 
Q 25.25 74.21875 29.59375 74.21875 
Q 40.828125 74.21875 47.359375 69.109375 
Q 53.90625 64.015625 53.90625 55.328125 
Q 53.90625 49.265625 50.4375 45.09375 
Q 46.96875 40.921875 40.578125 39.3125 
z
" id="DejaVuSans-51"/>
       </defs>
       <use xlink:href="#DejaVuSans-51"/>
       <use x="63.623047" xlink:href="#DejaVuSans-48"/>
       <use x="127.246094" xlink:href="#DejaVuSans-48"/>
      </g>
     </g>
    </g>
    <g id="text_8">
     <!-- Generations -->
     <g transform="translate(205.662344 335.860562)scale(0.1 -0.1)">
      <defs>
       <path d="M 59.515625 10.40625 
L 59.515625 29.984375 
L 43.40625 29.984375 
L 43.40625 38.09375 
L 69.28125 38.09375 
L 69.28125 6.78125 
Q 63.578125 2.734375 56.6875 0.65625 
Q 49.8125 -1.421875 42 -1.421875 
Q 24.90625 -1.421875 15.25 8.5625 
Q 5.609375 18.5625 5.609375 36.375 
Q 5.609375 54.25 15.25 64.234375 
Q 24.90625 74.21875 42 74.21875 
Q 49.125 74.21875 55.546875 72.453125 
Q 61.96875 70.703125 67.390625 67.28125 
L 67.390625 56.78125 
Q 61.921875 61.421875 55.765625 63.765625 
Q 49.609375 66.109375 42.828125 66.109375 
Q 29.4375 66.109375 22.71875 58.640625 
Q 16.015625 51.171875 16.015625 36.375 
Q 16.015625 21.625 22.71875 14.15625 
Q 29.4375 6.6875 42.828125 6.6875 
Q 48.046875 6.6875 52.140625 7.59375 
Q 56.25 8.5 59.515625 10.40625 
z
" id="DejaVuSans-71"/>
       <path d="M 56.203125 29.59375 
L 56.203125 25.203125 
L 14.890625 25.203125 
Q 15.484375 15.921875 20.484375 11.0625 
Q 25.484375 6.203125 34.421875 6.203125 
Q 39.59375 6.203125 44.453125 7.46875 
Q 49.3125 8.734375 54.109375 11.28125 
L 54.109375 2.78125 
Q 49.265625 0.734375 44.1875 -0.34375 
Q 39.109375 -1.421875 33.890625 -1.421875 
Q 20.796875 -1.421875 13.15625 6.1875 
Q 5.515625 13.8125 5.515625 26.8125 
Q 5.515625 40.234375 12.765625 48.109375 
Q 20.015625 56 32.328125 56 
Q 43.359375 56 49.78125 48.890625 
Q 56.203125 41.796875 56.203125 29.59375 
z
M 47.21875 32.234375 
Q 47.125 39.59375 43.09375 43.984375 
Q 39.0625 48.390625 32.421875 48.390625 
Q 24.90625 48.390625 20.390625 44.140625 
Q 15.875 39.890625 15.1875 32.171875 
z
" id="DejaVuSans-101"/>
       <path d="M 54.890625 33.015625 
L 54.890625 0 
L 45.90625 0 
L 45.90625 32.71875 
Q 45.90625 40.484375 42.875 44.328125 
Q 39.84375 48.1875 33.796875 48.1875 
Q 26.515625 48.1875 22.3125 43.546875 
Q 18.109375 38.921875 18.109375 30.90625 
L 18.109375 0 
L 9.078125 0 
L 9.078125 54.6875 
L 18.109375 54.6875 
L 18.109375 46.1875 
Q 21.34375 51.125 25.703125 53.5625 
Q 30.078125 56 35.796875 56 
Q 45.21875 56 50.046875 50.171875 
Q 54.890625 44.34375 54.890625 33.015625 
z
" id="DejaVuSans-110"/>
       <path d="M 41.109375 46.296875 
Q 39.59375 47.171875 37.8125 47.578125 
Q 36.03125 48 33.890625 48 
Q 26.265625 48 22.1875 43.046875 
Q 18.109375 38.09375 18.109375 28.8125 
L 18.109375 0 
L 9.078125 0 
L 9.078125 54.6875 
L 18.109375 54.6875 
L 18.109375 46.1875 
Q 20.953125 51.171875 25.484375 53.578125 
Q 30.03125 56 36.53125 56 
Q 37.453125 56 38.578125 55.875 
Q 39.703125 55.765625 41.0625 55.515625 
z
" id="DejaVuSans-114"/>
       <path d="M 34.28125 27.484375 
Q 23.390625 27.484375 19.1875 25 
Q 14.984375 22.515625 14.984375 16.5 
Q 14.984375 11.71875 18.140625 8.90625 
Q 21.296875 6.109375 26.703125 6.109375 
Q 34.1875 6.109375 38.703125 11.40625 
Q 43.21875 16.703125 43.21875 25.484375 
L 43.21875 27.484375 
z
M 52.203125 31.203125 
L 52.203125 0 
L 43.21875 0 
L 43.21875 8.296875 
Q 40.140625 3.328125 35.546875 0.953125 
Q 30.953125 -1.421875 24.3125 -1.421875 
Q 15.921875 -1.421875 10.953125 3.296875 
Q 6 8.015625 6 15.921875 
Q 6 25.140625 12.171875 29.828125 
Q 18.359375 34.515625 30.609375 34.515625 
L 43.21875 34.515625 
L 43.21875 35.40625 
Q 43.21875 41.609375 39.140625 45 
Q 35.0625 48.390625 27.6875 48.390625 
Q 23 48.390625 18.546875 47.265625 
Q 14.109375 46.140625 10.015625 43.890625 
L 10.015625 52.203125 
Q 14.9375 54.109375 19.578125 55.046875 
Q 24.21875 56 28.609375 56 
Q 40.484375 56 46.34375 49.84375 
Q 52.203125 43.703125 52.203125 31.203125 
z
" id="DejaVuSans-97"/>
       <path d="M 18.3125 70.21875 
L 18.3125 54.6875 
L 36.8125 54.6875 
L 36.8125 47.703125 
L 18.3125 47.703125 
L 18.3125 18.015625 
Q 18.3125 11.328125 20.140625 9.421875 
Q 21.96875 7.515625 27.59375 7.515625 
L 36.8125 7.515625 
L 36.8125 0 
L 27.59375 0 
Q 17.1875 0 13.234375 3.875 
Q 9.28125 7.765625 9.28125 18.015625 
L 9.28125 47.703125 
L 2.6875 47.703125 
L 2.6875 54.6875 
L 9.28125 54.6875 
L 9.28125 70.21875 
z
" id="DejaVuSans-116"/>
       <path d="M 9.421875 54.6875 
L 18.40625 54.6875 
L 18.40625 0 
L 9.421875 0 
z
M 9.421875 75.984375 
L 18.40625 75.984375 
L 18.40625 64.59375 
L 9.421875 64.59375 
z
" id="DejaVuSans-105"/>
       <path d="M 30.609375 48.390625 
Q 23.390625 48.390625 19.1875 42.75 
Q 14.984375 37.109375 14.984375 27.296875 
Q 14.984375 17.484375 19.15625 11.84375 
Q 23.34375 6.203125 30.609375 6.203125 
Q 37.796875 6.203125 41.984375 11.859375 
Q 46.1875 17.53125 46.1875 27.296875 
Q 46.1875 37.015625 41.984375 42.703125 
Q 37.796875 48.390625 30.609375 48.390625 
z
M 30.609375 56 
Q 42.328125 56 49.015625 48.375 
Q 55.71875 40.765625 55.71875 27.296875 
Q 55.71875 13.875 49.015625 6.21875 
Q 42.328125 -1.421875 30.609375 -1.421875 
Q 18.84375 -1.421875 12.171875 6.21875 
Q 5.515625 13.875 5.515625 27.296875 
Q 5.515625 40.765625 12.171875 48.375 
Q 18.84375 56 30.609375 56 
z
" id="DejaVuSans-111"/>
       <path d="M 44.28125 53.078125 
L 44.28125 44.578125 
Q 40.484375 46.53125 36.375 47.5 
Q 32.28125 48.484375 27.875 48.484375 
Q 21.1875 48.484375 17.84375 46.4375 
Q 14.5 44.390625 14.5 40.28125 
Q 14.5 37.15625 16.890625 35.375 
Q 19.28125 33.59375 26.515625 31.984375 
L 29.59375 31.296875 
Q 39.15625 29.25 43.1875 25.515625 
Q 47.21875 21.78125 47.21875 15.09375 
Q 47.21875 7.46875 41.1875 3.015625 
Q 35.15625 -1.421875 24.609375 -1.421875 
Q 20.21875 -1.421875 15.453125 -0.5625 
Q 10.6875 0.296875 5.421875 2 
L 5.421875 11.28125 
Q 10.40625 8.6875 15.234375 7.390625 
Q 20.0625 6.109375 24.8125 6.109375 
Q 31.15625 6.109375 34.5625 8.28125 
Q 37.984375 10.453125 37.984375 14.40625 
Q 37.984375 18.0625 35.515625 20.015625 
Q 33.0625 21.96875 24.703125 23.78125 
L 21.578125 24.515625 
Q 13.234375 26.265625 9.515625 29.90625 
Q 5.8125 33.546875 5.8125 39.890625 
Q 5.8125 47.609375 11.28125 51.796875 
Q 16.75 56 26.8125 56 
Q 31.78125 56 36.171875 55.265625 
Q 40.578125 54.546875 44.28125 53.078125 
z
" id="DejaVuSans-115"/>
      </defs>
      <use xlink:href="#DejaVuSans-71"/>
      <use x="77.490234" xlink:href="#DejaVuSans-101"/>
      <use x="139.013672" xlink:href="#DejaVuSans-110"/>
      <use x="202.392578" xlink:href="#DejaVuSans-101"/>
      <use x="263.916016" xlink:href="#DejaVuSans-114"/>
      <use x="305.029297" xlink:href="#DejaVuSans-97"/>
      <use x="366.308594" xlink:href="#DejaVuSans-116"/>
      <use x="405.517578" xlink:href="#DejaVuSans-105"/>
      <use x="433.300781" xlink:href="#DejaVuSans-111"/>
      <use x="494.482422" xlink:href="#DejaVuSans-110"/>
      <use x="557.861328" xlink:href="#DejaVuSans-115"/>
     </g>
    </g>
   </g>
   <g id="matplotlib.axis_2">
    <g id="ytick_1">
     <g id="line2d_15">
      <path clip-path="url(#p8be08bb5f7)" d="M 57.6 302.32692 
L 414.72 302.32692 
" style="fill:none;stroke:#b0b0b0;stroke-linecap:square;stroke-width:0.8;"/>
     </g>
     <g id="line2d_16">
      <defs>
       <path d="M 0 0 
L -3.5 0 
" id="m3c8cece5d7" style="stroke:#000000;stroke-width:0.8;"/>
      </defs>
      <g>
       <use style="stroke:#000000;stroke-width:0.8;" x="57.6" xlink:href="#m3c8cece5d7" y="302.32692"/>
      </g>
     </g>
     <g id="text_9">
      <!-- $\mathdefault{-10^{3}}$ -->
      <g transform="translate(24.6 306.126139)scale(0.1 -0.1)">
       <defs>
        <path d="M 10.59375 35.5 
L 73.1875 35.5 
L 73.1875 27.203125 
L 10.59375 27.203125 
z
" id="DejaVuSans-8722"/>
       </defs>
       <use transform="translate(0 0.765625)" xlink:href="#DejaVuSans-8722"/>
       <use transform="translate(83.789062 0.765625)" xlink:href="#DejaVuSans-49"/>
       <use transform="translate(147.412109 0.765625)" xlink:href="#DejaVuSans-48"/>
       <use transform="translate(211.992188 39.046875)scale(0.7)" xlink:href="#DejaVuSans-51"/>
      </g>
     </g>
    </g>
    <g id="text_10">
     <!-- Fitness -->
     <g transform="translate(18.520312 191.845187)rotate(-90)scale(0.1 -0.1)">
      <defs>
       <path d="M 9.8125 72.90625 
L 51.703125 72.90625 
L 51.703125 64.59375 
L 19.671875 64.59375 
L 19.671875 43.109375 
L 48.578125 43.109375 
L 48.578125 34.8125 
L 19.671875 34.8125 
L 19.671875 0 
L 9.8125 0 
z
" id="DejaVuSans-70"/>
      </defs>
      <use xlink:href="#DejaVuSans-70"/>
      <use x="50.269531" xlink:href="#DejaVuSans-105"/>
      <use x="78.052734" xlink:href="#DejaVuSans-116"/>
      <use x="117.261719" xlink:href="#DejaVuSans-110"/>
      <use x="180.640625" xlink:href="#DejaVuSans-101"/>
      <use x="242.164062" xlink:href="#DejaVuSans-115"/>
      <use x="294.263672" xlink:href="#DejaVuSans-115"/>
     </g>
    </g>
   </g>
   <g id="line2d_17">
    <path clip-path="url(#p8be08bb5f7)" d="M 73.832727 295.488 
L 74.90067 290.187021 
L 75.968612 287.838458 
L 77.036555 286.407706 
L 78.104498 287.317518 
L 79.17244 285.499374 
L 80.240383 285.333531 
L 81.308325 282.331517 
L 82.376268 281.811306 
L 83.444211 283.780943 
L 84.512153 280.749108 
L 85.580096 281.382615 
L 86.648038 281.453758 
L 87.715981 283.00629 
L 88.783923 282.294038 
L 89.851866 282.679225 
L 90.919809 280.586609 
L 91.987751 280.467521 
L 93.055694 278.003761 
L 94.123636 277.760282 
L 95.191579 279.626117 
L 96.259522 277.487682 
L 97.327464 277.57117 
L 98.395407 271.039287 
L 99.463349 269.925956 
L 100.531292 270.310627 
L 101.599234 271.441573 
L 102.667177 265.994895 
L 103.73512 265.498829 
L 104.803062 271.597495 
L 105.871005 264.993829 
L 106.938947 262.535785 
L 108.00689 267.61499 
L 109.074833 263.949882 
L 110.142775 265.943658 
L 111.210718 263.35821 
L 112.27866 265.634389 
L 113.346603 265.337473 
L 114.414545 266.467114 
L 115.482488 270.479394 
L 116.550431 268.810221 
L 117.618373 248.373306 
L 118.686316 262.042656 
L 119.754258 258.213319 
L 120.822201 258.790255 
L 121.890144 249.516766 
L 122.958086 257.432482 
L 124.026029 257.96367 
L 125.093971 258.357264 
L 126.161914 255.115713 
L 127.229856 246.849996 
L 128.297799 242.348591 
L 129.365742 236.822867 
L 130.433684 248.095113 
L 132.569569 246.746957 
L 133.637512 238.784028 
L 134.705455 247.684839 
L 135.773397 231.648592 
L 136.84134 239.155951 
L 137.909282 249.164506 
L 138.977225 241.036379 
L 140.045167 243.039784 
L 141.11311 243.116278 
L 142.181053 241.954105 
L 143.248995 252.196728 
L 144.316938 238.910633 
L 145.38488 243.262707 
L 146.452823 244.73783 
L 147.520766 244.722505 
L 148.588708 244.53888 
L 149.656651 250.642478 
L 150.724593 249.723109 
L 151.792536 247.669653 
L 152.860478 247.493778 
L 153.928421 249.528553 
L 154.996364 249.588589 
L 156.064306 250.138242 
L 157.132249 241.225976 
L 158.200191 247.420536 
L 160.336077 237.984217 
L 161.404019 229.580059 
L 162.471962 232.615659 
L 163.539904 240.520299 
L 164.607847 245.883523 
L 165.675789 238.991615 
L 166.743732 224.719728 
L 167.811675 232.764607 
L 168.879617 236.114013 
L 169.94756 234.47084 
L 171.015502 238.859462 
L 172.083445 240.870574 
L 173.151388 248.346676 
L 174.21933 246.73707 
L 175.287273 242.986266 
L 176.355215 231.704 
L 177.423158 229.650128 
L 179.559043 239.432219 
L 180.626986 233.48364 
L 181.694928 221.332 
L 182.762871 241.694065 
L 183.830813 236.817802 
L 184.898756 235.527838 
L 185.966699 241.507866 
L 187.034641 248.409387 
L 188.102584 233.347862 
L 189.170526 245.551205 
L 190.238469 232.659669 
L 191.306411 237.594257 
L 192.374354 228.520769 
L 193.442297 233.559566 
L 194.510239 233.684267 
L 195.578182 240.647656 
L 196.646124 229.419489 
L 197.714067 248.747093 
L 198.78201 238.088409 
L 199.849952 233.804188 
L 200.917895 214.836859 
L 201.985837 214.968622 
L 203.05378 223.580585 
L 204.121722 218.16488 
L 205.189665 221.962976 
L 206.257608 228.419314 
L 207.32555 223.275054 
L 208.393493 230.873742 
L 209.461435 237.242828 
L 210.529378 244.348826 
L 212.665263 228.798413 
L 213.733206 229.57832 
L 214.801148 223.71158 
L 215.869091 233.214657 
L 216.937033 236.706903 
L 218.004976 233.847481 
L 219.072919 240.130253 
L 220.140861 244.710296 
L 221.208804 240.563416 
L 222.276746 238.340748 
L 223.344689 230.273412 
L 225.480574 234.175986 
L 226.548517 244.163777 
L 228.684402 235.277756 
L 229.752344 237.230616 
L 230.820287 234.794194 
L 231.88823 225.937888 
L 232.956172 237.346338 
L 234.024115 241.343867 
L 235.092057 235.744511 
L 236.16 239.535633 
L 237.227943 234.235429 
L 238.295885 236.49601 
L 239.363828 246.768085 
L 240.43177 247.57915 
L 241.499713 238.006993 
L 242.567656 244.888631 
L 243.635598 245.349767 
L 244.703541 246.763101 
L 245.771483 241.368044 
L 246.839426 227.769676 
L 247.907368 239.649914 
L 248.975311 236.548236 
L 250.043254 224.213904 
L 251.111196 237.945757 
L 252.179139 229.205181 
L 253.247081 228.851817 
L 254.315024 233.534639 
L 255.382967 228.902393 
L 256.450909 220.278102 
L 257.518852 229.950458 
L 258.586794 234.142115 
L 259.654737 233.604057 
L 260.722679 232.136876 
L 261.790622 236.87655 
L 262.858565 226.855203 
L 263.926507 223.768776 
L 264.99445 233.419221 
L 266.062392 225.464545 
L 267.130335 230.778734 
L 268.198278 228.194535 
L 269.26622 232.21266 
L 270.334163 252.302338 
L 271.402105 241.752794 
L 272.470048 225.647748 
L 273.53799 221.403495 
L 274.605933 241.613522 
L 275.673876 227.06682 
L 276.741818 225.197635 
L 277.809761 226.444297 
L 278.877703 208.825093 
L 279.945646 226.718648 
L 281.013589 222.629271 
L 282.081531 227.084554 
L 283.149474 230.739861 
L 284.217416 223.406631 
L 285.285359 227.290358 
L 286.353301 240.421158 
L 287.421244 231.941315 
L 288.489187 232.481101 
L 289.557129 225.787945 
L 290.625072 239.559388 
L 291.693014 230.724636 
L 292.760957 234.016148 
L 293.8289 236.681319 
L 294.896842 230.991122 
L 295.964785 230.638768 
L 297.032727 233.409265 
L 298.10067 232.196255 
L 299.168612 246.240295 
L 300.236555 239.311281 
L 301.304498 228.304057 
L 302.37244 221.265731 
L 303.440383 228.442651 
L 304.508325 221.994544 
L 305.576268 237.976459 
L 306.644211 245.513195 
L 307.712153 234.425751 
L 308.780096 233.235134 
L 309.848038 227.785386 
L 310.915981 237.382123 
L 311.983923 221.418004 
L 313.051866 226.177759 
L 314.119809 227.080701 
L 315.187751 223.967875 
L 316.255694 234.050261 
L 317.323636 230.340693 
L 318.391579 229.099466 
L 319.459522 225.766132 
L 320.527464 232.073464 
L 321.595407 223.389302 
L 322.663349 232.993354 
L 323.731292 233.978376 
L 324.799234 239.20934 
L 325.867177 240.691926 
L 326.93512 226.585742 
L 328.003062 242.584941 
L 329.071005 226.332829 
L 330.138947 230.33347 
L 331.20689 251.67043 
L 332.274833 237.389341 
L 334.410718 237.390956 
L 335.47866 244.756452 
L 336.546603 236.359117 
L 337.614545 232.130089 
L 338.682488 233.989305 
L 339.750431 237.038264 
L 340.818373 223.049794 
L 341.886316 228.064347 
L 342.954258 240.408303 
L 344.022201 235.663881 
L 345.090144 234.312647 
L 346.158086 228.206119 
L 347.226029 224.240165 
L 348.293971 222.967356 
L 349.361914 225.613411 
L 350.429856 223.114549 
L 351.497799 226.231115 
L 352.565742 220.042522 
L 353.633684 212.462112 
L 354.701627 225.065252 
L 355.769569 217.460926 
L 356.837512 232.827045 
L 357.905455 212.633101 
L 358.973397 230.001427 
L 360.04134 223.401592 
L 361.109282 219.797945 
L 362.177225 219.709007 
L 363.245167 233.554864 
L 364.31311 221.902237 
L 365.381053 214.896121 
L 366.448995 218.387456 
L 367.516938 214.743443 
L 368.58488 232.757481 
L 369.652823 232.653972 
L 370.720766 217.194819 
L 371.788708 225.206124 
L 372.856651 227.745606 
L 373.924593 223.706586 
L 374.992536 224.354511 
L 376.060478 221.242877 
L 377.128421 213.881559 
L 378.196364 230.695481 
L 379.264306 214.346824 
L 380.332249 232.659499 
L 381.400191 233.159289 
L 382.468134 231.123129 
L 383.536077 229.948642 
L 384.604019 227.176942 
L 385.671962 229.056025 
L 386.739904 225.447971 
L 387.807847 220.546331 
L 388.875789 220.798263 
L 391.011675 230.939728 
L 392.079617 218.696985 
L 393.14756 221.096798 
L 394.215502 230.780178 
L 395.283445 224.060548 
L 396.351388 231.075953 
L 397.41933 217.126644 
L 398.487273 222.098904 
L 398.487273 222.098904 
" style="fill:none;stroke:#0000ff;stroke-linecap:square;stroke-width:1.5;"/>
   </g>
   <g id="line2d_18">
    <path clip-path="url(#p8be08bb5f7)" d="M 73.832727 274.463809 
L 74.90067 271.225005 
L 75.968612 238.962108 
L 77.036555 254.086747 
L 78.104498 266.379105 
L 79.17244 224.396139 
L 80.240383 232.643685 
L 81.308325 216.099198 
L 82.376268 224.091211 
L 83.444211 235.297163 
L 84.512153 226.53049 
L 85.580096 236.768273 
L 86.648038 237.910682 
L 87.715981 226.445037 
L 88.783923 232.14568 
L 89.851866 247.805289 
L 90.919809 208.050265 
L 91.987751 228.017037 
L 93.055694 222.712959 
L 94.123636 226.753602 
L 95.191579 217.417964 
L 96.259522 212.2663 
L 97.327464 229.298824 
L 99.463349 202.823636 
L 100.531292 184.130149 
L 101.599234 219.631089 
L 102.667177 206.768766 
L 103.73512 191.414066 
L 104.803062 202.090681 
L 105.871005 183.700583 
L 106.938947 203.114537 
L 108.00689 193.619492 
L 109.074833 193.44411 
L 110.142775 196.846706 
L 111.210718 181.871688 
L 112.27866 161.587148 
L 113.346603 144.578442 
L 114.414545 189.187036 
L 115.482488 180.331867 
L 116.550431 183.765387 
L 117.618373 161.174111 
L 119.754258 193.649559 
L 120.822201 130.932105 
L 121.890144 163.597782 
L 122.958086 182.549643 
L 124.026029 163.101113 
L 125.093971 183.091579 
L 126.161914 176.483697 
L 127.229856 126.501388 
L 128.297799 164.611859 
L 129.365742 142.773201 
L 130.433684 127.52288 
L 131.501627 148.456839 
L 132.569569 128.071614 
L 133.637512 139.515753 
L 134.705455 142.251006 
L 135.773397 133.725142 
L 136.84134 160.799111 
L 137.909282 169.229203 
L 138.977225 151.348315 
L 140.045167 155.489866 
L 141.11311 148.222192 
L 142.181053 158.735289 
L 143.248995 162.303051 
L 144.316938 123.141791 
L 145.38488 166.014588 
L 146.452823 132.071002 
L 147.520766 161.164314 
L 148.588708 168.101676 
L 149.656651 173.024459 
L 150.724593 168.770345 
L 151.792536 160.090664 
L 152.860478 141.160486 
L 153.928421 168.766637 
L 154.996364 115.376128 
L 156.064306 152.334803 
L 157.132249 155.58429 
L 158.200191 134.345682 
L 159.268134 138.927837 
L 160.336077 137.500676 
L 161.404019 153.890839 
L 162.471962 117.363799 
L 163.539904 151.947099 
L 164.607847 176.62736 
L 165.675789 128.807911 
L 166.743732 106.962081 
L 167.811675 113.497971 
L 168.879617 134.70572 
L 169.94756 103.293143 
L 171.015502 152.771136 
L 172.083445 128.29989 
L 173.151388 132.785911 
L 174.21933 143.977486 
L 175.287273 143.33931 
L 176.355215 123.645584 
L 177.423158 100.508198 
L 178.4911 101.651755 
L 179.559043 141.552496 
L 180.626986 135.411343 
L 181.694928 104.912121 
L 182.762871 152.169621 
L 183.830813 164.332829 
L 184.898756 98.939214 
L 185.966699 158.565757 
L 187.034641 128.757675 
L 188.102584 162.031496 
L 189.170526 153.087718 
L 190.238469 107.7976 
L 191.306411 126.570854 
L 192.374354 128.576691 
L 193.442297 145.91622 
L 194.510239 118.247411 
L 195.578182 144.33245 
L 196.646124 134.019563 
L 197.714067 142.246566 
L 198.78201 134.978352 
L 199.849952 98.99873 
L 200.917895 96.490394 
L 201.985837 77.966273 
L 203.05378 139.272726 
L 204.121722 83.09724 
L 205.189665 83.936471 
L 206.257608 144.43124 
L 207.32555 120.180359 
L 208.393493 128.198157 
L 209.461435 144.370962 
L 210.529378 134.412645 
L 211.597321 138.329031 
L 212.665263 115.993255 
L 213.733206 86.968058 
L 214.801148 124.366013 
L 215.869091 137.739636 
L 216.937033 131.298728 
L 218.004976 133.373419 
L 219.072919 104.729789 
L 220.140861 166.101259 
L 221.208804 149.211439 
L 222.276746 156.867816 
L 223.344689 139.624475 
L 224.412632 138.447399 
L 225.480574 131.62237 
L 226.548517 146.369829 
L 227.616459 119.765406 
L 228.684402 143.277172 
L 229.752344 120.291298 
L 230.820287 149.787111 
L 231.88823 120.906558 
L 232.956172 149.261674 
L 234.024115 136.164045 
L 235.092057 116.108093 
L 236.16 132.982925 
L 237.227943 134.395638 
L 238.295885 136.022439 
L 240.43177 160.785684 
L 241.499713 155.384737 
L 242.567656 166.750637 
L 243.635598 146.982343 
L 244.703541 161.608381 
L 245.771483 133.868459 
L 246.839426 144.282998 
L 247.907368 146.856812 
L 248.975311 129.86847 
L 250.043254 110.541224 
L 251.111196 163.411068 
L 252.179139 126.880412 
L 253.247081 100.712462 
L 254.315024 118.531612 
L 255.382967 61.391376 
L 256.450909 85.989289 
L 257.518852 146.103904 
L 258.586794 135.673063 
L 259.654737 151.093061 
L 260.722679 139.153218 
L 261.790622 112.951075 
L 262.858565 126.141343 
L 263.926507 104.841337 
L 264.99445 147.766426 
L 266.062392 160.819167 
L 267.130335 131.213052 
L 268.198278 70.115995 
L 269.26622 124.935682 
L 270.334163 168.137734 
L 271.402105 161.032947 
L 272.470048 147.086636 
L 273.53799 124.806448 
L 274.605933 145.777506 
L 275.673876 110.184343 
L 276.741818 80.392398 
L 277.809761 117.676735 
L 278.877703 116.102183 
L 279.945646 135.232726 
L 281.013589 143.2982 
L 282.081531 81.667716 
L 283.149474 130.716734 
L 284.217416 132.107204 
L 285.285359 117.243296 
L 286.353301 153.076966 
L 287.421244 158.703917 
L 288.489187 106.840252 
L 289.557129 120.063121 
L 290.625072 173.508001 
L 291.693014 104.238294 
L 292.760957 110.465469 
L 293.8289 124.428264 
L 294.896842 142.575966 
L 295.964785 123.569818 
L 297.032727 83.183216 
L 298.10067 142.245545 
L 299.168612 161.767423 
L 300.236555 94.263159 
L 301.304498 82.250345 
L 302.37244 136.314603 
L 303.440383 109.423163 
L 304.508325 120.200964 
L 305.576268 158.872557 
L 306.644211 120.034698 
L 307.712153 119.524895 
L 308.780096 134.010429 
L 309.848038 125.129796 
L 310.915981 143.962977 
L 311.983923 129.976117 
L 313.051866 122.498668 
L 314.119809 95.926017 
L 315.187751 138.781099 
L 316.255694 139.151091 
L 317.323636 132.421047 
L 318.391579 122.881044 
L 319.459522 123.743526 
L 320.527464 160.307727 
L 321.595407 146.015107 
L 322.663349 125.251611 
L 323.731292 165.388445 
L 324.799234 149.352381 
L 325.867177 148.511501 
L 326.93512 123.108 
L 328.003062 163.421854 
L 329.071005 144.490131 
L 330.138947 122.336061 
L 331.20689 121.770984 
L 332.274833 93.463044 
L 333.342775 141.952678 
L 334.410718 157.053511 
L 335.47866 157.703721 
L 336.546603 140.857244 
L 337.614545 144.678001 
L 338.682488 137.776888 
L 339.750431 127.033387 
L 340.818373 92.168824 
L 341.886316 129.821856 
L 342.954258 141.393111 
L 344.022201 149.938474 
L 345.090144 149.736716 
L 346.158086 109.126687 
L 347.226029 120.789433 
L 348.293971 121.087489 
L 349.361914 149.535603 
L 350.429856 96.579287 
L 351.497799 126.67542 
L 352.565742 124.701053 
L 353.633684 53.568 
L 354.701627 139.977579 
L 355.769569 101.718865 
L 356.837512 153.103344 
L 357.905455 99.340079 
L 358.973397 137.396578 
L 360.04134 125.269693 
L 361.109282 145.168754 
L 362.177225 117.353324 
L 363.245167 145.060499 
L 364.31311 126.938785 
L 365.381053 118.759833 
L 366.448995 83.0209 
L 368.58488 147.564008 
L 369.652823 140.930011 
L 370.720766 106.694066 
L 371.788708 137.90853 
L 372.856651 118.846781 
L 373.924593 118.645574 
L 374.992536 124.223329 
L 376.060478 108.476618 
L 377.128421 102.580537 
L 378.196364 147.436098 
L 379.264306 113.355622 
L 380.332249 161.218709 
L 381.400191 149.406028 
L 382.468134 144.166689 
L 383.536077 117.550901 
L 384.604019 122.17828 
L 385.671962 144.913036 
L 386.739904 116.233122 
L 387.807847 140.149698 
L 388.875789 93.517726 
L 389.943732 133.108828 
L 391.011675 133.155144 
L 392.079617 124.400865 
L 393.14756 97.203389 
L 394.215502 152.82588 
L 395.283445 134.484547 
L 396.351388 124.341912 
L 397.41933 152.837467 
L 398.487273 119.139266 
L 398.487273 119.139266 
" style="fill:none;stroke:#ff0000;stroke-linecap:square;stroke-width:1.5;"/>
   </g>
   <g id="patch_3">
    <path d="M 57.6 307.584 
L 57.6 41.472 
" style="fill:none;stroke:#000000;stroke-linecap:square;stroke-linejoin:miter;stroke-width:0.8;"/>
   </g>
   <g id="patch_4">
    <path d="M 414.72 307.584 
L 414.72 41.472 
" style="fill:none;stroke:#000000;stroke-linecap:square;stroke-linejoin:miter;stroke-width:0.8;"/>
   </g>
   <g id="patch_5">
    <path d="M 57.6 307.584 
L 414.72 307.584 
" style="fill:none;stroke:#000000;stroke-linecap:square;stroke-linejoin:miter;stroke-width:0.8;"/>
   </g>
   <g id="patch_6">
    <path d="M 57.6 41.472 
L 414.72 41.472 
" style="fill:none;stroke:#000000;stroke-linecap:square;stroke-linejoin:miter;stroke-width:0.8;"/>
   </g>
   <g id="text_11">
    <!-- Population's average and best fitness -->
    <g transform="translate(123.529687 35.472)scale(0.12 -0.12)">
     <defs>
      <path d="M 19.671875 64.796875 
L 19.671875 37.40625 
L 32.078125 37.40625 
Q 38.96875 37.40625 42.71875 40.96875 
Q 46.484375 44.53125 46.484375 51.125 
Q 46.484375 57.671875 42.71875 61.234375 
Q 38.96875 64.796875 32.078125 64.796875 
z
M 9.8125 72.90625 
L 32.078125 72.90625 
Q 44.34375 72.90625 50.609375 67.359375 
Q 56.890625 61.8125 56.890625 51.125 
Q 56.890625 40.328125 50.609375 34.8125 
Q 44.34375 29.296875 32.078125 29.296875 
L 19.671875 29.296875 
L 19.671875 0 
L 9.8125 0 
z
" id="DejaVuSans-80"/>
      <path d="M 18.109375 8.203125 
L 18.109375 -20.796875 
L 9.078125 -20.796875 
L 9.078125 54.6875 
L 18.109375 54.6875 
L 18.109375 46.390625 
Q 20.953125 51.265625 25.265625 53.625 
Q 29.59375 56 35.59375 56 
Q 45.5625 56 51.78125 48.09375 
Q 58.015625 40.1875 58.015625 27.296875 
Q 58.015625 14.40625 51.78125 6.484375 
Q 45.5625 -1.421875 35.59375 -1.421875 
Q 29.59375 -1.421875 25.265625 0.953125 
Q 20.953125 3.328125 18.109375 8.203125 
z
M 48.6875 27.296875 
Q 48.6875 37.203125 44.609375 42.84375 
Q 40.53125 48.484375 33.40625 48.484375 
Q 26.265625 48.484375 22.1875 42.84375 
Q 18.109375 37.203125 18.109375 27.296875 
Q 18.109375 17.390625 22.1875 11.75 
Q 26.265625 6.109375 33.40625 6.109375 
Q 40.53125 6.109375 44.609375 11.75 
Q 48.6875 17.390625 48.6875 27.296875 
z
" id="DejaVuSans-112"/>
      <path d="M 8.5 21.578125 
L 8.5 54.6875 
L 17.484375 54.6875 
L 17.484375 21.921875 
Q 17.484375 14.15625 20.5 10.265625 
Q 23.53125 6.390625 29.59375 6.390625 
Q 36.859375 6.390625 41.078125 11.03125 
Q 45.3125 15.671875 45.3125 23.6875 
L 45.3125 54.6875 
L 54.296875 54.6875 
L 54.296875 0 
L 45.3125 0 
L 45.3125 8.40625 
Q 42.046875 3.421875 37.71875 1 
Q 33.40625 -1.421875 27.6875 -1.421875 
Q 18.265625 -1.421875 13.375 4.4375 
Q 8.5 10.296875 8.5 21.578125 
z
M 31.109375 56 
z
" id="DejaVuSans-117"/>
      <path d="M 9.421875 75.984375 
L 18.40625 75.984375 
L 18.40625 0 
L 9.421875 0 
z
" id="DejaVuSans-108"/>
      <path d="M 17.921875 72.90625 
L 17.921875 45.796875 
L 9.625 45.796875 
L 9.625 72.90625 
z
" id="DejaVuSans-39"/>
      <path id="DejaVuSans-32"/>
      <path d="M 2.984375 54.6875 
L 12.5 54.6875 
L 29.59375 8.796875 
L 46.6875 54.6875 
L 56.203125 54.6875 
L 35.6875 0 
L 23.484375 0 
z
" id="DejaVuSans-118"/>
      <path d="M 45.40625 27.984375 
Q 45.40625 37.75 41.375 43.109375 
Q 37.359375 48.484375 30.078125 48.484375 
Q 22.859375 48.484375 18.828125 43.109375 
Q 14.796875 37.75 14.796875 27.984375 
Q 14.796875 18.265625 18.828125 12.890625 
Q 22.859375 7.515625 30.078125 7.515625 
Q 37.359375 7.515625 41.375 12.890625 
Q 45.40625 18.265625 45.40625 27.984375 
z
M 54.390625 6.78125 
Q 54.390625 -7.171875 48.1875 -13.984375 
Q 42 -20.796875 29.203125 -20.796875 
Q 24.46875 -20.796875 20.265625 -20.09375 
Q 16.0625 -19.390625 12.109375 -17.921875 
L 12.109375 -9.1875 
Q 16.0625 -11.328125 19.921875 -12.34375 
Q 23.78125 -13.375 27.78125 -13.375 
Q 36.625 -13.375 41.015625 -8.765625 
Q 45.40625 -4.15625 45.40625 5.171875 
L 45.40625 9.625 
Q 42.625 4.78125 38.28125 2.390625 
Q 33.9375 0 27.875 0 
Q 17.828125 0 11.671875 7.65625 
Q 5.515625 15.328125 5.515625 27.984375 
Q 5.515625 40.671875 11.671875 48.328125 
Q 17.828125 56 27.875 56 
Q 33.9375 56 38.28125 53.609375 
Q 42.625 51.21875 45.40625 46.390625 
L 45.40625 54.6875 
L 54.390625 54.6875 
z
" id="DejaVuSans-103"/>
      <path d="M 45.40625 46.390625 
L 45.40625 75.984375 
L 54.390625 75.984375 
L 54.390625 0 
L 45.40625 0 
L 45.40625 8.203125 
Q 42.578125 3.328125 38.25 0.953125 
Q 33.9375 -1.421875 27.875 -1.421875 
Q 17.96875 -1.421875 11.734375 6.484375 
Q 5.515625 14.40625 5.515625 27.296875 
Q 5.515625 40.1875 11.734375 48.09375 
Q 17.96875 56 27.875 56 
Q 33.9375 56 38.25 53.625 
Q 42.578125 51.265625 45.40625 46.390625 
z
M 14.796875 27.296875 
Q 14.796875 17.390625 18.875 11.75 
Q 22.953125 6.109375 30.078125 6.109375 
Q 37.203125 6.109375 41.296875 11.75 
Q 45.40625 17.390625 45.40625 27.296875 
Q 45.40625 37.203125 41.296875 42.84375 
Q 37.203125 48.484375 30.078125 48.484375 
Q 22.953125 48.484375 18.875 42.84375 
Q 14.796875 37.203125 14.796875 27.296875 
z
" id="DejaVuSans-100"/>
      <path d="M 48.6875 27.296875 
Q 48.6875 37.203125 44.609375 42.84375 
Q 40.53125 48.484375 33.40625 48.484375 
Q 26.265625 48.484375 22.1875 42.84375 
Q 18.109375 37.203125 18.109375 27.296875 
Q 18.109375 17.390625 22.1875 11.75 
Q 26.265625 6.109375 33.40625 6.109375 
Q 40.53125 6.109375 44.609375 11.75 
Q 48.6875 17.390625 48.6875 27.296875 
z
M 18.109375 46.390625 
Q 20.953125 51.265625 25.265625 53.625 
Q 29.59375 56 35.59375 56 
Q 45.5625 56 51.78125 48.09375 
Q 58.015625 40.1875 58.015625 27.296875 
Q 58.015625 14.40625 51.78125 6.484375 
Q 45.5625 -1.421875 35.59375 -1.421875 
Q 29.59375 -1.421875 25.265625 0.953125 
Q 20.953125 3.328125 18.109375 8.203125 
L 18.109375 0 
L 9.078125 0 
L 9.078125 75.984375 
L 18.109375 75.984375 
z
" id="DejaVuSans-98"/>
      <path d="M 37.109375 75.984375 
L 37.109375 68.5 
L 28.515625 68.5 
Q 23.6875 68.5 21.796875 66.546875 
Q 19.921875 64.59375 19.921875 59.515625 
L 19.921875 54.6875 
L 34.71875 54.6875 
L 34.71875 47.703125 
L 19.921875 47.703125 
L 19.921875 0 
L 10.890625 0 
L 10.890625 47.703125 
L 2.296875 47.703125 
L 2.296875 54.6875 
L 10.890625 54.6875 
L 10.890625 58.5 
Q 10.890625 67.625 15.140625 71.796875 
Q 19.390625 75.984375 28.609375 75.984375 
z
" id="DejaVuSans-102"/>
     </defs>
     <use xlink:href="#DejaVuSans-80"/>
     <use x="56.677734" xlink:href="#DejaVuSans-111"/>
     <use x="117.859375" xlink:href="#DejaVuSans-112"/>
     <use x="181.335938" xlink:href="#DejaVuSans-117"/>
     <use x="244.714844" xlink:href="#DejaVuSans-108"/>
     <use x="272.498047" xlink:href="#DejaVuSans-97"/>
     <use x="333.777344" xlink:href="#DejaVuSans-116"/>
     <use x="372.986328" xlink:href="#DejaVuSans-105"/>
     <use x="400.769531" xlink:href="#DejaVuSans-111"/>
     <use x="461.951172" xlink:href="#DejaVuSans-110"/>
     <use x="525.330078" xlink:href="#DejaVuSans-39"/>
     <use x="552.820312" xlink:href="#DejaVuSans-115"/>
     <use x="604.919922" xlink:href="#DejaVuSans-32"/>
     <use x="636.707031" xlink:href="#DejaVuSans-97"/>
     <use x="697.986328" xlink:href="#DejaVuSans-118"/>
     <use x="757.166016" xlink:href="#DejaVuSans-101"/>
     <use x="818.689453" xlink:href="#DejaVuSans-114"/>
     <use x="859.802734" xlink:href="#DejaVuSans-97"/>
     <use x="921.082031" xlink:href="#DejaVuSans-103"/>
     <use x="984.558594" xlink:href="#DejaVuSans-101"/>
     <use x="1046.082031" xlink:href="#DejaVuSans-32"/>
     <use x="1077.869141" xlink:href="#DejaVuSans-97"/>
     <use x="1139.148438" xlink:href="#DejaVuSans-110"/>
     <use x="1202.527344" xlink:href="#DejaVuSans-100"/>
     <use x="1266.003906" xlink:href="#DejaVuSans-32"/>
     <use x="1297.791016" xlink:href="#DejaVuSans-98"/>
     <use x="1361.267578" xlink:href="#DejaVuSans-101"/>
     <use x="1422.791016" xlink:href="#DejaVuSans-115"/>
     <use x="1474.890625" xlink:href="#DejaVuSans-116"/>
     <use x="1514.099609" xlink:href="#DejaVuSans-32"/>
     <use x="1545.886719" xlink:href="#DejaVuSans-102"/>
     <use x="1581.091797" xlink:href="#DejaVuSans-105"/>
     <use x="1608.875" xlink:href="#DejaVuSans-116"/>
     <use x="1648.083984" xlink:href="#DejaVuSans-110"/>
     <use x="1711.462891" xlink:href="#DejaVuSans-101"/>
     <use x="1772.986328" xlink:href="#DejaVuSans-115"/>
     <use x="1825.085938" xlink:href="#DejaVuSans-115"/>
    </g>
   </g>
   <g id="legend_1">
    <g id="patch_7">
     <path d="M 64.6 78.82825 
L 137.540625 78.82825 
Q 139.540625 78.82825 139.540625 76.82825 
L 139.540625 48.472 
Q 139.540625 46.472 137.540625 46.472 
L 64.6 46.472 
Q 62.6 46.472 62.6 48.472 
L 62.6 76.82825 
Q 62.6 78.82825 64.6 78.82825 
z
" style="fill:#ffffff;opacity:0.8;stroke:#cccccc;stroke-linejoin:miter;"/>
    </g>
    <g id="line2d_19">
     <path d="M 66.6 54.570437 
L 86.6 54.570437 
" style="fill:none;stroke:#0000ff;stroke-linecap:square;stroke-width:1.5;"/>
    </g>
    <g id="line2d_20"/>
    <g id="text_12">
     <!-- average -->
     <g transform="translate(94.6 58.070437)scale(0.1 -0.1)">
      <use xlink:href="#DejaVuSans-97"/>
      <use x="61.279297" xlink:href="#DejaVuSans-118"/>
      <use x="120.458984" xlink:href="#DejaVuSans-101"/>
      <use x="181.982422" xlink:href="#DejaVuSans-114"/>
      <use x="223.095703" xlink:href="#DejaVuSans-97"/>
      <use x="284.375" xlink:href="#DejaVuSans-103"/>
      <use x="347.851562" xlink:href="#DejaVuSans-101"/>
     </g>
    </g>
    <g id="line2d_21">
     <path d="M 66.6 69.248562 
L 86.6 69.248562 
" style="fill:none;stroke:#ff0000;stroke-linecap:square;stroke-width:1.5;"/>
    </g>
    <g id="line2d_22"/>
    <g id="text_13">
     <!-- best -->
     <g transform="translate(94.6 72.748562)scale(0.1 -0.1)">
      <use xlink:href="#DejaVuSans-98"/>
      <use x="63.476562" xlink:href="#DejaVuSans-101"/>
      <use x="125" xlink:href="#DejaVuSans-115"/>
      <use x="177.099609" xlink:href="#DejaVuSans-116"/>
     </g>
    </g>
   </g>
  </g>
 </g>
 <defs>
  <clipPath id="p8be08bb5f7">
   <rect height="266.112" width="357.12" x="57.6" y="41.472"/>
  </clipPath>
 </defs>
</svg>
