<?xml version="1.0" encoding="utf-8" standalone="no"?>
<!DOCTYPE svg PUBLIC "-//W3C//DTD SVG 1.1//EN"
  "http://www.w3.org/Graphics/SVG/1.1/DTD/svg11.dtd">
<!-- Created with matplotlib (https://matplotlib.org/) -->
<svg height="345.6pt" version="1.1" viewBox="0 0 460.8 345.6" width="460.8pt" xmlns="http://www.w3.org/2000/svg" xmlns:xlink="http://www.w3.org/1999/xlink">
 <metadata>
  <rdf:RDF xmlns:cc="http://creativecommons.org/ns#" xmlns:dc="http://purl.org/dc/elements/1.1/" xmlns:rdf="http://www.w3.org/1999/02/22-rdf-syntax-ns#">
   <cc:Work>
    <dc:type rdf:resource="http://purl.org/dc/dcmitype/StillImage"/>
    <dc:date>2021-04-14T22:35:09.007849</dc:date>
    <dc:format>image/svg+xml</dc:format>
    <dc:creator>
     <cc:Agent>
      <dc:title>Matplotlib v3.3.4, https://matplotlib.org/</dc:title>
     </cc:Agent>
    </dc:creator>
   </cc:Work>
  </rdf:RDF>
 </metadata>
 <defs>
  <style type="text/css">*{stroke-linecap:butt;stroke-linejoin:round;}</style>
 </defs>
 <g id="figure_1">
  <g id="patch_1">
   <path d="M 0 345.6 
L 460.8 345.6 
L 460.8 0 
L 0 0 
z
" style="fill:#ffffff;"/>
  </g>
  <g id="axes_1">
   <g id="patch_2">
    <path d="M 57.6 307.584 
L 414.72 307.584 
L 414.72 41.472 
L 57.6 41.472 
z
" style="fill:#ffffff;"/>
   </g>
   <g id="matplotlib.axis_1">
    <g id="xtick_1">
     <g id="line2d_1">
      <path clip-path="url(#p6bb93ca1ad)" d="M 73.832727 307.584 
L 73.832727 41.472 
" style="fill:none;stroke:#b0b0b0;stroke-linecap:square;stroke-width:0.8;"/>
     </g>
     <g id="line2d_2">
      <defs>
       <path d="M 0 0 
L 0 3.5 
" id="m28bc14fb57" style="stroke:#000000;stroke-width:0.8;"/>
      </defs>
      <g>
       <use style="stroke:#000000;stroke-width:0.8;" x="73.832727" xlink:href="#m28bc14fb57" y="307.584"/>
      </g>
     </g>
     <g id="text_1">
      <!-- 0 -->
      <g transform="translate(70.651477 322.182437)scale(0.1 -0.1)">
       <defs>
        <path d="M 31.78125 66.40625 
Q 24.171875 66.40625 20.328125 58.90625 
Q 16.5 51.421875 16.5 36.375 
Q 16.5 21.390625 20.328125 13.890625 
Q 24.171875 6.390625 31.78125 6.390625 
Q 39.453125 6.390625 43.28125 13.890625 
Q 47.125 21.390625 47.125 36.375 
Q 47.125 51.421875 43.28125 58.90625 
Q 39.453125 66.40625 31.78125 66.40625 
z
M 31.78125 74.21875 
Q 44.046875 74.21875 50.515625 64.515625 
Q 56.984375 54.828125 56.984375 36.375 
Q 56.984375 17.96875 50.515625 8.265625 
Q 44.046875 -1.421875 31.78125 -1.421875 
Q 19.53125 -1.421875 13.0625 8.265625 
Q 6.59375 17.96875 6.59375 36.375 
Q 6.59375 54.828125 13.0625 64.515625 
Q 19.53125 74.21875 31.78125 74.21875 
z
" id="DejaVuSans-48"/>
       </defs>
       <use xlink:href="#DejaVuSans-48"/>
      </g>
     </g>
    </g>
    <g id="xtick_2">
     <g id="line2d_3">
      <path clip-path="url(#p6bb93ca1ad)" d="M 127.229856 307.584 
L 127.229856 41.472 
" style="fill:none;stroke:#b0b0b0;stroke-linecap:square;stroke-width:0.8;"/>
     </g>
     <g id="line2d_4">
      <g>
       <use style="stroke:#000000;stroke-width:0.8;" x="127.229856" xlink:href="#m28bc14fb57" y="307.584"/>
      </g>
     </g>
     <g id="text_2">
      <!-- 50 -->
      <g transform="translate(120.867356 322.182437)scale(0.1 -0.1)">
       <defs>
        <path d="M 10.796875 72.90625 
L 49.515625 72.90625 
L 49.515625 64.59375 
L 19.828125 64.59375 
L 19.828125 46.734375 
Q 21.96875 47.46875 24.109375 47.828125 
Q 26.265625 48.1875 28.421875 48.1875 
Q 40.625 48.1875 47.75 41.5 
Q 54.890625 34.8125 54.890625 23.390625 
Q 54.890625 11.625 47.5625 5.09375 
Q 40.234375 -1.421875 26.90625 -1.421875 
Q 22.3125 -1.421875 17.546875 -0.640625 
Q 12.796875 0.140625 7.71875 1.703125 
L 7.71875 11.625 
Q 12.109375 9.234375 16.796875 8.0625 
Q 21.484375 6.890625 26.703125 6.890625 
Q 35.15625 6.890625 40.078125 11.328125 
Q 45.015625 15.765625 45.015625 23.390625 
Q 45.015625 31 40.078125 35.4375 
Q 35.15625 39.890625 26.703125 39.890625 
Q 22.75 39.890625 18.8125 39.015625 
Q 14.890625 38.140625 10.796875 36.28125 
z
" id="DejaVuSans-53"/>
       </defs>
       <use xlink:href="#DejaVuSans-53"/>
       <use x="63.623047" xlink:href="#DejaVuSans-48"/>
      </g>
     </g>
    </g>
    <g id="xtick_3">
     <g id="line2d_5">
      <path clip-path="url(#p6bb93ca1ad)" d="M 180.626986 307.584 
L 180.626986 41.472 
" style="fill:none;stroke:#b0b0b0;stroke-linecap:square;stroke-width:0.8;"/>
     </g>
     <g id="line2d_6">
      <g>
       <use style="stroke:#000000;stroke-width:0.8;" x="180.626986" xlink:href="#m28bc14fb57" y="307.584"/>
      </g>
     </g>
     <g id="text_3">
      <!-- 100 -->
      <g transform="translate(171.083236 322.182437)scale(0.1 -0.1)">
       <defs>
        <path d="M 12.40625 8.296875 
L 28.515625 8.296875 
L 28.515625 63.921875 
L 10.984375 60.40625 
L 10.984375 69.390625 
L 28.421875 72.90625 
L 38.28125 72.90625 
L 38.28125 8.296875 
L 54.390625 8.296875 
L 54.390625 0 
L 12.40625 0 
z
" id="DejaVuSans-49"/>
       </defs>
       <use xlink:href="#DejaVuSans-49"/>
       <use x="63.623047" xlink:href="#DejaVuSans-48"/>
       <use x="127.246094" xlink:href="#DejaVuSans-48"/>
      </g>
     </g>
    </g>
    <g id="xtick_4">
     <g id="line2d_7">
      <path clip-path="url(#p6bb93ca1ad)" d="M 234.024115 307.584 
L 234.024115 41.472 
" style="fill:none;stroke:#b0b0b0;stroke-linecap:square;stroke-width:0.8;"/>
     </g>
     <g id="line2d_8">
      <g>
       <use style="stroke:#000000;stroke-width:0.8;" x="234.024115" xlink:href="#m28bc14fb57" y="307.584"/>
      </g>
     </g>
     <g id="text_4">
      <!-- 150 -->
      <g transform="translate(224.480365 322.182437)scale(0.1 -0.1)">
       <use xlink:href="#DejaVuSans-49"/>
       <use x="63.623047" xlink:href="#DejaVuSans-53"/>
       <use x="127.246094" xlink:href="#DejaVuSans-48"/>
      </g>
     </g>
    </g>
    <g id="xtick_5">
     <g id="line2d_9">
      <path clip-path="url(#p6bb93ca1ad)" d="M 287.421244 307.584 
L 287.421244 41.472 
" style="fill:none;stroke:#b0b0b0;stroke-linecap:square;stroke-width:0.8;"/>
     </g>
     <g id="line2d_10">
      <g>
       <use style="stroke:#000000;stroke-width:0.8;" x="287.421244" xlink:href="#m28bc14fb57" y="307.584"/>
      </g>
     </g>
     <g id="text_5">
      <!-- 200 -->
      <g transform="translate(277.877494 322.182437)scale(0.1 -0.1)">
       <defs>
        <path d="M 19.1875 8.296875 
L 53.609375 8.296875 
L 53.609375 0 
L 7.328125 0 
L 7.328125 8.296875 
Q 12.9375 14.109375 22.625 23.890625 
Q 32.328125 33.6875 34.8125 36.53125 
Q 39.546875 41.84375 41.421875 45.53125 
Q 43.3125 49.21875 43.3125 52.78125 
Q 43.3125 58.59375 39.234375 62.25 
Q 35.15625 65.921875 28.609375 65.921875 
Q 23.96875 65.921875 18.8125 64.3125 
Q 13.671875 62.703125 7.8125 59.421875 
L 7.8125 69.390625 
Q 13.765625 71.78125 18.9375 73 
Q 24.125 74.21875 28.421875 74.21875 
Q 39.75 74.21875 46.484375 68.546875 
Q 53.21875 62.890625 53.21875 53.421875 
Q 53.21875 48.921875 51.53125 44.890625 
Q 49.859375 40.875 45.40625 35.40625 
Q 44.1875 33.984375 37.640625 27.21875 
Q 31.109375 20.453125 19.1875 8.296875 
z
" id="DejaVuSans-50"/>
       </defs>
       <use xlink:href="#DejaVuSans-50"/>
       <use x="63.623047" xlink:href="#DejaVuSans-48"/>
       <use x="127.246094" xlink:href="#DejaVuSans-48"/>
      </g>
     </g>
    </g>
    <g id="xtick_6">
     <g id="line2d_11">
      <path clip-path="url(#p6bb93ca1ad)" d="M 340.818373 307.584 
L 340.818373 41.472 
" style="fill:none;stroke:#b0b0b0;stroke-linecap:square;stroke-width:0.8;"/>
     </g>
     <g id="line2d_12">
      <g>
       <use style="stroke:#000000;stroke-width:0.8;" x="340.818373" xlink:href="#m28bc14fb57" y="307.584"/>
      </g>
     </g>
     <g id="text_6">
      <!-- 250 -->
      <g transform="translate(331.274623 322.182437)scale(0.1 -0.1)">
       <use xlink:href="#DejaVuSans-50"/>
       <use x="63.623047" xlink:href="#DejaVuSans-53"/>
       <use x="127.246094" xlink:href="#DejaVuSans-48"/>
      </g>
     </g>
    </g>
    <g id="xtick_7">
     <g id="line2d_13">
      <path clip-path="url(#p6bb93ca1ad)" d="M 394.215502 307.584 
L 394.215502 41.472 
" style="fill:none;stroke:#b0b0b0;stroke-linecap:square;stroke-width:0.8;"/>
     </g>
     <g id="line2d_14">
      <g>
       <use style="stroke:#000000;stroke-width:0.8;" x="394.215502" xlink:href="#m28bc14fb57" y="307.584"/>
      </g>
     </g>
     <g id="text_7">
      <!-- 300 -->
      <g transform="translate(384.671752 322.182437)scale(0.1 -0.1)">
       <defs>
        <path d="M 40.578125 39.3125 
Q 47.65625 37.796875 51.625 33 
Q 55.609375 28.21875 55.609375 21.1875 
Q 55.609375 10.40625 48.1875 4.484375 
Q 40.765625 -1.421875 27.09375 -1.421875 
Q 22.515625 -1.421875 17.65625 -0.515625 
Q 12.796875 0.390625 7.625 2.203125 
L 7.625 11.71875 
Q 11.71875 9.328125 16.59375 8.109375 
Q 21.484375 6.890625 26.8125 6.890625 
Q 36.078125 6.890625 40.9375 10.546875 
Q 45.796875 14.203125 45.796875 21.1875 
Q 45.796875 27.640625 41.28125 31.265625 
Q 36.765625 34.90625 28.71875 34.90625 
L 20.21875 34.90625 
L 20.21875 43.015625 
L 29.109375 43.015625 
Q 36.375 43.015625 40.234375 45.921875 
Q 44.09375 48.828125 44.09375 54.296875 
Q 44.09375 59.90625 40.109375 62.90625 
Q 36.140625 65.921875 28.71875 65.921875 
Q 24.65625 65.921875 20.015625 65.03125 
Q 15.375 64.15625 9.8125 62.3125 
L 9.8125 71.09375 
Q 15.4375 72.65625 20.34375 73.4375 
Q 25.25 74.21875 29.59375 74.21875 
Q 40.828125 74.21875 47.359375 69.109375 
Q 53.90625 64.015625 53.90625 55.328125 
Q 53.90625 49.265625 50.4375 45.09375 
Q 46.96875 40.921875 40.578125 39.3125 
z
" id="DejaVuSans-51"/>
       </defs>
       <use xlink:href="#DejaVuSans-51"/>
       <use x="63.623047" xlink:href="#DejaVuSans-48"/>
       <use x="127.246094" xlink:href="#DejaVuSans-48"/>
      </g>
     </g>
    </g>
    <g id="text_8">
     <!-- Generations -->
     <g transform="translate(205.662344 335.860562)scale(0.1 -0.1)">
      <defs>
       <path d="M 59.515625 10.40625 
L 59.515625 29.984375 
L 43.40625 29.984375 
L 43.40625 38.09375 
L 69.28125 38.09375 
L 69.28125 6.78125 
Q 63.578125 2.734375 56.6875 0.65625 
Q 49.8125 -1.421875 42 -1.421875 
Q 24.90625 -1.421875 15.25 8.5625 
Q 5.609375 18.5625 5.609375 36.375 
Q 5.609375 54.25 15.25 64.234375 
Q 24.90625 74.21875 42 74.21875 
Q 49.125 74.21875 55.546875 72.453125 
Q 61.96875 70.703125 67.390625 67.28125 
L 67.390625 56.78125 
Q 61.921875 61.421875 55.765625 63.765625 
Q 49.609375 66.109375 42.828125 66.109375 
Q 29.4375 66.109375 22.71875 58.640625 
Q 16.015625 51.171875 16.015625 36.375 
Q 16.015625 21.625 22.71875 14.15625 
Q 29.4375 6.6875 42.828125 6.6875 
Q 48.046875 6.6875 52.140625 7.59375 
Q 56.25 8.5 59.515625 10.40625 
z
" id="DejaVuSans-71"/>
       <path d="M 56.203125 29.59375 
L 56.203125 25.203125 
L 14.890625 25.203125 
Q 15.484375 15.921875 20.484375 11.0625 
Q 25.484375 6.203125 34.421875 6.203125 
Q 39.59375 6.203125 44.453125 7.46875 
Q 49.3125 8.734375 54.109375 11.28125 
L 54.109375 2.78125 
Q 49.265625 0.734375 44.1875 -0.34375 
Q 39.109375 -1.421875 33.890625 -1.421875 
Q 20.796875 -1.421875 13.15625 6.1875 
Q 5.515625 13.8125 5.515625 26.8125 
Q 5.515625 40.234375 12.765625 48.109375 
Q 20.015625 56 32.328125 56 
Q 43.359375 56 49.78125 48.890625 
Q 56.203125 41.796875 56.203125 29.59375 
z
M 47.21875 32.234375 
Q 47.125 39.59375 43.09375 43.984375 
Q 39.0625 48.390625 32.421875 48.390625 
Q 24.90625 48.390625 20.390625 44.140625 
Q 15.875 39.890625 15.1875 32.171875 
z
" id="DejaVuSans-101"/>
       <path d="M 54.890625 33.015625 
L 54.890625 0 
L 45.90625 0 
L 45.90625 32.71875 
Q 45.90625 40.484375 42.875 44.328125 
Q 39.84375 48.1875 33.796875 48.1875 
Q 26.515625 48.1875 22.3125 43.546875 
Q 18.109375 38.921875 18.109375 30.90625 
L 18.109375 0 
L 9.078125 0 
L 9.078125 54.6875 
L 18.109375 54.6875 
L 18.109375 46.1875 
Q 21.34375 51.125 25.703125 53.5625 
Q 30.078125 56 35.796875 56 
Q 45.21875 56 50.046875 50.171875 
Q 54.890625 44.34375 54.890625 33.015625 
z
" id="DejaVuSans-110"/>
       <path d="M 41.109375 46.296875 
Q 39.59375 47.171875 37.8125 47.578125 
Q 36.03125 48 33.890625 48 
Q 26.265625 48 22.1875 43.046875 
Q 18.109375 38.09375 18.109375 28.8125 
L 18.109375 0 
L 9.078125 0 
L 9.078125 54.6875 
L 18.109375 54.6875 
L 18.109375 46.1875 
Q 20.953125 51.171875 25.484375 53.578125 
Q 30.03125 56 36.53125 56 
Q 37.453125 56 38.578125 55.875 
Q 39.703125 55.765625 41.0625 55.515625 
z
" id="DejaVuSans-114"/>
       <path d="M 34.28125 27.484375 
Q 23.390625 27.484375 19.1875 25 
Q 14.984375 22.515625 14.984375 16.5 
Q 14.984375 11.71875 18.140625 8.90625 
Q 21.296875 6.109375 26.703125 6.109375 
Q 34.1875 6.109375 38.703125 11.40625 
Q 43.21875 16.703125 43.21875 25.484375 
L 43.21875 27.484375 
z
M 52.203125 31.203125 
L 52.203125 0 
L 43.21875 0 
L 43.21875 8.296875 
Q 40.140625 3.328125 35.546875 0.953125 
Q 30.953125 -1.421875 24.3125 -1.421875 
Q 15.921875 -1.421875 10.953125 3.296875 
Q 6 8.015625 6 15.921875 
Q 6 25.140625 12.171875 29.828125 
Q 18.359375 34.515625 30.609375 34.515625 
L 43.21875 34.515625 
L 43.21875 35.40625 
Q 43.21875 41.609375 39.140625 45 
Q 35.0625 48.390625 27.6875 48.390625 
Q 23 48.390625 18.546875 47.265625 
Q 14.109375 46.140625 10.015625 43.890625 
L 10.015625 52.203125 
Q 14.9375 54.109375 19.578125 55.046875 
Q 24.21875 56 28.609375 56 
Q 40.484375 56 46.34375 49.84375 
Q 52.203125 43.703125 52.203125 31.203125 
z
" id="DejaVuSans-97"/>
       <path d="M 18.3125 70.21875 
L 18.3125 54.6875 
L 36.8125 54.6875 
L 36.8125 47.703125 
L 18.3125 47.703125 
L 18.3125 18.015625 
Q 18.3125 11.328125 20.140625 9.421875 
Q 21.96875 7.515625 27.59375 7.515625 
L 36.8125 7.515625 
L 36.8125 0 
L 27.59375 0 
Q 17.1875 0 13.234375 3.875 
Q 9.28125 7.765625 9.28125 18.015625 
L 9.28125 47.703125 
L 2.6875 47.703125 
L 2.6875 54.6875 
L 9.28125 54.6875 
L 9.28125 70.21875 
z
" id="DejaVuSans-116"/>
       <path d="M 9.421875 54.6875 
L 18.40625 54.6875 
L 18.40625 0 
L 9.421875 0 
z
M 9.421875 75.984375 
L 18.40625 75.984375 
L 18.40625 64.59375 
L 9.421875 64.59375 
z
" id="DejaVuSans-105"/>
       <path d="M 30.609375 48.390625 
Q 23.390625 48.390625 19.1875 42.75 
Q 14.984375 37.109375 14.984375 27.296875 
Q 14.984375 17.484375 19.15625 11.84375 
Q 23.34375 6.203125 30.609375 6.203125 
Q 37.796875 6.203125 41.984375 11.859375 
Q 46.1875 17.53125 46.1875 27.296875 
Q 46.1875 37.015625 41.984375 42.703125 
Q 37.796875 48.390625 30.609375 48.390625 
z
M 30.609375 56 
Q 42.328125 56 49.015625 48.375 
Q 55.71875 40.765625 55.71875 27.296875 
Q 55.71875 13.875 49.015625 6.21875 
Q 42.328125 -1.421875 30.609375 -1.421875 
Q 18.84375 -1.421875 12.171875 6.21875 
Q 5.515625 13.875 5.515625 27.296875 
Q 5.515625 40.765625 12.171875 48.375 
Q 18.84375 56 30.609375 56 
z
" id="DejaVuSans-111"/>
       <path d="M 44.28125 53.078125 
L 44.28125 44.578125 
Q 40.484375 46.53125 36.375 47.5 
Q 32.28125 48.484375 27.875 48.484375 
Q 21.1875 48.484375 17.84375 46.4375 
Q 14.5 44.390625 14.5 40.28125 
Q 14.5 37.15625 16.890625 35.375 
Q 19.28125 33.59375 26.515625 31.984375 
L 29.59375 31.296875 
Q 39.15625 29.25 43.1875 25.515625 
Q 47.21875 21.78125 47.21875 15.09375 
Q 47.21875 7.46875 41.1875 3.015625 
Q 35.15625 -1.421875 24.609375 -1.421875 
Q 20.21875 -1.421875 15.453125 -0.5625 
Q 10.6875 0.296875 5.421875 2 
L 5.421875 11.28125 
Q 10.40625 8.6875 15.234375 7.390625 
Q 20.0625 6.109375 24.8125 6.109375 
Q 31.15625 6.109375 34.5625 8.28125 
Q 37.984375 10.453125 37.984375 14.40625 
Q 37.984375 18.0625 35.515625 20.015625 
Q 33.0625 21.96875 24.703125 23.78125 
L 21.578125 24.515625 
Q 13.234375 26.265625 9.515625 29.90625 
Q 5.8125 33.546875 5.8125 39.890625 
Q 5.8125 47.609375 11.28125 51.796875 
Q 16.75 56 26.8125 56 
Q 31.78125 56 36.171875 55.265625 
Q 40.578125 54.546875 44.28125 53.078125 
z
" id="DejaVuSans-115"/>
      </defs>
      <use xlink:href="#DejaVuSans-71"/>
      <use x="77.490234" xlink:href="#DejaVuSans-101"/>
      <use x="139.013672" xlink:href="#DejaVuSans-110"/>
      <use x="202.392578" xlink:href="#DejaVuSans-101"/>
      <use x="263.916016" xlink:href="#DejaVuSans-114"/>
      <use x="305.029297" xlink:href="#DejaVuSans-97"/>
      <use x="366.308594" xlink:href="#DejaVuSans-116"/>
      <use x="405.517578" xlink:href="#DejaVuSans-105"/>
      <use x="433.300781" xlink:href="#DejaVuSans-111"/>
      <use x="494.482422" xlink:href="#DejaVuSans-110"/>
      <use x="557.861328" xlink:href="#DejaVuSans-115"/>
     </g>
    </g>
   </g>
   <g id="matplotlib.axis_2">
    <g id="ytick_1">
     <g id="line2d_15">
      <path clip-path="url(#p6bb93ca1ad)" d="M 57.6 203.638383 
L 414.72 203.638383 
" style="fill:none;stroke:#b0b0b0;stroke-linecap:square;stroke-width:0.8;"/>
     </g>
     <g id="line2d_16">
      <defs>
       <path d="M 0 0 
L -3.5 0 
" id="mc71c6f9997" style="stroke:#000000;stroke-width:0.8;"/>
      </defs>
      <g>
       <use style="stroke:#000000;stroke-width:0.8;" x="57.6" xlink:href="#mc71c6f9997" y="203.638383"/>
      </g>
     </g>
     <g id="text_9">
      <!-- $\mathdefault{-10^{4}}$ -->
      <g transform="translate(24.6 207.437602)scale(0.1 -0.1)">
       <defs>
        <path d="M 10.59375 35.5 
L 73.1875 35.5 
L 73.1875 27.203125 
L 10.59375 27.203125 
z
" id="DejaVuSans-8722"/>
        <path d="M 37.796875 64.3125 
L 12.890625 25.390625 
L 37.796875 25.390625 
z
M 35.203125 72.90625 
L 47.609375 72.90625 
L 47.609375 25.390625 
L 58.015625 25.390625 
L 58.015625 17.1875 
L 47.609375 17.1875 
L 47.609375 0 
L 37.796875 0 
L 37.796875 17.1875 
L 4.890625 17.1875 
L 4.890625 26.703125 
z
" id="DejaVuSans-52"/>
       </defs>
       <use transform="translate(0 0.684375)" xlink:href="#DejaVuSans-8722"/>
       <use transform="translate(83.789062 0.684375)" xlink:href="#DejaVuSans-49"/>
       <use transform="translate(147.412109 0.684375)" xlink:href="#DejaVuSans-48"/>
       <use transform="translate(211.992188 38.965625)scale(0.7)" xlink:href="#DejaVuSans-52"/>
      </g>
     </g>
    </g>
    <g id="text_10">
     <!-- Fitness -->
     <g transform="translate(18.520312 191.845187)rotate(-90)scale(0.1 -0.1)">
      <defs>
       <path d="M 9.8125 72.90625 
L 51.703125 72.90625 
L 51.703125 64.59375 
L 19.671875 64.59375 
L 19.671875 43.109375 
L 48.578125 43.109375 
L 48.578125 34.8125 
L 19.671875 34.8125 
L 19.671875 0 
L 9.8125 0 
z
" id="DejaVuSans-70"/>
      </defs>
      <use xlink:href="#DejaVuSans-70"/>
      <use x="50.269531" xlink:href="#DejaVuSans-105"/>
      <use x="78.052734" xlink:href="#DejaVuSans-116"/>
      <use x="117.261719" xlink:href="#DejaVuSans-110"/>
      <use x="180.640625" xlink:href="#DejaVuSans-101"/>
      <use x="242.164062" xlink:href="#DejaVuSans-115"/>
      <use x="294.263672" xlink:href="#DejaVuSans-115"/>
     </g>
    </g>
   </g>
   <g id="line2d_17">
    <path clip-path="url(#p6bb93ca1ad)" d="M 73.832727 295.488 
L 74.90067 257.876369 
L 75.968612 236.28697 
L 77.036555 232.258022 
L 78.104498 219.66857 
L 79.17244 220.147036 
L 80.240383 207.758552 
L 81.308325 205.323368 
L 82.376268 205.717753 
L 83.444211 204.814135 
L 84.512153 206.169484 
L 85.580096 200.857064 
L 87.715981 186.166616 
L 88.783923 186.515413 
L 89.851866 193.797366 
L 90.919809 199.079011 
L 91.987751 195.856487 
L 93.055694 200.001121 
L 94.123636 199.827293 
L 95.191579 197.63063 
L 96.259522 190.74905 
L 97.327464 192.88512 
L 98.395407 196.861962 
L 99.463349 198.678695 
L 100.531292 192.998037 
L 101.599234 188.631929 
L 102.667177 194.280438 
L 103.73512 190.058876 
L 104.803062 191.012117 
L 105.871005 186.520775 
L 106.938947 187.977482 
L 108.00689 190.305105 
L 109.074833 185.182295 
L 110.142775 185.233687 
L 111.210718 188.632692 
L 112.27866 192.880802 
L 113.346603 193.680648 
L 114.414545 177.182304 
L 115.482488 184.853844 
L 116.550431 195.320252 
L 117.618373 204.462009 
L 118.686316 187.76638 
L 119.754258 184.722991 
L 120.822201 180.605572 
L 121.890144 173.44336 
L 122.958086 183.030807 
L 124.026029 197.390038 
L 125.093971 174.985818 
L 126.161914 178.972407 
L 127.229856 179.971121 
L 128.297799 177.884514 
L 129.365742 199.245826 
L 130.433684 188.318806 
L 131.501627 182.948213 
L 132.569569 173.986192 
L 133.637512 183.548478 
L 134.705455 194.741699 
L 135.773397 182.461784 
L 136.84134 193.401275 
L 137.909282 190.162429 
L 138.977225 192.403917 
L 140.045167 184.519087 
L 141.11311 193.137386 
L 142.181053 188.308667 
L 143.248995 186.85642 
L 144.316938 190.601901 
L 145.38488 177.256247 
L 146.452823 174.616135 
L 147.520766 177.796345 
L 148.588708 189.112856 
L 149.656651 194.144696 
L 150.724593 188.660478 
L 151.792536 177.339025 
L 152.860478 170.273058 
L 153.928421 186.623973 
L 154.996364 163.546398 
L 156.064306 169.917724 
L 157.132249 154.643121 
L 158.200191 176.330997 
L 159.268134 173.079658 
L 160.336077 162.670281 
L 161.404019 167.025056 
L 162.471962 172.037337 
L 164.607847 186.673146 
L 165.675789 189.399771 
L 166.743732 174.75451 
L 167.811675 187.944729 
L 168.879617 176.899307 
L 169.94756 168.022842 
L 171.015502 188.041527 
L 172.083445 181.966995 
L 173.151388 176.735756 
L 174.21933 181.499194 
L 175.287273 171.600222 
L 176.355215 196.550738 
L 177.423158 194.095155 
L 178.4911 192.336798 
L 179.559043 185.826375 
L 180.626986 188.356534 
L 181.694928 188.549612 
L 182.762871 186.679547 
L 183.830813 167.43019 
L 184.898756 195.284436 
L 185.966699 187.051684 
L 187.034641 198.924078 
L 188.102584 198.807791 
L 189.170526 192.150159 
L 190.238469 176.599894 
L 191.306411 177.481186 
L 192.374354 186.272123 
L 193.442297 190.008253 
L 194.510239 177.552249 
L 195.578182 189.769079 
L 196.646124 170.435533 
L 197.714067 185.099936 
L 198.78201 183.694222 
L 199.849952 198.182368 
L 200.917895 197.540802 
L 201.985837 176.624955 
L 203.05378 179.776957 
L 204.121722 194.220055 
L 205.189665 197.407174 
L 206.257608 186.810391 
L 207.32555 184.689267 
L 208.393493 187.280568 
L 209.461435 193.881472 
L 210.529378 197.216929 
L 211.597321 190.5008 
L 212.665263 195.044162 
L 213.733206 193.863362 
L 214.801148 192.033962 
L 215.869091 168.082572 
L 216.937033 195.094485 
L 218.004976 190.302111 
L 219.072919 180.531961 
L 220.140861 161.312237 
L 221.208804 174.476457 
L 222.276746 189.67211 
L 223.344689 184.698281 
L 224.412632 185.538214 
L 225.480574 191.767178 
L 226.548517 191.277328 
L 227.616459 181.770498 
L 228.684402 193.006146 
L 229.752344 188.844595 
L 230.820287 189.822786 
L 231.88823 189.798555 
L 232.956172 172.343835 
L 234.024115 173.554806 
L 235.092057 177.620906 
L 236.16 183.796761 
L 237.227943 174.763897 
L 238.295885 178.744358 
L 239.363828 183.563997 
L 240.43177 178.681064 
L 241.499713 175.455503 
L 242.567656 183.677775 
L 243.635598 181.601186 
L 244.703541 195.064258 
L 245.771483 189.494019 
L 246.839426 190.184841 
L 247.907368 191.908245 
L 248.975311 186.99809 
L 250.043254 187.521721 
L 251.111196 192.760737 
L 252.179139 196.271337 
L 253.247081 196.678028 
L 254.315024 204.128334 
L 255.382967 199.391799 
L 256.450909 193.389567 
L 257.518852 188.868744 
L 258.586794 182.009165 
L 259.654737 190.793538 
L 260.722679 186.270864 
L 261.790622 198.437474 
L 262.858565 199.466172 
L 263.926507 193.696739 
L 266.062392 198.947102 
L 267.130335 198.546233 
L 268.198278 197.411459 
L 269.26622 195.629156 
L 270.334163 193.049777 
L 271.402105 193.209882 
L 272.470048 190.141861 
L 273.53799 203.882707 
L 274.605933 201.635481 
L 275.673876 208.171498 
L 276.741818 201.082336 
L 277.809761 201.026346 
L 278.877703 206.756981 
L 279.945646 195.883103 
L 281.013589 196.791867 
L 282.081531 194.046967 
L 283.149474 206.514005 
L 284.217416 207.386547 
L 285.285359 191.074315 
L 286.353301 195.423852 
L 287.421244 202.825202 
L 288.489187 198.978212 
L 289.557129 192.567178 
L 290.625072 217.32555 
L 291.693014 207.201436 
L 292.760957 202.163714 
L 293.8289 213.533003 
L 294.896842 211.078306 
L 295.964785 206.310589 
L 297.032727 206.381533 
L 298.10067 209.677335 
L 299.168612 207.860491 
L 300.236555 221.465403 
L 301.304498 222.251858 
L 302.37244 214.98569 
L 303.440383 209.885046 
L 304.508325 210.390788 
L 305.576268 196.738318 
L 306.644211 211.511551 
L 307.712153 201.659525 
L 308.780096 201.660714 
L 309.848038 208.348749 
L 310.915981 209.42373 
L 311.983923 208.208638 
L 313.051866 201.560628 
L 314.119809 205.892451 
L 315.187751 206.930129 
L 316.255694 203.655199 
L 317.323636 195.80724 
L 318.391579 185.933117 
L 319.459522 193.449307 
L 320.527464 196.343463 
L 321.595407 196.283605 
L 322.663349 202.244284 
L 323.731292 199.865308 
L 324.799234 194.081093 
L 325.867177 201.316654 
L 326.93512 184.241582 
L 328.003062 206.250507 
L 329.071005 187.30196 
L 330.138947 197.709794 
L 331.20689 192.456044 
L 332.274833 189.297698 
L 333.342775 194.121876 
L 334.410718 182.616358 
L 335.47866 184.274666 
L 336.546603 201.658209 
L 337.614545 197.601781 
L 338.682488 195.96479 
L 339.750431 200.521816 
L 340.818373 201.113081 
L 341.886316 201.174105 
L 342.954258 210.246699 
L 344.022201 203.961524 
L 345.090144 207.158074 
L 346.158086 203.226319 
L 347.226029 202.556053 
L 348.293971 212.943603 
L 349.361914 205.076493 
L 350.429856 204.190228 
L 351.497799 207.702143 
L 352.565742 199.530585 
L 353.633684 188.814014 
L 354.701627 197.270067 
L 355.769569 192.040481 
L 356.837512 203.925447 
L 357.905455 193.913865 
L 358.973397 203.075943 
L 360.04134 196.572603 
L 361.109282 187.188133 
L 362.177225 194.387094 
L 363.245167 203.569304 
L 364.31311 187.797006 
L 365.381053 190.769306 
L 366.448995 202.996159 
L 367.516938 191.90865 
L 368.58488 187.501133 
L 369.652823 199.310366 
L 370.720766 201.282227 
L 371.788708 194.682753 
L 372.856651 205.150624 
L 373.924593 194.11802 
L 374.992536 195.844035 
L 376.060478 195.696275 
L 377.128421 203.560408 
L 378.196364 195.867465 
L 379.264306 194.856516 
L 380.332249 188.433591 
L 381.400191 198.571821 
L 382.468134 175.500855 
L 383.536077 181.200616 
L 384.604019 180.494526 
L 385.671962 181.87574 
L 386.739904 183.89199 
L 387.807847 175.403379 
L 388.875789 194.571124 
L 389.943732 188.887687 
L 391.011675 189.106517 
L 392.079617 184.946269 
L 393.14756 186.518851 
L 394.215502 192.716142 
L 395.283445 188.473805 
L 397.41933 199.363842 
L 398.487273 192.350217 
L 398.487273 192.350217 
" style="fill:none;stroke:#0000ff;stroke-linecap:square;stroke-width:1.5;"/>
   </g>
   <g id="line2d_18">
    <path clip-path="url(#p6bb93ca1ad)" d="M 73.832727 244.972582 
L 74.90067 212.354328 
L 75.968612 196.767189 
L 77.036555 192.581701 
L 78.104498 183.610704 
L 79.17244 180.408281 
L 80.240383 151.883127 
L 81.308325 144.526833 
L 82.376268 132.294328 
L 83.444211 148.572583 
L 84.512153 153.112602 
L 85.580096 135.709007 
L 86.648038 122.092455 
L 87.715981 131.334225 
L 88.783923 128.331414 
L 89.851866 64.656771 
L 90.919809 142.807471 
L 91.987751 100.080413 
L 93.055694 136.705265 
L 94.123636 123.782435 
L 95.191579 94.247863 
L 96.259522 60.800384 
L 97.327464 115.373235 
L 98.395407 110.056494 
L 99.463349 100.296868 
L 100.531292 135.394796 
L 101.599234 68.669761 
L 102.667177 127.952357 
L 103.73512 118.074262 
L 105.871005 97.083557 
L 106.938947 117.954463 
L 108.00689 123.406112 
L 109.074833 118.476581 
L 110.142775 105.676457 
L 111.210718 127.836067 
L 112.27866 123.091114 
L 113.346603 122.157807 
L 114.414545 122.570508 
L 115.482488 113.925485 
L 116.550431 131.425613 
L 117.618373 138.770168 
L 118.686316 130.889148 
L 119.754258 120.268192 
L 120.822201 99.303415 
L 121.890144 99.875829 
L 122.958086 95.372188 
L 124.026029 135.481694 
L 125.093971 106.302623 
L 126.161914 126.115466 
L 127.229856 117.801351 
L 128.297799 97.745477 
L 129.365742 125.952866 
L 130.433684 92.45961 
L 131.501627 98.454843 
L 132.569569 106.953073 
L 133.637512 96.574223 
L 134.705455 130.392852 
L 135.773397 102.47675 
L 136.84134 138.639306 
L 137.909282 120.277197 
L 138.977225 140.26546 
L 140.045167 123.97058 
L 141.11311 124.265915 
L 142.181053 127.558553 
L 143.248995 114.915605 
L 144.316938 95.597693 
L 145.38488 62.890836 
L 146.452823 87.614259 
L 147.520766 96.914658 
L 149.656651 109.146793 
L 150.724593 126.99604 
L 151.792536 95.902604 
L 152.860478 81.242445 
L 153.928421 111.276126 
L 154.996364 98.381081 
L 156.064306 100.918759 
L 157.132249 88.939522 
L 158.200191 74.194988 
L 159.268134 62.97958 
L 160.336077 88.879279 
L 161.404019 100.350567 
L 162.471962 78.184278 
L 163.539904 61.010302 
L 164.607847 116.226248 
L 165.675789 100.915277 
L 166.743732 75.309192 
L 167.811675 101.872427 
L 168.879617 85.115384 
L 169.94756 81.841982 
L 171.015502 107.244479 
L 172.083445 67.093519 
L 173.151388 87.993104 
L 175.287273 112.454146 
L 176.355215 131.697225 
L 177.423158 100.354345 
L 178.4911 131.376265 
L 179.559043 96.735264 
L 180.626986 129.852087 
L 181.694928 97.2944 
L 182.762871 105.480895 
L 183.830813 88.215334 
L 184.898756 127.827472 
L 185.966699 113.878522 
L 187.034641 134.980793 
L 188.102584 112.606872 
L 189.170526 121.096407 
L 190.238469 108.642503 
L 191.306411 108.379686 
L 192.374354 110.166901 
L 193.442297 134.065777 
L 194.510239 99.523205 
L 195.578182 111.494601 
L 196.646124 102.323115 
L 198.78201 126.103257 
L 199.849952 133.026069 
L 200.917895 138.285276 
L 201.985837 109.138061 
L 203.05378 102.05309 
L 204.121722 130.382683 
L 205.189665 121.641172 
L 206.257608 86.403244 
L 207.32555 118.021253 
L 208.393493 109.3894 
L 209.461435 126.257001 
L 210.529378 116.647987 
L 211.597321 129.595415 
L 212.665263 109.18701 
L 213.733206 96.506368 
L 214.801148 109.555639 
L 215.869091 109.863846 
L 216.937033 109.161601 
L 218.004976 134.503001 
L 219.072919 111.887449 
L 220.140861 95.3521 
L 221.208804 113.759318 
L 222.276746 109.67765 
L 223.344689 130.811006 
L 224.412632 112.645341 
L 225.480574 130.7397 
L 226.548517 130.891033 
L 227.616459 91.874539 
L 228.684402 120.594174 
L 229.752344 107.295283 
L 230.820287 108.036199 
L 231.88823 106.622614 
L 232.956172 85.867736 
L 234.024115 100.965893 
L 235.092057 106.199561 
L 236.16 110.223507 
L 237.227943 90.372354 
L 238.295885 110.814058 
L 239.363828 120.949983 
L 240.43177 109.685136 
L 241.499713 121.296546 
L 242.567656 109.08052 
L 243.635598 112.437625 
L 245.771483 131.515401 
L 246.839426 130.85426 
L 247.907368 128.177228 
L 248.975311 123.955785 
L 250.043254 125.504721 
L 251.111196 133.184771 
L 252.179139 127.79452 
L 253.247081 131.328482 
L 254.315024 142.768282 
L 255.382967 108.891615 
L 256.450909 114.723897 
L 257.518852 123.338461 
L 258.586794 126.546501 
L 259.654737 126.03226 
L 260.722679 142.596636 
L 261.790622 147.070029 
L 262.858565 108.911489 
L 263.926507 121.785888 
L 264.99445 93.357127 
L 266.062392 120.197992 
L 267.130335 139.978573 
L 268.198278 116.493269 
L 269.26622 111.72304 
L 270.334163 118.587427 
L 271.402105 136.956082 
L 272.470048 117.157887 
L 273.53799 135.063809 
L 274.605933 143.417348 
L 275.673876 132.057729 
L 276.741818 124.761615 
L 277.809761 137.220322 
L 278.877703 120.553199 
L 279.945646 121.127787 
L 281.013589 123.618287 
L 282.081531 144.620698 
L 283.149474 124.66008 
L 284.217416 132.011247 
L 285.285359 118.670778 
L 286.353301 134.251856 
L 287.421244 123.398834 
L 288.489187 144.374878 
L 289.557129 114.89799 
L 290.625072 138.128469 
L 291.693014 139.510982 
L 292.760957 144.316493 
L 293.8289 152.754259 
L 294.896842 148.164882 
L 295.964785 149.760796 
L 297.032727 160.25966 
L 298.10067 142.642597 
L 299.168612 136.460097 
L 300.236555 150.809345 
L 301.304498 157.549945 
L 302.37244 154.634821 
L 303.440383 150.400106 
L 304.508325 152.575664 
L 305.576268 145.660615 
L 306.644211 143.439346 
L 307.712153 124.286664 
L 308.780096 139.872463 
L 309.848038 124.180844 
L 310.915981 137.861288 
L 311.983923 132.163021 
L 313.051866 137.964599 
L 314.119809 146.927998 
L 315.187751 142.543547 
L 316.255694 123.190099 
L 317.323636 121.534982 
L 318.391579 127.496814 
L 319.459522 110.227013 
L 320.527464 124.077579 
L 321.595407 122.110389 
L 322.663349 136.020452 
L 323.731292 132.054488 
L 324.799234 119.122851 
L 325.867177 123.139086 
L 326.93512 131.005156 
L 328.003062 140.939297 
L 329.071005 124.224458 
L 330.138947 137.659327 
L 331.20689 111.450741 
L 332.274833 121.247135 
L 333.342775 125.596008 
L 334.410718 107.104544 
L 335.47866 125.554878 
L 336.546603 125.691055 
L 337.614545 115.164301 
L 338.682488 102.427511 
L 339.750431 134.07452 
L 340.818373 118.180271 
L 341.886316 141.810159 
L 342.954258 148.629827 
L 344.022201 138.137161 
L 345.090144 130.030338 
L 347.226029 152.189563 
L 348.293971 158.155816 
L 349.361914 153.452577 
L 350.429856 129.324849 
L 351.497799 139.143419 
L 352.565742 132.60028 
L 353.633684 135.091435 
L 354.701627 121.296294 
L 355.769569 112.972 
L 356.837512 134.147712 
L 357.905455 115.112245 
L 358.973397 140.901831 
L 360.04134 120.43889 
L 361.109282 92.834862 
L 363.245167 138.573657 
L 364.31311 109.585147 
L 365.381053 123.536022 
L 366.448995 130.276057 
L 367.516938 118.193922 
L 368.58488 80.584035 
L 369.652823 116.46738 
L 370.720766 104.473221 
L 371.788708 118.077241 
L 372.856651 119.90751 
L 373.924593 89.181071 
L 374.992536 101.172289 
L 376.060478 98.832276 
L 377.128421 110.72511 
L 378.196364 102.925637 
L 379.264306 105.16865 
L 380.332249 115.731763 
L 382.468134 106.34981 
L 383.536077 104.441505 
L 384.604019 81.560136 
L 385.671962 91.917138 
L 386.739904 83.496223 
L 387.807847 96.796336 
L 388.875789 101.375397 
L 389.943732 53.568 
L 391.011675 115.110649 
L 392.079617 88.67998 
L 393.14756 123.809539 
L 394.215502 110.963272 
L 395.283445 109.046056 
L 396.351388 60.654372 
L 397.41933 76.250272 
L 398.487273 105.276649 
L 398.487273 105.276649 
" style="fill:none;stroke:#ff0000;stroke-linecap:square;stroke-width:1.5;"/>
   </g>
   <g id="patch_3">
    <path d="M 57.6 307.584 
L 57.6 41.472 
" style="fill:none;stroke:#000000;stroke-linecap:square;stroke-linejoin:miter;stroke-width:0.8;"/>
   </g>
   <g id="patch_4">
    <path d="M 414.72 307.584 
L 414.72 41.472 
" style="fill:none;stroke:#000000;stroke-linecap:square;stroke-linejoin:miter;stroke-width:0.8;"/>
   </g>
   <g id="patch_5">
    <path d="M 57.6 307.584 
L 414.72 307.584 
" style="fill:none;stroke:#000000;stroke-linecap:square;stroke-linejoin:miter;stroke-width:0.8;"/>
   </g>
   <g id="patch_6">
    <path d="M 57.6 41.472 
L 414.72 41.472 
" style="fill:none;stroke:#000000;stroke-linecap:square;stroke-linejoin:miter;stroke-width:0.8;"/>
   </g>
   <g id="text_11">
    <!-- Population's average and best fitness -->
    <g transform="translate(123.529687 35.472)scale(0.12 -0.12)">
     <defs>
      <path d="M 19.671875 64.796875 
L 19.671875 37.40625 
L 32.078125 37.40625 
Q 38.96875 37.40625 42.71875 40.96875 
Q 46.484375 44.53125 46.484375 51.125 
Q 46.484375 57.671875 42.71875 61.234375 
Q 38.96875 64.796875 32.078125 64.796875 
z
M 9.8125 72.90625 
L 32.078125 72.90625 
Q 44.34375 72.90625 50.609375 67.359375 
Q 56.890625 61.8125 56.890625 51.125 
Q 56.890625 40.328125 50.609375 34.8125 
Q 44.34375 29.296875 32.078125 29.296875 
L 19.671875 29.296875 
L 19.671875 0 
L 9.8125 0 
z
" id="DejaVuSans-80"/>
      <path d="M 18.109375 8.203125 
L 18.109375 -20.796875 
L 9.078125 -20.796875 
L 9.078125 54.6875 
L 18.109375 54.6875 
L 18.109375 46.390625 
Q 20.953125 51.265625 25.265625 53.625 
Q 29.59375 56 35.59375 56 
Q 45.5625 56 51.78125 48.09375 
Q 58.015625 40.1875 58.015625 27.296875 
Q 58.015625 14.40625 51.78125 6.484375 
Q 45.5625 -1.421875 35.59375 -1.421875 
Q 29.59375 -1.421875 25.265625 0.953125 
Q 20.953125 3.328125 18.109375 8.203125 
z
M 48.6875 27.296875 
Q 48.6875 37.203125 44.609375 42.84375 
Q 40.53125 48.484375 33.40625 48.484375 
Q 26.265625 48.484375 22.1875 42.84375 
Q 18.109375 37.203125 18.109375 27.296875 
Q 18.109375 17.390625 22.1875 11.75 
Q 26.265625 6.109375 33.40625 6.109375 
Q 40.53125 6.109375 44.609375 11.75 
Q 48.6875 17.390625 48.6875 27.296875 
z
" id="DejaVuSans-112"/>
      <path d="M 8.5 21.578125 
L 8.5 54.6875 
L 17.484375 54.6875 
L 17.484375 21.921875 
Q 17.484375 14.15625 20.5 10.265625 
Q 23.53125 6.390625 29.59375 6.390625 
Q 36.859375 6.390625 41.078125 11.03125 
Q 45.3125 15.671875 45.3125 23.6875 
L 45.3125 54.6875 
L 54.296875 54.6875 
L 54.296875 0 
L 45.3125 0 
L 45.3125 8.40625 
Q 42.046875 3.421875 37.71875 1 
Q 33.40625 -1.421875 27.6875 -1.421875 
Q 18.265625 -1.421875 13.375 4.4375 
Q 8.5 10.296875 8.5 21.578125 
z
M 31.109375 56 
z
" id="DejaVuSans-117"/>
      <path d="M 9.421875 75.984375 
L 18.40625 75.984375 
L 18.40625 0 
L 9.421875 0 
z
" id="DejaVuSans-108"/>
      <path d="M 17.921875 72.90625 
L 17.921875 45.796875 
L 9.625 45.796875 
L 9.625 72.90625 
z
" id="DejaVuSans-39"/>
      <path id="DejaVuSans-32"/>
      <path d="M 2.984375 54.6875 
L 12.5 54.6875 
L 29.59375 8.796875 
L 46.6875 54.6875 
L 56.203125 54.6875 
L 35.6875 0 
L 23.484375 0 
z
" id="DejaVuSans-118"/>
      <path d="M 45.40625 27.984375 
Q 45.40625 37.75 41.375 43.109375 
Q 37.359375 48.484375 30.078125 48.484375 
Q 22.859375 48.484375 18.828125 43.109375 
Q 14.796875 37.75 14.796875 27.984375 
Q 14.796875 18.265625 18.828125 12.890625 
Q 22.859375 7.515625 30.078125 7.515625 
Q 37.359375 7.515625 41.375 12.890625 
Q 45.40625 18.265625 45.40625 27.984375 
z
M 54.390625 6.78125 
Q 54.390625 -7.171875 48.1875 -13.984375 
Q 42 -20.796875 29.203125 -20.796875 
Q 24.46875 -20.796875 20.265625 -20.09375 
Q 16.0625 -19.390625 12.109375 -17.921875 
L 12.109375 -9.1875 
Q 16.0625 -11.328125 19.921875 -12.34375 
Q 23.78125 -13.375 27.78125 -13.375 
Q 36.625 -13.375 41.015625 -8.765625 
Q 45.40625 -4.15625 45.40625 5.171875 
L 45.40625 9.625 
Q 42.625 4.78125 38.28125 2.390625 
Q 33.9375 0 27.875 0 
Q 17.828125 0 11.671875 7.65625 
Q 5.515625 15.328125 5.515625 27.984375 
Q 5.515625 40.671875 11.671875 48.328125 
Q 17.828125 56 27.875 56 
Q 33.9375 56 38.28125 53.609375 
Q 42.625 51.21875 45.40625 46.390625 
L 45.40625 54.6875 
L 54.390625 54.6875 
z
" id="DejaVuSans-103"/>
      <path d="M 45.40625 46.390625 
L 45.40625 75.984375 
L 54.390625 75.984375 
L 54.390625 0 
L 45.40625 0 
L 45.40625 8.203125 
Q 42.578125 3.328125 38.25 0.953125 
Q 33.9375 -1.421875 27.875 -1.421875 
Q 17.96875 -1.421875 11.734375 6.484375 
Q 5.515625 14.40625 5.515625 27.296875 
Q 5.515625 40.1875 11.734375 48.09375 
Q 17.96875 56 27.875 56 
Q 33.9375 56 38.25 53.625 
Q 42.578125 51.265625 45.40625 46.390625 
z
M 14.796875 27.296875 
Q 14.796875 17.390625 18.875 11.75 
Q 22.953125 6.109375 30.078125 6.109375 
Q 37.203125 6.109375 41.296875 11.75 
Q 45.40625 17.390625 45.40625 27.296875 
Q 45.40625 37.203125 41.296875 42.84375 
Q 37.203125 48.484375 30.078125 48.484375 
Q 22.953125 48.484375 18.875 42.84375 
Q 14.796875 37.203125 14.796875 27.296875 
z
" id="DejaVuSans-100"/>
      <path d="M 48.6875 27.296875 
Q 48.6875 37.203125 44.609375 42.84375 
Q 40.53125 48.484375 33.40625 48.484375 
Q 26.265625 48.484375 22.1875 42.84375 
Q 18.109375 37.203125 18.109375 27.296875 
Q 18.109375 17.390625 22.1875 11.75 
Q 26.265625 6.109375 33.40625 6.109375 
Q 40.53125 6.109375 44.609375 11.75 
Q 48.6875 17.390625 48.6875 27.296875 
z
M 18.109375 46.390625 
Q 20.953125 51.265625 25.265625 53.625 
Q 29.59375 56 35.59375 56 
Q 45.5625 56 51.78125 48.09375 
Q 58.015625 40.1875 58.015625 27.296875 
Q 58.015625 14.40625 51.78125 6.484375 
Q 45.5625 -1.421875 35.59375 -1.421875 
Q 29.59375 -1.421875 25.265625 0.953125 
Q 20.953125 3.328125 18.109375 8.203125 
L 18.109375 0 
L 9.078125 0 
L 9.078125 75.984375 
L 18.109375 75.984375 
z
" id="DejaVuSans-98"/>
      <path d="M 37.109375 75.984375 
L 37.109375 68.5 
L 28.515625 68.5 
Q 23.6875 68.5 21.796875 66.546875 
Q 19.921875 64.59375 19.921875 59.515625 
L 19.921875 54.6875 
L 34.71875 54.6875 
L 34.71875 47.703125 
L 19.921875 47.703125 
L 19.921875 0 
L 10.890625 0 
L 10.890625 47.703125 
L 2.296875 47.703125 
L 2.296875 54.6875 
L 10.890625 54.6875 
L 10.890625 58.5 
Q 10.890625 67.625 15.140625 71.796875 
Q 19.390625 75.984375 28.609375 75.984375 
z
" id="DejaVuSans-102"/>
     </defs>
     <use xlink:href="#DejaVuSans-80"/>
     <use x="56.677734" xlink:href="#DejaVuSans-111"/>
     <use x="117.859375" xlink:href="#DejaVuSans-112"/>
     <use x="181.335938" xlink:href="#DejaVuSans-117"/>
     <use x="244.714844" xlink:href="#DejaVuSans-108"/>
     <use x="272.498047" xlink:href="#DejaVuSans-97"/>
     <use x="333.777344" xlink:href="#DejaVuSans-116"/>
     <use x="372.986328" xlink:href="#DejaVuSans-105"/>
     <use x="400.769531" xlink:href="#DejaVuSans-111"/>
     <use x="461.951172" xlink:href="#DejaVuSans-110"/>
     <use x="525.330078" xlink:href="#DejaVuSans-39"/>
     <use x="552.820312" xlink:href="#DejaVuSans-115"/>
     <use x="604.919922" xlink:href="#DejaVuSans-32"/>
     <use x="636.707031" xlink:href="#DejaVuSans-97"/>
     <use x="697.986328" xlink:href="#DejaVuSans-118"/>
     <use x="757.166016" xlink:href="#DejaVuSans-101"/>
     <use x="818.689453" xlink:href="#DejaVuSans-114"/>
     <use x="859.802734" xlink:href="#DejaVuSans-97"/>
     <use x="921.082031" xlink:href="#DejaVuSans-103"/>
     <use x="984.558594" xlink:href="#DejaVuSans-101"/>
     <use x="1046.082031" xlink:href="#DejaVuSans-32"/>
     <use x="1077.869141" xlink:href="#DejaVuSans-97"/>
     <use x="1139.148438" xlink:href="#DejaVuSans-110"/>
     <use x="1202.527344" xlink:href="#DejaVuSans-100"/>
     <use x="1266.003906" xlink:href="#DejaVuSans-32"/>
     <use x="1297.791016" xlink:href="#DejaVuSans-98"/>
     <use x="1361.267578" xlink:href="#DejaVuSans-101"/>
     <use x="1422.791016" xlink:href="#DejaVuSans-115"/>
     <use x="1474.890625" xlink:href="#DejaVuSans-116"/>
     <use x="1514.099609" xlink:href="#DejaVuSans-32"/>
     <use x="1545.886719" xlink:href="#DejaVuSans-102"/>
     <use x="1581.091797" xlink:href="#DejaVuSans-105"/>
     <use x="1608.875" xlink:href="#DejaVuSans-116"/>
     <use x="1648.083984" xlink:href="#DejaVuSans-110"/>
     <use x="1711.462891" xlink:href="#DejaVuSans-101"/>
     <use x="1772.986328" xlink:href="#DejaVuSans-115"/>
     <use x="1825.085938" xlink:href="#DejaVuSans-115"/>
    </g>
   </g>
   <g id="legend_1">
    <g id="patch_7">
     <path d="M 334.779375 302.584 
L 407.72 302.584 
Q 409.72 302.584 409.72 300.584 
L 409.72 272.22775 
Q 409.72 270.22775 407.72 270.22775 
L 334.779375 270.22775 
Q 332.779375 270.22775 332.779375 272.22775 
L 332.779375 300.584 
Q 332.779375 302.584 334.779375 302.584 
z
" style="fill:#ffffff;opacity:0.8;stroke:#cccccc;stroke-linejoin:miter;"/>
    </g>
    <g id="line2d_19">
     <path d="M 336.779375 278.326187 
L 356.779375 278.326187 
" style="fill:none;stroke:#0000ff;stroke-linecap:square;stroke-width:1.5;"/>
    </g>
    <g id="line2d_20"/>
    <g id="text_12">
     <!-- average -->
     <g transform="translate(364.779375 281.826187)scale(0.1 -0.1)">
      <use xlink:href="#DejaVuSans-97"/>
      <use x="61.279297" xlink:href="#DejaVuSans-118"/>
      <use x="120.458984" xlink:href="#DejaVuSans-101"/>
      <use x="181.982422" xlink:href="#DejaVuSans-114"/>
      <use x="223.095703" xlink:href="#DejaVuSans-97"/>
      <use x="284.375" xlink:href="#DejaVuSans-103"/>
      <use x="347.851562" xlink:href="#DejaVuSans-101"/>
     </g>
    </g>
    <g id="line2d_21">
     <path d="M 336.779375 293.004312 
L 356.779375 293.004312 
" style="fill:none;stroke:#ff0000;stroke-linecap:square;stroke-width:1.5;"/>
    </g>
    <g id="line2d_22"/>
    <g id="text_13">
     <!-- best -->
     <g transform="translate(364.779375 296.504312)scale(0.1 -0.1)">
      <use xlink:href="#DejaVuSans-98"/>
      <use x="63.476562" xlink:href="#DejaVuSans-101"/>
      <use x="125" xlink:href="#DejaVuSans-115"/>
      <use x="177.099609" xlink:href="#DejaVuSans-116"/>
     </g>
    </g>
   </g>
  </g>
 </g>
 <defs>
  <clipPath id="p6bb93ca1ad">
   <rect height="266.112" width="357.12" x="57.6" y="41.472"/>
  </clipPath>
 </defs>
</svg>
