<?xml version="1.0" encoding="utf-8" standalone="no"?>
<!DOCTYPE svg PUBLIC "-//W3C//DTD SVG 1.1//EN"
  "http://www.w3.org/Graphics/SVG/1.1/DTD/svg11.dtd">
<!-- Created with matplotlib (https://matplotlib.org/) -->
<svg height="345.6pt" version="1.1" viewBox="0 0 460.8 345.6" width="460.8pt" xmlns="http://www.w3.org/2000/svg" xmlns:xlink="http://www.w3.org/1999/xlink">
 <metadata>
  <rdf:RDF xmlns:cc="http://creativecommons.org/ns#" xmlns:dc="http://purl.org/dc/elements/1.1/" xmlns:rdf="http://www.w3.org/1999/02/22-rdf-syntax-ns#">
   <cc:Work>
    <dc:type rdf:resource="http://purl.org/dc/dcmitype/StillImage"/>
    <dc:date>2021-02-23T08:53:32.066193</dc:date>
    <dc:format>image/svg+xml</dc:format>
    <dc:creator>
     <cc:Agent>
      <dc:title>Matplotlib v3.3.4, https://matplotlib.org/</dc:title>
     </cc:Agent>
    </dc:creator>
   </cc:Work>
  </rdf:RDF>
 </metadata>
 <defs>
  <style type="text/css">*{stroke-linecap:butt;stroke-linejoin:round;}</style>
 </defs>
 <g id="figure_1">
  <g id="patch_1">
   <path d="M 0 345.6 
L 460.8 345.6 
L 460.8 0 
L 0 0 
z
" style="fill:#ffffff;"/>
  </g>
  <g id="axes_1">
   <g id="patch_2">
    <path d="M 57.6 307.584 
L 414.72 307.584 
L 414.72 41.472 
L 57.6 41.472 
z
" style="fill:#ffffff;"/>
   </g>
   <g id="matplotlib.axis_1">
    <g id="xtick_1">
     <g id="line2d_1">
      <path clip-path="url(#p4b0f262546)" d="M 73.832727 307.584 
L 73.832727 41.472 
" style="fill:none;stroke:#b0b0b0;stroke-linecap:square;stroke-width:0.8;"/>
     </g>
     <g id="line2d_2">
      <defs>
       <path d="M 0 0 
L 0 3.5 
" id="m4dfb5e685a" style="stroke:#000000;stroke-width:0.8;"/>
      </defs>
      <g>
       <use style="stroke:#000000;stroke-width:0.8;" x="73.832727" xlink:href="#m4dfb5e685a" y="307.584"/>
      </g>
     </g>
     <g id="text_1">
      <!-- 0 -->
      <g transform="translate(70.651477 322.182437)scale(0.1 -0.1)">
       <defs>
        <path d="M 31.78125 66.40625 
Q 24.171875 66.40625 20.328125 58.90625 
Q 16.5 51.421875 16.5 36.375 
Q 16.5 21.390625 20.328125 13.890625 
Q 24.171875 6.390625 31.78125 6.390625 
Q 39.453125 6.390625 43.28125 13.890625 
Q 47.125 21.390625 47.125 36.375 
Q 47.125 51.421875 43.28125 58.90625 
Q 39.453125 66.40625 31.78125 66.40625 
z
M 31.78125 74.21875 
Q 44.046875 74.21875 50.515625 64.515625 
Q 56.984375 54.828125 56.984375 36.375 
Q 56.984375 17.96875 50.515625 8.265625 
Q 44.046875 -1.421875 31.78125 -1.421875 
Q 19.53125 -1.421875 13.0625 8.265625 
Q 6.59375 17.96875 6.59375 36.375 
Q 6.59375 54.828125 13.0625 64.515625 
Q 19.53125 74.21875 31.78125 74.21875 
z
" id="DejaVuSans-48"/>
       </defs>
       <use xlink:href="#DejaVuSans-48"/>
      </g>
     </g>
    </g>
    <g id="xtick_2">
     <g id="line2d_3">
      <path clip-path="url(#p4b0f262546)" d="M 114.516254 307.584 
L 114.516254 41.472 
" style="fill:none;stroke:#b0b0b0;stroke-linecap:square;stroke-width:0.8;"/>
     </g>
     <g id="line2d_4">
      <g>
       <use style="stroke:#000000;stroke-width:0.8;" x="114.516254" xlink:href="#m4dfb5e685a" y="307.584"/>
      </g>
     </g>
     <g id="text_2">
      <!-- 50 -->
      <g transform="translate(108.153754 322.182437)scale(0.1 -0.1)">
       <defs>
        <path d="M 10.796875 72.90625 
L 49.515625 72.90625 
L 49.515625 64.59375 
L 19.828125 64.59375 
L 19.828125 46.734375 
Q 21.96875 47.46875 24.109375 47.828125 
Q 26.265625 48.1875 28.421875 48.1875 
Q 40.625 48.1875 47.75 41.5 
Q 54.890625 34.8125 54.890625 23.390625 
Q 54.890625 11.625 47.5625 5.09375 
Q 40.234375 -1.421875 26.90625 -1.421875 
Q 22.3125 -1.421875 17.546875 -0.640625 
Q 12.796875 0.140625 7.71875 1.703125 
L 7.71875 11.625 
Q 12.109375 9.234375 16.796875 8.0625 
Q 21.484375 6.890625 26.703125 6.890625 
Q 35.15625 6.890625 40.078125 11.328125 
Q 45.015625 15.765625 45.015625 23.390625 
Q 45.015625 31 40.078125 35.4375 
Q 35.15625 39.890625 26.703125 39.890625 
Q 22.75 39.890625 18.8125 39.015625 
Q 14.890625 38.140625 10.796875 36.28125 
z
" id="DejaVuSans-53"/>
       </defs>
       <use xlink:href="#DejaVuSans-53"/>
       <use x="63.623047" xlink:href="#DejaVuSans-48"/>
      </g>
     </g>
    </g>
    <g id="xtick_3">
     <g id="line2d_5">
      <path clip-path="url(#p4b0f262546)" d="M 155.199781 307.584 
L 155.199781 41.472 
" style="fill:none;stroke:#b0b0b0;stroke-linecap:square;stroke-width:0.8;"/>
     </g>
     <g id="line2d_6">
      <g>
       <use style="stroke:#000000;stroke-width:0.8;" x="155.199781" xlink:href="#m4dfb5e685a" y="307.584"/>
      </g>
     </g>
     <g id="text_3">
      <!-- 100 -->
      <g transform="translate(145.656031 322.182437)scale(0.1 -0.1)">
       <defs>
        <path d="M 12.40625 8.296875 
L 28.515625 8.296875 
L 28.515625 63.921875 
L 10.984375 60.40625 
L 10.984375 69.390625 
L 28.421875 72.90625 
L 38.28125 72.90625 
L 38.28125 8.296875 
L 54.390625 8.296875 
L 54.390625 0 
L 12.40625 0 
z
" id="DejaVuSans-49"/>
       </defs>
       <use xlink:href="#DejaVuSans-49"/>
       <use x="63.623047" xlink:href="#DejaVuSans-48"/>
       <use x="127.246094" xlink:href="#DejaVuSans-48"/>
      </g>
     </g>
    </g>
    <g id="xtick_4">
     <g id="line2d_7">
      <path clip-path="url(#p4b0f262546)" d="M 195.883308 307.584 
L 195.883308 41.472 
" style="fill:none;stroke:#b0b0b0;stroke-linecap:square;stroke-width:0.8;"/>
     </g>
     <g id="line2d_8">
      <g>
       <use style="stroke:#000000;stroke-width:0.8;" x="195.883308" xlink:href="#m4dfb5e685a" y="307.584"/>
      </g>
     </g>
     <g id="text_4">
      <!-- 150 -->
      <g transform="translate(186.339558 322.182437)scale(0.1 -0.1)">
       <use xlink:href="#DejaVuSans-49"/>
       <use x="63.623047" xlink:href="#DejaVuSans-53"/>
       <use x="127.246094" xlink:href="#DejaVuSans-48"/>
      </g>
     </g>
    </g>
    <g id="xtick_5">
     <g id="line2d_9">
      <path clip-path="url(#p4b0f262546)" d="M 236.566835 307.584 
L 236.566835 41.472 
" style="fill:none;stroke:#b0b0b0;stroke-linecap:square;stroke-width:0.8;"/>
     </g>
     <g id="line2d_10">
      <g>
       <use style="stroke:#000000;stroke-width:0.8;" x="236.566835" xlink:href="#m4dfb5e685a" y="307.584"/>
      </g>
     </g>
     <g id="text_5">
      <!-- 200 -->
      <g transform="translate(227.023085 322.182437)scale(0.1 -0.1)">
       <defs>
        <path d="M 19.1875 8.296875 
L 53.609375 8.296875 
L 53.609375 0 
L 7.328125 0 
L 7.328125 8.296875 
Q 12.9375 14.109375 22.625 23.890625 
Q 32.328125 33.6875 34.8125 36.53125 
Q 39.546875 41.84375 41.421875 45.53125 
Q 43.3125 49.21875 43.3125 52.78125 
Q 43.3125 58.59375 39.234375 62.25 
Q 35.15625 65.921875 28.609375 65.921875 
Q 23.96875 65.921875 18.8125 64.3125 
Q 13.671875 62.703125 7.8125 59.421875 
L 7.8125 69.390625 
Q 13.765625 71.78125 18.9375 73 
Q 24.125 74.21875 28.421875 74.21875 
Q 39.75 74.21875 46.484375 68.546875 
Q 53.21875 62.890625 53.21875 53.421875 
Q 53.21875 48.921875 51.53125 44.890625 
Q 49.859375 40.875 45.40625 35.40625 
Q 44.1875 33.984375 37.640625 27.21875 
Q 31.109375 20.453125 19.1875 8.296875 
z
" id="DejaVuSans-50"/>
       </defs>
       <use xlink:href="#DejaVuSans-50"/>
       <use x="63.623047" xlink:href="#DejaVuSans-48"/>
       <use x="127.246094" xlink:href="#DejaVuSans-48"/>
      </g>
     </g>
    </g>
    <g id="xtick_6">
     <g id="line2d_11">
      <path clip-path="url(#p4b0f262546)" d="M 277.250362 307.584 
L 277.250362 41.472 
" style="fill:none;stroke:#b0b0b0;stroke-linecap:square;stroke-width:0.8;"/>
     </g>
     <g id="line2d_12">
      <g>
       <use style="stroke:#000000;stroke-width:0.8;" x="277.250362" xlink:href="#m4dfb5e685a" y="307.584"/>
      </g>
     </g>
     <g id="text_6">
      <!-- 250 -->
      <g transform="translate(267.706612 322.182437)scale(0.1 -0.1)">
       <use xlink:href="#DejaVuSans-50"/>
       <use x="63.623047" xlink:href="#DejaVuSans-53"/>
       <use x="127.246094" xlink:href="#DejaVuSans-48"/>
      </g>
     </g>
    </g>
    <g id="xtick_7">
     <g id="line2d_13">
      <path clip-path="url(#p4b0f262546)" d="M 317.933889 307.584 
L 317.933889 41.472 
" style="fill:none;stroke:#b0b0b0;stroke-linecap:square;stroke-width:0.8;"/>
     </g>
     <g id="line2d_14">
      <g>
       <use style="stroke:#000000;stroke-width:0.8;" x="317.933889" xlink:href="#m4dfb5e685a" y="307.584"/>
      </g>
     </g>
     <g id="text_7">
      <!-- 300 -->
      <g transform="translate(308.390139 322.182437)scale(0.1 -0.1)">
       <defs>
        <path d="M 40.578125 39.3125 
Q 47.65625 37.796875 51.625 33 
Q 55.609375 28.21875 55.609375 21.1875 
Q 55.609375 10.40625 48.1875 4.484375 
Q 40.765625 -1.421875 27.09375 -1.421875 
Q 22.515625 -1.421875 17.65625 -0.515625 
Q 12.796875 0.390625 7.625 2.203125 
L 7.625 11.71875 
Q 11.71875 9.328125 16.59375 8.109375 
Q 21.484375 6.890625 26.8125 6.890625 
Q 36.078125 6.890625 40.9375 10.546875 
Q 45.796875 14.203125 45.796875 21.1875 
Q 45.796875 27.640625 41.28125 31.265625 
Q 36.765625 34.90625 28.71875 34.90625 
L 20.21875 34.90625 
L 20.21875 43.015625 
L 29.109375 43.015625 
Q 36.375 43.015625 40.234375 45.921875 
Q 44.09375 48.828125 44.09375 54.296875 
Q 44.09375 59.90625 40.109375 62.90625 
Q 36.140625 65.921875 28.71875 65.921875 
Q 24.65625 65.921875 20.015625 65.03125 
Q 15.375 64.15625 9.8125 62.3125 
L 9.8125 71.09375 
Q 15.4375 72.65625 20.34375 73.4375 
Q 25.25 74.21875 29.59375 74.21875 
Q 40.828125 74.21875 47.359375 69.109375 
Q 53.90625 64.015625 53.90625 55.328125 
Q 53.90625 49.265625 50.4375 45.09375 
Q 46.96875 40.921875 40.578125 39.3125 
z
" id="DejaVuSans-51"/>
       </defs>
       <use xlink:href="#DejaVuSans-51"/>
       <use x="63.623047" xlink:href="#DejaVuSans-48"/>
       <use x="127.246094" xlink:href="#DejaVuSans-48"/>
      </g>
     </g>
    </g>
    <g id="xtick_8">
     <g id="line2d_15">
      <path clip-path="url(#p4b0f262546)" d="M 358.617416 307.584 
L 358.617416 41.472 
" style="fill:none;stroke:#b0b0b0;stroke-linecap:square;stroke-width:0.8;"/>
     </g>
     <g id="line2d_16">
      <g>
       <use style="stroke:#000000;stroke-width:0.8;" x="358.617416" xlink:href="#m4dfb5e685a" y="307.584"/>
      </g>
     </g>
     <g id="text_8">
      <!-- 350 -->
      <g transform="translate(349.073666 322.182437)scale(0.1 -0.1)">
       <use xlink:href="#DejaVuSans-51"/>
       <use x="63.623047" xlink:href="#DejaVuSans-53"/>
       <use x="127.246094" xlink:href="#DejaVuSans-48"/>
      </g>
     </g>
    </g>
    <g id="xtick_9">
     <g id="line2d_17">
      <path clip-path="url(#p4b0f262546)" d="M 399.300943 307.584 
L 399.300943 41.472 
" style="fill:none;stroke:#b0b0b0;stroke-linecap:square;stroke-width:0.8;"/>
     </g>
     <g id="line2d_18">
      <g>
       <use style="stroke:#000000;stroke-width:0.8;" x="399.300943" xlink:href="#m4dfb5e685a" y="307.584"/>
      </g>
     </g>
     <g id="text_9">
      <!-- 400 -->
      <g transform="translate(389.757193 322.182437)scale(0.1 -0.1)">
       <defs>
        <path d="M 37.796875 64.3125 
L 12.890625 25.390625 
L 37.796875 25.390625 
z
M 35.203125 72.90625 
L 47.609375 72.90625 
L 47.609375 25.390625 
L 58.015625 25.390625 
L 58.015625 17.1875 
L 47.609375 17.1875 
L 47.609375 0 
L 37.796875 0 
L 37.796875 17.1875 
L 4.890625 17.1875 
L 4.890625 26.703125 
z
" id="DejaVuSans-52"/>
       </defs>
       <use xlink:href="#DejaVuSans-52"/>
       <use x="63.623047" xlink:href="#DejaVuSans-48"/>
       <use x="127.246094" xlink:href="#DejaVuSans-48"/>
      </g>
     </g>
    </g>
    <g id="text_10">
     <!-- Generations -->
     <g transform="translate(205.662344 335.860562)scale(0.1 -0.1)">
      <defs>
       <path d="M 59.515625 10.40625 
L 59.515625 29.984375 
L 43.40625 29.984375 
L 43.40625 38.09375 
L 69.28125 38.09375 
L 69.28125 6.78125 
Q 63.578125 2.734375 56.6875 0.65625 
Q 49.8125 -1.421875 42 -1.421875 
Q 24.90625 -1.421875 15.25 8.5625 
Q 5.609375 18.5625 5.609375 36.375 
Q 5.609375 54.25 15.25 64.234375 
Q 24.90625 74.21875 42 74.21875 
Q 49.125 74.21875 55.546875 72.453125 
Q 61.96875 70.703125 67.390625 67.28125 
L 67.390625 56.78125 
Q 61.921875 61.421875 55.765625 63.765625 
Q 49.609375 66.109375 42.828125 66.109375 
Q 29.4375 66.109375 22.71875 58.640625 
Q 16.015625 51.171875 16.015625 36.375 
Q 16.015625 21.625 22.71875 14.15625 
Q 29.4375 6.6875 42.828125 6.6875 
Q 48.046875 6.6875 52.140625 7.59375 
Q 56.25 8.5 59.515625 10.40625 
z
" id="DejaVuSans-71"/>
       <path d="M 56.203125 29.59375 
L 56.203125 25.203125 
L 14.890625 25.203125 
Q 15.484375 15.921875 20.484375 11.0625 
Q 25.484375 6.203125 34.421875 6.203125 
Q 39.59375 6.203125 44.453125 7.46875 
Q 49.3125 8.734375 54.109375 11.28125 
L 54.109375 2.78125 
Q 49.265625 0.734375 44.1875 -0.34375 
Q 39.109375 -1.421875 33.890625 -1.421875 
Q 20.796875 -1.421875 13.15625 6.1875 
Q 5.515625 13.8125 5.515625 26.8125 
Q 5.515625 40.234375 12.765625 48.109375 
Q 20.015625 56 32.328125 56 
Q 43.359375 56 49.78125 48.890625 
Q 56.203125 41.796875 56.203125 29.59375 
z
M 47.21875 32.234375 
Q 47.125 39.59375 43.09375 43.984375 
Q 39.0625 48.390625 32.421875 48.390625 
Q 24.90625 48.390625 20.390625 44.140625 
Q 15.875 39.890625 15.1875 32.171875 
z
" id="DejaVuSans-101"/>
       <path d="M 54.890625 33.015625 
L 54.890625 0 
L 45.90625 0 
L 45.90625 32.71875 
Q 45.90625 40.484375 42.875 44.328125 
Q 39.84375 48.1875 33.796875 48.1875 
Q 26.515625 48.1875 22.3125 43.546875 
Q 18.109375 38.921875 18.109375 30.90625 
L 18.109375 0 
L 9.078125 0 
L 9.078125 54.6875 
L 18.109375 54.6875 
L 18.109375 46.1875 
Q 21.34375 51.125 25.703125 53.5625 
Q 30.078125 56 35.796875 56 
Q 45.21875 56 50.046875 50.171875 
Q 54.890625 44.34375 54.890625 33.015625 
z
" id="DejaVuSans-110"/>
       <path d="M 41.109375 46.296875 
Q 39.59375 47.171875 37.8125 47.578125 
Q 36.03125 48 33.890625 48 
Q 26.265625 48 22.1875 43.046875 
Q 18.109375 38.09375 18.109375 28.8125 
L 18.109375 0 
L 9.078125 0 
L 9.078125 54.6875 
L 18.109375 54.6875 
L 18.109375 46.1875 
Q 20.953125 51.171875 25.484375 53.578125 
Q 30.03125 56 36.53125 56 
Q 37.453125 56 38.578125 55.875 
Q 39.703125 55.765625 41.0625 55.515625 
z
" id="DejaVuSans-114"/>
       <path d="M 34.28125 27.484375 
Q 23.390625 27.484375 19.1875 25 
Q 14.984375 22.515625 14.984375 16.5 
Q 14.984375 11.71875 18.140625 8.90625 
Q 21.296875 6.109375 26.703125 6.109375 
Q 34.1875 6.109375 38.703125 11.40625 
Q 43.21875 16.703125 43.21875 25.484375 
L 43.21875 27.484375 
z
M 52.203125 31.203125 
L 52.203125 0 
L 43.21875 0 
L 43.21875 8.296875 
Q 40.140625 3.328125 35.546875 0.953125 
Q 30.953125 -1.421875 24.3125 -1.421875 
Q 15.921875 -1.421875 10.953125 3.296875 
Q 6 8.015625 6 15.921875 
Q 6 25.140625 12.171875 29.828125 
Q 18.359375 34.515625 30.609375 34.515625 
L 43.21875 34.515625 
L 43.21875 35.40625 
Q 43.21875 41.609375 39.140625 45 
Q 35.0625 48.390625 27.6875 48.390625 
Q 23 48.390625 18.546875 47.265625 
Q 14.109375 46.140625 10.015625 43.890625 
L 10.015625 52.203125 
Q 14.9375 54.109375 19.578125 55.046875 
Q 24.21875 56 28.609375 56 
Q 40.484375 56 46.34375 49.84375 
Q 52.203125 43.703125 52.203125 31.203125 
z
" id="DejaVuSans-97"/>
       <path d="M 18.3125 70.21875 
L 18.3125 54.6875 
L 36.8125 54.6875 
L 36.8125 47.703125 
L 18.3125 47.703125 
L 18.3125 18.015625 
Q 18.3125 11.328125 20.140625 9.421875 
Q 21.96875 7.515625 27.59375 7.515625 
L 36.8125 7.515625 
L 36.8125 0 
L 27.59375 0 
Q 17.1875 0 13.234375 3.875 
Q 9.28125 7.765625 9.28125 18.015625 
L 9.28125 47.703125 
L 2.6875 47.703125 
L 2.6875 54.6875 
L 9.28125 54.6875 
L 9.28125 70.21875 
z
" id="DejaVuSans-116"/>
       <path d="M 9.421875 54.6875 
L 18.40625 54.6875 
L 18.40625 0 
L 9.421875 0 
z
M 9.421875 75.984375 
L 18.40625 75.984375 
L 18.40625 64.59375 
L 9.421875 64.59375 
z
" id="DejaVuSans-105"/>
       <path d="M 30.609375 48.390625 
Q 23.390625 48.390625 19.1875 42.75 
Q 14.984375 37.109375 14.984375 27.296875 
Q 14.984375 17.484375 19.15625 11.84375 
Q 23.34375 6.203125 30.609375 6.203125 
Q 37.796875 6.203125 41.984375 11.859375 
Q 46.1875 17.53125 46.1875 27.296875 
Q 46.1875 37.015625 41.984375 42.703125 
Q 37.796875 48.390625 30.609375 48.390625 
z
M 30.609375 56 
Q 42.328125 56 49.015625 48.375 
Q 55.71875 40.765625 55.71875 27.296875 
Q 55.71875 13.875 49.015625 6.21875 
Q 42.328125 -1.421875 30.609375 -1.421875 
Q 18.84375 -1.421875 12.171875 6.21875 
Q 5.515625 13.875 5.515625 27.296875 
Q 5.515625 40.765625 12.171875 48.375 
Q 18.84375 56 30.609375 56 
z
" id="DejaVuSans-111"/>
       <path d="M 44.28125 53.078125 
L 44.28125 44.578125 
Q 40.484375 46.53125 36.375 47.5 
Q 32.28125 48.484375 27.875 48.484375 
Q 21.1875 48.484375 17.84375 46.4375 
Q 14.5 44.390625 14.5 40.28125 
Q 14.5 37.15625 16.890625 35.375 
Q 19.28125 33.59375 26.515625 31.984375 
L 29.59375 31.296875 
Q 39.15625 29.25 43.1875 25.515625 
Q 47.21875 21.78125 47.21875 15.09375 
Q 47.21875 7.46875 41.1875 3.015625 
Q 35.15625 -1.421875 24.609375 -1.421875 
Q 20.21875 -1.421875 15.453125 -0.5625 
Q 10.6875 0.296875 5.421875 2 
L 5.421875 11.28125 
Q 10.40625 8.6875 15.234375 7.390625 
Q 20.0625 6.109375 24.8125 6.109375 
Q 31.15625 6.109375 34.5625 8.28125 
Q 37.984375 10.453125 37.984375 14.40625 
Q 37.984375 18.0625 35.515625 20.015625 
Q 33.0625 21.96875 24.703125 23.78125 
L 21.578125 24.515625 
Q 13.234375 26.265625 9.515625 29.90625 
Q 5.8125 33.546875 5.8125 39.890625 
Q 5.8125 47.609375 11.28125 51.796875 
Q 16.75 56 26.8125 56 
Q 31.78125 56 36.171875 55.265625 
Q 40.578125 54.546875 44.28125 53.078125 
z
" id="DejaVuSans-115"/>
      </defs>
      <use xlink:href="#DejaVuSans-71"/>
      <use x="77.490234" xlink:href="#DejaVuSans-101"/>
      <use x="139.013672" xlink:href="#DejaVuSans-110"/>
      <use x="202.392578" xlink:href="#DejaVuSans-101"/>
      <use x="263.916016" xlink:href="#DejaVuSans-114"/>
      <use x="305.029297" xlink:href="#DejaVuSans-97"/>
      <use x="366.308594" xlink:href="#DejaVuSans-116"/>
      <use x="405.517578" xlink:href="#DejaVuSans-105"/>
      <use x="433.300781" xlink:href="#DejaVuSans-111"/>
      <use x="494.482422" xlink:href="#DejaVuSans-110"/>
      <use x="557.861328" xlink:href="#DejaVuSans-115"/>
     </g>
    </g>
   </g>
   <g id="matplotlib.axis_2">
    <g id="ytick_1">
     <g id="line2d_19">
      <path clip-path="url(#p4b0f262546)" d="M 57.6 304.661086 
L 414.72 304.661086 
" style="fill:none;stroke:#b0b0b0;stroke-linecap:square;stroke-width:0.8;"/>
     </g>
     <g id="line2d_20">
      <defs>
       <path d="M 0 0 
L -3.5 0 
" id="m18bbc341f9" style="stroke:#000000;stroke-width:0.8;"/>
      </defs>
      <g>
       <use style="stroke:#000000;stroke-width:0.8;" x="57.6" xlink:href="#m18bbc341f9" y="304.661086"/>
      </g>
     </g>
     <g id="text_11">
      <!-- $\mathdefault{-10^{4}}$ -->
      <g transform="translate(24.6 308.460305)scale(0.1 -0.1)">
       <defs>
        <path d="M 10.59375 35.5 
L 73.1875 35.5 
L 73.1875 27.203125 
L 10.59375 27.203125 
z
" id="DejaVuSans-8722"/>
       </defs>
       <use transform="translate(0 0.684375)" xlink:href="#DejaVuSans-8722"/>
       <use transform="translate(83.789062 0.684375)" xlink:href="#DejaVuSans-49"/>
       <use transform="translate(147.412109 0.684375)" xlink:href="#DejaVuSans-48"/>
       <use transform="translate(211.992188 38.965625)scale(0.7)" xlink:href="#DejaVuSans-52"/>
      </g>
     </g>
    </g>
    <g id="ytick_2">
     <g id="line2d_21">
      <path clip-path="url(#p4b0f262546)" d="M 57.6 218.033642 
L 414.72 218.033642 
" style="fill:none;stroke:#b0b0b0;stroke-linecap:square;stroke-width:0.8;"/>
     </g>
     <g id="line2d_22">
      <g>
       <use style="stroke:#000000;stroke-width:0.8;" x="57.6" xlink:href="#m18bbc341f9" y="218.033642"/>
      </g>
     </g>
     <g id="text_12">
      <!-- $\mathdefault{-10^{3}}$ -->
      <g transform="translate(24.6 221.832861)scale(0.1 -0.1)">
       <use transform="translate(0 0.765625)" xlink:href="#DejaVuSans-8722"/>
       <use transform="translate(83.789062 0.765625)" xlink:href="#DejaVuSans-49"/>
       <use transform="translate(147.412109 0.765625)" xlink:href="#DejaVuSans-48"/>
       <use transform="translate(211.992188 39.046875)scale(0.7)" xlink:href="#DejaVuSans-51"/>
      </g>
     </g>
    </g>
    <g id="ytick_3">
     <g id="line2d_23">
      <path clip-path="url(#p4b0f262546)" d="M 57.6 131.406198 
L 414.72 131.406198 
" style="fill:none;stroke:#b0b0b0;stroke-linecap:square;stroke-width:0.8;"/>
     </g>
     <g id="line2d_24">
      <g>
       <use style="stroke:#000000;stroke-width:0.8;" x="57.6" xlink:href="#m18bbc341f9" y="131.406198"/>
      </g>
     </g>
     <g id="text_13">
      <!-- $\mathdefault{-10^{2}}$ -->
      <g transform="translate(24.6 135.205416)scale(0.1 -0.1)">
       <use transform="translate(0 0.765625)" xlink:href="#DejaVuSans-8722"/>
       <use transform="translate(83.789062 0.765625)" xlink:href="#DejaVuSans-49"/>
       <use transform="translate(147.412109 0.765625)" xlink:href="#DejaVuSans-48"/>
       <use transform="translate(211.992188 39.046875)scale(0.7)" xlink:href="#DejaVuSans-50"/>
      </g>
     </g>
    </g>
    <g id="ytick_4">
     <g id="line2d_25">
      <path clip-path="url(#p4b0f262546)" d="M 57.6 44.778753 
L 414.72 44.778753 
" style="fill:none;stroke:#b0b0b0;stroke-linecap:square;stroke-width:0.8;"/>
     </g>
     <g id="line2d_26">
      <g>
       <use style="stroke:#000000;stroke-width:0.8;" x="57.6" xlink:href="#m18bbc341f9" y="44.778753"/>
      </g>
     </g>
     <g id="text_14">
      <!-- $\mathdefault{-10^{1}}$ -->
      <g transform="translate(24.6 48.577972)scale(0.1 -0.1)">
       <use transform="translate(0 0.684375)" xlink:href="#DejaVuSans-8722"/>
       <use transform="translate(83.789062 0.684375)" xlink:href="#DejaVuSans-49"/>
       <use transform="translate(147.412109 0.684375)" xlink:href="#DejaVuSans-48"/>
       <use transform="translate(211.992188 38.965625)scale(0.7)" xlink:href="#DejaVuSans-49"/>
      </g>
     </g>
    </g>
    <g id="text_15">
     <!-- Fitness -->
     <g transform="translate(18.520312 191.845187)rotate(-90)scale(0.1 -0.1)">
      <defs>
       <path d="M 9.8125 72.90625 
L 51.703125 72.90625 
L 51.703125 64.59375 
L 19.671875 64.59375 
L 19.671875 43.109375 
L 48.578125 43.109375 
L 48.578125 34.8125 
L 19.671875 34.8125 
L 19.671875 0 
L 9.8125 0 
z
" id="DejaVuSans-70"/>
      </defs>
      <use xlink:href="#DejaVuSans-70"/>
      <use x="50.269531" xlink:href="#DejaVuSans-105"/>
      <use x="78.052734" xlink:href="#DejaVuSans-116"/>
      <use x="117.261719" xlink:href="#DejaVuSans-110"/>
      <use x="180.640625" xlink:href="#DejaVuSans-101"/>
      <use x="242.164062" xlink:href="#DejaVuSans-115"/>
      <use x="294.263672" xlink:href="#DejaVuSans-115"/>
     </g>
    </g>
   </g>
   <g id="line2d_27">
    <path clip-path="url(#p4b0f262546)" d="M 73.832727 295.488 
L 74.646398 284.399665 
L 75.460068 277.514378 
L 76.273739 279.783334 
L 77.087409 274.489991 
L 77.90108 268.409537 
L 78.714751 274.555307 
L 79.528421 271.725629 
L 80.342092 265.662546 
L 81.155762 269.122853 
L 81.969433 260.371139 
L 82.783103 266.812787 
L 83.596774 261.812324 
L 84.410444 259.168952 
L 85.224115 259.471856 
L 86.037785 259.953396 
L 86.851456 264.287783 
L 87.665126 260.09702 
L 88.478797 262.032225 
L 89.292468 263.361217 
L 90.106138 263.466522 
L 90.919809 260.995303 
L 91.733479 267.480139 
L 92.54715 265.752567 
L 93.36082 266.883894 
L 94.174491 260.739383 
L 94.988161 257.814131 
L 95.801832 263.602328 
L 96.615502 267.304283 
L 97.429173 263.094789 
L 98.242843 262.707025 
L 99.056514 263.364698 
L 99.870185 255.279011 
L 100.683855 260.850412 
L 101.497526 261.990782 
L 102.311196 254.523975 
L 103.124867 256.589364 
L 103.938537 257.926948 
L 104.752208 256.846028 
L 105.565878 252.691231 
L 106.379549 254.463211 
L 107.193219 252.90898 
L 108.00689 259.913882 
L 108.82056 253.930637 
L 109.634231 251.171825 
L 110.447902 256.837988 
L 111.261572 249.247769 
L 112.075243 243.438196 
L 112.888913 249.714028 
L 113.702584 248.62831 
L 114.516254 252.576666 
L 115.329925 253.165729 
L 116.957266 244.509255 
L 117.770936 256.943413 
L 118.584607 250.309486 
L 119.398278 238.103492 
L 120.211948 237.492725 
L 121.025619 246.162165 
L 121.839289 243.055348 
L 122.65296 240.432787 
L 123.46663 235.961273 
L 124.280301 242.527309 
L 125.093971 251.042462 
L 125.907642 241.768146 
L 126.721312 246.317225 
L 127.534983 245.548489 
L 128.348653 247.399297 
L 129.162324 252.203335 
L 129.975995 252.600615 
L 130.789665 242.576742 
L 131.603336 246.506816 
L 132.417006 243.7515 
L 133.230677 245.312103 
L 134.044347 243.967493 
L 134.858018 253.463724 
L 135.671688 255.425928 
L 136.485359 251.345019 
L 137.299029 249.521577 
L 138.1127 238.953863 
L 138.92637 246.07255 
L 139.740041 244.363463 
L 140.553712 240.442599 
L 141.367382 239.00689 
L 142.181053 231.189487 
L 142.994723 247.564844 
L 143.808394 250.015245 
L 144.622064 235.644474 
L 145.435735 226.418715 
L 146.249405 234.692867 
L 147.063076 239.811429 
L 147.876746 231.897233 
L 148.690417 229.112574 
L 149.504087 245.175409 
L 150.317758 233.190449 
L 151.131429 248.190891 
L 151.945099 237.277472 
L 152.75877 235.912976 
L 153.57244 228.354294 
L 154.386111 239.078811 
L 155.199781 244.06553 
L 156.013452 244.829492 
L 156.827122 233.115988 
L 157.640793 243.950866 
L 158.454463 239.970513 
L 159.268134 244.089633 
L 160.081805 246.257499 
L 160.895475 239.002184 
L 161.709146 236.283578 
L 162.522816 242.478571 
L 163.336487 247.144957 
L 164.150157 242.381755 
L 164.963828 245.638775 
L 165.777498 242.39072 
L 166.591169 237.953722 
L 167.404839 247.446954 
L 168.21851 245.214089 
L 169.03218 237.110592 
L 169.845851 239.693439 
L 170.659522 244.653576 
L 171.473192 229.753205 
L 172.286863 241.45258 
L 173.100533 241.023006 
L 173.914204 245.575168 
L 174.727874 237.683518 
L 175.541545 239.803682 
L 176.355215 237.410732 
L 177.168886 228.303969 
L 178.796227 233.477647 
L 179.609897 241.829221 
L 180.423568 227.91513 
L 181.237239 233.517642 
L 182.050909 237.564281 
L 182.86458 238.529953 
L 183.67825 228.840798 
L 184.491921 240.564034 
L 185.305591 232.517751 
L 186.119262 236.5492 
L 186.932932 233.313219 
L 187.746603 233.13672 
L 188.560273 233.490342 
L 189.373944 221.720386 
L 190.187614 233.66918 
L 191.001285 221.554915 
L 191.814956 227.206416 
L 192.628626 222.808537 
L 193.442297 224.203325 
L 194.255967 227.144931 
L 195.069638 222.987781 
L 195.883308 224.06797 
L 196.696979 244.645742 
L 197.510649 218.693244 
L 198.32432 213.631767 
L 199.13799 227.938208 
L 199.951661 233.609993 
L 200.765332 235.153033 
L 201.579002 232.818902 
L 202.392673 232.990251 
L 203.206343 223.449783 
L 204.020014 234.529147 
L 204.833684 232.71507 
L 205.647355 231.924851 
L 206.461025 233.150409 
L 207.274696 221.962929 
L 208.088366 227.960452 
L 208.902037 227.307773 
L 209.715707 234.306641 
L 210.529378 226.351956 
L 211.343049 225.66823 
L 212.156719 230.774057 
L 212.97039 226.22355 
L 213.78406 229.689713 
L 214.597731 235.394619 
L 215.411401 245.611678 
L 216.225072 238.169789 
L 217.038742 234.879797 
L 217.852413 239.85379 
L 218.666083 228.039744 
L 219.479754 226.826687 
L 221.107095 236.83898 
L 221.920766 228.367842 
L 222.734436 229.025443 
L 223.548107 230.796531 
L 224.361777 232.843736 
L 225.175448 228.638133 
L 225.989118 238.948013 
L 226.802789 236.78762 
L 227.616459 235.203282 
L 228.43013 221.026336 
L 229.2438 233.627983 
L 230.057471 239.318477 
L 230.871141 243.161465 
L 231.684812 243.199707 
L 232.498483 233.350073 
L 233.312153 237.109903 
L 234.125824 236.042709 
L 234.939494 241.886622 
L 235.753165 244.333896 
L 236.566835 238.22351 
L 237.380506 240.543353 
L 238.194176 239.462737 
L 239.007847 236.537932 
L 239.821517 238.14937 
L 240.635188 242.821084 
L 241.448859 253.289579 
L 242.262529 244.137353 
L 243.0762 236.887505 
L 243.88987 240.755922 
L 244.703541 235.551796 
L 245.517211 237.979366 
L 246.330882 238.497216 
L 247.144552 234.711854 
L 247.958223 244.159539 
L 248.771893 231.435386 
L 250.399234 242.550682 
L 251.212905 243.278338 
L 252.026576 245.579293 
L 252.840246 241.348293 
L 253.653917 238.723205 
L 254.467587 235.223276 
L 255.281258 239.550598 
L 256.094928 235.060736 
L 256.908599 247.353506 
L 257.722269 246.946006 
L 258.53594 239.120498 
L 259.34961 245.873302 
L 260.163281 249.243427 
L 260.976951 243.232037 
L 261.790622 246.472238 
L 262.604293 246.040451 
L 263.417963 248.579303 
L 264.231634 243.131239 
L 265.045304 253.096886 
L 265.858975 248.383069 
L 266.672645 247.509407 
L 267.486316 248.918076 
L 268.299986 241.557859 
L 269.113657 245.78912 
L 269.927327 245.536631 
L 270.740998 265.222426 
L 271.554668 262.425033 
L 272.368339 262.21641 
L 273.18201 256.931677 
L 273.99568 255.150752 
L 274.809351 247.25304 
L 275.623021 250.636831 
L 276.436692 237.659638 
L 277.250362 237.055083 
L 278.064033 245.837165 
L 278.877703 241.368375 
L 279.691374 248.451505 
L 280.505044 247.248161 
L 281.318715 237.997225 
L 282.132386 249.571915 
L 282.946056 246.519481 
L 283.759727 249.531798 
L 284.573397 246.898319 
L 285.387068 248.161197 
L 286.200738 253.198435 
L 287.014409 244.033179 
L 287.828079 251.158703 
L 288.64175 240.880337 
L 289.45542 247.012376 
L 290.269091 251.853665 
L 291.896432 254.04009 
L 292.710103 247.709892 
L 293.523773 239.373609 
L 294.337444 239.659168 
L 295.151114 247.514505 
L 295.964785 242.453794 
L 296.778455 242.751534 
L 297.592126 245.581917 
L 298.405796 246.891655 
L 299.219467 243.829192 
L 300.033137 241.958622 
L 300.846808 239.388957 
L 301.660478 238.602093 
L 302.474149 241.543219 
L 303.28782 241.584318 
L 304.10149 237.722167 
L 304.915161 231.724205 
L 305.728831 239.834035 
L 306.542502 236.086983 
L 308.169843 244.19476 
L 308.983513 250.591369 
L 309.797184 258.45075 
L 310.610854 242.487738 
L 311.424525 241.529634 
L 312.238195 246.153608 
L 313.051866 239.920808 
L 313.865537 241.013291 
L 314.679207 246.607783 
L 315.492878 241.170417 
L 316.306548 236.911791 
L 317.120219 239.153523 
L 317.933889 243.57944 
L 318.74756 240.689313 
L 319.56123 236.26389 
L 320.374901 234.645364 
L 321.188571 228.499737 
L 322.002242 229.170701 
L 322.815913 231.885586 
L 323.629583 232.168752 
L 324.443254 235.745176 
L 325.256924 235.587595 
L 326.070595 238.139577 
L 326.884265 244.789562 
L 327.697936 236.224868 
L 329.325277 248.094886 
L 330.138947 243.233674 
L 330.952618 240.410456 
L 331.766288 236.840634 
L 332.579959 240.098143 
L 333.39363 242.572195 
L 334.2073 241.187957 
L 335.020971 224.904108 
L 335.834641 239.825078 
L 336.648312 235.098192 
L 337.461982 243.84961 
L 338.275653 241.154134 
L 339.089323 231.448276 
L 339.902994 240.051446 
L 340.716664 237.597957 
L 341.530335 243.892974 
L 342.344005 253.024702 
L 343.157676 249.031759 
L 343.971347 248.416222 
L 344.785017 246.022838 
L 345.598688 245.950554 
L 346.412358 250.720469 
L 347.226029 249.592268 
L 348.039699 258.06129 
L 348.85337 244.137321 
L 349.66704 240.220897 
L 350.480711 248.609017 
L 351.294381 238.587522 
L 352.108052 253.868519 
L 352.921722 244.12525 
L 353.735393 249.265007 
L 354.549064 246.913017 
L 355.362734 250.69224 
L 356.176405 252.164994 
L 356.990075 254.907555 
L 357.803746 250.880596 
L 358.617416 243.451897 
L 359.431087 241.954158 
L 360.244757 249.729848 
L 361.058428 252.613229 
L 361.872098 257.949748 
L 362.685769 253.971853 
L 363.49944 252.544399 
L 364.31311 258.22886 
L 365.126781 257.503274 
L 365.940451 253.524 
L 366.754122 253.753804 
L 367.567792 243.684297 
L 368.381463 249.315525 
L 369.195133 243.848293 
L 370.008804 255.683095 
L 370.822474 252.404842 
L 371.636145 242.537825 
L 372.449815 246.652544 
L 373.263486 237.903302 
L 374.077157 236.601689 
L 374.890827 248.061064 
L 375.704498 251.595405 
L 376.518168 251.201793 
L 377.331839 246.345679 
L 378.145509 235.463237 
L 378.95918 246.701435 
L 379.77285 243.668782 
L 380.586521 249.191583 
L 381.400191 244.097144 
L 382.213862 245.293807 
L 383.027532 235.089033 
L 384.654874 242.35882 
L 385.468544 243.445434 
L 386.282215 253.72226 
L 387.095885 255.377839 
L 387.909556 249.453183 
L 388.723226 245.992027 
L 389.536897 239.29611 
L 390.350567 251.373583 
L 391.164238 249.121423 
L 391.977908 240.774646 
L 392.791579 243.022319 
L 393.605249 243.802207 
L 394.41892 254.795905 
L 395.232591 244.355189 
L 396.046261 242.91099 
L 396.859932 245.239984 
L 397.673602 242.860214 
L 398.487273 260.736519 
L 398.487273 260.736519 
" style="fill:none;stroke:#0000ff;stroke-linecap:square;stroke-width:1.5;"/>
   </g>
   <g id="line2d_28">
    <path clip-path="url(#p4b0f262546)" d="M 73.832727 278.518172 
L 74.646398 263.229474 
L 75.460068 256.194214 
L 76.273739 254.114052 
L 77.087409 251.544334 
L 77.90108 247.933677 
L 78.714751 248.017602 
L 79.528421 246.517241 
L 80.342092 241.729614 
L 81.155762 248.710966 
L 81.969433 242.59128 
L 82.783103 237.795561 
L 83.596774 237.479219 
L 84.410444 229.181889 
L 85.224115 229.203744 
L 86.037785 234.064237 
L 86.851456 242.191361 
L 87.665126 224.129131 
L 88.478797 231.88334 
L 89.292468 235.452014 
L 90.106138 235.976224 
L 90.919809 226.66286 
L 91.733479 241.481849 
L 92.54715 244.477177 
L 93.36082 236.205392 
L 94.174491 230.046805 
L 94.988161 226.167551 
L 95.801832 225.518914 
L 96.615502 238.708056 
L 97.429173 236.312057 
L 98.242843 221.435146 
L 99.056514 226.648641 
L 99.870185 213.144365 
L 100.683855 230.450066 
L 101.497526 234.000641 
L 102.311196 226.652804 
L 103.124867 234.303018 
L 103.938537 224.774773 
L 104.752208 211.289216 
L 105.565878 218.035889 
L 106.379549 232.275109 
L 107.193219 215.163153 
L 108.00689 222.361406 
L 108.82056 220.881064 
L 109.634231 210.904916 
L 110.447902 203.372078 
L 111.261572 220.341375 
L 112.075243 183.016675 
L 112.888913 213.488195 
L 113.702584 211.027614 
L 114.516254 204.34452 
L 115.329925 214.573505 
L 116.143595 204.251403 
L 116.957266 198.950004 
L 117.770936 210.056815 
L 118.584607 165.985313 
L 119.398278 186.20689 
L 120.211948 189.631768 
L 121.025619 202.7829 
L 121.839289 179.557917 
L 122.65296 186.34882 
L 123.46663 152.705051 
L 124.280301 174.942093 
L 125.093971 187.925636 
L 125.907642 184.927262 
L 126.721312 191.841657 
L 127.534983 171.976833 
L 128.348653 158.833601 
L 129.162324 191.639554 
L 129.975995 181.993676 
L 130.789665 157.98464 
L 131.603336 181.187278 
L 132.417006 187.624288 
L 133.230677 167.349215 
L 134.044347 165.818742 
L 134.858018 187.027186 
L 135.671688 181.01425 
L 136.485359 184.171188 
L 137.299029 155.174761 
L 138.1127 163.366584 
L 138.92637 176.881954 
L 139.740041 151.271478 
L 140.553712 159.400758 
L 141.367382 83.914301 
L 142.181053 79.624034 
L 142.994723 167.384244 
L 143.808394 112.683543 
L 144.622064 114.457007 
L 145.435735 156.99087 
L 146.249405 159.480033 
L 147.063076 150.955449 
L 147.876746 150.404062 
L 148.690417 148.091062 
L 149.504087 150.29837 
L 150.317758 177.977026 
L 151.131429 169.102574 
L 151.945099 152.362068 
L 152.75877 172.892962 
L 153.57244 154.811179 
L 154.386111 171.141555 
L 155.199781 132.078068 
L 156.013452 163.089592 
L 156.827122 118.406193 
L 157.640793 165.722657 
L 158.454463 154.848015 
L 159.268134 192.088525 
L 160.081805 149.857913 
L 160.895475 161.21299 
L 161.709146 152.967013 
L 162.522816 172.171313 
L 163.336487 148.565348 
L 164.150157 174.391105 
L 164.963828 135.022863 
L 165.777498 126.390713 
L 166.591169 138.537164 
L 167.404839 53.568 
L 168.21851 152.310039 
L 169.03218 157.719734 
L 169.845851 165.212535 
L 170.659522 168.359035 
L 171.473192 156.366147 
L 172.286863 168.764635 
L 173.100533 168.716704 
L 173.914204 180.363103 
L 174.727874 166.37858 
L 175.541545 169.271673 
L 176.355215 154.265052 
L 177.168886 153.251071 
L 177.982556 146.831048 
L 178.796227 154.660033 
L 179.609897 156.18056 
L 180.423568 130.16934 
L 181.237239 146.347745 
L 182.050909 164.863289 
L 182.86458 175.518315 
L 183.67825 147.800868 
L 184.491921 154.637642 
L 185.305591 75.161367 
L 186.119262 163.849401 
L 186.932932 163.021543 
L 187.746603 155.317836 
L 188.560273 153.66518 
L 189.373944 137.934435 
L 190.187614 153.94324 
L 191.814956 136.225629 
L 192.628626 150.768897 
L 193.442297 131.736054 
L 194.255967 156.613317 
L 195.069638 148.113209 
L 195.883308 116.984335 
L 196.696979 139.886885 
L 197.510649 102.122023 
L 198.32432 82.986937 
L 199.13799 108.926121 
L 199.951661 139.851853 
L 200.765332 104.747105 
L 201.579002 137.709767 
L 202.392673 119.069368 
L 203.206343 82.212615 
L 204.020014 133.197772 
L 204.833684 128.911941 
L 205.647355 145.178041 
L 206.461025 125.28102 
L 207.274696 56.619969 
L 208.088366 86.18916 
L 208.902037 130.510761 
L 209.715707 156.173856 
L 210.529378 112.838764 
L 211.343049 147.518274 
L 212.156719 145.825149 
L 212.97039 115.383605 
L 213.78406 150.674337 
L 214.597731 143.590109 
L 215.411401 149.183023 
L 216.225072 141.149684 
L 217.038742 136.485476 
L 217.852413 162.017864 
L 218.666083 135.9644 
L 219.479754 115.370326 
L 220.293424 151.774466 
L 221.107095 152.129106 
L 221.920766 97.368475 
L 222.734436 141.521497 
L 223.548107 156.223498 
L 224.361777 155.629005 
L 225.175448 143.468774 
L 225.989118 166.356398 
L 226.802789 158.442688 
L 227.616459 166.092142 
L 228.43013 111.665263 
L 229.2438 136.377159 
L 230.871141 160.733853 
L 231.684812 150.955276 
L 232.498483 108.187093 
L 234.125824 165.920465 
L 234.939494 161.742087 
L 235.753165 143.50025 
L 236.566835 138.303277 
L 237.380506 145.144863 
L 238.194176 146.133085 
L 239.007847 136.58177 
L 239.821517 142.273319 
L 240.635188 152.534066 
L 241.448859 132.66338 
L 242.262529 147.485729 
L 243.0762 153.944981 
L 243.88987 137.306972 
L 244.703541 151.152685 
L 245.517211 148.109773 
L 246.330882 110.533568 
L 247.144552 157.563812 
L 247.958223 166.351586 
L 248.771893 115.08991 
L 249.585564 136.200841 
L 250.399234 171.015437 
L 251.212905 172.139154 
L 252.026576 163.887446 
L 252.840246 178.06171 
L 253.653917 165.58365 
L 255.281258 149.575271 
L 256.094928 145.061479 
L 256.908599 165.380434 
L 257.722269 165.077618 
L 258.53594 147.906904 
L 259.34961 163.040016 
L 260.163281 174.699253 
L 260.976951 154.934839 
L 261.790622 144.985287 
L 262.604293 155.965193 
L 263.417963 177.592723 
L 264.231634 143.592548 
L 265.045304 170.861197 
L 265.858975 155.38744 
L 266.672645 162.194664 
L 267.486316 183.418305 
L 268.299986 153.029327 
L 269.113657 171.348439 
L 269.927327 143.091904 
L 270.740998 180.382171 
L 271.554668 192.292181 
L 272.368339 191.163321 
L 273.18201 171.832961 
L 273.99568 111.389848 
L 274.809351 147.822711 
L 275.623021 171.849717 
L 276.436692 131.214736 
L 277.250362 136.143084 
L 278.064033 156.417458 
L 278.877703 139.468625 
L 279.691374 163.751365 
L 280.505044 167.870027 
L 281.318715 161.662323 
L 282.132386 153.97652 
L 282.946056 164.879236 
L 283.759727 182.557794 
L 284.573397 168.294825 
L 285.387068 163.277002 
L 286.200738 162.969628 
L 287.014409 181.693534 
L 287.828079 185.41161 
L 288.64175 135.423631 
L 289.45542 144.119902 
L 290.269091 166.321112 
L 291.082761 165.864656 
L 291.896432 131.532671 
L 292.710103 170.44579 
L 293.523773 151.844352 
L 294.337444 120.264646 
L 295.151114 174.462105 
L 295.964785 160.659344 
L 296.778455 166.042377 
L 297.592126 176.168605 
L 298.405796 147.169195 
L 299.219467 138.720497 
L 300.033137 161.163202 
L 300.846808 128.219359 
L 301.660478 162.517031 
L 302.474149 178.704477 
L 303.28782 137.180083 
L 304.10149 170.284754 
L 304.915161 143.936515 
L 305.728831 159.081867 
L 306.542502 145.904732 
L 307.356172 155.160751 
L 308.169843 173.526667 
L 308.983513 161.319072 
L 309.797184 169.653375 
L 310.610854 167.254706 
L 311.424525 161.215541 
L 312.238195 178.733775 
L 313.051866 174.040159 
L 313.865537 151.422769 
L 314.679207 158.685185 
L 315.492878 164.570132 
L 316.306548 181.214487 
L 317.120219 168.878844 
L 317.933889 178.833455 
L 318.74756 154.326918 
L 319.56123 162.071926 
L 320.374901 130.530898 
L 321.188571 148.614944 
L 322.002242 135.01318 
L 322.815913 130.045954 
L 323.629583 172.001943 
L 324.443254 180.966998 
L 325.256924 166.915919 
L 326.070595 150.533193 
L 326.884265 154.924461 
L 327.697936 174.017895 
L 328.511606 168.19496 
L 329.325277 179.813539 
L 330.138947 162.495711 
L 330.952618 152.018409 
L 331.766288 172.986798 
L 332.579959 176.631585 
L 333.39363 177.844342 
L 334.2073 160.093928 
L 335.020971 155.354457 
L 335.834641 167.745825 
L 336.648312 163.621768 
L 337.461982 168.984696 
L 338.275653 175.805693 
L 339.089323 168.22548 
L 339.902994 137.405282 
L 340.716664 157.199151 
L 341.530335 141.917535 
L 342.344005 190.340074 
L 343.157676 188.453274 
L 343.971347 194.550889 
L 344.785017 184.341164 
L 345.598688 193.964951 
L 346.412358 184.539872 
L 347.226029 185.452152 
L 348.039699 187.685125 
L 348.85337 168.219515 
L 349.66704 134.260862 
L 350.480711 183.654294 
L 351.294381 186.785493 
L 352.108052 195.532818 
L 352.921722 175.032467 
L 353.735393 193.275516 
L 354.549064 178.931649 
L 355.362734 184.355676 
L 356.176405 187.040896 
L 356.990075 177.015438 
L 357.803746 179.95833 
L 358.617416 174.754286 
L 359.431087 191.282968 
L 360.244757 189.187088 
L 361.058428 196.357059 
L 361.872098 192.056613 
L 362.685769 183.165414 
L 363.49944 187.41319 
L 364.31311 196.161901 
L 365.126781 181.784605 
L 365.940451 179.777848 
L 366.754122 187.066627 
L 367.567792 166.740279 
L 368.381463 142.743613 
L 369.195133 187.352691 
L 370.008804 179.535069 
L 370.822474 180.313748 
L 371.636145 179.101335 
L 373.263486 171.040254 
L 374.077157 158.590775 
L 374.890827 154.988895 
L 375.704498 190.635614 
L 376.518168 166.356121 
L 377.331839 160.705106 
L 378.145509 150.666677 
L 378.95918 196.038626 
L 379.77285 114.202075 
L 380.586521 156.68266 
L 381.400191 161.149227 
L 382.213862 157.262166 
L 383.027532 124.692254 
L 383.841203 109.329477 
L 384.654874 128.762253 
L 385.468544 130.609592 
L 386.282215 165.765947 
L 387.095885 158.856901 
L 387.909556 164.417189 
L 388.723226 151.82628 
L 389.536897 110.944285 
L 390.350567 166.144291 
L 391.977908 122.072251 
L 392.791579 129.25949 
L 393.605249 134.242846 
L 394.41892 176.542992 
L 395.232591 148.52151 
L 396.046261 152.769065 
L 396.859932 148.70802 
L 397.673602 150.953783 
L 398.487273 159.056246 
L 398.487273 159.056246 
" style="fill:none;stroke:#ff0000;stroke-linecap:square;stroke-width:1.5;"/>
   </g>
   <g id="patch_3">
    <path d="M 57.6 307.584 
L 57.6 41.472 
" style="fill:none;stroke:#000000;stroke-linecap:square;stroke-linejoin:miter;stroke-width:0.8;"/>
   </g>
   <g id="patch_4">
    <path d="M 414.72 307.584 
L 414.72 41.472 
" style="fill:none;stroke:#000000;stroke-linecap:square;stroke-linejoin:miter;stroke-width:0.8;"/>
   </g>
   <g id="patch_5">
    <path d="M 57.6 307.584 
L 414.72 307.584 
" style="fill:none;stroke:#000000;stroke-linecap:square;stroke-linejoin:miter;stroke-width:0.8;"/>
   </g>
   <g id="patch_6">
    <path d="M 57.6 41.472 
L 414.72 41.472 
" style="fill:none;stroke:#000000;stroke-linecap:square;stroke-linejoin:miter;stroke-width:0.8;"/>
   </g>
   <g id="text_16">
    <!-- Population's average and best fitness -->
    <g transform="translate(123.529687 35.472)scale(0.12 -0.12)">
     <defs>
      <path d="M 19.671875 64.796875 
L 19.671875 37.40625 
L 32.078125 37.40625 
Q 38.96875 37.40625 42.71875 40.96875 
Q 46.484375 44.53125 46.484375 51.125 
Q 46.484375 57.671875 42.71875 61.234375 
Q 38.96875 64.796875 32.078125 64.796875 
z
M 9.8125 72.90625 
L 32.078125 72.90625 
Q 44.34375 72.90625 50.609375 67.359375 
Q 56.890625 61.8125 56.890625 51.125 
Q 56.890625 40.328125 50.609375 34.8125 
Q 44.34375 29.296875 32.078125 29.296875 
L 19.671875 29.296875 
L 19.671875 0 
L 9.8125 0 
z
" id="DejaVuSans-80"/>
      <path d="M 18.109375 8.203125 
L 18.109375 -20.796875 
L 9.078125 -20.796875 
L 9.078125 54.6875 
L 18.109375 54.6875 
L 18.109375 46.390625 
Q 20.953125 51.265625 25.265625 53.625 
Q 29.59375 56 35.59375 56 
Q 45.5625 56 51.78125 48.09375 
Q 58.015625 40.1875 58.015625 27.296875 
Q 58.015625 14.40625 51.78125 6.484375 
Q 45.5625 -1.421875 35.59375 -1.421875 
Q 29.59375 -1.421875 25.265625 0.953125 
Q 20.953125 3.328125 18.109375 8.203125 
z
M 48.6875 27.296875 
Q 48.6875 37.203125 44.609375 42.84375 
Q 40.53125 48.484375 33.40625 48.484375 
Q 26.265625 48.484375 22.1875 42.84375 
Q 18.109375 37.203125 18.109375 27.296875 
Q 18.109375 17.390625 22.1875 11.75 
Q 26.265625 6.109375 33.40625 6.109375 
Q 40.53125 6.109375 44.609375 11.75 
Q 48.6875 17.390625 48.6875 27.296875 
z
" id="DejaVuSans-112"/>
      <path d="M 8.5 21.578125 
L 8.5 54.6875 
L 17.484375 54.6875 
L 17.484375 21.921875 
Q 17.484375 14.15625 20.5 10.265625 
Q 23.53125 6.390625 29.59375 6.390625 
Q 36.859375 6.390625 41.078125 11.03125 
Q 45.3125 15.671875 45.3125 23.6875 
L 45.3125 54.6875 
L 54.296875 54.6875 
L 54.296875 0 
L 45.3125 0 
L 45.3125 8.40625 
Q 42.046875 3.421875 37.71875 1 
Q 33.40625 -1.421875 27.6875 -1.421875 
Q 18.265625 -1.421875 13.375 4.4375 
Q 8.5 10.296875 8.5 21.578125 
z
M 31.109375 56 
z
" id="DejaVuSans-117"/>
      <path d="M 9.421875 75.984375 
L 18.40625 75.984375 
L 18.40625 0 
L 9.421875 0 
z
" id="DejaVuSans-108"/>
      <path d="M 17.921875 72.90625 
L 17.921875 45.796875 
L 9.625 45.796875 
L 9.625 72.90625 
z
" id="DejaVuSans-39"/>
      <path id="DejaVuSans-32"/>
      <path d="M 2.984375 54.6875 
L 12.5 54.6875 
L 29.59375 8.796875 
L 46.6875 54.6875 
L 56.203125 54.6875 
L 35.6875 0 
L 23.484375 0 
z
" id="DejaVuSans-118"/>
      <path d="M 45.40625 27.984375 
Q 45.40625 37.75 41.375 43.109375 
Q 37.359375 48.484375 30.078125 48.484375 
Q 22.859375 48.484375 18.828125 43.109375 
Q 14.796875 37.75 14.796875 27.984375 
Q 14.796875 18.265625 18.828125 12.890625 
Q 22.859375 7.515625 30.078125 7.515625 
Q 37.359375 7.515625 41.375 12.890625 
Q 45.40625 18.265625 45.40625 27.984375 
z
M 54.390625 6.78125 
Q 54.390625 -7.171875 48.1875 -13.984375 
Q 42 -20.796875 29.203125 -20.796875 
Q 24.46875 -20.796875 20.265625 -20.09375 
Q 16.0625 -19.390625 12.109375 -17.921875 
L 12.109375 -9.1875 
Q 16.0625 -11.328125 19.921875 -12.34375 
Q 23.78125 -13.375 27.78125 -13.375 
Q 36.625 -13.375 41.015625 -8.765625 
Q 45.40625 -4.15625 45.40625 5.171875 
L 45.40625 9.625 
Q 42.625 4.78125 38.28125 2.390625 
Q 33.9375 0 27.875 0 
Q 17.828125 0 11.671875 7.65625 
Q 5.515625 15.328125 5.515625 27.984375 
Q 5.515625 40.671875 11.671875 48.328125 
Q 17.828125 56 27.875 56 
Q 33.9375 56 38.28125 53.609375 
Q 42.625 51.21875 45.40625 46.390625 
L 45.40625 54.6875 
L 54.390625 54.6875 
z
" id="DejaVuSans-103"/>
      <path d="M 45.40625 46.390625 
L 45.40625 75.984375 
L 54.390625 75.984375 
L 54.390625 0 
L 45.40625 0 
L 45.40625 8.203125 
Q 42.578125 3.328125 38.25 0.953125 
Q 33.9375 -1.421875 27.875 -1.421875 
Q 17.96875 -1.421875 11.734375 6.484375 
Q 5.515625 14.40625 5.515625 27.296875 
Q 5.515625 40.1875 11.734375 48.09375 
Q 17.96875 56 27.875 56 
Q 33.9375 56 38.25 53.625 
Q 42.578125 51.265625 45.40625 46.390625 
z
M 14.796875 27.296875 
Q 14.796875 17.390625 18.875 11.75 
Q 22.953125 6.109375 30.078125 6.109375 
Q 37.203125 6.109375 41.296875 11.75 
Q 45.40625 17.390625 45.40625 27.296875 
Q 45.40625 37.203125 41.296875 42.84375 
Q 37.203125 48.484375 30.078125 48.484375 
Q 22.953125 48.484375 18.875 42.84375 
Q 14.796875 37.203125 14.796875 27.296875 
z
" id="DejaVuSans-100"/>
      <path d="M 48.6875 27.296875 
Q 48.6875 37.203125 44.609375 42.84375 
Q 40.53125 48.484375 33.40625 48.484375 
Q 26.265625 48.484375 22.1875 42.84375 
Q 18.109375 37.203125 18.109375 27.296875 
Q 18.109375 17.390625 22.1875 11.75 
Q 26.265625 6.109375 33.40625 6.109375 
Q 40.53125 6.109375 44.609375 11.75 
Q 48.6875 17.390625 48.6875 27.296875 
z
M 18.109375 46.390625 
Q 20.953125 51.265625 25.265625 53.625 
Q 29.59375 56 35.59375 56 
Q 45.5625 56 51.78125 48.09375 
Q 58.015625 40.1875 58.015625 27.296875 
Q 58.015625 14.40625 51.78125 6.484375 
Q 45.5625 -1.421875 35.59375 -1.421875 
Q 29.59375 -1.421875 25.265625 0.953125 
Q 20.953125 3.328125 18.109375 8.203125 
L 18.109375 0 
L 9.078125 0 
L 9.078125 75.984375 
L 18.109375 75.984375 
z
" id="DejaVuSans-98"/>
      <path d="M 37.109375 75.984375 
L 37.109375 68.5 
L 28.515625 68.5 
Q 23.6875 68.5 21.796875 66.546875 
Q 19.921875 64.59375 19.921875 59.515625 
L 19.921875 54.6875 
L 34.71875 54.6875 
L 34.71875 47.703125 
L 19.921875 47.703125 
L 19.921875 0 
L 10.890625 0 
L 10.890625 47.703125 
L 2.296875 47.703125 
L 2.296875 54.6875 
L 10.890625 54.6875 
L 10.890625 58.5 
Q 10.890625 67.625 15.140625 71.796875 
Q 19.390625 75.984375 28.609375 75.984375 
z
" id="DejaVuSans-102"/>
     </defs>
     <use xlink:href="#DejaVuSans-80"/>
     <use x="56.677734" xlink:href="#DejaVuSans-111"/>
     <use x="117.859375" xlink:href="#DejaVuSans-112"/>
     <use x="181.335938" xlink:href="#DejaVuSans-117"/>
     <use x="244.714844" xlink:href="#DejaVuSans-108"/>
     <use x="272.498047" xlink:href="#DejaVuSans-97"/>
     <use x="333.777344" xlink:href="#DejaVuSans-116"/>
     <use x="372.986328" xlink:href="#DejaVuSans-105"/>
     <use x="400.769531" xlink:href="#DejaVuSans-111"/>
     <use x="461.951172" xlink:href="#DejaVuSans-110"/>
     <use x="525.330078" xlink:href="#DejaVuSans-39"/>
     <use x="552.820312" xlink:href="#DejaVuSans-115"/>
     <use x="604.919922" xlink:href="#DejaVuSans-32"/>
     <use x="636.707031" xlink:href="#DejaVuSans-97"/>
     <use x="697.986328" xlink:href="#DejaVuSans-118"/>
     <use x="757.166016" xlink:href="#DejaVuSans-101"/>
     <use x="818.689453" xlink:href="#DejaVuSans-114"/>
     <use x="859.802734" xlink:href="#DejaVuSans-97"/>
     <use x="921.082031" xlink:href="#DejaVuSans-103"/>
     <use x="984.558594" xlink:href="#DejaVuSans-101"/>
     <use x="1046.082031" xlink:href="#DejaVuSans-32"/>
     <use x="1077.869141" xlink:href="#DejaVuSans-97"/>
     <use x="1139.148438" xlink:href="#DejaVuSans-110"/>
     <use x="1202.527344" xlink:href="#DejaVuSans-100"/>
     <use x="1266.003906" xlink:href="#DejaVuSans-32"/>
     <use x="1297.791016" xlink:href="#DejaVuSans-98"/>
     <use x="1361.267578" xlink:href="#DejaVuSans-101"/>
     <use x="1422.791016" xlink:href="#DejaVuSans-115"/>
     <use x="1474.890625" xlink:href="#DejaVuSans-116"/>
     <use x="1514.099609" xlink:href="#DejaVuSans-32"/>
     <use x="1545.886719" xlink:href="#DejaVuSans-102"/>
     <use x="1581.091797" xlink:href="#DejaVuSans-105"/>
     <use x="1608.875" xlink:href="#DejaVuSans-116"/>
     <use x="1648.083984" xlink:href="#DejaVuSans-110"/>
     <use x="1711.462891" xlink:href="#DejaVuSans-101"/>
     <use x="1772.986328" xlink:href="#DejaVuSans-115"/>
     <use x="1825.085938" xlink:href="#DejaVuSans-115"/>
    </g>
   </g>
   <g id="legend_1">
    <g id="patch_7">
     <path d="M 334.779375 78.82825 
L 407.72 78.82825 
Q 409.72 78.82825 409.72 76.82825 
L 409.72 48.472 
Q 409.72 46.472 407.72 46.472 
L 334.779375 46.472 
Q 332.779375 46.472 332.779375 48.472 
L 332.779375 76.82825 
Q 332.779375 78.82825 334.779375 78.82825 
z
" style="fill:#ffffff;opacity:0.8;stroke:#cccccc;stroke-linejoin:miter;"/>
    </g>
    <g id="line2d_29">
     <path d="M 336.779375 54.570437 
L 356.779375 54.570437 
" style="fill:none;stroke:#0000ff;stroke-linecap:square;stroke-width:1.5;"/>
    </g>
    <g id="line2d_30"/>
    <g id="text_17">
     <!-- average -->
     <g transform="translate(364.779375 58.070437)scale(0.1 -0.1)">
      <use xlink:href="#DejaVuSans-97"/>
      <use x="61.279297" xlink:href="#DejaVuSans-118"/>
      <use x="120.458984" xlink:href="#DejaVuSans-101"/>
      <use x="181.982422" xlink:href="#DejaVuSans-114"/>
      <use x="223.095703" xlink:href="#DejaVuSans-97"/>
      <use x="284.375" xlink:href="#DejaVuSans-103"/>
      <use x="347.851562" xlink:href="#DejaVuSans-101"/>
     </g>
    </g>
    <g id="line2d_31">
     <path d="M 336.779375 69.248562 
L 356.779375 69.248562 
" style="fill:none;stroke:#ff0000;stroke-linecap:square;stroke-width:1.5;"/>
    </g>
    <g id="line2d_32"/>
    <g id="text_18">
     <!-- best -->
     <g transform="translate(364.779375 72.748562)scale(0.1 -0.1)">
      <use xlink:href="#DejaVuSans-98"/>
      <use x="63.476562" xlink:href="#DejaVuSans-101"/>
      <use x="125" xlink:href="#DejaVuSans-115"/>
      <use x="177.099609" xlink:href="#DejaVuSans-116"/>
     </g>
    </g>
   </g>
  </g>
 </g>
 <defs>
  <clipPath id="p4b0f262546">
   <rect height="266.112" width="357.12" x="57.6" y="41.472"/>
  </clipPath>
 </defs>
</svg>
