<?xml version="1.0" encoding="UTF-8" standalone="no"?>
<!DOCTYPE svg PUBLIC "-//W3C//DTD SVG 1.1//EN"
 "http://www.w3.org/Graphics/SVG/1.1/DTD/svg11.dtd">
<!-- Generated by graphviz version 2.40.1 (20161225.0304)
 -->
<!-- Title: %3 Pages: 1 -->
<svg width="2872pt" height="463pt"
 viewBox="0.00 0.00 2872.00 463.39" xmlns="http://www.w3.org/2000/svg" xmlns:xlink="http://www.w3.org/1999/xlink">
<g id="graph0" class="graph" transform="scale(1 1) rotate(0) translate(4 459.3869)">
<title>%3</title>
<polygon fill="#ffffff" stroke="transparent" points="-4,4 -4,-459.3869 2868,-459.3869 2868,4 -4,4"/>
<!-- A_agent -->
<g id="node1" class="node">
<title>A_agent</title>
<polygon fill="#d3d3d3" stroke="#000000" points="2197.5,-385.6381 2150.5,-385.6381 2150.5,-367.6381 2197.5,-367.6381 2197.5,-385.6381"/>
<text text-anchor="middle" x="2174" y="-374.4381" font-family="Times,serif" font-size="9.00" fill="#000000">A_agent</text>
</g>
<!-- no_move -->
<g id="node25" class="node">
<title>no_move</title>
<ellipse fill="#add8e6" stroke="#000000" cx="1944" cy="-279.8269" rx="35.2113" ry="35.2113"/>
<text text-anchor="middle" x="1944" y="-277.6269" font-family="Times,serif" font-size="9.00" fill="#000000">no_move</text>
</g>
<!-- A_agent&#45;&gt;no_move -->
<g id="edge97" class="edge">
<title>A_agent&#45;&gt;no_move</title>
<path fill="none" stroke="#ff0000" stroke-width=".1012" d="M2163.9617,-367.4128C2157.9489,-362.2753 2149.9489,-356.0881 2142,-351.8894 2096.1414,-327.6662 2079.66,-333.8332 2031,-315.8894 2016.2922,-310.4658 2000.3984,-304.0465 1986.2698,-298.138"/>
<polygon fill="#ff0000" stroke="#ff0000" stroke-width=".1012" points="1987.3809,-294.8082 1976.8067,-294.1477 1984.6611,-301.2582 1987.3809,-294.8082"/>
</g>
<!-- right -->
<g id="node26" class="node">
<title>right</title>
<ellipse fill="#add8e6" stroke="#000000" cx="2281" cy="-279.8269" rx="23.1702" ry="23.1702"/>
<text text-anchor="middle" x="2281" y="-277.6269" font-family="Times,serif" font-size="9.00" fill="#000000">right</text>
</g>
<!-- A_agent&#45;&gt;right -->
<g id="edge56" class="edge">
<title>A_agent&#45;&gt;right</title>
<path fill="none" stroke="#ff0000" stroke-width=".1601" d="M2184.2596,-367.3555C2200.6362,-352.5383 2233.1582,-323.1131 2255.9563,-302.4859"/>
<polygon fill="#ff0000" stroke="#ff0000" stroke-width=".1601" points="2258.5052,-304.8997 2263.5723,-295.5951 2253.8088,-299.709 2258.5052,-304.8997"/>
</g>
<!-- cw -->
<g id="node32" class="node">
<title>cw</title>
<ellipse fill="#add8e6" stroke="#000000" cx="1359" cy="-101.0538" rx="19.1842" ry="19.1842"/>
<text text-anchor="middle" x="1359" y="-98.8538" font-family="Times,serif" font-size="9.00" fill="#000000">cw</text>
</g>
<!-- A_agent&#45;&gt;cw -->
<g id="edge71" class="edge">
<title>A_agent&#45;&gt;cw</title>
<path fill="none" stroke="#ff0000" stroke-width=".586" d="M2165.1307,-367.3782C2142.8139,-344.419 2081.8982,-283.8346 2023,-243.7645 1954.0583,-196.8615 1935.8086,-182.4216 1856,-158.267 1767.2394,-131.4031 1480.736,-109.5466 1388.1496,-103.036"/>
<polygon fill="#ff0000" stroke="#ff0000" stroke-width=".586" points="1388.3074,-99.5386 1378.0884,-102.3355 1387.8211,-106.5217 1388.3074,-99.5386"/>
</g>
<!-- A_lm -->
<g id="node2" class="node">
<title>A_lm</title>
<polygon fill="#d3d3d3" stroke="#000000" points="1892.5,-385.6381 1855.5,-385.6381 1855.5,-367.6381 1892.5,-367.6381 1892.5,-385.6381"/>
<text text-anchor="middle" x="1874" y="-374.4381" font-family="Times,serif" font-size="9.00" fill="#000000">A_lm</text>
</g>
<!-- A_lm&#45;&gt;right -->
<g id="edge4" class="edge">
<title>A_lm&#45;&gt;right</title>
<path fill="none" stroke="#00ff00" stroke-width=".1442" stroke-dasharray="1,5" d="M1881.9318,-367.4973C1887.1066,-362.1217 1894.3106,-355.6596 1902,-351.8894 1963.2227,-321.8712 2166.8046,-294.0178 2247.5684,-283.8744"/>
<polygon fill="#00ff00" stroke="#00ff00" stroke-width=".1442" points="2248.1886,-287.3244 2257.68,-282.6167 2247.3245,-280.3779 2248.1886,-287.3244"/>
</g>
<!-- left -->
<g id="node27" class="node">
<title>left</title>
<ellipse fill="#add8e6" stroke="#000000" cx="1473" cy="-279.8269" rx="19.6" ry="19.6"/>
<text text-anchor="middle" x="1473" y="-277.6269" font-family="Times,serif" font-size="9.00" fill="#000000">left</text>
</g>
<!-- A_lm&#45;&gt;left -->
<g id="edge89" class="edge">
<title>A_lm&#45;&gt;left</title>
<path fill="none" stroke="#00ff00" stroke-width=".1156" d="M1855.4715,-368.8551C1842.3774,-363.5619 1824.3223,-356.6771 1808,-351.8894 1697.2951,-319.4173 1562.0722,-294.7889 1503.0074,-284.7549"/>
<polygon fill="#00ff00" stroke="#00ff00" stroke-width=".1156" points="1503.3302,-281.2601 1492.8881,-283.0526 1502.1689,-288.1631 1503.3302,-281.2601"/>
</g>
<!-- forward -->
<g id="node28" class="node">
<title>forward</title>
<ellipse fill="#add8e6" stroke="#000000" cx="1219" cy="-279.8269" rx="31.6406" ry="31.6406"/>
<text text-anchor="middle" x="1219" y="-277.6269" font-family="Times,serif" font-size="9.00" fill="#000000">forward</text>
</g>
<!-- A_lm&#45;&gt;forward -->
<g id="edge41" class="edge">
<title>A_lm&#45;&gt;forward</title>
<path fill="none" stroke="#ff0000" stroke-width=".4907" stroke-dasharray="1,5" d="M1855.3431,-368.1509C1842.3419,-362.6101 1824.4481,-355.7175 1808,-351.8894 1649.6647,-315.0388 1605.2215,-336.7626 1444,-315.8894 1379.7569,-307.5719 1305.6441,-295.1405 1260.5709,-287.2609"/>
<polygon fill="#ff0000" stroke="#ff0000" stroke-width=".4907" points="1261.0399,-283.7898 1250.585,-285.5065 1259.8285,-290.6842 1261.0399,-283.7898"/>
</g>
<!-- no_turn -->
<g id="node30" class="node">
<title>no_turn</title>
<ellipse fill="#add8e6" stroke="#000000" cx="1746" cy="-279.8269" rx="31.2258" ry="31.2258"/>
<text text-anchor="middle" x="1746" y="-277.6269" font-family="Times,serif" font-size="9.00" fill="#000000">no_turn</text>
</g>
<!-- A_lm&#45;&gt;no_turn -->
<g id="edge3" class="edge">
<title>A_lm&#45;&gt;no_turn</title>
<path fill="none" stroke="#ff0000" stroke-width=".1508" d="M1861.8182,-367.4138C1855.6086,-362.7343 1847.9248,-356.9783 1841,-351.8894 1818.9345,-335.674 1812.8024,-332.4569 1791,-315.8894 1786.8225,-312.715 1782.4696,-309.3289 1778.1881,-305.951"/>
<polygon fill="#ff0000" stroke="#ff0000" stroke-width=".1508" points="1780.1124,-303.0094 1770.1076,-299.5228 1775.7544,-308.4874 1780.1124,-303.0094"/>
</g>
<!-- A_lm&#45;&gt;cw -->
<g id="edge18" class="edge">
<title>A_lm&#45;&gt;cw</title>
<path fill="none" stroke="#00ff00" stroke-width=".5355" d="M1870.4167,-367.3812C1860.6499,-343.3515 1831.2299,-278.4485 1786,-243.7645 1658.8966,-146.2969 1461.6743,-113.4267 1388.0331,-104.1901"/>
<polygon fill="#00ff00" stroke="#00ff00" stroke-width=".5355" points="1388.4342,-100.7132 1378.0878,-102.9939 1387.5983,-107.6631 1388.4342,-100.7132"/>
</g>
<!-- A_wall -->
<g id="node3" class="node">
<title>A_wall</title>
<polygon fill="#d3d3d3" stroke="#000000" points="1011.5,-385.6381 968.5,-385.6381 968.5,-367.6381 1011.5,-367.6381 1011.5,-385.6381"/>
<text text-anchor="middle" x="990" y="-374.4381" font-family="Times,serif" font-size="9.00" fill="#000000">A_wall</text>
</g>
<!-- A_wall&#45;&gt;left -->
<g id="edge50" class="edge">
<title>A_wall&#45;&gt;left</title>
<path fill="none" stroke="#ff0000" stroke-width=".336" stroke-dasharray="1,5" d="M998.6357,-367.619C1004.4274,-362.1476 1012.5237,-355.5378 1021,-351.8894 1126.9408,-306.2904 1164.1546,-334.381 1278,-315.8894 1336.8634,-306.3284 1405.3444,-293.1958 1443.4795,-285.702"/>
<polygon fill="#ff0000" stroke="#ff0000" stroke-width=".336" points="1444.2641,-289.1148 1453.3977,-283.7455 1442.9093,-282.2471 1444.2641,-289.1148"/>
</g>
<!-- A_wall&#45;&gt;forward -->
<g id="edge28" class="edge">
<title>A_wall&#45;&gt;forward</title>
<path fill="none" stroke="#00ff00" stroke-width=".8348" stroke-dasharray="1,5" d="M999.3954,-367.6147C1005.2293,-362.4175 1013.0999,-356.1012 1021,-351.8894 1067.8858,-326.8928 1085.193,-334.3927 1135,-315.8894 1149.9886,-310.3211 1166.1899,-303.5501 1180.3279,-297.3856"/>
<polygon fill="#00ff00" stroke="#00ff00" stroke-width=".8348" points="1182.0053,-300.4712 1189.7458,-293.2369 1179.1834,-294.0652 1182.0053,-300.4712"/>
</g>
<!-- backward -->
<g id="node29" class="node">
<title>backward</title>
<ellipse fill="#add8e6" stroke="#000000" cx="541" cy="-279.8269" rx="36.125" ry="36.125"/>
<text text-anchor="middle" x="541" y="-277.6269" font-family="Times,serif" font-size="9.00" fill="#000000">backward</text>
</g>
<!-- A_wall&#45;&gt;backward -->
<g id="edge38" class="edge">
<title>A_wall&#45;&gt;backward</title>
<path fill="none" stroke="#ff0000" stroke-width=".4701" stroke-dasharray="1,5" d="M981.4685,-367.3153C975.9116,-361.8713 968.1915,-355.4011 960,-351.8894 837.3849,-299.3245 792.6156,-343.0388 662,-315.8894 636.1076,-310.5075 607.746,-302.1888 584.9932,-294.8967"/>
<polygon fill="#ff0000" stroke="#ff0000" stroke-width=".4701" points="585.879,-291.5045 575.2868,-291.7398 583.7139,-298.1612 585.879,-291.5045"/>
</g>
<!-- A_wall&#45;&gt;cw -->
<g id="edge68" class="edge">
<title>A_wall&#45;&gt;cw</title>
<path fill="none" stroke="#ff0000" stroke-width=".1562" d="M1000.1688,-367.5285C1006.0145,-362.5514 1013.6392,-356.4843 1021,-351.8894 1052.7053,-332.0977 1070.0154,-341.75 1097,-315.8894 1123.1592,-290.8198 1107.2216,-267.0271 1135,-243.7645 1175.4108,-209.9231 1205.8988,-239.4783 1248,-207.7645 1269.1186,-191.8564 1262.728,-177.3771 1281,-158.267 1296.766,-141.7779 1317.763,-126.6783 1334.0001,-116.1366"/>
<polygon fill="#ff0000" stroke="#ff0000" stroke-width=".1562" points="1335.8953,-119.0792 1342.4675,-110.7691 1332.1476,-113.1669 1335.8953,-119.0792"/>
</g>
<!-- B_agent -->
<g id="node4" class="node">
<title>B_agent</title>
<polygon fill="#d3d3d3" stroke="#000000" points="1283,-385.6381 1237,-385.6381 1237,-367.6381 1283,-367.6381 1283,-385.6381"/>
<text text-anchor="middle" x="1260" y="-374.4381" font-family="Times,serif" font-size="9.00" fill="#000000">B_agent</text>
</g>
<!-- B_agent&#45;&gt;left -->
<g id="edge91" class="edge">
<title>B_agent&#45;&gt;left</title>
<path fill="none" stroke="#ff0000" stroke-width=".5586" d="M1270.1442,-367.6057C1276.1923,-362.5325 1284.1923,-356.3453 1292,-351.8894 1342.8824,-322.8504 1407.7732,-300.1169 1444.4209,-288.4505"/>
<polygon fill="#ff0000" stroke="#ff0000" stroke-width=".5586" points="1445.4774,-291.7873 1453.9734,-285.4574 1443.3844,-285.1076 1445.4774,-291.7873"/>
</g>
<!-- B_agent&#45;&gt;cw -->
<g id="edge39" class="edge">
<title>B_agent&#45;&gt;cw</title>
<path fill="none" stroke="#ff0000" stroke-width=".4334" stroke-dasharray="1,5" d="M1265.1106,-367.578C1277.3404,-344.5616 1305.314,-282.8968 1278,-243.7645 1251.4419,-205.7151 1206.5581,-245.8139 1180,-207.7645 1167.4088,-189.7253 1167.0268,-176.0334 1180,-158.267 1197.8941,-133.7617 1284.2881,-114.6618 1330.1901,-106.0498"/>
<polygon fill="#ff0000" stroke="#ff0000" stroke-width=".4334" points="1330.9218,-109.4741 1340.1281,-104.2306 1329.6613,-102.5885 1330.9218,-109.4741"/>
</g>
<!-- B_lm -->
<g id="node5" class="node">
<title>B_lm</title>
<polygon fill="#d3d3d3" stroke="#000000" points="950.5,-385.6381 913.5,-385.6381 913.5,-367.6381 950.5,-367.6381 950.5,-385.6381"/>
<text text-anchor="middle" x="932" y="-374.4381" font-family="Times,serif" font-size="9.00" fill="#000000">B_lm</text>
</g>
<!-- B_lm&#45;&gt;left -->
<g id="edge62" class="edge">
<title>B_lm&#45;&gt;left</title>
<path fill="none" stroke="#00ff00" stroke-width=".1439" d="M939.8359,-367.2921C944.9746,-361.8392 952.1744,-355.368 960,-351.8894 1089.9736,-294.1142 1137.3146,-336.8352 1278,-315.8894 1336.9846,-307.1075 1405.4228,-293.6997 1443.5176,-285.9464"/>
<polygon fill="#00ff00" stroke="#00ff00" stroke-width=".1439" points="1444.3298,-289.3528 1453.4245,-283.9181 1442.9257,-282.4951 1444.3298,-289.3528"/>
</g>
<!-- B_lm&#45;&gt;cw -->
<g id="edge84" class="edge">
<title>B_lm&#45;&gt;cw</title>
<path fill="none" stroke="#ff0000" stroke-width=".2145" d="M941.4216,-367.6171C983.4673,-327.3885 1152.4942,-165.9915 1166,-158.267 1219.4941,-127.672 1290.8628,-112.0801 1330.102,-105.3388"/>
<polygon fill="#ff0000" stroke="#ff0000" stroke-width=".2145" points="1330.7468,-108.7798 1340.046,-103.703 1329.6105,-101.8726 1330.7468,-108.7798"/>
</g>
<!-- 1845 -->
<g id="node39" class="node">
<title>1845</title>
<ellipse fill="#ffffff" stroke="#000000" cx="1030" cy="-183.0158" rx="25" ry="25"/>
<text text-anchor="middle" x="1030" y="-180.8158" font-family="Times,serif" font-size="9.00" fill="#000000">1845</text>
</g>
<!-- B_lm&#45;&gt;1845 -->
<g id="edge112" class="edge">
<title>B_lm&#45;&gt;1845</title>
<path fill="none" stroke="#00ff00" stroke-width=".559" d="M936.5953,-367.559C950.3029,-340.4764 991.3674,-259.3437 1014.2182,-214.1965"/>
<polygon fill="#00ff00" stroke="#00ff00" stroke-width=".559" points="1017.4083,-215.6441 1018.8014,-205.1412 1011.1627,-212.4829 1017.4083,-215.6441"/>
</g>
<!-- 1477 -->
<g id="node40" class="node">
<title>1477</title>
<ellipse fill="#ffffff" stroke="#000000" cx="696" cy="-279.8269" rx="25" ry="25"/>
<text text-anchor="middle" x="696" y="-277.6269" font-family="Times,serif" font-size="9.00" fill="#000000">1477</text>
</g>
<!-- B_lm&#45;&gt;1477 -->
<g id="edge114" class="edge">
<title>B_lm&#45;&gt;1477</title>
<path fill="none" stroke="#00ff00" stroke-width=".3064" stroke-dasharray="1,5" d="M923.378,-367.4053C918.1706,-362.2652 911.1706,-356.0781 904,-351.8894 847.2965,-318.7666 773.0027,-297.6425 730.2794,-287.3325"/>
<polygon fill="#00ff00" stroke="#00ff00" stroke-width=".3064" points="730.9189,-283.8874 720.3829,-285.0021 729.3144,-290.7011 730.9189,-283.8874"/>
</g>
<!-- B_wall -->
<g id="node6" class="node">
<title>B_wall</title>
<polygon fill="#d3d3d3" stroke="#000000" points="895,-385.6381 853,-385.6381 853,-367.6381 895,-367.6381 895,-385.6381"/>
<text text-anchor="middle" x="874" y="-374.4381" font-family="Times,serif" font-size="9.00" fill="#000000">B_wall</text>
</g>
<!-- B_wall&#45;&gt;left -->
<g id="edge82" class="edge">
<title>B_wall&#45;&gt;left</title>
<path fill="none" stroke="#ff0000" stroke-width=".5648" stroke-dasharray="1,5" d="M882.5837,-367.4944C888.3546,-361.9733 896.4473,-355.3549 905,-351.8894 1059.3581,-289.3447 1113.0708,-339.0547 1278,-315.8894 1337.0551,-307.5947 1405.4684,-294.0148 1443.5397,-286.0993"/>
<polygon fill="#ff0000" stroke="#ff0000" stroke-width=".5648" points="1444.3699,-289.5014 1453.4401,-284.026 1442.935,-282.6501 1444.3699,-289.5014"/>
</g>
<!-- B_wall&#45;&gt;forward -->
<g id="edge74" class="edge">
<title>B_wall&#45;&gt;forward</title>
<path fill="none" stroke="#ff0000" stroke-width=".6494" stroke-dasharray="1,5" d="M883.0113,-367.6247C888.8271,-362.2971 896.8132,-355.8407 905,-351.8894 995.9476,-307.9946 1114.801,-290.1706 1176.9562,-283.4772"/>
<polygon fill="#ff0000" stroke="#ff0000" stroke-width=".6494" points="1177.5699,-286.9326 1187.1578,-282.4244 1176.8513,-279.9695 1177.5699,-286.9326"/>
</g>
<!-- B_wall&#45;&gt;backward -->
<g id="edge102" class="edge">
<title>B_wall&#45;&gt;backward</title>
<path fill="none" stroke="#ff0000" stroke-width=".7112" d="M852.9155,-370.6762C814.7813,-359.8754 731.8236,-336.2978 662,-315.8894 636.6162,-308.4701 608.2838,-300.0344 585.4197,-293.1881"/>
<polygon fill="#ff0000" stroke="#ff0000" stroke-width=".7112" points="586.2397,-289.7801 575.6558,-290.2616 584.2299,-296.4854 586.2397,-289.7801"/>
</g>
<!-- ccw -->
<g id="node31" class="node">
<title>ccw</title>
<ellipse fill="#add8e6" stroke="#000000" cx="825" cy="-21.9203" rx="21.8409" ry="21.8409"/>
<text text-anchor="middle" x="825" y="-19.7203" font-family="Times,serif" font-size="9.00" fill="#000000">ccw</text>
</g>
<!-- B_wall&#45;&gt;ccw -->
<g id="edge47" class="edge">
<title>B_wall&#45;&gt;ccw</title>
<path fill="none" stroke="#ff0000" stroke-width=".1211" stroke-dasharray="1,5" d="M872.5853,-367.4939C868.6772,-342.1462 857.462,-268.8277 849,-207.7645 841.5215,-153.7984 833.5568,-90.9078 828.9424,-53.8635"/>
<polygon fill="#ff0000" stroke="#ff0000" stroke-width=".1211" points="832.3838,-53.1745 827.6776,-43.6824 825.4372,-54.0376 832.3838,-53.1745"/>
</g>
<!-- C_agent -->
<g id="node7" class="node">
<title>C_agent</title>
<polygon fill="#d3d3d3" stroke="#000000" points="1407,-385.6381 1361,-385.6381 1361,-367.6381 1407,-367.6381 1407,-385.6381"/>
<text text-anchor="middle" x="1384" y="-374.4381" font-family="Times,serif" font-size="9.00" fill="#000000">C_agent</text>
</g>
<!-- C_agent&#45;&gt;no_move -->
<g id="edge63" class="edge">
<title>C_agent&#45;&gt;no_move</title>
<path fill="none" stroke="#ff0000" stroke-width=".8305" stroke-dasharray="1,5" d="M1407.0066,-370.4721C1428.7578,-364.856 1462.3837,-356.7232 1492,-351.8894 1652.8806,-325.6312 1698.8836,-355.5284 1857,-315.8894 1872.3342,-312.0452 1888.4957,-305.9606 1902.6721,-299.8763"/>
<polygon fill="#ff0000" stroke="#ff0000" stroke-width=".8305" points="1904.4047,-302.9371 1912.1348,-295.6917 1901.5736,-296.5352 1904.4047,-302.9371"/>
</g>
<!-- C_agent&#45;&gt;left -->
<g id="edge86" class="edge">
<title>C_agent&#45;&gt;left</title>
<path fill="none" stroke="#00ff00" stroke-width=".3598" stroke-dasharray="1,5" d="M1392.5337,-367.3555C1406.2679,-352.4159 1433.6542,-322.626 1452.6375,-301.9766"/>
<polygon fill="#00ff00" stroke="#00ff00" stroke-width=".3598" points="1455.2644,-304.2907 1459.4556,-294.5601 1450.1111,-299.5532 1455.2644,-304.2907"/>
</g>
<!-- C_agent&#45;&gt;forward -->
<g id="edge33" class="edge">
<title>C_agent&#45;&gt;forward</title>
<path fill="none" stroke="#ff0000" stroke-width=".1238" stroke-dasharray="1,5" d="M1373.0702,-367.4756C1367.0327,-362.5983 1359.2968,-356.6432 1352,-351.8894 1321.0973,-331.7564 1284.0732,-312.0253 1256.9445,-298.3144"/>
<polygon fill="#ff0000" stroke="#ff0000" stroke-width=".1238" points="1258.296,-295.0768 1247.7878,-293.725 1255.1594,-301.3348 1258.296,-295.0768"/>
</g>
<!-- C_agent&#45;&gt;backward -->
<g id="edge32" class="edge">
<title>C_agent&#45;&gt;backward</title>
<path fill="none" stroke="#ff0000" stroke-width=".1993" stroke-dasharray="1,5" d="M1375.4012,-367.6121C1369.4268,-361.9885 1360.9553,-355.2114 1352,-351.8894 1208.0436,-298.4884 813.3053,-342.0007 662,-315.8894 635.8453,-311.3758 607.3632,-303.0644 584.6063,-295.5575"/>
<polygon fill="#ff0000" stroke="#ff0000" stroke-width=".1993" points="585.4997,-292.1654 574.9057,-292.2926 583.2668,-298.7997 585.4997,-292.1654"/>
</g>
<!-- C_agent&#45;&gt;ccw -->
<g id="edge16" class="edge">
<title>C_agent&#45;&gt;ccw</title>
<path fill="none" stroke="#ff0000" stroke-width=".3378" stroke-dasharray="1,5" d="M1407.0336,-370.6314C1428.8038,-365.1279 1462.4426,-357.0713 1492,-351.8894 1556.8325,-340.5231 1742.3773,-365.1794 1786,-315.8894 1807.2446,-291.8847 1803.8475,-270.392 1786,-243.7645 1679.2585,-84.5124 1572.9322,-126.5761 1387,-79.8406 1285.2476,-54.2644 961.0952,-30.9868 857.3015,-24.0267"/>
<polygon fill="#ff0000" stroke="#ff0000" stroke-width=".3378" points="857.3398,-20.5217 847.1295,-23.3497 856.8749,-27.5062 857.3398,-20.5217"/>
</g>
<!-- C_agent&#45;&gt;cw -->
<g id="edge9" class="edge">
<title>C_agent&#45;&gt;cw</title>
<path fill="none" stroke="#00ff00" stroke-width=".2168" stroke-dasharray="1,5" d="M1383.1682,-367.4689C1379.8193,-330.553 1367.237,-191.8538 1361.6738,-130.5278"/>
<polygon fill="#00ff00" stroke="#00ff00" stroke-width=".2168" points="1365.1403,-129.9999 1360.7511,-120.357 1358.169,-130.6324 1365.1403,-129.9999"/>
</g>
<!-- C_lm -->
<g id="node8" class="node">
<title>C_lm</title>
<polygon fill="#d3d3d3" stroke="#000000" points="1798.5,-385.6381 1761.5,-385.6381 1761.5,-367.6381 1798.5,-367.6381 1798.5,-385.6381"/>
<text text-anchor="middle" x="1780" y="-374.4381" font-family="Times,serif" font-size="9.00" fill="#000000">C_lm</text>
</g>
<!-- C_lm&#45;&gt;right -->
<g id="edge70" class="edge">
<title>C_lm&#45;&gt;right</title>
<path fill="none" stroke="#ff0000" stroke-width=".1538" d="M1798.7523,-368.6232C1812.0187,-363.2236 1830.3395,-356.307 1847,-351.8894 1993.7151,-312.9873 2174.1776,-291.0576 2247.5818,-283.1923"/>
<polygon fill="#ff0000" stroke="#ff0000" stroke-width=".1538" points="2248.0407,-286.6634 2257.6183,-282.1336 2247.3063,-279.702 2248.0407,-286.6634"/>
</g>
<!-- C_lm&#45;&gt;left -->
<g id="edge77" class="edge">
<title>C_lm&#45;&gt;left</title>
<path fill="none" stroke="#ff0000" stroke-width=".2794" stroke-dasharray="1,5" d="M1771.5004,-367.1856C1766.3339,-361.9724 1759.3339,-355.7852 1752,-351.8894 1668.3008,-307.4277 1555.6881,-289.3073 1502.7934,-282.8908"/>
<polygon fill="#ff0000" stroke="#ff0000" stroke-width=".2794" points="1503.0767,-279.4003 1492.7404,-281.7265 1502.2713,-286.3538 1503.0767,-279.4003"/>
</g>
<!-- C_lm&#45;&gt;forward -->
<g id="edge51" class="edge">
<title>C_lm&#45;&gt;forward</title>
<path fill="none" stroke="#ff0000" stroke-width=".1163" stroke-dasharray="1,5" d="M1772.1597,-367.302C1767.0193,-361.853 1759.8193,-355.3822 1752,-351.8894 1626.1628,-295.6793 1580.5173,-334.7993 1444,-315.8894 1379.8334,-307.0013 1305.6992,-294.7293 1260.6007,-287.0386"/>
<polygon fill="#ff0000" stroke="#ff0000" stroke-width=".1163" points="1261.056,-283.5657 1250.6089,-285.3286 1259.8751,-290.4654 1261.056,-283.5657"/>
</g>
<!-- C_lm&#45;&gt;no_turn -->
<g id="edge10" class="edge">
<title>C_lm&#45;&gt;no_turn</title>
<path fill="none" stroke="#ff0000" stroke-width=".1693" stroke-dasharray="1,5" d="M1776.7399,-367.3555C1772.8132,-356.1746 1765.9653,-336.676 1759.7281,-318.9163"/>
<polygon fill="#ff0000" stroke="#ff0000" stroke-width=".1693" points="1762.9642,-317.5678 1756.3483,-309.2925 1756.3596,-319.8873 1762.9642,-317.5678"/>
</g>
<!-- C_wall -->
<g id="node9" class="node">
<title>C_wall</title>
<polygon fill="#d3d3d3" stroke="#000000" points="1343,-385.6381 1301,-385.6381 1301,-367.6381 1343,-367.6381 1343,-385.6381"/>
<text text-anchor="middle" x="1322" y="-374.4381" font-family="Times,serif" font-size="9.00" fill="#000000">C_wall</text>
</g>
<!-- C_wall&#45;&gt;left -->
<g id="edge12" class="edge">
<title>C_wall&#45;&gt;left</title>
<path fill="none" stroke="#ff0000" stroke-width=".351" stroke-dasharray="1,5" d="M1332.2427,-367.5283C1337.9018,-362.6665 1345.1543,-356.7094 1352,-351.8894 1383.2,-329.922 1421.3276,-307.9572 1446.3415,-294.1556"/>
<polygon fill="#ff0000" stroke="#ff0000" stroke-width=".351" points="1448.1528,-297.1542 1455.2444,-289.2827 1444.7919,-291.0138 1448.1528,-297.1542"/>
</g>
<!-- C_wall&#45;&gt;backward -->
<g id="edge29" class="edge">
<title>C_wall&#45;&gt;backward</title>
<path fill="none" stroke="#00ff00" stroke-width=".3434" stroke-dasharray="1,5" d="M1314.0402,-367.6305C1308.4822,-362.0147 1300.5497,-355.2393 1292,-351.8894 1161.4358,-300.7328 800.1263,-340.0789 662,-315.8894 635.8566,-311.311 607.3751,-302.9961 584.6157,-295.5035"/>
<polygon fill="#00ff00" stroke="#00ff00" stroke-width=".3434" points="585.5077,-292.1111 574.9138,-292.246 583.2796,-298.747 585.5077,-292.1111"/>
</g>
<!-- C_wall&#45;&gt;no_turn -->
<g id="edge87" class="edge">
<title>C_wall&#45;&gt;no_turn</title>
<path fill="none" stroke="#00ff00" stroke-width=".695" d="M1330.6091,-367.4891C1336.1953,-362.1104 1343.9188,-355.6479 1352,-351.8894 1383.83,-337.0853 1610.5882,-300.7994 1704.9556,-286.1318"/>
<polygon fill="#00ff00" stroke="#00ff00" stroke-width=".695" points="1705.6473,-289.5665 1714.993,-284.5757 1704.5748,-282.6492 1705.6473,-289.5665"/>
</g>
<!-- D_agent -->
<g id="node10" class="node">
<title>D_agent</title>
<polygon fill="#d3d3d3" stroke="#000000" points="183.5,-455.3869 136.5,-455.3869 136.5,-437.3869 183.5,-437.3869 183.5,-455.3869"/>
<text text-anchor="middle" x="160" y="-444.1869" font-family="Times,serif" font-size="9.00" fill="#000000">D_agent</text>
</g>
<!-- D_agent&#45;&gt;backward -->
<g id="edge8" class="edge">
<title>D_agent&#45;&gt;backward</title>
<path fill="none" stroke="#ff0000" stroke-width=".4151" d="M160.0301,-437.2577C160.6183,-418.3061 164.7985,-374.5765 190,-351.8894 234.4383,-311.8848 410.0538,-291.3264 494.7858,-283.5667"/>
<polygon fill="#ff0000" stroke="#ff0000" stroke-width=".4151" points="495.2493,-287.0393 504.8976,-282.6621 494.6255,-280.0672 495.2493,-287.0393"/>
</g>
<!-- D_agent&#45;&gt;ccw -->
<g id="edge93" class="edge">
<title>D_agent&#45;&gt;ccw</title>
<path fill="none" stroke="#ff0000" stroke-width=".3026" d="M140.0594,-437.3182C97.1686,-416.2891 0,-359.8207 0,-279.8269 0,-279.8269 0,-279.8269 0,-183.0158 0,-106.4356 66.4116,-107.0364 138,-79.8406 260.0677,-33.4682 673.1049,-24.068 792.4542,-22.3028"/>
<polygon fill="#ff0000" stroke="#ff0000" stroke-width=".3026" points="792.8053,-25.7984 802.7554,-22.1589 792.7075,-18.799 792.8053,-25.7984"/>
</g>
<!-- D_agent&#45;&gt;cw -->
<g id="edge81" class="edge">
<title>D_agent&#45;&gt;cw</title>
<path fill="none" stroke="#00ff00" stroke-width=".2178" stroke-dasharray="1,5" d="M183.5095,-445.5785C284.7419,-441.9569 680.5856,-426.3035 730,-401.3869 812.8775,-359.5969 803.6016,-311.5562 867,-243.7645 876.2035,-233.9233 940.9338,-164.2637 953,-158.267 1019.6483,-125.1438 1248.3096,-107.9591 1329.8364,-102.7752"/>
<polygon fill="#00ff00" stroke="#00ff00" stroke-width=".2178" points="1330.1365,-106.2634 1339.8998,-102.1492 1329.7018,-99.2769 1330.1365,-106.2634"/>
</g>
<!-- 1428 -->
<g id="node34" class="node">
<title>1428</title>
<ellipse fill="#ffffff" stroke="#000000" cx="243" cy="-376.6381" rx="25" ry="25"/>
<text text-anchor="middle" x="243" y="-374.4381" font-family="Times,serif" font-size="9.00" fill="#000000">1428</text>
</g>
<!-- D_agent&#45;&gt;1428 -->
<g id="edge129" class="edge">
<title>D_agent&#45;&gt;1428</title>
<path fill="none" stroke="#ff0000" stroke-width=".4395" d="M170.8508,-437.2684C182.301,-427.6463 200.7845,-412.1138 216.1763,-399.1794"/>
<polygon fill="#ff0000" stroke="#ff0000" stroke-width=".4395" points="218.4857,-401.8104 223.8898,-392.6974 213.9823,-396.4513 218.4857,-401.8104"/>
</g>
<!-- 627 -->
<g id="node45" class="node">
<title>627</title>
<ellipse fill="#ffffff" stroke="#000000" cx="581" cy="-101.0538" rx="21.4286" ry="21.4286"/>
<text text-anchor="middle" x="581" y="-98.8538" font-family="Times,serif" font-size="9.00" fill="#000000">627</text>
</g>
<!-- D_agent&#45;&gt;627 -->
<g id="edge115" class="edge">
<title>D_agent&#45;&gt;627</title>
<path fill="none" stroke="#00ff00" stroke-width=".2206" stroke-dasharray="1,5" d="M157.3747,-437.3097C152.793,-419.5526 145.2421,-379.544 161,-351.8894 247.9201,-199.3475 468.3254,-129.6023 549.9625,-108.4027"/>
<polygon fill="#00ff00" stroke="#00ff00" stroke-width=".2206" points="551.2594,-111.6849 560.0947,-105.8377 549.5415,-104.8989 551.2594,-111.6849"/>
</g>
<!-- 1917 -->
<g id="node46" class="node">
<title>1917</title>
<ellipse fill="#ffffff" stroke="#000000" cx="2334" cy="-376.6381" rx="25" ry="25"/>
<text text-anchor="middle" x="2334" y="-374.4381" font-family="Times,serif" font-size="9.00" fill="#000000">1917</text>
</g>
<!-- D_agent&#45;&gt;1917 -->
<g id="edge123" class="edge">
<title>D_agent&#45;&gt;1917</title>
<path fill="none" stroke="#00ff00" stroke-width=".217" d="M183.7709,-445.7184C239.6356,-444.1577 383.6513,-440.1934 504,-437.3869 699.3212,-432.832 2069.6363,-435.5527 2262,-401.3869 2275.2175,-399.0393 2289.2798,-394.6591 2301.4363,-390.2286"/>
<polygon fill="#00ff00" stroke="#00ff00" stroke-width=".217" points="2303.0363,-393.3648 2311.1391,-386.5387 2300.548,-386.8219 2303.0363,-393.3648"/>
</g>
<!-- D_lm -->
<g id="node11" class="node">
<title>D_lm</title>
<polygon fill="#d3d3d3" stroke="#000000" points="1066.5,-385.6381 1029.5,-385.6381 1029.5,-367.6381 1066.5,-367.6381 1066.5,-385.6381"/>
<text text-anchor="middle" x="1048" y="-374.4381" font-family="Times,serif" font-size="9.00" fill="#000000">D_lm</text>
</g>
<!-- D_lm&#45;&gt;right -->
<g id="edge1" class="edge">
<title>D_lm&#45;&gt;right</title>
<path fill="none" stroke="#ff0000" stroke-width=".3308" stroke-dasharray="1,5" d="M1066.594,-373.5228C1099.1842,-368.1879 1168.7909,-357.3511 1228,-351.8894 1564.7269,-320.828 1651.0614,-344.5639 1988,-315.8894 2082.5543,-307.8425 2193.6052,-292.5709 2247.8271,-284.7348"/>
<polygon fill="#ff0000" stroke="#ff0000" stroke-width=".3308" points="2248.4999,-288.1739 2257.8921,-283.2711 2247.4924,-281.2468 2248.4999,-288.1739"/>
</g>
<!-- D_lm&#45;&gt;forward -->
<g id="edge92" class="edge">
<title>D_lm&#45;&gt;forward</title>
<path fill="none" stroke="#00ff00" stroke-width="2.047" d="M1058.4941,-367.6093C1064.7421,-362.5373 1072.9921,-356.3501 1081,-351.8894 1119.3582,-330.5223 1134.8727,-337.6658 1173,-315.8894 1177.5105,-313.3132 1182.0564,-310.3255 1186.4431,-307.1937"/>
<polygon fill="#00ff00" stroke="#00ff00" stroke-width="2.047" points="1188.7235,-309.8587 1194.6317,-301.0641 1184.5287,-304.2548 1188.7235,-309.8587"/>
</g>
<!-- D_lm&#45;&gt;ccw -->
<g id="edge88" class="edge">
<title>D_lm&#45;&gt;ccw</title>
<path fill="none" stroke="#00ff00" stroke-width=".6286" d="M1042.2635,-367.5133C1013.9553,-322.4845 888.6595,-123.1811 842.3127,-49.459"/>
<polygon fill="#00ff00" stroke="#00ff00" stroke-width=".6286" points="845.0985,-47.314 836.813,-40.7108 839.1722,-51.0396 845.0985,-47.314"/>
</g>
<!-- D_lm&#45;&gt;cw -->
<g id="edge45" class="edge">
<title>D_lm&#45;&gt;cw</title>
<path fill="none" stroke="#ff0000" stroke-width=".1053" stroke-dasharray="1,5" d="M1055.8857,-367.313C1060.3227,-362.3881 1066.1368,-356.4394 1072,-351.8894 1097.4775,-332.1182 1111.9869,-338.4814 1135,-315.8894 1161.6318,-289.7449 1149.0918,-267.3676 1178,-243.7645 1215.563,-213.0948 1242.0436,-236.6436 1281,-207.7645 1309.8056,-186.4104 1332.5065,-151.3678 1345.8232,-127.303"/>
<polygon fill="#ff0000" stroke="#ff0000" stroke-width=".1053" points="1348.9789,-128.8242 1350.6225,-118.3576 1342.8106,-125.5148 1348.9789,-128.8242"/>
</g>
<!-- D_wall -->
<g id="node12" class="node">
<title>D_wall</title>
<polygon fill="#d3d3d3" stroke="#000000" points="1688.5,-385.6381 1645.5,-385.6381 1645.5,-367.6381 1688.5,-367.6381 1688.5,-385.6381"/>
<text text-anchor="middle" x="1667" y="-374.4381" font-family="Times,serif" font-size="9.00" fill="#000000">D_wall</text>
</g>
<!-- D_wall&#45;&gt;left -->
<g id="edge11" class="edge">
<title>D_wall&#45;&gt;left</title>
<path fill="none" stroke="#ff0000" stroke-width=".6075" stroke-dasharray="1,5" d="M1655.0119,-367.6156C1648.1674,-362.6659 1639.3165,-356.597 1631,-351.8894 1587.2015,-327.097 1533.3398,-303.9961 1501.1628,-290.9228"/>
<polygon fill="#ff0000" stroke="#ff0000" stroke-width=".6075" points="1502.1015,-287.5278 1491.5179,-287.0411 1499.488,-294.0217 1502.1015,-287.5278"/>
</g>
<!-- D_wall&#45;&gt;no_turn -->
<g id="edge6" class="edge">
<title>D_wall&#45;&gt;no_turn</title>
<path fill="none" stroke="#00ff00" stroke-width=".3142" stroke-dasharray="1,5" d="M1674.5749,-367.3555C1684.8934,-354.7105 1703.8936,-331.4266 1719.7043,-312.0513"/>
<polygon fill="#00ff00" stroke="#00ff00" stroke-width=".3142" points="1722.416,-314.264 1726.0267,-304.3034 1716.9926,-309.8384 1722.416,-314.264"/>
</g>
<!-- D_wall&#45;&gt;cw -->
<g id="edge46" class="edge">
<title>D_wall&#45;&gt;cw</title>
<path fill="none" stroke="#00ff00" stroke-width=".4652" d="M1661.0764,-367.5315C1646.1007,-344.9222 1604.79,-285.0731 1561,-243.7645 1503.6016,-189.6186 1424.5191,-139.6707 1384.4613,-115.795"/>
<polygon fill="#00ff00" stroke="#00ff00" stroke-width=".4652" points="1386.001,-112.6395 1375.6109,-110.5667 1382.4406,-118.6664 1386.001,-112.6395"/>
</g>
<!-- 982 -->
<g id="node43" class="node">
<title>982</title>
<ellipse fill="#ffffff" stroke="#000000" cx="1408" cy="-183.0158" rx="21.4286" ry="21.4286"/>
<text text-anchor="middle" x="1408" y="-180.8158" font-family="Times,serif" font-size="9.00" fill="#000000">982</text>
</g>
<!-- D_wall&#45;&gt;982 -->
<g id="edge103" class="edge">
<title>D_wall&#45;&gt;982</title>
<path fill="none" stroke="#ff0000" stroke-width=".2709" d="M1656.4926,-367.5345C1630.8073,-345.425 1562.5112,-287.5009 1502,-243.7645 1480.0759,-227.9182 1454.1975,-211.341 1435.1497,-199.5143"/>
<polygon fill="#ff0000" stroke="#ff0000" stroke-width=".2709" points="1436.7435,-196.3851 1426.3949,-194.1141 1433.0685,-202.3429 1436.7435,-196.3851"/>
</g>
<!-- E_agent -->
<g id="node13" class="node">
<title>E_agent</title>
<polygon fill="#d3d3d3" stroke="#000000" points="1957,-385.6381 1911,-385.6381 1911,-367.6381 1957,-367.6381 1957,-385.6381"/>
<text text-anchor="middle" x="1934" y="-374.4381" font-family="Times,serif" font-size="9.00" fill="#000000">E_agent</text>
</g>
<!-- E_agent&#45;&gt;no_move -->
<g id="edge73" class="edge">
<title>E_agent&#45;&gt;no_move</title>
<path fill="none" stroke="#00ff00" stroke-width=".475" d="M1934.9588,-367.3555C1935.9694,-357.5722 1937.6377,-341.4207 1939.268,-325.638"/>
<polygon fill="#00ff00" stroke="#00ff00" stroke-width=".475" points="1942.7804,-325.6972 1940.3265,-315.3905 1935.8175,-324.9779 1942.7804,-325.6972"/>
</g>
<!-- E_agent&#45;&gt;right -->
<g id="edge13" class="edge">
<title>E_agent&#45;&gt;right</title>
<path fill="none" stroke="#ff0000" stroke-width=".2629" d="M1957.0364,-370.2111C2017.0752,-353.4606 2178.5141,-308.42 2248.2154,-288.9737"/>
<polygon fill="#ff0000" stroke="#ff0000" stroke-width=".2629" points="2249.5068,-292.2471 2258.1983,-286.1885 2247.6256,-285.5046 2249.5068,-292.2471"/>
</g>
<!-- E_agent&#45;&gt;left -->
<g id="edge75" class="edge">
<title>E_agent&#45;&gt;left</title>
<path fill="none" stroke="#00ff00" stroke-width=".1446" d="M1924.728,-367.4588C1918.7359,-362.0687 1910.4935,-355.6049 1902,-351.8894 1883.5118,-343.8018 1596.7848,-298.976 1502.672,-284.4043"/>
<polygon fill="#00ff00" stroke="#00ff00" stroke-width=".1446" points="1503.093,-280.9279 1492.6755,-282.8582 1502.023,-287.8456 1503.093,-280.9279"/>
</g>
<!-- E_agent&#45;&gt;forward -->
<g id="edge72" class="edge">
<title>E_agent&#45;&gt;forward</title>
<path fill="none" stroke="#00ff00" stroke-width=".2766" d="M1925.1061,-367.4422C1919.1358,-361.9003 1910.7797,-355.2783 1902,-351.8894 1806.7572,-315.1262 1545.3735,-327.9776 1444,-315.8894 1379.6764,-308.2192 1305.586,-295.6071 1260.5396,-287.5131"/>
<polygon fill="#00ff00" stroke="#00ff00" stroke-width=".2766" points="1261.0232,-284.0439 1250.5599,-285.7084 1259.7775,-290.9322 1261.0232,-284.0439"/>
</g>
<!-- E_agent&#45;&gt;cw -->
<g id="edge23" class="edge">
<title>E_agent&#45;&gt;cw</title>
<path fill="none" stroke="#00ff00" stroke-width=".789" d="M1928.3194,-367.3424C1913.912,-344.3015 1873.8886,-283.5454 1829,-243.7645 1774.4358,-195.4089 1757.2351,-183.9476 1689,-158.267 1582.9514,-118.3552 1447.1364,-106.0543 1388.322,-102.4554"/>
<polygon fill="#00ff00" stroke="#00ff00" stroke-width=".789" points="1388.4442,-98.9567 1378.2606,-101.88 1388.0444,-105.9453 1388.4442,-98.9567"/>
</g>
<!-- E_lm -->
<g id="node14" class="node">
<title>E_lm</title>
<polygon fill="#d3d3d3" stroke="#000000" points="1597,-455.3869 1561,-455.3869 1561,-437.3869 1597,-437.3869 1597,-455.3869"/>
<text text-anchor="middle" x="1579" y="-444.1869" font-family="Times,serif" font-size="9.00" fill="#000000">E_lm</text>
</g>
<!-- E_lm&#45;&gt;no_move -->
<g id="edge95" class="edge">
<title>E_lm&#45;&gt;no_move</title>
<path fill="none" stroke="#ff0000" stroke-width=".3501" d="M1597.0338,-445.844C1673.926,-443.3472 1971.7047,-431.7628 1999,-401.3869 2022.1097,-375.6689 1999.572,-338.615 1976.7614,-312.1877"/>
<polygon fill="#ff0000" stroke="#ff0000" stroke-width=".3501" points="1979.3237,-309.8025 1970.0421,-304.6934 1974.1118,-314.4754 1979.3237,-309.8025"/>
</g>
<!-- E_lm&#45;&gt;left -->
<g id="edge19" class="edge">
<title>E_lm&#45;&gt;left</title>
<path fill="none" stroke="#00ff00" stroke-width=".3918" stroke-dasharray="1,5" d="M1579.1273,-437.3469C1578.9788,-419.655 1576.6555,-379.7555 1560,-351.8894 1545.2535,-327.2172 1518.8784,-307.1764 1499.0219,-294.5502"/>
<polygon fill="#00ff00" stroke="#00ff00" stroke-width=".3918" points="1500.7777,-291.5213 1490.4225,-289.2807 1497.1203,-297.4899 1500.7777,-291.5213"/>
</g>
<!-- E_lm&#45;&gt;forward -->
<g id="edge96" class="edge">
<title>E_lm&#45;&gt;forward</title>
<path fill="none" stroke="#00ff00" stroke-width="1.8155" d="M1560.8117,-445.6472C1487.918,-442.4996 1219.6501,-429.0943 1195,-401.3869 1174.4076,-378.2403 1184.5806,-342.6644 1197.4205,-315.9698"/>
<polygon fill="#00ff00" stroke="#00ff00" stroke-width="1.8155" points="1200.6038,-317.4317 1202.0274,-306.9329 1194.3674,-314.2524 1200.6038,-317.4317"/>
</g>
<!-- E_lm&#45;&gt;backward -->
<g id="edge14" class="edge">
<title>E_lm&#45;&gt;backward</title>
<path fill="none" stroke="#ff0000" stroke-width=".4215" d="M1560.7244,-446.0793C1429.9711,-443.813 640.6464,-429.0157 599,-401.3869 573.0557,-384.175 558.4093,-351.9834 550.3269,-325.0505"/>
<polygon fill="#ff0000" stroke="#ff0000" stroke-width=".4215" points="553.6943,-324.096 547.6373,-315.4032 546.9514,-325.9758 553.6943,-324.096"/>
</g>
<!-- E_lm&#45;&gt;no_turn -->
<g id="edge111" class="edge">
<title>E_lm&#45;&gt;no_turn</title>
<path fill="none" stroke="#ff0000" stroke-width=".3781" d="M1597.3099,-445.6662C1646.7856,-443.2972 1781.2303,-433.929 1808,-401.3869 1831.5609,-372.7455 1803.1216,-333.6763 1777.4691,-307.6431"/>
<polygon fill="#ff0000" stroke="#ff0000" stroke-width=".3781" points="1779.6008,-304.832 1770.0066,-300.3373 1774.7038,-309.834 1779.6008,-304.832"/>
</g>
<!-- E_lm&#45;&gt;ccw -->
<g id="edge54" class="edge">
<title>E_lm&#45;&gt;ccw</title>
<path fill="none" stroke="#00ff00" stroke-width=".5272" stroke-dasharray="1,5" d="M1597.1928,-446.1402C1717.8694,-444.4176 2400.6767,-433.3074 2487,-401.3869 2569.7709,-370.7799 2644,-368.0755 2644,-279.8269 2644,-279.8269 2644,-279.8269 2644,-183.0158 2644,-89.589 1101.3683,-31.617 857.339,-23.0309"/>
<polygon fill="#00ff00" stroke="#00ff00" stroke-width=".5272" points="857.1341,-19.5217 847.0179,-22.6701 856.8895,-26.5174 857.1341,-19.5217"/>
</g>
<!-- 2517 -->
<g id="node42" class="node">
<title>2517</title>
<ellipse fill="#ffffff" stroke="#000000" cx="1526" cy="-376.6381" rx="25" ry="25"/>
<text text-anchor="middle" x="1526" y="-374.4381" font-family="Times,serif" font-size="9.00" fill="#000000">2517</text>
</g>
<!-- E_lm&#45;&gt;2517 -->
<g id="edge132" class="edge">
<title>E_lm&#45;&gt;2517</title>
<path fill="none" stroke="#00ff00" stroke-width=".2363" d="M1572.0712,-437.2684C1565.7943,-429.0079 1556.2074,-416.3915 1547.4012,-404.8025"/>
<polygon fill="#00ff00" stroke="#00ff00" stroke-width=".2363" points="1550.0224,-402.467 1541.1855,-396.6224 1544.4489,-406.7021 1550.0224,-402.467"/>
</g>
<!-- E_wall -->
<g id="node15" class="node">
<title>E_wall</title>
<polygon fill="#d3d3d3" stroke="#000000" points="555,-455.3869 513,-455.3869 513,-437.3869 555,-437.3869 555,-455.3869"/>
<text text-anchor="middle" x="534" y="-444.1869" font-family="Times,serif" font-size="9.00" fill="#000000">E_wall</text>
</g>
<!-- E_wall&#45;&gt;right -->
<g id="edge42" class="edge">
<title>E_wall&#45;&gt;right</title>
<path fill="none" stroke="#00ff00" stroke-width=".2195" d="M555.1483,-445.5786C599.3245,-443.9065 704.6287,-440.005 793,-437.3869 833.7999,-436.1781 2231.3163,-428.3054 2262,-401.3869 2286.3472,-380.0273 2288.5183,-341.3247 2286.2416,-313.317"/>
<polygon fill="#00ff00" stroke="#00ff00" stroke-width=".2195" points="2289.7017,-312.7502 2285.1882,-303.1648 2282.739,-313.4727 2289.7017,-312.7502"/>
</g>
<!-- E_wall&#45;&gt;forward -->
<g id="edge76" class="edge">
<title>E_wall&#45;&gt;forward</title>
<path fill="none" stroke="#00ff00" stroke-width=".5784" stroke-dasharray="1,5" d="M555.1541,-445.7123C649.6446,-442.5546 1030.4535,-428.2451 1076,-401.3869 1098.7749,-387.9568 1089.6107,-369.8649 1109,-351.8894 1132.9329,-329.7015 1145.857,-334.0097 1173,-315.8894 1177.3201,-313.0053 1181.7517,-309.8328 1186.0775,-306.6025"/>
<polygon fill="#00ff00" stroke="#00ff00" stroke-width=".5784" points="1188.3943,-309.2368 1194.2086,-300.3799 1184.1401,-303.6779 1188.3943,-309.2368"/>
</g>
<!-- E_wall&#45;&gt;backward -->
<g id="edge79" class="edge">
<title>E_wall&#45;&gt;backward</title>
<path fill="none" stroke="#ff0000" stroke-width=".887" stroke-dasharray="1,5" d="M512.7284,-445.0384C443.6746,-440.4473 229.0634,-424.4196 209,-401.3869 126.8829,-307.1163 385.5961,-285.904 494.7758,-281.1711"/>
<polygon fill="#ff0000" stroke="#ff0000" stroke-width=".887" points="495.0082,-284.6647 504.8583,-280.7626 494.7248,-277.6704 495.0082,-284.6647"/>
</g>
<!-- E_wall&#45;&gt;ccw -->
<g id="edge61" class="edge">
<title>E_wall&#45;&gt;ccw</title>
<path fill="none" stroke="#ff0000" stroke-width=".3401" d="M512.712,-445.9393C446.2728,-444.1871 243.9678,-436.0595 190,-401.3869 136.3934,-366.9464 114,-343.5436 114,-279.8269 114,-279.8269 114,-279.8269 114,-183.0158 114,-110.2922 173.7527,-107.5267 241,-79.8406 342.333,-38.1213 685.7169,-25.6179 792.8208,-22.6882"/>
<polygon fill="#ff0000" stroke="#ff0000" stroke-width=".3401" points="793.0962,-26.1822 803.0003,-22.4194 792.9114,-19.1847 793.0962,-26.1822"/>
</g>
<!-- 2312 -->
<g id="node33" class="node">
<title>2312</title>
<ellipse fill="#ffffff" stroke="#000000" cx="2401" cy="-376.6381" rx="25" ry="25"/>
<text text-anchor="middle" x="2401" y="-374.4381" font-family="Times,serif" font-size="9.00" fill="#000000">2312</text>
</g>
<!-- E_wall&#45;&gt;2312 -->
<g id="edge125" class="edge">
<title>E_wall&#45;&gt;2312</title>
<path fill="none" stroke="#ff0000" stroke-width=".1014" d="M555.148,-445.5668C599.3235,-443.8726 704.6265,-439.9322 793,-437.3869 880.4866,-434.8671 2285.2898,-430.01 2368,-401.3869 2369.9287,-400.7194 2371.8371,-399.8938 2373.7056,-398.9536"/>
<polygon fill="#ff0000" stroke="#ff0000" stroke-width=".1014" points="2375.9213,-401.7012 2382.6268,-393.4984 2372.2695,-395.7292 2375.9213,-401.7012"/>
</g>
<!-- E_wall&#45;&gt;1428 -->
<g id="edge120" class="edge">
<title>E_wall&#45;&gt;1428</title>
<path fill="none" stroke="#00ff00" stroke-width=".6454" d="M512.8479,-443.9888C459.169,-437.6987 318.882,-419.9269 276,-401.3869 274.1759,-400.5982 272.3595,-399.6898 270.5706,-398.6967"/>
<polygon fill="#00ff00" stroke="#00ff00" stroke-width=".6454" points="272.2583,-395.6217 261.9464,-393.1898 268.491,-401.5215 272.2583,-395.6217"/>
</g>
<!-- F_agent -->
<g id="node16" class="node">
<title>F_agent</title>
<polygon fill="#d3d3d3" stroke="#000000" points="2083.5,-455.3869 2038.5,-455.3869 2038.5,-437.3869 2083.5,-437.3869 2083.5,-455.3869"/>
<text text-anchor="middle" x="2061" y="-444.1869" font-family="Times,serif" font-size="9.00" fill="#000000">F_agent</text>
</g>
<!-- F_agent&#45;&gt;no_move -->
<g id="edge60" class="edge">
<title>F_agent&#45;&gt;no_move</title>
<path fill="none" stroke="#ff0000" stroke-width=".1632" stroke-dasharray="1,5" d="M2060.626,-437.2763C2059.5014,-419.4607 2054.9998,-379.3543 2037,-351.8894 2034.9794,-348.8063 2005.6587,-326.2808 1980.4731,-307.2232"/>
<polygon fill="#ff0000" stroke="#ff0000" stroke-width=".1632" points="1982.5702,-304.4209 1972.4811,-301.1865 1978.3511,-310.0066 1982.5702,-304.4209"/>
</g>
<!-- F_agent&#45;&gt;right -->
<g id="edge31" class="edge">
<title>F_agent&#45;&gt;right</title>
<path fill="none" stroke="#00ff00" stroke-width=".8517" stroke-dasharray="1,5" d="M2083.5203,-445.8391C2170.0011,-443.5072 2477.3928,-433.0328 2506,-401.3869 2566.2846,-334.6987 2390.4569,-297.4579 2314.299,-284.8008"/>
<polygon fill="#00ff00" stroke="#00ff00" stroke-width=".8517" points="2314.6794,-281.3169 2304.2493,-283.1775 2313.5632,-288.2274 2314.6794,-281.3169"/>
</g>
<!-- F_agent&#45;&gt;backward -->
<g id="edge22" class="edge">
<title>F_agent&#45;&gt;backward</title>
<path fill="none" stroke="#00ff00" stroke-width=".3272" d="M2038.3259,-445.9356C1858.554,-442.3258 669.6637,-417.8546 637,-401.3869 627.5089,-396.6019 593.1255,-351.3629 568.216,-317.4626"/>
<polygon fill="#00ff00" stroke="#00ff00" stroke-width=".3272" points="570.8395,-315.1209 562.1081,-309.1196 565.1913,-319.256 570.8395,-315.1209"/>
</g>
<!-- F_agent&#45;&gt;cw -->
<g id="edge35" class="edge">
<title>F_agent&#45;&gt;cw</title>
<path fill="none" stroke="#ff0000" stroke-width=".3509" stroke-dasharray="1,5" d="M2083.6119,-445.9405C2172.6878,-443.9525 2495.9465,-434.4891 2526,-401.3869 2540.7874,-385.0993 2537.164,-370.845 2526,-351.8894 2404.9564,-146.3662 1558.003,-107.6401 1388.491,-101.9212"/>
<polygon fill="#ff0000" stroke="#ff0000" stroke-width=".3509" points="1388.4285,-98.4174 1378.3201,-101.5908 1388.2012,-105.4137 1388.4285,-98.4174"/>
</g>
<!-- F_agent&#45;&gt;1428 -->
<g id="edge105" class="edge">
<title>F_agent&#45;&gt;1428</title>
<path fill="none" stroke="#00ff00" stroke-width=".2169" d="M2038.3991,-445.9116C1833.0987,-441.5837 297.8592,-408.9804 276,-401.3869 274.072,-400.7171 272.1643,-399.8898 270.2963,-398.9482"/>
<polygon fill="#00ff00" stroke="#00ff00" stroke-width=".2169" points="271.7328,-395.724 261.3763,-393.4894 268.0789,-401.6947 271.7328,-395.724"/>
</g>
<!-- F_lm -->
<g id="node17" class="node">
<title>F_lm</title>
<polygon fill="#d3d3d3" stroke="#000000" points="1743,-385.6381 1707,-385.6381 1707,-367.6381 1743,-367.6381 1743,-385.6381"/>
<text text-anchor="middle" x="1725" y="-374.4381" font-family="Times,serif" font-size="9.00" fill="#000000">F_lm</text>
</g>
<!-- F_lm&#45;&gt;no_move -->
<g id="edge90" class="edge">
<title>F_lm&#45;&gt;no_move</title>
<path fill="none" stroke="#00ff00" stroke-width=".4022" d="M1733.6216,-367.4045C1738.8288,-362.2643 1745.8288,-356.0771 1753,-351.8894 1795.2386,-327.2237 1811.276,-333.262 1857,-315.8894 1871.6538,-310.3217 1887.5341,-303.8663 1901.6669,-297.969"/>
<polygon fill="#00ff00" stroke="#00ff00" stroke-width=".4022" points="1903.2703,-301.0918 1911.1354,-293.9931 1900.5602,-294.6377 1903.2703,-301.0918"/>
</g>
<!-- F_lm&#45;&gt;right -->
<g id="edge27" class="edge">
<title>F_lm&#45;&gt;right</title>
<path fill="none" stroke="#ff0000" stroke-width=".3425" stroke-dasharray="1,5" d="M1732.8643,-367.355C1738.0137,-361.9258 1745.2148,-355.4574 1753,-351.8894 1775.686,-341.4922 2135.2836,-297.421 2247.6907,-283.8327"/>
<polygon fill="#ff0000" stroke="#ff0000" stroke-width=".3425" points="2248.2691,-287.2883 2257.7775,-282.615 2247.4301,-280.3388 2248.2691,-287.2883"/>
</g>
<!-- F_lm&#45;&gt;forward -->
<g id="edge69" class="edge">
<title>F_lm&#45;&gt;forward</title>
<path fill="none" stroke="#00ff00" stroke-width=".2212" d="M1717.4743,-367.3673C1712.5305,-361.9427 1705.5892,-355.4749 1698,-351.8894 1594.9089,-303.1849 1556.7392,-332.9121 1444,-315.8894 1379.9468,-306.2179 1305.7809,-294.1646 1260.6449,-286.7334"/>
<polygon fill="#00ff00" stroke="#00ff00" stroke-width=".2212" points="1261.0805,-283.258 1250.6443,-285.0843 1259.9415,-290.1648 1261.0805,-283.258"/>
</g>
<!-- F_lm&#45;&gt;backward -->
<g id="edge40" class="edge">
<title>F_lm&#45;&gt;backward</title>
<path fill="none" stroke="#00ff00" stroke-width=".2918" stroke-dasharray="1,5" d="M1718.0401,-367.5808C1713.1239,-361.944 1706.004,-355.1639 1698,-351.8894 1591.3954,-308.2772 775.6689,-334.4893 662,-315.8894 635.8071,-311.6034 607.3229,-303.3043 584.5744,-295.7472"/>
<polygon fill="#00ff00" stroke="#00ff00" stroke-width=".2918" points="585.4725,-292.356 574.8781,-292.4564 583.2228,-298.9846 585.4725,-292.356"/>
</g>
<!-- F_lm&#45;&gt;no_turn -->
<g id="edge5" class="edge">
<title>F_lm&#45;&gt;no_turn</title>
<path fill="none" stroke="#00ff00" stroke-width=".3575" d="M1727.0136,-367.3555C1729.3649,-356.5155 1733.4122,-337.8573 1737.1675,-320.5453"/>
<polygon fill="#00ff00" stroke="#00ff00" stroke-width=".3575" points="1740.6303,-321.0918 1739.3298,-310.5771 1733.7894,-319.6078 1740.6303,-321.0918"/>
</g>
<!-- F_wall -->
<g id="node18" class="node">
<title>F_wall</title>
<polygon fill="#d3d3d3" stroke="#000000" points="721,-385.6381 679,-385.6381 679,-367.6381 721,-367.6381 721,-385.6381"/>
<text text-anchor="middle" x="700" y="-374.4381" font-family="Times,serif" font-size="9.00" fill="#000000">F_wall</text>
</g>
<!-- F_wall&#45;&gt;no_move -->
<g id="edge36" class="edge">
<title>F_wall&#45;&gt;no_move</title>
<path fill="none" stroke="#00ff00" stroke-width=".1946" d="M721.3465,-372.0602C749.3532,-366.2637 800.1016,-356.4803 844,-351.8894 1260.6998,-308.3112 1370.6339,-370.742 1786,-315.8894 1825.0132,-310.7374 1868.5585,-300.4507 1900.0389,-292.1776"/>
<polygon fill="#00ff00" stroke="#00ff00" stroke-width=".1946" points="1901.0539,-295.5294 1909.8148,-289.5714 1899.2506,-288.7656 1901.0539,-295.5294"/>
</g>
<!-- F_wall&#45;&gt;forward -->
<g id="edge83" class="edge">
<title>F_wall&#45;&gt;forward</title>
<path fill="none" stroke="#00ff00" stroke-width=".6575" stroke-dasharray="1,5" d="M721.313,-372.6625C799.6755,-358.0453 1072.7043,-307.1161 1177.5545,-287.5579"/>
<polygon fill="#00ff00" stroke="#00ff00" stroke-width=".6575" points="1178.2675,-290.9854 1187.4561,-285.711 1176.9839,-284.1041 1178.2675,-290.9854"/>
</g>
<!-- F_wall&#45;&gt;backward -->
<g id="edge20" class="edge">
<title>F_wall&#45;&gt;backward</title>
<path fill="none" stroke="#ff0000" stroke-width=".2763" d="M688.0152,-367.431C681.4026,-362.5407 672.9428,-356.5873 665,-351.8894 633.5201,-333.2697 622.3924,-334.6563 591,-315.8894 586.8001,-313.3786 582.5056,-310.6145 578.2842,-307.7675"/>
<polygon fill="#ff0000" stroke="#ff0000" stroke-width=".2763" points="579.9867,-304.6887 569.7758,-301.8621 575.9953,-310.4393 579.9867,-304.6887"/>
</g>
<!-- F_wall&#45;&gt;ccw -->
<g id="edge55" class="edge">
<title>F_wall&#45;&gt;ccw</title>
<path fill="none" stroke="#00ff00" stroke-width=".3365" stroke-dasharray="1,5" d="M691.9911,-367.5592C682.6769,-356.3358 667.834,-336.2169 662,-315.8894 653.157,-285.0778 652.6002,-274.4108 662,-243.7645 688.0372,-158.8752 762.1307,-80.3586 800.8162,-43.674"/>
<polygon fill="#00ff00" stroke="#00ff00" stroke-width=".3365" points="803.5848,-45.8774 808.5038,-36.4936 798.8067,-40.7617 803.5848,-45.8774"/>
</g>
<!-- F_wall&#45;&gt;cw -->
<g id="edge66" class="edge">
<title>F_wall&#45;&gt;cw</title>
<path fill="none" stroke="#00ff00" stroke-width=".6205" stroke-dasharray="1,5" d="M705.5184,-367.5808C727.6446,-332.2602 814.1122,-203.4958 925,-158.267 999.064,-128.0579 1244.7574,-108.846 1329.7594,-102.9707"/>
<polygon fill="#00ff00" stroke="#00ff00" stroke-width=".6205" points="1330.0189,-106.4612 1339.7581,-102.2902 1329.5435,-99.4774 1330.0189,-106.4612"/>
</g>
<!-- F_wall&#45;&gt;1477 -->
<g id="edge107" class="edge">
<title>F_wall&#45;&gt;1477</title>
<path fill="none" stroke="#00ff00" stroke-width=".2556" d="M699.6165,-367.3555C699.1182,-355.2961 698.2201,-333.5606 697.4436,-314.7671"/>
<polygon fill="#00ff00" stroke="#00ff00" stroke-width=".2556" points="700.938,-314.5561 697.0281,-304.7091 693.944,-314.8451 700.938,-314.5561"/>
</g>
<!-- F_wall&#45;&gt;627 -->
<g id="edge99" class="edge">
<title>F_wall&#45;&gt;627</title>
<path fill="none" stroke="#ff0000" stroke-width=".315" stroke-dasharray="1,5" d="M687.5392,-367.516C669.2841,-353.9077 636.6081,-328.5405 629,-315.8894 593.9733,-257.6456 584.4475,-176.6488 581.8958,-132.6179"/>
<polygon fill="#ff0000" stroke="#ff0000" stroke-width=".315" points="585.3859,-132.3289 581.3964,-122.5139 578.3944,-132.6745 585.3859,-132.3289"/>
</g>
<!-- G_agent -->
<g id="node19" class="node">
<title>G_agent</title>
<polygon fill="#d3d3d3" stroke="#000000" points="848.5,-455.3869 801.5,-455.3869 801.5,-437.3869 848.5,-437.3869 848.5,-455.3869"/>
<text text-anchor="middle" x="825" y="-444.1869" font-family="Times,serif" font-size="9.00" fill="#000000">G_agent</text>
</g>
<!-- G_agent&#45;&gt;no_move -->
<g id="edge30" class="edge">
<title>G_agent&#45;&gt;no_move</title>
<path fill="none" stroke="#ff0000" stroke-width=".1551" stroke-dasharray="1,5" d="M848.6512,-439.2254C851.7718,-438.4906 854.9464,-437.8464 858,-437.3869 918.9023,-428.2219 1923.1636,-445.6376 1966,-401.3869 1986.7495,-379.9522 1978.455,-345.9218 1966.553,-319.3121"/>
<polygon fill="#ff0000" stroke="#ff0000" stroke-width=".1551" points="1969.6935,-317.7662 1962.2344,-310.2421 1963.3734,-320.7756 1969.6935,-317.7662"/>
</g>
<!-- G_agent&#45;&gt;right -->
<g id="edge67" class="edge">
<title>G_agent&#45;&gt;right</title>
<path fill="none" stroke="#00ff00" stroke-width=".2979" stroke-dasharray="1,5" d="M848.6471,-439.1973C851.7683,-438.4671 854.9442,-437.8316 858,-437.3869 901.3601,-431.0757 2404.3723,-432.7217 2435,-401.3869 2450.377,-385.6548 2446.8076,-370.451 2435,-351.8894 2408.6111,-310.4059 2351.3714,-292.3979 2314.5957,-284.8784"/>
<polygon fill="#00ff00" stroke="#00ff00" stroke-width=".2979" points="2314.8282,-281.3606 2304.3526,-282.9457 2313.5303,-288.2392 2314.8282,-281.3606"/>
</g>
<!-- G_agent&#45;&gt;left -->
<g id="edge24" class="edge">
<title>G_agent&#45;&gt;left</title>
<path fill="none" stroke="#00ff00" stroke-width=".6696" d="M848.666,-439.3182C851.7841,-438.5682 854.9541,-437.8951 858,-437.3869 919.2816,-427.1612 1364.666,-436.3844 1416,-401.3869 1432.2487,-390.3091 1451.8414,-341.0222 1463.3104,-308.7088"/>
<polygon fill="#00ff00" stroke="#00ff00" stroke-width=".6696" points="1466.7485,-309.4787 1466.7341,-298.8838 1460.1383,-307.1752 1466.7485,-309.4787"/>
</g>
<!-- G_agent&#45;&gt;forward -->
<g id="edge57" class="edge">
<title>G_agent&#45;&gt;forward</title>
<path fill="none" stroke="#00ff00" stroke-width=".244" stroke-dasharray="1,5" d="M848.7081,-439.5438C851.8194,-438.7569 854.9763,-438.0135 858,-437.3869 968.3522,-414.5168 1009.5036,-454.3123 1109,-401.3869 1146.3468,-381.5209 1177.4053,-343.7493 1196.889,-315.5588"/>
<polygon fill="#00ff00" stroke="#00ff00" stroke-width=".244" points="1199.8712,-317.3965 1202.5583,-307.1481 1194.0667,-313.484 1199.8712,-317.3965"/>
</g>
<!-- G_agent&#45;&gt;backward -->
<g id="edge43" class="edge">
<title>G_agent&#45;&gt;backward</title>
<path fill="none" stroke="#00ff00" stroke-width=".2039" stroke-dasharray="1,5" d="M801.3916,-445.7983C713.7078,-443.3726 410.3432,-432.755 382,-401.3869 367.2514,-385.0642 370.08,-370.379 382,-351.8894 406.6922,-313.5884 457.2312,-295.4194 494.7359,-286.9465"/>
<polygon fill="#00ff00" stroke="#00ff00" stroke-width=".2039" points="495.8687,-290.2851 504.9362,-284.8051 494.4305,-283.4344 495.8687,-290.2851"/>
</g>
<!-- G_agent&#45;&gt;ccw -->
<g id="edge85" class="edge">
<title>G_agent&#45;&gt;ccw</title>
<path fill="none" stroke="#00ff00" stroke-width=".2307" d="M801.4332,-445.4804C691.2383,-441.1394 231.2072,-421.8413 209,-401.3869 168.7789,-364.3403 190,-334.5095 190,-279.8269 190,-279.8269 190,-279.8269 190,-183.0158 190,-57.3176 663.3914,-28.5843 792.7007,-23.0803"/>
<polygon fill="#00ff00" stroke="#00ff00" stroke-width=".2307" points="792.9233,-26.5743 802.7723,-22.6696 792.638,-19.5801 792.9233,-26.5743"/>
</g>
<!-- G_agent&#45;&gt;cw -->
<g id="edge48" class="edge">
<title>G_agent&#45;&gt;cw</title>
<path fill="none" stroke="#00ff00" stroke-width=".3859" stroke-dasharray="1,5" d="M825.429,-437.3636C826.5456,-420.0352 830.4782,-381.2194 844,-351.8894 849.7255,-339.4702 984.2062,-165.1897 996,-158.267 1052.6369,-125.0226 1252.9444,-108.2466 1329.2138,-102.9516"/>
<polygon fill="#00ff00" stroke="#00ff00" stroke-width=".3859" points="1329.794,-106.4204 1339.5348,-102.2531 1329.3212,-99.4364 1329.794,-106.4204"/>
</g>
<!-- 2467 -->
<g id="node35" class="node">
<title>2467</title>
<ellipse fill="#ffffff" stroke="#000000" cx="416" cy="-376.6381" rx="25" ry="25"/>
<text text-anchor="middle" x="416" y="-374.4381" font-family="Times,serif" font-size="9.00" fill="#000000">2467</text>
</g>
<!-- G_agent&#45;&gt;2467 -->
<g id="edge130" class="edge">
<title>G_agent&#45;&gt;2467</title>
<path fill="none" stroke="#00ff00" stroke-width=".3265" d="M801.4401,-444.8848C730.4475,-440.1456 519.5147,-424.4439 455,-401.3869 451.4698,-400.1252 447.9283,-398.499 444.4974,-396.6834"/>
<polygon fill="#00ff00" stroke="#00ff00" stroke-width=".3265" points="446.1539,-393.5974 435.7576,-391.5558 442.6116,-399.635 446.1539,-393.5974"/>
</g>
<!-- G_lm -->
<g id="node20" class="node">
<title>G_lm</title>
<polygon fill="#d3d3d3" stroke="#000000" points="2252.5,-385.6381 2215.5,-385.6381 2215.5,-367.6381 2252.5,-367.6381 2252.5,-385.6381"/>
<text text-anchor="middle" x="2234" y="-374.4381" font-family="Times,serif" font-size="9.00" fill="#000000">G_lm</text>
</g>
<!-- G_lm&#45;&gt;right -->
<g id="edge7" class="edge">
<title>G_lm&#45;&gt;right</title>
<path fill="none" stroke="#ff0000" stroke-width=".4048" d="M2238.5066,-367.3555C2244.825,-354.3407 2256.6148,-330.0559 2266.1758,-310.3621"/>
<polygon fill="#ff0000" stroke="#ff0000" stroke-width=".4048" points="2269.4377,-311.657 2270.6566,-301.1325 2263.1406,-308.5998 2269.4377,-311.657"/>
</g>
<!-- G_lm&#45;&gt;no_turn -->
<g id="edge65" class="edge">
<title>G_lm&#45;&gt;no_turn</title>
<path fill="none" stroke="#00ff00" stroke-width=".8404" d="M2226.5043,-367.3028C2221.5718,-361.854 2214.6318,-355.3833 2207,-351.8894 2082.0883,-294.7041 2035.3197,-339.5889 1900,-315.8894 1860.9974,-309.0586 1817.072,-298.4811 1786.1444,-290.5451"/>
<polygon fill="#00ff00" stroke="#00ff00" stroke-width=".8404" points="1786.7382,-287.0834 1776.1801,-287.9642 1784.983,-293.8598 1786.7382,-287.0834"/>
</g>
<!-- G_lm&#45;&gt;ccw -->
<g id="edge78" class="edge">
<title>G_lm&#45;&gt;ccw</title>
<path fill="none" stroke="#00ff00" stroke-width=".3541" stroke-dasharray="1,5" d="M2229.5508,-367.5449C2217.894,-344.4505 2184.413,-282.6181 2142,-243.7645 2085.4174,-191.9305 2064.3125,-183.943 1992,-158.267 1773.558,-80.705 1023.1587,-33.3948 857.5248,-23.7551"/>
<polygon fill="#00ff00" stroke="#00ff00" stroke-width=".3541" points="857.2323,-20.2325 847.0472,-23.1504 856.8289,-27.2209 857.2323,-20.2325"/>
</g>
<!-- G_lm&#45;&gt;cw -->
<g id="edge49" class="edge">
<title>G_lm&#45;&gt;cw</title>
<path fill="none" stroke="#ff0000" stroke-width=".5483" d="M2225.5715,-367.4509C2192.0056,-331.6446 2062.9601,-201.3069 1925,-158.267 1823.0017,-126.4463 1489.1065,-107.545 1388.1644,-102.4551"/>
<polygon fill="#ff0000" stroke="#ff0000" stroke-width=".5483" points="1388.242,-98.9547 1378.0805,-101.9538 1387.8944,-105.9461 1388.242,-98.9547"/>
</g>
<!-- G_wall -->
<g id="node21" class="node">
<title>G_wall</title>
<polygon fill="#d3d3d3" stroke="#000000" points="909.5,-455.3869 866.5,-455.3869 866.5,-437.3869 909.5,-437.3869 909.5,-455.3869"/>
<text text-anchor="middle" x="888" y="-444.1869" font-family="Times,serif" font-size="9.00" fill="#000000">G_wall</text>
</g>
<!-- G_wall&#45;&gt;right -->
<g id="edge52" class="edge">
<title>G_wall&#45;&gt;right</title>
<path fill="none" stroke="#ff0000" stroke-width=".2338" d="M909.5287,-445.9792C1097.5311,-442.3947 2453.7601,-416.0381 2468,-401.3869 2483.3325,-385.6114 2480.4485,-370.0274 2468,-351.8894 2449.987,-325.6437 2362.1838,-300.1002 2313.5631,-287.6644"/>
<polygon fill="#ff0000" stroke="#ff0000" stroke-width=".2338" points="2314.3737,-284.2593 2303.822,-285.2141 2312.6661,-291.0478 2314.3737,-284.2593"/>
</g>
<!-- G_wall&#45;&gt;left -->
<g id="edge17" class="edge">
<title>G_wall&#45;&gt;left</title>
<path fill="none" stroke="#00ff00" stroke-width=".1016" d="M909.5317,-446.1679C1007.4899,-444.9732 1408.0607,-437.8737 1449,-401.3869 1474.3471,-378.7964 1477.562,-337.8536 1476.3005,-309.7758"/>
<polygon fill="#00ff00" stroke="#00ff00" stroke-width=".1016" points="1479.7872,-309.4569 1475.6347,-299.7098 1472.8024,-309.919 1479.7872,-309.4569"/>
</g>
<!-- G_wall&#45;&gt;backward -->
<g id="edge21" class="edge">
<title>G_wall&#45;&gt;backward</title>
<path fill="none" stroke="#00ff00" stroke-width=".1515" d="M866.4959,-439.3897C863.6595,-438.628 860.7744,-437.9326 858,-437.3869 776.9428,-421.4426 543.514,-462.5644 488,-401.3869 465.146,-376.2013 486.3136,-339.6067 508.309,-313.1555"/>
<polygon fill="#00ff00" stroke="#00ff00" stroke-width=".1515" points="511.2142,-315.147 515.1139,-305.296 505.9222,-310.5651 511.2142,-315.147"/>
</g>
<!-- G_wall&#45;&gt;ccw -->
<g id="edge80" class="edge">
<title>G_wall&#45;&gt;ccw</title>
<path fill="none" stroke="#00ff00" stroke-width=".5341" stroke-dasharray="1,5" d="M877.1912,-437.1013C851.136,-413.6206 787,-348.8151 787,-279.8269 787,-279.8269 787,-279.8269 787,-183.0158 787,-136.343 802.2965,-84.0469 813.4795,-52.0507"/>
<polygon fill="#00ff00" stroke="#00ff00" stroke-width=".5341" points="816.8563,-53.003 816.9412,-42.4085 810.268,-50.6377 816.8563,-53.003"/>
</g>
<!-- 1993 -->
<g id="node41" class="node">
<title>1993</title>
<ellipse fill="#ffffff" stroke="#000000" cx="522" cy="-376.6381" rx="25" ry="25"/>
<text text-anchor="middle" x="522" y="-374.4381" font-family="Times,serif" font-size="9.00" fill="#000000">1993</text>
</g>
<!-- G_wall&#45;&gt;1993 -->
<g id="edge118" class="edge">
<title>G_wall&#45;&gt;1993</title>
<path fill="none" stroke="#ff0000" stroke-width=".1209" stroke-dasharray="1,5" d="M866.4832,-439.4521C863.6489,-438.6802 860.7678,-437.9654 858,-437.3869 727.8462,-410.1839 686.219,-446.1105 561,-401.3869 557.4695,-400.1259 553.9279,-398.5001 550.4969,-396.6849"/>
<polygon fill="#ff0000" stroke="#ff0000" stroke-width=".1209" points="552.1533,-393.5988 541.757,-391.5575 548.6112,-399.6365 552.1533,-393.5988"/>
</g>
<!-- H_agent -->
<g id="node22" class="node">
<title>H_agent</title>
<polygon fill="#d3d3d3" stroke="#000000" points="2357.5,-455.3869 2310.5,-455.3869 2310.5,-437.3869 2357.5,-437.3869 2357.5,-455.3869"/>
<text text-anchor="middle" x="2334" y="-444.1869" font-family="Times,serif" font-size="9.00" fill="#000000">H_agent</text>
</g>
<!-- H_agent&#45;&gt;right -->
<g id="edge58" class="edge">
<title>H_agent&#45;&gt;right</title>
<path fill="none" stroke="#ff0000" stroke-width=".4238" stroke-dasharray="1,5" d="M2357.5028,-444.9516C2407.2905,-441.3701 2520.7349,-430.1654 2544,-401.3869 2557.8302,-384.2791 2557.3428,-369.38 2544,-351.8894 2516.0518,-315.2532 2378.5376,-292.6661 2314.2459,-283.9457"/>
<polygon fill="#ff0000" stroke="#ff0000" stroke-width=".4238" points="2314.5938,-280.4613 2304.2208,-282.6182 2313.6748,-287.4007 2314.5938,-280.4613"/>
</g>
<!-- H_agent&#45;&gt;forward -->
<g id="edge59" class="edge">
<title>H_agent&#45;&gt;forward</title>
<path fill="none" stroke="#ff0000" stroke-width="1.2419" d="M2310.4451,-445.4815C2150.5393,-439.3287 1230.5224,-403.8268 1228,-401.3869 1207.0273,-381.0999 1206.0359,-347.4016 1209.5858,-320.6243"/>
<polygon fill="#ff0000" stroke="#ff0000" stroke-width="1.2419" points="1213.0438,-321.1647 1211.1365,-310.743 1206.1284,-320.0794 1213.0438,-321.1647"/>
</g>
<!-- H_agent&#45;&gt;backward -->
<g id="edge34" class="edge">
<title>H_agent&#45;&gt;backward</title>
<path fill="none" stroke="#00ff00" stroke-width=".1129" d="M2310.3996,-445.4112C2267.248,-443.6483 2172.7222,-439.8838 2093,-437.3869 2013.9579,-434.9112 740.9234,-436.3676 670,-401.3869 644.6333,-388.8756 649.9905,-371.8989 630,-351.8894 614.2052,-336.0796 595.122,-320.2601 578.6834,-307.4875"/>
<polygon fill="#00ff00" stroke="#00ff00" stroke-width=".1129" points="580.4242,-304.4117 570.3596,-301.1022 576.1636,-309.9658 580.4242,-304.4117"/>
</g>
<!-- H_agent&#45;&gt;ccw -->
<g id="edge25" class="edge">
<title>H_agent&#45;&gt;ccw</title>
<path fill="none" stroke="#00ff00" stroke-width=".3269" d="M2357.6273,-445.6005C2443.9715,-442.5056 2738.9563,-429.9085 2769,-401.3869 2808.6579,-363.738 2788,-334.5095 2788,-279.8269 2788,-279.8269 2788,-279.8269 2788,-183.0158 2788,-164.4459 2842.541,-148.1172 2205,-79.8406 1931.3285,-50.5321 1038.8023,-27.2125 857.362,-22.7083"/>
<polygon fill="#00ff00" stroke="#00ff00" stroke-width=".3269" points="857.2273,-19.204 847.1439,-22.4559 857.0544,-26.2018 857.2273,-19.204"/>
</g>
<!-- H_agent&#45;&gt;1917 -->
<g id="edge116" class="edge">
<title>H_agent&#45;&gt;1917</title>
<path fill="none" stroke="#ff0000" stroke-width=".1549" d="M2334,-437.2684C2334,-430.6517 2334,-421.2402 2334,-411.8006"/>
<polygon fill="#ff0000" stroke="#ff0000" stroke-width=".1549" points="2337.5001,-411.6774 2334,-401.6774 2330.5001,-411.6774 2337.5001,-411.6774"/>
</g>
<!-- H_lm -->
<g id="node23" class="node">
<title>H_lm</title>
<polygon fill="#d3d3d3" stroke="#000000" points="2753.5,-455.3869 2716.5,-455.3869 2716.5,-437.3869 2753.5,-437.3869 2753.5,-455.3869"/>
<text text-anchor="middle" x="2735" y="-444.1869" font-family="Times,serif" font-size="9.00" fill="#000000">H_lm</text>
</g>
<!-- H_lm&#45;&gt;right -->
<g id="edge44" class="edge">
<title>H_lm&#45;&gt;right</title>
<path fill="none" stroke="#00ff00" stroke-width=".3789" d="M2721.3191,-437.2914C2692.9359,-418.7849 2625.1071,-376.4287 2563,-351.8894 2476.2039,-317.5952 2367.8711,-295.2768 2314.2509,-285.5038"/>
<polygon fill="#00ff00" stroke="#00ff00" stroke-width=".3789" points="2314.7396,-282.0357 2304.279,-283.7166 2313.5047,-288.9259 2314.7396,-282.0357"/>
</g>
<!-- H_lm&#45;&gt;left -->
<g id="edge64" class="edge">
<title>H_lm&#45;&gt;left</title>
<path fill="none" stroke="#00ff00" stroke-width=".3615" stroke-dasharray="1,5" d="M2716.4535,-445.9849C2576.4003,-442.9052 1689.0667,-422.5992 1637,-401.3869 1606.5446,-388.9791 1609.7072,-369.6036 1582,-351.8894 1547.7787,-330.0106 1529.4612,-341.5793 1498,-315.8894 1494.4521,-312.9924 1491.1918,-309.4669 1488.2796,-305.768"/>
<polygon fill="#00ff00" stroke="#00ff00" stroke-width=".3615" points="1491.1147,-303.7153 1482.484,-297.5702 1485.3989,-307.7562 1491.1147,-303.7153"/>
</g>
<!-- H_lm&#45;&gt;ccw -->
<g id="edge53" class="edge">
<title>H_lm&#45;&gt;ccw</title>
<path fill="none" stroke="#00ff00" stroke-width="1.0596" d="M2753.7866,-440.8981C2772.9291,-434.3991 2802.2536,-421.8014 2820,-401.3869 2857.6955,-358.0239 2864,-337.2839 2864,-279.8269 2864,-279.8269 2864,-279.8269 2864,-183.0158 2864,31.2812 2605.5904,-106.8314 2393,-79.8406 2080.5325,-40.1693 1053.0866,-24.9072 857.3647,-22.3273"/>
<polygon fill="#00ff00" stroke="#00ff00" stroke-width="1.0596" points="857.2111,-18.8251 847.1664,-22.1945 857.1199,-25.8245 857.2111,-18.8251"/>
</g>
<!-- H_lm&#45;&gt;cw -->
<g id="edge94" class="edge">
<title>H_lm&#45;&gt;cw</title>
<path fill="none" stroke="#ff0000" stroke-width=".3255" d="M2753.5997,-439.7173C2769.6665,-432.846 2791.8507,-420.4296 2802,-401.3869 2812.347,-381.9732 2815.0667,-369.5872 2802,-351.8894 2621.9449,-108.0193 2446.5759,-210.6586 2148,-158.267 1997.6512,-131.8851 1513.5096,-108.1813 1388.6171,-102.3963"/>
<polygon fill="#ff0000" stroke="#ff0000" stroke-width=".3255" points="1388.4601,-98.8854 1378.3097,-101.9219 1388.1381,-105.878 1388.4601,-98.8854"/>
</g>
<!-- 1508 -->
<g id="node44" class="node">
<title>1508</title>
<ellipse fill="#ffffff" stroke="#000000" cx="2735" cy="-376.6381" rx="25" ry="25"/>
<text text-anchor="middle" x="2735" y="-374.4381" font-family="Times,serif" font-size="9.00" fill="#000000">1508</text>
</g>
<!-- H_lm&#45;&gt;1508 -->
<g id="edge109" class="edge">
<title>H_lm&#45;&gt;1508</title>
<path fill="none" stroke="#ff0000" stroke-width=".351" stroke-dasharray="1,5" d="M2735,-437.2684C2735,-430.6517 2735,-421.2402 2735,-411.8006"/>
<polygon fill="#ff0000" stroke="#ff0000" stroke-width=".351" points="2738.5001,-411.6774 2735,-401.6774 2731.5001,-411.6774 2738.5001,-411.6774"/>
</g>
<!-- H_wall -->
<g id="node24" class="node">
<title>H_wall</title>
<polygon fill="#d3d3d3" stroke="#000000" points="2132.5,-385.6381 2089.5,-385.6381 2089.5,-367.6381 2132.5,-367.6381 2132.5,-385.6381"/>
<text text-anchor="middle" x="2111" y="-374.4381" font-family="Times,serif" font-size="9.00" fill="#000000">H_wall</text>
</g>
<!-- H_wall&#45;&gt;no_move -->
<g id="edge37" class="edge">
<title>H_wall&#45;&gt;no_move</title>
<path fill="none" stroke="#00ff00" stroke-width=".269" stroke-dasharray="1,5" d="M2099.0377,-367.5698C2092.2011,-362.6057 2083.3497,-356.5377 2075,-351.8894 2040.2238,-332.5293 2027.46,-335.8068 1993,-315.8894 1988.7648,-313.4415 1984.4583,-310.6991 1980.2449,-307.8487"/>
<polygon fill="#00ff00" stroke="#00ff00" stroke-width=".269" points="1981.9754,-304.7873 1971.7798,-301.9064 1977.9535,-310.5166 1981.9754,-304.7873"/>
</g>
<!-- H_wall&#45;&gt;right -->
<g id="edge98" class="edge">
<title>H_wall&#45;&gt;right</title>
<path fill="none" stroke="#00ff00" stroke-width=".5856" d="M2121.2335,-367.6301C2127.0995,-362.6849 2134.7229,-356.6157 2142,-351.8894 2177.6368,-328.744 2221.5832,-306.9942 2250.4016,-293.5665"/>
<polygon fill="#00ff00" stroke="#00ff00" stroke-width=".5856" points="2251.9463,-296.7084 2259.561,-289.3418 2249.0144,-290.352 2251.9463,-296.7084"/>
</g>
<!-- H_wall&#45;&gt;cw -->
<g id="edge2" class="edge">
<title>H_wall&#45;&gt;cw</title>
<path fill="none" stroke="#ff0000" stroke-width=".2397" d="M2095.7536,-367.5891C2078.5404,-356.8382 2050.4103,-337.602 2031,-315.8894 2006.127,-288.0663 2016.7901,-267.5115 1988,-243.7645 1901.6163,-172.5123 1859.6182,-185.4903 1751,-158.267 1617.9743,-124.9265 1454.3541,-108.8134 1388.5053,-103.3181"/>
<polygon fill="#ff0000" stroke="#ff0000" stroke-width=".2397" points="1388.6902,-99.8216 1378.439,-102.4979 1388.1217,-106.7985 1388.6902,-99.8216"/>
</g>
<!-- right&#45;&gt;right -->
<g id="edge15" class="edge">
<title>right&#45;&gt;right</title>
<path fill="none" stroke="#ff0000" stroke-width=".3754" d="M2297.9835,-295.889C2310.1828,-301.1185 2322.3345,-295.7644 2322.3345,-279.8269 2322.3345,-268.3719 2316.0569,-262.3842 2307.9961,-261.8641"/>
<polygon fill="#ff0000" stroke="#ff0000" stroke-width=".3754" points="2307.1552,-258.4611 2297.9835,-263.7649 2308.4609,-265.3383 2307.1552,-258.4611"/>
</g>
<!-- forward&#45;&gt;forward -->
<g id="edge26" class="edge">
<title>forward&#45;&gt;forward</title>
<path fill="none" stroke="#ff0000" stroke-width=".2461" stroke-dasharray="1,5" d="M1245.6529,-297.471C1258.017,-299.3958 1268.8198,-293.5144 1268.8198,-279.8269 1268.8198,-270.096 1263.3597,-264.3105 1255.7603,-262.4705"/>
<polygon fill="#ff0000" stroke="#ff0000" stroke-width=".2461" points="1255.7484,-258.9689 1245.6529,-262.1829 1255.5492,-265.966 1255.7484,-258.9689"/>
</g>
<!-- 2352 -->
<g id="node38" class="node">
<title>2352</title>
<ellipse fill="#ffffff" stroke="#000000" cx="514" cy="-183.0158" rx="25" ry="25"/>
<text text-anchor="middle" x="514" y="-180.8158" font-family="Times,serif" font-size="9.00" fill="#000000">2352</text>
</g>
<!-- backward&#45;&gt;2352 -->
<g id="edge127" class="edge">
<title>backward&#45;&gt;2352</title>
<path fill="none" stroke="#00ff00" stroke-width=".3296" d="M531.2524,-244.8759C528.7062,-235.7464 525.9666,-225.9233 523.4369,-216.8528"/>
<polygon fill="#00ff00" stroke="#00ff00" stroke-width=".3296" points="526.7493,-215.7009 520.6915,-207.0088 520.0066,-217.5815 526.7493,-215.7009"/>
</g>
<!-- backward&#45;&gt;982 -->
<g id="edge124" class="edge">
<title>backward&#45;&gt;982</title>
<path fill="none" stroke="#00ff00" stroke-width=".4938" d="M574.9209,-267.4481C598.9047,-259.2591 631.9991,-249.0846 662,-243.7645 918.9271,-198.2036 988.5683,-235.7377 1248,-207.7645 1293.0686,-202.905 1344.8502,-194.3466 1377.0016,-188.678"/>
<polygon fill="#00ff00" stroke="#00ff00" stroke-width=".4938" points="1377.8836,-192.0761 1387.1145,-186.876 1376.6555,-185.1847 1377.8836,-192.0761"/>
</g>
<!-- backward&#45;&gt;627 -->
<g id="edge101" class="edge">
<title>backward&#45;&gt;627</title>
<path fill="none" stroke="#ff0000" stroke-width=".1424" stroke-dasharray="1,5" d="M548.9027,-244.5071C556.2667,-211.5949 567.1357,-163.018 574.1426,-131.7018"/>
<polygon fill="#ff0000" stroke="#ff0000" stroke-width=".1424" points="577.5922,-132.3137 576.3602,-121.7907 570.7611,-130.7852 577.5922,-132.3137"/>
</g>
<!-- 2312&#45;&gt;right -->
<g id="edge126" class="edge">
<title>2312&#45;&gt;right</title>
<path fill="none" stroke="#00ff00" stroke-width=".1246" d="M2381.7199,-361.0837C2361.5399,-344.8033 2329.7239,-319.1354 2307.2587,-301.0114"/>
<polygon fill="#00ff00" stroke="#00ff00" stroke-width=".1246" points="2309.4246,-298.2618 2299.444,-294.7068 2305.0293,-303.7099 2309.4246,-298.2618"/>
</g>
<!-- 1428&#45;&gt;backward -->
<g id="edge106" class="edge">
<title>1428&#45;&gt;backward</title>
<path fill="none" stroke="#00ff00" stroke-width=".8102" stroke-dasharray="1,5" d="M262.1023,-360.4253C266.4725,-357.2653 271.2386,-354.2159 276,-351.8894 348.439,-316.4949 440.8059,-296.4173 495.1665,-286.865"/>
<polygon fill="#00ff00" stroke="#00ff00" stroke-width=".8102" points="495.9226,-290.2865 505.1879,-285.1479 494.7404,-283.3871 495.9226,-290.2865"/>
</g>
<!-- 2467&#45;&gt;backward -->
<g id="edge131" class="edge">
<title>2467&#45;&gt;backward</title>
<path fill="none" stroke="#ff0000" stroke-width=".8084" d="M435.8066,-361.2981C454.2001,-347.0526 482.0434,-325.4882 504.4646,-308.1232"/>
<polygon fill="#ff0000" stroke="#ff0000" stroke-width=".8084" points="506.6893,-310.8273 512.4522,-301.9369 502.403,-305.293 506.6893,-310.8273"/>
</g>
<!-- 2088 -->
<g id="node36" class="node">
<title>2088</title>
<ellipse fill="#ffffff" stroke="#000000" cx="1214" cy="-183.0158" rx="25" ry="25"/>
<text text-anchor="middle" x="1214" y="-180.8158" font-family="Times,serif" font-size="9.00" fill="#000000">2088</text>
</g>
<!-- 2088&#45;&gt;cw -->
<g id="edge121" class="edge">
<title>2088&#45;&gt;cw</title>
<path fill="none" stroke="#00ff00" stroke-width=".1354" d="M1234.8823,-169.3833C1240.6969,-165.6919 1247.0504,-161.7546 1253,-158.267 1279.8736,-142.5141 1311.3615,-125.7229 1332.9956,-114.4351"/>
<polygon fill="#00ff00" stroke="#00ff00" stroke-width=".1354" points="1334.6449,-117.5224 1341.9056,-109.8066 1331.4181,-111.3105 1334.6449,-117.5224"/>
</g>
<!-- 2223 -->
<g id="node37" class="node">
<title>2223</title>
<ellipse fill="#ffffff" stroke="#000000" cx="310" cy="-376.6381" rx="25" ry="25"/>
<text text-anchor="middle" x="310" y="-374.4381" font-family="Times,serif" font-size="9.00" fill="#000000">2223</text>
</g>
<!-- 2223&#45;&gt;backward -->
<g id="edge122" class="edge">
<title>2223&#45;&gt;backward</title>
<path fill="none" stroke="#ff0000" stroke-width=".1703" d="M330.5872,-362.4606C336.4007,-358.7672 342.8274,-354.965 349,-351.8894 397.9135,-327.5175 457.195,-306.4653 496.8275,-293.5135"/>
<polygon fill="#ff0000" stroke="#ff0000" stroke-width=".1703" points="498.0239,-296.8051 506.4619,-290.3981 495.8701,-290.1447 498.0239,-296.8051"/>
</g>
<!-- 2352&#45;&gt;627 -->
<g id="edge128" class="edge">
<title>2352&#45;&gt;627</title>
<path fill="none" stroke="#ff0000" stroke-width=".3304" d="M529.8781,-163.5919C539.1847,-152.207 551.0279,-137.7191 560.9712,-125.5553"/>
<polygon fill="#ff0000" stroke="#ff0000" stroke-width=".3304" points="563.8778,-127.5298 567.497,-117.5722 558.4581,-123.0994 563.8778,-127.5298"/>
</g>
<!-- 1845&#45;&gt;cw -->
<g id="edge113" class="edge">
<title>1845&#45;&gt;cw</title>
<path fill="none" stroke="#00ff00" stroke-width=".8703" stroke-dasharray="1,5" d="M1050.281,-168.1546C1056.0932,-164.4584 1062.5959,-160.8258 1069,-158.267 1159.7266,-122.0167 1275.8991,-108.0413 1329.4918,-103.2586"/>
<polygon fill="#00ff00" stroke="#00ff00" stroke-width=".8703" points="1329.9803,-106.7298 1339.6486,-102.3967 1329.3884,-99.7549 1329.9803,-106.7298"/>
</g>
<!-- 1477&#45;&gt;627 -->
<g id="edge108" class="edge">
<title>1477&#45;&gt;627</title>
<path fill="none" stroke="#ff0000" stroke-width=".4516" d="M682.7838,-258.6567C667.5544,-234.3333 641.7047,-193.2673 619,-158.267 612.392,-148.0805 605.0286,-136.9455 598.5562,-127.2283"/>
<polygon fill="#ff0000" stroke="#ff0000" stroke-width=".4516" points="601.3733,-125.1444 592.91,-118.7708 595.5515,-129.0311 601.3733,-125.1444"/>
</g>
<!-- 1993&#45;&gt;backward -->
<g id="edge119" class="edge">
<title>1993&#45;&gt;backward</title>
<path fill="none" stroke="#00ff00" stroke-width=".1343" d="M526.7945,-352.2086C528.4092,-343.9814 530.2664,-334.518 532.0942,-325.2047"/>
<polygon fill="#00ff00" stroke="#00ff00" stroke-width=".1343" points="535.5617,-325.7101 534.0532,-315.2232 528.6928,-324.362 535.5617,-325.7101"/>
</g>
<!-- 2517&#45;&gt;left -->
<g id="edge133" class="edge">
<title>2517&#45;&gt;left</title>
<path fill="none" stroke="#00ff00" stroke-width=".261" d="M1513.9735,-354.6702C1506.0823,-340.256 1495.7212,-321.3301 1487.3926,-306.1168"/>
<polygon fill="#00ff00" stroke="#00ff00" stroke-width=".261" points="1490.3819,-304.2885 1482.5098,-297.1977 1484.2418,-307.65 1490.3819,-304.2885"/>
</g>
<!-- 982&#45;&gt;cw -->
<g id="edge104" class="edge">
<title>982&#45;&gt;cw</title>
<path fill="none" stroke="#00ff00" stroke-width=".452" d="M1396.8811,-164.4173C1390.1759,-153.2015 1381.5416,-138.7591 1374.2102,-126.4958"/>
<polygon fill="#00ff00" stroke="#00ff00" stroke-width=".452" points="1377.0467,-124.4195 1368.9113,-117.6323 1371.0385,-128.0114 1377.0467,-124.4195"/>
</g>
<!-- 1508&#45;&gt;right -->
<g id="edge110" class="edge">
<title>1508&#45;&gt;right</title>
<path fill="none" stroke="#ff0000" stroke-width=".2843" d="M2710.7737,-371.406C2687.5034,-366.3846 2651.354,-358.5957 2620,-351.8894 2507.8784,-327.9078 2374.8415,-299.6997 2314.1517,-286.8452"/>
<polygon fill="#ff0000" stroke="#ff0000" stroke-width=".2843" points="2314.5308,-283.3479 2304.0226,-284.7001 2313.0804,-290.196 2314.5308,-283.3479"/>
</g>
<!-- 627&#45;&gt;ccw -->
<g id="edge100" class="edge">
<title>627&#45;&gt;ccw</title>
<path fill="none" stroke="#00ff00" stroke-width=".4561" stroke-dasharray="1,5" d="M600.3836,-91.8059C609.0356,-87.856 619.4206,-83.3562 629,-79.8406 686.1802,-58.8558 754.8046,-39.9707 793.8152,-29.8049"/>
<polygon fill="#00ff00" stroke="#00ff00" stroke-width=".4561" points="794.7285,-33.1839 803.5347,-27.2932 792.977,-26.4066 794.7285,-33.1839"/>
</g>
<!-- 1917&#45;&gt;right -->
<g id="edge117" class="edge">
<title>1917&#45;&gt;right</title>
<path fill="none" stroke="#ff0000" stroke-width=".2238" stroke-dasharray="1,5" d="M2321.9735,-354.6702C2314.6578,-341.3073 2305.2194,-324.0667 2297.2455,-309.5015"/>
<polygon fill="#ff0000" stroke="#ff0000" stroke-width=".2238" points="2300.1263,-307.4749 2292.2541,-300.384 2293.9862,-310.8363 2300.1263,-307.4749"/>
</g>
</g>
</svg>
