<?xml version="1.0" encoding="UTF-8" standalone="no"?>
<!DOCTYPE svg PUBLIC "-//W3C//DTD SVG 1.1//EN"
 "http://www.w3.org/Graphics/SVG/1.1/DTD/svg11.dtd">
<!-- Generated by graphviz version 2.40.1 (20161225.0304)
 -->
<!-- Title: %3 Pages: 1 -->
<svg width="895pt" height="381pt"
 viewBox="0.00 0.00 894.50 380.72" xmlns="http://www.w3.org/2000/svg" xmlns:xlink="http://www.w3.org/1999/xlink">
<g id="graph0" class="graph" transform="scale(1 1) rotate(0) translate(4 376.7178)">
<title>%3</title>
<polygon fill="#ffffff" stroke="transparent" points="-4,4 -4,-376.7178 890.5,-376.7178 890.5,4 -4,4"/>
<!-- x&#45;vel -->
<g id="node1" class="node">
<title>x&#45;vel</title>
<polygon fill="#d3d3d3" stroke="#000000" points="35,-116.4178 0,-116.4178 0,-98.4178 35,-98.4178 35,-116.4178"/>
<text text-anchor="middle" x="17.5" y="-105.2178" font-family="Times,serif" font-size="9.00" fill="#000000">x&#45;vel</text>
</g>
<!-- right -->
<g id="node14" class="node">
<title>right</title>
<ellipse fill="#add8e6" stroke="#000000" cx="386.5" cy="-23.3345" rx="23.1702" ry="23.1702"/>
<text text-anchor="middle" x="386.5" y="-21.1345" font-family="Times,serif" font-size="9.00" fill="#000000">right</text>
</g>
<!-- x&#45;vel&#45;&gt;right -->
<g id="edge23" class="edge">
<title>x&#45;vel&#45;&gt;right</title>
<path fill="none" stroke="#ff0000" stroke-width=".574" d="M26.7823,-98.2619C32.7783,-92.8806 41.0211,-86.4179 49.5,-82.669 103.8756,-58.6277 279.2329,-35.9088 353.1503,-27.141"/>
<polygon fill="#ff0000" stroke="#ff0000" stroke-width=".574" points="353.7699,-30.5924 363.2936,-25.9501 352.9536,-23.6401 353.7699,-30.5924"/>
</g>
<!-- y&#45;vel -->
<g id="node2" class="node">
<title>y&#45;vel</title>
<polygon fill="#d3d3d3" stroke="#000000" points="239,-306.5046 204,-306.5046 204,-288.5046 239,-288.5046 239,-306.5046"/>
<text text-anchor="middle" x="221.5" y="-295.3046" font-family="Times,serif" font-size="9.00" fill="#000000">y&#45;vel</text>
</g>
<!-- none -->
<g id="node13" class="node">
<title>none</title>
<ellipse fill="#add8e6" stroke="#000000" cx="221.5" cy="-204.229" rx="24.0833" ry="24.0833"/>
<text text-anchor="middle" x="221.5" y="-202.029" font-family="Times,serif" font-size="9.00" fill="#000000">none</text>
</g>
<!-- y&#45;vel&#45;&gt;none -->
<g id="edge5" class="edge">
<title>y&#45;vel&#45;&gt;none</title>
<path fill="none" stroke="#00ff00" stroke-width=".3029" d="M221.5,-288.22C221.5,-276.664 221.5,-256.278 221.5,-238.4845"/>
<polygon fill="#00ff00" stroke="#00ff00" stroke-width=".3029" points="225.0001,-238.3938 221.5,-228.3938 218.0001,-238.3939 225.0001,-238.3938"/>
</g>
<!-- left -->
<g id="node15" class="node">
<title>left</title>
<ellipse fill="#add8e6" stroke="#000000" cx="603.5" cy="-204.229" rx="19.6" ry="19.6"/>
<text text-anchor="middle" x="603.5" y="-202.029" font-family="Times,serif" font-size="9.00" fill="#000000">left</text>
</g>
<!-- y&#45;vel&#45;&gt;left -->
<g id="edge16" class="edge">
<title>y&#45;vel&#45;&gt;left</title>
<path fill="none" stroke="#00ff00" stroke-width=".2155" d="M230.659,-288.2C235.5337,-283.8326 241.88,-279.0021 248.5,-276.2914 381.7637,-221.7242 442.146,-305.5758 570.5,-240.2914 576.1212,-237.4323 581.2597,-233.1943 585.722,-228.6189"/>
<polygon fill="#00ff00" stroke="#00ff00" stroke-width=".2155" points="588.6211,-230.6199 592.5592,-220.7841 583.347,-226.0173 588.6211,-230.6199"/>
</g>
<!-- backward -->
<g id="node17" class="node">
<title>backward</title>
<ellipse fill="#add8e6" stroke="#000000" cx="322.5" cy="-204.229" rx="36.125" ry="36.125"/>
<text text-anchor="middle" x="322.5" y="-202.029" font-family="Times,serif" font-size="9.00" fill="#000000">backward</text>
</g>
<!-- y&#45;vel&#45;&gt;backward -->
<g id="edge33" class="edge">
<title>y&#45;vel&#45;&gt;backward</title>
<path fill="none" stroke="#00ff00" stroke-width=".1694" d="M231.5535,-288.22C244.7382,-276.0437 268.5379,-254.0641 288.4841,-235.6434"/>
<polygon fill="#00ff00" stroke="#00ff00" stroke-width=".1694" points="290.938,-238.1414 295.9098,-228.7856 286.1887,-232.9989 290.938,-238.1414"/>
</g>
<!-- x&#45;pos -->
<g id="node3" class="node">
<title>x&#45;pos</title>
<polygon fill="#d3d3d3" stroke="#000000" points="364.5,-306.5046 328.5,-306.5046 328.5,-288.5046 364.5,-288.5046 364.5,-306.5046"/>
<text text-anchor="middle" x="346.5" y="-295.3046" font-family="Times,serif" font-size="9.00" fill="#000000">x&#45;pos</text>
</g>
<!-- x&#45;pos&#45;&gt;none -->
<g id="edge21" class="edge">
<title>x&#45;pos&#45;&gt;none</title>
<path fill="none" stroke="#00ff00" stroke-width=".3411" d="M335.0007,-288.339C330.2315,-284.5719 324.6253,-280.1876 319.5,-276.2914 296.068,-258.4785 269.1024,-238.7016 249.3962,-224.3791"/>
<polygon fill="#00ff00" stroke="#00ff00" stroke-width=".3411" points="251.309,-221.4428 241.1596,-218.4031 247.1982,-227.1086 251.309,-221.4428"/>
</g>
<!-- x&#45;pos&#45;&gt;right -->
<g id="edge22" class="edge">
<title>x&#45;pos&#45;&gt;right</title>
<path fill="none" stroke="#ff0000" stroke-width=".3778" stroke-dasharray="1,5" d="M350.6911,-288.4162C355.6072,-277.3164 363.5822,-257.847 367.5,-240.2914 381.7349,-176.5048 385.409,-99.9458 386.294,-56.9424"/>
<polygon fill="#ff0000" stroke="#ff0000" stroke-width=".3778" points="389.7964,-56.8175 386.4636,-46.7606 382.7974,-56.7008 389.7964,-56.8175"/>
</g>
<!-- x&#45;pos&#45;&gt;left -->
<g id="edge8" class="edge">
<title>x&#45;pos&#45;&gt;left</title>
<path fill="none" stroke="#ff0000" stroke-width=".1923" stroke-dasharray="1,5" d="M355.742,-288.3931C360.6378,-284.0749 366.9781,-279.2301 373.5,-276.2914 454.648,-239.7268 492.6146,-283.3708 570.5,-240.2914 575.9235,-237.2916 580.9382,-233.0685 585.3361,-228.5641"/>
<polygon fill="#ff0000" stroke="#ff0000" stroke-width=".1923" points="588.1221,-230.6968 592.1181,-220.8844 582.8752,-226.0632 588.1221,-230.6968"/>
</g>
<!-- forward -->
<g id="node16" class="node">
<title>forward</title>
<ellipse fill="#add8e6" stroke="#000000" cx="529.5" cy="-204.229" rx="31.6406" ry="31.6406"/>
<text text-anchor="middle" x="529.5" y="-202.029" font-family="Times,serif" font-size="9.00" fill="#000000">forward</text>
</g>
<!-- x&#45;pos&#45;&gt;forward -->
<g id="edge2" class="edge">
<title>x&#45;pos&#45;&gt;forward</title>
<path fill="none" stroke="#00ff00" stroke-width=".4176" stroke-dasharray="1,5" d="M356.8562,-288.44C361.716,-284.4344 367.7041,-279.8397 373.5,-276.2914 411.316,-253.1405 457.8036,-232.5817 490.1477,-219.4084"/>
<polygon fill="#00ff00" stroke="#00ff00" stroke-width=".4176" points="491.7354,-222.5423 499.7062,-215.5625 489.1225,-216.0483 491.7354,-222.5423"/>
</g>
<!-- x&#45;pos&#45;&gt;backward -->
<g id="edge7" class="edge">
<title>x&#45;pos&#45;&gt;backward</title>
<path fill="none" stroke="#ff0000" stroke-width=".2597" stroke-dasharray="1,5" d="M344.111,-288.22C341.7412,-279.0097 337.9282,-264.1905 334.1599,-249.5452"/>
<polygon fill="#ff0000" stroke="#ff0000" stroke-width=".2597" points="337.4581,-248.3173 331.5766,-239.505 330.6789,-250.0617 337.4581,-248.3173"/>
</g>
<!-- y&#45;pos -->
<g id="node4" class="node">
<title>y&#45;pos</title>
<polygon fill="#d3d3d3" stroke="#000000" points="418.5,-306.5046 382.5,-306.5046 382.5,-288.5046 418.5,-288.5046 418.5,-306.5046"/>
<text text-anchor="middle" x="400.5" y="-295.3046" font-family="Times,serif" font-size="9.00" fill="#000000">y&#45;pos</text>
</g>
<!-- y&#45;pos&#45;&gt;forward -->
<g id="edge9" class="edge">
<title>y&#45;pos&#45;&gt;forward</title>
<path fill="none" stroke="#ff0000" stroke-width=".5659" stroke-dasharray="1,5" d="M412.4339,-288.3447C417.3811,-284.5785 423.1936,-280.1933 428.5,-276.2914 450.4194,-260.1737 475.2961,-242.4181 494.8759,-228.5644"/>
<polygon fill="#ff0000" stroke="#ff0000" stroke-width=".5659" points="497.0455,-231.3171 503.1936,-222.6885 493.0066,-225.5998 497.0455,-231.3171"/>
</g>
<!-- x&#45;lm1&#45;vec -->
<g id="node5" class="node">
<title>x&#45;lm1&#45;vec</title>
<polygon fill="#d3d3d3" stroke="#000000" points="342,-372.7178 289,-372.7178 289,-354.7178 342,-354.7178 342,-372.7178"/>
<text text-anchor="middle" x="315.5" y="-361.5178" font-family="Times,serif" font-size="9.00" fill="#000000">x&#45;lm1&#45;vec</text>
</g>
<!-- x&#45;lm1&#45;vec&#45;&gt;none -->
<g id="edge15" class="edge">
<title>x&#45;lm1&#45;vec&#45;&gt;none</title>
<path fill="none" stroke="#00ff00" stroke-width="1.1005" stroke-dasharray="1,5" d="M288.9246,-361.5807C240.5698,-357.0815 141.2647,-344.8201 120.5,-318.7178 91.1694,-281.8477 151.2617,-240.9827 190.7382,-219.4456"/>
<polygon fill="#00ff00" stroke="#00ff00" stroke-width="1.1005" points="192.5843,-222.4284 199.7784,-214.6505 189.3041,-216.2445 192.5843,-222.4284"/>
</g>
<!-- x&#45;lm1&#45;vec&#45;&gt;right -->
<g id="edge27" class="edge">
<title>x&#45;lm1&#45;vec&#45;&gt;right</title>
<path fill="none" stroke="#00ff00" stroke-width="1.8726" d="M288.6314,-361.9138C238.038,-357.8977 131.7114,-346.305 109.5,-318.7178 97.6747,-304.0305 105.4482,-294.7071 109.5,-276.2914 130.5355,-180.6847 137.5063,-143.1265 214.5,-82.669 255.7669,-50.2652 315.8937,-34.9317 353.033,-28.1585"/>
<polygon fill="#00ff00" stroke="#00ff00" stroke-width="1.8726" points="354.0545,-31.5346 363.3191,-26.3948 352.8714,-24.6352 354.0545,-31.5346"/>
</g>
<!-- x&#45;lm1&#45;vec&#45;&gt;left -->
<g id="edge20" class="edge">
<title>x&#45;lm1&#45;vec&#45;&gt;left</title>
<path fill="none" stroke="#ff0000" stroke-width="1.8812" d="M342.0166,-362.6777C426.1715,-359.1079 683.1363,-346.0384 707.5,-318.7178 720.05,-304.6447 717.4133,-292.3314 707.5,-276.2914 688.6909,-245.8576 663.8875,-262.0664 635.5,-240.2914 630.851,-236.7253 626.3518,-232.4131 622.2681,-228.0295"/>
<polygon fill="#ff0000" stroke="#ff0000" stroke-width="1.8812" points="624.6428,-225.4283 615.4237,-220.2074 619.3748,-230.0379 624.6428,-225.4283"/>
</g>
<!-- 566 -->
<g id="node20" class="node">
<title>566</title>
<ellipse fill="#ffffff" stroke="#000000" cx="529.5" cy="-297.5046" rx="21.4286" ry="21.4286"/>
<text text-anchor="middle" x="529.5" y="-295.3046" font-family="Times,serif" font-size="9.00" fill="#000000">566</text>
</g>
<!-- x&#45;lm1&#45;vec&#45;&gt;566 -->
<g id="edge30" class="edge">
<title>x&#45;lm1&#45;vec&#45;&gt;566</title>
<path fill="none" stroke="#ff0000" stroke-width=".5035" d="M342.1207,-360.4037C378.8505,-355.1298 446.5344,-342.8596 499.5,-318.7178 501.0563,-318.0085 502.6157,-317.215 504.1604,-316.3628"/>
<polygon fill="#ff0000" stroke="#ff0000" stroke-width=".5035" points="506.0948,-319.2813 512.7244,-311.0169 502.3881,-313.3432 506.0948,-319.2813"/>
</g>
<!-- y&#45;lm1&#45;vec -->
<g id="node6" class="node">
<title>y&#45;lm1&#45;vec</title>
<polygon fill="#d3d3d3" stroke="#000000" points="622,-306.5046 569,-306.5046 569,-288.5046 622,-288.5046 622,-306.5046"/>
<text text-anchor="middle" x="595.5" y="-295.3046" font-family="Times,serif" font-size="9.00" fill="#000000">y&#45;lm1&#45;vec</text>
</g>
<!-- y&#45;lm1&#45;vec&#45;&gt;left -->
<g id="edge14" class="edge">
<title>y&#45;lm1&#45;vec&#45;&gt;left</title>
<path fill="none" stroke="#ff0000" stroke-width=".4958" d="M596.2963,-288.22C597.3651,-275.7586 599.3145,-253.0294 600.9161,-234.3554"/>
<polygon fill="#ff0000" stroke="#ff0000" stroke-width=".4958" points="604.4185,-234.4764 601.7859,-224.2139 597.4441,-233.8782 604.4185,-234.4764"/>
</g>
<!-- y&#45;lm1&#45;vec&#45;&gt;forward -->
<g id="edge36" class="edge">
<title>y&#45;lm1&#45;vec&#45;&gt;forward</title>
<path fill="none" stroke="#00ff00" stroke-width=".4131" d="M588.9304,-288.22C580.8045,-276.736 566.5084,-256.5317 553.9741,-238.8174"/>
<polygon fill="#00ff00" stroke="#00ff00" stroke-width=".4131" points="556.6304,-236.5119 547.9971,-230.3704 550.9162,-240.5552 556.6304,-236.5119"/>
</g>
<!-- y&#45;lm1&#45;vec&#45;&gt;backward -->
<g id="edge11" class="edge">
<title>y&#45;lm1&#45;vec&#45;&gt;backward</title>
<path fill="none" stroke="#ff0000" stroke-width="1.2604" d="M581.889,-288.4469C575.3187,-284.3481 567.2047,-279.6753 559.5,-276.2914 495.1686,-248.0376 416.4201,-226.496 367.8584,-214.6069"/>
<polygon fill="#ff0000" stroke="#ff0000" stroke-width="1.2604" points="368.5125,-211.1643 357.9702,-212.2174 366.8683,-217.9684 368.5125,-211.1643"/>
</g>
<!-- x&#45;lm2&#45;vec -->
<g id="node7" class="node">
<title>x&#45;lm2&#45;vec</title>
<polygon fill="#d3d3d3" stroke="#000000" points="490,-306.5046 437,-306.5046 437,-288.5046 490,-288.5046 490,-306.5046"/>
<text text-anchor="middle" x="463.5" y="-295.3046" font-family="Times,serif" font-size="9.00" fill="#000000">x&#45;lm2&#45;vec</text>
</g>
<!-- x&#45;lm2&#45;vec&#45;&gt;none -->
<g id="edge13" class="edge">
<title>x&#45;lm2&#45;vec&#45;&gt;none</title>
<path fill="none" stroke="#00ff00" stroke-width=".229" d="M450.3139,-288.4533C443.7054,-284.256 435.4367,-279.4984 427.5,-276.2914 363.9335,-250.6059 340.5449,-267.2319 277.5,-240.2914 267.7703,-236.1337 257.8418,-230.3411 249.0996,-224.6135"/>
<polygon fill="#00ff00" stroke="#00ff00" stroke-width=".229" points="251.041,-221.7011 240.8041,-218.9705 247.1038,-227.4889 251.041,-221.7011"/>
</g>
<!-- x&#45;lm2&#45;vec&#45;&gt;left -->
<g id="edge26" class="edge">
<title>x&#45;lm2&#45;vec&#45;&gt;left</title>
<path fill="none" stroke="#00ff00" stroke-width=".1296" d="M478.4419,-288.4144C484.8694,-284.5787 492.5004,-280.1233 499.5,-276.2914 530.5341,-259.3022 542.3235,-261.6886 570.5,-240.2914 575.3493,-236.6089 580.0726,-232.1577 584.3596,-227.6581"/>
<polygon fill="#00ff00" stroke="#00ff00" stroke-width=".1296" points="587.0152,-229.9395 591.1076,-220.167 581.8142,-225.2544 587.0152,-229.9395"/>
</g>
<!-- x&#45;lm2&#45;vec&#45;&gt;forward -->
<g id="edge6" class="edge">
<title>x&#45;lm2&#45;vec&#45;&gt;forward</title>
<path fill="none" stroke="#ff0000" stroke-width=".4037" stroke-dasharray="1,5" d="M470.0696,-288.22C478.1955,-276.736 492.4916,-256.5317 505.0259,-238.8174"/>
<polygon fill="#ff0000" stroke="#ff0000" stroke-width=".4037" points="508.0838,-240.5552 511.0029,-230.3704 502.3696,-236.5119 508.0838,-240.5552"/>
</g>
<!-- y&#45;lm2&#45;vec -->
<g id="node8" class="node">
<title>y&#45;lm2&#45;vec</title>
<polygon fill="#d3d3d3" stroke="#000000" points="310,-306.5046 257,-306.5046 257,-288.5046 310,-288.5046 310,-306.5046"/>
<text text-anchor="middle" x="283.5" y="-295.3046" font-family="Times,serif" font-size="9.00" fill="#000000">y&#45;lm2&#45;vec</text>
</g>
<!-- y&#45;lm2&#45;vec&#45;&gt;backward -->
<g id="edge18" class="edge">
<title>y&#45;lm2&#45;vec&#45;&gt;backward</title>
<path fill="none" stroke="#ff0000" stroke-width=".7301" stroke-dasharray="1,5" d="M287.3821,-288.22C291.4347,-278.5273 298.0847,-262.6228 304.5138,-247.2462"/>
<polygon fill="#ff0000" stroke="#ff0000" stroke-width=".7301" points="307.8347,-248.3768 308.4632,-237.8007 301.3764,-245.6765 307.8347,-248.3768"/>
</g>
<!-- x&#45;other&#45;vec -->
<g id="node9" class="node">
<title>x&#45;other&#45;vec</title>
<polygon fill="#d3d3d3" stroke="#000000" points="812.5,-306.5046 754.5,-306.5046 754.5,-288.5046 812.5,-288.5046 812.5,-306.5046"/>
<text text-anchor="middle" x="783.5" y="-295.3046" font-family="Times,serif" font-size="9.00" fill="#000000">x&#45;other&#45;vec</text>
</g>
<!-- x&#45;other&#45;vec&#45;&gt;right -->
<g id="edge24" class="edge">
<title>x&#45;other&#45;vec&#45;&gt;right</title>
<path fill="none" stroke="#00ff00" stroke-width=".5155" stroke-dasharray="1,5" d="M774.2833,-288.3478C763.6558,-277.4925 746.042,-258.5626 733.5,-240.2914 712.9949,-210.4195 721.7102,-193.1829 695.5,-168.1665 613.2559,-89.6686 480.684,-47.4734 419.4495,-31.2641"/>
<polygon fill="#00ff00" stroke="#00ff00" stroke-width=".5155" points="420.1194,-27.8223 409.5618,-28.7098 418.3685,-34.5998 420.1194,-27.8223"/>
</g>
<!-- x&#45;other&#45;vec&#45;&gt;left -->
<g id="edge4" class="edge">
<title>x&#45;other&#45;vec&#45;&gt;left</title>
<path fill="none" stroke="#00ff00" stroke-width=".1444" stroke-dasharray="1,5" d="M766.1604,-288.3194C758.4142,-284.3811 749.1078,-279.873 740.5,-276.2914 694.9522,-257.3395 676.5573,-267.6424 635.5,-240.2914 630.6237,-237.043 626.0216,-232.8747 621.9082,-228.5325"/>
<polygon fill="#00ff00" stroke="#00ff00" stroke-width=".1444" points="624.2853,-225.9326 615.0785,-220.6899 619.0063,-230.5298 624.2853,-225.9326"/>
</g>
<!-- x&#45;other&#45;vec&#45;&gt;forward -->
<g id="edge19" class="edge">
<title>x&#45;other&#45;vec&#45;&gt;forward</title>
<path fill="none" stroke="#ff0000" stroke-width=".2525" stroke-dasharray="1,5" d="M754.2821,-289.2915C740.1571,-285.3358 722.9543,-280.5397 707.5,-276.2914 648.4522,-260.0595 629.0991,-268.0234 574.5,-240.2914 569.9309,-237.9707 565.3898,-235.1362 561.0483,-232.0862"/>
<polygon fill="#ff0000" stroke="#ff0000" stroke-width=".2525" points="563.0881,-229.241 552.9904,-226.0338 558.8841,-234.838 563.0881,-229.241"/>
</g>
<!-- y&#45;other&#45;vec -->
<g id="node10" class="node">
<title>y&#45;other&#45;vec</title>
<polygon fill="#d3d3d3" stroke="#000000" points="698.5,-306.5046 640.5,-306.5046 640.5,-288.5046 698.5,-288.5046 698.5,-306.5046"/>
<text text-anchor="middle" x="669.5" y="-295.3046" font-family="Times,serif" font-size="9.00" fill="#000000">y&#45;other&#45;vec</text>
</g>
<!-- y&#45;other&#45;vec&#45;&gt;left -->
<g id="edge17" class="edge">
<title>y&#45;other&#45;vec&#45;&gt;left</title>
<path fill="none" stroke="#00ff00" stroke-width=".2169" stroke-dasharray="1,5" d="M662.9304,-288.22C653.2604,-274.5536 634.8521,-248.5379 621.0736,-229.0652"/>
<polygon fill="#00ff00" stroke="#00ff00" stroke-width=".2169" points="623.75,-226.7881 615.1168,-220.6466 618.0358,-230.8314 623.75,-226.7881"/>
</g>
<!-- y&#45;other&#45;vec&#45;&gt;forward -->
<g id="edge3" class="edge">
<title>y&#45;other&#45;vec&#45;&gt;forward</title>
<path fill="none" stroke="#ff0000" stroke-width=".4157" stroke-dasharray="1,5" d="M652.9467,-288.4284C633.6548,-277.6488 601.0334,-258.7898 574.5,-240.2914 570.5014,-237.5037 566.3961,-234.472 562.3693,-231.3898"/>
<polygon fill="#ff0000" stroke="#ff0000" stroke-width=".4157" points="564.3057,-228.4609 554.2733,-225.0547 559.9918,-233.9737 564.3057,-228.4609"/>
</g>
<!-- 611 -->
<g id="node18" class="node">
<title>611</title>
<ellipse fill="#ffffff" stroke="#000000" cx="665.5" cy="-204.229" rx="21.4286" ry="21.4286"/>
<text text-anchor="middle" x="665.5" y="-202.029" font-family="Times,serif" font-size="9.00" fill="#000000">611</text>
</g>
<!-- y&#45;other&#45;vec&#45;&gt;611 -->
<g id="edge32" class="edge">
<title>y&#45;other&#45;vec&#45;&gt;611</title>
<path fill="none" stroke="#00ff00" stroke-width=".1554" stroke-dasharray="1,5" d="M669.1018,-288.22C668.5807,-276.0682 667.6409,-254.1524 666.8519,-235.7545"/>
<polygon fill="#00ff00" stroke="#00ff00" stroke-width=".1554" points="670.3463,-235.546 666.421,-225.7051 663.3527,-235.8459 670.3463,-235.546"/>
</g>
<!-- x&#45;other&#45;vel -->
<g id="node11" class="node">
<title>x&#45;other&#45;vel</title>
<polygon fill="#d3d3d3" stroke="#000000" points="886.5,-306.5046 830.5,-306.5046 830.5,-288.5046 886.5,-288.5046 886.5,-306.5046"/>
<text text-anchor="middle" x="858.5" y="-295.3046" font-family="Times,serif" font-size="9.00" fill="#000000">x&#45;other&#45;vel</text>
</g>
<!-- x&#45;other&#45;vel&#45;&gt;right -->
<g id="edge25" class="edge">
<title>x&#45;other&#45;vel&#45;&gt;right</title>
<path fill="none" stroke="#00ff00" stroke-width=".4134" stroke-dasharray="1,5" d="M859.4019,-288.2386C862.132,-254.3108 866.5036,-136.0649 801.5,-82.669 743.3361,-34.8915 508.2399,-25.5851 420.0963,-23.7727"/>
<polygon fill="#00ff00" stroke="#00ff00" stroke-width=".4134" points="420.1607,-20.2734 410.0973,-23.5868 420.0305,-27.2722 420.1607,-20.2734"/>
</g>
<!-- x&#45;other&#45;vel&#45;&gt;left -->
<g id="edge29" class="edge">
<title>x&#45;other&#45;vel&#45;&gt;left</title>
<path fill="none" stroke="#ff0000" stroke-width=".1284" d="M844.976,-288.3114C838.1908,-284.0805 829.6898,-279.3356 821.5,-276.2914 742.5752,-246.9545 708.6505,-281.9902 635.5,-240.2914 630.1893,-237.2641 625.3044,-233.0291 621.0345,-228.5219"/>
<polygon fill="#ff0000" stroke="#ff0000" stroke-width=".1284" points="623.6246,-226.1655 614.4627,-220.8448 618.3068,-230.7176 623.6246,-226.1655"/>
</g>
<!-- x&#45;other&#45;vel&#45;&gt;forward -->
<g id="edge12" class="edge">
<title>x&#45;other&#45;vel&#45;&gt;forward</title>
<path fill="none" stroke="#ff0000" stroke-width=".3654" stroke-dasharray="1,5" d="M845.3785,-288.3616C838.553,-284.0354 829.8983,-279.193 821.5,-276.2914 716.6441,-240.0644 676.2362,-284.5283 574.5,-240.2914 569.8003,-238.2479 565.181,-235.5798 560.7977,-232.6186"/>
<polygon fill="#ff0000" stroke="#ff0000" stroke-width=".3654" points="562.8265,-229.766 552.7003,-226.6499 558.6731,-235.4007 562.8265,-229.766"/>
</g>
<!-- 1129 -->
<g id="node19" class="node">
<title>1129</title>
<ellipse fill="#ffffff" stroke="#000000" cx="767.5" cy="-204.229" rx="25" ry="25"/>
<text text-anchor="middle" x="767.5" y="-202.029" font-family="Times,serif" font-size="9.00" fill="#000000">1129</text>
</g>
<!-- x&#45;other&#45;vel&#45;&gt;1129 -->
<g id="edge37" class="edge">
<title>x&#45;other&#45;vel&#45;&gt;1129</title>
<path fill="none" stroke="#00ff00" stroke-width=".1498" d="M849.4419,-288.22C836.1862,-274.6328 811.0217,-248.839 792.0612,-229.4044"/>
<polygon fill="#00ff00" stroke="#00ff00" stroke-width=".1498" points="794.3694,-226.7583 784.8809,-222.0446 789.3589,-231.6466 794.3694,-226.7583"/>
</g>
<!-- 1015 -->
<g id="node21" class="node">
<title>1015</title>
<ellipse fill="#ffffff" stroke="#000000" cx="767.5" cy="-107.4178" rx="25" ry="25"/>
<text text-anchor="middle" x="767.5" y="-105.2178" font-family="Times,serif" font-size="9.00" fill="#000000">1015</text>
</g>
<!-- x&#45;other&#45;vel&#45;&gt;1015 -->
<g id="edge34" class="edge">
<title>x&#45;other&#45;vel&#45;&gt;1015</title>
<path fill="none" stroke="#00ff00" stroke-width=".3952" stroke-dasharray="1,5" d="M854.7859,-288.2717C846.0982,-266.8646 823.5145,-212.3031 801.5,-168.1665 796.4717,-158.0854 790.5976,-147.2918 785.1602,-137.6411"/>
<polygon fill="#00ff00" stroke="#00ff00" stroke-width=".3952" points="788.1141,-135.7553 780.1227,-128.7991 782.0319,-139.2205 788.1141,-135.7553"/>
</g>
<!-- y&#45;other&#45;vel -->
<g id="node12" class="node">
<title>y&#45;other&#45;vel</title>
<polygon fill="#d3d3d3" stroke="#000000" points="185.5,-306.5046 129.5,-306.5046 129.5,-288.5046 185.5,-288.5046 185.5,-306.5046"/>
<text text-anchor="middle" x="157.5" y="-295.3046" font-family="Times,serif" font-size="9.00" fill="#000000">y&#45;other&#45;vel</text>
</g>
<!-- y&#45;other&#45;vel&#45;&gt;none -->
<g id="edge28" class="edge">
<title>y&#45;other&#45;vel&#45;&gt;none</title>
<path fill="none" stroke="#ff0000" stroke-width=".2513" d="M163.8705,-288.22C172.6992,-275.3529 189.0391,-251.5385 202.0714,-232.5448"/>
<polygon fill="#ff0000" stroke="#ff0000" stroke-width=".2513" points="205.0159,-234.4398 207.7876,-224.2139 199.2439,-230.4794 205.0159,-234.4398"/>
</g>
<!-- y&#45;other&#45;vel&#45;&gt;right -->
<g id="edge10" class="edge">
<title>y&#45;other&#45;vel&#45;&gt;right</title>
<path fill="none" stroke="#00ff00" stroke-width=".1679" stroke-dasharray="1,5" d="M157.5964,-288.1865C158.2534,-265.6513 162.5285,-207.1874 188.5,-168.1665 231.0405,-104.2518 311.8526,-58.5335 355.9403,-37.0784"/>
<polygon fill="#00ff00" stroke="#00ff00" stroke-width=".1679" points="357.5011,-40.2118 365.0224,-32.7499 354.4894,-33.8928 357.5011,-40.2118"/>
</g>
<!-- y&#45;other&#45;vel&#45;&gt;forward -->
<g id="edge1" class="edge">
<title>y&#45;other&#45;vel&#45;&gt;forward</title>
<path fill="none" stroke="#00ff00" stroke-width=".1658" stroke-dasharray="1,5" d="M171.0427,-288.3613C177.8324,-284.1421 186.3317,-279.3928 194.5,-276.2914 267.9218,-248.4143 290.7239,-256.8243 367.5,-240.2914 408.5484,-231.4521 455.3588,-220.9904 488.0695,-213.6178"/>
<polygon fill="#00ff00" stroke="#00ff00" stroke-width=".1658" points="489.185,-216.9542 498.1692,-211.3386 487.644,-210.1259 489.185,-216.9542"/>
</g>
<!-- backward&#45;&gt;1015 -->
<g id="edge39" class="edge">
<title>backward&#45;&gt;1015</title>
<path fill="none" stroke="#ff0000" stroke-width=".3339" d="M357.7904,-196.5514C441.3772,-178.3669 650.6007,-132.8496 733.1926,-114.8815"/>
<polygon fill="#ff0000" stroke="#ff0000" stroke-width=".3339" points="734.0479,-118.2773 743.0753,-112.7315 732.5598,-111.4373 734.0479,-118.2773"/>
</g>
<!-- 1129&#45;&gt;1015 -->
<g id="edge38" class="edge">
<title>1129&#45;&gt;1015</title>
<path fill="none" stroke="#ff0000" stroke-width=".6554" d="M767.5,-179.2977C767.5,-168.1182 767.5,-154.7345 767.5,-142.5629"/>
<polygon fill="#ff0000" stroke="#ff0000" stroke-width=".6554" points="771.0001,-142.2646 767.5,-132.2646 764.0001,-142.2646 771.0001,-142.2646"/>
</g>
<!-- 566&#45;&gt;forward -->
<g id="edge31" class="edge">
<title>566&#45;&gt;forward</title>
<path fill="none" stroke="#ff0000" stroke-width=".561" stroke-dasharray="1,5" d="M529.5,-275.8709C529.5,-267.0717 529.5,-256.5866 529.5,-246.3896"/>
<polygon fill="#ff0000" stroke="#ff0000" stroke-width=".561" points="533.0001,-246.3618 529.5,-236.3618 526.0001,-246.3618 533.0001,-246.3618"/>
</g>
<!-- 1015&#45;&gt;right -->
<g id="edge35" class="edge">
<title>1015&#45;&gt;right</title>
<path fill="none" stroke="#ff0000" stroke-width=".3069" d="M747.2574,-92.459C741.4453,-88.7624 734.9331,-85.154 728.5,-82.669 620.8922,-41.1025 482.9873,-28.523 420.2629,-24.8215"/>
<polygon fill="#ff0000" stroke="#ff0000" stroke-width=".3069" points="420.3296,-21.32 410.1522,-24.2643 419.9444,-28.3094 420.3296,-21.32"/>
</g>
</g>
</svg>
