<?xml version="1.0" encoding="UTF-8" standalone="no"?>
<!DOCTYPE svg PUBLIC "-//W3C//DTD SVG 1.1//EN"
 "http://www.w3.org/Graphics/SVG/1.1/DTD/svg11.dtd">
<!-- Generated by graphviz version 2.40.1 (20161225.0304)
 -->
<!-- Title: %3 Pages: 1 -->
<svg width="1231pt" height="288pt"
 viewBox="0.00 0.00 1230.99 288.15" xmlns="http://www.w3.org/2000/svg" xmlns:xlink="http://www.w3.org/1999/xlink">
<g id="graph0" class="graph" transform="scale(1 1) rotate(0) translate(4 284.1493)">
<title>%3</title>
<polygon fill="#ffffff" stroke="transparent" points="-4,4 -4,-284.1493 1226.9915,-284.1493 1226.9915,4 -4,4"/>
<!-- x&#45;vel -->
<g id="node1" class="node">
<title>x&#45;vel</title>
<polygon fill="#d3d3d3" stroke="#000000" points="86.4915,-213.9361 51.4915,-213.9361 51.4915,-195.9361 86.4915,-195.9361 86.4915,-213.9361"/>
<text text-anchor="middle" x="68.9915" y="-202.7361" font-family="Times,serif" font-size="9.00" fill="#000000">x&#45;vel</text>
</g>
<!-- none -->
<g id="node13" class="node">
<title>none</title>
<ellipse fill="#add8e6" stroke="#000000" cx="277.9915" cy="-111.6604" rx="24.0833" ry="24.0833"/>
<text text-anchor="middle" x="277.9915" y="-109.4604" font-family="Times,serif" font-size="9.00" fill="#000000">none</text>
</g>
<!-- x&#45;vel&#45;&gt;none -->
<g id="edge25" class="edge">
<title>x&#45;vel&#45;&gt;none</title>
<path fill="none" stroke="#00ff00" stroke-width=".3767" stroke-dasharray="1,5" d="M81.4045,-195.8725C87.1923,-191.8671 94.2728,-187.2722 100.9915,-183.7229 149.527,-158.0823 209.2552,-135.4852 245.4374,-122.7069"/>
<polygon fill="#00ff00" stroke="#00ff00" stroke-width=".3767" points="246.704,-125.972 254.9894,-119.3688 244.3946,-119.3639 246.704,-125.972"/>
</g>
<!-- forward -->
<g id="node16" class="node">
<title>forward</title>
<ellipse fill="#add8e6" stroke="#000000" cx="45.9915" cy="-111.6604" rx="31.6406" ry="31.6406"/>
<text text-anchor="middle" x="45.9915" y="-109.4604" font-family="Times,serif" font-size="9.00" fill="#000000">forward</text>
</g>
<!-- x&#45;vel&#45;&gt;forward -->
<g id="edge11" class="edge">
<title>x&#45;vel&#45;&gt;forward</title>
<path fill="none" stroke="#00ff00" stroke-width=".1893" stroke-dasharray="1,5" d="M66.7021,-195.6514C64.1991,-185.5009 60.0163,-168.5375 56.0624,-152.5026"/>
<polygon fill="#00ff00" stroke="#00ff00" stroke-width=".1893" points="59.4395,-151.5789 53.6472,-142.7077 52.6431,-153.2549 59.4395,-151.5789"/>
</g>
<!-- y&#45;vel -->
<g id="node2" class="node">
<title>y&#45;vel</title>
<polygon fill="#d3d3d3" stroke="#000000" points="1094.4915,-280.1493 1059.4915,-280.1493 1059.4915,-262.1493 1094.4915,-262.1493 1094.4915,-280.1493"/>
<text text-anchor="middle" x="1076.9915" y="-268.9493" font-family="Times,serif" font-size="9.00" fill="#000000">y&#45;vel</text>
</g>
<!-- y&#45;vel&#45;&gt;none -->
<g id="edge12" class="edge">
<title>y&#45;vel&#45;&gt;none</title>
<path fill="none" stroke="#ff0000" stroke-width=".5078" stroke-dasharray="1,5" d="M1059.3377,-270.4984C942.4313,-266.1481 284.0478,-241.0113 269.9915,-226.1493 249.5647,-204.5518 255.6644,-169.242 264.3095,-143.5385"/>
<polygon fill="#ff0000" stroke="#ff0000" stroke-width=".5078" points="267.699,-144.4589 267.8307,-133.8649 261.1212,-142.0645 267.699,-144.4589"/>
</g>
<!-- backward -->
<g id="node17" class="node">
<title>backward</title>
<ellipse fill="#add8e6" stroke="#000000" cx="1019.9915" cy="-111.6604" rx="36.125" ry="36.125"/>
<text text-anchor="middle" x="1019.9915" y="-109.4604" font-family="Times,serif" font-size="9.00" fill="#000000">backward</text>
</g>
<!-- y&#45;vel&#45;&gt;backward -->
<g id="edge13" class="edge">
<title>y&#45;vel&#45;&gt;backward</title>
<path fill="none" stroke="#00ff00" stroke-width=".1624" stroke-dasharray="1,5" d="M1075.0087,-262.0637C1071.3929,-246.0097 1063.155,-211.6809 1052.9915,-183.7229 1049.3576,-173.7267 1044.9096,-163.1972 1040.4704,-153.3678"/>
<polygon fill="#00ff00" stroke="#00ff00" stroke-width=".1624" points="1043.6086,-151.8149 1036.2438,-144.1985 1037.2514,-154.7453 1043.6086,-151.8149"/>
</g>
<!-- 795 -->
<g id="node21" class="node">
<title>795</title>
<ellipse fill="#ffffff" stroke="#000000" cx="1125.9915" cy="-204.9361" rx="21.4286" ry="21.4286"/>
<text text-anchor="middle" x="1125.9915" y="-202.7361" font-family="Times,serif" font-size="9.00" fill="#000000">795</text>
</g>
<!-- y&#45;vel&#45;&gt;795 -->
<g id="edge41" class="edge">
<title>y&#45;vel&#45;&gt;795</title>
<path fill="none" stroke="#00ff00" stroke-width=".5151" d="M1083.8047,-261.9426C1089.8398,-253.7875 1098.9407,-241.4895 1107.1465,-230.4012"/>
<polygon fill="#00ff00" stroke="#00ff00" stroke-width=".5151" points="1110.0461,-232.3667 1113.1813,-222.2463 1104.4193,-228.2026 1110.0461,-232.3667"/>
</g>
<!-- x&#45;pos -->
<g id="node3" class="node">
<title>x&#45;pos</title>
<polygon fill="#d3d3d3" stroke="#000000" points="555.9915,-280.1493 519.9915,-280.1493 519.9915,-262.1493 555.9915,-262.1493 555.9915,-280.1493"/>
<text text-anchor="middle" x="537.9915" y="-268.9493" font-family="Times,serif" font-size="9.00" fill="#000000">x&#45;pos</text>
</g>
<!-- right -->
<g id="node14" class="node">
<title>right</title>
<ellipse fill="#add8e6" stroke="#000000" cx="586.9915" cy="-111.6604" rx="23.1702" ry="23.1702"/>
<text text-anchor="middle" x="586.9915" y="-109.4604" font-family="Times,serif" font-size="9.00" fill="#000000">right</text>
</g>
<!-- x&#45;pos&#45;&gt;right -->
<g id="edge21" class="edge">
<title>x&#45;pos&#45;&gt;right</title>
<path fill="none" stroke="#00ff00" stroke-width=".1065" d="M545.9538,-261.8154C552.9016,-253.1505 562.6787,-239.5977 567.9915,-226.1493 578.2629,-200.1487 582.9816,-168.7006 585.1494,-145.3478"/>
<polygon fill="#00ff00" stroke="#00ff00" stroke-width=".1065" points="588.6495,-145.4886 585.9767,-135.2365 581.6728,-144.9178 588.6495,-145.4886"/>
</g>
<!-- x&#45;pos&#45;&gt;forward -->
<g id="edge3" class="edge">
<title>x&#45;pos&#45;&gt;forward</title>
<path fill="none" stroke="#00ff00" stroke-width=".1547" d="M519.9476,-270.9178C434.6776,-269.6414 74.8651,-262.1403 41.9915,-226.1493 23.9546,-206.4019 25.9704,-175.8104 31.949,-151.216"/>
<polygon fill="#00ff00" stroke="#00ff00" stroke-width=".1547" points="35.3618,-152.0035 34.6037,-141.4358 28.6062,-150.1697 35.3618,-152.0035"/>
</g>
<!-- 742 -->
<g id="node20" class="node">
<title>742</title>
<ellipse fill="#ffffff" stroke="#000000" cx="537.9915" cy="-204.9361" rx="21.4286" ry="21.4286"/>
<text text-anchor="middle" x="537.9915" y="-202.7361" font-family="Times,serif" font-size="9.00" fill="#000000">742</text>
</g>
<!-- x&#45;pos&#45;&gt;742 -->
<g id="edge37" class="edge">
<title>x&#45;pos&#45;&gt;742</title>
<path fill="none" stroke="#00ff00" stroke-width=".553" d="M537.9915,-261.9426C537.9915,-255.2816 537.9915,-245.8567 537.9915,-236.5846"/>
<polygon fill="#00ff00" stroke="#00ff00" stroke-width=".553" points="541.4916,-236.3364 537.9915,-226.3365 534.4916,-236.3365 541.4916,-236.3364"/>
</g>
<!-- y&#45;pos -->
<g id="node4" class="node">
<title>y&#45;pos</title>
<polygon fill="#d3d3d3" stroke="#000000" points="386.9915,-213.9361 350.9915,-213.9361 350.9915,-195.9361 386.9915,-195.9361 386.9915,-213.9361"/>
<text text-anchor="middle" x="368.9915" y="-202.7361" font-family="Times,serif" font-size="9.00" fill="#000000">y&#45;pos</text>
</g>
<!-- y&#45;pos&#45;&gt;none -->
<g id="edge8" class="edge">
<title>y&#45;pos&#45;&gt;none</title>
<path fill="none" stroke="#00ff00" stroke-width=".1795" stroke-dasharray="1,5" d="M359.9334,-195.6514C346.5983,-181.9829 321.2114,-155.9612 302.2128,-136.4874"/>
<polygon fill="#00ff00" stroke="#00ff00" stroke-width=".1795" points="304.5163,-133.8365 295.0278,-129.1228 299.5058,-138.7248 304.5163,-133.8365"/>
</g>
<!-- y&#45;pos&#45;&gt;right -->
<g id="edge5" class="edge">
<title>y&#45;pos&#45;&gt;right</title>
<path fill="none" stroke="#ff0000" stroke-width=".2432" stroke-dasharray="1,5" d="M378.9798,-195.8892C383.8594,-191.7928 389.9678,-187.1189 395.9915,-183.7229 448.4212,-154.1641 515.3426,-132.1101 554.4562,-120.6118"/>
<polygon fill="#ff0000" stroke="#ff0000" stroke-width=".2432" points="555.6095,-123.9218 564.2456,-117.7843 553.6671,-117.1967 555.6095,-123.9218"/>
</g>
<!-- x&#45;lm1&#45;vec -->
<g id="node5" class="node">
<title>x&#45;lm1&#45;vec</title>
<polygon fill="#d3d3d3" stroke="#000000" points="332.4915,-213.9361 279.4915,-213.9361 279.4915,-195.9361 332.4915,-195.9361 332.4915,-213.9361"/>
<text text-anchor="middle" x="305.9915" y="-202.7361" font-family="Times,serif" font-size="9.00" fill="#000000">x&#45;lm1&#45;vec</text>
</g>
<!-- x&#45;lm1&#45;vec&#45;&gt;none -->
<g id="edge7" class="edge">
<title>x&#45;lm1&#45;vec&#45;&gt;none</title>
<path fill="none" stroke="#00ff00" stroke-width=".4782" stroke-dasharray="1,5" d="M303.2044,-195.6514C299.6563,-183.8319 293.3354,-162.7751 287.9103,-144.7028"/>
<polygon fill="#00ff00" stroke="#00ff00" stroke-width=".4782" points="291.2393,-143.6188 285.0119,-135.0473 284.5349,-145.6314 291.2393,-143.6188"/>
</g>
<!-- x&#45;lm1&#45;vec&#45;&gt;right -->
<g id="edge10" class="edge">
<title>x&#45;lm1&#45;vec&#45;&gt;right</title>
<path fill="none" stroke="#ff0000" stroke-width=".4617" stroke-dasharray="1,5" d="M319.5887,-195.8468C326.1561,-191.7411 334.2714,-187.0716 341.9915,-183.7229 415.1274,-151.9989 506.3906,-129.2888 554.2373,-118.5805"/>
<polygon fill="#ff0000" stroke="#ff0000" stroke-width=".4617" points="555.0322,-121.9894 564.044,-116.4184 553.525,-115.1536 555.0322,-121.9894"/>
</g>
<!-- x&#45;lm1&#45;vec&#45;&gt;forward -->
<g id="edge9" class="edge">
<title>x&#45;lm1&#45;vec&#45;&gt;forward</title>
<path fill="none" stroke="#ff0000" stroke-width=".447" stroke-dasharray="1,5" d="M280.5882,-195.8226C235.2382,-179.5532 140.0353,-145.3989 85.8849,-125.9723"/>
<polygon fill="#ff0000" stroke="#ff0000" stroke-width=".447" points="86.8673,-122.6064 76.2728,-122.5239 84.5035,-129.1952 86.8673,-122.6064"/>
</g>
<!-- y&#45;lm1&#45;vec -->
<g id="node6" class="node">
<title>y&#45;lm1&#45;vec</title>
<polygon fill="#d3d3d3" stroke="#000000" points="716.4915,-280.1493 663.4915,-280.1493 663.4915,-262.1493 716.4915,-262.1493 716.4915,-280.1493"/>
<text text-anchor="middle" x="689.9915" y="-268.9493" font-family="Times,serif" font-size="9.00" fill="#000000">y&#45;lm1&#45;vec</text>
</g>
<!-- y&#45;lm1&#45;vec&#45;&gt;none -->
<g id="edge22" class="edge">
<title>y&#45;lm1&#45;vec&#45;&gt;none</title>
<path fill="none" stroke="#ff0000" stroke-width=".6933" stroke-dasharray="1,5" d="M663.4887,-268.9967C567.6342,-261.151 244.2196,-234.131 236.9915,-226.1493 214.455,-201.2631 235.7379,-163.1168 255.0964,-137.7873"/>
<polygon fill="#ff0000" stroke="#ff0000" stroke-width=".6933" points="258.0256,-139.7277 261.5217,-129.7263 252.5517,-135.3646 258.0256,-139.7277"/>
</g>
<!-- y&#45;lm1&#45;vec&#45;&gt;right -->
<g id="edge4" class="edge">
<title>y&#45;lm1&#45;vec&#45;&gt;right</title>
<path fill="none" stroke="#ff0000" stroke-width=".1784" stroke-dasharray="1,5" d="M700.496,-262.0083C709.2101,-253.673 720.9577,-240.4994 725.9915,-226.1493 732.233,-208.3561 735.7871,-199.835 725.9915,-183.7229 703.0207,-145.9398 653.1175,-127.0769 619.7847,-118.345"/>
<polygon fill="#ff0000" stroke="#ff0000" stroke-width=".1784" points="620.566,-114.933 610.0201,-115.9507 618.8988,-121.7316 620.566,-114.933"/>
</g>
<!-- y&#45;lm1&#45;vec&#45;&gt;backward -->
<g id="edge23" class="edge">
<title>y&#45;lm1&#45;vec&#45;&gt;backward</title>
<path fill="none" stroke="#ff0000" stroke-width=".2954" d="M716.5415,-269.4C790.5284,-264.263 994.9336,-248.1859 1014.9915,-226.1493 1031.6736,-207.8215 1033.3049,-180.2226 1030.5828,-156.7145"/>
<polygon fill="#ff0000" stroke="#ff0000" stroke-width=".2954" points="1034.0143,-155.9883 1029.1229,-146.5902 1027.086,-156.9873 1034.0143,-155.9883"/>
</g>
<!-- 747 -->
<g id="node22" class="node">
<title>747</title>
<ellipse fill="#ffffff" stroke="#000000" cx="635.9915" cy="-204.9361" rx="21.4286" ry="21.4286"/>
<text text-anchor="middle" x="635.9915" y="-202.7361" font-family="Times,serif" font-size="9.00" fill="#000000">747</text>
</g>
<!-- y&#45;lm1&#45;vec&#45;&gt;747 -->
<g id="edge39" class="edge">
<title>y&#45;lm1&#45;vec&#45;&gt;747</title>
<path fill="none" stroke="#00ff00" stroke-width=".2833" d="M682.483,-261.9426C675.627,-253.536 665.1807,-240.727 655.9257,-229.3788"/>
<polygon fill="#00ff00" stroke="#00ff00" stroke-width=".2833" points="658.4982,-226.9952 649.4656,-221.4577 653.0735,-231.4193 658.4982,-226.9952"/>
</g>
<!-- x&#45;lm2&#45;vec -->
<g id="node7" class="node">
<title>x&#45;lm2&#45;vec</title>
<polygon fill="#d3d3d3" stroke="#000000" points="972.4915,-213.9361 919.4915,-213.9361 919.4915,-195.9361 972.4915,-195.9361 972.4915,-213.9361"/>
<text text-anchor="middle" x="945.9915" y="-202.7361" font-family="Times,serif" font-size="9.00" fill="#000000">x&#45;lm2&#45;vec</text>
</g>
<!-- x&#45;lm2&#45;vec&#45;&gt;right -->
<g id="edge30" class="edge">
<title>x&#45;lm2&#45;vec&#45;&gt;right</title>
<path fill="none" stroke="#00ff00" stroke-width=".5612" d="M932.8275,-195.8292C926.2244,-191.6187 917.9536,-186.8661 909.9915,-183.7229 808.6585,-143.719 680.2349,-123.4412 620.4445,-115.6145"/>
<polygon fill="#00ff00" stroke="#00ff00" stroke-width=".5612" points="620.8004,-112.1316 610.4378,-114.3378 619.9144,-119.0754 620.8004,-112.1316"/>
</g>
<!-- x&#45;lm2&#45;vec&#45;&gt;backward -->
<g id="edge26" class="edge">
<title>x&#45;lm2&#45;vec&#45;&gt;backward</title>
<path fill="none" stroke="#00ff00" stroke-width=".112" d="M953.3574,-195.6514C962.0912,-184.6426 977.1825,-165.6203 990.7968,-148.4598"/>
<polygon fill="#00ff00" stroke="#00ff00" stroke-width=".112" points="993.8539,-150.2378 997.3271,-140.2285 988.37,-145.8872 993.8539,-150.2378"/>
</g>
<!-- y&#45;lm2&#45;vec -->
<g id="node8" class="node">
<title>y&#45;lm2&#45;vec</title>
<polygon fill="#d3d3d3" stroke="#000000" points="826.4915,-213.9361 773.4915,-213.9361 773.4915,-195.9361 826.4915,-195.9361 826.4915,-213.9361"/>
<text text-anchor="middle" x="799.9915" y="-202.7361" font-family="Times,serif" font-size="9.00" fill="#000000">y&#45;lm2&#45;vec</text>
</g>
<!-- y&#45;lm2&#45;vec&#45;&gt;none -->
<g id="edge20" class="edge">
<title>y&#45;lm2&#45;vec&#45;&gt;none</title>
<path fill="none" stroke="#ff0000" stroke-width=".1227" stroke-dasharray="1,5" d="M773.4727,-196.5002C759.458,-192.2545 741.9058,-187.2705 725.9915,-183.7229 573.1901,-149.6605 387.6542,-125.0566 312.2845,-115.7525"/>
<polygon fill="#ff0000" stroke="#ff0000" stroke-width=".1227" points="312.3319,-112.2323 301.9807,-114.4915 311.4814,-119.1805 312.3319,-112.2323"/>
</g>
<!-- left -->
<g id="node15" class="node">
<title>left</title>
<ellipse fill="#add8e6" stroke="#000000" cx="879.9915" cy="-19.799" rx="19.6" ry="19.6"/>
<text text-anchor="middle" x="879.9915" y="-17.599" font-family="Times,serif" font-size="9.00" fill="#000000">left</text>
</g>
<!-- y&#45;lm2&#45;vec&#45;&gt;left -->
<g id="edge29" class="edge">
<title>y&#45;lm2&#45;vec&#45;&gt;left</title>
<path fill="none" stroke="#00ff00" stroke-width=".1256" d="M803.9587,-195.7551C815.5708,-168.8822 849.8214,-89.619 868.1312,-47.2462"/>
<polygon fill="#00ff00" stroke="#00ff00" stroke-width=".1256" points="871.3477,-48.626 872.1015,-38.058 864.922,-45.8493 871.3477,-48.626"/>
</g>
<!-- y&#45;lm2&#45;vec&#45;&gt;backward -->
<g id="edge1" class="edge">
<title>y&#45;lm2&#45;vec&#45;&gt;backward</title>
<path fill="none" stroke="#ff0000" stroke-width=".6217" stroke-dasharray="1,5" d="M814.0285,-195.852C820.5544,-191.8425 828.5114,-187.2501 835.9915,-183.7229 878.3384,-163.7544 891.4264,-164.8717 934.9915,-147.7229 948.7947,-142.2894 963.7256,-136.0719 977.1651,-130.3472"/>
<polygon fill="#ff0000" stroke="#ff0000" stroke-width=".6217" points="978.8363,-133.439 986.6502,-126.284 976.0799,-127.0045 978.8363,-133.439"/>
</g>
<!-- x&#45;other&#45;vec -->
<g id="node9" class="node">
<title>x&#45;other&#45;vec</title>
<polygon fill="#d3d3d3" stroke="#000000" points="1222.9915,-213.9361 1164.9915,-213.9361 1164.9915,-195.9361 1222.9915,-195.9361 1222.9915,-213.9361"/>
<text text-anchor="middle" x="1193.9915" y="-202.7361" font-family="Times,serif" font-size="9.00" fill="#000000">x&#45;other&#45;vec</text>
</g>
<!-- x&#45;other&#45;vec&#45;&gt;left -->
<g id="edge15" class="edge">
<title>x&#45;other&#45;vec&#45;&gt;left</title>
<path fill="none" stroke="#00ff00" stroke-width=".1149" d="M1187.5642,-195.9046C1170.4128,-172.464 1121.0323,-109.177 1064.9915,-75.598 1015.0143,-45.6522 947.7034,-30.6566 909.5786,-24.1087"/>
<polygon fill="#00ff00" stroke="#00ff00" stroke-width=".1149" points="910.0723,-20.643 899.638,-22.4804 908.9407,-27.5509 910.0723,-20.643"/>
</g>
<!-- x&#45;other&#45;vec&#45;&gt;backward -->
<g id="edge18" class="edge">
<title>x&#45;other&#45;vec&#45;&gt;backward</title>
<path fill="none" stroke="#ff0000" stroke-width=".6383" d="M1177.762,-195.7735C1171.0428,-192.0069 1163.1596,-187.6221 1155.9915,-183.7229 1124.2858,-166.4759 1088.1761,-147.3671 1061.1365,-133.1627"/>
<polygon fill="#ff0000" stroke="#ff0000" stroke-width=".6383" points="1062.4539,-129.9014 1051.9726,-128.3541 1059.2013,-136.0999 1062.4539,-129.9014"/>
</g>
<!-- y&#45;other&#45;vec -->
<g id="node10" class="node">
<title>y&#45;other&#45;vec</title>
<polygon fill="#d3d3d3" stroke="#000000" points="192.9915,-280.1493 134.9915,-280.1493 134.9915,-262.1493 192.9915,-262.1493 192.9915,-280.1493"/>
<text text-anchor="middle" x="163.9915" y="-268.9493" font-family="Times,serif" font-size="9.00" fill="#000000">y&#45;other&#45;vec</text>
</g>
<!-- y&#45;other&#45;vec&#45;&gt;none -->
<g id="edge19" class="edge">
<title>y&#45;other&#45;vec&#45;&gt;none</title>
<path fill="none" stroke="#00ff00" stroke-width=".3783" stroke-dasharray="1,5" d="M156.0559,-262.1457C142.5108,-245.6305 117.8825,-209.7978 133.9915,-183.7229 157.893,-145.0345 209.563,-126.4168 244.0603,-117.984"/>
<polygon fill="#00ff00" stroke="#00ff00" stroke-width=".3783" points="245.192,-121.316 254.1653,-115.683 243.6378,-114.4907 245.192,-121.316"/>
</g>
<!-- y&#45;other&#45;vec&#45;&gt;right -->
<g id="edge2" class="edge">
<title>y&#45;other&#45;vec&#45;&gt;right</title>
<path fill="none" stroke="#00ff00" stroke-width=".3579" stroke-dasharray="1,5" d="M193.2134,-269.3816C260.1226,-264.9341 422.3397,-251.7621 469.9915,-226.1493 492.2885,-214.1646 490.1734,-201.7036 507.9915,-183.7229 525.239,-166.3179 545.7023,-147.7038 561.4802,-133.7543"/>
<polygon fill="#00ff00" stroke="#00ff00" stroke-width=".3579" points="564.0606,-136.1461 569.2621,-126.916 559.4399,-130.8879 564.0606,-136.1461"/>
</g>
<!-- y&#45;other&#45;vec&#45;&gt;forward -->
<g id="edge28" class="edge">
<title>y&#45;other&#45;vec&#45;&gt;forward</title>
<path fill="none" stroke="#ff0000" stroke-width=".4928" stroke-dasharray="1,5" d="M134.7858,-266.8829C94.2216,-260.2918 24.0932,-246.2589 8.9915,-226.1493 -8.8831,-202.3472 4.6061,-169.5693 20.0809,-145.1832"/>
<polygon fill="#ff0000" stroke="#ff0000" stroke-width=".4928" points="23.1647,-146.8681 25.8175,-136.6107 17.3472,-142.975 23.1647,-146.8681"/>
</g>
<!-- y&#45;other&#45;vec&#45;&gt;backward -->
<g id="edge34" class="edge">
<title>y&#45;other&#45;vec&#45;&gt;backward</title>
<path fill="none" stroke="#ff0000" stroke-width=".1525" stroke-dasharray="1,5" d="M193.2704,-270.457C335.6379,-266.9755 950.0342,-250.5768 981.9915,-226.1493 1002.9562,-210.1242 1012.4892,-182.1391 1016.7649,-157.8491"/>
<polygon fill="#ff0000" stroke="#ff0000" stroke-width=".1525" points="1020.2634,-158.1211 1018.2935,-147.711 1013.3417,-157.0774 1020.2634,-158.1211"/>
</g>
<!-- 547 -->
<g id="node18" class="node">
<title>547</title>
<ellipse fill="#ffffff" stroke="#000000" cx="163.9915" cy="-204.9361" rx="21.4286" ry="21.4286"/>
<text text-anchor="middle" x="163.9915" y="-202.7361" font-family="Times,serif" font-size="9.00" fill="#000000">547</text>
</g>
<!-- y&#45;other&#45;vec&#45;&gt;547 -->
<g id="edge32" class="edge">
<title>y&#45;other&#45;vec&#45;&gt;547</title>
<path fill="none" stroke="#00ff00" stroke-width=".6099" d="M163.9915,-261.9426C163.9915,-255.2816 163.9915,-245.8567 163.9915,-236.5846"/>
<polygon fill="#00ff00" stroke="#00ff00" stroke-width=".6099" points="167.4916,-236.3364 163.9915,-226.3365 160.4916,-236.3365 167.4916,-236.3364"/>
</g>
<!-- x&#45;other&#45;vel -->
<g id="node11" class="node">
<title>x&#45;other&#45;vel</title>
<polygon fill="#d3d3d3" stroke="#000000" points="460.9915,-213.9361 404.9915,-213.9361 404.9915,-195.9361 460.9915,-195.9361 460.9915,-213.9361"/>
<text text-anchor="middle" x="432.9915" y="-202.7361" font-family="Times,serif" font-size="9.00" fill="#000000">x&#45;other&#45;vel</text>
</g>
<!-- x&#45;other&#45;vel&#45;&gt;none -->
<g id="edge14" class="edge">
<title>x&#45;other&#45;vel&#45;&gt;none</title>
<path fill="none" stroke="#00ff00" stroke-width=".2782" d="M417.8472,-195.8226C392.3628,-180.4866 340.4711,-149.2593 307.5622,-129.4554"/>
<polygon fill="#00ff00" stroke="#00ff00" stroke-width=".2782" points="309.1942,-126.3527 298.8213,-124.1953 305.5848,-132.3504 309.1942,-126.3527"/>
</g>
<!-- x&#45;other&#45;vel&#45;&gt;right -->
<g id="edge6" class="edge">
<title>x&#45;other&#45;vel&#45;&gt;right</title>
<path fill="none" stroke="#00ff00" stroke-width=".2358" d="M448.038,-195.8226C473.4964,-180.4028 525.4793,-148.9175 558.1459,-129.1318"/>
<polygon fill="#00ff00" stroke="#00ff00" stroke-width=".2358" points="560.0691,-132.0589 566.8092,-123.8845 556.4426,-126.0716 560.0691,-132.0589"/>
</g>
<!-- y&#45;other&#45;vel -->
<g id="node12" class="node">
<title>y&#45;other&#45;vel</title>
<polygon fill="#d3d3d3" stroke="#000000" points="900.9915,-213.9361 844.9915,-213.9361 844.9915,-195.9361 900.9915,-195.9361 900.9915,-213.9361"/>
<text text-anchor="middle" x="872.9915" y="-202.7361" font-family="Times,serif" font-size="9.00" fill="#000000">y&#45;other&#45;vel</text>
</g>
<!-- y&#45;other&#45;vel&#45;&gt;none -->
<g id="edge24" class="edge">
<title>y&#45;other&#45;vel&#45;&gt;none</title>
<path fill="none" stroke="#00ff00" stroke-width=".5929" d="M859.891,-195.7314C853.0709,-191.3895 844.4145,-186.5516 835.9915,-183.7229 716.6329,-143.6383 679.864,-163.8503 554.9915,-147.7229 467.473,-136.4197 364.421,-122.9652 312.135,-116.1283"/>
<polygon fill="#00ff00" stroke="#00ff00" stroke-width=".5929" points="312.4425,-112.6388 302.073,-114.8124 311.5346,-119.5797 312.4425,-112.6388"/>
</g>
<!-- y&#45;other&#45;vel&#45;&gt;right -->
<g id="edge17" class="edge">
<title>y&#45;other&#45;vel&#45;&gt;right</title>
<path fill="none" stroke="#ff0000" stroke-width=".1504" d="M858.9921,-195.8514C852.237,-191.7467 843.8988,-187.0767 835.9915,-183.7229 761.3036,-152.0445 668.3298,-129.2468 619.86,-118.5311"/>
<polygon fill="#ff0000" stroke="#ff0000" stroke-width=".1504" points="620.45,-115.0776 609.9341,-116.3687 618.9599,-121.9172 620.45,-115.0776"/>
</g>
<!-- y&#45;other&#45;vel&#45;&gt;left -->
<g id="edge16" class="edge">
<title>y&#45;other&#45;vel&#45;&gt;left</title>
<path fill="none" stroke="#ff0000" stroke-width=".5377" d="M872.9013,-195.8334C872.7424,-174.7001 872.6266,-120.675 874.9915,-75.598 875.4322,-67.1979 876.1458,-58.1052 876.8975,-49.7465"/>
<polygon fill="#ff0000" stroke="#ff0000" stroke-width=".5377" points="880.3944,-49.9441 877.8526,-39.6587 873.4256,-49.2842 880.3944,-49.9441"/>
</g>
<!-- y&#45;other&#45;vel&#45;&gt;backward -->
<g id="edge27" class="edge">
<title>y&#45;other&#45;vel&#45;&gt;backward</title>
<path fill="none" stroke="#00ff00" stroke-width=".3486" stroke-dasharray="1,5" d="M887.3541,-195.8226C908.7897,-182.2211 949.9253,-156.1194 980.7292,-136.5735"/>
<polygon fill="#00ff00" stroke="#00ff00" stroke-width=".3486" points="982.952,-139.3082 989.5204,-130.9952 979.2016,-133.3977 982.952,-139.3082"/>
</g>
<!-- 641 -->
<g id="node19" class="node">
<title>641</title>
<ellipse fill="#ffffff" stroke="#000000" cx="904.9915" cy="-111.6604" rx="21.4286" ry="21.4286"/>
<text text-anchor="middle" x="904.9915" y="-109.4604" font-family="Times,serif" font-size="9.00" fill="#000000">641</text>
</g>
<!-- y&#45;other&#45;vel&#45;&gt;641 -->
<g id="edge35" class="edge">
<title>y&#45;other&#45;vel&#45;&gt;641</title>
<path fill="none" stroke="#00ff00" stroke-width=".1712" d="M876.1768,-195.6514C880.4649,-183.1522 888.2969,-160.3229 894.7143,-141.617"/>
<polygon fill="#00ff00" stroke="#00ff00" stroke-width=".1712" points="898.074,-142.6095 898.0085,-132.0149 891.4528,-140.338 898.074,-142.6095"/>
</g>
<!-- 547&#45;&gt;none -->
<g id="edge33" class="edge">
<title>547&#45;&gt;none</title>
<path fill="none" stroke="#ff0000" stroke-width=".3497" d="M180.8126,-191.1729C199.3753,-175.9847 229.5053,-151.3322 251.2995,-133.5"/>
<polygon fill="#ff0000" stroke="#ff0000" stroke-width=".3497" points="253.6795,-136.075 259.2026,-127.0336 249.2468,-130.6573 253.6795,-136.075"/>
</g>
<!-- 641&#45;&gt;left -->
<g id="edge36" class="edge">
<title>641&#45;&gt;left</title>
<path fill="none" stroke="#ff0000" stroke-width=".5526" d="M899.3186,-90.8156C895.9435,-78.4138 891.6104,-62.4922 887.9028,-48.8687"/>
<polygon fill="#ff0000" stroke="#ff0000" stroke-width=".5526" points="891.2189,-47.7249 885.2157,-38.995 884.4645,-49.5632 891.2189,-47.7249"/>
</g>
<!-- 742&#45;&gt;right -->
<g id="edge38" class="edge">
<title>742&#45;&gt;right</title>
<path fill="none" stroke="#ff0000" stroke-width=".2822" d="M547.9074,-186.0604C554.6058,-173.3093 563.591,-156.2052 571.2573,-141.6118"/>
<polygon fill="#ff0000" stroke="#ff0000" stroke-width=".2822" points="574.5152,-142.936 576.0673,-132.4555 568.3182,-139.6805 574.5152,-142.936"/>
</g>
<!-- 795&#45;&gt;backward -->
<g id="edge42" class="edge">
<title>795&#45;&gt;backward</title>
<path fill="none" stroke="#00ff00" stroke-width=".3331" d="M1109.8924,-190.7695C1095.3988,-178.0158 1073.5963,-158.8305 1055.0921,-142.5476"/>
<polygon fill="#00ff00" stroke="#00ff00" stroke-width=".3331" points="1057.2141,-139.7527 1047.3946,-135.7741 1052.5898,-145.0078 1057.2141,-139.7527"/>
</g>
<!-- 747&#45;&gt;right -->
<g id="edge40" class="edge">
<title>747&#45;&gt;right</title>
<path fill="none" stroke="#00ff00" stroke-width=".1621" d="M626.0756,-186.0604C619.3772,-173.3093 610.392,-156.2052 602.7257,-141.6118"/>
<polygon fill="#00ff00" stroke="#00ff00" stroke-width=".1621" points="605.6648,-139.6805 597.9156,-132.4555 599.4678,-142.936 605.6648,-139.6805"/>
</g>
<!-- 443 -->
<g id="node23" class="node">
<title>443</title>
<ellipse fill="#ffffff" stroke="#000000" cx="695.9915" cy="-204.9361" rx="21.4286" ry="21.4286"/>
<text text-anchor="middle" x="695.9915" y="-202.7361" font-family="Times,serif" font-size="9.00" fill="#000000">443</text>
</g>
<!-- 443&#45;&gt;right -->
<g id="edge31" class="edge">
<title>443&#45;&gt;right</title>
<path fill="none" stroke="#00ff00" stroke-width=".1185" stroke-dasharray="1,5" d="M679.4367,-190.7695C661.6659,-175.5623 633.2096,-151.2111 612.5586,-133.5392"/>
<polygon fill="#00ff00" stroke="#00ff00" stroke-width=".1185" points="614.664,-130.7343 604.7905,-126.8918 610.1128,-136.0528 614.664,-130.7343"/>
</g>
</g>
</svg>
