<?xml version="1.0" encoding="utf-8" standalone="no"?>
<!DOCTYPE svg PUBLIC "-//W3C//DTD SVG 1.1//EN"
  "http://www.w3.org/Graphics/SVG/1.1/DTD/svg11.dtd">
<!-- Created with matplotlib (https://matplotlib.org/) -->
<svg height="345.6pt" version="1.1" viewBox="0 0 460.8 345.6" width="460.8pt" xmlns="http://www.w3.org/2000/svg" xmlns:xlink="http://www.w3.org/1999/xlink">
 <metadata>
  <rdf:RDF xmlns:cc="http://creativecommons.org/ns#" xmlns:dc="http://purl.org/dc/elements/1.1/" xmlns:rdf="http://www.w3.org/1999/02/22-rdf-syntax-ns#">
   <cc:Work>
    <dc:type rdf:resource="http://purl.org/dc/dcmitype/StillImage"/>
    <dc:date>2021-04-14T22:40:23.126772</dc:date>
    <dc:format>image/svg+xml</dc:format>
    <dc:creator>
     <cc:Agent>
      <dc:title>Matplotlib v3.3.4, https://matplotlib.org/</dc:title>
     </cc:Agent>
    </dc:creator>
   </cc:Work>
  </rdf:RDF>
 </metadata>
 <defs>
  <style type="text/css">*{stroke-linecap:butt;stroke-linejoin:round;}</style>
 </defs>
 <g id="figure_1">
  <g id="patch_1">
   <path d="M 0 345.6 
L 460.8 345.6 
L 460.8 0 
L 0 0 
z
" style="fill:#ffffff;"/>
  </g>
  <g id="axes_1">
   <g id="patch_2">
    <path d="M 57.6 307.584 
L 414.72 307.584 
L 414.72 41.472 
L 57.6 41.472 
z
" style="fill:#ffffff;"/>
   </g>
   <g id="matplotlib.axis_1">
    <g id="xtick_1">
     <g id="line2d_1">
      <path clip-path="url(#p9310e29a72)" d="M 73.832727 307.584 
L 73.832727 41.472 
" style="fill:none;stroke:#b0b0b0;stroke-linecap:square;stroke-width:0.8;"/>
     </g>
     <g id="line2d_2">
      <defs>
       <path d="M 0 0 
L 0 3.5 
" id="m42b2ebc4ac" style="stroke:#000000;stroke-width:0.8;"/>
      </defs>
      <g>
       <use style="stroke:#000000;stroke-width:0.8;" x="73.832727" xlink:href="#m42b2ebc4ac" y="307.584"/>
      </g>
     </g>
     <g id="text_1">
      <!-- 0 -->
      <g transform="translate(70.651477 322.182437)scale(0.1 -0.1)">
       <defs>
        <path d="M 31.78125 66.40625 
Q 24.171875 66.40625 20.328125 58.90625 
Q 16.5 51.421875 16.5 36.375 
Q 16.5 21.390625 20.328125 13.890625 
Q 24.171875 6.390625 31.78125 6.390625 
Q 39.453125 6.390625 43.28125 13.890625 
Q 47.125 21.390625 47.125 36.375 
Q 47.125 51.421875 43.28125 58.90625 
Q 39.453125 66.40625 31.78125 66.40625 
z
M 31.78125 74.21875 
Q 44.046875 74.21875 50.515625 64.515625 
Q 56.984375 54.828125 56.984375 36.375 
Q 56.984375 17.96875 50.515625 8.265625 
Q 44.046875 -1.421875 31.78125 -1.421875 
Q 19.53125 -1.421875 13.0625 8.265625 
Q 6.59375 17.96875 6.59375 36.375 
Q 6.59375 54.828125 13.0625 64.515625 
Q 19.53125 74.21875 31.78125 74.21875 
z
" id="DejaVuSans-48"/>
       </defs>
       <use xlink:href="#DejaVuSans-48"/>
      </g>
     </g>
    </g>
    <g id="xtick_2">
     <g id="line2d_3">
      <path clip-path="url(#p9310e29a72)" d="M 126.365825 307.584 
L 126.365825 41.472 
" style="fill:none;stroke:#b0b0b0;stroke-linecap:square;stroke-width:0.8;"/>
     </g>
     <g id="line2d_4">
      <g>
       <use style="stroke:#000000;stroke-width:0.8;" x="126.365825" xlink:href="#m42b2ebc4ac" y="307.584"/>
      </g>
     </g>
     <g id="text_2">
      <!-- 50 -->
      <g transform="translate(120.003325 322.182437)scale(0.1 -0.1)">
       <defs>
        <path d="M 10.796875 72.90625 
L 49.515625 72.90625 
L 49.515625 64.59375 
L 19.828125 64.59375 
L 19.828125 46.734375 
Q 21.96875 47.46875 24.109375 47.828125 
Q 26.265625 48.1875 28.421875 48.1875 
Q 40.625 48.1875 47.75 41.5 
Q 54.890625 34.8125 54.890625 23.390625 
Q 54.890625 11.625 47.5625 5.09375 
Q 40.234375 -1.421875 26.90625 -1.421875 
Q 22.3125 -1.421875 17.546875 -0.640625 
Q 12.796875 0.140625 7.71875 1.703125 
L 7.71875 11.625 
Q 12.109375 9.234375 16.796875 8.0625 
Q 21.484375 6.890625 26.703125 6.890625 
Q 35.15625 6.890625 40.078125 11.328125 
Q 45.015625 15.765625 45.015625 23.390625 
Q 45.015625 31 40.078125 35.4375 
Q 35.15625 39.890625 26.703125 39.890625 
Q 22.75 39.890625 18.8125 39.015625 
Q 14.890625 38.140625 10.796875 36.28125 
z
" id="DejaVuSans-53"/>
       </defs>
       <use xlink:href="#DejaVuSans-53"/>
       <use x="63.623047" xlink:href="#DejaVuSans-48"/>
      </g>
     </g>
    </g>
    <g id="xtick_3">
     <g id="line2d_5">
      <path clip-path="url(#p9310e29a72)" d="M 178.898923 307.584 
L 178.898923 41.472 
" style="fill:none;stroke:#b0b0b0;stroke-linecap:square;stroke-width:0.8;"/>
     </g>
     <g id="line2d_6">
      <g>
       <use style="stroke:#000000;stroke-width:0.8;" x="178.898923" xlink:href="#m42b2ebc4ac" y="307.584"/>
      </g>
     </g>
     <g id="text_3">
      <!-- 100 -->
      <g transform="translate(169.355173 322.182437)scale(0.1 -0.1)">
       <defs>
        <path d="M 12.40625 8.296875 
L 28.515625 8.296875 
L 28.515625 63.921875 
L 10.984375 60.40625 
L 10.984375 69.390625 
L 28.421875 72.90625 
L 38.28125 72.90625 
L 38.28125 8.296875 
L 54.390625 8.296875 
L 54.390625 0 
L 12.40625 0 
z
" id="DejaVuSans-49"/>
       </defs>
       <use xlink:href="#DejaVuSans-49"/>
       <use x="63.623047" xlink:href="#DejaVuSans-48"/>
       <use x="127.246094" xlink:href="#DejaVuSans-48"/>
      </g>
     </g>
    </g>
    <g id="xtick_4">
     <g id="line2d_7">
      <path clip-path="url(#p9310e29a72)" d="M 231.432021 307.584 
L 231.432021 41.472 
" style="fill:none;stroke:#b0b0b0;stroke-linecap:square;stroke-width:0.8;"/>
     </g>
     <g id="line2d_8">
      <g>
       <use style="stroke:#000000;stroke-width:0.8;" x="231.432021" xlink:href="#m42b2ebc4ac" y="307.584"/>
      </g>
     </g>
     <g id="text_4">
      <!-- 150 -->
      <g transform="translate(221.888271 322.182437)scale(0.1 -0.1)">
       <use xlink:href="#DejaVuSans-49"/>
       <use x="63.623047" xlink:href="#DejaVuSans-53"/>
       <use x="127.246094" xlink:href="#DejaVuSans-48"/>
      </g>
     </g>
    </g>
    <g id="xtick_5">
     <g id="line2d_9">
      <path clip-path="url(#p9310e29a72)" d="M 283.965119 307.584 
L 283.965119 41.472 
" style="fill:none;stroke:#b0b0b0;stroke-linecap:square;stroke-width:0.8;"/>
     </g>
     <g id="line2d_10">
      <g>
       <use style="stroke:#000000;stroke-width:0.8;" x="283.965119" xlink:href="#m42b2ebc4ac" y="307.584"/>
      </g>
     </g>
     <g id="text_5">
      <!-- 200 -->
      <g transform="translate(274.421369 322.182437)scale(0.1 -0.1)">
       <defs>
        <path d="M 19.1875 8.296875 
L 53.609375 8.296875 
L 53.609375 0 
L 7.328125 0 
L 7.328125 8.296875 
Q 12.9375 14.109375 22.625 23.890625 
Q 32.328125 33.6875 34.8125 36.53125 
Q 39.546875 41.84375 41.421875 45.53125 
Q 43.3125 49.21875 43.3125 52.78125 
Q 43.3125 58.59375 39.234375 62.25 
Q 35.15625 65.921875 28.609375 65.921875 
Q 23.96875 65.921875 18.8125 64.3125 
Q 13.671875 62.703125 7.8125 59.421875 
L 7.8125 69.390625 
Q 13.765625 71.78125 18.9375 73 
Q 24.125 74.21875 28.421875 74.21875 
Q 39.75 74.21875 46.484375 68.546875 
Q 53.21875 62.890625 53.21875 53.421875 
Q 53.21875 48.921875 51.53125 44.890625 
Q 49.859375 40.875 45.40625 35.40625 
Q 44.1875 33.984375 37.640625 27.21875 
Q 31.109375 20.453125 19.1875 8.296875 
z
" id="DejaVuSans-50"/>
       </defs>
       <use xlink:href="#DejaVuSans-50"/>
       <use x="63.623047" xlink:href="#DejaVuSans-48"/>
       <use x="127.246094" xlink:href="#DejaVuSans-48"/>
      </g>
     </g>
    </g>
    <g id="xtick_6">
     <g id="line2d_11">
      <path clip-path="url(#p9310e29a72)" d="M 336.498217 307.584 
L 336.498217 41.472 
" style="fill:none;stroke:#b0b0b0;stroke-linecap:square;stroke-width:0.8;"/>
     </g>
     <g id="line2d_12">
      <g>
       <use style="stroke:#000000;stroke-width:0.8;" x="336.498217" xlink:href="#m42b2ebc4ac" y="307.584"/>
      </g>
     </g>
     <g id="text_6">
      <!-- 250 -->
      <g transform="translate(326.954467 322.182437)scale(0.1 -0.1)">
       <use xlink:href="#DejaVuSans-50"/>
       <use x="63.623047" xlink:href="#DejaVuSans-53"/>
       <use x="127.246094" xlink:href="#DejaVuSans-48"/>
      </g>
     </g>
    </g>
    <g id="xtick_7">
     <g id="line2d_13">
      <path clip-path="url(#p9310e29a72)" d="M 389.031315 307.584 
L 389.031315 41.472 
" style="fill:none;stroke:#b0b0b0;stroke-linecap:square;stroke-width:0.8;"/>
     </g>
     <g id="line2d_14">
      <g>
       <use style="stroke:#000000;stroke-width:0.8;" x="389.031315" xlink:href="#m42b2ebc4ac" y="307.584"/>
      </g>
     </g>
     <g id="text_7">
      <!-- 300 -->
      <g transform="translate(379.487565 322.182437)scale(0.1 -0.1)">
       <defs>
        <path d="M 40.578125 39.3125 
Q 47.65625 37.796875 51.625 33 
Q 55.609375 28.21875 55.609375 21.1875 
Q 55.609375 10.40625 48.1875 4.484375 
Q 40.765625 -1.421875 27.09375 -1.421875 
Q 22.515625 -1.421875 17.65625 -0.515625 
Q 12.796875 0.390625 7.625 2.203125 
L 7.625 11.71875 
Q 11.71875 9.328125 16.59375 8.109375 
Q 21.484375 6.890625 26.8125 6.890625 
Q 36.078125 6.890625 40.9375 10.546875 
Q 45.796875 14.203125 45.796875 21.1875 
Q 45.796875 27.640625 41.28125 31.265625 
Q 36.765625 34.90625 28.71875 34.90625 
L 20.21875 34.90625 
L 20.21875 43.015625 
L 29.109375 43.015625 
Q 36.375 43.015625 40.234375 45.921875 
Q 44.09375 48.828125 44.09375 54.296875 
Q 44.09375 59.90625 40.109375 62.90625 
Q 36.140625 65.921875 28.71875 65.921875 
Q 24.65625 65.921875 20.015625 65.03125 
Q 15.375 64.15625 9.8125 62.3125 
L 9.8125 71.09375 
Q 15.4375 72.65625 20.34375 73.4375 
Q 25.25 74.21875 29.59375 74.21875 
Q 40.828125 74.21875 47.359375 69.109375 
Q 53.90625 64.015625 53.90625 55.328125 
Q 53.90625 49.265625 50.4375 45.09375 
Q 46.96875 40.921875 40.578125 39.3125 
z
" id="DejaVuSans-51"/>
       </defs>
       <use xlink:href="#DejaVuSans-51"/>
       <use x="63.623047" xlink:href="#DejaVuSans-48"/>
       <use x="127.246094" xlink:href="#DejaVuSans-48"/>
      </g>
     </g>
    </g>
    <g id="text_8">
     <!-- Generations -->
     <g transform="translate(205.662344 335.860562)scale(0.1 -0.1)">
      <defs>
       <path d="M 59.515625 10.40625 
L 59.515625 29.984375 
L 43.40625 29.984375 
L 43.40625 38.09375 
L 69.28125 38.09375 
L 69.28125 6.78125 
Q 63.578125 2.734375 56.6875 0.65625 
Q 49.8125 -1.421875 42 -1.421875 
Q 24.90625 -1.421875 15.25 8.5625 
Q 5.609375 18.5625 5.609375 36.375 
Q 5.609375 54.25 15.25 64.234375 
Q 24.90625 74.21875 42 74.21875 
Q 49.125 74.21875 55.546875 72.453125 
Q 61.96875 70.703125 67.390625 67.28125 
L 67.390625 56.78125 
Q 61.921875 61.421875 55.765625 63.765625 
Q 49.609375 66.109375 42.828125 66.109375 
Q 29.4375 66.109375 22.71875 58.640625 
Q 16.015625 51.171875 16.015625 36.375 
Q 16.015625 21.625 22.71875 14.15625 
Q 29.4375 6.6875 42.828125 6.6875 
Q 48.046875 6.6875 52.140625 7.59375 
Q 56.25 8.5 59.515625 10.40625 
z
" id="DejaVuSans-71"/>
       <path d="M 56.203125 29.59375 
L 56.203125 25.203125 
L 14.890625 25.203125 
Q 15.484375 15.921875 20.484375 11.0625 
Q 25.484375 6.203125 34.421875 6.203125 
Q 39.59375 6.203125 44.453125 7.46875 
Q 49.3125 8.734375 54.109375 11.28125 
L 54.109375 2.78125 
Q 49.265625 0.734375 44.1875 -0.34375 
Q 39.109375 -1.421875 33.890625 -1.421875 
Q 20.796875 -1.421875 13.15625 6.1875 
Q 5.515625 13.8125 5.515625 26.8125 
Q 5.515625 40.234375 12.765625 48.109375 
Q 20.015625 56 32.328125 56 
Q 43.359375 56 49.78125 48.890625 
Q 56.203125 41.796875 56.203125 29.59375 
z
M 47.21875 32.234375 
Q 47.125 39.59375 43.09375 43.984375 
Q 39.0625 48.390625 32.421875 48.390625 
Q 24.90625 48.390625 20.390625 44.140625 
Q 15.875 39.890625 15.1875 32.171875 
z
" id="DejaVuSans-101"/>
       <path d="M 54.890625 33.015625 
L 54.890625 0 
L 45.90625 0 
L 45.90625 32.71875 
Q 45.90625 40.484375 42.875 44.328125 
Q 39.84375 48.1875 33.796875 48.1875 
Q 26.515625 48.1875 22.3125 43.546875 
Q 18.109375 38.921875 18.109375 30.90625 
L 18.109375 0 
L 9.078125 0 
L 9.078125 54.6875 
L 18.109375 54.6875 
L 18.109375 46.1875 
Q 21.34375 51.125 25.703125 53.5625 
Q 30.078125 56 35.796875 56 
Q 45.21875 56 50.046875 50.171875 
Q 54.890625 44.34375 54.890625 33.015625 
z
" id="DejaVuSans-110"/>
       <path d="M 41.109375 46.296875 
Q 39.59375 47.171875 37.8125 47.578125 
Q 36.03125 48 33.890625 48 
Q 26.265625 48 22.1875 43.046875 
Q 18.109375 38.09375 18.109375 28.8125 
L 18.109375 0 
L 9.078125 0 
L 9.078125 54.6875 
L 18.109375 54.6875 
L 18.109375 46.1875 
Q 20.953125 51.171875 25.484375 53.578125 
Q 30.03125 56 36.53125 56 
Q 37.453125 56 38.578125 55.875 
Q 39.703125 55.765625 41.0625 55.515625 
z
" id="DejaVuSans-114"/>
       <path d="M 34.28125 27.484375 
Q 23.390625 27.484375 19.1875 25 
Q 14.984375 22.515625 14.984375 16.5 
Q 14.984375 11.71875 18.140625 8.90625 
Q 21.296875 6.109375 26.703125 6.109375 
Q 34.1875 6.109375 38.703125 11.40625 
Q 43.21875 16.703125 43.21875 25.484375 
L 43.21875 27.484375 
z
M 52.203125 31.203125 
L 52.203125 0 
L 43.21875 0 
L 43.21875 8.296875 
Q 40.140625 3.328125 35.546875 0.953125 
Q 30.953125 -1.421875 24.3125 -1.421875 
Q 15.921875 -1.421875 10.953125 3.296875 
Q 6 8.015625 6 15.921875 
Q 6 25.140625 12.171875 29.828125 
Q 18.359375 34.515625 30.609375 34.515625 
L 43.21875 34.515625 
L 43.21875 35.40625 
Q 43.21875 41.609375 39.140625 45 
Q 35.0625 48.390625 27.6875 48.390625 
Q 23 48.390625 18.546875 47.265625 
Q 14.109375 46.140625 10.015625 43.890625 
L 10.015625 52.203125 
Q 14.9375 54.109375 19.578125 55.046875 
Q 24.21875 56 28.609375 56 
Q 40.484375 56 46.34375 49.84375 
Q 52.203125 43.703125 52.203125 31.203125 
z
" id="DejaVuSans-97"/>
       <path d="M 18.3125 70.21875 
L 18.3125 54.6875 
L 36.8125 54.6875 
L 36.8125 47.703125 
L 18.3125 47.703125 
L 18.3125 18.015625 
Q 18.3125 11.328125 20.140625 9.421875 
Q 21.96875 7.515625 27.59375 7.515625 
L 36.8125 7.515625 
L 36.8125 0 
L 27.59375 0 
Q 17.1875 0 13.234375 3.875 
Q 9.28125 7.765625 9.28125 18.015625 
L 9.28125 47.703125 
L 2.6875 47.703125 
L 2.6875 54.6875 
L 9.28125 54.6875 
L 9.28125 70.21875 
z
" id="DejaVuSans-116"/>
       <path d="M 9.421875 54.6875 
L 18.40625 54.6875 
L 18.40625 0 
L 9.421875 0 
z
M 9.421875 75.984375 
L 18.40625 75.984375 
L 18.40625 64.59375 
L 9.421875 64.59375 
z
" id="DejaVuSans-105"/>
       <path d="M 30.609375 48.390625 
Q 23.390625 48.390625 19.1875 42.75 
Q 14.984375 37.109375 14.984375 27.296875 
Q 14.984375 17.484375 19.15625 11.84375 
Q 23.34375 6.203125 30.609375 6.203125 
Q 37.796875 6.203125 41.984375 11.859375 
Q 46.1875 17.53125 46.1875 27.296875 
Q 46.1875 37.015625 41.984375 42.703125 
Q 37.796875 48.390625 30.609375 48.390625 
z
M 30.609375 56 
Q 42.328125 56 49.015625 48.375 
Q 55.71875 40.765625 55.71875 27.296875 
Q 55.71875 13.875 49.015625 6.21875 
Q 42.328125 -1.421875 30.609375 -1.421875 
Q 18.84375 -1.421875 12.171875 6.21875 
Q 5.515625 13.875 5.515625 27.296875 
Q 5.515625 40.765625 12.171875 48.375 
Q 18.84375 56 30.609375 56 
z
" id="DejaVuSans-111"/>
       <path d="M 44.28125 53.078125 
L 44.28125 44.578125 
Q 40.484375 46.53125 36.375 47.5 
Q 32.28125 48.484375 27.875 48.484375 
Q 21.1875 48.484375 17.84375 46.4375 
Q 14.5 44.390625 14.5 40.28125 
Q 14.5 37.15625 16.890625 35.375 
Q 19.28125 33.59375 26.515625 31.984375 
L 29.59375 31.296875 
Q 39.15625 29.25 43.1875 25.515625 
Q 47.21875 21.78125 47.21875 15.09375 
Q 47.21875 7.46875 41.1875 3.015625 
Q 35.15625 -1.421875 24.609375 -1.421875 
Q 20.21875 -1.421875 15.453125 -0.5625 
Q 10.6875 0.296875 5.421875 2 
L 5.421875 11.28125 
Q 10.40625 8.6875 15.234375 7.390625 
Q 20.0625 6.109375 24.8125 6.109375 
Q 31.15625 6.109375 34.5625 8.28125 
Q 37.984375 10.453125 37.984375 14.40625 
Q 37.984375 18.0625 35.515625 20.015625 
Q 33.0625 21.96875 24.703125 23.78125 
L 21.578125 24.515625 
Q 13.234375 26.265625 9.515625 29.90625 
Q 5.8125 33.546875 5.8125 39.890625 
Q 5.8125 47.609375 11.28125 51.796875 
Q 16.75 56 26.8125 56 
Q 31.78125 56 36.171875 55.265625 
Q 40.578125 54.546875 44.28125 53.078125 
z
" id="DejaVuSans-115"/>
      </defs>
      <use xlink:href="#DejaVuSans-71"/>
      <use x="77.490234" xlink:href="#DejaVuSans-101"/>
      <use x="139.013672" xlink:href="#DejaVuSans-110"/>
      <use x="202.392578" xlink:href="#DejaVuSans-101"/>
      <use x="263.916016" xlink:href="#DejaVuSans-114"/>
      <use x="305.029297" xlink:href="#DejaVuSans-97"/>
      <use x="366.308594" xlink:href="#DejaVuSans-116"/>
      <use x="405.517578" xlink:href="#DejaVuSans-105"/>
      <use x="433.300781" xlink:href="#DejaVuSans-111"/>
      <use x="494.482422" xlink:href="#DejaVuSans-110"/>
      <use x="557.861328" xlink:href="#DejaVuSans-115"/>
     </g>
    </g>
   </g>
   <g id="matplotlib.axis_2">
    <g id="ytick_1">
     <g id="line2d_15">
      <path clip-path="url(#p9310e29a72)" d="M 57.6 229.021199 
L 414.72 229.021199 
" style="fill:none;stroke:#b0b0b0;stroke-linecap:square;stroke-width:0.8;"/>
     </g>
     <g id="line2d_16">
      <defs>
       <path d="M 0 0 
L -3.5 0 
" id="mb1558065fd" style="stroke:#000000;stroke-width:0.8;"/>
      </defs>
      <g>
       <use style="stroke:#000000;stroke-width:0.8;" x="57.6" xlink:href="#mb1558065fd" y="229.021199"/>
      </g>
     </g>
     <g id="text_9">
      <!-- $\mathdefault{-10^{4}}$ -->
      <g transform="translate(24.6 232.820418)scale(0.1 -0.1)">
       <defs>
        <path d="M 10.59375 35.5 
L 73.1875 35.5 
L 73.1875 27.203125 
L 10.59375 27.203125 
z
" id="DejaVuSans-8722"/>
        <path d="M 37.796875 64.3125 
L 12.890625 25.390625 
L 37.796875 25.390625 
z
M 35.203125 72.90625 
L 47.609375 72.90625 
L 47.609375 25.390625 
L 58.015625 25.390625 
L 58.015625 17.1875 
L 47.609375 17.1875 
L 47.609375 0 
L 37.796875 0 
L 37.796875 17.1875 
L 4.890625 17.1875 
L 4.890625 26.703125 
z
" id="DejaVuSans-52"/>
       </defs>
       <use transform="translate(0 0.684375)" xlink:href="#DejaVuSans-8722"/>
       <use transform="translate(83.789062 0.684375)" xlink:href="#DejaVuSans-49"/>
       <use transform="translate(147.412109 0.684375)" xlink:href="#DejaVuSans-48"/>
       <use transform="translate(211.992188 38.965625)scale(0.7)" xlink:href="#DejaVuSans-52"/>
      </g>
     </g>
    </g>
    <g id="text_10">
     <!-- Fitness -->
     <g transform="translate(18.520312 191.845187)rotate(-90)scale(0.1 -0.1)">
      <defs>
       <path d="M 9.8125 72.90625 
L 51.703125 72.90625 
L 51.703125 64.59375 
L 19.671875 64.59375 
L 19.671875 43.109375 
L 48.578125 43.109375 
L 48.578125 34.8125 
L 19.671875 34.8125 
L 19.671875 0 
L 9.8125 0 
z
" id="DejaVuSans-70"/>
      </defs>
      <use xlink:href="#DejaVuSans-70"/>
      <use x="50.269531" xlink:href="#DejaVuSans-105"/>
      <use x="78.052734" xlink:href="#DejaVuSans-116"/>
      <use x="117.261719" xlink:href="#DejaVuSans-110"/>
      <use x="180.640625" xlink:href="#DejaVuSans-101"/>
      <use x="242.164062" xlink:href="#DejaVuSans-115"/>
      <use x="294.263672" xlink:href="#DejaVuSans-115"/>
     </g>
    </g>
   </g>
   <g id="line2d_17">
    <path clip-path="url(#p9310e29a72)" d="M 73.832727 295.488 
L 74.883389 267.054469 
L 75.934051 253.19379 
L 76.984713 250.002555 
L 78.035375 243.405189 
L 79.086037 240.566009 
L 80.136699 231.656466 
L 81.187361 225.669082 
L 82.238023 221.827124 
L 83.288685 222.163843 
L 84.339347 218.132054 
L 85.390009 217.674781 
L 87.491333 201.332111 
L 88.541995 199.509426 
L 89.592657 208.747033 
L 90.643319 208.9279 
L 91.693981 210.826995 
L 92.744643 215.702766 
L 93.795305 212.017441 
L 94.845966 211.509935 
L 95.896628 196.272571 
L 96.94729 202.001369 
L 97.997952 210.436453 
L 99.048614 208.408781 
L 100.099276 205.893467 
L 101.149938 196.55565 
L 102.2006 197.130764 
L 103.251262 201.914737 
L 104.301924 194.998139 
L 105.352586 193.476943 
L 106.403248 196.044086 
L 107.45391 197.268283 
L 108.504572 190.384254 
L 109.555234 198.221433 
L 110.605896 199.600795 
L 111.656558 207.882859 
L 112.70722 202.798182 
L 113.757882 205.712506 
L 114.808544 207.107672 
L 115.859206 200.747537 
L 116.909868 196.180372 
L 117.96053 194.273748 
L 119.011192 179.534698 
L 120.061853 174.698335 
L 121.112515 196.840713 
L 122.163177 191.831626 
L 123.213839 185.406318 
L 124.264501 194.483073 
L 125.315163 201.495757 
L 126.365825 198.999262 
L 127.416487 181.845211 
L 128.467149 189.022466 
L 129.517811 195.367836 
L 130.568473 191.957587 
L 131.619135 193.546155 
L 132.669797 169.564804 
L 133.720459 183.486301 
L 134.771121 184.916731 
L 135.821783 181.052579 
L 136.872445 175.510977 
L 137.923107 181.599467 
L 138.973769 186.392082 
L 140.024431 179.960773 
L 141.075093 184.662249 
L 142.125755 182.988304 
L 143.176417 183.946926 
L 144.227079 164.281008 
L 145.277741 181.095221 
L 146.328402 180.826206 
L 147.379064 179.602394 
L 148.429726 188.354467 
L 149.480388 184.413879 
L 150.53105 189.571533 
L 151.581712 203.217218 
L 152.632374 204.707521 
L 153.683036 189.948259 
L 154.733698 193.637965 
L 155.78436 173.772251 
L 157.885684 187.840496 
L 158.936346 191.294722 
L 159.987008 178.831415 
L 161.03767 177.74117 
L 162.088332 172.630675 
L 163.138994 193.54867 
L 164.189656 184.54115 
L 165.240318 188.836734 
L 166.29098 196.876015 
L 167.341642 182.970328 
L 168.392304 180.115785 
L 169.442966 196.283048 
L 170.493628 190.305821 
L 171.544289 192.075762 
L 172.594951 192.578079 
L 173.645613 198.469335 
L 174.696275 207.167982 
L 175.746937 186.1574 
L 176.797599 198.562672 
L 177.848261 202.771758 
L 178.898923 190.026412 
L 179.949585 187.835699 
L 181.000247 173.56739 
L 182.050909 190.780685 
L 183.101571 177.498447 
L 184.152233 195.738972 
L 185.202895 182.190412 
L 186.253557 183.731381 
L 187.304219 175.628982 
L 188.354881 191.615227 
L 189.405543 186.454886 
L 190.456205 184.914948 
L 191.506867 182.32656 
L 192.557529 195.456396 
L 193.608191 186.100636 
L 194.658853 187.391466 
L 195.709515 181.255394 
L 196.760177 198.433152 
L 197.810838 180.774071 
L 198.8615 199.3274 
L 199.912162 196.99455 
L 200.962824 192.185446 
L 202.013486 190.562874 
L 203.064148 198.263782 
L 204.11481 193.47906 
L 205.165472 187.330244 
L 206.216134 190.742475 
L 207.266796 174.969414 
L 208.317458 173.26037 
L 209.36812 186.147772 
L 210.418782 190.786798 
L 211.469444 171.211769 
L 212.520106 189.674544 
L 213.570768 177.748742 
L 214.62143 173.418236 
L 215.672092 172.571267 
L 216.722754 192.65074 
L 217.773416 181.281353 
L 218.824078 172.716141 
L 219.87474 168.718474 
L 220.925402 182.95162 
L 221.976064 184.543275 
L 223.026726 173.99005 
L 224.077387 187.142112 
L 225.128049 189.840244 
L 226.178711 188.272287 
L 227.229373 157.750237 
L 228.280035 184.925652 
L 229.330697 166.449803 
L 230.381359 181.627927 
L 231.432021 181.24577 
L 232.482683 169.416237 
L 233.533345 193.026138 
L 234.584007 173.560199 
L 235.634669 163.766175 
L 236.685331 178.147224 
L 237.735993 167.43544 
L 238.786655 162.991446 
L 239.837317 176.275361 
L 240.887979 176.868779 
L 241.938641 188.843032 
L 242.989303 181.439647 
L 244.039965 178.531476 
L 245.090627 183.74121 
L 246.141289 170.793437 
L 247.191951 188.74785 
L 248.242613 192.725873 
L 249.293274 190.376924 
L 250.343936 191.324355 
L 251.394598 194.249818 
L 252.44526 198.01695 
L 253.495922 187.348053 
L 254.546584 183.960779 
L 255.597246 175.932344 
L 256.647908 186.667414 
L 257.69857 176.280496 
L 258.749232 191.668835 
L 259.799894 198.752185 
L 260.850556 186.632542 
L 261.901218 188.414018 
L 262.95188 197.505963 
L 264.002542 198.076111 
L 265.053204 187.562452 
L 266.103866 188.711994 
L 267.154528 178.757995 
L 268.20519 181.959109 
L 269.255852 182.040545 
L 270.306514 196.80477 
L 271.357176 194.807202 
L 272.407838 208.969231 
L 273.4585 190.35748 
L 274.509162 190.7793 
L 275.559823 193.647312 
L 276.610485 188.171336 
L 277.661147 192.785515 
L 278.711809 178.058542 
L 279.762471 193.545735 
L 280.813133 199.511852 
L 281.863795 182.033622 
L 282.914457 185.929186 
L 283.965119 190.840529 
L 285.015781 189.101255 
L 286.066443 185.303874 
L 287.117105 209.590505 
L 288.167767 189.048244 
L 289.218429 192.433752 
L 290.269091 209.367107 
L 291.319753 201.757022 
L 292.370415 189.822865 
L 293.421077 200.134951 
L 294.471739 195.805749 
L 295.522401 198.557256 
L 296.573063 215.111189 
L 297.623725 208.65686 
L 298.674387 203.037516 
L 299.725049 200.741951 
L 300.775711 190.809974 
L 301.826372 185.59438 
L 302.877034 198.981026 
L 303.927696 194.202841 
L 304.978358 185.596618 
L 306.02902 190.423262 
L 307.079682 200.467539 
L 308.130344 200.854941 
L 309.181006 185.8237 
L 310.231668 193.50671 
L 311.28233 199.425736 
L 312.332992 201.7764 
L 313.383654 179.233445 
L 314.434316 167.546885 
L 315.484978 172.510491 
L 316.53564 178.727019 
L 317.586302 179.287025 
L 319.687626 189.398325 
L 320.738288 176.285982 
L 321.78895 187.14681 
L 322.839612 173.436644 
L 323.890274 190.416998 
L 324.940936 167.516793 
L 325.991598 180.751886 
L 327.042259 176.465143 
L 328.092921 168.879289 
L 329.143583 178.609085 
L 330.194245 165.092945 
L 331.244907 162.78788 
L 332.295569 176.28527 
L 333.346231 185.231143 
L 334.396893 183.747474 
L 336.498217 193.967466 
L 337.548879 189.400627 
L 338.599541 198.409852 
L 339.650203 196.520664 
L 340.700865 200.256454 
L 341.751527 191.356196 
L 342.802189 195.126778 
L 343.852851 202.044259 
L 344.903513 204.705348 
L 345.954175 201.906202 
L 347.004837 203.129843 
L 348.055499 196.58632 
L 349.106161 181.58007 
L 350.156823 200.000637 
L 351.207485 191.157988 
L 352.258147 191.017752 
L 353.308808 183.373379 
L 354.35947 197.921855 
L 355.410132 183.340783 
L 356.460794 176.347781 
L 357.511456 185.801494 
L 358.562118 191.296754 
L 359.61278 175.034229 
L 360.663442 182.108275 
L 361.714104 188.103129 
L 362.764766 184.218229 
L 363.815428 175.47995 
L 364.86609 190.734652 
L 365.916752 196.21317 
L 366.967414 188.067315 
L 368.018076 182.785298 
L 369.068738 182.37049 
L 370.1194 193.679361 
L 371.170062 188.022467 
L 372.220724 200.538767 
L 373.271386 199.113612 
L 374.322048 191.361413 
L 375.37271 184.44847 
L 376.423372 189.776466 
L 377.474034 166.747861 
L 378.524695 182.394968 
L 379.575357 171.862057 
L 380.626019 166.243818 
L 381.676681 181.510672 
L 382.727343 172.656131 
L 383.778005 185.679134 
L 384.828667 177.374912 
L 385.879329 175.061346 
L 386.929991 171.092866 
L 387.980653 185.080956 
L 389.031315 192.260252 
L 390.081977 179.628208 
L 391.132639 189.840037 
L 392.183301 188.782187 
L 393.233963 178.987825 
L 394.284625 187.788184 
L 395.335287 194.965557 
L 396.385949 180.203447 
L 397.436611 175.122392 
L 398.487273 178.807737 
L 398.487273 178.807737 
" style="fill:none;stroke:#0000ff;stroke-linecap:square;stroke-width:1.5;"/>
   </g>
   <g id="line2d_18">
    <path clip-path="url(#p9310e29a72)" d="M 73.832727 260.640646 
L 74.883389 238.554647 
L 75.934051 221.787158 
L 76.984713 217.928876 
L 78.035375 204.881328 
L 79.086037 208.811499 
L 80.136699 192.666501 
L 81.187361 189.279032 
L 82.238023 162.269725 
L 84.339347 171.198396 
L 85.390009 182.409097 
L 86.440671 149.725377 
L 87.491333 146.834 
L 88.541995 148.81116 
L 89.592657 158.511417 
L 90.643319 139.758703 
L 91.693981 151.238847 
L 92.744643 177.487796 
L 93.795305 155.269168 
L 94.845966 148.638971 
L 95.896628 129.476198 
L 96.94729 158.79913 
L 97.997952 148.66862 
L 99.048614 159.140841 
L 100.099276 139.043937 
L 101.149938 125.873209 
L 102.2006 131.945444 
L 103.251262 128.323651 
L 104.301924 142.687552 
L 105.352586 123.404382 
L 106.403248 125.09376 
L 107.45391 108.756799 
L 108.504572 124.693102 
L 109.555234 131.370806 
L 110.605896 145.41479 
L 111.656558 169.617558 
L 112.70722 138.376793 
L 113.757882 134.068272 
L 114.808544 123.490036 
L 115.859206 145.073495 
L 116.909868 143.972731 
L 117.96053 116.323767 
L 119.011192 100.428121 
L 120.061853 105.98179 
L 121.112515 133.026893 
L 122.163177 130.05836 
L 123.213839 97.547583 
L 125.315163 125.88872 
L 126.365825 129.968147 
L 127.416487 99.768765 
L 128.467149 131.621619 
L 129.517811 126.084649 
L 130.568473 100.879775 
L 131.619135 132.664169 
L 132.669797 111.464264 
L 133.720459 110.213564 
L 134.771121 116.882865 
L 135.821783 105.449596 
L 136.872445 114.016969 
L 137.923107 113.429849 
L 138.973769 114.632906 
L 140.024431 111.751077 
L 141.075093 78.678029 
L 142.125755 112.717561 
L 143.176417 107.401732 
L 144.227079 73.973536 
L 145.277741 124.686466 
L 146.328402 116.031069 
L 147.379064 113.306997 
L 148.429726 138.937641 
L 149.480388 111.17377 
L 150.53105 104.786784 
L 151.581712 141.649255 
L 152.632374 142.41891 
L 153.683036 123.681728 
L 154.733698 125.927948 
L 155.78436 81.66193 
L 156.835022 89.124623 
L 157.885684 101.373826 
L 158.936346 99.55558 
L 159.987008 117.273087 
L 161.03767 115.262728 
L 162.088332 106.940767 
L 163.138994 138.599819 
L 164.189656 114.152397 
L 165.240318 128.578997 
L 166.29098 113.917102 
L 167.341642 88.021495 
L 168.392304 111.691083 
L 170.493628 132.47352 
L 171.544289 133.925911 
L 172.594951 112.209907 
L 173.645613 123.921474 
L 174.696275 145.214514 
L 175.746937 120.356046 
L 176.797599 134.051545 
L 177.848261 127.584864 
L 178.898923 110.632763 
L 179.949585 126.886889 
L 181.000247 96.214377 
L 182.050909 94.264496 
L 183.101571 93.453616 
L 184.152233 119.681723 
L 185.202895 100.8981 
L 186.253557 102.753131 
L 187.304219 93.422562 
L 188.354881 124.976524 
L 189.405543 115.947692 
L 190.456205 112.03277 
L 191.506867 117.008312 
L 192.557529 122.604712 
L 193.608191 123.877712 
L 194.658853 120.721294 
L 195.709515 122.578537 
L 196.760177 133.689755 
L 197.810838 114.164399 
L 198.8615 140.164229 
L 200.962824 106.806847 
L 202.013486 94.608407 
L 203.064148 124.640225 
L 204.11481 120.107909 
L 205.165472 121.192484 
L 206.216134 127.115581 
L 207.266796 86.654276 
L 208.317458 101.147568 
L 209.36812 120.983712 
L 210.418782 128.411828 
L 211.469444 87.249015 
L 212.520106 120.15083 
L 213.570768 56.070407 
L 214.62143 97.460492 
L 215.672092 94.345428 
L 216.722754 115.040531 
L 217.773416 116.125843 
L 218.824078 99.804662 
L 219.87474 68.512201 
L 220.925402 99.831289 
L 221.976064 83.846025 
L 223.026726 87.042988 
L 224.077387 95.797289 
L 225.128049 99.738507 
L 226.178711 109.659341 
L 227.229373 69.061288 
L 228.280035 76.719073 
L 229.330697 77.423498 
L 230.381359 99.616725 
L 231.432021 87.027703 
L 232.482683 97.527533 
L 233.533345 111.534325 
L 234.584007 94.009373 
L 235.634669 95.673664 
L 236.685331 79.703863 
L 237.735993 58.58887 
L 238.786655 60.301749 
L 239.837317 84.01324 
L 240.887979 66.777165 
L 242.989303 87.782766 
L 244.039965 89.764995 
L 245.090627 103.318171 
L 246.141289 93.155071 
L 247.191951 66.180025 
L 248.242613 98.502156 
L 249.293274 113.276158 
L 250.343936 119.792452 
L 251.394598 122.018384 
L 252.44526 120.365258 
L 254.546584 76.870924 
L 255.597246 81.329048 
L 256.647908 87.694091 
L 257.69857 59.855336 
L 259.799894 128.102538 
L 260.850556 109.294167 
L 261.901218 114.917966 
L 262.95188 125.054429 
L 264.002542 128.634831 
L 265.053204 96.088143 
L 266.103866 105.06004 
L 267.154528 78.251674 
L 268.20519 85.115514 
L 269.255852 112.901598 
L 270.306514 103.4189 
L 271.357176 122.10509 
L 272.407838 124.431862 
L 273.4585 106.867652 
L 274.509162 105.902639 
L 275.559823 123.450741 
L 276.610485 79.096861 
L 277.661147 112.181042 
L 278.711809 91.763156 
L 279.762471 108.68843 
L 280.813133 129.937148 
L 281.863795 98.725541 
L 283.965119 127.316194 
L 285.015781 134.407435 
L 286.066443 99.678392 
L 287.117105 137.430503 
L 288.167767 127.549556 
L 289.218429 109.133466 
L 290.269091 124.797287 
L 291.319753 104.528136 
L 292.370415 111.573252 
L 293.421077 97.676789 
L 294.471739 91.606514 
L 295.522401 126.348898 
L 296.573063 134.847557 
L 297.623725 128.831535 
L 298.674387 128.929973 
L 299.725049 103.117142 
L 300.775711 116.692025 
L 301.826372 115.294965 
L 302.877034 144.049689 
L 303.927696 132.023078 
L 304.978358 92.706945 
L 306.02902 112.497676 
L 307.079682 120.643917 
L 308.130344 125.992971 
L 309.181006 96.105819 
L 310.231668 87.29016 
L 311.28233 118.08636 
L 312.332992 128.775119 
L 313.383654 87.917136 
L 314.434316 71.482369 
L 315.484978 86.014421 
L 316.53564 88.823496 
L 317.586302 94.119187 
L 318.636964 98.379508 
L 319.687626 103.689152 
L 320.738288 53.568 
L 321.78895 115.182557 
L 322.839612 91.457236 
L 323.890274 61.582159 
L 324.940936 75.626402 
L 325.991598 96.502677 
L 327.042259 76.12804 
L 328.092921 74.01066 
L 329.143583 86.011299 
L 330.194245 60.913776 
L 331.244907 62.361659 
L 332.295569 93.546429 
L 333.346231 94.341888 
L 334.396893 116.265024 
L 335.447555 102.591119 
L 336.498217 92.284933 
L 337.548879 93.966826 
L 338.599541 120.827186 
L 339.650203 89.085892 
L 340.700865 123.383439 
L 341.751527 99.261727 
L 342.802189 104.071114 
L 343.852851 128.279067 
L 344.903513 123.873804 
L 345.954175 100.768323 
L 347.004837 111.945373 
L 348.055499 126.123966 
L 349.106161 98.228045 
L 350.156823 127.744526 
L 351.207485 117.71399 
L 352.258147 129.262665 
L 353.308808 90.398209 
L 354.35947 98.560325 
L 355.410132 100.229059 
L 356.460794 101.608565 
L 357.511456 80.807071 
L 358.562118 112.56088 
L 359.61278 88.465877 
L 360.663442 81.373062 
L 361.714104 110.886557 
L 362.764766 116.501956 
L 363.815428 96.533701 
L 364.86609 116.232971 
L 365.916752 108.985885 
L 366.967414 126.146905 
L 368.018076 82.487907 
L 369.068738 118.825497 
L 370.1194 119.225111 
L 371.170062 115.796803 
L 372.220724 118.538837 
L 373.271386 132.262637 
L 374.322048 126.578963 
L 375.37271 110.593931 
L 376.423372 101.211987 
L 377.474034 89.3072 
L 378.524695 99.389495 
L 379.575357 97.62142 
L 380.626019 106.204284 
L 381.676681 113.473462 
L 382.727343 87.36477 
L 383.778005 117.041014 
L 384.828667 112.356488 
L 385.879329 101.13913 
L 386.929991 99.542755 
L 387.980653 102.872977 
L 389.031315 126.031872 
L 390.081977 112.401825 
L 391.132639 86.77715 
L 392.183301 113.018937 
L 393.233963 100.940049 
L 394.284625 98.113109 
L 395.335287 121.397038 
L 396.385949 81.837869 
L 397.436611 76.681816 
L 398.487273 103.041572 
L 398.487273 103.041572 
" style="fill:none;stroke:#ff0000;stroke-linecap:square;stroke-width:1.5;"/>
   </g>
   <g id="patch_3">
    <path d="M 57.6 307.584 
L 57.6 41.472 
" style="fill:none;stroke:#000000;stroke-linecap:square;stroke-linejoin:miter;stroke-width:0.8;"/>
   </g>
   <g id="patch_4">
    <path d="M 414.72 307.584 
L 414.72 41.472 
" style="fill:none;stroke:#000000;stroke-linecap:square;stroke-linejoin:miter;stroke-width:0.8;"/>
   </g>
   <g id="patch_5">
    <path d="M 57.6 307.584 
L 414.72 307.584 
" style="fill:none;stroke:#000000;stroke-linecap:square;stroke-linejoin:miter;stroke-width:0.8;"/>
   </g>
   <g id="patch_6">
    <path d="M 57.6 41.472 
L 414.72 41.472 
" style="fill:none;stroke:#000000;stroke-linecap:square;stroke-linejoin:miter;stroke-width:0.8;"/>
   </g>
   <g id="text_11">
    <!-- Population's average and best fitness -->
    <g transform="translate(123.529687 35.472)scale(0.12 -0.12)">
     <defs>
      <path d="M 19.671875 64.796875 
L 19.671875 37.40625 
L 32.078125 37.40625 
Q 38.96875 37.40625 42.71875 40.96875 
Q 46.484375 44.53125 46.484375 51.125 
Q 46.484375 57.671875 42.71875 61.234375 
Q 38.96875 64.796875 32.078125 64.796875 
z
M 9.8125 72.90625 
L 32.078125 72.90625 
Q 44.34375 72.90625 50.609375 67.359375 
Q 56.890625 61.8125 56.890625 51.125 
Q 56.890625 40.328125 50.609375 34.8125 
Q 44.34375 29.296875 32.078125 29.296875 
L 19.671875 29.296875 
L 19.671875 0 
L 9.8125 0 
z
" id="DejaVuSans-80"/>
      <path d="M 18.109375 8.203125 
L 18.109375 -20.796875 
L 9.078125 -20.796875 
L 9.078125 54.6875 
L 18.109375 54.6875 
L 18.109375 46.390625 
Q 20.953125 51.265625 25.265625 53.625 
Q 29.59375 56 35.59375 56 
Q 45.5625 56 51.78125 48.09375 
Q 58.015625 40.1875 58.015625 27.296875 
Q 58.015625 14.40625 51.78125 6.484375 
Q 45.5625 -1.421875 35.59375 -1.421875 
Q 29.59375 -1.421875 25.265625 0.953125 
Q 20.953125 3.328125 18.109375 8.203125 
z
M 48.6875 27.296875 
Q 48.6875 37.203125 44.609375 42.84375 
Q 40.53125 48.484375 33.40625 48.484375 
Q 26.265625 48.484375 22.1875 42.84375 
Q 18.109375 37.203125 18.109375 27.296875 
Q 18.109375 17.390625 22.1875 11.75 
Q 26.265625 6.109375 33.40625 6.109375 
Q 40.53125 6.109375 44.609375 11.75 
Q 48.6875 17.390625 48.6875 27.296875 
z
" id="DejaVuSans-112"/>
      <path d="M 8.5 21.578125 
L 8.5 54.6875 
L 17.484375 54.6875 
L 17.484375 21.921875 
Q 17.484375 14.15625 20.5 10.265625 
Q 23.53125 6.390625 29.59375 6.390625 
Q 36.859375 6.390625 41.078125 11.03125 
Q 45.3125 15.671875 45.3125 23.6875 
L 45.3125 54.6875 
L 54.296875 54.6875 
L 54.296875 0 
L 45.3125 0 
L 45.3125 8.40625 
Q 42.046875 3.421875 37.71875 1 
Q 33.40625 -1.421875 27.6875 -1.421875 
Q 18.265625 -1.421875 13.375 4.4375 
Q 8.5 10.296875 8.5 21.578125 
z
M 31.109375 56 
z
" id="DejaVuSans-117"/>
      <path d="M 9.421875 75.984375 
L 18.40625 75.984375 
L 18.40625 0 
L 9.421875 0 
z
" id="DejaVuSans-108"/>
      <path d="M 17.921875 72.90625 
L 17.921875 45.796875 
L 9.625 45.796875 
L 9.625 72.90625 
z
" id="DejaVuSans-39"/>
      <path id="DejaVuSans-32"/>
      <path d="M 2.984375 54.6875 
L 12.5 54.6875 
L 29.59375 8.796875 
L 46.6875 54.6875 
L 56.203125 54.6875 
L 35.6875 0 
L 23.484375 0 
z
" id="DejaVuSans-118"/>
      <path d="M 45.40625 27.984375 
Q 45.40625 37.75 41.375 43.109375 
Q 37.359375 48.484375 30.078125 48.484375 
Q 22.859375 48.484375 18.828125 43.109375 
Q 14.796875 37.75 14.796875 27.984375 
Q 14.796875 18.265625 18.828125 12.890625 
Q 22.859375 7.515625 30.078125 7.515625 
Q 37.359375 7.515625 41.375 12.890625 
Q 45.40625 18.265625 45.40625 27.984375 
z
M 54.390625 6.78125 
Q 54.390625 -7.171875 48.1875 -13.984375 
Q 42 -20.796875 29.203125 -20.796875 
Q 24.46875 -20.796875 20.265625 -20.09375 
Q 16.0625 -19.390625 12.109375 -17.921875 
L 12.109375 -9.1875 
Q 16.0625 -11.328125 19.921875 -12.34375 
Q 23.78125 -13.375 27.78125 -13.375 
Q 36.625 -13.375 41.015625 -8.765625 
Q 45.40625 -4.15625 45.40625 5.171875 
L 45.40625 9.625 
Q 42.625 4.78125 38.28125 2.390625 
Q 33.9375 0 27.875 0 
Q 17.828125 0 11.671875 7.65625 
Q 5.515625 15.328125 5.515625 27.984375 
Q 5.515625 40.671875 11.671875 48.328125 
Q 17.828125 56 27.875 56 
Q 33.9375 56 38.28125 53.609375 
Q 42.625 51.21875 45.40625 46.390625 
L 45.40625 54.6875 
L 54.390625 54.6875 
z
" id="DejaVuSans-103"/>
      <path d="M 45.40625 46.390625 
L 45.40625 75.984375 
L 54.390625 75.984375 
L 54.390625 0 
L 45.40625 0 
L 45.40625 8.203125 
Q 42.578125 3.328125 38.25 0.953125 
Q 33.9375 -1.421875 27.875 -1.421875 
Q 17.96875 -1.421875 11.734375 6.484375 
Q 5.515625 14.40625 5.515625 27.296875 
Q 5.515625 40.1875 11.734375 48.09375 
Q 17.96875 56 27.875 56 
Q 33.9375 56 38.25 53.625 
Q 42.578125 51.265625 45.40625 46.390625 
z
M 14.796875 27.296875 
Q 14.796875 17.390625 18.875 11.75 
Q 22.953125 6.109375 30.078125 6.109375 
Q 37.203125 6.109375 41.296875 11.75 
Q 45.40625 17.390625 45.40625 27.296875 
Q 45.40625 37.203125 41.296875 42.84375 
Q 37.203125 48.484375 30.078125 48.484375 
Q 22.953125 48.484375 18.875 42.84375 
Q 14.796875 37.203125 14.796875 27.296875 
z
" id="DejaVuSans-100"/>
      <path d="M 48.6875 27.296875 
Q 48.6875 37.203125 44.609375 42.84375 
Q 40.53125 48.484375 33.40625 48.484375 
Q 26.265625 48.484375 22.1875 42.84375 
Q 18.109375 37.203125 18.109375 27.296875 
Q 18.109375 17.390625 22.1875 11.75 
Q 26.265625 6.109375 33.40625 6.109375 
Q 40.53125 6.109375 44.609375 11.75 
Q 48.6875 17.390625 48.6875 27.296875 
z
M 18.109375 46.390625 
Q 20.953125 51.265625 25.265625 53.625 
Q 29.59375 56 35.59375 56 
Q 45.5625 56 51.78125 48.09375 
Q 58.015625 40.1875 58.015625 27.296875 
Q 58.015625 14.40625 51.78125 6.484375 
Q 45.5625 -1.421875 35.59375 -1.421875 
Q 29.59375 -1.421875 25.265625 0.953125 
Q 20.953125 3.328125 18.109375 8.203125 
L 18.109375 0 
L 9.078125 0 
L 9.078125 75.984375 
L 18.109375 75.984375 
z
" id="DejaVuSans-98"/>
      <path d="M 37.109375 75.984375 
L 37.109375 68.5 
L 28.515625 68.5 
Q 23.6875 68.5 21.796875 66.546875 
Q 19.921875 64.59375 19.921875 59.515625 
L 19.921875 54.6875 
L 34.71875 54.6875 
L 34.71875 47.703125 
L 19.921875 47.703125 
L 19.921875 0 
L 10.890625 0 
L 10.890625 47.703125 
L 2.296875 47.703125 
L 2.296875 54.6875 
L 10.890625 54.6875 
L 10.890625 58.5 
Q 10.890625 67.625 15.140625 71.796875 
Q 19.390625 75.984375 28.609375 75.984375 
z
" id="DejaVuSans-102"/>
     </defs>
     <use xlink:href="#DejaVuSans-80"/>
     <use x="56.677734" xlink:href="#DejaVuSans-111"/>
     <use x="117.859375" xlink:href="#DejaVuSans-112"/>
     <use x="181.335938" xlink:href="#DejaVuSans-117"/>
     <use x="244.714844" xlink:href="#DejaVuSans-108"/>
     <use x="272.498047" xlink:href="#DejaVuSans-97"/>
     <use x="333.777344" xlink:href="#DejaVuSans-116"/>
     <use x="372.986328" xlink:href="#DejaVuSans-105"/>
     <use x="400.769531" xlink:href="#DejaVuSans-111"/>
     <use x="461.951172" xlink:href="#DejaVuSans-110"/>
     <use x="525.330078" xlink:href="#DejaVuSans-39"/>
     <use x="552.820312" xlink:href="#DejaVuSans-115"/>
     <use x="604.919922" xlink:href="#DejaVuSans-32"/>
     <use x="636.707031" xlink:href="#DejaVuSans-97"/>
     <use x="697.986328" xlink:href="#DejaVuSans-118"/>
     <use x="757.166016" xlink:href="#DejaVuSans-101"/>
     <use x="818.689453" xlink:href="#DejaVuSans-114"/>
     <use x="859.802734" xlink:href="#DejaVuSans-97"/>
     <use x="921.082031" xlink:href="#DejaVuSans-103"/>
     <use x="984.558594" xlink:href="#DejaVuSans-101"/>
     <use x="1046.082031" xlink:href="#DejaVuSans-32"/>
     <use x="1077.869141" xlink:href="#DejaVuSans-97"/>
     <use x="1139.148438" xlink:href="#DejaVuSans-110"/>
     <use x="1202.527344" xlink:href="#DejaVuSans-100"/>
     <use x="1266.003906" xlink:href="#DejaVuSans-32"/>
     <use x="1297.791016" xlink:href="#DejaVuSans-98"/>
     <use x="1361.267578" xlink:href="#DejaVuSans-101"/>
     <use x="1422.791016" xlink:href="#DejaVuSans-115"/>
     <use x="1474.890625" xlink:href="#DejaVuSans-116"/>
     <use x="1514.099609" xlink:href="#DejaVuSans-32"/>
     <use x="1545.886719" xlink:href="#DejaVuSans-102"/>
     <use x="1581.091797" xlink:href="#DejaVuSans-105"/>
     <use x="1608.875" xlink:href="#DejaVuSans-116"/>
     <use x="1648.083984" xlink:href="#DejaVuSans-110"/>
     <use x="1711.462891" xlink:href="#DejaVuSans-101"/>
     <use x="1772.986328" xlink:href="#DejaVuSans-115"/>
     <use x="1825.085938" xlink:href="#DejaVuSans-115"/>
    </g>
   </g>
   <g id="legend_1">
    <g id="patch_7">
     <path d="M 64.6 78.82825 
L 137.540625 78.82825 
Q 139.540625 78.82825 139.540625 76.82825 
L 139.540625 48.472 
Q 139.540625 46.472 137.540625 46.472 
L 64.6 46.472 
Q 62.6 46.472 62.6 48.472 
L 62.6 76.82825 
Q 62.6 78.82825 64.6 78.82825 
z
" style="fill:#ffffff;opacity:0.8;stroke:#cccccc;stroke-linejoin:miter;"/>
    </g>
    <g id="line2d_19">
     <path d="M 66.6 54.570437 
L 86.6 54.570437 
" style="fill:none;stroke:#0000ff;stroke-linecap:square;stroke-width:1.5;"/>
    </g>
    <g id="line2d_20"/>
    <g id="text_12">
     <!-- average -->
     <g transform="translate(94.6 58.070437)scale(0.1 -0.1)">
      <use xlink:href="#DejaVuSans-97"/>
      <use x="61.279297" xlink:href="#DejaVuSans-118"/>
      <use x="120.458984" xlink:href="#DejaVuSans-101"/>
      <use x="181.982422" xlink:href="#DejaVuSans-114"/>
      <use x="223.095703" xlink:href="#DejaVuSans-97"/>
      <use x="284.375" xlink:href="#DejaVuSans-103"/>
      <use x="347.851562" xlink:href="#DejaVuSans-101"/>
     </g>
    </g>
    <g id="line2d_21">
     <path d="M 66.6 69.248562 
L 86.6 69.248562 
" style="fill:none;stroke:#ff0000;stroke-linecap:square;stroke-width:1.5;"/>
    </g>
    <g id="line2d_22"/>
    <g id="text_13">
     <!-- best -->
     <g transform="translate(94.6 72.748562)scale(0.1 -0.1)">
      <use xlink:href="#DejaVuSans-98"/>
      <use x="63.476562" xlink:href="#DejaVuSans-101"/>
      <use x="125" xlink:href="#DejaVuSans-115"/>
      <use x="177.099609" xlink:href="#DejaVuSans-116"/>
     </g>
    </g>
   </g>
  </g>
 </g>
 <defs>
  <clipPath id="p9310e29a72">
   <rect height="266.112" width="357.12" x="57.6" y="41.472"/>
  </clipPath>
 </defs>
</svg>
