<?xml version="1.0" encoding="UTF-8" standalone="no"?>
<!DOCTYPE svg PUBLIC "-//W3C//DTD SVG 1.1//EN"
 "http://www.w3.org/Graphics/SVG/1.1/DTD/svg11.dtd">
<!-- Generated by graphviz version 2.40.1 (20161225.0304)
 -->
<!-- Title: %3 Pages: 1 -->
<svg width="1841pt" height="399pt"
 viewBox="0.00 0.00 1841.00 399.10" xmlns="http://www.w3.org/2000/svg" xmlns:xlink="http://www.w3.org/1999/xlink">
<g id="graph0" class="graph" transform="scale(1 1) rotate(0) translate(4 395.1026)">
<title>%3</title>
<polygon fill="#ffffff" stroke="transparent" points="-4,4 -4,-395.1026 1836.9972,-395.1026 1836.9972,4 -4,4"/>
<!-- A_agent -->
<g id="node1" class="node">
<title>A_agent</title>
<polygon fill="#d3d3d3" stroke="#000000" points="708,-324.8894 661,-324.8894 661,-306.8894 708,-306.8894 708,-324.8894"/>
<text text-anchor="middle" x="684.5" y="-313.6894" font-family="Times,serif" font-size="9.00" fill="#000000">A_agent</text>
</g>
<!-- no_move -->
<g id="node25" class="node">
<title>no_move</title>
<ellipse fill="#add8e6" stroke="#000000" cx="462.5" cy="-223.3209" rx="35.2113" ry="35.2113"/>
<text text-anchor="middle" x="462.5" y="-221.1209" font-family="Times,serif" font-size="9.00" fill="#000000">no_move</text>
</g>
<!-- A_agent&#45;&gt;no_move -->
<g id="edge90" class="edge">
<title>A_agent&#45;&gt;no_move</title>
<path fill="none" stroke="#00ff00" stroke-width=".1527" stroke-dasharray="1,5" d="M672.4916,-306.8447C666.4526,-302.6489 658.8658,-297.8908 651.5,-294.6762 592.6168,-268.9785 569.6718,-285.9461 511.5,-258.6762 507.1011,-256.6141 502.6901,-254.1409 498.4154,-251.473"/>
<polygon fill="#00ff00" stroke="#00ff00" stroke-width=".1527" points="500.144,-248.4192 489.8799,-245.7924 496.2657,-254.2466 500.144,-248.4192"/>
</g>
<!-- forward -->
<g id="node28" class="node">
<title>forward</title>
<ellipse fill="#add8e6" stroke="#000000" cx="805.5" cy="-223.3209" rx="31.6406" ry="31.6406"/>
<text text-anchor="middle" x="805.5" y="-221.1209" font-family="Times,serif" font-size="9.00" fill="#000000">forward</text>
</g>
<!-- A_agent&#45;&gt;forward -->
<g id="edge71" class="edge">
<title>A_agent&#45;&gt;forward</title>
<path fill="none" stroke="#00ff00" stroke-width="1.3408" d="M696.4606,-306.7865C711.271,-295.5097 737.2652,-275.7017 759.5,-258.6762 763.5936,-255.5417 767.8892,-252.2471 772.1425,-248.9819"/>
<polygon fill="#00ff00" stroke="#00ff00" stroke-width="1.3408" points="774.4069,-251.656 780.2051,-242.7885 770.1426,-246.1047 774.4069,-251.656"/>
</g>
<!-- A_lm -->
<g id="node2" class="node">
<title>A_lm</title>
<polygon fill="#d3d3d3" stroke="#000000" points="404,-324.8894 367,-324.8894 367,-306.8894 404,-306.8894 404,-324.8894"/>
<text text-anchor="middle" x="385.5" y="-313.6894" font-family="Times,serif" font-size="9.00" fill="#000000">A_lm</text>
</g>
<!-- A_lm&#45;&gt;no_move -->
<g id="edge89" class="edge">
<title>A_lm&#45;&gt;no_move</title>
<path fill="none" stroke="#00ff00" stroke-width=".2122" d="M393.1646,-306.6751C402.467,-295.4918 418.7008,-275.9758 433.1224,-258.6383"/>
<polygon fill="#00ff00" stroke="#00ff00" stroke-width=".2122" points="435.8855,-260.7896 439.5897,-250.8634 430.5039,-256.3131 435.8855,-260.7896"/>
</g>
<!-- right -->
<g id="node26" class="node">
<title>right</title>
<ellipse fill="#add8e6" stroke="#000000" cx="310.5" cy="-223.3209" rx="23.1702" ry="23.1702"/>
<text text-anchor="middle" x="310.5" y="-221.1209" font-family="Times,serif" font-size="9.00" fill="#000000">right</text>
</g>
<!-- A_lm&#45;&gt;right -->
<g id="edge48" class="edge">
<title>A_lm&#45;&gt;right</title>
<path fill="none" stroke="#00ff00" stroke-width=".1569" d="M378.0345,-306.6751C367.3359,-293.4704 347.2248,-268.6483 331.7206,-249.5123"/>
<polygon fill="#00ff00" stroke="#00ff00" stroke-width=".1569" points="334.4135,-247.2762 325.3988,-241.7097 328.9746,-251.6829 334.4135,-247.2762"/>
</g>
<!-- backward -->
<g id="node29" class="node">
<title>backward</title>
<ellipse fill="#add8e6" stroke="#000000" cx="707.5" cy="-115.9031" rx="36.125" ry="36.125"/>
<text text-anchor="middle" x="707.5" y="-113.7031" font-family="Times,serif" font-size="9.00" fill="#000000">backward</text>
</g>
<!-- A_lm&#45;&gt;backward -->
<g id="edge75" class="edge">
<title>A_lm&#45;&gt;backward</title>
<path fill="none" stroke="#00ff00" stroke-width=".6108" stroke-dasharray="1,5" d="M366.6956,-312.0438C341.4797,-305.7656 297.6662,-290.6584 278.5,-258.6762 262.3453,-231.7192 258.2017,-211.9579 278.5,-187.9655 303.1067,-158.8806 555.4475,-130.8754 661.2321,-120.3173"/>
<polygon fill="#00ff00" stroke="#00ff00" stroke-width=".6108" points="661.6918,-123.789 671.2986,-119.3212 661.0025,-116.823 661.6918,-123.789"/>
</g>
<!-- A_wall -->
<g id="node3" class="node">
<title>A_wall</title>
<polygon fill="#d3d3d3" stroke="#000000" points="1001,-324.8894 958,-324.8894 958,-306.8894 1001,-306.8894 1001,-324.8894"/>
<text text-anchor="middle" x="979.5" y="-313.6894" font-family="Times,serif" font-size="9.00" fill="#000000">A_wall</text>
</g>
<!-- left -->
<g id="node27" class="node">
<title>left</title>
<ellipse fill="#add8e6" stroke="#000000" cx="1468.5" cy="-115.9031" rx="19.6" ry="19.6"/>
<text text-anchor="middle" x="1468.5" y="-113.7031" font-family="Times,serif" font-size="9.00" fill="#000000">left</text>
</g>
<!-- A_wall&#45;&gt;left -->
<g id="edge93" class="edge">
<title>A_wall&#45;&gt;left</title>
<path fill="none" stroke="#ff0000" stroke-width=".4526" stroke-dasharray="1,5" d="M988.9224,-306.6576C999.8219,-295.7319 1017.9967,-276.7358 1031.5,-258.6762 1053.5257,-229.2185 1044.1983,-208.8149 1074.5,-187.9655 1134.1225,-146.9417 1357.2742,-124.988 1438.6044,-118.2148"/>
<polygon fill="#ff0000" stroke="#ff0000" stroke-width=".4526" points="1438.9913,-121.6949 1448.6738,-117.3939 1438.4224,-114.7181 1438.9913,-121.6949"/>
</g>
<!-- A_wall&#45;&gt;forward -->
<g id="edge28" class="edge">
<title>A_wall&#45;&gt;forward</title>
<path fill="none" stroke="#00ff00" stroke-width=".1759" d="M967.0856,-306.8181C961.5171,-302.9009 954.7965,-298.3779 948.5,-294.6762 914.1174,-274.4627 873.2589,-254.451 844.0384,-240.7879"/>
<polygon fill="#00ff00" stroke="#00ff00" stroke-width=".1759" points="845.1452,-237.443 834.6012,-236.4066 842.1976,-243.7921 845.1452,-237.443"/>
</g>
<!-- A_wall&#45;&gt;backward -->
<g id="edge10" class="edge">
<title>A_wall&#45;&gt;backward</title>
<path fill="none" stroke="#ff0000" stroke-width=".261" stroke-dasharray="1,5" d="M980.7276,-306.7662C983.2906,-283.6671 986.623,-222.2753 955.5,-187.9655 928.4624,-158.1594 817.4058,-134.7217 753.452,-123.3764"/>
<polygon fill="#ff0000" stroke="#ff0000" stroke-width=".261" points="753.6841,-119.8641 743.2316,-121.595 752.4821,-126.7602 753.6841,-119.8641"/>
</g>
<!-- no_turn -->
<g id="node30" class="node">
<title>no_turn</title>
<ellipse fill="#add8e6" stroke="#000000" cx="1114.5" cy="-223.3209" rx="31.2258" ry="31.2258"/>
<text text-anchor="middle" x="1114.5" y="-221.1209" font-family="Times,serif" font-size="9.00" fill="#000000">no_turn</text>
</g>
<!-- A_wall&#45;&gt;no_turn -->
<g id="edge86" class="edge">
<title>A_wall&#45;&gt;no_turn</title>
<path fill="none" stroke="#ff0000" stroke-width="1.059" d="M994.7702,-306.8221C1012.9202,-295.8997 1043.9629,-276.7575 1069.5,-258.6762 1073.6506,-255.7374 1077.9405,-252.5603 1082.148,-249.3577"/>
<polygon fill="#ff0000" stroke="#ff0000" stroke-width="1.059" points="1084.3105,-252.11 1090.0795,-243.2235 1080.028,-246.5728 1084.3105,-252.11"/>
</g>
<!-- ccw -->
<g id="node31" class="node">
<title>ccw</title>
<ellipse fill="#add8e6" stroke="#000000" cx="771.5" cy="-21.9203" rx="21.8409" ry="21.8409"/>
<text text-anchor="middle" x="771.5" y="-19.7203" font-family="Times,serif" font-size="9.00" fill="#000000">ccw</text>
</g>
<!-- A_wall&#45;&gt;ccw -->
<g id="edge50" class="edge">
<title>A_wall&#45;&gt;ccw</title>
<path fill="none" stroke="#ff0000" stroke-width=".3285" d="M982.4606,-306.6033C988.9013,-284.6434 1002.101,-228.3329 982.5,-187.9655 944.4979,-109.7019 849.7529,-57.2975 801.2036,-34.6464"/>
<polygon fill="#ff0000" stroke="#ff0000" stroke-width=".3285" points="802.412,-31.3509 791.8609,-30.3898 799.5098,-37.7209 802.412,-31.3509"/>
</g>
<!-- cw -->
<g id="node32" class="node">
<title>cw</title>
<ellipse fill="#add8e6" stroke="#000000" cx="212.5" cy="-223.3209" rx="19.1842" ry="19.1842"/>
<text text-anchor="middle" x="212.5" y="-221.1209" font-family="Times,serif" font-size="9.00" fill="#000000">cw</text>
</g>
<!-- A_wall&#45;&gt;cw -->
<g id="edge58" class="edge">
<title>A_wall&#45;&gt;cw</title>
<path fill="none" stroke="#ff0000" stroke-width=".2245" stroke-dasharray="1,5" d="M969.382,-306.8568C963.6708,-302.331 956.1583,-297.2728 948.5,-294.6762 666.0845,-198.9208 565.685,-339.0029 278.5,-258.6762 263.8359,-254.5746 248.7727,-246.8239 236.7461,-239.6225"/>
<polygon fill="#ff0000" stroke="#ff0000" stroke-width=".2245" points="238.5354,-236.6135 228.198,-234.292 234.8315,-242.5533 238.5354,-236.6135"/>
</g>
<!-- 441 -->
<g id="node36" class="node">
<title>441</title>
<ellipse fill="#ffffff" stroke="#000000" cx="312.5" cy="-115.9031" rx="21.4286" ry="21.4286"/>
<text text-anchor="middle" x="312.5" y="-113.7031" font-family="Times,serif" font-size="9.00" fill="#000000">441</text>
</g>
<!-- A_wall&#45;&gt;441 -->
<g id="edge104" class="edge">
<title>A_wall&#45;&gt;441</title>
<path fill="none" stroke="#00ff00" stroke-width=".5211" stroke-dasharray="1,5" d="M973.3105,-306.7942C956.3179,-282.6487 906.2143,-216.8139 846.5,-187.9655 800.997,-165.9827 451.8678,-129.7696 344.0872,-119.01"/>
<polygon fill="#00ff00" stroke="#00ff00" stroke-width=".5211" points="344.1559,-115.4996 333.8586,-117.9931 343.4633,-122.4653 344.1559,-115.4996"/>
</g>
<!-- B_agent -->
<g id="node4" class="node">
<title>B_agent</title>
<polygon fill="#d3d3d3" stroke="#000000" points="1428.5,-324.8894 1382.5,-324.8894 1382.5,-306.8894 1428.5,-306.8894 1428.5,-324.8894"/>
<text text-anchor="middle" x="1405.5" y="-313.6894" font-family="Times,serif" font-size="9.00" fill="#000000">B_agent</text>
</g>
<!-- B_agent&#45;&gt;left -->
<g id="edge69" class="edge">
<title>B_agent&#45;&gt;left</title>
<path fill="none" stroke="#00ff00" stroke-width=".5681" d="M1420.0401,-306.7734C1426.0548,-303.0139 1433.1053,-298.6219 1439.5,-294.6762 1465.6422,-278.5458 1483.4648,-285.4633 1498.5,-258.6762 1519.3068,-221.6063 1499.9366,-171.7759 1484.127,-141.8503"/>
<polygon fill="#00ff00" stroke="#00ff00" stroke-width=".5681" points="1487.0703,-139.9397 1479.1746,-132.875 1480.9414,-143.3215 1487.0703,-139.9397"/>
</g>
<!-- B_agent&#45;&gt;forward -->
<g id="edge67" class="edge">
<title>B_agent&#45;&gt;forward</title>
<path fill="none" stroke="#00ff00" stroke-width="1.359" d="M1394.2663,-306.8523C1388.1785,-302.4421 1380.3174,-297.4923 1372.5,-294.6762 1246.9883,-249.4618 1206.8589,-275.3687 1074.5,-258.6762 994.1049,-248.5371 900.2853,-236.0591 847.3885,-228.9643"/>
<polygon fill="#00ff00" stroke="#00ff00" stroke-width="1.359" points="847.7477,-225.4812 837.3709,-227.6194 846.8162,-232.419 847.7477,-225.4812"/>
</g>
<!-- B_agent&#45;&gt;backward -->
<g id="edge38" class="edge">
<title>B_agent&#45;&gt;backward</title>
<path fill="none" stroke="#ff0000" stroke-width=".8041" stroke-dasharray="1,5" d="M1401.0283,-306.7688C1388.6184,-282.5603 1351.1609,-216.5829 1298.5,-187.9655 1204.5157,-136.892 876.2084,-121.2996 753.8934,-117.2003"/>
<polygon fill="#ff0000" stroke="#ff0000" stroke-width=".8041" points="753.8426,-113.6969 743.7343,-116.8706 753.6155,-120.6932 753.8426,-113.6969"/>
</g>
<!-- B_agent&#45;&gt;ccw -->
<g id="edge57" class="edge">
<title>B_agent&#45;&gt;ccw</title>
<path fill="none" stroke="#00ff00" stroke-width=".3602" d="M1417.1073,-306.8367C1423.3886,-302.4222 1431.486,-297.4733 1439.5,-294.6762 1506.0204,-271.4589 1707.594,-311.2483 1754.5,-258.6762 1775.4226,-235.2263 1769.8405,-215.394 1754.5,-187.9655 1709.6874,-107.8414 1665.8926,-107.9578 1578.5,-79.8406 1430.5589,-32.2429 935.4287,-23.6549 803.8432,-22.201"/>
<polygon fill="#00ff00" stroke="#00ff00" stroke-width=".3602" points="803.6593,-18.6989 793.6234,-22.0945 803.5864,-25.6986 803.6593,-18.6989"/>
</g>
<!-- B_agent&#45;&gt;cw -->
<g id="edge46" class="edge">
<title>B_agent&#45;&gt;cw</title>
<path fill="none" stroke="#ff0000" stroke-width=".5454" d="M1394.6578,-306.79C1388.5573,-302.2445 1380.5629,-297.1889 1372.5,-294.6762 1140.2732,-222.3042 513.4203,-321.7594 278.5,-258.6762 263.7941,-254.7272 248.7274,-246.9895 236.7092,-239.7572"/>
<polygon fill="#ff0000" stroke="#ff0000" stroke-width=".5454" points="238.4998,-236.7488 228.1695,-234.3962 234.778,-242.6774 238.4998,-236.7488"/>
</g>
<!-- 194 -->
<g id="node33" class="node">
<title>194</title>
<ellipse fill="#ffffff" stroke="#000000" cx="1408.5" cy="-223.3209" rx="21.4286" ry="21.4286"/>
<text text-anchor="middle" x="1408.5" y="-221.1209" font-family="Times,serif" font-size="9.00" fill="#000000">194</text>
</g>
<!-- B_agent&#45;&gt;194 -->
<g id="edge99" class="edge">
<title>B_agent&#45;&gt;194</title>
<path fill="none" stroke="#ff0000" stroke-width=".6182" stroke-dasharray="1,5" d="M1405.7986,-306.6751C1406.1876,-294.6715 1406.8878,-273.068 1407.4778,-254.8624"/>
<polygon fill="#ff0000" stroke="#ff0000" stroke-width=".6182" points="1410.9834,-254.7424 1407.8093,-244.6342 1403.9871,-254.5155 1410.9834,-254.7424"/>
</g>
<!-- B_lm -->
<g id="node5" class="node">
<title>B_lm</title>
<polygon fill="#d3d3d3" stroke="#000000" points="250,-324.8894 213,-324.8894 213,-306.8894 250,-306.8894 250,-324.8894"/>
<text text-anchor="middle" x="231.5" y="-313.6894" font-family="Times,serif" font-size="9.00" fill="#000000">B_lm</text>
</g>
<!-- B_lm&#45;&gt;no_move -->
<g id="edge24" class="edge">
<title>B_lm&#45;&gt;no_move</title>
<path fill="none" stroke="#00ff00" stroke-width=".766" stroke-dasharray="1,5" d="M241.8721,-306.8006C246.9354,-302.695 253.2686,-298.0255 259.5,-294.6762 287.495,-279.6293 367.9583,-253.0608 418.7735,-236.9345"/>
<polygon fill="#00ff00" stroke="#00ff00" stroke-width=".766" points="420.0367,-240.206 428.5169,-233.855 417.927,-233.5315 420.0367,-240.206"/>
</g>
<!-- B_lm&#45;&gt;right -->
<g id="edge96" class="edge">
<title>B_lm&#45;&gt;right</title>
<path fill="none" stroke="#00ff00" stroke-width=".5225" d="M239.3636,-306.6751C250.7012,-293.3904 272.0737,-268.347 288.4441,-249.165"/>
<polygon fill="#00ff00" stroke="#00ff00" stroke-width=".5225" points="291.2805,-251.233 295.1098,-241.3544 285.9559,-246.6888 291.2805,-251.233"/>
</g>
<!-- B_lm&#45;&gt;ccw -->
<g id="edge65" class="edge">
<title>B_lm&#45;&gt;ccw</title>
<path fill="none" stroke="#ff0000" stroke-width="1.5093" stroke-dasharray="1,5" d="M221.1862,-306.6896C216.1356,-302.5597 209.7963,-297.9017 203.5,-294.6762 155.0782,-269.8704 118.8226,-302.4397 86.5,-258.6762 67.8292,-233.3967 70.5221,-215.0277 86.5,-187.9655 137.0805,-102.2959 187.7857,-110.2853 282.5,-79.8406 368.3127,-52.2572 644.5496,-30.8159 739.2716,-24.1138"/>
<polygon fill="#ff0000" stroke="#ff0000" stroke-width="1.5093" points="739.662,-27.5951 749.3931,-23.4051 739.173,-20.6122 739.662,-27.5951"/>
</g>
<!-- B_lm&#45;&gt;cw -->
<g id="edge13" class="edge">
<title>B_lm&#45;&gt;cw</title>
<path fill="none" stroke="#ff0000" stroke-width=".143" d="M229.6087,-306.6751C227.0111,-294.0192 222.223,-270.6914 218.3714,-251.9263"/>
<polygon fill="#ff0000" stroke="#ff0000" stroke-width=".143" points="221.787,-251.1595 216.3478,-242.0674 214.93,-252.5669 221.787,-251.1595"/>
</g>
<!-- B_wall -->
<g id="node6" class="node">
<title>B_wall</title>
<polygon fill="#d3d3d3" stroke="#000000" points="310.5,-324.8894 268.5,-324.8894 268.5,-306.8894 310.5,-306.8894 310.5,-324.8894"/>
<text text-anchor="middle" x="289.5" y="-313.6894" font-family="Times,serif" font-size="9.00" fill="#000000">B_wall</text>
</g>
<!-- B_wall&#45;&gt;right -->
<g id="edge25" class="edge">
<title>B_wall&#45;&gt;right</title>
<path fill="none" stroke="#00ff00" stroke-width=".2215" stroke-dasharray="1,5" d="M291.5903,-306.6751C294.2565,-294.9227 299.0103,-273.9678 303.0843,-256.0096"/>
<polygon fill="#00ff00" stroke="#00ff00" stroke-width=".2215" points="306.5224,-256.6738 305.3216,-246.1473 299.6959,-255.1251 306.5224,-256.6738"/>
</g>
<!-- B_wall&#45;&gt;cw -->
<g id="edge53" class="edge">
<title>B_wall&#45;&gt;cw</title>
<path fill="none" stroke="#00ff00" stroke-width=".5535" d="M281.8354,-306.6751C270.1858,-292.6701 247.6659,-265.5969 231.4477,-246.0995"/>
<polygon fill="#00ff00" stroke="#00ff00" stroke-width=".5535" points="234.0187,-243.7172 224.9329,-238.2675 228.6371,-248.1937 234.0187,-243.7172"/>
</g>
<!-- C_agent -->
<g id="node7" class="node">
<title>C_agent</title>
<polygon fill="#d3d3d3" stroke="#000000" points="1363.5,-324.8894 1317.5,-324.8894 1317.5,-306.8894 1363.5,-306.8894 1363.5,-324.8894"/>
<text text-anchor="middle" x="1340.5" y="-313.6894" font-family="Times,serif" font-size="9.00" fill="#000000">C_agent</text>
</g>
<!-- C_agent&#45;&gt;backward -->
<g id="edge92" class="edge">
<title>C_agent&#45;&gt;backward</title>
<path fill="none" stroke="#ff0000" stroke-width=".1252" stroke-dasharray="1,5" d="M1335.2674,-306.8427C1318.5554,-277.9805 1267.3869,-189.8639 1264.5,-187.9655 1180.77,-132.9055 872.4131,-119.8058 754.1207,-116.781"/>
<polygon fill="#ff0000" stroke="#ff0000" stroke-width=".1252" points="754.023,-113.2777 743.941,-116.5338 753.853,-120.2756 754.023,-113.2777"/>
</g>
<!-- C_agent&#45;&gt;no_turn -->
<g id="edge5" class="edge">
<title>C_agent&#45;&gt;no_turn</title>
<path fill="none" stroke="#00ff00" stroke-width=".1778" stroke-dasharray="1,5" d="M1328.1427,-306.718C1322.3662,-302.6909 1315.279,-298.1088 1308.5,-294.6762 1267.1032,-273.7145 1254.0489,-274.6942 1210.5,-258.6762 1191.8279,-251.8083 1171.116,-244.1815 1153.7244,-237.7749"/>
<polygon fill="#00ff00" stroke="#00ff00" stroke-width=".1778" points="1154.5021,-234.3315 1143.9087,-234.1588 1152.0822,-240.9 1154.5021,-234.3315"/>
</g>
<!-- 89 -->
<g id="node39" class="node">
<title>89</title>
<ellipse fill="#ffffff" stroke="#000000" cx="1237.5" cy="-223.3209" rx="18.2703" ry="18.2703"/>
<text text-anchor="middle" x="1237.5" y="-221.1209" font-family="Times,serif" font-size="9.00" fill="#000000">89</text>
</g>
<!-- C_agent&#45;&gt;89 -->
<g id="edge97" class="edge">
<title>C_agent&#45;&gt;89</title>
<path fill="none" stroke="#00ff00" stroke-width="1.4933" d="M1327.9537,-306.7282C1313.3713,-295.8687 1288.8369,-276.9349 1269.5,-258.6762 1265.0268,-254.4524 1260.4541,-249.7016 1256.2166,-245.0857"/>
<polygon fill="#00ff00" stroke="#00ff00" stroke-width="1.4933" points="1258.7571,-242.6761 1249.4785,-237.5616 1253.5425,-247.346 1258.7571,-242.6761"/>
</g>
<!-- C_lm -->
<g id="node8" class="node">
<title>C_lm</title>
<polygon fill="#d3d3d3" stroke="#000000" points="763,-324.8894 726,-324.8894 726,-306.8894 763,-306.8894 763,-324.8894"/>
<text text-anchor="middle" x="744.5" y="-313.6894" font-family="Times,serif" font-size="9.00" fill="#000000">C_lm</text>
</g>
<!-- C_lm&#45;&gt;right -->
<g id="edge52" class="edge">
<title>C_lm&#45;&gt;right</title>
<path fill="none" stroke="#ff0000" stroke-width=".2388" d="M735.186,-306.8303C730.0802,-302.4141 723.3977,-297.4656 716.5,-294.6762 592.8227,-244.6617 548.7414,-287.5677 418.5,-258.6762 392.2284,-252.8483 363.2928,-243.194 341.9901,-235.4451"/>
<polygon fill="#ff0000" stroke="#ff0000" stroke-width=".2388" points="343.0773,-232.1155 332.4841,-231.9296 340.6493,-238.681 343.0773,-232.1155"/>
</g>
<!-- C_lm&#45;&gt;forward -->
<g id="edge91" class="edge">
<title>C_lm&#45;&gt;forward</title>
<path fill="none" stroke="#ff0000" stroke-width=".266" stroke-dasharray="1,5" d="M750.5719,-306.6751C757.9113,-295.5376 770.6968,-276.1353 782.0866,-258.851"/>
<polygon fill="#ff0000" stroke="#ff0000" stroke-width=".266" points="785.2993,-260.3365 787.8793,-250.0606 779.4543,-256.4848 785.2993,-260.3365"/>
</g>
<!-- C_lm&#45;&gt;no_turn -->
<g id="edge19" class="edge">
<title>C_lm&#45;&gt;no_turn</title>
<path fill="none" stroke="#00ff00" stroke-width=".5988" stroke-dasharray="1,5" d="M753.7727,-306.845C758.6764,-302.5439 765.0143,-297.6941 771.5,-294.6762 873.3114,-247.3007 1006.6697,-231.1457 1073.12,-225.8201"/>
<polygon fill="#00ff00" stroke="#00ff00" stroke-width=".5988" points="1073.4889,-229.3023 1083.1953,-225.0552 1072.959,-222.3223 1073.4889,-229.3023"/>
</g>
<!-- C_lm&#45;&gt;ccw -->
<g id="edge78" class="edge">
<title>C_lm&#45;&gt;ccw</title>
<path fill="none" stroke="#00ff00" stroke-width="1.579" stroke-dasharray="1,5" d="M734.4969,-306.8017C729.4169,-302.5957 722.963,-297.8414 716.5,-294.6762 661.1177,-267.5531 620.0246,-307.6126 582.5,-258.6762 563.3767,-233.7372 572.6589,-217.8119 582.5,-187.9655 601.2192,-131.193 617.2095,-118.8572 662.5,-79.8406 686.0822,-59.5252 717.9938,-43.6171 741.1912,-33.6551"/>
<polygon fill="#00ff00" stroke="#00ff00" stroke-width="1.579" points="742.6661,-36.8323 750.5497,-29.7542 739.9728,-30.3711 742.6661,-36.8323"/>
</g>
<!-- C_wall -->
<g id="node9" class="node">
<title>C_wall</title>
<polygon fill="#d3d3d3" stroke="#000000" points="581.5,-324.8894 539.5,-324.8894 539.5,-306.8894 581.5,-306.8894 581.5,-324.8894"/>
<text text-anchor="middle" x="560.5" y="-313.6894" font-family="Times,serif" font-size="9.00" fill="#000000">C_wall</text>
</g>
<!-- C_wall&#45;&gt;no_move -->
<g id="edge51" class="edge">
<title>C_wall&#45;&gt;no_move</title>
<path fill="none" stroke="#00ff00" stroke-width=".12" d="M550.7451,-306.6751C538.0084,-294.6444 515.0625,-272.9702 495.7615,-254.7389"/>
<polygon fill="#00ff00" stroke="#00ff00" stroke-width=".12" points="497.9735,-252.0137 488.3004,-247.6913 493.1667,-257.1025 497.9735,-252.0137"/>
</g>
<!-- C_wall&#45;&gt;backward -->
<g id="edge33" class="edge">
<title>C_wall&#45;&gt;backward</title>
<path fill="none" stroke="#00ff00" stroke-width="1.086" d="M559.5989,-306.8664C557.8451,-284.516 556.1994,-225.6703 582.5,-187.9655 601.9215,-160.1227 635.8108,-141.5637 663.4071,-130.262"/>
<polygon fill="#00ff00" stroke="#00ff00" stroke-width="1.086" points="664.8314,-133.4632 672.8718,-126.5638 662.2838,-126.9433 664.8314,-133.4632"/>
</g>
<!-- C_wall&#45;&gt;no_turn -->
<g id="edge22" class="edge">
<title>C_wall&#45;&gt;no_turn</title>
<path fill="none" stroke="#00ff00" stroke-width=".1173" stroke-dasharray="1,5" d="M570.6027,-306.8829C576.107,-302.4811 583.2597,-297.5296 590.5,-294.6762 596.1478,-292.4504 950.4029,-245.1612 1073.1614,-228.8185"/>
<polygon fill="#00ff00" stroke="#00ff00" stroke-width=".1173" points="1073.84,-232.2592 1083.2908,-227.4703 1072.9164,-225.3204 1073.84,-232.2592"/>
</g>
<!-- C_wall&#45;&gt;cw -->
<g id="edge4" class="edge">
<title>C_wall&#45;&gt;cw</title>
<path fill="none" stroke="#ff0000" stroke-width=".5096" stroke-dasharray="1,5" d="M550.1174,-306.6858C544.6486,-302.3441 537.6123,-297.5061 530.5,-294.6762 425.3786,-252.8492 386.0056,-293.9261 278.5,-258.6762 264.1295,-253.9643 249.1891,-246.2328 237.165,-239.1997"/>
<polygon fill="#ff0000" stroke="#ff0000" stroke-width=".5096" points="238.9646,-236.1978 228.5962,-234.019 235.3429,-242.1881 238.9646,-236.1978"/>
</g>
<!-- D_agent -->
<g id="node10" class="node">
<title>D_agent</title>
<polygon fill="#d3d3d3" stroke="#000000" points="1745,-232.3209 1698,-232.3209 1698,-214.3209 1745,-214.3209 1745,-232.3209"/>
<text text-anchor="middle" x="1721.5" y="-221.1209" font-family="Times,serif" font-size="9.00" fill="#000000">D_agent</text>
</g>
<!-- D_agent&#45;&gt;left -->
<g id="edge87" class="edge">
<title>D_agent&#45;&gt;left</title>
<path fill="none" stroke="#00ff00" stroke-width=".2575" stroke-dasharray="1,5" d="M1713.6103,-214.0223C1706.4623,-206.1167 1695.2733,-194.965 1683.5,-187.9655 1622.5409,-151.7239 1540.9095,-130.8039 1497.8862,-121.5885"/>
<polygon fill="#00ff00" stroke="#00ff00" stroke-width=".2575" points="1498.568,-118.1555 1488.0647,-119.5457 1497.1424,-125.0088 1498.568,-118.1555"/>
</g>
<!-- D_agent&#45;&gt;ccw -->
<g id="edge1" class="edge">
<title>D_agent&#45;&gt;ccw</title>
<path fill="none" stroke="#ff0000" stroke-width=".3167" stroke-dasharray="1,5" d="M1712.935,-214.2963C1705.5381,-206.7702 1694.358,-196.0155 1683.5,-187.9655 1606.6879,-131.0181 1588.7612,-108.3803 1497.5,-79.8406 1365.1281,-38.4446 926.4818,-25.4627 803.6929,-22.5956"/>
<polygon fill="#ff0000" stroke="#ff0000" stroke-width=".3167" points="803.5323,-19.0912 793.4554,-22.3632 803.3733,-26.0894 803.5323,-19.0912"/>
</g>
<!-- D_lm -->
<g id="node11" class="node">
<title>D_lm</title>
<polygon fill="#d3d3d3" stroke="#000000" points="1485,-324.8894 1448,-324.8894 1448,-306.8894 1485,-306.8894 1485,-324.8894"/>
<text text-anchor="middle" x="1466.5" y="-313.6894" font-family="Times,serif" font-size="9.00" fill="#000000">D_lm</text>
</g>
<!-- D_lm&#45;&gt;no_move -->
<g id="edge27" class="edge">
<title>D_lm&#45;&gt;no_move</title>
<path fill="none" stroke="#00ff00" stroke-width=".9107" stroke-dasharray="1,5" d="M1457.1434,-306.8247C1451.8325,-302.2894 1444.8004,-297.2325 1437.5,-294.6762 1258.0168,-231.8289 770.1073,-289.7806 582.5,-258.6762 556.4633,-254.3594 528.1064,-246.1746 505.4986,-238.7665"/>
<polygon fill="#00ff00" stroke="#00ff00" stroke-width=".9107" points="506.4596,-235.3974 495.8657,-235.5438 504.2386,-242.0357 506.4596,-235.3974"/>
</g>
<!-- D_lm&#45;&gt;left -->
<g id="edge64" class="edge">
<title>D_lm&#45;&gt;left</title>
<path fill="none" stroke="#00ff00" stroke-width=".323" d="M1485.04,-311.71C1509.4049,-305.1109 1551.2416,-289.7043 1569.5,-258.6762 1585.4384,-231.5907 1583.8878,-215.9056 1569.5,-187.9655 1554.3321,-158.5105 1520.9316,-138.4366 1496.6826,-127.1037"/>
<polygon fill="#00ff00" stroke="#00ff00" stroke-width=".323" points="1497.8123,-123.7758 1487.2524,-122.9155 1494.971,-130.1733 1497.8123,-123.7758"/>
</g>
<!-- D_lm&#45;&gt;forward -->
<g id="edge77" class="edge">
<title>D_lm&#45;&gt;forward</title>
<path fill="none" stroke="#00ff00" stroke-width=".1664" stroke-dasharray="1,5" d="M1456.824,-306.7716C1451.5278,-302.3393 1444.6084,-297.3941 1437.5,-294.6762 1286.0669,-236.7756 1235.5582,-277.2419 1074.5,-258.6762 994.0011,-249.3968 900.2172,-236.6231 847.355,-229.2418"/>
<polygon fill="#00ff00" stroke="#00ff00" stroke-width=".1664" points="847.733,-225.7607 837.3442,-227.8401 846.7622,-232.693 847.733,-225.7607"/>
</g>
<!-- D_lm&#45;&gt;no_turn -->
<g id="edge3" class="edge">
<title>D_lm&#45;&gt;no_turn</title>
<path fill="none" stroke="#00ff00" stroke-width=".1843" d="M1456.4936,-306.7251C1451.2148,-302.3935 1444.4108,-297.5526 1437.5,-294.6762 1343.1932,-255.4233 1309.3446,-284.4504 1210.5,-258.6762 1191.2486,-253.6563 1170.4644,-246.2603 1153.1747,-239.5287"/>
<polygon fill="#00ff00" stroke="#00ff00" stroke-width=".1843" points="1154.0224,-236.0997 1143.4365,-235.665 1151.4408,-242.6063 1154.0224,-236.0997"/>
</g>
<!-- D_lm&#45;&gt;ccw -->
<g id="edge16" class="edge">
<title>D_lm&#45;&gt;ccw</title>
<path fill="none" stroke="#ff0000" stroke-width=".1251" d="M1485.199,-310.265C1501.1214,-305.6215 1524.6624,-299.0986 1545.5,-294.6762 1595.8915,-283.9814 1741.0219,-297.8284 1774.5,-258.6762 1834.6942,-188.2798 1751.7838,-118.2494 1667.5,-79.8406 1587.6703,-43.4616 955.3836,-26.2748 803.9887,-22.6574"/>
<polygon fill="#ff0000" stroke="#ff0000" stroke-width=".1251" points="803.6221,-19.1479 793.5424,-22.4113 803.4571,-26.146 803.6221,-19.1479"/>
</g>
<!-- 537 -->
<g id="node38" class="node">
<title>537</title>
<ellipse fill="#ffffff" stroke="#000000" cx="1468.5" cy="-223.3209" rx="21.4286" ry="21.4286"/>
<text text-anchor="middle" x="1468.5" y="-221.1209" font-family="Times,serif" font-size="9.00" fill="#000000">537</text>
</g>
<!-- D_lm&#45;&gt;537 -->
<g id="edge106" class="edge">
<title>D_lm&#45;&gt;537</title>
<path fill="none" stroke="#00ff00" stroke-width=".2797" d="M1466.6991,-306.6751C1466.9584,-294.6715 1467.4252,-273.068 1467.8185,-254.8624"/>
<polygon fill="#00ff00" stroke="#00ff00" stroke-width=".2797" points="1471.3226,-254.7075 1468.0395,-244.6342 1464.3242,-254.5562 1471.3226,-254.7075"/>
</g>
<!-- D_wall -->
<g id="node12" class="node">
<title>D_wall</title>
<polygon fill="#d3d3d3" stroke="#000000" points="940,-324.8894 897,-324.8894 897,-306.8894 940,-306.8894 940,-324.8894"/>
<text text-anchor="middle" x="918.5" y="-313.6894" font-family="Times,serif" font-size="9.00" fill="#000000">D_wall</text>
</g>
<!-- D_wall&#45;&gt;no_move -->
<g id="edge6" class="edge">
<title>D_wall&#45;&gt;no_move</title>
<path fill="none" stroke="#00ff00" stroke-width=".189" d="M908.0341,-306.8339C902.3391,-302.4187 894.9495,-297.47 887.5,-294.6762 759.6957,-246.7454 716.2211,-286.062 582.5,-258.6762 556.6446,-253.381 528.2968,-245.1466 505.6486,-237.9565"/>
<polygon fill="#00ff00" stroke="#00ff00" stroke-width=".189" points="506.5865,-234.5815 495.995,-234.8459 504.4397,-241.2442 506.5865,-234.5815"/>
</g>
<!-- D_wall&#45;&gt;forward -->
<g id="edge14" class="edge">
<title>D_wall&#45;&gt;forward</title>
<path fill="none" stroke="#00ff00" stroke-width=".2321" stroke-dasharray="1,5" d="M907.252,-306.6751C891.2723,-293.5847 861.3556,-269.0773 838.0806,-250.0106"/>
<polygon fill="#00ff00" stroke="#00ff00" stroke-width=".2321" points="840.1124,-247.1506 830.1587,-243.521 835.6765,-252.5656 840.1124,-247.1506"/>
</g>
<!-- D_wall&#45;&gt;537 -->
<g id="edge108" class="edge">
<title>D_wall&#45;&gt;537</title>
<path fill="none" stroke="#ff0000" stroke-width=".1431" d="M928.5329,-306.6973C934.0181,-302.2447 941.1748,-297.3038 948.5,-294.6762 1051.2707,-257.8118 1341.1687,-308.1475 1438.5,-258.6762 1443.0165,-256.3805 1447.1256,-253.0767 1450.7545,-249.3992"/>
<polygon fill="#ff0000" stroke="#ff0000" stroke-width=".1431" points="1453.6513,-251.3978 1457.5057,-241.5289 1448.3383,-246.8402 1453.6513,-251.3978"/>
</g>
<!-- E_agent -->
<g id="node13" class="node">
<title>E_agent</title>
<polygon fill="#d3d3d3" stroke="#000000" points="1163.5,-324.8894 1117.5,-324.8894 1117.5,-306.8894 1163.5,-306.8894 1163.5,-324.8894"/>
<text text-anchor="middle" x="1140.5" y="-313.6894" font-family="Times,serif" font-size="9.00" fill="#000000">E_agent</text>
</g>
<!-- E_agent&#45;&gt;no_turn -->
<g id="edge47" class="edge">
<title>E_agent&#45;&gt;no_turn</title>
<path fill="none" stroke="#00ff00" stroke-width=".114" stroke-dasharray="1,5" d="M1137.912,-306.6751C1135.04,-296.45 1130.2115,-279.259 1125.683,-263.1361"/>
<polygon fill="#00ff00" stroke="#00ff00" stroke-width=".114" points="1128.9961,-261.9883 1122.9224,-253.3073 1122.2569,-263.8812 1128.9961,-261.9883"/>
</g>
<!-- E_lm -->
<g id="node14" class="node">
<title>E_lm</title>
<polygon fill="#d3d3d3" stroke="#000000" points="1590.5,-324.8894 1554.5,-324.8894 1554.5,-306.8894 1590.5,-306.8894 1590.5,-324.8894"/>
<text text-anchor="middle" x="1572.5" y="-313.6894" font-family="Times,serif" font-size="9.00" fill="#000000">E_lm</text>
</g>
<!-- E_lm&#45;&gt;left -->
<g id="edge42" class="edge">
<title>E_lm&#45;&gt;left</title>
<path fill="none" stroke="#00ff00" stroke-width=".218" stroke-dasharray="1,5" d="M1577.151,-306.7951C1587.7053,-284.777 1610.8785,-227.5078 1588.5,-187.9655 1569.1208,-153.7228 1526.2539,-133.969 1497.3612,-124.074"/>
<polygon fill="#00ff00" stroke="#00ff00" stroke-width=".218" points="1498.3775,-120.7243 1487.7857,-120.9776 1496.2237,-127.3847 1498.3775,-120.7243"/>
</g>
<!-- E_lm&#45;&gt;forward -->
<g id="edge70" class="edge">
<title>E_lm&#45;&gt;forward</title>
<path fill="none" stroke="#00ff00" stroke-width=".3281" stroke-dasharray="1,5" d="M1554.4289,-309.9784C1538.7533,-305.0921 1515.365,-298.3766 1494.5,-294.6762 1310.0275,-261.9603 1260.7576,-278.8884 1074.5,-258.6762 993.941,-249.9341 900.1778,-236.9756 847.3356,-229.4152"/>
<polygon fill="#00ff00" stroke="#00ff00" stroke-width=".3281" points="847.7248,-225.9353 837.3288,-227.978 846.7296,-232.8642 847.7248,-225.9353"/>
</g>
<!-- E_lm&#45;&gt;backward -->
<g id="edge84" class="edge">
<title>E_lm&#45;&gt;backward</title>
<path fill="none" stroke="#00ff00" stroke-width=".1616" d="M1570.3234,-306.7667C1564.0152,-282.5527 1543.2536,-216.5632 1498.5,-187.9655 1435.6718,-147.8181 914.4162,-124.0718 754.1787,-117.6696"/>
<polygon fill="#00ff00" stroke="#00ff00" stroke-width=".1616" points="753.8456,-114.1538 743.7151,-117.2558 753.5689,-121.1483 753.8456,-114.1538"/>
</g>
<!-- E_lm&#45;&gt;ccw -->
<g id="edge23" class="edge">
<title>E_lm&#45;&gt;ccw</title>
<path fill="none" stroke="#00ff00" stroke-width=".3774" d="M1590.6295,-314.1127C1639.609,-308.9019 1772.6448,-291.8924 1798.5,-258.6762 1850.6353,-191.6979 1804.3805,-123.3448 1731.5,-79.8406 1650.301,-31.3709 961.0202,-23.3283 803.4781,-22.1192"/>
<polygon fill="#00ff00" stroke="#00ff00" stroke-width=".3774" points="803.4998,-18.6194 793.4746,-22.0463 803.4487,-25.6192 803.4998,-18.6194"/>
</g>
<!-- E_wall -->
<g id="node15" class="node">
<title>E_wall</title>
<polygon fill="#d3d3d3" stroke="#000000" points="1050.5,-391.1026 1008.5,-391.1026 1008.5,-373.1026 1050.5,-373.1026 1050.5,-391.1026"/>
<text text-anchor="middle" x="1029.5" y="-379.9026" font-family="Times,serif" font-size="9.00" fill="#000000">E_wall</text>
</g>
<!-- E_wall&#45;&gt;right -->
<g id="edge63" class="edge">
<title>E_wall&#45;&gt;right</title>
<path fill="none" stroke="#ff0000" stroke-width=".354" stroke-dasharray="1,5" d="M1008.3764,-381.9963C900.2295,-381.2801 411.5102,-375.9035 357.5,-337.1026 331.7561,-318.6082 320.0663,-283.3532 314.787,-256.9655"/>
<polygon fill="#ff0000" stroke="#ff0000" stroke-width=".354" points="318.2084,-256.2151 313.0055,-246.9858 311.3173,-257.4453 318.2084,-256.2151"/>
</g>
<!-- E_wall&#45;&gt;left -->
<g id="edge88" class="edge">
<title>E_wall&#45;&gt;left</title>
<path fill="none" stroke="#00ff00" stroke-width=".2908" d="M1050.6615,-381.1916C1151.5434,-376.7531 1579.5916,-356.8082 1599.5,-337.1026 1646.6604,-290.4225 1645.6571,-241.5366 1606.5,-187.9655 1575.396,-145.4119 1535.8872,-183.2959 1493.5,-151.9655 1489.7457,-149.1906 1486.3563,-145.6777 1483.3721,-141.9391"/>
<polygon fill="#00ff00" stroke="#00ff00" stroke-width=".2908" points="1486.1182,-139.7595 1477.5025,-133.5934 1480.3925,-143.7865 1486.1182,-139.7595"/>
</g>
<!-- E_wall&#45;&gt;backward -->
<g id="edge40" class="edge">
<title>E_wall&#45;&gt;backward</title>
<path fill="none" stroke="#00ff00" stroke-width=".3486" d="M1050.7683,-378.5439C1086.9411,-372.0103 1157.9511,-356.9332 1172.5,-337.1026 1211.7088,-283.6598 1215.6313,-238.2959 1172.5,-187.9655 1145.3722,-156.3098 865.8577,-129.3193 753.6971,-119.6811"/>
<polygon fill="#00ff00" stroke="#00ff00" stroke-width=".3486" points="753.9556,-116.1905 743.6947,-118.8295 753.3617,-123.1653 753.9556,-116.1905"/>
</g>
<!-- E_wall&#45;&gt;no_turn -->
<g id="edge31" class="edge">
<title>E_wall&#45;&gt;no_turn</title>
<path fill="none" stroke="#ff0000" stroke-width=".5341" d="M1029.9189,-372.885C1031.0042,-356.3302 1034.8665,-320.85 1048.5,-294.6762 1057.0216,-278.3163 1070.2995,-262.9175 1082.7181,-250.642"/>
<polygon fill="#ff0000" stroke="#ff0000" stroke-width=".5341" points="1085.468,-252.8561 1090.2892,-243.4217 1080.6369,-247.7903 1085.468,-252.8561"/>
</g>
<!-- E_wall&#45;&gt;ccw -->
<g id="edge29" class="edge">
<title>E_wall&#45;&gt;ccw</title>
<path fill="none" stroke="#ff0000" stroke-width=".49" d="M1050.5075,-380.9032C1149.8798,-375.178 1570.3235,-350.3614 1627.5,-337.1026 1718.9006,-315.9074 1770.903,-336.3734 1823.5,-258.6762 1841.1174,-232.6515 1829.1641,-218.8778 1823.5,-187.9655 1814.2372,-137.4127 1823.9434,-110.2352 1782.5,-79.8406 1742.097,-50.2091 971.763,-27.4166 803.7007,-22.7843"/>
<polygon fill="#ff0000" stroke="#ff0000" stroke-width=".49" points="803.6079,-19.2806 793.5158,-22.5056 803.4163,-26.2779 803.6079,-19.2806"/>
</g>
<!-- E_wall&#45;&gt;cw -->
<g id="edge66" class="edge">
<title>E_wall&#45;&gt;cw</title>
<path fill="none" stroke="#00ff00" stroke-width=".5603" stroke-dasharray="1,5" d="M1008.2912,-381.8485C876.0716,-380.1641 169.4494,-369.6546 138.5,-337.1026 109.5595,-306.6636 156.7926,-263.4528 188.1559,-240.0112"/>
<polygon fill="#00ff00" stroke="#00ff00" stroke-width=".5603" points="190.4681,-242.6577 196.5046,-233.9507 186.3559,-236.9929 190.4681,-242.6577"/>
</g>
<!-- 59 -->
<g id="node40" class="node">
<title>59</title>
<ellipse fill="#ffffff" stroke="#000000" cx="73.5" cy="-315.8894" rx="18.2703" ry="18.2703"/>
<text text-anchor="middle" x="73.5" y="-313.6894" font-family="Times,serif" font-size="9.00" fill="#000000">59</text>
</g>
<!-- E_wall&#45;&gt;59 -->
<g id="edge94" class="edge">
<title>E_wall&#45;&gt;59</title>
<path fill="none" stroke="#00ff00" stroke-width=".3709" d="M1008.1576,-381.7412C878.0084,-379.4479 193.819,-366.0798 105.5,-337.1026 102.4937,-336.1162 99.502,-334.7663 96.623,-333.2216"/>
<polygon fill="#00ff00" stroke="#00ff00" stroke-width=".3709" points="98.2723,-330.126 87.9294,-327.8295 94.5827,-336.0747 98.2723,-330.126"/>
</g>
<!-- F_agent -->
<g id="node16" class="node">
<title>F_agent</title>
<polygon fill="#d3d3d3" stroke="#000000" points="467,-324.8894 422,-324.8894 422,-306.8894 467,-306.8894 467,-324.8894"/>
<text text-anchor="middle" x="444.5" y="-313.6894" font-family="Times,serif" font-size="9.00" fill="#000000">F_agent</text>
</g>
<!-- F_agent&#45;&gt;no_move -->
<g id="edge80" class="edge">
<title>F_agent&#45;&gt;no_move</title>
<path fill="none" stroke="#00ff00" stroke-width=".122" d="M446.2917,-306.6751C448.0691,-297.5347 450.9288,-282.8278 453.755,-268.2935"/>
<polygon fill="#00ff00" stroke="#00ff00" stroke-width=".122" points="457.2194,-268.8137 455.6926,-258.3294 450.3481,-267.4775 457.2194,-268.8137"/>
</g>
<!-- F_agent&#45;&gt;right -->
<g id="edge83" class="edge">
<title>F_agent&#45;&gt;right</title>
<path fill="none" stroke="#ff0000" stroke-width=".7682" d="M431.2629,-306.7728C425.557,-302.9326 418.7675,-298.4809 412.5,-294.6762 384.2707,-277.5393 374.1015,-278.2447 347.5,-258.6762 342.9375,-255.3199 338.3528,-251.4428 334.04,-247.5122"/>
<polygon fill="#ff0000" stroke="#ff0000" stroke-width=".7682" points="336.296,-244.8279 326.634,-240.4807 331.4762,-249.9043 336.296,-244.8279"/>
</g>
<!-- F_agent&#45;&gt;forward -->
<g id="edge82" class="edge">
<title>F_agent&#45;&gt;forward</title>
<path fill="none" stroke="#ff0000" stroke-width=".5887" stroke-dasharray="1,5" d="M456.0418,-306.679C461.8735,-302.444 469.2396,-297.7007 476.5,-294.6762 549.399,-264.3087 573.3326,-275.4581 650.5,-258.6762 689.1489,-250.271 733.0968,-240.1975 764.3009,-232.9571"/>
<polygon fill="#ff0000" stroke="#ff0000" stroke-width=".5887" points="765.4208,-236.2901 774.3686,-230.6167 763.8358,-229.4719 765.4208,-236.2901"/>
</g>
<!-- F_agent&#45;&gt;cw -->
<g id="edge2" class="edge">
<title>F_agent&#45;&gt;cw</title>
<path fill="none" stroke="#00ff00" stroke-width=".2615" d="M432.8785,-306.8628C427.0278,-302.6713 419.6689,-297.9115 412.5,-294.6762 356.2914,-269.3096 335.8339,-281.3851 278.5,-258.6762 264.5773,-253.1617 249.8196,-245.4505 237.798,-238.6365"/>
<polygon fill="#00ff00" stroke="#00ff00" stroke-width=".2615" points="239.2178,-235.4139 228.8117,-233.4232 235.7052,-241.4687 239.2178,-235.4139"/>
</g>
<!-- F_lm -->
<g id="node17" class="node">
<title>F_lm</title>
<polygon fill="#d3d3d3" stroke="#000000" points="521.5,-324.8894 485.5,-324.8894 485.5,-306.8894 521.5,-306.8894 521.5,-324.8894"/>
<text text-anchor="middle" x="503.5" y="-313.6894" font-family="Times,serif" font-size="9.00" fill="#000000">F_lm</text>
</g>
<!-- F_lm&#45;&gt;no_move -->
<g id="edge59" class="edge">
<title>F_lm&#45;&gt;no_move</title>
<path fill="none" stroke="#00ff00" stroke-width=".6555" d="M499.4189,-306.6751C495.0913,-296.9045 487.9466,-280.7733 481.0894,-265.2915"/>
<polygon fill="#00ff00" stroke="#00ff00" stroke-width=".6555" points="484.1347,-263.5243 476.8848,-255.7984 477.7344,-266.3592 484.1347,-263.5243"/>
</g>
<!-- F_lm&#45;&gt;right -->
<g id="edge20" class="edge">
<title>F_lm&#45;&gt;right</title>
<path fill="none" stroke="#ff0000" stroke-width=".6978" d="M493.4807,-306.8346C488.3968,-302.6364 481.9443,-297.8792 475.5,-294.6762 422.58,-268.3738 398.831,-287.9588 347.5,-258.6762 342.4837,-255.8146 337.6295,-252.1268 333.1783,-248.217"/>
<polygon fill="#ff0000" stroke="#ff0000" stroke-width=".6978" points="335.3147,-245.419 325.6537,-241.0697 330.4938,-250.4944 335.3147,-245.419"/>
</g>
<!-- F_lm&#45;&gt;forward -->
<g id="edge8" class="edge">
<title>F_lm&#45;&gt;forward</title>
<path fill="none" stroke="#00ff00" stroke-width=".3252" d="M513.3333,-306.5495C518.1789,-302.3888 524.3035,-297.7455 530.5,-294.6762 551.5109,-284.2687 693.0278,-249.9549 764.4431,-232.9903"/>
<polygon fill="#00ff00" stroke="#00ff00" stroke-width=".3252" points="765.5256,-236.3308 774.4484,-230.6181 763.9107,-229.5196 765.5256,-236.3308"/>
</g>
<!-- F_lm&#45;&gt;backward -->
<g id="edge35" class="edge">
<title>F_lm&#45;&gt;backward</title>
<path fill="none" stroke="#ff0000" stroke-width=".201" d="M491.9473,-306.7878C486.9598,-302.9502 481.0146,-298.4964 475.5,-294.6762 450.8697,-277.6138 432.9632,-284.9172 418.5,-258.6762 403.3301,-231.153 399.1519,-212.7305 418.5,-187.9655 448.1451,-150.0207 587.612,-129.146 661.4198,-120.587"/>
<polygon fill="#ff0000" stroke="#ff0000" stroke-width=".201" points="661.8371,-124.0622 671.3804,-119.4606 661.0504,-117.1066 661.8371,-124.0622"/>
</g>
<!-- F_lm&#45;&gt;ccw -->
<g id="edge36" class="edge">
<title>F_lm&#45;&gt;ccw</title>
<path fill="none" stroke="#ff0000" stroke-width=".6918" d="M492.4051,-306.7113C487.3973,-302.7743 481.3115,-298.2653 475.5,-294.6762 444.7215,-275.6676 421.6029,-289.3963 402.5,-258.6762 385.9045,-231.9883 386.6713,-215.1152 402.5,-187.9655 473.9947,-65.3367 662.5157,-32.8444 738.7822,-24.5962"/>
<polygon fill="#ff0000" stroke="#ff0000" stroke-width=".6918" points="739.5941,-28.0323 749.1929,-23.5474 738.8924,-21.0675 739.5941,-28.0323"/>
</g>
<!-- F_wall -->
<g id="node18" class="node">
<title>F_wall</title>
<polygon fill="#d3d3d3" stroke="#000000" points="1099.5,-324.8894 1057.5,-324.8894 1057.5,-306.8894 1099.5,-306.8894 1099.5,-324.8894"/>
<text text-anchor="middle" x="1078.5" y="-313.6894" font-family="Times,serif" font-size="9.00" fill="#000000">F_wall</text>
</g>
<!-- F_wall&#45;&gt;left -->
<g id="edge72" class="edge">
<title>F_wall&#45;&gt;left</title>
<path fill="none" stroke="#00ff00" stroke-width=".2214" stroke-dasharray="1,5" d="M1089.2657,-306.7248C1094.72,-302.5007 1101.6306,-297.7533 1108.5,-294.6762 1173.4382,-265.5878 1199.4915,-287.6073 1264.5,-258.6762 1302.7162,-241.6686 1399.735,-168.7827 1444.8109,-134.2222"/>
<polygon fill="#00ff00" stroke="#00ff00" stroke-width=".2214" points="1447.0542,-136.9124 1452.8493,-128.0429 1442.788,-131.3627 1447.0542,-136.9124"/>
</g>
<!-- F_wall&#45;&gt;no_turn -->
<g id="edge60" class="edge">
<title>F_wall&#45;&gt;no_turn</title>
<path fill="none" stroke="#ff0000" stroke-width=".5118" stroke-dasharray="1,5" d="M1082.0834,-306.6751C1086.157,-296.2007 1093.0733,-278.4163 1099.4738,-261.9585"/>
<polygon fill="#ff0000" stroke="#ff0000" stroke-width=".5118" points="1102.7946,-263.0757 1103.1572,-252.487 1096.2706,-260.5384 1102.7946,-263.0757"/>
</g>
<!-- F_wall&#45;&gt;cw -->
<g id="edge45" class="edge">
<title>F_wall&#45;&gt;cw</title>
<path fill="none" stroke="#00ff00" stroke-width=".175" stroke-dasharray="1,5" d="M1057.3903,-307.8994C1043.9,-303.1707 1025.9173,-297.5575 1009.5,-294.6762 689.1143,-238.4464 591.9547,-345.5954 278.5,-258.6762 263.8268,-254.6074 248.7628,-246.8595 236.738,-239.6514"/>
<polygon fill="#00ff00" stroke="#00ff00" stroke-width=".175" points="238.5277,-236.6426 228.1918,-234.3144 234.8199,-242.58 238.5277,-236.6426"/>
</g>
<!-- G_agent -->
<g id="node19" class="node">
<title>G_agent</title>
<polygon fill="#d3d3d3" stroke="#000000" points="195,-324.8894 148,-324.8894 148,-306.8894 195,-306.8894 195,-324.8894"/>
<text text-anchor="middle" x="171.5" y="-313.6894" font-family="Times,serif" font-size="9.00" fill="#000000">G_agent</text>
</g>
<!-- G_agent&#45;&gt;no_move -->
<g id="edge7" class="edge">
<title>G_agent&#45;&gt;no_move</title>
<path fill="none" stroke="#ff0000" stroke-width=".2875" stroke-dasharray="1,5" d="M183.1089,-306.8345C188.9565,-302.6363 196.3165,-297.8791 203.5,-294.6762 261.7851,-268.6888 280.9954,-275.6963 342.5,-258.6762 367.845,-251.6625 396.0596,-243.3742 418.7595,-236.586"/>
<polygon fill="#ff0000" stroke="#ff0000" stroke-width=".2875" points="419.8748,-239.9056 428.4476,-233.68 417.8636,-233.2008 419.8748,-239.9056"/>
</g>
<!-- G_agent&#45;&gt;right -->
<g id="edge54" class="edge">
<title>G_agent&#45;&gt;right</title>
<path fill="none" stroke="#ff0000" stroke-width=".1735" stroke-dasharray="1,5" d="M185.081,-306.845C207.4918,-291.9203 252.6749,-261.8301 282.2468,-242.1363"/>
<polygon fill="#ff0000" stroke="#ff0000" stroke-width=".1735" points="284.4975,-244.8427 290.8807,-236.3866 280.6174,-239.0164 284.4975,-244.8427"/>
</g>
<!-- G_agent&#45;&gt;forward -->
<g id="edge26" class="edge">
<title>G_agent&#45;&gt;forward</title>
<path fill="none" stroke="#00ff00" stroke-width=".161" d="M182.3071,-306.7217C188.1868,-302.2757 195.8146,-297.3334 203.5,-294.6762 391.8688,-229.5482 453.4975,-288.9164 650.5,-258.6762 689.5944,-252.6751 733.489,-242.3142 764.5599,-234.3548"/>
<polygon fill="#00ff00" stroke="#00ff00" stroke-width=".161" points="765.7782,-237.6548 774.58,-231.7574 764.0216,-230.8788 765.7782,-237.6548"/>
</g>
<!-- G_agent&#45;&gt;backward -->
<g id="edge85" class="edge">
<title>G_agent&#45;&gt;backward</title>
<path fill="none" stroke="#00ff00" stroke-width=".1469" d="M169.0587,-306.602C163.5024,-283.1177 152.7226,-220.8964 184.5,-187.9655 201.0596,-170.8048 536.4453,-133.9097 661.2475,-120.7165"/>
<polygon fill="#00ff00" stroke="#00ff00" stroke-width=".1469" points="661.6839,-124.1899 671.2619,-119.6609 660.9501,-117.2285 661.6839,-124.1899"/>
</g>
<!-- G_agent&#45;&gt;ccw -->
<g id="edge17" class="edge">
<title>G_agent&#45;&gt;ccw</title>
<path fill="none" stroke="#00ff00" stroke-width=".2164" stroke-dasharray="1,5" d="M147.9683,-310.1657C123.4559,-302.8086 86.3278,-287.4095 69.5,-258.6762 28.3397,-188.3957 44.7541,-129.2519 109.5,-79.8406 160.0176,-41.2878 613.9428,-26.1931 739.464,-22.735"/>
<polygon fill="#00ff00" stroke="#00ff00" stroke-width=".2164" points="739.6822,-26.2305 749.5841,-22.462 739.4934,-19.2331 739.6822,-26.2305"/>
</g>
<!-- G_agent&#45;&gt;cw -->
<g id="edge49" class="edge">
<title>G_agent&#45;&gt;cw</title>
<path fill="none" stroke="#ff0000" stroke-width=".3294" stroke-dasharray="1,5" d="M175.5811,-306.6751C181.342,-293.6683 192.0954,-269.3898 200.5166,-250.3766"/>
<polygon fill="#ff0000" stroke="#ff0000" stroke-width=".3294" points="203.8194,-251.5621 204.669,-241.0014 197.4191,-248.7273 203.8194,-251.5621"/>
</g>
<!-- 257 -->
<g id="node34" class="node">
<title>257</title>
<ellipse fill="#ffffff" stroke="#000000" cx="116.5" cy="-223.3209" rx="21.4286" ry="21.4286"/>
<text text-anchor="middle" x="116.5" y="-221.1209" font-family="Times,serif" font-size="9.00" fill="#000000">257</text>
</g>
<!-- G_agent&#45;&gt;257 -->
<g id="edge102" class="edge">
<title>G_agent&#45;&gt;257</title>
<path fill="none" stroke="#ff0000" stroke-width=".3398" d="M166.0253,-306.6751C158.3198,-293.7062 143.956,-269.5311 132.674,-250.5428"/>
<polygon fill="#ff0000" stroke="#ff0000" stroke-width=".3398" points="135.5428,-248.5189 127.4258,-241.7097 129.5249,-252.0945 135.5428,-248.5189"/>
</g>
<!-- G_lm -->
<g id="node20" class="node">
<title>G_lm</title>
<polygon fill="#d3d3d3" stroke="#000000" points="818,-324.8894 781,-324.8894 781,-306.8894 818,-306.8894 818,-324.8894"/>
<text text-anchor="middle" x="799.5" y="-313.6894" font-family="Times,serif" font-size="9.00" fill="#000000">G_lm</text>
</g>
<!-- G_lm&#45;&gt;right -->
<g id="edge39" class="edge">
<title>G_lm&#45;&gt;right</title>
<path fill="none" stroke="#00ff00" stroke-width=".659" d="M790.2071,-306.7775C785.107,-302.3469 778.4233,-297.4014 771.5,-294.6762 624.7561,-236.9149 572.7709,-291.3966 418.5,-258.6762 392.1754,-253.0928 363.2433,-243.4224 341.9554,-235.6051"/>
<polygon fill="#00ff00" stroke="#00ff00" stroke-width=".659" points="343.0496,-232.2777 332.4571,-232.0541 340.5982,-238.8344 343.0496,-232.2777"/>
</g>
<!-- G_lm&#45;&gt;forward -->
<g id="edge62" class="edge">
<title>G_lm&#45;&gt;forward</title>
<path fill="none" stroke="#00ff00" stroke-width=".147" d="M800.0972,-306.6751C800.7294,-296.9216 801.7724,-280.8299 802.7743,-265.373"/>
<polygon fill="#00ff00" stroke="#00ff00" stroke-width=".147" points="806.2678,-265.5857 803.422,-255.3803 799.2824,-265.1329 806.2678,-265.5857"/>
</g>
<!-- G_lm&#45;&gt;backward -->
<g id="edge12" class="edge">
<title>G_lm&#45;&gt;backward</title>
<path fill="none" stroke="#ff0000" stroke-width=".3866" stroke-dasharray="1,5" d="M793.306,-306.8492C785.8914,-295.797 773.3664,-276.3744 764.5,-258.6762 748.3525,-226.4443 733.3763,-188.478 722.8308,-159.8019"/>
<polygon fill="#ff0000" stroke="#ff0000" stroke-width=".3866" points="725.9986,-158.2719 719.2908,-150.0709 719.4204,-160.665 725.9986,-158.2719"/>
</g>
<!-- G_lm&#45;&gt;no_turn -->
<g id="edge34" class="edge">
<title>G_lm&#45;&gt;no_turn</title>
<path fill="none" stroke="#ff0000" stroke-width=".2732" d="M809.3182,-306.5188C814.1605,-302.3515 820.2867,-297.7114 826.5,-294.6762 908.6341,-254.5535 1015.2852,-235.7691 1072.9981,-228.0194"/>
<polygon fill="#ff0000" stroke="#ff0000" stroke-width=".2732" points="1073.721,-231.455 1083.1878,-226.6981 1072.8208,-224.5131 1073.721,-231.455"/>
</g>
<!-- G_wall -->
<g id="node21" class="node">
<title>G_wall</title>
<polygon fill="#d3d3d3" stroke="#000000" points="879,-324.8894 836,-324.8894 836,-306.8894 879,-306.8894 879,-324.8894"/>
<text text-anchor="middle" x="857.5" y="-313.6894" font-family="Times,serif" font-size="9.00" fill="#000000">G_wall</text>
</g>
<!-- G_wall&#45;&gt;no_move -->
<g id="edge61" class="edge">
<title>G_wall&#45;&gt;no_move</title>
<path fill="none" stroke="#ff0000" stroke-width=".4493" d="M846.7183,-306.7061C841.0537,-302.3696 833.7867,-297.5301 826.5,-294.6762 724.431,-254.6998 689.5593,-282.2239 582.5,-258.6762 556.724,-253.0068 528.3803,-244.7534 505.7144,-237.6466"/>
<polygon fill="#ff0000" stroke="#ff0000" stroke-width=".4493" points="506.642,-234.269 496.0517,-234.579 504.5238,-240.9409 506.642,-234.269"/>
</g>
<!-- G_wall&#45;&gt;right -->
<g id="edge56" class="edge">
<title>G_wall&#45;&gt;right</title>
<path fill="none" stroke="#ff0000" stroke-width=".1525" stroke-dasharray="1,5" d="M847.0673,-306.7434C841.3814,-302.3034 833.9898,-297.3599 826.5,-294.6762 655.1307,-233.273 596.8297,-295.2318 418.5,-258.6762 392.138,-253.2723 363.2083,-243.5901 341.9309,-235.7226"/>
<polygon fill="#ff0000" stroke="#ff0000" stroke-width=".1525" points="343.0299,-232.3966 332.4381,-232.1455 340.5615,-238.947 343.0299,-232.3966"/>
</g>
<!-- G_wall&#45;&gt;left -->
<g id="edge76" class="edge">
<title>G_wall&#45;&gt;left</title>
<path fill="none" stroke="#ff0000" stroke-width=".8947" d="M866.4134,-306.5752C890.0862,-282.4702 957.5223,-217.8437 1027.5,-187.9655 1102.5059,-155.9405 1351.7866,-127.9103 1438.476,-118.9157"/>
<polygon fill="#ff0000" stroke="#ff0000" stroke-width=".8947" points="1439.0906,-122.3711 1448.6804,-117.8673 1438.3751,-115.4078 1439.0906,-122.3711"/>
</g>
<!-- G_wall&#45;&gt;forward -->
<g id="edge21" class="edge">
<title>G_wall&#45;&gt;forward</title>
<path fill="none" stroke="#00ff00" stroke-width=".1945" d="M852.3239,-306.6751C846.2549,-295.8713 835.8172,-277.2905 826.3347,-260.41"/>
<polygon fill="#00ff00" stroke="#00ff00" stroke-width=".1945" points="829.1479,-258.2715 821.1987,-251.2671 823.0449,-261.6999 829.1479,-258.2715"/>
</g>
<!-- G_wall&#45;&gt;backward -->
<g id="edge43" class="edge">
<title>G_wall&#45;&gt;backward</title>
<path fill="none" stroke="#ff0000" stroke-width=".7727" d="M859.4504,-306.8791C863.75,-284.5577 871.7674,-225.773 846.5,-187.9655 825.0347,-155.847 784.5633,-137.1806 752.804,-126.9291"/>
<polygon fill="#ff0000" stroke="#ff0000" stroke-width=".7727" points="753.4198,-123.4578 742.8338,-123.89 751.3787,-130.1537 753.4198,-123.4578"/>
</g>
<!-- G_wall&#45;&gt;no_turn -->
<g id="edge81" class="edge">
<title>G_wall&#45;&gt;no_turn</title>
<path fill="none" stroke="#00ff00" stroke-width=".4565" stroke-dasharray="1,5" d="M868.6544,-306.7431C874.0885,-302.6248 880.8697,-297.9613 887.5,-294.6762 949.4446,-263.9843 1027.403,-242.9276 1073.9698,-232.0241"/>
<polygon fill="#00ff00" stroke="#00ff00" stroke-width=".4565" points="1075.0142,-235.3754 1083.9763,-229.7247 1073.4464,-228.5532 1075.0142,-235.3754"/>
</g>
<!-- H_agent -->
<g id="node22" class="node">
<title>H_agent</title>
<polygon fill="#d3d3d3" stroke="#000000" points="1277,-391.1026 1230,-391.1026 1230,-373.1026 1277,-373.1026 1277,-391.1026"/>
<text text-anchor="middle" x="1253.5" y="-379.9026" font-family="Times,serif" font-size="9.00" fill="#000000">H_agent</text>
</g>
<!-- H_agent&#45;&gt;no_turn -->
<g id="edge37" class="edge">
<title>H_agent&#45;&gt;no_turn</title>
<path fill="none" stroke="#ff0000" stroke-width=".3465" d="M1245.2212,-372.6456C1225.3342,-349.9284 1174.1448,-291.454 1142.0425,-254.7831"/>
<polygon fill="#ff0000" stroke="#ff0000" stroke-width=".3465" points="1144.3284,-252.0806 1135.1081,-246.8618 1139.0615,-256.6914 1144.3284,-252.0806"/>
</g>
<!-- 865 -->
<g id="node35" class="node">
<title>865</title>
<ellipse fill="#ffffff" stroke="#000000" cx="1278.5" cy="-315.8894" rx="21.4286" ry="21.4286"/>
<text text-anchor="middle" x="1278.5" y="-313.6894" font-family="Times,serif" font-size="9.00" fill="#000000">865</text>
</g>
<!-- H_agent&#45;&gt;865 -->
<g id="edge109" class="edge">
<title>H_agent&#45;&gt;865</title>
<path fill="none" stroke="#ff0000" stroke-width=".1758" d="M1256.9761,-372.8959C1259.6729,-365.7535 1263.5695,-355.4333 1267.3082,-345.5312"/>
<polygon fill="#ff0000" stroke="#ff0000" stroke-width=".1758" points="1270.6861,-346.4932 1270.9441,-335.9015 1264.1373,-344.0206 1270.6861,-346.4932"/>
</g>
<!-- H_lm -->
<g id="node23" class="node">
<title>H_lm</title>
<polygon fill="#d3d3d3" stroke="#000000" points="37,-324.8894 0,-324.8894 0,-306.8894 37,-306.8894 37,-324.8894"/>
<text text-anchor="middle" x="18.5" y="-313.6894" font-family="Times,serif" font-size="9.00" fill="#000000">H_lm</text>
</g>
<!-- H_lm&#45;&gt;right -->
<g id="edge30" class="edge">
<title>H_lm&#45;&gt;right</title>
<path fill="none" stroke="#00ff00" stroke-width=".1492" d="M28.1427,-306.7932C33.2348,-302.479 39.8055,-297.633 46.5,-294.6762 126.7179,-259.2451 157.4131,-286.7268 240.5,-258.6762 254.48,-253.9565 269.1685,-246.8966 281.4603,-240.3238"/>
<polygon fill="#00ff00" stroke="#00ff00" stroke-width=".1492" points="283.2658,-243.3252 290.3413,-235.4392 279.8924,-237.1917 283.2658,-243.3252"/>
</g>
<!-- H_lm&#45;&gt;backward -->
<g id="edge73" class="edge">
<title>H_lm&#45;&gt;backward</title>
<path fill="none" stroke="#00ff00" stroke-width=".3315" d="M20.2936,-306.8492C25.5777,-282.8404 43.4964,-217.3146 86.5,-187.9655 98.4163,-179.8329 519.1366,-135.4767 661.1904,-120.6971"/>
<polygon fill="#00ff00" stroke="#00ff00" stroke-width=".3315" points="661.7362,-124.1593 671.3207,-119.6441 661.0124,-117.1968 661.7362,-124.1593"/>
</g>
<!-- H_lm&#45;&gt;no_turn -->
<g id="edge15" class="edge">
<title>H_lm&#45;&gt;no_turn</title>
<path fill="none" stroke="#ff0000" stroke-width=".1943" stroke-dasharray="1,5" d="M27.4831,-306.8351C32.5959,-302.3029 39.3875,-297.2456 46.5,-294.6762 213.8713,-234.2131 669.232,-274.3282 846.5,-258.6762 927.3612,-251.5365 1021.2993,-237.9045 1073.7288,-229.8128"/>
<polygon fill="#ff0000" stroke="#ff0000" stroke-width=".1943" points="1074.3012,-233.266 1083.6451,-228.2719 1073.2263,-226.349 1074.3012,-233.266"/>
</g>
<!-- H_lm&#45;&gt;ccw -->
<g id="edge11" class="edge">
<title>H_lm&#45;&gt;ccw</title>
<path fill="none" stroke="#00ff00" stroke-width=".1047" stroke-dasharray="1,5" d="M16.1443,-306.4306C7.8501,-270.6159 -16.1027,-142.2094 49.5,-79.8406 100.0781,-31.7558 605.8363,-23.5114 739.3319,-22.1695"/>
<polygon fill="#00ff00" stroke="#00ff00" stroke-width=".1047" points="739.3756,-25.6693 749.3421,-22.075 739.3095,-18.6696 739.3756,-25.6693"/>
</g>
<!-- H_lm&#45;&gt;cw -->
<g id="edge74" class="edge">
<title>H_lm&#45;&gt;cw</title>
<path fill="none" stroke="#00ff00" stroke-width=".3616" stroke-dasharray="1,5" d="M28.8834,-306.8217C33.9493,-302.7207 40.2813,-298.049 46.5,-294.6762 88.0229,-272.156 103.3431,-277.8802 146.5,-258.6762 160.1817,-252.5881 174.9152,-244.8196 186.9832,-238.116"/>
<polygon fill="#00ff00" stroke="#00ff00" stroke-width=".3616" points="189.0278,-240.9813 196.0191,-233.0206 185.5894,-234.8839 189.0278,-240.9813"/>
</g>
<!-- H_wall -->
<g id="node24" class="node">
<title>H_wall</title>
<polygon fill="#d3d3d3" stroke="#000000" points="643,-324.8894 600,-324.8894 600,-306.8894 643,-306.8894 643,-324.8894"/>
<text text-anchor="middle" x="621.5" y="-313.6894" font-family="Times,serif" font-size="9.00" fill="#000000">H_wall</text>
</g>
<!-- H_wall&#45;&gt;right -->
<g id="edge32" class="edge">
<title>H_wall&#45;&gt;right</title>
<path fill="none" stroke="#00ff00" stroke-width=".2532" stroke-dasharray="1,5" d="M610.3578,-306.6746C604.7175,-302.4386 597.5781,-297.6956 590.5,-294.6762 518.6625,-264.031 493.9488,-278.856 418.5,-258.6762 392.5036,-251.7231 363.5499,-242.1425 342.1703,-234.7082"/>
<polygon fill="#00ff00" stroke="#00ff00" stroke-width=".2532" points="343.2191,-231.3671 332.6242,-231.3566 340.9001,-237.9718 343.2191,-231.3671"/>
</g>
<!-- H_wall&#45;&gt;left -->
<g id="edge79" class="edge">
<title>H_wall&#45;&gt;left</title>
<path fill="none" stroke="#ff0000" stroke-width=".3548" d="M630.8749,-306.8809C660.0537,-278.9316 748.2743,-195.132 764.5,-187.9655 888.3338,-133.2715 1320.6438,-119.3418 1438.5814,-116.5238"/>
<polygon fill="#ff0000" stroke="#ff0000" stroke-width=".3548" points="1438.7719,-120.0205 1448.6888,-116.2915 1438.611,-113.0223 1438.7719,-120.0205"/>
</g>
<!-- H_wall&#45;&gt;backward -->
<g id="edge68" class="edge">
<title>H_wall&#45;&gt;backward</title>
<path fill="none" stroke="#ff0000" stroke-width=".2467" stroke-dasharray="1,5" d="M626.4797,-306.6978C632.4731,-295.4965 642.7031,-275.9272 650.5,-258.6762 665.3476,-225.8252 680.3957,-187.8932 691.2991,-159.3875"/>
<polygon fill="#ff0000" stroke="#ff0000" stroke-width=".2467" points="694.6918,-160.3127 694.9758,-149.7217 688.1491,-157.824 694.6918,-160.3127"/>
</g>
<!-- H_wall&#45;&gt;no_turn -->
<g id="edge55" class="edge">
<title>H_wall&#45;&gt;no_turn</title>
<path fill="none" stroke="#00ff00" stroke-width=".1586" stroke-dasharray="1,5" d="M631.8958,-306.7189C637.368,-302.3857 644.4034,-297.5453 651.5,-294.6762 690.4032,-278.9482 967.4848,-242.2051 1073.4405,-228.5517"/>
<polygon fill="#00ff00" stroke="#00ff00" stroke-width=".1586" points="1073.9689,-232.0127 1083.441,-227.2662 1073.0763,-225.0698 1073.9689,-232.0127"/>
</g>
<!-- H_wall&#45;&gt;cw -->
<g id="edge18" class="edge">
<title>H_wall&#45;&gt;cw</title>
<path fill="none" stroke="#ff0000" stroke-width=".2193" d="M611.0371,-306.8259C605.3429,-302.4085 597.9531,-297.4602 590.5,-294.6762 459.7384,-245.8311 411.7141,-300.371 278.5,-258.6762 264.0671,-254.1588 249.1211,-246.4451 237.1093,-239.3734"/>
<polygon fill="#ff0000" stroke="#ff0000" stroke-width=".2193" points="238.9127,-236.3737 228.5529,-234.1543 235.2675,-242.3497 238.9127,-236.3737"/>
</g>
<!-- 1062 -->
<g id="node37" class="node">
<title>1062</title>
<ellipse fill="#ffffff" stroke="#000000" cx="616.5" cy="-223.3209" rx="25" ry="25"/>
<text text-anchor="middle" x="616.5" y="-221.1209" font-family="Times,serif" font-size="9.00" fill="#000000">1062</text>
</g>
<!-- H_wall&#45;&gt;1062 -->
<g id="edge111" class="edge">
<title>H_wall&#45;&gt;1062</title>
<path fill="none" stroke="#00ff00" stroke-width=".5053" d="M621.0023,-306.6751C620.3968,-295.4654 619.3391,-275.8835 618.401,-258.5153"/>
<polygon fill="#00ff00" stroke="#00ff00" stroke-width=".5053" points="621.8718,-257.8785 617.8374,-248.0819 614.882,-258.2562 621.8718,-257.8785"/>
</g>
<!-- backward&#45;&gt;backward -->
<g id="edge9" class="edge">
<title>backward&#45;&gt;backward</title>
<path fill="none" stroke="#00ff00" stroke-width=".1881" stroke-dasharray="1,5" d="M739.4221,-133.1015C751.5396,-133.7648 761.5624,-128.032 761.5624,-115.9031 761.5624,-107.3749 756.6073,-102.0089 749.453,-99.8051"/>
<polygon fill="#00ff00" stroke="#00ff00" stroke-width=".1881" points="749.7441,-96.3161 739.4221,-98.7047 748.9808,-103.2743 749.7441,-96.3161"/>
</g>
<!-- no_turn&#45;&gt;no_turn -->
<g id="edge41" class="edge">
<title>no_turn&#45;&gt;no_turn</title>
<path fill="none" stroke="#00ff00" stroke-width=".171" d="M1140.7746,-240.2297C1152.9632,-242.0743 1163.6127,-236.438 1163.6127,-223.3209 1163.6127,-214.0978 1158.3478,-208.5732 1150.9847,-206.7471"/>
<polygon fill="#00ff00" stroke="#00ff00" stroke-width=".171" points="1150.884,-203.242 1140.7746,-206.412 1150.6543,-210.2382 1150.884,-203.242"/>
</g>
<!-- ccw&#45;&gt;ccw -->
<g id="edge44" class="edge">
<title>ccw&#45;&gt;ccw</title>
<path fill="none" stroke="#ff0000" stroke-width=".108" d="M787.4866,-37.132C799.4065,-42.444 811.4203,-37.3734 811.4203,-21.9203 811.4203,-10.8134 805.214,-5.0701 797.297,-4.6905"/>
<polygon fill="#ff0000" stroke="#ff0000" stroke-width=".108" points="796.5762,-1.2654 787.4866,-6.7086 797.9868,-8.1218 796.5762,-1.2654"/>
</g>
<!-- cw&#45;&gt;441 -->
<g id="edge113" class="edge">
<title>cw&#45;&gt;441</title>
<path fill="none" stroke="#00ff00" stroke-width=".2481" d="M225.5733,-209.2779C242.1705,-191.4495 271.0329,-160.4461 290.9179,-139.0861"/>
<polygon fill="#00ff00" stroke="#00ff00" stroke-width=".2481" points="293.5463,-141.3994 297.7984,-131.6952 288.4228,-136.6297 293.5463,-141.3994"/>
</g>
<!-- 194&#45;&gt;left -->
<g id="edge101" class="edge">
<title>194&#45;&gt;left</title>
<path fill="none" stroke="#00ff00" stroke-width=".2095" stroke-dasharray="1,5" d="M1418.9512,-204.6101C1428.5883,-187.3569 1442.9924,-161.5693 1453.7899,-142.2386"/>
<polygon fill="#00ff00" stroke="#00ff00" stroke-width=".2095" points="1456.9431,-143.7705 1458.7641,-133.3333 1450.8319,-140.3569 1456.9431,-143.7705"/>
</g>
<!-- 194&#45;&gt;backward -->
<g id="edge100" class="edge">
<title>194&#45;&gt;backward</title>
<path fill="none" stroke="#ff0000" stroke-width=".3108" d="M1390.2881,-212.356C1375.9238,-204.2463 1355.1084,-193.66 1335.5,-187.9655 1225.8172,-156.1124 879.3261,-128.4171 753.626,-119.1764"/>
<polygon fill="#ff0000" stroke="#ff0000" stroke-width=".3108" points="753.7868,-115.679 743.5584,-118.4412 753.2769,-122.6604 753.7868,-115.679"/>
</g>
<!-- 257&#45;&gt;backward -->
<g id="edge103" class="edge">
<title>257&#45;&gt;backward</title>
<path fill="none" stroke="#00ff00" stroke-width=".1468" stroke-dasharray="1,5" d="M129.3588,-206.0518C135.326,-199.301 142.9854,-192.1805 151.5,-187.9655 196.8928,-165.4944 536.0406,-131.9245 661.2417,-120.1598"/>
<polygon fill="#00ff00" stroke="#00ff00" stroke-width=".1468" points="661.6521,-123.6368 671.2823,-119.2201 660.9997,-116.6673 661.6521,-123.6368"/>
</g>
<!-- 865&#45;&gt;no_turn -->
<g id="edge110" class="edge">
<title>865&#45;&gt;no_turn</title>
<path fill="none" stroke="#ff0000" stroke-width=".2471" stroke-dasharray="1,5" d="M1260.4158,-304.7418C1255.0019,-301.4553 1249.0334,-297.8817 1243.5,-294.6762 1212.731,-276.8513 1177.3632,-257.3567 1151.4514,-243.2551"/>
<polygon fill="#ff0000" stroke="#ff0000" stroke-width=".2471" points="1152.8169,-240.0139 1142.3588,-238.3169 1149.476,-246.1652 1152.8169,-240.0139"/>
</g>
<!-- 441&#45;&gt;ccw -->
<g id="edge105" class="edge">
<title>441&#45;&gt;ccw</title>
<path fill="none" stroke="#00ff00" stroke-width=".2938" stroke-dasharray="1,5" d="M324.9863,-98.6932C330.99,-91.7028 338.7793,-84.2491 347.5,-79.8406 416.4005,-45.0099 652.8814,-28.5587 739.4337,-23.601"/>
<polygon fill="#00ff00" stroke="#00ff00" stroke-width=".2938" points="739.6694,-27.0934 749.4582,-23.0401 739.2783,-20.1043 739.6694,-27.0934"/>
</g>
<!-- 1062&#45;&gt;backward -->
<g id="edge112" class="edge">
<title>1062&#45;&gt;backward</title>
<path fill="none" stroke="#ff0000" stroke-width=".126" d="M632.769,-204.1167C645.0935,-189.5686 662.3802,-169.1632 677.2236,-151.6418"/>
<polygon fill="#ff0000" stroke="#ff0000" stroke-width=".126" points="680.0517,-153.7182 683.8451,-143.8257 674.7106,-149.1935 680.0517,-153.7182"/>
</g>
<!-- 537&#45;&gt;left -->
<g id="edge107" class="edge">
<title>537&#45;&gt;left</title>
<path fill="none" stroke="#ff0000" stroke-width=".5192" stroke-dasharray="1,5" d="M1468.5,-202.0986C1468.5,-186.1247 1468.5,-164.0096 1468.5,-146.1799"/>
<polygon fill="#ff0000" stroke="#ff0000" stroke-width=".5192" points="1472.0001,-145.9913 1468.5,-135.9914 1465.0001,-145.9914 1472.0001,-145.9913"/>
</g>
<!-- 89&#45;&gt;backward -->
<g id="edge98" class="edge">
<title>89&#45;&gt;backward</title>
<path fill="none" stroke="#00ff00" stroke-width=".2475" d="M1227.1453,-207.5796C1221.5946,-200.4288 1214.1222,-192.5583 1205.5,-187.9655 1127.5243,-146.4304 861.8877,-125.5436 753.807,-118.6052"/>
<polygon fill="#00ff00" stroke="#00ff00" stroke-width=".2475" points="753.7472,-115.0946 743.5467,-117.9582 753.3066,-122.0807 753.7472,-115.0946"/>
</g>
<!-- 59&#45;&gt;cw -->
<g id="edge95" class="edge">
<title>59&#45;&gt;cw</title>
<path fill="none" stroke="#00ff00" stroke-width=".4596" d="M88.9065,-305.6293C112.8884,-289.6583 159.3586,-258.7109 187.9821,-239.6488"/>
<polygon fill="#00ff00" stroke="#00ff00" stroke-width=".4596" points="190.2141,-242.3676 196.5973,-233.9114 186.334,-236.5413 190.2141,-242.3676"/>
</g>
</g>
</svg>
