<?xml version="1.0" encoding="UTF-8" standalone="no"?>
<!DOCTYPE svg PUBLIC "-//W3C//DTD SVG 1.1//EN"
 "http://www.w3.org/Graphics/SVG/1.1/DTD/svg11.dtd">
<!-- Generated by graphviz version 2.40.1 (20161225.0304)
 -->
<!-- Title: %3 Pages: 1 -->
<svg width="1419pt" height="369pt"
 viewBox="0.00 0.00 1419.45 369.40" xmlns="http://www.w3.org/2000/svg" xmlns:xlink="http://www.w3.org/1999/xlink">
<g id="graph0" class="graph" transform="scale(1 1) rotate(0) translate(4 365.4041)">
<title>%3</title>
<polygon fill="#ffffff" stroke="transparent" points="-4,4 -4,-365.4041 1415.4496,-365.4041 1415.4496,4 -4,4"/>
<!-- x&#45;vel -->
<g id="node1" class="node">
<title>x&#45;vel</title>
<polygon fill="#d3d3d3" stroke="#000000" points="908.0538,-216.7645 873.0538,-216.7645 873.0538,-198.7645 908.0538,-198.7645 908.0538,-216.7645"/>
<text text-anchor="middle" x="890.5538" y="-205.5645" font-family="Times,serif" font-size="9.00" fill="#000000">x&#45;vel</text>
</g>
<!-- forward -->
<g id="node16" class="node">
<title>forward</title>
<ellipse fill="#add8e6" stroke="#000000" cx="191.5538" cy="-114.4889" rx="31.6406" ry="31.6406"/>
<text text-anchor="middle" x="191.5538" y="-112.2889" font-family="Times,serif" font-size="9.00" fill="#000000">forward</text>
</g>
<!-- x&#45;vel&#45;&gt;forward -->
<g id="edge3" class="edge">
<title>x&#45;vel&#45;&gt;forward</title>
<path fill="none" stroke="#00ff00" stroke-width="1.444" stroke-dasharray="1,5" d="M872.979,-201.2848C858.9781,-196.4055 838.7721,-189.9893 820.5538,-186.5513 620.7825,-148.8525 565.8006,-179.3522 364.5538,-150.5513 318.9441,-144.024 267.3118,-132.7447 232.4184,-124.535"/>
<polygon fill="#00ff00" stroke="#00ff00" stroke-width="1.444" points="233.1347,-121.1078 222.5964,-122.201 231.5163,-127.9182 233.1347,-121.1078"/>
</g>
<!-- backward -->
<g id="node17" class="node">
<title>backward</title>
<ellipse fill="#add8e6" stroke="#000000" cx="1086.5538" cy="-114.4889" rx="36.125" ry="36.125"/>
<text text-anchor="middle" x="1086.5538" y="-112.2889" font-family="Times,serif" font-size="9.00" fill="#000000">backward</text>
</g>
<!-- x&#45;vel&#45;&gt;backward -->
<g id="edge7" class="edge">
<title>x&#45;vel&#45;&gt;backward</title>
<path fill="none" stroke="#00ff00" stroke-width=".698" stroke-dasharray="1,5" d="M900.862,-198.6201C905.7121,-194.5984 911.7059,-190.0132 917.5538,-186.5513 957.9466,-162.6395 1007.7474,-142.4056 1042.7912,-129.5229"/>
<polygon fill="#00ff00" stroke="#00ff00" stroke-width=".698" points="1044.0565,-132.7872 1052.264,-126.0874 1041.6698,-126.2066 1044.0565,-132.7872"/>
</g>
<!-- y&#45;vel -->
<g id="node2" class="node">
<title>y&#45;vel</title>
<polygon fill="#d3d3d3" stroke="#000000" points="239.0538,-295.1909 204.0538,-295.1909 204.0538,-277.1909 239.0538,-277.1909 239.0538,-295.1909"/>
<text text-anchor="middle" x="221.5538" y="-283.9909" font-family="Times,serif" font-size="9.00" fill="#000000">y&#45;vel</text>
</g>
<!-- right -->
<g id="node14" class="node">
<title>right</title>
<ellipse fill="#add8e6" stroke="#000000" cx="640.5538" cy="-114.4889" rx="23.1702" ry="23.1702"/>
<text text-anchor="middle" x="640.5538" y="-112.2889" font-family="Times,serif" font-size="9.00" fill="#000000">right</text>
</g>
<!-- y&#45;vel&#45;&gt;right -->
<g id="edge4" class="edge">
<title>y&#45;vel&#45;&gt;right</title>
<path fill="none" stroke="#ff0000" stroke-width=".371" d="M227.338,-277.0465C240.4261,-257.1647 274.3986,-209.9166 315.5538,-186.5513 365.6125,-158.1312 534.5528,-130.3069 607.0519,-119.3595"/>
<polygon fill="#ff0000" stroke="#ff0000" stroke-width=".371" points="607.6506,-122.809 617.0231,-117.8687 606.6155,-115.886 607.6506,-122.809"/>
</g>
<!-- left -->
<g id="node15" class="node">
<title>left</title>
<ellipse fill="#add8e6" stroke="#000000" cx="394.5538" cy="-207.7645" rx="19.6" ry="19.6"/>
<text text-anchor="middle" x="394.5538" y="-205.5645" font-family="Times,serif" font-size="9.00" fill="#000000">left</text>
</g>
<!-- y&#45;vel&#45;&gt;left -->
<g id="edge49" class="edge">
<title>y&#45;vel&#45;&gt;left</title>
<path fill="none" stroke="#ff0000" stroke-width=".1424" d="M231.5616,-277.1783C236.4454,-273.0894 242.5518,-268.4119 248.5538,-264.9777 286.8121,-243.0871 335.0777,-226.0007 365.3885,-216.398"/>
<polygon fill="#ff0000" stroke="#ff0000" stroke-width=".1424" points="366.8016,-219.6242 375.3152,-213.3179 364.7272,-212.9386 366.8016,-219.6242"/>
</g>
<!-- y&#45;vel&#45;&gt;forward -->
<g id="edge21" class="edge">
<title>y&#45;vel&#45;&gt;forward</title>
<path fill="none" stroke="#00ff00" stroke-width=".3298" stroke-dasharray="1,5" d="M203.7949,-280.7693C182.2422,-273.1222 146.8848,-256.8902 131.5538,-228.9777 115.4691,-199.6931 138.3885,-165.7463 160.3839,-142.4657"/>
<polygon fill="#00ff00" stroke="#00ff00" stroke-width=".3298" points="162.9173,-144.8813 167.4422,-135.3013 157.9307,-139.9686 162.9173,-144.8813"/>
</g>
<!-- 724 -->
<g id="node25" class="node">
<title>724</title>
<ellipse fill="#ffffff" stroke="#000000" cx="221.5538" cy="-207.7645" rx="21.4286" ry="21.4286"/>
<text text-anchor="middle" x="221.5538" y="-205.5645" font-family="Times,serif" font-size="9.00" fill="#000000">724</text>
</g>
<!-- y&#45;vel&#45;&gt;724 -->
<g id="edge59" class="edge">
<title>y&#45;vel&#45;&gt;724</title>
<path fill="none" stroke="#00ff00" stroke-width=".2244" d="M221.5538,-276.8864C221.5538,-267.6658 221.5538,-253.0132 221.5538,-239.567"/>
<polygon fill="#00ff00" stroke="#00ff00" stroke-width=".2244" points="225.0539,-239.1689 221.5538,-229.169 218.0539,-239.169 225.0539,-239.1689"/>
</g>
<!-- x&#45;pos -->
<g id="node3" class="node">
<title>x&#45;pos</title>
<polygon fill="#d3d3d3" stroke="#000000" points="293.5538,-295.1909 257.5538,-295.1909 257.5538,-277.1909 293.5538,-277.1909 293.5538,-295.1909"/>
<text text-anchor="middle" x="275.5538" y="-283.9909" font-family="Times,serif" font-size="9.00" fill="#000000">x&#45;pos</text>
</g>
<!-- x&#45;pos&#45;&gt;right -->
<g id="edge18" class="edge">
<title>x&#45;pos&#45;&gt;right</title>
<path fill="none" stroke="#00ff00" stroke-width=".1499" d="M281.0571,-277.1554C293.5189,-257.4907 325.9159,-210.6486 365.5538,-186.5513 443.6402,-139.0798 552.6285,-122.5805 606.97,-117.0841"/>
<polygon fill="#00ff00" stroke="#00ff00" stroke-width=".1499" points="607.4591,-120.5535 617.0843,-116.1256 606.7987,-113.5847 607.4591,-120.5535"/>
</g>
<!-- x&#45;pos&#45;&gt;left -->
<g id="edge2" class="edge">
<title>x&#45;pos&#45;&gt;left</title>
<path fill="none" stroke="#00ff00" stroke-width=".7103" d="M286.6408,-277.031C291.4413,-273.1835 297.1818,-268.7381 302.5538,-264.9777 327.4091,-247.5792 334.7947,-245.0077 360.5538,-228.9777 363.3301,-227.25 366.233,-225.4417 369.1225,-223.6405"/>
<polygon fill="#00ff00" stroke="#00ff00" stroke-width=".7103" points="370.9777,-226.6085 377.6103,-218.3466 367.2732,-220.669 370.9777,-226.6085"/>
</g>
<!-- x&#45;pos&#45;&gt;forward -->
<g id="edge28" class="edge">
<title>x&#45;pos&#45;&gt;forward</title>
<path fill="none" stroke="#ff0000" stroke-width=".1031" d="M274.7381,-276.917C272.8393,-258.7146 267.0433,-217.3998 251.5538,-186.5513 243.8834,-171.2752 232.4115,-156.4074 221.5468,-144.1827"/>
<polygon fill="#ff0000" stroke="#ff0000" stroke-width=".1031" points="223.8826,-141.5517 214.5409,-136.5534 218.7267,-146.2863 223.8826,-141.5517"/>
</g>
<!-- x&#45;pos&#45;&gt;backward -->
<g id="edge20" class="edge">
<title>x&#45;pos&#45;&gt;backward</title>
<path fill="none" stroke="#00ff00" stroke-width=".5004" d="M284.1664,-277.1587C289.0821,-272.6329 295.6331,-267.5747 302.5538,-264.9777 446.5151,-210.9549 856.4854,-298.6596 993.5538,-228.9777 1002.4072,-224.4769 1034.6835,-183.3862 1058.7427,-151.7058"/>
<polygon fill="#00ff00" stroke="#00ff00" stroke-width=".5004" points="1061.7306,-153.5574 1064.9732,-143.4709 1056.1484,-149.3338 1061.7306,-153.5574"/>
</g>
<!-- 601 -->
<g id="node27" class="node">
<title>601</title>
<ellipse fill="#ffffff" stroke="#000000" cx="161.5538" cy="-207.7645" rx="21.4286" ry="21.4286"/>
<text text-anchor="middle" x="161.5538" y="-205.5645" font-family="Times,serif" font-size="9.00" fill="#000000">601</text>
</g>
<!-- x&#45;pos&#45;&gt;601 -->
<g id="edge58" class="edge">
<title>x&#45;pos&#45;&gt;601</title>
<path fill="none" stroke="#00ff00" stroke-width=".2998" stroke-dasharray="1,5" d="M263.9861,-277.1109C258.996,-273.2769 253.053,-268.82 247.5538,-264.9777 223.2994,-248.0313 216.0835,-245.5231 191.5538,-228.9777 190.1359,-228.0213 188.6858,-227.0325 187.226,-226.0287"/>
<polygon fill="#00ff00" stroke="#00ff00" stroke-width=".2998" points="189.1183,-223.0813 178.9131,-220.2345 185.1156,-228.824 189.1183,-223.0813"/>
</g>
<!-- y&#45;pos -->
<g id="node4" class="node">
<title>y&#45;pos</title>
<polygon fill="#d3d3d3" stroke="#000000" points="483.5538,-295.1909 447.5538,-295.1909 447.5538,-277.1909 483.5538,-277.1909 483.5538,-295.1909"/>
<text text-anchor="middle" x="465.5538" y="-283.9909" font-family="Times,serif" font-size="9.00" fill="#000000">y&#45;pos</text>
</g>
<!-- y&#45;pos&#45;&gt;right -->
<g id="edge26" class="edge">
<title>y&#45;pos&#45;&gt;right</title>
<path fill="none" stroke="#ff0000" stroke-width=".1006" stroke-dasharray="1,5" d="M462.5651,-276.9667C457.0709,-258.1287 447.5742,-214.6484 466.5538,-186.5513 498.1223,-139.8177 566.1412,-123.3456 607.161,-117.5719"/>
<polygon fill="#ff0000" stroke="#ff0000" stroke-width=".1006" points="607.7384,-121.0268 617.2176,-116.2944 606.8562,-114.0826 607.7384,-121.0268"/>
</g>
<!-- y&#45;pos&#45;&gt;left -->
<g id="edge19" class="edge">
<title>y&#45;pos&#45;&gt;left</title>
<path fill="none" stroke="#ff0000" stroke-width=".8324" d="M457.1304,-276.8864C446.8079,-265.4842 428.9656,-245.7757 414.9678,-230.3138"/>
<polygon fill="#ff0000" stroke="#ff0000" stroke-width=".8324" points="417.3645,-227.7461 408.0585,-222.6817 412.1752,-232.4441 417.3645,-227.7461"/>
</g>
<!-- x&#45;lm1&#45;vec -->
<g id="node5" class="node">
<title>x&#45;lm1&#45;vec</title>
<polygon fill="#d3d3d3" stroke="#000000" points="1094.0538,-216.7645 1041.0538,-216.7645 1041.0538,-198.7645 1094.0538,-198.7645 1094.0538,-216.7645"/>
<text text-anchor="middle" x="1067.5538" y="-205.5645" font-family="Times,serif" font-size="9.00" fill="#000000">x&#45;lm1&#45;vec</text>
</g>
<!-- none -->
<g id="node13" class="node">
<title>none</title>
<ellipse fill="#add8e6" stroke="#000000" cx="1277.5538" cy="-114.4889" rx="24.0833" ry="24.0833"/>
<text text-anchor="middle" x="1277.5538" y="-112.2889" font-family="Times,serif" font-size="9.00" fill="#000000">none</text>
</g>
<!-- x&#45;lm1&#45;vec&#45;&gt;none -->
<g id="edge8" class="edge">
<title>x&#45;lm1&#45;vec&#45;&gt;none</title>
<path fill="none" stroke="#ff0000" stroke-width=".3396" d="M1084.5676,-198.6014C1091.8873,-194.7534 1100.5787,-190.3084 1108.5538,-186.5513 1155.6945,-164.3432 1211.4955,-141.1317 1245.7042,-127.2421"/>
<polygon fill="#ff0000" stroke="#ff0000" stroke-width=".3396" points="1247.2166,-130.4059 1255.1744,-123.4113 1244.5916,-123.9167 1247.2166,-130.4059"/>
</g>
<!-- x&#45;lm1&#45;vec&#45;&gt;right -->
<g id="edge22" class="edge">
<title>x&#45;lm1&#45;vec&#45;&gt;right</title>
<path fill="none" stroke="#ff0000" stroke-width=".1148" d="M1040.9711,-199.602C1026.9389,-195.4311 1009.3903,-190.4314 993.5538,-186.5513 876.9721,-157.9876 736.8179,-131.7545 673.9392,-120.4081"/>
<polygon fill="#ff0000" stroke="#ff0000" stroke-width=".1148" points="674.283,-116.9139 663.8217,-118.5908 673.0454,-123.8036 674.283,-116.9139"/>
</g>
<!-- y&#45;lm1&#45;vec -->
<g id="node6" class="node">
<title>y&#45;lm1&#45;vec</title>
<polygon fill="#d3d3d3" stroke="#000000" points="871.0538,-295.1909 818.0538,-295.1909 818.0538,-277.1909 871.0538,-277.1909 871.0538,-295.1909"/>
<text text-anchor="middle" x="844.5538" y="-283.9909" font-family="Times,serif" font-size="9.00" fill="#000000">y&#45;lm1&#45;vec</text>
</g>
<!-- y&#45;lm1&#45;vec&#45;&gt;none -->
<g id="edge15" class="edge">
<title>y&#45;lm1&#45;vec&#45;&gt;none</title>
<path fill="none" stroke="#ff0000" stroke-width=".2553" d="M871.2511,-283.5322C919.3275,-278.0484 1022.9562,-263.0242 1103.5538,-228.9777 1133.7974,-216.202 1208.6803,-163.9481 1249.6598,-134.6486"/>
<polygon fill="#ff0000" stroke="#ff0000" stroke-width=".2553" points="1251.7745,-137.439 1257.8615,-128.7672 1247.6953,-131.7504 1251.7745,-137.439"/>
</g>
<!-- y&#45;lm1&#45;vec&#45;&gt;right -->
<g id="edge11" class="edge">
<title>y&#45;lm1&#45;vec&#45;&gt;right</title>
<path fill="none" stroke="#ff0000" stroke-width=".1907" stroke-dasharray="1,5" d="M841.4291,-277.0333C834.5059,-257.9371 816.1867,-213.4125 787.5538,-186.5513 754.3534,-155.4052 705.1554,-135.0243 672.9735,-124.1298"/>
<polygon fill="#ff0000" stroke="#ff0000" stroke-width=".1907" points="673.7571,-120.7038 663.1645,-120.9244 671.5827,-127.3575 673.7571,-120.7038"/>
</g>
<!-- 16 -->
<g id="node21" class="node">
<title>16</title>
<ellipse fill="#ffffff" stroke="#000000" cx="760.5538" cy="-207.7645" rx="18.2703" ry="18.2703"/>
<text text-anchor="middle" x="760.5538" y="-205.5645" font-family="Times,serif" font-size="9.00" fill="#000000">16</text>
</g>
<!-- y&#45;lm1&#45;vec&#45;&gt;16 -->
<g id="edge30" class="edge">
<title>y&#45;lm1&#45;vec&#45;&gt;16</title>
<path fill="none" stroke="#00ff00" stroke-width=".1133" stroke-dasharray="1,5" d="M834.588,-276.8864C821.6659,-264.8217 798.7833,-243.4574 781.8675,-227.664"/>
<polygon fill="#00ff00" stroke="#00ff00" stroke-width=".1133" points="783.8105,-224.6897 774.1125,-220.4236 779.0334,-229.8063 783.8105,-224.6897"/>
</g>
<!-- x&#45;lm2&#45;vec -->
<g id="node7" class="node">
<title>x&#45;lm2&#45;vec</title>
<polygon fill="#d3d3d3" stroke="#000000" points="1396.0538,-361.4041 1343.0538,-361.4041 1343.0538,-343.4041 1396.0538,-343.4041 1396.0538,-361.4041"/>
<text text-anchor="middle" x="1369.5538" y="-350.2041" font-family="Times,serif" font-size="9.00" fill="#000000">x&#45;lm2&#45;vec</text>
</g>
<!-- x&#45;lm2&#45;vec&#45;&gt;none -->
<g id="edge12" class="edge">
<title>x&#45;lm2&#45;vec&#45;&gt;none</title>
<path fill="none" stroke="#00ff00" stroke-width=".4789" stroke-dasharray="1,5" d="M1375.33,-343.1796C1380.48,-334.3722 1387.6409,-320.5341 1390.5538,-307.4041 1402.2763,-254.5643 1404.4352,-232.326 1375.5538,-186.5513 1359.4812,-161.0776 1330.8992,-141.6205 1308.7352,-129.3829"/>
<polygon fill="#00ff00" stroke="#00ff00" stroke-width=".4789" points="1310.159,-126.1762 1299.6845,-124.5836 1306.8796,-132.3606 1310.159,-126.1762"/>
</g>
<!-- x&#45;lm2&#45;vec&#45;&gt;left -->
<g id="edge6" class="edge">
<title>x&#45;lm2&#45;vec&#45;&gt;left</title>
<path fill="none" stroke="#00ff00" stroke-width="1.2718" stroke-dasharray="1,5" d="M1342.9211,-351.902C1194.7072,-349.0095 476.8251,-333.6784 438.5538,-307.4041 415.571,-291.6258 404.4669,-260.9772 399.182,-237.8173"/>
<polygon fill="#00ff00" stroke="#00ff00" stroke-width="1.2718" points="402.5642,-236.8855 397.1415,-227.7836 395.7046,-238.2805 402.5642,-236.8855"/>
</g>
<!-- 135 -->
<g id="node18" class="node">
<title>135</title>
<ellipse fill="#ffffff" stroke="#000000" cx="1345.5538" cy="-207.7645" rx="21.4286" ry="21.4286"/>
<text text-anchor="middle" x="1345.5538" y="-205.5645" font-family="Times,serif" font-size="9.00" fill="#000000">135</text>
</g>
<!-- x&#45;lm2&#45;vec&#45;&gt;135 -->
<g id="edge33" class="edge">
<title>x&#45;lm2&#45;vec&#45;&gt;135</title>
<path fill="none" stroke="#ff0000" stroke-width=".7227" stroke-dasharray="1,5" d="M1371.9846,-343.3107C1375.8826,-327.2447 1382.4298,-292.8977 1375.5538,-264.9777 1372.9389,-254.3598 1367.9642,-243.5308 1362.8065,-234.1916"/>
<polygon fill="#ff0000" stroke="#ff0000" stroke-width=".7227" points="1365.7401,-232.2749 1357.6684,-225.412 1359.6986,-235.8105 1365.7401,-232.2749"/>
</g>
<!-- 648 -->
<g id="node19" class="node">
<title>648</title>
<ellipse fill="#ffffff" stroke="#000000" cx="1345.5538" cy="-286.1909" rx="21.4286" ry="21.4286"/>
<text text-anchor="middle" x="1345.5538" y="-283.9909" font-family="Times,serif" font-size="9.00" fill="#000000">648</text>
</g>
<!-- x&#45;lm2&#45;vec&#45;&gt;648 -->
<g id="edge56" class="edge">
<title>x&#45;lm2&#45;vec&#45;&gt;648</title>
<path fill="none" stroke="#00ff00" stroke-width=".284" stroke-dasharray="1,5" d="M1366.2167,-343.1975C1363.6278,-336.055 1359.8871,-325.7348 1356.2979,-315.8327"/>
<polygon fill="#00ff00" stroke="#00ff00" stroke-width=".284" points="1359.5058,-314.4118 1352.8075,-306.203 1352.9247,-316.7972 1359.5058,-314.4118"/>
</g>
<!-- y&#45;lm2&#45;vec -->
<g id="node8" class="node">
<title>y&#45;lm2&#45;vec</title>
<polygon fill="#d3d3d3" stroke="#000000" points="741.0538,-295.1909 688.0538,-295.1909 688.0538,-277.1909 741.0538,-277.1909 741.0538,-295.1909"/>
<text text-anchor="middle" x="714.5538" y="-283.9909" font-family="Times,serif" font-size="9.00" fill="#000000">y&#45;lm2&#45;vec</text>
</g>
<!-- y&#45;lm2&#45;vec&#45;&gt;right -->
<g id="edge27" class="edge">
<title>y&#45;lm2&#45;vec&#45;&gt;right</title>
<path fill="none" stroke="#00ff00" stroke-width=".1858" stroke-dasharray="1,5" d="M714.2025,-276.9775C713.2153,-258.8811 709.4897,-217.7436 695.5538,-186.5513 687.7917,-169.1777 675.0933,-152.1408 663.8528,-138.9978"/>
<polygon fill="#00ff00" stroke="#00ff00" stroke-width=".1858" points="666.342,-136.529 657.0996,-131.3495 661.0948,-141.1622 666.342,-136.529"/>
</g>
<!-- y&#45;lm2&#45;vec&#45;&gt;16 -->
<g id="edge37" class="edge">
<title>y&#45;lm2&#45;vec&#45;&gt;16</title>
<path fill="none" stroke="#ff0000" stroke-width=".718" d="M720.0112,-276.8864C726.3573,-266.0668 737.0902,-247.7682 745.9191,-232.7156"/>
<polygon fill="#ff0000" stroke="#ff0000" stroke-width=".718" points="749.0737,-234.2551 751.114,-223.8586 743.0356,-230.7136 749.0737,-234.2551"/>
</g>
<!-- 362 -->
<g id="node29" class="node">
<title>362</title>
<ellipse fill="#ffffff" stroke="#000000" cx="665.5538" cy="-207.7645" rx="21.4286" ry="21.4286"/>
<text text-anchor="middle" x="665.5538" y="-205.5645" font-family="Times,serif" font-size="9.00" fill="#000000">362</text>
</g>
<!-- y&#45;lm2&#45;vec&#45;&gt;362 -->
<g id="edge40" class="edge">
<title>y&#45;lm2&#45;vec&#45;&gt;362</title>
<path fill="none" stroke="#00ff00" stroke-width=".3141" d="M708.7404,-276.8864C702.2744,-266.5373 691.533,-249.3452 682.3806,-234.6965"/>
<polygon fill="#00ff00" stroke="#00ff00" stroke-width=".3141" points="685.2068,-232.6144 676.9398,-225.9882 679.2702,-236.3235 685.2068,-232.6144"/>
</g>
<!-- x&#45;other&#45;vec -->
<g id="node9" class="node">
<title>x&#45;other&#45;vec</title>
<polygon fill="#d3d3d3" stroke="#000000" points="984.5538,-216.7645 926.5538,-216.7645 926.5538,-198.7645 984.5538,-198.7645 984.5538,-216.7645"/>
<text text-anchor="middle" x="955.5538" y="-205.5645" font-family="Times,serif" font-size="9.00" fill="#000000">x&#45;other&#45;vec</text>
</g>
<!-- x&#45;other&#45;vec&#45;&gt;right -->
<g id="edge32" class="edge">
<title>x&#45;other&#45;vec&#45;&gt;right</title>
<path fill="none" stroke="#00ff00" stroke-width=".3486" d="M941.1871,-198.6009C934.2518,-194.4788 925.6871,-189.8171 917.5538,-186.5513 832.783,-152.5127 726.9189,-130.1999 673.9701,-120.325"/>
<polygon fill="#00ff00" stroke="#00ff00" stroke-width=".3486" points="674.2715,-116.822 663.8043,-118.4614 673.0092,-123.7073 674.2715,-116.822"/>
</g>
<!-- x&#45;other&#45;vec&#45;&gt;backward -->
<g id="edge17" class="edge">
<title>x&#45;other&#45;vec&#45;&gt;backward</title>
<path fill="none" stroke="#ff0000" stroke-width=".3591" stroke-dasharray="1,5" d="M968.5935,-198.4799C987.0468,-185.3406 1021.5322,-160.786 1048.4693,-141.6061"/>
<polygon fill="#ff0000" stroke="#ff0000" stroke-width=".3591" points="1050.804,-144.2403 1056.9199,-135.589 1046.7438,-138.5381 1050.804,-144.2403"/>
</g>
<!-- y&#45;other&#45;vec -->
<g id="node10" class="node">
<title>y&#45;other&#45;vec</title>
<polygon fill="#d3d3d3" stroke="#000000" points="589.5538,-361.4041 531.5538,-361.4041 531.5538,-343.4041 589.5538,-343.4041 589.5538,-361.4041"/>
<text text-anchor="middle" x="560.5538" y="-350.2041" font-family="Times,serif" font-size="9.00" fill="#000000">y&#45;other&#45;vec</text>
</g>
<!-- y&#45;other&#45;vec&#45;&gt;none -->
<g id="edge29" class="edge">
<title>y&#45;other&#45;vec&#45;&gt;none</title>
<path fill="none" stroke="#ff0000" stroke-width=".2265" d="M589.66,-352.0977C710.5481,-350.6013 1169.1991,-342.629 1222.5538,-307.4041 1273.9197,-273.4923 1280.5764,-194.4594 1279.774,-148.768"/>
<polygon fill="#ff0000" stroke="#ff0000" stroke-width=".2265" points="1283.2713,-148.6233 1279.4683,-138.7346 1276.2746,-148.8366 1283.2713,-148.6233"/>
</g>
<!-- y&#45;other&#45;vec&#45;&gt;right -->
<g id="edge10" class="edge">
<title>y&#45;other&#45;vec&#45;&gt;right</title>
<path fill="none" stroke="#00ff00" stroke-width=".4828" stroke-dasharray="1,5" d="M551.7561,-343.2163C527.922,-317.1777 466.0847,-241.2437 499.5538,-186.5513 522.9614,-148.3006 573.7887,-129.5374 607.5873,-120.9576"/>
<polygon fill="#00ff00" stroke="#00ff00" stroke-width=".4828" points="608.5581,-124.3245 617.4806,-118.6115 606.9429,-117.5134 608.5581,-124.3245"/>
</g>
<!-- y&#45;other&#45;vec&#45;&gt;left -->
<g id="edge9" class="edge">
<title>y&#45;other&#45;vec&#45;&gt;left</title>
<path fill="none" stroke="#00ff00" stroke-width="1.2049" stroke-dasharray="1,5" d="M531.3013,-347.8497C491.0429,-340.9524 421.6926,-326.5999 405.5538,-307.4041 389.4805,-288.2862 387.9717,-259.2887 389.7491,-237.4972"/>
<polygon fill="#00ff00" stroke="#00ff00" stroke-width="1.2049" points="393.2397,-237.7719 390.8361,-227.4533 386.2803,-237.0186 393.2397,-237.7719"/>
</g>
<!-- y&#45;other&#45;vec&#45;&gt;forward -->
<g id="edge13" class="edge">
<title>y&#45;other&#45;vec&#45;&gt;forward</title>
<path fill="none" stroke="#00ff00" stroke-width=".661" d="M531.4306,-352.1518C425.0181,-350.9372 61.6168,-344.1123 26.5538,-307.4041 -10.5577,-268.5514 -6.0164,-231.411 23.5538,-186.5513 51.4316,-144.2591 109.8504,-126.691 149.8916,-119.4572"/>
<polygon fill="#00ff00" stroke="#00ff00" stroke-width=".661" points="150.6077,-122.8862 159.8982,-117.7935 149.4596,-115.981 150.6077,-122.8862"/>
</g>
<!-- 522 -->
<g id="node20" class="node">
<title>522</title>
<ellipse fill="#ffffff" stroke="#000000" cx="560.5538" cy="-286.1909" rx="21.4286" ry="21.4286"/>
<text text-anchor="middle" x="560.5538" y="-283.9909" font-family="Times,serif" font-size="9.00" fill="#000000">522</text>
</g>
<!-- y&#45;other&#45;vec&#45;&gt;522 -->
<g id="edge45" class="edge">
<title>y&#45;other&#45;vec&#45;&gt;522</title>
<path fill="none" stroke="#00ff00" stroke-width=".712" stroke-dasharray="1,5" d="M560.5538,-343.1975C560.5538,-336.5364 560.5538,-327.1115 560.5538,-317.8394"/>
<polygon fill="#00ff00" stroke="#00ff00" stroke-width=".712" points="564.0539,-317.5913 560.5538,-307.5913 557.0539,-317.5913 564.0539,-317.5913"/>
</g>
<!-- 446 -->
<g id="node23" class="node">
<title>446</title>
<ellipse fill="#ffffff" stroke="#000000" cx="620.5538" cy="-286.1909" rx="21.4286" ry="21.4286"/>
<text text-anchor="middle" x="620.5538" y="-283.9909" font-family="Times,serif" font-size="9.00" fill="#000000">446</text>
</g>
<!-- y&#45;other&#45;vec&#45;&gt;446 -->
<g id="edge42" class="edge">
<title>y&#45;other&#45;vec&#45;&gt;446</title>
<path fill="none" stroke="#00ff00" stroke-width=".3384" d="M568.8965,-343.1975C576.7453,-334.536 588.8288,-321.2011 599.3361,-309.6058"/>
<polygon fill="#00ff00" stroke="#00ff00" stroke-width=".3384" points="602.1658,-311.6954 606.2871,-301.935 596.9786,-306.995 602.1658,-311.6954"/>
</g>
<!-- 240 -->
<g id="node30" class="node">
<title>240</title>
<ellipse fill="#ffffff" stroke="#000000" cx="640.5538" cy="-21.2132" rx="21.4286" ry="21.4286"/>
<text text-anchor="middle" x="640.5538" y="-19.0132" font-family="Times,serif" font-size="9.00" fill="#000000">240</text>
</g>
<!-- y&#45;other&#45;vec&#45;&gt;240 -->
<g id="edge38" class="edge">
<title>y&#45;other&#45;vec&#45;&gt;240</title>
<path fill="none" stroke="#00ff00" stroke-width=".1488" stroke-dasharray="1,5" d="M589.8993,-351.9016C732.5687,-349.3185 1348.0073,-336.5135 1375.5538,-307.4041 1448.2665,-230.5658 1400.3321,-134.3828 1310.5538,-78.4264 1255.8612,-44.338 797.0381,-26.4891 671.9458,-22.2266"/>
<polygon fill="#00ff00" stroke="#00ff00" stroke-width=".1488" points="671.9887,-18.7262 661.8769,-21.8885 671.7537,-25.7223 671.9887,-18.7262"/>
</g>
<!-- x&#45;other&#45;vel -->
<g id="node11" class="node">
<title>x&#45;other&#45;vel</title>
<polygon fill="#d3d3d3" stroke="#000000" points="91.5538,-295.1909 35.5538,-295.1909 35.5538,-277.1909 91.5538,-277.1909 91.5538,-295.1909"/>
<text text-anchor="middle" x="63.5538" y="-283.9909" font-family="Times,serif" font-size="9.00" fill="#000000">x&#45;other&#45;vel</text>
</g>
<!-- x&#45;other&#45;vel&#45;&gt;forward -->
<g id="edge16" class="edge">
<title>x&#45;other&#45;vel&#45;&gt;forward</title>
<path fill="none" stroke="#ff0000" stroke-width=".1615" d="M56.0102,-276.9621C41.8803,-258.4847 14.5009,-216.1823 33.5538,-186.5513 58.9662,-147.0301 111.9944,-128.921 149.5962,-120.8006"/>
<polygon fill="#ff0000" stroke="#ff0000" stroke-width=".1615" points="150.6391,-124.1614 159.7571,-118.7656 149.2644,-117.2977 150.6391,-124.1614"/>
</g>
<!-- x&#45;other&#45;vel&#45;&gt;601 -->
<g id="edge53" class="edge">
<title>x&#45;other&#45;vel&#45;&gt;601</title>
<path fill="none" stroke="#00ff00" stroke-width=".3635" d="M75.1805,-276.8864C90.2642,-264.8154 116.9808,-243.4349 136.7189,-227.6391"/>
<polygon fill="#00ff00" stroke="#00ff00" stroke-width=".3635" points="139.0758,-230.2358 144.6965,-221.2548 134.702,-224.7704 139.0758,-230.2358"/>
</g>
<!-- 629 -->
<g id="node31" class="node">
<title>629</title>
<ellipse fill="#ffffff" stroke="#000000" cx="63.5538" cy="-207.7645" rx="21.4286" ry="21.4286"/>
<text text-anchor="middle" x="63.5538" y="-205.5645" font-family="Times,serif" font-size="9.00" fill="#000000">629</text>
</g>
<!-- x&#45;other&#45;vel&#45;&gt;629 -->
<g id="edge55" class="edge">
<title>x&#45;other&#45;vel&#45;&gt;629</title>
<path fill="none" stroke="#ff0000" stroke-width=".2368" d="M63.5538,-276.8864C63.5538,-267.6658 63.5538,-253.0132 63.5538,-239.567"/>
<polygon fill="#ff0000" stroke="#ff0000" stroke-width=".2368" points="67.0539,-239.1689 63.5538,-229.169 60.0539,-239.169 67.0539,-239.1689"/>
</g>
<!-- y&#45;other&#45;vel -->
<g id="node12" class="node">
<title>y&#45;other&#45;vel</title>
<polygon fill="#d3d3d3" stroke="#000000" points="1213.5538,-295.1909 1157.5538,-295.1909 1157.5538,-277.1909 1213.5538,-277.1909 1213.5538,-295.1909"/>
<text text-anchor="middle" x="1185.5538" y="-283.9909" font-family="Times,serif" font-size="9.00" fill="#000000">y&#45;other&#45;vel</text>
</g>
<!-- y&#45;other&#45;vel&#45;&gt;none -->
<g id="edge23" class="edge">
<title>y&#45;other&#45;vel&#45;&gt;none</title>
<path fill="none" stroke="#ff0000" stroke-width=".8186" d="M1196.5722,-277.1661C1208.6727,-266.7201 1227.9262,-248.4421 1239.5538,-228.9777 1254.6167,-203.7628 1264.5803,-171.8143 1270.5111,-148.0776"/>
<polygon fill="#ff0000" stroke="#ff0000" stroke-width=".8186" points="1273.9686,-148.6667 1272.8825,-138.1277 1267.1593,-147.0437 1273.9686,-148.6667"/>
</g>
<!-- y&#45;other&#45;vel&#45;&gt;forward -->
<g id="edge24" class="edge">
<title>y&#45;other&#45;vel&#45;&gt;forward</title>
<path fill="none" stroke="#00ff00" stroke-width=".6836" d="M1157.2882,-284.2638C1100.3968,-279.7165 968.6195,-265.7888 864.5538,-228.9777 827.7173,-215.9475 824.9476,-197.8835 787.5538,-186.5513 606.9838,-131.8294 551.2478,-177.8526 364.5538,-150.5513 318.9643,-143.8845 267.3284,-132.6294 232.4288,-124.4635"/>
<polygon fill="#00ff00" stroke="#00ff00" stroke-width=".6836" points="233.1416,-121.0356 222.6048,-122.1429 231.5324,-127.8481 233.1416,-121.0356"/>
</g>
<!-- y&#45;other&#45;vel&#45;&gt;backward -->
<g id="edge5" class="edge">
<title>y&#45;other&#45;vel&#45;&gt;backward</title>
<path fill="none" stroke="#ff0000" stroke-width=".2473" d="M1180.2311,-276.9595C1167.1999,-254.3586 1133.0647,-195.1557 1109.8065,-154.8175"/>
<polygon fill="#ff0000" stroke="#ff0000" stroke-width=".2473" points="1112.7571,-152.9278 1104.7299,-146.0129 1106.6929,-156.4243 1112.7571,-152.9278"/>
</g>
<!-- 597 -->
<g id="node26" class="node">
<title>597</title>
<ellipse fill="#ffffff" stroke="#000000" cx="1209.5538" cy="-207.7645" rx="21.4286" ry="21.4286"/>
<text text-anchor="middle" x="1209.5538" y="-205.5645" font-family="Times,serif" font-size="9.00" fill="#000000">597</text>
</g>
<!-- y&#45;other&#45;vel&#45;&gt;597 -->
<g id="edge51" class="edge">
<title>y&#45;other&#45;vel&#45;&gt;597</title>
<path fill="none" stroke="#ff0000" stroke-width=".2249" d="M1188.4012,-276.8864C1191.3387,-267.2873 1196.0777,-251.8011 1200.3263,-237.9178"/>
<polygon fill="#ff0000" stroke="#ff0000" stroke-width=".2249" points="1203.7209,-238.7854 1203.3005,-228.1989 1197.0274,-236.737 1203.7209,-238.7854"/>
</g>
<!-- right&#45;&gt;right -->
<g id="edge14" class="edge">
<title>right&#45;&gt;right</title>
<path fill="none" stroke="#ff0000" stroke-width=".1382" d="M657.9678,-130.0543C670.0208,-134.7711 681.8883,-129.5826 681.8883,-114.4889 681.8883,-103.7581 675.8901,-98.0339 668.0914,-97.316"/>
<polygon fill="#ff0000" stroke="#ff0000" stroke-width=".1382" points="667.2952,-93.8985 657.9678,-98.9234 668.393,-100.8119 667.2952,-93.8985"/>
</g>
<!-- right&#45;&gt;240 -->
<g id="edge50" class="edge">
<title>right&#45;&gt;240</title>
<path fill="none" stroke="#ff0000" stroke-width=".2271" d="M634.6381,-91.4319C633.718,-79.5464 633.5589,-64.8881 634.1609,-52.0439"/>
<polygon fill="#ff0000" stroke="#ff0000" stroke-width=".2271" points="637.672,-51.993 634.8455,-41.7822 630.6875,-51.527 637.672,-51.993"/>
</g>
<!-- 198 -->
<g id="node24" class="node">
<title>198</title>
<ellipse fill="#ffffff" stroke="#000000" cx="394.5538" cy="-114.4889" rx="21.4286" ry="21.4286"/>
<text text-anchor="middle" x="394.5538" y="-112.2889" font-family="Times,serif" font-size="9.00" fill="#000000">198</text>
</g>
<!-- left&#45;&gt;198 -->
<g id="edge35" class="edge">
<title>left&#45;&gt;198</title>
<path fill="none" stroke="#00ff00" stroke-width=".2618" d="M388.9611,-188.4377C387.7636,-176.0212 387.4954,-159.617 388.1565,-145.4142"/>
<polygon fill="#00ff00" stroke="#00ff00" stroke-width=".2618" points="391.672,-145.2951 388.8431,-135.0849 384.6875,-144.8307 391.672,-145.2951"/>
</g>
<!-- forward&#45;&gt;forward -->
<g id="edge25" class="edge">
<title>forward&#45;&gt;forward</title>
<path fill="none" stroke="#00ff00" stroke-width=".124" d="M218.7139,-131.4693C230.8647,-133.0865 241.3736,-127.4264 241.3736,-114.4889 241.3736,-105.3922 236.1782,-99.8933 228.8696,-97.9922"/>
<polygon fill="#00ff00" stroke="#00ff00" stroke-width=".124" points="228.8691,-94.4883 218.7139,-97.5084 228.5359,-101.4804 228.8691,-94.4883"/>
</g>
<!-- backward&#45;&gt;backward -->
<g id="edge1" class="edge">
<title>backward&#45;&gt;backward</title>
<path fill="none" stroke="#ff0000" stroke-width=".4769" d="M1118.4759,-131.6873C1130.5934,-132.3506 1140.6162,-126.6178 1140.6162,-114.4889 1140.6162,-105.9607 1135.6611,-100.5947 1128.5068,-98.3908"/>
<polygon fill="#ff0000" stroke="#ff0000" stroke-width=".4769" points="1128.7979,-94.9019 1118.4759,-97.2904 1128.0345,-101.8601 1128.7979,-94.9019"/>
</g>
<!-- 135&#45;&gt;none -->
<g id="edge34" class="edge">
<title>135&#45;&gt;none</title>
<path fill="none" stroke="#00ff00" stroke-width=".2618" d="M1332.7635,-190.2201C1322.9602,-176.7729 1309.2401,-157.953 1297.9299,-142.4388"/>
<polygon fill="#00ff00" stroke="#00ff00" stroke-width=".2618" points="1300.6538,-140.2338 1291.9346,-134.215 1294.9974,-144.3575 1300.6538,-140.2338"/>
</g>
<!-- 135&#45;&gt;backward -->
<g id="edge63" class="edge">
<title>135&#45;&gt;backward</title>
<path fill="none" stroke="#00ff00" stroke-width=".2182" d="M1325.2305,-200.4453C1283.4077,-185.3833 1186.8933,-150.6249 1130.2362,-130.2205"/>
<polygon fill="#00ff00" stroke="#00ff00" stroke-width=".2182" points="1131.4161,-126.9254 1120.8217,-126.83 1129.0442,-133.5114 1131.4161,-126.9254"/>
</g>
<!-- 648&#45;&gt;135 -->
<g id="edge57" class="edge">
<title>648&#45;&gt;135</title>
<path fill="none" stroke="#00ff00" stroke-width=".2707" d="M1345.5538,-264.7605C1345.5538,-256.8933 1345.5538,-247.8144 1345.5538,-239.248"/>
<polygon fill="#00ff00" stroke="#00ff00" stroke-width=".2707" points="1349.0539,-239.1689 1345.5538,-229.169 1342.0539,-239.169 1349.0539,-239.1689"/>
</g>
<!-- 522&#45;&gt;right -->
<g id="edge46" class="edge">
<title>522&#45;&gt;right</title>
<path fill="none" stroke="#ff0000" stroke-width=".3031" d="M569.5753,-266.8283C583.3954,-237.1665 609.9278,-180.2208 626.348,-144.9784"/>
<polygon fill="#ff0000" stroke="#ff0000" stroke-width=".3031" points="629.6414,-146.1971 630.6922,-135.6545 623.2963,-143.2407 629.6414,-146.1971"/>
</g>
<!-- 735 -->
<g id="node28" class="node">
<title>735</title>
<ellipse fill="#ffffff" stroke="#000000" cx="529.5538" cy="-207.7645" rx="21.4286" ry="21.4286"/>
<text text-anchor="middle" x="529.5538" y="-205.5645" font-family="Times,serif" font-size="9.00" fill="#000000">735</text>
</g>
<!-- 522&#45;&gt;735 -->
<g id="edge61" class="edge">
<title>522&#45;&gt;735</title>
<path fill="none" stroke="#00ff00" stroke-width=".2904" d="M552.7312,-266.4006C549.2067,-257.484 544.9736,-246.7748 541.095,-236.9624"/>
<polygon fill="#00ff00" stroke="#00ff00" stroke-width=".2904" points="544.3049,-235.5617 537.3739,-227.5485 537.795,-238.1349 544.3049,-235.5617"/>
</g>
<!-- 16&#45;&gt;right -->
<g id="edge31" class="edge">
<title>16&#45;&gt;right</title>
<path fill="none" stroke="#ff0000" stroke-width=".6415" d="M745.8394,-196.3271C726.357,-181.1834 691.6447,-154.2017 667.4242,-135.3751"/>
<polygon fill="#ff0000" stroke="#ff0000" stroke-width=".6415" points="669.3801,-132.4625 659.3368,-129.0888 665.0842,-137.9893 669.3801,-132.4625"/>
</g>
<!-- 538 -->
<g id="node22" class="node">
<title>538</title>
<ellipse fill="#ffffff" stroke="#000000" cx="418.5538" cy="-21.2132" rx="21.4286" ry="21.4286"/>
<text text-anchor="middle" x="418.5538" y="-19.0132" font-family="Times,serif" font-size="9.00" fill="#000000">538</text>
</g>
<!-- 538&#45;&gt;left -->
<g id="edge48" class="edge">
<title>538&#45;&gt;left</title>
<path fill="none" stroke="#00ff00" stroke-width=".1338" d="M423.139,-42.1769C427.9807,-68.0579 433.7456,-113.228 424.5538,-150.5513 421.8303,-161.6099 416.5471,-172.8975 411.1635,-182.4925"/>
<polygon fill="#00ff00" stroke="#00ff00" stroke-width=".1338" points="408.143,-180.7241 406.0513,-191.1104 414.1634,-184.2955 408.143,-180.7241"/>
</g>
<!-- 446&#45;&gt;right -->
<g id="edge43" class="edge">
<title>446&#45;&gt;right</title>
<path fill="none" stroke="#ff0000" stroke-width=".2477" d="M623.0464,-264.7919C626.4627,-235.4627 632.6338,-182.4831 636.6618,-147.9021"/>
<polygon fill="#ff0000" stroke="#ff0000" stroke-width=".2477" points="640.1571,-148.1451 637.8376,-137.8073 633.2041,-147.3351 640.1571,-148.1451"/>
</g>
<!-- 198&#45;&gt;left -->
<g id="edge36" class="edge">
<title>198&#45;&gt;left</title>
<path fill="none" stroke="#00ff00" stroke-width=".4836" d="M400.2645,-135.0849C401.3992,-147.7633 401.6048,-164.2206 400.8811,-178.268"/>
<polygon fill="#00ff00" stroke="#00ff00" stroke-width=".4836" points="397.3761,-178.2115 400.1465,-188.4377 404.3579,-178.7159 397.3761,-178.2115"/>
</g>
<!-- 198&#45;&gt;538 -->
<g id="edge47" class="edge">
<title>198&#45;&gt;538</title>
<path fill="none" stroke="#00ff00" stroke-width=".4368" d="M399.8802,-93.788C403.0495,-81.4704 407.1295,-65.6135 410.667,-51.8651"/>
<polygon fill="#00ff00" stroke="#00ff00" stroke-width=".4368" points="414.14,-52.413 413.2423,-41.8562 407.3608,-50.6686 414.14,-52.413"/>
</g>
<!-- 724&#45;&gt;forward -->
<g id="edge60" class="edge">
<title>724&#45;&gt;forward</title>
<path fill="none" stroke="#ff0000" stroke-width=".1515" stroke-dasharray="1,5" d="M215.0442,-187.5251C211.952,-177.9108 208.142,-166.0647 204.4971,-154.7321"/>
<polygon fill="#ff0000" stroke="#ff0000" stroke-width=".1515" points="207.7525,-153.4224 201.3588,-144.9743 201.0887,-155.5657 207.7525,-153.4224"/>
</g>
<!-- 597&#45;&gt;backward -->
<g id="edge52" class="edge">
<title>597&#45;&gt;backward</title>
<path fill="none" stroke="#ff0000" stroke-width=".4103" stroke-dasharray="1,5" d="M1192.4512,-194.7949C1174.6966,-181.3309 1146.3714,-159.8509 1123.4815,-142.4925"/>
<polygon fill="#ff0000" stroke="#ff0000" stroke-width=".4103" points="1125.4068,-139.56 1115.3239,-136.3063 1121.177,-145.1376 1125.4068,-139.56"/>
</g>
<!-- 601&#45;&gt;forward -->
<g id="edge54" class="edge">
<title>601&#45;&gt;forward</title>
<path fill="none" stroke="#00ff00" stroke-width=".3543" stroke-dasharray="1,5" d="M168.0633,-187.5251C171.1556,-177.9108 174.9656,-166.0647 178.6105,-154.7321"/>
<polygon fill="#00ff00" stroke="#00ff00" stroke-width=".3543" points="182.0189,-155.5657 181.7488,-144.9743 175.3551,-153.4224 182.0189,-155.5657"/>
</g>
<!-- 735&#45;&gt;right -->
<g id="edge62" class="edge">
<title>735&#45;&gt;right</title>
<path fill="none" stroke="#00ff00" stroke-width=".1607" d="M545.9322,-194.0014C564.1134,-178.7233 593.6911,-153.8685 614.94,-136.0126"/>
<polygon fill="#00ff00" stroke="#00ff00" stroke-width=".1607" points="617.2308,-138.6594 622.6349,-129.5464 612.7274,-133.3003 617.2308,-138.6594"/>
</g>
<!-- 362&#45;&gt;right -->
<g id="edge41" class="edge">
<title>362&#45;&gt;right</title>
<path fill="none" stroke="#ff0000" stroke-width=".1716" d="M660.0055,-187.0636C656.8416,-175.2593 652.8066,-160.2044 649.2327,-146.8699"/>
<polygon fill="#ff0000" stroke="#ff0000" stroke-width=".1716" points="652.5812,-145.8436 646.6116,-137.0906 645.8198,-147.6558 652.5812,-145.8436"/>
</g>
<!-- 240&#45;&gt;right -->
<g id="edge39" class="edge">
<title>240&#45;&gt;right</title>
<path fill="none" stroke="#ff0000" stroke-width=".3009" d="M646.262,-41.7822C647.3005,-53.3655 647.5626,-68.1096 647.0483,-81.2886"/>
<polygon fill="#ff0000" stroke="#ff0000" stroke-width=".3009" points="643.545,-81.2488 646.4695,-91.4319 650.5336,-81.6476 643.545,-81.2488"/>
</g>
<!-- 503 -->
<g id="node32" class="node">
<title>503</title>
<ellipse fill="#ffffff" stroke="#000000" cx="332.5538" cy="-286.1909" rx="21.4286" ry="21.4286"/>
<text text-anchor="middle" x="332.5538" y="-283.9909" font-family="Times,serif" font-size="9.00" fill="#000000">503</text>
</g>
<!-- 503&#45;&gt;left -->
<g id="edge44" class="edge">
<title>503&#45;&gt;left</title>
<path fill="none" stroke="#ff0000" stroke-width=".441" stroke-dasharray="1,5" d="M346.0069,-269.1735C354.7458,-258.1193 366.2587,-243.5561 375.8796,-231.3863"/>
<polygon fill="#ff0000" stroke="#ff0000" stroke-width=".441" points="378.7246,-233.4312 382.1806,-223.4159 373.2332,-229.0901 378.7246,-233.4312"/>
</g>
</g>
</svg>
