<?xml version="1.0" encoding="UTF-8" standalone="no"?>
<!DOCTYPE svg PUBLIC "-//W3C//DTD SVG 1.1//EN"
 "http://www.w3.org/Graphics/SVG/1.1/DTD/svg11.dtd">
<!-- Generated by graphviz version 2.40.1 (20161225.0304)
 -->
<!-- Title: %3 Pages: 1 -->
<svg width="1238pt" height="574pt"
 viewBox="0.00 0.00 1238.21 574.34" xmlns="http://www.w3.org/2000/svg" xmlns:xlink="http://www.w3.org/1999/xlink">
<g id="graph0" class="graph" transform="scale(1 1) rotate(0) translate(4 570.3402)">
<title>%3</title>
<polygon fill="#ffffff" stroke="transparent" points="-4,4 -4,-570.3402 1234.2132,-570.3402 1234.2132,4 -4,4"/>
<!-- x&#45;vel -->
<g id="node1" class="node">
<title>x&#45;vel</title>
<polygon fill="#d3d3d3" stroke="#000000" points="131.5,-311.4544 96.5,-311.4544 96.5,-293.4544 131.5,-293.4544 131.5,-311.4544"/>
<text text-anchor="middle" x="114" y="-300.2544" font-family="Times,serif" font-size="9.00" fill="#000000">x&#45;vel</text>
</g>
<!-- none -->
<g id="node13" class="node">
<title>none</title>
<ellipse fill="#add8e6" stroke="#000000" cx="803" cy="-24.0416" rx="24.0833" ry="24.0833"/>
<text text-anchor="middle" x="803" y="-21.8416" font-family="Times,serif" font-size="9.00" fill="#000000">none</text>
</g>
<!-- x&#45;vel&#45;&gt;none -->
<g id="edge57" class="edge">
<title>x&#45;vel&#45;&gt;none</title>
<path fill="none" stroke="#00ff00" stroke-width=".3989" d="M119.7512,-293.3424C134.7145,-270.2041 177.0459,-208.2772 225,-169.5807 288.6629,-118.2081 310.1788,-109.3017 388,-84.0833 524.3546,-39.8967 696.4515,-28.1624 768.6528,-25.0993"/>
<polygon fill="#00ff00" stroke="#00ff00" stroke-width=".3989" points="769.1096,-28.5841 778.964,-24.6929 768.8339,-21.5895 769.1096,-28.5841"/>
</g>
<!-- 74 -->
<g id="node29" class="node">
<title>74</title>
<ellipse fill="#ffffff" stroke="#000000" cx="252" cy="-205.6432" rx="18.2703" ry="18.2703"/>
<text text-anchor="middle" x="252" y="-203.4432" font-family="Times,serif" font-size="9.00" fill="#000000">74</text>
</g>
<!-- x&#45;vel&#45;&gt;74 -->
<g id="edge29" class="edge">
<title>x&#45;vel&#45;&gt;74</title>
<path fill="none" stroke="#ff0000" stroke-width=".1052" d="M123.16,-293.3504C128.236,-288.4903 134.7656,-282.5329 141,-277.7056 169.2611,-255.8231 204.1644,-233.9248 227.2011,-220.1106"/>
<polygon fill="#ff0000" stroke="#ff0000" stroke-width=".1052" points="229.1903,-222.9999 235.9987,-214.8823 225.6141,-216.9824 229.1903,-222.9999"/>
</g>
<!-- y&#45;vel -->
<g id="node2" class="node">
<title>y&#45;vel</title>
<polygon fill="#d3d3d3" stroke="#000000" points="1014.5,-496.5914 979.5,-496.5914 979.5,-478.5914 1014.5,-478.5914 1014.5,-496.5914"/>
<text text-anchor="middle" x="997" y="-485.3914" font-family="Times,serif" font-size="9.00" fill="#000000">y&#45;vel</text>
</g>
<!-- y&#45;vel&#45;&gt;none -->
<g id="edge17" class="edge">
<title>y&#45;vel&#45;&gt;none</title>
<path fill="none" stroke="#ff0000" stroke-width=".1575" stroke-dasharray="1,5" d="M996.5506,-478.3247C993.7641,-424.2365 977.3208,-149.478 928,-84.0833 905.8575,-54.7244 865.6388,-39.0252 836.7968,-31.137"/>
<polygon fill="#ff0000" stroke="#ff0000" stroke-width=".1575" points="837.2947,-27.6521 826.74,-28.5735 835.5656,-34.4352 837.2947,-27.6521"/>
</g>
<!-- right -->
<g id="node14" class="node">
<title>right</title>
<ellipse fill="#add8e6" stroke="#000000" cx="588" cy="-395.0229" rx="23.1702" ry="23.1702"/>
<text text-anchor="middle" x="588" y="-392.8229" font-family="Times,serif" font-size="9.00" fill="#000000">right</text>
</g>
<!-- y&#45;vel&#45;&gt;right -->
<g id="edge3" class="edge">
<title>y&#45;vel&#45;&gt;right</title>
<path fill="none" stroke="#ff0000" stroke-width=".5715" stroke-dasharray="1,5" d="M985.1069,-478.5888C977.2588,-473.1241 966.5184,-466.5154 956,-462.8427 838.3767,-421.7727 799.1829,-455.7682 678,-426.8427 658.0566,-422.0824 636.3695,-414.4914 619.282,-407.9176"/>
<polygon fill="#ff0000" stroke="#ff0000" stroke-width=".5715" points="620.3879,-404.5918 609.8006,-404.1937 617.8289,-411.1073 620.3879,-404.5918"/>
</g>
<!-- forward -->
<g id="node16" class="node">
<title>forward</title>
<ellipse fill="#add8e6" stroke="#000000" cx="719" cy="-395.0229" rx="31.6406" ry="31.6406"/>
<text text-anchor="middle" x="719" y="-392.8229" font-family="Times,serif" font-size="9.00" fill="#000000">forward</text>
</g>
<!-- y&#45;vel&#45;&gt;forward -->
<g id="edge22" class="edge">
<title>y&#45;vel&#45;&gt;forward</title>
<path fill="none" stroke="#ff0000" stroke-width=".4696" stroke-dasharray="1,5" d="M984.6774,-478.5521C976.8334,-473.2146 966.2531,-466.757 956,-462.8427 875.2975,-432.0332 844.7076,-460.1418 765,-426.8427 760.8559,-425.1115 756.7078,-422.9672 752.6924,-420.6156"/>
<polygon fill="#ff0000" stroke="#ff0000" stroke-width=".4696" points="754.4879,-417.6099 744.1669,-415.2164 750.7426,-423.5237 754.4879,-417.6099"/>
</g>
<!-- backward -->
<g id="node17" class="node">
<title>backward</title>
<ellipse fill="#add8e6" stroke="#000000" cx="1091" cy="-205.6432" rx="36.125" ry="36.125"/>
<text text-anchor="middle" x="1091" y="-203.4432" font-family="Times,serif" font-size="9.00" fill="#000000">backward</text>
</g>
<!-- y&#45;vel&#45;&gt;backward -->
<g id="edge23" class="edge">
<title>y&#45;vel&#45;&gt;backward</title>
<path fill="none" stroke="#00ff00" stroke-width=".2256" stroke-dasharray="1,5" d="M1000.0211,-478.5299C1011.6124,-443.7622 1053.7219,-317.4569 1076.3612,-249.5516"/>
<polygon fill="#00ff00" stroke="#00ff00" stroke-width=".2256" points="1079.7116,-250.568 1079.5542,-239.9744 1073.071,-248.354 1079.7116,-250.568"/>
</g>
<!-- 922 -->
<g id="node20" class="node">
<title>922</title>
<ellipse fill="#ffffff" stroke="#000000" cx="1209" cy="-395.0229" rx="21.4286" ry="21.4286"/>
<text text-anchor="middle" x="1209" y="-392.8229" font-family="Times,serif" font-size="9.00" fill="#000000">922</text>
</g>
<!-- y&#45;vel&#45;&gt;922 -->
<g id="edge41" class="edge">
<title>y&#45;vel&#45;&gt;922</title>
<path fill="none" stroke="#00ff00" stroke-width=".3762" d="M1014.5343,-484.7018C1048.4964,-478.4937 1124.6815,-461.5437 1179,-426.8427 1182.429,-424.6521 1185.7372,-421.9841 1188.8247,-419.1346"/>
<polygon fill="#00ff00" stroke="#00ff00" stroke-width=".3762" points="1191.4748,-421.4314 1195.9885,-411.8462 1186.4825,-416.5245 1191.4748,-421.4314"/>
</g>
<!-- 1183 -->
<g id="node21" class="node">
<title>1183</title>
<ellipse fill="#ffffff" stroke="#000000" cx="1126" cy="-302.4544" rx="25" ry="25"/>
<text text-anchor="middle" x="1126" y="-300.2544" font-family="Times,serif" font-size="9.00" fill="#000000">1183</text>
</g>
<!-- y&#45;vel&#45;&gt;1183 -->
<g id="edge35" class="edge">
<title>y&#45;vel&#45;&gt;1183</title>
<path fill="none" stroke="#ff0000" stroke-width=".3962" stroke-dasharray="1,5" d="M1010.835,-478.4916C1026.3906,-467.6941 1051.6114,-448.4152 1068,-426.8427 1089.2167,-398.915 1105.21,-361.9799 1114.9723,-335.6285"/>
<polygon fill="#ff0000" stroke="#ff0000" stroke-width=".3962" points="1118.3127,-336.6826 1118.4066,-326.0882 1111.7264,-334.3116 1118.3127,-336.6826"/>
</g>
<!-- 1444 -->
<g id="node24" class="node">
<title>1444</title>
<ellipse fill="#ffffff" stroke="#000000" cx="1145" cy="-395.0229" rx="25" ry="25"/>
<text text-anchor="middle" x="1145" y="-392.8229" font-family="Times,serif" font-size="9.00" fill="#000000">1444</text>
</g>
<!-- y&#45;vel&#45;&gt;1444 -->
<g id="edge39" class="edge">
<title>y&#45;vel&#45;&gt;1444</title>
<path fill="none" stroke="#ff0000" stroke-width=".929" d="M1014.5475,-479.0221C1036.5639,-468.0004 1075.1706,-447.7719 1106,-426.8427 1110.0352,-424.1033 1114.1646,-421.046 1118.1554,-417.9395"/>
<polygon fill="#ff0000" stroke="#ff0000" stroke-width=".929" points="1120.4703,-420.5695 1126.0777,-411.5802 1116.0884,-415.1106 1120.4703,-420.5695"/>
</g>
<!-- 2633 -->
<g id="node28" class="node">
<title>2633</title>
<ellipse fill="#ffffff" stroke="#000000" cx="1012" cy="-205.6432" rx="25" ry="25"/>
<text text-anchor="middle" x="1012" y="-203.4432" font-family="Times,serif" font-size="9.00" fill="#000000">2633</text>
</g>
<!-- y&#45;vel&#45;&gt;2633 -->
<g id="edge55" class="edge">
<title>y&#45;vel&#45;&gt;2633</title>
<path fill="none" stroke="#00ff00" stroke-width=".5291" d="M997.4821,-478.5299C999.4154,-442.1902 1006.669,-305.8481 1010.1343,-240.7127"/>
<polygon fill="#00ff00" stroke="#00ff00" stroke-width=".5291" points="1013.6399,-240.6979 1010.6762,-230.5261 1006.6498,-240.326 1013.6399,-240.6979"/>
</g>
<!-- 497 -->
<g id="node31" class="node">
<title>497</title>
<ellipse fill="#ffffff" stroke="#000000" cx="723" cy="-302.4544" rx="21.4286" ry="21.4286"/>
<text text-anchor="middle" x="723" y="-300.2544" font-family="Times,serif" font-size="9.00" fill="#000000">497</text>
</g>
<!-- y&#45;vel&#45;&gt;497 -->
<g id="edge33" class="edge">
<title>y&#45;vel&#45;&gt;497</title>
<path fill="none" stroke="#00ff00" stroke-width=".4649" stroke-dasharray="1,5" d="M983.4123,-478.4105C940.3623,-449.3223 806.4653,-358.8504 749.2998,-320.2247"/>
<polygon fill="#00ff00" stroke="#00ff00" stroke-width=".4649" points="751.055,-317.1866 740.8096,-314.488 747.1359,-322.9867 751.055,-317.1866"/>
</g>
<!-- x&#45;pos -->
<g id="node3" class="node">
<title>x&#45;pos</title>
<polygon fill="#d3d3d3" stroke="#000000" points="522,-496.5914 486,-496.5914 486,-478.5914 522,-478.5914 522,-496.5914"/>
<text text-anchor="middle" x="504" y="-485.3914" font-family="Times,serif" font-size="9.00" fill="#000000">x&#45;pos</text>
</g>
<!-- x&#45;pos&#45;&gt;right -->
<g id="edge13" class="edge">
<title>x&#45;pos&#45;&gt;right</title>
<path fill="none" stroke="#ff0000" stroke-width=".3561" stroke-dasharray="1,5" d="M512.3613,-478.3772C524.6161,-464.8723 547.8975,-439.2161 565.4087,-419.9186"/>
<polygon fill="#ff0000" stroke="#ff0000" stroke-width=".3561" points="568.1461,-422.1104 572.2742,-412.3529 562.9622,-417.4064 568.1461,-422.1104"/>
</g>
<!-- left -->
<g id="node15" class="node">
<title>left</title>
<ellipse fill="#add8e6" stroke="#000000" cx="360" cy="-395.0229" rx="19.6" ry="19.6"/>
<text text-anchor="middle" x="360" y="-392.8229" font-family="Times,serif" font-size="9.00" fill="#000000">left</text>
</g>
<!-- x&#45;pos&#45;&gt;left -->
<g id="edge16" class="edge">
<title>x&#45;pos&#45;&gt;left</title>
<path fill="none" stroke="#00ff00" stroke-width=".292" stroke-dasharray="1,5" d="M494.5422,-478.3991C489.2903,-473.5131 482.5173,-467.5592 476,-462.8427 446.97,-441.834 411.013,-421.6192 386.894,-408.8096"/>
<polygon fill="#00ff00" stroke="#00ff00" stroke-width=".292" points="388.4393,-405.6678 377.9588,-404.1153 385.1837,-411.8647 388.4393,-405.6678"/>
</g>
<!-- y&#45;pos -->
<g id="node4" class="node">
<title>y&#45;pos</title>
<polygon fill="#d3d3d3" stroke="#000000" points="876,-496.5914 840,-496.5914 840,-478.5914 876,-478.5914 876,-496.5914"/>
<text text-anchor="middle" x="858" y="-485.3914" font-family="Times,serif" font-size="9.00" fill="#000000">y&#45;pos</text>
</g>
<!-- y&#45;pos&#45;&gt;none -->
<g id="edge6" class="edge">
<title>y&#45;pos&#45;&gt;none</title>
<path fill="none" stroke="#ff0000" stroke-width=".164" d="M854.9559,-478.2175C851.205,-466.3657 844.8566,-445.2808 841,-426.8427 814.1467,-298.4598 815.2275,-264.5427 808,-133.5807 806.6117,-108.4247 805.3225,-80.0035 804.401,-58.4161"/>
<polygon fill="#ff0000" stroke="#ff0000" stroke-width=".164" points="807.8975,-58.2556 803.9794,-48.4119 800.9037,-58.5504 807.8975,-58.2556"/>
</g>
<!-- y&#45;pos&#45;&gt;forward -->
<g id="edge15" class="edge">
<title>y&#45;pos&#45;&gt;forward</title>
<path fill="none" stroke="#ff0000" stroke-width=".3834" stroke-dasharray="1,5" d="M846.9999,-478.5348C840.9417,-473.6886 833.2086,-467.7293 826,-462.8427 799.9425,-445.1786 791.5177,-443.8082 765,-426.8427 761.2169,-424.4223 757.2993,-421.8379 753.4192,-419.2278"/>
<polygon fill="#ff0000" stroke="#ff0000" stroke-width=".3834" points="755.2868,-416.265 745.0521,-413.5262 751.345,-422.0497 755.2868,-416.265"/>
</g>
<!-- x&#45;lm1&#45;vec -->
<g id="node5" class="node">
<title>x&#45;lm1&#45;vec</title>
<polygon fill="#d3d3d3" stroke="#000000" points="381.5,-566.3402 328.5,-566.3402 328.5,-548.3402 381.5,-548.3402 381.5,-566.3402"/>
<text text-anchor="middle" x="355" y="-555.1402" font-family="Times,serif" font-size="9.00" fill="#000000">x&#45;lm1&#45;vec</text>
</g>
<!-- x&#45;lm1&#45;vec&#45;&gt;right -->
<g id="edge2" class="edge">
<title>x&#45;lm1&#45;vec&#45;&gt;right</title>
<path fill="none" stroke="#00ff00" stroke-width=".23" stroke-dasharray="1,5" d="M381.7723,-555.167C432.2588,-550.5119 538.7387,-537.8626 564,-512.3402 585.5941,-490.5229 590.2622,-454.8444 590.3458,-428.5526"/>
<polygon fill="#00ff00" stroke="#00ff00" stroke-width=".23" points="593.8401,-428.2127 590.1515,-418.2807 586.8413,-428.3452 593.8401,-428.2127"/>
</g>
<!-- x&#45;lm1&#45;vec&#45;&gt;left -->
<g id="edge20" class="edge">
<title>x&#45;lm1&#45;vec&#45;&gt;left</title>
<path fill="none" stroke="#ff0000" stroke-width=".2764" stroke-dasharray="1,5" d="M353.9317,-548.0483C352.9441,-538.9602 351.5492,-524.7204 351,-512.3402 350.0252,-490.3629 349.5499,-484.7937 351,-462.8427 351.8212,-450.4114 353.4804,-436.7816 355.153,-425.0224"/>
<polygon fill="#ff0000" stroke="#ff0000" stroke-width=".2764" points="358.6586,-425.2433 356.6692,-414.837 351.7349,-424.2126 358.6586,-425.2433"/>
</g>
<!-- x&#45;lm1&#45;vec&#45;&gt;forward -->
<g id="edge11" class="edge">
<title>x&#45;lm1&#45;vec&#45;&gt;forward</title>
<path fill="none" stroke="#00ff00" stroke-width=".2076" stroke-dasharray="1,5" d="M381.7215,-556.5982C471.8714,-553.8234 760.7051,-542.6187 788,-512.3402 813.0909,-484.5066 780.6145,-446.1355 752.2665,-420.9644"/>
<polygon fill="#00ff00" stroke="#00ff00" stroke-width=".2076" points="754.2981,-418.0955 744.4317,-414.2346 749.737,-423.4055 754.2981,-418.0955"/>
</g>
<!-- 2186 -->
<g id="node19" class="node">
<title>2186</title>
<ellipse fill="#ffffff" stroke="#000000" cx="283" cy="-302.4544" rx="25" ry="25"/>
<text text-anchor="middle" x="283" y="-300.2544" font-family="Times,serif" font-size="9.00" fill="#000000">2186</text>
</g>
<!-- x&#45;lm1&#45;vec&#45;&gt;2186 -->
<g id="edge48" class="edge">
<title>x&#45;lm1&#45;vec&#45;&gt;2186</title>
<path fill="none" stroke="#00ff00" stroke-width=".2823" d="M352.4375,-548.2687C342.9138,-514.5541 309.2492,-395.3787 292.5451,-336.2448"/>
<polygon fill="#00ff00" stroke="#00ff00" stroke-width=".2823" points="295.8153,-334.9461 289.7286,-326.2742 289.0789,-336.8491 295.8153,-334.9461"/>
</g>
<!-- 37 -->
<g id="node23" class="node">
<title>37</title>
<ellipse fill="#ffffff" stroke="#000000" cx="378" cy="-487.5914" rx="18.2703" ry="18.2703"/>
<text text-anchor="middle" x="378" y="-485.3914" font-family="Times,serif" font-size="9.00" fill="#000000">37</text>
</g>
<!-- x&#45;lm1&#45;vec&#45;&gt;37 -->
<g id="edge25" class="edge">
<title>x&#45;lm1&#45;vec&#45;&gt;37</title>
<path fill="none" stroke="#00ff00" stroke-width=".6652" d="M358.0068,-548.2218C360.8037,-539.7403 365.1147,-526.6667 369.0186,-514.828"/>
<polygon fill="#00ff00" stroke="#00ff00" stroke-width=".6652" points="372.3521,-515.895 372.1599,-505.3019 365.7042,-513.7028 372.3521,-515.895"/>
</g>
<!-- x&#45;lm1&#45;vec&#45;&gt;74 -->
<g id="edge27" class="edge">
<title>x&#45;lm1&#45;vec&#45;&gt;74</title>
<path fill="none" stroke="#ff0000" stroke-width=".223" stroke-dasharray="1,5" d="M328.3037,-553.4244C288.4125,-546.9657 216.2869,-532.7333 201,-512.3402 167.9637,-468.2689 220.0117,-299.5522 242.4816,-232.9318"/>
<polygon fill="#ff0000" stroke="#ff0000" stroke-width=".223" points="245.902,-233.7455 245.8164,-223.151 239.2765,-231.4865 245.902,-233.7455"/>
</g>
<!-- y&#45;lm1&#45;vec -->
<g id="node6" class="node">
<title>y&#45;lm1&#45;vec</title>
<polygon fill="#d3d3d3" stroke="#000000" points="745.5,-496.5914 692.5,-496.5914 692.5,-478.5914 745.5,-478.5914 745.5,-496.5914"/>
<text text-anchor="middle" x="719" y="-485.3914" font-family="Times,serif" font-size="9.00" fill="#000000">y&#45;lm1&#45;vec</text>
</g>
<!-- y&#45;lm1&#45;vec&#45;&gt;none -->
<g id="edge9" class="edge">
<title>y&#45;lm1&#45;vec&#45;&gt;none</title>
<path fill="none" stroke="#ff0000" stroke-width=".3135" d="M710.8939,-478.4512C701.3712,-467.1674 685.8751,-446.9889 678,-426.8427 657.6395,-374.7558 659,-358.3793 659,-302.4544 659,-302.4544 659,-302.4544 659,-205.6432 659,-132.3914 731.8228,-71.4851 773.8947,-42.4101"/>
<polygon fill="#ff0000" stroke="#ff0000" stroke-width=".3135" points="776.0341,-45.1888 782.3683,-36.6959 772.1204,-39.3851 776.0341,-45.1888"/>
</g>
<!-- y&#45;lm1&#45;vec&#45;&gt;right -->
<g id="edge31" class="edge">
<title>y&#45;lm1&#45;vec&#45;&gt;right</title>
<path fill="none" stroke="#ff0000" stroke-width=".3141" stroke-dasharray="1,5" d="M705.9603,-478.3772C685.0543,-463.6044 643.5714,-434.2913 615.7992,-414.6667"/>
<polygon fill="#ff0000" stroke="#ff0000" stroke-width=".3141" points="617.4941,-411.5787 607.3075,-408.6662 613.4545,-417.2955 617.4941,-411.5787"/>
</g>
<!-- y&#45;lm1&#45;vec&#45;&gt;forward -->
<g id="edge24" class="edge">
<title>y&#45;lm1&#45;vec&#45;&gt;forward</title>
<path fill="none" stroke="#ff0000" stroke-width=".1876" stroke-dasharray="1,5" d="M719,-478.3772C719,-468.7166 719,-452.8379 719,-437.5168"/>
<polygon fill="#ff0000" stroke="#ff0000" stroke-width=".1876" points="722.5001,-437.0823 719,-427.0823 715.5001,-437.0824 722.5001,-437.0823"/>
</g>
<!-- x&#45;lm2&#45;vec -->
<g id="node7" class="node">
<title>x&#45;lm2&#45;vec</title>
<polygon fill="#d3d3d3" stroke="#000000" points="467.5,-496.5914 414.5,-496.5914 414.5,-478.5914 467.5,-478.5914 467.5,-496.5914"/>
<text text-anchor="middle" x="441" y="-485.3914" font-family="Times,serif" font-size="9.00" fill="#000000">x&#45;lm2&#45;vec</text>
</g>
<!-- x&#45;lm2&#45;vec&#45;&gt;right -->
<g id="edge10" class="edge">
<title>x&#45;lm2&#45;vec&#45;&gt;right</title>
<path fill="none" stroke="#00ff00" stroke-width="3.2843" d="M453.8836,-478.4862C460.6968,-473.7344 469.2368,-467.8776 477,-462.8427 504.4771,-445.0222 536.4438,-425.6282 558.996,-412.162"/>
<polygon fill="#00ff00" stroke="#00ff00" stroke-width="3.2843" points="560.9431,-415.0762 567.7451,-406.9532 557.3621,-409.0614 560.9431,-415.0762"/>
</g>
<!-- x&#45;lm2&#45;vec&#45;&gt;left -->
<g id="edge14" class="edge">
<title>x&#45;lm2&#45;vec&#45;&gt;left</title>
<path fill="none" stroke="#ff0000" stroke-width="2.4405" d="M432.9373,-478.3772C420.6278,-464.3096 396.781,-437.057 379.7039,-417.5409"/>
<polygon fill="#ff0000" stroke="#ff0000" stroke-width="2.4405" points="382.2979,-415.1904 373.0787,-409.9696 377.0299,-419.8001 382.2979,-415.1904"/>
</g>
<!-- y&#45;lm2&#45;vec -->
<g id="node8" class="node">
<title>y&#45;lm2&#45;vec</title>
<polygon fill="#d3d3d3" stroke="#000000" points="947.5,-496.5914 894.5,-496.5914 894.5,-478.5914 947.5,-478.5914 947.5,-496.5914"/>
<text text-anchor="middle" x="921" y="-485.3914" font-family="Times,serif" font-size="9.00" fill="#000000">y&#45;lm2&#45;vec</text>
</g>
<!-- y&#45;lm2&#45;vec&#45;&gt;none -->
<g id="edge7" class="edge">
<title>y&#45;lm2&#45;vec&#45;&gt;none</title>
<path fill="none" stroke="#ff0000" stroke-width=".2835" stroke-dasharray="1,5" d="M918.6429,-478.3319C904.9785,-424.6529 835.7014,-152.5054 811.4215,-57.1246"/>
<polygon fill="#ff0000" stroke="#ff0000" stroke-width=".2835" points="814.8103,-56.2491 808.9515,-47.4216 808.0267,-57.9759 814.8103,-56.2491"/>
</g>
<!-- y&#45;lm2&#45;vec&#45;&gt;forward -->
<g id="edge1" class="edge">
<title>y&#45;lm2&#45;vec&#45;&gt;forward</title>
<path fill="none" stroke="#00ff00" stroke-width="2.7239" d="M909.5661,-478.3635C902.7548,-473.2251 893.7548,-467.0379 885,-462.8427 834.7858,-438.7807 815.1793,-450.9774 765,-426.8427 760.9527,-424.8961 756.8663,-422.6142 752.8872,-420.1818"/>
<polygon fill="#00ff00" stroke="#00ff00" stroke-width="2.7239" points="754.7003,-417.1862 744.4041,-414.6881 750.8952,-423.0617 754.7003,-417.1862"/>
</g>
<!-- y&#45;lm2&#45;vec&#45;&gt;backward -->
<g id="edge4" class="edge">
<title>y&#45;lm2&#45;vec&#45;&gt;backward</title>
<path fill="none" stroke="#ff0000" stroke-width="3.378" d="M926.4637,-478.5299C947.8934,-442.9883 1027,-311.7883 1067.2064,-245.1053"/>
<polygon fill="#ff0000" stroke="#ff0000" stroke-width="3.378" points="1070.2118,-246.8992 1072.378,-236.5281 1064.2171,-243.2847 1070.2118,-246.8992"/>
</g>
<!-- x&#45;other&#45;vec -->
<g id="node9" class="node">
<title>x&#45;other&#45;vec</title>
<polygon fill="#d3d3d3" stroke="#000000" points="674,-496.5914 616,-496.5914 616,-478.5914 674,-478.5914 674,-496.5914"/>
<text text-anchor="middle" x="645" y="-485.3914" font-family="Times,serif" font-size="9.00" fill="#000000">x&#45;other&#45;vec</text>
</g>
<!-- x&#45;other&#45;vec&#45;&gt;right -->
<g id="edge18" class="edge">
<title>x&#45;other&#45;vec&#45;&gt;right</title>
<path fill="none" stroke="#ff0000" stroke-width=".1042" stroke-dasharray="1,5" d="M639.3262,-478.3772C631.5825,-465.8013 617.3503,-442.688 605.8336,-423.9849"/>
<polygon fill="#ff0000" stroke="#ff0000" stroke-width=".1042" points="608.6621,-421.9031 600.4385,-415.2231 602.7015,-425.5734 608.6621,-421.9031"/>
</g>
<!-- x&#45;other&#45;vec&#45;&gt;forward -->
<g id="edge8" class="edge">
<title>x&#45;other&#45;vec&#45;&gt;forward</title>
<path fill="none" stroke="#ff0000" stroke-width=".5441" stroke-dasharray="1,5" d="M652.3659,-478.3772C661.6864,-466.718 678.247,-446.0018 692.5262,-428.1396"/>
<polygon fill="#ff0000" stroke="#ff0000" stroke-width=".5441" points="695.3819,-430.1727 698.8922,-420.1763 689.9142,-425.8018 695.3819,-430.1727"/>
</g>
<!-- y&#45;other&#45;vec -->
<g id="node10" class="node">
<title>y&#45;other&#45;vec</title>
<polygon fill="#d3d3d3" stroke="#000000" points="132,-566.3402 74,-566.3402 74,-548.3402 132,-548.3402 132,-566.3402"/>
<text text-anchor="middle" x="103" y="-555.1402" font-family="Times,serif" font-size="9.00" fill="#000000">y&#45;other&#45;vec</text>
</g>
<!-- y&#45;other&#45;vec&#45;&gt;none -->
<g id="edge19" class="edge">
<title>y&#45;other&#45;vec&#45;&gt;none</title>
<path fill="none" stroke="#ff0000" stroke-width=".3239" d="M88.4837,-548.159C76.5418,-539.9862 59.8708,-527.068 49,-512.3402 15.443,-466.8772 0,-451.5292 0,-395.0229 0,-395.0229 0,-395.0229 0,-205.6432 0,-74.042 143.083,-118.8818 270,-84.0833 364.9759,-58.0424 666.863,-34.0453 768.9134,-26.4916"/>
<polygon fill="#ff0000" stroke="#ff0000" stroke-width=".3239" points="769.2624,-29.9755 778.979,-25.7521 768.7494,-22.9943 769.2624,-29.9755"/>
</g>
<!-- y&#45;other&#45;vec&#45;&gt;right -->
<g id="edge32" class="edge">
<title>y&#45;other&#45;vec&#45;&gt;right</title>
<path fill="none" stroke="#ff0000" stroke-width=".2647" stroke-dasharray="1,5" d="M132.0917,-555.9081C223.1183,-551.2047 498.3888,-535.2124 531,-512.3402 546.014,-501.81 564.8468,-457.6417 576.6559,-426.6162"/>
<polygon fill="#ff0000" stroke="#ff0000" stroke-width=".2647" points="580.0036,-427.6565 580.2295,-417.0641 573.4474,-425.2037 580.0036,-427.6565"/>
</g>
<!-- y&#45;other&#45;vec&#45;&gt;forward -->
<g id="edge12" class="edge">
<title>y&#45;other&#45;vec&#45;&gt;forward</title>
<path fill="none" stroke="#00ff00" stroke-width=".4104" stroke-dasharray="1,5" d="M132.1267,-555.8652C257.2409,-549.4625 743.2267,-523.8839 754,-512.3402 775.2373,-489.5842 760.7234,-454.4721 744.4116,-428.5873"/>
<polygon fill="#00ff00" stroke="#00ff00" stroke-width=".4104" points="747.2959,-426.6037 738.8599,-420.1939 741.4575,-430.4654 747.2959,-426.6037"/>
</g>
<!-- 2051 -->
<g id="node18" class="node">
<title>2051</title>
<ellipse fill="#ffffff" stroke="#000000" cx="129" cy="-487.5914" rx="25" ry="25"/>
<text text-anchor="middle" x="129" y="-485.3914" font-family="Times,serif" font-size="9.00" fill="#000000">2051</text>
</g>
<!-- y&#45;other&#45;vec&#45;&gt;2051 -->
<g id="edge43" class="edge">
<title>y&#45;other&#45;vec&#45;&gt;2051</title>
<path fill="none" stroke="#ff0000" stroke-width=".5259" d="M106.399,-548.2218C109.0694,-541.0581 112.961,-530.6184 116.7649,-520.4139"/>
<polygon fill="#ff0000" stroke="#ff0000" stroke-width=".5259" points="120.129,-521.4095 120.3424,-510.8168 113.5699,-518.9644 120.129,-521.4095"/>
</g>
<!-- 164 -->
<g id="node22" class="node">
<title>164</title>
<ellipse fill="#ffffff" stroke="#000000" cx="171" cy="-302.4544" rx="21.4286" ry="21.4286"/>
<text text-anchor="middle" x="171" y="-300.2544" font-family="Times,serif" font-size="9.00" fill="#000000">164</text>
</g>
<!-- y&#45;other&#45;vec&#45;&gt;164 -->
<g id="edge30" class="edge">
<title>y&#45;other&#45;vec&#45;&gt;164</title>
<path fill="none" stroke="#ff0000" stroke-width=".1646" stroke-dasharray="1,5" d="M96.1163,-547.9691C75.246,-518.3206 16.52,-424.8843 57,-363.2031 79.0617,-329.5866 105.5429,-347.9275 140,-327.2031 142.2204,-325.8676 144.4578,-324.3901 146.6592,-322.8411"/>
<polygon fill="#ff0000" stroke="#ff0000" stroke-width=".1646" points="148.9789,-325.4756 154.8592,-316.6623 144.7664,-319.885 148.9789,-325.4756"/>
</g>
<!-- 2340 -->
<g id="node25" class="node">
<title>2340</title>
<ellipse fill="#ffffff" stroke="#000000" cx="91" cy="-395.0229" rx="25" ry="25"/>
<text text-anchor="middle" x="91" y="-392.8229" font-family="Times,serif" font-size="9.00" fill="#000000">2340</text>
</g>
<!-- y&#45;other&#45;vec&#45;&gt;2340 -->
<g id="edge52" class="edge">
<title>y&#45;other&#45;vec&#45;&gt;2340</title>
<path fill="none" stroke="#00ff00" stroke-width="1.1547" d="M100.9582,-548.087C99.0535,-539.0276 96.3141,-524.8084 95,-512.3402 92.0917,-484.7468 91.1455,-453.321 90.8969,-429.9438"/>
<polygon fill="#00ff00" stroke="#00ff00" stroke-width="1.1547" points="94.396,-429.7876 90.8273,-419.8119 87.3962,-429.8358 94.396,-429.7876"/>
</g>
<!-- x&#45;other&#45;vel -->
<g id="node11" class="node">
<title>x&#45;other&#45;vel</title>
<polygon fill="#d3d3d3" stroke="#000000" points="266,-496.5914 210,-496.5914 210,-478.5914 266,-478.5914 266,-496.5914"/>
<text text-anchor="middle" x="238" y="-485.3914" font-family="Times,serif" font-size="9.00" fill="#000000">x&#45;other&#45;vel</text>
</g>
<!-- x&#45;other&#45;vel&#45;&gt;left -->
<g id="edge21" class="edge">
<title>x&#45;other&#45;vel&#45;&gt;left</title>
<path fill="none" stroke="#00ff00" stroke-width="1.1027" stroke-dasharray="1,5" d="M250.1439,-478.3772C270.0708,-463.2575 310.0715,-432.9066 335.9112,-413.3005"/>
<polygon fill="#00ff00" stroke="#00ff00" stroke-width="1.1027" points="338.2311,-415.9337 344.0819,-407.1009 333.9999,-410.3572 338.2311,-415.9337"/>
</g>
<!-- x&#45;other&#45;vel&#45;&gt;164 -->
<g id="edge34" class="edge">
<title>x&#45;other&#45;vel&#45;&gt;164</title>
<path fill="none" stroke="#00ff00" stroke-width=".6953" stroke-dasharray="1,5" d="M234.6775,-478.4105C225.1195,-451.9994 197.2479,-374.9835 181.7353,-332.1185"/>
<polygon fill="#00ff00" stroke="#00ff00" stroke-width=".6953" points="184.9526,-330.7235 178.2585,-322.5114 178.3704,-333.1056 184.9526,-330.7235"/>
</g>
<!-- y&#45;other&#45;vel -->
<g id="node12" class="node">
<title>y&#45;other&#45;vel</title>
<polygon fill="#d3d3d3" stroke="#000000" points="925,-214.6432 869,-214.6432 869,-196.6432 925,-196.6432 925,-214.6432"/>
<text text-anchor="middle" x="897" y="-203.4432" font-family="Times,serif" font-size="9.00" fill="#000000">y&#45;other&#45;vel</text>
</g>
<!-- y&#45;other&#45;vel&#45;&gt;none -->
<g id="edge5" class="edge">
<title>y&#45;other&#45;vel&#45;&gt;none</title>
<path fill="none" stroke="#ff0000" stroke-width=".2148" stroke-dasharray="1,5" d="M901.256,-196.639C910.6289,-175.3825 930.5713,-121.0933 909,-84.0833 893.4615,-57.4237 861.205,-41.6497 836.3332,-33.0128"/>
<polygon fill="#ff0000" stroke="#ff0000" stroke-width=".2148" points="837.1284,-29.5914 826.5365,-29.8395 834.9713,-36.2508 837.1284,-29.5914"/>
</g>
<!-- 2090 -->
<g id="node26" class="node">
<title>2090</title>
<ellipse fill="#ffffff" stroke="#000000" cx="875" cy="-108.832" rx="25" ry="25"/>
<text text-anchor="middle" x="875" y="-106.632" font-family="Times,serif" font-size="9.00" fill="#000000">2090</text>
</g>
<!-- y&#45;other&#45;vel&#45;&gt;2090 -->
<g id="edge45" class="edge">
<title>y&#45;other&#45;vel&#45;&gt;2090</title>
<path fill="none" stroke="#ff0000" stroke-width=".193" d="M894.8905,-196.3605C892.1192,-184.1651 887.099,-162.0739 882.7957,-143.1372"/>
<polygon fill="#ff0000" stroke="#ff0000" stroke-width=".193" points="886.1912,-142.2842 880.5622,-133.3085 879.3652,-143.8355 886.1912,-142.2842"/>
</g>
<!-- left&#45;&gt;164 -->
<g id="edge38" class="edge">
<title>left&#45;&gt;164</title>
<path fill="none" stroke="#ff0000" stroke-width=".1098" d="M341.8779,-386.147C308.9153,-370.0026 238.9216,-335.7211 199.5087,-316.4174"/>
<polygon fill="#ff0000" stroke="#ff0000" stroke-width=".1098" points="200.7087,-313.1079 190.1885,-311.8525 197.6296,-319.3944 200.7087,-313.1079"/>
</g>
<!-- left&#45;&gt;497 -->
<g id="edge47" class="edge">
<title>left&#45;&gt;497</title>
<path fill="none" stroke="#00ff00" stroke-width=".1753" d="M379.2602,-390.1114C438.6338,-374.9705 619.2213,-328.9189 692.0568,-310.3452"/>
<polygon fill="#00ff00" stroke="#00ff00" stroke-width=".1753" points="693.169,-313.6737 701.994,-307.8111 691.4392,-306.8907 693.169,-313.6737"/>
</g>
<!-- 2051&#45;&gt;left -->
<g id="edge54" class="edge">
<title>2051&#45;&gt;left</title>
<path fill="none" stroke="#00ff00" stroke-width=".2663" d="M151.9937,-478.3772C194.627,-461.2928 285.7889,-424.7615 331.9618,-406.2586"/>
<polygon fill="#00ff00" stroke="#00ff00" stroke-width=".2663" points="333.3816,-409.4603 341.3621,-402.4917 330.7777,-402.9626 333.3816,-409.4603"/>
</g>
<!-- 2051&#45;&gt;164 -->
<g id="edge44" class="edge">
<title>2051&#45;&gt;164</title>
<path fill="none" stroke="#00ff00" stroke-width=".2919" d="M134.4908,-463.388C142.0597,-430.0239 155.7019,-369.8886 163.9963,-333.3267"/>
<polygon fill="#00ff00" stroke="#00ff00" stroke-width=".2919" points="167.4861,-333.7634 166.2853,-323.2369 160.6596,-332.2147 167.4861,-333.7634"/>
</g>
<!-- 2186&#45;&gt;74 -->
<g id="edge49" class="edge">
<title>2186&#45;&gt;74</title>
<path fill="none" stroke="#00ff00" stroke-width=".1793" d="M275.3371,-278.5235C270.9222,-264.736 265.3561,-247.3536 260.7673,-233.0229"/>
<polygon fill="#00ff00" stroke="#00ff00" stroke-width=".1793" points="264.012,-231.6786 257.629,-223.2223 257.3454,-233.8133 264.012,-231.6786"/>
</g>
<!-- 1183&#45;&gt;backward -->
<g id="edge36" class="edge">
<title>1183&#45;&gt;backward</title>
<path fill="none" stroke="#ff0000" stroke-width=".6704" stroke-dasharray="1,5" d="M1117.5275,-279.0191C1114.3079,-270.1136 1110.5269,-259.6553 1106.8446,-249.4698"/>
<polygon fill="#ff0000" stroke="#ff0000" stroke-width=".6704" points="1110.0573,-248.0618 1103.3659,-239.8475 1103.4743,-250.4418 1110.0573,-248.0618"/>
</g>
<!-- 164&#45;&gt;74 -->
<g id="edge42" class="edge">
<title>164&#45;&gt;74</title>
<path fill="none" stroke="#ff0000" stroke-width=".1582" stroke-dasharray="1,5" d="M184.7405,-286.0317C198.0839,-270.0837 218.4416,-245.7521 233.2652,-228.035"/>
<polygon fill="#ff0000" stroke="#ff0000" stroke-width=".1582" points="236.3101,-229.8501 240.0427,-219.9345 230.9414,-225.3582 236.3101,-229.8501"/>
</g>
<!-- 37&#45;&gt;left -->
<g id="edge26" class="edge">
<title>37&#45;&gt;left</title>
<path fill="none" stroke="#00ff00" stroke-width=".1457" stroke-dasharray="1,5" d="M374.4438,-469.3029C371.9704,-456.5832 368.6184,-439.345 365.7662,-424.6769"/>
<polygon fill="#00ff00" stroke="#00ff00" stroke-width=".1457" points="369.1419,-423.6999 363.7974,-414.5518 362.2706,-425.036 369.1419,-423.6999"/>
</g>
<!-- 1444&#45;&gt;1183 -->
<g id="edge40" class="edge">
<title>1444&#45;&gt;1183</title>
<path fill="none" stroke="#ff0000" stroke-width=".4614" stroke-dasharray="1,5" d="M1140.008,-370.7016C1137.8867,-360.3665 1135.3749,-348.1293 1133.0683,-336.8912"/>
<polygon fill="#ff0000" stroke="#ff0000" stroke-width=".4614" points="1136.4639,-336.0267 1131.0247,-326.9346 1129.6068,-337.4342 1136.4639,-336.0267"/>
</g>
<!-- 2340&#45;&gt;164 -->
<g id="edge53" class="edge">
<title>2340&#45;&gt;164</title>
<path fill="none" stroke="#ff0000" stroke-width=".3462" stroke-dasharray="1,5" d="M107.1892,-376.2903C119.6306,-361.8942 136.9041,-341.9069 150.3419,-326.3579"/>
<polygon fill="#ff0000" stroke="#ff0000" stroke-width=".3462" points="153.0829,-328.5391 156.9735,-318.6845 147.7866,-323.962 153.0829,-328.5391"/>
</g>
<!-- 2090&#45;&gt;none -->
<g id="edge46" class="edge">
<title>2090&#45;&gt;none</title>
<path fill="none" stroke="#00ff00" stroke-width=".6874" stroke-dasharray="1,5" d="M858.6621,-89.5918C848.86,-78.0484 836.2526,-63.2013 825.5157,-50.5571"/>
<polygon fill="#00ff00" stroke="#00ff00" stroke-width=".6874" points="827.9191,-47.9802 818.7784,-42.623 822.5833,-52.5111 827.9191,-47.9802"/>
</g>
<!-- 2219 -->
<g id="node27" class="node">
<title>2219</title>
<ellipse fill="#ffffff" stroke="#000000" cx="539" cy="-108.832" rx="25" ry="25"/>
<text text-anchor="middle" x="539" y="-106.632" font-family="Times,serif" font-size="9.00" fill="#000000">2219</text>
</g>
<!-- 2219&#45;&gt;none -->
<g id="edge51" class="edge">
<title>2219&#45;&gt;none</title>
<path fill="none" stroke="#00ff00" stroke-width=".2792" d="M562.8939,-101.1579C610.3517,-85.9156 716.5447,-51.809 770.3774,-34.5192"/>
<polygon fill="#00ff00" stroke="#00ff00" stroke-width=".2792" points="771.6529,-37.7857 780.1036,-31.3954 769.5123,-31.121 771.6529,-37.7857"/>
</g>
<!-- 2633&#45;&gt;none -->
<g id="edge56" class="edge">
<title>2633&#45;&gt;none</title>
<path fill="none" stroke="#00ff00" stroke-width=".293" d="M1012.0543,-180.465C1010.754,-153.3025 1004.5599,-110.4158 980,-84.0833 960.2884,-62.949 882.3149,-42.1567 836.7001,-31.4624"/>
<polygon fill="#00ff00" stroke="#00ff00" stroke-width=".293" points="837.203,-27.9867 826.6724,-29.1518 835.6311,-34.8079 837.203,-27.9867"/>
</g>
<!-- 74&#45;&gt;none -->
<g id="edge28" class="edge">
<title>74&#45;&gt;none</title>
<path fill="none" stroke="#ff0000" stroke-width=".4196" stroke-dasharray="1,5" d="M267.9812,-196.2116C307.0763,-173.5355 411.2039,-115.5167 505,-84.0833 597.8462,-52.9681 712.6458,-35.4162 768.8046,-28.1116"/>
<polygon fill="#ff0000" stroke="#ff0000" stroke-width=".4196" points="769.4321,-31.5601 778.9104,-26.8261 768.5487,-24.616 769.4321,-31.5601"/>
</g>
<!-- 74&#45;&gt;2219 -->
<g id="edge50" class="edge">
<title>74&#45;&gt;2219</title>
<path fill="none" stroke="#00ff00" stroke-width=".4327" stroke-dasharray="1,5" d="M269.5211,-199.7329C316.3268,-183.9444 444.864,-140.5861 505.938,-119.9845"/>
<polygon fill="#00ff00" stroke="#00ff00" stroke-width=".4327" points="507.1283,-123.2768 515.485,-116.7641 504.8909,-116.644 507.1283,-123.2768"/>
</g>
<!-- 1255 -->
<g id="node30" class="node">
<title>1255</title>
<ellipse fill="#ffffff" stroke="#000000" cx="1057" cy="-108.832" rx="25" ry="25"/>
<text text-anchor="middle" x="1057" y="-106.632" font-family="Times,serif" font-size="9.00" fill="#000000">1255</text>
</g>
<!-- 1255&#45;&gt;none -->
<g id="edge37" class="edge">
<title>1255&#45;&gt;none</title>
<path fill="none" stroke="#ff0000" stroke-width=".4156" stroke-dasharray="1,5" d="M1036.5815,-94.2967C1030.7687,-90.6018 1024.3001,-86.8884 1018,-84.0833 956.6743,-56.7782 879.9048,-38.9352 836.6679,-30.2507"/>
<polygon fill="#ff0000" stroke="#ff0000" stroke-width=".4156" points="837.1715,-26.7828 826.6843,-28.2891 835.8219,-33.6515 837.1715,-26.7828"/>
</g>
</g>
</svg>
