<?xml version="1.0" encoding="UTF-8" standalone="no"?>
<!DOCTYPE svg PUBLIC "-//W3C//DTD SVG 1.1//EN"
 "http://www.w3.org/Graphics/SVG/1.1/DTD/svg11.dtd">
<!-- Generated by graphviz version 2.40.1 (20161225.0304)
 -->
<!-- Title: %3 Pages: 1 -->
<svg width="1676pt" height="737pt"
 viewBox="0.00 0.00 1675.97 736.85" xmlns="http://www.w3.org/2000/svg" xmlns:xlink="http://www.w3.org/1999/xlink">
<g id="graph0" class="graph" transform="scale(1 1) rotate(0) translate(4 732.8499)">
<title>%3</title>
<polygon fill="#ffffff" stroke="transparent" points="-4,4 -4,-732.8499 1671.9666,-732.8499 1671.9666,4 -4,4"/>
<!-- x&#45;vel -->
<g id="node1" class="node">
<title>x&#45;vel</title>
<polygon fill="#d3d3d3" stroke="#000000" points="1332.8278,-488.1062 1297.8278,-488.1062 1297.8278,-470.1062 1332.8278,-470.1062 1332.8278,-488.1062"/>
<text text-anchor="middle" x="1315.3278" y="-476.9062" font-family="Times,serif" font-size="9.00" fill="#000000">x&#45;vel</text>
</g>
<!-- right -->
<g id="node14" class="node">
<title>right</title>
<ellipse fill="#add8e6" stroke="#000000" cx="1573.3278" cy="-382.295" rx="23.1702" ry="23.1702"/>
<text text-anchor="middle" x="1573.3278" y="-380.095" font-family="Times,serif" font-size="9.00" fill="#000000">right</text>
</g>
<!-- x&#45;vel&#45;&gt;right -->
<g id="edge1" class="edge">
<title>x&#45;vel&#45;&gt;right</title>
<path fill="none" stroke="#00ff00" stroke-width=".1789" d="M1324.6287,-469.9918C1330.6316,-464.6262 1338.8753,-458.1652 1347.3278,-454.3574 1425.292,-419.235 1460.4962,-457.8742 1536.3278,-418.3574 1541.6276,-415.5956 1546.6749,-411.8288 1551.2422,-407.7671"/>
<polygon fill="#00ff00" stroke="#00ff00" stroke-width=".1789" points="1553.7018,-410.2573 1558.4352,-400.7786 1548.8239,-405.2367 1553.7018,-410.2573"/>
</g>
<!-- 2947 -->
<g id="node18" class="node">
<title>2947</title>
<ellipse fill="#ffffff" stroke="#000000" cx="1469.3278" cy="-285.4838" rx="25" ry="25"/>
<text text-anchor="middle" x="1469.3278" y="-283.2838" font-family="Times,serif" font-size="9.00" fill="#000000">2947</text>
</g>
<!-- x&#45;vel&#45;&gt;2947 -->
<g id="edge49" class="edge">
<title>x&#45;vel&#45;&gt;2947</title>
<path fill="none" stroke="#00ff00" stroke-width=".2707" d="M1325.0588,-470.0694C1331.0924,-464.8675 1339.2176,-458.551 1347.3278,-454.3574 1396.0329,-429.1734 1432.0408,-461.928 1465.3278,-418.3574 1486.6658,-390.4273 1484.0311,-348.7027 1478.395,-319.4815"/>
<polygon fill="#00ff00" stroke="#00ff00" stroke-width=".2707" points="1481.7377,-318.3758 1476.2216,-309.3302 1474.8928,-319.8414 1481.7377,-318.3758"/>
</g>
<!-- 29 -->
<g id="node25" class="node">
<title>29</title>
<ellipse fill="#ffffff" stroke="#000000" cx="1438.3278" cy="-382.295" rx="18.2703" ry="18.2703"/>
<text text-anchor="middle" x="1438.3278" y="-380.095" font-family="Times,serif" font-size="9.00" fill="#000000">29</text>
</g>
<!-- x&#45;vel&#45;&gt;29 -->
<g id="edge29" class="edge">
<title>x&#45;vel&#45;&gt;29</title>
<path fill="none" stroke="#00ff00" stroke-width=".3641" stroke-dasharray="1,5" d="M1326.2878,-469.9896C1332.3342,-465.1258 1340.0689,-459.1689 1347.3278,-454.3574 1374.5302,-436.3265 1386.7977,-439.8832 1411.3278,-418.3574 1415.34,-414.8366 1419.1319,-410.6299 1422.5359,-406.3533"/>
<polygon fill="#00ff00" stroke="#00ff00" stroke-width=".3641" points="1425.4293,-408.327 1428.5595,-398.2051 1419.8004,-404.1658 1425.4293,-408.327"/>
</g>
<!-- 2618 -->
<g id="node29" class="node">
<title>2618</title>
<ellipse fill="#ffffff" stroke="#000000" cx="1310.3278" cy="-382.295" rx="25" ry="25"/>
<text text-anchor="middle" x="1310.3278" y="-380.095" font-family="Times,serif" font-size="9.00" fill="#000000">2618</text>
</g>
<!-- x&#45;vel&#45;&gt;2618 -->
<g id="edge42" class="edge">
<title>x&#45;vel&#45;&gt;2618</title>
<path fill="none" stroke="#00ff00" stroke-width=".3066" d="M1314.8484,-469.8235C1314.2255,-457.7642 1313.103,-436.0286 1312.1323,-417.2352"/>
<polygon fill="#00ff00" stroke="#00ff00" stroke-width=".3066" points="1315.6241,-416.9833 1311.6129,-407.1771 1308.6334,-417.3444 1315.6241,-416.9833"/>
</g>
<!-- 3830 -->
<g id="node41" class="node">
<title>3830</title>
<ellipse fill="#ffffff" stroke="#000000" cx="1243.3278" cy="-382.295" rx="25" ry="25"/>
<text text-anchor="middle" x="1243.3278" y="-380.095" font-family="Times,serif" font-size="9.00" fill="#000000">3830</text>
</g>
<!-- x&#45;vel&#45;&gt;3830 -->
<g id="edge66" class="edge">
<title>x&#45;vel&#45;&gt;3830</title>
<path fill="none" stroke="#00ff00" stroke-width=".4916" d="M1308.4241,-469.8235C1298.3841,-456.3237 1279.3258,-430.6979 1264.4143,-410.6479"/>
<polygon fill="#00ff00" stroke="#00ff00" stroke-width=".4916" points="1267.0921,-408.3835 1258.3159,-402.448 1261.4752,-412.5609 1267.0921,-408.3835"/>
</g>
<!-- y&#45;vel -->
<g id="node2" class="node">
<title>y&#45;vel</title>
<polygon fill="#d3d3d3" stroke="#000000" points="1102.8278,-573.6036 1067.8278,-573.6036 1067.8278,-555.6036 1102.8278,-555.6036 1102.8278,-573.6036"/>
<text text-anchor="middle" x="1085.3278" y="-562.4036" font-family="Times,serif" font-size="9.00" fill="#000000">y&#45;vel</text>
</g>
<!-- y&#45;vel&#45;&gt;right -->
<g id="edge22" class="edge">
<title>y&#45;vel&#45;&gt;right</title>
<path fill="none" stroke="#00ff00" stroke-width=".2131" stroke-dasharray="1,5" d="M1102.9244,-564.0925C1146.6155,-562.0906 1262.2914,-552.2478 1342.3278,-503.8549 1367.2646,-488.7772 1360.4055,-469.4592 1385.3278,-454.3574 1444.3325,-418.6034 1475.8912,-451.6338 1536.3278,-418.3574 1541.563,-415.4749 1546.5793,-411.6502 1551.136,-407.569"/>
<polygon fill="#00ff00" stroke="#00ff00" stroke-width=".2131" points="1553.5962,-410.0586 1558.3285,-400.5793 1548.7177,-405.0386 1553.5962,-410.0586"/>
</g>
<!-- backward -->
<g id="node17" class="node">
<title>backward</title>
<ellipse fill="#add8e6" stroke="#000000" cx="801.3278" cy="-382.295" rx="36.125" ry="36.125"/>
<text text-anchor="middle" x="801.3278" y="-380.095" font-family="Times,serif" font-size="9.00" fill="#000000">backward</text>
</g>
<!-- y&#45;vel&#45;&gt;backward -->
<g id="edge28" class="edge">
<title>y&#45;vel&#45;&gt;backward</title>
<path fill="none" stroke="#ff0000" stroke-width=".2068" d="M1079.8572,-555.2909C1065.6757,-531.4144 1027.499,-468.873 1008.3278,-454.3574 960.0583,-417.8101 891.83,-398.8559 847.0973,-389.7436"/>
<polygon fill="#ff0000" stroke="#ff0000" stroke-width=".2068" points="847.5776,-386.2713 837.0922,-387.7897 846.2359,-393.1416 847.5776,-386.2713"/>
</g>
<!-- 3706 -->
<g id="node43" class="node">
<title>3706</title>
<ellipse fill="#ffffff" stroke="#000000" cx="1085.3278" cy="-479.1062" rx="25" ry="25"/>
<text text-anchor="middle" x="1085.3278" y="-476.9062" font-family="Times,serif" font-size="9.00" fill="#000000">3706</text>
</g>
<!-- y&#45;vel&#45;&gt;3706 -->
<g id="edge57" class="edge">
<title>y&#45;vel&#45;&gt;3706</title>
<path fill="none" stroke="#00ff00" stroke-width=".2584" d="M1085.3278,-555.4539C1085.3278,-545.5836 1085.3278,-529.2577 1085.3278,-514.2306"/>
<polygon fill="#00ff00" stroke="#00ff00" stroke-width=".2584" points="1088.8279,-514.1301 1085.3278,-504.1302 1081.8279,-514.1302 1088.8279,-514.1301"/>
</g>
<!-- x&#45;pos -->
<g id="node3" class="node">
<title>x&#45;pos</title>
<polygon fill="#d3d3d3" stroke="#000000" points="611.3278,-488.1062 575.3278,-488.1062 575.3278,-470.1062 611.3278,-470.1062 611.3278,-488.1062"/>
<text text-anchor="middle" x="593.3278" y="-476.9062" font-family="Times,serif" font-size="9.00" fill="#000000">x&#45;pos</text>
</g>
<!-- none -->
<g id="node13" class="node">
<title>none</title>
<ellipse fill="#add8e6" stroke="#000000" cx="922.3278" cy="-285.4838" rx="24.0833" ry="24.0833"/>
<text text-anchor="middle" x="922.3278" y="-283.2838" font-family="Times,serif" font-size="9.00" fill="#000000">none</text>
</g>
<!-- x&#45;pos&#45;&gt;none -->
<g id="edge8" class="edge">
<title>x&#45;pos&#45;&gt;none</title>
<path fill="none" stroke="#ff0000" stroke-width=".1396" d="M602.495,-470.0115C607.5731,-465.1541 614.1024,-459.1964 620.3278,-454.3574 643.3943,-436.4279 652.1326,-436.1202 675.3278,-418.3574 713.5983,-389.0501 714.9626,-370.9809 756.3278,-346.2325 798.929,-320.7447 853.9738,-303.2116 888.7257,-293.7573"/>
<polygon fill="#ff0000" stroke="#ff0000" stroke-width=".1396" points="890.0526,-297.0266 898.823,-291.0827 888.2602,-290.26 890.0526,-297.0266"/>
</g>
<!-- x&#45;pos&#45;&gt;right -->
<g id="edge26" class="edge">
<title>x&#45;pos&#45;&gt;right</title>
<path fill="none" stroke="#ff0000" stroke-width=".2716" stroke-dasharray="1,5" d="M600.2962,-470.0695C605.216,-464.4414 612.3367,-457.6633 620.3278,-454.3574 794.0015,-382.5108 1280.4983,-452.4539 1465.3278,-418.3574 1491.8432,-413.466 1520.7628,-403.5494 1541.9973,-395.3512"/>
<polygon fill="#ff0000" stroke="#ff0000" stroke-width=".2716" points="1543.4518,-398.5399 1551.4678,-391.6122 1540.8812,-392.029 1543.4518,-398.5399"/>
</g>
<!-- left -->
<g id="node15" class="node">
<title>left</title>
<ellipse fill="#add8e6" stroke="#000000" cx="441.3278" cy="-19.799" rx="19.6" ry="19.6"/>
<text text-anchor="middle" x="441.3278" y="-17.599" font-family="Times,serif" font-size="9.00" fill="#000000">left</text>
</g>
<!-- x&#45;pos&#45;&gt;left -->
<g id="edge6" class="edge">
<title>x&#45;pos&#45;&gt;left</title>
<path fill="none" stroke="#00ff00" stroke-width=".2875" stroke-dasharray="1,5" d="M582.8073,-469.7952C554.5856,-443.7316 479.3278,-366.6219 479.3278,-285.4838 479.3278,-285.4838 479.3278,-285.4838 479.3278,-192.9153 479.3278,-140.9084 462.7641,-82.1141 451.508,-48.1638"/>
<polygon fill="#00ff00" stroke="#00ff00" stroke-width=".2875" points="454.7417,-46.8015 448.2093,-38.4601 448.1141,-49.0546 454.7417,-46.8015"/>
</g>
<!-- x&#45;pos&#45;&gt;backward -->
<g id="edge12" class="edge">
<title>x&#45;pos&#45;&gt;backward</title>
<path fill="none" stroke="#ff0000" stroke-width=".2724" d="M601.6417,-469.9517C606.663,-464.8379 613.413,-458.6507 620.3278,-454.3574 657.9825,-430.9786 672.1532,-434.7616 713.3278,-418.3574 728.0335,-412.4986 744.067,-405.9701 758.3713,-400.0953"/>
<polygon fill="#ff0000" stroke="#ff0000" stroke-width=".2724" points="760.045,-403.1913 767.9604,-396.1488 757.3808,-396.7181 760.045,-403.1913"/>
</g>
<!-- 1367 -->
<g id="node37" class="node">
<title>1367</title>
<ellipse fill="#ffffff" stroke="#000000" cx="274.3278" cy="-382.295" rx="25" ry="25"/>
<text text-anchor="middle" x="274.3278" y="-380.095" font-family="Times,serif" font-size="9.00" fill="#000000">1367</text>
</g>
<!-- x&#45;pos&#45;&gt;1367 -->
<g id="edge36" class="edge">
<title>x&#45;pos&#45;&gt;1367</title>
<path fill="none" stroke="#00ff00" stroke-width=".2239" stroke-dasharray="1,5" d="M585.6677,-470.1022C580.6733,-464.778 573.726,-458.322 566.3278,-454.3574 521.5491,-430.3614 376.1335,-401.2089 308.9447,-388.6033"/>
<polygon fill="#00ff00" stroke="#00ff00" stroke-width=".2239" points="309.3321,-385.1154 298.8603,-386.7256 308.0506,-391.9971 309.3321,-385.1154"/>
</g>
<!-- y&#45;pos -->
<g id="node4" class="node">
<title>y&#45;pos</title>
<polygon fill="#d3d3d3" stroke="#000000" points="803.3278,-659.1011 767.3278,-659.1011 767.3278,-641.1011 803.3278,-641.1011 803.3278,-659.1011"/>
<text text-anchor="middle" x="785.3278" y="-647.9011" font-family="Times,serif" font-size="9.00" fill="#000000">y&#45;pos</text>
</g>
<!-- y&#45;pos&#45;&gt;none -->
<g id="edge17" class="edge">
<title>y&#45;pos&#45;&gt;none</title>
<path fill="none" stroke="#ff0000" stroke-width=".3273" stroke-dasharray="1,5" d="M788.9632,-641.0663C793.715,-629.2194 802.2637,-607.7759 809.3278,-589.3524 847.0777,-490.898 890.0915,-373.8113 910.449,-318.0872"/>
<polygon fill="#ff0000" stroke="#ff0000" stroke-width=".3273" points="913.8385,-319.0086 913.9802,-308.4147 907.263,-316.608 913.8385,-319.0086"/>
</g>
<!-- y&#45;pos&#45;&gt;left -->
<g id="edge31" class="edge">
<title>y&#45;pos&#45;&gt;left</title>
<path fill="none" stroke="#ff0000" stroke-width=".1908" stroke-dasharray="1,5" d="M767.324,-648.588C688.029,-641.829 369.5567,-613.6656 272.3278,-589.3524 170.9612,-564.0045 121.9251,-582.6718 53.3278,-503.8549 -12.1707,-428.5985 1.3278,-385.2514 1.3278,-285.4838 1.3278,-285.4838 1.3278,-285.4838 1.3278,-192.9153 1.3278,-165.7017 36.408,-111.9323 103.3278,-75.598 156.5233,-46.7153 338.8142,-28.486 411.2767,-22.2287"/>
<polygon fill="#ff0000" stroke="#ff0000" stroke-width=".1908" points="411.8667,-25.6914 421.5357,-21.3599 411.276,-18.7164 411.8667,-25.6914"/>
</g>
<!-- y&#45;pos&#45;&gt;backward -->
<g id="edge11" class="edge">
<title>y&#45;pos&#45;&gt;backward</title>
<path fill="none" stroke="#ff0000" stroke-width=".1124" d="M786.7819,-641.0723C788.6279,-629.2319 791.7605,-607.7955 793.3278,-589.3524 798.0034,-534.333 799.9482,-470.8545 800.7559,-428.8398"/>
<polygon fill="#ff0000" stroke="#ff0000" stroke-width=".1124" points="804.2589,-428.6996 800.9378,-418.6388 797.26,-428.5748 804.2589,-428.6996"/>
</g>
<!-- 2890 -->
<g id="node34" class="node">
<title>2890</title>
<ellipse fill="#ffffff" stroke="#000000" cx="759.3278" cy="-564.6036" rx="25" ry="25"/>
<text text-anchor="middle" x="759.3278" y="-562.4036" font-family="Times,serif" font-size="9.00" fill="#000000">2890</text>
</g>
<!-- y&#45;pos&#45;&gt;2890 -->
<g id="edge47" class="edge">
<title>y&#45;pos&#45;&gt;2890</title>
<path fill="none" stroke="#00ff00" stroke-width=".5397" d="M782.5453,-640.9514C779.4504,-630.7742 774.2683,-613.7335 769.5841,-598.3303"/>
<polygon fill="#00ff00" stroke="#00ff00" stroke-width=".5397" points="772.8629,-597.0822 766.6048,-588.5331 766.1658,-599.1189 772.8629,-597.0822"/>
</g>
<!-- x&#45;lm1&#45;vec -->
<g id="node5" class="node">
<title>x&#45;lm1&#45;vec</title>
<polygon fill="#d3d3d3" stroke="#000000" points="1263.8278,-488.1062 1210.8278,-488.1062 1210.8278,-470.1062 1263.8278,-470.1062 1263.8278,-488.1062"/>
<text text-anchor="middle" x="1237.3278" y="-476.9062" font-family="Times,serif" font-size="9.00" fill="#000000">x&#45;lm1&#45;vec</text>
</g>
<!-- x&#45;lm1&#45;vec&#45;&gt;right -->
<g id="edge7" class="edge">
<title>x&#45;lm1&#45;vec&#45;&gt;right</title>
<path fill="none" stroke="#00ff00" stroke-width=".1355" d="M1253.2201,-470.0077C1263.2678,-464.648 1276.6984,-458.1878 1289.3278,-454.3574 1395.4902,-422.1596 1436.8554,-467.4736 1536.3278,-418.3574 1541.6864,-415.7115 1546.7619,-412.0002 1551.3387,-407.9573"/>
<polygon fill="#00ff00" stroke="#00ff00" stroke-width=".1355" points="1553.7978,-410.4481 1558.5323,-400.9699 1548.9205,-405.4269 1553.7978,-410.4481"/>
</g>
<!-- x&#45;lm1&#45;vec&#45;&gt;left -->
<g id="edge18" class="edge">
<title>x&#45;lm1&#45;vec&#45;&gt;left</title>
<path fill="none" stroke="#ff0000" stroke-width="2.4065" d="M1232.9825,-469.9356C1219.0787,-440.6494 1176.2975,-351.0049 1171.3278,-346.2325 953.2822,-136.8472 578.0203,-47.4893 470.7467,-25.4607"/>
<polygon fill="#ff0000" stroke="#ff0000" stroke-width="2.4065" points="471.432,-22.0285 460.9373,-23.4821 470.0478,-28.8903 471.432,-22.0285"/>
</g>
<!-- x&#45;lm1&#45;vec&#45;&gt;backward -->
<g id="edge14" class="edge">
<title>x&#45;lm1&#45;vec&#45;&gt;backward</title>
<path fill="none" stroke="#00ff00" stroke-width=".296" d="M1224.6802,-470.0573C1216.6357,-464.7163 1205.7963,-458.2583 1195.3278,-454.3574 1162.9891,-442.3071 943.8804,-405.6124 847.1115,-389.7407"/>
<polygon fill="#00ff00" stroke="#00ff00" stroke-width=".296" points="847.47,-386.2529 837.0358,-388.0909 846.3388,-393.1609 847.47,-386.2529"/>
</g>
<!-- x&#45;lm1&#45;vec&#45;&gt;3830 -->
<g id="edge89" class="edge">
<title>x&#45;lm1&#45;vec&#45;&gt;3830</title>
<path fill="none" stroke="#00ff00" stroke-width=".2107" d="M1237.9031,-469.8235C1238.6505,-457.7642 1239.9976,-436.0286 1241.1623,-417.2352"/>
<polygon fill="#00ff00" stroke="#00ff00" stroke-width=".2107" points="1244.6603,-417.3745 1241.7857,-407.1771 1237.6737,-416.9415 1244.6603,-417.3745"/>
</g>
<!-- y&#45;lm1&#45;vec -->
<g id="node6" class="node">
<title>y&#45;lm1&#45;vec</title>
<polygon fill="#d3d3d3" stroke="#000000" points="497.8278,-659.1011 444.8278,-659.1011 444.8278,-641.1011 497.8278,-641.1011 497.8278,-659.1011"/>
<text text-anchor="middle" x="471.3278" y="-647.9011" font-family="Times,serif" font-size="9.00" fill="#000000">y&#45;lm1&#45;vec</text>
</g>
<!-- y&#45;lm1&#45;vec&#45;&gt;left -->
<g id="edge27" class="edge">
<title>y&#45;lm1&#45;vec&#45;&gt;left</title>
<path fill="none" stroke="#00ff00" stroke-width=".7503" stroke-dasharray="1,5" d="M466.6997,-641.0745C442.052,-592.6787 327.3278,-363.2418 327.3278,-285.4838 327.3278,-285.4838 327.3278,-285.4838 327.3278,-192.9153 327.3278,-139.4112 323.5299,-119.3493 354.3278,-75.598 368.9071,-54.8867 393.8584,-40.0511 413.3116,-30.9083"/>
<polygon fill="#00ff00" stroke="#00ff00" stroke-width=".7503" points="414.9131,-34.0265 422.6241,-26.7608 412.0652,-27.632 414.9131,-34.0265"/>
</g>
<!-- 1297 -->
<g id="node20" class="node">
<title>1297</title>
<ellipse fill="#ffffff" stroke="#000000" cx="654.3278" cy="-479.1062" rx="25" ry="25"/>
<text text-anchor="middle" x="654.3278" y="-476.9062" font-family="Times,serif" font-size="9.00" fill="#000000">1297</text>
</g>
<!-- y&#45;lm1&#45;vec&#45;&gt;1297 -->
<g id="edge34" class="edge">
<title>y&#45;lm1&#45;vec&#45;&gt;1297</title>
<path fill="none" stroke="#00ff00" stroke-width=".5857" stroke-dasharray="1,5" d="M481.1667,-640.9077C508.7858,-615.1004 587.6904,-541.3721 628.7698,-502.9875"/>
<polygon fill="#00ff00" stroke="#00ff00" stroke-width=".5857" points="631.3001,-505.4134 636.2172,-496.0287 626.5209,-500.2987 631.3001,-505.4134"/>
</g>
<!-- 3788 -->
<g id="node35" class="node">
<title>3788</title>
<ellipse fill="#ffffff" stroke="#000000" cx="654.3278" cy="-564.6036" rx="25" ry="25"/>
<text text-anchor="middle" x="654.3278" y="-562.4036" font-family="Times,serif" font-size="9.00" fill="#000000">3788</text>
</g>
<!-- y&#45;lm1&#45;vec&#45;&gt;3788 -->
<g id="edge63" class="edge">
<title>y&#45;lm1&#45;vec&#45;&gt;3788</title>
<path fill="none" stroke="#00ff00" stroke-width=".4292" stroke-dasharray="1,5" d="M490.912,-640.9514C522.4476,-626.218 584.7716,-597.1003 622.6788,-579.39"/>
<polygon fill="#00ff00" stroke="#00ff00" stroke-width=".4292" points="624.178,-582.5528 631.7565,-575.1489 621.215,-576.2108 624.178,-582.5528"/>
</g>
<!-- y&#45;lm1&#45;vec&#45;&gt;1367 -->
<g id="edge67" class="edge">
<title>y&#45;lm1&#45;vec&#45;&gt;1367</title>
<path fill="none" stroke="#00ff00" stroke-width=".1315" d="M444.5318,-648.6972C402.9293,-645.1722 322.3903,-632.7969 272.3278,-589.3524 225.0663,-548.3386 216.008,-514.7681 232.3278,-454.3574 236.5622,-438.6829 245.1444,-422.9149 253.4535,-410.1422"/>
<polygon fill="#00ff00" stroke="#00ff00" stroke-width=".1315" points="256.3848,-412.0556 259.1055,-401.816 250.5932,-408.124 256.3848,-412.0556"/>
</g>
<!-- 5230 -->
<g id="node39" class="node">
<title>5230</title>
<ellipse fill="#ffffff" stroke="#000000" cx="388.3278" cy="-100.3467" rx="25" ry="25"/>
<text text-anchor="middle" x="388.3278" y="-98.1467" font-family="Times,serif" font-size="9.00" fill="#000000">5230</text>
</g>
<!-- y&#45;lm1&#45;vec&#45;&gt;5230 -->
<g id="edge90" class="edge">
<title>y&#45;lm1&#45;vec&#45;&gt;5230</title>
<path fill="none" stroke="#ff0000" stroke-width=".1405" d="M469.9564,-641.0178C460.9518,-581.3752 410.141,-244.8272 393.5605,-135.0057"/>
<polygon fill="#ff0000" stroke="#ff0000" stroke-width=".1405" points="397.019,-134.468 392.0653,-125.1025 390.0975,-135.513 397.019,-134.468"/>
</g>
<!-- x&#45;lm2&#45;vec -->
<g id="node7" class="node">
<title>x&#45;lm2&#45;vec</title>
<polygon fill="#d3d3d3" stroke="#000000" points="1631.8278,-728.8499 1578.8278,-728.8499 1578.8278,-710.8499 1631.8278,-710.8499 1631.8278,-728.8499"/>
<text text-anchor="middle" x="1605.3278" y="-717.6499" font-family="Times,serif" font-size="9.00" fill="#000000">x&#45;lm2&#45;vec</text>
</g>
<!-- x&#45;lm2&#45;vec&#45;&gt;right -->
<g id="edge10" class="edge">
<title>x&#45;lm2&#45;vec&#45;&gt;right</title>
<path fill="none" stroke="#00ff00" stroke-width=".3357" stroke-dasharray="1,5" d="M1604.4719,-710.8211C1600.4836,-668.7503 1583.6174,-490.8358 1576.5084,-415.8457"/>
<polygon fill="#00ff00" stroke="#00ff00" stroke-width=".3357" points="1579.9612,-415.1818 1575.533,-405.5568 1572.9925,-415.8425 1579.9612,-415.1818"/>
</g>
<!-- x&#45;lm2&#45;vec&#45;&gt;left -->
<g id="edge13" class="edge">
<title>x&#45;lm2&#45;vec&#45;&gt;left</title>
<path fill="none" stroke="#00ff00" stroke-width=".4448" stroke-dasharray="1,5" d="M1611.2131,-710.8285C1625.7765,-687.607 1662.3278,-623.4627 1662.3278,-564.6036 1662.3278,-564.6036 1662.3278,-564.6036 1662.3278,-192.9153 1662.3278,-138.3928 1735.057,-150.4181 1345.3278,-75.598 1172.0477,-42.3317 607.842,-24.5088 471.2888,-20.6181"/>
<polygon fill="#00ff00" stroke="#00ff00" stroke-width=".4448" points="471.2465,-17.1156 461.1519,-20.3326 471.0494,-24.1128 471.2465,-17.1156"/>
</g>
<!-- 3768 -->
<g id="node28" class="node">
<title>3768</title>
<ellipse fill="#ffffff" stroke="#000000" cx="1168.3278" cy="-650.1011" rx="25" ry="25"/>
<text text-anchor="middle" x="1168.3278" y="-647.9011" font-family="Times,serif" font-size="9.00" fill="#000000">3768</text>
</g>
<!-- x&#45;lm2&#45;vec&#45;&gt;3768 -->
<g id="edge61" class="edge">
<title>x&#45;lm2&#45;vec&#45;&gt;3768</title>
<path fill="none" stroke="#ff0000" stroke-width=".3475" d="M1578.6493,-715.5918C1503.1225,-703.5371 1287.832,-669.175 1203.1494,-655.6589"/>
<polygon fill="#ff0000" stroke="#ff0000" stroke-width=".3475" points="1203.4484,-652.1624 1193.0217,-654.0425 1202.3451,-659.0749 1203.4484,-652.1624"/>
</g>
<!-- 2106 -->
<g id="node30" class="node">
<title>2106</title>
<ellipse fill="#ffffff" stroke="#000000" cx="1311.3278" cy="-100.3467" rx="25" ry="25"/>
<text text-anchor="middle" x="1311.3278" y="-98.1467" font-family="Times,serif" font-size="9.00" fill="#000000">2106</text>
</g>
<!-- x&#45;lm2&#45;vec&#45;&gt;2106 -->
<g id="edge54" class="edge">
<title>x&#45;lm2&#45;vec&#45;&gt;2106</title>
<path fill="none" stroke="#ff0000" stroke-width=".323" stroke-dasharray="1,5" d="M1607.219,-710.7981C1612.0249,-686.9791 1624.3278,-620.54 1624.3278,-564.6036 1624.3278,-564.6036 1624.3278,-564.6036 1624.3278,-285.4838 1624.3278,-224.4856 1613.5977,-199.6485 1566.3278,-161.0955 1532.7391,-133.7007 1407.9586,-113.4404 1346.2872,-104.8642"/>
<polygon fill="#ff0000" stroke="#ff0000" stroke-width=".323" points="1346.6289,-101.3785 1336.2474,-103.494 1345.6823,-108.3142 1346.6289,-101.3785"/>
</g>
<!-- y&#45;lm2&#45;vec -->
<g id="node8" class="node">
<title>y&#45;lm2&#45;vec</title>
<polygon fill="#d3d3d3" stroke="#000000" points="334.8278,-573.6036 281.8278,-573.6036 281.8278,-555.6036 334.8278,-555.6036 334.8278,-573.6036"/>
<text text-anchor="middle" x="308.3278" y="-562.4036" font-family="Times,serif" font-size="9.00" fill="#000000">y&#45;lm2&#45;vec</text>
</g>
<!-- forward -->
<g id="node16" class="node">
<title>forward</title>
<ellipse fill="#add8e6" stroke="#000000" cx="202.3278" cy="-192.9153" rx="31.6406" ry="31.6406"/>
<text text-anchor="middle" x="202.3278" y="-190.7153" font-family="Times,serif" font-size="9.00" fill="#000000">forward</text>
</g>
<!-- y&#45;lm2&#45;vec&#45;&gt;forward -->
<g id="edge20" class="edge">
<title>y&#45;lm2&#45;vec&#45;&gt;forward</title>
<path fill="none" stroke="#00ff00" stroke-width=".2896" stroke-dasharray="1,5" d="M290.0477,-555.595C271.9992,-545.6311 245.2782,-527.7689 232.3278,-503.8549 226.0123,-492.1929 211.8297,-316.7701 205.4921,-234.6858"/>
<polygon fill="#00ff00" stroke="#00ff00" stroke-width=".2896" points="208.9796,-234.3882 204.7232,-224.686 202.0002,-234.9249 208.9796,-234.3882"/>
</g>
<!-- y&#45;lm2&#45;vec&#45;&gt;backward -->
<g id="edge16" class="edge">
<title>y&#45;lm2&#45;vec&#45;&gt;backward</title>
<path fill="none" stroke="#ff0000" stroke-width=".4713" stroke-dasharray="1,5" d="M320.3953,-555.3967C348.5738,-534.3379 421.5421,-482.3242 490.3278,-454.3574 496.5411,-451.8312 671.2738,-411.9006 756.0477,-392.5935"/>
<polygon fill="#ff0000" stroke="#ff0000" stroke-width=".4713" points="756.9492,-395.9778 765.9226,-390.3451 755.3951,-389.1525 756.9492,-395.9778"/>
</g>
<!-- y&#45;lm2&#45;vec&#45;&gt;1297 -->
<g id="edge40" class="edge">
<title>y&#45;lm2&#45;vec&#45;&gt;1297</title>
<path fill="none" stroke="#ff0000" stroke-width=".3602" stroke-dasharray="1,5" d="M334.9444,-563.3012C390.2917,-559.7738 520.9113,-547.1537 620.3278,-503.8549 622.3945,-502.9548 624.4572,-501.9118 626.4868,-500.7736"/>
<polygon fill="#ff0000" stroke="#ff0000" stroke-width=".3602" points="628.514,-503.6325 635.0834,-495.3202 624.7642,-497.7215 628.514,-503.6325"/>
</g>
<!-- 4755 -->
<g id="node22" class="node">
<title>4755</title>
<ellipse fill="#ffffff" stroke="#000000" cx="275.3278" cy="-479.1062" rx="25" ry="25"/>
<text text-anchor="middle" x="275.3278" y="-476.9062" font-family="Times,serif" font-size="9.00" fill="#000000">4755</text>
</g>
<!-- y&#45;lm2&#45;vec&#45;&gt;4755 -->
<g id="edge81" class="edge">
<title>y&#45;lm2&#45;vec&#45;&gt;4755</title>
<path fill="none" stroke="#00ff00" stroke-width=".2319" d="M304.7962,-555.4539C300.7756,-545.0371 293.9796,-527.4298 287.9266,-511.7476"/>
<polygon fill="#00ff00" stroke="#00ff00" stroke-width=".2319" points="291.1514,-510.3824 284.2853,-502.3135 284.621,-512.903 291.1514,-510.3824"/>
</g>
<!-- 2482 -->
<g id="node27" class="node">
<title>2482</title>
<ellipse fill="#ffffff" stroke="#000000" cx="342.3278" cy="-479.1062" rx="25" ry="25"/>
<text text-anchor="middle" x="342.3278" y="-476.9062" font-family="Times,serif" font-size="9.00" fill="#000000">2482</text>
</g>
<!-- y&#45;lm2&#45;vec&#45;&gt;2482 -->
<g id="edge41" class="edge">
<title>y&#45;lm2&#45;vec&#45;&gt;2482</title>
<path fill="none" stroke="#00ff00" stroke-width=".4563" d="M311.9664,-555.4539C316.1089,-545.0371 323.1108,-527.4298 329.3472,-511.7476"/>
<polygon fill="#00ff00" stroke="#00ff00" stroke-width=".4563" points="332.6558,-512.8991 333.0989,-502.3135 326.1513,-510.3123 332.6558,-512.8991"/>
</g>
<!-- y&#45;lm2&#45;vec&#45;&gt;1367 -->
<g id="edge52" class="edge">
<title>y&#45;lm2&#45;vec&#45;&gt;1367</title>
<path fill="none" stroke="#00ff00" stroke-width=".2261" d="M292.0299,-555.4531C275.7262,-545.2598 251.6334,-527.11 241.3278,-503.8549 227.9923,-473.7627 241.7457,-437.0343 255.344,-411.8757"/>
<polygon fill="#00ff00" stroke="#00ff00" stroke-width=".2261" points="258.3971,-413.5872 260.2965,-403.164 252.3117,-410.1277 258.3971,-413.5872"/>
</g>
<!-- x&#45;other&#45;vec -->
<g id="node9" class="node">
<title>x&#45;other&#45;vec</title>
<polygon fill="#d3d3d3" stroke="#000000" points="1186.3278,-488.1062 1128.3278,-488.1062 1128.3278,-470.1062 1186.3278,-470.1062 1186.3278,-488.1062"/>
<text text-anchor="middle" x="1157.3278" y="-476.9062" font-family="Times,serif" font-size="9.00" fill="#000000">x&#45;other&#45;vec</text>
</g>
<!-- x&#45;other&#45;vec&#45;&gt;none -->
<g id="edge5" class="edge">
<title>x&#45;other&#45;vec&#45;&gt;none</title>
<path fill="none" stroke="#ff0000" stroke-width=".3156" stroke-dasharray="1,5" d="M1144.642,-470.0756C1137.4072,-465.1233 1128.0653,-459.0546 1119.3278,-454.3574 1083.9117,-435.3183 1066.2486,-445.2188 1036.3278,-418.3574 1008.8897,-393.725 1018.9922,-374.5097 995.3278,-346.2325 982.3247,-330.6948 964.9849,-316.0765 950.4677,-305.075"/>
<polygon fill="#ff0000" stroke="#ff0000" stroke-width=".3156" points="952.4221,-302.1672 942.3006,-299.0358 948.2602,-307.7956 952.4221,-302.1672"/>
</g>
<!-- x&#45;other&#45;vec&#45;&gt;right -->
<g id="edge2" class="edge">
<title>x&#45;other&#45;vec&#45;&gt;right</title>
<path fill="none" stroke="#00ff00" stroke-width=".2485" stroke-dasharray="1,5" d="M1170.4826,-470.0465C1179.1368,-464.5589 1190.932,-457.9463 1202.3278,-454.3574 1344.7369,-409.5087 1401.2425,-481.9477 1536.3278,-418.3574 1541.8389,-415.7631 1547.0297,-412.0077 1551.6823,-407.8897"/>
<polygon fill="#00ff00" stroke="#00ff00" stroke-width=".2485" points="1554.2692,-410.2551 1558.9657,-400.7581 1549.3719,-405.2535 1554.2692,-410.2551"/>
</g>
<!-- x&#45;other&#45;vec&#45;&gt;backward -->
<g id="edge21" class="edge">
<title>x&#45;other&#45;vec&#45;&gt;backward</title>
<path fill="none" stroke="#00ff00" stroke-width=".1317" stroke-dasharray="1,5" d="M1145.6239,-469.9188C1138.4064,-464.6634 1128.7545,-458.3437 1119.3278,-454.3574 1070.4654,-433.6952 922.6851,-404.6591 847.0285,-390.5876"/>
<polygon fill="#00ff00" stroke="#00ff00" stroke-width=".1317" points="847.3195,-387.0821 836.8496,-388.7038 846.0456,-393.9652 847.3195,-387.0821"/>
</g>
<!-- x&#45;other&#45;vec&#45;&gt;2106 -->
<g id="edge46" class="edge">
<title>x&#45;other&#45;vec&#45;&gt;2106</title>
<path fill="none" stroke="#00ff00" stroke-width=".2186" d="M1170.9086,-469.913C1179.539,-464.5177 1191.1539,-458.0533 1202.3278,-454.3574 1314.3387,-417.3092 1373.9206,-492.9479 1465.3278,-418.3574 1521.1593,-372.7976 1531.7739,-326.9444 1503.3278,-260.7351 1472.3548,-188.6443 1389.4859,-138.4299 1343.3868,-115.1156"/>
<polygon fill="#00ff00" stroke="#00ff00" stroke-width=".2186" points="1344.656,-111.839 1334.1398,-110.5507 1341.5574,-118.1158 1344.656,-111.839"/>
</g>
<!-- 3005 -->
<g id="node32" class="node">
<title>3005</title>
<ellipse fill="#ffffff" stroke="#000000" cx="1377.3278" cy="-382.295" rx="25" ry="25"/>
<text text-anchor="middle" x="1377.3278" y="-380.095" font-family="Times,serif" font-size="9.00" fill="#000000">3005</text>
</g>
<!-- x&#45;other&#45;vec&#45;&gt;3005 -->
<g id="edge74" class="edge">
<title>x&#45;other&#45;vec&#45;&gt;3005</title>
<path fill="none" stroke="#ff0000" stroke-width=".4499" stroke-dasharray="1,5" d="M1171.8649,-469.8713C1180.4606,-464.7306 1191.7106,-458.5434 1202.3278,-454.3574 1262.8977,-430.4766 1288.4509,-451.7758 1344.3278,-418.3574 1348.2858,-415.9902 1352.0505,-413.003 1355.5256,-409.7656"/>
<polygon fill="#ff0000" stroke="#ff0000" stroke-width=".4499" points="1358.1931,-412.0421 1362.6331,-402.4225 1353.1633,-407.1737 1358.1931,-412.0421"/>
</g>
<!-- 5108 -->
<g id="node40" class="node">
<title>5108</title>
<ellipse fill="#ffffff" stroke="#000000" cx="1070.3278" cy="-382.295" rx="25" ry="25"/>
<text text-anchor="middle" x="1070.3278" y="-380.095" font-family="Times,serif" font-size="9.00" fill="#000000">5108</text>
</g>
<!-- x&#45;other&#45;vec&#45;&gt;5108 -->
<g id="edge87" class="edge">
<title>x&#45;other&#45;vec&#45;&gt;5108</title>
<path fill="none" stroke="#00ff00" stroke-width=".4266" stroke-dasharray="1,5" d="M1148.9859,-469.8235C1136.4455,-455.8689 1112.2615,-428.9576 1094.004,-408.6413"/>
<polygon fill="#00ff00" stroke="#00ff00" stroke-width=".4266" points="1096.3752,-406.0435 1087.0878,-400.945 1091.1687,-410.7224 1096.3752,-406.0435"/>
</g>
<!-- 4471 -->
<g id="node42" class="node">
<title>4471</title>
<ellipse fill="#ffffff" stroke="#000000" cx="1137.3278" cy="-382.295" rx="25" ry="25"/>
<text text-anchor="middle" x="1137.3278" y="-380.095" font-family="Times,serif" font-size="9.00" fill="#000000">4471</text>
</g>
<!-- x&#45;other&#45;vec&#45;&gt;4471 -->
<g id="edge75" class="edge">
<title>x&#45;other&#45;vec&#45;&gt;4471</title>
<path fill="none" stroke="#00ff00" stroke-width=".5642" d="M1155.4101,-469.8235C1152.8907,-457.6281 1148.3269,-435.5369 1144.4148,-416.6002"/>
<polygon fill="#00ff00" stroke="#00ff00" stroke-width=".5642" points="1147.8352,-415.8565 1142.3843,-406.7714 1140.9799,-417.2728 1147.8352,-415.8565"/>
</g>
<!-- y&#45;other&#45;vec -->
<g id="node10" class="node">
<title>y&#45;other&#45;vec</title>
<polygon fill="#d3d3d3" stroke="#000000" points="557.3278,-488.1062 499.3278,-488.1062 499.3278,-470.1062 557.3278,-470.1062 557.3278,-488.1062"/>
<text text-anchor="middle" x="528.3278" y="-476.9062" font-family="Times,serif" font-size="9.00" fill="#000000">y&#45;other&#45;vec</text>
</g>
<!-- y&#45;other&#45;vec&#45;&gt;none -->
<g id="edge24" class="edge">
<title>y&#45;other&#45;vec&#45;&gt;none</title>
<path fill="none" stroke="#00ff00" stroke-width=".2271" stroke-dasharray="1,5" d="M541.4217,-469.952C548.6249,-465.0772 557.8067,-459.1218 566.3278,-454.3574 598.9504,-436.1172 616.0751,-444.9607 642.3278,-418.3574 667.0884,-393.2661 648.1722,-368.7101 675.3278,-346.2325 707.6597,-319.4703 828.1595,-298.9578 888.0671,-290.1692"/>
<polygon fill="#00ff00" stroke="#00ff00" stroke-width=".2271" points="888.7714,-293.6039 898.1704,-288.7141 887.7735,-286.6754 888.7714,-293.6039"/>
</g>
<!-- y&#45;other&#45;vec&#45;&gt;left -->
<g id="edge32" class="edge">
<title>y&#45;other&#45;vec&#45;&gt;left</title>
<path fill="none" stroke="#ff0000" stroke-width=".1102" stroke-dasharray="1,5" d="M514.5877,-469.9152C499.9054,-459.3103 477.1518,-440.4643 465.3278,-418.3574 437.0248,-365.4405 441.3278,-345.4943 441.3278,-285.4838 441.3278,-285.4838 441.3278,-285.4838 441.3278,-192.9153 441.3278,-142.8791 441.3278,-84.7081 441.3278,-50.144"/>
<polygon fill="#ff0000" stroke="#ff0000" stroke-width=".1102" points="444.8279,-49.7916 441.3278,-39.7916 437.8279,-49.7916 444.8279,-49.7916"/>
</g>
<!-- y&#45;other&#45;vec&#45;&gt;forward -->
<g id="edge3" class="edge">
<title>y&#45;other&#45;vec&#45;&gt;forward</title>
<path fill="none" stroke="#00ff00" stroke-width="1.2699" d="M510.3265,-470.0157C489.4381,-459.0834 454.4016,-439.541 427.3278,-418.3574 349.1074,-357.1548 269.8914,-270.8596 229.5802,-224.8082"/>
<polygon fill="#00ff00" stroke="#00ff00" stroke-width="1.2699" points="232.1893,-222.4749 222.9823,-217.2325 226.9106,-227.0722 232.1893,-222.4749"/>
</g>
<!-- y&#45;other&#45;vec&#45;&gt;backward -->
<g id="edge9" class="edge">
<title>y&#45;other&#45;vec&#45;&gt;backward</title>
<path fill="none" stroke="#ff0000" stroke-width="2.4669" d="M540.4813,-469.9334C547.6991,-464.8134 557.1991,-458.6262 566.3278,-454.3574 583.8029,-446.1857 693.8402,-413.6039 756.9578,-395.1733"/>
<polygon fill="#ff0000" stroke="#ff0000" stroke-width="2.4669" points="758.0434,-398.5026 766.6635,-392.3427 756.0835,-391.7825 758.0434,-398.5026"/>
</g>
<!-- 3990 -->
<g id="node23" class="node">
<title>3990</title>
<ellipse fill="#ffffff" stroke="#000000" cx="608.3278" cy="-382.295" rx="25" ry="25"/>
<text text-anchor="middle" x="608.3278" y="-380.095" font-family="Times,serif" font-size="9.00" fill="#000000">3990</text>
</g>
<!-- y&#45;other&#45;vec&#45;&gt;3990 -->
<g id="edge68" class="edge">
<title>y&#45;other&#45;vec&#45;&gt;3990</title>
<path fill="none" stroke="#00ff00" stroke-width=".1479" d="M535.9985,-469.8235C547.3414,-456.097 569.0438,-429.8341 585.7289,-409.6429"/>
<polygon fill="#00ff00" stroke="#00ff00" stroke-width=".1479" points="588.6273,-411.6298 592.2994,-401.6916 583.2313,-407.1707 588.6273,-411.6298"/>
</g>
<!-- x&#45;other&#45;vel -->
<g id="node11" class="node">
<title>x&#45;other&#45;vel</title>
<polygon fill="#d3d3d3" stroke="#000000" points="118.3278,-488.1062 62.3278,-488.1062 62.3278,-470.1062 118.3278,-470.1062 118.3278,-488.1062"/>
<text text-anchor="middle" x="90.3278" y="-476.9062" font-family="Times,serif" font-size="9.00" fill="#000000">x&#45;other&#45;vel</text>
</g>
<!-- x&#45;other&#45;vel&#45;&gt;none -->
<g id="edge4" class="edge">
<title>x&#45;other&#45;vel&#45;&gt;none</title>
<path fill="none" stroke="#00ff00" stroke-width=".2974" d="M118.6517,-471.2502C218.7714,-443.4911 551.237,-351.4052 574.3278,-346.2325 688.3247,-320.6954 825.3434,-299.5284 888.0122,-290.3664"/>
<polygon fill="#00ff00" stroke="#00ff00" stroke-width=".2974" points="888.7299,-293.7989 898.1232,-288.8983 887.724,-286.8716 888.7299,-293.7989"/>
</g>
<!-- x&#45;other&#45;vel&#45;&gt;left -->
<g id="edge19" class="edge">
<title>x&#45;other&#45;vel&#45;&gt;left</title>
<path fill="none" stroke="#ff0000" stroke-width=".1541" stroke-dasharray="1,5" d="M86.1542,-470.0603C73.974,-442.8045 39.3278,-358.8306 39.3278,-285.4838 39.3278,-285.4838 39.3278,-285.4838 39.3278,-192.9153 39.3278,-111.7901 318.9858,-45.5612 411.7952,-25.8158"/>
<polygon fill="#ff0000" stroke="#ff0000" stroke-width=".1541" points="412.5997,-29.2232 421.6664,-23.7417 411.1603,-22.3728 412.5997,-29.2232"/>
</g>
<!-- x&#45;other&#45;vel&#45;&gt;forward -->
<g id="edge23" class="edge">
<title>x&#45;other&#45;vel&#45;&gt;forward</title>
<path fill="none" stroke="#00ff00" stroke-width=".3474" stroke-dasharray="1,5" d="M107.4714,-469.973C124.7795,-459.7939 150.8267,-441.6555 164.3278,-418.3574 197.5382,-361.0482 203.5984,-282.657 203.7929,-235.022"/>
<polygon fill="#00ff00" stroke="#00ff00" stroke-width=".3474" points="207.2918,-234.748 203.7456,-224.7643 200.2919,-234.7803 207.2918,-234.748"/>
</g>
<!-- x&#45;other&#45;vel&#45;&gt;backward -->
<g id="edge15" class="edge">
<title>x&#45;other&#45;vel&#45;&gt;backward</title>
<path fill="none" stroke="#00ff00" stroke-width=".9043" stroke-dasharray="1,5" d="M118.3469,-473.8855C148.5957,-468.3967 198.2382,-459.8154 241.3278,-454.3574 418.8483,-431.8716 465.5696,-446.2092 642.3278,-418.3574 681.1817,-412.2352 724.7038,-402.1337 756.3779,-394.1768"/>
<polygon fill="#00ff00" stroke="#00ff00" stroke-width=".9043" points="757.3934,-397.5301 766.2244,-391.6766 755.6706,-390.7454 757.3934,-397.5301"/>
</g>
<!-- 3736 -->
<g id="node24" class="node">
<title>3736</title>
<ellipse fill="#ffffff" stroke="#000000" cx="130.3278" cy="-285.4838" rx="25" ry="25"/>
<text text-anchor="middle" x="130.3278" y="-283.2838" font-family="Times,serif" font-size="9.00" fill="#000000">3736</text>
</g>
<!-- x&#45;other&#45;vel&#45;&gt;3736 -->
<g id="edge59" class="edge">
<title>x&#45;other&#45;vel&#45;&gt;3736</title>
<path fill="none" stroke="#00ff00" stroke-width=".1233" d="M89.3092,-469.8518C87.1976,-447.887 83.5408,-391.0912 96.3278,-346.2325 99.4411,-335.3104 104.8499,-324.2215 110.4496,-314.5598"/>
<polygon fill="#00ff00" stroke="#00ff00" stroke-width=".1233" points="113.5829,-316.1444 115.808,-305.7858 107.6089,-312.4959 113.5829,-316.1444"/>
</g>
<!-- 2649 -->
<g id="node38" class="node">
<title>2649</title>
<ellipse fill="#ffffff" stroke="#000000" cx="130.3278" cy="-382.295" rx="25" ry="25"/>
<text text-anchor="middle" x="130.3278" y="-380.095" font-family="Times,serif" font-size="9.00" fill="#000000">2649</text>
</g>
<!-- x&#45;other&#45;vel&#45;&gt;2649 -->
<g id="edge45" class="edge">
<title>x&#45;other&#45;vel&#45;&gt;2649</title>
<path fill="none" stroke="#ff0000" stroke-width=".4679" d="M94.1632,-469.8235C99.3823,-457.1918 108.9878,-433.9437 116.9882,-414.5805"/>
<polygon fill="#ff0000" stroke="#ff0000" stroke-width=".4679" points="120.2929,-415.7476 120.8768,-405.1689 113.8234,-413.0745 120.2929,-415.7476"/>
</g>
<!-- y&#45;other&#45;vel -->
<g id="node12" class="node">
<title>y&#45;other&#45;vel</title>
<polygon fill="#d3d3d3" stroke="#000000" points="1480.3278,-659.1011 1424.3278,-659.1011 1424.3278,-641.1011 1480.3278,-641.1011 1480.3278,-659.1011"/>
<text text-anchor="middle" x="1452.3278" y="-647.9011" font-family="Times,serif" font-size="9.00" fill="#000000">y&#45;other&#45;vel</text>
</g>
<!-- y&#45;other&#45;vel&#45;&gt;right -->
<g id="edge33" class="edge">
<title>y&#45;other&#45;vel&#45;&gt;right</title>
<path fill="none" stroke="#ff0000" stroke-width=".7663" stroke-dasharray="1,5" d="M1457.7585,-640.702C1464.5819,-628.8244 1476.5788,-607.7128 1486.3278,-589.3524 1506.2749,-551.7856 1512.5043,-542.9205 1529.3278,-503.8549 1542.2016,-473.9608 1554.6095,-438.9268 1562.9482,-414.1693"/>
<polygon fill="#ff0000" stroke="#ff0000" stroke-width=".7663" points="1566.3088,-415.1554 1566.1537,-404.5617 1559.6686,-412.94 1566.3088,-415.1554"/>
</g>
<!-- y&#45;other&#45;vel&#45;&gt;backward -->
<g id="edge25" class="edge">
<title>y&#45;other&#45;vel&#45;&gt;backward</title>
<path fill="none" stroke="#ff0000" stroke-width=".5141" stroke-dasharray="1,5" d="M1424.0539,-647.6627C1345.2329,-640.5643 1124.497,-618.552 1058.3278,-589.3524 965.2229,-548.2664 877.6016,-464.5229 832.6714,-417.0903"/>
<polygon fill="#ff0000" stroke="#ff0000" stroke-width=".5141" points="834.9648,-414.4193 825.5709,-409.5198 829.8591,-419.208 834.9648,-414.4193"/>
</g>
<!-- 4552 -->
<g id="node33" class="node">
<title>4552</title>
<ellipse fill="#ffffff" stroke="#000000" cx="1452.3278" cy="-564.6036" rx="25" ry="25"/>
<text text-anchor="middle" x="1452.3278" y="-562.4036" font-family="Times,serif" font-size="9.00" fill="#000000">4552</text>
</g>
<!-- y&#45;other&#45;vel&#45;&gt;4552 -->
<g id="edge77" class="edge">
<title>y&#45;other&#45;vel&#45;&gt;4552</title>
<path fill="none" stroke="#ff0000" stroke-width=".3262" d="M1452.3278,-640.9514C1452.3278,-631.0811 1452.3278,-614.7551 1452.3278,-599.7281"/>
<polygon fill="#ff0000" stroke="#ff0000" stroke-width=".3262" points="1455.8279,-599.6276 1452.3278,-589.6276 1448.8279,-599.6277 1455.8279,-599.6276"/>
</g>
<!-- right&#45;&gt;2106 -->
<g id="edge44" class="edge">
<title>right&#45;&gt;2106</title>
<path fill="none" stroke="#ff0000" stroke-width=".1613" stroke-dasharray="1,5" d="M1576.8369,-359.1604C1582.1748,-314.7274 1586.9298,-216.9147 1536.3278,-161.0955 1510.9368,-133.0866 1402.7259,-113.599 1346.1345,-105.1166"/>
<polygon fill="#ff0000" stroke="#ff0000" stroke-width=".1613" points="1346.6017,-101.6478 1336.1999,-103.6612 1345.587,-108.5738 1346.6017,-101.6478"/>
</g>
<!-- 3600 -->
<g id="node19" class="node">
<title>3600</title>
<ellipse fill="#ffffff" stroke="#000000" cx="1364.3278" cy="-192.9153" rx="25" ry="25"/>
<text text-anchor="middle" x="1364.3278" y="-190.7153" font-family="Times,serif" font-size="9.00" fill="#000000">3600</text>
</g>
<!-- 3600&#45;&gt;2106 -->
<g id="edge56" class="edge">
<title>3600&#45;&gt;2106</title>
<path fill="none" stroke="#00ff00" stroke-width=".1203" d="M1351.7675,-170.9778C1344.903,-158.9884 1336.2939,-143.952 1328.7854,-130.8377"/>
<polygon fill="#00ff00" stroke="#00ff00" stroke-width=".1203" points="1331.804,-129.0659 1323.7979,-122.1267 1325.7293,-132.544 1331.804,-129.0659"/>
</g>
<!-- 1297&#45;&gt;left -->
<g id="edge35" class="edge">
<title>1297&#45;&gt;left</title>
<path fill="none" stroke="#00ff00" stroke-width=".238" stroke-dasharray="1,5" d="M633.9448,-464.2266C610.8684,-447.2925 576.2066,-421.5517 574.3278,-418.3574 544.0834,-366.9369 555.3278,-345.1394 555.3278,-285.4838 555.3278,-285.4838 555.3278,-285.4838 555.3278,-192.9153 555.3278,-127.8927 498.5366,-68.4163 465.1218,-39.0491"/>
<polygon fill="#00ff00" stroke="#00ff00" stroke-width=".238" points="467.0509,-36.0931 457.179,-32.2466 462.4975,-41.4098 467.0509,-36.0931"/>
</g>
<!-- 1297&#45;&gt;2106 -->
<g id="edge38" class="edge">
<title>1297&#45;&gt;2106</title>
<path fill="none" stroke="#ff0000" stroke-width=".4369" stroke-dasharray="1,5" d="M667.2512,-457.9653C684.9611,-430.1283 718.8728,-380.688 756.3278,-346.2325 917.6189,-197.8582 1183.0954,-128.2874 1277.0626,-107.3998"/>
<polygon fill="#ff0000" stroke="#ff0000" stroke-width=".4369" points="1277.869,-110.8062 1286.8927,-105.2544 1276.3764,-103.9672 1277.869,-110.8062"/>
</g>
<!-- 1297&#45;&gt;3005 -->
<g id="edge50" class="edge">
<title>1297&#45;&gt;3005</title>
<path fill="none" stroke="#00ff00" stroke-width=".238" d="M672.744,-462.3672C677.2274,-459.1567 682.2135,-456.2191 687.3278,-454.3574 824.7266,-404.3418 1212.1749,-480.9322 1344.3278,-418.3574 1348.6998,-416.2873 1352.7609,-413.3512 1356.4328,-410.0374"/>
<polygon fill="#00ff00" stroke="#00ff00" stroke-width=".238" points="1358.9447,-412.4746 1363.3981,-402.8612 1353.9217,-407.5992 1358.9447,-412.4746"/>
</g>
<!-- 5008 -->
<g id="node21" class="node">
<title>5008</title>
<ellipse fill="#ffffff" stroke="#000000" cx="1495.3278" cy="-479.1062" rx="25" ry="25"/>
<text text-anchor="middle" x="1495.3278" y="-476.9062" font-family="Times,serif" font-size="9.00" fill="#000000">5008</text>
</g>
<!-- 5008&#45;&gt;right -->
<g id="edge85" class="edge">
<title>5008&#45;&gt;right</title>
<path fill="none" stroke="#00ff00" stroke-width=".5089" d="M1511.1123,-459.515C1522.9394,-444.8355 1539.2452,-424.5973 1552.1967,-408.5223"/>
<polygon fill="#00ff00" stroke="#00ff00" stroke-width=".5089" points="1555.0737,-410.53 1558.6222,-400.5471 1549.6228,-406.1382 1555.0737,-410.53"/>
</g>
<!-- 4755&#45;&gt;1367 -->
<g id="edge82" class="edge">
<title>4755&#45;&gt;1367</title>
<path fill="none" stroke="#ff0000" stroke-width=".2957" d="M275.0703,-454.1749C274.9548,-442.9954 274.8165,-429.6117 274.6908,-417.4401"/>
<polygon fill="#ff0000" stroke="#ff0000" stroke-width=".2957" points="278.1876,-417.1051 274.5844,-407.1418 271.188,-417.1774 278.1876,-417.1051"/>
</g>
<!-- 3990&#45;&gt;none -->
<g id="edge69" class="edge">
<title>3990&#45;&gt;none</title>
<path fill="none" stroke="#ff0000" stroke-width=".1556" d="M624.6384,-363.5777C631.1081,-357.202 638.9925,-350.5916 647.3278,-346.2325 726.9412,-304.5978 833.9454,-291.434 888.003,-287.3199"/>
<polygon fill="#ff0000" stroke="#ff0000" stroke-width=".1556" points="888.3545,-290.804 898.0848,-286.612 887.8641,-283.8212 888.3545,-290.804"/>
</g>
<!-- 3736&#45;&gt;forward -->
<g id="edge60" class="edge">
<title>3736&#45;&gt;forward</title>
<path fill="none" stroke="#00ff00" stroke-width=".1536" stroke-dasharray="1,5" d="M145.5971,-265.8524C154.5534,-254.3375 166.1066,-239.4839 176.4473,-226.1892"/>
<polygon fill="#00ff00" stroke="#00ff00" stroke-width=".1536" points="179.3182,-228.1988 182.6951,-218.1565 173.7928,-223.9011 179.3182,-228.1988"/>
</g>
<!-- 29&#45;&gt;none -->
<g id="edge30" class="edge">
<title>29&#45;&gt;none</title>
<path fill="none" stroke="#00ff00" stroke-width=".2454" d="M1429.9752,-365.8215C1425.4539,-358.618 1419.1746,-350.7866 1411.3278,-346.2325 1372.0291,-323.4247 1061.1697,-296.6338 956.5505,-288.1793"/>
<polygon fill="#00ff00" stroke="#00ff00" stroke-width=".2454" points="956.7688,-284.6856 946.5207,-287.374 956.2085,-291.6632 956.7688,-284.6856"/>
</g>
<!-- 29&#45;&gt;2947 -->
<g id="edge97" class="edge">
<title>29&#45;&gt;2947</title>
<path fill="none" stroke="#00ff00" stroke-width=".3265" d="M1444.0137,-364.5383C1448.0858,-351.8212 1453.6932,-334.3097 1458.5956,-318.9997"/>
<polygon fill="#00ff00" stroke="#00ff00" stroke-width=".3265" points="1461.9758,-319.9203 1461.6922,-309.3293 1455.3093,-317.7855 1461.9758,-319.9203"/>
</g>
<!-- 4347 -->
<g id="node44" class="node">
<title>4347</title>
<ellipse fill="#ffffff" stroke="#000000" cx="1402.3278" cy="-285.4838" rx="25" ry="25"/>
<text text-anchor="middle" x="1402.3278" y="-283.2838" font-family="Times,serif" font-size="9.00" fill="#000000">4347</text>
</g>
<!-- 29&#45;&gt;4347 -->
<g id="edge79" class="edge">
<title>29&#45;&gt;4347</title>
<path fill="none" stroke="#ff0000" stroke-width=".8062" d="M1431.8917,-364.9871C1427.0682,-352.0157 1420.3234,-333.8777 1414.494,-318.2011"/>
<polygon fill="#ff0000" stroke="#ff0000" stroke-width=".8062" points="1417.774,-316.9796 1411.008,-308.8265 1411.2129,-319.4194 1417.774,-316.9796"/>
</g>
<!-- 3370 -->
<g id="node26" class="node">
<title>3370</title>
<ellipse fill="#ffffff" stroke="#000000" cx="903.3278" cy="-564.6036" rx="25" ry="25"/>
<text text-anchor="middle" x="903.3278" y="-562.4036" font-family="Times,serif" font-size="9.00" fill="#000000">3370</text>
</g>
<!-- 3370&#45;&gt;none -->
<g id="edge53" class="edge">
<title>3370&#45;&gt;none</title>
<path fill="none" stroke="#00ff00" stroke-width=".3146" stroke-dasharray="1,5" d="M905.0139,-539.8336C908.4097,-489.9475 916.0793,-377.2766 919.9696,-320.1261"/>
<polygon fill="#00ff00" stroke="#00ff00" stroke-width=".3146" points="923.4853,-320.0144 920.6726,-309.7998 916.5014,-319.539 923.4853,-320.0144"/>
</g>
<!-- 3370&#45;&gt;1297 -->
<g id="edge70" class="edge">
<title>3370&#45;&gt;1297</title>
<path fill="none" stroke="#00ff00" stroke-width=".261" d="M878.9344,-558.9431C829.9872,-547.3902 721.5553,-520.7626 687.3278,-503.8549 685.546,-502.9748 683.7628,-501.9946 681.9994,-500.9465"/>
<polygon fill="#00ff00" stroke="#00ff00" stroke-width=".261" points="683.7167,-497.8861 673.4454,-495.2878 679.8546,-503.7242 683.7167,-497.8861"/>
</g>
<!-- 3768&#45;&gt;none -->
<g id="edge65" class="edge">
<title>3768&#45;&gt;none</title>
<path fill="none" stroke="#00ff00" stroke-width=".6433" d="M1145.0227,-641.4609C1121.0714,-631.6837 1083.7833,-613.869 1058.3278,-589.3524 994.4257,-527.8073 989.287,-500.321 955.3278,-418.3574 941.9359,-386.0348 933.0342,-346.9535 927.8866,-319.5717"/>
<polygon fill="#00ff00" stroke="#00ff00" stroke-width=".6433" points="931.3228,-318.9045 926.096,-309.6887 924.435,-320.1525 931.3228,-318.9045"/>
</g>
<!-- 3768&#45;&gt;right -->
<g id="edge62" class="edge">
<title>3768&#45;&gt;right</title>
<path fill="none" stroke="#00ff00" stroke-width=".1125" stroke-dasharray="1,5" d="M1188.9913,-636.0491C1226.7293,-610.2959 1309.1932,-553.6046 1377.3278,-503.8549 1406.6537,-482.4421 1410.6068,-472.0294 1442.3278,-454.3574 1481.409,-432.585 1498.6435,-442.4671 1536.3278,-418.3574 1541.3619,-415.1367 1546.2818,-411.1498 1550.806,-407.0137"/>
<polygon fill="#00ff00" stroke="#00ff00" stroke-width=".1125" points="1553.2677,-409.5019 1557.9966,-400.0209 1548.3874,-404.4836 1553.2677,-409.5019"/>
</g>
<!-- 3768&#45;&gt;3788 -->
<g id="edge80" class="edge">
<title>3768&#45;&gt;3788</title>
<path fill="none" stroke="#00ff00" stroke-width=".295" d="M1143.5161,-648.4388C1075.7178,-643.5249 881.9499,-626.9909 725.3278,-589.3524 712.5362,-586.2784 698.8124,-581.7891 686.8729,-577.4753"/>
<polygon fill="#00ff00" stroke="#00ff00" stroke-width=".295" points="687.9159,-574.1291 677.323,-573.9279 685.4784,-580.691 687.9159,-574.1291"/>
</g>
<!-- 2618&#45;&gt;none -->
<g id="edge43" class="edge">
<title>2618&#45;&gt;none</title>
<path fill="none" stroke="#00ff00" stroke-width=".2325" d="M1295.8205,-361.8397C1290.6394,-355.9316 1284.3301,-350.0543 1277.3278,-346.2325 1222.1559,-316.1209 1034.6974,-295.8381 956.7557,-288.5175"/>
<polygon fill="#00ff00" stroke="#00ff00" stroke-width=".2325" points="956.7894,-285.0058 946.5098,-287.5709 956.1454,-291.9761 956.7894,-285.0058"/>
</g>
<!-- 2106&#45;&gt;left -->
<g id="edge39" class="edge">
<title>2106&#45;&gt;left</title>
<path fill="none" stroke="#ff0000" stroke-width=".1574" stroke-dasharray="1,5" d="M1287.0562,-95.4987C1258.34,-89.9269 1209.034,-80.8746 1166.3278,-75.598 897.9373,-42.4369 571.0588,-25.702 471.5111,-21.1228"/>
<polygon fill="#ff0000" stroke="#ff0000" stroke-width=".1574" points="471.4377,-17.616 461.2892,-20.6588 471.1202,-24.6088 471.4377,-17.616"/>
</g>
<!-- 5307 -->
<g id="node31" class="node">
<title>5307</title>
<ellipse fill="#ffffff" stroke="#000000" cx="721.3278" cy="-479.1062" rx="25" ry="25"/>
<text text-anchor="middle" x="721.3278" y="-476.9062" font-family="Times,serif" font-size="9.00" fill="#000000">5307</text>
</g>
<!-- 5307&#45;&gt;backward -->
<g id="edge94" class="edge">
<title>5307&#45;&gt;backward</title>
<path fill="none" stroke="#ff0000" stroke-width=".1659" d="M737.1332,-459.9794C747.0458,-447.9837 760.1338,-432.1455 771.9051,-417.9005"/>
<polygon fill="#ff0000" stroke="#ff0000" stroke-width=".1659" points="774.6087,-420.1233 778.2807,-410.1852 769.2126,-415.6643 774.6087,-420.1233"/>
</g>
<!-- 3005&#45;&gt;3600 -->
<g id="edge55" class="edge">
<title>3005&#45;&gt;3600</title>
<path fill="none" stroke="#ff0000" stroke-width=".4663" d="M1373.6942,-357.6707C1371.784,-343.7734 1369.5841,-326.0689 1368.3278,-310.2325 1366.1335,-282.5732 1365.1419,-251.1516 1364.6942,-227.7928"/>
<polygon fill="#ff0000" stroke="#ff0000" stroke-width=".4663" points="1368.1918,-227.6101 1364.5245,-217.6702 1361.1927,-227.7275 1368.1918,-227.6101"/>
</g>
<!-- 3005&#45;&gt;2106 -->
<g id="edge51" class="edge">
<title>3005&#45;&gt;2106</title>
<path fill="none" stroke="#00ff00" stroke-width=".4368" d="M1369.2088,-358.8077C1358.905,-328.2526 1341.1714,-273.0594 1330.3278,-224.7351 1323.6315,-194.8932 1318.5769,-160.4898 1315.3711,-135.4389"/>
<polygon fill="#00ff00" stroke="#00ff00" stroke-width=".4368" points="1318.8195,-134.8069 1314.1109,-125.3159 1311.8731,-135.6717 1318.8195,-134.8069"/>
</g>
<!-- 5328 -->
<g id="node36" class="node">
<title>5328</title>
<ellipse fill="#ffffff" stroke="#000000" cx="1258.3278" cy="-285.4838" rx="25" ry="25"/>
<text text-anchor="middle" x="1258.3278" y="-283.2838" font-family="Times,serif" font-size="9.00" fill="#000000">5328</text>
</g>
<!-- 3005&#45;&gt;5328 -->
<g id="edge95" class="edge">
<title>3005&#45;&gt;5328</title>
<path fill="none" stroke="#00ff00" stroke-width=".6568" d="M1361.2624,-363.2129C1356.0949,-357.5039 1350.1855,-351.3946 1344.3278,-346.2325 1326.6929,-330.6919 1305.0763,-315.4365 1287.9272,-304.1006"/>
<polygon fill="#00ff00" stroke="#00ff00" stroke-width=".6568" points="1289.6998,-301.0782 1279.4112,-298.5492 1285.8771,-306.9423 1289.6998,-301.0782"/>
</g>
<!-- 3005&#45;&gt;4347 -->
<g id="edge71" class="edge">
<title>3005&#45;&gt;4347</title>
<path fill="none" stroke="#00ff00" stroke-width=".2043" stroke-dasharray="1,5" d="M1383.6363,-357.8654C1386.6496,-346.1969 1390.305,-332.0415 1393.5812,-319.3545"/>
<polygon fill="#00ff00" stroke="#00ff00" stroke-width=".2043" points="1396.9963,-320.1277 1396.1079,-309.5702 1390.2186,-318.3774 1396.9963,-320.1277"/>
</g>
<!-- 4552&#45;&gt;right -->
<g id="edge78" class="edge">
<title>4552&#45;&gt;right</title>
<path fill="none" stroke="#00ff00" stroke-width=".6648" d="M1447.7736,-539.9508C1444.7456,-515.9521 1444.0275,-479.5172 1461.3278,-454.3574 1482.2773,-423.8906 1506.0227,-439.5402 1536.3278,-418.3574 1541.0147,-415.0814 1545.6618,-411.2006 1549.9982,-407.2195"/>
<polygon fill="#00ff00" stroke="#00ff00" stroke-width=".6648" points="1552.6531,-409.521 1557.4098,-400.054 1547.7876,-404.4884 1552.6531,-409.521"/>
</g>
<!-- 4552&#45;&gt;5008 -->
<g id="edge84" class="edge">
<title>4552&#45;&gt;5008</title>
<path fill="none" stroke="#ff0000" stroke-width=".1643" d="M1463.6255,-542.1402C1468.4645,-532.5188 1474.2011,-521.1126 1479.4554,-510.6655"/>
<polygon fill="#ff0000" stroke="#ff0000" stroke-width=".1643" points="1482.7391,-511.926 1484.1055,-501.4196 1476.4855,-508.7807 1482.7391,-511.926"/>
</g>
<!-- 4552&#45;&gt;3706 -->
<g id="edge92" class="edge">
<title>4552&#45;&gt;3706</title>
<path fill="none" stroke="#00ff00" stroke-width=".1393" d="M1427.4312,-563.8195C1370.552,-561.2405 1227.631,-550.2622 1119.3278,-503.8549 1117.2558,-502.9671 1115.1891,-501.9334 1113.1564,-500.802"/>
<polygon fill="#00ff00" stroke="#00ff00" stroke-width=".1393" points="1114.8761,-497.7485 1104.5528,-495.365 1111.1366,-503.6659 1114.8761,-497.7485"/>
</g>
<!-- 2890&#45;&gt;backward -->
<g id="edge48" class="edge">
<title>2890&#45;&gt;backward</title>
<path fill="none" stroke="#ff0000" stroke-width=".3648" stroke-dasharray="1,5" d="M764.9051,-540.3945C771.5056,-511.7437 782.6365,-463.4278 790.86,-427.7323"/>
<polygon fill="#ff0000" stroke="#ff0000" stroke-width=".3648" points="794.3687,-428.0921 793.2031,-417.5616 787.5474,-426.5205 794.3687,-428.0921"/>
</g>
<!-- 2890&#45;&gt;5307 -->
<g id="edge93" class="edge">
<title>2890&#45;&gt;5307</title>
<path fill="none" stroke="#ff0000" stroke-width=".4535" d="M749.1445,-541.6919C744.9795,-532.3208 740.0881,-521.3157 735.5783,-511.1688"/>
<polygon fill="#ff0000" stroke="#ff0000" stroke-width=".4535" points="738.6673,-509.5012 731.4074,-501.7847 732.2706,-512.3443 738.6673,-509.5012"/>
</g>
<!-- 3788&#45;&gt;1297 -->
<g id="edge64" class="edge">
<title>3788&#45;&gt;1297</title>
<path fill="none" stroke="#ff0000" stroke-width=".1226" d="M654.3278,-539.414C654.3278,-531.4998 654.3278,-522.6137 654.3278,-514.1451"/>
<polygon fill="#ff0000" stroke="#ff0000" stroke-width=".1226" points="657.8279,-514.1157 654.3278,-504.1158 650.8279,-514.1158 657.8279,-514.1157"/>
</g>
<!-- 5328&#45;&gt;2106 -->
<g id="edge96" class="edge">
<title>5328&#45;&gt;2106</title>
<path fill="none" stroke="#ff0000" stroke-width=".2011" d="M1265.1481,-261.6594C1274.4247,-229.2549 1291.0722,-171.1027 1301.6411,-134.1839"/>
<polygon fill="#ff0000" stroke="#ff0000" stroke-width=".2011" points="1305.0623,-134.9501 1304.4497,-124.3729 1298.3326,-133.0235 1305.0623,-134.9501"/>
</g>
<!-- 1367&#45;&gt;left -->
<g id="edge37" class="edge">
<title>1367&#45;&gt;left</title>
<path fill="none" stroke="#00ff00" stroke-width=".386" stroke-dasharray="1,5" d="M269.996,-357.8636C261.4861,-301.7648 248.6312,-161.9334 313.3278,-75.598 336.8651,-44.1883 381.8305,-30.1894 411.704,-24.1421"/>
<polygon fill="#00ff00" stroke="#00ff00" stroke-width=".386" points="412.3826,-27.5761 421.5813,-22.3192 411.1122,-20.6923 412.3826,-27.5761"/>
</g>
<!-- 2649&#45;&gt;3736 -->
<g id="edge73" class="edge">
<title>2649&#45;&gt;3736</title>
<path fill="none" stroke="#ff0000" stroke-width=".2908" stroke-dasharray="1,5" d="M130.3278,-357.3637C130.3278,-346.1842 130.3278,-332.8006 130.3278,-320.629"/>
<polygon fill="#ff0000" stroke="#ff0000" stroke-width=".2908" points="133.8279,-320.3306 130.3278,-310.3306 126.8279,-320.3306 133.8279,-320.3306"/>
</g>
<!-- 5230&#45;&gt;left -->
<g id="edge91" class="edge">
<title>5230&#45;&gt;left</title>
<path fill="none" stroke="#00ff00" stroke-width=".2337" d="M401.9766,-79.6037C408.9466,-69.0109 417.4815,-56.0397 424.8192,-44.8882"/>
<polygon fill="#00ff00" stroke="#00ff00" stroke-width=".2337" points="427.8214,-46.6929 430.3944,-36.4153 421.9737,-42.8452 427.8214,-46.6929"/>
</g>
<!-- 5108&#45;&gt;none -->
<g id="edge88" class="edge">
<title>5108&#45;&gt;none</title>
<path fill="none" stroke="#00ff00" stroke-width=".7008" stroke-dasharray="1,5" d="M1052.8484,-364.4722C1046.3776,-358.3328 1038.7936,-351.6459 1031.3278,-346.2325 1006.4666,-328.2059 975.7183,-311.5171 953.2247,-300.2114"/>
<polygon fill="#00ff00" stroke="#00ff00" stroke-width=".7008" points="954.6458,-297.0095 944.1312,-295.7075 951.5389,-303.2823 954.6458,-297.0095"/>
</g>
<!-- 4471&#45;&gt;3736 -->
<g id="edge86" class="edge">
<title>4471&#45;&gt;3736</title>
<path fill="none" stroke="#ff0000" stroke-width=".1932" d="M1123.3826,-361.7613C1118.1561,-355.6967 1111.6779,-349.7469 1104.3278,-346.2325 1018.2324,-305.0676 329.2594,-289.3069 165.2688,-286.1191"/>
<polygon fill="#ff0000" stroke="#ff0000" stroke-width=".1932" points="165.3033,-282.6192 155.2382,-285.9271 165.1694,-289.6179 165.3033,-282.6192"/>
</g>
<!-- 4471&#45;&gt;2106 -->
<g id="edge76" class="edge">
<title>4471&#45;&gt;2106</title>
<path fill="none" stroke="#00ff00" stroke-width=".1442" stroke-dasharray="1,5" d="M1150.1991,-360.8421C1174.0243,-321.214 1226.7304,-233.9305 1272.3278,-161.0955 1278.6924,-150.9289 1285.7488,-139.8736 1292.0903,-130.015"/>
<polygon fill="#00ff00" stroke="#00ff00" stroke-width=".1442" points="1295.1951,-131.6584 1297.6728,-121.3574 1289.3121,-127.865 1295.1951,-131.6584"/>
</g>
<!-- 4471&#45;&gt;5328 -->
<g id="edge98" class="edge">
<title>4471&#45;&gt;5328</title>
<path fill="none" stroke="#00ff00" stroke-width=".2617" d="M1156.7685,-366.7406C1176.8788,-350.6505 1208.449,-325.3914 1231.0516,-307.3073"/>
<polygon fill="#00ff00" stroke="#00ff00" stroke-width=".2617" points="1233.3135,-309.9799 1238.9353,-300.9996 1228.9403,-304.5141 1233.3135,-309.9799"/>
</g>
<!-- 3706&#45;&gt;none -->
<g id="edge83" class="edge">
<title>3706&#45;&gt;none</title>
<path fill="none" stroke="#ff0000" stroke-width=".3767" stroke-dasharray="1,5" d="M1064.5812,-465.1001C1043.648,-450.7308 1013.0676,-429.0175 1003.3278,-418.3574 988.0031,-401.5848 957.8528,-349.4991 938.9718,-315.74"/>
<polygon fill="#ff0000" stroke="#ff0000" stroke-width=".3767" points="941.8887,-313.784 933.9669,-306.7487 935.7725,-317.1886 941.8887,-313.784"/>
</g>
<!-- 3706&#45;&gt;backward -->
<g id="edge58" class="edge">
<title>3706&#45;&gt;backward</title>
<path fill="none" stroke="#ff0000" stroke-width=".2648" stroke-dasharray="1,5" d="M1064.8836,-464.628C1059.0707,-460.9334 1052.6085,-457.2058 1046.3278,-454.3574 979.6535,-424.1205 897.0601,-402.9089 846.8232,-391.6596"/>
<polygon fill="#ff0000" stroke="#ff0000" stroke-width=".2648" points="847.4356,-388.2107 836.9167,-389.4768 845.9293,-395.0467 847.4356,-388.2107"/>
</g>
<!-- 4347&#45;&gt;3600 -->
<g id="edge72" class="edge">
<title>4347&#45;&gt;3600</title>
<path fill="none" stroke="#ff0000" stroke-width=".2881" stroke-dasharray="1,5" d="M1392.7388,-262.1249C1388.1587,-250.9677 1382.6025,-237.4327 1377.6226,-225.3017"/>
<polygon fill="#ff0000" stroke="#ff0000" stroke-width=".2881" points="1380.8175,-223.8678 1373.7821,-215.9461 1374.3419,-226.5261 1380.8175,-223.8678"/>
</g>
</g>
</svg>
