<?xml version="1.0" encoding="utf-8" standalone="no"?>
<!DOCTYPE svg PUBLIC "-//W3C//DTD SVG 1.1//EN"
  "http://www.w3.org/Graphics/SVG/1.1/DTD/svg11.dtd">
<!-- Created with matplotlib (https://matplotlib.org/) -->
<svg height="345.6pt" version="1.1" viewBox="0 0 460.8 345.6" width="460.8pt" xmlns="http://www.w3.org/2000/svg" xmlns:xlink="http://www.w3.org/1999/xlink">
 <defs>
  <style type="text/css">
*{stroke-linecap:butt;stroke-linejoin:round;}
  </style>
 </defs>
 <g id="figure_1">
  <g id="patch_1">
   <path d="M 0 345.6 
L 460.8 345.6 
L 460.8 0 
L 0 0 
z
" style="fill:#ffffff;"/>
  </g>
  <g id="axes_1">
   <g id="patch_2">
    <path d="M 57.6 307.584 
L 414.72 307.584 
L 414.72 41.472 
L 57.6 41.472 
z
" style="fill:#ffffff;"/>
   </g>
   <g id="matplotlib.axis_1">
    <g id="xtick_1">
     <g id="line2d_1">
      <path clip-path="url(#pffb96cb6b8)" d="M 73.832727 307.584 
L 73.832727 41.472 
" style="fill:none;stroke:#b0b0b0;stroke-linecap:square;stroke-width:0.8;"/>
     </g>
     <g id="line2d_2">
      <defs>
       <path d="M 0 0 
L 0 3.5 
" id="madc9c2d014" style="stroke:#000000;stroke-width:0.8;"/>
      </defs>
      <g>
       <use style="stroke:#000000;stroke-width:0.8;" x="73.832727" xlink:href="#madc9c2d014" y="307.584"/>
      </g>
     </g>
     <g id="text_1">
      <!-- 0 -->
      <defs>
       <path d="M 31.78125 66.40625 
Q 24.171875 66.40625 20.328125 58.90625 
Q 16.5 51.421875 16.5 36.375 
Q 16.5 21.390625 20.328125 13.890625 
Q 24.171875 6.390625 31.78125 6.390625 
Q 39.453125 6.390625 43.28125 13.890625 
Q 47.125 21.390625 47.125 36.375 
Q 47.125 51.421875 43.28125 58.90625 
Q 39.453125 66.40625 31.78125 66.40625 
z
M 31.78125 74.21875 
Q 44.046875 74.21875 50.515625 64.515625 
Q 56.984375 54.828125 56.984375 36.375 
Q 56.984375 17.96875 50.515625 8.265625 
Q 44.046875 -1.421875 31.78125 -1.421875 
Q 19.53125 -1.421875 13.0625 8.265625 
Q 6.59375 17.96875 6.59375 36.375 
Q 6.59375 54.828125 13.0625 64.515625 
Q 19.53125 74.21875 31.78125 74.21875 
z
" id="DejaVuSans-48"/>
      </defs>
      <g transform="translate(70.651477 322.182437)scale(0.1 -0.1)">
       <use xlink:href="#DejaVuSans-48"/>
      </g>
     </g>
    </g>
    <g id="xtick_2">
     <g id="line2d_3">
      <path clip-path="url(#pffb96cb6b8)" d="M 138.828632 307.584 
L 138.828632 41.472 
" style="fill:none;stroke:#b0b0b0;stroke-linecap:square;stroke-width:0.8;"/>
     </g>
     <g id="line2d_4">
      <g>
       <use style="stroke:#000000;stroke-width:0.8;" x="138.828632" xlink:href="#madc9c2d014" y="307.584"/>
      </g>
     </g>
     <g id="text_2">
      <!-- 200 -->
      <defs>
       <path d="M 19.1875 8.296875 
L 53.609375 8.296875 
L 53.609375 0 
L 7.328125 0 
L 7.328125 8.296875 
Q 12.9375 14.109375 22.625 23.890625 
Q 32.328125 33.6875 34.8125 36.53125 
Q 39.546875 41.84375 41.421875 45.53125 
Q 43.3125 49.21875 43.3125 52.78125 
Q 43.3125 58.59375 39.234375 62.25 
Q 35.15625 65.921875 28.609375 65.921875 
Q 23.96875 65.921875 18.8125 64.3125 
Q 13.671875 62.703125 7.8125 59.421875 
L 7.8125 69.390625 
Q 13.765625 71.78125 18.9375 73 
Q 24.125 74.21875 28.421875 74.21875 
Q 39.75 74.21875 46.484375 68.546875 
Q 53.21875 62.890625 53.21875 53.421875 
Q 53.21875 48.921875 51.53125 44.890625 
Q 49.859375 40.875 45.40625 35.40625 
Q 44.1875 33.984375 37.640625 27.21875 
Q 31.109375 20.453125 19.1875 8.296875 
z
" id="DejaVuSans-50"/>
      </defs>
      <g transform="translate(129.284882 322.182437)scale(0.1 -0.1)">
       <use xlink:href="#DejaVuSans-50"/>
       <use x="63.623047" xlink:href="#DejaVuSans-48"/>
       <use x="127.246094" xlink:href="#DejaVuSans-48"/>
      </g>
     </g>
    </g>
    <g id="xtick_3">
     <g id="line2d_5">
      <path clip-path="url(#pffb96cb6b8)" d="M 203.824537 307.584 
L 203.824537 41.472 
" style="fill:none;stroke:#b0b0b0;stroke-linecap:square;stroke-width:0.8;"/>
     </g>
     <g id="line2d_6">
      <g>
       <use style="stroke:#000000;stroke-width:0.8;" x="203.824537" xlink:href="#madc9c2d014" y="307.584"/>
      </g>
     </g>
     <g id="text_3">
      <!-- 400 -->
      <defs>
       <path d="M 37.796875 64.3125 
L 12.890625 25.390625 
L 37.796875 25.390625 
z
M 35.203125 72.90625 
L 47.609375 72.90625 
L 47.609375 25.390625 
L 58.015625 25.390625 
L 58.015625 17.1875 
L 47.609375 17.1875 
L 47.609375 0 
L 37.796875 0 
L 37.796875 17.1875 
L 4.890625 17.1875 
L 4.890625 26.703125 
z
" id="DejaVuSans-52"/>
      </defs>
      <g transform="translate(194.280787 322.182437)scale(0.1 -0.1)">
       <use xlink:href="#DejaVuSans-52"/>
       <use x="63.623047" xlink:href="#DejaVuSans-48"/>
       <use x="127.246094" xlink:href="#DejaVuSans-48"/>
      </g>
     </g>
    </g>
    <g id="xtick_4">
     <g id="line2d_7">
      <path clip-path="url(#pffb96cb6b8)" d="M 268.820442 307.584 
L 268.820442 41.472 
" style="fill:none;stroke:#b0b0b0;stroke-linecap:square;stroke-width:0.8;"/>
     </g>
     <g id="line2d_8">
      <g>
       <use style="stroke:#000000;stroke-width:0.8;" x="268.820442" xlink:href="#madc9c2d014" y="307.584"/>
      </g>
     </g>
     <g id="text_4">
      <!-- 600 -->
      <defs>
       <path d="M 33.015625 40.375 
Q 26.375 40.375 22.484375 35.828125 
Q 18.609375 31.296875 18.609375 23.390625 
Q 18.609375 15.53125 22.484375 10.953125 
Q 26.375 6.390625 33.015625 6.390625 
Q 39.65625 6.390625 43.53125 10.953125 
Q 47.40625 15.53125 47.40625 23.390625 
Q 47.40625 31.296875 43.53125 35.828125 
Q 39.65625 40.375 33.015625 40.375 
z
M 52.59375 71.296875 
L 52.59375 62.3125 
Q 48.875 64.0625 45.09375 64.984375 
Q 41.3125 65.921875 37.59375 65.921875 
Q 27.828125 65.921875 22.671875 59.328125 
Q 17.53125 52.734375 16.796875 39.40625 
Q 19.671875 43.65625 24.015625 45.921875 
Q 28.375 48.1875 33.59375 48.1875 
Q 44.578125 48.1875 50.953125 41.515625 
Q 57.328125 34.859375 57.328125 23.390625 
Q 57.328125 12.15625 50.6875 5.359375 
Q 44.046875 -1.421875 33.015625 -1.421875 
Q 20.359375 -1.421875 13.671875 8.265625 
Q 6.984375 17.96875 6.984375 36.375 
Q 6.984375 53.65625 15.1875 63.9375 
Q 23.390625 74.21875 37.203125 74.21875 
Q 40.921875 74.21875 44.703125 73.484375 
Q 48.484375 72.75 52.59375 71.296875 
z
" id="DejaVuSans-54"/>
      </defs>
      <g transform="translate(259.276692 322.182437)scale(0.1 -0.1)">
       <use xlink:href="#DejaVuSans-54"/>
       <use x="63.623047" xlink:href="#DejaVuSans-48"/>
       <use x="127.246094" xlink:href="#DejaVuSans-48"/>
      </g>
     </g>
    </g>
    <g id="xtick_5">
     <g id="line2d_9">
      <path clip-path="url(#pffb96cb6b8)" d="M 333.816347 307.584 
L 333.816347 41.472 
" style="fill:none;stroke:#b0b0b0;stroke-linecap:square;stroke-width:0.8;"/>
     </g>
     <g id="line2d_10">
      <g>
       <use style="stroke:#000000;stroke-width:0.8;" x="333.816347" xlink:href="#madc9c2d014" y="307.584"/>
      </g>
     </g>
     <g id="text_5">
      <!-- 800 -->
      <defs>
       <path d="M 31.78125 34.625 
Q 24.75 34.625 20.71875 30.859375 
Q 16.703125 27.09375 16.703125 20.515625 
Q 16.703125 13.921875 20.71875 10.15625 
Q 24.75 6.390625 31.78125 6.390625 
Q 38.8125 6.390625 42.859375 10.171875 
Q 46.921875 13.96875 46.921875 20.515625 
Q 46.921875 27.09375 42.890625 30.859375 
Q 38.875 34.625 31.78125 34.625 
z
M 21.921875 38.8125 
Q 15.578125 40.375 12.03125 44.71875 
Q 8.5 49.078125 8.5 55.328125 
Q 8.5 64.0625 14.71875 69.140625 
Q 20.953125 74.21875 31.78125 74.21875 
Q 42.671875 74.21875 48.875 69.140625 
Q 55.078125 64.0625 55.078125 55.328125 
Q 55.078125 49.078125 51.53125 44.71875 
Q 48 40.375 41.703125 38.8125 
Q 48.828125 37.15625 52.796875 32.3125 
Q 56.78125 27.484375 56.78125 20.515625 
Q 56.78125 9.90625 50.3125 4.234375 
Q 43.84375 -1.421875 31.78125 -1.421875 
Q 19.734375 -1.421875 13.25 4.234375 
Q 6.78125 9.90625 6.78125 20.515625 
Q 6.78125 27.484375 10.78125 32.3125 
Q 14.796875 37.15625 21.921875 38.8125 
z
M 18.3125 54.390625 
Q 18.3125 48.734375 21.84375 45.5625 
Q 25.390625 42.390625 31.78125 42.390625 
Q 38.140625 42.390625 41.71875 45.5625 
Q 45.3125 48.734375 45.3125 54.390625 
Q 45.3125 60.0625 41.71875 63.234375 
Q 38.140625 66.40625 31.78125 66.40625 
Q 25.390625 66.40625 21.84375 63.234375 
Q 18.3125 60.0625 18.3125 54.390625 
z
" id="DejaVuSans-56"/>
      </defs>
      <g transform="translate(324.272597 322.182437)scale(0.1 -0.1)">
       <use xlink:href="#DejaVuSans-56"/>
       <use x="63.623047" xlink:href="#DejaVuSans-48"/>
       <use x="127.246094" xlink:href="#DejaVuSans-48"/>
      </g>
     </g>
    </g>
    <g id="xtick_6">
     <g id="line2d_11">
      <path clip-path="url(#pffb96cb6b8)" d="M 398.812252 307.584 
L 398.812252 41.472 
" style="fill:none;stroke:#b0b0b0;stroke-linecap:square;stroke-width:0.8;"/>
     </g>
     <g id="line2d_12">
      <g>
       <use style="stroke:#000000;stroke-width:0.8;" x="398.812252" xlink:href="#madc9c2d014" y="307.584"/>
      </g>
     </g>
     <g id="text_6">
      <!-- 1000 -->
      <defs>
       <path d="M 12.40625 8.296875 
L 28.515625 8.296875 
L 28.515625 63.921875 
L 10.984375 60.40625 
L 10.984375 69.390625 
L 28.421875 72.90625 
L 38.28125 72.90625 
L 38.28125 8.296875 
L 54.390625 8.296875 
L 54.390625 0 
L 12.40625 0 
z
" id="DejaVuSans-49"/>
      </defs>
      <g transform="translate(386.087252 322.182437)scale(0.1 -0.1)">
       <use xlink:href="#DejaVuSans-49"/>
       <use x="63.623047" xlink:href="#DejaVuSans-48"/>
       <use x="127.246094" xlink:href="#DejaVuSans-48"/>
       <use x="190.869141" xlink:href="#DejaVuSans-48"/>
      </g>
     </g>
    </g>
    <g id="text_7">
     <!-- Generations -->
     <defs>
      <path d="M 59.515625 10.40625 
L 59.515625 29.984375 
L 43.40625 29.984375 
L 43.40625 38.09375 
L 69.28125 38.09375 
L 69.28125 6.78125 
Q 63.578125 2.734375 56.6875 0.65625 
Q 49.8125 -1.421875 42 -1.421875 
Q 24.90625 -1.421875 15.25 8.5625 
Q 5.609375 18.5625 5.609375 36.375 
Q 5.609375 54.25 15.25 64.234375 
Q 24.90625 74.21875 42 74.21875 
Q 49.125 74.21875 55.546875 72.453125 
Q 61.96875 70.703125 67.390625 67.28125 
L 67.390625 56.78125 
Q 61.921875 61.421875 55.765625 63.765625 
Q 49.609375 66.109375 42.828125 66.109375 
Q 29.4375 66.109375 22.71875 58.640625 
Q 16.015625 51.171875 16.015625 36.375 
Q 16.015625 21.625 22.71875 14.15625 
Q 29.4375 6.6875 42.828125 6.6875 
Q 48.046875 6.6875 52.140625 7.59375 
Q 56.25 8.5 59.515625 10.40625 
z
" id="DejaVuSans-71"/>
      <path d="M 56.203125 29.59375 
L 56.203125 25.203125 
L 14.890625 25.203125 
Q 15.484375 15.921875 20.484375 11.0625 
Q 25.484375 6.203125 34.421875 6.203125 
Q 39.59375 6.203125 44.453125 7.46875 
Q 49.3125 8.734375 54.109375 11.28125 
L 54.109375 2.78125 
Q 49.265625 0.734375 44.1875 -0.34375 
Q 39.109375 -1.421875 33.890625 -1.421875 
Q 20.796875 -1.421875 13.15625 6.1875 
Q 5.515625 13.8125 5.515625 26.8125 
Q 5.515625 40.234375 12.765625 48.109375 
Q 20.015625 56 32.328125 56 
Q 43.359375 56 49.78125 48.890625 
Q 56.203125 41.796875 56.203125 29.59375 
z
M 47.21875 32.234375 
Q 47.125 39.59375 43.09375 43.984375 
Q 39.0625 48.390625 32.421875 48.390625 
Q 24.90625 48.390625 20.390625 44.140625 
Q 15.875 39.890625 15.1875 32.171875 
z
" id="DejaVuSans-101"/>
      <path d="M 54.890625 33.015625 
L 54.890625 0 
L 45.90625 0 
L 45.90625 32.71875 
Q 45.90625 40.484375 42.875 44.328125 
Q 39.84375 48.1875 33.796875 48.1875 
Q 26.515625 48.1875 22.3125 43.546875 
Q 18.109375 38.921875 18.109375 30.90625 
L 18.109375 0 
L 9.078125 0 
L 9.078125 54.6875 
L 18.109375 54.6875 
L 18.109375 46.1875 
Q 21.34375 51.125 25.703125 53.5625 
Q 30.078125 56 35.796875 56 
Q 45.21875 56 50.046875 50.171875 
Q 54.890625 44.34375 54.890625 33.015625 
z
" id="DejaVuSans-110"/>
      <path d="M 41.109375 46.296875 
Q 39.59375 47.171875 37.8125 47.578125 
Q 36.03125 48 33.890625 48 
Q 26.265625 48 22.1875 43.046875 
Q 18.109375 38.09375 18.109375 28.8125 
L 18.109375 0 
L 9.078125 0 
L 9.078125 54.6875 
L 18.109375 54.6875 
L 18.109375 46.1875 
Q 20.953125 51.171875 25.484375 53.578125 
Q 30.03125 56 36.53125 56 
Q 37.453125 56 38.578125 55.875 
Q 39.703125 55.765625 41.0625 55.515625 
z
" id="DejaVuSans-114"/>
      <path d="M 34.28125 27.484375 
Q 23.390625 27.484375 19.1875 25 
Q 14.984375 22.515625 14.984375 16.5 
Q 14.984375 11.71875 18.140625 8.90625 
Q 21.296875 6.109375 26.703125 6.109375 
Q 34.1875 6.109375 38.703125 11.40625 
Q 43.21875 16.703125 43.21875 25.484375 
L 43.21875 27.484375 
z
M 52.203125 31.203125 
L 52.203125 0 
L 43.21875 0 
L 43.21875 8.296875 
Q 40.140625 3.328125 35.546875 0.953125 
Q 30.953125 -1.421875 24.3125 -1.421875 
Q 15.921875 -1.421875 10.953125 3.296875 
Q 6 8.015625 6 15.921875 
Q 6 25.140625 12.171875 29.828125 
Q 18.359375 34.515625 30.609375 34.515625 
L 43.21875 34.515625 
L 43.21875 35.40625 
Q 43.21875 41.609375 39.140625 45 
Q 35.0625 48.390625 27.6875 48.390625 
Q 23 48.390625 18.546875 47.265625 
Q 14.109375 46.140625 10.015625 43.890625 
L 10.015625 52.203125 
Q 14.9375 54.109375 19.578125 55.046875 
Q 24.21875 56 28.609375 56 
Q 40.484375 56 46.34375 49.84375 
Q 52.203125 43.703125 52.203125 31.203125 
z
" id="DejaVuSans-97"/>
      <path d="M 18.3125 70.21875 
L 18.3125 54.6875 
L 36.8125 54.6875 
L 36.8125 47.703125 
L 18.3125 47.703125 
L 18.3125 18.015625 
Q 18.3125 11.328125 20.140625 9.421875 
Q 21.96875 7.515625 27.59375 7.515625 
L 36.8125 7.515625 
L 36.8125 0 
L 27.59375 0 
Q 17.1875 0 13.234375 3.875 
Q 9.28125 7.765625 9.28125 18.015625 
L 9.28125 47.703125 
L 2.6875 47.703125 
L 2.6875 54.6875 
L 9.28125 54.6875 
L 9.28125 70.21875 
z
" id="DejaVuSans-116"/>
      <path d="M 9.421875 54.6875 
L 18.40625 54.6875 
L 18.40625 0 
L 9.421875 0 
z
M 9.421875 75.984375 
L 18.40625 75.984375 
L 18.40625 64.59375 
L 9.421875 64.59375 
z
" id="DejaVuSans-105"/>
      <path d="M 30.609375 48.390625 
Q 23.390625 48.390625 19.1875 42.75 
Q 14.984375 37.109375 14.984375 27.296875 
Q 14.984375 17.484375 19.15625 11.84375 
Q 23.34375 6.203125 30.609375 6.203125 
Q 37.796875 6.203125 41.984375 11.859375 
Q 46.1875 17.53125 46.1875 27.296875 
Q 46.1875 37.015625 41.984375 42.703125 
Q 37.796875 48.390625 30.609375 48.390625 
z
M 30.609375 56 
Q 42.328125 56 49.015625 48.375 
Q 55.71875 40.765625 55.71875 27.296875 
Q 55.71875 13.875 49.015625 6.21875 
Q 42.328125 -1.421875 30.609375 -1.421875 
Q 18.84375 -1.421875 12.171875 6.21875 
Q 5.515625 13.875 5.515625 27.296875 
Q 5.515625 40.765625 12.171875 48.375 
Q 18.84375 56 30.609375 56 
z
" id="DejaVuSans-111"/>
      <path d="M 44.28125 53.078125 
L 44.28125 44.578125 
Q 40.484375 46.53125 36.375 47.5 
Q 32.28125 48.484375 27.875 48.484375 
Q 21.1875 48.484375 17.84375 46.4375 
Q 14.5 44.390625 14.5 40.28125 
Q 14.5 37.15625 16.890625 35.375 
Q 19.28125 33.59375 26.515625 31.984375 
L 29.59375 31.296875 
Q 39.15625 29.25 43.1875 25.515625 
Q 47.21875 21.78125 47.21875 15.09375 
Q 47.21875 7.46875 41.1875 3.015625 
Q 35.15625 -1.421875 24.609375 -1.421875 
Q 20.21875 -1.421875 15.453125 -0.5625 
Q 10.6875 0.296875 5.421875 2 
L 5.421875 11.28125 
Q 10.40625 8.6875 15.234375 7.390625 
Q 20.0625 6.109375 24.8125 6.109375 
Q 31.15625 6.109375 34.5625 8.28125 
Q 37.984375 10.453125 37.984375 14.40625 
Q 37.984375 18.0625 35.515625 20.015625 
Q 33.0625 21.96875 24.703125 23.78125 
L 21.578125 24.515625 
Q 13.234375 26.265625 9.515625 29.90625 
Q 5.8125 33.546875 5.8125 39.890625 
Q 5.8125 47.609375 11.28125 51.796875 
Q 16.75 56 26.8125 56 
Q 31.78125 56 36.171875 55.265625 
Q 40.578125 54.546875 44.28125 53.078125 
z
" id="DejaVuSans-115"/>
     </defs>
     <g transform="translate(205.662344 335.860562)scale(0.1 -0.1)">
      <use xlink:href="#DejaVuSans-71"/>
      <use x="77.490234" xlink:href="#DejaVuSans-101"/>
      <use x="139.013672" xlink:href="#DejaVuSans-110"/>
      <use x="202.392578" xlink:href="#DejaVuSans-101"/>
      <use x="263.916016" xlink:href="#DejaVuSans-114"/>
      <use x="305.029297" xlink:href="#DejaVuSans-97"/>
      <use x="366.308594" xlink:href="#DejaVuSans-116"/>
      <use x="405.517578" xlink:href="#DejaVuSans-105"/>
      <use x="433.300781" xlink:href="#DejaVuSans-111"/>
      <use x="494.482422" xlink:href="#DejaVuSans-110"/>
      <use x="557.861328" xlink:href="#DejaVuSans-115"/>
     </g>
    </g>
   </g>
   <g id="matplotlib.axis_2">
    <g id="ytick_1">
     <g id="line2d_13">
      <path clip-path="url(#pffb96cb6b8)" d="M 57.6 282.827573 
L 414.72 282.827573 
" style="fill:none;stroke:#b0b0b0;stroke-linecap:square;stroke-width:0.8;"/>
     </g>
     <g id="line2d_14">
      <defs>
       <path d="M 0 0 
L -3.5 0 
" id="m1211103f9e" style="stroke:#000000;stroke-width:0.8;"/>
      </defs>
      <g>
       <use style="stroke:#000000;stroke-width:0.8;" x="57.6" xlink:href="#m1211103f9e" y="282.827573"/>
      </g>
     </g>
     <g id="text_8">
      <!-- $\mathdefault{-10^{2}}$ -->
      <defs>
       <path d="M 10.59375 35.5 
L 73.1875 35.5 
L 73.1875 27.203125 
L 10.59375 27.203125 
z
" id="DejaVuSans-8722"/>
      </defs>
      <g transform="translate(24.6 286.626792)scale(0.1 -0.1)">
       <use transform="translate(0 0.765625)" xlink:href="#DejaVuSans-8722"/>
       <use transform="translate(83.789062 0.765625)" xlink:href="#DejaVuSans-49"/>
       <use transform="translate(147.412109 0.765625)" xlink:href="#DejaVuSans-48"/>
       <use transform="translate(211.992188 39.046875)scale(0.7)" xlink:href="#DejaVuSans-50"/>
      </g>
     </g>
    </g>
    <g id="ytick_2">
     <g id="line2d_15">
      <path clip-path="url(#pffb96cb6b8)" d="M 57.6 248.196437 
L 414.72 248.196437 
" style="fill:none;stroke:#b0b0b0;stroke-linecap:square;stroke-width:0.8;"/>
     </g>
     <g id="line2d_16">
      <g>
       <use style="stroke:#000000;stroke-width:0.8;" x="57.6" xlink:href="#m1211103f9e" y="248.196437"/>
      </g>
     </g>
     <g id="text_9">
      <!-- $\mathdefault{-10^{1}}$ -->
      <g transform="translate(24.6 251.995656)scale(0.1 -0.1)">
       <use transform="translate(0 0.684375)" xlink:href="#DejaVuSans-8722"/>
       <use transform="translate(83.789062 0.684375)" xlink:href="#DejaVuSans-49"/>
       <use transform="translate(147.412109 0.684375)" xlink:href="#DejaVuSans-48"/>
       <use transform="translate(211.992188 38.965625)scale(0.7)" xlink:href="#DejaVuSans-49"/>
      </g>
     </g>
    </g>
    <g id="ytick_3">
     <g id="line2d_17">
      <path clip-path="url(#pffb96cb6b8)" d="M 57.6 204.750791 
L 414.72 204.750791 
" style="fill:none;stroke:#b0b0b0;stroke-linecap:square;stroke-width:0.8;"/>
     </g>
     <g id="line2d_18">
      <g>
       <use style="stroke:#000000;stroke-width:0.8;" x="57.6" xlink:href="#m1211103f9e" y="204.750791"/>
      </g>
     </g>
     <g id="text_10">
      <!-- $\mathdefault{-10^{0}}$ -->
      <g transform="translate(24.6 208.55001)scale(0.1 -0.1)">
       <use transform="translate(0 0.765625)" xlink:href="#DejaVuSans-8722"/>
       <use transform="translate(83.789062 0.765625)" xlink:href="#DejaVuSans-49"/>
       <use transform="translate(147.412109 0.765625)" xlink:href="#DejaVuSans-48"/>
       <use transform="translate(211.992188 39.046875)scale(0.7)" xlink:href="#DejaVuSans-48"/>
      </g>
     </g>
    </g>
    <g id="ytick_4">
     <g id="line2d_19">
      <path clip-path="url(#pffb96cb6b8)" d="M 57.6 185.511271 
L 414.72 185.511271 
" style="fill:none;stroke:#b0b0b0;stroke-linecap:square;stroke-width:0.8;"/>
     </g>
     <g id="line2d_20">
      <g>
       <use style="stroke:#000000;stroke-width:0.8;" x="57.6" xlink:href="#m1211103f9e" y="185.511271"/>
      </g>
     </g>
     <g id="text_11">
      <!-- $\mathdefault{0}$ -->
      <g transform="translate(44.2 189.31049)scale(0.1 -0.1)">
       <use transform="translate(0 0.78125)" xlink:href="#DejaVuSans-48"/>
      </g>
     </g>
    </g>
    <g id="ytick_5">
     <g id="line2d_21">
      <path clip-path="url(#pffb96cb6b8)" d="M 57.6 166.271751 
L 414.72 166.271751 
" style="fill:none;stroke:#b0b0b0;stroke-linecap:square;stroke-width:0.8;"/>
     </g>
     <g id="line2d_22">
      <g>
       <use style="stroke:#000000;stroke-width:0.8;" x="57.6" xlink:href="#m1211103f9e" y="166.271751"/>
      </g>
     </g>
     <g id="text_12">
      <!-- $\mathdefault{10^{0}}$ -->
      <g transform="translate(33 170.07097)scale(0.1 -0.1)">
       <use transform="translate(0 0.765625)" xlink:href="#DejaVuSans-49"/>
       <use transform="translate(63.623047 0.765625)" xlink:href="#DejaVuSans-48"/>
       <use transform="translate(128.203125 39.046875)scale(0.7)" xlink:href="#DejaVuSans-48"/>
      </g>
     </g>
    </g>
    <g id="ytick_6">
     <g id="line2d_23">
      <path clip-path="url(#pffb96cb6b8)" d="M 57.6 122.826105 
L 414.72 122.826105 
" style="fill:none;stroke:#b0b0b0;stroke-linecap:square;stroke-width:0.8;"/>
     </g>
     <g id="line2d_24">
      <g>
       <use style="stroke:#000000;stroke-width:0.8;" x="57.6" xlink:href="#m1211103f9e" y="122.826105"/>
      </g>
     </g>
     <g id="text_13">
      <!-- $\mathdefault{10^{1}}$ -->
      <g transform="translate(33 126.625324)scale(0.1 -0.1)">
       <use transform="translate(0 0.684375)" xlink:href="#DejaVuSans-49"/>
       <use transform="translate(63.623047 0.684375)" xlink:href="#DejaVuSans-48"/>
       <use transform="translate(128.203125 38.965625)scale(0.7)" xlink:href="#DejaVuSans-49"/>
      </g>
     </g>
    </g>
    <g id="ytick_7">
     <g id="line2d_25">
      <path clip-path="url(#pffb96cb6b8)" d="M 57.6 88.194969 
L 414.72 88.194969 
" style="fill:none;stroke:#b0b0b0;stroke-linecap:square;stroke-width:0.8;"/>
     </g>
     <g id="line2d_26">
      <g>
       <use style="stroke:#000000;stroke-width:0.8;" x="57.6" xlink:href="#m1211103f9e" y="88.194969"/>
      </g>
     </g>
     <g id="text_14">
      <!-- $\mathdefault{10^{2}}$ -->
      <g transform="translate(33 91.994188)scale(0.1 -0.1)">
       <use transform="translate(0 0.765625)" xlink:href="#DejaVuSans-49"/>
       <use transform="translate(63.623047 0.765625)" xlink:href="#DejaVuSans-48"/>
       <use transform="translate(128.203125 39.046875)scale(0.7)" xlink:href="#DejaVuSans-50"/>
      </g>
     </g>
    </g>
    <g id="ytick_8">
     <g id="line2d_27">
      <path clip-path="url(#pffb96cb6b8)" d="M 57.6 53.563833 
L 414.72 53.563833 
" style="fill:none;stroke:#b0b0b0;stroke-linecap:square;stroke-width:0.8;"/>
     </g>
     <g id="line2d_28">
      <g>
       <use style="stroke:#000000;stroke-width:0.8;" x="57.6" xlink:href="#m1211103f9e" y="53.563833"/>
      </g>
     </g>
     <g id="text_15">
      <!-- $\mathdefault{10^{3}}$ -->
      <defs>
       <path d="M 40.578125 39.3125 
Q 47.65625 37.796875 51.625 33 
Q 55.609375 28.21875 55.609375 21.1875 
Q 55.609375 10.40625 48.1875 4.484375 
Q 40.765625 -1.421875 27.09375 -1.421875 
Q 22.515625 -1.421875 17.65625 -0.515625 
Q 12.796875 0.390625 7.625 2.203125 
L 7.625 11.71875 
Q 11.71875 9.328125 16.59375 8.109375 
Q 21.484375 6.890625 26.8125 6.890625 
Q 36.078125 6.890625 40.9375 10.546875 
Q 45.796875 14.203125 45.796875 21.1875 
Q 45.796875 27.640625 41.28125 31.265625 
Q 36.765625 34.90625 28.71875 34.90625 
L 20.21875 34.90625 
L 20.21875 43.015625 
L 29.109375 43.015625 
Q 36.375 43.015625 40.234375 45.921875 
Q 44.09375 48.828125 44.09375 54.296875 
Q 44.09375 59.90625 40.109375 62.90625 
Q 36.140625 65.921875 28.71875 65.921875 
Q 24.65625 65.921875 20.015625 65.03125 
Q 15.375 64.15625 9.8125 62.3125 
L 9.8125 71.09375 
Q 15.4375 72.65625 20.34375 73.4375 
Q 25.25 74.21875 29.59375 74.21875 
Q 40.828125 74.21875 47.359375 69.109375 
Q 53.90625 64.015625 53.90625 55.328125 
Q 53.90625 49.265625 50.4375 45.09375 
Q 46.96875 40.921875 40.578125 39.3125 
z
" id="DejaVuSans-51"/>
      </defs>
      <g transform="translate(33 57.363052)scale(0.1 -0.1)">
       <use transform="translate(0 0.765625)" xlink:href="#DejaVuSans-49"/>
       <use transform="translate(63.623047 0.765625)" xlink:href="#DejaVuSans-48"/>
       <use transform="translate(128.203125 39.046875)scale(0.7)" xlink:href="#DejaVuSans-51"/>
      </g>
     </g>
    </g>
    <g id="text_16">
     <!-- Fitness -->
     <defs>
      <path d="M 9.8125 72.90625 
L 51.703125 72.90625 
L 51.703125 64.59375 
L 19.671875 64.59375 
L 19.671875 43.109375 
L 48.578125 43.109375 
L 48.578125 34.8125 
L 19.671875 34.8125 
L 19.671875 0 
L 9.8125 0 
z
" id="DejaVuSans-70"/>
     </defs>
     <g transform="translate(18.520312 192.202219)rotate(-90)scale(0.1 -0.1)">
      <use xlink:href="#DejaVuSans-70"/>
      <use x="57.410156" xlink:href="#DejaVuSans-105"/>
      <use x="85.193359" xlink:href="#DejaVuSans-116"/>
      <use x="124.402344" xlink:href="#DejaVuSans-110"/>
      <use x="187.78125" xlink:href="#DejaVuSans-101"/>
      <use x="249.304688" xlink:href="#DejaVuSans-115"/>
      <use x="301.404297" xlink:href="#DejaVuSans-115"/>
     </g>
    </g>
   </g>
   <g id="line2d_29">
    <path clip-path="url(#pffb96cb6b8)" d="M 73.832727 295.488 
L 74.482686 285.233112 
L 74.807666 278.407376 
L 75.457625 255.856149 
L 75.782604 277.121194 
L 76.107584 257.795768 
L 76.432563 264.891058 
L 76.757543 277.191103 
L 77.082523 276.2072 
L 77.407502 278.801474 
L 77.732482 276.334466 
L 78.057461 279.51394 
L 78.382441 285.269583 
L 79.0324 276.980272 
L 79.357379 283.015427 
L 79.682359 280.934622 
L 80.007338 281.10325 
L 80.332318 278.422917 
L 80.657297 273.201844 
L 80.982277 269.813578 
L 81.307256 271.21992 
L 81.632236 270.619805 
L 81.957215 274.505672 
L 82.282195 264.838811 
L 82.607174 267.200144 
L 82.932154 271.14627 
L 83.257133 267.150788 
L 83.582113 273.92256 
L 83.907093 278.030302 
L 84.232072 263.63961 
L 84.557052 281.154663 
L 84.882031 288.543304 
L 85.207011 281.182895 
L 85.53199 267.280774 
L 85.85697 277.053932 
L 86.506929 281.101345 
L 86.831908 281.183329 
L 87.156888 283.641807 
L 87.481867 287.258221 
L 87.806847 282.083569 
L 88.131826 282.794892 
L 88.456806 285.676427 
L 89.106765 273.463345 
L 89.431744 264.977012 
L 89.756724 277.427526 
L 90.081704 279.174833 
L 90.406683 269.589527 
L 90.731663 281.875598 
L 91.056642 267.529866 
L 91.381622 283.499771 
L 91.706601 283.65152 
L 92.031581 282.961564 
L 92.35656 282.770199 
L 92.68154 283.393154 
L 93.331499 282.241475 
L 93.656478 276.080428 
L 93.981458 279.874013 
L 94.306437 281.897393 
L 94.631417 281.359547 
L 94.956396 282.694956 
L 95.606355 276.969588 
L 95.931335 289.03033 
L 96.256314 271.930303 
L 96.581294 279.874001 
L 97.231253 275.919702 
L 97.556233 269.36558 
L 97.881212 279.87304 
L 98.206192 277.669993 
L 98.531171 274.405465 
L 99.18113 278.366534 
L 99.50611 274.144543 
L 100.156069 259.754877 
L 100.481048 261.177671 
L 100.806028 267.577721 
L 101.131007 159.897832 
L 101.455987 270.811215 
L 101.780966 274.783417 
L 102.105946 268.796593 
L 102.430925 280.440032 
L 102.755905 284.163781 
L 103.405864 274.657529 
L 103.730844 277.851636 
L 104.055823 279.598868 
L 104.380803 277.858651 
L 104.705782 265.455018 
L 105.030762 266.798236 
L 105.355741 282.0156 
L 106.33068 284.264592 
L 106.655659 282.827335 
L 106.980639 278.501115 
L 107.630598 264.212214 
L 107.955577 279.774773 
L 108.280557 271.438828 
L 108.605536 281.318731 
L 108.930516 273.426232 
L 109.255495 273.742198 
L 109.580475 280.541227 
L 109.905455 282.365575 
L 110.230434 266.727818 
L 110.555414 272.857237 
L 110.880393 272.913361 
L 111.530352 292.026738 
L 111.855332 283.935466 
L 112.180311 286.703597 
L 112.505291 283.189586 
L 112.83027 282.669507 
L 113.480229 270.437465 
L 113.805209 279.194597 
L 114.130188 277.625176 
L 114.455168 270.775103 
L 114.780147 269.819759 
L 115.105127 267.019333 
L 115.430106 276.580477 
L 115.755086 281.414622 
L 116.080066 279.297732 
L 116.405045 268.157003 
L 116.730025 280.164262 
L 117.055004 276.703018 
L 117.379984 279.546008 
L 117.704963 267.753935 
L 118.029943 280.654217 
L 118.354922 280.03162 
L 119.004881 267.066878 
L 119.329861 278.80704 
L 119.65484 284.478554 
L 120.304799 262.198495 
L 120.629779 279.191082 
L 120.954758 270.392101 
L 121.279738 279.828001 
L 121.604717 283.256691 
L 121.929697 275.537568 
L 122.254676 274.130167 
L 122.579656 273.345837 
L 122.904636 228.224584 
L 123.229615 278.037936 
L 123.554595 269.522203 
L 123.879574 274.551542 
L 124.204554 271.25313 
L 124.529533 269.986366 
L 124.854513 283.409501 
L 125.179492 292.136078 
L 125.504472 286.927345 
L 125.829451 284.90327 
L 126.154431 265.989663 
L 126.47941 283.455903 
L 126.80439 286.97318 
L 127.779328 289.261076 
L 128.104308 287.519013 
L 128.754267 274.015343 
L 129.079247 282.861477 
L 129.404226 261.033741 
L 129.729206 278.436001 
L 130.054185 279.399274 
L 130.379165 280.977955 
L 130.704144 279.248437 
L 131.029124 286.241393 
L 131.354103 290.3609 
L 131.679083 279.460633 
L 132.004062 291.483216 
L 132.329042 282.045254 
L 132.654021 281.064882 
L 132.979001 273.546719 
L 133.30398 285.309682 
L 133.953939 267.001112 
L 134.278919 273.179838 
L 134.603898 259.613162 
L 134.928878 253.080818 
L 135.253857 276.537094 
L 135.578837 275.423329 
L 135.903817 256.0569 
L 136.228796 272.138374 
L 136.553776 266.332012 
L 136.878755 266.320898 
L 137.203735 279.147194 
L 137.528714 263.926889 
L 137.853694 265.044115 
L 138.178673 268.847883 
L 138.503653 279.306161 
L 138.828632 280.384966 
L 139.153612 283.619474 
L 139.478591 270.351379 
L 139.803571 265.146078 
L 140.12855 265.544983 
L 140.45353 262.661888 
L 140.778509 266.936147 
L 141.103489 273.903264 
L 141.428468 278.071915 
L 141.753448 277.808748 
L 142.078428 274.617246 
L 142.403407 276.235745 
L 142.728387 252.179473 
L 143.053366 267.535913 
L 143.378346 259.551889 
L 143.703325 256.817066 
L 144.028305 268.187397 
L 144.353284 266.334136 
L 144.678264 275.168668 
L 145.003243 261.61993 
L 145.328223 266.563297 
L 145.653202 275.744438 
L 145.978182 277.024376 
L 146.303161 276.396768 
L 146.628141 273.554252 
L 146.95312 266.786243 
L 147.2781 274.628128 
L 147.928059 280.537269 
L 148.253038 267.657202 
L 148.902998 286.025914 
L 149.227977 277.805514 
L 149.552957 274.750588 
L 149.877936 270.261518 
L 150.202916 270.674412 
L 150.527895 278.925637 
L 150.852875 263.669395 
L 151.177854 269.358588 
L 151.502834 281.804052 
L 151.827813 251.510212 
L 152.477772 264.34537 
L 152.802752 254.589951 
L 153.127731 251.327079 
L 153.452711 264.664846 
L 154.10267 270.192514 
L 154.427649 251.963983 
L 154.752629 262.66525 
L 155.077609 258.614046 
L 155.402588 261.848842 
L 155.727568 263.010307 
L 156.052547 269.553868 
L 156.377527 260.267588 
L 156.702506 269.659773 
L 157.027486 248.29886 
L 157.352465 274.216697 
L 157.677445 261.470318 
L 158.002424 270.933708 
L 158.327404 260.75155 
L 158.652383 255.474879 
L 158.977363 266.336317 
L 159.302342 269.347074 
L 159.627322 255.912704 
L 159.952301 268.809532 
L 160.277281 265.126097 
L 160.60226 258.192404 
L 160.92724 266.473535 
L 161.252219 261.471672 
L 161.577199 270.720884 
L 161.902179 264.943785 
L 162.227158 275.467124 
L 162.552138 275.790715 
L 162.877117 266.849237 
L 163.202097 271.186202 
L 163.527076 255.882012 
L 164.502015 280.689264 
L 164.826994 272.229789 
L 165.151974 267.957352 
L 165.476953 269.761713 
L 165.801933 287.594307 
L 166.451892 272.496483 
L 166.776871 251.340535 
L 167.101851 266.865154 
L 167.42683 257.109376 
L 167.75181 263.142547 
L 168.07679 223.283829 
L 168.401769 243.942896 
L 168.726749 248.666165 
L 169.051728 239.533878 
L 169.376708 261.530898 
L 169.701687 265.51624 
L 170.026667 267.667638 
L 170.351646 265.27462 
L 170.676626 244.873508 
L 171.001605 264.438978 
L 171.326585 247.664317 
L 171.651564 262.656122 
L 171.976544 250.945648 
L 172.301523 263.397102 
L 172.626503 268.641264 
L 173.276462 244.441052 
L 173.601441 259.529633 
L 173.926421 266.725012 
L 174.2514 263.996952 
L 174.57638 262.429861 
L 174.90136 272.980701 
L 175.226339 236.134115 
L 175.551319 248.774298 
L 175.876298 249.804473 
L 176.526257 261.169615 
L 176.851237 117.581537 
L 177.176216 259.304611 
L 177.501196 259.571776 
L 177.826175 255.1222 
L 178.151155 248.078916 
L 178.476134 248.927476 
L 178.801114 253.420401 
L 179.126093 265.779922 
L 179.451073 259.184701 
L 179.776052 262.036793 
L 180.101032 256.645255 
L 180.426011 255.914839 
L 180.750991 254.658405 
L 181.075971 257.637839 
L 181.40095 259.027373 
L 181.72593 265.025826 
L 182.050909 215.270762 
L 182.375889 124.736702 
L 182.700868 262.229542 
L 183.025848 260.488762 
L 183.350827 262.691685 
L 183.675807 262.535843 
L 184.000786 264.230023 
L 184.325766 258.795197 
L 184.650745 264.515211 
L 184.975725 276.176913 
L 185.300704 269.647835 
L 185.625684 275.395013 
L 185.950663 273.072346 
L 186.275643 275.263271 
L 186.600622 250.39214 
L 186.925602 259.741349 
L 187.250581 255.141443 
L 187.575561 232.257428 
L 187.900541 256.54049 
L 188.22552 264.935343 
L 188.5505 122.021518 
L 189.200459 268.928246 
L 189.525438 254.081591 
L 189.850418 269.913625 
L 190.175397 246.098119 
L 190.500377 269.006899 
L 190.825356 259.98438 
L 191.150336 262.07146 
L 191.475315 270.855489 
L 191.800295 256.427553 
L 192.125274 202.348297 
L 192.775233 267.207151 
L 193.100213 234.383304 
L 193.425192 265.739446 
L 193.750172 262.535188 
L 194.075152 175.123732 
L 194.400131 245.76435 
L 194.725111 138.035495 
L 195.05009 246.71217 
L 195.37507 218.279476 
L 195.700049 261.425115 
L 196.025029 264.901794 
L 196.350008 266.788396 
L 196.674988 271.05654 
L 196.999967 270.004138 
L 197.324947 267.63707 
L 197.649926 264.056121 
L 197.974906 263.621003 
L 198.299885 257.795507 
L 198.624865 263.758486 
L 198.949844 257.401044 
L 199.274824 265.417949 
L 199.599803 216.665419 
L 199.924783 259.649218 
L 200.249762 262.03159 
L 200.574742 259.363794 
L 200.899722 262.789344 
L 201.224701 132.801616 
L 201.549681 253.755266 
L 201.87466 268.779062 
L 202.19964 270.228625 
L 202.524619 242.003459 
L 202.849599 256.501746 
L 203.174578 254.018043 
L 203.499558 263.653246 
L 203.824537 247.818335 
L 204.149517 269.121252 
L 204.474496 241.46474 
L 204.799476 253.992031 
L 205.124455 252.921362 
L 205.449435 263.446626 
L 205.774414 132.221792 
L 206.099394 263.276215 
L 206.424373 271.611963 
L 206.749353 258.18718 
L 207.074333 158.219777 
L 207.399312 265.769286 
L 207.724292 237.334244 
L 208.049271 257.508349 
L 208.374251 239.891811 
L 208.69923 264.344923 
L 209.02421 274.365195 
L 209.349189 277.246702 
L 209.674169 266.311499 
L 209.999148 267.578119 
L 210.324128 263.533659 
L 210.649107 262.884649 
L 210.974087 259.844241 
L 211.299066 240.316624 
L 211.624046 255.634581 
L 211.949025 134.909379 
L 212.274005 261.586344 
L 212.598984 243.953419 
L 212.923964 273.553332 
L 213.248943 263.666217 
L 213.573923 265.886954 
L 213.898903 253.409082 
L 214.223882 268.345791 
L 214.548862 170.71991 
L 214.873841 247.586812 
L 215.198821 256.936556 
L 215.5238 132.224282 
L 215.84878 256.228754 
L 216.173759 273.511913 
L 216.498739 266.323762 
L 216.823718 274.034298 
L 217.148698 253.524341 
L 217.473677 257.104084 
L 217.798657 255.978504 
L 218.123636 217.115083 
L 218.448616 257.050992 
L 218.773595 256.281382 
L 219.098575 266.750675 
L 219.423554 264.129466 
L 219.748534 229.627624 
L 220.073514 262.035886 
L 220.398493 267.22085 
L 220.723473 263.469614 
L 221.048452 128.188392 
L 221.373432 255.306825 
L 221.698411 260.058045 
L 222.023391 259.175124 
L 222.34837 268.126295 
L 222.67335 246.699759 
L 222.998329 265.531062 
L 223.323309 261.662489 
L 223.648288 272.146178 
L 223.973268 254.307176 
L 224.298247 259.777817 
L 224.623227 249.862743 
L 224.948206 261.952112 
L 225.273186 261.529085 
L 225.598165 259.166405 
L 225.923145 134.445435 
L 226.248124 119.863818 
L 226.573104 262.616517 
L 226.898084 277.429574 
L 227.223063 257.813108 
L 227.548043 277.838305 
L 227.873022 260.19492 
L 228.198002 267.431801 
L 228.522981 290.197817 
L 228.847961 277.681324 
L 229.17294 241.073396 
L 229.49792 258.027465 
L 229.822899 251.654139 
L 230.147879 281.062094 
L 230.472858 271.676645 
L 230.797838 281.52629 
L 231.122817 266.619347 
L 231.447797 140.317715 
L 231.772776 105.258037 
L 232.097756 249.325281 
L 232.422735 260.810823 
L 232.747715 267.291007 
L 233.072695 261.348528 
L 233.397674 202.774344 
L 233.722654 260.935147 
L 234.372613 235.923583 
L 234.697592 255.606254 
L 235.022572 255.499759 
L 235.347551 254.440032 
L 235.672531 261.420592 
L 235.99751 259.29726 
L 236.32249 244.467025 
L 236.647469 237.23691 
L 236.972449 256.456493 
L 237.297428 258.376311 
L 237.622408 257.802228 
L 237.947387 273.79159 
L 238.272367 257.033316 
L 238.597346 263.60568 
L 238.922326 250.794044 
L 239.247305 248.776498 
L 239.572285 238.067031 
L 239.897265 263.502721 
L 240.222244 246.352433 
L 240.547224 261.068131 
L 240.872203 253.27008 
L 241.197183 234.92989 
L 241.522162 244.165248 
L 241.847142 259.766632 
L 242.172121 255.091297 
L 242.497101 246.426985 
L 242.82208 259.648606 
L 243.14706 254.408756 
L 243.472039 235.418502 
L 243.797019 265.510421 
L 244.121998 263.480978 
L 244.446978 242.225535 
L 244.771957 259.2302 
L 245.096937 259.729707 
L 245.421916 256.135202 
L 245.746896 260.84133 
L 246.071876 254.734931 
L 246.396855 244.98886 
L 246.721835 183.02245 
L 247.046814 258.831611 
L 247.371794 256.586315 
L 247.696773 253.2382 
L 248.346732 255.776118 
L 248.671712 138.822631 
L 248.996691 260.035182 
L 249.321671 177.685969 
L 249.64665 265.876843 
L 250.296609 243.237321 
L 250.621589 264.121228 
L 250.946568 254.423257 
L 251.271548 255.228867 
L 251.596527 244.409874 
L 251.921507 258.960045 
L 252.246486 250.968202 
L 252.571466 248.210953 
L 252.896446 251.07167 
L 253.221425 124.063238 
L 253.546405 118.35226 
L 253.871384 254.426298 
L 254.196364 240.983144 
L 254.521343 177.017714 
L 254.846323 253.35046 
L 255.171302 257.847775 
L 255.496282 242.137545 
L 255.821261 130.262288 
L 256.146241 251.984978 
L 256.47122 241.859303 
L 256.7962 133.327871 
L 257.121179 244.452866 
L 257.446159 262.888326 
L 257.771138 163.51409 
L 258.096118 246.031612 
L 258.421097 254.555752 
L 258.746077 256.862032 
L 259.071057 263.457295 
L 259.396036 279.126651 
L 259.721016 262.40426 
L 260.045995 273.98999 
L 260.370975 247.618995 
L 260.695954 259.995512 
L 261.020934 266.464278 
L 261.345913 268.767889 
L 261.670893 258.518056 
L 261.995872 242.00303 
L 262.320852 267.387358 
L 262.645831 260.053932 
L 262.970811 257.73137 
L 263.29579 248.407617 
L 263.62077 272.317548 
L 263.945749 269.876462 
L 264.270729 274.34714 
L 264.595708 260.473808 
L 264.920688 256.095182 
L 265.245667 256.781551 
L 265.570647 264.041378 
L 265.895627 248.126154 
L 266.545586 260.035303 
L 266.870565 265.632194 
L 267.195545 238.707798 
L 267.520524 259.20304 
L 267.845504 262.2065 
L 268.170483 259.187067 
L 268.495463 253.087965 
L 268.820442 259.053153 
L 269.145422 242.392707 
L 269.470401 264.679717 
L 269.795381 260.201456 
L 270.12036 247.800873 
L 270.44534 259.652159 
L 270.770319 267.191596 
L 271.095299 256.334851 
L 271.420278 207.409046 
L 271.745258 273.390955 
L 272.070238 268.728816 
L 272.395217 276.264469 
L 272.720197 268.899621 
L 273.045176 275.785292 
L 273.370156 256.040029 
L 273.695135 257.247929 
L 274.020115 276.165746 
L 274.345094 265.779538 
L 274.670074 270.228145 
L 274.995053 282.734726 
L 275.320033 269.705202 
L 275.645012 263.324471 
L 275.969992 273.81931 
L 276.294971 274.237752 
L 276.619951 234.087171 
L 277.26991 271.723846 
L 277.594889 265.613878 
L 277.919869 276.106955 
L 278.244848 276.285894 
L 278.569828 276.129278 
L 278.894808 271.351921 
L 279.219787 276.5918 
L 279.544767 279.018201 
L 279.869746 280.185812 
L 280.194726 271.779535 
L 280.519705 272.503665 
L 280.844685 270.883153 
L 281.169664 276.233964 
L 281.494644 264.973933 
L 281.819623 268.433822 
L 282.144603 276.340112 
L 282.469582 271.967626 
L 282.794562 255.816576 
L 283.444521 279.870137 
L 283.7695 269.785212 
L 284.09448 278.00244 
L 284.419459 281.648687 
L 284.744439 267.006824 
L 285.069419 257.688388 
L 285.394398 264.366027 
L 285.719378 279.835918 
L 286.044357 276.804238 
L 286.369337 278.425435 
L 286.694316 271.929847 
L 287.019296 249.393655 
L 287.344275 263.516127 
L 287.669255 266.381899 
L 287.994234 279.91933 
L 288.319214 278.772696 
L 288.644193 283.592006 
L 288.969173 273.529585 
L 289.619132 271.508022 
L 289.944111 275.409839 
L 290.269091 264.307566 
L 290.91905 223.36681 
L 291.244029 267.382065 
L 291.569009 264.427896 
L 291.893989 267.690781 
L 292.218968 277.101612 
L 292.543948 252.624729 
L 292.868927 273.179953 
L 293.193907 274.476578 
L 293.518886 265.427223 
L 293.843866 276.085356 
L 294.168845 243.442584 
L 294.493825 283.192301 
L 294.818804 274.738057 
L 295.143784 270.839794 
L 295.468763 263.264461 
L 295.793743 225.633808 
L 296.118722 272.448652 
L 296.443702 256.224352 
L 296.768681 270.016146 
L 297.093661 271.973664 
L 297.41864 269.851142 
L 297.74362 271.051659 
L 298.0686 267.282325 
L 298.393579 239.307495 
L 298.718559 268.466048 
L 299.043538 276.599619 
L 299.368518 265.682443 
L 299.693497 262.150698 
L 300.018477 273.075133 
L 300.343456 266.855187 
L 300.668436 264.638534 
L 300.993415 282.094446 
L 301.318395 250.04859 
L 301.643374 279.880208 
L 301.968354 244.895956 
L 302.293333 270.487268 
L 302.618313 258.041798 
L 302.943292 266.519799 
L 303.268272 241.609457 
L 303.593251 269.443472 
L 303.918231 235.836539 
L 304.56819 270.303746 
L 304.89317 252.235558 
L 305.218149 258.029583 
L 305.543129 252.913303 
L 305.868108 277.325873 
L 306.193088 261.648461 
L 306.518067 266.801112 
L 306.843047 255.989181 
L 307.168026 274.03874 
L 307.493006 265.916719 
L 307.817985 275.065055 
L 308.142965 288.218976 
L 308.467944 281.572176 
L 308.792924 249.682549 
L 309.442883 280.817251 
L 309.767862 256.176455 
L 310.092842 276.286499 
L 310.742801 266.706616 
L 311.067781 267.114322 
L 311.39276 274.558092 
L 311.71774 273.858694 
L 312.042719 259.069409 
L 312.367699 268.828888 
L 312.692678 263.831257 
L 313.342637 284.856507 
L 313.992596 269.338117 
L 314.317576 282.925989 
L 314.642555 268.167936 
L 314.967535 274.508926 
L 315.292514 273.25372 
L 315.617494 275.630545 
L 315.942473 280.764962 
L 316.267453 262.47059 
L 316.592432 271.39599 
L 316.917412 283.703489 
L 317.242391 280.847799 
L 317.567371 257.196647 
L 317.892351 251.06186 
L 318.21733 238.259947 
L 318.54231 279.585195 
L 318.867289 274.888666 
L 319.192269 266.555226 
L 319.517248 273.081914 
L 319.842228 268.038268 
L 320.167207 254.317386 
L 320.492187 278.299392 
L 320.817166 280.682432 
L 321.142146 273.726695 
L 321.467125 258.880328 
L 322.117084 273.442771 
L 322.442064 272.005024 
L 322.767043 271.895199 
L 323.092023 277.777894 
L 323.417002 256.913538 
L 323.741982 270.525764 
L 324.066962 158.529527 
L 324.391941 116.530141 
L 324.716921 126.960326 
L 325.0419 242.458967 
L 325.36688 263.761011 
L 325.691859 254.839401 
L 326.016839 249.76003 
L 326.341818 261.629058 
L 326.666798 248.16912 
L 326.991777 134.551283 
L 327.316757 229.940161 
L 327.641736 256.579497 
L 327.966716 264.403126 
L 328.291695 256.223152 
L 328.616675 262.711779 
L 328.941654 276.040922 
L 329.266634 273.420479 
L 329.591613 276.579039 
L 329.916593 128.550467 
L 330.241572 284.870976 
L 330.566552 262.064574 
L 331.216511 285.159272 
L 331.541491 260.18789 
L 331.86647 270.577559 
L 332.19145 261.681121 
L 332.516429 220.834659 
L 332.841409 266.942196 
L 333.166388 274.233295 
L 333.491368 251.819867 
L 333.816347 275.868403 
L 334.141327 265.292235 
L 334.466306 261.203282 
L 334.791286 263.845142 
L 335.116265 253.019001 
L 335.441245 255.38839 
L 335.766224 276.137528 
L 336.091204 211.679896 
L 336.416183 260.967656 
L 336.741163 259.189103 
L 337.066143 262.797833 
L 337.391122 260.001656 
L 338.366061 271.041229 
L 338.69104 269.413632 
L 339.01602 278.833717 
L 339.340999 281.101009 
L 339.665979 276.789035 
L 339.990958 256.834265 
L 340.315938 280.277724 
L 340.640917 269.541965 
L 340.965897 275.057356 
L 341.290876 274.351431 
L 341.615856 263.570764 
L 341.940835 259.129874 
L 342.265815 268.243478 
L 342.590794 272.267884 
L 342.915774 256.867539 
L 343.240753 235.232568 
L 343.565733 259.881433 
L 343.890713 271.673702 
L 344.215692 262.608327 
L 344.540672 196.081076 
L 344.865651 158.905355 
L 345.190631 263.057615 
L 345.51561 252.855147 
L 345.84059 262.764122 
L 346.165569 249.038532 
L 346.490549 255.828996 
L 346.815528 241.757397 
L 347.140508 255.988386 
L 347.465487 262.177378 
L 347.790467 254.618487 
L 348.115446 258.743869 
L 348.440426 253.1798 
L 348.765405 255.164578 
L 349.090385 240.865238 
L 349.415364 258.090383 
L 349.740344 252.168947 
L 350.065324 259.859856 
L 350.390303 275.08657 
L 350.715283 268.526169 
L 351.040262 236.255211 
L 351.365242 273.049284 
L 351.690221 266.23055 
L 352.015201 266.704167 
L 352.34018 266.421227 
L 352.66516 271.796724 
L 352.990139 270.40859 
L 353.315119 274.187719 
L 353.640098 264.887845 
L 353.965078 266.353047 
L 354.290057 261.099493 
L 354.615037 266.18418 
L 354.940016 252.990829 
L 355.264996 270.918988 
L 355.589975 246.647551 
L 355.914955 261.384953 
L 356.239934 270.115123 
L 356.564914 274.736451 
L 356.889894 256.744846 
L 357.214873 133.366203 
L 357.539853 271.717137 
L 357.864832 256.940512 
L 358.189812 265.413247 
L 358.514791 280.024619 
L 358.839771 256.47518 
L 359.16475 258.132786 
L 359.48973 238.498041 
L 359.814709 117.120301 
L 360.139689 193.734565 
L 360.464668 131.998044 
L 360.789648 245.809804 
L 361.114627 223.619839 
L 361.439607 253.42767 
L 361.764586 268.264031 
L 362.414545 275.367223 
L 362.739525 260.367916 
L 363.064505 264.336168 
L 363.389484 256.689598 
L 363.714464 145.489512 
L 364.039443 257.610683 
L 364.364423 256.630926 
L 364.689402 106.957135 
L 365.014382 267.288631 
L 365.339361 130.233857 
L 365.664341 252.024615 
L 365.98932 265.657242 
L 366.3143 226.870272 
L 366.639279 263.368866 
L 366.964259 264.42296 
L 367.289238 248.548336 
L 367.614218 266.697392 
L 367.939197 264.131337 
L 368.264177 258.977896 
L 368.589156 265.692421 
L 368.914136 260.640097 
L 369.239115 193.005318 
L 369.564095 263.629466 
L 369.889075 269.780809 
L 370.214054 262.212783 
L 370.539034 262.734611 
L 370.864013 232.668007 
L 371.188993 257.553481 
L 371.838952 247.69366 
L 372.163931 272.785243 
L 372.488911 267.609031 
L 372.81389 269.981752 
L 373.13887 266.778292 
L 373.463849 131.427587 
L 373.788829 250.668338 
L 374.113808 115.161552 
L 374.438788 258.736897 
L 374.763767 258.63875 
L 375.088747 265.295133 
L 375.413726 262.957632 
L 375.738706 252.174747 
L 376.388665 277.751707 
L 376.713645 264.086396 
L 377.038624 260.034458 
L 377.363604 273.684262 
L 377.688583 271.507597 
L 378.013563 272.848514 
L 378.338542 272.255292 
L 378.663522 282.934537 
L 378.988501 278.259533 
L 379.313481 276.633184 
L 379.63846 271.015587 
L 379.96344 276.503546 
L 380.288419 269.152563 
L 380.613399 268.900328 
L 380.938378 270.098447 
L 381.263358 268.671075 
L 381.588337 260.555262 
L 381.913317 277.960417 
L 382.238296 271.395294 
L 382.563276 268.598181 
L 382.888256 273.348948 
L 383.213235 270.335228 
L 383.538215 228.249762 
L 383.863194 145.989712 
L 384.188174 239.50743 
L 384.513153 265.953206 
L 384.838133 265.00099 
L 385.163112 272.142598 
L 385.488092 216.175559 
L 386.138051 256.777894 
L 386.78801 272.37111 
L 387.112989 255.201876 
L 387.437969 269.594486 
L 387.762948 248.279289 
L 388.087928 272.083383 
L 388.412907 273.955924 
L 388.737887 266.227783 
L 389.062867 279.147048 
L 389.387846 267.934557 
L 389.712826 281.389454 
L 390.037805 269.372379 
L 390.362785 267.392882 
L 390.687764 136.323744 
L 391.012744 272.148395 
L 391.662703 276.531699 
L 391.987682 244.110427 
L 392.312662 266.561338 
L 392.637641 252.56255 
L 393.2876 278.574094 
L 393.61258 271.095045 
L 393.937559 274.174437 
L 394.262539 262.183358 
L 394.587518 267.865443 
L 394.912498 271.278434 
L 395.237477 262.82849 
L 395.562457 260.495805 
L 395.887437 146.357367 
L 396.212416 237.047473 
L 396.537396 238.791689 
L 396.862375 253.01971 
L 397.187355 272.856597 
L 397.512334 274.925125 
L 397.837314 258.670129 
L 398.162293 259.673116 
L 398.487273 278.052079 
L 398.487273 278.052079 
" style="fill:none;stroke:#0000ff;stroke-linecap:square;stroke-width:1.5;"/>
   </g>
   <g id="line2d_30">
    <path clip-path="url(#pffb96cb6b8)" d="M 73.832727 103.205227 
L 74.482686 70.530958 
L 74.807666 74.626146 
L 75.132645 96.795451 
L 75.457625 54.422898 
L 75.782604 142.413332 
L 76.107584 64.94601 
L 76.432563 67.202908 
L 76.757543 67.195839 
L 77.082523 64.015035 
L 77.407502 81.220652 
L 77.732482 75.284059 
L 78.057461 73.349621 
L 78.382441 211.670624 
L 78.70742 69.428454 
L 79.0324 73.938311 
L 79.357379 64.006183 
L 79.682359 67.017079 
L 80.007338 100.563019 
L 80.332318 77.756507 
L 80.982277 102.826984 
L 81.307256 69.20876 
L 81.632236 76.657238 
L 81.957215 103.159953 
L 82.282195 70.78898 
L 82.607174 64.001082 
L 82.932154 108.405609 
L 83.257133 68.577028 
L 83.907093 64.319731 
L 84.232072 64.006349 
L 84.557052 63.996803 
L 84.882031 76.917005 
L 85.207011 102.565987 
L 85.53199 78.03764 
L 85.85697 103.394036 
L 86.181949 64.010557 
L 86.506929 100.812787 
L 86.831908 103.10574 
L 87.156888 72.021281 
L 87.481867 223.898932 
L 87.806847 64.007202 
L 88.131826 64.144841 
L 88.456806 76.523515 
L 88.781785 64.946571 
L 89.106765 65.774308 
L 89.431744 65.273957 
L 90.081704 74.757302 
L 90.406683 64.013233 
L 90.731663 98.980544 
L 91.056642 64.009719 
L 91.381622 105.040612 
L 91.706601 64.007184 
L 92.031581 106.477996 
L 92.35656 81.141198 
L 92.68154 70.332249 
L 93.006519 75.754874 
L 93.331499 64.627864 
L 93.656478 67.014766 
L 93.981458 212.633416 
L 94.306437 76.302802 
L 94.631417 105.249326 
L 94.956396 64.003891 
L 95.281376 104.481854 
L 95.606355 64.004341 
L 95.931335 111.842966 
L 96.256314 67.386008 
L 96.581294 107.348116 
L 96.906274 103.005971 
L 97.231253 60.449943 
L 97.556233 64.00526 
L 97.881212 66.288371 
L 98.206192 70.802072 
L 98.531171 86.395116 
L 98.856151 64.011043 
L 99.18113 64.016216 
L 99.50611 103.278329 
L 99.831089 64.427352 
L 100.156069 64.015563 
L 100.481048 64.013046 
L 100.806028 64.67174 
L 101.131007 64.791124 
L 101.455987 70.339322 
L 101.780966 63.993496 
L 102.105946 64.00955 
L 102.430925 65.123409 
L 102.755905 64.012205 
L 103.080885 232.188008 
L 103.405864 65.117112 
L 103.730844 218.881936 
L 104.380803 64.008483 
L 104.705782 54.035271 
L 105.030762 63.998094 
L 105.355741 64.010402 
L 105.680721 66.121137 
L 106.0057 223.522839 
L 106.33068 103.966495 
L 106.655659 65.105099 
L 106.980639 64.475559 
L 107.305618 115.902314 
L 107.630598 64.017809 
L 107.955577 101.21959 
L 108.280557 64.011061 
L 108.605536 110.923722 
L 108.930516 64.005621 
L 109.255495 68.973247 
L 109.580475 70.494495 
L 109.905455 95.28843 
L 110.230434 64.003134 
L 110.555414 225.55794 
L 110.880393 64.006501 
L 111.205373 103.852214 
L 111.530352 101.090779 
L 111.855332 66.819807 
L 112.180311 229.249515 
L 112.505291 106.457102 
L 112.83027 70.103361 
L 113.15525 123.561789 
L 113.480229 64.015723 
L 113.805209 77.572717 
L 114.130188 64.006057 
L 114.455168 105.011257 
L 114.780147 172.223678 
L 115.105127 64.013672 
L 115.430106 94.931454 
L 115.755086 106.184557 
L 116.080066 67.015008 
L 116.405045 88.560152 
L 116.730025 205.931228 
L 117.055004 110.576012 
L 117.379984 189.700927 
L 117.704963 67.581055 
L 118.029943 103.704403 
L 118.354922 107.40576 
L 118.679902 218.211584 
L 119.004881 64.000433 
L 119.329861 92.861193 
L 119.65484 105.155968 
L 119.97982 102.837866 
L 120.304799 64.010494 
L 120.629779 97.80962 
L 120.954758 212.611096 
L 121.279738 94.25707 
L 121.604717 207.115031 
L 121.929697 71.043929 
L 122.254676 105.653041 
L 122.579656 64.620986 
L 122.904636 64.012514 
L 123.229615 214.40791 
L 123.554595 71.295208 
L 123.879574 64.003815 
L 124.204554 70.317559 
L 124.529533 63.999499 
L 124.854513 64.052421 
L 125.179492 71.545459 
L 125.504472 64.018169 
L 126.154431 64.006455 
L 126.47941 213.093565 
L 126.80439 210.390011 
L 127.129369 213.0756 
L 127.454349 64.018084 
L 127.779328 225.295869 
L 128.104308 212.346053 
L 128.429287 107.870527 
L 128.754267 64.029526 
L 129.079247 65.943869 
L 129.404226 63.992177 
L 129.729206 64.306585 
L 130.054185 63.999153 
L 130.379165 218.217493 
L 130.704144 227.556282 
L 131.029124 213.884531 
L 131.354103 206.921344 
L 131.679083 223.710682 
L 132.004062 64.017292 
L 132.329042 66.651478 
L 132.654021 107.690986 
L 132.979001 120.886137 
L 133.30398 227.61251 
L 133.62896 64.006226 
L 133.953939 66.285578 
L 134.278919 91.142142 
L 134.603898 64.013153 
L 134.928878 64.017497 
L 135.253857 102.757702 
L 135.578837 107.743381 
L 135.903817 64.00116 
L 136.228796 65.10291 
L 136.553776 55.936398 
L 136.878755 65.379467 
L 137.203735 214.629408 
L 137.528714 64.015696 
L 137.853694 105.392342 
L 138.178673 63.993595 
L 138.503653 103.574711 
L 138.828632 214.726893 
L 139.153612 222.875269 
L 139.478591 110.149974 
L 139.803571 159.063128 
L 140.12855 64.013724 
L 140.778509 63.995265 
L 141.103489 210.471722 
L 141.428468 213.900621 
L 141.753448 81.624097 
L 142.078428 107.911528 
L 142.403407 64.309636 
L 142.728387 63.99606 
L 143.053366 103.405675 
L 143.378346 122.631711 
L 144.028305 104.018102 
L 144.353284 103.88526 
L 144.678264 118.639662 
L 145.003243 206.05963 
L 145.328223 64.001964 
L 145.653202 223.08876 
L 145.978182 224.926703 
L 146.303161 64.006804 
L 146.628141 64.009549 
L 146.95312 109.076344 
L 147.2781 204.831336 
L 147.603079 64.01189 
L 147.928059 109.783118 
L 148.253038 64.005353 
L 148.578018 130.63321 
L 148.902998 220.072426 
L 149.227977 219.114658 
L 149.552957 209.563472 
L 149.877936 226.670439 
L 150.202916 64.003319 
L 150.527895 211.617727 
L 150.852875 217.211371 
L 151.177854 64.016509 
L 151.502834 213.312338 
L 151.827813 63.999719 
L 152.152793 63.996007 
L 152.477772 220.923669 
L 152.802752 64.01227 
L 153.452711 64.012297 
L 153.77769 222.715763 
L 154.10267 64.012242 
L 154.427649 64.000426 
L 154.752629 210.171 
L 155.077609 222.519882 
L 155.402588 64.012638 
L 156.377527 64.009897 
L 156.702506 226.413644 
L 157.027486 64.00421 
L 157.352465 204.899939 
L 157.677445 63.996786 
L 158.002424 64.006054 
L 158.327404 212.898452 
L 158.652383 209.655267 
L 158.977363 64.005496 
L 159.302342 225.726833 
L 159.627322 208.383389 
L 159.952301 224.025752 
L 160.277281 216.194671 
L 160.60226 64.014118 
L 160.92724 64.005198 
L 161.252219 211.175584 
L 161.577199 205.176225 
L 161.902179 209.153381 
L 162.227158 207.325505 
L 162.552138 213.500866 
L 162.877117 64.009424 
L 163.202097 209.062078 
L 163.527076 64.018558 
L 163.852056 63.995154 
L 164.177035 211.357546 
L 164.502015 220.904772 
L 164.826994 225.348865 
L 165.151974 210.174897 
L 165.476953 64.00341 
L 165.801933 207.567276 
L 166.126912 217.292587 
L 166.451892 122.394178 
L 166.776871 63.997143 
L 167.101851 227.538612 
L 167.42683 64.014782 
L 167.75181 214.459243 
L 168.07679 64.003849 
L 169.051728 63.997225 
L 169.376708 220.023343 
L 169.701687 115.759804 
L 170.026667 206.542379 
L 170.351646 207.282892 
L 170.676626 64.010069 
L 171.001605 211.075418 
L 171.326585 64.009391 
L 171.651564 225.787351 
L 171.976544 63.998104 
L 172.301523 223.607375 
L 172.626503 64.010432 
L 173.601441 64.01152 
L 173.926421 222.429055 
L 174.2514 216.041221 
L 174.57638 222.678972 
L 174.90136 208.286664 
L 175.226339 64.016672 
L 175.551319 64.014058 
L 175.876298 212.418725 
L 176.526257 210.711111 
L 176.851237 63.996369 
L 177.176216 205.764055 
L 177.501196 225.934679 
L 177.826175 223.315187 
L 178.151155 64.015997 
L 178.476134 64.222767 
L 178.801114 64.013277 
L 179.126093 215.777885 
L 179.451073 64.017908 
L 179.776052 224.959508 
L 180.426011 204.752414 
L 180.750991 210.026482 
L 181.075971 224.567934 
L 181.40095 64.010085 
L 182.375889 63.99796 
L 182.700868 214.745512 
L 183.025848 64.018766 
L 183.350827 207.216774 
L 183.675807 69.410126 
L 184.000786 206.045418 
L 184.325766 63.997126 
L 184.650745 64.015207 
L 184.975725 204.760265 
L 185.300704 64.01469 
L 185.625684 224.094093 
L 185.950663 64.015423 
L 186.275643 210.715537 
L 186.600622 64.017305 
L 186.925602 222.147298 
L 187.250581 64.014291 
L 187.575561 64.00096 
L 187.900541 223.060497 
L 188.22552 64.013681 
L 188.875479 64.002111 
L 189.200459 222.113131 
L 189.525438 220.140332 
L 189.850418 215.619992 
L 190.175397 63.992979 
L 191.150336 64.009723 
L 191.475315 207.121401 
L 191.800295 210.976462 
L 192.125274 64.012201 
L 193.100213 63.989651 
L 193.425192 218.884407 
L 193.750172 210.48918 
L 194.075152 64.012887 
L 194.400131 64.147043 
L 194.725111 64.005094 
L 195.37507 64.004851 
L 195.700049 216.987487 
L 196.025029 133.825194 
L 196.350008 226.282421 
L 196.674988 214.902177 
L 196.999967 115.331152 
L 197.324947 225.20277 
L 197.649926 64.011069 
L 197.974906 209.021737 
L 198.299885 206.488408 
L 198.624865 64.016425 
L 198.949844 64.017575 
L 199.274824 211.476129 
L 199.599803 64.009302 
L 200.574742 64.003483 
L 200.899722 207.833847 
L 201.224701 64.005714 
L 201.549681 211.024441 
L 201.87466 64.000001 
L 202.19964 215.967092 
L 202.524619 64.003942 
L 202.849599 213.259364 
L 203.174578 206.55366 
L 203.499558 225.139917 
L 203.824537 64.001828 
L 204.149517 208.621411 
L 204.474496 64.014762 
L 205.124455 63.993039 
L 205.449435 214.095359 
L 205.774414 64.00997 
L 206.099394 64.006986 
L 206.424373 225.104457 
L 206.749353 206.73591 
L 207.074333 64.017952 
L 207.399312 64.000934 
L 207.724292 53.568 
L 208.049271 214.581796 
L 208.374251 64.01152 
L 208.69923 207.436633 
L 209.02421 205.334303 
L 209.349189 214.985796 
L 209.674169 214.103349 
L 209.999148 204.930763 
L 210.324128 205.428716 
L 210.649107 63.993955 
L 210.974087 211.0025 
L 211.299066 64.003866 
L 211.624046 211.156985 
L 211.949025 64.00221 
L 212.598984 64.013331 
L 212.923964 211.114957 
L 213.248943 64.017335 
L 213.573923 215.174141 
L 213.898903 63.996288 
L 214.223882 205.460247 
L 214.548862 64.00614 
L 214.873841 64.003243 
L 215.198821 205.709806 
L 215.5238 64.013645 
L 215.84878 220.303246 
L 216.173759 64.014342 
L 216.498739 211.213657 
L 216.823718 210.794382 
L 217.148698 63.997468 
L 217.473677 63.998383 
L 217.798657 215.070093 
L 218.123636 63.996616 
L 218.773595 64.011655 
L 219.098575 217.532219 
L 219.423554 223.590269 
L 219.748534 64.010865 
L 220.073514 213.940538 
L 220.398493 224.550134 
L 220.723473 63.995288 
L 221.048452 64.011453 
L 221.373432 219.179156 
L 221.698411 64.008094 
L 222.023391 63.998861 
L 222.34837 218.915632 
L 222.67335 64.013739 
L 222.998329 205.675321 
L 223.323309 64.01892 
L 223.648288 64.007974 
L 223.973268 208.357721 
L 224.298247 63.993873 
L 225.923145 64.008422 
L 226.573104 64.002772 
L 226.898084 205.110988 
L 227.223063 222.840631 
L 227.548043 225.833302 
L 227.873022 206.891246 
L 228.198002 206.856777 
L 228.522981 225.429739 
L 228.847961 211.479056 
L 229.17294 64.012702 
L 230.472858 64.016579 
L 230.797838 220.05802 
L 231.122817 219.950232 
L 231.447797 64.004869 
L 232.097756 64.005193 
L 232.422735 217.861925 
L 232.747715 228.224094 
L 233.072695 221.416806 
L 233.397674 63.99219 
L 233.722654 217.219403 
L 234.047633 64.002926 
L 234.372613 64.013869 
L 234.697592 221.612306 
L 235.347551 207.179172 
L 235.672531 205.448996 
L 235.99751 226.926422 
L 236.32249 64.017401 
L 236.972449 64.011516 
L 237.297428 218.548079 
L 237.622408 215.244758 
L 237.947387 206.668563 
L 238.272367 63.991179 
L 238.597346 209.070755 
L 238.922326 63.99657 
L 239.572285 64.017551 
L 239.897265 209.114053 
L 240.222244 64.015125 
L 240.547224 209.963415 
L 240.872203 217.370565 
L 241.197183 64.011924 
L 241.522162 64.014214 
L 241.847142 209.691406 
L 242.172121 215.427847 
L 242.497101 64.015416 
L 242.82208 215.427702 
L 243.14706 64.011635 
L 243.797019 64.012948 
L 244.121998 223.751155 
L 244.446978 64.016735 
L 244.771957 206.014118 
L 245.096937 208.307251 
L 245.421916 207.509025 
L 245.746896 228.421749 
L 246.071876 218.007874 
L 246.396855 64.00695 
L 246.721835 64.009633 
L 247.046814 205.231232 
L 247.371794 210.556505 
L 247.696773 64.88769 
L 248.021753 210.430195 
L 248.346732 207.902072 
L 248.671712 64.001048 
L 248.996691 208.289794 
L 249.321671 64.01574 
L 249.64665 64.008947 
L 249.97163 217.19203 
L 250.296609 64.007875 
L 250.621589 209.760614 
L 250.946568 207.484776 
L 251.271548 210.792511 
L 251.596527 64.000854 
L 253.546405 64.004952 
L 253.871384 224.072757 
L 254.196364 64.01515 
L 254.521343 63.993479 
L 254.846323 212.849986 
L 255.171302 210.957342 
L 255.496282 64.010969 
L 255.821261 64.00347 
L 256.146241 206.081458 
L 256.47122 64.002437 
L 257.121179 64.015866 
L 257.446159 224.79922 
L 257.771138 64.010656 
L 258.096118 64.01464 
L 258.421097 216.608046 
L 258.746077 206.873014 
L 259.071057 64.006982 
L 259.396036 215.209262 
L 259.721016 64.007425 
L 260.045995 225.204478 
L 260.370975 64.012596 
L 260.695954 215.869735 
L 261.020934 206.852096 
L 261.345913 208.45211 
L 261.670893 223.468886 
L 261.995872 64.017744 
L 262.320852 225.240334 
L 262.645831 208.157931 
L 262.970811 211.113564 
L 263.29579 64.622282 
L 263.62077 105.007399 
L 263.945749 64.015262 
L 264.270729 223.846644 
L 264.595708 220.899454 
L 264.920688 138.378613 
L 265.245667 217.610433 
L 265.570647 227.107283 
L 265.895627 64.000119 
L 266.545586 64.005197 
L 266.870565 206.756283 
L 267.195545 63.998487 
L 267.520524 207.11406 
L 267.845504 64.012439 
L 268.170483 225.500569 
L 268.495463 209.406081 
L 268.820442 211.82834 
L 269.145422 64.009463 
L 269.470401 222.352793 
L 269.795381 214.846307 
L 270.12036 64.014827 
L 270.44534 206.246194 
L 270.770319 206.671204 
L 271.095299 64.017313 
L 271.420278 64.009263 
L 271.745258 230.029244 
L 272.070238 214.063617 
L 272.395217 63.998095 
L 272.720197 64.007602 
L 273.045176 233.125102 
L 273.370156 63.995447 
L 274.020115 64.018183 
L 274.345094 108.887272 
L 274.670074 113.919097 
L 274.995053 123.871453 
L 275.320033 64.84917 
L 275.645012 177.421361 
L 275.969992 108.121041 
L 276.294971 210.707419 
L 276.619951 63.997366 
L 277.26991 63.996431 
L 277.594889 208.480192 
L 277.919869 207.878339 
L 278.244848 224.226532 
L 278.569828 64.014568 
L 278.894808 64.006928 
L 279.219787 222.556057 
L 279.544767 64.005544 
L 279.869746 209.664611 
L 280.194726 64.008587 
L 280.519705 207.660089 
L 280.844685 64.00777 
L 281.169664 209.539002 
L 281.494644 229.708587 
L 281.819623 210.306182 
L 282.144603 217.422431 
L 282.469582 219.430649 
L 282.794562 64.011529 
L 283.119541 215.280566 
L 283.444521 221.136059 
L 283.7695 219.810004 
L 284.09448 121.516728 
L 284.419459 208.102648 
L 284.744439 218.124896 
L 285.069419 64.005895 
L 285.394398 64.012467 
L 285.719378 219.861926 
L 286.044357 64.01 
L 286.369337 209.851102 
L 286.694316 64.015979 
L 287.344275 64.011903 
L 287.669255 69.650702 
L 287.994234 214.221687 
L 288.644193 207.659754 
L 288.969173 64.014281 
L 289.294152 208.284274 
L 289.619132 64.001862 
L 289.944111 218.012711 
L 290.269091 64.014241 
L 290.91905 64.014682 
L 291.244029 205.056671 
L 291.569009 63.998274 
L 291.893989 208.005791 
L 292.218968 64.013897 
L 292.543948 64.012818 
L 292.868927 104.820359 
L 293.193907 112.879125 
L 293.518886 64.943628 
L 293.843866 227.894147 
L 294.168845 64.007291 
L 294.493825 210.458074 
L 294.818804 214.653774 
L 295.143784 208.079366 
L 295.468763 64.001309 
L 296.768681 64.014669 
L 297.093661 226.367985 
L 297.41864 64.008415 
L 297.74362 225.8428 
L 298.0686 63.997422 
L 298.393579 64.015469 
L 298.718559 209.411599 
L 299.043538 207.578838 
L 299.368518 211.147472 
L 299.693497 63.998846 
L 300.018477 205.55893 
L 300.343456 208.848585 
L 300.668436 64.01048 
L 302.618313 64.001867 
L 302.943292 223.075661 
L 303.268272 64.015655 
L 304.56819 64.007918 
L 304.89317 211.45333 
L 305.218149 64.015413 
L 305.543129 206.716032 
L 305.868108 64.015068 
L 306.843047 64.012635 
L 307.168026 210.496696 
L 307.493006 214.56355 
L 307.817985 64.014753 
L 308.142965 213.799072 
L 308.467944 207.946218 
L 308.792924 64.01168 
L 309.117903 64.011435 
L 309.442883 214.986749 
L 309.767862 64.001362 
L 310.092842 105.861043 
L 310.417821 64.005041 
L 311.067781 64.016413 
L 311.39276 64.943998 
L 311.71774 73.169119 
L 312.042719 64.012001 
L 312.367699 210.696171 
L 312.692678 64.005771 
L 313.017658 72.326887 
L 313.342637 111.281233 
L 313.667617 102.79332 
L 313.992596 55.332525 
L 314.317576 124.851004 
L 314.642555 72.33077 
L 314.967535 77.416455 
L 315.292514 63.997799 
L 315.617494 228.123041 
L 315.942473 105.274133 
L 316.267453 64.019487 
L 316.592432 121.531996 
L 316.917412 73.946413 
L 317.242391 63.999074 
L 317.567371 65.102498 
L 317.892351 63.998366 
L 318.21733 68.374982 
L 318.54231 105.037568 
L 318.867289 107.305752 
L 319.192269 206.002994 
L 319.517248 68.58067 
L 319.842228 105.120367 
L 320.167207 71.530073 
L 320.492187 102.585097 
L 320.817166 109.843435 
L 321.142146 64.014754 
L 321.792105 64.012126 
L 322.117084 103.061604 
L 322.442064 64.009215 
L 322.767043 64.007993 
L 323.092023 208.431837 
L 323.417002 64.001741 
L 323.741982 221.437568 
L 324.066962 64.006421 
L 325.0419 63.998673 
L 325.36688 65.107215 
L 325.691859 64.002108 
L 326.016839 64.00356 
L 326.341818 209.584058 
L 326.666798 64.012707 
L 327.316757 64.015216 
L 327.641736 207.76492 
L 327.966716 64.018773 
L 328.616675 64.009233 
L 328.941654 226.036941 
L 329.266634 225.461979 
L 329.591613 208.590899 
L 329.916593 63.998551 
L 330.241572 208.743623 
L 330.566552 64.010674 
L 330.891532 64.006879 
L 331.216511 211.162011 
L 331.541491 216.794004 
L 331.86647 64.016107 
L 332.19145 209.822642 
L 332.516429 64.008702 
L 332.841409 205.781095 
L 333.166388 96.26903 
L 333.491368 225.129701 
L 333.816347 213.255848 
L 334.141327 63.995236 
L 334.466306 209.919888 
L 334.791286 208.067884 
L 335.116265 63.995259 
L 335.441245 111.257596 
L 335.766224 217.60948 
L 336.091204 64.0106 
L 337.716102 63.990042 
L 338.041081 205.28341 
L 338.366061 205.934599 
L 338.69104 63.995403 
L 339.01602 205.945978 
L 339.340999 218.188538 
L 339.665979 63.999684 
L 339.990958 64.001492 
L 340.315938 67.395793 
L 340.640917 63.990046 
L 341.615856 64.005161 
L 341.940835 212.203131 
L 342.265815 211.114321 
L 342.590794 64.016092 
L 343.565733 64.017286 
L 343.890713 225.814509 
L 344.215692 215.805202 
L 344.540672 64.008551 
L 344.865651 64.005214 
L 345.190631 210.823287 
L 345.51561 64.008135 
L 345.84059 211.89704 
L 346.165569 63.993056 
L 347.465487 64.013409 
L 347.790467 207.809826 
L 348.115446 215.410888 
L 348.440426 207.111006 
L 348.765405 206.957216 
L 349.090385 64.018181 
L 349.415364 219.660856 
L 349.740344 63.992758 
L 350.065324 218.548232 
L 350.390303 64.007585 
L 350.715283 206.08844 
L 351.040262 63.993619 
L 351.365242 225.556992 
L 352.015201 64.015413 
L 352.990139 64.018316 
L 353.315119 211.895013 
L 353.640098 210.400245 
L 353.965078 216.149192 
L 354.290057 224.833202 
L 354.615037 64.005965 
L 355.589975 64.006237 
L 355.914955 210.636259 
L 356.239934 64.000505 
L 356.564914 207.942912 
L 356.889894 205.670922 
L 357.214873 64.004045 
L 357.864832 207.317562 
L 358.189812 212.909746 
L 358.514791 215.77497 
L 358.839771 212.49008 
L 359.16475 64.002351 
L 359.48973 64.129252 
L 359.814709 64.00032 
L 361.764586 63.993875 
L 362.089566 210.535333 
L 362.414545 208.790441 
L 362.739525 64.008006 
L 363.064505 210.74144 
L 363.389484 205.098132 
L 363.714464 64.007516 
L 364.039443 224.20739 
L 364.364423 214.499723 
L 364.689402 64.004031 
L 365.014382 214.830468 
L 365.339361 64.010985 
L 365.664341 204.832864 
L 365.98932 64.000764 
L 366.3143 64.013686 
L 366.639279 212.794708 
L 366.964259 63.997824 
L 367.289238 64.010071 
L 367.614218 220.21696 
L 367.939197 206.289202 
L 368.264177 225.926401 
L 368.589156 223.330389 
L 368.914136 221.654217 
L 369.239115 64.002284 
L 369.889075 64.01786 
L 370.214054 210.871335 
L 370.539034 64.007178 
L 370.864013 64.003624 
L 371.188993 226.074259 
L 371.513972 64.00523 
L 372.81389 64.01652 
L 373.13887 206.399963 
L 373.463849 64.001395 
L 374.763767 64.008395 
L 375.088747 209.258529 
L 375.413726 215.182523 
L 375.738706 64.005733 
L 376.063686 205.841936 
L 376.388665 64.01234 
L 377.363604 63.997687 
L 377.688583 205.08821 
L 378.013563 64.011687 
L 378.338542 208.224324 
L 378.663522 215.471152 
L 378.988501 215.602231 
L 379.313481 218.662894 
L 379.63846 64.016695 
L 379.96344 216.525239 
L 380.288419 211.326586 
L 380.613399 64.007455 
L 380.938378 219.060221 
L 381.263358 64.015827 
L 381.588337 64.001581 
L 381.913317 210.519402 
L 382.238296 64.011723 
L 382.563276 64.018477 
L 382.888256 217.322807 
L 383.213235 64.016628 
L 384.188174 64.003478 
L 384.513153 210.328813 
L 384.838133 64.005558 
L 385.163112 213.76072 
L 385.488092 53.570224 
L 385.813071 64.015567 
L 386.138051 208.954378 
L 386.46303 205.843028 
L 386.78801 64.000504 
L 387.112989 63.99756 
L 387.437969 217.117282 
L 387.762948 64.01761 
L 388.087928 111.936477 
L 388.412907 104.976564 
L 388.737887 64.006173 
L 389.062867 64.005125 
L 389.387846 212.829385 
L 389.712826 206.18016 
L 390.037805 64.005335 
L 390.362785 119.680235 
L 390.687764 64.018295 
L 391.012744 121.273336 
L 391.337723 115.70791 
L 391.662703 204.880263 
L 391.987682 64.000393 
L 392.312662 223.118091 
L 392.637641 64.000299 
L 392.962621 64.002243 
L 393.2876 214.311842 
L 393.61258 213.520592 
L 393.937559 64.001699 
L 394.262539 206.9312 
L 394.912498 64.001531 
L 396.537396 64.016289 
L 396.862375 210.418737 
L 397.187355 64.016608 
L 397.512334 206.223971 
L 397.837314 64.018889 
L 398.162293 64.000706 
L 398.487273 209.144598 
L 398.487273 209.144598 
" style="fill:none;stroke:#ff0000;stroke-linecap:square;stroke-width:1.5;"/>
   </g>
   <g id="patch_3">
    <path d="M 57.6 307.584 
L 57.6 41.472 
" style="fill:none;stroke:#000000;stroke-linecap:square;stroke-linejoin:miter;stroke-width:0.8;"/>
   </g>
   <g id="patch_4">
    <path d="M 414.72 307.584 
L 414.72 41.472 
" style="fill:none;stroke:#000000;stroke-linecap:square;stroke-linejoin:miter;stroke-width:0.8;"/>
   </g>
   <g id="patch_5">
    <path d="M 57.6 307.584 
L 414.72 307.584 
" style="fill:none;stroke:#000000;stroke-linecap:square;stroke-linejoin:miter;stroke-width:0.8;"/>
   </g>
   <g id="patch_6">
    <path d="M 57.6 41.472 
L 414.72 41.472 
" style="fill:none;stroke:#000000;stroke-linecap:square;stroke-linejoin:miter;stroke-width:0.8;"/>
   </g>
   <g id="text_17">
    <!-- Population's average and best fitness -->
    <defs>
     <path d="M 19.671875 64.796875 
L 19.671875 37.40625 
L 32.078125 37.40625 
Q 38.96875 37.40625 42.71875 40.96875 
Q 46.484375 44.53125 46.484375 51.125 
Q 46.484375 57.671875 42.71875 61.234375 
Q 38.96875 64.796875 32.078125 64.796875 
z
M 9.8125 72.90625 
L 32.078125 72.90625 
Q 44.34375 72.90625 50.609375 67.359375 
Q 56.890625 61.8125 56.890625 51.125 
Q 56.890625 40.328125 50.609375 34.8125 
Q 44.34375 29.296875 32.078125 29.296875 
L 19.671875 29.296875 
L 19.671875 0 
L 9.8125 0 
z
" id="DejaVuSans-80"/>
     <path d="M 18.109375 8.203125 
L 18.109375 -20.796875 
L 9.078125 -20.796875 
L 9.078125 54.6875 
L 18.109375 54.6875 
L 18.109375 46.390625 
Q 20.953125 51.265625 25.265625 53.625 
Q 29.59375 56 35.59375 56 
Q 45.5625 56 51.78125 48.09375 
Q 58.015625 40.1875 58.015625 27.296875 
Q 58.015625 14.40625 51.78125 6.484375 
Q 45.5625 -1.421875 35.59375 -1.421875 
Q 29.59375 -1.421875 25.265625 0.953125 
Q 20.953125 3.328125 18.109375 8.203125 
z
M 48.6875 27.296875 
Q 48.6875 37.203125 44.609375 42.84375 
Q 40.53125 48.484375 33.40625 48.484375 
Q 26.265625 48.484375 22.1875 42.84375 
Q 18.109375 37.203125 18.109375 27.296875 
Q 18.109375 17.390625 22.1875 11.75 
Q 26.265625 6.109375 33.40625 6.109375 
Q 40.53125 6.109375 44.609375 11.75 
Q 48.6875 17.390625 48.6875 27.296875 
z
" id="DejaVuSans-112"/>
     <path d="M 8.5 21.578125 
L 8.5 54.6875 
L 17.484375 54.6875 
L 17.484375 21.921875 
Q 17.484375 14.15625 20.5 10.265625 
Q 23.53125 6.390625 29.59375 6.390625 
Q 36.859375 6.390625 41.078125 11.03125 
Q 45.3125 15.671875 45.3125 23.6875 
L 45.3125 54.6875 
L 54.296875 54.6875 
L 54.296875 0 
L 45.3125 0 
L 45.3125 8.40625 
Q 42.046875 3.421875 37.71875 1 
Q 33.40625 -1.421875 27.6875 -1.421875 
Q 18.265625 -1.421875 13.375 4.4375 
Q 8.5 10.296875 8.5 21.578125 
z
M 31.109375 56 
z
" id="DejaVuSans-117"/>
     <path d="M 9.421875 75.984375 
L 18.40625 75.984375 
L 18.40625 0 
L 9.421875 0 
z
" id="DejaVuSans-108"/>
     <path d="M 17.921875 72.90625 
L 17.921875 45.796875 
L 9.625 45.796875 
L 9.625 72.90625 
z
" id="DejaVuSans-39"/>
     <path id="DejaVuSans-32"/>
     <path d="M 2.984375 54.6875 
L 12.5 54.6875 
L 29.59375 8.796875 
L 46.6875 54.6875 
L 56.203125 54.6875 
L 35.6875 0 
L 23.484375 0 
z
" id="DejaVuSans-118"/>
     <path d="M 45.40625 27.984375 
Q 45.40625 37.75 41.375 43.109375 
Q 37.359375 48.484375 30.078125 48.484375 
Q 22.859375 48.484375 18.828125 43.109375 
Q 14.796875 37.75 14.796875 27.984375 
Q 14.796875 18.265625 18.828125 12.890625 
Q 22.859375 7.515625 30.078125 7.515625 
Q 37.359375 7.515625 41.375 12.890625 
Q 45.40625 18.265625 45.40625 27.984375 
z
M 54.390625 6.78125 
Q 54.390625 -7.171875 48.1875 -13.984375 
Q 42 -20.796875 29.203125 -20.796875 
Q 24.46875 -20.796875 20.265625 -20.09375 
Q 16.0625 -19.390625 12.109375 -17.921875 
L 12.109375 -9.1875 
Q 16.0625 -11.328125 19.921875 -12.34375 
Q 23.78125 -13.375 27.78125 -13.375 
Q 36.625 -13.375 41.015625 -8.765625 
Q 45.40625 -4.15625 45.40625 5.171875 
L 45.40625 9.625 
Q 42.625 4.78125 38.28125 2.390625 
Q 33.9375 0 27.875 0 
Q 17.828125 0 11.671875 7.65625 
Q 5.515625 15.328125 5.515625 27.984375 
Q 5.515625 40.671875 11.671875 48.328125 
Q 17.828125 56 27.875 56 
Q 33.9375 56 38.28125 53.609375 
Q 42.625 51.21875 45.40625 46.390625 
L 45.40625 54.6875 
L 54.390625 54.6875 
z
" id="DejaVuSans-103"/>
     <path d="M 45.40625 46.390625 
L 45.40625 75.984375 
L 54.390625 75.984375 
L 54.390625 0 
L 45.40625 0 
L 45.40625 8.203125 
Q 42.578125 3.328125 38.25 0.953125 
Q 33.9375 -1.421875 27.875 -1.421875 
Q 17.96875 -1.421875 11.734375 6.484375 
Q 5.515625 14.40625 5.515625 27.296875 
Q 5.515625 40.1875 11.734375 48.09375 
Q 17.96875 56 27.875 56 
Q 33.9375 56 38.25 53.625 
Q 42.578125 51.265625 45.40625 46.390625 
z
M 14.796875 27.296875 
Q 14.796875 17.390625 18.875 11.75 
Q 22.953125 6.109375 30.078125 6.109375 
Q 37.203125 6.109375 41.296875 11.75 
Q 45.40625 17.390625 45.40625 27.296875 
Q 45.40625 37.203125 41.296875 42.84375 
Q 37.203125 48.484375 30.078125 48.484375 
Q 22.953125 48.484375 18.875 42.84375 
Q 14.796875 37.203125 14.796875 27.296875 
z
" id="DejaVuSans-100"/>
     <path d="M 48.6875 27.296875 
Q 48.6875 37.203125 44.609375 42.84375 
Q 40.53125 48.484375 33.40625 48.484375 
Q 26.265625 48.484375 22.1875 42.84375 
Q 18.109375 37.203125 18.109375 27.296875 
Q 18.109375 17.390625 22.1875 11.75 
Q 26.265625 6.109375 33.40625 6.109375 
Q 40.53125 6.109375 44.609375 11.75 
Q 48.6875 17.390625 48.6875 27.296875 
z
M 18.109375 46.390625 
Q 20.953125 51.265625 25.265625 53.625 
Q 29.59375 56 35.59375 56 
Q 45.5625 56 51.78125 48.09375 
Q 58.015625 40.1875 58.015625 27.296875 
Q 58.015625 14.40625 51.78125 6.484375 
Q 45.5625 -1.421875 35.59375 -1.421875 
Q 29.59375 -1.421875 25.265625 0.953125 
Q 20.953125 3.328125 18.109375 8.203125 
L 18.109375 0 
L 9.078125 0 
L 9.078125 75.984375 
L 18.109375 75.984375 
z
" id="DejaVuSans-98"/>
     <path d="M 37.109375 75.984375 
L 37.109375 68.5 
L 28.515625 68.5 
Q 23.6875 68.5 21.796875 66.546875 
Q 19.921875 64.59375 19.921875 59.515625 
L 19.921875 54.6875 
L 34.71875 54.6875 
L 34.71875 47.703125 
L 19.921875 47.703125 
L 19.921875 0 
L 10.890625 0 
L 10.890625 47.703125 
L 2.296875 47.703125 
L 2.296875 54.6875 
L 10.890625 54.6875 
L 10.890625 58.5 
Q 10.890625 67.625 15.140625 71.796875 
Q 19.390625 75.984375 28.609375 75.984375 
z
" id="DejaVuSans-102"/>
    </defs>
    <g transform="translate(123.315 35.472)scale(0.12 -0.12)">
     <use xlink:href="#DejaVuSans-80"/>
     <use x="60.255859" xlink:href="#DejaVuSans-111"/>
     <use x="121.4375" xlink:href="#DejaVuSans-112"/>
     <use x="184.914062" xlink:href="#DejaVuSans-117"/>
     <use x="248.292969" xlink:href="#DejaVuSans-108"/>
     <use x="276.076172" xlink:href="#DejaVuSans-97"/>
     <use x="337.355469" xlink:href="#DejaVuSans-116"/>
     <use x="376.564453" xlink:href="#DejaVuSans-105"/>
     <use x="404.347656" xlink:href="#DejaVuSans-111"/>
     <use x="465.529297" xlink:href="#DejaVuSans-110"/>
     <use x="528.908203" xlink:href="#DejaVuSans-39"/>
     <use x="556.398438" xlink:href="#DejaVuSans-115"/>
     <use x="608.498047" xlink:href="#DejaVuSans-32"/>
     <use x="640.285156" xlink:href="#DejaVuSans-97"/>
     <use x="701.564453" xlink:href="#DejaVuSans-118"/>
     <use x="760.744141" xlink:href="#DejaVuSans-101"/>
     <use x="822.267578" xlink:href="#DejaVuSans-114"/>
     <use x="863.380859" xlink:href="#DejaVuSans-97"/>
     <use x="924.660156" xlink:href="#DejaVuSans-103"/>
     <use x="988.136719" xlink:href="#DejaVuSans-101"/>
     <use x="1049.660156" xlink:href="#DejaVuSans-32"/>
     <use x="1081.447266" xlink:href="#DejaVuSans-97"/>
     <use x="1142.726562" xlink:href="#DejaVuSans-110"/>
     <use x="1206.105469" xlink:href="#DejaVuSans-100"/>
     <use x="1269.582031" xlink:href="#DejaVuSans-32"/>
     <use x="1301.369141" xlink:href="#DejaVuSans-98"/>
     <use x="1364.845703" xlink:href="#DejaVuSans-101"/>
     <use x="1426.369141" xlink:href="#DejaVuSans-115"/>
     <use x="1478.46875" xlink:href="#DejaVuSans-116"/>
     <use x="1517.677734" xlink:href="#DejaVuSans-32"/>
     <use x="1549.464844" xlink:href="#DejaVuSans-102"/>
     <use x="1584.669922" xlink:href="#DejaVuSans-105"/>
     <use x="1612.453125" xlink:href="#DejaVuSans-116"/>
     <use x="1651.662109" xlink:href="#DejaVuSans-110"/>
     <use x="1715.041016" xlink:href="#DejaVuSans-101"/>
     <use x="1776.564453" xlink:href="#DejaVuSans-115"/>
     <use x="1828.664062" xlink:href="#DejaVuSans-115"/>
    </g>
   </g>
   <g id="legend_1">
    <g id="patch_7">
     <path d="M 334.779375 190.706125 
L 407.72 190.706125 
Q 409.72 190.706125 409.72 188.706125 
L 409.72 160.349875 
Q 409.72 158.349875 407.72 158.349875 
L 334.779375 158.349875 
Q 332.779375 158.349875 332.779375 160.349875 
L 332.779375 188.706125 
Q 332.779375 190.706125 334.779375 190.706125 
z
" style="fill:#ffffff;opacity:0.8;stroke:#cccccc;stroke-linejoin:miter;"/>
    </g>
    <g id="line2d_31">
     <path d="M 336.779375 166.448312 
L 356.779375 166.448312 
" style="fill:none;stroke:#0000ff;stroke-linecap:square;stroke-width:1.5;"/>
    </g>
    <g id="line2d_32"/>
    <g id="text_18">
     <!-- average -->
     <g transform="translate(364.779375 169.948312)scale(0.1 -0.1)">
      <use xlink:href="#DejaVuSans-97"/>
      <use x="61.279297" xlink:href="#DejaVuSans-118"/>
      <use x="120.458984" xlink:href="#DejaVuSans-101"/>
      <use x="181.982422" xlink:href="#DejaVuSans-114"/>
      <use x="223.095703" xlink:href="#DejaVuSans-97"/>
      <use x="284.375" xlink:href="#DejaVuSans-103"/>
      <use x="347.851562" xlink:href="#DejaVuSans-101"/>
     </g>
    </g>
    <g id="line2d_33">
     <path d="M 336.779375 181.126437 
L 356.779375 181.126437 
" style="fill:none;stroke:#ff0000;stroke-linecap:square;stroke-width:1.5;"/>
    </g>
    <g id="line2d_34"/>
    <g id="text_19">
     <!-- best -->
     <g transform="translate(364.779375 184.626437)scale(0.1 -0.1)">
      <use xlink:href="#DejaVuSans-98"/>
      <use x="63.476562" xlink:href="#DejaVuSans-101"/>
      <use x="125" xlink:href="#DejaVuSans-115"/>
      <use x="177.099609" xlink:href="#DejaVuSans-116"/>
     </g>
    </g>
   </g>
  </g>
 </g>
 <defs>
  <clipPath id="pffb96cb6b8">
   <rect height="266.112" width="357.12" x="57.6" y="41.472"/>
  </clipPath>
 </defs>
</svg>
