<?xml version="1.0" encoding="UTF-8" standalone="no"?>
<!DOCTYPE svg PUBLIC "-//W3C//DTD SVG 1.1//EN"
 "http://www.w3.org/Graphics/SVG/1.1/DTD/svg11.dtd">
<!-- Generated by graphviz version 2.40.1 (20161225.0304)
 -->
<!-- Title: %3 Pages: 1 -->
<svg width="939pt" height="262pt"
 viewBox="0.00 0.00 938.75 262.43" xmlns="http://www.w3.org/2000/svg" xmlns:xlink="http://www.w3.org/1999/xlink">
<g id="graph0" class="graph" transform="scale(1 1) rotate(0) translate(4 258.4335)">
<title>%3</title>
<polygon fill="#ffffff" stroke="transparent" points="-4,4 -4,-258.4335 934.7487,-258.4335 934.7487,4 -4,4"/>
<!-- x_self -->
<g id="node1" class="node">
<title>x_self</title>
<polygon fill="#d3d3d3" stroke="#000000" points="38,-231.6137 0,-231.6137 0,-213.6137 38,-213.6137 38,-231.6137"/>
<text text-anchor="middle" x="19" y="-220.4137" font-family="Times,serif" font-size="9.00" fill="#000000">x_self</text>
</g>
<!-- y_self -->
<g id="node2" class="node">
<title>y_self</title>
<polygon fill="#d3d3d3" stroke="#000000" points="94,-231.6137 56,-231.6137 56,-213.6137 94,-213.6137 94,-231.6137"/>
<text text-anchor="middle" x="75" y="-220.4137" font-family="Times,serif" font-size="9.00" fill="#000000">y_self</text>
</g>
<!-- x_landmark -->
<g id="node3" class="node">
<title>x_landmark</title>
<polygon fill="#d3d3d3" stroke="#000000" points="171.5,-231.6137 112.5,-231.6137 112.5,-213.6137 171.5,-213.6137 171.5,-231.6137"/>
<text text-anchor="middle" x="142" y="-220.4137" font-family="Times,serif" font-size="9.00" fill="#000000">x_landmark</text>
</g>
<!-- backward -->
<g id="node13" class="node">
<title>backward</title>
<ellipse fill="#add8e6" stroke="#000000" cx="142" cy="-118.7315" rx="36.125" ry="36.125"/>
<text text-anchor="middle" x="142" y="-116.5315" font-family="Times,serif" font-size="9.00" fill="#000000">backward</text>
</g>
<!-- x_landmark&#45;&gt;backward -->
<g id="edge2" class="edge">
<title>x_landmark&#45;&gt;backward</title>
<path fill="none" stroke="#00ff00" stroke-width=".1623" stroke-dasharray="1,5" d="M142,-213.3949C142,-202.4686 142,-183.4497 142,-165.3121"/>
<polygon fill="#00ff00" stroke="#00ff00" stroke-width=".1623" points="145.5001,-165.0941 142,-155.0941 138.5001,-165.0941 145.5001,-165.0941"/>
</g>
<!-- y_landmark -->
<g id="node4" class="node">
<title>y_landmark</title>
<polygon fill="#d3d3d3" stroke="#000000" points="248.5,-231.6137 189.5,-231.6137 189.5,-213.6137 248.5,-213.6137 248.5,-231.6137"/>
<text text-anchor="middle" x="219" y="-220.4137" font-family="Times,serif" font-size="9.00" fill="#000000">y_landmark</text>
</g>
<!-- x_other -->
<g id="node5" class="node">
<title>x_other</title>
<polygon fill="#d3d3d3" stroke="#000000" points="311,-231.6137 267,-231.6137 267,-213.6137 311,-213.6137 311,-231.6137"/>
<text text-anchor="middle" x="289" y="-220.4137" font-family="Times,serif" font-size="9.00" fill="#000000">x_other</text>
</g>
<!-- y_other -->
<g id="node6" class="node">
<title>y_other</title>
<polygon fill="#d3d3d3" stroke="#000000" points="373,-231.6137 329,-231.6137 329,-213.6137 373,-213.6137 373,-231.6137"/>
<text text-anchor="middle" x="351" y="-220.4137" font-family="Times,serif" font-size="9.00" fill="#000000">y_other</text>
</g>
<!-- right -->
<g id="node10" class="node">
<title>right</title>
<ellipse fill="#add8e6" stroke="#000000" cx="384" cy="-23.3345" rx="23.1702" ry="23.1702"/>
<text text-anchor="middle" x="384" y="-21.1345" font-family="Times,serif" font-size="9.00" fill="#000000">right</text>
</g>
<!-- y_other&#45;&gt;right -->
<g id="edge3" class="edge">
<title>y_other&#45;&gt;right</title>
<path fill="none" stroke="#ff0000" stroke-width=".2889" d="M344.7698,-213.3942C330.0844,-190.43 296.0623,-129.1791 317,-82.669 324.8172,-65.3043 340.5064,-50.9665 354.7382,-40.7375"/>
<polygon fill="#ff0000" stroke="#ff0000" stroke-width=".2889" points="357.0181,-43.4202 363.3278,-34.9091 353.0877,-37.6278 357.0181,-43.4202"/>
</g>
<!-- 8206 -->
<g id="node15" class="node">
<title>8206</title>
<ellipse fill="#ffffff" stroke="#000000" cx="351" cy="-118.7315" rx="25" ry="25"/>
<text text-anchor="middle" x="351" y="-116.5315" font-family="Times,serif" font-size="9.00" fill="#000000">8206</text>
</g>
<!-- y_other&#45;&gt;8206 -->
<g id="edge4" class="edge">
<title>y_other&#45;&gt;8206</title>
<path fill="none" stroke="#00ff00" stroke-width=".1241" d="M351,-213.3949C351,-200.1414 351,-174.9808 351,-153.9291"/>
<polygon fill="#00ff00" stroke="#00ff00" stroke-width=".1241" points="354.5001,-153.6882 351,-143.6882 347.5001,-153.6882 354.5001,-153.6882"/>
</g>
<!-- 8302 -->
<g id="node16" class="node">
<title>8302</title>
<ellipse fill="#ffffff" stroke="#000000" cx="418" cy="-118.7315" rx="25" ry="25"/>
<text text-anchor="middle" x="418" y="-116.5315" font-family="Times,serif" font-size="9.00" fill="#000000">8302</text>
</g>
<!-- y_other&#45;&gt;8302 -->
<g id="edge7" class="edge">
<title>y_other&#45;&gt;8302</title>
<path fill="none" stroke="#00ff00" stroke-width=".1685" d="M356.9458,-213.3949C366.2347,-198.9927 384.592,-170.53 398.7627,-148.5585"/>
<polygon fill="#00ff00" stroke="#00ff00" stroke-width=".1685" points="401.8681,-150.2012 404.3469,-139.9004 395.9855,-146.4071 401.8681,-150.2012"/>
</g>
<!-- &#45;7 -->
<g id="node7" class="node">
<title>&#45;7</title>
<polygon fill="#d3d3d3" stroke="#000000" points="552,-231.6137 528,-231.6137 528,-213.6137 552,-213.6137 552,-231.6137"/>
<text text-anchor="middle" x="540" y="-220.4137" font-family="Times,serif" font-size="9.00" fill="#000000">&#45;7</text>
</g>
<!-- &#45;8 -->
<g id="node8" class="node">
<title>&#45;8</title>
<polygon fill="#d3d3d3" stroke="#000000" points="594,-231.6137 570,-231.6137 570,-213.6137 594,-213.6137 594,-231.6137"/>
<text text-anchor="middle" x="582" y="-220.4137" font-family="Times,serif" font-size="9.00" fill="#000000">&#45;8</text>
</g>
<!-- stay -->
<g id="node9" class="node">
<title>stay</title>
<ellipse fill="#add8e6" stroke="#000000" cx="634" cy="-222.6137" rx="21.8409" ry="21.8409"/>
<text text-anchor="middle" x="634" y="-220.4137" font-family="Times,serif" font-size="9.00" fill="#000000">stay</text>
</g>
<!-- left -->
<g id="node11" class="node">
<title>left</title>
<ellipse fill="#add8e6" stroke="#000000" cx="694" cy="-222.6137" rx="19.6" ry="19.6"/>
<text text-anchor="middle" x="694" y="-220.4137" font-family="Times,serif" font-size="9.00" fill="#000000">left</text>
</g>
<!-- forward -->
<g id="node12" class="node">
<title>forward</title>
<ellipse fill="#add8e6" stroke="#000000" cx="764" cy="-222.6137" rx="31.6406" ry="31.6406"/>
<text text-anchor="middle" x="764" y="-220.4137" font-family="Times,serif" font-size="9.00" fill="#000000">forward</text>
</g>
<!-- 8171 -->
<g id="node14" class="node">
<title>8171</title>
<ellipse fill="#ffffff" stroke="#000000" cx="839" cy="-222.6137" rx="25" ry="25"/>
<text text-anchor="middle" x="839" y="-220.4137" font-family="Times,serif" font-size="9.00" fill="#000000">8171</text>
</g>
<!-- 8206&#45;&gt;right -->
<g id="edge5" class="edge">
<title>8206&#45;&gt;right</title>
<path fill="none" stroke="#ff0000" stroke-width=".2929" d="M359.1573,-95.1502C363.3247,-83.103 368.4556,-68.2704 372.9704,-55.219"/>
<polygon fill="#ff0000" stroke="#ff0000" stroke-width=".2929" points="376.3151,-56.2561 376.2766,-45.6613 369.6997,-53.9677 376.3151,-56.2561"/>
</g>
<!-- 8302&#45;&gt;right -->
<g id="edge8" class="edge">
<title>8302&#45;&gt;right</title>
<path fill="none" stroke="#00ff00" stroke-width=".1111" d="M409.5955,-95.1502C405.2705,-83.0151 399.9382,-68.0537 395.262,-54.9335"/>
<polygon fill="#00ff00" stroke="#00ff00" stroke-width=".1111" points="398.4958,-53.5811 391.8416,-45.3366 391.902,-55.9312 398.4958,-53.5811"/>
</g>
<!-- 8243 -->
<g id="node17" class="node">
<title>8243</title>
<ellipse fill="#ffffff" stroke="#000000" cx="485" cy="-222.6137" rx="25" ry="25"/>
<text text-anchor="middle" x="485" y="-220.4137" font-family="Times,serif" font-size="9.00" fill="#000000">8243</text>
</g>
<!-- 8126 -->
<g id="node19" class="node">
<title>8126</title>
<ellipse fill="#ffffff" stroke="#000000" cx="485" cy="-118.7315" rx="25" ry="25"/>
<text text-anchor="middle" x="485" y="-116.5315" font-family="Times,serif" font-size="9.00" fill="#000000">8126</text>
</g>
<!-- 8243&#45;&gt;8126 -->
<g id="edge6" class="edge">
<title>8243&#45;&gt;8126</title>
<path fill="none" stroke="#00ff00" stroke-width=".1347" d="M485,-197.7314C485,-184.5935 485,-168.2511 485,-153.8451"/>
<polygon fill="#00ff00" stroke="#00ff00" stroke-width=".1347" points="488.5001,-153.7709 485,-143.7709 481.5001,-153.7709 488.5001,-153.7709"/>
</g>
<!-- 8054 -->
<g id="node18" class="node">
<title>8054</title>
<ellipse fill="#ffffff" stroke="#000000" cx="906" cy="-222.6137" rx="25" ry="25"/>
<text text-anchor="middle" x="906" y="-220.4137" font-family="Times,serif" font-size="9.00" fill="#000000">8054</text>
</g>
<!-- 8126&#45;&gt;right -->
<g id="edge1" class="edge">
<title>8126&#45;&gt;right</title>
<path fill="none" stroke="#00ff00" stroke-width=".436" d="M468.5997,-100.0104C463.4186,-94.316 457.5857,-88.1242 452,-82.669 438.5404,-69.5238 422.7465,-55.6559 409.7694,-44.6354"/>
<polygon fill="#00ff00" stroke="#00ff00" stroke-width=".436" points="412.0022,-41.9399 402.0995,-38.1735 407.492,-47.2933 412.0022,-41.9399"/>
</g>
</g>
</svg>
