<?xml version="1.0" encoding="UTF-8" standalone="no"?>
<!DOCTYPE svg PUBLIC "-//W3C//DTD SVG 1.1//EN"
 "http://www.w3.org/Graphics/SVG/1.1/DTD/svg11.dtd">
<!-- Generated by graphviz version 2.40.1 (20161225.0304)
 -->
<!-- Title: %3 Pages: 1 -->
<svg width="919pt" height="213pt"
 viewBox="0.00 0.00 918.87 212.55" xmlns="http://www.w3.org/2000/svg" xmlns:xlink="http://www.w3.org/1999/xlink">
<g id="graph0" class="graph" transform="scale(1 1) rotate(0) translate(4 208.5513)">
<title>%3</title>
<polygon fill="#ffffff" stroke="transparent" points="-4,4 -4,-208.5513 914.8709,-208.5513 914.8709,4 -4,4"/>
<!-- x&#45;vel -->
<g id="node1" class="node">
<title>x&#45;vel</title>
<polygon fill="#d3d3d3" stroke="#000000" points="390.2303,-204.5513 355.2303,-204.5513 355.2303,-186.5513 390.2303,-186.5513 390.2303,-204.5513"/>
<text text-anchor="middle" x="372.7303" y="-193.3513" font-family="Times,serif" font-size="9.00" fill="#000000">x&#45;vel</text>
</g>
<!-- none -->
<g id="node13" class="node">
<title>none</title>
<ellipse fill="#add8e6" stroke="#000000" cx="122.7303" cy="-36.0624" rx="24.0833" ry="24.0833"/>
<text text-anchor="middle" x="122.7303" y="-33.8624" font-family="Times,serif" font-size="9.00" fill="#000000">none</text>
</g>
<!-- x&#45;vel&#45;&gt;none -->
<g id="edge18" class="edge">
<title>x&#45;vel&#45;&gt;none</title>
<path fill="none" stroke="#00ff00" stroke-width=".1834" stroke-dasharray="1,5" d="M355.1645,-194.6885C322.6963,-192.3161 252.274,-183.4621 204.7303,-150.5513 174.2941,-129.4826 151.1769,-93.2881 137.3676,-67.2293"/>
<polygon fill="#00ff00" stroke="#00ff00" stroke-width=".1834" points="140.3815,-65.436 132.7048,-58.134 134.1524,-68.6295 140.3815,-65.436"/>
</g>
<!-- right -->
<g id="node14" class="node">
<title>right</title>
<ellipse fill="#add8e6" stroke="#000000" cx="798.7303" cy="-36.0624" rx="23.1702" ry="23.1702"/>
<text text-anchor="middle" x="798.7303" y="-33.8624" font-family="Times,serif" font-size="9.00" fill="#000000">right</text>
</g>
<!-- x&#45;vel&#45;&gt;right -->
<g id="edge19" class="edge">
<title>x&#45;vel&#45;&gt;right</title>
<path fill="none" stroke="#00ff00" stroke-width=".2777" stroke-dasharray="1,5" d="M390.3192,-193.035C404.0353,-191.1184 423.572,-188.4883 440.7303,-186.5513 483.4236,-181.7318 796.7987,-182.3145 825.7303,-150.5513 847.1638,-127.0202 832.4907,-89.7044 817.7315,-64.111"/>
<polygon fill="#00ff00" stroke="#00ff00" stroke-width=".2777" points="820.5387,-61.9905 812.3568,-55.2595 814.5554,-65.6237 820.5387,-61.9905"/>
</g>
<!-- 701 -->
<g id="node19" class="node">
<title>701</title>
<ellipse fill="#ffffff" stroke="#000000" cx="372.7303" cy="-129.3381" rx="21.4286" ry="21.4286"/>
<text text-anchor="middle" x="372.7303" y="-127.1381" font-family="Times,serif" font-size="9.00" fill="#000000">701</text>
</g>
<!-- x&#45;vel&#45;&gt;701 -->
<g id="edge35" class="edge">
<title>x&#45;vel&#45;&gt;701</title>
<path fill="none" stroke="#ff0000" stroke-width=".2175" d="M372.7303,-186.3446C372.7303,-179.6836 372.7303,-170.2587 372.7303,-160.9866"/>
<polygon fill="#ff0000" stroke="#ff0000" stroke-width=".2175" points="376.2304,-160.7384 372.7303,-150.7385 369.2304,-160.7385 376.2304,-160.7384"/>
</g>
<!-- y&#45;vel -->
<g id="node2" class="node">
<title>y&#45;vel</title>
<polygon fill="#d3d3d3" stroke="#000000" points="333.2303,-138.3381 298.2303,-138.3381 298.2303,-120.3381 333.2303,-120.3381 333.2303,-138.3381"/>
<text text-anchor="middle" x="315.7303" y="-127.1381" font-family="Times,serif" font-size="9.00" fill="#000000">y&#45;vel</text>
</g>
<!-- left -->
<g id="node15" class="node">
<title>left</title>
<ellipse fill="#add8e6" stroke="#000000" cx="475.7303" cy="-36.0624" rx="19.6" ry="19.6"/>
<text text-anchor="middle" x="475.7303" y="-33.8624" font-family="Times,serif" font-size="9.00" fill="#000000">left</text>
</g>
<!-- y&#45;vel&#45;&gt;left -->
<g id="edge26" class="edge">
<title>y&#45;vel&#45;&gt;left</title>
<path fill="none" stroke="#ff0000" stroke-width=".1261" d="M326.4516,-120.2328C331.2847,-116.3093 337.1502,-111.7907 342.7303,-108.1249 377.8755,-85.0364 421.0877,-62.6383 448.5262,-49.0996"/>
<polygon fill="#ff0000" stroke="#ff0000" stroke-width=".1261" points="450.0893,-52.2314 457.5346,-44.6937 447.0137,-45.9432 450.0893,-52.2314"/>
</g>
<!-- forward -->
<g id="node16" class="node">
<title>forward</title>
<ellipse fill="#add8e6" stroke="#000000" cx="253.7303" cy="-36.0624" rx="31.6406" ry="31.6406"/>
<text text-anchor="middle" x="253.7303" y="-33.8624" font-family="Times,serif" font-size="9.00" fill="#000000">forward</text>
</g>
<!-- y&#45;vel&#45;&gt;forward -->
<g id="edge4" class="edge">
<title>y&#45;vel&#45;&gt;forward</title>
<path fill="none" stroke="#00ff00" stroke-width=".3661" stroke-dasharray="1,5" d="M309.5589,-120.0535C301.9781,-108.6486 288.6808,-88.6435 276.965,-71.0177"/>
<polygon fill="#00ff00" stroke="#00ff00" stroke-width=".3661" points="279.8231,-68.9949 271.3726,-62.6043 273.9935,-72.8699 279.8231,-68.9949"/>
</g>
<!-- x&#45;pos -->
<g id="node3" class="node">
<title>x&#45;pos</title>
<polygon fill="#d3d3d3" stroke="#000000" points="447.7303,-138.3381 411.7303,-138.3381 411.7303,-120.3381 447.7303,-120.3381 447.7303,-138.3381"/>
<text text-anchor="middle" x="429.7303" y="-127.1381" font-family="Times,serif" font-size="9.00" fill="#000000">x&#45;pos</text>
</g>
<!-- x&#45;pos&#45;&gt;left -->
<g id="edge6" class="edge">
<title>x&#45;pos&#45;&gt;left</title>
<path fill="none" stroke="#00ff00" stroke-width=".6857" stroke-dasharray="1,5" d="M434.3092,-120.0535C440.8023,-106.8872 452.9481,-82.2587 462.4154,-63.0615"/>
<polygon fill="#00ff00" stroke="#00ff00" stroke-width=".6857" points="465.6604,-64.3948 466.9444,-53.878 459.3823,-61.2986 465.6604,-64.3948"/>
</g>
<!-- y&#45;pos -->
<g id="node4" class="node">
<title>y&#45;pos</title>
<polygon fill="#d3d3d3" stroke="#000000" points="53.7303,-204.5513 17.7303,-204.5513 17.7303,-186.5513 53.7303,-186.5513 53.7303,-204.5513"/>
<text text-anchor="middle" x="35.7303" y="-193.3513" font-family="Times,serif" font-size="9.00" fill="#000000">y&#45;pos</text>
</g>
<!-- y&#45;pos&#45;&gt;none -->
<g id="edge16" class="edge">
<title>y&#45;pos&#45;&gt;none</title>
<path fill="none" stroke="#00ff00" stroke-width=".1085" d="M27.2334,-186.4036C19.9257,-177.864 9.9206,-164.3906 5.7303,-150.5513 .2661,-132.5042 -3.4646,-124.5873 5.7303,-108.1249 23.4472,-76.4051 61.4925,-56.9219 89.4088,-46.3423"/>
<polygon fill="#00ff00" stroke="#00ff00" stroke-width=".1085" points="90.946,-49.5094 99.1791,-42.8411 88.5845,-42.9198 90.946,-49.5094"/>
</g>
<!-- y&#45;pos&#45;&gt;forward -->
<g id="edge15" class="edge">
<title>y&#45;pos&#45;&gt;forward</title>
<path fill="none" stroke="#ff0000" stroke-width=".2617" d="M48.0756,-186.5195C80.6863,-162.6615 170.013,-97.3101 219.5367,-61.0785"/>
<polygon fill="#ff0000" stroke="#ff0000" stroke-width=".2617" points="221.7093,-63.8258 227.7134,-55.0964 217.5761,-58.1762 221.7093,-63.8258"/>
</g>
<!-- 443 -->
<g id="node18" class="node">
<title>443</title>
<ellipse fill="#ffffff" stroke="#000000" cx="35.7303" cy="-129.3381" rx="21.4286" ry="21.4286"/>
<text text-anchor="middle" x="35.7303" y="-127.1381" font-family="Times,serif" font-size="9.00" fill="#000000">443</text>
</g>
<!-- y&#45;pos&#45;&gt;443 -->
<g id="edge34" class="edge">
<title>y&#45;pos&#45;&gt;443</title>
<path fill="none" stroke="#00ff00" stroke-width=".3885" d="M35.7303,-186.3446C35.7303,-179.6836 35.7303,-170.2587 35.7303,-160.9866"/>
<polygon fill="#00ff00" stroke="#00ff00" stroke-width=".3885" points="39.2304,-160.7384 35.7303,-150.7385 32.2304,-160.7385 39.2304,-160.7384"/>
</g>
<!-- x&#45;lm1&#45;vec -->
<g id="node5" class="node">
<title>x&#45;lm1&#45;vec</title>
<polygon fill="#d3d3d3" stroke="#000000" points="573.2303,-204.5513 520.2303,-204.5513 520.2303,-186.5513 573.2303,-186.5513 573.2303,-204.5513"/>
<text text-anchor="middle" x="546.7303" y="-193.3513" font-family="Times,serif" font-size="9.00" fill="#000000">x&#45;lm1&#45;vec</text>
</g>
<!-- y&#45;lm1&#45;vec -->
<g id="node6" class="node">
<title>y&#45;lm1&#45;vec</title>
<polygon fill="#d3d3d3" stroke="#000000" points="280.2303,-138.3381 227.2303,-138.3381 227.2303,-120.3381 280.2303,-120.3381 280.2303,-138.3381"/>
<text text-anchor="middle" x="253.7303" y="-127.1381" font-family="Times,serif" font-size="9.00" fill="#000000">y&#45;lm1&#45;vec</text>
</g>
<!-- y&#45;lm1&#45;vec&#45;&gt;left -->
<g id="edge8" class="edge">
<title>y&#45;lm1&#45;vec&#45;&gt;left</title>
<path fill="none" stroke="#00ff00" stroke-width=".122" d="M267.3784,-120.2931C273.7233,-116.2915 281.4592,-111.6944 288.7303,-108.1249 342.9715,-81.497 409.6815,-57.8325 446.9788,-45.3657"/>
<polygon fill="#00ff00" stroke="#00ff00" stroke-width=".122" points="448.2902,-48.6185 456.6837,-42.1532 446.0904,-41.9731 448.2902,-48.6185"/>
</g>
<!-- y&#45;lm1&#45;vec&#45;&gt;forward -->
<g id="edge23" class="edge">
<title>y&#45;lm1&#45;vec&#45;&gt;forward</title>
<path fill="none" stroke="#00ff00" stroke-width=".4087" stroke-dasharray="1,5" d="M253.7303,-120.0535C253.7303,-110.1499 253.7303,-93.761 253.7303,-78.0765"/>
<polygon fill="#00ff00" stroke="#00ff00" stroke-width=".4087" points="257.2304,-77.9465 253.7303,-67.9466 250.2304,-77.9466 257.2304,-77.9465"/>
</g>
<!-- x&#45;lm2&#45;vec -->
<g id="node7" class="node">
<title>x&#45;lm2&#45;vec</title>
<polygon fill="#d3d3d3" stroke="#000000" points="502.2303,-204.5513 449.2303,-204.5513 449.2303,-186.5513 502.2303,-186.5513 502.2303,-204.5513"/>
<text text-anchor="middle" x="475.7303" y="-193.3513" font-family="Times,serif" font-size="9.00" fill="#000000">x&#45;lm2&#45;vec</text>
</g>
<!-- x&#45;lm2&#45;vec&#45;&gt;right -->
<g id="edge1" class="edge">
<title>x&#45;lm2&#45;vec&#45;&gt;right</title>
<path fill="none" stroke="#00ff00" stroke-width="1.1925" d="M502.3706,-188.409C505.5109,-187.7105 508.6818,-187.0699 511.7303,-186.5513 554.6315,-179.2527 872.4071,-182.706 901.7303,-150.5513 934.1552,-114.9956 870.077,-72.8454 829.1615,-50.9476"/>
<polygon fill="#00ff00" stroke="#00ff00" stroke-width="1.1925" points="830.5637,-47.7315 820.0784,-46.2118 827.3274,-53.9385 830.5637,-47.7315"/>
</g>
<!-- x&#45;lm2&#45;vec&#45;&gt;left -->
<g id="edge27" class="edge">
<title>x&#45;lm2&#45;vec&#45;&gt;left</title>
<path fill="none" stroke="#ff0000" stroke-width="1.2247" d="M475.7303,-186.5195C475.7303,-163.7287 475.7303,-103.0736 475.7303,-66.1091"/>
<polygon fill="#ff0000" stroke="#ff0000" stroke-width="1.2247" points="479.2304,-65.9142 475.7303,-55.9142 472.2304,-65.9143 479.2304,-65.9142"/>
</g>
<!-- x&#45;lm2&#45;vec&#45;&gt;forward -->
<g id="edge3" class="edge">
<title>x&#45;lm2&#45;vec&#45;&gt;forward</title>
<path fill="none" stroke="#00ff00" stroke-width=".2012" stroke-dasharray="1,5" d="M449.0433,-191.834C384.5939,-182.7321 225.1912,-159.4262 217.7303,-150.5513 198.4203,-127.5818 212.2308,-94.2216 228.0075,-69.4316"/>
<polygon fill="#00ff00" stroke="#00ff00" stroke-width=".2012" points="230.9631,-71.3082 233.6189,-61.0516 225.1467,-67.4134 230.9631,-71.3082"/>
</g>
<!-- backward -->
<g id="node17" class="node">
<title>backward</title>
<ellipse fill="#add8e6" stroke="#000000" cx="695.7303" cy="-36.0624" rx="36.125" ry="36.125"/>
<text text-anchor="middle" x="695.7303" y="-33.8624" font-family="Times,serif" font-size="9.00" fill="#000000">backward</text>
</g>
<!-- x&#45;lm2&#45;vec&#45;&gt;backward -->
<g id="edge2" class="edge">
<title>x&#45;lm2&#45;vec&#45;&gt;backward</title>
<path fill="none" stroke="#ff0000" stroke-width=".7887" d="M502.3897,-188.5156C505.5265,-187.798 508.6915,-187.1238 511.7303,-186.5513 573.597,-174.8968 751.1391,-197.8109 792.7303,-150.5513 820.614,-118.8675 774.3554,-81.4325 736.63,-58.2154"/>
<polygon fill="#ff0000" stroke="#ff0000" stroke-width=".7887" points="738.1432,-55.0423 727.7639,-52.9159 734.5518,-61.0508 738.1432,-55.0423"/>
</g>
<!-- x&#45;lm2&#45;vec&#45;&gt;701 -->
<g id="edge32" class="edge">
<title>x&#45;lm2&#45;vec&#45;&gt;701</title>
<path fill="none" stroke="#00ff00" stroke-width=".1714" d="M460.4554,-186.5182C445.5631,-177.622 422.3556,-163.5202 402.7303,-150.5513 401.3034,-149.6084 399.8463,-148.6302 398.381,-147.6346"/>
<polygon fill="#00ff00" stroke="#00ff00" stroke-width=".1714" points="400.2652,-144.6821 390.0518,-141.8648 396.2791,-150.4364 400.2652,-144.6821"/>
</g>
<!-- y&#45;lm2&#45;vec -->
<g id="node8" class="node">
<title>y&#45;lm2&#45;vec</title>
<polygon fill="#d3d3d3" stroke="#000000" points="783.2303,-138.3381 730.2303,-138.3381 730.2303,-120.3381 783.2303,-120.3381 783.2303,-138.3381"/>
<text text-anchor="middle" x="756.7303" y="-127.1381" font-family="Times,serif" font-size="9.00" fill="#000000">y&#45;lm2&#45;vec</text>
</g>
<!-- y&#45;lm2&#45;vec&#45;&gt;right -->
<g id="edge28" class="edge">
<title>y&#45;lm2&#45;vec&#45;&gt;right</title>
<path fill="none" stroke="#ff0000" stroke-width=".4326" stroke-dasharray="1,5" d="M760.911,-120.0535C766.4591,-107.7321 776.5271,-85.3724 784.8809,-66.82"/>
<polygon fill="#ff0000" stroke="#ff0000" stroke-width=".4326" points="788.1457,-68.0939 789.0601,-57.5386 781.7629,-65.2198 788.1457,-68.0939"/>
</g>
<!-- y&#45;lm2&#45;vec&#45;&gt;left -->
<g id="edge11" class="edge">
<title>y&#45;lm2&#45;vec&#45;&gt;left</title>
<path fill="none" stroke="#ff0000" stroke-width=".3915" d="M743.1331,-120.2488C736.5658,-116.1431 728.4504,-111.4736 720.7303,-108.1249 645.857,-75.6473 551.9849,-52.6169 505.1489,-42.2398"/>
<polygon fill="#ff0000" stroke="#ff0000" stroke-width=".3915" points="505.8742,-38.8157 495.3579,-40.1038 504.3821,-45.6549 505.8742,-38.8157"/>
</g>
<!-- y&#45;lm2&#45;vec&#45;&gt;backward -->
<g id="edge20" class="edge">
<title>y&#45;lm2&#45;vec&#45;&gt;backward</title>
<path fill="none" stroke="#ff0000" stroke-width="1.6284" d="M750.6584,-120.0535C743.7297,-109.4587 731.947,-91.4417 721.0672,-74.8053"/>
<polygon fill="#ff0000" stroke="#ff0000" stroke-width="1.6284" points="723.8931,-72.7315 715.4905,-66.2779 718.0346,-76.5628 723.8931,-72.7315"/>
</g>
<!-- x&#45;other&#45;vec -->
<g id="node9" class="node">
<title>x&#45;other&#45;vec</title>
<polygon fill="#d3d3d3" stroke="#000000" points="561.7303,-138.3381 503.7303,-138.3381 503.7303,-120.3381 561.7303,-120.3381 561.7303,-138.3381"/>
<text text-anchor="middle" x="532.7303" y="-127.1381" font-family="Times,serif" font-size="9.00" fill="#000000">x&#45;other&#45;vec</text>
</g>
<!-- x&#45;other&#45;vec&#45;&gt;left -->
<g id="edge12" class="edge">
<title>x&#45;other&#45;vec&#45;&gt;left</title>
<path fill="none" stroke="#00ff00" stroke-width=".2291" stroke-dasharray="1,5" d="M527.0566,-120.0535C518.84,-106.6078 503.3187,-81.2084 491.4871,-61.847"/>
<polygon fill="#00ff00" stroke="#00ff00" stroke-width=".2291" points="494.388,-59.8819 486.1871,-53.174 488.415,-63.532 494.388,-59.8819"/>
</g>
<!-- x&#45;other&#45;vec&#45;&gt;forward -->
<g id="edge22" class="edge">
<title>x&#45;other&#45;vec&#45;&gt;forward</title>
<path fill="none" stroke="#ff0000" stroke-width=".2678" stroke-dasharray="1,5" d="M505.7251,-120.3097C456.3418,-103.7998 351.2664,-68.6708 293.6223,-49.3992"/>
<polygon fill="#ff0000" stroke="#ff0000" stroke-width=".2678" points="294.7079,-46.0718 284.1141,-46.2204 292.4884,-52.7106 294.7079,-46.0718"/>
</g>
<!-- x&#45;other&#45;vec&#45;&gt;backward -->
<g id="edge25" class="edge">
<title>x&#45;other&#45;vec&#45;&gt;backward</title>
<path fill="none" stroke="#ff0000" stroke-width=".2916" stroke-dasharray="1,5" d="M548.6562,-120.2246C573.1438,-106.2118 620.8166,-78.9313 655.261,-59.2208"/>
<polygon fill="#ff0000" stroke="#ff0000" stroke-width=".2916" points="657.2111,-62.1374 664.1521,-54.1329 653.7343,-56.0619 657.2111,-62.1374"/>
</g>
<!-- y&#45;other&#45;vec -->
<g id="node10" class="node">
<title>y&#45;other&#45;vec</title>
<polygon fill="#d3d3d3" stroke="#000000" points="711.7303,-138.3381 653.7303,-138.3381 653.7303,-120.3381 711.7303,-120.3381 711.7303,-138.3381"/>
<text text-anchor="middle" x="682.7303" y="-127.1381" font-family="Times,serif" font-size="9.00" fill="#000000">y&#45;other&#45;vec</text>
</g>
<!-- y&#45;other&#45;vec&#45;&gt;none -->
<g id="edge24" class="edge">
<title>y&#45;other&#45;vec&#45;&gt;none</title>
<path fill="none" stroke="#ff0000" stroke-width=".3036" d="M669.6422,-120.1974C662.5904,-115.7588 653.5469,-110.815 644.7303,-108.1249 460.4518,-51.8983 400.2286,-116.4464 212.7303,-72.1249 192.4637,-67.3342 170.7658,-58.7514 153.7534,-51.1606"/>
<polygon fill="#ff0000" stroke="#ff0000" stroke-width=".3036" points="154.8737,-47.8241 144.3245,-46.842 151.9588,-54.1883 154.8737,-47.8241"/>
</g>
<!-- y&#45;other&#45;vec&#45;&gt;right -->
<g id="edge21" class="edge">
<title>y&#45;other&#45;vec&#45;&gt;right</title>
<path fill="none" stroke="#ff0000" stroke-width=".1074" stroke-dasharray="1,5" d="M694.277,-120.0535C712.4001,-105.4806 747.9862,-76.8658 772.5479,-57.1157"/>
<polygon fill="#ff0000" stroke="#ff0000" stroke-width=".1074" points="774.814,-59.7848 780.4138,-50.7908 770.4275,-54.3296 774.814,-59.7848"/>
</g>
<!-- y&#45;other&#45;vec&#45;&gt;left -->
<g id="edge14" class="edge">
<title>y&#45;other&#45;vec&#45;&gt;left</title>
<path fill="none" stroke="#ff0000" stroke-width=".2904" stroke-dasharray="1,5" d="M667.3978,-120.2911C660.5506,-116.3784 652.3275,-111.8521 644.7303,-108.1249 596.2018,-84.3165 537.8634,-60.4501 503.9697,-47.036"/>
<polygon fill="#ff0000" stroke="#ff0000" stroke-width=".2904" points="504.8608,-43.6254 494.2737,-43.2202 502.2973,-50.1391 504.8608,-43.6254"/>
</g>
<!-- y&#45;other&#45;vec&#45;&gt;backward -->
<g id="edge9" class="edge">
<title>y&#45;other&#45;vec&#45;&gt;backward</title>
<path fill="none" stroke="#00ff00" stroke-width=".1766" d="M684.0244,-120.0535C685.275,-111.0801 687.2677,-96.7825 689.257,-82.5089"/>
<polygon fill="#00ff00" stroke="#00ff00" stroke-width=".1766" points="692.7804,-82.5836 690.6943,-72.1962 685.8474,-81.6173 692.7804,-82.5836"/>
</g>
<!-- x&#45;other&#45;vel -->
<g id="node11" class="node">
<title>x&#45;other&#45;vel</title>
<polygon fill="#d3d3d3" stroke="#000000" points="150.7303,-204.5513 94.7303,-204.5513 94.7303,-186.5513 150.7303,-186.5513 150.7303,-204.5513"/>
<text text-anchor="middle" x="122.7303" y="-193.3513" font-family="Times,serif" font-size="9.00" fill="#000000">x&#45;other&#45;vel</text>
</g>
<!-- x&#45;other&#45;vel&#45;&gt;none -->
<g id="edge17" class="edge">
<title>x&#45;other&#45;vel&#45;&gt;none</title>
<path fill="none" stroke="#ff0000" stroke-width=".3202" stroke-dasharray="1,5" d="M122.7303,-186.5195C122.7303,-164.6283 122.7303,-107.8032 122.7303,-70.5934"/>
<polygon fill="#ff0000" stroke="#ff0000" stroke-width=".3202" points="126.2304,-70.2001 122.7303,-60.2001 119.2304,-70.2001 126.2304,-70.2001"/>
</g>
<!-- x&#45;other&#45;vel&#45;&gt;right -->
<g id="edge13" class="edge">
<title>x&#45;other&#45;vel&#45;&gt;right</title>
<path fill="none" stroke="#00ff00" stroke-width=".261" d="M150.9824,-194.1627C276.8976,-187.9108 781.2745,-162.1768 792.7303,-150.5513 813.3583,-129.6178 812.1867,-94.7445 807.5002,-68.976"/>
<polygon fill="#00ff00" stroke="#00ff00" stroke-width=".261" points="810.8691,-67.9844 805.4108,-58.9038 804.015,-69.4063 810.8691,-67.9844"/>
</g>
<!-- x&#45;other&#45;vel&#45;&gt;443 -->
<g id="edge29" class="edge">
<title>x&#45;other&#45;vel&#45;&gt;443</title>
<path fill="none" stroke="#ff0000" stroke-width=".2934" d="M110.6334,-186.3446C97.8309,-176.601 77.2577,-160.9434 60.9091,-148.5009"/>
<polygon fill="#ff0000" stroke="#ff0000" stroke-width=".2934" points="62.8857,-145.6069 52.8085,-142.3358 58.6463,-151.1772 62.8857,-145.6069"/>
</g>
<!-- y&#45;other&#45;vel -->
<g id="node12" class="node">
<title>y&#45;other&#45;vel</title>
<polygon fill="#d3d3d3" stroke="#000000" points="635.7303,-138.3381 579.7303,-138.3381 579.7303,-120.3381 635.7303,-120.3381 635.7303,-138.3381"/>
<text text-anchor="middle" x="607.7303" y="-127.1381" font-family="Times,serif" font-size="9.00" fill="#000000">y&#45;other&#45;vel</text>
</g>
<!-- y&#45;other&#45;vel&#45;&gt;right -->
<g id="edge5" class="edge">
<title>y&#45;other&#45;vel&#45;&gt;right</title>
<path fill="none" stroke="#00ff00" stroke-width=".1425" stroke-dasharray="1,5" d="M622.203,-120.3147C628.9194,-116.3174 637.0921,-111.7178 644.7303,-108.1249 685.9644,-88.7291 699.849,-92.2534 740.7303,-72.1249 750.8876,-67.1238 761.5367,-60.8364 770.8977,-54.9181"/>
<polygon fill="#00ff00" stroke="#00ff00" stroke-width=".1425" points="772.9206,-57.7781 779.4199,-49.4108 769.1213,-51.8988 772.9206,-57.7781"/>
</g>
<!-- y&#45;other&#45;vel&#45;&gt;left -->
<g id="edge10" class="edge">
<title>y&#45;other&#45;vel&#45;&gt;left</title>
<path fill="none" stroke="#00ff00" stroke-width=".3448" d="M594.5911,-120.0535C572.7017,-104.5857 528.425,-73.2982 500.5241,-53.5826"/>
<polygon fill="#00ff00" stroke="#00ff00" stroke-width=".3448" points="502.2766,-50.5353 492.09,-47.6227 498.2369,-56.2521 502.2766,-50.5353"/>
</g>
<!-- y&#45;other&#45;vel&#45;&gt;forward -->
<g id="edge7" class="edge">
<title>y&#45;other&#45;vel&#45;&gt;forward</title>
<path fill="none" stroke="#00ff00" stroke-width=".1216" stroke-dasharray="1,5" d="M594.1625,-120.26C587.3669,-116.0563 578.8698,-111.3011 570.7303,-108.1249 520.5148,-88.5294 368.7476,-58.0559 294.9326,-43.8475"/>
<polygon fill="#00ff00" stroke="#00ff00" stroke-width=".1216" points="295.5332,-40.399 285.053,-41.9534 294.2151,-47.2738 295.5332,-40.399"/>
</g>
<!-- 443&#45;&gt;none -->
<g id="edge30" class="edge">
<title>443&#45;&gt;none</title>
<path fill="none" stroke="#ff0000" stroke-width=".3263" d="M50.4887,-113.5152C63.7372,-99.311 83.4239,-78.2042 98.9016,-61.61"/>
<polygon fill="#ff0000" stroke="#ff0000" stroke-width=".3263" points="101.8537,-63.5764 106.115,-53.8763 96.7347,-58.8018 101.8537,-63.5764"/>
</g>
<!-- 443&#45;&gt;forward -->
<g id="edge31" class="edge">
<title>443&#45;&gt;forward</title>
<path fill="none" stroke="#ff0000" stroke-width=".1665" d="M53.5664,-117.7282C58.9733,-114.4286 65.0003,-110.9639 70.7303,-108.1249 96.6693,-95.2731 168.5282,-67.8326 214.0987,-50.7666"/>
<polygon fill="#ff0000" stroke="#ff0000" stroke-width=".1665" points="215.5347,-53.9665 223.6768,-47.1874 213.0843,-47.4093 215.5347,-53.9665"/>
</g>
<!-- 701&#45;&gt;left -->
<g id="edge33" class="edge">
<title>701&#45;&gt;left</title>
<path fill="none" stroke="#ff0000" stroke-width=".8388" d="M388.8241,-114.7638C406.1295,-99.0922 433.7728,-74.0587 453.227,-56.4412"/>
<polygon fill="#ff0000" stroke="#ff0000" stroke-width=".8388" points="455.6903,-58.9324 460.7533,-49.6255 450.9915,-53.7437 455.6903,-58.9324"/>
</g>
</g>
</svg>
