<?xml version="1.0" encoding="utf-8" standalone="no"?>
<!DOCTYPE svg PUBLIC "-//W3C//DTD SVG 1.1//EN"
  "http://www.w3.org/Graphics/SVG/1.1/DTD/svg11.dtd">
<!-- Created with matplotlib (https://matplotlib.org/) -->
<svg height="345.6pt" version="1.1" viewBox="0 0 460.8 345.6" width="460.8pt" xmlns="http://www.w3.org/2000/svg" xmlns:xlink="http://www.w3.org/1999/xlink">
 <metadata>
  <rdf:RDF xmlns:cc="http://creativecommons.org/ns#" xmlns:dc="http://purl.org/dc/elements/1.1/" xmlns:rdf="http://www.w3.org/1999/02/22-rdf-syntax-ns#">
   <cc:Work>
    <dc:type rdf:resource="http://purl.org/dc/dcmitype/StillImage"/>
    <dc:date>2021-04-29T18:32:53.363085</dc:date>
    <dc:format>image/svg+xml</dc:format>
    <dc:creator>
     <cc:Agent>
      <dc:title>Matplotlib v3.3.4, https://matplotlib.org/</dc:title>
     </cc:Agent>
    </dc:creator>
   </cc:Work>
  </rdf:RDF>
 </metadata>
 <defs>
  <style type="text/css">*{stroke-linecap:butt;stroke-linejoin:round;}</style>
 </defs>
 <g id="figure_1">
  <g id="patch_1">
   <path d="M 0 345.6 
L 460.8 345.6 
L 460.8 0 
L 0 0 
z
" style="fill:#ffffff;"/>
  </g>
  <g id="axes_1">
   <g id="patch_2">
    <path d="M 57.6 307.584 
L 414.72 307.584 
L 414.72 41.472 
L 57.6 41.472 
z
" style="fill:#ffffff;"/>
   </g>
   <g id="matplotlib.axis_1">
    <g id="xtick_1">
     <g id="line2d_1">
      <path clip-path="url(#pb908caa6ab)" d="M 73.832727 307.584 
L 73.832727 41.472 
" style="fill:none;stroke:#b0b0b0;stroke-linecap:square;stroke-width:0.8;"/>
     </g>
     <g id="line2d_2">
      <defs>
       <path d="M 0 0 
L 0 3.5 
" id="ma4c6523c3d" style="stroke:#000000;stroke-width:0.8;"/>
      </defs>
      <g>
       <use style="stroke:#000000;stroke-width:0.8;" x="73.832727" xlink:href="#ma4c6523c3d" y="307.584"/>
      </g>
     </g>
     <g id="text_1">
      <!-- 0 -->
      <g transform="translate(70.651477 322.182437)scale(0.1 -0.1)">
       <defs>
        <path d="M 31.78125 66.40625 
Q 24.171875 66.40625 20.328125 58.90625 
Q 16.5 51.421875 16.5 36.375 
Q 16.5 21.390625 20.328125 13.890625 
Q 24.171875 6.390625 31.78125 6.390625 
Q 39.453125 6.390625 43.28125 13.890625 
Q 47.125 21.390625 47.125 36.375 
Q 47.125 51.421875 43.28125 58.90625 
Q 39.453125 66.40625 31.78125 66.40625 
z
M 31.78125 74.21875 
Q 44.046875 74.21875 50.515625 64.515625 
Q 56.984375 54.828125 56.984375 36.375 
Q 56.984375 17.96875 50.515625 8.265625 
Q 44.046875 -1.421875 31.78125 -1.421875 
Q 19.53125 -1.421875 13.0625 8.265625 
Q 6.59375 17.96875 6.59375 36.375 
Q 6.59375 54.828125 13.0625 64.515625 
Q 19.53125 74.21875 31.78125 74.21875 
z
" id="DejaVuSans-48"/>
       </defs>
       <use xlink:href="#DejaVuSans-48"/>
      </g>
     </g>
    </g>
    <g id="xtick_2">
     <g id="line2d_3">
      <path clip-path="url(#pb908caa6ab)" d="M 135.320331 307.584 
L 135.320331 41.472 
" style="fill:none;stroke:#b0b0b0;stroke-linecap:square;stroke-width:0.8;"/>
     </g>
     <g id="line2d_4">
      <g>
       <use style="stroke:#000000;stroke-width:0.8;" x="135.320331" xlink:href="#ma4c6523c3d" y="307.584"/>
      </g>
     </g>
     <g id="text_2">
      <!-- 50 -->
      <g transform="translate(128.957831 322.182437)scale(0.1 -0.1)">
       <defs>
        <path d="M 10.796875 72.90625 
L 49.515625 72.90625 
L 49.515625 64.59375 
L 19.828125 64.59375 
L 19.828125 46.734375 
Q 21.96875 47.46875 24.109375 47.828125 
Q 26.265625 48.1875 28.421875 48.1875 
Q 40.625 48.1875 47.75 41.5 
Q 54.890625 34.8125 54.890625 23.390625 
Q 54.890625 11.625 47.5625 5.09375 
Q 40.234375 -1.421875 26.90625 -1.421875 
Q 22.3125 -1.421875 17.546875 -0.640625 
Q 12.796875 0.140625 7.71875 1.703125 
L 7.71875 11.625 
Q 12.109375 9.234375 16.796875 8.0625 
Q 21.484375 6.890625 26.703125 6.890625 
Q 35.15625 6.890625 40.078125 11.328125 
Q 45.015625 15.765625 45.015625 23.390625 
Q 45.015625 31 40.078125 35.4375 
Q 35.15625 39.890625 26.703125 39.890625 
Q 22.75 39.890625 18.8125 39.015625 
Q 14.890625 38.140625 10.796875 36.28125 
z
" id="DejaVuSans-53"/>
       </defs>
       <use xlink:href="#DejaVuSans-53"/>
       <use x="63.623047" xlink:href="#DejaVuSans-48"/>
      </g>
     </g>
    </g>
    <g id="xtick_3">
     <g id="line2d_5">
      <path clip-path="url(#pb908caa6ab)" d="M 196.807934 307.584 
L 196.807934 41.472 
" style="fill:none;stroke:#b0b0b0;stroke-linecap:square;stroke-width:0.8;"/>
     </g>
     <g id="line2d_6">
      <g>
       <use style="stroke:#000000;stroke-width:0.8;" x="196.807934" xlink:href="#ma4c6523c3d" y="307.584"/>
      </g>
     </g>
     <g id="text_3">
      <!-- 100 -->
      <g transform="translate(187.264184 322.182437)scale(0.1 -0.1)">
       <defs>
        <path d="M 12.40625 8.296875 
L 28.515625 8.296875 
L 28.515625 63.921875 
L 10.984375 60.40625 
L 10.984375 69.390625 
L 28.421875 72.90625 
L 38.28125 72.90625 
L 38.28125 8.296875 
L 54.390625 8.296875 
L 54.390625 0 
L 12.40625 0 
z
" id="DejaVuSans-49"/>
       </defs>
       <use xlink:href="#DejaVuSans-49"/>
       <use x="63.623047" xlink:href="#DejaVuSans-48"/>
       <use x="127.246094" xlink:href="#DejaVuSans-48"/>
      </g>
     </g>
    </g>
    <g id="xtick_4">
     <g id="line2d_7">
      <path clip-path="url(#pb908caa6ab)" d="M 258.295537 307.584 
L 258.295537 41.472 
" style="fill:none;stroke:#b0b0b0;stroke-linecap:square;stroke-width:0.8;"/>
     </g>
     <g id="line2d_8">
      <g>
       <use style="stroke:#000000;stroke-width:0.8;" x="258.295537" xlink:href="#ma4c6523c3d" y="307.584"/>
      </g>
     </g>
     <g id="text_4">
      <!-- 150 -->
      <g transform="translate(248.751787 322.182437)scale(0.1 -0.1)">
       <use xlink:href="#DejaVuSans-49"/>
       <use x="63.623047" xlink:href="#DejaVuSans-53"/>
       <use x="127.246094" xlink:href="#DejaVuSans-48"/>
      </g>
     </g>
    </g>
    <g id="xtick_5">
     <g id="line2d_9">
      <path clip-path="url(#pb908caa6ab)" d="M 319.78314 307.584 
L 319.78314 41.472 
" style="fill:none;stroke:#b0b0b0;stroke-linecap:square;stroke-width:0.8;"/>
     </g>
     <g id="line2d_10">
      <g>
       <use style="stroke:#000000;stroke-width:0.8;" x="319.78314" xlink:href="#ma4c6523c3d" y="307.584"/>
      </g>
     </g>
     <g id="text_5">
      <!-- 200 -->
      <g transform="translate(310.23939 322.182437)scale(0.1 -0.1)">
       <defs>
        <path d="M 19.1875 8.296875 
L 53.609375 8.296875 
L 53.609375 0 
L 7.328125 0 
L 7.328125 8.296875 
Q 12.9375 14.109375 22.625 23.890625 
Q 32.328125 33.6875 34.8125 36.53125 
Q 39.546875 41.84375 41.421875 45.53125 
Q 43.3125 49.21875 43.3125 52.78125 
Q 43.3125 58.59375 39.234375 62.25 
Q 35.15625 65.921875 28.609375 65.921875 
Q 23.96875 65.921875 18.8125 64.3125 
Q 13.671875 62.703125 7.8125 59.421875 
L 7.8125 69.390625 
Q 13.765625 71.78125 18.9375 73 
Q 24.125 74.21875 28.421875 74.21875 
Q 39.75 74.21875 46.484375 68.546875 
Q 53.21875 62.890625 53.21875 53.421875 
Q 53.21875 48.921875 51.53125 44.890625 
Q 49.859375 40.875 45.40625 35.40625 
Q 44.1875 33.984375 37.640625 27.21875 
Q 31.109375 20.453125 19.1875 8.296875 
z
" id="DejaVuSans-50"/>
       </defs>
       <use xlink:href="#DejaVuSans-50"/>
       <use x="63.623047" xlink:href="#DejaVuSans-48"/>
       <use x="127.246094" xlink:href="#DejaVuSans-48"/>
      </g>
     </g>
    </g>
    <g id="xtick_6">
     <g id="line2d_11">
      <path clip-path="url(#pb908caa6ab)" d="M 381.270744 307.584 
L 381.270744 41.472 
" style="fill:none;stroke:#b0b0b0;stroke-linecap:square;stroke-width:0.8;"/>
     </g>
     <g id="line2d_12">
      <g>
       <use style="stroke:#000000;stroke-width:0.8;" x="381.270744" xlink:href="#ma4c6523c3d" y="307.584"/>
      </g>
     </g>
     <g id="text_6">
      <!-- 250 -->
      <g transform="translate(371.726994 322.182437)scale(0.1 -0.1)">
       <use xlink:href="#DejaVuSans-50"/>
       <use x="63.623047" xlink:href="#DejaVuSans-53"/>
       <use x="127.246094" xlink:href="#DejaVuSans-48"/>
      </g>
     </g>
    </g>
    <g id="text_7">
     <!-- Generations -->
     <g transform="translate(205.662344 335.860562)scale(0.1 -0.1)">
      <defs>
       <path d="M 59.515625 10.40625 
L 59.515625 29.984375 
L 43.40625 29.984375 
L 43.40625 38.09375 
L 69.28125 38.09375 
L 69.28125 6.78125 
Q 63.578125 2.734375 56.6875 0.65625 
Q 49.8125 -1.421875 42 -1.421875 
Q 24.90625 -1.421875 15.25 8.5625 
Q 5.609375 18.5625 5.609375 36.375 
Q 5.609375 54.25 15.25 64.234375 
Q 24.90625 74.21875 42 74.21875 
Q 49.125 74.21875 55.546875 72.453125 
Q 61.96875 70.703125 67.390625 67.28125 
L 67.390625 56.78125 
Q 61.921875 61.421875 55.765625 63.765625 
Q 49.609375 66.109375 42.828125 66.109375 
Q 29.4375 66.109375 22.71875 58.640625 
Q 16.015625 51.171875 16.015625 36.375 
Q 16.015625 21.625 22.71875 14.15625 
Q 29.4375 6.6875 42.828125 6.6875 
Q 48.046875 6.6875 52.140625 7.59375 
Q 56.25 8.5 59.515625 10.40625 
z
" id="DejaVuSans-71"/>
       <path d="M 56.203125 29.59375 
L 56.203125 25.203125 
L 14.890625 25.203125 
Q 15.484375 15.921875 20.484375 11.0625 
Q 25.484375 6.203125 34.421875 6.203125 
Q 39.59375 6.203125 44.453125 7.46875 
Q 49.3125 8.734375 54.109375 11.28125 
L 54.109375 2.78125 
Q 49.265625 0.734375 44.1875 -0.34375 
Q 39.109375 -1.421875 33.890625 -1.421875 
Q 20.796875 -1.421875 13.15625 6.1875 
Q 5.515625 13.8125 5.515625 26.8125 
Q 5.515625 40.234375 12.765625 48.109375 
Q 20.015625 56 32.328125 56 
Q 43.359375 56 49.78125 48.890625 
Q 56.203125 41.796875 56.203125 29.59375 
z
M 47.21875 32.234375 
Q 47.125 39.59375 43.09375 43.984375 
Q 39.0625 48.390625 32.421875 48.390625 
Q 24.90625 48.390625 20.390625 44.140625 
Q 15.875 39.890625 15.1875 32.171875 
z
" id="DejaVuSans-101"/>
       <path d="M 54.890625 33.015625 
L 54.890625 0 
L 45.90625 0 
L 45.90625 32.71875 
Q 45.90625 40.484375 42.875 44.328125 
Q 39.84375 48.1875 33.796875 48.1875 
Q 26.515625 48.1875 22.3125 43.546875 
Q 18.109375 38.921875 18.109375 30.90625 
L 18.109375 0 
L 9.078125 0 
L 9.078125 54.6875 
L 18.109375 54.6875 
L 18.109375 46.1875 
Q 21.34375 51.125 25.703125 53.5625 
Q 30.078125 56 35.796875 56 
Q 45.21875 56 50.046875 50.171875 
Q 54.890625 44.34375 54.890625 33.015625 
z
" id="DejaVuSans-110"/>
       <path d="M 41.109375 46.296875 
Q 39.59375 47.171875 37.8125 47.578125 
Q 36.03125 48 33.890625 48 
Q 26.265625 48 22.1875 43.046875 
Q 18.109375 38.09375 18.109375 28.8125 
L 18.109375 0 
L 9.078125 0 
L 9.078125 54.6875 
L 18.109375 54.6875 
L 18.109375 46.1875 
Q 20.953125 51.171875 25.484375 53.578125 
Q 30.03125 56 36.53125 56 
Q 37.453125 56 38.578125 55.875 
Q 39.703125 55.765625 41.0625 55.515625 
z
" id="DejaVuSans-114"/>
       <path d="M 34.28125 27.484375 
Q 23.390625 27.484375 19.1875 25 
Q 14.984375 22.515625 14.984375 16.5 
Q 14.984375 11.71875 18.140625 8.90625 
Q 21.296875 6.109375 26.703125 6.109375 
Q 34.1875 6.109375 38.703125 11.40625 
Q 43.21875 16.703125 43.21875 25.484375 
L 43.21875 27.484375 
z
M 52.203125 31.203125 
L 52.203125 0 
L 43.21875 0 
L 43.21875 8.296875 
Q 40.140625 3.328125 35.546875 0.953125 
Q 30.953125 -1.421875 24.3125 -1.421875 
Q 15.921875 -1.421875 10.953125 3.296875 
Q 6 8.015625 6 15.921875 
Q 6 25.140625 12.171875 29.828125 
Q 18.359375 34.515625 30.609375 34.515625 
L 43.21875 34.515625 
L 43.21875 35.40625 
Q 43.21875 41.609375 39.140625 45 
Q 35.0625 48.390625 27.6875 48.390625 
Q 23 48.390625 18.546875 47.265625 
Q 14.109375 46.140625 10.015625 43.890625 
L 10.015625 52.203125 
Q 14.9375 54.109375 19.578125 55.046875 
Q 24.21875 56 28.609375 56 
Q 40.484375 56 46.34375 49.84375 
Q 52.203125 43.703125 52.203125 31.203125 
z
" id="DejaVuSans-97"/>
       <path d="M 18.3125 70.21875 
L 18.3125 54.6875 
L 36.8125 54.6875 
L 36.8125 47.703125 
L 18.3125 47.703125 
L 18.3125 18.015625 
Q 18.3125 11.328125 20.140625 9.421875 
Q 21.96875 7.515625 27.59375 7.515625 
L 36.8125 7.515625 
L 36.8125 0 
L 27.59375 0 
Q 17.1875 0 13.234375 3.875 
Q 9.28125 7.765625 9.28125 18.015625 
L 9.28125 47.703125 
L 2.6875 47.703125 
L 2.6875 54.6875 
L 9.28125 54.6875 
L 9.28125 70.21875 
z
" id="DejaVuSans-116"/>
       <path d="M 9.421875 54.6875 
L 18.40625 54.6875 
L 18.40625 0 
L 9.421875 0 
z
M 9.421875 75.984375 
L 18.40625 75.984375 
L 18.40625 64.59375 
L 9.421875 64.59375 
z
" id="DejaVuSans-105"/>
       <path d="M 30.609375 48.390625 
Q 23.390625 48.390625 19.1875 42.75 
Q 14.984375 37.109375 14.984375 27.296875 
Q 14.984375 17.484375 19.15625 11.84375 
Q 23.34375 6.203125 30.609375 6.203125 
Q 37.796875 6.203125 41.984375 11.859375 
Q 46.1875 17.53125 46.1875 27.296875 
Q 46.1875 37.015625 41.984375 42.703125 
Q 37.796875 48.390625 30.609375 48.390625 
z
M 30.609375 56 
Q 42.328125 56 49.015625 48.375 
Q 55.71875 40.765625 55.71875 27.296875 
Q 55.71875 13.875 49.015625 6.21875 
Q 42.328125 -1.421875 30.609375 -1.421875 
Q 18.84375 -1.421875 12.171875 6.21875 
Q 5.515625 13.875 5.515625 27.296875 
Q 5.515625 40.765625 12.171875 48.375 
Q 18.84375 56 30.609375 56 
z
" id="DejaVuSans-111"/>
       <path d="M 44.28125 53.078125 
L 44.28125 44.578125 
Q 40.484375 46.53125 36.375 47.5 
Q 32.28125 48.484375 27.875 48.484375 
Q 21.1875 48.484375 17.84375 46.4375 
Q 14.5 44.390625 14.5 40.28125 
Q 14.5 37.15625 16.890625 35.375 
Q 19.28125 33.59375 26.515625 31.984375 
L 29.59375 31.296875 
Q 39.15625 29.25 43.1875 25.515625 
Q 47.21875 21.78125 47.21875 15.09375 
Q 47.21875 7.46875 41.1875 3.015625 
Q 35.15625 -1.421875 24.609375 -1.421875 
Q 20.21875 -1.421875 15.453125 -0.5625 
Q 10.6875 0.296875 5.421875 2 
L 5.421875 11.28125 
Q 10.40625 8.6875 15.234375 7.390625 
Q 20.0625 6.109375 24.8125 6.109375 
Q 31.15625 6.109375 34.5625 8.28125 
Q 37.984375 10.453125 37.984375 14.40625 
Q 37.984375 18.0625 35.515625 20.015625 
Q 33.0625 21.96875 24.703125 23.78125 
L 21.578125 24.515625 
Q 13.234375 26.265625 9.515625 29.90625 
Q 5.8125 33.546875 5.8125 39.890625 
Q 5.8125 47.609375 11.28125 51.796875 
Q 16.75 56 26.8125 56 
Q 31.78125 56 36.171875 55.265625 
Q 40.578125 54.546875 44.28125 53.078125 
z
" id="DejaVuSans-115"/>
      </defs>
      <use xlink:href="#DejaVuSans-71"/>
      <use x="77.490234" xlink:href="#DejaVuSans-101"/>
      <use x="139.013672" xlink:href="#DejaVuSans-110"/>
      <use x="202.392578" xlink:href="#DejaVuSans-101"/>
      <use x="263.916016" xlink:href="#DejaVuSans-114"/>
      <use x="305.029297" xlink:href="#DejaVuSans-97"/>
      <use x="366.308594" xlink:href="#DejaVuSans-116"/>
      <use x="405.517578" xlink:href="#DejaVuSans-105"/>
      <use x="433.300781" xlink:href="#DejaVuSans-111"/>
      <use x="494.482422" xlink:href="#DejaVuSans-110"/>
      <use x="557.861328" xlink:href="#DejaVuSans-115"/>
     </g>
    </g>
   </g>
   <g id="matplotlib.axis_2">
    <g id="ytick_1">
     <g id="line2d_13">
      <path clip-path="url(#pb908caa6ab)" d="M 57.6 300.812415 
L 414.72 300.812415 
" style="fill:none;stroke:#b0b0b0;stroke-linecap:square;stroke-width:0.8;"/>
     </g>
     <g id="line2d_14">
      <defs>
       <path d="M 0 0 
L -3.5 0 
" id="m49b8799158" style="stroke:#000000;stroke-width:0.8;"/>
      </defs>
      <g>
       <use style="stroke:#000000;stroke-width:0.8;" x="57.6" xlink:href="#m49b8799158" y="300.812415"/>
      </g>
     </g>
     <g id="text_8">
      <!-- $\mathdefault{-10^{3}}$ -->
      <g transform="translate(24.6 304.611634)scale(0.1 -0.1)">
       <defs>
        <path d="M 10.59375 35.5 
L 73.1875 35.5 
L 73.1875 27.203125 
L 10.59375 27.203125 
z
" id="DejaVuSans-8722"/>
        <path d="M 40.578125 39.3125 
Q 47.65625 37.796875 51.625 33 
Q 55.609375 28.21875 55.609375 21.1875 
Q 55.609375 10.40625 48.1875 4.484375 
Q 40.765625 -1.421875 27.09375 -1.421875 
Q 22.515625 -1.421875 17.65625 -0.515625 
Q 12.796875 0.390625 7.625 2.203125 
L 7.625 11.71875 
Q 11.71875 9.328125 16.59375 8.109375 
Q 21.484375 6.890625 26.8125 6.890625 
Q 36.078125 6.890625 40.9375 10.546875 
Q 45.796875 14.203125 45.796875 21.1875 
Q 45.796875 27.640625 41.28125 31.265625 
Q 36.765625 34.90625 28.71875 34.90625 
L 20.21875 34.90625 
L 20.21875 43.015625 
L 29.109375 43.015625 
Q 36.375 43.015625 40.234375 45.921875 
Q 44.09375 48.828125 44.09375 54.296875 
Q 44.09375 59.90625 40.109375 62.90625 
Q 36.140625 65.921875 28.71875 65.921875 
Q 24.65625 65.921875 20.015625 65.03125 
Q 15.375 64.15625 9.8125 62.3125 
L 9.8125 71.09375 
Q 15.4375 72.65625 20.34375 73.4375 
Q 25.25 74.21875 29.59375 74.21875 
Q 40.828125 74.21875 47.359375 69.109375 
Q 53.90625 64.015625 53.90625 55.328125 
Q 53.90625 49.265625 50.4375 45.09375 
Q 46.96875 40.921875 40.578125 39.3125 
z
" id="DejaVuSans-51"/>
       </defs>
       <use transform="translate(0 0.765625)" xlink:href="#DejaVuSans-8722"/>
       <use transform="translate(83.789062 0.765625)" xlink:href="#DejaVuSans-49"/>
       <use transform="translate(147.412109 0.765625)" xlink:href="#DejaVuSans-48"/>
       <use transform="translate(211.992188 39.046875)scale(0.7)" xlink:href="#DejaVuSans-51"/>
      </g>
     </g>
    </g>
    <g id="text_9">
     <!-- Fitness -->
     <g transform="translate(18.520312 191.845187)rotate(-90)scale(0.1 -0.1)">
      <defs>
       <path d="M 9.8125 72.90625 
L 51.703125 72.90625 
L 51.703125 64.59375 
L 19.671875 64.59375 
L 19.671875 43.109375 
L 48.578125 43.109375 
L 48.578125 34.8125 
L 19.671875 34.8125 
L 19.671875 0 
L 9.8125 0 
z
" id="DejaVuSans-70"/>
      </defs>
      <use xlink:href="#DejaVuSans-70"/>
      <use x="50.269531" xlink:href="#DejaVuSans-105"/>
      <use x="78.052734" xlink:href="#DejaVuSans-116"/>
      <use x="117.261719" xlink:href="#DejaVuSans-110"/>
      <use x="180.640625" xlink:href="#DejaVuSans-101"/>
      <use x="242.164062" xlink:href="#DejaVuSans-115"/>
      <use x="294.263672" xlink:href="#DejaVuSans-115"/>
     </g>
    </g>
   </g>
   <g id="line2d_15">
    <path clip-path="url(#pb908caa6ab)" d="M 73.832727 295.488 
L 75.062479 291.358624 
L 76.292231 289.531605 
L 77.521983 288.419399 
L 78.751736 289.127379 
L 79.981488 287.709585 
L 81.21124 287.584688 
L 82.440992 285.24764 
L 83.670744 284.865765 
L 84.900496 286.395715 
L 86.130248 284.035934 
L 87.36 284.526557 
L 88.589752 284.584875 
L 89.819504 285.79164 
L 91.049256 285.236785 
L 92.279008 285.537439 
L 93.50876 283.910094 
L 94.738512 283.814001 
L 95.968264 281.896572 
L 97.198017 281.708667 
L 98.427769 283.154072 
L 99.657521 281.49649 
L 100.887273 281.558272 
L 102.117025 276.472124 
L 103.346777 275.601312 
L 104.576529 275.9023 
L 105.806281 276.783029 
L 107.036033 272.542448 
L 108.265785 272.154801 
L 109.495537 276.90136 
L 110.725289 271.763907 
L 111.955041 269.849627 
L 113.184793 273.801674 
L 114.414545 270.953742 
L 115.644298 272.504359 
L 116.87405 270.488757 
L 118.103802 272.258952 
L 119.333554 272.031232 
L 120.563306 272.913428 
L 121.793058 276.035494 
L 123.02281 274.73798 
L 124.252562 258.827885 
L 125.482314 269.461693 
L 126.712066 266.483228 
L 127.941818 266.93267 
L 129.17157 259.716564 
L 130.401322 265.875807 
L 132.860826 266.597094 
L 134.090579 264.068681 
L 135.320331 257.642375 
L 136.550083 254.113787 
L 137.779835 249.813127 
L 139.009587 258.588408 
L 141.469091 257.540893 
L 142.698843 251.3376 
L 143.928595 258.269295 
L 145.158347 245.789377 
L 146.388099 251.632861 
L 147.617851 259.420082 
L 148.847603 253.087012 
L 150.077355 254.651183 
L 151.307107 254.711892 
L 152.53686 253.810261 
L 153.766612 259.265339 
L 154.996364 251.456258 
L 156.226116 257.412177 
L 157.455868 258.551988 
L 158.68562 255.981835 
L 159.915372 255.83399 
L 161.145124 260.601515 
L 162.374876 259.889981 
L 163.604628 260.851659 
L 164.83438 258.152607 
L 166.064132 259.740249 
L 167.293884 262.346996 
L 168.523636 260.216297 
L 169.753388 255.837205 
L 170.98314 255.564795 
L 172.212893 254.411364 
L 173.442645 250.732844 
L 174.672397 244.19304 
L 175.902149 246.549373 
L 177.131901 252.690093 
L 178.361653 256.869172 
L 179.591405 251.493679 
L 180.821157 240.388798 
L 182.050909 246.656853 
L 183.280661 249.265973 
L 184.510413 247.98111 
L 185.740165 251.404773 
L 186.969917 252.964613 
L 188.199669 258.787371 
L 189.429421 257.534802 
L 190.659174 254.614071 
L 191.888926 245.832578 
L 193.118678 244.230928 
L 195.578182 251.849122 
L 196.807934 247.206341 
L 198.037686 237.751821 
L 199.267438 253.609772 
L 200.49719 249.808752 
L 201.726942 248.785411 
L 202.956694 253.450526 
L 204.186446 258.819268 
L 205.416198 247.091023 
L 206.64595 256.589466 
L 207.875702 246.551586 
L 209.105455 250.396335 
L 210.335207 243.330145 
L 211.564959 247.258039 
L 212.794711 247.353408 
L 214.024463 252.779759 
L 215.254215 244.03343 
L 216.483967 259.082108 
L 217.713719 250.783219 
L 218.943471 247.449212 
L 220.173223 232.698812 
L 221.402975 232.797128 
L 222.632727 239.501957 
L 223.862479 235.286656 
L 225.092231 238.249674 
L 226.321983 243.273663 
L 227.551736 239.262977 
L 228.781488 245.182429 
L 230.01124 250.141328 
L 231.240992 255.672443 
L 233.700496 243.569549 
L 234.930248 244.175772 
L 236.16 239.609224 
L 237.389752 247.005177 
L 238.619504 249.724309 
L 239.849256 247.497286 
L 241.079008 252.401761 
L 242.30876 255.969845 
L 243.538512 252.742936 
L 244.768264 251.011459 
L 245.998017 244.733263 
L 248.457521 247.751671 
L 249.687273 255.52844 
L 252.146777 248.611026 
L 253.376529 250.129674 
L 254.606281 248.233966 
L 255.836033 241.334357 
L 257.065785 250.220587 
L 258.295537 253.331198 
L 259.525289 248.975726 
L 260.755041 251.926263 
L 261.984793 247.798358 
L 263.214545 249.559468 
L 264.444298 257.557378 
L 265.67405 258.188178 
L 266.903802 250.734742 
L 268.133554 256.089057 
L 269.363306 256.451324 
L 270.593058 257.553689 
L 271.82281 253.348145 
L 273.052562 242.766049 
L 274.282314 252.012932 
L 275.512066 249.600566 
L 276.741818 239.995119 
L 277.97157 250.689292 
L 279.201322 243.881306 
L 280.431074 243.604464 
L 281.660826 247.253365 
L 282.890579 243.649934 
L 284.120331 236.936387 
L 285.350083 244.463385 
L 286.579835 247.725164 
L 287.809587 247.307807 
L 289.039339 246.163634 
L 290.269091 249.856151 
L 291.498843 242.051785 
L 292.728595 239.651034 
L 293.958347 247.1656 
L 295.188099 240.967414 
L 296.417851 245.103382 
L 297.647603 243.095195 
L 298.877355 246.224534 
L 300.107107 261.867601 
L 301.33686 253.653463 
L 302.566612 241.114184 
L 303.796364 237.820309 
L 305.026116 253.558265 
L 306.255868 242.238519 
L 307.48562 240.775367 
L 308.715372 241.753157 
L 309.945124 228.038056 
L 311.174876 241.957718 
L 312.404628 238.757124 
L 313.63438 242.227827 
L 314.864132 245.078924 
L 316.093884 239.389548 
L 317.323636 242.403366 
L 318.553388 252.631412 
L 319.78314 246.033254 
L 321.012893 246.434534 
L 322.242645 241.225003 
L 323.472397 251.945847 
L 324.702149 245.063919 
L 325.931901 247.630767 
L 327.161653 249.706632 
L 328.391405 245.274804 
L 329.621157 244.997979 
L 330.850909 247.156314 
L 332.080661 246.216398 
L 333.310413 257.146225 
L 334.540165 251.750338 
L 335.769917 243.186652 
L 336.999669 237.707729 
L 338.229421 243.289125 
L 339.459174 238.271432 
L 340.688926 250.711349 
L 341.918678 256.578328 
L 343.14843 247.950429 
L 344.378182 247.022182 
L 345.607934 242.777815 
L 346.837686 250.24892 
L 348.067438 237.822246 
L 349.29719 241.521782 
L 350.526942 242.22832 
L 351.756694 239.807035 
L 352.986446 247.653394 
L 354.216198 244.765574 
L 355.44595 243.800187 
L 356.675702 241.203975 
L 357.905455 246.117913 
L 359.135207 239.350212 
L 360.364959 246.829403 
L 361.594711 247.601137 
L 362.824463 251.668863 
L 364.054215 252.826065 
L 365.283967 241.84557 
L 366.513719 254.299454 
L 367.743471 241.645861 
L 368.973223 244.758403 
L 370.202975 261.374839 
L 371.432727 250.258384 
L 373.892231 250.258206 
L 375.121983 255.986803 
L 376.351736 249.448785 
L 377.581488 246.15635 
L 378.81124 247.605282 
L 380.040992 249.982495 
L 381.270744 239.089818 
L 382.500496 242.996123 
L 383.730248 252.604064 
L 384.96 248.912702 
L 386.189752 247.859649 
L 387.419504 243.10373 
L 388.649256 240.016977 
L 389.879008 239.024529 
L 391.10876 241.086475 
L 392.338512 239.138942 
L 393.568264 241.569488 
L 394.798017 236.749691 
L 396.027769 230.849098 
L 397.257521 240.662443 
L 398.487273 234.736862 
L 398.487273 234.736862 
" style="fill:none;stroke:#0000ff;stroke-linecap:square;stroke-width:1.5;"/>
   </g>
   <g id="line2d_16">
    <path clip-path="url(#pb908caa6ab)" d="M 73.832727 260.786081 
L 75.062479 267.585658 
L 76.292231 261.028825 
L 77.521983 268.169083 
L 78.751736 249.913659 
L 79.981488 247.457981 
L 81.21124 255.986717 
L 82.440992 247.71092 
L 83.670744 245.101131 
L 84.900496 247.366636 
L 86.130248 241.089931 
L 87.36 259.043936 
L 88.589752 237.91846 
L 89.819504 236.301845 
L 91.049256 247.320314 
L 92.279008 259.802334 
L 93.50876 213.028243 
L 95.968264 247.706496 
L 97.198017 222.107288 
L 98.427769 244.535178 
L 99.657521 208.072326 
L 100.887273 231.027514 
L 102.117025 198.840738 
L 103.346777 217.169403 
L 104.576529 187.124306 
L 105.806281 209.500015 
L 107.036033 205.946286 
L 108.265785 179.37748 
L 109.495537 206.684413 
L 110.725289 198.945727 
L 111.955041 162.678733 
L 113.184793 206.437691 
L 114.414545 196.944874 
L 115.644298 190.791207 
L 116.87405 160.083299 
L 118.103802 205.757053 
L 119.333554 209.916878 
L 120.563306 204.580928 
L 121.793058 227.142723 
L 123.02281 215.190896 
L 124.252562 178.973311 
L 125.482314 184.165025 
L 126.712066 201.525337 
L 127.941818 199.749021 
L 129.17157 194.844807 
L 130.401322 167.019983 
L 131.631074 171.302901 
L 132.860826 172.754172 
L 134.090579 216.190634 
L 135.320331 179.924155 
L 136.550083 187.590551 
L 137.779835 152.879352 
L 139.009587 181.681384 
L 140.239339 162.827697 
L 141.469091 162.845956 
L 142.698843 155.465457 
L 143.928595 190.898958 
L 145.158347 176.27925 
L 146.388099 158.524541 
L 147.617851 108.338786 
L 148.847603 161.653935 
L 150.077355 155.227825 
L 151.307107 177.528664 
L 152.53686 149.11282 
L 153.766612 172.410667 
L 154.996364 175.44323 
L 156.226116 162.593576 
L 157.455868 176.667338 
L 158.68562 162.620533 
L 159.915372 161.718675 
L 161.145124 175.946033 
L 162.374876 184.206925 
L 163.604628 167.154193 
L 164.83438 187.350456 
L 166.064132 190.731984 
L 167.293884 163.084032 
L 168.523636 158.415564 
L 169.753388 194.116296 
L 170.98314 143.882735 
L 172.212893 140.271359 
L 173.442645 158.9604 
L 174.672397 152.882746 
L 175.902149 112.76953 
L 177.131901 171.45983 
L 178.361653 153.036549 
L 179.591405 151.715199 
L 180.821157 165.586373 
L 182.050909 183.458714 
L 183.280661 164.654839 
L 184.510413 173.372043 
L 185.740165 179.213896 
L 186.969917 180.10144 
L 188.199669 177.166741 
L 189.429421 178.736048 
L 190.659174 195.290199 
L 191.888926 162.285213 
L 193.118678 125.094759 
L 194.34843 174.808227 
L 195.578182 175.880494 
L 196.807934 97.687018 
L 198.037686 181.463794 
L 199.267438 154.816562 
L 200.49719 184.169389 
L 201.726942 173.483887 
L 202.956694 190.910809 
L 204.186446 162.222168 
L 205.416198 160.179898 
L 206.64595 160.691801 
L 207.875702 131.301295 
L 209.105455 133.870175 
L 210.335207 169.047576 
L 211.564959 161.438699 
L 212.794711 182.001712 
L 214.024463 185.05551 
L 215.254215 156.026621 
L 216.483967 186.691878 
L 217.713719 177.550821 
L 218.943471 165.228036 
L 221.402975 53.568 
L 222.632727 152.144817 
L 223.862479 169.281323 
L 225.092231 165.070831 
L 226.321983 142.749802 
L 227.551736 160.721745 
L 228.781488 168.303762 
L 230.01124 165.578756 
L 231.240992 186.580002 
L 232.470744 195.796131 
L 233.700496 172.781416 
L 234.930248 155.673766 
L 236.16 163.148172 
L 237.389752 177.238775 
L 238.619504 159.767018 
L 239.849256 145.363073 
L 241.079008 171.743443 
L 242.30876 188.51588 
L 243.538512 175.350534 
L 244.768264 185.190068 
L 245.998017 186.516181 
L 247.227769 134.542875 
L 248.457521 150.842256 
L 249.687273 156.016394 
L 250.917025 172.348619 
L 252.146777 147.530475 
L 253.376529 142.936026 
L 254.606281 123.633688 
L 255.836033 132.690188 
L 257.065785 151.941831 
L 258.295537 176.949264 
L 259.525289 151.507988 
L 260.755041 160.860895 
L 261.984793 171.095826 
L 263.214545 156.109019 
L 264.444298 174.673673 
L 265.67405 163.827201 
L 266.903802 138.186128 
L 268.133554 181.982019 
L 269.363306 181.638566 
L 270.593058 148.326494 
L 271.82281 163.033501 
L 273.052562 144.176717 
L 274.282314 180.160175 
L 275.512066 147.839242 
L 276.741818 156.424424 
L 277.97157 163.050643 
L 279.201322 106.846853 
L 280.431074 138.441905 
L 281.660826 173.224944 
L 282.890579 170.239955 
L 284.120331 118.106719 
L 285.350083 152.110519 
L 286.579835 168.299136 
L 287.809587 159.435297 
L 289.039339 172.127066 
L 290.269091 116.589979 
L 291.498843 170.058109 
L 292.728595 136.703924 
L 293.958347 138.369208 
L 295.188099 106.373615 
L 296.417851 142.11859 
L 297.647603 146.413722 
L 298.877355 178.808912 
L 300.107107 201.39531 
L 301.33686 190.146443 
L 302.566612 160.187586 
L 303.796364 150.2626 
L 305.026116 171.887002 
L 306.255868 130.128562 
L 307.48562 171.883172 
L 308.715372 177.092348 
L 309.945124 110.083412 
L 311.174876 134.401549 
L 312.404628 155.902833 
L 313.63438 131.569402 
L 314.864132 181.140056 
L 316.093884 136.294086 
L 318.553388 191.383779 
L 319.78314 175.825549 
L 321.012893 167.600438 
L 322.242645 166.869752 
L 323.472397 168.5376 
L 324.702149 156.896959 
L 325.931901 178.838094 
L 327.161653 171.851207 
L 328.391405 161.259206 
L 329.621157 143.065343 
L 330.850909 178.42967 
L 332.080661 179.491715 
L 333.310413 172.754299 
L 334.540165 186.361144 
L 335.769917 173.017861 
L 336.999669 167.348042 
L 338.229421 169.475415 
L 339.459174 140.560169 
L 340.688926 173.83293 
L 341.918678 194.665243 
L 343.14843 168.529976 
L 344.378182 159.944267 
L 345.607934 142.295088 
L 346.837686 191.323656 
L 348.067438 107.746752 
L 349.29719 152.110529 
L 350.526942 156.42723 
L 351.756694 143.594704 
L 352.986446 163.134583 
L 354.216198 164.497389 
L 355.44595 150.390227 
L 356.675702 184.639732 
L 357.905455 140.515238 
L 359.135207 143.941125 
L 360.364959 172.956296 
L 361.594711 149.774732 
L 362.824463 180.804188 
L 364.054215 189.092183 
L 365.283967 141.73109 
L 366.513719 187.016857 
L 367.743471 139.572096 
L 368.973223 165.932005 
L 370.202975 186.349719 
L 371.432727 178.005551 
L 372.662479 182.960951 
L 373.892231 132.812897 
L 376.351736 122.240259 
L 377.581488 158.14418 
L 378.81124 176.518957 
L 380.040992 161.681009 
L 381.270744 148.996742 
L 382.500496 138.83459 
L 383.730248 179.713263 
L 384.96 167.942072 
L 386.189752 163.727834 
L 387.419504 122.557473 
L 388.649256 119.639213 
L 389.879008 154.14475 
L 391.10876 153.573982 
L 392.338512 153.358079 
L 393.568264 156.257616 
L 394.798017 172.347368 
L 396.027769 149.616997 
L 397.257521 136.715827 
L 398.487273 152.514202 
L 398.487273 152.514202 
" style="fill:none;stroke:#ff0000;stroke-linecap:square;stroke-width:1.5;"/>
   </g>
   <g id="patch_3">
    <path d="M 57.6 307.584 
L 57.6 41.472 
" style="fill:none;stroke:#000000;stroke-linecap:square;stroke-linejoin:miter;stroke-width:0.8;"/>
   </g>
   <g id="patch_4">
    <path d="M 414.72 307.584 
L 414.72 41.472 
" style="fill:none;stroke:#000000;stroke-linecap:square;stroke-linejoin:miter;stroke-width:0.8;"/>
   </g>
   <g id="patch_5">
    <path d="M 57.6 307.584 
L 414.72 307.584 
" style="fill:none;stroke:#000000;stroke-linecap:square;stroke-linejoin:miter;stroke-width:0.8;"/>
   </g>
   <g id="patch_6">
    <path d="M 57.6 41.472 
L 414.72 41.472 
" style="fill:none;stroke:#000000;stroke-linecap:square;stroke-linejoin:miter;stroke-width:0.8;"/>
   </g>
   <g id="text_10">
    <!-- Population's average and best fitness -->
    <g transform="translate(123.529687 35.472)scale(0.12 -0.12)">
     <defs>
      <path d="M 19.671875 64.796875 
L 19.671875 37.40625 
L 32.078125 37.40625 
Q 38.96875 37.40625 42.71875 40.96875 
Q 46.484375 44.53125 46.484375 51.125 
Q 46.484375 57.671875 42.71875 61.234375 
Q 38.96875 64.796875 32.078125 64.796875 
z
M 9.8125 72.90625 
L 32.078125 72.90625 
Q 44.34375 72.90625 50.609375 67.359375 
Q 56.890625 61.8125 56.890625 51.125 
Q 56.890625 40.328125 50.609375 34.8125 
Q 44.34375 29.296875 32.078125 29.296875 
L 19.671875 29.296875 
L 19.671875 0 
L 9.8125 0 
z
" id="DejaVuSans-80"/>
      <path d="M 18.109375 8.203125 
L 18.109375 -20.796875 
L 9.078125 -20.796875 
L 9.078125 54.6875 
L 18.109375 54.6875 
L 18.109375 46.390625 
Q 20.953125 51.265625 25.265625 53.625 
Q 29.59375 56 35.59375 56 
Q 45.5625 56 51.78125 48.09375 
Q 58.015625 40.1875 58.015625 27.296875 
Q 58.015625 14.40625 51.78125 6.484375 
Q 45.5625 -1.421875 35.59375 -1.421875 
Q 29.59375 -1.421875 25.265625 0.953125 
Q 20.953125 3.328125 18.109375 8.203125 
z
M 48.6875 27.296875 
Q 48.6875 37.203125 44.609375 42.84375 
Q 40.53125 48.484375 33.40625 48.484375 
Q 26.265625 48.484375 22.1875 42.84375 
Q 18.109375 37.203125 18.109375 27.296875 
Q 18.109375 17.390625 22.1875 11.75 
Q 26.265625 6.109375 33.40625 6.109375 
Q 40.53125 6.109375 44.609375 11.75 
Q 48.6875 17.390625 48.6875 27.296875 
z
" id="DejaVuSans-112"/>
      <path d="M 8.5 21.578125 
L 8.5 54.6875 
L 17.484375 54.6875 
L 17.484375 21.921875 
Q 17.484375 14.15625 20.5 10.265625 
Q 23.53125 6.390625 29.59375 6.390625 
Q 36.859375 6.390625 41.078125 11.03125 
Q 45.3125 15.671875 45.3125 23.6875 
L 45.3125 54.6875 
L 54.296875 54.6875 
L 54.296875 0 
L 45.3125 0 
L 45.3125 8.40625 
Q 42.046875 3.421875 37.71875 1 
Q 33.40625 -1.421875 27.6875 -1.421875 
Q 18.265625 -1.421875 13.375 4.4375 
Q 8.5 10.296875 8.5 21.578125 
z
M 31.109375 56 
z
" id="DejaVuSans-117"/>
      <path d="M 9.421875 75.984375 
L 18.40625 75.984375 
L 18.40625 0 
L 9.421875 0 
z
" id="DejaVuSans-108"/>
      <path d="M 17.921875 72.90625 
L 17.921875 45.796875 
L 9.625 45.796875 
L 9.625 72.90625 
z
" id="DejaVuSans-39"/>
      <path id="DejaVuSans-32"/>
      <path d="M 2.984375 54.6875 
L 12.5 54.6875 
L 29.59375 8.796875 
L 46.6875 54.6875 
L 56.203125 54.6875 
L 35.6875 0 
L 23.484375 0 
z
" id="DejaVuSans-118"/>
      <path d="M 45.40625 27.984375 
Q 45.40625 37.75 41.375 43.109375 
Q 37.359375 48.484375 30.078125 48.484375 
Q 22.859375 48.484375 18.828125 43.109375 
Q 14.796875 37.75 14.796875 27.984375 
Q 14.796875 18.265625 18.828125 12.890625 
Q 22.859375 7.515625 30.078125 7.515625 
Q 37.359375 7.515625 41.375 12.890625 
Q 45.40625 18.265625 45.40625 27.984375 
z
M 54.390625 6.78125 
Q 54.390625 -7.171875 48.1875 -13.984375 
Q 42 -20.796875 29.203125 -20.796875 
Q 24.46875 -20.796875 20.265625 -20.09375 
Q 16.0625 -19.390625 12.109375 -17.921875 
L 12.109375 -9.1875 
Q 16.0625 -11.328125 19.921875 -12.34375 
Q 23.78125 -13.375 27.78125 -13.375 
Q 36.625 -13.375 41.015625 -8.765625 
Q 45.40625 -4.15625 45.40625 5.171875 
L 45.40625 9.625 
Q 42.625 4.78125 38.28125 2.390625 
Q 33.9375 0 27.875 0 
Q 17.828125 0 11.671875 7.65625 
Q 5.515625 15.328125 5.515625 27.984375 
Q 5.515625 40.671875 11.671875 48.328125 
Q 17.828125 56 27.875 56 
Q 33.9375 56 38.28125 53.609375 
Q 42.625 51.21875 45.40625 46.390625 
L 45.40625 54.6875 
L 54.390625 54.6875 
z
" id="DejaVuSans-103"/>
      <path d="M 45.40625 46.390625 
L 45.40625 75.984375 
L 54.390625 75.984375 
L 54.390625 0 
L 45.40625 0 
L 45.40625 8.203125 
Q 42.578125 3.328125 38.25 0.953125 
Q 33.9375 -1.421875 27.875 -1.421875 
Q 17.96875 -1.421875 11.734375 6.484375 
Q 5.515625 14.40625 5.515625 27.296875 
Q 5.515625 40.1875 11.734375 48.09375 
Q 17.96875 56 27.875 56 
Q 33.9375 56 38.25 53.625 
Q 42.578125 51.265625 45.40625 46.390625 
z
M 14.796875 27.296875 
Q 14.796875 17.390625 18.875 11.75 
Q 22.953125 6.109375 30.078125 6.109375 
Q 37.203125 6.109375 41.296875 11.75 
Q 45.40625 17.390625 45.40625 27.296875 
Q 45.40625 37.203125 41.296875 42.84375 
Q 37.203125 48.484375 30.078125 48.484375 
Q 22.953125 48.484375 18.875 42.84375 
Q 14.796875 37.203125 14.796875 27.296875 
z
" id="DejaVuSans-100"/>
      <path d="M 48.6875 27.296875 
Q 48.6875 37.203125 44.609375 42.84375 
Q 40.53125 48.484375 33.40625 48.484375 
Q 26.265625 48.484375 22.1875 42.84375 
Q 18.109375 37.203125 18.109375 27.296875 
Q 18.109375 17.390625 22.1875 11.75 
Q 26.265625 6.109375 33.40625 6.109375 
Q 40.53125 6.109375 44.609375 11.75 
Q 48.6875 17.390625 48.6875 27.296875 
z
M 18.109375 46.390625 
Q 20.953125 51.265625 25.265625 53.625 
Q 29.59375 56 35.59375 56 
Q 45.5625 56 51.78125 48.09375 
Q 58.015625 40.1875 58.015625 27.296875 
Q 58.015625 14.40625 51.78125 6.484375 
Q 45.5625 -1.421875 35.59375 -1.421875 
Q 29.59375 -1.421875 25.265625 0.953125 
Q 20.953125 3.328125 18.109375 8.203125 
L 18.109375 0 
L 9.078125 0 
L 9.078125 75.984375 
L 18.109375 75.984375 
z
" id="DejaVuSans-98"/>
      <path d="M 37.109375 75.984375 
L 37.109375 68.5 
L 28.515625 68.5 
Q 23.6875 68.5 21.796875 66.546875 
Q 19.921875 64.59375 19.921875 59.515625 
L 19.921875 54.6875 
L 34.71875 54.6875 
L 34.71875 47.703125 
L 19.921875 47.703125 
L 19.921875 0 
L 10.890625 0 
L 10.890625 47.703125 
L 2.296875 47.703125 
L 2.296875 54.6875 
L 10.890625 54.6875 
L 10.890625 58.5 
Q 10.890625 67.625 15.140625 71.796875 
Q 19.390625 75.984375 28.609375 75.984375 
z
" id="DejaVuSans-102"/>
     </defs>
     <use xlink:href="#DejaVuSans-80"/>
     <use x="56.677734" xlink:href="#DejaVuSans-111"/>
     <use x="117.859375" xlink:href="#DejaVuSans-112"/>
     <use x="181.335938" xlink:href="#DejaVuSans-117"/>
     <use x="244.714844" xlink:href="#DejaVuSans-108"/>
     <use x="272.498047" xlink:href="#DejaVuSans-97"/>
     <use x="333.777344" xlink:href="#DejaVuSans-116"/>
     <use x="372.986328" xlink:href="#DejaVuSans-105"/>
     <use x="400.769531" xlink:href="#DejaVuSans-111"/>
     <use x="461.951172" xlink:href="#DejaVuSans-110"/>
     <use x="525.330078" xlink:href="#DejaVuSans-39"/>
     <use x="552.820312" xlink:href="#DejaVuSans-115"/>
     <use x="604.919922" xlink:href="#DejaVuSans-32"/>
     <use x="636.707031" xlink:href="#DejaVuSans-97"/>
     <use x="697.986328" xlink:href="#DejaVuSans-118"/>
     <use x="757.166016" xlink:href="#DejaVuSans-101"/>
     <use x="818.689453" xlink:href="#DejaVuSans-114"/>
     <use x="859.802734" xlink:href="#DejaVuSans-97"/>
     <use x="921.082031" xlink:href="#DejaVuSans-103"/>
     <use x="984.558594" xlink:href="#DejaVuSans-101"/>
     <use x="1046.082031" xlink:href="#DejaVuSans-32"/>
     <use x="1077.869141" xlink:href="#DejaVuSans-97"/>
     <use x="1139.148438" xlink:href="#DejaVuSans-110"/>
     <use x="1202.527344" xlink:href="#DejaVuSans-100"/>
     <use x="1266.003906" xlink:href="#DejaVuSans-32"/>
     <use x="1297.791016" xlink:href="#DejaVuSans-98"/>
     <use x="1361.267578" xlink:href="#DejaVuSans-101"/>
     <use x="1422.791016" xlink:href="#DejaVuSans-115"/>
     <use x="1474.890625" xlink:href="#DejaVuSans-116"/>
     <use x="1514.099609" xlink:href="#DejaVuSans-32"/>
     <use x="1545.886719" xlink:href="#DejaVuSans-102"/>
     <use x="1581.091797" xlink:href="#DejaVuSans-105"/>
     <use x="1608.875" xlink:href="#DejaVuSans-116"/>
     <use x="1648.083984" xlink:href="#DejaVuSans-110"/>
     <use x="1711.462891" xlink:href="#DejaVuSans-101"/>
     <use x="1772.986328" xlink:href="#DejaVuSans-115"/>
     <use x="1825.085938" xlink:href="#DejaVuSans-115"/>
    </g>
   </g>
   <g id="legend_1">
    <g id="patch_7">
     <path d="M 334.779375 78.82825 
L 407.72 78.82825 
Q 409.72 78.82825 409.72 76.82825 
L 409.72 48.472 
Q 409.72 46.472 407.72 46.472 
L 334.779375 46.472 
Q 332.779375 46.472 332.779375 48.472 
L 332.779375 76.82825 
Q 332.779375 78.82825 334.779375 78.82825 
z
" style="fill:#ffffff;opacity:0.8;stroke:#cccccc;stroke-linejoin:miter;"/>
    </g>
    <g id="line2d_17">
     <path d="M 336.779375 54.570437 
L 356.779375 54.570437 
" style="fill:none;stroke:#0000ff;stroke-linecap:square;stroke-width:1.5;"/>
    </g>
    <g id="line2d_18"/>
    <g id="text_11">
     <!-- average -->
     <g transform="translate(364.779375 58.070437)scale(0.1 -0.1)">
      <use xlink:href="#DejaVuSans-97"/>
      <use x="61.279297" xlink:href="#DejaVuSans-118"/>
      <use x="120.458984" xlink:href="#DejaVuSans-101"/>
      <use x="181.982422" xlink:href="#DejaVuSans-114"/>
      <use x="223.095703" xlink:href="#DejaVuSans-97"/>
      <use x="284.375" xlink:href="#DejaVuSans-103"/>
      <use x="347.851562" xlink:href="#DejaVuSans-101"/>
     </g>
    </g>
    <g id="line2d_19">
     <path d="M 336.779375 69.248562 
L 356.779375 69.248562 
" style="fill:none;stroke:#ff0000;stroke-linecap:square;stroke-width:1.5;"/>
    </g>
    <g id="line2d_20"/>
    <g id="text_12">
     <!-- best -->
     <g transform="translate(364.779375 72.748562)scale(0.1 -0.1)">
      <use xlink:href="#DejaVuSans-98"/>
      <use x="63.476562" xlink:href="#DejaVuSans-101"/>
      <use x="125" xlink:href="#DejaVuSans-115"/>
      <use x="177.099609" xlink:href="#DejaVuSans-116"/>
     </g>
    </g>
   </g>
  </g>
 </g>
 <defs>
  <clipPath id="pb908caa6ab">
   <rect height="266.112" width="357.12" x="57.6" y="41.472"/>
  </clipPath>
 </defs>
</svg>
