<?xml version="1.0" encoding="UTF-8" standalone="no"?>
<!DOCTYPE svg PUBLIC "-//W3C//DTD SVG 1.1//EN"
 "http://www.w3.org/Graphics/SVG/1.1/DTD/svg11.dtd">
<!-- Generated by graphviz version 2.40.1 (20161225.0304)
 -->
<!-- Title: %3 Pages: 1 -->
<svg width="2707pt" height="831pt"
 viewBox="0.00 0.00 2706.75 830.83" xmlns="http://www.w3.org/2000/svg" xmlns:xlink="http://www.w3.org/1999/xlink">
<g id="graph0" class="graph" transform="scale(1 1) rotate(0) translate(4 826.8326)">
<title>%3</title>
<polygon fill="#ffffff" stroke="transparent" points="-4,4 -4,-826.8326 2702.7487,-826.8326 2702.7487,4 -4,4"/>
<!-- x&#45;vel -->
<g id="node1" class="node">
<title>x&#45;vel</title>
<polygon fill="#d3d3d3" stroke="#000000" points="863.2487,-582.0889 828.2487,-582.0889 828.2487,-564.0889 863.2487,-564.0889 863.2487,-582.0889"/>
<text text-anchor="middle" x="845.7487" y="-570.8889" font-family="Times,serif" font-size="9.00" fill="#000000">x&#45;vel</text>
</g>
<!-- right -->
<g id="node14" class="node">
<title>right</title>
<ellipse fill="#add8e6" stroke="#000000" cx="805.7487" cy="-309.5254" rx="23.1702" ry="23.1702"/>
<text text-anchor="middle" x="805.7487" y="-307.3254" font-family="Times,serif" font-size="9.00" fill="#000000">right</text>
</g>
<!-- x&#45;vel&#45;&gt;right -->
<g id="edge1" class="edge">
<title>x&#45;vel&#45;&gt;right</title>
<path fill="none" stroke="#00ff00" stroke-width=".216" stroke-dasharray="1,5" d="M833.5056,-563.9618C820.3075,-553.2784 800.0734,-534.2354 791.7487,-512.3402 770.0098,-455.1633 784.1221,-382.4477 795.5066,-341.4389"/>
<polygon fill="#00ff00" stroke="#00ff00" stroke-width=".216" points="798.8999,-342.3037 798.3187,-331.7248 792.1759,-340.3571 798.8999,-342.3037"/>
</g>
<!-- 29 -->
<g id="node28" class="node">
<title>29</title>
<ellipse fill="#ffffff" stroke="#000000" cx="1849.7487" cy="-487.5914" rx="18.2703" ry="18.2703"/>
<text text-anchor="middle" x="1849.7487" y="-485.3914" font-family="Times,serif" font-size="9.00" fill="#000000">29</text>
</g>
<!-- x&#45;vel&#45;&gt;29 -->
<g id="edge28" class="edge">
<title>x&#45;vel&#45;&gt;29</title>
<path fill="none" stroke="#ff0000" stroke-width=".1305" d="M863.2719,-568.714C887.168,-562.9502 931.3946,-552.9999 969.7487,-548.3402 1324.3884,-505.2541 1421.1392,-575.5572 1772.7487,-512.3402 1789.9287,-509.2513 1808.5805,-503.3265 1823.2236,-498.0484"/>
<polygon fill="#ff0000" stroke="#ff0000" stroke-width=".1305" points="1824.5012,-501.3075 1832.6533,-494.5404 1822.0605,-494.7468 1824.5012,-501.3075"/>
</g>
<!-- 2618 -->
<g id="node36" class="node">
<title>2618</title>
<ellipse fill="#ffffff" stroke="#000000" cx="499.7487" cy="-487.5914" rx="25" ry="25"/>
<text text-anchor="middle" x="499.7487" y="-485.3914" font-family="Times,serif" font-size="9.00" fill="#000000">2618</text>
</g>
<!-- x&#45;vel&#45;&gt;2618 -->
<g id="edge36" class="edge">
<title>x&#45;vel&#45;&gt;2618</title>
<path fill="none" stroke="#ff0000" stroke-width=".2013" stroke-dasharray="1,5" d="M827.9633,-572.4076C778.8438,-569.9544 637.9919,-559.0349 532.7487,-512.3402 530.9322,-511.5342 529.1218,-510.6122 527.3374,-509.6087"/>
<polygon fill="#ff0000" stroke="#ff0000" stroke-width=".2013" points="529.0303,-506.5362 518.7258,-504.0731 525.2452,-512.4246 529.0303,-506.5362"/>
</g>
<!-- 3830 -->
<g id="node58" class="node">
<title>3830</title>
<ellipse fill="#ffffff" stroke="#000000" cx="1652.7487" cy="-402.094" rx="25" ry="25"/>
<text text-anchor="middle" x="1652.7487" y="-399.894" font-family="Times,serif" font-size="9.00" fill="#000000">3830</text>
</g>
<!-- x&#45;vel&#45;&gt;3830 -->
<g id="edge52" class="edge">
<title>x&#45;vel&#45;&gt;3830</title>
<path fill="none" stroke="#00ff00" stroke-width=".2905" d="M863.292,-568.8701C887.2108,-563.2831 931.4631,-553.5325 969.7487,-548.3402 1188.3288,-518.6961 1253.2735,-575.0636 1464.7487,-512.3402 1474.177,-509.5438 1611.4894,-432.1808 1619.7487,-426.8427 1621.4178,-425.764 1623.1127,-424.6284 1624.8083,-423.4608"/>
<polygon fill="#00ff00" stroke="#00ff00" stroke-width=".2905" points="1627.0803,-426.1388 1633.1754,-417.4728 1623.0064,-420.4464 1627.0803,-426.1388"/>
</g>
<!-- y&#45;vel -->
<g id="node2" class="node">
<title>y&#45;vel</title>
<polygon fill="#d3d3d3" stroke="#000000" points="2030.2487,-667.5864 1995.2487,-667.5864 1995.2487,-649.5864 2030.2487,-649.5864 2030.2487,-667.5864"/>
<text text-anchor="middle" x="2012.7487" y="-656.3864" font-family="Times,serif" font-size="9.00" fill="#000000">y&#45;vel</text>
</g>
<!-- backward -->
<g id="node17" class="node">
<title>backward</title>
<ellipse fill="#add8e6" stroke="#000000" cx="1899.7487" cy="-205.6432" rx="36.125" ry="36.125"/>
<text text-anchor="middle" x="1899.7487" y="-203.4432" font-family="Times,serif" font-size="9.00" fill="#000000">backward</text>
</g>
<!-- y&#45;vel&#45;&gt;backward -->
<g id="edge27" class="edge">
<title>y&#45;vel&#45;&gt;backward</title>
<path fill="none" stroke="#ff0000" stroke-width=".1992" stroke-dasharray="1,5" d="M2015.2404,-649.3993C2021.9245,-623.9173 2039.7487,-550.1046 2039.7487,-487.5914 2039.7487,-487.5914 2039.7487,-487.5914 2039.7487,-402.094 2039.7487,-331.2242 1978.5778,-268.2095 1937.1052,-233.6308"/>
<polygon fill="#ff0000" stroke="#ff0000" stroke-width=".1992" points="1939.0591,-230.7079 1929.0973,-227.1003 1934.6351,-236.1327 1939.0591,-230.7079"/>
</g>
<!-- 6566 -->
<g id="node29" class="node">
<title>6566</title>
<ellipse fill="#ffffff" stroke="#000000" cx="1986.7487" cy="-573.0889" rx="25" ry="25"/>
<text text-anchor="middle" x="1986.7487" y="-570.8889" font-family="Times,serif" font-size="9.00" fill="#000000">6566</text>
</g>
<!-- y&#45;vel&#45;&gt;6566 -->
<g id="edge83" class="edge">
<title>y&#45;vel&#45;&gt;6566</title>
<path fill="none" stroke="#ff0000" stroke-width=".4296" d="M2009.9663,-649.4367C2006.8714,-639.2595 2001.6893,-622.2188 1997.0051,-606.8155"/>
<polygon fill="#ff0000" stroke="#ff0000" stroke-width=".4296" points="2000.2839,-605.5675 1994.0258,-597.0184 1993.5867,-607.6042 2000.2839,-605.5675"/>
</g>
<!-- 3706 -->
<g id="node62" class="node">
<title>3706</title>
<ellipse fill="#ffffff" stroke="#000000" cx="2493.7487" cy="-573.0889" rx="25" ry="25"/>
<text text-anchor="middle" x="2493.7487" y="-570.8889" font-family="Times,serif" font-size="9.00" fill="#000000">3706</text>
</g>
<!-- y&#45;vel&#45;&gt;3706 -->
<g id="edge47" class="edge">
<title>y&#45;vel&#45;&gt;3706</title>
<path fill="none" stroke="#ff0000" stroke-width=".1545" d="M2019.8599,-649.1688C2024.5696,-643.689 2031.2478,-637.2146 2038.7487,-633.8377 2209.9889,-556.7443 2283.8121,-663.5101 2459.7487,-597.8377 2461.9162,-597.0286 2464.0679,-596.0407 2466.1747,-594.9305"/>
<polygon fill="#ff0000" stroke="#ff0000" stroke-width=".1545" points="2468.3656,-597.691 2475.0325,-589.4567 2464.6858,-591.7363 2468.3656,-597.691"/>
</g>
<!-- x&#45;pos -->
<g id="node3" class="node">
<title>x&#45;pos</title>
<polygon fill="#d3d3d3" stroke="#000000" points="1157.7487,-496.5914 1121.7487,-496.5914 1121.7487,-478.5914 1157.7487,-478.5914 1157.7487,-496.5914"/>
<text text-anchor="middle" x="1139.7487" y="-485.3914" font-family="Times,serif" font-size="9.00" fill="#000000">x&#45;pos</text>
</g>
<!-- none -->
<g id="node13" class="node">
<title>none</title>
<ellipse fill="#add8e6" stroke="#000000" cx="851.7487" cy="-24.0416" rx="24.0833" ry="24.0833"/>
<text text-anchor="middle" x="851.7487" y="-21.8416" font-family="Times,serif" font-size="9.00" fill="#000000">none</text>
</g>
<!-- x&#45;pos&#45;&gt;none -->
<g id="edge8" class="edge">
<title>x&#45;pos&#45;&gt;none</title>
<path fill="none" stroke="#00ff00" stroke-width=".4655" stroke-dasharray="1,5" d="M1132.7351,-478.5323C1113.9206,-453.2944 1063.7487,-379.4389 1063.7487,-309.5254 1063.7487,-309.5254 1063.7487,-309.5254 1063.7487,-205.6432 1063.7487,-112.4143 944.0373,-56.7529 884.5287,-34.843"/>
<polygon fill="#00ff00" stroke="#00ff00" stroke-width=".4655" points="885.4346,-31.45 874.84,-31.3786 883.0777,-38.0413 885.4346,-31.45"/>
</g>
<!-- x&#45;pos&#45;&gt;right -->
<g id="edge25" class="edge">
<title>x&#45;pos&#45;&gt;right</title>
<path fill="none" stroke="#ff0000" stroke-width=".1296" stroke-dasharray="1,5" d="M1122.6341,-478.5665C1086.453,-459.5334 999.4639,-414.0157 925.7487,-377.3452 892.6442,-360.877 882.6225,-360.0849 850.7487,-341.3452 844.7635,-337.8263 838.5559,-333.7458 832.7328,-329.7047"/>
<polygon fill="#ff0000" stroke="#ff0000" stroke-width=".1296" points="834.7247,-326.8265 824.5471,-323.8824 830.6673,-332.5307 834.7247,-326.8265"/>
</g>
<!-- left -->
<g id="node15" class="node">
<title>left</title>
<ellipse fill="#add8e6" stroke="#000000" cx="1111.7487" cy="-108.832" rx="19.6" ry="19.6"/>
<text text-anchor="middle" x="1111.7487" y="-106.632" font-family="Times,serif" font-size="9.00" fill="#000000">left</text>
</g>
<!-- x&#45;pos&#45;&gt;left -->
<g id="edge6" class="edge">
<title>x&#45;pos&#45;&gt;left</title>
<path fill="none" stroke="#00ff00" stroke-width=".5158" stroke-dasharray="1,5" d="M1139.0566,-478.2288C1135.5739,-431.1183 1119.9016,-219.117 1114.0032,-139.3285"/>
<polygon fill="#00ff00" stroke="#00ff00" stroke-width=".5158" points="1117.4659,-138.6931 1113.2381,-128.9784 1110.4849,-139.2092 1117.4659,-138.6931"/>
</g>
<!-- x&#45;pos&#45;&gt;backward -->
<g id="edge12" class="edge">
<title>x&#45;pos&#45;&gt;backward</title>
<path fill="none" stroke="#00ff00" stroke-width=".4006" d="M1154.0414,-478.485C1171.6433,-467.0748 1202.2216,-446.6105 1226.7487,-426.8427 1302.6919,-365.6358 1299.6469,-319.5593 1387.7487,-277.7056 1470.0268,-238.6186 1743.6438,-216.2149 1853.5057,-208.6085"/>
<polygon fill="#00ff00" stroke="#00ff00" stroke-width=".4006" points="1853.8759,-212.0915 1863.6143,-207.9186 1853.3992,-205.1077 1853.8759,-212.0915"/>
</g>
<!-- 6789 -->
<g id="node19" class="node">
<title>6789</title>
<ellipse fill="#ffffff" stroke="#000000" cx="1192.7487" cy="-402.094" rx="25" ry="25"/>
<text text-anchor="middle" x="1192.7487" y="-399.894" font-family="Times,serif" font-size="9.00" fill="#000000">6789</text>
</g>
<!-- x&#45;pos&#45;&gt;6789 -->
<g id="edge89" class="edge">
<title>x&#45;pos&#45;&gt;6789</title>
<path fill="none" stroke="#ff0000" stroke-width=".3022" d="M1145.4207,-478.4417C1152.2703,-467.3922 1164.1352,-448.2522 1174.2712,-431.9012"/>
<polygon fill="#ff0000" stroke="#ff0000" stroke-width=".3022" points="1177.3876,-433.5168 1179.6816,-423.1733 1171.438,-429.8287 1177.3876,-433.5168"/>
</g>
<!-- 6486 -->
<g id="node49" class="node">
<title>6486</title>
<ellipse fill="#ffffff" stroke="#000000" cx="1192.7487" cy="-309.5254" rx="25" ry="25"/>
<text text-anchor="middle" x="1192.7487" y="-307.3254" font-family="Times,serif" font-size="9.00" fill="#000000">6486</text>
</g>
<!-- x&#45;pos&#45;&gt;6486 -->
<g id="edge79" class="edge">
<title>x&#45;pos&#45;&gt;6486</title>
<path fill="none" stroke="#00ff00" stroke-width=".1218" d="M1140.4067,-478.515C1141.9883,-459.3844 1146.7969,-413.6922 1158.7487,-377.3452 1162.9273,-364.6378 1169.1417,-351.3387 1175.1189,-339.9176"/>
<polygon fill="#00ff00" stroke="#00ff00" stroke-width=".1218" points="1178.3602,-341.2815 1180.0342,-330.8197 1172.2015,-337.9542 1178.3602,-341.2815"/>
</g>
<!-- 1367 -->
<g id="node50" class="node">
<title>1367</title>
<ellipse fill="#ffffff" stroke="#000000" cx="1336.7487" cy="-402.094" rx="25" ry="25"/>
<text text-anchor="middle" x="1336.7487" y="-399.894" font-family="Times,serif" font-size="9.00" fill="#000000">1367</text>
</g>
<!-- x&#45;pos&#45;&gt;1367 -->
<g id="edge33" class="edge">
<title>x&#45;pos&#45;&gt;1367</title>
<path fill="none" stroke="#ff0000" stroke-width=".3603" stroke-dasharray="1,5" d="M1157.7762,-481.9611C1187.6393,-472.3501 1248.9215,-451.416 1297.7487,-426.8427 1300.9251,-425.2441 1304.1713,-423.4568 1307.3677,-421.594"/>
<polygon fill="#ff0000" stroke="#ff0000" stroke-width=".3603" points="1309.4314,-424.435 1316.1451,-416.2388 1305.7856,-418.4593 1309.4314,-424.435"/>
</g>
<!-- y&#45;pos -->
<g id="node4" class="node">
<title>y&#45;pos</title>
<polygon fill="#d3d3d3" stroke="#000000" points="2450.7487,-582.0889 2414.7487,-582.0889 2414.7487,-564.0889 2450.7487,-564.0889 2450.7487,-582.0889"/>
<text text-anchor="middle" x="2432.7487" y="-570.8889" font-family="Times,serif" font-size="9.00" fill="#000000">y&#45;pos</text>
</g>
<!-- y&#45;pos&#45;&gt;none -->
<g id="edge17" class="edge">
<title>y&#45;pos&#45;&gt;none</title>
<path fill="none" stroke="#00ff00" stroke-width=".2792" stroke-dasharray="1,5" d="M2442.5964,-563.9743C2459.959,-547.8518 2494.3301,-515.6789 2495.7487,-512.3402 2556.5186,-369.322 2524.1481,-290.6614 2426.7487,-169.5807 2375.9666,-106.4516 2343.9333,-105.3267 2265.7487,-84.0833 2128.8949,-46.8989 1088.8705,-27.9507 885.9963,-24.5888"/>
<polygon fill="#00ff00" stroke="#00ff00" stroke-width=".2792" points="885.9767,-21.0881 875.9205,-24.4233 885.8616,-28.0872 885.9767,-21.0881"/>
</g>
<!-- y&#45;pos&#45;&gt;left -->
<g id="edge30" class="edge">
<title>y&#45;pos&#45;&gt;left</title>
<path fill="none" stroke="#00ff00" stroke-width=".1648" d="M2443.238,-564.0509C2454.9822,-553.1678 2473.3384,-533.6716 2480.7487,-512.3402 2487.9678,-491.5595 2483.631,-484.652 2480.7487,-462.8427 2468.7618,-372.1408 2465.4091,-330.5861 2390.7487,-277.7056 2180.4981,-128.7891 1315.1621,-111.1424 1141.9941,-109.0953"/>
<polygon fill="#00ff00" stroke="#00ff00" stroke-width=".1648" points="1141.8587,-105.5937 1131.8209,-108.984 1141.782,-112.5933 1141.8587,-105.5937"/>
</g>
<!-- y&#45;pos&#45;&gt;backward -->
<g id="edge11" class="edge">
<title>y&#45;pos&#45;&gt;backward</title>
<path fill="none" stroke="#00ff00" stroke-width=".5042" stroke-dasharray="1,5" d="M2439.5094,-563.7882C2447.3691,-552.3464 2459.8843,-532.0124 2464.7487,-512.3402 2470.0295,-490.9845 2471.1463,-483.8908 2464.7487,-462.8427 2435.9484,-368.0889 2424.0555,-331.2568 2340.7487,-277.7056 2275.8304,-235.9749 2045.4487,-215.5823 1946.006,-208.5665"/>
<polygon fill="#00ff00" stroke="#00ff00" stroke-width=".5042" points="1946.1711,-205.0696 1935.9535,-207.8715 1945.6883,-212.053 1946.1711,-205.0696"/>
</g>
<!-- 8706 -->
<g id="node20" class="node">
<title>8706</title>
<ellipse fill="#ffffff" stroke="#000000" cx="2379.7487" cy="-487.5914" rx="25" ry="25"/>
<text text-anchor="middle" x="2379.7487" y="-485.3914" font-family="Times,serif" font-size="9.00" fill="#000000">8706</text>
</g>
<!-- y&#45;pos&#45;&gt;8706 -->
<g id="edge128" class="edge">
<title>y&#45;pos&#45;&gt;8706</title>
<path fill="none" stroke="#00ff00" stroke-width=".2984" d="M2427.0768,-563.9392C2420.2272,-552.8897 2408.3623,-533.7497 2398.2263,-517.3987"/>
<polygon fill="#00ff00" stroke="#00ff00" stroke-width=".2984" points="2401.0595,-515.3261 2392.8159,-508.6708 2395.1099,-519.0143 2401.0595,-515.3261"/>
</g>
<!-- 2890 -->
<g id="node44" class="node">
<title>2890</title>
<ellipse fill="#ffffff" stroke="#000000" cx="2092.7487" cy="-402.094" rx="25" ry="25"/>
<text text-anchor="middle" x="2092.7487" y="-399.894" font-family="Times,serif" font-size="9.00" fill="#000000">2890</text>
</g>
<!-- y&#45;pos&#45;&gt;2890 -->
<g id="edge41" class="edge">
<title>y&#45;pos&#45;&gt;2890</title>
<path fill="none" stroke="#00ff00" stroke-width=".6396" d="M2434.2856,-563.8629C2437.2254,-542.7642 2441.1262,-490.6721 2413.7487,-462.8427 2393.6921,-442.455 2205.9829,-416.484 2127.2474,-406.3829"/>
<polygon fill="#00ff00" stroke="#00ff00" stroke-width=".6396" points="2127.6882,-402.9108 2117.3263,-405.1202 2126.8044,-409.8548 2127.6882,-402.9108"/>
</g>
<!-- 8276 -->
<g id="node48" class="node">
<title>8276</title>
<ellipse fill="#ffffff" stroke="#000000" cx="2326.7487" cy="-402.094" rx="25" ry="25"/>
<text text-anchor="middle" x="2326.7487" y="-399.894" font-family="Times,serif" font-size="9.00" fill="#000000">8276</text>
</g>
<!-- y&#45;pos&#45;&gt;8276 -->
<g id="edge114" class="edge">
<title>y&#45;pos&#45;&gt;8276</title>
<path fill="none" stroke="#00ff00" stroke-width=".2334" d="M2437.5118,-563.9911C2447.2415,-544.0268 2466.8525,-495.5531 2446.7487,-462.8427 2428.2367,-432.7221 2389.647,-416.9807 2361.2041,-409.1458"/>
<polygon fill="#00ff00" stroke="#00ff00" stroke-width=".2334" points="2361.7949,-405.6845 2351.2402,-406.605 2360.0652,-412.4675 2361.7949,-405.6845"/>
</g>
<!-- 6517 -->
<g id="node57" class="node">
<title>6517</title>
<ellipse fill="#ffffff" stroke="#000000" cx="1872.7487" cy="-402.094" rx="25" ry="25"/>
<text text-anchor="middle" x="1872.7487" y="-399.894" font-family="Times,serif" font-size="9.00" fill="#000000">6517</text>
</g>
<!-- y&#45;pos&#45;&gt;6517 -->
<g id="edge81" class="edge">
<title>y&#45;pos&#45;&gt;6517</title>
<path fill="none" stroke="#ff0000" stroke-width=".2727" d="M2416.9066,-564.0696C2398.5979,-553.2041 2368.1217,-533.7244 2345.7487,-512.3402 2325.6997,-493.1772 2331.988,-476.3202 2307.7487,-462.8427 2236.9014,-423.4503 2023.9454,-444.1344 1944.7487,-426.8427 1931.6333,-423.9791 1917.5921,-419.4924 1905.424,-415.1211"/>
<polygon fill="#ff0000" stroke="#ff0000" stroke-width=".2727" points="1906.2977,-411.7121 1895.7047,-411.5145 1903.8624,-418.2749 1906.2977,-411.7121"/>
</g>
<!-- x&#45;lm1&#45;vec -->
<g id="node5" class="node">
<title>x&#45;lm1&#45;vec</title>
<polygon fill="#d3d3d3" stroke="#000000" points="1764.2487,-496.5914 1711.2487,-496.5914 1711.2487,-478.5914 1764.2487,-478.5914 1764.2487,-496.5914"/>
<text text-anchor="middle" x="1737.7487" y="-485.3914" font-family="Times,serif" font-size="9.00" fill="#000000">x&#45;lm1&#45;vec</text>
</g>
<!-- x&#45;lm1&#45;vec&#45;&gt;right -->
<g id="edge7" class="edge">
<title>x&#45;lm1&#45;vec&#45;&gt;right</title>
<path fill="none" stroke="#00ff00" stroke-width=".189" d="M1718.6596,-478.5289C1707.0476,-473.3178 1691.7946,-467.0008 1677.7487,-462.8427 1594.0807,-438.0742 1568.1853,-452.3803 1484.7487,-426.8427 1431.9309,-410.6766 1424.4102,-390.4415 1370.7487,-377.3452 1145.69,-322.4189 1068.9731,-419.1044 850.7487,-341.3452 844.0874,-338.9716 837.5217,-335.3165 831.5517,-331.3176"/>
<polygon fill="#00ff00" stroke="#00ff00" stroke-width=".189" points="833.4385,-328.3624 823.2892,-325.322 829.3273,-334.0279 833.4385,-328.3624"/>
</g>
<!-- x&#45;lm1&#45;vec&#45;&gt;left -->
<g id="edge18" class="edge">
<title>x&#45;lm1&#45;vec&#45;&gt;left</title>
<path fill="none" stroke="#ff0000" stroke-width="2.3534" d="M1735.5411,-478.5776C1730.2073,-458.3621 1714.9331,-408.7233 1686.7487,-377.3452 1665.9678,-354.2095 1648.7152,-363.3585 1626.7487,-341.3452 1603.4794,-318.0263 1614.2315,-298.583 1588.7487,-277.7056 1447.9475,-162.351 1222.5966,-123.1001 1141.7937,-112.327"/>
<polygon fill="#ff0000" stroke="#ff0000" stroke-width="2.3534" points="1142.1694,-108.8466 1131.805,-111.0439 1141.2775,-115.7896 1142.1694,-108.8466"/>
</g>
<!-- x&#45;lm1&#45;vec&#45;&gt;backward -->
<g id="edge14" class="edge">
<title>x&#45;lm1&#45;vec&#45;&gt;backward</title>
<path fill="none" stroke="#00ff00" stroke-width=".3918" stroke-dasharray="1,5" d="M1738.3354,-478.5395C1739.0724,-466.6741 1740.2955,-445.2107 1740.7487,-426.8427 1741.2914,-404.8505 1743.1492,-399.2128 1740.7487,-377.3452 1735.901,-333.1837 1708.3382,-314.8252 1732.7487,-277.7056 1759.4034,-237.1735 1814.2079,-219.3369 1853.7775,-211.5531"/>
<polygon fill="#00ff00" stroke="#00ff00" stroke-width=".3918" points="1854.5245,-214.9747 1863.7361,-209.7405 1853.2709,-208.0878 1854.5245,-214.9747"/>
</g>
<!-- x&#45;lm1&#45;vec&#45;&gt;6517 -->
<g id="edge105" class="edge">
<title>x&#45;lm1&#45;vec&#45;&gt;6517</title>
<path fill="none" stroke="#ff0000" stroke-width=".3342" d="M1752.1961,-478.4417C1773.801,-464.759 1814.9947,-438.6705 1843.1583,-420.834"/>
<polygon fill="#ff0000" stroke="#ff0000" stroke-width=".3342" points="1845.2275,-423.6665 1851.8031,-415.3591 1841.4822,-417.7527 1845.2275,-423.6665"/>
</g>
<!-- x&#45;lm1&#45;vec&#45;&gt;3830 -->
<g id="edge64" class="edge">
<title>x&#45;lm1&#45;vec&#45;&gt;3830</title>
<path fill="none" stroke="#ff0000" stroke-width=".3655" d="M1728.6522,-478.4417C1716.6191,-466.3381 1694.9347,-444.5269 1677.8154,-427.3074"/>
<polygon fill="#ff0000" stroke="#ff0000" stroke-width=".3655" points="1679.8546,-424.3943 1670.3221,-419.7702 1674.8905,-429.3296 1679.8546,-424.3943"/>
</g>
<!-- 7925 -->
<g id="node59" class="node">
<title>7925</title>
<ellipse fill="#ffffff" stroke="#000000" cx="1660.7487" cy="-309.5254" rx="25" ry="25"/>
<text text-anchor="middle" x="1660.7487" y="-307.3254" font-family="Times,serif" font-size="9.00" fill="#000000">7925</text>
</g>
<!-- x&#45;lm1&#45;vec&#45;&gt;7925 -->
<g id="edge106" class="edge">
<title>x&#45;lm1&#45;vec&#45;&gt;7925</title>
<path fill="none" stroke="#00ff00" stroke-width=".2537" d="M1737.9083,-478.5313C1737.9103,-459.0455 1736.0663,-412.1046 1719.7487,-377.3452 1711.8952,-360.6158 1698.6824,-344.8515 1686.7491,-332.7393"/>
<polygon fill="#00ff00" stroke="#00ff00" stroke-width=".2537" points="1689.1406,-330.1825 1679.5437,-325.6937 1684.2467,-335.1875 1689.1406,-330.1825"/>
</g>
<!-- y&#45;lm1&#45;vec -->
<g id="node6" class="node">
<title>y&#45;lm1&#45;vec</title>
<polygon fill="#d3d3d3" stroke="#000000" points="327.2487,-496.5914 274.2487,-496.5914 274.2487,-478.5914 327.2487,-478.5914 327.2487,-496.5914"/>
<text text-anchor="middle" x="300.7487" y="-485.3914" font-family="Times,serif" font-size="9.00" fill="#000000">y&#45;lm1&#45;vec</text>
</g>
<!-- y&#45;lm1&#45;vec&#45;&gt;left -->
<g id="edge26" class="edge">
<title>y&#45;lm1&#45;vec&#45;&gt;left</title>
<path fill="none" stroke="#ff0000" stroke-width=".9811" stroke-dasharray="1,5" d="M327.4288,-481.6653C359.6565,-473.5034 414.321,-456.356 452.7487,-426.8427 509.3242,-383.3916 583.182,-205.6128 644.7487,-169.5807 719.5057,-125.8291 990.4348,-112.8859 1081.5867,-109.7244"/>
<polygon fill="#ff0000" stroke="#ff0000" stroke-width=".9811" points="1081.9079,-113.2158 1091.7863,-109.386 1081.6757,-106.2196 1081.9079,-113.2158"/>
</g>
<!-- 7241 -->
<g id="node43" class="node">
<title>7241</title>
<ellipse fill="#ffffff" stroke="#000000" cx="253.7487" cy="-309.5254" rx="25" ry="25"/>
<text text-anchor="middle" x="253.7487" y="-307.3254" font-family="Times,serif" font-size="9.00" fill="#000000">7241</text>
</g>
<!-- y&#45;lm1&#45;vec&#45;&gt;7241 -->
<g id="edge93" class="edge">
<title>y&#45;lm1&#45;vec&#45;&gt;7241</title>
<path fill="none" stroke="#ff0000" stroke-width=".2836" stroke-dasharray="1,5" d="M298.3534,-478.5163C291.8728,-453.9638 273.7408,-385.2681 262.6918,-343.4075"/>
<polygon fill="#ff0000" stroke="#ff0000" stroke-width=".2836" points="266.05,-342.4157 260.1137,-333.64 259.2818,-344.2022 266.05,-342.4157"/>
</g>
<!-- 5455 -->
<g id="node46" class="node">
<title>5455</title>
<ellipse fill="#ffffff" stroke="#000000" cx="291.7487" cy="-108.832" rx="25" ry="25"/>
<text text-anchor="middle" x="291.7487" y="-106.632" font-family="Times,serif" font-size="9.00" fill="#000000">5455</text>
</g>
<!-- y&#45;lm1&#45;vec&#45;&gt;5455 -->
<g id="edge68" class="edge">
<title>y&#45;lm1&#45;vec&#45;&gt;5455</title>
<path fill="none" stroke="#00ff00" stroke-width=".4891" d="M300.5263,-478.2288C299.428,-432.0106 294.5587,-227.0883 292.5844,-144.0023"/>
<polygon fill="#00ff00" stroke="#00ff00" stroke-width=".4891" points="296.0787,-143.7165 292.3421,-133.8024 289.0807,-143.8828 296.0787,-143.7165"/>
</g>
<!-- y&#45;lm1&#45;vec&#45;&gt;1367 -->
<g id="edge53" class="edge">
<title>y&#45;lm1&#45;vec&#45;&gt;1367</title>
<path fill="none" stroke="#ff0000" stroke-width=".2187" stroke-dasharray="1,5" d="M327.509,-482.7215C360.0613,-476.996 416.7427,-467.6645 465.7487,-462.8427 802.722,-429.6871 891.1967,-472.1759 1226.7487,-426.8427 1252.538,-423.3586 1281.2076,-416.8187 1302.8108,-411.3365"/>
<polygon fill="#ff0000" stroke="#ff0000" stroke-width=".2187" points="1303.6996,-414.7219 1312.5035,-408.8277 1301.9455,-407.9452 1303.6996,-414.7219"/>
</g>
<!-- 9056 -->
<g id="node54" class="node">
<title>9056</title>
<ellipse fill="#ffffff" stroke="#000000" cx="228.7487" cy="-402.094" rx="25" ry="25"/>
<text text-anchor="middle" x="228.7487" y="-399.894" font-family="Times,serif" font-size="9.00" fill="#000000">9056</text>
</g>
<!-- y&#45;lm1&#45;vec&#45;&gt;9056 -->
<g id="edge136" class="edge">
<title>y&#45;lm1&#45;vec&#45;&gt;9056</title>
<path fill="none" stroke="#ff0000" stroke-width=".1292" d="M293.0435,-478.4417C283.1919,-466.7433 265.7034,-445.9764 251.4506,-429.0517"/>
<polygon fill="#ff0000" stroke="#ff0000" stroke-width=".1292" points="253.8801,-426.503 244.7614,-421.1084 248.5257,-431.012 253.8801,-426.503"/>
</g>
<!-- 4347 -->
<g id="node63" class="node">
<title>4347</title>
<ellipse fill="#ffffff" stroke="#000000" cx="122.7487" cy="-402.094" rx="25" ry="25"/>
<text text-anchor="middle" x="122.7487" y="-399.894" font-family="Times,serif" font-size="9.00" fill="#000000">4347</text>
</g>
<!-- y&#45;lm1&#45;vec&#45;&gt;4347 -->
<g id="edge91" class="edge">
<title>y&#45;lm1&#45;vec&#45;&gt;4347</title>
<path fill="none" stroke="#ff0000" stroke-width=".2754" d="M281.6996,-478.4417C251.3203,-463.8498 191.5663,-435.1486 154.602,-417.3938"/>
<polygon fill="#ff0000" stroke="#ff0000" stroke-width=".2754" points="155.8051,-414.089 145.2756,-412.9142 152.7743,-420.3988 155.8051,-414.089"/>
</g>
<!-- x&#45;lm2&#45;vec -->
<g id="node7" class="node">
<title>x&#45;lm2&#45;vec</title>
<polygon fill="#d3d3d3" stroke="#000000" points="595.2487,-496.5914 542.2487,-496.5914 542.2487,-478.5914 595.2487,-478.5914 595.2487,-496.5914"/>
<text text-anchor="middle" x="568.7487" y="-485.3914" font-family="Times,serif" font-size="9.00" fill="#000000">x&#45;lm2&#45;vec</text>
</g>
<!-- x&#45;lm2&#45;vec&#45;&gt;right -->
<g id="edge10" class="edge">
<title>x&#45;lm2&#45;vec&#45;&gt;right</title>
<path fill="none" stroke="#00ff00" stroke-width=".8266" d="M572.7839,-478.315C582.4855,-457.1102 609.2042,-404.8105 647.7487,-377.3452 693.4425,-344.7857 719.5024,-368.231 768.7487,-341.3452 773.0757,-338.9829 777.3472,-336.0506 781.365,-332.9294"/>
<polygon fill="#00ff00" stroke="#00ff00" stroke-width=".8266" points="783.769,-335.4815 789.1919,-326.3796 779.2766,-330.1132 783.769,-335.4815"/>
</g>
<!-- x&#45;lm2&#45;vec&#45;&gt;left -->
<g id="edge13" class="edge">
<title>x&#45;lm2&#45;vec&#45;&gt;left</title>
<path fill="none" stroke="#00ff00" stroke-width=".3704" stroke-dasharray="1,5" d="M568.1437,-478.5409C567.1226,-459.4593 566.0275,-413.8549 575.7487,-377.3452 608.4116,-254.6745 655.0983,-219.6572 771.7487,-169.5807 879.3455,-123.3909 1020.6247,-112.3208 1081.595,-109.6679"/>
<polygon fill="#00ff00" stroke="#00ff00" stroke-width=".3704" points="1081.8277,-113.1616 1091.684,-109.2753 1081.5554,-106.1669 1081.8277,-113.1616"/>
</g>
<!-- 3768 -->
<g id="node35" class="node">
<title>3768</title>
<ellipse fill="#ffffff" stroke="#000000" cx="714.7487" cy="-402.094" rx="25" ry="25"/>
<text text-anchor="middle" x="714.7487" y="-399.894" font-family="Times,serif" font-size="9.00" fill="#000000">3768</text>
</g>
<!-- x&#45;lm2&#45;vec&#45;&gt;3768 -->
<g id="edge49" class="edge">
<title>x&#45;lm2&#45;vec&#45;&gt;3768</title>
<path fill="none" stroke="#00ff00" stroke-width=".182" stroke-dasharray="1,5" d="M584.3733,-478.4417C608.1064,-464.5436 653.6966,-437.846 684.175,-419.9979"/>
<polygon fill="#00ff00" stroke="#00ff00" stroke-width=".182" points="686.2471,-422.8405 693.1077,-414.7669 682.7098,-416.8 686.2471,-422.8405"/>
</g>
<!-- 2106 -->
<g id="node37" class="node">
<title>2106</title>
<ellipse fill="#ffffff" stroke="#000000" cx="805.7487" cy="-205.6432" rx="25" ry="25"/>
<text text-anchor="middle" x="805.7487" y="-203.4432" font-family="Times,serif" font-size="9.00" fill="#000000">2106</text>
</g>
<!-- x&#45;lm2&#45;vec&#45;&gt;2106 -->
<g id="edge45" class="edge">
<title>x&#45;lm2&#45;vec&#45;&gt;2106</title>
<path fill="none" stroke="#ff0000" stroke-width=".132" d="M569.4745,-478.5668C571.4342,-458.7485 578.2304,-410.5477 599.7487,-377.3452 645.7058,-306.4341 730.0418,-249.7667 775.2381,-222.7889"/>
<polygon fill="#ff0000" stroke="#ff0000" stroke-width=".132" points="777.1491,-225.7256 783.9967,-217.6409 773.602,-219.6908 777.1491,-225.7256"/>
</g>
<!-- y&#45;lm2&#45;vec -->
<g id="node8" class="node">
<title>y&#45;lm2&#45;vec</title>
<polygon fill="#d3d3d3" stroke="#000000" points="2161.2487,-582.0889 2108.2487,-582.0889 2108.2487,-564.0889 2161.2487,-564.0889 2161.2487,-582.0889"/>
<text text-anchor="middle" x="2134.7487" y="-570.8889" font-family="Times,serif" font-size="9.00" fill="#000000">y&#45;lm2&#45;vec</text>
</g>
<!-- forward -->
<g id="node16" class="node">
<title>forward</title>
<ellipse fill="#add8e6" stroke="#000000" cx="2243.7487" cy="-309.5254" rx="31.6406" ry="31.6406"/>
<text text-anchor="middle" x="2243.7487" y="-307.3254" font-family="Times,serif" font-size="9.00" fill="#000000">forward</text>
</g>
<!-- y&#45;lm2&#45;vec&#45;&gt;forward -->
<g id="edge20" class="edge">
<title>y&#45;lm2&#45;vec&#45;&gt;forward</title>
<path fill="none" stroke="#ff0000" stroke-width=".7113" d="M2133.5272,-563.9285C2131.3039,-544.6391 2127.8513,-498.6631 2139.7487,-462.8427 2144.1145,-449.6985 2189.6881,-384.8326 2219.0402,-343.797"/>
<polygon fill="#ff0000" stroke="#ff0000" stroke-width=".7113" points="2222.0566,-345.5964 2225.0367,-335.4293 2216.3667,-341.5189 2222.0566,-345.5964"/>
</g>
<!-- y&#45;lm2&#45;vec&#45;&gt;backward -->
<g id="edge16" class="edge">
<title>y&#45;lm2&#45;vec&#45;&gt;backward</title>
<path fill="none" stroke="#ff0000" stroke-width=".2571" stroke-dasharray="1,5" d="M2136.5517,-563.9759C2140.7043,-544.3872 2152.1967,-497.2583 2172.7487,-462.8427 2222.0552,-380.2763 2346.1769,-351.6984 2284.7487,-277.7056 2242.1926,-226.445 2039.2226,-211.4371 1946.34,-207.2168"/>
<polygon fill="#ff0000" stroke="#ff0000" stroke-width=".2571" points="1946.2486,-203.7097 1936.1071,-206.7754 1945.947,-210.7032 1946.2486,-203.7097"/>
</g>
<!-- 4755 -->
<g id="node25" class="node">
<title>4755</title>
<ellipse fill="#ffffff" stroke="#000000" cx="1591.7487" cy="-487.5914" rx="25" ry="25"/>
<text text-anchor="middle" x="1591.7487" y="-485.3914" font-family="Times,serif" font-size="9.00" fill="#000000">4755</text>
</g>
<!-- y&#45;lm2&#45;vec&#45;&gt;4755 -->
<g id="edge59" class="edge">
<title>y&#45;lm2&#45;vec&#45;&gt;4755</title>
<path fill="none" stroke="#00ff00" stroke-width=".4216" d="M2108.1932,-566.4126C2085.1927,-560.8494 2050.9587,-553.0929 2020.7487,-548.3402 1859.72,-523.0066 1814.3288,-550.0817 1655.7487,-512.3402 1645.1446,-509.8164 1633.9447,-505.9351 1623.9297,-501.9891"/>
<polygon fill="#00ff00" stroke="#00ff00" stroke-width=".4216" points="1624.9557,-498.6269 1614.3755,-498.0694 1622.2987,-505.1031 1624.9557,-498.6269"/>
</g>
<!-- 2482 -->
<g id="node33" class="node">
<title>2482</title>
<ellipse fill="#ffffff" stroke="#000000" cx="2206.7487" cy="-487.5914" rx="25" ry="25"/>
<text text-anchor="middle" x="2206.7487" y="-485.3914" font-family="Times,serif" font-size="9.00" fill="#000000">2482</text>
</g>
<!-- y&#45;lm2&#45;vec&#45;&gt;2482 -->
<g id="edge35" class="edge">
<title>y&#45;lm2&#45;vec&#45;&gt;2482</title>
<path fill="none" stroke="#00ff00" stroke-width=".3208" d="M2142.454,-563.9392C2152.3056,-552.2408 2169.7941,-531.4738 2184.0468,-514.5492"/>
<polygon fill="#00ff00" stroke="#00ff00" stroke-width=".3208" points="2186.9717,-516.5095 2190.7361,-506.6059 2181.6174,-512.0004 2186.9717,-516.5095"/>
</g>
<!-- 5707 -->
<g id="node45" class="node">
<title>5707</title>
<ellipse fill="#ffffff" stroke="#000000" cx="2273.7487" cy="-487.5914" rx="25" ry="25"/>
<text text-anchor="middle" x="2273.7487" y="-485.3914" font-family="Times,serif" font-size="9.00" fill="#000000">5707</text>
</g>
<!-- y&#45;lm2&#45;vec&#45;&gt;5707 -->
<g id="edge69" class="edge">
<title>y&#45;lm2&#45;vec&#45;&gt;5707</title>
<path fill="none" stroke="#ff0000" stroke-width=".5894" d="M2152.0251,-564.0381C2173.3322,-552.6839 2210.4486,-532.276 2240.7487,-512.3402 2242.4089,-511.2479 2244.0969,-510.1016 2245.7872,-508.9259"/>
<polygon fill="#ff0000" stroke="#ff0000" stroke-width=".5894" points="2248.0671,-511.5972 2254.1396,-502.9153 2243.9784,-505.9155 2248.0671,-511.5972"/>
</g>
<!-- y&#45;lm2&#45;vec&#45;&gt;1367 -->
<g id="edge43" class="edge">
<title>y&#45;lm2&#45;vec&#45;&gt;1367</title>
<path fill="none" stroke="#00ff00" stroke-width=".3555" stroke-dasharray="1,5" d="M2108.1759,-566.5197C2085.1647,-561.0236 2050.9245,-553.3053 2020.7487,-548.3402 1879.964,-525.1757 1836.0276,-560.5701 1701.7487,-512.3402 1663.8117,-498.7141 1663.0218,-478.1922 1625.7487,-462.8427 1552.727,-432.7715 1529.0178,-443.1502 1451.7487,-426.8427 1424.5433,-421.1011 1393.7482,-414.4666 1370.8766,-409.5129"/>
<polygon fill="#00ff00" stroke="#00ff00" stroke-width=".3555" points="1371.4814,-406.0628 1360.9669,-407.3644 1369.9982,-412.9039 1371.4814,-406.0628"/>
</g>
<!-- x&#45;other&#45;vec -->
<g id="node9" class="node">
<title>x&#45;other&#45;vec</title>
<polygon fill="#d3d3d3" stroke="#000000" points="443.7487,-411.094 385.7487,-411.094 385.7487,-393.094 443.7487,-393.094 443.7487,-411.094"/>
<text text-anchor="middle" x="414.7487" y="-399.894" font-family="Times,serif" font-size="9.00" fill="#000000">x&#45;other&#45;vec</text>
</g>
<!-- x&#45;other&#45;vec&#45;&gt;none -->
<g id="edge5" class="edge">
<title>x&#45;other&#45;vec&#45;&gt;none</title>
<path fill="none" stroke="#00ff00" stroke-width=".1739" stroke-dasharray="1,5" d="M412.0987,-392.7232C408.898,-380.8747 403.7005,-359.7932 401.7487,-341.3452 398.7729,-313.218 399.2919,-305.883 401.7487,-277.7056 410.0082,-182.9803 410.1522,-131.1887 492.7487,-84.0833 548.0589,-52.5394 738.7522,-33.4516 817.409,-26.7561"/>
<polygon fill="#00ff00" stroke="#00ff00" stroke-width=".1739" points="818.0645,-30.2136 827.7385,-25.8935 817.4819,-23.2379 818.0645,-30.2136"/>
</g>
<!-- x&#45;other&#45;vec&#45;&gt;right -->
<g id="edge2" class="edge">
<title>x&#45;other&#45;vec&#45;&gt;right</title>
<path fill="none" stroke="#ff0000" stroke-width=".2969" stroke-dasharray="1,5" d="M441.1199,-392.9793C456.8321,-387.815 477.2553,-381.5637 495.7487,-377.3452 598.7654,-353.8463 629.103,-370.2032 730.7487,-341.3452 745.8583,-337.0555 761.9717,-330.5001 775.375,-324.4517"/>
<polygon fill="#ff0000" stroke="#ff0000" stroke-width=".2969" points="777.0002,-327.5562 784.6026,-320.1768 774.0577,-321.2046 777.0002,-327.5562"/>
</g>
<!-- x&#45;other&#45;vec&#45;&gt;backward -->
<g id="edge21" class="edge">
<title>x&#45;other&#45;vec&#45;&gt;backward</title>
<path fill="none" stroke="#00ff00" stroke-width=".6011" stroke-dasharray="1,5" d="M443.9768,-393.107C459.3722,-388.3876 478.5733,-382.5241 495.7487,-377.3452 549.4673,-361.1477 563.7999,-359.9052 616.7487,-341.3452 687.8024,-316.439 700.346,-294.4678 773.7487,-277.7056 984.4987,-229.5789 1668.8405,-210.8723 1853.4835,-206.6299"/>
<polygon fill="#00ff00" stroke="#00ff00" stroke-width=".6011" points="1853.7466,-210.125 1863.6647,-206.3991 1853.5879,-203.1268 1853.7466,-210.125"/>
</g>
<!-- 8337 -->
<g id="node24" class="node">
<title>8337</title>
<ellipse fill="#ffffff" stroke="#000000" cx="435.7487" cy="-309.5254" rx="25" ry="25"/>
<text text-anchor="middle" x="435.7487" y="-307.3254" font-family="Times,serif" font-size="9.00" fill="#000000">8337</text>
</g>
<!-- x&#45;other&#45;vec&#45;&gt;8337 -->
<g id="edge118" class="edge">
<title>x&#45;other&#45;vec&#45;&gt;8337</title>
<path fill="none" stroke="#ff0000" stroke-width=".3817" d="M416.8391,-392.8797C419.4234,-381.4878 423.9694,-361.4493 427.9563,-343.8748"/>
<polygon fill="#ff0000" stroke="#ff0000" stroke-width=".3817" points="431.4209,-344.4225 430.2201,-333.8959 424.5944,-342.8737 431.4209,-344.4225"/>
</g>
<!-- x&#45;other&#45;vec&#45;&gt;2106 -->
<g id="edge40" class="edge">
<title>x&#45;other&#45;vec&#45;&gt;2106</title>
<path fill="none" stroke="#ff0000" stroke-width=".1871" stroke-dasharray="1,5" d="M434.0306,-392.9742C458.8115,-381.213 503.1268,-360.044 540.7487,-341.3452 625.76,-299.0931 725.1899,-247.6198 774.5933,-221.9041"/>
<polygon fill="#ff0000" stroke="#ff0000" stroke-width=".1871" points="776.2525,-224.9863 783.5046,-217.2624 773.0188,-218.778 776.2525,-224.9863"/>
</g>
<!-- 6594 -->
<g id="node40" class="node">
<title>6594</title>
<ellipse fill="#ffffff" stroke="#000000" cx="454.7487" cy="-205.6432" rx="25" ry="25"/>
<text text-anchor="middle" x="454.7487" y="-203.4432" font-family="Times,serif" font-size="9.00" fill="#000000">6594</text>
</g>
<!-- x&#45;other&#45;vec&#45;&gt;6594 -->
<g id="edge84" class="edge">
<title>x&#45;other&#45;vec&#45;&gt;6594</title>
<path fill="none" stroke="#ff0000" stroke-width=".8244" d="M427.2131,-393.0192C440.6507,-382.3828 461.2551,-363.3819 469.7487,-341.3452 482.5796,-308.0558 475.1373,-267.0011 466.8257,-238.82"/>
<polygon fill="#ff0000" stroke="#ff0000" stroke-width=".8244" points="470.0955,-237.5502 463.7601,-229.0582 463.417,-239.6475 470.0955,-237.5502"/>
</g>
<!-- 5108 -->
<g id="node56" class="node">
<title>5108</title>
<ellipse fill="#ffffff" stroke="#000000" cx="526.7487" cy="-108.832" rx="25" ry="25"/>
<text text-anchor="middle" x="526.7487" y="-106.632" font-family="Times,serif" font-size="9.00" fill="#000000">5108</text>
</g>
<!-- x&#45;other&#45;vec&#45;&gt;5108 -->
<g id="edge62" class="edge">
<title>x&#45;other&#45;vec&#45;&gt;5108</title>
<path fill="none" stroke="#00ff00" stroke-width=".5996" stroke-dasharray="1,5" d="M431.3506,-393.0936C448.4266,-382.9048 474.3608,-364.6486 487.7487,-341.3452 523.7652,-278.6542 528.6468,-191.7768 528.2122,-143.9377"/>
<polygon fill="#00ff00" stroke="#00ff00" stroke-width=".5996" points="531.709,-143.7176 528.0336,-133.7807 524.7101,-143.8407 531.709,-143.7176"/>
</g>
<!-- y&#45;other&#45;vec -->
<g id="node10" class="node">
<title>y&#45;other&#45;vec</title>
<polygon fill="#d3d3d3" stroke="#000000" points="2011.7487,-411.094 1953.7487,-411.094 1953.7487,-393.094 2011.7487,-393.094 2011.7487,-411.094"/>
<text text-anchor="middle" x="1982.7487" y="-399.894" font-family="Times,serif" font-size="9.00" fill="#000000">y&#45;other&#45;vec</text>
</g>
<!-- y&#45;other&#45;vec&#45;&gt;none -->
<g id="edge23" class="edge">
<title>y&#45;other&#45;vec&#45;&gt;none</title>
<path fill="none" stroke="#ff0000" stroke-width=".1218" stroke-dasharray="1,5" d="M2008.233,-393.0806C2047.6989,-378.8705 2119.8107,-351.8022 2126.7487,-341.3452 2183.2697,-256.1563 2068.9863,-206.7502 1973.7487,-169.5807 1767.1695,-88.9566 1052.1624,-37.3349 886.2997,-26.2749"/>
<polygon fill="#ff0000" stroke="#ff0000" stroke-width=".1218" points="886.3893,-22.7733 876.18,-25.6052 885.927,-29.758 886.3893,-22.7733"/>
</g>
<!-- y&#45;other&#45;vec&#45;&gt;left -->
<g id="edge31" class="edge">
<title>y&#45;other&#45;vec&#45;&gt;left</title>
<path fill="none" stroke="#ff0000" stroke-width=".1454" d="M1964.5315,-392.9168C1942.9315,-381.7526 1906.1554,-361.8438 1876.7487,-341.3452 1840.607,-316.1518 1836.5986,-303.3128 1800.7487,-277.7056 1725.118,-223.6834 1709.6475,-199.7839 1621.7487,-169.5807 1531.7196,-138.6455 1237.081,-117.0535 1141.7789,-110.7396"/>
<polygon fill="#ff0000" stroke="#ff0000" stroke-width=".1454" points="1141.8789,-107.2387 1131.6716,-110.078 1141.4216,-114.2237 1141.8789,-107.2387"/>
</g>
<!-- y&#45;other&#45;vec&#45;&gt;forward -->
<g id="edge3" class="edge">
<title>y&#45;other&#45;vec&#45;&gt;forward</title>
<path fill="none" stroke="#00ff00" stroke-width="2.4747" d="M2010.132,-392.9934C2044.9947,-381.3389 2107.0339,-360.3705 2159.7487,-341.3452 2174.4081,-336.0546 2190.4233,-330.0454 2204.5018,-324.685"/>
<polygon fill="#00ff00" stroke="#00ff00" stroke-width="2.4747" points="2205.8066,-327.9333 2213.8986,-321.0944 2203.308,-321.3944 2205.8066,-327.9333"/>
</g>
<!-- y&#45;other&#45;vec&#45;&gt;backward -->
<g id="edge9" class="edge">
<title>y&#45;other&#45;vec&#45;&gt;backward</title>
<path fill="none" stroke="#ff0000" stroke-width="3.2824" d="M1980.8452,-393.0562C1976.2575,-372.1356 1963.5597,-319.0106 1944.7487,-277.7056 1939.543,-266.2748 1932.8212,-254.475 1926.1681,-243.8165"/>
<polygon fill="#ff0000" stroke="#ff0000" stroke-width="3.2824" points="1928.9693,-241.7005 1920.6304,-235.165 1923.0736,-245.4742 1928.9693,-241.7005"/>
</g>
<!-- 6783 -->
<g id="node65" class="node">
<title>6783</title>
<ellipse fill="#ffffff" stroke="#000000" cx="1448.7487" cy="-309.5254" rx="25" ry="25"/>
<text text-anchor="middle" x="1448.7487" y="-307.3254" font-family="Times,serif" font-size="9.00" fill="#000000">6783</text>
</g>
<!-- y&#45;other&#45;vec&#45;&gt;6783 -->
<g id="edge111" class="edge">
<title>y&#45;other&#45;vec&#45;&gt;6783</title>
<path fill="none" stroke="#00ff00" stroke-width=".1073" d="M1959.4908,-393.0325C1944.6294,-387.6164 1924.822,-381.0824 1906.7487,-377.3452 1738.0181,-342.4556 1687.4961,-384.7344 1520.7487,-341.3452 1506.8368,-337.7252 1492.2016,-331.7079 1479.7863,-325.8746"/>
<polygon fill="#00ff00" stroke="#00ff00" stroke-width=".1073" points="1481.2975,-322.7176 1470.7737,-321.4923 1478.2365,-329.0128 1481.2975,-322.7176"/>
</g>
<!-- x&#45;other&#45;vel -->
<g id="node11" class="node">
<title>x&#45;other&#45;vel</title>
<polygon fill="#d3d3d3" stroke="#000000" points="1034.7487,-582.0889 978.7487,-582.0889 978.7487,-564.0889 1034.7487,-564.0889 1034.7487,-582.0889"/>
<text text-anchor="middle" x="1006.7487" y="-570.8889" font-family="Times,serif" font-size="9.00" fill="#000000">x&#45;other&#45;vel</text>
</g>
<!-- x&#45;other&#45;vel&#45;&gt;none -->
<g id="edge4" class="edge">
<title>x&#45;other&#45;vel&#45;&gt;none</title>
<path fill="none" stroke="#00ff00" stroke-width=".1317" stroke-dasharray="1,5" d="M1034.8973,-571.8317C1188.4353,-564.9167 1921.5505,-531.143 2020.7487,-512.3402 2090.553,-499.109 2103.7569,-479.8082 2172.7487,-462.8427 2219.3646,-451.3796 2352.8824,-461.832 2385.7487,-426.8427 2464.0684,-343.4641 2460.7046,-262.3325 2393.7487,-169.5807 2325.0164,-74.3681 2259.1092,-106.0278 2143.7487,-84.0833 1892.4444,-36.2787 1065.0303,-26.007 886.074,-24.3259"/>
<polygon fill="#00ff00" stroke="#00ff00" stroke-width=".1317" points="885.9604,-20.8248 875.9289,-24.2334 885.8965,-27.8246 885.9604,-20.8248"/>
</g>
<!-- x&#45;other&#45;vel&#45;&gt;right -->
<g id="edge78" class="edge">
<title>x&#45;other&#45;vel&#45;&gt;right</title>
<path fill="none" stroke="#ff0000" stroke-width=".8895" stroke-dasharray="1,5" d="M978.7017,-570.3982C942.5769,-565.402 880.3357,-551.3462 845.7487,-512.3402 803.9544,-465.2059 800.6681,-387.3597 802.7319,-343.0759"/>
<polygon fill="#ff0000" stroke="#ff0000" stroke-width=".8895" points="806.2405,-343.0306 803.3329,-332.8426 799.2525,-342.6201 806.2405,-343.0306"/>
</g>
<!-- x&#45;other&#45;vel&#45;&gt;left -->
<g id="edge19" class="edge">
<title>x&#45;other&#45;vel&#45;&gt;left</title>
<path fill="none" stroke="#ff0000" stroke-width=".2289" stroke-dasharray="1,5" d="M1002.3478,-563.883C980.7204,-517.1854 890.1658,-303.4874 976.7487,-169.5807 999.8182,-133.9022 1049.3878,-118.9706 1081.6126,-112.8691"/>
<polygon fill="#ff0000" stroke="#ff0000" stroke-width=".2289" points="1082.5476,-116.26 1091.8127,-111.1212 1081.3652,-109.3605 1082.5476,-116.26"/>
</g>
<!-- x&#45;other&#45;vel&#45;&gt;forward -->
<g id="edge22" class="edge">
<title>x&#45;other&#45;vel&#45;&gt;forward</title>
<path fill="none" stroke="#00ff00" stroke-width=".4814" stroke-dasharray="1,5" d="M1034.8647,-571.8057C1183.203,-564.9591 1869.6058,-532.2965 1909.7487,-512.3402 1935.8429,-499.3679 1927.6025,-477.5686 1952.7487,-462.8427 2020.8947,-422.9356 2061.2779,-471.0017 2126.7487,-426.8427 2148.6686,-412.0582 2141.9246,-396.8738 2159.7487,-377.3452 2174.4899,-361.1945 2193.2405,-345.6794 2209.2847,-333.5747"/>
<polygon fill="#00ff00" stroke="#00ff00" stroke-width=".4814" points="2211.4393,-336.3344 2217.3926,-327.5703 2207.2733,-330.709 2211.4393,-336.3344"/>
</g>
<!-- x&#45;other&#45;vel&#45;&gt;backward -->
<g id="edge15" class="edge">
<title>x&#45;other&#45;vel&#45;&gt;backward</title>
<path fill="none" stroke="#00ff00" stroke-width=".1568" d="M1034.9416,-571.9878C1180.6015,-566.1901 1842.4738,-538.4786 1876.7487,-512.3402 1908.7701,-487.9204 1899.986,-466.5411 1906.7487,-426.8427 1910.4431,-405.1563 1914.2377,-398.0302 1906.7487,-377.3452 1899.6586,-357.7619 1883.8389,-360.9286 1876.7487,-341.3452 1867.1201,-314.7503 1872.3969,-305.6531 1876.7487,-277.7056 1878.2029,-268.3668 1880.6572,-258.5835 1883.4344,-249.3436"/>
<polygon fill="#00ff00" stroke="#00ff00" stroke-width=".1568" points="1886.845,-250.168 1886.5427,-239.5775 1880.1747,-248.0451 1886.845,-250.168"/>
</g>
<!-- 7468 -->
<g id="node32" class="node">
<title>7468</title>
<ellipse fill="#ffffff" stroke="#000000" cx="676.7487" cy="-487.5914" rx="25" ry="25"/>
<text text-anchor="middle" x="676.7487" y="-485.3914" font-family="Times,serif" font-size="9.00" fill="#000000">7468</text>
</g>
<!-- x&#45;other&#45;vel&#45;&gt;7468 -->
<g id="edge97" class="edge">
<title>x&#45;other&#45;vel&#45;&gt;7468</title>
<path fill="none" stroke="#00ff00" stroke-width=".9687" stroke-dasharray="1,5" d="M978.6254,-567.8132C910.4442,-554.9383 740.1368,-522.2407 715.7487,-512.3402 712.4539,-511.0026 709.1304,-509.3859 705.8869,-507.6268"/>
<polygon fill="#00ff00" stroke="#00ff00" stroke-width=".9687" points="707.4386,-504.4784 697.0485,-502.406 703.8785,-510.5055 707.4386,-504.4784"/>
</g>
<!-- x&#45;other&#45;vel&#45;&gt;3768 -->
<g id="edge76" class="edge">
<title>x&#45;other&#45;vel&#45;&gt;3768</title>
<path fill="none" stroke="#ff0000" stroke-width=".6622" stroke-dasharray="1,5" d="M978.445,-567.5626C927.3077,-557.1808 822.0134,-533.8664 791.7487,-512.3402 763.7453,-492.4223 742.4883,-458.9614 729.4776,-434.1164"/>
<polygon fill="#ff0000" stroke="#ff0000" stroke-width=".6622" points="732.5348,-432.4061 724.898,-425.0624 726.2884,-435.5656 732.5348,-432.4061"/>
</g>
<!-- 8507 -->
<g id="node39" class="node">
<title>8507</title>
<ellipse fill="#ffffff" stroke="#000000" cx="896.7487" cy="-487.5914" rx="25" ry="25"/>
<text text-anchor="middle" x="896.7487" y="-485.3914" font-family="Times,serif" font-size="9.00" fill="#000000">8507</text>
</g>
<!-- x&#45;other&#45;vel&#45;&gt;8507 -->
<g id="edge122" class="edge">
<title>x&#45;other&#45;vel&#45;&gt;8507</title>
<path fill="none" stroke="#ff0000" stroke-width=".146" d="M994.9768,-563.9392C978.2925,-550.9713 947.2711,-526.86 924.5393,-509.1916"/>
<polygon fill="#ff0000" stroke="#ff0000" stroke-width=".146" points="926.6248,-506.3797 916.5813,-503.0063 922.329,-511.9066 926.6248,-506.3797"/>
</g>
<!-- 8643 -->
<g id="node41" class="node">
<title>8643</title>
<ellipse fill="#ffffff" stroke="#000000" cx="1766.7487" cy="-309.5254" rx="25" ry="25"/>
<text text-anchor="middle" x="1766.7487" y="-307.3254" font-family="Times,serif" font-size="9.00" fill="#000000">8643</text>
</g>
<!-- x&#45;other&#45;vel&#45;&gt;8643 -->
<g id="edge125" class="edge">
<title>x&#45;other&#45;vel&#45;&gt;8643</title>
<path fill="none" stroke="#00ff00" stroke-width=".1117" d="M1034.7879,-571.9221C1169.7668,-566.1731 1747.1754,-540.0219 1772.7487,-512.3402 1815.1949,-466.3945 1795.8701,-386.6079 1780.0452,-342.0326"/>
<polygon fill="#00ff00" stroke="#00ff00" stroke-width=".1117" points="1783.2916,-340.7203 1776.5429,-332.5529 1776.7254,-343.1462 1783.2916,-340.7203"/>
</g>
<!-- 2649 -->
<g id="node51" class="node">
<title>2649</title>
<ellipse fill="#ffffff" stroke="#000000" cx="1986.7487" cy="-487.5914" rx="25" ry="25"/>
<text text-anchor="middle" x="1986.7487" y="-485.3914" font-family="Times,serif" font-size="9.00" fill="#000000">2649</text>
</g>
<!-- x&#45;other&#45;vel&#45;&gt;2649 -->
<g id="edge39" class="edge">
<title>x&#45;other&#45;vel&#45;&gt;2649</title>
<path fill="none" stroke="#ff0000" stroke-width=".6563" stroke-dasharray="1,5" d="M1034.9523,-571.6634C1186.9415,-563.9315 1903.2412,-526.8412 1947.7487,-512.3402 1951.3132,-511.1788 1954.8765,-509.6163 1958.32,-507.8379"/>
<polygon fill="#ff0000" stroke="#ff0000" stroke-width=".6563" points="1960.1851,-510.8022 1967.0745,-502.7531 1956.6693,-504.7491 1960.1851,-510.8022"/>
</g>
<!-- 8925 -->
<g id="node53" class="node">
<title>8925</title>
<ellipse fill="#ffffff" stroke="#000000" cx="1010.7487" cy="-205.6432" rx="25" ry="25"/>
<text text-anchor="middle" x="1010.7487" y="-203.4432" font-family="Times,serif" font-size="9.00" fill="#000000">8925</text>
</g>
<!-- x&#45;other&#45;vel&#45;&gt;8925 -->
<g id="edge132" class="edge">
<title>x&#45;other&#45;vel&#45;&gt;8925</title>
<path fill="none" stroke="#00ff00" stroke-width=".2555" d="M1006.8476,-564.0059C1007.3335,-519.3726 1009.4802,-322.1761 1010.3652,-240.8723"/>
<polygon fill="#00ff00" stroke="#00ff00" stroke-width=".2555" points="1013.8674,-240.6839 1010.4766,-230.6464 1006.8678,-240.6076 1013.8674,-240.6839"/>
</g>
<!-- 8309 -->
<g id="node61" class="node">
<title>8309</title>
<ellipse fill="#ffffff" stroke="#000000" cx="858.7487" cy="-402.094" rx="25" ry="25"/>
<text text-anchor="middle" x="858.7487" y="-399.894" font-family="Times,serif" font-size="9.00" fill="#000000">8309</text>
</g>
<!-- x&#45;other&#45;vel&#45;&gt;8309 -->
<g id="edge116" class="edge">
<title>x&#45;other&#45;vel&#45;&gt;8309</title>
<path fill="none" stroke="#ff0000" stroke-width=".3781" stroke-dasharray="1,5" d="M978.6762,-570.1217C944.8203,-564.8898 889.1744,-550.643 862.7487,-512.3402 847.5899,-490.3681 847.7514,-459.6428 851.0446,-436.2082"/>
<polygon fill="#ff0000" stroke="#ff0000" stroke-width=".3781" points="854.4989,-436.7717 852.6729,-426.3354 847.5922,-435.6325 854.4989,-436.7717"/>
</g>
<!-- y&#45;other&#45;vel -->
<g id="node12" class="node">
<title>y&#45;other&#45;vel</title>
<polygon fill="#d3d3d3" stroke="#000000" points="1716.7487,-822.8326 1660.7487,-822.8326 1660.7487,-804.8326 1716.7487,-804.8326 1716.7487,-822.8326"/>
<text text-anchor="middle" x="1688.7487" y="-811.6326" font-family="Times,serif" font-size="9.00" fill="#000000">y&#45;other&#45;vel</text>
</g>
<!-- y&#45;other&#45;vel&#45;&gt;right -->
<g id="edge32" class="edge">
<title>y&#45;other&#45;vel&#45;&gt;right</title>
<path fill="none" stroke="#ff0000" stroke-width=".5865" d="M1660.4743,-813.3636C1475.6022,-809.9346 446.7487,-785.1654 446.7487,-658.5864 446.7487,-658.5864 446.7487,-658.5864 446.7487,-573.0889 446.7487,-523.3683 438.2902,-504.2935 465.7487,-462.8427 504.5565,-404.2594 535.245,-407.4336 598.7487,-377.3452 645.6172,-355.1388 660.4672,-357.504 709.7487,-341.3452 731.1041,-334.3431 755.1033,-326.3884 773.764,-320.1841"/>
<polygon fill="#ff0000" stroke="#ff0000" stroke-width=".5865" points="774.878,-323.5022 783.2617,-317.0243 772.6681,-316.8602 774.878,-323.5022"/>
</g>
<!-- y&#45;other&#45;vel&#45;&gt;backward -->
<g id="edge24" class="edge">
<title>y&#45;other&#45;vel&#45;&gt;backward</title>
<path fill="none" stroke="#00ff00" stroke-width=".1303" d="M1716.7906,-812.3945C1876.1601,-803.8589 2660.7487,-756.8475 2660.7487,-658.5864 2660.7487,-658.5864 2660.7487,-658.5864 2660.7487,-487.5914 2660.7487,-356.2613 2570.4423,-335.9796 2452.7487,-277.7056 2363.7876,-233.6581 2062.5229,-213.9388 1946.1537,-207.8353"/>
<polygon fill="#00ff00" stroke="#00ff00" stroke-width=".1303" points="1946.3001,-204.3383 1936.1334,-207.3196 1945.9403,-211.3291 1946.3001,-204.3383"/>
</g>
<!-- 4552 -->
<g id="node42" class="node">
<title>4552</title>
<ellipse fill="#ffffff" stroke="#000000" cx="1770.7487" cy="-744.0839" rx="25" ry="25"/>
<text text-anchor="middle" x="1770.7487" y="-741.8839" font-family="Times,serif" font-size="9.00" fill="#000000">4552</text>
</g>
<!-- y&#45;other&#45;vel&#45;&gt;4552 -->
<g id="edge56" class="edge">
<title>y&#45;other&#45;vel&#45;&gt;4552</title>
<path fill="none" stroke="#00ff00" stroke-width=".1509" d="M1699.4688,-804.7142C1710.7811,-795.092 1729.0418,-779.5595 1744.2482,-766.6251"/>
<polygon fill="#00ff00" stroke="#00ff00" stroke-width=".1509" points="1746.5193,-769.2883 1751.8687,-760.1431 1741.9838,-763.9562 1746.5193,-769.2883"/>
</g>
<!-- 6108 -->
<g id="node52" class="node">
<title>6108</title>
<ellipse fill="#ffffff" stroke="#000000" cx="1430.7487" cy="-487.5914" rx="25" ry="25"/>
<text text-anchor="middle" x="1430.7487" y="-485.3914" font-family="Times,serif" font-size="9.00" fill="#000000">6108</text>
</g>
<!-- y&#45;other&#45;vel&#45;&gt;6108 -->
<g id="edge73" class="edge">
<title>y&#45;other&#45;vel&#45;&gt;6108</title>
<path fill="none" stroke="#ff0000" stroke-width=".1164" d="M1660.7286,-810.9279C1612.9675,-805.406 1518.7169,-791.8453 1495.7487,-768.8326 1429.2612,-702.2161 1425.3445,-581.9743 1427.9753,-522.6444"/>
<polygon fill="#ff0000" stroke="#ff0000" stroke-width=".1164" points="1431.4893,-522.4745 1428.5291,-512.3017 1424.4993,-522.1002 1431.4893,-522.4745"/>
</g>
<!-- right&#45;&gt;2106 -->
<g id="edge38" class="edge">
<title>right&#45;&gt;2106</title>
<path fill="none" stroke="#00ff00" stroke-width=".2731" stroke-dasharray="1,5" d="M805.7487,-285.9529C805.7487,-272.6578 805.7487,-255.7857 805.7487,-240.9414"/>
<polygon fill="#00ff00" stroke="#00ff00" stroke-width=".2731" points="809.2488,-240.571 805.7487,-230.571 802.2488,-240.571 809.2488,-240.571"/>
</g>
<!-- 2947 -->
<g id="node18" class="node">
<title>2947</title>
<ellipse fill="#ffffff" stroke="#000000" cx="122.7487" cy="-487.5914" rx="25" ry="25"/>
<text text-anchor="middle" x="122.7487" y="-485.3914" font-family="Times,serif" font-size="9.00" fill="#000000">2947</text>
</g>
<!-- 2947&#45;&gt;4347 -->
<g id="edge70" class="edge">
<title>2947&#45;&gt;4347</title>
<path fill="none" stroke="#00ff00" stroke-width=".4323" stroke-dasharray="1,5" d="M122.7487,-462.4018C122.7487,-454.4876 122.7487,-445.6015 122.7487,-437.1329"/>
<polygon fill="#00ff00" stroke="#00ff00" stroke-width=".4323" points="126.2488,-437.1035 122.7487,-427.1036 119.2488,-437.1036 126.2488,-437.1035"/>
</g>
<!-- 6789&#45;&gt;6486 -->
<g id="edge90" class="edge">
<title>6789&#45;&gt;6486</title>
<path fill="none" stroke="#ff0000" stroke-width=".2397" stroke-dasharray="1,5" d="M1192.7487,-377.2873C1192.7487,-367.2224 1192.7487,-355.4164 1192.7487,-344.5037"/>
<polygon fill="#ff0000" stroke="#ff0000" stroke-width=".2397" points="1196.2488,-344.4005 1192.7487,-334.4006 1189.2488,-344.4006 1196.2488,-344.4005"/>
</g>
<!-- 8706&#45;&gt;2890 -->
<g id="edge129" class="edge">
<title>8706&#45;&gt;2890</title>
<path fill="none" stroke="#ff0000" stroke-width=".7084" d="M2359.3887,-472.9219C2353.5761,-469.2265 2347.0931,-465.5463 2340.7487,-462.8427 2268.1835,-431.9192 2176.6755,-414.6341 2127.6187,-406.9684"/>
<polygon fill="#ff0000" stroke="#ff0000" stroke-width=".7084" points="2127.9424,-403.4774 2117.5299,-405.4347 2126.8903,-410.3979 2127.9424,-403.4774"/>
</g>
<!-- 7308 -->
<g id="node21" class="node">
<title>7308</title>
<ellipse fill="#ffffff" stroke="#000000" cx="884.7487" cy="-309.5254" rx="25" ry="25"/>
<text text-anchor="middle" x="884.7487" y="-307.3254" font-family="Times,serif" font-size="9.00" fill="#000000">7308</text>
</g>
<!-- 7692 -->
<g id="node22" class="node">
<title>7692</title>
<ellipse fill="#ffffff" stroke="#000000" cx="168.7487" cy="-205.6432" rx="25" ry="25"/>
<text text-anchor="middle" x="168.7487" y="-203.4432" font-family="Times,serif" font-size="9.00" fill="#000000">7692</text>
</g>
<!-- 3370 -->
<g id="node30" class="node">
<title>3370</title>
<ellipse fill="#ffffff" stroke="#000000" cx="115.7487" cy="-108.832" rx="25" ry="25"/>
<text text-anchor="middle" x="115.7487" y="-106.632" font-family="Times,serif" font-size="9.00" fill="#000000">3370</text>
</g>
<!-- 7692&#45;&gt;3370 -->
<g id="edge102" class="edge">
<title>7692&#45;&gt;3370</title>
<path fill="none" stroke="#ff0000" stroke-width=".2044" d="M156.7222,-183.6752C149.607,-170.6784 140.4837,-154.0136 132.6529,-139.7096"/>
<polygon fill="#ff0000" stroke="#ff0000" stroke-width=".2044" points="135.5998,-137.8039 127.7277,-130.713 129.4597,-141.1653 135.5998,-137.8039"/>
</g>
<!-- 3600 -->
<g id="node23" class="node">
<title>3600</title>
<ellipse fill="#ffffff" stroke="#000000" cx="62.7487" cy="-309.5254" rx="25" ry="25"/>
<text text-anchor="middle" x="62.7487" y="-307.3254" font-family="Times,serif" font-size="9.00" fill="#000000">3600</text>
</g>
<!-- 3600&#45;&gt;3370 -->
<g id="edge86" class="edge">
<title>3600&#45;&gt;3370</title>
<path fill="none" stroke="#00ff00" stroke-width=".1938" stroke-dasharray="1,5" d="M69.1418,-285.3171C78.5581,-249.6604 96.1914,-182.8893 106.8619,-142.4834"/>
<polygon fill="#00ff00" stroke="#00ff00" stroke-width=".1938" points="110.2461,-143.376 109.4155,-132.8138 103.4782,-141.5886 110.2461,-143.376"/>
</g>
<!-- 3600&#45;&gt;2106 -->
<g id="edge46" class="edge">
<title>3600&#45;&gt;2106</title>
<path fill="none" stroke="#ff0000" stroke-width=".1994" d="M87.116,-303.9752C117.8914,-297.1069 172.5335,-285.3815 219.7487,-277.7056 327.4538,-260.1958 661.3381,-221.9661 770.6852,-209.5926"/>
<polygon fill="#ff0000" stroke="#ff0000" stroke-width=".1994" points="771.3017,-213.0453 780.8453,-208.4442 770.5155,-206.0895 771.3017,-213.0453"/>
</g>
<!-- 7806 -->
<g id="node64" class="node">
<title>7806</title>
<ellipse fill="#ffffff" stroke="#000000" cx="24.7487" cy="-205.6432" rx="25" ry="25"/>
<text text-anchor="middle" x="24.7487" y="-203.4432" font-family="Times,serif" font-size="9.00" fill="#000000">7806</text>
</g>
<!-- 3600&#45;&gt;7806 -->
<g id="edge103" class="edge">
<title>3600&#45;&gt;7806</title>
<path fill="none" stroke="#00ff00" stroke-width=".3337" d="M54.2208,-286.2122C49.1229,-272.276 42.5624,-254.3411 36.9257,-238.9319"/>
<polygon fill="#00ff00" stroke="#00ff00" stroke-width=".3337" points="40.1021,-237.427 33.3797,-229.238 33.5281,-239.8318 40.1021,-237.427"/>
</g>
<!-- 8337&#45;&gt;6594 -->
<g id="edge119" class="edge">
<title>8337&#45;&gt;6594</title>
<path fill="none" stroke="#ff0000" stroke-width=".7177" stroke-dasharray="1,5" d="M440.2034,-285.1697C442.6394,-271.8508 445.6989,-255.1228 448.3827,-240.4495"/>
<polygon fill="#ff0000" stroke="#ff0000" stroke-width=".7177" points="451.8998,-240.6729 450.2562,-230.2063 445.014,-239.4134 451.8998,-240.6729"/>
</g>
<!-- 4755&#45;&gt;1367 -->
<g id="edge60" class="edge">
<title>4755&#45;&gt;1367</title>
<path fill="none" stroke="#ff0000" stroke-width=".6742" stroke-dasharray="1,5" d="M1568.216,-479.7013C1522.6736,-464.4317 1422.3714,-430.8019 1370.0242,-413.2507"/>
<polygon fill="#ff0000" stroke="#ff0000" stroke-width=".6742" points="1370.8185,-409.8256 1360.2246,-409.9651 1368.5932,-416.4625 1370.8185,-409.8256"/>
</g>
<!-- 3990 -->
<g id="node26" class="node">
<title>3990</title>
<ellipse fill="#ffffff" stroke="#000000" cx="1529.7487" cy="-744.0839" rx="25" ry="25"/>
<text text-anchor="middle" x="1529.7487" y="-741.8839" font-family="Times,serif" font-size="9.00" fill="#000000">3990</text>
</g>
<!-- 3990&#45;&gt;none -->
<g id="edge54" class="edge">
<title>3990&#45;&gt;none</title>
<path fill="none" stroke="#00ff00" stroke-width=".3577" stroke-dasharray="1,5" d="M1504.8595,-742.118C1430.0291,-736.0023 1200.6624,-715.7569 1012.7487,-683.3351 637.2872,-618.5546 322.8985,-785.6539 194.7487,-426.8427 184.9835,-399.5008 220.7271,-117.2121 257.7487,-84.0833 299.6423,-46.5948 697.1422,-29.5248 817.4293,-25.1896"/>
<polygon fill="#00ff00" stroke="#00ff00" stroke-width=".3577" points="817.6756,-28.6832 827.5456,-24.8317 817.4281,-21.6876 817.6756,-28.6832"/>
</g>
<!-- 8182 -->
<g id="node60" class="node">
<title>8182</title>
<ellipse fill="#ffffff" stroke="#000000" cx="2072.7487" cy="-658.5864" rx="25" ry="25"/>
<text text-anchor="middle" x="2072.7487" y="-656.3864" font-family="Times,serif" font-size="9.00" fill="#000000">8182</text>
</g>
<!-- 3990&#45;&gt;8182 -->
<g id="edge135" class="edge">
<title>3990&#45;&gt;8182</title>
<path fill="none" stroke="#00ff00" stroke-width=".3697" d="M1554.6016,-741.1065C1593.4628,-736.4523 1670.9802,-727.1738 1736.7487,-719.3351 1871.4095,-703.2855 1913.8526,-733.7463 2039.7487,-683.3351 2041.6435,-682.5765 2043.5253,-681.68 2045.3737,-680.6857"/>
<polygon fill="#00ff00" stroke="#00ff00" stroke-width=".3697" points="2047.6547,-683.3848 2054.241,-675.0859 2043.917,-677.4662 2047.6547,-683.3848"/>
</g>
<!-- 8090 -->
<g id="node27" class="node">
<title>8090</title>
<ellipse fill="#ffffff" stroke="#000000" cx="1518.7487" cy="-402.094" rx="25" ry="25"/>
<text text-anchor="middle" x="1518.7487" y="-399.894" font-family="Times,serif" font-size="9.00" fill="#000000">8090</text>
</g>
<!-- 8090&#45;&gt;6783 -->
<g id="edge110" class="edge">
<title>8090&#45;&gt;6783</title>
<path fill="none" stroke="#00ff00" stroke-width=".2049" stroke-dasharray="1,5" d="M1503.5598,-382.008C1493.7448,-369.0285 1480.8305,-351.9506 1470.0029,-337.632"/>
<polygon fill="#00ff00" stroke="#00ff00" stroke-width=".2049" points="1472.7314,-335.4374 1463.9081,-329.5722 1467.148,-339.6595 1472.7314,-335.4374"/>
</g>
<!-- 29&#45;&gt;none -->
<g id="edge29" class="edge">
<title>29&#45;&gt;none</title>
<path fill="none" stroke="#00ff00" stroke-width=".4142" stroke-dasharray="1,5" d="M1867.4493,-482.4927C1887.8411,-476.8171 1922.4376,-467.7937 1952.7487,-462.8427 2042.5773,-448.1703 2294.0968,-488.8262 2360.7487,-426.8427 2399.4284,-390.8722 2379.7487,-362.3458 2379.7487,-309.5254 2379.7487,-309.5254 2379.7487,-309.5254 2379.7487,-205.6432 2379.7487,-49.9925 1113.3453,-27.2344 886.3639,-24.4055"/>
<polygon fill="#00ff00" stroke="#00ff00" stroke-width=".4142" points="886.0997,-20.9021 876.0585,-24.282 886.0158,-27.9016 886.0997,-20.9021"/>
</g>
<!-- 29&#45;&gt;4347 -->
<g id="edge58" class="edge">
<title>29&#45;&gt;4347</title>
<path fill="none" stroke="#ff0000" stroke-width=".1328" d="M1832.673,-480.5295C1817.3,-474.5547 1793.9339,-466.4116 1772.7487,-462.8427 1426.8646,-404.5738 540.0299,-488.5842 194.7487,-426.8427 181.534,-424.4797 167.4722,-420.0964 155.3155,-415.6676"/>
<polygon fill="#ff0000" stroke="#ff0000" stroke-width=".1328" points="156.2034,-412.2609 145.6122,-411.9802 153.7167,-418.8043 156.2034,-412.2609"/>
</g>
<!-- 3370&#45;&gt;none -->
<g id="edge44" class="edge">
<title>3370&#45;&gt;none</title>
<path fill="none" stroke="#00ff00" stroke-width=".2389" stroke-dasharray="1,5" d="M139.3253,-101.3017C157.764,-95.703 184.1441,-88.3268 207.7487,-84.0833 438.3761,-42.6221 720.9274,-28.8593 817.5083,-25.1879"/>
<polygon fill="#00ff00" stroke="#00ff00" stroke-width=".2389" points="817.7093,-28.6829 827.5735,-24.8166 817.4512,-21.6877 817.7093,-28.6829"/>
</g>
<!-- 6059 -->
<g id="node31" class="node">
<title>6059</title>
<ellipse fill="#ffffff" stroke="#000000" cx="1554.7487" cy="-309.5254" rx="25" ry="25"/>
<text text-anchor="middle" x="1554.7487" y="-307.3254" font-family="Times,serif" font-size="9.00" fill="#000000">6059</text>
</g>
<!-- 6059&#45;&gt;2106 -->
<g id="edge72" class="edge">
<title>6059&#45;&gt;2106</title>
<path fill="none" stroke="#ff0000" stroke-width=".53" d="M1537.2344,-291.3792C1530.9886,-286.0262 1523.5531,-280.7824 1515.7487,-277.7056 1404.0693,-233.6781 1095.6642,-258.1323 976.7487,-241.7056 928.8109,-235.0836 874.228,-222.7143 839.8894,-214.3299"/>
<polygon fill="#ff0000" stroke="#ff0000" stroke-width=".53" points="840.4597,-210.8657 829.9122,-211.8665 838.7817,-217.6616 840.4597,-210.8657"/>
</g>
<!-- 7468&#45;&gt;3768 -->
<g id="edge98" class="edge">
<title>7468&#45;&gt;3768</title>
<path fill="none" stroke="#00ff00" stroke-width=".1027" stroke-dasharray="1,5" d="M686.932,-464.6797C691.0971,-455.3087 695.9884,-444.3035 700.4983,-434.1566"/>
<polygon fill="#00ff00" stroke="#00ff00" stroke-width=".1027" points="703.8059,-435.3321 704.6691,-424.7725 697.4092,-432.489 703.8059,-435.3321"/>
</g>
<!-- 8375 -->
<g id="node34" class="node">
<title>8375</title>
<ellipse fill="#ffffff" stroke="#000000" cx="1591.7487" cy="-573.0889" rx="25" ry="25"/>
<text text-anchor="middle" x="1591.7487" y="-570.8889" font-family="Times,serif" font-size="9.00" fill="#000000">8375</text>
</g>
<!-- 8375&#45;&gt;right -->
<g id="edge121" class="edge">
<title>8375&#45;&gt;right</title>
<path fill="none" stroke="#00ff00" stroke-width=".5108" d="M1566.796,-572.5659C1494.898,-570.5013 1281.6459,-560.4487 1112.7487,-512.3402 1024.8588,-487.3057 995.3018,-486.1195 925.7487,-426.8427 905.6256,-409.6927 910.739,-396.7208 892.7487,-377.3452 882.9704,-366.814 854.7568,-345.3221 833.0837,-329.3402"/>
<polygon fill="#00ff00" stroke="#00ff00" stroke-width=".5108" points="834.9904,-326.3982 824.8569,-323.3055 830.85,-332.0424 834.9904,-326.3982"/>
</g>
<!-- 8375&#45;&gt;4755 -->
<g id="edge134" class="edge">
<title>8375&#45;&gt;4755</title>
<path fill="none" stroke="#00ff00" stroke-width=".4341" d="M1591.7487,-547.8993C1591.7487,-539.9851 1591.7487,-531.099 1591.7487,-522.6304"/>
<polygon fill="#00ff00" stroke="#00ff00" stroke-width=".4341" points="1595.2488,-522.601 1591.7487,-512.601 1588.2488,-522.6011 1595.2488,-522.601"/>
</g>
<!-- 3768&#45;&gt;none -->
<g id="edge51" class="edge">
<title>3768&#45;&gt;none</title>
<path fill="none" stroke="#ff0000" stroke-width=".1526" d="M718.6156,-377.3491C725.8467,-334.1408 743.3084,-242.581 771.7487,-169.5807 788.2768,-127.1567 814.8536,-81.6942 832.7936,-53.0836"/>
<polygon fill="#ff0000" stroke="#ff0000" stroke-width=".1526" points="835.8929,-54.7317 838.2911,-44.4118 829.9808,-50.9837 835.8929,-54.7317"/>
</g>
<!-- 3768&#45;&gt;right -->
<g id="edge50" class="edge">
<title>3768&#45;&gt;right</title>
<path fill="none" stroke="#ff0000" stroke-width=".1608" stroke-dasharray="1,5" d="M732.2945,-384.2458C746.4088,-369.8882 766.3825,-349.5702 781.9396,-333.7449"/>
<polygon fill="#ff0000" stroke="#ff0000" stroke-width=".1608" points="784.6625,-335.9678 789.177,-326.3829 779.6706,-331.0605 784.6625,-335.9678"/>
</g>
<!-- 3768&#45;&gt;7308 -->
<g id="edge94" class="edge">
<title>3768&#45;&gt;7308</title>
<path fill="none" stroke="#00ff00" stroke-width=".1072" stroke-dasharray="1,5" d="M737.4495,-392.0143C762.5038,-380.6313 803.782,-361.1076 837.7487,-341.3452 843.8146,-337.816 850.1429,-333.7878 856.1183,-329.8113"/>
<polygon fill="#00ff00" stroke="#00ff00" stroke-width=".1072" points="858.242,-332.5999 864.5486,-324.0865 854.3095,-326.8089 858.242,-332.5999"/>
</g>
<!-- 2618&#45;&gt;none -->
<g id="edge37" class="edge">
<title>2618&#45;&gt;none</title>
<path fill="none" stroke="#ff0000" stroke-width=".5189" stroke-dasharray="1,5" d="M475.1826,-483.3877C445.9038,-476.9186 398.2447,-461.4342 376.7487,-426.8427 295.3145,-295.798 312.5268,-182.0138 431.7487,-84.0833 490.5453,-35.7869 727.9897,-26.3388 817.4363,-24.4908"/>
<polygon fill="#ff0000" stroke="#ff0000" stroke-width=".5189" points="817.656,-27.9874 827.5888,-24.3011 817.5251,-20.9887 817.656,-27.9874"/>
</g>
<!-- 2618&#45;&gt;3768 -->
<g id="edge100" class="edge">
<title>2618&#45;&gt;3768</title>
<path fill="none" stroke="#ff0000" stroke-width=".3998" d="M518.9538,-471.5816C523.3176,-468.409 528.0551,-465.3031 532.7487,-462.8427 581.4255,-437.3266 642.9551,-419.4673 680.5522,-409.9938"/>
<polygon fill="#ff0000" stroke="#ff0000" stroke-width=".3998" points="681.6191,-413.3357 690.4913,-407.5448 679.9443,-406.539 681.6191,-413.3357"/>
</g>
<!-- 2106&#45;&gt;left -->
<g id="edge34" class="edge">
<title>2106&#45;&gt;left</title>
<path fill="none" stroke="#ff0000" stroke-width=".4781" stroke-dasharray="1,5" d="M829.5054,-198.1271C884.9918,-180.5725 1022.9415,-136.9285 1083.0225,-117.9203"/>
<polygon fill="#ff0000" stroke="#ff0000" stroke-width=".4781" points="1084.1584,-121.232 1092.6369,-114.8785 1082.0469,-114.558 1084.1584,-121.232"/>
</g>
<!-- 5307 -->
<g id="node38" class="node">
<title>5307</title>
<ellipse fill="#ffffff" stroke="#000000" cx="1910.7487" cy="-309.5254" rx="25" ry="25"/>
<text text-anchor="middle" x="1910.7487" y="-307.3254" font-family="Times,serif" font-size="9.00" fill="#000000">5307</text>
</g>
<!-- 5307&#45;&gt;backward -->
<g id="edge66" class="edge">
<title>5307&#45;&gt;backward</title>
<path fill="none" stroke="#00ff00" stroke-width=".252" stroke-dasharray="1,5" d="M1908.1419,-284.9068C1907.101,-275.0764 1905.8667,-263.4206 1904.6695,-252.1144"/>
<polygon fill="#00ff00" stroke="#00ff00" stroke-width=".252" points="1908.1207,-251.4677 1903.5871,-241.8918 1901.1596,-252.2048 1908.1207,-251.4677"/>
</g>
<!-- 8507&#45;&gt;8309 -->
<g id="edge123" class="edge">
<title>8507&#45;&gt;8309</title>
<path fill="none" stroke="#ff0000" stroke-width=".1383" d="M886.5654,-464.6797C882.4004,-455.3087 877.5091,-444.3035 872.9992,-434.1566"/>
<polygon fill="#ff0000" stroke="#ff0000" stroke-width=".1383" points="876.0883,-432.489 868.8284,-424.7725 869.6916,-435.3321 876.0883,-432.489"/>
</g>
<!-- 6594&#45;&gt;5455 -->
<g id="edge139" class="edge">
<title>6594&#45;&gt;5455</title>
<path fill="none" stroke="#ff0000" stroke-width=".1699" d="M433.4393,-192.9868C404.8851,-176.0275 354.0591,-145.8402 321.6746,-126.606"/>
<polygon fill="#ff0000" stroke="#ff0000" stroke-width=".1699" points="323.4486,-123.5888 313.0634,-121.4915 319.8739,-129.6073 323.4486,-123.5888"/>
</g>
<!-- 6594&#45;&gt;5108 -->
<g id="edge85" class="edge">
<title>6594&#45;&gt;5108</title>
<path fill="none" stroke="#ff0000" stroke-width=".3101" stroke-dasharray="1,5" d="M469.6672,-185.5838C480.0934,-171.5648 494.1621,-152.6479 505.7235,-137.1026"/>
<polygon fill="#ff0000" stroke="#ff0000" stroke-width=".3101" points="508.6901,-138.9785 511.8494,-128.8656 503.0732,-134.8011 508.6901,-138.9785"/>
</g>
<!-- 8643&#45;&gt;backward -->
<g id="edge126" class="edge">
<title>8643&#45;&gt;backward</title>
<path fill="none" stroke="#00ff00" stroke-width=".1088" stroke-dasharray="1,5" d="M1786.0958,-293.5474C1792.3367,-288.4451 1799.3062,-282.8014 1805.7487,-277.7056 1824.3212,-263.0155 1845.2053,-246.96 1862.5633,-233.7398"/>
<polygon fill="#00ff00" stroke="#00ff00" stroke-width=".1088" points="1864.9334,-236.3346 1870.7757,-227.4961 1860.6969,-230.7622 1864.9334,-236.3346"/>
</g>
<!-- 4552&#45;&gt;right -->
<g id="edge57" class="edge">
<title>4552&#45;&gt;right</title>
<path fill="none" stroke="#ff0000" stroke-width=".1647" stroke-dasharray="1,5" d="M1746.1243,-740.7506C1605.8382,-721.701 910.5378,-626.4647 818.7487,-597.8377 735.7292,-571.9457 688.8905,-586.0529 642.7487,-512.3402 609.6775,-459.5079 638.4471,-423.1223 680.7487,-377.3452 706.2682,-349.7292 745.6638,-330.9686 773.3936,-320.3009"/>
<polygon fill="#ff0000" stroke="#ff0000" stroke-width=".1647" points="774.8696,-323.4868 783.0348,-316.7355 772.4416,-316.9214 774.8696,-323.4868"/>
</g>
<!-- 4552&#45;&gt;8375 -->
<g id="edge120" class="edge">
<title>4552&#45;&gt;8375</title>
<path fill="none" stroke="#00ff00" stroke-width=".1037" d="M1752.6002,-726.747C1720.4875,-696.0703 1653.5982,-632.1724 1617.0046,-597.2153"/>
<polygon fill="#00ff00" stroke="#00ff00" stroke-width=".1037" points="1619.3278,-594.5942 1609.6792,-590.2175 1614.4925,-599.6559 1619.3278,-594.5942"/>
</g>
<!-- 4552&#45;&gt;2649 -->
<g id="edge138" class="edge">
<title>4552&#45;&gt;2649</title>
<path fill="none" stroke="#ff0000" stroke-width=".2579" d="M1786.9838,-724.8053C1825.0739,-679.5747 1920.2567,-566.5484 1964.0493,-514.5462"/>
<polygon fill="#ff0000" stroke="#ff0000" stroke-width=".2579" points="1966.8555,-516.6475 1970.6199,-506.7439 1961.5012,-512.1384 1966.8555,-516.6475"/>
</g>
<!-- 4552&#45;&gt;8182 -->
<g id="edge112" class="edge">
<title>4552&#45;&gt;8182</title>
<path fill="none" stroke="#00ff00" stroke-width=".3068" d="M1795.6036,-741.975C1844.4257,-737.0909 1955.4303,-722.2906 2039.7487,-683.3351 2041.5528,-682.5017 2043.3535,-681.5581 2045.1303,-680.5381"/>
<polygon fill="#00ff00" stroke="#00ff00" stroke-width=".3068" points="2047.2424,-683.3397 2053.7213,-674.9567 2043.4288,-677.4697 2047.2424,-683.3397"/>
</g>
<!-- 4552&#45;&gt;3706 -->
<g id="edge65" class="edge">
<title>4552&#45;&gt;3706</title>
<path fill="none" stroke="#ff0000" stroke-width=".4392" stroke-dasharray="1,5" d="M1795.4765,-742.7932C1887.5361,-737.1888 2217.5432,-709.9217 2459.7487,-597.8377 2461.7945,-596.891 2463.8413,-595.8126 2465.8592,-594.6482"/>
<polygon fill="#ff0000" stroke="#ff0000" stroke-width=".4392" points="2467.9136,-597.4883 2474.4279,-589.1329 2464.1249,-591.6022 2467.9136,-597.4883"/>
</g>
<!-- 2890&#45;&gt;backward -->
<g id="edge42" class="edge">
<title>2890&#45;&gt;backward</title>
<path fill="none" stroke="#ff0000" stroke-width=".2834" stroke-dasharray="1,5" d="M2107.7547,-382.1116C2125.5008,-355.8403 2149.884,-309.3232 2126.7487,-277.7056 2105.1676,-248.2121 2005.1529,-225.0896 1945.315,-213.6026"/>
<polygon fill="#ff0000" stroke="#ff0000" stroke-width=".2834" points="1945.8313,-210.1383 1935.3563,-211.7268 1944.5356,-217.0174 1945.8313,-210.1383"/>
</g>
<!-- 2890&#45;&gt;6059 -->
<g id="edge92" class="edge">
<title>2890&#45;&gt;6059</title>
<path fill="none" stroke="#00ff00" stroke-width=".5035" d="M2069.803,-392.6262C2055.8548,-387.2715 2037.5505,-380.9457 2020.7487,-377.3452 1848.8116,-340.5006 1796.964,-385.4662 1626.7487,-341.3452 1612.8334,-337.7383 1598.1976,-331.7233 1585.7828,-325.8882"/>
<polygon fill="#00ff00" stroke="#00ff00" stroke-width=".5035" points="1587.2942,-322.7313 1576.7707,-321.5039 1584.2319,-329.0259 1587.2942,-322.7313"/>
</g>
<!-- 8807 -->
<g id="node55" class="node">
<title>8807</title>
<ellipse fill="#ffffff" stroke="#000000" cx="2092.7487" cy="-309.5254" rx="25" ry="25"/>
<text text-anchor="middle" x="2092.7487" y="-307.3254" font-family="Times,serif" font-size="9.00" fill="#000000">8807</text>
</g>
<!-- 2890&#45;&gt;8807 -->
<g id="edge130" class="edge">
<title>2890&#45;&gt;8807</title>
<path fill="none" stroke="#ff0000" stroke-width=".2208" d="M2092.7487,-377.2873C2092.7487,-367.2224 2092.7487,-355.4164 2092.7487,-344.5037"/>
<polygon fill="#ff0000" stroke="#ff0000" stroke-width=".2208" points="2096.2488,-344.4005 2092.7487,-334.4006 2089.2488,-344.4006 2096.2488,-344.4005"/>
</g>
<!-- 5328 -->
<g id="node47" class="node">
<title>5328</title>
<ellipse fill="#ffffff" stroke="#000000" cx="1585.7487" cy="-402.094" rx="25" ry="25"/>
<text text-anchor="middle" x="1585.7487" y="-399.894" font-family="Times,serif" font-size="9.00" fill="#000000">5328</text>
</g>
<!-- 5328&#45;&gt;6059 -->
<g id="edge71" class="edge">
<title>5328&#45;&gt;6059</title>
<path fill="none" stroke="#ff0000" stroke-width=".3783" stroke-dasharray="1,5" d="M1577.7655,-378.2553C1574.1495,-367.4577 1569.8134,-354.5098 1565.8846,-342.7781"/>
<polygon fill="#ff0000" stroke="#ff0000" stroke-width=".3783" points="1569.1994,-341.6543 1562.705,-333.2833 1562.5617,-343.8772 1569.1994,-341.6543"/>
</g>
<!-- 5328&#45;&gt;2106 -->
<g id="edge67" class="edge">
<title>5328&#45;&gt;2106</title>
<path fill="none" stroke="#ff0000" stroke-width=".1956" stroke-dasharray="1,5" d="M1566.1681,-386.3462C1552.4917,-374.7671 1534.3248,-358.1768 1520.7487,-341.3452 1500.0667,-315.7037 1510.8029,-294.974 1482.7487,-277.7056 1386.7489,-218.6143 1088.3833,-257.3732 976.7487,-241.7056 928.8253,-234.9797 874.2389,-222.6359 839.8955,-214.2856"/>
<polygon fill="#ff0000" stroke="#ff0000" stroke-width=".1956" points="840.4633,-210.821 829.9169,-211.833 838.7924,-217.6187 840.4633,-210.821"/>
</g>
<!-- 8276&#45;&gt;backward -->
<g id="edge115" class="edge">
<title>8276&#45;&gt;backward</title>
<path fill="none" stroke="#ff0000" stroke-width=".3883" stroke-dasharray="1,5" d="M2332.9474,-377.6599C2338.4159,-349.8073 2342.1723,-304.6614 2317.7487,-277.7056 2268.6705,-223.5389 2044.3518,-210.0466 1946.0873,-206.7184"/>
<polygon fill="#ff0000" stroke="#ff0000" stroke-width=".3883" points="1945.9686,-203.2129 1935.8625,-206.3936 1945.7463,-210.2094 1945.9686,-203.2129"/>
</g>
<!-- 6486&#45;&gt;left -->
<g id="edge80" class="edge">
<title>6486&#45;&gt;left</title>
<path fill="none" stroke="#ff0000" stroke-width=".6859" d="M1183.457,-286.5033C1168.5167,-249.4859 1139.1997,-176.847 1123.0638,-136.8674"/>
<polygon fill="#ff0000" stroke="#ff0000" stroke-width=".6859" points="1126.2506,-135.4116 1119.2623,-127.4483 1119.7594,-138.0315 1126.2506,-135.4116"/>
</g>
<!-- 6486&#45;&gt;backward -->
<g id="edge99" class="edge">
<title>6486&#45;&gt;backward</title>
<path fill="none" stroke="#00ff00" stroke-width=".2158" d="M1215.0893,-298.3495C1230.1616,-291.3002 1250.7026,-282.6274 1269.7487,-277.7056 1483.0579,-222.5838 1747.8697,-209.6052 1853.3013,-206.5657"/>
<polygon fill="#00ff00" stroke="#00ff00" stroke-width=".2158" points="1853.6901,-210.0565 1863.5915,-206.2864 1853.5002,-203.0591 1853.6901,-210.0565"/>
</g>
<!-- 1367&#45;&gt;7308 -->
<g id="edge124" class="edge">
<title>1367&#45;&gt;7308</title>
<path fill="none" stroke="#ff0000" stroke-width=".3209" d="M1312.3218,-396.4103C1290.0565,-391.2744 1256.2406,-383.586 1226.7487,-377.3452 1114.5064,-353.5936 980.9988,-327.8366 919.24,-316.0631"/>
<polygon fill="#ff0000" stroke="#ff0000" stroke-width=".3209" points="919.738,-312.5952 909.2599,-314.1633 918.4289,-319.4717 919.738,-312.5952"/>
</g>
<!-- 1367&#45;&gt;6783 -->
<g id="edge95" class="edge">
<title>1367&#45;&gt;6783</title>
<path fill="none" stroke="#00ff00" stroke-width=".1927" d="M1356.0022,-386.1809C1374.0324,-371.2788 1401.1618,-348.8563 1421.4277,-332.1064"/>
<polygon fill="#00ff00" stroke="#00ff00" stroke-width=".1927" points="1423.8934,-334.6092 1429.3717,-325.5407 1419.4339,-329.2136 1423.8934,-334.6092"/>
</g>
<!-- 6108&#45;&gt;backward -->
<g id="edge74" class="edge">
<title>6108&#45;&gt;backward</title>
<path fill="none" stroke="#ff0000" stroke-width=".2323" d="M1419.8036,-465.0901C1401.0038,-422.8107 1368.806,-330.979 1414.7487,-277.7056 1443.2542,-244.6518 1737.3862,-218.3069 1853.2291,-209.137"/>
<polygon fill="#ff0000" stroke="#ff0000" stroke-width=".2323" points="1853.8477,-212.5993 1863.5436,-208.3287 1853.3007,-205.6207 1853.8477,-212.5993"/>
</g>
<!-- 6108&#45;&gt;8090 -->
<g id="edge109" class="edge">
<title>6108&#45;&gt;8090</title>
<path fill="none" stroke="#00ff00" stroke-width=".5339" stroke-dasharray="1,5" d="M1448.5569,-470.2898C1461.5582,-457.6582 1479.3565,-440.366 1493.7772,-426.3554"/>
<polygon fill="#00ff00" stroke="#00ff00" stroke-width=".5339" points="1496.2337,-428.8486 1500.9671,-419.3699 1491.3558,-423.828 1496.2337,-428.8486"/>
</g>
<!-- 6108&#45;&gt;5328 -->
<g id="edge108" class="edge">
<title>6108&#45;&gt;5328</title>
<path fill="none" stroke="#00ff00" stroke-width=".1829" stroke-dasharray="1,5" d="M1453.897,-477.5869C1478.9425,-466.4171 1519.7228,-447.2157 1552.7487,-426.8427 1554.4401,-425.7994 1556.1525,-424.6914 1557.8616,-423.5451"/>
<polygon fill="#00ff00" stroke="#00ff00" stroke-width=".1829" points="1560.1124,-426.2405 1566.2657,-417.6157 1556.0769,-420.5208 1560.1124,-426.2405"/>
</g>
<!-- 6108&#45;&gt;6486 -->
<g id="edge127" class="edge">
<title>6108&#45;&gt;6486</title>
<path fill="none" stroke="#00ff00" stroke-width=".1922" d="M1407.126,-479.449C1380.2928,-469.53 1335.9329,-451.0555 1302.7487,-426.8427 1267.5398,-401.1525 1234.3683,-363.1701 1213.8416,-337.4394"/>
<polygon fill="#00ff00" stroke="#00ff00" stroke-width=".1922" points="1216.5677,-335.2439 1207.6348,-329.5469 1211.0653,-339.571 1216.5677,-335.2439"/>
</g>
<!-- 6108&#45;&gt;6783 -->
<g id="edge87" class="edge">
<title>6108&#45;&gt;6783</title>
<path fill="none" stroke="#ff0000" stroke-width=".2335" d="M1433.2516,-462.8321C1436.3594,-432.0881 1441.6803,-379.4501 1445.2061,-344.5713"/>
<polygon fill="#ff0000" stroke="#ff0000" stroke-width=".2335" points="1448.7147,-344.6622 1446.2382,-334.3609 1441.7501,-343.9581 1448.7147,-344.6622"/>
</g>
<!-- 8925&#45;&gt;left -->
<g id="edge133" class="edge">
<title>8925&#45;&gt;left</title>
<path fill="none" stroke="#ff0000" stroke-width=".3088" d="M1028.8055,-188.3353C1045.9837,-171.8695 1071.8474,-147.0784 1090.1187,-129.5649"/>
<polygon fill="#ff0000" stroke="#ff0000" stroke-width=".3088" points="1092.6397,-131.9967 1097.437,-122.5502 1087.7959,-126.9433 1092.6397,-131.9967"/>
</g>
<!-- 9056&#45;&gt;7241 -->
<g id="edge137" class="edge">
<title>9056&#45;&gt;7241</title>
<path fill="none" stroke="#00ff00" stroke-width=".2656" d="M235.3172,-377.7727C238.1593,-367.2492 241.5339,-354.7538 244.614,-343.349"/>
<polygon fill="#00ff00" stroke="#00ff00" stroke-width=".2656" points="247.9957,-344.251 247.2242,-333.6843 241.2378,-342.4258 247.9957,-344.251"/>
</g>
<!-- 8807&#45;&gt;backward -->
<g id="edge131" class="edge">
<title>8807&#45;&gt;backward</title>
<path fill="none" stroke="#00ff00" stroke-width=".4107" d="M2074.0175,-292.6758C2067.8095,-287.527 2060.7038,-282.076 2053.7487,-277.7056 2018.1873,-255.3601 1974.5846,-235.5933 1942.864,-222.4413"/>
<polygon fill="#00ff00" stroke="#00ff00" stroke-width=".4107" points="1944.0038,-219.126 1933.4232,-218.5764 1941.3517,-225.6042 1944.0038,-219.126"/>
</g>
<!-- 5108&#45;&gt;none -->
<g id="edge63" class="edge">
<title>5108&#45;&gt;none</title>
<path fill="none" stroke="#00ff00" stroke-width=".1302" d="M550.911,-102.5282C608.3023,-87.5552 752.8988,-49.8309 818.4835,-32.7203"/>
<polygon fill="#00ff00" stroke="#00ff00" stroke-width=".1302" points="819.5131,-36.0689 828.3056,-30.1578 817.7459,-29.2957 819.5131,-36.0689"/>
</g>
<!-- 6517&#45;&gt;left -->
<g id="edge82" class="edge">
<title>6517&#45;&gt;left</title>
<path fill="none" stroke="#ff0000" stroke-width=".139" stroke-dasharray="1,5" d="M1894.9339,-390.5012C1912.0782,-380.1705 1934.5489,-363.2965 1944.7487,-341.3452 1976.9175,-272.1142 1996.7289,-225.4898 1944.7487,-169.5807 1916.8153,-139.536 1287.1385,-115.132 1141.5857,-109.8798"/>
<polygon fill="#ff0000" stroke="#ff0000" stroke-width=".139" points="1141.7038,-106.3818 1131.5849,-109.5216 1141.4532,-113.3774 1141.7038,-106.3818"/>
</g>
<!-- 6517&#45;&gt;6059 -->
<g id="edge96" class="edge">
<title>6517&#45;&gt;6059</title>
<path fill="none" stroke="#00ff00" stroke-width=".5309" d="M1848.2521,-397.5179C1803.5522,-388.8449 1706.0542,-368.4312 1626.7487,-341.3452 1613.2784,-336.7446 1598.8506,-330.6203 1586.4743,-324.9737"/>
<polygon fill="#00ff00" stroke="#00ff00" stroke-width=".5309" points="1587.5891,-321.6321 1577.046,-320.586 1584.6355,-327.9785 1587.5891,-321.6321"/>
</g>
<!-- 7925&#45;&gt;backward -->
<g id="edge107" class="edge">
<title>7925&#45;&gt;backward</title>
<path fill="none" stroke="#00ff00" stroke-width=".1913" d="M1678.8536,-292.6164C1685.1388,-287.346 1692.4483,-281.8382 1699.7487,-277.7056 1749.746,-249.4039 1812.8889,-228.8761 1854.7044,-217.1325"/>
<polygon fill="#00ff00" stroke="#00ff00" stroke-width=".1913" points="1855.8827,-220.4384 1864.5935,-214.4074 1854.023,-213.6899 1855.8827,-220.4384"/>
</g>
<!-- 8182&#45;&gt;3706 -->
<g id="edge113" class="edge">
<title>8182&#45;&gt;3706</title>
<path fill="none" stroke="#ff0000" stroke-width=".4165" stroke-dasharray="1,5" d="M2097.3052,-655.4143C2177.1258,-645.0093 2426.051,-611.7861 2459.7487,-597.8377 2461.8863,-596.9528 2464.0157,-595.9079 2466.1061,-594.756"/>
<polygon fill="#ff0000" stroke="#ff0000" stroke-width=".4165" points="2468.3397,-597.485 2474.926,-589.1862 2464.602,-591.5664 2468.3397,-597.485"/>
</g>
<!-- 8309&#45;&gt;right -->
<g id="edge117" class="edge">
<title>8309&#45;&gt;right</title>
<path fill="none" stroke="#00ff00" stroke-width=".184" stroke-dasharray="1,5" d="M846.1885,-380.1565C839.125,-367.8196 830.2144,-352.2565 822.5562,-338.881"/>
<polygon fill="#00ff00" stroke="#00ff00" stroke-width=".184" points="825.4988,-336.9763 817.4927,-330.0371 819.424,-340.4544 825.4988,-336.9763"/>
</g>
<!-- 3706&#45;&gt;none -->
<g id="edge61" class="edge">
<title>3706&#45;&gt;none</title>
<path fill="none" stroke="#00ff00" stroke-width=".2847" stroke-dasharray="1,5" d="M2517.6661,-565.8366C2571.7428,-547.795 2698.7487,-495.4814 2698.7487,-402.094 2698.7487,-402.094 2698.7487,-402.094 2698.7487,-205.6432 2698.7487,-38.0306 2506.5249,-114.7885 2341.7487,-84.0833 2194.4672,-56.638 1095.3376,-29.736 886.0972,-24.8335"/>
<polygon fill="#00ff00" stroke="#00ff00" stroke-width=".2847" points="886.0788,-21.3322 875.9998,-24.5979 885.9154,-28.3303 886.0788,-21.3322"/>
</g>
<!-- 3706&#45;&gt;backward -->
<g id="edge48" class="edge">
<title>3706&#45;&gt;backward</title>
<path fill="none" stroke="#ff0000" stroke-width=".3497" stroke-dasharray="1,5" d="M2515.4116,-560.4699C2531.255,-549.8796 2551.5246,-533.1549 2560.7487,-512.3402 2569.6617,-492.2277 2568.7326,-483.3417 2560.7487,-462.8427 2520.2068,-358.749 2489.4788,-329.9697 2390.7487,-277.7056 2313.9254,-237.0382 2053.1643,-215.7092 1946.1551,-208.4988"/>
<polygon fill="#ff0000" stroke="#ff0000" stroke-width=".3497" points="1946.1985,-204.9941 1935.9889,-207.8252 1945.7356,-211.9787 1946.1985,-204.9941"/>
</g>
<!-- 3706&#45;&gt;29 -->
<g id="edge75" class="edge">
<title>3706&#45;&gt;29</title>
<path fill="none" stroke="#ff0000" stroke-width=".1702" stroke-dasharray="1,5" d="M2475.0531,-556.6653C2470.3441,-553.3536 2465.0981,-550.2932 2459.7487,-548.3402 2353.6481,-509.6047 2064.3736,-529.5931 1952.7487,-512.3402 1926.7832,-508.3269 1897.721,-501.0854 1877.1048,-495.4686"/>
<polygon fill="#ff0000" stroke="#ff0000" stroke-width=".1702" points="1878.0062,-492.0866 1867.4344,-492.7843 1876.1339,-498.8316 1878.0062,-492.0866"/>
</g>
<!-- 4347&#45;&gt;7692 -->
<g id="edge101" class="edge">
<title>4347&#45;&gt;7692</title>
<path fill="none" stroke="#ff0000" stroke-width=".3671" d="M128.4817,-377.6106C136.6176,-342.8646 151.5467,-279.1074 160.7631,-239.7473"/>
<polygon fill="#ff0000" stroke="#ff0000" stroke-width=".3671" points="164.2159,-240.3527 163.0881,-229.818 157.4003,-238.7567 164.2159,-240.3527"/>
</g>
<!-- 4347&#45;&gt;3600 -->
<g id="edge55" class="edge">
<title>4347&#45;&gt;3600</title>
<path fill="none" stroke="#ff0000" stroke-width=".1185" stroke-dasharray="1,5" d="M109.1338,-381.0887C101.0789,-368.6615 90.7506,-352.727 81.8855,-339.0498"/>
<polygon fill="#ff0000" stroke="#ff0000" stroke-width=".1185" points="84.6859,-336.9353 76.3098,-330.4475 78.8119,-340.7427 84.6859,-336.9353"/>
</g>
<!-- 4347&#45;&gt;3370 -->
<g id="edge77" class="edge">
<title>4347&#45;&gt;3370</title>
<path fill="none" stroke="#00ff00" stroke-width=".1251" d="M122.158,-377.3434C120.9142,-325.2364 118.0224,-204.0882 116.5874,-143.9683"/>
<polygon fill="#00ff00" stroke="#00ff00" stroke-width=".1251" points="120.0831,-143.741 116.3454,-133.8274 113.0851,-143.9081 120.0831,-143.741"/>
</g>
<!-- 7806&#45;&gt;3370 -->
<g id="edge104" class="edge">
<title>7806&#45;&gt;3370</title>
<path fill="none" stroke="#00ff00" stroke-width=".1777" d="M41.8651,-187.4337C55.9737,-172.4242 76.1445,-150.9653 91.8468,-134.2603"/>
<polygon fill="#00ff00" stroke="#00ff00" stroke-width=".1777" points="94.4103,-136.6433 98.7091,-126.9598 89.3098,-131.849 94.4103,-136.6433"/>
</g>
<!-- 6783&#45;&gt;backward -->
<g id="edge88" class="edge">
<title>6783&#45;&gt;backward</title>
<path fill="none" stroke="#00ff00" stroke-width=".3689" stroke-dasharray="1,5" d="M1470.9392,-298.1378C1484.9214,-291.3636 1503.5257,-283.0714 1520.7487,-277.7056 1637.9223,-241.2009 1781.5304,-220.0345 1853.6989,-210.9514"/>
<polygon fill="#00ff00" stroke="#00ff00" stroke-width=".3689" points="1854.3226,-214.401 1863.8166,-209.6986 1853.4623,-207.4541 1854.3226,-214.401"/>
</g>
</g>
</svg>
