<?xml version="1.0" encoding="utf-8" standalone="no"?>
<!DOCTYPE svg PUBLIC "-//W3C//DTD SVG 1.1//EN"
  "http://www.w3.org/Graphics/SVG/1.1/DTD/svg11.dtd">
<!-- Created with matplotlib (https://matplotlib.org/) -->
<svg height="345.6pt" version="1.1" viewBox="0 0 460.8 345.6" width="460.8pt" xmlns="http://www.w3.org/2000/svg" xmlns:xlink="http://www.w3.org/1999/xlink">
 <metadata>
  <rdf:RDF xmlns:cc="http://creativecommons.org/ns#" xmlns:dc="http://purl.org/dc/elements/1.1/" xmlns:rdf="http://www.w3.org/1999/02/22-rdf-syntax-ns#">
   <cc:Work>
    <dc:type rdf:resource="http://purl.org/dc/dcmitype/StillImage"/>
    <dc:date>2021-04-15T07:51:40.479204</dc:date>
    <dc:format>image/svg+xml</dc:format>
    <dc:creator>
     <cc:Agent>
      <dc:title>Matplotlib v3.3.4, https://matplotlib.org/</dc:title>
     </cc:Agent>
    </dc:creator>
   </cc:Work>
  </rdf:RDF>
 </metadata>
 <defs>
  <style type="text/css">*{stroke-linecap:butt;stroke-linejoin:round;}</style>
 </defs>
 <g id="figure_1">
  <g id="patch_1">
   <path d="M 0 345.6 
L 460.8 345.6 
L 460.8 0 
L 0 0 
z
" style="fill:#ffffff;"/>
  </g>
  <g id="axes_1">
   <g id="patch_2">
    <path d="M 57.6 307.584 
L 414.72 307.584 
L 414.72 41.472 
L 57.6 41.472 
z
" style="fill:#ffffff;"/>
   </g>
   <g id="matplotlib.axis_1">
    <g id="xtick_1">
     <g id="line2d_1">
      <path clip-path="url(#p80442346ff)" d="M 73.832727 307.584 
L 73.832727 41.472 
" style="fill:none;stroke:#b0b0b0;stroke-linecap:square;stroke-width:0.8;"/>
     </g>
     <g id="line2d_2">
      <defs>
       <path d="M 0 0 
L 0 3.5 
" id="ma0a5661ef2" style="stroke:#000000;stroke-width:0.8;"/>
      </defs>
      <g>
       <use style="stroke:#000000;stroke-width:0.8;" x="73.832727" xlink:href="#ma0a5661ef2" y="307.584"/>
      </g>
     </g>
     <g id="text_1">
      <!-- 0 -->
      <g transform="translate(70.651477 322.182437)scale(0.1 -0.1)">
       <defs>
        <path d="M 31.78125 66.40625 
Q 24.171875 66.40625 20.328125 58.90625 
Q 16.5 51.421875 16.5 36.375 
Q 16.5 21.390625 20.328125 13.890625 
Q 24.171875 6.390625 31.78125 6.390625 
Q 39.453125 6.390625 43.28125 13.890625 
Q 47.125 21.390625 47.125 36.375 
Q 47.125 51.421875 43.28125 58.90625 
Q 39.453125 66.40625 31.78125 66.40625 
z
M 31.78125 74.21875 
Q 44.046875 74.21875 50.515625 64.515625 
Q 56.984375 54.828125 56.984375 36.375 
Q 56.984375 17.96875 50.515625 8.265625 
Q 44.046875 -1.421875 31.78125 -1.421875 
Q 19.53125 -1.421875 13.0625 8.265625 
Q 6.59375 17.96875 6.59375 36.375 
Q 6.59375 54.828125 13.0625 64.515625 
Q 19.53125 74.21875 31.78125 74.21875 
z
" id="DejaVuSans-48"/>
       </defs>
       <use xlink:href="#DejaVuSans-48"/>
      </g>
     </g>
    </g>
    <g id="xtick_2">
     <g id="line2d_3">
      <path clip-path="url(#p80442346ff)" d="M 113.716578 307.584 
L 113.716578 41.472 
" style="fill:none;stroke:#b0b0b0;stroke-linecap:square;stroke-width:0.8;"/>
     </g>
     <g id="line2d_4">
      <g>
       <use style="stroke:#000000;stroke-width:0.8;" x="113.716578" xlink:href="#ma0a5661ef2" y="307.584"/>
      </g>
     </g>
     <g id="text_2">
      <!-- 100 -->
      <g transform="translate(104.172828 322.182437)scale(0.1 -0.1)">
       <defs>
        <path d="M 12.40625 8.296875 
L 28.515625 8.296875 
L 28.515625 63.921875 
L 10.984375 60.40625 
L 10.984375 69.390625 
L 28.421875 72.90625 
L 38.28125 72.90625 
L 38.28125 8.296875 
L 54.390625 8.296875 
L 54.390625 0 
L 12.40625 0 
z
" id="DejaVuSans-49"/>
       </defs>
       <use xlink:href="#DejaVuSans-49"/>
       <use x="63.623047" xlink:href="#DejaVuSans-48"/>
       <use x="127.246094" xlink:href="#DejaVuSans-48"/>
      </g>
     </g>
    </g>
    <g id="xtick_3">
     <g id="line2d_5">
      <path clip-path="url(#p80442346ff)" d="M 153.600429 307.584 
L 153.600429 41.472 
" style="fill:none;stroke:#b0b0b0;stroke-linecap:square;stroke-width:0.8;"/>
     </g>
     <g id="line2d_6">
      <g>
       <use style="stroke:#000000;stroke-width:0.8;" x="153.600429" xlink:href="#ma0a5661ef2" y="307.584"/>
      </g>
     </g>
     <g id="text_3">
      <!-- 200 -->
      <g transform="translate(144.056679 322.182437)scale(0.1 -0.1)">
       <defs>
        <path d="M 19.1875 8.296875 
L 53.609375 8.296875 
L 53.609375 0 
L 7.328125 0 
L 7.328125 8.296875 
Q 12.9375 14.109375 22.625 23.890625 
Q 32.328125 33.6875 34.8125 36.53125 
Q 39.546875 41.84375 41.421875 45.53125 
Q 43.3125 49.21875 43.3125 52.78125 
Q 43.3125 58.59375 39.234375 62.25 
Q 35.15625 65.921875 28.609375 65.921875 
Q 23.96875 65.921875 18.8125 64.3125 
Q 13.671875 62.703125 7.8125 59.421875 
L 7.8125 69.390625 
Q 13.765625 71.78125 18.9375 73 
Q 24.125 74.21875 28.421875 74.21875 
Q 39.75 74.21875 46.484375 68.546875 
Q 53.21875 62.890625 53.21875 53.421875 
Q 53.21875 48.921875 51.53125 44.890625 
Q 49.859375 40.875 45.40625 35.40625 
Q 44.1875 33.984375 37.640625 27.21875 
Q 31.109375 20.453125 19.1875 8.296875 
z
" id="DejaVuSans-50"/>
       </defs>
       <use xlink:href="#DejaVuSans-50"/>
       <use x="63.623047" xlink:href="#DejaVuSans-48"/>
       <use x="127.246094" xlink:href="#DejaVuSans-48"/>
      </g>
     </g>
    </g>
    <g id="xtick_4">
     <g id="line2d_7">
      <path clip-path="url(#p80442346ff)" d="M 193.48428 307.584 
L 193.48428 41.472 
" style="fill:none;stroke:#b0b0b0;stroke-linecap:square;stroke-width:0.8;"/>
     </g>
     <g id="line2d_8">
      <g>
       <use style="stroke:#000000;stroke-width:0.8;" x="193.48428" xlink:href="#ma0a5661ef2" y="307.584"/>
      </g>
     </g>
     <g id="text_4">
      <!-- 300 -->
      <g transform="translate(183.94053 322.182437)scale(0.1 -0.1)">
       <defs>
        <path d="M 40.578125 39.3125 
Q 47.65625 37.796875 51.625 33 
Q 55.609375 28.21875 55.609375 21.1875 
Q 55.609375 10.40625 48.1875 4.484375 
Q 40.765625 -1.421875 27.09375 -1.421875 
Q 22.515625 -1.421875 17.65625 -0.515625 
Q 12.796875 0.390625 7.625 2.203125 
L 7.625 11.71875 
Q 11.71875 9.328125 16.59375 8.109375 
Q 21.484375 6.890625 26.8125 6.890625 
Q 36.078125 6.890625 40.9375 10.546875 
Q 45.796875 14.203125 45.796875 21.1875 
Q 45.796875 27.640625 41.28125 31.265625 
Q 36.765625 34.90625 28.71875 34.90625 
L 20.21875 34.90625 
L 20.21875 43.015625 
L 29.109375 43.015625 
Q 36.375 43.015625 40.234375 45.921875 
Q 44.09375 48.828125 44.09375 54.296875 
Q 44.09375 59.90625 40.109375 62.90625 
Q 36.140625 65.921875 28.71875 65.921875 
Q 24.65625 65.921875 20.015625 65.03125 
Q 15.375 64.15625 9.8125 62.3125 
L 9.8125 71.09375 
Q 15.4375 72.65625 20.34375 73.4375 
Q 25.25 74.21875 29.59375 74.21875 
Q 40.828125 74.21875 47.359375 69.109375 
Q 53.90625 64.015625 53.90625 55.328125 
Q 53.90625 49.265625 50.4375 45.09375 
Q 46.96875 40.921875 40.578125 39.3125 
z
" id="DejaVuSans-51"/>
       </defs>
       <use xlink:href="#DejaVuSans-51"/>
       <use x="63.623047" xlink:href="#DejaVuSans-48"/>
       <use x="127.246094" xlink:href="#DejaVuSans-48"/>
      </g>
     </g>
    </g>
    <g id="xtick_5">
     <g id="line2d_9">
      <path clip-path="url(#p80442346ff)" d="M 233.36813 307.584 
L 233.36813 41.472 
" style="fill:none;stroke:#b0b0b0;stroke-linecap:square;stroke-width:0.8;"/>
     </g>
     <g id="line2d_10">
      <g>
       <use style="stroke:#000000;stroke-width:0.8;" x="233.36813" xlink:href="#ma0a5661ef2" y="307.584"/>
      </g>
     </g>
     <g id="text_5">
      <!-- 400 -->
      <g transform="translate(223.82438 322.182437)scale(0.1 -0.1)">
       <defs>
        <path d="M 37.796875 64.3125 
L 12.890625 25.390625 
L 37.796875 25.390625 
z
M 35.203125 72.90625 
L 47.609375 72.90625 
L 47.609375 25.390625 
L 58.015625 25.390625 
L 58.015625 17.1875 
L 47.609375 17.1875 
L 47.609375 0 
L 37.796875 0 
L 37.796875 17.1875 
L 4.890625 17.1875 
L 4.890625 26.703125 
z
" id="DejaVuSans-52"/>
       </defs>
       <use xlink:href="#DejaVuSans-52"/>
       <use x="63.623047" xlink:href="#DejaVuSans-48"/>
       <use x="127.246094" xlink:href="#DejaVuSans-48"/>
      </g>
     </g>
    </g>
    <g id="xtick_6">
     <g id="line2d_11">
      <path clip-path="url(#p80442346ff)" d="M 273.251981 307.584 
L 273.251981 41.472 
" style="fill:none;stroke:#b0b0b0;stroke-linecap:square;stroke-width:0.8;"/>
     </g>
     <g id="line2d_12">
      <g>
       <use style="stroke:#000000;stroke-width:0.8;" x="273.251981" xlink:href="#ma0a5661ef2" y="307.584"/>
      </g>
     </g>
     <g id="text_6">
      <!-- 500 -->
      <g transform="translate(263.708231 322.182437)scale(0.1 -0.1)">
       <defs>
        <path d="M 10.796875 72.90625 
L 49.515625 72.90625 
L 49.515625 64.59375 
L 19.828125 64.59375 
L 19.828125 46.734375 
Q 21.96875 47.46875 24.109375 47.828125 
Q 26.265625 48.1875 28.421875 48.1875 
Q 40.625 48.1875 47.75 41.5 
Q 54.890625 34.8125 54.890625 23.390625 
Q 54.890625 11.625 47.5625 5.09375 
Q 40.234375 -1.421875 26.90625 -1.421875 
Q 22.3125 -1.421875 17.546875 -0.640625 
Q 12.796875 0.140625 7.71875 1.703125 
L 7.71875 11.625 
Q 12.109375 9.234375 16.796875 8.0625 
Q 21.484375 6.890625 26.703125 6.890625 
Q 35.15625 6.890625 40.078125 11.328125 
Q 45.015625 15.765625 45.015625 23.390625 
Q 45.015625 31 40.078125 35.4375 
Q 35.15625 39.890625 26.703125 39.890625 
Q 22.75 39.890625 18.8125 39.015625 
Q 14.890625 38.140625 10.796875 36.28125 
z
" id="DejaVuSans-53"/>
       </defs>
       <use xlink:href="#DejaVuSans-53"/>
       <use x="63.623047" xlink:href="#DejaVuSans-48"/>
       <use x="127.246094" xlink:href="#DejaVuSans-48"/>
      </g>
     </g>
    </g>
    <g id="xtick_7">
     <g id="line2d_13">
      <path clip-path="url(#p80442346ff)" d="M 313.135832 307.584 
L 313.135832 41.472 
" style="fill:none;stroke:#b0b0b0;stroke-linecap:square;stroke-width:0.8;"/>
     </g>
     <g id="line2d_14">
      <g>
       <use style="stroke:#000000;stroke-width:0.8;" x="313.135832" xlink:href="#ma0a5661ef2" y="307.584"/>
      </g>
     </g>
     <g id="text_7">
      <!-- 600 -->
      <g transform="translate(303.592082 322.182437)scale(0.1 -0.1)">
       <defs>
        <path d="M 33.015625 40.375 
Q 26.375 40.375 22.484375 35.828125 
Q 18.609375 31.296875 18.609375 23.390625 
Q 18.609375 15.53125 22.484375 10.953125 
Q 26.375 6.390625 33.015625 6.390625 
Q 39.65625 6.390625 43.53125 10.953125 
Q 47.40625 15.53125 47.40625 23.390625 
Q 47.40625 31.296875 43.53125 35.828125 
Q 39.65625 40.375 33.015625 40.375 
z
M 52.59375 71.296875 
L 52.59375 62.3125 
Q 48.875 64.0625 45.09375 64.984375 
Q 41.3125 65.921875 37.59375 65.921875 
Q 27.828125 65.921875 22.671875 59.328125 
Q 17.53125 52.734375 16.796875 39.40625 
Q 19.671875 43.65625 24.015625 45.921875 
Q 28.375 48.1875 33.59375 48.1875 
Q 44.578125 48.1875 50.953125 41.515625 
Q 57.328125 34.859375 57.328125 23.390625 
Q 57.328125 12.15625 50.6875 5.359375 
Q 44.046875 -1.421875 33.015625 -1.421875 
Q 20.359375 -1.421875 13.671875 8.265625 
Q 6.984375 17.96875 6.984375 36.375 
Q 6.984375 53.65625 15.1875 63.9375 
Q 23.390625 74.21875 37.203125 74.21875 
Q 40.921875 74.21875 44.703125 73.484375 
Q 48.484375 72.75 52.59375 71.296875 
z
" id="DejaVuSans-54"/>
       </defs>
       <use xlink:href="#DejaVuSans-54"/>
       <use x="63.623047" xlink:href="#DejaVuSans-48"/>
       <use x="127.246094" xlink:href="#DejaVuSans-48"/>
      </g>
     </g>
    </g>
    <g id="xtick_8">
     <g id="line2d_15">
      <path clip-path="url(#p80442346ff)" d="M 353.019683 307.584 
L 353.019683 41.472 
" style="fill:none;stroke:#b0b0b0;stroke-linecap:square;stroke-width:0.8;"/>
     </g>
     <g id="line2d_16">
      <g>
       <use style="stroke:#000000;stroke-width:0.8;" x="353.019683" xlink:href="#ma0a5661ef2" y="307.584"/>
      </g>
     </g>
     <g id="text_8">
      <!-- 700 -->
      <g transform="translate(343.475933 322.182437)scale(0.1 -0.1)">
       <defs>
        <path d="M 8.203125 72.90625 
L 55.078125 72.90625 
L 55.078125 68.703125 
L 28.609375 0 
L 18.3125 0 
L 43.21875 64.59375 
L 8.203125 64.59375 
z
" id="DejaVuSans-55"/>
       </defs>
       <use xlink:href="#DejaVuSans-55"/>
       <use x="63.623047" xlink:href="#DejaVuSans-48"/>
       <use x="127.246094" xlink:href="#DejaVuSans-48"/>
      </g>
     </g>
    </g>
    <g id="xtick_9">
     <g id="line2d_17">
      <path clip-path="url(#p80442346ff)" d="M 392.903534 307.584 
L 392.903534 41.472 
" style="fill:none;stroke:#b0b0b0;stroke-linecap:square;stroke-width:0.8;"/>
     </g>
     <g id="line2d_18">
      <g>
       <use style="stroke:#000000;stroke-width:0.8;" x="392.903534" xlink:href="#ma0a5661ef2" y="307.584"/>
      </g>
     </g>
     <g id="text_9">
      <!-- 800 -->
      <g transform="translate(383.359784 322.182437)scale(0.1 -0.1)">
       <defs>
        <path d="M 31.78125 34.625 
Q 24.75 34.625 20.71875 30.859375 
Q 16.703125 27.09375 16.703125 20.515625 
Q 16.703125 13.921875 20.71875 10.15625 
Q 24.75 6.390625 31.78125 6.390625 
Q 38.8125 6.390625 42.859375 10.171875 
Q 46.921875 13.96875 46.921875 20.515625 
Q 46.921875 27.09375 42.890625 30.859375 
Q 38.875 34.625 31.78125 34.625 
z
M 21.921875 38.8125 
Q 15.578125 40.375 12.03125 44.71875 
Q 8.5 49.078125 8.5 55.328125 
Q 8.5 64.0625 14.71875 69.140625 
Q 20.953125 74.21875 31.78125 74.21875 
Q 42.671875 74.21875 48.875 69.140625 
Q 55.078125 64.0625 55.078125 55.328125 
Q 55.078125 49.078125 51.53125 44.71875 
Q 48 40.375 41.703125 38.8125 
Q 48.828125 37.15625 52.796875 32.3125 
Q 56.78125 27.484375 56.78125 20.515625 
Q 56.78125 9.90625 50.3125 4.234375 
Q 43.84375 -1.421875 31.78125 -1.421875 
Q 19.734375 -1.421875 13.25 4.234375 
Q 6.78125 9.90625 6.78125 20.515625 
Q 6.78125 27.484375 10.78125 32.3125 
Q 14.796875 37.15625 21.921875 38.8125 
z
M 18.3125 54.390625 
Q 18.3125 48.734375 21.84375 45.5625 
Q 25.390625 42.390625 31.78125 42.390625 
Q 38.140625 42.390625 41.71875 45.5625 
Q 45.3125 48.734375 45.3125 54.390625 
Q 45.3125 60.0625 41.71875 63.234375 
Q 38.140625 66.40625 31.78125 66.40625 
Q 25.390625 66.40625 21.84375 63.234375 
Q 18.3125 60.0625 18.3125 54.390625 
z
" id="DejaVuSans-56"/>
       </defs>
       <use xlink:href="#DejaVuSans-56"/>
       <use x="63.623047" xlink:href="#DejaVuSans-48"/>
       <use x="127.246094" xlink:href="#DejaVuSans-48"/>
      </g>
     </g>
    </g>
    <g id="text_10">
     <!-- Generations -->
     <g transform="translate(205.662344 335.860562)scale(0.1 -0.1)">
      <defs>
       <path d="M 59.515625 10.40625 
L 59.515625 29.984375 
L 43.40625 29.984375 
L 43.40625 38.09375 
L 69.28125 38.09375 
L 69.28125 6.78125 
Q 63.578125 2.734375 56.6875 0.65625 
Q 49.8125 -1.421875 42 -1.421875 
Q 24.90625 -1.421875 15.25 8.5625 
Q 5.609375 18.5625 5.609375 36.375 
Q 5.609375 54.25 15.25 64.234375 
Q 24.90625 74.21875 42 74.21875 
Q 49.125 74.21875 55.546875 72.453125 
Q 61.96875 70.703125 67.390625 67.28125 
L 67.390625 56.78125 
Q 61.921875 61.421875 55.765625 63.765625 
Q 49.609375 66.109375 42.828125 66.109375 
Q 29.4375 66.109375 22.71875 58.640625 
Q 16.015625 51.171875 16.015625 36.375 
Q 16.015625 21.625 22.71875 14.15625 
Q 29.4375 6.6875 42.828125 6.6875 
Q 48.046875 6.6875 52.140625 7.59375 
Q 56.25 8.5 59.515625 10.40625 
z
" id="DejaVuSans-71"/>
       <path d="M 56.203125 29.59375 
L 56.203125 25.203125 
L 14.890625 25.203125 
Q 15.484375 15.921875 20.484375 11.0625 
Q 25.484375 6.203125 34.421875 6.203125 
Q 39.59375 6.203125 44.453125 7.46875 
Q 49.3125 8.734375 54.109375 11.28125 
L 54.109375 2.78125 
Q 49.265625 0.734375 44.1875 -0.34375 
Q 39.109375 -1.421875 33.890625 -1.421875 
Q 20.796875 -1.421875 13.15625 6.1875 
Q 5.515625 13.8125 5.515625 26.8125 
Q 5.515625 40.234375 12.765625 48.109375 
Q 20.015625 56 32.328125 56 
Q 43.359375 56 49.78125 48.890625 
Q 56.203125 41.796875 56.203125 29.59375 
z
M 47.21875 32.234375 
Q 47.125 39.59375 43.09375 43.984375 
Q 39.0625 48.390625 32.421875 48.390625 
Q 24.90625 48.390625 20.390625 44.140625 
Q 15.875 39.890625 15.1875 32.171875 
z
" id="DejaVuSans-101"/>
       <path d="M 54.890625 33.015625 
L 54.890625 0 
L 45.90625 0 
L 45.90625 32.71875 
Q 45.90625 40.484375 42.875 44.328125 
Q 39.84375 48.1875 33.796875 48.1875 
Q 26.515625 48.1875 22.3125 43.546875 
Q 18.109375 38.921875 18.109375 30.90625 
L 18.109375 0 
L 9.078125 0 
L 9.078125 54.6875 
L 18.109375 54.6875 
L 18.109375 46.1875 
Q 21.34375 51.125 25.703125 53.5625 
Q 30.078125 56 35.796875 56 
Q 45.21875 56 50.046875 50.171875 
Q 54.890625 44.34375 54.890625 33.015625 
z
" id="DejaVuSans-110"/>
       <path d="M 41.109375 46.296875 
Q 39.59375 47.171875 37.8125 47.578125 
Q 36.03125 48 33.890625 48 
Q 26.265625 48 22.1875 43.046875 
Q 18.109375 38.09375 18.109375 28.8125 
L 18.109375 0 
L 9.078125 0 
L 9.078125 54.6875 
L 18.109375 54.6875 
L 18.109375 46.1875 
Q 20.953125 51.171875 25.484375 53.578125 
Q 30.03125 56 36.53125 56 
Q 37.453125 56 38.578125 55.875 
Q 39.703125 55.765625 41.0625 55.515625 
z
" id="DejaVuSans-114"/>
       <path d="M 34.28125 27.484375 
Q 23.390625 27.484375 19.1875 25 
Q 14.984375 22.515625 14.984375 16.5 
Q 14.984375 11.71875 18.140625 8.90625 
Q 21.296875 6.109375 26.703125 6.109375 
Q 34.1875 6.109375 38.703125 11.40625 
Q 43.21875 16.703125 43.21875 25.484375 
L 43.21875 27.484375 
z
M 52.203125 31.203125 
L 52.203125 0 
L 43.21875 0 
L 43.21875 8.296875 
Q 40.140625 3.328125 35.546875 0.953125 
Q 30.953125 -1.421875 24.3125 -1.421875 
Q 15.921875 -1.421875 10.953125 3.296875 
Q 6 8.015625 6 15.921875 
Q 6 25.140625 12.171875 29.828125 
Q 18.359375 34.515625 30.609375 34.515625 
L 43.21875 34.515625 
L 43.21875 35.40625 
Q 43.21875 41.609375 39.140625 45 
Q 35.0625 48.390625 27.6875 48.390625 
Q 23 48.390625 18.546875 47.265625 
Q 14.109375 46.140625 10.015625 43.890625 
L 10.015625 52.203125 
Q 14.9375 54.109375 19.578125 55.046875 
Q 24.21875 56 28.609375 56 
Q 40.484375 56 46.34375 49.84375 
Q 52.203125 43.703125 52.203125 31.203125 
z
" id="DejaVuSans-97"/>
       <path d="M 18.3125 70.21875 
L 18.3125 54.6875 
L 36.8125 54.6875 
L 36.8125 47.703125 
L 18.3125 47.703125 
L 18.3125 18.015625 
Q 18.3125 11.328125 20.140625 9.421875 
Q 21.96875 7.515625 27.59375 7.515625 
L 36.8125 7.515625 
L 36.8125 0 
L 27.59375 0 
Q 17.1875 0 13.234375 3.875 
Q 9.28125 7.765625 9.28125 18.015625 
L 9.28125 47.703125 
L 2.6875 47.703125 
L 2.6875 54.6875 
L 9.28125 54.6875 
L 9.28125 70.21875 
z
" id="DejaVuSans-116"/>
       <path d="M 9.421875 54.6875 
L 18.40625 54.6875 
L 18.40625 0 
L 9.421875 0 
z
M 9.421875 75.984375 
L 18.40625 75.984375 
L 18.40625 64.59375 
L 9.421875 64.59375 
z
" id="DejaVuSans-105"/>
       <path d="M 30.609375 48.390625 
Q 23.390625 48.390625 19.1875 42.75 
Q 14.984375 37.109375 14.984375 27.296875 
Q 14.984375 17.484375 19.15625 11.84375 
Q 23.34375 6.203125 30.609375 6.203125 
Q 37.796875 6.203125 41.984375 11.859375 
Q 46.1875 17.53125 46.1875 27.296875 
Q 46.1875 37.015625 41.984375 42.703125 
Q 37.796875 48.390625 30.609375 48.390625 
z
M 30.609375 56 
Q 42.328125 56 49.015625 48.375 
Q 55.71875 40.765625 55.71875 27.296875 
Q 55.71875 13.875 49.015625 6.21875 
Q 42.328125 -1.421875 30.609375 -1.421875 
Q 18.84375 -1.421875 12.171875 6.21875 
Q 5.515625 13.875 5.515625 27.296875 
Q 5.515625 40.765625 12.171875 48.375 
Q 18.84375 56 30.609375 56 
z
" id="DejaVuSans-111"/>
       <path d="M 44.28125 53.078125 
L 44.28125 44.578125 
Q 40.484375 46.53125 36.375 47.5 
Q 32.28125 48.484375 27.875 48.484375 
Q 21.1875 48.484375 17.84375 46.4375 
Q 14.5 44.390625 14.5 40.28125 
Q 14.5 37.15625 16.890625 35.375 
Q 19.28125 33.59375 26.515625 31.984375 
L 29.59375 31.296875 
Q 39.15625 29.25 43.1875 25.515625 
Q 47.21875 21.78125 47.21875 15.09375 
Q 47.21875 7.46875 41.1875 3.015625 
Q 35.15625 -1.421875 24.609375 -1.421875 
Q 20.21875 -1.421875 15.453125 -0.5625 
Q 10.6875 0.296875 5.421875 2 
L 5.421875 11.28125 
Q 10.40625 8.6875 15.234375 7.390625 
Q 20.0625 6.109375 24.8125 6.109375 
Q 31.15625 6.109375 34.5625 8.28125 
Q 37.984375 10.453125 37.984375 14.40625 
Q 37.984375 18.0625 35.515625 20.015625 
Q 33.0625 21.96875 24.703125 23.78125 
L 21.578125 24.515625 
Q 13.234375 26.265625 9.515625 29.90625 
Q 5.8125 33.546875 5.8125 39.890625 
Q 5.8125 47.609375 11.28125 51.796875 
Q 16.75 56 26.8125 56 
Q 31.78125 56 36.171875 55.265625 
Q 40.578125 54.546875 44.28125 53.078125 
z
" id="DejaVuSans-115"/>
      </defs>
      <use xlink:href="#DejaVuSans-71"/>
      <use x="77.490234" xlink:href="#DejaVuSans-101"/>
      <use x="139.013672" xlink:href="#DejaVuSans-110"/>
      <use x="202.392578" xlink:href="#DejaVuSans-101"/>
      <use x="263.916016" xlink:href="#DejaVuSans-114"/>
      <use x="305.029297" xlink:href="#DejaVuSans-97"/>
      <use x="366.308594" xlink:href="#DejaVuSans-116"/>
      <use x="405.517578" xlink:href="#DejaVuSans-105"/>
      <use x="433.300781" xlink:href="#DejaVuSans-111"/>
      <use x="494.482422" xlink:href="#DejaVuSans-110"/>
      <use x="557.861328" xlink:href="#DejaVuSans-115"/>
     </g>
    </g>
   </g>
   <g id="matplotlib.axis_2">
    <g id="ytick_1">
     <g id="line2d_19">
      <path clip-path="url(#p80442346ff)" d="M 57.6 233.935194 
L 414.72 233.935194 
" style="fill:none;stroke:#b0b0b0;stroke-linecap:square;stroke-width:0.8;"/>
     </g>
     <g id="line2d_20">
      <defs>
       <path d="M 0 0 
L -3.5 0 
" id="m7ee7508fef" style="stroke:#000000;stroke-width:0.8;"/>
      </defs>
      <g>
       <use style="stroke:#000000;stroke-width:0.8;" x="57.6" xlink:href="#m7ee7508fef" y="233.935194"/>
      </g>
     </g>
     <g id="text_11">
      <!-- $\mathdefault{-10^{4}}$ -->
      <g transform="translate(24.6 237.734413)scale(0.1 -0.1)">
       <defs>
        <path d="M 10.59375 35.5 
L 73.1875 35.5 
L 73.1875 27.203125 
L 10.59375 27.203125 
z
" id="DejaVuSans-8722"/>
       </defs>
       <use transform="translate(0 0.684375)" xlink:href="#DejaVuSans-8722"/>
       <use transform="translate(83.789062 0.684375)" xlink:href="#DejaVuSans-49"/>
       <use transform="translate(147.412109 0.684375)" xlink:href="#DejaVuSans-48"/>
       <use transform="translate(211.992188 38.965625)scale(0.7)" xlink:href="#DejaVuSans-52"/>
      </g>
     </g>
    </g>
    <g id="text_12">
     <!-- Fitness -->
     <g transform="translate(18.520312 191.845187)rotate(-90)scale(0.1 -0.1)">
      <defs>
       <path d="M 9.8125 72.90625 
L 51.703125 72.90625 
L 51.703125 64.59375 
L 19.671875 64.59375 
L 19.671875 43.109375 
L 48.578125 43.109375 
L 48.578125 34.8125 
L 19.671875 34.8125 
L 19.671875 0 
L 9.8125 0 
z
" id="DejaVuSans-70"/>
      </defs>
      <use xlink:href="#DejaVuSans-70"/>
      <use x="50.269531" xlink:href="#DejaVuSans-105"/>
      <use x="78.052734" xlink:href="#DejaVuSans-116"/>
      <use x="117.261719" xlink:href="#DejaVuSans-110"/>
      <use x="180.640625" xlink:href="#DejaVuSans-101"/>
      <use x="242.164062" xlink:href="#DejaVuSans-115"/>
      <use x="294.263672" xlink:href="#DejaVuSans-115"/>
     </g>
    </g>
   </g>
   <g id="line2d_21">
    <path clip-path="url(#p80442346ff)" d="M 73.832727 295.488 
L 74.231566 269.156605 
L 74.630404 256.320667 
L 75.029243 253.365365 
L 75.428081 247.255753 
L 75.82692 244.626478 
L 76.225758 236.375631 
L 76.624597 230.830905 
L 77.023435 227.272989 
L 77.422274 227.584813 
L 77.821112 223.851101 
L 78.219951 223.427635 
L 79.017628 208.293204 
L 79.416466 206.605273 
L 79.815305 215.159929 
L 80.214143 215.327424 
L 80.612982 217.086116 
L 81.01182 221.601414 
L 81.410659 218.188551 
L 81.809497 217.718565 
L 82.208336 203.607724 
L 82.607174 208.912982 
L 83.006013 216.724448 
L 83.80369 212.517332 
L 84.202528 203.869875 
L 84.601367 204.40247 
L 85.000205 208.832756 
L 85.399044 202.427512 
L 85.797883 201.018781 
L 86.196721 203.396131 
L 86.59556 204.529821 
L 86.994398 198.15474 
L 87.393237 205.412503 
L 87.792075 206.689887 
L 88.190914 214.359644 
L 88.589752 209.650886 
L 88.988591 212.34975 
L 89.387429 213.641769 
L 89.786268 207.751848 
L 90.185106 203.522341 
L 90.583945 201.756677 
L 90.982783 188.107308 
L 91.381622 183.628505 
L 91.78046 204.133862 
L 92.179299 199.495105 
L 92.578137 193.54483 
L 93.375814 208.444751 
L 93.774653 206.132826 
L 94.173491 190.247002 
L 94.971168 202.769877 
L 95.370007 199.611754 
L 95.768845 201.082876 
L 96.167684 178.874504 
L 96.566522 191.766762 
L 96.965361 193.091439 
L 97.364199 189.51297 
L 97.763038 184.381067 
L 98.560715 194.457715 
L 98.959553 188.501882 
L 99.358392 192.855771 
L 99.75723 191.305583 
L 100.156069 192.193333 
L 100.554907 173.981347 
L 100.953746 189.552459 
L 101.352584 189.303333 
L 101.751423 188.169999 
L 102.150261 196.275018 
L 102.5491 192.625763 
L 102.947938 197.402104 
L 103.346777 210.038942 
L 103.745615 211.419064 
L 104.144454 197.750978 
L 104.543292 201.167898 
L 104.942131 182.770888 
L 105.739808 195.799045 
L 106.138646 198.997895 
L 106.537485 187.45602 
L 106.936323 186.446378 
L 107.335162 181.713711 
L 107.734 201.085205 
L 108.132839 192.743625 
L 108.531677 196.72163 
L 108.930516 204.166554 
L 109.329354 191.288936 
L 109.728193 188.645434 
L 110.127031 203.617426 
L 110.52587 198.082105 
L 110.924709 199.721192 
L 111.323547 200.186372 
L 111.722386 205.642078 
L 112.121224 213.69762 
L 112.520063 194.240383 
L 112.918901 205.728514 
L 113.31774 209.626416 
L 113.716578 197.823354 
L 114.115417 195.794603 
L 114.514255 182.581172 
L 114.913094 198.521861 
L 115.311932 186.221601 
L 115.710771 203.113574 
L 116.109609 190.56668 
L 116.508448 191.993723 
L 116.907286 184.490348 
L 117.306125 199.294704 
L 117.704963 194.515876 
L 118.103802 193.089788 
L 118.50264 190.692763 
L 118.901479 202.85189 
L 119.300317 194.187816 
L 119.699156 195.383213 
L 120.097994 189.70079 
L 120.496833 205.608569 
L 120.895671 189.255053 
L 121.29451 206.436705 
L 121.693348 204.276325 
L 122.092187 199.822766 
L 122.491025 198.320154 
L 122.889864 205.451721 
L 123.288702 201.020741 
L 123.687541 195.326517 
L 124.086379 198.486476 
L 124.485218 183.879542 
L 124.884056 182.296851 
L 125.282895 194.231467 
L 125.681733 198.527523 
L 126.080572 180.399706 
L 126.47941 197.497499 
L 126.878249 186.453391 
L 127.277087 182.443046 
L 127.675926 181.658695 
L 128.074764 200.25366 
L 128.872441 181.792858 
L 129.27128 178.090745 
L 129.670118 191.271612 
L 130.068957 192.745593 
L 130.467795 182.972584 
L 130.866634 195.152294 
L 131.265472 197.650949 
L 131.664311 196.198913 
L 132.063149 167.933406 
L 132.461988 193.0997 
L 132.860826 175.9898 
L 133.259665 190.045781 
L 133.658503 189.691877 
L 134.057342 178.736921 
L 134.45618 200.601305 
L 134.855019 182.574513 
L 135.253857 173.504577 
L 135.652696 186.822412 
L 136.051535 176.902567 
L 136.450373 172.787124 
L 136.849212 185.088939 
L 137.24805 185.638485 
L 137.646889 196.727463 
L 138.045727 189.871422 
L 138.444566 187.178256 
L 138.843404 192.002826 
L 139.242243 180.012302 
L 139.641081 196.639318 
L 140.03992 200.323239 
L 140.438758 198.147951 
L 140.837597 199.025337 
L 141.236435 201.734516 
L 141.635274 205.223138 
L 142.034112 195.343009 
L 142.432951 192.206162 
L 142.831789 184.771281 
L 143.230628 194.712691 
L 143.629466 185.093695 
L 144.028305 199.344349 
L 144.427143 205.904016 
L 144.825982 194.680397 
L 145.22482 196.330166 
L 145.623659 204.749929 
L 146.022497 205.277925 
L 146.421336 195.541557 
L 146.820174 196.606112 
L 147.219013 187.388027 
L 147.617851 190.352478 
L 148.01669 190.427894 
L 148.415528 204.100577 
L 148.814367 202.250692 
L 149.213205 215.3657 
L 149.612044 198.129944 
L 150.010882 198.520579 
L 150.409721 201.176554 
L 150.808559 196.105426 
L 151.207398 200.378471 
L 151.606236 186.740286 
L 152.005075 201.082487 
L 152.403913 206.607519 
L 152.802752 190.421482 
L 153.600429 198.577281 
L 153.999267 196.966595 
L 154.398106 193.449959 
L 154.796944 215.941042 
L 155.195783 196.917503 
L 155.594621 200.052715 
L 155.99346 215.73416 
L 156.392298 208.686701 
L 156.791137 197.634855 
L 157.189975 207.184552 
L 157.588814 203.175415 
L 157.987652 205.723498 
L 158.386491 221.053573 
L 159.184168 209.872525 
L 159.583006 207.746676 
L 159.981845 198.548985 
L 160.380683 193.718988 
L 160.779522 206.115939 
L 161.178361 201.691012 
L 161.577199 193.721061 
L 161.976038 198.190864 
L 162.374876 207.492551 
L 162.773715 207.851312 
L 163.172553 193.931354 
L 163.97023 206.52777 
L 164.369069 208.704646 
L 164.767907 187.828327 
L 165.166746 177.005773 
L 165.964423 187.359342 
L 166.363261 187.877946 
L 167.160938 197.241702 
L 167.559777 185.098775 
L 167.958615 195.156644 
L 168.357454 182.460092 
L 168.756292 198.185062 
L 169.155131 176.977905 
L 169.553969 189.234508 
L 169.952808 185.26469 
L 170.351646 178.23967 
L 170.750485 187.250127 
L 171.149323 174.733257 
L 171.548162 172.598608 
L 171.947 185.098116 
L 172.345839 193.382606 
L 172.744677 192.008627 
L 173.542354 201.473039 
L 173.941193 197.243833 
L 174.340031 205.586993 
L 174.73887 203.837474 
L 175.137708 207.297072 
L 175.536547 199.054824 
L 175.935385 202.546641 
L 176.334224 208.952701 
L 176.733062 211.417052 
L 177.131901 208.824851 
L 177.530739 209.958026 
L 177.929578 203.898277 
L 178.328416 190.001463 
L 178.727255 207.060168 
L 179.126093 198.87127 
L 179.524932 198.741402 
L 179.92377 191.66219 
L 180.322609 205.135074 
L 180.721447 191.632003 
L 181.120286 185.156005 
L 181.519124 193.91079 
L 181.917963 198.999777 
L 182.316801 183.939566 
L 183.114478 196.042261 
L 183.513317 192.444578 
L 183.912155 184.352334 
L 184.310994 198.479232 
L 184.709832 203.552714 
L 185.108671 196.009096 
L 185.507509 191.117586 
L 185.906348 190.733445 
L 186.305187 201.206234 
L 186.704025 195.967563 
L 187.102864 207.558513 
L 187.501702 206.238723 
L 188.299379 192.657797 
L 188.698218 197.591886 
L 189.097056 176.265822 
L 189.495895 190.756114 
L 189.894733 181.001918 
L 190.293572 175.799044 
L 190.69241 189.937195 
L 191.091249 181.737284 
L 191.490087 193.797476 
L 191.888926 186.107199 
L 192.287764 183.964678 
L 192.686603 180.289594 
L 193.085441 193.243522 
L 193.48428 199.892042 
L 193.883118 188.193905 
L 194.281957 197.650757 
L 194.680795 196.671116 
L 195.079634 187.600866 
L 195.877311 202.397339 
L 196.276149 188.726616 
L 196.674988 184.021211 
L 197.073826 187.434092 
L 197.472665 195.248817 
L 197.871503 189.948755 
L 198.270342 188.041393 
L 198.66918 182.11658 
L 199.068019 190.428422 
L 199.466857 185.195318 
L 199.865696 192.426451 
L 200.264534 177.338905 
L 200.663373 202.312881 
L 201.062211 199.870409 
L 201.46105 195.297601 
L 202.258727 184.53714 
L 202.657565 197.471342 
L 203.056404 206.295949 
L 203.455242 185.644492 
L 203.854081 184.913531 
L 204.252919 194.269157 
L 204.651758 190.157216 
L 205.050596 196.616703 
L 205.449435 196.925027 
L 205.848273 174.997246 
L 206.247112 173.540819 
L 206.64595 192.317517 
L 207.044789 192.763702 
L 207.443627 188.951162 
L 207.842466 177.942535 
L 208.241304 187.342939 
L 208.640143 191.628006 
L 209.038981 188.216982 
L 209.43782 186.656211 
L 210.235497 203.017988 
L 210.634335 192.6087 
L 211.033174 193.19908 
L 211.432013 203.972905 
L 211.830851 203.368645 
L 212.22969 212.817783 
L 212.628528 203.986752 
L 213.027367 200.118483 
L 213.426205 190.621132 
L 213.825044 204.058226 
L 214.223882 188.006474 
L 214.622721 194.992952 
L 215.021559 194.374854 
L 215.420398 188.561756 
L 215.819236 186.113704 
L 216.218075 186.000368 
L 216.616913 190.613617 
L 217.015752 185.516613 
L 217.41459 189.424727 
L 217.813429 199.807557 
L 218.212267 194.537666 
L 218.611106 198.638236 
L 219.009944 193.552801 
L 219.807621 204.447843 
L 220.20646 196.358638 
L 220.605298 182.837579 
L 221.004137 190.316461 
L 221.402975 205.367294 
L 221.801814 201.414765 
L 222.200652 202.931828 
L 222.599491 211.495478 
L 222.998329 204.877167 
L 223.397168 186.593654 
L 223.796006 181.150112 
L 224.194845 199.177556 
L 224.593683 199.917516 
L 224.992522 183.093998 
L 225.39136 194.516881 
L 225.790199 188.973666 
L 226.189037 189.443371 
L 226.587876 185.295658 
L 226.986714 200.489626 
L 227.385553 186.688622 
L 227.784391 192.044975 
L 228.18323 191.042435 
L 228.582068 189.165981 
L 228.980907 201.719227 
L 229.379745 198.955948 
L 229.778584 204.636346 
L 230.177422 185.596968 
L 230.576261 183.05669 
L 230.975099 183.144715 
L 231.373938 197.472435 
L 231.772776 205.259884 
L 232.171615 194.992444 
L 232.570453 196.018427 
L 232.969292 191.299612 
L 233.36813 196.323344 
L 233.766969 193.966757 
L 234.165807 189.60649 
L 234.564646 194.33939 
L 234.963484 192.397254 
L 235.362323 205.804843 
L 235.761161 190.013873 
L 236.558839 208.203893 
L 236.957677 207.069082 
L 237.356516 206.58195 
L 237.755354 190.707242 
L 238.154193 205.626973 
L 238.553031 206.767342 
L 238.95187 202.664506 
L 239.350708 189.55261 
L 239.749547 201.69426 
L 240.148385 203.632676 
L 240.547224 198.321713 
L 240.946062 184.264894 
L 241.344901 202.488074 
L 241.743739 205.176329 
L 242.142578 193.599512 
L 242.541416 177.394513 
L 242.940255 198.862961 
L 243.737932 186.607034 
L 244.13677 197.519392 
L 244.535609 203.463803 
L 245.333286 187.237381 
L 245.732124 180.141716 
L 246.130963 184.196504 
L 246.529801 182.323563 
L 246.92864 182.310858 
L 247.327478 173.281543 
L 247.726317 180.306827 
L 248.125155 176.734563 
L 248.523994 189.520407 
L 248.922832 184.795166 
L 249.321671 183.560235 
L 249.720509 199.135548 
L 250.119348 198.442025 
L 250.518186 189.792609 
L 250.917025 202.014146 
L 251.315863 195.471675 
L 251.714702 181.238811 
L 252.11354 201.576142 
L 252.512379 176.720436 
L 252.911217 178.316739 
L 253.310056 184.59634 
L 253.708894 186.448589 
L 254.107733 185.122487 
L 254.90541 194.001198 
L 255.304248 192.34745 
L 255.703087 193.301085 
L 256.101925 187.794345 
L 256.500764 184.034956 
L 256.899602 187.895845 
L 257.298441 184.669773 
L 258.096118 196.128593 
L 258.494956 196.531343 
L 258.893795 198.271799 
L 259.292633 198.118768 
L 259.691472 189.19896 
L 260.09031 193.337596 
L 261.286826 179.694661 
L 261.685665 202.11667 
L 262.084503 211.22744 
L 262.483342 196.537608 
L 262.88218 200.322604 
L 263.281019 205.591871 
L 263.679857 205.917342 
L 264.078696 206.976305 
L 264.477534 202.950298 
L 264.876373 200.418572 
L 265.275211 192.004053 
L 265.67405 205.905742 
L 266.072888 190.414536 
L 266.471727 189.593893 
L 266.870565 195.801533 
L 267.269404 192.968382 
L 267.668242 184.534712 
L 268.067081 192.605656 
L 268.465919 197.711361 
L 268.864758 180.193843 
L 269.263596 179.40046 
L 270.061273 189.218974 
L 270.460112 188.827782 
L 270.85895 184.00055 
L 271.257789 172.309519 
L 272.055466 192.022025 
L 272.454304 189.207346 
L 272.853143 189.317896 
L 273.251981 178.221517 
L 273.65082 185.669718 
L 274.049658 190.962724 
L 274.448497 191.626933 
L 274.847335 194.844895 
L 275.246174 205.972994 
L 276.043851 200.214515 
L 276.442689 191.788884 
L 276.841528 190.591195 
L 277.639205 210.513369 
L 278.038043 202.990548 
L 278.436882 201.716808 
L 278.83572 202.301038 
L 279.234559 209.655463 
L 280.032236 193.099883 
L 280.431074 208.678358 
L 280.829913 204.798442 
L 281.228751 185.355823 
L 281.62759 193.124235 
L 282.425267 210.591149 
L 282.824105 201.290328 
L 283.222944 202.922444 
L 283.621782 201.448929 
L 284.020621 196.807166 
L 284.419459 202.008258 
L 284.818298 192.885367 
L 285.217136 199.720238 
L 285.615975 191.872718 
L 286.014813 208.559436 
L 286.413652 202.581894 
L 286.812491 171.151408 
L 287.211329 177.470614 
L 287.610168 179.232896 
L 288.407845 166.986502 
L 288.806683 185.887524 
L 289.205522 172.063646 
L 289.60436 169.994248 
L 290.003199 180.789607 
L 290.402037 186.927363 
L 290.800876 189.335668 
L 291.199714 181.039553 
L 291.598553 193.662445 
L 291.997391 181.567614 
L 292.39623 194.3377 
L 293.592745 182.445827 
L 293.991584 189.394421 
L 294.390422 175.700146 
L 294.789261 190.863722 
L 295.188099 183.119153 
L 295.586938 202.16179 
L 295.985776 202.258679 
L 296.384615 188.131495 
L 296.783453 195.352534 
L 297.182292 205.917425 
L 297.58113 181.45252 
L 297.979969 190.221956 
L 298.378807 193.841867 
L 298.777646 199.735448 
L 299.176484 181.121911 
L 299.575323 181.313378 
L 299.974161 197.940919 
L 300.373 193.909074 
L 300.771838 188.71565 
L 301.170677 190.986954 
L 301.569515 189.432036 
L 301.968354 189.990516 
L 302.367192 190.282801 
L 302.766031 204.573561 
L 303.164869 207.882181 
L 303.563708 197.887144 
L 303.962546 207.350448 
L 304.361385 208.534642 
L 304.760223 191.320097 
L 305.5579 182.900091 
L 305.956739 189.507622 
L 306.355577 182.259305 
L 306.754416 195.058292 
L 307.153254 194.440936 
L 307.552093 202.804067 
L 307.950931 203.204197 
L 308.34977 208.702811 
L 308.748608 217.21015 
L 309.147447 207.181832 
L 309.546285 206.295386 
L 309.945124 201.312573 
L 310.343962 212.214702 
L 310.742801 198.348708 
L 311.141639 190.88035 
L 311.540478 204.931579 
L 311.939317 196.04968 
L 312.338155 205.752695 
L 312.736994 194.072271 
L 313.135832 194.330264 
L 313.534671 197.002313 
L 313.933509 201.921111 
L 314.332348 202.499889 
L 314.731186 190.747938 
L 315.130025 189.515738 
L 315.528863 186.655374 
L 315.927702 191.573999 
L 316.32654 194.437978 
L 316.725379 198.832462 
L 317.124217 178.211979 
L 317.523056 191.456834 
L 317.921894 197.256695 
L 318.320733 181.954632 
L 318.719571 172.25341 
L 319.11841 185.526676 
L 319.517248 190.6415 
L 319.916087 201.235021 
L 320.314925 194.017895 
L 320.713764 193.383204 
L 321.112602 194.106142 
L 321.511441 206.53995 
L 322.707956 184.649777 
L 323.505633 199.354198 
L 323.904472 187.107686 
L 324.30331 192.45977 
L 324.702149 195.234536 
L 325.100987 193.076815 
L 325.898664 181.608048 
L 326.297503 190.498688 
L 326.696341 188.756384 
L 327.09518 207.022511 
L 327.494018 184.964041 
L 327.892857 189.076918 
L 328.291695 179.086661 
L 328.690534 181.890918 
L 329.089372 192.384831 
L 329.488211 193.166756 
L 329.887049 191.098543 
L 330.285888 187.928695 
L 330.684726 182.03465 
L 331.083565 181.425411 
L 331.482403 187.643479 
L 331.881242 201.580774 
L 332.28008 193.113267 
L 332.678919 178.890217 
L 333.077757 200.432805 
L 333.476596 203.203085 
L 333.875434 189.134519 
L 334.274273 201.49091 
L 334.673111 191.021375 
L 335.07195 195.97169 
L 335.869627 187.093077 
L 336.268465 202.273631 
L 336.667304 190.605383 
L 337.066143 199.30184 
L 337.464981 198.005536 
L 337.86382 193.94237 
L 338.262658 196.842002 
L 338.661497 189.620285 
L 339.060335 194.142263 
L 339.459174 191.30063 
L 339.858012 200.112215 
L 340.256851 191.685566 
L 340.655689 195.333296 
L 341.852205 182.784735 
L 342.251043 179.720165 
L 342.649882 179.200271 
L 343.04872 178.914603 
L 343.447559 175.182426 
L 343.846397 174.890615 
L 344.245236 170.588927 
L 344.644074 192.736951 
L 345.042913 180.859403 
L 345.441751 180.7199 
L 345.84059 180.177472 
L 346.239428 188.428399 
L 346.638267 185.778256 
L 347.037105 180.581568 
L 347.435944 184.296131 
L 347.834782 193.692593 
L 348.233621 184.001509 
L 348.632459 191.816131 
L 349.031298 187.744283 
L 349.430136 186.276223 
L 349.828975 192.202285 
L 350.227813 195.557702 
L 350.626652 196.711551 
L 351.02549 186.080427 
L 351.424329 192.017048 
L 351.823167 175.417937 
L 352.222006 191.00818 
L 352.620844 189.867811 
L 353.019683 176.122634 
L 353.418521 186.934932 
L 353.81736 190.202189 
L 354.216198 196.696088 
L 354.615037 191.436097 
L 355.013875 177.249976 
L 355.412714 187.395602 
L 355.811552 189.789656 
L 356.210391 188.499643 
L 356.609229 189.453671 
L 357.008068 181.229267 
L 357.406906 179.031731 
L 357.805745 181.51373 
L 358.204583 191.269645 
L 358.603422 182.588571 
L 359.00226 183.954716 
L 359.401099 179.709906 
L 359.799937 196.634669 
L 360.597614 206.781259 
L 360.996453 186.731447 
L 361.395291 181.538814 
L 361.79413 188.927044 
L 362.192969 182.201894 
L 362.591807 181.077839 
L 362.990646 183.251011 
L 363.389484 188.334163 
L 363.788323 185.810156 
L 364.187161 178.366712 
L 364.586 179.679469 
L 364.984838 177.827124 
L 365.383677 192.228982 
L 365.782515 180.925751 
L 366.181354 191.891255 
L 366.580192 196.22972 
L 366.979031 190.244859 
L 367.377869 182.454362 
L 367.776708 191.147606 
L 368.175546 171.578904 
L 368.574385 177.44176 
L 368.973223 190.745601 
L 369.372062 182.079114 
L 369.7709 190.096551 
L 370.169739 185.846604 
L 370.568577 182.798551 
L 370.967416 182.944208 
L 371.366254 181.468609 
L 371.765093 200.768348 
L 372.163931 206.479612 
L 372.56277 181.906549 
L 372.961608 182.156787 
L 373.360447 190.815228 
L 373.759285 196.344378 
L 374.158124 186.866069 
L 374.556962 207.859374 
L 374.955801 183.970411 
L 375.354639 189.708841 
L 375.753478 201.765098 
L 376.152316 195.023795 
L 376.551155 200.724301 
L 376.949993 200.686769 
L 377.348832 181.494527 
L 377.74767 194.976649 
L 378.146509 194.551263 
L 378.545347 202.803314 
L 378.944186 191.735154 
L 379.343024 200.176576 
L 379.741863 195.906836 
L 380.53954 202.958428 
L 380.938378 180.415639 
L 381.337217 204.290941 
L 381.736055 200.945077 
L 382.134894 200.571859 
L 382.533732 180.612379 
L 382.932571 187.212691 
L 383.331409 203.360886 
L 383.730248 200.981557 
L 384.129086 197.336114 
L 384.527925 198.608263 
L 384.926763 191.571038 
L 385.325602 189.592192 
L 385.72444 176.545421 
L 386.123279 198.579796 
L 386.522117 185.638341 
L 386.920956 204.618181 
L 387.319795 204.276641 
L 387.718633 195.294356 
L 388.117472 197.648611 
L 388.51631 183.77429 
L 388.915149 196.345991 
L 389.313987 197.420324 
L 389.712826 197.233227 
L 390.111664 192.922967 
L 390.510503 203.795178 
L 390.909341 191.2939 
L 391.30818 206.518991 
L 391.707018 198.578942 
L 392.105857 193.819859 
L 392.504695 192.965271 
L 392.903534 192.882944 
L 393.302372 196.471769 
L 393.701211 203.330376 
L 394.100049 197.578983 
L 394.498888 206.405989 
L 394.897726 198.986631 
L 395.296565 212.460019 
L 395.695403 195.436817 
L 396.094242 187.639444 
L 396.891919 203.819009 
L 397.290757 193.747715 
L 397.689596 203.11358 
L 398.088434 206.54711 
L 398.487273 205.678303 
L 398.487273 205.678303 
" style="fill:none;stroke:#0000ff;stroke-linecap:square;stroke-width:1.5;"/>
   </g>
   <g id="line2d_22">
    <path clip-path="url(#p80442346ff)" d="M 73.832727 263.216966 
L 74.630404 227.235978 
L 75.029243 223.662944 
L 75.428081 211.580022 
L 75.82692 215.219629 
L 76.225758 200.268256 
L 76.624597 197.131228 
L 77.023435 172.118762 
L 77.821112 180.387321 
L 78.219951 190.769198 
L 78.618789 160.501837 
L 79.017628 157.824224 
L 79.416466 159.65521 
L 79.815305 168.638311 
L 80.214143 151.272015 
L 80.612982 161.903414 
L 81.01182 186.211737 
L 81.410659 165.635767 
L 81.809497 159.495751 
L 82.208336 141.749712 
L 82.607174 168.904753 
L 83.006013 159.523207 
L 83.404851 169.221201 
L 83.80369 150.610093 
L 84.202528 138.413097 
L 84.601367 144.036402 
L 85.000205 140.682374 
L 85.399044 153.98433 
L 85.797883 136.126794 
L 86.196721 137.691274 
L 86.59556 122.562131 
L 86.994398 137.320238 
L 87.393237 143.504248 
L 87.792075 156.509938 
L 88.190914 178.923358 
L 88.589752 149.992272 
L 88.988591 146.002286 
L 89.387429 136.206116 
L 89.786268 156.193876 
L 90.185106 155.174494 
L 90.583945 129.569661 
L 90.982783 114.849204 
L 91.381622 119.992283 
L 91.78046 145.037898 
L 92.179299 142.288834 
L 92.578137 112.181629 
L 93.375814 138.427462 
L 93.774653 142.205291 
L 94.173491 114.238596 
L 94.57233 143.736518 
L 94.971168 138.608905 
L 95.370007 115.267467 
L 95.768845 144.701991 
L 96.167684 125.069429 
L 96.566522 123.911194 
L 96.965361 130.087423 
L 97.364199 119.499434 
L 97.763038 127.433408 
L 98.161876 126.889695 
L 98.560715 128.003808 
L 98.959553 125.335037 
L 99.358392 94.707131 
L 99.75723 126.230067 
L 100.156069 121.307246 
L 100.554907 90.350449 
L 100.953746 137.314092 
L 101.352584 129.298602 
L 101.751423 126.775925 
L 102.150261 150.511656 
L 102.5491 124.800411 
L 102.947938 118.885625 
L 103.346777 153.022796 
L 103.745615 153.735548 
L 104.144454 136.383636 
L 104.543292 138.463789 
L 104.942131 97.470428 
L 105.340969 104.381392 
L 105.739808 115.724992 
L 106.138646 114.041172 
L 106.537485 130.448796 
L 106.936323 128.587066 
L 107.335162 120.880361 
L 107.734 150.198809 
L 108.132839 127.558823 
L 108.531677 140.918842 
L 108.930516 127.340924 
L 109.329354 103.35982 
L 109.728193 125.279478 
L 110.52587 144.525437 
L 110.924709 145.87045 
L 111.323547 125.759945 
L 111.722386 136.605657 
L 112.121224 156.324469 
L 112.520063 133.303827 
L 112.918901 145.986796 
L 113.31774 139.998207 
L 113.716578 124.299402 
L 114.115417 139.351834 
L 114.514255 110.946989 
L 114.913094 109.141266 
L 115.311932 108.390336 
L 115.710771 132.679358 
L 116.109609 115.284438 
L 116.508448 117.002323 
L 116.907286 108.361578 
L 117.306125 137.582706 
L 117.704963 129.22139 
L 118.103802 125.595904 
L 118.901479 135.386245 
L 119.300317 136.56513 
L 119.699156 133.642071 
L 120.097994 135.362006 
L 120.496833 145.651753 
L 120.895671 127.569938 
L 121.29451 151.64756 
L 122.092187 120.756341 
L 122.491025 109.459751 
L 122.889864 137.27127 
L 123.288702 133.074035 
L 123.687541 134.078426 
L 124.086379 139.563619 
L 124.485218 102.093682 
L 124.884056 115.515462 
L 125.282895 133.885089 
L 125.681733 140.764032 
L 126.080572 102.644451 
L 126.47941 133.113782 
L 126.878249 73.770926 
L 127.277087 112.100977 
L 127.675926 109.216215 
L 128.074764 128.381296 
L 128.473603 129.386369 
L 128.872441 114.271839 
L 129.27128 85.292879 
L 129.670118 114.296498 
L 130.068957 99.493049 
L 130.467795 102.453656 
L 130.866634 110.560737 
L 131.265472 114.210575 
L 131.664311 123.397946 
L 132.063149 85.801371 
L 132.461988 92.893004 
L 132.860826 93.54535 
L 133.259665 114.097796 
L 133.658503 102.439501 
L 134.057342 112.163062 
L 134.45618 125.13431 
L 134.855019 108.905005 
L 135.253857 110.446253 
L 135.652696 95.657124 
L 136.051535 76.103195 
L 136.450373 77.689438 
L 136.849212 99.647901 
L 137.24805 83.686117 
L 138.045727 103.138741 
L 138.444566 104.97442 
L 138.843404 117.525589 
L 139.242243 108.113863 
L 139.641081 83.133124 
L 140.03992 113.06563 
L 140.438758 126.747366 
L 140.837597 132.781901 
L 141.236435 134.843265 
L 141.635274 133.312358 
L 142.432951 93.033629 
L 142.831789 97.162156 
L 143.230628 103.056621 
L 143.629466 77.27603 
L 144.427143 140.477609 
L 144.825982 123.05977 
L 145.22482 128.267793 
L 145.623659 137.654851 
L 146.022497 140.970548 
L 146.421336 110.830088 
L 146.820174 119.138679 
L 147.219013 94.312297 
L 147.617851 100.668683 
L 148.01669 126.400498 
L 148.415528 117.61887 
L 148.814367 134.923561 
L 149.213205 137.078311 
L 149.612044 120.812651 
L 150.010882 119.918983 
L 150.409721 136.169726 
L 150.808559 95.094998 
L 151.207398 125.733213 
L 151.606236 106.824854 
L 152.403913 142.176583 
L 152.802752 113.272499 
L 153.600429 139.7494 
L 153.999267 146.316375 
L 154.398106 114.154904 
L 154.796944 149.115942 
L 155.195783 139.965509 
L 155.594621 122.91095 
L 155.99346 137.41672 
L 156.392298 118.646099 
L 156.791137 125.170358 
L 157.189975 112.301283 
L 157.588814 106.679792 
L 157.987652 138.853618 
L 158.386491 146.723958 
L 158.785329 141.15271 
L 159.184168 141.24387 
L 159.583006 117.339422 
L 159.981845 129.910693 
L 160.380683 128.61692 
L 160.779522 155.245761 
L 161.178361 144.108297 
L 161.577199 107.698868 
L 161.976038 126.026438 
L 162.374876 133.570415 
L 162.773715 138.524005 
L 163.172553 110.846458 
L 163.571392 102.682554 
L 163.97023 131.201942 
L 164.369069 141.100464 
L 164.767907 103.263176 
L 165.166746 88.043458 
L 165.565584 101.501132 
L 165.964423 104.102528 
L 167.160938 117.869142 
L 167.559777 71.453526 
L 167.958615 128.512822 
L 168.756292 78.875186 
L 169.155131 91.881116 
L 169.553969 111.213975 
L 169.952808 92.345667 
L 170.351646 90.384828 
L 170.750485 101.498241 
L 171.149323 78.256218 
L 171.548162 79.597056 
L 171.947 108.476287 
L 172.345839 109.212937 
L 172.744677 129.51526 
L 173.542354 107.308055 
L 173.941193 108.865603 
L 174.340031 133.740135 
L 174.73887 104.345524 
L 175.137708 136.1074 
L 175.536547 113.769044 
L 175.935385 118.222865 
L 176.334224 140.641087 
L 176.733062 136.561512 
L 177.131901 115.164255 
L 177.929578 138.645315 
L 178.328416 112.811783 
L 178.727255 140.146065 
L 179.126093 130.857102 
L 179.524932 141.551966 
L 179.92377 105.560819 
L 180.322609 113.119498 
L 181.120286 115.942376 
L 181.519124 96.678769 
L 181.917963 126.084969 
L 182.316801 103.771348 
L 182.71564 97.202916 
L 183.114478 124.534432 
L 183.513317 129.734676 
L 183.912155 111.242705 
L 184.310994 129.485577 
L 184.709832 122.77428 
L 185.108671 138.666559 
L 185.507509 98.235339 
L 185.906348 131.886434 
L 186.305187 132.256504 
L 186.704025 129.081656 
L 187.102864 131.620967 
L 187.501702 144.330145 
L 187.900541 139.066674 
L 188.299379 124.26344 
L 189.097056 104.550471 
L 189.495895 113.887366 
L 189.894733 112.250007 
L 190.69241 126.930083 
L 191.091249 102.751648 
L 191.490087 130.23388 
L 191.888926 125.895688 
L 192.287764 115.507648 
L 192.686603 114.029296 
L 193.085441 117.113308 
L 193.48428 138.56003 
L 193.883118 125.937673 
L 194.281957 102.207471 
L 194.680795 126.509162 
L 195.079634 115.323285 
L 195.478472 112.705345 
L 195.877311 134.267857 
L 196.276149 97.633359 
L 196.674988 92.858502 
L 197.073826 117.26944 
L 197.472665 98.103479 
L 197.871503 112.463328 
L 198.270342 92.799153 
L 198.66918 107.576774 
L 199.068019 114.610518 
L 199.466857 124.661361 
L 199.865696 103.708364 
L 200.264534 109.336176 
L 200.663373 124.024635 
L 201.062211 131.08674 
L 201.46105 140.45483 
L 201.859888 112.985116 
L 202.258727 98.206455 
L 202.657565 139.258716 
L 203.056404 136.748565 
L 203.455242 108.187379 
L 203.854081 107.793643 
L 204.252919 97.075373 
L 204.651758 105.257255 
L 205.050596 108.995582 
L 205.449435 120.325109 
L 205.848273 91.037668 
L 206.247112 102.113906 
L 206.64595 86.0314 
L 207.044789 126.463272 
L 207.443627 104.400544 
L 207.842466 97.392766 
L 208.241304 113.585469 
L 208.640143 121.222986 
L 209.038981 98.731557 
L 209.43782 98.392265 
L 209.836658 114.699002 
L 210.235497 146.26274 
L 210.634335 121.976952 
L 211.033174 121.14201 
L 211.432013 115.796253 
L 211.830851 140.064124 
L 212.22969 136.00204 
L 212.628528 138.912194 
L 213.027367 132.201832 
L 213.426205 105.699111 
L 213.825044 127.926166 
L 214.223882 82.974116 
L 214.622721 127.04085 
L 215.021559 96.190861 
L 215.420398 83.466664 
L 215.819236 114.323424 
L 216.218075 103.161798 
L 217.015752 114.739972 
L 217.813429 103.039233 
L 218.611106 129.488925 
L 219.009944 123.13093 
L 219.807621 148.765409 
L 220.20646 113.949536 
L 220.605298 102.781901 
L 221.004137 114.248895 
L 221.402975 86.264006 
L 221.801814 115.753501 
L 222.200652 123.076363 
L 222.599491 138.520927 
L 222.998329 132.697366 
L 223.397168 104.027001 
L 223.796006 98.348768 
L 224.194845 140.584532 
L 224.593683 114.272908 
L 224.992522 105.329609 
L 225.39136 117.69961 
L 225.790199 105.331355 
L 226.189037 99.71264 
L 226.587876 87.980536 
L 226.986714 122.136308 
L 227.385553 115.685896 
L 227.784391 121.471987 
L 228.18323 110.816699 
L 228.582068 96.871228 
L 229.379745 130.170481 
L 229.778584 120.934928 
L 230.177422 120.96499 
L 230.576261 101.955838 
L 231.373938 128.145252 
L 231.772776 135.012488 
L 232.171615 92.855129 
L 232.570453 108.932809 
L 232.969292 119.034815 
L 233.36813 108.396761 
L 233.766969 125.764754 
L 234.165807 117.3245 
L 234.564646 114.256957 
L 234.963484 118.923055 
L 235.362323 132.932292 
L 235.761161 106.912802 
L 236.16 109.971035 
L 236.558839 150.454327 
L 236.957677 110.969911 
L 237.356516 146.507683 
L 237.755354 135.136916 
L 238.154193 134.508782 
L 238.553031 148.909209 
L 238.95187 120.295091 
L 239.350708 117.102363 
L 239.749547 128.608354 
L 240.148385 135.707857 
L 240.547224 115.95961 
L 240.946062 107.429604 
L 241.344901 153.165722 
L 241.743739 112.27067 
L 242.142578 117.193686 
L 242.541416 101.310511 
L 242.940255 132.4773 
L 243.339093 119.490247 
L 243.737932 118.22773 
L 244.13677 134.542674 
L 244.934447 146.419678 
L 245.732124 97.925076 
L 246.130963 95.052889 
L 246.529801 102.202683 
L 246.92864 116.933831 
L 247.327478 97.58365 
L 247.726317 115.379989 
L 248.125155 103.698432 
L 248.523994 129.304313 
L 248.922832 109.883647 
L 249.321671 79.03755 
L 250.119348 141.404212 
L 250.518186 134.115558 
L 250.917025 148.118817 
L 251.315863 114.460025 
L 251.714702 61.323142 
L 252.11354 144.755314 
L 252.512379 90.396739 
L 252.911217 68.654235 
L 253.310056 118.086262 
L 253.708894 110.627964 
L 254.107733 119.505655 
L 254.506571 124.247587 
L 254.90541 106.204397 
L 255.304248 105.348166 
L 255.703087 132.019536 
L 256.101925 123.065142 
L 256.500764 117.756411 
L 256.899602 83.689493 
L 257.298441 107.606314 
L 257.697279 112.133686 
L 258.096118 120.447964 
L 258.494956 122.078533 
L 258.893795 126.659773 
L 259.292633 123.53663 
L 259.691472 128.352552 
L 260.09031 119.49732 
L 260.489149 89.317627 
L 260.887987 110.404596 
L 261.286826 105.970942 
L 261.685665 122.057777 
L 262.084503 160.948576 
L 262.483342 136.641173 
L 262.88218 139.613678 
L 263.281019 157.483572 
L 263.679857 141.864927 
L 264.078696 150.875502 
L 264.477534 148.336086 
L 264.876373 146.720108 
L 265.275211 126.497435 
L 265.67405 135.621144 
L 266.072888 135.507432 
L 266.471727 144.190446 
L 266.870565 107.12705 
L 267.269404 113.950606 
L 267.668242 88.467877 
L 268.067081 115.376799 
L 268.465919 132.328164 
L 268.864758 88.942211 
L 269.263596 107.527104 
L 269.662435 109.037622 
L 270.061273 84.348174 
L 270.460112 100.825205 
L 270.85895 111.259744 
L 271.257789 94.976984 
L 271.656627 109.926539 
L 272.055466 138.503295 
L 272.454304 109.070264 
L 272.853143 117.141546 
L 273.251981 97.822585 
L 273.65082 117.379908 
L 274.049658 120.060573 
L 274.448497 116.827129 
L 274.847335 92.876651 
L 275.246174 111.967306 
L 275.645012 138.408121 
L 276.043851 132.649184 
L 276.442689 129.204702 
L 276.841528 132.683436 
L 277.240366 125.54902 
L 277.639205 129.881895 
L 278.038043 130.896392 
L 278.83572 104.434017 
L 279.234559 148.574835 
L 279.633397 145.288641 
L 280.032236 123.857395 
L 280.431074 127.22023 
L 280.829913 127.670029 
L 281.228751 104.008345 
L 281.62759 110.815576 
L 282.026428 114.118216 
L 282.425267 119.248351 
L 282.824105 100.931717 
L 283.222944 115.674016 
L 283.621782 104.333048 
L 284.020621 105.336342 
L 284.419459 120.222944 
L 284.818298 98.390075 
L 285.217136 107.361821 
L 285.615975 106.69327 
L 286.014813 111.209586 
L 286.413652 111.165971 
L 286.812491 53.568 
L 287.211329 96.306058 
L 287.610168 90.558092 
L 288.009006 93.350015 
L 288.407845 77.387835 
L 288.806683 114.234156 
L 289.205522 87.78623 
L 289.60436 70.937616 
L 290.003199 104.390657 
L 290.402037 118.496438 
L 290.800876 112.344108 
L 291.199714 101.669674 
L 291.598553 115.723439 
L 291.997391 77.93627 
L 292.39623 125.640753 
L 292.795068 111.031292 
L 293.193907 101.446714 
L 293.592745 103.493393 
L 293.991584 104.946573 
L 294.390422 93.816693 
L 294.789261 112.581616 
L 295.188099 114.364326 
L 295.586938 137.012203 
L 295.985776 136.264369 
L 296.384615 110.774365 
L 296.783453 119.818246 
L 297.182292 102.392797 
L 297.58113 109.713343 
L 297.979969 99.274075 
L 298.378807 116.981208 
L 298.777646 121.764744 
L 299.176484 99.718044 
L 299.575323 89.777156 
L 299.974161 114.719853 
L 300.373 106.343186 
L 300.771838 106.352129 
L 301.170677 108.661691 
L 301.569515 115.975359 
L 301.968354 93.819697 
L 302.367192 106.796776 
L 302.766031 139.778714 
L 303.164869 141.249617 
L 303.563708 121.359835 
L 303.962546 153.990182 
L 304.361385 135.807711 
L 304.760223 102.675367 
L 305.159062 109.606477 
L 305.5579 97.695313 
L 305.956739 108.357127 
L 306.355577 108.894056 
L 306.754416 118.872936 
L 307.153254 119.759451 
L 307.552093 122.296677 
L 307.950931 143.729866 
L 308.34977 115.397232 
L 308.748608 133.30286 
L 309.147447 124.866199 
L 309.546285 119.039157 
L 309.945124 109.107897 
L 310.343962 150.233348 
L 311.141639 107.748757 
L 311.540478 111.076958 
L 311.939317 110.430526 
L 312.338155 124.052075 
L 312.736994 97.418055 
L 313.135832 100.975749 
L 313.534671 116.817997 
L 314.332348 134.336786 
L 315.130025 110.913669 
L 315.528863 132.547201 
L 315.927702 125.590637 
L 316.32654 113.701816 
L 316.725379 134.186688 
L 317.124217 96.977886 
L 317.523056 124.101934 
L 317.921894 132.02866 
L 318.320733 96.017654 
L 318.719571 81.755523 
L 319.11841 74.816052 
L 319.517248 133.717661 
L 319.916087 122.793654 
L 320.314925 127.429372 
L 320.713764 112.143086 
L 321.112602 109.263017 
L 321.511441 140.928738 
L 321.910279 140.699357 
L 322.309118 120.309434 
L 322.707956 114.343871 
L 323.106795 135.786218 
L 323.505633 120.682942 
L 323.904472 115.151518 
L 324.30331 107.567479 
L 324.702149 128.556116 
L 325.100987 119.810193 
L 325.499826 95.060108 
L 325.898664 94.933025 
L 326.297503 114.414952 
L 326.696341 88.773214 
L 327.09518 128.060521 
L 327.494018 115.907017 
L 327.892857 131.358259 
L 328.291695 112.455343 
L 328.690534 111.887425 
L 329.089372 128.06877 
L 329.488211 104.9614 
L 329.887049 127.871044 
L 330.285888 102.956456 
L 330.684726 99.522454 
L 331.083565 84.584514 
L 331.881242 136.371945 
L 332.28008 131.729588 
L 332.678919 98.221464 
L 333.077757 138.275142 
L 333.476596 141.432118 
L 333.875434 110.042157 
L 335.07195 130.767644 
L 335.470788 83.792845 
L 335.869627 120.454002 
L 336.268465 126.108542 
L 336.667304 101.991214 
L 337.066143 123.56944 
L 337.464981 120.246365 
L 337.86382 126.221941 
L 338.262658 127.547568 
L 339.060335 121.049171 
L 339.459174 119.73346 
L 339.858012 142.228286 
L 340.256851 111.328954 
L 340.655689 111.083877 
L 341.054528 134.952408 
L 341.453366 112.875928 
L 341.852205 103.264806 
L 342.251043 106.500231 
L 342.649882 92.650059 
L 343.04872 109.18795 
L 343.447559 67.890792 
L 343.846397 90.140483 
L 344.245236 57.874239 
L 344.644074 126.492361 
L 345.042913 105.820931 
L 345.441751 104.960834 
L 345.84059 114.595674 
L 346.239428 128.763823 
L 346.638267 85.506006 
L 347.037105 115.152263 
L 347.435944 120.547971 
L 347.834782 114.08785 
L 348.233621 104.993132 
L 348.632459 131.369306 
L 349.031298 104.197184 
L 349.430136 66.431955 
L 349.828975 117.907565 
L 350.227813 125.732212 
L 350.626652 102.343883 
L 351.02549 129.695511 
L 351.424329 99.409652 
L 351.823167 85.566002 
L 352.222006 108.083077 
L 352.620844 107.762637 
L 353.019683 65.252903 
L 353.418521 56.573583 
L 354.216198 137.262476 
L 354.615037 104.076371 
L 355.013875 115.200551 
L 355.412714 86.889635 
L 355.811552 133.490745 
L 356.210391 102.710819 
L 357.008068 113.473999 
L 357.406906 128.38729 
L 357.805745 119.250319 
L 358.204583 130.272866 
L 358.603422 114.679341 
L 359.00226 116.702758 
L 359.401099 116.615702 
L 359.799937 141.210648 
L 360.198776 148.540197 
L 360.597614 145.736971 
L 361.395291 94.329632 
L 361.79413 124.855327 
L 362.591807 88.735759 
L 362.990646 107.647145 
L 363.389484 108.639025 
L 363.788323 98.068924 
L 364.187161 94.840111 
L 364.586 73.9053 
L 364.984838 96.263368 
L 365.383677 126.584927 
L 365.782515 98.452623 
L 366.181354 92.207108 
L 366.580192 117.73047 
L 366.979031 100.932119 
L 367.377869 111.824596 
L 367.776708 109.66883 
L 368.175546 93.596093 
L 368.574385 97.871631 
L 368.973223 108.724791 
L 369.372062 95.007003 
L 369.7709 121.69317 
L 370.169739 70.93808 
L 370.568577 109.807991 
L 370.967416 93.435797 
L 371.366254 103.803489 
L 371.765093 147.013623 
L 372.163931 134.861859 
L 372.56277 96.73766 
L 372.961608 91.792817 
L 373.360447 123.776057 
L 373.759285 119.364252 
L 374.158124 119.121637 
L 374.556962 131.37892 
L 374.955801 122.82688 
L 375.354639 105.419337 
L 375.753478 130.41684 
L 376.551155 125.047023 
L 376.949993 112.872736 
L 377.348832 94.521667 
L 377.74767 119.414405 
L 378.146509 130.198926 
L 378.545347 146.732335 
L 378.944186 119.707067 
L 379.343024 110.183912 
L 379.741863 122.706606 
L 380.140701 122.488 
L 380.53954 124.632384 
L 380.938378 82.559556 
L 381.337217 133.784801 
L 381.736055 139.66915 
L 382.134894 123.425698 
L 382.533732 85.830833 
L 383.331409 137.02484 
L 384.129086 126.412765 
L 384.527925 115.0444 
L 384.926763 85.038651 
L 385.325602 127.749488 
L 385.72444 94.26919 
L 386.123279 121.368306 
L 386.522117 114.843024 
L 386.920956 102.992997 
L 387.319795 133.65418 
L 387.718633 91.0577 
L 388.117472 114.546354 
L 388.51631 67.012016 
L 388.915149 127.101906 
L 389.313987 116.823816 
L 389.712826 115.411581 
L 390.111664 110.751405 
L 390.510503 131.830118 
L 390.909341 135.986905 
L 391.707018 108.202056 
L 392.105857 126.268018 
L 392.504695 125.544978 
L 392.903534 134.610657 
L 393.302372 125.477932 
L 393.701211 109.157359 
L 394.100049 131.979279 
L 394.498888 141.863769 
L 394.897726 128.17875 
L 395.296565 136.061059 
L 395.695403 127.412691 
L 396.094242 82.677305 
L 396.891919 140.838902 
L 397.290757 130.084109 
L 397.689596 149.184321 
L 398.088434 149.216405 
L 398.487273 134.558452 
L 398.487273 134.558452 
" style="fill:none;stroke:#ff0000;stroke-linecap:square;stroke-width:1.5;"/>
   </g>
   <g id="patch_3">
    <path d="M 57.6 307.584 
L 57.6 41.472 
" style="fill:none;stroke:#000000;stroke-linecap:square;stroke-linejoin:miter;stroke-width:0.8;"/>
   </g>
   <g id="patch_4">
    <path d="M 414.72 307.584 
L 414.72 41.472 
" style="fill:none;stroke:#000000;stroke-linecap:square;stroke-linejoin:miter;stroke-width:0.8;"/>
   </g>
   <g id="patch_5">
    <path d="M 57.6 307.584 
L 414.72 307.584 
" style="fill:none;stroke:#000000;stroke-linecap:square;stroke-linejoin:miter;stroke-width:0.8;"/>
   </g>
   <g id="patch_6">
    <path d="M 57.6 41.472 
L 414.72 41.472 
" style="fill:none;stroke:#000000;stroke-linecap:square;stroke-linejoin:miter;stroke-width:0.8;"/>
   </g>
   <g id="text_13">
    <!-- Population's average and best fitness -->
    <g transform="translate(123.529687 35.472)scale(0.12 -0.12)">
     <defs>
      <path d="M 19.671875 64.796875 
L 19.671875 37.40625 
L 32.078125 37.40625 
Q 38.96875 37.40625 42.71875 40.96875 
Q 46.484375 44.53125 46.484375 51.125 
Q 46.484375 57.671875 42.71875 61.234375 
Q 38.96875 64.796875 32.078125 64.796875 
z
M 9.8125 72.90625 
L 32.078125 72.90625 
Q 44.34375 72.90625 50.609375 67.359375 
Q 56.890625 61.8125 56.890625 51.125 
Q 56.890625 40.328125 50.609375 34.8125 
Q 44.34375 29.296875 32.078125 29.296875 
L 19.671875 29.296875 
L 19.671875 0 
L 9.8125 0 
z
" id="DejaVuSans-80"/>
      <path d="M 18.109375 8.203125 
L 18.109375 -20.796875 
L 9.078125 -20.796875 
L 9.078125 54.6875 
L 18.109375 54.6875 
L 18.109375 46.390625 
Q 20.953125 51.265625 25.265625 53.625 
Q 29.59375 56 35.59375 56 
Q 45.5625 56 51.78125 48.09375 
Q 58.015625 40.1875 58.015625 27.296875 
Q 58.015625 14.40625 51.78125 6.484375 
Q 45.5625 -1.421875 35.59375 -1.421875 
Q 29.59375 -1.421875 25.265625 0.953125 
Q 20.953125 3.328125 18.109375 8.203125 
z
M 48.6875 27.296875 
Q 48.6875 37.203125 44.609375 42.84375 
Q 40.53125 48.484375 33.40625 48.484375 
Q 26.265625 48.484375 22.1875 42.84375 
Q 18.109375 37.203125 18.109375 27.296875 
Q 18.109375 17.390625 22.1875 11.75 
Q 26.265625 6.109375 33.40625 6.109375 
Q 40.53125 6.109375 44.609375 11.75 
Q 48.6875 17.390625 48.6875 27.296875 
z
" id="DejaVuSans-112"/>
      <path d="M 8.5 21.578125 
L 8.5 54.6875 
L 17.484375 54.6875 
L 17.484375 21.921875 
Q 17.484375 14.15625 20.5 10.265625 
Q 23.53125 6.390625 29.59375 6.390625 
Q 36.859375 6.390625 41.078125 11.03125 
Q 45.3125 15.671875 45.3125 23.6875 
L 45.3125 54.6875 
L 54.296875 54.6875 
L 54.296875 0 
L 45.3125 0 
L 45.3125 8.40625 
Q 42.046875 3.421875 37.71875 1 
Q 33.40625 -1.421875 27.6875 -1.421875 
Q 18.265625 -1.421875 13.375 4.4375 
Q 8.5 10.296875 8.5 21.578125 
z
M 31.109375 56 
z
" id="DejaVuSans-117"/>
      <path d="M 9.421875 75.984375 
L 18.40625 75.984375 
L 18.40625 0 
L 9.421875 0 
z
" id="DejaVuSans-108"/>
      <path d="M 17.921875 72.90625 
L 17.921875 45.796875 
L 9.625 45.796875 
L 9.625 72.90625 
z
" id="DejaVuSans-39"/>
      <path id="DejaVuSans-32"/>
      <path d="M 2.984375 54.6875 
L 12.5 54.6875 
L 29.59375 8.796875 
L 46.6875 54.6875 
L 56.203125 54.6875 
L 35.6875 0 
L 23.484375 0 
z
" id="DejaVuSans-118"/>
      <path d="M 45.40625 27.984375 
Q 45.40625 37.75 41.375 43.109375 
Q 37.359375 48.484375 30.078125 48.484375 
Q 22.859375 48.484375 18.828125 43.109375 
Q 14.796875 37.75 14.796875 27.984375 
Q 14.796875 18.265625 18.828125 12.890625 
Q 22.859375 7.515625 30.078125 7.515625 
Q 37.359375 7.515625 41.375 12.890625 
Q 45.40625 18.265625 45.40625 27.984375 
z
M 54.390625 6.78125 
Q 54.390625 -7.171875 48.1875 -13.984375 
Q 42 -20.796875 29.203125 -20.796875 
Q 24.46875 -20.796875 20.265625 -20.09375 
Q 16.0625 -19.390625 12.109375 -17.921875 
L 12.109375 -9.1875 
Q 16.0625 -11.328125 19.921875 -12.34375 
Q 23.78125 -13.375 27.78125 -13.375 
Q 36.625 -13.375 41.015625 -8.765625 
Q 45.40625 -4.15625 45.40625 5.171875 
L 45.40625 9.625 
Q 42.625 4.78125 38.28125 2.390625 
Q 33.9375 0 27.875 0 
Q 17.828125 0 11.671875 7.65625 
Q 5.515625 15.328125 5.515625 27.984375 
Q 5.515625 40.671875 11.671875 48.328125 
Q 17.828125 56 27.875 56 
Q 33.9375 56 38.28125 53.609375 
Q 42.625 51.21875 45.40625 46.390625 
L 45.40625 54.6875 
L 54.390625 54.6875 
z
" id="DejaVuSans-103"/>
      <path d="M 45.40625 46.390625 
L 45.40625 75.984375 
L 54.390625 75.984375 
L 54.390625 0 
L 45.40625 0 
L 45.40625 8.203125 
Q 42.578125 3.328125 38.25 0.953125 
Q 33.9375 -1.421875 27.875 -1.421875 
Q 17.96875 -1.421875 11.734375 6.484375 
Q 5.515625 14.40625 5.515625 27.296875 
Q 5.515625 40.1875 11.734375 48.09375 
Q 17.96875 56 27.875 56 
Q 33.9375 56 38.25 53.625 
Q 42.578125 51.265625 45.40625 46.390625 
z
M 14.796875 27.296875 
Q 14.796875 17.390625 18.875 11.75 
Q 22.953125 6.109375 30.078125 6.109375 
Q 37.203125 6.109375 41.296875 11.75 
Q 45.40625 17.390625 45.40625 27.296875 
Q 45.40625 37.203125 41.296875 42.84375 
Q 37.203125 48.484375 30.078125 48.484375 
Q 22.953125 48.484375 18.875 42.84375 
Q 14.796875 37.203125 14.796875 27.296875 
z
" id="DejaVuSans-100"/>
      <path d="M 48.6875 27.296875 
Q 48.6875 37.203125 44.609375 42.84375 
Q 40.53125 48.484375 33.40625 48.484375 
Q 26.265625 48.484375 22.1875 42.84375 
Q 18.109375 37.203125 18.109375 27.296875 
Q 18.109375 17.390625 22.1875 11.75 
Q 26.265625 6.109375 33.40625 6.109375 
Q 40.53125 6.109375 44.609375 11.75 
Q 48.6875 17.390625 48.6875 27.296875 
z
M 18.109375 46.390625 
Q 20.953125 51.265625 25.265625 53.625 
Q 29.59375 56 35.59375 56 
Q 45.5625 56 51.78125 48.09375 
Q 58.015625 40.1875 58.015625 27.296875 
Q 58.015625 14.40625 51.78125 6.484375 
Q 45.5625 -1.421875 35.59375 -1.421875 
Q 29.59375 -1.421875 25.265625 0.953125 
Q 20.953125 3.328125 18.109375 8.203125 
L 18.109375 0 
L 9.078125 0 
L 9.078125 75.984375 
L 18.109375 75.984375 
z
" id="DejaVuSans-98"/>
      <path d="M 37.109375 75.984375 
L 37.109375 68.5 
L 28.515625 68.5 
Q 23.6875 68.5 21.796875 66.546875 
Q 19.921875 64.59375 19.921875 59.515625 
L 19.921875 54.6875 
L 34.71875 54.6875 
L 34.71875 47.703125 
L 19.921875 47.703125 
L 19.921875 0 
L 10.890625 0 
L 10.890625 47.703125 
L 2.296875 47.703125 
L 2.296875 54.6875 
L 10.890625 54.6875 
L 10.890625 58.5 
Q 10.890625 67.625 15.140625 71.796875 
Q 19.390625 75.984375 28.609375 75.984375 
z
" id="DejaVuSans-102"/>
     </defs>
     <use xlink:href="#DejaVuSans-80"/>
     <use x="56.677734" xlink:href="#DejaVuSans-111"/>
     <use x="117.859375" xlink:href="#DejaVuSans-112"/>
     <use x="181.335938" xlink:href="#DejaVuSans-117"/>
     <use x="244.714844" xlink:href="#DejaVuSans-108"/>
     <use x="272.498047" xlink:href="#DejaVuSans-97"/>
     <use x="333.777344" xlink:href="#DejaVuSans-116"/>
     <use x="372.986328" xlink:href="#DejaVuSans-105"/>
     <use x="400.769531" xlink:href="#DejaVuSans-111"/>
     <use x="461.951172" xlink:href="#DejaVuSans-110"/>
     <use x="525.330078" xlink:href="#DejaVuSans-39"/>
     <use x="552.820312" xlink:href="#DejaVuSans-115"/>
     <use x="604.919922" xlink:href="#DejaVuSans-32"/>
     <use x="636.707031" xlink:href="#DejaVuSans-97"/>
     <use x="697.986328" xlink:href="#DejaVuSans-118"/>
     <use x="757.166016" xlink:href="#DejaVuSans-101"/>
     <use x="818.689453" xlink:href="#DejaVuSans-114"/>
     <use x="859.802734" xlink:href="#DejaVuSans-97"/>
     <use x="921.082031" xlink:href="#DejaVuSans-103"/>
     <use x="984.558594" xlink:href="#DejaVuSans-101"/>
     <use x="1046.082031" xlink:href="#DejaVuSans-32"/>
     <use x="1077.869141" xlink:href="#DejaVuSans-97"/>
     <use x="1139.148438" xlink:href="#DejaVuSans-110"/>
     <use x="1202.527344" xlink:href="#DejaVuSans-100"/>
     <use x="1266.003906" xlink:href="#DejaVuSans-32"/>
     <use x="1297.791016" xlink:href="#DejaVuSans-98"/>
     <use x="1361.267578" xlink:href="#DejaVuSans-101"/>
     <use x="1422.791016" xlink:href="#DejaVuSans-115"/>
     <use x="1474.890625" xlink:href="#DejaVuSans-116"/>
     <use x="1514.099609" xlink:href="#DejaVuSans-32"/>
     <use x="1545.886719" xlink:href="#DejaVuSans-102"/>
     <use x="1581.091797" xlink:href="#DejaVuSans-105"/>
     <use x="1608.875" xlink:href="#DejaVuSans-116"/>
     <use x="1648.083984" xlink:href="#DejaVuSans-110"/>
     <use x="1711.462891" xlink:href="#DejaVuSans-101"/>
     <use x="1772.986328" xlink:href="#DejaVuSans-115"/>
     <use x="1825.085938" xlink:href="#DejaVuSans-115"/>
    </g>
   </g>
   <g id="legend_1">
    <g id="patch_7">
     <path d="M 334.779375 302.584 
L 407.72 302.584 
Q 409.72 302.584 409.72 300.584 
L 409.72 272.22775 
Q 409.72 270.22775 407.72 270.22775 
L 334.779375 270.22775 
Q 332.779375 270.22775 332.779375 272.22775 
L 332.779375 300.584 
Q 332.779375 302.584 334.779375 302.584 
z
" style="fill:#ffffff;opacity:0.8;stroke:#cccccc;stroke-linejoin:miter;"/>
    </g>
    <g id="line2d_23">
     <path d="M 336.779375 278.326187 
L 356.779375 278.326187 
" style="fill:none;stroke:#0000ff;stroke-linecap:square;stroke-width:1.5;"/>
    </g>
    <g id="line2d_24"/>
    <g id="text_14">
     <!-- average -->
     <g transform="translate(364.779375 281.826187)scale(0.1 -0.1)">
      <use xlink:href="#DejaVuSans-97"/>
      <use x="61.279297" xlink:href="#DejaVuSans-118"/>
      <use x="120.458984" xlink:href="#DejaVuSans-101"/>
      <use x="181.982422" xlink:href="#DejaVuSans-114"/>
      <use x="223.095703" xlink:href="#DejaVuSans-97"/>
      <use x="284.375" xlink:href="#DejaVuSans-103"/>
      <use x="347.851562" xlink:href="#DejaVuSans-101"/>
     </g>
    </g>
    <g id="line2d_25">
     <path d="M 336.779375 293.004312 
L 356.779375 293.004312 
" style="fill:none;stroke:#ff0000;stroke-linecap:square;stroke-width:1.5;"/>
    </g>
    <g id="line2d_26"/>
    <g id="text_15">
     <!-- best -->
     <g transform="translate(364.779375 296.504312)scale(0.1 -0.1)">
      <use xlink:href="#DejaVuSans-98"/>
      <use x="63.476562" xlink:href="#DejaVuSans-101"/>
      <use x="125" xlink:href="#DejaVuSans-115"/>
      <use x="177.099609" xlink:href="#DejaVuSans-116"/>
     </g>
    </g>
   </g>
  </g>
 </g>
 <defs>
  <clipPath id="p80442346ff">
   <rect height="266.112" width="357.12" x="57.6" y="41.472"/>
  </clipPath>
 </defs>
</svg>
