<?xml version="1.0" encoding="UTF-8" standalone="no"?>
<!DOCTYPE svg PUBLIC "-//W3C//DTD SVG 1.1//EN"
 "http://www.w3.org/Graphics/SVG/1.1/DTD/svg11.dtd">
<!-- Generated by graphviz version 2.40.1 (20161225.0304)
 -->
<!-- Title: %3 Pages: 1 -->
<svg width="2680pt" height="485pt"
 viewBox="0.00 0.00 2679.95 484.60" xmlns="http://www.w3.org/2000/svg" xmlns:xlink="http://www.w3.org/1999/xlink">
<g id="graph0" class="graph" transform="scale(1 1) rotate(0) translate(4 480.6001)">
<title>%3</title>
<polygon fill="#ffffff" stroke="transparent" points="-4,4 -4,-480.6001 2675.9454,-480.6001 2675.9454,4 -4,4"/>
<!-- A_agent -->
<g id="node1" class="node">
<title>A_agent</title>
<polygon fill="#d3d3d3" stroke="#000000" points="1985.2487,-321.3539 1938.2487,-321.3539 1938.2487,-303.3539 1985.2487,-303.3539 1985.2487,-321.3539"/>
<text text-anchor="middle" x="1961.7487" y="-310.1539" font-family="Times,serif" font-size="9.00" fill="#000000">A_agent</text>
</g>
<!-- forward -->
<g id="node27" class="node">
<title>forward</title>
<ellipse fill="#add8e6" stroke="#000000" cx="571.7487" cy="-111.6604" rx="31.6406" ry="31.6406"/>
<text text-anchor="middle" x="571.7487" y="-109.4604" font-family="Times,serif" font-size="9.00" fill="#000000">forward</text>
</g>
<!-- A_agent&#45;&gt;forward -->
<g id="edge42" class="edge">
<title>A_agent&#45;&gt;forward</title>
<path fill="none" stroke="#00ff00" stroke-width=".1657" d="M1950.5231,-303.3048C1918.3684,-278.0019 1822.2178,-206.6023 1728.7487,-179.4802 1715.0746,-175.5124 820.3756,-125.5029 613.9239,-114.0059"/>
<polygon fill="#00ff00" stroke="#00ff00" stroke-width=".1657" points="613.9667,-110.503 603.7876,-113.4416 613.5776,-117.4922 613.9667,-110.503"/>
</g>
<!-- backward -->
<g id="node28" class="node">
<title>backward</title>
<ellipse fill="#add8e6" stroke="#000000" cx="1683.7487" cy="-215.5427" rx="36.125" ry="36.125"/>
<text text-anchor="middle" x="1683.7487" y="-213.3427" font-family="Times,serif" font-size="9.00" fill="#000000">backward</text>
</g>
<!-- A_agent&#45;&gt;backward -->
<g id="edge12" class="edge">
<title>A_agent&#45;&gt;backward</title>
<path fill="none" stroke="#ff0000" stroke-width=".4276" stroke-dasharray="1,5" d="M1950.0172,-303.2311C1942.7899,-297.9987 1933.1374,-291.6803 1923.7487,-287.6051 1862.4424,-260.9949 1841.5158,-271.6132 1777.7487,-251.6051 1760.8992,-246.3183 1742.7085,-239.5876 1726.8596,-233.3762"/>
<polygon fill="#ff0000" stroke="#ff0000" stroke-width=".4276" points="1727.9128,-230.0287 1717.3269,-229.5933 1725.3308,-236.5351 1727.9128,-230.0287"/>
</g>
<!-- no_turn -->
<g id="node29" class="node">
<title>no_turn</title>
<ellipse fill="#add8e6" stroke="#000000" cx="1305.7487" cy="-215.5427" rx="31.2258" ry="31.2258"/>
<text text-anchor="middle" x="1305.7487" y="-213.3427" font-family="Times,serif" font-size="9.00" fill="#000000">no_turn</text>
</g>
<!-- A_agent&#45;&gt;no_turn -->
<g id="edge63" class="edge">
<title>A_agent&#45;&gt;no_turn</title>
<path fill="none" stroke="#00ff00" stroke-width=".3625" stroke-dasharray="1,5" d="M1939.7238,-303.3123C1925.8822,-297.9741 1907.5299,-291.5164 1890.7487,-287.6051 1837.9727,-275.3045 1472.0052,-234.0213 1347.2783,-220.1404"/>
<polygon fill="#00ff00" stroke="#00ff00" stroke-width=".3625" points="1347.3265,-216.6243 1337.001,-218.9979 1346.5531,-223.5814 1347.3265,-216.6243"/>
</g>
<!-- ccw -->
<g id="node30" class="node">
<title>ccw</title>
<ellipse fill="#add8e6" stroke="#000000" cx="1407.7487" cy="-21.9203" rx="21.8409" ry="21.8409"/>
<text text-anchor="middle" x="1407.7487" y="-19.7203" font-family="Times,serif" font-size="9.00" fill="#000000">ccw</text>
</g>
<!-- A_agent&#45;&gt;ccw -->
<g id="edge52" class="edge">
<title>A_agent&#45;&gt;ccw</title>
<path fill="none" stroke="#ff0000" stroke-width=".2869" stroke-dasharray="1,5" d="M1953.8616,-303.0243C1933.4369,-279.3756 1876.2481,-216.3495 1816.7487,-179.4802 1687.2835,-99.2561 1510.2418,-48.1628 1439.1627,-29.6894"/>
<polygon fill="#ff0000" stroke="#ff0000" stroke-width=".2869" points="1440.0188,-26.2957 1429.4627,-27.2009 1438.2793,-33.0762 1440.0188,-26.2957"/>
</g>
<!-- cw -->
<g id="node31" class="node">
<title>cw</title>
<ellipse fill="#add8e6" stroke="#000000" cx="2125.7487" cy="-215.5427" rx="19.1842" ry="19.1842"/>
<text text-anchor="middle" x="2125.7487" y="-213.3427" font-family="Times,serif" font-size="9.00" fill="#000000">cw</text>
</g>
<!-- A_agent&#45;&gt;cw -->
<g id="edge65" class="edge">
<title>A_agent&#45;&gt;cw</title>
<path fill="none" stroke="#ff0000" stroke-width=".3427" d="M1973.0712,-303.2408C1979.3124,-298.378 1987.288,-292.421 1994.7487,-287.6051 2029.7103,-265.0379 2072.2565,-242.4753 2099.1778,-228.7614"/>
<polygon fill="#ff0000" stroke="#ff0000" stroke-width=".3427" points="2101.0014,-231.7614 2108.3462,-224.1256 2097.8428,-225.5145 2101.0014,-231.7614"/>
</g>
<!-- A_lm -->
<g id="node2" class="node">
<title>A_lm</title>
<polygon fill="#d3d3d3" stroke="#000000" points="959.2487,-321.3539 922.2487,-321.3539 922.2487,-303.3539 959.2487,-303.3539 959.2487,-321.3539"/>
<text text-anchor="middle" x="940.7487" y="-310.1539" font-family="Times,serif" font-size="9.00" fill="#000000">A_lm</text>
</g>
<!-- no_move -->
<g id="node26" class="node">
<title>no_move</title>
<ellipse fill="#add8e6" stroke="#000000" cx="1029.7487" cy="-215.5427" rx="35.2113" ry="35.2113"/>
<text text-anchor="middle" x="1029.7487" y="-213.3427" font-family="Times,serif" font-size="9.00" fill="#000000">no_move</text>
</g>
<!-- A_lm&#45;&gt;no_move -->
<g id="edge36" class="edge">
<title>A_lm&#45;&gt;no_move</title>
<path fill="none" stroke="#00ff00" stroke-width=".3539" d="M949.2824,-303.0712C960.6516,-290.7042 981.3758,-268.1611 998.9444,-249.0506"/>
<polygon fill="#00ff00" stroke="#00ff00" stroke-width=".3539" points="1001.5535,-251.3841 1005.7447,-241.6535 996.4002,-246.6466 1001.5535,-251.3841"/>
</g>
<!-- A_wall -->
<g id="node3" class="node">
<title>A_wall</title>
<polygon fill="#d3d3d3" stroke="#000000" points="668.2487,-321.3539 625.2487,-321.3539 625.2487,-303.3539 668.2487,-303.3539 668.2487,-321.3539"/>
<text text-anchor="middle" x="646.7487" y="-310.1539" font-family="Times,serif" font-size="9.00" fill="#000000">A_wall</text>
</g>
<!-- A_wall&#45;&gt;forward -->
<g id="edge28" class="edge">
<title>A_wall&#45;&gt;forward</title>
<path fill="none" stroke="#00ff00" stroke-width=".1348" d="M643.3313,-303.209C633.4385,-276.7368 604.3437,-198.8816 586.4382,-150.9681"/>
<polygon fill="#00ff00" stroke="#00ff00" stroke-width=".1348" points="589.686,-149.6604 582.9068,-141.5183 583.1289,-152.1108 589.686,-149.6604"/>
</g>
<!-- A_wall&#45;&gt;no_turn -->
<g id="edge46" class="edge">
<title>A_wall&#45;&gt;no_turn</title>
<path fill="none" stroke="#ff0000" stroke-width=".3089" stroke-dasharray="1,5" d="M655.3051,-303.1416C661.0651,-297.5931 669.1559,-290.97 677.7487,-287.6051 780.2395,-247.4704 1063.2262,-269.9903 1171.7487,-251.6051 1204.0795,-246.1279 1239.911,-236.2805 1266.3811,-228.2584"/>
<polygon fill="#ff0000" stroke="#ff0000" stroke-width=".3089" points="1267.5124,-231.5724 1276.0409,-225.2862 1265.4538,-224.8819 1267.5124,-231.5724"/>
</g>
<!-- B_agent -->
<g id="node4" class="node">
<title>B_agent</title>
<polygon fill="#d3d3d3" stroke="#000000" points="732.7487,-321.3539 686.7487,-321.3539 686.7487,-303.3539 732.7487,-303.3539 732.7487,-321.3539"/>
<text text-anchor="middle" x="709.7487" y="-310.1539" font-family="Times,serif" font-size="9.00" fill="#000000">B_agent</text>
</g>
<!-- B_agent&#45;&gt;forward -->
<g id="edge79" class="edge">
<title>B_agent&#45;&gt;forward</title>
<path fill="none" stroke="#ff0000" stroke-width=".3383" d="M704.1539,-303.1663C690.7908,-281.346 655.741,-224.8397 623.7487,-179.4802 615.6395,-167.9827 606.4029,-155.6973 597.9868,-144.7854"/>
<polygon fill="#ff0000" stroke="#ff0000" stroke-width=".3383" points="600.6407,-142.4964 591.7432,-136.7444 595.1117,-146.7895 600.6407,-142.4964"/>
</g>
<!-- B_agent&#45;&gt;no_turn -->
<g id="edge73" class="edge">
<title>B_agent&#45;&gt;no_turn</title>
<path fill="none" stroke="#ff0000" stroke-width=".2937" d="M718.9787,-303.1742C725.1588,-297.6388 733.7799,-291.0179 742.7487,-287.6051 921.5766,-219.5582 983.2782,-284.5994 1171.7487,-251.6051 1204.049,-245.9505 1239.8824,-236.1144 1266.361,-228.1418"/>
<polygon fill="#ff0000" stroke="#ff0000" stroke-width=".2937" points="1267.483,-231.4588 1276.0243,-225.19 1265.4381,-224.7641 1267.483,-231.4588"/>
</g>
<!-- B_agent&#45;&gt;ccw -->
<g id="edge18" class="edge">
<title>B_agent&#45;&gt;ccw</title>
<path fill="none" stroke="#ff0000" stroke-width="1.2837" d="M709.1437,-303.3185C708.0778,-279.8238 708.4986,-216.1009 740.7487,-179.4802 826.9111,-81.6413 1254.2993,-35.8527 1375.5997,-24.6945"/>
<polygon fill="#ff0000" stroke="#ff0000" stroke-width="1.2837" points="1376.0843,-28.165 1385.7284,-23.7783 1375.4537,-21.1935 1376.0843,-28.165"/>
</g>
<!-- B_lm -->
<g id="node5" class="node">
<title>B_lm</title>
<polygon fill="#d3d3d3" stroke="#000000" points="1426.2487,-321.3539 1389.2487,-321.3539 1389.2487,-303.3539 1426.2487,-303.3539 1426.2487,-321.3539"/>
<text text-anchor="middle" x="1407.7487" y="-310.1539" font-family="Times,serif" font-size="9.00" fill="#000000">B_lm</text>
</g>
<!-- B_lm&#45;&gt;no_move -->
<g id="edge13" class="edge">
<title>B_lm&#45;&gt;no_move</title>
<path fill="none" stroke="#00ff00" stroke-width=".7023" d="M1389.2178,-309.0827C1332.9563,-299.0677 1164.7332,-268.4826 1111.7487,-251.6051 1098.0359,-247.2371 1083.5222,-241.3148 1070.5783,-235.5326"/>
<polygon fill="#00ff00" stroke="#00ff00" stroke-width=".7023" points="1072.0149,-232.341 1061.4645,-231.3713 1069.1074,-238.7087 1072.0149,-232.341"/>
</g>
<!-- B_lm&#45;&gt;ccw -->
<g id="edge61" class="edge">
<title>B_lm&#45;&gt;ccw</title>
<path fill="none" stroke="#ff0000" stroke-width=".353" stroke-dasharray="1,5" d="M1407.7487,-303.3433C1407.7487,-265.704 1407.7487,-119.9589 1407.7487,-54.3051"/>
<polygon fill="#ff0000" stroke="#ff0000" stroke-width=".353" points="1411.2488,-54.1173 1407.7487,-44.1174 1404.2488,-54.1174 1411.2488,-54.1173"/>
</g>
<!-- B_wall -->
<g id="node6" class="node">
<title>B_wall</title>
<polygon fill="#d3d3d3" stroke="#000000" points="1194.7487,-321.3539 1152.7487,-321.3539 1152.7487,-303.3539 1194.7487,-303.3539 1194.7487,-321.3539"/>
<text text-anchor="middle" x="1173.7487" y="-310.1539" font-family="Times,serif" font-size="9.00" fill="#000000">B_wall</text>
</g>
<!-- B_wall&#45;&gt;no_move -->
<g id="edge9" class="edge">
<title>B_wall&#45;&gt;no_move</title>
<path fill="none" stroke="#00ff00" stroke-width=".352" stroke-dasharray="1,5" d="M1163.4545,-303.3162C1157.7803,-298.4756 1150.5299,-292.5156 1143.7487,-287.6051 1119.6404,-270.1474 1091.3639,-252.2579 1069.0039,-238.6705"/>
<polygon fill="#00ff00" stroke="#00ff00" stroke-width=".352" points="1070.8057,-235.6699 1060.4358,-233.498 1067.1879,-241.6625 1070.8057,-235.6699"/>
</g>
<!-- B_wall&#45;&gt;no_turn -->
<g id="edge56" class="edge">
<title>B_wall&#45;&gt;no_turn</title>
<path fill="none" stroke="#00ff00" stroke-width=".1111" stroke-dasharray="1,5" d="M1184.7274,-303.1369C1190.5627,-298.3545 1197.9231,-292.5042 1204.7487,-287.6051 1228.7862,-270.3524 1236.7273,-268.8801 1260.7487,-251.6051 1265.0084,-248.5418 1269.4098,-245.2214 1273.7165,-241.8776"/>
<polygon fill="#00ff00" stroke="#00ff00" stroke-width=".1111" points="1276.1399,-244.4237 1281.8195,-235.4798 1271.8021,-238.9297 1276.1399,-244.4237"/>
</g>
<!-- B_wall&#45;&gt;ccw -->
<g id="edge60" class="edge">
<title>B_wall&#45;&gt;ccw</title>
<path fill="none" stroke="#00ff00" stroke-width=".1349" d="M1179.6069,-303.0437C1193.6279,-280.9584 1230.5728,-223.9211 1265.7487,-179.4802 1305.1901,-129.6505 1355.9867,-75.4005 1384.9043,-45.3354"/>
<polygon fill="#00ff00" stroke="#00ff00" stroke-width=".1349" points="1387.6797,-47.4998 1392.1088,-37.8751 1382.6444,-42.6371 1387.6797,-47.4998"/>
</g>
<!-- C_agent -->
<g id="node7" class="node">
<title>C_agent</title>
<polygon fill="#d3d3d3" stroke="#000000" points="1023.7487,-321.3539 977.7487,-321.3539 977.7487,-303.3539 1023.7487,-303.3539 1023.7487,-321.3539"/>
<text text-anchor="middle" x="1000.7487" y="-310.1539" font-family="Times,serif" font-size="9.00" fill="#000000">C_agent</text>
</g>
<!-- C_agent&#45;&gt;forward -->
<g id="edge40" class="edge">
<title>C_agent&#45;&gt;forward</title>
<path fill="none" stroke="#ff0000" stroke-width=".1955" stroke-dasharray="1,5" d="M990.2976,-303.1679C962.6342,-279.3094 884.4255,-214.7842 808.7487,-179.4802 743.5282,-149.0542 661.7284,-129.337 613.2726,-119.3884"/>
<polygon fill="#ff0000" stroke="#ff0000" stroke-width=".1955" points="613.6583,-115.896 603.1645,-117.3559 612.2783,-122.7586 613.6583,-115.896"/>
</g>
<!-- C_agent&#45;&gt;backward -->
<g id="edge35" class="edge">
<title>C_agent&#45;&gt;backward</title>
<path fill="none" stroke="#ff0000" stroke-width=".6122" d="M1010.0102,-303.2555C1016.203,-297.7526 1024.8263,-291.1373 1033.7487,-287.6051 1040.8122,-284.8089 1490.7475,-236.281 1637.802,-220.4749"/>
<polygon fill="#ff0000" stroke="#ff0000" stroke-width=".6122" points="1638.2875,-223.9429 1647.8563,-219.3945 1637.5395,-216.983 1638.2875,-223.9429"/>
</g>
<!-- C_agent&#45;&gt;no_turn -->
<g id="edge2" class="edge">
<title>C_agent&#45;&gt;no_turn</title>
<path fill="none" stroke="#00ff00" stroke-width=".3108" stroke-dasharray="1,5" d="M1010.7678,-303.2083C1016.9843,-297.9678 1025.3631,-291.6489 1033.7487,-287.6051 1090.8429,-260.0727 1110.4776,-267.8415 1171.7487,-251.6051 1203.4461,-243.2056 1239.3178,-233.5434 1265.9644,-226.3357"/>
<polygon fill="#00ff00" stroke="#00ff00" stroke-width=".3108" points="1266.9592,-229.6925 1275.6974,-223.7012 1265.1302,-222.9356 1266.9592,-229.6925"/>
</g>
<!-- C_agent&#45;&gt;cw -->
<g id="edge45" class="edge">
<title>C_agent&#45;&gt;cw</title>
<path fill="none" stroke="#00ff00" stroke-width=".9167" stroke-dasharray="1,5" d="M1009.6679,-303.3251C1015.8507,-297.7003 1024.5919,-290.9229 1033.7487,-287.6051 1179.1502,-234.9222 1574.4887,-262.6025 1728.7487,-251.6051 1866.3985,-241.7919 2030.4729,-225.387 2096.2964,-218.6126"/>
<polygon fill="#00ff00" stroke="#00ff00" stroke-width=".9167" points="2096.7673,-222.0827 2106.3547,-217.5736 2096.0479,-215.1198 2096.7673,-222.0827"/>
</g>
<!-- 2708 -->
<g id="node34" class="node">
<title>2708</title>
<ellipse fill="#ffffff" stroke="#000000" cx="774.7487" cy="-215.5427" rx="25" ry="25"/>
<text text-anchor="middle" x="774.7487" y="-213.3427" font-family="Times,serif" font-size="9.00" fill="#000000">2708</text>
</g>
<!-- C_agent&#45;&gt;2708 -->
<g id="edge106" class="edge">
<title>C_agent&#45;&gt;2708</title>
<path fill="none" stroke="#00ff00" stroke-width=".2042" stroke-dasharray="1,5" d="M990.6429,-303.2532C984.6077,-298.1572 976.6077,-291.97 968.7487,-287.6051 940.3779,-271.8478 855.4427,-242.4448 807.9018,-226.5012"/>
<polygon fill="#00ff00" stroke="#00ff00" stroke-width=".2042" points="808.9523,-223.1621 798.3585,-223.3131 806.7343,-229.8014 808.9523,-223.1621"/>
</g>
<!-- 593 -->
<g id="node46" class="node">
<title>593</title>
<ellipse fill="#ffffff" stroke="#000000" cx="403.7487" cy="-215.5427" rx="21.4286" ry="21.4286"/>
<text text-anchor="middle" x="403.7487" y="-213.3427" font-family="Times,serif" font-size="9.00" fill="#000000">593</text>
</g>
<!-- C_agent&#45;&gt;593 -->
<g id="edge80" class="edge">
<title>C_agent&#45;&gt;593</title>
<path fill="none" stroke="#00ff00" stroke-width=".4035" d="M991.8616,-303.1404C985.8939,-297.5916 977.5383,-290.9684 968.7487,-287.6051 762.7345,-208.7753 686.0919,-311.3244 473.7487,-251.6051 458.6053,-247.3462 442.9325,-239.6298 430.2659,-232.4246"/>
<polygon fill="#00ff00" stroke="#00ff00" stroke-width=".4035" points="432.0156,-229.3931 421.6245,-227.3252 428.458,-235.4218 432.0156,-229.3931"/>
</g>
<!-- 895 -->
<g id="node50" class="node">
<title>895</title>
<ellipse fill="#ffffff" stroke="#000000" cx="1141.7487" cy="-215.5427" rx="21.4286" ry="21.4286"/>
<text text-anchor="middle" x="1141.7487" y="-213.3427" font-family="Times,serif" font-size="9.00" fill="#000000">895</text>
</g>
<!-- C_agent&#45;&gt;895 -->
<g id="edge90" class="edge">
<title>C_agent&#45;&gt;895</title>
<path fill="none" stroke="#00ff00" stroke-width=".3994" d="M1012.5464,-303.2589C1018.7885,-298.5099 1026.6175,-292.6526 1033.7487,-287.6051 1061.0769,-268.2624 1093.0508,-247.1057 1115.0794,-232.7518"/>
<polygon fill="#00ff00" stroke="#00ff00" stroke-width=".3994" points="1117.1013,-235.612 1123.58,-227.2288 1113.2876,-229.7421 1117.1013,-235.612"/>
</g>
<!-- C_lm -->
<g id="node8" class="node">
<title>C_lm</title>
<polygon fill="#d3d3d3" stroke="#000000" points="2040.2487,-321.3539 2003.2487,-321.3539 2003.2487,-303.3539 2040.2487,-303.3539 2040.2487,-321.3539"/>
<text text-anchor="middle" x="2021.7487" y="-310.1539" font-family="Times,serif" font-size="9.00" fill="#000000">C_lm</text>
</g>
<!-- C_lm&#45;&gt;forward -->
<g id="edge67" class="edge">
<title>C_lm&#45;&gt;forward</title>
<path fill="none" stroke="#ff0000" stroke-width=".4703" d="M2012.6459,-303.175C2007.5865,-298.293 2001.0548,-292.3385 1994.7487,-287.6051 1920.7204,-232.038 1905.1735,-206.8475 1816.7487,-179.4802 1814.9089,-178.9108 830.7863,-125.6677 613.7618,-113.9319"/>
<polygon fill="#ff0000" stroke="#ff0000" stroke-width=".4703" points="613.8984,-110.4343 603.7239,-113.3891 613.5203,-117.4241 613.8984,-110.4343"/>
</g>
<!-- C_lm&#45;&gt;backward -->
<g id="edge24" class="edge">
<title>C_lm&#45;&gt;backward</title>
<path fill="none" stroke="#ff0000" stroke-width=".2183" d="M2014.1084,-303.3126C2009.1215,-297.9745 2002.1751,-291.5168 1994.7487,-287.6051 1908.1179,-241.9734 1792.9455,-225.0037 1729.8811,-218.8683"/>
<polygon fill="#ff0000" stroke="#ff0000" stroke-width=".2183" points="1730.1267,-215.3762 1719.8471,-217.9413 1729.4826,-222.3465 1730.1267,-215.3762"/>
</g>
<!-- C_lm&#45;&gt;cw -->
<g id="edge14" class="edge">
<title>C_lm&#45;&gt;cw</title>
<path fill="none" stroke="#ff0000" stroke-width=".3163" d="M2031.7207,-303.0712C2048.3658,-287.5766 2082.1712,-256.108 2104.3845,-235.4302"/>
<polygon fill="#ff0000" stroke="#ff0000" stroke-width=".3163" points="2106.7762,-237.9855 2111.711,-228.6101 2102.0067,-232.8618 2106.7762,-237.9855"/>
</g>
<!-- C_wall -->
<g id="node9" class="node">
<title>C_wall</title>
<polygon fill="#d3d3d3" stroke="#000000" points="847.7487,-406.8513 805.7487,-406.8513 805.7487,-388.8513 847.7487,-388.8513 847.7487,-406.8513"/>
<text text-anchor="middle" x="826.7487" y="-395.6513" font-family="Times,serif" font-size="9.00" fill="#000000">C_wall</text>
</g>
<!-- C_wall&#45;&gt;no_move -->
<g id="edge70" class="edge">
<title>C_wall&#45;&gt;no_move</title>
<path fill="none" stroke="#00ff00" stroke-width=".2081" stroke-dasharray="1,5" d="M825.5545,-388.6546C823.4122,-368.0646 821.2004,-317.7092 845.7487,-287.6051 879.8989,-245.7261 941.6827,-228.1011 984.1666,-220.7382"/>
<polygon fill="#00ff00" stroke="#00ff00" stroke-width=".2081" points="984.9367,-224.1594 994.2554,-219.1183 983.827,-217.2479 984.9367,-224.1594"/>
</g>
<!-- C_wall&#45;&gt;backward -->
<g id="edge4" class="edge">
<title>C_wall&#45;&gt;backward</title>
<path fill="none" stroke="#00ff00" stroke-width=".1914" d="M848.024,-397.4566C967.8577,-395.0723 1555.5821,-381.1856 1621.7487,-337.1026 1636.0873,-327.5497 1654.1473,-289.6097 1667.071,-258.6244"/>
<polygon fill="#00ff00" stroke="#00ff00" stroke-width=".1914" points="1670.3509,-259.8508 1670.9071,-249.2706 1663.8744,-257.1947 1670.3509,-259.8508"/>
</g>
<!-- C_wall&#45;&gt;593 -->
<g id="edge93" class="edge">
<title>C_wall&#45;&gt;593</title>
<path fill="none" stroke="#00ff00" stroke-width=".2766" stroke-dasharray="1,5" d="M805.6312,-396.6591C719.5106,-391.5855 398.0183,-370.5108 368.7487,-337.1026 344.9544,-309.9438 366.1601,-267.5296 384.3787,-240.6576"/>
<polygon fill="#00ff00" stroke="#00ff00" stroke-width=".2766" points="387.4547,-242.3698 390.3733,-232.1849 381.7403,-238.3268 387.4547,-242.3698"/>
</g>
<!-- 3042 -->
<g id="node48" class="node">
<title>3042</title>
<ellipse fill="#ffffff" stroke="#000000" cx="402.7487" cy="-312.3539" rx="25" ry="25"/>
<text text-anchor="middle" x="402.7487" y="-310.1539" font-family="Times,serif" font-size="9.00" fill="#000000">3042</text>
</g>
<!-- C_wall&#45;&gt;3042 -->
<g id="edge116" class="edge">
<title>C_wall&#45;&gt;3042</title>
<path fill="none" stroke="#00ff00" stroke-width=".3942" d="M805.5229,-395.6528C735.1023,-388.1804 509.8029,-362.7945 441.7487,-337.1026 438.422,-335.8467 435.0775,-334.2833 431.8214,-332.5566"/>
<polygon fill="#00ff00" stroke="#00ff00" stroke-width=".3942" points="433.3655,-329.4051 422.9664,-327.3778 429.8316,-335.4476 433.3655,-329.4051"/>
</g>
<!-- 2934 -->
<g id="node49" class="node">
<title>2934</title>
<ellipse fill="#ffffff" stroke="#000000" cx="879.7487" cy="-312.3539" rx="25" ry="25"/>
<text text-anchor="middle" x="879.7487" y="-310.1539" font-family="Times,serif" font-size="9.00" fill="#000000">2934</text>
</g>
<!-- C_wall&#45;&gt;2934 -->
<g id="edge112" class="edge">
<title>C_wall&#45;&gt;2934</title>
<path fill="none" stroke="#00ff00" stroke-width=".2861" d="M832.4207,-388.7016C839.2703,-377.6521 851.1352,-358.5121 861.2712,-342.1611"/>
<polygon fill="#00ff00" stroke="#00ff00" stroke-width=".2861" points="864.3876,-343.7767 866.6816,-333.4332 858.438,-340.0885 864.3876,-343.7767"/>
</g>
<!-- D_agent -->
<g id="node10" class="node">
<title>D_agent</title>
<polygon fill="#d3d3d3" stroke="#000000" points="607.2487,-321.3539 560.2487,-321.3539 560.2487,-303.3539 607.2487,-303.3539 607.2487,-321.3539"/>
<text text-anchor="middle" x="583.7487" y="-310.1539" font-family="Times,serif" font-size="9.00" fill="#000000">D_agent</text>
</g>
<!-- D_agent&#45;&gt;no_move -->
<g id="edge50" class="edge">
<title>D_agent&#45;&gt;no_move</title>
<path fill="none" stroke="#00ff00" stroke-width=".3638" d="M593.3685,-303.2C599.5696,-297.8195 608.0721,-291.3568 616.7487,-287.6051 633.6024,-280.3178 880.5636,-239.7334 984.345,-222.8809"/>
<polygon fill="#00ff00" stroke="#00ff00" stroke-width=".3638" points="985.2054,-226.2871 994.5159,-221.2308 984.0844,-219.3775 985.2054,-226.2871"/>
</g>
<!-- D_agent&#45;&gt;forward -->
<g id="edge38" class="edge">
<title>D_agent&#45;&gt;forward</title>
<path fill="none" stroke="#00ff00" stroke-width=".1285" stroke-dasharray="1,5" d="M583.2019,-303.209C581.6471,-277.2046 577.1275,-201.6168 574.2526,-153.5355"/>
<polygon fill="#00ff00" stroke="#00ff00" stroke-width=".1285" points="577.7388,-153.1995 573.6481,-143.4263 570.7513,-153.6174 577.7388,-153.1995"/>
</g>
<!-- D_lm -->
<g id="node11" class="node">
<title>D_lm</title>
<polygon fill="#d3d3d3" stroke="#000000" points="1134.2487,-321.3539 1097.2487,-321.3539 1097.2487,-303.3539 1134.2487,-303.3539 1134.2487,-321.3539"/>
<text text-anchor="middle" x="1115.7487" y="-310.1539" font-family="Times,serif" font-size="9.00" fill="#000000">D_lm</text>
</g>
<!-- D_lm&#45;&gt;no_move -->
<g id="edge41" class="edge">
<title>D_lm&#45;&gt;no_move</title>
<path fill="none" stroke="#ff0000" stroke-width=".3867" stroke-dasharray="1,5" d="M1107.5027,-303.0712C1096.6393,-290.8422 1076.9367,-268.6627 1060.0838,-249.6912"/>
<polygon fill="#ff0000" stroke="#ff0000" stroke-width=".3867" points="1062.5688,-247.2185 1053.3108,-242.0668 1057.3355,-251.8674 1062.5688,-247.2185"/>
</g>
<!-- D_lm&#45;&gt;forward -->
<g id="edge59" class="edge">
<title>D_lm&#45;&gt;forward</title>
<path fill="none" stroke="#ff0000" stroke-width=".2928" stroke-dasharray="1,5" d="M1115.9334,-303.1571C1115.879,-278.6988 1112.0694,-211.7223 1073.7487,-179.4802 1038.714,-150.0029 728.4872,-123.6047 613.974,-114.7823"/>
<polygon fill="#ff0000" stroke="#ff0000" stroke-width=".2928" points="614.0733,-111.2797 603.8357,-114.0078 613.5401,-118.2594 614.0733,-111.2797"/>
</g>
<!-- D_lm&#45;&gt;backward -->
<g id="edge32" class="edge">
<title>D_lm&#45;&gt;backward</title>
<path fill="none" stroke="#00ff00" stroke-width=".2375" d="M1123.6093,-303.0626C1128.7573,-297.6303 1135.9582,-291.1616 1143.7487,-287.6051 1188.3719,-267.2343 1515.2869,-232.5562 1637.6708,-220.1365"/>
<polygon fill="#00ff00" stroke="#00ff00" stroke-width=".2375" points="1638.2414,-223.5967 1647.8384,-219.1082 1637.5369,-216.6323 1638.2414,-223.5967"/>
</g>
<!-- 1743 -->
<g id="node45" class="node">
<title>1743</title>
<ellipse fill="#ffffff" stroke="#000000" cx="1193.7487" cy="-111.6604" rx="25" ry="25"/>
<text text-anchor="middle" x="1193.7487" y="-109.4604" font-family="Times,serif" font-size="9.00" fill="#000000">1743</text>
</g>
<!-- D_lm&#45;&gt;1743 -->
<g id="edge96" class="edge">
<title>D_lm&#45;&gt;1743</title>
<path fill="none" stroke="#00ff00" stroke-width=".7213" stroke-dasharray="1,5" d="M1125.657,-303.0063C1140.1598,-289.1035 1166.0671,-263.3569 1171.7487,-251.6051 1187.814,-218.3761 1192.6041,-176.0144 1193.8176,-146.6463"/>
<polygon fill="#00ff00" stroke="#00ff00" stroke-width=".7213" points="1197.3218,-146.5539 1194.1172,-136.4553 1190.3248,-146.3482 1197.3218,-146.5539"/>
</g>
<!-- D_wall -->
<g id="node12" class="node">
<title>D_wall</title>
<polygon fill="#d3d3d3" stroke="#000000" points="237.2487,-406.8513 194.2487,-406.8513 194.2487,-388.8513 237.2487,-388.8513 237.2487,-406.8513"/>
<text text-anchor="middle" x="215.7487" y="-395.6513" font-family="Times,serif" font-size="9.00" fill="#000000">D_wall</text>
</g>
<!-- D_wall&#45;&gt;forward -->
<g id="edge39" class="edge">
<title>D_wall&#45;&gt;forward</title>
<path fill="none" stroke="#ff0000" stroke-width=".1257" stroke-dasharray="1,5" d="M211.6174,-388.4627C197.631,-355.0768 155.9044,-240.8294 210.7487,-179.4802 252.5683,-132.7007 443.4181,-117.7651 529.4611,-113.3588"/>
<polygon fill="#ff0000" stroke="#ff0000" stroke-width=".1257" points="529.8446,-116.8443 539.662,-112.8608 529.5032,-109.8526 529.8446,-116.8443"/>
</g>
<!-- D_wall&#45;&gt;backward -->
<g id="edge64" class="edge">
<title>D_wall&#45;&gt;backward</title>
<path fill="none" stroke="#ff0000" stroke-width=".3648" d="M237.2517,-396.933C411.4192,-389.4907 1584.9006,-339.2727 1588.7487,-337.1026 1611.7787,-324.1148 1605.7635,-308.6653 1621.7487,-287.6051 1631.3153,-275.0014 1642.4124,-261.7307 1652.5517,-250.0605"/>
<polygon fill="#ff0000" stroke="#ff0000" stroke-width=".3648" points="1655.4262,-252.091 1659.3877,-242.2646 1650.1631,-247.4759 1655.4262,-252.091"/>
</g>
<!-- D_wall&#45;&gt;cw -->
<g id="edge26" class="edge">
<title>D_wall&#45;&gt;cw</title>
<path fill="none" stroke="#00ff00" stroke-width=".2234" d="M237.3753,-396.8219C313.8008,-393.2072 578.3102,-380.8926 796.7487,-373.1026 866.3443,-370.6207 1989.3273,-371.7286 2049.7487,-337.1026 2054.593,-334.3265 2089.9947,-275.7034 2110.73,-240.898"/>
<polygon fill="#00ff00" stroke="#00ff00" stroke-width=".2234" points="2113.8026,-242.5788 2115.9052,-232.1947 2107.7859,-239.0011 2113.8026,-242.5788"/>
</g>
<!-- 144 -->
<g id="node33" class="node">
<title>144</title>
<ellipse fill="#ffffff" stroke="#000000" cx="240.7487" cy="-215.5427" rx="21.4286" ry="21.4286"/>
<text text-anchor="middle" x="240.7487" y="-213.3427" font-family="Times,serif" font-size="9.00" fill="#000000">144</text>
</g>
<!-- D_wall&#45;&gt;144 -->
<g id="edge75" class="edge">
<title>D_wall&#45;&gt;144</title>
<path fill="none" stroke="#00ff00" stroke-width=".1592" d="M213.8408,-388.5906C210.2301,-369.491 203.3897,-324.4299 210.7487,-287.6051 213.7538,-272.5679 219.9636,-256.7446 225.958,-243.7681"/>
<polygon fill="#00ff00" stroke="#00ff00" stroke-width=".1592" points="229.2553,-244.988 230.4433,-234.46 222.9492,-241.9493 229.2553,-244.988"/>
</g>
<!-- 2221 -->
<g id="node38" class="node">
<title>2221</title>
<ellipse fill="#ffffff" stroke="#000000" cx="130.7487" cy="-215.5427" rx="25" ry="25"/>
<text text-anchor="middle" x="130.7487" y="-213.3427" font-family="Times,serif" font-size="9.00" fill="#000000">2221</text>
</g>
<!-- D_wall&#45;&gt;2221 -->
<g id="edge98" class="edge">
<title>D_wall&#45;&gt;2221</title>
<path fill="none" stroke="#00ff00" stroke-width=".2686" d="M197.0193,-388.716C178.8895,-378.7631 152.3531,-361.01 139.7487,-337.1026 125.759,-310.5676 124.5024,-276.1483 126.1672,-250.7114"/>
<polygon fill="#00ff00" stroke="#00ff00" stroke-width=".2686" points="129.6832,-250.6665 127.031,-240.409 122.7077,-250.0816 129.6832,-250.6665"/>
</g>
<!-- 596 -->
<g id="node47" class="node">
<title>596</title>
<ellipse fill="#ffffff" stroke="#000000" cx="240.7487" cy="-312.3539" rx="21.4286" ry="21.4286"/>
<text text-anchor="middle" x="240.7487" y="-310.1539" font-family="Times,serif" font-size="9.00" fill="#000000">596</text>
</g>
<!-- D_wall&#45;&gt;596 -->
<g id="edge82" class="edge">
<title>D_wall&#45;&gt;596</title>
<path fill="none" stroke="#ff0000" stroke-width=".1145" d="M218.4242,-388.7016C221.637,-377.714 227.1891,-358.7264 231.9525,-342.4362"/>
<polygon fill="#ff0000" stroke="#ff0000" stroke-width=".1145" points="235.3411,-343.318 234.7884,-332.7376 228.6225,-341.3534 235.3411,-343.318"/>
</g>
<!-- E_agent -->
<g id="node13" class="node">
<title>E_agent</title>
<polygon fill="#d3d3d3" stroke="#000000" points="2281.7487,-476.6001 2235.7487,-476.6001 2235.7487,-458.6001 2281.7487,-458.6001 2281.7487,-476.6001"/>
<text text-anchor="middle" x="2258.7487" y="-465.4001" font-family="Times,serif" font-size="9.00" fill="#000000">E_agent</text>
</g>
<!-- E_agent&#45;&gt;forward -->
<g id="edge17" class="edge">
<title>E_agent&#45;&gt;forward</title>
<path fill="none" stroke="#00ff00" stroke-width=".237" stroke-dasharray="1,5" d="M2235.681,-467.3829C2011.8585,-465.2416 233.6506,-447.461 185.7487,-422.6001 83.6185,-369.5947 21.354,-266.4043 96.7487,-179.4802 125.0374,-146.8656 419.0137,-122.5984 529.8105,-114.5475"/>
<polygon fill="#00ff00" stroke="#00ff00" stroke-width=".237" points="530.2225,-118.027 539.9459,-113.8193 529.7207,-111.045 530.2225,-118.027"/>
</g>
<!-- E_agent&#45;&gt;cw -->
<g id="edge86" class="edge">
<title>E_agent&#45;&gt;cw</title>
<path fill="none" stroke="#ff0000" stroke-width=".3917" d="M2281.9391,-464.2336C2325.7694,-457.5134 2418.7121,-441.4494 2444.7487,-422.6001 2496.959,-384.8022 2539.2179,-336.9498 2497.7487,-287.6051 2467.8503,-252.0286 2337.3533,-260.5398 2291.7487,-251.6051 2243.4357,-242.1399 2187.5455,-229.6846 2154.5034,-222.1636"/>
<polygon fill="#ff0000" stroke="#ff0000" stroke-width=".3917" points="2155.1452,-218.7202 2144.6169,-219.9052 2153.5862,-225.5444 2155.1452,-218.7202"/>
</g>
<!-- 1819 -->
<g id="node35" class="node">
<title>1819</title>
<ellipse fill="#ffffff" stroke="#000000" cx="2410.7487" cy="-397.8513" rx="25" ry="25"/>
<text text-anchor="middle" x="2410.7487" y="-395.6513" font-family="Times,serif" font-size="9.00" fill="#000000">1819</text>
</g>
<!-- E_agent&#45;&gt;1819 -->
<g id="edge94" class="edge">
<title>E_agent&#45;&gt;1819</title>
<path fill="none" stroke="#00ff00" stroke-width=".1531" d="M2278.6201,-458.4816C2304.1072,-446.7863 2348.6227,-426.3593 2378.8717,-412.4789"/>
<polygon fill="#00ff00" stroke="#00ff00" stroke-width=".1531" points="2380.5202,-415.5734 2388.1492,-408.2216 2377.6007,-409.2112 2380.5202,-415.5734"/>
</g>
<!-- 40 -->
<g id="node37" class="node">
<title>40</title>
<ellipse fill="#ffffff" stroke="#000000" cx="2258.7487" cy="-312.3539" rx="18.2703" ry="18.2703"/>
<text text-anchor="middle" x="2258.7487" y="-310.1539" font-family="Times,serif" font-size="9.00" fill="#000000">40</text>
</g>
<!-- E_agent&#45;&gt;40 -->
<g id="edge74" class="edge">
<title>E_agent&#45;&gt;40</title>
<path fill="none" stroke="#ff0000" stroke-width=".717" stroke-dasharray="1,5" d="M2258.7487,-458.3536C2258.7487,-435.7557 2258.7487,-376.9693 2258.7487,-341.2632"/>
<polygon fill="#ff0000" stroke="#ff0000" stroke-width=".717" points="2262.2488,-340.9885 2258.7487,-330.9886 2255.2488,-340.9886 2262.2488,-340.9885"/>
</g>
<!-- 3007 -->
<g id="node41" class="node">
<title>3007</title>
<ellipse fill="#ffffff" stroke="#000000" cx="24.7487" cy="-397.8513" rx="25" ry="25"/>
<text text-anchor="middle" x="24.7487" y="-395.6513" font-family="Times,serif" font-size="9.00" fill="#000000">3007</text>
</g>
<!-- E_agent&#45;&gt;3007 -->
<g id="edge114" class="edge">
<title>E_agent&#45;&gt;3007</title>
<path fill="none" stroke="#ff0000" stroke-width=".2245" d="M2235.7369,-467.4836C2008.5425,-466.29 173.2801,-455.6414 63.7487,-422.6001 60.1596,-421.5174 56.5807,-420.0047 53.128,-418.2554"/>
<polygon fill="#ff0000" stroke="#ff0000" stroke-width=".2245" points="54.7749,-415.1649 44.363,-413.2042 51.2797,-421.2298 54.7749,-415.1649"/>
</g>
<!-- E_lm -->
<g id="node14" class="node">
<title>E_lm</title>
<polygon fill="#d3d3d3" stroke="#000000" points="2079.7487,-406.8513 2043.7487,-406.8513 2043.7487,-388.8513 2079.7487,-388.8513 2079.7487,-406.8513"/>
<text text-anchor="middle" x="2061.7487" y="-395.6513" font-family="Times,serif" font-size="9.00" fill="#000000">E_lm</text>
</g>
<!-- E_lm&#45;&gt;backward -->
<g id="edge48" class="edge">
<title>E_lm&#45;&gt;backward</title>
<path fill="none" stroke="#00ff00" stroke-width=".7417" stroke-dasharray="1,5" d="M2053.4967,-388.5951C2048.496,-383.4473 2041.746,-377.2601 2034.7487,-373.1026 1992.3368,-347.9034 1969.9893,-365.6416 1929.7487,-337.1026 1906.9038,-320.9007 1913.7696,-303.5562 1890.7487,-287.6051 1847.4235,-257.5853 1827.4867,-269.0524 1777.7487,-251.6051 1761.0848,-245.7597 1742.9332,-238.9113 1727.0636,-232.7621"/>
<polygon fill="#00ff00" stroke="#00ff00" stroke-width=".7417" points="1728.0995,-229.4094 1717.5111,-229.0389 1725.5573,-235.9315 1728.0995,-229.4094"/>
</g>
<!-- E_lm&#45;&gt;no_turn -->
<g id="edge55" class="edge">
<title>E_lm&#45;&gt;no_turn</title>
<path fill="none" stroke="#00ff00" stroke-width=".1527" d="M2054.3069,-388.3949C2049.3946,-382.9006 2042.457,-376.4245 2034.7487,-373.1026 1932.4454,-329.0151 1632.8309,-389.919 1534.7487,-337.1026 1510.3299,-323.9533 1519.9395,-302.8161 1496.7487,-287.6051 1441.5862,-251.4237 1412.1588,-280.2834 1352.7487,-251.6051 1347.6545,-249.1461 1342.5798,-246.079 1337.7513,-242.7788"/>
<polygon fill="#00ff00" stroke="#00ff00" stroke-width=".1527" points="1339.5164,-239.7341 1329.3751,-236.6675 1335.3906,-245.389 1339.5164,-239.7341"/>
</g>
<!-- E_lm&#45;&gt;ccw -->
<g id="edge58" class="edge">
<title>E_lm&#45;&gt;ccw</title>
<path fill="none" stroke="#00ff00" stroke-width=".3609" d="M2079.9309,-396.4936C2173.8618,-389.402 2600.5735,-356.2157 2620.7487,-337.1026 2704.7022,-257.5691 2679.3829,-141.8193 2581.7487,-79.8406 2532.2076,-48.3916 1623.7111,-26.693 1439.9836,-22.616"/>
<polygon fill="#00ff00" stroke="#00ff00" stroke-width=".3609" points="1439.9538,-19.1146 1429.8791,-22.3934 1439.7996,-26.1129 1439.9538,-19.1146"/>
</g>
<!-- E_lm&#45;&gt;cw -->
<g id="edge30" class="edge">
<title>E_lm&#45;&gt;cw</title>
<path fill="none" stroke="#00ff00" stroke-width=".4007" stroke-dasharray="1,5" d="M2079.9256,-396.9532C2138.2303,-393.6567 2318.7886,-380.0845 2353.7487,-337.1026 2367.63,-320.0362 2366.7507,-305.3505 2353.7487,-287.6051 2329.8919,-255.0448 2210.7134,-230.3691 2154.7993,-220.3879"/>
<polygon fill="#00ff00" stroke="#00ff00" stroke-width=".4007" points="2155.2727,-216.9176 2144.8193,-218.643 2154.067,-223.8131 2155.2727,-216.9176"/>
</g>
<!-- 802 -->
<g id="node36" class="node">
<title>802</title>
<ellipse fill="#ffffff" stroke="#000000" cx="1860.7487" cy="-312.3539" rx="21.4286" ry="21.4286"/>
<text text-anchor="middle" x="1860.7487" y="-310.1539" font-family="Times,serif" font-size="9.00" fill="#000000">802</text>
</g>
<!-- E_lm&#45;&gt;802 -->
<g id="edge84" class="edge">
<title>E_lm&#45;&gt;802</title>
<path fill="none" stroke="#00ff00" stroke-width=".251" d="M2053.6127,-388.3911C2048.6506,-383.1753 2041.9006,-376.9881 2034.7487,-373.1026 1978.6738,-342.6379 1953.6364,-363.9636 1895.7487,-337.1026 1892.3776,-335.5383 1888.9899,-333.6426 1885.7203,-331.6043"/>
<polygon fill="#00ff00" stroke="#00ff00" stroke-width=".251" points="1887.6794,-328.704 1877.4341,-326.0053 1883.7603,-334.5041 1887.6794,-328.704"/>
</g>
<!-- E_wall -->
<g id="node15" class="node">
<title>E_wall</title>
<polygon fill="#d3d3d3" stroke="#000000" points="321.7487,-321.3539 279.7487,-321.3539 279.7487,-303.3539 321.7487,-303.3539 321.7487,-321.3539"/>
<text text-anchor="middle" x="300.7487" y="-310.1539" font-family="Times,serif" font-size="9.00" fill="#000000">E_wall</text>
</g>
<!-- E_wall&#45;&gt;forward -->
<g id="edge54" class="edge">
<title>E_wall&#45;&gt;forward</title>
<path fill="none" stroke="#00ff00" stroke-width=".5796" d="M303.2661,-303.1213C310.2697,-279.1504 332.2512,-214.377 373.7487,-179.4802 418.9321,-141.4839 486.5174,-124.3996 529.8692,-116.988"/>
<polygon fill="#00ff00" stroke="#00ff00" stroke-width=".5796" points="530.489,-120.4334 539.8044,-115.3862 529.3747,-113.5227 530.489,-120.4334"/>
</g>
<!-- E_wall&#45;&gt;ccw -->
<g id="edge10" class="edge">
<title>E_wall&#45;&gt;ccw</title>
<path fill="none" stroke="#ff0000" stroke-width=".1806" stroke-dasharray="1,5" d="M299.3328,-303.2109C296.262,-279.9998 291.3804,-217.9161 319.7487,-179.4802 381.3347,-96.0384 430.3568,-105.8565 530.7487,-79.8406 695.2369,-37.2147 1237.31,-24.9181 1375.4752,-22.4413"/>
<polygon fill="#ff0000" stroke="#ff0000" stroke-width=".1806" points="1375.8587,-25.9352 1385.7961,-22.2612 1375.7365,-18.9363 1375.8587,-25.9352"/>
</g>
<!-- E_wall&#45;&gt;895 -->
<g id="edge100" class="edge">
<title>E_wall&#45;&gt;895</title>
<path fill="none" stroke="#ff0000" stroke-width=".5634" d="M320.8222,-303.2522C334.1255,-297.6733 352.1267,-290.9752 368.7487,-287.6051 676.2342,-225.2636 771.3167,-335.0836 1073.7487,-251.6051 1088.3247,-247.5818 1103.3008,-240.0694 1115.4754,-232.9384"/>
<polygon fill="#ff0000" stroke="#ff0000" stroke-width=".5634" points="1117.4726,-235.82 1124.1864,-227.6238 1113.8268,-229.8443 1117.4726,-235.82"/>
</g>
<!-- F_agent -->
<g id="node16" class="node">
<title>F_agent</title>
<polygon fill="#d3d3d3" stroke="#000000" points="2025.2487,-406.8513 1980.2487,-406.8513 1980.2487,-388.8513 2025.2487,-388.8513 2025.2487,-406.8513"/>
<text text-anchor="middle" x="2002.7487" y="-395.6513" font-family="Times,serif" font-size="9.00" fill="#000000">F_agent</text>
</g>
<!-- F_agent&#45;&gt;forward -->
<g id="edge15" class="edge">
<title>F_agent&#45;&gt;forward</title>
<path fill="none" stroke="#ff0000" stroke-width=".3858" d="M1994.5005,-388.7499C1988.7473,-383.0944 1980.5483,-376.3101 1971.7487,-373.1026 1897.6064,-346.0772 606.8379,-393.6061 551.7487,-337.1026 527.0368,-311.7563 547.0188,-210.4089 561.0223,-152.601"/>
<polygon fill="#ff0000" stroke="#ff0000" stroke-width=".3858" points="564.4714,-153.2325 563.469,-142.6852 557.6752,-151.5555 564.4714,-153.2325"/>
</g>
<!-- F_agent&#45;&gt;backward -->
<g id="edge19" class="edge">
<title>F_agent&#45;&gt;backward</title>
<path fill="none" stroke="#ff0000" stroke-width=".1779" stroke-dasharray="1,5" d="M1993.8316,-388.6336C1988.0513,-383.2291 1980.0694,-376.7636 1971.7487,-373.1026 1877.0436,-331.4335 1824.7121,-398.9287 1741.7487,-337.1026 1717.0597,-318.7038 1702.4239,-287.071 1694.0313,-260.6863"/>
<polygon fill="#ff0000" stroke="#ff0000" stroke-width=".1779" points="1697.3174,-259.4573 1691.1124,-250.8696 1690.6077,-261.4524 1697.3174,-259.4573"/>
</g>
<!-- F_agent&#45;&gt;no_turn -->
<g id="edge57" class="edge">
<title>F_agent&#45;&gt;no_turn</title>
<path fill="none" stroke="#00ff00" stroke-width=".1784" d="M1994.2059,-388.6041C1988.4513,-383.0418 1980.3614,-376.4163 1971.7487,-373.1026 1848.9474,-325.8556 1493.643,-404.6846 1380.7487,-337.1026 1372.2282,-332.0019 1345.0058,-285.69 1325.8221,-251.7376"/>
<polygon fill="#00ff00" stroke="#00ff00" stroke-width=".1784" points="1328.8436,-249.9701 1320.8908,-242.9698 1322.7424,-253.4016 1328.8436,-249.9701"/>
</g>
<!-- F_agent&#45;&gt;ccw -->
<g id="edge66" class="edge">
<title>F_agent&#45;&gt;ccw</title>
<path fill="none" stroke="#ff0000" stroke-width=".3371" d="M2011.6267,-388.6138C2017.5907,-383.0553 2025.9457,-376.4304 2034.7487,-373.1026 2092.76,-351.1725 2549.3332,-382.3481 2591.7487,-337.1026 2671.6517,-251.8686 2629.0297,-152.7591 2537.7487,-79.8406 2493.7077,-44.6591 1620.0102,-25.9994 1440.0097,-22.5203"/>
<polygon fill="#ff0000" stroke="#ff0000" stroke-width=".3371" points="1439.9249,-19.0182 1429.8598,-22.3261 1439.791,-26.0169 1439.9249,-19.0182"/>
</g>
<!-- F_agent&#45;&gt;40 -->
<g id="edge103" class="edge">
<title>F_agent&#45;&gt;40</title>
<path fill="none" stroke="#ff0000" stroke-width=".1306" d="M2012.0396,-388.7147C2018.0388,-383.3407 2026.282,-376.8788 2034.7487,-373.1026 2116.0358,-336.8481 2152.0479,-376.7228 2231.7487,-337.1026 2234.0904,-335.9385 2236.3765,-334.5098 2238.5644,-332.9314"/>
<polygon fill="#ff0000" stroke="#ff0000" stroke-width=".1306" points="2241.0077,-335.4505 2246.4264,-326.3462 2236.5129,-330.0842 2241.0077,-335.4505"/>
</g>
<!-- 1342 -->
<g id="node40" class="node">
<title>1342</title>
<ellipse fill="#ffffff" stroke="#000000" cx="2319.7487" cy="-312.3539" rx="25" ry="25"/>
<text text-anchor="middle" x="2319.7487" y="-310.1539" font-family="Times,serif" font-size="9.00" fill="#000000">1342</text>
</g>
<!-- F_agent&#45;&gt;1342 -->
<g id="edge89" class="edge">
<title>F_agent&#45;&gt;1342</title>
<path fill="none" stroke="#00ff00" stroke-width=".3992" d="M2011.7196,-388.8457C2017.7206,-383.3796 2026.0819,-376.7708 2034.7487,-373.1026 2138.5329,-329.1767 2181.3365,-379.5139 2285.7487,-337.1026 2287.8922,-336.232 2290.0259,-335.1977 2292.1195,-334.0536"/>
<polygon fill="#00ff00" stroke="#00ff00" stroke-width=".3992" points="2294.3452,-336.7885 2300.9468,-328.5017 2290.6184,-330.863 2294.3452,-336.7885"/>
</g>
<!-- F_lm -->
<g id="node17" class="node">
<title>F_lm</title>
<polygon fill="#d3d3d3" stroke="#000000" points="1579.7487,-321.3539 1543.7487,-321.3539 1543.7487,-303.3539 1579.7487,-303.3539 1579.7487,-321.3539"/>
<text text-anchor="middle" x="1561.7487" y="-310.1539" font-family="Times,serif" font-size="9.00" fill="#000000">F_lm</text>
</g>
<!-- F_lm&#45;&gt;forward -->
<g id="edge5" class="edge">
<title>F_lm&#45;&gt;forward</title>
<path fill="none" stroke="#00ff00" stroke-width=".2088" d="M1551.0152,-303.0319C1521.0537,-277.6521 1432.9787,-207.3588 1345.7487,-179.4802 1207.5317,-135.3063 754.9647,-117.4804 614.0348,-112.9158"/>
<polygon fill="#00ff00" stroke="#00ff00" stroke-width=".2088" points="613.7722,-109.4058 603.6659,-112.5858 613.5495,-116.4022 613.7722,-109.4058"/>
</g>
<!-- F_lm&#45;&gt;backward -->
<g id="edge47" class="edge">
<title>F_lm&#45;&gt;backward</title>
<path fill="none" stroke="#00ff00" stroke-width=".4168" stroke-dasharray="1,5" d="M1573.4466,-303.0712C1590.3447,-289.662 1622.3194,-264.289 1647.5092,-244.3"/>
<polygon fill="#00ff00" stroke="#00ff00" stroke-width=".4168" points="1649.7639,-246.9789 1655.4216,-238.0212 1645.4127,-241.4956 1649.7639,-246.9789"/>
</g>
<!-- F_lm&#45;&gt;ccw -->
<g id="edge25" class="edge">
<title>F_lm&#45;&gt;ccw</title>
<path fill="none" stroke="#ff0000" stroke-width=".6142" d="M1556.971,-303.3433C1536.641,-265.0023 1456.8318,-114.4876 1423.0186,-50.7182"/>
<polygon fill="#ff0000" stroke="#ff0000" stroke-width=".6142" points="1425.966,-48.8054 1418.1891,-41.6102 1419.7816,-52.0847 1425.966,-48.8054"/>
</g>
<!-- F_wall -->
<g id="node18" class="node">
<title>F_wall</title>
<polygon fill="#d3d3d3" stroke="#000000" points="1504.7487,-406.8513 1462.7487,-406.8513 1462.7487,-388.8513 1504.7487,-388.8513 1504.7487,-406.8513"/>
<text text-anchor="middle" x="1483.7487" y="-395.6513" font-family="Times,serif" font-size="9.00" fill="#000000">F_wall</text>
</g>
<!-- F_wall&#45;&gt;forward -->
<g id="edge29" class="edge">
<title>F_wall&#45;&gt;forward</title>
<path fill="none" stroke="#00ff00" stroke-width=".2409" d="M1462.5485,-396.9074C1320.387,-390.5348 510.8082,-353.5588 491.7487,-337.1026 438.3794,-291.023 441.019,-241.9333 473.7487,-179.4802 486.1864,-155.7474 511.1182,-138.6708 532.7209,-127.5894"/>
<polygon fill="#00ff00" stroke="#00ff00" stroke-width=".2409" points="534.2692,-130.7284 541.7293,-123.2053 531.2059,-124.4342 534.2692,-130.7284"/>
</g>
<!-- F_wall&#45;&gt;backward -->
<g id="edge8" class="edge">
<title>F_wall&#45;&gt;backward</title>
<path fill="none" stroke="#00ff00" stroke-width=".6591" stroke-dasharray="1,5" d="M1504.7916,-393.3406C1546.8266,-383.9084 1638.9399,-360.9875 1659.7487,-337.1026 1677.6328,-316.5748 1683.6997,-286.6331 1685.2626,-261.6029"/>
<polygon fill="#00ff00" stroke="#00ff00" stroke-width=".6591" points="1688.7611,-261.7085 1685.6713,-251.5743 1681.7669,-261.4234 1688.7611,-261.7085"/>
</g>
<!-- F_wall&#45;&gt;no_turn -->
<g id="edge37" class="edge">
<title>F_wall&#45;&gt;no_turn</title>
<path fill="none" stroke="#00ff00" stroke-width=".1219" d="M1462.4785,-393.5992C1420.0424,-384.6441 1327.3341,-362.5569 1308.7487,-337.1026 1291.9539,-314.1007 1292.0277,-281.5821 1295.8549,-255.9656"/>
<polygon fill="#00ff00" stroke="#00ff00" stroke-width=".1219" points="1299.3553,-256.2647 1297.6163,-245.8135 1292.4583,-255.068 1299.3553,-256.2647"/>
</g>
<!-- F_wall&#45;&gt;cw -->
<g id="edge16" class="edge">
<title>F_wall&#45;&gt;cw</title>
<path fill="none" stroke="#00ff00" stroke-width=".4849" stroke-dasharray="1,5" d="M1504.9201,-397.0338C1605.9828,-392.9559 2036.3609,-373.5476 2082.7487,-337.1026 2110.8443,-315.0291 2120.6211,-273.2273 2124.0004,-244.8778"/>
<polygon fill="#00ff00" stroke="#00ff00" stroke-width=".4849" points="2127.5017,-245.0374 2125.0072,-234.7405 2120.5359,-244.3456 2127.5017,-245.0374"/>
</g>
<!-- F_wall&#45;&gt;802 -->
<g id="edge108" class="edge">
<title>F_wall&#45;&gt;802</title>
<path fill="none" stroke="#ff0000" stroke-width=".5883" d="M1504.8225,-395.5913C1570.6538,-388.3098 1771.5856,-364.3467 1830.7487,-337.1026 1833.0562,-336.04 1835.3335,-334.7552 1837.5395,-333.3364"/>
<polygon fill="#ff0000" stroke="#ff0000" stroke-width=".5883" points="1839.6367,-336.1386 1845.6084,-327.3871 1835.4826,-330.5045 1839.6367,-336.1386"/>
</g>
<!-- F_wall&#45;&gt;40 -->
<g id="edge71" class="edge">
<title>F_wall&#45;&gt;40</title>
<path fill="none" stroke="#ff0000" stroke-width=".4533" d="M1505.0337,-396.5138C1623.5007,-389.0204 2197.492,-352.0519 2231.7487,-337.1026 2234.1965,-336.0344 2236.5678,-334.6506 2238.8219,-333.0834"/>
<polygon fill="#ff0000" stroke="#ff0000" stroke-width=".4533" points="2241.396,-335.495 2246.8482,-326.4107 2236.921,-330.1122 2241.396,-335.495"/>
</g>
<!-- 461 -->
<g id="node43" class="node">
<title>461</title>
<ellipse fill="#ffffff" stroke="#000000" cx="503.7487" cy="-215.5427" rx="21.4286" ry="21.4286"/>
<text text-anchor="middle" x="503.7487" y="-213.3427" font-family="Times,serif" font-size="9.00" fill="#000000">461</text>
</g>
<!-- F_wall&#45;&gt;461 -->
<g id="edge77" class="edge">
<title>F_wall&#45;&gt;461</title>
<path fill="none" stroke="#ff0000" stroke-width=".3735" stroke-dasharray="1,5" d="M1462.6389,-396.897C1322.8437,-390.5318 535.514,-353.9697 517.7487,-337.1026 493.8424,-314.405 493.7741,-274.5599 497.4284,-246.695"/>
<polygon fill="#ff0000" stroke="#ff0000" stroke-width=".3735" points="500.9105,-247.0783 498.9693,-236.6628 493.9916,-246.0155 500.9105,-247.0783"/>
</g>
<!-- F_wall&#45;&gt;596 -->
<g id="edge97" class="edge">
<title>F_wall&#45;&gt;596</title>
<path fill="none" stroke="#ff0000" stroke-width=".1901" d="M1462.7238,-396.982C1304.0208,-390.3977 299.7154,-348.3346 270.7487,-337.1026 268.5494,-336.2498 266.3915,-335.1688 264.3049,-333.9378"/>
<polygon fill="#ff0000" stroke="#ff0000" stroke-width=".1901" points="265.8826,-330.765 255.7044,-327.823 261.8264,-336.4701 265.8826,-330.765"/>
</g>
<!-- G_agent -->
<g id="node19" class="node">
<title>G_agent</title>
<polygon fill="#d3d3d3" stroke="#000000" points="1962.2487,-406.8513 1915.2487,-406.8513 1915.2487,-388.8513 1962.2487,-388.8513 1962.2487,-406.8513"/>
<text text-anchor="middle" x="1938.7487" y="-395.6513" font-family="Times,serif" font-size="9.00" fill="#000000">G_agent</text>
</g>
<!-- G_agent&#45;&gt;no_turn -->
<g id="edge22" class="edge">
<title>G_agent&#45;&gt;no_turn</title>
<path fill="none" stroke="#ff0000" stroke-width=".1319" stroke-dasharray="1,5" d="M1915.0807,-396.919C1810.3658,-392.5961 1391.9088,-373.1667 1346.7487,-337.1026 1322.6745,-317.8773 1312.6462,-283.9365 1308.5135,-256.7963"/>
<polygon fill="#ff0000" stroke="#ff0000" stroke-width=".1319" points="1311.9698,-256.2334 1307.2013,-246.7724 1305.029,-257.1421 1311.9698,-256.2334"/>
</g>
<!-- G_agent&#45;&gt;cw -->
<g id="edge62" class="edge">
<title>G_agent&#45;&gt;cw</title>
<path fill="none" stroke="#00ff00" stroke-width=".212" d="M1948.7415,-388.6505C1954.9486,-383.3903 1963.3268,-377.0703 1971.7487,-373.1026 2033.3795,-344.0676 2077.5187,-389.7576 2120.7487,-337.1026 2141.9284,-311.3054 2138.8657,-271.038 2133.4191,-243.9942"/>
<polygon fill="#00ff00" stroke="#00ff00" stroke-width=".212" points="2136.7787,-242.9801 2131.1752,-233.9884 2129.9483,-244.512 2136.7787,-242.9801"/>
</g>
<!-- 2490 -->
<g id="node39" class="node">
<title>2490</title>
<ellipse fill="#ffffff" stroke="#000000" cx="2197.7487" cy="-312.3539" rx="25" ry="25"/>
<text text-anchor="middle" x="2197.7487" y="-310.1539" font-family="Times,serif" font-size="9.00" fill="#000000">2490</text>
</g>
<!-- G_agent&#45;&gt;2490 -->
<g id="edge101" class="edge">
<title>G_agent&#45;&gt;2490</title>
<path fill="none" stroke="#ff0000" stroke-width=".3099" d="M1948.3917,-388.7506C1954.6016,-383.3901 1963.1052,-376.9298 1971.7487,-373.1026 2049.139,-338.8359 2080.081,-368.3251 2158.7487,-337.1026 2162.0539,-335.7908 2165.3842,-334.1909 2168.6318,-332.442"/>
<polygon fill="#ff0000" stroke="#ff0000" stroke-width=".3099" points="2170.6344,-335.3246 2177.4755,-327.2345 2167.0825,-329.2926 2170.6344,-335.3246"/>
</g>
<!-- G_lm -->
<g id="node20" class="node">
<title>G_lm</title>
<polygon fill="#d3d3d3" stroke="#000000" points="1079.2487,-321.3539 1042.2487,-321.3539 1042.2487,-303.3539 1079.2487,-303.3539 1079.2487,-321.3539"/>
<text text-anchor="middle" x="1060.7487" y="-310.1539" font-family="Times,serif" font-size="9.00" fill="#000000">G_lm</text>
</g>
<!-- G_lm&#45;&gt;no_move -->
<g id="edge3" class="edge">
<title>G_lm&#45;&gt;no_move</title>
<path fill="none" stroke="#00ff00" stroke-width=".1591" stroke-dasharray="1,5" d="M1057.7763,-303.0712C1054.4826,-292.7851 1048.9347,-275.4593 1043.6399,-258.924"/>
<polygon fill="#00ff00" stroke="#00ff00" stroke-width=".1591" points="1046.9536,-257.7951 1040.5706,-249.3388 1040.287,-259.9299 1046.9536,-257.7951"/>
</g>
<!-- G_lm&#45;&gt;forward -->
<g id="edge53" class="edge">
<title>G_lm&#45;&gt;forward</title>
<path fill="none" stroke="#ff0000" stroke-width=".402" d="M1050.8727,-303.1399C1045.6131,-298.3584 1038.9627,-292.5078 1032.7487,-287.6051 1016.3349,-274.6548 897.8834,-187.9057 878.7487,-179.4802 789.0245,-139.9723 674.083,-122.5181 613.4751,-115.6193"/>
<polygon fill="#ff0000" stroke="#ff0000" stroke-width=".402" points="613.8397,-112.1384 603.5173,-114.5258 613.0755,-119.0966 613.8397,-112.1384"/>
</g>
<!-- G_lm&#45;&gt;cw -->
<g id="edge23" class="edge">
<title>G_lm&#45;&gt;cw</title>
<path fill="none" stroke="#ff0000" stroke-width=".3454" stroke-dasharray="1,5" d="M1068.0585,-303.3494C1073.1956,-297.7349 1080.5879,-290.9598 1088.7487,-287.6051 1220.4985,-233.4464 1586.6851,-262.0499 1728.7487,-251.6051 1866.3764,-241.4865 2030.4631,-225.252 2096.2932,-218.5678"/>
<polygon fill="#ff0000" stroke="#ff0000" stroke-width=".3454" points="2096.7587,-222.0386 2106.3524,-217.543 2096.0492,-215.0747 2096.7587,-222.0386"/>
</g>
<!-- G_wall -->
<g id="node21" class="node">
<title>G_wall</title>
<polygon fill="#d3d3d3" stroke="#000000" points="1487.2487,-321.3539 1444.2487,-321.3539 1444.2487,-303.3539 1487.2487,-303.3539 1487.2487,-321.3539"/>
<text text-anchor="middle" x="1465.7487" y="-310.1539" font-family="Times,serif" font-size="9.00" fill="#000000">G_wall</text>
</g>
<!-- G_wall&#45;&gt;no_move -->
<g id="edge20" class="edge">
<title>G_wall&#45;&gt;no_move</title>
<path fill="none" stroke="#ff0000" stroke-width=".4393" stroke-dasharray="1,5" d="M1457.229,-303.0035C1451.6765,-297.549 1443.9569,-291.0776 1435.7487,-287.6051 1302.3119,-231.155 1251.672,-289.2014 1111.7487,-251.6051 1097.85,-247.8706 1083.2847,-242.1238 1070.3509,-236.3075"/>
<polygon fill="#ff0000" stroke="#ff0000" stroke-width=".4393" points="1071.7986,-233.1209 1061.2543,-232.0878 1068.853,-239.4709 1071.7986,-233.1209"/>
</g>
<!-- G_wall&#45;&gt;backward -->
<g id="edge49" class="edge">
<title>G_wall&#45;&gt;backward</title>
<path fill="none" stroke="#ff0000" stroke-width="1.0147" stroke-dasharray="1,5" d="M1486.2576,-303.2461C1521.5589,-287.5692 1594.5012,-255.1765 1641.176,-234.4487"/>
<polygon fill="#ff0000" stroke="#ff0000" stroke-width="1.0147" points="1642.7091,-237.5975 1650.4279,-230.3401 1639.868,-231.2 1642.7091,-237.5975"/>
</g>
<!-- G_wall&#45;&gt;no_turn -->
<g id="edge51" class="edge">
<title>G_wall&#45;&gt;no_turn</title>
<path fill="none" stroke="#ff0000" stroke-width=".1112" stroke-dasharray="1,5" d="M1456.0098,-303.1268C1450.3845,-298.113 1443.0037,-292.0483 1435.7487,-287.6051 1401.459,-266.605 1387.4038,-271.9967 1352.7487,-251.6051 1347.8734,-248.7364 1342.9236,-245.4358 1338.1562,-242.0212"/>
<polygon fill="#ff0000" stroke="#ff0000" stroke-width=".1112" points="1339.9389,-238.985 1329.8276,-235.8207 1335.7587,-244.5998 1339.9389,-238.985"/>
</g>
<!-- G_wall&#45;&gt;cw -->
<g id="edge27" class="edge">
<title>G_wall&#45;&gt;cw</title>
<path fill="none" stroke="#ff0000" stroke-width=".5036" d="M1487.1272,-303.2879C1500.5691,-297.9404 1518.4033,-291.4816 1534.7487,-287.6051 1643.9062,-261.7172 1992.8622,-227.9203 2096.4744,-218.2395"/>
<polygon fill="#ff0000" stroke="#ff0000" stroke-width=".5036" points="2096.8987,-221.7152 2106.5314,-217.3037 2096.2501,-214.7453 2096.8987,-221.7152"/>
</g>
<!-- G_wall&#45;&gt;895 -->
<g id="edge88" class="edge">
<title>G_wall&#45;&gt;895</title>
<path fill="none" stroke="#ff0000" stroke-width=".2534" stroke-dasharray="1,5" d="M1457.1024,-303.2836C1451.5021,-297.9345 1443.777,-291.4756 1435.7487,-287.6051 1366.1803,-254.0659 1340.6575,-270.4017 1265.7487,-251.6051 1233.4489,-243.5002 1196.8862,-232.6601 1171.8811,-224.9873"/>
<polygon fill="#ff0000" stroke="#ff0000" stroke-width=".2534" points="1172.8328,-221.6181 1162.2453,-222.0117 1170.7673,-228.3065 1172.8328,-221.6181"/>
</g>
<!-- H_agent -->
<g id="node22" class="node">
<title>H_agent</title>
<polygon fill="#d3d3d3" stroke="#000000" points="798.2487,-321.3539 751.2487,-321.3539 751.2487,-303.3539 798.2487,-303.3539 798.2487,-321.3539"/>
<text text-anchor="middle" x="774.7487" y="-310.1539" font-family="Times,serif" font-size="9.00" fill="#000000">H_agent</text>
</g>
<!-- H_agent&#45;&gt;no_move -->
<g id="edge1" class="edge">
<title>H_agent&#45;&gt;no_move</title>
<path fill="none" stroke="#ff0000" stroke-width=".2031" d="M786.9396,-303.2599C794.1699,-298.1661 803.6699,-291.979 812.7487,-287.6051 870.1019,-259.9745 940.7566,-238.6821 985.5398,-226.6302"/>
<polygon fill="#ff0000" stroke="#ff0000" stroke-width=".2031" points="986.4724,-230.0039 995.2397,-224.0555 984.6765,-223.2382 986.4724,-230.0039"/>
</g>
<!-- H_agent&#45;&gt;no_turn -->
<g id="edge6" class="edge">
<title>H_agent&#45;&gt;no_turn</title>
<path fill="none" stroke="#ff0000" stroke-width=".3272" stroke-dasharray="1,5" d="M796.7566,-303.2379C810.5917,-297.8717 828.9433,-291.4107 845.7487,-287.6051 987.9188,-255.4108 1028.5052,-278.6251 1171.7487,-251.6051 1203.9719,-245.5269 1239.8102,-235.7176 1266.3103,-227.863"/>
<polygon fill="#ff0000" stroke="#ff0000" stroke-width=".3272" points="1267.4107,-231.1871 1275.9825,-224.9602 1265.3985,-224.4825 1267.4107,-231.1871"/>
</g>
<!-- H_agent&#45;&gt;ccw -->
<g id="edge11" class="edge">
<title>H_agent&#45;&gt;ccw</title>
<path fill="none" stroke="#00ff00" stroke-width=".1428" stroke-dasharray="1,5" d="M785.3012,-303.305C826.5088,-268.4679 981.7138,-141.8767 1131.7487,-79.8406 1215.772,-45.0989 1323.1302,-30.2823 1375.7532,-24.7649"/>
<polygon fill="#00ff00" stroke="#00ff00" stroke-width=".1428" points="1376.2243,-28.2353 1385.8245,-23.7535 1375.5247,-21.2703 1376.2243,-28.2353"/>
</g>
<!-- H_agent&#45;&gt;2708 -->
<g id="edge111" class="edge">
<title>H_agent&#45;&gt;2708</title>
<path fill="none" stroke="#00ff00" stroke-width=".1785" d="M774.7487,-303.0712C774.7487,-291.0119 774.7487,-269.2763 774.7487,-250.4828"/>
<polygon fill="#00ff00" stroke="#00ff00" stroke-width=".1785" points="778.2488,-250.4248 774.7487,-240.4248 771.2488,-250.4249 778.2488,-250.4248"/>
</g>
<!-- H_lm -->
<g id="node23" class="node">
<title>H_lm</title>
<polygon fill="#d3d3d3" stroke="#000000" points="2582.2487,-321.3539 2545.2487,-321.3539 2545.2487,-303.3539 2582.2487,-303.3539 2582.2487,-321.3539"/>
<text text-anchor="middle" x="2563.7487" y="-310.1539" font-family="Times,serif" font-size="9.00" fill="#000000">H_lm</text>
</g>
<!-- H_lm&#45;&gt;no_turn -->
<g id="edge43" class="edge">
<title>H_lm&#45;&gt;no_turn</title>
<path fill="none" stroke="#ff0000" stroke-width=".2704" d="M2545.1568,-303.5685C2532.1846,-297.8946 2514.2987,-290.9655 2497.7487,-287.6051 2310.5128,-249.5883 1829.2698,-265.8981 1638.7487,-251.6051 1533.5013,-243.7094 1410.106,-228.8825 1347.1996,-220.9214"/>
<polygon fill="#ff0000" stroke="#ff0000" stroke-width=".2704" points="1347.2663,-217.4018 1336.9045,-219.6113 1346.3826,-224.3458 1347.2663,-217.4018"/>
</g>
<!-- H_lm&#45;&gt;ccw -->
<g id="edge44" class="edge">
<title>H_lm&#45;&gt;ccw</title>
<path fill="none" stroke="#00ff00" stroke-width=".2908" d="M2549.499,-303.2545C2541.0824,-298.159 2530.0824,-291.9718 2519.7487,-287.6051 2363.509,-221.583 2318.0899,-221.4536 2153.7487,-179.4802 1950.6483,-127.6076 1897.9075,-122.8573 1692.7487,-79.8406 1600.9801,-60.599 1492.3777,-38.7945 1439.6554,-28.2709"/>
<polygon fill="#00ff00" stroke="#00ff00" stroke-width=".2908" points="1440.0696,-24.7846 1429.5782,-26.261 1438.7004,-31.6494 1440.0696,-24.7846"/>
</g>
<!-- H_lm&#45;&gt;cw -->
<g id="edge34" class="edge">
<title>H_lm&#45;&gt;cw</title>
<path fill="none" stroke="#ff0000" stroke-width=".3922" d="M2554.1593,-303.1288C2547.9695,-297.7215 2539.4683,-291.2557 2530.7487,-287.6051 2431.6617,-246.1211 2397.4006,-271.0174 2291.7487,-251.6051 2243.3278,-242.7083 2187.4704,-230.0802 2154.4642,-222.3701"/>
<polygon fill="#ff0000" stroke="#ff0000" stroke-width=".3922" points="2155.1247,-218.93 2144.5893,-220.0505 2153.524,-225.7445 2155.1247,-218.93"/>
</g>
<!-- 13 -->
<g id="node32" class="node">
<title>13</title>
<ellipse fill="#ffffff" stroke="#000000" cx="2510.7487" cy="-111.6604" rx="18.2703" ry="18.2703"/>
<text text-anchor="middle" x="2510.7487" y="-109.4604" font-family="Times,serif" font-size="9.00" fill="#000000">13</text>
</g>
<!-- H_lm&#45;&gt;13 -->
<g id="edge68" class="edge">
<title>H_lm&#45;&gt;13</title>
<path fill="none" stroke="#00ff00" stroke-width=".1771" d="M2563.4463,-303.108C2562.511,-281.1616 2558.8109,-224.4027 2544.7487,-179.4802 2540.0769,-164.5558 2532.4248,-148.8863 2525.5619,-136.3734"/>
<polygon fill="#00ff00" stroke="#00ff00" stroke-width=".1771" points="2528.5023,-134.4628 2520.5301,-127.4846 2522.4106,-137.9112 2528.5023,-134.4628"/>
</g>
<!-- 2753 -->
<g id="node42" class="node">
<title>2753</title>
<ellipse fill="#ffffff" stroke="#000000" cx="2510.7487" cy="-215.5427" rx="25" ry="25"/>
<text text-anchor="middle" x="2510.7487" y="-213.3427" font-family="Times,serif" font-size="9.00" fill="#000000">2753</text>
</g>
<!-- H_lm&#45;&gt;2753 -->
<g id="edge109" class="edge">
<title>H_lm&#45;&gt;2753</title>
<path fill="none" stroke="#00ff00" stroke-width=".3022" d="M2558.6669,-303.0712C2551.5989,-290.1607 2538.4596,-266.16 2527.725,-246.552"/>
<polygon fill="#00ff00" stroke="#00ff00" stroke-width=".3022" points="2530.7117,-244.7188 2522.8395,-237.628 2524.5716,-248.0803 2530.7117,-244.7188"/>
</g>
<!-- H_wall -->
<g id="node24" class="node">
<title>H_wall</title>
<polygon fill="#d3d3d3" stroke="#000000" points="1256.2487,-321.3539 1213.2487,-321.3539 1213.2487,-303.3539 1256.2487,-303.3539 1256.2487,-321.3539"/>
<text text-anchor="middle" x="1234.7487" y="-310.1539" font-family="Times,serif" font-size="9.00" fill="#000000">H_wall</text>
</g>
<!-- H_wall&#45;&gt;no_turn -->
<g id="edge7" class="edge">
<title>H_wall&#45;&gt;no_turn</title>
<path fill="none" stroke="#ff0000" stroke-width=".1109" d="M1241.5565,-303.0712C1250.6268,-290.7035 1267.1611,-268.1584 1281.177,-249.0472"/>
<polygon fill="#ff0000" stroke="#ff0000" stroke-width=".1109" points="1284.1099,-250.9662 1287.2015,-240.8325 1278.4652,-246.8265 1284.1099,-250.9662"/>
</g>
<!-- hunger_change -->
<g id="node25" class="node">
<title>hunger_change</title>
<polygon fill="#d3d3d3" stroke="#000000" points="1821.2487,-321.3539 1750.2487,-321.3539 1750.2487,-303.3539 1821.2487,-303.3539 1821.2487,-321.3539"/>
<text text-anchor="middle" x="1785.7487" y="-310.1539" font-family="Times,serif" font-size="9.00" fill="#000000">hunger_change</text>
</g>
<!-- hunger_change&#45;&gt;no_move -->
<g id="edge21" class="edge">
<title>hunger_change&#45;&gt;no_move</title>
<path fill="none" stroke="#ff0000" stroke-width="1.7577" d="M1750.2203,-307.3512C1710.8192,-301.9291 1645.3396,-293.2918 1588.7487,-287.6051 1377.2112,-266.3483 1318.0116,-303.1379 1111.7487,-251.6051 1097.7862,-248.1167 1083.2033,-242.4381 1070.2729,-236.6085"/>
<polygon fill="#ff0000" stroke="#ff0000" stroke-width="1.7577" points="1071.7241,-233.4234 1061.1821,-232.3661 1068.7638,-239.7667 1071.7241,-233.4234"/>
</g>
<!-- hunger_change&#45;&gt;backward -->
<g id="edge33" class="edge">
<title>hunger_change&#45;&gt;backward</title>
<path fill="none" stroke="#00ff00" stroke-width="2.5502" d="M1775.9685,-303.0712C1762.557,-290.3419 1737.7864,-266.8314 1717.2925,-247.38"/>
<polygon fill="#00ff00" stroke="#00ff00" stroke-width="2.5502" points="1719.6272,-244.7704 1709.9645,-240.4248 1714.8082,-249.8476 1719.6272,-244.7704"/>
</g>
<!-- hunger_change&#45;&gt;cw -->
<g id="edge31" class="edge">
<title>hunger_change&#45;&gt;cw</title>
<path fill="none" stroke="#ff0000" stroke-width=".5872" d="M1799.8715,-303.3251C1808.5117,-298.1259 1819.9473,-291.8096 1830.7487,-287.6051 1924.7107,-251.0305 2042.9239,-228.8844 2096.7121,-220.0215"/>
<polygon fill="#ff0000" stroke="#ff0000" stroke-width=".5872" points="2097.2712,-223.4766 2106.5845,-218.4256 2096.1541,-216.5663 2097.2712,-223.4766"/>
</g>
<!-- 13&#45;&gt;ccw -->
<g id="edge69" class="edge">
<title>13&#45;&gt;ccw</title>
<path fill="none" stroke="#00ff00" stroke-width=".2134" stroke-dasharray="1,5" d="M2492.6641,-108.0161C2458.8554,-101.3444 2383.7051,-87.1797 2319.7487,-79.8406 1976.6087,-40.4648 1557.5368,-26.1725 1439.8335,-22.7775"/>
<polygon fill="#00ff00" stroke="#00ff00" stroke-width=".2134" points="1439.7976,-19.2752 1429.7026,-22.491 1439.5996,-26.2724 1439.7976,-19.2752"/>
</g>
<!-- 144&#45;&gt;forward -->
<g id="edge76" class="edge">
<title>144&#45;&gt;forward</title>
<path fill="none" stroke="#00ff00" stroke-width=".7152" stroke-dasharray="1,5" d="M260.5104,-207.2677C279.2055,-199.5859 308.1374,-188.0745 333.7487,-179.4802 402.0546,-156.5591 482.9982,-134.5657 530.7123,-122.1201"/>
<polygon fill="#00ff00" stroke="#00ff00" stroke-width=".7152" points="531.8606,-125.4381 540.6606,-119.5381 530.102,-118.6626 531.8606,-125.4381"/>
</g>
<!-- 2708&#45;&gt;forward -->
<g id="edge107" class="edge">
<title>2708&#45;&gt;forward</title>
<path fill="none" stroke="#00ff00" stroke-width=".3065" stroke-dasharray="1,5" d="M752.6377,-204.2277C718.2452,-186.6278 651.5216,-152.483 609.4318,-130.9442"/>
<polygon fill="#00ff00" stroke="#00ff00" stroke-width=".3065" points="610.8259,-127.726 600.3294,-126.2861 607.637,-133.9574 610.8259,-127.726"/>
</g>
<!-- 1819&#45;&gt;cw -->
<g id="edge95" class="edge">
<title>1819&#45;&gt;cw</title>
<path fill="none" stroke="#ff0000" stroke-width=".2817" d="M2408.6814,-372.8633C2405.2905,-347.8999 2396.3437,-310.0925 2372.7487,-287.6051 2341.0136,-257.3596 2212.7375,-231.1306 2154.6188,-220.5396"/>
<polygon fill="#ff0000" stroke="#ff0000" stroke-width=".2817" points="2155.0831,-217.0671 2144.6223,-218.7466 2153.8472,-223.9572 2155.0831,-217.0671"/>
</g>
<!-- 2638 -->
<g id="node44" class="node">
<title>2638</title>
<ellipse fill="#ffffff" stroke="#000000" cx="2463.7487" cy="-312.3539" rx="25" ry="25"/>
<text text-anchor="middle" x="2463.7487" y="-310.1539" font-family="Times,serif" font-size="9.00" fill="#000000">2638</text>
</g>
<!-- 1819&#45;&gt;2638 -->
<g id="edge104" class="edge">
<title>1819&#45;&gt;2638</title>
<path fill="none" stroke="#ff0000" stroke-width=".2265" d="M2423.8499,-376.7171C2430.2838,-366.3381 2438.1478,-353.6522 2445.1881,-342.2951"/>
<polygon fill="#ff0000" stroke="#ff0000" stroke-width=".2265" points="2448.3206,-343.8848 2450.6146,-333.5413 2442.371,-340.1966 2448.3206,-343.8848"/>
</g>
<!-- 802&#45;&gt;backward -->
<g id="edge85" class="edge">
<title>802&#45;&gt;backward</title>
<path fill="none" stroke="#00ff00" stroke-width=".4582" stroke-dasharray="1,5" d="M1844.7739,-298.013C1840.3835,-294.4002 1835.5151,-290.679 1830.7487,-287.6051 1797.4487,-266.1298 1756.8224,-246.6732 1726.725,-233.4055"/>
<polygon fill="#00ff00" stroke="#00ff00" stroke-width=".4582" points="1727.9115,-230.1047 1717.3458,-229.3205 1725.1164,-236.5225 1727.9115,-230.1047"/>
</g>
<!-- 40&#45;&gt;cw -->
<g id="edge72" class="edge">
<title>40&#45;&gt;cw</title>
<path fill="none" stroke="#00ff00" stroke-width=".7209" stroke-dasharray="1,5" d="M2245.3514,-299.3666C2241.1132,-295.453 2236.336,-291.2356 2231.7487,-287.6051 2205.1824,-266.5797 2172.7233,-245.0746 2150.7771,-231.097"/>
<polygon fill="#00ff00" stroke="#00ff00" stroke-width=".7209" points="2152.3865,-227.9738 2142.0631,-225.5908 2148.6472,-233.8914 2152.3865,-227.9738"/>
</g>
<!-- 2221&#45;&gt;forward -->
<g id="edge99" class="edge">
<title>2221&#45;&gt;forward</title>
<path fill="none" stroke="#00ff00" stroke-width=".1687" d="M146.9433,-196.5965C153.4003,-190.1959 161.3065,-183.6284 169.7487,-179.4802 232.8391,-148.4805 440.0476,-124.7564 529.7427,-115.6807"/>
<polygon fill="#00ff00" stroke="#00ff00" stroke-width=".1687" points="530.226,-119.1499 539.828,-114.672 529.5293,-112.1847 530.226,-119.1499"/>
</g>
<!-- 2490&#45;&gt;cw -->
<g id="edge102" class="edge">
<title>2490&#45;&gt;cw</title>
<path fill="none" stroke="#ff0000" stroke-width=".4786" stroke-dasharray="1,5" d="M2182.8303,-292.2945C2171.431,-276.967 2155.6774,-255.7848 2143.6074,-239.5554"/>
<polygon fill="#ff0000" stroke="#ff0000" stroke-width=".4786" points="2146.1079,-237.0527 2137.3318,-231.1172 2140.491,-241.2301 2146.1079,-237.0527"/>
</g>
<!-- 3007&#45;&gt;forward -->
<g id="edge115" class="edge">
<title>3007&#45;&gt;forward</title>
<path fill="none" stroke="#00ff00" stroke-width=".3656" d="M20.8257,-373.3162C15.0998,-327.8749 10.3259,-230.602 63.7487,-179.4802 97.2951,-147.3788 413.8656,-122.5381 529.6215,-114.4596"/>
<polygon fill="#00ff00" stroke="#00ff00" stroke-width=".3656" points="530.1258,-117.9332 539.8608,-113.7523 529.6434,-110.9498 530.1258,-117.9332"/>
</g>
<!-- 2753&#45;&gt;13 -->
<g id="edge110" class="edge">
<title>2753&#45;&gt;13</title>
<path fill="none" stroke="#00ff00" stroke-width=".3186" d="M2510.7487,-190.6603C2510.7487,-175.5416 2510.7487,-156.1793 2510.7487,-140.4076"/>
<polygon fill="#00ff00" stroke="#00ff00" stroke-width=".3186" points="2514.2488,-140.1585 2510.7487,-130.1586 2507.2488,-140.1586 2514.2488,-140.1585"/>
</g>
<!-- 461&#45;&gt;forward -->
<g id="edge78" class="edge">
<title>461&#45;&gt;forward</title>
<path fill="none" stroke="#00ff00" stroke-width="1.1077" d="M515.5934,-197.4478C524.6664,-183.5872 537.4675,-164.0312 548.5567,-147.0905"/>
<polygon fill="#00ff00" stroke="#00ff00" stroke-width="1.1077" points="551.6223,-148.7978 554.1707,-138.514 545.7654,-144.964 551.6223,-148.7978"/>
</g>
<!-- 2638&#45;&gt;cw -->
<g id="edge105" class="edge">
<title>2638&#45;&gt;cw</title>
<path fill="none" stroke="#00ff00" stroke-width=".4139" d="M2443.3953,-297.6687C2437.5828,-293.9732 2431.0981,-290.2969 2424.7487,-287.6051 2399.6736,-276.9745 2224.6501,-237.5164 2154.6164,-221.9329"/>
<polygon fill="#00ff00" stroke="#00ff00" stroke-width=".4139" points="2155.2166,-218.481 2144.6955,-219.7288 2153.6984,-225.3144 2155.2166,-218.481"/>
</g>
<!-- 1743&#45;&gt;ccw -->
<g id="edge92" class="edge">
<title>1743&#45;&gt;ccw</title>
<path fill="none" stroke="#ff0000" stroke-width=".2322" stroke-dasharray="1,5" d="M1211.7909,-94.6389C1218.0719,-89.361 1225.3947,-83.8772 1232.7487,-79.8406 1279.7312,-54.0524 1340.1345,-37.2175 1376.2936,-28.6578"/>
<polygon fill="#ff0000" stroke="#ff0000" stroke-width=".2322" points="1377.2968,-32.0185 1386.2567,-26.3642 1375.7264,-25.1969 1377.2968,-32.0185"/>
</g>
<!-- 593&#45;&gt;forward -->
<g id="edge81" class="edge">
<title>593&#45;&gt;forward</title>
<path fill="none" stroke="#ff0000" stroke-width=".3122" stroke-dasharray="1,5" d="M417.9667,-199.7289C424.502,-192.997 432.6023,-185.3595 440.7487,-179.4802 469.7281,-158.5659 506.0392,-140.3006 533.0779,-128.0109"/>
<polygon fill="#ff0000" stroke="#ff0000" stroke-width=".3122" points="534.5283,-131.1963 542.2279,-123.9185 531.6703,-124.8063 534.5283,-131.1963"/>
</g>
<!-- 596&#45;&gt;144 -->
<g id="edge83" class="edge">
<title>596&#45;&gt;144</title>
<path fill="none" stroke="#ff0000" stroke-width=".292" d="M240.7487,-290.8683C240.7487,-278.0838 240.7487,-261.6259 240.7487,-247.3565"/>
<polygon fill="#ff0000" stroke="#ff0000" stroke-width=".292" points="244.2488,-246.9681 240.7487,-236.9682 237.2488,-246.9682 244.2488,-246.9681"/>
</g>
<!-- 3042&#45;&gt;593 -->
<g id="edge117" class="edge">
<title>3042&#45;&gt;593</title>
<path fill="none" stroke="#00ff00" stroke-width=".3083" d="M403.0063,-287.4226C403.1341,-275.0447 403.2899,-259.9648 403.4257,-246.8196"/>
<polygon fill="#00ff00" stroke="#00ff00" stroke-width=".3083" points="406.9258,-246.8165 403.5294,-236.7808 399.9262,-246.7441 406.9258,-246.8165"/>
</g>
<!-- 2934&#45;&gt;no_move -->
<g id="edge113" class="edge">
<title>2934&#45;&gt;no_move</title>
<path fill="none" stroke="#00ff00" stroke-width=".2665" d="M899.7116,-297.4497C904.2795,-294.1441 909.1459,-290.7039 913.7487,-287.6051 938.9237,-270.6561 967.9257,-252.6393 990.633,-238.8604"/>
<polygon fill="#00ff00" stroke="#00ff00" stroke-width=".2665" points="992.5719,-241.7781 999.3193,-233.6096 988.9507,-235.7876 992.5719,-241.7781"/>
</g>
<!-- 895&#45;&gt;ccw -->
<g id="edge87" class="edge">
<title>895&#45;&gt;ccw</title>
<path fill="none" stroke="#ff0000" stroke-width=".3232" d="M1137.8981,-194.6499C1133.7568,-165.1426 1131.1705,-111.3524 1159.7487,-79.8406 1188.4693,-48.1718 1315.3227,-31.2966 1375.6551,-24.9365"/>
<polygon fill="#ff0000" stroke="#ff0000" stroke-width=".3232" points="1376.1748,-28.4017 1385.7674,-23.9036 1375.4635,-21.4379 1376.1748,-28.4017"/>
</g>
<!-- 895&#45;&gt;1743 -->
<g id="edge91" class="edge">
<title>895&#45;&gt;1743</title>
<path fill="none" stroke="#ff0000" stroke-width=".2618" stroke-dasharray="1,5" d="M1151.2863,-196.4891C1158.7575,-181.5637 1169.3095,-160.4836 1178.0253,-143.0717"/>
<polygon fill="#ff0000" stroke="#ff0000" stroke-width=".2618" points="1181.3008,-144.3472 1182.6473,-133.8382 1175.0412,-141.2138 1181.3008,-144.3472"/>
</g>
</g>
</svg>
