<?xml version="1.0" encoding="UTF-8" standalone="no"?>
<!DOCTYPE svg PUBLIC "-//W3C//DTD SVG 1.1//EN"
 "http://www.w3.org/Graphics/SVG/1.1/DTD/svg11.dtd">
<!-- Generated by graphviz version 2.40.1 (20161225.0304)
 -->
<!-- Title: %3 Pages: 1 -->
<svg width="721pt" height="318pt"
 viewBox="0.00 0.00 720.50 317.85" xmlns="http://www.w3.org/2000/svg" xmlns:xlink="http://www.w3.org/1999/xlink">
<g id="graph0" class="graph" transform="scale(1 1) rotate(0) translate(4 313.8478)">
<title>%3</title>
<polygon fill="#ffffff" stroke="transparent" points="-4,4 -4,-313.8478 716.5,-313.8478 716.5,4 -4,4"/>
<!-- x&#45;vel -->
<g id="node1" class="node">
<title>x&#45;vel</title>
<polygon fill="#d3d3d3" stroke="#000000" points="255.5,-309.8478 220.5,-309.8478 220.5,-291.8478 255.5,-291.8478 255.5,-309.8478"/>
<text text-anchor="middle" x="238" y="-298.6478" font-family="Times,serif" font-size="9.00" fill="#000000">x&#45;vel</text>
</g>
<!-- none -->
<g id="node13" class="node">
<title>none</title>
<ellipse fill="#add8e6" stroke="#000000" cx="257" cy="-132.1665" rx="24.0833" ry="24.0833"/>
<text text-anchor="middle" x="257" y="-129.9665" font-family="Times,serif" font-size="9.00" fill="#000000">none</text>
</g>
<!-- x&#45;vel&#45;&gt;none -->
<g id="edge10" class="edge">
<title>x&#45;vel&#45;&gt;none</title>
<path fill="none" stroke="#00ff00" stroke-width=".6822" d="M239.0215,-291.7787C241.6395,-268.5361 248.6958,-205.8905 253.1498,-166.3483"/>
<polygon fill="#00ff00" stroke="#00ff00" stroke-width=".6822" points="256.6351,-166.6746 254.2765,-156.3456 249.6791,-165.891 256.6351,-166.6746"/>
</g>
<!-- right -->
<g id="node14" class="node">
<title>right</title>
<ellipse fill="#add8e6" stroke="#000000" cx="399" cy="-224.028" rx="23.1702" ry="23.1702"/>
<text text-anchor="middle" x="399" y="-221.828" font-family="Times,serif" font-size="9.00" fill="#000000">right</text>
</g>
<!-- x&#45;vel&#45;&gt;right -->
<g id="edge12" class="edge">
<title>x&#45;vel&#45;&gt;right</title>
<path fill="none" stroke="#ff0000" stroke-width=".2101" d="M255.5069,-294.9137C289.4035,-283.3938 361.113,-258.8617 366,-255.8478 369.4082,-253.7458 372.7514,-251.2411 375.9234,-248.573"/>
<polygon fill="#ff0000" stroke="#ff0000" stroke-width=".2101" points="378.3773,-251.0718 383.3956,-241.7407 373.6537,-245.9057 378.3773,-251.0718"/>
</g>
<!-- left -->
<g id="node15" class="node">
<title>left</title>
<ellipse fill="#add8e6" stroke="#000000" cx="190" cy="-224.028" rx="19.6" ry="19.6"/>
<text text-anchor="middle" x="190" y="-221.828" font-family="Times,serif" font-size="9.00" fill="#000000">left</text>
</g>
<!-- x&#45;vel&#45;&gt;left -->
<g id="edge26" class="edge">
<title>x&#45;vel&#45;&gt;left</title>
<path fill="none" stroke="#00ff00" stroke-width=".2216" stroke-dasharray="1,5" d="M232.3053,-291.7339C225.8478,-281.3993 215.0375,-264.0982 205.9613,-249.5726"/>
<polygon fill="#00ff00" stroke="#00ff00" stroke-width=".2216" points="208.8558,-247.6 200.5886,-240.9741 202.9194,-251.3093 208.8558,-247.6"/>
</g>
<!-- y&#45;vel -->
<g id="node2" class="node">
<title>y&#45;vel</title>
<polygon fill="#d3d3d3" stroke="#000000" points="712.5,-309.8478 677.5,-309.8478 677.5,-291.8478 712.5,-291.8478 712.5,-309.8478"/>
<text text-anchor="middle" x="695" y="-298.6478" font-family="Times,serif" font-size="9.00" fill="#000000">y&#45;vel</text>
</g>
<!-- forward -->
<g id="node16" class="node">
<title>forward</title>
<ellipse fill="#add8e6" stroke="#000000" cx="510" cy="-224.028" rx="31.6406" ry="31.6406"/>
<text text-anchor="middle" x="510" y="-221.828" font-family="Times,serif" font-size="9.00" fill="#000000">forward</text>
</g>
<!-- y&#45;vel&#45;&gt;forward -->
<g id="edge27" class="edge">
<title>y&#45;vel&#45;&gt;forward</title>
<path fill="none" stroke="#00ff00" stroke-width=".2024" d="M677.2614,-293.482C647.9144,-281.2959 588.5801,-256.6577 549.058,-240.2465"/>
<polygon fill="#00ff00" stroke="#00ff00" stroke-width=".2024" points="550.0449,-236.8666 539.4672,-236.264 547.3604,-243.3314 550.0449,-236.8666"/>
</g>
<!-- backward -->
<g id="node17" class="node">
<title>backward</title>
<ellipse fill="#add8e6" stroke="#000000" cx="450" cy="-36.0624" rx="36.125" ry="36.125"/>
<text text-anchor="middle" x="450" y="-33.8624" font-family="Times,serif" font-size="9.00" fill="#000000">backward</text>
</g>
<!-- y&#45;vel&#45;&gt;backward -->
<g id="edge2" class="edge">
<title>y&#45;vel&#45;&gt;backward</title>
<path fill="none" stroke="#ff0000" stroke-width=".5152" stroke-dasharray="1,5" d="M678.3187,-291.7848C663.8846,-283.4996 642.8916,-270.3555 627,-255.8478 600.2311,-231.41 598.7143,-220.4542 576,-192.2082 542.9363,-151.0923 504.8898,-103.9691 479.3311,-72.3402"/>
<polygon fill="#ff0000" stroke="#ff0000" stroke-width=".5152" points="481.7986,-69.8252 472.7908,-64.2475 476.3543,-74.2251 481.7986,-69.8252"/>
</g>
<!-- 71 -->
<g id="node19" class="node">
<title>71</title>
<ellipse fill="#ffffff" stroke="#000000" cx="655" cy="-132.1665" rx="18.2703" ry="18.2703"/>
<text text-anchor="middle" x="655" y="-129.9665" font-family="Times,serif" font-size="9.00" fill="#000000">71</text>
</g>
<!-- y&#45;vel&#45;&gt;71 -->
<g id="edge29" class="edge">
<title>y&#45;vel&#45;&gt;71</title>
<path fill="none" stroke="#ff0000" stroke-width=".139" stroke-dasharray="1,5" d="M695.5851,-291.6099C696.5178,-272.5819 697.3004,-227.816 687,-192.2082 683.3951,-179.7463 676.9936,-166.9261 670.8585,-156.3488"/>
<polygon fill="#ff0000" stroke="#ff0000" stroke-width=".139" points="673.79,-154.4329 665.6127,-147.6963 667.8042,-158.062 673.79,-154.4329"/>
</g>
<!-- 253 -->
<g id="node21" class="node">
<title>253</title>
<ellipse fill="#ffffff" stroke="#000000" cx="657" cy="-224.028" rx="21.4286" ry="21.4286"/>
<text text-anchor="middle" x="657" y="-221.828" font-family="Times,serif" font-size="9.00" fill="#000000">253</text>
</g>
<!-- y&#45;vel&#45;&gt;253 -->
<g id="edge36" class="edge">
<title>y&#45;vel&#45;&gt;253</title>
<path fill="none" stroke="#00ff00" stroke-width=".4014" d="M690.4917,-291.7339C685.6996,-282.0463 677.8795,-266.2375 671.0006,-252.3313"/>
<polygon fill="#00ff00" stroke="#00ff00" stroke-width=".4014" points="674.0086,-250.518 666.4375,-243.1066 667.7342,-253.6218 674.0086,-250.518"/>
</g>
<!-- x&#45;pos -->
<g id="node3" class="node">
<title>x&#45;pos</title>
<polygon fill="#d3d3d3" stroke="#000000" points="588,-309.8478 552,-309.8478 552,-291.8478 588,-291.8478 588,-309.8478"/>
<text text-anchor="middle" x="570" y="-298.6478" font-family="Times,serif" font-size="9.00" fill="#000000">x&#45;pos</text>
</g>
<!-- x&#45;pos&#45;&gt;none -->
<g id="edge23" class="edge">
<title>x&#45;pos&#45;&gt;none</title>
<path fill="none" stroke="#00ff00" stroke-width=".308" d="M571.4605,-291.7801C574.2397,-271.039 577.8258,-219.8045 551,-192.2082 532.9165,-173.6052 364.9596,-147.5985 291.323,-136.9743"/>
<polygon fill="#00ff00" stroke="#00ff00" stroke-width=".308" points="291.5671,-133.4737 281.172,-135.5212 290.5751,-140.403 291.5671,-133.4737"/>
</g>
<!-- x&#45;pos&#45;&gt;right -->
<g id="edge9" class="edge">
<title>x&#45;pos&#45;&gt;right</title>
<path fill="none" stroke="#ff0000" stroke-width=".4415" stroke-dasharray="1,5" d="M551.7357,-292.7595C531.492,-283.7832 497.8837,-268.8469 469,-255.8478 456.1285,-250.055 441.9482,-243.6192 429.7361,-238.0597"/>
<polygon fill="#ff0000" stroke="#ff0000" stroke-width=".4415" points="430.9778,-234.7794 420.4267,-233.8181 428.0754,-241.1493 430.9778,-234.7794"/>
</g>
<!-- x&#45;pos&#45;&gt;forward -->
<g id="edge25" class="edge">
<title>x&#45;pos&#45;&gt;forward</title>
<path fill="none" stroke="#00ff00" stroke-width=".2757" stroke-dasharray="1,5" d="M562.8816,-291.7339C556.21,-283.1921 545.8215,-269.8912 536.012,-257.3319"/>
<polygon fill="#00ff00" stroke="#00ff00" stroke-width=".2757" points="538.6081,-254.9697 529.6943,-249.2431 533.0914,-259.2786 538.6081,-254.9697"/>
</g>
<!-- y&#45;pos -->
<g id="node4" class="node">
<title>y&#45;pos</title>
<polygon fill="#d3d3d3" stroke="#000000" points="386,-309.8478 350,-309.8478 350,-291.8478 386,-291.8478 386,-309.8478"/>
<text text-anchor="middle" x="368" y="-298.6478" font-family="Times,serif" font-size="9.00" fill="#000000">y&#45;pos</text>
</g>
<!-- y&#45;pos&#45;&gt;right -->
<g id="edge18" class="edge">
<title>y&#45;pos&#45;&gt;right</title>
<path fill="none" stroke="#00ff00" stroke-width=".3066" stroke-dasharray="1,5" d="M371.6778,-291.7339C375.3173,-282.7151 381.0976,-268.3911 386.4062,-255.236"/>
<polygon fill="#00ff00" stroke="#00ff00" stroke-width=".3066" points="389.6544,-256.5395 390.151,-245.9563 383.163,-253.9199 389.6544,-256.5395"/>
</g>
<!-- x&#45;lm1&#45;vec -->
<g id="node5" class="node">
<title>x&#45;lm1&#45;vec</title>
<polygon fill="#d3d3d3" stroke="#000000" points="533.5,-309.8478 480.5,-309.8478 480.5,-291.8478 533.5,-291.8478 533.5,-309.8478"/>
<text text-anchor="middle" x="507" y="-298.6478" font-family="Times,serif" font-size="9.00" fill="#000000">x&#45;lm1&#45;vec</text>
</g>
<!-- x&#45;lm1&#45;vec&#45;&gt;right -->
<g id="edge14" class="edge">
<title>x&#45;lm1&#45;vec&#45;&gt;right</title>
<path fill="none" stroke="#00ff00" stroke-width=".1043" d="M491.3367,-291.8163C476.6567,-283.1452 454.2934,-269.3995 436,-255.8478 432.0387,-252.9132 427.9666,-249.6688 424.0388,-246.407"/>
<polygon fill="#00ff00" stroke="#00ff00" stroke-width=".1043" points="426.1427,-243.6014 416.2607,-239.7808 421.6033,-248.93 426.1427,-243.6014"/>
</g>
<!-- x&#45;lm1&#45;vec&#45;&gt;left -->
<g id="edge13" class="edge">
<title>x&#45;lm1&#45;vec&#45;&gt;left</title>
<path fill="none" stroke="#ff0000" stroke-width=".1011" stroke-dasharray="1,5" d="M480.2944,-294.035C477.1658,-293.2773 474.0155,-292.5328 471,-291.8478 393.1417,-274.1614 372.399,-275.4466 295,-255.8478 268.8171,-249.2178 239.4255,-240.1701 218.4126,-233.4172"/>
<polygon fill="#ff0000" stroke="#ff0000" stroke-width=".1011" points="219.413,-230.0622 208.821,-230.307 217.2538,-236.7209 219.413,-230.0622"/>
</g>
<!-- x&#45;lm1&#45;vec&#45;&gt;forward -->
<g id="edge5" class="edge">
<title>x&#45;lm1&#45;vec&#45;&gt;forward</title>
<path fill="none" stroke="#00ff00" stroke-width=".4591" d="M507.3559,-291.7339C507.6117,-285.1855 507.9766,-275.8401 508.354,-266.176"/>
<polygon fill="#00ff00" stroke="#00ff00" stroke-width=".4591" points="511.8548,-266.2226 508.7478,-256.0936 504.8601,-265.9494 511.8548,-266.2226"/>
</g>
<!-- 225 -->
<g id="node18" class="node">
<title>225</title>
<ellipse fill="#ffffff" stroke="#000000" cx="450" cy="-132.1665" rx="21.4286" ry="21.4286"/>
<text text-anchor="middle" x="450" y="-129.9665" font-family="Times,serif" font-size="9.00" fill="#000000">225</text>
</g>
<!-- x&#45;lm1&#45;vec&#45;&gt;225 -->
<g id="edge34" class="edge">
<title>x&#45;lm1&#45;vec&#45;&gt;225</title>
<path fill="none" stroke="#00ff00" stroke-width=".3376" d="M496.467,-291.6067C487.6246,-283.2073 475.4346,-269.9958 469,-255.8478 455.7003,-226.6053 451.4258,-189.8778 450.1875,-164.0698"/>
<polygon fill="#00ff00" stroke="#00ff00" stroke-width=".3376" points="453.6734,-163.6027 449.8253,-153.7314 446.6777,-163.8479 453.6734,-163.6027"/>
</g>
<!-- y&#45;lm1&#45;vec -->
<g id="node6" class="node">
<title>y&#45;lm1&#45;vec</title>
<polygon fill="#d3d3d3" stroke="#000000" points="659.5,-309.8478 606.5,-309.8478 606.5,-291.8478 659.5,-291.8478 659.5,-309.8478"/>
<text text-anchor="middle" x="633" y="-298.6478" font-family="Times,serif" font-size="9.00" fill="#000000">y&#45;lm1&#45;vec</text>
</g>
<!-- y&#45;lm1&#45;vec&#45;&gt;forward -->
<g id="edge6" class="edge">
<title>y&#45;lm1&#45;vec&#45;&gt;forward</title>
<path fill="none" stroke="#ff0000" stroke-width=".278" d="M618.4073,-291.7339C600.6112,-280.6193 569.9136,-261.4471 545.7175,-246.3354"/>
<polygon fill="#ff0000" stroke="#ff0000" stroke-width=".278" points="547.469,-243.3028 537.1332,-240.9741 543.7609,-249.24 547.469,-243.3028"/>
</g>
<!-- x&#45;lm2&#45;vec -->
<g id="node7" class="node">
<title>x&#45;lm2&#45;vec</title>
<polygon fill="#d3d3d3" stroke="#000000" points="357.5,-233.028 304.5,-233.028 304.5,-215.028 357.5,-215.028 357.5,-233.028"/>
<text text-anchor="middle" x="331" y="-221.828" font-family="Times,serif" font-size="9.00" fill="#000000">x&#45;lm2&#45;vec</text>
</g>
<!-- x&#45;lm2&#45;vec&#45;&gt;none -->
<g id="edge11" class="edge">
<title>x&#45;lm2&#45;vec&#45;&gt;none</title>
<path fill="none" stroke="#00ff00" stroke-width=".3227" d="M323.6341,-214.8841C313.2526,-201.9968 293.8886,-177.959 278.7,-159.1042"/>
<polygon fill="#00ff00" stroke="#00ff00" stroke-width=".3227" points="281.2729,-156.719 272.2739,-151.1272 275.8217,-161.1104 281.2729,-156.719"/>
</g>
<!-- y&#45;lm2&#45;vec -->
<g id="node8" class="node">
<title>y&#45;lm2&#45;vec</title>
<polygon fill="#d3d3d3" stroke="#000000" points="127.5,-309.8478 74.5,-309.8478 74.5,-291.8478 127.5,-291.8478 127.5,-309.8478"/>
<text text-anchor="middle" x="101" y="-298.6478" font-family="Times,serif" font-size="9.00" fill="#000000">y&#45;lm2&#45;vec</text>
</g>
<!-- y&#45;lm2&#45;vec&#45;&gt;right -->
<g id="edge19" class="edge">
<title>y&#45;lm2&#45;vec&#45;&gt;right</title>
<path fill="none" stroke="#00ff00" stroke-width=".5431" stroke-dasharray="1,5" d="M127.6761,-293.8978C130.81,-293.1647 133.9696,-292.4635 137,-291.8478 237.9647,-271.3335 273.7532,-301.7308 366,-255.8478 369.6632,-254.0257 373.1858,-251.6524 376.4767,-249.0226"/>
<polygon fill="#00ff00" stroke="#00ff00" stroke-width=".5431" points="379.0437,-251.4208 384.1275,-242.1253 374.3565,-246.2216 379.0437,-251.4208"/>
</g>
<!-- y&#45;lm2&#45;vec&#45;&gt;left -->
<g id="edge4" class="edge">
<title>y&#45;lm2&#45;vec&#45;&gt;left</title>
<path fill="none" stroke="#ff0000" stroke-width=".1832" d="M112.5606,-291.7575C123.8194,-282.819 141.3323,-268.6867 156,-255.8478 160.0036,-252.3434 164.1957,-248.5378 168.2149,-244.8176"/>
<polygon fill="#ff0000" stroke="#ff0000" stroke-width=".1832" points="170.7277,-247.2596 175.6357,-237.8702 165.9435,-242.1496 170.7277,-247.2596"/>
</g>
<!-- y&#45;lm2&#45;vec&#45;&gt;backward -->
<g id="edge22" class="edge">
<title>y&#45;lm2&#45;vec&#45;&gt;backward</title>
<path fill="none" stroke="#00ff00" stroke-width=".3094" stroke-dasharray="1,5" d="M105.7458,-291.5126C123.7471,-256.4463 188.5813,-133.3156 224,-108.1249 278.83,-69.1284 355.7244,-50.5561 404.1881,-42.2217"/>
<polygon fill="#00ff00" stroke="#00ff00" stroke-width=".3094" points="404.7806,-45.6714 414.0801,-40.595 403.6446,-38.7642 404.7806,-45.6714"/>
</g>
<!-- x&#45;other&#45;vec -->
<g id="node9" class="node">
<title>x&#45;other&#45;vec</title>
<polygon fill="#d3d3d3" stroke="#000000" points="332,-309.8478 274,-309.8478 274,-291.8478 332,-291.8478 332,-309.8478"/>
<text text-anchor="middle" x="303" y="-298.6478" font-family="Times,serif" font-size="9.00" fill="#000000">x&#45;other&#45;vec</text>
</g>
<!-- x&#45;other&#45;vec&#45;&gt;none -->
<g id="edge28" class="edge">
<title>x&#45;other&#45;vec&#45;&gt;none</title>
<path fill="none" stroke="#00ff00" stroke-width=".2144" stroke-dasharray="1,5" d="M300.5268,-291.7787C294.1235,-268.2978 276.7534,-204.6018 265.9918,-165.1393"/>
<polygon fill="#00ff00" stroke="#00ff00" stroke-width=".2144" points="269.351,-164.1541 263.3433,-155.4273 262.5976,-165.9958 269.351,-164.1541"/>
</g>
<!-- x&#45;other&#45;vec&#45;&gt;left -->
<g id="edge3" class="edge">
<title>x&#45;other&#45;vec&#45;&gt;left</title>
<path fill="none" stroke="#ff0000" stroke-width=".3217" d="M289.5937,-291.7339C271.3234,-279.3133 238.2516,-256.8304 215.2543,-241.1964"/>
<polygon fill="#ff0000" stroke="#ff0000" stroke-width=".3217" points="216.9245,-238.0997 206.6868,-235.372 212.9891,-243.8886 216.9245,-238.0997"/>
</g>
<!-- x&#45;other&#45;vec&#45;&gt;forward -->
<g id="edge15" class="edge">
<title>x&#45;other&#45;vec&#45;&gt;forward</title>
<path fill="none" stroke="#ff0000" stroke-width=".5028" d="M330.0964,-291.7159C356.0925,-282.8621 396.3948,-268.8924 431,-255.8478 444.1201,-250.9021 458.3601,-245.2543 471.09,-240.1032"/>
<polygon fill="#ff0000" stroke="#ff0000" stroke-width=".5028" points="472.5426,-243.2908 480.4867,-236.2807 469.9049,-236.8068 472.5426,-243.2908"/>
</g>
<!-- y&#45;other&#45;vec -->
<g id="node10" class="node">
<title>y&#45;other&#45;vec</title>
<polygon fill="#d3d3d3" stroke="#000000" points="462,-309.8478 404,-309.8478 404,-291.8478 462,-291.8478 462,-309.8478"/>
<text text-anchor="middle" x="433" y="-298.6478" font-family="Times,serif" font-size="9.00" fill="#000000">y&#45;other&#45;vec</text>
</g>
<!-- y&#45;other&#45;vec&#45;&gt;right -->
<g id="edge17" class="edge">
<title>y&#45;other&#45;vec&#45;&gt;right</title>
<path fill="none" stroke="#ff0000" stroke-width=".2368" d="M428.9662,-291.7339C424.9463,-282.6512 418.5448,-268.1877 412.6887,-254.9563"/>
<polygon fill="#ff0000" stroke="#ff0000" stroke-width=".2368" points="415.8106,-253.362 408.5628,-245.6342 409.4096,-256.1951 415.8106,-253.362"/>
</g>
<!-- y&#45;other&#45;vec&#45;&gt;left -->
<g id="edge7" class="edge">
<title>y&#45;other&#45;vec&#45;&gt;left</title>
<path fill="none" stroke="#ff0000" stroke-width=".1596" d="M404.1705,-291.7339C357.4187,-276.9542 265.5971,-247.9265 218.8392,-233.1449"/>
<polygon fill="#ff0000" stroke="#ff0000" stroke-width=".1596" points="219.6324,-229.725 209.0425,-230.0479 217.5224,-236.3994 219.6324,-229.725"/>
</g>
<!-- y&#45;other&#45;vec&#45;&gt;forward -->
<g id="edge16" class="edge">
<title>y&#45;other&#45;vec&#45;&gt;forward</title>
<path fill="none" stroke="#ff0000" stroke-width=".4081" d="M442.1353,-291.7339C451.4795,-282.4115 466.5057,-267.4205 480.0464,-253.9114"/>
<polygon fill="#ff0000" stroke="#ff0000" stroke-width=".4081" points="482.7633,-256.1449 487.3707,-246.6043 477.8194,-251.1893 482.7633,-256.1449"/>
</g>
<!-- x&#45;other&#45;vel -->
<g id="node11" class="node">
<title>x&#45;other&#45;vel</title>
<polygon fill="#d3d3d3" stroke="#000000" points="56,-309.8478 0,-309.8478 0,-291.8478 56,-291.8478 56,-309.8478"/>
<text text-anchor="middle" x="28" y="-298.6478" font-family="Times,serif" font-size="9.00" fill="#000000">x&#45;other&#45;vel</text>
</g>
<!-- x&#45;other&#45;vel&#45;&gt;none -->
<g id="edge8" class="edge">
<title>x&#45;other&#45;vel&#45;&gt;none</title>
<path fill="none" stroke="#00ff00" stroke-width=".6846" stroke-dasharray="1,5" d="M28.7953,-291.8224C31.0988,-271.1703 39.6161,-220.1099 69,-192.2082 91.3954,-170.9424 175.4755,-149.8533 223.2594,-139.2374"/>
<polygon fill="#00ff00" stroke="#00ff00" stroke-width=".6846" points="224.1316,-142.6294 233.1529,-137.0737 222.6361,-135.791 224.1316,-142.6294"/>
</g>
<!-- x&#45;other&#45;vel&#45;&gt;right -->
<g id="edge1" class="edge">
<title>x&#45;other&#45;vel&#45;&gt;right</title>
<path fill="none" stroke="#00ff00" stroke-width=".5389" stroke-dasharray="1,5" d="M56.2076,-293.6184C59.1661,-292.9706 62.1376,-292.3652 65,-291.8478 197.5827,-267.883 244.281,-313.6145 366,-255.8478 369.6961,-254.0936 373.2385,-251.7609 376.5399,-249.1527"/>
<polygon fill="#00ff00" stroke="#00ff00" stroke-width=".5389" points="379.0978,-251.5598 384.1999,-242.2744 374.4209,-246.3514 379.0978,-251.5598"/>
</g>
<!-- x&#45;other&#45;vel&#45;&gt;left -->
<g id="edge20" class="edge">
<title>x&#45;other&#45;vel&#45;&gt;left</title>
<path fill="none" stroke="#00ff00" stroke-width=".1154" d="M47.2893,-291.7177C66.485,-282.6303 96.7823,-268.2829 123,-255.8478 136.1282,-249.621 150.6998,-242.7016 162.892,-236.9098"/>
<polygon fill="#00ff00" stroke="#00ff00" stroke-width=".1154" points="164.5563,-239.9941 172.0867,-232.5414 161.5523,-233.6714 164.5563,-239.9941"/>
</g>
<!-- x&#45;other&#45;vel&#45;&gt;backward -->
<g id="edge21" class="edge">
<title>x&#45;other&#45;vel&#45;&gt;backward</title>
<path fill="none" stroke="#ff0000" stroke-width=".1022" d="M25.5373,-291.5646C20.8218,-271.673 12.6116,-224.1553 32,-192.2082 72.2172,-125.9405 305.0061,-67.857 404.7046,-45.6597"/>
<polygon fill="#ff0000" stroke="#ff0000" stroke-width=".1022" points="405.4811,-49.0726 414.4924,-43.5008 403.9733,-42.2369 405.4811,-49.0726"/>
</g>
<!-- 86 -->
<g id="node20" class="node">
<title>86</title>
<ellipse fill="#ffffff" stroke="#000000" cx="96" cy="-224.028" rx="18.2703" ry="18.2703"/>
<text text-anchor="middle" x="96" y="-221.828" font-family="Times,serif" font-size="9.00" fill="#000000">86</text>
</g>
<!-- x&#45;other&#45;vel&#45;&gt;86 -->
<g id="edge31" class="edge">
<title>x&#45;other&#45;vel&#45;&gt;86</title>
<path fill="none" stroke="#00ff00" stroke-width=".3117" stroke-dasharray="1,5" d="M36.0675,-291.7339C46.1336,-280.3622 63.666,-260.5558 77.1761,-245.2934"/>
<polygon fill="#00ff00" stroke="#00ff00" stroke-width=".3117" points="79.8061,-247.6028 83.8135,-237.795 74.5646,-242.963 79.8061,-247.6028"/>
</g>
<!-- y&#45;other&#45;vel -->
<g id="node12" class="node">
<title>y&#45;other&#45;vel</title>
<polygon fill="#d3d3d3" stroke="#000000" points="202,-309.8478 146,-309.8478 146,-291.8478 202,-291.8478 202,-309.8478"/>
<text text-anchor="middle" x="174" y="-298.6478" font-family="Times,serif" font-size="9.00" fill="#000000">y&#45;other&#45;vel</text>
</g>
<!-- y&#45;other&#45;vel&#45;&gt;left -->
<g id="edge24" class="edge">
<title>y&#45;other&#45;vel&#45;&gt;left</title>
<path fill="none" stroke="#ff0000" stroke-width=".1693" stroke-dasharray="1,5" d="M175.8982,-291.7339C177.864,-282.296 181.0398,-267.0482 183.8803,-253.41"/>
<polygon fill="#ff0000" stroke="#ff0000" stroke-width=".1693" points="187.3489,-253.9211 185.9616,-243.4175 180.496,-252.4937 187.3489,-253.9211"/>
</g>
<!-- right&#45;&gt;71 -->
<g id="edge33" class="edge">
<title>right&#45;&gt;71</title>
<path fill="none" stroke="#00ff00" stroke-width=".484" stroke-dasharray="1,5" d="M420.1753,-213.6369C433.9216,-207.083 452.3187,-198.6676 469,-192.2082 524.152,-170.8519 590.4236,-150.7442 627.1081,-140.0844"/>
<polygon fill="#00ff00" stroke="#00ff00" stroke-width=".484" points="628.4294,-143.346 637.0678,-137.2117 626.4894,-136.6202 628.4294,-143.346"/>
</g>
<!-- 225&#45;&gt;backward -->
<g id="edge35" class="edge">
<title>225&#45;&gt;backward</title>
<path fill="none" stroke="#00ff00" stroke-width=".1065" d="M450,-110.8379C450,-102.4653 450,-92.5056 450,-82.6296"/>
<polygon fill="#00ff00" stroke="#00ff00" stroke-width=".1065" points="453.5001,-82.4381 450,-72.4381 446.5001,-82.4381 453.5001,-82.4381"/>
</g>
<!-- 71&#45;&gt;backward -->
<g id="edge30" class="edge">
<title>71&#45;&gt;backward</title>
<path fill="none" stroke="#ff0000" stroke-width=".3278" d="M640.3799,-120.3871C634.817,-116.2122 628.2988,-111.6746 622,-108.1249 580.3627,-84.6603 529.552,-64.295 493.9926,-51.2571"/>
<polygon fill="#ff0000" stroke="#ff0000" stroke-width=".3278" points="494.982,-47.893 484.3878,-47.7775 492.5977,-54.4744 494.982,-47.893"/>
</g>
<!-- 86&#45;&gt;none -->
<g id="edge32" class="edge">
<title>86&#45;&gt;none</title>
<path fill="none" stroke="#ff0000" stroke-width=".115" d="M112.0259,-214.8841C138.7802,-199.6189 192.9549,-168.7086 226.9727,-149.2992"/>
<polygon fill="#ff0000" stroke="#ff0000" stroke-width=".115" points="229.0422,-152.148 235.9934,-144.1522 225.5732,-146.068 229.0422,-152.148"/>
</g>
<!-- 253&#45;&gt;71 -->
<g id="edge37" class="edge">
<title>253&#45;&gt;71</title>
<path fill="none" stroke="#ff0000" stroke-width=".2261" d="M656.5361,-202.7222C656.2648,-190.2594 655.9187,-174.3624 655.6237,-160.8142"/>
<polygon fill="#ff0000" stroke="#ff0000" stroke-width=".2261" points="659.1175,-160.4842 655.4005,-150.5628 652.1191,-160.6367 659.1175,-160.4842"/>
</g>
</g>
</svg>
