<?xml version="1.0" encoding="UTF-8" standalone="no"?>
<!DOCTYPE svg PUBLIC "-//W3C//DTD SVG 1.1//EN"
 "http://www.w3.org/Graphics/SVG/1.1/DTD/svg11.dtd">
<!-- Generated by graphviz version 2.40.1 (20161225.0304)
 -->
<!-- Title: %3 Pages: 1 -->
<svg width="1195pt" height="374pt"
 viewBox="0.00 0.00 1195.10 373.65" xmlns="http://www.w3.org/2000/svg" xmlns:xlink="http://www.w3.org/1999/xlink">
<g id="graph0" class="graph" transform="scale(1 1) rotate(0) translate(4 369.6468)">
<title>%3</title>
<polygon fill="#ffffff" stroke="transparent" points="-4,4 -4,-369.6468 1191.0956,-369.6468 1191.0956,4 -4,4"/>
<!-- x&#45;vel -->
<g id="node1" class="node">
<title>x&#45;vel</title>
<polygon fill="#d3d3d3" stroke="#000000" points="54.1667,-299.4335 19.1667,-299.4335 19.1667,-281.4335 54.1667,-281.4335 54.1667,-299.4335"/>
<text text-anchor="middle" x="36.6667" y="-288.2335" font-family="Times,serif" font-size="9.00" fill="#000000">x&#45;vel</text>
</g>
<!-- forward -->
<g id="node16" class="node">
<title>forward</title>
<ellipse fill="#add8e6" stroke="#000000" cx="257.6667" cy="-111.6604" rx="31.6406" ry="31.6406"/>
<text text-anchor="middle" x="257.6667" y="-109.4604" font-family="Times,serif" font-size="9.00" fill="#000000">forward</text>
</g>
<!-- x&#45;vel&#45;&gt;forward -->
<g id="edge3" class="edge">
<title>x&#45;vel&#45;&gt;forward</title>
<path fill="none" stroke="#ff0000" stroke-width=".9622" d="M34.4423,-281.3268C30.0632,-260.9777 22.7762,-211.4344 47.6667,-183.7229 98.9837,-126.5894 148.0467,-182.2045 216.6667,-147.7229 220.2798,-145.9073 223.8272,-143.6954 227.2305,-141.2699"/>
<polygon fill="#ff0000" stroke="#ff0000" stroke-width=".9622" points="229.639,-143.829 235.3484,-134.9042 225.3195,-138.3206 229.639,-143.829"/>
</g>
<!-- 221 -->
<g id="node27" class="node">
<title>221</title>
<ellipse fill="#ffffff" stroke="#000000" cx="77.6667" cy="-208.4716" rx="21.4286" ry="21.4286"/>
<text text-anchor="middle" x="77.6667" y="-206.2716" font-family="Times,serif" font-size="9.00" fill="#000000">221</text>
</g>
<!-- x&#45;vel&#45;&gt;221 -->
<g id="edge29" class="edge">
<title>x&#45;vel&#45;&gt;221</title>
<path fill="none" stroke="#00ff00" stroke-width=".588" stroke-dasharray="1,5" d="M41.211,-281.349C46.5634,-270.6492 55.7136,-252.3574 63.5074,-236.777"/>
<polygon fill="#00ff00" stroke="#00ff00" stroke-width=".588" points="66.7952,-238.0277 68.1388,-227.5184 60.5348,-234.896 66.7952,-238.0277"/>
</g>
<!-- y&#45;vel -->
<g id="node2" class="node">
<title>y&#45;vel</title>
<polygon fill="#d3d3d3" stroke="#000000" points="932.1667,-217.4716 897.1667,-217.4716 897.1667,-199.4716 932.1667,-199.4716 932.1667,-217.4716"/>
<text text-anchor="middle" x="914.6667" y="-206.2716" font-family="Times,serif" font-size="9.00" fill="#000000">y&#45;vel</text>
</g>
<!-- right -->
<g id="node14" class="node">
<title>right</title>
<ellipse fill="#add8e6" stroke="#000000" cx="913.6667" cy="-111.6604" rx="23.1702" ry="23.1702"/>
<text text-anchor="middle" x="913.6667" y="-109.4604" font-family="Times,serif" font-size="9.00" fill="#000000">right</text>
</g>
<!-- y&#45;vel&#45;&gt;right -->
<g id="edge27" class="edge">
<title>y&#45;vel&#45;&gt;right</title>
<path fill="none" stroke="#ff0000" stroke-width=".6747" stroke-dasharray="1,5" d="M914.5708,-199.1889C914.4437,-186.89 914.2127,-164.5266 914.016,-145.484"/>
<polygon fill="#ff0000" stroke="#ff0000" stroke-width=".6747" points="917.5144,-145.2948 913.9112,-135.3315 910.5147,-145.3671 917.5144,-145.2948"/>
</g>
<!-- x&#45;pos -->
<g id="node3" class="node">
<title>x&#45;pos</title>
<polygon fill="#d3d3d3" stroke="#000000" points="950.6667,-365.6468 914.6667,-365.6468 914.6667,-347.6468 950.6667,-347.6468 950.6667,-365.6468"/>
<text text-anchor="middle" x="932.6667" y="-354.4468" font-family="Times,serif" font-size="9.00" fill="#000000">x&#45;pos</text>
</g>
<!-- none -->
<g id="node13" class="node">
<title>none</title>
<ellipse fill="#add8e6" stroke="#000000" cx="639.6667" cy="-111.6604" rx="24.0833" ry="24.0833"/>
<text text-anchor="middle" x="639.6667" y="-109.4604" font-family="Times,serif" font-size="9.00" fill="#000000">none</text>
</g>
<!-- x&#45;pos&#45;&gt;none -->
<g id="edge5" class="edge">
<title>x&#45;pos&#45;&gt;none</title>
<path fill="none" stroke="#00ff00" stroke-width=".1297" stroke-dasharray="1,5" d="M922.8473,-347.4189C901.7026,-327.3818 850.6251,-278.0801 811.6667,-233.2203 793.4814,-212.2804 794.7941,-201.6899 773.6667,-183.7229 742.7067,-157.3942 700.5584,-136.6831 671.8537,-124.3475"/>
<polygon fill="#00ff00" stroke="#00ff00" stroke-width=".1297" points="672.8768,-120.9812 662.3015,-120.338 670.1675,-127.4356 672.8768,-120.9812"/>
</g>
<!-- x&#45;pos&#45;&gt;right -->
<g id="edge18" class="edge">
<title>x&#45;pos&#45;&gt;right</title>
<path fill="none" stroke="#00ff00" stroke-width=".1312" stroke-dasharray="1,5" d="M950.6904,-350.67C953.9976,-349.6257 957.4276,-348.5769 960.6667,-347.6468 1023.2452,-329.6761 1050.0701,-350.0214 1102.6667,-311.6468 1151.8505,-275.762 1187.9474,-232.6154 1151.6667,-183.7229 1127.094,-150.6083 1006.6681,-126.788 947.1254,-116.8303"/>
<polygon fill="#00ff00" stroke="#00ff00" stroke-width=".1312" points="947.5269,-113.3495 937.0927,-115.1875 946.3958,-120.2575 947.5269,-113.3495"/>
</g>
<!-- left -->
<g id="node15" class="node">
<title>left</title>
<ellipse fill="#add8e6" stroke="#000000" cx="527.6667" cy="-19.799" rx="19.6" ry="19.6"/>
<text text-anchor="middle" x="527.6667" y="-17.599" font-family="Times,serif" font-size="9.00" fill="#000000">left</text>
</g>
<!-- x&#45;pos&#45;&gt;left -->
<g id="edge24" class="edge">
<title>x&#45;pos&#45;&gt;left</title>
<path fill="none" stroke="#ff0000" stroke-width=".142" stroke-dasharray="1,5" d="M950.9558,-350.4455C954.1737,-349.447 957.5047,-348.4719 960.6667,-347.6468 1038.7639,-327.2657 1075.939,-362.4386 1138.6667,-311.6468 1184.3867,-274.6263 1201.6385,-234.9232 1172.6667,-183.7229 1126.7068,-102.5008 1080.9495,-105.8546 992.6667,-75.598 911.3636,-47.7335 647.2325,-27.8379 557.6793,-21.752"/>
<polygon fill="#ff0000" stroke="#ff0000" stroke-width=".142" points="557.8596,-18.2563 547.6476,-21.0787 557.3907,-25.2406 557.8596,-18.2563"/>
</g>
<!-- x&#45;pos&#45;&gt;forward -->
<g id="edge19" class="edge">
<title>x&#45;pos&#45;&gt;forward</title>
<path fill="none" stroke="#ff0000" stroke-width=".3233" stroke-dasharray="1,5" d="M914.5127,-356.4641C787.9966,-355.1053 42.0655,-345.6636 9.6667,-311.6468 -11.1483,-289.7922 7.7941,-201.6186 25.6667,-183.7229 86.7095,-122.6009 139.0282,-185.5963 216.6667,-147.7229 220.301,-145.95 223.8625,-143.7667 227.2745,-141.3589"/>
<polygon fill="#ff0000" stroke="#ff0000" stroke-width=".3233" points="229.6721,-143.9277 235.4045,-135.0175 225.3669,-138.4081 229.6721,-143.9277"/>
</g>
<!-- backward -->
<g id="node17" class="node">
<title>backward</title>
<ellipse fill="#add8e6" stroke="#000000" cx="365.6667" cy="-111.6604" rx="36.125" ry="36.125"/>
<text text-anchor="middle" x="365.6667" y="-109.4604" font-family="Times,serif" font-size="9.00" fill="#000000">backward</text>
</g>
<!-- x&#45;pos&#45;&gt;backward -->
<g id="edge23" class="edge">
<title>x&#45;pos&#45;&gt;backward</title>
<path fill="none" stroke="#ff0000" stroke-width=".4232" stroke-dasharray="1,5" d="M914.3765,-355.8636C826.1763,-351.9854 447.0775,-334.1216 399.6667,-311.6468 355.8076,-290.8556 341.8883,-278.2077 323.6667,-233.2203 312.3937,-205.3886 324.5556,-173.2515 338.6413,-149.0133"/>
<polygon fill="#ff0000" stroke="#ff0000" stroke-width=".4232" points="341.6395,-150.8191 343.8779,-140.4634 335.6702,-147.1629 341.6395,-150.8191"/>
</g>
<!-- 626 -->
<g id="node22" class="node">
<title>626</title>
<ellipse fill="#ffffff" stroke="#000000" cx="1072.6667" cy="-290.4335" rx="21.4286" ry="21.4286"/>
<text text-anchor="middle" x="1072.6667" y="-288.2335" font-family="Times,serif" font-size="9.00" fill="#000000">626</text>
</g>
<!-- x&#45;pos&#45;&gt;626 -->
<g id="edge36" class="edge">
<title>x&#45;pos&#45;&gt;626</title>
<path fill="none" stroke="#ff0000" stroke-width=".2933" d="M950.6826,-348.1261C974.3328,-336.9407 1016.1201,-317.1773 1044.1036,-303.9425"/>
<polygon fill="#ff0000" stroke="#ff0000" stroke-width=".2933" points="1045.8301,-306.9977 1053.3736,-299.5582 1042.8372,-300.6698 1045.8301,-306.9977"/>
</g>
<!-- y&#45;pos -->
<g id="node4" class="node">
<title>y&#45;pos</title>
<polygon fill="#d3d3d3" stroke="#000000" points="368.6667,-217.4716 332.6667,-217.4716 332.6667,-199.4716 368.6667,-199.4716 368.6667,-217.4716"/>
<text text-anchor="middle" x="350.6667" y="-206.2716" font-family="Times,serif" font-size="9.00" fill="#000000">y&#45;pos</text>
</g>
<!-- y&#45;pos&#45;&gt;right -->
<g id="edge15" class="edge">
<title>y&#45;pos&#45;&gt;right</title>
<path fill="none" stroke="#00ff00" stroke-width=".8121" stroke-dasharray="1,5" d="M368.9112,-203.2553C389.5484,-197.5602 424.2464,-188.6029 454.6667,-183.7229 548.2528,-168.7099 794.3061,-188.9215 879.6667,-147.7229 884.4834,-145.3981 888.9654,-142.0764 892.9914,-138.3788"/>
<polygon fill="#00ff00" stroke="#00ff00" stroke-width=".8121" points="895.716,-140.5956 900.1394,-130.9683 890.6778,-135.7358 895.716,-140.5956"/>
</g>
<!-- y&#45;pos&#45;&gt;forward -->
<g id="edge6" class="edge">
<title>y&#45;pos&#45;&gt;forward</title>
<path fill="none" stroke="#ff0000" stroke-width=".5984" stroke-dasharray="1,5" d="M341.7494,-199.1889C329.2524,-186.1798 305.9381,-161.9101 287.0239,-142.2207"/>
<polygon fill="#ff0000" stroke="#ff0000" stroke-width=".5984" points="289.4738,-139.7188 280.022,-134.9319 284.4256,-144.5682 289.4738,-139.7188"/>
</g>
<!-- x&#45;lm1&#45;vec -->
<g id="node5" class="node">
<title>x&#45;lm1&#45;vec</title>
<polygon fill="#d3d3d3" stroke="#000000" points="516.1667,-217.4716 463.1667,-217.4716 463.1667,-199.4716 516.1667,-199.4716 516.1667,-217.4716"/>
<text text-anchor="middle" x="489.6667" y="-206.2716" font-family="Times,serif" font-size="9.00" fill="#000000">x&#45;lm1&#45;vec</text>
</g>
<!-- x&#45;lm1&#45;vec&#45;&gt;none -->
<g id="edge17" class="edge">
<title>x&#45;lm1&#45;vec&#45;&gt;none</title>
<path fill="none" stroke="#00ff00" stroke-width=".1563" stroke-dasharray="1,5" d="M501.6372,-199.4179C508.4763,-194.4584 517.3275,-188.3901 525.6667,-183.7229 560.0441,-164.4825 574.6947,-170.7401 606.6667,-147.7229 610.5925,-144.8966 614.4061,-141.5411 617.9628,-138.0321"/>
<polygon fill="#00ff00" stroke="#00ff00" stroke-width=".1563" points="620.5338,-140.4073 624.8564,-130.7343 615.4451,-135.6005 620.5338,-140.4073"/>
</g>
<!-- x&#45;lm1&#45;vec&#45;&gt;right -->
<g id="edge21" class="edge">
<title>x&#45;lm1&#45;vec&#45;&gt;right</title>
<path fill="none" stroke="#00ff00" stroke-width="1.3812" d="M499.9016,-199.3528C506.7097,-193.8417 516.126,-187.225 525.6667,-183.7229 674.1254,-129.2273 737.8265,-217.6597 879.6667,-147.7229 884.4636,-145.3577 888.9355,-142.0151 892.9574,-138.3091"/>
<polygon fill="#00ff00" stroke="#00ff00" stroke-width="1.3812" points="895.6832,-140.5246 900.1042,-130.8962 890.6438,-135.6661 895.6832,-140.5246"/>
</g>
<!-- x&#45;lm1&#45;vec&#45;&gt;left -->
<g id="edge10" class="edge">
<title>x&#45;lm1&#45;vec&#45;&gt;left</title>
<path fill="none" stroke="#ff0000" stroke-width="2.0838" d="M491.4995,-199.3715C496.8958,-172.5785 512.8983,-93.1247 521.6996,-49.4259"/>
<polygon fill="#ff0000" stroke="#ff0000" stroke-width="2.0838" points="525.1764,-49.8897 523.7198,-39.3955 518.3142,-48.5076 525.1764,-49.8897"/>
</g>
<!-- x&#45;lm1&#45;vec&#45;&gt;forward -->
<g id="edge31" class="edge">
<title>x&#45;lm1&#45;vec&#45;&gt;forward</title>
<path fill="none" stroke="#00ff00" stroke-width=".4464" d="M463.0417,-200.4934C429.2545,-190.0105 369.4972,-170.2646 320.6667,-147.7229 311.6648,-143.5673 302.2459,-138.5601 293.5165,-133.6171"/>
<polygon fill="#00ff00" stroke="#00ff00" stroke-width=".4464" points="295.1244,-130.5039 284.7155,-128.5277 291.6201,-136.5636 295.1244,-130.5039"/>
</g>
<!-- x&#45;lm1&#45;vec&#45;&gt;backward -->
<g id="edge4" class="edge">
<title>x&#45;lm1&#45;vec&#45;&gt;backward</title>
<path fill="none" stroke="#ff0000" stroke-width=".3198" d="M477.563,-199.2836C462.0108,-187.4505 434.21,-166.2056 410.6667,-147.7229 407.9055,-145.5552 405.0566,-143.3049 402.1957,-141.0351"/>
<polygon fill="#ff0000" stroke="#ff0000" stroke-width=".3198" points="404.1675,-138.1311 394.1644,-134.6397 399.8069,-143.6071 404.1675,-138.1311"/>
</g>
<!-- y&#45;lm1&#45;vec -->
<g id="node6" class="node">
<title>y&#45;lm1&#45;vec</title>
<polygon fill="#d3d3d3" stroke="#000000" points="461.1667,-299.4335 408.1667,-299.4335 408.1667,-281.4335 461.1667,-281.4335 461.1667,-299.4335"/>
<text text-anchor="middle" x="434.6667" y="-288.2335" font-family="Times,serif" font-size="9.00" fill="#000000">y&#45;lm1&#45;vec</text>
</g>
<!-- y&#45;lm1&#45;vec&#45;&gt;right -->
<g id="edge14" class="edge">
<title>y&#45;lm1&#45;vec&#45;&gt;right</title>
<path fill="none" stroke="#ff0000" stroke-width=".4847" d="M461.5031,-286.3858C516.5623,-277.7118 640.1101,-256.2408 675.6667,-233.2203 698.9475,-218.1476 690.2398,-198.5677 713.6667,-183.7229 777.4348,-143.3152 813.9359,-184.8527 879.6667,-147.7229 884.2321,-145.1439 888.5506,-141.7494 892.4809,-138.0737"/>
<polygon fill="#ff0000" stroke="#ff0000" stroke-width=".4847" points="895.0826,-140.4183 899.5237,-130.7992 890.0534,-135.5493 895.0826,-140.4183"/>
</g>
<!-- y&#45;lm1&#45;vec&#45;&gt;left -->
<g id="edge25" class="edge">
<title>y&#45;lm1&#45;vec&#45;&gt;left</title>
<path fill="none" stroke="#ff0000" stroke-width=".4933" stroke-dasharray="1,5" d="M461.4249,-289.8622C570.5531,-287.2607 977.9745,-274.8065 1015.6667,-233.2203 1065.4024,-178.3464 969.8039,-90.8818 945.6667,-75.598 880.9273,-34.6046 642.588,-23.343 557.8295,-20.5991"/>
<polygon fill="#ff0000" stroke="#ff0000" stroke-width=".4933" points="557.6992,-17.0936 547.5967,-20.2856 557.4848,-24.0903 557.6992,-17.0936"/>
</g>
<!-- y&#45;lm1&#45;vec&#45;&gt;backward -->
<g id="edge1" class="edge">
<title>y&#45;lm1&#45;vec&#45;&gt;backward</title>
<path fill="none" stroke="#ff0000" stroke-width="2.37" d="M431.1501,-281.3224C422.3092,-258.4164 398.6979,-197.2416 382.3853,-154.9771"/>
<polygon fill="#ff0000" stroke="#ff0000" stroke-width="2.37" points="385.5827,-153.5408 378.7166,-145.4718 379.0522,-156.0613 385.5827,-153.5408"/>
</g>
<!-- 1098 -->
<g id="node21" class="node">
<title>1098</title>
<ellipse fill="#ffffff" stroke="#000000" cx="141.6667" cy="-208.4716" rx="25" ry="25"/>
<text text-anchor="middle" x="141.6667" y="-206.2716" font-family="Times,serif" font-size="9.00" fill="#000000">1098</text>
</g>
<!-- y&#45;lm1&#45;vec&#45;&gt;1098 -->
<g id="edge44" class="edge">
<title>y&#45;lm1&#45;vec&#45;&gt;1098</title>
<path fill="none" stroke="#00ff00" stroke-width=".7165" stroke-dasharray="1,5" d="M407.7927,-287.4594C360.4122,-281.5512 259.569,-265.9774 180.6667,-233.2203 177.3825,-231.8569 174.0659,-230.2232 170.8267,-228.4538"/>
<polygon fill="#00ff00" stroke="#00ff00" stroke-width=".7165" points="172.381,-225.3066 161.9937,-223.2197 168.8124,-231.3287 172.381,-225.3066"/>
</g>
<!-- 406 -->
<g id="node24" class="node">
<title>406</title>
<ellipse fill="#ffffff" stroke="#000000" cx="186.6667" cy="-111.6604" rx="21.4286" ry="21.4286"/>
<text text-anchor="middle" x="186.6667" y="-109.4604" font-family="Times,serif" font-size="9.00" fill="#000000">406</text>
</g>
<!-- y&#45;lm1&#45;vec&#45;&gt;406 -->
<g id="edge32" class="edge">
<title>y&#45;lm1&#45;vec&#45;&gt;406</title>
<path fill="none" stroke="#ff0000" stroke-width=".2881" d="M408.1186,-286.9918C355.6806,-279.6594 241.5596,-260.878 214.6667,-233.2203 191.6088,-209.5068 186.0973,-170.8224 185.403,-143.4701"/>
<polygon fill="#ff0000" stroke="#ff0000" stroke-width=".2881" points="188.9019,-143.2203 185.3514,-133.2381 181.902,-143.2557 188.9019,-143.2203"/>
</g>
<!-- 567 -->
<g id="node25" class="node">
<title>567</title>
<ellipse fill="#ffffff" stroke="#000000" cx="440.6667" cy="-111.6604" rx="21.4286" ry="21.4286"/>
<text text-anchor="middle" x="440.6667" y="-109.4604" font-family="Times,serif" font-size="9.00" fill="#000000">567</text>
</g>
<!-- y&#45;lm1&#45;vec&#45;&gt;567 -->
<g id="edge34" class="edge">
<title>y&#45;lm1&#45;vec&#45;&gt;567</title>
<path fill="none" stroke="#00ff00" stroke-width=".2562" d="M434.9724,-281.3224C435.816,-256.1875 438.2061,-184.9735 439.6072,-143.2288"/>
<polygon fill="#00ff00" stroke="#00ff00" stroke-width=".2562" points="443.1114,-143.1589 439.9489,-133.0471 436.1153,-142.924 443.1114,-143.1589"/>
</g>
<!-- 186 -->
<g id="node26" class="node">
<title>186</title>
<ellipse fill="#ffffff" stroke="#000000" cx="743.6667" cy="-208.4716" rx="21.4286" ry="21.4286"/>
<text text-anchor="middle" x="743.6667" y="-206.2716" font-family="Times,serif" font-size="9.00" fill="#000000">186</text>
</g>
<!-- y&#45;lm1&#45;vec&#45;&gt;186 -->
<g id="edge28" class="edge">
<title>y&#45;lm1&#45;vec&#45;&gt;186</title>
<path fill="none" stroke="#ff0000" stroke-width=".3299" d="M461.4394,-288.4781C511.7689,-284.027 623.1211,-270.4687 708.6667,-233.2203 711.9738,-231.7803 715.2833,-229.9985 718.4757,-228.0558"/>
<polygon fill="#ff0000" stroke="#ff0000" stroke-width=".3299" points="720.7015,-230.7776 727.0633,-222.3054 716.8067,-224.9611 720.7015,-230.7776"/>
</g>
<!-- x&#45;lm2&#45;vec -->
<g id="node7" class="node">
<title>x&#45;lm2&#45;vec</title>
<polygon fill="#d3d3d3" stroke="#000000" points="276.1667,-217.4716 223.1667,-217.4716 223.1667,-199.4716 276.1667,-199.4716 276.1667,-217.4716"/>
<text text-anchor="middle" x="249.6667" y="-206.2716" font-family="Times,serif" font-size="9.00" fill="#000000">x&#45;lm2&#45;vec</text>
</g>
<!-- x&#45;lm2&#45;vec&#45;&gt;forward -->
<g id="edge11" class="edge">
<title>x&#45;lm2&#45;vec&#45;&gt;forward</title>
<path fill="none" stroke="#00ff00" stroke-width=".2192" d="M250.4337,-199.1889C251.3017,-188.6855 252.7762,-170.8415 254.1684,-153.9944"/>
<polygon fill="#00ff00" stroke="#00ff00" stroke-width=".2192" points="257.6829,-153.9624 255.0184,-143.7081 250.7067,-153.3858 257.6829,-153.9624"/>
</g>
<!-- x&#45;lm2&#45;vec&#45;&gt;backward -->
<g id="edge7" class="edge">
<title>x&#45;lm2&#45;vec&#45;&gt;backward</title>
<path fill="none" stroke="#ff0000" stroke-width=".3423" stroke-dasharray="1,5" d="M260.7892,-199.1889C276.5829,-186.0078 306.2281,-161.2666 329.9815,-141.4425"/>
<polygon fill="#ff0000" stroke="#ff0000" stroke-width=".3423" points="332.3477,-144.0265 337.7826,-134.9319 327.8625,-138.6523 332.3477,-144.0265"/>
</g>
<!-- y&#45;lm2&#45;vec -->
<g id="node8" class="node">
<title>y&#45;lm2&#45;vec</title>
<polygon fill="#d3d3d3" stroke="#000000" points="1022.1667,-365.6468 969.1667,-365.6468 969.1667,-347.6468 1022.1667,-347.6468 1022.1667,-365.6468"/>
<text text-anchor="middle" x="995.6667" y="-354.4468" font-family="Times,serif" font-size="9.00" fill="#000000">y&#45;lm2&#45;vec</text>
</g>
<!-- x&#45;other&#45;vec -->
<g id="node9" class="node">
<title>x&#45;other&#45;vec</title>
<polygon fill="#d3d3d3" stroke="#000000" points="878.6667,-217.4716 820.6667,-217.4716 820.6667,-199.4716 878.6667,-199.4716 878.6667,-217.4716"/>
<text text-anchor="middle" x="849.6667" y="-206.2716" font-family="Times,serif" font-size="9.00" fill="#000000">x&#45;other&#45;vec</text>
</g>
<!-- x&#45;other&#45;vec&#45;&gt;none -->
<g id="edge26" class="edge">
<title>x&#45;other&#45;vec&#45;&gt;none</title>
<path fill="none" stroke="#ff0000" stroke-width=".4286" stroke-dasharray="1,5" d="M834.7744,-199.3361C826.6012,-194.4667 816.2142,-188.5105 806.6667,-183.7229 760.6797,-160.6625 705.5893,-137.7678 671.6072,-124.1674"/>
<polygon fill="#ff0000" stroke="#ff0000" stroke-width=".4286" points="672.7754,-120.8654 662.1899,-120.4203 670.1874,-127.3694 672.7754,-120.8654"/>
</g>
<!-- x&#45;other&#45;vec&#45;&gt;right -->
<g id="edge16" class="edge">
<title>x&#45;other&#45;vec&#45;&gt;right</title>
<path fill="none" stroke="#00ff00" stroke-width=".1175" stroke-dasharray="1,5" d="M855.8032,-199.1889C864.7424,-185.6669 881.7241,-159.9791 894.9884,-139.9146"/>
<polygon fill="#00ff00" stroke="#00ff00" stroke-width=".1175" points="897.9996,-141.7062 900.5947,-131.434 892.1603,-137.8458 897.9996,-141.7062"/>
</g>
<!-- 646 -->
<g id="node19" class="node">
<title>646</title>
<ellipse fill="#ffffff" stroke="#000000" cx="849.6667" cy="-111.6604" rx="21.4286" ry="21.4286"/>
<text text-anchor="middle" x="849.6667" y="-109.4604" font-family="Times,serif" font-size="9.00" fill="#000000">646</text>
</g>
<!-- x&#45;other&#45;vec&#45;&gt;646 -->
<g id="edge38" class="edge">
<title>x&#45;other&#45;vec&#45;&gt;646</title>
<path fill="none" stroke="#ff0000" stroke-width=".2302" d="M849.6667,-199.1889C849.6667,-186.3517 849.6667,-162.5496 849.6667,-143.0037"/>
<polygon fill="#ff0000" stroke="#ff0000" stroke-width=".2302" points="853.1668,-142.9659 849.6667,-132.9659 846.1668,-142.966 853.1668,-142.9659"/>
</g>
<!-- y&#45;other&#45;vec -->
<g id="node10" class="node">
<title>y&#45;other&#45;vec</title>
<polygon fill="#d3d3d3" stroke="#000000" points="666.6667,-217.4716 608.6667,-217.4716 608.6667,-199.4716 666.6667,-199.4716 666.6667,-217.4716"/>
<text text-anchor="middle" x="637.6667" y="-206.2716" font-family="Times,serif" font-size="9.00" fill="#000000">y&#45;other&#45;vec</text>
</g>
<!-- y&#45;other&#45;vec&#45;&gt;none -->
<g id="edge9" class="edge">
<title>y&#45;other&#45;vec&#45;&gt;none</title>
<path fill="none" stroke="#00ff00" stroke-width=".4721" stroke-dasharray="1,5" d="M637.8584,-199.1889C638.1109,-186.9699 638.5685,-164.8166 638.9602,-145.8554"/>
<polygon fill="#00ff00" stroke="#00ff00" stroke-width=".4721" points="642.462,-145.8034 639.1693,-135.7332 635.4635,-145.6587 642.462,-145.8034"/>
</g>
<!-- x&#45;other&#45;vel -->
<g id="node11" class="node">
<title>x&#45;other&#45;vel</title>
<polygon fill="#d3d3d3" stroke="#000000" points="590.6667,-217.4716 534.6667,-217.4716 534.6667,-199.4716 590.6667,-199.4716 590.6667,-217.4716"/>
<text text-anchor="middle" x="562.6667" y="-206.2716" font-family="Times,serif" font-size="9.00" fill="#000000">x&#45;other&#45;vel</text>
</g>
<!-- x&#45;other&#45;vel&#45;&gt;none -->
<g id="edge20" class="edge">
<title>x&#45;other&#45;vel&#45;&gt;none</title>
<path fill="none" stroke="#00ff00" stroke-width=".4719" stroke-dasharray="1,5" d="M570.0497,-199.1889C581.0334,-185.3793 602.1094,-158.8807 618.2066,-138.6419"/>
<polygon fill="#00ff00" stroke="#00ff00" stroke-width=".4719" points="621.0516,-140.6876 624.5372,-130.6825 615.5731,-136.3302 621.0516,-140.6876"/>
</g>
<!-- x&#45;other&#45;vel&#45;&gt;right -->
<g id="edge8" class="edge">
<title>x&#45;other&#45;vel&#45;&gt;right</title>
<path fill="none" stroke="#ff0000" stroke-width=".2763" d="M573.2602,-199.4437C580.2871,-193.9688 589.9701,-187.3583 599.6667,-183.7229 717.1497,-139.6758 767.8794,-204.6968 879.6667,-147.7229 884.4318,-145.2942 888.8874,-141.919 892.9027,-138.2001"/>
<polygon fill="#ff0000" stroke="#ff0000" stroke-width=".2763" points="895.6304,-140.4134 900.0476,-130.7833 890.5891,-135.5569 895.6304,-140.4134"/>
</g>
<!-- x&#45;other&#45;vel&#45;&gt;left -->
<g id="edge22" class="edge">
<title>x&#45;other&#45;vel&#45;&gt;left</title>
<path fill="none" stroke="#ff0000" stroke-width=".2625" stroke-dasharray="1,5" d="M559.8477,-199.0774C556.3651,-187.2048 550.4392,-166.0985 546.6667,-147.7229 539.8406,-114.4743 534.4509,-75.8852 531.1814,-49.8569"/>
<polygon fill="#ff0000" stroke="#ff0000" stroke-width=".2625" points="534.6466,-49.3589 529.9526,-39.8607 527.6989,-50.2131 534.6466,-49.3589"/>
</g>
<!-- x&#45;other&#45;vel&#45;&gt;forward -->
<g id="edge13" class="edge">
<title>x&#45;other&#45;vel&#45;&gt;forward</title>
<path fill="none" stroke="#ff0000" stroke-width=".1307" d="M551.697,-199.3516C544.675,-193.9838 535.1337,-187.5227 525.6667,-183.7229 439.8182,-149.2659 407.6626,-179.1702 320.6667,-147.7229 311.3424,-144.3523 301.7993,-139.6477 293.0524,-134.7471"/>
<polygon fill="#ff0000" stroke="#ff0000" stroke-width=".1307" points="294.6684,-131.6378 284.2681,-129.6171 291.1383,-137.6825 294.6684,-131.6378"/>
</g>
<!-- x&#45;other&#45;vel&#45;&gt;backward -->
<g id="edge12" class="edge">
<title>x&#45;other&#45;vel&#45;&gt;backward</title>
<path fill="none" stroke="#ff0000" stroke-width=".9121" stroke-dasharray="1,5" d="M550.8585,-199.3006C543.8391,-194.1812 534.5891,-187.994 525.6667,-183.7229 477.3593,-160.5984 457.9347,-172.9037 410.6667,-147.7229 407.3808,-145.9724 404.0999,-143.9695 400.892,-141.8245"/>
<polygon fill="#ff0000" stroke="#ff0000" stroke-width=".9121" points="402.7836,-138.874 392.6175,-135.8902 398.704,-144.5623 402.7836,-138.874"/>
</g>
<!-- 994 -->
<g id="node18" class="node">
<title>994</title>
<ellipse fill="#ffffff" stroke="#000000" cx="576.6667" cy="-111.6604" rx="21.4286" ry="21.4286"/>
<text text-anchor="middle" x="576.6667" y="-109.4604" font-family="Times,serif" font-size="9.00" fill="#000000">994</text>
</g>
<!-- x&#45;other&#45;vel&#45;&gt;994 -->
<g id="edge42" class="edge">
<title>x&#45;other&#45;vel&#45;&gt;994</title>
<path fill="none" stroke="#00ff00" stroke-width=".3206" d="M564.009,-199.1889C565.8655,-186.3517 569.3075,-162.5496 572.1341,-143.0037"/>
<polygon fill="#00ff00" stroke="#00ff00" stroke-width=".3206" points="575.6183,-143.364 573.5856,-132.9659 568.6904,-142.362 575.6183,-143.364"/>
</g>
<!-- y&#45;other&#45;vel -->
<g id="node12" class="node">
<title>y&#45;other&#45;vel</title>
<polygon fill="#d3d3d3" stroke="#000000" points="1006.6667,-217.4716 950.6667,-217.4716 950.6667,-199.4716 1006.6667,-199.4716 1006.6667,-217.4716"/>
<text text-anchor="middle" x="978.6667" y="-206.2716" font-family="Times,serif" font-size="9.00" fill="#000000">y&#45;other&#45;vel</text>
</g>
<!-- y&#45;other&#45;vel&#45;&gt;right -->
<g id="edge2" class="edge">
<title>y&#45;other&#45;vel&#45;&gt;right</title>
<path fill="none" stroke="#00ff00" stroke-width=".2657" d="M972.4342,-199.1889C963.3,-185.5845 945.8977,-159.6654 932.3908,-139.5482"/>
<polygon fill="#00ff00" stroke="#00ff00" stroke-width=".2657" points="935.1698,-137.4083 926.6897,-131.057 929.3582,-141.3103 935.1698,-137.4083"/>
</g>
<!-- 994&#45;&gt;left -->
<g id="edge43" class="edge">
<title>994&#45;&gt;left</title>
<path fill="none" stroke="#00ff00" stroke-width=".1268" d="M566.5138,-92.6267C559.4314,-79.349 549.8791,-61.4412 542.0193,-46.7061"/>
<polygon fill="#00ff00" stroke="#00ff00" stroke-width=".1268" points="544.9362,-44.7378 537.1416,-37.5618 538.7599,-48.0323 544.9362,-44.7378"/>
</g>
<!-- 969 -->
<g id="node20" class="node">
<title>969</title>
<ellipse fill="#ffffff" stroke="#000000" cx="1121.6667" cy="-208.4716" rx="21.4286" ry="21.4286"/>
<text text-anchor="middle" x="1121.6667" y="-206.2716" font-family="Times,serif" font-size="9.00" fill="#000000">969</text>
</g>
<!-- 969&#45;&gt;right -->
<g id="edge41" class="edge">
<title>969&#45;&gt;right</title>
<path fill="none" stroke="#00ff00" stroke-width=".1081" d="M1104.7127,-195.3494C1099.1338,-191.3438 1092.7887,-187.1079 1086.6667,-183.7229 1039.6302,-157.7154 981.2615,-135.266 945.7713,-122.6122"/>
<polygon fill="#00ff00" stroke="#00ff00" stroke-width=".1081" points="946.5578,-119.1785 935.963,-119.1572 944.2321,-125.7809 946.5578,-119.1785"/>
</g>
<!-- 1098&#45;&gt;406 -->
<g id="edge45" class="edge">
<title>1098&#45;&gt;406</title>
<path fill="none" stroke="#ff0000" stroke-width=".165" d="M152.1037,-186.0178C158.4506,-172.3633 166.6157,-154.7972 173.416,-140.1673"/>
<polygon fill="#ff0000" stroke="#ff0000" stroke-width=".165" points="176.6136,-141.5915 177.6549,-131.048 170.2658,-138.6409 176.6136,-141.5915"/>
</g>
<!-- 626&#45;&gt;right -->
<g id="edge37" class="edge">
<title>626&#45;&gt;right</title>
<path fill="none" stroke="#00ff00" stroke-width=".1537" stroke-dasharray="1,5" d="M1065.2054,-270.2438C1056.0625,-247.4185 1038.8783,-210.0198 1015.6667,-183.7229 995.077,-160.3965 965.5206,-140.5782 943.5195,-127.6646"/>
<polygon fill="#00ff00" stroke="#00ff00" stroke-width=".1537" points="945.0193,-124.4903 934.6012,-122.5628 941.5434,-130.5664 945.0193,-124.4903"/>
</g>
<!-- 626&#45;&gt;969 -->
<g id="edge40" class="edge">
<title>626&#45;&gt;969</title>
<path fill="none" stroke="#00ff00" stroke-width=".2577" d="M1083.7855,-271.8351C1090.2208,-261.0709 1098.4328,-247.3348 1105.5647,-235.4053"/>
<polygon fill="#00ff00" stroke="#00ff00" stroke-width=".2577" points="1108.6333,-237.0932 1110.7606,-226.7141 1102.6251,-233.5012 1108.6333,-237.0932"/>
</g>
<!-- 949 -->
<g id="node23" class="node">
<title>949</title>
<ellipse fill="#ffffff" stroke="#000000" cx="93.6667" cy="-290.4335" rx="21.4286" ry="21.4286"/>
<text text-anchor="middle" x="93.6667" y="-288.2335" font-family="Times,serif" font-size="9.00" fill="#000000">949</text>
</g>
<!-- 949&#45;&gt;221 -->
<g id="edge39" class="edge">
<title>949&#45;&gt;221</title>
<path fill="none" stroke="#00ff00" stroke-width=".1639" d="M89.5463,-269.3263C87.7733,-260.244 85.6649,-249.4433 83.7199,-239.48"/>
<polygon fill="#00ff00" stroke="#00ff00" stroke-width=".1639" points="87.1243,-238.6514 81.7731,-229.5073 80.254,-239.9927 87.1243,-238.6514"/>
</g>
<!-- 406&#45;&gt;left -->
<g id="edge33" class="edge">
<title>406&#45;&gt;left</title>
<path fill="none" stroke="#00ff00" stroke-width=".4269" stroke-dasharray="1,5" d="M197.8118,-93.4998C202.7806,-86.8707 209.2062,-79.9413 216.6667,-75.598 264.3656,-47.8282 429.2446,-29.2378 497.6062,-22.5547"/>
<polygon fill="#00ff00" stroke="#00ff00" stroke-width=".4269" points="498.0964,-26.0238 507.7164,-21.5847 497.4278,-19.0558 498.0964,-26.0238"/>
</g>
<!-- 567&#45;&gt;left -->
<g id="edge35" class="edge">
<title>567&#45;&gt;left</title>
<path fill="none" stroke="#ff0000" stroke-width=".1621" d="M455.425,-96.0774C469.5068,-81.2087 490.862,-58.6602 506.7057,-41.9312"/>
<polygon fill="#ff0000" stroke="#ff0000" stroke-width=".1621" points="509.6495,-43.9128 513.9847,-34.2455 504.5671,-39.0994 509.6495,-43.9128"/>
</g>
<!-- 221&#45;&gt;forward -->
<g id="edge30" class="edge">
<title>221&#45;&gt;forward</title>
<path fill="none" stroke="#ff0000" stroke-width=".1348" stroke-dasharray="1,5" d="M93.3721,-193.6799C97.7645,-190.0706 102.7013,-186.4638 107.6667,-183.7229 152.3317,-159.0673 172.3972,-173.0819 216.6667,-147.7229 220.1754,-145.7129 223.6532,-143.3716 227.013,-140.865"/>
<polygon fill="#ff0000" stroke="#ff0000" stroke-width=".1348" points="229.4692,-143.3813 235.0716,-134.3888 225.0842,-137.9249 229.4692,-143.3813"/>
</g>
</g>
</svg>
