<?xml version="1.0" encoding="UTF-8" standalone="no"?>
<!DOCTYPE svg PUBLIC "-//W3C//DTD SVG 1.1//EN"
 "http://www.w3.org/Graphics/SVG/1.1/DTD/svg11.dtd">
<!-- Generated by graphviz version 2.40.1 (20161225.0304)
 -->
<!-- Title: %3 Pages: 1 -->
<svg width="882pt" height="793pt"
 viewBox="0.00 0.00 882.00 792.65" xmlns="http://www.w3.org/2000/svg" xmlns:xlink="http://www.w3.org/1999/xlink">
<g id="graph0" class="graph" transform="scale(1 1) rotate(0) translate(4 788.6488)">
<title>%3</title>
<polygon fill="#ffffff" stroke="transparent" points="-4,4 -4,-788.6488 878,-788.6488 878,4 -4,4"/>
<!-- x&#45;vel -->
<g id="node1" class="node">
<title>x&#45;vel</title>
<polygon fill="#d3d3d3" stroke="#000000" points="239.5,-640.0092 204.5,-640.0092 204.5,-622.0092 239.5,-622.0092 239.5,-640.0092"/>
<text text-anchor="middle" x="222" y="-628.8092" font-family="Times,serif" font-size="9.00" fill="#000000">x&#45;vel</text>
</g>
<!-- none -->
<g id="node13" class="node">
<title>none</title>
<ellipse fill="#add8e6" stroke="#000000" cx="340" cy="-549.7544" rx="24.0833" ry="24.0833"/>
<text text-anchor="middle" x="340" y="-547.5544" font-family="Times,serif" font-size="9.00" fill="#000000">none</text>
</g>
<!-- x&#45;vel&#45;&gt;none -->
<g id="edge5" class="edge">
<title>x&#45;vel&#45;&gt;none</title>
<path fill="none" stroke="#00ff00" stroke-width=".4605" stroke-dasharray="1,5" d="M233.1384,-621.9216C237.9476,-618.0864 243.6807,-613.6305 249,-609.796 269.1355,-595.2812 292.5216,-579.8813 310.5439,-568.3121"/>
<polygon fill="#00ff00" stroke="#00ff00" stroke-width=".4605" points="312.8887,-570.9676 319.4339,-562.6363 309.1218,-565.0675 312.8887,-570.9676"/>
</g>
<!-- left -->
<g id="node15" class="node">
<title>left</title>
<ellipse fill="#add8e6" stroke="#000000" cx="174" cy="-139.9447" rx="19.6" ry="19.6"/>
<text text-anchor="middle" x="174" y="-137.7447" font-family="Times,serif" font-size="9.00" fill="#000000">left</text>
</g>
<!-- x&#45;vel&#45;&gt;left -->
<g id="edge8" class="edge">
<title>x&#45;vel&#45;&gt;left</title>
<path fill="none" stroke="#ff0000" stroke-width=".7555" stroke-dasharray="1,5" d="M204.3573,-625.1236C158.3036,-608.5251 38,-556.7226 38,-468.4996 38,-468.4996 38,-468.4996 38,-307.4041 38,-238.4046 108.4339,-181.9895 147.9262,-155.7806"/>
<polygon fill="#ff0000" stroke="#ff0000" stroke-width=".7555" points="150.2718,-158.4325 156.7755,-150.0687 146.4756,-152.5512 150.2718,-158.4325"/>
</g>
<!-- backward -->
<g id="node17" class="node">
<title>backward</title>
<ellipse fill="#add8e6" stroke="#000000" cx="516" cy="-36.0624" rx="36.125" ry="36.125"/>
<text text-anchor="middle" x="516" y="-33.8624" font-family="Times,serif" font-size="9.00" fill="#000000">backward</text>
</g>
<!-- x&#45;vel&#45;&gt;backward -->
<g id="edge20" class="edge">
<title>x&#45;vel&#45;&gt;backward</title>
<path fill="none" stroke="#ff0000" stroke-width=".4785" d="M231.6207,-621.7493C242.1799,-611.0926 258.9621,-592.6264 269,-573.796 296.6168,-521.989 287.9807,-502.8285 307,-447.2864 337.4151,-358.4648 349.4322,-337.8696 383,-250.1909 407.1512,-187.1081 399.0122,-163.9787 437,-108.1249 448.2754,-91.5465 464.0975,-76.1306 478.6232,-63.8469"/>
<polygon fill="#ff0000" stroke="#ff0000" stroke-width=".4785" points="481.0174,-66.4097 486.5226,-57.3574 476.5739,-61.0008 481.0174,-66.4097"/>
</g>
<!-- y&#45;vel -->
<g id="node2" class="node">
<title>y&#45;vel</title>
<polygon fill="#d3d3d3" stroke="#000000" points="427.5,-640.0092 392.5,-640.0092 392.5,-622.0092 427.5,-622.0092 427.5,-640.0092"/>
<text text-anchor="middle" x="410" y="-628.8092" font-family="Times,serif" font-size="9.00" fill="#000000">y&#45;vel</text>
</g>
<!-- y&#45;vel&#45;&gt;none -->
<g id="edge38" class="edge">
<title>y&#45;vel&#45;&gt;none</title>
<path fill="none" stroke="#ff0000" stroke-width="1.3871" d="M402.2413,-622.0031C392.7232,-610.9546 376.1708,-591.7409 362.5275,-575.9039"/>
<polygon fill="#ff0000" stroke="#ff0000" stroke-width="1.3871" points="364.8893,-573.283 355.7107,-567.9912 359.5859,-577.8519 364.8893,-573.283"/>
</g>
<!-- x&#45;pos -->
<g id="node3" class="node">
<title>x&#45;pos</title>
<polygon fill="#d3d3d3" stroke="#000000" points="374,-237.9777 338,-237.9777 338,-219.9777 374,-219.9777 374,-237.9777"/>
<text text-anchor="middle" x="356" y="-226.7777" font-family="Times,serif" font-size="9.00" fill="#000000">x&#45;pos</text>
</g>
<!-- x&#45;pos&#45;&gt;left -->
<g id="edge11" class="edge">
<title>x&#45;pos&#45;&gt;left</title>
<path fill="none" stroke="#00ff00" stroke-width=".2933" stroke-dasharray="1,5" d="M343.2172,-219.8211C337.475,-215.8881 330.5334,-211.3763 324,-207.7645 282.8766,-185.0303 232.7043,-163.5238 202.0686,-151.0454"/>
<polygon fill="#00ff00" stroke="#00ff00" stroke-width=".2933" points="203.0526,-147.6683 192.4694,-147.171 200.4326,-154.1595 203.0526,-147.6683"/>
</g>
<!-- x&#45;pos&#45;&gt;backward -->
<g id="edge2" class="edge">
<title>x&#45;pos&#45;&gt;backward</title>
<path fill="none" stroke="#00ff00" stroke-width=".2658" d="M356.0899,-219.7432C356.7586,-197.9998 361.1732,-142.8024 388,-108.1249 409.2169,-80.6991 444.0044,-62.0779 471.9619,-50.6453"/>
<polygon fill="#00ff00" stroke="#00ff00" stroke-width=".2658" points="473.4965,-53.8033 481.5325,-46.8986 470.9447,-47.2849 473.4965,-53.8033"/>
</g>
<!-- y&#45;pos -->
<g id="node4" class="node">
<title>y&#45;pos</title>
<polygon fill="#d3d3d3" stroke="#000000" points="498,-784.6488 462,-784.6488 462,-766.6488 498,-766.6488 498,-784.6488"/>
<text text-anchor="middle" x="480" y="-773.4488" font-family="Times,serif" font-size="9.00" fill="#000000">y&#45;pos</text>
</g>
<!-- right -->
<g id="node14" class="node">
<title>right</title>
<ellipse fill="#add8e6" stroke="#000000" cx="409" cy="-387.9518" rx="23.1702" ry="23.1702"/>
<text text-anchor="middle" x="409" y="-385.7518" font-family="Times,serif" font-size="9.00" fill="#000000">right</text>
</g>
<!-- y&#45;pos&#45;&gt;right -->
<g id="edge25" class="edge">
<title>y&#45;pos&#45;&gt;right</title>
<path fill="none" stroke="#ff0000" stroke-width=".2726" d="M478.315,-766.4477C469.6857,-719.3273 430.2589,-504.0365 415.0285,-420.8707"/>
<polygon fill="#ff0000" stroke="#ff0000" stroke-width=".2726" points="418.4556,-420.1542 413.2114,-410.9483 411.5701,-421.4152 418.4556,-420.1542"/>
</g>
<!-- y&#45;pos&#45;&gt;left -->
<g id="edge9" class="edge">
<title>y&#45;pos&#45;&gt;left</title>
<path fill="none" stroke="#00ff00" stroke-width=".1877" stroke-dasharray="1,5" d="M461.7696,-774.2073C374.0918,-766.7858 0,-729.3583 0,-631.0092 0,-631.0092 0,-631.0092 0,-307.4041 0,-257.656 16.3691,-243.4797 51,-207.7645 77.7928,-180.1328 118.3035,-160.7933 145.432,-150.0245"/>
<polygon fill="#00ff00" stroke="#00ff00" stroke-width=".1877" points="147.0293,-153.1608 155.1175,-146.3175 144.5271,-146.6233 147.0293,-153.1608"/>
</g>
<!-- y&#45;pos&#45;&gt;backward -->
<g id="edge3" class="edge">
<title>y&#45;pos&#45;&gt;backward</title>
<path fill="none" stroke="#ff0000" stroke-width=".327" d="M498.2146,-769.2668C501.136,-768.3331 504.139,-767.4259 507,-766.6488 581.5308,-746.4052 604.087,-756.1113 677,-730.6488 750.6383,-704.9331 764.6516,-687.9253 834,-652.2224 851.8912,-643.0114 874,-651.1323 874,-631.0092 874,-631.0092 874,-631.0092 874,-228.9777 874,-160.3813 835.229,-145.9442 778,-108.1249 742.5089,-84.6709 626.9894,-58.4976 561.816,-45.0772"/>
<polygon fill="#ff0000" stroke="#ff0000" stroke-width=".327" points="562.3063,-41.6051 551.8084,-43.0351 560.9067,-48.4638 562.3063,-41.6051"/>
</g>
<!-- 581 -->
<g id="node18" class="node">
<title>581</title>
<ellipse fill="#ffffff" stroke="#000000" cx="554" cy="-631.0092" rx="21.4286" ry="21.4286"/>
<text text-anchor="middle" x="554" y="-628.8092" font-family="Times,serif" font-size="9.00" fill="#000000">581</text>
</g>
<!-- y&#45;pos&#45;&gt;581 -->
<g id="edge45" class="edge">
<title>y&#45;pos&#45;&gt;581</title>
<path fill="none" stroke="#ff0000" stroke-width=".422" stroke-dasharray="1,5" d="M496.3783,-766.5984C508.9679,-758.7587 525.7263,-746.2345 535,-730.6488 547.2691,-710.029 551.8604,-683.1336 553.4711,-662.4835"/>
<polygon fill="#ff0000" stroke="#ff0000" stroke-width=".422" points="556.9755,-662.5081 554.0666,-652.3205 549.9875,-662.0986 556.9755,-662.5081"/>
</g>
<!-- 727 -->
<g id="node21" class="node">
<title>727</title>
<ellipse fill="#ffffff" stroke="#000000" cx="505" cy="-709.4356" rx="21.4286" ry="21.4286"/>
<text text-anchor="middle" x="505" y="-707.2356" font-family="Times,serif" font-size="9.00" fill="#000000">727</text>
</g>
<!-- y&#45;pos&#45;&gt;727 -->
<g id="edge56" class="edge">
<title>y&#45;pos&#45;&gt;727</title>
<path fill="none" stroke="#00ff00" stroke-width=".1231" d="M483.4761,-766.4422C486.1729,-759.2998 490.0695,-748.9796 493.8082,-739.0774"/>
<polygon fill="#00ff00" stroke="#00ff00" stroke-width=".1231" points="497.1861,-740.0394 497.4441,-729.4477 490.6373,-737.5668 497.1861,-740.0394"/>
</g>
<!-- 556 -->
<g id="node22" class="node">
<title>556</title>
<ellipse fill="#ffffff" stroke="#000000" cx="236" cy="-468.4996" rx="21.4286" ry="21.4286"/>
<text text-anchor="middle" x="236" y="-466.2996" font-family="Times,serif" font-size="9.00" fill="#000000">556</text>
</g>
<!-- y&#45;pos&#45;&gt;556 -->
<g id="edge43" class="edge">
<title>y&#45;pos&#45;&gt;556</title>
<path fill="none" stroke="#00ff00" stroke-width=".2404" d="M461.7214,-774.2935C409.1165,-769.292 257.1534,-746.8712 195,-652.2224 164.137,-605.2235 177.7996,-579.2438 195,-525.7128 198.9322,-513.4751 206.555,-501.6348 214.1717,-491.9314"/>
<polygon fill="#00ff00" stroke="#00ff00" stroke-width=".2404" points="217.0666,-493.9242 220.7706,-483.9979 211.6849,-489.4478 217.0666,-493.9242"/>
</g>
<!-- 18 -->
<g id="node23" class="node">
<title>18</title>
<ellipse fill="#ffffff" stroke="#000000" cx="638" cy="-228.9777" rx="18.2703" ry="18.2703"/>
<text text-anchor="middle" x="638" y="-226.7777" font-family="Times,serif" font-size="9.00" fill="#000000">18</text>
</g>
<!-- y&#45;pos&#45;&gt;18 -->
<g id="edge30" class="edge">
<title>y&#45;pos&#45;&gt;18</title>
<path fill="none" stroke="#00ff00" stroke-width=".1005" stroke-dasharray="1,5" d="M498.1435,-769.3107C570.6894,-743.8418 836,-649.4384 836,-631.0092 836,-631.0092 836,-631.0092 836,-387.9518 836,-334.7589 813.3861,-320.8095 773,-286.1909 741.5004,-259.1898 695.3898,-243.3792 666.0404,-235.4545"/>
<polygon fill="#00ff00" stroke="#00ff00" stroke-width=".1005" points="666.6004,-231.9848 656.0439,-232.8856 664.8581,-238.7645 666.6004,-231.9848"/>
</g>
<!-- 184 -->
<g id="node27" class="node">
<title>184</title>
<ellipse fill="#ffffff" stroke="#000000" cx="353" cy="-631.0092" rx="21.4286" ry="21.4286"/>
<text text-anchor="middle" x="353" y="-628.8092" font-family="Times,serif" font-size="9.00" fill="#000000">184</text>
</g>
<!-- y&#45;pos&#45;&gt;184 -->
<g id="edge31" class="edge">
<title>y&#45;pos&#45;&gt;184</title>
<path fill="none" stroke="#ff0000" stroke-width=".1168" d="M472.0556,-766.601C452.732,-744.5935 402.7605,-687.6811 374.076,-655.0126"/>
<polygon fill="#ff0000" stroke="#ff0000" stroke-width=".1168" points="376.5017,-652.4705 367.2736,-647.2654 371.2416,-657.0891 376.5017,-652.4705"/>
</g>
<!-- x&#45;lm1&#45;vec -->
<g id="node5" class="node">
<title>x&#45;lm1&#45;vec</title>
<polygon fill="#d3d3d3" stroke="#000000" points="653.5,-477.4996 600.5,-477.4996 600.5,-459.4996 653.5,-459.4996 653.5,-477.4996"/>
<text text-anchor="middle" x="627" y="-466.2996" font-family="Times,serif" font-size="9.00" fill="#000000">x&#45;lm1&#45;vec</text>
</g>
<!-- x&#45;lm1&#45;vec&#45;&gt;right -->
<g id="edge26" class="edge">
<title>x&#45;lm1&#45;vec&#45;&gt;right</title>
<path fill="none" stroke="#ff0000" stroke-width=".3209" d="M613.0168,-459.299C606.5017,-455.2659 598.5383,-450.6873 591,-447.2864 540.4652,-424.4873 478.5097,-406.2067 441.4755,-396.2368"/>
<polygon fill="#ff0000" stroke="#ff0000" stroke-width=".3209" points="442.2842,-392.8303 431.721,-393.6483 440.4888,-399.5961 442.2842,-392.8303"/>
</g>
<!-- forward -->
<g id="node16" class="node">
<title>forward</title>
<ellipse fill="#add8e6" stroke="#000000" cx="719" cy="-139.9447" rx="31.6406" ry="31.6406"/>
<text text-anchor="middle" x="719" y="-137.7447" font-family="Times,serif" font-size="9.00" fill="#000000">forward</text>
</g>
<!-- x&#45;lm1&#45;vec&#45;&gt;forward -->
<g id="edge12" class="edge">
<title>x&#45;lm1&#45;vec&#45;&gt;forward</title>
<path fill="none" stroke="#00ff00" stroke-width=".2425" stroke-dasharray="1,5" d="M629.5566,-459.3692C640.7912,-419.2479 686.1696,-257.1903 707.6375,-180.5229"/>
<polygon fill="#00ff00" stroke="#00ff00" stroke-width=".2425" points="711.0531,-181.3048 710.3793,-170.7315 704.3124,-179.4173 711.0531,-181.3048"/>
</g>
<!-- x&#45;lm1&#45;vec&#45;&gt;backward -->
<g id="edge6" class="edge">
<title>x&#45;lm1&#45;vec&#45;&gt;backward</title>
<path fill="none" stroke="#ff0000" stroke-width=".1141" d="M624.6816,-459.4675C612.2206,-410.9215 552.824,-179.5227 527.4905,-80.8277"/>
<polygon fill="#ff0000" stroke="#ff0000" stroke-width=".1141" points="530.8807,-79.9572 525.0042,-71.1414 524.1005,-81.6976 530.8807,-79.9572"/>
</g>
<!-- y&#45;lm1&#45;vec -->
<g id="node6" class="node">
<title>y&#45;lm1&#45;vec</title>
<polygon fill="#d3d3d3" stroke="#000000" points="145.5,-477.4996 92.5,-477.4996 92.5,-459.4996 145.5,-459.4996 145.5,-477.4996"/>
<text text-anchor="middle" x="119" y="-466.2996" font-family="Times,serif" font-size="9.00" fill="#000000">y&#45;lm1&#45;vec</text>
</g>
<!-- y&#45;lm1&#45;vec&#45;&gt;right -->
<g id="edge18" class="edge">
<title>y&#45;lm1&#45;vec&#45;&gt;right</title>
<path fill="none" stroke="#00ff00" stroke-width=".6545" d="M145.5043,-461.138C198.7937,-446.3368 318.7483,-413.0193 376.5942,-396.9526"/>
<polygon fill="#00ff00" stroke="#00ff00" stroke-width=".6545" points="377.6155,-400.3015 386.3141,-394.2529 375.7421,-393.5568 377.6155,-400.3015"/>
</g>
<!-- y&#45;lm1&#45;vec&#45;&gt;left -->
<g id="edge17" class="edge">
<title>y&#45;lm1&#45;vec&#45;&gt;left</title>
<path fill="none" stroke="#00ff00" stroke-width=".2649" stroke-dasharray="1,5" d="M120.2613,-459.4669C124.9659,-426.0168 142.1387,-306.0483 160,-207.7645 162.2944,-195.1391 165.1093,-181.2524 167.6117,-169.3507"/>
<polygon fill="#00ff00" stroke="#00ff00" stroke-width=".2649" points="171.0532,-169.9936 169.7095,-159.4843 164.2062,-168.5377 171.0532,-169.9936"/>
</g>
<!-- 598 -->
<g id="node25" class="node">
<title>598</title>
<ellipse fill="#ffffff" stroke="#000000" cx="87" cy="-307.4041" rx="21.4286" ry="21.4286"/>
<text text-anchor="middle" x="87" y="-305.2041" font-family="Times,serif" font-size="9.00" fill="#000000">598</text>
</g>
<!-- y&#45;lm1&#45;vec&#45;&gt;598 -->
<g id="edge48" class="edge">
<title>y&#45;lm1&#45;vec&#45;&gt;598</title>
<path fill="none" stroke="#00ff00" stroke-width=".2098" d="M117.1879,-459.3768C112.6317,-436.4401 100.5336,-375.5355 93.1097,-338.1617"/>
<polygon fill="#00ff00" stroke="#00ff00" stroke-width=".2098" points="96.5312,-337.4219 91.1499,-328.2955 89.6654,-338.7858 96.5312,-337.4219"/>
</g>
<!-- x&#45;lm2&#45;vec -->
<g id="node7" class="node">
<title>x&#45;lm2&#45;vec</title>
<polygon fill="#d3d3d3" stroke="#000000" points="607.5,-558.7544 554.5,-558.7544 554.5,-540.7544 607.5,-540.7544 607.5,-558.7544"/>
<text text-anchor="middle" x="581" y="-547.5544" font-family="Times,serif" font-size="9.00" fill="#000000">x&#45;lm2&#45;vec</text>
</g>
<!-- x&#45;lm2&#45;vec&#45;&gt;left -->
<g id="edge15" class="edge">
<title>x&#45;lm2&#45;vec&#45;&gt;left</title>
<path fill="none" stroke="#ff0000" stroke-width=".1163" stroke-dasharray="1,5" d="M554.4506,-542.2411C525.1838,-533.0845 477.663,-515.5642 443,-489.7128 406.4812,-462.4773 400.7996,-450.1319 377,-411.2864 325.6994,-327.5538 355.9448,-281.4196 291,-207.7645 266.7671,-180.2815 228.5985,-161.1026 202.491,-150.3167"/>
<polygon fill="#ff0000" stroke="#ff0000" stroke-width=".1163" points="203.7153,-147.0371 193.1298,-146.5941 201.1286,-153.5416 203.7153,-147.0371"/>
</g>
<!-- x&#45;lm2&#45;vec&#45;&gt;forward -->
<g id="edge13" class="edge">
<title>x&#45;lm2&#45;vec&#45;&gt;forward</title>
<path fill="none" stroke="#00ff00" stroke-width=".5606" stroke-dasharray="1,5" d="M606.0527,-540.6278C628.9446,-531.1245 662.2909,-514.1812 683,-489.7128 714.2905,-452.742 722,-436.3867 722,-387.9518 722,-387.9518 722,-387.9518 722,-307.4041 722,-264.7147 721.0133,-215.9138 720.1717,-182.051"/>
<polygon fill="#00ff00" stroke="#00ff00" stroke-width=".5606" points="723.6704,-181.9522 719.9164,-172.0447 716.6727,-182.1308 723.6704,-181.9522"/>
</g>
<!-- x&#45;lm2&#45;vec&#45;&gt;556 -->
<g id="edge62" class="edge">
<title>x&#45;lm2&#45;vec&#45;&gt;556</title>
<path fill="none" stroke="#00ff00" stroke-width=".2516" d="M554.3936,-544.611C505.2531,-534.9595 397.0518,-512.9974 307,-489.7128 293.4375,-486.2059 278.567,-481.8444 265.955,-477.9897"/>
<polygon fill="#00ff00" stroke="#00ff00" stroke-width=".2516" points="266.9804,-474.6433 256.3928,-475.033 264.9125,-481.3309 266.9804,-474.6433"/>
</g>
<!-- x&#45;lm2&#45;vec&#45;&gt;18 -->
<g id="edge28" class="edge">
<title>x&#45;lm2&#45;vec&#45;&gt;18</title>
<path fill="none" stroke="#00ff00" stroke-width=".3355" stroke-dasharray="1,5" d="M603.0619,-540.6643C622.8231,-531.1868 650.5492,-514.261 663,-489.7128 702.4502,-411.9318 668.7594,-304.3545 649.3759,-255.2806"/>
<polygon fill="#00ff00" stroke="#00ff00" stroke-width=".3355" points="652.6111,-253.9449 645.602,-245.9999 646.1267,-256.5818 652.6111,-253.9449"/>
</g>
<!-- y&#45;lm2&#45;vec -->
<g id="node8" class="node">
<title>y&#45;lm2&#45;vec</title>
<polygon fill="#d3d3d3" stroke="#000000" points="505.5,-477.4996 452.5,-477.4996 452.5,-459.4996 505.5,-459.4996 505.5,-477.4996"/>
<text text-anchor="middle" x="479" y="-466.2996" font-family="Times,serif" font-size="9.00" fill="#000000">y&#45;lm2&#45;vec</text>
</g>
<!-- y&#45;lm2&#45;vec&#45;&gt;right -->
<g id="edge24" class="edge">
<title>y&#45;lm2&#45;vec&#45;&gt;right</title>
<path fill="none" stroke="#ff0000" stroke-width=".3878" stroke-dasharray="1,5" d="M470.9701,-459.2597C461.3677,-448.2104 444.8931,-429.2533 431.3432,-413.6618"/>
<polygon fill="#ff0000" stroke="#ff0000" stroke-width=".3878" points="433.7774,-411.127 424.576,-405.8749 428.4938,-415.7187 433.7774,-411.127"/>
</g>
<!-- y&#45;lm2&#45;vec&#45;&gt;backward -->
<g id="edge23" class="edge">
<title>y&#45;lm2&#45;vec&#45;&gt;backward</title>
<path fill="none" stroke="#00ff00" stroke-width=".4086" d="M478.9041,-459.4162C478.6538,-434.895 478,-365.2989 478,-307.4041 478,-307.4041 478,-307.4041 478,-228.9777 478,-177.274 491.3023,-119.2201 502.1661,-80.4299"/>
<polygon fill="#00ff00" stroke="#00ff00" stroke-width=".4086" points="505.6183,-81.0878 505.0088,-70.5105 498.8892,-79.1593 505.6183,-81.0878"/>
</g>
<!-- x&#45;other&#45;vec -->
<g id="node9" class="node">
<title>x&#45;other&#45;vec</title>
<polygon fill="#d3d3d3" stroke="#000000" points="582,-477.4996 524,-477.4996 524,-459.4996 582,-459.4996 582,-477.4996"/>
<text text-anchor="middle" x="553" y="-466.2996" font-family="Times,serif" font-size="9.00" fill="#000000">x&#45;other&#45;vec</text>
</g>
<!-- x&#45;other&#45;vec&#45;&gt;right -->
<g id="edge22" class="edge">
<title>x&#45;other&#45;vec&#45;&gt;right</title>
<path fill="none" stroke="#ff0000" stroke-width=".6667" stroke-dasharray="1,5" d="M536.7613,-459.4163C513.0005,-446.1255 468.3636,-421.1574 438.6522,-404.5381"/>
<polygon fill="#ff0000" stroke="#ff0000" stroke-width=".6667" points="440.0116,-401.2881 429.5755,-399.4609 436.5943,-407.3974 440.0116,-401.2881"/>
</g>
<!-- x&#45;other&#45;vec&#45;&gt;backward -->
<g id="edge4" class="edge">
<title>x&#45;other&#45;vec&#45;&gt;backward</title>
<path fill="none" stroke="#00ff00" stroke-width=".2221" stroke-dasharray="1,5" d="M549.317,-459.2292C539.9583,-434.8084 516,-366.5182 516,-307.4041 516,-307.4041 516,-307.4041 516,-228.9777 516,-178.8636 516,-121.4268 516,-82.3476"/>
<polygon fill="#00ff00" stroke="#00ff00" stroke-width=".2221" points="519.5001,-82.3292 516,-72.3292 512.5001,-82.3292 519.5001,-82.3292"/>
</g>
<!-- 475 -->
<g id="node28" class="node">
<title>475</title>
<ellipse fill="#ffffff" stroke="#000000" cx="608" cy="-139.9447" rx="21.4286" ry="21.4286"/>
<text text-anchor="middle" x="608" y="-137.7447" font-family="Times,serif" font-size="9.00" fill="#000000">475</text>
</g>
<!-- x&#45;other&#45;vec&#45;&gt;475 -->
<g id="edge39" class="edge">
<title>x&#45;other&#45;vec&#45;&gt;475</title>
<path fill="none" stroke="#ff0000" stroke-width=".4333" stroke-dasharray="1,5" d="M554.5284,-459.3692C561.5254,-417.5713 590.6762,-243.4326 602.7388,-171.3736"/>
<polygon fill="#ff0000" stroke="#ff0000" stroke-width=".4333" points="606.257,-171.5556 604.4561,-161.115 599.353,-170.3999 606.257,-171.5556"/>
</g>
<!-- y&#45;other&#45;vec -->
<g id="node10" class="node">
<title>y&#45;other&#45;vec</title>
<polygon fill="#d3d3d3" stroke="#000000" points="574,-784.6488 516,-784.6488 516,-766.6488 574,-766.6488 574,-784.6488"/>
<text text-anchor="middle" x="545" y="-773.4488" font-family="Times,serif" font-size="9.00" fill="#000000">y&#45;other&#45;vec</text>
</g>
<!-- x&#45;other&#45;vel -->
<g id="node11" class="node">
<title>x&#45;other&#45;vel</title>
<polygon fill="#d3d3d3" stroke="#000000" points="260,-558.7544 204,-558.7544 204,-540.7544 260,-540.7544 260,-558.7544"/>
<text text-anchor="middle" x="232" y="-547.5544" font-family="Times,serif" font-size="9.00" fill="#000000">x&#45;other&#45;vel</text>
</g>
<!-- x&#45;other&#45;vel&#45;&gt;556 -->
<g id="edge50" class="edge">
<title>x&#45;other&#45;vel&#45;&gt;556</title>
<path fill="none" stroke="#00ff00" stroke-width=".1378" stroke-dasharray="1,5" d="M232.4434,-540.7483C232.9278,-530.9064 233.7313,-514.5855 234.4521,-499.9438"/>
<polygon fill="#00ff00" stroke="#00ff00" stroke-width=".1378" points="237.9605,-499.8558 234.9566,-489.6958 230.969,-499.5116 237.9605,-499.8558"/>
</g>
<!-- y&#45;other&#45;vel -->
<g id="node12" class="node">
<title>y&#45;other&#45;vel</title>
<polygon fill="#d3d3d3" stroke="#000000" points="314,-640.0092 258,-640.0092 258,-622.0092 314,-622.0092 314,-640.0092"/>
<text text-anchor="middle" x="286" y="-628.8092" font-family="Times,serif" font-size="9.00" fill="#000000">y&#45;other&#45;vel</text>
</g>
<!-- y&#45;other&#45;vel&#45;&gt;none -->
<g id="edge27" class="edge">
<title>y&#45;other&#45;vel&#45;&gt;none</title>
<path fill="none" stroke="#ff0000" stroke-width=".3156" d="M291.9853,-622.0031C298.9177,-611.5718 310.6871,-593.8621 320.8381,-578.5877"/>
<polygon fill="#ff0000" stroke="#ff0000" stroke-width=".3156" points="323.9591,-580.215 326.579,-569.9492 318.1291,-576.3405 323.9591,-580.215"/>
</g>
<!-- y&#45;other&#45;vel&#45;&gt;left -->
<g id="edge19" class="edge">
<title>y&#45;other&#45;vel&#45;&gt;left</title>
<path fill="none" stroke="#ff0000" stroke-width=".2154" stroke-dasharray="1,5" d="M269.9433,-621.9342C245.0703,-607.7282 199.5922,-581.104 195,-573.796 150.774,-503.4149 174,-471.0749 174,-387.9518 174,-387.9518 174,-387.9518 174,-307.4041 174,-259.2653 174,-203.3425 174,-169.8438"/>
<polygon fill="#ff0000" stroke="#ff0000" stroke-width=".2154" points="177.5001,-169.7937 174,-159.7938 170.5001,-169.7938 177.5001,-169.7937"/>
</g>
<!-- y&#45;other&#45;vel&#45;&gt;forward -->
<g id="edge21" class="edge">
<title>y&#45;other&#45;vel&#45;&gt;forward</title>
<path fill="none" stroke="#00ff00" stroke-width=".5369" stroke-dasharray="1,5" d="M298.7545,-622.0016C305.6237,-617.5995 314.4286,-612.648 323,-609.796 447.9096,-568.2345 494.6639,-622.4136 617,-573.796 690.3468,-544.6473 760,-547.4261 760,-468.4996 760,-468.4996 760,-468.4996 760,-307.4041 760,-262.4542 745.8908,-212.6143 734.2259,-179.09"/>
<polygon fill="#00ff00" stroke="#00ff00" stroke-width=".5369" points="737.5177,-177.9004 730.8589,-169.6596 730.9252,-180.2542 737.5177,-177.9004"/>
</g>
<!-- none&#45;&gt;none -->
<g id="edge14" class="edge">
<title>none&#45;&gt;none</title>
<path fill="none" stroke="#00ff00" stroke-width=".4762" d="M359.8966,-563.9304C371.3653,-566.8235 382.0416,-562.0982 382.0416,-549.7544 382.0416,-541.2681 376.9954,-536.3826 370.1147,-535.0981"/>
<polygon fill="#00ff00" stroke="#00ff00" stroke-width=".4762" points="369.7212,-531.6126 359.8966,-535.5784 370.0499,-538.6049 369.7212,-531.6126"/>
</g>
<!-- 198 -->
<g id="node19" class="node">
<title>198</title>
<ellipse fill="#ffffff" stroke="#000000" cx="337" cy="-468.4996" rx="21.4286" ry="21.4286"/>
<text text-anchor="middle" x="337" y="-466.2996" font-family="Times,serif" font-size="9.00" fill="#000000">198</text>
</g>
<!-- none&#45;&gt;198 -->
<g id="edge33" class="edge">
<title>none&#45;&gt;198</title>
<path fill="none" stroke="#00ff00" stroke-width=".1311" stroke-dasharray="1,5" d="M332.9933,-526.6874C332.0666,-518.1892 331.5666,-508.4217 331.5658,-499.3464"/>
<polygon fill="#00ff00" stroke="#00ff00" stroke-width=".1311" points="335.0699,-499.2055 331.7985,-489.1283 328.0717,-499.046 335.0699,-499.2055"/>
</g>
<!-- right&#45;&gt;right -->
<g id="edge10" class="edge">
<title>right&#45;&gt;right</title>
<path fill="none" stroke="#00ff00" stroke-width=".6143" d="M428.1334,-402.0143C439.5703,-405.1393 450.3345,-400.4518 450.3345,-387.9518 450.3345,-379.3581 445.2468,-374.457 438.3505,-373.2485"/>
<polygon fill="#00ff00" stroke="#00ff00" stroke-width=".6143" points="437.8946,-369.7701 428.1334,-373.8893 438.3329,-376.7564 437.8946,-369.7701"/>
</g>
<!-- 319 -->
<g id="node29" class="node">
<title>319</title>
<ellipse fill="#ffffff" stroke="#000000" cx="409" cy="-307.4041" rx="21.4286" ry="21.4286"/>
<text text-anchor="middle" x="409" y="-305.2041" font-family="Times,serif" font-size="9.00" fill="#000000">319</text>
</g>
<!-- right&#45;&gt;319 -->
<g id="edge36" class="edge">
<title>right&#45;&gt;319</title>
<path fill="none" stroke="#ff0000" stroke-width=".2251" d="M402.8449,-365.0855C402.232,-356.6613 402.0927,-346.9788 402.4269,-337.9825"/>
<polygon fill="#ff0000" stroke="#ff0000" stroke-width=".2251" points="405.9294,-338.0457 403.0369,-327.8534 398.942,-337.6249 405.9294,-338.0457"/>
</g>
<!-- left&#45;&gt;left -->
<g id="edge1" class="edge">
<title>left&#45;&gt;left</title>
<path fill="none" stroke="#00ff00" stroke-width=".4254" stroke-dasharray="1,5" d="M188.35,-154.1244C199.8884,-159.7963 211.799,-155.0697 211.799,-139.9447 211.799,-129.1918 205.779,-123.6945 198.1526,-123.453"/>
<polygon fill="#00ff00" stroke="#00ff00" stroke-width=".4254" points="197.2794,-120.0628 188.35,-125.765 198.8864,-126.8759 197.2794,-120.0628"/>
</g>
<!-- 694 -->
<g id="node26" class="node">
<title>694</title>
<ellipse fill="#ffffff" stroke="#000000" cx="174" cy="-36.0624" rx="21.4286" ry="21.4286"/>
<text text-anchor="middle" x="174" y="-33.8624" font-family="Times,serif" font-size="9.00" fill="#000000">694</text>
</g>
<!-- left&#45;&gt;694 -->
<g id="edge54" class="edge">
<title>left&#45;&gt;694</title>
<path fill="none" stroke="#ff0000" stroke-width=".2416" stroke-dasharray="1,5" d="M168.5885,-120.4052C167.1363,-105.3169 166.8658,-84.155 167.7768,-66.8035"/>
<polygon fill="#ff0000" stroke="#ff0000" stroke-width=".2416" points="171.2855,-66.8016 168.4968,-56.5804 164.3028,-66.3098 171.2855,-66.8016"/>
</g>
<!-- forward&#45;&gt;forward -->
<g id="edge7" class="edge">
<title>forward&#45;&gt;forward</title>
<path fill="none" stroke="#ff0000" stroke-width=".4392" stroke-dasharray="1,5" d="M746.413,-156.2181C758.4564,-157.6582 768.8198,-152.2338 768.8198,-139.9447 768.8198,-131.3039 763.6963,-126.057 756.4677,-124.2037"/>
<polygon fill="#ff0000" stroke="#ff0000" stroke-width=".4392" points="756.5841,-120.7051 746.413,-123.6713 756.2139,-127.6953 756.5841,-120.7051"/>
</g>
<!-- 661 -->
<g id="node24" class="node">
<title>661</title>
<ellipse fill="#ffffff" stroke="#000000" cx="719" cy="-36.0624" rx="21.4286" ry="21.4286"/>
<text text-anchor="middle" x="719" y="-33.8624" font-family="Times,serif" font-size="9.00" fill="#000000">661</text>
</g>
<!-- forward&#45;&gt;661 -->
<g id="edge51" class="edge">
<title>forward&#45;&gt;661</title>
<path fill="none" stroke="#00ff00" stroke-width=".2119" d="M712.7404,-108.4947C712.0712,-95.2067 712.0869,-79.7878 712.7876,-66.6"/>
<polygon fill="#00ff00" stroke="#00ff00" stroke-width=".2119" points="716.2816,-66.8074 713.4964,-56.5853 709.299,-66.3132 716.2816,-66.8074"/>
</g>
<!-- backward&#45;&gt;backward -->
<g id="edge16" class="edge">
<title>backward&#45;&gt;backward</title>
<path fill="none" stroke="#ff0000" stroke-width=".4716" d="M546.8397,-55.0462C559.4368,-56.2361 570.0624,-49.9081 570.0624,-36.0624 570.0624,-26.219 564.6919,-20.1753 557.0605,-17.9313"/>
<polygon fill="#ff0000" stroke="#ff0000" stroke-width=".4716" points="557.0961,-14.4222 546.8397,-17.0787 556.514,-21.398 557.0961,-14.4222"/>
</g>
<!-- 581&#45;&gt;18 -->
<g id="edge46" class="edge">
<title>581&#45;&gt;18</title>
<path fill="none" stroke="#00ff00" stroke-width=".3279" stroke-dasharray="1,5" d="M575.1637,-628.3151C624.7156,-621.5819 746.1769,-602.4759 774,-573.796 807.4217,-539.3452 798,-516.4982 798,-468.4996 798,-468.4996 798,-468.4996 798,-387.9518 798,-313.5303 709.8145,-261.9899 664.3815,-240.3749"/>
<polygon fill="#00ff00" stroke="#00ff00" stroke-width=".3279" points="665.6693,-237.1145 655.1228,-236.103 662.7366,-243.4705 665.6693,-237.1145"/>
</g>
<!-- 198&#45;&gt;none -->
<g id="edge34" class="edge">
<title>198&#45;&gt;none</title>
<path fill="none" stroke="#00ff00" stroke-width=".2102" stroke-dasharray="1,5" d="M343.6649,-488.6454C344.7033,-496.9247 345.3126,-506.7409 345.4178,-516.0562"/>
<polygon fill="#00ff00" stroke="#00ff00" stroke-width=".2102" points="341.9161,-516.2184 345.3183,-526.2521 348.9158,-516.2868 341.9161,-516.2184"/>
</g>
<!-- 198&#45;&gt;right -->
<g id="edge47" class="edge">
<title>198&#45;&gt;right</title>
<path fill="none" stroke="#00ff00" stroke-width=".1581" d="M351.2249,-452.5859C361.2707,-441.3475 374.9401,-426.0552 386.4609,-413.1667"/>
<polygon fill="#00ff00" stroke="#00ff00" stroke-width=".1581" points="389.25,-415.2984 393.3049,-405.5102 384.031,-410.6333 389.25,-415.2984"/>
</g>
<!-- 795 -->
<g id="node20" class="node">
<title>795</title>
<ellipse fill="#ffffff" stroke="#000000" cx="261" cy="-228.9777" rx="21.4286" ry="21.4286"/>
<text text-anchor="middle" x="261" y="-226.7777" font-family="Times,serif" font-size="9.00" fill="#000000">795</text>
</g>
<!-- 795&#45;&gt;left -->
<g id="edge61" class="edge">
<title>795&#45;&gt;left</title>
<path fill="none" stroke="#ff0000" stroke-width=".3411" d="M245.8458,-213.4693C231.872,-199.169 210.9861,-177.7951 195.3297,-161.7728"/>
<polygon fill="#ff0000" stroke="#ff0000" stroke-width=".3411" points="197.6094,-159.0979 188.1171,-154.3917 192.6028,-163.9901 197.6094,-159.0979"/>
</g>
<!-- 727&#45;&gt;581 -->
<g id="edge57" class="edge">
<title>727&#45;&gt;581</title>
<path fill="none" stroke="#ff0000" stroke-width=".1068" d="M516.3647,-691.2459C522.611,-681.2485 530.4745,-668.6627 537.3964,-657.5839"/>
<polygon fill="#ff0000" stroke="#ff0000" stroke-width=".1068" points="540.3664,-659.4357 542.6969,-649.1003 534.4299,-655.7265 540.3664,-659.4357"/>
</g>
<!-- 727&#45;&gt;184 -->
<g id="edge58" class="edge">
<title>727&#45;&gt;184</title>
<path fill="none" stroke="#00ff00" stroke-width=".1181" d="M485.0175,-701.356C460.3949,-691.1105 417.5761,-672.3418 383,-652.2224 381.5217,-651.3622 380.024,-650.4495 378.5271,-649.5047"/>
<polygon fill="#00ff00" stroke="#00ff00" stroke-width=".1181" points="380.3657,-646.5239 370.1047,-643.8851 376.4805,-652.3468 380.3657,-646.5239"/>
</g>
<!-- 556&#45;&gt;right -->
<g id="edge53" class="edge">
<title>556&#45;&gt;right</title>
<path fill="none" stroke="#ff0000" stroke-width=".3047" d="M255.509,-459.4163C285.395,-445.5016 342.7712,-418.7876 378.28,-402.2549"/>
<polygon fill="#ff0000" stroke="#ff0000" stroke-width=".3047" points="380.0861,-405.2748 387.6744,-397.8809 377.1315,-398.9289 380.0861,-405.2748"/>
</g>
<!-- 556&#45;&gt;left -->
<g id="edge44" class="edge">
<title>556&#45;&gt;left</title>
<path fill="none" stroke="#00ff00" stroke-width=".3491" d="M232.2952,-447.5165C224.4333,-403.1865 205.3749,-296.7578 188,-207.7645 185.5411,-195.1701 182.6989,-181.2885 180.2205,-169.3823"/>
<polygon fill="#00ff00" stroke="#00ff00" stroke-width=".3491" points="183.6288,-168.5811 178.155,-159.5098 176.7771,-170.0147 183.6288,-168.5811"/>
</g>
<!-- 556&#45;&gt;795 -->
<g id="edge60" class="edge">
<title>556&#45;&gt;795</title>
<path fill="none" stroke="#00ff00" stroke-width=".7203" d="M238.2186,-447.2436C242.6385,-404.8974 252.5609,-309.8317 257.7295,-260.3121"/>
<polygon fill="#00ff00" stroke="#00ff00" stroke-width=".7203" points="261.2293,-260.4954 258.7864,-250.186 254.2671,-259.7686 261.2293,-260.4954"/>
</g>
<!-- 18&#45;&gt;forward -->
<g id="edge29" class="edge">
<title>18&#45;&gt;forward</title>
<path fill="none" stroke="#ff0000" stroke-width=".2244" d="M650.6563,-215.0663C661.2654,-203.405 676.8153,-186.313 690.4033,-171.3775"/>
<polygon fill="#ff0000" stroke="#ff0000" stroke-width=".2244" points="693.1529,-173.5562 697.2935,-163.8039 687.975,-168.8455 693.1529,-173.5562"/>
</g>
<!-- 18&#45;&gt;backward -->
<g id="edge35" class="edge">
<title>18&#45;&gt;backward</title>
<path fill="none" stroke="#00ff00" stroke-width="1.3354" d="M643.1558,-211.19C649.2811,-186.3178 656.5125,-140.5606 638,-108.1249 621.4203,-79.0756 588.0366,-60.5555 560.3762,-49.5746"/>
<polygon fill="#00ff00" stroke="#00ff00" stroke-width="1.3354" points="561.4601,-46.243 550.868,-46.0001 558.9968,-52.7952 561.4601,-46.243"/>
</g>
<!-- 18&#45;&gt;475 -->
<g id="edge59" class="edge">
<title>18&#45;&gt;475</title>
<path fill="none" stroke="#00ff00" stroke-width=".2901" d="M632.073,-211.3876C628.0881,-199.5615 622.7349,-183.6744 618.0884,-169.8848"/>
<polygon fill="#00ff00" stroke="#00ff00" stroke-width=".2901" points="621.3697,-168.6615 614.8597,-160.3026 614.7361,-170.8968 621.3697,-168.6615"/>
</g>
<!-- 661&#45;&gt;forward -->
<g id="edge52" class="edge">
<title>661&#45;&gt;forward</title>
<path fill="none" stroke="#00ff00" stroke-width=".1213" stroke-dasharray="1,5" d="M724.5036,-56.5853C725.5917,-68.4998 725.9673,-83.9474 725.6307,-98.3018"/>
<polygon fill="#00ff00" stroke="#00ff00" stroke-width=".1213" points="722.1258,-98.374 725.2596,-108.4947 729.1212,-98.6287 722.1258,-98.374"/>
</g>
<!-- 598&#45;&gt;left -->
<g id="edge49" class="edge">
<title>598&#45;&gt;left</title>
<path fill="none" stroke="#ff0000" stroke-width=".1778" stroke-dasharray="1,5" d="M92.1848,-286.7623C97.858,-266.0369 108.0398,-233.5654 122,-207.7645 130.8037,-191.4938 143.3674,-174.9839 153.9399,-162.3278"/>
<polygon fill="#ff0000" stroke="#ff0000" stroke-width=".1778" points="156.7016,-164.4836 160.5405,-154.6086 151.3814,-159.9343 156.7016,-164.4836"/>
</g>
<!-- 694&#45;&gt;left -->
<g id="edge55" class="edge">
<title>694&#45;&gt;left</title>
<path fill="none" stroke="#ff0000" stroke-width=".122" d="M179.5032,-56.5804C180.9048,-71.9246 181.1247,-93.1304 180.163,-110.3141"/>
<polygon fill="#ff0000" stroke="#ff0000" stroke-width=".122" points="176.6639,-110.1729 179.4115,-120.4052 183.6445,-110.6928 176.6639,-110.1729"/>
</g>
<!-- 184&#45;&gt;none -->
<g id="edge32" class="edge">
<title>184&#45;&gt;none</title>
<path fill="none" stroke="#00ff00" stroke-width=".3643" stroke-dasharray="1,5" d="M349.5844,-609.6605C348.3083,-601.6847 346.8258,-592.4184 345.4137,-583.5921"/>
<polygon fill="#00ff00" stroke="#00ff00" stroke-width=".3643" points="348.8409,-582.8581 343.8049,-573.5366 341.9288,-583.964 348.8409,-582.8581"/>
</g>
<!-- 475&#45;&gt;backward -->
<g id="edge40" class="edge">
<title>475&#45;&gt;backward</title>
<path fill="none" stroke="#00ff00" stroke-width=".3711" d="M593.625,-123.7131C581.1787,-109.6592 562.7454,-88.8452 546.9647,-71.0264"/>
<polygon fill="#00ff00" stroke="#00ff00" stroke-width=".3711" points="549.1819,-68.2509 539.9318,-63.0851 543.9415,-72.8919 549.1819,-68.2509"/>
</g>
<!-- 319&#45;&gt;right -->
<g id="edge37" class="edge">
<title>319&#45;&gt;right</title>
<path fill="none" stroke="#00ff00" stroke-width=".2214" stroke-dasharray="1,5" d="M414.9631,-327.8534C415.6757,-336.1036 415.9043,-345.8325 415.649,-355.0317"/>
<polygon fill="#00ff00" stroke="#00ff00" stroke-width=".2214" points="412.15,-354.9258 415.1551,-365.0855 419.1416,-355.2694 412.15,-354.9258"/>
</g>
<!-- 319&#45;&gt;backward -->
<g id="edge42" class="edge">
<title>319&#45;&gt;backward</title>
<path fill="none" stroke="#ff0000" stroke-width=".7475" d="M412.3024,-286.1675C418.6678,-248.7589 434.6671,-169.288 464,-108.1249 470.0074,-95.5985 478.2224,-82.9685 486.3486,-71.8574"/>
<polygon fill="#ff0000" stroke="#ff0000" stroke-width=".7475" points="489.2849,-73.7766 492.5075,-63.6837 483.6943,-69.564 489.2849,-73.7766"/>
</g>
<!-- 319&#45;&gt;795 -->
<g id="edge63" class="edge">
<title>319&#45;&gt;795</title>
<path fill="none" stroke="#ff0000" stroke-width=".2925" stroke-dasharray="1,5" d="M390.2557,-297.4714C364.7077,-283.9333 318.7451,-259.5773 289.074,-243.8544"/>
<polygon fill="#ff0000" stroke="#ff0000" stroke-width=".2925" points="290.5345,-240.6673 280.0596,-239.0775 287.2568,-246.8525 290.5345,-240.6673"/>
</g>
<!-- 319&#45;&gt;18 -->
<g id="edge41" class="edge">
<title>319&#45;&gt;18</title>
<path fill="none" stroke="#00ff00" stroke-width=".1042" d="M429.3222,-300.4443C470.6393,-286.2943 564.4502,-254.1665 610.9016,-238.2582"/>
<polygon fill="#00ff00" stroke="#00ff00" stroke-width=".1042" points="612.2585,-241.4931 620.5851,-234.9418 609.9905,-234.8707 612.2585,-241.4931"/>
</g>
</g>
</svg>
