<?xml version="1.0" encoding="UTF-8" standalone="no"?>
<!DOCTYPE svg PUBLIC "-//W3C//DTD SVG 1.1//EN"
 "http://www.w3.org/Graphics/SVG/1.1/DTD/svg11.dtd">
<!-- Generated by graphviz version 2.40.1 (20161225.0304)
 -->
<!-- Title: %3 Pages: 1 -->
<svg width="861pt" height="291pt"
 viewBox="0.00 0.00 861.32 290.98" xmlns="http://www.w3.org/2000/svg" xmlns:xlink="http://www.w3.org/1999/xlink">
<g id="graph0" class="graph" transform="scale(1 1) rotate(0) translate(4 286.9777)">
<title>%3</title>
<polygon fill="#ffffff" stroke="transparent" points="-4,4 -4,-286.9777 857.3181,-286.9777 857.3181,4 -4,4"/>
<!-- x&#45;vel -->
<g id="node1" class="node">
<title>x&#45;vel</title>
<polygon fill="#d3d3d3" stroke="#000000" points="54.8181,-216.7645 19.8181,-216.7645 19.8181,-198.7645 54.8181,-198.7645 54.8181,-216.7645"/>
<text text-anchor="middle" x="37.3181" y="-205.5645" font-family="Times,serif" font-size="9.00" fill="#000000">x&#45;vel</text>
</g>
<!-- none -->
<g id="node13" class="node">
<title>none</title>
<ellipse fill="#add8e6" stroke="#000000" cx="155.3181" cy="-114.4889" rx="24.0833" ry="24.0833"/>
<text text-anchor="middle" x="155.3181" y="-112.2889" font-family="Times,serif" font-size="9.00" fill="#000000">none</text>
</g>
<!-- x&#45;vel&#45;&gt;none -->
<g id="edge8" class="edge">
<title>x&#45;vel&#45;&gt;none</title>
<path fill="none" stroke="#ff0000" stroke-width=".1889" stroke-dasharray="1,5" d="M48.4126,-198.6316C53.0084,-194.8695 58.4037,-190.4801 63.3181,-186.5513 85.0309,-169.1927 109.8557,-149.7725 128.2414,-135.47"/>
<polygon fill="#ff0000" stroke="#ff0000" stroke-width=".1889" points="130.4528,-138.1842 136.2015,-129.2845 126.1577,-132.6568 130.4528,-138.1842"/>
</g>
<!-- y&#45;vel -->
<g id="node2" class="node">
<title>y&#45;vel</title>
<polygon fill="#d3d3d3" stroke="#000000" points="107.8181,-216.7645 72.8181,-216.7645 72.8181,-198.7645 107.8181,-198.7645 107.8181,-216.7645"/>
<text text-anchor="middle" x="90.3181" y="-205.5645" font-family="Times,serif" font-size="9.00" fill="#000000">y&#45;vel</text>
</g>
<!-- y&#45;vel&#45;&gt;none -->
<g id="edge23" class="edge">
<title>y&#45;vel&#45;&gt;none</title>
<path fill="none" stroke="#ff0000" stroke-width=".1027" d="M96.7881,-198.4799C105.7547,-185.6127 122.35,-161.7983 135.5859,-142.8047"/>
<polygon fill="#ff0000" stroke="#ff0000" stroke-width=".1027" points="138.5456,-144.6793 141.3914,-134.4738 132.8025,-140.6771 138.5456,-144.6793"/>
</g>
<!-- left -->
<g id="node15" class="node">
<title>left</title>
<ellipse fill="#add8e6" stroke="#000000" cx="355.3181" cy="-114.4889" rx="19.6" ry="19.6"/>
<text text-anchor="middle" x="355.3181" y="-112.2889" font-family="Times,serif" font-size="9.00" fill="#000000">left</text>
</g>
<!-- y&#45;vel&#45;&gt;left -->
<g id="edge10" class="edge">
<title>y&#45;vel&#45;&gt;left</title>
<path fill="none" stroke="#ff0000" stroke-width=".282" stroke-dasharray="1,5" d="M100.2077,-198.5356C105.0657,-194.3993 111.1844,-189.7444 117.3181,-186.5513 154.2826,-167.3083 270.8488,-136.1059 325.9343,-121.9257"/>
<polygon fill="#ff0000" stroke="#ff0000" stroke-width=".282" points="326.962,-125.2756 335.781,-119.4039 325.2253,-118.4944 326.962,-125.2756"/>
</g>
<!-- x&#45;pos -->
<g id="node3" class="node">
<title>x&#45;pos</title>
<polygon fill="#d3d3d3" stroke="#000000" points="853.3181,-216.7645 817.3181,-216.7645 817.3181,-198.7645 853.3181,-198.7645 853.3181,-216.7645"/>
<text text-anchor="middle" x="835.3181" y="-205.5645" font-family="Times,serif" font-size="9.00" fill="#000000">x&#45;pos</text>
</g>
<!-- right -->
<g id="node14" class="node">
<title>right</title>
<ellipse fill="#add8e6" stroke="#000000" cx="700.3181" cy="-114.4889" rx="23.1702" ry="23.1702"/>
<text text-anchor="middle" x="700.3181" y="-112.2889" font-family="Times,serif" font-size="9.00" fill="#000000">right</text>
</g>
<!-- x&#45;pos&#45;&gt;right -->
<g id="edge20" class="edge">
<title>x&#45;pos&#45;&gt;right</title>
<path fill="none" stroke="#00ff00" stroke-width=".2796" d="M821.8802,-198.4799C800.1217,-183.4463 756.7343,-153.4686 728.1169,-133.6959"/>
<polygon fill="#00ff00" stroke="#00ff00" stroke-width=".2796" points="729.9669,-130.72 719.7501,-127.915 725.9877,-136.479 729.9669,-130.72"/>
</g>
<!-- y&#45;pos -->
<g id="node4" class="node">
<title>y&#45;pos</title>
<polygon fill="#d3d3d3" stroke="#000000" points="557.3181,-282.9777 521.3181,-282.9777 521.3181,-264.9777 557.3181,-264.9777 557.3181,-282.9777"/>
<text text-anchor="middle" x="539.3181" y="-271.7777" font-family="Times,serif" font-size="9.00" fill="#000000">y&#45;pos</text>
</g>
<!-- y&#45;pos&#45;&gt;none -->
<g id="edge32" class="edge">
<title>y&#45;pos&#45;&gt;none</title>
<path fill="none" stroke="#00ff00" stroke-width=".1409" stroke-dasharray="1,5" d="M521.2698,-273.854C432.5618,-273.0629 45.625,-267.4155 10.3181,-228.9777 -30.7391,-184.2797 68.1185,-143.1085 122.486,-124.671"/>
<polygon fill="#00ff00" stroke="#00ff00" stroke-width=".1409" points="123.6822,-127.9619 132.0761,-121.4971 121.4828,-121.3163 123.6822,-127.9619"/>
</g>
<!-- y&#45;pos&#45;&gt;right -->
<g id="edge17" class="edge">
<title>y&#45;pos&#45;&gt;right</title>
<path fill="none" stroke="#ff0000" stroke-width=".4762" d="M557.6583,-268.9358C578.3148,-262.4964 611.917,-249.6429 634.3181,-228.9777 659.3282,-205.9055 677.5117,-171.1397 688.384,-145.9735"/>
<polygon fill="#ff0000" stroke="#ff0000" stroke-width=".4762" points="691.7121,-147.0859 692.3261,-136.5088 685.2502,-144.3944 691.7121,-147.0859"/>
</g>
<!-- y&#45;pos&#45;&gt;left -->
<g id="edge7" class="edge">
<title>y&#45;pos&#45;&gt;left</title>
<path fill="none" stroke="#00ff00" stroke-width=".4403" d="M521.0742,-271.497C482.3936,-265.858 394.0689,-250.8489 374.3181,-228.9777 353.7585,-206.2111 350.9333,-170.0296 352.0202,-144.4422"/>
<polygon fill="#00ff00" stroke="#00ff00" stroke-width=".4403" points="355.5301,-144.4005 352.6852,-134.1948 348.5448,-143.9471 355.5301,-144.4005"/>
</g>
<!-- backward -->
<g id="node17" class="node">
<title>backward</title>
<ellipse fill="#add8e6" stroke="#000000" cx="501.3181" cy="-114.4889" rx="36.125" ry="36.125"/>
<text text-anchor="middle" x="501.3181" y="-112.2889" font-family="Times,serif" font-size="9.00" fill="#000000">backward</text>
</g>
<!-- y&#45;pos&#45;&gt;backward -->
<g id="edge1" class="edge">
<title>y&#45;pos&#45;&gt;backward</title>
<path fill="none" stroke="#00ff00" stroke-width=".1761" d="M537.4531,-264.759C534.1905,-248.7844 527.1428,-214.9437 520.3181,-186.5513 518.2089,-177.7767 515.8386,-168.434 513.506,-159.4842"/>
<polygon fill="#00ff00" stroke="#00ff00" stroke-width=".1761" points="516.8341,-158.3778 510.9045,-149.5977 510.0646,-160.1592 516.8341,-158.3778"/>
</g>
<!-- 105 -->
<g id="node18" class="node">
<title>105</title>
<ellipse fill="#ffffff" stroke="#000000" cx="702.3181" cy="-207.7645" rx="21.4286" ry="21.4286"/>
<text text-anchor="middle" x="702.3181" y="-205.5645" font-family="Times,serif" font-size="9.00" fill="#000000">105</text>
</g>
<!-- y&#45;pos&#45;&gt;105 -->
<g id="edge30" class="edge">
<title>y&#45;pos&#45;&gt;105</title>
<path fill="none" stroke="#00ff00" stroke-width=".4937" d="M557.5939,-268.8559C582.8632,-261.4845 629.6223,-246.7922 667.3181,-228.9777 670.1186,-227.6542 672.9802,-226.1664 675.801,-224.6085"/>
<polygon fill="#00ff00" stroke="#00ff00" stroke-width=".4937" points="677.6712,-227.5695 684.5471,-219.509 674.1453,-221.5223 677.6712,-227.5695"/>
</g>
<!-- x&#45;lm1&#45;vec -->
<g id="node5" class="node">
<title>x&#45;lm1&#45;vec</title>
<polygon fill="#d3d3d3" stroke="#000000" points="255.8181,-216.7645 202.8181,-216.7645 202.8181,-198.7645 255.8181,-198.7645 255.8181,-216.7645"/>
<text text-anchor="middle" x="229.3181" y="-205.5645" font-family="Times,serif" font-size="9.00" fill="#000000">x&#45;lm1&#45;vec</text>
</g>
<!-- x&#45;lm1&#45;vec&#45;&gt;none -->
<g id="edge16" class="edge">
<title>x&#45;lm1&#45;vec&#45;&gt;none</title>
<path fill="none" stroke="#00ff00" stroke-width=".2989" d="M221.9521,-198.4799C211.4601,-185.2549 191.7934,-160.4653 176.5343,-141.2316"/>
<polygon fill="#00ff00" stroke="#00ff00" stroke-width=".2989" points="179.2613,-139.0374 170.3042,-133.3786 173.7774,-143.388 179.2613,-139.0374"/>
</g>
<!-- x&#45;lm1&#45;vec&#45;&gt;left -->
<g id="edge28" class="edge">
<title>x&#45;lm1&#45;vec&#45;&gt;left</title>
<path fill="none" stroke="#ff0000" stroke-width=".3253" d="M241.8601,-198.4799C262.6421,-183.0953 304.5648,-152.0606 331.2203,-132.328"/>
<polygon fill="#ff0000" stroke="#ff0000" stroke-width=".3253" points="333.3373,-135.1156 339.2921,-126.3526 329.1723,-129.4894 333.3373,-135.1156"/>
</g>
<!-- x&#45;lm1&#45;vec&#45;&gt;backward -->
<g id="edge22" class="edge">
<title>x&#45;lm1&#45;vec&#45;&gt;backward</title>
<path fill="none" stroke="#ff0000" stroke-width=".2359" d="M242.8723,-198.5741C249.4302,-194.4463 257.5501,-189.7873 265.3181,-186.5513 323.4329,-162.3414 342.2327,-169.3452 402.3181,-150.5513 420.7065,-144.7996 440.7223,-137.6762 457.9136,-131.2834"/>
<polygon fill="#ff0000" stroke="#ff0000" stroke-width=".2359" points="459.543,-134.4103 467.6756,-127.6198 457.0834,-127.8567 459.543,-134.4103"/>
</g>
<!-- y&#45;lm1&#45;vec -->
<g id="node6" class="node">
<title>y&#45;lm1&#45;vec</title>
<polygon fill="#d3d3d3" stroke="#000000" points="510.8181,-216.7645 457.8181,-216.7645 457.8181,-198.7645 510.8181,-198.7645 510.8181,-216.7645"/>
<text text-anchor="middle" x="484.3181" y="-205.5645" font-family="Times,serif" font-size="9.00" fill="#000000">y&#45;lm1&#45;vec</text>
</g>
<!-- y&#45;lm1&#45;vec&#45;&gt;left -->
<g id="edge6" class="edge">
<title>y&#45;lm1&#45;vec&#45;&gt;left</title>
<path fill="none" stroke="#ff0000" stroke-width=".1856" d="M471.4774,-198.4799C450.2005,-183.0953 407.2797,-152.0606 379.9895,-132.328"/>
<polygon fill="#ff0000" stroke="#ff0000" stroke-width=".1856" points="381.8799,-129.3758 371.7255,-126.3526 377.7783,-135.0483 381.8799,-129.3758"/>
</g>
<!-- forward -->
<g id="node16" class="node">
<title>forward</title>
<ellipse fill="#add8e6" stroke="#000000" cx="608.3181" cy="-114.4889" rx="31.6406" ry="31.6406"/>
<text text-anchor="middle" x="608.3181" y="-112.2889" font-family="Times,serif" font-size="9.00" fill="#000000">forward</text>
</g>
<!-- y&#45;lm1&#45;vec&#45;&gt;forward -->
<g id="edge15" class="edge">
<title>y&#45;lm1&#45;vec&#45;&gt;forward</title>
<path fill="none" stroke="#ff0000" stroke-width=".2414" stroke-dasharray="1,5" d="M497.5355,-198.709C513.5575,-187.6416 541.2747,-168.2041 564.3181,-150.5513 568.1354,-147.6269 572.0923,-144.5105 575.9975,-141.3809"/>
<polygon fill="#ff0000" stroke="#ff0000" stroke-width=".2414" points="578.3125,-144.0099 583.8797,-134.9956 573.9062,-138.5707 578.3125,-144.0099"/>
</g>
<!-- y&#45;lm1&#45;vec&#45;&gt;backward -->
<g id="edge21" class="edge">
<title>y&#45;lm1&#45;vec&#45;&gt;backward</title>
<path fill="none" stroke="#00ff00" stroke-width=".8618" stroke-dasharray="1,5" d="M486.0102,-198.4799C487.6752,-189.3445 490.3459,-174.691 492.9938,-160.1623"/>
<polygon fill="#00ff00" stroke="#00ff00" stroke-width=".8618" points="496.4609,-160.6588 494.8107,-150.1933 489.5743,-159.4036 496.4609,-160.6588"/>
</g>
<!-- 202 -->
<g id="node19" class="node">
<title>202</title>
<ellipse fill="#ffffff" stroke="#000000" cx="355.3181" cy="-21.2132" rx="21.4286" ry="21.4286"/>
<text text-anchor="middle" x="355.3181" y="-19.0132" font-family="Times,serif" font-size="9.00" fill="#000000">202</text>
</g>
<!-- y&#45;lm1&#45;vec&#45;&gt;202 -->
<g id="edge35" class="edge">
<title>y&#45;lm1&#45;vec&#45;&gt;202</title>
<path fill="none" stroke="#ff0000" stroke-width=".1642" d="M479.1141,-198.7357C466.6548,-177.3107 433.8011,-121.9367 402.3181,-78.4264 394.1125,-67.0862 384.384,-55.0418 375.9127,-44.9441"/>
<polygon fill="#ff0000" stroke="#ff0000" stroke-width=".1642" points="378.5789,-42.6766 369.4415,-37.3139 373.2403,-47.2043 378.5789,-42.6766"/>
</g>
<!-- x&#45;lm2&#45;vec -->
<g id="node7" class="node">
<title>x&#45;lm2&#45;vec</title>
<polygon fill="#d3d3d3" stroke="#000000" points="777.8181,-282.9777 724.8181,-282.9777 724.8181,-264.9777 777.8181,-264.9777 777.8181,-282.9777"/>
<text text-anchor="middle" x="751.3181" y="-271.7777" font-family="Times,serif" font-size="9.00" fill="#000000">x&#45;lm2&#45;vec</text>
</g>
<!-- x&#45;lm2&#45;vec&#45;&gt;forward -->
<g id="edge9" class="edge">
<title>x&#45;lm2&#45;vec&#45;&gt;forward</title>
<path fill="none" stroke="#ff0000" stroke-width=".202" d="M756.6653,-264.8603C765.869,-247.8433 782.1699,-210.7806 765.3181,-186.5513 739.0615,-148.8 709.7589,-170.4817 668.3181,-150.5513 660.2012,-146.6476 651.7555,-141.9819 643.8517,-137.3225"/>
<polygon fill="#ff0000" stroke="#ff0000" stroke-width=".202" points="645.5751,-134.2746 635.2047,-132.1055 641.959,-140.2682 645.5751,-134.2746"/>
</g>
<!-- x&#45;lm2&#45;vec&#45;&gt;backward -->
<g id="edge19" class="edge">
<title>x&#45;lm2&#45;vec&#45;&gt;backward</title>
<path fill="none" stroke="#ff0000" stroke-width=".7774" stroke-dasharray="1,5" d="M752.2623,-264.8285C753.5459,-247.0834 753.6166,-207.8673 732.3181,-186.5513 679.2654,-133.4552 637.6324,-176.8129 567.3181,-150.5513 558.5149,-147.2634 549.4452,-142.974 540.9545,-138.5061"/>
<polygon fill="#ff0000" stroke="#ff0000" stroke-width=".7774" points="542.4636,-135.3425 532.0086,-133.6268 539.1117,-141.4878 542.4636,-135.3425"/>
</g>
<!-- x&#45;lm2&#45;vec&#45;&gt;105 -->
<g id="edge37" class="edge">
<title>x&#45;lm2&#45;vec&#45;&gt;105</title>
<path fill="none" stroke="#00ff00" stroke-width=".1075" d="M744.5048,-264.771C738.4697,-256.6159 729.3688,-244.3179 721.1631,-233.2296"/>
<polygon fill="#00ff00" stroke="#00ff00" stroke-width=".1075" points="723.8903,-231.031 715.1282,-225.0748 718.2635,-235.1951 723.8903,-231.031"/>
</g>
<!-- y&#45;lm2&#45;vec -->
<g id="node8" class="node">
<title>y&#45;lm2&#45;vec</title>
<polygon fill="#d3d3d3" stroke="#000000" points="326.8181,-216.7645 273.8181,-216.7645 273.8181,-198.7645 326.8181,-198.7645 326.8181,-216.7645"/>
<text text-anchor="middle" x="300.3181" y="-205.5645" font-family="Times,serif" font-size="9.00" fill="#000000">y&#45;lm2&#45;vec</text>
</g>
<!-- y&#45;lm2&#45;vec&#45;&gt;none -->
<g id="edge3" class="edge">
<title>y&#45;lm2&#45;vec&#45;&gt;none</title>
<path fill="none" stroke="#ff0000" stroke-width=".3705" d="M286.1508,-198.651C262.6719,-183.5475 215.2324,-153.0306 184.3928,-133.1921"/>
<polygon fill="#ff0000" stroke="#ff0000" stroke-width=".3705" points="186.088,-130.1209 175.7843,-127.6544 182.3009,-136.0081 186.088,-130.1209"/>
</g>
<!-- y&#45;lm2&#45;vec&#45;&gt;backward -->
<g id="edge14" class="edge">
<title>y&#45;lm2&#45;vec&#45;&gt;backward</title>
<path fill="none" stroke="#ff0000" stroke-width=".8756" d="M319.9567,-198.651C352.0079,-183.7774 416.2698,-153.9561 459.0463,-134.1054"/>
<polygon fill="#ff0000" stroke="#ff0000" stroke-width=".8756" points="460.7624,-137.1676 468.36,-129.7833 457.8158,-130.818 460.7624,-137.1676"/>
</g>
<!-- x&#45;other&#45;vec -->
<g id="node9" class="node">
<title>x&#45;other&#45;vec</title>
<polygon fill="#d3d3d3" stroke="#000000" points="184.3181,-216.7645 126.3181,-216.7645 126.3181,-198.7645 184.3181,-198.7645 184.3181,-216.7645"/>
<text text-anchor="middle" x="155.3181" y="-205.5645" font-family="Times,serif" font-size="9.00" fill="#000000">x&#45;other&#45;vec</text>
</g>
<!-- x&#45;other&#45;vec&#45;&gt;none -->
<g id="edge11" class="edge">
<title>x&#45;other&#45;vec&#45;&gt;none</title>
<path fill="none" stroke="#ff0000" stroke-width=".1175" d="M155.3181,-198.4799C155.3181,-186.9239 155.3181,-166.5379 155.3181,-148.7444"/>
<polygon fill="#ff0000" stroke="#ff0000" stroke-width=".1175" points="158.8182,-148.6537 155.3181,-138.6537 151.8182,-148.6538 158.8182,-148.6537"/>
</g>
<!-- x&#45;other&#45;vec&#45;&gt;left -->
<g id="edge18" class="edge">
<title>x&#45;other&#45;vec&#45;&gt;left</title>
<path fill="none" stroke="#00ff00" stroke-width=".1929" d="M171.4894,-198.6044C178.4499,-194.7569 186.7191,-190.3115 194.3181,-186.5513 240.3346,-163.7805 295.1315,-139.9274 327.4714,-126.1761"/>
<polygon fill="#00ff00" stroke="#00ff00" stroke-width=".1929" points="328.9093,-129.3681 336.7524,-122.2451 326.1792,-122.9224 328.9093,-129.3681"/>
</g>
<!-- y&#45;other&#45;vec -->
<g id="node10" class="node">
<title>y&#45;other&#45;vec</title>
<polygon fill="#d3d3d3" stroke="#000000" points="625.3181,-216.7645 567.3181,-216.7645 567.3181,-198.7645 625.3181,-198.7645 625.3181,-216.7645"/>
<text text-anchor="middle" x="596.3181" y="-205.5645" font-family="Times,serif" font-size="9.00" fill="#000000">y&#45;other&#45;vec</text>
</g>
<!-- y&#45;other&#45;vec&#45;&gt;none -->
<g id="edge25" class="edge">
<title>y&#45;other&#45;vec&#45;&gt;none</title>
<path fill="none" stroke="#ff0000" stroke-width=".2243" d="M567.2409,-198.9958C553.1479,-194.9135 535.9314,-190.1715 520.3181,-186.5513 434.8901,-166.7438 412.339,-167.6005 326.3181,-150.5513 278.5786,-141.0894 223.5285,-129.3264 189.0723,-121.8608"/>
<polygon fill="#ff0000" stroke="#ff0000" stroke-width=".2243" points="189.586,-118.3909 179.071,-119.6892 188.1006,-125.2315 189.586,-118.3909"/>
</g>
<!-- y&#45;other&#45;vec&#45;&gt;right -->
<g id="edge2" class="edge">
<title>y&#45;other&#45;vec&#45;&gt;right</title>
<path fill="none" stroke="#ff0000" stroke-width=".3632" d="M608.8467,-198.5846C623.4125,-187.7075 647.9313,-168.7571 667.3181,-150.5513 670.9177,-147.1709 674.5859,-143.4641 678.1055,-139.7539"/>
<polygon fill="#ff0000" stroke="#ff0000" stroke-width=".3632" points="680.8354,-141.9568 685.0516,-132.237 675.6943,-137.2061 680.8354,-141.9568"/>
</g>
<!-- y&#45;other&#45;vec&#45;&gt;backward -->
<g id="edge27" class="edge">
<title>y&#45;other&#45;vec&#45;&gt;backward</title>
<path fill="none" stroke="#00ff00" stroke-width=".6902" stroke-dasharray="1,5" d="M586.8618,-198.4799C574.6807,-186.5199 552.8669,-165.102 534.3167,-146.8885"/>
<polygon fill="#00ff00" stroke="#00ff00" stroke-width=".6902" points="536.7198,-144.343 527.1321,-139.8344 531.8156,-149.3379 536.7198,-144.343"/>
</g>
<!-- x&#45;other&#45;vel -->
<g id="node11" class="node">
<title>x&#45;other&#45;vel</title>
<polygon fill="#d3d3d3" stroke="#000000" points="439.3181,-216.7645 383.3181,-216.7645 383.3181,-198.7645 439.3181,-198.7645 439.3181,-216.7645"/>
<text text-anchor="middle" x="411.3181" y="-205.5645" font-family="Times,serif" font-size="9.00" fill="#000000">x&#45;other&#45;vel</text>
</g>
<!-- x&#45;other&#45;vel&#45;&gt;left -->
<g id="edge5" class="edge">
<title>x&#45;other&#45;vel&#45;&gt;left</title>
<path fill="none" stroke="#00ff00" stroke-width=".2517" d="M405.7438,-198.4799C397.6714,-185.0342 382.4224,-159.6348 370.7984,-140.2735"/>
<polygon fill="#00ff00" stroke="#00ff00" stroke-width=".2517" points="373.7394,-138.3724 365.5914,-131.6004 367.738,-141.9755 373.7394,-138.3724"/>
</g>
<!-- x&#45;other&#45;vel&#45;&gt;backward -->
<g id="edge13" class="edge">
<title>x&#45;other&#45;vel&#45;&gt;backward</title>
<path fill="none" stroke="#00ff00" stroke-width=".5721" stroke-dasharray="1,5" d="M420.2766,-198.4799C431.5588,-186.7871 451.5638,-166.054 468.8742,-148.1136"/>
<polygon fill="#00ff00" stroke="#00ff00" stroke-width=".5721" points="471.6698,-150.2569 476.0947,-140.6303 466.6323,-145.3963 471.6698,-150.2569"/>
</g>
<!-- y&#45;other&#45;vel -->
<g id="node12" class="node">
<title>y&#45;other&#45;vel</title>
<polygon fill="#d3d3d3" stroke="#000000" points="852.3181,-282.9777 796.3181,-282.9777 796.3181,-264.9777 852.3181,-264.9777 852.3181,-282.9777"/>
<text text-anchor="middle" x="824.3181" y="-271.7777" font-family="Times,serif" font-size="9.00" fill="#000000">y&#45;other&#45;vel</text>
</g>
<!-- none&#45;&gt;none -->
<g id="edge24" class="edge">
<title>none&#45;&gt;none</title>
<path fill="none" stroke="#ff0000" stroke-width=".6013" stroke-dasharray="1,5" d="M173.9052,-130.3744C185.8571,-134.5184 197.3597,-129.2232 197.3597,-114.4889 197.3597,-104.0136 191.5459,-98.3093 183.8901,-97.3758"/>
<polygon fill="#ff0000" stroke="#ff0000" stroke-width=".6013" points="183.4033,-93.9092 173.9052,-98.6034 184.2575,-100.8569 183.4033,-93.9092"/>
</g>
<!-- right&#45;&gt;right -->
<g id="edge26" class="edge">
<title>right&#45;&gt;right</title>
<path fill="none" stroke="#00ff00" stroke-width=".608" d="M717.7321,-130.0543C729.785,-134.7711 741.6526,-129.5826 741.6526,-114.4889 741.6526,-103.7581 735.6543,-98.0339 727.8556,-97.316"/>
<polygon fill="#00ff00" stroke="#00ff00" stroke-width=".608" points="727.0595,-93.8985 717.7321,-98.9234 728.1572,-100.8119 727.0595,-93.8985"/>
</g>
<!-- left&#45;&gt;left -->
<g id="edge4" class="edge">
<title>left&#45;&gt;left</title>
<path fill="none" stroke="#ff0000" stroke-width=".1518" d="M369.2748,-129.1067C380.9342,-135.3537 393.117,-130.481 393.117,-114.4889 393.117,-102.9945 386.8234,-97.2445 378.954,-97.2389"/>
<polygon fill="#ff0000" stroke="#ff0000" stroke-width=".1518" points="378.0059,-93.8695 369.2748,-99.871 379.8428,-100.6242 378.0059,-93.8695"/>
</g>
<!-- left&#45;&gt;202 -->
<g id="edge33" class="edge">
<title>left&#45;&gt;202</title>
<path fill="none" stroke="#ff0000" stroke-width=".3864" d="M349.7253,-95.1621C348.5279,-82.7456 348.2597,-66.3414 348.9207,-52.1386"/>
<polygon fill="#ff0000" stroke="#ff0000" stroke-width=".3864" points="352.4363,-52.0194 349.6074,-41.8092 345.4517,-51.555 352.4363,-52.0194"/>
</g>
<!-- forward&#45;&gt;forward -->
<g id="edge29" class="edge">
<title>forward&#45;&gt;forward</title>
<path fill="none" stroke="#00ff00" stroke-width=".7446" d="M635.4781,-131.4693C647.629,-133.0865 658.1379,-127.4264 658.1379,-114.4889 658.1379,-105.3922 652.9424,-99.8933 645.6338,-97.9922"/>
<polygon fill="#00ff00" stroke="#00ff00" stroke-width=".7446" points="645.6334,-94.4883 635.4781,-97.5084 645.3002,-101.4804 645.6334,-94.4883"/>
</g>
<!-- backward&#45;&gt;backward -->
<g id="edge12" class="edge">
<title>backward&#45;&gt;backward</title>
<path fill="none" stroke="#00ff00" stroke-width=".1566" d="M533.2401,-131.6873C545.3576,-132.3506 555.3805,-126.6178 555.3805,-114.4889 555.3805,-105.9607 550.4253,-100.5947 543.271,-98.3908"/>
<polygon fill="#00ff00" stroke="#00ff00" stroke-width=".1566" points="543.5622,-94.9019 533.2401,-97.2904 542.7988,-101.8601 543.5622,-94.9019"/>
</g>
<!-- 105&#45;&gt;right -->
<g id="edge31" class="edge">
<title>105&#45;&gt;right</title>
<path fill="none" stroke="#00ff00" stroke-width=".1555" d="M701.8542,-186.1307C701.6126,-174.8627 701.3117,-160.8299 701.0404,-148.1779"/>
<polygon fill="#00ff00" stroke="#00ff00" stroke-width=".1555" points="704.5351,-147.8887 700.8214,-137.966 697.5367,-148.0388 704.5351,-147.8887"/>
</g>
<!-- 105&#45;&gt;backward -->
<g id="edge36" class="edge">
<title>105&#45;&gt;backward</title>
<path fill="none" stroke="#00ff00" stroke-width=".2429" stroke-dasharray="1,5" d="M682.3695,-200.0309C655.7814,-189.5605 607.4212,-169.9464 567.3181,-150.5513 558.9447,-146.5017 550.1209,-141.9135 541.7459,-137.4"/>
<polygon fill="#00ff00" stroke="#00ff00" stroke-width=".2429" points="543.3314,-134.2781 532.8766,-132.5608 539.9786,-140.4229 543.3314,-134.2781"/>
</g>
<!-- 202&#45;&gt;left -->
<g id="edge34" class="edge">
<title>202&#45;&gt;left</title>
<path fill="none" stroke="#ff0000" stroke-width=".3917" d="M361.0287,-41.8092C362.1635,-54.4876 362.369,-70.945 361.6453,-84.9923"/>
<polygon fill="#ff0000" stroke="#ff0000" stroke-width=".3917" points="358.1404,-84.9359 360.9108,-95.1621 365.1222,-85.4402 358.1404,-84.9359"/>
</g>
</g>
</svg>
