<?xml version="1.0" encoding="UTF-8" standalone="no"?>
<!DOCTYPE svg PUBLIC "-//W3C//DTD SVG 1.1//EN"
 "http://www.w3.org/Graphics/SVG/1.1/DTD/svg11.dtd">
<!-- Generated by graphviz version 2.40.1 (20161225.0304)
 -->
<!-- Title: %3 Pages: 1 -->
<svg width="2791pt" height="597pt"
 viewBox="0.00 0.00 2791.37 596.97" xmlns="http://www.w3.org/2000/svg" xmlns:xlink="http://www.w3.org/1999/xlink">
<g id="graph0" class="graph" transform="scale(1 1) rotate(0) translate(4 592.9676)">
<title>%3</title>
<polygon fill="#ffffff" stroke="transparent" points="-4,4 -4,-592.9676 2787.375,-592.9676 2787.375,4 -4,4"/>
<!-- A_agent -->
<g id="node1" class="node">
<title>A_agent</title>
<polygon fill="#d3d3d3" stroke="#000000" points="2262.875,-433.7214 2215.875,-433.7214 2215.875,-415.7214 2262.875,-415.7214 2262.875,-433.7214"/>
<text text-anchor="middle" x="2239.375" y="-422.5214" font-family="Times,serif" font-size="9.00" fill="#000000">A_agent</text>
</g>
<!-- cw -->
<g id="node33" class="node">
<title>cw</title>
<ellipse fill="#add8e6" stroke="#000000" cx="2052.375" cy="-328.6173" rx="19.1842" ry="19.1842"/>
<text text-anchor="middle" x="2052.375" y="-326.4173" font-family="Times,serif" font-size="9.00" fill="#000000">cw</text>
</g>
<!-- A_agent&#45;&gt;cw -->
<g id="edge63" class="edge">
<title>A_agent&#45;&gt;cw</title>
<path fill="none" stroke="#ff0000" stroke-width=".4832" stroke-dasharray="1,5" d="M2227.2161,-415.5602C2219.9964,-410.444 2210.4964,-404.2568 2201.375,-399.9727 2152.5146,-377.024 2131.0999,-392.6642 2085.375,-363.9727 2080.0897,-360.6563 2075.0922,-356.2861 2070.6607,-351.7533"/>
<polygon fill="#ff0000" stroke="#ff0000" stroke-width=".4832" points="2073.0821,-349.2121 2063.7863,-344.1289 2067.8832,-353.8996 2073.0821,-349.2121"/>
</g>
<!-- A_lm -->
<g id="node2" class="node">
<title>A_lm</title>
<polygon fill="#d3d3d3" stroke="#000000" points="1447.875,-433.7214 1410.875,-433.7214 1410.875,-415.7214 1447.875,-415.7214 1447.875,-433.7214"/>
<text text-anchor="middle" x="1429.375" y="-422.5214" font-family="Times,serif" font-size="9.00" fill="#000000">A_lm</text>
</g>
<!-- no_move -->
<g id="node26" class="node">
<title>no_move</title>
<ellipse fill="#add8e6" stroke="#000000" cx="1714.375" cy="-328.6173" rx="35.2113" ry="35.2113"/>
<text text-anchor="middle" x="1714.375" y="-326.4173" font-family="Times,serif" font-size="9.00" fill="#000000">no_move</text>
</g>
<!-- A_lm&#45;&gt;no_move -->
<g id="edge6" class="edge">
<title>A_lm&#45;&gt;no_move</title>
<path fill="none" stroke="#00ff00" stroke-width=".4732" d="M1437.527,-415.2904C1442.4944,-410.0843 1449.2444,-403.8972 1456.375,-399.9727 1510.0244,-370.4453 1530.3552,-380.3064 1589.375,-363.9727 1616.2865,-356.5249 1646.4057,-348.0113 1670.3349,-341.2049"/>
<polygon fill="#00ff00" stroke="#00ff00" stroke-width=".4732" points="1671.5247,-344.5053 1680.1839,-338.4005 1669.6077,-337.7729 1671.5247,-344.5053"/>
</g>
<!-- right -->
<g id="node27" class="node">
<title>right</title>
<ellipse fill="#add8e6" stroke="#000000" cx="1147.375" cy="-135.7021" rx="23.1702" ry="23.1702"/>
<text text-anchor="middle" x="1147.375" y="-133.5021" font-family="Times,serif" font-size="9.00" fill="#000000">right</text>
</g>
<!-- A_lm&#45;&gt;right -->
<g id="edge85" class="edge">
<title>A_lm&#45;&gt;right</title>
<path fill="none" stroke="#ff0000" stroke-width=".202" d="M1421.9869,-415.5099C1412.7492,-403.8258 1396.6577,-382.9139 1384.375,-363.9727 1341.0199,-297.1149 1358.6613,-257.464 1296.375,-207.7645 1252.5179,-172.7701 1221.6861,-203.4399 1175.375,-171.7645 1172.0117,-169.4641 1168.8702,-166.6335 1165.9968,-163.5783"/>
<polygon fill="#ff0000" stroke="#ff0000" stroke-width=".202" points="1168.5219,-161.1409 1159.4336,-155.6953 1163.1423,-165.6198 1168.5219,-161.1409"/>
</g>
<!-- forward -->
<g id="node29" class="node">
<title>forward</title>
<ellipse fill="#add8e6" stroke="#000000" cx="776.375" cy="-31.8198" rx="31.6406" ry="31.6406"/>
<text text-anchor="middle" x="776.375" y="-29.6198" font-family="Times,serif" font-size="9.00" fill="#000000">forward</text>
</g>
<!-- A_lm&#45;&gt;forward -->
<g id="edge5" class="edge">
<title>A_lm&#45;&gt;forward</title>
<path fill="none" stroke="#00ff00" stroke-width=".1224" d="M1436.02,-415.2931C1457.4546,-383.62 1520.962,-279.0314 1478.375,-207.7645 1426.3409,-120.6885 1373.8524,-130.9745 1277.375,-99.6396 1191.9254,-71.8864 922.7541,-45.1504 818.3445,-35.5527"/>
<polygon fill="#00ff00" stroke="#00ff00" stroke-width=".1224" points="818.461,-32.0489 808.1842,-34.6252 817.8246,-39.0199 818.461,-32.0489"/>
</g>
<!-- backward -->
<g id="node30" class="node">
<title>backward</title>
<ellipse fill="#add8e6" stroke="#000000" cx="1953.375" cy="-135.7021" rx="36.125" ry="36.125"/>
<text text-anchor="middle" x="1953.375" y="-133.5021" font-family="Times,serif" font-size="9.00" fill="#000000">backward</text>
</g>
<!-- A_lm&#45;&gt;backward -->
<g id="edge50" class="edge">
<title>A_lm&#45;&gt;backward</title>
<path fill="none" stroke="#ff0000" stroke-width=".4858" d="M1438.5263,-415.6063C1443.5998,-410.7429 1450.1297,-404.786 1456.375,-399.9727 1479.8104,-381.9106 1489.0344,-382.1571 1512.375,-363.9727 1519.2183,-358.6411 1620.5474,-263.6882 1626.375,-257.262 1645.0056,-236.7173 1641.1796,-222.9684 1664.375,-207.7645 1704.2555,-181.624 1836.6699,-155.7466 1907.5914,-143.3205"/>
<polygon fill="#ff0000" stroke="#ff0000" stroke-width=".4858" points="1908.3358,-146.7438 1917.5907,-141.5864 1907.1396,-139.8467 1908.3358,-146.7438"/>
</g>
<!-- no_turn -->
<g id="node31" class="node">
<title>no_turn</title>
<ellipse fill="#add8e6" stroke="#000000" cx="1225.375" cy="-328.6173" rx="31.2258" ry="31.2258"/>
<text text-anchor="middle" x="1225.375" y="-326.4173" font-family="Times,serif" font-size="9.00" fill="#000000">no_turn</text>
</g>
<!-- A_lm&#45;&gt;no_turn -->
<g id="edge22" class="edge">
<title>A_lm&#45;&gt;no_turn</title>
<path fill="none" stroke="#ff0000" stroke-width="1.363" stroke-dasharray="1,5" d="M1410.5488,-415.8524C1377.0994,-400.0945 1306.7254,-366.9414 1263.0139,-346.3489"/>
<polygon fill="#ff0000" stroke="#ff0000" stroke-width="1.363" points="1264.3857,-343.1263 1253.8476,-342.0307 1261.4024,-349.4588 1264.3857,-343.1263"/>
</g>
<!-- ccw -->
<g id="node32" class="node">
<title>ccw</title>
<ellipse fill="#add8e6" stroke="#000000" cx="676.375" cy="-328.6173" rx="21.8409" ry="21.8409"/>
<text text-anchor="middle" x="676.375" y="-326.4173" font-family="Times,serif" font-size="9.00" fill="#000000">ccw</text>
</g>
<!-- A_lm&#45;&gt;ccw -->
<g id="edge17" class="edge">
<title>A_lm&#45;&gt;ccw</title>
<path fill="none" stroke="#00ff00" stroke-width=".7823" stroke-dasharray="1,5" d="M1410.6369,-420.7737C1383.5609,-415.2253 1331.861,-405.2136 1287.375,-399.9727 1159.125,-384.8633 823.2904,-420.8934 707.375,-363.9727 702.8502,-361.7507 698.7046,-358.5436 695.0185,-354.9559"/>
<polygon fill="#00ff00" stroke="#00ff00" stroke-width=".7823" points="697.4001,-352.3688 688.1235,-347.2508 692.1837,-357.0367 697.4001,-352.3688"/>
</g>
<!-- A_wall -->
<g id="node3" class="node">
<title>A_wall</title>
<polygon fill="#d3d3d3" stroke="#000000" points="1666.875,-433.7214 1623.875,-433.7214 1623.875,-415.7214 1666.875,-415.7214 1666.875,-433.7214"/>
<text text-anchor="middle" x="1645.375" y="-422.5214" font-family="Times,serif" font-size="9.00" fill="#000000">A_wall</text>
</g>
<!-- A_wall&#45;&gt;no_move -->
<g id="edge86" class="edge">
<title>A_wall&#45;&gt;no_move</title>
<path fill="none" stroke="#ff0000" stroke-width=".3954" d="M1651.991,-415.5065C1660.2397,-404.0176 1674.8405,-383.6814 1687.8436,-365.5705"/>
<polygon fill="#ff0000" stroke="#ff0000" stroke-width=".3954" points="1690.688,-367.6101 1693.6771,-357.4456 1685.0017,-363.5275 1690.688,-367.6101"/>
</g>
<!-- B_agent -->
<g id="node4" class="node">
<title>B_agent</title>
<polygon fill="#d3d3d3" stroke="#000000" points="1172.375,-433.7214 1126.375,-433.7214 1126.375,-415.7214 1172.375,-415.7214 1172.375,-433.7214"/>
<text text-anchor="middle" x="1149.375" y="-422.5214" font-family="Times,serif" font-size="9.00" fill="#000000">B_agent</text>
</g>
<!-- B_agent&#45;&gt;no_move -->
<g id="edge33" class="edge">
<title>B_agent&#45;&gt;no_move</title>
<path fill="none" stroke="#ff0000" stroke-width=".1251" stroke-dasharray="1,5" d="M1171.4175,-415.6705C1185.0335,-410.397 1202.9791,-404.0111 1219.375,-399.9727 1382.2109,-359.8648 1581.1103,-339.6596 1668.9602,-332.1559"/>
<polygon fill="#ff0000" stroke="#ff0000" stroke-width=".1251" points="1669.4412,-335.6279 1679.1132,-331.3033 1668.8554,-328.6524 1669.4412,-335.6279"/>
</g>
<!-- B_agent&#45;&gt;right -->
<g id="edge61" class="edge">
<title>B_agent&#45;&gt;right</title>
<path fill="none" stroke="#00ff00" stroke-width=".2584" d="M1149.3107,-415.4325C1149.0504,-377.8154 1148.0667,-235.663 1147.6103,-169.7038"/>
<polygon fill="#00ff00" stroke="#00ff00" stroke-width=".2584" points="1151.1084,-169.4031 1147.5391,-159.4276 1144.1085,-169.4516 1151.1084,-169.4031"/>
</g>
<!-- left -->
<g id="node28" class="node">
<title>left</title>
<ellipse fill="#add8e6" stroke="#000000" cx="736.375" cy="-328.6173" rx="19.6" ry="19.6"/>
<text text-anchor="middle" x="736.375" y="-326.4173" font-family="Times,serif" font-size="9.00" fill="#000000">left</text>
</g>
<!-- B_agent&#45;&gt;left -->
<g id="edge2" class="edge">
<title>B_agent&#45;&gt;left</title>
<path fill="none" stroke="#ff0000" stroke-width=".19" stroke-dasharray="1,5" d="M1140.0782,-415.5979C1134.0768,-410.2288 1125.8333,-403.7674 1117.375,-399.9727 1053.8955,-371.4931 844.3981,-342.4679 766.1778,-332.3586"/>
<polygon fill="#ff0000" stroke="#ff0000" stroke-width=".19" points="766.4045,-328.8591 756.0407,-331.0597 765.5147,-335.8024 766.4045,-328.8591"/>
</g>
<!-- B_agent&#45;&gt;no_turn -->
<g id="edge16" class="edge">
<title>B_agent&#45;&gt;no_turn</title>
<path fill="none" stroke="#00ff00" stroke-width=".7081" d="M1156.6622,-415.5065C1166.4798,-403.0919 1184.4666,-380.347 1199.575,-361.242"/>
<polygon fill="#00ff00" stroke="#00ff00" stroke-width=".7081" points="1202.384,-363.3325 1205.8416,-353.3177 1196.8934,-358.9905 1202.384,-363.3325"/>
</g>
<!-- B_agent&#45;&gt;cw -->
<g id="edge54" class="edge">
<title>B_agent&#45;&gt;cw</title>
<path fill="none" stroke="#00ff00" stroke-width=".417" stroke-dasharray="1,5" d="M1170.0842,-415.7154C1183.7974,-410.1757 1202.3318,-403.4854 1219.375,-399.9727 1454.5215,-351.5065 1519.3274,-386.3133 1758.375,-363.9727 1855.5861,-354.8876 1970.3677,-339.8242 2023.1495,-332.6527"/>
<polygon fill="#00ff00" stroke="#00ff00" stroke-width=".417" points="2023.7151,-336.108 2033.1496,-331.2873 2022.7681,-329.1723 2023.7151,-336.108"/>
</g>
<!-- 3702 -->
<g id="node48" class="node">
<title>3702</title>
<ellipse fill="#ffffff" stroke="#000000" cx="867.375" cy="-232.5132" rx="25" ry="25"/>
<text text-anchor="middle" x="867.375" y="-230.3132" font-family="Times,serif" font-size="9.00" fill="#000000">3702</text>
</g>
<!-- B_agent&#45;&gt;3702 -->
<g id="edge108" class="edge">
<title>B_agent&#45;&gt;3702</title>
<path fill="none" stroke="#00ff00" stroke-width=".48" d="M1137.9827,-415.5698C1131.9429,-410.8054 1124.3484,-404.9513 1117.375,-399.9727 1023.429,-332.9006 994.8158,-323.6355 900.375,-257.262 898.7491,-256.1193 897.0879,-254.9335 895.4182,-253.7275"/>
<polygon fill="#00ff00" stroke="#00ff00" stroke-width=".48" points="897.254,-250.7331 887.1227,-247.6333 893.1096,-256.3745 897.254,-250.7331"/>
</g>
<!-- B_lm -->
<g id="node5" class="node">
<title>B_lm</title>
<polygon fill="#d3d3d3" stroke="#000000" points="802.875,-433.7214 765.875,-433.7214 765.875,-415.7214 802.875,-415.7214 802.875,-433.7214"/>
<text text-anchor="middle" x="784.375" y="-422.5214" font-family="Times,serif" font-size="9.00" fill="#000000">B_lm</text>
</g>
<!-- B_lm&#45;&gt;no_move -->
<g id="edge75" class="edge">
<title>B_lm&#45;&gt;no_move</title>
<path fill="none" stroke="#00ff00" stroke-width=".325" d="M791.825,-415.2839C796.7404,-409.7967 803.6783,-403.3214 811.375,-399.9727 811.998,-399.7016 1485.7632,-346.622 1668.901,-332.1984"/>
<polygon fill="#00ff00" stroke="#00ff00" stroke-width=".325" points="1669.309,-335.6772 1679.0033,-331.4028 1668.7594,-328.6988 1669.309,-335.6772"/>
</g>
<!-- B_lm&#45;&gt;forward -->
<g id="edge73" class="edge">
<title>B_lm&#45;&gt;forward</title>
<path fill="none" stroke="#00ff00" stroke-width=".1282" d="M784.1851,-415.3967C783.2451,-369.2305 779.0617,-163.7742 777.2341,-74.0146"/>
<polygon fill="#00ff00" stroke="#00ff00" stroke-width=".1282" points="780.7314,-73.8406 777.0284,-63.914 773.7328,-73.9832 780.7314,-73.8406"/>
</g>
<!-- B_lm&#45;&gt;backward -->
<g id="edge65" class="edge">
<title>B_lm&#45;&gt;backward</title>
<path fill="none" stroke="#00ff00" stroke-width=".2077" stroke-dasharray="1,5" d="M792.5472,-415.3267C797.5212,-410.1327 804.2712,-403.9455 811.375,-399.9727 962.2399,-315.599 1015.968,-327.6194 1185.375,-293.262 1313.9586,-267.1839 1350.5295,-286.7471 1478.375,-257.262 1544.3192,-242.0532 1557.2009,-225.9932 1622.375,-207.7645 1722.9706,-179.6287 1843.3089,-155.8463 1907.5727,-143.92"/>
<polygon fill="#00ff00" stroke="#00ff00" stroke-width=".2077" points="1908.5714,-147.2949 1917.771,-142.0396 1907.3021,-140.4109 1908.5714,-147.2949"/>
</g>
<!-- B_lm&#45;&gt;ccw -->
<g id="edge70" class="edge">
<title>B_lm&#45;&gt;ccw</title>
<path fill="none" stroke="#ff0000" stroke-width=".6217" d="M771.5294,-415.7076C755.7534,-404.3907 728.4911,-384.0205 707.375,-363.9727 703.8598,-360.6354 700.3077,-356.9442 696.9247,-353.243"/>
<polygon fill="#ff0000" stroke="#ff0000" stroke-width=".6217" points="699.5335,-350.9095 690.2846,-345.7414 694.2919,-355.5492 699.5335,-350.9095"/>
</g>
<!-- B_wall -->
<g id="node6" class="node">
<title>B_wall</title>
<polygon fill="#d3d3d3" stroke="#000000" points="1941.375,-588.9676 1899.375,-588.9676 1899.375,-570.9676 1941.375,-570.9676 1941.375,-588.9676"/>
<text text-anchor="middle" x="1920.375" y="-577.7676" font-family="Times,serif" font-size="9.00" fill="#000000">B_wall</text>
</g>
<!-- B_wall&#45;&gt;right -->
<g id="edge59" class="edge">
<title>B_wall&#45;&gt;right</title>
<path fill="none" stroke="#00ff00" stroke-width=".1106" stroke-dasharray="1,5" d="M1899.3149,-577.2799C1808.3508,-565.3448 1449.6987,-514.8378 1359.375,-449.4701 1323.3453,-423.3953 1330.2871,-402.0919 1307.375,-363.9727 1288.5442,-332.6437 1285.693,-323.6474 1265.375,-293.262 1248.2883,-267.7089 1196.9466,-200.2648 1167.9303,-162.4227"/>
<polygon fill="#00ff00" stroke="#00ff00" stroke-width=".1106" points="1170.6193,-160.1776 1161.7543,-154.3755 1165.0662,-164.4395 1170.6193,-160.1776"/>
</g>
<!-- B_wall&#45;&gt;left -->
<g id="edge52" class="edge">
<title>B_wall&#45;&gt;left</title>
<path fill="none" stroke="#00ff00" stroke-width=".5393" stroke-dasharray="1,5" d="M1899.2422,-579.3589C1745.9575,-574.7278 808.4093,-542.6775 729.375,-449.4701 707.8011,-424.0275 715.6702,-383.6769 724.7656,-356.685"/>
<polygon fill="#00ff00" stroke="#00ff00" stroke-width=".5393" points="728.1395,-357.6473 728.2527,-347.0531 721.5575,-355.2643 728.1395,-357.6473"/>
</g>
<!-- B_wall&#45;&gt;forward -->
<g id="edge28" class="edge">
<title>B_wall&#45;&gt;forward</title>
<path fill="none" stroke="#ff0000" stroke-width=".4198" stroke-dasharray="1,5" d="M1941.4722,-579.7033C2039.7295,-578.2927 2452.9126,-570.3274 2576.375,-534.9676 2676.5808,-506.2686 2783.375,-528.9559 2783.375,-424.7214 2783.375,-424.7214 2783.375,-424.7214 2783.375,-232.5132 2783.375,-35.4562 2554.471,-133.6724 2360.375,-99.6396 2051.615,-45.5016 1038.3653,-34.0126 818.6491,-32.137"/>
<polygon fill="#ff0000" stroke="#ff0000" stroke-width=".4198" points="818.5281,-28.636 808.4992,-32.0525 818.4697,-35.6358 818.5281,-28.636"/>
</g>
<!-- B_wall&#45;&gt;backward -->
<g id="edge4" class="edge">
<title>B_wall&#45;&gt;backward</title>
<path fill="none" stroke="#ff0000" stroke-width=".4288" d="M1941.5725,-578.9214C2026.2723,-574.6177 2340.5042,-557.4427 2437.375,-534.9676 2563.6392,-505.6729 2707.375,-554.3394 2707.375,-424.7214 2707.375,-424.7214 2707.375,-424.7214 2707.375,-328.6173 2707.375,-271.6063 2709.2384,-242.9429 2664.375,-207.7645 2612.1137,-166.7852 2149.9143,-143.9448 2000.0564,-137.5673"/>
<polygon fill="#ff0000" stroke="#ff0000" stroke-width=".4288" points="1999.9547,-134.06 1989.8164,-137.1366 1999.6604,-141.0538 1999.9547,-134.06"/>
</g>
<!-- B_wall&#45;&gt;ccw -->
<g id="edge38" class="edge">
<title>B_wall&#45;&gt;ccw</title>
<path fill="none" stroke="#ff0000" stroke-width=".1499" stroke-dasharray="1,5" d="M1899.3215,-579.7302C1722.2424,-577.6851 486.1021,-562.4529 413.375,-534.9676 342.7807,-508.2884 262.388,-458.2186 310.375,-399.9727 352.6761,-348.6281 562.9522,-333.7344 644.2312,-329.8573"/>
<polygon fill="#ff0000" stroke="#ff0000" stroke-width=".1499" points="644.5401,-333.347 654.372,-329.3994 644.2242,-326.3541 644.5401,-333.347"/>
</g>
<!-- 2471 -->
<g id="node38" class="node">
<title>2471</title>
<ellipse fill="#ffffff" stroke="#000000" cx="2352.375" cy="-510.2189" rx="25" ry="25"/>
<text text-anchor="middle" x="2352.375" y="-508.0189" font-family="Times,serif" font-size="9.00" fill="#000000">2471</text>
</g>
<!-- B_wall&#45;&gt;2471 -->
<g id="edge90" class="edge">
<title>B_wall&#45;&gt;2471</title>
<path fill="none" stroke="#00ff00" stroke-width=".9075" stroke-dasharray="1,5" d="M1941.4294,-579.0495C2013.4541,-575.6844 2249.4001,-562.7456 2319.375,-534.9676 2321.2719,-534.2146 2323.1555,-533.3225 2325.0052,-532.3316"/>
<polygon fill="#00ff00" stroke="#00ff00" stroke-width=".9075" points="2327.2823,-535.0336 2333.8761,-526.7407 2323.55,-529.1117 2327.2823,-535.0336"/>
</g>
<!-- C_agent -->
<g id="node7" class="node">
<title>C_agent</title>
<polygon fill="#d3d3d3" stroke="#000000" points="2471.375,-433.7214 2425.375,-433.7214 2425.375,-415.7214 2471.375,-415.7214 2471.375,-433.7214"/>
<text text-anchor="middle" x="2448.375" y="-422.5214" font-family="Times,serif" font-size="9.00" fill="#000000">C_agent</text>
</g>
<!-- C_agent&#45;&gt;right -->
<g id="edge45" class="edge">
<title>C_agent&#45;&gt;right</title>
<path fill="none" stroke="#00ff00" stroke-width=".2624" stroke-dasharray="1,5" d="M2431.768,-415.5372C2421.9824,-410.4134 2409.2324,-404.2263 2397.375,-399.9727 2333.2486,-376.9686 2313.0927,-385.2564 2248.375,-363.9727 2171.4189,-338.6641 2159.3215,-311.4336 2080.375,-293.262 1936.1521,-260.0652 1549.0503,-320.7694 1415.375,-257.262 1388.5202,-244.5037 1396.3553,-222.2204 1370.375,-207.7645 1293.3627,-164.9134 1250.6663,-217.5721 1175.375,-171.7645 1171.8939,-169.6466 1168.6819,-166.9252 1165.7711,-163.9279"/>
<polygon fill="#00ff00" stroke="#00ff00" stroke-width=".2624" points="1168.2939,-161.4901 1159.1749,-156.0961 1162.9399,-165.9995 1168.2939,-161.4901"/>
</g>
<!-- C_agent&#45;&gt;cw -->
<g id="edge87" class="edge">
<title>C_agent&#45;&gt;cw</title>
<path fill="none" stroke="#00ff00" stroke-width=".1614" stroke-dasharray="1,5" d="M2437.8033,-415.6343C2430.7852,-410.1358 2421.1037,-403.5213 2411.375,-399.9727 2274.431,-350.0214 2215.6727,-429.3277 2085.375,-363.9727 2079.7015,-361.1269 2074.5012,-356.879 2069.9894,-352.3052"/>
<polygon fill="#00ff00" stroke="#00ff00" stroke-width=".1614" points="2072.3283,-349.6664 2063.0842,-344.4899 2067.0826,-354.3013 2072.3283,-349.6664"/>
</g>
<!-- 424 -->
<g id="node39" class="node">
<title>424</title>
<ellipse fill="#ffffff" stroke="#000000" cx="2155.375" cy="-232.5132" rx="21.4286" ry="21.4286"/>
<text text-anchor="middle" x="2155.375" y="-230.3132" font-family="Times,serif" font-size="9.00" fill="#000000">424</text>
</g>
<!-- C_agent&#45;&gt;424 -->
<g id="edge99" class="edge">
<title>C_agent&#45;&gt;424</title>
<path fill="none" stroke="#00ff00" stroke-width=".4662" stroke-dasharray="1,5" d="M2434.6916,-415.5204C2427.7229,-410.8468 2419.1096,-405.089 2411.375,-399.9727 2327.907,-344.7597 2228.6121,-280.0967 2182.0147,-249.8112"/>
<polygon fill="#00ff00" stroke="#00ff00" stroke-width=".4662" points="2183.7105,-246.7391 2173.4182,-244.2254 2179.8965,-252.6088 2183.7105,-246.7391"/>
</g>
<!-- 3949 -->
<g id="node47" class="node">
<title>3949</title>
<ellipse fill="#ffffff" stroke="#000000" cx="2426.375" cy="-328.6173" rx="25" ry="25"/>
<text text-anchor="middle" x="2426.375" y="-326.4173" font-family="Times,serif" font-size="9.00" fill="#000000">3949</text>
</g>
<!-- C_agent&#45;&gt;3949 -->
<g id="edge110" class="edge">
<title>C_agent&#45;&gt;3949</title>
<path fill="none" stroke="#ff0000" stroke-width=".101" d="M2446.2655,-415.5065C2443.4942,-403.4002 2438.474,-381.4704 2434.1707,-362.6719"/>
<polygon fill="#ff0000" stroke="#ff0000" stroke-width=".101" points="2437.5804,-361.8818 2431.9372,-352.915 2430.7569,-363.4439 2437.5804,-361.8818"/>
</g>
<!-- C_lm -->
<g id="node8" class="node">
<title>C_lm</title>
<polygon fill="#d3d3d3" stroke="#000000" points="2564.875,-433.7214 2527.875,-433.7214 2527.875,-415.7214 2564.875,-415.7214 2564.875,-433.7214"/>
<text text-anchor="middle" x="2546.375" y="-422.5214" font-family="Times,serif" font-size="9.00" fill="#000000">C_lm</text>
</g>
<!-- C_lm&#45;&gt;forward -->
<g id="edge36" class="edge">
<title>C_lm&#45;&gt;forward</title>
<path fill="none" stroke="#00ff00" stroke-width="2.1166" d="M2554.0558,-415.6855C2580.4664,-383.5012 2662.9874,-272.9086 2608.375,-207.7645 2489.3627,-65.8017 1082.5372,-36.6572 818.8265,-32.4293"/>
<polygon fill="#00ff00" stroke="#00ff00" stroke-width="2.1166" points="818.5795,-28.9251 808.5257,-32.2676 818.4695,-35.9242 818.5795,-28.9251"/>
</g>
<!-- C_lm&#45;&gt;backward -->
<g id="edge30" class="edge">
<title>C_lm&#45;&gt;backward</title>
<path fill="none" stroke="#00ff00" stroke-width=".7193" d="M2545.4001,-415.5293C2542.3734,-391.6743 2530.9552,-327.2829 2493.375,-293.262 2418.8806,-225.823 2115.2067,-164.9928 1998.9494,-143.7251"/>
<polygon fill="#00ff00" stroke="#00ff00" stroke-width=".7193" points="1999.4112,-140.2518 1988.9467,-141.9085 1998.1603,-147.1391 1999.4112,-140.2518"/>
</g>
<!-- C_lm&#45;&gt;cw -->
<g id="edge18" class="edge">
<title>C_lm&#45;&gt;cw</title>
<path fill="none" stroke="#00ff00" stroke-width=".2469" d="M2527.631,-416.582C2514.5909,-411.1964 2496.6864,-404.3464 2480.375,-399.9727 2333.2645,-360.5266 2151.5579,-338.8799 2081.6623,-331.522"/>
<polygon fill="#00ff00" stroke="#00ff00" stroke-width=".2469" points="2081.734,-328.0108 2071.4269,-330.4632 2081.0137,-334.9736 2081.734,-328.0108"/>
</g>
<!-- C_wall -->
<g id="node9" class="node">
<title>C_wall</title>
<polygon fill="#d3d3d3" stroke="#000000" points="464.375,-519.2189 422.375,-519.2189 422.375,-501.2189 464.375,-501.2189 464.375,-519.2189"/>
<text text-anchor="middle" x="443.375" y="-508.0189" font-family="Times,serif" font-size="9.00" fill="#000000">C_wall</text>
</g>
<!-- C_wall&#45;&gt;right -->
<g id="edge57" class="edge">
<title>C_wall&#45;&gt;right</title>
<path fill="none" stroke="#00ff00" stroke-width=".1479" d="M422.2132,-507.5847C391.4151,-502.4866 335.2144,-488.1237 310.375,-449.4701 298.482,-430.9631 298.7088,-418.6234 310.375,-399.9727 413.9102,-234.4499 519.2812,-266.8104 705.375,-207.7645 853.0011,-160.924 1038.5104,-143.3465 1113.5589,-137.8526"/>
<polygon fill="#00ff00" stroke="#00ff00" stroke-width=".1479" points="1114.0843,-141.3243 1123.8125,-137.1277 1113.5906,-134.3417 1114.0843,-141.3243"/>
</g>
<!-- C_wall&#45;&gt;left -->
<g id="edge29" class="edge">
<title>C_wall&#45;&gt;left</title>
<path fill="none" stroke="#00ff00" stroke-width=".4086" stroke-dasharray="1,5" d="M464.6054,-503.9049C492.042,-495 540.3235,-476.7332 574.375,-449.4701 596.0249,-432.1362 590.1153,-416.5162 612.375,-399.9727 648.6145,-373.0392 670.7063,-390.3189 707.375,-363.9727 711.5092,-361.0022 715.3919,-357.3015 718.8897,-353.4228"/>
<polygon fill="#00ff00" stroke="#00ff00" stroke-width=".4086" points="721.8457,-355.3381 725.4859,-345.3882 716.4354,-350.8964 721.8457,-355.3381"/>
</g>
<!-- C_wall&#45;&gt;forward -->
<g id="edge42" class="edge">
<title>C_wall&#45;&gt;forward</title>
<path fill="none" stroke="#ff0000" stroke-width=".1806" d="M422.0138,-506.4357C373.1589,-497.4543 255.0459,-473.7732 223.375,-449.4701 173.9532,-411.5457 152.375,-390.9131 152.375,-328.6173 152.375,-328.6173 152.375,-328.6173 152.375,-232.5132 152.375,-167.5325 160.8744,-137.9305 213.375,-99.6396 255.3524,-69.0236 610.9204,-42.7845 734.3627,-34.5216"/>
<polygon fill="#ff0000" stroke="#ff0000" stroke-width=".1806" points="734.805,-38.0001 744.5511,-33.8453 734.3412,-31.0154 734.805,-38.0001"/>
</g>
<!-- C_wall&#45;&gt;no_turn -->
<g id="edge49" class="edge">
<title>C_wall&#45;&gt;no_turn</title>
<path fill="none" stroke="#ff0000" stroke-width=".2624" stroke-dasharray="1,5" d="M464.584,-504.6755C487.7132,-498.87 525.9066,-489.9821 559.375,-485.4701 627.9811,-476.221 1125.837,-490.7967 1181.375,-449.4701 1206.2337,-430.9724 1217.0711,-397.0168 1221.7837,-369.7976"/>
<polygon fill="#ff0000" stroke="#ff0000" stroke-width=".2624" points="1225.2697,-370.153 1223.3064,-359.7416 1218.3486,-369.1049 1225.2697,-370.153"/>
</g>
<!-- C_wall&#45;&gt;ccw -->
<g id="edge15" class="edge">
<title>C_wall&#45;&gt;ccw</title>
<path fill="none" stroke="#ff0000" stroke-width=".5083" d="M422.3278,-506.4938C394.0968,-500.2431 345.0163,-484.6823 323.375,-449.4701 311.8561,-430.728 309.4454,-416.9996 323.375,-399.9727 363.8333,-350.5178 564.698,-334.5478 644.0479,-330.1184"/>
<polygon fill="#ff0000" stroke="#ff0000" stroke-width=".5083" points="644.6086,-333.5937 654.4087,-329.5677 644.237,-326.6035 644.6086,-333.5937"/>
</g>
<!-- C_wall&#45;&gt;cw -->
<g id="edge14" class="edge">
<title>C_wall&#45;&gt;cw</title>
<path fill="none" stroke="#00ff00" stroke-width=".5484" stroke-dasharray="1,5" d="M464.5589,-504.4772C487.6664,-498.5023 525.8416,-489.4705 559.375,-485.4701 632.2191,-476.7803 1813.8157,-482.3907 1879.375,-449.4701 1904.4037,-436.902 1896.889,-417.9378 1918.375,-399.9727 1951.2939,-372.4481 1996.5378,-351.0734 2025.1166,-339.1585"/>
<polygon fill="#00ff00" stroke="#00ff00" stroke-width=".5484" points="2026.5416,-342.3574 2034.4828,-335.344 2023.9013,-335.8744 2026.5416,-342.3574"/>
</g>
<!-- 4621 -->
<g id="node35" class="node">
<title>4621</title>
<ellipse fill="#ffffff" stroke="#000000" cx="1952.375" cy="-424.7214" rx="25" ry="25"/>
<text text-anchor="middle" x="1952.375" y="-422.5214" font-family="Times,serif" font-size="9.00" fill="#000000">4621</text>
</g>
<!-- C_wall&#45;&gt;4621 -->
<g id="edge115" class="edge">
<title>C_wall&#45;&gt;4621</title>
<path fill="none" stroke="#ff0000" stroke-width=".28" d="M464.5583,-504.4728C487.6655,-498.494 525.8403,-489.459 559.375,-485.4701 708.8191,-467.6942 1769.4233,-493.3728 1913.375,-449.4701 1916.9608,-448.3765 1920.5376,-446.857 1923.9891,-445.1035"/>
<polygon fill="#ff0000" stroke="#ff0000" stroke-width=".28" points="1925.8397,-448.0766 1932.7526,-440.0478 1922.3417,-442.0133 1925.8397,-448.0766"/>
</g>
<!-- 2977 -->
<g id="node37" class="node">
<title>2977</title>
<ellipse fill="#ffffff" stroke="#000000" cx="247.375" cy="-135.7021" rx="25" ry="25"/>
<text text-anchor="middle" x="247.375" y="-133.5021" font-family="Times,serif" font-size="9.00" fill="#000000">2977</text>
</g>
<!-- C_wall&#45;&gt;2977 -->
<g id="edge94" class="edge">
<title>C_wall&#45;&gt;2977</title>
<path fill="none" stroke="#00ff00" stroke-width=".2519" d="M422.2573,-506.6571C376.9893,-498.5505 273.0346,-477.2532 252.375,-449.4701 190.0156,-365.6092 218.3009,-231.2564 236.4024,-169.1631"/>
<polygon fill="#00ff00" stroke="#00ff00" stroke-width=".2519" points="239.7844,-170.0702 239.3134,-159.4859 233.0811,-168.0538 239.7844,-170.0702"/>
</g>
<!-- 3391 -->
<g id="node43" class="node">
<title>3391</title>
<ellipse fill="#ffffff" stroke="#000000" cx="357.375" cy="-424.7214" rx="25" ry="25"/>
<text text-anchor="middle" x="357.375" y="-422.5214" font-family="Times,serif" font-size="9.00" fill="#000000">3391</text>
</g>
<!-- C_wall&#45;&gt;3391 -->
<g id="edge103" class="edge">
<title>C_wall&#45;&gt;3391</title>
<path fill="none" stroke="#00ff00" stroke-width=".4209" d="M434.1715,-501.0691C421.887,-488.8565 399.6612,-466.7605 382.2696,-449.4705"/>
<polygon fill="#00ff00" stroke="#00ff00" stroke-width=".4209" points="384.7145,-446.9658 375.1551,-442.3976 379.7793,-451.9301 384.7145,-446.9658"/>
</g>
<!-- 4551 -->
<g id="node44" class="node">
<title>4551</title>
<ellipse fill="#ffffff" stroke="#000000" cx="540.375" cy="-424.7214" rx="25" ry="25"/>
<text text-anchor="middle" x="540.375" y="-422.5214" font-family="Times,serif" font-size="9.00" fill="#000000">4551</text>
</g>
<!-- C_wall&#45;&gt;4551 -->
<g id="edge112" class="edge">
<title>C_wall&#45;&gt;4551</title>
<path fill="none" stroke="#00ff00" stroke-width=".2554" d="M453.7557,-501.0691C468.0803,-488.4432 494.3896,-465.2537 514.2682,-447.7323"/>
<polygon fill="#00ff00" stroke="#00ff00" stroke-width=".2554" points="516.6139,-450.3303 521.8015,-441.0924 511.9853,-445.079 516.6139,-450.3303"/>
</g>
<!-- D_agent -->
<g id="node10" class="node">
<title>D_agent</title>
<polygon fill="#d3d3d3" stroke="#000000" points="867.875,-433.7214 820.875,-433.7214 820.875,-415.7214 867.875,-415.7214 867.875,-433.7214"/>
<text text-anchor="middle" x="844.375" y="-422.5214" font-family="Times,serif" font-size="9.00" fill="#000000">D_agent</text>
</g>
<!-- D_agent&#45;&gt;left -->
<g id="edge37" class="edge">
<title>D_agent&#45;&gt;left</title>
<path fill="none" stroke="#00ff00" stroke-width=".1048" d="M834.0195,-415.5065C816.8286,-400.2092 782.0117,-369.2273 758.9402,-348.697"/>
<polygon fill="#00ff00" stroke="#00ff00" stroke-width=".1048" points="761.1147,-345.9469 751.3175,-341.9139 756.4613,-351.1763 761.1147,-345.9469"/>
</g>
<!-- D_agent&#45;&gt;no_turn -->
<g id="edge19" class="edge">
<title>D_agent&#45;&gt;no_turn</title>
<path fill="none" stroke="#ff0000" stroke-width=".5855" stroke-dasharray="1,5" d="M853.6342,-415.5127C859.6215,-410.1115 867.8633,-403.6464 876.375,-399.9727 970.565,-359.3194 1004.2688,-386.4046 1104.375,-363.9727 1132.0306,-357.7755 1162.6697,-348.8009 1186.1969,-341.4447"/>
<polygon fill="#ff0000" stroke="#ff0000" stroke-width=".5855" points="1187.3353,-344.7556 1195.8151,-338.4039 1185.2252,-338.0812 1187.3353,-344.7556"/>
</g>
<!-- D_agent&#45;&gt;ccw -->
<g id="edge26" class="edge">
<title>D_agent&#45;&gt;ccw</title>
<path fill="none" stroke="#00ff00" stroke-width=".1654" d="M833.9462,-415.5726C827.7199,-410.4606 819.4699,-404.2734 811.375,-399.9727 768.1796,-377.0237 747.9618,-391.271 707.375,-363.9727 703.2726,-361.2134 699.3763,-357.781 695.8181,-354.1483"/>
<polygon fill="#00ff00" stroke="#00ff00" stroke-width=".1654" points="698.3076,-351.6816 689.0317,-346.562 693.0904,-356.3487 698.3076,-351.6816"/>
</g>
<!-- D_agent&#45;&gt;cw -->
<g id="edge67" class="edge">
<title>D_agent&#45;&gt;cw</title>
<path fill="none" stroke="#00ff00" stroke-width=".5591" d="M852.9615,-415.6619C858.9306,-410.0241 867.401,-403.2438 876.375,-399.9727 968.5252,-366.3821 1660.6089,-371.834 1758.375,-363.9727 1855.6956,-356.1471 1970.4242,-340.4745 2023.1714,-332.9044"/>
<polygon fill="#00ff00" stroke="#00ff00" stroke-width=".5591" points="2023.768,-336.3547 2033.1647,-331.4605 2022.7669,-329.4266 2023.768,-336.3547"/>
</g>
<!-- D_lm -->
<g id="node11" class="node">
<title>D_lm</title>
<polygon fill="#d3d3d3" stroke="#000000" points="436.875,-433.7214 399.875,-433.7214 399.875,-415.7214 436.875,-415.7214 436.875,-433.7214"/>
<text text-anchor="middle" x="418.375" y="-422.5214" font-family="Times,serif" font-size="9.00" fill="#000000">D_lm</text>
</g>
<!-- D_lm&#45;&gt;left -->
<g id="edge82" class="edge">
<title>D_lm&#45;&gt;left</title>
<path fill="none" stroke="#ff0000" stroke-width=".3342" stroke-dasharray="1,5" d="M426.241,-415.4422C431.3912,-410.0145 438.5923,-403.5462 446.375,-399.9727 552.7912,-351.1096 605.2038,-421.1833 707.375,-363.9727 712.0181,-361.3727 716.2179,-357.7104 719.8883,-353.7202"/>
<polygon fill="#ff0000" stroke="#ff0000" stroke-width=".3342" points="722.6992,-355.8106 726.2714,-345.8362 717.2587,-351.4059 722.6992,-355.8106"/>
</g>
<!-- D_lm&#45;&gt;ccw -->
<g id="edge93" class="edge">
<title>D_lm&#45;&gt;ccw</title>
<path fill="none" stroke="#ff0000" stroke-width=".5184" stroke-dasharray="1,5" d="M426.9464,-415.4002C432.1368,-410.2307 439.1368,-404.0436 446.375,-399.9727 511.7909,-363.1811 598.5613,-342.901 644.5699,-334.067"/>
<polygon fill="#ff0000" stroke="#ff0000" stroke-width=".5184" points="645.3598,-337.4802 654.5501,-332.2086 644.0783,-330.5985 645.3598,-337.4802"/>
</g>
<!-- D_wall -->
<g id="node12" class="node">
<title>D_wall</title>
<polygon fill="#d3d3d3" stroke="#000000" points="614.875,-588.9676 571.875,-588.9676 571.875,-570.9676 614.875,-570.9676 614.875,-588.9676"/>
<text text-anchor="middle" x="593.375" y="-577.7676" font-family="Times,serif" font-size="9.00" fill="#000000">D_wall</text>
</g>
<!-- D_wall&#45;&gt;no_move -->
<g id="edge51" class="edge">
<title>D_wall&#45;&gt;no_move</title>
<path fill="none" stroke="#ff0000" stroke-width=".2436" stroke-dasharray="1,5" d="M614.9931,-579.3503C719.6539,-576.2499 1174.3527,-561.4686 1313.375,-534.9676 1434.1112,-511.9524 1475.998,-520.4024 1576.375,-449.4701 1599.0246,-433.4646 1594.424,-419.2377 1614.375,-399.9727 1619.8953,-394.6421 1650.8157,-372.7518 1676.8314,-354.6065"/>
<polygon fill="#ff0000" stroke="#ff0000" stroke-width=".2436" points="1678.8603,-357.4588 1685.0673,-348.8725 1674.8606,-351.714 1678.8603,-357.4588"/>
</g>
<!-- D_wall&#45;&gt;right -->
<g id="edge83" class="edge">
<title>D_wall&#45;&gt;right</title>
<path fill="none" stroke="#00ff00" stroke-width=".3628" d="M571.7967,-579.2489C490.9877,-576.3391 209.5414,-564.1631 183.375,-534.9676 143.3313,-490.2884 155.7866,-453.2513 183.375,-399.9727 258.9627,-253.9976 342.0637,-255.4654 499.375,-207.7645 558.5811,-189.8117 989.2751,-149.9646 1113.7627,-138.7131"/>
<polygon fill="#00ff00" stroke="#00ff00" stroke-width=".3628" points="1114.2053,-142.1875 1123.8505,-137.8035 1113.5765,-135.2158 1114.2053,-142.1875"/>
</g>
<!-- D_wall&#45;&gt;forward -->
<g id="edge32" class="edge">
<title>D_wall&#45;&gt;forward</title>
<path fill="none" stroke="#ff0000" stroke-width=".4232" stroke-dasharray="1,5" d="M571.6774,-579.6387C473.8771,-577.9688 76.9552,-569.1191 34.375,-534.9676 -5.6245,-502.8861 .375,-475.9969 .375,-424.7214 .375,-424.7214 .375,-424.7214 .375,-232.5132 .375,-142.1134 71.4763,-135.6943 154.375,-99.6396 259.1518,-54.0696 611.7498,-37.597 734.1202,-33.1724"/>
<polygon fill="#ff0000" stroke="#ff0000" stroke-width=".4232" points="734.3511,-36.6665 744.2214,-32.8158 734.1041,-29.6709 734.3511,-36.6665"/>
</g>
<!-- D_wall&#45;&gt;ccw -->
<g id="edge74" class="edge">
<title>D_wall&#45;&gt;ccw</title>
<path fill="none" stroke="#00ff00" stroke-width=".104" stroke-dasharray="1,5" d="M571.8609,-579.0481C495.1478,-575.5523 238.3025,-561.9042 214.375,-534.9676 174.5296,-490.1114 175.322,-445.5204 214.375,-399.9727 242.5359,-367.1284 544.3086,-339.4936 644.356,-331.1766"/>
<polygon fill="#00ff00" stroke="#00ff00" stroke-width=".104" points="644.7864,-334.6531 654.4659,-330.3451 644.2126,-327.6766 644.7864,-334.6531"/>
</g>
<!-- D_wall&#45;&gt;cw -->
<g id="edge53" class="edge">
<title>D_wall&#45;&gt;cw</title>
<path fill="none" stroke="#ff0000" stroke-width=".5436" stroke-dasharray="1,5" d="M614.9442,-579.7108C799.041,-577.4739 2100.2129,-560.7637 2130.375,-534.9676 2176.2905,-495.6985 2177.8459,-451.5467 2146.375,-399.9727 2128.152,-370.1092 2102.5672,-387.1646 2076.375,-363.9727 2073.1257,-361.0956 2070.1082,-357.6872 2067.3862,-354.1406"/>
<polygon fill="#ff0000" stroke="#ff0000" stroke-width=".5436" points="2070.1761,-352.0217 2061.6011,-345.7991 2064.424,-356.011 2070.1761,-352.0217"/>
</g>
<!-- 3201 -->
<g id="node34" class="node">
<title>3201</title>
<ellipse fill="#ffffff" stroke="#000000" cx="646.375" cy="-424.7214" rx="25" ry="25"/>
<text text-anchor="middle" x="646.375" y="-422.5214" font-family="Times,serif" font-size="9.00" fill="#000000">3201</text>
</g>
<!-- D_wall&#45;&gt;3201 -->
<g id="edge105" class="edge">
<title>D_wall&#45;&gt;3201</title>
<path fill="none" stroke="#ff0000" stroke-width=".7474" stroke-dasharray="1,5" d="M602.4114,-570.8185C610.2939,-562.2779 621.3801,-548.804 627.375,-534.9676 637.7069,-511.1212 642.429,-482.0836 644.5828,-459.7964"/>
<polygon fill="#ff0000" stroke="#ff0000" stroke-width=".7474" points="648.0762,-460.0207 645.425,-449.7629 641.1008,-459.4351 648.0762,-460.0207"/>
</g>
<!-- D_wall&#45;&gt;424 -->
<g id="edge88" class="edge">
<title>D_wall&#45;&gt;424</title>
<path fill="none" stroke="#00ff00" stroke-width=".3364" d="M614.903,-579.8569C812.1347,-578.7903 2300.04,-569.609 2386.375,-534.9676 2438.7871,-513.9375 2457.5347,-501.1191 2480.375,-449.4701 2496.7801,-412.373 2465.639,-298.586 2460.375,-293.262 2455.5145,-288.3461 2263.1107,-252.3945 2186.4397,-238.228"/>
<polygon fill="#00ff00" stroke="#00ff00" stroke-width=".3364" points="2186.8899,-234.7521 2176.4208,-236.3792 2185.6195,-241.6359 2186.8899,-234.7521"/>
</g>
<!-- 4668 -->
<g id="node42" class="node">
<title>4668</title>
<ellipse fill="#ffffff" stroke="#000000" cx="723.375" cy="-135.7021" rx="25" ry="25"/>
<text text-anchor="middle" x="723.375" y="-133.5021" font-family="Times,serif" font-size="9.00" fill="#000000">4668</text>
</g>
<!-- D_wall&#45;&gt;4668 -->
<g id="edge117" class="edge">
<title>D_wall&#45;&gt;4668</title>
<path fill="none" stroke="#ff0000" stroke-width=".1905" d="M571.5645,-579.8165C475.9896,-578.9322 97.3511,-573.0331 62.375,-534.9676 21.7809,-490.7878 39.575,-455.4694 62.375,-399.9727 108.0215,-288.8654 145.3628,-262.3249 252.375,-207.7645 329.18,-168.6053 593.1544,-145.441 688.5937,-138.1851"/>
<polygon fill="#ff0000" stroke="#ff0000" stroke-width=".1905" points="688.887,-141.6731 698.5978,-137.4362 688.3644,-134.6926 688.887,-141.6731"/>
</g>
<!-- 4696 -->
<g id="node45" class="node">
<title>4696</title>
<ellipse fill="#ffffff" stroke="#000000" cx="593.375" cy="-510.2189" rx="25" ry="25"/>
<text text-anchor="middle" x="593.375" y="-508.0189" font-family="Times,serif" font-size="9.00" fill="#000000">4696</text>
</g>
<!-- D_wall&#45;&gt;4696 -->
<g id="edge119" class="edge">
<title>D_wall&#45;&gt;4696</title>
<path fill="none" stroke="#00ff00" stroke-width=".1862" d="M593.375,-570.8492C593.375,-564.2325 593.375,-554.8209 593.375,-545.3813"/>
<polygon fill="#00ff00" stroke="#00ff00" stroke-width=".1862" points="596.8751,-545.2581 593.375,-535.2581 589.8751,-545.2582 596.8751,-545.2581"/>
</g>
<!-- E_agent -->
<g id="node13" class="node">
<title>E_agent</title>
<polygon fill="#d3d3d3" stroke="#000000" points="1567.375,-433.7214 1521.375,-433.7214 1521.375,-415.7214 1567.375,-415.7214 1567.375,-433.7214"/>
<text text-anchor="middle" x="1544.375" y="-422.5214" font-family="Times,serif" font-size="9.00" fill="#000000">E_agent</text>
</g>
<!-- E_agent&#45;&gt;no_move -->
<g id="edge40" class="edge">
<title>E_agent&#45;&gt;no_move</title>
<path fill="none" stroke="#00ff00" stroke-width=".1834" stroke-dasharray="1,5" d="M1556.6876,-415.6501C1563.7197,-410.6851 1572.8166,-404.6172 1581.375,-399.9727 1617.0742,-380.599 1630.0252,-383.9769 1665.375,-363.9727 1669.549,-361.6106 1673.7949,-358.9646 1677.954,-356.2114"/>
<polygon fill="#00ff00" stroke="#00ff00" stroke-width=".1834" points="1680.057,-359.0131 1686.3181,-350.4662 1676.0937,-353.2431 1680.057,-359.0131"/>
</g>
<!-- E_agent&#45;&gt;right -->
<g id="edge80" class="edge">
<title>E_agent&#45;&gt;right</title>
<path fill="none" stroke="#00ff00" stroke-width=".216" stroke-dasharray="1,5" d="M1535.5248,-415.5683C1496.0648,-374.7751 1337.8219,-211.3766 1331.375,-207.7645 1269.2987,-172.9845 1235.3309,-210.0842 1175.375,-171.7645 1171.9416,-169.5701 1168.7581,-166.8029 1165.8625,-163.7814"/>
<polygon fill="#00ff00" stroke="#00ff00" stroke-width=".216" points="1168.386,-161.3435 1159.2796,-155.9281 1163.0214,-165.8403 1168.386,-161.3435"/>
</g>
<!-- E_agent&#45;&gt;backward -->
<g id="edge12" class="edge">
<title>E_agent&#45;&gt;backward</title>
<path fill="none" stroke="#00ff00" stroke-width=".5447" d="M1558.0777,-415.6556C1578.6602,-401.8799 1616.3255,-376.0092 1627.375,-363.9727 1652.2487,-336.8768 1643.8725,-318.767 1670.375,-293.262 1742.1483,-224.1898 1850.093,-175.2679 1909.7871,-151.6816"/>
<polygon fill="#00ff00" stroke="#00ff00" stroke-width=".5447" points="1911.2456,-154.8697 1919.2934,-147.9789 1908.705,-148.347 1911.2456,-154.8697"/>
</g>
<!-- E_agent&#45;&gt;no_turn -->
<g id="edge9" class="edge">
<title>E_agent&#45;&gt;no_turn</title>
<path fill="none" stroke="#00ff00" stroke-width=".2666" d="M1534.3715,-415.5432C1528.1605,-410.2912 1519.7821,-403.9716 1511.375,-399.9727 1489.1684,-389.4098 1339.0818,-354.4835 1265.663,-337.7334"/>
<polygon fill="#00ff00" stroke="#00ff00" stroke-width=".2666" points="1266.3609,-334.3028 1255.8334,-335.4949 1264.8066,-341.1281 1266.3609,-334.3028"/>
</g>
<!-- E_lm -->
<g id="node14" class="node">
<title>E_lm</title>
<polygon fill="#d3d3d3" stroke="#000000" points="2121.375,-519.2189 2085.375,-519.2189 2085.375,-501.2189 2121.375,-501.2189 2121.375,-519.2189"/>
<text text-anchor="middle" x="2103.375" y="-508.0189" font-family="Times,serif" font-size="9.00" fill="#000000">E_lm</text>
</g>
<!-- E_lm&#45;&gt;no_move -->
<g id="edge7" class="edge">
<title>E_lm&#45;&gt;no_move</title>
<path fill="none" stroke="#ff0000" stroke-width="1.072" d="M2085.256,-501.993C2072.4194,-496.4968 2054.6555,-489.5512 2038.375,-485.4701 1977.3095,-470.1627 1806.3985,-488.967 1757.375,-449.4701 1734.7168,-431.2151 1723.9862,-400.1138 1718.9102,-374.0341"/>
<polygon fill="#ff0000" stroke="#ff0000" stroke-width="1.072" points="1722.3208,-373.2158 1717.173,-363.9557 1715.4226,-374.4049 1722.3208,-373.2158"/>
</g>
<!-- E_lm&#45;&gt;left -->
<g id="edge126" class="edge">
<title>E_lm&#45;&gt;left</title>
<path fill="none" stroke="#ff0000" stroke-width=".2272" d="M2085.3704,-501.4833C2072.5863,-495.7533 2054.8381,-488.7378 2038.375,-485.4701 1968.488,-471.5987 810.0618,-496.3138 756.375,-449.4701 731.0827,-427.4017 729.3755,-386.6059 731.7852,-358.5643"/>
<polygon fill="#ff0000" stroke="#ff0000" stroke-width=".2272" points="735.2773,-358.8248 732.8697,-348.5071 728.3177,-358.0742 735.2773,-358.8248"/>
</g>
<!-- E_lm&#45;&gt;backward -->
<g id="edge47" class="edge">
<title>E_lm&#45;&gt;backward</title>
<path fill="none" stroke="#ff0000" stroke-width=".1283" stroke-dasharray="1,5" d="M2121.6867,-507.1263C2151.5199,-502.1506 2212.4975,-492.2413 2264.375,-485.4701 2338.6183,-475.7797 2545.2839,-501.2401 2599.375,-449.4701 2638.2056,-412.3057 2645.1692,-246.9462 2608.375,-207.7645 2566.7362,-163.4239 2142.2124,-143.0209 1999.7225,-137.3853"/>
<polygon fill="#ff0000" stroke="#ff0000" stroke-width=".1283" points="1999.694,-133.8816 1989.5654,-136.9898 1999.4216,-140.8763 1999.694,-133.8816"/>
</g>
<!-- E_lm&#45;&gt;cw -->
<g id="edge79" class="edge">
<title>E_lm&#45;&gt;cw</title>
<path fill="none" stroke="#00ff00" stroke-width=".3659" d="M2109.696,-500.9259C2122.1375,-481.3856 2147.1914,-434.9613 2130.375,-399.9727 2119.2799,-376.888 2104.1626,-381.3803 2085.375,-363.9727 2080.877,-359.805 2076.2596,-355.1379 2071.9572,-350.5955"/>
<polygon fill="#00ff00" stroke="#00ff00" stroke-width=".3659" points="2074.4524,-348.1388 2065.0903,-343.1788 2069.3159,-352.8945 2074.4524,-348.1388"/>
</g>
<!-- 3130 -->
<g id="node40" class="node">
<title>3130</title>
<ellipse fill="#ffffff" stroke="#000000" cx="2574.375" cy="-232.5132" rx="25" ry="25"/>
<text text-anchor="middle" x="2574.375" y="-230.3132" font-family="Times,serif" font-size="9.00" fill="#000000">3130</text>
</g>
<!-- E_lm&#45;&gt;3130 -->
<g id="edge97" class="edge">
<title>E_lm&#45;&gt;3130</title>
<path fill="none" stroke="#00ff00" stroke-width=".2248" stroke-dasharray="1,5" d="M2121.6935,-507.1775C2151.5362,-502.2737 2212.527,-492.4632 2264.375,-485.4701 2333.1045,-476.2001 2528.2509,-501.2605 2574.375,-449.4701 2619.3012,-399.0247 2601.2813,-312.7824 2586.4606,-265.6553"/>
<polygon fill="#00ff00" stroke="#00ff00" stroke-width=".2248" points="2589.7175,-264.3545 2583.276,-255.9428 2583.0659,-266.5355 2589.7175,-264.3545"/>
</g>
<!-- E_lm&#45;&gt;3391 -->
<g id="edge106" class="edge">
<title>E_lm&#45;&gt;3391</title>
<path fill="none" stroke="#00ff00" stroke-width=".102" stroke-dasharray="1,5" d="M2085.1001,-501.327C2072.3402,-495.6056 2054.7297,-488.6633 2038.375,-485.4701 1858.6145,-450.3724 563.4887,-509.2807 390.375,-449.4701 388.4459,-448.8036 386.5373,-447.9788 384.6686,-447.0392"/>
<polygon fill="#00ff00" stroke="#00ff00" stroke-width=".102" points="386.1045,-443.8148 375.7468,-441.5855 382.4536,-449.7873 386.1045,-443.8148"/>
</g>
<!-- E_wall -->
<g id="node15" class="node">
<title>E_wall</title>
<polygon fill="#d3d3d3" stroke="#000000" points="1108.375,-433.7214 1066.375,-433.7214 1066.375,-415.7214 1108.375,-415.7214 1108.375,-433.7214"/>
<text text-anchor="middle" x="1087.375" y="-422.5214" font-family="Times,serif" font-size="9.00" fill="#000000">E_wall</text>
</g>
<!-- E_wall&#45;&gt;right -->
<g id="edge1" class="edge">
<title>E_wall&#45;&gt;right</title>
<path fill="none" stroke="#00ff00" stroke-width="1.3861" d="M1089.3033,-415.4325C1097.1506,-377.6324 1126.9109,-234.2771 1140.515,-168.7464"/>
<polygon fill="#00ff00" stroke="#00ff00" stroke-width="1.3861" points="1144.0245,-169.06 1142.6303,-158.5573 1137.1706,-167.6371 1144.0245,-169.06"/>
</g>
<!-- E_wall&#45;&gt;left -->
<g id="edge84" class="edge">
<title>E_wall&#45;&gt;left</title>
<path fill="none" stroke="#00ff00" stroke-width=".4901" stroke-dasharray="1,5" d="M1078.7148,-415.6795C1073.1094,-410.3411 1065.3836,-403.8834 1057.375,-399.9727 957.8892,-351.3924 824.9217,-335.4667 766.2911,-330.5998"/>
<polygon fill="#00ff00" stroke="#00ff00" stroke-width=".4901" points="766.4755,-327.1037 756.2334,-329.8144 765.9305,-334.0824 766.4755,-327.1037"/>
</g>
<!-- E_wall&#45;&gt;cw -->
<g id="edge44" class="edge">
<title>E_wall&#45;&gt;cw</title>
<path fill="none" stroke="#ff0000" stroke-width=".1205" d="M1095.3337,-415.711C1100.8913,-410.094 1108.8236,-403.3184 1117.375,-399.9727 1250.2369,-347.9906 1616.2568,-376.496 1758.375,-363.9727 1855.6328,-355.4023 1970.3918,-340.09 2023.1588,-332.7556"/>
<polygon fill="#ff0000" stroke="#ff0000" stroke-width=".1205" points="2023.7369,-336.2089 2033.1561,-331.3581 2022.7678,-329.2763 2023.7369,-336.2089"/>
</g>
<!-- F_agent -->
<g id="node16" class="node">
<title>F_agent</title>
<polygon fill="#d3d3d3" stroke="#000000" points="1469.875,-241.5132 1424.875,-241.5132 1424.875,-223.5132 1469.875,-223.5132 1469.875,-241.5132"/>
<text text-anchor="middle" x="1447.375" y="-230.3132" font-family="Times,serif" font-size="9.00" fill="#000000">F_agent</text>
</g>
<!-- F_agent&#45;&gt;right -->
<g id="edge77" class="edge">
<title>F_agent&#45;&gt;right</title>
<path fill="none" stroke="#ff0000" stroke-width=".312" stroke-dasharray="1,5" d="M1435.9498,-223.4625C1428.9118,-218.2556 1419.5133,-211.9388 1410.375,-207.7645 1409.7032,-207.4576 1250.0707,-163.7868 1179.8645,-144.5864"/>
<polygon fill="#ff0000" stroke="#ff0000" stroke-width=".312" points="1180.7537,-141.2011 1170.1847,-141.9392 1178.9072,-147.9532 1180.7537,-141.2011"/>
</g>
<!-- F_agent&#45;&gt;forward -->
<g id="edge78" class="edge">
<title>F_agent&#45;&gt;forward</title>
<path fill="none" stroke="#00ff00" stroke-width=".1723" stroke-dasharray="1,5" d="M1434.6651,-223.3147C1427.6629,-218.4269 1418.7212,-212.4732 1410.375,-207.7645 1311.6465,-152.0646 1287.5931,-133.3828 1179.375,-99.6396 1051.389,-59.7327 892.7804,-41.7884 818.4833,-35.1267"/>
<polygon fill="#00ff00" stroke="#00ff00" stroke-width=".1723" points="818.4134,-31.6074 808.1468,-34.2244 817.8046,-38.5809 818.4134,-31.6074"/>
</g>
<!-- F_agent&#45;&gt;backward -->
<g id="edge43" class="edge">
<title>F_agent&#45;&gt;backward</title>
<path fill="none" stroke="#ff0000" stroke-width=".5222" stroke-dasharray="1,5" d="M1470.0872,-224.0107C1484.825,-218.7454 1504.5379,-212.1711 1522.375,-207.7645 1660.704,-173.5905 1828.0494,-150.7725 1907.3779,-141.0421"/>
<polygon fill="#ff0000" stroke="#ff0000" stroke-width=".5222" points="1908.0148,-144.4905 1917.5201,-139.8108 1907.1711,-137.5416 1908.0148,-144.4905"/>
</g>
<!-- F_lm -->
<g id="node17" class="node">
<title>F_lm</title>
<polygon fill="#d3d3d3" stroke="#000000" points="1048.375,-433.7214 1012.375,-433.7214 1012.375,-415.7214 1048.375,-415.7214 1048.375,-433.7214"/>
<text text-anchor="middle" x="1030.375" y="-422.5214" font-family="Times,serif" font-size="9.00" fill="#000000">F_lm</text>
</g>
<!-- F_lm&#45;&gt;no_move -->
<g id="edge27" class="edge">
<title>F_lm&#45;&gt;no_move</title>
<path fill="none" stroke="#00ff00" stroke-width=".1417" d="M1037.8602,-415.3631C1042.7888,-409.9057 1049.7283,-403.4339 1057.375,-399.9727 1112.8941,-374.8421 1528.8008,-342.2756 1668.6527,-331.9259"/>
<polygon fill="#00ff00" stroke="#00ff00" stroke-width=".1417" points="1669.2939,-335.3883 1679.0096,-331.1628 1668.7795,-328.4072 1669.2939,-335.3883"/>
</g>
<!-- F_lm&#45;&gt;left -->
<g id="edge46" class="edge">
<title>F_lm&#45;&gt;left</title>
<path fill="none" stroke="#ff0000" stroke-width=".8206" d="M1021.8617,-415.2945C1016.6906,-410.0898 1009.6906,-403.9026 1002.375,-399.9727 923.3351,-357.5126 817.2448,-338.9602 766.2302,-332.0804"/>
<polygon fill="#ff0000" stroke="#ff0000" stroke-width=".8206" points="766.576,-328.5961 756.2098,-330.7851 765.6785,-335.5383 766.576,-328.5961"/>
</g>
<!-- F_lm&#45;&gt;no_turn -->
<g id="edge58" class="edge">
<title>F_lm&#45;&gt;no_turn</title>
<path fill="none" stroke="#00ff00" stroke-width=".4862" d="M1038.7415,-415.6503C1043.7804,-410.5642 1050.5304,-404.3771 1057.375,-399.9727 1098.2963,-373.6403 1150.5745,-353.2236 1185.8602,-341.1006"/>
<polygon fill="#00ff00" stroke="#00ff00" stroke-width=".4862" points="1186.9818,-344.4161 1195.3384,-337.9032 1184.7442,-337.7834 1186.9818,-344.4161"/>
</g>
<!-- F_lm&#45;&gt;ccw -->
<g id="edge81" class="edge">
<title>F_lm&#45;&gt;ccw</title>
<path fill="none" stroke="#ff0000" stroke-width="1.4685" stroke-dasharray="1,5" d="M1022.5284,-415.3993C1017.3856,-409.9554 1010.1853,-403.4853 1002.375,-399.9727 881.9131,-345.7963 824.153,-425.6899 707.375,-363.9727 703.0039,-361.6625 698.966,-358.4667 695.3483,-354.9336"/>
<polygon fill="#ff0000" stroke="#ff0000" stroke-width="1.4685" points="697.8363,-352.4663 688.5405,-347.3832 692.6375,-357.1538 697.8363,-352.4663"/>
</g>
<!-- F_lm&#45;&gt;cw -->
<g id="edge3" class="edge">
<title>F_lm&#45;&gt;cw</title>
<path fill="none" stroke="#ff0000" stroke-width="1.3052" d="M1037.353,-415.7077C1042.2768,-410.0893 1049.3984,-403.3133 1057.375,-399.9727 1201.2496,-339.7165 1602.9616,-377.2923 1758.375,-363.9727 1855.6531,-355.6355 1970.4023,-340.2103 2023.1629,-332.8022"/>
<polygon fill="#ff0000" stroke="#ff0000" stroke-width="1.3052" points="2023.7467,-336.2545 2033.1589,-331.3901 2022.7676,-329.3233 2023.7467,-336.2545"/>
</g>
<!-- F_wall -->
<g id="node18" class="node">
<title>F_wall</title>
<polygon fill="#d3d3d3" stroke="#000000" points="497.375,-433.7214 455.375,-433.7214 455.375,-415.7214 497.375,-415.7214 497.375,-433.7214"/>
<text text-anchor="middle" x="476.375" y="-422.5214" font-family="Times,serif" font-size="9.00" fill="#000000">F_wall</text>
</g>
<!-- F_wall&#45;&gt;right -->
<g id="edge11" class="edge">
<title>F_wall&#45;&gt;right</title>
<path fill="none" stroke="#00ff00" stroke-width=".8996" stroke-dasharray="1,5" d="M486.414,-415.485C511.648,-392.599 580.365,-332.2995 645.375,-293.262 724.0676,-246.0083 746.4253,-237.1787 833.375,-207.7645 933.1293,-174.0187 1055.9996,-150.9311 1114.0243,-141.0778"/>
<polygon fill="#00ff00" stroke="#00ff00" stroke-width=".8996" points="1114.7997,-144.4968 1124.0839,-139.3924 1113.643,-137.593 1114.7997,-144.4968"/>
</g>
<!-- F_wall&#45;&gt;left -->
<g id="edge34" class="edge">
<title>F_wall&#45;&gt;left</title>
<path fill="none" stroke="#00ff00" stroke-width=".2825" stroke-dasharray="1,5" d="M484.9792,-415.5619C490.5635,-410.1793 498.2869,-403.7163 506.375,-399.9727 588.7351,-361.8511 629.0953,-409.8937 707.375,-363.9727 711.9649,-361.28 716.1395,-357.5735 719.8015,-353.5687"/>
<polygon fill="#00ff00" stroke="#00ff00" stroke-width=".2825" points="722.6108,-355.661 726.1863,-345.6877 717.1718,-351.2545 722.6108,-355.661"/>
</g>
<!-- F_wall&#45;&gt;forward -->
<g id="edge55" class="edge">
<title>F_wall&#45;&gt;forward</title>
<path fill="none" stroke="#ff0000" stroke-width=".1607" d="M480.4947,-415.5112C490.4039,-393.6629 516.8006,-337.2364 544.375,-293.262 601.4898,-202.1778 614.093,-176.3929 689.375,-99.6396 705.1341,-83.5724 724.7578,-67.9652 741.3773,-55.7814"/>
<polygon fill="#ff0000" stroke="#ff0000" stroke-width=".1607" points="743.6941,-58.4258 749.7579,-49.7378 739.5997,-52.7481 743.6941,-58.4258"/>
</g>
<!-- F_wall&#45;&gt;backward -->
<g id="edge31" class="edge">
<title>F_wall&#45;&gt;backward</title>
<path fill="none" stroke="#00ff00" stroke-width=".174" stroke-dasharray="1,5" d="M484.9288,-415.4501C490.4941,-410.0254 498.2152,-403.5575 506.375,-399.9727 612.7772,-353.2273 650.5052,-381.6218 765.375,-363.9727 952.4731,-335.2259 998.0548,-320.5244 1185.375,-293.262 1315.2086,-274.3661 1350.4078,-286.2142 1478.375,-257.262 1546.0241,-241.9565 1559.5256,-226.2532 1626.375,-207.7645 1725.625,-180.3146 1844.0883,-156.3496 1907.6556,-144.1895"/>
<polygon fill="#00ff00" stroke="#00ff00" stroke-width=".174" points="1908.5789,-147.5768 1917.7488,-142.2699 1907.2709,-140.7 1908.5789,-147.5768"/>
</g>
<!-- F_wall&#45;&gt;no_turn -->
<g id="edge60" class="edge">
<title>F_wall&#45;&gt;no_turn</title>
<path fill="none" stroke="#ff0000" stroke-width=".3387" d="M484.8348,-415.2243C490.3648,-409.7146 498.0817,-403.2367 506.375,-399.9727 630.2553,-351.217 973.2145,-386.7849 1104.375,-363.9727 1132.2973,-359.1162 1162.9332,-350.1259 1186.3922,-342.4268"/>
<polygon fill="#ff0000" stroke="#ff0000" stroke-width=".3387" points="1187.6036,-345.7123 1195.9778,-339.2221 1185.384,-339.0735 1187.6036,-345.7123"/>
</g>
<!-- F_wall&#45;&gt;ccw -->
<g id="edge23" class="edge">
<title>F_wall&#45;&gt;ccw</title>
<path fill="none" stroke="#ff0000" stroke-width=".2765" stroke-dasharray="1,5" d="M485.3539,-415.5607C490.9594,-410.3148 498.5737,-403.9956 506.375,-399.9727 561.1838,-371.7085 586.8408,-394.5825 640.375,-363.9727 645.6365,-360.9642 650.6835,-356.9995 655.2477,-352.8151"/>
<polygon fill="#ff0000" stroke="#ff0000" stroke-width=".2765" points="657.7904,-355.2228 662.4257,-345.6958 652.8609,-350.2528 657.7904,-355.2228"/>
</g>
<!-- G_agent -->
<g id="node19" class="node">
<title>G_agent</title>
<polygon fill="#d3d3d3" stroke="#000000" points="932.875,-433.7214 885.875,-433.7214 885.875,-415.7214 932.875,-415.7214 932.875,-433.7214"/>
<text text-anchor="middle" x="909.375" y="-422.5214" font-family="Times,serif" font-size="9.00" fill="#000000">G_agent</text>
</g>
<!-- G_agent&#45;&gt;no_move -->
<g id="edge76" class="edge">
<title>G_agent&#45;&gt;no_move</title>
<path fill="none" stroke="#00ff00" stroke-width=".1633" d="M918.2847,-415.5661C924.2614,-410.0404 932.6185,-403.4212 941.375,-399.9727 975.4252,-386.5626 1508.2856,-344.5316 1668.9011,-332.1086"/>
<polygon fill="#00ff00" stroke="#00ff00" stroke-width=".1633" points="1669.2322,-335.5935 1678.933,-331.3337 1668.6931,-328.6143 1669.2322,-335.5935"/>
</g>
<!-- G_agent&#45;&gt;left -->
<g id="edge66" class="edge">
<title>G_agent&#45;&gt;left</title>
<path fill="none" stroke="#00ff00" stroke-width=".4574" stroke-dasharray="1,5" d="M898.1124,-415.5139C891.8887,-410.6235 883.9108,-404.6702 876.375,-399.9727 838.8914,-376.6069 792.8206,-354.2543 764.0185,-340.9798"/>
<polygon fill="#00ff00" stroke="#00ff00" stroke-width=".4574" points="765.1437,-337.6461 754.5934,-336.6763 762.2362,-344.0137 765.1437,-337.6461"/>
</g>
<!-- G_lm -->
<g id="node20" class="node">
<title>G_lm</title>
<polygon fill="#d3d3d3" stroke="#000000" points="2309.875,-519.2189 2272.875,-519.2189 2272.875,-501.2189 2309.875,-501.2189 2309.875,-519.2189"/>
<text text-anchor="middle" x="2291.375" y="-508.0189" font-family="Times,serif" font-size="9.00" fill="#000000">G_lm</text>
</g>
<!-- G_lm&#45;&gt;no_move -->
<g id="edge39" class="edge">
<title>G_lm&#45;&gt;no_move</title>
<path fill="none" stroke="#00ff00" stroke-width=".6878" stroke-dasharray="1,5" d="M2272.578,-507.0356C2242.5741,-502.0209 2181.9772,-492.1644 2130.375,-485.4701 2055.0284,-475.6956 1854.8501,-489.6647 1790.375,-449.4701 1786.26,-446.9048 1758.7689,-402.303 1738.0231,-368.0243"/>
<polygon fill="#00ff00" stroke="#00ff00" stroke-width=".6878" points="1740.8107,-365.8696 1732.6446,-359.1193 1734.8188,-369.4887 1740.8107,-365.8696"/>
</g>
<!-- G_lm&#45;&gt;backward -->
<g id="edge35" class="edge">
<title>G_lm&#45;&gt;backward</title>
<path fill="none" stroke="#00ff00" stroke-width=".3507" d="M2298.8711,-500.8846C2303.8038,-495.4362 2310.7438,-488.9655 2318.375,-485.4701 2380.6247,-456.9576 2573.3106,-495.0818 2624.375,-449.4701 2704.5263,-377.8774 2709.0583,-282.0279 2631.375,-207.7645 2585.7771,-164.174 2146.023,-143.2125 2000.1384,-137.4183"/>
<polygon fill="#00ff00" stroke="#00ff00" stroke-width=".3507" points="1999.8782,-133.9055 1989.7489,-137.0116 1999.6044,-140.9001 1999.8782,-133.9055"/>
</g>
<!-- G_lm&#45;&gt;cw -->
<g id="edge72" class="edge">
<title>G_lm&#45;&gt;cw</title>
<path fill="none" stroke="#ff0000" stroke-width=".4202" d="M2292.9058,-500.9989C2295.8328,-479.9126 2299.7086,-427.8452 2272.375,-399.9727 2213.1144,-339.5438 2159.4467,-404.9218 2085.375,-363.9727 2079.9143,-360.9538 2074.8432,-356.7084 2070.3956,-352.203"/>
<polygon fill="#ff0000" stroke="#ff0000" stroke-width=".4202" points="2072.8183,-349.6618 2063.5406,-344.5457 2067.6029,-354.3308 2072.8183,-349.6618"/>
</g>
<!-- 3225 -->
<g id="node36" class="node">
<title>3225</title>
<ellipse fill="#ffffff" stroke="#000000" cx="2344.375" cy="-424.7214" rx="25" ry="25"/>
<text text-anchor="middle" x="2344.375" y="-422.5214" font-family="Times,serif" font-size="9.00" fill="#000000">3225</text>
</g>
<!-- G_lm&#45;&gt;3225 -->
<g id="edge107" class="edge">
<title>G_lm&#45;&gt;3225</title>
<path fill="none" stroke="#00ff00" stroke-width=".5648" stroke-dasharray="1,5" d="M2297.0469,-501.0691C2303.8965,-490.0196 2315.7614,-470.8796 2325.8974,-454.5286"/>
<polygon fill="#00ff00" stroke="#00ff00" stroke-width=".5648" points="2329.0138,-456.1443 2331.3078,-445.8007 2323.0642,-452.4561 2329.0138,-456.1443"/>
</g>
<!-- G_wall -->
<g id="node21" class="node">
<title>G_wall</title>
<polygon fill="#d3d3d3" stroke="#000000" points="993.875,-433.7214 950.875,-433.7214 950.875,-415.7214 993.875,-415.7214 993.875,-433.7214"/>
<text text-anchor="middle" x="972.375" y="-422.5214" font-family="Times,serif" font-size="9.00" fill="#000000">G_wall</text>
</g>
<!-- G_wall&#45;&gt;right -->
<g id="edge48" class="edge">
<title>G_wall&#45;&gt;right</title>
<path fill="none" stroke="#ff0000" stroke-width=".2237" d="M977.9993,-415.4325C1001.3633,-376.846 1091.3274,-228.2669 1129.7809,-164.7593"/>
<polygon fill="#ff0000" stroke="#ff0000" stroke-width=".2237" points="1132.881,-166.3968 1135.0666,-156.0298 1126.8931,-162.7711 1132.881,-166.3968"/>
</g>
<!-- G_wall&#45;&gt;no_turn -->
<g id="edge10" class="edge">
<title>G_wall&#45;&gt;no_turn</title>
<path fill="none" stroke="#00ff00" stroke-width=".2393" d="M981.7782,-415.7126C987.6149,-410.5206 995.4857,-404.2047 1003.375,-399.9727 1019.6889,-391.2214 1126.0302,-358.5461 1185.4165,-340.6032"/>
<polygon fill="#00ff00" stroke="#00ff00" stroke-width=".2393" points="1186.6621,-343.8833 1195.2253,-337.6446 1184.6405,-337.1816 1186.6621,-343.8833"/>
</g>
<!-- G_wall&#45;&gt;ccw -->
<g id="edge41" class="edge">
<title>G_wall&#45;&gt;ccw</title>
<path fill="none" stroke="#ff0000" stroke-width=".4807" d="M963.4612,-415.496C957.6822,-410.0886 949.7004,-403.6228 941.375,-399.9727 845.0066,-357.7219 799.6266,-414.5852 707.375,-363.9727 703.0405,-361.5946 699.0219,-358.363 695.4123,-354.8148"/>
<polygon fill="#ff0000" stroke="#ff0000" stroke-width=".4807" points="697.9003,-352.3474 688.6074,-347.259 692.6988,-357.0319 697.9003,-352.3474"/>
</g>
<!-- G_wall&#45;&gt;cw -->
<g id="edge13" class="edge">
<title>G_wall&#45;&gt;cw</title>
<path fill="none" stroke="#00ff00" stroke-width=".5375" stroke-dasharray="1,5" d="M980.6472,-415.6845C986.4104,-410.0562 994.6117,-403.2781 1003.375,-399.9727 1160.5353,-340.6934 1590.9941,-378.0091 1758.375,-363.9727 1855.6682,-355.8137 1970.4101,-340.3023 2023.1659,-332.8378"/>
<polygon fill="#00ff00" stroke="#00ff00" stroke-width=".5375" points="2023.7542,-336.2894 2033.1609,-331.4146 2022.7674,-329.3593 2023.7542,-336.2894"/>
</g>
<!-- H_agent -->
<g id="node22" class="node">
<title>H_agent</title>
<polygon fill="#d3d3d3" stroke="#000000" points="2028.875,-519.2189 1981.875,-519.2189 1981.875,-501.2189 2028.875,-501.2189 2028.875,-519.2189"/>
<text text-anchor="middle" x="2005.375" y="-508.0189" font-family="Times,serif" font-size="9.00" fill="#000000">H_agent</text>
</g>
<!-- H_agent&#45;&gt;no_move -->
<g id="edge111" class="edge">
<title>H_agent&#45;&gt;no_move</title>
<path fill="none" stroke="#ff0000" stroke-width=".128" stroke-dasharray="1,5" d="M1981.6783,-508.8052C1919.3469,-504.553 1753.2775,-489.6045 1719.375,-449.4701 1701.8672,-428.7441 1700.7577,-398.1563 1703.9539,-372.94"/>
<polygon fill="#ff0000" stroke="#ff0000" stroke-width=".128" points="1707.443,-373.2759 1705.4886,-362.8629 1700.5228,-372.222 1707.443,-373.2759"/>
</g>
<!-- H_agent&#45;&gt;right -->
<g id="edge69" class="edge">
<title>H_agent&#45;&gt;right</title>
<path fill="none" stroke="#ff0000" stroke-width=".2647" stroke-dasharray="1,5" d="M1981.7624,-509.0835C1876.2953,-503.8471 1451.3064,-480.935 1401.375,-449.4701 1348.5754,-416.1978 1305.0351,-249.2094 1258.375,-207.7645 1228.3123,-181.062 1207.142,-196.415 1175.375,-171.7645 1172.2243,-169.3197 1169.2305,-166.4429 1166.4537,-163.3984"/>
<polygon fill="#ff0000" stroke="#ff0000" stroke-width=".2647" points="1169.1031,-161.11 1160.0322,-155.6354 1163.7093,-165.5718 1169.1031,-161.11"/>
</g>
<!-- H_agent&#45;&gt;backward -->
<g id="edge8" class="edge">
<title>H_agent&#45;&gt;backward</title>
<path fill="none" stroke="#ff0000" stroke-width=".4483" d="M2004.0896,-500.9611C1998.0117,-457.1871 1971.9437,-269.4384 1959.7324,-181.4896"/>
<polygon fill="#ff0000" stroke="#ff0000" stroke-width=".4483" points="1963.1913,-180.951 1958.3492,-171.5274 1956.2578,-181.9138 1963.1913,-180.951"/>
</g>
<!-- H_agent&#45;&gt;cw -->
<g id="edge64" class="edge">
<title>H_agent&#45;&gt;cw</title>
<path fill="none" stroke="#ff0000" stroke-width=".1121" stroke-dasharray="1,5" d="M2007.7703,-500.9636C2014.5648,-474.7105 2034.1671,-398.9701 2044.9857,-357.1684"/>
<polygon fill="#ff0000" stroke="#ff0000" stroke-width=".1121" points="2048.4166,-357.8808 2047.5338,-347.3228 2041.6399,-356.1269 2048.4166,-357.8808"/>
</g>
<!-- 4795 -->
<g id="node41" class="node">
<title>4795</title>
<ellipse fill="#ffffff" stroke="#000000" cx="2096.375" cy="-424.7214" rx="25" ry="25"/>
<text text-anchor="middle" x="2096.375" y="-422.5214" font-family="Times,serif" font-size="9.00" fill="#000000">4795</text>
</g>
<!-- H_agent&#45;&gt;4795 -->
<g id="edge124" class="edge">
<title>H_agent&#45;&gt;4795</title>
<path fill="none" stroke="#00ff00" stroke-width=".3106" d="M2015.1136,-501.0691C2028.2727,-488.7057 2052.2126,-466.2134 2070.7122,-448.8324"/>
<polygon fill="#00ff00" stroke="#00ff00" stroke-width=".3106" points="2073.3688,-451.1389 2078.2603,-441.7408 2068.5757,-446.0373 2073.3688,-451.1389"/>
</g>
<!-- H_lm -->
<g id="node23" class="node">
<title>H_lm</title>
<polygon fill="#d3d3d3" stroke="#000000" points="1502.875,-433.7214 1465.875,-433.7214 1465.875,-415.7214 1502.875,-415.7214 1502.875,-433.7214"/>
<text text-anchor="middle" x="1484.375" y="-422.5214" font-family="Times,serif" font-size="9.00" fill="#000000">H_lm</text>
</g>
<!-- H_lm&#45;&gt;backward -->
<g id="edge24" class="edge">
<title>H_lm&#45;&gt;backward</title>
<path fill="none" stroke="#00ff00" stroke-width=".2811" d="M1493.4153,-415.5259C1498.6501,-410.522 1505.5398,-404.4566 1512.375,-399.9727 1543.9625,-379.2509 1561.9275,-389.9302 1589.375,-363.9727 1615.2965,-339.4581 1605.8941,-321.7481 1627.375,-293.262 1641.1891,-274.9428 1648.3381,-273.6705 1664.375,-257.262 1685.3662,-235.7842 1684.853,-223.5935 1710.375,-207.7645 1772.4732,-169.2505 1856.2567,-150.3803 1907.4631,-141.8749"/>
<polygon fill="#00ff00" stroke="#00ff00" stroke-width=".2811" points="1908.242,-145.295 1917.5648,-140.2616 1907.138,-138.3826 1908.242,-145.295"/>
</g>
<!-- H_lm&#45;&gt;no_turn -->
<g id="edge62" class="edge">
<title>H_lm&#45;&gt;no_turn</title>
<path fill="none" stroke="#00ff00" stroke-width=".1618" d="M1475.8054,-415.3969C1470.6156,-410.2263 1463.6156,-404.0391 1456.375,-399.9727 1394.6622,-365.3136 1314.0224,-345.3544 1266.1662,-335.7674"/>
<polygon fill="#00ff00" stroke="#00ff00" stroke-width=".1618" points="1266.6665,-332.2992 1256.1818,-333.8229 1265.3283,-339.1701 1266.6665,-332.2992"/>
</g>
<!-- H_lm&#45;&gt;ccw -->
<g id="edge25" class="edge">
<title>H_lm&#45;&gt;ccw</title>
<path fill="none" stroke="#00ff00" stroke-width=".1044" d="M1477.0742,-415.695C1471.9408,-410.0712 1464.5494,-403.294 1456.375,-399.9727 1301.9949,-337.2467 857.4598,-436.3764 707.375,-363.9727 702.8348,-361.7824 698.6812,-358.5917 694.9919,-355.0106"/>
<polygon fill="#00ff00" stroke="#00ff00" stroke-width=".1044" points="697.3736,-352.4236 688.096,-347.3071 692.158,-357.0924 697.3736,-352.4236"/>
</g>
<!-- H_lm&#45;&gt;cw -->
<g id="edge68" class="edge">
<title>H_lm&#45;&gt;cw</title>
<path fill="none" stroke="#ff0000" stroke-width=".601" d="M1492.2339,-415.4266C1497.3813,-409.993 1504.5822,-403.5241 1512.375,-399.9727 1524.1769,-394.5942 1912.5312,-346.0055 2023.2062,-332.238"/>
<polygon fill="#ff0000" stroke="#ff0000" stroke-width=".601" points="2023.8229,-335.6884 2033.3147,-330.9814 2022.9592,-328.7419 2023.8229,-335.6884"/>
</g>
<!-- H_wall -->
<g id="node24" class="node">
<title>H_wall</title>
<polygon fill="#d3d3d3" stroke="#000000" points="952.875,-241.5132 909.875,-241.5132 909.875,-223.5132 952.875,-223.5132 952.875,-241.5132"/>
<text text-anchor="middle" x="931.375" y="-230.3132" font-family="Times,serif" font-size="9.00" fill="#000000">H_wall</text>
</g>
<!-- H_wall&#45;&gt;right -->
<g id="edge21" class="edge">
<title>H_wall&#45;&gt;right</title>
<path fill="none" stroke="#ff0000" stroke-width=".8518" stroke-dasharray="1,5" d="M943.279,-223.3382C950.0974,-218.3407 958.95,-212.2749 967.375,-207.7645 1017.0153,-181.189 1078.6349,-158.5762 1115.3852,-146.0938"/>
<polygon fill="#ff0000" stroke="#ff0000" stroke-width=".8518" points="1116.6937,-149.3466 1125.0606,-142.8469 1114.4667,-142.7103 1116.6937,-149.3466"/>
</g>
<!-- hunger_change -->
<g id="node25" class="node">
<title>hunger_change</title>
<polygon fill="#d3d3d3" stroke="#000000" points="1870.875,-433.7214 1799.875,-433.7214 1799.875,-415.7214 1870.875,-415.7214 1870.875,-433.7214"/>
<text text-anchor="middle" x="1835.375" y="-422.5214" font-family="Times,serif" font-size="9.00" fill="#000000">hunger_change</text>
</g>
<!-- hunger_change&#45;&gt;no_move -->
<g id="edge20" class="edge">
<title>hunger_change&#45;&gt;no_move</title>
<path fill="none" stroke="#ff0000" stroke-width=".1346" d="M1823.773,-415.5065C1807.0134,-402.1952 1775.3008,-377.0076 1750.3174,-357.1646"/>
<polygon fill="#ff0000" stroke="#ff0000" stroke-width=".1346" points="1752.4773,-354.4104 1742.4699,-350.9317 1748.1237,-359.8919 1752.4773,-354.4104"/>
</g>
<!-- hunger_change&#45;&gt;forward -->
<g id="edge71" class="edge">
<title>hunger_change&#45;&gt;forward</title>
<path fill="none" stroke="#00ff00" stroke-width="2.3829" d="M1832.1191,-415.5798C1823.4608,-392.3909 1797.8029,-330.4836 1758.375,-293.262 1620.8307,-163.4142 1560.5127,-154.1189 1379.375,-99.6396 1273.7352,-67.8672 937.3761,-42.6907 818.4932,-34.5821"/>
<polygon fill="#00ff00" stroke="#00ff00" stroke-width="2.3829" points="818.5492,-31.0779 808.3357,-33.8948 818.0766,-38.062 818.5492,-31.0779"/>
</g>
<!-- hunger_change&#45;&gt;backward -->
<g id="edge56" class="edge">
<title>hunger_change&#45;&gt;backward</title>
<path fill="none" stroke="#00ff00" stroke-width=".4128" stroke-dasharray="1,5" d="M1839.1674,-415.4325C1853.8799,-379.3969 1907.7586,-247.4311 1935.9368,-178.4137"/>
<polygon fill="#00ff00" stroke="#00ff00" stroke-width=".4128" points="1939.1959,-179.6904 1939.7355,-169.1093 1932.7153,-177.0445 1939.1959,-179.6904"/>
</g>
<!-- ccw&#45;&gt;3702 -->
<g id="edge114" class="edge">
<title>ccw&#45;&gt;3702</title>
<path fill="none" stroke="#ff0000" stroke-width=".2577" d="M688.9224,-310.5061C694.0198,-304.2813 700.365,-297.7557 707.375,-293.262 754.6101,-262.9817 777.3127,-280.5148 828.375,-257.262 831.6112,-255.7883 834.8964,-254.0825 838.1166,-252.2694"/>
<polygon fill="#ff0000" stroke="#ff0000" stroke-width=".2577" points="840.1547,-255.1281 846.9249,-246.9784 836.5502,-249.1274 840.1547,-255.1281"/>
</g>
<!-- cw&#45;&gt;424 -->
<g id="edge96" class="edge">
<title>cw&#45;&gt;424</title>
<path fill="none" stroke="#ff0000" stroke-width=".3059" stroke-dasharray="1,5" d="M2066.6967,-315.2545C2083.6787,-299.4094 2112.2091,-272.7891 2132.3147,-254.0296"/>
<polygon fill="#ff0000" stroke="#ff0000" stroke-width=".3059" points="2134.9055,-256.3992 2139.8293,-247.0181 2130.13,-251.2811 2134.9055,-256.3992"/>
</g>
<!-- 3201&#45;&gt;left -->
<g id="edge100" class="edge">
<title>3201&#45;&gt;left</title>
<path fill="none" stroke="#00ff00" stroke-width=".3172" stroke-dasharray="1,5" d="M664.4705,-407.6323C676.8672,-395.7026 693.5099,-379.2427 707.375,-363.9727 710.7337,-360.2735 714.1938,-356.2563 717.5024,-352.301"/>
<polygon fill="#00ff00" stroke="#00ff00" stroke-width=".3172" points="720.3571,-354.3398 723.9999,-344.3908 714.948,-349.8966 720.3571,-354.3398"/>
</g>
<!-- 4621&#45;&gt;cw -->
<g id="edge116" class="edge">
<title>4621&#45;&gt;cw</title>
<path fill="none" stroke="#ff0000" stroke-width=".1765" d="M1970.253,-407.5399C1987.3594,-391.0999 2013.1651,-366.2996 2031.2721,-348.898"/>
<polygon fill="#ff0000" stroke="#ff0000" stroke-width=".1765" points="2033.7282,-351.392 2038.5131,-341.9391 2028.8777,-346.3448 2033.7282,-351.392"/>
</g>
<!-- 3225&#45;&gt;cw -->
<g id="edge102" class="edge">
<title>3225&#45;&gt;cw</title>
<path fill="none" stroke="#00ff00" stroke-width=".3931" stroke-dasharray="1,5" d="M2324.148,-409.7217C2318.336,-406.025 2311.8199,-402.4268 2305.375,-399.9727 2212.7823,-364.7151 2172.7473,-410.6906 2085.375,-363.9727 2079.8726,-361.0305 2074.784,-356.8173 2070.3326,-352.3189"/>
<polygon fill="#00ff00" stroke="#00ff00" stroke-width=".3931" points="2072.7554,-349.7774 2063.4822,-344.6531 2067.5358,-354.4418 2072.7554,-349.7774"/>
</g>
<!-- 2977&#45;&gt;forward -->
<g id="edge95" class="edge">
<title>2977&#45;&gt;forward</title>
<path fill="none" stroke="#ff0000" stroke-width=".1146" stroke-dasharray="1,5" d="M269.4557,-123.9256C285.4053,-115.9076 307.691,-105.6895 328.375,-99.6396 473.791,-57.1065 653.9826,-40.1848 734.312,-34.4121"/>
<polygon fill="#ff0000" stroke="#ff0000" stroke-width=".1146" points="734.7835,-37.8878 744.5158,-33.7007 734.2965,-30.9048 734.7835,-37.8878"/>
</g>
<!-- 2471&#45;&gt;cw -->
<g id="edge91" class="edge">
<title>2471&#45;&gt;cw</title>
<path fill="none" stroke="#ff0000" stroke-width=".5064" stroke-dasharray="1,5" d="M2366.7056,-489.7302C2381.792,-465.4119 2400.5257,-425.0116 2378.375,-399.9727 2334.9086,-350.8388 2143.8313,-393.7436 2085.375,-363.9727 2079.7191,-361.0922 2074.526,-356.83 2070.0155,-352.2534"/>
<polygon fill="#ff0000" stroke="#ff0000" stroke-width=".5064" points="2072.3546,-349.615 2063.1081,-344.4426 2067.1109,-354.2522 2072.3546,-349.615"/>
</g>
<!-- 2471&#45;&gt;3225 -->
<g id="edge101" class="edge">
<title>2471&#45;&gt;3225</title>
<path fill="none" stroke="#00ff00" stroke-width=".3992" stroke-dasharray="1,5" d="M2350.061,-485.4895C2349.2982,-477.3366 2348.4352,-468.1135 2347.6162,-459.3611"/>
<polygon fill="#00ff00" stroke="#00ff00" stroke-width=".3992" points="2351.1002,-459.0256 2346.6837,-449.3952 2344.1306,-459.6778 2351.1002,-459.0256"/>
</g>
<!-- 424&#45;&gt;backward -->
<g id="edge89" class="edge">
<title>424&#45;&gt;backward</title>
<path fill="none" stroke="#ff0000" stroke-width=".1659" stroke-dasharray="1,5" d="M2136.0064,-223.2306C2103.7152,-207.7546 2038.1733,-176.3428 1995.0262,-155.664"/>
<polygon fill="#ff0000" stroke="#ff0000" stroke-width=".1659" points="1996.4426,-152.4616 1985.9121,-151.2959 1993.4173,-158.7741 1996.4426,-152.4616"/>
</g>
<!-- 3130&#45;&gt;backward -->
<g id="edge98" class="edge">
<title>3130&#45;&gt;backward</title>
<path fill="none" stroke="#00ff00" stroke-width=".3126" stroke-dasharray="1,5" d="M2553.7335,-218.4132C2546.8895,-214.3553 2539.0526,-210.3356 2531.375,-207.7645 2432.7092,-174.7233 2119.1695,-148.2368 1999.9719,-139.118"/>
<polygon fill="#00ff00" stroke="#00ff00" stroke-width=".3126" points="1999.9579,-135.6069 1989.7217,-138.3401 1999.4281,-142.5869 1999.9579,-135.6069"/>
</g>
<!-- 4795&#45;&gt;cw -->
<g id="edge125" class="edge">
<title>4795&#45;&gt;cw</title>
<path fill="none" stroke="#00ff00" stroke-width=".1578" d="M2085.9476,-401.9461C2079.588,-388.0556 2071.4248,-370.2257 2064.7404,-355.6257"/>
<polygon fill="#00ff00" stroke="#00ff00" stroke-width=".1578" points="2067.7345,-353.7574 2060.3893,-346.1221 2061.3698,-356.6714 2067.7345,-353.7574"/>
</g>
<!-- 4668&#45;&gt;forward -->
<g id="edge118" class="edge">
<title>4668&#45;&gt;forward</title>
<path fill="none" stroke="#ff0000" stroke-width=".2987" d="M734.7448,-113.4167C741.2938,-100.5804 749.6969,-84.11 757.2364,-69.3322"/>
<polygon fill="#ff0000" stroke="#ff0000" stroke-width=".2987" points="760.368,-70.8955 761.795,-60.3972 754.1326,-67.7142 760.368,-70.8955"/>
</g>
<!-- 3391&#45;&gt;ccw -->
<g id="edge104" class="edge">
<title>3391&#45;&gt;ccw</title>
<path fill="none" stroke="#00ff00" stroke-width=".2704" stroke-dasharray="1,5" d="M376.4406,-408.4325C380.8131,-405.2772 385.5894,-402.249 390.375,-399.9727 477.0247,-358.7565 590.1685,-339.6376 644.5141,-332.357"/>
<polygon fill="#00ff00" stroke="#00ff00" stroke-width=".2704" points="645.1057,-335.8097 654.574,-331.0557 644.2076,-328.8676 645.1057,-335.8097"/>
</g>
<!-- 4551&#45;&gt;left -->
<g id="edge113" class="edge">
<title>4551&#45;&gt;left</title>
<path fill="none" stroke="#00ff00" stroke-width=".3725" d="M560.7969,-410.1937C566.6097,-406.4989 573.0774,-402.7836 579.375,-399.9727 633.3394,-375.8856 657.911,-396.3093 707.375,-363.9727 711.636,-361.1871 715.5819,-357.5786 719.1033,-353.7344"/>
<polygon fill="#00ff00" stroke="#00ff00" stroke-width=".3725" points="722.059,-355.65 725.6999,-345.7003 716.649,-351.2079 722.059,-355.65"/>
</g>
<!-- 4696&#45;&gt;3201 -->
<g id="edge120" class="edge">
<title>4696&#45;&gt;3201</title>
<path fill="none" stroke="#00ff00" stroke-width=".3844" d="M606.4761,-489.0847C612.9101,-478.7056 620.774,-466.0198 627.8143,-454.6627"/>
<polygon fill="#00ff00" stroke="#00ff00" stroke-width=".3844" points="630.9468,-456.2523 633.2409,-445.9088 624.9972,-452.5641 630.9468,-456.2523"/>
</g>
<!-- 2777 -->
<g id="node46" class="node">
<title>2777</title>
<ellipse fill="#ffffff" stroke="#000000" cx="1279.375" cy="-510.2189" rx="25" ry="25"/>
<text text-anchor="middle" x="1279.375" y="-508.0189" font-family="Times,serif" font-size="9.00" fill="#000000">2777</text>
</g>
<!-- 2777&#45;&gt;no_turn -->
<g id="edge92" class="edge">
<title>2777&#45;&gt;no_turn</title>
<path fill="none" stroke="#00ff00" stroke-width=".6649" d="M1286.7713,-486.1704C1292.5244,-463.2657 1297.9231,-428.1946 1287.375,-399.9727 1281.0943,-383.1686 1268.8729,-367.705 1256.9293,-355.501"/>
<polygon fill="#00ff00" stroke="#00ff00" stroke-width=".6649" points="1259.1879,-352.8149 1249.5842,-348.3407 1254.3016,-357.8273 1259.1879,-352.8149"/>
</g>
<!-- 4732 -->
<g id="node49" class="node">
<title>4732</title>
<ellipse fill="#ffffff" stroke="#000000" cx="1253.375" cy="-424.7214" rx="25" ry="25"/>
<text text-anchor="middle" x="1253.375" y="-422.5214" font-family="Times,serif" font-size="9.00" fill="#000000">4732</text>
</g>
<!-- 2777&#45;&gt;4732 -->
<g id="edge121" class="edge">
<title>2777&#45;&gt;4732</title>
<path fill="none" stroke="#00ff00" stroke-width=".3391" d="M1272.1325,-486.4031C1269.4842,-477.6945 1266.4365,-467.6723 1263.5781,-458.2729"/>
<polygon fill="#00ff00" stroke="#00ff00" stroke-width=".3391" points="1266.8367,-456.9585 1260.5786,-448.4095 1260.1395,-458.9952 1266.8367,-456.9585"/>
</g>
<!-- 3702&#45;&gt;right -->
<g id="edge109" class="edge">
<title>3702&#45;&gt;right</title>
<path fill="none" stroke="#ff0000" stroke-width=".7452" d="M886.5099,-216.3665C890.8781,-213.2024 895.6351,-210.1346 900.375,-207.7645 972.3997,-171.7497 1065.4693,-150.7229 1114.2289,-141.4344"/>
<polygon fill="#ff0000" stroke="#ff0000" stroke-width=".7452" points="1115.0282,-144.8459 1124.2206,-139.5781 1113.7495,-137.9636 1115.0282,-144.8459"/>
</g>
<!-- 3702&#45;&gt;4668 -->
<g id="edge123" class="edge">
<title>3702&#45;&gt;4668</title>
<path fill="none" stroke="#00ff00" stroke-width=".1757" d="M846.7433,-218.6426C822.0422,-202.036 780.5102,-174.1141 752.536,-155.307"/>
<polygon fill="#00ff00" stroke="#00ff00" stroke-width=".1757" points="754.22,-152.2218 743.9684,-149.547 750.3145,-158.031 754.22,-152.2218"/>
</g>
<!-- 4732&#45;&gt;no_turn -->
<g id="edge122" class="edge">
<title>4732&#45;&gt;no_turn</title>
<path fill="none" stroke="#00ff00" stroke-width=".1436" stroke-dasharray="1,5" d="M1246.3094,-400.4703C1243.4813,-390.7636 1240.1483,-379.3235 1236.9832,-368.4602"/>
<polygon fill="#00ff00" stroke="#00ff00" stroke-width=".1436" points="1240.3007,-367.334 1234.1431,-358.7122 1233.5801,-369.2921 1240.3007,-367.334"/>
</g>
</g>
</svg>
