<?xml version="1.0" encoding="UTF-8" standalone="no"?>
<!DOCTYPE svg PUBLIC "-//W3C//DTD SVG 1.1//EN"
 "http://www.w3.org/Graphics/SVG/1.1/DTD/svg11.dtd">
<!-- Generated by graphviz version 2.43.0 (0)
 -->
<!-- Title: %3 Pages: 1 -->
<svg width="1487pt" height="235pt"
 viewBox="0.00 0.00 1487.25 235.18" xmlns="http://www.w3.org/2000/svg" xmlns:xlink="http://www.w3.org/1999/xlink">
<g id="graph0" class="graph" transform="scale(1 1) rotate(0) translate(4 231.18)">
<title>%3</title>
<polygon fill="white" stroke="transparent" points="-4,4 -4,-231.18 1483.25,-231.18 1483.25,4 -4,4"/>
<!-- x&#45;vel -->
<g id="node1" class="node">
<title>x&#45;vel</title>
<polygon fill="lightgray" stroke="black" points="280.75,-227.18 242.75,-227.18 242.75,-209.18 280.75,-209.18 280.75,-227.18"/>
<text text-anchor="middle" x="261.75" y="-215.98" font-family="Times,serif" font-size="9.00">x&#45;vel</text>
</g>
<!-- none -->
<g id="node13" class="node">
<title>none</title>
<ellipse fill="lightblue" stroke="black" cx="543.75" cy="-43.84" rx="27.65" ry="27.65"/>
<text text-anchor="middle" x="543.75" y="-41.64" font-family="Times,serif" font-size="9.00">none</text>
</g>
<!-- x&#45;vel&#45;&gt;none -->
<g id="edge16" class="edge">
<title>x&#45;vel&#45;&gt;none</title>
<path fill="none" stroke="red" stroke-width="0.78" d="M274.48,-208.92C286.75,-200.65 305.5,-187.17 319.75,-173.18 339.73,-153.56 336.51,-140.7 358.75,-123.68 404.41,-88.74 467.87,-66.13 507.34,-54.45"/>
<polygon fill="red" stroke="red" stroke-width="0.78" points="508.44,-57.77 517.08,-51.64 506.5,-51.05 508.44,-57.77"/>
</g>
<!-- right -->
<g id="node14" class="node">
<title>right</title>
<ellipse fill="lightblue" stroke="black" cx="1236.75" cy="-43.84" rx="28.07" ry="28.07"/>
<text text-anchor="middle" x="1236.75" y="-41.64" font-family="Times,serif" font-size="9.00">right</text>
</g>
<!-- x&#45;vel&#45;&gt;right -->
<g id="edge22" class="edge">
<title>x&#45;vel&#45;&gt;right</title>
<path fill="none" stroke="green" stroke-width="0.18" stroke-dasharray="1,5" d="M280.9,-216.25C312.08,-214.75 375.79,-211.7 429.75,-209.18 473.52,-207.14 1185.23,-202.56 1217.75,-173.18 1242.53,-150.79 1244.98,-111.27 1242.65,-81.99"/>
<polygon fill="green" stroke="green" stroke-width="0.18" points="1246.1,-81.31 1241.61,-71.71 1239.14,-82.01 1246.1,-81.31"/>
</g>
<!-- backward -->
<g id="node17" class="node">
<title>backward</title>
<ellipse fill="lightblue" stroke="black" cx="183.75" cy="-43.84" rx="43.68" ry="43.68"/>
<text text-anchor="middle" x="183.75" y="-41.64" font-family="Times,serif" font-size="9.00">backward</text>
</g>
<!-- x&#45;vel&#45;&gt;backward -->
<g id="edge13" class="edge">
<title>x&#45;vel&#45;&gt;backward</title>
<path fill="none" stroke="green" stroke-width="0.35" d="M246.9,-209.12C234.41,-201.53 217.14,-188.98 207.75,-173.18 194.38,-150.67 188.19,-122.35 185.42,-98.04"/>
<polygon fill="green" stroke="green" stroke-width="0.35" points="188.88,-97.51 184.43,-87.9 181.92,-98.19 188.88,-97.51"/>
</g>
<!-- 534 -->
<g id="node23" class="node">
<title>534</title>
<ellipse fill="white" stroke="black" cx="130.75" cy="-148.43" rx="25" ry="25"/>
<text text-anchor="middle" x="130.75" y="-146.23" font-family="Times,serif" font-size="9.00">534</text>
</g>
<!-- x&#45;vel&#45;&gt;534 -->
<g id="edge41" class="edge">
<title>x&#45;vel&#45;&gt;534</title>
<path fill="none" stroke="green" stroke-width="0.73" d="M243.5,-209.11C224.74,-200.66 194.81,-186.76 169.75,-173.18 166.66,-171.5 163.47,-169.7 160.31,-167.85"/>
<polygon fill="green" stroke="green" stroke-width="0.73" points="161.95,-164.76 151.57,-162.64 158.37,-170.77 161.95,-164.76"/>
</g>
<!-- y&#45;vel -->
<g id="node2" class="node">
<title>y&#45;vel</title>
<polygon fill="lightgray" stroke="black" points="1081.75,-157.43 1043.75,-157.43 1043.75,-139.43 1081.75,-139.43 1081.75,-157.43"/>
<text text-anchor="middle" x="1062.75" y="-146.23" font-family="Times,serif" font-size="9.00">y&#45;vel</text>
</g>
<!-- y&#45;vel&#45;&gt;none -->
<g id="edge6" class="edge">
<title>y&#45;vel&#45;&gt;none</title>
<path fill="none" stroke="red" stroke-width="0.26" d="M1044.05,-139.32C1031.03,-134.02 1013.13,-127.41 996.75,-123.68 843.84,-88.88 797.7,-126.47 645.75,-87.68 622.08,-81.64 596.75,-71.03 577.26,-61.88"/>
<polygon fill="red" stroke="red" stroke-width="0.26" points="578.72,-58.69 568.19,-57.53 575.69,-65.01 578.72,-58.69"/>
</g>
<!-- y&#45;vel&#45;&gt;right -->
<g id="edge27" class="edge">
<title>y&#45;vel&#45;&gt;right</title>
<path fill="none" stroke="red" stroke-width="0.59" stroke-dasharray="1,5" d="M1071.7,-139.01C1077.01,-134.22 1084.01,-128.28 1090.75,-123.68 1126.92,-98.98 1171.62,-75.81 1201.97,-61.06"/>
<polygon fill="red" stroke="red" stroke-width="0.59" points="1203.79,-64.07 1211.29,-56.58 1200.76,-57.76 1203.79,-64.07"/>
</g>
<!-- forward -->
<g id="node16" class="node">
<title>forward</title>
<ellipse fill="lightblue" stroke="black" cx="1015.75" cy="-43.84" rx="37.45" ry="37.45"/>
<text text-anchor="middle" x="1015.75" y="-41.64" font-family="Times,serif" font-size="9.00">forward</text>
</g>
<!-- y&#45;vel&#45;&gt;forward -->
<g id="edge46" class="edge">
<title>y&#45;vel&#45;&gt;forward</title>
<path fill="none" stroke="red" stroke-width="0.18" d="M1059.06,-139.38C1053.93,-128.18 1044.26,-107.06 1035.35,-87.63"/>
<polygon fill="red" stroke="red" stroke-width="0.18" points="1038.41,-85.91 1031.07,-78.27 1032.05,-88.82 1038.41,-85.91"/>
</g>
<!-- x&#45;pos -->
<g id="node3" class="node">
<title>x&#45;pos</title>
<polygon fill="lightgray" stroke="black" points="1208.25,-157.43 1167.25,-157.43 1167.25,-139.43 1208.25,-139.43 1208.25,-157.43"/>
<text text-anchor="middle" x="1187.75" y="-146.23" font-family="Times,serif" font-size="9.00">x&#45;pos</text>
</g>
<!-- x&#45;pos&#45;&gt;right -->
<g id="edge2" class="edge">
<title>x&#45;pos&#45;&gt;right</title>
<path fill="none" stroke="green" stroke-width="0.55" stroke-dasharray="1,5" d="M1191.59,-139.38C1197.76,-126.46 1210.23,-100.36 1220.5,-78.86"/>
<polygon fill="green" stroke="green" stroke-width="0.55" points="1223.74,-80.2 1224.89,-69.67 1217.42,-77.18 1223.74,-80.2"/>
</g>
<!-- x&#45;pos&#45;&gt;forward -->
<g id="edge19" class="edge">
<title>x&#45;pos&#45;&gt;forward</title>
<path fill="none" stroke="red" stroke-width="0.27" stroke-dasharray="1,5" d="M1178.68,-139.28C1173.12,-134.47 1165.75,-128.42 1158.75,-123.68 1126.34,-101.74 1087.29,-80.54 1058.2,-65.65"/>
<polygon fill="red" stroke="red" stroke-width="0.27" points="1059.63,-62.45 1049.12,-61.05 1056.46,-68.7 1059.63,-62.45"/>
</g>
<!-- y&#45;pos -->
<g id="node4" class="node">
<title>y&#45;pos</title>
<polygon fill="lightgray" stroke="black" points="1479.25,-227.18 1438.25,-227.18 1438.25,-209.18 1479.25,-209.18 1479.25,-227.18"/>
<text text-anchor="middle" x="1458.75" y="-215.98" font-family="Times,serif" font-size="9.00">y&#45;pos</text>
</g>
<!-- y&#45;pos&#45;&gt;right -->
<g id="edge8" class="edge">
<title>y&#45;pos&#45;&gt;right</title>
<path fill="none" stroke="red" stroke-width="0.76" stroke-dasharray="1,5" d="M1462.68,-209C1470.46,-191.51 1485.5,-149.93 1466.75,-123.68 1422.93,-62.34 1328.31,-48.21 1275.1,-45.28"/>
<polygon fill="red" stroke="red" stroke-width="0.76" points="1275.18,-41.78 1265.03,-44.83 1274.87,-48.77 1275.18,-41.78"/>
</g>
<!-- 245 -->
<g id="node22" class="node">
<title>245</title>
<ellipse fill="white" stroke="black" cx="1432.75" cy="-148.43" rx="25" ry="25"/>
<text text-anchor="middle" x="1432.75" y="-146.23" font-family="Times,serif" font-size="9.00">245</text>
</g>
<!-- y&#45;pos&#45;&gt;245 -->
<g id="edge37" class="edge">
<title>y&#45;pos&#45;&gt;245</title>
<path fill="none" stroke="red" stroke-width="0.18" d="M1455.66,-209.14C1452.97,-202.11 1448.86,-191.42 1444.87,-181.02"/>
<polygon fill="red" stroke="red" stroke-width="0.18" points="1448.13,-179.75 1441.28,-171.67 1441.6,-182.26 1448.13,-179.75"/>
</g>
<!-- x&#45;lm1&#45;vec -->
<g id="node5" class="node">
<title>x&#45;lm1&#45;vec</title>
<polygon fill="lightgray" stroke="black" points="881.25,-157.43 820.25,-157.43 820.25,-139.43 881.25,-139.43 881.25,-157.43"/>
<text text-anchor="middle" x="850.75" y="-146.23" font-family="Times,serif" font-size="9.00">x&#45;lm1&#45;vec</text>
</g>
<!-- x&#45;lm1&#45;vec&#45;&gt;none -->
<g id="edge5" class="edge">
<title>x&#45;lm1&#45;vec&#45;&gt;none</title>
<path fill="none" stroke="green" stroke-width="0.21" stroke-dasharray="1,5" d="M839.36,-139.32C831.62,-134.16 820.97,-127.71 810.75,-123.68 740.91,-96.17 717.32,-110.31 645.75,-87.68 622.46,-80.32 597.13,-69.7 577.54,-60.87"/>
<polygon fill="green" stroke="green" stroke-width="0.21" points="578.97,-57.68 568.42,-56.71 576.06,-64.04 578.97,-57.68"/>
</g>
<!-- x&#45;lm1&#45;vec&#45;&gt;right -->
<g id="edge1" class="edge">
<title>x&#45;lm1&#45;vec&#45;&gt;right</title>
<path fill="none" stroke="green" stroke-width="1.84" d="M876.31,-139.33C891.5,-134.6 911.16,-128.61 928.75,-123.68 1026.02,-96.44 1141.62,-67.85 1199.64,-53.77"/>
<polygon fill="green" stroke="green" stroke-width="1.84" points="1200.55,-57.15 1209.45,-51.39 1198.9,-50.35 1200.55,-57.15"/>
</g>
<!-- left -->
<g id="node15" class="node">
<title>left</title>
<ellipse fill="lightblue" stroke="black" cx="677.75" cy="-43.84" rx="22.76" ry="22.76"/>
<text text-anchor="middle" x="677.75" y="-41.64" font-family="Times,serif" font-size="9.00">left</text>
</g>
<!-- x&#45;lm1&#45;vec&#45;&gt;left -->
<g id="edge24" class="edge">
<title>x&#45;lm1&#45;vec&#45;&gt;left</title>
<path fill="none" stroke="red" stroke-width="2.2" d="M837.05,-139.29C829.33,-134.71 819.5,-128.87 810.75,-123.68 774.61,-102.24 732.94,-77.54 706.01,-61.59"/>
<polygon fill="red" stroke="red" stroke-width="2.2" points="707.52,-58.41 697.13,-56.33 703.95,-64.44 707.52,-58.41"/>
</g>
<!-- y&#45;lm1&#45;vec -->
<g id="node6" class="node">
<title>y&#45;lm1&#45;vec</title>
<polygon fill="lightgray" stroke="black" points="679.25,-157.43 618.25,-157.43 618.25,-139.43 679.25,-139.43 679.25,-157.43"/>
<text text-anchor="middle" x="648.75" y="-146.23" font-family="Times,serif" font-size="9.00">y&#45;lm1&#45;vec</text>
</g>
<!-- y&#45;lm1&#45;vec&#45;&gt;none -->
<g id="edge14" class="edge">
<title>y&#45;lm1&#45;vec&#45;&gt;none</title>
<path fill="none" stroke="red" stroke-width="0.88" d="M640.51,-139.38C625.59,-124.8 593.5,-93.45 570.36,-70.84"/>
<polygon fill="red" stroke="red" stroke-width="0.88" points="572.8,-68.33 563.2,-63.84 567.91,-73.34 572.8,-68.33"/>
</g>
<!-- y&#45;lm1&#45;vec&#45;&gt;right -->
<g id="edge17" class="edge">
<title>y&#45;lm1&#45;vec&#45;&gt;right</title>
<path fill="none" stroke="green" stroke-width="0.13" d="M671.32,-139.32C686.74,-134.09 707.75,-127.56 726.75,-123.68 873.47,-93.74 914.25,-113.54 1061.75,-87.68 1109.98,-79.22 1164.66,-65.09 1199.87,-55.39"/>
<polygon fill="green" stroke="green" stroke-width="0.13" points="1201.01,-58.7 1209.71,-52.65 1199.13,-51.96 1201.01,-58.7"/>
</g>
<!-- y&#45;lm1&#45;vec&#45;&gt;left -->
<g id="edge9" class="edge">
<title>y&#45;lm1&#45;vec&#45;&gt;left</title>
<path fill="none" stroke="green" stroke-width="0.18" d="M651.02,-139.38C654.87,-125.78 662.84,-97.58 669.08,-75.5"/>
<polygon fill="green" stroke="green" stroke-width="0.18" points="672.45,-76.44 671.81,-65.86 665.72,-74.53 672.45,-76.44"/>
</g>
<!-- y&#45;lm1&#45;vec&#45;&gt;forward -->
<g id="edge20" class="edge">
<title>y&#45;lm1&#45;vec&#45;&gt;forward</title>
<path fill="none" stroke="green" stroke-width="1.39" d="M674.69,-139.32C689.84,-134.64 709.34,-128.7 726.75,-123.68 812.3,-98.99 912.69,-72.06 969.8,-56.93"/>
<polygon fill="green" stroke="green" stroke-width="1.39" points="970.84,-60.28 979.61,-54.34 969.05,-53.51 970.84,-60.28"/>
</g>
<!-- y&#45;lm1&#45;vec&#45;&gt;backward -->
<g id="edge28" class="edge">
<title>y&#45;lm1&#45;vec&#45;&gt;backward</title>
<path fill="none" stroke="red" stroke-width="1.94" d="M618.24,-140.7C540.47,-123.54 334.1,-78.01 236.42,-56.46"/>
<polygon fill="red" stroke="red" stroke-width="1.94" points="236.99,-53 226.47,-54.27 235.48,-59.84 236.99,-53"/>
</g>
<!-- x&#45;lm2&#45;vec -->
<g id="node7" class="node">
<title>x&#45;lm2&#45;vec</title>
<polygon fill="lightgray" stroke="black" points="108.25,-227.18 47.25,-227.18 47.25,-209.18 108.25,-209.18 108.25,-227.18"/>
<text text-anchor="middle" x="77.75" y="-215.98" font-family="Times,serif" font-size="9.00">x&#45;lm2&#45;vec</text>
</g>
<!-- x&#45;lm2&#45;vec&#45;&gt;left -->
<g id="edge21" class="edge">
<title>x&#45;lm2&#45;vec&#45;&gt;left</title>
<path fill="none" stroke="red" stroke-width="0.33" stroke-dasharray="1,5" d="M108.33,-215.32C204.07,-209.35 493.95,-190.06 532.75,-173.18 585.44,-150.25 632.41,-100.72 657.81,-70.34"/>
<polygon fill="red" stroke="red" stroke-width="0.33" points="660.75,-72.27 664.39,-62.32 655.34,-67.83 660.75,-72.27"/>
</g>
<!-- x&#45;lm2&#45;vec&#45;&gt;backward -->
<g id="edge12" class="edge">
<title>x&#45;lm2&#45;vec&#45;&gt;backward</title>
<path fill="none" stroke="green" stroke-width="0.12" stroke-dasharray="1,5" d="M77.74,-209.09C78.06,-192.12 80.61,-152.04 96.75,-123.68 107.31,-105.13 123.79,-88.56 139.59,-75.45"/>
<polygon fill="green" stroke="green" stroke-width="0.12" points="142.12,-77.91 147.74,-68.93 137.75,-72.44 142.12,-77.91"/>
</g>
<!-- 175 -->
<g id="node21" class="node">
<title>175</title>
<ellipse fill="white" stroke="black" cx="24.75" cy="-148.43" rx="25" ry="25"/>
<text text-anchor="middle" x="24.75" y="-146.23" font-family="Times,serif" font-size="9.00">175</text>
</g>
<!-- x&#45;lm2&#45;vec&#45;&gt;175 -->
<g id="edge33" class="edge">
<title>x&#45;lm2&#45;vec&#45;&gt;175</title>
<path fill="none" stroke="green" stroke-width="0.3" d="M71.46,-209.14C65.13,-201.05 55.02,-188.13 45.82,-176.37"/>
<polygon fill="green" stroke="green" stroke-width="0.3" points="48.57,-174.2 39.66,-168.48 43.06,-178.52 48.57,-174.2"/>
</g>
<!-- y&#45;lm2&#45;vec -->
<g id="node8" class="node">
<title>y&#45;lm2&#45;vec</title>
<polygon fill="lightgray" stroke="black" points="311.25,-157.43 250.25,-157.43 250.25,-139.43 311.25,-139.43 311.25,-157.43"/>
<text text-anchor="middle" x="280.75" y="-146.23" font-family="Times,serif" font-size="9.00">y&#45;lm2&#45;vec</text>
</g>
<!-- y&#45;lm2&#45;vec&#45;&gt;none -->
<g id="edge15" class="edge">
<title>y&#45;lm2&#45;vec&#45;&gt;none</title>
<path fill="none" stroke="green" stroke-width="0.49" stroke-dasharray="1,5" d="M295.09,-139.21C303.81,-134.38 315.25,-128.33 325.75,-123.68 388.41,-95.97 464.14,-70.25 507.84,-56.13"/>
<polygon fill="green" stroke="green" stroke-width="0.49" points="509,-59.43 517.45,-53.04 506.86,-52.77 509,-59.43"/>
</g>
<!-- y&#45;lm2&#45;vec&#45;&gt;backward -->
<g id="edge23" class="edge">
<title>y&#45;lm2&#45;vec&#45;&gt;backward</title>
<path fill="none" stroke="red" stroke-width="0.17" stroke-dasharray="1,5" d="M273.14,-139.38C261.84,-127.43 239.89,-104.22 220.57,-83.78"/>
<polygon fill="red" stroke="red" stroke-width="0.17" points="223.01,-81.27 213.59,-76.41 217.92,-86.08 223.01,-81.27"/>
</g>
<!-- x&#45;other&#45;vec -->
<g id="node9" class="node">
<title>x&#45;other&#45;vec</title>
<polygon fill="lightgray" stroke="black" points="1158.75,-227.18 1090.75,-227.18 1090.75,-209.18 1158.75,-209.18 1158.75,-227.18"/>
<text text-anchor="middle" x="1124.75" y="-215.98" font-family="Times,serif" font-size="9.00">x&#45;other&#45;vec</text>
</g>
<!-- x&#45;other&#45;vec&#45;&gt;right -->
<g id="edge4" class="edge">
<title>x&#45;other&#45;vec&#45;&gt;right</title>
<path fill="none" stroke="red" stroke-width="0.12" stroke-dasharray="1,5" d="M1158.9,-212.9C1202.18,-206.69 1273.05,-193.65 1288.75,-173.18 1312.19,-142.62 1285.93,-100.06 1263,-72.48"/>
<polygon fill="red" stroke="red" stroke-width="0.12" points="1265.54,-70.06 1256.35,-64.77 1260.23,-74.63 1265.54,-70.06"/>
</g>
<!-- x&#45;other&#45;vec&#45;&gt;left -->
<g id="edge29" class="edge">
<title>x&#45;other&#45;vec&#45;&gt;left</title>
<path fill="none" stroke="green" stroke-width="0.3" stroke-dasharray="1,5" d="M1090.71,-215.43C999.63,-210.48 755.31,-195.26 726.75,-173.18 696.87,-150.08 685.21,-106.46 680.66,-76.54"/>
<polygon fill="green" stroke="green" stroke-width="0.3" points="684.12,-76.03 679.33,-66.59 677.18,-76.96 684.12,-76.03"/>
</g>
<!-- x&#45;other&#45;vec&#45;&gt;forward -->
<g id="edge3" class="edge">
<title>x&#45;other&#45;vec&#45;&gt;forward</title>
<path fill="none" stroke="red" stroke-width="0.15" stroke-dasharray="1,5" d="M1090.95,-209.11C1071.45,-202.66 1048.2,-191.57 1034.75,-173.18 1017.73,-149.91 1012.98,-117.82 1012.48,-91.55"/>
<polygon fill="red" stroke="red" stroke-width="0.15" points="1015.98,-91.44 1012.49,-81.43 1008.98,-91.43 1015.98,-91.44"/>
</g>
<!-- 552 -->
<g id="node19" class="node">
<title>552</title>
<ellipse fill="white" stroke="black" cx="1365.75" cy="-148.43" rx="25" ry="25"/>
<text text-anchor="middle" x="1365.75" y="-146.23" font-family="Times,serif" font-size="9.00">552</text>
</g>
<!-- x&#45;other&#45;vec&#45;&gt;552 -->
<g id="edge43" class="edge">
<title>x&#45;other&#45;vec&#45;&gt;552</title>
<path fill="none" stroke="red" stroke-width="0.34" d="M1159.01,-213.25C1200.03,-207.74 1270.27,-195.78 1326.75,-173.18 1330.19,-171.8 1333.67,-170.14 1337.07,-168.33"/>
<polygon fill="red" stroke="red" stroke-width="0.34" points="1338.84,-171.35 1345.77,-163.34 1335.36,-165.28 1338.84,-171.35"/>
</g>
<!-- 410 -->
<g id="node25" class="node">
<title>410</title>
<ellipse fill="white" stroke="black" cx="1124.75" cy="-148.43" rx="25" ry="25"/>
<text text-anchor="middle" x="1124.75" y="-146.23" font-family="Times,serif" font-size="9.00">410</text>
</g>
<!-- x&#45;other&#45;vec&#45;&gt;410 -->
<g id="edge39" class="edge">
<title>x&#45;other&#45;vec&#45;&gt;410</title>
<path fill="none" stroke="red" stroke-width="0.34" d="M1124.75,-209.14C1124.75,-202.71 1124.75,-193.21 1124.75,-183.67"/>
<polygon fill="red" stroke="red" stroke-width="0.34" points="1128.25,-183.45 1124.75,-173.45 1121.25,-183.45 1128.25,-183.45"/>
</g>
<!-- y&#45;other&#45;vec -->
<g id="node10" class="node">
<title>y&#45;other&#45;vec</title>
<polygon fill="lightgray" stroke="black" points="943.75,-227.18 875.75,-227.18 875.75,-209.18 943.75,-209.18 943.75,-227.18"/>
<text text-anchor="middle" x="909.75" y="-215.98" font-family="Times,serif" font-size="9.00">y&#45;other&#45;vec</text>
</g>
<!-- y&#45;other&#45;vec&#45;&gt;none -->
<g id="edge30" class="edge">
<title>y&#45;other&#45;vec&#45;&gt;none</title>
<path fill="none" stroke="red" stroke-width="0.11" d="M875.75,-216.04C806.45,-213.11 651.87,-203.3 609.75,-173.18 579.03,-151.21 561.6,-110.62 552.47,-80.96"/>
<polygon fill="red" stroke="red" stroke-width="0.11" points="555.72,-79.6 549.57,-70.97 548.99,-81.54 555.72,-79.6"/>
</g>
<!-- y&#45;other&#45;vec&#45;&gt;right -->
<g id="edge7" class="edge">
<title>y&#45;other&#45;vec&#45;&gt;right</title>
<path fill="none" stroke="red" stroke-width="0.49" stroke-dasharray="1,5" d="M943.75,-215.3C1026.04,-210.41 1230.65,-196.04 1250.75,-173.18 1273.12,-147.73 1264.19,-107.59 1253.12,-78.97"/>
<polygon fill="red" stroke="red" stroke-width="0.49" points="1256.21,-77.29 1249.17,-69.38 1249.74,-79.96 1256.21,-77.29"/>
</g>
<!-- y&#45;other&#45;vec&#45;&gt;forward -->
<g id="edge26" class="edge">
<title>y&#45;other&#45;vec&#45;&gt;forward</title>
<path fill="none" stroke="green" stroke-width="0.2" stroke-dasharray="1,5" d="M909.74,-209.09C910.06,-192.12 912.61,-152.04 928.75,-123.68 940.36,-103.28 959.13,-85.28 976.27,-71.65"/>
<polygon fill="green" stroke="green" stroke-width="0.2" points="978.71,-74.19 984.51,-65.32 974.45,-68.63 978.71,-74.19"/>
</g>
<!-- y&#45;other&#45;vec&#45;&gt;backward -->
<g id="edge11" class="edge">
<title>y&#45;other&#45;vec&#45;&gt;backward</title>
<path fill="none" stroke="red" stroke-width="0.27" stroke-dasharray="1,5" d="M875.58,-216.98C746.48,-215.93 293.07,-209.69 240.75,-173.18 226.98,-163.57 211.52,-127.14 200.18,-95.54"/>
<polygon fill="red" stroke="red" stroke-width="0.27" points="203.42,-94.2 196.8,-85.92 196.82,-96.52 203.42,-94.2"/>
</g>
<!-- 225 -->
<g id="node18" class="node">
<title>225</title>
<ellipse fill="white" stroke="black" cx="962.75" cy="-148.43" rx="25" ry="25"/>
<text text-anchor="middle" x="962.75" y="-146.23" font-family="Times,serif" font-size="9.00">225</text>
</g>
<!-- y&#45;other&#45;vec&#45;&gt;225 -->
<g id="edge35" class="edge">
<title>y&#45;other&#45;vec&#45;&gt;225</title>
<path fill="none" stroke="red" stroke-width="0.12" d="M916.04,-209.14C922.36,-201.05 932.48,-188.13 941.68,-176.37"/>
<polygon fill="red" stroke="red" stroke-width="0.12" points="944.44,-178.52 947.84,-168.48 938.92,-174.2 944.44,-178.52"/>
</g>
<!-- x&#45;other&#45;vel -->
<g id="node11" class="node">
<title>x&#45;other&#45;vel</title>
<polygon fill="lightgray" stroke="black" points="801.75,-157.43 735.75,-157.43 735.75,-139.43 801.75,-139.43 801.75,-157.43"/>
<text text-anchor="middle" x="768.75" y="-146.23" font-family="Times,serif" font-size="9.00">x&#45;other&#45;vel</text>
</g>
<!-- x&#45;other&#45;vel&#45;&gt;none -->
<g id="edge25" class="edge">
<title>x&#45;other&#45;vel&#45;&gt;none</title>
<path fill="none" stroke="red" stroke-width="0.24" stroke-dasharray="1,5" d="M751.09,-139.38C713.8,-122.38 626.44,-82.54 577.86,-60.39"/>
<polygon fill="red" stroke="red" stroke-width="0.24" points="579.24,-57.18 568.69,-56.21 576.33,-63.54 579.24,-57.18"/>
</g>
<!-- x&#45;other&#45;vel&#45;&gt;right -->
<g id="edge18" class="edge">
<title>x&#45;other&#45;vel&#45;&gt;right</title>
<path fill="none" stroke="red" stroke-width="0.6" stroke-dasharray="1,5" d="M780.62,-139.33C788.97,-134.03 800.59,-127.43 811.75,-123.68 918.17,-87.96 951.54,-109.05 1061.75,-87.68 1109.82,-78.36 1164.54,-64.42 1199.8,-54.99"/>
<polygon fill="red" stroke="red" stroke-width="0.6" points="1200.9,-58.32 1209.65,-52.34 1199.08,-51.56 1200.9,-58.32"/>
</g>
<!-- y&#45;other&#45;vel -->
<g id="node12" class="node">
<title>y&#45;other&#45;vel</title>
<polygon fill="lightgray" stroke="black" points="504.75,-227.18 438.75,-227.18 438.75,-209.18 504.75,-209.18 504.75,-227.18"/>
<text text-anchor="middle" x="471.75" y="-215.98" font-family="Times,serif" font-size="9.00">y&#45;other&#45;vel</text>
</g>
<!-- y&#45;other&#45;vel&#45;&gt;none -->
<g id="edge10" class="edge">
<title>y&#45;other&#45;vel&#45;&gt;none</title>
<path fill="none" stroke="red" stroke-width="0.24" stroke-dasharray="1,5" d="M468.76,-209.03C463.12,-192.3 452.52,-153.15 464.75,-123.68 474.45,-100.3 494.82,-80.25 512.44,-66.23"/>
<polygon fill="red" stroke="red" stroke-width="0.24" points="514.99,-68.68 520.82,-59.83 510.74,-63.12 514.99,-68.68"/>
</g>
<!-- 139 -->
<g id="node20" class="node">
<title>139</title>
<ellipse fill="white" stroke="black" cx="498.75" cy="-148.43" rx="25" ry="25"/>
<text text-anchor="middle" x="498.75" y="-146.23" font-family="Times,serif" font-size="9.00">139</text>
</g>
<!-- y&#45;other&#45;vel&#45;&gt;139 -->
<g id="edge31" class="edge">
<title>y&#45;other&#45;vel&#45;&gt;139</title>
<path fill="none" stroke="red" stroke-width="0.5" stroke-dasharray="1,5" d="M474.95,-209.14C477.75,-202.11 482.01,-191.42 486.16,-181.02"/>
<polygon fill="red" stroke="red" stroke-width="0.5" points="489.44,-182.25 489.89,-171.67 482.93,-179.66 489.44,-182.25"/>
</g>
<!-- 225&#45;&gt;forward -->
<g id="edge36" class="edge">
<title>225&#45;&gt;forward</title>
<path fill="none" stroke="red" stroke-width="0.26" d="M973.73,-126.17C979.64,-114.73 987.15,-100.2 994.17,-86.61"/>
<polygon fill="red" stroke="red" stroke-width="0.26" points="997.45,-87.88 998.93,-77.39 991.23,-84.67 997.45,-87.88"/>
</g>
<!-- 552&#45;&gt;right -->
<g id="edge44" class="edge">
<title>552&#45;&gt;right</title>
<path fill="none" stroke="green" stroke-width="0.44" d="M1346.71,-132.29C1325.56,-115.47 1291.12,-88.08 1266.42,-68.44"/>
<polygon fill="green" stroke="green" stroke-width="0.44" points="1268.45,-65.58 1258.45,-62.1 1264.1,-71.06 1268.45,-65.58"/>
</g>
<!-- 139&#45;&gt;none -->
<g id="edge32" class="edge">
<title>139&#45;&gt;none</title>
<path fill="none" stroke="green" stroke-width="0.29" stroke-dasharray="1,5" d="M508.4,-125.42C514.39,-111.77 522.2,-93.96 528.96,-78.55"/>
<polygon fill="green" stroke="green" stroke-width="0.29" points="532.2,-79.89 533.01,-69.33 525.79,-77.08 532.2,-79.89"/>
</g>
<!-- 175&#45;&gt;backward -->
<g id="edge34" class="edge">
<title>175&#45;&gt;backward</title>
<path fill="none" stroke="red" stroke-width="0.19" d="M45.21,-134.23C68.75,-119.04 108.1,-93.65 138.86,-73.8"/>
<polygon fill="red" stroke="red" stroke-width="0.19" points="140.78,-76.73 147.29,-68.37 136.99,-70.85 140.78,-76.73"/>
</g>
<!-- 245&#45;&gt;right -->
<g id="edge38" class="edge">
<title>245&#45;&gt;right</title>
<path fill="none" stroke="green" stroke-width="0.11" d="M1413.23,-132.54C1408.89,-129.47 1404.24,-126.35 1399.75,-123.68 1357.35,-98.43 1305.65,-74.5 1272,-59.76"/>
<polygon fill="green" stroke="green" stroke-width="0.11" points="1273.16,-56.45 1262.59,-55.68 1270.37,-62.87 1273.16,-56.45"/>
</g>
<!-- 534&#45;&gt;backward -->
<g id="edge42" class="edge">
<title>534&#45;&gt;backward</title>
<path fill="none" stroke="red" stroke-width="0.33" d="M141.73,-126.17C146.85,-116.26 153.17,-104.03 159.33,-92.1"/>
<polygon fill="red" stroke="red" stroke-width="0.33" points="162.52,-93.56 164,-83.07 156.3,-90.35 162.52,-93.56"/>
</g>
<!-- 566 -->
<g id="node24" class="node">
<title>566</title>
<ellipse fill="white" stroke="black" cx="392.75" cy="-148.43" rx="25" ry="25"/>
<text text-anchor="middle" x="392.75" y="-146.23" font-family="Times,serif" font-size="9.00">566</text>
</g>
<!-- 566&#45;&gt;none -->
<g id="edge45" class="edge">
<title>566&#45;&gt;none</title>
<path fill="none" stroke="red" stroke-width="0.57" d="M412.8,-133.81C438.43,-116.39 483.06,-86.07 513,-65.73"/>
<polygon fill="red" stroke="red" stroke-width="0.57" points="515.1,-68.54 521.4,-60.02 511.16,-62.75 515.1,-68.54"/>
</g>
<!-- 410&#45;&gt;forward -->
<g id="edge40" class="edge">
<title>410&#45;&gt;forward</title>
<path fill="none" stroke="red" stroke-width="0.14" stroke-dasharray="1,5" d="M1106.75,-130.49C1091.51,-116.15 1069.23,-95.18 1050.53,-77.57"/>
<polygon fill="red" stroke="red" stroke-width="0.14" points="1052.44,-74.57 1042.76,-70.27 1047.65,-79.67 1052.44,-74.57"/>
</g>
</g>
</svg>
