<?xml version="1.0" encoding="UTF-8" standalone="no"?>
<!DOCTYPE svg PUBLIC "-//W3C//DTD SVG 1.1//EN"
 "http://www.w3.org/Graphics/SVG/1.1/DTD/svg11.dtd">
<!-- Generated by graphviz version 2.40.1 (20161225.0304)
 -->
<!-- Title: %3 Pages: 1 -->
<svg width="853pt" height="288pt"
 viewBox="0.00 0.00 852.50 288.15" xmlns="http://www.w3.org/2000/svg" xmlns:xlink="http://www.w3.org/1999/xlink">
<g id="graph0" class="graph" transform="scale(1 1) rotate(0) translate(4 284.1493)">
<title>%3</title>
<polygon fill="#ffffff" stroke="transparent" points="-4,4 -4,-284.1493 848.5,-284.1493 848.5,4 -4,4"/>
<!-- x&#45;vel -->
<g id="node1" class="node">
<title>x&#45;vel</title>
<polygon fill="#d3d3d3" stroke="#000000" points="35,-213.9361 0,-213.9361 0,-195.9361 35,-195.9361 35,-213.9361"/>
<text text-anchor="middle" x="17.5" y="-202.7361" font-family="Times,serif" font-size="9.00" fill="#000000">x&#45;vel</text>
</g>
<!-- right -->
<g id="node14" class="node">
<title>right</title>
<ellipse fill="#add8e6" stroke="#000000" cx="254.5" cy="-111.6604" rx="23.1702" ry="23.1702"/>
<text text-anchor="middle" x="254.5" y="-109.4604" font-family="Times,serif" font-size="9.00" fill="#000000">right</text>
</g>
<!-- x&#45;vel&#45;&gt;right -->
<g id="edge24" class="edge">
<title>x&#45;vel&#45;&gt;right</title>
<path fill="none" stroke="#ff0000" stroke-width=".5141" d="M27.4429,-195.8073C32.3126,-191.6929 38.4257,-187.0275 44.5,-183.7229 103.4623,-151.6452 179.3802,-129.8633 221.9025,-119.2132"/>
<polygon fill="#ff0000" stroke="#ff0000" stroke-width=".5141" points="222.8336,-122.5887 231.7114,-116.8064 221.1654,-115.7904 222.8336,-122.5887"/>
</g>
<!-- left -->
<g id="node15" class="node">
<title>left</title>
<ellipse fill="#add8e6" stroke="#000000" cx="452.5" cy="-19.799" rx="19.6" ry="19.6"/>
<text text-anchor="middle" x="452.5" y="-17.599" font-family="Times,serif" font-size="9.00" fill="#000000">left</text>
</g>
<!-- x&#45;vel&#45;&gt;left -->
<g id="edge11" class="edge">
<title>x&#45;vel&#45;&gt;left</title>
<path fill="none" stroke="#00ff00" stroke-width=".6294" d="M28.7372,-195.8513C58.4632,-172.2822 142.3852,-108.7114 222.5,-75.598 291.4033,-47.1185 378.1809,-30.9783 422.8772,-23.9932"/>
<polygon fill="#00ff00" stroke="#00ff00" stroke-width=".6294" points="423.4238,-27.4504 432.7847,-22.4881 422.3724,-20.5298 423.4238,-27.4504"/>
</g>
<!-- y&#45;vel -->
<g id="node2" class="node">
<title>y&#45;vel</title>
<polygon fill="#d3d3d3" stroke="#000000" points="408,-213.9361 373,-213.9361 373,-195.9361 408,-195.9361 408,-213.9361"/>
<text text-anchor="middle" x="390.5" y="-202.7361" font-family="Times,serif" font-size="9.00" fill="#000000">y&#45;vel</text>
</g>
<!-- y&#45;vel&#45;&gt;right -->
<g id="edge29" class="edge">
<title>y&#45;vel&#45;&gt;right</title>
<path fill="none" stroke="#ff0000" stroke-width=".3669" stroke-dasharray="1,5" d="M379.8205,-195.8017C375.1973,-191.9585 369.6699,-187.5094 364.5,-183.7229 337.7896,-164.1595 306.0419,-143.6357 283.5354,-129.5176"/>
<polygon fill="#ff0000" stroke="#ff0000" stroke-width=".3669" points="285.1333,-126.3893 274.7963,-124.0661 281.4284,-132.3285 285.1333,-126.3893"/>
</g>
<!-- y&#45;vel&#45;&gt;left -->
<g id="edge22" class="edge">
<title>y&#45;vel&#45;&gt;left</title>
<path fill="none" stroke="#ff0000" stroke-width=".3656" d="M393.5746,-195.7551C402.5098,-169.0739 428.7404,-90.747 443.0028,-48.1584"/>
<polygon fill="#ff0000" stroke="#ff0000" stroke-width=".3656" points="446.3304,-49.2436 446.1871,-38.6497 439.6927,-47.0206 446.3304,-49.2436"/>
</g>
<!-- backward -->
<g id="node17" class="node">
<title>backward</title>
<ellipse fill="#add8e6" stroke="#000000" cx="593.5" cy="-111.6604" rx="36.125" ry="36.125"/>
<text text-anchor="middle" x="593.5" y="-109.4604" font-family="Times,serif" font-size="9.00" fill="#000000">backward</text>
</g>
<!-- y&#45;vel&#45;&gt;backward -->
<g id="edge4" class="edge">
<title>y&#45;vel&#45;&gt;backward</title>
<path fill="none" stroke="#00ff00" stroke-width=".2291" d="M400.3531,-195.6359C405.2031,-191.4839 411.3256,-186.8365 417.5,-183.7229 471.4135,-156.5353 494.7182,-175.17 548.5,-147.7229 551.8162,-146.0305 555.1185,-144.0688 558.341,-141.9518"/>
<polygon fill="#00ff00" stroke="#00ff00" stroke-width=".2291" points="560.5094,-144.7048 566.6394,-136.0634 556.4585,-138.996 560.5094,-144.7048"/>
</g>
<!-- x&#45;pos -->
<g id="node3" class="node">
<title>x&#45;pos</title>
<polygon fill="#d3d3d3" stroke="#000000" points="533.5,-213.9361 497.5,-213.9361 497.5,-195.9361 533.5,-195.9361 533.5,-213.9361"/>
<text text-anchor="middle" x="515.5" y="-202.7361" font-family="Times,serif" font-size="9.00" fill="#000000">x&#45;pos</text>
</g>
<!-- none -->
<g id="node13" class="node">
<title>none</title>
<ellipse fill="#add8e6" stroke="#000000" cx="515.5" cy="-111.6604" rx="24.0833" ry="24.0833"/>
<text text-anchor="middle" x="515.5" y="-109.4604" font-family="Times,serif" font-size="9.00" fill="#000000">none</text>
</g>
<!-- x&#45;pos&#45;&gt;none -->
<g id="edge16" class="edge">
<title>x&#45;pos&#45;&gt;none</title>
<path fill="none" stroke="#00ff00" stroke-width=".29" d="M515.5,-195.6514C515.5,-184.0954 515.5,-163.7095 515.5,-145.9159"/>
<polygon fill="#00ff00" stroke="#00ff00" stroke-width=".29" points="519.0001,-145.8253 515.5,-135.8253 512.0001,-145.8253 519.0001,-145.8253"/>
</g>
<!-- x&#45;pos&#45;&gt;right -->
<g id="edge7" class="edge">
<title>x&#45;pos&#45;&gt;right</title>
<path fill="none" stroke="#ff0000" stroke-width=".2265" d="M505.6035,-195.7202C500.7441,-191.5867 494.6261,-186.9304 488.5,-183.7229 421.2803,-148.5271 334.0346,-127.3777 287.3706,-117.798"/>
<polygon fill="#ff0000" stroke="#ff0000" stroke-width=".2265" points="287.9983,-114.3542 277.5056,-115.8219 286.6233,-121.2179 287.9983,-114.3542"/>
</g>
<!-- forward -->
<g id="node16" class="node">
<title>forward</title>
<ellipse fill="#add8e6" stroke="#000000" cx="698.5" cy="-111.6604" rx="31.6406" ry="31.6406"/>
<text text-anchor="middle" x="698.5" y="-109.4604" font-family="Times,serif" font-size="9.00" fill="#000000">forward</text>
</g>
<!-- x&#45;pos&#45;&gt;forward -->
<g id="edge20" class="edge">
<title>x&#45;pos&#45;&gt;forward</title>
<path fill="none" stroke="#ff0000" stroke-width=".3552" stroke-dasharray="1,5" d="M525.4853,-195.8838C530.3642,-191.7862 536.4729,-187.1128 542.5,-183.7229 582.2167,-161.3839 597.468,-167.5425 638.5,-147.7229 646.6102,-143.8054 655.0531,-139.1339 662.9563,-134.4732"/>
<polygon fill="#ff0000" stroke="#ff0000" stroke-width=".3552" points="664.8489,-137.419 671.6034,-129.2565 661.2329,-131.4253 664.8489,-137.419"/>
</g>
<!-- x&#45;pos&#45;&gt;backward -->
<g id="edge8" class="edge">
<title>x&#45;pos&#45;&gt;backward</title>
<path fill="none" stroke="#00ff00" stroke-width=".2796" d="M523.2641,-195.6514C532.6874,-184.3827 549.1319,-164.7176 563.7409,-147.2476"/>
<polygon fill="#00ff00" stroke="#00ff00" stroke-width=".2796" points="566.5621,-149.3299 570.2921,-139.4134 561.1922,-144.8394 566.5621,-149.3299"/>
</g>
<!-- y&#45;pos -->
<g id="node4" class="node">
<title>y&#45;pos</title>
<polygon fill="#d3d3d3" stroke="#000000" points="844.5,-213.9361 808.5,-213.9361 808.5,-195.9361 844.5,-195.9361 844.5,-213.9361"/>
<text text-anchor="middle" x="826.5" y="-202.7361" font-family="Times,serif" font-size="9.00" fill="#000000">y&#45;pos</text>
</g>
<!-- y&#45;pos&#45;&gt;none -->
<g id="edge19" class="edge">
<title>y&#45;pos&#45;&gt;none</title>
<path fill="none" stroke="#00ff00" stroke-width=".4813" d="M808.4965,-198.2643C795.5635,-193.6683 777.6366,-187.6965 761.5,-183.7229 668.2756,-160.7665 632.8217,-193.6318 548.5,-147.7229 544.163,-145.3616 540.0927,-142.2107 536.3919,-138.751"/>
<polygon fill="#00ff00" stroke="#00ff00" stroke-width=".4813" points="538.7836,-136.1876 529.3474,-131.3701 533.7198,-141.0206 538.7836,-136.1876"/>
</g>
<!-- y&#45;pos&#45;&gt;left -->
<g id="edge17" class="edge">
<title>y&#45;pos&#45;&gt;left</title>
<path fill="none" stroke="#ff0000" stroke-width=".4497" stroke-dasharray="1,5" d="M820.9775,-195.8886C803.7631,-167.8102 751.5114,-83.5595 739.5,-75.598 697.4049,-47.6961 547.3475,-29.457 482.5991,-22.7171"/>
<polygon fill="#ff0000" stroke="#ff0000" stroke-width=".4497" points="482.5591,-19.195 472.2557,-21.6632 481.8494,-26.159 482.5591,-19.195"/>
</g>
<!-- y&#45;pos&#45;&gt;forward -->
<g id="edge5" class="edge">
<title>y&#45;pos&#45;&gt;forward</title>
<path fill="none" stroke="#00ff00" stroke-width=".268" d="M813.7589,-195.6514C795.0435,-182.0132 759.4508,-156.0762 732.747,-136.6168"/>
<polygon fill="#00ff00" stroke="#00ff00" stroke-width=".268" points="734.5651,-133.6109 724.422,-130.5502 730.4425,-139.2682 734.5651,-133.6109"/>
</g>
<!-- y&#45;pos&#45;&gt;backward -->
<g id="edge9" class="edge">
<title>y&#45;pos&#45;&gt;backward</title>
<path fill="none" stroke="#00ff00" stroke-width=".4206" d="M808.4181,-199.0268C767.7911,-185.719 671.714,-154.0667 657.5,-147.7229 649.5477,-144.1737 641.2845,-139.9523 633.442,-135.6697"/>
<polygon fill="#00ff00" stroke="#00ff00" stroke-width=".4206" points="634.9084,-132.4797 624.4726,-130.6509 631.4903,-138.5884 634.9084,-132.4797"/>
</g>
<!-- 218 -->
<g id="node19" class="node">
<title>218</title>
<ellipse fill="#ffffff" stroke="#000000" cx="821.5" cy="-111.6604" rx="21.4286" ry="21.4286"/>
<text text-anchor="middle" x="821.5" y="-109.4604" font-family="Times,serif" font-size="9.00" fill="#000000">218</text>
</g>
<!-- y&#45;pos&#45;&gt;218 -->
<g id="edge31" class="edge">
<title>y&#45;pos&#45;&gt;218</title>
<path fill="none" stroke="#ff0000" stroke-width=".4621" d="M826.0023,-195.6514C825.3509,-183.4996 824.1761,-161.5839 823.1899,-143.186"/>
<polygon fill="#ff0000" stroke="#ff0000" stroke-width=".4621" points="826.6816,-142.9349 822.6512,-133.1366 819.6916,-143.3096 826.6816,-142.9349"/>
</g>
<!-- x&#45;lm1&#45;vec -->
<g id="node5" class="node">
<title>x&#45;lm1&#45;vec</title>
<polygon fill="#d3d3d3" stroke="#000000" points="479,-213.9361 426,-213.9361 426,-195.9361 479,-195.9361 479,-213.9361"/>
<text text-anchor="middle" x="452.5" y="-202.7361" font-family="Times,serif" font-size="9.00" fill="#000000">x&#45;lm1&#45;vec</text>
</g>
<!-- x&#45;lm1&#45;vec&#45;&gt;none -->
<g id="edge1" class="edge">
<title>x&#45;lm1&#45;vec&#45;&gt;none</title>
<path fill="none" stroke="#ff0000" stroke-width=".1377" d="M458.771,-195.6514C467.4617,-182.7843 483.5463,-158.9699 496.375,-139.9763"/>
<polygon fill="#ff0000" stroke="#ff0000" stroke-width=".1377" points="499.3051,-141.8912 502.0018,-131.6453 493.5043,-137.9732 499.3051,-141.8912"/>
</g>
<!-- x&#45;lm1&#45;vec&#45;&gt;left -->
<g id="edge18" class="edge">
<title>x&#45;lm1&#45;vec&#45;&gt;left</title>
<path fill="none" stroke="#ff0000" stroke-width=".1152" d="M452.5,-195.7551C452.5,-169.4555 452.5,-92.9771 452.5,-50.0076"/>
<polygon fill="#ff0000" stroke="#ff0000" stroke-width=".1152" points="456.0001,-49.856 452.5,-39.856 449.0001,-49.856 456.0001,-49.856"/>
</g>
<!-- y&#45;lm1&#45;vec -->
<g id="node6" class="node">
<title>y&#45;lm1&#45;vec</title>
<polygon fill="#d3d3d3" stroke="#000000" points="681,-213.9361 628,-213.9361 628,-195.9361 681,-195.9361 681,-213.9361"/>
<text text-anchor="middle" x="654.5" y="-202.7361" font-family="Times,serif" font-size="9.00" fill="#000000">y&#45;lm1&#45;vec</text>
</g>
<!-- y&#45;lm1&#45;vec&#45;&gt;none -->
<g id="edge27" class="edge">
<title>y&#45;lm1&#45;vec&#45;&gt;none</title>
<path fill="none" stroke="#00ff00" stroke-width=".3383" stroke-dasharray="1,5" d="M639.5474,-195.8655C633.1181,-192.0331 625.4886,-187.5748 618.5,-183.7229 587.8614,-166.8356 576.3004,-168.9606 548.5,-147.7229 544.656,-144.7863 540.8878,-141.3696 537.3522,-137.8321"/>
<polygon fill="#00ff00" stroke="#00ff00" stroke-width=".3383" points="539.8724,-135.4031 530.4718,-130.5166 534.7734,-140.1989 539.8724,-135.4031"/>
</g>
<!-- y&#45;lm1&#45;vec&#45;&gt;forward -->
<g id="edge25" class="edge">
<title>y&#45;lm1&#45;vec&#45;&gt;forward</title>
<path fill="none" stroke="#00ff00" stroke-width=".1284" d="M658.8797,-195.6514C663.9417,-184.9205 672.5954,-166.5757 680.5263,-149.7629"/>
<polygon fill="#00ff00" stroke="#00ff00" stroke-width=".1284" points="683.7297,-151.1757 684.8306,-140.6382 677.3987,-148.1892 683.7297,-151.1757"/>
</g>
<!-- y&#45;lm1&#45;vec&#45;&gt;backward -->
<g id="edge30" class="edge">
<title>y&#45;lm1&#45;vec&#45;&gt;backward</title>
<path fill="none" stroke="#ff0000" stroke-width=".394" stroke-dasharray="1,5" d="M648.4281,-195.6514C641.4993,-185.0566 629.7167,-167.0397 618.8369,-150.4032"/>
<polygon fill="#ff0000" stroke="#ff0000" stroke-width=".394" points="621.6627,-148.3295 613.2602,-141.8759 615.8043,-152.1608 621.6627,-148.3295"/>
</g>
<!-- x&#45;lm2&#45;vec -->
<g id="node7" class="node">
<title>x&#45;lm2&#45;vec</title>
<polygon fill="#d3d3d3" stroke="#000000" points="355,-213.9361 302,-213.9361 302,-195.9361 355,-195.9361 355,-213.9361"/>
<text text-anchor="middle" x="328.5" y="-202.7361" font-family="Times,serif" font-size="9.00" fill="#000000">x&#45;lm2&#45;vec</text>
</g>
<!-- x&#45;lm2&#45;vec&#45;&gt;none -->
<g id="edge14" class="edge">
<title>x&#45;lm2&#45;vec&#45;&gt;none</title>
<path fill="none" stroke="#ff0000" stroke-width=".1664" d="M343.3975,-195.7637C349.8175,-191.9141 357.4549,-187.4705 364.5,-183.7229 405.1117,-162.1197 453.2611,-139.6681 484.0818,-125.6846"/>
<polygon fill="#ff0000" stroke="#ff0000" stroke-width=".1664" points="485.7755,-128.7601 493.4482,-121.4539 482.894,-122.3807 485.7755,-128.7601"/>
</g>
<!-- x&#45;lm2&#45;vec&#45;&gt;right -->
<g id="edge12" class="edge">
<title>x&#45;lm2&#45;vec&#45;&gt;right</title>
<path fill="none" stroke="#00ff00" stroke-width=".6776" d="M321.1341,-195.6514C310.5781,-182.3458 290.7351,-157.3341 275.4376,-138.0519"/>
<polygon fill="#00ff00" stroke="#00ff00" stroke-width=".6776" points="278.1573,-135.8485 269.2002,-130.1897 272.6734,-140.1991 278.1573,-135.8485"/>
</g>
<!-- y&#45;lm2&#45;vec -->
<g id="node8" class="node">
<title>y&#45;lm2&#45;vec</title>
<polygon fill="#d3d3d3" stroke="#000000" points="752,-213.9361 699,-213.9361 699,-195.9361 752,-195.9361 752,-213.9361"/>
<text text-anchor="middle" x="725.5" y="-202.7361" font-family="Times,serif" font-size="9.00" fill="#000000">y&#45;lm2&#45;vec</text>
</g>
<!-- y&#45;lm2&#45;vec&#45;&gt;none -->
<g id="edge6" class="edge">
<title>y&#45;lm2&#45;vec&#45;&gt;none</title>
<path fill="none" stroke="#00ff00" stroke-width=".1042" stroke-dasharray="1,5" d="M712.6952,-195.9124C706.274,-191.7216 698.2335,-186.9615 690.5,-183.7229 630.4457,-158.5735 604.3768,-181.1413 548.5,-147.7229 544.3485,-145.24 540.4097,-142.0749 536.7947,-138.6546"/>
<polygon fill="#00ff00" stroke="#00ff00" stroke-width=".1042" points="539.3071,-136.2177 529.8648,-131.412 534.2494,-141.0571 539.3071,-136.2177"/>
</g>
<!-- y&#45;lm2&#45;vec&#45;&gt;forward -->
<g id="edge15" class="edge">
<title>y&#45;lm2&#45;vec&#45;&gt;forward</title>
<path fill="none" stroke="#00ff00" stroke-width=".2917" d="M722.8124,-195.6514C719.8521,-185.4246 714.89,-168.2821 710.2177,-152.141"/>
<polygon fill="#00ff00" stroke="#00ff00" stroke-width=".2917" points="713.5091,-150.9236 707.3665,-142.2912 706.7851,-152.87 713.5091,-150.9236"/>
</g>
<!-- x&#45;other&#45;vec -->
<g id="node9" class="node">
<title>x&#45;other&#45;vec</title>
<polygon fill="#d3d3d3" stroke="#000000" points="283.5,-213.9361 225.5,-213.9361 225.5,-195.9361 283.5,-195.9361 283.5,-213.9361"/>
<text text-anchor="middle" x="254.5" y="-202.7361" font-family="Times,serif" font-size="9.00" fill="#000000">x&#45;other&#45;vec</text>
</g>
<!-- x&#45;other&#45;vec&#45;&gt;none -->
<g id="edge21" class="edge">
<title>x&#45;other&#45;vec&#45;&gt;none</title>
<path fill="none" stroke="#00ff00" stroke-width=".1478" d="M269.7354,-195.7995C276.8109,-191.7795 285.4277,-187.1933 293.5,-183.7229 358.4646,-155.7939 438.0195,-132.4557 482.0848,-120.4276"/>
<polygon fill="#00ff00" stroke="#00ff00" stroke-width=".1478" points="483.2316,-123.7433 491.9727,-117.7563 481.4059,-116.9856 483.2316,-123.7433"/>
</g>
<!-- x&#45;other&#45;vec&#45;&gt;right -->
<g id="edge23" class="edge">
<title>x&#45;other&#45;vec&#45;&gt;right</title>
<path fill="none" stroke="#00ff00" stroke-width="1.1541" d="M254.5,-195.6514C254.5,-183.9413 254.5,-163.1643 254.5,-145.2056"/>
<polygon fill="#00ff00" stroke="#00ff00" stroke-width="1.1541" points="258.0001,-145.0473 254.5,-135.0473 251.0001,-145.0474 258.0001,-145.0473"/>
</g>
<!-- y&#45;other&#45;vec -->
<g id="node10" class="node">
<title>y&#45;other&#45;vec</title>
<polygon fill="#d3d3d3" stroke="#000000" points="609.5,-213.9361 551.5,-213.9361 551.5,-195.9361 609.5,-195.9361 609.5,-213.9361"/>
<text text-anchor="middle" x="580.5" y="-202.7361" font-family="Times,serif" font-size="9.00" fill="#000000">y&#45;other&#45;vec</text>
</g>
<!-- y&#45;other&#45;vec&#45;&gt;none -->
<g id="edge2" class="edge">
<title>y&#45;other&#45;vec&#45;&gt;none</title>
<path fill="none" stroke="#ff0000" stroke-width=".3876" d="M574.0299,-195.6514C565.0633,-182.7843 548.4681,-158.9699 535.2322,-139.9763"/>
<polygon fill="#ff0000" stroke="#ff0000" stroke-width=".3876" points="538.0156,-137.8487 529.4267,-131.6453 532.2725,-141.8508 538.0156,-137.8487"/>
</g>
<!-- y&#45;other&#45;vec&#45;&gt;right -->
<g id="edge13" class="edge">
<title>y&#45;other&#45;vec&#45;&gt;right</title>
<path fill="none" stroke="#ff0000" stroke-width=".1861" d="M566.1469,-195.7384C559.2146,-191.6089 550.6484,-186.9507 542.5,-183.7229 453.7755,-148.5764 342.7369,-126.5736 288.0754,-117.0873"/>
<polygon fill="#ff0000" stroke="#ff0000" stroke-width=".1861" points="288.364,-113.5861 277.9181,-115.3567 287.1882,-120.4866 288.364,-113.5861"/>
</g>
<!-- y&#45;other&#45;vec&#45;&gt;forward -->
<g id="edge26" class="edge">
<title>y&#45;other&#45;vec&#45;&gt;forward</title>
<path fill="none" stroke="#00ff00" stroke-width=".9464" d="M592.2457,-195.6514C609.1101,-182.3206 640.8396,-157.2394 665.2515,-137.9424"/>
<polygon fill="#00ff00" stroke="#00ff00" stroke-width=".9464" points="667.5431,-140.5924 673.2177,-131.6453 663.2022,-135.1009 667.5431,-140.5924"/>
</g>
<!-- y&#45;other&#45;vec&#45;&gt;backward -->
<g id="edge3" class="edge">
<title>y&#45;other&#45;vec&#45;&gt;backward</title>
<path fill="none" stroke="#ff0000" stroke-width=".4917" d="M581.794,-195.6514C583.0447,-186.6781 585.0373,-172.3805 587.0267,-158.1069"/>
<polygon fill="#ff0000" stroke="#ff0000" stroke-width=".4917" points="590.55,-158.1816 588.464,-147.7941 583.617,-157.2153 590.55,-158.1816"/>
</g>
<!-- x&#45;other&#45;vel -->
<g id="node11" class="node">
<title>x&#45;other&#45;vel</title>
<polygon fill="#d3d3d3" stroke="#000000" points="169.5,-213.9361 113.5,-213.9361 113.5,-195.9361 169.5,-195.9361 169.5,-213.9361"/>
<text text-anchor="middle" x="141.5" y="-202.7361" font-family="Times,serif" font-size="9.00" fill="#000000">x&#45;other&#45;vel</text>
</g>
<!-- x&#45;other&#45;vel&#45;&gt;right -->
<g id="edge10" class="edge">
<title>x&#45;other&#45;vel&#45;&gt;right</title>
<path fill="none" stroke="#00ff00" stroke-width=".1957" d="M152.748,-195.6514C170.2258,-181.2244 204.3762,-153.035 228.2734,-133.3091"/>
<polygon fill="#00ff00" stroke="#00ff00" stroke-width=".1957" points="230.7704,-135.7864 236.2544,-126.7213 226.3142,-130.388 230.7704,-135.7864"/>
</g>
<!-- y&#45;other&#45;vel -->
<g id="node12" class="node">
<title>y&#45;other&#45;vel</title>
<polygon fill="#d3d3d3" stroke="#000000" points="225.5,-280.1493 169.5,-280.1493 169.5,-262.1493 225.5,-262.1493 225.5,-280.1493"/>
<text text-anchor="middle" x="197.5" y="-268.9493" font-family="Times,serif" font-size="9.00" fill="#000000">y&#45;other&#45;vel</text>
</g>
<!-- y&#45;other&#45;vel&#45;&gt;right -->
<g id="edge28" class="edge">
<title>y&#45;other&#45;vel&#45;&gt;right</title>
<path fill="none" stroke="#00ff00" stroke-width=".1497" d="M198.6567,-261.9861C200.8801,-245.812 206.4439,-211.3032 216.5,-183.7229 221.9191,-168.86 229.857,-153.2283 237.0781,-140.3368"/>
<polygon fill="#00ff00" stroke="#00ff00" stroke-width=".1497" points="240.2171,-141.8989 242.1632,-131.4843 234.1473,-138.4122 240.2171,-141.8989"/>
</g>
<!-- y&#45;other&#45;vel&#45;&gt;forward -->
<g id="edge33" class="edge">
<title>y&#45;other&#45;vel&#45;&gt;forward</title>
<path fill="none" stroke="#00ff00" stroke-width=".16" d="M225.5895,-269.9573C337.063,-265.0939 743.112,-246.0628 761.5,-226.1493 774.2921,-212.2959 768.1284,-201.3756 761.5,-183.7229 757.8604,-174.03 742.8374,-156.6994 728.3751,-141.4631"/>
<polygon fill="#00ff00" stroke="#00ff00" stroke-width=".16" points="730.8313,-138.968 721.3728,-134.1943 725.79,-143.8244 730.8313,-138.968"/>
</g>
<!-- 436 -->
<g id="node18" class="node">
<title>436</title>
<ellipse fill="#ffffff" stroke="#000000" cx="74.5" cy="-204.9361" rx="21.4286" ry="21.4286"/>
<text text-anchor="middle" x="74.5" y="-202.7361" font-family="Times,serif" font-size="9.00" fill="#000000">436</text>
</g>
<!-- y&#45;other&#45;vel&#45;&gt;436 -->
<g id="edge34" class="edge">
<title>y&#45;other&#45;vel&#45;&gt;436</title>
<path fill="none" stroke="#00ff00" stroke-width=".4521" d="M176.3032,-262.0958C157.1121,-253.6196 128.2898,-240.1864 104.5,-226.1493 103.027,-225.2801 101.5334,-224.3603 100.0398,-223.41"/>
<polygon fill="#00ff00" stroke="#00ff00" stroke-width=".4521" points="101.883,-220.432 91.6269,-217.7742 97.987,-226.2477 101.883,-220.432"/>
</g>
<!-- 436&#45;&gt;right -->
<g id="edge35" class="edge">
<title>436&#45;&gt;right</title>
<path fill="none" stroke="#ff0000" stroke-width=".3277" d="M91.6218,-192.0893C95.751,-189.2 100.2113,-186.2453 104.5,-183.7229 144.1613,-160.3956 192.5298,-138.2023 223.4212,-124.7606"/>
<polygon fill="#ff0000" stroke="#ff0000" stroke-width=".3277" points="225.0076,-127.8881 232.8036,-120.7136 222.2351,-121.4606 225.0076,-127.8881"/>
</g>
<!-- 218&#45;&gt;left -->
<g id="edge32" class="edge">
<title>218&#45;&gt;left</title>
<path fill="none" stroke="#00ff00" stroke-width=".1202" d="M807.4547,-95.3411C800.3904,-88.1713 791.2623,-80.3238 781.5,-75.598 728.6771,-50.0269 553.4031,-29.9819 482.5788,-22.7319"/>
<polygon fill="#00ff00" stroke="#00ff00" stroke-width=".1202" points="482.8289,-19.2395 472.528,-21.7175 482.126,-26.2041 482.8289,-19.2395"/>
</g>
</g>
</svg>
