<?xml version="1.0" encoding="UTF-8" standalone="no"?>
<!DOCTYPE svg PUBLIC "-//W3C//DTD SVG 1.1//EN"
 "http://www.w3.org/Graphics/SVG/1.1/DTD/svg11.dtd">
<!-- Generated by graphviz version 2.40.1 (20161225.0304)
 -->
<!-- Title: %3 Pages: 1 -->
<svg width="792pt" height="312pt"
 viewBox="0.00 0.00 792.00 312.19" xmlns="http://www.w3.org/2000/svg" xmlns:xlink="http://www.w3.org/1999/xlink">
<g id="graph0" class="graph" transform="scale(1 1) rotate(0) translate(4 308.1909)">
<title>%3</title>
<polygon fill="#ffffff" stroke="transparent" points="-4,4 -4,-308.1909 788,-308.1909 788,4 -4,4"/>
<!-- x&#45;vel -->
<g id="node1" class="node">
<title>x&#45;vel</title>
<polygon fill="#d3d3d3" stroke="#000000" points="106,-304.1909 71,-304.1909 71,-286.1909 106,-286.1909 106,-304.1909"/>
<text text-anchor="middle" x="88.5" y="-292.9909" font-family="Times,serif" font-size="9.00" fill="#000000">x&#45;vel</text>
</g>
<!-- left -->
<g id="node15" class="node">
<title>left</title>
<ellipse fill="#add8e6" stroke="#000000" cx="208.5" cy="-214.1285" rx="19.6" ry="19.6"/>
<text text-anchor="middle" x="208.5" y="-211.9285" font-family="Times,serif" font-size="9.00" fill="#000000">left</text>
</g>
<!-- x&#45;vel&#45;&gt;left -->
<g id="edge27" class="edge">
<title>x&#45;vel&#45;&gt;left</title>
<path fill="none" stroke="#00ff00" stroke-width=".1781" d="M102.2655,-285.892C122.0041,-272.5582 158.6813,-247.782 183.3421,-231.1232"/>
<polygon fill="#00ff00" stroke="#00ff00" stroke-width=".1781" points="185.503,-233.8872 191.8303,-225.3892 181.5846,-228.0867 185.503,-233.8872"/>
</g>
<!-- y&#45;vel -->
<g id="node2" class="node">
<title>y&#45;vel</title>
<polygon fill="#d3d3d3" stroke="#000000" points="438,-304.1909 403,-304.1909 403,-286.1909 438,-286.1909 438,-304.1909"/>
<text text-anchor="middle" x="420.5" y="-292.9909" font-family="Times,serif" font-size="9.00" fill="#000000">y&#45;vel</text>
</g>
<!-- none -->
<g id="node13" class="node">
<title>none</title>
<ellipse fill="#add8e6" stroke="#000000" cx="516.5" cy="-214.1285" rx="24.0833" ry="24.0833"/>
<text text-anchor="middle" x="516.5" y="-211.9285" font-family="Times,serif" font-size="9.00" fill="#000000">none</text>
</g>
<!-- y&#45;vel&#45;&gt;none -->
<g id="edge25" class="edge">
<title>y&#45;vel&#45;&gt;none</title>
<path fill="none" stroke="#ff0000" stroke-width=".1337" d="M434.899,-286.1557C448.0998,-277.5887 467.9057,-264.0062 483.5,-250.1909 486.9521,-247.1327 490.4256,-243.7477 493.7559,-240.3127"/>
<polygon fill="#ff0000" stroke="#ff0000" stroke-width=".1337" points="496.4861,-242.5172 500.7539,-232.8199 491.3703,-237.7392 496.4861,-242.5172"/>
</g>
<!-- y&#45;vel&#45;&gt;left -->
<g id="edge16" class="edge">
<title>y&#45;vel&#45;&gt;left</title>
<path fill="none" stroke="#ff0000" stroke-width=".1028" d="M402.8346,-289.1153C399.7349,-288.1028 396.5316,-287.0905 393.5,-286.1909 332.7331,-268.1587 312.4419,-278.0368 255.5,-250.1909 246.9998,-246.0341 238.5391,-240.2076 231.1872,-234.4482"/>
<polygon fill="#ff0000" stroke="#ff0000" stroke-width=".1028" points="233.077,-231.4708 223.1303,-227.8222 228.6307,-236.8773 233.077,-231.4708"/>
</g>
<!-- backward -->
<g id="node17" class="node">
<title>backward</title>
<ellipse fill="#add8e6" stroke="#000000" cx="420.5" cy="-214.1285" rx="36.125" ry="36.125"/>
<text text-anchor="middle" x="420.5" y="-211.9285" font-family="Times,serif" font-size="9.00" fill="#000000">backward</text>
</g>
<!-- y&#45;vel&#45;&gt;backward -->
<g id="edge6" class="edge">
<title>y&#45;vel&#45;&gt;backward</title>
<path fill="none" stroke="#00ff00" stroke-width=".1974" d="M420.5,-285.892C420.5,-279.4103 420.5,-270.2247 420.5,-260.5821"/>
<polygon fill="#00ff00" stroke="#00ff00" stroke-width=".1974" points="424.0001,-260.4621 420.5,-250.4621 417.0001,-260.4621 424.0001,-260.4621"/>
</g>
<!-- x&#45;pos -->
<g id="node3" class="node">
<title>x&#45;pos</title>
<polygon fill="#d3d3d3" stroke="#000000" points="712.5,-304.1909 676.5,-304.1909 676.5,-286.1909 712.5,-286.1909 712.5,-304.1909"/>
<text text-anchor="middle" x="694.5" y="-292.9909" font-family="Times,serif" font-size="9.00" fill="#000000">x&#45;pos</text>
</g>
<!-- forward -->
<g id="node16" class="node">
<title>forward</title>
<ellipse fill="#add8e6" stroke="#000000" cx="481.5" cy="-31.8198" rx="31.6406" ry="31.6406"/>
<text text-anchor="middle" x="481.5" y="-29.6198" font-family="Times,serif" font-size="9.00" fill="#000000">forward</text>
</g>
<!-- x&#45;pos&#45;&gt;forward -->
<g id="edge17" class="edge">
<title>x&#45;pos&#45;&gt;forward</title>
<path fill="none" stroke="#00ff00" stroke-width=".3716" d="M689.8035,-285.9024C674.6557,-256.486 624.6785,-163.5529 566.5,-99.6396 551.6742,-83.3524 532.7084,-67.8251 516.455,-55.7477"/>
<polygon fill="#00ff00" stroke="#00ff00" stroke-width=".3716" points="518.3822,-52.8214 508.239,-49.7607 514.2596,-58.4787 518.3822,-52.8214"/>
</g>
<!-- x&#45;pos&#45;&gt;backward -->
<g id="edge30" class="edge">
<title>x&#45;pos&#45;&gt;backward</title>
<path fill="none" stroke="#ff0000" stroke-width=".1706" d="M676.2958,-288.7699C673.3731,-287.8413 670.3669,-286.9458 667.5,-286.1909 586.9187,-264.9717 561.5874,-279.2763 483.5,-250.1909 475.436,-247.1873 467.1918,-243.2204 459.4372,-239.0178"/>
<polygon fill="#ff0000" stroke="#ff0000" stroke-width=".1706" points="461.0264,-235.8957 450.599,-234.0196 457.5806,-241.9888 461.0264,-235.8957"/>
</g>
<!-- y&#45;pos -->
<g id="node4" class="node">
<title>y&#45;pos</title>
<polygon fill="#d3d3d3" stroke="#000000" points="308.5,-304.1909 272.5,-304.1909 272.5,-286.1909 308.5,-286.1909 308.5,-304.1909"/>
<text text-anchor="middle" x="290.5" y="-292.9909" font-family="Times,serif" font-size="9.00" fill="#000000">y&#45;pos</text>
</g>
<!-- y&#45;pos&#45;&gt;none -->
<g id="edge14" class="edge">
<title>y&#45;pos&#45;&gt;none</title>
<path fill="none" stroke="#ff0000" stroke-width=".2587" d="M308.718,-288.8211C311.6389,-287.8859 314.6409,-286.975 317.5,-286.1909 390.3048,-266.2252 418.0474,-287.8089 483.5,-250.1909 487.694,-247.7805 491.6563,-244.6556 495.2823,-241.254"/>
<polygon fill="#ff0000" stroke="#ff0000" stroke-width=".2587" points="497.8219,-243.6624 502.219,-234.0231 492.7705,-238.8165 497.8219,-243.6624"/>
</g>
<!-- right -->
<g id="node14" class="node">
<title>right</title>
<ellipse fill="#add8e6" stroke="#000000" cx="287.5" cy="-214.1285" rx="23.1702" ry="23.1702"/>
<text text-anchor="middle" x="287.5" y="-211.9285" font-family="Times,serif" font-size="9.00" fill="#000000">right</text>
</g>
<!-- y&#45;pos&#45;&gt;right -->
<g id="edge24" class="edge">
<title>y&#45;pos&#45;&gt;right</title>
<path fill="none" stroke="#00ff00" stroke-width=".2027" d="M290.1559,-285.892C289.81,-276.5467 289.2561,-261.5804 288.7435,-247.7277"/>
<polygon fill="#00ff00" stroke="#00ff00" stroke-width=".2027" points="292.2311,-247.3266 288.3636,-237.4629 285.2359,-247.5856 292.2311,-247.3266"/>
</g>
<!-- y&#45;pos&#45;&gt;left -->
<g id="edge13" class="edge">
<title>y&#45;pos&#45;&gt;left</title>
<path fill="none" stroke="#00ff00" stroke-width=".2498" stroke-dasharray="1,5" d="M281.0936,-285.892C268.6901,-273.6304 246.4985,-251.6925 229.9053,-235.289"/>
<polygon fill="#00ff00" stroke="#00ff00" stroke-width=".2498" points="232.3029,-232.7376 222.7306,-228.1964 227.3816,-237.7158 232.3029,-232.7376"/>
</g>
<!-- x&#45;lm1&#45;vec -->
<g id="node5" class="node">
<title>x&#45;lm1&#45;vec</title>
<polygon fill="#d3d3d3" stroke="#000000" points="53,-304.1909 0,-304.1909 0,-286.1909 53,-286.1909 53,-304.1909"/>
<text text-anchor="middle" x="26.5" y="-292.9909" font-family="Times,serif" font-size="9.00" fill="#000000">x&#45;lm1&#45;vec</text>
</g>
<!-- x&#45;lm1&#45;vec&#45;&gt;left -->
<g id="edge19" class="edge">
<title>x&#45;lm1&#45;vec&#45;&gt;left</title>
<path fill="none" stroke="#00ff00" stroke-width=".1648" d="M47.0239,-286.0496C79.8791,-271.416 144.3153,-242.7162 181.079,-226.3417"/>
<polygon fill="#00ff00" stroke="#00ff00" stroke-width=".1648" points="182.5188,-229.532 190.2296,-222.266 179.6707,-223.1376 182.5188,-229.532"/>
</g>
<!-- x&#45;lm1&#45;vec&#45;&gt;forward -->
<g id="edge8" class="edge">
<title>x&#45;lm1&#45;vec&#45;&gt;forward</title>
<path fill="none" stroke="#ff0000" stroke-width=".1171" stroke-dasharray="1,5" d="M30.7281,-286.0032C45.7771,-254.3988 100.0617,-149.3786 178.5,-99.6396 221.6736,-72.2625 367.2013,-48.224 439.7138,-37.6054"/>
<polygon fill="#ff0000" stroke="#ff0000" stroke-width=".1171" points="440.4659,-41.0331 449.8617,-36.1373 439.4636,-34.1052 440.4659,-41.0331"/>
</g>
<!-- y&#45;lm1&#45;vec -->
<g id="node6" class="node">
<title>y&#45;lm1&#45;vec</title>
<polygon fill="#d3d3d3" stroke="#000000" points="584,-304.1909 531,-304.1909 531,-286.1909 584,-286.1909 584,-304.1909"/>
<text text-anchor="middle" x="557.5" y="-292.9909" font-family="Times,serif" font-size="9.00" fill="#000000">y&#45;lm1&#45;vec</text>
</g>
<!-- y&#45;lm1&#45;vec&#45;&gt;none -->
<g id="edge11" class="edge">
<title>y&#45;lm1&#45;vec&#45;&gt;none</title>
<path fill="none" stroke="#00ff00" stroke-width=".1969" d="M552.7968,-285.892C547.7585,-275.9307 539.4901,-259.583 532.1167,-245.0048"/>
<polygon fill="#00ff00" stroke="#00ff00" stroke-width=".1969" points="535.0801,-243.109 527.4435,-235.7652 528.8337,-246.2684 535.0801,-243.109"/>
</g>
<!-- x&#45;lm2&#45;vec -->
<g id="node7" class="node">
<title>x&#45;lm2&#45;vec</title>
<polygon fill="#d3d3d3" stroke="#000000" points="784,-304.1909 731,-304.1909 731,-286.1909 784,-286.1909 784,-304.1909"/>
<text text-anchor="middle" x="757.5" y="-292.9909" font-family="Times,serif" font-size="9.00" fill="#000000">x&#45;lm2&#45;vec</text>
</g>
<!-- y&#45;lm2&#45;vec -->
<g id="node8" class="node">
<title>y&#45;lm2&#45;vec</title>
<polygon fill="#d3d3d3" stroke="#000000" points="254,-304.1909 201,-304.1909 201,-286.1909 254,-286.1909 254,-304.1909"/>
<text text-anchor="middle" x="227.5" y="-292.9909" font-family="Times,serif" font-size="9.00" fill="#000000">y&#45;lm2&#45;vec</text>
</g>
<!-- y&#45;lm2&#45;vec&#45;&gt;right -->
<g id="edge20" class="edge">
<title>y&#45;lm2&#45;vec&#45;&gt;right</title>
<path fill="none" stroke="#00ff00" stroke-width=".1499" stroke-dasharray="1,5" d="M234.3828,-285.892C242.3821,-275.0846 255.9453,-256.7601 267.3636,-241.3336"/>
<polygon fill="#00ff00" stroke="#00ff00" stroke-width=".1499" points="270.3013,-243.2477 273.4374,-233.1276 264.6748,-239.0831 270.3013,-243.2477"/>
</g>
<!-- y&#45;lm2&#45;vec&#45;&gt;left -->
<g id="edge12" class="edge">
<title>y&#45;lm2&#45;vec&#45;&gt;left</title>
<path fill="none" stroke="#00ff00" stroke-width=".2555" d="M225.3205,-285.892C222.897,-275.5525 218.8609,-258.3325 215.3497,-243.3525"/>
<polygon fill="#00ff00" stroke="#00ff00" stroke-width=".2555" points="218.7188,-242.389 213.0291,-233.4516 211.9035,-243.9865 218.7188,-242.389"/>
</g>
<!-- y&#45;lm2&#45;vec&#45;&gt;backward -->
<g id="edge1" class="edge">
<title>y&#45;lm2&#45;vec&#45;&gt;backward</title>
<path fill="none" stroke="#00ff00" stroke-width=".1493" d="M250.312,-286.0257C272.6003,-277.0315 307.4612,-262.8592 337.5,-250.1909 350.7798,-244.5904 365.2,-238.373 378.2381,-232.7"/>
<polygon fill="#00ff00" stroke="#00ff00" stroke-width=".1493" points="379.6843,-235.8877 387.4515,-228.6819 376.8861,-229.4713 379.6843,-235.8877"/>
</g>
<!-- x&#45;other&#45;vec -->
<g id="node9" class="node">
<title>x&#45;other&#45;vec</title>
<polygon fill="#d3d3d3" stroke="#000000" points="182.5,-304.1909 124.5,-304.1909 124.5,-286.1909 182.5,-286.1909 182.5,-304.1909"/>
<text text-anchor="middle" x="153.5" y="-292.9909" font-family="Times,serif" font-size="9.00" fill="#000000">x&#45;other&#45;vec</text>
</g>
<!-- x&#45;other&#45;vec&#45;&gt;right -->
<g id="edge28" class="edge">
<title>x&#45;other&#45;vec&#45;&gt;right</title>
<path fill="none" stroke="#00ff00" stroke-width=".1161" d="M182.5062,-286.1625C203.9333,-278.6325 233.1397,-266.5028 255.5,-250.1909 259.4348,-247.3205 263.234,-243.8918 266.7561,-240.307"/>
<polygon fill="#00ff00" stroke="#00ff00" stroke-width=".1161" points="269.3975,-242.6049 273.551,-232.8582 264.2259,-237.8873 269.3975,-242.6049"/>
</g>
<!-- x&#45;other&#45;vec&#45;&gt;left -->
<g id="edge22" class="edge">
<title>x&#45;other&#45;vec&#45;&gt;left</title>
<path fill="none" stroke="#00ff00" stroke-width=".2586" d="M159.8092,-285.892C167.5228,-274.5232 180.8804,-254.8359 191.6559,-238.9544"/>
<polygon fill="#00ff00" stroke="#00ff00" stroke-width=".2586" points="194.6061,-240.84 197.3244,-230.5998 188.8135,-236.9098 194.6061,-240.84"/>
</g>
<!-- x&#45;other&#45;vec&#45;&gt;backward -->
<g id="edge26" class="edge">
<title>x&#45;other&#45;vec&#45;&gt;backward</title>
<path fill="none" stroke="#00ff00" stroke-width=".1514" d="M182.803,-288.1623C232.8424,-276.1403 330.1176,-252.6773 337.5,-250.1909 351.1586,-245.5907 365.6861,-239.6567 378.7059,-233.9355"/>
<polygon fill="#00ff00" stroke="#00ff00" stroke-width=".1514" points="380.1866,-237.1075 387.8859,-229.8293 377.3284,-230.7176 380.1866,-237.1075"/>
</g>
<!-- y&#45;other&#45;vec -->
<g id="node10" class="node">
<title>y&#45;other&#45;vec</title>
<polygon fill="#d3d3d3" stroke="#000000" points="384.5,-304.1909 326.5,-304.1909 326.5,-286.1909 384.5,-286.1909 384.5,-304.1909"/>
<text text-anchor="middle" x="355.5" y="-292.9909" font-family="Times,serif" font-size="9.00" fill="#000000">y&#45;other&#45;vec</text>
</g>
<!-- y&#45;other&#45;vec&#45;&gt;none -->
<g id="edge2" class="edge">
<title>y&#45;other&#45;vec&#45;&gt;none</title>
<path fill="none" stroke="#00ff00" stroke-width=".3925" d="M384.6244,-286.7612C417.0254,-277.0699 466.9915,-261.0987 483.5,-250.1909 487.5359,-247.5242 491.4106,-244.2572 494.9957,-240.7894"/>
<polygon fill="#00ff00" stroke="#00ff00" stroke-width=".3925" points="497.555,-243.1771 501.907,-233.5173 492.481,-238.3548 497.555,-243.1771"/>
</g>
<!-- y&#45;other&#45;vec&#45;&gt;left -->
<g id="edge10" class="edge">
<title>y&#45;other&#45;vec&#45;&gt;left</title>
<path fill="none" stroke="#00ff00" stroke-width=".3039" d="M331.2854,-286.1327C310.534,-277.9443 280.1765,-264.938 255.5,-250.1909 247.3778,-245.337 239.0233,-239.3143 231.6526,-233.5898"/>
<polygon fill="#00ff00" stroke="#00ff00" stroke-width=".3039" points="233.5217,-230.6032 223.5246,-227.0947 229.1517,-236.0717 233.5217,-230.6032"/>
</g>
<!-- y&#45;other&#45;vec&#45;&gt;forward -->
<g id="edge7" class="edge">
<title>y&#45;other&#45;vec&#45;&gt;forward</title>
<path fill="none" stroke="#00ff00" stroke-width=".1049" d="M355.6659,-285.9848C356.3271,-265.6908 359.5839,-215.9057 375.5,-178.066 393.9796,-134.1316 427.8825,-90.8131 452.3795,-62.867"/>
<polygon fill="#00ff00" stroke="#00ff00" stroke-width=".1049" points="455.2995,-64.8508 459.3351,-55.0546 450.0714,-60.1959 455.2995,-64.8508"/>
</g>
<!-- y&#45;other&#45;vec&#45;&gt;backward -->
<g id="edge3" class="edge">
<title>y&#45;other&#45;vec&#45;&gt;backward</title>
<path fill="none" stroke="#ff0000" stroke-width=".5237" d="M362.9563,-285.892C369.9706,-277.1445 380.9337,-263.4722 391.4172,-250.398"/>
<polygon fill="#ff0000" stroke="#ff0000" stroke-width=".5237" points="394.3179,-252.3753 397.8432,-242.3842 388.8568,-247.9963 394.3179,-252.3753"/>
</g>
<!-- x&#45;other&#45;vel -->
<g id="node11" class="node">
<title>x&#45;other&#45;vel</title>
<polygon fill="#d3d3d3" stroke="#000000" points="658.5,-304.1909 602.5,-304.1909 602.5,-286.1909 658.5,-286.1909 658.5,-304.1909"/>
<text text-anchor="middle" x="630.5" y="-292.9909" font-family="Times,serif" font-size="9.00" fill="#000000">x&#45;other&#45;vel</text>
</g>
<!-- x&#45;other&#45;vel&#45;&gt;none -->
<g id="edge23" class="edge">
<title>x&#45;other&#45;vel&#45;&gt;none</title>
<path fill="none" stroke="#ff0000" stroke-width=".399" d="M617.2293,-285.9293C604.2628,-276.8637 583.981,-262.64 566.5,-250.1909 559.5119,-245.2144 551.9981,-239.8188 544.9727,-234.7544"/>
<polygon fill="#ff0000" stroke="#ff0000" stroke-width=".399" points="546.568,-231.5893 536.4116,-228.5731 542.4703,-237.2646 546.568,-231.5893"/>
</g>
<!-- x&#45;other&#45;vel&#45;&gt;right -->
<g id="edge29" class="edge">
<title>x&#45;other&#45;vel&#45;&gt;right</title>
<path fill="none" stroke="#ff0000" stroke-width=".4451" d="M602.2672,-288.0927C599.3136,-287.4193 596.3502,-286.772 593.5,-286.1909 497.2786,-266.5721 469.9766,-276.9793 375.5,-250.1909 355.8477,-244.6186 334.6375,-236.0096 317.965,-228.6005"/>
<polygon fill="#ff0000" stroke="#ff0000" stroke-width=".4451" points="319.2719,-225.3502 308.719,-224.4088 316.3816,-231.7256 319.2719,-225.3502"/>
</g>
<!-- x&#45;other&#45;vel&#45;&gt;forward -->
<g id="edge31" class="edge">
<title>x&#45;other&#45;vel&#45;&gt;forward</title>
<path fill="none" stroke="#00ff00" stroke-width=".2314" stroke-dasharray="1,5" d="M628.2879,-285.9938C623.1992,-265.7177 609.5409,-215.9662 589.5,-178.066 567.0744,-135.6558 533.2062,-92.0516 509.3887,-63.6217"/>
<polygon fill="#00ff00" stroke="#00ff00" stroke-width=".2314" points="511.7826,-61.0326 502.6499,-55.6619 506.4401,-65.5556 511.7826,-61.0326"/>
</g>
<!-- x&#45;other&#45;vel&#45;&gt;backward -->
<g id="edge18" class="edge">
<title>x&#45;other&#45;vel&#45;&gt;backward</title>
<path fill="none" stroke="#ff0000" stroke-width=".2592" d="M602.4109,-287.4C566.1036,-277.1904 504.9935,-259.4938 483.5,-250.1909 475.6859,-246.8088 467.6082,-242.7 459.9504,-238.4838"/>
<polygon fill="#ff0000" stroke="#ff0000" stroke-width=".2592" points="461.6204,-235.4072 451.1947,-233.5219 458.1692,-241.4973 461.6204,-235.4072"/>
</g>
<!-- 6 -->
<g id="node18" class="node">
<title>6</title>
<ellipse fill="#ffffff" stroke="#000000" cx="481.5" cy="-120.8528" rx="14.7" ry="14.7"/>
<text text-anchor="middle" x="481.5" y="-118.6528" font-family="Times,serif" font-size="9.00" fill="#000000">6</text>
</g>
<!-- x&#45;other&#45;vel&#45;&gt;6 -->
<g id="edge33" class="edge">
<title>x&#45;other&#45;vel&#45;&gt;6</title>
<path fill="none" stroke="#00ff00" stroke-width=".4378" d="M625.3446,-286.0796C613.4962,-265.5549 582.7748,-214.6408 549.5,-178.066 535.0554,-162.1889 516.2273,-146.6712 502.0464,-135.8114"/>
<polygon fill="#00ff00" stroke="#00ff00" stroke-width=".4378" points="503.9955,-132.8981 493.898,-129.6901 499.7911,-138.4948 503.9955,-132.8981"/>
</g>
<!-- y&#45;other&#45;vel -->
<g id="node12" class="node">
<title>y&#45;other&#45;vel</title>
<polygon fill="#d3d3d3" stroke="#000000" points="512.5,-304.1909 456.5,-304.1909 456.5,-286.1909 512.5,-286.1909 512.5,-304.1909"/>
<text text-anchor="middle" x="484.5" y="-292.9909" font-family="Times,serif" font-size="9.00" fill="#000000">y&#45;other&#45;vel</text>
</g>
<!-- y&#45;other&#45;vel&#45;&gt;none -->
<g id="edge5" class="edge">
<title>y&#45;other&#45;vel&#45;&gt;none</title>
<path fill="none" stroke="#00ff00" stroke-width=".2766" d="M488.1708,-285.892C491.9856,-276.2283 498.1731,-260.5541 503.7938,-246.3159"/>
<polygon fill="#00ff00" stroke="#00ff00" stroke-width=".2766" points="507.1419,-247.3663 507.5583,-236.7796 500.6309,-244.7959 507.1419,-247.3663"/>
</g>
<!-- y&#45;other&#45;vel&#45;&gt;backward -->
<g id="edge15" class="edge">
<title>y&#45;other&#45;vel&#45;&gt;backward</title>
<path fill="none" stroke="#00ff00" stroke-width=".102" d="M477.1584,-285.892C470.3065,-277.2134 459.6274,-263.6872 449.3793,-250.707"/>
<polygon fill="#00ff00" stroke="#00ff00" stroke-width=".102" points="452.0359,-248.4235 443.0921,-242.7437 446.5418,-252.7612 452.0359,-248.4235"/>
</g>
<!-- right&#45;&gt;right -->
<g id="edge9" class="edge">
<title>right&#45;&gt;right</title>
<path fill="none" stroke="#00ff00" stroke-width=".3253" d="M306.6334,-228.191C318.0703,-231.316 328.8345,-226.6285 328.8345,-214.1285 328.8345,-205.5347 323.7468,-200.6336 316.8505,-199.4251"/>
<polygon fill="#00ff00" stroke="#00ff00" stroke-width=".3253" points="316.3946,-195.9467 306.6334,-200.066 316.8329,-202.933 316.3946,-195.9467"/>
</g>
<!-- left&#45;&gt;left -->
<g id="edge4" class="edge">
<title>left&#45;&gt;left</title>
<path fill="none" stroke="#ff0000" stroke-width=".2935" stroke-dasharray="1,5" d="M223.6371,-227.356C234.9236,-231.9751 246.299,-227.566 246.299,-214.1285 246.299,-204.8902 240.9223,-199.9192 233.8944,-199.2155"/>
<polygon fill="#ff0000" stroke="#ff0000" stroke-width=".2935" points="232.9373,-195.8257 223.6371,-200.9009 234.0723,-202.7331 232.9373,-195.8257"/>
</g>
<!-- left&#45;&gt;6 -->
<g id="edge35" class="edge">
<title>left&#45;&gt;6</title>
<path fill="none" stroke="#00ff00" stroke-width=".1148" d="M223.1146,-200.4026C231.9028,-192.8221 243.6528,-183.8065 255.5,-178.066 323.8534,-144.9455 413.4402,-129.6386 456.3978,-123.8266"/>
<polygon fill="#00ff00" stroke="#00ff00" stroke-width=".1148" points="457.0426,-127.2724 466.5113,-122.5191 456.145,-120.3302 457.0426,-127.2724"/>
</g>
<!-- 109 -->
<g id="node19" class="node">
<title>109</title>
<ellipse fill="#ffffff" stroke="#000000" cx="208.5" cy="-120.8528" rx="21.4286" ry="21.4286"/>
<text text-anchor="middle" x="208.5" y="-118.6528" font-family="Times,serif" font-size="9.00" fill="#000000">109</text>
</g>
<!-- left&#45;&gt;109 -->
<g id="edge36" class="edge">
<title>left&#45;&gt;109</title>
<path fill="none" stroke="#00ff00" stroke-width=".305" d="M202.9073,-194.8017C201.7098,-182.3852 201.4416,-165.981 202.1027,-151.7782"/>
<polygon fill="#00ff00" stroke="#00ff00" stroke-width=".305" points="205.6182,-151.659 202.7893,-141.4489 198.6337,-151.1947 205.6182,-151.659"/>
</g>
<!-- forward&#45;&gt;forward -->
<g id="edge21" class="edge">
<title>forward&#45;&gt;forward</title>
<path fill="none" stroke="#ff0000" stroke-width=".4155" d="M508.913,-48.0932C520.9564,-49.5333 531.3198,-44.1089 531.3198,-31.8198 531.3198,-23.1791 526.1963,-17.9321 518.9677,-16.0788"/>
<polygon fill="#ff0000" stroke="#ff0000" stroke-width=".4155" points="519.0841,-12.5802 508.913,-15.5464 518.7139,-19.5704 519.0841,-12.5802"/>
</g>
<!-- backward&#45;&gt;backward -->
<g id="edge32" class="edge">
<title>backward&#45;&gt;backward</title>
<path fill="none" stroke="#ff0000" stroke-width=".1683" d="M453.4935,-229.1202C465.1247,-229.3601 474.5624,-224.3628 474.5624,-214.1285 474.5624,-207.0923 470.1016,-202.5316 463.5341,-200.4461"/>
<polygon fill="#ff0000" stroke="#ff0000" stroke-width=".1683" points="463.8622,-196.9594 453.4935,-199.1367 462.9569,-203.9006 463.8622,-196.9594"/>
</g>
<!-- 6&#45;&gt;forward -->
<g id="edge34" class="edge">
<title>6&#45;&gt;forward</title>
<path fill="none" stroke="#ff0000" stroke-width=".3442" d="M481.5,-105.7496C481.5,-96.9372 481.5,-85.3414 481.5,-73.954"/>
<polygon fill="#ff0000" stroke="#ff0000" stroke-width=".3442" points="485.0001,-73.6406 481.5,-63.6406 478.0001,-73.6407 485.0001,-73.6406"/>
</g>
<!-- 109&#45;&gt;left -->
<g id="edge37" class="edge">
<title>109&#45;&gt;left</title>
<path fill="none" stroke="#ff0000" stroke-width=".1196" d="M214.2107,-141.4489C215.3454,-154.1272 215.551,-170.5846 214.8273,-184.6319"/>
<polygon fill="#ff0000" stroke="#ff0000" stroke-width=".1196" points="211.3223,-184.5755 214.0927,-194.8017 218.3041,-185.0798 211.3223,-184.5755"/>
</g>
</g>
</svg>
