<?xml version="1.0" encoding="UTF-8" standalone="no"?>
<!DOCTYPE svg PUBLIC "-//W3C//DTD SVG 1.1//EN"
 "http://www.w3.org/Graphics/SVG/1.1/DTD/svg11.dtd">
<!-- Generated by graphviz version 2.40.1 (20161225.0304)
 -->
<!-- Title: %3 Pages: 1 -->
<svg width="1163pt" height="305pt"
 viewBox="0.00 0.00 1162.96 305.12" xmlns="http://www.w3.org/2000/svg" xmlns:xlink="http://www.w3.org/1999/xlink">
<g id="graph0" class="graph" transform="scale(1 1) rotate(0) translate(4 301.1198)">
<title>%3</title>
<polygon fill="#ffffff" stroke="transparent" points="-4,4 -4,-301.1198 1158.9619,-301.1198 1158.9619,4 -4,4"/>
<!-- x&#45;vel -->
<g id="node1" class="node">
<title>x&#45;vel</title>
<polygon fill="#d3d3d3" stroke="#000000" points="133.7132,-141.8736 98.7132,-141.8736 98.7132,-123.8736 133.7132,-123.8736 133.7132,-141.8736"/>
<text text-anchor="middle" x="116.2132" y="-130.6736" font-family="Times,serif" font-size="9.00" fill="#000000">x&#45;vel</text>
</g>
<!-- none -->
<g id="node13" class="node">
<title>none</title>
<ellipse fill="#add8e6" stroke="#000000" cx="200.2132" cy="-36.0624" rx="24.0833" ry="24.0833"/>
<text text-anchor="middle" x="200.2132" y="-33.8624" font-family="Times,serif" font-size="9.00" fill="#000000">none</text>
</g>
<!-- x&#45;vel&#45;&gt;none -->
<g id="edge2" class="edge">
<title>x&#45;vel&#45;&gt;none</title>
<path fill="none" stroke="#ff0000" stroke-width=".179" d="M124.2675,-123.591C136.4479,-109.5528 160.0055,-82.4023 177.6694,-62.0445"/>
<polygon fill="#ff0000" stroke="#ff0000" stroke-width=".179" points="180.4417,-64.1899 184.3518,-54.343 175.1545,-59.6024 180.4417,-64.1899"/>
</g>
<!-- y&#45;vel -->
<g id="node2" class="node">
<title>y&#45;vel</title>
<polygon fill="#d3d3d3" stroke="#000000" points="812.7132,-227.3711 777.7132,-227.3711 777.7132,-209.3711 812.7132,-209.3711 812.7132,-227.3711"/>
<text text-anchor="middle" x="795.2132" y="-216.1711" font-family="Times,serif" font-size="9.00" fill="#000000">y&#45;vel</text>
</g>
<!-- y&#45;vel&#45;&gt;none -->
<g id="edge16" class="edge">
<title>y&#45;vel&#45;&gt;none</title>
<path fill="none" stroke="#ff0000" stroke-width=".4677" stroke-dasharray="1,5" d="M777.5391,-217.7676C685.1882,-214.4504 260.7417,-197.1259 219.2132,-157.6224 196.0205,-135.5606 193.47,-97.6737 195.3422,-70.0485"/>
<polygon fill="#ff0000" stroke="#ff0000" stroke-width=".4677" points="198.8344,-70.2906 196.2424,-60.0177 191.8625,-69.6648 198.8344,-70.2906"/>
</g>
<!-- right -->
<g id="node14" class="node">
<title>right</title>
<ellipse fill="#add8e6" stroke="#000000" cx="876.2132" cy="-36.0624" rx="23.1702" ry="23.1702"/>
<text text-anchor="middle" x="876.2132" y="-33.8624" font-family="Times,serif" font-size="9.00" fill="#000000">right</text>
</g>
<!-- y&#45;vel&#45;&gt;right -->
<g id="edge6" class="edge">
<title>y&#45;vel&#45;&gt;right</title>
<path fill="none" stroke="#ff0000" stroke-width=".1432" d="M812.7426,-215.4716C855.8808,-207.9427 965.2107,-186.3416 986.2132,-157.6224 999.1991,-139.8652 996.6714,-127.4789 986.2132,-108.1249 977.4479,-91.9039 935.9545,-67.4651 906.521,-51.6356"/>
<polygon fill="#ff0000" stroke="#ff0000" stroke-width=".1432" points="907.9192,-48.4153 897.4451,-46.82 904.6382,-54.5988 907.9192,-48.4153"/>
</g>
<!-- backward -->
<g id="node17" class="node">
<title>backward</title>
<ellipse fill="#add8e6" stroke="#000000" cx="998.2132" cy="-36.0624" rx="36.125" ry="36.125"/>
<text text-anchor="middle" x="998.2132" y="-33.8624" font-family="Times,serif" font-size="9.00" fill="#000000">backward</text>
</g>
<!-- y&#45;vel&#45;&gt;backward -->
<g id="edge11" class="edge">
<title>y&#45;vel&#45;&gt;backward</title>
<path fill="none" stroke="#00ff00" stroke-width=".5098" stroke-dasharray="1,5" d="M813.0063,-215.9352C859.1652,-209.2156 980.7901,-188.8231 1004.2132,-157.6224 1020.6031,-135.7903 1018.9213,-105.0327 1013.2342,-79.9196"/>
<polygon fill="#00ff00" stroke="#00ff00" stroke-width=".5098" points="1016.5437,-78.7314 1010.6922,-69.899 1009.7586,-80.4526 1016.5437,-78.7314"/>
</g>
<!-- 1288 -->
<g id="node18" class="node">
<title>1288</title>
<ellipse fill="#ffffff" stroke="#000000" cx="253.2132" cy="-132.8736" rx="25" ry="25"/>
<text text-anchor="middle" x="253.2132" y="-130.6736" font-family="Times,serif" font-size="9.00" fill="#000000">1288</text>
</g>
<!-- y&#45;vel&#45;&gt;1288 -->
<g id="edge39" class="edge">
<title>y&#45;vel&#45;&gt;1288</title>
<path fill="none" stroke="#ff0000" stroke-width=".2055" d="M777.4622,-217.4507C698.588,-213.179 379.7104,-193.9371 287.2132,-157.6224 285.0597,-156.7769 282.9184,-155.7616 280.8193,-154.6313"/>
<polygon fill="#ff0000" stroke="#ff0000" stroke-width=".2055" points="282.3152,-151.4391 271.9793,-149.1114 278.6077,-157.3767 282.3152,-151.4391"/>
</g>
<!-- x&#45;pos -->
<g id="node3" class="node">
<title>x&#45;pos</title>
<polygon fill="#d3d3d3" stroke="#000000" points="618.2132,-141.8736 582.2132,-141.8736 582.2132,-123.8736 618.2132,-123.8736 618.2132,-141.8736"/>
<text text-anchor="middle" x="600.2132" y="-130.6736" font-family="Times,serif" font-size="9.00" fill="#000000">x&#45;pos</text>
</g>
<!-- left -->
<g id="node15" class="node">
<title>left</title>
<ellipse fill="#add8e6" stroke="#000000" cx="734.2132" cy="-36.0624" rx="19.6" ry="19.6"/>
<text text-anchor="middle" x="734.2132" y="-33.8624" font-family="Times,serif" font-size="9.00" fill="#000000">left</text>
</g>
<!-- x&#45;pos&#45;&gt;left -->
<g id="edge12" class="edge">
<title>x&#45;pos&#45;&gt;left</title>
<path fill="none" stroke="#00ff00" stroke-width=".1806" d="M609.8019,-123.8558C615.0922,-119.021 621.86,-113.0602 628.2132,-108.1249 654.661,-87.5795 686.6472,-66.2851 708.5191,-52.2232"/>
<polygon fill="#00ff00" stroke="#00ff00" stroke-width=".1806" points="710.6829,-54.9942 717.2279,-46.6627 706.9159,-49.0943 710.6829,-54.9942"/>
</g>
<!-- forward -->
<g id="node16" class="node">
<title>forward</title>
<ellipse fill="#add8e6" stroke="#000000" cx="571.2132" cy="-36.0624" rx="31.6406" ry="31.6406"/>
<text text-anchor="middle" x="571.2132" y="-33.8624" font-family="Times,serif" font-size="9.00" fill="#000000">forward</text>
</g>
<!-- x&#45;pos&#45;&gt;forward -->
<g id="edge26" class="edge">
<title>x&#45;pos&#45;&gt;forward</title>
<path fill="none" stroke="#00ff00" stroke-width=".2771" stroke-dasharray="1,5" d="M597.4326,-123.591C594.1854,-112.751 588.5963,-94.0928 583.4105,-76.7808"/>
<polygon fill="#00ff00" stroke="#00ff00" stroke-width=".2771" points="586.6469,-75.3877 580.4245,-66.8126 579.9413,-77.3964 586.6469,-75.3877"/>
</g>
<!-- y&#45;pos -->
<g id="node4" class="node">
<title>y&#45;pos</title>
<polygon fill="#d3d3d3" stroke="#000000" points="88.2132,-227.3711 52.2132,-227.3711 52.2132,-209.3711 88.2132,-209.3711 88.2132,-227.3711"/>
<text text-anchor="middle" x="70.2132" y="-216.1711" font-family="Times,serif" font-size="9.00" fill="#000000">y&#45;pos</text>
</g>
<!-- y&#45;pos&#45;&gt;none -->
<g id="edge22" class="edge">
<title>y&#45;pos&#45;&gt;none</title>
<path fill="none" stroke="#00ff00" stroke-width=".2617" stroke-dasharray="1,5" d="M69.4558,-209.2077C68.2594,-189.1126 67.941,-140.3943 89.2132,-108.1249 108.0509,-79.5485 142.5516,-59.8282 168.1076,-48.3336"/>
<polygon fill="#00ff00" stroke="#00ff00" stroke-width=".2617" points="169.6106,-51.4972 177.4129,-44.3296 166.8438,-45.0672 169.6106,-51.4972"/>
</g>
<!-- y&#45;pos&#45;&gt;forward -->
<g id="edge3" class="edge">
<title>y&#45;pos&#45;&gt;forward</title>
<path fill="none" stroke="#00ff00" stroke-width=".2593" stroke-dasharray="1,5" d="M88.2688,-216.2935C144.6314,-209.5539 316.3446,-187.0226 363.2132,-157.6224 386.7075,-142.8846 379.2778,-125.0962 401.2132,-108.1249 440.2627,-77.9125 493.8596,-57.9696 530.3646,-46.8751"/>
<polygon fill="#00ff00" stroke="#00ff00" stroke-width=".2593" points="531.5802,-50.1657 540.1813,-43.9794 529.5997,-43.4517 531.5802,-50.1657"/>
</g>
<!-- 983 -->
<g id="node19" class="node">
<title>983</title>
<ellipse fill="#ffffff" stroke="#000000" cx="21.2132" cy="-132.8736" rx="21.4286" ry="21.4286"/>
<text text-anchor="middle" x="21.2132" y="-130.6736" font-family="Times,serif" font-size="9.00" fill="#000000">983</text>
</g>
<!-- y&#45;pos&#45;&gt;983 -->
<g id="edge34" class="edge">
<title>y&#45;pos&#45;&gt;983</title>
<path fill="none" stroke="#00ff00" stroke-width=".2685" stroke-dasharray="1,5" d="M64.9693,-209.2214C58.345,-197.663 46.6471,-177.2518 37.0123,-160.4406"/>
<polygon fill="#00ff00" stroke="#00ff00" stroke-width=".2685" points="39.9264,-158.4863 31.9173,-151.5506 33.8531,-161.9671 39.9264,-158.4863"/>
</g>
<!-- x&#45;lm1&#45;vec -->
<g id="node5" class="node">
<title>x&#45;lm1&#45;vec</title>
<polygon fill="#d3d3d3" stroke="#000000" points="902.7132,-141.8736 849.7132,-141.8736 849.7132,-123.8736 902.7132,-123.8736 902.7132,-141.8736"/>
<text text-anchor="middle" x="876.2132" y="-130.6736" font-family="Times,serif" font-size="9.00" fill="#000000">x&#45;lm1&#45;vec</text>
</g>
<!-- x&#45;lm1&#45;vec&#45;&gt;right -->
<g id="edge18" class="edge">
<title>x&#45;lm1&#45;vec&#45;&gt;right</title>
<path fill="none" stroke="#00ff00" stroke-width="1.1559" d="M876.2132,-123.591C876.2132,-111.292 876.2132,-88.9286 876.2132,-69.8861"/>
<polygon fill="#00ff00" stroke="#00ff00" stroke-width="1.1559" points="879.7133,-69.7335 876.2132,-59.7335 872.7133,-69.7335 879.7133,-69.7335"/>
</g>
<!-- x&#45;lm1&#45;vec&#45;&gt;left -->
<g id="edge35" class="edge">
<title>x&#45;lm1&#45;vec&#45;&gt;left</title>
<path fill="none" stroke="#ff0000" stroke-width=".3479" d="M863.6257,-123.8688C856.9848,-119.1445 848.6856,-113.2821 841.2132,-108.1249 813.3481,-88.8935 781.0808,-67.2462 759.3271,-52.7424"/>
<polygon fill="#ff0000" stroke="#ff0000" stroke-width=".3479" points="761.2367,-49.809 750.9734,-47.1793 757.3567,-55.6353 761.2367,-49.809"/>
</g>
<!-- x&#45;lm1&#45;vec&#45;&gt;forward -->
<g id="edge21" class="edge">
<title>x&#45;lm1&#45;vec&#45;&gt;forward</title>
<path fill="none" stroke="#00ff00" stroke-width=".4216" stroke-dasharray="1,5" d="M865.4932,-123.7657C858.8668,-118.5386 849.9782,-112.2205 841.2132,-108.1249 784.5662,-81.6552 765.6245,-88.2495 705.2132,-72.1249 673.8405,-63.7511 638.359,-54.1986 611.7914,-47.0296"/>
<polygon fill="#00ff00" stroke="#00ff00" stroke-width=".4216" points="612.6393,-43.6333 602.0727,-44.4061 610.815,-50.3914 612.6393,-43.6333"/>
</g>
<!-- x&#45;lm1&#45;vec&#45;&gt;backward -->
<g id="edge5" class="edge">
<title>x&#45;lm1&#45;vec&#45;&gt;backward</title>
<path fill="none" stroke="#00ff00" stroke-width=".2403" d="M887.9111,-123.591C904.8092,-110.1817 936.7838,-84.8088 961.9737,-64.8197"/>
<polygon fill="#00ff00" stroke="#00ff00" stroke-width=".2403" points="964.2284,-67.4987 969.8861,-58.541 959.8771,-62.0154 964.2284,-67.4987"/>
</g>
<!-- y&#45;lm1&#45;vec -->
<g id="node6" class="node">
<title>y&#45;lm1&#45;vec</title>
<polygon fill="#d3d3d3" stroke="#000000" points="689.7132,-141.8736 636.7132,-141.8736 636.7132,-123.8736 689.7132,-123.8736 689.7132,-141.8736"/>
<text text-anchor="middle" x="663.2132" y="-130.6736" font-family="Times,serif" font-size="9.00" fill="#000000">y&#45;lm1&#45;vec</text>
</g>
<!-- y&#45;lm1&#45;vec&#45;&gt;none -->
<g id="edge23" class="edge">
<title>y&#45;lm1&#45;vec&#45;&gt;none</title>
<path fill="none" stroke="#00ff00" stroke-width=".2003" stroke-dasharray="1,5" d="M652.5882,-123.7238C645.7741,-118.3448 636.4928,-111.8822 627.2132,-108.1249 555.3958,-79.0458 322.4104,-50.0765 234.3473,-39.8917"/>
<polygon fill="#00ff00" stroke="#00ff00" stroke-width=".2003" points="234.6808,-36.4071 224.3469,-38.744 233.8826,-43.3614 234.6808,-36.4071"/>
</g>
<!-- y&#45;lm1&#45;vec&#45;&gt;right -->
<g id="edge15" class="edge">
<title>y&#45;lm1&#45;vec&#45;&gt;right</title>
<path fill="none" stroke="#00ff00" stroke-width=".1114" stroke-dasharray="1,5" d="M675.1275,-123.7176C681.949,-118.7261 690.8014,-112.6599 699.2132,-108.1249 747.9312,-81.8601 808.3145,-59.226 844.4739,-46.6434"/>
<polygon fill="#00ff00" stroke="#00ff00" stroke-width=".1114" points="845.6828,-49.9289 854.0004,-43.3663 843.4058,-43.3096 845.6828,-49.9289"/>
</g>
<!-- y&#45;lm1&#45;vec&#45;&gt;left -->
<g id="edge9" class="edge">
<title>y&#45;lm1&#45;vec&#45;&gt;left</title>
<path fill="none" stroke="#ff0000" stroke-width=".2713" stroke-dasharray="1,5" d="M670.021,-123.591C680.5897,-109.1801 701.2922,-80.9515 716.3367,-60.4378"/>
<polygon fill="#ff0000" stroke="#ff0000" stroke-width=".2713" points="719.3002,-62.3151 722.3918,-52.1813 713.6555,-58.1753 719.3002,-62.3151"/>
</g>
<!-- y&#45;lm1&#45;vec&#45;&gt;forward -->
<g id="edge13" class="edge">
<title>y&#45;lm1&#45;vec&#45;&gt;forward</title>
<path fill="none" stroke="#00ff00" stroke-width="1.1016" d="M654.3919,-123.591C642.0292,-110.5818 618.9656,-86.3121 600.2547,-66.6227"/>
<polygon fill="#00ff00" stroke="#00ff00" stroke-width="1.1016" points="602.7539,-64.1718 593.3281,-59.3339 597.6797,-68.9938 602.7539,-64.1718"/>
</g>
<!-- x&#45;lm2&#45;vec -->
<g id="node7" class="node">
<title>x&#45;lm2&#45;vec</title>
<polygon fill="#d3d3d3" stroke="#000000" points="831.7132,-141.8736 778.7132,-141.8736 778.7132,-123.8736 831.7132,-123.8736 831.7132,-141.8736"/>
<text text-anchor="middle" x="805.2132" y="-130.6736" font-family="Times,serif" font-size="9.00" fill="#000000">x&#45;lm2&#45;vec</text>
</g>
<!-- x&#45;lm2&#45;vec&#45;&gt;right -->
<g id="edge17" class="edge">
<title>x&#45;lm2&#45;vec&#45;&gt;right</title>
<path fill="none" stroke="#00ff00" stroke-width="1.5008" d="M812.021,-123.591C822.1038,-109.8427 841.4099,-83.518 856.2272,-63.3141"/>
<polygon fill="#00ff00" stroke="#00ff00" stroke-width="1.5008" points="859.1711,-65.2183 862.2627,-55.0845 853.5264,-61.0785 859.1711,-65.2183"/>
</g>
<!-- x&#45;lm2&#45;vec&#45;&gt;forward -->
<g id="edge25" class="edge">
<title>x&#45;lm2&#45;vec&#45;&gt;forward</title>
<path fill="none" stroke="#00ff00" stroke-width=".1278" d="M794.0454,-123.8076C787.4061,-118.7232 778.6561,-112.536 770.2132,-108.1249 717.8629,-80.7738 652.7946,-59.3584 611.6204,-47.2085"/>
<polygon fill="#00ff00" stroke="#00ff00" stroke-width=".1278" points="612.5231,-43.8261 601.9435,-44.3939 610.5681,-50.5475 612.5231,-43.8261"/>
</g>
<!-- y&#45;lm2&#45;vec -->
<g id="node8" class="node">
<title>y&#45;lm2&#45;vec</title>
<polygon fill="#d3d3d3" stroke="#000000" points="760.7132,-141.8736 707.7132,-141.8736 707.7132,-123.8736 760.7132,-123.8736 760.7132,-141.8736"/>
<text text-anchor="middle" x="734.2132" y="-130.6736" font-family="Times,serif" font-size="9.00" fill="#000000">y&#45;lm2&#45;vec</text>
</g>
<!-- y&#45;lm2&#45;vec&#45;&gt;none -->
<g id="edge24" class="edge">
<title>y&#45;lm2&#45;vec&#45;&gt;none</title>
<path fill="none" stroke="#00ff00" stroke-width="1.1255" stroke-dasharray="1,5" d="M723.9557,-123.6403C717.3582,-118.2298 708.3379,-111.7636 699.2132,-108.1249 655.9805,-90.8847 340.1287,-52.5478 234.5074,-40.071"/>
<polygon fill="#00ff00" stroke="#00ff00" stroke-width="1.1255" points="234.7295,-36.573 224.3887,-38.8789 233.9105,-43.525 234.7295,-36.573"/>
</g>
<!-- y&#45;lm2&#45;vec&#45;&gt;right -->
<g id="edge19" class="edge">
<title>y&#45;lm2&#45;vec&#45;&gt;right</title>
<path fill="none" stroke="#ff0000" stroke-width=".5661" d="M747.5371,-123.6896C754.3201,-119.0203 762.6998,-113.2614 770.2132,-108.1249 796.6921,-90.0228 826.9578,-69.4599 848.3514,-54.9461"/>
<polygon fill="#ff0000" stroke="#ff0000" stroke-width=".5661" points="850.3443,-57.8235 856.6558,-49.3138 846.4151,-52.0303 850.3443,-57.8235"/>
</g>
<!-- y&#45;lm2&#45;vec&#45;&gt;left -->
<g id="edge10" class="edge">
<title>y&#45;lm2&#45;vec&#45;&gt;left</title>
<path fill="none" stroke="#00ff00" stroke-width=".4326" stroke-dasharray="1,5" d="M734.2132,-123.591C734.2132,-110.513 734.2132,-86.0552 734.2132,-66.3109"/>
<polygon fill="#00ff00" stroke="#00ff00" stroke-width=".4326" points="737.7133,-66.2155 734.2132,-56.2155 730.7133,-66.2155 737.7133,-66.2155"/>
</g>
<!-- y&#45;lm2&#45;vec&#45;&gt;forward -->
<g id="edge7" class="edge">
<title>y&#45;lm2&#45;vec&#45;&gt;forward</title>
<path fill="none" stroke="#00ff00" stroke-width="1.5833" d="M722.1131,-123.8548C715.4669,-119.0196 707.0115,-113.0589 699.2132,-108.1249 669.3672,-89.2412 634.3526,-69.699 608.4965,-55.7373"/>
<polygon fill="#00ff00" stroke="#00ff00" stroke-width="1.5833" points="609.8773,-52.5061 599.4115,-50.8576 606.565,-58.6728 609.8773,-52.5061"/>
</g>
<!-- x&#45;other&#45;vec -->
<g id="node9" class="node">
<title>x&#45;other&#45;vec</title>
<polygon fill="#d3d3d3" stroke="#000000" points="547.2132,-297.1198 489.2132,-297.1198 489.2132,-279.1198 547.2132,-279.1198 547.2132,-297.1198"/>
<text text-anchor="middle" x="518.2132" y="-285.9198" font-family="Times,serif" font-size="9.00" fill="#000000">x&#45;other&#45;vec</text>
</g>
<!-- x&#45;other&#45;vec&#45;&gt;none -->
<g id="edge31" class="edge">
<title>x&#45;other&#45;vec&#45;&gt;none</title>
<path fill="none" stroke="#00ff00" stroke-width=".1428" d="M489.1336,-286.6574C422.9778,-281.574 261.6623,-258.8677 193.2132,-157.6224 175.6535,-131.6493 180.7896,-94.9704 188.2178,-68.7081"/>
<polygon fill="#00ff00" stroke="#00ff00" stroke-width=".1428" points="191.6554,-69.4368 191.2494,-58.8498 184.9646,-67.3793 191.6554,-69.4368"/>
</g>
<!-- x&#45;other&#45;vec&#45;&gt;right -->
<g id="edge28" class="edge">
<title>x&#45;other&#45;vec&#45;&gt;right</title>
<path fill="none" stroke="#ff0000" stroke-width=".4447" d="M547.3251,-286.6373C602.1783,-283.2288 724.1433,-272.7127 822.2132,-243.1198 907.7724,-217.3021 956.3019,-233.064 1004.2132,-157.6224 1016.0069,-139.052 1015.3157,-127.1166 1004.2132,-108.1249 998.6603,-98.6262 942.4239,-69.1851 906.3624,-51.006"/>
<polygon fill="#ff0000" stroke="#ff0000" stroke-width=".4447" points="907.7365,-47.7797 897.2287,-46.4245 904.5979,-54.0367 907.7365,-47.7797"/>
</g>
<!-- x&#45;other&#45;vec&#45;&gt;forward -->
<g id="edge8" class="edge">
<title>x&#45;other&#45;vec&#45;&gt;forward</title>
<path fill="none" stroke="#00ff00" stroke-width=".4585" d="M515.6732,-278.7709C508.7356,-251.4967 491.3916,-170.0405 513.2132,-108.1249 518.8184,-92.221 529.5828,-77.2404 540.3313,-65.1011"/>
<polygon fill="#00ff00" stroke="#00ff00" stroke-width=".4585" points="543.0998,-67.2632 547.3379,-57.553 537.9694,-62.5009 543.0998,-67.2632"/>
</g>
<!-- x&#45;other&#45;vec&#45;&gt;983 -->
<g id="edge32" class="edge">
<title>x&#45;other&#45;vec&#45;&gt;983</title>
<path fill="none" stroke="#ff0000" stroke-width=".2882" d="M489.1392,-287.3522C391.0204,-284.4943 76.383,-273.0525 43.2132,-243.1198 21.6597,-223.6698 17.7259,-189.601 18.2129,-164.4689"/>
<polygon fill="#ff0000" stroke="#ff0000" stroke-width=".2882" points="21.7167,-164.4562 18.6538,-154.3138 14.7232,-164.1525 21.7167,-164.4562"/>
</g>
<!-- 571 -->
<g id="node20" class="node">
<title>571</title>
<ellipse fill="#ffffff" stroke="#000000" cx="543.2132" cy="-132.8736" rx="21.4286" ry="21.4286"/>
<text text-anchor="middle" x="543.2132" y="-130.6736" font-family="Times,serif" font-size="9.00" fill="#000000">571</text>
</g>
<!-- x&#45;other&#45;vec&#45;&gt;571 -->
<g id="edge29" class="edge">
<title>x&#45;other&#45;vec&#45;&gt;571</title>
<path fill="none" stroke="#00ff00" stroke-width=".1452" stroke-dasharray="1,5" d="M519.7022,-278.8734C523.2708,-256.7128 532.4437,-199.7507 538.2199,-163.8813"/>
<polygon fill="#00ff00" stroke="#00ff00" stroke-width=".1452" points="541.688,-164.3587 539.8225,-153.9294 534.7771,-163.2458 541.688,-164.3587"/>
</g>
<!-- 1181 -->
<g id="node21" class="node">
<title>1181</title>
<ellipse fill="#ffffff" stroke="#000000" cx="1130.2132" cy="-218.3711" rx="25" ry="25"/>
<text text-anchor="middle" x="1130.2132" y="-216.1711" font-family="Times,serif" font-size="9.00" fill="#000000">1181</text>
</g>
<!-- x&#45;other&#45;vec&#45;&gt;1181 -->
<g id="edge36" class="edge">
<title>x&#45;other&#45;vec&#45;&gt;1181</title>
<path fill="none" stroke="#ff0000" stroke-width=".1281" d="M547.257,-287.6836C648.9913,-285.8705 988.6259,-277.3346 1091.2132,-243.1198 1094.7695,-241.9337 1098.3276,-240.3555 1101.7681,-238.5679"/>
<polygon fill="#ff0000" stroke="#ff0000" stroke-width=".1281" points="1103.6384,-241.529 1110.5191,-233.4726 1100.1161,-235.4798 1103.6384,-241.529"/>
</g>
<!-- y&#45;other&#45;vec -->
<g id="node10" class="node">
<title>y&#45;other&#45;vec</title>
<polygon fill="#d3d3d3" stroke="#000000" points="354.2132,-141.8736 296.2132,-141.8736 296.2132,-123.8736 354.2132,-123.8736 354.2132,-141.8736"/>
<text text-anchor="middle" x="325.2132" y="-130.6736" font-family="Times,serif" font-size="9.00" fill="#000000">y&#45;other&#45;vec</text>
</g>
<!-- y&#45;other&#45;vec&#45;&gt;none -->
<g id="edge14" class="edge">
<title>y&#45;other&#45;vec&#45;&gt;none</title>
<path fill="none" stroke="#ff0000" stroke-width=".7515" stroke-dasharray="1,5" d="M313.2277,-123.591C293.5982,-108.3881 254.1127,-77.807 227.414,-57.1292"/>
<polygon fill="#ff0000" stroke="#ff0000" stroke-width=".7515" points="229.2855,-54.1517 219.2362,-50.7956 224.9992,-59.686 229.2855,-54.1517"/>
</g>
<!-- y&#45;other&#45;vec&#45;&gt;forward -->
<g id="edge41" class="edge">
<title>y&#45;other&#45;vec&#45;&gt;forward</title>
<path fill="none" stroke="#00ff00" stroke-width=".268" d="M339.5912,-123.7222C347.7851,-118.732 358.3559,-112.6657 368.2132,-108.1249 422.9708,-82.9005 489.2634,-60.8686 530.8495,-48.0111"/>
<polygon fill="#00ff00" stroke="#00ff00" stroke-width=".268" points="532.0753,-51.2962 540.6119,-45.0211 530.0254,-44.6031 532.0753,-51.2962"/>
</g>
<!-- x&#45;other&#45;vel -->
<g id="node11" class="node">
<title>x&#45;other&#45;vel</title>
<polygon fill="#d3d3d3" stroke="#000000" points="466.2132,-141.8736 410.2132,-141.8736 410.2132,-123.8736 466.2132,-123.8736 466.2132,-141.8736"/>
<text text-anchor="middle" x="438.2132" y="-130.6736" font-family="Times,serif" font-size="9.00" fill="#000000">x&#45;other&#45;vel</text>
</g>
<!-- x&#45;other&#45;vel&#45;&gt;forward -->
<g id="edge27" class="edge">
<title>x&#45;other&#45;vel&#45;&gt;forward</title>
<path fill="none" stroke="#00ff00" stroke-width=".4024" stroke-dasharray="1,5" d="M450.9658,-123.591C470.5868,-109.3088 508.8533,-81.4545 536.9688,-60.9891"/>
<polygon fill="#00ff00" stroke="#00ff00" stroke-width=".4024" points="539.3113,-63.613 545.3365,-54.8982 535.1918,-57.9536 539.3113,-63.613"/>
</g>
<!-- y&#45;other&#45;vel -->
<g id="node12" class="node">
<title>y&#45;other&#45;vel</title>
<polygon fill="#d3d3d3" stroke="#000000" points="977.2132,-141.8736 921.2132,-141.8736 921.2132,-123.8736 977.2132,-123.8736 977.2132,-141.8736"/>
<text text-anchor="middle" x="949.2132" y="-130.6736" font-family="Times,serif" font-size="9.00" fill="#000000">y&#45;other&#45;vel</text>
</g>
<!-- y&#45;other&#45;vel&#45;&gt;right -->
<g id="edge4" class="edge">
<title>y&#45;other&#45;vel&#45;&gt;right</title>
<path fill="none" stroke="#ff0000" stroke-width=".1168" d="M942.2137,-123.591C931.7844,-109.7599 911.7573,-83.2004 896.4874,-62.9496"/>
<polygon fill="#ff0000" stroke="#ff0000" stroke-width=".1168" points="899.0914,-60.5897 890.2762,-54.7125 893.5023,-64.8042 899.0914,-60.5897"/>
</g>
<!-- y&#45;other&#45;vel&#45;&gt;left -->
<g id="edge1" class="edge">
<title>y&#45;other&#45;vel&#45;&gt;left</title>
<path fill="none" stroke="#ff0000" stroke-width=".2592" d="M936.9366,-123.7353C929.9157,-118.7493 920.8181,-112.6827 912.2132,-108.1249 861.6676,-81.3521 798.9251,-58.0985 763.0354,-45.6718"/>
<polygon fill="#ff0000" stroke="#ff0000" stroke-width=".2592" points="763.8242,-42.2425 753.2296,-42.3152 761.5572,-48.8652 763.8242,-42.2425"/>
</g>
<!-- y&#45;other&#45;vel&#45;&gt;backward -->
<g id="edge20" class="edge">
<title>y&#45;other&#45;vel&#45;&gt;backward</title>
<path fill="none" stroke="#00ff00" stroke-width="1.5683" d="M953.9115,-123.591C959.2876,-112.9692 968.4632,-94.8406 977.0742,-77.8275"/>
<polygon fill="#00ff00" stroke="#00ff00" stroke-width="1.5683" points="980.3792,-79.0482 981.7723,-68.5453 974.1336,-75.887 980.3792,-79.0482"/>
</g>
<!-- 1288&#45;&gt;none -->
<g id="edge40" class="edge">
<title>1288&#45;&gt;none</title>
<path fill="none" stroke="#00ff00" stroke-width=".2112" d="M241.1867,-110.9057C233.9713,-97.7258 224.6908,-80.7738 216.7873,-66.3371"/>
<polygon fill="#00ff00" stroke="#00ff00" stroke-width=".2112" points="219.7001,-64.369 211.8279,-57.2781 213.5599,-67.7305 219.7001,-64.369"/>
</g>
<!-- 983&#45;&gt;none -->
<g id="edge33" class="edge">
<title>983&#45;&gt;none</title>
<path fill="none" stroke="#00ff00" stroke-width=".1081" stroke-dasharray="1,5" d="M38.3125,-120.0038C43.8992,-116.0117 50.2122,-111.72 56.2132,-108.1249 93.7032,-85.6657 139.104,-63.764 168.774,-50.114"/>
<polygon fill="#00ff00" stroke="#00ff00" stroke-width=".1081" points="170.5548,-53.1486 178.1987,-45.8123 167.6482,-46.7805 170.5548,-53.1486"/>
</g>
<!-- 571&#45;&gt;forward -->
<g id="edge30" class="edge">
<title>571&#45;&gt;forward</title>
<path fill="none" stroke="#ff0000" stroke-width=".1647" stroke-dasharray="1,5" d="M549.1513,-112.3425C552.166,-101.919 555.9373,-88.8796 559.5045,-76.5456"/>
<polygon fill="#ff0000" stroke="#ff0000" stroke-width=".1647" points="562.8871,-77.4475 562.3033,-66.8687 556.1627,-75.5026 562.8871,-77.4475"/>
</g>
<!-- 1181&#45;&gt;backward -->
<g id="edge38" class="edge">
<title>1181&#45;&gt;backward</title>
<path fill="none" stroke="#00ff00" stroke-width=".2283" d="M1126.8535,-193.6282C1122.6526,-169.8961 1113.639,-133.9549 1095.2132,-108.1249 1080.6334,-87.6863 1058.4877,-70.6089 1039.0358,-58.2166"/>
<polygon fill="#00ff00" stroke="#00ff00" stroke-width=".2283" points="1040.6761,-55.1165 1030.3249,-52.8573 1037.008,-61.0785 1040.6761,-55.1165"/>
</g>
<!-- 1181&#45;&gt;571 -->
<g id="edge37" class="edge">
<title>1181&#45;&gt;571</title>
<path fill="none" stroke="#00ff00" stroke-width=".2427" d="M1105.2956,-216.4993C1003.5774,-208.7439 622.8437,-178.5593 573.2132,-157.6224 570.8726,-156.6349 568.5719,-155.4032 566.35,-154.0202"/>
<polygon fill="#00ff00" stroke="#00ff00" stroke-width=".2427" points="568.3999,-151.1833 558.2533,-148.1341 564.2838,-156.8453 568.3999,-151.1833"/>
</g>
</g>
</svg>
