<?xml version="1.0" encoding="UTF-8" standalone="no"?>
<!DOCTYPE svg PUBLIC "-//W3C//DTD SVG 1.1//EN"
 "http://www.w3.org/Graphics/SVG/1.1/DTD/svg11.dtd">
<!-- Generated by graphviz version 2.40.1 (20161225.0304)
 -->
<!-- Title: %3 Pages: 1 -->
<svg width="1444pt" height="553pt"
 viewBox="0.00 0.00 1443.77 553.13" xmlns="http://www.w3.org/2000/svg" xmlns:xlink="http://www.w3.org/1999/xlink">
<g id="graph0" class="graph" transform="scale(1 1) rotate(0) translate(4 549.127)">
<title>%3</title>
<polygon fill="#ffffff" stroke="transparent" points="-4,4 -4,-549.127 1439.7717,-549.127 1439.7717,4 -4,4"/>
<!-- x&#45;vel -->
<g id="node1" class="node">
<title>x&#45;vel</title>
<polygon fill="#d3d3d3" stroke="#000000" points="82.0585,-400.4874 47.0585,-400.4874 47.0585,-382.4874 82.0585,-382.4874 82.0585,-400.4874"/>
<text text-anchor="middle" x="64.5585" y="-389.2874" font-family="Times,serif" font-size="9.00" fill="#000000">x&#45;vel</text>
</g>
<!-- none -->
<g id="node13" class="node">
<title>none</title>
<ellipse fill="#add8e6" stroke="#000000" cx="297.5585" cy="-102.468" rx="24.0833" ry="24.0833"/>
<text text-anchor="middle" x="297.5585" y="-100.268" font-family="Times,serif" font-size="9.00" fill="#000000">none</text>
</g>
<!-- x&#45;vel&#45;&gt;none -->
<g id="edge26" class="edge">
<title>x&#45;vel&#45;&gt;none</title>
<path fill="none" stroke="#00ff00" stroke-width=".3967" stroke-dasharray="1,5" d="M64.964,-382.2139C66.9451,-348.1564 78.3125,-228.536 141.5585,-162.5097 174.1228,-128.5138 228.0565,-113.4933 263.2018,-107.0506"/>
<polygon fill="#00ff00" stroke="#00ff00" stroke-width=".3967" points="264.1852,-110.434 273.4613,-105.3149 263.0176,-103.5321 264.1852,-110.434"/>
</g>
<!-- backward -->
<g id="node17" class="node">
<title>backward</title>
<ellipse fill="#add8e6" stroke="#000000" cx="166.5585" cy="-298.2117" rx="36.125" ry="36.125"/>
<text text-anchor="middle" x="166.5585" y="-296.0117" font-family="Times,serif" font-size="9.00" fill="#000000">backward</text>
</g>
<!-- x&#45;vel&#45;&gt;backward -->
<g id="edge3" class="edge">
<title>x&#45;vel&#45;&gt;backward</title>
<path fill="none" stroke="#00ff00" stroke-width=".3785" stroke-dasharray="1,5" d="M74.7115,-382.2027C88.0267,-370.0264 112.0621,-348.0469 132.2058,-329.6262"/>
<polygon fill="#00ff00" stroke="#00ff00" stroke-width=".3785" points="134.6873,-332.0997 139.705,-322.7683 129.9634,-326.9339 134.6873,-332.0997"/>
</g>
<!-- y&#45;vel -->
<g id="node2" class="node">
<title>y&#45;vel</title>
<polygon fill="#d3d3d3" stroke="#000000" points="343.0585,-400.4874 308.0585,-400.4874 308.0585,-382.4874 343.0585,-382.4874 343.0585,-400.4874"/>
<text text-anchor="middle" x="325.5585" y="-389.2874" font-family="Times,serif" font-size="9.00" fill="#000000">y&#45;vel</text>
</g>
<!-- y&#45;vel&#45;&gt;none -->
<g id="edge17" class="edge">
<title>y&#45;vel&#45;&gt;none</title>
<path fill="none" stroke="#00ff00" stroke-width=".3682" d="M321.1591,-382.4566C309.5273,-358.0142 278.1304,-288.2237 267.5585,-226.1493 262.8097,-198.2665 261.0639,-190.0382 267.5585,-162.5097 270.0468,-151.9623 274.6864,-141.1543 279.5859,-131.6671"/>
<polygon fill="#00ff00" stroke="#00ff00" stroke-width=".3682" points="282.7741,-133.1317 284.5019,-122.6787 276.6326,-129.7727 282.7741,-133.1317"/>
</g>
<!-- left -->
<g id="node15" class="node">
<title>left</title>
<ellipse fill="#add8e6" stroke="#000000" cx="1040.5585" cy="-298.2117" rx="19.6" ry="19.6"/>
<text text-anchor="middle" x="1040.5585" y="-296.0117" font-family="Times,serif" font-size="9.00" fill="#000000">left</text>
</g>
<!-- y&#45;vel&#45;&gt;left -->
<g id="edge6" class="edge">
<title>y&#45;vel&#45;&gt;left</title>
<path fill="none" stroke="#ff0000" stroke-width=".4116" d="M343.1158,-386.3686C360.9434,-381.393 389.4259,-374.0507 414.5585,-370.2742 660.7536,-333.2798 734.2292,-402.8464 973.5585,-334.2742 988.2316,-330.07 1003.3085,-322.3143 1015.4355,-315.0696"/>
<polygon fill="#ff0000" stroke="#ff0000" stroke-width=".4116" points="1017.4337,-317.9485 1024.0784,-309.6963 1013.7379,-312.0037 1017.4337,-317.9485"/>
</g>
<!-- forward -->
<g id="node16" class="node">
<title>forward</title>
<ellipse fill="#add8e6" stroke="#000000" cx="631.5585" cy="-194.3295" rx="31.6406" ry="31.6406"/>
<text text-anchor="middle" x="631.5585" y="-192.1295" font-family="Times,serif" font-size="9.00" fill="#000000">forward</text>
</g>
<!-- y&#45;vel&#45;&gt;forward -->
<g id="edge40" class="edge">
<title>y&#45;vel&#45;&gt;forward</title>
<path fill="none" stroke="#00ff00" stroke-width=".4525" d="M323.6903,-382.2235C319.5448,-358.7757 312.2583,-296.5043 343.5585,-262.1493 376.2845,-226.2293 517.9402,-206.36 589.6434,-198.436"/>
<polygon fill="#00ff00" stroke="#00ff00" stroke-width=".4525" points="590.1263,-201.9043 599.6937,-197.3531 589.3763,-194.9446 590.1263,-201.9043"/>
</g>
<!-- y&#45;vel&#45;&gt;backward -->
<g id="edge28" class="edge">
<title>y&#45;vel&#45;&gt;backward</title>
<path fill="none" stroke="#00ff00" stroke-width=".3351" d="M312.3021,-382.4023C306.593,-378.5674 299.8062,-374.1112 293.5585,-370.2742 265.1804,-352.8458 232.4845,-334.3283 207.3749,-320.4289"/>
<polygon fill="#00ff00" stroke="#00ff00" stroke-width=".3351" points="208.936,-317.2929 198.4893,-315.5275 205.555,-323.4222 208.936,-317.2929"/>
</g>
<!-- x&#45;pos -->
<g id="node3" class="node">
<title>x&#45;pos</title>
<polygon fill="#d3d3d3" stroke="#000000" points="459.5585,-400.4874 423.5585,-400.4874 423.5585,-382.4874 459.5585,-382.4874 459.5585,-400.4874"/>
<text text-anchor="middle" x="441.5585" y="-389.2874" font-family="Times,serif" font-size="9.00" fill="#000000">x&#45;pos</text>
</g>
<!-- x&#45;pos&#45;&gt;none -->
<g id="edge14" class="edge">
<title>x&#45;pos&#45;&gt;none</title>
<path fill="none" stroke="#00ff00" stroke-width=".2635" stroke-dasharray="1,5" d="M442.4698,-382.4112C445.3137,-349.0423 450.7935,-231.5201 395.5585,-162.5097 378.2587,-140.8953 350.9235,-125.0731 329.5131,-115.1136"/>
<polygon fill="#00ff00" stroke="#00ff00" stroke-width=".2635" points="330.7097,-111.8153 320.1502,-110.9505 327.8656,-118.2115 330.7097,-111.8153"/>
</g>
<!-- x&#45;pos&#45;&gt;left -->
<g id="edge8" class="edge">
<title>x&#45;pos&#45;&gt;left</title>
<path fill="none" stroke="#ff0000" stroke-width=".2978" stroke-dasharray="1,5" d="M459.6984,-389.9544C547.19,-382.5043 923.4247,-349.8072 973.5585,-334.2742 988.1383,-329.7569 1003.2061,-321.9707 1015.3511,-314.7868"/>
<polygon fill="#ff0000" stroke="#ff0000" stroke-width=".2978" points="1017.3178,-317.6865 1024.0123,-309.4747 1013.658,-311.7194 1017.3178,-317.6865"/>
</g>
<!-- x&#45;pos&#45;&gt;forward -->
<g id="edge13" class="edge">
<title>x&#45;pos&#45;&gt;forward</title>
<path fill="none" stroke="#ff0000" stroke-width=".6932" d="M446.8259,-382.3851C463.6443,-353.34 515.102,-264.6191 517.5585,-262.1493 539.2071,-240.3832 569.2211,-222.8958 593.0184,-211.133"/>
<polygon fill="#ff0000" stroke="#ff0000" stroke-width=".6932" points="594.6342,-214.2398 602.1325,-206.7548 591.603,-207.9301 594.6342,-214.2398"/>
</g>
<!-- x&#45;pos&#45;&gt;backward -->
<g id="edge9" class="edge">
<title>x&#45;pos&#45;&gt;backward</title>
<path fill="none" stroke="#ff0000" stroke-width=".1629" d="M423.5472,-385.3997C392.6502,-374.9546 327.5575,-352.9395 272.5585,-334.2742 252.1808,-327.3585 229.6053,-319.6803 210.5433,-313.1923"/>
<polygon fill="#ff0000" stroke="#ff0000" stroke-width=".1629" points="211.52,-309.8277 200.9256,-309.9184 209.2642,-316.4542 211.52,-309.8277"/>
</g>
<!-- 397 -->
<g id="node19" class="node">
<title>397</title>
<ellipse fill="#ffffff" stroke="#000000" cx="365.5585" cy="-194.3295" rx="21.4286" ry="21.4286"/>
<text text-anchor="middle" x="365.5585" y="-192.1295" font-family="Times,serif" font-size="9.00" fill="#000000">397</text>
</g>
<!-- x&#45;pos&#45;&gt;397 -->
<g id="edge60" class="edge">
<title>x&#45;pos&#45;&gt;397</title>
<path fill="none" stroke="#00ff00" stroke-width=".8545" stroke-dasharray="1,5" d="M439.6466,-382.4673C434.9524,-361.0612 421.8918,-305.725 403.5585,-262.1493 397.6359,-248.0722 389.5247,-233.1892 382.3168,-220.9631"/>
<polygon fill="#00ff00" stroke="#00ff00" stroke-width=".8545" points="385.1899,-218.9494 377.0322,-212.189 379.1935,-222.561 385.1899,-218.9494"/>
</g>
<!-- 465 -->
<g id="node27" class="node">
<title>465</title>
<ellipse fill="#ffffff" stroke="#000000" cx="297.5585" cy="-194.3295" rx="21.4286" ry="21.4286"/>
<text text-anchor="middle" x="297.5585" y="-192.1295" font-family="Times,serif" font-size="9.00" fill="#000000">465</text>
</g>
<!-- x&#45;pos&#45;&gt;465 -->
<g id="edge65" class="edge">
<title>x&#45;pos&#45;&gt;465</title>
<path fill="none" stroke="#ff0000" stroke-width=".132" d="M423.3269,-385.4175C401.3509,-377.1976 364.7411,-360.4703 343.5585,-334.2742 317.9537,-302.6092 306.4047,-256.1954 301.3322,-225.6296"/>
<polygon fill="#ff0000" stroke="#ff0000" stroke-width=".132" points="304.7598,-224.889 299.7956,-215.5292 297.8395,-225.9418 304.7598,-224.889"/>
</g>
<!-- 228 -->
<g id="node30" class="node">
<title>228</title>
<ellipse fill="#ffffff" stroke="#000000" cx="547.5585" cy="-298.2117" rx="21.4286" ry="21.4286"/>
<text text-anchor="middle" x="547.5585" y="-296.0117" font-family="Times,serif" font-size="9.00" fill="#000000">228</text>
</g>
<!-- x&#45;pos&#45;&gt;228 -->
<g id="edge64" class="edge">
<title>x&#45;pos&#45;&gt;228</title>
<path fill="none" stroke="#00ff00" stroke-width=".3501" d="M453.7356,-382.4009C468.1796,-371.46 492.7896,-352.3001 512.5585,-334.2742 517.019,-330.207 521.6249,-325.7041 525.9719,-321.2981"/>
<polygon fill="#00ff00" stroke="#00ff00" stroke-width=".3501" points="528.5301,-323.6876 532.9717,-314.0687 523.5011,-318.8184 528.5301,-323.6876"/>
</g>
<!-- 494 -->
<g id="node32" class="node">
<title>494</title>
<ellipse fill="#ffffff" stroke="#000000" cx="373.5585" cy="-298.2117" rx="21.4286" ry="21.4286"/>
<text text-anchor="middle" x="373.5585" y="-296.0117" font-family="Times,serif" font-size="9.00" fill="#000000">494</text>
</g>
<!-- x&#45;pos&#45;&gt;494 -->
<g id="edge69" class="edge">
<title>x&#45;pos&#45;&gt;494</title>
<path fill="none" stroke="#ff0000" stroke-width=".183" d="M434.7898,-382.2027C424.9574,-368.7157 406.3567,-343.2011 392.2258,-323.8177"/>
<polygon fill="#ff0000" stroke="#ff0000" stroke-width=".183" points="395.0081,-321.6929 386.2889,-315.6741 389.3517,-325.8166 395.0081,-321.6929"/>
</g>
<!-- y&#45;pos -->
<g id="node4" class="node">
<title>y&#45;pos</title>
<polygon fill="#d3d3d3" stroke="#000000" points="750.5585,-400.4874 714.5585,-400.4874 714.5585,-382.4874 750.5585,-382.4874 750.5585,-400.4874"/>
<text text-anchor="middle" x="732.5585" y="-389.2874" font-family="Times,serif" font-size="9.00" fill="#000000">y&#45;pos</text>
</g>
<!-- y&#45;pos&#45;&gt;none -->
<g id="edge20" class="edge">
<title>y&#45;pos&#45;&gt;none</title>
<path fill="none" stroke="#00ff00" stroke-width=".2519" d="M736.2404,-382.2224C744.245,-360.7479 761.5824,-306.0544 749.5585,-262.1493 735.9646,-212.5115 733.2115,-191.3094 690.5585,-162.5097 632.0682,-123.0165 416.2348,-108.3055 331.7681,-103.985"/>
<polygon fill="#00ff00" stroke="#00ff00" stroke-width=".2519" points="331.8342,-100.4841 321.6737,-103.4866 331.4889,-107.4756 331.8342,-100.4841"/>
</g>
<!-- right -->
<g id="node14" class="node">
<title>right</title>
<ellipse fill="#add8e6" stroke="#000000" cx="1097.5585" cy="-102.468" rx="23.1702" ry="23.1702"/>
<text text-anchor="middle" x="1097.5585" y="-100.268" font-family="Times,serif" font-size="9.00" fill="#000000">right</text>
</g>
<!-- y&#45;pos&#45;&gt;right -->
<g id="edge1" class="edge">
<title>y&#45;pos&#45;&gt;right</title>
<path fill="none" stroke="#ff0000" stroke-width=".7548" stroke-dasharray="1,5" d="M747.4208,-382.3928C764.3622,-371.7426 792.5526,-353.1452 814.5585,-334.2742 894.6812,-265.5654 893.7661,-225.3651 978.5585,-162.5097 1005.9654,-142.1933 1041.2725,-125.3639 1066.2906,-114.7434"/>
<polygon fill="#ff0000" stroke="#ff0000" stroke-width=".7548" points="1067.7748,-117.9169 1075.6671,-110.8485 1065.0895,-111.4524 1067.7748,-117.9169"/>
</g>
<!-- y&#45;pos&#45;&gt;forward -->
<g id="edge21" class="edge">
<title>y&#45;pos&#45;&gt;forward</title>
<path fill="none" stroke="#ff0000" stroke-width=".114" stroke-dasharray="1,5" d="M720.3766,-382.2538C707.5063,-371.8953 687.4611,-353.9484 675.5585,-334.2742 657.1027,-303.768 645.674,-264.7765 639.106,-235.7029"/>
<polygon fill="#ff0000" stroke="#ff0000" stroke-width=".114" points="642.5132,-234.8993 636.982,-225.863 635.6708,-236.3764 642.5132,-234.8993"/>
</g>
<!-- y&#45;pos&#45;&gt;backward -->
<g id="edge5" class="edge">
<title>y&#45;pos&#45;&gt;backward</title>
<path fill="none" stroke="#ff0000" stroke-width=".2073" stroke-dasharray="1,5" d="M714.2732,-389.1615C658.5127,-381.9909 485.7632,-359.1989 343.5585,-334.2742 298.7161,-326.4145 247.8136,-315.8722 212.144,-308.2173"/>
<polygon fill="#ff0000" stroke="#ff0000" stroke-width=".2073" points="212.5597,-304.7265 202.0466,-306.0401 211.0843,-311.5693 212.5597,-304.7265"/>
</g>
<!-- 551 -->
<g id="node22" class="node">
<title>551</title>
<ellipse fill="#ffffff" stroke="#000000" cx="844.5585" cy="-194.3295" rx="21.4286" ry="21.4286"/>
<text text-anchor="middle" x="844.5585" y="-192.1295" font-family="Times,serif" font-size="9.00" fill="#000000">551</text>
</g>
<!-- y&#45;pos&#45;&gt;551 -->
<g id="edge73" class="edge">
<title>y&#45;pos&#45;&gt;551</title>
<path fill="none" stroke="#ff0000" stroke-width=".3048" d="M741.9975,-382.4777C752.8338,-371.7605 770.6436,-352.9603 782.5585,-334.2742 805.1793,-298.798 823.5353,-253.6727 834.2489,-224.4043"/>
<polygon fill="#ff0000" stroke="#ff0000" stroke-width=".3048" points="837.6283,-225.3494 837.7142,-214.7549 831.0403,-222.9835 837.6283,-225.3494"/>
</g>
<!-- y&#45;pos&#45;&gt;228 -->
<g id="edge49" class="edge">
<title>y&#45;pos&#45;&gt;228</title>
<path fill="none" stroke="#ff0000" stroke-width=".8742" stroke-dasharray="1,5" d="M714.3942,-388.0061C683.877,-381.4912 621.3621,-365.2334 577.5585,-334.2742 573.4517,-331.3716 569.5807,-327.7711 566.0706,-323.9783"/>
<polygon fill="#ff0000" stroke="#ff0000" stroke-width=".8742" points="568.5355,-321.4721 559.4126,-316.0847 563.1847,-325.9853 568.5355,-321.4721"/>
</g>
<!-- x&#45;lm1&#45;vec -->
<g id="node5" class="node">
<title>x&#45;lm1&#45;vec</title>
<polygon fill="#d3d3d3" stroke="#000000" points="989.0585,-478.9138 936.0585,-478.9138 936.0585,-460.9138 989.0585,-460.9138 989.0585,-478.9138"/>
<text text-anchor="middle" x="962.5585" y="-467.7138" font-family="Times,serif" font-size="9.00" fill="#000000">x&#45;lm1&#45;vec</text>
</g>
<!-- x&#45;lm1&#45;vec&#45;&gt;left -->
<g id="edge29" class="edge">
<title>x&#45;lm1&#45;vec&#45;&gt;left</title>
<path fill="none" stroke="#00ff00" stroke-width=".1291" stroke-dasharray="1,5" d="M970.25,-460.7305C979.0509,-449.8502 993.4225,-430.8969 1002.5585,-412.7006 1016.4741,-384.9845 1027.0059,-351.0239 1033.4123,-327.3174"/>
<polygon fill="#00ff00" stroke="#00ff00" stroke-width=".1291" points="1036.8303,-328.081 1035.9829,-317.5201 1030.0595,-326.3044 1036.8303,-328.081"/>
</g>
<!-- 96 -->
<g id="node29" class="node">
<title>96</title>
<ellipse fill="#ffffff" stroke="#000000" cx="920.5585" cy="-391.4874" rx="18.2703" ry="18.2703"/>
<text text-anchor="middle" x="920.5585" y="-389.2874" font-family="Times,serif" font-size="9.00" fill="#000000">96</text>
</g>
<!-- x&#45;lm1&#45;vec&#45;&gt;96 -->
<g id="edge72" class="edge">
<title>x&#45;lm1&#45;vec&#45;&gt;96</title>
<path fill="none" stroke="#00ff00" stroke-width=".3244" d="M957.5756,-460.6093C951.8174,-449.8569 942.1034,-431.7181 934.071,-416.7193"/>
<polygon fill="#00ff00" stroke="#00ff00" stroke-width=".3244" points="937.1439,-415.0435 929.3375,-407.8804 930.9731,-418.3482 937.1439,-415.0435"/>
</g>
<!-- y&#45;lm1&#45;vec -->
<g id="node6" class="node">
<title>y&#45;lm1&#45;vec</title>
<polygon fill="#d3d3d3" stroke="#000000" points="1222.0585,-478.9138 1169.0585,-478.9138 1169.0585,-460.9138 1222.0585,-460.9138 1222.0585,-478.9138"/>
<text text-anchor="middle" x="1195.5585" y="-467.7138" font-family="Times,serif" font-size="9.00" fill="#000000">y&#45;lm1&#45;vec</text>
</g>
<!-- y&#45;lm1&#45;vec&#45;&gt;right -->
<g id="edge24" class="edge">
<title>y&#45;lm1&#45;vec&#45;&gt;right</title>
<path fill="none" stroke="#ff0000" stroke-width=".4014" stroke-dasharray="1,5" d="M1197.6174,-460.8523C1205.9393,-421.995 1233.9792,-266.7077 1176.5585,-162.5097 1165.755,-142.9052 1145.5661,-127.7336 1128.3025,-117.5456"/>
<polygon fill="#ff0000" stroke="#ff0000" stroke-width=".4014" points="1129.5282,-114.2214 1119.0908,-112.4019 1126.1154,-120.3331 1129.5282,-114.2214"/>
</g>
<!-- y&#45;lm1&#45;vec&#45;&gt;left -->
<g id="edge18" class="edge">
<title>y&#45;lm1&#45;vec&#45;&gt;left</title>
<path fill="none" stroke="#00ff00" stroke-width=".2219" stroke-dasharray="1,5" d="M1179.7352,-460.8196C1162.8043,-450.5804 1135.7921,-432.7347 1116.5585,-412.7006 1090.8869,-385.9606 1068.3812,-349.5053 1054.6551,-324.978"/>
<polygon fill="#00ff00" stroke="#00ff00" stroke-width=".2219" points="1057.547,-322.9728 1049.6661,-315.8916 1051.411,-326.3418 1057.547,-322.9728"/>
</g>
<!-- 9 -->
<g id="node18" class="node">
<title>9</title>
<ellipse fill="#ffffff" stroke="#000000" cx="1146.5585" cy="-298.2117" rx="14.7" ry="14.7"/>
<text text-anchor="middle" x="1146.5585" y="-296.0117" font-family="Times,serif" font-size="9.00" fill="#000000">9</text>
</g>
<!-- y&#45;lm1&#45;vec&#45;&gt;9 -->
<g id="edge33" class="edge">
<title>y&#45;lm1&#45;vec&#45;&gt;9</title>
<path fill="none" stroke="#00ff00" stroke-width=".1408" d="M1194.4472,-460.6954C1192.1644,-442.9297 1186.3247,-402.8286 1176.5585,-370.2742 1171.4823,-353.3533 1163.7968,-334.9793 1157.4757,-321.0197"/>
<polygon fill="#00ff00" stroke="#00ff00" stroke-width=".1408" points="1160.5476,-319.324 1153.1709,-311.7191 1154.195,-322.2643 1160.5476,-319.324"/>
</g>
<!-- 156 -->
<g id="node20" class="node">
<title>156</title>
<ellipse fill="#ffffff" stroke="#000000" cx="1358.5585" cy="-391.4874" rx="21.4286" ry="21.4286"/>
<text text-anchor="middle" x="1358.5585" y="-389.2874" font-family="Times,serif" font-size="9.00" fill="#000000">156</text>
</g>
<!-- y&#45;lm1&#45;vec&#45;&gt;156 -->
<g id="edge44" class="edge">
<title>y&#45;lm1&#45;vec&#45;&gt;156</title>
<path fill="none" stroke="#ff0000" stroke-width=".8366" d="M1218.1577,-460.8172C1244.0518,-450.1651 1287.5516,-431.5659 1323.5585,-412.7006 1326.3022,-411.2631 1329.1264,-409.7 1331.9241,-408.0958"/>
<polygon fill="#ff0000" stroke="#ff0000" stroke-width=".8366" points="1333.8184,-411.0417 1340.6396,-402.9348 1330.2517,-405.0185 1333.8184,-411.0417"/>
</g>
<!-- 308 -->
<g id="node24" class="node">
<title>308</title>
<ellipse fill="#ffffff" stroke="#000000" cx="1356.5585" cy="-194.3295" rx="21.4286" ry="21.4286"/>
<text text-anchor="middle" x="1356.5585" y="-192.1295" font-family="Times,serif" font-size="9.00" fill="#000000">308</text>
</g>
<!-- y&#45;lm1&#45;vec&#45;&gt;308 -->
<g id="edge56" class="edge">
<title>y&#45;lm1&#45;vec&#45;&gt;308</title>
<path fill="none" stroke="#00ff00" stroke-width=".2446" d="M1205.2519,-460.876C1216.4061,-450.1324 1234.8197,-431.3074 1247.5585,-412.7006 1290.751,-349.6114 1327.2084,-266.9674 1344.9661,-223.6799"/>
<polygon fill="#00ff00" stroke="#00ff00" stroke-width=".2446" points="1348.2519,-224.8907 1348.7697,-214.3085 1341.7658,-222.2581 1348.2519,-224.8907"/>
</g>
<!-- 82 -->
<g id="node28" class="node">
<title>82</title>
<ellipse fill="#ffffff" stroke="#000000" cx="975.5585" cy="-391.4874" rx="18.2703" ry="18.2703"/>
<text text-anchor="middle" x="975.5585" y="-389.2874" font-family="Times,serif" font-size="9.00" fill="#000000">82</text>
</g>
<!-- y&#45;lm1&#45;vec&#45;&gt;82 -->
<g id="edge36" class="edge">
<title>y&#45;lm1&#45;vec&#45;&gt;82</title>
<path fill="none" stroke="#00ff00" stroke-width=".1903" d="M1169.8911,-460.7638C1127.9174,-445.8008 1045.0018,-416.2428 1002.3252,-401.0293"/>
<polygon fill="#00ff00" stroke="#00ff00" stroke-width=".1903" points="1003.4735,-397.723 992.8789,-397.6618 1001.123,-404.3165 1003.4735,-397.723"/>
</g>
<!-- 253 -->
<g id="node34" class="node">
<title>253</title>
<ellipse fill="#ffffff" stroke="#000000" cx="1146.5585" cy="-391.4874" rx="21.4286" ry="21.4286"/>
<text text-anchor="middle" x="1146.5585" y="-389.2874" font-family="Times,serif" font-size="9.00" fill="#000000">253</text>
</g>
<!-- y&#45;lm1&#45;vec&#45;&gt;253 -->
<g id="edge51" class="edge">
<title>y&#45;lm1&#45;vec&#45;&gt;253</title>
<path fill="none" stroke="#ff0000" stroke-width=".15" stroke-dasharray="1,5" d="M1189.7451,-460.6093C1183.2791,-450.2601 1172.5377,-433.0681 1163.3853,-418.4194"/>
<polygon fill="#ff0000" stroke="#ff0000" stroke-width=".15" points="1166.2115,-416.3373 1157.9444,-409.711 1160.2749,-420.0464 1166.2115,-416.3373"/>
</g>
<!-- x&#45;lm2&#45;vec -->
<g id="node7" class="node">
<title>x&#45;lm2&#45;vec</title>
<polygon fill="#d3d3d3" stroke="#000000" points="964.0585,-307.2117 911.0585,-307.2117 911.0585,-289.2117 964.0585,-289.2117 964.0585,-307.2117"/>
<text text-anchor="middle" x="937.5585" y="-296.0117" font-family="Times,serif" font-size="9.00" fill="#000000">x&#45;lm2&#45;vec</text>
</g>
<!-- x&#45;lm2&#45;vec&#45;&gt;none -->
<g id="edge27" class="edge">
<title>x&#45;lm2&#45;vec&#45;&gt;none</title>
<path fill="none" stroke="#00ff00" stroke-width=".9088" d="M915.6324,-289.0219C889.4192,-277.2636 845.2492,-254.9289 814.5585,-226.1493 789.6582,-202.7995 800.6368,-180.3894 771.5585,-162.5097 697.6622,-117.0723 428.1051,-105.8023 331.9362,-103.1992"/>
<polygon fill="#00ff00" stroke="#00ff00" stroke-width=".9088" points="331.9576,-99.6987 321.8713,-102.9417 331.7785,-106.6964 331.9576,-99.6987"/>
</g>
<!-- x&#45;lm2&#45;vec&#45;&gt;308 -->
<g id="edge62" class="edge">
<title>x&#45;lm2&#45;vec&#45;&gt;308</title>
<path fill="none" stroke="#ff0000" stroke-width=".1215" stroke-dasharray="1,5" d="M953.2184,-289.0921C967.8596,-280.9306 990.5576,-269.197 1011.5585,-262.1493 1041.3272,-252.1591 1246.1209,-214.415 1325.3532,-199.9857"/>
<polygon fill="#ff0000" stroke="#ff0000" stroke-width=".1215" points="1326.0265,-203.4207 1335.2388,-198.1877 1324.7739,-196.5337 1326.0265,-203.4207"/>
</g>
<!-- y&#45;lm2&#45;vec -->
<g id="node8" class="node">
<title>y&#45;lm2&#45;vec</title>
<polygon fill="#d3d3d3" stroke="#000000" points="153.0585,-400.4874 100.0585,-400.4874 100.0585,-382.4874 153.0585,-382.4874 153.0585,-400.4874"/>
<text text-anchor="middle" x="126.5585" y="-389.2874" font-family="Times,serif" font-size="9.00" fill="#000000">y&#45;lm2&#45;vec</text>
</g>
<!-- y&#45;lm2&#45;vec&#45;&gt;none -->
<g id="edge53" class="edge">
<title>y&#45;lm2&#45;vec&#45;&gt;none</title>
<path fill="none" stroke="#ff0000" stroke-width=".3223" d="M123.5309,-382.1906C116.9158,-360.1866 103.1744,-303.6518 121.5585,-262.1493 151.4477,-194.6737 225.4954,-143.5323 267.3991,-118.842"/>
<polygon fill="#ff0000" stroke="#ff0000" stroke-width=".3223" points="269.1605,-121.8666 276.0739,-113.8382 265.6628,-115.803 269.1605,-121.8666"/>
</g>
<!-- y&#45;lm2&#45;vec&#45;&gt;backward -->
<g id="edge4" class="edge">
<title>y&#45;lm2&#45;vec&#45;&gt;backward</title>
<path fill="none" stroke="#ff0000" stroke-width=".2803" stroke-dasharray="1,5" d="M130.5401,-382.2027C134.7294,-372.4338 141.6247,-356.3547 148.2668,-340.8659"/>
<polygon fill="#ff0000" stroke="#ff0000" stroke-width=".2803" points="151.6187,-341.9299 152.3433,-331.3599 145.1853,-339.171 151.6187,-341.9299"/>
</g>
<!-- x&#45;other&#45;vec -->
<g id="node9" class="node">
<title>x&#45;other&#45;vec</title>
<polygon fill="#d3d3d3" stroke="#000000" points="235.5585,-478.9138 177.5585,-478.9138 177.5585,-460.9138 235.5585,-460.9138 235.5585,-478.9138"/>
<text text-anchor="middle" x="206.5585" y="-467.7138" font-family="Times,serif" font-size="9.00" fill="#000000">x&#45;other&#45;vec</text>
</g>
<!-- x&#45;other&#45;vec&#45;&gt;backward -->
<g id="edge22" class="edge">
<title>x&#45;other&#45;vec&#45;&gt;backward</title>
<path fill="none" stroke="#ff0000" stroke-width=".1049" stroke-dasharray="1,5" d="M204.4079,-460.6823C199.3516,-438.9777 186.4313,-383.5167 177.0915,-343.4251"/>
<polygon fill="#ff0000" stroke="#ff0000" stroke-width=".1049" points="180.4787,-342.5384 174.801,-333.5933 173.6612,-344.1267 180.4787,-342.5384"/>
</g>
<!-- 329 -->
<g id="node25" class="node">
<title>329</title>
<ellipse fill="#ffffff" stroke="#000000" cx="230.5585" cy="-391.4874" rx="21.4286" ry="21.4286"/>
<text text-anchor="middle" x="230.5585" y="-389.2874" font-family="Times,serif" font-size="9.00" fill="#000000">329</text>
</g>
<!-- x&#45;other&#45;vec&#45;&gt;329 -->
<g id="edge58" class="edge">
<title>x&#45;other&#45;vec&#45;&gt;329</title>
<path fill="none" stroke="#00ff00" stroke-width=".4035" stroke-dasharray="1,5" d="M209.4058,-460.6093C212.3434,-451.0101 217.0824,-435.524 221.331,-421.6406"/>
<polygon fill="#00ff00" stroke="#00ff00" stroke-width=".4035" points="224.7256,-422.5083 224.3051,-411.9218 218.032,-420.4599 224.7256,-422.5083"/>
</g>
<!-- y&#45;other&#45;vec -->
<g id="node10" class="node">
<title>y&#45;other&#45;vec</title>
<polygon fill="#d3d3d3" stroke="#000000" points="1300.5585,-545.127 1242.5585,-545.127 1242.5585,-527.127 1300.5585,-527.127 1300.5585,-545.127"/>
<text text-anchor="middle" x="1271.5585" y="-533.927" font-family="Times,serif" font-size="9.00" fill="#000000">y&#45;other&#45;vec</text>
</g>
<!-- y&#45;other&#45;vec&#45;&gt;right -->
<g id="edge15" class="edge">
<title>y&#45;other&#45;vec&#45;&gt;right</title>
<path fill="none" stroke="#00ff00" stroke-width=".4358" stroke-dasharray="1,5" d="M1271.5585,-526.9888C1271.5585,-504.1457 1271.5585,-442.7139 1271.5585,-391.4874 1271.5585,-391.4874 1271.5585,-391.4874 1271.5585,-298.2117 1271.5585,-230.3483 1248.3959,-211.6187 1201.5585,-162.5097 1181.1277,-141.088 1151.3672,-124.9586 1128.9113,-114.8407"/>
<polygon fill="#00ff00" stroke="#00ff00" stroke-width=".4358" points="1130.0427,-111.5164 1119.4759,-110.7462 1127.2561,-117.9378 1130.0427,-111.5164"/>
</g>
<!-- y&#45;other&#45;vec&#45;&gt;left -->
<g id="edge31" class="edge">
<title>y&#45;other&#45;vec&#45;&gt;left</title>
<path fill="none" stroke="#00ff00" stroke-width=".8467" stroke-dasharray="1,5" d="M1242.2565,-527.6718C1218.9712,-520.169 1186.1738,-507.8072 1160.5585,-491.127 1118.5673,-463.783 1106.3848,-455.0244 1079.5585,-412.7006 1062.8136,-386.2822 1052.3511,-351.8457 1046.5293,-327.6663"/>
<polygon fill="#00ff00" stroke="#00ff00" stroke-width=".8467" points="1049.8838,-326.6342 1044.2443,-317.665 1043.0596,-328.1934 1049.8838,-326.6342"/>
</g>
<!-- y&#45;other&#45;vec&#45;&gt;156 -->
<g id="edge46" class="edge">
<title>y&#45;other&#45;vec&#45;&gt;156</title>
<path fill="none" stroke="#ff0000" stroke-width=".1635" stroke-dasharray="1,5" d="M1300.9417,-527.2118C1318.4077,-520.2941 1339.2907,-508.8399 1350.5585,-491.127 1363.3876,-470.9597 1364.728,-443.6516 1363.2283,-422.724"/>
<polygon fill="#ff0000" stroke="#ff0000" stroke-width=".1635" points="1366.7083,-422.3472 1362.2667,-412.7284 1359.7404,-423.0176 1366.7083,-422.3472"/>
</g>
<!-- 292 -->
<g id="node21" class="node">
<title>292</title>
<ellipse fill="#ffffff" stroke="#000000" cx="1320.5585" cy="-469.9138" rx="21.4286" ry="21.4286"/>
<text text-anchor="middle" x="1320.5585" y="-467.7138" font-family="Times,serif" font-size="9.00" fill="#000000">292</text>
</g>
<!-- y&#45;other&#45;vec&#45;&gt;292 -->
<g id="edge54" class="edge">
<title>y&#45;other&#45;vec&#45;&gt;292</title>
<path fill="none" stroke="#ff0000" stroke-width=".1358" d="M1278.3717,-526.9203C1284.4068,-518.7652 1293.5077,-506.4672 1301.7134,-495.3789"/>
<polygon fill="#ff0000" stroke="#ff0000" stroke-width=".1358" points="1304.6131,-497.3444 1307.7483,-487.224 1298.9863,-493.1803 1304.6131,-497.3444"/>
</g>
<!-- y&#45;other&#45;vec&#45;&gt;329 -->
<g id="edge77" class="edge">
<title>y&#45;other&#45;vec&#45;&gt;329</title>
<path fill="none" stroke="#00ff00" stroke-width=".3526" d="M1242.5189,-534.8914C1096.3173,-528.3274 440.5901,-494.7104 256.5585,-412.7006 255.8601,-412.3893 255.1649,-412.0543 254.4746,-411.6986"/>
<polygon fill="#00ff00" stroke="#00ff00" stroke-width=".3526" points="256.1953,-408.644 245.8907,-406.181 252.4102,-414.5324 256.1953,-408.644"/>
</g>
<!-- x&#45;other&#45;vel -->
<g id="node11" class="node">
<title>x&#45;other&#45;vel</title>
<polygon fill="#d3d3d3" stroke="#000000" points="740.5585,-307.2117 684.5585,-307.2117 684.5585,-289.2117 740.5585,-289.2117 740.5585,-307.2117"/>
<text text-anchor="middle" x="712.5585" y="-296.0117" font-family="Times,serif" font-size="9.00" fill="#000000">x&#45;other&#45;vel</text>
</g>
<!-- x&#45;other&#45;vel&#45;&gt;forward -->
<g id="edge10" class="edge">
<title>x&#45;other&#45;vel&#45;&gt;forward</title>
<path fill="none" stroke="#00ff00" stroke-width=".2849" stroke-dasharray="1,5" d="M705.3703,-288.9929C694.7273,-275.3433 674.2368,-249.0642 657.5403,-227.6511"/>
<polygon fill="#00ff00" stroke="#00ff00" stroke-width=".2849" points="660.2646,-225.453 651.3555,-219.7191 654.7444,-229.7573 660.2646,-225.453"/>
</g>
<!-- y&#45;other&#45;vel -->
<g id="node12" class="node">
<title>y&#45;other&#45;vel</title>
<polygon fill="#d3d3d3" stroke="#000000" points="826.5585,-478.9138 770.5585,-478.9138 770.5585,-460.9138 826.5585,-460.9138 826.5585,-478.9138"/>
<text text-anchor="middle" x="798.5585" y="-467.7138" font-family="Times,serif" font-size="9.00" fill="#000000">y&#45;other&#45;vel</text>
</g>
<!-- y&#45;other&#45;vel&#45;&gt;none -->
<g id="edge12" class="edge">
<title>y&#45;other&#45;vel&#45;&gt;none</title>
<path fill="none" stroke="#00ff00" stroke-width=".1698" d="M770.2577,-468.8542C635.3474,-463.6693 62.985,-440.1105 37.5585,-412.7006 -40.2084,-328.8676 16.2992,-242.962 97.5585,-162.5097 121.1182,-139.184 213.1014,-118.5407 263.7118,-108.6534"/>
<polygon fill="#00ff00" stroke="#00ff00" stroke-width=".1698" points="264.386,-112.0879 273.547,-106.7656 263.0665,-105.2134 264.386,-112.0879"/>
</g>
<!-- y&#45;other&#45;vel&#45;&gt;right -->
<g id="edge16" class="edge">
<title>y&#45;other&#45;vel&#45;&gt;right</title>
<path fill="none" stroke="#00ff00" stroke-width=".4307" d="M800.7577,-460.6621C805.9196,-440.9857 820.6943,-394.7851 850.5585,-370.2742 894.5877,-334.1373 929.4587,-370.3249 973.5585,-334.2742 1001.6105,-311.3422 994.5236,-294.1274 1011.5585,-262.1493 1035.8116,-216.6211 1064.2434,-163.9688 1081.573,-131.9562"/>
<polygon fill="#00ff00" stroke="#00ff00" stroke-width=".4307" points="1084.6814,-133.5663 1086.3657,-123.1062 1078.526,-130.2328 1084.6814,-133.5663"/>
</g>
<!-- y&#45;other&#45;vel&#45;&gt;left -->
<g id="edge19" class="edge">
<title>y&#45;other&#45;vel&#45;&gt;left</title>
<path fill="none" stroke="#00ff00" stroke-width=".4769" stroke-dasharray="1,5" d="M806.8204,-460.7425C827.9671,-437.3423 883.1219,-376.8003 893.5585,-370.2742 938.2496,-342.3282 961.9457,-362.345 1006.5585,-334.2742 1011.8773,-330.9275 1016.9285,-326.5554 1021.4319,-322.0153"/>
<polygon fill="#00ff00" stroke="#00ff00" stroke-width=".4769" points="1024.2657,-324.1035 1028.4441,-314.3674 1019.1062,-319.3728 1024.2657,-324.1035"/>
</g>
<!-- y&#45;other&#45;vel&#45;&gt;forward -->
<g id="edge11" class="edge">
<title>y&#45;other&#45;vel&#45;&gt;forward</title>
<path fill="none" stroke="#ff0000" stroke-width=".2019" stroke-dasharray="1,5" d="M798.854,-460.5498C799.3695,-429.1587 797.1666,-326.0409 749.5585,-262.1493 730.1542,-236.1082 697.5731,-218.4806 671.557,-207.7385"/>
<polygon fill="#ff0000" stroke="#ff0000" stroke-width=".2019" points="672.5357,-204.3624 661.9487,-203.9554 669.9712,-210.8757 672.5357,-204.3624"/>
</g>
<!-- y&#45;other&#45;vel&#45;&gt;backward -->
<g id="edge23" class="edge">
<title>y&#45;other&#45;vel&#45;&gt;backward</title>
<path fill="none" stroke="#ff0000" stroke-width=".3409" d="M770.556,-467.876C671.4086,-460.5019 340.712,-434.494 298.5585,-412.7006 276.0721,-401.0751 279.1283,-387.4774 260.5585,-370.2742 243.1874,-354.1814 222.4238,-337.985 204.8348,-325.0346"/>
<polygon fill="#ff0000" stroke="#ff0000" stroke-width=".3409" points="206.6278,-322.0107 196.4839,-318.9526 202.5067,-327.669 206.6278,-322.0107"/>
</g>
<!-- y&#45;other&#45;vel&#45;&gt;96 -->
<g id="edge38" class="edge">
<title>y&#45;other&#45;vel&#45;&gt;96</title>
<path fill="none" stroke="#00ff00" stroke-width=".1222" stroke-dasharray="1,5" d="M812.9531,-460.8818C830.7679,-449.6766 862.0035,-429.9407 888.5585,-412.7006 891.1581,-411.0129 893.8691,-409.2384 896.5652,-407.4643"/>
<polygon fill="#00ff00" stroke="#00ff00" stroke-width=".1222" points="898.5616,-410.3402 904.9728,-401.9054 894.7009,-404.5011 898.5616,-410.3402"/>
</g>
<!-- 490 -->
<g id="node31" class="node">
<title>490</title>
<ellipse fill="#ffffff" stroke="#000000" cx="607.5585" cy="-298.2117" rx="21.4286" ry="21.4286"/>
<text text-anchor="middle" x="607.5585" y="-296.0117" font-family="Times,serif" font-size="9.00" fill="#000000">490</text>
</g>
<!-- y&#45;other&#45;vel&#45;&gt;490 -->
<g id="edge67" class="edge">
<title>y&#45;other&#45;vel&#45;&gt;490</title>
<path fill="none" stroke="#ff0000" stroke-width=".2801" d="M780.3153,-460.8831C760.7123,-450.6983 729.192,-432.8987 705.5585,-412.7006 674.0667,-385.7865 644.042,-348.3697 625.716,-323.7369"/>
<polygon fill="#ff0000" stroke="#ff0000" stroke-width=".2801" points="628.478,-321.5848 619.7385,-315.5954 622.8354,-325.7275 628.478,-321.5848"/>
</g>
<!-- none&#45;&gt;none -->
<g id="edge32" class="edge">
<title>none&#45;&gt;none</title>
<path fill="none" stroke="#ff0000" stroke-width=".1022" stroke-dasharray="1,5" d="M317.455,-116.6441C328.9238,-119.5371 339.6001,-114.8118 339.6001,-102.468 339.6001,-93.9817 334.5539,-89.0963 327.6732,-87.8117"/>
<polygon fill="#ff0000" stroke="#ff0000" stroke-width=".1022" points="327.2796,-84.3263 317.455,-88.292 327.6084,-91.3185 327.2796,-84.3263"/>
</g>
<!-- right&#45;&gt;right -->
<g id="edge25" class="edge">
<title>right&#45;&gt;right</title>
<path fill="none" stroke="#ff0000" stroke-width=".4978" d="M1116.6918,-116.5305C1128.1288,-119.6555 1138.893,-114.968 1138.893,-102.468 1138.893,-93.8743 1133.8052,-88.9732 1126.9089,-87.7647"/>
<polygon fill="#ff0000" stroke="#ff0000" stroke-width=".4978" points="1126.4531,-84.2863 1116.6918,-88.4055 1126.8914,-91.2726 1126.4531,-84.2863"/>
</g>
<!-- 111 -->
<g id="node33" class="node">
<title>111</title>
<ellipse fill="#ffffff" stroke="#000000" cx="1097.5585" cy="-21.2132" rx="21.4286" ry="21.4286"/>
<text text-anchor="middle" x="1097.5585" y="-19.0132" font-family="Times,serif" font-size="9.00" fill="#000000">111</text>
</g>
<!-- right&#45;&gt;111 -->
<g id="edge41" class="edge">
<title>right&#45;&gt;111</title>
<path fill="none" stroke="#00ff00" stroke-width=".7337" stroke-dasharray="1,5" d="M1091.4351,-79.834C1090.7903,-71.168 1090.6431,-61.1333 1090.9935,-51.8423"/>
<polygon fill="#00ff00" stroke="#00ff00" stroke-width=".7337" points="1094.4919,-51.9739 1091.6006,-41.7812 1087.5046,-51.5522 1094.4919,-51.9739"/>
</g>
<!-- left&#45;&gt;left -->
<g id="edge2" class="edge">
<title>left&#45;&gt;left</title>
<path fill="none" stroke="#00ff00" stroke-width=".4998" d="M1054.5152,-312.8296C1066.1746,-319.0765 1078.3575,-314.2039 1078.3575,-298.2117 1078.3575,-286.7173 1072.0638,-280.9673 1064.1944,-280.9617"/>
<polygon fill="#00ff00" stroke="#00ff00" stroke-width=".4998" points="1063.2464,-277.5923 1054.5152,-283.5939 1065.0833,-284.347 1063.2464,-277.5923"/>
</g>
<!-- forward&#45;&gt;forward -->
<g id="edge30" class="edge">
<title>forward&#45;&gt;forward</title>
<path fill="none" stroke="#00ff00" stroke-width=".1851" d="M658.7185,-210.9408C670.8694,-212.5228 681.3783,-206.9857 681.3783,-194.3295 681.3783,-185.4305 676.1829,-180.0512 668.8743,-178.1915"/>
<polygon fill="#00ff00" stroke="#00ff00" stroke-width=".1851" points="668.8707,-174.6876 658.7185,-177.7181 668.5447,-181.68 668.8707,-174.6876"/>
</g>
<!-- backward&#45;&gt;backward -->
<g id="edge7" class="edge">
<title>backward&#45;&gt;backward</title>
<path fill="none" stroke="#ff0000" stroke-width=".313" d="M198.4806,-315.4101C210.5981,-316.0734 220.6209,-310.3406 220.6209,-298.2117 220.6209,-289.6836 215.6658,-284.3176 208.5114,-282.1137"/>
<polygon fill="#ff0000" stroke="#ff0000" stroke-width=".313" points="208.8026,-278.6248 198.4806,-281.0133 208.0392,-285.583 208.8026,-278.6248"/>
</g>
<!-- backward&#45;&gt;397 -->
<g id="edge63" class="edge">
<title>backward&#45;&gt;397</title>
<path fill="none" stroke="#00ff00" stroke-width=".3928" d="M200.6062,-286.1359C234.1687,-273.5163 286.2781,-251.9714 327.5585,-226.1493 332.4826,-223.0691 337.4519,-219.401 342.1002,-215.6692"/>
<polygon fill="#00ff00" stroke="#00ff00" stroke-width=".3928" points="344.637,-218.1092 350.0414,-208.9963 340.1338,-212.75 344.637,-218.1092"/>
</g>
<!-- 9&#45;&gt;right -->
<g id="edge34" class="edge">
<title>9&#45;&gt;right</title>
<path fill="none" stroke="#ff0000" stroke-width=".1546" d="M1139.7926,-284.7489C1132.926,-270.53 1122.4873,-247.2873 1116.5585,-226.1493 1108.1908,-196.3162 1103.2494,-161.3351 1100.5138,-136.2022"/>
<polygon fill="#ff0000" stroke="#ff0000" stroke-width=".1546" points="1103.9774,-135.6672 1099.4729,-126.0776 1097.0141,-136.3832 1103.9774,-135.6672"/>
</g>
<!-- 9&#45;&gt;forward -->
<g id="edge35" class="edge">
<title>9&#45;&gt;forward</title>
<path fill="none" stroke="#00ff00" stroke-width=".1017" d="M1134.6662,-288.8605C1123.2615,-280.4181 1105.2149,-268.3925 1087.5585,-262.1493 972.1755,-221.3505 935.5379,-244.6358 814.5585,-226.1493 765.7523,-218.6913 709.8685,-208.7726 672.8301,-202.0042"/>
<polygon fill="#00ff00" stroke="#00ff00" stroke-width=".1017" points="673.3721,-198.5452 662.9047,-200.1833 672.109,-205.4303 673.3721,-198.5452"/>
</g>
<!-- 206 -->
<g id="node26" class="node">
<title>206</title>
<ellipse fill="#ffffff" stroke="#000000" cx="1146.5585" cy="-194.3295" rx="21.4286" ry="21.4286"/>
<text text-anchor="middle" x="1146.5585" y="-192.1295" font-family="Times,serif" font-size="9.00" fill="#000000">206</text>
</g>
<!-- 9&#45;&gt;206 -->
<g id="edge47" class="edge">
<title>9&#45;&gt;206</title>
<path fill="none" stroke="#ff0000" stroke-width=".4327" d="M1146.5585,-283.3279C1146.5585,-268.3697 1146.5585,-244.8557 1146.5585,-225.7532"/>
<polygon fill="#ff0000" stroke="#ff0000" stroke-width=".4327" points="1150.0586,-225.6768 1146.5585,-215.6769 1143.0586,-225.6769 1150.0586,-225.6768"/>
</g>
<!-- 397&#45;&gt;none -->
<g id="edge61" class="edge">
<title>397&#45;&gt;none</title>
<path fill="none" stroke="#00ff00" stroke-width=".504" d="M352.7682,-177.051C342.9649,-163.8077 329.2448,-145.2731 317.9346,-129.9942"/>
<polygon fill="#00ff00" stroke="#00ff00" stroke-width=".504" points="320.7021,-127.8502 311.9393,-121.8951 315.0759,-132.015 320.7021,-127.8502"/>
</g>
<!-- 156&#45;&gt;9 -->
<g id="edge45" class="edge">
<title>156&#45;&gt;9</title>
<path fill="none" stroke="#ff0000" stroke-width=".6421" stroke-dasharray="1,5" d="M1338.994,-382.8794C1299.7896,-365.6303 1211.7755,-326.9059 1169.75,-308.4155"/>
<polygon fill="#ff0000" stroke="#ff0000" stroke-width=".6421" points="1170.9086,-305.1015 1160.3458,-304.2779 1168.0895,-311.5088 1170.9086,-305.1015"/>
</g>
<!-- 563 -->
<g id="node23" class="node">
<title>563</title>
<ellipse fill="#ffffff" stroke="#000000" cx="1414.5585" cy="-298.2117" rx="21.4286" ry="21.4286"/>
<text text-anchor="middle" x="1414.5585" y="-296.0117" font-family="Times,serif" font-size="9.00" fill="#000000">563</text>
</g>
<!-- 156&#45;&gt;563 -->
<g id="edge75" class="edge">
<title>156&#45;&gt;563</title>
<path fill="none" stroke="#00ff00" stroke-width=".3985" d="M1369.6223,-373.0591C1377.8291,-359.3894 1389.1454,-340.5407 1398.3685,-325.1784"/>
<polygon fill="#00ff00" stroke="#00ff00" stroke-width=".3985" points="1401.3711,-326.9768 1403.5177,-316.6017 1395.3696,-323.3737 1401.3711,-326.9768"/>
</g>
<!-- 156&#45;&gt;308 -->
<g id="edge71" class="edge">
<title>156&#45;&gt;308</title>
<path fill="none" stroke="#ff0000" stroke-width=".3243" stroke-dasharray="1,5" d="M1354.0093,-370.7607C1350.7147,-336.0918 1349.7564,-266.1522 1351.7892,-225.5174"/>
<polygon fill="#ff0000" stroke="#ff0000" stroke-width=".3243" points="1355.2927,-225.566 1352.4063,-215.3719 1348.3056,-225.1409 1355.2927,-225.566"/>
</g>
<!-- 292&#45;&gt;156 -->
<g id="edge55" class="edge">
<title>292&#45;&gt;156</title>
<path fill="none" stroke="#ff0000" stroke-width=".289" d="M1329.9517,-450.5275C1334.4614,-441.2202 1339.9509,-429.8906 1344.9107,-419.6545"/>
<polygon fill="#ff0000" stroke="#ff0000" stroke-width=".289" points="1348.0625,-421.1761 1349.2733,-410.6507 1341.763,-418.1238 1348.0625,-421.1761"/>
</g>
<!-- 551&#45;&gt;right -->
<g id="edge74" class="edge">
<title>551&#45;&gt;right</title>
<path fill="none" stroke="#ff0000" stroke-width=".5126" d="M859.01,-178.354C864.8977,-172.6529 872.0769,-166.629 879.5585,-162.5097 939.8882,-129.2925 1019.9098,-113.4052 1064.3012,-106.6953"/>
<polygon fill="#ff0000" stroke="#ff0000" stroke-width=".5126" points="1064.8663,-110.1501 1074.2621,-105.2543 1063.864,-103.2222 1064.8663,-110.1501"/>
</g>
<!-- 563&#45;&gt;308 -->
<g id="edge76" class="edge">
<title>563&#45;&gt;308</title>
<path fill="none" stroke="#ff0000" stroke-width=".131" d="M1404.1892,-279.6397C1395.2137,-263.5638 1382.1091,-240.0925 1371.9164,-221.8366"/>
<polygon fill="#ff0000" stroke="#ff0000" stroke-width=".131" points="1374.9644,-220.1161 1367.0335,-213.091 1368.8525,-223.5285 1374.9644,-220.1161"/>
</g>
<!-- 308&#45;&gt;156 -->
<g id="edge57" class="edge">
<title>308&#45;&gt;156</title>
<path fill="none" stroke="#ff0000" stroke-width=".3222" d="M1361.1286,-215.2771C1364.4052,-250.0101 1365.3557,-319.7053 1363.3297,-360.2598"/>
<polygon fill="#ff0000" stroke="#ff0000" stroke-width=".3222" points="1359.8273,-360.1943 1362.7148,-370.388 1366.8145,-360.6185 1359.8273,-360.1943"/>
</g>
<!-- 329&#45;&gt;backward -->
<g id="edge59" class="edge">
<title>329&#45;&gt;backward</title>
<path fill="none" stroke="#00ff00" stroke-width=".5336" stroke-dasharray="1,5" d="M218.5206,-373.9429C211.273,-363.3801 201.7509,-349.5022 192.8401,-336.5155"/>
<polygon fill="#00ff00" stroke="#00ff00" stroke-width=".5336" points="195.6466,-334.4193 187.1029,-328.1538 189.8746,-338.3796 195.6466,-334.4193"/>
</g>
<!-- 206&#45;&gt;right -->
<g id="edge48" class="edge">
<title>206&#45;&gt;right</title>
<path fill="none" stroke="#00ff00" stroke-width=".1523" d="M1136.4056,-175.2957C1129.7371,-162.794 1120.879,-146.1875 1113.3056,-131.9895"/>
<polygon fill="#00ff00" stroke="#00ff00" stroke-width=".1523" points="1116.3449,-130.2506 1108.5503,-123.0746 1110.1686,-133.5451 1116.3449,-130.2506"/>
</g>
<!-- 465&#45;&gt;none -->
<g id="edge66" class="edge">
<title>465&#45;&gt;none</title>
<path fill="none" stroke="#00ff00" stroke-width=".2362" d="M297.5585,-173.0237C297.5585,-162.2835 297.5585,-148.9927 297.5585,-136.8527"/>
<polygon fill="#00ff00" stroke="#00ff00" stroke-width=".2362" points="301.0586,-136.5735 297.5585,-126.5735 294.0586,-136.5736 301.0586,-136.5735"/>
</g>
<!-- 82&#45;&gt;left -->
<g id="edge37" class="edge">
<title>82&#45;&gt;left</title>
<path fill="none" stroke="#00ff00" stroke-width=".4512" d="M986.2919,-376.0848C996.3634,-361.6321 1011.5963,-339.7727 1023.3618,-322.8891"/>
<polygon fill="#00ff00" stroke="#00ff00" stroke-width=".4512" points="1026.3068,-324.7847 1029.1527,-314.5792 1020.5637,-320.7825 1026.3068,-324.7847"/>
</g>
<!-- 82&#45;&gt;backward -->
<g id="edge43" class="edge">
<title>82&#45;&gt;backward</title>
<path fill="none" stroke="#ff0000" stroke-width=".4141" stroke-dasharray="1,5" d="M962.0017,-378.696C957.6962,-375.3632 952.707,-372.1766 947.5585,-370.2742 821.4329,-323.6701 476.8797,-351.7398 343.5585,-334.2742 298.2767,-328.3421 247.2368,-317.4895 211.6423,-309.2341"/>
<polygon fill="#ff0000" stroke="#ff0000" stroke-width=".4141" points="212.1084,-305.7485 201.5734,-306.8725 210.51,-312.5635 212.1084,-305.7485"/>
</g>
<!-- 96&#45;&gt;left -->
<g id="edge39" class="edge">
<title>96&#45;&gt;left</title>
<path fill="none" stroke="#00ff00" stroke-width=".2486" d="M935.1921,-379.997C939.4439,-376.7693 944.1349,-373.313 948.5585,-370.2742 973.5658,-353.0949 983.066,-353.473 1006.5585,-334.2742 1011.4244,-330.2976 1016.2811,-325.655 1020.7378,-321.05"/>
<polygon fill="#00ff00" stroke="#00ff00" stroke-width=".2486" points="1023.5478,-323.1676 1027.7915,-313.4598 1018.4202,-318.4024 1023.5478,-323.1676"/>
</g>
<!-- 228&#45;&gt;forward -->
<g id="edge50" class="edge">
<title>228&#45;&gt;forward</title>
<path fill="none" stroke="#ff0000" stroke-width=".1682" d="M561.0545,-281.5212C572.8784,-266.8987 590.4089,-245.2189 605.0309,-227.136"/>
<polygon fill="#ff0000" stroke="#ff0000" stroke-width=".1682" points="607.9473,-229.0957 611.5134,-219.119 602.5041,-224.6943 607.9473,-229.0957"/>
</g>
<!-- 490&#45;&gt;forward -->
<g id="edge68" class="edge">
<title>490&#45;&gt;forward</title>
<path fill="none" stroke="#ff0000" stroke-width=".5576" d="M612.4152,-277.1896C615.1707,-265.2628 618.7162,-249.9164 622.0055,-235.6788"/>
<polygon fill="#ff0000" stroke="#ff0000" stroke-width=".5576" points="625.4995,-236.1036 624.3404,-225.5724 618.6791,-234.5279 625.4995,-236.1036"/>
</g>
<!-- 494&#45;&gt;397 -->
<g id="edge70" class="edge">
<title>494&#45;&gt;397</title>
<path fill="none" stroke="#00ff00" stroke-width=".2326" d="M371.9203,-276.9389C370.7878,-262.2335 369.2618,-242.4184 367.9883,-225.8812"/>
<polygon fill="#00ff00" stroke="#00ff00" stroke-width=".2326" points="371.4521,-225.2755 367.1945,-215.5738 364.4728,-225.8131 371.4521,-225.2755"/>
</g>
<!-- 111&#45;&gt;right -->
<g id="edge42" class="edge">
<title>111&#45;&gt;right</title>
<path fill="none" stroke="#00ff00" stroke-width=".3986" d="M1103.5164,-41.7812C1104.2413,-50.2131 1104.4686,-60.1838 1104.1984,-69.5808"/>
<polygon fill="#00ff00" stroke="#00ff00" stroke-width=".3986" points="1100.6895,-69.6706 1103.6818,-79.834 1107.6807,-70.0228 1100.6895,-69.6706"/>
</g>
<!-- 253&#45;&gt;9 -->
<g id="edge52" class="edge">
<title>253&#45;&gt;9</title>
<path fill="none" stroke="#00ff00" stroke-width=".1729" d="M1146.5585,-369.8536C1146.5585,-356.0444 1146.5585,-338.0828 1146.5585,-323.5991"/>
<polygon fill="#00ff00" stroke="#00ff00" stroke-width=".1729" points="1150.0586,-323.3277 1146.5585,-313.3277 1143.0586,-323.3277 1150.0586,-323.3277"/>
</g>
</g>
</svg>
