<?xml version="1.0" encoding="UTF-8" standalone="no"?>
<!DOCTYPE svg PUBLIC "-//W3C//DTD SVG 1.1//EN"
 "http://www.w3.org/Graphics/SVG/1.1/DTD/svg11.dtd">
<!-- Generated by graphviz version 2.40.1 (20161225.0304)
 -->
<!-- Title: %3 Pages: 1 -->
<svg width="2692pt" height="748pt"
 viewBox="0.00 0.00 2692.20 747.52" xmlns="http://www.w3.org/2000/svg" xmlns:xlink="http://www.w3.org/1999/xlink">
<g id="graph0" class="graph" transform="scale(1 1) rotate(0) translate(4 743.5189)">
<title>%3</title>
<polygon fill="#ffffff" stroke="transparent" points="-4,4 -4,-743.5189 2688.2013,-743.5189 2688.2013,4 -4,4"/>
<!-- A_agent -->
<g id="node1" class="node">
<title>A_agent</title>
<polygon fill="#d3d3d3" stroke="#000000" points="281.7013,-669.7702 234.7013,-669.7702 234.7013,-651.7702 281.7013,-651.7702 281.7013,-669.7702"/>
<text text-anchor="middle" x="258.2013" y="-658.5702" font-family="Times,serif" font-size="9.00" fill="#000000">A_agent</text>
</g>
<!-- left -->
<g id="node20" class="node">
<title>left</title>
<ellipse fill="#add8e6" stroke="#000000" cx="421.2013" cy="-460.0767" rx="19.6" ry="19.6"/>
<text text-anchor="middle" x="421.2013" y="-457.8767" font-family="Times,serif" font-size="9.00" fill="#000000">left</text>
</g>
<!-- A_agent&#45;&gt;left -->
<g id="edge30" class="edge">
<title>A_agent&#45;&gt;left</title>
<path fill="none" stroke="#ff0000" stroke-width=".2479" d="M256.7831,-651.6254C253.7067,-628.4103 248.8133,-566.3178 277.2013,-527.8965 304.7625,-490.5944 358.0796,-473.0529 391.5344,-465.395"/>
<polygon fill="#ff0000" stroke="#ff0000" stroke-width=".2479" points="392.5887,-468.749 401.6407,-463.2434 391.131,-461.9025 392.5887,-468.749"/>
</g>
<!-- forward -->
<g id="node21" class="node">
<title>forward</title>
<ellipse fill="#add8e6" stroke="#000000" cx="1487.2013" cy="-460.0767" rx="31.6406" ry="31.6406"/>
<text text-anchor="middle" x="1487.2013" y="-457.8767" font-family="Times,serif" font-size="9.00" fill="#000000">forward</text>
</g>
<!-- A_agent&#45;&gt;forward -->
<g id="edge16" class="edge">
<title>A_agent&#45;&gt;forward</title>
<path fill="none" stroke="#ff0000" stroke-width=".1054" stroke-dasharray="1,5" d="M278.8708,-651.686C292.7981,-646.0378 311.7452,-639.2552 329.2013,-636.0214 392.762,-624.2468 1447.2052,-646.432 1492.2013,-600.0214 1517.3971,-574.0337 1511.5945,-530.9386 1502.3278,-499.4254"/>
<polygon fill="#ff0000" stroke="#ff0000" stroke-width=".1054" points="1505.5847,-498.1163 1499.2323,-489.6371 1498.9105,-500.227 1505.5847,-498.1163"/>
</g>
<!-- 5671 -->
<g id="node33" class="node">
<title>5671</title>
<ellipse fill="#ffffff" stroke="#000000" cx="205.2013" cy="-563.959" rx="25" ry="25"/>
<text text-anchor="middle" x="205.2013" y="-561.759" font-family="Times,serif" font-size="9.00" fill="#000000">5671</text>
</g>
<!-- A_agent&#45;&gt;5671 -->
<g id="edge114" class="edge">
<title>A_agent&#45;&gt;5671</title>
<path fill="none" stroke="#00ff00" stroke-width=".4215" d="M253.1195,-651.4875C246.0516,-638.577 232.9122,-614.5763 222.1776,-594.9683"/>
<polygon fill="#00ff00" stroke="#00ff00" stroke-width=".4215" points="225.1643,-593.1351 217.2921,-586.0443 219.0242,-596.4966 225.1643,-593.1351"/>
</g>
<!-- A_lm -->
<g id="node2" class="node">
<title>A_lm</title>
<polygon fill="#d3d3d3" stroke="#000000" points="2155.7013,-669.7702 2118.7013,-669.7702 2118.7013,-651.7702 2155.7013,-651.7702 2155.7013,-669.7702"/>
<text text-anchor="middle" x="2137.2013" y="-658.5702" font-family="Times,serif" font-size="9.00" fill="#000000">A_lm</text>
</g>
<!-- right -->
<g id="node19" class="node">
<title>right</title>
<ellipse fill="#add8e6" stroke="#000000" cx="991.2013" cy="-110.2462" rx="23.1702" ry="23.1702"/>
<text text-anchor="middle" x="991.2013" y="-108.0462" font-family="Times,serif" font-size="9.00" fill="#000000">right</text>
</g>
<!-- A_lm&#45;&gt;right -->
<g id="edge38" class="edge">
<title>A_lm&#45;&gt;right</title>
<path fill="none" stroke="#00ff00" stroke-width=".2459" stroke-dasharray="1,5" d="M2155.9412,-660.2085C2224.128,-657.8013 2457.9132,-646.2609 2513.2013,-600.0214 2623.2466,-507.9866 2574.4612,-375.8005 2467.2013,-280.5341 2373.4492,-197.2649 2329.4518,-198.8884 2207.2013,-170.9949 1973.1697,-117.5968 1197.2236,-111.1315 1025.1813,-110.3524"/>
<polygon fill="#00ff00" stroke="#00ff00" stroke-width=".2459" points="1024.9714,-106.8516 1014.9568,-110.3097 1024.9421,-113.8515 1024.9714,-106.8516"/>
</g>
<!-- A_lm&#45;&gt;forward -->
<g id="edge12" class="edge">
<title>A_lm&#45;&gt;forward</title>
<path fill="none" stroke="#00ff00" stroke-width=".1817" stroke-dasharray="1,5" d="M2118.3117,-657.288C2089.9255,-652.1383 2034.5445,-642.4132 1987.2013,-636.0214 1911.4685,-625.7968 1709.7878,-640.8699 1645.2013,-600.0214 1613.4662,-579.9502 1628.5487,-553.6277 1601.2013,-527.8965 1576.2962,-504.4633 1562.4252,-509.6545 1533.2013,-491.8965 1529.3632,-489.5643 1525.4105,-487.0362 1521.5099,-484.4591"/>
<polygon fill="#00ff00" stroke="#00ff00" stroke-width=".1817" points="1523.3656,-481.489 1513.1187,-478.7962 1519.4498,-487.2913 1523.3656,-481.489"/>
</g>
<!-- counterclockwise -->
<g id="node23" class="node">
<title>counterclockwise</title>
<ellipse fill="#add8e6" stroke="#000000" cx="2092.2013" cy="-336.3955" rx="55.7232" ry="55.7232"/>
<text text-anchor="middle" x="2092.2013" y="-334.1955" font-family="Times,serif" font-size="9.00" fill="#000000">counterclockwise</text>
</g>
<!-- A_lm&#45;&gt;counterclockwise -->
<g id="edge24" class="edge">
<title>A_lm&#45;&gt;counterclockwise</title>
<path fill="none" stroke="#ff0000" stroke-width=".3829" stroke-dasharray="1,5" d="M2139.648,-651.3848C2142.603,-639.5213 2147.4011,-618.4244 2149.2013,-600.0214 2156.7249,-523.1114 2144.3093,-502.3042 2122.2013,-428.2569 2119.3935,-418.8525 2116.3024,-408.9493 2113.204,-399.2663"/>
<polygon fill="#ff0000" stroke="#ff0000" stroke-width=".3829" points="2116.514,-398.1264 2110.1135,-389.6833 2109.8519,-400.2749 2116.514,-398.1264"/>
</g>
<!-- 4235 -->
<g id="node29" class="node">
<title>4235</title>
<ellipse fill="#ffffff" stroke="#000000" cx="2115.2013" cy="-563.959" rx="25" ry="25"/>
<text text-anchor="middle" x="2115.2013" y="-561.759" font-family="Times,serif" font-size="9.00" fill="#000000">4235</text>
</g>
<!-- A_lm&#45;&gt;4235 -->
<g id="edge99" class="edge">
<title>A_lm&#45;&gt;4235</title>
<path fill="none" stroke="#ff0000" stroke-width=".3274" stroke-dasharray="1,5" d="M2135.0919,-651.4875C2132.3205,-639.2921 2127.3004,-617.2009 2122.9971,-598.2642"/>
<polygon fill="#ff0000" stroke="#ff0000" stroke-width=".3274" points="2126.3926,-597.4112 2120.7635,-588.4354 2119.5666,-598.9624 2126.3926,-597.4112"/>
</g>
<!-- B_agent -->
<g id="node3" class="node">
<title>B_agent</title>
<polygon fill="#d3d3d3" stroke="#000000" points="1978.2013,-669.7702 1932.2013,-669.7702 1932.2013,-651.7702 1978.2013,-651.7702 1978.2013,-669.7702"/>
<text text-anchor="middle" x="1955.2013" y="-658.5702" font-family="Times,serif" font-size="9.00" fill="#000000">B_agent</text>
</g>
<!-- B_agent&#45;&gt;right -->
<g id="edge7" class="edge">
<title>B_agent&#45;&gt;right</title>
<path fill="none" stroke="#00ff00" stroke-width=".7343" d="M1954.2015,-651.7697C1946.9141,-586.5246 1901.7352,-188.1374 1883.2013,-170.9949 1851.0719,-141.2775 1183.0355,-116.7656 1024.6595,-111.3577"/>
<polygon fill="#00ff00" stroke="#00ff00" stroke-width=".7343" points="1024.6765,-107.8564 1014.5636,-111.0154 1024.4392,-114.8523 1024.6765,-107.8564"/>
</g>
<!-- B_agent&#45;&gt;left -->
<g id="edge25" class="edge">
<title>B_agent&#45;&gt;left</title>
<path fill="none" stroke="#ff0000" stroke-width=".1109" stroke-dasharray="1,5" d="M1932.0025,-656.9834C1896.4335,-651.3475 1826.2325,-640.8945 1766.2013,-636.0214 1640.7726,-625.8397 747.4994,-654.79 634.2013,-600.0214 596.4031,-581.7496 606.7695,-553.1106 573.2013,-527.8965 534.8404,-499.0825 482.3025,-479.1167 450.1126,-468.6419"/>
<polygon fill="#ff0000" stroke="#ff0000" stroke-width=".1109" points="451.01,-465.2549 440.42,-465.5754 448.8984,-471.9289 451.01,-465.2549"/>
</g>
<!-- B_agent&#45;&gt;counterclockwise -->
<g id="edge23" class="edge">
<title>B_agent&#45;&gt;counterclockwise</title>
<path fill="none" stroke="#00ff00" stroke-width=".1663" stroke-dasharray="1,5" d="M1964.5725,-651.5983C1988.122,-627.8433 2049.5797,-561.3087 2073.2013,-491.8965 2082.878,-463.4617 2087.7416,-430.6211 2090.1441,-402.4677"/>
<polygon fill="#00ff00" stroke="#00ff00" stroke-width=".1663" points="2093.647,-402.5628 2090.9222,-392.3243 2086.6675,-402.0273 2093.647,-402.5628"/>
</g>
<!-- B_agent&#45;&gt;4235 -->
<g id="edge87" class="edge">
<title>B_agent&#45;&gt;4235</title>
<path fill="none" stroke="#ff0000" stroke-width=".2773" d="M1977.6579,-651.7627C2002.7707,-641.1867 2044.1251,-622.2396 2076.2013,-600.0214 2080.9394,-596.7396 2085.6885,-592.9107 2090.1609,-588.9975"/>
<polygon fill="#ff0000" stroke="#ff0000" stroke-width=".2773" points="2092.8346,-591.2951 2097.8501,-581.9626 2088.1095,-586.1305 2092.8346,-591.2951"/>
</g>
<!-- 2199 -->
<g id="node30" class="node">
<title>2199</title>
<ellipse fill="#ffffff" stroke="#000000" cx="1600.2013" cy="-460.0767" rx="25" ry="25"/>
<text text-anchor="middle" x="1600.2013" y="-457.8767" font-family="Times,serif" font-size="9.00" fill="#000000">2199</text>
</g>
<!-- B_agent&#45;&gt;2199 -->
<g id="edge73" class="edge">
<title>B_agent&#45;&gt;2199</title>
<path fill="none" stroke="#ff0000" stroke-width=".1279" d="M1939.0253,-651.6253C1884.0023,-620.5189 1703.4816,-518.4646 1630.8623,-477.4104"/>
<polygon fill="#ff0000" stroke="#ff0000" stroke-width=".1279" points="1632.5826,-474.3624 1622.1549,-472.4878 1629.1376,-480.456 1632.5826,-474.3624"/>
</g>
<!-- 2394 -->
<g id="node44" class="node">
<title>2394</title>
<ellipse fill="#ffffff" stroke="#000000" cx="2039.2013" cy="-460.0767" rx="25" ry="25"/>
<text text-anchor="middle" x="2039.2013" y="-457.8767" font-family="Times,serif" font-size="9.00" fill="#000000">2394</text>
</g>
<!-- B_agent&#45;&gt;2394 -->
<g id="edge63" class="edge">
<title>B_agent&#45;&gt;2394</title>
<path fill="none" stroke="#ff0000" stroke-width=".767" stroke-dasharray="1,5" d="M1959.0289,-651.6253C1970.655,-623.8482 2005.96,-539.4972 2025.6194,-492.5267"/>
<polygon fill="#ff0000" stroke="#ff0000" stroke-width=".767" points="2028.9305,-493.6809 2029.5629,-483.1049 2022.4733,-490.9782 2028.9305,-493.6809"/>
</g>
<!-- 861 -->
<g id="node46" class="node">
<title>861</title>
<ellipse fill="#ffffff" stroke="#000000" cx="2437.2013" cy="-336.3955" rx="21.4286" ry="21.4286"/>
<text text-anchor="middle" x="2437.2013" y="-334.1955" font-family="Times,serif" font-size="9.00" fill="#000000">861</text>
</g>
<!-- B_agent&#45;&gt;861 -->
<g id="edge74" class="edge">
<title>B_agent&#45;&gt;861</title>
<path fill="none" stroke="#00ff00" stroke-width=".7279" stroke-dasharray="1,5" d="M1978.4601,-655.9352C2042.3053,-641.6003 2222.7286,-593.8185 2331.2013,-491.8965 2371.5102,-454.022 2404.8613,-398.2389 2422.8299,-364.795"/>
<polygon fill="#00ff00" stroke="#00ff00" stroke-width=".7279" points="2426.1198,-366.0601 2427.6933,-355.5828 2419.9294,-362.792 2426.1198,-366.0601"/>
</g>
<!-- 4575 -->
<g id="node48" class="node">
<title>4575</title>
<ellipse fill="#ffffff" stroke="#000000" cx="769.2013" cy="-563.959" rx="25" ry="25"/>
<text text-anchor="middle" x="769.2013" y="-561.759" font-family="Times,serif" font-size="9.00" fill="#000000">4575</text>
</g>
<!-- B_agent&#45;&gt;4575 -->
<g id="edge97" class="edge">
<title>B_agent&#45;&gt;4575</title>
<path fill="none" stroke="#ff0000" stroke-width="1.0001" d="M1931.9958,-657.0631C1896.4181,-651.5311 1826.2058,-641.2122 1766.2013,-636.0214 1389.9342,-603.4721 1291.142,-652.982 917.2013,-600.0214 877.3819,-594.3819 832.6458,-582.7172 802.8853,-574.1755"/>
<polygon fill="#ff0000" stroke="#ff0000" stroke-width="1.0001" points="803.5956,-570.737 793.0157,-571.2995 801.6372,-577.4575 803.5956,-570.737"/>
</g>
<!-- B_lm -->
<g id="node4" class="node">
<title>B_lm</title>
<polygon fill="#d3d3d3" stroke="#000000" points="2542.7013,-669.7702 2505.7013,-669.7702 2505.7013,-651.7702 2542.7013,-651.7702 2542.7013,-669.7702"/>
<text text-anchor="middle" x="2524.2013" y="-658.5702" font-family="Times,serif" font-size="9.00" fill="#000000">B_lm</text>
</g>
<!-- none -->
<g id="node18" class="node">
<title>none</title>
<ellipse fill="#add8e6" stroke="#000000" cx="1954.2013" cy="-207.7645" rx="24.0833" ry="24.0833"/>
<text text-anchor="middle" x="1954.2013" y="-205.5645" font-family="Times,serif" font-size="9.00" fill="#000000">none</text>
</g>
<!-- B_lm&#45;&gt;none -->
<g id="edge8" class="edge">
<title>B_lm&#45;&gt;none</title>
<path fill="none" stroke="#ff0000" stroke-width=".434" d="M2534.1935,-651.6153C2545.3919,-640.6225 2562.9302,-621.0233 2570.2013,-600.0214 2595.1786,-527.8779 2595.4158,-500.9868 2572.2013,-428.2569 2547.7082,-351.5211 2537.3454,-320.1334 2467.2013,-280.5341 2374.2466,-228.0571 2084.3302,-290.9416 1988.2013,-244.5341 1983.4301,-242.2307 1979.0038,-238.9404 1975.0286,-235.2637"/>
<polygon fill="#ff0000" stroke="#ff0000" stroke-width=".434" points="1977.4071,-232.6866 1967.968,-227.8747 1972.3461,-237.5226 1977.4071,-232.6866"/>
</g>
<!-- B_lm&#45;&gt;right -->
<g id="edge41" class="edge">
<title>B_lm&#45;&gt;right</title>
<path fill="none" stroke="#ff0000" stroke-width=".2612" d="M2539.5428,-651.6648C2579.5895,-626.6054 2684.2013,-552.3164 2684.2013,-460.0767 2684.2013,-460.0767 2684.2013,-460.0767 2684.2013,-336.3955 2684.2013,-161.93 2497.6592,-212.4947 2328.2013,-170.9949 2198.2081,-139.16 1219.2806,-115.4225 1024.7519,-110.9924"/>
<polygon fill="#ff0000" stroke="#ff0000" stroke-width=".2612" points="1024.6477,-107.4893 1014.5711,-110.762 1024.4893,-114.4875 1024.6477,-107.4893"/>
</g>
<!-- B_lm&#45;&gt;left -->
<g id="edge69" class="edge">
<title>B_lm&#45;&gt;left</title>
<path fill="none" stroke="#ff0000" stroke-width="1.0676" stroke-dasharray="1,5" d="M2505.5292,-659.236C2452.3656,-654.9213 2295.6084,-642.5696 2165.2013,-636.0214 2101.8053,-632.8381 1077.0254,-633.6691 1023.2013,-600.0214 992.4783,-580.8151 1015.0483,-548.438 985.2013,-527.8965 940.8285,-497.3579 561.4196,-469.5491 451.1435,-462.0527"/>
<polygon fill="#ff0000" stroke="#ff0000" stroke-width="1.0676" points="451.2574,-458.5525 441.0446,-461.372 450.7866,-465.5366 451.2574,-458.5525"/>
</g>
<!-- B_lm&#45;&gt;counterclockwise -->
<g id="edge44" class="edge">
<title>B_lm&#45;&gt;counterclockwise</title>
<path fill="none" stroke="#ff0000" stroke-width=".2773" stroke-dasharray="1,5" d="M2509.6423,-651.7053C2492.854,-640.797 2465.027,-621.2771 2445.2013,-600.0214 2382.7067,-533.0193 2402.6809,-485.5766 2331.2013,-428.2569 2280.1578,-387.3249 2208.8034,-363.0942 2157.367,-349.8908"/>
<polygon fill="#ff0000" stroke="#ff0000" stroke-width=".2773" points="2157.9069,-346.4183 2147.3572,-347.3954 2156.2137,-353.2104 2157.9069,-346.4183"/>
</g>
<!-- 2950 -->
<g id="node25" class="node">
<title>2950</title>
<ellipse fill="#ffffff" stroke="#000000" cx="2479.2013" cy="-563.959" rx="25" ry="25"/>
<text text-anchor="middle" x="2479.2013" y="-561.759" font-family="Times,serif" font-size="9.00" fill="#000000">2950</text>
</g>
<!-- B_lm&#45;&gt;2950 -->
<g id="edge65" class="edge">
<title>B_lm&#45;&gt;2950</title>
<path fill="none" stroke="#ff0000" stroke-width=".1795" d="M2519.8866,-651.4875C2513.9504,-638.7168 2502.9703,-615.0946 2493.9119,-595.6066"/>
<polygon fill="#ff0000" stroke="#ff0000" stroke-width=".1795" points="2497.0389,-594.0304 2489.6499,-586.4375 2490.6912,-596.9811 2497.0389,-594.0304"/>
</g>
<!-- B_lm&#45;&gt;861 -->
<g id="edge47" class="edge">
<title>B_lm&#45;&gt;861</title>
<path fill="none" stroke="#ff0000" stroke-width=".4826" d="M2528.5403,-651.7641C2543.3978,-619.56 2589.2617,-507.8054 2551.2013,-428.2569 2533.6358,-391.5438 2493.4451,-364.8191 2465.804,-349.9506"/>
<polygon fill="#ff0000" stroke="#ff0000" stroke-width=".4826" points="2467.0976,-346.6791 2456.6081,-345.189 2463.8789,-352.8952 2467.0976,-346.6791"/>
</g>
<!-- C_agent -->
<g id="node5" class="node">
<title>C_agent</title>
<polygon fill="#d3d3d3" stroke="#000000" points="1499.2013,-669.7702 1453.2013,-669.7702 1453.2013,-651.7702 1499.2013,-651.7702 1499.2013,-669.7702"/>
<text text-anchor="middle" x="1476.2013" y="-658.5702" font-family="Times,serif" font-size="9.00" fill="#000000">C_agent</text>
</g>
<!-- C_agent&#45;&gt;right -->
<g id="edge22" class="edge">
<title>C_agent&#45;&gt;right</title>
<path fill="none" stroke="#ff0000" stroke-width=".7943" stroke-dasharray="1,5" d="M1499.288,-658.0337C1552.6373,-651.2206 1682.0626,-631.727 1710.2013,-600.0214 1751.866,-553.0756 1729.2013,-522.845 1729.2013,-460.0767 1729.2013,-460.0767 1729.2013,-460.0767 1729.2013,-336.3955 1729.2013,-186.8684 1168.3733,-126.1811 1024.509,-113.0734"/>
<polygon fill="#ff0000" stroke="#ff0000" stroke-width=".7943" points="1024.7794,-109.5836 1014.5071,-112.178 1024.1552,-116.5558 1024.7794,-109.5836"/>
</g>
<!-- C_agent&#45;&gt;left -->
<g id="edge46" class="edge">
<title>C_agent&#45;&gt;left</title>
<path fill="none" stroke="#00ff00" stroke-width=".1332" stroke-dasharray="1,5" d="M1453.0572,-653.045C1434.6308,-647.2613 1408.0628,-639.7336 1384.2013,-636.0214 1211.8686,-609.211 761.7291,-665.7949 600.2013,-600.0214 555.5574,-581.8426 557.0907,-557.6951 519.2013,-527.8965 495.3663,-509.1511 466.7036,-489.6417 446.5523,-476.3865"/>
<polygon fill="#00ff00" stroke="#00ff00" stroke-width=".1332" points="448.2267,-473.2997 437.9404,-470.7615 444.3987,-479.1604 448.2267,-473.2997"/>
</g>
<!-- C_agent&#45;&gt;forward -->
<g id="edge21" class="edge">
<title>C_agent&#45;&gt;forward</title>
<path fill="none" stroke="#ff0000" stroke-width=".4168" stroke-dasharray="1,5" d="M1487.3353,-651.3889C1499.3334,-640.4777 1517.7135,-621.2313 1525.2013,-600.0214 1535.8726,-569.7943 1533.2984,-558.9125 1525.2013,-527.8965 1522.2218,-516.4833 1516.8476,-504.9583 1511.0612,-494.7282"/>
<polygon fill="#ff0000" stroke="#ff0000" stroke-width=".4168" points="1514.0478,-492.9028 1505.9198,-486.1068 1508.0356,-496.4882 1514.0478,-492.9028"/>
</g>
<!-- backward -->
<g id="node22" class="node">
<title>backward</title>
<ellipse fill="#add8e6" stroke="#000000" cx="1174.2013" cy="-563.959" rx="36.125" ry="36.125"/>
<text text-anchor="middle" x="1174.2013" y="-561.759" font-family="Times,serif" font-size="9.00" fill="#000000">backward</text>
</g>
<!-- C_agent&#45;&gt;backward -->
<g id="edge27" class="edge">
<title>C_agent&#45;&gt;backward</title>
<path fill="none" stroke="#00ff00" stroke-width=".3759" stroke-dasharray="1,5" d="M1452.8263,-654.1949C1434.2726,-649.0454 1407.6458,-641.8097 1384.2013,-636.0214 1313.4373,-618.5504 1290.6635,-629.9475 1224.2013,-600.0214 1219.5627,-597.9328 1214.9229,-595.3765 1210.4423,-592.5984"/>
<polygon fill="#00ff00" stroke="#00ff00" stroke-width=".3759" points="1212.3336,-589.6529 1202.0643,-587.0468 1208.467,-595.4881 1212.3336,-589.6529"/>
</g>
<!-- C_lm -->
<g id="node6" class="node">
<title>C_lm</title>
<polygon fill="#d3d3d3" stroke="#000000" points="2033.7013,-216.7645 1996.7013,-216.7645 1996.7013,-198.7645 2033.7013,-198.7645 2033.7013,-216.7645"/>
<text text-anchor="middle" x="2015.2013" y="-205.5645" font-family="Times,serif" font-size="9.00" fill="#000000">C_lm</text>
</g>
<!-- C_lm&#45;&gt;right -->
<g id="edge33" class="edge">
<title>C_lm&#45;&gt;right</title>
<path fill="none" stroke="#00ff00" stroke-width=".1156" d="M2011.1196,-198.6814C2006.6324,-189.8933 1998.5261,-177.0419 1987.2013,-170.9949 1900.752,-124.8343 1188.953,-112.8145 1024.8569,-110.6459"/>
<polygon fill="#00ff00" stroke="#00ff00" stroke-width=".1156" points="1024.8969,-107.1462 1014.8526,-110.5171 1024.8067,-114.1457 1024.8969,-107.1462"/>
</g>
<!-- D_agent -->
<g id="node7" class="node">
<title>D_agent</title>
<polygon fill="#d3d3d3" stroke="#000000" points="179.7013,-739.5189 132.7013,-739.5189 132.7013,-721.5189 179.7013,-721.5189 179.7013,-739.5189"/>
<text text-anchor="middle" x="156.2013" y="-728.3189" font-family="Times,serif" font-size="9.00" fill="#000000">D_agent</text>
</g>
<!-- D_agent&#45;&gt;right -->
<g id="edge43" class="edge">
<title>D_agent&#45;&gt;right</title>
<path fill="none" stroke="#00ff00" stroke-width=".45" d="M135.3954,-721.4625C121.2209,-714.0517 103.5654,-702.0827 95.2013,-685.5189 77.7007,-650.8613 106.9915,-540.2846 115.2013,-527.8965 274.3281,-287.7852 388.8333,-278.1821 656.2013,-170.9949 760.7487,-129.0822 895.2711,-115.9066 957.2154,-111.9093"/>
<polygon fill="#00ff00" stroke="#00ff00" stroke-width=".45" points="957.795,-115.3807 967.5659,-111.2843 957.3731,-108.3934 957.795,-115.3807"/>
</g>
<!-- D_agent&#45;&gt;left -->
<g id="edge15" class="edge">
<title>D_agent&#45;&gt;left</title>
<path fill="none" stroke="#ff0000" stroke-width=".2645" stroke-dasharray="1,5" d="M157.9314,-721.2474C159.5561,-712.1744 161.923,-697.9455 163.2013,-685.5189 164.9959,-668.0748 160.1979,-541.5509 171.2013,-527.8965 198.8862,-493.542 331.004,-472.008 391.1987,-463.8242"/>
<polygon fill="#ff0000" stroke="#ff0000" stroke-width=".2645" points="391.7722,-467.2789 401.2253,-462.4946 390.8519,-460.3397 391.7722,-467.2789"/>
</g>
<!-- D_agent&#45;&gt;backward -->
<g id="edge32" class="edge">
<title>D_agent&#45;&gt;backward</title>
<path fill="none" stroke="#ff0000" stroke-width=".6773" stroke-dasharray="1,5" d="M180.1023,-729.712C316.0876,-725.0679 987.6149,-701.398 1028.2013,-685.5189 1074.5838,-667.3722 1117.047,-628.3378 1144.0761,-599.3718"/>
<polygon fill="#ff0000" stroke="#ff0000" stroke-width=".6773" points="1146.7732,-601.6089 1150.9443,-591.8697 1141.6101,-596.8821 1146.7732,-601.6089"/>
</g>
<!-- clockwise -->
<g id="node24" class="node">
<title>clockwise</title>
<ellipse fill="#add8e6" stroke="#000000" cx="1245.2013" cy="-207.7645" rx="36.5405" ry="36.5405"/>
<text text-anchor="middle" x="1245.2013" y="-205.5645" font-family="Times,serif" font-size="9.00" fill="#000000">clockwise</text>
</g>
<!-- D_agent&#45;&gt;clockwise -->
<g id="edge57" class="edge">
<title>D_agent&#45;&gt;clockwise</title>
<path fill="none" stroke="#00ff00" stroke-width=".1036" stroke-dasharray="1,5" d="M179.8667,-730.2051C273.5944,-728.7216 618.6524,-720.9185 721.2013,-685.5189 786.219,-663.075 799.0303,-645.9839 850.2013,-600.0214 918.8249,-538.3829 1044.3154,-339.5568 1115.2013,-280.5341 1141.605,-258.5492 1175.6103,-239.7866 1202.2188,-226.8217"/>
<polygon fill="#00ff00" stroke="#00ff00" stroke-width=".1036" points="1203.7849,-229.9525 1211.2975,-222.4818 1200.7659,-223.6369 1203.7849,-229.9525"/>
</g>
<!-- 3073 -->
<g id="node26" class="node">
<title>3073</title>
<ellipse fill="#ffffff" stroke="#000000" cx="1350.2013" cy="-660.7702" rx="25" ry="25"/>
<text text-anchor="middle" x="1350.2013" y="-658.5702" font-family="Times,serif" font-size="9.00" fill="#000000">3073</text>
</g>
<!-- D_agent&#45;&gt;3073 -->
<g id="edge105" class="edge">
<title>D_agent&#45;&gt;3073</title>
<path fill="none" stroke="#00ff00" stroke-width=".5983" d="M179.8847,-729.7376C312.3215,-725.3265 962.3596,-703.1094 1162.2013,-685.5189 1216.0073,-680.7828 1278.0683,-671.9515 1315.7008,-666.2198"/>
<polygon fill="#00ff00" stroke="#00ff00" stroke-width=".5983" points="1316.2884,-669.6707 1325.6402,-664.6913 1315.2243,-662.752 1316.2884,-669.6707"/>
</g>
<!-- 1202 -->
<g id="node34" class="node">
<title>1202</title>
<ellipse fill="#ffffff" stroke="#000000" cx="489.2013" cy="-24.7487" rx="25" ry="25"/>
<text text-anchor="middle" x="489.2013" y="-22.5487" font-family="Times,serif" font-size="9.00" fill="#000000">1202</text>
</g>
<!-- D_agent&#45;&gt;1202 -->
<g id="edge56" class="edge">
<title>D_agent&#45;&gt;1202</title>
<path fill="none" stroke="#ff0000" stroke-width=".58" d="M132.6976,-728.0842C105.4362,-724.0104 60.9519,-713.2967 35.2013,-685.5189 -3.0202,-644.2883 .2013,-620.1804 .2013,-563.959 .2013,-563.959 .2013,-563.959 .2013,-207.7645 .2013,-110.62 342.9841,-47.8522 454.56,-29.9944"/>
<polygon fill="#ff0000" stroke="#ff0000" stroke-width=".58" points="455.2848,-33.4234 464.6166,-28.4068 454.1932,-26.5091 455.2848,-33.4234"/>
</g>
<!-- 4543 -->
<g id="node40" class="node">
<title>4543</title>
<ellipse fill="#ffffff" stroke="#000000" cx="245.2013" cy="-110.2462" rx="25" ry="25"/>
<text text-anchor="middle" x="245.2013" y="-108.0462" font-family="Times,serif" font-size="9.00" fill="#000000">4543</text>
</g>
<!-- D_agent&#45;&gt;4543 -->
<g id="edge95" class="edge">
<title>D_agent&#45;&gt;4543</title>
<path fill="none" stroke="#00ff00" stroke-width=".2565" d="M132.2951,-725.494C110.6203,-719.6543 79.4982,-707.8232 62.2013,-685.5189 28.4538,-642.0016 38.2013,-619.0285 38.2013,-563.959 38.2013,-563.959 38.2013,-563.959 38.2013,-336.3955 38.2013,-233.7924 155.5729,-157.4806 213.5539,-126.0425"/>
<polygon fill="#00ff00" stroke="#00ff00" stroke-width=".2565" points="215.4624,-128.992 222.6547,-121.2124 212.1808,-122.8089 215.4624,-128.992"/>
</g>
<!-- 5313 -->
<g id="node41" class="node">
<title>5313</title>
<ellipse fill="#ffffff" stroke="#000000" cx="129.2013" cy="-660.7702" rx="25" ry="25"/>
<text text-anchor="middle" x="129.2013" y="-658.5702" font-family="Times,serif" font-size="9.00" fill="#000000">5313</text>
</g>
<!-- D_agent&#45;&gt;5313 -->
<g id="edge106" class="edge">
<title>D_agent&#45;&gt;5313</title>
<path fill="none" stroke="#00ff00" stroke-width=".1418" d="M152.6716,-721.4005C149.8985,-714.2368 145.8573,-703.7971 141.907,-693.5926"/>
<polygon fill="#00ff00" stroke="#00ff00" stroke-width=".1418" points="145.066,-692.0576 138.192,-683.9955 138.538,-694.5847 145.066,-692.0576"/>
</g>
<!-- D_lm -->
<g id="node8" class="node">
<title>D_lm</title>
<polygon fill="#d3d3d3" stroke="#000000" points="1482.7013,-572.959 1445.7013,-572.959 1445.7013,-554.959 1482.7013,-554.959 1482.7013,-572.959"/>
<text text-anchor="middle" x="1464.2013" y="-561.759" font-family="Times,serif" font-size="9.00" fill="#000000">D_lm</text>
</g>
<!-- D_lm&#45;&gt;right -->
<g id="edge6" class="edge">
<title>D_lm&#45;&gt;right</title>
<path fill="none" stroke="#00ff00" stroke-width=".3633" stroke-dasharray="1,5" d="M1460.1112,-554.7864C1455.7594,-546.2234 1448.0072,-533.8915 1437.2013,-527.8965 1354.7068,-482.1293 1080.0804,-559.4239 1014.2013,-491.8965 921.0104,-396.3739 960.0053,-215.5055 981.0422,-142.2527"/>
<polygon fill="#00ff00" stroke="#00ff00" stroke-width=".3633" points="984.4022,-143.2325 983.8758,-132.6507 977.6885,-141.2512 984.4022,-143.2325"/>
</g>
<!-- D_lm&#45;&gt;forward -->
<g id="edge26" class="edge">
<title>D_lm&#45;&gt;forward</title>
<path fill="none" stroke="#00ff00" stroke-width="5.218" d="M1466.2424,-554.7401C1468.9013,-542.7311 1473.7246,-520.9462 1478.0743,-501.3"/>
<polygon fill="#00ff00" stroke="#00ff00" stroke-width="5.218" points="1482.5879,-502.035 1480.2918,-491.2844 1473.6722,-500.061 1482.5879,-502.035"/>
</g>
<!-- D_lm&#45;&gt;counterclockwise -->
<g id="edge39" class="edge">
<title>D_lm&#45;&gt;counterclockwise</title>
<path fill="none" stroke="#ff0000" stroke-width=".4931" stroke-dasharray="1,5" d="M1482.745,-559.6585C1519.5664,-550.6386 1603.8164,-527.5793 1667.2013,-491.8965 1706.1892,-469.9482 1705.3435,-448.5824 1745.2013,-428.2569 1836.7428,-381.5754 1954.3197,-356.9189 2026.4152,-345.2813"/>
<polygon fill="#ff0000" stroke="#ff0000" stroke-width=".4931" points="2027.3808,-348.6724 2036.7137,-343.6577 2026.2906,-341.7578 2027.3808,-348.6724"/>
</g>
<!-- D_lm&#45;&gt;clockwise -->
<g id="edge40" class="edge">
<title>D_lm&#45;&gt;clockwise</title>
<path fill="none" stroke="#00ff00" stroke-width=".4196" d="M1458.5678,-554.7962C1432.1801,-511.8777 1319.9791,-329.3874 1269.7205,-247.6439"/>
<polygon fill="#00ff00" stroke="#00ff00" stroke-width=".4196" points="1272.6997,-245.8068 1264.4805,-239.1212 1266.7366,-249.4731 1272.6997,-245.8068"/>
</g>
<!-- D_lm&#45;&gt;2199 -->
<g id="edge59" class="edge">
<title>D_lm&#45;&gt;2199</title>
<path fill="none" stroke="#ff0000" stroke-width=".1414" d="M1476.2704,-554.7401C1497.5708,-538.47 1542.3635,-504.2556 1571.857,-481.7273"/>
<polygon fill="#ff0000" stroke="#ff0000" stroke-width=".1414" points="1574.2843,-484.2775 1580.1066,-475.4259 1570.0352,-478.7146 1574.2843,-484.2775"/>
</g>
<!-- 1335 -->
<g id="node36" class="node">
<title>1335</title>
<ellipse fill="#ffffff" stroke="#000000" cx="1416.2013" cy="-336.3955" rx="25" ry="25"/>
<text text-anchor="middle" x="1416.2013" y="-334.1955" font-family="Times,serif" font-size="9.00" fill="#000000">1335</text>
</g>
<!-- D_lm&#45;&gt;1335 -->
<g id="edge52" class="edge">
<title>D_lm&#45;&gt;1335</title>
<path fill="none" stroke="#ff0000" stroke-width=".3007" stroke-dasharray="1,5" d="M1461.7094,-554.6688C1458.0766,-540.9796 1451.2142,-514.5602 1446.2013,-491.8965 1437.0522,-450.5321 1428.0486,-402.6285 1422.3297,-371.0421"/>
<polygon fill="#ff0000" stroke="#ff0000" stroke-width=".3007" points="1425.7365,-370.2109 1420.5208,-360.9888 1418.8471,-371.4506 1425.7365,-370.2109"/>
</g>
<!-- E_agent -->
<g id="node9" class="node">
<title>E_agent</title>
<polygon fill="#d3d3d3" stroke="#000000" points="1610.2013,-739.5189 1564.2013,-739.5189 1564.2013,-721.5189 1610.2013,-721.5189 1610.2013,-739.5189"/>
<text text-anchor="middle" x="1587.2013" y="-728.3189" font-family="Times,serif" font-size="9.00" fill="#000000">E_agent</text>
</g>
<!-- E_agent&#45;&gt;none -->
<g id="edge45" class="edge">
<title>E_agent&#45;&gt;none</title>
<path fill="none" stroke="#00ff00" stroke-width=".3837" d="M1610.4968,-730.1102C1725.0711,-727.955 2225.7481,-716.8013 2287.2013,-685.5189 2349.7993,-653.6538 2388.2013,-634.2006 2388.2013,-563.959 2388.2013,-563.959 2388.2013,-563.959 2388.2013,-460.0767 2388.2013,-330.0461 2275.1061,-335.3651 2157.2013,-280.5341 2087.5666,-248.1508 2054.9534,-282.5057 1988.2013,-244.5341 1983.5961,-241.9144 1979.2568,-238.4585 1975.3178,-234.7128"/>
<polygon fill="#00ff00" stroke="#00ff00" stroke-width=".3837" points="1977.6969,-232.1354 1968.2716,-227.2965 1972.6221,-236.9569 1977.6969,-232.1354"/>
</g>
<!-- E_agent&#45;&gt;right -->
<g id="edge5" class="edge">
<title>E_agent&#45;&gt;right</title>
<path fill="none" stroke="#ff0000" stroke-width=".3131" d="M1563.9484,-730.0248C1458.1182,-727.615 1024.8976,-715.9504 973.2013,-685.5189 772.5904,-567.4271 749.2784,-366.7852 875.2013,-170.9949 893.8475,-142.0031 931.1005,-126.0432 958.3772,-117.8484"/>
<polygon fill="#ff0000" stroke="#ff0000" stroke-width=".3131" points="959.5961,-121.1419 968.2832,-115.0769 957.71,-114.4008 959.5961,-121.1419"/>
</g>
<!-- E_agent&#45;&gt;left -->
<g id="edge17" class="edge">
<title>E_agent&#45;&gt;left</title>
<path fill="none" stroke="#ff0000" stroke-width=".5118" d="M1563.8423,-730.2776C1438.6946,-728.8482 846.556,-720.3254 667.2013,-685.5189 610.3871,-674.4932 454.7412,-647.186 421.2013,-600.0214 398.1521,-567.609 404.5805,-519.4259 412.2124,-488.8946"/>
<polygon fill="#ff0000" stroke="#ff0000" stroke-width=".5118" points="415.6869,-489.453 414.9157,-478.8863 408.9291,-487.6276 415.6869,-489.453"/>
</g>
<!-- E_agent&#45;&gt;forward -->
<g id="edge37" class="edge">
<title>E_agent&#45;&gt;forward</title>
<path fill="none" stroke="#00ff00" stroke-width=".1914" stroke-dasharray="1,5" d="M1586.6446,-721.1391C1584.5684,-691.385 1575.5844,-597.0102 1542.2013,-527.8965 1535.7285,-514.4956 1526.1318,-501.3991 1516.7591,-490.3444"/>
<polygon fill="#00ff00" stroke="#00ff00" stroke-width=".1914" points="1519.2529,-487.8802 1510.0217,-482.6806 1513.9956,-492.5019 1519.2529,-487.8802"/>
</g>
<!-- E_agent&#45;&gt;counterclockwise -->
<g id="edge2" class="edge">
<title>E_agent&#45;&gt;counterclockwise</title>
<path fill="none" stroke="#00ff00" stroke-width=".1569" d="M1610.3688,-729.7481C1721.8959,-725.9279 2198.9881,-708.2938 2220.2013,-685.5189 2298.1317,-601.8518 2272.4069,-529.9816 2220.2013,-428.2569 2205.7898,-400.1755 2178.363,-378.7452 2152.5826,-363.6757"/>
<polygon fill="#00ff00" stroke="#00ff00" stroke-width=".1569" points="2153.9899,-360.452 2143.5564,-358.6102 2150.5641,-366.5564 2153.9899,-360.452"/>
</g>
<!-- E_agent&#45;&gt;3073 -->
<g id="edge68" class="edge">
<title>E_agent&#45;&gt;3073</title>
<path fill="none" stroke="#ff0000" stroke-width=".403" stroke-dasharray="1,5" d="M1564.0453,-723.7041C1521.9627,-711.3193 1432.786,-685.0747 1383.9362,-670.6983"/>
<polygon fill="#ff0000" stroke="#ff0000" stroke-width=".403" points="1384.7371,-667.2856 1374.1557,-667.8199 1382.7608,-674.0009 1384.7371,-667.2856"/>
</g>
<!-- 5712 -->
<g id="node42" class="node">
<title>5712</title>
<ellipse fill="#ffffff" stroke="#000000" cx="2297.2013" cy="-460.0767" rx="25" ry="25"/>
<text text-anchor="middle" x="2297.2013" y="-457.8767" font-family="Times,serif" font-size="9.00" fill="#000000">5712</text>
</g>
<!-- E_agent&#45;&gt;5712 -->
<g id="edge117" class="edge">
<title>E_agent&#45;&gt;5712</title>
<path fill="none" stroke="#ff0000" stroke-width=".4576" d="M1610.516,-729.7582C1726.1567,-725.8843 2233.613,-707.667 2258.2013,-685.5189 2311.5168,-637.4949 2309.0071,-544.9866 2302.9108,-494.6903"/>
<polygon fill="#ff0000" stroke="#ff0000" stroke-width=".4576" points="2306.3608,-494.0815 2301.5743,-484.6295 2299.4217,-495.0034 2306.3608,-494.0815"/>
</g>
<!-- E_lm -->
<g id="node10" class="node">
<title>E_lm</title>
<polygon fill="#d3d3d3" stroke="#000000" points="501.2013,-739.5189 465.2013,-739.5189 465.2013,-721.5189 501.2013,-721.5189 501.2013,-739.5189"/>
<text text-anchor="middle" x="483.2013" y="-728.3189" font-family="Times,serif" font-size="9.00" fill="#000000">E_lm</text>
</g>
<!-- E_lm&#45;&gt;backward -->
<g id="edge4" class="edge">
<title>E_lm&#45;&gt;backward</title>
<path fill="none" stroke="#ff0000" stroke-width=".5334" stroke-dasharray="1,5" d="M501.3425,-729.9732C606.8621,-726.7178 1137.7473,-709.1974 1162.2013,-685.5189 1181.9724,-666.3748 1184.7822,-635.4022 1182.7463,-609.5129"/>
<polygon fill="#ff0000" stroke="#ff0000" stroke-width=".5334" points="1186.2219,-609.0963 1181.7077,-599.5113 1179.2594,-609.8194 1186.2219,-609.0963"/>
</g>
<!-- E_lm&#45;&gt;counterclockwise -->
<g id="edge36" class="edge">
<title>E_lm&#45;&gt;counterclockwise</title>
<path fill="none" stroke="#00ff00" stroke-width=".2913" stroke-dasharray="1,5" d="M501.4505,-730.3836C681.5478,-729.0067 2134.6187,-716.9307 2165.2013,-685.5189 2242.357,-606.2714 2176.3093,-467.6513 2129.3295,-391.0881"/>
<polygon fill="#00ff00" stroke="#00ff00" stroke-width=".2913" points="2132.2501,-389.1569 2123.992,-382.5194 2126.3085,-392.858 2132.2501,-389.1569"/>
</g>
<!-- E_lm&#45;&gt;clockwise -->
<g id="edge42" class="edge">
<title>E_lm&#45;&gt;clockwise</title>
<path fill="none" stroke="#00ff00" stroke-width=".1099" d="M501.3745,-729.9077C590.7509,-726.7838 981.2584,-711.7195 1028.2013,-685.5189 1193.2702,-593.3879 1057.3053,-440.396 1158.2013,-280.5341 1170.015,-261.8162 1188.2276,-245.5061 1204.9421,-233.0981"/>
<polygon fill="#00ff00" stroke="#00ff00" stroke-width=".1099" points="1207.4074,-235.6379 1213.5043,-226.9731 1203.3347,-229.9446 1207.4074,-235.6379"/>
</g>
<!-- 905 -->
<g id="node27" class="node">
<title>905</title>
<ellipse fill="#ffffff" stroke="#000000" cx="489.2013" cy="-563.959" rx="21.4286" ry="21.4286"/>
<text text-anchor="middle" x="489.2013" y="-561.759" font-family="Times,serif" font-size="9.00" fill="#000000">905</text>
</g>
<!-- E_lm&#45;&gt;905 -->
<g id="edge50" class="edge">
<title>E_lm&#45;&gt;905</title>
<path fill="none" stroke="#ff0000" stroke-width=".4522" d="M483.5411,-721.0867C484.3977,-697.3091 486.6758,-634.067 488.0668,-595.4529"/>
<polygon fill="#ff0000" stroke="#ff0000" stroke-width=".4522" points="491.5714,-595.3877 488.4337,-585.2681 484.5759,-595.1356 491.5714,-595.3877"/>
</g>
<!-- 5761 -->
<g id="node28" class="node">
<title>5761</title>
<ellipse fill="#ffffff" stroke="#000000" cx="363.2013" cy="-660.7702" rx="25" ry="25"/>
<text text-anchor="middle" x="363.2013" y="-658.5702" font-family="Times,serif" font-size="9.00" fill="#000000">5761</text>
</g>
<!-- E_lm&#45;&gt;5761 -->
<g id="edge120" class="edge">
<title>E_lm&#45;&gt;5761</title>
<path fill="none" stroke="#ff0000" stroke-width=".2306" d="M465.0593,-722.2229C447.1178,-713.769 419.1035,-699.8905 396.2013,-685.5189 394.5181,-684.4626 392.8119,-683.3445 391.1077,-682.1904"/>
<polygon fill="#ff0000" stroke="#ff0000" stroke-width=".2306" points="392.8986,-679.1697 382.717,-676.2395 388.8491,-684.8795 392.8986,-679.1697"/>
</g>
<!-- 3951 -->
<g id="node51" class="node">
<title>3951</title>
<ellipse fill="#ffffff" stroke="#000000" cx="430.2013" cy="-660.7702" rx="25" ry="25"/>
<text text-anchor="middle" x="430.2013" y="-658.5702" font-family="Times,serif" font-size="9.00" fill="#000000">3951</text>
</g>
<!-- E_lm&#45;&gt;3951 -->
<g id="edge80" class="edge">
<title>E_lm&#45;&gt;3951</title>
<path fill="none" stroke="#ff0000" stroke-width=".1428" stroke-dasharray="1,5" d="M476.2725,-721.4005C469.9956,-713.14 460.4088,-700.5235 451.6026,-688.9345"/>
<polygon fill="#ff0000" stroke="#ff0000" stroke-width=".1428" points="454.2238,-686.599 445.3868,-680.7544 448.6503,-690.8342 454.2238,-686.599"/>
</g>
<!-- 4860 -->
<g id="node53" class="node">
<title>4860</title>
<ellipse fill="#ffffff" stroke="#000000" cx="311.2013" cy="-563.959" rx="25" ry="25"/>
<text text-anchor="middle" x="311.2013" y="-561.759" font-family="Times,serif" font-size="9.00" fill="#000000">4860</text>
</g>
<!-- E_lm&#45;&gt;4860 -->
<g id="edge103" class="edge">
<title>E_lm&#45;&gt;4860</title>
<path fill="none" stroke="#00ff00" stroke-width=".1776" stroke-dasharray="1,5" d="M465.0248,-727.7C428.2916,-721.6229 347.1797,-706.1518 329.2013,-685.5189 308.6623,-661.9472 305.7398,-625.5278 306.9953,-598.6943"/>
<polygon fill="#00ff00" stroke="#00ff00" stroke-width=".1776" points="310.4973,-598.7824 307.6847,-588.5677 303.5135,-598.3068 310.4973,-598.7824"/>
</g>
<!-- F_agent -->
<g id="node11" class="node">
<title>F_agent</title>
<polygon fill="#d3d3d3" stroke="#000000" points="687.7013,-572.959 642.7013,-572.959 642.7013,-554.959 687.7013,-554.959 687.7013,-572.959"/>
<text text-anchor="middle" x="665.2013" y="-561.759" font-family="Times,serif" font-size="9.00" fill="#000000">F_agent</text>
</g>
<!-- F_agent&#45;&gt;right -->
<g id="edge29" class="edge">
<title>F_agent&#45;&gt;right</title>
<path fill="none" stroke="#00ff00" stroke-width=".1333" d="M662.6149,-554.7565C649.866,-507.228 598.3866,-287.2933 702.2013,-170.9949 735.8254,-133.3277 888.7847,-117.6612 957.5456,-112.4387"/>
<polygon fill="#00ff00" stroke="#00ff00" stroke-width=".1333" points="958.1084,-115.907 967.8272,-111.6884 957.5989,-108.9256 958.1084,-115.907"/>
</g>
<!-- F_agent&#45;&gt;left -->
<g id="edge78" class="edge">
<title>F_agent&#45;&gt;left</title>
<path fill="none" stroke="#ff0000" stroke-width=".2886" d="M657.8878,-554.7544C651.0063,-546.6495 640.0169,-535.053 628.2013,-527.8965 570.5007,-492.9481 492.7055,-473.7751 450.836,-465.3615"/>
<polygon fill="#ff0000" stroke="#ff0000" stroke-width=".2886" points="451.4831,-461.9218 440.9993,-463.4512 450.1486,-468.7935 451.4831,-461.9218"/>
</g>
<!-- F_agent&#45;&gt;forward -->
<g id="edge31" class="edge">
<title>F_agent&#45;&gt;forward</title>
<path fill="none" stroke="#00ff00" stroke-width=".5817" d="M678.7071,-554.829C692.3141,-546.1693 714.2407,-533.6518 735.2013,-527.8965 991.5296,-457.5149 1068.6759,-526.7117 1332.2013,-491.8965 1371.2283,-486.7406 1415.1309,-477.3865 1446.222,-470.1497"/>
<polygon fill="#00ff00" stroke="#00ff00" stroke-width=".5817" points="1447.3192,-473.4871 1456.2493,-467.7859 1445.713,-466.6739 1447.3192,-473.4871"/>
</g>
<!-- F_lm -->
<g id="node12" class="node">
<title>F_lm</title>
<polygon fill="#d3d3d3" stroke="#000000" points="712.2013,-669.7702 676.2013,-669.7702 676.2013,-651.7702 712.2013,-651.7702 712.2013,-669.7702"/>
<text text-anchor="middle" x="694.2013" y="-658.5702" font-family="Times,serif" font-size="9.00" fill="#000000">F_lm</text>
</g>
<!-- F_lm&#45;&gt;left -->
<g id="edge49" class="edge">
<title>F_lm&#45;&gt;left</title>
<path fill="none" stroke="#00ff00" stroke-width=".3852" d="M676.16,-658.4607C626.6823,-651.7753 490.4536,-630.8954 459.2013,-600.0214 429.9158,-571.0902 422.5383,-522.0231 421.03,-490.3463"/>
<polygon fill="#00ff00" stroke="#00ff00" stroke-width=".3852" points="424.5276,-490.2117 420.7203,-480.3246 417.5309,-490.428 424.5276,-490.2117"/>
</g>
<!-- F_lm&#45;&gt;clockwise -->
<g id="edge3" class="edge">
<title>F_lm&#45;&gt;clockwise</title>
<path fill="none" stroke="#00ff00" stroke-width=".5393" d="M712.5607,-653.2643C735.4148,-643.34 774.8856,-624.2433 803.2013,-600.0214 940.2117,-482.8197 907.9986,-387.4183 1053.2013,-280.5341 1097.492,-247.9316 1158.1315,-228.1958 1199.3285,-217.6594"/>
<polygon fill="#00ff00" stroke="#00ff00" stroke-width=".5393" points="1200.2371,-221.0402 1209.1023,-215.2387 1198.5541,-214.2455 1200.2371,-221.0402"/>
</g>
<!-- F_lm&#45;&gt;905 -->
<g id="edge54" class="edge">
<title>F_lm&#45;&gt;905</title>
<path fill="none" stroke="#00ff00" stroke-width=".1016" stroke-dasharray="1,5" d="M676.1148,-657.1642C643.6657,-650.0997 574.2787,-632.2451 524.2013,-600.0214 519.0311,-596.6945 514.0552,-592.4666 509.5584,-588.0858"/>
<polygon fill="#00ff00" stroke="#00ff00" stroke-width=".1016" points="511.9353,-585.5073 502.4933,-580.7011 506.8773,-590.3464 511.9353,-585.5073"/>
</g>
<!-- F_lm&#45;&gt;4575 -->
<g id="edge119" class="edge">
<title>F_lm&#45;&gt;4575</title>
<path fill="none" stroke="#00ff00" stroke-width=".1527" d="M701.3927,-651.4875C711.9622,-637.8442 732.1264,-611.8159 747.7299,-591.6746"/>
<polygon fill="#00ff00" stroke="#00ff00" stroke-width=".1527" points="750.5252,-593.7814 753.8826,-583.7326 744.9915,-589.4944 750.5252,-593.7814"/>
</g>
<!-- G_agent -->
<g id="node13" class="node">
<title>G_agent</title>
<polygon fill="#d3d3d3" stroke="#000000" points="867.7013,-669.7702 820.7013,-669.7702 820.7013,-651.7702 867.7013,-651.7702 867.7013,-669.7702"/>
<text text-anchor="middle" x="844.2013" y="-658.5702" font-family="Times,serif" font-size="9.00" fill="#000000">G_agent</text>
</g>
<!-- G_agent&#45;&gt;counterclockwise -->
<g id="edge35" class="edge">
<title>G_agent&#45;&gt;counterclockwise</title>
<path fill="none" stroke="#ff0000" stroke-width=".163" stroke-dasharray="1,5" d="M867.8204,-655.2014C893.5698,-649.3743 936.0676,-640.468 973.2013,-636.0214 1136.0113,-616.5257 1556.0141,-655.8199 1710.2013,-600.0214 1829.5006,-556.8485 1832.9025,-499.0266 1938.2013,-428.2569 1969.2272,-407.4049 2005.0294,-385.9037 2034.301,-368.95"/>
<polygon fill="#ff0000" stroke="#ff0000" stroke-width=".163" points="2036.2483,-371.8674 2043.1632,-363.8403 2032.7518,-365.8032 2036.2483,-371.8674"/>
</g>
<!-- G_agent&#45;&gt;905 -->
<g id="edge62" class="edge">
<title>G_agent&#45;&gt;905</title>
<path fill="none" stroke="#00ff00" stroke-width=".1475" d="M820.6459,-655.9009C795.9062,-650.8173 755.8557,-642.6737 721.2013,-636.0214 633.7918,-619.2423 602.7109,-641.9527 524.2013,-600.0214 518.7782,-597.125 513.6886,-593.0906 509.1599,-588.7642"/>
<polygon fill="#00ff00" stroke="#00ff00" stroke-width=".1475" points="511.5382,-586.1863 502.1081,-581.3568 506.4683,-591.0129 511.5382,-586.1863"/>
</g>
<!-- G_lm -->
<g id="node14" class="node">
<title>G_lm</title>
<polygon fill="#d3d3d3" stroke="#000000" points="1018.7013,-669.7702 981.7013,-669.7702 981.7013,-651.7702 1018.7013,-651.7702 1018.7013,-669.7702"/>
<text text-anchor="middle" x="1000.2013" y="-658.5702" font-family="Times,serif" font-size="9.00" fill="#000000">G_lm</text>
</g>
<!-- G_lm&#45;&gt;right -->
<g id="edge28" class="edge">
<title>G_lm&#45;&gt;right</title>
<path fill="none" stroke="#00ff00" stroke-width=".1771" stroke-dasharray="1,5" d="M981.4177,-657.0722C922.3376,-645.3621 743.6969,-609.3219 735.2013,-600.0214 692.8684,-553.6773 716.2013,-522.845 716.2013,-460.0767 716.2013,-460.0767 716.2013,-460.0767 716.2013,-336.3955 716.2013,-261.4353 697.5113,-225.2828 749.2013,-170.9949 777.7319,-141.0305 898.4362,-121.9588 957.8652,-114.2085"/>
<polygon fill="#00ff00" stroke="#00ff00" stroke-width=".1771" points="958.3957,-117.6693 967.8739,-112.935 957.5121,-110.7253 958.3957,-117.6693"/>
</g>
<!-- G_lm&#45;&gt;backward -->
<g id="edge19" class="edge">
<title>G_lm&#45;&gt;backward</title>
<path fill="none" stroke="#00ff00" stroke-width=".249" d="M1016.5708,-651.6624C1043.0875,-636.9089 1096.2129,-607.3507 1133.4306,-586.6433"/>
<polygon fill="#00ff00" stroke="#00ff00" stroke-width=".249" points="1135.4873,-589.5043 1142.5241,-581.5838 1132.0839,-583.3873 1135.4873,-589.5043"/>
</g>
<!-- 5405 -->
<g id="node32" class="node">
<title>5405</title>
<ellipse fill="#ffffff" stroke="#000000" cx="1057.2013" cy="-563.959" rx="25" ry="25"/>
<text text-anchor="middle" x="1057.2013" y="-561.759" font-family="Times,serif" font-size="9.00" fill="#000000">5405</text>
</g>
<!-- G_lm&#45;&gt;5405 -->
<g id="edge110" class="edge">
<title>G_lm&#45;&gt;5405</title>
<path fill="none" stroke="#ff0000" stroke-width=".1004" stroke-dasharray="1,5" d="M1005.6667,-651.4875C1013.3508,-638.4365 1027.7075,-614.0526 1039.3198,-594.3297"/>
<polygon fill="#ff0000" stroke="#ff0000" stroke-width=".1004" points="1042.3707,-596.0464 1044.4283,-585.6533 1036.3385,-592.4948 1042.3707,-596.0464"/>
</g>
<!-- G_lm&#45;&gt;1202 -->
<g id="edge51" class="edge">
<title>G_lm&#45;&gt;1202</title>
<path fill="none" stroke="#ff0000" stroke-width=".4405" stroke-dasharray="1,5" d="M981.5033,-656.696C957.4442,-651.5255 914.3231,-642.5014 877.2013,-636.0214 823.4251,-626.6343 674.6798,-636.6479 634.2013,-600.0214 623.8119,-590.6206 526.2724,-181.3559 497.2865,-58.9672"/>
<polygon fill="#ff0000" stroke="#ff0000" stroke-width=".4405" points="500.6399,-57.9389 494.9306,-49.014 493.8281,-59.5513 500.6399,-57.9389"/>
</g>
<!-- H_agent -->
<g id="node15" class="node">
<title>H_agent</title>
<polygon fill="#d3d3d3" stroke="#000000" points="1700.7013,-572.959 1653.7013,-572.959 1653.7013,-554.959 1700.7013,-554.959 1700.7013,-572.959"/>
<text text-anchor="middle" x="1677.2013" y="-561.759" font-family="Times,serif" font-size="9.00" fill="#000000">H_agent</text>
</g>
<!-- H_agent&#45;&gt;forward -->
<g id="edge18" class="edge">
<title>H_agent&#45;&gt;forward</title>
<path fill="none" stroke="#ff0000" stroke-width=".1354" stroke-dasharray="1,5" d="M1669.6209,-554.7947C1662.5068,-546.717 1651.1909,-535.1377 1639.2013,-527.8965 1596.6121,-502.1746 1577.6439,-514.2642 1533.2013,-491.8965 1529.1896,-489.8775 1525.1261,-487.5494 1521.1603,-485.0898"/>
<polygon fill="#ff0000" stroke="#ff0000" stroke-width=".1354" points="1522.9803,-482.0982 1512.6929,-479.5643 1519.1548,-487.9604 1522.9803,-482.0982"/>
</g>
<!-- H_agent&#45;&gt;counterclockwise -->
<g id="edge20" class="edge">
<title>H_agent&#45;&gt;counterclockwise</title>
<path fill="none" stroke="#ff0000" stroke-width=".1447" stroke-dasharray="1,5" d="M1685.1461,-554.6846C1706.2522,-530.577 1766.4152,-465.249 1829.2013,-428.2569 1892.1631,-391.1613 1972.4204,-365.8541 2027.6239,-351.3424"/>
<polygon fill="#ff0000" stroke="#ff0000" stroke-width=".1447" points="2028.8232,-354.6476 2037.6302,-348.7579 2027.0726,-347.87 2028.8232,-354.6476"/>
</g>
<!-- H_agent&#45;&gt;clockwise -->
<g id="edge10" class="edge">
<title>H_agent&#45;&gt;clockwise</title>
<path fill="none" stroke="#00ff00" stroke-width=".6489" d="M1668.5622,-554.9213C1660.8237,-547.1441 1648.9193,-535.9385 1637.2013,-527.8965 1608.0303,-507.8765 1591.6242,-516.5021 1566.2013,-491.8965 1546.9517,-473.2657 1470.6046,-297.8939 1450.2013,-280.5341 1404.5701,-241.7093 1336.7688,-223.0584 1291.7985,-214.4877"/>
<polygon fill="#00ff00" stroke="#00ff00" stroke-width=".6489" points="1292.1902,-211.0018 1281.7265,-212.6636 1290.9427,-217.8897 1292.1902,-211.0018"/>
</g>
<!-- H_lm -->
<g id="node16" class="node">
<title>H_lm</title>
<polygon fill="#d3d3d3" stroke="#000000" points="1756.7013,-669.7702 1719.7013,-669.7702 1719.7013,-651.7702 1756.7013,-651.7702 1756.7013,-669.7702"/>
<text text-anchor="middle" x="1738.2013" y="-658.5702" font-family="Times,serif" font-size="9.00" fill="#000000">H_lm</text>
</g>
<!-- H_lm&#45;&gt;none -->
<g id="edge13" class="edge">
<title>H_lm&#45;&gt;none</title>
<path fill="none" stroke="#00ff00" stroke-width=".3842" stroke-dasharray="1,5" d="M1742.516,-651.7212C1767.669,-598.9693 1895.7657,-330.3187 1939.5251,-238.5442"/>
<polygon fill="#00ff00" stroke="#00ff00" stroke-width=".3842" points="1942.701,-240.0155 1943.8458,-229.4827 1936.3825,-237.0028 1942.701,-240.0155"/>
</g>
<!-- H_lm&#45;&gt;right -->
<g id="edge9" class="edge">
<title>H_lm&#45;&gt;right</title>
<path fill="none" stroke="#ff0000" stroke-width=".3412" stroke-dasharray="1,5" d="M1719.5109,-658.6405C1632.1582,-648.6579 1267.9579,-606.7034 1258.2013,-600.0214 1228.1349,-579.43 1249.0785,-548.7617 1219.2013,-527.8965 1127.8872,-464.1261 1052.42,-568.1099 971.2013,-491.8965 867.0844,-394.196 915.5504,-307.8644 956.2013,-170.9949 959.6241,-159.4709 965.6153,-147.7967 971.6838,-137.8037"/>
<polygon fill="#ff0000" stroke="#ff0000" stroke-width=".3412" points="974.7764,-139.4637 977.2071,-129.1514 968.8761,-135.6971 974.7764,-139.4637"/>
</g>
<!-- H_lm&#45;&gt;backward -->
<g id="edge1" class="edge">
<title>H_lm&#45;&gt;backward</title>
<path fill="none" stroke="#00ff00" stroke-width=".6996" stroke-dasharray="1,5" d="M1719.4698,-658.6864C1628.4301,-648.5426 1236.0421,-604.631 1224.2013,-600.0214 1219.4607,-598.1759 1214.7568,-595.7726 1210.2394,-593.0821"/>
<polygon fill="#00ff00" stroke="#00ff00" stroke-width=".6996" points="1212.1166,-590.1279 1201.8215,-587.6255 1208.3091,-596.0018 1212.1166,-590.1279"/>
</g>
<!-- 3291 -->
<g id="node45" class="node">
<title>3291</title>
<ellipse fill="#ffffff" stroke="#000000" cx="1782.2013" cy="-336.3955" rx="25" ry="25"/>
<text text-anchor="middle" x="1782.2013" y="-334.1955" font-family="Times,serif" font-size="9.00" fill="#000000">3291</text>
</g>
<!-- H_lm&#45;&gt;3291 -->
<g id="edge70" class="edge">
<title>H_lm&#45;&gt;3291</title>
<path fill="none" stroke="#ff0000" stroke-width=".5789" d="M1739.4241,-651.756C1744.9273,-611.1853 1767.5612,-444.3245 1777.493,-371.1063"/>
<polygon fill="#ff0000" stroke="#ff0000" stroke-width=".5789" points="1780.9866,-371.3889 1778.8626,-361.0092 1774.0501,-370.448 1780.9866,-371.3889"/>
</g>
<!-- no_stimuli -->
<g id="node17" class="node">
<title>no_stimuli</title>
<polygon fill="#d3d3d3" stroke="#000000" points="1321.7013,-572.959 1266.7013,-572.959 1266.7013,-554.959 1321.7013,-554.959 1321.7013,-572.959"/>
<text text-anchor="middle" x="1294.2013" y="-561.759" font-family="Times,serif" font-size="9.00" fill="#000000">no_stimuli</text>
</g>
<!-- no_stimuli&#45;&gt;none -->
<g id="edge14" class="edge">
<title>no_stimuli&#45;&gt;none</title>
<path fill="none" stroke="#ff0000" stroke-width=".2239" stroke-dasharray="1,5" d="M1309.428,-554.8765C1324.1895,-546.5039 1347.4759,-534.4178 1369.2013,-527.8965 1483.043,-493.7251 1537.0325,-560.3495 1634.2013,-491.8965 1660.2479,-473.5474 1652.2078,-456.3693 1667.2013,-428.2569 1702.4379,-362.1895 1689.276,-326.7328 1748.2013,-280.5341 1797.0693,-242.2206 1825.2895,-266.9444 1883.2013,-244.5341 1897.1282,-239.1447 1911.8881,-231.7917 1924.3216,-225.0771"/>
<polygon fill="#ff0000" stroke="#ff0000" stroke-width=".2239" points="1926.259,-228.0056 1933.3237,-220.11 1922.8772,-221.8767 1926.259,-228.0056"/>
</g>
<!-- no_stimuli&#45;&gt;left -->
<g id="edge11" class="edge">
<title>no_stimuli&#45;&gt;left</title>
<path fill="none" stroke="#00ff00" stroke-width=".5651" stroke-dasharray="1,5" d="M1279.6031,-554.9557C1264.9272,-546.3924 1241.3625,-533.9462 1219.2013,-527.8965 1070.1314,-487.203 578.3438,-466.0473 451.3444,-461.1791"/>
<polygon fill="#00ff00" stroke="#00ff00" stroke-width=".5651" points="451.3122,-457.6755 441.187,-460.7949 451.0476,-464.6705 451.3122,-457.6755"/>
</g>
<!-- no_stimuli&#45;&gt;clockwise -->
<g id="edge34" class="edge">
<title>no_stimuli&#45;&gt;clockwise</title>
<path fill="none" stroke="#00ff00" stroke-width=".2613" stroke-dasharray="1,5" d="M1289.3134,-554.9552C1282.3436,-541.623 1269.7773,-515.6437 1264.2013,-491.8965 1244.9981,-410.1128 1242.9166,-311.7154 1243.6879,-254.7921"/>
<polygon fill="#00ff00" stroke="#00ff00" stroke-width=".2613" points="1247.1896,-254.7178 1243.8617,-244.6593 1240.1907,-254.5978 1247.1896,-254.7178"/>
</g>
<!-- 3508 -->
<g id="node35" class="node">
<title>3508</title>
<ellipse fill="#ffffff" stroke="#000000" cx="1192.2013" cy="-336.3955" rx="25" ry="25"/>
<text text-anchor="middle" x="1192.2013" y="-334.1955" font-family="Times,serif" font-size="9.00" fill="#000000">3508</text>
</g>
<!-- no_stimuli&#45;&gt;3508 -->
<g id="edge75" class="edge">
<title>no_stimuli&#45;&gt;3508</title>
<path fill="none" stroke="#ff0000" stroke-width=".1619" d="M1283.562,-554.8373C1269.4533,-542.1537 1244.7607,-517.8107 1231.2013,-491.8965 1210.9999,-453.2882 1200.9211,-403.7454 1196.1391,-371.0813"/>
<polygon fill="#ff0000" stroke="#ff0000" stroke-width=".1619" points="1199.5969,-370.5341 1194.7666,-361.1044 1192.6622,-371.4882 1199.5969,-370.5341"/>
</g>
<!-- no_stimuli&#45;&gt;1335 -->
<g id="edge58" class="edge">
<title>no_stimuli&#45;&gt;1335</title>
<path fill="none" stroke="#00ff00" stroke-width=".1794" d="M1299.135,-554.7564C1315.9565,-523.3797 1371.5698,-419.6455 1399.659,-367.2515"/>
<polygon fill="#00ff00" stroke="#00ff00" stroke-width=".1794" points="1402.7662,-368.8632 1404.4065,-358.3961 1396.5968,-365.5557 1402.7662,-368.8632"/>
</g>
<!-- 4195 -->
<g id="node50" class="node">
<title>4195</title>
<ellipse fill="#ffffff" stroke="#000000" cx="1154.2013" cy="-460.0767" rx="25" ry="25"/>
<text text-anchor="middle" x="1154.2013" y="-457.8767" font-family="Times,serif" font-size="9.00" fill="#000000">4195</text>
</g>
<!-- no_stimuli&#45;&gt;4195 -->
<g id="edge85" class="edge">
<title>no_stimuli&#45;&gt;4195</title>
<path fill="none" stroke="#00ff00" stroke-width=".3029" d="M1284.5593,-554.8911C1276.2767,-547.2982 1263.8612,-536.3743 1252.2013,-527.8965 1227.3562,-509.832 1218.2714,-509.6475 1193.2013,-491.8965 1189.2209,-489.0782 1185.1224,-485.9763 1181.1464,-482.8484"/>
<polygon fill="#00ff00" stroke="#00ff00" stroke-width=".3029" points="1183.2174,-480.0224 1173.2344,-476.4742 1178.8258,-485.4735 1183.2174,-480.0224"/>
</g>
<!-- right&#45;&gt;1202 -->
<g id="edge72" class="edge">
<title>right&#45;&gt;1202</title>
<path fill="none" stroke="#ff0000" stroke-width=".2524" stroke-dasharray="1,5" d="M967.9956,-106.294C887.4249,-92.5717 619.4837,-46.9376 523.6531,-30.6163"/>
<polygon fill="#ff0000" stroke="#ff0000" stroke-width=".2524" points="524.0661,-27.1364 513.6203,-28.9076 522.8907,-34.037 524.0661,-27.1364"/>
</g>
<!-- 3001 -->
<g id="node37" class="node">
<title>3001</title>
<ellipse fill="#ffffff" stroke="#000000" cx="1298.2013" cy="-460.0767" rx="25" ry="25"/>
<text text-anchor="middle" x="1298.2013" y="-457.8767" font-family="Times,serif" font-size="9.00" fill="#000000">3001</text>
</g>
<!-- backward&#45;&gt;3001 -->
<g id="edge77" class="edge">
<title>backward&#45;&gt;3001</title>
<path fill="none" stroke="#00ff00" stroke-width=".2401" stroke-dasharray="1,5" d="M1202.0294,-540.6458C1222.7056,-523.3241 1250.7553,-499.8251 1271.2251,-482.6763"/>
<polygon fill="#00ff00" stroke="#00ff00" stroke-width=".2401" points="1273.5233,-485.317 1278.9412,-476.2121 1269.028,-479.9511 1273.5233,-485.317"/>
</g>
<!-- backward&#45;&gt;4195 -->
<g id="edge94" class="edge">
<title>backward&#45;&gt;4195</title>
<path fill="none" stroke="#00ff00" stroke-width=".4739" stroke-dasharray="1,5" d="M1167.3744,-528.4992C1165.2649,-517.5418 1162.9451,-505.4928 1160.8479,-494.5997"/>
<polygon fill="#00ff00" stroke="#00ff00" stroke-width=".4739" points="1164.247,-493.7413 1158.9195,-484.5833 1157.3732,-495.0647 1164.247,-493.7413"/>
</g>
<!-- 4823 -->
<g id="node43" class="node">
<title>4823</title>
<ellipse fill="#ffffff" stroke="#000000" cx="2517.2013" cy="-460.0767" rx="25" ry="25"/>
<text text-anchor="middle" x="2517.2013" y="-457.8767" font-family="Times,serif" font-size="9.00" fill="#000000">4823</text>
</g>
<!-- 2950&#45;&gt;4823 -->
<g id="edge101" class="edge">
<title>2950&#45;&gt;4823</title>
<path fill="none" stroke="#ff0000" stroke-width=".483" stroke-dasharray="1,5" d="M2487.7293,-540.6458C2492.8271,-526.7095 2499.3877,-508.7747 2505.0244,-493.3655"/>
<polygon fill="#ff0000" stroke="#ff0000" stroke-width=".483" points="2508.422,-494.2653 2508.5704,-483.6715 2501.848,-491.8605 2508.422,-494.2653"/>
</g>
<!-- 2950&#45;&gt;861 -->
<g id="edge66" class="edge">
<title>2950&#45;&gt;861</title>
<path fill="none" stroke="#00ff00" stroke-width=".2084" stroke-dasharray="1,5" d="M2474.7066,-539.6057C2467.0303,-498.014 2451.4053,-413.355 2442.9478,-367.5307"/>
<polygon fill="#00ff00" stroke="#00ff00" stroke-width=".2084" points="2446.3659,-366.7665 2441.109,-357.5679 2439.4822,-368.0371 2446.3659,-366.7665"/>
</g>
<!-- 3073&#45;&gt;3001 -->
<g id="edge79" class="edge">
<title>3073&#45;&gt;3001</title>
<path fill="none" stroke="#00ff00" stroke-width=".1594" d="M1348.9431,-635.7793C1347.0493,-608.6901 1342.4018,-564.4353 1331.2013,-527.8965 1327.3338,-515.2796 1321.397,-502.0858 1315.6195,-490.7248"/>
<polygon fill="#00ff00" stroke="#00ff00" stroke-width=".1594" points="1318.6068,-488.8855 1310.8529,-481.6655 1312.4119,-492.145 1318.6068,-488.8855"/>
</g>
<!-- 4031 -->
<g id="node38" class="node">
<title>4031</title>
<ellipse fill="#ffffff" stroke="#000000" cx="1403.2013" cy="-563.959" rx="25" ry="25"/>
<text text-anchor="middle" x="1403.2013" y="-561.759" font-family="Times,serif" font-size="9.00" fill="#000000">4031</text>
</g>
<!-- 3073&#45;&gt;4031 -->
<g id="edge82" class="edge">
<title>3073&#45;&gt;4031</title>
<path fill="none" stroke="#00ff00" stroke-width=".3645" stroke-dasharray="1,5" d="M1362.2279,-638.8022C1369.3431,-625.8054 1378.4664,-609.1405 1386.2972,-594.8366"/>
<polygon fill="#00ff00" stroke="#00ff00" stroke-width=".3645" points="1389.4904,-596.2923 1391.2224,-585.84 1383.3503,-592.9308 1389.4904,-596.2923"/>
</g>
<!-- 4702 -->
<g id="node47" class="node">
<title>4702</title>
<ellipse fill="#ffffff" stroke="#000000" cx="951.2013" cy="-563.959" rx="25" ry="25"/>
<text text-anchor="middle" x="951.2013" y="-561.759" font-family="Times,serif" font-size="9.00" fill="#000000">4702</text>
</g>
<!-- 3073&#45;&gt;4702 -->
<g id="edge100" class="edge">
<title>3073&#45;&gt;4702</title>
<path fill="none" stroke="#ff0000" stroke-width=".1195" stroke-dasharray="1,5" d="M1325.548,-658.4586C1254.4016,-651.5005 1050.0036,-629.407 990.2013,-600.0214 984.7931,-597.3639 979.6048,-593.7135 974.8766,-589.7503"/>
<polygon fill="#ff0000" stroke="#ff0000" stroke-width=".1195" points="977.1362,-587.0738 967.396,-582.905 972.4106,-592.238 977.1362,-587.0738"/>
</g>
<!-- 905&#45;&gt;left -->
<g id="edge89" class="edge">
<title>905&#45;&gt;left</title>
<path fill="none" stroke="#ff0000" stroke-width=".2003" d="M477.3567,-545.8641C466.4346,-529.1787 450.11,-504.2399 437.8728,-485.5454"/>
<polygon fill="#ff0000" stroke="#ff0000" stroke-width=".2003" points="440.6407,-483.3832 432.2354,-476.9333 434.7839,-487.217 440.6407,-483.3832"/>
</g>
<!-- 905&#45;&gt;1202 -->
<g id="edge71" class="edge">
<title>905&#45;&gt;1202</title>
<path fill="none" stroke="#ff0000" stroke-width=".228" d="M489.2013,-542.6249C489.2013,-502.3272 489.2013,-412.25 489.2013,-336.3955 489.2013,-336.3955 489.2013,-336.3955 489.2013,-207.7645 489.2013,-156.2888 489.2013,-96.6692 489.2013,-59.8287"/>
<polygon fill="#ff0000" stroke="#ff0000" stroke-width=".228" points="492.7014,-59.6145 489.2013,-49.6146 485.7014,-59.6146 492.7014,-59.6145"/>
</g>
<!-- 1600 -->
<g id="node39" class="node">
<title>1600</title>
<ellipse fill="#ffffff" stroke="#000000" cx="1048.2013" cy="-460.0767" rx="25" ry="25"/>
<text text-anchor="middle" x="1048.2013" y="-457.8767" font-family="Times,serif" font-size="9.00" fill="#000000">1600</text>
</g>
<!-- 905&#45;&gt;1600 -->
<g id="edge84" class="edge">
<title>905&#45;&gt;1600</title>
<path fill="none" stroke="#00ff00" stroke-width=".2393" d="M509.731,-558.2924C537.718,-550.6964 589.4842,-537.104 634.2013,-527.8965 773.6398,-499.1854 941.5032,-474.78 1013.0932,-464.8435"/>
<polygon fill="#00ff00" stroke="#00ff00" stroke-width=".2393" points="1013.9129,-468.2637 1023.3404,-463.429 1012.9557,-461.3294 1013.9129,-468.2637"/>
</g>
<!-- 5761&#45;&gt;4860 -->
<g id="edge121" class="edge">
<title>5761&#45;&gt;4860</title>
<path fill="none" stroke="#ff0000" stroke-width=".3385" d="M351.4017,-638.8022C344.4208,-625.8054 335.4696,-609.1405 327.7866,-594.8366"/>
<polygon fill="#ff0000" stroke="#ff0000" stroke-width=".3385" points="330.7696,-592.9934 322.9543,-585.84 324.6028,-596.3058 330.7696,-592.9934"/>
</g>
<!-- 4235&#45;&gt;counterclockwise -->
<g id="edge88" class="edge">
<title>4235&#45;&gt;counterclockwise</title>
<path fill="none" stroke="#ff0000" stroke-width=".1236" d="M2114.1778,-538.8922C2112.9152,-511.6164 2110.4034,-466.7505 2106.2013,-428.2569 2105.2601,-419.6345 2104.0967,-410.5819 2102.846,-401.6603"/>
<polygon fill="#ff0000" stroke="#ff0000" stroke-width=".1236" points="2106.2971,-401.07 2101.4039,-391.6729 2099.369,-402.0704 2106.2971,-401.07"/>
</g>
<!-- 5365 -->
<g id="node52" class="node">
<title>5365</title>
<ellipse fill="#ffffff" stroke="#000000" cx="1972.2013" cy="-460.0767" rx="25" ry="25"/>
<text text-anchor="middle" x="1972.2013" y="-457.8767" font-family="Times,serif" font-size="9.00" fill="#000000">5365</text>
</g>
<!-- 4235&#45;&gt;5365 -->
<g id="edge108" class="edge">
<title>4235&#45;&gt;5365</title>
<path fill="none" stroke="#00ff00" stroke-width=".1935" d="M2093.7134,-551.5285C2070.9292,-537.9773 2034.2872,-515.1098 2005.2013,-491.8965 2002.5265,-489.7618 1999.8193,-487.4464 1997.1659,-485.0714"/>
<polygon fill="#00ff00" stroke="#00ff00" stroke-width=".1935" points="1999.1568,-482.1427 1989.4538,-477.888 1994.3857,-487.2649 1999.1568,-482.1427"/>
</g>
<!-- 2199&#45;&gt;none -->
<g id="edge123" class="edge">
<title>2199&#45;&gt;none</title>
<path fill="none" stroke="#ff0000" stroke-width=".185" d="M1598.1924,-435.2386C1596.5242,-396.1209 1599.6233,-320.5095 1643.2013,-280.5341 1722.6845,-207.6217 1780.5941,-277.7836 1883.2013,-244.5341 1897.5126,-239.8965 1912.4311,-232.5958 1924.878,-225.7179"/>
<polygon fill="#ff0000" stroke="#ff0000" stroke-width=".185" points="1926.9119,-228.5871 1933.8635,-220.5918 1923.4432,-222.507 1926.9119,-228.5871"/>
</g>
<!-- 2199&#45;&gt;clockwise -->
<g id="edge60" class="edge">
<title>2199&#45;&gt;clockwise</title>
<path fill="none" stroke="#ff0000" stroke-width=".5617" d="M1597.4912,-435.4038C1592.1614,-391.4362 1578.9098,-302.1141 1557.2013,-280.5341 1520.1581,-243.7098 1369.5323,-221.7497 1291.9252,-212.6643"/>
<polygon fill="#ff0000" stroke="#ff0000" stroke-width=".5617" points="1292.2641,-209.1803 1281.9305,-211.5182 1291.4666,-216.1347 1292.2641,-209.1803"/>
</g>
<!-- 2199&#45;&gt;1335 -->
<g id="edge122" class="edge">
<title>2199&#45;&gt;1335</title>
<path fill="none" stroke="#ff0000" stroke-width=".1298" d="M1579.4519,-446.1293C1546.649,-424.0799 1482.708,-381.1 1445.3242,-355.9713"/>
<polygon fill="#ff0000" stroke="#ff0000" stroke-width=".1298" points="1447.1269,-352.9658 1436.875,-350.2919 1443.2218,-358.7754 1447.1269,-352.9658"/>
</g>
<!-- 4377 -->
<g id="node31" class="node">
<title>4377</title>
<ellipse fill="#ffffff" stroke="#000000" cx="1782.2013" cy="-207.7645" rx="25" ry="25"/>
<text text-anchor="middle" x="1782.2013" y="-205.5645" font-family="Times,serif" font-size="9.00" fill="#000000">4377</text>
</g>
<!-- 5405&#45;&gt;right -->
<g id="edge111" class="edge">
<title>5405&#45;&gt;right</title>
<path fill="none" stroke="#ff0000" stroke-width=".1108" d="M1040.2825,-545.2756C1033.8645,-539.0553 1026.1703,-532.5374 1018.2013,-527.8965 972.6529,-501.3708 937.1528,-533.8176 905.2013,-491.8965 875.2548,-452.6059 855.3411,-257.2797 901.2013,-170.9949 913.4982,-147.8587 938.9715,-131.9382 959.6889,-122.2181"/>
<polygon fill="#ff0000" stroke="#ff0000" stroke-width=".1108" points="961.3681,-125.3028 969.1029,-118.0624 958.5412,-118.8989 961.3681,-125.3028"/>
</g>
<!-- 5405&#45;&gt;3001 -->
<g id="edge116" class="edge">
<title>5405&#45;&gt;3001</title>
<path fill="none" stroke="#ff0000" stroke-width=".167" stroke-dasharray="1,5" d="M1079.3508,-552.2696C1093.4749,-544.9645 1112.2463,-535.529 1129.2013,-527.8965 1175.9056,-506.8723 1231.1798,-485.297 1265.4725,-472.2881"/>
<polygon fill="#ff0000" stroke="#ff0000" stroke-width=".167" points="1266.8677,-475.5025 1274.986,-468.6948 1264.3944,-468.954 1266.8677,-475.5025"/>
</g>
<!-- 5671&#45;&gt;left -->
<g id="edge115" class="edge">
<title>5671&#45;&gt;left</title>
<path fill="none" stroke="#00ff00" stroke-width=".3167" stroke-dasharray="1,5" d="M222.2724,-545.5286C228.7048,-539.3321 236.369,-532.7645 244.2013,-527.8965 292.1523,-498.0939 355.3288,-477.777 391.787,-467.6171"/>
<polygon fill="#00ff00" stroke="#00ff00" stroke-width=".3167" points="393.0303,-470.9062 401.7623,-464.9059 391.1943,-464.1513 393.0303,-470.9062"/>
</g>
<!-- 3508&#45;&gt;clockwise -->
<g id="edge76" class="edge">
<title>3508&#45;&gt;clockwise</title>
<path fill="none" stroke="#00ff00" stroke-width=".5871" stroke-dasharray="1,5" d="M1201.6767,-313.3988C1208.7514,-296.2284 1218.6336,-272.2443 1227.1938,-251.4688"/>
<polygon fill="#00ff00" stroke="#00ff00" stroke-width=".5871" points="1230.4454,-252.7644 1231.019,-242.1851 1223.9733,-250.0976 1230.4454,-252.7644"/>
</g>
<!-- 1335&#45;&gt;clockwise -->
<g id="edge53" class="edge">
<title>1335&#45;&gt;clockwise</title>
<path fill="none" stroke="#ff0000" stroke-width=".6284" stroke-dasharray="1,5" d="M1400.6625,-316.7342C1391.1359,-305.3913 1378.2882,-291.2909 1365.2013,-280.5341 1341.0842,-260.7107 1311.0475,-242.5013 1287.0585,-229.2563"/>
<polygon fill="#ff0000" stroke="#ff0000" stroke-width=".6284" points="1288.6425,-226.1337 1278.1855,-224.4301 1285.2977,-232.2829 1288.6425,-226.1337"/>
</g>
<!-- 4449 -->
<g id="node49" class="node">
<title>4449</title>
<ellipse fill="#ffffff" stroke="#000000" cx="1849.2013" cy="-207.7645" rx="25" ry="25"/>
<text text-anchor="middle" x="1849.2013" y="-205.5645" font-family="Times,serif" font-size="9.00" fill="#000000">4449</text>
</g>
<!-- 1335&#45;&gt;4449 -->
<g id="edge113" class="edge">
<title>1335&#45;&gt;4449</title>
<path fill="none" stroke="#00ff00" stroke-width=".2113" d="M1439.829,-328.4282C1475.3748,-316.6674 1544.8762,-294.5433 1605.2013,-280.5341 1697.8683,-259.014 1732.9058,-290.4919 1816.2013,-244.5341 1820.4822,-242.1721 1824.4927,-239.0391 1828.1411,-235.5955"/>
<polygon fill="#00ff00" stroke="#00ff00" stroke-width=".2113" points="1830.7685,-237.9109 1835.0917,-228.2383 1825.6802,-233.1037 1830.7685,-237.9109"/>
</g>
<!-- 3001&#45;&gt;1335 -->
<g id="edge67" class="edge">
<title>3001&#45;&gt;1335</title>
<path fill="none" stroke="#00ff00" stroke-width=".2973" d="M1315.3596,-442.0924C1335.5468,-420.9333 1369.1986,-385.6612 1392.0231,-361.7378"/>
<polygon fill="#00ff00" stroke="#00ff00" stroke-width=".2973" points="1394.6518,-364.0529 1399.0224,-354.4015 1389.5871,-359.2208 1394.6518,-364.0529"/>
</g>
<!-- 4031&#45;&gt;3001 -->
<g id="edge83" class="edge">
<title>4031&#45;&gt;3001</title>
<path fill="none" stroke="#ff0000" stroke-width=".7337" d="M1385.3895,-546.3368C1368.344,-529.4727 1342.4681,-503.8723 1323.3295,-484.9374"/>
<polygon fill="#ff0000" stroke="#ff0000" stroke-width=".7337" points="1325.671,-482.3305 1316.1005,-477.7854 1320.7478,-487.3066 1325.671,-482.3305"/>
</g>
<!-- 1600&#45;&gt;right -->
<g id="edge61" class="edge">
<title>1600&#45;&gt;right</title>
<path fill="none" stroke="#ff0000" stroke-width=".4091" d="M1045.1751,-435.2176C1038.9207,-385.0544 1023.6042,-268.2115 1005.2013,-170.9949 1003.4609,-161.8005 1001.2991,-151.8872 999.1991,-142.7895"/>
<polygon fill="#ff0000" stroke="#ff0000" stroke-width=".4091" points="1002.5801,-141.8771 996.8802,-132.9462 995.7666,-143.4823 1002.5801,-141.8771"/>
</g>
<!-- 1600&#45;&gt;counterclockwise -->
<g id="edge55" class="edge">
<title>1600&#45;&gt;counterclockwise</title>
<path fill="none" stroke="#00ff00" stroke-width=".319" stroke-dasharray="1,5" d="M1069.8479,-448.0162C1083.7771,-440.8938 1102.5201,-432.4698 1120.2013,-428.2569 1421.5134,-356.4644 1508.8979,-431.0861 1816.2013,-392.2569 1889.3725,-383.0114 1972.1516,-365.2635 2027.8044,-352.2448"/>
<polygon fill="#00ff00" stroke="#00ff00" stroke-width=".319" points="2028.9415,-355.5728 2037.8719,-349.8721 2027.3357,-348.7594 2028.9415,-355.5728"/>
</g>
<!-- 4543&#45;&gt;1202 -->
<g id="edge96" class="edge">
<title>4543&#45;&gt;1202</title>
<path fill="none" stroke="#00ff00" stroke-width=".2689" stroke-dasharray="1,5" d="M268.5971,-102.0484C312.1179,-86.7987 405.6408,-54.0283 455.7991,-36.4529"/>
<polygon fill="#00ff00" stroke="#00ff00" stroke-width=".2689" points="457.2379,-39.6574 465.5179,-33.0474 454.9231,-33.0512 457.2379,-39.6574"/>
</g>
<!-- 5313&#45;&gt;left -->
<g id="edge107" class="edge">
<title>5313&#45;&gt;left</title>
<path fill="none" stroke="#00ff00" stroke-width=".1113" d="M123.079,-636.5397C117.2394,-607.2362 112.6822,-558.0953 138.2013,-527.8965 154.6843,-508.391 321.6533,-477.3929 391.1254,-465.222"/>
<polygon fill="#00ff00" stroke="#00ff00" stroke-width=".1113" points="392.1478,-468.5968 401.4001,-463.435 390.9483,-461.7003 392.1478,-468.5968"/>
</g>
<!-- 5712&#45;&gt;counterclockwise -->
<g id="edge118" class="edge">
<title>5712&#45;&gt;counterclockwise</title>
<path fill="none" stroke="#ff0000" stroke-width=".2169" d="M2278.2874,-443.5072C2272.0697,-438.3733 2265.0044,-432.8604 2258.2013,-428.2569 2224.165,-405.2255 2183.8743,-382.8235 2151.5108,-365.9082"/>
<polygon fill="#ff0000" stroke="#ff0000" stroke-width=".2169" points="2153.0928,-362.786 2142.6046,-361.2867 2149.8687,-368.9993 2153.0928,-362.786"/>
</g>
<!-- 4823&#45;&gt;861 -->
<g id="edge102" class="edge">
<title>4823&#45;&gt;861</title>
<path fill="none" stroke="#ff0000" stroke-width=".195" stroke-dasharray="1,5" d="M2503.6304,-439.0959C2490.0137,-418.0442 2469.0009,-385.558 2454.2632,-362.7734"/>
<polygon fill="#ff0000" stroke="#ff0000" stroke-width=".195" points="2457.1279,-360.7579 2448.7579,-354.2621 2451.2503,-364.5597 2457.1279,-360.7579"/>
</g>
<!-- 2394&#45;&gt;counterclockwise -->
<g id="edge64" class="edge">
<title>2394&#45;&gt;counterclockwise</title>
<path fill="none" stroke="#ff0000" stroke-width=".9441" stroke-dasharray="1,5" d="M2049.046,-437.1031C2053.9083,-425.7565 2060.0286,-411.4742 2066.1194,-397.2606"/>
<polygon fill="#ff0000" stroke="#ff0000" stroke-width=".9441" points="2069.3824,-398.5319 2070.1042,-387.9617 2062.9482,-395.7747 2069.3824,-398.5319"/>
</g>
<!-- 3291&#45;&gt;4377 -->
<g id="edge91" class="edge">
<title>3291&#45;&gt;4377</title>
<path fill="none" stroke="#ff0000" stroke-width=".3382" stroke-dasharray="1,5" d="M1782.2013,-311.5941C1782.2013,-292.1451 1782.2013,-264.8251 1782.2013,-243.0906"/>
<polygon fill="#ff0000" stroke="#ff0000" stroke-width=".3382" points="1785.7014,-242.9286 1782.2013,-232.9286 1778.7014,-242.9286 1785.7014,-242.9286"/>
</g>
<!-- 861&#45;&gt;none -->
<g id="edge90" class="edge">
<title>861&#45;&gt;none</title>
<path fill="none" stroke="#00ff00" stroke-width=".1371" stroke-dasharray="1,5" d="M2429.9691,-316.1564C2424.3941,-303.689 2415.3817,-288.5953 2402.2013,-280.5341 2244.6398,-184.1683 2154.0543,-325.804 1988.2013,-244.5341 1983.4437,-242.2027 1979.0245,-238.8979 1975.0523,-235.215"/>
<polygon fill="#00ff00" stroke="#00ff00" stroke-width=".1371" points="1977.4307,-232.6379 1967.9929,-227.8236 1972.3686,-237.4726 1977.4307,-232.6379"/>
</g>
<!-- 861&#45;&gt;right -->
<g id="edge48" class="edge">
<title>861&#45;&gt;right</title>
<path fill="none" stroke="#00ff00" stroke-width=".9606" stroke-dasharray="1,5" d="M2429.095,-316.5104C2423.2602,-304.5057 2414.2853,-289.7895 2402.2013,-280.5341 2269.7665,-179.0987 2207.4151,-200.3539 2043.2013,-170.9949 1840.7347,-134.7969 1182.3476,-115.3209 1025.138,-111.1176"/>
<polygon fill="#00ff00" stroke="#00ff00" stroke-width=".9606" points="1024.7873,-107.6072 1014.6982,-110.8414 1024.6021,-114.6048 1024.7873,-107.6072"/>
</g>
<!-- 861&#45;&gt;4449 -->
<g id="edge92" class="edge">
<title>861&#45;&gt;4449</title>
<path fill="none" stroke="#ff0000" stroke-width=".5246" stroke-dasharray="1,5" d="M2416.1881,-331.8626C2369.6574,-321.9002 2254.3518,-297.6257 2157.2013,-280.5341 2052.704,-262.1499 2022.1886,-277.0801 1921.2013,-244.5341 1906.9364,-239.9368 1892.0448,-232.7773 1879.5312,-225.993"/>
<polygon fill="#ff0000" stroke="#ff0000" stroke-width=".5246" points="1880.9113,-222.7547 1870.4753,-220.9268 1877.4936,-228.8637 1880.9113,-222.7547"/>
</g>
<!-- 4575&#45;&gt;right -->
<g id="edge98" class="edge">
<title>4575&#45;&gt;right</title>
<path fill="none" stroke="#00ff00" stroke-width=".1774" d="M762.1022,-539.9637C743.9467,-473.2347 703.1876,-283.0243 791.2013,-170.9949 811.9127,-144.6323 906.9142,-124.6784 958.1773,-115.6153"/>
<polygon fill="#00ff00" stroke="#00ff00" stroke-width=".1774" points="958.8531,-119.0505 968.111,-113.8987 957.661,-112.1528 958.8531,-119.0505"/>
</g>
<!-- 4449&#45;&gt;right -->
<g id="edge93" class="edge">
<title>4449&#45;&gt;right</title>
<path fill="none" stroke="#00ff00" stroke-width=".305" stroke-dasharray="1,5" d="M1835.3046,-186.8822C1830.0813,-180.7024 1823.5928,-174.6243 1816.2013,-170.9949 1744.2782,-135.6792 1170.8096,-115.771 1024.886,-111.245"/>
<polygon fill="#00ff00" stroke="#00ff00" stroke-width=".305" points="1024.8512,-107.7424 1014.7486,-110.9341 1024.6365,-114.7391 1024.8512,-107.7424"/>
</g>
<!-- 4195&#45;&gt;3508 -->
<g id="edge86" class="edge">
<title>4195&#45;&gt;3508</title>
<path fill="none" stroke="#00ff00" stroke-width="1.0239" d="M1161.5281,-436.2297C1167.3108,-417.4085 1175.4488,-390.9211 1181.8894,-369.9584"/>
<polygon fill="#00ff00" stroke="#00ff00" stroke-width="1.0239" points="1185.3057,-370.7562 1184.8971,-360.1693 1178.6144,-368.7003 1185.3057,-370.7562"/>
</g>
<!-- 3951&#45;&gt;left -->
<g id="edge81" class="edge">
<title>3951&#45;&gt;left</title>
<path fill="none" stroke="#ff0000" stroke-width=".2638" d="M413.3018,-642.6715C403.9194,-631.3501 393.1663,-615.9332 388.2013,-600.0214 378.6531,-569.421 381.0049,-559.1338 388.2013,-527.8965 391.598,-513.1529 398.6512,-497.9021 405.3683,-485.6056"/>
<polygon fill="#ff0000" stroke="#ff0000" stroke-width=".2638" points="408.4565,-487.2556 410.3732,-476.8356 402.3768,-483.786 408.4565,-487.2556"/>
</g>
<!-- 5365&#45;&gt;counterclockwise -->
<g id="edge109" class="edge">
<title>5365&#45;&gt;counterclockwise</title>
<path fill="none" stroke="#00ff00" stroke-width=".4491" d="M1989.6504,-442.0924C2004.4132,-426.8767 2026.2569,-404.3629 2045.995,-384.0193"/>
<polygon fill="#00ff00" stroke="#00ff00" stroke-width=".4491" points="2048.7031,-386.2544 2053.1546,-376.64 2043.6792,-381.3799 2048.7031,-386.2544"/>
</g>
<!-- 5365&#45;&gt;3291 -->
<g id="edge112" class="edge">
<title>5365&#45;&gt;3291</title>
<path fill="none" stroke="#ff0000" stroke-width=".1491" d="M1951.1421,-446.3681C1917.2413,-424.3003 1850.4651,-380.832 1811.793,-355.6583"/>
<polygon fill="#ff0000" stroke="#ff0000" stroke-width=".1491" points="1813.3556,-352.4993 1803.0654,-349.977 1809.5367,-358.3658 1813.3556,-352.4993"/>
</g>
<!-- 4860&#45;&gt;left -->
<g id="edge104" class="edge">
<title>4860&#45;&gt;left</title>
<path fill="none" stroke="#ff0000" stroke-width=".4224" stroke-dasharray="1,5" d="M329.3656,-546.8049C348.5202,-528.7156 378.7065,-500.2082 399.1981,-480.8563"/>
<polygon fill="#ff0000" stroke="#ff0000" stroke-width=".4224" points="401.6665,-483.3392 406.5338,-473.9285 396.8603,-478.2499 401.6665,-483.3392"/>
</g>
</g>
</svg>
