<?xml version="1.0" encoding="utf-8" standalone="no"?>
<!DOCTYPE svg PUBLIC "-//W3C//DTD SVG 1.1//EN"
  "http://www.w3.org/Graphics/SVG/1.1/DTD/svg11.dtd">
<!-- Created with matplotlib (https://matplotlib.org/) -->
<svg height="345.6pt" version="1.1" viewBox="0 0 460.8 345.6" width="460.8pt" xmlns="http://www.w3.org/2000/svg" xmlns:xlink="http://www.w3.org/1999/xlink">
 <metadata>
  <rdf:RDF xmlns:cc="http://creativecommons.org/ns#" xmlns:dc="http://purl.org/dc/elements/1.1/" xmlns:rdf="http://www.w3.org/1999/02/22-rdf-syntax-ns#">
   <cc:Work>
    <dc:type rdf:resource="http://purl.org/dc/dcmitype/StillImage"/>
    <dc:date>2021-04-27T19:12:14.512203</dc:date>
    <dc:format>image/svg+xml</dc:format>
    <dc:creator>
     <cc:Agent>
      <dc:title>Matplotlib v3.3.4, https://matplotlib.org/</dc:title>
     </cc:Agent>
    </dc:creator>
   </cc:Work>
  </rdf:RDF>
 </metadata>
 <defs>
  <style type="text/css">*{stroke-linecap:butt;stroke-linejoin:round;}</style>
 </defs>
 <g id="figure_1">
  <g id="patch_1">
   <path d="M 0 345.6 
L 460.8 345.6 
L 460.8 0 
L 0 0 
z
" style="fill:#ffffff;"/>
  </g>
  <g id="axes_1">
   <g id="patch_2">
    <path d="M 57.6 307.584 
L 414.72 307.584 
L 414.72 41.472 
L 57.6 41.472 
z
" style="fill:#ffffff;"/>
   </g>
   <g id="matplotlib.axis_1">
    <g id="xtick_1">
     <g id="line2d_1">
      <path clip-path="url(#pdf91f85912)" d="M 73.832727 307.584 
L 73.832727 41.472 
" style="fill:none;stroke:#b0b0b0;stroke-linecap:square;stroke-width:0.8;"/>
     </g>
     <g id="line2d_2">
      <defs>
       <path d="M 0 0 
L 0 3.5 
" id="mb899c580e3" style="stroke:#000000;stroke-width:0.8;"/>
      </defs>
      <g>
       <use style="stroke:#000000;stroke-width:0.8;" x="73.832727" xlink:href="#mb899c580e3" y="307.584"/>
      </g>
     </g>
     <g id="text_1">
      <!-- 0 -->
      <g transform="translate(70.651477 322.182437)scale(0.1 -0.1)">
       <defs>
        <path d="M 31.78125 66.40625 
Q 24.171875 66.40625 20.328125 58.90625 
Q 16.5 51.421875 16.5 36.375 
Q 16.5 21.390625 20.328125 13.890625 
Q 24.171875 6.390625 31.78125 6.390625 
Q 39.453125 6.390625 43.28125 13.890625 
Q 47.125 21.390625 47.125 36.375 
Q 47.125 51.421875 43.28125 58.90625 
Q 39.453125 66.40625 31.78125 66.40625 
z
M 31.78125 74.21875 
Q 44.046875 74.21875 50.515625 64.515625 
Q 56.984375 54.828125 56.984375 36.375 
Q 56.984375 17.96875 50.515625 8.265625 
Q 44.046875 -1.421875 31.78125 -1.421875 
Q 19.53125 -1.421875 13.0625 8.265625 
Q 6.59375 17.96875 6.59375 36.375 
Q 6.59375 54.828125 13.0625 64.515625 
Q 19.53125 74.21875 31.78125 74.21875 
z
" id="DejaVuSans-48"/>
       </defs>
       <use xlink:href="#DejaVuSans-48"/>
      </g>
     </g>
    </g>
    <g id="xtick_2">
     <g id="line2d_3">
      <path clip-path="url(#pdf91f85912)" d="M 114.516254 307.584 
L 114.516254 41.472 
" style="fill:none;stroke:#b0b0b0;stroke-linecap:square;stroke-width:0.8;"/>
     </g>
     <g id="line2d_4">
      <g>
       <use style="stroke:#000000;stroke-width:0.8;" x="114.516254" xlink:href="#mb899c580e3" y="307.584"/>
      </g>
     </g>
     <g id="text_2">
      <!-- 50 -->
      <g transform="translate(108.153754 322.182437)scale(0.1 -0.1)">
       <defs>
        <path d="M 10.796875 72.90625 
L 49.515625 72.90625 
L 49.515625 64.59375 
L 19.828125 64.59375 
L 19.828125 46.734375 
Q 21.96875 47.46875 24.109375 47.828125 
Q 26.265625 48.1875 28.421875 48.1875 
Q 40.625 48.1875 47.75 41.5 
Q 54.890625 34.8125 54.890625 23.390625 
Q 54.890625 11.625 47.5625 5.09375 
Q 40.234375 -1.421875 26.90625 -1.421875 
Q 22.3125 -1.421875 17.546875 -0.640625 
Q 12.796875 0.140625 7.71875 1.703125 
L 7.71875 11.625 
Q 12.109375 9.234375 16.796875 8.0625 
Q 21.484375 6.890625 26.703125 6.890625 
Q 35.15625 6.890625 40.078125 11.328125 
Q 45.015625 15.765625 45.015625 23.390625 
Q 45.015625 31 40.078125 35.4375 
Q 35.15625 39.890625 26.703125 39.890625 
Q 22.75 39.890625 18.8125 39.015625 
Q 14.890625 38.140625 10.796875 36.28125 
z
" id="DejaVuSans-53"/>
       </defs>
       <use xlink:href="#DejaVuSans-53"/>
       <use x="63.623047" xlink:href="#DejaVuSans-48"/>
      </g>
     </g>
    </g>
    <g id="xtick_3">
     <g id="line2d_5">
      <path clip-path="url(#pdf91f85912)" d="M 155.199781 307.584 
L 155.199781 41.472 
" style="fill:none;stroke:#b0b0b0;stroke-linecap:square;stroke-width:0.8;"/>
     </g>
     <g id="line2d_6">
      <g>
       <use style="stroke:#000000;stroke-width:0.8;" x="155.199781" xlink:href="#mb899c580e3" y="307.584"/>
      </g>
     </g>
     <g id="text_3">
      <!-- 100 -->
      <g transform="translate(145.656031 322.182437)scale(0.1 -0.1)">
       <defs>
        <path d="M 12.40625 8.296875 
L 28.515625 8.296875 
L 28.515625 63.921875 
L 10.984375 60.40625 
L 10.984375 69.390625 
L 28.421875 72.90625 
L 38.28125 72.90625 
L 38.28125 8.296875 
L 54.390625 8.296875 
L 54.390625 0 
L 12.40625 0 
z
" id="DejaVuSans-49"/>
       </defs>
       <use xlink:href="#DejaVuSans-49"/>
       <use x="63.623047" xlink:href="#DejaVuSans-48"/>
       <use x="127.246094" xlink:href="#DejaVuSans-48"/>
      </g>
     </g>
    </g>
    <g id="xtick_4">
     <g id="line2d_7">
      <path clip-path="url(#pdf91f85912)" d="M 195.883308 307.584 
L 195.883308 41.472 
" style="fill:none;stroke:#b0b0b0;stroke-linecap:square;stroke-width:0.8;"/>
     </g>
     <g id="line2d_8">
      <g>
       <use style="stroke:#000000;stroke-width:0.8;" x="195.883308" xlink:href="#mb899c580e3" y="307.584"/>
      </g>
     </g>
     <g id="text_4">
      <!-- 150 -->
      <g transform="translate(186.339558 322.182437)scale(0.1 -0.1)">
       <use xlink:href="#DejaVuSans-49"/>
       <use x="63.623047" xlink:href="#DejaVuSans-53"/>
       <use x="127.246094" xlink:href="#DejaVuSans-48"/>
      </g>
     </g>
    </g>
    <g id="xtick_5">
     <g id="line2d_9">
      <path clip-path="url(#pdf91f85912)" d="M 236.566835 307.584 
L 236.566835 41.472 
" style="fill:none;stroke:#b0b0b0;stroke-linecap:square;stroke-width:0.8;"/>
     </g>
     <g id="line2d_10">
      <g>
       <use style="stroke:#000000;stroke-width:0.8;" x="236.566835" xlink:href="#mb899c580e3" y="307.584"/>
      </g>
     </g>
     <g id="text_5">
      <!-- 200 -->
      <g transform="translate(227.023085 322.182437)scale(0.1 -0.1)">
       <defs>
        <path d="M 19.1875 8.296875 
L 53.609375 8.296875 
L 53.609375 0 
L 7.328125 0 
L 7.328125 8.296875 
Q 12.9375 14.109375 22.625 23.890625 
Q 32.328125 33.6875 34.8125 36.53125 
Q 39.546875 41.84375 41.421875 45.53125 
Q 43.3125 49.21875 43.3125 52.78125 
Q 43.3125 58.59375 39.234375 62.25 
Q 35.15625 65.921875 28.609375 65.921875 
Q 23.96875 65.921875 18.8125 64.3125 
Q 13.671875 62.703125 7.8125 59.421875 
L 7.8125 69.390625 
Q 13.765625 71.78125 18.9375 73 
Q 24.125 74.21875 28.421875 74.21875 
Q 39.75 74.21875 46.484375 68.546875 
Q 53.21875 62.890625 53.21875 53.421875 
Q 53.21875 48.921875 51.53125 44.890625 
Q 49.859375 40.875 45.40625 35.40625 
Q 44.1875 33.984375 37.640625 27.21875 
Q 31.109375 20.453125 19.1875 8.296875 
z
" id="DejaVuSans-50"/>
       </defs>
       <use xlink:href="#DejaVuSans-50"/>
       <use x="63.623047" xlink:href="#DejaVuSans-48"/>
       <use x="127.246094" xlink:href="#DejaVuSans-48"/>
      </g>
     </g>
    </g>
    <g id="xtick_6">
     <g id="line2d_11">
      <path clip-path="url(#pdf91f85912)" d="M 277.250362 307.584 
L 277.250362 41.472 
" style="fill:none;stroke:#b0b0b0;stroke-linecap:square;stroke-width:0.8;"/>
     </g>
     <g id="line2d_12">
      <g>
       <use style="stroke:#000000;stroke-width:0.8;" x="277.250362" xlink:href="#mb899c580e3" y="307.584"/>
      </g>
     </g>
     <g id="text_6">
      <!-- 250 -->
      <g transform="translate(267.706612 322.182437)scale(0.1 -0.1)">
       <use xlink:href="#DejaVuSans-50"/>
       <use x="63.623047" xlink:href="#DejaVuSans-53"/>
       <use x="127.246094" xlink:href="#DejaVuSans-48"/>
      </g>
     </g>
    </g>
    <g id="xtick_7">
     <g id="line2d_13">
      <path clip-path="url(#pdf91f85912)" d="M 317.933889 307.584 
L 317.933889 41.472 
" style="fill:none;stroke:#b0b0b0;stroke-linecap:square;stroke-width:0.8;"/>
     </g>
     <g id="line2d_14">
      <g>
       <use style="stroke:#000000;stroke-width:0.8;" x="317.933889" xlink:href="#mb899c580e3" y="307.584"/>
      </g>
     </g>
     <g id="text_7">
      <!-- 300 -->
      <g transform="translate(308.390139 322.182437)scale(0.1 -0.1)">
       <defs>
        <path d="M 40.578125 39.3125 
Q 47.65625 37.796875 51.625 33 
Q 55.609375 28.21875 55.609375 21.1875 
Q 55.609375 10.40625 48.1875 4.484375 
Q 40.765625 -1.421875 27.09375 -1.421875 
Q 22.515625 -1.421875 17.65625 -0.515625 
Q 12.796875 0.390625 7.625 2.203125 
L 7.625 11.71875 
Q 11.71875 9.328125 16.59375 8.109375 
Q 21.484375 6.890625 26.8125 6.890625 
Q 36.078125 6.890625 40.9375 10.546875 
Q 45.796875 14.203125 45.796875 21.1875 
Q 45.796875 27.640625 41.28125 31.265625 
Q 36.765625 34.90625 28.71875 34.90625 
L 20.21875 34.90625 
L 20.21875 43.015625 
L 29.109375 43.015625 
Q 36.375 43.015625 40.234375 45.921875 
Q 44.09375 48.828125 44.09375 54.296875 
Q 44.09375 59.90625 40.109375 62.90625 
Q 36.140625 65.921875 28.71875 65.921875 
Q 24.65625 65.921875 20.015625 65.03125 
Q 15.375 64.15625 9.8125 62.3125 
L 9.8125 71.09375 
Q 15.4375 72.65625 20.34375 73.4375 
Q 25.25 74.21875 29.59375 74.21875 
Q 40.828125 74.21875 47.359375 69.109375 
Q 53.90625 64.015625 53.90625 55.328125 
Q 53.90625 49.265625 50.4375 45.09375 
Q 46.96875 40.921875 40.578125 39.3125 
z
" id="DejaVuSans-51"/>
       </defs>
       <use xlink:href="#DejaVuSans-51"/>
       <use x="63.623047" xlink:href="#DejaVuSans-48"/>
       <use x="127.246094" xlink:href="#DejaVuSans-48"/>
      </g>
     </g>
    </g>
    <g id="xtick_8">
     <g id="line2d_15">
      <path clip-path="url(#pdf91f85912)" d="M 358.617416 307.584 
L 358.617416 41.472 
" style="fill:none;stroke:#b0b0b0;stroke-linecap:square;stroke-width:0.8;"/>
     </g>
     <g id="line2d_16">
      <g>
       <use style="stroke:#000000;stroke-width:0.8;" x="358.617416" xlink:href="#mb899c580e3" y="307.584"/>
      </g>
     </g>
     <g id="text_8">
      <!-- 350 -->
      <g transform="translate(349.073666 322.182437)scale(0.1 -0.1)">
       <use xlink:href="#DejaVuSans-51"/>
       <use x="63.623047" xlink:href="#DejaVuSans-53"/>
       <use x="127.246094" xlink:href="#DejaVuSans-48"/>
      </g>
     </g>
    </g>
    <g id="xtick_9">
     <g id="line2d_17">
      <path clip-path="url(#pdf91f85912)" d="M 399.300943 307.584 
L 399.300943 41.472 
" style="fill:none;stroke:#b0b0b0;stroke-linecap:square;stroke-width:0.8;"/>
     </g>
     <g id="line2d_18">
      <g>
       <use style="stroke:#000000;stroke-width:0.8;" x="399.300943" xlink:href="#mb899c580e3" y="307.584"/>
      </g>
     </g>
     <g id="text_9">
      <!-- 400 -->
      <g transform="translate(389.757193 322.182437)scale(0.1 -0.1)">
       <defs>
        <path d="M 37.796875 64.3125 
L 12.890625 25.390625 
L 37.796875 25.390625 
z
M 35.203125 72.90625 
L 47.609375 72.90625 
L 47.609375 25.390625 
L 58.015625 25.390625 
L 58.015625 17.1875 
L 47.609375 17.1875 
L 47.609375 0 
L 37.796875 0 
L 37.796875 17.1875 
L 4.890625 17.1875 
L 4.890625 26.703125 
z
" id="DejaVuSans-52"/>
       </defs>
       <use xlink:href="#DejaVuSans-52"/>
       <use x="63.623047" xlink:href="#DejaVuSans-48"/>
       <use x="127.246094" xlink:href="#DejaVuSans-48"/>
      </g>
     </g>
    </g>
    <g id="text_10">
     <!-- Generations -->
     <g transform="translate(205.662344 335.860562)scale(0.1 -0.1)">
      <defs>
       <path d="M 59.515625 10.40625 
L 59.515625 29.984375 
L 43.40625 29.984375 
L 43.40625 38.09375 
L 69.28125 38.09375 
L 69.28125 6.78125 
Q 63.578125 2.734375 56.6875 0.65625 
Q 49.8125 -1.421875 42 -1.421875 
Q 24.90625 -1.421875 15.25 8.5625 
Q 5.609375 18.5625 5.609375 36.375 
Q 5.609375 54.25 15.25 64.234375 
Q 24.90625 74.21875 42 74.21875 
Q 49.125 74.21875 55.546875 72.453125 
Q 61.96875 70.703125 67.390625 67.28125 
L 67.390625 56.78125 
Q 61.921875 61.421875 55.765625 63.765625 
Q 49.609375 66.109375 42.828125 66.109375 
Q 29.4375 66.109375 22.71875 58.640625 
Q 16.015625 51.171875 16.015625 36.375 
Q 16.015625 21.625 22.71875 14.15625 
Q 29.4375 6.6875 42.828125 6.6875 
Q 48.046875 6.6875 52.140625 7.59375 
Q 56.25 8.5 59.515625 10.40625 
z
" id="DejaVuSans-71"/>
       <path d="M 56.203125 29.59375 
L 56.203125 25.203125 
L 14.890625 25.203125 
Q 15.484375 15.921875 20.484375 11.0625 
Q 25.484375 6.203125 34.421875 6.203125 
Q 39.59375 6.203125 44.453125 7.46875 
Q 49.3125 8.734375 54.109375 11.28125 
L 54.109375 2.78125 
Q 49.265625 0.734375 44.1875 -0.34375 
Q 39.109375 -1.421875 33.890625 -1.421875 
Q 20.796875 -1.421875 13.15625 6.1875 
Q 5.515625 13.8125 5.515625 26.8125 
Q 5.515625 40.234375 12.765625 48.109375 
Q 20.015625 56 32.328125 56 
Q 43.359375 56 49.78125 48.890625 
Q 56.203125 41.796875 56.203125 29.59375 
z
M 47.21875 32.234375 
Q 47.125 39.59375 43.09375 43.984375 
Q 39.0625 48.390625 32.421875 48.390625 
Q 24.90625 48.390625 20.390625 44.140625 
Q 15.875 39.890625 15.1875 32.171875 
z
" id="DejaVuSans-101"/>
       <path d="M 54.890625 33.015625 
L 54.890625 0 
L 45.90625 0 
L 45.90625 32.71875 
Q 45.90625 40.484375 42.875 44.328125 
Q 39.84375 48.1875 33.796875 48.1875 
Q 26.515625 48.1875 22.3125 43.546875 
Q 18.109375 38.921875 18.109375 30.90625 
L 18.109375 0 
L 9.078125 0 
L 9.078125 54.6875 
L 18.109375 54.6875 
L 18.109375 46.1875 
Q 21.34375 51.125 25.703125 53.5625 
Q 30.078125 56 35.796875 56 
Q 45.21875 56 50.046875 50.171875 
Q 54.890625 44.34375 54.890625 33.015625 
z
" id="DejaVuSans-110"/>
       <path d="M 41.109375 46.296875 
Q 39.59375 47.171875 37.8125 47.578125 
Q 36.03125 48 33.890625 48 
Q 26.265625 48 22.1875 43.046875 
Q 18.109375 38.09375 18.109375 28.8125 
L 18.109375 0 
L 9.078125 0 
L 9.078125 54.6875 
L 18.109375 54.6875 
L 18.109375 46.1875 
Q 20.953125 51.171875 25.484375 53.578125 
Q 30.03125 56 36.53125 56 
Q 37.453125 56 38.578125 55.875 
Q 39.703125 55.765625 41.0625 55.515625 
z
" id="DejaVuSans-114"/>
       <path d="M 34.28125 27.484375 
Q 23.390625 27.484375 19.1875 25 
Q 14.984375 22.515625 14.984375 16.5 
Q 14.984375 11.71875 18.140625 8.90625 
Q 21.296875 6.109375 26.703125 6.109375 
Q 34.1875 6.109375 38.703125 11.40625 
Q 43.21875 16.703125 43.21875 25.484375 
L 43.21875 27.484375 
z
M 52.203125 31.203125 
L 52.203125 0 
L 43.21875 0 
L 43.21875 8.296875 
Q 40.140625 3.328125 35.546875 0.953125 
Q 30.953125 -1.421875 24.3125 -1.421875 
Q 15.921875 -1.421875 10.953125 3.296875 
Q 6 8.015625 6 15.921875 
Q 6 25.140625 12.171875 29.828125 
Q 18.359375 34.515625 30.609375 34.515625 
L 43.21875 34.515625 
L 43.21875 35.40625 
Q 43.21875 41.609375 39.140625 45 
Q 35.0625 48.390625 27.6875 48.390625 
Q 23 48.390625 18.546875 47.265625 
Q 14.109375 46.140625 10.015625 43.890625 
L 10.015625 52.203125 
Q 14.9375 54.109375 19.578125 55.046875 
Q 24.21875 56 28.609375 56 
Q 40.484375 56 46.34375 49.84375 
Q 52.203125 43.703125 52.203125 31.203125 
z
" id="DejaVuSans-97"/>
       <path d="M 18.3125 70.21875 
L 18.3125 54.6875 
L 36.8125 54.6875 
L 36.8125 47.703125 
L 18.3125 47.703125 
L 18.3125 18.015625 
Q 18.3125 11.328125 20.140625 9.421875 
Q 21.96875 7.515625 27.59375 7.515625 
L 36.8125 7.515625 
L 36.8125 0 
L 27.59375 0 
Q 17.1875 0 13.234375 3.875 
Q 9.28125 7.765625 9.28125 18.015625 
L 9.28125 47.703125 
L 2.6875 47.703125 
L 2.6875 54.6875 
L 9.28125 54.6875 
L 9.28125 70.21875 
z
" id="DejaVuSans-116"/>
       <path d="M 9.421875 54.6875 
L 18.40625 54.6875 
L 18.40625 0 
L 9.421875 0 
z
M 9.421875 75.984375 
L 18.40625 75.984375 
L 18.40625 64.59375 
L 9.421875 64.59375 
z
" id="DejaVuSans-105"/>
       <path d="M 30.609375 48.390625 
Q 23.390625 48.390625 19.1875 42.75 
Q 14.984375 37.109375 14.984375 27.296875 
Q 14.984375 17.484375 19.15625 11.84375 
Q 23.34375 6.203125 30.609375 6.203125 
Q 37.796875 6.203125 41.984375 11.859375 
Q 46.1875 17.53125 46.1875 27.296875 
Q 46.1875 37.015625 41.984375 42.703125 
Q 37.796875 48.390625 30.609375 48.390625 
z
M 30.609375 56 
Q 42.328125 56 49.015625 48.375 
Q 55.71875 40.765625 55.71875 27.296875 
Q 55.71875 13.875 49.015625 6.21875 
Q 42.328125 -1.421875 30.609375 -1.421875 
Q 18.84375 -1.421875 12.171875 6.21875 
Q 5.515625 13.875 5.515625 27.296875 
Q 5.515625 40.765625 12.171875 48.375 
Q 18.84375 56 30.609375 56 
z
" id="DejaVuSans-111"/>
       <path d="M 44.28125 53.078125 
L 44.28125 44.578125 
Q 40.484375 46.53125 36.375 47.5 
Q 32.28125 48.484375 27.875 48.484375 
Q 21.1875 48.484375 17.84375 46.4375 
Q 14.5 44.390625 14.5 40.28125 
Q 14.5 37.15625 16.890625 35.375 
Q 19.28125 33.59375 26.515625 31.984375 
L 29.59375 31.296875 
Q 39.15625 29.25 43.1875 25.515625 
Q 47.21875 21.78125 47.21875 15.09375 
Q 47.21875 7.46875 41.1875 3.015625 
Q 35.15625 -1.421875 24.609375 -1.421875 
Q 20.21875 -1.421875 15.453125 -0.5625 
Q 10.6875 0.296875 5.421875 2 
L 5.421875 11.28125 
Q 10.40625 8.6875 15.234375 7.390625 
Q 20.0625 6.109375 24.8125 6.109375 
Q 31.15625 6.109375 34.5625 8.28125 
Q 37.984375 10.453125 37.984375 14.40625 
Q 37.984375 18.0625 35.515625 20.015625 
Q 33.0625 21.96875 24.703125 23.78125 
L 21.578125 24.515625 
Q 13.234375 26.265625 9.515625 29.90625 
Q 5.8125 33.546875 5.8125 39.890625 
Q 5.8125 47.609375 11.28125 51.796875 
Q 16.75 56 26.8125 56 
Q 31.78125 56 36.171875 55.265625 
Q 40.578125 54.546875 44.28125 53.078125 
z
" id="DejaVuSans-115"/>
      </defs>
      <use xlink:href="#DejaVuSans-71"/>
      <use x="77.490234" xlink:href="#DejaVuSans-101"/>
      <use x="139.013672" xlink:href="#DejaVuSans-110"/>
      <use x="202.392578" xlink:href="#DejaVuSans-101"/>
      <use x="263.916016" xlink:href="#DejaVuSans-114"/>
      <use x="305.029297" xlink:href="#DejaVuSans-97"/>
      <use x="366.308594" xlink:href="#DejaVuSans-116"/>
      <use x="405.517578" xlink:href="#DejaVuSans-105"/>
      <use x="433.300781" xlink:href="#DejaVuSans-111"/>
      <use x="494.482422" xlink:href="#DejaVuSans-110"/>
      <use x="557.861328" xlink:href="#DejaVuSans-115"/>
     </g>
    </g>
   </g>
   <g id="matplotlib.axis_2">
    <g id="ytick_1">
     <g id="line2d_19">
      <path clip-path="url(#pdf91f85912)" d="M 57.6 301.350365 
L 414.72 301.350365 
" style="fill:none;stroke:#b0b0b0;stroke-linecap:square;stroke-width:0.8;"/>
     </g>
     <g id="line2d_20">
      <defs>
       <path d="M 0 0 
L -3.5 0 
" id="mb57c795ade" style="stroke:#000000;stroke-width:0.8;"/>
      </defs>
      <g>
       <use style="stroke:#000000;stroke-width:0.8;" x="57.6" xlink:href="#mb57c795ade" y="301.350365"/>
      </g>
     </g>
     <g id="text_11">
      <!-- $\mathdefault{-10^{3}}$ -->
      <g transform="translate(24.6 305.149584)scale(0.1 -0.1)">
       <defs>
        <path d="M 10.59375 35.5 
L 73.1875 35.5 
L 73.1875 27.203125 
L 10.59375 27.203125 
z
" id="DejaVuSans-8722"/>
       </defs>
       <use transform="translate(0 0.765625)" xlink:href="#DejaVuSans-8722"/>
       <use transform="translate(83.789062 0.765625)" xlink:href="#DejaVuSans-49"/>
       <use transform="translate(147.412109 0.765625)" xlink:href="#DejaVuSans-48"/>
       <use transform="translate(211.992188 39.046875)scale(0.7)" xlink:href="#DejaVuSans-51"/>
      </g>
     </g>
    </g>
    <g id="text_12">
     <!-- Fitness -->
     <g transform="translate(18.520312 191.845187)rotate(-90)scale(0.1 -0.1)">
      <defs>
       <path d="M 9.8125 72.90625 
L 51.703125 72.90625 
L 51.703125 64.59375 
L 19.671875 64.59375 
L 19.671875 43.109375 
L 48.578125 43.109375 
L 48.578125 34.8125 
L 19.671875 34.8125 
L 19.671875 0 
L 9.8125 0 
z
" id="DejaVuSans-70"/>
      </defs>
      <use xlink:href="#DejaVuSans-70"/>
      <use x="50.269531" xlink:href="#DejaVuSans-105"/>
      <use x="78.052734" xlink:href="#DejaVuSans-116"/>
      <use x="117.261719" xlink:href="#DejaVuSans-110"/>
      <use x="180.640625" xlink:href="#DejaVuSans-101"/>
      <use x="242.164062" xlink:href="#DejaVuSans-115"/>
      <use x="294.263672" xlink:href="#DejaVuSans-115"/>
     </g>
    </g>
   </g>
   <g id="line2d_21">
    <path clip-path="url(#pdf91f85912)" d="M 73.832727 295.488 
L 74.646398 290.14289 
L 75.460068 288.163854 
L 76.273739 286.656778 
L 77.087409 286.505362 
L 77.90108 288.398118 
L 78.714751 285.378905 
L 79.528421 284.286649 
L 80.342092 282.850874 
L 81.155762 285.844361 
L 81.969433 282.656396 
L 82.783103 282.100424 
L 84.410444 282.819778 
L 85.224115 279.569122 
L 86.037785 277.714643 
L 86.851456 277.630871 
L 87.665126 277.872802 
L 88.478797 275.593673 
L 89.292468 276.577647 
L 90.106138 273.334737 
L 90.919809 271.843616 
L 91.733479 271.152524 
L 92.54715 266.363126 
L 93.36082 263.19296 
L 94.174491 265.002435 
L 94.988161 269.946463 
L 95.801832 270.17772 
L 96.615502 271.179225 
L 97.429173 268.931264 
L 98.242843 269.998432 
L 99.056514 265.416106 
L 99.870185 273.642154 
L 100.683855 268.532107 
L 101.497526 261.293741 
L 102.311196 263.342488 
L 103.124867 255.569802 
L 103.938537 259.028928 
L 104.752208 260.560009 
L 105.565878 264.503999 
L 106.379549 261.19746 
L 107.193219 261.441565 
L 108.00689 260.225192 
L 108.82056 264.941183 
L 109.634231 255.614806 
L 110.447902 255.511107 
L 111.261572 251.42551 
L 112.075243 256.586094 
L 112.888913 245.087436 
L 113.702584 256.1546 
L 114.516254 247.27782 
L 115.329925 250.120806 
L 116.143595 248.366246 
L 116.957266 249.54982 
L 117.770936 253.594998 
L 118.584607 254.021599 
L 119.398278 255.38179 
L 120.211948 241.694375 
L 121.025619 242.803805 
L 121.839289 255.722836 
L 122.65296 244.218293 
L 123.46663 250.685213 
L 124.280301 240.178822 
L 125.093971 247.718462 
L 125.907642 247.896839 
L 126.721312 250.322712 
L 127.534983 242.946546 
L 128.348653 245.853858 
L 129.162324 231.471079 
L 129.975995 238.299018 
L 130.789665 248.250388 
L 132.417006 231.999475 
L 133.230677 229.85151 
L 134.044347 234.421315 
L 134.858018 240.261258 
L 135.671688 247.789591 
L 136.485359 240.251678 
L 137.299029 240.566393 
L 138.1127 248.455212 
L 138.92637 241.114323 
L 139.740041 239.961112 
L 140.553712 234.267078 
L 141.367382 241.376817 
L 142.181053 237.69366 
L 142.994723 244.236791 
L 143.808394 244.219265 
L 144.622064 236.929277 
L 145.435735 250.178568 
L 146.249405 244.099181 
L 147.063076 246.275208 
L 147.876746 247.740282 
L 148.690417 242.787173 
L 149.504087 238.884726 
L 150.317758 238.436323 
L 151.131429 245.525524 
L 151.945099 238.753183 
L 152.75877 249.672354 
L 153.57244 247.961249 
L 154.386111 257.149434 
L 155.199781 249.604375 
L 156.013452 252.526189 
L 156.827122 252.074494 
L 157.640793 248.50812 
L 158.454463 247.717128 
L 159.268134 240.835022 
L 160.081805 240.488346 
L 160.895475 252.200711 
L 161.709146 240.871779 
L 162.522816 241.901763 
L 163.336487 237.519368 
L 164.150157 239.782965 
L 164.963828 240.699091 
L 165.777498 240.011855 
L 166.591169 242.199254 
L 167.404839 243.556742 
L 168.21851 233.558504 
L 169.03218 237.059376 
L 169.845851 243.041089 
L 170.659522 250.83258 
L 171.473192 237.04994 
L 172.286863 237.013241 
L 173.100533 243.149605 
L 173.914204 238.70959 
L 174.727874 239.274517 
L 175.541545 229.544562 
L 176.355215 238.717039 
L 177.168886 244.04521 
L 177.982556 234.358471 
L 178.796227 236.045203 
L 179.609897 239.389818 
L 180.423568 244.033099 
L 181.237239 238.555249 
L 182.050909 245.418938 
L 182.86458 241.404469 
L 183.67825 238.956402 
L 184.491921 247.737854 
L 185.305591 239.364993 
L 186.119262 232.653412 
L 186.932932 242.548801 
L 187.746603 245.940706 
L 188.560273 239.917663 
L 189.373944 240.957849 
L 190.187614 244.799873 
L 191.001285 239.536728 
L 191.814956 237.473381 
L 192.628626 239.205452 
L 193.442297 239.962501 
L 194.255967 248.255323 
L 195.069638 242.566064 
L 195.883308 240.589173 
L 196.696979 242.182058 
L 197.510649 246.564166 
L 198.32432 248.25829 
L 199.13799 234.972984 
L 199.951661 248.616487 
L 200.765332 241.697196 
L 201.579002 232.610961 
L 202.392673 245.23074 
L 203.206343 242.992749 
L 204.020014 233.533874 
L 204.833684 230.942203 
L 205.647355 243.724997 
L 206.461025 238.386419 
L 207.274696 246.472092 
L 208.902037 221.818746 
L 209.715707 238.92359 
L 210.529378 233.3703 
L 211.343049 239.353666 
L 212.156719 243.680316 
L 212.97039 237.177587 
L 213.78406 236.105426 
L 214.597731 230.639128 
L 215.411401 232.808468 
L 216.225072 226.41544 
L 217.038742 221.574669 
L 217.852413 235.306926 
L 218.666083 220.617682 
L 219.479754 231.56497 
L 220.293424 231.467929 
L 221.107095 229.772208 
L 221.920766 227.560501 
L 222.734436 234.004602 
L 223.548107 223.973657 
L 224.361777 238.399291 
L 225.175448 239.333738 
L 225.989118 235.173965 
L 226.802789 237.310861 
L 227.616459 241.250655 
L 228.43013 231.868289 
L 229.2438 242.203028 
L 230.057471 246.114715 
L 230.871141 240.993763 
L 231.684812 231.498304 
L 233.312153 243.018096 
L 234.125824 222.94674 
L 234.939494 240.983355 
L 235.753165 242.64855 
L 236.566835 249.253687 
L 237.380506 250.863261 
L 238.194176 246.412225 
L 239.007847 240.241643 
L 239.821517 229.83152 
L 240.635188 236.961315 
L 241.448859 233.926039 
L 242.262529 244.846179 
L 243.0762 233.388883 
L 243.88987 230.558531 
L 244.703541 236.713585 
L 245.517211 235.49282 
L 246.330882 233.082123 
L 247.144552 237.304332 
L 247.958223 232.607095 
L 248.771893 227.055608 
L 249.585564 234.6422 
L 250.399234 232.212238 
L 251.212905 231.301876 
L 252.026576 236.223557 
L 252.840246 235.771531 
L 253.653917 244.293869 
L 254.467587 245.389686 
L 255.281258 240.716168 
L 256.094928 240.992616 
L 256.908599 254.70729 
L 257.722269 250.507726 
L 258.53594 250.502777 
L 259.34961 251.060024 
L 260.163281 255.316133 
L 260.976951 251.575741 
L 261.790622 246.228783 
L 262.604293 243.271254 
L 263.417963 243.364281 
L 264.231634 246.518878 
L 265.045304 235.566497 
L 266.672645 245.008528 
L 267.486316 242.169071 
L 268.299986 243.056166 
L 269.113657 239.056745 
L 269.927327 244.867074 
L 270.740998 247.831586 
L 271.554668 246.129208 
L 272.368339 237.05209 
L 273.18201 248.653601 
L 273.99568 249.337873 
L 274.809351 234.390576 
L 275.623021 237.38869 
L 276.436692 246.036466 
L 277.250362 243.374142 
L 278.064033 242.506699 
L 278.877703 237.697627 
L 279.691374 236.703813 
L 280.505044 225.958536 
L 281.318715 238.140871 
L 282.132386 239.537602 
L 282.946056 238.157331 
L 283.759727 247.844039 
L 284.573397 246.655685 
L 285.387068 236.821929 
L 286.200738 233.773324 
L 287.014409 235.739094 
L 287.828079 241.179483 
L 288.64175 235.581677 
L 289.45542 245.39828 
L 290.269091 249.183042 
L 291.082761 236.248515 
L 292.710103 243.111609 
L 293.523773 231.882975 
L 294.337444 245.244803 
L 295.151114 245.706086 
L 295.964785 242.574464 
L 296.778455 247.63658 
L 297.592126 243.37786 
L 298.405796 243.900425 
L 299.219467 238.552074 
L 300.033137 236.786989 
L 300.846808 236.650864 
L 301.660478 233.962231 
L 302.474149 235.272214 
L 303.28782 244.762482 
L 304.10149 246.461387 
L 304.915161 238.763683 
L 305.728831 233.400809 
L 306.542502 245.483506 
L 307.356172 247.13294 
L 308.169843 249.389633 
L 308.983513 239.961236 
L 309.797184 223.445688 
L 310.610854 235.240745 
L 311.424525 227.887536 
L 312.238195 232.914726 
L 313.051866 234.023886 
L 313.865537 233.00532 
L 314.679207 236.617975 
L 315.492878 237.598806 
L 316.306548 237.82201 
L 317.120219 233.148852 
L 317.933889 234.258374 
L 318.74756 243.312135 
L 319.56123 236.670881 
L 320.374901 240.128553 
L 321.188571 233.094014 
L 322.002242 236.3448 
L 322.815913 235.354537 
L 323.629583 224.328457 
L 324.443254 237.992891 
L 325.256924 240.250577 
L 326.070595 229.585454 
L 326.884265 225.361609 
L 327.697936 232.339917 
L 328.511606 225.414035 
L 329.325277 229.265432 
L 330.138947 226.077578 
L 330.952618 237.43112 
L 331.766288 239.412831 
L 332.579959 231.278053 
L 333.39363 240.474773 
L 334.2073 222.059372 
L 335.834641 237.283904 
L 336.648312 237.389633 
L 337.461982 231.427614 
L 338.275653 232.491034 
L 339.089323 226.448267 
L 339.902994 228.413656 
L 340.716664 237.334954 
L 341.530335 230.386304 
L 342.344005 237.36626 
L 343.157676 243.169691 
L 343.971347 226.594496 
L 344.785017 238.096617 
L 345.598688 236.602366 
L 346.412358 224.778376 
L 348.039699 236.907729 
L 348.85337 225.830184 
L 349.66704 235.501265 
L 350.480711 230.400648 
L 351.294381 240.535699 
L 352.108052 224.013045 
L 352.921722 233.890925 
L 353.735393 230.355097 
L 354.549064 230.329866 
L 355.362734 233.180488 
L 356.176405 226.296287 
L 356.990075 228.089902 
L 357.803746 232.560484 
L 358.617416 226.709782 
L 359.431087 230.673842 
L 360.244757 232.74825 
L 361.058428 233.382708 
L 361.872098 231.735337 
L 362.685769 223.515509 
L 363.49944 235.091189 
L 364.31311 235.28661 
L 365.126781 239.211858 
L 365.940451 232.351702 
L 366.754122 237.708929 
L 367.567792 226.19878 
L 368.381463 231.375801 
L 370.008804 225.104189 
L 370.822474 229.965054 
L 371.636145 220.109257 
L 372.449815 229.852641 
L 373.263486 230.797255 
L 374.077157 240.136511 
L 374.890827 239.28539 
L 375.704498 228.443508 
L 376.518168 233.648836 
L 377.331839 233.482569 
L 378.95918 232.202712 
L 379.77285 226.160767 
L 380.586521 232.117188 
L 381.400191 234.600894 
L 382.213862 230.381858 
L 383.027532 233.136792 
L 383.841203 221.182924 
L 384.654874 236.658142 
L 385.468544 233.947813 
L 386.282215 239.813798 
L 387.095885 237.594802 
L 387.909556 241.640319 
L 388.723226 242.717698 
L 389.536897 240.889989 
L 390.350567 234.976464 
L 391.164238 236.244842 
L 391.977908 242.845337 
L 392.791579 243.57115 
L 393.605249 236.872909 
L 394.41892 247.491138 
L 395.232591 235.448182 
L 396.046261 234.004409 
L 396.859932 234.554282 
L 397.673602 237.165867 
L 398.487273 237.33454 
L 398.487273 237.33454 
" style="fill:none;stroke:#0000ff;stroke-linecap:square;stroke-width:1.5;"/>
   </g>
   <g id="line2d_22">
    <path clip-path="url(#pdf91f85912)" d="M 73.832727 279.413725 
L 74.646398 274.716811 
L 75.460068 271.77664 
L 76.273739 272.173931 
L 77.087409 242.485502 
L 77.90108 254.147836 
L 78.714751 249.455404 
L 79.528421 241.101783 
L 81.155762 231.304892 
L 81.969433 223.14024 
L 82.783103 224.043482 
L 83.596774 211.207086 
L 84.410444 232.617516 
L 85.224115 225.505681 
L 86.037785 210.298499 
L 86.851456 221.175238 
L 87.665126 202.838775 
L 89.292468 230.053901 
L 90.106138 220.179948 
L 90.919809 211.718973 
L 91.733479 220.899753 
L 92.54715 195.890917 
L 93.36082 197.482971 
L 94.174491 194.960319 
L 94.988161 193.340866 
L 95.801832 205.337707 
L 96.615502 195.485708 
L 97.429173 194.209144 
L 98.242843 196.802274 
L 99.056514 200.911432 
L 99.870185 206.79825 
L 100.683855 204.477536 
L 101.497526 181.075596 
L 102.311196 200.774435 
L 103.124867 128.459067 
L 103.938537 188.156229 
L 104.752208 200.098175 
L 105.565878 178.477695 
L 106.379549 180.247056 
L 107.193219 176.479144 
L 108.00689 187.606748 
L 108.82056 211.075927 
L 109.634231 134.659269 
L 110.447902 155.027738 
L 111.261572 178.839128 
L 112.075243 179.909436 
L 112.888913 157.102182 
L 113.702584 168.573368 
L 114.516254 167.297795 
L 115.329925 171.586118 
L 116.143595 181.604608 
L 116.957266 173.089292 
L 117.770936 170.732592 
L 118.584607 181.809262 
L 119.398278 172.134886 
L 120.211948 150.942808 
L 121.025619 160.616257 
L 121.839289 193.128216 
L 122.65296 145.366255 
L 123.46663 189.922564 
L 124.280301 128.255968 
L 125.093971 188.782996 
L 125.907642 180.030933 
L 126.721312 164.212271 
L 127.534983 108.623225 
L 128.348653 165.516814 
L 129.162324 137.665838 
L 129.975995 151.349601 
L 130.789665 145.996332 
L 131.603336 146.436664 
L 132.417006 152.567223 
L 133.230677 152.667839 
L 134.044347 157.444522 
L 134.858018 159.493044 
L 135.671688 171.701815 
L 136.485359 156.389223 
L 137.299029 162.196381 
L 138.1127 169.812865 
L 138.92637 159.164429 
L 139.740041 160.269311 
L 140.553712 156.300512 
L 141.367382 113.967667 
L 142.181053 161.844822 
L 142.994723 163.771026 
L 143.808394 135.291495 
L 144.622064 137.775364 
L 145.435735 164.133924 
L 146.249405 118.397073 
L 147.063076 183.129774 
L 147.876746 112.164495 
L 148.690417 184.286153 
L 149.504087 165.303655 
L 150.317758 152.998636 
L 151.131429 149.130554 
L 151.945099 145.891108 
L 152.75877 188.576271 
L 153.57244 185.389528 
L 154.386111 180.414325 
L 155.199781 128.184503 
L 156.013452 174.673965 
L 156.827122 169.72094 
L 157.640793 175.977829 
L 158.454463 157.750663 
L 159.268134 166.938268 
L 160.081805 143.686003 
L 160.895475 176.570839 
L 161.709146 156.214838 
L 162.522816 164.569214 
L 163.336487 144.487698 
L 164.150157 163.418332 
L 164.963828 161.883479 
L 165.777498 159.429675 
L 166.591169 144.124829 
L 167.404839 157.148867 
L 168.21851 156.450377 
L 169.03218 158.034798 
L 169.845851 152.496525 
L 170.659522 172.914925 
L 171.473192 167.079859 
L 172.286863 139.038288 
L 173.100533 182.648399 
L 173.914204 148.152615 
L 174.727874 119.945078 
L 175.541545 154.345294 
L 176.355215 158.014907 
L 177.168886 175.203006 
L 177.982556 136.853878 
L 178.796227 134.214255 
L 179.609897 177.956989 
L 180.423568 149.669811 
L 181.237239 179.57002 
L 182.050909 166.818376 
L 182.86458 163.086589 
L 183.67825 162.97021 
L 184.491921 160.708488 
L 185.305591 171.930044 
L 186.119262 132.720358 
L 186.932932 130.777978 
L 188.560273 181.424602 
L 189.373944 121.990637 
L 190.187614 170.129436 
L 191.001285 173.184757 
L 191.814956 148.289679 
L 192.628626 147.995997 
L 193.442297 132.958166 
L 194.255967 172.637489 
L 195.069638 182.907513 
L 195.883308 163.937415 
L 196.696979 138.607333 
L 197.510649 180.277095 
L 198.32432 180.894825 
L 199.13799 149.043265 
L 199.951661 175.587622 
L 200.765332 170.506889 
L 201.579002 157.508596 
L 202.392673 197.061616 
L 203.206343 173.348865 
L 204.020014 163.256059 
L 204.833684 164.837908 
L 205.647355 140.260161 
L 206.461025 149.132334 
L 207.274696 173.564313 
L 208.088366 114.118102 
L 208.902037 130.279412 
L 209.715707 161.10939 
L 210.529378 119.186677 
L 211.343049 144.484308 
L 212.156719 140.827017 
L 212.97039 159.752183 
L 213.78406 152.477846 
L 214.597731 149.236941 
L 215.411401 143.097993 
L 216.225072 139.183629 
L 217.038742 134.558857 
L 217.852413 158.22284 
L 218.666083 111.487558 
L 219.479754 158.05782 
L 220.293424 141.759288 
L 221.107095 162.560995 
L 221.920766 163.390747 
L 222.734436 157.688654 
L 223.548107 133.264566 
L 224.361777 158.484474 
L 225.175448 166.804096 
L 225.989118 140.070591 
L 226.802789 152.217706 
L 227.616459 160.640135 
L 228.43013 153.954796 
L 229.2438 159.866195 
L 230.057471 150.975241 
L 230.871141 172.825037 
L 231.684812 153.436116 
L 232.498483 158.612069 
L 233.312153 169.077997 
L 234.125824 153.243329 
L 234.939494 175.256957 
L 235.753165 123.823962 
L 236.566835 171.391281 
L 237.380506 172.43967 
L 238.194176 158.79174 
L 239.007847 159.111825 
L 239.821517 112.857148 
L 240.635188 153.690092 
L 241.448859 137.615905 
L 242.262529 173.840876 
L 243.0762 170.237772 
L 243.88987 136.472311 
L 244.703541 151.468355 
L 245.517211 155.338439 
L 246.330882 164.704499 
L 247.144552 169.84127 
L 247.958223 149.622079 
L 248.771893 152.567665 
L 249.585564 123.695632 
L 250.399234 144.587111 
L 251.212905 138.038356 
L 252.026576 161.338829 
L 252.840246 134.751964 
L 253.653917 170.745129 
L 254.467587 170.43825 
L 255.281258 140.475918 
L 256.094928 154.519272 
L 256.908599 165.517187 
L 257.722269 133.586014 
L 258.53594 175.4595 
L 259.34961 166.935545 
L 260.163281 185.105824 
L 260.976951 141.293345 
L 261.790622 171.829765 
L 262.604293 164.853493 
L 263.417963 162.837247 
L 264.231634 182.633187 
L 265.045304 145.119943 
L 265.858975 155.691126 
L 266.672645 145.188114 
L 267.486316 146.791236 
L 268.299986 185.030318 
L 269.113657 165.140029 
L 269.927327 174.513178 
L 270.740998 171.847862 
L 271.554668 161.89568 
L 272.368339 147.687488 
L 273.99568 177.885366 
L 274.809351 159.028468 
L 275.623021 142.796278 
L 276.436692 167.433352 
L 277.250362 170.459234 
L 278.064033 170.494201 
L 278.877703 170.026642 
L 279.691374 153.718065 
L 280.505044 74.770606 
L 281.318715 161.979759 
L 282.132386 165.6911 
L 282.946056 167.218877 
L 283.759727 167.863803 
L 284.573397 167.962581 
L 285.387068 144.597041 
L 286.200738 179.915616 
L 287.014409 170.915529 
L 287.828079 182.364356 
L 288.64175 169.541203 
L 289.45542 173.125599 
L 290.269091 174.356059 
L 291.082761 164.880353 
L 291.896432 160.948886 
L 292.710103 158.052815 
L 293.523773 111.899355 
L 294.337444 177.755885 
L 295.151114 157.073445 
L 295.964785 172.941797 
L 296.778455 183.861762 
L 297.592126 176.394987 
L 298.405796 161.973965 
L 299.219467 143.226074 
L 300.033137 162.052995 
L 300.846808 150.811187 
L 301.660478 142.425912 
L 302.474149 167.92307 
L 303.28782 155.805656 
L 304.10149 129.878773 
L 304.915161 154.168543 
L 305.728831 164.136018 
L 306.542502 139.784861 
L 307.356172 166.587344 
L 308.169843 165.440515 
L 308.983513 177.549591 
L 309.797184 143.979738 
L 310.610854 155.934956 
L 311.424525 143.232535 
L 312.238195 134.904197 
L 313.051866 151.463419 
L 313.865537 141.135147 
L 314.679207 157.938993 
L 315.492878 114.154996 
L 316.306548 149.735422 
L 317.120219 164.735717 
L 317.933889 157.945409 
L 318.74756 176.946627 
L 319.56123 149.516258 
L 320.374901 162.798168 
L 321.188571 93.528794 
L 322.002242 172.254036 
L 322.815913 167.367462 
L 323.629583 122.696579 
L 324.443254 154.554914 
L 325.256924 174.367931 
L 326.070595 120.662819 
L 326.884265 95.465209 
L 327.697936 127.776831 
L 328.511606 155.397072 
L 329.325277 127.751181 
L 330.138947 162.402198 
L 330.952618 150.34924 
L 331.766288 170.401959 
L 332.579959 172.054162 
L 333.39363 153.60958 
L 334.2073 113.108154 
L 335.020971 138.99069 
L 335.834641 149.935082 
L 337.461982 139.171528 
L 338.275653 157.646393 
L 339.089323 156.740293 
L 339.902994 145.478915 
L 340.716664 169.180819 
L 341.530335 169.876359 
L 342.344005 153.47642 
L 343.157676 174.042579 
L 343.971347 134.854406 
L 344.785017 165.328803 
L 345.598688 168.496939 
L 346.412358 99.333918 
L 347.226029 103.526866 
L 348.039699 151.394866 
L 348.85337 130.674124 
L 349.66704 149.094059 
L 350.480711 138.550795 
L 351.294381 159.242087 
L 352.108052 106.316161 
L 352.921722 147.66778 
L 353.735393 158.969955 
L 354.549064 148.633572 
L 355.362734 141.314855 
L 356.176405 104.652159 
L 356.990075 167.786773 
L 357.803746 167.730929 
L 358.617416 143.216772 
L 359.431087 161.598864 
L 360.244757 147.084531 
L 361.058428 157.992116 
L 361.872098 140.23527 
L 362.685769 148.480418 
L 363.49944 141.599746 
L 364.31311 148.852732 
L 365.126781 155.02253 
L 365.940451 157.905369 
L 366.754122 165.797302 
L 367.567792 145.826715 
L 368.381463 151.432192 
L 369.195133 150.558928 
L 370.008804 115.126137 
L 370.822474 128.469236 
L 371.636145 53.568 
L 372.449815 157.418379 
L 373.263486 149.608939 
L 374.077157 148.714515 
L 374.890827 163.155097 
L 375.704498 138.183631 
L 376.518168 137.275892 
L 377.331839 156.346081 
L 378.145509 136.392169 
L 378.95918 137.427699 
L 379.77285 55.957729 
L 380.586521 128.164082 
L 381.400191 173.884833 
L 382.213862 168.415302 
L 383.027532 173.080019 
L 383.841203 73.204849 
L 384.654874 141.726145 
L 385.468544 138.357656 
L 386.282215 155.390774 
L 387.095885 155.787498 
L 388.723226 126.890449 
L 389.536897 161.470158 
L 390.350567 170.20319 
L 391.164238 166.618857 
L 391.977908 88.347649 
L 392.791579 173.512324 
L 393.605249 112.775823 
L 394.41892 171.565618 
L 395.232591 154.733414 
L 396.046261 162.382423 
L 396.859932 167.16101 
L 398.487273 137.160939 
L 398.487273 137.160939 
" style="fill:none;stroke:#ff0000;stroke-linecap:square;stroke-width:1.5;"/>
   </g>
   <g id="patch_3">
    <path d="M 57.6 307.584 
L 57.6 41.472 
" style="fill:none;stroke:#000000;stroke-linecap:square;stroke-linejoin:miter;stroke-width:0.8;"/>
   </g>
   <g id="patch_4">
    <path d="M 414.72 307.584 
L 414.72 41.472 
" style="fill:none;stroke:#000000;stroke-linecap:square;stroke-linejoin:miter;stroke-width:0.8;"/>
   </g>
   <g id="patch_5">
    <path d="M 57.6 307.584 
L 414.72 307.584 
" style="fill:none;stroke:#000000;stroke-linecap:square;stroke-linejoin:miter;stroke-width:0.8;"/>
   </g>
   <g id="patch_6">
    <path d="M 57.6 41.472 
L 414.72 41.472 
" style="fill:none;stroke:#000000;stroke-linecap:square;stroke-linejoin:miter;stroke-width:0.8;"/>
   </g>
   <g id="text_13">
    <!-- Population's average and best fitness -->
    <g transform="translate(123.529687 35.472)scale(0.12 -0.12)">
     <defs>
      <path d="M 19.671875 64.796875 
L 19.671875 37.40625 
L 32.078125 37.40625 
Q 38.96875 37.40625 42.71875 40.96875 
Q 46.484375 44.53125 46.484375 51.125 
Q 46.484375 57.671875 42.71875 61.234375 
Q 38.96875 64.796875 32.078125 64.796875 
z
M 9.8125 72.90625 
L 32.078125 72.90625 
Q 44.34375 72.90625 50.609375 67.359375 
Q 56.890625 61.8125 56.890625 51.125 
Q 56.890625 40.328125 50.609375 34.8125 
Q 44.34375 29.296875 32.078125 29.296875 
L 19.671875 29.296875 
L 19.671875 0 
L 9.8125 0 
z
" id="DejaVuSans-80"/>
      <path d="M 18.109375 8.203125 
L 18.109375 -20.796875 
L 9.078125 -20.796875 
L 9.078125 54.6875 
L 18.109375 54.6875 
L 18.109375 46.390625 
Q 20.953125 51.265625 25.265625 53.625 
Q 29.59375 56 35.59375 56 
Q 45.5625 56 51.78125 48.09375 
Q 58.015625 40.1875 58.015625 27.296875 
Q 58.015625 14.40625 51.78125 6.484375 
Q 45.5625 -1.421875 35.59375 -1.421875 
Q 29.59375 -1.421875 25.265625 0.953125 
Q 20.953125 3.328125 18.109375 8.203125 
z
M 48.6875 27.296875 
Q 48.6875 37.203125 44.609375 42.84375 
Q 40.53125 48.484375 33.40625 48.484375 
Q 26.265625 48.484375 22.1875 42.84375 
Q 18.109375 37.203125 18.109375 27.296875 
Q 18.109375 17.390625 22.1875 11.75 
Q 26.265625 6.109375 33.40625 6.109375 
Q 40.53125 6.109375 44.609375 11.75 
Q 48.6875 17.390625 48.6875 27.296875 
z
" id="DejaVuSans-112"/>
      <path d="M 8.5 21.578125 
L 8.5 54.6875 
L 17.484375 54.6875 
L 17.484375 21.921875 
Q 17.484375 14.15625 20.5 10.265625 
Q 23.53125 6.390625 29.59375 6.390625 
Q 36.859375 6.390625 41.078125 11.03125 
Q 45.3125 15.671875 45.3125 23.6875 
L 45.3125 54.6875 
L 54.296875 54.6875 
L 54.296875 0 
L 45.3125 0 
L 45.3125 8.40625 
Q 42.046875 3.421875 37.71875 1 
Q 33.40625 -1.421875 27.6875 -1.421875 
Q 18.265625 -1.421875 13.375 4.4375 
Q 8.5 10.296875 8.5 21.578125 
z
M 31.109375 56 
z
" id="DejaVuSans-117"/>
      <path d="M 9.421875 75.984375 
L 18.40625 75.984375 
L 18.40625 0 
L 9.421875 0 
z
" id="DejaVuSans-108"/>
      <path d="M 17.921875 72.90625 
L 17.921875 45.796875 
L 9.625 45.796875 
L 9.625 72.90625 
z
" id="DejaVuSans-39"/>
      <path id="DejaVuSans-32"/>
      <path d="M 2.984375 54.6875 
L 12.5 54.6875 
L 29.59375 8.796875 
L 46.6875 54.6875 
L 56.203125 54.6875 
L 35.6875 0 
L 23.484375 0 
z
" id="DejaVuSans-118"/>
      <path d="M 45.40625 27.984375 
Q 45.40625 37.75 41.375 43.109375 
Q 37.359375 48.484375 30.078125 48.484375 
Q 22.859375 48.484375 18.828125 43.109375 
Q 14.796875 37.75 14.796875 27.984375 
Q 14.796875 18.265625 18.828125 12.890625 
Q 22.859375 7.515625 30.078125 7.515625 
Q 37.359375 7.515625 41.375 12.890625 
Q 45.40625 18.265625 45.40625 27.984375 
z
M 54.390625 6.78125 
Q 54.390625 -7.171875 48.1875 -13.984375 
Q 42 -20.796875 29.203125 -20.796875 
Q 24.46875 -20.796875 20.265625 -20.09375 
Q 16.0625 -19.390625 12.109375 -17.921875 
L 12.109375 -9.1875 
Q 16.0625 -11.328125 19.921875 -12.34375 
Q 23.78125 -13.375 27.78125 -13.375 
Q 36.625 -13.375 41.015625 -8.765625 
Q 45.40625 -4.15625 45.40625 5.171875 
L 45.40625 9.625 
Q 42.625 4.78125 38.28125 2.390625 
Q 33.9375 0 27.875 0 
Q 17.828125 0 11.671875 7.65625 
Q 5.515625 15.328125 5.515625 27.984375 
Q 5.515625 40.671875 11.671875 48.328125 
Q 17.828125 56 27.875 56 
Q 33.9375 56 38.28125 53.609375 
Q 42.625 51.21875 45.40625 46.390625 
L 45.40625 54.6875 
L 54.390625 54.6875 
z
" id="DejaVuSans-103"/>
      <path d="M 45.40625 46.390625 
L 45.40625 75.984375 
L 54.390625 75.984375 
L 54.390625 0 
L 45.40625 0 
L 45.40625 8.203125 
Q 42.578125 3.328125 38.25 0.953125 
Q 33.9375 -1.421875 27.875 -1.421875 
Q 17.96875 -1.421875 11.734375 6.484375 
Q 5.515625 14.40625 5.515625 27.296875 
Q 5.515625 40.1875 11.734375 48.09375 
Q 17.96875 56 27.875 56 
Q 33.9375 56 38.25 53.625 
Q 42.578125 51.265625 45.40625 46.390625 
z
M 14.796875 27.296875 
Q 14.796875 17.390625 18.875 11.75 
Q 22.953125 6.109375 30.078125 6.109375 
Q 37.203125 6.109375 41.296875 11.75 
Q 45.40625 17.390625 45.40625 27.296875 
Q 45.40625 37.203125 41.296875 42.84375 
Q 37.203125 48.484375 30.078125 48.484375 
Q 22.953125 48.484375 18.875 42.84375 
Q 14.796875 37.203125 14.796875 27.296875 
z
" id="DejaVuSans-100"/>
      <path d="M 48.6875 27.296875 
Q 48.6875 37.203125 44.609375 42.84375 
Q 40.53125 48.484375 33.40625 48.484375 
Q 26.265625 48.484375 22.1875 42.84375 
Q 18.109375 37.203125 18.109375 27.296875 
Q 18.109375 17.390625 22.1875 11.75 
Q 26.265625 6.109375 33.40625 6.109375 
Q 40.53125 6.109375 44.609375 11.75 
Q 48.6875 17.390625 48.6875 27.296875 
z
M 18.109375 46.390625 
Q 20.953125 51.265625 25.265625 53.625 
Q 29.59375 56 35.59375 56 
Q 45.5625 56 51.78125 48.09375 
Q 58.015625 40.1875 58.015625 27.296875 
Q 58.015625 14.40625 51.78125 6.484375 
Q 45.5625 -1.421875 35.59375 -1.421875 
Q 29.59375 -1.421875 25.265625 0.953125 
Q 20.953125 3.328125 18.109375 8.203125 
L 18.109375 0 
L 9.078125 0 
L 9.078125 75.984375 
L 18.109375 75.984375 
z
" id="DejaVuSans-98"/>
      <path d="M 37.109375 75.984375 
L 37.109375 68.5 
L 28.515625 68.5 
Q 23.6875 68.5 21.796875 66.546875 
Q 19.921875 64.59375 19.921875 59.515625 
L 19.921875 54.6875 
L 34.71875 54.6875 
L 34.71875 47.703125 
L 19.921875 47.703125 
L 19.921875 0 
L 10.890625 0 
L 10.890625 47.703125 
L 2.296875 47.703125 
L 2.296875 54.6875 
L 10.890625 54.6875 
L 10.890625 58.5 
Q 10.890625 67.625 15.140625 71.796875 
Q 19.390625 75.984375 28.609375 75.984375 
z
" id="DejaVuSans-102"/>
     </defs>
     <use xlink:href="#DejaVuSans-80"/>
     <use x="56.677734" xlink:href="#DejaVuSans-111"/>
     <use x="117.859375" xlink:href="#DejaVuSans-112"/>
     <use x="181.335938" xlink:href="#DejaVuSans-117"/>
     <use x="244.714844" xlink:href="#DejaVuSans-108"/>
     <use x="272.498047" xlink:href="#DejaVuSans-97"/>
     <use x="333.777344" xlink:href="#DejaVuSans-116"/>
     <use x="372.986328" xlink:href="#DejaVuSans-105"/>
     <use x="400.769531" xlink:href="#DejaVuSans-111"/>
     <use x="461.951172" xlink:href="#DejaVuSans-110"/>
     <use x="525.330078" xlink:href="#DejaVuSans-39"/>
     <use x="552.820312" xlink:href="#DejaVuSans-115"/>
     <use x="604.919922" xlink:href="#DejaVuSans-32"/>
     <use x="636.707031" xlink:href="#DejaVuSans-97"/>
     <use x="697.986328" xlink:href="#DejaVuSans-118"/>
     <use x="757.166016" xlink:href="#DejaVuSans-101"/>
     <use x="818.689453" xlink:href="#DejaVuSans-114"/>
     <use x="859.802734" xlink:href="#DejaVuSans-97"/>
     <use x="921.082031" xlink:href="#DejaVuSans-103"/>
     <use x="984.558594" xlink:href="#DejaVuSans-101"/>
     <use x="1046.082031" xlink:href="#DejaVuSans-32"/>
     <use x="1077.869141" xlink:href="#DejaVuSans-97"/>
     <use x="1139.148438" xlink:href="#DejaVuSans-110"/>
     <use x="1202.527344" xlink:href="#DejaVuSans-100"/>
     <use x="1266.003906" xlink:href="#DejaVuSans-32"/>
     <use x="1297.791016" xlink:href="#DejaVuSans-98"/>
     <use x="1361.267578" xlink:href="#DejaVuSans-101"/>
     <use x="1422.791016" xlink:href="#DejaVuSans-115"/>
     <use x="1474.890625" xlink:href="#DejaVuSans-116"/>
     <use x="1514.099609" xlink:href="#DejaVuSans-32"/>
     <use x="1545.886719" xlink:href="#DejaVuSans-102"/>
     <use x="1581.091797" xlink:href="#DejaVuSans-105"/>
     <use x="1608.875" xlink:href="#DejaVuSans-116"/>
     <use x="1648.083984" xlink:href="#DejaVuSans-110"/>
     <use x="1711.462891" xlink:href="#DejaVuSans-101"/>
     <use x="1772.986328" xlink:href="#DejaVuSans-115"/>
     <use x="1825.085938" xlink:href="#DejaVuSans-115"/>
    </g>
   </g>
   <g id="legend_1">
    <g id="patch_7">
     <path d="M 64.6 78.82825 
L 137.540625 78.82825 
Q 139.540625 78.82825 139.540625 76.82825 
L 139.540625 48.472 
Q 139.540625 46.472 137.540625 46.472 
L 64.6 46.472 
Q 62.6 46.472 62.6 48.472 
L 62.6 76.82825 
Q 62.6 78.82825 64.6 78.82825 
z
" style="fill:#ffffff;opacity:0.8;stroke:#cccccc;stroke-linejoin:miter;"/>
    </g>
    <g id="line2d_23">
     <path d="M 66.6 54.570437 
L 86.6 54.570437 
" style="fill:none;stroke:#0000ff;stroke-linecap:square;stroke-width:1.5;"/>
    </g>
    <g id="line2d_24"/>
    <g id="text_14">
     <!-- average -->
     <g transform="translate(94.6 58.070437)scale(0.1 -0.1)">
      <use xlink:href="#DejaVuSans-97"/>
      <use x="61.279297" xlink:href="#DejaVuSans-118"/>
      <use x="120.458984" xlink:href="#DejaVuSans-101"/>
      <use x="181.982422" xlink:href="#DejaVuSans-114"/>
      <use x="223.095703" xlink:href="#DejaVuSans-97"/>
      <use x="284.375" xlink:href="#DejaVuSans-103"/>
      <use x="347.851562" xlink:href="#DejaVuSans-101"/>
     </g>
    </g>
    <g id="line2d_25">
     <path d="M 66.6 69.248562 
L 86.6 69.248562 
" style="fill:none;stroke:#ff0000;stroke-linecap:square;stroke-width:1.5;"/>
    </g>
    <g id="line2d_26"/>
    <g id="text_15">
     <!-- best -->
     <g transform="translate(94.6 72.748562)scale(0.1 -0.1)">
      <use xlink:href="#DejaVuSans-98"/>
      <use x="63.476562" xlink:href="#DejaVuSans-101"/>
      <use x="125" xlink:href="#DejaVuSans-115"/>
      <use x="177.099609" xlink:href="#DejaVuSans-116"/>
     </g>
    </g>
   </g>
  </g>
 </g>
 <defs>
  <clipPath id="pdf91f85912">
   <rect height="266.112" width="357.12" x="57.6" y="41.472"/>
  </clipPath>
 </defs>
</svg>
