<?xml version="1.0" encoding="UTF-8" standalone="no"?>
<!DOCTYPE svg PUBLIC "-//W3C//DTD SVG 1.1//EN"
 "http://www.w3.org/Graphics/SVG/1.1/DTD/svg11.dtd">
<!-- Generated by graphviz version 2.40.1 (20161225.0304)
 -->
<!-- Title: %3 Pages: 1 -->
<svg width="912pt" height="218pt"
 viewBox="0.00 0.00 912.21 218.21" xmlns="http://www.w3.org/2000/svg" xmlns:xlink="http://www.w3.org/1999/xlink">
<g id="graph0" class="graph" transform="scale(1 1) rotate(0) translate(4 214.2082)">
<title>%3</title>
<polygon fill="#ffffff" stroke="transparent" points="-4,4 -4,-214.2082 908.2132,-214.2082 908.2132,4 -4,4"/>
<!-- x&#45;vel -->
<g id="node1" class="node">
<title>x&#45;vel</title>
<polygon fill="#d3d3d3" stroke="#000000" points="244.7132,-210.2082 209.7132,-210.2082 209.7132,-192.2082 244.7132,-192.2082 244.7132,-210.2082"/>
<text text-anchor="middle" x="227.2132" y="-199.0082" font-family="Times,serif" font-size="9.00" fill="#000000">x&#45;vel</text>
</g>
<!-- right -->
<g id="node14" class="node">
<title>right</title>
<ellipse fill="#add8e6" stroke="#000000" cx="159.2132" cy="-120.1457" rx="23.1702" ry="23.1702"/>
<text text-anchor="middle" x="159.2132" y="-117.9457" font-family="Times,serif" font-size="9.00" fill="#000000">right</text>
</g>
<!-- x&#45;vel&#45;&gt;right -->
<g id="edge14" class="edge">
<title>x&#45;vel&#45;&gt;right</title>
<path fill="none" stroke="#ff0000" stroke-width=".2589" stroke-dasharray="1,5" d="M219.4127,-191.9093C210.0847,-180.7893 194.0808,-161.7111 180.9181,-146.0199"/>
<polygon fill="#ff0000" stroke="#ff0000" stroke-width=".2589" points="183.4525,-143.5953 174.3442,-138.1833 178.0895,-148.094 183.4525,-143.5953"/>
</g>
<!-- backward -->
<g id="node17" class="node">
<title>backward</title>
<ellipse fill="#add8e6" stroke="#000000" cx="308.2132" cy="-120.1457" rx="36.125" ry="36.125"/>
<text text-anchor="middle" x="308.2132" y="-117.9457" font-family="Times,serif" font-size="9.00" fill="#000000">backward</text>
</g>
<!-- x&#45;vel&#45;&gt;backward -->
<g id="edge23" class="edge">
<title>x&#45;vel&#45;&gt;backward</title>
<path fill="none" stroke="#ff0000" stroke-width=".119" d="M236.5049,-191.9093C245.9885,-182.4184 261.265,-167.1301 275.2858,-153.0985"/>
<polygon fill="#ff0000" stroke="#ff0000" stroke-width=".119" points="277.8735,-155.4605 282.466,-145.9127 272.9218,-150.5126 277.8735,-155.4605"/>
</g>
<!-- y&#45;vel -->
<g id="node2" class="node">
<title>y&#45;vel</title>
<polygon fill="#d3d3d3" stroke="#000000" points="416.7132,-210.2082 381.7132,-210.2082 381.7132,-192.2082 416.7132,-192.2082 416.7132,-210.2082"/>
<text text-anchor="middle" x="399.2132" y="-199.0082" font-family="Times,serif" font-size="9.00" fill="#000000">y&#45;vel</text>
</g>
<!-- none -->
<g id="node13" class="node">
<title>none</title>
<ellipse fill="#add8e6" stroke="#000000" cx="789.2132" cy="-24.0416" rx="24.0833" ry="24.0833"/>
<text text-anchor="middle" x="789.2132" y="-21.8416" font-family="Times,serif" font-size="9.00" fill="#000000">none</text>
</g>
<!-- y&#45;vel&#45;&gt;none -->
<g id="edge34" class="edge">
<title>y&#45;vel&#45;&gt;none</title>
<path fill="none" stroke="#ff0000" stroke-width=".1901" d="M417.0831,-195.3737C439.0619,-187.8399 477.1503,-173.6064 507.2132,-156.2082 552.7897,-129.8317 554.5491,-108.4841 601.2132,-84.0833 652.0017,-57.5258 716.6846,-40.0396 755.4204,-31.1088"/>
<polygon fill="#ff0000" stroke="#ff0000" stroke-width=".1901" points="756.6351,-34.4233 765.6247,-28.8163 755.1007,-27.5935 756.6351,-34.4233"/>
</g>
<!-- y&#45;vel&#45;&gt;right -->
<g id="edge7" class="edge">
<title>y&#45;vel&#45;&gt;right</title>
<path fill="none" stroke="#ff0000" stroke-width=".6307" d="M381.4267,-198.0162C334.1357,-189.4378 207.7591,-165.8813 191.2132,-156.2082 187.0086,-153.75 183.0621,-150.5462 179.4736,-147.0627"/>
<polygon fill="#ff0000" stroke="#ff0000" stroke-width=".6307" points="181.9995,-144.639 172.6427,-139.6689 176.8579,-149.3891 181.9995,-144.639"/>
</g>
<!-- left -->
<g id="node15" class="node">
<title>left</title>
<ellipse fill="#add8e6" stroke="#000000" cx="417.2132" cy="-24.0416" rx="19.6" ry="19.6"/>
<text text-anchor="middle" x="417.2132" y="-21.8416" font-family="Times,serif" font-size="9.00" fill="#000000">left</text>
</g>
<!-- y&#45;vel&#45;&gt;left -->
<g id="edge2" class="edge">
<title>y&#45;vel&#45;&gt;left</title>
<path fill="none" stroke="#00ff00" stroke-width=".2311" d="M416.8108,-197.8978C437.7802,-192.9077 471.9,-181.238 487.2132,-156.2082 503.9422,-128.8641 500.6028,-113.2084 487.2132,-84.0833 478.2683,-64.6264 459.5626,-49.1111 443.7369,-38.7299"/>
<polygon fill="#00ff00" stroke="#00ff00" stroke-width=".2311" points="445.191,-35.5134 434.8474,-33.2198 441.5031,-41.4631 445.191,-35.5134"/>
</g>
<!-- forward -->
<g id="node16" class="node">
<title>forward</title>
<ellipse fill="#add8e6" stroke="#000000" cx="642.2132" cy="-120.1457" rx="31.6406" ry="31.6406"/>
<text text-anchor="middle" x="642.2132" y="-117.9457" font-family="Times,serif" font-size="9.00" fill="#000000">forward</text>
</g>
<!-- y&#45;vel&#45;&gt;forward -->
<g id="edge15" class="edge">
<title>y&#45;vel&#45;&gt;forward</title>
<path fill="none" stroke="#ff0000" stroke-width=".2783" d="M417.0951,-196.9534C446.7737,-189.7132 507.9192,-174.0365 558.2132,-156.2082 573.2838,-150.8659 589.5026,-144.143 603.6316,-137.9537"/>
<polygon fill="#ff0000" stroke="#ff0000" stroke-width=".2783" points="605.3196,-141.0338 613.0395,-133.7775 602.4795,-134.6358 605.3196,-141.0338"/>
</g>
<!-- y&#45;vel&#45;&gt;backward -->
<g id="edge10" class="edge">
<title>y&#45;vel&#45;&gt;backward</title>
<path fill="none" stroke="#00ff00" stroke-width=".1389" d="M388.7743,-191.9093C377.621,-181.9739 359.3358,-165.6855 343.0028,-151.1362"/>
<polygon fill="#00ff00" stroke="#00ff00" stroke-width=".1389" points="344.9765,-148.207 335.1814,-144.1689 340.3204,-153.434 344.9765,-148.207"/>
</g>
<!-- 255 -->
<g id="node20" class="node">
<title>255</title>
<ellipse fill="#ffffff" stroke="#000000" cx="383.2132" cy="-120.1457" rx="21.4286" ry="21.4286"/>
<text text-anchor="middle" x="383.2132" y="-117.9457" font-family="Times,serif" font-size="9.00" fill="#000000">255</text>
</g>
<!-- y&#45;vel&#45;&gt;255 -->
<g id="edge32" class="edge">
<title>y&#45;vel&#45;&gt;255</title>
<path fill="none" stroke="#ff0000" stroke-width=".3132" d="M397.3778,-191.9093C395.4227,-182.0038 392.2211,-165.7835 389.356,-151.2675"/>
<polygon fill="#ff0000" stroke="#ff0000" stroke-width=".3132" points="392.7221,-150.2465 387.3518,-141.1135 385.8546,-151.602 392.7221,-150.2465"/>
</g>
<!-- x&#45;pos -->
<g id="node3" class="node">
<title>x&#45;pos</title>
<polygon fill="#d3d3d3" stroke="#000000" points="88.2132,-210.2082 52.2132,-210.2082 52.2132,-192.2082 88.2132,-192.2082 88.2132,-210.2082"/>
<text text-anchor="middle" x="70.2132" y="-199.0082" font-family="Times,serif" font-size="9.00" fill="#000000">x&#45;pos</text>
</g>
<!-- x&#45;pos&#45;&gt;right -->
<g id="edge37" class="edge">
<title>x&#45;pos&#45;&gt;right</title>
<path fill="none" stroke="#ff0000" stroke-width=".2649" d="M80.4226,-191.9093C93.4098,-180.0804 116.284,-159.2462 134.0517,-143.0631"/>
<polygon fill="#ff0000" stroke="#ff0000" stroke-width=".2649" points="136.7658,-145.3253 141.8021,-136.004 132.0522,-140.1501 136.7658,-145.3253"/>
</g>
<!-- x&#45;pos&#45;&gt;left -->
<g id="edge27" class="edge">
<title>x&#45;pos&#45;&gt;left</title>
<path fill="none" stroke="#00ff00" stroke-width="1.1968" d="M70.5938,-191.9036C72.0388,-169.5729 78.9697,-112.6819 112.2132,-84.0833 153.3776,-48.6705 318.2878,-31.8314 386.9619,-26.2474"/>
<polygon fill="#00ff00" stroke="#00ff00" stroke-width="1.1968" points="387.4295,-29.7215 397.1236,-25.4467 386.8796,-22.7431 387.4295,-29.7215"/>
</g>
<!-- 203 -->
<g id="node19" class="node">
<title>203</title>
<ellipse fill="#ffffff" stroke="#000000" cx="21.2132" cy="-120.1457" rx="21.4286" ry="21.4286"/>
<text text-anchor="middle" x="21.2132" y="-117.9457" font-family="Times,serif" font-size="9.00" fill="#000000">203</text>
</g>
<!-- x&#45;pos&#45;&gt;203 -->
<g id="edge30" class="edge">
<title>x&#45;pos&#45;&gt;203</title>
<path fill="none" stroke="#ff0000" stroke-width=".122" d="M64.5923,-191.9093C58.0359,-181.0629 46.9029,-162.645 37.5571,-147.184"/>
<polygon fill="#ff0000" stroke="#ff0000" stroke-width=".122" points="40.4775,-145.2495 32.3091,-138.502 34.4869,-148.8706 40.4775,-145.2495"/>
</g>
<!-- y&#45;pos -->
<g id="node4" class="node">
<title>y&#45;pos</title>
<polygon fill="#d3d3d3" stroke="#000000" points="749.2132,-210.2082 713.2132,-210.2082 713.2132,-192.2082 749.2132,-192.2082 749.2132,-210.2082"/>
<text text-anchor="middle" x="731.2132" y="-199.0082" font-family="Times,serif" font-size="9.00" fill="#000000">y&#45;pos</text>
</g>
<!-- y&#45;pos&#45;&gt;none -->
<g id="edge25" class="edge">
<title>y&#45;pos&#45;&gt;none</title>
<path fill="none" stroke="#ff0000" stroke-width=".3965" d="M749.5519,-197.7199C770.5758,-192.6329 804.0791,-180.9453 819.2132,-156.2082 838.63,-124.471 822.6145,-81.5157 807.5301,-53.3092"/>
<polygon fill="#ff0000" stroke="#ff0000" stroke-width=".3965" points="810.4475,-51.3558 802.5028,-44.3464 804.3423,-54.7803 810.4475,-51.3558"/>
</g>
<!-- y&#45;pos&#45;&gt;right -->
<g id="edge4" class="edge">
<title>y&#45;pos&#45;&gt;right</title>
<path fill="none" stroke="#00ff00" stroke-width=".3145" stroke-dasharray="1,5" d="M712.8915,-196.1101C706.9724,-194.636 700.3529,-193.1677 694.2132,-192.2082 583.4935,-174.9045 291.716,-205.781 191.2132,-156.2082 186.756,-154.0097 182.645,-150.8911 178.9594,-147.3974"/>
<polygon fill="#00ff00" stroke="#00ff00" stroke-width=".3145" points="181.3707,-144.8496 172.0168,-139.8742 176.2264,-149.5968 181.3707,-144.8496"/>
</g>
<!-- y&#45;pos&#45;&gt;left -->
<g id="edge8" class="edge">
<title>y&#45;pos&#45;&gt;left</title>
<path fill="none" stroke="#ff0000" stroke-width=".3214" d="M730.2732,-191.9301C727.5004,-169.6582 717.2776,-112.8877 683.2132,-84.0833 647.5755,-53.9485 509.0528,-34.6173 447.2605,-27.3231"/>
<polygon fill="#ff0000" stroke="#ff0000" stroke-width=".3214" points="447.334,-23.8085 436.9989,-26.1397 446.532,-30.7624 447.334,-23.8085"/>
</g>
<!-- y&#45;pos&#45;&gt;forward -->
<g id="edge12" class="edge">
<title>y&#45;pos&#45;&gt;forward</title>
<path fill="none" stroke="#00ff00" stroke-width=".1702" d="M721.0038,-191.9093C709.4421,-181.3787 690.0445,-163.7111 673.3897,-148.5417"/>
<polygon fill="#00ff00" stroke="#00ff00" stroke-width=".1702" points="675.7185,-145.9286 665.9686,-141.7824 671.0048,-151.1037 675.7185,-145.9286"/>
</g>
<!-- y&#45;pos&#45;&gt;backward -->
<g id="edge3" class="edge">
<title>y&#45;pos&#45;&gt;backward</title>
<path fill="none" stroke="#00ff00" stroke-width=".1027" d="M712.871,-196.2343C706.9508,-194.7669 700.3359,-193.2711 694.2132,-192.2082 544.0614,-166.1404 494.145,-214.2022 353.2132,-156.2082 349.7702,-154.7914 346.378,-153.0252 343.0943,-151.0411"/>
<polygon fill="#00ff00" stroke="#00ff00" stroke-width=".1027" points="344.9421,-148.0656 334.6959,-145.3702 341.0249,-153.8669 344.9421,-148.0656"/>
</g>
<!-- 487 -->
<g id="node18" class="node">
<title>487</title>
<ellipse fill="#ffffff" stroke="#000000" cx="789.2132" cy="-120.1457" rx="21.4286" ry="21.4286"/>
<text text-anchor="middle" x="789.2132" y="-117.9457" font-family="Times,serif" font-size="9.00" fill="#000000">487</text>
</g>
<!-- y&#45;pos&#45;&gt;487 -->
<g id="edge35" class="edge">
<title>y&#45;pos&#45;&gt;487</title>
<path fill="none" stroke="#00ff00" stroke-width=".2725" d="M737.8665,-191.9093C745.8503,-180.751 759.5674,-161.5795 770.8163,-145.8578"/>
<polygon fill="#00ff00" stroke="#00ff00" stroke-width=".2725" points="773.7871,-147.7205 776.7596,-137.5512 768.0942,-143.6472 773.7871,-147.7205"/>
</g>
<!-- x&#45;lm1&#45;vec -->
<g id="node5" class="node">
<title>x&#45;lm1&#45;vec</title>
<polygon fill="#d3d3d3" stroke="#000000" points="185.7132,-210.2082 132.7132,-210.2082 132.7132,-192.2082 185.7132,-192.2082 185.7132,-210.2082"/>
<text text-anchor="middle" x="159.2132" y="-199.0082" font-family="Times,serif" font-size="9.00" fill="#000000">x&#45;lm1&#45;vec</text>
</g>
<!-- x&#45;lm1&#45;vec&#45;&gt;right -->
<g id="edge18" class="edge">
<title>x&#45;lm1&#45;vec&#45;&gt;right</title>
<path fill="none" stroke="#ff0000" stroke-width=".1272" d="M159.2132,-191.9093C159.2132,-182.6302 159.2132,-167.8097 159.2132,-154.0398"/>
<polygon fill="#ff0000" stroke="#ff0000" stroke-width=".1272" points="162.7133,-153.8238 159.2132,-143.8239 155.7133,-153.8239 162.7133,-153.8238"/>
</g>
<!-- x&#45;lm1&#45;vec&#45;&gt;left -->
<g id="edge28" class="edge">
<title>x&#45;lm1&#45;vec&#45;&gt;left</title>
<path fill="none" stroke="#ff0000" stroke-width=".7912" d="M150.1598,-192.1672C142.3717,-183.6995 131.7038,-170.2717 127.2132,-156.2082 117.4627,-125.6716 106.9743,-108.9417 127.2132,-84.0833 159.7985,-44.0605 319.6251,-29.8854 387.0834,-25.6315"/>
<polygon fill="#ff0000" stroke="#ff0000" stroke-width=".7912" points="387.3109,-29.1242 397.0833,-25.0315 386.8916,-22.1368 387.3109,-29.1242"/>
</g>
<!-- x&#45;lm1&#45;vec&#45;&gt;backward -->
<g id="edge17" class="edge">
<title>x&#45;lm1&#45;vec&#45;&gt;backward</title>
<path fill="none" stroke="#ff0000" stroke-width=".1365" d="M184.641,-192.1716C206.04,-184.087 237.083,-171.2172 262.2132,-156.2082 265.453,-154.2732 268.7223,-152.1394 271.944,-149.9054"/>
<polygon fill="#ff0000" stroke="#ff0000" stroke-width=".1365" points="274.2774,-152.5363 280.3084,-143.8255 270.1616,-146.874 274.2774,-152.5363"/>
</g>
<!-- y&#45;lm1&#45;vec -->
<g id="node6" class="node">
<title>y&#45;lm1&#45;vec</title>
<polygon fill="#d3d3d3" stroke="#000000" points="504.7132,-210.2082 451.7132,-210.2082 451.7132,-192.2082 504.7132,-192.2082 504.7132,-210.2082"/>
<text text-anchor="middle" x="478.2132" y="-199.0082" font-family="Times,serif" font-size="9.00" fill="#000000">y&#45;lm1&#45;vec</text>
</g>
<!-- y&#45;lm1&#45;vec&#45;&gt;forward -->
<g id="edge24" class="edge">
<title>y&#45;lm1&#45;vec&#45;&gt;forward</title>
<path fill="none" stroke="#00ff00" stroke-width=".2659" d="M496.7073,-192.0668C522.7414,-179.1986 570.7809,-155.4535 604.5195,-138.7771"/>
<polygon fill="#00ff00" stroke="#00ff00" stroke-width=".2659" points="606.2123,-141.8446 613.6261,-134.2758 603.1105,-135.5693 606.2123,-141.8446"/>
</g>
<!-- y&#45;lm1&#45;vec&#45;&gt;backward -->
<g id="edge22" class="edge">
<title>y&#45;lm1&#45;vec&#45;&gt;backward</title>
<path fill="none" stroke="#ff0000" stroke-width=".3033" d="M451.2616,-194.3027C425.1711,-186.9842 385.0079,-174.0167 353.2132,-156.2082 349.9649,-154.3888 346.7108,-152.337 343.5211,-150.1587"/>
<polygon fill="#ff0000" stroke="#ff0000" stroke-width=".3033" points="345.4241,-147.2152 335.2763,-144.1701 341.3103,-152.8788 345.4241,-147.2152"/>
</g>
<!-- x&#45;lm2&#45;vec -->
<g id="node7" class="node">
<title>x&#45;lm2&#45;vec</title>
<polygon fill="#d3d3d3" stroke="#000000" points="608.7132,-210.2082 555.7132,-210.2082 555.7132,-192.2082 608.7132,-192.2082 608.7132,-210.2082"/>
<text text-anchor="middle" x="582.2132" y="-199.0082" font-family="Times,serif" font-size="9.00" fill="#000000">x&#45;lm2&#45;vec</text>
</g>
<!-- x&#45;lm2&#45;vec&#45;&gt;left -->
<g id="edge16" class="edge">
<title>x&#45;lm2&#45;vec&#45;&gt;left</title>
<path fill="none" stroke="#ff0000" stroke-width=".6277" d="M578.0225,-192.109C568.0555,-171.1711 541.2078,-118.7219 507.2132,-84.0833 488.5579,-65.0746 462.9569,-48.7028 443.8279,-37.8786"/>
<polygon fill="#ff0000" stroke="#ff0000" stroke-width=".6277" points="445.4636,-34.7838 435.016,-33.0233 442.0854,-40.9147 445.4636,-34.7838"/>
</g>
<!-- x&#45;lm2&#45;vec&#45;&gt;forward -->
<g id="edge5" class="edge">
<title>x&#45;lm2&#45;vec&#45;&gt;forward</title>
<path fill="none" stroke="#00ff00" stroke-width=".1853" d="M589.096,-191.9093C595.9275,-182.6796 606.8171,-167.9673 616.963,-154.2598"/>
<polygon fill="#00ff00" stroke="#00ff00" stroke-width=".1853" points="620.0051,-156.0328 623.1412,-145.9127 614.3787,-151.8682 620.0051,-156.0328"/>
</g>
<!-- y&#45;lm2&#45;vec -->
<g id="node8" class="node">
<title>y&#45;lm2&#45;vec</title>
<polygon fill="#d3d3d3" stroke="#000000" points="253.7132,-129.1457 200.7132,-129.1457 200.7132,-111.1457 253.7132,-111.1457 253.7132,-129.1457"/>
<text text-anchor="middle" x="227.2132" y="-117.9457" font-family="Times,serif" font-size="9.00" fill="#000000">y&#45;lm2&#45;vec</text>
</g>
<!-- y&#45;lm2&#45;vec&#45;&gt;left -->
<g id="edge13" class="edge">
<title>y&#45;lm2&#45;vec&#45;&gt;left</title>
<path fill="none" stroke="#00ff00" stroke-width=".3169" stroke-dasharray="1,5" d="M234.3735,-111.0832C241.0988,-103.074 251.8102,-91.538 263.2132,-84.0833 302.9838,-58.0831 355.7328,-40.5984 388.0334,-31.4907"/>
<polygon fill="#00ff00" stroke="#00ff00" stroke-width=".3169" points="389.039,-34.8443 397.7598,-28.8278 387.1905,-28.0927 389.039,-34.8443"/>
</g>
<!-- x&#45;other&#45;vec -->
<g id="node9" class="node">
<title>x&#45;other&#45;vec</title>
<polygon fill="#d3d3d3" stroke="#000000" points="332.2132,-210.2082 274.2132,-210.2082 274.2132,-192.2082 332.2132,-192.2082 332.2132,-210.2082"/>
<text text-anchor="middle" x="303.2132" y="-199.0082" font-family="Times,serif" font-size="9.00" fill="#000000">x&#45;other&#45;vec</text>
</g>
<!-- x&#45;other&#45;vec&#45;&gt;right -->
<g id="edge29" class="edge">
<title>x&#45;other&#45;vec&#45;&gt;right</title>
<path fill="none" stroke="#00ff00" stroke-width="1.0154" d="M273.7707,-193.4728C250.0422,-186.3148 216.5707,-174.0645 191.2132,-156.2082 187.231,-153.4039 183.4058,-150.0114 179.8721,-146.4429"/>
<polygon fill="#00ff00" stroke="#00ff00" stroke-width="1.0154" points="182.4013,-144.0222 173.0708,-139.0028 177.2347,-148.7452 182.4013,-144.0222"/>
</g>
<!-- x&#45;other&#45;vec&#45;&gt;backward -->
<g id="edge19" class="edge">
<title>x&#45;other&#45;vec&#45;&gt;backward</title>
<path fill="none" stroke="#ff0000" stroke-width=".7229" stroke-dasharray="1,5" d="M303.7868,-191.9093C304.1866,-185.4276 304.7531,-176.242 305.3479,-166.5993"/>
<polygon fill="#ff0000" stroke="#ff0000" stroke-width=".7229" points="308.8497,-166.6759 305.9721,-156.4794 301.863,-166.2449 308.8497,-166.6759"/>
</g>
<!-- y&#45;other&#45;vec -->
<g id="node10" class="node">
<title>y&#45;other&#45;vec</title>
<polygon fill="#d3d3d3" stroke="#000000" points="685.2132,-210.2082 627.2132,-210.2082 627.2132,-192.2082 685.2132,-192.2082 685.2132,-210.2082"/>
<text text-anchor="middle" x="656.2132" y="-199.0082" font-family="Times,serif" font-size="9.00" fill="#000000">y&#45;other&#45;vec</text>
</g>
<!-- y&#45;other&#45;vec&#45;&gt;none -->
<g id="edge1" class="edge">
<title>y&#45;other&#45;vec&#45;&gt;none</title>
<path fill="none" stroke="#00ff00" stroke-width=".1962" d="M662.9915,-192.1789C682.2653,-166.5047 737.9586,-92.3168 768.526,-51.5986"/>
<polygon fill="#00ff00" stroke="#00ff00" stroke-width=".1962" points="771.4406,-53.5459 774.6452,-43.4473 765.8425,-49.3434 771.4406,-53.5459"/>
</g>
<!-- y&#45;other&#45;vec&#45;&gt;forward -->
<g id="edge26" class="edge">
<title>y&#45;other&#45;vec&#45;&gt;forward</title>
<path fill="none" stroke="#00ff00" stroke-width=".9129" d="M654.6072,-191.9093C653.2962,-184.3184 651.3447,-173.0189 649.3761,-161.62"/>
<polygon fill="#00ff00" stroke="#00ff00" stroke-width=".9129" points="652.8082,-160.9263 647.6573,-151.6679 645.9103,-162.1177 652.8082,-160.9263"/>
</g>
<!-- y&#45;other&#45;vec&#45;&gt;backward -->
<g id="edge9" class="edge">
<title>y&#45;other&#45;vec&#45;&gt;backward</title>
<path fill="none" stroke="#ff0000" stroke-width="1.251" d="M626.8855,-194.1381C623.6308,-193.4436 620.3573,-192.7841 617.2132,-192.2082 500.7319,-170.8721 462.0266,-202.9282 353.2132,-156.2082 349.7921,-154.7393 346.4154,-152.9362 343.1423,-150.927"/>
<polygon fill="#ff0000" stroke="#ff0000" stroke-width="1.251" points="344.9957,-147.9545 334.7611,-145.215 341.0534,-153.7389 344.9957,-147.9545"/>
</g>
<!-- x&#45;other&#45;vel -->
<g id="node11" class="node">
<title>x&#45;other&#45;vel</title>
<polygon fill="#d3d3d3" stroke="#000000" points="904.2132,-210.2082 848.2132,-210.2082 848.2132,-192.2082 904.2132,-192.2082 904.2132,-210.2082"/>
<text text-anchor="middle" x="876.2132" y="-199.0082" font-family="Times,serif" font-size="9.00" fill="#000000">x&#45;other&#45;vel</text>
</g>
<!-- x&#45;other&#45;vel&#45;&gt;none -->
<g id="edge21" class="edge">
<title>x&#45;other&#45;vel&#45;&gt;none</title>
<path fill="none" stroke="#ff0000" stroke-width=".1236" stroke-dasharray="1,5" d="M880.8372,-191.9569C890.5287,-171.1458 910.4657,-119.6836 890.2132,-84.0833 875.7387,-58.6396 845.756,-42.8548 822.1993,-33.8951"/>
<polygon fill="#ff0000" stroke="#ff0000" stroke-width=".1236" points="823.1556,-30.5205 812.5609,-30.4649 820.8085,-37.1153 823.1556,-30.5205"/>
</g>
<!-- x&#45;other&#45;vel&#45;&gt;left -->
<g id="edge6" class="edge">
<title>x&#45;other&#45;vel&#45;&gt;left</title>
<path fill="none" stroke="#ff0000" stroke-width=".4758" d="M874.717,-192.0521C870.5185,-169.5467 856.4065,-111.3767 819.2132,-84.0833 759.8057,-40.4885 529.7827,-28.0634 447.0594,-24.9652"/>
<polygon fill="#ff0000" stroke="#ff0000" stroke-width=".4758" points="447.1753,-21.4672 437.0572,-24.6097 446.9266,-28.4628 447.1753,-21.4672"/>
</g>
<!-- x&#45;other&#45;vel&#45;&gt;forward -->
<g id="edge20" class="edge">
<title>x&#45;other&#45;vel&#45;&gt;forward</title>
<path fill="none" stroke="#00ff00" stroke-width=".2152" d="M849.8253,-192.0668C808.9841,-177.9186 730.1877,-150.6219 682.2869,-134.0281"/>
<polygon fill="#00ff00" stroke="#00ff00" stroke-width=".2152" points="683.1539,-130.6244 672.5591,-130.6582 680.8625,-137.2388 683.1539,-130.6244"/>
</g>
<!-- y&#45;other&#45;vel -->
<g id="node12" class="node">
<title>y&#45;other&#45;vel</title>
<polygon fill="#d3d3d3" stroke="#000000" points="478.2132,-129.1457 422.2132,-129.1457 422.2132,-111.1457 478.2132,-111.1457 478.2132,-129.1457"/>
<text text-anchor="middle" x="450.2132" y="-117.9457" font-family="Times,serif" font-size="9.00" fill="#000000">y&#45;other&#45;vel</text>
</g>
<!-- y&#45;other&#45;vel&#45;&gt;left -->
<g id="edge11" class="edge">
<title>y&#45;other&#45;vel&#45;&gt;left</title>
<path fill="none" stroke="#00ff00" stroke-width=".1973" stroke-dasharray="1,5" d="M447.049,-110.9308C442.4673,-97.5876 433.7878,-72.311 426.9667,-52.4462"/>
<polygon fill="#00ff00" stroke="#00ff00" stroke-width=".1973" points="430.2553,-51.246 423.6973,-42.9248 423.6347,-53.5194 430.2553,-51.246"/>
</g>
<!-- 487&#45;&gt;none -->
<g id="edge36" class="edge">
<title>487&#45;&gt;none</title>
<path fill="none" stroke="#00ff00" stroke-width=".2756" d="M789.2132,-98.8171C789.2132,-87.0358 789.2132,-72.1121 789.2132,-58.701"/>
<polygon fill="#00ff00" stroke="#00ff00" stroke-width=".2756" points="792.7133,-58.3587 789.2132,-48.3587 785.7133,-58.3588 792.7133,-58.3587"/>
</g>
<!-- 203&#45;&gt;left -->
<g id="edge31" class="edge">
<title>203&#45;&gt;left</title>
<path fill="none" stroke="#00ff00" stroke-width=".2565" stroke-dasharray="1,5" d="M34.0851,-102.6819C40.0544,-95.8216 47.712,-88.537 56.2132,-84.0833 113.8771,-53.8735 310.5389,-33.5557 386.7208,-26.6506"/>
<polygon fill="#00ff00" stroke="#00ff00" stroke-width=".2565" points="387.4059,-30.1035 397.0557,-25.7296 386.7844,-23.1311 387.4059,-30.1035"/>
</g>
<!-- 255&#45;&gt;left -->
<g id="edge33" class="edge">
<title>255&#45;&gt;left</title>
<path fill="none" stroke="#ff0000" stroke-width=".1534" d="M390.4237,-99.7645C395.3168,-85.9339 401.8511,-67.4639 407.2414,-52.2279"/>
<polygon fill="#ff0000" stroke="#ff0000" stroke-width=".1534" points="410.5539,-53.3587 410.5896,-42.7639 403.9547,-51.0239 410.5539,-53.3587"/>
</g>
</g>
</svg>
