<?xml version="1.0" encoding="UTF-8" standalone="no"?>
<!DOCTYPE svg PUBLIC "-//W3C//DTD SVG 1.1//EN"
 "http://www.w3.org/Graphics/SVG/1.1/DTD/svg11.dtd">
<!-- Generated by graphviz version 2.40.1 (20161225.0304)
 -->
<!-- Title: %3 Pages: 1 -->
<svg width="995pt" height="395pt"
 viewBox="0.00 0.00 994.50 394.86" xmlns="http://www.w3.org/2000/svg" xmlns:xlink="http://www.w3.org/1999/xlink">
<g id="graph0" class="graph" transform="scale(1 1) rotate(0) translate(4 390.86)">
<title>%3</title>
<polygon fill="#ffffff" stroke="transparent" points="-4,4 -4,-390.86 990.5,-390.86 990.5,4 -4,4"/>
<!-- x&#45;vel -->
<g id="node1" class="node">
<title>x&#45;vel</title>
<polygon fill="#d3d3d3" stroke="#000000" points="365,-317.1112 330,-317.1112 330,-299.1112 365,-299.1112 365,-317.1112"/>
<text text-anchor="middle" x="347.5" y="-305.9112" font-family="Times,serif" font-size="9.00" fill="#000000">x&#45;vel</text>
</g>
<!-- right -->
<g id="node14" class="node">
<title>right</title>
<ellipse fill="#add8e6" stroke="#000000" cx="306.5" cy="-211.3" rx="23.1702" ry="23.1702"/>
<text text-anchor="middle" x="306.5" y="-209.1" font-family="Times,serif" font-size="9.00" fill="#000000">right</text>
</g>
<!-- x&#45;vel&#45;&gt;right -->
<g id="edge5" class="edge">
<title>x&#45;vel&#45;&gt;right</title>
<path fill="none" stroke="#00ff00" stroke-width=".1046" d="M343.5687,-298.8286C338.0914,-285.8952 327.9006,-261.8321 319.5884,-242.2049"/>
<polygon fill="#00ff00" stroke="#00ff00" stroke-width=".1046" points="322.8103,-240.8377 315.6876,-232.9943 316.3645,-243.5675 322.8103,-240.8377"/>
</g>
<!-- backward -->
<g id="node17" class="node">
<title>backward</title>
<ellipse fill="#add8e6" stroke="#000000" cx="383.5" cy="-211.3" rx="36.125" ry="36.125"/>
<text text-anchor="middle" x="383.5" y="-209.1" font-family="Times,serif" font-size="9.00" fill="#000000">backward</text>
</g>
<!-- x&#45;vel&#45;&gt;backward -->
<g id="edge20" class="edge">
<title>x&#45;vel&#45;&gt;backward</title>
<path fill="none" stroke="#ff0000" stroke-width=".373" stroke-dasharray="1,5" d="M350.9518,-298.8286C354.7474,-288.6216 361.1206,-271.4828 367.2264,-255.0631"/>
<polygon fill="#ff0000" stroke="#ff0000" stroke-width=".373" points="370.564,-256.1292 370.769,-245.5363 364.003,-253.6894 370.564,-256.1292"/>
</g>
<!-- y&#45;vel -->
<g id="node2" class="node">
<title>y&#45;vel</title>
<polygon fill="#d3d3d3" stroke="#000000" points="807,-220.3 772,-220.3 772,-202.3 807,-202.3 807,-220.3"/>
<text text-anchor="middle" x="789.5" y="-209.1" font-family="Times,serif" font-size="9.00" fill="#000000">y&#45;vel</text>
</g>
<!-- forward -->
<g id="node16" class="node">
<title>forward</title>
<ellipse fill="#add8e6" stroke="#000000" cx="727.5" cy="-107.4178" rx="31.6406" ry="31.6406"/>
<text text-anchor="middle" x="727.5" y="-105.2178" font-family="Times,serif" font-size="9.00" fill="#000000">forward</text>
</g>
<!-- y&#45;vel&#45;&gt;forward -->
<g id="edge10" class="edge">
<title>y&#45;vel&#45;&gt;forward</title>
<path fill="none" stroke="#ff0000" stroke-width=".3973" d="M783.9979,-202.0812C776.2184,-189.0465 761.5651,-164.4945 749.1312,-143.6613"/>
<polygon fill="#ff0000" stroke="#ff0000" stroke-width=".3973" points="752.0952,-141.7981 743.9648,-135.0049 746.0843,-145.3855 752.0952,-141.7981"/>
</g>
<!-- x&#45;pos -->
<g id="node3" class="node">
<title>x&#45;pos</title>
<polygon fill="#d3d3d3" stroke="#000000" points="273.5,-317.1112 237.5,-317.1112 237.5,-299.1112 273.5,-299.1112 273.5,-317.1112"/>
<text text-anchor="middle" x="255.5" y="-305.9112" font-family="Times,serif" font-size="9.00" fill="#000000">x&#45;pos</text>
</g>
<!-- none -->
<g id="node13" class="node">
<title>none</title>
<ellipse fill="#add8e6" stroke="#000000" cx="849.5" cy="-211.3" rx="24.0833" ry="24.0833"/>
<text text-anchor="middle" x="849.5" y="-209.1" font-family="Times,serif" font-size="9.00" fill="#000000">none</text>
</g>
<!-- x&#45;pos&#45;&gt;none -->
<g id="edge1" class="edge">
<title>x&#45;pos&#45;&gt;none</title>
<path fill="none" stroke="#00ff00" stroke-width=".4252" d="M273.5645,-299.7303C286.5947,-294.0869 304.7645,-287.029 321.5,-283.3625 429.2353,-259.7594 717.2447,-295.4498 816.5,-247.3625 820.944,-245.2094 825.0727,-242.172 828.7998,-238.7636"/>
<polygon fill="#00ff00" stroke="#00ff00" stroke-width=".4252" points="831.4583,-241.0483 835.8586,-231.4104 826.4085,-236.2006 831.4583,-241.0483"/>
</g>
<!-- x&#45;pos&#45;&gt;right -->
<g id="edge7" class="edge">
<title>x&#45;pos&#45;&gt;right</title>
<path fill="none" stroke="#ff0000" stroke-width=".1171" stroke-dasharray="1,5" d="M260.3901,-298.8286C267.3204,-285.673 280.3171,-261.0019 290.7502,-241.1973"/>
<polygon fill="#ff0000" stroke="#ff0000" stroke-width=".1171" points="293.9156,-242.6978 295.4799,-232.2191 287.7224,-239.4352 293.9156,-242.6978"/>
</g>
<!-- left -->
<g id="node15" class="node">
<title>left</title>
<ellipse fill="#add8e6" stroke="#000000" cx="306.5" cy="-19.799" rx="19.6" ry="19.6"/>
<text text-anchor="middle" x="306.5" y="-17.599" font-family="Times,serif" font-size="9.00" fill="#000000">left</text>
</g>
<!-- x&#45;pos&#45;&gt;left -->
<g id="edge3" class="edge">
<title>x&#45;pos&#45;&gt;left</title>
<path fill="none" stroke="#00ff00" stroke-width=".3303" d="M254.8551,-299.0555C253.4619,-277.5199 250.669,-221.5845 255.5,-175.2376 260.1919,-130.2243 260.9596,-118.1033 276.5,-75.598 280.239,-65.3714 285.5726,-54.7096 290.7084,-45.4786"/>
<polygon fill="#00ff00" stroke="#00ff00" stroke-width=".3303" points="293.7526,-47.2058 295.7118,-36.7937 287.6871,-43.7114 293.7526,-47.2058"/>
</g>
<!-- x&#45;pos&#45;&gt;backward -->
<g id="edge12" class="edge">
<title>x&#45;pos&#45;&gt;backward</title>
<path fill="none" stroke="#00ff00" stroke-width=".2675" d="M268.2832,-299.0191C284.6935,-287.2873 313.9764,-266.1493 338.5,-247.3625 341.2866,-245.2277 344.1541,-243.0013 347.0279,-240.7482"/>
<polygon fill="#00ff00" stroke="#00ff00" stroke-width=".2675" points="349.407,-243.3291 355.0823,-234.3825 345.0665,-237.8373 349.407,-243.3291"/>
</g>
<!-- 717 -->
<g id="node22" class="node">
<title>717</title>
<ellipse fill="#ffffff" stroke="#000000" cx="168.5" cy="-211.3" rx="21.4286" ry="21.4286"/>
<text text-anchor="middle" x="168.5" y="-209.1" font-family="Times,serif" font-size="9.00" fill="#000000">717</text>
</g>
<!-- x&#45;pos&#45;&gt;717 -->
<g id="edge34" class="edge">
<title>x&#45;pos&#45;&gt;717</title>
<path fill="none" stroke="#00ff00" stroke-width=".5983" stroke-dasharray="1,5" d="M247.1581,-298.8286C234.092,-284.289 208.3858,-255.6839 189.9129,-235.1278"/>
<polygon fill="#00ff00" stroke="#00ff00" stroke-width=".5983" points="192.2728,-232.5174 182.9853,-227.4189 187.0662,-237.1963 192.2728,-232.5174"/>
</g>
<!-- 667 -->
<g id="node24" class="node">
<title>667</title>
<ellipse fill="#ffffff" stroke="#000000" cx="306.5" cy="-107.4178" rx="21.4286" ry="21.4286"/>
<text text-anchor="middle" x="306.5" y="-105.2178" font-family="Times,serif" font-size="9.00" fill="#000000">667</text>
</g>
<!-- x&#45;pos&#45;&gt;667 -->
<g id="edge32" class="edge">
<title>x&#45;pos&#45;&gt;667</title>
<path fill="none" stroke="#ff0000" stroke-width=".8016" stroke-dasharray="1,5" d="M255.8741,-298.8873C256.9641,-276.9884 260.9744,-220.3245 274.5,-175.2376 278.603,-161.5604 285.0641,-147.154 291.1096,-135.1538"/>
<polygon fill="#ff0000" stroke="#ff0000" stroke-width=".8016" points="294.3064,-136.5923 295.8158,-126.1056 288.0962,-133.3622 294.3064,-136.5923"/>
</g>
<!-- y&#45;pos -->
<g id="node4" class="node">
<title>y&#45;pos</title>
<polygon fill="#d3d3d3" stroke="#000000" points="144.5,-317.1112 108.5,-317.1112 108.5,-299.1112 144.5,-299.1112 144.5,-317.1112"/>
<text text-anchor="middle" x="126.5" y="-305.9112" font-family="Times,serif" font-size="9.00" fill="#000000">y&#45;pos</text>
</g>
<!-- y&#45;pos&#45;&gt;right -->
<g id="edge19" class="edge">
<title>y&#45;pos&#45;&gt;right</title>
<path fill="none" stroke="#ff0000" stroke-width=".2884" stroke-dasharray="1,5" d="M138.1175,-298.8933C144.5338,-293.9999 152.753,-288.0469 160.5,-283.3625 198.805,-260.2002 245.5882,-238.1185 275.7024,-224.6439"/>
<polygon fill="#ff0000" stroke="#ff0000" stroke-width=".2884" points="277.1402,-227.8351 284.8621,-220.581 274.3019,-221.4363 277.1402,-227.8351"/>
</g>
<!-- y&#45;pos&#45;&gt;left -->
<g id="edge26" class="edge">
<title>y&#45;pos&#45;&gt;left</title>
<path fill="none" stroke="#ff0000" stroke-width=".3824" stroke-dasharray="1,5" d="M122.3518,-298.9222C107.7888,-265.1337 62.6565,-146.0881 115.5,-75.598 134.9014,-49.7176 228.1172,-31.8431 276.7783,-24.1099"/>
<polygon fill="#ff0000" stroke="#ff0000" stroke-width=".3824" points="277.3757,-27.5592 286.7235,-22.5723 276.3061,-20.6414 277.3757,-27.5592"/>
</g>
<!-- y&#45;pos&#45;&gt;backward -->
<g id="edge6" class="edge">
<title>y&#45;pos&#45;&gt;backward</title>
<path fill="none" stroke="#00ff00" stroke-width=".2825" d="M136.4942,-299.0478C142.9145,-293.7014 151.6784,-287.2427 160.5,-283.3625 234.3818,-250.8655 265.3916,-281.5638 338.5,-247.3625 341.8723,-245.7849 345.2144,-243.9046 348.464,-241.8429"/>
<polygon fill="#00ff00" stroke="#00ff00" stroke-width=".2825" points="350.5923,-244.6261 356.8067,-236.0451 346.5976,-238.8778 350.5923,-244.6261"/>
</g>
<!-- 1418 -->
<g id="node21" class="node">
<title>1418</title>
<ellipse fill="#ffffff" stroke="#000000" cx="149.5" cy="-107.4178" rx="25" ry="25"/>
<text text-anchor="middle" x="149.5" y="-105.2178" font-family="Times,serif" font-size="9.00" fill="#000000">1418</text>
</g>
<!-- y&#45;pos&#45;&gt;1418 -->
<g id="edge40" class="edge">
<title>y&#45;pos&#45;&gt;1418</title>
<path fill="none" stroke="#00ff00" stroke-width=".2038" d="M127.0952,-299.0653C128.5592,-277.5508 132.6468,-221.6577 138.5,-175.2376 139.8654,-164.4091 141.66,-152.6573 143.4026,-142.0255"/>
<polygon fill="#00ff00" stroke="#00ff00" stroke-width=".2038" points="146.908,-142.2839 145.11,-131.8428 140.0044,-141.1263 146.908,-142.2839"/>
</g>
<!-- x&#45;lm1&#45;vec -->
<g id="node5" class="node">
<title>x&#45;lm1&#45;vec</title>
<polygon fill="#d3d3d3" stroke="#000000" points="830,-116.4178 777,-116.4178 777,-98.4178 830,-98.4178 830,-116.4178"/>
<text text-anchor="middle" x="803.5" y="-105.2178" font-family="Times,serif" font-size="9.00" fill="#000000">x&#45;lm1&#45;vec</text>
</g>
<!-- x&#45;lm1&#45;vec&#45;&gt;left -->
<g id="edge16" class="edge">
<title>x&#45;lm1&#45;vec&#45;&gt;left</title>
<path fill="none" stroke="#ff0000" stroke-width=".5291" stroke-dasharray="1,5" d="M796.2289,-98.2048C789.7929,-90.7659 779.7019,-80.7221 768.5,-75.598 690.8404,-40.074 426.3811,-25.1694 336.6029,-21.0548"/>
<polygon fill="#ff0000" stroke="#ff0000" stroke-width=".5291" points="336.6908,-17.5553 326.5446,-20.6058 336.3785,-24.5483 336.6908,-17.5553"/>
</g>
<!-- y&#45;lm1&#45;vec -->
<g id="node6" class="node">
<title>y&#45;lm1&#45;vec</title>
<polygon fill="#d3d3d3" stroke="#000000" points="53,-116.4178 0,-116.4178 0,-98.4178 53,-98.4178 53,-116.4178"/>
<text text-anchor="middle" x="26.5" y="-105.2178" font-family="Times,serif" font-size="9.00" fill="#000000">y&#45;lm1&#45;vec</text>
</g>
<!-- y&#45;lm1&#45;vec&#45;&gt;left -->
<g id="edge21" class="edge">
<title>y&#45;lm1&#45;vec&#45;&gt;left</title>
<path fill="none" stroke="#00ff00" stroke-width=".151" stroke-dasharray="1,5" d="M35.8067,-98.2692C43.6393,-91.0731 55.4617,-81.3343 67.5,-75.598 137.9788,-42.0144 230.0029,-27.9202 276.6266,-22.621"/>
<polygon fill="#00ff00" stroke="#00ff00" stroke-width=".151" points="277.0971,-26.0907 286.6638,-21.5377 276.3459,-19.1311 277.0971,-26.0907"/>
</g>
<!-- x&#45;lm2&#45;vec -->
<g id="node7" class="node">
<title>x&#45;lm2&#45;vec</title>
<polygon fill="#d3d3d3" stroke="#000000" points="595,-317.1112 542,-317.1112 542,-299.1112 595,-299.1112 595,-317.1112"/>
<text text-anchor="middle" x="568.5" y="-305.9112" font-family="Times,serif" font-size="9.00" fill="#000000">x&#45;lm2&#45;vec</text>
</g>
<!-- x&#45;lm2&#45;vec&#45;&gt;none -->
<g id="edge25" class="edge">
<title>x&#45;lm2&#45;vec&#45;&gt;none</title>
<path fill="none" stroke="#00ff00" stroke-width=".3645" d="M589.224,-299.0295C601.5999,-293.8766 617.7355,-287.6257 632.5,-283.3625 712.5577,-260.2462 743.8352,-288.1477 816.5,-247.3625 820.7183,-244.9948 824.6941,-241.8937 828.3264,-238.5031"/>
<polygon fill="#00ff00" stroke="#00ff00" stroke-width=".3645" points="830.8626,-240.9151 835.267,-231.2791 825.8148,-236.0653 830.8626,-240.9151"/>
</g>
<!-- x&#45;lm2&#45;vec&#45;&gt;right -->
<g id="edge14" class="edge">
<title>x&#45;lm2&#45;vec&#45;&gt;right</title>
<path fill="none" stroke="#00ff00" stroke-width="2.3629" d="M554.7888,-298.88C546.3752,-293.609 535.1959,-287.2883 524.5,-283.3625 445.4555,-254.3498 411.6505,-289.0612 338.5,-247.3625 334.2687,-244.9505 330.3077,-241.7718 326.7127,-238.2997"/>
<polygon fill="#00ff00" stroke="#00ff00" stroke-width="2.3629" points="329.2384,-235.8758 319.8782,-230.912 324.0999,-240.6294 329.2384,-235.8758"/>
</g>
<!-- x&#45;lm2&#45;vec&#45;&gt;left -->
<g id="edge28" class="edge">
<title>x&#45;lm2&#45;vec&#45;&gt;left</title>
<path fill="none" stroke="#ff0000" stroke-width="1.1063" d="M564.9495,-298.8129C551.4815,-264.6427 500.3387,-144.4342 422.5,-75.598 396.8987,-52.9576 360.4886,-37.4544 335.3198,-28.6407"/>
<polygon fill="#ff0000" stroke="#ff0000" stroke-width="1.1063" points="336.2086,-25.2471 325.6146,-25.3775 333.9777,-31.8821 336.2086,-25.2471"/>
</g>
<!-- x&#45;lm2&#45;vec&#45;&gt;forward -->
<g id="edge24" class="edge">
<title>x&#45;lm2&#45;vec&#45;&gt;forward</title>
<path fill="none" stroke="#ff0000" stroke-width=".3979" d="M575.7451,-298.9663C597.6379,-271.3327 663.8897,-187.7082 701.2124,-140.5986"/>
<polygon fill="#ff0000" stroke="#ff0000" stroke-width=".3979" points="704.1398,-142.5397 707.6064,-132.528 698.6531,-138.1928 704.1398,-142.5397"/>
</g>
<!-- x&#45;lm2&#45;vec&#45;&gt;backward -->
<g id="edge4" class="edge">
<title>x&#45;lm2&#45;vec&#45;&gt;backward</title>
<path fill="none" stroke="#00ff00" stroke-width=".3456" d="M552.6989,-299.0224C544.3567,-294.2752 533.9221,-288.4175 524.5,-283.3625 491.3092,-265.5556 453.2578,-246.1676 425.0558,-231.9916"/>
<polygon fill="#00ff00" stroke="#00ff00" stroke-width=".3456" points="426.3982,-228.7493 415.8904,-227.3937 423.2593,-235.0062 426.3982,-228.7493"/>
</g>
<!-- 1283 -->
<g id="node18" class="node">
<title>1283</title>
<ellipse fill="#ffffff" stroke="#000000" cx="576.5" cy="-211.3" rx="25" ry="25"/>
<text text-anchor="middle" x="576.5" y="-209.1" font-family="Times,serif" font-size="9.00" fill="#000000">1283</text>
</g>
<!-- x&#45;lm2&#45;vec&#45;&gt;1283 -->
<g id="edge38" class="edge">
<title>x&#45;lm2&#45;vec&#45;&gt;1283</title>
<path fill="none" stroke="#00ff00" stroke-width=".4348" d="M569.2671,-298.8286C570.2636,-286.7692 572.0597,-265.0337 573.6127,-246.2402"/>
<polygon fill="#00ff00" stroke="#00ff00" stroke-width=".4348" points="577.1083,-246.4365 574.4439,-236.1822 570.1321,-245.86 577.1083,-246.4365"/>
</g>
<!-- y&#45;lm2&#45;vec -->
<g id="node8" class="node">
<title>y&#45;lm2&#45;vec</title>
<polygon fill="#d3d3d3" stroke="#000000" points="694,-317.1112 641,-317.1112 641,-299.1112 694,-299.1112 694,-317.1112"/>
<text text-anchor="middle" x="667.5" y="-305.9112" font-family="Times,serif" font-size="9.00" fill="#000000">y&#45;lm2&#45;vec</text>
</g>
<!-- y&#45;lm2&#45;vec&#45;&gt;left -->
<g id="edge37" class="edge">
<title>y&#45;lm2&#45;vec&#45;&gt;left</title>
<path fill="none" stroke="#00ff00" stroke-width=".2087" d="M665.5229,-299.1103C660.1296,-276.2327 643.324,-214.8669 610.5,-175.2376 536.1282,-85.4465 396.5825,-41.874 335.915,-26.504"/>
<polygon fill="#00ff00" stroke="#00ff00" stroke-width=".2087" points="336.4179,-23.0235 325.8716,-24.0366 334.7478,-29.8214 336.4179,-23.0235"/>
</g>
<!-- y&#45;lm2&#45;vec&#45;&gt;forward -->
<g id="edge27" class="edge">
<title>y&#45;lm2&#45;vec&#45;&gt;forward</title>
<path fill="none" stroke="#00ff00" stroke-width="1.6658" d="M670.234,-298.9663C678.0889,-272.6927 701.076,-195.8033 715.4248,-147.8081"/>
<polygon fill="#00ff00" stroke="#00ff00" stroke-width="1.6658" points="718.8359,-148.6171 718.347,-138.0336 712.1292,-146.612 718.8359,-148.6171"/>
</g>
<!-- y&#45;lm2&#45;vec&#45;&gt;backward -->
<g id="edge18" class="edge">
<title>y&#45;lm2&#45;vec&#45;&gt;backward</title>
<path fill="none" stroke="#ff0000" stroke-width="1.9985" d="M645.4623,-299.085C633.4236,-294.2476 618.214,-288.2872 604.5,-283.3625 543.7651,-261.5525 472.6773,-238.8726 427.867,-224.9191"/>
<polygon fill="#ff0000" stroke="#ff0000" stroke-width="1.9985" points="428.7548,-221.53 418.1667,-221.9071 426.679,-228.2151 428.7548,-221.53"/>
</g>
<!-- x&#45;other&#45;vec -->
<g id="node9" class="node">
<title>x&#45;other&#45;vec</title>
<polygon fill="#d3d3d3" stroke="#000000" points="846.5,-386.86 788.5,-386.86 788.5,-368.86 846.5,-368.86 846.5,-386.86"/>
<text text-anchor="middle" x="817.5" y="-375.66" font-family="Times,serif" font-size="9.00" fill="#000000">x&#45;other&#45;vec</text>
</g>
<!-- x&#45;other&#45;vec&#45;&gt;none -->
<g id="edge2" class="edge">
<title>x&#45;other&#45;vec&#45;&gt;none</title>
<path fill="none" stroke="#ff0000" stroke-width=".258" d="M840.9408,-368.7762C856.0773,-361.535 874.5575,-349.7804 883.5,-332.86 899.1858,-303.1803 883.9248,-265.4938 869.1369,-240.0101"/>
<polygon fill="#ff0000" stroke="#ff0000" stroke-width=".258" points="871.9645,-237.9246 863.7683,-231.211 865.9889,-241.5705 871.9645,-237.9246"/>
</g>
<!-- x&#45;other&#45;vec&#45;&gt;backward -->
<g id="edge8" class="edge">
<title>x&#45;other&#45;vec&#45;&gt;backward</title>
<path fill="none" stroke="#00ff00" stroke-width=".2447" stroke-dasharray="1,5" d="M788.3299,-375.8092C706.4024,-369.8382 478.3518,-351.6917 450.5,-332.86 423.8312,-314.8282 406.7507,-282.512 396.5138,-255.7306"/>
<polygon fill="#00ff00" stroke="#00ff00" stroke-width=".2447" points="399.7411,-254.363 393.0469,-246.151 393.1589,-256.7452 399.7411,-254.363"/>
</g>
<!-- 490 -->
<g id="node20" class="node">
<title>490</title>
<ellipse fill="#ffffff" stroke="#000000" cx="785.5" cy="-308.1112" rx="21.4286" ry="21.4286"/>
<text text-anchor="middle" x="785.5" y="-305.9112" font-family="Times,serif" font-size="9.00" fill="#000000">490</text>
</g>
<!-- x&#45;other&#45;vec&#45;&gt;490 -->
<g id="edge29" class="edge">
<title>x&#45;other&#45;vec&#45;&gt;490</title>
<path fill="none" stroke="#00ff00" stroke-width=".1736" stroke-dasharray="1,5" d="M813.3166,-368.7415C809.5842,-360.6062 803.9134,-348.246 798.6636,-336.8032"/>
<polygon fill="#00ff00" stroke="#00ff00" stroke-width=".1736" points="801.7557,-335.1494 794.4045,-327.5199 795.3933,-338.0685 801.7557,-335.1494"/>
</g>
<!-- 1550 -->
<g id="node23" class="node">
<title>1550</title>
<ellipse fill="#ffffff" stroke="#000000" cx="849.5" cy="-308.1112" rx="25" ry="25"/>
<text text-anchor="middle" x="849.5" y="-305.9112" font-family="Times,serif" font-size="9.00" fill="#000000">1550</text>
</g>
<!-- x&#45;other&#45;vec&#45;&gt;1550 -->
<g id="edge44" class="edge">
<title>x&#45;other&#45;vec&#45;&gt;1550</title>
<path fill="none" stroke="#00ff00" stroke-width=".2974" d="M821.6834,-368.7415C825.0558,-361.3909 830.0107,-350.5911 834.8077,-340.1353"/>
<polygon fill="#00ff00" stroke="#00ff00" stroke-width=".2974" points="838.13,-341.2872 839.1188,-330.7386 831.7676,-338.3681 838.13,-341.2872"/>
</g>
<!-- y&#45;other&#45;vec -->
<g id="node10" class="node">
<title>y&#45;other&#45;vec</title>
<polygon fill="#d3d3d3" stroke="#000000" points="376.5,-386.86 318.5,-386.86 318.5,-368.86 376.5,-368.86 376.5,-386.86"/>
<text text-anchor="middle" x="347.5" y="-375.66" font-family="Times,serif" font-size="9.00" fill="#000000">y&#45;other&#45;vec</text>
</g>
<!-- y&#45;other&#45;vec&#45;&gt;right -->
<g id="edge17" class="edge">
<title>y&#45;other&#45;vec&#45;&gt;right</title>
<path fill="none" stroke="#ff0000" stroke-width=".2858" stroke-dasharray="1,5" d="M340.7449,-368.7344C334.6488,-359.9968 325.9724,-346.206 321.5,-332.86 311.8635,-304.1036 308.3086,-269.6579 307.05,-244.7881"/>
<polygon fill="#ff0000" stroke="#ff0000" stroke-width=".2858" points="310.5457,-244.609 306.6402,-234.7603 303.5516,-244.895 310.5457,-244.609"/>
</g>
<!-- y&#45;other&#45;vec&#45;&gt;forward -->
<g id="edge13" class="edge">
<title>y&#45;other&#45;vec&#45;&gt;forward</title>
<path fill="none" stroke="#00ff00" stroke-width=".4282" stroke-dasharray="1,5" d="M376.7882,-376.2167C457.8513,-371.3875 680.711,-356.1019 703.5,-332.86 750.9365,-284.4806 745.4298,-199.2295 736.7319,-148.5685"/>
<polygon fill="#00ff00" stroke="#00ff00" stroke-width=".4282" points="740.1526,-147.8177 734.905,-138.6137 733.2676,-149.0813 740.1526,-147.8177"/>
</g>
<!-- y&#45;other&#45;vec&#45;&gt;backward -->
<g id="edge9" class="edge">
<title>y&#45;other&#45;vec&#45;&gt;backward</title>
<path fill="none" stroke="#ff0000" stroke-width=".1903" stroke-dasharray="1,5" d="M354.6738,-368.8267C361.1166,-360.1543 370.2027,-346.4077 374.5,-332.86 382.1293,-308.8079 384.6041,-280.7896 385.0708,-257.7177"/>
<polygon fill="#ff0000" stroke="#ff0000" stroke-width=".1903" points="388.5724,-257.5259 385.1553,-247.4973 381.5727,-257.468 388.5724,-257.5259"/>
</g>
<!-- 1536 -->
<g id="node19" class="node">
<title>1536</title>
<ellipse fill="#ffffff" stroke="#000000" cx="194.5" cy="-308.1112" rx="25" ry="25"/>
<text text-anchor="middle" x="194.5" y="-305.9112" font-family="Times,serif" font-size="9.00" fill="#000000">1536</text>
</g>
<!-- y&#45;other&#45;vec&#45;&gt;1536 -->
<g id="edge42" class="edge">
<title>y&#45;other&#45;vec&#45;&gt;1536</title>
<path fill="none" stroke="#00ff00" stroke-width=".296" d="M318.1812,-369.2041C293.4942,-361.3518 257.6487,-348.6092 228.5,-332.86 226.5168,-331.7884 224.5174,-330.6154 222.5346,-329.3809"/>
<polygon fill="#00ff00" stroke="#00ff00" stroke-width=".296" points="224.3058,-326.3547 214.0491,-323.6994 220.4113,-332.1713 224.3058,-326.3547"/>
</g>
<!-- x&#45;other&#45;vel -->
<g id="node11" class="node">
<title>x&#45;other&#45;vel</title>
<polygon fill="#d3d3d3" stroke="#000000" points="515.5,-317.1112 459.5,-317.1112 459.5,-299.1112 515.5,-299.1112 515.5,-317.1112"/>
<text text-anchor="middle" x="487.5" y="-305.9112" font-family="Times,serif" font-size="9.00" fill="#000000">x&#45;other&#45;vel</text>
</g>
<!-- x&#45;other&#45;vel&#45;&gt;none -->
<g id="edge31" class="edge">
<title>x&#45;other&#45;vel&#45;&gt;none</title>
<path fill="none" stroke="#ff0000" stroke-width=".1615" d="M501.3985,-298.8875C510.2265,-293.4807 522.1003,-287.0149 533.5,-283.3625 654.2453,-244.6761 703.9269,-305.7006 816.5,-247.3625 820.8844,-245.0904 824.9805,-241.9881 828.693,-238.5504"/>
<polygon fill="#ff0000" stroke="#ff0000" stroke-width=".1615" points="831.3593,-240.8264 835.7438,-231.1813 826.3015,-235.987 831.3593,-240.8264"/>
</g>
<!-- x&#45;other&#45;vel&#45;&gt;right -->
<g id="edge22" class="edge">
<title>x&#45;other&#45;vel&#45;&gt;right</title>
<path fill="none" stroke="#00ff00" stroke-width=".158" d="M459.2345,-300.8012C427.7616,-291.7464 376.3473,-274.1584 338.5,-247.3625 334.5249,-244.5481 330.7037,-241.1501 327.1717,-237.579"/>
<polygon fill="#00ff00" stroke="#00ff00" stroke-width=".158" points="329.701,-235.1585 320.3714,-230.1377 324.5337,-239.8807 329.701,-235.1585"/>
</g>
<!-- x&#45;other&#45;vel&#45;&gt;left -->
<g id="edge11" class="edge">
<title>x&#45;other&#45;vel&#45;&gt;left</title>
<path fill="none" stroke="#ff0000" stroke-width=".2244" stroke-dasharray="1,5" d="M487.5942,-298.7997C487.4461,-276.2287 484.7819,-217.3574 462.5,-175.2376 430.4437,-114.6412 366.7631,-62.6754 331.484,-36.9772"/>
<polygon fill="#ff0000" stroke="#ff0000" stroke-width=".2244" points="333.3318,-33.9956 323.1632,-31.0205 329.2571,-39.6874 333.3318,-33.9956"/>
</g>
<!-- x&#45;other&#45;vel&#45;&gt;667 -->
<g id="edge36" class="edge">
<title>x&#45;other&#45;vel&#45;&gt;667</title>
<path fill="none" stroke="#00ff00" stroke-width=".303" d="M485.5652,-298.9386C480.245,-275.6581 463.4144,-213.4248 428.5,-175.2376 403.014,-147.3625 363.3395,-128.2909 336.2,-117.6356"/>
<polygon fill="#00ff00" stroke="#00ff00" stroke-width=".303" points="337.4095,-114.3511 326.8178,-114.09 334.9349,-120.8992 337.4095,-114.3511"/>
</g>
<!-- y&#45;other&#45;vel -->
<g id="node12" class="node">
<title>y&#45;other&#45;vel</title>
<polygon fill="#d3d3d3" stroke="#000000" points="986.5,-317.1112 930.5,-317.1112 930.5,-299.1112 986.5,-299.1112 986.5,-317.1112"/>
<text text-anchor="middle" x="958.5" y="-305.9112" font-family="Times,serif" font-size="9.00" fill="#000000">y&#45;other&#45;vel</text>
</g>
<!-- y&#45;other&#45;vel&#45;&gt;none -->
<g id="edge15" class="edge">
<title>y&#45;other&#45;vel&#45;&gt;none</title>
<path fill="none" stroke="#ff0000" stroke-width=".271" stroke-dasharray="1,5" d="M948.0486,-298.8286C931.4612,-284.096 898.6141,-254.922 875.4109,-234.3135"/>
<polygon fill="#ff0000" stroke="#ff0000" stroke-width=".271" points="877.4493,-231.4427 867.6483,-227.4189 872.8008,-236.6765 877.4493,-231.4427"/>
</g>
<!-- y&#45;other&#45;vel&#45;&gt;forward -->
<g id="edge23" class="edge">
<title>y&#45;other&#45;vel&#45;&gt;forward</title>
<path fill="none" stroke="#ff0000" stroke-width=".1963" d="M955.8122,-298.8174C948.3592,-274.6988 925.1177,-209.5995 882.5,-175.2376 841.1372,-141.8875 815.5564,-163.9115 768.5,-139.2376 765.6273,-137.7313 762.7517,-136.0194 759.9309,-134.1895"/>
<polygon fill="#ff0000" stroke="#ff0000" stroke-width=".1963" points="761.8928,-131.2906 751.6905,-128.4335 757.8843,-137.0292 761.8928,-131.2906"/>
</g>
<!-- right&#45;&gt;667 -->
<g id="edge35" class="edge">
<title>right&#45;&gt;667</title>
<path fill="none" stroke="#ff0000" stroke-width=".217" stroke-dasharray="1,5" d="M306.5,-187.7275C306.5,-173.3306 306.5,-154.7391 306.5,-139.0703"/>
<polygon fill="#ff0000" stroke="#ff0000" stroke-width=".217" points="310.0001,-138.777 306.5,-128.777 303.0001,-138.777 310.0001,-138.777"/>
</g>
<!-- 1283&#45;&gt;forward -->
<g id="edge39" class="edge">
<title>1283&#45;&gt;forward</title>
<path fill="none" stroke="#00ff00" stroke-width="1.071" d="M594.0894,-193.6261C600.5705,-187.5006 608.1329,-180.7846 615.5,-175.2376 639.2812,-157.3318 668.0404,-139.9981 690.4615,-127.3368"/>
<polygon fill="#00ff00" stroke="#00ff00" stroke-width="1.071" points="692.3135,-130.3114 699.3384,-122.3803 688.9009,-124.1996 692.3135,-130.3114"/>
</g>
<!-- 1536&#45;&gt;right -->
<g id="edge43" class="edge">
<title>1536&#45;&gt;right</title>
<path fill="none" stroke="#00ff00" stroke-width=".1435" d="M213.2463,-291.9072C231.8279,-275.8455 260.4245,-251.127 281.0516,-233.2973"/>
<polygon fill="#00ff00" stroke="#00ff00" stroke-width=".1435" points="283.5259,-235.7849 288.8025,-226.5975 278.9483,-230.4891 283.5259,-235.7849"/>
</g>
<!-- 1536&#45;&gt;717 -->
<g id="edge46" class="edge">
<title>1536&#45;&gt;717</title>
<path fill="none" stroke="#00ff00" stroke-width=".3539" d="M188.073,-284.1804C184.6458,-271.4191 180.3915,-255.5782 176.7255,-241.9278"/>
<polygon fill="#00ff00" stroke="#00ff00" stroke-width=".3539" points="180.0342,-240.7534 174.0602,-232.0035 173.2738,-242.5691 180.0342,-240.7534"/>
</g>
<!-- 490&#45;&gt;none -->
<g id="edge30" class="edge">
<title>490&#45;&gt;none</title>
<path fill="none" stroke="#ff0000" stroke-width=".7047" stroke-dasharray="1,5" d="M797.2386,-290.3546C806.4948,-276.353 819.5931,-256.5394 830.3609,-240.2513"/>
<polygon fill="#ff0000" stroke="#ff0000" stroke-width=".7047" points="833.4689,-241.8965 836.064,-231.6243 827.6296,-238.0361 833.4689,-241.8965"/>
</g>
<!-- 1418&#45;&gt;left -->
<g id="edge41" class="edge">
<title>1418&#45;&gt;left</title>
<path fill="none" stroke="#00ff00" stroke-width="1.0693" d="M170.944,-94.5425C180.8113,-88.6799 192.7009,-81.7022 203.5,-75.598 229.2935,-61.0181 259.0874,-44.9614 279.9749,-33.8307"/>
<polygon fill="#00ff00" stroke="#00ff00" stroke-width="1.0693" points="281.7121,-36.8711 288.8988,-29.0863 278.426,-30.6903 281.7121,-36.8711"/>
</g>
<!-- 1550&#45;&gt;none -->
<g id="edge45" class="edge">
<title>1550&#45;&gt;none</title>
<path fill="none" stroke="#ff0000" stroke-width=".5788" d="M849.5,-283.1799C849.5,-271.7125 849.5,-257.9258 849.5,-245.507"/>
<polygon fill="#ff0000" stroke="#ff0000" stroke-width=".5788" points="853.0001,-245.4779 849.5,-235.4779 846.0001,-245.4779 853.0001,-245.4779"/>
</g>
<!-- 667&#45;&gt;left -->
<g id="edge33" class="edge">
<title>667&#45;&gt;left</title>
<path fill="none" stroke="#ff0000" stroke-width=".1728" stroke-dasharray="1,5" d="M306.5,-85.7592C306.5,-74.973 306.5,-61.7557 306.5,-49.9927"/>
<polygon fill="#ff0000" stroke="#ff0000" stroke-width=".1728" points="310.0001,-49.7101 306.5,-39.7102 303.0001,-49.7102 310.0001,-49.7101"/>
</g>
</g>
</svg>
