<?xml version="1.0" encoding="UTF-8" standalone="no"?>
<!DOCTYPE svg PUBLIC "-//W3C//DTD SVG 1.1//EN"
 "http://www.w3.org/Graphics/SVG/1.1/DTD/svg11.dtd">
<!-- Generated by graphviz version 2.40.1 (20161225.0304)
 -->
<!-- Title: %3 Pages: 1 -->
<svg width="1061pt" height="252pt"
 viewBox="0.00 0.00 1061.44 252.15" xmlns="http://www.w3.org/2000/svg" xmlns:xlink="http://www.w3.org/1999/xlink">
<g id="graph0" class="graph" transform="scale(1 1) rotate(0) translate(4 248.1493)">
<title>%3</title>
<polygon fill="#ffffff" stroke="transparent" points="-4,4 -4,-248.1493 1057.4403,-248.1493 1057.4403,4 -4,4"/>
<!-- A_agent -->
<g id="node1" class="node">
<title>A_agent</title>
<polygon fill="#d3d3d3" stroke="#000000" points="234.8285,-177.9361 187.8285,-177.9361 187.8285,-159.9361 234.8285,-159.9361 234.8285,-177.9361"/>
<text text-anchor="middle" x="211.3285" y="-166.7361" font-family="Times,serif" font-size="9.00" fill="#000000">A_agent</text>
</g>
<!-- no_move -->
<g id="node17" class="node">
<title>no_move</title>
<ellipse fill="#add8e6" stroke="#000000" cx="548.3285" cy="-55.8614" rx="35.2113" ry="35.2113"/>
<text text-anchor="middle" x="548.3285" y="-53.6614" font-family="Times,serif" font-size="9.00" fill="#000000">no_move</text>
</g>
<!-- A_agent&#45;&gt;no_move -->
<g id="edge6" class="edge">
<title>A_agent&#45;&gt;no_move</title>
<path fill="none" stroke="#ff0000" stroke-width=".5287" stroke-dasharray="1,5" d="M222.9466,-159.9016C229.0125,-155.6031 236.7379,-150.7526 244.3285,-147.7229 323.7462,-116.0238 352.1646,-138.638 433.3285,-111.7229 459.3211,-103.1034 486.9701,-89.8175 508.6421,-78.3651"/>
<polygon fill="#ff0000" stroke="#ff0000" stroke-width=".5287" points="510.3861,-81.4013 517.5418,-73.5881 507.0755,-75.2336 510.3861,-81.4013"/>
</g>
<!-- right -->
<g id="node18" class="node">
<title>right</title>
<ellipse fill="#add8e6" stroke="#000000" cx="302.3285" cy="-55.8614" rx="23.1702" ry="23.1702"/>
<text text-anchor="middle" x="302.3285" y="-53.6614" font-family="Times,serif" font-size="9.00" fill="#000000">right</text>
</g>
<!-- A_agent&#45;&gt;right -->
<g id="edge64" class="edge">
<title>A_agent&#45;&gt;right</title>
<path fill="none" stroke="#ff0000" stroke-width=".4018" stroke-dasharray="1,5" d="M218.7754,-159.6827C232.2759,-142.9073 261.2445,-106.9115 281.2547,-82.0473"/>
<polygon fill="#ff0000" stroke="#ff0000" stroke-width=".4018" points="284.119,-84.0706 287.662,-74.0857 278.6657,-79.6819 284.119,-84.0706"/>
</g>
<!-- backward -->
<g id="node21" class="node">
<title>backward</title>
<ellipse fill="#add8e6" stroke="#000000" cx="907.3285" cy="-55.8614" rx="36.125" ry="36.125"/>
<text text-anchor="middle" x="907.3285" y="-53.6614" font-family="Times,serif" font-size="9.00" fill="#000000">backward</text>
</g>
<!-- A_agent&#45;&gt;backward -->
<g id="edge11" class="edge">
<title>A_agent&#45;&gt;backward</title>
<path fill="none" stroke="#00ff00" stroke-width=".3567" stroke-dasharray="1,5" d="M222.1965,-159.9178C228.3047,-155.3961 236.298,-150.3374 244.3285,-147.7229 375.1366,-105.1353 740.019,-174.6896 862.3285,-111.7229 870.048,-107.7488 876.9005,-101.7961 882.7856,-95.2373"/>
<polygon fill="#00ff00" stroke="#00ff00" stroke-width=".3567" points="885.6217,-97.2981 889.2438,-87.3417 880.2033,-92.8662 885.6217,-97.2981"/>
</g>
<!-- no_turn -->
<g id="node22" class="node">
<title>no_turn</title>
<ellipse fill="#add8e6" stroke="#000000" cx="215.3285" cy="-55.8614" rx="31.2258" ry="31.2258"/>
<text text-anchor="middle" x="215.3285" y="-53.6614" font-family="Times,serif" font-size="9.00" fill="#000000">no_turn</text>
</g>
<!-- A_agent&#45;&gt;no_turn -->
<g id="edge57" class="edge">
<title>A_agent&#45;&gt;no_turn</title>
<path fill="none" stroke="#ff0000" stroke-width=".2614" stroke-dasharray="1,5" d="M211.6559,-159.6827C212.1348,-146.1437 213.0566,-120.0851 213.8569,-97.4632"/>
<polygon fill="#ff0000" stroke="#ff0000" stroke-width=".2614" points="217.3582,-97.4859 214.214,-87.3684 210.3625,-97.2384 217.3582,-97.4859"/>
</g>
<!-- clockwise -->
<g id="node24" class="node">
<title>clockwise</title>
<ellipse fill="#add8e6" stroke="#000000" cx="387.3285" cy="-55.8614" rx="36.5405" ry="36.5405"/>
<text text-anchor="middle" x="387.3285" y="-53.6614" font-family="Times,serif" font-size="9.00" fill="#000000">clockwise</text>
</g>
<!-- A_agent&#45;&gt;clockwise -->
<g id="edge17" class="edge">
<title>A_agent&#45;&gt;clockwise</title>
<path fill="none" stroke="#ff0000" stroke-width=".4376" d="M224.1544,-159.8797C230.1282,-155.8758 237.427,-151.2801 244.3285,-147.7229 282.6225,-127.9853 298.6772,-135.9093 334.3285,-111.7229 342.3717,-106.2663 350.121,-99.4035 357.0948,-92.3734"/>
<polygon fill="#ff0000" stroke="#ff0000" stroke-width=".4376" points="359.9939,-94.4027 364.3348,-84.738 354.9143,-89.5862 359.9939,-94.4027"/>
</g>
<!-- A_lm -->
<g id="node2" class="node">
<title>A_lm</title>
<polygon fill="#d3d3d3" stroke="#000000" points="354.8285,-177.9361 317.8285,-177.9361 317.8285,-159.9361 354.8285,-159.9361 354.8285,-177.9361"/>
<text text-anchor="middle" x="336.3285" y="-166.7361" font-family="Times,serif" font-size="9.00" fill="#000000">A_lm</text>
</g>
<!-- A_lm&#45;&gt;no_move -->
<g id="edge23" class="edge">
<title>A_lm&#45;&gt;no_move</title>
<path fill="none" stroke="#ff0000" stroke-width=".3049" stroke-dasharray="1,5" d="M346.9886,-159.7358C351.8104,-155.7947 357.6839,-151.2887 363.3285,-147.7229 376.4929,-139.4067 456.9545,-100.0888 507.3345,-75.6651"/>
<polygon fill="#ff0000" stroke="#ff0000" stroke-width=".3049" points="508.8947,-78.7984 516.3685,-71.2888 505.8429,-72.4986 508.8947,-78.7984"/>
</g>
<!-- A_lm&#45;&gt;right -->
<g id="edge51" class="edge">
<title>A_lm&#45;&gt;right</title>
<path fill="none" stroke="#00ff00" stroke-width=".9567" d="M333.5462,-159.6827C328.8905,-144.1991 319.3113,-112.3415 311.9849,-87.9757"/>
<polygon fill="#00ff00" stroke="#00ff00" stroke-width=".9567" points="315.335,-86.9623 309.1037,-78.3937 308.6315,-88.978 315.335,-86.9623"/>
</g>
<!-- left -->
<g id="node19" class="node">
<title>left</title>
<ellipse fill="#add8e6" stroke="#000000" cx="621.3285" cy="-55.8614" rx="19.6" ry="19.6"/>
<text text-anchor="middle" x="621.3285" y="-53.6614" font-family="Times,serif" font-size="9.00" fill="#000000">left</text>
</g>
<!-- A_lm&#45;&gt;left -->
<g id="edge31" class="edge">
<title>A_lm&#45;&gt;left</title>
<path fill="none" stroke="#00ff00" stroke-width=".4903" stroke-dasharray="1,5" d="M345.5401,-159.7559C350.4281,-155.4202 356.7706,-150.5804 363.3285,-147.7229 457.7789,-106.5666 508.713,-171.9156 592.3285,-111.7229 601.5356,-105.0949 608.0445,-94.6554 612.5294,-84.5859"/>
<polygon fill="#00ff00" stroke="#00ff00" stroke-width=".4903" points="615.8251,-85.7686 616.2311,-75.1816 609.3116,-83.2047 615.8251,-85.7686"/>
</g>
<!-- forward -->
<g id="node20" class="node">
<title>forward</title>
<ellipse fill="#add8e6" stroke="#000000" cx="691.3285" cy="-55.8614" rx="31.6406" ry="31.6406"/>
<text text-anchor="middle" x="691.3285" y="-53.6614" font-family="Times,serif" font-size="9.00" fill="#000000">forward</text>
</g>
<!-- A_lm&#45;&gt;forward -->
<g id="edge62" class="edge">
<title>A_lm&#45;&gt;forward</title>
<path fill="none" stroke="#ff0000" stroke-width=".472" d="M345.5031,-159.6691C350.3817,-155.3113 356.7269,-150.478 363.3285,-147.7229 481.9664,-98.2106 539.4891,-176.8462 650.3285,-111.7229 658.4026,-106.979 665.3574,-99.955 671.127,-92.4762"/>
<polygon fill="#ff0000" stroke="#ff0000" stroke-width=".472" points="674.0128,-94.4571 676.9194,-84.2687 668.2937,-90.4208 674.0128,-94.4571"/>
</g>
<!-- A_lm&#45;&gt;clockwise -->
<g id="edge25" class="edge">
<title>A_lm&#45;&gt;clockwise</title>
<path fill="none" stroke="#00ff00" stroke-width=".6517" d="M340.5021,-159.6827C346.4762,-146.4371 357.855,-121.2086 367.8995,-98.9385"/>
<polygon fill="#00ff00" stroke="#00ff00" stroke-width=".6517" points="371.1819,-100.1736 372.1029,-89.6188 364.8009,-97.2955 371.1819,-100.1736"/>
</g>
<!-- B_agent -->
<g id="node3" class="node">
<title>B_agent</title>
<polygon fill="#d3d3d3" stroke="#000000" points="169.3285,-177.9361 123.3285,-177.9361 123.3285,-159.9361 169.3285,-159.9361 169.3285,-177.9361"/>
<text text-anchor="middle" x="146.3285" y="-166.7361" font-family="Times,serif" font-size="9.00" fill="#000000">B_agent</text>
</g>
<!-- B_agent&#45;&gt;no_move -->
<g id="edge34" class="edge">
<title>B_agent&#45;&gt;no_move</title>
<path fill="none" stroke="#00ff00" stroke-width=".1402" stroke-dasharray="1,5" d="M157.4953,-159.7399C163.3522,-155.4002 170.8508,-150.5617 178.3285,-147.7229 285.3343,-107.1002 323.8562,-145.1334 433.3285,-111.7229 459.5203,-103.7292 487.1766,-90.466 508.8025,-78.869"/>
<polygon fill="#00ff00" stroke="#00ff00" stroke-width=".1402" points="510.5807,-81.8859 517.6797,-74.0211 507.2256,-75.7423 510.5807,-81.8859"/>
</g>
<!-- B_agent&#45;&gt;no_turn -->
<g id="edge26" class="edge">
<title>B_agent&#45;&gt;no_turn</title>
<path fill="none" stroke="#ff0000" stroke-width=".7991" d="M151.9751,-159.6827C160.9937,-144.9033 179.1158,-115.2055 193.6761,-91.3446"/>
<polygon fill="#ff0000" stroke="#ff0000" stroke-width=".7991" points="196.8344,-92.8881 199.0557,-82.5288 190.859,-89.2419 196.8344,-92.8881"/>
</g>
<!-- B_agent&#45;&gt;clockwise -->
<g id="edge52" class="edge">
<title>B_agent&#45;&gt;clockwise</title>
<path fill="none" stroke="#00ff00" stroke-width=".1036" d="M157.9008,-159.7976C163.7397,-155.5796 171.103,-150.8298 178.3285,-147.7229 243.6969,-119.6144 272.5515,-147.0316 334.3285,-111.7229 342.8521,-106.8512 350.8469,-100.1776 357.9149,-93.1369"/>
<polygon fill="#00ff00" stroke="#00ff00" stroke-width=".1036" points="360.8805,-95.0942 365.2018,-85.4206 355.7912,-90.288 360.8805,-95.0942"/>
</g>
<!-- B_lm -->
<g id="node4" class="node">
<title>B_lm</title>
<polygon fill="#d3d3d3" stroke="#000000" points="1032.8285,-177.9361 995.8285,-177.9361 995.8285,-159.9361 1032.8285,-159.9361 1032.8285,-177.9361"/>
<text text-anchor="middle" x="1014.3285" y="-166.7361" font-family="Times,serif" font-size="9.00" fill="#000000">B_lm</text>
</g>
<!-- B_lm&#45;&gt;left -->
<g id="edge28" class="edge">
<title>B_lm&#45;&gt;left</title>
<path fill="none" stroke="#ff0000" stroke-width=".2673" d="M1005.0299,-159.8387C999.9282,-155.412 993.2449,-150.4657 986.3285,-147.7229 846.7179,-92.3575 774.3396,-196.4441 650.3285,-111.7229 640.8928,-105.2767 634.3268,-94.775 629.8604,-84.607"/>
<polygon fill="#ff0000" stroke="#ff0000" stroke-width=".2673" points="633.0596,-83.1753 626.1965,-75.1038 626.5282,-85.6935 633.0596,-83.1753"/>
</g>
<!-- B_lm&#45;&gt;backward -->
<g id="edge29" class="edge">
<title>B_lm&#45;&gt;backward</title>
<path fill="none" stroke="#ff0000" stroke-width=".2243" stroke-dasharray="1,5" d="M1005.5723,-159.6827C991.2504,-144.5477 962.1239,-113.7677 939.2855,-89.6326"/>
<polygon fill="#ff0000" stroke="#ff0000" stroke-width=".2243" points="941.5336,-86.9162 932.1181,-82.0583 936.4491,-91.7275 941.5336,-86.9162"/>
</g>
<!-- counterclockwise -->
<g id="node23" class="node">
<title>counterclockwise</title>
<ellipse fill="#add8e6" stroke="#000000" cx="797.3285" cy="-55.8614" rx="55.7232" ry="55.7232"/>
<text text-anchor="middle" x="797.3285" y="-53.6614" font-family="Times,serif" font-size="9.00" fill="#000000">counterclockwise</text>
</g>
<!-- B_lm&#45;&gt;counterclockwise -->
<g id="edge10" class="edge">
<title>B_lm&#45;&gt;counterclockwise</title>
<path fill="none" stroke="#ff0000" stroke-width=".2109" d="M1004.2974,-159.9048C999.2108,-155.7122 992.7594,-150.9528 986.3285,-147.7229 935.0468,-121.966 912.7931,-139.0461 862.3285,-111.7229 856.7471,-108.7009 851.221,-105.135 845.8868,-101.2905"/>
<polygon fill="#ff0000" stroke="#ff0000" stroke-width=".2109" points="847.7622,-98.3198 837.682,-95.0577 843.5278,-103.8939 847.7622,-98.3198"/>
</g>
<!-- C_agent -->
<g id="node5" class="node">
<title>C_agent</title>
<polygon fill="#d3d3d3" stroke="#000000" points="67.3285,-177.9361 21.3285,-177.9361 21.3285,-159.9361 67.3285,-159.9361 67.3285,-177.9361"/>
<text text-anchor="middle" x="44.3285" y="-166.7361" font-family="Times,serif" font-size="9.00" fill="#000000">C_agent</text>
</g>
<!-- C_agent&#45;&gt;no_move -->
<g id="edge59" class="edge">
<title>C_agent&#45;&gt;no_move</title>
<path fill="none" stroke="#ff0000" stroke-width=".1571" stroke-dasharray="1,5" d="M67.389,-160.7909C80.9092,-156.3081 98.4092,-151.0048 114.3285,-147.7229 254.0675,-118.9141 296.2976,-151.4653 433.3285,-111.7229 459.6292,-104.095 487.2894,-90.845 508.8901,-79.1635"/>
<polygon fill="#ff0000" stroke="#ff0000" stroke-width=".1571" points="510.6889,-82.1686 517.755,-74.2742 507.3082,-76.039 510.6889,-82.1686"/>
</g>
<!-- C_agent&#45;&gt;right -->
<g id="edge41" class="edge">
<title>C_agent&#45;&gt;right</title>
<path fill="none" stroke="#00ff00" stroke-width=".2502" d="M57.8697,-159.7886C64.659,-155.5685 73.1584,-150.8196 81.3285,-147.7229 155.1733,-119.7336 187.5001,-152.1673 255.3285,-111.7229 266.6396,-104.9783 276.5116,-94.5061 284.2493,-84.4433"/>
<polygon fill="#00ff00" stroke="#00ff00" stroke-width=".2502" points="287.2038,-86.3306 290.2317,-76.1776 281.5332,-82.2264 287.2038,-86.3306"/>
</g>
<!-- C_agent&#45;&gt;no_turn -->
<g id="edge38" class="edge">
<title>C_agent&#45;&gt;no_turn</title>
<path fill="none" stroke="#ff0000" stroke-width=".4005" d="M58.0331,-159.8738C84.3734,-142.4562 142.7969,-103.8233 180.5521,-78.8575"/>
<polygon fill="#ff0000" stroke="#ff0000" stroke-width=".4005" points="182.7961,-81.5698 189.2068,-73.1345 178.935,-75.7308 182.7961,-81.5698"/>
</g>
<!-- C_lm -->
<g id="node6" class="node">
<title>C_lm</title>
<polygon fill="#d3d3d3" stroke="#000000" points="409.8285,-177.9361 372.8285,-177.9361 372.8285,-159.9361 409.8285,-159.9361 409.8285,-177.9361"/>
<text text-anchor="middle" x="391.3285" y="-166.7361" font-family="Times,serif" font-size="9.00" fill="#000000">C_lm</text>
</g>
<!-- C_lm&#45;&gt;right -->
<g id="edge5" class="edge">
<title>C_lm&#45;&gt;right</title>
<path fill="none" stroke="#ff0000" stroke-width=".2089" d="M382.8697,-159.8839C372.6612,-148.8199 355.1461,-129.3857 341.3285,-111.7229 334.3698,-102.8276 327.1765,-92.7966 320.8916,-83.7146"/>
<polygon fill="#ff0000" stroke="#ff0000" stroke-width=".2089" points="323.7159,-81.6442 315.1816,-75.3659 317.938,-85.5959 323.7159,-81.6442"/>
</g>
<!-- C_lm&#45;&gt;left -->
<g id="edge49" class="edge">
<title>C_lm&#45;&gt;left</title>
<path fill="none" stroke="#00ff00" stroke-width=".346" stroke-dasharray="1,5" d="M400.9987,-159.9012C406.0978,-155.6026 412.6665,-150.7521 419.3285,-147.7229 490.8207,-115.2149 529.7389,-159.1616 592.3285,-111.7229 601.3697,-104.8703 607.8472,-94.3883 612.3534,-84.3478"/>
<polygon fill="#00ff00" stroke="#00ff00" stroke-width=".346" points="615.6323,-85.5744 616.0892,-74.9894 609.1311,-82.9792 615.6323,-85.5744"/>
</g>
<!-- C_lm&#45;&gt;forward -->
<g id="edge12" class="edge">
<title>C_lm&#45;&gt;forward</title>
<path fill="none" stroke="#00ff00" stroke-width="1.5604" d="M400.9357,-159.7578C406.0187,-155.4226 412.5921,-150.5828 419.3285,-147.7229 514.9723,-107.1185 561.5361,-165.6891 650.3285,-111.7229 658.0869,-107.0075 664.8341,-100.2176 670.4921,-92.986"/>
<polygon fill="#00ff00" stroke="#00ff00" stroke-width="1.5604" points="673.666,-94.5639 676.629,-84.3918 667.9694,-90.496 673.666,-94.5639"/>
</g>
<!-- C_lm&#45;&gt;clockwise -->
<g id="edge46" class="edge">
<title>C_lm&#45;&gt;clockwise</title>
<path fill="none" stroke="#ff0000" stroke-width=".4469" d="M391.0012,-159.6827C390.5602,-147.2175 389.7439,-124.1401 388.9926,-102.9029"/>
<polygon fill="#ff0000" stroke="#ff0000" stroke-width=".4469" points="392.4824,-102.5497 388.631,-92.6798 385.4868,-102.7973 392.4824,-102.5497"/>
</g>
<!-- D_agent -->
<g id="node7" class="node">
<title>D_agent</title>
<polygon fill="#d3d3d3" stroke="#000000" points="737.8285,-177.9361 690.8285,-177.9361 690.8285,-159.9361 737.8285,-159.9361 737.8285,-177.9361"/>
<text text-anchor="middle" x="714.3285" y="-166.7361" font-family="Times,serif" font-size="9.00" fill="#000000">D_agent</text>
</g>
<!-- D_agent&#45;&gt;no_move -->
<g id="edge4" class="edge">
<title>D_agent&#45;&gt;no_move</title>
<path fill="none" stroke="#ff0000" stroke-width=".1756" d="M701.4962,-159.892C695.5212,-155.8906 688.2231,-151.2934 681.3285,-147.7229 643.439,-128.1008 626.451,-137.3413 592.3285,-111.7229 585.5165,-106.6085 579.18,-100.1929 573.5578,-93.5491"/>
<polygon fill="#ff0000" stroke="#ff0000" stroke-width=".1756" points="576.2739,-91.3415 567.3,-85.7093 570.803,-95.7083 576.2739,-91.3415"/>
</g>
<!-- D_agent&#45;&gt;counterclockwise -->
<g id="edge7" class="edge">
<title>D_agent&#45;&gt;counterclockwise</title>
<path fill="none" stroke="#ff0000" stroke-width=".3587" d="M721.1208,-159.6827C729.3529,-148.4678 743.8904,-128.6625 758.0767,-109.336"/>
<polygon fill="#ff0000" stroke="#ff0000" stroke-width=".3587" points="761.0198,-111.2414 764.1156,-101.1089 755.3768,-107.0992 761.0198,-111.2414"/>
</g>
<!-- D_agent&#45;&gt;clockwise -->
<g id="edge21" class="edge">
<title>D_agent&#45;&gt;clockwise</title>
<path fill="none" stroke="#ff0000" stroke-width=".3206" d="M702.3895,-159.7266C696.3669,-155.4919 688.774,-150.7485 681.3285,-147.7229 606.9573,-117.5008 580.4532,-137.2076 504.3285,-111.7229 478.3682,-103.032 450.6662,-89.9902 428.7373,-78.6934"/>
<polygon fill="#ff0000" stroke="#ff0000" stroke-width=".3206" points="430.1981,-75.5077 419.7145,-73.9766 426.9551,-81.7112 430.1981,-75.5077"/>
</g>
<!-- D_lm -->
<g id="node8" class="node">
<title>D_lm</title>
<polygon fill="#d3d3d3" stroke="#000000" points="467.8285,-244.1493 430.8285,-244.1493 430.8285,-226.1493 467.8285,-226.1493 467.8285,-244.1493"/>
<text text-anchor="middle" x="449.3285" y="-232.9493" font-family="Times,serif" font-size="9.00" fill="#000000">D_lm</text>
</g>
<!-- D_lm&#45;&gt;no_move -->
<g id="edge58" class="edge">
<title>D_lm&#45;&gt;no_move</title>
<path fill="none" stroke="#ff0000" stroke-width=".4644" d="M468.1836,-230.5964C487.9224,-224.7661 518.118,-212.6172 533.3285,-190.1493 550.7622,-164.3974 554.1627,-129.3067 553.3889,-101.4544"/>
<polygon fill="#ff0000" stroke="#ff0000" stroke-width=".4644" points="556.8713,-100.9944 552.9085,-91.1686 549.8789,-101.3211 556.8713,-100.9944"/>
</g>
<!-- D_lm&#45;&gt;right -->
<g id="edge22" class="edge">
<title>D_lm&#45;&gt;right</title>
<path fill="none" stroke="#ff0000" stroke-width=".1005" d="M430.7678,-234.0603C363.5075,-229.928 135.3839,-214.2221 114.3285,-190.1493 33.2246,-97.4224 183.411,-156.8774 255.3285,-111.7229 266.4817,-104.7202 276.3239,-94.1994 284.082,-84.1699"/>
<polygon fill="#ff0000" stroke="#ff0000" stroke-width=".1005" points="287.0158,-86.0873 290.0917,-75.9488 281.3647,-81.9563 287.0158,-86.0873"/>
</g>
<!-- D_lm&#45;&gt;backward -->
<g id="edge53" class="edge">
<title>D_lm&#45;&gt;backward</title>
<path fill="none" stroke="#ff0000" stroke-width=".1936" stroke-dasharray="1,5" d="M468.0156,-234.4392C566.5796,-230.6057 1022.3023,-211.7528 1042.3285,-190.1493 1081.9745,-147.3808 1002.8759,-99.7886 949.8592,-74.3294"/>
<polygon fill="#ff0000" stroke="#ff0000" stroke-width=".1936" points="951.1622,-71.0745 940.6231,-69.9888 948.1848,-77.4098 951.1622,-71.0745"/>
</g>
<!-- D_lm&#45;&gt;no_turn -->
<g id="edge35" class="edge">
<title>D_lm&#45;&gt;no_turn</title>
<path fill="none" stroke="#00ff00" stroke-width=".2175" d="M430.5675,-234.6649C350.574,-232.4102 40.7814,-221.6825 12.3285,-190.1493 -42.4204,-129.4731 101.4171,-83.8313 175.0323,-65.1385"/>
<polygon fill="#00ff00" stroke="#00ff00" stroke-width=".2175" points="176.0644,-68.4886 184.9257,-62.681 174.3768,-61.695 176.0644,-68.4886"/>
</g>
<!-- 166 -->
<g id="node25" class="node">
<title>166</title>
<ellipse fill="#ffffff" stroke="#000000" cx="449.3285" cy="-168.9361" rx="21.4286" ry="21.4286"/>
<text text-anchor="middle" x="449.3285" y="-166.7361" font-family="Times,serif" font-size="9.00" fill="#000000">166</text>
</g>
<!-- D_lm&#45;&gt;166 -->
<g id="edge65" class="edge">
<title>D_lm&#45;&gt;166</title>
<path fill="none" stroke="#ff0000" stroke-width=".3914" d="M449.3285,-225.9426C449.3285,-219.2816 449.3285,-209.8567 449.3285,-200.5846"/>
<polygon fill="#ff0000" stroke="#ff0000" stroke-width=".3914" points="452.8286,-200.3364 449.3285,-190.3365 445.8286,-200.3365 452.8286,-200.3364"/>
</g>
<!-- E_agent -->
<g id="node9" class="node">
<title>E_agent</title>
<polygon fill="#d3d3d3" stroke="#000000" points="299.3285,-177.9361 253.3285,-177.9361 253.3285,-159.9361 299.3285,-159.9361 299.3285,-177.9361"/>
<text text-anchor="middle" x="276.3285" y="-166.7361" font-family="Times,serif" font-size="9.00" fill="#000000">E_agent</text>
</g>
<!-- E_agent&#45;&gt;right -->
<g id="edge55" class="edge">
<title>E_agent&#45;&gt;right</title>
<path fill="none" stroke="#ff0000" stroke-width=".5619" stroke-dasharray="1,5" d="M278.4562,-159.6827C281.9794,-144.3602 289.1897,-113.0027 294.7688,-88.7388"/>
<polygon fill="#ff0000" stroke="#ff0000" stroke-width=".5619" points="298.2145,-89.3717 297.0445,-78.8417 291.3926,-87.8031 298.2145,-89.3717"/>
</g>
<!-- E_agent&#45;&gt;left -->
<g id="edge45" class="edge">
<title>E_agent&#45;&gt;left</title>
<path fill="none" stroke="#ff0000" stroke-width=".1835" d="M287.1872,-159.9122C293.081,-155.5056 300.7059,-150.5551 308.3285,-147.7229 427.5945,-103.4095 487.9715,-184.5079 592.3285,-111.7229 601.6335,-105.233 608.1608,-94.8196 612.6331,-84.7323"/>
<polygon fill="#ff0000" stroke="#ff0000" stroke-width=".1835" points="615.9392,-85.8879 616.3148,-75.2997 609.4183,-83.3426 615.9392,-85.8879"/>
</g>
<!-- E_agent&#45;&gt;no_turn -->
<g id="edge63" class="edge">
<title>E_agent&#45;&gt;no_turn</title>
<path fill="none" stroke="#00ff00" stroke-width=".1982" d="M271.3366,-159.6827C263.4993,-145.1547 247.8853,-116.2114 235.13,-92.567"/>
<polygon fill="#00ff00" stroke="#00ff00" stroke-width=".1982" points="238.0547,-90.6167 230.2264,-83.4774 231.894,-93.9402 238.0547,-90.6167"/>
</g>
<!-- E_agent&#45;&gt;counterclockwise -->
<g id="edge2" class="edge">
<title>E_agent&#45;&gt;counterclockwise</title>
<path fill="none" stroke="#ff0000" stroke-width=".1754" d="M287.1404,-159.7821C293.0214,-155.3399 300.6489,-150.3967 308.3285,-147.7229 486.9346,-85.5362 557.9382,-184.9029 732.3285,-111.7229 738.5049,-109.1311 744.5189,-105.7235 750.2368,-101.8672"/>
<polygon fill="#ff0000" stroke="#ff0000" stroke-width=".1754" points="752.3586,-104.6518 758.3866,-95.939 748.2408,-98.991 752.3586,-104.6518"/>
</g>
<!-- E_agent&#45;&gt;clockwise -->
<g id="edge16" class="edge">
<title>E_agent&#45;&gt;clockwise</title>
<path fill="none" stroke="#ff0000" stroke-width=".4509" d="M285.8672,-159.716C297.4399,-148.4867 317.4923,-128.8898 334.3285,-111.7229 341.0653,-104.8538 348.203,-97.432 354.9838,-90.3112"/>
<polygon fill="#ff0000" stroke="#ff0000" stroke-width=".4509" points="357.8211,-92.4058 362.1658,-82.7428 352.7434,-87.5874 357.8211,-92.4058"/>
</g>
<!-- E_lm -->
<g id="node10" class="node">
<title>E_lm</title>
<polygon fill="#d3d3d3" stroke="#000000" points="524.3285,-177.9361 488.3285,-177.9361 488.3285,-159.9361 524.3285,-159.9361 524.3285,-177.9361"/>
<text text-anchor="middle" x="506.3285" y="-166.7361" font-family="Times,serif" font-size="9.00" fill="#000000">E_lm</text>
</g>
<!-- E_lm&#45;&gt;no_move -->
<g id="edge32" class="edge">
<title>E_lm&#45;&gt;no_move</title>
<path fill="none" stroke="#00ff00" stroke-width=".3265" d="M509.7656,-159.6827C514.6976,-146.4043 524.1026,-121.0838 532.3895,-98.7733"/>
<polygon fill="#00ff00" stroke="#00ff00" stroke-width=".3265" points="535.7759,-99.7081 535.9769,-89.1152 529.2139,-97.2708 535.7759,-99.7081"/>
</g>
<!-- E_lm&#45;&gt;no_turn -->
<g id="edge18" class="edge">
<title>E_lm&#45;&gt;no_turn</title>
<path fill="none" stroke="#ff0000" stroke-width=".1734" d="M497.0991,-159.7964C492.2065,-155.4711 485.8653,-150.6284 479.3285,-147.7229 393.1969,-109.4385 353.8522,-155.4051 270.3285,-111.7229 259.3048,-105.9575 249.1413,-97.1876 240.6293,-88.2937"/>
<polygon fill="#ff0000" stroke="#ff0000" stroke-width=".1734" points="243.1953,-85.9131 233.8849,-80.8569 238.0101,-90.6156 243.1953,-85.9131"/>
</g>
<!-- E_lm&#45;&gt;counterclockwise -->
<g id="edge37" class="edge">
<title>E_lm&#45;&gt;counterclockwise</title>
<path fill="none" stroke="#ff0000" stroke-width=".1711" d="M524.3997,-162.5246C537.3647,-158.0512 555.3019,-152.1191 571.3285,-147.7229 642.0391,-128.3265 666.7898,-144.5996 732.3285,-111.7229 738.089,-108.8332 743.761,-105.3223 749.2093,-101.483"/>
<polygon fill="#ff0000" stroke="#ff0000" stroke-width=".1711" points="751.6626,-104.0185 757.5677,-95.2218 747.4658,-98.416 751.6626,-104.0185"/>
</g>
<!-- F_agent -->
<g id="node11" class="node">
<title>F_agent</title>
<polygon fill="#d3d3d3" stroke="#000000" points="625.8285,-177.9361 580.8285,-177.9361 580.8285,-159.9361 625.8285,-159.9361 625.8285,-177.9361"/>
<text text-anchor="middle" x="603.3285" y="-166.7361" font-family="Times,serif" font-size="9.00" fill="#000000">F_agent</text>
</g>
<!-- F_agent&#45;&gt;no_move -->
<g id="edge24" class="edge">
<title>F_agent&#45;&gt;no_move</title>
<path fill="none" stroke="#ff0000" stroke-width=".4537" stroke-dasharray="1,5" d="M598.8276,-159.6827C592.1983,-146.0534 579.398,-119.7372 568.344,-97.0113"/>
<polygon fill="#ff0000" stroke="#ff0000" stroke-width=".4537" points="571.4167,-95.3266 563.8952,-87.8649 565.1218,-98.3885 571.4167,-95.3266"/>
</g>
<!-- F_agent&#45;&gt;right -->
<g id="edge20" class="edge">
<title>F_agent&#45;&gt;right</title>
<path fill="none" stroke="#ff0000" stroke-width=".2743" stroke-dasharray="1,5" d="M580.8027,-161.4275C567.1649,-157.0527 549.3643,-151.6437 533.3285,-147.7229 448.9924,-127.1024 414.2663,-158.817 341.3285,-111.7229 331.5146,-105.3863 323.4682,-95.6244 317.2863,-86.0233"/>
<polygon fill="#ff0000" stroke="#ff0000" stroke-width=".2743" points="320.2527,-84.1637 312.136,-77.3542 314.2346,-87.7391 320.2527,-84.1637"/>
</g>
<!-- F_agent&#45;&gt;left -->
<g id="edge36" class="edge">
<title>F_agent&#45;&gt;left</title>
<path fill="none" stroke="#ff0000" stroke-width=".4615" d="M604.8015,-159.6827C607.3435,-143.7141 612.6579,-110.3296 616.5772,-85.7088"/>
<polygon fill="#ff0000" stroke="#ff0000" stroke-width=".4615" points="620.0437,-86.1959 618.1593,-75.77 613.1307,-85.0954 620.0437,-86.1959"/>
</g>
<!-- F_agent&#45;&gt;backward -->
<g id="edge27" class="edge">
<title>F_agent&#45;&gt;backward</title>
<path fill="none" stroke="#ff0000" stroke-width=".1541" stroke-dasharray="1,5" d="M614.516,-159.7938C620.3781,-155.4677 627.8752,-150.6252 635.3285,-147.7229 730.5159,-110.6564 773.9347,-162.9195 862.3285,-111.7229 869.7643,-107.4162 876.4608,-101.3729 882.2764,-94.842"/>
<polygon fill="#ff0000" stroke="#ff0000" stroke-width=".1541" points="885.0522,-96.9768 888.6903,-87.0262 879.641,-92.5362 885.0522,-96.9768"/>
</g>
<!-- F_agent&#45;&gt;clockwise -->
<g id="edge48" class="edge">
<title>F_agent&#45;&gt;clockwise</title>
<path fill="none" stroke="#00ff00" stroke-width=".824" stroke-dasharray="1,5" d="M586.0175,-159.8738C552.2306,-142.1866 476.653,-102.6223 429.061,-77.7081"/>
<polygon fill="#00ff00" stroke="#00ff00" stroke-width=".824" points="430.4191,-74.4685 419.9364,-72.9314 427.1726,-80.6702 430.4191,-74.4685"/>
</g>
<!-- F_lm -->
<g id="node12" class="node">
<title>F_lm</title>
<polygon fill="#d3d3d3" stroke="#000000" points="977.3285,-177.9361 941.3285,-177.9361 941.3285,-159.9361 977.3285,-159.9361 977.3285,-177.9361"/>
<text text-anchor="middle" x="959.3285" y="-166.7361" font-family="Times,serif" font-size="9.00" fill="#000000">F_lm</text>
</g>
<!-- F_lm&#45;&gt;forward -->
<g id="edge56" class="edge">
<title>F_lm&#45;&gt;forward</title>
<path fill="none" stroke="#ff0000" stroke-width=".5071" d="M950.0898,-159.8172C945.1948,-155.4972 938.8544,-150.6529 932.3285,-147.7229 849.9352,-110.7286 808.9526,-159.5349 732.3285,-111.7229 724.6261,-106.9167 717.9019,-100.0895 712.2484,-92.8506"/>
<polygon fill="#ff0000" stroke="#ff0000" stroke-width=".5071" points="714.7712,-90.3609 706.1092,-84.26 709.076,-94.431 714.7712,-90.3609"/>
</g>
<!-- F_lm&#45;&gt;backward -->
<g id="edge3" class="edge">
<title>F_lm&#45;&gt;backward</title>
<path fill="none" stroke="#ff0000" stroke-width=".8636" stroke-dasharray="1,5" d="M955.0731,-159.6827C948.9182,-146.2986 937.1368,-120.6799 926.8178,-98.2411"/>
<polygon fill="#ff0000" stroke="#ff0000" stroke-width=".8636" points="929.8636,-96.4871 922.5056,-88.8641 923.5039,-99.4118 929.8636,-96.4871"/>
</g>
<!-- F_lm&#45;&gt;no_turn -->
<g id="edge43" class="edge">
<title>F_lm&#45;&gt;no_turn</title>
<path fill="none" stroke="#ff0000" stroke-width=".3518" d="M950.7135,-159.9102C945.7971,-155.3862 939.2462,-150.3278 932.3285,-147.7229 794.4513,-95.8041 404.6264,-172.3013 270.3285,-111.7229 258.8916,-106.5639 248.5594,-97.8766 240.0195,-88.871"/>
<polygon fill="#ff0000" stroke="#ff0000" stroke-width=".3518" points="242.5456,-86.4448 233.2826,-81.302 237.3167,-91.0987 242.5456,-86.4448"/>
</g>
<!-- F_lm&#45;&gt;counterclockwise -->
<g id="edge50" class="edge">
<title>F_lm&#45;&gt;counterclockwise</title>
<path fill="none" stroke="#00ff00" stroke-width=".46" d="M948.6444,-159.7736C943.8182,-155.8395 937.9478,-151.3284 932.3285,-147.7229 902.8842,-128.8302 891.3502,-131.2585 862.3285,-111.7229 857.0633,-108.1786 851.748,-104.2645 846.5455,-100.2023"/>
<polygon fill="#00ff00" stroke="#00ff00" stroke-width=".46" points="848.4747,-97.2626 838.4866,-93.7286 844.0909,-102.7199 848.4747,-97.2626"/>
</g>
<!-- G_agent -->
<g id="node13" class="node">
<title>G_agent</title>
<polygon fill="#d3d3d3" stroke="#000000" points="802.8285,-177.9361 755.8285,-177.9361 755.8285,-159.9361 802.8285,-159.9361 802.8285,-177.9361"/>
<text text-anchor="middle" x="779.3285" y="-166.7361" font-family="Times,serif" font-size="9.00" fill="#000000">G_agent</text>
</g>
<!-- G_agent&#45;&gt;no_move -->
<g id="edge33" class="edge">
<title>G_agent&#45;&gt;no_move</title>
<path fill="none" stroke="#00ff00" stroke-width=".6122" d="M767.7544,-159.802C761.915,-155.5851 754.5518,-150.8349 747.3285,-147.7229 682.3777,-119.7395 652.0252,-149.6436 592.3285,-111.7229 585.0634,-107.1079 578.492,-100.8634 572.7753,-94.2193"/>
<polygon fill="#00ff00" stroke="#00ff00" stroke-width=".6122" points="575.4385,-91.9452 566.4667,-86.3098 569.966,-96.3101 575.4385,-91.9452"/>
</g>
<!-- G_agent&#45;&gt;left -->
<g id="edge39" class="edge">
<title>G_agent&#45;&gt;left</title>
<path fill="none" stroke="#00ff00" stroke-width=".211" d="M766.966,-159.7751C761.1884,-155.7501 754.1018,-151.1668 747.3285,-147.7229 706.3384,-126.8812 684.7885,-142.1708 650.3285,-111.7229 642.0375,-104.3972 635.7685,-94.128 631.2189,-84.3896"/>
<polygon fill="#00ff00" stroke="#00ff00" stroke-width=".211" points="634.3489,-82.8048 627.2313,-74.9569 627.9013,-85.5305 634.3489,-82.8048"/>
</g>
<!-- G_agent&#45;&gt;backward -->
<g id="edge1" class="edge">
<title>G_agent&#45;&gt;backward</title>
<path fill="none" stroke="#00ff00" stroke-width=".2727" stroke-dasharray="1,5" d="M793.5368,-159.8558C814.0349,-146.6364 850.7189,-122.4971 862.3285,-111.7229 868.2975,-106.1834 874.1532,-99.8291 879.5641,-93.4377"/>
<polygon fill="#00ff00" stroke="#00ff00" stroke-width=".2727" points="882.5323,-95.3369 886.1549,-85.3806 877.1142,-90.9047 882.5323,-95.3369"/>
</g>
<!-- G_agent&#45;&gt;no_turn -->
<g id="edge30" class="edge">
<title>G_agent&#45;&gt;no_turn</title>
<path fill="none" stroke="#00ff00" stroke-width=".1632" d="M768.5269,-159.7525C762.6487,-155.3021 755.0206,-150.3607 747.3285,-147.7229 546.2223,-78.7572 463.199,-201.1711 270.3285,-111.7229 259.0428,-106.4889 248.8045,-97.8708 240.3044,-88.9526"/>
<polygon fill="#00ff00" stroke="#00ff00" stroke-width=".1632" points="242.8687,-86.5696 233.5883,-81.4584 237.6557,-91.2414 242.8687,-86.5696"/>
</g>
<!-- G_agent&#45;&gt;counterclockwise -->
<g id="edge54" class="edge">
<title>G_agent&#45;&gt;counterclockwise</title>
<path fill="none" stroke="#ff0000" stroke-width=".111" stroke-dasharray="1,5" d="M780.8015,-159.6827C782.2204,-150.7696 784.503,-136.4306 786.9246,-121.2182"/>
<polygon fill="#ff0000" stroke="#ff0000" stroke-width=".111" points="790.4126,-121.5695 788.5283,-111.1436 783.4997,-120.469 790.4126,-121.5695"/>
</g>
<!-- G_lm -->
<g id="node14" class="node">
<title>G_lm</title>
<polygon fill="#d3d3d3" stroke="#000000" points="922.8285,-177.9361 885.8285,-177.9361 885.8285,-159.9361 922.8285,-159.9361 922.8285,-177.9361"/>
<text text-anchor="middle" x="904.3285" y="-166.7361" font-family="Times,serif" font-size="9.00" fill="#000000">G_lm</text>
</g>
<!-- G_lm&#45;&gt;no_move -->
<g id="edge42" class="edge">
<title>G_lm&#45;&gt;no_move</title>
<path fill="none" stroke="#ff0000" stroke-width=".2597" d="M895.153,-159.6715C890.2741,-155.3143 883.9289,-150.4808 877.3285,-147.7229 759.5258,-98.4992 703.4644,-174.566 592.3285,-111.7229 584.7591,-107.4427 578.0241,-101.2888 572.2373,-94.6164"/>
<polygon fill="#ff0000" stroke="#ff0000" stroke-width=".2597" points="574.8488,-92.277 565.8865,-86.6265 569.369,-96.6327 574.8488,-92.277"/>
</g>
<!-- G_lm&#45;&gt;right -->
<g id="edge67" class="edge">
<title>G_lm&#45;&gt;right</title>
<path fill="none" stroke="#ff0000" stroke-width=".1575" d="M895.219,-159.5068C890.3569,-155.1077 884.0069,-150.2863 877.3285,-147.7229 765.8775,-104.9428 445.2714,-170.4369 341.3285,-111.7229 330.9995,-105.8883 322.7777,-96.0511 316.5974,-86.2431"/>
<polygon fill="#ff0000" stroke="#ff0000" stroke-width=".1575" points="319.5101,-84.287 311.4936,-77.3597 313.4405,-87.7741 319.5101,-84.287"/>
</g>
<!-- G_lm&#45;&gt;left -->
<g id="edge8" class="edge">
<title>G_lm&#45;&gt;left</title>
<path fill="none" stroke="#00ff00" stroke-width=".2521" d="M895.1154,-159.7596C890.2269,-155.4249 883.8845,-150.5849 877.3285,-147.7229 783.7107,-106.854 733.1911,-171.4586 650.3285,-111.7229 641.1259,-105.0887 634.6179,-94.648 630.1325,-84.5793"/>
<polygon fill="#00ff00" stroke="#00ff00" stroke-width=".2521" points="633.3504,-83.1985 626.4298,-75.1763 626.8371,-85.7633 633.3504,-83.1985"/>
</g>
<!-- G_lm&#45;&gt;forward -->
<g id="edge60" class="edge">
<title>G_lm&#45;&gt;forward</title>
<path fill="none" stroke="#ff0000" stroke-width=".1447" stroke-dasharray="1,5" d="M894.5096,-159.5669C889.6672,-155.3998 883.5411,-150.7596 877.3285,-147.7229 817.6729,-118.563 787.4854,-148.6932 732.3285,-111.7229 724.8588,-106.7161 718.2557,-99.8705 712.6499,-92.6868"/>
<polygon fill="#ff0000" stroke="#ff0000" stroke-width=".1447" points="715.2167,-90.2614 706.5352,-84.1883 709.5346,-94.3497 715.2167,-90.2614"/>
</g>
<!-- G_lm&#45;&gt;backward -->
<g id="edge19" class="edge">
<title>G_lm&#45;&gt;backward</title>
<path fill="none" stroke="#ff0000" stroke-width=".2702" d="M904.574,-159.6827C904.9071,-147.1269 905.5259,-123.8038 906.0927,-102.4398"/>
<polygon fill="#ff0000" stroke="#ff0000" stroke-width=".2702" points="909.5988,-102.2545 906.3653,-92.1652 902.6013,-102.0688 909.5988,-102.2545"/>
</g>
<!-- G_lm&#45;&gt;counterclockwise -->
<g id="edge47" class="edge">
<title>G_lm&#45;&gt;counterclockwise</title>
<path fill="none" stroke="#ff0000" stroke-width=".1332" d="M895.5723,-159.6827C883.9639,-147.4153 862.6296,-124.8698 842.8007,-103.9152"/>
<polygon fill="#ff0000" stroke="#ff0000" stroke-width=".1332" points="845.2837,-101.447 835.8682,-96.5891 840.1993,-106.2583 845.2837,-101.447"/>
</g>
<!-- H_agent -->
<g id="node15" class="node">
<title>H_agent</title>
<polygon fill="#d3d3d3" stroke="#000000" points="867.8285,-177.9361 820.8285,-177.9361 820.8285,-159.9361 867.8285,-159.9361 867.8285,-177.9361"/>
<text text-anchor="middle" x="844.3285" y="-166.7361" font-family="Times,serif" font-size="9.00" fill="#000000">H_agent</text>
</g>
<!-- H_agent&#45;&gt;no_move -->
<g id="edge40" class="edge">
<title>H_agent&#45;&gt;no_move</title>
<path fill="none" stroke="#ff0000" stroke-width=".7274" d="M833.135,-159.8093C827.2713,-155.4872 819.7747,-150.6436 812.3285,-147.7229 720.092,-111.544 677.6677,-162.0589 592.3285,-111.7229 584.915,-107.3501 578.2761,-101.216 572.5397,-94.6041"/>
<polygon fill="#ff0000" stroke="#ff0000" stroke-width=".7274" points="575.2029,-92.3302 566.2279,-86.6999 569.7329,-96.6982 575.2029,-92.3302"/>
</g>
<!-- H_agent&#45;&gt;left -->
<g id="edge44" class="edge">
<title>H_agent&#45;&gt;left</title>
<path fill="none" stroke="#00ff00" stroke-width=".302" stroke-dasharray="1,5" d="M832.7672,-159.772C826.9309,-155.5479 819.5666,-150.8004 812.3285,-147.7229 744.453,-118.8627 708.8069,-156.6704 650.3285,-111.7229 641.3995,-104.8599 634.9597,-94.4689 630.452,-84.503"/>
<polygon fill="#00ff00" stroke="#00ff00" stroke-width=".302" points="633.6896,-83.173 626.7041,-75.2073 627.1974,-85.7906 633.6896,-83.173"/>
</g>
<!-- H_agent&#45;&gt;counterclockwise -->
<g id="edge14" class="edge">
<title>H_agent&#45;&gt;counterclockwise</title>
<path fill="none" stroke="#00ff00" stroke-width=".2259" d="M840.4823,-159.6827C836.4312,-149.9364 829.6834,-133.7023 822.7131,-116.9328"/>
<polygon fill="#00ff00" stroke="#00ff00" stroke-width=".2259" points="825.9037,-115.4898 818.8335,-107.5991 819.4399,-118.1766 825.9037,-115.4898"/>
</g>
<!-- &#45;16 -->
<g id="node16" class="node">
<title>&#45;16</title>
<polygon fill="#d3d3d3" stroke="#000000" points="672.3285,-177.9361 644.3285,-177.9361 644.3285,-159.9361 672.3285,-159.9361 672.3285,-177.9361"/>
<text text-anchor="middle" x="658.3285" y="-166.7361" font-family="Times,serif" font-size="9.00" fill="#000000">&#45;16</text>
</g>
<!-- &#45;16&#45;&gt;no_move -->
<g id="edge15" class="edge">
<title>&#45;16&#45;&gt;no_move</title>
<path fill="none" stroke="#00ff00" stroke-width=".2104" d="M648.5737,-159.7471C644.5173,-155.9764 639.7352,-151.5957 635.3285,-147.7229 616.6068,-131.269 609.6879,-129.6083 592.3285,-111.7229 586.6456,-105.8678 580.9643,-99.3125 575.6625,-92.8088"/>
<polygon fill="#00ff00" stroke="#00ff00" stroke-width=".2104" points="578.1419,-90.3034 569.1783,-84.6551 572.6631,-94.6604 578.1419,-90.3034"/>
</g>
<!-- &#45;16&#45;&gt;left -->
<g id="edge61" class="edge">
<title>&#45;16&#45;&gt;left</title>
<path fill="none" stroke="#00ff00" stroke-width=".3785" d="M655.3007,-159.6827C649.9915,-143.4574 638.7987,-109.2516 630.7088,-84.5283"/>
<polygon fill="#00ff00" stroke="#00ff00" stroke-width=".3785" points="634.0016,-83.3368 627.5652,-74.9211 627.3487,-85.5138 634.0016,-83.3368"/>
</g>
<!-- &#45;16&#45;&gt;forward -->
<g id="edge9" class="edge">
<title>&#45;16&#45;&gt;forward</title>
<path fill="none" stroke="#00ff00" stroke-width=".1305" d="M661.0291,-159.6827C665.0249,-145.9908 672.7575,-119.495 679.4106,-96.6982"/>
<polygon fill="#00ff00" stroke="#00ff00" stroke-width=".1305" points="682.8359,-97.4542 682.2777,-86.8741 676.1162,-95.493 682.8359,-97.4542"/>
</g>
<!-- &#45;16&#45;&gt;clockwise -->
<g id="edge13" class="edge">
<title>&#45;16&#45;&gt;clockwise</title>
<path fill="none" stroke="#00ff00" stroke-width=".3787" d="M650.1596,-159.5854C646.0773,-155.4224 640.8383,-150.7803 635.3285,-147.7229 582.5316,-118.4258 560.906,-132.8134 504.3285,-111.7229 478.6764,-102.1605 450.9898,-89.0753 428.992,-77.9731"/>
<polygon fill="#00ff00" stroke="#00ff00" stroke-width=".3787" points="430.4336,-74.7794 419.9353,-73.3524 427.2523,-81.0147 430.4336,-74.7794"/>
</g>
<!-- 166&#45;&gt;no_move -->
<g id="edge66" class="edge">
<title>166&#45;&gt;no_move</title>
<path fill="none" stroke="#00ff00" stroke-width=".8706" stroke-dasharray="1,5" d="M463.5128,-152.7352C477.7355,-136.4905 500.0746,-110.9755 518.2568,-90.2084"/>
<polygon fill="#00ff00" stroke="#00ff00" stroke-width=".8706" points="521.0422,-92.3403 524.9962,-82.5109 515.7755,-87.7291 521.0422,-92.3403"/>
</g>
</g>
</svg>
