<?xml version="1.0" encoding="utf-8" standalone="no"?>
<!DOCTYPE svg PUBLIC "-//W3C//DTD SVG 1.1//EN"
  "http://www.w3.org/Graphics/SVG/1.1/DTD/svg11.dtd">
<!-- Created with matplotlib (https://matplotlib.org/) -->
<svg height="345.6pt" version="1.1" viewBox="0 0 460.8 345.6" width="460.8pt" xmlns="http://www.w3.org/2000/svg" xmlns:xlink="http://www.w3.org/1999/xlink">
 <metadata>
  <rdf:RDF xmlns:cc="http://creativecommons.org/ns#" xmlns:dc="http://purl.org/dc/elements/1.1/" xmlns:rdf="http://www.w3.org/1999/02/22-rdf-syntax-ns#">
   <cc:Work>
    <dc:type rdf:resource="http://purl.org/dc/dcmitype/StillImage"/>
    <dc:date>2021-04-15T07:57:13.456122</dc:date>
    <dc:format>image/svg+xml</dc:format>
    <dc:creator>
     <cc:Agent>
      <dc:title>Matplotlib v3.3.4, https://matplotlib.org/</dc:title>
     </cc:Agent>
    </dc:creator>
   </cc:Work>
  </rdf:RDF>
 </metadata>
 <defs>
  <style type="text/css">*{stroke-linecap:butt;stroke-linejoin:round;}</style>
 </defs>
 <g id="figure_1">
  <g id="patch_1">
   <path d="M 0 345.6 
L 460.8 345.6 
L 460.8 0 
L 0 0 
z
" style="fill:#ffffff;"/>
  </g>
  <g id="axes_1">
   <g id="patch_2">
    <path d="M 57.6 307.584 
L 414.72 307.584 
L 414.72 41.472 
L 57.6 41.472 
z
" style="fill:#ffffff;"/>
   </g>
   <g id="matplotlib.axis_1">
    <g id="xtick_1">
     <g id="line2d_1">
      <path clip-path="url(#p133c20d585)" d="M 73.832727 307.584 
L 73.832727 41.472 
" style="fill:none;stroke:#b0b0b0;stroke-linecap:square;stroke-width:0.8;"/>
     </g>
     <g id="line2d_2">
      <defs>
       <path d="M 0 0 
L 0 3.5 
" id="ma458eb0965" style="stroke:#000000;stroke-width:0.8;"/>
      </defs>
      <g>
       <use style="stroke:#000000;stroke-width:0.8;" x="73.832727" xlink:href="#ma458eb0965" y="307.584"/>
      </g>
     </g>
     <g id="text_1">
      <!-- 0 -->
      <g transform="translate(70.651477 322.182437)scale(0.1 -0.1)">
       <defs>
        <path d="M 31.78125 66.40625 
Q 24.171875 66.40625 20.328125 58.90625 
Q 16.5 51.421875 16.5 36.375 
Q 16.5 21.390625 20.328125 13.890625 
Q 24.171875 6.390625 31.78125 6.390625 
Q 39.453125 6.390625 43.28125 13.890625 
Q 47.125 21.390625 47.125 36.375 
Q 47.125 51.421875 43.28125 58.90625 
Q 39.453125 66.40625 31.78125 66.40625 
z
M 31.78125 74.21875 
Q 44.046875 74.21875 50.515625 64.515625 
Q 56.984375 54.828125 56.984375 36.375 
Q 56.984375 17.96875 50.515625 8.265625 
Q 44.046875 -1.421875 31.78125 -1.421875 
Q 19.53125 -1.421875 13.0625 8.265625 
Q 6.59375 17.96875 6.59375 36.375 
Q 6.59375 54.828125 13.0625 64.515625 
Q 19.53125 74.21875 31.78125 74.21875 
z
" id="DejaVuSans-48"/>
       </defs>
       <use xlink:href="#DejaVuSans-48"/>
      </g>
     </g>
    </g>
    <g id="xtick_2">
     <g id="line2d_3">
      <path clip-path="url(#p133c20d585)" d="M 153.113447 307.584 
L 153.113447 41.472 
" style="fill:none;stroke:#b0b0b0;stroke-linecap:square;stroke-width:0.8;"/>
     </g>
     <g id="line2d_4">
      <g>
       <use style="stroke:#000000;stroke-width:0.8;" x="153.113447" xlink:href="#ma458eb0965" y="307.584"/>
      </g>
     </g>
     <g id="text_2">
      <!-- 200 -->
      <g transform="translate(143.569697 322.182437)scale(0.1 -0.1)">
       <defs>
        <path d="M 19.1875 8.296875 
L 53.609375 8.296875 
L 53.609375 0 
L 7.328125 0 
L 7.328125 8.296875 
Q 12.9375 14.109375 22.625 23.890625 
Q 32.328125 33.6875 34.8125 36.53125 
Q 39.546875 41.84375 41.421875 45.53125 
Q 43.3125 49.21875 43.3125 52.78125 
Q 43.3125 58.59375 39.234375 62.25 
Q 35.15625 65.921875 28.609375 65.921875 
Q 23.96875 65.921875 18.8125 64.3125 
Q 13.671875 62.703125 7.8125 59.421875 
L 7.8125 69.390625 
Q 13.765625 71.78125 18.9375 73 
Q 24.125 74.21875 28.421875 74.21875 
Q 39.75 74.21875 46.484375 68.546875 
Q 53.21875 62.890625 53.21875 53.421875 
Q 53.21875 48.921875 51.53125 44.890625 
Q 49.859375 40.875 45.40625 35.40625 
Q 44.1875 33.984375 37.640625 27.21875 
Q 31.109375 20.453125 19.1875 8.296875 
z
" id="DejaVuSans-50"/>
       </defs>
       <use xlink:href="#DejaVuSans-50"/>
       <use x="63.623047" xlink:href="#DejaVuSans-48"/>
       <use x="127.246094" xlink:href="#DejaVuSans-48"/>
      </g>
     </g>
    </g>
    <g id="xtick_3">
     <g id="line2d_5">
      <path clip-path="url(#p133c20d585)" d="M 232.394166 307.584 
L 232.394166 41.472 
" style="fill:none;stroke:#b0b0b0;stroke-linecap:square;stroke-width:0.8;"/>
     </g>
     <g id="line2d_6">
      <g>
       <use style="stroke:#000000;stroke-width:0.8;" x="232.394166" xlink:href="#ma458eb0965" y="307.584"/>
      </g>
     </g>
     <g id="text_3">
      <!-- 400 -->
      <g transform="translate(222.850416 322.182437)scale(0.1 -0.1)">
       <defs>
        <path d="M 37.796875 64.3125 
L 12.890625 25.390625 
L 37.796875 25.390625 
z
M 35.203125 72.90625 
L 47.609375 72.90625 
L 47.609375 25.390625 
L 58.015625 25.390625 
L 58.015625 17.1875 
L 47.609375 17.1875 
L 47.609375 0 
L 37.796875 0 
L 37.796875 17.1875 
L 4.890625 17.1875 
L 4.890625 26.703125 
z
" id="DejaVuSans-52"/>
       </defs>
       <use xlink:href="#DejaVuSans-52"/>
       <use x="63.623047" xlink:href="#DejaVuSans-48"/>
       <use x="127.246094" xlink:href="#DejaVuSans-48"/>
      </g>
     </g>
    </g>
    <g id="xtick_4">
     <g id="line2d_7">
      <path clip-path="url(#p133c20d585)" d="M 311.674885 307.584 
L 311.674885 41.472 
" style="fill:none;stroke:#b0b0b0;stroke-linecap:square;stroke-width:0.8;"/>
     </g>
     <g id="line2d_8">
      <g>
       <use style="stroke:#000000;stroke-width:0.8;" x="311.674885" xlink:href="#ma458eb0965" y="307.584"/>
      </g>
     </g>
     <g id="text_4">
      <!-- 600 -->
      <g transform="translate(302.131135 322.182437)scale(0.1 -0.1)">
       <defs>
        <path d="M 33.015625 40.375 
Q 26.375 40.375 22.484375 35.828125 
Q 18.609375 31.296875 18.609375 23.390625 
Q 18.609375 15.53125 22.484375 10.953125 
Q 26.375 6.390625 33.015625 6.390625 
Q 39.65625 6.390625 43.53125 10.953125 
Q 47.40625 15.53125 47.40625 23.390625 
Q 47.40625 31.296875 43.53125 35.828125 
Q 39.65625 40.375 33.015625 40.375 
z
M 52.59375 71.296875 
L 52.59375 62.3125 
Q 48.875 64.0625 45.09375 64.984375 
Q 41.3125 65.921875 37.59375 65.921875 
Q 27.828125 65.921875 22.671875 59.328125 
Q 17.53125 52.734375 16.796875 39.40625 
Q 19.671875 43.65625 24.015625 45.921875 
Q 28.375 48.1875 33.59375 48.1875 
Q 44.578125 48.1875 50.953125 41.515625 
Q 57.328125 34.859375 57.328125 23.390625 
Q 57.328125 12.15625 50.6875 5.359375 
Q 44.046875 -1.421875 33.015625 -1.421875 
Q 20.359375 -1.421875 13.671875 8.265625 
Q 6.984375 17.96875 6.984375 36.375 
Q 6.984375 53.65625 15.1875 63.9375 
Q 23.390625 74.21875 37.203125 74.21875 
Q 40.921875 74.21875 44.703125 73.484375 
Q 48.484375 72.75 52.59375 71.296875 
z
" id="DejaVuSans-54"/>
       </defs>
       <use xlink:href="#DejaVuSans-54"/>
       <use x="63.623047" xlink:href="#DejaVuSans-48"/>
       <use x="127.246094" xlink:href="#DejaVuSans-48"/>
      </g>
     </g>
    </g>
    <g id="xtick_5">
     <g id="line2d_9">
      <path clip-path="url(#p133c20d585)" d="M 390.955604 307.584 
L 390.955604 41.472 
" style="fill:none;stroke:#b0b0b0;stroke-linecap:square;stroke-width:0.8;"/>
     </g>
     <g id="line2d_10">
      <g>
       <use style="stroke:#000000;stroke-width:0.8;" x="390.955604" xlink:href="#ma458eb0965" y="307.584"/>
      </g>
     </g>
     <g id="text_5">
      <!-- 800 -->
      <g transform="translate(381.411854 322.182437)scale(0.1 -0.1)">
       <defs>
        <path d="M 31.78125 34.625 
Q 24.75 34.625 20.71875 30.859375 
Q 16.703125 27.09375 16.703125 20.515625 
Q 16.703125 13.921875 20.71875 10.15625 
Q 24.75 6.390625 31.78125 6.390625 
Q 38.8125 6.390625 42.859375 10.171875 
Q 46.921875 13.96875 46.921875 20.515625 
Q 46.921875 27.09375 42.890625 30.859375 
Q 38.875 34.625 31.78125 34.625 
z
M 21.921875 38.8125 
Q 15.578125 40.375 12.03125 44.71875 
Q 8.5 49.078125 8.5 55.328125 
Q 8.5 64.0625 14.71875 69.140625 
Q 20.953125 74.21875 31.78125 74.21875 
Q 42.671875 74.21875 48.875 69.140625 
Q 55.078125 64.0625 55.078125 55.328125 
Q 55.078125 49.078125 51.53125 44.71875 
Q 48 40.375 41.703125 38.8125 
Q 48.828125 37.15625 52.796875 32.3125 
Q 56.78125 27.484375 56.78125 20.515625 
Q 56.78125 9.90625 50.3125 4.234375 
Q 43.84375 -1.421875 31.78125 -1.421875 
Q 19.734375 -1.421875 13.25 4.234375 
Q 6.78125 9.90625 6.78125 20.515625 
Q 6.78125 27.484375 10.78125 32.3125 
Q 14.796875 37.15625 21.921875 38.8125 
z
M 18.3125 54.390625 
Q 18.3125 48.734375 21.84375 45.5625 
Q 25.390625 42.390625 31.78125 42.390625 
Q 38.140625 42.390625 41.71875 45.5625 
Q 45.3125 48.734375 45.3125 54.390625 
Q 45.3125 60.0625 41.71875 63.234375 
Q 38.140625 66.40625 31.78125 66.40625 
Q 25.390625 66.40625 21.84375 63.234375 
Q 18.3125 60.0625 18.3125 54.390625 
z
" id="DejaVuSans-56"/>
       </defs>
       <use xlink:href="#DejaVuSans-56"/>
       <use x="63.623047" xlink:href="#DejaVuSans-48"/>
       <use x="127.246094" xlink:href="#DejaVuSans-48"/>
      </g>
     </g>
    </g>
    <g id="text_6">
     <!-- Generations -->
     <g transform="translate(205.662344 335.860562)scale(0.1 -0.1)">
      <defs>
       <path d="M 59.515625 10.40625 
L 59.515625 29.984375 
L 43.40625 29.984375 
L 43.40625 38.09375 
L 69.28125 38.09375 
L 69.28125 6.78125 
Q 63.578125 2.734375 56.6875 0.65625 
Q 49.8125 -1.421875 42 -1.421875 
Q 24.90625 -1.421875 15.25 8.5625 
Q 5.609375 18.5625 5.609375 36.375 
Q 5.609375 54.25 15.25 64.234375 
Q 24.90625 74.21875 42 74.21875 
Q 49.125 74.21875 55.546875 72.453125 
Q 61.96875 70.703125 67.390625 67.28125 
L 67.390625 56.78125 
Q 61.921875 61.421875 55.765625 63.765625 
Q 49.609375 66.109375 42.828125 66.109375 
Q 29.4375 66.109375 22.71875 58.640625 
Q 16.015625 51.171875 16.015625 36.375 
Q 16.015625 21.625 22.71875 14.15625 
Q 29.4375 6.6875 42.828125 6.6875 
Q 48.046875 6.6875 52.140625 7.59375 
Q 56.25 8.5 59.515625 10.40625 
z
" id="DejaVuSans-71"/>
       <path d="M 56.203125 29.59375 
L 56.203125 25.203125 
L 14.890625 25.203125 
Q 15.484375 15.921875 20.484375 11.0625 
Q 25.484375 6.203125 34.421875 6.203125 
Q 39.59375 6.203125 44.453125 7.46875 
Q 49.3125 8.734375 54.109375 11.28125 
L 54.109375 2.78125 
Q 49.265625 0.734375 44.1875 -0.34375 
Q 39.109375 -1.421875 33.890625 -1.421875 
Q 20.796875 -1.421875 13.15625 6.1875 
Q 5.515625 13.8125 5.515625 26.8125 
Q 5.515625 40.234375 12.765625 48.109375 
Q 20.015625 56 32.328125 56 
Q 43.359375 56 49.78125 48.890625 
Q 56.203125 41.796875 56.203125 29.59375 
z
M 47.21875 32.234375 
Q 47.125 39.59375 43.09375 43.984375 
Q 39.0625 48.390625 32.421875 48.390625 
Q 24.90625 48.390625 20.390625 44.140625 
Q 15.875 39.890625 15.1875 32.171875 
z
" id="DejaVuSans-101"/>
       <path d="M 54.890625 33.015625 
L 54.890625 0 
L 45.90625 0 
L 45.90625 32.71875 
Q 45.90625 40.484375 42.875 44.328125 
Q 39.84375 48.1875 33.796875 48.1875 
Q 26.515625 48.1875 22.3125 43.546875 
Q 18.109375 38.921875 18.109375 30.90625 
L 18.109375 0 
L 9.078125 0 
L 9.078125 54.6875 
L 18.109375 54.6875 
L 18.109375 46.1875 
Q 21.34375 51.125 25.703125 53.5625 
Q 30.078125 56 35.796875 56 
Q 45.21875 56 50.046875 50.171875 
Q 54.890625 44.34375 54.890625 33.015625 
z
" id="DejaVuSans-110"/>
       <path d="M 41.109375 46.296875 
Q 39.59375 47.171875 37.8125 47.578125 
Q 36.03125 48 33.890625 48 
Q 26.265625 48 22.1875 43.046875 
Q 18.109375 38.09375 18.109375 28.8125 
L 18.109375 0 
L 9.078125 0 
L 9.078125 54.6875 
L 18.109375 54.6875 
L 18.109375 46.1875 
Q 20.953125 51.171875 25.484375 53.578125 
Q 30.03125 56 36.53125 56 
Q 37.453125 56 38.578125 55.875 
Q 39.703125 55.765625 41.0625 55.515625 
z
" id="DejaVuSans-114"/>
       <path d="M 34.28125 27.484375 
Q 23.390625 27.484375 19.1875 25 
Q 14.984375 22.515625 14.984375 16.5 
Q 14.984375 11.71875 18.140625 8.90625 
Q 21.296875 6.109375 26.703125 6.109375 
Q 34.1875 6.109375 38.703125 11.40625 
Q 43.21875 16.703125 43.21875 25.484375 
L 43.21875 27.484375 
z
M 52.203125 31.203125 
L 52.203125 0 
L 43.21875 0 
L 43.21875 8.296875 
Q 40.140625 3.328125 35.546875 0.953125 
Q 30.953125 -1.421875 24.3125 -1.421875 
Q 15.921875 -1.421875 10.953125 3.296875 
Q 6 8.015625 6 15.921875 
Q 6 25.140625 12.171875 29.828125 
Q 18.359375 34.515625 30.609375 34.515625 
L 43.21875 34.515625 
L 43.21875 35.40625 
Q 43.21875 41.609375 39.140625 45 
Q 35.0625 48.390625 27.6875 48.390625 
Q 23 48.390625 18.546875 47.265625 
Q 14.109375 46.140625 10.015625 43.890625 
L 10.015625 52.203125 
Q 14.9375 54.109375 19.578125 55.046875 
Q 24.21875 56 28.609375 56 
Q 40.484375 56 46.34375 49.84375 
Q 52.203125 43.703125 52.203125 31.203125 
z
" id="DejaVuSans-97"/>
       <path d="M 18.3125 70.21875 
L 18.3125 54.6875 
L 36.8125 54.6875 
L 36.8125 47.703125 
L 18.3125 47.703125 
L 18.3125 18.015625 
Q 18.3125 11.328125 20.140625 9.421875 
Q 21.96875 7.515625 27.59375 7.515625 
L 36.8125 7.515625 
L 36.8125 0 
L 27.59375 0 
Q 17.1875 0 13.234375 3.875 
Q 9.28125 7.765625 9.28125 18.015625 
L 9.28125 47.703125 
L 2.6875 47.703125 
L 2.6875 54.6875 
L 9.28125 54.6875 
L 9.28125 70.21875 
z
" id="DejaVuSans-116"/>
       <path d="M 9.421875 54.6875 
L 18.40625 54.6875 
L 18.40625 0 
L 9.421875 0 
z
M 9.421875 75.984375 
L 18.40625 75.984375 
L 18.40625 64.59375 
L 9.421875 64.59375 
z
" id="DejaVuSans-105"/>
       <path d="M 30.609375 48.390625 
Q 23.390625 48.390625 19.1875 42.75 
Q 14.984375 37.109375 14.984375 27.296875 
Q 14.984375 17.484375 19.15625 11.84375 
Q 23.34375 6.203125 30.609375 6.203125 
Q 37.796875 6.203125 41.984375 11.859375 
Q 46.1875 17.53125 46.1875 27.296875 
Q 46.1875 37.015625 41.984375 42.703125 
Q 37.796875 48.390625 30.609375 48.390625 
z
M 30.609375 56 
Q 42.328125 56 49.015625 48.375 
Q 55.71875 40.765625 55.71875 27.296875 
Q 55.71875 13.875 49.015625 6.21875 
Q 42.328125 -1.421875 30.609375 -1.421875 
Q 18.84375 -1.421875 12.171875 6.21875 
Q 5.515625 13.875 5.515625 27.296875 
Q 5.515625 40.765625 12.171875 48.375 
Q 18.84375 56 30.609375 56 
z
" id="DejaVuSans-111"/>
       <path d="M 44.28125 53.078125 
L 44.28125 44.578125 
Q 40.484375 46.53125 36.375 47.5 
Q 32.28125 48.484375 27.875 48.484375 
Q 21.1875 48.484375 17.84375 46.4375 
Q 14.5 44.390625 14.5 40.28125 
Q 14.5 37.15625 16.890625 35.375 
Q 19.28125 33.59375 26.515625 31.984375 
L 29.59375 31.296875 
Q 39.15625 29.25 43.1875 25.515625 
Q 47.21875 21.78125 47.21875 15.09375 
Q 47.21875 7.46875 41.1875 3.015625 
Q 35.15625 -1.421875 24.609375 -1.421875 
Q 20.21875 -1.421875 15.453125 -0.5625 
Q 10.6875 0.296875 5.421875 2 
L 5.421875 11.28125 
Q 10.40625 8.6875 15.234375 7.390625 
Q 20.0625 6.109375 24.8125 6.109375 
Q 31.15625 6.109375 34.5625 8.28125 
Q 37.984375 10.453125 37.984375 14.40625 
Q 37.984375 18.0625 35.515625 20.015625 
Q 33.0625 21.96875 24.703125 23.78125 
L 21.578125 24.515625 
Q 13.234375 26.265625 9.515625 29.90625 
Q 5.8125 33.546875 5.8125 39.890625 
Q 5.8125 47.609375 11.28125 51.796875 
Q 16.75 56 26.8125 56 
Q 31.78125 56 36.171875 55.265625 
Q 40.578125 54.546875 44.28125 53.078125 
z
" id="DejaVuSans-115"/>
      </defs>
      <use xlink:href="#DejaVuSans-71"/>
      <use x="77.490234" xlink:href="#DejaVuSans-101"/>
      <use x="139.013672" xlink:href="#DejaVuSans-110"/>
      <use x="202.392578" xlink:href="#DejaVuSans-101"/>
      <use x="263.916016" xlink:href="#DejaVuSans-114"/>
      <use x="305.029297" xlink:href="#DejaVuSans-97"/>
      <use x="366.308594" xlink:href="#DejaVuSans-116"/>
      <use x="405.517578" xlink:href="#DejaVuSans-105"/>
      <use x="433.300781" xlink:href="#DejaVuSans-111"/>
      <use x="494.482422" xlink:href="#DejaVuSans-110"/>
      <use x="557.861328" xlink:href="#DejaVuSans-115"/>
     </g>
    </g>
   </g>
   <g id="matplotlib.axis_2">
    <g id="ytick_1">
     <g id="line2d_11">
      <path clip-path="url(#p133c20d585)" d="M 57.6 233.935194 
L 414.72 233.935194 
" style="fill:none;stroke:#b0b0b0;stroke-linecap:square;stroke-width:0.8;"/>
     </g>
     <g id="line2d_12">
      <defs>
       <path d="M 0 0 
L -3.5 0 
" id="m9b14307848" style="stroke:#000000;stroke-width:0.8;"/>
      </defs>
      <g>
       <use style="stroke:#000000;stroke-width:0.8;" x="57.6" xlink:href="#m9b14307848" y="233.935194"/>
      </g>
     </g>
     <g id="text_7">
      <!-- $\mathdefault{-10^{4}}$ -->
      <g transform="translate(24.6 237.734413)scale(0.1 -0.1)">
       <defs>
        <path d="M 10.59375 35.5 
L 73.1875 35.5 
L 73.1875 27.203125 
L 10.59375 27.203125 
z
" id="DejaVuSans-8722"/>
        <path d="M 12.40625 8.296875 
L 28.515625 8.296875 
L 28.515625 63.921875 
L 10.984375 60.40625 
L 10.984375 69.390625 
L 28.421875 72.90625 
L 38.28125 72.90625 
L 38.28125 8.296875 
L 54.390625 8.296875 
L 54.390625 0 
L 12.40625 0 
z
" id="DejaVuSans-49"/>
       </defs>
       <use transform="translate(0 0.684375)" xlink:href="#DejaVuSans-8722"/>
       <use transform="translate(83.789062 0.684375)" xlink:href="#DejaVuSans-49"/>
       <use transform="translate(147.412109 0.684375)" xlink:href="#DejaVuSans-48"/>
       <use transform="translate(211.992188 38.965625)scale(0.7)" xlink:href="#DejaVuSans-52"/>
      </g>
     </g>
    </g>
    <g id="text_8">
     <!-- Fitness -->
     <g transform="translate(18.520312 191.845187)rotate(-90)scale(0.1 -0.1)">
      <defs>
       <path d="M 9.8125 72.90625 
L 51.703125 72.90625 
L 51.703125 64.59375 
L 19.671875 64.59375 
L 19.671875 43.109375 
L 48.578125 43.109375 
L 48.578125 34.8125 
L 19.671875 34.8125 
L 19.671875 0 
L 9.8125 0 
z
" id="DejaVuSans-70"/>
      </defs>
      <use xlink:href="#DejaVuSans-70"/>
      <use x="50.269531" xlink:href="#DejaVuSans-105"/>
      <use x="78.052734" xlink:href="#DejaVuSans-116"/>
      <use x="117.261719" xlink:href="#DejaVuSans-110"/>
      <use x="180.640625" xlink:href="#DejaVuSans-101"/>
      <use x="242.164062" xlink:href="#DejaVuSans-115"/>
      <use x="294.263672" xlink:href="#DejaVuSans-115"/>
     </g>
    </g>
   </g>
   <g id="line2d_13">
    <path clip-path="url(#p133c20d585)" d="M 73.832727 295.488 
L 74.229131 269.156605 
L 74.625534 256.320667 
L 75.021938 253.365365 
L 75.418342 247.255753 
L 75.814745 244.626478 
L 76.211149 236.375631 
L 76.607552 230.830905 
L 77.003956 227.272989 
L 77.40036 227.584813 
L 77.796763 223.851101 
L 78.193167 223.427635 
L 78.985974 208.293204 
L 79.382378 206.605273 
L 79.778781 215.159929 
L 80.175185 215.327424 
L 80.571588 217.086116 
L 80.967992 221.601414 
L 81.364396 218.188551 
L 81.760799 217.718565 
L 82.157203 203.607724 
L 82.553606 208.912982 
L 82.95001 216.724448 
L 83.742817 212.517332 
L 84.139221 203.869875 
L 84.535624 204.40247 
L 84.932028 208.832756 
L 85.328432 202.427512 
L 85.724835 201.018781 
L 86.121239 203.396131 
L 86.517642 204.529821 
L 86.914046 198.15474 
L 87.31045 205.412503 
L 87.706853 206.689887 
L 88.103257 214.359644 
L 88.49966 209.650886 
L 88.896064 212.34975 
L 89.292468 213.641769 
L 89.688871 207.751848 
L 90.085275 203.522341 
L 90.481678 201.756677 
L 90.878082 188.107308 
L 91.274486 183.628505 
L 91.670889 204.133862 
L 92.067293 199.495105 
L 92.463696 193.54483 
L 93.256503 208.444751 
L 93.652907 206.132826 
L 94.049311 190.247002 
L 94.842118 202.769877 
L 95.238521 199.611754 
L 95.634925 201.082876 
L 96.031329 178.874504 
L 96.427732 191.766762 
L 96.824136 193.091439 
L 97.220539 189.51297 
L 97.616943 184.381067 
L 98.40975 194.457715 
L 98.806154 188.501882 
L 99.202557 192.855771 
L 99.598961 191.305583 
L 99.995365 192.193333 
L 100.391768 173.981347 
L 100.788172 189.552459 
L 101.184575 189.303333 
L 101.580979 188.169999 
L 101.977383 196.275018 
L 102.373786 192.625763 
L 102.77019 197.402104 
L 103.166593 210.038942 
L 103.562997 211.419064 
L 103.959401 197.750978 
L 104.355804 201.167898 
L 104.752208 182.770888 
L 105.545015 195.799045 
L 105.941419 198.997895 
L 106.337822 187.45602 
L 106.734226 186.446378 
L 107.130629 181.713711 
L 107.527033 201.085205 
L 107.923437 192.743625 
L 108.31984 196.72163 
L 108.716244 204.166554 
L 109.112647 191.288936 
L 109.509051 188.645434 
L 109.905455 203.617426 
L 110.301858 198.082105 
L 110.698262 199.721192 
L 111.094665 200.186372 
L 111.491069 205.642078 
L 111.887473 213.69762 
L 112.283876 194.240383 
L 112.68028 205.728514 
L 113.076683 209.626416 
L 113.473087 197.823354 
L 113.869491 195.794603 
L 114.265894 182.581172 
L 114.662298 198.521861 
L 115.058701 186.221601 
L 115.455105 203.113574 
L 115.851508 190.56668 
L 116.247912 191.993723 
L 116.644316 184.490348 
L 117.040719 199.294704 
L 117.437123 194.515876 
L 117.833526 193.089788 
L 118.22993 190.692763 
L 118.626334 202.85189 
L 119.022737 194.187816 
L 119.419141 195.383213 
L 119.815544 189.70079 
L 120.211948 205.608569 
L 120.608352 189.255053 
L 121.004755 206.436705 
L 121.401159 204.276325 
L 121.797562 199.822766 
L 122.193966 198.320154 
L 122.59037 205.451721 
L 122.986773 201.020741 
L 123.383177 195.326517 
L 123.77958 198.486476 
L 124.175984 183.879542 
L 124.572388 182.296851 
L 124.968791 194.231467 
L 125.365195 198.527523 
L 125.761598 180.399706 
L 126.158002 197.497499 
L 126.554406 186.453391 
L 126.950809 182.443046 
L 127.347213 181.658695 
L 127.743616 200.25366 
L 128.536424 181.792858 
L 128.932827 178.090745 
L 129.329231 191.271612 
L 129.725634 192.745593 
L 130.122038 182.972584 
L 130.518442 195.152294 
L 130.914845 197.650949 
L 131.311249 196.198913 
L 131.707652 167.933406 
L 132.104056 193.0997 
L 132.50046 175.9898 
L 132.896863 190.045781 
L 133.293267 189.691877 
L 133.68967 178.736921 
L 134.086074 200.601305 
L 134.482478 182.574513 
L 134.878881 173.504577 
L 135.275285 186.822412 
L 135.671688 176.902567 
L 136.068092 172.787124 
L 136.464496 185.088939 
L 136.860899 185.638485 
L 137.257303 196.727463 
L 137.653706 189.871422 
L 138.05011 187.178256 
L 138.446513 192.002826 
L 138.842917 180.012302 
L 139.239321 196.639318 
L 139.635724 200.323239 
L 140.032128 198.147951 
L 140.428531 199.025337 
L 140.824935 201.734516 
L 141.221339 205.223138 
L 141.617742 195.343009 
L 142.014146 192.206162 
L 142.410549 184.771281 
L 142.806953 194.712691 
L 143.203357 185.093695 
L 143.59976 199.344349 
L 143.996164 205.904016 
L 144.392567 194.680397 
L 144.788971 196.330166 
L 145.185375 204.749929 
L 145.581778 205.277925 
L 145.978182 195.541557 
L 146.374585 196.606112 
L 146.770989 187.388027 
L 147.167393 190.352478 
L 147.563796 190.427894 
L 147.9602 204.100577 
L 148.356603 202.250692 
L 148.753007 215.3657 
L 149.149411 198.129944 
L 149.545814 198.520579 
L 149.942218 201.176554 
L 150.338621 196.105426 
L 150.735025 200.378471 
L 151.131429 186.740286 
L 151.527832 201.082487 
L 151.924236 206.607519 
L 152.320639 190.421482 
L 153.113447 198.577281 
L 153.50985 196.966595 
L 153.906254 193.449959 
L 154.302657 215.941042 
L 154.699061 196.917503 
L 155.095465 200.052715 
L 155.491868 215.73416 
L 155.888272 208.686701 
L 156.284675 197.634855 
L 156.681079 207.184552 
L 157.077483 203.175415 
L 157.473886 205.723498 
L 157.87029 221.053573 
L 158.663097 209.872525 
L 159.0595 207.746676 
L 159.455904 198.548985 
L 159.852308 193.718988 
L 160.248711 206.115939 
L 160.645115 201.691012 
L 161.041518 193.721061 
L 161.437922 198.190864 
L 161.834326 207.492551 
L 162.230729 207.851312 
L 162.627133 193.931354 
L 163.41994 206.52777 
L 163.816344 208.704646 
L 164.212747 187.828327 
L 164.609151 177.005773 
L 165.401958 187.359342 
L 165.798362 187.877946 
L 166.591169 197.241702 
L 166.987572 185.098775 
L 167.383976 195.156644 
L 167.78038 182.460092 
L 168.176783 198.185062 
L 168.573187 176.977905 
L 168.96959 189.234508 
L 169.365994 185.26469 
L 169.762398 178.23967 
L 170.158801 187.250127 
L 170.555205 174.733257 
L 170.951608 172.598608 
L 171.348012 185.098116 
L 171.744416 193.382606 
L 172.140819 192.008627 
L 172.933626 201.473039 
L 173.33003 197.243833 
L 173.726434 205.586993 
L 174.122837 203.837474 
L 174.519241 207.297072 
L 174.915644 199.054824 
L 175.312048 202.546641 
L 175.708452 208.952701 
L 176.104855 211.417052 
L 176.501259 208.824851 
L 176.897662 209.958026 
L 177.294066 203.898277 
L 177.69047 190.001463 
L 178.086873 207.060168 
L 178.483277 198.87127 
L 178.87968 198.741402 
L 179.276084 191.66219 
L 179.672488 205.135074 
L 180.068891 191.632003 
L 180.465295 185.156005 
L 180.861698 193.91079 
L 181.258102 198.999777 
L 181.654505 183.939566 
L 182.447313 196.042261 
L 182.843716 192.444578 
L 183.24012 184.352334 
L 183.636523 198.479232 
L 184.032927 203.552714 
L 184.429331 196.009096 
L 184.825734 191.117586 
L 185.222138 190.733445 
L 185.618541 201.206234 
L 186.014945 195.967563 
L 186.411349 207.558513 
L 186.807752 206.238723 
L 187.600559 192.657797 
L 187.996963 197.591886 
L 188.393367 176.265822 
L 188.78977 190.756114 
L 189.186174 181.001918 
L 189.582577 175.799044 
L 189.978981 189.937195 
L 190.375385 181.737284 
L 190.771788 193.797476 
L 191.168192 186.107199 
L 191.564595 183.964678 
L 191.960999 180.289594 
L 192.357403 193.243522 
L 192.753806 199.892042 
L 193.15021 188.193905 
L 193.546613 197.650757 
L 193.943017 196.671116 
L 194.339421 187.600866 
L 195.132228 202.397339 
L 195.528631 188.726616 
L 195.925035 184.021211 
L 196.321439 187.434092 
L 196.717842 195.248817 
L 197.114246 189.948755 
L 197.510649 188.041393 
L 197.907053 182.11658 
L 198.303457 190.428422 
L 198.69986 185.195318 
L 199.096264 192.426451 
L 199.492667 177.338905 
L 199.889071 202.312881 
L 200.285475 199.870409 
L 200.681878 195.297601 
L 201.474685 184.53714 
L 201.871089 197.471342 
L 202.267493 206.295949 
L 202.663896 185.644492 
L 203.0603 184.913531 
L 203.456703 194.269157 
L 203.853107 190.157216 
L 204.24951 196.616703 
L 204.645914 196.925027 
L 205.042318 174.997246 
L 205.438721 173.540819 
L 205.835125 192.317517 
L 206.231528 192.763702 
L 206.627932 188.951162 
L 207.024336 177.942535 
L 207.420739 187.342939 
L 207.817143 191.628006 
L 208.213546 188.216982 
L 208.60995 186.656211 
L 209.402757 203.017988 
L 209.799161 192.6087 
L 210.195564 193.19908 
L 210.591968 203.972905 
L 210.988372 203.368645 
L 211.384775 212.817783 
L 211.781179 203.986752 
L 212.177582 200.118483 
L 212.573986 190.621132 
L 212.97039 204.058226 
L 213.366793 188.006474 
L 213.763197 194.992952 
L 214.1596 194.374854 
L 214.556004 188.561756 
L 214.952408 186.113704 
L 215.348811 186.000368 
L 215.745215 190.613617 
L 216.141618 185.516613 
L 216.538022 189.424727 
L 216.934426 199.807557 
L 217.330829 194.537666 
L 217.727233 198.638236 
L 218.123636 193.552801 
L 218.916444 204.447843 
L 219.312847 196.358638 
L 219.709251 182.837579 
L 220.105654 190.316461 
L 220.502058 205.367294 
L 220.898462 201.414765 
L 221.294865 202.931828 
L 221.691269 211.495478 
L 222.087672 204.877167 
L 222.484076 186.593654 
L 222.88048 181.150112 
L 223.276883 199.177556 
L 223.673287 199.917516 
L 224.06969 183.093998 
L 224.466094 194.516881 
L 224.862498 188.973666 
L 225.258901 189.443371 
L 225.655305 185.295658 
L 226.051708 200.489626 
L 226.448112 186.688622 
L 226.844515 192.044975 
L 227.240919 191.042435 
L 227.637323 189.165981 
L 228.033726 201.719227 
L 228.43013 198.955948 
L 228.826533 204.636346 
L 229.222937 185.596968 
L 229.619341 183.05669 
L 230.015744 183.144715 
L 230.412148 197.472435 
L 230.808551 205.259884 
L 231.204955 194.992444 
L 231.601359 196.018427 
L 231.997762 191.299612 
L 232.394166 196.323344 
L 232.790569 193.966757 
L 233.186973 189.60649 
L 233.583377 194.33939 
L 233.97978 192.397254 
L 234.376184 205.804843 
L 234.772587 190.013873 
L 235.565395 208.203893 
L 235.961798 207.069082 
L 236.358202 206.58195 
L 236.754605 190.707242 
L 237.151009 205.626973 
L 237.547413 206.767342 
L 237.943816 202.664506 
L 238.34022 189.55261 
L 238.736623 201.69426 
L 239.133027 203.632676 
L 239.529431 198.321713 
L 239.925834 184.264894 
L 240.322238 202.488074 
L 240.718641 205.176329 
L 241.115045 193.599512 
L 241.511449 177.394513 
L 241.907852 198.862961 
L 242.700659 186.607034 
L 243.097063 197.519392 
L 243.493467 203.463803 
L 244.286274 187.237381 
L 244.682677 180.141716 
L 245.079081 184.196504 
L 245.475485 182.323563 
L 245.871888 182.310858 
L 246.268292 173.281543 
L 246.664695 180.306827 
L 247.061099 176.734563 
L 247.457502 189.520407 
L 247.853906 184.795166 
L 248.25031 183.560235 
L 248.646713 199.135548 
L 249.043117 198.442025 
L 249.43952 189.792609 
L 249.835924 202.014146 
L 250.232328 195.471675 
L 250.628731 181.238811 
L 251.025135 201.576142 
L 251.421538 176.720436 
L 251.817942 178.316739 
L 252.214346 184.59634 
L 252.610749 186.448589 
L 253.007153 185.122487 
L 253.79996 194.001198 
L 254.196364 192.34745 
L 254.592767 193.301085 
L 254.989171 187.794345 
L 255.385574 184.034956 
L 255.781978 187.895845 
L 256.178382 184.669773 
L 256.971189 196.128593 
L 257.367592 196.531343 
L 257.763996 198.271799 
L 258.1604 198.118768 
L 258.556803 189.19896 
L 258.953207 193.337596 
L 260.142418 179.694661 
L 260.538821 202.11667 
L 260.935225 211.22744 
L 261.331628 196.537608 
L 261.728032 200.322604 
L 262.124436 205.591871 
L 262.520839 205.917342 
L 262.917243 206.976305 
L 263.313646 202.950298 
L 263.71005 200.418572 
L 264.106454 192.004053 
L 264.502857 205.905742 
L 264.899261 190.414536 
L 265.295664 189.593893 
L 265.692068 195.801533 
L 266.088472 192.968382 
L 266.484875 184.534712 
L 266.881279 192.605656 
L 267.277682 197.711361 
L 267.674086 180.193843 
L 268.07049 179.40046 
L 268.863297 189.218974 
L 269.2597 188.827782 
L 269.656104 184.00055 
L 270.052507 172.309519 
L 270.845315 192.022025 
L 271.241718 189.207346 
L 271.638122 189.317896 
L 272.034525 178.221517 
L 272.430929 185.669718 
L 272.827333 190.962724 
L 273.223736 191.626933 
L 273.62014 194.844895 
L 274.016543 205.972994 
L 274.809351 200.214515 
L 275.205754 191.788884 
L 275.602158 190.591195 
L 276.394965 210.513369 
L 276.791369 202.990548 
L 277.187772 201.716808 
L 277.584176 202.301038 
L 277.980579 209.655463 
L 278.773387 193.099883 
L 279.16979 208.678358 
L 279.566194 204.798442 
L 279.962597 185.355823 
L 280.359001 193.124235 
L 281.151808 210.591149 
L 281.548212 201.290328 
L 281.944615 202.922444 
L 282.341019 201.448929 
L 282.737423 196.807166 
L 283.133826 202.008258 
L 283.53023 192.885367 
L 283.926633 199.720238 
L 284.323037 191.872718 
L 284.719441 208.559436 
L 285.115844 202.581894 
L 285.512248 171.151408 
L 285.908651 177.470614 
L 286.305055 179.232896 
L 287.097862 166.986502 
L 287.494266 185.887524 
L 287.890669 172.063646 
L 288.287073 169.994248 
L 288.683477 180.789607 
L 289.07988 186.927363 
L 289.476284 189.335668 
L 289.872687 181.039553 
L 290.269091 193.662445 
L 290.665495 181.567614 
L 291.061898 194.3377 
L 292.251109 182.445827 
L 292.647512 189.394421 
L 293.043916 175.700146 
L 293.44032 190.863722 
L 293.836723 183.119153 
L 294.233127 202.16179 
L 294.62953 202.258679 
L 295.025934 188.131495 
L 295.422338 195.352534 
L 295.818741 205.917425 
L 296.215145 181.45252 
L 296.611548 190.221956 
L 297.007952 193.841867 
L 297.404356 199.735448 
L 297.800759 181.121911 
L 298.197163 181.313378 
L 298.593566 197.940919 
L 298.98997 193.909074 
L 299.386374 188.71565 
L 299.782777 190.986954 
L 300.179181 189.432036 
L 300.575584 189.990516 
L 300.971988 190.282801 
L 301.368392 204.573561 
L 301.764795 207.882181 
L 302.161199 197.887144 
L 302.557602 207.350448 
L 302.954006 208.534642 
L 303.35041 191.320097 
L 304.143217 182.900091 
L 304.53962 189.507622 
L 304.936024 182.259305 
L 305.332428 195.058292 
L 305.728831 194.440936 
L 306.125235 202.804067 
L 306.521638 203.204197 
L 306.918042 208.702811 
L 307.314446 217.21015 
L 307.710849 207.181832 
L 308.107253 206.295386 
L 308.503656 201.312573 
L 308.90006 212.214702 
L 309.296464 198.348708 
L 309.692867 190.88035 
L 310.089271 204.931579 
L 310.485674 196.04968 
L 310.882078 205.752695 
L 311.278482 194.072271 
L 311.674885 194.330264 
L 312.071289 197.002313 
L 312.467692 201.921111 
L 312.864096 202.499889 
L 313.2605 190.747938 
L 313.656903 189.515738 
L 314.053307 186.655374 
L 314.44971 191.573999 
L 314.846114 194.437978 
L 315.242517 198.832462 
L 315.638921 178.211979 
L 316.035325 191.456834 
L 316.431728 197.256695 
L 316.828132 181.954632 
L 317.224535 172.25341 
L 317.620939 185.526676 
L 318.017343 190.6415 
L 318.413746 201.235021 
L 318.81015 194.017895 
L 319.206553 193.383204 
L 319.602957 194.106142 
L 319.999361 206.53995 
L 321.188571 184.649777 
L 321.981379 199.354198 
L 322.377782 187.107686 
L 322.774186 192.45977 
L 323.170589 195.234536 
L 323.566993 193.076815 
L 324.3598 181.608048 
L 324.756204 190.498688 
L 325.152607 188.756384 
L 325.549011 207.022511 
L 325.945415 184.964041 
L 326.341818 189.076918 
L 326.738222 179.086661 
L 327.134625 181.890918 
L 327.531029 192.384831 
L 327.927433 193.166756 
L 328.323836 191.098543 
L 328.72024 187.928695 
L 329.116643 182.03465 
L 329.513047 181.425411 
L 329.909451 187.643479 
L 330.305854 201.580774 
L 330.702258 193.113267 
L 331.098661 178.890217 
L 331.495065 200.432805 
L 331.891469 203.203085 
L 332.287872 189.134519 
L 332.684276 201.49091 
L 333.080679 191.021375 
L 333.477083 195.97169 
L 334.26989 187.093077 
L 334.666294 202.273631 
L 335.062697 190.605383 
L 335.459101 199.30184 
L 335.855504 198.005536 
L 336.251908 193.94237 
L 336.648312 196.842002 
L 337.044715 189.620285 
L 337.441119 194.142263 
L 337.837522 191.30063 
L 338.233926 200.112215 
L 338.63033 191.685566 
L 339.026733 195.333296 
L 340.612348 179.720165 
L 341.008751 179.200271 
L 341.405155 178.914603 
L 341.801558 175.182426 
L 342.197962 174.890615 
L 342.594366 170.588927 
L 342.990769 192.736951 
L 343.387173 180.859403 
L 343.783576 180.7199 
L 344.17998 180.177472 
L 344.576384 188.428399 
L 344.972787 185.778256 
L 345.369191 180.581568 
L 345.765594 184.296131 
L 346.161998 193.692593 
L 346.558402 184.001509 
L 346.954805 191.816131 
L 347.351209 187.744283 
L 347.747612 186.276223 
L 348.144016 192.202285 
L 348.54042 195.557702 
L 348.936823 196.711551 
L 349.333227 186.080427 
L 349.72963 192.017048 
L 350.126034 175.417937 
L 350.522438 191.00818 
L 350.918841 189.867811 
L 351.315245 176.122634 
L 351.711648 186.934932 
L 352.108052 190.202189 
L 352.504456 196.696088 
L 352.900859 191.436097 
L 353.297263 177.249976 
L 353.693666 187.395602 
L 354.09007 189.789656 
L 354.486474 188.499643 
L 354.882877 189.453671 
L 355.279281 181.229267 
L 355.675684 179.031731 
L 356.072088 181.51373 
L 356.468492 191.269645 
L 356.864895 182.588571 
L 357.261299 183.954716 
L 357.657702 179.709906 
L 358.054106 196.634669 
L 358.846913 206.781259 
L 359.243317 186.731447 
L 359.63972 181.538814 
L 360.036124 188.927044 
L 360.432527 182.201894 
L 360.828931 181.077839 
L 361.225335 183.251011 
L 361.621738 188.334163 
L 362.018142 185.810156 
L 362.414545 178.366712 
L 362.810949 179.679469 
L 363.207353 177.827124 
L 363.603756 192.228982 
L 364.00016 180.925751 
L 364.396563 191.891255 
L 364.792967 196.22972 
L 365.189371 190.244859 
L 365.585774 182.454362 
L 365.982178 191.147606 
L 366.378581 171.578904 
L 366.774985 177.44176 
L 367.171389 190.745601 
L 367.567792 182.079114 
L 367.964196 190.096551 
L 368.360599 185.846604 
L 368.757003 182.798551 
L 369.153407 182.944208 
L 369.54981 181.468609 
L 369.946214 200.768348 
L 370.342617 206.479612 
L 370.739021 181.906549 
L 371.135425 182.156787 
L 371.531828 190.815228 
L 371.928232 196.344378 
L 372.324635 186.866069 
L 372.721039 207.859374 
L 373.117443 183.970411 
L 373.513846 189.708841 
L 373.91025 201.765098 
L 374.306653 195.023795 
L 374.703057 200.724301 
L 375.099461 200.686769 
L 375.495864 181.494527 
L 375.892268 194.976649 
L 376.288671 194.551263 
L 376.685075 202.803314 
L 377.081479 191.735154 
L 377.477882 200.176576 
L 377.874286 195.906836 
L 378.667093 202.958428 
L 379.063497 180.415639 
L 379.4599 204.290941 
L 379.856304 200.945077 
L 380.252707 200.571859 
L 380.649111 180.612379 
L 381.045514 187.212691 
L 381.441918 203.360886 
L 381.838322 200.981557 
L 382.234725 197.336114 
L 382.631129 198.608263 
L 383.027532 191.571038 
L 383.423936 189.592192 
L 383.82034 176.545421 
L 384.216743 198.579796 
L 384.613147 185.638341 
L 385.00955 204.618181 
L 385.405954 204.276641 
L 385.802358 195.294356 
L 386.198761 197.648611 
L 386.595165 183.77429 
L 386.991568 196.345991 
L 387.387972 197.420324 
L 387.784376 197.233227 
L 388.180779 192.922967 
L 388.577183 203.795178 
L 388.973586 191.2939 
L 389.36999 206.518991 
L 389.766394 198.578942 
L 390.162797 193.819859 
L 390.559201 192.965271 
L 390.955604 192.882944 
L 391.352008 196.471769 
L 391.748412 203.330376 
L 392.144815 197.578983 
L 392.541219 206.405989 
L 392.937622 198.986631 
L 393.334026 212.460019 
L 393.73043 195.436817 
L 394.126833 187.639444 
L 394.91964 203.819009 
L 395.316044 193.747715 
L 395.712448 203.11358 
L 396.108851 206.54711 
L 396.505255 205.678303 
L 396.901658 213.085844 
L 397.298062 211.143285 
L 397.694466 207.355737 
L 398.090869 197.461472 
L 398.487273 201.302845 
L 398.487273 201.302845 
" style="fill:none;stroke:#0000ff;stroke-linecap:square;stroke-width:1.5;"/>
   </g>
   <g id="line2d_14">
    <path clip-path="url(#p133c20d585)" d="M 73.832727 263.216966 
L 74.625534 227.235978 
L 75.021938 223.662944 
L 75.418342 211.580022 
L 75.814745 215.219629 
L 76.211149 200.268256 
L 76.607552 197.131228 
L 77.003956 172.118762 
L 77.796763 180.387321 
L 78.193167 190.769198 
L 78.58957 160.501837 
L 78.985974 157.824224 
L 79.382378 159.65521 
L 79.778781 168.638311 
L 80.175185 151.272015 
L 80.571588 161.903414 
L 80.967992 186.211737 
L 81.364396 165.635767 
L 81.760799 159.495751 
L 82.157203 141.749712 
L 82.553606 168.904753 
L 82.95001 159.523207 
L 83.346414 169.221201 
L 83.742817 150.610093 
L 84.139221 138.413097 
L 84.535624 144.036402 
L 84.932028 140.682374 
L 85.328432 153.98433 
L 85.724835 136.126794 
L 86.121239 137.691274 
L 86.517642 122.562131 
L 86.914046 137.320238 
L 87.31045 143.504248 
L 87.706853 156.509938 
L 88.103257 178.923358 
L 88.49966 149.992272 
L 88.896064 146.002286 
L 89.292468 136.206116 
L 89.688871 156.193876 
L 90.085275 155.174494 
L 90.481678 129.569661 
L 90.878082 114.849204 
L 91.274486 119.992283 
L 91.670889 145.037898 
L 92.067293 142.288834 
L 92.463696 112.181629 
L 93.256503 138.427462 
L 93.652907 142.205291 
L 94.049311 114.238596 
L 94.445714 143.736518 
L 94.842118 138.608905 
L 95.238521 115.267467 
L 95.634925 144.701991 
L 96.031329 125.069429 
L 96.427732 123.911194 
L 96.824136 130.087423 
L 97.220539 119.499434 
L 97.616943 127.433408 
L 98.013347 126.889695 
L 98.40975 128.003808 
L 98.806154 125.335037 
L 99.202557 94.707131 
L 99.598961 126.230067 
L 99.995365 121.307246 
L 100.391768 90.350449 
L 100.788172 137.314092 
L 101.184575 129.298602 
L 101.580979 126.775925 
L 101.977383 150.511656 
L 102.373786 124.800411 
L 102.77019 118.885625 
L 103.166593 153.022796 
L 103.562997 153.735548 
L 103.959401 136.383636 
L 104.355804 138.463789 
L 104.752208 97.470428 
L 105.148611 104.381392 
L 105.545015 115.724992 
L 105.941419 114.041172 
L 106.337822 130.448796 
L 106.734226 128.587066 
L 107.130629 120.880361 
L 107.527033 150.198809 
L 107.923437 127.558823 
L 108.31984 140.918842 
L 108.716244 127.340924 
L 109.112647 103.35982 
L 109.509051 125.279478 
L 110.301858 144.525437 
L 110.698262 145.87045 
L 111.094665 125.759945 
L 111.491069 136.605657 
L 111.887473 156.324469 
L 112.283876 133.303827 
L 112.68028 145.986796 
L 113.076683 139.998207 
L 113.473087 124.299402 
L 113.869491 139.351834 
L 114.265894 110.946989 
L 114.662298 109.141266 
L 115.058701 108.390336 
L 115.455105 132.679358 
L 115.851508 115.284438 
L 116.247912 117.002323 
L 116.644316 108.361578 
L 117.040719 137.582706 
L 117.437123 129.22139 
L 117.833526 125.595904 
L 118.626334 135.386245 
L 119.022737 136.56513 
L 119.419141 133.642071 
L 119.815544 135.362006 
L 120.211948 145.651753 
L 120.608352 127.569938 
L 121.004755 151.64756 
L 121.797562 120.756341 
L 122.193966 109.459751 
L 122.59037 137.27127 
L 122.986773 133.074035 
L 123.383177 134.078426 
L 123.77958 139.563619 
L 124.175984 102.093682 
L 124.572388 115.515462 
L 124.968791 133.885089 
L 125.365195 140.764032 
L 125.761598 102.644451 
L 126.158002 133.113782 
L 126.554406 73.770926 
L 126.950809 112.100977 
L 127.347213 109.216215 
L 127.743616 128.381296 
L 128.14002 129.386369 
L 128.536424 114.271839 
L 128.932827 85.292879 
L 129.329231 114.296498 
L 129.725634 99.493049 
L 130.122038 102.453656 
L 130.518442 110.560737 
L 130.914845 114.210575 
L 131.311249 123.397946 
L 131.707652 85.801371 
L 132.104056 92.893004 
L 132.50046 93.54535 
L 132.896863 114.097796 
L 133.293267 102.439501 
L 133.68967 112.163062 
L 134.086074 125.13431 
L 134.482478 108.905005 
L 134.878881 110.446253 
L 135.275285 95.657124 
L 135.671688 76.103195 
L 136.068092 77.689438 
L 136.464496 99.647901 
L 136.860899 83.686117 
L 137.653706 103.138741 
L 138.05011 104.97442 
L 138.446513 117.525589 
L 138.842917 108.113863 
L 139.239321 83.133124 
L 139.635724 113.06563 
L 140.032128 126.747366 
L 140.428531 132.781901 
L 140.824935 134.843265 
L 141.221339 133.312358 
L 142.014146 93.033629 
L 142.410549 97.162156 
L 142.806953 103.056621 
L 143.203357 77.27603 
L 143.996164 140.477609 
L 144.392567 123.05977 
L 144.788971 128.267793 
L 145.185375 137.654851 
L 145.581778 140.970548 
L 145.978182 110.830088 
L 146.374585 119.138679 
L 146.770989 94.312297 
L 147.167393 100.668683 
L 147.563796 126.400498 
L 147.9602 117.61887 
L 148.356603 134.923561 
L 148.753007 137.078311 
L 149.149411 120.812651 
L 149.545814 119.918983 
L 149.942218 136.169726 
L 150.338621 95.094998 
L 150.735025 125.733213 
L 151.131429 106.824854 
L 151.924236 142.176583 
L 152.320639 113.272499 
L 153.113447 139.7494 
L 153.50985 146.316375 
L 153.906254 114.154904 
L 154.302657 149.115942 
L 154.699061 139.965509 
L 155.095465 122.91095 
L 155.491868 137.41672 
L 155.888272 118.646099 
L 156.284675 125.170358 
L 156.681079 112.301283 
L 157.077483 106.679792 
L 157.473886 138.853618 
L 157.87029 146.723958 
L 158.266693 141.15271 
L 158.663097 141.24387 
L 159.0595 117.339422 
L 159.455904 129.910693 
L 159.852308 128.61692 
L 160.248711 155.245761 
L 160.645115 144.108297 
L 161.041518 107.698868 
L 161.437922 126.026438 
L 161.834326 133.570415 
L 162.230729 138.524005 
L 162.627133 110.846458 
L 163.023536 102.682554 
L 163.41994 131.201942 
L 163.816344 141.100464 
L 164.212747 103.263176 
L 164.609151 88.043458 
L 165.005554 101.501132 
L 165.401958 104.102528 
L 166.591169 117.869142 
L 166.987572 71.453526 
L 167.383976 128.512822 
L 168.176783 78.875186 
L 168.573187 91.881116 
L 168.96959 111.213975 
L 169.365994 92.345667 
L 169.762398 90.384828 
L 170.158801 101.498241 
L 170.555205 78.256218 
L 170.951608 79.597056 
L 171.348012 108.476287 
L 171.744416 109.212937 
L 172.140819 129.51526 
L 172.933626 107.308055 
L 173.33003 108.865603 
L 173.726434 133.740135 
L 174.122837 104.345524 
L 174.519241 136.1074 
L 174.915644 113.769044 
L 175.312048 118.222865 
L 175.708452 140.641087 
L 176.104855 136.561512 
L 176.501259 115.164255 
L 177.294066 138.645315 
L 177.69047 112.811783 
L 178.086873 140.146065 
L 178.483277 130.857102 
L 178.87968 141.551966 
L 179.276084 105.560819 
L 179.672488 113.119498 
L 180.465295 115.942376 
L 180.861698 96.678769 
L 181.258102 126.084969 
L 181.654505 103.771348 
L 182.050909 97.202916 
L 182.447313 124.534432 
L 182.843716 129.734676 
L 183.24012 111.242705 
L 183.636523 129.485577 
L 184.032927 122.77428 
L 184.429331 138.666559 
L 184.825734 98.235339 
L 185.222138 131.886434 
L 185.618541 132.256504 
L 186.014945 129.081656 
L 186.411349 131.620967 
L 186.807752 144.330145 
L 187.204156 139.066674 
L 187.600559 124.26344 
L 188.393367 104.550471 
L 188.78977 113.887366 
L 189.186174 112.250007 
L 189.978981 126.930083 
L 190.375385 102.751648 
L 190.771788 130.23388 
L 191.168192 125.895688 
L 191.564595 115.507648 
L 191.960999 114.029296 
L 192.357403 117.113308 
L 192.753806 138.56003 
L 193.15021 125.937673 
L 193.546613 102.207471 
L 193.943017 126.509162 
L 194.339421 115.323285 
L 194.735824 112.705345 
L 195.132228 134.267857 
L 195.528631 97.633359 
L 195.925035 92.858502 
L 196.321439 117.26944 
L 196.717842 98.103479 
L 197.114246 112.463328 
L 197.510649 92.799153 
L 197.907053 107.576774 
L 198.303457 114.610518 
L 198.69986 124.661361 
L 199.096264 103.708364 
L 199.492667 109.336176 
L 199.889071 124.024635 
L 200.285475 131.08674 
L 200.681878 140.45483 
L 201.078282 112.985116 
L 201.474685 98.206455 
L 201.871089 139.258716 
L 202.267493 136.748565 
L 202.663896 108.187379 
L 203.0603 107.793643 
L 203.456703 97.075373 
L 203.853107 105.257255 
L 204.24951 108.995582 
L 204.645914 120.325109 
L 205.042318 91.037668 
L 205.438721 102.113906 
L 205.835125 86.0314 
L 206.231528 126.463272 
L 206.627932 104.400544 
L 207.024336 97.392766 
L 207.420739 113.585469 
L 207.817143 121.222986 
L 208.213546 98.731557 
L 208.60995 98.392265 
L 209.006354 114.699002 
L 209.402757 146.26274 
L 209.799161 121.976952 
L 210.195564 121.14201 
L 210.591968 115.796253 
L 210.988372 140.064124 
L 211.384775 136.00204 
L 211.781179 138.912194 
L 212.177582 132.201832 
L 212.573986 105.699111 
L 212.97039 127.926166 
L 213.366793 82.974116 
L 213.763197 127.04085 
L 214.1596 96.190861 
L 214.556004 83.466664 
L 214.952408 114.323424 
L 215.348811 103.161798 
L 216.141618 114.739972 
L 216.934426 103.039233 
L 217.727233 129.488925 
L 218.123636 123.13093 
L 218.916444 148.765409 
L 219.312847 113.949536 
L 219.709251 102.781901 
L 220.105654 114.248895 
L 220.502058 86.264006 
L 220.898462 115.753501 
L 221.294865 123.076363 
L 221.691269 138.520927 
L 222.087672 132.697366 
L 222.484076 104.027001 
L 222.88048 98.348768 
L 223.276883 140.584532 
L 223.673287 114.272908 
L 224.06969 105.329609 
L 224.466094 117.69961 
L 224.862498 105.331355 
L 225.258901 99.71264 
L 225.655305 87.980536 
L 226.051708 122.136308 
L 226.448112 115.685896 
L 226.844515 121.471987 
L 227.240919 110.816699 
L 227.637323 96.871228 
L 228.43013 130.170481 
L 228.826533 120.934928 
L 229.222937 120.96499 
L 229.619341 101.955838 
L 230.412148 128.145252 
L 230.808551 135.012488 
L 231.204955 92.855129 
L 231.601359 108.932809 
L 231.997762 119.034815 
L 232.394166 108.396761 
L 232.790569 125.764754 
L 233.186973 117.3245 
L 233.583377 114.256957 
L 233.97978 118.923055 
L 234.376184 132.932292 
L 234.772587 106.912802 
L 235.168991 109.971035 
L 235.565395 150.454327 
L 235.961798 110.969911 
L 236.358202 146.507683 
L 236.754605 135.136916 
L 237.151009 134.508782 
L 237.547413 148.909209 
L 237.943816 120.295091 
L 238.34022 117.102363 
L 238.736623 128.608354 
L 239.133027 135.707857 
L 239.529431 115.95961 
L 239.925834 107.429604 
L 240.322238 153.165722 
L 240.718641 112.27067 
L 241.115045 117.193686 
L 241.511449 101.310511 
L 241.907852 132.4773 
L 242.304256 119.490247 
L 242.700659 118.22773 
L 243.097063 134.542674 
L 243.88987 146.419678 
L 244.682677 97.925076 
L 245.079081 95.052889 
L 245.475485 102.202683 
L 245.871888 116.933831 
L 246.268292 97.58365 
L 246.664695 115.379989 
L 247.061099 103.698432 
L 247.457502 129.304313 
L 247.853906 109.883647 
L 248.25031 79.03755 
L 249.043117 141.404212 
L 249.43952 134.115558 
L 249.835924 148.118817 
L 250.232328 114.460025 
L 250.628731 61.323142 
L 251.025135 144.755314 
L 251.421538 90.396739 
L 251.817942 68.654235 
L 252.214346 118.086262 
L 252.610749 110.627964 
L 253.007153 119.505655 
L 253.403556 124.247587 
L 253.79996 106.204397 
L 254.196364 105.348166 
L 254.592767 132.019536 
L 254.989171 123.065142 
L 255.385574 117.756411 
L 255.781978 83.689493 
L 256.178382 107.606314 
L 256.574785 112.133686 
L 256.971189 120.447964 
L 257.367592 122.078533 
L 257.763996 126.659773 
L 258.1604 123.53663 
L 258.556803 128.352552 
L 258.953207 119.49732 
L 259.34961 89.317627 
L 259.746014 110.404596 
L 260.142418 105.970942 
L 260.538821 122.057777 
L 260.935225 160.948576 
L 261.331628 136.641173 
L 261.728032 139.613678 
L 262.124436 157.483572 
L 262.520839 141.864927 
L 262.917243 150.875502 
L 263.313646 148.336086 
L 263.71005 146.720108 
L 264.106454 126.497435 
L 264.502857 135.621144 
L 264.899261 135.507432 
L 265.295664 144.190446 
L 265.692068 107.12705 
L 266.088472 113.950606 
L 266.484875 88.467877 
L 266.881279 115.376799 
L 267.277682 132.328164 
L 267.674086 88.942211 
L 268.07049 107.527104 
L 268.466893 109.037622 
L 268.863297 84.348174 
L 269.2597 100.825205 
L 269.656104 111.259744 
L 270.052507 94.976984 
L 270.448911 109.926539 
L 270.845315 138.503295 
L 271.241718 109.070264 
L 271.638122 117.141546 
L 272.034525 97.822585 
L 272.430929 117.379908 
L 272.827333 120.060573 
L 273.223736 116.827129 
L 273.62014 92.876651 
L 274.016543 111.967306 
L 274.412947 138.408121 
L 274.809351 132.649184 
L 275.205754 129.204702 
L 275.602158 132.683436 
L 275.998561 125.54902 
L 276.394965 129.881895 
L 276.791369 130.896392 
L 277.584176 104.434017 
L 277.980579 148.574835 
L 278.376983 145.288641 
L 278.773387 123.857395 
L 279.16979 127.22023 
L 279.566194 127.670029 
L 279.962597 104.008345 
L 280.359001 110.815576 
L 280.755405 114.118216 
L 281.151808 119.248351 
L 281.548212 100.931717 
L 281.944615 115.674016 
L 282.341019 104.333048 
L 282.737423 105.336342 
L 283.133826 120.222944 
L 283.53023 98.390075 
L 283.926633 107.361821 
L 284.323037 106.69327 
L 284.719441 111.209586 
L 285.115844 111.165971 
L 285.512248 53.568 
L 285.908651 96.306058 
L 286.305055 90.558092 
L 286.701459 93.350015 
L 287.097862 77.387835 
L 287.494266 114.234156 
L 287.890669 87.78623 
L 288.287073 70.937616 
L 288.683477 104.390657 
L 289.07988 118.496438 
L 289.476284 112.344108 
L 289.872687 101.669674 
L 290.269091 115.723439 
L 290.665495 77.93627 
L 291.061898 125.640753 
L 291.458302 111.031292 
L 291.854705 101.446714 
L 292.251109 103.493393 
L 292.647512 104.946573 
L 293.043916 93.816693 
L 293.44032 112.581616 
L 293.836723 114.364326 
L 294.233127 137.012203 
L 294.62953 136.264369 
L 295.025934 110.774365 
L 295.422338 119.818246 
L 295.818741 102.392797 
L 296.215145 109.713343 
L 296.611548 99.274075 
L 297.007952 116.981208 
L 297.404356 121.764744 
L 297.800759 99.718044 
L 298.197163 89.777156 
L 298.593566 114.719853 
L 298.98997 106.343186 
L 299.386374 106.352129 
L 299.782777 108.661691 
L 300.179181 115.975359 
L 300.575584 93.819697 
L 300.971988 106.796776 
L 301.368392 139.778714 
L 301.764795 141.249617 
L 302.161199 121.359835 
L 302.557602 153.990182 
L 302.954006 135.807711 
L 303.35041 102.675367 
L 303.746813 109.606477 
L 304.143217 97.695313 
L 304.53962 108.357127 
L 304.936024 108.894056 
L 305.332428 118.872936 
L 305.728831 119.759451 
L 306.125235 122.296677 
L 306.521638 143.729866 
L 306.918042 115.397232 
L 307.314446 133.30286 
L 307.710849 124.866199 
L 308.107253 119.039157 
L 308.503656 109.107897 
L 308.90006 150.233348 
L 309.692867 107.748757 
L 310.089271 111.076958 
L 310.485674 110.430526 
L 310.882078 124.052075 
L 311.278482 97.418055 
L 311.674885 100.975749 
L 312.071289 116.817997 
L 312.864096 134.336786 
L 313.656903 110.913669 
L 314.053307 132.547201 
L 314.44971 125.590637 
L 314.846114 113.701816 
L 315.242517 134.186688 
L 315.638921 96.977886 
L 316.035325 124.101934 
L 316.431728 132.02866 
L 316.828132 96.017654 
L 317.224535 81.755523 
L 317.620939 74.816052 
L 318.017343 133.717661 
L 318.413746 122.793654 
L 318.81015 127.429372 
L 319.206553 112.143086 
L 319.602957 109.263017 
L 319.999361 140.928738 
L 320.395764 140.699357 
L 320.792168 120.309434 
L 321.188571 114.343871 
L 321.584975 135.786218 
L 321.981379 120.682942 
L 322.377782 115.151518 
L 322.774186 107.567479 
L 323.170589 128.556116 
L 323.566993 119.810193 
L 323.963397 95.060108 
L 324.3598 94.933025 
L 324.756204 114.414952 
L 325.152607 88.773214 
L 325.549011 128.060521 
L 325.945415 115.907017 
L 326.341818 131.358259 
L 326.738222 112.455343 
L 327.134625 111.887425 
L 327.531029 128.06877 
L 327.927433 104.9614 
L 328.323836 127.871044 
L 328.72024 102.956456 
L 329.116643 99.522454 
L 329.513047 84.584514 
L 330.305854 136.371945 
L 330.702258 131.729588 
L 331.098661 98.221464 
L 331.495065 138.275142 
L 331.891469 141.432118 
L 332.287872 110.042157 
L 333.477083 130.767644 
L 333.873487 83.792845 
L 334.26989 120.454002 
L 334.666294 126.108542 
L 335.062697 101.991214 
L 335.459101 123.56944 
L 335.855504 120.246365 
L 336.251908 126.221941 
L 336.648312 127.547568 
L 337.441119 121.049171 
L 337.837522 119.73346 
L 338.233926 142.228286 
L 338.63033 111.328954 
L 339.026733 111.083877 
L 339.423137 134.952408 
L 339.81954 112.875928 
L 340.215944 103.264806 
L 340.612348 106.500231 
L 341.008751 92.650059 
L 341.405155 109.18795 
L 341.801558 67.890792 
L 342.197962 90.140483 
L 342.594366 57.874239 
L 342.990769 126.492361 
L 343.387173 105.820931 
L 343.783576 104.960834 
L 344.17998 114.595674 
L 344.576384 128.763823 
L 344.972787 85.506006 
L 345.369191 115.152263 
L 345.765594 120.547971 
L 346.161998 114.08785 
L 346.558402 104.993132 
L 346.954805 131.369306 
L 347.351209 104.197184 
L 347.747612 66.431955 
L 348.144016 117.907565 
L 348.54042 125.732212 
L 348.936823 102.343883 
L 349.333227 129.695511 
L 349.72963 99.409652 
L 350.126034 85.566002 
L 350.522438 108.083077 
L 350.918841 107.762637 
L 351.315245 65.252903 
L 351.711648 56.573583 
L 352.504456 137.262476 
L 352.900859 104.076371 
L 353.297263 115.200551 
L 353.693666 86.889635 
L 354.09007 133.490745 
L 354.486474 102.710819 
L 355.279281 113.473999 
L 355.675684 128.38729 
L 356.072088 119.250319 
L 356.468492 130.272866 
L 356.864895 114.679341 
L 357.261299 116.702758 
L 357.657702 116.615702 
L 358.054106 141.210648 
L 358.450509 148.540197 
L 358.846913 145.736971 
L 359.63972 94.329632 
L 360.036124 124.855327 
L 360.828931 88.735759 
L 361.225335 107.647145 
L 361.621738 108.639025 
L 362.018142 98.068924 
L 362.414545 94.840111 
L 362.810949 73.9053 
L 363.207353 96.263368 
L 363.603756 126.584927 
L 364.00016 98.452623 
L 364.396563 92.207108 
L 364.792967 117.73047 
L 365.189371 100.932119 
L 365.585774 111.824596 
L 365.982178 109.66883 
L 366.378581 93.596093 
L 366.774985 97.871631 
L 367.171389 108.724791 
L 367.567792 95.007003 
L 367.964196 121.69317 
L 368.360599 70.93808 
L 368.757003 109.807991 
L 369.153407 93.435797 
L 369.54981 103.803489 
L 369.946214 147.013623 
L 370.342617 134.861859 
L 370.739021 96.73766 
L 371.135425 91.792817 
L 371.531828 123.776057 
L 371.928232 119.364252 
L 372.324635 119.121637 
L 372.721039 131.37892 
L 373.117443 122.82688 
L 373.513846 105.419337 
L 373.91025 130.41684 
L 374.703057 125.047023 
L 375.099461 112.872736 
L 375.495864 94.521667 
L 375.892268 119.414405 
L 376.288671 130.198926 
L 376.685075 146.732335 
L 377.081479 119.707067 
L 377.477882 110.183912 
L 377.874286 122.706606 
L 378.270689 122.488 
L 378.667093 124.632384 
L 379.063497 82.559556 
L 379.4599 133.784801 
L 379.856304 139.66915 
L 380.252707 123.425698 
L 380.649111 85.830833 
L 381.441918 137.02484 
L 382.234725 126.412765 
L 382.631129 115.0444 
L 383.027532 85.038651 
L 383.423936 127.749488 
L 383.82034 94.26919 
L 384.216743 121.368306 
L 384.613147 114.843024 
L 385.00955 102.992997 
L 385.405954 133.65418 
L 385.802358 91.0577 
L 386.198761 114.546354 
L 386.595165 67.012016 
L 386.991568 127.101906 
L 387.387972 116.823816 
L 387.784376 115.411581 
L 388.180779 110.751405 
L 388.577183 131.830118 
L 388.973586 135.986905 
L 389.766394 108.202056 
L 390.162797 126.268018 
L 390.559201 125.544978 
L 390.955604 134.610657 
L 391.352008 125.477932 
L 391.748412 109.157359 
L 392.144815 131.979279 
L 392.541219 141.863769 
L 392.937622 128.17875 
L 393.334026 136.061059 
L 393.73043 127.412691 
L 394.126833 82.677305 
L 394.91964 140.838902 
L 395.316044 130.084109 
L 395.712448 149.184321 
L 396.108851 149.216405 
L 396.505255 134.558452 
L 396.901658 131.115108 
L 397.298062 148.556465 
L 397.694466 138.285546 
L 398.090869 116.404934 
L 398.487273 137.524507 
L 398.487273 137.524507 
" style="fill:none;stroke:#ff0000;stroke-linecap:square;stroke-width:1.5;"/>
   </g>
   <g id="patch_3">
    <path d="M 57.6 307.584 
L 57.6 41.472 
" style="fill:none;stroke:#000000;stroke-linecap:square;stroke-linejoin:miter;stroke-width:0.8;"/>
   </g>
   <g id="patch_4">
    <path d="M 414.72 307.584 
L 414.72 41.472 
" style="fill:none;stroke:#000000;stroke-linecap:square;stroke-linejoin:miter;stroke-width:0.8;"/>
   </g>
   <g id="patch_5">
    <path d="M 57.6 307.584 
L 414.72 307.584 
" style="fill:none;stroke:#000000;stroke-linecap:square;stroke-linejoin:miter;stroke-width:0.8;"/>
   </g>
   <g id="patch_6">
    <path d="M 57.6 41.472 
L 414.72 41.472 
" style="fill:none;stroke:#000000;stroke-linecap:square;stroke-linejoin:miter;stroke-width:0.8;"/>
   </g>
   <g id="text_9">
    <!-- Population's average and best fitness -->
    <g transform="translate(123.529687 35.472)scale(0.12 -0.12)">
     <defs>
      <path d="M 19.671875 64.796875 
L 19.671875 37.40625 
L 32.078125 37.40625 
Q 38.96875 37.40625 42.71875 40.96875 
Q 46.484375 44.53125 46.484375 51.125 
Q 46.484375 57.671875 42.71875 61.234375 
Q 38.96875 64.796875 32.078125 64.796875 
z
M 9.8125 72.90625 
L 32.078125 72.90625 
Q 44.34375 72.90625 50.609375 67.359375 
Q 56.890625 61.8125 56.890625 51.125 
Q 56.890625 40.328125 50.609375 34.8125 
Q 44.34375 29.296875 32.078125 29.296875 
L 19.671875 29.296875 
L 19.671875 0 
L 9.8125 0 
z
" id="DejaVuSans-80"/>
      <path d="M 18.109375 8.203125 
L 18.109375 -20.796875 
L 9.078125 -20.796875 
L 9.078125 54.6875 
L 18.109375 54.6875 
L 18.109375 46.390625 
Q 20.953125 51.265625 25.265625 53.625 
Q 29.59375 56 35.59375 56 
Q 45.5625 56 51.78125 48.09375 
Q 58.015625 40.1875 58.015625 27.296875 
Q 58.015625 14.40625 51.78125 6.484375 
Q 45.5625 -1.421875 35.59375 -1.421875 
Q 29.59375 -1.421875 25.265625 0.953125 
Q 20.953125 3.328125 18.109375 8.203125 
z
M 48.6875 27.296875 
Q 48.6875 37.203125 44.609375 42.84375 
Q 40.53125 48.484375 33.40625 48.484375 
Q 26.265625 48.484375 22.1875 42.84375 
Q 18.109375 37.203125 18.109375 27.296875 
Q 18.109375 17.390625 22.1875 11.75 
Q 26.265625 6.109375 33.40625 6.109375 
Q 40.53125 6.109375 44.609375 11.75 
Q 48.6875 17.390625 48.6875 27.296875 
z
" id="DejaVuSans-112"/>
      <path d="M 8.5 21.578125 
L 8.5 54.6875 
L 17.484375 54.6875 
L 17.484375 21.921875 
Q 17.484375 14.15625 20.5 10.265625 
Q 23.53125 6.390625 29.59375 6.390625 
Q 36.859375 6.390625 41.078125 11.03125 
Q 45.3125 15.671875 45.3125 23.6875 
L 45.3125 54.6875 
L 54.296875 54.6875 
L 54.296875 0 
L 45.3125 0 
L 45.3125 8.40625 
Q 42.046875 3.421875 37.71875 1 
Q 33.40625 -1.421875 27.6875 -1.421875 
Q 18.265625 -1.421875 13.375 4.4375 
Q 8.5 10.296875 8.5 21.578125 
z
M 31.109375 56 
z
" id="DejaVuSans-117"/>
      <path d="M 9.421875 75.984375 
L 18.40625 75.984375 
L 18.40625 0 
L 9.421875 0 
z
" id="DejaVuSans-108"/>
      <path d="M 17.921875 72.90625 
L 17.921875 45.796875 
L 9.625 45.796875 
L 9.625 72.90625 
z
" id="DejaVuSans-39"/>
      <path id="DejaVuSans-32"/>
      <path d="M 2.984375 54.6875 
L 12.5 54.6875 
L 29.59375 8.796875 
L 46.6875 54.6875 
L 56.203125 54.6875 
L 35.6875 0 
L 23.484375 0 
z
" id="DejaVuSans-118"/>
      <path d="M 45.40625 27.984375 
Q 45.40625 37.75 41.375 43.109375 
Q 37.359375 48.484375 30.078125 48.484375 
Q 22.859375 48.484375 18.828125 43.109375 
Q 14.796875 37.75 14.796875 27.984375 
Q 14.796875 18.265625 18.828125 12.890625 
Q 22.859375 7.515625 30.078125 7.515625 
Q 37.359375 7.515625 41.375 12.890625 
Q 45.40625 18.265625 45.40625 27.984375 
z
M 54.390625 6.78125 
Q 54.390625 -7.171875 48.1875 -13.984375 
Q 42 -20.796875 29.203125 -20.796875 
Q 24.46875 -20.796875 20.265625 -20.09375 
Q 16.0625 -19.390625 12.109375 -17.921875 
L 12.109375 -9.1875 
Q 16.0625 -11.328125 19.921875 -12.34375 
Q 23.78125 -13.375 27.78125 -13.375 
Q 36.625 -13.375 41.015625 -8.765625 
Q 45.40625 -4.15625 45.40625 5.171875 
L 45.40625 9.625 
Q 42.625 4.78125 38.28125 2.390625 
Q 33.9375 0 27.875 0 
Q 17.828125 0 11.671875 7.65625 
Q 5.515625 15.328125 5.515625 27.984375 
Q 5.515625 40.671875 11.671875 48.328125 
Q 17.828125 56 27.875 56 
Q 33.9375 56 38.28125 53.609375 
Q 42.625 51.21875 45.40625 46.390625 
L 45.40625 54.6875 
L 54.390625 54.6875 
z
" id="DejaVuSans-103"/>
      <path d="M 45.40625 46.390625 
L 45.40625 75.984375 
L 54.390625 75.984375 
L 54.390625 0 
L 45.40625 0 
L 45.40625 8.203125 
Q 42.578125 3.328125 38.25 0.953125 
Q 33.9375 -1.421875 27.875 -1.421875 
Q 17.96875 -1.421875 11.734375 6.484375 
Q 5.515625 14.40625 5.515625 27.296875 
Q 5.515625 40.1875 11.734375 48.09375 
Q 17.96875 56 27.875 56 
Q 33.9375 56 38.25 53.625 
Q 42.578125 51.265625 45.40625 46.390625 
z
M 14.796875 27.296875 
Q 14.796875 17.390625 18.875 11.75 
Q 22.953125 6.109375 30.078125 6.109375 
Q 37.203125 6.109375 41.296875 11.75 
Q 45.40625 17.390625 45.40625 27.296875 
Q 45.40625 37.203125 41.296875 42.84375 
Q 37.203125 48.484375 30.078125 48.484375 
Q 22.953125 48.484375 18.875 42.84375 
Q 14.796875 37.203125 14.796875 27.296875 
z
" id="DejaVuSans-100"/>
      <path d="M 48.6875 27.296875 
Q 48.6875 37.203125 44.609375 42.84375 
Q 40.53125 48.484375 33.40625 48.484375 
Q 26.265625 48.484375 22.1875 42.84375 
Q 18.109375 37.203125 18.109375 27.296875 
Q 18.109375 17.390625 22.1875 11.75 
Q 26.265625 6.109375 33.40625 6.109375 
Q 40.53125 6.109375 44.609375 11.75 
Q 48.6875 17.390625 48.6875 27.296875 
z
M 18.109375 46.390625 
Q 20.953125 51.265625 25.265625 53.625 
Q 29.59375 56 35.59375 56 
Q 45.5625 56 51.78125 48.09375 
Q 58.015625 40.1875 58.015625 27.296875 
Q 58.015625 14.40625 51.78125 6.484375 
Q 45.5625 -1.421875 35.59375 -1.421875 
Q 29.59375 -1.421875 25.265625 0.953125 
Q 20.953125 3.328125 18.109375 8.203125 
L 18.109375 0 
L 9.078125 0 
L 9.078125 75.984375 
L 18.109375 75.984375 
z
" id="DejaVuSans-98"/>
      <path d="M 37.109375 75.984375 
L 37.109375 68.5 
L 28.515625 68.5 
Q 23.6875 68.5 21.796875 66.546875 
Q 19.921875 64.59375 19.921875 59.515625 
L 19.921875 54.6875 
L 34.71875 54.6875 
L 34.71875 47.703125 
L 19.921875 47.703125 
L 19.921875 0 
L 10.890625 0 
L 10.890625 47.703125 
L 2.296875 47.703125 
L 2.296875 54.6875 
L 10.890625 54.6875 
L 10.890625 58.5 
Q 10.890625 67.625 15.140625 71.796875 
Q 19.390625 75.984375 28.609375 75.984375 
z
" id="DejaVuSans-102"/>
     </defs>
     <use xlink:href="#DejaVuSans-80"/>
     <use x="56.677734" xlink:href="#DejaVuSans-111"/>
     <use x="117.859375" xlink:href="#DejaVuSans-112"/>
     <use x="181.335938" xlink:href="#DejaVuSans-117"/>
     <use x="244.714844" xlink:href="#DejaVuSans-108"/>
     <use x="272.498047" xlink:href="#DejaVuSans-97"/>
     <use x="333.777344" xlink:href="#DejaVuSans-116"/>
     <use x="372.986328" xlink:href="#DejaVuSans-105"/>
     <use x="400.769531" xlink:href="#DejaVuSans-111"/>
     <use x="461.951172" xlink:href="#DejaVuSans-110"/>
     <use x="525.330078" xlink:href="#DejaVuSans-39"/>
     <use x="552.820312" xlink:href="#DejaVuSans-115"/>
     <use x="604.919922" xlink:href="#DejaVuSans-32"/>
     <use x="636.707031" xlink:href="#DejaVuSans-97"/>
     <use x="697.986328" xlink:href="#DejaVuSans-118"/>
     <use x="757.166016" xlink:href="#DejaVuSans-101"/>
     <use x="818.689453" xlink:href="#DejaVuSans-114"/>
     <use x="859.802734" xlink:href="#DejaVuSans-97"/>
     <use x="921.082031" xlink:href="#DejaVuSans-103"/>
     <use x="984.558594" xlink:href="#DejaVuSans-101"/>
     <use x="1046.082031" xlink:href="#DejaVuSans-32"/>
     <use x="1077.869141" xlink:href="#DejaVuSans-97"/>
     <use x="1139.148438" xlink:href="#DejaVuSans-110"/>
     <use x="1202.527344" xlink:href="#DejaVuSans-100"/>
     <use x="1266.003906" xlink:href="#DejaVuSans-32"/>
     <use x="1297.791016" xlink:href="#DejaVuSans-98"/>
     <use x="1361.267578" xlink:href="#DejaVuSans-101"/>
     <use x="1422.791016" xlink:href="#DejaVuSans-115"/>
     <use x="1474.890625" xlink:href="#DejaVuSans-116"/>
     <use x="1514.099609" xlink:href="#DejaVuSans-32"/>
     <use x="1545.886719" xlink:href="#DejaVuSans-102"/>
     <use x="1581.091797" xlink:href="#DejaVuSans-105"/>
     <use x="1608.875" xlink:href="#DejaVuSans-116"/>
     <use x="1648.083984" xlink:href="#DejaVuSans-110"/>
     <use x="1711.462891" xlink:href="#DejaVuSans-101"/>
     <use x="1772.986328" xlink:href="#DejaVuSans-115"/>
     <use x="1825.085938" xlink:href="#DejaVuSans-115"/>
    </g>
   </g>
   <g id="legend_1">
    <g id="patch_7">
     <path d="M 334.779375 302.584 
L 407.72 302.584 
Q 409.72 302.584 409.72 300.584 
L 409.72 272.22775 
Q 409.72 270.22775 407.72 270.22775 
L 334.779375 270.22775 
Q 332.779375 270.22775 332.779375 272.22775 
L 332.779375 300.584 
Q 332.779375 302.584 334.779375 302.584 
z
" style="fill:#ffffff;opacity:0.8;stroke:#cccccc;stroke-linejoin:miter;"/>
    </g>
    <g id="line2d_15">
     <path d="M 336.779375 278.326187 
L 356.779375 278.326187 
" style="fill:none;stroke:#0000ff;stroke-linecap:square;stroke-width:1.5;"/>
    </g>
    <g id="line2d_16"/>
    <g id="text_10">
     <!-- average -->
     <g transform="translate(364.779375 281.826187)scale(0.1 -0.1)">
      <use xlink:href="#DejaVuSans-97"/>
      <use x="61.279297" xlink:href="#DejaVuSans-118"/>
      <use x="120.458984" xlink:href="#DejaVuSans-101"/>
      <use x="181.982422" xlink:href="#DejaVuSans-114"/>
      <use x="223.095703" xlink:href="#DejaVuSans-97"/>
      <use x="284.375" xlink:href="#DejaVuSans-103"/>
      <use x="347.851562" xlink:href="#DejaVuSans-101"/>
     </g>
    </g>
    <g id="line2d_17">
     <path d="M 336.779375 293.004312 
L 356.779375 293.004312 
" style="fill:none;stroke:#ff0000;stroke-linecap:square;stroke-width:1.5;"/>
    </g>
    <g id="line2d_18"/>
    <g id="text_11">
     <!-- best -->
     <g transform="translate(364.779375 296.504312)scale(0.1 -0.1)">
      <use xlink:href="#DejaVuSans-98"/>
      <use x="63.476562" xlink:href="#DejaVuSans-101"/>
      <use x="125" xlink:href="#DejaVuSans-115"/>
      <use x="177.099609" xlink:href="#DejaVuSans-116"/>
     </g>
    </g>
   </g>
  </g>
 </g>
 <defs>
  <clipPath id="p133c20d585">
   <rect height="266.112" width="357.12" x="57.6" y="41.472"/>
  </clipPath>
 </defs>
</svg>
