<?xml version="1.0" encoding="UTF-8" standalone="no"?>
<!DOCTYPE svg PUBLIC "-//W3C//DTD SVG 1.1//EN"
 "http://www.w3.org/Graphics/SVG/1.1/DTD/svg11.dtd">
<!-- Generated by graphviz version 2.40.1 (20161225.0304)
 -->
<!-- Title: %3 Pages: 1 -->
<svg width="791pt" height="134pt"
 viewBox="0.00 0.00 791.00 134.12" xmlns="http://www.w3.org/2000/svg" xmlns:xlink="http://www.w3.org/1999/xlink">
<g id="graph0" class="graph" transform="scale(1 1) rotate(0) translate(4 130.1249)">
<title>%3</title>
<polygon fill="#ffffff" stroke="transparent" points="-4,4 -4,-130.1249 787,-130.1249 787,4 -4,4"/>
<!-- x&#45;vel -->
<g id="node1" class="node">
<title>x&#45;vel</title>
<polygon fill="#d3d3d3" stroke="#000000" points="111.5,-126.1249 76.5,-126.1249 76.5,-108.1249 111.5,-108.1249 111.5,-126.1249"/>
<text text-anchor="middle" x="94" y="-114.9249" font-family="Times,serif" font-size="9.00" fill="#000000">x&#45;vel</text>
</g>
<!-- left -->
<g id="node15" class="node">
<title>left</title>
<ellipse fill="#add8e6" stroke="#000000" cx="280" cy="-36.0624" rx="19.6" ry="19.6"/>
<text text-anchor="middle" x="280" y="-33.8624" font-family="Times,serif" font-size="9.00" fill="#000000">left</text>
</g>
<!-- x&#45;vel&#45;&gt;left -->
<g id="edge28" class="edge">
<title>x&#45;vel&#45;&gt;left</title>
<path fill="none" stroke="#ff0000" stroke-width=".1666" stroke-dasharray="1,5" d="M111.615,-111.0042C114.4184,-110.0368 117.2876,-109.0506 120,-108.1249 167.4856,-91.9184 182.0631,-94.4453 227,-72.1249 236.8679,-67.2235 247.0298,-60.7198 255.7826,-54.5861"/>
<polygon fill="#ff0000" stroke="#ff0000" stroke-width=".1666" points="257.9454,-57.3415 264.0025,-48.6489 253.8467,-51.6669 257.9454,-57.3415"/>
</g>
<!-- backward -->
<g id="node17" class="node">
<title>backward</title>
<ellipse fill="#add8e6" stroke="#000000" cx="182" cy="-36.0624" rx="36.125" ry="36.125"/>
<text text-anchor="middle" x="182" y="-33.8624" font-family="Times,serif" font-size="9.00" fill="#000000">backward</text>
</g>
<!-- x&#45;vel&#45;&gt;backward -->
<g id="edge7" class="edge">
<title>x&#45;vel&#45;&gt;backward</title>
<path fill="none" stroke="#00ff00" stroke-width=".1908" stroke-dasharray="1,5" d="M104.0947,-107.826C114.7252,-98.0336 132.0553,-82.0697 147.6744,-67.682"/>
<polygon fill="#00ff00" stroke="#00ff00" stroke-width=".1908" points="150.1839,-70.129 155.1676,-60.7795 145.4412,-64.9805 150.1839,-70.129"/>
</g>
<!-- y&#45;vel -->
<g id="node2" class="node">
<title>y&#45;vel</title>
<polygon fill="#d3d3d3" stroke="#000000" points="361.5,-126.1249 326.5,-126.1249 326.5,-108.1249 361.5,-108.1249 361.5,-126.1249"/>
<text text-anchor="middle" x="344" y="-114.9249" font-family="Times,serif" font-size="9.00" fill="#000000">y&#45;vel</text>
</g>
<!-- right -->
<g id="node14" class="node">
<title>right</title>
<ellipse fill="#add8e6" stroke="#000000" cx="407" cy="-36.0624" rx="23.1702" ry="23.1702"/>
<text text-anchor="middle" x="407" y="-33.8624" font-family="Times,serif" font-size="9.00" fill="#000000">right</text>
</g>
<!-- y&#45;vel&#45;&gt;right -->
<g id="edge23" class="edge">
<title>y&#45;vel&#45;&gt;right</title>
<path fill="none" stroke="#ff0000" stroke-width=".3641" d="M351.2269,-107.826C359.6807,-96.9484 374.0528,-78.4558 386.09,-62.9674"/>
<polygon fill="#ff0000" stroke="#ff0000" stroke-width=".3641" points="389.1118,-64.7829 392.4847,-54.7393 383.5847,-60.4874 389.1118,-64.7829"/>
</g>
<!-- y&#45;vel&#45;&gt;left -->
<g id="edge21" class="edge">
<title>y&#45;vel&#45;&gt;left</title>
<path fill="none" stroke="#00ff00" stroke-width=".6811" d="M336.6584,-107.826C327.4317,-96.1394 311.2652,-75.6629 298.5563,-59.5659"/>
<polygon fill="#00ff00" stroke="#00ff00" stroke-width=".6811" points="301.2244,-57.297 292.2807,-51.6172 295.7303,-61.6347 301.2244,-57.297"/>
</g>
<!-- x&#45;pos -->
<g id="node3" class="node">
<title>x&#45;pos</title>
<polygon fill="#d3d3d3" stroke="#000000" points="487,-126.1249 451,-126.1249 451,-108.1249 487,-108.1249 487,-126.1249"/>
<text text-anchor="middle" x="469" y="-114.9249" font-family="Times,serif" font-size="9.00" fill="#000000">x&#45;pos</text>
</g>
<!-- x&#45;pos&#45;&gt;right -->
<g id="edge20" class="edge">
<title>x&#45;pos&#45;&gt;right</title>
<path fill="none" stroke="#00ff00" stroke-width=".375" d="M461.8878,-107.826C453.5682,-96.9484 439.4242,-78.4558 427.5781,-62.9674"/>
<polygon fill="#00ff00" stroke="#00ff00" stroke-width=".375" points="430.1402,-60.5561 421.2849,-54.7393 424.58,-64.8087 430.1402,-60.5561"/>
</g>
<!-- x&#45;pos&#45;&gt;left -->
<g id="edge16" class="edge">
<title>x&#45;pos&#45;&gt;left</title>
<path fill="none" stroke="#00ff00" stroke-width=".9906" d="M450.7454,-110.8823C447.8292,-109.9306 444.8382,-108.9813 442,-108.1249 383.3724,-90.435 360.2593,-105.6302 309,-72.1249 304.4922,-69.1784 300.3568,-65.3025 296.7078,-61.1858"/>
<polygon fill="#00ff00" stroke="#00ff00" stroke-width=".9906" points="299.284,-58.8021 290.3203,-53.154 293.8053,-63.1592 299.284,-58.8021"/>
</g>
<!-- forward -->
<g id="node16" class="node">
<title>forward</title>
<ellipse fill="#add8e6" stroke="#000000" cx="480" cy="-36.0624" rx="31.6406" ry="31.6406"/>
<text text-anchor="middle" x="480" y="-33.8624" font-family="Times,serif" font-size="9.00" fill="#000000">forward</text>
</g>
<!-- x&#45;pos&#45;&gt;forward -->
<g id="edge14" class="edge">
<title>x&#45;pos&#45;&gt;forward</title>
<path fill="none" stroke="#ff0000" stroke-width=".166" d="M470.2618,-107.826C471.2729,-100.3754 472.7687,-89.3523 474.2862,-78.1689"/>
<polygon fill="#ff0000" stroke="#ff0000" stroke-width=".166" points="477.7962,-78.3312 475.6727,-67.9514 470.8598,-77.3899 477.7962,-78.3312"/>
</g>
<!-- y&#45;pos -->
<g id="node4" class="node">
<title>y&#45;pos</title>
<polygon fill="#d3d3d3" stroke="#000000" points="237,-126.1249 201,-126.1249 201,-108.1249 237,-108.1249 237,-126.1249"/>
<text text-anchor="middle" x="219" y="-114.9249" font-family="Times,serif" font-size="9.00" fill="#000000">y&#45;pos</text>
</g>
<!-- none -->
<g id="node13" class="node">
<title>none</title>
<ellipse fill="#add8e6" stroke="#000000" cx="342" cy="-36.0624" rx="24.0833" ry="24.0833"/>
<text text-anchor="middle" x="342" y="-33.8624" font-family="Times,serif" font-size="9.00" fill="#000000">none</text>
</g>
<!-- y&#45;pos&#45;&gt;none -->
<g id="edge6" class="edge">
<title>y&#45;pos&#45;&gt;none</title>
<path fill="none" stroke="#00ff00" stroke-width=".1082" d="M237.0055,-110.4163C256.0015,-102.8342 286.2745,-89.2822 309,-72.1249 312.8606,-69.2102 316.6381,-65.8056 320.178,-62.2738"/>
<polygon fill="#00ff00" stroke="#00ff00" stroke-width=".1082" points="322.7552,-64.6423 327.0611,-54.9618 317.6582,-59.8443 322.7552,-64.6423"/>
</g>
<!-- y&#45;pos&#45;&gt;right -->
<g id="edge10" class="edge">
<title>y&#45;pos&#45;&gt;right</title>
<path fill="none" stroke="#ff0000" stroke-width=".1806" d="M237.2605,-110.9018C240.1759,-109.9476 243.1651,-108.9924 246,-108.1249 302.9189,-90.708 324.5231,-103.6716 375,-72.1249 379.1302,-69.5436 383.0361,-66.2727 386.6062,-62.7589"/>
<polygon fill="#ff0000" stroke="#ff0000" stroke-width=".1806" points="389.2299,-65.0766 393.4272,-55.3487 384.0796,-60.3359 389.2299,-65.0766"/>
</g>
<!-- y&#45;pos&#45;&gt;left -->
<g id="edge12" class="edge">
<title>y&#45;pos&#45;&gt;left</title>
<path fill="none" stroke="#00ff00" stroke-width=".272" d="M225.9975,-107.826C234.6582,-96.3168 249.7341,-76.2826 261.7596,-60.3019"/>
<polygon fill="#00ff00" stroke="#00ff00" stroke-width=".272" points="264.8503,-62.0156 268.0666,-51.9207 259.2571,-57.8066 264.8503,-62.0156"/>
</g>
<!-- y&#45;pos&#45;&gt;backward -->
<g id="edge26" class="edge">
<title>y&#45;pos&#45;&gt;backward</title>
<path fill="none" stroke="#00ff00" stroke-width=".2723" d="M214.7556,-107.826C211.3745,-100.4183 206.3814,-89.4791 201.3071,-78.362"/>
<polygon fill="#00ff00" stroke="#00ff00" stroke-width=".2723" points="204.3957,-76.6994 197.0593,-69.0556 198.0277,-79.6061 204.3957,-76.6994"/>
</g>
<!-- x&#45;lm1&#45;vec -->
<g id="node5" class="node">
<title>x&#45;lm1&#45;vec</title>
<polygon fill="#d3d3d3" stroke="#000000" points="706.5,-126.1249 653.5,-126.1249 653.5,-108.1249 706.5,-108.1249 706.5,-126.1249"/>
<text text-anchor="middle" x="680" y="-114.9249" font-family="Times,serif" font-size="9.00" fill="#000000">x&#45;lm1&#45;vec</text>
</g>
<!-- y&#45;lm1&#45;vec -->
<g id="node6" class="node">
<title>y&#45;lm1&#45;vec</title>
<polygon fill="#d3d3d3" stroke="#000000" points="182.5,-126.1249 129.5,-126.1249 129.5,-108.1249 182.5,-108.1249 182.5,-126.1249"/>
<text text-anchor="middle" x="156" y="-114.9249" font-family="Times,serif" font-size="9.00" fill="#000000">y&#45;lm1&#45;vec</text>
</g>
<!-- y&#45;lm1&#45;vec&#45;&gt;none -->
<g id="edge4" class="edge">
<title>y&#45;lm1&#45;vec&#45;&gt;none</title>
<path fill="none" stroke="#ff0000" stroke-width=".3081" d="M182.6028,-110.137C223.4777,-99.275 298.1655,-78.8857 309,-72.1249 313.1039,-69.5641 317.0163,-66.3558 320.619,-62.9153"/>
<polygon fill="#ff0000" stroke="#ff0000" stroke-width=".3081" points="323.1703,-65.3115 327.5412,-55.6602 318.1057,-60.4792 323.1703,-65.3115"/>
</g>
<!-- y&#45;lm1&#45;vec&#45;&gt;backward -->
<g id="edge8" class="edge">
<title>y&#45;lm1&#45;vec&#45;&gt;backward</title>
<path fill="none" stroke="#ff0000" stroke-width=".2253" d="M158.9825,-107.826C161.2292,-100.8212 164.4888,-90.6585 167.8517,-80.1737"/>
<polygon fill="#ff0000" stroke="#ff0000" stroke-width=".2253" points="171.2216,-81.1269 170.943,-70.5357 164.556,-78.9889 171.2216,-81.1269"/>
</g>
<!-- x&#45;lm2&#45;vec -->
<g id="node7" class="node">
<title>x&#45;lm2&#45;vec</title>
<polygon fill="#d3d3d3" stroke="#000000" points="432.5,-126.1249 379.5,-126.1249 379.5,-108.1249 432.5,-108.1249 432.5,-126.1249"/>
<text text-anchor="middle" x="406" y="-114.9249" font-family="Times,serif" font-size="9.00" fill="#000000">x&#45;lm2&#45;vec</text>
</g>
<!-- x&#45;lm2&#45;vec&#45;&gt;none -->
<g id="edge5" class="edge">
<title>x&#45;lm2&#45;vec&#45;&gt;none</title>
<path fill="none" stroke="#00ff00" stroke-width=".2289" d="M398.6584,-107.826C390.1258,-97.0186 375.6583,-78.6941 363.4788,-63.2676"/>
<polygon fill="#00ff00" stroke="#00ff00" stroke-width=".2289" points="365.9438,-60.7414 357.0001,-55.0616 360.4497,-65.0791 365.9438,-60.7414"/>
</g>
<!-- x&#45;lm2&#45;vec&#45;&gt;right -->
<g id="edge13" class="edge">
<title>x&#45;lm2&#45;vec&#45;&gt;right</title>
<path fill="none" stroke="#00ff00" stroke-width=".4466" d="M406.1147,-107.826C406.23,-98.4806 406.4146,-83.5144 406.5855,-69.6616"/>
<polygon fill="#00ff00" stroke="#00ff00" stroke-width=".4466" points="410.0884,-69.4394 406.7121,-59.3969 403.089,-69.3529 410.0884,-69.4394"/>
</g>
<!-- x&#45;lm2&#45;vec&#45;&gt;left -->
<g id="edge15" class="edge">
<title>x&#45;lm2&#45;vec&#45;&gt;left</title>
<path fill="none" stroke="#ff0000" stroke-width=".7393" d="M379.4865,-108.5909C358.8941,-101.1148 330.346,-88.827 309,-72.1249 304.8358,-68.8666 300.896,-64.9003 297.3405,-60.8052"/>
<polygon fill="#ff0000" stroke="#ff0000" stroke-width=".7393" points="300.0062,-58.5347 291.0189,-52.9241 294.5458,-62.9147 300.0062,-58.5347"/>
</g>
<!-- x&#45;lm2&#45;vec&#45;&gt;forward -->
<g id="edge19" class="edge">
<title>x&#45;lm2&#45;vec&#45;&gt;forward</title>
<path fill="none" stroke="#ff0000" stroke-width=".5488" d="M414.4887,-107.826C423.5407,-97.9101 438.3694,-81.6662 451.6314,-67.1386"/>
<polygon fill="#ff0000" stroke="#ff0000" stroke-width=".5488" points="454.2276,-69.4858 458.3848,-59.7406 449.0578,-64.7664 454.2276,-69.4858"/>
</g>
<!-- x&#45;lm2&#45;vec&#45;&gt;backward -->
<g id="edge30" class="edge">
<title>x&#45;lm2&#45;vec&#45;&gt;backward</title>
<path fill="none" stroke="#ff0000" stroke-width=".1939" d="M379.3156,-110.0677C341.5236,-99.9551 274.4003,-81.5277 251,-72.1249 241.4995,-68.3074 231.58,-63.5916 222.3213,-58.8433"/>
<polygon fill="#ff0000" stroke="#ff0000" stroke-width=".1939" points="223.8034,-55.6684 213.3228,-54.1163 220.548,-61.8654 223.8034,-55.6684"/>
</g>
<!-- y&#45;lm2&#45;vec -->
<g id="node8" class="node">
<title>y&#45;lm2&#45;vec</title>
<polygon fill="#d3d3d3" stroke="#000000" points="308.5,-126.1249 255.5,-126.1249 255.5,-108.1249 308.5,-108.1249 308.5,-126.1249"/>
<text text-anchor="middle" x="282" y="-114.9249" font-family="Times,serif" font-size="9.00" fill="#000000">y&#45;lm2&#45;vec</text>
</g>
<!-- y&#45;lm2&#45;vec&#45;&gt;none -->
<g id="edge29" class="edge">
<title>y&#45;lm2&#45;vec&#45;&gt;none</title>
<path fill="none" stroke="#00ff00" stroke-width=".5373" stroke-dasharray="1,5" d="M288.8828,-107.826C296.7782,-97.159 310.094,-79.1688 321.4176,-63.87"/>
<polygon fill="#00ff00" stroke="#00ff00" stroke-width=".5373" points="324.3204,-65.8313 327.4565,-55.7113 318.694,-61.6668 324.3204,-65.8313"/>
</g>
<!-- y&#45;lm2&#45;vec&#45;&gt;right -->
<g id="edge24" class="edge">
<title>y&#45;lm2&#45;vec&#45;&gt;right</title>
<path fill="none" stroke="#00ff00" stroke-width=".1863" d="M307.1898,-108.093C326.806,-100.3423 354.1183,-87.9281 375,-72.1249 378.7043,-69.3215 382.3065,-66.0386 385.6767,-62.616"/>
<polygon fill="#00ff00" stroke="#00ff00" stroke-width=".1863" points="388.453,-64.7671 392.6337,-55.0319 383.2946,-60.0351 388.453,-64.7671"/>
</g>
<!-- y&#45;lm2&#45;vec&#45;&gt;left -->
<g id="edge3" class="edge">
<title>y&#45;lm2&#45;vec&#45;&gt;left</title>
<path fill="none" stroke="#ff0000" stroke-width=".1831" stroke-dasharray="1,5" d="M281.7706,-107.826C281.5212,-97.7197 281.1097,-81.04 280.7461,-66.3037"/>
<polygon fill="#ff0000" stroke="#ff0000" stroke-width=".1831" points="284.2385,-65.9492 280.4929,-56.0386 277.2407,-66.1219 284.2385,-65.9492"/>
</g>
<!-- y&#45;lm2&#45;vec&#45;&gt;forward -->
<g id="edge22" class="edge">
<title>y&#45;lm2&#45;vec&#45;&gt;forward</title>
<path fill="none" stroke="#00ff00" stroke-width=".4693" d="M308.5374,-110.2012C350.2109,-99.2265 427.4621,-78.4322 439,-72.1249 442.5481,-70.1853 446.0522,-67.8908 449.4283,-65.4135"/>
<polygon fill="#00ff00" stroke="#00ff00" stroke-width=".4693" points="451.8676,-67.9452 457.5093,-58.9773 447.5066,-62.4697 451.8676,-67.9452"/>
</g>
<!-- y&#45;lm2&#45;vec&#45;&gt;backward -->
<g id="edge11" class="edge">
<title>y&#45;lm2&#45;vec&#45;&gt;backward</title>
<path fill="none" stroke="#ff0000" stroke-width=".8076" d="M270.5287,-107.826C257.8939,-97.5839 236.9306,-80.5906 218.5746,-65.7107"/>
<polygon fill="#ff0000" stroke="#ff0000" stroke-width=".8076" points="220.3358,-62.6328 210.3635,-59.0546 215.9277,-68.0706 220.3358,-62.6328"/>
</g>
<!-- x&#45;other&#45;vec -->
<g id="node9" class="node">
<title>x&#45;other&#45;vec</title>
<polygon fill="#d3d3d3" stroke="#000000" points="783,-126.1249 725,-126.1249 725,-108.1249 783,-108.1249 783,-126.1249"/>
<text text-anchor="middle" x="754" y="-114.9249" font-family="Times,serif" font-size="9.00" fill="#000000">x&#45;other&#45;vec</text>
</g>
<!-- y&#45;other&#45;vec -->
<g id="node10" class="node">
<title>y&#45;other&#45;vec</title>
<polygon fill="#d3d3d3" stroke="#000000" points="58,-126.1249 0,-126.1249 0,-108.1249 58,-108.1249 58,-126.1249"/>
<text text-anchor="middle" x="29" y="-114.9249" font-family="Times,serif" font-size="9.00" fill="#000000">y&#45;other&#45;vec</text>
</g>
<!-- y&#45;other&#45;vec&#45;&gt;backward -->
<g id="edge1" class="edge">
<title>y&#45;other&#45;vec&#45;&gt;backward</title>
<path fill="none" stroke="#ff0000" stroke-width=".3882" d="M46.2536,-107.9836C69.0863,-95.8864 110.062,-74.1766 141.0403,-57.7637"/>
<polygon fill="#ff0000" stroke="#ff0000" stroke-width=".3882" points="142.6971,-60.8469 149.8949,-53.0724 139.4199,-54.6614 142.6971,-60.8469"/>
</g>
<!-- x&#45;other&#45;vel -->
<g id="node11" class="node">
<title>x&#45;other&#45;vel</title>
<polygon fill="#d3d3d3" stroke="#000000" points="561,-126.1249 505,-126.1249 505,-108.1249 561,-108.1249 561,-126.1249"/>
<text text-anchor="middle" x="533" y="-114.9249" font-family="Times,serif" font-size="9.00" fill="#000000">x&#45;other&#45;vel</text>
</g>
<!-- x&#45;other&#45;vel&#45;&gt;none -->
<g id="edge9" class="edge">
<title>x&#45;other&#45;vel&#45;&gt;none</title>
<path fill="none" stroke="#00ff00" stroke-width=".5023" d="M504.8389,-109.9968C462.4841,-99.1421 386.13,-79.0038 375,-72.1249 370.8852,-69.5817 366.9667,-66.3832 363.3612,-62.9473"/>
<polygon fill="#00ff00" stroke="#00ff00" stroke-width=".5023" points="365.8742,-60.511 356.4372,-55.6951 360.8112,-65.3449 365.8742,-60.511"/>
</g>
<!-- x&#45;other&#45;vel&#45;&gt;right -->
<g id="edge18" class="edge">
<title>x&#45;other&#45;vel&#45;&gt;right</title>
<path fill="none" stroke="#ff0000" stroke-width=".2233" stroke-dasharray="1,5" d="M507.1257,-107.9856C487.3265,-100.2529 459.9525,-87.913 439,-72.1249 435.2898,-69.3292 431.6844,-66.0508 428.3126,-62.6303"/>
<polygon fill="#ff0000" stroke="#ff0000" stroke-width=".2233" points="430.6944,-60.0492 421.3544,-55.0476 425.5368,-64.782 430.6944,-60.0492"/>
</g>
<!-- x&#45;other&#45;vel&#45;&gt;forward -->
<g id="edge2" class="edge">
<title>x&#45;other&#45;vel&#45;&gt;forward</title>
<path fill="none" stroke="#00ff00" stroke-width=".4028" d="M526.9202,-107.826C521.0765,-98.8881 511.8711,-84.8087 503.1561,-71.4792"/>
<polygon fill="#00ff00" stroke="#00ff00" stroke-width=".4028" points="505.9419,-69.3442 497.5401,-62.8897 500.0831,-73.1749 505.9419,-69.3442"/>
</g>
<!-- y&#45;other&#45;vel -->
<g id="node12" class="node">
<title>y&#45;other&#45;vel</title>
<polygon fill="#d3d3d3" stroke="#000000" points="635,-126.1249 579,-126.1249 579,-108.1249 635,-108.1249 635,-126.1249"/>
<text text-anchor="middle" x="607" y="-114.9249" font-family="Times,serif" font-size="9.00" fill="#000000">y&#45;other&#45;vel</text>
</g>
<!-- y&#45;other&#45;vel&#45;&gt;none -->
<g id="edge25" class="edge">
<title>y&#45;other&#45;vel&#45;&gt;none</title>
<path fill="none" stroke="#00ff00" stroke-width=".1306" d="M578.7556,-110.0821C575.8043,-109.3978 572.8445,-108.7329 570,-108.1249 483.8157,-89.7027 452.0817,-114.851 375,-72.1249 370.681,-69.7309 366.6205,-66.5621 362.9241,-63.0944"/>
<polygon fill="#00ff00" stroke="#00ff00" stroke-width=".1306" points="365.316,-60.531 355.882,-55.7091 360.2499,-65.3617 365.316,-60.531"/>
</g>
<!-- y&#45;other&#45;vel&#45;&gt;right -->
<g id="edge17" class="edge">
<title>y&#45;other&#45;vel&#45;&gt;right</title>
<path fill="none" stroke="#00ff00" stroke-width=".3026" d="M578.6449,-109.9823C532.3443,-98.2552 445.0208,-75.8442 439,-72.1249 434.8564,-69.5652 430.9432,-66.306 427.3698,-62.7976"/>
<polygon fill="#00ff00" stroke="#00ff00" stroke-width=".3026" points="429.8963,-60.3744 420.547,-55.3902 424.7475,-65.1168 429.8963,-60.3744"/>
</g>
<!-- y&#45;other&#45;vel&#45;&gt;forward -->
<g id="edge27" class="edge">
<title>y&#45;other&#45;vel&#45;&gt;forward</title>
<path fill="none" stroke="#ff0000" stroke-width=".2335" d="M592.4315,-107.826C573.8977,-95.9962 541.2531,-75.1595 515.8983,-58.9759"/>
<polygon fill="#ff0000" stroke="#ff0000" stroke-width=".2335" points="517.5814,-55.898 507.2691,-53.4679 513.8152,-61.7985 517.5814,-55.898"/>
</g>
</g>
</svg>
