<?xml version="1.0" encoding="UTF-8" standalone="no"?>
<!DOCTYPE svg PUBLIC "-//W3C//DTD SVG 1.1//EN"
 "http://www.w3.org/Graphics/SVG/1.1/DTD/svg11.dtd">
<!-- Generated by graphviz version 2.40.1 (20161225.0304)
 -->
<!-- Title: %3 Pages: 1 -->
<svg width="1718pt" height="331pt"
 viewBox="0.00 0.00 1718.17 330.58" xmlns="http://www.w3.org/2000/svg" xmlns:xlink="http://www.w3.org/1999/xlink">
<g id="graph0" class="graph" transform="scale(1 1) rotate(0) translate(4 326.5757)">
<title>%3</title>
<polygon fill="#ffffff" stroke="transparent" points="-4,4 -4,-326.5757 1714.1663,-326.5757 1714.1663,4 -4,4"/>
<!-- A_agent -->
<g id="node1" class="node">
<title>A_agent</title>
<polygon fill="#d3d3d3" stroke="#000000" points="96.9805,-322.5757 49.9805,-322.5757 49.9805,-304.5757 96.9805,-304.5757 96.9805,-322.5757"/>
<text text-anchor="middle" x="73.4805" y="-311.3757" font-family="Times,serif" font-size="9.00" fill="#000000">A_agent</text>
</g>
<!-- left -->
<g id="node20" class="node">
<title>left</title>
<ellipse fill="#add8e6" stroke="#000000" cx="345.4805" cy="-55.8614" rx="19.6" ry="19.6"/>
<text text-anchor="middle" x="345.4805" y="-53.6614" font-family="Times,serif" font-size="9.00" fill="#000000">left</text>
</g>
<!-- A_agent&#45;&gt;left -->
<g id="edge40" class="edge">
<title>A_agent&#45;&gt;left</title>
<path fill="none" stroke="#00ff00" stroke-width=".1534" d="M75.9886,-304.4449C83.8785,-277.238 110.6156,-195.6381 159.4805,-147.7229 183.5576,-124.1136 271.9334,-85.8918 317.6581,-67.0677"/>
<polygon fill="#00ff00" stroke="#00ff00" stroke-width=".1534" points="319.0609,-70.2754 326.9921,-63.2507 316.4113,-63.7962 319.0609,-70.2754"/>
</g>
<!-- forward -->
<g id="node21" class="node">
<title>forward</title>
<ellipse fill="#add8e6" stroke="#000000" cx="174.4805" cy="-55.8614" rx="31.6406" ry="31.6406"/>
<text text-anchor="middle" x="174.4805" y="-53.6614" font-family="Times,serif" font-size="9.00" fill="#000000">forward</text>
</g>
<!-- A_agent&#45;&gt;forward -->
<g id="edge5" class="edge">
<title>A_agent&#45;&gt;forward</title>
<path fill="none" stroke="#ff0000" stroke-width=".1882" d="M64.4956,-304.4806C40.1355,-278.6859 -23.2064,-203.332 9.4805,-147.7229 36.1304,-102.3843 94.1641,-77.797 133.7893,-65.7565"/>
<polygon fill="#ff0000" stroke="#ff0000" stroke-width=".1882" points="134.806,-69.1059 143.4366,-62.9606 132.8575,-62.3825 134.806,-69.1059"/>
</g>
<!-- 363 -->
<g id="node27" class="node">
<title>363</title>
<ellipse fill="#ffffff" stroke="#000000" cx="552.4805" cy="-247.3625" rx="21.4286" ry="21.4286"/>
<text text-anchor="middle" x="552.4805" y="-245.1625" font-family="Times,serif" font-size="9.00" fill="#000000">363</text>
</g>
<!-- A_agent&#45;&gt;363 -->
<g id="edge71" class="edge">
<title>A_agent&#45;&gt;363</title>
<path fill="none" stroke="#00ff00" stroke-width=".4244" stroke-dasharray="1,5" d="M97.0668,-312.744C177.7614,-309.6609 442.1793,-297.5328 521.4805,-268.5757 523.3642,-267.8879 525.2426,-267.0592 527.0898,-266.1335"/>
<polygon fill="#00ff00" stroke="#00ff00" stroke-width=".4244" points="529.1188,-269 535.9464,-260.8985 525.5568,-262.9739 529.1188,-269"/>
</g>
<!-- A_lm -->
<g id="node2" class="node">
<title>A_lm</title>
<polygon fill="#d3d3d3" stroke="#000000" points="1022.9805,-177.9361 985.9805,-177.9361 985.9805,-159.9361 1022.9805,-159.9361 1022.9805,-177.9361"/>
<text text-anchor="middle" x="1004.4805" y="-166.7361" font-family="Times,serif" font-size="9.00" fill="#000000">A_lm</text>
</g>
<!-- none -->
<g id="node18" class="node">
<title>none</title>
<ellipse fill="#add8e6" stroke="#000000" cx="633.4805" cy="-55.8614" rx="24.0833" ry="24.0833"/>
<text text-anchor="middle" x="633.4805" y="-53.6614" font-family="Times,serif" font-size="9.00" fill="#000000">none</text>
</g>
<!-- A_lm&#45;&gt;none -->
<g id="edge7" class="edge">
<title>A_lm&#45;&gt;none</title>
<path fill="none" stroke="#00ff00" stroke-width=".275" stroke-dasharray="1,5" d="M985.8283,-163.2512C926.6058,-145.2012 742.2819,-89.0223 666.5131,-65.9292"/>
<polygon fill="#00ff00" stroke="#00ff00" stroke-width=".275" points="667.1526,-62.4652 656.5666,-62.8977 665.1118,-69.1612 667.1526,-62.4652"/>
</g>
<!-- counterclockwise -->
<g id="node23" class="node">
<title>counterclockwise</title>
<ellipse fill="#add8e6" stroke="#000000" cx="1257.4805" cy="-55.8614" rx="55.7232" ry="55.7232"/>
<text text-anchor="middle" x="1257.4805" y="-53.6614" font-family="Times,serif" font-size="9.00" fill="#000000">counterclockwise</text>
</g>
<!-- A_lm&#45;&gt;counterclockwise -->
<g id="edge73" class="edge">
<title>A_lm&#45;&gt;counterclockwise</title>
<path fill="none" stroke="#00ff00" stroke-width=".3715" d="M1014.428,-159.7319C1019.4949,-155.4983 1025.9537,-150.7544 1032.4805,-147.7229 1098.5863,-117.0176 1127.3512,-144.4484 1192.4805,-111.7229 1198.2391,-108.8293 1203.9097,-105.3159 1209.3573,-101.4751"/>
<polygon fill="#00ff00" stroke="#00ff00" stroke-width=".3715" points="1211.8113,-104.0099 1217.7148,-95.2122 1207.6135,-98.4082 1211.8113,-104.0099"/>
</g>
<!-- clockwise -->
<g id="node24" class="node">
<title>clockwise</title>
<ellipse fill="#add8e6" stroke="#000000" cx="919.4805" cy="-55.8614" rx="36.5405" ry="36.5405"/>
<text text-anchor="middle" x="919.4805" y="-53.6614" font-family="Times,serif" font-size="9.00" fill="#000000">clockwise</text>
</g>
<!-- A_lm&#45;&gt;clockwise -->
<g id="edge30" class="edge">
<title>A_lm&#45;&gt;clockwise</title>
<path fill="none" stroke="#00ff00" stroke-width=".1441" d="M997.5246,-159.6827C986.7424,-145.3393 965.3977,-116.9446 947.7521,-93.4709"/>
<polygon fill="#00ff00" stroke="#00ff00" stroke-width=".1441" points="950.4948,-91.2947 941.6883,-85.4043 944.8994,-95.5008 950.4948,-91.2947"/>
</g>
<!-- B_agent -->
<g id="node3" class="node">
<title>B_agent</title>
<polygon fill="#d3d3d3" stroke="#000000" points="789.4805,-177.9361 743.4805,-177.9361 743.4805,-159.9361 789.4805,-159.9361 789.4805,-177.9361"/>
<text text-anchor="middle" x="766.4805" y="-166.7361" font-family="Times,serif" font-size="9.00" fill="#000000">B_agent</text>
</g>
<!-- B_agent&#45;&gt;none -->
<g id="edge56" class="edge">
<title>B_agent&#45;&gt;none</title>
<path fill="none" stroke="#00ff00" stroke-width=".572" d="M755.5965,-159.6827C734.8414,-142.037 689.0724,-103.1249 659.8397,-78.2717"/>
<polygon fill="#00ff00" stroke="#00ff00" stroke-width=".572" points="661.9534,-75.4747 652.0676,-71.6639 657.4193,-80.8078 661.9534,-75.4747"/>
</g>
<!-- right -->
<g id="node19" class="node">
<title>right</title>
<ellipse fill="#add8e6" stroke="#000000" cx="1405.4805" cy="-55.8614" rx="23.1702" ry="23.1702"/>
<text text-anchor="middle" x="1405.4805" y="-53.6614" font-family="Times,serif" font-size="9.00" fill="#000000">right</text>
</g>
<!-- B_agent&#45;&gt;right -->
<g id="edge57" class="edge">
<title>B_agent&#45;&gt;right</title>
<path fill="none" stroke="#ff0000" stroke-width=".1504" d="M789.4958,-160.561C803.001,-156.0016 820.501,-150.6983 836.4805,-147.7229 1049.4124,-108.0745 1117.7988,-182.5565 1322.4805,-111.7229 1343.5317,-104.4377 1364.3218,-90.432 1379.8289,-78.2678"/>
<polygon fill="#ff0000" stroke="#ff0000" stroke-width=".1504" points="1382.3022,-80.7685 1387.8686,-71.7537 1377.8954,-75.3297 1382.3022,-80.7685"/>
</g>
<!-- B_agent&#45;&gt;left -->
<g id="edge44" class="edge">
<title>B_agent&#45;&gt;left</title>
<path fill="none" stroke="#ff0000" stroke-width=".4977" d="M743.194,-161.7634C729.3628,-157.5569 711.4592,-152.2054 695.4805,-147.7229 577.0792,-114.5073 435.1115,-78.3789 374.8426,-63.2122"/>
<polygon fill="#ff0000" stroke="#ff0000" stroke-width=".4977" points="375.4445,-59.7548 364.893,-60.7122 373.7386,-66.5437 375.4445,-59.7548"/>
</g>
<!-- B_agent&#45;&gt;forward -->
<g id="edge48" class="edge">
<title>B_agent&#45;&gt;forward</title>
<path fill="none" stroke="#00ff00" stroke-width=".3557" stroke-dasharray="1,5" d="M743.4231,-160.7982C729.6706,-156.2598 711.7695,-150.8981 695.4805,-147.7229 529.4038,-115.349 481.0423,-151.0792 316.4805,-111.7229 280.065,-103.0138 240.5764,-86.8942 212.5077,-74.2013"/>
<polygon fill="#00ff00" stroke="#00ff00" stroke-width=".3557" points="213.6277,-70.8643 203.0794,-69.8723 210.7068,-77.2258 213.6277,-70.8643"/>
</g>
<!-- backward -->
<g id="node22" class="node">
<title>backward</title>
<ellipse fill="#add8e6" stroke="#000000" cx="1147.4805" cy="-55.8614" rx="36.125" ry="36.125"/>
<text text-anchor="middle" x="1147.4805" y="-53.6614" font-family="Times,serif" font-size="9.00" fill="#000000">backward</text>
</g>
<!-- B_agent&#45;&gt;backward -->
<g id="edge8" class="edge">
<title>B_agent&#45;&gt;backward</title>
<path fill="none" stroke="#00ff00" stroke-width=".437" d="M789.7754,-161.7359C803.3738,-157.568 820.8738,-152.2647 836.4805,-147.7229 893.6335,-131.0902 908.3571,-128.457 965.4805,-111.7229 1012.5944,-97.9209 1066.3062,-81.3294 1103.0985,-69.8319"/>
<polygon fill="#00ff00" stroke="#00ff00" stroke-width=".437" points="1104.5095,-73.0578 1113.0077,-66.7306 1102.4187,-66.3773 1104.5095,-73.0578"/>
</g>
<!-- B_agent&#45;&gt;counterclockwise -->
<g id="edge3" class="edge">
<title>B_agent&#45;&gt;counterclockwise</title>
<path fill="none" stroke="#ff0000" stroke-width=".5579" stroke-dasharray="1,5" d="M789.5269,-160.7217C803.0423,-156.2158 820.5423,-150.9125 836.4805,-147.7229 992.4177,-116.5161 1046.3387,-174.4353 1192.4805,-111.7229 1198.4029,-109.1814 1204.1819,-105.9009 1209.6965,-102.2042"/>
<polygon fill="#ff0000" stroke="#ff0000" stroke-width=".5579" points="1212.0809,-104.7989 1218.1274,-96.0988 1207.9752,-99.1294 1212.0809,-104.7989"/>
</g>
<!-- B_agent&#45;&gt;clockwise -->
<g id="edge25" class="edge">
<title>B_agent&#45;&gt;clockwise</title>
<path fill="none" stroke="#00ff00" stroke-width=".326" d="M778.7425,-159.8738C800.7725,-143.5926 847.8851,-108.774 881.5299,-83.9088"/>
<polygon fill="#00ff00" stroke="#00ff00" stroke-width=".326" points="883.8082,-86.5772 889.77,-77.8189 879.6477,-80.9477 883.8082,-86.5772"/>
</g>
<!-- B_lm -->
<g id="node4" class="node">
<title>B_lm</title>
<polygon fill="#d3d3d3" stroke="#000000" points="1329.9805,-177.9361 1292.9805,-177.9361 1292.9805,-159.9361 1329.9805,-159.9361 1329.9805,-177.9361"/>
<text text-anchor="middle" x="1311.4805" y="-166.7361" font-family="Times,serif" font-size="9.00" fill="#000000">B_lm</text>
</g>
<!-- B_lm&#45;&gt;right -->
<g id="edge33" class="edge">
<title>B_lm&#45;&gt;right</title>
<path fill="none" stroke="#00ff00" stroke-width=".5397" stroke-dasharray="1,5" d="M1319.1729,-159.6827C1333.1185,-142.9073 1363.0421,-106.9115 1383.7119,-82.0473"/>
<polygon fill="#00ff00" stroke="#00ff00" stroke-width=".5397" points="1386.6292,-84.0131 1390.3304,-74.0857 1381.2463,-79.5382 1386.6292,-84.0131"/>
</g>
<!-- B_lm&#45;&gt;clockwise -->
<g id="edge39" class="edge">
<title>B_lm&#45;&gt;clockwise</title>
<path fill="none" stroke="#00ff00" stroke-width=".7981" d="M1302.2203,-159.8646C1297.3198,-155.5567 1290.9809,-150.7089 1284.4805,-147.7229 1209.5518,-113.3034 1182.4587,-131.7852 1102.4805,-111.7229 1054.9172,-99.7918 1001.3571,-83.0457 964.532,-71.005"/>
<polygon fill="#00ff00" stroke="#00ff00" stroke-width=".7981" points="965.201,-67.5407 954.6081,-67.7416 963.0143,-74.1904 965.201,-67.5407"/>
</g>
<!-- C_agent -->
<g id="node5" class="node">
<title>C_agent</title>
<polygon fill="#d3d3d3" stroke="#000000" points="235.4805,-256.3625 189.4805,-256.3625 189.4805,-238.3625 235.4805,-238.3625 235.4805,-256.3625"/>
<text text-anchor="middle" x="212.4805" y="-245.1625" font-family="Times,serif" font-size="9.00" fill="#000000">C_agent</text>
</g>
<!-- C_agent&#45;&gt;none -->
<g id="edge55" class="edge">
<title>C_agent&#45;&gt;none</title>
<path fill="none" stroke="#00ff00" stroke-width=".5343" d="M232.503,-238.2548C300.1031,-207.5054 520.2328,-107.3746 602.2806,-70.0534"/>
<polygon fill="#00ff00" stroke="#00ff00" stroke-width=".5343" points="603.929,-73.1487 611.5824,-65.8223 601.0306,-66.7769 603.929,-73.1487"/>
</g>
<!-- C_agent&#45;&gt;left -->
<g id="edge50" class="edge">
<title>C_agent&#45;&gt;left</title>
<path fill="none" stroke="#00ff00" stroke-width=".6078" d="M202.6358,-238.177C184.521,-220.1296 149.4295,-179.074 168.4805,-147.7229 185.237,-120.1475 271.4333,-84.0262 317.0624,-66.4241"/>
<polygon fill="#00ff00" stroke="#00ff00" stroke-width=".6078" points="318.5749,-69.5932 326.6715,-62.7598 316.0808,-63.0526 318.5749,-69.5932"/>
</g>
<!-- C_agent&#45;&gt;forward -->
<g id="edge12" class="edge">
<title>C_agent&#45;&gt;forward</title>
<path fill="none" stroke="#ff0000" stroke-width=".3504" stroke-dasharray="1,5" d="M189.2607,-243.8916C142.9359,-236.4423 41.7359,-217.3613 21.4805,-190.1493 -17.1207,-138.2907 77.5542,-91.9806 134.755,-69.7661"/>
<polygon fill="#ff0000" stroke="#ff0000" stroke-width=".3504" points="136.1642,-72.975 144.2731,-66.1562 133.6818,-66.4299 136.1642,-72.975"/>
</g>
<!-- C_agent&#45;&gt;backward -->
<g id="edge1" class="edge">
<title>C_agent&#45;&gt;backward</title>
<path fill="none" stroke="#00ff00" stroke-width=".2126" d="M235.4809,-242.0988C258.4042,-237.0861 294.6785,-229.783 326.4805,-226.1493 372.116,-220.935 1120.7163,-223.328 1152.4805,-190.1493 1175.0203,-166.6057 1171.4697,-128.7651 1163.5925,-99.244"/>
<polygon fill="#00ff00" stroke="#00ff00" stroke-width=".2126" points="1166.9371,-98.2109 1160.7866,-89.5841 1160.215,-100.1635 1166.9371,-98.2109"/>
</g>
<!-- C_agent&#45;&gt;clockwise -->
<g id="edge18" class="edge">
<title>C_agent&#45;&gt;clockwise</title>
<path fill="none" stroke="#00ff00" stroke-width=".1347" d="M235.5278,-242.4659C258.4868,-237.7321 294.7875,-230.6354 326.4805,-226.1493 408.0566,-214.6023 621.7416,-226.8995 695.4805,-190.1493 718.4038,-178.7247 714.0007,-163.104 734.4805,-147.7229 778.4918,-114.6685 836.2332,-88.2278 875.4182,-72.3528"/>
<polygon fill="#00ff00" stroke="#00ff00" stroke-width=".1347" points="876.9692,-75.5025 884.9611,-68.5469 874.3759,-69.0005 876.9692,-75.5025"/>
</g>
<!-- 177 -->
<g id="node28" class="node">
<title>177</title>
<ellipse fill="#ffffff" stroke="#000000" cx="198.4805" cy="-168.9361" rx="21.4286" ry="21.4286"/>
<text text-anchor="middle" x="198.4805" y="-166.7361" font-family="Times,serif" font-size="9.00" fill="#000000">177</text>
</g>
<!-- C_agent&#45;&gt;177 -->
<g id="edge62" class="edge">
<title>C_agent&#45;&gt;177</title>
<path fill="none" stroke="#ff0000" stroke-width=".4891" d="M210.8195,-238.058C209.1457,-228.6814 206.4691,-213.6875 204.036,-200.0574"/>
<polygon fill="#ff0000" stroke="#ff0000" stroke-width=".4891" points="207.4464,-199.245 202.2434,-190.0158 200.5553,-200.4752 207.4464,-199.245"/>
</g>
<!-- C_lm -->
<g id="node6" class="node">
<title>C_lm</title>
<polygon fill="#d3d3d3" stroke="#000000" points="1142.9805,-177.9361 1105.9805,-177.9361 1105.9805,-159.9361 1142.9805,-159.9361 1142.9805,-177.9361"/>
<text text-anchor="middle" x="1124.4805" y="-166.7361" font-family="Times,serif" font-size="9.00" fill="#000000">C_lm</text>
</g>
<!-- C_lm&#45;&gt;none -->
<g id="edge4" class="edge">
<title>C_lm&#45;&gt;none</title>
<path fill="none" stroke="#00ff00" stroke-width=".3427" d="M1115.2648,-159.7653C1110.3757,-155.4321 1104.0335,-150.5917 1097.4805,-147.7229 1005.1111,-107.2851 972.4217,-131.1638 873.4805,-111.7229 799.1356,-97.1149 712.79,-75.983 666.6307,-64.3456"/>
<polygon fill="#00ff00" stroke="#00ff00" stroke-width=".3427" points="667.4229,-60.9358 656.8698,-61.875 665.7052,-67.7218 667.4229,-60.9358"/>
</g>
<!-- C_lm&#45;&gt;backward -->
<g id="edge19" class="edge">
<title>C_lm&#45;&gt;backward</title>
<path fill="none" stroke="#ff0000" stroke-width=".5256" d="M1126.3627,-159.6827C1128.956,-146.9332 1133.8075,-123.0818 1138.207,-101.4527"/>
<polygon fill="#ff0000" stroke="#ff0000" stroke-width=".5256" points="1141.6889,-101.8935 1140.2524,-91.3965 1134.8294,-100.4982 1141.6889,-101.8935"/>
</g>
<!-- C_lm&#45;&gt;counterclockwise -->
<g id="edge60" class="edge">
<title>C_lm&#45;&gt;counterclockwise</title>
<path fill="none" stroke="#ff0000" stroke-width=".1648" stroke-dasharray="1,5" d="M1135.5819,-159.6564C1149.0693,-148.3683 1172.4997,-128.7135 1192.4805,-111.7229 1197.2413,-107.6745 1202.1896,-103.4509 1207.1356,-99.2186"/>
<polygon fill="#ff0000" stroke="#ff0000" stroke-width=".1648" points="1209.562,-101.7486 1214.8789,-92.5844 1205.0077,-96.4328 1209.562,-101.7486"/>
</g>
<!-- C_lm&#45;&gt;clockwise -->
<g id="edge49" class="edge">
<title>C_lm&#45;&gt;clockwise</title>
<path fill="none" stroke="#ff0000" stroke-width=".1529" d="M1113.7939,-159.7773C1108.9673,-155.8439 1103.0972,-151.3324 1097.4805,-147.7229 1053.4378,-119.4192 999.6379,-92.6363 962.7881,-75.3738"/>
<polygon fill="#ff0000" stroke="#ff0000" stroke-width=".1529" points="963.8779,-72.0208 953.3343,-70.9798 960.9274,-78.3687 963.8779,-72.0208"/>
</g>
<!-- D_agent -->
<g id="node7" class="node">
<title>D_agent</title>
<polygon fill="#d3d3d3" stroke="#000000" points="1457.9805,-177.9361 1410.9805,-177.9361 1410.9805,-159.9361 1457.9805,-159.9361 1457.9805,-177.9361"/>
<text text-anchor="middle" x="1434.4805" y="-166.7361" font-family="Times,serif" font-size="9.00" fill="#000000">D_agent</text>
</g>
<!-- D_agent&#45;&gt;right -->
<g id="edge36" class="edge">
<title>D_agent&#45;&gt;right</title>
<path fill="none" stroke="#ff0000" stroke-width=".3456" d="M1432.1073,-159.6827C1428.1776,-144.3602 1420.1354,-113.0027 1413.9125,-88.7388"/>
<polygon fill="#ff0000" stroke="#ff0000" stroke-width=".3456" points="1417.2488,-87.6587 1411.3742,-78.8417 1410.4682,-89.3977 1417.2488,-87.6587"/>
</g>
<!-- D_agent&#45;&gt;left -->
<g id="edge24" class="edge">
<title>D_agent&#45;&gt;left</title>
<path fill="none" stroke="#00ff00" stroke-width=".2367" stroke-dasharray="1,5" d="M1423.9984,-159.8757C1418.0919,-155.3416 1410.3386,-150.2845 1402.4805,-147.7229 1232.8639,-92.4293 777.3708,-134.8954 600.4805,-111.7229 517.5529,-100.8594 421.6735,-76.6296 374.6092,-63.9495"/>
<polygon fill="#00ff00" stroke="#00ff00" stroke-width=".2367" points="375.363,-60.5275 364.7951,-61.2815 373.5266,-67.2823 375.363,-60.5275"/>
</g>
<!-- D_agent&#45;&gt;backward -->
<g id="edge9" class="edge">
<title>D_agent&#45;&gt;backward</title>
<path fill="none" stroke="#00ff00" stroke-width=".2806" d="M1423.2775,-159.8332C1417.4115,-155.5172 1409.9155,-150.6718 1402.4805,-147.7229 1314.4563,-112.8108 1274.1251,-159.6943 1192.4805,-111.7229 1185.0718,-107.3698 1178.3877,-101.3051 1172.5759,-94.7678"/>
<polygon fill="#00ff00" stroke="#00ff00" stroke-width=".2806" points="1175.2113,-92.4619 1166.1628,-86.9505 1169.7994,-96.9017 1175.2113,-92.4619"/>
</g>
<!-- D_agent&#45;&gt;counterclockwise -->
<g id="edge22" class="edge">
<title>D_agent&#45;&gt;counterclockwise</title>
<path fill="none" stroke="#ff0000" stroke-width=".5166" d="M1420.818,-159.7895C1415.1605,-156.0253 1408.5213,-151.6381 1402.4805,-147.7229 1373.2586,-128.7835 1340.5024,-107.9945 1313.527,-90.9905"/>
<polygon fill="#ff0000" stroke="#ff0000" stroke-width=".5166" points="1315.3106,-87.9775 1304.9837,-85.6098 1311.5802,-93.9007 1315.3106,-87.9775"/>
</g>
<!-- D_lm -->
<g id="node8" class="node">
<title>D_lm</title>
<polygon fill="#d3d3d3" stroke="#000000" points="512.9805,-256.3625 475.9805,-256.3625 475.9805,-238.3625 512.9805,-238.3625 512.9805,-256.3625"/>
<text text-anchor="middle" x="494.4805" y="-245.1625" font-family="Times,serif" font-size="9.00" fill="#000000">D_lm</text>
</g>
<!-- D_lm&#45;&gt;none -->
<g id="edge21" class="edge">
<title>D_lm&#45;&gt;none</title>
<path fill="none" stroke="#00ff00" stroke-width=".145" stroke-dasharray="1,5" d="M497.801,-238.3122C504.698,-220.1557 521.7585,-178.4018 543.4805,-147.7229 561.9637,-121.6182 587.9452,-95.9624 607.2443,-78.4284"/>
<polygon fill="#00ff00" stroke="#00ff00" stroke-width=".145" points="609.6858,-80.9403 614.8036,-71.6635 605.0178,-75.7241 609.6858,-80.9403"/>
</g>
<!-- D_lm&#45;&gt;right -->
<g id="edge45" class="edge">
<title>D_lm&#45;&gt;right</title>
<path fill="none" stroke="#ff0000" stroke-width=".3105" stroke-dasharray="1,5" d="M503.452,-238.276C508.5615,-233.7344 515.3535,-228.6783 522.4805,-226.1493 578.534,-206.2584 1551.1363,-232.9079 1592.4805,-190.1493 1647.5799,-133.1648 1505.0844,-83.8793 1438.0744,-64.5627"/>
<polygon fill="#ff0000" stroke="#ff0000" stroke-width=".3105" points="1438.9631,-61.1768 1428.3883,-61.8278 1437.0609,-67.9135 1438.9631,-61.1768"/>
</g>
<!-- D_lm&#45;&gt;left -->
<g id="edge37" class="edge">
<title>D_lm&#45;&gt;left</title>
<path fill="none" stroke="#00ff00" stroke-width=".184" d="M475.6334,-238.8626C456.3517,-229.3589 426.5878,-212.3429 407.4805,-190.1493 380.5039,-158.8153 362.9349,-113.7731 353.6113,-84.6625"/>
<polygon fill="#00ff00" stroke="#00ff00" stroke-width=".184" points="356.9473,-83.603 350.6554,-75.0788 350.2582,-85.6662 356.9473,-83.603"/>
</g>
<!-- D_lm&#45;&gt;forward -->
<g id="edge34" class="edge">
<title>D_lm&#45;&gt;forward</title>
<path fill="none" stroke="#00ff00" stroke-width=".693" d="M475.6297,-242.7728C456.5148,-238.2087 426.0471,-231.18 399.4805,-226.1493 348.4346,-216.4831 202.2702,-229.6128 168.4805,-190.1493 146.4572,-164.428 151.3265,-124.724 159.6785,-95.1506"/>
<polygon fill="#00ff00" stroke="#00ff00" stroke-width=".693" points="163.0387,-96.1308 162.6106,-85.5446 156.3436,-94.0872 163.0387,-96.1308"/>
</g>
<!-- D_lm&#45;&gt;counterclockwise -->
<g id="edge41" class="edge">
<title>D_lm&#45;&gt;counterclockwise</title>
<path fill="none" stroke="#ff0000" stroke-width=".224" d="M503.4565,-238.2887C508.5673,-233.7507 515.3592,-228.6941 522.4805,-226.1493 621.4283,-190.7893 1394.6083,-265.8504 1467.4805,-190.1493 1480.5576,-176.5645 1478.1667,-163.2586 1467.4805,-147.7229 1442.127,-110.8639 1414.5581,-129.4433 1373.4805,-111.7229 1354.8669,-103.6932 1334.8832,-94.342 1316.8363,-85.6134"/>
<polygon fill="#ff0000" stroke="#ff0000" stroke-width=".224" points="1318.1164,-82.3439 1307.5929,-81.1159 1315.0537,-88.6384 1318.1164,-82.3439"/>
</g>
<!-- D_lm&#45;&gt;clockwise -->
<g id="edge10" class="edge">
<title>D_lm&#45;&gt;clockwise</title>
<path fill="none" stroke="#ff0000" stroke-width=".5431" d="M503.766,-238.2316C508.864,-233.7957 515.5481,-228.8513 522.4805,-226.1493 601.0998,-195.506 839.4699,-248.4392 900.4805,-190.1493 923.5528,-168.1058 927.5217,-131.7678 926.1472,-102.4472"/>
<polygon fill="#ff0000" stroke="#ff0000" stroke-width=".5431" points="929.6346,-102.1418 925.4608,-92.4038 922.6509,-102.6192 929.6346,-102.1418"/>
</g>
<!-- 518 -->
<g id="node26" class="node">
<title>518</title>
<ellipse fill="#ffffff" stroke="#000000" cx="470.4805" cy="-168.9361" rx="21.4286" ry="21.4286"/>
<text text-anchor="middle" x="470.4805" y="-166.7361" font-family="Times,serif" font-size="9.00" fill="#000000">518</text>
</g>
<!-- D_lm&#45;&gt;518 -->
<g id="edge74" class="edge">
<title>D_lm&#45;&gt;518</title>
<path fill="none" stroke="#00ff00" stroke-width=".2344" d="M491.6331,-238.058C488.6956,-228.4588 483.9565,-212.9727 479.708,-199.0893"/>
<polygon fill="#00ff00" stroke="#00ff00" stroke-width=".2344" points="483.0069,-197.9086 476.7338,-189.3705 476.3133,-199.957 483.0069,-197.9086"/>
</g>
<!-- E_agent -->
<g id="node9" class="node">
<title>E_agent</title>
<polygon fill="#d3d3d3" stroke="#000000" points="891.4805,-177.9361 845.4805,-177.9361 845.4805,-159.9361 891.4805,-159.9361 891.4805,-177.9361"/>
<text text-anchor="middle" x="868.4805" y="-166.7361" font-family="Times,serif" font-size="9.00" fill="#000000">E_agent</text>
</g>
<!-- E_agent&#45;&gt;right -->
<g id="edge61" class="edge">
<title>E_agent&#45;&gt;right</title>
<path fill="none" stroke="#ff0000" stroke-width=".1411" d="M891.7665,-163.7856C913.766,-159.067 947.735,-152.1605 977.4805,-147.7229 1129.9589,-124.9754 1177.5655,-164.3228 1322.4805,-111.7229 1343.42,-104.1224 1364.2102,-90.1173 1379.7454,-78.0323"/>
<polygon fill="#ff0000" stroke="#ff0000" stroke-width=".1411" points="1382.1926,-80.5562 1387.803,-71.5687 1377.8125,-75.0958 1382.1926,-80.5562"/>
</g>
<!-- E_agent&#45;&gt;left -->
<g id="edge58" class="edge">
<title>E_agent&#45;&gt;left</title>
<path fill="none" stroke="#ff0000" stroke-width=".5202" stroke-dasharray="1,5" d="M845.3302,-161.1923C831.7801,-156.8433 814.2801,-151.54 798.4805,-147.7229 711.539,-126.7184 688.18,-129.2956 600.4805,-111.7229 518.4745,-95.291 422.1879,-73.521 374.8246,-62.6479"/>
<polygon fill="#ff0000" stroke="#ff0000" stroke-width=".5202" points="375.4753,-59.2063 364.9451,-60.375 373.9057,-66.0281 375.4753,-59.2063"/>
</g>
<!-- E_agent&#45;&gt;clockwise -->
<g id="edge16" class="edge">
<title>E_agent&#45;&gt;clockwise</title>
<path fill="none" stroke="#ff0000" stroke-width=".1729" d="M872.654,-159.6827C878.6282,-146.4371 890.007,-121.2086 900.0514,-98.9385"/>
<polygon fill="#ff0000" stroke="#ff0000" stroke-width=".1729" points="903.3339,-100.1736 904.2549,-89.6188 896.9529,-97.2955 903.3339,-100.1736"/>
</g>
<!-- E_lm -->
<g id="node10" class="node">
<title>E_lm</title>
<polygon fill="#d3d3d3" stroke="#000000" points="621.4805,-177.9361 585.4805,-177.9361 585.4805,-159.9361 621.4805,-159.9361 621.4805,-177.9361"/>
<text text-anchor="middle" x="603.4805" y="-166.7361" font-family="Times,serif" font-size="9.00" fill="#000000">E_lm</text>
</g>
<!-- E_lm&#45;&gt;none -->
<g id="edge42" class="edge">
<title>E_lm&#45;&gt;none</title>
<path fill="none" stroke="#00ff00" stroke-width=".4701" stroke-dasharray="1,5" d="M605.9355,-159.6827C609.9762,-144.4525 618.2202,-113.3799 624.6412,-89.1781"/>
<polygon fill="#00ff00" stroke="#00ff00" stroke-width=".4701" points="628.0824,-89.8559 627.2639,-79.2927 621.3165,-88.0608 628.0824,-89.8559"/>
</g>
<!-- E_lm&#45;&gt;right -->
<g id="edge35" class="edge">
<title>E_lm&#45;&gt;right</title>
<path fill="none" stroke="#ff0000" stroke-width=".2536" d="M612.093,-159.9037C617.0087,-155.3778 623.5597,-150.3197 630.4805,-147.7229 774.6515,-93.6275 1176.418,-160.481 1322.4805,-111.7229 1343.7495,-104.6229 1364.6739,-90.4785 1380.1927,-78.1998"/>
<polygon fill="#ff0000" stroke="#ff0000" stroke-width=".2536" points="1382.7029,-80.6682 1388.226,-71.6268 1378.2701,-75.2506 1382.7029,-80.6682"/>
</g>
<!-- E_lm&#45;&gt;forward -->
<g id="edge17" class="edge">
<title>E_lm&#45;&gt;forward</title>
<path fill="none" stroke="#00ff00" stroke-width=".4675" d="M585.2579,-165.1263C564.6816,-160.8376 530.1944,-153.6894 500.4805,-147.7229 418.7829,-131.3182 396.4708,-135.0715 316.4805,-111.7229 280.6517,-101.2647 241.2503,-85.3984 213.0605,-73.2442"/>
<polygon fill="#00ff00" stroke="#00ff00" stroke-width=".4675" points="214.1469,-69.8999 203.5812,-69.1149 211.3513,-76.3174 214.1469,-69.8999"/>
</g>
<!-- F_agent -->
<g id="node11" class="node">
<title>F_agent</title>
<polygon fill="#d3d3d3" stroke="#000000" points="1392.9805,-177.9361 1347.9805,-177.9361 1347.9805,-159.9361 1392.9805,-159.9361 1392.9805,-177.9361"/>
<text text-anchor="middle" x="1370.4805" y="-166.7361" font-family="Times,serif" font-size="9.00" fill="#000000">F_agent</text>
</g>
<!-- F_agent&#45;&gt;backward -->
<g id="edge43" class="edge">
<title>F_agent&#45;&gt;backward</title>
<path fill="none" stroke="#ff0000" stroke-width=".336" d="M1359.2928,-159.8253C1353.6418,-155.6139 1346.5065,-150.8617 1339.4805,-147.7229 1278.0663,-120.2867 1249.2396,-147.8178 1192.4805,-111.7229 1185.3051,-107.1598 1178.756,-101.0568 1173.0096,-94.56"/>
<polygon fill="#ff0000" stroke="#ff0000" stroke-width=".336" points="1175.6992,-92.3202 1166.6431,-86.8211 1170.2933,-96.7673 1175.6992,-92.3202"/>
</g>
<!-- F_lm -->
<g id="node12" class="node">
<title>F_lm</title>
<polygon fill="#d3d3d3" stroke="#000000" points="1550.4805,-177.9361 1514.4805,-177.9361 1514.4805,-159.9361 1550.4805,-159.9361 1550.4805,-177.9361"/>
<text text-anchor="middle" x="1532.4805" y="-166.7361" font-family="Times,serif" font-size="9.00" fill="#000000">F_lm</text>
</g>
<!-- F_lm&#45;&gt;right -->
<g id="edge51" class="edge">
<title>F_lm&#45;&gt;right</title>
<path fill="none" stroke="#ff0000" stroke-width=".3357" d="M1522.0875,-159.6827C1502.3534,-142.1124 1458.9376,-103.4571 1431.0093,-78.5911"/>
<polygon fill="#ff0000" stroke="#ff0000" stroke-width=".3357" points="1433.0252,-75.6997 1423.2291,-71.6639 1428.3704,-80.9277 1433.0252,-75.6997"/>
</g>
<!-- F_lm&#45;&gt;counterclockwise -->
<g id="edge46" class="edge">
<title>F_lm&#45;&gt;counterclockwise</title>
<path fill="none" stroke="#00ff00" stroke-width=".2564" stroke-dasharray="1,5" d="M1520.5404,-159.7393C1514.7348,-155.61 1507.5059,-150.9517 1500.4805,-147.7229 1447.1728,-123.2226 1428.3361,-132.5277 1373.4805,-111.7229 1354.4372,-104.5004 1334.2547,-95.3426 1316.1563,-86.542"/>
<polygon fill="#00ff00" stroke="#00ff00" stroke-width=".2564" points="1317.4167,-83.2614 1306.899,-81.9846 1314.3248,-89.5416 1317.4167,-83.2614"/>
</g>
<!-- G_agent -->
<g id="node13" class="node">
<title>G_agent</title>
<polygon fill="#d3d3d3" stroke="#000000" points="686.9805,-177.9361 639.9805,-177.9361 639.9805,-159.9361 686.9805,-159.9361 686.9805,-177.9361"/>
<text text-anchor="middle" x="663.4805" y="-166.7361" font-family="Times,serif" font-size="9.00" fill="#000000">G_agent</text>
</g>
<!-- G_agent&#45;&gt;none -->
<g id="edge28" class="edge">
<title>G_agent&#45;&gt;none</title>
<path fill="none" stroke="#ff0000" stroke-width=".1328" d="M661.0254,-159.6827C656.9847,-144.4525 648.7408,-113.3799 642.3198,-89.1781"/>
<polygon fill="#ff0000" stroke="#ff0000" stroke-width=".1328" points="645.6445,-88.0608 639.6971,-79.2927 638.8786,-89.8559 645.6445,-88.0608"/>
</g>
<!-- G_agent&#45;&gt;right -->
<g id="edge53" class="edge">
<title>G_agent&#45;&gt;right</title>
<path fill="none" stroke="#ff0000" stroke-width=".1166" d="M687.1422,-160.3812C700.7944,-155.8225 718.3938,-150.5794 734.4805,-147.7229 863.3754,-124.8346 1198.4965,-153.7437 1322.4805,-111.7229 1343.7167,-104.5255 1364.6414,-90.3819 1380.1685,-78.128"/>
<polygon fill="#ff0000" stroke="#ff0000" stroke-width=".1166" points="1382.6705,-80.6038 1388.2071,-71.5707 1378.2458,-75.1796 1382.6705,-80.6038"/>
</g>
<!-- G_agent&#45;&gt;left -->
<g id="edge11" class="edge">
<title>G_agent&#45;&gt;left</title>
<path fill="none" stroke="#00ff00" stroke-width=".4653" stroke-dasharray="1,5" d="M651.0755,-159.8716C645.0685,-155.7712 637.6232,-151.0992 630.4805,-147.7229 541.2205,-105.5307 427.5459,-75.3834 374.8059,-62.6305"/>
<polygon fill="#00ff00" stroke="#00ff00" stroke-width=".4653" points="375.3403,-59.1598 364.8011,-60.2441 373.7162,-65.9688 375.3403,-59.1598"/>
</g>
<!-- G_agent&#45;&gt;forward -->
<g id="edge2" class="edge">
<title>G_agent&#45;&gt;forward</title>
<path fill="none" stroke="#00ff00" stroke-width=".184" d="M652.2537,-159.8795C646.1679,-155.4639 638.3064,-150.5153 630.4805,-147.7229 498.1805,-100.5163 452.7734,-145.7229 316.4805,-111.7229 280.2664,-102.6888 240.9038,-86.6791 212.8267,-74.108"/>
<polygon fill="#00ff00" stroke="#00ff00" stroke-width=".184" points="213.9422,-70.7706 203.3899,-69.822 211.0474,-77.144 213.9422,-70.7706"/>
</g>
<!-- G_agent&#45;&gt;backward -->
<g id="edge20" class="edge">
<title>G_agent&#45;&gt;backward</title>
<path fill="none" stroke="#00ff00" stroke-width=".8811" stroke-dasharray="1,5" d="M687.2573,-160.9512C700.9466,-156.5766 718.5448,-151.3277 734.4805,-147.7229 835.8258,-124.7974 864.2215,-135.0267 965.4805,-111.7229 1013.3238,-100.7122 1066.9185,-83.6729 1103.4841,-71.3075"/>
<polygon fill="#00ff00" stroke="#00ff00" stroke-width=".8811" points="1104.9908,-74.4918 1113.327,-67.9527 1102.7325,-67.866 1104.9908,-74.4918"/>
</g>
<!-- G_agent&#45;&gt;clockwise -->
<g id="edge31" class="edge">
<title>G_agent&#45;&gt;clockwise</title>
<path fill="none" stroke="#ff0000" stroke-width=".3976" stroke-dasharray="1,5" d="M678.8055,-159.8737C685.6513,-155.9581 693.8754,-151.4339 701.4805,-147.7229 760.6261,-118.8617 831.1421,-90.1395 875.6201,-72.6904"/>
<polygon fill="#ff0000" stroke="#ff0000" stroke-width=".3976" points="876.9345,-75.9345 884.9756,-69.0358 874.3875,-69.4144 876.9345,-75.9345"/>
</g>
<!-- G_lm -->
<g id="node14" class="node">
<title>G_lm</title>
<polygon fill="#d3d3d3" stroke="#000000" points="1274.9805,-177.9361 1237.9805,-177.9361 1237.9805,-159.9361 1274.9805,-159.9361 1274.9805,-177.9361"/>
<text text-anchor="middle" x="1256.4805" y="-166.7361" font-family="Times,serif" font-size="9.00" fill="#000000">G_lm</text>
</g>
<!-- G_lm&#45;&gt;right -->
<g id="edge32" class="edge">
<title>G_lm&#45;&gt;right</title>
<path fill="none" stroke="#00ff00" stroke-width=".4434" d="M1268.4219,-159.8738C1292.1939,-141.8335 1345.9563,-101.0337 1378.6357,-76.2337"/>
<polygon fill="#00ff00" stroke="#00ff00" stroke-width=".4434" points="1381.005,-78.8294 1386.855,-69.9961 1376.7733,-73.2533 1381.005,-78.8294"/>
</g>
<!-- G_lm&#45;&gt;backward -->
<g id="edge38" class="edge">
<title>G_lm&#45;&gt;backward</title>
<path fill="none" stroke="#00ff00" stroke-width=".225" stroke-dasharray="1,5" d="M1245.1052,-159.7375C1231.8985,-148.8429 1209.7248,-129.8761 1192.4805,-111.7229 1186.8719,-105.8187 1181.1925,-99.286 1175.8444,-92.8312"/>
<polygon fill="#00ff00" stroke="#00ff00" stroke-width=".225" points="1178.3002,-90.3034 1169.2776,-84.7498 1172.8677,-94.7179 1178.3002,-90.3034"/>
</g>
<!-- G_lm&#45;&gt;clockwise -->
<g id="edge64" class="edge">
<title>G_lm&#45;&gt;clockwise</title>
<path fill="none" stroke="#ff0000" stroke-width=".2417" d="M1237.8819,-162.6956C1186.0499,-145.3043 1038.8896,-95.9272 964.1776,-70.8588"/>
<polygon fill="#ff0000" stroke="#ff0000" stroke-width=".2417" points="965.1616,-67.4972 954.5676,-67.6343 962.9348,-74.1336 965.1616,-67.4972"/>
</g>
<!-- H_agent -->
<g id="node15" class="node">
<title>H_agent</title>
<polygon fill="#d3d3d3" stroke="#000000" points="1087.9805,-177.9361 1040.9805,-177.9361 1040.9805,-159.9361 1087.9805,-159.9361 1087.9805,-177.9361"/>
<text text-anchor="middle" x="1064.4805" y="-166.7361" font-family="Times,serif" font-size="9.00" fill="#000000">H_agent</text>
</g>
<!-- H_agent&#45;&gt;none -->
<g id="edge47" class="edge">
<title>H_agent&#45;&gt;none</title>
<path fill="none" stroke="#ff0000" stroke-width=".4719" d="M1052.9138,-159.7845C1047.0762,-155.5635 1039.7124,-150.8149 1032.4805,-147.7229 965.8589,-119.2387 944.0986,-127.9356 873.4805,-111.7229 799.6351,-94.7692 713.0979,-74.5373 666.7731,-63.6772"/>
<polygon fill="#ff0000" stroke="#ff0000" stroke-width=".4719" points="667.5103,-60.2552 656.9753,-61.3795 665.912,-67.0703 667.5103,-60.2552"/>
</g>
<!-- H_agent&#45;&gt;backward -->
<g id="edge27" class="edge">
<title>H_agent&#45;&gt;backward</title>
<path fill="none" stroke="#ff0000" stroke-width=".3165" stroke-dasharray="1,5" d="M1071.2727,-159.6827C1081.8012,-145.3393 1102.6437,-116.9446 1119.874,-93.4709"/>
<polygon fill="#ff0000" stroke="#ff0000" stroke-width=".3165" points="1122.6993,-95.5368 1125.7952,-85.4043 1117.0563,-91.3947 1122.6993,-95.5368"/>
</g>
<!-- H_agent&#45;&gt;counterclockwise -->
<g id="edge13" class="edge">
<title>H_agent&#45;&gt;counterclockwise</title>
<path fill="none" stroke="#00ff00" stroke-width=".2072" stroke-dasharray="1,5" d="M1077.2767,-159.8213C1083.2444,-155.8056 1090.5468,-151.2168 1097.4805,-147.7229 1137.8025,-127.4042 1153.6623,-134.7852 1192.4805,-111.7229 1197.9371,-108.481 1203.38,-104.7686 1208.6622,-100.8323"/>
<polygon fill="#00ff00" stroke="#00ff00" stroke-width=".2072" points="1211.063,-103.3992 1216.8095,-94.4982 1206.7665,-97.8729 1211.063,-103.3992"/>
</g>
<!-- H_agent&#45;&gt;clockwise -->
<g id="edge6" class="edge">
<title>H_agent&#45;&gt;clockwise</title>
<path fill="none" stroke="#00ff00" stroke-width=".2153" stroke-dasharray="1,5" d="M1052.6145,-159.6827C1031.9389,-143.5594 988.4953,-109.6809 956.8404,-84.9956"/>
<polygon fill="#00ff00" stroke="#00ff00" stroke-width=".2153" points="958.6993,-82.0068 948.6612,-78.6173 954.3946,-87.5268 958.6993,-82.0068"/>
</g>
<!-- H_lm -->
<g id="node16" class="node">
<title>H_lm</title>
<polygon fill="#d3d3d3" stroke="#000000" points="1329.9805,-256.3625 1292.9805,-256.3625 1292.9805,-238.3625 1329.9805,-238.3625 1329.9805,-256.3625"/>
<text text-anchor="middle" x="1311.4805" y="-245.1625" font-family="Times,serif" font-size="9.00" fill="#000000">H_lm</text>
</g>
<!-- H_lm&#45;&gt;none -->
<g id="edge23" class="edge">
<title>H_lm&#45;&gt;none</title>
<path fill="none" stroke="#ff0000" stroke-width=".4153" d="M1292.9033,-246.6231C1181.0896,-242.0856 601.6058,-217.3064 576.4805,-190.1493 547.1128,-158.4067 582.2751,-109.27 608.9532,-80.0619"/>
<polygon fill="#ff0000" stroke="#ff0000" stroke-width=".4153" points="611.5439,-82.416 615.8498,-72.7357 606.447,-77.6179 611.5439,-82.416"/>
</g>
<!-- H_lm&#45;&gt;right -->
<g id="edge54" class="edge">
<title>H_lm&#45;&gt;right</title>
<path fill="none" stroke="#00ff00" stroke-width="1.1735" stroke-dasharray="1,5" d="M1330.1858,-245.9905C1403.8678,-240.4001 1671.2204,-218.2917 1695.4805,-190.1493 1771.1853,-102.3293 1530.0468,-68.4016 1438.9038,-58.9005"/>
<polygon fill="#00ff00" stroke="#00ff00" stroke-width="1.1735" points="1439.1123,-55.4039 1428.8121,-57.885 1438.4114,-62.3687 1439.1123,-55.4039"/>
</g>
<!-- H_lm&#45;&gt;clockwise -->
<g id="edge59" class="edge">
<title>H_lm&#45;&gt;clockwise</title>
<path fill="none" stroke="#ff0000" stroke-width=".6154" d="M1292.7886,-246.4618C1229.9264,-243.0898 1027.3096,-229.333 977.4805,-190.1493 950.1293,-168.6414 935.4414,-131.69 927.6964,-101.9867"/>
<polygon fill="#ff0000" stroke="#ff0000" stroke-width=".6154" points="931.0869,-101.1169 925.3277,-92.2241 924.2843,-102.7674 931.0869,-101.1169"/>
</g>
<!-- 321 -->
<g id="node25" class="node">
<title>321</title>
<ellipse fill="#ffffff" stroke="#000000" cx="1665.4805" cy="-168.9361" rx="21.4286" ry="21.4286"/>
<text text-anchor="middle" x="1665.4805" y="-166.7361" font-family="Times,serif" font-size="9.00" fill="#000000">321</text>
</g>
<!-- H_lm&#45;&gt;321 -->
<g id="edge68" class="edge">
<title>H_lm&#45;&gt;321</title>
<path fill="none" stroke="#ff0000" stroke-width=".1707" d="M1330.0923,-246.4002C1380.2012,-243.3122 1521.525,-231.3067 1630.4805,-190.1493 1633.3781,-189.0547 1636.3038,-187.7178 1639.164,-186.2528"/>
<polygon fill="#ff0000" stroke="#ff0000" stroke-width=".1707" points="1640.9812,-189.2461 1647.9625,-181.2767 1637.5351,-183.153 1640.9812,-189.2461"/>
</g>
<!-- no_stimuli -->
<g id="node17" class="node">
<title>no_stimuli</title>
<polygon fill="#d3d3d3" stroke="#000000" points="390.9805,-256.3625 335.9805,-256.3625 335.9805,-238.3625 390.9805,-238.3625 390.9805,-256.3625"/>
<text text-anchor="middle" x="363.4805" y="-245.1625" font-family="Times,serif" font-size="9.00" fill="#000000">no_stimuli</text>
</g>
<!-- no_stimuli&#45;&gt;right -->
<g id="edge29" class="edge">
<title>no_stimuli&#45;&gt;right</title>
<path fill="none" stroke="#ff0000" stroke-width=".2261" d="M391.249,-240.3051C411.8605,-235.3948 440.7355,-229.2019 466.4805,-226.1493 526.813,-218.9956 1517.2331,-233.811 1559.4805,-190.1493 1607.166,-140.8672 1495.0159,-89.4388 1437.2352,-67.2083"/>
<polygon fill="#ff0000" stroke="#ff0000" stroke-width=".2261" points="1438.3864,-63.9018 1427.7946,-63.6493 1435.9171,-70.4519 1438.3864,-63.9018"/>
</g>
<!-- no_stimuli&#45;&gt;left -->
<g id="edge52" class="edge">
<title>no_stimuli&#45;&gt;left</title>
<path fill="none" stroke="#00ff00" stroke-width=".2645" d="M335.7588,-239.4839C312.6523,-231.2861 281.2196,-215.9548 266.4805,-190.1493 242.5897,-148.3209 290.1683,-99.7028 321.3425,-73.9833"/>
<polygon fill="#00ff00" stroke="#00ff00" stroke-width=".2645" points="323.6246,-76.6398 329.2442,-67.658 319.2501,-71.175 323.6246,-76.6398"/>
</g>
<!-- no_stimuli&#45;&gt;forward -->
<g id="edge15" class="edge">
<title>no_stimuli&#45;&gt;forward</title>
<path fill="none" stroke="#00ff00" stroke-width=".1057" d="M335.5868,-242.3357C277.5015,-231.592 147.9055,-206.0775 135.4805,-190.1493 112.7464,-161.0056 130.8478,-119.0294 149.2537,-89.7925"/>
<polygon fill="#00ff00" stroke="#00ff00" stroke-width=".1057" points="152.3624,-91.4351 154.9308,-81.1562 146.5131,-87.5899 152.3624,-91.4351"/>
</g>
<!-- no_stimuli&#45;&gt;backward -->
<g id="edge26" class="edge">
<title>no_stimuli&#45;&gt;backward</title>
<path fill="none" stroke="#ff0000" stroke-width=".3487" d="M391.2651,-240.436C411.8846,-235.5908 440.7626,-229.4219 466.4805,-226.1493 545.8296,-216.052 1130.3521,-248.107 1185.4805,-190.1493 1210.3301,-164.0243 1193.4498,-122.896 1174.9574,-93.0345"/>
<polygon fill="#ff0000" stroke="#ff0000" stroke-width=".3487" points="1177.8395,-91.0458 1169.4726,-84.5461 1171.96,-94.8448 1177.8395,-91.0458"/>
</g>
<!-- no_stimuli&#45;&gt;clockwise -->
<g id="edge14" class="edge">
<title>no_stimuli&#45;&gt;clockwise</title>
<path fill="none" stroke="#00ff00" stroke-width=".7075" d="M391.328,-240.8787C411.9787,-236.2535 440.8682,-230.166 466.4805,-226.1493 613.1087,-203.1536 666.4367,-257.9215 798.4805,-190.1493 821.0012,-178.5904 819.5506,-166.5423 836.4805,-147.7229 853.434,-128.8771 872.3826,-107.8991 887.8898,-90.7532"/>
<polygon fill="#00ff00" stroke="#00ff00" stroke-width=".7075" points="890.6399,-92.9303 894.753,-83.1664 885.4488,-88.2342 890.6399,-92.9303"/>
</g>
<!-- 276 -->
<g id="node29" class="node">
<title>276</title>
<ellipse fill="#ffffff" stroke="#000000" cx="296.4805" cy="-168.9361" rx="21.4286" ry="21.4286"/>
<text text-anchor="middle" x="296.4805" y="-166.7361" font-family="Times,serif" font-size="9.00" fill="#000000">276</text>
</g>
<!-- no_stimuli&#45;&gt;276 -->
<g id="edge65" class="edge">
<title>no_stimuli&#45;&gt;276</title>
<path fill="none" stroke="#ff0000" stroke-width=".1417" d="M355.5316,-238.058C346.1725,-227.1027 330.2627,-208.4797 317.3139,-193.3225"/>
<polygon fill="#ff0000" stroke="#ff0000" stroke-width=".1417" points="319.6417,-190.6589 310.4851,-185.3291 314.3194,-195.2057 319.6417,-190.6589"/>
</g>
<!-- 321&#45;&gt;right -->
<g id="edge69" class="edge">
<title>321&#45;&gt;right</title>
<path fill="none" stroke="#00ff00" stroke-width=".2866" d="M1647.6219,-157.3712C1642.2144,-154.0729 1636.1927,-150.5976 1630.4805,-147.7229 1563.6966,-114.1132 1481.5657,-83.0196 1437.3303,-67.0616"/>
<polygon fill="#00ff00" stroke="#00ff00" stroke-width=".2866" points="1438.3027,-63.6922 1427.7082,-63.6139 1435.9415,-70.2819 1438.3027,-63.6922"/>
</g>
<!-- 518&#45;&gt;none -->
<g id="edge75" class="edge">
<title>518&#45;&gt;none</title>
<path fill="none" stroke="#00ff00" stroke-width=".3684" stroke-dasharray="1,5" d="M487.9243,-156.8351C515.9698,-137.3797 571.3536,-98.9594 605.1329,-75.5264"/>
<polygon fill="#00ff00" stroke="#00ff00" stroke-width=".3684" points="607.4145,-78.2034 613.6361,-69.6277 603.4246,-72.4518 607.4145,-78.2034"/>
</g>
<!-- 363&#45;&gt;left -->
<g id="edge72" class="edge">
<title>363&#45;&gt;left</title>
<path fill="none" stroke="#00ff00" stroke-width=".2203" d="M535.1297,-234.6753C530.7714,-231.7176 526.0358,-228.6924 521.4805,-226.1493 487.0823,-206.946 470.9476,-215.1243 440.4805,-190.1493 430.453,-181.9294 386.8426,-117.7897 362.344,-81.2073"/>
<polygon fill="#00ff00" stroke="#00ff00" stroke-width=".2203" points="365.0256,-78.9209 356.5593,-72.5513 359.2056,-82.8103 365.0256,-78.9209"/>
</g>
<!-- 363&#45;&gt;321 -->
<g id="edge76" class="edge">
<title>363&#45;&gt;321</title>
<path fill="none" stroke="#00ff00" stroke-width=".6761" stroke-dasharray="1,5" d="M574.0331,-246.8499C717.0023,-243.3664 1526.0409,-222.3367 1630.4805,-190.1493 1633.4406,-189.237 1636.4075,-188.0203 1639.293,-186.6293"/>
<polygon fill="#00ff00" stroke="#00ff00" stroke-width=".6761" points="1641.0635,-189.6498 1648.1252,-181.7514 1637.6793,-183.5222 1641.0635,-189.6498"/>
</g>
<!-- 177&#45;&gt;left -->
<g id="edge67" class="edge">
<title>177&#45;&gt;left</title>
<path fill="none" stroke="#ff0000" stroke-width=".3409" stroke-dasharray="1,5" d="M215.3432,-155.965C241.426,-135.9017 291.6534,-97.266 321.5039,-74.3045"/>
<polygon fill="#ff0000" stroke="#ff0000" stroke-width=".3409" points="323.913,-76.8672 329.7053,-67.9959 319.645,-71.3188 323.913,-76.8672"/>
</g>
<!-- 177&#45;&gt;forward -->
<g id="edge63" class="edge">
<title>177&#45;&gt;forward</title>
<path fill="none" stroke="#00ff00" stroke-width=".2111" stroke-dasharray="1,5" d="M194.0225,-147.9326C190.9856,-133.6242 186.8648,-114.2095 183.1902,-96.8966"/>
<polygon fill="#00ff00" stroke="#00ff00" stroke-width=".2111" points="186.5897,-96.0558 181.0897,-87.0004 179.7423,-97.5092 186.5897,-96.0558"/>
</g>
<!-- 177&#45;&gt;clockwise -->
<g id="edge70" class="edge">
<title>177&#45;&gt;clockwise</title>
<path fill="none" stroke="#00ff00" stroke-width=".2143" d="M218.423,-161.4824C231.8237,-156.7816 249.9841,-150.9995 266.4805,-147.7229 441.5566,-112.948 490.0838,-139.0206 666.4805,-111.7229 739.6741,-100.396 823.3771,-80.5304 873.7908,-67.7959"/>
<polygon fill="#00ff00" stroke="#00ff00" stroke-width=".2143" points="874.893,-71.1271 883.722,-65.2705 873.1679,-64.3429 874.893,-71.1271"/>
</g>
<!-- 276&#45;&gt;left -->
<g id="edge66" class="edge">
<title>276&#45;&gt;left</title>
<path fill="none" stroke="#00ff00" stroke-width=".1716" d="M305.0156,-149.24C312.8859,-131.0782 324.6492,-103.9325 333.4672,-83.5838"/>
<polygon fill="#00ff00" stroke="#00ff00" stroke-width=".1716" points="336.7647,-84.7768 337.5294,-74.2096 330.3418,-81.9934 336.7647,-84.7768"/>
</g>
</g>
</svg>
