<?xml version="1.0" encoding="UTF-8" standalone="no"?>
<!DOCTYPE svg PUBLIC "-//W3C//DTD SVG 1.1//EN"
 "http://www.w3.org/Graphics/SVG/1.1/DTD/svg11.dtd">
<!-- Generated by graphviz version 2.40.1 (20161225.0304)
 -->
<!-- Title: %3 Pages: 1 -->
<svg width="1221pt" height="295pt"
 viewBox="0.00 0.00 1220.78 295.22" xmlns="http://www.w3.org/2000/svg" xmlns:xlink="http://www.w3.org/1999/xlink">
<g id="graph0" class="graph" transform="scale(1 1) rotate(0) translate(4 291.2203)">
<title>%3</title>
<polygon fill="#ffffff" stroke="transparent" points="-4,4 -4,-291.2203 1216.7783,-291.2203 1216.7783,4 -4,4"/>
<!-- x&#45;vel -->
<g id="node1" class="node">
<title>x&#45;vel</title>
<polygon fill="#d3d3d3" stroke="#000000" points="836.3151,-221.0071 801.3151,-221.0071 801.3151,-203.0071 836.3151,-203.0071 836.3151,-221.0071"/>
<text text-anchor="middle" x="818.8151" y="-209.8071" font-family="Times,serif" font-size="9.00" fill="#000000">x&#45;vel</text>
</g>
<!-- right -->
<g id="node14" class="node">
<title>right</title>
<ellipse fill="#add8e6" stroke="#000000" cx="411.8151" cy="-23.3345" rx="23.1702" ry="23.1702"/>
<text text-anchor="middle" x="411.8151" y="-21.1345" font-family="Times,serif" font-size="9.00" fill="#000000">right</text>
</g>
<!-- x&#45;vel&#45;&gt;right -->
<g id="edge18" class="edge">
<title>x&#45;vel&#45;&gt;right</title>
<path fill="none" stroke="#00ff00" stroke-width=".745" d="M811.5196,-202.7689C792.0822,-178.8294 736.3164,-114.4415 674.8151,-82.669 598.7551,-43.3754 497.1316,-29.9418 445.2965,-25.4738"/>
<polygon fill="#00ff00" stroke="#00ff00" stroke-width=".745" points="445.5648,-21.9842 435.3167,-24.6725 445.0045,-28.9617 445.5648,-21.9842"/>
</g>
<!-- forward -->
<g id="node16" class="node">
<title>forward</title>
<ellipse fill="#add8e6" stroke="#000000" cx="937.8151" cy="-118.7315" rx="31.6406" ry="31.6406"/>
<text text-anchor="middle" x="937.8151" y="-116.5315" font-family="Times,serif" font-size="9.00" fill="#000000">forward</text>
</g>
<!-- x&#45;vel&#45;&gt;forward -->
<g id="edge11" class="edge">
<title>x&#45;vel&#45;&gt;forward</title>
<path fill="none" stroke="#00ff00" stroke-width=".203" d="M830.6603,-202.7225C847.6676,-189.3917 879.666,-164.3104 904.2848,-145.0135"/>
<polygon fill="#00ff00" stroke="#00ff00" stroke-width=".203" points="906.6073,-147.6401 912.3186,-138.7164 902.289,-142.1308 906.6073,-147.6401"/>
</g>
<!-- y&#45;vel -->
<g id="node2" class="node">
<title>y&#45;vel</title>
<polygon fill="#d3d3d3" stroke="#000000" points="143.3151,-287.2203 108.3151,-287.2203 108.3151,-269.2203 143.3151,-269.2203 143.3151,-287.2203"/>
<text text-anchor="middle" x="125.8151" y="-276.0203" font-family="Times,serif" font-size="9.00" fill="#000000">y&#45;vel</text>
</g>
<!-- y&#45;vel&#45;&gt;right -->
<g id="edge23" class="edge">
<title>y&#45;vel&#45;&gt;right</title>
<path fill="none" stroke="#ff0000" stroke-width=".351" d="M123.1682,-269.0485C118.9264,-252.5662 112.1973,-217.1971 123.8151,-190.7939 152.4636,-125.6862 180.7601,-119.1661 241.8151,-82.669 285.8947,-56.3194 343.409,-39.3535 378.9623,-30.5789"/>
<polygon fill="#ff0000" stroke="#ff0000" stroke-width=".351" points="379.9054,-33.952 388.8149,-28.2187 378.2747,-27.1446 379.9054,-33.952"/>
</g>
<!-- left -->
<g id="node15" class="node">
<title>left</title>
<ellipse fill="#add8e6" stroke="#000000" cx="270.8151" cy="-118.7315" rx="19.6" ry="19.6"/>
<text text-anchor="middle" x="270.8151" y="-116.5315" font-family="Times,serif" font-size="9.00" fill="#000000">left</text>
</g>
<!-- y&#45;vel&#45;&gt;left -->
<g id="edge6" class="edge">
<title>y&#45;vel&#45;&gt;left</title>
<path fill="none" stroke="#ff0000" stroke-width=".2929" stroke-dasharray="1,5" d="M125.4776,-269.0695C125.311,-251.9967 127.1819,-214.8448 144.8151,-190.7939 168.9398,-157.8889 212.9496,-137.7807 242.0413,-127.4446"/>
<polygon fill="#ff0000" stroke="#ff0000" stroke-width=".2929" points="243.3024,-130.7128 251.6522,-124.1911 241.0579,-124.0824 243.3024,-130.7128"/>
</g>
<!-- y&#45;vel&#45;&gt;forward -->
<g id="edge8" class="edge">
<title>y&#45;vel&#45;&gt;forward</title>
<path fill="none" stroke="#00ff00" stroke-width=".6416" d="M143.5746,-277.9636C248.1879,-276.3393 781.668,-266.4653 845.8151,-233.2203 854.8812,-228.5217 888.6225,-184.8772 912.6095,-152.8653"/>
<polygon fill="#00ff00" stroke="#00ff00" stroke-width=".6416" points="915.6037,-154.7051 918.7818,-144.5981 909.9946,-150.5172 915.6037,-154.7051"/>
</g>
<!-- backward -->
<g id="node17" class="node">
<title>backward</title>
<ellipse fill="#add8e6" stroke="#000000" cx="629.8151" cy="-118.7315" rx="36.125" ry="36.125"/>
<text text-anchor="middle" x="629.8151" y="-116.5315" font-family="Times,serif" font-size="9.00" fill="#000000">backward</text>
</g>
<!-- y&#45;vel&#45;&gt;backward -->
<g id="edge21" class="edge">
<title>y&#45;vel&#45;&gt;backward</title>
<path fill="none" stroke="#00ff00" stroke-width=".3034" d="M143.3424,-277.6179C209.3287,-275.1281 442.4048,-264.2708 508.8151,-233.2203 546.2085,-215.7369 579.5192,-182.1584 601.6754,-155.8677"/>
<polygon fill="#00ff00" stroke="#00ff00" stroke-width=".3034" points="604.5266,-157.9114 608.1856,-147.9684 599.1247,-153.4595 604.5266,-157.9114"/>
</g>
<!-- 330 -->
<g id="node19" class="node">
<title>330</title>
<ellipse fill="#ffffff" stroke="#000000" cx="38.8151" cy="-212.0071" rx="21.4286" ry="21.4286"/>
<text text-anchor="middle" x="38.8151" y="-209.8071" font-family="Times,serif" font-size="9.00" fill="#000000">330</text>
</g>
<!-- y&#45;vel&#45;&gt;330 -->
<g id="edge44" class="edge">
<title>y&#45;vel&#45;&gt;330</title>
<path fill="none" stroke="#00ff00" stroke-width=".5193" d="M113.7181,-269.0137C100.9156,-259.2701 80.3425,-243.6124 63.9939,-231.17"/>
<polygon fill="#00ff00" stroke="#00ff00" stroke-width=".5193" points="65.9704,-228.2759 55.8932,-225.0048 61.7311,-233.8462 65.9704,-228.2759"/>
</g>
<!-- 304 -->
<g id="node21" class="node">
<title>304</title>
<ellipse fill="#ffffff" stroke="#000000" cx="913.8151" cy="-212.0071" rx="21.4286" ry="21.4286"/>
<text text-anchor="middle" x="913.8151" y="-209.8071" font-family="Times,serif" font-size="9.00" fill="#000000">304</text>
</g>
<!-- y&#45;vel&#45;&gt;304 -->
<g id="edge42" class="edge">
<title>y&#45;vel&#45;&gt;304</title>
<path fill="none" stroke="#ff0000" stroke-width=".2043" d="M143.5422,-277.6719C250.4005,-274.2981 806.5354,-255.7604 878.8151,-233.2203 881.7721,-232.2982 884.737,-231.075 887.6213,-229.68"/>
<polygon fill="#ff0000" stroke="#ff0000" stroke-width=".2043" points="889.3945,-232.699 896.4518,-224.7968 886.007,-226.5732 889.3945,-232.699"/>
</g>
<!-- 149 -->
<g id="node23" class="node">
<title>149</title>
<ellipse fill="#ffffff" stroke="#000000" cx="38.8151" cy="-118.7315" rx="21.4286" ry="21.4286"/>
<text text-anchor="middle" x="38.8151" y="-116.5315" font-family="Times,serif" font-size="9.00" fill="#000000">149</text>
</g>
<!-- y&#45;vel&#45;&gt;149 -->
<g id="edge39" class="edge">
<title>y&#45;vel&#45;&gt;149</title>
<path fill="none" stroke="#00ff00" stroke-width=".3995" stroke-dasharray="1,5" d="M107.8867,-273.9514C78.0667,-266.4477 20.3967,-250.0836 8.8151,-233.2203 -9.5228,-206.5198 6.0993,-169.2898 20.811,-144.6226"/>
<polygon fill="#00ff00" stroke="#00ff00" stroke-width=".3995" points="23.7789,-146.4777 26.1253,-136.1459 17.8481,-142.7594 23.7789,-146.4777"/>
</g>
<!-- x&#45;pos -->
<g id="node3" class="node">
<title>x&#45;pos</title>
<polygon fill="#d3d3d3" stroke="#000000" points="1090.8151,-287.2203 1054.8151,-287.2203 1054.8151,-269.2203 1090.8151,-269.2203 1090.8151,-287.2203"/>
<text text-anchor="middle" x="1072.8151" y="-276.0203" font-family="Times,serif" font-size="9.00" fill="#000000">x&#45;pos</text>
</g>
<!-- x&#45;pos&#45;&gt;forward -->
<g id="edge15" class="edge">
<title>x&#45;pos&#45;&gt;forward</title>
<path fill="none" stroke="#00ff00" stroke-width=".3461" stroke-dasharray="1,5" d="M1073.6015,-269.1358C1074.5997,-252.1734 1074.5094,-215.1982 1057.8151,-190.7939 1038.6298,-162.7483 1004.6021,-143.8409 977.6696,-132.4562"/>
<polygon fill="#00ff00" stroke="#00ff00" stroke-width=".3461" points="978.692,-129.0946 968.1087,-128.5992 976.0731,-135.5863 978.692,-129.0946"/>
</g>
<!-- 130 -->
<g id="node18" class="node">
<title>130</title>
<ellipse fill="#ffffff" stroke="#000000" cx="652.8151" cy="-212.0071" rx="21.4286" ry="21.4286"/>
<text text-anchor="middle" x="652.8151" y="-209.8071" font-family="Times,serif" font-size="9.00" fill="#000000">130</text>
</g>
<!-- x&#45;pos&#45;&gt;130 -->
<g id="edge37" class="edge">
<title>x&#45;pos&#45;&gt;130</title>
<path fill="none" stroke="#ff0000" stroke-width=".5887" d="M1054.4706,-277.1142C987.5982,-272.9217 757.1943,-257.0326 687.8151,-233.2203 684.8854,-232.2148 681.9385,-230.9366 679.0653,-229.5077"/>
<polygon fill="#ff0000" stroke="#ff0000" stroke-width=".5887" points="680.6861,-226.404 670.2495,-224.5796 677.2704,-232.5142 680.6861,-226.404"/>
</g>
<!-- 80 -->
<g id="node20" class="node">
<title>80</title>
<ellipse fill="#ffffff" stroke="#000000" cx="1177.8151" cy="-212.0071" rx="18.2703" ry="18.2703"/>
<text text-anchor="middle" x="1177.8151" y="-209.8071" font-family="Times,serif" font-size="9.00" fill="#000000">80</text>
</g>
<!-- x&#45;pos&#45;&gt;80 -->
<g id="edge34" class="edge">
<title>x&#45;pos&#45;&gt;80</title>
<path fill="none" stroke="#ff0000" stroke-width=".3045" d="M1089.6876,-269.1244C1105.5273,-260.4077 1129.7258,-246.6311 1149.8151,-233.2203 1151.489,-232.1029 1153.1966,-230.9211 1154.9014,-229.7101"/>
<polygon fill="#ff0000" stroke="#ff0000" stroke-width=".3045" points="1157.2567,-232.3222 1163.2332,-223.574 1153.1057,-226.6858 1157.2567,-232.3222"/>
</g>
<!-- y&#45;pos -->
<g id="node4" class="node">
<title>y&#45;pos</title>
<polygon fill="#d3d3d3" stroke="#000000" points="1144.8151,-287.2203 1108.8151,-287.2203 1108.8151,-269.2203 1144.8151,-269.2203 1144.8151,-287.2203"/>
<text text-anchor="middle" x="1126.8151" y="-276.0203" font-family="Times,serif" font-size="9.00" fill="#000000">y&#45;pos</text>
</g>
<!-- y&#45;pos&#45;&gt;forward -->
<g id="edge36" class="edge">
<title>y&#45;pos&#45;&gt;forward</title>
<path fill="none" stroke="#ff0000" stroke-width=".6873" d="M1144.8274,-273.5645C1163.5872,-267.6462 1191.9919,-255.4225 1204.8151,-233.2203 1214.2458,-216.8919 1216.2804,-205.764 1204.8151,-190.7939 1177.5328,-155.172 1047.7653,-133.1527 979.7038,-123.8615"/>
<polygon fill="#ff0000" stroke="#ff0000" stroke-width=".6873" points="980.1072,-120.3844 969.7321,-122.5311 979.1814,-127.3229 980.1072,-120.3844"/>
</g>
<!-- y&#45;pos&#45;&gt;backward -->
<g id="edge14" class="edge">
<title>y&#45;pos&#45;&gt;backward</title>
<path fill="none" stroke="#00ff00" stroke-width=".8732" d="M1108.67,-271.5501C1105.7397,-270.6537 1102.7156,-269.8336 1099.8151,-269.2203 1017.2599,-251.7666 796.0903,-273.2602 721.8151,-233.2203 713.1357,-228.5415 681.3582,-187.7203 657.5635,-156.1399"/>
<polygon fill="#00ff00" stroke="#00ff00" stroke-width=".8732" points="660.2008,-153.8232 651.3979,-147.9275 654.6028,-158.0259 660.2008,-153.8232"/>
</g>
<!-- 50 -->
<g id="node22" class="node">
<title>50</title>
<ellipse fill="#ffffff" stroke="#000000" cx="1122.8151" cy="-212.0071" rx="18.2703" ry="18.2703"/>
<text text-anchor="middle" x="1122.8151" y="-209.8071" font-family="Times,serif" font-size="9.00" fill="#000000">50</text>
</g>
<!-- y&#45;pos&#45;&gt;50 -->
<g id="edge41" class="edge">
<title>y&#45;pos&#45;&gt;50</title>
<path fill="none" stroke="#ff0000" stroke-width=".268" d="M1126.2589,-269.0137C1125.8128,-261.6292 1125.1615,-250.8479 1124.5451,-240.6436"/>
<polygon fill="#ff0000" stroke="#ff0000" stroke-width=".268" points="1128.0221,-240.156 1123.9253,-230.3853 1121.0348,-240.5781 1128.0221,-240.156"/>
</g>
<!-- x&#45;lm1&#45;vec -->
<g id="node5" class="node">
<title>x&#45;lm1&#45;vec</title>
<polygon fill="#d3d3d3" stroke="#000000" points="428.3151,-221.0071 375.3151,-221.0071 375.3151,-203.0071 428.3151,-203.0071 428.3151,-221.0071"/>
<text text-anchor="middle" x="401.8151" y="-209.8071" font-family="Times,serif" font-size="9.00" fill="#000000">x&#45;lm1&#45;vec</text>
</g>
<!-- none -->
<g id="node13" class="node">
<title>none</title>
<ellipse fill="#add8e6" stroke="#000000" cx="402.8151" cy="-118.7315" rx="24.0833" ry="24.0833"/>
<text text-anchor="middle" x="402.8151" y="-116.5315" font-family="Times,serif" font-size="9.00" fill="#000000">none</text>
</g>
<!-- x&#45;lm1&#45;vec&#45;&gt;none -->
<g id="edge12" class="edge">
<title>x&#45;lm1&#45;vec&#45;&gt;none</title>
<path fill="none" stroke="#00ff00" stroke-width=".1158" stroke-dasharray="1,5" d="M401.9146,-202.7225C402.0385,-191.1665 402.2571,-170.7805 402.4479,-152.987"/>
<polygon fill="#00ff00" stroke="#00ff00" stroke-width=".1158" points="405.9485,-152.9333 402.556,-142.8964 398.9489,-152.8582 405.9485,-152.9333"/>
</g>
<!-- x&#45;lm1&#45;vec&#45;&gt;right -->
<g id="edge25" class="edge">
<title>x&#45;lm1&#45;vec&#45;&gt;right</title>
<path fill="none" stroke="#ff0000" stroke-width=".451" d="M394.7805,-202.9321C386.9119,-192.1536 374.6377,-173.2957 369.8151,-154.7939 361.7298,-123.7749 360.0977,-113.2162 369.8151,-82.669 373.7904,-70.1724 381.4578,-58.0453 389.1654,-48.0464"/>
<polygon fill="#ff0000" stroke="#ff0000" stroke-width=".451" points="391.9661,-50.15 395.5689,-40.1865 386.5391,-45.7286 391.9661,-50.15"/>
</g>
<!-- x&#45;lm1&#45;vec&#45;&gt;left -->
<g id="edge31" class="edge">
<title>x&#45;lm1&#45;vec&#45;&gt;left</title>
<path fill="none" stroke="#00ff00" stroke-width=".5572" d="M388.7754,-202.7225C367.0518,-187.2547 323.1105,-155.9673 295.4211,-136.2516"/>
<polygon fill="#00ff00" stroke="#00ff00" stroke-width=".5572" points="297.2269,-133.2409 287.0508,-130.2918 293.1668,-138.9431 297.2269,-133.2409"/>
</g>
<!-- x&#45;lm1&#45;vec&#45;&gt;forward -->
<g id="edge26" class="edge">
<title>x&#45;lm1&#45;vec&#45;&gt;forward</title>
<path fill="none" stroke="#00ff00" stroke-width=".5558" stroke-dasharray="1,5" d="M414.5464,-202.8502C421.1784,-198.5205 429.6019,-193.679 437.8151,-190.7939 448.6711,-186.9805 777.9063,-140.9687 896.0931,-124.526"/>
<polygon fill="#00ff00" stroke="#00ff00" stroke-width=".5558" points="896.7803,-127.9642 906.2029,-123.12 895.816,-121.031 896.7803,-127.9642"/>
</g>
<!-- y&#45;lm1&#45;vec -->
<g id="node6" class="node">
<title>y&#45;lm1&#45;vec</title>
<polygon fill="#d3d3d3" stroke="#000000" points="357.3151,-221.0071 304.3151,-221.0071 304.3151,-203.0071 357.3151,-203.0071 357.3151,-221.0071"/>
<text text-anchor="middle" x="330.8151" y="-209.8071" font-family="Times,serif" font-size="9.00" fill="#000000">y&#45;lm1&#45;vec</text>
</g>
<!-- y&#45;lm1&#45;vec&#45;&gt;left -->
<g id="edge22" class="edge">
<title>y&#45;lm1&#45;vec&#45;&gt;left</title>
<path fill="none" stroke="#ff0000" stroke-width=".5074" stroke-dasharray="1,5" d="M324.8427,-202.7225C316.1032,-189.1361 299.5125,-163.3443 287.0113,-143.91"/>
<polygon fill="#ff0000" stroke="#ff0000" stroke-width=".5074" points="289.9518,-142.0116 281.5982,-135.4948 284.0646,-145.7986 289.9518,-142.0116"/>
</g>
<!-- y&#45;lm1&#45;vec&#45;&gt;backward -->
<g id="edge17" class="edge">
<title>y&#45;lm1&#45;vec&#45;&gt;backward</title>
<path fill="none" stroke="#ff0000" stroke-width=".7551" d="M344.3847,-202.8532C350.9459,-198.7333 359.0642,-194.0706 366.8151,-190.7939 440.1443,-159.7943 530.6194,-138.4263 584.0735,-127.4125"/>
<polygon fill="#ff0000" stroke="#ff0000" stroke-width=".7551" points="584.8284,-130.8307 593.9328,-125.4122 583.4366,-123.9704 584.8284,-130.8307"/>
</g>
<!-- x&#45;lm2&#45;vec -->
<g id="node7" class="node">
<title>x&#45;lm2&#45;vec</title>
<polygon fill="#d3d3d3" stroke="#000000" points="499.3151,-221.0071 446.3151,-221.0071 446.3151,-203.0071 499.3151,-203.0071 499.3151,-221.0071"/>
<text text-anchor="middle" x="472.8151" y="-209.8071" font-family="Times,serif" font-size="9.00" fill="#000000">x&#45;lm2&#45;vec</text>
</g>
<!-- x&#45;lm2&#45;vec&#45;&gt;none -->
<g id="edge7" class="edge">
<title>x&#45;lm2&#45;vec&#45;&gt;none</title>
<path fill="none" stroke="#ff0000" stroke-width=".7741" d="M465.8473,-202.7225C456.027,-189.6369 437.7098,-165.229 423.3421,-146.0839"/>
<polygon fill="#ff0000" stroke="#ff0000" stroke-width=".7741" points="426.0652,-143.8814 417.2634,-137.984 420.4665,-148.0831 426.0652,-143.8814"/>
</g>
<!-- x&#45;lm2&#45;vec&#45;&gt;right -->
<g id="edge19" class="edge">
<title>x&#45;lm2&#45;vec&#45;&gt;right</title>
<path fill="none" stroke="#00ff00" stroke-width=".2705" d="M472.9106,-202.8514C472.8353,-181.1521 470.859,-125.228 453.8151,-82.669 448.9765,-70.5868 441.2206,-58.6104 433.6831,-48.6151"/>
<polygon fill="#00ff00" stroke="#00ff00" stroke-width=".2705" points="436.4079,-46.418 427.4717,-40.7263 430.908,-50.7484 436.4079,-46.418"/>
</g>
<!-- x&#45;lm2&#45;vec&#45;&gt;left -->
<g id="edge16" class="edge">
<title>x&#45;lm2&#45;vec&#45;&gt;left</title>
<path fill="none" stroke="#00ff00" stroke-width=".5273" d="M458.7646,-202.8844C452.4713,-198.9577 444.888,-194.4414 437.8151,-190.7939 390.3808,-166.332 332.7873,-142.7594 299.1251,-129.5644"/>
<polygon fill="#00ff00" stroke="#00ff00" stroke-width=".5273" points="300.0729,-126.1776 289.4843,-125.8131 297.5345,-132.7012 300.0729,-126.1776"/>
</g>
<!-- x&#45;lm2&#45;vec&#45;&gt;forward -->
<g id="edge13" class="edge">
<title>x&#45;lm2&#45;vec&#45;&gt;forward</title>
<path fill="none" stroke="#00ff00" stroke-width=".2112" stroke-dasharray="1,5" d="M499.4857,-206.6572C577.0512,-191.0981 802.9615,-145.7821 896.5072,-127.0176"/>
<polygon fill="#00ff00" stroke="#00ff00" stroke-width=".2112" points="897.3384,-130.4206 906.4547,-125.0222 895.9616,-123.5573 897.3384,-130.4206"/>
</g>
<!-- x&#45;lm2&#45;vec&#45;&gt;backward -->
<g id="edge29" class="edge">
<title>x&#45;lm2&#45;vec&#45;&gt;backward</title>
<path fill="none" stroke="#00ff00" stroke-width=".3165" stroke-dasharray="1,5" d="M488.1548,-202.8936C511.4995,-189.0243 556.7212,-162.1575 589.8127,-142.4974"/>
<polygon fill="#00ff00" stroke="#00ff00" stroke-width=".3165" points="591.9867,-145.277 598.7962,-137.1602 588.4113,-139.2589 591.9867,-145.277"/>
</g>
<!-- y&#45;lm2&#45;vec -->
<g id="node8" class="node">
<title>y&#45;lm2&#45;vec</title>
<polygon fill="#d3d3d3" stroke="#000000" points="783.3151,-221.0071 730.3151,-221.0071 730.3151,-203.0071 783.3151,-203.0071 783.3151,-221.0071"/>
<text text-anchor="middle" x="756.8151" y="-209.8071" font-family="Times,serif" font-size="9.00" fill="#000000">y&#45;lm2&#45;vec</text>
</g>
<!-- y&#45;lm2&#45;vec&#45;&gt;forward -->
<g id="edge5" class="edge">
<title>y&#45;lm2&#45;vec&#45;&gt;forward</title>
<path fill="none" stroke="#00ff00" stroke-width=".3304" d="M771.742,-202.8895C778.167,-199.0491 785.8002,-194.5976 792.8151,-190.7939 828.6046,-171.3879 870.3068,-150.8755 899.7774,-136.7194"/>
<polygon fill="#00ff00" stroke="#00ff00" stroke-width=".3304" points="901.3842,-139.8307 908.8929,-132.3561 898.3619,-133.5167 901.3842,-139.8307"/>
</g>
<!-- y&#45;lm2&#45;vec&#45;&gt;backward -->
<g id="edge20" class="edge">
<title>y&#45;lm2&#45;vec&#45;&gt;backward</title>
<path fill="none" stroke="#ff0000" stroke-width="1.2526" d="M744.1736,-202.7225C726.3969,-189.6664 693.2739,-165.339 667.2335,-146.2136"/>
<polygon fill="#ff0000" stroke="#ff0000" stroke-width="1.2526" points="669.1877,-143.3063 659.0561,-140.2076 665.044,-148.9481 669.1877,-143.3063"/>
</g>
<!-- x&#45;other&#45;vec -->
<g id="node9" class="node">
<title>x&#45;other&#45;vec</title>
<polygon fill="#d3d3d3" stroke="#000000" points="285.8151,-221.0071 227.8151,-221.0071 227.8151,-203.0071 285.8151,-203.0071 285.8151,-221.0071"/>
<text text-anchor="middle" x="256.8151" y="-209.8071" font-family="Times,serif" font-size="9.00" fill="#000000">x&#45;other&#45;vec</text>
</g>
<!-- x&#45;other&#45;vec&#45;&gt;none -->
<g id="edge1" class="edge">
<title>x&#45;other&#45;vec&#45;&gt;none</title>
<path fill="none" stroke="#00ff00" stroke-width=".8025" stroke-dasharray="1,5" d="M271.08,-202.8936C294.7209,-187.7901 342.4875,-157.2732 373.5399,-137.4347"/>
<polygon fill="#00ff00" stroke="#00ff00" stroke-width=".8025" points="375.665,-140.2303 382.2077,-131.897 371.8964,-134.3314 375.665,-140.2303"/>
</g>
<!-- x&#45;other&#45;vec&#45;&gt;left -->
<g id="edge10" class="edge">
<title>x&#45;other&#45;vec&#45;&gt;left</title>
<path fill="none" stroke="#00ff00" stroke-width=".4182" d="M258.2087,-202.7225C260.0994,-190.1254 263.565,-167.0356 266.3847,-148.2492"/>
<polygon fill="#00ff00" stroke="#00ff00" stroke-width=".4182" points="269.8475,-148.7579 267.8706,-138.3491 262.925,-147.7188 269.8475,-148.7579"/>
</g>
<!-- y&#45;other&#45;vec -->
<g id="node10" class="node">
<title>y&#45;other&#45;vec</title>
<polygon fill="#d3d3d3" stroke="#000000" points="1048.8151,-221.0071 990.8151,-221.0071 990.8151,-203.0071 1048.8151,-203.0071 1048.8151,-221.0071"/>
<text text-anchor="middle" x="1019.8151" y="-209.8071" font-family="Times,serif" font-size="9.00" fill="#000000">y&#45;other&#45;vec</text>
</g>
<!-- y&#45;other&#45;vec&#45;&gt;forward -->
<g id="edge3" class="edge">
<title>y&#45;other&#45;vec&#45;&gt;forward</title>
<path fill="none" stroke="#ff0000" stroke-width=".3946" stroke-dasharray="1,5" d="M1011.6528,-202.7225C1001.0191,-190.6265 981.8803,-168.856 965.7527,-150.5107"/>
<polygon fill="#ff0000" stroke="#ff0000" stroke-width=".3946" points="968.29,-148.0959 959.0588,-142.8964 963.0327,-152.7177 968.29,-148.0959"/>
</g>
<!-- x&#45;other&#45;vel -->
<g id="node11" class="node">
<title>x&#45;other&#45;vel</title>
<polygon fill="#d3d3d3" stroke="#000000" points="810.8151,-287.2203 754.8151,-287.2203 754.8151,-269.2203 810.8151,-269.2203 810.8151,-287.2203"/>
<text text-anchor="middle" x="782.8151" y="-276.0203" font-family="Times,serif" font-size="9.00" fill="#000000">x&#45;other&#45;vel</text>
</g>
<!-- x&#45;other&#45;vel&#45;&gt;right -->
<g id="edge28" class="edge">
<title>x&#45;other&#45;vel&#45;&gt;right</title>
<path fill="none" stroke="#ff0000" stroke-width=".1072" stroke-dasharray="1,5" d="M754.7282,-276.2885C718.0194,-272.6546 652.8753,-262.316 605.8151,-233.2203 530.6211,-186.7305 537.2135,-146.2748 475.8151,-82.669 463.4712,-69.8814 449.0019,-56.3546 436.9468,-45.451"/>
<polygon fill="#ff0000" stroke="#ff0000" stroke-width=".1072" points="439.201,-42.7713 429.4201,-38.6988 434.5266,-47.9818 439.201,-42.7713"/>
</g>
<!-- x&#45;other&#45;vel&#45;&gt;forward -->
<g id="edge27" class="edge">
<title>x&#45;other&#45;vel&#45;&gt;forward</title>
<path fill="none" stroke="#00ff00" stroke-width=".2381" d="M811.05,-274.4392C852.8003,-268.2041 927.8063,-254.3172 943.8151,-233.2203 959.7119,-212.2711 957.6014,-182.4495 951.8367,-158.4941"/>
<polygon fill="#00ff00" stroke="#00ff00" stroke-width=".2381" points="955.1609,-157.3778 949.1842,-148.6296 948.401,-159.1955 955.1609,-157.3778"/>
</g>
<!-- x&#45;other&#45;vel&#45;&gt;backward -->
<g id="edge4" class="edge">
<title>x&#45;other&#45;vel&#45;&gt;backward</title>
<path fill="none" stroke="#ff0000" stroke-width=".19" stroke-dasharray="1,5" d="M754.7532,-274.4124C713.259,-268.1418 638.7147,-254.2086 622.8151,-233.2203 607.784,-213.3785 609.1009,-185.6166 614.3845,-162.4001"/>
<polygon fill="#ff0000" stroke="#ff0000" stroke-width=".19" points="617.847,-162.989 616.9506,-152.4322 611.068,-161.2438 617.847,-162.989"/>
</g>
<!-- x&#45;other&#45;vel&#45;&gt;50 -->
<g id="edge32" class="edge">
<title>x&#45;other&#45;vel&#45;&gt;50</title>
<path fill="none" stroke="#00ff00" stroke-width=".1083" d="M811.2095,-275.0315C861.4221,-269.0701 968.9759,-254.8505 1057.8151,-233.2203 1070.4822,-230.1362 1084.2441,-225.794 1095.8299,-221.8408"/>
<polygon fill="#00ff00" stroke="#00ff00" stroke-width=".1083" points="1097.0829,-225.1106 1105.3691,-218.5083 1094.7743,-218.5022 1097.0829,-225.1106"/>
</g>
<!-- y&#45;other&#45;vel -->
<g id="node12" class="node">
<title>y&#45;other&#45;vel</title>
<polygon fill="#d3d3d3" stroke="#000000" points="209.8151,-221.0071 153.8151,-221.0071 153.8151,-203.0071 209.8151,-203.0071 209.8151,-221.0071"/>
<text text-anchor="middle" x="181.8151" y="-209.8071" font-family="Times,serif" font-size="9.00" fill="#000000">y&#45;other&#45;vel</text>
</g>
<!-- y&#45;other&#45;vel&#45;&gt;left -->
<g id="edge30" class="edge">
<title>y&#45;other&#45;vel&#45;&gt;left</title>
<path fill="none" stroke="#00ff00" stroke-width=".1745" d="M190.6741,-202.7225C204.4148,-188.3218 231.2391,-160.2087 250.0558,-140.4881"/>
<polygon fill="#00ff00" stroke="#00ff00" stroke-width=".1745" points="252.7054,-142.7812 257.0765,-133.1301 247.641,-137.9489 252.7054,-142.7812"/>
</g>
<!-- none&#45;&gt;none -->
<g id="edge2" class="edge">
<title>none&#45;&gt;none</title>
<path fill="none" stroke="#00ff00" stroke-width=".234" d="M421.4022,-134.617C433.3541,-138.761 444.8567,-133.4659 444.8567,-118.7315 444.8567,-108.2563 439.043,-102.5519 431.3872,-101.6185"/>
<polygon fill="#00ff00" stroke="#00ff00" stroke-width=".234" points="430.9004,-98.1519 421.4022,-102.846 431.7546,-105.0996 430.9004,-98.1519"/>
</g>
<!-- right&#45;&gt;right -->
<g id="edge9" class="edge">
<title>right&#45;&gt;right</title>
<path fill="none" stroke="#00ff00" stroke-width=".1393" d="M429.2291,-39.2383C441.2821,-44.0577 453.1496,-38.7564 453.1496,-23.3345 453.1496,-12.2501 447.0188,-6.3939 439.0949,-5.7661"/>
<polygon fill="#00ff00" stroke="#00ff00" stroke-width=".1393" points="438.5074,-2.3156 429.2291,-7.4307 439.6721,-9.2181 438.5074,-2.3156"/>
</g>
<!-- left&#45;&gt;left -->
<g id="edge24" class="edge">
<title>left&#45;&gt;left</title>
<path fill="none" stroke="#00ff00" stroke-width=".1251" d="M284.7719,-133.3494C296.4312,-139.5963 308.6141,-134.7237 308.6141,-118.7315 308.6141,-107.2371 302.3204,-101.4871 294.451,-101.4815"/>
<polygon fill="#00ff00" stroke="#00ff00" stroke-width=".1251" points="293.503,-98.1121 284.7719,-104.1136 295.3399,-104.8668 293.503,-98.1121"/>
</g>
<!-- 130&#45;&gt;backward -->
<g id="edge38" class="edge">
<title>130&#45;&gt;backward</title>
<path fill="none" stroke="#ff0000" stroke-width=".4081" stroke-dasharray="1,5" d="M647.7107,-191.3063C645.7069,-183.1801 643.3233,-173.5135 640.9597,-163.9281"/>
<polygon fill="#ff0000" stroke="#ff0000" stroke-width=".4081" points="644.3131,-162.9078 638.5207,-154.0366 637.5166,-164.5837 644.3131,-162.9078"/>
</g>
<!-- 330&#45;&gt;149 -->
<g id="edge45" class="edge">
<title>330&#45;&gt;149</title>
<path fill="none" stroke="#00ff00" stroke-width=".1769" d="M38.8151,-190.3734C38.8151,-178.4831 38.8151,-163.5142 38.8151,-150.3378"/>
<polygon fill="#00ff00" stroke="#00ff00" stroke-width=".1769" points="42.3152,-150.2479 38.8151,-140.2479 35.3152,-150.248 42.3152,-150.2479"/>
</g>
<!-- 80&#45;&gt;forward -->
<g id="edge35" class="edge">
<title>80&#45;&gt;forward</title>
<path fill="none" stroke="#00ff00" stroke-width=".2636" stroke-dasharray="1,5" d="M1163.5907,-199.8416C1159.3454,-196.6033 1154.5555,-193.3103 1149.8151,-190.7939 1093.5917,-160.9486 1022.5579,-139.8005 978.6625,-128.4342"/>
<polygon fill="#00ff00" stroke="#00ff00" stroke-width=".2636" points="979.4728,-125.029 968.9187,-125.9567 977.7478,-131.8131 979.4728,-125.029"/>
</g>
<!-- 304&#45;&gt;forward -->
<g id="edge43" class="edge">
<title>304&#45;&gt;forward</title>
<path fill="none" stroke="#00ff00" stroke-width=".3343" d="M919.1415,-191.3063C921.5521,-181.9372 924.4897,-170.5206 927.3146,-159.5416"/>
<polygon fill="#00ff00" stroke="#00ff00" stroke-width=".3343" points="930.7565,-160.21 929.8589,-149.6533 923.9773,-158.4657 930.7565,-160.21"/>
</g>
<!-- 50&#45;&gt;forward -->
<g id="edge33" class="edge">
<title>50&#45;&gt;forward</title>
<path fill="none" stroke="#00ff00" stroke-width=".5722" stroke-dasharray="1,5" d="M1107.4742,-201.1848C1102.2848,-197.7012 1096.3909,-193.9332 1090.8151,-190.7939 1053.0214,-169.5152 1007.9009,-148.7994 976.4928,-135.0818"/>
<polygon fill="#00ff00" stroke="#00ff00" stroke-width=".5722" points="977.776,-131.8234 967.209,-131.0564 974.9913,-138.2457 977.776,-131.8234"/>
</g>
<!-- 149&#45;&gt;right -->
<g id="edge40" class="edge">
<title>149&#45;&gt;right</title>
<path fill="none" stroke="#00ff00" stroke-width=".2757" d="M51.7065,-101.3048C57.6792,-94.4507 65.334,-87.1608 73.8151,-82.669 126.5059,-54.763 303.4243,-34.2227 378.1029,-26.5893"/>
<polygon fill="#00ff00" stroke="#00ff00" stroke-width=".2757" points="378.7531,-30.0416 388.3522,-25.5574 378.0519,-23.0768 378.7531,-30.0416"/>
</g>
</g>
</svg>
