<?xml version="1.0" encoding="UTF-8" standalone="no"?>
<!DOCTYPE svg PUBLIC "-//W3C//DTD SVG 1.1//EN"
 "http://www.w3.org/Graphics/SVG/1.1/DTD/svg11.dtd">
<!-- Generated by graphviz version 2.40.1 (20161225.0304)
 -->
<!-- Title: %3 Pages: 1 -->
<svg width="1138pt" height="312pt"
 viewBox="0.00 0.00 1137.50 312.19" xmlns="http://www.w3.org/2000/svg" xmlns:xlink="http://www.w3.org/1999/xlink">
<g id="graph0" class="graph" transform="scale(1 1) rotate(0) translate(4 308.1909)">
<title>%3</title>
<polygon fill="#ffffff" stroke="transparent" points="-4,4 -4,-308.1909 1133.5,-308.1909 1133.5,4 -4,4"/>
<!-- x&#45;vel -->
<g id="node1" class="node">
<title>x&#45;vel</title>
<polygon fill="#d3d3d3" stroke="#000000" points="573.5,-237.9777 538.5,-237.9777 538.5,-219.9777 573.5,-219.9777 573.5,-237.9777"/>
<text text-anchor="middle" x="556" y="-226.7777" font-family="Times,serif" font-size="9.00" fill="#000000">x&#45;vel</text>
</g>
<!-- right -->
<g id="node18" class="node">
<title>right</title>
<ellipse fill="#add8e6" stroke="#000000" cx="460" cy="-135.7021" rx="23.1702" ry="23.1702"/>
<text text-anchor="middle" x="460" y="-133.5021" font-family="Times,serif" font-size="9.00" fill="#000000">right</text>
</g>
<!-- x&#45;vel&#45;&gt;right -->
<g id="edge37" class="edge">
<title>x&#45;vel&#45;&gt;right</title>
<path fill="none" stroke="#00ff00" stroke-width=".266" d="M546.4442,-219.6931C532.0619,-205.7189 504.3906,-178.8329 484.218,-159.2327"/>
<polygon fill="#00ff00" stroke="#00ff00" stroke-width=".266" points="486.5083,-156.578 476.8971,-152.1197 481.6302,-161.5985 486.5083,-156.578"/>
</g>
<!-- left -->
<g id="node19" class="node">
<title>left</title>
<ellipse fill="#add8e6" stroke="#000000" cx="529" cy="-31.8198" rx="19.6" ry="19.6"/>
<text text-anchor="middle" x="529" y="-29.6198" font-family="Times,serif" font-size="9.00" fill="#000000">left</text>
</g>
<!-- x&#45;vel&#45;&gt;left -->
<g id="edge9" class="edge">
<title>x&#45;vel&#45;&gt;left</title>
<path fill="none" stroke="#00ff00" stroke-width=".3217" stroke-dasharray="1,5" d="M554.7339,-219.7328C550.9118,-191.8226 539.3693,-107.5379 533.1222,-61.9204"/>
<polygon fill="#00ff00" stroke="#00ff00" stroke-width=".3217" points="536.553,-61.1763 531.7285,-51.7437 529.6177,-62.1261 536.553,-61.1763"/>
</g>
<!-- backward -->
<g id="node21" class="node">
<title>backward</title>
<ellipse fill="#add8e6" stroke="#000000" cx="631" cy="-135.7021" rx="36.125" ry="36.125"/>
<text text-anchor="middle" x="631" y="-133.5021" font-family="Times,serif" font-size="9.00" fill="#000000">backward</text>
</g>
<!-- x&#45;vel&#45;&gt;backward -->
<g id="edge3" class="edge">
<title>x&#45;vel&#45;&gt;backward</title>
<path fill="none" stroke="#00ff00" stroke-width=".1716" d="M563.4655,-219.6931C572.4621,-208.5043 588.1145,-189.0378 602.0863,-171.6613"/>
<polygon fill="#00ff00" stroke="#00ff00" stroke-width=".1716" points="604.819,-173.8482 608.3576,-163.8618 599.3637,-169.4618 604.819,-173.8482"/>
</g>
<!-- 5 -->
<g id="node22" class="node">
<title>5</title>
<ellipse fill="#add8e6" stroke="#000000" cx="401" cy="-135.7021" rx="14.7" ry="14.7"/>
<text text-anchor="middle" x="401" y="-133.5021" font-family="Times,serif" font-size="9.00" fill="#000000">5</text>
</g>
<!-- x&#45;vel&#45;&gt;5 -->
<g id="edge32" class="edge">
<title>x&#45;vel&#45;&gt;5</title>
<path fill="none" stroke="#00ff00" stroke-width=".1314" d="M546.0394,-219.8811C541.1659,-215.7737 535.0546,-211.105 529,-207.7645 487.2743,-184.7432 466.3584,-200.0425 428,-171.7645 422.7571,-167.8994 418.068,-162.7326 414.1272,-157.5199"/>
<polygon fill="#00ff00" stroke="#00ff00" stroke-width=".1314" points="416.777,-155.1951 408.2359,-148.926 411.0033,-159.1531 416.777,-155.1951"/>
</g>
<!-- 6 -->
<g id="node23" class="node">
<title>6</title>
<ellipse fill="#add8e6" stroke="#000000" cx="718" cy="-135.7021" rx="14.7" ry="14.7"/>
<text text-anchor="middle" x="718" y="-133.5021" font-family="Times,serif" font-size="9.00" fill="#000000">6</text>
</g>
<!-- x&#45;vel&#45;&gt;6 -->
<g id="edge6" class="edge">
<title>x&#45;vel&#45;&gt;6</title>
<path fill="none" stroke="#00ff00" stroke-width=".5173" d="M566.0014,-219.954C570.8839,-215.8626 576.9909,-211.1863 583,-207.7645 621.5154,-185.8326 637.9711,-194.5296 676,-171.7645 684.4162,-166.7263 692.7974,-159.9734 699.8338,-153.6738"/>
<polygon fill="#00ff00" stroke="#00ff00" stroke-width=".5173" points="702.4735,-155.9978 707.3977,-146.6167 697.6982,-150.8795 702.4735,-155.9978"/>
</g>
<!-- y&#45;vel -->
<g id="node2" class="node">
<title>y&#45;vel</title>
<polygon fill="#d3d3d3" stroke="#000000" points="301.5,-237.9777 266.5,-237.9777 266.5,-219.9777 301.5,-219.9777 301.5,-237.9777"/>
<text text-anchor="middle" x="284" y="-226.7777" font-family="Times,serif" font-size="9.00" fill="#000000">y&#45;vel</text>
</g>
<!-- none -->
<g id="node17" class="node">
<title>none</title>
<ellipse fill="#add8e6" stroke="#000000" cx="332" cy="-135.7021" rx="24.0833" ry="24.0833"/>
<text text-anchor="middle" x="332" y="-133.5021" font-family="Times,serif" font-size="9.00" fill="#000000">none</text>
</g>
<!-- y&#45;vel&#45;&gt;none -->
<g id="edge12" class="edge">
<title>y&#45;vel&#45;&gt;none</title>
<path fill="none" stroke="#00ff00" stroke-width=".3627" stroke-dasharray="1,5" d="M288.7779,-219.6931C295.1476,-207.3152 306.7306,-184.8067 316.3033,-166.2045"/>
<polygon fill="#00ff00" stroke="#00ff00" stroke-width=".3627" points="319.4846,-167.6715 320.9483,-157.1782 313.2604,-164.4684 319.4846,-167.6715"/>
</g>
<!-- y&#45;vel&#45;&gt;right -->
<g id="edge1" class="edge">
<title>y&#45;vel&#45;&gt;right</title>
<path fill="none" stroke="#00ff00" stroke-width=".2311" stroke-dasharray="1,5" d="M293.9068,-219.7814C298.7685,-215.6522 304.8854,-210.9939 311,-207.7645 357.9828,-182.9506 379.7895,-199.6773 425,-171.7645 429.7327,-168.8426 434.2787,-165.1396 438.4375,-161.2257"/>
<polygon fill="#00ff00" stroke="#00ff00" stroke-width=".2311" points="440.9502,-163.6623 445.462,-154.0762 435.9569,-158.7564 440.9502,-163.6623"/>
</g>
<!-- x&#45;pos -->
<g id="node3" class="node">
<title>x&#45;pos</title>
<polygon fill="#d3d3d3" stroke="#000000" points="800,-237.9777 764,-237.9777 764,-219.9777 800,-219.9777 800,-237.9777"/>
<text text-anchor="middle" x="782" y="-226.7777" font-family="Times,serif" font-size="9.00" fill="#000000">x&#45;pos</text>
</g>
<!-- x&#45;pos&#45;&gt;backward -->
<g id="edge18" class="edge">
<title>x&#45;pos&#45;&gt;backward</title>
<path fill="none" stroke="#00ff00" stroke-width=".1357" d="M771.2261,-219.9512C766.3833,-216.0423 760.5247,-211.5134 755,-207.7645 747.1373,-202.4291 704.5627,-177.8345 671.4682,-158.8456"/>
<polygon fill="#00ff00" stroke="#00ff00" stroke-width=".1357" points="672.8381,-155.5966 662.4219,-153.659 669.3563,-161.6693 672.8381,-155.5966"/>
</g>
<!-- x&#45;pos&#45;&gt;6 -->
<g id="edge39" class="edge">
<title>x&#45;pos&#45;&gt;6</title>
<path fill="none" stroke="#ff0000" stroke-width=".6529" d="M775.6295,-219.6931C765.5944,-205.0677 745.855,-176.2989 732.2991,-156.542"/>
<polygon fill="#ff0000" stroke="#ff0000" stroke-width=".6529" points="735.1065,-154.4473 726.5628,-148.1818 729.3346,-158.4077 735.1065,-154.4473"/>
</g>
<!-- y&#45;pos -->
<g id="node4" class="node">
<title>y&#45;pos</title>
<polygon fill="#d3d3d3" stroke="#000000" points="356,-237.9777 320,-237.9777 320,-219.9777 356,-219.9777 356,-237.9777"/>
<text text-anchor="middle" x="338" y="-226.7777" font-family="Times,serif" font-size="9.00" fill="#000000">y&#45;pos</text>
</g>
<!-- y&#45;pos&#45;&gt;none -->
<g id="edge26" class="edge">
<title>y&#45;pos&#45;&gt;none</title>
<path fill="none" stroke="#00ff00" stroke-width=".1683" d="M337.4028,-219.6931C336.6594,-208.1371 335.3481,-187.7511 334.2035,-169.9576"/>
<polygon fill="#00ff00" stroke="#00ff00" stroke-width=".1683" points="337.6892,-169.6216 333.5544,-159.8669 330.7037,-170.071 337.6892,-169.6216"/>
</g>
<!-- y&#45;pos&#45;&gt;right -->
<g id="edge17" class="edge">
<title>y&#45;pos&#45;&gt;right</title>
<path fill="none" stroke="#ff0000" stroke-width=".2788" d="M349.0595,-219.7781C353.8554,-215.924 359.5998,-211.4843 365,-207.7645 390.6106,-190.1234 400.6318,-191.0855 425,-171.7645 429.166,-168.4614 433.3319,-164.6874 437.2616,-160.8539"/>
<polygon fill="#ff0000" stroke="#ff0000" stroke-width=".2788" points="439.9568,-163.1045 444.4654,-153.5168 434.9619,-158.2003 439.9568,-163.1045"/>
</g>
<!-- y&#45;pos&#45;&gt;backward -->
<g id="edge53" class="edge">
<title>y&#45;pos&#45;&gt;backward</title>
<path fill="none" stroke="#ff0000" stroke-width=".4478" stroke-dasharray="1,5" d="M347.8481,-219.6675C352.6969,-215.5133 358.82,-210.8669 365,-207.7645 375.0183,-202.7352 512.9597,-166.4403 586.1323,-147.359"/>
<polygon fill="#ff0000" stroke="#ff0000" stroke-width=".4478" points="587.213,-150.6943 596.0074,-144.7858 585.4479,-143.9205 587.213,-150.6943"/>
</g>
<!-- y&#45;pos&#45;&gt;5 -->
<g id="edge52" class="edge">
<title>y&#45;pos&#45;&gt;5</title>
<path fill="none" stroke="#ff0000" stroke-width=".202" d="M344.271,-219.6931C354.1492,-205.0677 373.5802,-176.2989 386.9244,-156.542"/>
<polygon fill="#ff0000" stroke="#ff0000" stroke-width=".202" points="389.8742,-158.4277 392.571,-148.1818 384.0734,-154.5097 389.8742,-158.4277"/>
</g>
<!-- y&#45;pos&#45;&gt;6 -->
<g id="edge45" class="edge">
<title>y&#45;pos&#45;&gt;6</title>
<path fill="none" stroke="#00ff00" stroke-width=".3538" d="M347.1635,-219.684C352.0393,-215.3194 358.3853,-210.4881 365,-207.7645 493.6652,-154.7867 548.5185,-227.5304 676,-171.7645 685.1133,-167.7779 693.7228,-161.1203 700.7463,-154.603"/>
<polygon fill="#00ff00" stroke="#00ff00" stroke-width=".3538" points="703.5799,-156.7207 708.1977,-147.1851 698.6414,-151.7597 703.5799,-156.7207"/>
</g>
<!-- x&#45;lm1&#45;vec -->
<g id="node5" class="node">
<title>x&#45;lm1&#45;vec</title>
<polygon fill="#d3d3d3" stroke="#000000" points="639.5,-304.1909 586.5,-304.1909 586.5,-286.1909 639.5,-286.1909 639.5,-304.1909"/>
<text text-anchor="middle" x="613" y="-292.9909" font-family="Times,serif" font-size="9.00" fill="#000000">x&#45;lm1&#45;vec</text>
</g>
<!-- x&#45;lm1&#45;vec&#45;&gt;backward -->
<g id="edge40" class="edge">
<title>x&#45;lm1&#45;vec&#45;&gt;backward</title>
<path fill="none" stroke="#00ff00" stroke-width=".1227" stroke-dasharray="1,5" d="M621.4969,-286.0432C628.8046,-277.5036 638.8098,-264.0302 643,-250.1909 649.8245,-227.651 647.8238,-201.6036 643.6764,-180.0536"/>
<polygon fill="#00ff00" stroke="#00ff00" stroke-width=".1227" points="647.0805,-179.2346 641.5709,-170.185 640.2346,-180.6952 647.0805,-179.2346"/>
</g>
<!-- x&#45;lm1&#45;vec&#45;&gt;5 -->
<g id="edge25" class="edge">
<title>x&#45;lm1&#45;vec&#45;&gt;5</title>
<path fill="none" stroke="#ff0000" stroke-width=".713" stroke-dasharray="1,5" d="M586.3409,-294.6818C491.2795,-292.5946 172.9772,-283.1754 143,-250.1909 130.318,-236.2366 130.7803,-222.1254 143,-207.7645 207.7759,-131.6383 276.0424,-217.3459 365,-171.7645 372.6394,-167.8501 379.6596,-161.7222 385.4324,-155.6212"/>
<polygon fill="#ff0000" stroke="#ff0000" stroke-width=".713" points="388.0822,-157.9079 392.0303,-148.0761 382.8128,-153.2999 388.0822,-157.9079"/>
</g>
<!-- 252 -->
<g id="node26" class="node">
<title>252</title>
<ellipse fill="#ffffff" stroke="#000000" cx="613" cy="-228.9777" rx="21.4286" ry="21.4286"/>
<text text-anchor="middle" x="613" y="-226.7777" font-family="Times,serif" font-size="9.00" fill="#000000">252</text>
</g>
<!-- x&#45;lm1&#45;vec&#45;&gt;252 -->
<g id="edge65" class="edge">
<title>x&#45;lm1&#45;vec&#45;&gt;252</title>
<path fill="none" stroke="#00ff00" stroke-width=".2178" d="M613,-285.9842C613,-279.3232 613,-269.8983 613,-260.6262"/>
<polygon fill="#00ff00" stroke="#00ff00" stroke-width=".2178" points="616.5001,-260.378 613,-250.3781 609.5001,-260.3781 616.5001,-260.378"/>
</g>
<!-- y&#45;lm1&#45;vec -->
<g id="node6" class="node">
<title>y&#45;lm1&#45;vec</title>
<polygon fill="#d3d3d3" stroke="#000000" points="782.5,-304.1909 729.5,-304.1909 729.5,-286.1909 782.5,-286.1909 782.5,-304.1909"/>
<text text-anchor="middle" x="756" y="-292.9909" font-family="Times,serif" font-size="9.00" fill="#000000">y&#45;lm1&#45;vec</text>
</g>
<!-- y&#45;lm1&#45;vec&#45;&gt;none -->
<g id="edge61" class="edge">
<title>y&#45;lm1&#45;vec&#45;&gt;none</title>
<path fill="none" stroke="#ff0000" stroke-width=".2004" d="M729.184,-292.839C707.5468,-290.9645 676.3215,-288.3118 649,-286.1909 592.8047,-281.8287 181.4154,-291.4365 143,-250.1909 130.1485,-236.3926 131.4079,-222.6366 143,-207.7645 183.2908,-156.0735 227.151,-200.6107 286,-171.7645 293.0162,-168.3254 299.9733,-163.6925 306.2721,-158.8952"/>
<polygon fill="#ff0000" stroke="#ff0000" stroke-width=".2004" points="308.8065,-161.3479 314.3971,-152.3482 304.4144,-155.8973 308.8065,-161.3479"/>
</g>
<!-- y&#45;lm1&#45;vec&#45;&gt;5 -->
<g id="edge22" class="edge">
<title>y&#45;lm1&#45;vec&#45;&gt;5</title>
<path fill="none" stroke="#ff0000" stroke-width=".5853" stroke-dasharray="1,5" d="M729.2913,-292.9025C626.0915,-284.0453 259.0171,-252.3981 257,-250.1909 244.2795,-236.2717 245.9746,-223.0614 257,-207.7645 286.5843,-166.7185 321.9716,-198.3833 365,-171.7645 372.1377,-167.3489 378.9294,-161.2531 384.6512,-155.3289"/>
<polygon fill="#ff0000" stroke="#ff0000" stroke-width=".5853" points="387.5978,-157.2897 391.7225,-147.5308 382.4123,-152.5875 387.5978,-157.2897"/>
</g>
<!-- y&#45;lm1&#45;vec&#45;&gt;6 -->
<g id="edge41" class="edge">
<title>y&#45;lm1&#45;vec&#45;&gt;6</title>
<path fill="none" stroke="#00ff00" stroke-width=".5521" d="M773.1059,-286.1057C785.6223,-278.4021 801.6493,-266.075 809,-250.1909 816.9192,-233.0783 817.2104,-224.7393 809,-207.7645 794.9356,-178.6868 762.8107,-157.7717 740.7538,-146.1964"/>
<polygon fill="#00ff00" stroke="#00ff00" stroke-width=".5521" points="742.2236,-143.0182 731.7143,-141.675 739.0922,-149.2788 742.2236,-143.0182"/>
</g>
<!-- 51 -->
<g id="node25" class="node">
<title>51</title>
<ellipse fill="#ffffff" stroke="#000000" cx="874" cy="-228.9777" rx="18.2703" ry="18.2703"/>
<text text-anchor="middle" x="874" y="-226.7777" font-family="Times,serif" font-size="9.00" fill="#000000">51</text>
</g>
<!-- y&#45;lm1&#45;vec&#45;&gt;51 -->
<g id="edge56" class="edge">
<title>y&#45;lm1&#45;vec&#45;&gt;51</title>
<path fill="none" stroke="#00ff00" stroke-width=".2101" d="M774.7559,-286.0781C792.3843,-277.3495 819.3687,-263.5649 842,-250.1909 844.6683,-248.6141 847.4231,-246.9102 850.1448,-245.1774"/>
<polygon fill="#00ff00" stroke="#00ff00" stroke-width=".2101" points="852.1247,-248.0647 858.5806,-239.664 848.295,-242.2052 852.1247,-248.0647"/>
</g>
<!-- x&#45;lm2&#45;vec -->
<g id="node7" class="node">
<title>x&#45;lm2&#45;vec</title>
<polygon fill="#d3d3d3" stroke="#000000" points="427.5,-237.9777 374.5,-237.9777 374.5,-219.9777 427.5,-219.9777 427.5,-237.9777"/>
<text text-anchor="middle" x="401" y="-226.7777" font-family="Times,serif" font-size="9.00" fill="#000000">x&#45;lm2&#45;vec</text>
</g>
<!-- x&#45;lm2&#45;vec&#45;&gt;none -->
<g id="edge58" class="edge">
<title>x&#45;lm2&#45;vec&#45;&gt;none</title>
<path fill="none" stroke="#00ff00" stroke-width=".612" d="M394.1318,-219.6931C384.5111,-206.6877 366.6174,-182.4986 352.4948,-163.4074"/>
<polygon fill="#00ff00" stroke="#00ff00" stroke-width=".612" points="355.2729,-161.2776 346.512,-155.3197 349.6453,-165.4406 355.2729,-161.2776"/>
</g>
<!-- x&#45;lm2&#45;vec&#45;&gt;right -->
<g id="edge15" class="edge">
<title>x&#45;lm2&#45;vec&#45;&gt;right</title>
<path fill="none" stroke="#00ff00" stroke-width=".31" d="M406.8728,-219.6931C414.9751,-206.8839 429.9396,-183.2259 441.9267,-164.2749"/>
<polygon fill="#00ff00" stroke="#00ff00" stroke-width=".31" points="444.9711,-166.0092 447.3589,-155.687 439.0552,-162.2672 444.9711,-166.0092"/>
</g>
<!-- x&#45;lm2&#45;vec&#45;&gt;backward -->
<g id="edge30" class="edge">
<title>x&#45;lm2&#45;vec&#45;&gt;backward</title>
<path fill="none" stroke="#ff0000" stroke-width=".2305" stroke-dasharray="1,5" d="M415.0482,-219.9174C421.5764,-215.9127 429.5321,-211.3174 437,-207.7645 486.7995,-184.0717 546.6236,-162.8842 586.5485,-149.7152"/>
<polygon fill="#ff0000" stroke="#ff0000" stroke-width=".2305" points="587.8344,-152.9772 596.2519,-146.5433 585.6594,-146.3237 587.8344,-152.9772"/>
</g>
<!-- x&#45;lm2&#45;vec&#45;&gt;5 -->
<g id="edge31" class="edge">
<title>x&#45;lm2&#45;vec&#45;&gt;5</title>
<path fill="none" stroke="#ff0000" stroke-width=".3151" d="M401,-219.6931C401,-206.0851 401,-180.2328 401,-160.788"/>
<polygon fill="#ff0000" stroke="#ff0000" stroke-width=".3151" points="404.5001,-160.7629 401,-150.7629 397.5001,-160.7629 404.5001,-160.7629"/>
</g>
<!-- x&#45;lm2&#45;vec&#45;&gt;6 -->
<g id="edge50" class="edge">
<title>x&#45;lm2&#45;vec&#45;&gt;6</title>
<path fill="none" stroke="#00ff00" stroke-width=".1868" d="M413.7391,-219.8429C420.3731,-215.5188 428.796,-210.6757 437,-207.7645 538.2355,-171.8406 578.3358,-216.4955 676,-171.7645 685.0437,-167.6224 693.6399,-160.935 700.6721,-154.4374"/>
<polygon fill="#00ff00" stroke="#00ff00" stroke-width=".1868" points="703.4859,-156.5777 708.1421,-147.0609 698.5674,-151.5969 703.4859,-156.5777"/>
</g>
<!-- y&#45;lm2&#45;vec -->
<g id="node8" class="node">
<title>y&#45;lm2&#45;vec</title>
<polygon fill="#d3d3d3" stroke="#000000" points="1129.5,-237.9777 1076.5,-237.9777 1076.5,-219.9777 1129.5,-219.9777 1129.5,-237.9777"/>
<text text-anchor="middle" x="1103" y="-226.7777" font-family="Times,serif" font-size="9.00" fill="#000000">y&#45;lm2&#45;vec</text>
</g>
<!-- forward -->
<g id="node20" class="node">
<title>forward</title>
<ellipse fill="#add8e6" stroke="#000000" cx="935" cy="-31.8198" rx="31.6406" ry="31.6406"/>
<text text-anchor="middle" x="935" y="-29.6198" font-family="Times,serif" font-size="9.00" fill="#000000">forward</text>
</g>
<!-- y&#45;lm2&#45;vec&#45;&gt;forward -->
<g id="edge49" class="edge">
<title>y&#45;lm2&#45;vec&#45;&gt;forward</title>
<path fill="none" stroke="#ff0000" stroke-width=".3166" d="M1101.4278,-219.7627C1097.1247,-196.9547 1083.2565,-137.016 1051,-99.6396 1030.3221,-75.6796 998.9822,-58.0677 974.0884,-46.8048"/>
<polygon fill="#ff0000" stroke="#ff0000" stroke-width=".3166" points="975.4644,-43.5866 964.8989,-42.799 972.6672,-50.0034 975.4644,-43.5866"/>
</g>
<!-- y&#45;lm2&#45;vec&#45;&gt;backward -->
<g id="edge4" class="edge">
<title>y&#45;lm2&#45;vec&#45;&gt;backward</title>
<path fill="none" stroke="#00ff00" stroke-width=".3561" stroke-dasharray="1,5" d="M1090.6535,-219.8752C1083.9872,-215.447 1075.4166,-210.501 1067,-207.7645 908.6131,-156.2682 852.7079,-222.2628 694,-171.7645 685.7998,-169.1553 677.4921,-165.3725 669.7176,-161.2277"/>
<polygon fill="#00ff00" stroke="#00ff00" stroke-width=".3561" points="671.3045,-158.1045 660.8743,-156.2444 667.868,-164.2029 671.3045,-158.1045"/>
</g>
<!-- x&#45;other&#45;vec -->
<g id="node9" class="node">
<title>x&#45;other&#45;vec</title>
<polygon fill="#d3d3d3" stroke="#000000" points="210,-237.9777 152,-237.9777 152,-219.9777 210,-219.9777 210,-237.9777"/>
<text text-anchor="middle" x="181" y="-226.7777" font-family="Times,serif" font-size="9.00" fill="#000000">x&#45;other&#45;vec</text>
</g>
<!-- x&#45;other&#45;vec&#45;&gt;none -->
<g id="edge47" class="edge">
<title>x&#45;other&#45;vec&#45;&gt;none</title>
<path fill="none" stroke="#00ff00" stroke-width=".3425" d="M199.7466,-219.9496C221.1787,-209.3604 257.0371,-190.8188 286,-171.7645 292.4112,-167.5467 299.0488,-162.6738 305.2196,-157.9009"/>
<polygon fill="#00ff00" stroke="#00ff00" stroke-width=".3425" points="307.6081,-160.4742 313.2798,-151.5253 303.2654,-154.984 307.6081,-160.4742"/>
</g>
<!-- x&#45;other&#45;vec&#45;&gt;right -->
<g id="edge42" class="edge">
<title>x&#45;other&#45;vec&#45;&gt;right</title>
<path fill="none" stroke="#00ff00" stroke-width=".1485" d="M210.1227,-220.3994C224.226,-216.3604 241.4381,-211.5999 257,-207.7645 331.1431,-189.4912 358.1968,-208.757 425,-171.7645 429.8658,-169.0701 434.4786,-165.4812 438.6628,-161.6106"/>
<polygon fill="#00ff00" stroke="#00ff00" stroke-width=".1485" points="441.1704,-164.0523 445.6932,-154.4713 436.1828,-159.1407 441.1704,-164.0523"/>
</g>
<!-- x&#45;other&#45;vec&#45;&gt;left -->
<g id="edge2" class="edge">
<title>x&#45;other&#45;vec&#45;&gt;left</title>
<path fill="none" stroke="#ff0000" stroke-width="1.3339" d="M181.7607,-219.8119C184.2449,-196.0471 194.2875,-132.0448 232,-99.6396 272.2671,-65.0394 432.0321,-42.9984 499.1061,-35.0973"/>
<polygon fill="#ff0000" stroke="#ff0000" stroke-width="1.3339" points="499.5098,-38.574 509.0427,-33.9509 498.7074,-31.6202 499.5098,-38.574"/>
</g>
<!-- x&#45;other&#45;vec&#45;&gt;backward -->
<g id="edge23" class="edge">
<title>x&#45;other&#45;vec&#45;&gt;backward</title>
<path fill="none" stroke="#ff0000" stroke-width=".809" d="M210.0285,-219.9914C224.1104,-215.8595 241.3316,-211.1385 257,-207.7645 360.295,-185.5209 388.5053,-193.0596 492,-171.7645 523.7217,-165.2374 559.0415,-156.0487 586.1395,-148.5802"/>
<polygon fill="#ff0000" stroke="#ff0000" stroke-width=".809" points="587.4011,-151.8623 596.0979,-145.8112 585.5258,-145.1181 587.4011,-151.8623"/>
</g>
<!-- x&#45;other&#45;vec&#45;&gt;5 -->
<g id="edge34" class="edge">
<title>x&#45;other&#45;vec&#45;&gt;5</title>
<path fill="none" stroke="#00ff00" stroke-width=".1099" d="M197.3885,-219.8883C205.2651,-215.7826 214.943,-211.1131 224,-207.7645 284.6635,-185.3357 308.8118,-203.7957 365,-171.7645 372.2915,-167.6078 379.123,-161.579 384.834,-155.6366"/>
<polygon fill="#00ff00" stroke="#00ff00" stroke-width=".1099" points="387.8101,-157.559 391.8652,-147.7708 382.5912,-152.8938 387.8101,-157.559"/>
</g>
<!-- x&#45;other&#45;vec&#45;&gt;6 -->
<g id="edge55" class="edge">
<title>x&#45;other&#45;vec&#45;&gt;6</title>
<path fill="none" stroke="#ff0000" stroke-width=".2002" d="M208.5064,-219.9633C222.8185,-215.6154 240.6892,-210.7149 257,-207.7645 440.9236,-174.4953 503.6715,-244.1359 676,-171.7645 685.1712,-167.9129 693.7918,-161.2811 700.8079,-154.7467"/>
<polygon fill="#ff0000" stroke="#ff0000" stroke-width=".2002" points="703.659,-156.8444 708.244,-147.293 698.7034,-151.9005 703.659,-156.8444"/>
</g>
<!-- 73 -->
<g id="node24" class="node">
<title>73</title>
<ellipse fill="#ffffff" stroke="#000000" cx="259" cy="-135.7021" rx="18.2703" ry="18.2703"/>
<text text-anchor="middle" x="259" y="-133.5021" font-family="Times,serif" font-size="9.00" fill="#000000">73</text>
</g>
<!-- x&#45;other&#45;vec&#45;&gt;73 -->
<g id="edge59" class="edge">
<title>x&#45;other&#45;vec&#45;&gt;73</title>
<path fill="none" stroke="#00ff00" stroke-width=".3891" d="M188.7641,-219.6931C200.6999,-205.4198 223.9003,-177.6758 240.367,-157.9842"/>
<polygon fill="#00ff00" stroke="#00ff00" stroke-width=".3891" points="243.2294,-160.0172 246.9595,-150.1006 237.8595,-155.5267 243.2294,-160.0172"/>
</g>
<!-- y&#45;other&#45;vec -->
<g id="node10" class="node">
<title>y&#45;other&#45;vec</title>
<polygon fill="#d3d3d3" stroke="#000000" points="58,-237.9777 0,-237.9777 0,-219.9777 58,-219.9777 58,-237.9777"/>
<text text-anchor="middle" x="29" y="-226.7777" font-family="Times,serif" font-size="9.00" fill="#000000">y&#45;other&#45;vec</text>
</g>
<!-- y&#45;other&#45;vec&#45;&gt;none -->
<g id="edge14" class="edge">
<title>y&#45;other&#45;vec&#45;&gt;none</title>
<path fill="none" stroke="#ff0000" stroke-width=".2601" d="M44.866,-219.7631C52.7869,-215.5271 62.653,-210.7842 72,-207.7645 163.7769,-178.1146 197.7695,-210.7196 286,-171.7645 293.148,-168.6085 300.1577,-164.0885 306.4655,-159.3106"/>
<polygon fill="#ff0000" stroke="#ff0000" stroke-width=".2601" points="309.011,-161.7529 314.5791,-152.7391 304.6053,-156.3132 309.011,-161.7529"/>
</g>
<!-- x&#45;other&#45;vel -->
<g id="node11" class="node">
<title>x&#45;other&#45;vel</title>
<polygon fill="#d3d3d3" stroke="#000000" points="746,-237.9777 690,-237.9777 690,-219.9777 746,-219.9777 746,-237.9777"/>
<text text-anchor="middle" x="718" y="-226.7777" font-family="Times,serif" font-size="9.00" fill="#000000">x&#45;other&#45;vel</text>
</g>
<!-- x&#45;other&#45;vel&#45;&gt;right -->
<g id="edge8" class="edge">
<title>x&#45;other&#45;vel&#45;&gt;right</title>
<path fill="none" stroke="#ff0000" stroke-width=".4195" stroke-dasharray="1,5" d="M692.7921,-219.8642C645.4814,-202.7598 543.4932,-165.8877 491.6473,-147.1436"/>
<polygon fill="#ff0000" stroke="#ff0000" stroke-width=".4195" points="492.5721,-143.7563 481.9778,-143.6478 490.1921,-150.3393 492.5721,-143.7563"/>
</g>
<!-- x&#45;other&#45;vel&#45;&gt;forward -->
<g id="edge44" class="edge">
<title>x&#45;other&#45;vel&#45;&gt;forward</title>
<path fill="none" stroke="#00ff00" stroke-width=".6958" d="M728.1753,-219.7328C759.2744,-191.4774 853.9663,-105.4439 903.7136,-60.2454"/>
<polygon fill="#00ff00" stroke="#00ff00" stroke-width=".6958" points="906.2475,-62.6721 911.2952,-53.357 901.5403,-57.4912 906.2475,-62.6721"/>
</g>
<!-- x&#45;other&#45;vel&#45;&gt;backward -->
<g id="edge43" class="edge">
<title>x&#45;other&#45;vel&#45;&gt;backward</title>
<path fill="none" stroke="#ff0000" stroke-width=".2506" d="M709.34,-219.6931C698.5091,-208.0809 679.3622,-187.5528 662.709,-169.6983"/>
<polygon fill="#ff0000" stroke="#ff0000" stroke-width=".2506" points="665.1364,-167.1695 655.7561,-162.2439 660.0174,-171.944 665.1364,-167.1695"/>
</g>
<!-- x&#45;other&#45;vel&#45;&gt;6 -->
<g id="edge10" class="edge">
<title>x&#45;other&#45;vel&#45;&gt;6</title>
<path fill="none" stroke="#ff0000" stroke-width=".3037" d="M718,-219.6931C718,-206.0851 718,-180.2328 718,-160.788"/>
<polygon fill="#ff0000" stroke="#ff0000" stroke-width=".3037" points="721.5001,-160.7629 718,-150.7629 714.5001,-160.7629 721.5001,-160.7629"/>
</g>
<!-- y&#45;other&#45;vel -->
<g id="node12" class="node">
<title>y&#45;other&#45;vel</title>
<polygon fill="#d3d3d3" stroke="#000000" points="966,-237.9777 910,-237.9777 910,-219.9777 966,-219.9777 966,-237.9777"/>
<text text-anchor="middle" x="938" y="-226.7777" font-family="Times,serif" font-size="9.00" fill="#000000">y&#45;other&#45;vel</text>
</g>
<!-- y&#45;other&#45;vel&#45;&gt;forward -->
<g id="edge48" class="edge">
<title>y&#45;other&#45;vel&#45;&gt;forward</title>
<path fill="none" stroke="#00ff00" stroke-width=".4516" d="M937.8593,-219.7328C937.4695,-194.1113 936.3567,-120.9817 935.6398,-73.8701"/>
<polygon fill="#00ff00" stroke="#00ff00" stroke-width=".4516" points="939.1363,-73.6048 935.4845,-63.6592 932.1371,-73.7113 939.1363,-73.6048"/>
</g>
<!-- y&#45;other&#45;vel&#45;&gt;5 -->
<g id="edge21" class="edge">
<title>y&#45;other&#45;vel&#45;&gt;5</title>
<path fill="none" stroke="#ff0000" stroke-width=".9729" d="M925.2975,-219.8079C918.4425,-215.3613 909.6346,-210.4191 901,-207.7645 800.2394,-176.7864 520.4069,-222.4923 428,-171.7645 422.061,-168.5042 417.0497,-163.3212 413.0184,-157.8899"/>
<polygon fill="#ff0000" stroke="#ff0000" stroke-width=".9729" points="415.8803,-155.8707 407.4975,-149.3915 410.0102,-159.6841 415.8803,-155.8707"/>
</g>
<!-- y&#45;other&#45;vel&#45;&gt;6 -->
<g id="edge24" class="edge">
<title>y&#45;other&#45;vel&#45;&gt;6</title>
<path fill="none" stroke="#ff0000" stroke-width=".7355" d="M923.1448,-219.8015C916.4915,-215.8649 908.4751,-211.3557 901,-207.7645 845.5349,-181.1182 777.4744,-156.2771 742.037,-143.904"/>
<polygon fill="#ff0000" stroke="#ff0000" stroke-width=".7355" points="743.1346,-140.5802 732.5398,-140.6146 740.8436,-147.1947 743.1346,-140.5802"/>
</g>
<!-- &#45;13 -->
<g id="node13" class="node">
<title>&#45;13</title>
<polygon fill="#d3d3d3" stroke="#000000" points="1012,-237.9777 984,-237.9777 984,-219.9777 1012,-219.9777 1012,-237.9777"/>
<text text-anchor="middle" x="998" y="-226.7777" font-family="Times,serif" font-size="9.00" fill="#000000">&#45;13</text>
</g>
<!-- &#45;13&#45;&gt;none -->
<g id="edge28" class="edge">
<title>&#45;13&#45;&gt;none</title>
<path fill="none" stroke="#00ff00" stroke-width=".2623" d="M990.5012,-219.5403C986.426,-215.1391 980.9974,-210.3183 975,-207.7645 852.5131,-155.6068 501.2231,-219.6401 377,-171.7645 369.8068,-168.9922 362.8696,-164.6251 356.6852,-159.8733"/>
<polygon fill="#00ff00" stroke="#00ff00" stroke-width=".2623" points="358.6869,-156.9853 348.7652,-153.2689 354.2038,-162.3614 358.6869,-156.9853"/>
</g>
<!-- &#45;13&#45;&gt;left -->
<g id="edge33" class="edge">
<title>&#45;13&#45;&gt;left</title>
<path fill="none" stroke="#ff0000" stroke-width=".2925" d="M989.1545,-219.6045C985.0907,-215.6314 980.0563,-211.1481 975,-207.7645 833.5696,-113.1215 633.5838,-57.4301 558.7712,-38.8376"/>
<polygon fill="#ff0000" stroke="#ff0000" stroke-width=".2925" points="559.2088,-35.3415 548.6633,-36.3634 557.5444,-42.1407 559.2088,-35.3415"/>
</g>
<!-- &#45;13&#45;&gt;6 -->
<g id="edge27" class="edge">
<title>&#45;13&#45;&gt;6</title>
<path fill="none" stroke="#00ff00" stroke-width=".2068" d="M989.8239,-219.6399C985.7401,-215.4797 980.5019,-210.8362 975,-207.7645 896.9243,-164.1749 790.5281,-145.3544 742.8683,-138.7291"/>
<polygon fill="#00ff00" stroke="#00ff00" stroke-width=".2068" points="743.2152,-135.2445 732.8413,-137.3969 742.2932,-142.1835 743.2152,-135.2445"/>
</g>
<!-- 221 -->
<g id="node27" class="node">
<title>221</title>
<ellipse fill="#ffffff" stroke="#000000" cx="998" cy="-135.7021" rx="21.4286" ry="21.4286"/>
<text text-anchor="middle" x="998" y="-133.5021" font-family="Times,serif" font-size="9.00" fill="#000000">221</text>
</g>
<!-- &#45;13&#45;&gt;221 -->
<g id="edge64" class="edge">
<title>&#45;13&#45;&gt;221</title>
<path fill="none" stroke="#00ff00" stroke-width=".1792" d="M998,-219.6931C998,-207.5413 998,-185.6255 998,-167.2276"/>
<polygon fill="#00ff00" stroke="#00ff00" stroke-width=".1792" points="1001.5001,-167.1782 998,-157.1782 994.5001,-167.1782 1001.5001,-167.1782"/>
</g>
<!-- &#45;14 -->
<g id="node14" class="node">
<title>&#45;14</title>
<polygon fill="#d3d3d3" stroke="#000000" points="474,-237.9777 446,-237.9777 446,-219.9777 474,-219.9777 474,-237.9777"/>
<text text-anchor="middle" x="460" y="-226.7777" font-family="Times,serif" font-size="9.00" fill="#000000">&#45;14</text>
</g>
<!-- &#45;14&#45;&gt;none -->
<g id="edge5" class="edge">
<title>&#45;14&#45;&gt;none</title>
<path fill="none" stroke="#ff0000" stroke-width=".351" stroke-dasharray="1,5" d="M450.5183,-219.9036C446.2312,-215.9859 441.0111,-211.4633 436,-207.7645 411.2852,-189.5221 402.1477,-189.4053 377,-171.7645 370.8017,-167.4164 364.3384,-162.4902 358.3077,-157.7069"/>
<polygon fill="#ff0000" stroke="#ff0000" stroke-width=".351" points="360.3979,-154.8962 350.4175,-151.3405 356.0022,-160.3439 360.3979,-154.8962"/>
</g>
<!-- &#45;14&#45;&gt;right -->
<g id="edge51" class="edge">
<title>&#45;14&#45;&gt;right</title>
<path fill="none" stroke="#ff0000" stroke-width=".9125" d="M460,-219.6931C460,-207.983 460,-187.2059 460,-169.2472"/>
<polygon fill="#ff0000" stroke="#ff0000" stroke-width=".9125" points="463.5001,-169.0889 460,-159.089 456.5001,-169.089 463.5001,-169.0889"/>
</g>
<!-- &#45;14&#45;&gt;backward -->
<g id="edge54" class="edge">
<title>&#45;14&#45;&gt;backward</title>
<path fill="none" stroke="#ff0000" stroke-width=".1175" d="M468.8756,-219.6491C472.9451,-215.6842 477.9755,-211.1951 483,-207.7645 516.0104,-185.2263 557.1272,-165.8053 587.6395,-152.8229"/>
<polygon fill="#ff0000" stroke="#ff0000" stroke-width=".1175" points="589.2791,-155.9308 597.1497,-148.8383 586.574,-149.4746 589.2791,-155.9308"/>
</g>
<!-- &#45;14&#45;&gt;5 -->
<g id="edge29" class="edge">
<title>&#45;14&#45;&gt;5</title>
<path fill="none" stroke="#ff0000" stroke-width=".6068" d="M454.1272,-219.6931C444.9681,-205.2131 427.0399,-176.8696 414.5565,-157.134"/>
<polygon fill="#ff0000" stroke="#ff0000" stroke-width=".6068" points="417.3952,-155.0746 409.0916,-148.4943 411.4794,-158.8166 417.3952,-155.0746"/>
</g>
<!-- &#45;14&#45;&gt;6 -->
<g id="edge38" class="edge">
<title>&#45;14&#45;&gt;6</title>
<path fill="none" stroke="#00ff00" stroke-width=".6361" stroke-dasharray="1,5" d="M467.6429,-219.8515C471.7548,-215.5296 477.1727,-210.6859 483,-207.7645 561.0038,-168.6591 597.3139,-209.4783 676,-171.7645 684.97,-167.4652 693.5521,-160.7477 700.5937,-154.27"/>
<polygon fill="#00ff00" stroke="#00ff00" stroke-width=".6361" points="703.3876,-156.4327 708.0833,-146.9353 698.4898,-151.4316 703.3876,-156.4327"/>
</g>
<!-- &#45;15 -->
<g id="node15" class="node">
<title>&#45;15</title>
<polygon fill="#d3d3d3" stroke="#000000" points="520,-237.9777 492,-237.9777 492,-219.9777 520,-219.9777 520,-237.9777"/>
<text text-anchor="middle" x="506" y="-226.7777" font-family="Times,serif" font-size="9.00" fill="#000000">&#45;15</text>
</g>
<!-- &#45;15&#45;&gt;right -->
<g id="edge19" class="edge">
<title>&#45;15&#45;&gt;right</title>
<path fill="none" stroke="#00ff00" stroke-width=".5762" d="M501.4212,-219.6931C495.278,-207.2363 484.0749,-184.5195 474.8676,-165.8495"/>
<polygon fill="#00ff00" stroke="#00ff00" stroke-width=".5762" points="477.9679,-164.2228 470.4058,-156.8022 471.6898,-167.3189 477.9679,-164.2228"/>
</g>
<!-- &#45;15&#45;&gt;forward -->
<g id="edge46" class="edge">
<title>&#45;15&#45;&gt;forward</title>
<path fill="none" stroke="#ff0000" stroke-width=".1173" stroke-dasharray="1,5" d="M508.8415,-219.6405C516.7161,-195.4622 541.2457,-130.5475 586,-99.6396 635.3965,-65.5258 811.2196,-44.0982 892.825,-35.7734"/>
<polygon fill="#ff0000" stroke="#ff0000" stroke-width=".1173" points="893.6257,-39.2108 903.227,-34.7314 892.9279,-32.2456 893.6257,-39.2108"/>
</g>
<!-- &#45;15&#45;&gt;5 -->
<g id="edge13" class="edge">
<title>&#45;15&#45;&gt;5</title>
<path fill="none" stroke="#00ff00" stroke-width=".125" d="M496.9091,-219.9439C492.7998,-216.0336 487.7977,-211.5057 483,-207.7645 459.9612,-189.7994 449.2997,-191.7608 428,-171.7645 423.3243,-167.3749 418.8737,-162.0974 414.9838,-156.9511"/>
<polygon fill="#00ff00" stroke="#00ff00" stroke-width=".125" points="417.681,-154.705 409.026,-148.5942 411.9812,-158.7686 417.681,-154.705"/>
</g>
<!-- &#45;15&#45;&gt;6 -->
<g id="edge36" class="edge">
<title>&#45;15&#45;&gt;6</title>
<path fill="none" stroke="#00ff00" stroke-width=".2349" d="M514.5564,-219.5709C518.8232,-215.3956 524.2866,-210.7593 530,-207.7645 589.1935,-176.7371 616.5853,-202.3662 676,-171.7645 684.8431,-167.2098 693.4009,-160.4434 700.4586,-153.9982"/>
<polygon fill="#00ff00" stroke="#00ff00" stroke-width=".2349" points="703.2209,-156.1961 707.9819,-146.7312 698.3577,-151.1613 703.2209,-156.1961"/>
</g>
<!-- &#45;16 -->
<g id="node16" class="node">
<title>&#45;16</title>
<polygon fill="#d3d3d3" stroke="#000000" points="1058,-237.9777 1030,-237.9777 1030,-219.9777 1058,-219.9777 1058,-237.9777"/>
<text text-anchor="middle" x="1044" y="-226.7777" font-family="Times,serif" font-size="9.00" fill="#000000">&#45;16</text>
</g>
<!-- &#45;16&#45;&gt;right -->
<g id="edge35" class="edge">
<title>&#45;16&#45;&gt;right</title>
<path fill="none" stroke="#00ff00" stroke-width=".3874" d="M1036.4766,-219.5972C1032.3951,-215.2104 1026.9684,-210.3855 1021,-207.7645 932.189,-168.7638 681.4185,-189.1932 586,-171.7645 553.5403,-165.8355 517.4226,-155.0514 492.2077,-146.8154"/>
<polygon fill="#00ff00" stroke="#00ff00" stroke-width=".3874" points="493.0379,-143.4033 482.4445,-143.5756 490.8332,-150.047 493.0379,-143.4033"/>
</g>
<!-- &#45;16&#45;&gt;left -->
<g id="edge16" class="edge">
<title>&#45;16&#45;&gt;left</title>
<path fill="none" stroke="#00ff00" stroke-width=".5073" d="M1034.9369,-219.908C1030.8327,-215.9911 1025.827,-211.4678 1021,-207.7645 1003.1647,-194.0811 870.8254,-108.1034 850,-99.6396 747.9158,-58.1508 616.8044,-40.6375 558.8358,-34.5566"/>
<polygon fill="#00ff00" stroke="#00ff00" stroke-width=".5073" points="559.1878,-31.0745 548.8865,-33.551 558.4838,-38.039 559.1878,-31.0745"/>
</g>
<!-- &#45;16&#45;&gt;forward -->
<g id="edge20" class="edge">
<title>&#45;16&#45;&gt;forward</title>
<path fill="none" stroke="#ff0000" stroke-width=".1481" d="M1045.2219,-219.7321C1047.7061,-197.3579 1051.2943,-139.2244 1028,-99.6396 1015.2563,-77.9839 992.5945,-61.2398 972.8323,-49.807"/>
<polygon fill="#ff0000" stroke="#ff0000" stroke-width=".1481" points="974.4481,-46.7011 964.0024,-44.9293 971.0633,-52.8284 974.4481,-46.7011"/>
</g>
<!-- &#45;16&#45;&gt;backward -->
<g id="edge7" class="edge">
<title>&#45;16&#45;&gt;backward</title>
<path fill="none" stroke="#00ff00" stroke-width=".1468" d="M1036.4461,-219.6654C1032.3568,-215.296 1026.9324,-210.4661 1021,-207.7645 887.9365,-147.1685 833.0276,-217.0315 694,-171.7645 685.8175,-169.1003 677.5181,-165.2918 669.7461,-161.1389"/>
<polygon fill="#00ff00" stroke="#00ff00" stroke-width=".1468" points="671.3334,-158.0159 660.9035,-156.1536 667.8956,-164.1136 671.3334,-158.0159"/>
</g>
<!-- &#45;16&#45;&gt;6 -->
<g id="edge11" class="edge">
<title>&#45;16&#45;&gt;6</title>
<path fill="none" stroke="#00ff00" stroke-width=".1662" d="M1036.2949,-219.9718C1032.1671,-215.6805 1026.7538,-210.828 1021,-207.7645 926.5613,-157.483 797.0952,-141.8782 743.1672,-137.3838"/>
<polygon fill="#00ff00" stroke="#00ff00" stroke-width=".1662" points="743.3738,-133.8894 733.1331,-136.6055 742.8324,-140.8685 743.3738,-133.8894"/>
</g>
<!-- &#45;16&#45;&gt;221 -->
<g id="edge62" class="edge">
<title>&#45;16&#45;&gt;221</title>
<path fill="none" stroke="#00ff00" stroke-width=".4649" d="M1039.4212,-219.6931C1033.0836,-206.8421 1021.3608,-183.0715 1011.9997,-164.0897"/>
<polygon fill="#00ff00" stroke="#00ff00" stroke-width=".4649" points="1015.0567,-162.3752 1007.4946,-154.9546 1008.7786,-165.4713 1015.0567,-162.3752"/>
</g>
<!-- 73&#45;&gt;left -->
<g id="edge60" class="edge">
<title>73&#45;&gt;left</title>
<path fill="none" stroke="#ff0000" stroke-width=".3104" d="M271.5154,-121.6992C278.8688,-114.219 288.7193,-105.393 299,-99.6396 365.2553,-62.5609 453.8416,-43.8921 499.3138,-36.2209"/>
<polygon fill="#ff0000" stroke="#ff0000" stroke-width=".3104" points="500.0761,-39.6431 509.3852,-34.5842 498.9532,-32.7337 500.0761,-39.6431"/>
</g>
<!-- 51&#45;&gt;6 -->
<g id="edge57" class="edge">
<title>51&#45;&gt;6</title>
<path fill="none" stroke="#ff0000" stroke-width=".2274" d="M858.4944,-218.4337C853.294,-214.9686 847.4352,-211.1413 842,-207.7645 806.8981,-185.9564 765.1916,-162.1365 740.198,-148.0797"/>
<polygon fill="#ff0000" stroke="#ff0000" stroke-width=".2274" points="741.6172,-144.8628 731.1829,-143.0255 738.194,-150.9687 741.6172,-144.8628"/>
</g>
<!-- 252&#45;&gt;backward -->
<g id="edge66" class="edge">
<title>252&#45;&gt;backward</title>
<path fill="none" stroke="#ff0000" stroke-width=".134" d="M617.0845,-207.812C618.6079,-199.9174 620.4025,-190.6181 622.1872,-181.3698"/>
<polygon fill="#ff0000" stroke="#ff0000" stroke-width=".134" points="625.6484,-181.9052 624.1067,-171.4231 618.7752,-180.5788 625.6484,-181.9052"/>
</g>
<!-- 221&#45;&gt;forward -->
<g id="edge63" class="edge">
<title>221&#45;&gt;forward</title>
<path fill="none" stroke="#00ff00" stroke-width=".1616" d="M986.7369,-117.13C978.4948,-103.5395 967.0473,-84.6633 957.0152,-68.1213"/>
<polygon fill="#00ff00" stroke="#00ff00" stroke-width=".1616" points="959.7951,-65.9553 951.6169,-59.2198 953.8097,-69.5852 959.7951,-65.9553"/>
</g>
</g>
</svg>
