<?xml version="1.0" encoding="UTF-8" standalone="no"?>
<!DOCTYPE svg PUBLIC "-//W3C//DTD SVG 1.1//EN"
 "http://www.w3.org/Graphics/SVG/1.1/DTD/svg11.dtd">
<!-- Generated by graphviz version 2.40.1 (20161225.0304)
 -->
<!-- Title: %3 Pages: 1 -->
<svg width="1087pt" height="379pt"
 viewBox="0.00 0.00 1087.21 379.30" xmlns="http://www.w3.org/2000/svg" xmlns:xlink="http://www.w3.org/1999/xlink">
<g id="graph0" class="graph" transform="scale(1 1) rotate(0) translate(4 375.3036)">
<title>%3</title>
<polygon fill="#ffffff" stroke="transparent" points="-4,4 -4,-375.3036 1083.2132,-375.3036 1083.2132,4 -4,4"/>
<!-- x&#45;vel -->
<g id="node1" class="node">
<title>x&#45;vel</title>
<polygon fill="#d3d3d3" stroke="#000000" points="835.7132,-371.3036 800.7132,-371.3036 800.7132,-353.3036 835.7132,-353.3036 835.7132,-371.3036"/>
<text text-anchor="middle" x="818.2132" y="-360.1036" font-family="Times,serif" font-size="9.00" fill="#000000">x&#45;vel</text>
</g>
<!-- right -->
<g id="node14" class="node">
<title>right</title>
<ellipse fill="#add8e6" stroke="#000000" cx="769.2132" cy="-293.9691" rx="23.1702" ry="23.1702"/>
<text text-anchor="middle" x="769.2132" y="-291.7691" font-family="Times,serif" font-size="9.00" fill="#000000">right</text>
</g>
<!-- x&#45;vel&#45;&gt;right -->
<g id="edge7" class="edge">
<title>x&#45;vel&#45;&gt;right</title>
<path fill="none" stroke="#00ff00" stroke-width=".162" d="M811.6048,-353.0877C805.7762,-344.9592 796.9769,-332.6879 788.9031,-321.4283"/>
<polygon fill="#00ff00" stroke="#00ff00" stroke-width=".162" points="791.6033,-319.1877 782.9317,-313.1006 785.9147,-323.2669 791.6033,-319.1877"/>
</g>
<!-- left -->
<g id="node15" class="node">
<title>left</title>
<ellipse fill="#add8e6" stroke="#000000" cx="930.2132" cy="-198.5721" rx="19.6" ry="19.6"/>
<text text-anchor="middle" x="930.2132" y="-196.3721" font-family="Times,serif" font-size="9.00" fill="#000000">left</text>
</g>
<!-- x&#45;vel&#45;&gt;left -->
<g id="edge24" class="edge">
<title>x&#45;vel&#45;&gt;left</title>
<path fill="none" stroke="#00ff00" stroke-width=".2493" d="M832.8098,-353.0297C844.8578,-344.8004 861.7746,-331.8512 873.2132,-317.3036 894.923,-289.6931 911.102,-252.4687 920.571,-227.1087"/>
<polygon fill="#00ff00" stroke="#00ff00" stroke-width=".2493" points="923.8688,-228.2813 923.9844,-217.6871 917.2874,-225.8968 923.8688,-228.2813"/>
</g>
<!-- y&#45;vel -->
<g id="node2" class="node">
<title>y&#45;vel</title>
<polygon fill="#d3d3d3" stroke="#000000" points="321.7132,-371.3036 286.7132,-371.3036 286.7132,-353.3036 321.7132,-353.3036 321.7132,-371.3036"/>
<text text-anchor="middle" x="304.2132" y="-360.1036" font-family="Times,serif" font-size="9.00" fill="#000000">y&#45;vel</text>
</g>
<!-- forward -->
<g id="node16" class="node">
<title>forward</title>
<ellipse fill="#add8e6" stroke="#000000" cx="432.2132" cy="-198.5721" rx="31.6406" ry="31.6406"/>
<text text-anchor="middle" x="432.2132" y="-196.3721" font-family="Times,serif" font-size="9.00" fill="#000000">forward</text>
</g>
<!-- y&#45;vel&#45;&gt;forward -->
<g id="edge14" class="edge">
<title>y&#45;vel&#45;&gt;forward</title>
<path fill="none" stroke="#00ff00" stroke-width=".1465" stroke-dasharray="1,5" d="M321.9705,-358.3536C342.9509,-352.772 377.4904,-340.5585 397.2132,-317.3036 415.3962,-295.8643 424.1354,-265.3337 428.3345,-240.6009"/>
<polygon fill="#00ff00" stroke="#00ff00" stroke-width=".1465" points="431.8425,-240.8092 429.8704,-230.3995 424.9205,-239.7669 431.8425,-240.8092"/>
</g>
<!-- backward -->
<g id="node17" class="node">
<title>backward</title>
<ellipse fill="#add8e6" stroke="#000000" cx="325.2132" cy="-198.5721" rx="36.125" ry="36.125"/>
<text text-anchor="middle" x="325.2132" y="-196.3721" font-family="Times,serif" font-size="9.00" fill="#000000">backward</text>
</g>
<!-- y&#45;vel&#45;&gt;backward -->
<g id="edge15" class="edge">
<title>y&#45;vel&#45;&gt;backward</title>
<path fill="none" stroke="#00ff00" stroke-width=".2891" stroke-dasharray="1,5" d="M305.4024,-353.0316C308.0276,-332.564 314.468,-282.3497 319.2979,-244.6921"/>
<polygon fill="#00ff00" stroke="#00ff00" stroke-width=".2891" points="322.8123,-244.8029 320.613,-234.4388 315.8692,-243.9123 322.8123,-244.8029"/>
</g>
<!-- 487 -->
<g id="node19" class="node">
<title>487</title>
<ellipse fill="#ffffff" stroke="#000000" cx="255.2132" cy="-293.9691" rx="21.4286" ry="21.4286"/>
<text text-anchor="middle" x="255.2132" y="-291.7691" font-family="Times,serif" font-size="9.00" fill="#000000">487</text>
</g>
<!-- y&#45;vel&#45;&gt;487 -->
<g id="edge36" class="edge">
<title>y&#45;vel&#45;&gt;487</title>
<path fill="none" stroke="#00ff00" stroke-width=".391" d="M297.6048,-353.0877C291.4668,-344.5277 282.0344,-331.3734 273.6241,-319.6446"/>
<polygon fill="#00ff00" stroke="#00ff00" stroke-width=".391" points="276.4142,-317.5293 267.7425,-311.4422 270.7255,-321.6084 276.4142,-317.5293"/>
</g>
<!-- x&#45;pos -->
<g id="node3" class="node">
<title>x&#45;pos</title>
<polygon fill="#d3d3d3" stroke="#000000" points="271.2132,-207.5721 235.2132,-207.5721 235.2132,-189.5721 271.2132,-189.5721 271.2132,-207.5721"/>
<text text-anchor="middle" x="253.2132" y="-196.3721" font-family="Times,serif" font-size="9.00" fill="#000000">x&#45;pos</text>
</g>
<!-- none -->
<g id="node13" class="node">
<title>none</title>
<ellipse fill="#add8e6" stroke="#000000" cx="259.2132" cy="-102.468" rx="24.0833" ry="24.0833"/>
<text text-anchor="middle" x="259.2132" y="-100.268" font-family="Times,serif" font-size="9.00" fill="#000000">none</text>
</g>
<!-- x&#45;pos&#45;&gt;none -->
<g id="edge1" class="edge">
<title>x&#45;pos&#45;&gt;none</title>
<path fill="none" stroke="#ff0000" stroke-width=".1386" stroke-dasharray="1,5" d="M253.7885,-189.3573C254.5409,-177.3067 255.9009,-155.523 257.0709,-136.7827"/>
<polygon fill="#ff0000" stroke="#ff0000" stroke-width=".1386" points="260.5662,-136.9644 257.6962,-126.7657 253.5798,-136.5282 260.5662,-136.9644"/>
</g>
<!-- y&#45;pos -->
<g id="node4" class="node">
<title>y&#45;pos</title>
<polygon fill="#d3d3d3" stroke="#000000" points="510.2132,-371.3036 474.2132,-371.3036 474.2132,-353.3036 510.2132,-353.3036 510.2132,-371.3036"/>
<text text-anchor="middle" x="492.2132" y="-360.1036" font-family="Times,serif" font-size="9.00" fill="#000000">y&#45;pos</text>
</g>
<!-- y&#45;pos&#45;&gt;none -->
<g id="edge9" class="edge">
<title>y&#45;pos&#45;&gt;none</title>
<path fill="none" stroke="#00ff00" stroke-width=".2907" stroke-dasharray="1,5" d="M494.6034,-352.9946C502,-321.8456 521.2456,-219.9966 473.2132,-162.5097 450.192,-134.957 347.5573,-115.7345 293.2208,-107.2908"/>
<polygon fill="#00ff00" stroke="#00ff00" stroke-width=".2907" points="293.4471,-103.7852 283.0354,-105.7465 292.3977,-110.7061 293.4471,-103.7852"/>
</g>
<!-- y&#45;pos&#45;&gt;right -->
<g id="edge29" class="edge">
<title>y&#45;pos&#45;&gt;right</title>
<path fill="none" stroke="#ff0000" stroke-width=".2806" d="M510.3879,-357.82C556.3733,-346.4756 677.8513,-316.5076 736.5488,-302.0272"/>
<polygon fill="#ff0000" stroke="#ff0000" stroke-width=".2806" points="737.5421,-305.3872 746.4127,-299.5939 735.8654,-298.5909 737.5421,-305.3872"/>
</g>
<!-- y&#45;pos&#45;&gt;forward -->
<g id="edge6" class="edge">
<title>y&#45;pos&#45;&gt;forward</title>
<path fill="none" stroke="#ff0000" stroke-width=".3917" stroke-dasharray="1,5" d="M488.8154,-353.0316C480.8961,-331.4208 460.8243,-276.6477 446.8475,-238.5071"/>
<polygon fill="#ff0000" stroke="#ff0000" stroke-width=".3917" points="449.9868,-236.9014 443.2596,-228.7162 443.4142,-239.3099 449.9868,-236.9014"/>
</g>
<!-- x&#45;lm1&#45;vec -->
<g id="node5" class="node">
<title>x&#45;lm1&#45;vec</title>
<polygon fill="#d3d3d3" stroke="#000000" points="197.7132,-371.3036 144.7132,-371.3036 144.7132,-353.3036 197.7132,-353.3036 197.7132,-371.3036"/>
<text text-anchor="middle" x="171.2132" y="-360.1036" font-family="Times,serif" font-size="9.00" fill="#000000">x&#45;lm1&#45;vec</text>
</g>
<!-- x&#45;lm1&#45;vec&#45;&gt;none -->
<g id="edge25" class="edge">
<title>x&#45;lm1&#45;vec&#45;&gt;none</title>
<path fill="none" stroke="#00ff00" stroke-width=".1221" stroke-dasharray="1,5" d="M165.9824,-353.0041C161.3195,-344.1437 154.8383,-330.2699 152.2132,-317.3036 148.0974,-296.9743 146.4147,-290.5494 152.2132,-270.6346 168.553,-214.516 209.9107,-159.2436 236.1601,-128.1305"/>
<polygon fill="#00ff00" stroke="#00ff00" stroke-width=".1221" points="238.9505,-130.2532 242.8065,-120.385 233.6382,-125.6947 238.9505,-130.2532"/>
</g>
<!-- x&#45;lm1&#45;vec&#45;&gt;right -->
<g id="edge16" class="edge">
<title>x&#45;lm1&#45;vec&#45;&gt;right</title>
<path fill="none" stroke="#ff0000" stroke-width=".2897" stroke-dasharray="1,5" d="M197.8413,-359.862C281.7194,-352.1379 539.8257,-328.1086 623.2132,-317.3036 661.9821,-312.2801 706.2949,-304.9752 735.8345,-299.8812"/>
<polygon fill="#ff0000" stroke="#ff0000" stroke-width=".2897" points="736.7583,-303.2732 746.0114,-298.1128 735.5598,-296.3765 736.7583,-303.2732"/>
</g>
<!-- x&#45;lm1&#45;vec&#45;&gt;backward -->
<g id="edge27" class="edge">
<title>x&#45;lm1&#45;vec&#45;&gt;backward</title>
<path fill="none" stroke="#ff0000" stroke-width=".2304" d="M167.104,-353.1649C159.7846,-335.3552 146.8921,-295.5677 165.2132,-270.6346 196.9263,-227.4764 232.9451,-259.8154 280.2132,-234.6346 283.4991,-232.8841 286.7799,-230.8812 289.9878,-228.7362"/>
<polygon fill="#ff0000" stroke="#ff0000" stroke-width=".2304" points="292.1759,-231.474 298.2623,-222.8019 288.0963,-225.7857 292.1759,-231.474"/>
</g>
<!-- x&#45;lm1&#45;vec&#45;&gt;487 -->
<g id="edge32" class="edge">
<title>x&#45;lm1&#45;vec&#45;&gt;487</title>
<path fill="none" stroke="#00ff00" stroke-width=".4215" d="M182.5418,-353.0877C194.8212,-343.0984 214.7914,-326.8524 230.6929,-313.9165"/>
<polygon fill="#00ff00" stroke="#00ff00" stroke-width=".4215" points="233.0266,-316.53 238.5752,-307.5042 228.6091,-311.0998 233.0266,-316.53"/>
</g>
<!-- 521 -->
<g id="node20" class="node">
<title>521</title>
<ellipse fill="#ffffff" stroke="#000000" cx="21.2132" cy="-198.5721" rx="21.4286" ry="21.4286"/>
<text text-anchor="middle" x="21.2132" y="-196.3721" font-family="Times,serif" font-size="9.00" fill="#000000">521</text>
</g>
<!-- x&#45;lm1&#45;vec&#45;&gt;521 -->
<g id="edge44" class="edge">
<title>x&#45;lm1&#45;vec&#45;&gt;521</title>
<path fill="none" stroke="#00ff00" stroke-width=".114" d="M144.5169,-358.3878C104.6257,-351.9291 32.5001,-337.6967 17.2132,-317.3036 -1.7895,-291.9536 3.4526,-254.2769 10.6858,-228.1935"/>
<polygon fill="#00ff00" stroke="#00ff00" stroke-width=".114" points="14.0802,-229.06 13.6195,-218.4752 7.3789,-227.037 14.0802,-229.06"/>
</g>
<!-- 348 -->
<g id="node22" class="node">
<title>348</title>
<ellipse fill="#ffffff" stroke="#000000" cx="195.2132" cy="-293.9691" rx="21.4286" ry="21.4286"/>
<text text-anchor="middle" x="195.2132" y="-291.7691" font-family="Times,serif" font-size="9.00" fill="#000000">348</text>
</g>
<!-- x&#45;lm1&#45;vec&#45;&gt;348 -->
<g id="edge30" class="edge">
<title>x&#45;lm1&#45;vec&#45;&gt;348</title>
<path fill="none" stroke="#00ff00" stroke-width=".2683" d="M174.45,-353.0877C177.1145,-345.5011 181.0465,-334.3056 184.7741,-323.6922"/>
<polygon fill="#00ff00" stroke="#00ff00" stroke-width=".2683" points="188.0862,-324.8238 188.0977,-314.2289 181.4816,-322.5041 188.0862,-324.8238"/>
</g>
<!-- y&#45;lm1&#45;vec -->
<g id="node6" class="node">
<title>y&#45;lm1&#45;vec</title>
<polygon fill="#d3d3d3" stroke="#000000" points="79.7132,-302.9691 26.7132,-302.9691 26.7132,-284.9691 79.7132,-284.9691 79.7132,-302.9691"/>
<text text-anchor="middle" x="53.2132" y="-291.7691" font-family="Times,serif" font-size="9.00" fill="#000000">y&#45;lm1&#45;vec</text>
</g>
<!-- y&#45;lm1&#45;vec&#45;&gt;none -->
<g id="edge28" class="edge">
<title>y&#45;lm1&#45;vec&#45;&gt;none</title>
<path fill="none" stroke="#ff0000" stroke-width=".1899" stroke-dasharray="1,5" d="M53.4031,-284.9608C54.3828,-261.5493 60.2113,-198.1367 94.2132,-162.5097 128.9802,-126.081 187.583,-111.6652 224.7829,-106.0217"/>
<polygon fill="#ff0000" stroke="#ff0000" stroke-width=".1899" points="225.7023,-109.4281 235.13,-104.5942 224.7455,-102.4938 225.7023,-109.4281"/>
</g>
<!-- y&#45;lm1&#45;vec&#45;&gt;521 -->
<g id="edge34" class="edge">
<title>y&#45;lm1&#45;vec&#45;&gt;521</title>
<path fill="none" stroke="#00ff00" stroke-width=".5656" stroke-dasharray="1,5" d="M50.1449,-284.822C45.8288,-271.9551 37.7629,-247.9095 31.242,-228.4695"/>
<polygon fill="#00ff00" stroke="#00ff00" stroke-width=".5656" points="34.4994,-227.1747 28.0008,-218.807 27.8628,-229.4009 34.4994,-227.1747"/>
</g>
<!-- x&#45;lm2&#45;vec -->
<g id="node7" class="node">
<title>x&#45;lm2&#45;vec</title>
<polygon fill="#d3d3d3" stroke="#000000" points="971.7132,-371.3036 918.7132,-371.3036 918.7132,-353.3036 971.7132,-353.3036 971.7132,-371.3036"/>
<text text-anchor="middle" x="945.2132" y="-360.1036" font-family="Times,serif" font-size="9.00" fill="#000000">x&#45;lm2&#45;vec</text>
</g>
<!-- x&#45;lm2&#45;vec&#45;&gt;right -->
<g id="edge4" class="edge">
<title>x&#45;lm2&#45;vec&#45;&gt;right</title>
<path fill="none" stroke="#00ff00" stroke-width=".5024" stroke-dasharray="1,5" d="M918.7045,-356.5804C889.2655,-349.6361 840.8064,-336.4331 802.2132,-317.3036 800.2211,-316.3162 798.2165,-315.2157 796.2331,-314.0452"/>
<polygon fill="#00ff00" stroke="#00ff00" stroke-width=".5024" points="798.0796,-311.0714 787.7772,-308.5996 794.2895,-316.9566 798.0796,-311.0714"/>
</g>
<!-- x&#45;lm2&#45;vec&#45;&gt;left -->
<g id="edge5" class="edge">
<title>x&#45;lm2&#45;vec&#45;&gt;left</title>
<path fill="none" stroke="#00ff00" stroke-width=".2247" stroke-dasharray="1,5" d="M945.6584,-353.1652C946.3424,-336.6421 947.2742,-300.7191 944.2132,-270.6346 942.7677,-256.4278 939.9056,-240.8524 937.1439,-227.828"/>
<polygon fill="#00ff00" stroke="#00ff00" stroke-width=".2247" points="940.5493,-227.0171 934.9795,-218.0044 933.7132,-228.5233 940.5493,-227.0171"/>
</g>
<!-- x&#45;lm2&#45;vec&#45;&gt;forward -->
<g id="edge21" class="edge">
<title>x&#45;lm2&#45;vec&#45;&gt;forward</title>
<path fill="none" stroke="#ff0000" stroke-width=".1811" stroke-dasharray="1,5" d="M940.9728,-353.1713C931.6725,-334.2639 907.5399,-290.9083 873.2132,-270.6346 839.0263,-250.4434 577.4994,-216.4617 474.0955,-203.6579"/>
<polygon fill="#ff0000" stroke="#ff0000" stroke-width=".1811" points="474.37,-200.1653 464.0168,-202.415 473.5133,-207.1127 474.37,-200.1653"/>
</g>
<!-- 549 -->
<g id="node18" class="node">
<title>549</title>
<ellipse fill="#ffffff" stroke="#000000" cx="1017.2132" cy="-293.9691" rx="21.4286" ry="21.4286"/>
<text text-anchor="middle" x="1017.2132" y="-291.7691" font-family="Times,serif" font-size="9.00" fill="#000000">549</text>
</g>
<!-- x&#45;lm2&#45;vec&#45;&gt;549 -->
<g id="edge37" class="edge">
<title>x&#45;lm2&#45;vec&#45;&gt;549</title>
<path fill="none" stroke="#ff0000" stroke-width=".4807" stroke-dasharray="1,5" d="M954.9234,-353.0877C964.9346,-343.5862 980.9099,-328.4242 994.1752,-315.8342"/>
<polygon fill="#ff0000" stroke="#ff0000" stroke-width=".4807" points="996.763,-318.2036 1001.6069,-308.7809 991.9442,-313.1263 996.763,-318.2036"/>
</g>
<!-- y&#45;lm2&#45;vec -->
<g id="node8" class="node">
<title>y&#45;lm2&#45;vec</title>
<polygon fill="#d3d3d3" stroke="#000000" points="863.7132,-302.9691 810.7132,-302.9691 810.7132,-284.9691 863.7132,-284.9691 863.7132,-302.9691"/>
<text text-anchor="middle" x="837.2132" y="-291.7691" font-family="Times,serif" font-size="9.00" fill="#000000">y&#45;lm2&#45;vec</text>
</g>
<!-- y&#45;lm2&#45;vec&#45;&gt;none -->
<g id="edge18" class="edge">
<title>y&#45;lm2&#45;vec&#45;&gt;none</title>
<path fill="none" stroke="#ff0000" stroke-width=".2685" d="M836.2206,-284.7313C833.0477,-260.1884 820.7811,-193.1446 779.2132,-162.5097 740.0968,-133.6814 403.3837,-111.1142 293.6376,-104.4683"/>
<polygon fill="#ff0000" stroke="#ff0000" stroke-width=".2685" points="293.6399,-100.9622 283.4484,-103.8577 293.2211,-107.9497 293.6399,-100.9622"/>
</g>
<!-- y&#45;lm2&#45;vec&#45;&gt;left -->
<g id="edge19" class="edge">
<title>y&#45;lm2&#45;vec&#45;&gt;left</title>
<path fill="none" stroke="#00ff00" stroke-width=".4592" stroke-dasharray="1,5" d="M846.1304,-284.822C860.5625,-270.018 889.421,-240.4157 909.269,-220.0561"/>
<polygon fill="#00ff00" stroke="#00ff00" stroke-width=".4592" points="911.9115,-222.3595 916.3859,-212.7558 906.8991,-217.4731 911.9115,-222.3595"/>
</g>
<!-- x&#45;other&#45;vec -->
<g id="node9" class="node">
<title>x&#45;other&#45;vec</title>
<polygon fill="#d3d3d3" stroke="#000000" points="1079.2132,-371.3036 1021.2132,-371.3036 1021.2132,-353.3036 1079.2132,-353.3036 1079.2132,-371.3036"/>
<text text-anchor="middle" x="1050.2132" y="-360.1036" font-family="Times,serif" font-size="9.00" fill="#000000">x&#45;other&#45;vec</text>
</g>
<!-- x&#45;other&#45;vec&#45;&gt;right -->
<g id="edge11" class="edge">
<title>x&#45;other&#45;vec&#45;&gt;right</title>
<path fill="none" stroke="#00ff00" stroke-width="1.9394" d="M1020.9454,-358.6124C964.222,-351.1945 841.4507,-333.7769 802.2132,-317.3036 800.1105,-316.4208 798.0099,-315.3861 795.9447,-314.2523"/>
<polygon fill="#00ff00" stroke="#00ff00" stroke-width="1.9394" points="797.5574,-311.1332 787.2203,-308.8103 793.8526,-317.0725 797.5574,-311.1332"/>
</g>
<!-- x&#45;other&#45;vec&#45;&gt;left -->
<g id="edge3" class="edge">
<title>x&#45;other&#45;vec&#45;&gt;left</title>
<path fill="none" stroke="#ff0000" stroke-width="1.0713" d="M1052.5597,-353.2106C1056.5092,-335.8201 1062.636,-297.2163 1047.2132,-270.6346 1028.0203,-237.5548 986.9835,-217.646 958.9876,-207.3847"/>
<polygon fill="#ff0000" stroke="#ff0000" stroke-width="1.0713" points="959.9228,-204.0045 949.328,-204.0341 957.6288,-210.618 959.9228,-204.0045"/>
</g>
<!-- y&#45;other&#45;vec -->
<g id="node10" class="node">
<title>y&#45;other&#45;vec</title>
<polygon fill="#d3d3d3" stroke="#000000" points="709.2132,-371.3036 651.2132,-371.3036 651.2132,-353.3036 709.2132,-353.3036 709.2132,-371.3036"/>
<text text-anchor="middle" x="680.2132" y="-360.1036" font-family="Times,serif" font-size="9.00" fill="#000000">y&#45;other&#45;vec</text>
</g>
<!-- y&#45;other&#45;vec&#45;&gt;none -->
<g id="edge8" class="edge">
<title>y&#45;other&#45;vec&#45;&gt;none</title>
<path fill="none" stroke="#ff0000" stroke-width=".3183" d="M679.7343,-353.1192C678.4111,-335.5725 673.4757,-296.7132 655.2132,-270.6346 607.4499,-202.429 577.9441,-197.1242 502.2132,-162.5097 431.6999,-130.2799 341.4482,-113.8114 293.2171,-106.7893"/>
<polygon fill="#ff0000" stroke="#ff0000" stroke-width=".3183" points="293.6936,-103.3219 283.3033,-105.3936 292.7177,-110.2535 293.6936,-103.3219"/>
</g>
<!-- y&#45;other&#45;vec&#45;&gt;right -->
<g id="edge23" class="edge">
<title>y&#45;other&#45;vec&#45;&gt;right</title>
<path fill="none" stroke="#00ff00" stroke-width=".3239" stroke-dasharray="1,5" d="M692.2161,-353.0877C704.984,-343.2845 725.5997,-327.4557 742.2871,-314.643"/>
<polygon fill="#00ff00" stroke="#00ff00" stroke-width=".3239" points="744.7929,-317.1318 750.5932,-308.2656 740.5299,-311.5796 744.7929,-317.1318"/>
</g>
<!-- y&#45;other&#45;vec&#45;&gt;left -->
<g id="edge20" class="edge">
<title>y&#45;other&#45;vec&#45;&gt;left</title>
<path fill="none" stroke="#ff0000" stroke-width=".8142" d="M683.563,-353.1123C690.6642,-334.8532 708.9342,-293.7811 737.2132,-270.6346 786.2484,-230.4988 859.8502,-211.4016 900.5299,-203.446"/>
<polygon fill="#ff0000" stroke="#ff0000" stroke-width=".8142" points="901.4139,-206.8417 910.6058,-201.5731 900.1346,-199.9596 901.4139,-206.8417"/>
</g>
<!-- y&#45;other&#45;vec&#45;&gt;forward -->
<g id="edge2" class="edge">
<title>y&#45;other&#45;vec&#45;&gt;forward</title>
<path fill="none" stroke="#00ff00" stroke-width="1.1237" d="M676.8566,-353.1206C669.7433,-334.8762 651.4525,-293.8296 623.2132,-270.6346 579.1894,-234.4745 515.1451,-215.3128 473.5802,-206.0594"/>
<polygon fill="#00ff00" stroke="#00ff00" stroke-width="1.1237" points="474.2914,-202.6325 463.7812,-203.9687 472.8307,-209.4784 474.2914,-202.6325"/>
</g>
<!-- y&#45;other&#45;vec&#45;&gt;backward -->
<g id="edge12" class="edge">
<title>y&#45;other&#45;vec&#45;&gt;backward</title>
<path fill="none" stroke="#ff0000" stroke-width="2.0646" d="M651.1178,-353.6987C624.2517,-345.4285 583.4499,-332.0404 549.2132,-317.3036 476.417,-285.9694 461.1015,-272.0077 391.2132,-234.6346 383.0111,-230.2484 374.2633,-225.511 365.9087,-220.9574"/>
<polygon fill="#ff0000" stroke="#ff0000" stroke-width="2.0646" points="367.4956,-217.8362 357.0417,-216.1137 364.1398,-223.9794 367.4956,-217.8362"/>
</g>
<!-- x&#45;other&#45;vel -->
<g id="node11" class="node">
<title>x&#45;other&#45;vel</title>
<polygon fill="#d3d3d3" stroke="#000000" points="614.2132,-302.9691 558.2132,-302.9691 558.2132,-284.9691 614.2132,-284.9691 614.2132,-302.9691"/>
<text text-anchor="middle" x="586.2132" y="-291.7691" font-family="Times,serif" font-size="9.00" fill="#000000">x&#45;other&#45;vel</text>
</g>
<!-- x&#45;other&#45;vel&#45;&gt;forward -->
<g id="edge22" class="edge">
<title>x&#45;other&#45;vel&#45;&gt;forward</title>
<path fill="none" stroke="#00ff00" stroke-width=".1633" stroke-dasharray="1,5" d="M571.447,-284.822C547.844,-270.2009 500.9387,-241.1449 468.1199,-220.8149"/>
<polygon fill="#00ff00" stroke="#00ff00" stroke-width=".1633" points="469.6122,-217.6222 459.268,-215.3315 465.9259,-223.573 469.6122,-217.6222"/>
</g>
<!-- y&#45;other&#45;vel -->
<g id="node12" class="node">
<title>y&#45;other&#45;vel</title>
<polygon fill="#d3d3d3" stroke="#000000" points="388.2132,-302.9691 332.2132,-302.9691 332.2132,-284.9691 388.2132,-284.9691 388.2132,-302.9691"/>
<text text-anchor="middle" x="360.2132" y="-291.7691" font-family="Times,serif" font-size="9.00" fill="#000000">y&#45;other&#45;vel</text>
</g>
<!-- y&#45;other&#45;vel&#45;&gt;forward -->
<g id="edge13" class="edge">
<title>y&#45;other&#45;vel&#45;&gt;forward</title>
<path fill="none" stroke="#ff0000" stroke-width=".1144" d="M367.1169,-284.822C376.1923,-272.7975 392.6363,-251.0099 406.7255,-232.3422"/>
<polygon fill="#ff0000" stroke="#ff0000" stroke-width=".1144" points="409.5636,-234.3918 412.7942,-224.3015 403.9763,-230.1748 409.5636,-234.3918"/>
</g>
<!-- y&#45;other&#45;vel&#45;&gt;backward -->
<g id="edge10" class="edge">
<title>y&#45;other&#45;vel&#45;&gt;backward</title>
<path fill="none" stroke="#00ff00" stroke-width=".2348" stroke-dasharray="1,5" d="M356.8573,-284.822C353.23,-274.9354 347.1812,-258.4488 341.3382,-242.5228"/>
<polygon fill="#00ff00" stroke="#00ff00" stroke-width=".2348" points="344.4804,-240.9257 337.7501,-232.7432 337.9088,-243.3368 344.4804,-240.9257"/>
</g>
<!-- none&#45;&gt;none -->
<g id="edge17" class="edge">
<title>none&#45;&gt;none</title>
<path fill="none" stroke="#ff0000" stroke-width=".1193" d="M279.1098,-116.6441C290.5785,-119.5371 301.2548,-114.8118 301.2548,-102.468 301.2548,-93.9817 296.2086,-89.0963 289.3279,-87.8117"/>
<polygon fill="#ff0000" stroke="#ff0000" stroke-width=".1193" points="288.9344,-84.3263 279.1098,-88.292 289.2631,-91.3185 288.9344,-84.3263"/>
</g>
<!-- 587 -->
<g id="node21" class="node">
<title>587</title>
<ellipse fill="#ffffff" stroke="#000000" cx="259.2132" cy="-21.2132" rx="21.4286" ry="21.4286"/>
<text text-anchor="middle" x="259.2132" y="-19.0132" font-family="Times,serif" font-size="9.00" fill="#000000">587</text>
</g>
<!-- none&#45;&gt;587 -->
<g id="edge39" class="edge">
<title>none&#45;&gt;587</title>
<path fill="none" stroke="#ff0000" stroke-width=".2148" d="M253.0272,-78.9658C252.434,-70.4764 252.3087,-60.7659 252.6514,-51.7607"/>
<polygon fill="#ff0000" stroke="#ff0000" stroke-width=".2148" points="256.154,-51.823 253.2685,-41.6287 249.1669,-51.3974 256.154,-51.823"/>
</g>
<!-- 637 -->
<g id="node23" class="node">
<title>637</title>
<ellipse fill="#ffffff" stroke="#000000" cx="749.2132" cy="-198.5721" rx="21.4286" ry="21.4286"/>
<text text-anchor="middle" x="749.2132" y="-196.3721" font-family="Times,serif" font-size="9.00" fill="#000000">637</text>
</g>
<!-- right&#45;&gt;637 -->
<g id="edge45" class="edge">
<title>right&#45;&gt;637</title>
<path fill="none" stroke="#00ff00" stroke-width=".2413" d="M764.3718,-270.8761C761.7554,-258.3967 758.4904,-242.8228 755.6613,-229.3283"/>
<polygon fill="#00ff00" stroke="#00ff00" stroke-width=".2413" points="759.0782,-228.569 753.6007,-219.5 752.2272,-230.0054 759.0782,-228.569"/>
</g>
<!-- left&#45;&gt;left -->
<g id="edge26" class="edge">
<title>left&#45;&gt;left</title>
<path fill="none" stroke="#00ff00" stroke-width=".1517" stroke-dasharray="1,5" d="M943.7772,-213.2883C955.554,-220.0009 968.0122,-215.0956 968.0122,-198.5721 968.0122,-186.6959 961.5763,-180.8216 953.5833,-180.9491"/>
<polygon fill="#00ff00" stroke="#00ff00" stroke-width=".1517" points="952.3701,-177.6582 943.7772,-183.8559 954.3596,-184.3695 952.3701,-177.6582"/>
</g>
<!-- 549&#45;&gt;left -->
<g id="edge38" class="edge">
<title>549&#45;&gt;left</title>
<path fill="none" stroke="#00ff00" stroke-width=".2343" d="M1002.8469,-278.2162C988.617,-262.6129 966.6892,-238.5686 950.6484,-220.9796"/>
<polygon fill="#00ff00" stroke="#00ff00" stroke-width=".2343" points="953.0658,-218.4362 943.7413,-213.4059 947.8937,-223.1531 953.0658,-218.4362"/>
</g>
<!-- 487&#45;&gt;forward -->
<g id="edge43" class="edge">
<title>487&#45;&gt;forward</title>
<path fill="none" stroke="#ff0000" stroke-width=".3503" d="M274.4963,-284.3936C297.4679,-272.9007 336.9221,-252.8897 370.2132,-234.6346 378.5522,-230.0619 387.4339,-225.0078 395.7923,-220.1666"/>
<polygon fill="#ff0000" stroke="#ff0000" stroke-width=".3503" points="397.7288,-223.0891 404.6061,-215.0298 394.204,-217.0413 397.7288,-223.0891"/>
</g>
<!-- 487&#45;&gt;backward -->
<g id="edge33" class="edge">
<title>487&#45;&gt;backward</title>
<path fill="none" stroke="#ff0000" stroke-width=".399" d="M268.0523,-276.4718C276.2891,-265.2466 287.3076,-250.2304 297.4719,-236.3784"/>
<polygon fill="#ff0000" stroke="#ff0000" stroke-width=".399" points="300.5635,-238.0813 303.6576,-227.9484 294.9198,-233.9401 300.5635,-238.0813"/>
</g>
<!-- 487&#45;&gt;587 -->
<g id="edge42" class="edge">
<title>487&#45;&gt;587</title>
<path fill="none" stroke="#00ff00" stroke-width=".6112" d="M243.7933,-276.0707C237.2275,-264.6944 229.6239,-249.3799 226.2132,-234.6346 210.5679,-166.9945 208.2586,-145.4904 226.2132,-78.4264 229.1796,-67.3464 234.8663,-56.1898 240.6945,-46.7083"/>
<polygon fill="#00ff00" stroke="#00ff00" stroke-width=".6112" points="243.7186,-48.4782 246.2416,-38.1881 237.8523,-44.6589 243.7186,-48.4782"/>
</g>
<!-- 521&#45;&gt;none -->
<g id="edge35" class="edge">
<title>521&#45;&gt;none</title>
<path fill="none" stroke="#ff0000" stroke-width=".243" d="M34.3673,-181.609C40.3843,-174.8332 48.0012,-167.4765 56.2132,-162.5097 110.1361,-129.8957 182.8962,-114.0348 225.0676,-107.1162"/>
<polygon fill="#ff0000" stroke="#ff0000" stroke-width=".243" points="225.7619,-110.5502 235.1,-105.5452 224.6789,-103.6345 225.7619,-110.5502"/>
</g>
<!-- 587&#45;&gt;none -->
<g id="edge40" class="edge">
<title>587&#45;&gt;none</title>
<path fill="none" stroke="#00ff00" stroke-width=".5421" stroke-dasharray="1,5" d="M265.1579,-41.6287C265.8744,-49.8757 266.1128,-59.6136 265.873,-68.8527"/>
<polygon fill="#00ff00" stroke="#00ff00" stroke-width=".5421" points="262.3712,-68.8129 265.3992,-78.9658 269.3635,-69.1406 262.3712,-68.8129"/>
</g>
<!-- 348&#45;&gt;backward -->
<g id="edge31" class="edge">
<title>348&#45;&gt;backward</title>
<path fill="none" stroke="#ff0000" stroke-width=".4742" stroke-dasharray="1,5" d="M211.8493,-280.6422C216.1504,-277.3042 220.8106,-273.7797 225.2132,-270.6346 248.9855,-253.652 256.5648,-251.7893 280.2132,-234.6346 283.0547,-232.5733 285.9619,-230.4003 288.8636,-228.1846"/>
<polygon fill="#ff0000" stroke="#ff0000" stroke-width=".4742" points="291.2202,-230.7859 296.9675,-221.8853 286.9242,-225.2592 291.2202,-230.7859"/>
</g>
<!-- 637&#45;&gt;none -->
<g id="edge41" class="edge">
<title>637&#45;&gt;none</title>
<path fill="none" stroke="#ff0000" stroke-width=".1916" d="M732.4584,-184.7511C722.0776,-176.9396 708.1118,-167.7214 694.2132,-162.5097 620.4739,-134.8584 382.4358,-112.7327 293.3165,-105.2234"/>
<polygon fill="#ff0000" stroke="#ff0000" stroke-width=".1916" points="293.4638,-101.7236 283.2076,-104.3807 292.8823,-108.6994 293.4638,-101.7236"/>
</g>
</g>
</svg>
