<?xml version="1.0" encoding="UTF-8" standalone="no"?>
<!DOCTYPE svg PUBLIC "-//W3C//DTD SVG 1.1//EN"
 "http://www.w3.org/Graphics/SVG/1.1/DTD/svg11.dtd">
<!-- Generated by graphviz version 2.40.1 (20161225.0304)
 -->
<!-- Title: %3 Pages: 1 -->
<svg width="907pt" height="305pt"
 viewBox="0.00 0.00 907.00 305.12" xmlns="http://www.w3.org/2000/svg" xmlns:xlink="http://www.w3.org/1999/xlink">
<g id="graph0" class="graph" transform="scale(1 1) rotate(0) translate(4 301.1198)">
<title>%3</title>
<polygon fill="#ffffff" stroke="transparent" points="-4,4 -4,-301.1198 903,-301.1198 903,4 -4,4"/>
<!-- p_E -->
<g id="node1" class="node">
<title>p_E</title>
<polygon fill="#d3d3d3" stroke="#000000" points="536.5,-141.8736 505.5,-141.8736 505.5,-123.8736 536.5,-123.8736 536.5,-141.8736"/>
<text text-anchor="middle" x="521" y="-130.6736" font-family="Times,serif" font-size="9.00" fill="#000000">p_E</text>
</g>
<!-- forward -->
<g id="node27" class="node">
<title>forward</title>
<ellipse fill="#add8e6" stroke="#000000" cx="224" cy="-36.0624" rx="31.6406" ry="31.6406"/>
<text text-anchor="middle" x="224" y="-33.8624" font-family="Times,serif" font-size="9.00" fill="#000000">forward</text>
</g>
<!-- p_E&#45;&gt;forward -->
<g id="edge20" class="edge">
<title>p_E&#45;&gt;forward</title>
<path fill="none" stroke="#ff0000" stroke-width=".4122" d="M513.589,-123.4108C509.0353,-118.1941 502.7853,-112.0069 496,-108.1249 475.8684,-96.6072 335.9181,-62.5205 264.9997,-45.6882"/>
<polygon fill="#ff0000" stroke="#ff0000" stroke-width=".4122" points="265.5971,-42.233 255.0597,-43.3347 263.9842,-49.0447 265.5971,-42.233"/>
</g>
<!-- backward -->
<g id="node28" class="node">
<title>backward</title>
<ellipse fill="#add8e6" stroke="#000000" cx="621" cy="-36.0624" rx="36.125" ry="36.125"/>
<text text-anchor="middle" x="621" y="-33.8624" font-family="Times,serif" font-size="9.00" fill="#000000">backward</text>
</g>
<!-- p_E&#45;&gt;backward -->
<g id="edge3" class="edge">
<title>p_E&#45;&gt;backward</title>
<path fill="none" stroke="#00ff00" stroke-width=".1823" d="M529.7995,-123.6164C534.3003,-118.9285 539.893,-113.1749 545,-108.1249 558.51,-94.7658 573.6531,-80.3064 586.8454,-67.8706"/>
<polygon fill="#00ff00" stroke="#00ff00" stroke-width=".1823" points="589.4715,-70.2055 594.3602,-60.806 584.6769,-65.1053 589.4715,-70.2055"/>
</g>
<!-- 3160 -->
<g id="node30" class="node">
<title>3160</title>
<ellipse fill="#ffffff" stroke="#000000" cx="521" cy="-36.0624" rx="25" ry="25"/>
<text text-anchor="middle" x="521" y="-33.8624" font-family="Times,serif" font-size="9.00" fill="#000000">3160</text>
</g>
<!-- p_E&#45;&gt;3160 -->
<g id="edge23" class="edge">
<title>p_E&#45;&gt;3160</title>
<path fill="none" stroke="#00ff00" stroke-width=".5476" d="M521,-123.591C521,-111.5316 521,-89.7961 521,-71.0026"/>
<polygon fill="#00ff00" stroke="#00ff00" stroke-width=".5476" points="524.5001,-70.9446 521,-60.9446 517.5001,-70.9446 524.5001,-70.9446"/>
</g>
<!-- e_E -->
<g id="node2" class="node">
<title>e_E</title>
<polygon fill="#d3d3d3" stroke="#000000" points="740,-141.8736 710,-141.8736 710,-123.8736 740,-123.8736 740,-141.8736"/>
<text text-anchor="middle" x="725" y="-130.6736" font-family="Times,serif" font-size="9.00" fill="#000000">e_E</text>
</g>
<!-- left -->
<g id="node26" class="node">
<title>left</title>
<ellipse fill="#add8e6" stroke="#000000" cx="751" cy="-36.0624" rx="19.6" ry="19.6"/>
<text text-anchor="middle" x="751" y="-33.8624" font-family="Times,serif" font-size="9.00" fill="#000000">left</text>
</g>
<!-- e_E&#45;&gt;left -->
<g id="edge15" class="edge">
<title>e_E&#45;&gt;left</title>
<path fill="none" stroke="#ff0000" stroke-width=".3501" d="M727.493,-123.591C731.0647,-110.2915 737.7971,-85.2235 743.1446,-65.3119"/>
<polygon fill="#ff0000" stroke="#ff0000" stroke-width=".3501" points="746.5772,-66.0247 745.7908,-55.4591 739.8167,-64.209 746.5772,-66.0247"/>
</g>
<!-- e_E&#45;&gt;backward -->
<g id="edge10" class="edge">
<title>e_E&#45;&gt;backward</title>
<path fill="none" stroke="#00ff00" stroke-width=".4127" d="M716.2548,-123.5608C711.7678,-118.8587 706.1712,-113.1092 701,-108.1249 686.5781,-94.2241 670.2129,-79.3345 656.0582,-66.7195"/>
<polygon fill="#00ff00" stroke="#00ff00" stroke-width=".4127" points="658.2508,-63.9858 648.4482,-59.9658 653.6044,-69.2214 658.2508,-63.9858"/>
</g>
<!-- l_E -->
<g id="node3" class="node">
<title>l_E</title>
<polygon fill="#d3d3d3" stroke="#000000" points="323.5,-297.1198 294.5,-297.1198 294.5,-279.1198 323.5,-279.1198 323.5,-297.1198"/>
<text text-anchor="middle" x="309" y="-285.9198" font-family="Times,serif" font-size="9.00" fill="#000000">l_E</text>
</g>
<!-- p_NE -->
<g id="node4" class="node">
<title>p_NE</title>
<polygon fill="#d3d3d3" stroke="#000000" points="795.5,-141.8736 758.5,-141.8736 758.5,-123.8736 795.5,-123.8736 795.5,-141.8736"/>
<text text-anchor="middle" x="777" y="-130.6736" font-family="Times,serif" font-size="9.00" fill="#000000">p_NE</text>
</g>
<!-- p_NE&#45;&gt;left -->
<g id="edge17" class="edge">
<title>p_NE&#45;&gt;left</title>
<path fill="none" stroke="#00ff00" stroke-width=".6136" d="M774.507,-123.591C770.9353,-110.2915 764.2029,-85.2235 758.8554,-65.3119"/>
<polygon fill="#00ff00" stroke="#00ff00" stroke-width=".6136" points="762.1833,-64.209 756.2092,-55.4591 755.4228,-66.0247 762.1833,-64.209"/>
</g>
<!-- e_NE -->
<g id="node5" class="node">
<title>e_NE</title>
<polygon fill="#d3d3d3" stroke="#000000" points="850.5,-141.8736 813.5,-141.8736 813.5,-123.8736 850.5,-123.8736 850.5,-141.8736"/>
<text text-anchor="middle" x="832" y="-130.6736" font-family="Times,serif" font-size="9.00" fill="#000000">e_NE</text>
</g>
<!-- e_NE&#45;&gt;left -->
<g id="edge9" class="edge">
<title>e_NE&#45;&gt;left</title>
<path fill="none" stroke="#ff0000" stroke-width="1.1884" d="M824.2334,-123.591C811.9286,-108.8843 787.5833,-79.7869 770.3458,-59.1846"/>
<polygon fill="#ff0000" stroke="#ff0000" stroke-width="1.1884" points="773.0032,-56.9064 763.9018,-51.4827 767.6345,-61.3983 773.0032,-56.9064"/>
</g>
<!-- l_NE -->
<g id="node6" class="node">
<title>l_NE</title>
<polygon fill="#d3d3d3" stroke="#000000" points="436.5,-141.8736 401.5,-141.8736 401.5,-123.8736 436.5,-123.8736 436.5,-141.8736"/>
<text text-anchor="middle" x="419" y="-130.6736" font-family="Times,serif" font-size="9.00" fill="#000000">l_NE</text>
</g>
<!-- right -->
<g id="node25" class="node">
<title>right</title>
<ellipse fill="#add8e6" stroke="#000000" cx="419" cy="-36.0624" rx="23.1702" ry="23.1702"/>
<text text-anchor="middle" x="419" y="-33.8624" font-family="Times,serif" font-size="9.00" fill="#000000">right</text>
</g>
<!-- l_NE&#45;&gt;right -->
<g id="edge5" class="edge">
<title>l_NE&#45;&gt;right</title>
<path fill="none" stroke="#00ff00" stroke-width=".3141" stroke-dasharray="1,5" d="M419,-123.591C419,-111.292 419,-88.9286 419,-69.8861"/>
<polygon fill="#00ff00" stroke="#00ff00" stroke-width=".3141" points="422.5001,-69.7335 419,-59.7335 415.5001,-69.7335 422.5001,-69.7335"/>
</g>
<!-- p_N -->
<g id="node7" class="node">
<title>p_N</title>
<polygon fill="#d3d3d3" stroke="#000000" points="374,-297.1198 342,-297.1198 342,-279.1198 374,-279.1198 374,-297.1198"/>
<text text-anchor="middle" x="358" y="-285.9198" font-family="Times,serif" font-size="9.00" fill="#000000">p_N</text>
</g>
<!-- e_N -->
<g id="node8" class="node">
<title>e_N</title>
<polygon fill="#d3d3d3" stroke="#000000" points="585.5,-141.8736 554.5,-141.8736 554.5,-123.8736 585.5,-123.8736 585.5,-141.8736"/>
<text text-anchor="middle" x="570" y="-130.6736" font-family="Times,serif" font-size="9.00" fill="#000000">e_N</text>
</g>
<!-- e_N&#45;&gt;backward -->
<g id="edge1" class="edge">
<title>e_N&#45;&gt;backward</title>
<path fill="none" stroke="#ff0000" stroke-width=".9239" d="M574.8901,-123.591C580.5799,-112.7902 590.3587,-94.2276 599.4507,-76.9686"/>
<polygon fill="#ff0000" stroke="#ff0000" stroke-width=".9239" points="602.5531,-78.5888 604.1173,-68.1101 596.3599,-75.3262 602.5531,-78.5888"/>
</g>
<!-- l_N -->
<g id="node9" class="node">
<title>l_N</title>
<polygon fill="#d3d3d3" stroke="#000000" points="422,-297.1198 392,-297.1198 392,-279.1198 422,-279.1198 422,-297.1198"/>
<text text-anchor="middle" x="407" y="-285.9198" font-family="Times,serif" font-size="9.00" fill="#000000">l_N</text>
</g>
<!-- p_NW -->
<g id="node10" class="node">
<title>p_NW</title>
<polygon fill="#d3d3d3" stroke="#000000" points="287,-227.3711 247,-227.3711 247,-209.3711 287,-209.3711 287,-227.3711"/>
<text text-anchor="middle" x="267" y="-216.1711" font-family="Times,serif" font-size="9.00" fill="#000000">p_NW</text>
</g>
<!-- p_NW&#45;&gt;forward -->
<g id="edge19" class="edge">
<title>p_NW&#45;&gt;forward</title>
<path fill="none" stroke="#ff0000" stroke-width=".4675" stroke-dasharray="1,5" d="M267.3427,-209.3267C267.8319,-190.2569 267.7677,-144.6733 258,-108.1249 254.8508,-96.3413 249.8376,-84.1262 244.618,-73.1748"/>
<polygon fill="#ff0000" stroke="#ff0000" stroke-width=".4675" points="247.6033,-71.3172 240.0196,-63.9187 241.3343,-74.4316 247.6033,-71.3172"/>
</g>
<!-- 3131 -->
<g id="node31" class="node">
<title>3131</title>
<ellipse fill="#ffffff" stroke="#000000" cx="224" cy="-132.8736" rx="25" ry="25"/>
<text text-anchor="middle" x="224" y="-130.6736" font-family="Times,serif" font-size="9.00" fill="#000000">3131</text>
</g>
<!-- p_NW&#45;&gt;3131 -->
<g id="edge21" class="edge">
<title>p_NW&#45;&gt;3131</title>
<path fill="none" stroke="#ff0000" stroke-width=".2829" d="M262.3982,-209.2214C257.0011,-198.4902 247.7661,-180.1281 239.7054,-164.1009"/>
<polygon fill="#ff0000" stroke="#ff0000" stroke-width=".2829" points="242.753,-162.3706 235.133,-155.0095 236.4994,-165.5159 242.753,-162.3706"/>
</g>
<!-- e_NW -->
<g id="node11" class="node">
<title>e_NW</title>
<polygon fill="#d3d3d3" stroke="#000000" points="383,-141.8736 343,-141.8736 343,-123.8736 383,-123.8736 383,-141.8736"/>
<text text-anchor="middle" x="363" y="-130.6736" font-family="Times,serif" font-size="9.00" fill="#000000">e_NW</text>
</g>
<!-- e_NW&#45;&gt;right -->
<g id="edge4" class="edge">
<title>e_NW&#45;&gt;right</title>
<path fill="none" stroke="#ff0000" stroke-width="1.3311" d="M368.3695,-123.591C376.0612,-110.2938 390.5582,-85.2319 402.075,-65.3219"/>
<polygon fill="#ff0000" stroke="#ff0000" stroke-width="1.3311" points="405.1442,-67.006 407.1217,-56.5973 399.0849,-63.501 405.1442,-67.006"/>
</g>
<!-- e_NW&#45;&gt;forward -->
<g id="edge27" class="edge">
<title>e_NW&#45;&gt;forward</title>
<path fill="none" stroke="#00ff00" stroke-width=".1464" d="M350.784,-123.856C344.3361,-119.1282 336.2734,-113.2665 329,-108.1249 305.7781,-91.7093 279.3845,-73.5975 258.8687,-59.638"/>
<polygon fill="#00ff00" stroke="#00ff00" stroke-width=".1464" points="260.701,-56.6515 250.4625,-53.9266 256.7671,-62.4415 260.701,-56.6515"/>
</g>
<!-- l_NW -->
<g id="node12" class="node">
<title>l_NW</title>
<polygon fill="#d3d3d3" stroke="#000000" points="478,-297.1198 440,-297.1198 440,-279.1198 478,-279.1198 478,-297.1198"/>
<text text-anchor="middle" x="459" y="-285.9198" font-family="Times,serif" font-size="9.00" fill="#000000">l_NW</text>
</g>
<!-- p_W -->
<g id="node13" class="node">
<title>p_W</title>
<polygon fill="#d3d3d3" stroke="#000000" points="638,-141.8736 604,-141.8736 604,-123.8736 638,-123.8736 638,-141.8736"/>
<text text-anchor="middle" x="621" y="-130.6736" font-family="Times,serif" font-size="9.00" fill="#000000">p_W</text>
</g>
<!-- p_W&#45;&gt;left -->
<g id="edge7" class="edge">
<title>p_W&#45;&gt;left</title>
<path fill="none" stroke="#00ff00" stroke-width=".4625" d="M629.8296,-123.811C634.7202,-118.963 641.0076,-113.004 647,-108.1249 672.4873,-87.3727 703.7086,-66.2616 725.2545,-52.3002"/>
<polygon fill="#00ff00" stroke="#00ff00" stroke-width=".4625" points="727.3303,-55.1267 733.8512,-46.7764 723.5462,-49.2376 727.3303,-55.1267"/>
</g>
<!-- p_W&#45;&gt;backward -->
<g id="edge13" class="edge">
<title>p_W&#45;&gt;backward</title>
<path fill="none" stroke="#ff0000" stroke-width=".6896" stroke-dasharray="1,5" d="M621,-123.591C621,-113.963 621,-98.1674 621,-82.6253"/>
<polygon fill="#ff0000" stroke="#ff0000" stroke-width=".6896" points="624.5001,-82.516 621,-72.516 617.5001,-82.5161 624.5001,-82.516"/>
</g>
<!-- e_W -->
<g id="node14" class="node">
<title>e_W</title>
<polygon fill="#d3d3d3" stroke="#000000" points="487.5,-141.8736 454.5,-141.8736 454.5,-123.8736 487.5,-123.8736 487.5,-141.8736"/>
<text text-anchor="middle" x="471" y="-130.6736" font-family="Times,serif" font-size="9.00" fill="#000000">e_W</text>
</g>
<!-- e_W&#45;&gt;right -->
<g id="edge12" class="edge">
<title>e_W&#45;&gt;right</title>
<path fill="none" stroke="#ff0000" stroke-width="1.5866" d="M466.014,-123.591C458.9478,-110.4354 445.6963,-85.7643 435.0586,-65.9597"/>
<polygon fill="#ff0000" stroke="#ff0000" stroke-width="1.5866" points="438.0515,-64.1349 430.2362,-56.9815 431.8848,-67.4473 438.0515,-64.1349"/>
</g>
<!-- l_W -->
<g id="node15" class="node">
<title>l_W</title>
<polygon fill="#d3d3d3" stroke="#000000" points="528,-297.1198 496,-297.1198 496,-279.1198 528,-279.1198 528,-297.1198"/>
<text text-anchor="middle" x="512" y="-285.9198" font-family="Times,serif" font-size="9.00" fill="#000000">l_W</text>
</g>
<!-- p_SW -->
<g id="node16" class="node">
<title>p_SW</title>
<polygon fill="#d3d3d3" stroke="#000000" points="585.5,-297.1198 546.5,-297.1198 546.5,-279.1198 585.5,-279.1198 585.5,-297.1198"/>
<text text-anchor="middle" x="566" y="-285.9198" font-family="Times,serif" font-size="9.00" fill="#000000">p_SW</text>
</g>
<!-- e_SW -->
<g id="node17" class="node">
<title>e_SW</title>
<polygon fill="#d3d3d3" stroke="#000000" points="38,-141.8736 0,-141.8736 0,-123.8736 38,-123.8736 38,-141.8736"/>
<text text-anchor="middle" x="19" y="-130.6736" font-family="Times,serif" font-size="9.00" fill="#000000">e_SW</text>
</g>
<!-- e_SW&#45;&gt;forward -->
<g id="edge16" class="edge">
<title>e_SW&#45;&gt;forward</title>
<path fill="none" stroke="#ff0000" stroke-width="3.3398" d="M27.7074,-123.7825C32.9431,-118.6897 39.9431,-112.5025 47,-108.1249 90.6821,-81.0272 146.3219,-60.3342 183.4457,-48.2187"/>
<polygon fill="#ff0000" stroke="#ff0000" stroke-width="3.3398" points="184.9441,-51.414 193.4002,-45.0308 182.8091,-44.7476 184.9441,-51.414"/>
</g>
<!-- l_SW -->
<g id="node18" class="node">
<title>l_SW</title>
<polygon fill="#d3d3d3" stroke="#000000" points="93.5,-141.8736 56.5,-141.8736 56.5,-123.8736 93.5,-123.8736 93.5,-141.8736"/>
<text text-anchor="middle" x="75" y="-130.6736" font-family="Times,serif" font-size="9.00" fill="#000000">l_SW</text>
</g>
<!-- l_SW&#45;&gt;forward -->
<g id="edge14" class="edge">
<title>l_SW&#45;&gt;forward</title>
<path fill="none" stroke="#00ff00" stroke-width=".1154" stroke-dasharray="1,5" d="M84.0797,-123.6637C89.1322,-118.7726 95.6649,-112.8193 102,-108.1249 128.8141,-88.2551 161.4715,-69.2067 186.2481,-55.6895"/>
<polygon fill="#00ff00" stroke="#00ff00" stroke-width=".1154" points="188.1908,-58.6183 195.3295,-50.7895 184.8668,-52.4578 188.1908,-58.6183"/>
</g>
<!-- p_S -->
<g id="node19" class="node">
<title>p_S</title>
<polygon fill="#d3d3d3" stroke="#000000" points="142.5,-141.8736 111.5,-141.8736 111.5,-123.8736 142.5,-123.8736 142.5,-141.8736"/>
<text text-anchor="middle" x="127" y="-130.6736" font-family="Times,serif" font-size="9.00" fill="#000000">p_S</text>
</g>
<!-- p_S&#45;&gt;forward -->
<g id="edge2" class="edge">
<title>p_S&#45;&gt;forward</title>
<path fill="none" stroke="#00ff00" stroke-width=".2377" stroke-dasharray="1,5" d="M136.3008,-123.591C149.5035,-110.4139 174.2818,-85.6839 194.1414,-65.8629"/>
<polygon fill="#00ff00" stroke="#00ff00" stroke-width=".2377" points="196.8721,-68.0825 201.4776,-58.541 191.9272,-63.1279 196.8721,-68.0825"/>
</g>
<!-- e_S -->
<g id="node20" class="node">
<title>e_S</title>
<polygon fill="#d3d3d3" stroke="#000000" points="899,-141.8736 869,-141.8736 869,-123.8736 899,-123.8736 899,-141.8736"/>
<text text-anchor="middle" x="884" y="-130.6736" font-family="Times,serif" font-size="9.00" fill="#000000">e_S</text>
</g>
<!-- e_S&#45;&gt;left -->
<g id="edge18" class="edge">
<title>e_S&#45;&gt;left</title>
<path fill="none" stroke="#ff0000" stroke-width=".6909" d="M875.9938,-123.6986C871.5216,-118.8177 865.7123,-112.8631 860,-108.1249 833.4512,-86.1034 799.9872,-64.8194 777.1883,-51.1654"/>
<polygon fill="#ff0000" stroke="#ff0000" stroke-width=".6909" points="778.8064,-48.056 768.4181,-45.9743 775.2408,-54.0799 778.8064,-48.056"/>
</g>
<!-- l_S -->
<g id="node21" class="node">
<title>l_S</title>
<polygon fill="#d3d3d3" stroke="#000000" points="632.5,-297.1198 603.5,-297.1198 603.5,-279.1198 632.5,-279.1198 632.5,-297.1198"/>
<text text-anchor="middle" x="618" y="-285.9198" font-family="Times,serif" font-size="9.00" fill="#000000">l_S</text>
</g>
<!-- p_SE -->
<g id="node22" class="node">
<title>p_SE</title>
<polygon fill="#d3d3d3" stroke="#000000" points="692,-141.8736 656,-141.8736 656,-123.8736 692,-123.8736 692,-141.8736"/>
<text text-anchor="middle" x="674" y="-130.6736" font-family="Times,serif" font-size="9.00" fill="#000000">p_SE</text>
</g>
<!-- p_SE&#45;&gt;left -->
<g id="edge6" class="edge">
<title>p_SE&#45;&gt;left</title>
<path fill="none" stroke="#00ff00" stroke-width=".2514" stroke-dasharray="1,5" d="M681.3831,-123.591C692.9623,-109.0326 715.7578,-80.3721 732.1119,-59.8102"/>
<polygon fill="#00ff00" stroke="#00ff00" stroke-width=".2514" points="734.973,-61.8357 738.4586,-51.8306 729.4945,-57.4783 734.973,-61.8357"/>
</g>
<!-- p_SE&#45;&gt;backward -->
<g id="edge8" class="edge">
<title>p_SE&#45;&gt;backward</title>
<path fill="none" stroke="#00ff00" stroke-width=".3542" stroke-dasharray="1,5" d="M668.9181,-123.591C663.0052,-112.7902 652.8429,-94.2276 643.3944,-76.9686"/>
<polygon fill="#00ff00" stroke="#00ff00" stroke-width=".3542" points="646.4169,-75.2009 638.5447,-68.1101 640.2768,-78.5624 646.4169,-75.2009"/>
</g>
<!-- e_SE -->
<g id="node23" class="node">
<title>e_SE</title>
<polygon fill="#d3d3d3" stroke="#000000" points="276.5,-297.1198 241.5,-297.1198 241.5,-279.1198 276.5,-279.1198 276.5,-297.1198"/>
<text text-anchor="middle" x="259" y="-285.9198" font-family="Times,serif" font-size="9.00" fill="#000000">e_SE</text>
</g>
<!-- e_SE&#45;&gt;forward -->
<g id="edge11" class="edge">
<title>e_SE&#45;&gt;forward</title>
<path fill="none" stroke="#ff0000" stroke-width="1.0737" d="M269.7902,-279.0394C278.7425,-270.7431 290.8141,-257.5924 296,-243.1198 303.4207,-222.4103 298.522,-215.4762 296,-193.6224 291.5261,-154.855 292.1772,-143.6386 276,-108.1249 269.67,-94.2286 260.4617,-80.3058 251.547,-68.4541"/>
<polygon fill="#ff0000" stroke="#ff0000" stroke-width="1.0737" points="254.0508,-65.9718 245.1529,-60.2203 248.522,-70.2652 254.0508,-65.9718"/>
</g>
<!-- 3178 -->
<g id="node29" class="node">
<title>3178</title>
<ellipse fill="#ffffff" stroke="#000000" cx="204" cy="-218.3711" rx="25" ry="25"/>
<text text-anchor="middle" x="204" y="-216.1711" font-family="Times,serif" font-size="9.00" fill="#000000">3178</text>
</g>
<!-- e_SE&#45;&gt;3178 -->
<g id="edge24" class="edge">
<title>e_SE&#45;&gt;3178</title>
<path fill="none" stroke="#00ff00" stroke-width=".577" d="M251.8097,-279.0014C245.1854,-270.6007 235.0086,-257.695 225.7442,-245.9463"/>
<polygon fill="#00ff00" stroke="#00ff00" stroke-width=".577" points="228.4714,-243.7522 219.5311,-238.067 222.9747,-248.0866 228.4714,-243.7522"/>
</g>
<!-- l_SE -->
<g id="node24" class="node">
<title>l_SE</title>
<polygon fill="#d3d3d3" stroke="#000000" points="685,-297.1198 651,-297.1198 651,-279.1198 685,-279.1198 685,-297.1198"/>
<text text-anchor="middle" x="668" y="-285.9198" font-family="Times,serif" font-size="9.00" fill="#000000">l_SE</text>
</g>
<!-- 3178&#45;&gt;forward -->
<g id="edge25" class="edge">
<title>3178&#45;&gt;forward</title>
<path fill="none" stroke="#ff0000" stroke-width="1.0398" d="M196.2478,-194.4912C190.0575,-172.0087 183.4193,-137.4948 190,-108.1249 192.7174,-95.9971 197.7151,-83.5061 203.0579,-72.4006"/>
<polygon fill="#ff0000" stroke="#ff0000" stroke-width="1.0398" points="206.2013,-73.9404 207.5845,-63.4363 199.9527,-70.7851 206.2013,-73.9404"/>
</g>
<!-- 3178&#45;&gt;3131 -->
<g id="edge26" class="edge">
<title>3178&#45;&gt;3131</title>
<path fill="none" stroke="#00ff00" stroke-width=".4408" d="M209.6777,-194.0997C211.6411,-185.7062 213.8799,-176.1359 215.9945,-167.0959"/>
<polygon fill="#00ff00" stroke="#00ff00" stroke-width=".4408" points="219.4383,-167.7402 218.3081,-157.2058 212.6223,-166.1457 219.4383,-167.7402"/>
</g>
<!-- 3131&#45;&gt;forward -->
<g id="edge22" class="edge">
<title>3131&#45;&gt;forward</title>
<path fill="none" stroke="#ff0000" stroke-width=".1898" d="M224,-107.9423C224,-98.9609 224,-88.5569 224,-78.5017"/>
<polygon fill="#ff0000" stroke="#ff0000" stroke-width=".1898" points="227.5001,-78.2235 224,-68.2235 220.5001,-78.2235 227.5001,-78.2235"/>
</g>
</g>
</svg>
