<?xml version="1.0" encoding="UTF-8" standalone="no"?>
<!DOCTYPE svg PUBLIC "-//W3C//DTD SVG 1.1//EN"
 "http://www.w3.org/Graphics/SVG/1.1/DTD/svg11.dtd">
<!-- Generated by graphviz version 2.40.1 (20161225.0304)
 -->
<!-- Title: %3 Pages: 1 -->
<svg width="1203pt" height="391pt"
 viewBox="0.00 0.00 1202.75 390.62" xmlns="http://www.w3.org/2000/svg" xmlns:xlink="http://www.w3.org/1999/xlink">
<g id="graph0" class="graph" transform="scale(1 1) rotate(0) translate(4 386.6173)">
<title>%3</title>
<polygon fill="#ffffff" stroke="transparent" points="-4,4 -4,-386.6173 1198.7487,-386.6173 1198.7487,4 -4,4"/>
<!-- x&#45;vel -->
<g id="node1" class="node">
<title>x&#45;vel</title>
<polygon fill="#d3d3d3" stroke="#000000" points="605.2487,-312.8686 570.2487,-312.8686 570.2487,-294.8686 605.2487,-294.8686 605.2487,-312.8686"/>
<text text-anchor="middle" x="587.7487" y="-301.6686" font-family="Times,serif" font-size="9.00" fill="#000000">x&#45;vel</text>
</g>
<!-- right -->
<g id="node14" class="node">
<title>right</title>
<ellipse fill="#add8e6" stroke="#000000" cx="712.7487" cy="-218.3711" rx="23.1702" ry="23.1702"/>
<text text-anchor="middle" x="712.7487" y="-216.1711" font-family="Times,serif" font-size="9.00" fill="#000000">right</text>
</g>
<!-- x&#45;vel&#45;&gt;right -->
<g id="edge19" class="edge">
<title>x&#45;vel&#45;&gt;right</title>
<path fill="none" stroke="#ff0000" stroke-width=".5115" d="M596.7652,-294.5717C601.7992,-289.6551 608.3343,-283.7053 614.7487,-279.1198 641.9307,-259.6883 652.7784,-261.3983 680.7487,-243.1198 682.6117,-241.9024 684.5037,-240.6072 686.3891,-239.2721"/>
<polygon fill="#ff0000" stroke="#ff0000" stroke-width=".5115" points="688.5368,-242.0371 694.5016,-233.2809 684.3782,-236.4062 688.5368,-242.0371"/>
</g>
<!-- 4316 -->
<g id="node28" class="node">
<title>4316</title>
<ellipse fill="#ffffff" stroke="#000000" cx="540.7487" cy="-218.3711" rx="25" ry="25"/>
<text text-anchor="middle" x="540.7487" y="-216.1711" font-family="Times,serif" font-size="9.00" fill="#000000">4316</text>
</g>
<!-- x&#45;vel&#45;&gt;4316 -->
<g id="edge59" class="edge">
<title>x&#45;vel&#45;&gt;4316</title>
<path fill="none" stroke="#00ff00" stroke-width=".6339" d="M582.7189,-294.7189C576.7801,-283.9157 566.59,-265.3788 557.7379,-249.276"/>
<polygon fill="#00ff00" stroke="#00ff00" stroke-width=".6339" points="560.6073,-247.2302 552.7228,-240.1531 554.4731,-250.6024 560.6073,-247.2302"/>
</g>
<!-- y&#45;vel -->
<g id="node2" class="node">
<title>y&#45;vel</title>
<polygon fill="#d3d3d3" stroke="#000000" points="686.2487,-382.6173 651.2487,-382.6173 651.2487,-364.6173 686.2487,-364.6173 686.2487,-382.6173"/>
<text text-anchor="middle" x="668.7487" y="-371.4173" font-family="Times,serif" font-size="9.00" fill="#000000">y&#45;vel</text>
</g>
<!-- y&#45;vel&#45;&gt;right -->
<g id="edge12" class="edge">
<title>y&#45;vel&#45;&gt;right</title>
<path fill="none" stroke="#00ff00" stroke-width=".1351" d="M685.8546,-364.5322C698.371,-356.8285 714.398,-344.5014 721.7487,-328.6173 733.079,-304.1338 729.2636,-273.3216 723.5134,-250.4999"/>
<polygon fill="#00ff00" stroke="#00ff00" stroke-width=".1351" points="726.8221,-249.3328 720.7827,-240.6279 720.0754,-251.1991 726.8221,-249.3328"/>
</g>
<!-- left -->
<g id="node15" class="node">
<title>left</title>
<ellipse fill="#add8e6" stroke="#000000" cx="172.7487" cy="-36.0624" rx="19.6" ry="19.6"/>
<text text-anchor="middle" x="172.7487" y="-33.8624" font-family="Times,serif" font-size="9.00" fill="#000000">left</text>
</g>
<!-- y&#45;vel&#45;&gt;left -->
<g id="edge10" class="edge">
<title>y&#45;vel&#45;&gt;left</title>
<path fill="none" stroke="#00ff00" stroke-width="1.8795" d="M650.9986,-372.9046C571.727,-369.582 252.4118,-354.6635 216.7487,-328.6173 133.273,-267.6516 122.4921,-209.489 142.7487,-108.1249 145.8901,-92.4056 152.5336,-75.8272 158.7721,-62.5399"/>
<polygon fill="#00ff00" stroke="#00ff00" stroke-width="1.8795" points="161.9409,-64.027 163.1872,-53.5057 155.6518,-60.9534 161.9409,-64.027"/>
</g>
<!-- forward -->
<g id="node16" class="node">
<title>forward</title>
<ellipse fill="#add8e6" stroke="#000000" cx="487.7487" cy="-36.0624" rx="31.6406" ry="31.6406"/>
<text text-anchor="middle" x="487.7487" y="-33.8624" font-family="Times,serif" font-size="9.00" fill="#000000">forward</text>
</g>
<!-- y&#45;vel&#45;&gt;forward -->
<g id="edge17" class="edge">
<title>y&#45;vel&#45;&gt;forward</title>
<path fill="none" stroke="#ff0000" stroke-width=".2314" stroke-dasharray="1,5" d="M651.0408,-373.0263C575.5344,-370.3305 283.0877,-358.042 255.7487,-328.6173 189.0212,-256.7989 191.3303,-186.8506 249.7487,-108.1249 273.2171,-76.4985 384.117,-53.3498 445.9077,-42.6584"/>
<polygon fill="#ff0000" stroke="#ff0000" stroke-width=".2314" points="446.8378,-46.0507 456.1122,-40.9287 445.6679,-39.1492 446.8378,-46.0507"/>
</g>
<!-- backward -->
<g id="node17" class="node">
<title>backward</title>
<ellipse fill="#add8e6" stroke="#000000" cx="903.7487" cy="-36.0624" rx="36.125" ry="36.125"/>
<text text-anchor="middle" x="903.7487" y="-33.8624" font-family="Times,serif" font-size="9.00" fill="#000000">backward</text>
</g>
<!-- y&#45;vel&#45;&gt;backward -->
<g id="edge2" class="edge">
<title>y&#45;vel&#45;&gt;backward</title>
<path fill="none" stroke="#00ff00" stroke-width=".1051" stroke-dasharray="1,5" d="M686.3235,-372.9248C740.338,-370.4672 902.6816,-360.5247 942.7487,-328.6173 1021.7566,-265.6996 1042.4397,-198.6985 997.7487,-108.1249 986.7809,-85.8968 965.3013,-68.6246 945.6407,-56.5693"/>
<polygon fill="#00ff00" stroke="#00ff00" stroke-width=".1051" points="947.1807,-53.4156 936.7797,-51.3984 943.6526,-59.4615 947.1807,-53.4156"/>
</g>
<!-- 5571 -->
<g id="node23" class="node">
<title>5571</title>
<ellipse fill="#ffffff" stroke="#000000" cx="798.7487" cy="-303.8686" rx="25" ry="25"/>
<text text-anchor="middle" x="798.7487" y="-301.6686" font-family="Times,serif" font-size="9.00" fill="#000000">5571</text>
</g>
<!-- y&#45;vel&#45;&gt;5571 -->
<g id="edge57" class="edge">
<title>y&#45;vel&#45;&gt;5571</title>
<path fill="none" stroke="#00ff00" stroke-width=".541" d="M686.4804,-365.5328C705.0321,-356.9167 734.8629,-342.6143 759.7487,-328.6173 762.8481,-326.8741 766.0439,-324.9922 769.2097,-323.072"/>
<polygon fill="#00ff00" stroke="#00ff00" stroke-width=".541" points="771.3012,-325.8931 777.9475,-317.6423 767.6065,-319.9476 771.3012,-325.8931"/>
</g>
<!-- y&#45;vel&#45;&gt;4316 -->
<g id="edge49" class="edge">
<title>y&#45;vel&#45;&gt;4316</title>
<path fill="none" stroke="#00ff00" stroke-width=".4855" stroke-dasharray="1,5" d="M650.9648,-371.7632C610.4145,-367.1313 513.1155,-353.5942 493.7487,-328.6173 473.703,-302.7648 496.0085,-267.0829 516.2051,-243.3969"/>
<polygon fill="#00ff00" stroke="#00ff00" stroke-width=".4855" points="518.8809,-245.6548 522.9093,-235.8557 513.6493,-241.0039 518.8809,-245.6548"/>
</g>
<!-- x&#45;pos -->
<g id="node3" class="node">
<title>x&#45;pos</title>
<polygon fill="#d3d3d3" stroke="#000000" points="300.7487,-312.8686 264.7487,-312.8686 264.7487,-294.8686 300.7487,-294.8686 300.7487,-312.8686"/>
<text text-anchor="middle" x="282.7487" y="-301.6686" font-family="Times,serif" font-size="9.00" fill="#000000">x&#45;pos</text>
</g>
<!-- x&#45;pos&#45;&gt;right -->
<g id="edge20" class="edge">
<title>x&#45;pos&#45;&gt;right</title>
<path fill="none" stroke="#00ff00" stroke-width=".2139" stroke-dasharray="1,5" d="M301.0371,-298.7454C321.344,-293.2179 355.1655,-284.4888 384.7487,-279.1198 515.1437,-255.4551 558.1585,-293.4636 680.7487,-243.1198 682.8602,-242.2527 684.9512,-241.2069 686.9931,-240.0418"/>
<polygon fill="#00ff00" stroke="#00ff00" stroke-width=".2139" points="689.1546,-242.8075 695.5403,-234.3533 685.2763,-236.9801 689.1546,-242.8075"/>
</g>
<!-- x&#45;pos&#45;&gt;left -->
<g id="edge18" class="edge">
<title>x&#45;pos&#45;&gt;left</title>
<path fill="none" stroke="#00ff00" stroke-width=".3168" d="M278.0137,-294.4959C272.0876,-282.6455 261.7454,-261.562 253.7487,-243.1198 226.3564,-179.9469 197.8096,-104.2779 183.0174,-64.2006"/>
<polygon fill="#00ff00" stroke="#00ff00" stroke-width=".3168" points="186.2993,-62.9843 179.562,-54.8075 179.7297,-65.401 186.2993,-62.9843"/>
</g>
<!-- x&#45;pos&#45;&gt;forward -->
<g id="edge11" class="edge">
<title>x&#45;pos&#45;&gt;forward</title>
<path fill="none" stroke="#ff0000" stroke-width=".2367" stroke-dasharray="1,5" d="M281.6668,-294.5744C279.7785,-275.0316 277.3419,-228.603 291.7487,-193.6224 292.9311,-190.7514 361.3713,-110.1219 363.7487,-108.1249 389.9829,-86.088 423.8402,-66.9212 449.5463,-53.906"/>
<polygon fill="#ff0000" stroke="#ff0000" stroke-width=".2367" points="451.2227,-56.9812 458.6189,-49.3953 448.1064,-50.7132 451.2227,-56.9812"/>
</g>
<!-- x&#45;pos&#45;&gt;backward -->
<g id="edge9" class="edge">
<title>x&#45;pos&#45;&gt;backward</title>
<path fill="none" stroke="#00ff00" stroke-width=".2961" d="M286.888,-294.7756C303.1433,-259.471 363.4894,-132.2472 399.7487,-108.1249 437.6099,-82.9369 740.2837,-51.6778 857.558,-40.3847"/>
<polygon fill="#00ff00" stroke="#00ff00" stroke-width=".2961" points="858.0366,-43.855 867.6573,-39.4175 857.3692,-36.8869 858.0366,-43.855"/>
</g>
<!-- 2057 -->
<g id="node18" class="node">
<title>2057</title>
<ellipse fill="#ffffff" stroke="#000000" cx="646.7487" cy="-132.8736" rx="25" ry="25"/>
<text text-anchor="middle" x="646.7487" y="-130.6736" font-family="Times,serif" font-size="9.00" fill="#000000">2057</text>
</g>
<!-- x&#45;pos&#45;&gt;2057 -->
<g id="edge34" class="edge">
<title>x&#45;pos&#45;&gt;2057</title>
<path fill="none" stroke="#00ff00" stroke-width=".119" stroke-dasharray="1,5" d="M301.0103,-297.6294C329.454,-287.6354 385.7445,-266.7436 430.7487,-243.1198 466.4402,-224.3846 471.2455,-212.7119 506.7487,-193.6224 542.2355,-174.5417 584.9634,-156.6937 613.8075,-145.3468"/>
<polygon fill="#00ff00" stroke="#00ff00" stroke-width=".119" points="615.3479,-148.503 623.3964,-141.613 612.8079,-141.9801 615.3479,-148.503"/>
</g>
<!-- 4677 -->
<g id="node24" class="node">
<title>4677</title>
<ellipse fill="#ffffff" stroke="#000000" cx="62.7487" cy="-218.3711" rx="25" ry="25"/>
<text text-anchor="middle" x="62.7487" y="-216.1711" font-family="Times,serif" font-size="9.00" fill="#000000">4677</text>
</g>
<!-- x&#45;pos&#45;&gt;4677 -->
<g id="edge42" class="edge">
<title>x&#45;pos&#45;&gt;4677</title>
<path fill="none" stroke="#ff0000" stroke-width=".31" d="M264.7452,-296.872C227.6678,-282.4628 142.332,-249.2991 95.3095,-231.025"/>
<polygon fill="#ff0000" stroke="#ff0000" stroke-width=".31" points="96.4768,-227.7237 85.8881,-227.3636 93.9412,-234.2483 96.4768,-227.7237"/>
</g>
<!-- y&#45;pos -->
<g id="node4" class="node">
<title>y&#45;pos</title>
<polygon fill="#d3d3d3" stroke="#000000" points="1118.7487,-141.8736 1082.7487,-141.8736 1082.7487,-123.8736 1118.7487,-123.8736 1118.7487,-141.8736"/>
<text text-anchor="middle" x="1100.7487" y="-130.6736" font-family="Times,serif" font-size="9.00" fill="#000000">y&#45;pos</text>
</g>
<!-- y&#45;pos&#45;&gt;backward -->
<g id="edge8" class="edge">
<title>y&#45;pos&#45;&gt;backward</title>
<path fill="none" stroke="#00ff00" stroke-width=".1675" d="M1090.263,-123.6999C1084.2322,-118.7028 1076.3613,-112.6369 1068.7487,-108.1249 1029.5899,-84.9151 981.5899,-64.7924 947.4786,-51.7551"/>
<polygon fill="#00ff00" stroke="#00ff00" stroke-width=".1675" points="948.3966,-48.3607 937.8049,-48.1053 945.9256,-54.9101 948.3966,-48.3607"/>
</g>
<!-- x&#45;lm1&#45;vec -->
<g id="node5" class="node">
<title>x&#45;lm1&#45;vec</title>
<polygon fill="#d3d3d3" stroke="#000000" points="950.2487,-227.3711 897.2487,-227.3711 897.2487,-209.3711 950.2487,-209.3711 950.2487,-227.3711"/>
<text text-anchor="middle" x="923.7487" y="-216.1711" font-family="Times,serif" font-size="9.00" fill="#000000">x&#45;lm1&#45;vec</text>
</g>
<!-- none -->
<g id="node13" class="node">
<title>none</title>
<ellipse fill="#add8e6" stroke="#000000" cx="432.7487" cy="-132.8736" rx="24.0833" ry="24.0833"/>
<text text-anchor="middle" x="432.7487" y="-130.6736" font-family="Times,serif" font-size="9.00" fill="#000000">none</text>
</g>
<!-- x&#45;lm1&#45;vec&#45;&gt;none -->
<g id="edge4" class="edge">
<title>x&#45;lm1&#45;vec&#45;&gt;none</title>
<path fill="none" stroke="#00ff00" stroke-width=".4877" stroke-dasharray="1,5" d="M913.8498,-209.2261C907.2514,-203.7045 898.1002,-197.086 888.7487,-193.6224 728.8353,-134.3923 673.5906,-192.8968 506.7487,-157.6224 492.8396,-154.6816 477.8985,-149.9929 465.1089,-145.4835"/>
<polygon fill="#00ff00" stroke="#00ff00" stroke-width=".4877" points="465.968,-142.0717 455.374,-141.9423 463.5751,-148.65 465.968,-142.0717"/>
</g>
<!-- x&#45;lm1&#45;vec&#45;&gt;left -->
<g id="edge23" class="edge">
<title>x&#45;lm1&#45;vec&#45;&gt;left</title>
<path fill="none" stroke="#00ff00" stroke-width=".4003" stroke-dasharray="1,5" d="M913.4123,-209.3275C906.785,-203.9885 897.7613,-197.5307 888.7487,-193.6224 815.8976,-162.0298 779.6056,-201.9874 713.7487,-157.6224 691.8205,-142.8503 703.1241,-122.2106 680.7487,-108.1249 670.4885,-101.6658 310.0773,-54.0488 202.6642,-39.9714"/>
<polygon fill="#00ff00" stroke="#00ff00" stroke-width=".4003" points="202.8869,-36.4707 192.5171,-38.6427 201.978,-43.4115 202.8869,-36.4707"/>
</g>
<!-- x&#45;lm1&#45;vec&#45;&gt;forward -->
<g id="edge3" class="edge">
<title>x&#45;lm1&#45;vec&#45;&gt;forward</title>
<path fill="none" stroke="#ff0000" stroke-width=".1841" stroke-dasharray="1,5" d="M913.0176,-209.287C906.3872,-204.0683 897.4983,-197.7508 888.7487,-193.6224 833.7538,-167.6736 808.241,-189.9693 756.7487,-157.6224 732.0728,-142.1212 738.0903,-124.1459 713.7487,-108.1249 656.0613,-70.1567 576.974,-51.0091 529.277,-42.3172"/>
<polygon fill="#ff0000" stroke="#ff0000" stroke-width=".1841" points="529.7597,-38.8485 519.3055,-40.5695 528.5511,-45.7434 529.7597,-38.8485"/>
</g>
<!-- x&#45;lm1&#45;vec&#45;&gt;backward -->
<g id="edge1" class="edge">
<title>x&#45;lm1&#45;vec&#45;&gt;backward</title>
<path fill="none" stroke="#ff0000" stroke-width=".5948" stroke-dasharray="1,5" d="M909.4201,-209.2434C894.542,-198.8234 872.1523,-180.2584 862.7487,-157.6224 851.384,-130.2653 862.8963,-98.5211 876.5815,-74.3336"/>
<polygon fill="#ff0000" stroke="#ff0000" stroke-width=".5948" points="879.7605,-75.837 881.8897,-65.4583 873.753,-72.244 879.7605,-75.837"/>
</g>
<!-- x&#45;lm1&#45;vec&#45;&gt;2057 -->
<g id="edge44" class="edge">
<title>x&#45;lm1&#45;vec&#45;&gt;2057</title>
<path fill="none" stroke="#ff0000" stroke-width=".2516" d="M913.4494,-209.2405C906.836,-203.8687 897.8139,-197.407 888.7487,-193.6224 804.1921,-158.3203 771.1617,-190.7989 685.7487,-157.6224 682.4341,-156.3349 679.0975,-154.7508 675.8462,-153.0116"/>
<polygon fill="#ff0000" stroke="#ff0000" stroke-width=".2516" points="677.3931,-149.8612 666.9975,-147.8166 673.8491,-155.8978 677.3931,-149.8612"/>
</g>
<!-- 4629 -->
<g id="node19" class="node">
<title>4629</title>
<ellipse fill="#ffffff" stroke="#000000" cx="963.7487" cy="-132.8736" rx="25" ry="25"/>
<text text-anchor="middle" x="963.7487" y="-130.6736" font-family="Times,serif" font-size="9.00" fill="#000000">4629</text>
</g>
<!-- x&#45;lm1&#45;vec&#45;&gt;4629 -->
<g id="edge40" class="edge">
<title>x&#45;lm1&#45;vec&#45;&gt;4629</title>
<path fill="none" stroke="#ff0000" stroke-width=".3823" d="M928.0294,-209.2214C933.0163,-198.5622 941.5256,-180.3742 948.9879,-164.4239"/>
<polygon fill="#ff0000" stroke="#ff0000" stroke-width=".3823" points="952.1586,-165.906 953.2261,-155.365 945.8182,-162.9396 952.1586,-165.906"/>
</g>
<!-- 3907 -->
<g id="node22" class="node">
<title>3907</title>
<ellipse fill="#ffffff" stroke="#000000" cx="896.7487" cy="-132.8736" rx="25" ry="25"/>
<text text-anchor="middle" x="896.7487" y="-130.6736" font-family="Times,serif" font-size="9.00" fill="#000000">3907</text>
</g>
<!-- x&#45;lm1&#45;vec&#45;&gt;3907 -->
<g id="edge35" class="edge">
<title>x&#45;lm1&#45;vec&#45;&gt;3907</title>
<path fill="none" stroke="#ff0000" stroke-width=".2934" d="M920.8593,-209.2214C917.6453,-199.0442 912.2639,-182.0035 907.3996,-166.6002"/>
<polygon fill="#ff0000" stroke="#ff0000" stroke-width=".2934" points="910.6546,-165.2849 904.3056,-156.8031 903.9796,-167.3929 910.6546,-165.2849"/>
</g>
<!-- 5069 -->
<g id="node26" class="node">
<title>5069</title>
<ellipse fill="#ffffff" stroke="#000000" cx="790.7487" cy="-132.8736" rx="25" ry="25"/>
<text text-anchor="middle" x="790.7487" y="-130.6736" font-family="Times,serif" font-size="9.00" fill="#000000">5069</text>
</g>
<!-- x&#45;lm1&#45;vec&#45;&gt;5069 -->
<g id="edge47" class="edge">
<title>x&#45;lm1&#45;vec&#45;&gt;5069</title>
<path fill="none" stroke="#00ff00" stroke-width=".3177" d="M911.2547,-209.2275C904.6394,-204.4653 896.3349,-198.6107 888.7487,-193.6224 863.0823,-176.7452 855.8292,-173.8525 829.7487,-157.6224 826.7296,-155.7436 823.5863,-153.7731 820.4523,-151.799"/>
<polygon fill="#00ff00" stroke="#00ff00" stroke-width=".3177" points="822.0784,-148.6862 811.7559,-146.2995 818.337,-154.6025 822.0784,-148.6862"/>
</g>
<!-- y&#45;lm1&#45;vec -->
<g id="node6" class="node">
<title>y&#45;lm1&#45;vec</title>
<polygon fill="#d3d3d3" stroke="#000000" points="933.2487,-312.8686 880.2487,-312.8686 880.2487,-294.8686 933.2487,-294.8686 933.2487,-312.8686"/>
<text text-anchor="middle" x="906.7487" y="-301.6686" font-family="Times,serif" font-size="9.00" fill="#000000">y&#45;lm1&#45;vec</text>
</g>
<!-- y&#45;lm1&#45;vec&#45;&gt;2057 -->
<g id="edge29" class="edge">
<title>y&#45;lm1&#45;vec&#45;&gt;2057</title>
<path fill="none" stroke="#ff0000" stroke-width=".519" stroke-dasharray="1,5" d="M892.1105,-294.7905C874.4641,-283.568 844.2518,-263.4498 820.7487,-243.1198 797.8049,-223.2735 798.7899,-210.7465 773.7487,-193.6224 738.8674,-169.7692 723.2913,-177.0192 685.7487,-157.6224 682.5895,-155.9901 679.3546,-154.1808 676.165,-152.3046"/>
<polygon fill="#ff0000" stroke="#ff0000" stroke-width=".519" points="677.7517,-149.1721 667.3964,-146.9321 674.0946,-155.1409 677.7517,-149.1721"/>
</g>
<!-- y&#45;lm1&#45;vec&#45;&gt;4629 -->
<g id="edge46" class="edge">
<title>y&#45;lm1&#45;vec&#45;&gt;4629</title>
<path fill="none" stroke="#00ff00" stroke-width=".5146" d="M918.6246,-294.6334C931.4525,-283.8531 951.1994,-264.7236 959.7487,-243.1198 969.2398,-219.1364 969.8521,-189.8769 968.3005,-167.5295"/>
<polygon fill="#00ff00" stroke="#00ff00" stroke-width=".5146" points="971.78,-167.1399 967.4273,-157.4805 964.8063,-167.746 971.78,-167.1399"/>
</g>
<!-- 5099 -->
<g id="node30" class="node">
<title>5099</title>
<ellipse fill="#ffffff" stroke="#000000" cx="854.7487" cy="-218.3711" rx="25" ry="25"/>
<text text-anchor="middle" x="854.7487" y="-216.1711" font-family="Times,serif" font-size="9.00" fill="#000000">5099</text>
</g>
<!-- y&#45;lm1&#45;vec&#45;&gt;5099 -->
<g id="edge50" class="edge">
<title>y&#45;lm1&#45;vec&#45;&gt;5099</title>
<path fill="none" stroke="#ff0000" stroke-width=".1015" d="M901.1838,-294.7189C894.5076,-283.742 882.9754,-264.7808 873.0741,-248.5014"/>
<polygon fill="#ff0000" stroke="#ff0000" stroke-width=".1015" points="875.9693,-246.526 867.7825,-239.8009 869.9886,-250.1635 875.9693,-246.526"/>
</g>
<!-- x&#45;lm2&#45;vec -->
<g id="node7" class="node">
<title>x&#45;lm2&#45;vec</title>
<polygon fill="#d3d3d3" stroke="#000000" points="446.2487,-312.8686 393.2487,-312.8686 393.2487,-294.8686 446.2487,-294.8686 446.2487,-312.8686"/>
<text text-anchor="middle" x="419.7487" y="-301.6686" font-family="Times,serif" font-size="9.00" fill="#000000">x&#45;lm2&#45;vec</text>
</g>
<!-- x&#45;lm2&#45;vec&#45;&gt;none -->
<g id="edge33" class="edge">
<title>x&#45;lm2&#45;vec&#45;&gt;none</title>
<path fill="none" stroke="#00ff00" stroke-width=".3003" stroke-dasharray="1,5" d="M421.9381,-294.4647C424.5918,-282.5821 428.9333,-261.4655 430.7487,-243.1198 433.2598,-217.7446 433.6992,-188.9282 433.543,-167.1218"/>
<polygon fill="#00ff00" stroke="#00ff00" stroke-width=".3003" points="437.0417,-166.9841 433.4249,-157.0258 430.0422,-167.066 437.0417,-166.9841"/>
</g>
<!-- x&#45;lm2&#45;vec&#45;&gt;right -->
<g id="edge16" class="edge">
<title>x&#45;lm2&#45;vec&#45;&gt;right</title>
<path fill="none" stroke="#00ff00" stroke-width="5.6161" d="M444.1693,-294.7931C458.4761,-289.7055 476.9761,-283.5183 493.7487,-279.1198 575.6176,-257.6503 603.6147,-277.9595 680.7487,-243.1198 682.8289,-242.1803 684.8967,-241.0804 686.9217,-239.876"/>
<polygon fill="#00ff00" stroke="#00ff00" stroke-width="5.6161" points="689.9169,-243.7823 695.4313,-234.1003 684.3974,-235.6502 689.9169,-243.7823"/>
</g>
<!-- y&#45;lm2&#45;vec -->
<g id="node8" class="node">
<title>y&#45;lm2&#45;vec</title>
<polygon fill="#d3d3d3" stroke="#000000" points="311.2487,-141.8736 258.2487,-141.8736 258.2487,-123.8736 311.2487,-123.8736 311.2487,-141.8736"/>
<text text-anchor="middle" x="284.7487" y="-130.6736" font-family="Times,serif" font-size="9.00" fill="#000000">y&#45;lm2&#45;vec</text>
</g>
<!-- y&#45;lm2&#45;vec&#45;&gt;left -->
<g id="edge13" class="edge">
<title>y&#45;lm2&#45;vec&#45;&gt;left</title>
<path fill="none" stroke="#ff0000" stroke-width=".6758" d="M274.0097,-123.591C256.0059,-108.0288 219.3601,-76.3526 195.4437,-55.6797"/>
<polygon fill="#ff0000" stroke="#ff0000" stroke-width=".6758" points="197.7206,-53.0214 187.8663,-49.1298 193.1429,-58.3172 197.7206,-53.0214"/>
</g>
<!-- y&#45;lm2&#45;vec&#45;&gt;backward -->
<g id="edge5" class="edge">
<title>y&#45;lm2&#45;vec&#45;&gt;backward</title>
<path fill="none" stroke="#ff0000" stroke-width="3.7503" d="M309.7126,-123.8485C325.111,-118.5844 345.3668,-112.1993 363.7487,-108.1249 544.2032,-68.1263 763.8293,-47.2018 857.6633,-39.5388"/>
<polygon fill="#ff0000" stroke="#ff0000" stroke-width="3.7503" points="857.9902,-43.0239 867.6771,-38.7326 857.4284,-36.0465 857.9902,-43.0239"/>
</g>
<!-- x&#45;other&#45;vec -->
<g id="node9" class="node">
<title>x&#45;other&#45;vec</title>
<polygon fill="#d3d3d3" stroke="#000000" points="880.7487,-382.6173 822.7487,-382.6173 822.7487,-364.6173 880.7487,-364.6173 880.7487,-382.6173"/>
<text text-anchor="middle" x="851.7487" y="-371.4173" font-family="Times,serif" font-size="9.00" fill="#000000">x&#45;other&#45;vec</text>
</g>
<!-- x&#45;other&#45;vec&#45;&gt;right -->
<g id="edge27" class="edge">
<title>x&#45;other&#45;vec&#45;&gt;right</title>
<path fill="none" stroke="#00ff00" stroke-width=".2664" d="M852.3916,-364.502C853.1877,-346.3259 852.5046,-305.0915 832.7487,-279.1198 811.2185,-250.8154 772.8352,-234.6881 745.2709,-226.2668"/>
<polygon fill="#00ff00" stroke="#00ff00" stroke-width=".2664" points="746.2341,-222.902 735.6564,-223.5045 744.3012,-229.6298 746.2341,-222.902"/>
</g>
<!-- x&#45;other&#45;vec&#45;&gt;backward -->
<g id="edge6" class="edge">
<title>x&#45;other&#45;vec&#45;&gt;backward</title>
<path fill="none" stroke="#00ff00" stroke-width=".1908" stroke-dasharray="1,5" d="M880.8399,-370.5912C926.6978,-365.154 1012.4739,-352.055 1030.7487,-328.6173 1091.0063,-251.3362 1080.0641,-192.8086 1030.7487,-108.1249 1013.0977,-77.8147 977.429,-59.218 948.3745,-48.5271"/>
<polygon fill="#00ff00" stroke="#00ff00" stroke-width=".1908" points="949.4053,-45.18 938.8104,-45.1991 947.1047,-51.7912 949.4053,-45.18"/>
</g>
<!-- 2665 -->
<g id="node29" class="node">
<title>2665</title>
<ellipse fill="#ffffff" stroke="#000000" cx="527.7487" cy="-303.8686" rx="25" ry="25"/>
<text text-anchor="middle" x="527.7487" y="-301.6686" font-family="Times,serif" font-size="9.00" fill="#000000">2665</text>
</g>
<!-- x&#45;other&#45;vec&#45;&gt;2665 -->
<g id="edge25" class="edge">
<title>x&#45;other&#45;vec&#45;&gt;2665</title>
<path fill="none" stroke="#00ff00" stroke-width=".2871" d="M822.4709,-370.8434C758.6021,-364.5076 608.7243,-348.0135 561.7487,-328.6173 559.6104,-327.7344 557.4804,-326.6908 555.3896,-325.54"/>
<polygon fill="#00ff00" stroke="#00ff00" stroke-width=".2871" points="556.8933,-322.3502 546.5687,-319.9725 553.1571,-328.2698 556.8933,-322.3502"/>
</g>
<!-- y&#45;other&#45;vec -->
<g id="node10" class="node">
<title>y&#45;other&#45;vec</title>
<polygon fill="#d3d3d3" stroke="#000000" points="1194.7487,-141.8736 1136.7487,-141.8736 1136.7487,-123.8736 1194.7487,-123.8736 1194.7487,-141.8736"/>
<text text-anchor="middle" x="1165.7487" y="-130.6736" font-family="Times,serif" font-size="9.00" fill="#000000">y&#45;other&#45;vec</text>
</g>
<!-- y&#45;other&#45;vec&#45;&gt;backward -->
<g id="edge22" class="edge">
<title>y&#45;other&#45;vec&#45;&gt;backward</title>
<path fill="none" stroke="#ff0000" stroke-width="3.1251" d="M1153.5732,-123.7477C1146.348,-118.6433 1136.848,-112.4561 1127.7487,-108.1249 1068.2979,-79.8263 994.9172,-58.5965 948.7117,-46.7516"/>
<polygon fill="#ff0000" stroke="#ff0000" stroke-width="3.1251" points="949.5486,-43.3532 938.9959,-44.2968 947.8338,-50.1399 949.5486,-43.3532"/>
</g>
<!-- x&#45;other&#45;vel -->
<g id="node11" class="node">
<title>x&#45;other&#45;vel</title>
<polygon fill="#d3d3d3" stroke="#000000" points="679.7487,-312.8686 623.7487,-312.8686 623.7487,-294.8686 679.7487,-294.8686 679.7487,-312.8686"/>
<text text-anchor="middle" x="651.7487" y="-301.6686" font-family="Times,serif" font-size="9.00" fill="#000000">x&#45;other&#45;vel</text>
</g>
<!-- x&#45;other&#45;vel&#45;&gt;right -->
<g id="edge21" class="edge">
<title>x&#45;other&#45;vel&#45;&gt;right</title>
<path fill="none" stroke="#ff0000" stroke-width=".3252" stroke-dasharray="1,5" d="M658.2768,-294.7189C666.5474,-283.1268 681.171,-262.6303 693.1852,-245.7914"/>
<polygon fill="#ff0000" stroke="#ff0000" stroke-width=".3252" points="696.2236,-247.5589 699.1825,-237.3856 690.5253,-243.4933 696.2236,-247.5589"/>
</g>
<!-- 3150 -->
<g id="node27" class="node">
<title>3150</title>
<ellipse fill="#ffffff" stroke="#000000" cx="646.7487" cy="-218.3711" rx="25" ry="25"/>
<text text-anchor="middle" x="646.7487" y="-216.1711" font-family="Times,serif" font-size="9.00" fill="#000000">3150</text>
</g>
<!-- x&#45;other&#45;vel&#45;&gt;3150 -->
<g id="edge32" class="edge">
<title>x&#45;other&#45;vel&#45;&gt;3150</title>
<path fill="none" stroke="#00ff00" stroke-width=".2957" d="M651.2136,-294.7189C650.6364,-284.8486 649.6817,-268.5226 648.8029,-253.4956"/>
<polygon fill="#00ff00" stroke="#00ff00" stroke-width=".2957" points="652.2901,-253.1737 648.2122,-243.3951 645.302,-253.5824 652.2901,-253.1737"/>
</g>
<!-- y&#45;other&#45;vel -->
<g id="node12" class="node">
<title>y&#45;other&#45;vel</title>
<polygon fill="#d3d3d3" stroke="#000000" points="466.7487,-382.6173 410.7487,-382.6173 410.7487,-364.6173 466.7487,-364.6173 466.7487,-382.6173"/>
<text text-anchor="middle" x="438.7487" y="-371.4173" font-family="Times,serif" font-size="9.00" fill="#000000">y&#45;other&#45;vel</text>
</g>
<!-- y&#45;other&#45;vel&#45;&gt;none -->
<g id="edge7" class="edge">
<title>y&#45;other&#45;vel&#45;&gt;none</title>
<path fill="none" stroke="#ff0000" stroke-width=".1965" stroke-dasharray="1,5" d="M423.1801,-364.498C410.9429,-356.5369 394.4031,-343.8817 384.7487,-328.6173 363.7754,-295.4565 367.6766,-282.0459 362.7487,-243.1198 359.9858,-221.2952 353.6177,-213.6367 362.7487,-193.6224 371.0676,-175.3882 387.8621,-160.5168 402.9155,-150.0523"/>
<polygon fill="#ff0000" stroke="#ff0000" stroke-width=".1965" points="405.0672,-152.8264 411.5003,-144.4082 401.2216,-146.9773 405.0672,-152.8264"/>
</g>
<!-- y&#45;other&#45;vel&#45;&gt;right -->
<g id="edge15" class="edge">
<title>y&#45;other&#45;vel&#45;&gt;right</title>
<path fill="none" stroke="#00ff00" stroke-width=".1545" stroke-dasharray="1,5" d="M467.036,-372.3775C525.6252,-369.2171 657.4018,-358.8479 688.7487,-328.6173 709.1053,-308.9858 714.1345,-276.4327 714.6499,-251.7766"/>
<polygon fill="#00ff00" stroke="#00ff00" stroke-width=".1545" points="718.1499,-251.7455 714.626,-241.7539 711.1499,-251.7623 718.1499,-251.7455"/>
</g>
<!-- y&#45;other&#45;vel&#45;&gt;forward -->
<g id="edge14" class="edge">
<title>y&#45;other&#45;vel&#45;&gt;forward</title>
<path fill="none" stroke="#ff0000" stroke-width=".5502" stroke-dasharray="1,5" d="M410.3269,-370.7759C345.8027,-364.0396 192.6713,-346.3329 177.7487,-328.6173 114.6153,-253.6673 116.8023,-184.8639 177.7487,-108.1249 210.7742,-66.5418 368.9631,-46.7778 445.7481,-39.5101"/>
<polygon fill="#ff0000" stroke="#ff0000" stroke-width=".5502" points="446.3831,-42.9666 456.021,-38.5665 445.7428,-35.9959 446.3831,-42.9666"/>
</g>
<!-- y&#45;other&#45;vel&#45;&gt;2665 -->
<g id="edge45" class="edge">
<title>y&#45;other&#45;vel&#45;&gt;2665</title>
<path fill="none" stroke="#ff0000" stroke-width=".8364" d="M450.3839,-364.4989C462.8224,-354.7509 483.0009,-338.9371 499.6315,-325.9039"/>
<polygon fill="#ff0000" stroke="#ff0000" stroke-width=".8364" points="502.233,-328.3119 507.9449,-319.3887 497.9151,-322.8023 502.233,-328.3119"/>
</g>
<!-- 2057&#45;&gt;forward -->
<g id="edge36" class="edge">
<title>2057&#45;&gt;forward</title>
<path fill="none" stroke="#ff0000" stroke-width=".1811" stroke-dasharray="1,5" d="M625.3053,-119.8172C599.3056,-103.9867 555.0905,-77.0652 523.8153,-58.0225"/>
<polygon fill="#ff0000" stroke="#ff0000" stroke-width=".1811" points="525.3233,-54.843 514.9618,-52.6318 521.6829,-60.8219 525.3233,-54.843"/>
</g>
<!-- 2057&#45;&gt;backward -->
<g id="edge24" class="edge">
<title>2057&#45;&gt;backward</title>
<path fill="none" stroke="#00ff00" stroke-width=".1862" stroke-dasharray="1,5" d="M670.009,-124.1115C713.0203,-107.9093 805.5902,-73.0385 860.4491,-52.3733"/>
<polygon fill="#00ff00" stroke="#00ff00" stroke-width=".1862" points="861.7795,-55.6123 869.9038,-48.8117 859.3119,-49.0616 861.7795,-55.6123"/>
</g>
<!-- 4629&#45;&gt;backward -->
<g id="edge41" class="edge">
<title>4629&#45;&gt;backward</title>
<path fill="none" stroke="#ff0000" stroke-width=".4617" stroke-dasharray="1,5" d="M950.4328,-111.3881C943.932,-100.8989 935.8986,-87.9368 928.3391,-75.7395"/>
<polygon fill="#ff0000" stroke="#ff0000" stroke-width=".4617" points="931.1901,-73.6956 922.9471,-67.0394 925.2401,-77.3831 931.1901,-73.6956"/>
</g>
<!-- 5279 -->
<g id="node20" class="node">
<title>5279</title>
<ellipse fill="#ffffff" stroke="#000000" cx="24.7487" cy="-132.8736" rx="25" ry="25"/>
<text text-anchor="middle" x="24.7487" y="-130.6736" font-family="Times,serif" font-size="9.00" fill="#000000">5279</text>
</g>
<!-- 5279&#45;&gt;left -->
<g id="edge53" class="edge">
<title>5279&#45;&gt;left</title>
<path fill="none" stroke="#00ff00" stroke-width=".5057" stroke-dasharray="1,5" d="M45.6396,-119.2083C72.386,-101.7127 118.6965,-71.4196 147.4221,-52.6294"/>
<polygon fill="#00ff00" stroke="#00ff00" stroke-width=".5057" points="149.6309,-55.3668 156.0836,-46.9636 145.799,-49.5088 149.6309,-55.3668"/>
</g>
<!-- 4038 -->
<g id="node25" class="node">
<title>4038</title>
<ellipse fill="#ffffff" stroke="#000000" cx="24.7487" cy="-36.0624" rx="25" ry="25"/>
<text text-anchor="middle" x="24.7487" y="-33.8624" font-family="Times,serif" font-size="9.00" fill="#000000">4038</text>
</g>
<!-- 5279&#45;&gt;4038 -->
<g id="edge54" class="edge">
<title>5279&#45;&gt;4038</title>
<path fill="none" stroke="#00ff00" stroke-width=".3244" d="M24.7487,-107.9423C24.7487,-96.7629 24.7487,-83.3792 24.7487,-71.2076"/>
<polygon fill="#00ff00" stroke="#00ff00" stroke-width=".3244" points="28.2488,-70.9092 24.7487,-60.9092 21.2488,-70.9093 28.2488,-70.9092"/>
</g>
<!-- 2852 -->
<g id="node21" class="node">
<title>2852</title>
<ellipse fill="#ffffff" stroke="#000000" cx="396.7487" cy="-218.3711" rx="25" ry="25"/>
<text text-anchor="middle" x="396.7487" y="-216.1711" font-family="Times,serif" font-size="9.00" fill="#000000">2852</text>
</g>
<!-- 2852&#45;&gt;none -->
<g id="edge28" class="edge">
<title>2852&#45;&gt;none</title>
<path fill="none" stroke="#00ff00" stroke-width=".623" d="M406.3961,-195.4593C410.3735,-186.0133 415.05,-174.907 419.3507,-164.6929"/>
<polygon fill="#00ff00" stroke="#00ff00" stroke-width=".623" points="422.669,-165.8314 423.324,-155.2568 416.2175,-163.1149 422.669,-165.8314"/>
</g>
<!-- 5571&#45;&gt;2057 -->
<g id="edge60" class="edge">
<title>5571&#45;&gt;2057</title>
<path fill="none" stroke="#ff0000" stroke-width=".21" d="M791.5091,-280.0665C783.264,-256.0476 767.8655,-218.9802 744.7487,-193.6224 724.054,-170.9214 711.8292,-173.8525 685.7487,-157.6224 682.7296,-155.7436 679.5863,-153.7731 676.4523,-151.799"/>
<polygon fill="#ff0000" stroke="#ff0000" stroke-width=".21" points="678.0784,-148.6862 667.7559,-146.2995 674.337,-154.6025 678.0784,-148.6862"/>
</g>
<!-- 5571&#45;&gt;4316 -->
<g id="edge58" class="edge">
<title>5571&#45;&gt;4316</title>
<path fill="none" stroke="#ff0000" stroke-width=".2867" d="M774.9274,-296.218C739.5083,-284.8132 670.8869,-262.6047 612.7487,-243.1198 600.1181,-238.8867 586.2736,-234.151 574.1285,-229.9644"/>
<polygon fill="#ff0000" stroke="#ff0000" stroke-width=".2867" points="574.9849,-226.5574 564.3902,-226.5999 572.6991,-233.1736 574.9849,-226.5574"/>
</g>
<!-- 4677&#45;&gt;left -->
<g id="edge43" class="edge">
<title>4677&#45;&gt;left</title>
<path fill="none" stroke="#00ff00" stroke-width=".2034" stroke-dasharray="1,5" d="M68.1511,-193.7847C74.006,-170.4906 84.8446,-135.1478 101.7487,-108.1249 114.4802,-87.7724 133.8573,-68.6097 149.1537,-55.1684"/>
<polygon fill="#00ff00" stroke="#00ff00" stroke-width=".2034" points="151.8386,-57.4778 157.1639,-48.3185 147.2891,-52.1578 151.8386,-57.4778"/>
</g>
<!-- 4677&#45;&gt;5279 -->
<g id="edge52" class="edge">
<title>4677&#45;&gt;5279</title>
<path fill="none" stroke="#ff0000" stroke-width=".1682" d="M52.5654,-195.4593C48.4004,-186.0883 43.5091,-175.0831 38.9992,-164.9363"/>
<polygon fill="#ff0000" stroke="#ff0000" stroke-width=".1682" points="42.0883,-163.2687 34.8284,-155.5522 35.6916,-166.1118 42.0883,-163.2687"/>
</g>
<!-- 5069&#45;&gt;backward -->
<g id="edge48" class="edge">
<title>5069&#45;&gt;backward</title>
<path fill="none" stroke="#ff0000" stroke-width=".5714" d="M809.6624,-116.6696C825.6764,-102.9499 849.063,-82.9137 868.5132,-66.25"/>
<polygon fill="#ff0000" stroke="#ff0000" stroke-width=".5714" points="870.9819,-68.7439 876.2988,-59.5798 866.4275,-63.428 870.9819,-68.7439"/>
</g>
<!-- 3150&#45;&gt;2057 -->
<g id="edge31" class="edge">
<title>3150&#45;&gt;2057</title>
<path fill="none" stroke="#ff0000" stroke-width=".1654" stroke-dasharray="1,5" d="M646.7487,-193.1815C646.7487,-185.2672 646.7487,-176.3812 646.7487,-167.9126"/>
<polygon fill="#ff0000" stroke="#ff0000" stroke-width=".1654" points="650.2488,-167.8832 646.7487,-157.8832 643.2488,-167.8833 650.2488,-167.8832"/>
</g>
<!-- 4316&#45;&gt;forward -->
<g id="edge39" class="edge">
<title>4316&#45;&gt;forward</title>
<path fill="none" stroke="#00ff00" stroke-width=".316" stroke-dasharray="1,5" d="M526.8555,-197.8717C519.7726,-186.4831 511.6426,-171.7876 506.7487,-157.6224 497.9081,-132.0334 493.1642,-101.9858 490.6274,-78.1667"/>
<polygon fill="#00ff00" stroke="#00ff00" stroke-width=".316" points="494.0936,-77.6495 489.64,-68.0362 487.1266,-78.3286 494.0936,-77.6495"/>
</g>
<!-- 4316&#45;&gt;2057 -->
<g id="edge38" class="edge">
<title>4316&#45;&gt;2057</title>
<path fill="none" stroke="#ff0000" stroke-width=".2788" stroke-dasharray="1,5" d="M560.1908,-202.6895C576.8511,-189.2516 601.0271,-169.7518 619.5968,-154.7738"/>
<polygon fill="#ff0000" stroke="#ff0000" stroke-width=".2788" points="621.8437,-157.4582 627.43,-148.4558 617.4489,-152.0097 621.8437,-157.4582"/>
</g>
<!-- 5500 -->
<g id="node31" class="node">
<title>5500</title>
<ellipse fill="#ffffff" stroke="#000000" cx="540.7487" cy="-132.8736" rx="25" ry="25"/>
<text text-anchor="middle" x="540.7487" y="-130.6736" font-family="Times,serif" font-size="9.00" fill="#000000">5500</text>
</g>
<!-- 4316&#45;&gt;5500 -->
<g id="edge55" class="edge">
<title>4316&#45;&gt;5500</title>
<path fill="none" stroke="#00ff00" stroke-width=".2253" d="M540.7487,-193.1815C540.7487,-185.2672 540.7487,-176.3812 540.7487,-167.9126"/>
<polygon fill="#00ff00" stroke="#00ff00" stroke-width=".2253" points="544.2488,-167.8832 540.7487,-157.8832 537.2488,-167.8833 544.2488,-167.8832"/>
</g>
<!-- 2665&#45;&gt;2057 -->
<g id="edge26" class="edge">
<title>2665&#45;&gt;2057</title>
<path fill="none" stroke="#00ff00" stroke-width=".1409" stroke-dasharray="1,5" d="M543.3933,-284.4703C552.7345,-272.6882 564.6975,-257.2434 574.7487,-243.1198 593.7379,-216.4371 614.022,-185.0927 628.2049,-162.6604"/>
<polygon fill="#00ff00" stroke="#00ff00" stroke-width=".1409" points="631.3345,-164.2587 633.7004,-153.9314 625.4107,-160.5293 631.3345,-164.2587"/>
</g>
<!-- 2665&#45;&gt;3150 -->
<g id="edge30" class="edge">
<title>2665&#45;&gt;3150</title>
<path fill="none" stroke="#00ff00" stroke-width=".3911" d="M547.8636,-289.1826C552.4237,-285.8657 557.2485,-282.3658 561.7487,-279.1198 580.5397,-265.5663 601.7406,-250.414 618.2682,-238.6327"/>
<polygon fill="#00ff00" stroke="#00ff00" stroke-width=".3911" points="620.334,-241.4584 626.4476,-232.8054 616.2723,-235.7573 620.334,-241.4584"/>
</g>
<!-- 2665&#45;&gt;4316 -->
<g id="edge37" class="edge">
<title>2665&#45;&gt;4316</title>
<path fill="none" stroke="#ff0000" stroke-width=".1449" stroke-dasharray="1,5" d="M531.5089,-279.1392C532.7485,-270.9863 534.1509,-261.7632 535.4817,-253.0109"/>
<polygon fill="#ff0000" stroke="#ff0000" stroke-width=".1449" points="538.954,-253.4575 536.997,-243.0449 532.0335,-252.4051 538.954,-253.4575"/>
</g>
<!-- 5099&#45;&gt;2057 -->
<g id="edge51" class="edge">
<title>5099&#45;&gt;2057</title>
<path fill="none" stroke="#ff0000" stroke-width=".2902" d="M834.3342,-203.8267C828.5214,-200.1318 822.0519,-196.4206 815.7487,-193.6224 760.9535,-169.2963 740.5439,-181.9484 685.7487,-157.6224 682.4987,-156.1795 679.2044,-154.4939 675.9787,-152.693"/>
<polygon fill="#ff0000" stroke="#ff0000" stroke-width=".2902" points="677.5415,-149.5495 667.1632,-147.418 673.9471,-155.5562 677.5415,-149.5495"/>
</g>
<!-- 5500&#45;&gt;forward -->
<g id="edge56" class="edge">
<title>5500&#45;&gt;forward</title>
<path fill="none" stroke="#ff0000" stroke-width=".6588" d="M528.7222,-110.9057C522.6273,-99.7725 515.0589,-85.9479 508.0916,-73.2212"/>
<polygon fill="#ff0000" stroke="#ff0000" stroke-width=".6588" points="511.0263,-71.2933 503.1542,-64.2024 504.8862,-74.6547 511.0263,-71.2933"/>
</g>
</g>
</svg>
