<?xml version="1.0" encoding="utf-8" standalone="no"?>
<!DOCTYPE svg PUBLIC "-//W3C//DTD SVG 1.1//EN"
  "http://www.w3.org/Graphics/SVG/1.1/DTD/svg11.dtd">
<!-- Created with matplotlib (https://matplotlib.org/) -->
<svg height="345.6pt" version="1.1" viewBox="0 0 460.8 345.6" width="460.8pt" xmlns="http://www.w3.org/2000/svg" xmlns:xlink="http://www.w3.org/1999/xlink">
 <metadata>
  <rdf:RDF xmlns:cc="http://creativecommons.org/ns#" xmlns:dc="http://purl.org/dc/elements/1.1/" xmlns:rdf="http://www.w3.org/1999/02/22-rdf-syntax-ns#">
   <cc:Work>
    <dc:type rdf:resource="http://purl.org/dc/dcmitype/StillImage"/>
    <dc:date>2021-04-15T09:10:17.485266</dc:date>
    <dc:format>image/svg+xml</dc:format>
    <dc:creator>
     <cc:Agent>
      <dc:title>Matplotlib v3.3.4, https://matplotlib.org/</dc:title>
     </cc:Agent>
    </dc:creator>
   </cc:Work>
  </rdf:RDF>
 </metadata>
 <defs>
  <style type="text/css">*{stroke-linecap:butt;stroke-linejoin:round;}</style>
 </defs>
 <g id="figure_1">
  <g id="patch_1">
   <path d="M 0 345.6 
L 460.8 345.6 
L 460.8 0 
L 0 0 
z
" style="fill:#ffffff;"/>
  </g>
  <g id="axes_1">
   <g id="patch_2">
    <path d="M 57.6 307.584 
L 414.72 307.584 
L 414.72 41.472 
L 57.6 41.472 
z
" style="fill:#ffffff;"/>
   </g>
   <g id="matplotlib.axis_1">
    <g id="xtick_1">
     <g id="line2d_1">
      <path clip-path="url(#p1031c25bab)" d="M 73.832727 307.584 
L 73.832727 41.472 
" style="fill:none;stroke:#b0b0b0;stroke-linecap:square;stroke-width:0.8;"/>
     </g>
     <g id="line2d_2">
      <defs>
       <path d="M 0 0 
L 0 3.5 
" id="mc4c8359ab4" style="stroke:#000000;stroke-width:0.8;"/>
      </defs>
      <g>
       <use style="stroke:#000000;stroke-width:0.8;" x="73.832727" xlink:href="#mc4c8359ab4" y="307.584"/>
      </g>
     </g>
     <g id="text_1">
      <!-- 0 -->
      <g transform="translate(70.651477 322.182437)scale(0.1 -0.1)">
       <defs>
        <path d="M 31.78125 66.40625 
Q 24.171875 66.40625 20.328125 58.90625 
Q 16.5 51.421875 16.5 36.375 
Q 16.5 21.390625 20.328125 13.890625 
Q 24.171875 6.390625 31.78125 6.390625 
Q 39.453125 6.390625 43.28125 13.890625 
Q 47.125 21.390625 47.125 36.375 
Q 47.125 51.421875 43.28125 58.90625 
Q 39.453125 66.40625 31.78125 66.40625 
z
M 31.78125 74.21875 
Q 44.046875 74.21875 50.515625 64.515625 
Q 56.984375 54.828125 56.984375 36.375 
Q 56.984375 17.96875 50.515625 8.265625 
Q 44.046875 -1.421875 31.78125 -1.421875 
Q 19.53125 -1.421875 13.0625 8.265625 
Q 6.59375 17.96875 6.59375 36.375 
Q 6.59375 54.828125 13.0625 64.515625 
Q 19.53125 74.21875 31.78125 74.21875 
z
" id="DejaVuSans-48"/>
       </defs>
       <use xlink:href="#DejaVuSans-48"/>
      </g>
     </g>
    </g>
    <g id="xtick_2">
     <g id="line2d_3">
      <path clip-path="url(#p1031c25bab)" d="M 147.283982 307.584 
L 147.283982 41.472 
" style="fill:none;stroke:#b0b0b0;stroke-linecap:square;stroke-width:0.8;"/>
     </g>
     <g id="line2d_4">
      <g>
       <use style="stroke:#000000;stroke-width:0.8;" x="147.283982" xlink:href="#mc4c8359ab4" y="307.584"/>
      </g>
     </g>
     <g id="text_2">
      <!-- 200 -->
      <g transform="translate(137.740232 322.182437)scale(0.1 -0.1)">
       <defs>
        <path d="M 19.1875 8.296875 
L 53.609375 8.296875 
L 53.609375 0 
L 7.328125 0 
L 7.328125 8.296875 
Q 12.9375 14.109375 22.625 23.890625 
Q 32.328125 33.6875 34.8125 36.53125 
Q 39.546875 41.84375 41.421875 45.53125 
Q 43.3125 49.21875 43.3125 52.78125 
Q 43.3125 58.59375 39.234375 62.25 
Q 35.15625 65.921875 28.609375 65.921875 
Q 23.96875 65.921875 18.8125 64.3125 
Q 13.671875 62.703125 7.8125 59.421875 
L 7.8125 69.390625 
Q 13.765625 71.78125 18.9375 73 
Q 24.125 74.21875 28.421875 74.21875 
Q 39.75 74.21875 46.484375 68.546875 
Q 53.21875 62.890625 53.21875 53.421875 
Q 53.21875 48.921875 51.53125 44.890625 
Q 49.859375 40.875 45.40625 35.40625 
Q 44.1875 33.984375 37.640625 27.21875 
Q 31.109375 20.453125 19.1875 8.296875 
z
" id="DejaVuSans-50"/>
       </defs>
       <use xlink:href="#DejaVuSans-50"/>
       <use x="63.623047" xlink:href="#DejaVuSans-48"/>
       <use x="127.246094" xlink:href="#DejaVuSans-48"/>
      </g>
     </g>
    </g>
    <g id="xtick_3">
     <g id="line2d_5">
      <path clip-path="url(#p1031c25bab)" d="M 220.735237 307.584 
L 220.735237 41.472 
" style="fill:none;stroke:#b0b0b0;stroke-linecap:square;stroke-width:0.8;"/>
     </g>
     <g id="line2d_6">
      <g>
       <use style="stroke:#000000;stroke-width:0.8;" x="220.735237" xlink:href="#mc4c8359ab4" y="307.584"/>
      </g>
     </g>
     <g id="text_3">
      <!-- 400 -->
      <g transform="translate(211.191487 322.182437)scale(0.1 -0.1)">
       <defs>
        <path d="M 37.796875 64.3125 
L 12.890625 25.390625 
L 37.796875 25.390625 
z
M 35.203125 72.90625 
L 47.609375 72.90625 
L 47.609375 25.390625 
L 58.015625 25.390625 
L 58.015625 17.1875 
L 47.609375 17.1875 
L 47.609375 0 
L 37.796875 0 
L 37.796875 17.1875 
L 4.890625 17.1875 
L 4.890625 26.703125 
z
" id="DejaVuSans-52"/>
       </defs>
       <use xlink:href="#DejaVuSans-52"/>
       <use x="63.623047" xlink:href="#DejaVuSans-48"/>
       <use x="127.246094" xlink:href="#DejaVuSans-48"/>
      </g>
     </g>
    </g>
    <g id="xtick_4">
     <g id="line2d_7">
      <path clip-path="url(#p1031c25bab)" d="M 294.186491 307.584 
L 294.186491 41.472 
" style="fill:none;stroke:#b0b0b0;stroke-linecap:square;stroke-width:0.8;"/>
     </g>
     <g id="line2d_8">
      <g>
       <use style="stroke:#000000;stroke-width:0.8;" x="294.186491" xlink:href="#mc4c8359ab4" y="307.584"/>
      </g>
     </g>
     <g id="text_4">
      <!-- 600 -->
      <g transform="translate(284.642741 322.182437)scale(0.1 -0.1)">
       <defs>
        <path d="M 33.015625 40.375 
Q 26.375 40.375 22.484375 35.828125 
Q 18.609375 31.296875 18.609375 23.390625 
Q 18.609375 15.53125 22.484375 10.953125 
Q 26.375 6.390625 33.015625 6.390625 
Q 39.65625 6.390625 43.53125 10.953125 
Q 47.40625 15.53125 47.40625 23.390625 
Q 47.40625 31.296875 43.53125 35.828125 
Q 39.65625 40.375 33.015625 40.375 
z
M 52.59375 71.296875 
L 52.59375 62.3125 
Q 48.875 64.0625 45.09375 64.984375 
Q 41.3125 65.921875 37.59375 65.921875 
Q 27.828125 65.921875 22.671875 59.328125 
Q 17.53125 52.734375 16.796875 39.40625 
Q 19.671875 43.65625 24.015625 45.921875 
Q 28.375 48.1875 33.59375 48.1875 
Q 44.578125 48.1875 50.953125 41.515625 
Q 57.328125 34.859375 57.328125 23.390625 
Q 57.328125 12.15625 50.6875 5.359375 
Q 44.046875 -1.421875 33.015625 -1.421875 
Q 20.359375 -1.421875 13.671875 8.265625 
Q 6.984375 17.96875 6.984375 36.375 
Q 6.984375 53.65625 15.1875 63.9375 
Q 23.390625 74.21875 37.203125 74.21875 
Q 40.921875 74.21875 44.703125 73.484375 
Q 48.484375 72.75 52.59375 71.296875 
z
" id="DejaVuSans-54"/>
       </defs>
       <use xlink:href="#DejaVuSans-54"/>
       <use x="63.623047" xlink:href="#DejaVuSans-48"/>
       <use x="127.246094" xlink:href="#DejaVuSans-48"/>
      </g>
     </g>
    </g>
    <g id="xtick_5">
     <g id="line2d_9">
      <path clip-path="url(#p1031c25bab)" d="M 367.637746 307.584 
L 367.637746 41.472 
" style="fill:none;stroke:#b0b0b0;stroke-linecap:square;stroke-width:0.8;"/>
     </g>
     <g id="line2d_10">
      <g>
       <use style="stroke:#000000;stroke-width:0.8;" x="367.637746" xlink:href="#mc4c8359ab4" y="307.584"/>
      </g>
     </g>
     <g id="text_5">
      <!-- 800 -->
      <g transform="translate(358.093996 322.182437)scale(0.1 -0.1)">
       <defs>
        <path d="M 31.78125 34.625 
Q 24.75 34.625 20.71875 30.859375 
Q 16.703125 27.09375 16.703125 20.515625 
Q 16.703125 13.921875 20.71875 10.15625 
Q 24.75 6.390625 31.78125 6.390625 
Q 38.8125 6.390625 42.859375 10.171875 
Q 46.921875 13.96875 46.921875 20.515625 
Q 46.921875 27.09375 42.890625 30.859375 
Q 38.875 34.625 31.78125 34.625 
z
M 21.921875 38.8125 
Q 15.578125 40.375 12.03125 44.71875 
Q 8.5 49.078125 8.5 55.328125 
Q 8.5 64.0625 14.71875 69.140625 
Q 20.953125 74.21875 31.78125 74.21875 
Q 42.671875 74.21875 48.875 69.140625 
Q 55.078125 64.0625 55.078125 55.328125 
Q 55.078125 49.078125 51.53125 44.71875 
Q 48 40.375 41.703125 38.8125 
Q 48.828125 37.15625 52.796875 32.3125 
Q 56.78125 27.484375 56.78125 20.515625 
Q 56.78125 9.90625 50.3125 4.234375 
Q 43.84375 -1.421875 31.78125 -1.421875 
Q 19.734375 -1.421875 13.25 4.234375 
Q 6.78125 9.90625 6.78125 20.515625 
Q 6.78125 27.484375 10.78125 32.3125 
Q 14.796875 37.15625 21.921875 38.8125 
z
M 18.3125 54.390625 
Q 18.3125 48.734375 21.84375 45.5625 
Q 25.390625 42.390625 31.78125 42.390625 
Q 38.140625 42.390625 41.71875 45.5625 
Q 45.3125 48.734375 45.3125 54.390625 
Q 45.3125 60.0625 41.71875 63.234375 
Q 38.140625 66.40625 31.78125 66.40625 
Q 25.390625 66.40625 21.84375 63.234375 
Q 18.3125 60.0625 18.3125 54.390625 
z
" id="DejaVuSans-56"/>
       </defs>
       <use xlink:href="#DejaVuSans-56"/>
       <use x="63.623047" xlink:href="#DejaVuSans-48"/>
       <use x="127.246094" xlink:href="#DejaVuSans-48"/>
      </g>
     </g>
    </g>
    <g id="text_6">
     <!-- Generations -->
     <g transform="translate(205.662344 335.860562)scale(0.1 -0.1)">
      <defs>
       <path d="M 59.515625 10.40625 
L 59.515625 29.984375 
L 43.40625 29.984375 
L 43.40625 38.09375 
L 69.28125 38.09375 
L 69.28125 6.78125 
Q 63.578125 2.734375 56.6875 0.65625 
Q 49.8125 -1.421875 42 -1.421875 
Q 24.90625 -1.421875 15.25 8.5625 
Q 5.609375 18.5625 5.609375 36.375 
Q 5.609375 54.25 15.25 64.234375 
Q 24.90625 74.21875 42 74.21875 
Q 49.125 74.21875 55.546875 72.453125 
Q 61.96875 70.703125 67.390625 67.28125 
L 67.390625 56.78125 
Q 61.921875 61.421875 55.765625 63.765625 
Q 49.609375 66.109375 42.828125 66.109375 
Q 29.4375 66.109375 22.71875 58.640625 
Q 16.015625 51.171875 16.015625 36.375 
Q 16.015625 21.625 22.71875 14.15625 
Q 29.4375 6.6875 42.828125 6.6875 
Q 48.046875 6.6875 52.140625 7.59375 
Q 56.25 8.5 59.515625 10.40625 
z
" id="DejaVuSans-71"/>
       <path d="M 56.203125 29.59375 
L 56.203125 25.203125 
L 14.890625 25.203125 
Q 15.484375 15.921875 20.484375 11.0625 
Q 25.484375 6.203125 34.421875 6.203125 
Q 39.59375 6.203125 44.453125 7.46875 
Q 49.3125 8.734375 54.109375 11.28125 
L 54.109375 2.78125 
Q 49.265625 0.734375 44.1875 -0.34375 
Q 39.109375 -1.421875 33.890625 -1.421875 
Q 20.796875 -1.421875 13.15625 6.1875 
Q 5.515625 13.8125 5.515625 26.8125 
Q 5.515625 40.234375 12.765625 48.109375 
Q 20.015625 56 32.328125 56 
Q 43.359375 56 49.78125 48.890625 
Q 56.203125 41.796875 56.203125 29.59375 
z
M 47.21875 32.234375 
Q 47.125 39.59375 43.09375 43.984375 
Q 39.0625 48.390625 32.421875 48.390625 
Q 24.90625 48.390625 20.390625 44.140625 
Q 15.875 39.890625 15.1875 32.171875 
z
" id="DejaVuSans-101"/>
       <path d="M 54.890625 33.015625 
L 54.890625 0 
L 45.90625 0 
L 45.90625 32.71875 
Q 45.90625 40.484375 42.875 44.328125 
Q 39.84375 48.1875 33.796875 48.1875 
Q 26.515625 48.1875 22.3125 43.546875 
Q 18.109375 38.921875 18.109375 30.90625 
L 18.109375 0 
L 9.078125 0 
L 9.078125 54.6875 
L 18.109375 54.6875 
L 18.109375 46.1875 
Q 21.34375 51.125 25.703125 53.5625 
Q 30.078125 56 35.796875 56 
Q 45.21875 56 50.046875 50.171875 
Q 54.890625 44.34375 54.890625 33.015625 
z
" id="DejaVuSans-110"/>
       <path d="M 41.109375 46.296875 
Q 39.59375 47.171875 37.8125 47.578125 
Q 36.03125 48 33.890625 48 
Q 26.265625 48 22.1875 43.046875 
Q 18.109375 38.09375 18.109375 28.8125 
L 18.109375 0 
L 9.078125 0 
L 9.078125 54.6875 
L 18.109375 54.6875 
L 18.109375 46.1875 
Q 20.953125 51.171875 25.484375 53.578125 
Q 30.03125 56 36.53125 56 
Q 37.453125 56 38.578125 55.875 
Q 39.703125 55.765625 41.0625 55.515625 
z
" id="DejaVuSans-114"/>
       <path d="M 34.28125 27.484375 
Q 23.390625 27.484375 19.1875 25 
Q 14.984375 22.515625 14.984375 16.5 
Q 14.984375 11.71875 18.140625 8.90625 
Q 21.296875 6.109375 26.703125 6.109375 
Q 34.1875 6.109375 38.703125 11.40625 
Q 43.21875 16.703125 43.21875 25.484375 
L 43.21875 27.484375 
z
M 52.203125 31.203125 
L 52.203125 0 
L 43.21875 0 
L 43.21875 8.296875 
Q 40.140625 3.328125 35.546875 0.953125 
Q 30.953125 -1.421875 24.3125 -1.421875 
Q 15.921875 -1.421875 10.953125 3.296875 
Q 6 8.015625 6 15.921875 
Q 6 25.140625 12.171875 29.828125 
Q 18.359375 34.515625 30.609375 34.515625 
L 43.21875 34.515625 
L 43.21875 35.40625 
Q 43.21875 41.609375 39.140625 45 
Q 35.0625 48.390625 27.6875 48.390625 
Q 23 48.390625 18.546875 47.265625 
Q 14.109375 46.140625 10.015625 43.890625 
L 10.015625 52.203125 
Q 14.9375 54.109375 19.578125 55.046875 
Q 24.21875 56 28.609375 56 
Q 40.484375 56 46.34375 49.84375 
Q 52.203125 43.703125 52.203125 31.203125 
z
" id="DejaVuSans-97"/>
       <path d="M 18.3125 70.21875 
L 18.3125 54.6875 
L 36.8125 54.6875 
L 36.8125 47.703125 
L 18.3125 47.703125 
L 18.3125 18.015625 
Q 18.3125 11.328125 20.140625 9.421875 
Q 21.96875 7.515625 27.59375 7.515625 
L 36.8125 7.515625 
L 36.8125 0 
L 27.59375 0 
Q 17.1875 0 13.234375 3.875 
Q 9.28125 7.765625 9.28125 18.015625 
L 9.28125 47.703125 
L 2.6875 47.703125 
L 2.6875 54.6875 
L 9.28125 54.6875 
L 9.28125 70.21875 
z
" id="DejaVuSans-116"/>
       <path d="M 9.421875 54.6875 
L 18.40625 54.6875 
L 18.40625 0 
L 9.421875 0 
z
M 9.421875 75.984375 
L 18.40625 75.984375 
L 18.40625 64.59375 
L 9.421875 64.59375 
z
" id="DejaVuSans-105"/>
       <path d="M 30.609375 48.390625 
Q 23.390625 48.390625 19.1875 42.75 
Q 14.984375 37.109375 14.984375 27.296875 
Q 14.984375 17.484375 19.15625 11.84375 
Q 23.34375 6.203125 30.609375 6.203125 
Q 37.796875 6.203125 41.984375 11.859375 
Q 46.1875 17.53125 46.1875 27.296875 
Q 46.1875 37.015625 41.984375 42.703125 
Q 37.796875 48.390625 30.609375 48.390625 
z
M 30.609375 56 
Q 42.328125 56 49.015625 48.375 
Q 55.71875 40.765625 55.71875 27.296875 
Q 55.71875 13.875 49.015625 6.21875 
Q 42.328125 -1.421875 30.609375 -1.421875 
Q 18.84375 -1.421875 12.171875 6.21875 
Q 5.515625 13.875 5.515625 27.296875 
Q 5.515625 40.765625 12.171875 48.375 
Q 18.84375 56 30.609375 56 
z
" id="DejaVuSans-111"/>
       <path d="M 44.28125 53.078125 
L 44.28125 44.578125 
Q 40.484375 46.53125 36.375 47.5 
Q 32.28125 48.484375 27.875 48.484375 
Q 21.1875 48.484375 17.84375 46.4375 
Q 14.5 44.390625 14.5 40.28125 
Q 14.5 37.15625 16.890625 35.375 
Q 19.28125 33.59375 26.515625 31.984375 
L 29.59375 31.296875 
Q 39.15625 29.25 43.1875 25.515625 
Q 47.21875 21.78125 47.21875 15.09375 
Q 47.21875 7.46875 41.1875 3.015625 
Q 35.15625 -1.421875 24.609375 -1.421875 
Q 20.21875 -1.421875 15.453125 -0.5625 
Q 10.6875 0.296875 5.421875 2 
L 5.421875 11.28125 
Q 10.40625 8.6875 15.234375 7.390625 
Q 20.0625 6.109375 24.8125 6.109375 
Q 31.15625 6.109375 34.5625 8.28125 
Q 37.984375 10.453125 37.984375 14.40625 
Q 37.984375 18.0625 35.515625 20.015625 
Q 33.0625 21.96875 24.703125 23.78125 
L 21.578125 24.515625 
Q 13.234375 26.265625 9.515625 29.90625 
Q 5.8125 33.546875 5.8125 39.890625 
Q 5.8125 47.609375 11.28125 51.796875 
Q 16.75 56 26.8125 56 
Q 31.78125 56 36.171875 55.265625 
Q 40.578125 54.546875 44.28125 53.078125 
z
" id="DejaVuSans-115"/>
      </defs>
      <use xlink:href="#DejaVuSans-71"/>
      <use x="77.490234" xlink:href="#DejaVuSans-101"/>
      <use x="139.013672" xlink:href="#DejaVuSans-110"/>
      <use x="202.392578" xlink:href="#DejaVuSans-101"/>
      <use x="263.916016" xlink:href="#DejaVuSans-114"/>
      <use x="305.029297" xlink:href="#DejaVuSans-97"/>
      <use x="366.308594" xlink:href="#DejaVuSans-116"/>
      <use x="405.517578" xlink:href="#DejaVuSans-105"/>
      <use x="433.300781" xlink:href="#DejaVuSans-111"/>
      <use x="494.482422" xlink:href="#DejaVuSans-110"/>
      <use x="557.861328" xlink:href="#DejaVuSans-115"/>
     </g>
    </g>
   </g>
   <g id="matplotlib.axis_2">
    <g id="ytick_1">
     <g id="line2d_11">
      <path clip-path="url(#p1031c25bab)" d="M 57.6 214.679271 
L 414.72 214.679271 
" style="fill:none;stroke:#b0b0b0;stroke-linecap:square;stroke-width:0.8;"/>
     </g>
     <g id="line2d_12">
      <defs>
       <path d="M 0 0 
L -3.5 0 
" id="m795d10f5dd" style="stroke:#000000;stroke-width:0.8;"/>
      </defs>
      <g>
       <use style="stroke:#000000;stroke-width:0.8;" x="57.6" xlink:href="#m795d10f5dd" y="214.679271"/>
      </g>
     </g>
     <g id="text_7">
      <!-- $\mathdefault{-10^{4}}$ -->
      <g transform="translate(24.6 218.478489)scale(0.1 -0.1)">
       <defs>
        <path d="M 10.59375 35.5 
L 73.1875 35.5 
L 73.1875 27.203125 
L 10.59375 27.203125 
z
" id="DejaVuSans-8722"/>
        <path d="M 12.40625 8.296875 
L 28.515625 8.296875 
L 28.515625 63.921875 
L 10.984375 60.40625 
L 10.984375 69.390625 
L 28.421875 72.90625 
L 38.28125 72.90625 
L 38.28125 8.296875 
L 54.390625 8.296875 
L 54.390625 0 
L 12.40625 0 
z
" id="DejaVuSans-49"/>
       </defs>
       <use transform="translate(0 0.684375)" xlink:href="#DejaVuSans-8722"/>
       <use transform="translate(83.789062 0.684375)" xlink:href="#DejaVuSans-49"/>
       <use transform="translate(147.412109 0.684375)" xlink:href="#DejaVuSans-48"/>
       <use transform="translate(211.992188 38.965625)scale(0.7)" xlink:href="#DejaVuSans-52"/>
      </g>
     </g>
    </g>
    <g id="text_8">
     <!-- Fitness -->
     <g transform="translate(18.520312 191.845187)rotate(-90)scale(0.1 -0.1)">
      <defs>
       <path d="M 9.8125 72.90625 
L 51.703125 72.90625 
L 51.703125 64.59375 
L 19.671875 64.59375 
L 19.671875 43.109375 
L 48.578125 43.109375 
L 48.578125 34.8125 
L 19.671875 34.8125 
L 19.671875 0 
L 9.8125 0 
z
" id="DejaVuSans-70"/>
      </defs>
      <use xlink:href="#DejaVuSans-70"/>
      <use x="50.269531" xlink:href="#DejaVuSans-105"/>
      <use x="78.052734" xlink:href="#DejaVuSans-116"/>
      <use x="117.261719" xlink:href="#DejaVuSans-110"/>
      <use x="180.640625" xlink:href="#DejaVuSans-101"/>
      <use x="242.164062" xlink:href="#DejaVuSans-115"/>
      <use x="294.263672" xlink:href="#DejaVuSans-115"/>
     </g>
    </g>
   </g>
   <g id="line2d_13">
    <path clip-path="url(#p1031c25bab)" d="M 73.832727 295.488 
L 74.199984 262.397518 
L 74.56724 243.403297 
L 74.934496 239.858653 
L 75.301752 228.78253 
L 75.669009 229.203482 
L 76.036265 218.304169 
L 76.403521 216.16171 
L 76.770777 216.508688 
L 77.138034 215.713689 
L 77.50529 216.906117 
L 77.872546 212.232283 
L 78.607059 199.307717 
L 78.974315 199.614587 
L 79.708828 210.667963 
L 80.076084 207.832806 
L 80.44334 211.479229 
L 80.810596 211.326297 
L 81.177853 209.393686 
L 81.545109 203.339314 
L 81.912365 205.218616 
L 82.279622 208.717417 
L 82.646878 210.315767 
L 83.38139 201.476684 
L 83.748647 206.446208 
L 84.115903 202.732103 
L 84.483159 203.570759 
L 84.850415 199.619304 
L 85.217672 200.900906 
L 85.584928 202.948734 
L 85.952184 198.441717 
L 86.319441 198.486932 
L 87.053953 205.214816 
L 87.421209 205.918516 
L 87.788466 191.403374 
L 88.155722 198.152748 
L 88.890234 215.403891 
L 89.257491 200.71518 
L 89.624747 198.037625 
L 89.992003 194.415145 
L 90.35926 188.113874 
L 90.726516 196.548851 
L 91.093772 209.182015 
L 91.461028 189.470919 
L 91.828285 192.978295 
L 92.195541 193.856958 
L 92.562797 192.021174 
L 92.930053 210.814725 
L 93.29731 201.2012 
L 93.664566 196.476186 
L 94.031822 188.591454 
L 94.766335 206.852022 
L 95.133591 196.048228 
L 95.500847 205.672725 
L 95.868104 202.823208 
L 96.23536 204.795256 
L 96.602616 197.858231 
L 96.969872 205.440557 
L 97.337129 201.19228 
L 97.704385 199.914602 
L 98.071641 203.209853 
L 98.438898 191.468429 
L 98.806154 189.145674 
L 99.17341 191.943603 
L 99.540666 201.8998 
L 99.907923 206.326782 
L 100.275179 201.501801 
L 100.642435 191.541256 
L 101.009691 185.324662 
L 101.376948 199.710097 
L 101.744204 179.406588 
L 102.11146 185.012042 
L 102.478717 171.573539 
L 102.845973 190.654399 
L 103.213229 187.793891 
L 103.580485 178.635785 
L 104.314998 186.876864 
L 105.04951 199.753359 
L 105.416767 202.152226 
L 105.784023 189.267416 
L 106.151279 200.872089 
L 106.885792 183.344936 
L 107.253048 200.957252 
L 107.987561 191.010504 
L 108.354817 195.201347 
L 108.722073 186.492293 
L 109.089329 208.443604 
L 109.823842 204.736205 
L 110.191098 199.008375 
L 110.558355 201.234393 
L 110.925611 201.404262 
L 111.292867 199.75899 
L 111.660123 182.823524 
L 112.02738 207.329519 
L 112.394636 200.086394 
L 112.761892 210.531653 
L 113.129148 210.429345 
L 113.496405 204.572001 
L 113.863661 190.890973 
L 114.230917 191.666329 
L 114.598174 199.400541 
L 114.96543 202.687565 
L 115.332686 191.72885 
L 115.699942 202.477141 
L 116.067199 185.467606 
L 116.434455 198.369258 
L 116.801711 197.13252 
L 117.168968 209.879102 
L 117.536224 209.314656 
L 117.90348 190.913022 
L 118.270736 193.686134 
L 118.637993 206.393083 
L 119.005249 209.19709 
L 119.372505 199.874106 
L 119.739761 198.007954 
L 120.107018 200.287765 
L 120.474274 206.0952 
L 120.84153 209.029715 
L 121.208787 203.120905 
L 121.576043 207.118127 
L 121.943299 206.079267 
L 122.310555 204.469772 
L 122.677812 183.397485 
L 123.045068 207.162401 
L 123.412324 202.946099 
L 123.77958 194.350382 
L 124.146837 177.440986 
L 124.881349 202.391829 
L 125.248606 198.015884 
L 125.615862 198.754852 
L 125.983118 204.235057 
L 126.350374 203.804089 
L 126.717631 195.440039 
L 127.084887 205.325093 
L 127.452143 201.663786 
L 127.819399 202.524392 
L 128.186656 202.503075 
L 128.553912 187.146519 
L 128.921168 188.211923 
L 129.288425 191.789254 
L 129.655681 197.222733 
L 130.022937 189.275675 
L 130.75745 197.017949 
L 131.124706 192.721974 
L 131.491962 189.884145 
L 131.859218 197.11805 
L 132.226475 195.291079 
L 132.593731 207.135807 
L 132.960987 202.235145 
L 133.328244 202.842927 
L 133.6955 204.359167 
L 134.062756 200.039243 
L 134.430012 200.49993 
L 134.797269 205.109184 
L 135.164525 208.197788 
L 135.531781 208.555592 
L 135.899037 215.110326 
L 137.000806 201.685033 
L 137.368063 195.650017 
L 137.735319 203.378454 
L 138.102575 199.399434 
L 138.469831 210.103542 
L 138.837088 211.008584 
L 139.204344 205.932673 
L 139.938856 210.55191 
L 140.306113 210.199228 
L 140.673369 209.200861 
L 141.040625 207.632801 
L 141.407882 205.36348 
L 141.775138 205.504339 
L 142.142394 202.805113 
L 142.50965 214.894225 
L 142.876907 212.91713 
L 143.244163 218.667477 
L 143.611419 212.430476 
L 143.978675 212.381216 
L 144.345932 217.422993 
L 144.713188 207.856223 
L 145.080444 208.655748 
L 145.447701 206.240801 
L 145.814957 217.209225 
L 146.182213 217.976882 
L 146.549469 203.62548 
L 146.916726 207.452176 
L 147.283982 213.963839 
L 147.651238 210.579281 
L 148.018494 204.938892 
L 148.385751 226.721156 
L 148.753007 217.814022 
L 149.120263 213.381866 
L 149.48752 223.384496 
L 149.854776 221.224869 
L 150.222032 217.03026 
L 150.589288 217.092676 
L 150.956545 219.992303 
L 151.323801 218.393855 
L 151.691057 230.363373 
L 152.058313 231.055292 
L 152.792826 220.175046 
L 153.160082 220.619995 
L 153.527339 208.608635 
L 153.894595 221.606035 
L 154.261851 212.938283 
L 154.629107 212.93933 
L 154.996364 218.823421 
L 155.36362 219.769183 
L 155.730876 218.700153 
L 156.098132 212.851274 
L 156.465389 216.662385 
L 156.832645 217.575328 
L 157.199901 214.694065 
L 157.934414 199.102286 
L 158.30167 205.714983 
L 158.668926 208.261245 
L 159.036183 208.208582 
L 159.403439 213.45275 
L 159.770695 211.359742 
L 160.137951 206.270825 
L 160.505208 212.636627 
L 160.872464 197.614083 
L 161.23972 216.977401 
L 161.606977 200.306585 
L 161.974233 209.463334 
L 162.341489 204.841117 
L 162.708745 202.062424 
L 163.076002 206.306706 
L 163.443258 196.184222 
L 163.810514 197.643191 
L 164.17777 212.937126 
L 164.545027 209.368304 
L 164.912283 207.92809 
L 165.279539 211.937334 
L 165.646796 212.457525 
L 166.014052 212.511214 
L 166.381308 220.493226 
L 166.748564 214.963567 
L 167.115821 217.775872 
L 167.483077 214.316739 
L 167.850333 213.727043 
L 168.217589 222.865946 
L 168.584846 215.94451 
L 168.952102 215.16478 
L 169.319358 218.254541 
L 169.686615 211.065255 
L 170.053871 201.636881 
L 170.421127 209.076465 
L 170.788383 204.475507 
L 171.15564 214.931828 
L 171.522896 206.123699 
L 171.890152 214.184439 
L 172.257408 208.46284 
L 172.624665 200.206441 
L 173.359177 214.618495 
L 173.726434 200.742124 
L 174.09369 203.357135 
L 174.460946 214.114245 
L 174.828202 204.359523 
L 175.195459 200.481817 
L 175.562715 210.871507 
L 175.929971 212.606338 
L 176.297227 206.800161 
L 176.664484 216.00973 
L 177.03174 206.303313 
L 177.398996 207.82185 
L 177.766253 207.691852 
L 178.133509 214.610668 
L 178.500765 207.842465 
L 178.868021 206.953037 
L 179.235278 201.302188 
L 179.602534 210.22174 
L 179.96979 189.924046 
L 180.337046 194.938661 
L 180.704303 194.317447 
L 181.071559 195.53263 
L 181.438815 197.306514 
L 181.806072 189.838287 
L 182.173328 206.701952 
L 182.540584 201.701698 
L 182.90784 201.894224 
L 183.275097 198.234063 
L 183.642353 199.617611 
L 184.009609 205.069949 
L 184.376865 201.337568 
L 185.111378 210.918555 
L 185.478634 204.748011 
L 185.845891 209.270616 
L 186.213147 210.022735 
L 186.580403 196.822242 
L 187.314916 203.016726 
L 187.682172 209.673605 
L 188.049428 206.850626 
L 188.416684 203.149144 
L 188.783941 202.524427 
L 189.151197 200.629914 
L 189.518453 200.2992 
L 189.88571 207.699178 
L 190.252966 189.005181 
L 190.620222 208.668413 
L 190.987478 201.016938 
L 191.354735 207.030378 
L 192.089247 196.331627 
L 192.456503 209.618278 
L 192.82376 215.640695 
L 193.191016 193.619513 
L 193.558272 195.642064 
L 193.925529 203.848031 
L 194.292785 205.963065 
L 194.660041 212.596063 
L 195.027297 205.105103 
L 195.394554 194.484944 
L 195.76181 197.561049 
L 196.129066 210.015073 
L 196.496323 212.710844 
L 196.863579 208.809586 
L 197.230835 203.427074 
L 197.598091 207.093916 
L 197.965348 217.722116 
L 198.332604 206.44895 
L 198.69986 199.736054 
L 199.067116 200.859925 
L 199.434373 209.309446 
L 199.801629 203.526326 
L 200.168885 208.827624 
L 200.536142 208.177367 
L 200.903398 210.377153 
L 201.270654 223.202994 
L 201.63791 214.958682 
L 202.005167 209.350532 
L 202.372423 206.421976 
L 202.739679 214.190166 
L 203.106935 203.259852 
L 203.474192 208.741228 
L 203.841448 200.149196 
L 204.208704 195.736474 
L 204.575961 195.38815 
L 204.943217 187.466147 
L 205.310473 195.846492 
L 205.677729 191.916182 
L 206.044986 194.138911 
L 206.412242 199.9743 
L 206.779498 195.90126 
L 207.146754 200.284132 
L 207.514011 201.426115 
L 208.248523 211.716571 
L 208.983036 198.039138 
L 209.350292 195.912105 
L 209.717548 206.336895 
L 210.084805 192.614175 
L 210.452061 198.039363 
L 210.819317 209.917853 
L 211.55383 173.755902 
L 211.921086 176.589766 
L 212.288342 194.325647 
L 212.655599 181.539041 
L 213.022855 180.154988 
L 213.390111 184.871114 
L 214.124624 185.959728 
L 214.49188 185.259425 
L 214.859136 197.367027 
L 215.226392 180.119055 
L 215.593649 188.825611 
L 215.960905 189.822389 
L 216.695418 199.166323 
L 217.062674 195.003828 
L 217.42993 198.432297 
L 217.797186 182.764707 
L 218.164443 186.013808 
L 218.898955 208.343934 
L 219.266211 208.96601 
L 219.633468 202.491786 
L 220.000724 204.004003 
L 220.36798 202.693856 
L 220.735237 203.13859 
L 221.102493 210.785089 
L 221.469749 213.2526 
L 221.837005 211.216617 
L 222.204262 204.952366 
L 222.571518 214.623942 
L 222.938774 208.344392 
L 223.30603 212.755277 
L 223.673287 218.698611 
L 224.040543 215.97169 
L 224.407799 220.065746 
L 224.775056 209.884355 
L 225.142312 218.232373 
L 225.509568 216.678002 
L 225.876824 212.964086 
L 226.244081 206.943554 
L 226.611337 215.465096 
L 227.345849 214.49264 
L 227.713106 203.448008 
L 228.080362 215.716101 
L 228.814875 214.281363 
L 229.182131 204.697081 
L 229.549387 212.828676 
L 229.916643 207.533808 
L 230.2839 204.399604 
L 230.651156 212.222739 
L 231.018412 214.868901 
L 231.385668 204.893538 
L 231.752925 205.062933 
L 232.120181 198.048041 
L 233.22195 195.029513 
L 233.589206 182.47948 
L 233.956462 195.667328 
L 234.323719 191.206506 
L 234.690975 200.339508 
L 235.058231 199.509778 
L 235.425487 200.076179 
L 235.792744 209.314627 
L 236.16 206.632628 
L 236.527256 198.557846 
L 236.894513 203.004908 
L 237.261769 202.896284 
L 237.629025 193.640198 
L 237.996281 206.010326 
L 238.363538 193.348686 
L 238.730794 190.819808 
L 239.09805 196.356884 
L 239.465306 196.288478 
L 239.832563 196.801982 
L 240.199819 203.032969 
L 240.567075 203.416499 
L 240.934332 207.682926 
L 241.301588 204.546532 
L 241.668844 203.765645 
L 242.0361 197.28256 
L 242.403357 200.379614 
L 242.770613 197.14359 
L 243.137869 200.697436 
L 243.505125 210.824397 
L 243.872382 203.696931 
L 244.239638 204.288221 
L 244.606894 200.75376 
L 244.974151 205.61734 
L 245.341407 204.226449 
L 245.708663 206.582908 
L 246.075919 198.190843 
L 246.443176 193.953129 
L 247.177688 223.590862 
L 247.544944 200.077237 
L 247.912201 207.949211 
L 248.279457 218.857693 
L 248.646713 213.461188 
L 249.01397 215.618839 
L 249.381226 215.710879 
L 249.748482 211.581505 
L 250.115738 200.068324 
L 250.482995 206.025697 
L 250.850251 198.00981 
L 251.217507 197.806663 
L 251.584763 197.870594 
L 251.95202 195.927493 
L 252.319276 191.120224 
L 252.686532 201.90794 
L 253.053789 206.66016 
L 253.421045 193.491341 
L 253.788301 193.271963 
L 254.155557 194.177081 
L 254.522814 192.221201 
L 254.89007 187.886027 
L 255.257326 193.942737 
L 255.624582 177.204554 
L 255.991839 183.161433 
L 256.359095 194.890452 
L 256.726351 189.854009 
L 257.093608 190.606921 
L 257.460864 185.105365 
L 257.82812 193.347339 
L 258.195376 194.287173 
L 258.562633 188.006512 
L 258.929889 193.286566 
L 259.297145 202.762208 
L 259.664401 207.302411 
L 260.398914 193.562444 
L 260.76617 192.718643 
L 261.133427 191.102392 
L 261.500683 201.284198 
L 261.867939 199.986723 
L 262.235195 187.796026 
L 262.602452 184.02995 
L 262.969708 192.889041 
L 263.336964 181.996204 
L 263.70422 179.773873 
L 264.071477 184.213622 
L 264.438733 180.932397 
L 264.805989 167.852642 
L 265.173246 173.253254 
L 265.540502 190.910864 
L 265.907758 202.828926 
L 266.275014 185.957886 
L 266.642271 182.309907 
L 267.009527 188.384939 
L 267.376783 186.550272 
L 267.744039 192.201362 
L 268.111296 189.74231 
L 268.478552 199.768204 
L 268.845808 195.04205 
L 269.213065 203.036329 
L 269.580321 199.80573 
L 269.947577 187.301089 
L 270.314833 198.571934 
L 270.68209 196.127552 
L 271.049346 194.889302 
L 271.416602 192.6957 
L 271.783858 202.314603 
L 272.151115 192.337254 
L 272.518371 195.490788 
L 272.885627 201.800988 
L 273.252884 198.898416 
L 273.62014 192.60419 
L 273.987396 194.476253 
L 274.354652 206.907991 
L 274.721909 203.942631 
L 275.089165 207.257943 
L 276.190934 187.755234 
L 276.55819 193.829809 
L 276.925446 192.765872 
L 277.292703 204.811793 
L 277.659959 199.968804 
L 278.027215 210.526744 
L 278.394471 210.301574 
L 278.761728 198.694788 
L 279.128984 199.990003 
L 279.49624 213.968684 
L 279.863497 199.609952 
L 280.230753 207.144719 
L 280.598009 204.253863 
L 280.965265 205.373551 
L 281.332522 195.011103 
L 281.699778 190.844129 
L 282.067034 200.772185 
L 282.43429 201.270709 
L 282.801547 200.734232 
L 283.168803 193.306492 
L 283.536059 196.852858 
L 283.903316 198.252118 
L 284.270572 189.58682 
L 284.637828 204.935151 
L 285.005084 202.342612 
L 285.372341 196.612088 
L 285.739597 210.455882 
L 286.106853 215.897906 
L 286.474109 201.249867 
L 286.841366 196.695947 
L 287.208622 188.158727 
L 287.575878 198.069014 
L 287.943135 192.575427 
L 288.310391 206.045077 
L 288.677647 203.921328 
L 289.044903 217.683102 
L 289.41216 216.268136 
L 289.779416 217.539921 
L 290.146672 226.882765 
L 290.513928 213.521277 
L 290.881185 214.32902 
L 291.248441 207.955378 
L 291.615697 210.37782 
L 291.982954 199.0708 
L 292.35021 202.462329 
L 292.717466 211.101985 
L 293.084722 202.740975 
L 293.451979 211.421248 
L 293.819235 195.62443 
L 294.186491 199.659584 
L 294.553747 201.74091 
L 294.921004 213.477384 
L 295.28826 212.2705 
L 295.655516 202.283113 
L 296.022773 210.714929 
L 296.390029 200.528224 
L 296.757285 198.395696 
L 297.491798 204.308191 
L 297.859054 188.759565 
L 298.22631 204.565815 
L 298.593566 200.73491 
L 298.960823 190.257062 
L 299.328079 183.713476 
L 299.695335 195.731645 
L 300.062592 200.594125 
L 300.429848 210.612054 
L 300.797104 203.174646 
L 301.16436 205.225887 
L 301.531617 203.664629 
L 301.898873 211.011996 
L 302.266129 210.146581 
L 302.633385 200.124636 
L 303.000642 204.953831 
L 303.367898 202.103957 
L 303.735154 210.896119 
L 304.102411 204.893047 
L 304.469667 206.408057 
L 304.836923 209.11678 
L 305.204179 203.146431 
L 305.571436 204.213008 
L 305.938692 203.004842 
L 306.305948 199.598739 
L 306.673204 205.728216 
L 307.040461 214.378884 
L 307.407717 202.860306 
L 307.774973 199.255562 
L 308.14223 198.115891 
L 308.509486 198.627274 
L 308.876742 205.068599 
L 309.243998 198.361752 
L 309.611255 208.131238 
L 310.345767 200.070227 
L 310.713023 201.788662 
L 311.08028 205.178617 
L 311.447536 216.745438 
L 312.182049 202.340993 
L 312.549305 211.584917 
L 312.916561 216.544386 
L 313.283817 201.229121 
L 313.651074 216.284596 
L 314.01833 213.446417 
L 314.385586 214.666739 
L 314.752842 208.127163 
L 315.120099 205.740552 
L 315.487355 213.187433 
L 315.854611 205.506647 
L 316.221868 215.019153 
L 316.589124 214.322606 
L 316.95638 211.82853 
L 317.323636 214.976243 
L 317.690893 214.229028 
L 318.058149 217.66758 
L 318.425405 208.798289 
L 318.792661 211.380143 
L 319.159918 204.301722 
L 319.527174 213.389798 
L 319.89443 218.189733 
L 320.261687 211.947714 
L 320.628943 210.840021 
L 320.996199 205.3336 
L 321.363455 203.884687 
L 321.730712 201.450367 
L 322.097968 194.472788 
L 322.465224 197.479064 
L 322.83248 186.470794 
L 323.199737 200.247608 
L 323.566993 193.042491 
L 323.934249 206.023331 
L 324.301506 196.019381 
L 324.668762 202.828981 
L 325.036018 202.7339 
L 325.403274 198.369795 
L 326.137787 206.610203 
L 326.505043 205.59818 
L 326.872299 210.667836 
L 327.239556 204.264358 
L 327.606812 204.162839 
L 327.974068 215.21038 
L 328.341325 207.911875 
L 328.708581 210.138725 
L 329.075837 209.830863 
L 329.443093 207.720158 
L 329.81035 193.624669 
L 330.177606 207.730158 
L 330.544862 207.190446 
L 330.912118 197.592091 
L 331.279375 204.493574 
L 331.646631 202.551698 
L 332.013887 206.380849 
L 332.7484 197.754033 
L 333.115656 202.392637 
L 333.482912 204.770322 
L 333.850169 195.503246 
L 334.217425 205.287906 
L 334.584681 199.704548 
L 334.951937 201.77819 
L 335.319194 196.957493 
L 335.68645 201.697893 
L 336.053706 201.38286 
L 336.420963 197.314847 
L 336.788219 196.099054 
L 337.155475 212.63365 
L 337.889988 214.556571 
L 338.257244 196.350175 
L 338.991756 205.185069 
L 339.359013 202.56816 
L 339.726269 201.492597 
L 340.093525 202.118832 
L 340.460782 205.024197 
L 340.828038 204.179778 
L 341.195294 201.953284 
L 341.56255 203.712366 
L 341.929807 204.151555 
L 342.297063 204.794375 
L 342.664319 195.26848 
L 343.031575 207.345533 
L 343.398832 209.185889 
L 343.766088 200.312509 
L 344.133344 200.880216 
L 344.500601 204.259644 
L 344.867857 198.74244 
L 345.235113 199.197697 
L 345.602369 204.314374 
L 345.969626 195.590139 
L 346.336882 207.802685 
L 346.704138 201.902848 
L 347.071394 194.209808 
L 347.438651 199.317062 
L 347.805907 199.231797 
L 348.173163 201.435442 
L 348.54042 210.279606 
L 348.907676 200.000638 
L 349.274932 202.069938 
L 350.009445 212.179568 
L 350.376701 203.021661 
L 350.743957 213.579553 
L 351.111213 196.759019 
L 351.47847 195.26023 
L 351.845726 203.232496 
L 352.212982 201.023003 
L 352.580239 207.696987 
L 352.947495 209.453555 
L 353.314751 195.278944 
L 353.682007 203.606952 
L 354.049264 198.791699 
L 354.41652 206.105805 
L 354.783776 206.106119 
L 355.151032 206.232853 
L 355.518289 204.994807 
L 355.885545 202.629837 
L 356.252801 211.264701 
L 356.620058 200.154806 
L 356.987314 208.460497 
L 357.35457 206.242749 
L 357.721826 202.953409 
L 358.089083 192.690201 
L 358.456339 194.785389 
L 358.823595 207.540499 
L 359.190852 209.657423 
L 359.558108 206.611043 
L 359.925364 204.803855 
L 360.29262 194.693727 
L 360.659877 201.440406 
L 361.027133 191.731123 
L 361.394389 203.612491 
L 361.761645 202.646067 
L 362.128902 207.129582 
L 362.496158 204.474247 
L 362.863414 192.231599 
L 363.230671 202.385195 
L 363.597927 194.786289 
L 363.965183 194.219273 
L 364.332439 192.92204 
L 364.699696 199.655492 
L 365.066952 194.556294 
L 365.434208 204.188821 
L 365.801464 188.102632 
L 366.168721 198.783856 
L 366.535977 196.526554 
L 366.903233 199.880439 
L 367.27049 191.784124 
L 367.637746 193.536616 
L 368.005002 196.274501 
L 368.372258 205.974359 
L 368.739515 199.913663 
L 369.106771 200.595437 
L 369.474027 198.268398 
L 369.841283 209.507176 
L 370.20854 189.779904 
L 370.575796 192.308476 
L 370.943052 196.091042 
L 371.310309 198.493523 
L 372.044821 210.598075 
L 372.412077 206.44754 
L 372.779334 205.286108 
L 373.14659 211.174797 
L 373.513846 209.409919 
L 373.881102 211.547193 
L 374.248359 201.397201 
L 374.615615 203.32935 
L 374.982871 209.680838 
L 375.350128 191.686272 
L 375.717384 189.999146 
L 376.08464 191.382036 
L 376.819153 199.825305 
L 377.186409 189.46079 
L 377.553665 194.346382 
L 377.920921 188.246029 
L 378.288178 192.913175 
L 378.655434 189.906905 
L 379.02269 188.78363 
L 379.389947 188.058946 
L 379.757203 197.717877 
L 380.124459 193.437464 
L 380.491715 209.465397 
L 380.858972 209.771991 
L 381.226228 200.498645 
L 381.593484 208.473023 
L 381.96074 197.293252 
L 382.327997 206.889312 
L 382.695253 193.795491 
L 383.062509 197.891398 
L 383.429766 199.909059 
L 383.797022 196.012593 
L 384.164278 198.087817 
L 384.531534 197.931666 
L 384.898791 206.848842 
L 385.266047 203.850715 
L 385.633303 207.816104 
L 386.000559 191.430008 
L 386.367816 203.681043 
L 386.735072 198.683974 
L 387.102328 195.984094 
L 387.469585 189.392464 
L 387.836841 213.60018 
L 388.204097 199.683439 
L 388.571353 206.626366 
L 388.93861 204.685501 
L 389.305866 204.446425 
L 389.673122 204.42003 
L 390.040378 201.997425 
L 390.407635 218.032677 
L 390.774891 198.059735 
L 391.142147 199.084237 
L 391.509404 192.889765 
L 391.87666 193.695759 
L 392.243916 192.281413 
L 392.611172 192.463386 
L 392.978429 183.800474 
L 393.345685 195.399508 
L 393.712941 202.113706 
L 394.080197 196.003872 
L 394.447454 181.285652 
L 394.81471 188.605669 
L 395.181966 181.369753 
L 395.549223 194.899366 
L 395.916479 178.248416 
L 396.283735 189.757137 
L 396.650991 180.368488 
L 397.018248 198.948788 
L 397.385504 198.662651 
L 397.75276 197.477312 
L 398.120016 189.050223 
L 398.487273 186.174933 
L 398.487273 186.174933 
" style="fill:none;stroke:#0000ff;stroke-linecap:square;stroke-width:1.5;"/>
   </g>
   <g id="line2d_14">
    <path clip-path="url(#p1031c25bab)" d="M 73.832727 251.044845 
L 74.199984 222.347505 
L 74.56724 208.634036 
L 74.934496 204.951669 
L 75.301752 197.059041 
L 75.669009 194.241569 
L 76.036265 169.145314 
L 76.403521 162.673291 
L 76.770777 151.911208 
L 77.138034 166.232717 
L 77.50529 170.226998 
L 78.239803 142.935663 
L 78.607059 151.066516 
L 78.974315 148.424661 
L 79.341571 92.4041 
L 79.708828 161.160607 
L 80.076084 123.569604 
L 80.44334 155.791923 
L 80.810596 144.422496 
L 81.545109 89.011274 
L 81.912365 137.024134 
L 82.279622 132.346498 
L 82.646878 123.760039 
L 83.014134 154.638981 
L 83.38139 95.934704 
L 83.748647 148.091169 
L 84.850415 120.932988 
L 85.217672 139.295083 
L 85.584928 144.09141 
L 85.952184 139.754439 
L 86.319441 128.492968 
L 86.686697 147.988858 
L 87.053953 143.814277 
L 87.421209 142.993159 
L 87.788466 143.356251 
L 88.155722 135.750412 
L 88.522978 151.146918 
L 88.890234 157.608612 
L 89.257491 150.67494 
L 89.624747 141.330687 
L 89.992003 122.886005 
L 90.35926 123.389611 
L 90.726516 119.427336 
L 91.093772 154.715433 
L 91.461028 129.043865 
L 91.828285 146.475083 
L 92.195541 139.160376 
L 92.562797 121.515341 
L 92.930053 146.332029 
L 93.29731 116.864867 
L 93.664566 122.139437 
L 94.031822 129.616128 
L 94.399079 120.484879 
L 94.766335 150.238301 
L 95.133591 125.677886 
L 95.500847 157.493481 
L 95.868104 141.33861 
L 96.23536 158.924161 
L 96.602616 144.588026 
L 96.969872 144.84786 
L 97.337129 147.744702 
L 97.704385 136.621514 
L 98.071641 119.625733 
L 98.438898 90.850441 
L 98.806154 112.601957 
L 99.17341 120.784391 
L 99.907923 131.546148 
L 100.275179 147.249807 
L 100.642435 119.893992 
L 101.009691 106.996075 
L 101.376948 133.419523 
L 101.744204 122.074541 
L 102.11146 124.307175 
L 103.213229 90.928518 
L 103.580485 113.714914 
L 103.947742 123.807283 
L 104.682254 89.195959 
L 105.04951 137.774609 
L 105.416767 124.304112 
L 105.784023 101.776035 
L 106.151279 125.146206 
L 106.518536 110.403463 
L 106.885792 107.523543 
L 107.253048 129.872504 
L 107.620304 94.547936 
L 107.987561 112.935263 
L 108.722073 134.455938 
L 109.089329 151.38588 
L 109.456586 123.810607 
L 109.823842 151.103502 
L 110.191098 120.626562 
L 110.558355 149.762539 
L 110.925611 121.118486 
L 111.292867 128.320914 
L 111.660123 113.13078 
L 112.02738 147.981295 
L 112.394636 135.709095 
L 112.761892 154.274743 
L 113.129148 134.590305 
L 113.496405 142.059345 
L 113.863661 131.102478 
L 114.230917 130.871252 
L 114.598174 132.443633 
L 114.96543 153.469718 
L 115.332686 123.079375 
L 115.699942 133.611735 
L 116.067199 125.542718 
L 116.801711 146.464341 
L 117.536224 157.182007 
L 117.90348 131.538467 
L 118.270736 125.305152 
L 118.637993 150.229354 
L 119.005249 142.538627 
L 119.372505 111.536514 
L 119.739761 139.353844 
L 120.107018 131.759593 
L 120.474274 146.599605 
L 120.84153 138.145654 
L 121.208787 149.536721 
L 121.576043 131.581531 
L 121.943299 120.42518 
L 122.310555 131.905849 
L 122.677812 132.177008 
L 123.045068 131.559177 
L 123.412324 153.854385 
L 124.146837 119.409662 
L 124.514093 135.60422 
L 124.881349 132.013193 
L 125.248606 150.60619 
L 125.615862 134.62415 
L 125.983118 150.543456 
L 126.350374 150.676598 
L 126.717631 116.350126 
L 127.084887 141.617484 
L 127.452143 129.917202 
L 127.819399 130.569055 
L 128.186656 129.325391 
L 128.553912 111.065377 
L 128.921168 124.348643 
L 129.655681 132.493435 
L 130.022937 115.028513 
L 130.390193 133.012998 
L 130.75745 141.930523 
L 131.124706 132.01978 
L 131.491962 142.235427 
L 131.859218 131.487842 
L 132.226475 134.441403 
L 132.960987 151.225913 
L 133.328244 150.644245 
L 133.6955 148.289008 
L 134.062756 144.575009 
L 134.430012 145.937754 
L 134.797269 152.694614 
L 135.164525 147.952304 
L 135.531781 151.061463 
L 135.899037 161.126129 
L 136.266294 131.321645 
L 136.63355 136.452851 
L 137.000806 144.031891 
L 137.368063 146.854305 
L 137.735319 146.401879 
L 138.102575 160.975115 
L 138.469831 164.910779 
L 138.837088 131.33913 
L 139.204344 142.665947 
L 139.5716 117.654498 
L 140.306113 158.67176 
L 140.673369 138.009533 
L 141.040625 133.812715 
L 141.407882 139.851961 
L 141.775138 156.01259 
L 142.142394 138.59426 
L 142.50965 154.34778 
L 142.876907 161.697172 
L 143.244163 151.70305 
L 143.611419 145.283973 
L 143.978675 156.245068 
L 144.345932 141.581435 
L 144.713188 142.086954 
L 145.080444 144.27808 
L 145.447701 162.755873 
L 145.814957 145.194643 
L 146.182213 151.662155 
L 146.549469 139.925293 
L 146.916726 153.63343 
L 147.283982 144.085007 
L 147.651238 162.539601 
L 148.018494 136.606016 
L 148.385751 157.04405 
L 148.753007 158.260376 
L 149.120263 162.488235 
L 149.48752 169.91173 
L 149.854776 165.874024 
L 150.222032 167.2781 
L 150.589288 176.514936 
L 150.956545 161.015552 
L 151.323801 155.576226 
L 151.691057 168.200606 
L 152.058313 174.130945 
L 152.42557 171.566237 
L 152.792826 167.84056 
L 153.160082 169.754603 
L 153.527339 163.670786 
L 153.894595 161.716526 
L 154.261851 144.866115 
L 154.629107 158.578405 
L 154.996364 144.773015 
L 155.36362 156.808986 
L 155.730876 151.795685 
L 156.098132 156.899878 
L 156.465389 164.785821 
L 156.832645 160.928408 
L 157.199901 143.901363 
L 157.567158 142.445201 
L 157.934414 147.690385 
L 158.30167 132.49652 
L 158.668926 144.682163 
L 159.036183 142.951441 
L 159.403439 155.189429 
L 159.770695 151.700198 
L 160.137951 140.323023 
L 160.505208 143.856482 
L 161.23972 159.516999 
L 161.606977 144.811386 
L 161.974233 156.631301 
L 162.341489 133.573148 
L 162.708745 142.191955 
L 163.076002 146.018067 
L 163.443258 129.749391 
L 163.810514 145.981882 
L 164.17777 146.101689 
L 164.912283 125.634566 
L 165.279539 153.47741 
L 165.646796 139.493747 
L 166.014052 160.283178 
L 166.381308 166.28308 
L 167.115821 149.919364 
L 167.850333 169.414914 
L 168.217589 174.663987 
L 168.584846 170.526105 
L 168.952102 149.298679 
L 169.319358 157.936996 
L 169.686615 152.180382 
L 170.053871 154.372086 
L 170.421127 142.235205 
L 170.788383 134.911543 
L 171.15564 153.541804 
L 171.522896 136.794517 
L 171.890152 159.484036 
L 172.257408 141.480866 
L 172.624665 117.195012 
L 173.359177 157.435724 
L 173.726434 131.93181 
L 174.09369 144.205704 
L 174.460946 150.135546 
L 174.828202 139.505757 
L 175.195459 106.416809 
L 175.562715 137.986757 
L 175.929971 127.434368 
L 176.297227 139.403102 
L 176.664484 141.013361 
L 177.03174 113.980429 
L 177.398996 124.530229 
L 177.766253 122.4715 
L 178.133509 132.934743 
L 178.500765 126.072814 
L 178.868021 128.046203 
L 179.235278 137.339565 
L 179.96979 129.08538 
L 180.337046 127.406465 
L 180.704303 107.275577 
L 181.071559 116.387604 
L 181.438815 108.978935 
L 181.806072 120.680293 
L 182.173328 124.708922 
L 182.540584 82.648267 
L 182.90784 136.793112 
L 183.275097 113.539572 
L 183.642353 144.446343 
L 184.009609 133.144275 
L 184.376865 131.457521 
L 184.744122 88.882814 
L 185.111378 102.603991 
L 185.478634 128.14122 
L 185.845891 125.220469 
L 186.213147 138.263795 
L 186.580403 142.457243 
L 186.947659 121.291564 
L 187.314916 125.01705 
L 187.682172 120.35238 
L 188.049428 149.475412 
L 188.416684 122.397342 
L 188.783941 120.444536 
L 189.151197 111.545915 
L 189.518453 117.937935 
L 189.88571 128.477503 
L 190.252966 115.515163 
L 190.620222 132.591517 
L 190.987478 141.551435 
L 191.354735 137.390389 
L 191.721991 129.599175 
L 192.089247 139.90431 
L 192.456503 131.278193 
L 192.82376 126.891599 
L 193.191016 90.095674 
L 193.558272 111.17848 
L 193.925529 111.572542 
L 194.292785 128.358088 
L 194.660041 129.37446 
L 195.027297 121.832005 
L 195.394554 129.73124 
L 195.76181 119.386696 
L 196.129066 141.938908 
L 196.496323 133.539271 
L 196.863579 133.021056 
L 197.230835 115.22737 
L 197.598091 124.622674 
L 197.965348 144.966713 
L 198.332604 108.016558 
L 198.69986 118.387418 
L 199.067116 114.47124 
L 199.434373 123.421445 
L 200.168885 115.831101 
L 200.536142 147.27848 
L 201.270654 136.365079 
L 201.63791 140.359427 
L 202.005167 132.759313 
L 202.739679 142.235595 
L 203.106935 134.32635 
L 203.474192 129.548772 
L 203.841448 136.695734 
L 204.208704 125.890514 
L 204.575961 105.360705 
L 204.943217 105.70988 
L 205.310473 114.872183 
L 205.677729 92.85165 
L 206.044986 119.261241 
L 206.412242 116.211167 
L 206.779498 115.847918 
L 207.146754 134.78024 
L 207.881267 112.908087 
L 208.248523 127.602288 
L 208.61578 135.154847 
L 208.983036 110.876209 
L 209.350292 114.458005 
L 209.717548 130.291744 
L 210.084805 107.790547 
L 210.819317 131.689456 
L 211.186573 108.294122 
L 211.55383 65.902046 
L 211.921086 71.160383 
L 212.288342 116.375479 
L 212.655599 78.48557 
L 213.022855 86.511669 
L 213.390111 100.604 
L 213.757367 106.415322 
L 214.124624 96.448262 
L 214.49188 92.848195 
L 214.859136 98.237651 
L 215.226392 88.658863 
L 215.593649 96.392704 
L 215.960905 113.243178 
L 216.328161 114.965926 
L 216.695418 130.224772 
L 217.062674 104.577646 
L 217.42993 110.384937 
L 217.797186 101.369452 
L 218.164443 101.609478 
L 218.898955 153.633449 
L 219.266211 132.460368 
L 219.633468 127.364709 
L 220.000724 120.67709 
L 220.36798 125.559953 
L 220.735237 150.221908 
L 221.102493 149.61691 
L 221.469749 146.274646 
L 222.204262 125.942584 
L 222.571518 139.543678 
L 222.938774 139.479355 
L 223.30603 159.138148 
L 223.673287 150.729159 
L 224.040543 148.828875 
L 224.407799 144.017229 
L 224.775056 155.448063 
L 225.142312 145.114421 
L 225.509568 141.898128 
L 225.876824 141.468387 
L 226.244081 115.548884 
L 226.611337 148.659137 
L 226.978593 134.403022 
L 227.345849 133.777762 
L 227.713106 108.592695 
L 228.080362 141.131221 
L 228.447618 143.951791 
L 228.814875 134.904299 
L 229.182131 141.84052 
L 229.549387 143.997635 
L 229.916643 132.256446 
L 230.2839 126.417464 
L 230.651156 135.197317 
L 231.018412 134.061408 
L 231.385668 124.394771 
L 231.752925 129.16548 
L 232.120181 127.444666 
L 232.487437 132.980149 
L 232.854694 130.010428 
L 233.589206 92.888186 
L 233.956462 114.71832 
L 234.323719 81.562516 
L 234.690975 148.381137 
L 235.058231 119.903386 
L 235.425487 116.71215 
L 235.792744 139.33979 
L 236.16 120.197395 
L 236.527256 119.819794 
L 236.894513 97.401361 
L 237.261769 127.68776 
L 237.629025 128.862796 
L 237.996281 121.567755 
L 238.363538 120.216988 
L 238.730794 117.377929 
L 239.465306 78.607752 
L 239.832563 114.503934 
L 240.199819 127.250371 
L 240.567075 130.338898 
L 240.934332 141.882756 
L 241.301588 149.194897 
L 241.668844 114.188697 
L 242.0361 122.604547 
L 242.403357 124.723465 
L 242.770613 132.861874 
L 243.137869 127.254983 
L 243.505125 123.901673 
L 243.872382 71.819514 
L 244.239638 132.775633 
L 244.606894 128.502173 
L 244.974151 141.024996 
L 245.341407 120.571562 
L 245.708663 141.502242 
L 246.075919 127.389753 
L 246.443176 119.99511 
L 246.810432 129.330546 
L 247.177688 121.859356 
L 247.544944 125.817656 
L 247.912201 122.270743 
L 248.279457 125.119638 
L 248.646713 120.159919 
L 249.01397 133.201487 
L 249.381226 126.768335 
L 249.748482 132.358059 
L 250.115738 106.631013 
L 250.482995 105.86869 
L 250.850251 119.177306 
L 251.217507 112.577767 
L 251.584763 132.6906 
L 251.95202 125.95122 
L 252.319276 121.343033 
L 252.686532 136.824178 
L 253.053789 127.89746 
L 253.788301 94.993326 
L 254.155557 117.774604 
L 254.522814 110.449534 
L 254.89007 99.554124 
L 255.257326 97.568256 
L 255.624582 94.27199 
L 255.991839 100.122931 
L 256.359095 91.669728 
L 256.726351 99.973353 
L 257.093608 105.467103 
L 257.460864 115.063218 
L 257.82812 96.076364 
L 258.195376 106.869848 
L 258.562633 101.330387 
L 258.929889 119.352111 
L 259.297145 115.709812 
L 259.664401 116.356737 
L 260.031658 118.706198 
L 260.398914 89.846797 
L 260.76617 109.250084 
L 261.133427 103.125144 
L 261.500683 111.705774 
L 261.867939 69.11128 
L 262.235195 93.355963 
L 262.602452 101.828306 
L 262.969708 99.013609 
L 263.336964 89.96641 
L 263.70422 93.876272 
L 264.071477 79.605 
L 264.438733 80.233928 
L 264.805989 71.765657 
L 265.173246 72.327176 
L 265.540502 110.709424 
L 265.907758 84.432449 
L 266.275014 87.588854 
L 267.009527 103.507219 
L 267.376783 109.225462 
L 267.744039 93.717404 
L 268.111296 105.361734 
L 268.478552 123.271568 
L 268.845808 108.136081 
L 269.213065 132.772726 
L 269.580321 124.686403 
L 269.947577 107.050296 
L 270.314833 127.20772 
L 270.68209 100.239432 
L 271.049346 125.930308 
L 271.416602 123.276273 
L 271.783858 137.328481 
L 272.151115 131.696211 
L 272.518371 113.985125 
L 272.885627 131.625967 
L 273.252884 122.447287 
L 273.62014 110.474213 
L 273.987396 136.292108 
L 274.354652 109.792743 
L 274.721909 147.317764 
L 275.089165 138.553635 
L 275.456421 139.577331 
L 275.823677 107.960002 
L 276.190934 99.53023 
L 276.55819 127.488602 
L 276.925446 111.771133 
L 277.292703 127.398065 
L 277.659959 134.03427 
L 278.027215 143.222792 
L 278.394471 119.248556 
L 278.761728 84.34526 
L 279.128984 122.435914 
L 279.49624 120.75264 
L 279.863497 126.100409 
L 280.598009 132.488146 
L 280.965265 131.007944 
L 281.332522 132.385899 
L 281.699778 121.376728 
L 282.067034 106.251621 
L 282.43429 131.219354 
L 282.801547 126.525865 
L 283.168803 124.036838 
L 283.536059 118.249644 
L 283.903316 97.84743 
L 284.270572 133.34028 
L 284.637828 112.953299 
L 285.005084 133.108287 
L 285.372341 129.858416 
L 285.739597 137.273231 
L 286.106853 148.992578 
L 286.474109 120.011654 
L 286.841366 112.54835 
L 287.208622 122.581494 
L 287.575878 106.690606 
L 287.943135 112.347487 
L 288.310391 132.133308 
L 289.044903 139.416741 
L 289.779416 135.200957 
L 290.146672 141.827736 
L 290.513928 156.272084 
L 290.881185 113.768999 
L 291.248441 132.476347 
L 291.615697 127.77978 
L 291.982954 137.631945 
L 292.35021 132.783207 
L 292.717466 135.246363 
L 293.084722 147.524906 
L 293.451979 146.756871 
L 293.819235 111.76929 
L 294.186491 89.593856 
L 294.553747 134.128837 
L 294.921004 108.897317 
L 295.28826 129.424348 
L 296.022773 113.469499 
L 296.390029 111.871218 
L 296.757285 115.432736 
L 297.124541 106.749419 
L 297.491798 111.19387 
L 297.859054 125.671658 
L 298.22631 124.76646 
L 298.593566 116.409911 
L 298.960823 131.922647 
L 299.328079 106.111949 
L 299.695335 106.788138 
L 300.429848 117.768803 
L 300.797104 140.980927 
L 301.16436 113.160642 
L 301.531617 134.530079 
L 301.898873 133.969041 
L 302.266129 138.103575 
L 302.633385 130.94216 
L 303.000642 105.935784 
L 303.367898 132.332925 
L 303.735154 124.123657 
L 304.836923 159.172264 
L 305.571436 129.946696 
L 306.305948 119.412633 
L 307.040461 135.604667 
L 307.407717 119.982539 
L 307.774973 118.218131 
L 308.14223 117.413164 
L 308.509486 130.777432 
L 308.876742 135.515602 
L 309.243998 102.079286 
L 309.611255 138.689313 
L 310.345767 113.393215 
L 310.713023 134.572828 
L 311.08028 130.727303 
L 311.447536 141.799586 
L 311.814792 88.452634 
L 312.182049 136.84208 
L 312.549305 155.940695 
L 312.916561 145.903911 
L 313.283817 144.930233 
L 313.651074 135.163274 
L 314.01833 146.410683 
L 314.385586 142.536428 
L 314.752842 140.568354 
L 315.120099 130.333215 
L 315.487355 154.830675 
L 315.854611 127.25142 
L 316.221868 144.60275 
L 316.589124 151.82044 
L 316.95638 128.251955 
L 317.323636 139.337633 
L 317.690893 123.19329 
L 318.058149 131.856877 
L 318.425405 112.942246 
L 318.792661 112.776054 
L 319.159918 128.84005 
L 319.89443 146.096416 
L 320.261687 148.946914 
L 320.628943 148.27112 
L 320.996199 148.203022 
L 321.363455 111.516735 
L 321.730712 133.398212 
L 322.097968 139.321967 
L 322.465224 123.79468 
L 322.83248 125.423532 
L 323.199737 131.147321 
L 323.566993 125.688806 
L 323.934249 137.670339 
L 324.301506 105.542745 
L 324.668762 131.857343 
L 325.036018 141.421652 
L 325.403274 111.79507 
L 325.770531 141.814515 
L 326.137787 128.145475 
L 326.505043 133.580297 
L 326.872299 119.16355 
L 327.239556 121.780025 
L 327.606812 133.118656 
L 327.974068 128.424115 
L 328.341325 116.725236 
L 328.708581 131.549395 
L 329.075837 140.516937 
L 329.443093 138.293284 
L 329.81035 134.227038 
L 330.177606 133.684562 
L 330.544862 142.934327 
L 330.912118 137.019705 
L 331.279375 151.40458 
L 331.646631 130.204358 
L 332.013887 127.64444 
L 332.381144 132.483734 
L 332.7484 102.606084 
L 333.115656 114.437146 
L 333.482912 119.275817 
L 333.850169 132.994298 
L 334.217425 129.39548 
L 334.584681 117.74416 
L 334.951937 121.063348 
L 335.319194 117.518131 
L 335.68645 111.160355 
L 336.053706 119.031514 
L 336.420963 95.1254 
L 336.788219 107.153241 
L 337.155475 139.808321 
L 337.889988 97.796703 
L 338.257244 121.730374 
L 338.6245 102.896268 
L 338.991756 148.927808 
L 339.359013 138.695856 
L 339.726269 140.315672 
L 340.093525 123.453315 
L 340.828038 117.589346 
L 341.56255 155.012857 
L 341.929807 116.838418 
L 342.297063 124.615344 
L 342.664319 106.727383 
L 343.031575 126.082545 
L 343.398832 135.972206 
L 343.766088 149.475196 
L 344.133344 130.614267 
L 344.500601 134.395808 
L 344.867857 128.978895 
L 345.235113 127.401822 
L 345.602369 113.442878 
L 345.969626 118.936199 
L 346.336882 132.454788 
L 346.704138 126.721676 
L 347.071394 136.855271 
L 347.438651 120.546849 
L 347.805907 127.899324 
L 348.173163 94.180676 
L 348.54042 133.089925 
L 348.907676 104.294574 
L 349.274932 135.163587 
L 349.642188 128.91938 
L 350.009445 145.982852 
L 350.376701 126.783279 
L 350.743957 121.206424 
L 351.111213 109.51274 
L 351.47847 126.956933 
L 351.845726 119.723172 
L 352.212982 125.895168 
L 352.580239 121.522171 
L 352.947495 131.273991 
L 353.314751 120.051597 
L 353.682007 120.846471 
L 354.049264 111.610358 
L 354.41652 122.084045 
L 354.783776 127.319486 
L 355.151032 136.550013 
L 355.518289 123.144002 
L 355.885545 137.246502 
L 356.252801 98.485794 
L 356.620058 109.422643 
L 356.987314 132.281084 
L 357.35457 115.602546 
L 358.456339 136.160028 
L 358.823595 126.648226 
L 359.190852 131.68883 
L 359.558108 116.092806 
L 359.925364 122.397279 
L 360.29262 113.863035 
L 360.659877 129.903519 
L 361.027133 95.586449 
L 361.761645 123.733203 
L 362.128902 124.928196 
L 362.496158 117.736022 
L 362.863414 113.220972 
L 363.230671 113.512554 
L 363.597927 120.855802 
L 363.965183 86.885139 
L 364.332439 100.548713 
L 364.699696 108.609796 
L 365.066952 79.520186 
L 365.434208 101.870235 
L 365.801464 87.51745 
L 366.168721 123.483299 
L 366.535977 128.843215 
L 366.903233 102.878081 
L 367.27049 118.133559 
L 367.637746 104.504398 
L 368.005002 110.183773 
L 368.372258 100.862548 
L 369.106771 123.96869 
L 369.474027 97.04699 
L 369.841283 109.056964 
L 370.20854 79.979701 
L 370.575796 115.406207 
L 370.943052 102.334188 
L 371.310309 102.186299 
L 371.677565 119.812142 
L 372.044821 126.407754 
L 372.412077 100.507786 
L 372.779334 123.564919 
L 373.14659 139.100414 
L 373.513846 138.415916 
L 373.881102 107.4005 
L 374.248359 118.202015 
L 374.615615 137.600839 
L 374.982871 136.082644 
L 375.350128 109.873277 
L 375.717384 109.875117 
L 376.08464 102.704419 
L 376.451896 103.864189 
L 376.819153 121.39832 
L 377.186409 96.576539 
L 377.553665 109.461456 
L 377.920921 109.024838 
L 378.288178 115.133548 
L 378.655434 97.718281 
L 379.02269 111.014295 
L 379.389947 85.976199 
L 379.757203 138.897051 
L 380.124459 95.271583 
L 380.491715 91.417837 
L 380.858972 94.079115 
L 381.226228 115.291591 
L 381.593484 111.570422 
L 381.96074 93.824909 
L 382.327997 99.097181 
L 382.695253 123.412936 
L 383.062509 114.606772 
L 383.429766 125.504888 
L 383.797022 131.891707 
L 384.164278 105.219004 
L 384.898791 130.330934 
L 385.266047 135.12226 
L 385.633303 148.84921 
L 386.000559 120.154149 
L 386.367816 104.25984 
L 386.735072 114.160575 
L 387.469585 107.735813 
L 387.836841 132.366063 
L 388.204097 117.8474 
L 388.571353 139.84895 
L 388.93861 114.721125 
L 389.305866 114.733766 
L 389.673122 132.686874 
L 390.040378 104.608894 
L 390.407635 110.967306 
L 391.142147 102.321435 
L 391.509404 129.701335 
L 391.87666 106.299011 
L 392.243916 124.409097 
L 392.611172 104.706162 
L 392.978429 112.245135 
L 393.345685 111.635803 
L 393.712941 112.374471 
L 394.080197 76.349717 
L 394.447454 87.566713 
L 394.81471 95.369031 
L 395.181966 92.708583 
L 395.549223 60.264537 
L 395.916479 67.040107 
L 396.283735 95.001343 
L 396.650991 60.54225 
L 397.018248 88.404023 
L 397.385504 64.087076 
L 397.75276 54.450395 
L 398.120016 53.568 
L 398.487273 62.348132 
L 398.487273 62.348132 
" style="fill:none;stroke:#ff0000;stroke-linecap:square;stroke-width:1.5;"/>
   </g>
   <g id="patch_3">
    <path d="M 57.6 307.584 
L 57.6 41.472 
" style="fill:none;stroke:#000000;stroke-linecap:square;stroke-linejoin:miter;stroke-width:0.8;"/>
   </g>
   <g id="patch_4">
    <path d="M 414.72 307.584 
L 414.72 41.472 
" style="fill:none;stroke:#000000;stroke-linecap:square;stroke-linejoin:miter;stroke-width:0.8;"/>
   </g>
   <g id="patch_5">
    <path d="M 57.6 307.584 
L 414.72 307.584 
" style="fill:none;stroke:#000000;stroke-linecap:square;stroke-linejoin:miter;stroke-width:0.8;"/>
   </g>
   <g id="patch_6">
    <path d="M 57.6 41.472 
L 414.72 41.472 
" style="fill:none;stroke:#000000;stroke-linecap:square;stroke-linejoin:miter;stroke-width:0.8;"/>
   </g>
   <g id="text_9">
    <!-- Population's average and best fitness -->
    <g transform="translate(123.529687 35.472)scale(0.12 -0.12)">
     <defs>
      <path d="M 19.671875 64.796875 
L 19.671875 37.40625 
L 32.078125 37.40625 
Q 38.96875 37.40625 42.71875 40.96875 
Q 46.484375 44.53125 46.484375 51.125 
Q 46.484375 57.671875 42.71875 61.234375 
Q 38.96875 64.796875 32.078125 64.796875 
z
M 9.8125 72.90625 
L 32.078125 72.90625 
Q 44.34375 72.90625 50.609375 67.359375 
Q 56.890625 61.8125 56.890625 51.125 
Q 56.890625 40.328125 50.609375 34.8125 
Q 44.34375 29.296875 32.078125 29.296875 
L 19.671875 29.296875 
L 19.671875 0 
L 9.8125 0 
z
" id="DejaVuSans-80"/>
      <path d="M 18.109375 8.203125 
L 18.109375 -20.796875 
L 9.078125 -20.796875 
L 9.078125 54.6875 
L 18.109375 54.6875 
L 18.109375 46.390625 
Q 20.953125 51.265625 25.265625 53.625 
Q 29.59375 56 35.59375 56 
Q 45.5625 56 51.78125 48.09375 
Q 58.015625 40.1875 58.015625 27.296875 
Q 58.015625 14.40625 51.78125 6.484375 
Q 45.5625 -1.421875 35.59375 -1.421875 
Q 29.59375 -1.421875 25.265625 0.953125 
Q 20.953125 3.328125 18.109375 8.203125 
z
M 48.6875 27.296875 
Q 48.6875 37.203125 44.609375 42.84375 
Q 40.53125 48.484375 33.40625 48.484375 
Q 26.265625 48.484375 22.1875 42.84375 
Q 18.109375 37.203125 18.109375 27.296875 
Q 18.109375 17.390625 22.1875 11.75 
Q 26.265625 6.109375 33.40625 6.109375 
Q 40.53125 6.109375 44.609375 11.75 
Q 48.6875 17.390625 48.6875 27.296875 
z
" id="DejaVuSans-112"/>
      <path d="M 8.5 21.578125 
L 8.5 54.6875 
L 17.484375 54.6875 
L 17.484375 21.921875 
Q 17.484375 14.15625 20.5 10.265625 
Q 23.53125 6.390625 29.59375 6.390625 
Q 36.859375 6.390625 41.078125 11.03125 
Q 45.3125 15.671875 45.3125 23.6875 
L 45.3125 54.6875 
L 54.296875 54.6875 
L 54.296875 0 
L 45.3125 0 
L 45.3125 8.40625 
Q 42.046875 3.421875 37.71875 1 
Q 33.40625 -1.421875 27.6875 -1.421875 
Q 18.265625 -1.421875 13.375 4.4375 
Q 8.5 10.296875 8.5 21.578125 
z
M 31.109375 56 
z
" id="DejaVuSans-117"/>
      <path d="M 9.421875 75.984375 
L 18.40625 75.984375 
L 18.40625 0 
L 9.421875 0 
z
" id="DejaVuSans-108"/>
      <path d="M 17.921875 72.90625 
L 17.921875 45.796875 
L 9.625 45.796875 
L 9.625 72.90625 
z
" id="DejaVuSans-39"/>
      <path id="DejaVuSans-32"/>
      <path d="M 2.984375 54.6875 
L 12.5 54.6875 
L 29.59375 8.796875 
L 46.6875 54.6875 
L 56.203125 54.6875 
L 35.6875 0 
L 23.484375 0 
z
" id="DejaVuSans-118"/>
      <path d="M 45.40625 27.984375 
Q 45.40625 37.75 41.375 43.109375 
Q 37.359375 48.484375 30.078125 48.484375 
Q 22.859375 48.484375 18.828125 43.109375 
Q 14.796875 37.75 14.796875 27.984375 
Q 14.796875 18.265625 18.828125 12.890625 
Q 22.859375 7.515625 30.078125 7.515625 
Q 37.359375 7.515625 41.375 12.890625 
Q 45.40625 18.265625 45.40625 27.984375 
z
M 54.390625 6.78125 
Q 54.390625 -7.171875 48.1875 -13.984375 
Q 42 -20.796875 29.203125 -20.796875 
Q 24.46875 -20.796875 20.265625 -20.09375 
Q 16.0625 -19.390625 12.109375 -17.921875 
L 12.109375 -9.1875 
Q 16.0625 -11.328125 19.921875 -12.34375 
Q 23.78125 -13.375 27.78125 -13.375 
Q 36.625 -13.375 41.015625 -8.765625 
Q 45.40625 -4.15625 45.40625 5.171875 
L 45.40625 9.625 
Q 42.625 4.78125 38.28125 2.390625 
Q 33.9375 0 27.875 0 
Q 17.828125 0 11.671875 7.65625 
Q 5.515625 15.328125 5.515625 27.984375 
Q 5.515625 40.671875 11.671875 48.328125 
Q 17.828125 56 27.875 56 
Q 33.9375 56 38.28125 53.609375 
Q 42.625 51.21875 45.40625 46.390625 
L 45.40625 54.6875 
L 54.390625 54.6875 
z
" id="DejaVuSans-103"/>
      <path d="M 45.40625 46.390625 
L 45.40625 75.984375 
L 54.390625 75.984375 
L 54.390625 0 
L 45.40625 0 
L 45.40625 8.203125 
Q 42.578125 3.328125 38.25 0.953125 
Q 33.9375 -1.421875 27.875 -1.421875 
Q 17.96875 -1.421875 11.734375 6.484375 
Q 5.515625 14.40625 5.515625 27.296875 
Q 5.515625 40.1875 11.734375 48.09375 
Q 17.96875 56 27.875 56 
Q 33.9375 56 38.25 53.625 
Q 42.578125 51.265625 45.40625 46.390625 
z
M 14.796875 27.296875 
Q 14.796875 17.390625 18.875 11.75 
Q 22.953125 6.109375 30.078125 6.109375 
Q 37.203125 6.109375 41.296875 11.75 
Q 45.40625 17.390625 45.40625 27.296875 
Q 45.40625 37.203125 41.296875 42.84375 
Q 37.203125 48.484375 30.078125 48.484375 
Q 22.953125 48.484375 18.875 42.84375 
Q 14.796875 37.203125 14.796875 27.296875 
z
" id="DejaVuSans-100"/>
      <path d="M 48.6875 27.296875 
Q 48.6875 37.203125 44.609375 42.84375 
Q 40.53125 48.484375 33.40625 48.484375 
Q 26.265625 48.484375 22.1875 42.84375 
Q 18.109375 37.203125 18.109375 27.296875 
Q 18.109375 17.390625 22.1875 11.75 
Q 26.265625 6.109375 33.40625 6.109375 
Q 40.53125 6.109375 44.609375 11.75 
Q 48.6875 17.390625 48.6875 27.296875 
z
M 18.109375 46.390625 
Q 20.953125 51.265625 25.265625 53.625 
Q 29.59375 56 35.59375 56 
Q 45.5625 56 51.78125 48.09375 
Q 58.015625 40.1875 58.015625 27.296875 
Q 58.015625 14.40625 51.78125 6.484375 
Q 45.5625 -1.421875 35.59375 -1.421875 
Q 29.59375 -1.421875 25.265625 0.953125 
Q 20.953125 3.328125 18.109375 8.203125 
L 18.109375 0 
L 9.078125 0 
L 9.078125 75.984375 
L 18.109375 75.984375 
z
" id="DejaVuSans-98"/>
      <path d="M 37.109375 75.984375 
L 37.109375 68.5 
L 28.515625 68.5 
Q 23.6875 68.5 21.796875 66.546875 
Q 19.921875 64.59375 19.921875 59.515625 
L 19.921875 54.6875 
L 34.71875 54.6875 
L 34.71875 47.703125 
L 19.921875 47.703125 
L 19.921875 0 
L 10.890625 0 
L 10.890625 47.703125 
L 2.296875 47.703125 
L 2.296875 54.6875 
L 10.890625 54.6875 
L 10.890625 58.5 
Q 10.890625 67.625 15.140625 71.796875 
Q 19.390625 75.984375 28.609375 75.984375 
z
" id="DejaVuSans-102"/>
     </defs>
     <use xlink:href="#DejaVuSans-80"/>
     <use x="56.677734" xlink:href="#DejaVuSans-111"/>
     <use x="117.859375" xlink:href="#DejaVuSans-112"/>
     <use x="181.335938" xlink:href="#DejaVuSans-117"/>
     <use x="244.714844" xlink:href="#DejaVuSans-108"/>
     <use x="272.498047" xlink:href="#DejaVuSans-97"/>
     <use x="333.777344" xlink:href="#DejaVuSans-116"/>
     <use x="372.986328" xlink:href="#DejaVuSans-105"/>
     <use x="400.769531" xlink:href="#DejaVuSans-111"/>
     <use x="461.951172" xlink:href="#DejaVuSans-110"/>
     <use x="525.330078" xlink:href="#DejaVuSans-39"/>
     <use x="552.820312" xlink:href="#DejaVuSans-115"/>
     <use x="604.919922" xlink:href="#DejaVuSans-32"/>
     <use x="636.707031" xlink:href="#DejaVuSans-97"/>
     <use x="697.986328" xlink:href="#DejaVuSans-118"/>
     <use x="757.166016" xlink:href="#DejaVuSans-101"/>
     <use x="818.689453" xlink:href="#DejaVuSans-114"/>
     <use x="859.802734" xlink:href="#DejaVuSans-97"/>
     <use x="921.082031" xlink:href="#DejaVuSans-103"/>
     <use x="984.558594" xlink:href="#DejaVuSans-101"/>
     <use x="1046.082031" xlink:href="#DejaVuSans-32"/>
     <use x="1077.869141" xlink:href="#DejaVuSans-97"/>
     <use x="1139.148438" xlink:href="#DejaVuSans-110"/>
     <use x="1202.527344" xlink:href="#DejaVuSans-100"/>
     <use x="1266.003906" xlink:href="#DejaVuSans-32"/>
     <use x="1297.791016" xlink:href="#DejaVuSans-98"/>
     <use x="1361.267578" xlink:href="#DejaVuSans-101"/>
     <use x="1422.791016" xlink:href="#DejaVuSans-115"/>
     <use x="1474.890625" xlink:href="#DejaVuSans-116"/>
     <use x="1514.099609" xlink:href="#DejaVuSans-32"/>
     <use x="1545.886719" xlink:href="#DejaVuSans-102"/>
     <use x="1581.091797" xlink:href="#DejaVuSans-105"/>
     <use x="1608.875" xlink:href="#DejaVuSans-116"/>
     <use x="1648.083984" xlink:href="#DejaVuSans-110"/>
     <use x="1711.462891" xlink:href="#DejaVuSans-101"/>
     <use x="1772.986328" xlink:href="#DejaVuSans-115"/>
     <use x="1825.085938" xlink:href="#DejaVuSans-115"/>
    </g>
   </g>
   <g id="legend_1">
    <g id="patch_7">
     <path d="M 64.6 78.82825 
L 137.540625 78.82825 
Q 139.540625 78.82825 139.540625 76.82825 
L 139.540625 48.472 
Q 139.540625 46.472 137.540625 46.472 
L 64.6 46.472 
Q 62.6 46.472 62.6 48.472 
L 62.6 76.82825 
Q 62.6 78.82825 64.6 78.82825 
z
" style="fill:#ffffff;opacity:0.8;stroke:#cccccc;stroke-linejoin:miter;"/>
    </g>
    <g id="line2d_15">
     <path d="M 66.6 54.570437 
L 86.6 54.570437 
" style="fill:none;stroke:#0000ff;stroke-linecap:square;stroke-width:1.5;"/>
    </g>
    <g id="line2d_16"/>
    <g id="text_10">
     <!-- average -->
     <g transform="translate(94.6 58.070437)scale(0.1 -0.1)">
      <use xlink:href="#DejaVuSans-97"/>
      <use x="61.279297" xlink:href="#DejaVuSans-118"/>
      <use x="120.458984" xlink:href="#DejaVuSans-101"/>
      <use x="181.982422" xlink:href="#DejaVuSans-114"/>
      <use x="223.095703" xlink:href="#DejaVuSans-97"/>
      <use x="284.375" xlink:href="#DejaVuSans-103"/>
      <use x="347.851562" xlink:href="#DejaVuSans-101"/>
     </g>
    </g>
    <g id="line2d_17">
     <path d="M 66.6 69.248562 
L 86.6 69.248562 
" style="fill:none;stroke:#ff0000;stroke-linecap:square;stroke-width:1.5;"/>
    </g>
    <g id="line2d_18"/>
    <g id="text_11">
     <!-- best -->
     <g transform="translate(94.6 72.748562)scale(0.1 -0.1)">
      <use xlink:href="#DejaVuSans-98"/>
      <use x="63.476562" xlink:href="#DejaVuSans-101"/>
      <use x="125" xlink:href="#DejaVuSans-115"/>
      <use x="177.099609" xlink:href="#DejaVuSans-116"/>
     </g>
    </g>
   </g>
  </g>
 </g>
 <defs>
  <clipPath id="p1031c25bab">
   <rect height="266.112" width="357.12" x="57.6" y="41.472"/>
  </clipPath>
 </defs>
</svg>
