<?xml version="1.0" encoding="UTF-8" standalone="no"?>
<!DOCTYPE svg PUBLIC "-//W3C//DTD SVG 1.1//EN"
 "http://www.w3.org/Graphics/SVG/1.1/DTD/svg11.dtd">
<!-- Generated by graphviz version 2.40.1 (20161225.0304)
 -->
<!-- Title: %3 Pages: 1 -->
<svg width="1000pt" height="213pt"
 viewBox="0.00 0.00 999.94 212.55" xmlns="http://www.w3.org/2000/svg" xmlns:xlink="http://www.w3.org/1999/xlink">
<g id="graph0" class="graph" transform="scale(1 1) rotate(0) translate(4 208.5513)">
<title>%3</title>
<polygon fill="#ffffff" stroke="transparent" points="-4,4 -4,-208.5513 995.9404,-208.5513 995.9404,4 -4,4"/>
<!-- x&#45;vel -->
<g id="node1" class="node">
<title>x&#45;vel</title>
<polygon fill="#d3d3d3" stroke="#000000" points="226.1283,-204.5513 191.1283,-204.5513 191.1283,-186.5513 226.1283,-186.5513 226.1283,-204.5513"/>
<text text-anchor="middle" x="208.6283" y="-193.3513" font-family="Times,serif" font-size="9.00" fill="#000000">x&#45;vel</text>
</g>
<!-- none -->
<g id="node13" class="node">
<title>none</title>
<ellipse fill="#add8e6" stroke="#000000" cx="534.6283" cy="-36.0624" rx="24.0833" ry="24.0833"/>
<text text-anchor="middle" x="534.6283" y="-33.8624" font-family="Times,serif" font-size="9.00" fill="#000000">none</text>
</g>
<!-- x&#45;vel&#45;&gt;none -->
<g id="edge17" class="edge">
<title>x&#45;vel&#45;&gt;none</title>
<path fill="none" stroke="#00ff00" stroke-width=".2357" stroke-dasharray="1,5" d="M226.304,-194.0321C257.9908,-190.6258 325.6312,-180.198 373.6283,-150.5513 395.165,-137.2486 392.0276,-124.1437 411.6283,-108.1249 440.3017,-84.6914 477.4753,-64.0333 503.4177,-50.9113"/>
<polygon fill="#00ff00" stroke="#00ff00" stroke-width=".2357" points="505.037,-54.015 512.4308,-46.4267 501.9186,-47.7479 505.037,-54.015"/>
</g>
<!-- left -->
<g id="node15" class="node">
<title>left</title>
<ellipse fill="#add8e6" stroke="#000000" cx="190.6283" cy="-36.0624" rx="19.6" ry="19.6"/>
<text text-anchor="middle" x="190.6283" y="-33.8624" font-family="Times,serif" font-size="9.00" fill="#000000">left</text>
</g>
<!-- x&#45;vel&#45;&gt;left -->
<g id="edge23" class="edge">
<title>x&#45;vel&#45;&gt;left</title>
<path fill="none" stroke="#ff0000" stroke-width=".1397" d="M191.1044,-194.308C146.8244,-190.7658 32.3488,-178.9832 9.6283,-150.5513 -36.5608,-92.7513 98.4143,-55.6337 160.8235,-41.968"/>
<polygon fill="#ff0000" stroke="#ff0000" stroke-width=".1397" points="161.8228,-45.3339 170.8772,-39.8323 160.3681,-38.4867 161.8228,-45.3339"/>
</g>
<!-- backward -->
<g id="node17" class="node">
<title>backward</title>
<ellipse fill="#add8e6" stroke="#000000" cx="335.6283" cy="-36.0624" rx="36.125" ry="36.125"/>
<text text-anchor="middle" x="335.6283" y="-33.8624" font-family="Times,serif" font-size="9.00" fill="#000000">backward</text>
</g>
<!-- x&#45;vel&#45;&gt;backward -->
<g id="edge19" class="edge">
<title>x&#45;vel&#45;&gt;backward</title>
<path fill="none" stroke="#ff0000" stroke-width=".3083" d="M191.0793,-191.9798C159.1644,-185.0899 93.7004,-169.0034 80.6283,-150.5513 69.7281,-135.1649 69.0868,-123.0363 80.6283,-108.1249 119.6887,-57.6593 158.2522,-89.6024 219.6283,-72.1249 243.5499,-65.313 270.0501,-57.1236 291.676,-50.2717"/>
<polygon fill="#ff0000" stroke="#ff0000" stroke-width=".3083" points="292.7746,-53.5951 301.2424,-47.2275 290.6519,-46.9247 292.7746,-53.5951"/>
</g>
<!-- 106 -->
<g id="node18" class="node">
<title>106</title>
<ellipse fill="#ffffff" stroke="#000000" cx="441.6283" cy="-129.3381" rx="21.4286" ry="21.4286"/>
<text text-anchor="middle" x="441.6283" y="-127.1381" font-family="Times,serif" font-size="9.00" fill="#000000">106</text>
</g>
<!-- x&#45;vel&#45;&gt;106 -->
<g id="edge32" class="edge">
<title>x&#45;vel&#45;&gt;106</title>
<path fill="none" stroke="#00ff00" stroke-width=".2378" d="M226.1415,-193.4924C261.3744,-188.9392 342.8985,-176.3153 406.6283,-150.5513 409.5,-149.3904 412.4086,-148.0097 415.2582,-146.5177"/>
<polygon fill="#00ff00" stroke="#00ff00" stroke-width=".2378" points="417.0914,-149.5015 424.0428,-141.5059 413.6225,-143.4214 417.0914,-149.5015"/>
</g>
<!-- y&#45;vel -->
<g id="node2" class="node">
<title>y&#45;vel</title>
<polygon fill="#d3d3d3" stroke="#000000" points="756.1283,-138.3381 721.1283,-138.3381 721.1283,-120.3381 756.1283,-120.3381 756.1283,-138.3381"/>
<text text-anchor="middle" x="738.6283" y="-127.1381" font-family="Times,serif" font-size="9.00" fill="#000000">y&#45;vel</text>
</g>
<!-- y&#45;vel&#45;&gt;none -->
<g id="edge29" class="edge">
<title>y&#45;vel&#45;&gt;none</title>
<path fill="none" stroke="#ff0000" stroke-width=".3944" d="M728.3462,-120.1493C723.5013,-116.1186 717.5044,-111.5386 711.6283,-108.1249 664.0334,-80.4748 603.791,-58.3978 567.2824,-46.2829"/>
<polygon fill="#ff0000" stroke="#ff0000" stroke-width=".3944" points="568.2372,-42.9128 557.6447,-43.1337 566.063,-49.5666 568.2372,-42.9128"/>
</g>
<!-- right -->
<g id="node14" class="node">
<title>right</title>
<ellipse fill="#add8e6" stroke="#000000" cx="673.6283" cy="-36.0624" rx="23.1702" ry="23.1702"/>
<text text-anchor="middle" x="673.6283" y="-33.8624" font-family="Times,serif" font-size="9.00" fill="#000000">right</text>
</g>
<!-- y&#45;vel&#45;&gt;right -->
<g id="edge18" class="edge">
<title>y&#45;vel&#45;&gt;right</title>
<path fill="none" stroke="#ff0000" stroke-width=".5348" d="M732.1582,-120.0535C723.0803,-107.0265 706.1829,-82.7786 692.8688,-63.6727"/>
<polygon fill="#ff0000" stroke="#ff0000" stroke-width=".5348" points="695.6335,-61.5183 687.0446,-55.315 689.8904,-65.5205 695.6335,-61.5183"/>
</g>
<!-- forward -->
<g id="node16" class="node">
<title>forward</title>
<ellipse fill="#add8e6" stroke="#000000" cx="924.6283" cy="-36.0624" rx="31.6406" ry="31.6406"/>
<text text-anchor="middle" x="924.6283" y="-33.8624" font-family="Times,serif" font-size="9.00" fill="#000000">forward</text>
</g>
<!-- y&#45;vel&#45;&gt;forward -->
<g id="edge2" class="edge">
<title>y&#45;vel&#45;&gt;forward</title>
<path fill="none" stroke="#00ff00" stroke-width=".2009" d="M756.4628,-120.3944C786.3459,-105.4086 847.1551,-74.9138 886.8747,-54.9952"/>
<polygon fill="#00ff00" stroke="#00ff00" stroke-width=".2009" points="888.6241,-58.0334 895.9941,-50.422 885.4861,-51.7761 888.6241,-58.0334"/>
</g>
<!-- y&#45;vel&#45;&gt;backward -->
<g id="edge16" class="edge">
<title>y&#45;vel&#45;&gt;backward</title>
<path fill="none" stroke="#00ff00" stroke-width=".3101" d="M729.3999,-120.1963C724.5075,-115.8703 718.1663,-111.0278 711.6283,-108.1249 625.0811,-69.6971 594.5858,-90.1808 501.6283,-72.1249 460.5682,-64.1495 414.053,-53.9423 380.7299,-46.4241"/>
<polygon fill="#00ff00" stroke="#00ff00" stroke-width=".3101" points="381.3585,-42.9779 370.8324,-44.1827 379.8123,-49.8051 381.3585,-42.9779"/>
</g>
<!-- x&#45;pos -->
<g id="node3" class="node">
<title>x&#45;pos</title>
<polygon fill="#d3d3d3" stroke="#000000" points="626.6283,-138.3381 590.6283,-138.3381 590.6283,-120.3381 626.6283,-120.3381 626.6283,-138.3381"/>
<text text-anchor="middle" x="608.6283" y="-127.1381" font-family="Times,serif" font-size="9.00" fill="#000000">x&#45;pos</text>
</g>
<!-- x&#45;pos&#45;&gt;none -->
<g id="edge8" class="edge">
<title>x&#45;pos&#45;&gt;none</title>
<path fill="none" stroke="#ff0000" stroke-width=".349" d="M601.2624,-120.0535C590.7704,-106.8285 571.1036,-82.0389 555.8446,-62.8052"/>
<polygon fill="#ff0000" stroke="#ff0000" stroke-width=".349" points="558.5715,-60.611 549.6144,-54.9522 553.0877,-64.9616 558.5715,-60.611"/>
</g>
<!-- y&#45;pos -->
<g id="node4" class="node">
<title>y&#45;pos</title>
<polygon fill="#d3d3d3" stroke="#000000" points="974.6283,-138.3381 938.6283,-138.3381 938.6283,-120.3381 974.6283,-120.3381 974.6283,-138.3381"/>
<text text-anchor="middle" x="956.6283" y="-127.1381" font-family="Times,serif" font-size="9.00" fill="#000000">y&#45;pos</text>
</g>
<!-- y&#45;pos&#45;&gt;forward -->
<g id="edge24" class="edge">
<title>y&#45;pos&#45;&gt;forward</title>
<path fill="none" stroke="#ff0000" stroke-width=".5447" stroke-dasharray="1,5" d="M953.443,-120.0535C949.9083,-109.7503 943.9655,-92.4279 938.392,-76.1819"/>
<polygon fill="#ff0000" stroke="#ff0000" stroke-width=".5447" points="941.55,-74.601 934.9943,-66.2779 934.9288,-76.8726 941.55,-74.601"/>
</g>
<!-- x&#45;lm1&#45;vec -->
<g id="node5" class="node">
<title>x&#45;lm1&#45;vec</title>
<polygon fill="#d3d3d3" stroke="#000000" points="217.1283,-138.3381 164.1283,-138.3381 164.1283,-120.3381 217.1283,-120.3381 217.1283,-138.3381"/>
<text text-anchor="middle" x="190.6283" y="-127.1381" font-family="Times,serif" font-size="9.00" fill="#000000">x&#45;lm1&#45;vec</text>
</g>
<!-- x&#45;lm1&#45;vec&#45;&gt;none -->
<g id="edge1" class="edge">
<title>x&#45;lm1&#45;vec&#45;&gt;none</title>
<path fill="none" stroke="#00ff00" stroke-width=".2137" d="M203.4051,-120.2466C209.8197,-116.0397 217.8626,-111.2857 225.6283,-108.1249 291.1326,-81.4629 311.754,-88.1874 380.6283,-72.1249 422.193,-62.4314 470.0546,-51.215 501.2449,-43.8983"/>
<polygon fill="#00ff00" stroke="#00ff00" stroke-width=".2137" points="502.214,-47.2661 511.1502,-41.5743 500.615,-40.4511 502.214,-47.2661"/>
</g>
<!-- x&#45;lm1&#45;vec&#45;&gt;left -->
<g id="edge22" class="edge">
<title>x&#45;lm1&#45;vec&#45;&gt;left</title>
<path fill="none" stroke="#ff0000" stroke-width=".3511" d="M190.6283,-120.0535C190.6283,-107.592 190.6283,-84.8629 190.6283,-66.1889"/>
<polygon fill="#ff0000" stroke="#ff0000" stroke-width=".3511" points="194.1284,-66.0473 190.6283,-56.0474 187.1284,-66.0474 194.1284,-66.0473"/>
</g>
<!-- y&#45;lm1&#45;vec -->
<g id="node6" class="node">
<title>y&#45;lm1&#45;vec</title>
<polygon fill="#d3d3d3" stroke="#000000" points="920.1283,-138.3381 867.1283,-138.3381 867.1283,-120.3381 920.1283,-120.3381 920.1283,-138.3381"/>
<text text-anchor="middle" x="893.6283" y="-127.1381" font-family="Times,serif" font-size="9.00" fill="#000000">y&#45;lm1&#45;vec</text>
</g>
<!-- y&#45;lm1&#45;vec&#45;&gt;none -->
<g id="edge27" class="edge">
<title>y&#45;lm1&#45;vec&#45;&gt;none</title>
<path fill="none" stroke="#ff0000" stroke-width=".4289" d="M880.8697,-120.2576C874.2308,-115.9473 865.8093,-111.1002 857.6283,-108.1249 766.1651,-74.861 736.0435,-95.7421 641.6283,-72.1249 616.0176,-65.7186 587.7412,-56.0725 566.6913,-48.3682"/>
<polygon fill="#ff0000" stroke="#ff0000" stroke-width=".4289" points="567.8663,-45.0711 557.2733,-44.8745 565.4316,-51.6341 567.8663,-45.0711"/>
</g>
<!-- y&#45;lm1&#45;vec&#45;&gt;forward -->
<g id="edge3" class="edge">
<title>y&#45;lm1&#45;vec&#45;&gt;forward</title>
<path fill="none" stroke="#ff0000" stroke-width=".231" d="M896.714,-120.0535C900.1383,-109.7503 905.8954,-92.4279 911.2947,-76.1819"/>
<polygon fill="#ff0000" stroke="#ff0000" stroke-width=".231" points="914.7537,-76.8714 914.5862,-66.2779 908.1109,-74.6637 914.7537,-76.8714"/>
</g>
<!-- x&#45;lm2&#45;vec -->
<g id="node7" class="node">
<title>x&#45;lm2&#45;vec</title>
<polygon fill="#d3d3d3" stroke="#000000" points="288.1283,-138.3381 235.1283,-138.3381 235.1283,-120.3381 288.1283,-120.3381 288.1283,-138.3381"/>
<text text-anchor="middle" x="261.6283" y="-127.1381" font-family="Times,serif" font-size="9.00" fill="#000000">x&#45;lm2&#45;vec</text>
</g>
<!-- x&#45;lm2&#45;vec&#45;&gt;right -->
<g id="edge13" class="edge">
<title>x&#45;lm2&#45;vec&#45;&gt;right</title>
<path fill="none" stroke="#00ff00" stroke-width=".3306" d="M274.3468,-120.1443C280.9755,-115.8052 289.3999,-110.9665 297.6283,-108.1249 412.059,-68.6075 449.761,-99.7526 567.6283,-72.1249 593.1632,-66.1396 621.2259,-56.4462 642.0591,-48.6159"/>
<polygon fill="#00ff00" stroke="#00ff00" stroke-width=".3306" points="643.571,-51.7851 651.6628,-44.946 641.0723,-45.2462 643.571,-51.7851"/>
</g>
<!-- x&#45;lm2&#45;vec&#45;&gt;left -->
<g id="edge9" class="edge">
<title>x&#45;lm2&#45;vec&#45;&gt;left</title>
<path fill="none" stroke="#ff0000" stroke-width=".8488" d="M254.561,-120.0535C244.0504,-106.2453 223.9435,-79.83 209.0734,-60.2945"/>
<polygon fill="#ff0000" stroke="#ff0000" stroke-width=".8488" points="211.7058,-57.9741 202.8639,-52.1369 206.1358,-62.2139 211.7058,-57.9741"/>
</g>
<!-- y&#45;lm2&#45;vec -->
<g id="node8" class="node">
<title>y&#45;lm2&#45;vec</title>
<polygon fill="#d3d3d3" stroke="#000000" points="534.1283,-138.3381 481.1283,-138.3381 481.1283,-120.3381 534.1283,-120.3381 534.1283,-138.3381"/>
<text text-anchor="middle" x="507.6283" y="-127.1381" font-family="Times,serif" font-size="9.00" fill="#000000">y&#45;lm2&#45;vec</text>
</g>
<!-- y&#45;lm2&#45;vec&#45;&gt;none -->
<g id="edge6" class="edge">
<title>y&#45;lm2&#45;vec&#45;&gt;none</title>
<path fill="none" stroke="#00ff00" stroke-width=".2222" d="M510.3159,-120.0535C513.7372,-108.2339 519.8324,-87.1772 525.0637,-69.1049"/>
<polygon fill="#00ff00" stroke="#00ff00" stroke-width=".2222" points="528.44,-70.0282 527.8586,-59.4494 521.7161,-68.0818 528.44,-70.0282"/>
</g>
<!-- y&#45;lm2&#45;vec&#45;&gt;right -->
<g id="edge11" class="edge">
<title>y&#45;lm2&#45;vec&#45;&gt;right</title>
<path fill="none" stroke="#ff0000" stroke-width=".1554" d="M523.8473,-120.2246C551.7811,-104.5285 609.3402,-72.186 644.4075,-52.4817"/>
<polygon fill="#ff0000" stroke="#ff0000" stroke-width=".1554" points="646.2291,-55.4729 653.2325,-47.5229 642.8,-49.3703 646.2291,-55.4729"/>
</g>
<!-- y&#45;lm2&#45;vec&#45;&gt;backward -->
<g id="edge14" class="edge">
<title>y&#45;lm2&#45;vec&#45;&gt;backward</title>
<path fill="none" stroke="#ff0000" stroke-width=".3215" d="M492.6525,-120.3092C486.2193,-116.4839 478.5931,-112.0195 471.6283,-108.1249 440.126,-90.5092 404.005,-71.4208 376.9095,-57.3179"/>
<polygon fill="#ff0000" stroke="#ff0000" stroke-width=".3215" points="378.212,-54.0506 367.7242,-52.5481 374.9859,-60.2629 378.212,-54.0506"/>
</g>
<!-- x&#45;other&#45;vec -->
<g id="node9" class="node">
<title>x&#45;other&#45;vec</title>
<polygon fill="#d3d3d3" stroke="#000000" points="702.6283,-138.3381 644.6283,-138.3381 644.6283,-120.3381 702.6283,-120.3381 702.6283,-138.3381"/>
<text text-anchor="middle" x="673.6283" y="-127.1381" font-family="Times,serif" font-size="9.00" fill="#000000">x&#45;other&#45;vec</text>
</g>
<!-- x&#45;other&#45;vec&#45;&gt;none -->
<g id="edge25" class="edge">
<title>x&#45;other&#45;vec&#45;&gt;none</title>
<path fill="none" stroke="#00ff00" stroke-width=".1548" stroke-dasharray="1,5" d="M660.0473,-120.2246C637.7604,-105.269 592.952,-75.2004 563.373,-55.3515"/>
<polygon fill="#00ff00" stroke="#00ff00" stroke-width=".1548" points="564.978,-52.2136 554.7241,-49.5477 561.0775,-58.0262 564.978,-52.2136"/>
</g>
<!-- x&#45;other&#45;vec&#45;&gt;right -->
<g id="edge7" class="edge">
<title>x&#45;other&#45;vec&#45;&gt;right</title>
<path fill="none" stroke="#00ff00" stroke-width=".4792" d="M673.6283,-120.0535C673.6283,-108.3434 673.6283,-87.5663 673.6283,-69.6076"/>
<polygon fill="#00ff00" stroke="#00ff00" stroke-width=".4792" points="677.1284,-69.4493 673.6283,-59.4494 670.1284,-69.4494 677.1284,-69.4493"/>
</g>
<!-- y&#45;other&#45;vec -->
<g id="node10" class="node">
<title>y&#45;other&#45;vec</title>
<polygon fill="#d3d3d3" stroke="#000000" points="364.6283,-138.3381 306.6283,-138.3381 306.6283,-120.3381 364.6283,-120.3381 364.6283,-138.3381"/>
<text text-anchor="middle" x="335.6283" y="-127.1381" font-family="Times,serif" font-size="9.00" fill="#000000">y&#45;other&#45;vec</text>
</g>
<!-- y&#45;other&#45;vec&#45;&gt;none -->
<g id="edge10" class="edge">
<title>y&#45;other&#45;vec&#45;&gt;none</title>
<path fill="none" stroke="#00ff00" stroke-width=".4273" d="M353.9919,-120.1503C361.595,-116.3798 370.5156,-111.999 378.6283,-108.1249 421.6897,-87.5614 471.8419,-64.5619 503.413,-50.1983"/>
<polygon fill="#00ff00" stroke="#00ff00" stroke-width=".4273" points="504.9297,-53.3536 512.586,-46.0302 502.0339,-46.9807 504.9297,-53.3536"/>
</g>
<!-- y&#45;other&#45;vec&#45;&gt;right -->
<g id="edge15" class="edge">
<title>y&#45;other&#45;vec&#45;&gt;right</title>
<path fill="none" stroke="#00ff00" stroke-width=".395" d="M364.7781,-120.8678C378.8876,-116.8534 396.097,-112.0824 411.6283,-108.1249 480.5807,-90.5555 499.1923,-91.6088 567.6283,-72.1249 592.8529,-64.9434 620.9324,-55.3147 641.8509,-47.8131"/>
<polygon fill="#00ff00" stroke="#00ff00" stroke-width=".395" points="643.2884,-51.0152 651.5008,-44.3215 640.9066,-44.4328 643.2884,-51.0152"/>
</g>
<!-- y&#45;other&#45;vec&#45;&gt;left -->
<g id="edge5" class="edge">
<title>y&#45;other&#45;vec&#45;&gt;left</title>
<path fill="none" stroke="#ff0000" stroke-width=".218" d="M321.4611,-120.2246C296.9444,-104.4535 246.3023,-71.8765 215.7146,-52.2"/>
<polygon fill="#ff0000" stroke="#ff0000" stroke-width=".218" points="217.5908,-49.2453 207.2871,-46.7787 213.8037,-55.1324 217.5908,-49.2453"/>
</g>
<!-- y&#45;other&#45;vec&#45;&gt;backward -->
<g id="edge4" class="edge">
<title>y&#45;other&#45;vec&#45;&gt;backward</title>
<path fill="none" stroke="#ff0000" stroke-width=".6873" d="M335.6283,-120.0535C335.6283,-111.0801 335.6283,-96.7825 335.6283,-82.5089"/>
<polygon fill="#ff0000" stroke="#ff0000" stroke-width=".6873" points="339.1284,-82.1961 335.6283,-72.1962 332.1284,-82.1962 339.1284,-82.1961"/>
</g>
<!-- x&#45;other&#45;vel -->
<g id="node11" class="node">
<title>x&#45;other&#45;vel</title>
<polygon fill="#d3d3d3" stroke="#000000" points="812.6283,-204.5513 756.6283,-204.5513 756.6283,-186.5513 812.6283,-186.5513 812.6283,-204.5513"/>
<text text-anchor="middle" x="784.6283" y="-193.3513" font-family="Times,serif" font-size="9.00" fill="#000000">x&#45;other&#45;vel</text>
</g>
<!-- x&#45;other&#45;vel&#45;&gt;none -->
<g id="edge28" class="edge">
<title>x&#45;other&#45;vel&#45;&gt;none</title>
<path fill="none" stroke="#ff0000" stroke-width=".6006" d="M756.3385,-192.5242C706.9772,-186.7266 607.8642,-172.636 581.6283,-150.5513 557.6459,-130.3635 545.7336,-96 539.9231,-70.1757"/>
<polygon fill="#ff0000" stroke="#ff0000" stroke-width=".6006" points="543.2847,-69.1441 537.8533,-60.0474 536.4265,-70.5457 543.2847,-69.1441"/>
</g>
<!-- x&#45;other&#45;vel&#45;&gt;right -->
<g id="edge12" class="edge">
<title>x&#45;other&#45;vel&#45;&gt;right</title>
<path fill="none" stroke="#ff0000" stroke-width=".397" stroke-dasharray="1,5" d="M784.6242,-186.3656C784.2093,-169.5542 781.3912,-133.2579 765.6283,-108.1249 750.416,-83.8697 724.0194,-64.4581 703.3914,-51.9204"/>
<polygon fill="#ff0000" stroke="#ff0000" stroke-width=".397" points="705.0657,-48.845 694.6676,-46.8126 701.5288,-54.8857 705.0657,-48.845"/>
</g>
<!-- x&#45;other&#45;vel&#45;&gt;left -->
<g id="edge26" class="edge">
<title>x&#45;other&#45;vel&#45;&gt;left</title>
<path fill="none" stroke="#ff0000" stroke-width=".151" stroke-dasharray="1,5" d="M756.3427,-194.8135C627.824,-191.3268 104.1427,-175.6167 80.6283,-150.5513 45.3873,-112.9857 120.2056,-69.2594 163.185,-48.3823"/>
<polygon fill="#ff0000" stroke="#ff0000" stroke-width=".151" points="164.7904,-51.4947 172.3289,-44.0502 161.7933,-45.1688 164.7904,-51.4947"/>
</g>
<!-- x&#45;other&#45;vel&#45;&gt;forward -->
<g id="edge21" class="edge">
<title>x&#45;other&#45;vel&#45;&gt;forward</title>
<path fill="none" stroke="#ff0000" stroke-width=".2825" d="M812.9076,-193.3973C862.6551,-188.957 962.5663,-176.9079 983.6283,-150.5513 1004.8811,-123.9559 979.9864,-88.4998 956.3174,-64.1292"/>
<polygon fill="#ff0000" stroke="#ff0000" stroke-width=".2825" points="958.6313,-61.4948 949.0637,-56.9439 953.7051,-66.468 958.6313,-61.4948"/>
</g>
<!-- 50 -->
<g id="node19" class="node">
<title>50</title>
<ellipse fill="#ffffff" stroke="#000000" cx="830.6283" cy="-129.3381" rx="18.2703" ry="18.2703"/>
<text text-anchor="middle" x="830.6283" y="-127.1381" font-family="Times,serif" font-size="9.00" fill="#000000">50</text>
</g>
<!-- x&#45;other&#45;vel&#45;&gt;50 -->
<g id="edge30" class="edge">
<title>x&#45;other&#45;vel&#45;&gt;50</title>
<path fill="none" stroke="#00ff00" stroke-width=".3906" d="M791.0244,-186.3446C797.0047,-177.7364 806.1919,-164.5123 814.2125,-152.9673"/>
<polygon fill="#00ff00" stroke="#00ff00" stroke-width=".3906" points="817.215,-154.7799 820.0461,-144.5703 811.4661,-150.786 817.215,-154.7799"/>
</g>
<!-- y&#45;other&#45;vel -->
<g id="node12" class="node">
<title>y&#45;other&#45;vel</title>
<polygon fill="#d3d3d3" stroke="#000000" points="145.6283,-138.3381 89.6283,-138.3381 89.6283,-120.3381 145.6283,-120.3381 145.6283,-138.3381"/>
<text text-anchor="middle" x="117.6283" y="-127.1381" font-family="Times,serif" font-size="9.00" fill="#000000">y&#45;other&#45;vel</text>
</g>
<!-- y&#45;other&#45;vel&#45;&gt;backward -->
<g id="edge20" class="edge">
<title>y&#45;other&#45;vel&#45;&gt;backward</title>
<path fill="none" stroke="#ff0000" stroke-width=".1538" d="M132.4899,-120.1753C139.1444,-116.2411 147.1599,-111.7301 154.6283,-108.1249 200.344,-86.0565 254.6695,-65.095 291.7956,-51.5279"/>
<polygon fill="#ff0000" stroke="#ff0000" stroke-width=".1538" points="293.1118,-54.7737 301.3181,-48.0724 290.724,-48.1935 293.1118,-54.7737"/>
</g>
<!-- 106&#45;&gt;none -->
<g id="edge33" class="edge">
<title>106&#45;&gt;none</title>
<path fill="none" stroke="#ff0000" stroke-width=".1339" d="M456.9854,-113.9355C471.3914,-99.4868 493.1779,-77.6357 510.0097,-60.754"/>
<polygon fill="#ff0000" stroke="#ff0000" stroke-width=".1339" points="512.7682,-62.9445 517.3503,-53.3917 507.8111,-58.002 512.7682,-62.9445"/>
</g>
<!-- 50&#45;&gt;right -->
<g id="edge31" class="edge">
<title>50&#45;&gt;right</title>
<path fill="none" stroke="#ff0000" stroke-width=".1814" d="M815.1296,-118.783C809.9297,-115.3172 804.0694,-111.4922 798.6283,-108.1249 766.3783,-88.1663 728.5518,-66.6092 703.0258,-52.3258"/>
<polygon fill="#ff0000" stroke="#ff0000" stroke-width=".1814" points="704.6493,-49.2237 694.2111,-47.409 701.2393,-55.337 704.6493,-49.2237"/>
</g>
</g>
</svg>
