<?xml version="1.0" encoding="UTF-8" standalone="no"?>
<!DOCTYPE svg PUBLIC "-//W3C//DTD SVG 1.1//EN"
 "http://www.w3.org/Graphics/SVG/1.1/DTD/svg11.dtd">
<!-- Generated by graphviz version 2.40.1 (20161225.0304)
 -->
<!-- Title: %3 Pages: 1 -->
<svg width="773pt" height="258pt"
 viewBox="0.00 0.00 773.43 257.81" xmlns="http://www.w3.org/2000/svg" xmlns:xlink="http://www.w3.org/1999/xlink">
<g id="graph0" class="graph" transform="scale(1 1) rotate(0) translate(4 253.8061)">
<title>%3</title>
<polygon fill="#ffffff" stroke="transparent" points="-4,4 -4,-253.8061 769.4299,-253.8061 769.4299,4 -4,4"/>
<!-- A_agent -->
<g id="node1" class="node">
<title>A_agent</title>
<polygon fill="#d3d3d3" stroke="#000000" points="675.3518,-249.8061 628.3518,-249.8061 628.3518,-231.8061 675.3518,-231.8061 675.3518,-249.8061"/>
<text text-anchor="middle" x="651.8518" y="-238.6061" font-family="Times,serif" font-size="9.00" fill="#000000">A_agent</text>
</g>
<!-- none -->
<g id="node9" class="node">
<title>none</title>
<ellipse fill="#add8e6" stroke="#000000" cx="110.8518" cy="-24.0416" rx="24.0833" ry="24.0833"/>
<text text-anchor="middle" x="110.8518" y="-21.8416" font-family="Times,serif" font-size="9.00" fill="#000000">none</text>
</g>
<!-- A_agent&#45;&gt;none -->
<g id="edge45" class="edge">
<title>A_agent&#45;&gt;none</title>
<path fill="none" stroke="#00ff00" stroke-width=".235" d="M675.6034,-236.3679C697.3338,-230.9118 728.2525,-219.3122 742.8518,-195.8061 769.0497,-153.625 776.2613,-120.8172 742.8518,-84.0833 702.3644,-39.5672 271.0333,-27.3078 145.1534,-24.6663"/>
<polygon fill="#00ff00" stroke="#00ff00" stroke-width=".235" points="145.0114,-21.1628 134.9425,-24.4592 144.8695,-28.1613 145.0114,-21.1628"/>
</g>
<!-- left -->
<g id="node11" class="node">
<title>left</title>
<ellipse fill="#add8e6" stroke="#000000" cx="451.8518" cy="-139.9447" rx="19.6" ry="19.6"/>
<text text-anchor="middle" x="451.8518" y="-137.7447" font-family="Times,serif" font-size="9.00" fill="#000000">left</text>
</g>
<!-- A_agent&#45;&gt;left -->
<g id="edge17" class="edge">
<title>A_agent&#45;&gt;left</title>
<path fill="none" stroke="#00ff00" stroke-width=".1323" stroke-dasharray="1,5" d="M628.1587,-233.9356C595.3264,-224.2209 537.8855,-206.4683 518.8518,-195.8061 502.3772,-186.5775 486.0566,-173.0868 473.6482,-161.675"/>
<polygon fill="#00ff00" stroke="#00ff00" stroke-width=".1323" points="475.7697,-158.8644 466.0967,-154.5418 470.9628,-163.9531 475.7697,-158.8644"/>
</g>
<!-- counterclockwise -->
<g id="node14" class="node">
<title>counterclockwise</title>
<ellipse fill="#add8e6" stroke="#000000" cx="357.8518" cy="-139.9447" rx="55.7232" ry="55.7232"/>
<text text-anchor="middle" x="357.8518" y="-137.7447" font-family="Times,serif" font-size="9.00" fill="#000000">counterclockwise</text>
</g>
<!-- A_agent&#45;&gt;counterclockwise -->
<g id="edge30" class="edge">
<title>A_agent&#45;&gt;counterclockwise</title>
<path fill="none" stroke="#ff0000" stroke-width=".1387" d="M628.1497,-233.8738C625.3623,-233.1376 622.5506,-232.4308 619.8518,-231.8061 533.1388,-211.7353 503.1761,-234.1464 422.8518,-195.8061 417.0357,-193.03 411.327,-189.5942 405.8559,-185.8015"/>
<polygon fill="#ff0000" stroke="#ff0000" stroke-width=".1387" points="407.5914,-182.7314 397.4726,-179.5911 403.4245,-188.3561 407.5914,-182.7314"/>
</g>
<!-- clockwise -->
<g id="node15" class="node">
<title>clockwise</title>
<ellipse fill="#add8e6" stroke="#000000" cx="646.8518" cy="-139.9447" rx="36.5405" ry="36.5405"/>
<text text-anchor="middle" x="646.8518" y="-137.7447" font-family="Times,serif" font-size="9.00" fill="#000000">clockwise</text>
</g>
<!-- A_agent&#45;&gt;clockwise -->
<g id="edge19" class="edge">
<title>A_agent&#45;&gt;clockwise</title>
<path fill="none" stroke="#ff0000" stroke-width=".2244" d="M647.2771,-231.4981C644.8909,-221.2401 643.1594,-203.9583 642.4544,-187.1552"/>
<polygon fill="#ff0000" stroke="#ff0000" stroke-width=".2244" points="645.9431,-186.7149 642.1514,-176.8218 638.9461,-186.9202 645.9431,-186.7149"/>
</g>
<!-- A_agent&#45;&gt;clockwise -->
<g id="edge48" class="edge">
<title>A_agent&#45;&gt;clockwise</title>
<path fill="none" stroke="#00ff00" stroke-width=".55" stroke-dasharray="1,5" d="M655.5036,-231.4981C656.9074,-220.9803 656.8909,-203.0783 655.855,-185.8794"/>
<polygon fill="#00ff00" stroke="#00ff00" stroke-width=".55" points="659.3451,-185.6156 655.1303,-175.8953 652.3635,-186.1224 659.3451,-185.6156"/>
</g>
<!-- B_lm -->
<g id="node2" class="node">
<title>B_lm</title>
<polygon fill="#d3d3d3" stroke="#000000" points="610.3518,-249.8061 573.3518,-249.8061 573.3518,-231.8061 610.3518,-231.8061 610.3518,-249.8061"/>
<text text-anchor="middle" x="591.8518" y="-238.6061" font-family="Times,serif" font-size="9.00" fill="#000000">B_lm</text>
</g>
<!-- B_lm&#45;&gt;none -->
<g id="edge20" class="edge">
<title>B_lm&#45;&gt;none</title>
<path fill="none" stroke="#00ff00" stroke-width=".2274" d="M610.402,-234.8038C644.6478,-223.6375 714.6237,-200.3868 717.8518,-195.8061 746.4552,-155.2177 751.19,-120.8819 717.8518,-84.0833 679.2028,-41.4226 268.3053,-27.9156 145.3914,-24.8144"/>
<polygon fill="#00ff00" stroke="#00ff00" stroke-width=".2274" points="145.1502,-21.3075 135.0675,-24.5615 144.9787,-28.3054 145.1502,-21.3075"/>
</g>
<!-- B_lm&#45;&gt;left -->
<g id="edge38" class="edge">
<title>B_lm&#45;&gt;left</title>
<path fill="none" stroke="#ff0000" stroke-width=".6032" d="M575.7673,-231.7806C560.688,-223.1138 537.7044,-209.3708 518.8518,-195.8061 503.5238,-184.7774 487.2328,-171.2401 474.5532,-160.2542"/>
<polygon fill="#ff0000" stroke="#ff0000" stroke-width=".6032" points="476.6179,-157.41 466.7888,-153.4553 472.0064,-162.6764 476.6179,-157.41"/>
</g>
<!-- forward -->
<g id="node12" class="node">
<title>forward</title>
<ellipse fill="#add8e6" stroke="#000000" cx="559.8518" cy="-139.9447" rx="31.6406" ry="31.6406"/>
<text text-anchor="middle" x="559.8518" y="-137.7447" font-family="Times,serif" font-size="9.00" fill="#000000">forward</text>
</g>
<!-- B_lm&#45;&gt;forward -->
<g id="edge33" class="edge">
<title>B_lm&#45;&gt;forward</title>
<path fill="none" stroke="#00ff00" stroke-width=".4569" d="M588.8986,-231.4981C585.1831,-219.787 578.5631,-198.9212 572.5805,-180.0645"/>
<polygon fill="#00ff00" stroke="#00ff00" stroke-width=".4569" points="575.8891,-178.9192 569.5288,-170.4459 569.2169,-181.0362 575.8891,-178.9192"/>
</g>
<!-- B_lm&#45;&gt;counterclockwise -->
<g id="edge26" class="edge">
<title>B_lm&#45;&gt;counterclockwise</title>
<path fill="none" stroke="#00ff00" stroke-width=".3572" d="M573.2242,-234.6439C570.1047,-233.6623 566.8938,-232.6825 563.8518,-231.8061 501.7024,-213.9019 480.2213,-225.67 422.8518,-195.8061 417.1352,-192.8304 411.4924,-189.2625 406.062,-185.3881"/>
<polygon fill="#00ff00" stroke="#00ff00" stroke-width=".3572" points="407.8121,-182.3237 397.7233,-179.0884 403.5925,-187.909 407.8121,-182.3237"/>
</g>
<!-- B_lm&#45;&gt;clockwise -->
<g id="edge37" class="edge">
<title>B_lm&#45;&gt;clockwise</title>
<path fill="none" stroke="#ff0000" stroke-width=".441" d="M592.8142,-231.4981C597.1958,-219.4029 608.2965,-197.5428 619.4097,-178.2162"/>
<polygon fill="#ff0000" stroke="#ff0000" stroke-width=".441" points="622.4477,-179.9546 624.4926,-169.5589 616.4112,-176.4104 622.4477,-179.9546"/>
</g>
<!-- B_lm&#45;&gt;clockwise -->
<g id="edge50" class="edge">
<title>B_lm&#45;&gt;clockwise</title>
<path fill="none" stroke="#ff0000" stroke-width=".3809" d="M601.0407,-231.4981C608.9655,-220.6176 620.0711,-201.8348 629.4756,-184.1029"/>
<polygon fill="#ff0000" stroke="#ff0000" stroke-width=".3809" points="632.7136,-185.4617 634.2126,-174.9734 626.5002,-182.2377 632.7136,-185.4617"/>
</g>
<!-- C_agent -->
<g id="node3" class="node">
<title>C_agent</title>
<polygon fill="#d3d3d3" stroke="#000000" points="554.8518,-249.8061 508.8518,-249.8061 508.8518,-231.8061 554.8518,-231.8061 554.8518,-249.8061"/>
<text text-anchor="middle" x="531.8518" y="-238.6061" font-family="Times,serif" font-size="9.00" fill="#000000">C_agent</text>
</g>
<!-- C_agent&#45;&gt;none -->
<g id="edge49" class="edge">
<title>C_agent&#45;&gt;none</title>
<path fill="none" stroke="#ff0000" stroke-width=".2093" d="M555.1702,-234.3844C599.6593,-222.1197 692.3186,-196.5088 692.8518,-195.8061 722.8674,-156.2506 726.1126,-120.9519 692.8518,-84.0833 655.9888,-43.2217 264.4761,-28.5148 145.1668,-24.9629"/>
<polygon fill="#ff0000" stroke="#ff0000" stroke-width=".2093" points="145.2226,-21.4631 135.1252,-24.6714 145.0194,-28.4602 145.2226,-21.4631"/>
</g>
<!-- right -->
<g id="node10" class="node">
<title>right</title>
<ellipse fill="#add8e6" stroke="#000000" cx="170.8518" cy="-139.9447" rx="23.1702" ry="23.1702"/>
<text text-anchor="middle" x="170.8518" y="-137.7447" font-family="Times,serif" font-size="9.00" fill="#000000">right</text>
</g>
<!-- C_agent&#45;&gt;right -->
<g id="edge1" class="edge">
<title>C_agent&#45;&gt;right</title>
<path fill="none" stroke="#ff0000" stroke-width=".3767" d="M508.5336,-233.8013C505.6262,-233.0602 502.6813,-232.372 499.8518,-231.8061 434.6597,-218.7677 258.2574,-232.5515 202.8518,-195.8061 193.9798,-189.9222 187.2798,-180.6835 182.3638,-171.4009"/>
<polygon fill="#ff0000" stroke="#ff0000" stroke-width=".3767" points="185.4653,-169.7722 178.0281,-162.2265 179.1365,-172.7632 185.4653,-169.7722"/>
</g>
<!-- C_agent&#45;&gt;left -->
<g id="edge46" class="edge">
<title>C_agent&#45;&gt;left</title>
<path fill="none" stroke="#00ff00" stroke-width=".2937" d="M524.469,-231.4981C512.3805,-216.2574 487.9945,-185.5123 470.8271,-163.8682"/>
<polygon fill="#00ff00" stroke="#00ff00" stroke-width=".2937" points="473.3742,-161.4472 464.4178,-155.7875 467.8899,-165.7972 473.3742,-161.4472"/>
</g>
<!-- C_agent&#45;&gt;forward -->
<g id="edge11" class="edge">
<title>C_agent&#45;&gt;forward</title>
<path fill="none" stroke="#00ff00" stroke-width=".4778" d="M530.3225,-231.4981C531.4614,-219.4548 536.6702,-197.7299 542.5785,-178.4648"/>
<polygon fill="#00ff00" stroke="#00ff00" stroke-width=".4778" points="545.9957,-179.2699 545.714,-168.6788 539.3295,-177.134 545.9957,-179.2699"/>
</g>
<!-- C_agent&#45;&gt;forward -->
<g id="edge55" class="edge">
<title>C_agent&#45;&gt;forward</title>
<path fill="none" stroke="#ff0000" stroke-width=".302" d="M538.549,-231.4981C543.8047,-220.0887 550.232,-199.9904 554.9652,-181.5259"/>
<polygon fill="#ff0000" stroke="#ff0000" stroke-width=".302" points="558.3709,-182.3329 557.3364,-171.7886 551.5697,-180.6766 558.3709,-182.3329"/>
</g>
<!-- backward -->
<g id="node13" class="node">
<title>backward</title>
<ellipse fill="#add8e6" stroke="#000000" cx="247.8518" cy="-139.9447" rx="36.125" ry="36.125"/>
<text text-anchor="middle" x="247.8518" y="-137.7447" font-family="Times,serif" font-size="9.00" fill="#000000">backward</text>
</g>
<!-- C_agent&#45;&gt;backward -->
<g id="edge2" class="edge">
<title>C_agent&#45;&gt;backward</title>
<path fill="none" stroke="#00ff00" stroke-width=".2219" d="M508.8515,-234.0346C505.8363,-233.2361 502.7783,-232.4703 499.8518,-231.8061 408.7868,-211.138 373.3065,-243.209 292.8518,-195.8061 285.4483,-191.4441 278.7667,-185.3753 272.9556,-178.8367"/>
<polygon fill="#00ff00" stroke="#00ff00" stroke-width=".2219" points="275.591,-176.5309 266.5427,-171.0192 270.179,-180.9705 275.591,-176.5309"/>
</g>
<!-- C_agent&#45;&gt;clockwise -->
<g id="edge52" class="edge">
<title>C_agent&#45;&gt;clockwise</title>
<path fill="none" stroke="#00ff00" stroke-width=".4786" stroke-dasharray="1,5" d="M548.7413,-231.7369C563.3638,-223.4477 584.6515,-210.3013 600.8518,-195.8061 606.9082,-190.3872 612.8409,-184.1401 618.3258,-177.8293"/>
<polygon fill="#00ff00" stroke="#00ff00" stroke-width=".4786" points="621.2657,-179.7706 625.0095,-169.8592 615.902,-175.2727 621.2657,-179.7706"/>
</g>
<!-- D_lm -->
<g id="node4" class="node">
<title>D_lm</title>
<polygon fill="#d3d3d3" stroke="#000000" points="425.3518,-249.8061 388.3518,-249.8061 388.3518,-231.8061 425.3518,-231.8061 425.3518,-249.8061"/>
<text text-anchor="middle" x="406.8518" y="-238.6061" font-family="Times,serif" font-size="9.00" fill="#000000">D_lm</text>
</g>
<!-- D_lm&#45;&gt;right -->
<g id="edge35" class="edge">
<title>D_lm&#45;&gt;right</title>
<path fill="none" stroke="#ff0000" stroke-width=".4061" d="M388.2591,-234.5172C385.1354,-233.5507 381.9141,-232.6089 378.8518,-231.8061 301.6196,-211.5598 267.5457,-242.5972 202.8518,-195.8061 194.2936,-189.6163 187.6933,-180.3844 182.7716,-171.1997"/>
<polygon fill="#ff0000" stroke="#ff0000" stroke-width=".4061" points="185.8995,-169.6282 178.3991,-162.1452 179.596,-172.6722 185.8995,-169.6282"/>
</g>
<!-- D_lm&#45;&gt;left -->
<g id="edge36" class="edge">
<title>D_lm&#45;&gt;left</title>
<path fill="none" stroke="#ff0000" stroke-width=".2819" d="M406.8913,-231.4981C410.8482,-216.4597 423.6952,-186.3258 434.8859,-164.7349"/>
<polygon fill="#ff0000" stroke="#ff0000" stroke-width=".2819" points="438.045,-166.2505 439.711,-155.7875 431.8838,-162.9279 438.045,-166.2505"/>
</g>
<!-- D_lm&#45;&gt;left -->
<g id="edge56" class="edge">
<title>D_lm&#45;&gt;left</title>
<path fill="none" stroke="#ff0000" stroke-width=".156" d="M415.1179,-231.4981C423.9653,-217.4366 436.8169,-190.1771 445.0507,-169.0441"/>
<polygon fill="#ff0000" stroke="#ff0000" stroke-width=".156" points="448.3794,-170.1342 448.581,-159.5413 441.8176,-167.6965 448.3794,-170.1342"/>
</g>
<!-- D_lm&#45;&gt;backward -->
<g id="edge42" class="edge">
<title>D_lm&#45;&gt;backward</title>
<path fill="none" stroke="#ff0000" stroke-width=".5619" d="M388.1545,-234.7302C360.0496,-225.3815 308.5338,-207.3441 292.8518,-195.8061 286.2219,-190.9282 280.0159,-184.8456 274.4568,-178.5053"/>
<polygon fill="#ff0000" stroke="#ff0000" stroke-width=".5619" points="276.8411,-175.8954 267.778,-170.408 271.4409,-180.3495 276.8411,-175.8954"/>
</g>
<!-- D_lm&#45;&gt;counterclockwise -->
<g id="edge32" class="edge">
<title>D_lm&#45;&gt;counterclockwise</title>
<path fill="none" stroke="#ff0000" stroke-width=".2705" d="M402.3298,-231.4981C398.5931,-223.8065 392.938,-212.166 386.9009,-199.7393"/>
<polygon fill="#ff0000" stroke="#ff0000" stroke-width=".2705" points="389.9774,-198.0623 382.4594,-190.597 383.6811,-201.1212 389.9774,-198.0623"/>
</g>
<!-- D_lm&#45;&gt;clockwise -->
<g id="edge22" class="edge">
<title>D_lm&#45;&gt;clockwise</title>
<path fill="none" stroke="#ff0000" stroke-width=".2791" d="M425.4527,-234.5483C428.5754,-233.5781 431.7943,-232.627 434.8518,-231.8061 507.7628,-212.2322 536.4031,-235.1194 600.8518,-195.8061 608.1751,-191.339 614.8643,-185.2807 620.7367,-178.798"/>
<polygon fill="#ff0000" stroke="#ff0000" stroke-width=".2791" points="623.4848,-180.9681 627.2442,-171.0627 618.1283,-176.4617 623.4848,-180.9681"/>
</g>
<!-- E_agent -->
<g id="node5" class="node">
<title>E_agent</title>
<polygon fill="#d3d3d3" stroke="#000000" points="262.8518,-249.8061 216.8518,-249.8061 216.8518,-231.8061 262.8518,-231.8061 262.8518,-249.8061"/>
<text text-anchor="middle" x="239.8518" y="-238.6061" font-family="Times,serif" font-size="9.00" fill="#000000">E_agent</text>
</g>
<!-- E_agent&#45;&gt;none -->
<g id="edge12" class="edge">
<title>E_agent&#45;&gt;none</title>
<path fill="none" stroke="#ff0000" stroke-width=".6275" d="M216.8006,-235.3094C187.578,-226.7355 140.5741,-209.7184 129.8518,-195.8061 98.964,-155.729 96.5058,-94.5811 101.0191,-57.0811"/>
<polygon fill="#ff0000" stroke="#ff0000" stroke-width=".6275" points="104.5519,-57.1121 102.5389,-46.7103 97.6259,-56.0971 104.5519,-57.1121"/>
</g>
<!-- E_agent&#45;&gt;none -->
<g id="edge16" class="edge">
<title>E_agent&#45;&gt;none</title>
<path fill="none" stroke="#ff0000" stroke-width=".2524" d="M218.6524,-231.6994C194.3359,-222.5071 157.2265,-207.9699 147.8518,-195.8061 117.3837,-156.2735 114.5778,-96.2388 114.0026,-58.6226"/>
<polygon fill="#ff0000" stroke="#ff0000" stroke-width=".2524" points="117.4969,-58.1354 113.873,-48.1797 110.4974,-58.2224 117.4969,-58.1354"/>
</g>
<!-- E_agent&#45;&gt;right -->
<g id="edge4" class="edge">
<title>E_agent&#45;&gt;right</title>
<path fill="none" stroke="#ff0000" stroke-width=".1022" d="M224.4649,-231.5152C214.5939,-222.6609 202.8152,-208.7911 193.8518,-195.8061 188.6949,-188.3356 183.5893,-179.9825 179.3088,-172.0589"/>
<polygon fill="#ff0000" stroke="#ff0000" stroke-width=".1022" points="182.3682,-170.3538 174.7093,-163.0332 176.1313,-173.5322 182.3682,-170.3538"/>
</g>
<!-- E_agent&#45;&gt;right -->
<g id="edge5" class="edge">
<title>E_agent&#45;&gt;right</title>
<path fill="none" stroke="#00ff00" stroke-width=".1583" d="M238.3918,-231.5152C232.5939,-222.6609 220.8152,-208.7911 211.8518,-195.8061 205.2405,-186.2286 198.7134,-175.2007 192.6901,-165.4867"/>
<polygon fill="#00ff00" stroke="#00ff00" stroke-width=".1583" points="195.6264,-163.5814 187.3122,-157.0144 189.7164,-167.3329 195.6264,-163.5814"/>
</g>
<!-- E_agent&#45;&gt;left -->
<g id="edge31" class="edge">
<title>E_agent&#45;&gt;left</title>
<path fill="none" stroke="#00ff00" stroke-width=".1974" d="M263.137,-237.5181C306.6257,-230.9905 398.037,-215.3262 422.8518,-195.8061 431.7032,-188.8433 438.1279,-178.433 442.6452,-168.4794"/>
<polygon fill="#00ff00" stroke="#00ff00" stroke-width=".1974" points="445.8922,-169.786 446.4087,-159.2038 439.4057,-167.1541 445.8922,-169.786"/>
</g>
<!-- E_agent&#45;&gt;forward -->
<g id="edge13" class="edge">
<title>E_agent&#45;&gt;forward</title>
<path fill="none" stroke="#ff0000" stroke-width=".218" stroke-dasharray="1,5" d="M262.9883,-237.7742C315.3532,-230.7056 441.4529,-212.4655 480.8518,-195.8061 497.5078,-188.7633 514.126,-177.765 527.7925,-167.3836"/>
<polygon fill="#ff0000" stroke="#ff0000" stroke-width=".218" points="530.1783,-169.9608 535.8945,-161.0402 525.863,-164.4492 530.1783,-169.9608"/>
</g>
<!-- E_agent&#45;&gt;backward -->
<g id="edge40" class="edge">
<title>E_agent&#45;&gt;backward</title>
<path fill="none" stroke="#00ff00" stroke-width=".296" d="M240.5901,-231.4981C241.4243,-220.9803 242.8442,-203.0783 244.2084,-185.8794"/>
<polygon fill="#00ff00" stroke="#00ff00" stroke-width=".296" points="247.6986,-186.1407 245.0003,-175.8953 240.7205,-185.5872 247.6986,-186.1407"/>
</g>
<!-- E_agent&#45;&gt;counterclockwise -->
<g id="edge21" class="edge">
<title>E_agent&#45;&gt;counterclockwise</title>
<path fill="none" stroke="#ff0000" stroke-width=".4161" d="M243.9466,-231.5173C252.5605,-222.4315 269.3506,-208.1933 283.8518,-195.8061 290.2758,-190.3186 297.0479,-184.5172 303.7957,-178.8111"/>
<polygon fill="#ff0000" stroke="#ff0000" stroke-width=".4161" points="306.2807,-181.2946 311.6837,-172.181 301.7767,-175.9361 306.2807,-181.2946"/>
</g>
<!-- E_agent&#45;&gt;counterclockwise -->
<g id="edge41" class="edge">
<title>E_agent&#45;&gt;counterclockwise</title>
<path fill="none" stroke="#ff0000" stroke-width=".3107" d="M257.7148,-231.5173C270.5605,-222.4315 287.3506,-208.1933 301.8518,-195.8061 305.0337,-193.088 308.3011,-190.2929 311.5847,-187.4705"/>
<polygon fill="#ff0000" stroke="#ff0000" stroke-width=".3107" points="313.9611,-190.0429 319.2436,-180.8589 309.3868,-184.7442 313.9611,-190.0429"/>
</g>
<!-- 26 -->
<g id="node16" class="node">
<title>26</title>
<ellipse fill="#ffffff" stroke="#000000" cx="55.8518" cy="-139.9447" rx="18.2703" ry="18.2703"/>
<text text-anchor="middle" x="55.8518" y="-137.7447" font-family="Times,serif" font-size="9.00" fill="#000000">26</text>
</g>
<!-- E_agent&#45;&gt;26 -->
<g id="edge57" class="edge">
<title>E_agent&#45;&gt;26</title>
<path fill="none" stroke="#00ff00" stroke-width=".1575" d="M216.7965,-234.9924C176.8665,-224.7756 98.1047,-203.9158 87.8518,-195.8061 78.3214,-188.268 71.1145,-177.0576 65.9763,-166.6535"/>
<polygon fill="#00ff00" stroke="#00ff00" stroke-width=".1575" points="69.1306,-165.1339 61.8319,-157.454 62.7483,-168.0091 69.1306,-165.1339"/>
</g>
<!-- F_lm -->
<g id="node6" class="node">
<title>F_lm</title>
<polygon fill="#d3d3d3" stroke="#000000" points="369.8518,-249.8061 333.8518,-249.8061 333.8518,-231.8061 369.8518,-231.8061 369.8518,-249.8061"/>
<text text-anchor="middle" x="351.8518" y="-238.6061" font-family="Times,serif" font-size="9.00" fill="#000000">F_lm</text>
</g>
<!-- F_lm&#45;&gt;right -->
<g id="edge29" class="edge">
<title>F_lm&#45;&gt;right</title>
<path fill="none" stroke="#ff0000" stroke-width=".3841" d="M333.4969,-240.0177C301.2896,-237.7288 235.513,-228.9444 193.8518,-195.8061 186.1434,-189.6748 179.9501,-181.1451 175.5093,-172.5949"/>
<polygon fill="#ff0000" stroke="#ff0000" stroke-width=".3841" points="178.6793,-171.11 171.3897,-163.4215 172.2936,-173.9777 178.6793,-171.11"/>
</g>
<!-- F_lm&#45;&gt;right -->
<g id="edge43" class="edge">
<title>F_lm&#45;&gt;right</title>
<path fill="none" stroke="#ff0000" stroke-width=".164" d="M333.781,-238.983C304.8991,-235.4631 248.8605,-225.2436 211.8518,-195.8061 202.6769,-188.5083 195.6484,-177.8128 189.9286,-167.7291"/>
<polygon fill="#ff0000" stroke="#ff0000" stroke-width=".164" points="192.8895,-165.8488 185.0195,-158.7555 186.7483,-169.2084 192.8895,-165.8488"/>
</g>
<!-- F_lm&#45;&gt;left -->
<g id="edge44" class="edge">
<title>F_lm&#45;&gt;left</title>
<path fill="none" stroke="#ff0000" stroke-width=".3331" stroke-dasharray="1,5" d="M364.604,-231.7172C378.3801,-223.9351 399.4477,-211.5064 413.8518,-195.8061 422.1092,-186.8056 428.6846,-175.0147 434.2218,-164.5862"/>
<polygon fill="#ff0000" stroke="#ff0000" stroke-width=".3331" points="437.4413,-165.9857 439.0336,-155.5112 431.2568,-162.7065 437.4413,-165.9857"/>
</g>
<!-- F_lm&#45;&gt;left -->
<g id="edge53" class="edge">
<title>F_lm&#45;&gt;left</title>
<path fill="none" stroke="#00ff00" stroke-width=".1792" d="M369.929,-235.6722C388.0542,-228.582 414.6852,-214.5175 431.8518,-195.8061 438.8499,-188.1782 444.64,-178.5461 448.7016,-169.4376"/>
<polygon fill="#00ff00" stroke="#00ff00" stroke-width=".1792" points="452.0558,-170.4682 452.4059,-159.8791 445.5288,-167.9387 452.0558,-170.4682"/>
</g>
<!-- F_lm&#45;&gt;forward -->
<g id="edge9" class="edge">
<title>F_lm&#45;&gt;forward</title>
<path fill="none" stroke="#00ff00" stroke-width=".119" d="M369.8521,-234.8382C402.8763,-223.8433 470.7035,-201.0323 480.8518,-195.8061 496.8053,-187.5904 513.2009,-176.5039 526.8915,-166.3733"/>
<polygon fill="#00ff00" stroke="#00ff00" stroke-width=".119" points="529.1658,-169.0418 535.0382,-160.2233 524.9483,-163.455 529.1658,-169.0418"/>
</g>
<!-- F_lm&#45;&gt;backward -->
<g id="edge14" class="edge">
<title>F_lm&#45;&gt;backward</title>
<path fill="none" stroke="#ff0000" stroke-width=".1675" d="M333.6996,-233.2589C318.9444,-224.8682 298.9878,-210.5457 283.8518,-195.8061 278.9962,-191.0778 274.1715,-185.8353 269.6703,-180.5109"/>
<polygon fill="#ff0000" stroke="#ff0000" stroke-width=".1675" points="272.3568,-178.2668 263.3412,-172.7018 266.9186,-182.6744 272.3568,-178.2668"/>
</g>
<!-- F_lm&#45;&gt;backward -->
<g id="edge27" class="edge">
<title>F_lm&#45;&gt;backward</title>
<path fill="none" stroke="#00ff00" stroke-width=".5444" d="M345.0263,-231.6591C334.5286,-223.12 316.0648,-209.6469 301.8518,-195.8061 294.6249,-188.7686 287.4663,-180.592 280.771,-172.7018"/>
<polygon fill="#00ff00" stroke="#00ff00" stroke-width=".5444" points="283.3661,-170.3499 274.2449,-164.9598 278.014,-174.8616 283.3661,-170.3499"/>
</g>
<!-- F_lm&#45;&gt;counterclockwise -->
<g id="edge15" class="edge">
<title>F_lm&#45;&gt;counterclockwise</title>
<path fill="none" stroke="#ff0000" stroke-width=".4678" stroke-dasharray="1,5" d="M348.2922,-231.4981C347.4794,-224.9198 347.2509,-215.453 347.4889,-205.0762"/>
<polygon fill="#ff0000" stroke="#ff0000" stroke-width=".4678" points="350.9927,-205.0331 347.8562,-194.9131 343.9972,-204.7802 350.9927,-205.0331"/>
</g>
<!-- F_lm&#45;&gt;counterclockwise -->
<g id="edge24" class="edge">
<title>F_lm&#45;&gt;counterclockwise</title>
<path fill="none" stroke="#00ff00" stroke-width=".1688" d="M356.5188,-231.4981C358.0622,-225.1339 359.3806,-216.0662 360.3672,-206.0865"/>
<polygon fill="#00ff00" stroke="#00ff00" stroke-width=".1688" points="363.876,-206.1307 361.2392,-195.8693 356.9014,-205.5353 363.876,-206.1307"/>
</g>
<!-- F_lm&#45;&gt;clockwise -->
<g id="edge28" class="edge">
<title>F_lm&#45;&gt;clockwise</title>
<path fill="none" stroke="#ff0000" stroke-width=".167" d="M369.9543,-232.0259C370.2546,-231.9511 370.5539,-231.8778 370.8518,-231.8061 467.6046,-208.5145 505.573,-245.4003 591.8518,-195.8061 600.7559,-190.6879 608.6641,-183.1421 615.5975,-175.241"/>
<polygon fill="#ff0000" stroke="#ff0000" stroke-width=".167" points="618.5008,-177.2238 622.2068,-167.2982 613.12,-172.7464 618.5008,-177.2238"/>
</g>
<!-- F_lm&#45;&gt;clockwise -->
<g id="edge54" class="edge">
<title>F_lm&#45;&gt;clockwise</title>
<path fill="none" stroke="#00ff00" stroke-width=".2031" d="M369.8832,-237.1884C376.1524,-235.3764 382.7954,-233.2641 388.8518,-231.8061 485.6046,-208.5145 523.573,-245.4003 609.8518,-195.8061 615.9989,-192.2727 621.6714,-187.5822 626.6832,-182.4166"/>
<polygon fill="#00ff00" stroke="#00ff00" stroke-width=".2031" points="629.5819,-184.4188 633.5319,-174.5878 624.3134,-179.8098 629.5819,-184.4188"/>
</g>
<!-- G_agent -->
<g id="node7" class="node">
<title>G_agent</title>
<polygon fill="#d3d3d3" stroke="#000000" points="490.3518,-249.8061 443.3518,-249.8061 443.3518,-231.8061 490.3518,-231.8061 490.3518,-249.8061"/>
<text text-anchor="middle" x="466.8518" y="-238.6061" font-family="Times,serif" font-size="9.00" fill="#000000">G_agent</text>
</g>
<!-- G_agent&#45;&gt;none -->
<g id="edge34" class="edge">
<title>G_agent&#45;&gt;none</title>
<path fill="none" stroke="#ff0000" stroke-width=".5132" d="M471.6461,-231.6762C484.7902,-205.2459 518.0253,-127.7753 480.8518,-84.0833 459.1183,-58.5387 232.452,-35.1997 145.003,-27.079"/>
<polygon fill="#ff0000" stroke="#ff0000" stroke-width=".5132" points="145.0904,-23.5724 134.8122,-26.1433 144.4503,-30.5431 145.0904,-23.5724"/>
</g>
<!-- G_agent&#45;&gt;left -->
<g id="edge7" class="edge">
<title>G_agent&#45;&gt;left</title>
<path fill="none" stroke="#ff0000" stroke-width=".1651" d="M461.3542,-231.4981C456.7591,-217.6473 452.0878,-190.991 450.087,-169.9981"/>
<polygon fill="#ff0000" stroke="#ff0000" stroke-width=".1651" points="453.5695,-169.6349 449.3149,-159.9319 446.59,-170.1704 453.5695,-169.6349"/>
</g>
<!-- G_agent&#45;&gt;left -->
<g id="edge25" class="edge">
<title>G_agent&#45;&gt;left</title>
<path fill="none" stroke="#00ff00" stroke-width=".2833" d="M469.5808,-231.4981C470.0698,-217.2488 466.6083,-189.4464 462.1869,-168.2006"/>
<polygon fill="#00ff00" stroke="#00ff00" stroke-width=".2833" points="465.585,-167.3591 459.9524,-158.3856 458.7596,-168.913 465.585,-167.3591"/>
</g>
<!-- G_agent&#45;&gt;forward -->
<g id="edge8" class="edge">
<title>G_agent&#45;&gt;forward</title>
<path fill="none" stroke="#ff0000" stroke-width=".2651" d="M470.3133,-231.4847C478.0342,-222.6088 492.865,-208.7245 504.8518,-195.8061 512.8489,-187.1875 521.1465,-177.4049 528.8959,-168.4611"/>
<polygon fill="#ff0000" stroke="#ff0000" stroke-width=".2651" points="531.5899,-170.6973 535.5434,-160.8678 526.323,-166.0865 531.5899,-170.6973"/>
</g>
<!-- G_agent&#45;&gt;forward -->
<g id="edge10" class="edge">
<title>G_agent&#45;&gt;forward</title>
<path fill="none" stroke="#00ff00" stroke-width=".3056" d="M484.2402,-231.4847C496.0342,-222.6088 510.865,-208.7245 522.8518,-195.8061 528.4395,-189.7841 534.174,-183.1938 539.4657,-176.7184"/>
<polygon fill="#00ff00" stroke="#00ff00" stroke-width=".3056" points="542.411,-178.6375 545.8873,-168.6292 536.9284,-174.2853 542.411,-178.6375"/>
</g>
<!-- G_agent&#45;&gt;backward -->
<g id="edge39" class="edge">
<title>G_agent&#45;&gt;backward</title>
<path fill="none" stroke="#ff0000" stroke-width=".2386" d="M443.1049,-234.0536C440.3255,-233.2851 437.5279,-232.5216 434.8518,-231.8061 371.953,-214.9909 347.6491,-230.9667 292.8518,-195.8061 285.695,-191.214 279.1546,-185.0974 273.4109,-178.5964"/>
<polygon fill="#ff0000" stroke="#ff0000" stroke-width=".2386" points="276.1005,-176.3565 267.0451,-170.8564 270.6941,-180.803 276.1005,-176.3565"/>
</g>
<!-- G_agent&#45;&gt;counterclockwise -->
<g id="edge23" class="edge">
<title>G_agent&#45;&gt;counterclockwise</title>
<path fill="none" stroke="#ff0000" stroke-width=".3525" d="M456.7927,-231.4981C445.2075,-220.778 425.3325,-202.3869 406.4213,-184.8877"/>
<polygon fill="#ff0000" stroke="#ff0000" stroke-width=".3525" points="408.6798,-182.2091 398.9629,-177.9862 403.9256,-187.3469 408.6798,-182.2091"/>
</g>
<!-- H_lm -->
<g id="node8" class="node">
<title>H_lm</title>
<polygon fill="#d3d3d3" stroke="#000000" points="189.3518,-249.8061 152.3518,-249.8061 152.3518,-231.8061 189.3518,-231.8061 189.3518,-249.8061"/>
<text text-anchor="middle" x="170.8518" y="-238.6061" font-family="Times,serif" font-size="9.00" fill="#000000">H_lm</text>
</g>
<!-- H_lm&#45;&gt;none -->
<g id="edge18" class="edge">
<title>H_lm&#45;&gt;none</title>
<path fill="none" stroke="#ff0000" stroke-width=".2758" d="M152.3197,-238.4997C115.167,-232.7935 35.3194,-216.9336 19.8518,-195.8061 -9.4803,-155.7411 -2.609,-128.3675 19.8518,-84.0833 31.6179,-60.8849 57.0256,-44.4937 78.1803,-34.7627"/>
<polygon fill="#ff0000" stroke="#ff0000" stroke-width=".2758" points="79.7192,-37.9112 87.5364,-30.7599 76.9658,-31.4755 79.7192,-37.9112"/>
</g>
<!-- H_lm&#45;&gt;none -->
<g id="edge47" class="edge">
<title>H_lm&#45;&gt;none</title>
<path fill="none" stroke="#00ff00" stroke-width=".2175" d="M152.1936,-236.6294C118.75,-229.771 51.8681,-214.9513 37.8518,-195.8061 8.5197,-155.7411 15.391,-128.3675 37.8518,-84.0833 47.1923,-65.6671 65.1299,-51.541 80.9922,-41.6312"/>
<polygon fill="#00ff00" stroke="#00ff00" stroke-width=".2175" points="83.1949,-44.3941 90.0112,-36.2831 79.6245,-38.3731 83.1949,-44.3941"/>
</g>
<!-- H_lm&#45;&gt;right -->
<g id="edge6" class="edge">
<title>H_lm&#45;&gt;right</title>
<path fill="none" stroke="#00ff00" stroke-width=".4954" d="M170.8518,-231.4981C170.8518,-218.4581 170.8518,-194.0678 170.8518,-173.7391"/>
<polygon fill="#00ff00" stroke="#00ff00" stroke-width=".4954" points="174.3519,-173.5603 170.8518,-163.5604 167.3519,-173.5604 174.3519,-173.5603"/>
</g>
<!-- H_lm&#45;&gt;backward -->
<g id="edge3" class="edge">
<title>H_lm&#45;&gt;backward</title>
<path fill="none" stroke="#00ff00" stroke-width=".2565" d="M177.9577,-231.4981C187.405,-219.1233 204.6557,-196.5267 219.6546,-176.8799"/>
<polygon fill="#00ff00" stroke="#00ff00" stroke-width=".2565" points="222.6293,-178.7512 225.9155,-168.6788 217.0654,-174.5035 222.6293,-178.7512"/>
</g>
<!-- H_lm&#45;&gt;clockwise -->
<g id="edge51" class="edge">
<title>H_lm&#45;&gt;clockwise</title>
<path fill="none" stroke="#ff0000" stroke-width=".4184" d="M189.5641,-235.6876C195.3864,-234.2483 201.8523,-232.805 207.8518,-231.8061 294.36,-217.4032 523.3334,-236.8185 600.8518,-195.8061 608.514,-191.7523 615.3876,-185.8255 621.3411,-179.33"/>
<polygon fill="#ff0000" stroke="#ff0000" stroke-width=".4184" points="624.1479,-181.4302 627.8993,-171.5217 618.7877,-176.9281 624.1479,-181.4302"/>
</g>
<!-- 26&#45;&gt;none -->
<g id="edge58" class="edge">
<title>26&#45;&gt;none</title>
<path fill="none" stroke="#ff0000" stroke-width=".5741" d="M63.9672,-122.8428C72.4007,-105.0706 85.783,-76.8697 96.0955,-55.1379"/>
<polygon fill="#ff0000" stroke="#ff0000" stroke-width=".5741" points="99.3209,-56.5048 100.4461,-45.9698 92.9968,-53.5037 99.3209,-56.5048"/>
</g>
</g>
</svg>
