<?xml version="1.0" encoding="UTF-8" standalone="no"?>
<!DOCTYPE svg PUBLIC "-//W3C//DTD SVG 1.1//EN"
 "http://www.w3.org/Graphics/SVG/1.1/DTD/svg11.dtd">
<!-- Generated by graphviz version 2.40.1 (20161225.0304)
 -->
<!-- Title: %3 Pages: 1 -->
<svg width="1180pt" height="489pt"
 viewBox="0.00 0.00 1180.10 488.84" xmlns="http://www.w3.org/2000/svg" xmlns:xlink="http://www.w3.org/1999/xlink">
<g id="graph0" class="graph" transform="scale(1 1) rotate(0) translate(4 484.8427)">
<title>%3</title>
<polygon fill="#ffffff" stroke="transparent" points="-4,4 -4,-484.8427 1176.0986,-484.8427 1176.0986,4 -4,4"/>
<!-- x&#45;vel -->
<g id="node1" class="node">
<title>x&#45;vel</title>
<polygon fill="#d3d3d3" stroke="#000000" points="237.1852,-411.094 202.1852,-411.094 202.1852,-393.094 237.1852,-393.094 237.1852,-411.094"/>
<text text-anchor="middle" x="219.6852" y="-399.894" font-family="Times,serif" font-size="9.00" fill="#000000">x&#45;vel</text>
</g>
<!-- right -->
<g id="node14" class="node">
<title>right</title>
<ellipse fill="#add8e6" stroke="#000000" cx="71.6852" cy="-309.5254" rx="23.1702" ry="23.1702"/>
<text text-anchor="middle" x="71.6852" y="-307.3254" font-family="Times,serif" font-size="9.00" fill="#000000">right</text>
</g>
<!-- x&#45;vel&#45;&gt;right -->
<g id="edge16" class="edge">
<title>x&#45;vel&#45;&gt;right</title>
<path fill="none" stroke="#ff0000" stroke-width=".4454" stroke-dasharray="1,5" d="M210.6477,-392.8265C205.6075,-387.9185 199.0731,-381.9676 192.6852,-377.3452 163.6219,-356.3149 127.4102,-336.795 102.2109,-324.149"/>
<polygon fill="#ff0000" stroke="#ff0000" stroke-width=".4454" points="103.6445,-320.9532 93.1301,-319.65 100.5369,-327.2256 103.6445,-320.9532"/>
</g>
<!-- left -->
<g id="node15" class="node">
<title>left</title>
<ellipse fill="#add8e6" stroke="#000000" cx="896.6852" cy="-309.5254" rx="19.6" ry="19.6"/>
<text text-anchor="middle" x="896.6852" y="-307.3254" font-family="Times,serif" font-size="9.00" fill="#000000">left</text>
</g>
<!-- x&#45;vel&#45;&gt;left -->
<g id="edge21" class="edge">
<title>x&#45;vel&#45;&gt;left</title>
<path fill="none" stroke="#ff0000" stroke-width=".5408" stroke-dasharray="1,5" d="M226.7793,-392.6379C231.4825,-387.1436 238.1599,-380.6675 245.6852,-377.3452 349.2166,-331.638 641.6984,-357.6808 753.6852,-341.3452 793.5832,-335.5253 838.905,-324.7111 867.6329,-317.3199"/>
<polygon fill="#ff0000" stroke="#ff0000" stroke-width=".5408" points="868.6314,-320.6767 877.4252,-314.7674 866.8657,-313.903 868.6314,-320.6767"/>
</g>
<!-- y&#45;vel -->
<g id="node2" class="node">
<title>y&#45;vel</title>
<polygon fill="#d3d3d3" stroke="#000000" points="1100.1852,-480.8427 1065.1852,-480.8427 1065.1852,-462.8427 1100.1852,-462.8427 1100.1852,-480.8427"/>
<text text-anchor="middle" x="1082.6852" y="-469.6427" font-family="Times,serif" font-size="9.00" fill="#000000">y&#45;vel</text>
</g>
<!-- none -->
<g id="node13" class="node">
<title>none</title>
<ellipse fill="#add8e6" stroke="#000000" cx="772.6852" cy="-24.0416" rx="24.0833" ry="24.0833"/>
<text text-anchor="middle" x="772.6852" y="-21.8416" font-family="Times,serif" font-size="9.00" fill="#000000">none</text>
</g>
<!-- y&#45;vel&#45;&gt;none -->
<g id="edge2" class="edge">
<title>y&#45;vel&#45;&gt;none</title>
<path fill="none" stroke="#00ff00" stroke-width=".212" d="M1100.2229,-465.1003C1116.0749,-458.0469 1138.7052,-445.395 1150.6852,-426.8427 1179.3389,-382.4697 1169.6852,-362.3458 1169.6852,-309.5254 1169.6852,-309.5254 1169.6852,-309.5254 1169.6852,-205.6432 1169.6852,-126.541 1109.6085,-121.0682 1039.6852,-84.0833 963.0666,-43.5569 860.0572,-30.2995 807.1798,-26.0267"/>
<polygon fill="#00ff00" stroke="#00ff00" stroke-width=".212" points="807.2229,-22.5203 796.99,-25.2655 806.7014,-29.5008 807.2229,-22.5203"/>
</g>
<!-- y&#45;vel&#45;&gt;left -->
<g id="edge6" class="edge">
<title>y&#45;vel&#45;&gt;left</title>
<path fill="none" stroke="#ff0000" stroke-width=".1759" d="M1067.4826,-462.7716C1053.52,-454.1799 1032.5065,-440.5811 1015.6852,-426.8427 978.5814,-396.539 939.8318,-356.517 916.9974,-331.9224"/>
<polygon fill="#ff0000" stroke="#ff0000" stroke-width=".1759" points="919.5165,-329.4913 910.1651,-324.5112 914.3698,-334.2359 919.5165,-329.4913"/>
</g>
<!-- 2496 -->
<g id="node20" class="node">
<title>2496</title>
<ellipse fill="#ffffff" stroke="#000000" cx="1116.6852" cy="-402.094" rx="25" ry="25"/>
<text text-anchor="middle" x="1116.6852" y="-399.894" font-family="Times,serif" font-size="9.00" fill="#000000">2496</text>
</g>
<!-- y&#45;vel&#45;&gt;2496 -->
<g id="edge49" class="edge">
<title>y&#45;vel&#45;&gt;2496</title>
<path fill="none" stroke="#00ff00" stroke-width=".2955" d="M1087.1302,-462.7243C1090.7777,-455.2415 1096.1676,-444.1845 1101.3493,-433.5546"/>
<polygon fill="#00ff00" stroke="#00ff00" stroke-width=".2955" points="1104.5646,-434.9462 1105.8003,-424.4237 1098.2724,-431.879 1104.5646,-434.9462"/>
</g>
<!-- 1138 -->
<g id="node26" class="node">
<title>1138</title>
<ellipse fill="#ffffff" stroke="#000000" cx="1049.6852" cy="-402.094" rx="25" ry="25"/>
<text text-anchor="middle" x="1049.6852" y="-399.894" font-family="Times,serif" font-size="9.00" fill="#000000">1138</text>
</g>
<!-- y&#45;vel&#45;&gt;1138 -->
<g id="edge34" class="edge">
<title>y&#45;vel&#45;&gt;1138</title>
<path fill="none" stroke="#ff0000" stroke-width=".4252" stroke-dasharray="1,5" d="M1078.3711,-462.7243C1074.8578,-455.2987 1069.6792,-444.3531 1064.6853,-433.7981"/>
<polygon fill="#ff0000" stroke="#ff0000" stroke-width=".4252" points="1067.8314,-432.2638 1060.3908,-424.7213 1061.5039,-435.2575 1067.8314,-432.2638"/>
</g>
<!-- x&#45;pos -->
<g id="node3" class="node">
<title>x&#45;pos</title>
<polygon fill="#d3d3d3" stroke="#000000" points="434.6852,-411.094 398.6852,-411.094 398.6852,-393.094 434.6852,-393.094 434.6852,-411.094"/>
<text text-anchor="middle" x="416.6852" y="-399.894" font-family="Times,serif" font-size="9.00" fill="#000000">x&#45;pos</text>
</g>
<!-- forward -->
<g id="node16" class="node">
<title>forward</title>
<ellipse fill="#add8e6" stroke="#000000" cx="504.6852" cy="-309.5254" rx="31.6406" ry="31.6406"/>
<text text-anchor="middle" x="504.6852" y="-307.3254" font-family="Times,serif" font-size="9.00" fill="#000000">forward</text>
</g>
<!-- x&#45;pos&#45;&gt;forward -->
<g id="edge15" class="edge">
<title>x&#45;pos&#45;&gt;forward</title>
<path fill="none" stroke="#ff0000" stroke-width=".3491" stroke-dasharray="1,5" d="M425.4447,-392.8797C437.0088,-380.7154 457.9451,-358.6921 475.394,-340.3374"/>
<polygon fill="#ff0000" stroke="#ff0000" stroke-width=".3491" points="478.2678,-342.3942 482.6211,-332.7351 473.1944,-337.5712 478.2678,-342.3942"/>
</g>
<!-- backward -->
<g id="node17" class="node">
<title>backward</title>
<ellipse fill="#add8e6" stroke="#000000" cx="388.6852" cy="-205.6432" rx="36.125" ry="36.125"/>
<text text-anchor="middle" x="388.6852" y="-203.4432" font-family="Times,serif" font-size="9.00" fill="#000000">backward</text>
</g>
<!-- x&#45;pos&#45;&gt;backward -->
<g id="edge8" class="edge">
<title>x&#45;pos&#45;&gt;backward</title>
<path fill="none" stroke="#ff0000" stroke-width=".4599" stroke-dasharray="1,5" d="M419.2494,-392.8839C424.6433,-372.0411 435.8596,-319.7967 425.6852,-277.7056 423.0036,-266.6117 418.3037,-255.3094 413.1347,-245.0459"/>
<polygon fill="#ff0000" stroke="#ff0000" stroke-width=".4599" points="416.0835,-243.1362 408.3003,-235.9479 409.902,-246.421 416.0835,-243.1362"/>
</g>
<!-- 1231 -->
<g id="node24" class="node">
<title>1231</title>
<ellipse fill="#ffffff" stroke="#000000" cx="279.6852" cy="-309.5254" rx="25" ry="25"/>
<text text-anchor="middle" x="279.6852" y="-307.3254" font-family="Times,serif" font-size="9.00" fill="#000000">1231</text>
</g>
<!-- x&#45;pos&#45;&gt;1231 -->
<g id="edge36" class="edge">
<title>x&#45;pos&#45;&gt;1231</title>
<path fill="none" stroke="#00ff00" stroke-width=".3114" d="M403.2997,-393.0496C381.5775,-378.3722 338.1484,-349.028 308.9937,-329.3286"/>
<polygon fill="#00ff00" stroke="#00ff00" stroke-width=".3114" points="310.6892,-326.2502 300.4437,-323.5516 306.7701,-332.0503 310.6892,-326.2502"/>
</g>
<!-- y&#45;pos -->
<g id="node4" class="node">
<title>y&#45;pos</title>
<polygon fill="#d3d3d3" stroke="#000000" points="350.6852,-480.8427 314.6852,-480.8427 314.6852,-462.8427 350.6852,-462.8427 350.6852,-480.8427"/>
<text text-anchor="middle" x="332.6852" y="-469.6427" font-family="Times,serif" font-size="9.00" fill="#000000">y&#45;pos</text>
</g>
<!-- y&#45;pos&#45;&gt;left -->
<g id="edge18" class="edge">
<title>y&#45;pos&#45;&gt;left</title>
<path fill="none" stroke="#00ff00" stroke-width=".3893" stroke-dasharray="1,5" d="M350.8372,-470.2207C429.5971,-463.1444 738.6404,-434.9678 757.6852,-426.8427 807.3847,-405.6396 852.745,-360.3688 877.3633,-332.6763"/>
<polygon fill="#00ff00" stroke="#00ff00" stroke-width=".3893" points="880.0971,-334.8667 884.0316,-325.0295 874.8213,-330.266 880.0971,-334.8667"/>
</g>
<!-- 2280 -->
<g id="node21" class="node">
<title>2280</title>
<ellipse fill="#ffffff" stroke="#000000" cx="279.6852" cy="-402.094" rx="25" ry="25"/>
<text text-anchor="middle" x="279.6852" y="-399.894" font-family="Times,serif" font-size="9.00" fill="#000000">2280</text>
</g>
<!-- y&#45;pos&#45;&gt;2280 -->
<g id="edge46" class="edge">
<title>y&#45;pos&#45;&gt;2280</title>
<path fill="none" stroke="#ff0000" stroke-width=".1989" stroke-dasharray="1,5" d="M325.7564,-462.7243C319.4795,-454.4638 309.8927,-441.8473 301.0865,-430.2583"/>
<polygon fill="#ff0000" stroke="#ff0000" stroke-width=".1989" points="303.7077,-427.9228 294.8707,-422.0782 298.1342,-432.158 303.7077,-427.9228"/>
</g>
<!-- y&#45;pos&#45;&gt;1231 -->
<g id="edge38" class="edge">
<title>y&#45;pos&#45;&gt;1231</title>
<path fill="none" stroke="#00ff00" stroke-width=".1602" d="M331.6775,-462.7737C329.6022,-445.6899 324.1441,-407.7248 313.6852,-377.3452 309.3308,-364.697 303.08,-351.4102 297.123,-339.9822"/>
<polygon fill="#00ff00" stroke="#00ff00" stroke-width=".1602" points="300.0484,-338.0316 292.2362,-330.8748 293.8802,-341.3413 300.0484,-338.0316"/>
</g>
<!-- x&#45;lm1&#45;vec -->
<g id="node5" class="node">
<title>x&#45;lm1&#45;vec</title>
<polygon fill="#d3d3d3" stroke="#000000" points="129.1852,-480.8427 76.1852,-480.8427 76.1852,-462.8427 129.1852,-462.8427 129.1852,-480.8427"/>
<text text-anchor="middle" x="102.6852" y="-469.6427" font-family="Times,serif" font-size="9.00" fill="#000000">x&#45;lm1&#45;vec</text>
</g>
<!-- x&#45;lm1&#45;vec&#45;&gt;right -->
<g id="edge14" class="edge">
<title>x&#45;lm1&#45;vec&#45;&gt;right</title>
<path fill="none" stroke="#00ff00" stroke-width="2.702" d="M76.1756,-467.3092C53.6337,-461.9027 22.6166,-450.4373 7.6852,-426.8427 -4.0786,-408.2534 -.4381,-397.7894 7.6852,-377.3452 15.1812,-358.4802 30.6883,-341.8249 44.5604,-329.7406"/>
<polygon fill="#00ff00" stroke="#00ff00" stroke-width="2.702" points="47.0116,-332.2544 52.4662,-323.1716 42.538,-326.8704 47.0116,-332.2544"/>
</g>
<!-- x&#45;lm1&#45;vec&#45;&gt;backward -->
<g id="edge10" class="edge">
<title>x&#45;lm1&#45;vec&#45;&gt;backward</title>
<path fill="none" stroke="#00ff00" stroke-width=".9184" d="M103.3347,-462.6374C104.813,-445.3266 109.3157,-406.9983 121.6852,-377.3452 142.2302,-328.0937 146.6036,-310.5225 188.6852,-277.7056 234.4897,-241.9856 299.5652,-222.9492 342.9051,-213.5835"/>
<polygon fill="#00ff00" stroke="#00ff00" stroke-width=".9184" points="343.8072,-216.971 352.8885,-211.5138 342.3862,-210.1167 343.8072,-216.971"/>
</g>
<!-- x&#45;lm1&#45;vec&#45;&gt;2280 -->
<g id="edge48" class="edge">
<title>x&#45;lm1&#45;vec&#45;&gt;2280</title>
<path fill="none" stroke="#00ff00" stroke-width=".1048" d="M129.2435,-466.2187C158.7264,-459.3622 207.2242,-446.2367 245.6852,-426.8427 247.698,-425.8278 249.7198,-424.6977 251.7192,-423.4949"/>
<polygon fill="#00ff00" stroke="#00ff00" stroke-width=".1048" points="253.812,-426.3078 260.244,-417.8888 249.9657,-420.4591 253.812,-426.3078"/>
</g>
<!-- y&#45;lm1&#45;vec -->
<g id="node6" class="node">
<title>y&#45;lm1&#45;vec</title>
<polygon fill="#d3d3d3" stroke="#000000" points="184.1852,-411.094 131.1852,-411.094 131.1852,-393.094 184.1852,-393.094 184.1852,-411.094"/>
<text text-anchor="middle" x="157.6852" y="-399.894" font-family="Times,serif" font-size="9.00" fill="#000000">y&#45;lm1&#45;vec</text>
</g>
<!-- y&#45;lm1&#45;vec&#45;&gt;none -->
<g id="edge12" class="edge">
<title>y&#45;lm1&#45;vec&#45;&gt;none</title>
<path fill="none" stroke="#00ff00" stroke-width=".5027" d="M157.8268,-393.0919C158.5839,-371.3291 163.0645,-314.9177 188.6852,-277.7056 236.3176,-208.5235 268.726,-207.477 343.6852,-169.5807 483.1686,-99.0639 664.6139,-50.3256 738.8199,-32.0473"/>
<polygon fill="#00ff00" stroke="#00ff00" stroke-width=".5027" points="740.0858,-35.3413 748.9725,-29.5726 738.428,-28.5404 740.0858,-35.3413"/>
</g>
<!-- y&#45;lm1&#45;vec&#45;&gt;forward -->
<g id="edge17" class="edge">
<title>y&#45;lm1&#45;vec&#45;&gt;forward</title>
<path fill="none" stroke="#00ff00" stroke-width="1.7855" d="M167.9554,-392.8923C174.5578,-387.4938 183.5786,-381.029 192.6852,-377.3452 289.8233,-338.0521 324.6442,-369.1024 425.6852,-341.3452 439.2057,-337.631 453.5494,-332.3024 466.2512,-327.065"/>
<polygon fill="#00ff00" stroke="#00ff00" stroke-width="1.7855" points="467.7591,-330.2274 475.6036,-323.106 465.0303,-323.7812 467.7591,-330.2274"/>
</g>
<!-- y&#45;lm1&#45;vec&#45;&gt;backward -->
<g id="edge29" class="edge">
<title>y&#45;lm1&#45;vec&#45;&gt;backward</title>
<path fill="none" stroke="#ff0000" stroke-width="1.8814" d="M162.2067,-392.8128C173.5023,-370.4302 204.9942,-312.7469 245.6852,-277.7056 275.0537,-252.4148 314.8442,-233.2984 344.9958,-221.1319"/>
<polygon fill="#ff0000" stroke="#ff0000" stroke-width="1.8814" points="346.3948,-224.3427 354.4212,-217.4269 343.8339,-217.828 346.3948,-224.3427"/>
</g>
<!-- y&#45;lm1&#45;vec&#45;&gt;1231 -->
<g id="edge43" class="edge">
<title>y&#45;lm1&#45;vec&#45;&gt;1231</title>
<path fill="none" stroke="#00ff00" stroke-width=".3238" d="M170.2883,-392.9639C186.4731,-381.1919 215.374,-360.0116 239.6852,-341.3452 243.8027,-338.1838 248.1271,-334.8057 252.3489,-331.4749"/>
<polygon fill="#00ff00" stroke="#00ff00" stroke-width=".3238" points="254.6018,-334.1553 260.2597,-325.1976 250.2506,-328.6719 254.6018,-334.1553"/>
</g>
<!-- x&#45;lm2&#45;vec -->
<g id="node7" class="node">
<title>x&#45;lm2&#45;vec</title>
<polygon fill="#d3d3d3" stroke="#000000" points="748.1852,-411.094 695.1852,-411.094 695.1852,-393.094 748.1852,-393.094 748.1852,-411.094"/>
<text text-anchor="middle" x="721.6852" y="-399.894" font-family="Times,serif" font-size="9.00" fill="#000000">x&#45;lm2&#45;vec</text>
</g>
<!-- x&#45;lm2&#45;vec&#45;&gt;none -->
<g id="edge25" class="edge">
<title>x&#45;lm2&#45;vec&#45;&gt;none</title>
<path fill="none" stroke="#00ff00" stroke-width=".3184" stroke-dasharray="1,5" d="M728.2475,-392.741C735.9119,-381.2478 748.2348,-360.8632 753.6852,-341.3452 781.5621,-241.5192 778.7623,-117.3857 775.2928,-58.3387"/>
<polygon fill="#00ff00" stroke="#00ff00" stroke-width=".3184" points="778.769,-57.8503 774.6445,-48.0913 771.783,-58.2924 778.769,-57.8503"/>
</g>
<!-- x&#45;lm2&#45;vec&#45;&gt;left -->
<g id="edge19" class="edge">
<title>x&#45;lm2&#45;vec&#45;&gt;left</title>
<path fill="none" stroke="#00ff00" stroke-width=".4297" stroke-dasharray="1,5" d="M738.7836,-393.0496C769.3372,-376.8878 833.5107,-342.9425 869.9398,-323.6728"/>
<polygon fill="#00ff00" stroke="#00ff00" stroke-width=".4297" points="871.7944,-326.6513 878.9974,-318.8816 868.5213,-320.4636 871.7944,-326.6513"/>
</g>
<!-- x&#45;lm2&#45;vec&#45;&gt;forward -->
<g id="edge20" class="edge">
<title>x&#45;lm2&#45;vec&#45;&gt;forward</title>
<path fill="none" stroke="#ff0000" stroke-width=".4018" stroke-dasharray="1,5" d="M700.4833,-393.0496C664.1423,-377.5471 589.4447,-345.6824 543.5445,-326.1021"/>
<polygon fill="#ff0000" stroke="#ff0000" stroke-width=".4018" points="544.7825,-322.8252 534.2111,-322.1207 542.0359,-329.2638 544.7825,-322.8252"/>
</g>
<!-- x&#45;lm2&#45;vec&#45;&gt;backward -->
<g id="edge4" class="edge">
<title>x&#45;lm2&#45;vec&#45;&gt;backward</title>
<path fill="none" stroke="#00ff00" stroke-width=".2381" stroke-dasharray="1,5" d="M706.6586,-393.0211C678.9593,-376.2892 622.5722,-342.1904 621.6852,-341.3452 596.9718,-317.7978 605.451,-298.8912 578.6852,-277.7056 535.7524,-243.7236 475.0415,-224.4588 433.8889,-214.5564"/>
<polygon fill="#00ff00" stroke="#00ff00" stroke-width=".2381" points="434.6614,-211.1427 424.1294,-212.2949 433.0811,-217.9621 434.6614,-211.1427"/>
</g>
<!-- 2606 -->
<g id="node25" class="node">
<title>2606</title>
<ellipse fill="#ffffff" stroke="#000000" cx="825.6852" cy="-108.832" rx="25" ry="25"/>
<text text-anchor="middle" x="825.6852" y="-106.632" font-family="Times,serif" font-size="9.00" fill="#000000">2606</text>
</g>
<!-- x&#45;lm2&#45;vec&#45;&gt;2606 -->
<g id="edge53" class="edge">
<title>x&#45;lm2&#45;vec&#45;&gt;2606</title>
<path fill="none" stroke="#00ff00" stroke-width=".4486" d="M735.9163,-393.0349C751.1128,-382.5453 774.6305,-363.7999 786.6852,-341.3452 820.7931,-277.8116 826.4263,-191.6055 826.623,-144.0223"/>
<polygon fill="#00ff00" stroke="#00ff00" stroke-width=".4486" points="830.1227,-143.9019 826.5843,-133.9154 823.1227,-143.9287 830.1227,-143.9019"/>
</g>
<!-- 630 -->
<g id="node29" class="node">
<title>630</title>
<ellipse fill="#ffffff" stroke="#000000" cx="723.6852" cy="-309.5254" rx="21.4286" ry="21.4286"/>
<text text-anchor="middle" x="723.6852" y="-307.3254" font-family="Times,serif" font-size="9.00" fill="#000000">630</text>
</g>
<!-- x&#45;lm2&#45;vec&#45;&gt;630 -->
<g id="edge28" class="edge">
<title>x&#45;lm2&#45;vec&#45;&gt;630</title>
<path fill="none" stroke="#00ff00" stroke-width=".6025" d="M721.8843,-392.8797C722.1437,-380.8761 722.6104,-359.2726 723.0038,-341.067"/>
<polygon fill="#00ff00" stroke="#00ff00" stroke-width=".6025" points="726.5078,-340.9121 723.2248,-330.8388 719.5095,-340.7608 726.5078,-340.9121"/>
</g>
<!-- y&#45;lm2&#45;vec -->
<g id="node8" class="node">
<title>y&#45;lm2&#45;vec</title>
<polygon fill="#d3d3d3" stroke="#000000" points="684.1852,-318.5254 631.1852,-318.5254 631.1852,-300.5254 684.1852,-300.5254 684.1852,-318.5254"/>
<text text-anchor="middle" x="657.6852" y="-307.3254" font-family="Times,serif" font-size="9.00" fill="#000000">y&#45;lm2&#45;vec</text>
</g>
<!-- y&#45;lm2&#45;vec&#45;&gt;none -->
<g id="edge9" class="edge">
<title>y&#45;lm2&#45;vec&#45;&gt;none</title>
<path fill="none" stroke="#ff0000" stroke-width=".4175" d="M661.3813,-300.3502C676.4529,-262.9354 733.6979,-120.8264 759.6979,-56.2823"/>
<polygon fill="#ff0000" stroke="#ff0000" stroke-width=".4175" points="763.1012,-57.2008 763.5912,-46.6173 756.6082,-54.5852 763.1012,-57.2008"/>
</g>
<!-- y&#45;lm2&#45;vec&#45;&gt;backward -->
<g id="edge11" class="edge">
<title>y&#45;lm2&#45;vec&#45;&gt;backward</title>
<path fill="none" stroke="#00ff00" stroke-width=".1657" stroke-dasharray="1,5" d="M647.9337,-300.3339C640.0322,-293.3063 628.335,-283.816 616.6852,-277.7056 557.0899,-246.4475 481.5471,-225.8811 434.1496,-214.9995"/>
<polygon fill="#00ff00" stroke="#00ff00" stroke-width=".1657" points="434.7124,-211.5388 424.1883,-212.7603 433.1771,-218.3683 434.7124,-211.5388"/>
</g>
<!-- x&#45;other&#45;vec -->
<g id="node9" class="node">
<title>x&#45;other&#45;vec</title>
<polygon fill="#d3d3d3" stroke="#000000" points="74.6852,-411.094 16.6852,-411.094 16.6852,-393.094 74.6852,-393.094 74.6852,-411.094"/>
<text text-anchor="middle" x="45.6852" y="-399.894" font-family="Times,serif" font-size="9.00" fill="#000000">x&#45;other&#45;vec</text>
</g>
<!-- x&#45;other&#45;vec&#45;&gt;none -->
<g id="edge7" class="edge">
<title>x&#45;other&#45;vec&#45;&gt;none</title>
<path fill="none" stroke="#00ff00" stroke-width=".3359" stroke-dasharray="1,5" d="M42.1513,-392.913C34.4274,-371.2327 18.3671,-315.8221 39.6852,-277.7056 84.4979,-197.5815 133.925,-211.3337 215.6852,-169.5807 303.9677,-124.4971 326.4566,-111.6121 421.6852,-84.0833 535.0939,-51.2989 674.6074,-34.0168 738.1834,-27.351"/>
<polygon fill="#00ff00" stroke="#00ff00" stroke-width=".3359" points="738.8443,-30.8017 748.4351,-26.2998 738.1302,-23.8382 738.8443,-30.8017"/>
</g>
<!-- x&#45;other&#45;vec&#45;&gt;right -->
<g id="edge5" class="edge">
<title>x&#45;other&#45;vec&#45;&gt;right</title>
<path fill="none" stroke="#00ff00" stroke-width=".6493" stroke-dasharray="1,5" d="M48.2733,-392.8797C51.5742,-381.1273 57.4599,-360.1724 62.5039,-342.2141"/>
<polygon fill="#00ff00" stroke="#00ff00" stroke-width=".6493" points="65.9394,-342.9258 65.2739,-332.3519 59.2001,-341.0329 65.9394,-342.9258"/>
</g>
<!-- x&#45;other&#45;vec&#45;&gt;forward -->
<g id="edge40" class="edge">
<title>x&#45;other&#45;vec&#45;&gt;forward</title>
<path fill="none" stroke="#ff0000" stroke-width=".543" stroke-dasharray="1,5" d="M69.3127,-393.0669C84.1484,-387.7342 103.7954,-381.2771 121.6852,-377.3452 254.5689,-348.1399 293.8727,-375.0569 425.6852,-341.3452 439.2693,-337.871 453.6295,-332.6046 466.3269,-327.3504"/>
<polygon fill="#ff0000" stroke="#ff0000" stroke-width=".543" points="467.8469,-330.5072 475.6722,-323.3648 465.1008,-324.0684 467.8469,-330.5072"/>
</g>
<!-- y&#45;other&#45;vec -->
<g id="node10" class="node">
<title>y&#45;other&#45;vec</title>
<polygon fill="#d3d3d3" stroke="#000000" points="502.6852,-480.8427 444.6852,-480.8427 444.6852,-462.8427 502.6852,-462.8427 502.6852,-480.8427"/>
<text text-anchor="middle" x="473.6852" y="-469.6427" font-family="Times,serif" font-size="9.00" fill="#000000">y&#45;other&#45;vec</text>
</g>
<!-- y&#45;other&#45;vec&#45;&gt;forward -->
<g id="edge22" class="edge">
<title>y&#45;other&#45;vec&#45;&gt;forward</title>
<path fill="none" stroke="#00ff00" stroke-width=".1965" stroke-dasharray="1,5" d="M482.1541,-462.6864C489.4429,-454.1411 499.4361,-440.6641 503.6852,-426.8427 511.1596,-402.5308 511.58,-374.0225 510.0497,-351.1966"/>
<polygon fill="#00ff00" stroke="#00ff00" stroke-width=".1965" points="513.5312,-350.8258 509.2277,-341.1444 506.5545,-351.3964 513.5312,-350.8258"/>
</g>
<!-- y&#45;other&#45;vec&#45;&gt;backward -->
<g id="edge3" class="edge">
<title>y&#45;other&#45;vec&#45;&gt;backward</title>
<path fill="none" stroke="#ff0000" stroke-width=".4879" stroke-dasharray="1,5" d="M446.8939,-462.7934C428.7565,-455.5095 405.3371,-443.6906 389.6852,-426.8427 361.3829,-396.3775 360.3178,-382.0224 351.6852,-341.3452 345.8135,-313.6772 345.0397,-305.1981 351.6852,-277.7056 354.3669,-266.6117 359.0668,-255.3094 364.2357,-245.0459"/>
<polygon fill="#ff0000" stroke="#ff0000" stroke-width=".4879" points="367.4684,-246.421 369.0702,-235.9479 361.287,-243.1362 367.4684,-246.421"/>
</g>
<!-- 866 -->
<g id="node18" class="node">
<title>866</title>
<ellipse fill="#ffffff" stroke="#000000" cx="473.6852" cy="-402.094" rx="21.4286" ry="21.4286"/>
<text text-anchor="middle" x="473.6852" y="-399.894" font-family="Times,serif" font-size="9.00" fill="#000000">866</text>
</g>
<!-- y&#45;other&#45;vec&#45;&gt;866 -->
<g id="edge30" class="edge">
<title>y&#45;other&#45;vec&#45;&gt;866</title>
<path fill="none" stroke="#ff0000" stroke-width=".4609" d="M473.6852,-462.7243C473.6852,-455.3021 473.6852,-444.3633 473.6852,-433.8129"/>
<polygon fill="#ff0000" stroke="#ff0000" stroke-width=".4609" points="477.1853,-433.5365 473.6852,-423.5365 470.1853,-433.5365 477.1853,-433.5365"/>
</g>
<!-- x&#45;other&#45;vel -->
<g id="node11" class="node">
<title>x&#45;other&#45;vel</title>
<polygon fill="#d3d3d3" stroke="#000000" points="842.6852,-480.8427 786.6852,-480.8427 786.6852,-462.8427 842.6852,-462.8427 842.6852,-480.8427"/>
<text text-anchor="middle" x="814.6852" y="-469.6427" font-family="Times,serif" font-size="9.00" fill="#000000">x&#45;other&#45;vel</text>
</g>
<!-- x&#45;other&#45;vel&#45;&gt;none -->
<g id="edge23" class="edge">
<title>x&#45;other&#45;vel&#45;&gt;none</title>
<path fill="none" stroke="#ff0000" stroke-width=".3276" d="M842.9151,-467.9625C870.5322,-462.8489 912.3216,-451.4316 939.6852,-426.8427 982.8037,-388.0966 996.6852,-367.4949 996.6852,-309.5254 996.6852,-309.5254 996.6852,-309.5254 996.6852,-205.6432 996.6852,-108.6621 868.4232,-54.4679 806.0115,-33.8379"/>
<polygon fill="#ff0000" stroke="#ff0000" stroke-width=".3276" points="806.8249,-30.4233 796.2338,-30.7029 804.6877,-37.089 806.8249,-30.4233"/>
</g>
<!-- x&#45;other&#45;vel&#45;&gt;left -->
<g id="edge24" class="edge">
<title>x&#45;other&#45;vel&#45;&gt;left</title>
<path fill="none" stroke="#ff0000" stroke-width=".3525" stroke-dasharray="1,5" d="M819.3289,-462.6508C831.4271,-438.7026 864.2777,-373.6754 883.0487,-336.5186"/>
<polygon fill="#ff0000" stroke="#ff0000" stroke-width=".3525" points="886.3336,-337.7782 887.7188,-327.2743 880.0856,-334.6218 886.3336,-337.7782"/>
</g>
<!-- x&#45;other&#45;vel&#45;&gt;forward -->
<g id="edge26" class="edge">
<title>x&#45;other&#45;vel&#45;&gt;forward</title>
<path fill="none" stroke="#ff0000" stroke-width=".4184" d="M786.6264,-469.0292C752.6535,-464.5535 694.7663,-453.4156 652.6852,-426.8427 628.0458,-411.2837 631.9415,-396.156 609.6852,-377.3452 586.2243,-357.5162 576.4384,-358.0898 550.6852,-341.3452 546.92,-338.8971 543.0138,-336.295 539.1405,-333.6744"/>
<polygon fill="#ff0000" stroke="#ff0000" stroke-width=".4184" points="541.0121,-330.7141 530.7813,-327.9606 537.0619,-336.4931 541.0121,-330.7141"/>
</g>
<!-- x&#45;other&#45;vel&#45;&gt;backward -->
<g id="edge1" class="edge">
<title>x&#45;other&#45;vel&#45;&gt;backward</title>
<path fill="none" stroke="#ff0000" stroke-width=".3831" stroke-dasharray="1,5" d="M786.4413,-466.7072C758.818,-460.6534 716.5241,-448.5521 685.6852,-426.8427 662.557,-410.5613 667.4618,-395.3947 645.6852,-377.3452 619.6589,-355.7733 602.4123,-365.4231 578.6852,-341.3452 556.3222,-318.6515 568.7491,-299.6868 545.6852,-277.7056 514.0696,-247.5741 467.6196,-228.4046 433.4428,-217.4758"/>
<polygon fill="#ff0000" stroke="#ff0000" stroke-width=".3831" points="434.2938,-214.0757 423.7066,-214.4777 432.2336,-220.7657 434.2938,-214.0757"/>
</g>
<!-- 1028 -->
<g id="node19" class="node">
<title>1028</title>
<ellipse fill="#ffffff" stroke="#000000" cx="905.6852" cy="-402.094" rx="25" ry="25"/>
<text text-anchor="middle" x="905.6852" y="-399.894" font-family="Times,serif" font-size="9.00" fill="#000000">1028</text>
</g>
<!-- x&#45;other&#45;vel&#45;&gt;1028 -->
<g id="edge32" class="edge">
<title>x&#45;other&#45;vel&#45;&gt;1028</title>
<path fill="none" stroke="#00ff00" stroke-width=".1902" d="M826.5819,-462.7243C839.4994,-452.8234 860.581,-436.665 877.7335,-423.5181"/>
<polygon fill="#00ff00" stroke="#00ff00" stroke-width=".1902" points="879.9776,-426.208 885.7852,-417.3467 875.7192,-420.6522 879.9776,-426.208"/>
</g>
<!-- 2542 -->
<g id="node23" class="node">
<title>2542</title>
<ellipse fill="#ffffff" stroke="#000000" cx="575.6852" cy="-402.094" rx="25" ry="25"/>
<text text-anchor="middle" x="575.6852" y="-399.894" font-family="Times,serif" font-size="9.00" fill="#000000">2542</text>
</g>
<!-- x&#45;other&#45;vel&#45;&gt;2542 -->
<g id="edge51" class="edge">
<title>x&#45;other&#45;vel&#45;&gt;2542</title>
<path fill="none" stroke="#00ff00" stroke-width=".6655" d="M786.5945,-468.6188C747.0327,-463.3962 673.1969,-451.1263 614.6852,-426.8427 611.4009,-425.4796 608.0842,-423.8462 604.8449,-422.077"/>
<polygon fill="#00ff00" stroke="#00ff00" stroke-width=".6655" points="606.3992,-418.9297 596.0118,-416.8431 602.8308,-424.9519 606.3992,-418.9297"/>
</g>
<!-- x&#45;other&#45;vel&#45;&gt;1138 -->
<g id="edge39" class="edge">
<title>x&#45;other&#45;vel&#45;&gt;1138</title>
<path fill="none" stroke="#00ff00" stroke-width=".3791" stroke-dasharray="1,5" d="M842.8694,-468.4344C881.7943,-463.0512 953.6612,-450.6549 1010.6852,-426.8427 1013.9666,-425.4725 1017.2813,-423.8344 1020.5195,-422.0623"/>
<polygon fill="#00ff00" stroke="#00ff00" stroke-width=".3791" points="1022.5352,-424.9361 1029.351,-416.8247 1018.9645,-418.9153 1022.5352,-424.9361"/>
</g>
<!-- 2259 -->
<g id="node27" class="node">
<title>2259</title>
<ellipse fill="#ffffff" stroke="#000000" cx="871.6852" cy="-205.6432" rx="25" ry="25"/>
<text text-anchor="middle" x="871.6852" y="-203.4432" font-family="Times,serif" font-size="9.00" fill="#000000">2259</text>
</g>
<!-- x&#45;other&#45;vel&#45;&gt;2259 -->
<g id="edge44" class="edge">
<title>x&#45;other&#45;vel&#45;&gt;2259</title>
<path fill="none" stroke="#00ff00" stroke-width=".1958" d="M816.6048,-462.7181C820.1551,-445.854 827.9957,-408.6681 834.6852,-377.3452 844.8435,-329.7805 856.7065,-274.8333 864.2068,-240.1669"/>
<polygon fill="#00ff00" stroke="#00ff00" stroke-width=".1958" points="867.6931,-240.6042 866.3876,-230.0901 860.8515,-239.1235 867.6931,-240.6042"/>
</g>
<!-- y&#45;other&#45;vel -->
<g id="node12" class="node">
<title>y&#45;other&#45;vel</title>
<polygon fill="#d3d3d3" stroke="#000000" points="416.6852,-318.5254 360.6852,-318.5254 360.6852,-300.5254 416.6852,-300.5254 416.6852,-318.5254"/>
<text text-anchor="middle" x="388.6852" y="-307.3254" font-family="Times,serif" font-size="9.00" fill="#000000">y&#45;other&#45;vel</text>
</g>
<!-- y&#45;other&#45;vel&#45;&gt;backward -->
<g id="edge13" class="edge">
<title>y&#45;other&#45;vel&#45;&gt;backward</title>
<path fill="none" stroke="#ff0000" stroke-width=".1172" stroke-dasharray="1,5" d="M388.6852,-300.3066C388.6852,-289.3803 388.6852,-270.3614 388.6852,-252.2238"/>
<polygon fill="#ff0000" stroke="#ff0000" stroke-width=".1172" points="392.1853,-252.0058 388.6852,-242.0058 385.1853,-252.0058 392.1853,-252.0058"/>
</g>
<!-- 297 -->
<g id="node22" class="node">
<title>297</title>
<ellipse fill="#ffffff" stroke="#000000" cx="628.6852" cy="-205.6432" rx="21.4286" ry="21.4286"/>
<text text-anchor="middle" x="628.6852" y="-203.4432" font-family="Times,serif" font-size="9.00" fill="#000000">297</text>
</g>
<!-- forward&#45;&gt;297 -->
<g id="edge55" class="edge">
<title>forward&#45;&gt;297</title>
<path fill="none" stroke="#00ff00" stroke-width=".3302" d="M529.1837,-289.0016C550.9634,-270.7555 582.6329,-244.224 604.3599,-226.0219"/>
<polygon fill="#00ff00" stroke="#00ff00" stroke-width=".3302" points="606.7411,-228.5931 612.1589,-219.4883 602.2457,-223.2272 606.7411,-228.5931"/>
</g>
<!-- 866&#45;&gt;forward -->
<g id="edge31" class="edge">
<title>866&#45;&gt;forward</title>
<path fill="none" stroke="#ff0000" stroke-width=".2866" stroke-dasharray="1,5" d="M480.5651,-381.55C483.7383,-372.0748 487.6182,-360.4892 491.3306,-349.4035"/>
<polygon fill="#ff0000" stroke="#ff0000" stroke-width=".2866" points="494.6712,-350.4497 494.528,-339.8559 488.0335,-348.2268 494.6712,-350.4497"/>
</g>
<!-- 1028&#45;&gt;left -->
<g id="edge33" class="edge">
<title>1028&#45;&gt;left</title>
<path fill="none" stroke="#ff0000" stroke-width=".2305" stroke-dasharray="1,5" d="M903.2734,-377.2873C902.1458,-365.6894 900.7934,-351.7797 899.6082,-339.5887"/>
<polygon fill="#ff0000" stroke="#ff0000" stroke-width=".2305" points="903.0708,-339.0336 898.6194,-329.4192 896.1036,-339.711 903.0708,-339.0336"/>
</g>
<!-- 2496&#45;&gt;left -->
<g id="edge50" class="edge">
<title>2496&#45;&gt;left</title>
<path fill="none" stroke="#ff0000" stroke-width=".4099" stroke-dasharray="1,5" d="M1097.4315,-386.1755C1093.0707,-382.9972 1088.3468,-379.8659 1083.6852,-377.3452 1030.9276,-348.8176 963.6883,-327.7836 925.8971,-317.2052"/>
<polygon fill="#ff0000" stroke="#ff0000" stroke-width=".4099" points="926.6254,-313.7756 916.0555,-314.5012 924.7709,-320.5255 926.6254,-313.7756"/>
</g>
<!-- 2280&#45;&gt;1231 -->
<g id="edge47" class="edge">
<title>2280&#45;&gt;1231</title>
<path fill="none" stroke="#00ff00" stroke-width=".2612" stroke-dasharray="1,5" d="M279.6852,-377.2873C279.6852,-367.2224 279.6852,-355.4164 279.6852,-344.5037"/>
<polygon fill="#00ff00" stroke="#00ff00" stroke-width=".2612" points="283.1853,-344.4005 279.6852,-334.4006 276.1853,-344.4006 283.1853,-344.4005"/>
</g>
<!-- 297&#45;&gt;none -->
<g id="edge27" class="edge">
<title>297&#45;&gt;none</title>
<path fill="none" stroke="#ff0000" stroke-width=".4405" d="M626.4022,-184.4938C624.7285,-158.3103 625.7731,-113.5735 647.6852,-84.0833 669.7132,-54.4372 710.2299,-38.7607 739.1654,-30.9574"/>
<polygon fill="#ff0000" stroke="#ff0000" stroke-width=".4405" points="740.0245,-34.3504 748.8679,-28.5156 738.3161,-27.562 740.0245,-34.3504"/>
</g>
<!-- 1749 -->
<g id="node28" class="node">
<title>1749</title>
<ellipse fill="#ffffff" stroke="#000000" cx="681.6852" cy="-108.832" rx="25" ry="25"/>
<text text-anchor="middle" x="681.6852" y="-106.632" font-family="Times,serif" font-size="9.00" fill="#000000">1749</text>
</g>
<!-- 297&#45;&gt;1749 -->
<g id="edge41" class="edge">
<title>297&#45;&gt;1749</title>
<path fill="none" stroke="#ff0000" stroke-width=".4523" d="M638.9042,-186.977C646.2466,-173.5651 656.3117,-155.18 664.8345,-139.612"/>
<polygon fill="#ff0000" stroke="#ff0000" stroke-width=".4523" points="667.9101,-141.2825 669.6422,-130.8302 661.77,-137.9211 667.9101,-141.2825"/>
</g>
<!-- 2542&#45;&gt;forward -->
<g id="edge52" class="edge">
<title>2542&#45;&gt;forward</title>
<path fill="none" stroke="#ff0000" stroke-width=".4204" d="M560.2793,-382.008C551.5807,-370.6669 540.4822,-356.1968 530.4925,-343.1725"/>
<polygon fill="#ff0000" stroke="#ff0000" stroke-width=".4204" points="532.9876,-340.6746 524.1244,-334.8699 527.4333,-344.9348 532.9876,-340.6746"/>
</g>
<!-- 1231&#45;&gt;backward -->
<g id="edge37" class="edge">
<title>1231&#45;&gt;backward</title>
<path fill="none" stroke="#00ff00" stroke-width=".2254" stroke-dasharray="1,5" d="M297.6844,-292.3714C313.2716,-277.516 336.2311,-255.6345 355.188,-237.5677"/>
<polygon fill="#00ff00" stroke="#00ff00" stroke-width=".2254" points="357.6747,-240.0327 362.499,-230.5999 352.8453,-234.9654 357.6747,-240.0327"/>
</g>
<!-- 2606&#45;&gt;none -->
<g id="edge54" class="edge">
<title>2606&#45;&gt;none</title>
<path fill="none" stroke="#ff0000" stroke-width=".1202" d="M812.3111,-87.4358C805.8263,-77.0613 797.9385,-64.4422 790.9129,-53.2025"/>
<polygon fill="#ff0000" stroke="#ff0000" stroke-width=".1202" points="793.775,-51.1781 785.5066,-44.5535 787.8392,-54.8884 793.775,-51.1781"/>
</g>
<!-- 1138&#45;&gt;none -->
<g id="edge35" class="edge">
<title>1138&#45;&gt;none</title>
<path fill="none" stroke="#ff0000" stroke-width=".3688" d="M1054.9675,-377.7347C1066.1377,-319.1104 1085.3824,-168.7617 1010.6852,-84.0833 983.8922,-53.7101 865.6678,-35.339 806.5649,-27.8924"/>
<polygon fill="#ff0000" stroke="#ff0000" stroke-width=".3688" points="806.9427,-24.4126 796.591,-26.669 806.0904,-31.3605 806.9427,-24.4126"/>
</g>
<!-- 2259&#45;&gt;none -->
<g id="edge45" class="edge">
<title>2259&#45;&gt;none</title>
<path fill="none" stroke="#00ff00" stroke-width=".2697" d="M875.0337,-180.9616C877.3021,-155.0018 877.2363,-113.8631 859.6852,-84.0833 847.1132,-62.7516 823.6271,-47.2274 804.2233,-37.3145"/>
<polygon fill="#00ff00" stroke="#00ff00" stroke-width=".2697" points="805.6178,-34.1011 795.0915,-32.898 802.5701,-40.4028 805.6178,-34.1011"/>
</g>
<!-- 1749&#45;&gt;none -->
<g id="edge42" class="edge">
<title>1749&#45;&gt;none</title>
<path fill="none" stroke="#00ff00" stroke-width=".1276" d="M700.1005,-91.6734C713.7219,-78.9815 732.4353,-61.545 747.4492,-47.5556"/>
<polygon fill="#00ff00" stroke="#00ff00" stroke-width=".1276" points="749.9864,-49.9754 754.9167,-40.5977 745.2145,-44.854 749.9864,-49.9754"/>
</g>
</g>
</svg>
