<?xml version="1.0" encoding="utf-8" standalone="no"?>
<!DOCTYPE svg PUBLIC "-//W3C//DTD SVG 1.1//EN"
  "http://www.w3.org/Graphics/SVG/1.1/DTD/svg11.dtd">
<!-- Created with matplotlib (https://matplotlib.org/) -->
<svg height="345.6pt" version="1.1" viewBox="0 0 460.8 345.6" width="460.8pt" xmlns="http://www.w3.org/2000/svg" xmlns:xlink="http://www.w3.org/1999/xlink">
 <metadata>
  <rdf:RDF xmlns:cc="http://creativecommons.org/ns#" xmlns:dc="http://purl.org/dc/elements/1.1/" xmlns:rdf="http://www.w3.org/1999/02/22-rdf-syntax-ns#">
   <cc:Work>
    <dc:type rdf:resource="http://purl.org/dc/dcmitype/StillImage"/>
    <dc:date>2021-02-24T11:53:06.852152</dc:date>
    <dc:format>image/svg+xml</dc:format>
    <dc:creator>
     <cc:Agent>
      <dc:title>Matplotlib v3.3.4, https://matplotlib.org/</dc:title>
     </cc:Agent>
    </dc:creator>
   </cc:Work>
  </rdf:RDF>
 </metadata>
 <defs>
  <style type="text/css">*{stroke-linecap:butt;stroke-linejoin:round;}</style>
 </defs>
 <g id="figure_1">
  <g id="patch_1">
   <path d="M 0 345.6 
L 460.8 345.6 
L 460.8 0 
L 0 0 
z
" style="fill:#ffffff;"/>
  </g>
  <g id="axes_1">
   <g id="patch_2">
    <path d="M 57.6 307.584 
L 414.72 307.584 
L 414.72 41.472 
L 57.6 41.472 
z
" style="fill:#ffffff;"/>
   </g>
   <g id="matplotlib.axis_1">
    <g id="xtick_1">
     <g id="line2d_1">
      <path clip-path="url(#p0769230c45)" d="M 73.832727 307.584 
L 73.832727 41.472 
" style="fill:none;stroke:#b0b0b0;stroke-linecap:square;stroke-width:0.8;"/>
     </g>
     <g id="line2d_2">
      <defs>
       <path d="M 0 0 
L 0 3.5 
" id="m2a93f34fd3" style="stroke:#000000;stroke-width:0.8;"/>
      </defs>
      <g>
       <use style="stroke:#000000;stroke-width:0.8;" x="73.832727" xlink:href="#m2a93f34fd3" y="307.584"/>
      </g>
     </g>
     <g id="text_1">
      <!-- 0 -->
      <g transform="translate(70.651477 322.182437)scale(0.1 -0.1)">
       <defs>
        <path d="M 31.78125 66.40625 
Q 24.171875 66.40625 20.328125 58.90625 
Q 16.5 51.421875 16.5 36.375 
Q 16.5 21.390625 20.328125 13.890625 
Q 24.171875 6.390625 31.78125 6.390625 
Q 39.453125 6.390625 43.28125 13.890625 
Q 47.125 21.390625 47.125 36.375 
Q 47.125 51.421875 43.28125 58.90625 
Q 39.453125 66.40625 31.78125 66.40625 
z
M 31.78125 74.21875 
Q 44.046875 74.21875 50.515625 64.515625 
Q 56.984375 54.828125 56.984375 36.375 
Q 56.984375 17.96875 50.515625 8.265625 
Q 44.046875 -1.421875 31.78125 -1.421875 
Q 19.53125 -1.421875 13.0625 8.265625 
Q 6.59375 17.96875 6.59375 36.375 
Q 6.59375 54.828125 13.0625 64.515625 
Q 19.53125 74.21875 31.78125 74.21875 
z
" id="DejaVuSans-48"/>
       </defs>
       <use xlink:href="#DejaVuSans-48"/>
      </g>
     </g>
    </g>
    <g id="xtick_2">
     <g id="line2d_3">
      <path clip-path="url(#p0769230c45)" d="M 142.253074 307.584 
L 142.253074 41.472 
" style="fill:none;stroke:#b0b0b0;stroke-linecap:square;stroke-width:0.8;"/>
     </g>
     <g id="line2d_4">
      <g>
       <use style="stroke:#000000;stroke-width:0.8;" x="142.253074" xlink:href="#m2a93f34fd3" y="307.584"/>
      </g>
     </g>
     <g id="text_2">
      <!-- 200 -->
      <g transform="translate(132.709324 322.182437)scale(0.1 -0.1)">
       <defs>
        <path d="M 19.1875 8.296875 
L 53.609375 8.296875 
L 53.609375 0 
L 7.328125 0 
L 7.328125 8.296875 
Q 12.9375 14.109375 22.625 23.890625 
Q 32.328125 33.6875 34.8125 36.53125 
Q 39.546875 41.84375 41.421875 45.53125 
Q 43.3125 49.21875 43.3125 52.78125 
Q 43.3125 58.59375 39.234375 62.25 
Q 35.15625 65.921875 28.609375 65.921875 
Q 23.96875 65.921875 18.8125 64.3125 
Q 13.671875 62.703125 7.8125 59.421875 
L 7.8125 69.390625 
Q 13.765625 71.78125 18.9375 73 
Q 24.125 74.21875 28.421875 74.21875 
Q 39.75 74.21875 46.484375 68.546875 
Q 53.21875 62.890625 53.21875 53.421875 
Q 53.21875 48.921875 51.53125 44.890625 
Q 49.859375 40.875 45.40625 35.40625 
Q 44.1875 33.984375 37.640625 27.21875 
Q 31.109375 20.453125 19.1875 8.296875 
z
" id="DejaVuSans-50"/>
       </defs>
       <use xlink:href="#DejaVuSans-50"/>
       <use x="63.623047" xlink:href="#DejaVuSans-48"/>
       <use x="127.246094" xlink:href="#DejaVuSans-48"/>
      </g>
     </g>
    </g>
    <g id="xtick_3">
     <g id="line2d_5">
      <path clip-path="url(#p0769230c45)" d="M 210.673421 307.584 
L 210.673421 41.472 
" style="fill:none;stroke:#b0b0b0;stroke-linecap:square;stroke-width:0.8;"/>
     </g>
     <g id="line2d_6">
      <g>
       <use style="stroke:#000000;stroke-width:0.8;" x="210.673421" xlink:href="#m2a93f34fd3" y="307.584"/>
      </g>
     </g>
     <g id="text_3">
      <!-- 400 -->
      <g transform="translate(201.129671 322.182437)scale(0.1 -0.1)">
       <defs>
        <path d="M 37.796875 64.3125 
L 12.890625 25.390625 
L 37.796875 25.390625 
z
M 35.203125 72.90625 
L 47.609375 72.90625 
L 47.609375 25.390625 
L 58.015625 25.390625 
L 58.015625 17.1875 
L 47.609375 17.1875 
L 47.609375 0 
L 37.796875 0 
L 37.796875 17.1875 
L 4.890625 17.1875 
L 4.890625 26.703125 
z
" id="DejaVuSans-52"/>
       </defs>
       <use xlink:href="#DejaVuSans-52"/>
       <use x="63.623047" xlink:href="#DejaVuSans-48"/>
       <use x="127.246094" xlink:href="#DejaVuSans-48"/>
      </g>
     </g>
    </g>
    <g id="xtick_4">
     <g id="line2d_7">
      <path clip-path="url(#p0769230c45)" d="M 279.093768 307.584 
L 279.093768 41.472 
" style="fill:none;stroke:#b0b0b0;stroke-linecap:square;stroke-width:0.8;"/>
     </g>
     <g id="line2d_8">
      <g>
       <use style="stroke:#000000;stroke-width:0.8;" x="279.093768" xlink:href="#m2a93f34fd3" y="307.584"/>
      </g>
     </g>
     <g id="text_4">
      <!-- 600 -->
      <g transform="translate(269.550018 322.182437)scale(0.1 -0.1)">
       <defs>
        <path d="M 33.015625 40.375 
Q 26.375 40.375 22.484375 35.828125 
Q 18.609375 31.296875 18.609375 23.390625 
Q 18.609375 15.53125 22.484375 10.953125 
Q 26.375 6.390625 33.015625 6.390625 
Q 39.65625 6.390625 43.53125 10.953125 
Q 47.40625 15.53125 47.40625 23.390625 
Q 47.40625 31.296875 43.53125 35.828125 
Q 39.65625 40.375 33.015625 40.375 
z
M 52.59375 71.296875 
L 52.59375 62.3125 
Q 48.875 64.0625 45.09375 64.984375 
Q 41.3125 65.921875 37.59375 65.921875 
Q 27.828125 65.921875 22.671875 59.328125 
Q 17.53125 52.734375 16.796875 39.40625 
Q 19.671875 43.65625 24.015625 45.921875 
Q 28.375 48.1875 33.59375 48.1875 
Q 44.578125 48.1875 50.953125 41.515625 
Q 57.328125 34.859375 57.328125 23.390625 
Q 57.328125 12.15625 50.6875 5.359375 
Q 44.046875 -1.421875 33.015625 -1.421875 
Q 20.359375 -1.421875 13.671875 8.265625 
Q 6.984375 17.96875 6.984375 36.375 
Q 6.984375 53.65625 15.1875 63.9375 
Q 23.390625 74.21875 37.203125 74.21875 
Q 40.921875 74.21875 44.703125 73.484375 
Q 48.484375 72.75 52.59375 71.296875 
z
" id="DejaVuSans-54"/>
       </defs>
       <use xlink:href="#DejaVuSans-54"/>
       <use x="63.623047" xlink:href="#DejaVuSans-48"/>
       <use x="127.246094" xlink:href="#DejaVuSans-48"/>
      </g>
     </g>
    </g>
    <g id="xtick_5">
     <g id="line2d_9">
      <path clip-path="url(#p0769230c45)" d="M 347.514114 307.584 
L 347.514114 41.472 
" style="fill:none;stroke:#b0b0b0;stroke-linecap:square;stroke-width:0.8;"/>
     </g>
     <g id="line2d_10">
      <g>
       <use style="stroke:#000000;stroke-width:0.8;" x="347.514114" xlink:href="#m2a93f34fd3" y="307.584"/>
      </g>
     </g>
     <g id="text_5">
      <!-- 800 -->
      <g transform="translate(337.970364 322.182437)scale(0.1 -0.1)">
       <defs>
        <path d="M 31.78125 34.625 
Q 24.75 34.625 20.71875 30.859375 
Q 16.703125 27.09375 16.703125 20.515625 
Q 16.703125 13.921875 20.71875 10.15625 
Q 24.75 6.390625 31.78125 6.390625 
Q 38.8125 6.390625 42.859375 10.171875 
Q 46.921875 13.96875 46.921875 20.515625 
Q 46.921875 27.09375 42.890625 30.859375 
Q 38.875 34.625 31.78125 34.625 
z
M 21.921875 38.8125 
Q 15.578125 40.375 12.03125 44.71875 
Q 8.5 49.078125 8.5 55.328125 
Q 8.5 64.0625 14.71875 69.140625 
Q 20.953125 74.21875 31.78125 74.21875 
Q 42.671875 74.21875 48.875 69.140625 
Q 55.078125 64.0625 55.078125 55.328125 
Q 55.078125 49.078125 51.53125 44.71875 
Q 48 40.375 41.703125 38.8125 
Q 48.828125 37.15625 52.796875 32.3125 
Q 56.78125 27.484375 56.78125 20.515625 
Q 56.78125 9.90625 50.3125 4.234375 
Q 43.84375 -1.421875 31.78125 -1.421875 
Q 19.734375 -1.421875 13.25 4.234375 
Q 6.78125 9.90625 6.78125 20.515625 
Q 6.78125 27.484375 10.78125 32.3125 
Q 14.796875 37.15625 21.921875 38.8125 
z
M 18.3125 54.390625 
Q 18.3125 48.734375 21.84375 45.5625 
Q 25.390625 42.390625 31.78125 42.390625 
Q 38.140625 42.390625 41.71875 45.5625 
Q 45.3125 48.734375 45.3125 54.390625 
Q 45.3125 60.0625 41.71875 63.234375 
Q 38.140625 66.40625 31.78125 66.40625 
Q 25.390625 66.40625 21.84375 63.234375 
Q 18.3125 60.0625 18.3125 54.390625 
z
" id="DejaVuSans-56"/>
       </defs>
       <use xlink:href="#DejaVuSans-56"/>
       <use x="63.623047" xlink:href="#DejaVuSans-48"/>
       <use x="127.246094" xlink:href="#DejaVuSans-48"/>
      </g>
     </g>
    </g>
    <g id="text_6">
     <!-- Generations -->
     <g transform="translate(205.662344 335.860562)scale(0.1 -0.1)">
      <defs>
       <path d="M 59.515625 10.40625 
L 59.515625 29.984375 
L 43.40625 29.984375 
L 43.40625 38.09375 
L 69.28125 38.09375 
L 69.28125 6.78125 
Q 63.578125 2.734375 56.6875 0.65625 
Q 49.8125 -1.421875 42 -1.421875 
Q 24.90625 -1.421875 15.25 8.5625 
Q 5.609375 18.5625 5.609375 36.375 
Q 5.609375 54.25 15.25 64.234375 
Q 24.90625 74.21875 42 74.21875 
Q 49.125 74.21875 55.546875 72.453125 
Q 61.96875 70.703125 67.390625 67.28125 
L 67.390625 56.78125 
Q 61.921875 61.421875 55.765625 63.765625 
Q 49.609375 66.109375 42.828125 66.109375 
Q 29.4375 66.109375 22.71875 58.640625 
Q 16.015625 51.171875 16.015625 36.375 
Q 16.015625 21.625 22.71875 14.15625 
Q 29.4375 6.6875 42.828125 6.6875 
Q 48.046875 6.6875 52.140625 7.59375 
Q 56.25 8.5 59.515625 10.40625 
z
" id="DejaVuSans-71"/>
       <path d="M 56.203125 29.59375 
L 56.203125 25.203125 
L 14.890625 25.203125 
Q 15.484375 15.921875 20.484375 11.0625 
Q 25.484375 6.203125 34.421875 6.203125 
Q 39.59375 6.203125 44.453125 7.46875 
Q 49.3125 8.734375 54.109375 11.28125 
L 54.109375 2.78125 
Q 49.265625 0.734375 44.1875 -0.34375 
Q 39.109375 -1.421875 33.890625 -1.421875 
Q 20.796875 -1.421875 13.15625 6.1875 
Q 5.515625 13.8125 5.515625 26.8125 
Q 5.515625 40.234375 12.765625 48.109375 
Q 20.015625 56 32.328125 56 
Q 43.359375 56 49.78125 48.890625 
Q 56.203125 41.796875 56.203125 29.59375 
z
M 47.21875 32.234375 
Q 47.125 39.59375 43.09375 43.984375 
Q 39.0625 48.390625 32.421875 48.390625 
Q 24.90625 48.390625 20.390625 44.140625 
Q 15.875 39.890625 15.1875 32.171875 
z
" id="DejaVuSans-101"/>
       <path d="M 54.890625 33.015625 
L 54.890625 0 
L 45.90625 0 
L 45.90625 32.71875 
Q 45.90625 40.484375 42.875 44.328125 
Q 39.84375 48.1875 33.796875 48.1875 
Q 26.515625 48.1875 22.3125 43.546875 
Q 18.109375 38.921875 18.109375 30.90625 
L 18.109375 0 
L 9.078125 0 
L 9.078125 54.6875 
L 18.109375 54.6875 
L 18.109375 46.1875 
Q 21.34375 51.125 25.703125 53.5625 
Q 30.078125 56 35.796875 56 
Q 45.21875 56 50.046875 50.171875 
Q 54.890625 44.34375 54.890625 33.015625 
z
" id="DejaVuSans-110"/>
       <path d="M 41.109375 46.296875 
Q 39.59375 47.171875 37.8125 47.578125 
Q 36.03125 48 33.890625 48 
Q 26.265625 48 22.1875 43.046875 
Q 18.109375 38.09375 18.109375 28.8125 
L 18.109375 0 
L 9.078125 0 
L 9.078125 54.6875 
L 18.109375 54.6875 
L 18.109375 46.1875 
Q 20.953125 51.171875 25.484375 53.578125 
Q 30.03125 56 36.53125 56 
Q 37.453125 56 38.578125 55.875 
Q 39.703125 55.765625 41.0625 55.515625 
z
" id="DejaVuSans-114"/>
       <path d="M 34.28125 27.484375 
Q 23.390625 27.484375 19.1875 25 
Q 14.984375 22.515625 14.984375 16.5 
Q 14.984375 11.71875 18.140625 8.90625 
Q 21.296875 6.109375 26.703125 6.109375 
Q 34.1875 6.109375 38.703125 11.40625 
Q 43.21875 16.703125 43.21875 25.484375 
L 43.21875 27.484375 
z
M 52.203125 31.203125 
L 52.203125 0 
L 43.21875 0 
L 43.21875 8.296875 
Q 40.140625 3.328125 35.546875 0.953125 
Q 30.953125 -1.421875 24.3125 -1.421875 
Q 15.921875 -1.421875 10.953125 3.296875 
Q 6 8.015625 6 15.921875 
Q 6 25.140625 12.171875 29.828125 
Q 18.359375 34.515625 30.609375 34.515625 
L 43.21875 34.515625 
L 43.21875 35.40625 
Q 43.21875 41.609375 39.140625 45 
Q 35.0625 48.390625 27.6875 48.390625 
Q 23 48.390625 18.546875 47.265625 
Q 14.109375 46.140625 10.015625 43.890625 
L 10.015625 52.203125 
Q 14.9375 54.109375 19.578125 55.046875 
Q 24.21875 56 28.609375 56 
Q 40.484375 56 46.34375 49.84375 
Q 52.203125 43.703125 52.203125 31.203125 
z
" id="DejaVuSans-97"/>
       <path d="M 18.3125 70.21875 
L 18.3125 54.6875 
L 36.8125 54.6875 
L 36.8125 47.703125 
L 18.3125 47.703125 
L 18.3125 18.015625 
Q 18.3125 11.328125 20.140625 9.421875 
Q 21.96875 7.515625 27.59375 7.515625 
L 36.8125 7.515625 
L 36.8125 0 
L 27.59375 0 
Q 17.1875 0 13.234375 3.875 
Q 9.28125 7.765625 9.28125 18.015625 
L 9.28125 47.703125 
L 2.6875 47.703125 
L 2.6875 54.6875 
L 9.28125 54.6875 
L 9.28125 70.21875 
z
" id="DejaVuSans-116"/>
       <path d="M 9.421875 54.6875 
L 18.40625 54.6875 
L 18.40625 0 
L 9.421875 0 
z
M 9.421875 75.984375 
L 18.40625 75.984375 
L 18.40625 64.59375 
L 9.421875 64.59375 
z
" id="DejaVuSans-105"/>
       <path d="M 30.609375 48.390625 
Q 23.390625 48.390625 19.1875 42.75 
Q 14.984375 37.109375 14.984375 27.296875 
Q 14.984375 17.484375 19.15625 11.84375 
Q 23.34375 6.203125 30.609375 6.203125 
Q 37.796875 6.203125 41.984375 11.859375 
Q 46.1875 17.53125 46.1875 27.296875 
Q 46.1875 37.015625 41.984375 42.703125 
Q 37.796875 48.390625 30.609375 48.390625 
z
M 30.609375 56 
Q 42.328125 56 49.015625 48.375 
Q 55.71875 40.765625 55.71875 27.296875 
Q 55.71875 13.875 49.015625 6.21875 
Q 42.328125 -1.421875 30.609375 -1.421875 
Q 18.84375 -1.421875 12.171875 6.21875 
Q 5.515625 13.875 5.515625 27.296875 
Q 5.515625 40.765625 12.171875 48.375 
Q 18.84375 56 30.609375 56 
z
" id="DejaVuSans-111"/>
       <path d="M 44.28125 53.078125 
L 44.28125 44.578125 
Q 40.484375 46.53125 36.375 47.5 
Q 32.28125 48.484375 27.875 48.484375 
Q 21.1875 48.484375 17.84375 46.4375 
Q 14.5 44.390625 14.5 40.28125 
Q 14.5 37.15625 16.890625 35.375 
Q 19.28125 33.59375 26.515625 31.984375 
L 29.59375 31.296875 
Q 39.15625 29.25 43.1875 25.515625 
Q 47.21875 21.78125 47.21875 15.09375 
Q 47.21875 7.46875 41.1875 3.015625 
Q 35.15625 -1.421875 24.609375 -1.421875 
Q 20.21875 -1.421875 15.453125 -0.5625 
Q 10.6875 0.296875 5.421875 2 
L 5.421875 11.28125 
Q 10.40625 8.6875 15.234375 7.390625 
Q 20.0625 6.109375 24.8125 6.109375 
Q 31.15625 6.109375 34.5625 8.28125 
Q 37.984375 10.453125 37.984375 14.40625 
Q 37.984375 18.0625 35.515625 20.015625 
Q 33.0625 21.96875 24.703125 23.78125 
L 21.578125 24.515625 
Q 13.234375 26.265625 9.515625 29.90625 
Q 5.8125 33.546875 5.8125 39.890625 
Q 5.8125 47.609375 11.28125 51.796875 
Q 16.75 56 26.8125 56 
Q 31.78125 56 36.171875 55.265625 
Q 40.578125 54.546875 44.28125 53.078125 
z
" id="DejaVuSans-115"/>
      </defs>
      <use xlink:href="#DejaVuSans-71"/>
      <use x="77.490234" xlink:href="#DejaVuSans-101"/>
      <use x="139.013672" xlink:href="#DejaVuSans-110"/>
      <use x="202.392578" xlink:href="#DejaVuSans-101"/>
      <use x="263.916016" xlink:href="#DejaVuSans-114"/>
      <use x="305.029297" xlink:href="#DejaVuSans-97"/>
      <use x="366.308594" xlink:href="#DejaVuSans-116"/>
      <use x="405.517578" xlink:href="#DejaVuSans-105"/>
      <use x="433.300781" xlink:href="#DejaVuSans-111"/>
      <use x="494.482422" xlink:href="#DejaVuSans-110"/>
      <use x="557.861328" xlink:href="#DejaVuSans-115"/>
     </g>
    </g>
   </g>
   <g id="matplotlib.axis_2">
    <g id="ytick_1">
     <g id="line2d_11">
      <path clip-path="url(#p0769230c45)" d="M 57.6 299.00036 
L 414.72 299.00036 
" style="fill:none;stroke:#b0b0b0;stroke-linecap:square;stroke-width:0.8;"/>
     </g>
     <g id="line2d_12">
      <defs>
       <path d="M 0 0 
L -3.5 0 
" id="me16a992eff" style="stroke:#000000;stroke-width:0.8;"/>
      </defs>
      <g>
       <use style="stroke:#000000;stroke-width:0.8;" x="57.6" xlink:href="#me16a992eff" y="299.00036"/>
      </g>
     </g>
     <g id="text_7">
      <!-- $\mathdefault{-10^{4}}$ -->
      <g transform="translate(24.6 302.799579)scale(0.1 -0.1)">
       <defs>
        <path d="M 10.59375 35.5 
L 73.1875 35.5 
L 73.1875 27.203125 
L 10.59375 27.203125 
z
" id="DejaVuSans-8722"/>
        <path d="M 12.40625 8.296875 
L 28.515625 8.296875 
L 28.515625 63.921875 
L 10.984375 60.40625 
L 10.984375 69.390625 
L 28.421875 72.90625 
L 38.28125 72.90625 
L 38.28125 8.296875 
L 54.390625 8.296875 
L 54.390625 0 
L 12.40625 0 
z
" id="DejaVuSans-49"/>
       </defs>
       <use transform="translate(0 0.684375)" xlink:href="#DejaVuSans-8722"/>
       <use transform="translate(83.789062 0.684375)" xlink:href="#DejaVuSans-49"/>
       <use transform="translate(147.412109 0.684375)" xlink:href="#DejaVuSans-48"/>
       <use transform="translate(211.992188 38.965625)scale(0.7)" xlink:href="#DejaVuSans-52"/>
      </g>
     </g>
    </g>
    <g id="ytick_2">
     <g id="line2d_13">
      <path clip-path="url(#p0769230c45)" d="M 57.6 265.830852 
L 414.72 265.830852 
" style="fill:none;stroke:#b0b0b0;stroke-linecap:square;stroke-width:0.8;"/>
     </g>
     <g id="line2d_14">
      <g>
       <use style="stroke:#000000;stroke-width:0.8;" x="57.6" xlink:href="#me16a992eff" y="265.830852"/>
      </g>
     </g>
     <g id="text_8">
      <!-- $\mathdefault{-10^{3}}$ -->
      <g transform="translate(24.6 269.630071)scale(0.1 -0.1)">
       <defs>
        <path d="M 40.578125 39.3125 
Q 47.65625 37.796875 51.625 33 
Q 55.609375 28.21875 55.609375 21.1875 
Q 55.609375 10.40625 48.1875 4.484375 
Q 40.765625 -1.421875 27.09375 -1.421875 
Q 22.515625 -1.421875 17.65625 -0.515625 
Q 12.796875 0.390625 7.625 2.203125 
L 7.625 11.71875 
Q 11.71875 9.328125 16.59375 8.109375 
Q 21.484375 6.890625 26.8125 6.890625 
Q 36.078125 6.890625 40.9375 10.546875 
Q 45.796875 14.203125 45.796875 21.1875 
Q 45.796875 27.640625 41.28125 31.265625 
Q 36.765625 34.90625 28.71875 34.90625 
L 20.21875 34.90625 
L 20.21875 43.015625 
L 29.109375 43.015625 
Q 36.375 43.015625 40.234375 45.921875 
Q 44.09375 48.828125 44.09375 54.296875 
Q 44.09375 59.90625 40.109375 62.90625 
Q 36.140625 65.921875 28.71875 65.921875 
Q 24.65625 65.921875 20.015625 65.03125 
Q 15.375 64.15625 9.8125 62.3125 
L 9.8125 71.09375 
Q 15.4375 72.65625 20.34375 73.4375 
Q 25.25 74.21875 29.59375 74.21875 
Q 40.828125 74.21875 47.359375 69.109375 
Q 53.90625 64.015625 53.90625 55.328125 
Q 53.90625 49.265625 50.4375 45.09375 
Q 46.96875 40.921875 40.578125 39.3125 
z
" id="DejaVuSans-51"/>
       </defs>
       <use transform="translate(0 0.765625)" xlink:href="#DejaVuSans-8722"/>
       <use transform="translate(83.789062 0.765625)" xlink:href="#DejaVuSans-49"/>
       <use transform="translate(147.412109 0.765625)" xlink:href="#DejaVuSans-48"/>
       <use transform="translate(211.992188 39.046875)scale(0.7)" xlink:href="#DejaVuSans-51"/>
      </g>
     </g>
    </g>
    <g id="ytick_3">
     <g id="line2d_15">
      <path clip-path="url(#p0769230c45)" d="M 57.6 232.661344 
L 414.72 232.661344 
" style="fill:none;stroke:#b0b0b0;stroke-linecap:square;stroke-width:0.8;"/>
     </g>
     <g id="line2d_16">
      <g>
       <use style="stroke:#000000;stroke-width:0.8;" x="57.6" xlink:href="#me16a992eff" y="232.661344"/>
      </g>
     </g>
     <g id="text_9">
      <!-- $\mathdefault{-10^{2}}$ -->
      <g transform="translate(24.6 236.460563)scale(0.1 -0.1)">
       <use transform="translate(0 0.765625)" xlink:href="#DejaVuSans-8722"/>
       <use transform="translate(83.789062 0.765625)" xlink:href="#DejaVuSans-49"/>
       <use transform="translate(147.412109 0.765625)" xlink:href="#DejaVuSans-48"/>
       <use transform="translate(211.992188 39.046875)scale(0.7)" xlink:href="#DejaVuSans-50"/>
      </g>
     </g>
    </g>
    <g id="ytick_4">
     <g id="line2d_17">
      <path clip-path="url(#p0769230c45)" d="M 57.6 199.491836 
L 414.72 199.491836 
" style="fill:none;stroke:#b0b0b0;stroke-linecap:square;stroke-width:0.8;"/>
     </g>
     <g id="line2d_18">
      <g>
       <use style="stroke:#000000;stroke-width:0.8;" x="57.6" xlink:href="#me16a992eff" y="199.491836"/>
      </g>
     </g>
     <g id="text_10">
      <!-- $\mathdefault{-10^{1}}$ -->
      <g transform="translate(24.6 203.291055)scale(0.1 -0.1)">
       <use transform="translate(0 0.684375)" xlink:href="#DejaVuSans-8722"/>
       <use transform="translate(83.789062 0.684375)" xlink:href="#DejaVuSans-49"/>
       <use transform="translate(147.412109 0.684375)" xlink:href="#DejaVuSans-48"/>
       <use transform="translate(211.992188 38.965625)scale(0.7)" xlink:href="#DejaVuSans-49"/>
      </g>
     </g>
    </g>
    <g id="ytick_5">
     <g id="line2d_19">
      <path clip-path="url(#p0769230c45)" d="M 57.6 157.879841 
L 414.72 157.879841 
" style="fill:none;stroke:#b0b0b0;stroke-linecap:square;stroke-width:0.8;"/>
     </g>
     <g id="line2d_20">
      <g>
       <use style="stroke:#000000;stroke-width:0.8;" x="57.6" xlink:href="#me16a992eff" y="157.879841"/>
      </g>
     </g>
     <g id="text_11">
      <!-- $\mathdefault{-10^{0}}$ -->
      <g transform="translate(24.6 161.67906)scale(0.1 -0.1)">
       <use transform="translate(0 0.765625)" xlink:href="#DejaVuSans-8722"/>
       <use transform="translate(83.789062 0.765625)" xlink:href="#DejaVuSans-49"/>
       <use transform="translate(147.412109 0.765625)" xlink:href="#DejaVuSans-48"/>
       <use transform="translate(211.992188 39.046875)scale(0.7)" xlink:href="#DejaVuSans-48"/>
      </g>
     </g>
    </g>
    <g id="ytick_6">
     <g id="line2d_21">
      <path clip-path="url(#p0769230c45)" d="M 57.6 139.452337 
L 414.72 139.452337 
" style="fill:none;stroke:#b0b0b0;stroke-linecap:square;stroke-width:0.8;"/>
     </g>
     <g id="line2d_22">
      <g>
       <use style="stroke:#000000;stroke-width:0.8;" x="57.6" xlink:href="#me16a992eff" y="139.452337"/>
      </g>
     </g>
     <g id="text_12">
      <!-- $\mathdefault{0}$ -->
      <g transform="translate(44.2 143.251555)scale(0.1 -0.1)">
       <use transform="translate(0 0.78125)" xlink:href="#DejaVuSans-48"/>
      </g>
     </g>
    </g>
    <g id="ytick_7">
     <g id="line2d_23">
      <path clip-path="url(#p0769230c45)" d="M 57.6 121.024832 
L 414.72 121.024832 
" style="fill:none;stroke:#b0b0b0;stroke-linecap:square;stroke-width:0.8;"/>
     </g>
     <g id="line2d_24">
      <g>
       <use style="stroke:#000000;stroke-width:0.8;" x="57.6" xlink:href="#me16a992eff" y="121.024832"/>
      </g>
     </g>
     <g id="text_13">
      <!-- $\mathdefault{10^{0}}$ -->
      <g transform="translate(33 124.824051)scale(0.1 -0.1)">
       <use transform="translate(0 0.765625)" xlink:href="#DejaVuSans-49"/>
       <use transform="translate(63.623047 0.765625)" xlink:href="#DejaVuSans-48"/>
       <use transform="translate(128.203125 39.046875)scale(0.7)" xlink:href="#DejaVuSans-48"/>
      </g>
     </g>
    </g>
    <g id="ytick_8">
     <g id="line2d_25">
      <path clip-path="url(#p0769230c45)" d="M 57.6 79.412837 
L 414.72 79.412837 
" style="fill:none;stroke:#b0b0b0;stroke-linecap:square;stroke-width:0.8;"/>
     </g>
     <g id="line2d_26">
      <g>
       <use style="stroke:#000000;stroke-width:0.8;" x="57.6" xlink:href="#me16a992eff" y="79.412837"/>
      </g>
     </g>
     <g id="text_14">
      <!-- $\mathdefault{10^{1}}$ -->
      <g transform="translate(33 83.212056)scale(0.1 -0.1)">
       <use transform="translate(0 0.684375)" xlink:href="#DejaVuSans-49"/>
       <use transform="translate(63.623047 0.684375)" xlink:href="#DejaVuSans-48"/>
       <use transform="translate(128.203125 38.965625)scale(0.7)" xlink:href="#DejaVuSans-49"/>
      </g>
     </g>
    </g>
    <g id="ytick_9">
     <g id="line2d_27">
      <path clip-path="url(#p0769230c45)" d="M 57.6 46.243329 
L 414.72 46.243329 
" style="fill:none;stroke:#b0b0b0;stroke-linecap:square;stroke-width:0.8;"/>
     </g>
     <g id="line2d_28">
      <g>
       <use style="stroke:#000000;stroke-width:0.8;" x="57.6" xlink:href="#me16a992eff" y="46.243329"/>
      </g>
     </g>
     <g id="text_15">
      <!-- $\mathdefault{10^{2}}$ -->
      <g transform="translate(33 50.042548)scale(0.1 -0.1)">
       <use transform="translate(0 0.765625)" xlink:href="#DejaVuSans-49"/>
       <use transform="translate(63.623047 0.765625)" xlink:href="#DejaVuSans-48"/>
       <use transform="translate(128.203125 39.046875)scale(0.7)" xlink:href="#DejaVuSans-50"/>
      </g>
     </g>
    </g>
    <g id="text_16">
     <!-- Fitness -->
     <g transform="translate(18.520312 191.845187)rotate(-90)scale(0.1 -0.1)">
      <defs>
       <path d="M 9.8125 72.90625 
L 51.703125 72.90625 
L 51.703125 64.59375 
L 19.671875 64.59375 
L 19.671875 43.109375 
L 48.578125 43.109375 
L 48.578125 34.8125 
L 19.671875 34.8125 
L 19.671875 0 
L 9.8125 0 
z
" id="DejaVuSans-70"/>
      </defs>
      <use xlink:href="#DejaVuSans-70"/>
      <use x="50.269531" xlink:href="#DejaVuSans-105"/>
      <use x="78.052734" xlink:href="#DejaVuSans-116"/>
      <use x="117.261719" xlink:href="#DejaVuSans-110"/>
      <use x="180.640625" xlink:href="#DejaVuSans-101"/>
      <use x="242.164062" xlink:href="#DejaVuSans-115"/>
      <use x="294.263672" xlink:href="#DejaVuSans-115"/>
     </g>
    </g>
   </g>
   <g id="line2d_29">
    <path clip-path="url(#p0769230c45)" d="M 73.832727 295.488 
L 74.174829 291.242294 
L 74.516931 288.605929 
L 74.859032 289.474709 
L 75.543236 285.1197 
L 75.885338 287.472906 
L 76.227439 286.389427 
L 76.569541 284.067882 
L 76.911643 285.392828 
L 77.253745 282.041811 
L 77.595846 284.508308 
L 77.937948 282.593638 
L 78.28005 281.581495 
L 78.964253 281.881858 
L 79.306355 283.541488 
L 79.648457 281.936851 
L 80.33266 283.186707 
L 80.674762 283.227028 
L 81.016864 282.280802 
L 81.358965 284.763835 
L 81.701067 284.102351 
L 82.043169 284.535534 
L 82.385271 282.182811 
L 82.727372 281.062737 
L 83.069474 283.279028 
L 83.411576 284.6965 
L 83.753678 283.084692 
L 84.095779 282.936218 
L 84.437881 283.18804 
L 84.779983 280.092043 
L 85.122084 282.225324 
L 85.464186 282.66197 
L 85.806288 279.802941 
L 86.490491 281.105934 
L 86.832593 280.692052 
L 87.174695 279.101186 
L 87.516797 279.779675 
L 87.858898 279.184563 
L 88.201 281.866728 
L 88.543102 279.575753 
L 88.885204 278.519408 
L 89.227305 280.688973 
L 89.911509 275.558214 
L 90.25361 277.961221 
L 90.595712 277.545501 
L 90.937814 279.05732 
L 91.279916 279.282871 
L 91.964119 275.968321 
L 92.306221 280.72934 
L 92.648323 278.18922 
L 92.990424 273.515565 
L 93.332526 273.281703 
L 93.674628 276.601218 
L 94.700933 272.695313 
L 95.385137 278.469875 
L 95.727238 274.918755 
L 96.06934 276.66059 
L 96.411442 276.366242 
L 96.753543 277.074914 
L 97.095645 278.914372 
L 97.437747 279.06649 
L 97.779849 275.228365 
L 98.12195 276.733184 
L 98.464052 275.678178 
L 98.806154 276.275731 
L 99.148256 275.760881 
L 99.490357 279.396973 
L 99.832459 280.148298 
L 100.174561 278.585724 
L 100.516663 277.887531 
L 100.858764 273.841171 
L 101.200866 276.566904 
L 101.542968 275.912498 
L 101.885069 274.411205 
L 102.227171 273.861475 
L 102.569273 270.868204 
L 102.911375 277.138301 
L 103.253476 278.076556 
L 103.595578 272.574011 
L 103.93768 269.041483 
L 104.279782 272.209642 
L 104.621883 274.169531 
L 104.963985 271.139199 
L 105.306087 270.072957 
L 105.648189 276.22339 
L 105.99029 271.634369 
L 106.332392 277.378014 
L 106.674494 273.199283 
L 107.016595 272.67682 
L 107.358697 269.782613 
L 107.700799 273.889013 
L 108.042901 275.79842 
L 108.385002 276.090939 
L 108.727104 271.605858 
L 109.069206 275.754515 
L 109.411308 274.230444 
L 109.753409 275.807649 
L 110.095511 276.637721 
L 110.437613 273.859673 
L 110.779715 272.818723 
L 111.463918 276.977527 
L 111.80602 275.153705 
L 112.148121 276.400813 
L 112.490223 275.157138 
L 112.832325 273.458218 
L 113.174427 277.093162 
L 113.516528 276.238201 
L 113.85863 273.135385 
L 114.200732 274.124353 
L 114.542834 276.023581 
L 114.884935 270.318254 
L 115.227037 274.797925 
L 115.569139 274.633442 
L 115.911241 276.376458 
L 116.253342 273.354758 
L 116.595444 274.166565 
L 116.937546 273.250308 
L 117.279647 269.763344 
L 117.963851 271.744337 
L 118.305953 274.942141 
L 118.648054 269.614458 
L 119.332258 273.309102 
L 119.67436 273.678856 
L 120.016461 269.968895 
L 120.358563 274.457702 
L 120.700665 271.376794 
L 121.042767 272.920429 
L 121.384868 271.681377 
L 121.72697 271.613796 
L 122.069072 271.749197 
L 122.411173 267.2425 
L 122.753275 271.817674 
L 123.095377 267.179142 
L 123.437479 269.343092 
L 123.77958 267.659152 
L 124.121682 268.193214 
L 124.463784 269.31955 
L 124.805886 267.727784 
L 125.147987 268.141386 
L 125.490089 276.020582 
L 125.832191 266.083413 
L 126.174293 264.145381 
L 126.516394 269.623294 
L 126.858496 271.795012 
L 127.200598 272.385839 
L 127.542699 271.492104 
L 127.884801 271.557713 
L 128.226903 267.904684 
L 128.569005 272.146954 
L 128.911106 271.452347 
L 129.253208 271.149773 
L 129.59531 271.619038 
L 129.937412 267.33537 
L 130.279513 269.631811 
L 130.621615 269.381902 
L 130.963717 272.061757 
L 131.305819 269.015921 
L 131.64792 268.754123 
L 131.990022 270.709136 
L 132.332124 268.966754 
L 132.674226 270.293943 
L 133.016327 272.478342 
L 133.358429 276.390437 
L 133.700531 273.54095 
L 134.042632 272.281217 
L 134.384734 274.185751 
L 134.726836 269.662172 
L 135.068938 269.197695 
L 135.753141 273.031385 
L 136.095243 269.7878 
L 136.437345 270.039595 
L 137.121548 271.501613 
L 137.46365 269.891294 
L 137.805752 273.838931 
L 138.489955 272.405079 
L 138.832057 266.97675 
L 139.174158 271.8019 
L 139.858362 275.452255 
L 140.200464 275.466898 
L 140.542565 271.695489 
L 140.884667 273.135121 
L 141.226769 272.726495 
L 141.568871 274.964119 
L 141.910972 275.901177 
L 142.253074 273.56152 
L 142.595176 274.449784 
L 142.937278 274.036018 
L 143.279379 272.916115 
L 143.621481 273.533132 
L 143.963583 275.321924 
L 144.305684 279.330293 
L 144.989888 273.049965 
L 145.33199 274.531176 
L 145.674091 272.538525 
L 146.016193 273.468037 
L 146.358295 273.666321 
L 146.700397 272.216912 
L 147.042498 275.834415 
L 147.3846 270.962358 
L 148.068804 275.218387 
L 148.410905 275.497005 
L 148.753007 276.378037 
L 149.095109 274.757994 
L 149.779312 272.412735 
L 150.121414 274.069659 
L 150.463516 272.350499 
L 150.805617 277.057381 
L 151.147719 276.901349 
L 151.489821 273.904975 
L 151.831923 276.490613 
L 152.174024 277.781028 
L 152.516126 275.479277 
L 152.858228 276.719944 
L 153.20033 276.554614 
L 153.542431 277.526736 
L 153.884533 275.440681 
L 154.226635 279.256511 
L 154.568736 277.451598 
L 154.910838 277.117075 
L 155.25294 277.656452 
L 155.595042 274.838237 
L 155.937143 276.458379 
L 156.279245 276.361702 
L 156.621347 283.899361 
L 156.963449 282.828243 
L 157.30555 282.748362 
L 157.647652 280.724846 
L 157.989754 280.042933 
L 158.331856 277.018912 
L 158.673957 278.31456 
L 159.016059 273.345614 
L 159.358161 273.114131 
L 159.700262 276.476776 
L 160.042364 274.765683 
L 160.384466 277.477802 
L 160.726568 277.017044 
L 161.068669 273.474875 
L 161.410771 277.906806 
L 161.752873 276.738034 
L 162.094975 277.891445 
L 162.437076 276.88309 
L 162.779178 277.366644 
L 163.12128 279.295394 
L 163.463382 275.786032 
L 163.805483 278.514384 
L 164.147585 274.578814 
L 164.831788 278.780484 
L 165.515992 279.617662 
L 166.200195 274.001891 
L 166.542297 274.111231 
L 166.884399 277.119027 
L 167.226501 275.181289 
L 167.568602 275.295293 
L 167.910704 276.379042 
L 168.252806 276.880538 
L 168.594908 275.707926 
L 168.937009 274.991688 
L 169.279111 274.007768 
L 169.621213 273.706478 
L 169.963314 274.832631 
L 170.305416 274.848367 
L 170.647518 273.369556 
L 170.98962 271.072946 
L 171.331721 274.178187 
L 171.673823 272.743447 
L 172.358027 275.847902 
L 173.04223 281.306497 
L 173.384332 275.194286 
L 173.726434 274.827429 
L 174.068535 276.597941 
L 174.410637 274.211412 
L 174.752739 274.629722 
L 175.094841 276.771844 
L 175.779044 273.059265 
L 176.121146 273.91762 
L 176.463247 275.612296 
L 176.805349 274.505672 
L 177.147451 272.811184 
L 177.489553 272.191453 
L 177.831654 269.838303 
L 178.173756 270.095214 
L 178.515858 271.134739 
L 178.85796 271.243163 
L 179.200061 272.612569 
L 179.542163 272.552232 
L 179.884265 273.529382 
L 180.226367 276.07565 
L 180.568468 272.796243 
L 181.252672 277.341253 
L 181.594773 275.479904 
L 182.278977 273.032019 
L 182.96318 275.226624 
L 183.305282 274.696602 
L 183.647384 268.461542 
L 183.989486 274.174758 
L 184.331587 272.364841 
L 184.673689 275.715744 
L 185.015791 274.683651 
L 185.357893 270.967294 
L 185.699994 274.261433 
L 186.042096 273.321997 
L 186.384198 275.732348 
L 186.726299 279.228872 
L 187.068401 277.699981 
L 187.410503 277.464293 
L 187.752605 276.54787 
L 188.094706 276.520192 
L 188.436808 278.346585 
L 188.77891 277.914599 
L 189.121012 281.157373 
L 189.463113 275.825908 
L 189.805215 274.326316 
L 190.147317 277.538114 
L 190.489419 273.700899 
L 190.83152 279.551968 
L 191.173622 275.821286 
L 191.515724 277.789291 
L 191.857825 276.888718 
L 192.199927 278.335776 
L 192.542029 278.899691 
L 192.884131 279.949814 
L 193.226232 278.407897 
L 193.568334 275.56346 
L 193.910436 274.989979 
L 194.252538 277.967278 
L 194.594639 279.07132 
L 194.936741 281.114664 
L 195.278843 279.591535 
L 195.620945 279.044965 
L 195.963046 281.221536 
L 196.305148 280.94371 
L 196.64725 279.420053 
L 196.989351 279.508044 
L 197.331453 275.652446 
L 197.673555 277.808634 
L 198.015657 275.71524 
L 198.357758 280.246766 
L 198.69986 278.991529 
L 199.041962 275.213464 
L 199.384064 276.788983 
L 199.726165 273.438912 
L 200.068267 272.940527 
L 200.410369 277.328303 
L 200.752471 278.681597 
L 201.094572 278.530883 
L 201.436674 276.671485 
L 201.778776 272.504616 
L 202.120877 276.807704 
L 202.462979 275.646506 
L 202.805081 277.761177 
L 203.147183 275.810524 
L 203.489284 276.268725 
L 203.831386 272.361333 
L 204.51559 275.144923 
L 204.857691 275.560986 
L 205.199793 279.495966 
L 205.541895 280.129885 
L 205.883997 277.861343 
L 206.226098 276.536072 
L 206.5682 273.972216 
L 206.910302 278.596661 
L 207.252403 277.734313 
L 207.594505 274.538345 
L 207.936607 275.398976 
L 208.278709 275.697594 
L 208.62081 279.907063 
L 208.962912 275.909329 
L 209.305014 275.356348 
L 209.647116 276.248116 
L 209.989217 275.336906 
L 210.331319 282.181714 
L 210.673421 276.130629 
L 211.015523 277.858351 
L 211.357624 276.63886 
L 211.699726 274.758831 
L 212.041828 277.881427 
L 212.383929 276.944417 
L 212.726031 278.23077 
L 213.068133 277.831803 
L 213.410235 277.931084 
L 213.752336 276.643512 
L 214.094438 274.059676 
L 214.43654 275.998891 
L 214.778642 275.788993 
L 215.120743 276.727518 
L 215.462845 276.296396 
L 215.804947 276.527458 
L 216.48915 275.921738 
L 216.831252 278.556242 
L 217.173354 277.998162 
L 217.515456 277.060955 
L 217.857557 275.496161 
L 218.199659 279.400241 
L 218.541761 279.61143 
L 218.883862 277.31637 
L 219.225964 277.274954 
L 219.568066 279.536979 
L 219.910168 278.335254 
L 220.252269 278.274934 
L 220.594371 273.568478 
L 220.936473 274.964928 
L 221.278575 280.488005 
L 221.620676 275.120357 
L 222.30488 280.713546 
L 222.646982 278.936967 
L 222.989083 282.253388 
L 223.331185 279.445145 
L 223.673287 282.071305 
L 224.015388 279.120812 
L 224.35749 274.614447 
L 224.699592 277.795345 
L 225.041694 278.846856 
L 225.383795 277.90529 
L 225.725897 280.587015 
L 226.067999 278.099087 
L 226.752202 278.681936 
L 227.094304 279.111758 
L 227.436406 280.745075 
L 227.778508 280.39533 
L 228.120609 279.067353 
L 228.462711 279.222928 
L 228.804813 276.27062 
L 229.146914 279.55509 
L 229.489016 278.925115 
L 229.831118 273.150836 
L 230.17322 279.107006 
L 230.515321 274.00343 
L 230.857423 275.888456 
L 231.199525 281.042484 
L 231.541627 275.400277 
L 231.883728 278.253901 
L 232.22583 275.86472 
L 232.567932 277.803625 
L 232.910034 278.648054 
L 233.252135 276.338674 
L 233.594237 275.931298 
L 233.936339 278.426499 
L 234.27844 275.204462 
L 234.620542 276.14015 
L 234.962644 278.399762 
L 235.304746 278.8642 
L 235.646847 276.146041 
L 235.988949 278.028406 
L 236.331051 278.469311 
L 236.673153 277.460558 
L 237.015254 279.554539 
L 237.357356 278.473295 
L 237.699458 275.236479 
L 238.04156 279.354942 
L 238.383661 277.03448 
L 239.067865 270.321717 
L 239.409966 274.136045 
L 239.752068 273.231304 
L 240.09417 276.455734 
L 240.436272 273.732983 
L 240.778373 275.369456 
L 241.120475 278.626834 
L 241.462577 277.206624 
L 241.804679 271.044429 
L 242.14678 277.059093 
L 242.488882 275.277018 
L 242.830984 276.979151 
L 243.173086 276.200403 
L 243.515187 279.311354 
L 243.857289 277.511948 
L 244.199391 274.202356 
L 244.541492 277.888482 
L 244.883594 275.841491 
L 245.225696 275.047806 
L 245.567798 273.5001 
L 245.909899 275.435739 
L 246.252001 276.338093 
L 246.594103 277.760066 
L 246.936205 279.960717 
L 247.278306 278.902885 
L 247.620408 280.93739 
L 247.96251 280.961949 
L 248.304612 281.808169 
L 248.646713 278.793067 
L 248.988815 279.254179 
L 249.330917 278.2903 
L 249.673018 281.51293 
L 250.01512 278.287545 
L 250.357222 278.897157 
L 250.699324 277.683115 
L 251.041425 275.416103 
L 251.383527 275.731158 
L 251.725629 280.750223 
L 252.067731 275.90583 
L 252.409832 280.185095 
L 252.751934 278.570669 
L 253.094036 281.182313 
L 253.436138 277.811267 
L 253.778239 276.548542 
L 254.120341 277.784015 
L 254.462443 275.109632 
L 254.804544 278.141016 
L 255.146646 277.054833 
L 255.488748 277.300394 
L 255.83085 275.490858 
L 256.172951 276.081137 
L 256.857155 280.319027 
L 257.199257 278.328834 
L 257.541358 277.062579 
L 257.88346 282.420122 
L 258.225562 283.013446 
L 258.567664 283.022204 
L 259.251867 277.928381 
L 259.593969 280.851193 
L 259.936071 282.496879 
L 260.278172 279.173449 
L 260.620274 280.473913 
L 260.962376 279.563097 
L 261.304477 277.791646 
L 261.646579 280.568877 
L 261.988681 280.470521 
L 262.330783 279.223033 
L 262.672884 278.766564 
L 263.014986 278.901015 
L 263.357088 277.59343 
L 264.041291 281.954603 
L 264.383393 279.057402 
L 264.725495 280.409727 
L 265.067597 278.077014 
L 265.409698 277.862279 
L 265.7518 277.247316 
L 266.093902 279.461906 
L 266.436003 278.170177 
L 266.778105 280.113335 
L 267.120207 279.725388 
L 267.462309 276.808071 
L 267.80441 276.7586 
L 268.146512 277.62272 
L 268.488614 280.471951 
L 268.830716 279.908959 
L 269.172817 277.399045 
L 269.514919 280.792158 
L 269.857021 275.517834 
L 270.199123 281.339799 
L 270.541224 280.967903 
L 270.883326 279.181574 
L 271.225428 280.448012 
L 271.567529 274.983888 
L 271.909631 277.948917 
L 272.251733 278.083479 
L 272.593835 280.796211 
L 272.935936 280.67412 
L 273.278038 278.336656 
L 273.62014 280.161692 
L 273.962242 273.260199 
L 274.646445 279.117992 
L 274.988547 276.730111 
L 275.330649 275.911974 
L 275.67275 278.3002 
L 276.014852 277.173473 
L 276.356954 278.312077 
L 276.699055 275.031082 
L 277.041157 272.91768 
L 277.383259 279.796561 
L 277.725361 274.069277 
L 278.751666 279.940137 
L 279.093768 280.108889 
L 279.435869 277.6837 
L 279.777971 277.509468 
L 280.120073 279.981926 
L 280.462175 279.503469 
L 280.804276 281.393143 
L 281.146378 278.140901 
L 281.48848 278.098967 
L 281.830581 282.121897 
L 282.172683 278.489912 
L 282.514785 278.906527 
L 283.198988 276.740264 
L 283.54109 278.322096 
L 283.883192 274.489112 
L 284.567395 279.818049 
L 284.909497 280.336876 
L 285.251599 276.772108 
L 285.593701 280.281703 
L 285.935802 277.620682 
L 286.277904 281.490303 
L 286.620006 279.558415 
L 286.962107 280.190146 
L 287.304209 276.207736 
L 287.646311 277.689709 
L 287.988413 277.110827 
L 288.330514 279.65782 
L 288.672616 278.505507 
L 289.014718 278.129335 
L 289.35682 276.715092 
L 289.698921 273.840836 
L 290.041023 276.100233 
L 290.383125 274.47006 
L 290.725227 276.234327 
L 291.067328 274.664034 
L 291.40943 276.049488 
L 291.751532 275.844744 
L 292.093633 274.564487 
L 292.435735 275.142956 
L 292.777837 272.35899 
L 293.119939 276.600901 
L 293.46204 273.923436 
L 293.804142 274.823179 
L 294.146244 275.135424 
L 294.488346 278.029298 
L 294.830447 276.998574 
L 295.172549 277.448168 
L 295.514651 274.561251 
L 295.856753 273.685037 
L 296.198854 278.021719 
L 296.540956 270.120385 
L 296.883058 276.640411 
L 297.225159 276.278627 
L 297.567261 277.958258 
L 297.909363 281.483962 
L 298.251465 279.66297 
L 298.593566 276.995668 
L 298.935668 276.843402 
L 299.27777 281.684768 
L 299.619872 275.792601 
L 299.961973 279.341579 
L 300.304075 277.752258 
L 300.646177 277.415181 
L 300.988279 275.137763 
L 301.672482 277.929135 
L 302.014584 281.908147 
L 302.356686 281.821828 
L 302.698787 274.656364 
L 303.040889 276.152324 
L 303.382991 276.235499 
L 303.725092 272.611073 
L 304.067194 271.846076 
L 304.751398 274.490209 
L 305.093499 279.704615 
L 305.435601 278.284548 
L 305.777703 278.569518 
L 306.119805 278.707907 
L 306.461906 276.061452 
L 306.804008 275.52529 
L 307.14611 275.917353 
L 307.488212 276.67316 
L 307.830313 272.432148 
L 308.172415 270.684359 
L 308.514517 274.005599 
L 308.856618 270.990336 
L 309.19872 274.808648 
L 309.540822 274.81504 
L 309.882924 281.906216 
L 310.225025 281.543549 
L 310.567127 274.882892 
L 310.909229 275.211054 
L 311.251331 274.91975 
L 311.593432 279.03229 
L 311.935534 273.309512 
L 312.277636 276.326527 
L 312.961839 275.069648 
L 313.646043 274.572809 
L 313.988144 276.37563 
L 314.672348 273.480313 
L 315.01445 269.73853 
L 315.356551 276.806352 
L 315.698653 272.075237 
L 316.040755 275.918473 
L 316.382857 275.074634 
L 316.724958 276.550781 
L 317.06706 278.547233 
L 317.409162 278.686624 
L 317.751264 278.701514 
L 318.093365 276.354277 
L 318.435467 271.969573 
L 318.777569 277.411789 
L 319.11967 276.680862 
L 319.461772 278.446629 
L 319.803874 274.565387 
L 320.145976 273.425843 
L 320.830179 278.611414 
L 321.172281 276.514146 
L 321.514383 276.826414 
L 321.856484 277.840206 
L 322.198586 278.224335 
L 322.540688 277.552435 
L 322.88279 276.072033 
L 323.224891 276.190194 
L 323.566993 272.537698 
L 323.909095 278.752168 
L 324.251196 278.470207 
L 324.593298 277.183278 
L 324.9354 278.995488 
L 325.277502 274.838516 
L 325.619603 272.154798 
L 325.961705 273.041043 
L 326.303807 276.781437 
L 326.645909 275.847373 
L 326.98801 273.340804 
L 327.330112 278.136333 
L 327.672214 275.284706 
L 328.014316 271.140843 
L 328.356417 270.360547 
L 328.698519 276.231713 
L 329.040621 276.585661 
L 329.382722 275.586555 
L 329.724824 274.977842 
L 330.409028 270.144857 
L 330.751129 273.280223 
L 331.093231 275.243718 
L 331.435333 274.700012 
L 331.777435 278.640348 
L 332.119536 268.046289 
L 332.80374 277.915413 
L 333.145842 279.503883 
L 333.487943 278.244215 
L 333.830045 276.228695 
L 334.172147 275.950757 
L 334.514248 278.764117 
L 334.85635 273.929289 
L 335.198452 276.904267 
L 335.540554 278.415561 
L 336.224757 275.231676 
L 336.566859 273.117127 
L 336.908961 277.023959 
L 337.251062 275.700767 
L 337.935266 280.268398 
L 338.277368 275.446032 
L 338.619469 276.142444 
L 338.961571 272.717757 
L 339.303673 274.17704 
L 339.645774 273.425043 
L 339.987876 275.367804 
L 340.329978 272.844875 
L 341.014181 280.770732 
L 341.356283 278.466325 
L 341.698385 282.410541 
L 342.040487 276.911563 
L 342.72469 278.56119 
L 343.066792 276.630639 
L 343.408894 278.553847 
L 343.750995 279.189962 
L 344.093097 278.055267 
L 344.435199 281.045602 
L 344.777301 279.13728 
L 345.119402 282.984501 
L 345.461504 275.977563 
L 345.803606 274.900057 
L 346.145707 271.785792 
L 346.487809 274.259776 
L 346.829911 272.490403 
L 347.172013 278.057896 
L 347.514114 270.907892 
L 347.856216 273.084295 
L 348.198318 274.083964 
L 348.54042 276.954803 
L 348.882521 278.107577 
L 349.224623 274.271979 
L 349.566725 274.943933 
L 349.908827 275.911098 
L 350.250928 274.703002 
L 350.59303 277.239702 
L 350.935132 274.157483 
L 351.277233 278.919842 
L 351.619335 272.063263 
L 351.961437 277.937551 
L 352.303539 281.102395 
L 352.64564 279.265849 
L 352.987742 273.935674 
L 353.329844 274.620787 
L 353.671946 276.161918 
L 354.356149 275.02622 
L 354.698251 275.67765 
L 355.382454 277.267293 
L 355.724556 273.463443 
L 356.066658 275.045243 
L 356.408759 278.997435 
L 356.750861 277.644442 
L 357.092963 277.067309 
L 357.435065 277.188284 
L 357.777166 276.31002 
L 358.119268 275.965912 
L 358.46137 270.041934 
L 358.803472 271.376616 
L 359.145573 275.42852 
L 359.487675 276.793619 
L 359.829777 276.659228 
L 360.171879 279.856963 
L 360.51398 278.590233 
L 360.856082 276.772436 
L 361.540285 275.379208 
L 361.882387 277.753709 
L 362.224489 280.91619 
L 362.566591 275.172369 
L 362.908692 277.707271 
L 363.250794 276.318512 
L 363.592896 274.187719 
L 363.934998 273.23735 
L 364.277099 273.573537 
L 364.619201 276.962051 
L 364.961303 276.548715 
L 365.303405 279.749059 
L 365.645506 279.614994 
L 365.987608 274.240004 
L 366.32971 274.716742 
L 366.671811 273.077099 
L 367.013913 278.01829 
L 367.356015 276.402182 
L 367.698117 277.003571 
L 368.040218 279.388432 
L 368.38232 277.62582 
L 368.724422 274.992785 
L 369.066524 277.199117 
L 369.408625 276.19072 
L 369.750727 278.812836 
L 370.092829 273.123844 
L 370.434931 278.355232 
L 370.777032 273.242644 
L 371.119134 278.032093 
L 371.461236 272.887448 
L 372.145439 274.923622 
L 372.487541 275.112958 
L 372.829643 280.132862 
L 373.171744 277.809321 
L 373.513846 280.072658 
L 373.855948 275.474506 
L 374.19805 278.112583 
L 374.540151 277.521027 
L 375.224355 273.894106 
L 375.566457 274.748587 
L 375.908558 276.778451 
L 376.25066 274.403806 
L 376.592762 273.131113 
L 376.934863 270.808332 
L 377.276965 278.061813 
L 377.619067 278.176674 
L 377.961169 274.385068 
L 378.30327 275.344939 
L 378.645372 277.18318 
L 378.987474 274.534684 
L 379.329576 270.514901 
L 379.671677 274.965953 
L 380.013779 271.643854 
L 380.355881 274.406631 
L 380.697983 275.023132 
L 381.040084 276.889569 
L 381.382186 274.124423 
L 381.724288 273.038482 
L 382.408491 275.748744 
L 382.750593 273.363935 
L 383.092695 274.583638 
L 383.776898 272.316114 
L 384.119 273.769179 
L 384.461102 270.967354 
L 384.803203 274.595036 
L 385.145305 273.792845 
L 385.487407 275.196488 
L 385.829509 274.415771 
L 386.17161 275.338441 
L 386.513712 274.770619 
L 386.855814 277.666506 
L 387.197916 278.179894 
L 387.540017 277.892197 
L 387.882119 276.966463 
L 388.224221 271.850654 
L 388.566322 276.98283 
L 388.908424 270.147027 
L 389.250526 272.488672 
L 389.592628 277.341219 
L 389.934729 274.414466 
L 390.276831 273.917401 
L 390.618933 274.897277 
L 390.961035 275.349541 
L 391.303136 270.423828 
L 391.645238 275.838541 
L 391.98734 274.172259 
L 392.329442 271.753058 
L 392.671543 273.897424 
L 393.013645 270.34325 
L 393.355747 273.264122 
L 393.697848 272.562619 
L 394.03995 273.096784 
L 394.382052 269.334235 
L 394.724154 270.38774 
L 395.066255 268.382887 
L 395.408357 274.121247 
L 395.750459 275.735097 
L 396.092561 267.94278 
L 396.434662 275.045487 
L 396.776764 269.985025 
L 397.118866 275.062522 
L 397.460968 275.660106 
L 397.803069 275.770683 
L 398.145171 274.381531 
L 398.487273 274.131073 
L 398.487273 274.131073 
" style="fill:none;stroke:#0000ff;stroke-linecap:square;stroke-width:1.5;"/>
   </g>
   <g id="line2d_30">
    <path clip-path="url(#p0769230c45)" d="M 73.832727 288.99028 
L 74.174829 283.136263 
L 74.516931 280.442473 
L 75.201134 278.662042 
L 75.543236 277.279527 
L 75.885338 277.311662 
L 76.227439 276.737176 
L 76.569541 274.904001 
L 76.911643 277.57715 
L 77.595846 273.397659 
L 77.937948 273.276532 
L 78.28005 270.099498 
L 78.622152 270.107866 
L 78.964253 271.968941 
L 79.306355 275.080803 
L 79.648457 268.164805 
L 79.990558 271.133879 
L 80.33266 272.500318 
L 80.674762 272.701038 
L 81.016864 269.134965 
L 81.358965 274.809132 
L 81.701067 275.956039 
L 82.385271 270.430673 
L 82.727372 268.945313 
L 83.069474 268.69695 
L 83.411576 273.747052 
L 83.753678 272.829627 
L 84.095779 267.133282 
L 84.437881 269.129521 
L 84.779983 263.958756 
L 85.122084 270.585081 
L 85.464186 271.94459 
L 85.806288 269.131115 
L 86.14839 272.06037 
L 86.490491 268.41202 
L 86.832593 263.248422 
L 87.174695 265.831713 
L 87.516797 271.283887 
L 87.858898 264.731747 
L 88.201 267.487946 
L 88.543102 266.921125 
L 89.227305 260.216963 
L 89.569407 266.714479 
L 89.911509 252.422912 
L 90.25361 264.090408 
L 90.595712 263.148255 
L 90.937814 260.58931 
L 91.279916 264.505971 
L 91.622017 260.553655 
L 91.964119 258.523758 
L 92.306221 262.776538 
L 92.648323 245.901631 
L 92.990424 253.644441 
L 93.332526 254.955821 
L 93.674628 259.991368 
L 94.01673 251.098559 
L 94.358831 253.698785 
L 94.700933 240.81664 
L 95.043035 249.331168 
L 95.385137 254.302545 
L 95.727238 253.154473 
L 96.06934 255.801983 
L 96.411442 248.195775 
L 96.753543 243.163252 
L 97.095645 255.724598 
L 97.437747 252.031208 
L 97.779849 242.838187 
L 98.12195 251.722439 
L 98.464052 254.18716 
L 98.806154 246.423867 
L 99.148256 245.837851 
L 99.490357 253.95853 
L 99.832459 251.656187 
L 100.174561 252.864973 
L 100.516663 241.762289 
L 100.858764 244.898924 
L 101.200866 250.073938 
L 101.542968 240.267728 
L 101.885069 243.380416 
L 102.227171 214.476774 
L 102.569273 212.834038 
L 102.911375 246.43728 
L 103.253476 225.49247 
L 103.595578 226.171527 
L 103.93768 242.457674 
L 104.279782 243.41077 
L 104.621883 240.146721 
L 104.963985 239.935596 
L 105.306087 239.049952 
L 105.648189 239.895126 
L 105.99029 250.493239 
L 106.332392 247.095226 
L 106.674494 240.685313 
L 107.016595 248.546559 
L 107.358697 241.623073 
L 107.700799 247.875948 
L 108.042901 232.918602 
L 108.385002 244.792864 
L 108.727104 227.683663 
L 109.069206 245.801061 
L 109.411308 241.637178 
L 109.753409 255.896509 
L 110.095511 239.726476 
L 110.437613 244.074317 
L 110.779715 240.916945 
L 111.121816 248.270241 
L 111.463918 239.231555 
L 111.80602 249.120195 
L 112.148121 234.04616 
L 112.490223 230.740923 
L 112.832325 235.39178 
L 113.174427 202.857225 
L 113.516528 240.665391 
L 113.85863 242.736754 
L 114.200732 245.605736 
L 114.542834 246.810525 
L 114.884935 242.218468 
L 115.227037 246.965829 
L 115.569139 246.947477 
L 115.911241 251.406864 
L 116.253342 246.052213 
L 116.595444 247.159973 
L 116.937546 241.413963 
L 117.279647 241.025711 
L 117.621749 238.567494 
L 117.963851 241.5652 
L 118.305953 242.147407 
L 118.648054 232.187753 
L 119.67436 249.551802 
L 120.016461 238.938837 
L 120.358563 241.556626 
L 120.700665 211.12529 
L 121.042767 245.083794 
L 121.384868 244.766809 
L 121.72697 241.817072 
L 122.069072 241.184273 
L 122.411173 235.160995 
L 122.753275 241.290741 
L 123.437479 234.506697 
L 123.77958 240.07529 
L 124.121682 232.787646 
L 124.463784 242.313109 
L 124.805886 239.058432 
L 125.147987 227.139236 
L 125.490089 235.908586 
L 125.832191 221.448481 
L 126.174293 214.121688 
L 126.858496 235.895172 
L 127.200598 222.453621 
L 127.542699 235.074971 
L 127.884801 227.937592 
L 128.226903 213.825201 
L 128.569005 233.347335 
L 128.911106 231.706297 
L 129.253208 237.934561 
L 129.59531 230.316024 
L 129.937412 204.025819 
L 130.279513 215.347814 
L 130.621615 232.318483 
L 130.963717 242.14484 
L 131.305819 225.551904 
L 131.64792 238.830632 
L 131.990022 238.182337 
L 132.332124 226.52632 
L 132.674226 240.039083 
L 133.016327 237.326544 
L 133.358429 239.468062 
L 133.700531 236.392109 
L 134.042632 234.606192 
L 134.384734 244.382501 
L 135.068938 226.521235 
L 135.411039 240.460321 
L 135.753141 240.596112 
L 136.095243 219.628355 
L 136.437345 236.534476 
L 136.779446 242.163848 
L 137.121548 241.936218 
L 137.46365 237.280085 
L 137.805752 246.043719 
L 138.147853 243.013573 
L 138.489955 245.942536 
L 138.832057 225.102572 
L 139.174158 234.564717 
L 139.858362 243.890856 
L 140.200464 240.146655 
L 140.542565 223.770787 
L 141.226769 245.876801 
L 141.568871 244.276907 
L 141.910972 237.292137 
L 142.253074 235.302225 
L 142.595176 237.921857 
L 142.937278 238.300245 
L 143.279379 234.643062 
L 143.621481 236.822347 
L 143.963583 240.751171 
L 144.305684 233.142717 
L 144.647786 238.818171 
L 144.989888 241.291408 
L 145.33199 234.920741 
L 145.674091 240.222242 
L 146.016193 239.057116 
L 146.358295 224.669248 
L 146.700397 242.677052 
L 147.042498 246.041876 
L 147.3846 226.413864 
L 147.726702 234.497205 
L 148.068804 247.827658 
L 148.410905 248.257927 
L 148.753007 245.098361 
L 149.095109 250.525664 
L 149.43721 245.747835 
L 150.121414 239.618253 
L 150.463516 237.889929 
L 150.805617 245.670024 
L 151.147719 245.554076 
L 151.489821 238.979438 
L 152.174024 249.238185 
L 152.516126 241.670423 
L 152.858228 237.860756 
L 153.20033 242.064944 
L 153.542431 250.34609 
L 153.884533 237.327478 
L 154.226635 247.768599 
L 154.568736 241.843723 
L 154.910838 244.450198 
L 155.25294 252.576696 
L 155.595042 240.940805 
L 155.937143 247.955164 
L 156.279245 237.135782 
L 156.621347 251.414165 
L 156.963449 255.974488 
L 157.30555 255.54225 
L 157.647652 248.140686 
L 157.989754 224.997116 
L 158.331856 238.9472 
L 158.673957 248.147102 
L 159.016059 232.588034 
L 159.358161 234.47509 
L 159.700262 242.238115 
L 160.042364 235.748435 
L 160.384466 245.046256 
L 160.726568 246.623285 
L 161.410771 241.303484 
L 161.752873 245.478116 
L 162.094975 252.247207 
L 162.437076 246.78594 
L 162.779178 244.864623 
L 163.12128 244.74693 
L 163.463382 251.916284 
L 163.805483 253.339929 
L 164.147585 234.199613 
L 164.489687 237.529401 
L 164.831788 246.030208 
L 165.17389 245.855432 
L 165.515992 232.709771 
L 165.858094 247.609541 
L 166.200195 240.48708 
L 166.542297 228.395262 
L 166.884399 249.147381 
L 167.226501 243.862326 
L 167.568602 245.923481 
L 167.910704 249.800797 
L 168.252806 238.69697 
L 168.594908 235.461978 
L 168.937009 244.055253 
L 169.279111 231.441109 
L 169.621213 244.573632 
L 169.963314 250.771778 
L 170.305416 234.872155 
L 170.647518 247.54788 
L 170.98962 237.459182 
L 171.331721 243.258313 
L 171.673823 238.21281 
L 172.015925 241.756924 
L 172.358027 248.789204 
L 172.700128 244.114935 
L 173.04223 247.306126 
L 173.384332 246.38768 
L 173.726434 244.075293 
L 174.068535 250.782997 
L 174.410637 248.985819 
L 174.752739 240.325657 
L 175.436942 245.359761 
L 175.779044 251.732857 
L 176.121146 247.00956 
L 176.463247 250.821164 
L 176.805349 241.437651 
L 177.147451 244.403202 
L 177.489553 232.326193 
L 177.831654 239.250545 
L 178.173756 234.042452 
L 178.515858 232.140509 
L 178.85796 248.205389 
L 179.200061 251.638094 
L 179.884265 239.98504 
L 180.226367 241.666449 
L 180.568468 248.977294 
L 180.91057 246.747701 
L 181.252672 251.196437 
L 181.594773 244.565468 
L 181.936875 240.553726 
L 182.278977 248.582489 
L 182.621079 249.978072 
L 182.96318 250.442434 
L 183.305282 243.64583 
L 183.647384 241.831094 
L 183.989486 246.575728 
L 184.331587 244.996634 
L 185.015791 249.661839 
L 185.357893 246.759388 
L 185.699994 234.958384 
L 186.042096 242.537424 
L 186.384198 236.686118 
L 186.726299 255.22703 
L 187.068401 254.504577 
L 187.410503 256.839344 
L 187.752605 252.930057 
L 188.094706 256.614989 
L 188.436808 253.006142 
L 188.77891 253.355452 
L 189.121012 254.210454 
L 189.463113 246.757104 
L 189.805215 233.75439 
L 190.147317 252.667055 
L 190.489419 253.865986 
L 190.83152 257.215323 
L 191.173622 249.365772 
L 191.515724 256.351006 
L 191.857825 250.858762 
L 192.199927 252.935613 
L 192.542029 253.96378 
L 192.884131 250.125048 
L 193.226232 251.251877 
L 193.568334 249.259257 
L 193.910436 255.588062 
L 194.252538 254.785553 
L 194.594639 257.530924 
L 194.936741 255.88429 
L 195.278843 252.479864 
L 195.620945 254.106331 
L 195.963046 257.456198 
L 196.305148 251.951155 
L 196.64725 251.182771 
L 196.989351 253.973632 
L 197.673555 237.002422 
L 198.015657 254.083166 
L 198.357758 251.089811 
L 198.69986 251.387966 
L 199.041962 250.923735 
L 199.726165 247.83716 
L 200.068267 243.070275 
L 200.410369 241.691121 
L 200.752471 255.340192 
L 201.094572 246.043613 
L 201.436674 243.879848 
L 201.778776 240.03615 
L 202.120877 257.408996 
L 202.462979 226.073913 
L 202.805081 242.33966 
L 203.147183 244.049902 
L 203.489284 242.561552 
L 203.831386 230.090586 
L 204.173488 224.208204 
L 204.51559 231.648982 
L 204.857691 232.356325 
L 205.199793 245.817636 
L 205.541895 243.172174 
L 205.883997 245.301199 
L 206.226098 240.480161 
L 206.5682 224.826511 
L 206.910302 245.962504 
L 207.594505 229.087391 
L 208.278709 233.747492 
L 208.62081 249.944149 
L 208.962912 239.21477 
L 209.305014 240.841152 
L 209.647116 239.286184 
L 209.989217 240.146083 
L 210.331319 243.248503 
L 210.673421 234.450998 
L 211.015523 241.734123 
L 211.357624 241.094113 
L 211.699726 244.410038 
L 212.041828 237.772945 
L 212.383929 247.117347 
L 212.726031 234.831171 
L 213.068133 226.888969 
L 213.410235 243.434593 
L 213.752336 236.769169 
L 214.094438 240.380445 
L 214.43654 246.156825 
L 215.120743 237.005887 
L 215.462845 239.016251 
L 215.804947 224.539675 
L 216.147049 219.826138 
L 216.48915 243.887103 
L 216.831252 184.697474 
L 217.173354 241.584673 
L 217.515456 239.393009 
L 217.857557 226.407733 
L 218.199659 244.856023 
L 218.541761 235.151586 
L 218.883862 235.891549 
L 219.225964 244.394451 
L 219.568066 233.68499 
L 219.910168 245.053281 
L 220.252269 231.96415 
L 220.594371 242.247062 
L 220.936473 234.94272 
L 221.278575 244.672129 
L 221.620676 194.307884 
L 221.962778 232.7358 
L 222.30488 240.507929 
L 222.646982 237.055643 
L 222.989083 246.222591 
L 223.331185 242.384649 
L 223.673287 247.814631 
L 224.015388 238.4514 
L 224.35749 247.104937 
L 224.699592 230.682395 
L 225.041694 245.286241 
L 225.383795 245.913292 
L 225.725897 257.974783 
L 226.067999 236.053306 
L 226.410101 238.058734 
L 226.752202 238.767482 
L 227.436406 246.505482 
L 227.778508 242.394726 
L 228.120609 250.642689 
L 228.462711 247.054508 
L 228.804813 240.166835 
L 229.146914 244.103378 
L 229.489016 251.751541 
L 229.831118 230.295395 
L 230.17322 245.745618 
L 230.515321 234.807258 
L 230.857423 236.529243 
L 231.199525 247.959412 
L 231.541627 232.13369 
L 231.883728 246.829594 
L 232.22583 241.839103 
L 232.910034 246.904549 
L 233.594237 230.387078 
L 234.27844 238.590785 
L 234.620542 238.438597 
L 234.962644 247.49568 
L 235.304746 248.36503 
L 235.646847 243.608723 
L 235.988949 245.058216 
L 236.331051 244.025703 
L 236.673153 253.132979 
L 237.015254 249.63251 
L 237.357356 240.060436 
L 237.699458 250.209308 
L 238.04156 251.325417 
L 238.383661 233.343907 
L 238.725763 232.299175 
L 239.067865 241.39514 
L 239.409966 243.347621 
L 239.752068 242.188147 
L 240.09417 250.034368 
L 240.436272 240.457233 
L 240.778373 218.36004 
L 241.120475 251.90528 
L 241.462577 250.746486 
L 241.804679 234.547322 
L 242.488882 248.740334 
L 242.830984 243.066059 
L 243.173086 244.583791 
L 243.515187 238.142258 
L 243.857289 236.054449 
L 244.199391 238.247611 
L 244.541492 243.2677 
L 244.883594 242.233727 
L 245.225696 244.273219 
L 245.567798 244.566965 
L 245.909899 237.952969 
L 246.252001 251.501824 
L 246.594103 256.185478 
L 246.936205 250.31443 
L 247.278306 234.819307 
L 247.620408 248.301296 
L 247.96251 248.636898 
L 248.304612 237.20645 
L 248.646713 251.158127 
L 248.988815 241.179022 
L 249.330917 242.080303 
L 249.673018 245.701197 
L 250.01512 244.946765 
L 250.357222 228.435752 
L 250.699324 233.206693 
L 251.041425 251.59448 
L 251.383527 245.560111 
L 251.725629 246.356178 
L 252.067731 223.187264 
L 252.409832 246.292587 
L 252.751934 235.511648 
L 253.094036 238.484416 
L 253.436138 249.035095 
L 253.778239 242.972114 
L 254.120341 209.143291 
L 254.462443 235.252699 
L 254.804544 240.188852 
L 255.146646 238.704662 
L 255.488748 245.734314 
L 255.83085 236.46171 
L 256.172951 235.540793 
L 256.515053 238.622586 
L 256.857155 249.257883 
L 257.199257 237.881957 
L 257.541358 246.408258 
L 257.88346 246.12309 
L 258.225562 250.515958 
L 258.567664 249.47751 
L 258.909765 252.315659 
L 259.251867 238.630704 
L 259.593969 230.86708 
L 260.278172 240.805532 
L 260.620274 241.065914 
L 260.962376 245.694747 
L 261.304477 222.454085 
L 261.646579 243.131727 
L 261.988681 246.008247 
L 262.330783 258.644287 
L 262.672884 229.152997 
L 263.014986 246.106196 
L 263.357088 231.841857 
L 263.69919 241.007664 
L 264.041291 245.966433 
L 264.383393 244.836172 
L 265.067597 256.278269 
L 265.409698 243.265549 
L 265.7518 257.002828 
L 266.093902 257.984509 
L 266.436003 235.617981 
L 266.778105 256.036476 
L 267.120207 235.962794 
L 267.462309 238.873879 
L 267.80441 229.443287 
L 268.146512 231.355613 
L 268.488614 60.771974 
L 268.830716 237.155309 
L 269.172817 238.80917 
L 269.514919 233.958312 
L 269.857021 98.589408 
L 270.199123 245.262504 
L 270.541224 246.023856 
L 270.883326 247.780179 
L 271.225428 237.288208 
L 271.567529 241.249392 
L 271.909631 247.746456 
L 272.251733 240.940496 
L 272.593835 250.329009 
L 272.935936 251.325068 
L 273.62014 244.848816 
L 274.304343 235.589713 
L 274.646445 239.247493 
L 274.988547 247.798849 
L 275.330649 234.24355 
L 275.67275 148.663267 
L 276.014852 243.396587 
L 276.356954 238.348729 
L 276.699055 240.257485 
L 277.041157 196.075995 
L 277.383259 243.154906 
L 277.725361 232.241798 
L 278.067462 230.044383 
L 278.409564 231.137379 
L 278.751666 237.731569 
L 279.093768 234.59962 
L 279.435869 235.295016 
L 279.777971 238.407565 
L 280.120073 244.270815 
L 280.462175 241.261401 
L 280.804276 241.366762 
L 281.146378 244.102526 
L 281.48848 225.554733 
L 281.830581 246.181907 
L 282.172683 240.092259 
L 282.514785 223.266308 
L 282.856887 235.280123 
L 283.198988 234.175678 
L 283.54109 231.860311 
L 283.883192 227.386358 
L 284.225294 238.300013 
L 284.567395 222.237523 
L 284.909497 247.295496 
L 285.251599 229.886576 
L 285.593701 238.361191 
L 285.935802 228.491646 
L 286.277904 236.336259 
L 286.620006 236.788235 
L 286.962107 239.685975 
L 287.304209 236.578468 
L 287.646311 241.192647 
L 287.988413 232.168842 
L 288.330514 242.884732 
L 288.672616 224.034605 
L 289.014718 232.526308 
L 289.35682 219.947787 
L 289.698921 239.843435 
L 290.041023 225.654232 
L 290.383125 240.635003 
L 290.725227 231.705954 
L 291.067328 233.313996 
L 291.40943 53.568 
L 291.751532 221.556191 
L 292.093633 226.688135 
L 292.435735 227.36999 
L 292.777837 235.528244 
L 293.119939 232.122436 
L 293.46204 234.399274 
L 293.804142 234.562037 
L 294.146244 233.082393 
L 294.488346 220.644165 
L 295.172549 246.796184 
L 295.514651 243.738615 
L 295.856753 237.880626 
L 296.198854 235.136815 
L 296.540956 230.250856 
L 296.883058 211.848644 
L 297.225159 240.486586 
L 297.567261 247.111159 
L 297.909363 246.519712 
L 298.935668 233.991121 
L 299.27777 205.396931 
L 299.619872 54.551411 
L 299.961973 237.561247 
L 300.304075 64.29112 
L 300.646177 220.541154 
L 300.988279 69.831383 
L 301.672482 229.983007 
L 302.014584 243.983337 
L 302.356686 237.540518 
L 302.698787 221.107678 
L 303.382991 243.270352 
L 303.725092 243.095228 
L 304.067194 215.547936 
L 304.409296 240.901881 
L 304.751398 236.719984 
L 305.093499 246.554695 
L 305.435601 239.344646 
L 305.777703 229.244145 
L 306.119805 241.942498 
L 306.461906 234.645328 
L 306.804008 242.395536 
L 307.14611 238.356721 
L 307.488212 230.5097 
L 307.830313 233.738184 
L 308.172415 193.459665 
L 308.514517 231.350795 
L 308.856618 236.740443 
L 309.19872 223.538298 
L 309.540822 197.930941 
L 309.882924 243.996641 
L 310.225025 249.986955 
L 310.567127 212.449454 
L 310.909229 80.899424 
L 311.251331 215.137088 
L 311.593432 234.820872 
L 311.935534 207.611056 
L 312.277636 235.814843 
L 312.619738 217.536328 
L 312.961839 234.672574 
L 313.303941 246.114406 
L 313.646043 233.108417 
L 313.988144 230.922095 
L 314.330246 243.294361 
L 314.672348 246.684523 
L 315.01445 248.234974 
L 315.356551 246.664918 
L 315.698653 235.446582 
L 316.040755 236.219736 
L 316.382857 233.152354 
L 316.724958 194.675706 
L 317.06706 231.17113 
L 317.409162 238.764919 
L 317.751264 235.635183 
L 318.093365 235.174575 
L 318.435467 242.79254 
L 318.777569 232.947515 
L 319.11967 237.902021 
L 319.461772 246.019904 
L 319.803874 233.745572 
L 320.145976 229.757832 
L 320.488077 238.594337 
L 320.830179 242.875151 
L 321.172281 248.739658 
L 321.514383 245.844451 
L 321.856484 245.437633 
L 322.540688 225.853766 
L 322.88279 238.572591 
L 323.224891 240.496439 
L 323.566993 223.908071 
L 323.909095 242.804735 
L 324.251196 244.959847 
L 324.9354 236.262366 
L 325.277502 220.209726 
L 325.619603 235.97981 
L 325.961705 238.0411 
L 326.303807 249.344387 
L 326.645909 242.865339 
L 326.98801 233.788927 
L 327.330112 242.645328 
L 327.672214 228.521088 
L 328.014316 240.026825 
L 328.356417 228.507706 
L 328.698519 237.995678 
L 329.040621 236.378651 
L 329.382722 241.152036 
L 329.724824 227.230195 
L 330.066926 234.7863 
L 330.409028 102.985183 
L 330.751129 226.976329 
L 331.093231 224.774935 
L 331.435333 106.125175 
L 331.777435 233.014071 
L 332.119536 220.472261 
L 332.461638 242.824135 
L 333.145842 245.01463 
L 333.487943 238.201999 
L 333.830045 245.058767 
L 334.514248 247.469723 
L 334.85635 238.032646 
L 335.198452 241.333803 
L 335.540554 241.478564 
L 335.882655 234.048525 
L 336.224757 231.002296 
L 336.566859 210.07841 
L 336.908961 239.916617 
L 337.251062 236.006714 
L 337.593164 239.108239 
L 337.935266 245.182888 
L 338.277368 236.536906 
L 338.619469 231.370292 
L 338.961571 222.82669 
L 339.303673 236.164658 
L 339.645774 234.661504 
L 339.987876 242.567606 
L 340.329978 246.304624 
L 340.67208 254.781245 
L 341.014181 244.73693 
L 341.356283 248.443685 
L 341.698385 244.601564 
L 342.040487 237.772222 
L 342.382588 239.397377 
L 342.72469 233.291642 
L 343.066792 239.12804 
L 343.408894 237.129914 
L 343.750995 245.276512 
L 344.093097 245.124123 
L 344.435199 241.215649 
L 344.777301 235.774831 
L 345.119402 252.098901 
L 345.461504 224.375622 
L 345.803606 242.0567 
L 346.145707 217.498884 
L 346.829911 238.326291 
L 347.172013 238.255998 
L 347.514114 232.735257 
L 347.856216 242.41738 
L 348.198318 236.294544 
L 348.54042 244.068678 
L 348.882521 244.161182 
L 349.224623 235.164812 
L 349.566725 207.241714 
L 349.908827 207.135721 
L 350.250928 236.67309 
L 350.59303 234.856734 
L 350.935132 239.841835 
L 351.277233 238.698564 
L 351.619335 228.199076 
L 351.961437 239.277366 
L 352.303539 235.008469 
L 352.64564 239.914518 
L 352.987742 220.675021 
L 353.671946 243.272135 
L 354.014047 236.817941 
L 354.356149 238.062019 
L 354.698251 201.205689 
L 355.040353 239.957009 
L 355.382454 240.86825 
L 355.724556 230.807804 
L 356.066658 234.761945 
L 356.408759 250.578338 
L 356.750861 244.549383 
L 357.092963 228.550145 
L 357.435065 229.748435 
L 357.777166 230.275008 
L 358.119268 242.028851 
L 358.46137 198.587216 
L 359.145573 236.805568 
L 359.487675 239.406702 
L 359.829777 235.918164 
L 360.171879 225.640645 
L 360.51398 236.332625 
L 360.856082 229.1518 
L 361.198184 232.955388 
L 361.540285 230.547906 
L 361.882387 211.402691 
L 362.224489 232.463 
L 362.566591 228.984527 
L 363.250794 210.640136 
L 363.592896 239.075576 
L 363.934998 241.393725 
L 364.277099 220.474107 
L 364.619201 245.343121 
L 364.961303 247.198908 
L 365.303405 247.719766 
L 365.645506 243.731484 
L 365.987608 228.368022 
L 366.32971 230.610831 
L 366.671811 227.596303 
L 367.013913 243.655977 
L 367.356015 239.07221 
L 367.698117 245.409408 
L 368.040218 245.985051 
L 368.38232 234.445239 
L 368.724422 234.369323 
L 369.066524 239.001653 
L 369.408625 238.096972 
L 369.750727 243.177348 
L 370.092829 235.019473 
L 370.434931 241.061343 
L 370.777032 231.038788 
L 371.119134 240.809256 
L 371.461236 212.038233 
L 371.803337 240.508888 
L 372.145439 239.192301 
L 372.487541 234.880579 
L 372.829643 235.952034 
L 373.171744 233.35912 
L 373.513846 243.243277 
L 373.855948 246.091817 
L 374.19805 241.726529 
L 374.540151 239.676402 
L 374.882253 240.905105 
L 375.224355 232.77585 
L 375.566457 235.282336 
L 375.908558 235.466617 
L 376.25066 241.302037 
L 376.592762 242.593316 
L 376.934863 232.789345 
L 377.276965 241.997903 
L 377.619067 230.817785 
L 378.645372 243.520011 
L 378.987474 234.107581 
L 379.329576 229.983595 
L 379.671677 216.232593 
L 380.013779 230.738891 
L 380.355881 236.537584 
L 380.697983 221.62063 
L 381.040084 246.563309 
L 381.382186 204.209714 
L 381.724288 241.747435 
L 382.06639 246.398623 
L 382.408491 239.289538 
L 382.750593 218.069608 
L 383.092695 223.898522 
L 383.776898 243.260533 
L 384.119 227.46722 
L 384.461102 246.264494 
L 384.803203 237.031633 
L 385.145305 238.914732 
L 385.487407 224.105435 
L 385.829509 246.102864 
L 386.17161 238.73753 
L 386.513712 237.715607 
L 386.855814 251.173279 
L 387.197916 245.242031 
L 387.540017 248.182896 
L 387.882119 243.299082 
L 388.224221 244.804018 
L 388.566322 240.083491 
L 388.908424 242.999414 
L 389.250526 240.816582 
L 389.592628 244.139743 
L 389.934729 248.549208 
L 390.276831 205.063933 
L 390.618933 239.472547 
L 390.961035 244.14057 
L 391.645238 241.611693 
L 391.98734 247.460468 
L 392.329442 238.495817 
L 392.671543 235.106828 
L 393.013645 236.595529 
L 393.355747 227.864007 
L 393.697848 245.636579 
L 394.03995 235.941148 
L 394.382052 237.362789 
L 394.724154 208.648643 
L 395.066255 218.964873 
L 395.408357 220.342699 
L 395.750459 241.126723 
L 396.092561 230.770852 
L 396.434662 245.171977 
L 396.776764 207.770696 
L 397.460968 231.525978 
L 398.145171 79.049111 
L 398.487273 237.939983 
L 398.487273 237.939983 
" style="fill:none;stroke:#ff0000;stroke-linecap:square;stroke-width:1.5;"/>
   </g>
   <g id="patch_3">
    <path d="M 57.6 307.584 
L 57.6 41.472 
" style="fill:none;stroke:#000000;stroke-linecap:square;stroke-linejoin:miter;stroke-width:0.8;"/>
   </g>
   <g id="patch_4">
    <path d="M 414.72 307.584 
L 414.72 41.472 
" style="fill:none;stroke:#000000;stroke-linecap:square;stroke-linejoin:miter;stroke-width:0.8;"/>
   </g>
   <g id="patch_5">
    <path d="M 57.6 307.584 
L 414.72 307.584 
" style="fill:none;stroke:#000000;stroke-linecap:square;stroke-linejoin:miter;stroke-width:0.8;"/>
   </g>
   <g id="patch_6">
    <path d="M 57.6 41.472 
L 414.72 41.472 
" style="fill:none;stroke:#000000;stroke-linecap:square;stroke-linejoin:miter;stroke-width:0.8;"/>
   </g>
   <g id="text_17">
    <!-- Population's average and best fitness -->
    <g transform="translate(123.529687 35.472)scale(0.12 -0.12)">
     <defs>
      <path d="M 19.671875 64.796875 
L 19.671875 37.40625 
L 32.078125 37.40625 
Q 38.96875 37.40625 42.71875 40.96875 
Q 46.484375 44.53125 46.484375 51.125 
Q 46.484375 57.671875 42.71875 61.234375 
Q 38.96875 64.796875 32.078125 64.796875 
z
M 9.8125 72.90625 
L 32.078125 72.90625 
Q 44.34375 72.90625 50.609375 67.359375 
Q 56.890625 61.8125 56.890625 51.125 
Q 56.890625 40.328125 50.609375 34.8125 
Q 44.34375 29.296875 32.078125 29.296875 
L 19.671875 29.296875 
L 19.671875 0 
L 9.8125 0 
z
" id="DejaVuSans-80"/>
      <path d="M 18.109375 8.203125 
L 18.109375 -20.796875 
L 9.078125 -20.796875 
L 9.078125 54.6875 
L 18.109375 54.6875 
L 18.109375 46.390625 
Q 20.953125 51.265625 25.265625 53.625 
Q 29.59375 56 35.59375 56 
Q 45.5625 56 51.78125 48.09375 
Q 58.015625 40.1875 58.015625 27.296875 
Q 58.015625 14.40625 51.78125 6.484375 
Q 45.5625 -1.421875 35.59375 -1.421875 
Q 29.59375 -1.421875 25.265625 0.953125 
Q 20.953125 3.328125 18.109375 8.203125 
z
M 48.6875 27.296875 
Q 48.6875 37.203125 44.609375 42.84375 
Q 40.53125 48.484375 33.40625 48.484375 
Q 26.265625 48.484375 22.1875 42.84375 
Q 18.109375 37.203125 18.109375 27.296875 
Q 18.109375 17.390625 22.1875 11.75 
Q 26.265625 6.109375 33.40625 6.109375 
Q 40.53125 6.109375 44.609375 11.75 
Q 48.6875 17.390625 48.6875 27.296875 
z
" id="DejaVuSans-112"/>
      <path d="M 8.5 21.578125 
L 8.5 54.6875 
L 17.484375 54.6875 
L 17.484375 21.921875 
Q 17.484375 14.15625 20.5 10.265625 
Q 23.53125 6.390625 29.59375 6.390625 
Q 36.859375 6.390625 41.078125 11.03125 
Q 45.3125 15.671875 45.3125 23.6875 
L 45.3125 54.6875 
L 54.296875 54.6875 
L 54.296875 0 
L 45.3125 0 
L 45.3125 8.40625 
Q 42.046875 3.421875 37.71875 1 
Q 33.40625 -1.421875 27.6875 -1.421875 
Q 18.265625 -1.421875 13.375 4.4375 
Q 8.5 10.296875 8.5 21.578125 
z
M 31.109375 56 
z
" id="DejaVuSans-117"/>
      <path d="M 9.421875 75.984375 
L 18.40625 75.984375 
L 18.40625 0 
L 9.421875 0 
z
" id="DejaVuSans-108"/>
      <path d="M 17.921875 72.90625 
L 17.921875 45.796875 
L 9.625 45.796875 
L 9.625 72.90625 
z
" id="DejaVuSans-39"/>
      <path id="DejaVuSans-32"/>
      <path d="M 2.984375 54.6875 
L 12.5 54.6875 
L 29.59375 8.796875 
L 46.6875 54.6875 
L 56.203125 54.6875 
L 35.6875 0 
L 23.484375 0 
z
" id="DejaVuSans-118"/>
      <path d="M 45.40625 27.984375 
Q 45.40625 37.75 41.375 43.109375 
Q 37.359375 48.484375 30.078125 48.484375 
Q 22.859375 48.484375 18.828125 43.109375 
Q 14.796875 37.75 14.796875 27.984375 
Q 14.796875 18.265625 18.828125 12.890625 
Q 22.859375 7.515625 30.078125 7.515625 
Q 37.359375 7.515625 41.375 12.890625 
Q 45.40625 18.265625 45.40625 27.984375 
z
M 54.390625 6.78125 
Q 54.390625 -7.171875 48.1875 -13.984375 
Q 42 -20.796875 29.203125 -20.796875 
Q 24.46875 -20.796875 20.265625 -20.09375 
Q 16.0625 -19.390625 12.109375 -17.921875 
L 12.109375 -9.1875 
Q 16.0625 -11.328125 19.921875 -12.34375 
Q 23.78125 -13.375 27.78125 -13.375 
Q 36.625 -13.375 41.015625 -8.765625 
Q 45.40625 -4.15625 45.40625 5.171875 
L 45.40625 9.625 
Q 42.625 4.78125 38.28125 2.390625 
Q 33.9375 0 27.875 0 
Q 17.828125 0 11.671875 7.65625 
Q 5.515625 15.328125 5.515625 27.984375 
Q 5.515625 40.671875 11.671875 48.328125 
Q 17.828125 56 27.875 56 
Q 33.9375 56 38.28125 53.609375 
Q 42.625 51.21875 45.40625 46.390625 
L 45.40625 54.6875 
L 54.390625 54.6875 
z
" id="DejaVuSans-103"/>
      <path d="M 45.40625 46.390625 
L 45.40625 75.984375 
L 54.390625 75.984375 
L 54.390625 0 
L 45.40625 0 
L 45.40625 8.203125 
Q 42.578125 3.328125 38.25 0.953125 
Q 33.9375 -1.421875 27.875 -1.421875 
Q 17.96875 -1.421875 11.734375 6.484375 
Q 5.515625 14.40625 5.515625 27.296875 
Q 5.515625 40.1875 11.734375 48.09375 
Q 17.96875 56 27.875 56 
Q 33.9375 56 38.25 53.625 
Q 42.578125 51.265625 45.40625 46.390625 
z
M 14.796875 27.296875 
Q 14.796875 17.390625 18.875 11.75 
Q 22.953125 6.109375 30.078125 6.109375 
Q 37.203125 6.109375 41.296875 11.75 
Q 45.40625 17.390625 45.40625 27.296875 
Q 45.40625 37.203125 41.296875 42.84375 
Q 37.203125 48.484375 30.078125 48.484375 
Q 22.953125 48.484375 18.875 42.84375 
Q 14.796875 37.203125 14.796875 27.296875 
z
" id="DejaVuSans-100"/>
      <path d="M 48.6875 27.296875 
Q 48.6875 37.203125 44.609375 42.84375 
Q 40.53125 48.484375 33.40625 48.484375 
Q 26.265625 48.484375 22.1875 42.84375 
Q 18.109375 37.203125 18.109375 27.296875 
Q 18.109375 17.390625 22.1875 11.75 
Q 26.265625 6.109375 33.40625 6.109375 
Q 40.53125 6.109375 44.609375 11.75 
Q 48.6875 17.390625 48.6875 27.296875 
z
M 18.109375 46.390625 
Q 20.953125 51.265625 25.265625 53.625 
Q 29.59375 56 35.59375 56 
Q 45.5625 56 51.78125 48.09375 
Q 58.015625 40.1875 58.015625 27.296875 
Q 58.015625 14.40625 51.78125 6.484375 
Q 45.5625 -1.421875 35.59375 -1.421875 
Q 29.59375 -1.421875 25.265625 0.953125 
Q 20.953125 3.328125 18.109375 8.203125 
L 18.109375 0 
L 9.078125 0 
L 9.078125 75.984375 
L 18.109375 75.984375 
z
" id="DejaVuSans-98"/>
      <path d="M 37.109375 75.984375 
L 37.109375 68.5 
L 28.515625 68.5 
Q 23.6875 68.5 21.796875 66.546875 
Q 19.921875 64.59375 19.921875 59.515625 
L 19.921875 54.6875 
L 34.71875 54.6875 
L 34.71875 47.703125 
L 19.921875 47.703125 
L 19.921875 0 
L 10.890625 0 
L 10.890625 47.703125 
L 2.296875 47.703125 
L 2.296875 54.6875 
L 10.890625 54.6875 
L 10.890625 58.5 
Q 10.890625 67.625 15.140625 71.796875 
Q 19.390625 75.984375 28.609375 75.984375 
z
" id="DejaVuSans-102"/>
     </defs>
     <use xlink:href="#DejaVuSans-80"/>
     <use x="56.677734" xlink:href="#DejaVuSans-111"/>
     <use x="117.859375" xlink:href="#DejaVuSans-112"/>
     <use x="181.335938" xlink:href="#DejaVuSans-117"/>
     <use x="244.714844" xlink:href="#DejaVuSans-108"/>
     <use x="272.498047" xlink:href="#DejaVuSans-97"/>
     <use x="333.777344" xlink:href="#DejaVuSans-116"/>
     <use x="372.986328" xlink:href="#DejaVuSans-105"/>
     <use x="400.769531" xlink:href="#DejaVuSans-111"/>
     <use x="461.951172" xlink:href="#DejaVuSans-110"/>
     <use x="525.330078" xlink:href="#DejaVuSans-39"/>
     <use x="552.820312" xlink:href="#DejaVuSans-115"/>
     <use x="604.919922" xlink:href="#DejaVuSans-32"/>
     <use x="636.707031" xlink:href="#DejaVuSans-97"/>
     <use x="697.986328" xlink:href="#DejaVuSans-118"/>
     <use x="757.166016" xlink:href="#DejaVuSans-101"/>
     <use x="818.689453" xlink:href="#DejaVuSans-114"/>
     <use x="859.802734" xlink:href="#DejaVuSans-97"/>
     <use x="921.082031" xlink:href="#DejaVuSans-103"/>
     <use x="984.558594" xlink:href="#DejaVuSans-101"/>
     <use x="1046.082031" xlink:href="#DejaVuSans-32"/>
     <use x="1077.869141" xlink:href="#DejaVuSans-97"/>
     <use x="1139.148438" xlink:href="#DejaVuSans-110"/>
     <use x="1202.527344" xlink:href="#DejaVuSans-100"/>
     <use x="1266.003906" xlink:href="#DejaVuSans-32"/>
     <use x="1297.791016" xlink:href="#DejaVuSans-98"/>
     <use x="1361.267578" xlink:href="#DejaVuSans-101"/>
     <use x="1422.791016" xlink:href="#DejaVuSans-115"/>
     <use x="1474.890625" xlink:href="#DejaVuSans-116"/>
     <use x="1514.099609" xlink:href="#DejaVuSans-32"/>
     <use x="1545.886719" xlink:href="#DejaVuSans-102"/>
     <use x="1581.091797" xlink:href="#DejaVuSans-105"/>
     <use x="1608.875" xlink:href="#DejaVuSans-116"/>
     <use x="1648.083984" xlink:href="#DejaVuSans-110"/>
     <use x="1711.462891" xlink:href="#DejaVuSans-101"/>
     <use x="1772.986328" xlink:href="#DejaVuSans-115"/>
     <use x="1825.085938" xlink:href="#DejaVuSans-115"/>
    </g>
   </g>
   <g id="legend_1">
    <g id="patch_7">
     <path d="M 334.779375 78.82825 
L 407.72 78.82825 
Q 409.72 78.82825 409.72 76.82825 
L 409.72 48.472 
Q 409.72 46.472 407.72 46.472 
L 334.779375 46.472 
Q 332.779375 46.472 332.779375 48.472 
L 332.779375 76.82825 
Q 332.779375 78.82825 334.779375 78.82825 
z
" style="fill:#ffffff;opacity:0.8;stroke:#cccccc;stroke-linejoin:miter;"/>
    </g>
    <g id="line2d_31">
     <path d="M 336.779375 54.570437 
L 356.779375 54.570437 
" style="fill:none;stroke:#0000ff;stroke-linecap:square;stroke-width:1.5;"/>
    </g>
    <g id="line2d_32"/>
    <g id="text_18">
     <!-- average -->
     <g transform="translate(364.779375 58.070437)scale(0.1 -0.1)">
      <use xlink:href="#DejaVuSans-97"/>
      <use x="61.279297" xlink:href="#DejaVuSans-118"/>
      <use x="120.458984" xlink:href="#DejaVuSans-101"/>
      <use x="181.982422" xlink:href="#DejaVuSans-114"/>
      <use x="223.095703" xlink:href="#DejaVuSans-97"/>
      <use x="284.375" xlink:href="#DejaVuSans-103"/>
      <use x="347.851562" xlink:href="#DejaVuSans-101"/>
     </g>
    </g>
    <g id="line2d_33">
     <path d="M 336.779375 69.248562 
L 356.779375 69.248562 
" style="fill:none;stroke:#ff0000;stroke-linecap:square;stroke-width:1.5;"/>
    </g>
    <g id="line2d_34"/>
    <g id="text_19">
     <!-- best -->
     <g transform="translate(364.779375 72.748562)scale(0.1 -0.1)">
      <use xlink:href="#DejaVuSans-98"/>
      <use x="63.476562" xlink:href="#DejaVuSans-101"/>
      <use x="125" xlink:href="#DejaVuSans-115"/>
      <use x="177.099609" xlink:href="#DejaVuSans-116"/>
     </g>
    </g>
   </g>
  </g>
 </g>
 <defs>
  <clipPath id="p0769230c45">
   <rect height="266.112" width="357.12" x="57.6" y="41.472"/>
  </clipPath>
 </defs>
</svg>
