<?xml version="1.0" encoding="UTF-8" standalone="no"?>
<!DOCTYPE svg PUBLIC "-//W3C//DTD SVG 1.1//EN"
 "http://www.w3.org/Graphics/SVG/1.1/DTD/svg11.dtd">
<!-- Generated by graphviz version 2.40.1 (20161225.0304)
 -->
<!-- Title: %3 Pages: 1 -->
<svg width="1316pt" height="174pt"
 viewBox="0.00 0.00 1315.50 173.72" xmlns="http://www.w3.org/2000/svg" xmlns:xlink="http://www.w3.org/1999/xlink">
<g id="graph0" class="graph" transform="scale(1 1) rotate(0) translate(4 169.7229)">
<title>%3</title>
<polygon fill="#ffffff" stroke="transparent" points="-4,4 -4,-169.7229 1311.5,-169.7229 1311.5,4 -4,4"/>
<!-- A_agent -->
<g id="node1" class="node">
<title>A_agent</title>
<polygon fill="#d3d3d3" stroke="#000000" points="753.5,-165.7229 706.5,-165.7229 706.5,-147.7229 753.5,-147.7229 753.5,-165.7229"/>
<text text-anchor="middle" x="730" y="-154.5229" font-family="Times,serif" font-size="9.00" fill="#000000">A_agent</text>
</g>
<!-- no_move -->
<g id="node25" class="node">
<title>no_move</title>
<ellipse fill="#add8e6" stroke="#000000" cx="279" cy="-55.8614" rx="35.2113" ry="35.2113"/>
<text text-anchor="middle" x="279" y="-53.6614" font-family="Times,serif" font-size="9.00" fill="#000000">no_move</text>
</g>
<!-- A_agent&#45;&gt;no_move -->
<g id="edge68" class="edge">
<title>A_agent&#45;&gt;no_move</title>
<path fill="none" stroke="#00ff00" stroke-width=".2942" stroke-dasharray="1,5" d="M706.3417,-149.5837C703.5464,-148.8846 700.7208,-148.2431 698,-147.7229 546.1429,-118.6877 495.6691,-168.8437 352,-111.7229 337.6618,-106.0222 323.7411,-96.6592 311.9678,-87.2135"/>
<polygon fill="#00ff00" stroke="#00ff00" stroke-width=".2942" points="314.0986,-84.433 304.1813,-80.7049 309.6092,-89.8038 314.0986,-84.433"/>
</g>
<!-- right -->
<g id="node26" class="node">
<title>right</title>
<ellipse fill="#add8e6" stroke="#000000" cx="720" cy="-55.8614" rx="23.1702" ry="23.1702"/>
<text text-anchor="middle" x="720" y="-53.6614" font-family="Times,serif" font-size="9.00" fill="#000000">right</text>
</g>
<!-- A_agent&#45;&gt;right -->
<g id="edge79" class="edge">
<title>A_agent&#45;&gt;right</title>
<path fill="none" stroke="#ff0000" stroke-width=".102" d="M729.0771,-147.4149C727.7843,-134.3748 725.3661,-109.9845 723.3506,-89.6559"/>
<polygon fill="#ff0000" stroke="#ff0000" stroke-width=".102" points="726.811,-89.083 722.3414,-79.4771 719.8452,-89.7737 726.811,-89.083"/>
</g>
<!-- left -->
<g id="node27" class="node">
<title>left</title>
<ellipse fill="#add8e6" stroke="#000000" cx="795" cy="-55.8614" rx="19.6" ry="19.6"/>
<text text-anchor="middle" x="795" y="-53.6614" font-family="Times,serif" font-size="9.00" fill="#000000">left</text>
</g>
<!-- A_agent&#45;&gt;left -->
<g id="edge54" class="edge">
<title>A_agent&#45;&gt;left</title>
<path fill="none" stroke="#ff0000" stroke-width=".3141" d="M735.9985,-147.4149C745.5685,-132.5651 764.6242,-102.996 778.498,-81.4679"/>
<polygon fill="#ff0000" stroke="#ff0000" stroke-width=".3141" points="781.6087,-83.1019 784.0838,-72.8002 775.7247,-79.31 781.6087,-83.1019"/>
</g>
<!-- forward -->
<g id="node28" class="node">
<title>forward</title>
<ellipse fill="#add8e6" stroke="#000000" cx="626" cy="-55.8614" rx="31.6406" ry="31.6406"/>
<text text-anchor="middle" x="626" y="-53.6614" font-family="Times,serif" font-size="9.00" fill="#000000">forward</text>
</g>
<!-- A_agent&#45;&gt;forward -->
<g id="edge35" class="edge">
<title>A_agent&#45;&gt;forward</title>
<path fill="none" stroke="#00ff00" stroke-width=".4392" stroke-dasharray="1,5" d="M720.4023,-147.4149C706.0082,-133.4551 678.2014,-106.4875 656.4788,-85.4205"/>
<polygon fill="#00ff00" stroke="#00ff00" stroke-width=".4392" points="658.6962,-82.6953 649.081,-78.2459 653.8229,-87.7203 658.6962,-82.6953"/>
</g>
<!-- backward -->
<g id="node29" class="node">
<title>backward</title>
<ellipse fill="#add8e6" stroke="#000000" cx="919" cy="-55.8614" rx="36.125" ry="36.125"/>
<text text-anchor="middle" x="919" y="-53.6614" font-family="Times,serif" font-size="9.00" fill="#000000">backward</text>
</g>
<!-- A_agent&#45;&gt;backward -->
<g id="edge33" class="edge">
<title>A_agent&#45;&gt;backward</title>
<path fill="none" stroke="#00ff00" stroke-width=".7823" stroke-dasharray="1,5" d="M750.418,-147.5575C769.6278,-138.7918 799.083,-124.982 824,-111.7229 842.3843,-101.94 862.3089,-90.3778 879.1406,-80.3178"/>
<polygon fill="#00ff00" stroke="#00ff00" stroke-width=".7823" points="881.3774,-83.0569 888.1439,-74.9043 877.7702,-77.0578 881.3774,-83.0569"/>
</g>
<!-- no_turn -->
<g id="node30" class="node">
<title>no_turn</title>
<ellipse fill="#add8e6" stroke="#000000" cx="1042" cy="-55.8614" rx="31.2258" ry="31.2258"/>
<text text-anchor="middle" x="1042" y="-53.6614" font-family="Times,serif" font-size="9.00" fill="#000000">no_turn</text>
</g>
<!-- A_agent&#45;&gt;no_turn -->
<g id="edge88" class="edge">
<title>A_agent&#45;&gt;no_turn</title>
<path fill="none" stroke="#00ff00" stroke-width=".288" d="M753.7298,-149.9798C756.8375,-149.1766 759.9876,-148.402 763,-147.7229 851.5329,-127.7635 880.3867,-147.0111 964,-111.7229 980.6476,-104.6969 997.1929,-93.5942 1010.733,-83.1316"/>
<polygon fill="#00ff00" stroke="#00ff00" stroke-width=".288" points="1013.1111,-85.712 1018.7494,-76.7421 1008.748,-80.2381 1013.1111,-85.712"/>
</g>
<!-- clockwise -->
<g id="node32" class="node">
<title>clockwise</title>
<ellipse fill="#add8e6" stroke="#000000" cx="398" cy="-55.8614" rx="36.5405" ry="36.5405"/>
<text text-anchor="middle" x="398" y="-53.6614" font-family="Times,serif" font-size="9.00" fill="#000000">clockwise</text>
</g>
<!-- A_agent&#45;&gt;clockwise -->
<g id="edge70" class="edge">
<title>A_agent&#45;&gt;clockwise</title>
<path fill="none" stroke="#ff0000" stroke-width=".6128" d="M706.3216,-149.6836C703.5299,-148.9666 700.7107,-148.2935 698,-147.7229 586.4282,-124.2359 543.4325,-167.5179 444,-111.7229 436.519,-107.525 429.7563,-101.5925 423.8608,-95.1492"/>
<polygon fill="#ff0000" stroke="#ff0000" stroke-width=".6128" points="426.4692,-92.8131 417.3473,-87.4241 421.1176,-97.3254 426.4692,-92.8131"/>
</g>
<!-- A_lm -->
<g id="node2" class="node">
<title>A_lm</title>
<polygon fill="#d3d3d3" stroke="#000000" points="1048.5,-165.7229 1011.5,-165.7229 1011.5,-147.7229 1048.5,-147.7229 1048.5,-165.7229"/>
<text text-anchor="middle" x="1030" y="-154.5229" font-family="Times,serif" font-size="9.00" fill="#000000">A_lm</text>
</g>
<!-- A_lm&#45;&gt;right -->
<g id="edge20" class="edge">
<title>A_lm&#45;&gt;right</title>
<path fill="none" stroke="#ff0000" stroke-width=".3305" d="M1011.4405,-150.3006C1008.3128,-149.3502 1005.0815,-148.4483 1002,-147.7229 898.7206,-123.4114 858.254,-164.1335 766,-111.7229 754.6499,-105.2747 744.9353,-94.8583 737.3984,-84.7571"/>
<polygon fill="#ff0000" stroke="#ff0000" stroke-width=".3305" points="740.1861,-82.6359 731.5915,-76.4404 734.4467,-86.6433 740.1861,-82.6359"/>
</g>
<!-- A_lm&#45;&gt;left -->
<g id="edge85" class="edge">
<title>A_lm&#45;&gt;left</title>
<path fill="none" stroke="#ff0000" stroke-width=".9369" d="M1011.3538,-150.624C1008.2365,-149.6347 1005.0312,-148.636 1002,-147.7229 945.4154,-130.678 927.3452,-137.1518 874,-111.7229 853.6578,-102.026 832.9407,-87.1514 817.8281,-75.1888"/>
<polygon fill="#ff0000" stroke="#ff0000" stroke-width=".9369" points="820.0227,-72.4622 810.0468,-68.8939 815.6201,-77.9044 820.0227,-72.4622"/>
</g>
<!-- A_lm&#45;&gt;backward -->
<g id="edge43" class="edge">
<title>A_lm&#45;&gt;backward</title>
<path fill="none" stroke="#00ff00" stroke-width=".4391" d="M1019.7563,-147.4149C1004.8084,-133.8323 976.3083,-107.9353 953.4234,-87.1407"/>
<polygon fill="#00ff00" stroke="#00ff00" stroke-width=".4391" points="955.6602,-84.444 945.9054,-80.3093 950.9527,-89.6247 955.6602,-84.444"/>
</g>
<!-- counterclockwise -->
<g id="node31" class="node">
<title>counterclockwise</title>
<ellipse fill="#add8e6" stroke="#000000" cx="509" cy="-55.8614" rx="55.7232" ry="55.7232"/>
<text text-anchor="middle" x="509" y="-53.6614" font-family="Times,serif" font-size="9.00" fill="#000000">counterclockwise</text>
</g>
<!-- A_lm&#45;&gt;counterclockwise -->
<g id="edge31" class="edge">
<title>A_lm&#45;&gt;counterclockwise</title>
<path fill="none" stroke="#00ff00" stroke-width=".3052" d="M1011.4784,-150.1267C1008.3462,-149.1972 1005.1036,-148.3473 1002,-147.7229 819.6323,-111.0288 759.0993,-177.2505 585,-111.7229 576.3338,-108.4611 567.7881,-103.9148 559.7323,-98.8105"/>
<polygon fill="#00ff00" stroke="#00ff00" stroke-width=".3052" points="561.4551,-95.7516 551.2008,-93.0872 557.5554,-101.5648 561.4551,-95.7516"/>
</g>
<!-- B_agent -->
<g id="node3" class="node">
<title>B_agent</title>
<polygon fill="#d3d3d3" stroke="#000000" points="46,-165.7229 0,-165.7229 0,-147.7229 46,-147.7229 46,-165.7229"/>
<text text-anchor="middle" x="23" y="-154.5229" font-family="Times,serif" font-size="9.00" fill="#000000">B_agent</text>
</g>
<!-- B_agent&#45;&gt;no_move -->
<g id="edge29" class="edge">
<title>B_agent&#45;&gt;no_move</title>
<path fill="none" stroke="#ff0000" stroke-width=".267" d="M46.1698,-147.5942C89.1298,-130.6684 181.7235,-94.1874 236.3123,-72.68"/>
<polygon fill="#ff0000" stroke="#ff0000" stroke-width=".267" points="237.6941,-75.8975 245.715,-68.9754 235.1281,-69.3847 237.6941,-75.8975"/>
</g>
<!-- B_agent&#45;&gt;counterclockwise -->
<g id="edge1" class="edge">
<title>B_agent&#45;&gt;counterclockwise</title>
<path fill="none" stroke="#00ff00" stroke-width=".1389" stroke-dasharray="1,5" d="M46.3032,-149.64C49.2131,-148.9123 52.1628,-148.2486 55,-147.7229 225.7214,-116.0877 284.1532,-179.5135 444,-111.7229 449.9332,-109.2066 455.7193,-105.9428 461.2383,-102.2564"/>
<polygon fill="#00ff00" stroke="#00ff00" stroke-width=".1389" points="463.6175,-104.8554 469.6739,-96.1623 459.5183,-99.1812 463.6175,-104.8554"/>
</g>
<!-- B_agent&#45;&gt;clockwise -->
<g id="edge84" class="edge">
<title>B_agent&#45;&gt;clockwise</title>
<path fill="none" stroke="#ff0000" stroke-width=".2756" d="M46.3254,-149.7535C49.2315,-149.0063 52.1742,-148.307 55,-147.7229 172.6926,-123.3935 211.7003,-157.0642 323,-111.7229 337.1713,-105.9498 351.0737,-96.8558 362.9844,-87.6688"/>
<polygon fill="#ff0000" stroke="#ff0000" stroke-width=".2756" points="365.2757,-90.3178 370.8909,-81.3333 360.8985,-84.8552 365.2757,-90.3178"/>
</g>
<!-- B_lm -->
<g id="node4" class="node">
<title>B_lm</title>
<polygon fill="#d3d3d3" stroke="#000000" points="319.5,-165.7229 282.5,-165.7229 282.5,-147.7229 319.5,-147.7229 319.5,-165.7229"/>
<text text-anchor="middle" x="301" y="-154.5229" font-family="Times,serif" font-size="9.00" fill="#000000">B_lm</text>
</g>
<!-- B_lm&#45;&gt;forward -->
<g id="edge3" class="edge">
<title>B_lm&#45;&gt;forward</title>
<path fill="none" stroke="#ff0000" stroke-width=".1307" stroke-dasharray="1,5" d="M319.5561,-150.286C322.6842,-149.3374 325.9165,-148.4398 329,-147.7229 436.1987,-122.7986 476.5595,-162.8906 574,-111.7229 584.1489,-106.3935 593.3771,-98.2863 601.1478,-89.8874"/>
<polygon fill="#ff0000" stroke="#ff0000" stroke-width=".1307" points="603.9421,-92.0077 607.859,-82.1635 598.6581,-87.4165 603.9421,-92.0077"/>
</g>
<!-- B_lm&#45;&gt;counterclockwise -->
<g id="edge91" class="edge">
<title>B_lm&#45;&gt;counterclockwise</title>
<path fill="none" stroke="#00ff00" stroke-width=".1663" d="M319.6697,-150.7001C322.7842,-149.7016 325.9824,-148.6801 329,-147.7229 380.0498,-131.5283 397.1713,-137.7116 444,-111.7229 449.5497,-108.6429 455.0546,-105.0385 460.3756,-101.1697"/>
<polygon fill="#00ff00" stroke="#00ff00" stroke-width=".1663" points="462.7458,-103.7634 468.5657,-94.9102 458.4951,-98.2018 462.7458,-103.7634"/>
</g>
<!-- B_lm&#45;&gt;clockwise -->
<g id="edge19" class="edge">
<title>B_lm&#45;&gt;clockwise</title>
<path fill="none" stroke="#ff0000" stroke-width=".5665" stroke-dasharray="1,5" d="M309.9517,-147.4149C322.483,-134.3847 345.9134,-110.0216 365.4548,-89.7022"/>
<polygon fill="#ff0000" stroke="#ff0000" stroke-width=".5665" points="368.0419,-92.0614 372.451,-82.4275 362.9965,-87.2091 368.0419,-92.0614"/>
</g>
<!-- C_agent -->
<g id="node5" class="node">
<title>C_agent</title>
<polygon fill="#d3d3d3" stroke="#000000" points="993,-165.7229 947,-165.7229 947,-147.7229 993,-147.7229 993,-165.7229"/>
<text text-anchor="middle" x="970" y="-154.5229" font-family="Times,serif" font-size="9.00" fill="#000000">C_agent</text>
</g>
<!-- C_agent&#45;&gt;right -->
<g id="edge78" class="edge">
<title>C_agent&#45;&gt;right</title>
<path fill="none" stroke="#ff0000" stroke-width=".1557" d="M946.9773,-150.0463C943.9657,-149.2322 940.9148,-148.4369 938,-147.7229 862.1422,-129.1394 832.822,-152.1528 766,-111.7229 754.8313,-104.9654 745.1509,-94.4907 737.5905,-84.4295"/>
<polygon fill="#ff0000" stroke="#ff0000" stroke-width=".1557" points="740.3812,-82.3138 731.7524,-76.1661 734.6641,-86.353 740.3812,-82.3138"/>
</g>
<!-- C_agent&#45;&gt;left -->
<g id="edge87" class="edge">
<title>C_agent&#45;&gt;left</title>
<path fill="none" stroke="#ff0000" stroke-width=".4953" d="M947.7055,-147.6085C927.8788,-139.1925 898.3427,-125.8848 874,-111.7229 854.8231,-100.5663 834.4055,-86.0523 819.1321,-74.615"/>
<polygon fill="#ff0000" stroke="#ff0000" stroke-width=".4953" points="820.8655,-71.537 810.782,-68.2851 816.6367,-77.1154 820.8655,-71.537"/>
</g>
<!-- C_agent&#45;&gt;backward -->
<g id="edge80" class="edge">
<title>C_agent&#45;&gt;backward</title>
<path fill="none" stroke="#00ff00" stroke-width=".2057" stroke-dasharray="1,5" d="M965.2935,-147.4149C959.487,-135.9316 949.2299,-115.6463 939.8439,-97.084"/>
<polygon fill="#00ff00" stroke="#00ff00" stroke-width=".2057" points="942.9655,-95.5008 935.3296,-88.1561 936.7186,-98.6595 942.9655,-95.5008"/>
</g>
<!-- C_agent&#45;&gt;clockwise -->
<g id="edge57" class="edge">
<title>C_agent&#45;&gt;clockwise</title>
<path fill="none" stroke="#ff0000" stroke-width=".105" d="M946.7065,-149.5862C943.7949,-148.8677 940.8423,-148.2209 938,-147.7229 829.5828,-128.7263 541.766,-162.2893 444,-111.7229 436.3004,-107.7405 429.4095,-101.8467 423.4509,-95.3611"/>
<polygon fill="#ff0000" stroke="#ff0000" stroke-width=".105" points="426.0043,-92.9593 416.8915,-87.5549 420.6451,-97.4626 426.0043,-92.9593"/>
</g>
<!-- C_lm -->
<g id="node6" class="node">
<title>C_lm</title>
<polygon fill="#d3d3d3" stroke="#000000" points="873.5,-165.7229 836.5,-165.7229 836.5,-147.7229 873.5,-147.7229 873.5,-165.7229"/>
<text text-anchor="middle" x="855" y="-154.5229" font-family="Times,serif" font-size="9.00" fill="#000000">C_lm</text>
</g>
<!-- C_lm&#45;&gt;backward -->
<g id="edge41" class="edge">
<title>C_lm&#45;&gt;backward</title>
<path fill="none" stroke="#00ff00" stroke-width=".2971" stroke-dasharray="1,5" d="M860.9063,-147.4149C868.4737,-135.4888 882.0653,-114.0691 894.1999,-94.9453"/>
<polygon fill="#00ff00" stroke="#00ff00" stroke-width=".2971" points="897.2434,-96.6815 899.6459,-86.3627 891.3329,-92.931 897.2434,-96.6815"/>
</g>
<!-- C_lm&#45;&gt;counterclockwise -->
<g id="edge96" class="edge">
<title>C_lm&#45;&gt;counterclockwise</title>
<path fill="none" stroke="#00ff00" stroke-width=".3573" d="M836.2387,-150.0033C833.4972,-149.1578 830.6913,-148.3656 828,-147.7229 721.8072,-122.3635 685.9613,-153.2779 585,-111.7229 576.4373,-108.1985 567.9492,-103.5056 559.9206,-98.3323"/>
<polygon fill="#00ff00" stroke="#00ff00" stroke-width=".3573" points="561.649,-95.2756 551.4073,-92.5628 557.7219,-101.0703 561.649,-95.2756"/>
</g>
<!-- D_agent -->
<g id="node7" class="node">
<title>D_agent</title>
<polygon fill="#d3d3d3" stroke="#000000" points="1252.5,-165.7229 1205.5,-165.7229 1205.5,-147.7229 1252.5,-147.7229 1252.5,-165.7229"/>
<text text-anchor="middle" x="1229" y="-154.5229" font-family="Times,serif" font-size="9.00" fill="#000000">D_agent</text>
</g>
<!-- D_agent&#45;&gt;right -->
<g id="edge11" class="edge">
<title>D_agent&#45;&gt;right</title>
<path fill="none" stroke="#00ff00" stroke-width=".9083" d="M1205.3245,-149.7096C1202.208,-148.9505 1199.0409,-148.2602 1196,-147.7229 1101.5729,-131.0381 850.9332,-156.2338 766,-111.7229 754.3508,-105.6179 744.5366,-95.1643 737.0047,-84.9398"/>
<polygon fill="#00ff00" stroke="#00ff00" stroke-width=".9083" points="739.7648,-82.7757 731.2246,-76.5055 733.9906,-86.7329 739.7648,-82.7757"/>
</g>
<!-- D_agent&#45;&gt;no_turn -->
<g id="edge51" class="edge">
<title>D_agent&#45;&gt;no_turn</title>
<path fill="none" stroke="#00ff00" stroke-width=".3529" stroke-dasharray="1,5" d="M1212.0752,-147.5942C1182.0481,-131.3986 1118.826,-97.2988 1078.4929,-75.5445"/>
<polygon fill="#00ff00" stroke="#00ff00" stroke-width=".3529" points="1079.9738,-72.3666 1069.5108,-70.6998 1076.6507,-78.5276 1079.9738,-72.3666"/>
</g>
<!-- D_lm -->
<g id="node8" class="node">
<title>D_lm</title>
<polygon fill="#d3d3d3" stroke="#000000" points="928.5,-165.7229 891.5,-165.7229 891.5,-147.7229 928.5,-147.7229 928.5,-165.7229"/>
<text text-anchor="middle" x="910" y="-154.5229" font-family="Times,serif" font-size="9.00" fill="#000000">D_lm</text>
</g>
<!-- D_lm&#45;&gt;right -->
<g id="edge62" class="edge">
<title>D_lm&#45;&gt;right</title>
<path fill="none" stroke="#ff0000" stroke-width=".2465" d="M891.4275,-150.469C888.6075,-149.5377 885.7291,-148.5975 883,-147.7229 831.1895,-131.1194 811.2019,-142.0014 766,-111.7229 755.236,-104.5126 745.6796,-94.0466 738.1046,-84.1178"/>
<polygon fill="#ff0000" stroke="#ff0000" stroke-width=".2465" points="740.9208,-82.0393 732.2246,-75.9873 735.2487,-86.1414 740.9208,-82.0393"/>
</g>
<!-- D_lm&#45;&gt;forward -->
<g id="edge38" class="edge">
<title>D_lm&#45;&gt;forward</title>
<path fill="none" stroke="#00ff00" stroke-width=".3418" d="M891.217,-150.0905C888.4787,-149.2322 885.6795,-148.4132 883,-147.7229 797.6558,-125.7349 767.0498,-150.6875 688,-111.7229 675.6766,-105.6485 663.9757,-96.4094 654.1271,-87.1836"/>
<polygon fill="#00ff00" stroke="#00ff00" stroke-width=".3418" points="656.5715,-84.6786 646.9773,-80.1839 651.6745,-89.6806 656.5715,-84.6786"/>
</g>
<!-- D_lm&#45;&gt;no_turn -->
<g id="edge34" class="edge">
<title>D_lm&#45;&gt;no_turn</title>
<path fill="none" stroke="#ff0000" stroke-width=".4167" d="M922.1816,-147.4149C941.7578,-132.4567 980.8797,-102.5635 1009.1034,-80.9978"/>
<polygon fill="#ff0000" stroke="#ff0000" stroke-width=".4167" points="1011.2928,-83.7297 1017.1137,-74.8771 1007.0427,-78.1676 1011.2928,-83.7297"/>
</g>
<!-- D_lm&#45;&gt;counterclockwise -->
<g id="edge9" class="edge">
<title>D_lm&#45;&gt;counterclockwise</title>
<path fill="none" stroke="#00ff00" stroke-width=".1832" stroke-dasharray="1,5" d="M891.254,-149.937C888.5103,-149.1012 885.6997,-148.3294 883,-147.7229 752.8369,-118.481 709.037,-160.8387 585,-111.7229 576.3907,-108.3138 567.8767,-103.6852 559.8359,-98.5423"/>
<polygon fill="#00ff00" stroke="#00ff00" stroke-width=".1832" points="561.5616,-95.4845 551.3144,-92.793 557.6466,-101.2874 561.5616,-95.4845"/>
</g>
<!-- E_agent -->
<g id="node9" class="node">
<title>E_agent</title>
<polygon fill="#d3d3d3" stroke="#000000" points="476,-165.7229 430,-165.7229 430,-147.7229 476,-147.7229 476,-165.7229"/>
<text text-anchor="middle" x="453" y="-154.5229" font-family="Times,serif" font-size="9.00" fill="#000000">E_agent</text>
</g>
<!-- E_agent&#45;&gt;no_move -->
<g id="edge66" class="edge">
<title>E_agent&#45;&gt;no_move</title>
<path fill="none" stroke="#ff0000" stroke-width=".1886" d="M429.7788,-148.1763C408.8015,-140.0414 377.4142,-126.8245 352,-111.7229 339.0836,-104.0477 325.7942,-94.4625 314.1531,-85.4102"/>
<polygon fill="#ff0000" stroke="#ff0000" stroke-width=".1886" points="316.0084,-82.4147 305.9969,-78.9478 311.6613,-87.9013 316.0084,-82.4147"/>
</g>
<!-- E_agent&#45;&gt;right -->
<g id="edge75" class="edge">
<title>E_agent&#45;&gt;right</title>
<path fill="none" stroke="#ff0000" stroke-width=".441" stroke-dasharray="1,5" d="M476.0153,-150.0156C479.028,-149.2066 482.0813,-148.4208 485,-147.7229 565.1951,-128.5456 594.7759,-151.506 667,-111.7229 679.7837,-104.6812 691.3028,-93.4864 700.311,-82.9612"/>
<polygon fill="#ff0000" stroke="#ff0000" stroke-width=".441" points="703.0924,-85.0885 706.6896,-75.123 697.6629,-80.6701 703.0924,-85.0885"/>
</g>
<!-- E_agent&#45;&gt;forward -->
<g id="edge40" class="edge">
<title>E_agent&#45;&gt;forward</title>
<path fill="none" stroke="#ff0000" stroke-width=".5959" d="M476.0004,-149.5761C506.2659,-139.934 557.5495,-122.7045 574,-111.7229 583.3652,-105.4711 592.2431,-97.2139 599.9251,-88.9719"/>
<polygon fill="#ff0000" stroke="#ff0000" stroke-width=".5959" points="602.5773,-91.2566 606.6235,-81.4648 597.3542,-86.5961 602.5773,-91.2566"/>
</g>
<!-- E_agent&#45;&gt;backward -->
<g id="edge24" class="edge">
<title>E_agent&#45;&gt;backward</title>
<path fill="none" stroke="#ff0000" stroke-width=".6671" stroke-dasharray="1,5" d="M476.3102,-149.6773C479.2189,-148.9432 482.1664,-148.2678 485,-147.7229 633.7877,-119.1107 680.1149,-159.1941 824,-111.7229 844.1145,-105.0866 864.5975,-93.7438 881.369,-83.006"/>
<polygon fill="#ff0000" stroke="#ff0000" stroke-width=".6671" points="883.348,-85.8935 889.7794,-77.474 879.5013,-80.0452 883.348,-85.8935"/>
</g>
<!-- E_agent&#45;&gt;counterclockwise -->
<g id="edge2" class="edge">
<title>E_agent&#45;&gt;counterclockwise</title>
<path fill="none" stroke="#00ff00" stroke-width=".4271" d="M458.168,-147.4149C462.6119,-139.4108 469.4301,-127.1306 476.6438,-114.1381"/>
<polygon fill="#00ff00" stroke="#00ff00" stroke-width=".4271" points="479.8825,-115.5152 481.6767,-105.0734 473.7625,-112.1172 479.8825,-115.5152"/>
</g>
<!-- E_agent&#45;&gt;clockwise -->
<g id="edge4" class="edge">
<title>E_agent&#45;&gt;clockwise</title>
<path fill="none" stroke="#00ff00" stroke-width=".1721" d="M447.9243,-147.4149C441.6624,-135.9316 430.6009,-115.6463 420.4788,-97.084"/>
<polygon fill="#00ff00" stroke="#00ff00" stroke-width=".1721" points="423.4707,-95.26 415.6103,-88.1561 417.3251,-98.6112 423.4707,-95.26"/>
</g>
<!-- E_lm -->
<g id="node10" class="node">
<title>E_lm</title>
<polygon fill="#d3d3d3" stroke="#000000" points="100,-165.7229 64,-165.7229 64,-147.7229 100,-147.7229 100,-165.7229"/>
<text text-anchor="middle" x="82" y="-154.5229" font-family="Times,serif" font-size="9.00" fill="#000000">E_lm</text>
</g>
<!-- E_lm&#45;&gt;no_move -->
<g id="edge16" class="edge">
<title>E_lm&#45;&gt;no_move</title>
<path fill="none" stroke="#00ff00" stroke-width=".5336" d="M99.8299,-147.5942C130.89,-131.6918 195.6654,-98.5277 238.2244,-76.738"/>
<polygon fill="#00ff00" stroke="#00ff00" stroke-width=".5336" points="239.9056,-79.8094 247.2118,-72.1366 236.7155,-73.5785 239.9056,-79.8094"/>
</g>
<!-- E_lm&#45;&gt;forward -->
<g id="edge32" class="edge">
<title>E_lm&#45;&gt;forward</title>
<path fill="none" stroke="#00ff00" stroke-width=".2007" d="M100.1357,-150.0075C103.0673,-149.1169 106.0942,-148.3104 109,-147.7229 210.5867,-127.1823 480.6404,-156.7314 574,-111.7229 584.3258,-106.7448 593.6113,-98.7515 601.3804,-90.3494"/>
<polygon fill="#00ff00" stroke="#00ff00" stroke-width=".2007" points="604.1907,-92.4501 608.0753,-82.593 598.8916,-87.8762 604.1907,-92.4501"/>
</g>
<!-- E_lm&#45;&gt;counterclockwise -->
<g id="edge13" class="edge">
<title>E_lm&#45;&gt;counterclockwise</title>
<path fill="none" stroke="#00ff00" stroke-width=".1104" d="M100.1517,-150.0835C103.0812,-149.1831 106.1032,-148.3536 109,-147.7229 255.3175,-115.8625 306.5748,-171.2057 444,-111.7229 449.9144,-109.1629 455.6882,-105.8701 461.1995,-102.1658"/>
<polygon fill="#00ff00" stroke="#00ff00" stroke-width=".1104" points="463.5877,-104.7573 469.6267,-96.0521 459.4772,-99.0913 463.5877,-104.7573"/>
</g>
<!-- E_lm&#45;&gt;clockwise -->
<g id="edge93" class="edge">
<title>E_lm&#45;&gt;clockwise</title>
<path fill="none" stroke="#ff0000" stroke-width=".7239" d="M100.187,-150.2348C103.1119,-149.3149 106.1233,-148.4397 109,-147.7229 202.5859,-124.4031 234.2949,-149.5849 323,-111.7229 337.0737,-105.7158 350.9504,-96.5601 362.8675,-87.3886"/>
<polygon fill="#ff0000" stroke="#ff0000" stroke-width=".7239" points="365.1478,-90.0468 370.7831,-81.075 360.7829,-84.5744 365.1478,-90.0468"/>
</g>
<!-- F_agent -->
<g id="node11" class="node">
<title>F_agent</title>
<polygon fill="#d3d3d3" stroke="#000000" points="217.5,-165.7229 172.5,-165.7229 172.5,-147.7229 217.5,-147.7229 217.5,-165.7229"/>
<text text-anchor="middle" x="195" y="-154.5229" font-family="Times,serif" font-size="9.00" fill="#000000">F_agent</text>
</g>
<!-- F_agent&#45;&gt;no_move -->
<g id="edge25" class="edge">
<title>F_agent&#45;&gt;no_move</title>
<path fill="none" stroke="#ff0000" stroke-width=".3037" d="M202.752,-147.4149C213.3652,-134.6712 233.0063,-111.0875 249.6955,-91.0483"/>
<polygon fill="#ff0000" stroke="#ff0000" stroke-width=".3037" points="252.4475,-93.213 256.1576,-83.289 247.0686,-88.7333 252.4475,-93.213"/>
</g>
<!-- F_agent&#45;&gt;forward -->
<g id="edge61" class="edge">
<title>F_agent&#45;&gt;forward</title>
<path fill="none" stroke="#ff0000" stroke-width=".4306" d="M217.6116,-149.8476C220.7455,-149.0462 223.939,-148.3077 227,-147.7229 379.2956,-118.6273 435.2244,-180.8736 574,-111.7229 584.2599,-106.6105 593.5241,-98.5735 601.2938,-90.1727"/>
<polygon fill="#ff0000" stroke="#ff0000" stroke-width=".4306" points="604.0979,-92.2809 607.9947,-82.4287 598.8045,-87.7005 604.0979,-92.2809"/>
</g>
<!-- F_agent&#45;&gt;counterclockwise -->
<g id="edge26" class="edge">
<title>F_agent&#45;&gt;counterclockwise</title>
<path fill="none" stroke="#ff0000" stroke-width=".1563" d="M217.6476,-150.0215C220.7759,-149.1932 223.9582,-148.4008 227,-147.7229 322.4215,-126.4565 355.4314,-153.113 444,-111.7229 449.8386,-108.9944 455.5622,-105.5901 461.0425,-101.8168"/>
<polygon fill="#ff0000" stroke="#ff0000" stroke-width=".1563" points="463.4645,-104.3796 469.4358,-95.6277 459.3101,-98.7456 463.4645,-104.3796"/>
</g>
<!-- F_lm -->
<g id="node12" class="node">
<title>F_lm</title>
<polygon fill="#d3d3d3" stroke="#000000" points="154,-165.7229 118,-165.7229 118,-147.7229 154,-147.7229 154,-165.7229"/>
<text text-anchor="middle" x="136" y="-154.5229" font-family="Times,serif" font-size="9.00" fill="#000000">F_lm</text>
</g>
<!-- F_lm&#45;&gt;no_move -->
<g id="edge37" class="edge">
<title>F_lm&#45;&gt;no_move</title>
<path fill="none" stroke="#ff0000" stroke-width=".247" stroke-dasharray="1,5" d="M149.1968,-147.4149C170.0529,-132.7045 211.3878,-103.55 241.8327,-82.0765"/>
<polygon fill="#ff0000" stroke="#ff0000" stroke-width=".247" points="243.9504,-84.8659 250.1049,-76.2419 239.9157,-79.1456 243.9504,-84.8659"/>
</g>
<!-- F_lm&#45;&gt;right -->
<g id="edge5" class="edge">
<title>F_lm&#45;&gt;right</title>
<path fill="none" stroke="#00ff00" stroke-width=".2473" d="M154.1327,-149.9923C157.0646,-149.1037 160.0924,-148.3018 163,-147.7229 273.1239,-125.7973 565.4811,-159.7012 667,-111.7229 680.2917,-105.4412 691.944,-94.2484 700.9126,-83.5229"/>
<polygon fill="#00ff00" stroke="#00ff00" stroke-width=".2473" points="703.7927,-85.5227 707.2307,-75.5012 698.2936,-81.1915 703.7927,-85.5227"/>
</g>
<!-- F_lm&#45;&gt;counterclockwise -->
<g id="edge55" class="edge">
<title>F_lm&#45;&gt;counterclockwise</title>
<path fill="none" stroke="#ff0000" stroke-width=".6377" d="M154.1632,-150.1353C157.0913,-149.2282 160.1098,-148.3831 163,-147.7229 285.7476,-119.6825 328.9654,-162.9114 444,-111.7229 449.888,-109.1028 455.6443,-105.7702 461.1449,-102.0413"/>
<polygon fill="#ff0000" stroke="#ff0000" stroke-width=".6377" points="463.5453,-104.6226 469.5603,-95.9008 459.4191,-98.9679 463.5453,-104.6226"/>
</g>
<!-- F_lm&#45;&gt;clockwise -->
<g id="edge7" class="edge">
<title>F_lm&#45;&gt;clockwise</title>
<path fill="none" stroke="#ff0000" stroke-width=".1998" d="M154.2233,-150.3726C157.1436,-149.4348 160.144,-148.518 163,-147.7229 233.2183,-128.1735 256.7692,-142.1575 323,-111.7229 336.9043,-105.3335 350.7364,-96.0771 362.6647,-86.9307"/>
<polygon fill="#ff0000" stroke="#ff0000" stroke-width=".1998" points="364.9273,-89.6036 370.5961,-80.6528 360.5828,-84.1149 364.9273,-89.6036"/>
</g>
<!-- G_agent -->
<g id="node13" class="node">
<title>G_agent</title>
<polygon fill="#d3d3d3" stroke="#000000" points="818.5,-165.7229 771.5,-165.7229 771.5,-147.7229 818.5,-147.7229 818.5,-165.7229"/>
<text text-anchor="middle" x="795" y="-154.5229" font-family="Times,serif" font-size="9.00" fill="#000000">G_agent</text>
</g>
<!-- G_agent&#45;&gt;no_move -->
<g id="edge81" class="edge">
<title>G_agent&#45;&gt;no_move</title>
<path fill="none" stroke="#ff0000" stroke-width=".2406" d="M771.3499,-149.5398C768.5531,-148.8486 765.725,-148.2209 763,-147.7229 582.6217,-114.7564 522.9392,-178.0772 352,-111.7229 337.6158,-106.1393 323.6838,-96.8049 311.9143,-87.3495"/>
<polygon fill="#ff0000" stroke="#ff0000" stroke-width=".2406" points="314.0454,-84.5689 304.1327,-80.8288 309.5494,-89.9343 314.0454,-84.5689"/>
</g>
<!-- G_agent&#45;&gt;right -->
<g id="edge30" class="edge">
<title>G_agent&#45;&gt;right</title>
<path fill="none" stroke="#00ff00" stroke-width=".133" d="M788.0786,-147.4149C777.2579,-132.863 755.9269,-104.1766 740.0114,-82.7732"/>
<polygon fill="#00ff00" stroke="#00ff00" stroke-width=".133" points="742.7727,-80.621 733.997,-74.6848 737.1555,-84.7979 742.7727,-80.621"/>
</g>
<!-- G_agent&#45;&gt;left -->
<g id="edge83" class="edge">
<title>G_agent&#45;&gt;left</title>
<path fill="none" stroke="#ff0000" stroke-width=".7918" d="M795,-147.4149C795,-133.564 795,-106.9077 795,-85.9149"/>
<polygon fill="#ff0000" stroke="#ff0000" stroke-width=".7918" points="798.5001,-85.8486 795,-75.8487 791.5001,-85.8487 798.5001,-85.8486"/>
</g>
<!-- G_agent&#45;&gt;forward -->
<g id="edge49" class="edge">
<title>G_agent&#45;&gt;forward</title>
<path fill="none" stroke="#ff0000" stroke-width=".135" stroke-dasharray="1,5" d="M771.354,-149.3476C748.9024,-141.7653 714.7097,-128.6826 688,-111.7229 676.6117,-104.4917 665.3058,-95.131 655.5289,-86.1465"/>
<polygon fill="#ff0000" stroke="#ff0000" stroke-width=".135" points="657.7146,-83.3963 648.0435,-79.0695 652.9056,-88.4829 657.7146,-83.3963"/>
</g>
<!-- G_agent&#45;&gt;backward -->
<g id="edge47" class="edge">
<title>G_agent&#45;&gt;backward</title>
<path fill="none" stroke="#ff0000" stroke-width=".384" d="M806.4434,-147.4149C823.7218,-133.3606 857.2094,-106.1219 883.1848,-84.9935"/>
<polygon fill="#ff0000" stroke="#ff0000" stroke-width=".384" points="885.4295,-87.6793 890.9787,-78.6539 881.0124,-82.2489 885.4295,-87.6793"/>
</g>
<!-- G_agent&#45;&gt;no_turn -->
<g id="edge44" class="edge">
<title>G_agent&#45;&gt;no_turn</title>
<path fill="none" stroke="#00ff00" stroke-width=".3561" stroke-dasharray="1,5" d="M818.7873,-150.2126C821.8856,-149.3714 825.0178,-148.5242 828,-147.7229 888.3842,-131.4969 907.4329,-138.3629 964,-111.7229 980.2225,-104.083 996.595,-92.9898 1010.1223,-82.6988"/>
<polygon fill="#00ff00" stroke="#00ff00" stroke-width=".3561" points="1012.4208,-85.3448 1018.1506,-76.4329 1008.1139,-79.8265 1012.4208,-85.3448"/>
</g>
<!-- G_agent&#45;&gt;counterclockwise -->
<g id="edge65" class="edge">
<title>G_agent&#45;&gt;counterclockwise</title>
<path fill="none" stroke="#00ff00" stroke-width=".3191" stroke-dasharray="1,5" d="M771.2861,-149.8408C768.5008,-149.0956 765.6928,-148.3729 763,-147.7229 684.5407,-128.7834 658.8062,-144.391 585,-111.7229 576.5327,-107.9751 568.0979,-103.1574 560.0944,-97.9254"/>
<polygon fill="#00ff00" stroke="#00ff00" stroke-width=".3191" points="561.8284,-94.8711 551.5979,-92.1165 557.8777,-100.6497 561.8284,-94.8711"/>
</g>
<!-- G_lm -->
<g id="node14" class="node">
<title>G_lm</title>
<polygon fill="#d3d3d3" stroke="#000000" points="623.5,-165.7229 586.5,-165.7229 586.5,-147.7229 623.5,-147.7229 623.5,-165.7229"/>
<text text-anchor="middle" x="605" y="-154.5229" font-family="Times,serif" font-size="9.00" fill="#000000">G_lm</text>
</g>
<!-- G_lm&#45;&gt;right -->
<g id="edge45" class="edge">
<title>G_lm&#45;&gt;right</title>
<path fill="none" stroke="#00ff00" stroke-width=".2984" d="M619.098,-147.5823C632.0392,-138.9426 651.4979,-125.3126 667,-111.7229 677.6292,-102.4049 688.5194,-91.2547 697.6418,-81.3752"/>
<polygon fill="#00ff00" stroke="#00ff00" stroke-width=".2984" points="700.4052,-83.5386 704.54,-73.7839 695.2245,-78.831 700.4052,-83.5386"/>
</g>
<!-- G_lm&#45;&gt;forward -->
<g id="edge89" class="edge">
<title>G_lm&#45;&gt;forward</title>
<path fill="none" stroke="#00ff00" stroke-width=".8178" d="M606.938,-147.4149C609.3197,-135.9758 613.5199,-115.8023 617.3726,-97.2984"/>
<polygon fill="#00ff00" stroke="#00ff00" stroke-width=".8178" points="620.8515,-97.7597 619.4634,-87.2562 613.9985,-96.3328 620.8515,-97.7597"/>
</g>
<!-- G_lm&#45;&gt;no_turn -->
<g id="edge23" class="edge">
<title>G_lm&#45;&gt;no_turn</title>
<path fill="none" stroke="#00ff00" stroke-width=".6416" d="M623.5339,-150.186C626.6646,-149.2494 629.9036,-148.3818 633,-147.7229 777.738,-116.9235 825.7652,-164.5322 964,-111.7229 980.8796,-105.2744 997.4603,-94.2597 1010.9642,-83.7068"/>
<polygon fill="#00ff00" stroke="#00ff00" stroke-width=".6416" points="1013.3806,-86.2538 1018.9499,-77.2408 1008.9756,-80.8136 1013.3806,-86.2538"/>
</g>
<!-- G_lm&#45;&gt;counterclockwise -->
<g id="edge42" class="edge">
<title>G_lm&#45;&gt;counterclockwise</title>
<path fill="none" stroke="#00ff00" stroke-width=".3508" d="M596.1406,-147.4149C586.5605,-137.3496 570.5441,-120.5222 554.8372,-104.0198"/>
<polygon fill="#00ff00" stroke="#00ff00" stroke-width=".3508" points="557.0961,-101.3164 547.6665,-96.486 552.0256,-106.1425 557.0961,-101.3164"/>
</g>
<!-- G_lm&#45;&gt;clockwise -->
<g id="edge52" class="edge">
<title>G_lm&#45;&gt;clockwise</title>
<path fill="none" stroke="#00ff00" stroke-width=".2517" d="M586.3615,-150.5983C583.2433,-149.6121 580.0357,-148.6211 577,-147.7229 518.2782,-130.3484 495.453,-144.93 444,-111.7229 436.8683,-107.1202 430.297,-101.0561 424.487,-94.6226"/>
<polygon fill="#00ff00" stroke="#00ff00" stroke-width=".2517" points="427.1514,-92.3529 418.0283,-86.9659 421.8008,-96.8664 427.1514,-92.3529"/>
</g>
<!-- H_agent -->
<g id="node15" class="node">
<title>H_agent</title>
<polygon fill="#d3d3d3" stroke="#000000" points="688.5,-165.7229 641.5,-165.7229 641.5,-147.7229 688.5,-147.7229 688.5,-165.7229"/>
<text text-anchor="middle" x="665" y="-154.5229" font-family="Times,serif" font-size="9.00" fill="#000000">H_agent</text>
</g>
<!-- H_agent&#45;&gt;right -->
<g id="edge17" class="edge">
<title>H_agent&#45;&gt;right</title>
<path fill="none" stroke="#00ff00" stroke-width=".4532" stroke-dasharray="1,5" d="M670.0757,-147.4149C677.6739,-133.481 692.3389,-106.5876 703.8174,-85.5378"/>
<polygon fill="#00ff00" stroke="#00ff00" stroke-width=".4532" points="706.9559,-87.0929 708.6707,-76.6377 700.8103,-83.7416 706.9559,-87.0929"/>
</g>
<!-- H_agent&#45;&gt;forward -->
<g id="edge56" class="edge">
<title>H_agent&#45;&gt;forward</title>
<path fill="none" stroke="#00ff00" stroke-width=".1367" stroke-dasharray="1,5" d="M661.4009,-147.4149C656.8195,-135.5666 648.6149,-114.3479 641.2572,-95.3195"/>
<polygon fill="#00ff00" stroke="#00ff00" stroke-width=".1367" points="644.4931,-93.9831 637.6221,-85.9183 637.9641,-96.5076 644.4931,-93.9831"/>
</g>
<!-- H_agent&#45;&gt;counterclockwise -->
<g id="edge18" class="edge">
<title>H_agent&#45;&gt;counterclockwise</title>
<path fill="none" stroke="#ff0000" stroke-width=".398" stroke-dasharray="1,5" d="M647.477,-147.6586C631.0251,-138.9643 605.8871,-125.2029 585,-111.7229 577.3209,-106.767 569.3778,-101.3169 561.6507,-95.8236"/>
<polygon fill="#ff0000" stroke="#ff0000" stroke-width=".398" points="563.5348,-92.8673 553.3736,-89.8671 559.446,-98.5491 563.5348,-92.8673"/>
</g>
<!-- H_lm -->
<g id="node16" class="node">
<title>H_lm</title>
<polygon fill="#d3d3d3" stroke="#000000" points="1307.5,-165.7229 1270.5,-165.7229 1270.5,-147.7229 1307.5,-147.7229 1307.5,-165.7229"/>
<text text-anchor="middle" x="1289" y="-154.5229" font-family="Times,serif" font-size="9.00" fill="#000000">H_lm</text>
</g>
<!-- H_lm&#45;&gt;backward -->
<g id="edge6" class="edge">
<title>H_lm&#45;&gt;backward</title>
<path fill="none" stroke="#00ff00" stroke-width=".1553" d="M1270.2442,-149.9799C1267.5019,-149.1378 1264.6943,-148.3528 1262,-147.7229 1148.4052,-121.1651 1110.9734,-153.3628 1002,-111.7229 985.4731,-105.4078 968.9578,-95.2744 955.0613,-85.361"/>
<polygon fill="#00ff00" stroke="#00ff00" stroke-width=".1553" points="956.8975,-82.3665 946.7705,-79.253 952.7456,-88.0022 956.8975,-82.3665"/>
</g>
<!-- &#45;17 -->
<g id="node17" class="node">
<title>&#45;17</title>
<polygon fill="#d3d3d3" stroke="#000000" points="1095,-165.7229 1067,-165.7229 1067,-147.7229 1095,-147.7229 1095,-165.7229"/>
<text text-anchor="middle" x="1081" y="-154.5229" font-family="Times,serif" font-size="9.00" fill="#000000">&#45;17</text>
</g>
<!-- &#45;17&#45;&gt;forward -->
<g id="edge53" class="edge">
<title>&#45;17&#45;&gt;forward</title>
<path fill="none" stroke="#00ff00" stroke-width="1.1032" d="M1066.5941,-150.3889C1063.7876,-149.355 1060.8356,-148.4018 1058,-147.7229 897.3198,-109.254 839.1846,-178.3651 688,-111.7229 675.3224,-106.1346 663.4651,-96.9269 653.5842,-87.5834"/>
<polygon fill="#00ff00" stroke="#00ff00" stroke-width="1.1032" points="655.9907,-85.0405 646.4325,-80.4697 651.0541,-90.0034 655.9907,-85.0405"/>
</g>
<!-- &#45;17&#45;&gt;backward -->
<g id="edge46" class="edge">
<title>&#45;17&#45;&gt;backward</title>
<path fill="none" stroke="#ff0000" stroke-width=".456" stroke-dasharray="1,5" d="M1066.8297,-149.0682C1050.8743,-140.3535 1024.2678,-125.5318 1002,-111.7229 987.0864,-102.4745 971.0168,-91.8254 957.0265,-82.3217"/>
<polygon fill="#ff0000" stroke="#ff0000" stroke-width=".456" points="958.8449,-79.3252 948.6132,-76.5751 954.8967,-85.1055 958.8449,-79.3252"/>
</g>
<!-- &#45;17&#45;&gt;no_turn -->
<g id="edge48" class="edge">
<title>&#45;17&#45;&gt;no_turn</title>
<path fill="none" stroke="#00ff00" stroke-width=".9384" stroke-dasharray="1,5" d="M1077.4009,-147.4149C1072.755,-135.3997 1064.3831,-113.7483 1056.9469,-94.5168"/>
<polygon fill="#00ff00" stroke="#00ff00" stroke-width=".9384" points="1060.1514,-93.0995 1053.2804,-85.0347 1053.6225,-95.6241 1060.1514,-93.0995"/>
</g>
<!-- &#45;17&#45;&gt;counterclockwise -->
<g id="edge74" class="edge">
<title>&#45;17&#45;&gt;counterclockwise</title>
<path fill="none" stroke="#ff0000" stroke-width=".308" stroke-dasharray="1,5" d="M1066.6054,-150.3406C1063.7979,-149.3111 1060.8426,-148.3719 1058,-147.7229 852.4593,-100.7931 782.6913,-184.9864 585,-111.7229 576.3174,-108.5051 567.7624,-103.9834 559.7023,-98.8907"/>
<polygon fill="#ff0000" stroke="#ff0000" stroke-width=".308" points="561.4243,-95.8316 551.1679,-93.1752 557.5292,-101.6478 561.4243,-95.8316"/>
</g>
<!-- &#45;18 -->
<g id="node18" class="node">
<title>&#45;18</title>
<polygon fill="#d3d3d3" stroke="#000000" points="366,-165.7229 338,-165.7229 338,-147.7229 366,-147.7229 366,-165.7229"/>
<text text-anchor="middle" x="352" y="-154.5229" font-family="Times,serif" font-size="9.00" fill="#000000">&#45;18</text>
</g>
<!-- &#45;18&#45;&gt;no_move -->
<g id="edge67" class="edge">
<title>&#45;18&#45;&gt;no_move</title>
<path fill="none" stroke="#00ff00" stroke-width=".1095" d="M345.2632,-147.4149C336.3067,-135.04 319.9521,-112.4435 305.7324,-92.7966"/>
<polygon fill="#00ff00" stroke="#00ff00" stroke-width=".1095" points="308.4952,-90.6443 299.7968,-84.5956 302.8246,-94.7486 308.4952,-90.6443"/>
</g>
<!-- &#45;18&#45;&gt;right -->
<g id="edge12" class="edge">
<title>&#45;18&#45;&gt;right</title>
<path fill="none" stroke="#ff0000" stroke-width=".3021" d="M366.4204,-150.4477C369.2255,-149.4084 372.1733,-148.4381 375,-147.7229 501.7653,-115.6475 550.2513,-170.6126 667,-111.7229 680.0309,-105.1499 691.5863,-94.024 700.5549,-83.4237"/>
<polygon fill="#ff0000" stroke="#ff0000" stroke-width=".3021" points="703.3766,-85.4994 706.8906,-75.5042 697.9105,-81.1264 703.3766,-85.4994"/>
</g>
<!-- &#45;18&#45;&gt;left -->
<g id="edge82" class="edge">
<title>&#45;18&#45;&gt;left</title>
<path fill="none" stroke="#00ff00" stroke-width=".3025" stroke-dasharray="1,5" d="M366.4049,-150.3848C369.2115,-149.3513 372.1638,-148.3992 375,-147.7229 456.8634,-128.2012 678.3457,-152.4384 752,-111.7229 764.0499,-105.0618 773.8132,-93.4672 780.9725,-82.5617"/>
<polygon fill="#00ff00" stroke="#00ff00" stroke-width=".3025" points="784.1639,-84.0498 786.367,-73.6865 778.1821,-80.414 784.1639,-84.0498"/>
</g>
<!-- &#45;18&#45;&gt;clockwise -->
<g id="edge15" class="edge">
<title>&#45;18&#45;&gt;clockwise</title>
<path fill="none" stroke="#00ff00" stroke-width=".2035" d="M356.2451,-147.4149C361.3211,-136.2851 370.1679,-116.8871 378.4155,-98.8032"/>
<polygon fill="#00ff00" stroke="#00ff00" stroke-width=".2035" points="381.6856,-100.0677 382.6507,-89.5169 375.3167,-97.163 381.6856,-100.0677"/>
</g>
<!-- &#45;19 -->
<g id="node19" class="node">
<title>&#45;19</title>
<polygon fill="#d3d3d3" stroke="#000000" points="568,-165.7229 540,-165.7229 540,-147.7229 568,-147.7229 568,-165.7229"/>
<text text-anchor="middle" x="554" y="-154.5229" font-family="Times,serif" font-size="9.00" fill="#000000">&#45;19</text>
</g>
<!-- &#45;19&#45;&gt;backward -->
<g id="edge64" class="edge">
<title>&#45;19&#45;&gt;backward</title>
<path fill="none" stroke="#00ff00" stroke-width=".6454" stroke-dasharray="1,5" d="M568.4334,-150.4981C571.2374,-149.4541 574.1814,-148.4692 577,-147.7229 684.2415,-119.3253 719.3446,-148.5251 824,-111.7229 843.9815,-104.6964 864.4466,-93.3008 881.2404,-82.6288"/>
<polygon fill="#00ff00" stroke="#00ff00" stroke-width=".6454" points="883.1968,-85.5315 889.6659,-77.141 879.3764,-79.666 883.1968,-85.5315"/>
</g>
<!-- &#45;19&#45;&gt;clockwise -->
<g id="edge50" class="edge">
<title>&#45;19&#45;&gt;clockwise</title>
<path fill="none" stroke="#ff0000" stroke-width=".1928" d="M539.8167,-151.1343C511.025,-139.7603 448.0902,-114.7373 444,-111.7229 437.3868,-106.8491 431.1508,-100.8204 425.5307,-94.5449"/>
<polygon fill="#ff0000" stroke="#ff0000" stroke-width=".1928" points="427.8872,-91.911 418.7593,-86.5322 422.5407,-96.4292 427.8872,-91.911"/>
</g>
<!-- &#45;20 -->
<g id="node20" class="node">
<title>&#45;20</title>
<polygon fill="#d3d3d3" stroke="#000000" points="522,-165.7229 494,-165.7229 494,-147.7229 522,-147.7229 522,-165.7229"/>
<text text-anchor="middle" x="508" y="-154.5229" font-family="Times,serif" font-size="9.00" fill="#000000">&#45;20</text>
</g>
<!-- &#45;20&#45;&gt;right -->
<g id="edge72" class="edge">
<title>&#45;20&#45;&gt;right</title>
<path fill="none" stroke="#ff0000" stroke-width=".2034" stroke-dasharray="1,5" d="M522.0174,-150.9445C524.9623,-149.8134 528.0655,-148.6819 531,-147.7229 590.4327,-128.2989 613.2178,-143.6134 667,-111.7229 679.4621,-104.3334 690.8713,-93.1891 699.8856,-82.7935"/>
<polygon fill="#ff0000" stroke="#ff0000" stroke-width=".2034" points="702.6046,-84.9977 706.2899,-75.0644 697.2145,-80.5315 702.6046,-84.9977"/>
</g>
<!-- &#45;20&#45;&gt;left -->
<g id="edge8" class="edge">
<title>&#45;20&#45;&gt;left</title>
<path fill="none" stroke="#00ff00" stroke-width="1.3972" d="M522.4437,-150.5363C525.2467,-149.4887 528.1877,-148.4928 531,-147.7229 626.9845,-121.4441 666.5476,-162.7277 752,-111.7229 763.7405,-104.7152 773.4231,-93.1852 780.6079,-82.4146"/>
<polygon fill="#00ff00" stroke="#00ff00" stroke-width="1.3972" points="783.7415,-84.0031 786.0461,-73.6619 777.7957,-80.3088 783.7415,-84.0031"/>
</g>
<!-- &#45;20&#45;&gt;forward -->
<g id="edge22" class="edge">
<title>&#45;20&#45;&gt;forward</title>
<path fill="none" stroke="#ff0000" stroke-width=".1208" stroke-dasharray="1,5" d="M522.0424,-148.4262C535.8655,-139.9717 557.2749,-126.0928 574,-111.7229 582.3775,-104.5251 590.8127,-96.0919 598.3798,-87.9909"/>
<polygon fill="#ff0000" stroke="#ff0000" stroke-width=".1208" points="601.1758,-90.1198 605.3387,-80.377 596.0087,-85.3972 601.1758,-90.1198"/>
</g>
<!-- &#45;20&#45;&gt;counterclockwise -->
<g id="edge71" class="edge">
<title>&#45;20&#45;&gt;counterclockwise</title>
<path fill="none" stroke="#ff0000" stroke-width=".1867" d="M508.0923,-147.4149C508.1554,-141.0507 508.2453,-131.9829 508.3442,-122.0033"/>
<polygon fill="#ff0000" stroke="#ff0000" stroke-width=".1867" points="511.8461,-121.8202 508.4455,-111.786 504.8465,-121.7508 511.8461,-121.8202"/>
</g>
<!-- &#45;20&#45;&gt;clockwise -->
<g id="edge36" class="edge">
<title>&#45;20&#45;&gt;clockwise</title>
<path fill="none" stroke="#ff0000" stroke-width=".1943" stroke-dasharray="1,5" d="M493.9644,-148.4012C480.4307,-140.0325 459.7411,-126.31 444,-111.7229 438.0392,-106.199 432.1536,-99.9 426.686,-93.5703"/>
<polygon fill="#ff0000" stroke="#ff0000" stroke-width=".1943" points="429.1115,-91.015 420.0096,-85.5923 423.7432,-95.5074 429.1115,-91.015"/>
</g>
<!-- &#45;21 -->
<g id="node21" class="node">
<title>&#45;21</title>
<polygon fill="#d3d3d3" stroke="#000000" points="412,-165.7229 384,-165.7229 384,-147.7229 412,-147.7229 412,-165.7229"/>
<text text-anchor="middle" x="398" y="-154.5229" font-family="Times,serif" font-size="9.00" fill="#000000">&#45;21</text>
</g>
<!-- &#45;21&#45;&gt;no_move -->
<g id="edge28" class="edge">
<title>&#45;21&#45;&gt;no_move</title>
<path fill="none" stroke="#ff0000" stroke-width=".2202" d="M387.0181,-147.4149C370.6116,-133.5092 338.9769,-106.6963 314.1641,-85.6657"/>
<polygon fill="#ff0000" stroke="#ff0000" stroke-width=".2202" points="316.2672,-82.8602 306.3757,-79.0644 311.7412,-88.2001 316.2672,-82.8602"/>
</g>
<!-- &#45;21&#45;&gt;right -->
<g id="edge92" class="edge">
<title>&#45;21&#45;&gt;right</title>
<path fill="none" stroke="#00ff00" stroke-width=".1881" d="M412.4338,-150.4994C415.2377,-149.4553 418.1816,-148.4701 421,-147.7229 527.8082,-119.4069 568.9122,-162.6008 667,-111.7229 679.9556,-105.0028 691.5,-93.8553 700.4807,-83.2786"/>
<polygon fill="#00ff00" stroke="#00ff00" stroke-width=".1881" points="703.2896,-85.3706 706.8294,-75.3846 697.8349,-80.9836 703.2896,-85.3706"/>
</g>
<!-- &#45;21&#45;&gt;left -->
<g id="edge27" class="edge">
<title>&#45;21&#45;&gt;left</title>
<path fill="none" stroke="#ff0000" stroke-width=".3648" d="M412.4122,-150.4149C415.2181,-149.3786 418.1683,-148.4178 421,-147.7229 564.714,-112.4529 622.9647,-184.1629 752,-111.7229 763.9226,-105.0296 773.6283,-93.5396 780.7814,-82.7142"/>
<polygon fill="#ff0000" stroke="#ff0000" stroke-width=".3648" points="783.9434,-84.2527 786.1823,-73.8971 777.9742,-80.5963 783.9434,-84.2527"/>
</g>
<!-- &#45;21&#45;&gt;counterclockwise -->
<g id="edge77" class="edge">
<title>&#45;21&#45;&gt;counterclockwise</title>
<path fill="none" stroke="#00ff00" stroke-width=".2373" d="M408.2437,-147.4149C420.1362,-136.6086 440.6068,-118.0077 460.0031,-100.383"/>
<polygon fill="#00ff00" stroke="#00ff00" stroke-width=".2373" points="462.6007,-102.7518 467.648,-93.4364 457.8932,-97.5711 462.6007,-102.7518"/>
</g>
<!-- &#45;21&#45;&gt;clockwise -->
<g id="edge73" class="edge">
<title>&#45;21&#45;&gt;clockwise</title>
<path fill="none" stroke="#00ff00" stroke-width=".2399" stroke-dasharray="1,5" d="M398,-147.4149C398,-137.1569 398,-119.8751 398,-103.072"/>
<polygon fill="#00ff00" stroke="#00ff00" stroke-width=".2399" points="401.5001,-102.7386 398,-92.7386 394.5001,-102.7386 401.5001,-102.7386"/>
</g>
<!-- &#45;22 -->
<g id="node22" class="node">
<title>&#45;22</title>
<polygon fill="#d3d3d3" stroke="#000000" points="1187,-165.7229 1159,-165.7229 1159,-147.7229 1187,-147.7229 1187,-165.7229"/>
<text text-anchor="middle" x="1173" y="-154.5229" font-family="Times,serif" font-size="9.00" fill="#000000">&#45;22</text>
</g>
<!-- &#45;22&#45;&gt;left -->
<g id="edge14" class="edge">
<title>&#45;22&#45;&gt;left</title>
<path fill="none" stroke="#00ff00" stroke-width=".697" d="M1158.5755,-150.4638C1155.7708,-149.423 1152.8241,-148.448 1150,-147.7229 1030.1812,-116.9564 989.2179,-156.7555 874,-111.7229 853.011,-103.5194 832.325,-88.5729 817.3886,-76.2037"/>
<polygon fill="#00ff00" stroke="#00ff00" stroke-width=".697" points="819.5953,-73.4856 809.7167,-69.6562 815.0511,-78.8101 819.5953,-73.4856"/>
</g>
<!-- &#45;22&#45;&gt;backward -->
<g id="edge86" class="edge">
<title>&#45;22&#45;&gt;backward</title>
<path fill="none" stroke="#ff0000" stroke-width=".2973" d="M1158.9973,-150.8986C1156.0514,-149.7709 1152.944,-148.6523 1150,-147.7229 1085.4449,-127.3427 1063.9358,-139.0482 1002,-111.7229 985.9447,-104.6394 969.6345,-94.4465 955.7714,-84.7017"/>
<polygon fill="#ff0000" stroke="#ff0000" stroke-width=".2973" points="957.6385,-81.7331 947.48,-78.7239 953.5448,-87.4112 957.6385,-81.7331"/>
</g>
<!-- &#45;22&#45;&gt;no_turn -->
<g id="edge60" class="edge">
<title>&#45;22&#45;&gt;no_turn</title>
<path fill="none" stroke="#00ff00" stroke-width=".7427" d="M1160.9106,-147.4149C1141.5404,-132.5011 1102.8875,-102.7408 1074.897,-81.19"/>
<polygon fill="#00ff00" stroke="#00ff00" stroke-width=".7427" points="1077.0072,-78.3975 1066.9484,-75.0701 1072.7368,-83.944 1077.0072,-78.3975"/>
</g>
<!-- &#45;22&#45;&gt;clockwise -->
<g id="edge39" class="edge">
<title>&#45;22&#45;&gt;clockwise</title>
<path fill="none" stroke="#ff0000" stroke-width=".4826" stroke-dasharray="1,5" d="M1158.6182,-150.283C1155.8095,-149.2589 1152.8505,-148.3363 1150,-147.7229 996.4232,-114.6731 584.3121,-182.3673 444,-111.7229 436.2574,-107.8246 429.3468,-101.9696 423.3821,-95.4958"/>
<polygon fill="#ff0000" stroke="#ff0000" stroke-width=".4826" points="425.9357,-93.0942 416.8215,-87.6921 420.5776,-97.5988 425.9357,-93.0942"/>
</g>
<!-- &#45;23 -->
<g id="node23" class="node">
<title>&#45;23</title>
<polygon fill="#d3d3d3" stroke="#000000" points="1141,-165.7229 1113,-165.7229 1113,-147.7229 1141,-147.7229 1141,-165.7229"/>
<text text-anchor="middle" x="1127" y="-154.5229" font-family="Times,serif" font-size="9.00" fill="#000000">&#45;23</text>
</g>
<!-- &#45;23&#45;&gt;right -->
<g id="edge76" class="edge">
<title>&#45;23&#45;&gt;right</title>
<path fill="none" stroke="#ff0000" stroke-width="1.3254" d="M1112.589,-150.4098C1109.783,-149.374 1106.8325,-148.4147 1104,-147.7229 957.2419,-111.879 899.0096,-183.3551 766,-111.7229 754.4204,-105.4867 744.619,-95.0093 737.0778,-84.8023"/>
<polygon fill="#ff0000" stroke="#ff0000" stroke-width="1.3254" points="739.8397,-82.642 731.2854,-76.3911 734.0745,-86.6122 739.8397,-82.642"/>
</g>
<!-- &#45;23&#45;&gt;left -->
<g id="edge69" class="edge">
<title>&#45;23&#45;&gt;left</title>
<path fill="none" stroke="#ff0000" stroke-width=".2702" d="M1112.5602,-150.5221C1109.7568,-149.4759 1106.8146,-148.4841 1104,-147.7229 1004.1213,-120.7114 969.8785,-150.6163 874,-111.7229 853.1176,-103.2518 832.4265,-88.3182 817.461,-76.0218"/>
<polygon fill="#ff0000" stroke="#ff0000" stroke-width=".2702" points="819.6671,-73.3037 809.7711,-69.5196 815.1474,-78.649 819.6671,-73.3037"/>
</g>
<!-- &#45;23&#45;&gt;forward -->
<g id="edge10" class="edge">
<title>&#45;23&#45;&gt;forward</title>
<path fill="none" stroke="#00ff00" stroke-width=".3675" stroke-dasharray="1,5" d="M1112.5999,-150.3644C1109.7929,-149.3328 1106.8392,-148.3866 1104,-147.7229 923.2925,-105.4771 858.2108,-185.67 688,-111.7229 675.2928,-106.2023 663.428,-97.0117 653.5493,-87.6632"/>
<polygon fill="#00ff00" stroke="#00ff00" stroke-width=".3675" points="655.9556,-85.12 646.4011,-80.5416 651.0151,-90.079 655.9556,-85.12"/>
</g>
<!-- &#45;23&#45;&gt;backward -->
<g id="edge94" class="edge">
<title>&#45;23&#45;&gt;backward</title>
<path fill="none" stroke="#00ff00" stroke-width=".131" d="M1112.9191,-151.1264C1109.9788,-149.9821 1106.8935,-148.7993 1104,-147.7229 1058.9426,-130.9614 1044.9514,-133.3166 1002,-111.7229 986.3214,-103.8405 970.0907,-93.4793 956.1856,-83.8234"/>
<polygon fill="#00ff00" stroke="#00ff00" stroke-width=".131" points="958.0394,-80.8476 947.854,-77.9309 953.9974,-86.5628 958.0394,-80.8476"/>
</g>
<!-- &#45;23&#45;&gt;no_turn -->
<g id="edge21" class="edge">
<title>&#45;23&#45;&gt;no_turn</title>
<path fill="none" stroke="#00ff00" stroke-width=".2166" d="M1119.1558,-147.4149C1107.7856,-133.9229 1086.1757,-108.2806 1068.7118,-87.5578"/>
<polygon fill="#00ff00" stroke="#00ff00" stroke-width=".2166" points="1071.3722,-85.2834 1062.2516,-79.8921 1066.0195,-89.7943 1071.3722,-85.2834"/>
</g>
<!-- &#45;23&#45;&gt;counterclockwise -->
<g id="edge90" class="edge">
<title>&#45;23&#45;&gt;counterclockwise</title>
<path fill="none" stroke="#ff0000" stroke-width=".2721" stroke-dasharray="1,5" d="M1112.6089,-150.3252C1109.8011,-149.2971 1106.8448,-148.3624 1104,-147.7229 878.4088,-97.0108 802.0796,-191.3443 585,-111.7229 576.3066,-108.5343 567.7457,-104.0288 559.6828,-98.9438"/>
<polygon fill="#ff0000" stroke="#ff0000" stroke-width=".2721" points="561.4043,-95.8845 551.1464,-93.2334 557.5121,-101.7027 561.4043,-95.8845"/>
</g>
<!-- &#45;24 -->
<g id="node24" class="node">
<title>&#45;24</title>
<polygon fill="#d3d3d3" stroke="#000000" points="264,-165.7229 236,-165.7229 236,-147.7229 264,-147.7229 264,-165.7229"/>
<text text-anchor="middle" x="250" y="-154.5229" font-family="Times,serif" font-size="9.00" fill="#000000">&#45;24</text>
</g>
<!-- &#45;24&#45;&gt;no_move -->
<g id="edge58" class="edge">
<title>&#45;24&#45;&gt;no_move</title>
<path fill="none" stroke="#00ff00" stroke-width=".3907" d="M252.6763,-147.4149C255.8233,-136.4695 261.2695,-117.5277 266.3945,-99.7031"/>
<polygon fill="#00ff00" stroke="#00ff00" stroke-width=".3907" points="269.7924,-100.5512 269.192,-89.9734 263.065,-98.6168 269.7924,-100.5512"/>
</g>
<!-- &#45;24&#45;&gt;backward -->
<g id="edge95" class="edge">
<title>&#45;24&#45;&gt;backward</title>
<path fill="none" stroke="#ff0000" stroke-width=".1439" d="M264.389,-150.316C267.1971,-149.2888 270.154,-148.3567 273,-147.7229 512.5433,-94.3788 589.4343,-183.872 824,-111.7229 844.2449,-105.4958 864.7456,-94.2083 881.495,-83.4014"/>
<polygon fill="#ff0000" stroke="#ff0000" stroke-width=".1439" points="883.4984,-86.2725 889.8907,-77.8233 879.6246,-80.442 883.4984,-86.2725"/>
</g>
<!-- &#45;24&#45;&gt;counterclockwise -->
<g id="edge59" class="edge">
<title>&#45;24&#45;&gt;counterclockwise</title>
<path fill="none" stroke="#00ff00" stroke-width=".3141" d="M264.4736,-150.6406C267.2738,-149.5835 270.2062,-148.5573 273,-147.7229 347.4175,-125.4961 374.3629,-146.1129 444,-111.7229 449.7785,-108.8692 455.4622,-105.3821 460.918,-101.5576"/>
<polygon fill="#00ff00" stroke="#00ff00" stroke-width=".3141" points="463.3643,-104.0991 469.2844,-95.3126 459.1771,-98.4896 463.3643,-104.0991"/>
</g>
<!-- &#45;24&#45;&gt;clockwise -->
<g id="edge63" class="edge">
<title>&#45;24&#45;&gt;clockwise</title>
<path fill="none" stroke="#ff0000" stroke-width=".1957" d="M264.2271,-148.4554C279.1116,-139.6901 303.0437,-125.2675 323,-111.7229 335.5521,-103.2035 348.9328,-93.4614 360.865,-84.524"/>
<polygon fill="#ff0000" stroke="#ff0000" stroke-width=".1957" points="362.9895,-87.3056 368.8664,-78.4901 358.7748,-81.7167 362.9895,-87.3056"/>
</g>
</g>
</svg>
