<?xml version="1.0" encoding="utf-8" standalone="no"?>
<!DOCTYPE svg PUBLIC "-//W3C//DTD SVG 1.1//EN"
  "http://www.w3.org/Graphics/SVG/1.1/DTD/svg11.dtd">
<!-- Created with matplotlib (https://matplotlib.org/) -->
<svg height="345.6pt" version="1.1" viewBox="0 0 460.8 345.6" width="460.8pt" xmlns="http://www.w3.org/2000/svg" xmlns:xlink="http://www.w3.org/1999/xlink">
 <defs>
  <style type="text/css">
*{stroke-linecap:butt;stroke-linejoin:round;}
  </style>
 </defs>
 <g id="figure_1">
  <g id="patch_1">
   <path d="M 0 345.6 
L 460.8 345.6 
L 460.8 0 
L 0 0 
z
" style="fill:#ffffff;"/>
  </g>
  <g id="axes_1">
   <g id="patch_2">
    <path d="M 57.6 307.584 
L 414.72 307.584 
L 414.72 41.472 
L 57.6 41.472 
z
" style="fill:#ffffff;"/>
   </g>
   <g id="matplotlib.axis_1">
    <g id="xtick_1">
     <g id="line2d_1">
      <path clip-path="url(#p5173d8a095)" d="M 73.832727 307.584 
L 73.832727 41.472 
" style="fill:none;stroke:#b0b0b0;stroke-linecap:square;stroke-width:0.8;"/>
     </g>
     <g id="line2d_2">
      <defs>
       <path d="M 0 0 
L 0 3.5 
" id="m60c6642dca" style="stroke:#000000;stroke-width:0.8;"/>
      </defs>
      <g>
       <use style="stroke:#000000;stroke-width:0.8;" x="73.832727" xlink:href="#m60c6642dca" y="307.584"/>
      </g>
     </g>
     <g id="text_1">
      <!-- 0 -->
      <defs>
       <path d="M 31.78125 66.40625 
Q 24.171875 66.40625 20.328125 58.90625 
Q 16.5 51.421875 16.5 36.375 
Q 16.5 21.390625 20.328125 13.890625 
Q 24.171875 6.390625 31.78125 6.390625 
Q 39.453125 6.390625 43.28125 13.890625 
Q 47.125 21.390625 47.125 36.375 
Q 47.125 51.421875 43.28125 58.90625 
Q 39.453125 66.40625 31.78125 66.40625 
z
M 31.78125 74.21875 
Q 44.046875 74.21875 50.515625 64.515625 
Q 56.984375 54.828125 56.984375 36.375 
Q 56.984375 17.96875 50.515625 8.265625 
Q 44.046875 -1.421875 31.78125 -1.421875 
Q 19.53125 -1.421875 13.0625 8.265625 
Q 6.59375 17.96875 6.59375 36.375 
Q 6.59375 54.828125 13.0625 64.515625 
Q 19.53125 74.21875 31.78125 74.21875 
z
" id="DejaVuSans-48"/>
      </defs>
      <g transform="translate(70.651477 322.182437)scale(0.1 -0.1)">
       <use xlink:href="#DejaVuSans-48"/>
      </g>
     </g>
    </g>
    <g id="xtick_2">
     <g id="line2d_3">
      <path clip-path="url(#p5173d8a095)" d="M 138.828632 307.584 
L 138.828632 41.472 
" style="fill:none;stroke:#b0b0b0;stroke-linecap:square;stroke-width:0.8;"/>
     </g>
     <g id="line2d_4">
      <g>
       <use style="stroke:#000000;stroke-width:0.8;" x="138.828632" xlink:href="#m60c6642dca" y="307.584"/>
      </g>
     </g>
     <g id="text_2">
      <!-- 200 -->
      <defs>
       <path d="M 19.1875 8.296875 
L 53.609375 8.296875 
L 53.609375 0 
L 7.328125 0 
L 7.328125 8.296875 
Q 12.9375 14.109375 22.625 23.890625 
Q 32.328125 33.6875 34.8125 36.53125 
Q 39.546875 41.84375 41.421875 45.53125 
Q 43.3125 49.21875 43.3125 52.78125 
Q 43.3125 58.59375 39.234375 62.25 
Q 35.15625 65.921875 28.609375 65.921875 
Q 23.96875 65.921875 18.8125 64.3125 
Q 13.671875 62.703125 7.8125 59.421875 
L 7.8125 69.390625 
Q 13.765625 71.78125 18.9375 73 
Q 24.125 74.21875 28.421875 74.21875 
Q 39.75 74.21875 46.484375 68.546875 
Q 53.21875 62.890625 53.21875 53.421875 
Q 53.21875 48.921875 51.53125 44.890625 
Q 49.859375 40.875 45.40625 35.40625 
Q 44.1875 33.984375 37.640625 27.21875 
Q 31.109375 20.453125 19.1875 8.296875 
z
" id="DejaVuSans-50"/>
      </defs>
      <g transform="translate(129.284882 322.182437)scale(0.1 -0.1)">
       <use xlink:href="#DejaVuSans-50"/>
       <use x="63.623047" xlink:href="#DejaVuSans-48"/>
       <use x="127.246094" xlink:href="#DejaVuSans-48"/>
      </g>
     </g>
    </g>
    <g id="xtick_3">
     <g id="line2d_5">
      <path clip-path="url(#p5173d8a095)" d="M 203.824537 307.584 
L 203.824537 41.472 
" style="fill:none;stroke:#b0b0b0;stroke-linecap:square;stroke-width:0.8;"/>
     </g>
     <g id="line2d_6">
      <g>
       <use style="stroke:#000000;stroke-width:0.8;" x="203.824537" xlink:href="#m60c6642dca" y="307.584"/>
      </g>
     </g>
     <g id="text_3">
      <!-- 400 -->
      <defs>
       <path d="M 37.796875 64.3125 
L 12.890625 25.390625 
L 37.796875 25.390625 
z
M 35.203125 72.90625 
L 47.609375 72.90625 
L 47.609375 25.390625 
L 58.015625 25.390625 
L 58.015625 17.1875 
L 47.609375 17.1875 
L 47.609375 0 
L 37.796875 0 
L 37.796875 17.1875 
L 4.890625 17.1875 
L 4.890625 26.703125 
z
" id="DejaVuSans-52"/>
      </defs>
      <g transform="translate(194.280787 322.182437)scale(0.1 -0.1)">
       <use xlink:href="#DejaVuSans-52"/>
       <use x="63.623047" xlink:href="#DejaVuSans-48"/>
       <use x="127.246094" xlink:href="#DejaVuSans-48"/>
      </g>
     </g>
    </g>
    <g id="xtick_4">
     <g id="line2d_7">
      <path clip-path="url(#p5173d8a095)" d="M 268.820442 307.584 
L 268.820442 41.472 
" style="fill:none;stroke:#b0b0b0;stroke-linecap:square;stroke-width:0.8;"/>
     </g>
     <g id="line2d_8">
      <g>
       <use style="stroke:#000000;stroke-width:0.8;" x="268.820442" xlink:href="#m60c6642dca" y="307.584"/>
      </g>
     </g>
     <g id="text_4">
      <!-- 600 -->
      <defs>
       <path d="M 33.015625 40.375 
Q 26.375 40.375 22.484375 35.828125 
Q 18.609375 31.296875 18.609375 23.390625 
Q 18.609375 15.53125 22.484375 10.953125 
Q 26.375 6.390625 33.015625 6.390625 
Q 39.65625 6.390625 43.53125 10.953125 
Q 47.40625 15.53125 47.40625 23.390625 
Q 47.40625 31.296875 43.53125 35.828125 
Q 39.65625 40.375 33.015625 40.375 
z
M 52.59375 71.296875 
L 52.59375 62.3125 
Q 48.875 64.0625 45.09375 64.984375 
Q 41.3125 65.921875 37.59375 65.921875 
Q 27.828125 65.921875 22.671875 59.328125 
Q 17.53125 52.734375 16.796875 39.40625 
Q 19.671875 43.65625 24.015625 45.921875 
Q 28.375 48.1875 33.59375 48.1875 
Q 44.578125 48.1875 50.953125 41.515625 
Q 57.328125 34.859375 57.328125 23.390625 
Q 57.328125 12.15625 50.6875 5.359375 
Q 44.046875 -1.421875 33.015625 -1.421875 
Q 20.359375 -1.421875 13.671875 8.265625 
Q 6.984375 17.96875 6.984375 36.375 
Q 6.984375 53.65625 15.1875 63.9375 
Q 23.390625 74.21875 37.203125 74.21875 
Q 40.921875 74.21875 44.703125 73.484375 
Q 48.484375 72.75 52.59375 71.296875 
z
" id="DejaVuSans-54"/>
      </defs>
      <g transform="translate(259.276692 322.182437)scale(0.1 -0.1)">
       <use xlink:href="#DejaVuSans-54"/>
       <use x="63.623047" xlink:href="#DejaVuSans-48"/>
       <use x="127.246094" xlink:href="#DejaVuSans-48"/>
      </g>
     </g>
    </g>
    <g id="xtick_5">
     <g id="line2d_9">
      <path clip-path="url(#p5173d8a095)" d="M 333.816347 307.584 
L 333.816347 41.472 
" style="fill:none;stroke:#b0b0b0;stroke-linecap:square;stroke-width:0.8;"/>
     </g>
     <g id="line2d_10">
      <g>
       <use style="stroke:#000000;stroke-width:0.8;" x="333.816347" xlink:href="#m60c6642dca" y="307.584"/>
      </g>
     </g>
     <g id="text_5">
      <!-- 800 -->
      <defs>
       <path d="M 31.78125 34.625 
Q 24.75 34.625 20.71875 30.859375 
Q 16.703125 27.09375 16.703125 20.515625 
Q 16.703125 13.921875 20.71875 10.15625 
Q 24.75 6.390625 31.78125 6.390625 
Q 38.8125 6.390625 42.859375 10.171875 
Q 46.921875 13.96875 46.921875 20.515625 
Q 46.921875 27.09375 42.890625 30.859375 
Q 38.875 34.625 31.78125 34.625 
z
M 21.921875 38.8125 
Q 15.578125 40.375 12.03125 44.71875 
Q 8.5 49.078125 8.5 55.328125 
Q 8.5 64.0625 14.71875 69.140625 
Q 20.953125 74.21875 31.78125 74.21875 
Q 42.671875 74.21875 48.875 69.140625 
Q 55.078125 64.0625 55.078125 55.328125 
Q 55.078125 49.078125 51.53125 44.71875 
Q 48 40.375 41.703125 38.8125 
Q 48.828125 37.15625 52.796875 32.3125 
Q 56.78125 27.484375 56.78125 20.515625 
Q 56.78125 9.90625 50.3125 4.234375 
Q 43.84375 -1.421875 31.78125 -1.421875 
Q 19.734375 -1.421875 13.25 4.234375 
Q 6.78125 9.90625 6.78125 20.515625 
Q 6.78125 27.484375 10.78125 32.3125 
Q 14.796875 37.15625 21.921875 38.8125 
z
M 18.3125 54.390625 
Q 18.3125 48.734375 21.84375 45.5625 
Q 25.390625 42.390625 31.78125 42.390625 
Q 38.140625 42.390625 41.71875 45.5625 
Q 45.3125 48.734375 45.3125 54.390625 
Q 45.3125 60.0625 41.71875 63.234375 
Q 38.140625 66.40625 31.78125 66.40625 
Q 25.390625 66.40625 21.84375 63.234375 
Q 18.3125 60.0625 18.3125 54.390625 
z
" id="DejaVuSans-56"/>
      </defs>
      <g transform="translate(324.272597 322.182437)scale(0.1 -0.1)">
       <use xlink:href="#DejaVuSans-56"/>
       <use x="63.623047" xlink:href="#DejaVuSans-48"/>
       <use x="127.246094" xlink:href="#DejaVuSans-48"/>
      </g>
     </g>
    </g>
    <g id="xtick_6">
     <g id="line2d_11">
      <path clip-path="url(#p5173d8a095)" d="M 398.812252 307.584 
L 398.812252 41.472 
" style="fill:none;stroke:#b0b0b0;stroke-linecap:square;stroke-width:0.8;"/>
     </g>
     <g id="line2d_12">
      <g>
       <use style="stroke:#000000;stroke-width:0.8;" x="398.812252" xlink:href="#m60c6642dca" y="307.584"/>
      </g>
     </g>
     <g id="text_6">
      <!-- 1000 -->
      <defs>
       <path d="M 12.40625 8.296875 
L 28.515625 8.296875 
L 28.515625 63.921875 
L 10.984375 60.40625 
L 10.984375 69.390625 
L 28.421875 72.90625 
L 38.28125 72.90625 
L 38.28125 8.296875 
L 54.390625 8.296875 
L 54.390625 0 
L 12.40625 0 
z
" id="DejaVuSans-49"/>
      </defs>
      <g transform="translate(386.087252 322.182437)scale(0.1 -0.1)">
       <use xlink:href="#DejaVuSans-49"/>
       <use x="63.623047" xlink:href="#DejaVuSans-48"/>
       <use x="127.246094" xlink:href="#DejaVuSans-48"/>
       <use x="190.869141" xlink:href="#DejaVuSans-48"/>
      </g>
     </g>
    </g>
    <g id="text_7">
     <!-- Generations -->
     <defs>
      <path d="M 59.515625 10.40625 
L 59.515625 29.984375 
L 43.40625 29.984375 
L 43.40625 38.09375 
L 69.28125 38.09375 
L 69.28125 6.78125 
Q 63.578125 2.734375 56.6875 0.65625 
Q 49.8125 -1.421875 42 -1.421875 
Q 24.90625 -1.421875 15.25 8.5625 
Q 5.609375 18.5625 5.609375 36.375 
Q 5.609375 54.25 15.25 64.234375 
Q 24.90625 74.21875 42 74.21875 
Q 49.125 74.21875 55.546875 72.453125 
Q 61.96875 70.703125 67.390625 67.28125 
L 67.390625 56.78125 
Q 61.921875 61.421875 55.765625 63.765625 
Q 49.609375 66.109375 42.828125 66.109375 
Q 29.4375 66.109375 22.71875 58.640625 
Q 16.015625 51.171875 16.015625 36.375 
Q 16.015625 21.625 22.71875 14.15625 
Q 29.4375 6.6875 42.828125 6.6875 
Q 48.046875 6.6875 52.140625 7.59375 
Q 56.25 8.5 59.515625 10.40625 
z
" id="DejaVuSans-71"/>
      <path d="M 56.203125 29.59375 
L 56.203125 25.203125 
L 14.890625 25.203125 
Q 15.484375 15.921875 20.484375 11.0625 
Q 25.484375 6.203125 34.421875 6.203125 
Q 39.59375 6.203125 44.453125 7.46875 
Q 49.3125 8.734375 54.109375 11.28125 
L 54.109375 2.78125 
Q 49.265625 0.734375 44.1875 -0.34375 
Q 39.109375 -1.421875 33.890625 -1.421875 
Q 20.796875 -1.421875 13.15625 6.1875 
Q 5.515625 13.8125 5.515625 26.8125 
Q 5.515625 40.234375 12.765625 48.109375 
Q 20.015625 56 32.328125 56 
Q 43.359375 56 49.78125 48.890625 
Q 56.203125 41.796875 56.203125 29.59375 
z
M 47.21875 32.234375 
Q 47.125 39.59375 43.09375 43.984375 
Q 39.0625 48.390625 32.421875 48.390625 
Q 24.90625 48.390625 20.390625 44.140625 
Q 15.875 39.890625 15.1875 32.171875 
z
" id="DejaVuSans-101"/>
      <path d="M 54.890625 33.015625 
L 54.890625 0 
L 45.90625 0 
L 45.90625 32.71875 
Q 45.90625 40.484375 42.875 44.328125 
Q 39.84375 48.1875 33.796875 48.1875 
Q 26.515625 48.1875 22.3125 43.546875 
Q 18.109375 38.921875 18.109375 30.90625 
L 18.109375 0 
L 9.078125 0 
L 9.078125 54.6875 
L 18.109375 54.6875 
L 18.109375 46.1875 
Q 21.34375 51.125 25.703125 53.5625 
Q 30.078125 56 35.796875 56 
Q 45.21875 56 50.046875 50.171875 
Q 54.890625 44.34375 54.890625 33.015625 
z
" id="DejaVuSans-110"/>
      <path d="M 41.109375 46.296875 
Q 39.59375 47.171875 37.8125 47.578125 
Q 36.03125 48 33.890625 48 
Q 26.265625 48 22.1875 43.046875 
Q 18.109375 38.09375 18.109375 28.8125 
L 18.109375 0 
L 9.078125 0 
L 9.078125 54.6875 
L 18.109375 54.6875 
L 18.109375 46.1875 
Q 20.953125 51.171875 25.484375 53.578125 
Q 30.03125 56 36.53125 56 
Q 37.453125 56 38.578125 55.875 
Q 39.703125 55.765625 41.0625 55.515625 
z
" id="DejaVuSans-114"/>
      <path d="M 34.28125 27.484375 
Q 23.390625 27.484375 19.1875 25 
Q 14.984375 22.515625 14.984375 16.5 
Q 14.984375 11.71875 18.140625 8.90625 
Q 21.296875 6.109375 26.703125 6.109375 
Q 34.1875 6.109375 38.703125 11.40625 
Q 43.21875 16.703125 43.21875 25.484375 
L 43.21875 27.484375 
z
M 52.203125 31.203125 
L 52.203125 0 
L 43.21875 0 
L 43.21875 8.296875 
Q 40.140625 3.328125 35.546875 0.953125 
Q 30.953125 -1.421875 24.3125 -1.421875 
Q 15.921875 -1.421875 10.953125 3.296875 
Q 6 8.015625 6 15.921875 
Q 6 25.140625 12.171875 29.828125 
Q 18.359375 34.515625 30.609375 34.515625 
L 43.21875 34.515625 
L 43.21875 35.40625 
Q 43.21875 41.609375 39.140625 45 
Q 35.0625 48.390625 27.6875 48.390625 
Q 23 48.390625 18.546875 47.265625 
Q 14.109375 46.140625 10.015625 43.890625 
L 10.015625 52.203125 
Q 14.9375 54.109375 19.578125 55.046875 
Q 24.21875 56 28.609375 56 
Q 40.484375 56 46.34375 49.84375 
Q 52.203125 43.703125 52.203125 31.203125 
z
" id="DejaVuSans-97"/>
      <path d="M 18.3125 70.21875 
L 18.3125 54.6875 
L 36.8125 54.6875 
L 36.8125 47.703125 
L 18.3125 47.703125 
L 18.3125 18.015625 
Q 18.3125 11.328125 20.140625 9.421875 
Q 21.96875 7.515625 27.59375 7.515625 
L 36.8125 7.515625 
L 36.8125 0 
L 27.59375 0 
Q 17.1875 0 13.234375 3.875 
Q 9.28125 7.765625 9.28125 18.015625 
L 9.28125 47.703125 
L 2.6875 47.703125 
L 2.6875 54.6875 
L 9.28125 54.6875 
L 9.28125 70.21875 
z
" id="DejaVuSans-116"/>
      <path d="M 9.421875 54.6875 
L 18.40625 54.6875 
L 18.40625 0 
L 9.421875 0 
z
M 9.421875 75.984375 
L 18.40625 75.984375 
L 18.40625 64.59375 
L 9.421875 64.59375 
z
" id="DejaVuSans-105"/>
      <path d="M 30.609375 48.390625 
Q 23.390625 48.390625 19.1875 42.75 
Q 14.984375 37.109375 14.984375 27.296875 
Q 14.984375 17.484375 19.15625 11.84375 
Q 23.34375 6.203125 30.609375 6.203125 
Q 37.796875 6.203125 41.984375 11.859375 
Q 46.1875 17.53125 46.1875 27.296875 
Q 46.1875 37.015625 41.984375 42.703125 
Q 37.796875 48.390625 30.609375 48.390625 
z
M 30.609375 56 
Q 42.328125 56 49.015625 48.375 
Q 55.71875 40.765625 55.71875 27.296875 
Q 55.71875 13.875 49.015625 6.21875 
Q 42.328125 -1.421875 30.609375 -1.421875 
Q 18.84375 -1.421875 12.171875 6.21875 
Q 5.515625 13.875 5.515625 27.296875 
Q 5.515625 40.765625 12.171875 48.375 
Q 18.84375 56 30.609375 56 
z
" id="DejaVuSans-111"/>
      <path d="M 44.28125 53.078125 
L 44.28125 44.578125 
Q 40.484375 46.53125 36.375 47.5 
Q 32.28125 48.484375 27.875 48.484375 
Q 21.1875 48.484375 17.84375 46.4375 
Q 14.5 44.390625 14.5 40.28125 
Q 14.5 37.15625 16.890625 35.375 
Q 19.28125 33.59375 26.515625 31.984375 
L 29.59375 31.296875 
Q 39.15625 29.25 43.1875 25.515625 
Q 47.21875 21.78125 47.21875 15.09375 
Q 47.21875 7.46875 41.1875 3.015625 
Q 35.15625 -1.421875 24.609375 -1.421875 
Q 20.21875 -1.421875 15.453125 -0.5625 
Q 10.6875 0.296875 5.421875 2 
L 5.421875 11.28125 
Q 10.40625 8.6875 15.234375 7.390625 
Q 20.0625 6.109375 24.8125 6.109375 
Q 31.15625 6.109375 34.5625 8.28125 
Q 37.984375 10.453125 37.984375 14.40625 
Q 37.984375 18.0625 35.515625 20.015625 
Q 33.0625 21.96875 24.703125 23.78125 
L 21.578125 24.515625 
Q 13.234375 26.265625 9.515625 29.90625 
Q 5.8125 33.546875 5.8125 39.890625 
Q 5.8125 47.609375 11.28125 51.796875 
Q 16.75 56 26.8125 56 
Q 31.78125 56 36.171875 55.265625 
Q 40.578125 54.546875 44.28125 53.078125 
z
" id="DejaVuSans-115"/>
     </defs>
     <g transform="translate(205.662344 335.860562)scale(0.1 -0.1)">
      <use xlink:href="#DejaVuSans-71"/>
      <use x="77.490234" xlink:href="#DejaVuSans-101"/>
      <use x="139.013672" xlink:href="#DejaVuSans-110"/>
      <use x="202.392578" xlink:href="#DejaVuSans-101"/>
      <use x="263.916016" xlink:href="#DejaVuSans-114"/>
      <use x="305.029297" xlink:href="#DejaVuSans-97"/>
      <use x="366.308594" xlink:href="#DejaVuSans-116"/>
      <use x="405.517578" xlink:href="#DejaVuSans-105"/>
      <use x="433.300781" xlink:href="#DejaVuSans-111"/>
      <use x="494.482422" xlink:href="#DejaVuSans-110"/>
      <use x="557.861328" xlink:href="#DejaVuSans-115"/>
     </g>
    </g>
   </g>
   <g id="matplotlib.axis_2">
    <g id="ytick_1">
     <g id="line2d_13">
      <path clip-path="url(#p5173d8a095)" d="M 57.6 302.871631 
L 414.72 302.871631 
" style="fill:none;stroke:#b0b0b0;stroke-linecap:square;stroke-width:0.8;"/>
     </g>
     <g id="line2d_14">
      <defs>
       <path d="M 0 0 
L -3.5 0 
" id="m03f92235d2" style="stroke:#000000;stroke-width:0.8;"/>
      </defs>
      <g>
       <use style="stroke:#000000;stroke-width:0.8;" x="57.6" xlink:href="#m03f92235d2" y="302.871631"/>
      </g>
     </g>
     <g id="text_8">
      <!-- $\mathdefault{-10^{1}}$ -->
      <defs>
       <path d="M 10.59375 35.5 
L 73.1875 35.5 
L 73.1875 27.203125 
L 10.59375 27.203125 
z
" id="DejaVuSans-8722"/>
      </defs>
      <g transform="translate(24.6 306.670849)scale(0.1 -0.1)">
       <use transform="translate(0 0.684375)" xlink:href="#DejaVuSans-8722"/>
       <use transform="translate(83.789062 0.684375)" xlink:href="#DejaVuSans-49"/>
       <use transform="translate(147.412109 0.684375)" xlink:href="#DejaVuSans-48"/>
       <use transform="translate(211.992188 38.965625)scale(0.7)" xlink:href="#DejaVuSans-49"/>
      </g>
     </g>
    </g>
    <g id="ytick_2">
     <g id="line2d_15">
      <path clip-path="url(#p5173d8a095)" d="M 57.6 208.638119 
L 414.72 208.638119 
" style="fill:none;stroke:#b0b0b0;stroke-linecap:square;stroke-width:0.8;"/>
     </g>
     <g id="line2d_16">
      <g>
       <use style="stroke:#000000;stroke-width:0.8;" x="57.6" xlink:href="#m03f92235d2" y="208.638119"/>
      </g>
     </g>
     <g id="text_9">
      <!-- $\mathdefault{-10^{0}}$ -->
      <g transform="translate(24.6 212.437338)scale(0.1 -0.1)">
       <use transform="translate(0 0.765625)" xlink:href="#DejaVuSans-8722"/>
       <use transform="translate(83.789062 0.765625)" xlink:href="#DejaVuSans-49"/>
       <use transform="translate(147.412109 0.765625)" xlink:href="#DejaVuSans-48"/>
       <use transform="translate(211.992188 39.046875)scale(0.7)" xlink:href="#DejaVuSans-48"/>
      </g>
     </g>
    </g>
    <g id="ytick_3">
     <g id="line2d_17">
      <path clip-path="url(#p5173d8a095)" d="M 57.6 166.907641 
L 414.72 166.907641 
" style="fill:none;stroke:#b0b0b0;stroke-linecap:square;stroke-width:0.8;"/>
     </g>
     <g id="line2d_18">
      <g>
       <use style="stroke:#000000;stroke-width:0.8;" x="57.6" xlink:href="#m03f92235d2" y="166.907641"/>
      </g>
     </g>
     <g id="text_10">
      <!-- $\mathdefault{0}$ -->
      <g transform="translate(44.2 170.70686)scale(0.1 -0.1)">
       <use transform="translate(0 0.78125)" xlink:href="#DejaVuSans-48"/>
      </g>
     </g>
    </g>
    <g id="ytick_4">
     <g id="line2d_19">
      <path clip-path="url(#p5173d8a095)" d="M 57.6 125.177164 
L 414.72 125.177164 
" style="fill:none;stroke:#b0b0b0;stroke-linecap:square;stroke-width:0.8;"/>
     </g>
     <g id="line2d_20">
      <g>
       <use style="stroke:#000000;stroke-width:0.8;" x="57.6" xlink:href="#m03f92235d2" y="125.177164"/>
      </g>
     </g>
     <g id="text_11">
      <!-- $\mathdefault{10^{0}}$ -->
      <g transform="translate(33 128.976382)scale(0.1 -0.1)">
       <use transform="translate(0 0.765625)" xlink:href="#DejaVuSans-49"/>
       <use transform="translate(63.623047 0.765625)" xlink:href="#DejaVuSans-48"/>
       <use transform="translate(128.203125 39.046875)scale(0.7)" xlink:href="#DejaVuSans-48"/>
      </g>
     </g>
    </g>
    <g id="text_12">
     <!-- Fitness -->
     <defs>
      <path d="M 9.8125 72.90625 
L 51.703125 72.90625 
L 51.703125 64.59375 
L 19.671875 64.59375 
L 19.671875 43.109375 
L 48.578125 43.109375 
L 48.578125 34.8125 
L 19.671875 34.8125 
L 19.671875 0 
L 9.8125 0 
z
" id="DejaVuSans-70"/>
     </defs>
     <g transform="translate(18.520312 192.202219)rotate(-90)scale(0.1 -0.1)">
      <use xlink:href="#DejaVuSans-70"/>
      <use x="57.410156" xlink:href="#DejaVuSans-105"/>
      <use x="85.193359" xlink:href="#DejaVuSans-116"/>
      <use x="124.402344" xlink:href="#DejaVuSans-110"/>
      <use x="187.78125" xlink:href="#DejaVuSans-101"/>
      <use x="249.304688" xlink:href="#DejaVuSans-115"/>
      <use x="301.404297" xlink:href="#DejaVuSans-115"/>
     </g>
    </g>
   </g>
   <g id="line2d_21">
    <path clip-path="url(#p5173d8a095)" d="M 73.832727 292.61985 
L 74.157707 286.071987 
L 74.482686 274.830583 
L 74.807666 284.037515 
L 75.457625 275.146372 
L 75.782604 255.023619 
L 76.107584 262.600489 
L 76.432563 251.457399 
L 76.757543 262.154956 
L 77.082523 257.502424 
L 77.407502 239.004881 
L 77.732482 260.873916 
L 78.057461 230.255852 
L 78.382441 233.234403 
L 78.70742 244.396761 
L 79.0324 199.998795 
L 79.357379 237.790639 
L 79.682359 241.686943 
L 80.007338 224.792796 
L 80.332318 223.791279 
L 80.657297 257.506926 
L 80.982277 237.349595 
L 81.307256 244.989107 
L 81.632236 226.836959 
L 81.957215 219.925156 
L 82.282195 223.29497 
L 82.607174 253.889189 
L 82.932154 241.429982 
L 83.582113 252.921109 
L 83.907093 233.664922 
L 84.232072 253.183977 
L 84.557052 256.59393 
L 84.882031 263.102376 
L 85.207011 247.58889 
L 85.53199 221.435482 
L 85.85697 256.597725 
L 86.181949 256.241259 
L 86.506929 238.827554 
L 86.831908 244.454563 
L 87.156888 261.755532 
L 87.806847 239.227546 
L 88.131826 252.184771 
L 88.456806 241.293233 
L 88.781785 258.555844 
L 89.106765 219.333867 
L 89.431744 206.226369 
L 89.756724 239.457975 
L 90.081704 204.485808 
L 90.731663 235.673828 
L 91.056642 212.758598 
L 91.381622 224.158961 
L 91.706601 243.304023 
L 92.031581 229.307482 
L 92.35656 222.131405 
L 92.68154 242.17982 
L 93.006519 238.907292 
L 93.331499 254.696796 
L 93.656478 237.847982 
L 93.981458 253.584442 
L 94.306437 253.890969 
L 94.631417 247.592197 
L 94.956396 225.708725 
L 95.281376 236.023107 
L 95.606355 232.180047 
L 95.931335 240.525829 
L 96.256314 244.015689 
L 96.581294 259.514792 
L 96.906274 216.230114 
L 97.231253 255.540147 
L 97.556233 245.759854 
L 97.881212 246.532584 
L 98.531171 255.949573 
L 98.856151 256.037459 
L 99.18113 231.917378 
L 99.50611 230.482552 
L 99.831089 217.552616 
L 100.156069 238.751121 
L 100.481048 209.766934 
L 100.806028 241.218561 
L 101.131007 240.586764 
L 101.455987 239.243677 
L 101.780966 265.450258 
L 102.105946 251.797027 
L 102.430925 251.979948 
L 102.755905 214.423928 
L 103.080885 202.894568 
L 103.405864 206.57238 
L 103.730844 249.772705 
L 104.380803 226.424308 
L 104.705782 235.289097 
L 105.030762 200.468486 
L 105.355741 195.144286 
L 105.680721 223.538151 
L 106.0057 240.089048 
L 106.33068 238.461441 
L 106.655659 229.594937 
L 106.980639 252.553738 
L 107.305618 230.526463 
L 107.630598 227.03255 
L 107.955577 260.24503 
L 108.280557 230.361029 
L 108.605536 224.630824 
L 108.930516 251.124584 
L 109.255495 237.166722 
L 109.580475 211.04647 
L 109.905455 212.804584 
L 110.230434 232.10151 
L 110.555414 216.243811 
L 110.880393 221.754051 
L 111.205373 224.891636 
L 111.530352 200.005753 
L 111.855332 218.935144 
L 112.180311 200.669529 
L 112.505291 216.280536 
L 112.83027 202.907638 
L 113.15525 213.088777 
L 113.480229 192.096569 
L 113.805209 191.75319 
L 114.130188 213.539223 
L 114.455168 208.793469 
L 114.780147 215.307399 
L 115.105127 215.883386 
L 115.430106 220.717522 
L 115.755086 202.940134 
L 116.080066 195.844944 
L 116.405045 221.876166 
L 116.730025 216.954642 
L 117.055004 194.700175 
L 117.379984 222.737751 
L 117.704963 188.658337 
L 118.029943 188.824262 
L 118.354922 207.903419 
L 118.679902 235.396619 
L 119.329861 192.891597 
L 119.65484 199.033541 
L 119.97982 207.638607 
L 120.304799 202.31689 
L 120.629779 210.428469 
L 120.954758 202.167438 
L 121.279738 216.905666 
L 121.604717 202.95672 
L 121.929697 229.578631 
L 122.254676 216.052288 
L 122.579656 194.559602 
L 122.904636 185.609148 
L 123.229615 211.028532 
L 123.554595 199.489743 
L 123.879574 192.514212 
L 124.204554 198.406674 
L 124.529533 185.61441 
L 124.854513 188.667575 
L 125.179492 180.467086 
L 125.504472 193.578285 
L 125.829451 197.708502 
L 126.154431 215.37565 
L 126.47941 212.247247 
L 126.80439 197.918916 
L 127.129369 198.67038 
L 127.454349 192.201151 
L 127.779328 208.366502 
L 128.104308 189.17147 
L 128.429287 191.966945 
L 128.754267 188.55876 
L 129.079247 179.527594 
L 129.404226 198.903825 
L 129.729206 198.201242 
L 130.054185 188.989817 
L 130.379165 185.107655 
L 130.704144 188.532477 
L 131.029124 174.426389 
L 131.679083 182.995811 
L 132.004062 197.871501 
L 132.329042 184.338165 
L 132.654021 195.913477 
L 132.979001 196.347048 
L 133.30398 182.538135 
L 133.62896 207.494304 
L 133.953939 195.714399 
L 134.278919 179.868434 
L 134.603898 178.691049 
L 134.928878 181.985069 
L 135.253857 188.426793 
L 135.578837 176.054964 
L 135.903817 184.416647 
L 136.228796 185.428988 
L 136.553776 190.000495 
L 136.878755 175.387077 
L 137.203735 192.324723 
L 137.528714 188.072818 
L 137.853694 186.424502 
L 138.178673 207.160526 
L 138.503653 208.297775 
L 138.828632 197.86839 
L 139.153612 231.348794 
L 139.478591 210.940086 
L 139.803571 212.241491 
L 140.12855 216.182138 
L 140.45353 214.706817 
L 140.778509 206.556888 
L 141.103489 223.840169 
L 141.428468 217.208859 
L 141.753448 202.930021 
L 142.078428 207.215289 
L 142.403407 207.138042 
L 142.728387 197.035553 
L 143.053366 207.355326 
L 143.703325 194.281523 
L 144.028305 191.167873 
L 144.353284 194.489384 
L 144.678264 182.814913 
L 145.003243 181.853484 
L 145.328223 231.179898 
L 145.653202 206.267631 
L 145.978182 220.599822 
L 146.303161 208.110196 
L 146.628141 223.28905 
L 146.95312 214.029168 
L 147.2781 212.25627 
L 147.603079 216.984835 
L 147.928059 202.164109 
L 148.253038 193.346077 
L 148.578018 190.15569 
L 148.902998 184.089769 
L 149.227977 221.037459 
L 149.552957 207.099488 
L 149.877936 202.641044 
L 150.527895 183.377533 
L 150.852875 212.05015 
L 151.177854 203.203525 
L 151.502834 185.443386 
L 151.827813 181.240986 
L 152.152793 179.9006 
L 152.477772 176.349357 
L 153.127731 184.796819 
L 153.452711 196.850593 
L 153.77769 184.990498 
L 154.10267 198.103866 
L 154.752629 183.258285 
L 155.077609 219.193578 
L 155.402588 228.305987 
L 155.727568 180.958034 
L 156.052547 199.549176 
L 156.377527 207.371772 
L 156.702506 205.313621 
L 157.027486 212.866152 
L 157.352465 197.557289 
L 157.677445 220.63881 
L 158.002424 213.292653 
L 158.327404 197.882018 
L 158.652383 231.177662 
L 158.977363 227.704235 
L 159.302342 254.493881 
L 159.627322 212.118192 
L 159.952301 211.284523 
L 160.277281 207.681501 
L 160.60226 193.814224 
L 160.92724 206.34811 
L 161.252219 203.235762 
L 161.577199 194.874843 
L 161.902179 193.139062 
L 162.227158 221.548683 
L 162.552138 220.502757 
L 162.877117 229.609415 
L 163.202097 221.188435 
L 163.527076 259.688906 
L 163.852056 238.238747 
L 164.177035 249.706453 
L 164.502015 198.779431 
L 164.826994 240.592008 
L 165.151974 203.729169 
L 165.476953 228.44478 
L 165.801933 218.965842 
L 166.126912 250.555528 
L 166.451892 188.411865 
L 167.101851 238.802441 
L 167.42683 221.254067 
L 167.75181 244.310192 
L 168.07679 206.393312 
L 168.401769 195.95436 
L 169.376708 294.026992 
L 169.701687 258.02513 
L 170.026667 197.34169 
L 170.351646 185.827281 
L 170.676626 193.170148 
L 171.001605 194.068273 
L 171.326585 232.765166 
L 171.651564 205.039965 
L 171.976544 215.396939 
L 172.626503 216.671295 
L 172.951482 205.796845 
L 173.276462 190.422441 
L 173.926421 253.644743 
L 174.2514 211.191885 
L 174.57638 212.803184 
L 174.90136 197.144694 
L 175.226339 211.773772 
L 175.876298 193.529033 
L 176.201278 197.530822 
L 176.526257 185.374524 
L 176.851237 183.993412 
L 177.176216 189.483315 
L 177.501196 188.218943 
L 177.826175 197.280301 
L 178.151155 196.782558 
L 178.476134 221.788656 
L 178.801114 211.605847 
L 179.126093 226.953128 
L 179.451073 207.448425 
L 179.776052 200.431872 
L 180.101032 205.493496 
L 180.426011 193.498829 
L 180.750991 193.632418 
L 181.075971 195.63652 
L 181.40095 209.379574 
L 181.72593 229.75736 
L 182.050909 197.193176 
L 182.700868 210.636894 
L 183.025848 209.639391 
L 183.350827 192.647715 
L 184.000786 215.942907 
L 184.325766 194.371011 
L 184.650745 196.862333 
L 184.975725 216.267899 
L 185.300704 189.641614 
L 185.625684 215.420245 
L 186.275643 209.174111 
L 186.600622 200.283022 
L 186.925602 203.434701 
L 187.250581 217.996292 
L 187.575561 203.808337 
L 187.900541 226.879712 
L 188.22552 295.488 
L 188.5505 292.549561 
L 189.200459 279.35322 
L 189.525438 281.870079 
L 189.850418 274.092241 
L 190.175397 274.147809 
L 190.500377 288.014329 
L 191.150336 272.094331 
L 191.475315 272.890218 
L 191.800295 275.867243 
L 192.125274 280.017345 
L 192.450254 263.788268 
L 192.775233 272.086976 
L 193.100213 274.20894 
L 193.425192 262.993534 
L 193.750172 264.206562 
L 194.075152 271.161383 
L 194.400131 255.523965 
L 194.725111 273.566256 
L 195.05009 263.9817 
L 195.37507 263.442101 
L 195.700049 249.591576 
L 196.025029 259.760886 
L 196.350008 252.480825 
L 196.674988 256.68606 
L 196.999967 212.257902 
L 197.649926 263.94546 
L 197.974906 231.228873 
L 198.299885 256.450807 
L 198.624865 251.004347 
L 198.949844 257.288479 
L 199.274824 242.552302 
L 199.599803 257.638144 
L 199.924783 251.112836 
L 200.249762 251.398641 
L 200.899722 191.003584 
L 201.224701 227.33343 
L 201.549681 219.768556 
L 201.87466 242.888695 
L 202.19964 208.936965 
L 202.524619 199.485663 
L 202.849599 200.528175 
L 203.174578 206.856724 
L 203.499558 227.554586 
L 203.824537 213.603078 
L 204.149517 227.441071 
L 204.474496 228.022388 
L 204.799476 212.087953 
L 205.124455 186.438448 
L 205.774414 223.928944 
L 206.099394 192.809339 
L 206.424373 189.662231 
L 206.749353 181.058927 
L 207.074333 210.542907 
L 207.399312 173.658553 
L 208.049271 220.674498 
L 208.374251 193.969717 
L 209.02421 228.728868 
L 209.349189 196.797717 
L 209.674169 197.301463 
L 209.999148 210.820414 
L 210.324128 193.986818 
L 210.649107 201.933709 
L 210.974087 194.206329 
L 211.299066 210.127822 
L 211.624046 219.905476 
L 211.949025 183.805153 
L 212.274005 202.914244 
L 212.598984 191.300332 
L 212.923964 185.371029 
L 213.248943 223.441819 
L 213.573923 191.245755 
L 213.898903 196.744939 
L 214.223882 216.638173 
L 214.548862 216.570099 
L 215.198821 200.442914 
L 215.5238 212.530825 
L 215.84878 217.960629 
L 216.173759 229.859844 
L 216.498739 207.264776 
L 216.823718 231.03101 
L 217.148698 219.081027 
L 217.798657 227.34785 
L 218.123636 216.219607 
L 218.448616 197.699123 
L 218.773595 189.10704 
L 219.098575 190.878941 
L 219.748534 214.584697 
L 220.073514 252.130916 
L 220.398493 234.226959 
L 220.723473 251.277054 
L 221.048452 215.841715 
L 221.698411 251.196667 
L 222.023391 215.774238 
L 222.34837 223.477184 
L 222.67335 222.766806 
L 222.998329 236.582018 
L 223.323309 212.31448 
L 223.648288 205.774452 
L 223.973268 215.158117 
L 224.298247 203.817428 
L 224.623227 225.637948 
L 224.948206 205.35514 
L 225.273186 215.976082 
L 225.598165 198.05742 
L 225.923145 190.942912 
L 226.573104 193.924444 
L 226.898084 189.271667 
L 227.223063 196.662039 
L 227.548043 183.645484 
L 227.873022 187.012826 
L 228.198002 188.547545 
L 228.522981 186.11747 
L 228.847961 181.066413 
L 229.17294 193.545453 
L 229.49792 183.069568 
L 229.822899 191.866829 
L 230.147879 184.339106 
L 230.472858 171.974092 
L 230.797838 188.716022 
L 231.122817 181.384165 
L 231.447797 188.965088 
L 231.772776 176.915441 
L 232.097756 182.662319 
L 232.422735 174.776948 
L 232.747715 189.969021 
L 233.072695 178.51745 
L 233.397674 180.784341 
L 233.722654 174.877919 
L 234.372613 198.07265 
L 234.697592 204.129985 
L 235.022572 181.399522 
L 235.347551 221.091413 
L 235.99751 185.038625 
L 236.32249 195.614595 
L 236.647469 187.903348 
L 237.622408 227.095588 
L 237.947387 197.415458 
L 238.272367 192.486733 
L 238.922326 206.588566 
L 239.247305 189.968069 
L 239.572285 211.079447 
L 239.897265 206.199039 
L 240.222244 192.379857 
L 240.547224 235.46058 
L 240.872203 217.062321 
L 241.197183 221.897265 
L 241.522162 207.352992 
L 241.847142 213.314009 
L 242.172121 241.869657 
L 242.497101 259.902569 
L 242.82208 259.441116 
L 243.14706 253.89063 
L 243.472039 264.478117 
L 243.797019 260.324139 
L 244.121998 197.291841 
L 244.446978 200.758562 
L 244.771957 216.38001 
L 245.096937 244.35171 
L 245.421916 239.55517 
L 245.746896 198.391447 
L 246.396855 233.962136 
L 247.046814 251.792718 
L 247.371794 229.796999 
L 247.696773 225.454206 
L 248.021753 207.895628 
L 248.346732 217.239233 
L 248.671712 247.217015 
L 249.321671 251.585955 
L 249.64665 221.981407 
L 249.97163 209.833448 
L 250.296609 222.604777 
L 250.621589 211.142381 
L 251.596527 232.786838 
L 252.246486 195.259516 
L 252.571466 196.011018 
L 252.896446 231.96295 
L 253.221425 214.43029 
L 253.546405 217.22238 
L 253.871384 202.246513 
L 254.196364 206.498995 
L 254.521343 198.184032 
L 254.846323 204.212232 
L 255.171302 199.371447 
L 255.496282 223.922424 
L 255.821261 221.787032 
L 256.146241 202.860542 
L 256.47122 202.494648 
L 256.7962 231.372913 
L 257.121179 211.555375 
L 257.446159 235.867765 
L 258.096118 200.240455 
L 258.421097 209.294147 
L 258.746077 222.413806 
L 259.071057 220.433502 
L 259.396036 211.452006 
L 259.721016 212.909333 
L 260.045995 191.495076 
L 260.370975 219.023481 
L 260.695954 204.556946 
L 261.020934 242.245222 
L 261.345913 211.694549 
L 261.670893 246.158709 
L 261.995872 206.214001 
L 262.320852 225.479447 
L 262.645831 210.654943 
L 262.970811 229.464735 
L 263.29579 219.868523 
L 263.62077 262.787559 
L 263.945749 231.580516 
L 264.595708 201.706356 
L 264.920688 201.355908 
L 265.245667 190.025127 
L 265.895627 203.742935 
L 266.220606 196.994779 
L 266.545586 186.867476 
L 266.870565 194.35634 
L 267.195545 210.89174 
L 267.520524 219.15966 
L 267.845504 223.629689 
L 268.170483 190.45439 
L 268.495463 208.1893 
L 268.820442 216.037108 
L 269.145422 211.781878 
L 269.470401 193.158847 
L 269.795381 184.859033 
L 270.12036 189.829432 
L 270.44534 186.70755 
L 270.770319 197.618363 
L 271.095299 228.444101 
L 271.420278 200.16729 
L 271.745258 202.944896 
L 272.070238 208.137122 
L 272.395217 207.158915 
L 272.720197 197.088987 
L 273.045176 197.765616 
L 273.370156 213.175006 
L 273.695135 188.061291 
L 274.020115 213.371962 
L 274.345094 197.575379 
L 274.670074 211.782507 
L 274.995053 196.495958 
L 275.320033 206.905962 
L 275.645012 192.672382 
L 275.969992 193.089119 
L 276.294971 207.0731 
L 276.619951 196.12294 
L 276.94493 211.013514 
L 277.26991 196.439417 
L 277.594889 202.742354 
L 277.919869 179.862724 
L 278.244848 196.263745 
L 278.569828 199.133964 
L 278.894808 189.626374 
L 279.219787 175.802935 
L 279.544767 190.293918 
L 279.869746 192.955434 
L 280.194726 181.193793 
L 280.519705 198.237801 
L 280.844685 191.229015 
L 281.169664 193.279502 
L 281.494644 205.285779 
L 281.819623 202.506787 
L 282.144603 205.452717 
L 282.469582 220.066993 
L 282.794562 221.604967 
L 283.119541 195.294119 
L 283.444521 207.884781 
L 283.7695 208.58658 
L 284.09448 192.978583 
L 284.419459 191.535944 
L 284.744439 178.623484 
L 285.394398 207.399097 
L 285.719378 215.523272 
L 286.044357 192.361369 
L 286.369337 192.337165 
L 286.694316 186.911745 
L 287.019296 192.292098 
L 287.344275 182.058154 
L 287.669255 180.351253 
L 287.994234 183.127022 
L 288.319214 177.780776 
L 288.644193 176.012973 
L 288.969173 184.559134 
L 289.294152 184.2759 
L 289.619132 179.86823 
L 289.944111 185.733248 
L 290.59407 173.119706 
L 290.91905 192.962425 
L 291.569009 174.330946 
L 291.893989 189.761507 
L 292.218968 188.123274 
L 292.543948 201.453315 
L 292.868927 180.250291 
L 293.193907 191.163595 
L 293.518886 179.956216 
L 293.843866 176.189413 
L 294.168845 175.060267 
L 294.493825 174.812799 
L 294.818804 180.581077 
L 295.143784 183.552369 
L 295.468763 174.726644 
L 295.793743 176.01907 
L 296.118722 187.75669 
L 296.443702 178.775035 
L 296.768681 196.979475 
L 297.093661 184.077992 
L 297.41864 191.08714 
L 297.74362 207.848648 
L 298.0686 193.83252 
L 298.393579 210.829297 
L 298.718559 179.46406 
L 299.043538 185.57392 
L 299.693497 208.38285 
L 300.018477 183.104184 
L 300.343456 193.205143 
L 300.668436 224.731341 
L 300.993415 210.989816 
L 301.318395 213.038263 
L 301.643374 203.104574 
L 301.968354 197.785371 
L 302.293333 194.559265 
L 302.618313 183.912559 
L 302.943292 189.115847 
L 303.268272 206.840873 
L 303.593251 207.197138 
L 303.918231 185.106471 
L 304.24321 183.381883 
L 304.56819 193.18804 
L 304.89317 199.199914 
L 305.218149 180.748381 
L 305.543129 183.036417 
L 305.868108 173.496301 
L 306.193088 178.472515 
L 306.518067 175.704448 
L 306.843047 175.769722 
L 307.168026 184.316816 
L 307.493006 178.617229 
L 307.817985 180.623504 
L 308.142965 196.032459 
L 308.467944 179.850029 
L 308.792924 178.186326 
L 309.117903 184.862554 
L 309.442883 180.716248 
L 309.767862 190.816771 
L 310.092842 181.379651 
L 310.417821 178.265532 
L 310.742801 184.185076 
L 311.067781 174.5789 
L 311.39276 178.082998 
L 311.71774 174.157305 
L 312.042719 180.541897 
L 312.367699 175.710915 
L 313.017658 188.872172 
L 313.342637 187.695021 
L 313.667617 174.179879 
L 313.992596 193.722529 
L 314.317576 179.743443 
L 314.642555 174.547465 
L 314.967535 180.069013 
L 315.292514 188.46512 
L 315.617494 183.602828 
L 315.942473 193.553358 
L 316.267453 196.758817 
L 316.592432 195.638164 
L 317.242391 179.462563 
L 317.567371 194.014336 
L 317.892351 188.512126 
L 318.21733 191.57389 
L 318.867289 175.335131 
L 319.192269 199.338416 
L 319.517248 196.839616 
L 319.842228 190.443753 
L 320.167207 191.844924 
L 320.492187 198.706825 
L 320.817166 194.693724 
L 321.142146 188.947567 
L 321.467125 193.602579 
L 321.792105 204.173172 
L 322.117084 195.897858 
L 322.442064 205.511621 
L 322.767043 186.39292 
L 323.092023 186.513417 
L 323.417002 184.889183 
L 323.741982 196.53811 
L 324.066962 193.235023 
L 324.391941 205.468927 
L 324.716921 202.351027 
L 325.0419 186.153854 
L 325.36688 183.899999 
L 325.691859 195.700241 
L 326.016839 214.017398 
L 326.341818 216.263103 
L 326.666798 223.451404 
L 326.991777 219.987075 
L 327.316757 234.811171 
L 327.641736 217.33354 
L 327.966716 212.998477 
L 328.291695 239.782556 
L 328.616675 216.976342 
L 328.941654 206.024993 
L 329.266634 240.238313 
L 329.591613 233.540831 
L 329.916593 204.974234 
L 330.241572 193.423906 
L 330.566552 201.332077 
L 330.891532 221.062223 
L 331.216511 197.409041 
L 331.541491 197.709704 
L 332.19145 208.221006 
L 332.516429 206.25256 
L 332.841409 213.131932 
L 333.166388 200.812335 
L 333.491368 181.004722 
L 333.816347 201.711992 
L 334.141327 188.625012 
L 334.466306 202.915535 
L 334.791286 179.117211 
L 335.116265 208.777726 
L 335.441245 198.485277 
L 335.766224 198.377405 
L 336.091204 205.377656 
L 336.416183 226.060595 
L 336.741163 224.893476 
L 337.066143 218.519159 
L 337.391122 233.49383 
L 337.716102 225.490636 
L 338.041081 234.69843 
L 338.366061 206.913141 
L 338.69104 210.87174 
L 339.01602 221.474031 
L 339.665979 202.485202 
L 339.990958 219.988517 
L 340.315938 188.88624 
L 340.965897 204.240758 
L 341.290876 198.699799 
L 341.615856 180.412193 
L 341.940835 203.612557 
L 342.265815 191.740348 
L 342.590794 197.369606 
L 342.915774 190.365649 
L 343.240753 176.984922 
L 343.565733 197.29093 
L 343.890713 208.574721 
L 344.215692 185.570989 
L 344.540672 192.775682 
L 344.865651 208.163249 
L 345.190631 208.464026 
L 345.51561 194.109599 
L 345.84059 248.120644 
L 346.165569 198.672572 
L 346.490549 178.97608 
L 346.815528 200.401883 
L 347.140508 233.878848 
L 347.465487 251.057889 
L 347.790467 236.281761 
L 348.115446 251.182613 
L 348.440426 253.540536 
L 348.765405 206.969377 
L 349.090385 212.646534 
L 349.415364 198.010245 
L 349.740344 225.608966 
L 350.065324 218.863632 
L 350.390303 187.772764 
L 350.715283 206.566412 
L 351.040262 210.326401 
L 351.365242 210.730555 
L 351.690221 201.754388 
L 352.015201 198.213913 
L 352.34018 211.535943 
L 352.66516 252.33557 
L 352.990139 190.993212 
L 353.315119 192.466623 
L 353.640098 183.925962 
L 353.965078 187.570867 
L 354.290057 195.595898 
L 354.615037 174.343994 
L 354.940016 177.986123 
L 355.264996 175.844653 
L 355.589975 176.157259 
L 355.914955 178.05071 
L 356.239934 182.172439 
L 356.564914 197.963491 
L 356.889894 178.878971 
L 357.214873 202.144583 
L 357.539853 209.055719 
L 357.864832 204.734776 
L 358.189812 196.764522 
L 358.514791 185.967832 
L 359.16475 191.801388 
L 359.48973 180.75713 
L 359.814709 195.465384 
L 360.139689 196.042029 
L 360.464668 191.34577 
L 360.789648 178.991213 
L 361.439607 197.730104 
L 361.764586 176.285723 
L 362.089566 180.127632 
L 362.414545 197.608677 
L 362.739525 207.786994 
L 363.064505 192.831129 
L 363.389484 206.553676 
L 363.714464 210.955879 
L 364.364423 188.789554 
L 364.689402 206.090254 
L 365.014382 247.594069 
L 365.339361 190.923894 
L 365.664341 194.378668 
L 365.98932 185.408324 
L 366.3143 190.287591 
L 366.639279 197.34822 
L 366.964259 181.229692 
L 367.289238 222.680771 
L 367.614218 214.901144 
L 367.939197 217.372966 
L 368.264177 207.41915 
L 368.589156 208.117256 
L 369.239115 172.778198 
L 369.564095 200.986231 
L 369.889075 196.043754 
L 370.214054 196.069303 
L 370.539034 178.889638 
L 370.864013 184.97239 
L 371.188993 188.094851 
L 371.513972 188.89855 
L 371.838952 175.522977 
L 372.163931 190.700602 
L 372.488911 183.470489 
L 372.81389 179.294059 
L 373.13887 184.11786 
L 373.788829 174.415761 
L 374.113808 189.250666 
L 374.438788 184.774532 
L 374.763767 189.228747 
L 375.088747 179.572686 
L 375.413726 207.393867 
L 375.738706 188.964679 
L 376.063686 224.808177 
L 376.388665 231.712728 
L 376.713645 200.847459 
L 377.038624 204.077588 
L 377.363604 219.129698 
L 377.688583 203.403118 
L 378.013563 206.856396 
L 378.338542 191.366446 
L 378.663522 192.139318 
L 378.988501 218.697251 
L 379.313481 194.705864 
L 379.63846 184.455742 
L 380.288419 193.032452 
L 380.613399 184.152211 
L 380.938378 183.460996 
L 381.263358 179.746721 
L 381.588337 190.086555 
L 381.913317 184.249691 
L 382.238296 188.010356 
L 382.563276 181.243743 
L 382.888256 184.795171 
L 383.213235 174.887958 
L 383.863194 182.882787 
L 384.188174 174.113309 
L 384.513153 192.717834 
L 384.838133 184.417179 
L 385.163112 180.56289 
L 385.488092 180.588903 
L 385.813071 175.823154 
L 386.138051 180.208767 
L 386.46303 175.324884 
L 386.78801 180.475683 
L 387.112989 174.357242 
L 387.437969 179.666478 
L 387.762948 179.567981 
L 388.087928 175.529941 
L 388.412907 176.523994 
L 388.737887 175.766831 
L 389.062867 180.741686 
L 389.387846 175.824902 
L 389.712826 178.044796 
L 390.037805 174.160708 
L 390.362785 180.088554 
L 390.687764 174.87663 
L 391.012744 183.166045 
L 391.337723 176.621194 
L 391.662703 185.972655 
L 392.312662 174.837352 
L 392.637641 182.637526 
L 392.962621 176.462164 
L 393.2876 186.13303 
L 393.61258 179.13322 
L 393.937559 175.227005 
L 394.587518 199.282312 
L 394.912498 196.640496 
L 395.237477 211.128055 
L 395.562457 191.434 
L 395.887437 207.000876 
L 396.537396 190.352673 
L 396.862375 182.239436 
L 397.187355 180.681942 
L 397.512334 182.167408 
L 397.837314 179.954524 
L 398.162293 179.762072 
L 398.487273 176.768335 
L 398.487273 176.768335 
" style="fill:none;stroke:#0000ff;stroke-linecap:square;stroke-width:1.5;"/>
   </g>
   <g id="line2d_22">
    <path clip-path="url(#p5173d8a095)" d="M 73.832727 147.387437 
L 74.157707 153.824831 
L 74.482686 84.95422 
L 74.807666 128.174869 
L 75.132645 92.435677 
L 75.457625 90.464661 
L 75.782604 78.785356 
L 76.107584 73.48263 
L 76.432563 73.539051 
L 76.757543 85.304063 
L 77.082523 76.339971 
L 77.407502 74.348865 
L 77.732482 73.183701 
L 78.057461 89.232672 
L 78.382441 99.546436 
L 78.70742 81.42165 
L 79.0324 100.430081 
L 79.357379 84.473959 
L 79.682359 80.899142 
L 80.007338 82.686623 
L 80.332318 81.019327 
L 80.657297 78.678438 
L 80.982277 81.090576 
L 81.307256 72.687404 
L 81.957215 81.573592 
L 82.282195 94.356612 
L 82.607174 82.118029 
L 82.932154 79.906177 
L 83.257133 82.133441 
L 83.582113 80.081439 
L 83.907093 80.503647 
L 84.232072 84.518501 
L 84.557052 79.457552 
L 84.882031 82.238334 
L 85.207011 82.321533 
L 85.53199 93.204344 
L 85.85697 87.255667 
L 86.181949 97.66075 
L 86.506929 80.561285 
L 86.831908 80.537206 
L 87.156888 86.695774 
L 87.481867 88.756579 
L 87.806847 81.630436 
L 88.131826 80.279905 
L 88.456806 93.972176 
L 88.781785 86.28199 
L 89.106765 95.880468 
L 89.431744 97.716564 
L 89.756724 79.062586 
L 90.081704 103.882712 
L 90.406683 75.557758 
L 90.731663 85.621523 
L 91.056642 89.676891 
L 91.381622 88.510629 
L 91.706601 88.665032 
L 92.031581 92.659749 
L 92.35656 98.504551 
L 93.006519 79.978006 
L 93.331499 80.658747 
L 93.656478 92.536522 
L 93.981458 82.197895 
L 94.306437 76.706323 
L 94.631417 78.636978 
L 94.956396 82.435923 
L 95.281376 94.480104 
L 95.606355 81.107055 
L 96.256314 94.227585 
L 96.581294 79.10804 
L 96.906274 84.738368 
L 97.231253 75.436444 
L 97.556233 86.335694 
L 97.881212 76.4596 
L 98.206192 77.176268 
L 98.531171 79.550777 
L 98.856151 75.55102 
L 99.50611 81.320127 
L 99.831089 87.092313 
L 100.156069 78.057486 
L 100.481048 91.988539 
L 100.806028 82.626055 
L 101.131007 79.207109 
L 101.455987 89.864575 
L 101.780966 81.111028 
L 102.105946 80.89 
L 102.430925 92.686954 
L 102.755905 89.389956 
L 103.080885 98.688063 
L 103.405864 98.595397 
L 103.730844 88.698356 
L 104.055823 82.761878 
L 104.380803 87.128043 
L 104.705782 83.538336 
L 105.030762 105.447324 
L 105.355741 105.238016 
L 105.680721 82.843987 
L 106.0057 81.634769 
L 106.33068 82.920562 
L 106.655659 75.927192 
L 106.980639 78.50293 
L 107.305618 76.71167 
L 107.630598 76.749665 
L 108.280557 89.363443 
L 108.605536 87.663468 
L 108.930516 82.589303 
L 109.255495 82.702899 
L 109.580475 90.531514 
L 109.905455 82.63311 
L 110.230434 71.75088 
L 110.555414 79.559893 
L 110.880393 80.731937 
L 111.205373 79.438829 
L 111.530352 100.238237 
L 111.855332 84.722107 
L 112.180311 101.944472 
L 112.505291 86.702299 
L 112.83027 94.731574 
L 113.15525 89.770155 
L 113.480229 103.713592 
L 113.805209 110.92651 
L 114.130188 89.637017 
L 114.455168 92.672977 
L 114.780147 86.86195 
L 115.105127 87.815371 
L 115.430106 84.460165 
L 115.755086 97.441455 
L 116.080066 103.675485 
L 116.405045 86.667556 
L 116.730025 85.445856 
L 117.055004 104.544166 
L 117.379984 79.963348 
L 117.704963 111.054239 
L 118.029943 110.13313 
L 118.354922 90.706873 
L 118.679902 83.517848 
L 119.004881 83.124524 
L 119.329861 103.03758 
L 119.65484 101.494534 
L 119.97982 89.859421 
L 120.304799 95.835825 
L 120.629779 87.136821 
L 120.954758 93.87085 
L 121.279738 85.465735 
L 121.604717 98.705594 
L 121.929697 83.983998 
L 122.254676 79.950004 
L 122.579656 113.7196 
L 122.904636 123.468551 
L 123.229615 86.509994 
L 123.879574 113.712565 
L 124.204554 100.259486 
L 124.529533 120.279369 
L 124.854513 110.883653 
L 125.179492 134.263264 
L 125.504472 105.372222 
L 125.829451 99.189401 
L 126.154431 85.373654 
L 126.47941 89.664524 
L 126.80439 96.635192 
L 127.129369 98.655818 
L 127.454349 103.646297 
L 127.779328 93.199966 
L 128.104308 90.513995 
L 128.754267 113.453512 
L 129.079247 134.058412 
L 129.404226 100.822638 
L 129.729206 99.365765 
L 130.379165 122.115246 
L 130.704144 111.075753 
L 131.029124 163.442155 
L 131.354103 133.352085 
L 131.679083 119.948333 
L 132.004062 99.248525 
L 132.329042 120.075554 
L 132.654021 98.289627 
L 132.979001 106.583055 
L 133.30398 132.555953 
L 133.62896 80.585928 
L 134.278919 133.906312 
L 134.603898 133.859906 
L 134.928878 136.518794 
L 135.253857 113.49014 
L 135.578837 164.918333 
L 135.903817 119.783356 
L 136.228796 121.101981 
L 136.553776 112.468585 
L 136.878755 164.685419 
L 137.203735 103.926439 
L 137.528714 110.481795 
L 137.853694 121.354465 
L 138.178673 93.519104 
L 138.828632 107.503944 
L 139.153612 82.904009 
L 139.478591 96.789426 
L 140.12855 86.280382 
L 140.45353 87.76972 
L 140.778509 90.257339 
L 141.428468 88.142296 
L 141.753448 96.52148 
L 142.403407 91.144341 
L 142.728387 99.158433 
L 143.053366 93.763679 
L 143.703325 105.795 
L 144.028305 113.436306 
L 144.353284 103.333639 
L 144.678264 118.960641 
L 145.003243 117.622312 
L 145.328223 83.85769 
L 145.653202 87.910878 
L 145.978182 84.678292 
L 146.303161 93.368603 
L 146.95312 82.321938 
L 147.2781 88.717564 
L 147.603079 86.778615 
L 148.578018 113.393067 
L 148.902998 115.849872 
L 149.227977 84.289231 
L 149.552957 91.673892 
L 149.877936 95.580619 
L 150.202916 103.578673 
L 150.527895 119.300592 
L 150.852875 88.879215 
L 151.177854 95.830773 
L 151.502834 121.74292 
L 151.827813 134.886556 
L 152.152793 133.585239 
L 152.477772 164.352548 
L 152.802752 134.860943 
L 153.127731 120.73377 
L 153.452711 99.536195 
L 153.77769 119.281749 
L 154.10267 97.510496 
L 154.427649 112.094379 
L 154.752629 119.671596 
L 155.077609 83.430913 
L 155.402588 78.966305 
L 155.727568 131.835658 
L 156.052547 101.241525 
L 156.377527 91.144417 
L 157.027486 89.376843 
L 157.352465 100.558755 
L 157.677445 86.77188 
L 158.002424 90.414237 
L 158.327404 99.52307 
L 158.652383 83.416485 
L 158.977363 77.820004 
L 159.302342 77.414638 
L 159.627322 89.435492 
L 159.952301 86.439917 
L 160.277281 91.196727 
L 160.60226 103.993965 
L 161.252219 93.63446 
L 161.577199 104.341716 
L 161.902179 101.857428 
L 162.227158 85.36752 
L 162.552138 86.864189 
L 162.877117 83.30238 
L 163.202097 85.236938 
L 163.527076 89.908069 
L 163.852056 82.606702 
L 164.177035 84.340625 
L 164.502015 100.350539 
L 164.826994 83.55574 
L 165.151974 94.989806 
L 165.476953 84.221608 
L 165.801933 89.908323 
L 166.126912 83.476795 
L 166.451892 111.429145 
L 166.776871 88.44757 
L 167.101851 82.756726 
L 167.42683 86.638157 
L 167.75181 83.222789 
L 168.401769 98.598319 
L 168.726749 82.505511 
L 169.051728 83.940096 
L 169.376708 256.757677 
L 169.701687 81.215637 
L 170.026667 97.451546 
L 170.351646 121.008501 
L 170.676626 104.196954 
L 171.001605 102.472832 
L 171.326585 82.856595 
L 171.651564 97.473254 
L 171.976544 84.796045 
L 172.301523 79.652746 
L 172.626503 79.208329 
L 172.951482 89.820745 
L 173.276462 112.44576 
L 173.601441 85.977276 
L 173.926421 79.536565 
L 174.2514 80.292287 
L 174.57638 92.137969 
L 174.90136 98.468029 
L 175.226339 87.748059 
L 175.551319 94.579557 
L 175.876298 103.800882 
L 176.201278 99.195551 
L 176.526257 123.585024 
L 176.851237 127.480665 
L 177.176216 113.060503 
L 177.501196 112.3863 
L 177.826175 98.867209 
L 178.151155 98.793289 
L 178.476134 85.633555 
L 178.801114 88.1819 
L 179.126093 83.46369 
L 179.451073 81.335227 
L 179.776052 93.809804 
L 180.101032 92.497059 
L 180.426011 105.000106 
L 180.750991 104.194999 
L 181.075971 95.853625 
L 181.40095 93.716024 
L 181.72593 83.327207 
L 182.050909 99.334439 
L 182.375889 95.031955 
L 183.025848 91.396913 
L 183.350827 105.486984 
L 183.675807 90.107405 
L 184.000786 86.474483 
L 184.325766 103.154418 
L 184.650745 97.949671 
L 184.975725 85.8393 
L 185.300704 111.450193 
L 185.625684 86.879768 
L 185.950663 90.845805 
L 186.275643 79.987443 
L 186.600622 98.073092 
L 186.925602 96.341067 
L 187.250581 86.965598 
L 187.575561 95.571218 
L 187.900541 84.626825 
L 188.22552 190.738825 
L 188.5505 167.244917 
L 188.875479 99.876866 
L 189.200459 97.14268 
L 189.525438 127.553663 
L 189.850418 80.056455 
L 190.175397 78.701289 
L 190.500377 110.934475 
L 191.150336 82.276944 
L 191.475315 80.986272 
L 191.800295 80.992957 
L 192.125274 79.42067 
L 192.775233 73.196186 
L 193.100213 73.880231 
L 193.425192 79.253454 
L 194.075152 74.556073 
L 194.400131 78.798547 
L 194.725111 79.209887 
L 195.05009 77.540063 
L 195.37507 78.464331 
L 195.700049 77.998995 
L 196.025029 79.337393 
L 196.350008 79.858028 
L 196.674988 84.490741 
L 196.999967 92.520833 
L 197.324947 79.570272 
L 197.649926 75.464851 
L 197.974906 84.239966 
L 198.299885 77.382804 
L 198.624865 95.877945 
L 199.274824 81.084546 
L 199.599803 80.65789 
L 199.924783 77.865457 
L 200.249762 79.88844 
L 200.574742 83.145222 
L 200.899722 102.914868 
L 201.224701 75.791309 
L 201.549681 81.09762 
L 201.87466 79.367034 
L 202.19964 83.156808 
L 202.524619 82.698958 
L 202.849599 101.862799 
L 203.174578 96.1682 
L 203.824537 78.505886 
L 204.149517 79.094126 
L 204.474496 94.911154 
L 204.799476 94.695699 
L 205.124455 122.141945 
L 205.449435 93.981338 
L 205.774414 82.499564 
L 206.099394 107.121693 
L 206.424373 113.906764 
L 206.749353 128.431575 
L 207.074333 87.449229 
L 207.399312 158.979915 
L 207.724292 99.742459 
L 208.049271 87.591115 
L 208.374251 105.556143 
L 208.69923 75.992969 
L 209.02421 77.484344 
L 209.349189 105.67515 
L 209.674169 103.526477 
L 209.999148 107.339165 
L 210.324128 104.372744 
L 210.649107 102.656314 
L 210.974087 114.198697 
L 211.299066 92.099342 
L 211.624046 87.285728 
L 211.949025 118.273741 
L 212.274005 81.976166 
L 212.598984 113.753046 
L 212.923964 120.147745 
L 213.248943 81.639546 
L 213.573923 122.531547 
L 214.223882 92.694164 
L 214.548862 92.628113 
L 214.873841 98.667649 
L 215.198821 102.506966 
L 215.5238 80.907935 
L 215.84878 92.556539 
L 216.173759 89.25413 
L 216.498739 90.333342 
L 216.823718 89.880563 
L 217.148698 93.815065 
L 217.798657 91.736796 
L 218.448616 99.221519 
L 219.098575 125.224902 
L 219.423554 100.771364 
L 219.748534 91.429434 
L 220.073514 91.397587 
L 220.398493 87.382408 
L 221.048452 93.220029 
L 221.373432 87.22547 
L 221.698411 78.538292 
L 222.023391 84.183574 
L 222.34837 81.813595 
L 222.67335 89.209052 
L 222.998329 81.917212 
L 223.648288 110.862695 
L 223.973268 100.546266 
L 224.298247 100.355456 
L 224.623227 98.411254 
L 224.948206 93.495185 
L 225.598165 107.756193 
L 225.923145 122.317112 
L 226.248124 112.579801 
L 226.573104 107.693188 
L 226.898084 121.216549 
L 227.223063 103.496264 
L 227.548043 116.134634 
L 227.873022 133.23649 
L 228.198002 113.320731 
L 228.522981 137.027518 
L 228.847961 126.618393 
L 229.17294 102.346824 
L 229.49792 116.752662 
L 229.822899 103.457634 
L 230.147879 111.195318 
L 230.472858 134.069857 
L 230.797838 121.418771 
L 231.122817 119.354894 
L 231.447797 112.208694 
L 231.772776 123.733982 
L 232.097756 102.492753 
L 232.422735 113.085514 
L 232.747715 100.035773 
L 233.072695 135.11483 
L 233.397674 113.935202 
L 233.722654 157.876138 
L 234.047633 112.601008 
L 234.372613 89.091143 
L 234.697592 104.462543 
L 235.022572 111.193046 
L 235.347551 76.407641 
L 235.99751 132.273516 
L 236.32249 102.360202 
L 236.647469 120.928786 
L 237.297428 91.597906 
L 237.622408 88.798252 
L 237.947387 81.49988 
L 238.272367 82.352179 
L 238.597346 94.964145 
L 238.922326 96.687202 
L 239.247305 97.493861 
L 239.572285 111.19404 
L 239.897265 96.528158 
L 240.222244 126.211417 
L 240.547224 95.255284 
L 241.197183 79.543967 
L 241.847142 95.587819 
L 242.497101 81.632214 
L 242.82208 79.489466 
L 243.14706 79.259278 
L 243.797019 94.084372 
L 244.121998 110.381558 
L 244.446978 111.208542 
L 245.096937 80.392922 
L 245.421916 81.148777 
L 245.746896 104.739455 
L 246.396855 80.478956 
L 246.721835 89.555717 
L 247.046814 82.965901 
L 247.371794 92.47969 
L 248.021753 102.607452 
L 248.346732 95.288158 
L 248.671712 83.263954 
L 248.996691 80.832592 
L 249.321671 80.00118 
L 249.64665 91.249704 
L 249.97163 97.535179 
L 250.296609 92.450769 
L 250.621589 100.763681 
L 250.946568 93.186278 
L 251.271548 90.4305 
L 251.596527 83.38893 
L 251.921507 92.905951 
L 252.246486 120.242095 
L 252.896446 83.713507 
L 253.221425 105.345186 
L 253.546405 88.732587 
L 253.871384 94.029568 
L 254.196364 102.784607 
L 254.521343 106.480339 
L 254.846323 102.04988 
L 255.171302 99.311372 
L 255.496282 89.093047 
L 255.821261 86.820428 
L 256.146241 100.96507 
L 256.47122 101.981283 
L 256.7962 86.595486 
L 257.121179 87.31151 
L 257.446159 79.905059 
L 257.771138 85.568934 
L 258.096118 94.245041 
L 258.421097 91.613086 
L 258.746077 80.038368 
L 259.071057 84.870936 
L 259.396036 79.878742 
L 260.045995 114.376014 
L 260.370975 93.338871 
L 260.695954 82.598945 
L 261.020934 76.507814 
L 261.345913 94.191331 
L 261.670893 83.464955 
L 262.320852 95.974172 
L 262.645831 101.676067 
L 262.970811 76.244305 
L 263.29579 87.748729 
L 263.62077 83.326047 
L 263.945749 85.784448 
L 264.595708 101.404199 
L 264.920688 102.822424 
L 265.245667 111.76092 
L 265.570647 107.39978 
L 265.895627 96.71908 
L 266.220606 106.037394 
L 266.545586 110.602788 
L 266.870565 112.337896 
L 267.195545 88.966371 
L 267.520524 85.11695 
L 267.845504 88.464082 
L 268.170483 103.421252 
L 268.495463 103.71611 
L 268.820442 95.426314 
L 269.145422 95.059641 
L 269.470401 111.278679 
L 269.795381 120.015162 
L 270.12036 112.020694 
L 270.44534 109.834546 
L 270.770319 99.613381 
L 271.095299 83.121873 
L 271.420278 99.768848 
L 271.745258 94.227942 
L 272.070238 93.83045 
L 272.395217 91.854143 
L 272.720197 103.969582 
L 273.045176 105.647119 
L 273.370156 87.476062 
L 273.695135 121.876959 
L 274.020115 92.002099 
L 274.345094 94.828497 
L 274.670074 93.473338 
L 274.995053 106.949925 
L 275.320033 80.83387 
L 275.645012 110.826425 
L 276.294971 92.1529 
L 276.619951 103.366412 
L 276.94493 87.206929 
L 277.26991 107.662808 
L 277.594889 93.814178 
L 277.919869 133.345134 
L 278.244848 102.782828 
L 278.569828 100.006511 
L 278.894808 110.732745 
L 279.219787 162.654259 
L 279.544767 111.408296 
L 279.869746 104.254494 
L 280.194726 134.974551 
L 280.519705 99.782283 
L 280.844685 109.41849 
L 281.169664 104.63455 
L 281.494644 90.040609 
L 281.819623 94.750959 
L 282.144603 92.841648 
L 282.794562 85.311461 
L 283.119541 99.636757 
L 283.7695 84.791627 
L 284.09448 104.358138 
L 284.419459 110.843456 
L 284.744439 133.28451 
L 285.069419 105.667015 
L 285.394398 92.933552 
L 285.719378 87.049224 
L 286.044357 103.967119 
L 286.369337 103.619659 
L 286.694316 109.3259 
L 287.019296 103.296292 
L 287.344275 131.043253 
L 287.669255 135.112949 
L 287.994234 119.66883 
L 288.319214 131.868135 
L 288.644193 165.098827 
L 288.969173 120.780724 
L 289.294152 121.602174 
L 289.619132 132.629689 
L 289.944111 121.448946 
L 290.269091 134.503102 
L 290.59407 165.032106 
L 290.91905 105.077862 
L 291.244029 120.146501 
L 291.569009 165.087083 
L 291.893989 110.284657 
L 292.218968 109.925621 
L 292.543948 95.582403 
L 292.868927 132.679513 
L 293.193907 111.688622 
L 293.518886 133.467007 
L 293.843866 163.276219 
L 294.168845 162.482155 
L 294.493825 164.037328 
L 294.818804 134.868989 
L 295.143784 120.040529 
L 295.468763 162.837015 
L 295.793743 164.740679 
L 296.118722 110.56259 
L 296.443702 133.071965 
L 296.768681 99.702533 
L 297.093661 120.016124 
L 297.41864 112.993433 
L 297.74362 91.408016 
L 298.0686 102.894233 
L 298.393579 88.28926 
L 298.718559 133.746737 
L 299.043538 107.584757 
L 299.368518 97.822461 
L 299.693497 92.615479 
L 300.018477 116.932997 
L 300.343456 104.135837 
L 300.668436 83.266089 
L 300.993415 87.648084 
L 301.318395 90.324413 
L 301.643374 95.155982 
L 301.968354 98.085173 
L 302.293333 105.414391 
L 302.618313 119.649124 
L 302.943292 111.599931 
L 303.268272 92.381479 
L 303.593251 81.470452 
L 303.918231 121.225924 
L 304.24321 119.362594 
L 304.56819 103.993132 
L 304.89317 100.241984 
L 305.218149 134.461955 
L 305.543129 118.326897 
L 305.868108 165.730913 
L 306.193088 132.329149 
L 306.518067 163.531678 
L 306.843047 163.371116 
L 307.168026 120.446066 
L 307.493006 132.93805 
L 307.817985 134.667867 
L 308.142965 105.726144 
L 308.467944 144.176865 
L 308.792924 134.916895 
L 309.117903 121.365163 
L 309.442883 134.186828 
L 309.767862 113.061264 
L 310.092842 135.854812 
L 310.417821 132.135788 
L 310.742801 120.095344 
L 311.067781 163.588399 
L 311.39276 165.163203 
L 311.71774 163.918273 
L 312.042719 133.072497 
L 312.367699 163.153292 
L 312.692678 135.574248 
L 313.342637 111.099752 
L 313.667617 164.552701 
L 313.992596 110.906101 
L 314.317576 155.324872 
L 314.642555 164.041408 
L 315.292514 110.508807 
L 315.617494 120.31541 
L 315.942473 104.245327 
L 316.267453 100.257613 
L 316.592432 106.581046 
L 316.917412 109.758042 
L 317.242391 136.276555 
L 317.567371 105.619573 
L 317.892351 110.617189 
L 318.21733 113.296588 
L 318.54231 118.927121 
L 318.867289 163.380439 
L 319.192269 98.10287 
L 319.517248 99.025258 
L 319.842228 112.328023 
L 320.167207 102.468545 
L 320.492187 99.917593 
L 320.817166 103.419754 
L 321.142146 111.485881 
L 321.467125 84.654354 
L 321.792105 93.616846 
L 322.117084 96.608176 
L 322.442064 96.41107 
L 322.767043 123.72012 
L 323.092023 118.187278 
L 323.417002 118.068488 
L 323.741982 96.264437 
L 324.066962 103.688054 
L 324.391941 90.881139 
L 324.716921 94.261094 
L 325.0419 122.108314 
L 325.36688 120.073969 
L 326.016839 82.95391 
L 326.341818 85.686098 
L 326.666798 82.870644 
L 326.991777 86.807116 
L 327.316757 83.731891 
L 327.641736 85.513811 
L 327.966716 90.273908 
L 328.291695 83.811699 
L 328.616675 88.628194 
L 328.941654 97.797525 
L 329.266634 84.040052 
L 329.591613 83.107417 
L 329.916593 89.763052 
L 330.241572 103.413312 
L 330.891532 79.532983 
L 331.216511 98.405109 
L 331.541491 99.029876 
L 331.86647 95.509568 
L 332.19145 93.368133 
L 332.516429 90.356953 
L 332.841409 90.805594 
L 333.166388 100.758085 
L 333.491368 134.79494 
L 333.816347 95.463067 
L 334.141327 112.138214 
L 334.466306 95.939522 
L 334.791286 133.195526 
L 335.116265 87.463709 
L 335.441245 99.845052 
L 336.091204 97.694467 
L 336.416183 88.738818 
L 336.741163 84.616689 
L 337.066143 89.270454 
L 337.391122 82.548403 
L 337.716102 85.476013 
L 338.366061 80.981128 
L 338.69104 87.889507 
L 339.01602 80.128776 
L 339.340999 87.605198 
L 339.665979 82.071716 
L 339.990958 83.291097 
L 340.315938 112.152593 
L 340.965897 82.054335 
L 341.290876 98.045629 
L 341.615856 134.219696 
L 341.940835 94.361242 
L 342.265815 100.825852 
L 342.590794 98.555009 
L 342.915774 111.542927 
L 343.240753 158.390612 
L 343.565733 96.572982 
L 343.890713 91.398278 
L 344.215692 122.06481 
L 344.865651 92.124747 
L 345.190631 89.949754 
L 345.51561 104.625379 
L 345.84059 82.952407 
L 346.165569 98.574102 
L 346.490549 132.901343 
L 346.815528 97.81919 
L 347.140508 79.171302 
L 347.465487 76.376883 
L 347.790467 83.366234 
L 348.440426 72.526721 
L 348.765405 92.320543 
L 349.090385 91.099629 
L 349.415364 83.408454 
L 349.740344 83.312817 
L 350.065324 79.469924 
L 350.390303 108.981114 
L 350.715283 90.317701 
L 351.040262 87.731008 
L 351.365242 80.061772 
L 351.690221 92.095024 
L 352.015201 98.831233 
L 352.34018 88.516324 
L 352.66516 73.737144 
L 352.990139 113.492726 
L 353.315119 102.408011 
L 353.640098 119.157603 
L 353.965078 109.86873 
L 354.290057 107.301844 
L 354.615037 164.273024 
L 354.940016 132.093479 
L 355.264996 165.418421 
L 355.589975 163.712237 
L 355.914955 132.157433 
L 356.239934 125.588164 
L 356.564914 97.417656 
L 356.889894 132.763808 
L 357.214873 95.491255 
L 357.539853 93.558103 
L 357.864832 89.133107 
L 358.189812 102.040355 
L 358.514791 120.73477 
L 359.16475 102.5421 
L 359.48973 135.485428 
L 359.814709 96.203666 
L 360.139689 97.12339 
L 360.789648 133.031006 
L 361.114627 110.141857 
L 361.439607 97.90613 
L 361.764586 165.104827 
L 362.414545 99.28081 
L 362.739525 91.54514 
L 363.064505 103.973042 
L 363.389484 97.666638 
L 363.714464 87.071972 
L 364.364423 111.067887 
L 365.014382 82.581935 
L 365.339361 111.921738 
L 365.664341 105.427206 
L 365.98932 120.669194 
L 366.3143 112.634102 
L 366.639279 99.98387 
L 366.964259 127.16964 
L 367.289238 85.578104 
L 367.614218 84.983808 
L 367.939197 87.657718 
L 368.264177 92.56134 
L 368.589156 81.874597 
L 368.914136 109.658914 
L 369.239115 164.512174 
L 369.564095 94.041291 
L 369.889075 107.392489 
L 370.214054 97.01833 
L 370.539034 133.516202 
L 370.864013 120.966383 
L 371.188993 112.995538 
L 371.513972 110.964705 
L 371.838952 164.099188 
L 372.163931 111.865914 
L 372.488911 125.915208 
L 372.81389 133.06235 
L 373.13887 120.631764 
L 373.463849 133.149995 
L 373.788829 165.297452 
L 374.113808 111.346391 
L 374.438788 120.577907 
L 374.763767 110.032243 
L 375.088747 133.416894 
L 375.413726 91.075327 
L 375.738706 113.312179 
L 376.063686 71.440395 
L 376.388665 76.194798 
L 376.713645 91.712401 
L 377.038624 82.81273 
L 377.363604 89.392855 
L 377.688583 98.39749 
L 378.013563 89.063231 
L 378.338542 112.827063 
L 378.663522 102.966527 
L 378.988501 82.823033 
L 379.63846 120.039829 
L 379.96344 109.495422 
L 380.288419 106.857229 
L 380.613399 97.679635 
L 380.938378 119.966069 
L 381.263358 133.959765 
L 381.588337 112.010741 
L 381.913317 116.892589 
L 382.238296 110.870869 
L 382.563276 134.342883 
L 382.888256 118.318971 
L 383.213235 163.870495 
L 383.538215 132.820907 
L 383.863194 119.612052 
L 384.188174 164.572978 
L 384.513153 104.647382 
L 385.163112 134.718675 
L 385.488092 132.363532 
L 385.813071 165.205905 
L 386.138051 130.400885 
L 386.46303 165.339473 
L 386.78801 134.08925 
L 387.112989 165.431271 
L 387.437969 133.123992 
L 387.762948 135.228584 
L 388.087928 165.693237 
L 388.412907 164.064735 
L 388.737887 164.990312 
L 389.062867 133.777297 
L 389.387846 162.950071 
L 389.712826 165.321847 
L 390.037805 163.79992 
L 390.362785 133.959356 
L 390.687764 164.748974 
L 391.012744 119.344395 
L 391.337723 163.651247 
L 391.662703 121.685261 
L 391.987682 137.333472 
L 392.312662 163.681861 
L 392.637641 132.752167 
L 392.962621 164.707459 
L 393.2876 116.514382 
L 393.61258 135.539974 
L 393.937559 163.983552 
L 394.262539 112.09101 
L 394.587518 98.044814 
L 394.912498 106.620533 
L 395.237477 88.382648 
L 395.562457 114.136208 
L 395.887437 90.596009 
L 396.537396 108.918284 
L 396.862375 135.758496 
L 397.187355 133.985406 
L 397.512334 118.163576 
L 397.837314 131.390475 
L 398.162293 133.860158 
L 398.487273 164.005631 
L 398.487273 164.005631 
" style="fill:none;stroke:#008000;stroke-dasharray:9.6,2.4,1.5,2.4;stroke-dashoffset:0;stroke-width:1.5;"/>
   </g>
   <g id="line2d_23">
    <path clip-path="url(#p5173d8a095)" d="M 73.832727 167.660484 
L 74.157707 167.796018 
L 74.482686 167.440482 
L 75.132645 167.373158 
L 75.457625 168.170481 
L 75.782604 167.525632 
L 76.107584 167.606024 
L 76.757543 167.447194 
L 77.732482 167.364296 
L 78.057461 167.567981 
L 78.382441 167.508045 
L 78.70742 167.326449 
L 79.357379 167.547975 
L 79.682359 167.392807 
L 80.007338 167.605918 
L 80.332318 167.390539 
L 80.657297 167.352467 
L 80.982277 167.676171 
L 81.307256 167.775147 
L 81.957215 167.368768 
L 82.282195 168.13893 
L 82.607174 167.467351 
L 82.932154 167.451204 
L 83.257133 167.560001 
L 83.582113 167.350497 
L 84.232072 167.6235 
L 84.557052 167.448572 
L 85.207011 167.541229 
L 85.53199 167.689166 
L 86.181949 167.446047 
L 86.506929 167.627754 
L 86.831908 167.420286 
L 87.156888 167.562033 
L 87.481867 167.574609 
L 87.806847 167.755293 
L 88.131826 167.768971 
L 88.456806 167.519968 
L 90.081704 167.364903 
L 91.381622 167.390062 
L 91.706601 167.67905 
L 92.031581 167.459283 
L 92.35656 167.697528 
L 92.68154 167.489353 
L 93.656478 167.3929 
L 93.981458 167.933006 
L 94.306437 167.346229 
L 94.631417 168.055823 
L 94.956396 167.501612 
L 95.606355 167.345726 
L 96.256314 167.467158 
L 96.581294 168.217981 
L 96.906274 167.336181 
L 97.231253 167.421829 
L 97.556233 167.718472 
L 97.881212 167.33364 
L 98.206192 167.784007 
L 98.531171 167.419144 
L 99.18113 167.393983 
L 99.50611 167.539794 
L 100.481048 167.391705 
L 101.131007 167.423297 
L 101.455987 167.595545 
L 101.780966 167.586668 
L 102.105946 167.442144 
L 102.430925 167.489011 
L 102.755905 167.372195 
L 103.080885 167.462828 
L 103.730844 167.343841 
L 104.705782 167.467358 
L 105.030762 167.408463 
L 105.355741 167.50644 
L 105.680721 167.456182 
L 106.0057 167.593928 
L 106.33068 167.386368 
L 106.655659 167.466622 
L 106.980639 167.342984 
L 107.630598 167.341376 
L 107.955577 167.702604 
L 108.280557 167.454915 
L 109.255495 167.460672 
L 109.580475 167.380743 
L 109.905455 167.483897 
L 110.230434 167.945416 
L 110.555414 167.578131 
L 110.880393 167.55671 
L 111.205373 167.348812 
L 111.530352 167.574899 
L 112.505291 167.632996 
L 112.83027 167.429522 
L 113.15525 167.382526 
L 113.480229 167.548189 
L 113.805209 167.362432 
L 114.455168 167.415775 
L 114.780147 167.37104 
L 115.105127 167.675446 
L 115.755086 167.417525 
L 116.080066 167.880085 
L 116.405045 167.498695 
L 117.055004 167.340781 
L 117.704963 167.541697 
L 118.029943 167.572565 
L 118.354922 167.367523 
L 118.679902 167.329942 
L 119.004881 167.549578 
L 119.329861 167.452526 
L 119.65484 167.760908 
L 119.97982 167.375176 
L 120.304799 167.632963 
L 120.629779 167.387576 
L 120.954758 167.866597 
L 121.279738 168.028772 
L 121.604717 167.478342 
L 121.929697 167.328695 
L 122.254676 167.889193 
L 122.579656 167.619366 
L 122.904636 167.845339 
L 123.229615 167.432406 
L 123.554595 167.844204 
L 124.204554 167.42749 
L 124.529533 167.333253 
L 125.179492 167.912335 
L 125.504472 167.383259 
L 125.829451 167.384972 
L 126.154431 167.845116 
L 126.47941 167.333788 
L 126.80439 167.47444 
L 128.429287 167.398298 
L 128.754267 167.805517 
L 129.079247 167.729826 
L 129.404226 167.463187 
L 129.729206 167.459129 
L 130.054185 167.706442 
L 131.354103 167.345392 
L 131.679083 167.367916 
L 132.004062 167.71637 
L 132.329042 167.357821 
L 133.30398 167.838758 
L 133.953939 167.574904 
L 134.278919 167.847834 
L 134.603898 167.502213 
L 135.253857 167.768751 
L 135.578837 167.711073 
L 135.903817 167.352017 
L 136.228796 167.705757 
L 137.203735 167.480306 
L 137.528714 167.381231 
L 137.853694 167.701877 
L 138.178673 167.412964 
L 138.503653 167.365889 
L 138.828632 167.747759 
L 139.153612 167.444669 
L 139.478591 167.343003 
L 139.803571 167.558662 
L 140.12855 167.326146 
L 141.103489 167.423555 
L 141.428468 167.502161 
L 141.753448 167.333434 
L 142.078428 167.579184 
L 142.403407 167.441831 
L 142.728387 167.554668 
L 143.053366 167.436198 
L 144.028305 167.585098 
L 145.003243 167.365125 
L 145.328223 167.626585 
L 145.653202 167.740455 
L 145.978182 167.615279 
L 146.303161 168.244847 
L 146.628141 167.558945 
L 146.95312 167.39168 
L 147.603079 167.336453 
L 147.928059 167.645941 
L 148.253038 167.434597 
L 148.578018 167.794023 
L 148.902998 167.368939 
L 149.552957 167.341192 
L 150.202916 167.516563 
L 150.852875 167.341309 
L 151.177854 167.534333 
L 151.502834 167.563212 
L 151.827813 167.745392 
L 152.152793 167.400106 
L 152.802752 167.715249 
L 153.127731 167.375981 
L 153.77769 167.791058 
L 154.10267 167.366098 
L 154.752629 167.378432 
L 155.077609 167.581874 
L 155.402588 167.392767 
L 155.727568 167.365362 
L 156.052547 167.487387 
L 156.377527 167.462469 
L 156.702506 167.738298 
L 157.027486 167.370194 
L 157.352465 167.409534 
L 157.677445 167.603923 
L 158.002424 167.335664 
L 158.977363 167.477492 
L 159.302342 167.676871 
L 159.627322 167.430336 
L 159.952301 167.491259 
L 160.277281 167.352575 
L 160.92724 167.529278 
L 161.252219 167.358054 
L 161.902179 167.516245 
L 162.227158 167.348987 
L 162.877117 167.348515 
L 163.202097 167.627254 
L 163.527076 167.412434 
L 163.852056 167.612437 
L 164.177035 167.478858 
L 164.502015 167.644346 
L 164.826994 167.410838 
L 165.476953 167.420757 
L 165.801933 168.033316 
L 166.126912 167.383905 
L 166.451892 167.485012 
L 166.776871 167.38782 
L 167.42683 167.779578 
L 167.75181 167.463013 
L 168.401769 167.450413 
L 168.726749 167.724395 
L 169.376708 167.395774 
L 170.351646 167.357222 
L 171.001605 167.365173 
L 171.651564 167.350401 
L 171.976544 167.792336 
L 172.301523 167.383539 
L 172.626503 167.348612 
L 172.951482 167.54504 
L 173.276462 167.601541 
L 173.601441 167.350672 
L 173.926421 167.692967 
L 174.2514 167.523879 
L 174.57638 167.574016 
L 174.90136 167.401083 
L 175.876298 167.373766 
L 176.201278 167.512303 
L 176.526257 167.939353 
L 176.851237 167.54818 
L 177.176216 167.667788 
L 177.501196 167.330658 
L 177.826175 167.623857 
L 178.151155 167.450075 
L 178.476134 167.599086 
L 178.801114 167.398464 
L 179.126093 167.683172 
L 179.776052 167.608769 
L 180.101032 167.35778 
L 180.426011 167.544734 
L 180.750991 167.492712 
L 181.075971 167.604534 
L 181.40095 167.33738 
L 182.375889 167.710772 
L 183.350827 167.348571 
L 183.675807 168.132545 
L 184.000786 167.395058 
L 185.625684 167.731409 
L 185.950663 167.442819 
L 186.275643 167.674536 
L 186.600622 167.51425 
L 186.925602 167.601217 
L 187.575561 167.37792 
L 188.22552 167.647775 
L 188.5505 167.591188 
L 188.875479 167.842173 
L 189.525438 167.754754 
L 189.850418 167.75703 
L 190.175397 167.501801 
L 190.500377 167.55043 
L 190.825356 167.752303 
L 191.150336 167.482507 
L 191.800295 167.667359 
L 192.125274 167.349811 
L 192.450254 167.448635 
L 192.775233 167.331365 
L 193.100213 167.405414 
L 193.750172 167.357964 
L 196.025029 167.723714 
L 196.350008 167.335239 
L 196.674988 167.368244 
L 196.999967 167.535121 
L 197.324947 167.365908 
L 197.974906 167.771579 
L 198.299885 167.487898 
L 198.949844 167.591788 
L 199.274824 167.377226 
L 199.599803 167.480016 
L 199.924783 167.875897 
L 200.249762 167.478083 
L 200.899722 167.395878 
L 201.224701 167.56462 
L 201.549681 167.45132 
L 201.87466 167.608172 
L 202.19964 167.393145 
L 202.524619 167.581003 
L 202.849599 167.345948 
L 205.449435 167.393621 
L 209.02421 167.328858 
L 209.349189 167.478022 
L 209.999148 167.341646 
L 210.324128 167.514047 
L 210.649107 167.353857 
L 211.624046 167.426955 
L 212.274005 167.335147 
L 212.598984 167.407489 
L 213.573923 167.350343 
L 213.898903 167.507682 
L 214.223882 167.534796 
L 214.548862 167.367299 
L 214.873841 167.358201 
L 215.198821 167.463815 
L 215.84878 167.365436 
L 217.473677 167.49829 
L 217.798657 167.347014 
L 218.123636 167.355343 
L 218.448616 167.504977 
L 218.773595 167.421278 
L 219.098575 167.469307 
L 219.748534 167.33461 
L 220.398493 167.532287 
L 220.723473 167.336872 
L 221.048452 167.456739 
L 221.698411 167.346023 
L 222.023391 167.481236 
L 222.34837 167.405453 
L 222.67335 167.483345 
L 223.323309 167.403529 
L 223.648288 167.524943 
L 223.973268 167.349202 
L 224.298247 167.325357 
L 224.623227 167.521231 
L 224.948206 167.361089 
L 225.598165 167.429333 
L 226.573104 167.36311 
L 227.548043 167.33276 
L 228.522981 167.362104 
L 228.847961 53.619659 
L 229.49792 53.578543 
L 229.822899 167.357388 
L 230.147879 53.606209 
L 230.472858 53.587278 
L 230.797838 167.346512 
L 231.447797 167.339914 
L 231.772776 53.58977 
L 233.397674 53.601874 
L 233.722654 167.430588 
L 234.047633 53.591839 
L 234.372613 53.588982 
L 234.697592 167.334983 
L 235.022572 53.569951 
L 235.347551 167.332491 
L 235.99751 167.334572 
L 236.972449 167.344382 
L 237.297428 53.597709 
L 238.272367 53.574556 
L 238.597346 167.348963 
L 238.922326 53.605731 
L 239.247305 53.589549 
L 239.572285 167.350012 
L 239.897265 53.607518 
L 240.222244 167.495184 
L 240.547224 167.360123 
L 241.197183 167.392276 
L 241.522162 53.610042 
L 241.847142 167.338722 
L 242.82208 167.525113 
L 243.14706 167.361054 
L 243.472039 167.584665 
L 243.797019 167.334809 
L 244.121998 53.617 
L 244.446978 167.42871 
L 244.771957 167.344034 
L 245.421916 167.889268 
L 245.746896 167.438314 
L 248.021753 167.467376 
L 248.346732 167.651891 
L 248.671712 167.423213 
L 249.321671 167.415378 
L 249.97163 167.450542 
L 250.296609 167.599336 
L 250.621589 167.511176 
L 250.946568 167.56921 
L 251.271548 167.409017 
L 251.596527 167.443065 
L 251.921507 167.351589 
L 252.571466 167.371249 
L 253.221425 167.378201 
L 253.546405 167.848377 
L 254.196364 167.337818 
L 254.521343 167.364263 
L 254.846323 167.593542 
L 255.171302 167.436225 
L 255.821261 167.48409 
L 256.47122 167.470732 
L 256.7962 167.339017 
L 257.121179 167.528363 
L 257.771138 167.678252 
L 258.096118 167.376357 
L 258.421097 167.584129 
L 258.746077 167.366901 
L 260.045995 167.724321 
L 260.370975 167.375335 
L 261.020934 167.339498 
L 261.345913 167.732011 
L 261.670893 167.838978 
L 261.995872 167.472245 
L 262.320852 168.024472 
L 262.970811 167.498811 
L 263.29579 167.662981 
L 263.62077 167.473897 
L 263.945749 167.498747 
L 264.270729 167.3712 
L 264.595708 167.443161 
L 264.920688 167.64461 
L 265.245667 167.332563 
L 265.895627 167.803112 
L 266.220606 167.481226 
L 266.545586 167.376246 
L 266.870565 167.963423 
L 267.195545 167.4045 
L 267.520524 167.791805 
L 267.845504 167.552321 
L 268.170483 167.783355 
L 268.495463 167.356171 
L 268.820442 167.375236 
L 269.470401 167.715847 
L 269.795381 167.390208 
L 270.12036 167.528389 
L 270.770319 167.370151 
L 271.095299 167.770978 
L 271.420278 167.521717 
L 272.070238 167.455819 
L 272.720197 167.462901 
L 273.045176 167.350329 
L 273.370156 167.374746 
L 273.695135 167.596729 
L 274.020115 167.439681 
L 276.94493 167.437095 
L 277.26991 167.71024 
L 278.244848 167.404647 
L 278.569828 167.339569 
L 278.894808 167.976012 
L 279.219787 167.520015 
L 279.544767 167.46849 
L 279.869746 167.620025 
L 280.194726 167.406165 
L 281.169664 167.335805 
L 281.494644 167.969993 
L 281.819623 167.578167 
L 282.144603 167.581364 
L 282.794562 167.378234 
L 283.119541 167.817996 
L 283.7695 167.808429 
L 284.419459 167.337653 
L 284.744439 167.510762 
L 285.394398 167.428118 
L 285.719378 167.339647 
L 286.044357 167.490836 
L 286.369337 167.783758 
L 286.694316 167.458055 
L 287.669255 167.335227 
L 287.994234 167.553318 
L 288.319214 167.496264 
L 288.644193 167.595704 
L 288.969173 167.382077 
L 289.294152 167.485045 
L 289.619132 167.835715 
L 289.944111 167.400418 
L 290.269091 167.548975 
L 290.59407 167.513839 
L 290.91905 167.633488 
L 291.244029 167.525324 
L 291.569009 167.549066 
L 291.893989 167.453518 
L 292.218968 167.730435 
L 292.543948 167.366219 
L 293.518886 167.328076 
L 293.843866 167.880034 
L 294.168845 167.382878 
L 294.493825 167.7556 
L 294.818804 167.33765 
L 295.468763 167.380481 
L 295.793743 167.551187 
L 296.768681 167.651937 
L 297.093661 167.866355 
L 297.41864 167.410393 
L 299.368518 167.513406 
L 299.693497 167.6725 
L 300.668436 167.492586 
L 300.993415 167.59504 
L 301.318395 167.478457 
L 301.643374 167.908651 
L 301.968354 167.332011 
L 302.293333 167.723805 
L 302.618313 167.88023 
L 302.943292 167.8241 
L 303.268272 167.416884 
L 303.593251 167.665073 
L 303.918231 167.333348 
L 304.89317 167.942966 
L 305.218149 167.735418 
L 305.543129 167.760258 
L 305.868108 167.325829 
L 306.193088 167.358886 
L 306.518067 167.537329 
L 307.168026 167.366576 
L 307.493006 167.644058 
L 308.142965 167.63372 
L 308.467944 167.328824 
L 308.792924 167.717177 
L 309.117903 167.37769 
L 309.767862 167.446012 
L 311.067781 167.44916 
L 311.71774 168.017576 
L 312.042719 167.538972 
L 312.367699 167.606992 
L 312.692678 167.383972 
L 313.667617 167.49568 
L 313.992596 167.449814 
L 314.317576 167.720271 
L 314.967535 167.331783 
L 315.942473 167.445695 
L 316.267453 167.767188 
L 316.592432 167.72179 
L 316.917412 167.38258 
L 317.242391 167.775503 
L 317.567371 167.409043 
L 317.892351 167.594256 
L 318.54231 167.338137 
L 318.867289 167.452578 
L 319.192269 167.421074 
L 319.517248 167.544053 
L 320.167207 167.393008 
L 320.817166 167.515801 
L 321.467125 167.428988 
L 322.442064 167.645093 
L 322.767043 167.535674 
L 323.092023 167.572855 
L 323.417002 167.363154 
L 323.741982 167.638267 
L 324.391941 167.535089 
L 324.716921 167.516176 
L 325.0419 167.734362 
L 325.36688 167.431902 
L 325.691859 167.422367 
L 326.016839 167.668329 
L 326.666798 167.700567 
L 326.991777 167.487649 
L 327.641736 167.328003 
L 327.966716 167.583208 
L 328.291695 167.685215 
L 328.616675 167.352192 
L 329.916593 167.403471 
L 330.241572 167.670841 
L 330.566552 167.539583 
L 330.891532 167.680817 
L 331.541491 167.340962 
L 332.841409 167.394188 
L 333.491368 167.592696 
L 333.816347 167.839318 
L 334.141327 167.848645 
L 334.466306 167.353757 
L 335.441245 167.599886 
L 335.766224 167.364169 
L 336.091204 167.56751 
L 336.416183 167.373371 
L 336.741163 167.448751 
L 337.066143 167.722001 
L 337.391122 167.637595 
L 338.041081 167.897771 
L 338.69104 167.326237 
L 339.01602 167.703286 
L 340.315938 167.408015 
L 340.640917 167.688301 
L 340.965897 167.395742 
L 341.290876 167.823237 
L 341.615856 167.337933 
L 341.940835 167.348847 
L 342.265815 167.638995 
L 342.590794 167.34592 
L 342.915774 167.763652 
L 343.240753 167.872675 
L 343.565733 167.337889 
L 343.890713 167.333401 
L 344.215692 167.508634 
L 344.540672 167.457872 
L 344.865651 167.917209 
L 345.190631 167.327983 
L 346.165569 167.407849 
L 346.490549 167.661848 
L 347.140508 167.535792 
L 348.115446 167.413519 
L 348.440426 167.752793 
L 348.765405 167.578002 
L 349.090385 167.855386 
L 349.740344 167.416619 
L 350.065324 167.406242 
L 350.390303 167.684852 
L 352.015201 167.354951 
L 352.34018 167.907158 
L 352.66516 167.36797 
L 352.990139 167.92657 
L 353.640098 167.39997 
L 353.965078 167.422889 
L 354.290057 167.981555 
L 354.615037 167.358053 
L 355.264996 167.326236 
L 355.589975 167.516571 
L 355.914955 167.367254 
L 356.239934 167.789306 
L 356.889894 167.419107 
L 357.214873 167.334704 
L 357.864832 167.65688 
L 358.189812 167.581624 
L 358.514791 167.339534 
L 358.839771 167.503582 
L 359.16475 167.816207 
L 359.48973 167.349854 
L 359.814709 167.388124 
L 360.139689 167.61135 
L 360.464668 167.628979 
L 360.789648 167.420164 
L 361.439607 167.380535 
L 362.089566 167.368232 
L 362.414545 167.346318 
L 363.064505 167.704008 
L 363.389484 167.445282 
L 364.364423 167.478806 
L 364.689402 167.354969 
L 365.664341 167.483507 
L 365.98932 167.370471 
L 366.3143 167.577059 
L 366.639279 167.466173 
L 366.964259 167.495351 
L 367.289238 167.727602 
L 367.614218 167.686579 
L 367.939197 167.416896 
L 368.264177 167.358864 
L 368.589156 167.557726 
L 368.914136 167.604061 
L 369.239115 167.363272 
L 369.564095 168.004649 
L 369.889075 167.610014 
L 370.539034 167.675261 
L 370.864013 167.686644 
L 371.188993 167.351955 
L 371.513972 167.434666 
L 371.838952 167.839216 
L 372.163931 167.672582 
L 372.488911 167.804416 
L 372.81389 167.40619 
L 373.13887 167.408165 
L 373.788829 167.890844 
L 374.113808 167.383768 
L 374.438788 167.480209 
L 374.763767 167.833644 
L 375.413726 167.356824 
L 376.063686 167.422078 
L 376.388665 167.345166 
L 376.713645 167.546619 
L 377.038624 167.447846 
L 377.363604 167.605843 
L 378.013563 167.338636 
L 379.313481 167.452267 
L 379.63846 167.415641 
L 379.96344 167.700754 
L 380.613399 167.389888 
L 380.938378 167.35275 
L 381.263358 167.454146 
L 381.588337 167.374864 
L 381.913317 167.448271 
L 382.238296 167.394215 
L 382.563276 167.661359 
L 383.213235 167.446991 
L 383.538215 167.746902 
L 383.863194 167.414288 
L 384.513153 167.645472 
L 384.838133 167.398479 
L 385.163112 167.356368 
L 385.488092 167.636006 
L 386.138051 167.337697 
L 386.46303 167.466343 
L 387.112989 167.41872 
L 388.412907 167.608174 
L 388.737887 167.356893 
L 390.037805 167.513731 
L 391.012744 167.393347 
L 391.987682 167.633395 
L 392.312662 167.412361 
L 392.637641 167.470096 
L 392.962621 167.679826 
L 393.2876 167.411759 
L 393.937559 167.682968 
L 394.262539 167.363622 
L 394.587518 167.457418 
L 394.912498 167.730085 
L 395.237477 167.528695 
L 396.537396 167.420577 
L 396.862375 167.5177 
L 397.187355 167.492051 
L 397.512334 167.325942 
L 398.162293 167.751852 
L 398.487273 167.401538 
L 398.487273 167.401538 
" style="fill:none;stroke:#ff0000;stroke-linecap:square;stroke-width:1.5;"/>
   </g>
   <g id="patch_3">
    <path d="M 57.6 307.584 
L 57.6 41.472 
" style="fill:none;stroke:#000000;stroke-linecap:square;stroke-linejoin:miter;stroke-width:0.8;"/>
   </g>
   <g id="patch_4">
    <path d="M 414.72 307.584 
L 414.72 41.472 
" style="fill:none;stroke:#000000;stroke-linecap:square;stroke-linejoin:miter;stroke-width:0.8;"/>
   </g>
   <g id="patch_5">
    <path d="M 57.6 307.584 
L 414.72 307.584 
" style="fill:none;stroke:#000000;stroke-linecap:square;stroke-linejoin:miter;stroke-width:0.8;"/>
   </g>
   <g id="patch_6">
    <path d="M 57.6 41.472 
L 414.72 41.472 
" style="fill:none;stroke:#000000;stroke-linecap:square;stroke-linejoin:miter;stroke-width:0.8;"/>
   </g>
   <g id="text_13">
    <!-- Population's average and best fitness -->
    <defs>
     <path d="M 19.671875 64.796875 
L 19.671875 37.40625 
L 32.078125 37.40625 
Q 38.96875 37.40625 42.71875 40.96875 
Q 46.484375 44.53125 46.484375 51.125 
Q 46.484375 57.671875 42.71875 61.234375 
Q 38.96875 64.796875 32.078125 64.796875 
z
M 9.8125 72.90625 
L 32.078125 72.90625 
Q 44.34375 72.90625 50.609375 67.359375 
Q 56.890625 61.8125 56.890625 51.125 
Q 56.890625 40.328125 50.609375 34.8125 
Q 44.34375 29.296875 32.078125 29.296875 
L 19.671875 29.296875 
L 19.671875 0 
L 9.8125 0 
z
" id="DejaVuSans-80"/>
     <path d="M 18.109375 8.203125 
L 18.109375 -20.796875 
L 9.078125 -20.796875 
L 9.078125 54.6875 
L 18.109375 54.6875 
L 18.109375 46.390625 
Q 20.953125 51.265625 25.265625 53.625 
Q 29.59375 56 35.59375 56 
Q 45.5625 56 51.78125 48.09375 
Q 58.015625 40.1875 58.015625 27.296875 
Q 58.015625 14.40625 51.78125 6.484375 
Q 45.5625 -1.421875 35.59375 -1.421875 
Q 29.59375 -1.421875 25.265625 0.953125 
Q 20.953125 3.328125 18.109375 8.203125 
z
M 48.6875 27.296875 
Q 48.6875 37.203125 44.609375 42.84375 
Q 40.53125 48.484375 33.40625 48.484375 
Q 26.265625 48.484375 22.1875 42.84375 
Q 18.109375 37.203125 18.109375 27.296875 
Q 18.109375 17.390625 22.1875 11.75 
Q 26.265625 6.109375 33.40625 6.109375 
Q 40.53125 6.109375 44.609375 11.75 
Q 48.6875 17.390625 48.6875 27.296875 
z
" id="DejaVuSans-112"/>
     <path d="M 8.5 21.578125 
L 8.5 54.6875 
L 17.484375 54.6875 
L 17.484375 21.921875 
Q 17.484375 14.15625 20.5 10.265625 
Q 23.53125 6.390625 29.59375 6.390625 
Q 36.859375 6.390625 41.078125 11.03125 
Q 45.3125 15.671875 45.3125 23.6875 
L 45.3125 54.6875 
L 54.296875 54.6875 
L 54.296875 0 
L 45.3125 0 
L 45.3125 8.40625 
Q 42.046875 3.421875 37.71875 1 
Q 33.40625 -1.421875 27.6875 -1.421875 
Q 18.265625 -1.421875 13.375 4.4375 
Q 8.5 10.296875 8.5 21.578125 
z
M 31.109375 56 
z
" id="DejaVuSans-117"/>
     <path d="M 9.421875 75.984375 
L 18.40625 75.984375 
L 18.40625 0 
L 9.421875 0 
z
" id="DejaVuSans-108"/>
     <path d="M 17.921875 72.90625 
L 17.921875 45.796875 
L 9.625 45.796875 
L 9.625 72.90625 
z
" id="DejaVuSans-39"/>
     <path id="DejaVuSans-32"/>
     <path d="M 2.984375 54.6875 
L 12.5 54.6875 
L 29.59375 8.796875 
L 46.6875 54.6875 
L 56.203125 54.6875 
L 35.6875 0 
L 23.484375 0 
z
" id="DejaVuSans-118"/>
     <path d="M 45.40625 27.984375 
Q 45.40625 37.75 41.375 43.109375 
Q 37.359375 48.484375 30.078125 48.484375 
Q 22.859375 48.484375 18.828125 43.109375 
Q 14.796875 37.75 14.796875 27.984375 
Q 14.796875 18.265625 18.828125 12.890625 
Q 22.859375 7.515625 30.078125 7.515625 
Q 37.359375 7.515625 41.375 12.890625 
Q 45.40625 18.265625 45.40625 27.984375 
z
M 54.390625 6.78125 
Q 54.390625 -7.171875 48.1875 -13.984375 
Q 42 -20.796875 29.203125 -20.796875 
Q 24.46875 -20.796875 20.265625 -20.09375 
Q 16.0625 -19.390625 12.109375 -17.921875 
L 12.109375 -9.1875 
Q 16.0625 -11.328125 19.921875 -12.34375 
Q 23.78125 -13.375 27.78125 -13.375 
Q 36.625 -13.375 41.015625 -8.765625 
Q 45.40625 -4.15625 45.40625 5.171875 
L 45.40625 9.625 
Q 42.625 4.78125 38.28125 2.390625 
Q 33.9375 0 27.875 0 
Q 17.828125 0 11.671875 7.65625 
Q 5.515625 15.328125 5.515625 27.984375 
Q 5.515625 40.671875 11.671875 48.328125 
Q 17.828125 56 27.875 56 
Q 33.9375 56 38.28125 53.609375 
Q 42.625 51.21875 45.40625 46.390625 
L 45.40625 54.6875 
L 54.390625 54.6875 
z
" id="DejaVuSans-103"/>
     <path d="M 45.40625 46.390625 
L 45.40625 75.984375 
L 54.390625 75.984375 
L 54.390625 0 
L 45.40625 0 
L 45.40625 8.203125 
Q 42.578125 3.328125 38.25 0.953125 
Q 33.9375 -1.421875 27.875 -1.421875 
Q 17.96875 -1.421875 11.734375 6.484375 
Q 5.515625 14.40625 5.515625 27.296875 
Q 5.515625 40.1875 11.734375 48.09375 
Q 17.96875 56 27.875 56 
Q 33.9375 56 38.25 53.625 
Q 42.578125 51.265625 45.40625 46.390625 
z
M 14.796875 27.296875 
Q 14.796875 17.390625 18.875 11.75 
Q 22.953125 6.109375 30.078125 6.109375 
Q 37.203125 6.109375 41.296875 11.75 
Q 45.40625 17.390625 45.40625 27.296875 
Q 45.40625 37.203125 41.296875 42.84375 
Q 37.203125 48.484375 30.078125 48.484375 
Q 22.953125 48.484375 18.875 42.84375 
Q 14.796875 37.203125 14.796875 27.296875 
z
" id="DejaVuSans-100"/>
     <path d="M 48.6875 27.296875 
Q 48.6875 37.203125 44.609375 42.84375 
Q 40.53125 48.484375 33.40625 48.484375 
Q 26.265625 48.484375 22.1875 42.84375 
Q 18.109375 37.203125 18.109375 27.296875 
Q 18.109375 17.390625 22.1875 11.75 
Q 26.265625 6.109375 33.40625 6.109375 
Q 40.53125 6.109375 44.609375 11.75 
Q 48.6875 17.390625 48.6875 27.296875 
z
M 18.109375 46.390625 
Q 20.953125 51.265625 25.265625 53.625 
Q 29.59375 56 35.59375 56 
Q 45.5625 56 51.78125 48.09375 
Q 58.015625 40.1875 58.015625 27.296875 
Q 58.015625 14.40625 51.78125 6.484375 
Q 45.5625 -1.421875 35.59375 -1.421875 
Q 29.59375 -1.421875 25.265625 0.953125 
Q 20.953125 3.328125 18.109375 8.203125 
L 18.109375 0 
L 9.078125 0 
L 9.078125 75.984375 
L 18.109375 75.984375 
z
" id="DejaVuSans-98"/>
     <path d="M 37.109375 75.984375 
L 37.109375 68.5 
L 28.515625 68.5 
Q 23.6875 68.5 21.796875 66.546875 
Q 19.921875 64.59375 19.921875 59.515625 
L 19.921875 54.6875 
L 34.71875 54.6875 
L 34.71875 47.703125 
L 19.921875 47.703125 
L 19.921875 0 
L 10.890625 0 
L 10.890625 47.703125 
L 2.296875 47.703125 
L 2.296875 54.6875 
L 10.890625 54.6875 
L 10.890625 58.5 
Q 10.890625 67.625 15.140625 71.796875 
Q 19.390625 75.984375 28.609375 75.984375 
z
" id="DejaVuSans-102"/>
    </defs>
    <g transform="translate(123.315 35.472)scale(0.12 -0.12)">
     <use xlink:href="#DejaVuSans-80"/>
     <use x="60.255859" xlink:href="#DejaVuSans-111"/>
     <use x="121.4375" xlink:href="#DejaVuSans-112"/>
     <use x="184.914062" xlink:href="#DejaVuSans-117"/>
     <use x="248.292969" xlink:href="#DejaVuSans-108"/>
     <use x="276.076172" xlink:href="#DejaVuSans-97"/>
     <use x="337.355469" xlink:href="#DejaVuSans-116"/>
     <use x="376.564453" xlink:href="#DejaVuSans-105"/>
     <use x="404.347656" xlink:href="#DejaVuSans-111"/>
     <use x="465.529297" xlink:href="#DejaVuSans-110"/>
     <use x="528.908203" xlink:href="#DejaVuSans-39"/>
     <use x="556.398438" xlink:href="#DejaVuSans-115"/>
     <use x="608.498047" xlink:href="#DejaVuSans-32"/>
     <use x="640.285156" xlink:href="#DejaVuSans-97"/>
     <use x="701.564453" xlink:href="#DejaVuSans-118"/>
     <use x="760.744141" xlink:href="#DejaVuSans-101"/>
     <use x="822.267578" xlink:href="#DejaVuSans-114"/>
     <use x="863.380859" xlink:href="#DejaVuSans-97"/>
     <use x="924.660156" xlink:href="#DejaVuSans-103"/>
     <use x="988.136719" xlink:href="#DejaVuSans-101"/>
     <use x="1049.660156" xlink:href="#DejaVuSans-32"/>
     <use x="1081.447266" xlink:href="#DejaVuSans-97"/>
     <use x="1142.726562" xlink:href="#DejaVuSans-110"/>
     <use x="1206.105469" xlink:href="#DejaVuSans-100"/>
     <use x="1269.582031" xlink:href="#DejaVuSans-32"/>
     <use x="1301.369141" xlink:href="#DejaVuSans-98"/>
     <use x="1364.845703" xlink:href="#DejaVuSans-101"/>
     <use x="1426.369141" xlink:href="#DejaVuSans-115"/>
     <use x="1478.46875" xlink:href="#DejaVuSans-116"/>
     <use x="1517.677734" xlink:href="#DejaVuSans-32"/>
     <use x="1549.464844" xlink:href="#DejaVuSans-102"/>
     <use x="1584.669922" xlink:href="#DejaVuSans-105"/>
     <use x="1612.453125" xlink:href="#DejaVuSans-116"/>
     <use x="1651.662109" xlink:href="#DejaVuSans-110"/>
     <use x="1715.041016" xlink:href="#DejaVuSans-101"/>
     <use x="1776.564453" xlink:href="#DejaVuSans-115"/>
     <use x="1828.664062" xlink:href="#DejaVuSans-115"/>
    </g>
   </g>
   <g id="legend_1">
    <g id="patch_7">
     <path d="M 334.779375 302.584 
L 407.72 302.584 
Q 409.72 302.584 409.72 300.584 
L 409.72 257.549625 
Q 409.72 255.549625 407.72 255.549625 
L 334.779375 255.549625 
Q 332.779375 255.549625 332.779375 257.549625 
L 332.779375 300.584 
Q 332.779375 302.584 334.779375 302.584 
z
" style="fill:#ffffff;opacity:0.8;stroke:#cccccc;stroke-linejoin:miter;"/>
    </g>
    <g id="line2d_24">
     <path d="M 336.779375 263.648062 
L 356.779375 263.648062 
" style="fill:none;stroke:#0000ff;stroke-linecap:square;stroke-width:1.5;"/>
    </g>
    <g id="line2d_25"/>
    <g id="text_14">
     <!-- average -->
     <g transform="translate(364.779375 267.148062)scale(0.1 -0.1)">
      <use xlink:href="#DejaVuSans-97"/>
      <use x="61.279297" xlink:href="#DejaVuSans-118"/>
      <use x="120.458984" xlink:href="#DejaVuSans-101"/>
      <use x="181.982422" xlink:href="#DejaVuSans-114"/>
      <use x="223.095703" xlink:href="#DejaVuSans-97"/>
      <use x="284.375" xlink:href="#DejaVuSans-103"/>
      <use x="347.851562" xlink:href="#DejaVuSans-101"/>
     </g>
    </g>
    <g id="line2d_26">
     <path d="M 336.779375 278.326188 
L 356.779375 278.326188 
" style="fill:none;stroke:#008000;stroke-dasharray:9.6,2.4,1.5,2.4;stroke-dashoffset:0;stroke-width:1.5;"/>
    </g>
    <g id="line2d_27"/>
    <g id="text_15">
     <!-- +1 sd -->
     <defs>
      <path d="M 46 62.703125 
L 46 35.5 
L 73.1875 35.5 
L 73.1875 27.203125 
L 46 27.203125 
L 46 0 
L 37.796875 0 
L 37.796875 27.203125 
L 10.59375 27.203125 
L 10.59375 35.5 
L 37.796875 35.5 
L 37.796875 62.703125 
z
" id="DejaVuSans-43"/>
     </defs>
     <g transform="translate(364.779375 281.826188)scale(0.1 -0.1)">
      <use xlink:href="#DejaVuSans-43"/>
      <use x="83.789062" xlink:href="#DejaVuSans-49"/>
      <use x="147.412109" xlink:href="#DejaVuSans-32"/>
      <use x="179.199219" xlink:href="#DejaVuSans-115"/>
      <use x="231.298828" xlink:href="#DejaVuSans-100"/>
     </g>
    </g>
    <g id="line2d_28">
     <path d="M 336.779375 293.004312 
L 356.779375 293.004312 
" style="fill:none;stroke:#ff0000;stroke-linecap:square;stroke-width:1.5;"/>
    </g>
    <g id="line2d_29"/>
    <g id="text_16">
     <!-- best -->
     <g transform="translate(364.779375 296.504312)scale(0.1 -0.1)">
      <use xlink:href="#DejaVuSans-98"/>
      <use x="63.476562" xlink:href="#DejaVuSans-101"/>
      <use x="125" xlink:href="#DejaVuSans-115"/>
      <use x="177.099609" xlink:href="#DejaVuSans-116"/>
     </g>
    </g>
   </g>
  </g>
 </g>
 <defs>
  <clipPath id="p5173d8a095">
   <rect height="266.112" width="357.12" x="57.6" y="41.472"/>
  </clipPath>
 </defs>
</svg>
