<?xml version="1.0" encoding="UTF-8" standalone="no"?>
<!DOCTYPE svg PUBLIC "-//W3C//DTD SVG 1.1//EN"
 "http://www.w3.org/Graphics/SVG/1.1/DTD/svg11.dtd">
<!-- Generated by graphviz version 2.40.1 (20161225.0304)
 -->
<!-- Title: %3 Pages: 1 -->
<svg width="1281pt" height="330pt"
 viewBox="0.00 0.00 1281.08 329.55" xmlns="http://www.w3.org/2000/svg" xmlns:xlink="http://www.w3.org/1999/xlink">
<g id="graph0" class="graph" transform="scale(1 1) rotate(0) translate(4 325.5462)">
<title>%3</title>
<polygon fill="#ffffff" stroke="transparent" points="-4,4 -4,-325.5462 1277.0776,-325.5462 1277.0776,4 -4,4"/>
<!-- x&#45;vel -->
<g id="node1" class="node">
<title>x&#45;vel</title>
<polygon fill="#d3d3d3" stroke="#000000" points="193.8289,-309.333 158.8289,-309.333 158.8289,-291.333 193.8289,-291.333 193.8289,-309.333"/>
<text text-anchor="middle" x="176.3289" y="-298.133" font-family="Times,serif" font-size="9.00" fill="#000000">x&#45;vel</text>
</g>
<!-- 74 -->
<g id="node23" class="node">
<title>74</title>
<ellipse fill="#ffffff" stroke="#000000" cx="176.3289" cy="-218.3711" rx="18.2703" ry="18.2703"/>
<text text-anchor="middle" x="176.3289" y="-216.1711" font-family="Times,serif" font-size="9.00" fill="#000000">74</text>
</g>
<!-- x&#45;vel&#45;&gt;74 -->
<g id="edge31" class="edge">
<title>x&#45;vel&#45;&gt;74</title>
<path fill="none" stroke="#00ff00" stroke-width=".1083" stroke-dasharray="1,5" d="M176.3289,-291.2485C176.3289,-280.6151 176.3289,-262.4837 176.3289,-246.967"/>
<polygon fill="#00ff00" stroke="#00ff00" stroke-width=".1083" points="179.829,-246.7665 176.3289,-236.7666 172.829,-246.7666 179.829,-246.7665"/>
</g>
<!-- y&#45;vel -->
<g id="node2" class="node">
<title>y&#45;vel</title>
<polygon fill="#d3d3d3" stroke="#000000" points="1051.8289,-309.333 1016.8289,-309.333 1016.8289,-291.333 1051.8289,-291.333 1051.8289,-309.333"/>
<text text-anchor="middle" x="1034.3289" y="-298.133" font-family="Times,serif" font-size="9.00" fill="#000000">y&#45;vel</text>
</g>
<!-- none -->
<g id="node13" class="node">
<title>none</title>
<ellipse fill="#add8e6" stroke="#000000" cx="239.3289" cy="-132.8736" rx="24.0833" ry="24.0833"/>
<text text-anchor="middle" x="239.3289" y="-130.6736" font-family="Times,serif" font-size="9.00" fill="#000000">none</text>
</g>
<!-- y&#45;vel&#45;&gt;none -->
<g id="edge19" class="edge">
<title>y&#45;vel&#45;&gt;none</title>
<path fill="none" stroke="#00ff00" stroke-width="1.2197" d="M1016.5652,-299.3757C908.3764,-293.4892 341.6469,-261.8396 310.3289,-243.1198 294.6358,-233.7396 270.686,-192.7321 255.0177,-163.4764"/>
<polygon fill="#00ff00" stroke="#00ff00" stroke-width="1.2197" points="258.0111,-161.6498 250.2425,-154.4457 251.823,-164.922 258.0111,-161.6498"/>
</g>
<!-- right -->
<g id="node14" class="node">
<title>right</title>
<ellipse fill="#add8e6" stroke="#000000" cx="661.3289" cy="-132.8736" rx="23.1702" ry="23.1702"/>
<text text-anchor="middle" x="661.3289" y="-130.6736" font-family="Times,serif" font-size="9.00" fill="#000000">right</text>
</g>
<!-- y&#45;vel&#45;&gt;right -->
<g id="edge3" class="edge">
<title>y&#45;vel&#45;&gt;right</title>
<path fill="none" stroke="#00ff00" stroke-width=".2735" stroke-dasharray="1,5" d="M1016.4969,-300.0586C951.6486,-298.6803 729.6275,-290.5198 681.3289,-243.1198 661.2847,-223.4486 657.4878,-190.9006 657.9876,-166.2565"/>
<polygon fill="#00ff00" stroke="#00ff00" stroke-width=".2735" points="661.4853,-166.384 658.43,-156.2393 654.4921,-166.0751 661.4853,-166.384"/>
</g>
<!-- forward -->
<g id="node16" class="node">
<title>forward</title>
<ellipse fill="#add8e6" stroke="#000000" cx="398.3289" cy="-36.0624" rx="31.6406" ry="31.6406"/>
<text text-anchor="middle" x="398.3289" y="-33.8624" font-family="Times,serif" font-size="9.00" fill="#000000">forward</text>
</g>
<!-- y&#45;vel&#45;&gt;forward -->
<g id="edge24" class="edge">
<title>y&#45;vel&#45;&gt;forward</title>
<path fill="none" stroke="#00ff00" stroke-width=".2733" stroke-dasharray="1,5" d="M1028.1474,-291.1976C1003.2956,-254.5894 911.0604,-119.903 891.3289,-108.1249 886.4567,-105.2166 558.0987,-58.6255 440.0338,-41.945"/>
<polygon fill="#00ff00" stroke="#00ff00" stroke-width=".2733" points="440.3243,-38.4514 429.9331,-40.5184 439.3454,-45.3826 440.3243,-38.4514"/>
</g>
<!-- backward -->
<g id="node17" class="node">
<title>backward</title>
<ellipse fill="#add8e6" stroke="#000000" cx="1071.3289" cy="-36.0624" rx="36.125" ry="36.125"/>
<text text-anchor="middle" x="1071.3289" y="-33.8624" font-family="Times,serif" font-size="9.00" fill="#000000">backward</text>
</g>
<!-- y&#45;vel&#45;&gt;backward -->
<g id="edge25" class="edge">
<title>y&#45;vel&#45;&gt;backward</title>
<path fill="none" stroke="#00ff00" stroke-width=".361" d="M1042.7714,-291.074C1051.8628,-280.4181 1065.7699,-261.9526 1071.3289,-243.1198 1087.1707,-189.4515 1083.7467,-124.4925 1078.6293,-81.8175"/>
<polygon fill="#00ff00" stroke="#00ff00" stroke-width=".361" points="1082.0802,-81.2095 1077.3388,-71.7348 1075.1368,-82.0983 1082.0802,-81.2095"/>
</g>
<!-- 1183 -->
<g id="node20" class="node">
<title>1183</title>
<ellipse fill="#ffffff" stroke="#000000" cx="1162.3289" cy="-132.8736" rx="25" ry="25"/>
<text text-anchor="middle" x="1162.3289" y="-130.6736" font-family="Times,serif" font-size="9.00" fill="#000000">1183</text>
</g>
<!-- y&#45;vel&#45;&gt;1183 -->
<g id="edge42" class="edge">
<title>y&#45;vel&#45;&gt;1183</title>
<path fill="none" stroke="#ff0000" stroke-width=".5492" d="M1046.1323,-291.1071C1064.8514,-276.4134 1099.7117,-248.7722 1104.3289,-243.1198 1123.6033,-219.5243 1139.2283,-188.5127 1149.3836,-165.3923"/>
<polygon fill="#ff0000" stroke="#ff0000" stroke-width=".5492" points="1152.6814,-166.582 1153.3957,-156.0113 1146.2453,-163.8293 1152.6814,-166.582"/>
</g>
<!-- 1444 -->
<g id="node22" class="node">
<title>1444</title>
<ellipse fill="#ffffff" stroke="#000000" cx="1181.3289" cy="-218.3711" rx="25" ry="25"/>
<text text-anchor="middle" x="1181.3289" y="-216.1711" font-family="Times,serif" font-size="9.00" fill="#000000">1444</text>
</g>
<!-- y&#45;vel&#45;&gt;1444 -->
<g id="edge46" class="edge">
<title>y&#45;vel&#45;&gt;1444</title>
<path fill="none" stroke="#ff0000" stroke-width=".4471" stroke-dasharray="1,5" d="M1044.6615,-291.2295C1049.5165,-287.2161 1055.5074,-282.6259 1061.3289,-279.1198 1095.0764,-258.7948 1107.6032,-261.7244 1142.3289,-243.1198 1145.4634,-241.4405 1148.6821,-239.6004 1151.8619,-237.7056"/>
<polygon fill="#ff0000" stroke="#ff0000" stroke-width=".4471" points="1153.9413,-240.5354 1160.6177,-232.3088 1150.2684,-234.5764 1153.9413,-240.5354"/>
</g>
<!-- 497 -->
<g id="node24" class="node">
<title>497</title>
<ellipse fill="#ffffff" stroke="#000000" cx="711.3289" cy="-218.3711" rx="21.4286" ry="21.4286"/>
<text text-anchor="middle" x="711.3289" y="-216.1711" font-family="Times,serif" font-size="9.00" fill="#000000">497</text>
</g>
<!-- y&#45;vel&#45;&gt;497 -->
<g id="edge38" class="edge">
<title>y&#45;vel&#45;&gt;497</title>
<path fill="none" stroke="#ff0000" stroke-width=".6042" d="M1016.5557,-299.8704C969.3987,-298.0249 838.1015,-288.8332 741.3289,-243.1198 739.0319,-242.0348 736.7621,-240.7341 734.561,-239.3045"/>
<polygon fill="#ff0000" stroke="#ff0000" stroke-width=".6042" points="736.6204,-236.4744 726.5009,-233.3363 732.4548,-242.1 736.6204,-236.4744"/>
</g>
<!-- 1787 -->
<g id="node26" class="node">
<title>1787</title>
<ellipse fill="#ffffff" stroke="#000000" cx="1248.3289" cy="-218.3711" rx="25" ry="25"/>
<text text-anchor="middle" x="1248.3289" y="-216.1711" font-family="Times,serif" font-size="9.00" fill="#000000">1787</text>
</g>
<!-- y&#45;vel&#45;&gt;1787 -->
<g id="edge48" class="edge">
<title>y&#45;vel&#45;&gt;1787</title>
<path fill="none" stroke="#00ff00" stroke-width=".4243" d="M1044.1292,-290.9256C1048.9676,-286.7501 1055.0957,-282.1139 1061.3289,-279.1198 1124.6884,-248.686 1151.6316,-272.84 1215.3289,-243.1198 1217.1298,-242.2796 1218.928,-241.3307 1220.703,-240.3066"/>
<polygon fill="#00ff00" stroke="#00ff00" stroke-width=".4243" points="1222.8199,-243.1047 1229.2888,-234.714 1218.9993,-237.2393 1222.8199,-243.1047"/>
</g>
<!-- x&#45;pos -->
<g id="node3" class="node">
<title>x&#45;pos</title>
<polygon fill="#d3d3d3" stroke="#000000" points="786.3289,-227.3711 750.3289,-227.3711 750.3289,-209.3711 786.3289,-209.3711 786.3289,-227.3711"/>
<text text-anchor="middle" x="768.3289" y="-216.1711" font-family="Times,serif" font-size="9.00" fill="#000000">x&#45;pos</text>
</g>
<!-- x&#45;pos&#45;&gt;right -->
<g id="edge15" class="edge">
<title>x&#45;pos&#45;&gt;right</title>
<path fill="none" stroke="#00ff00" stroke-width=".4755" stroke-dasharray="1,5" d="M758.5242,-208.9789C753.4849,-204.2565 747.1862,-198.5129 741.3289,-193.6224 724.2735,-179.3819 704.3795,-164.2692 688.6967,-152.6797"/>
<polygon fill="#00ff00" stroke="#00ff00" stroke-width=".4755" points="690.5936,-149.7303 680.4621,-146.6314 686.4498,-155.372 690.5936,-149.7303"/>
</g>
<!-- left -->
<g id="node15" class="node">
<title>left</title>
<ellipse fill="#add8e6" stroke="#000000" cx="862.3289" cy="-132.8736" rx="19.6" ry="19.6"/>
<text text-anchor="middle" x="862.3289" y="-130.6736" font-family="Times,serif" font-size="9.00" fill="#000000">left</text>
</g>
<!-- x&#45;pos&#45;&gt;left -->
<g id="edge18" class="edge">
<title>x&#45;pos&#45;&gt;left</title>
<path fill="none" stroke="#ff0000" stroke-width=".6348" stroke-dasharray="1,5" d="M778.3886,-209.2214C792.958,-195.9698 820.321,-171.0818 839.8452,-153.3236"/>
<polygon fill="#ff0000" stroke="#ff0000" stroke-width=".6348" points="842.3721,-155.7565 847.4149,-146.4387 837.6621,-150.5781 842.3721,-155.7565"/>
</g>
<!-- y&#45;pos -->
<g id="node4" class="node">
<title>y&#45;pos</title>
<polygon fill="#d3d3d3" stroke="#000000" points="66.3289,-227.3711 30.3289,-227.3711 30.3289,-209.3711 66.3289,-209.3711 66.3289,-227.3711"/>
<text text-anchor="middle" x="48.3289" y="-216.1711" font-family="Times,serif" font-size="9.00" fill="#000000">y&#45;pos</text>
</g>
<!-- y&#45;pos&#45;&gt;none -->
<g id="edge7" class="edge">
<title>y&#45;pos&#45;&gt;none</title>
<path fill="none" stroke="#ff0000" stroke-width=".3768" stroke-dasharray="1,5" d="M56.6194,-209.1788C61.633,-204.0523 68.383,-197.8651 75.3289,-193.6224 97.8902,-179.8416 165.6445,-156.6992 206.6679,-143.3082"/>
<polygon fill="#ff0000" stroke="#ff0000" stroke-width=".3768" points="207.7984,-146.6211 216.2299,-140.2055 205.6378,-139.9629 207.7984,-146.6211"/>
</g>
<!-- y&#45;pos&#45;&gt;forward -->
<g id="edge17" class="edge">
<title>y&#45;pos&#45;&gt;forward</title>
<path fill="none" stroke="#00ff00" stroke-width=".1153" stroke-dasharray="1,5" d="M57.4935,-209.2732C62.5709,-204.4148 69.1003,-198.4572 75.3289,-193.6224 130.2498,-150.991 144.3,-139.5279 206.3289,-108.1249 256.6963,-82.6256 318.3285,-61.0682 357.9482,-48.3521"/>
<polygon fill="#00ff00" stroke="#00ff00" stroke-width=".1153" points="359.0535,-51.6734 367.5265,-45.3127 356.9362,-45.0013 359.0535,-51.6734"/>
</g>
<!-- x&#45;lm1&#45;vec -->
<g id="node5" class="node">
<title>x&#45;lm1&#45;vec</title>
<polygon fill="#d3d3d3" stroke="#000000" points="650.8289,-309.333 597.8289,-309.333 597.8289,-291.333 650.8289,-291.333 650.8289,-309.333"/>
<text text-anchor="middle" x="624.3289" y="-298.133" font-family="Times,serif" font-size="9.00" fill="#000000">x&#45;lm1&#45;vec</text>
</g>
<!-- x&#45;lm1&#45;vec&#45;&gt;right -->
<g id="edge2" class="edge">
<title>x&#45;lm1&#45;vec&#45;&gt;right</title>
<path fill="none" stroke="#00ff00" stroke-width=".1356" d="M626.3182,-291.3297C631.4715,-268.006 645.4558,-204.7144 654.1107,-165.5427"/>
<polygon fill="#00ff00" stroke="#00ff00" stroke-width=".1356" points="657.5532,-166.1846 656.2932,-155.665 650.7181,-164.6743 657.5532,-166.1846"/>
</g>
<!-- x&#45;lm1&#45;vec&#45;&gt;left -->
<g id="edge22" class="edge">
<title>x&#45;lm1&#45;vec&#45;&gt;left</title>
<path fill="none" stroke="#00ff00" stroke-width=".4547" stroke-dasharray="1,5" d="M650.9141,-299.3672C717.2228,-296.344 887.0582,-284.6224 921.3289,-243.1198 935.3362,-226.1567 929.5989,-214.0076 921.3289,-193.6224 914.3468,-176.4118 899.8884,-161.394 887.0326,-150.5957"/>
<polygon fill="#00ff00" stroke="#00ff00" stroke-width=".4547" points="888.9137,-147.6196 878.9106,-144.1285 884.5533,-153.0957 888.9137,-147.6196"/>
</g>
<!-- x&#45;lm1&#45;vec&#45;&gt;forward -->
<g id="edge13" class="edge">
<title>x&#45;lm1&#45;vec&#45;&gt;forward</title>
<path fill="none" stroke="#00ff00" stroke-width=".2062" stroke-dasharray="1,5" d="M597.4514,-298.7844C482.9805,-292.0626 41.0308,-264.7796 21.3289,-243.1198 -84.3895,-126.896 238.3218,-61.8523 356.6423,-42.3681"/>
<polygon fill="#00ff00" stroke="#00ff00" stroke-width=".2062" points="357.4667,-45.7803 366.7794,-40.7283 356.3488,-38.8701 357.4667,-45.7803"/>
</g>
<!-- 37 -->
<g id="node18" class="node">
<title>37</title>
<ellipse fill="#ffffff" stroke="#000000" cx="894.3289" cy="-218.3711" rx="18.2703" ry="18.2703"/>
<text text-anchor="middle" x="894.3289" y="-216.1711" font-family="Times,serif" font-size="9.00" fill="#000000">37</text>
</g>
<!-- x&#45;lm1&#45;vec&#45;&gt;37 -->
<g id="edge27" class="edge">
<title>x&#45;lm1&#45;vec&#45;&gt;37</title>
<path fill="none" stroke="#00ff00" stroke-width=".1768" stroke-dasharray="1,5" d="M651.0401,-298.4655C697.4968,-294.2854 795.113,-281.3221 867.3289,-243.1198 869.6404,-241.897 871.9061,-240.4284 874.0809,-238.8245"/>
<polygon fill="#00ff00" stroke="#00ff00" stroke-width=".1768" points="876.5413,-241.3279 881.9239,-232.2022 872.0253,-235.9795 876.5413,-241.3279"/>
</g>
<!-- x&#45;lm1&#45;vec&#45;&gt;74 -->
<g id="edge29" class="edge">
<title>x&#45;lm1&#45;vec&#45;&gt;74</title>
<path fill="none" stroke="#00ff00" stroke-width=".5746" stroke-dasharray="1,5" d="M597.5674,-298.7856C516.3812,-293.7676 274.1195,-276.3167 203.3289,-243.1198 200.9613,-242.0095 198.6576,-240.6173 196.4583,-239.0623"/>
<polygon fill="#00ff00" stroke="#00ff00" stroke-width=".5746" points="198.5067,-236.2137 188.5799,-232.5111 194.0311,-241.596 198.5067,-236.2137"/>
</g>
<!-- y&#45;lm1&#45;vec -->
<g id="node6" class="node">
<title>y&#45;lm1&#45;vec</title>
<polygon fill="#d3d3d3" stroke="#000000" points="371.8289,-227.3711 318.8289,-227.3711 318.8289,-209.3711 371.8289,-209.3711 371.8289,-227.3711"/>
<text text-anchor="middle" x="345.3289" y="-216.1711" font-family="Times,serif" font-size="9.00" fill="#000000">y&#45;lm1&#45;vec</text>
</g>
<!-- y&#45;lm1&#45;vec&#45;&gt;none -->
<g id="edge10" class="edge">
<title>y&#45;lm1&#45;vec&#45;&gt;none</title>
<path fill="none" stroke="#00ff00" stroke-width=".1172" stroke-dasharray="1,5" d="M333.9851,-209.2214C317.8833,-196.234 287.9241,-172.0695 266.01,-154.3941"/>
<polygon fill="#00ff00" stroke="#00ff00" stroke-width=".1172" points="268.0318,-151.5282 258.0508,-147.9743 263.6371,-156.9768 268.0318,-151.5282"/>
</g>
<!-- y&#45;lm1&#45;vec&#45;&gt;right -->
<g id="edge36" class="edge">
<title>y&#45;lm1&#45;vec&#45;&gt;right</title>
<path fill="none" stroke="#ff0000" stroke-width=".4264" stroke-dasharray="1,5" d="M356.3296,-209.1296C363.1363,-203.855 372.2783,-197.5341 381.3289,-193.6224 465.657,-157.1755 574.0419,-141.6989 627.8826,-135.9047"/>
<polygon fill="#ff0000" stroke="#ff0000" stroke-width=".4264" points="628.312,-139.379 637.9002,-134.8716 627.5939,-132.416 628.312,-139.379"/>
</g>
<!-- y&#45;lm1&#45;vec&#45;&gt;forward -->
<g id="edge26" class="edge">
<title>y&#45;lm1&#45;vec&#45;&gt;forward</title>
<path fill="none" stroke="#ff0000" stroke-width=".4324" stroke-dasharray="1,5" d="M338.0682,-209.1928C323.7241,-189.8694 294.5394,-143.8328 311.3289,-108.1249 321.7031,-86.0611 342.5168,-68.4329 361.1851,-56.1352"/>
<polygon fill="#ff0000" stroke="#ff0000" stroke-width=".4324" points="363.2366,-58.9799 369.8431,-50.6971 359.5134,-53.0521 363.2366,-58.9799"/>
</g>
<!-- 218 -->
<g id="node25" class="node">
<title>218</title>
<ellipse fill="#ffffff" stroke="#000000" cx="447.3289" cy="-132.8736" rx="21.4286" ry="21.4286"/>
<text text-anchor="middle" x="447.3289" y="-130.6736" font-family="Times,serif" font-size="9.00" fill="#000000">218</text>
</g>
<!-- y&#45;lm1&#45;vec&#45;&gt;218 -->
<g id="edge33" class="edge">
<title>y&#45;lm1&#45;vec&#45;&gt;218</title>
<path fill="none" stroke="#ff0000" stroke-width=".1413" d="M356.2447,-209.2214C372.0336,-195.987 401.669,-171.1463 422.8494,-153.3927"/>
<polygon fill="#ff0000" stroke="#ff0000" stroke-width=".1413" points="425.3694,-155.8472 430.7849,-146.741 420.8727,-150.4826 425.3694,-155.8472"/>
</g>
<!-- x&#45;lm2&#45;vec -->
<g id="node7" class="node">
<title>x&#45;lm2&#45;vec</title>
<polygon fill="#d3d3d3" stroke="#000000" points="857.8289,-227.3711 804.8289,-227.3711 804.8289,-209.3711 857.8289,-209.3711 857.8289,-227.3711"/>
<text text-anchor="middle" x="831.3289" y="-216.1711" font-family="Times,serif" font-size="9.00" fill="#000000">x&#45;lm2&#45;vec</text>
</g>
<!-- x&#45;lm2&#45;vec&#45;&gt;right -->
<g id="edge12" class="edge">
<title>x&#45;lm2&#45;vec&#45;&gt;right</title>
<path fill="none" stroke="#00ff00" stroke-width="1.9709" d="M819.345,-209.3413C812.5017,-204.3892 803.6507,-198.3205 795.3289,-193.6224 761.4535,-174.4978 720.4588,-156.628 692.8045,-145.2885"/>
<polygon fill="#00ff00" stroke="#00ff00" stroke-width="1.9709" points="693.8399,-141.9315 683.2576,-141.416 691.2087,-148.4182 693.8399,-141.9315"/>
</g>
<!-- x&#45;lm2&#45;vec&#45;&gt;left -->
<g id="edge16" class="edge">
<title>x&#45;lm2&#45;vec&#45;&gt;left</title>
<path fill="none" stroke="#ff0000" stroke-width="1.6183" d="M834.6465,-209.2214C838.7597,-197.877 845.9651,-178.0047 851.9936,-161.3782"/>
<polygon fill="#ff0000" stroke="#ff0000" stroke-width="1.6183" points="855.4386,-162.1447 855.557,-151.5506 848.8578,-159.7586 855.4386,-162.1447"/>
</g>
<!-- y&#45;lm2&#45;vec -->
<g id="node8" class="node">
<title>y&#45;lm2&#45;vec</title>
<polygon fill="#d3d3d3" stroke="#000000" points="519.8289,-227.3711 466.8289,-227.3711 466.8289,-209.3711 519.8289,-209.3711 519.8289,-227.3711"/>
<text text-anchor="middle" x="493.3289" y="-216.1711" font-family="Times,serif" font-size="9.00" fill="#000000">y&#45;lm2&#45;vec</text>
</g>
<!-- y&#45;lm2&#45;vec&#45;&gt;none -->
<g id="edge8" class="edge">
<title>y&#45;lm2&#45;vec&#45;&gt;none</title>
<path fill="none" stroke="#ff0000" stroke-width=".3842" stroke-dasharray="1,5" d="M482.2877,-209.2217C475.4666,-203.9798 466.3237,-197.6609 457.3289,-193.6224 396.3598,-166.2483 375.4387,-176.5036 311.3289,-157.6224 298.2226,-153.7624 283.9617,-148.9846 271.6155,-144.6595"/>
<polygon fill="#ff0000" stroke="#ff0000" stroke-width=".3842" points="272.7779,-141.3582 262.1831,-141.3141 270.4379,-147.9555 272.7779,-141.3582"/>
</g>
<!-- y&#45;lm2&#45;vec&#45;&gt;right -->
<g id="edge11" class="edge">
<title>y&#45;lm2&#45;vec&#45;&gt;right</title>
<path fill="none" stroke="#ff0000" stroke-width=".1104" stroke-dasharray="1,5" d="M505.3232,-209.3596C512.1697,-204.4132 521.0205,-198.3441 529.3289,-193.6224 562.5363,-174.7503 602.6363,-156.952 629.8602,-145.5585"/>
<polygon fill="#ff0000" stroke="#ff0000" stroke-width=".1104" points="631.3715,-148.721 639.2709,-141.6606 628.6927,-142.2538 631.3715,-148.721"/>
</g>
<!-- y&#45;lm2&#45;vec&#45;&gt;forward -->
<g id="edge1" class="edge">
<title>y&#45;lm2&#45;vec&#45;&gt;forward</title>
<path fill="none" stroke="#00ff00" stroke-width="2.5186" d="M494.0005,-209.1678C495.0314,-189.4037 495.2736,-141.9543 477.3289,-108.1249 467.0319,-88.7129 449.3677,-71.846 433.3506,-59.3206"/>
<polygon fill="#00ff00" stroke="#00ff00" stroke-width="2.5186" points="435.2697,-56.3847 425.1725,-53.1759 431.0648,-61.9811 435.2697,-56.3847"/>
</g>
<!-- y&#45;lm2&#45;vec&#45;&gt;backward -->
<g id="edge4" class="edge">
<title>y&#45;lm2&#45;vec&#45;&gt;backward</title>
<path fill="none" stroke="#ff0000" stroke-width="2.7738" d="M501.4513,-209.0768C521.0169,-187.3612 573.3034,-133.2387 629.3289,-108.1249 699.7501,-76.5581 926.7427,-50.6152 1025.1319,-40.5561"/>
<polygon fill="#ff0000" stroke="#ff0000" stroke-width="2.7738" points="1025.7645,-44.0101 1035.361,-39.5203 1025.0592,-37.0457 1025.7645,-44.0101"/>
</g>
<!-- y&#45;lm2&#45;vec&#45;&gt;218 -->
<g id="edge41" class="edge">
<title>y&#45;lm2&#45;vec&#45;&gt;218</title>
<path fill="none" stroke="#ff0000" stroke-width=".4203" stroke-dasharray="1,5" d="M488.4061,-209.2214C482.2265,-197.7357 471.3435,-177.5082 462.3316,-160.7582"/>
<polygon fill="#ff0000" stroke="#ff0000" stroke-width=".4203" points="465.3795,-159.0361 457.5592,-151.8881 459.2151,-162.3528 465.3795,-159.0361"/>
</g>
<!-- x&#45;other&#45;vec -->
<g id="node9" class="node">
<title>x&#45;other&#45;vec</title>
<polygon fill="#d3d3d3" stroke="#000000" points="596.3289,-227.3711 538.3289,-227.3711 538.3289,-209.3711 596.3289,-209.3711 596.3289,-227.3711"/>
<text text-anchor="middle" x="567.3289" y="-216.1711" font-family="Times,serif" font-size="9.00" fill="#000000">x&#45;other&#45;vec</text>
</g>
<!-- x&#45;other&#45;vec&#45;&gt;right -->
<g id="edge20" class="edge">
<title>x&#45;other&#45;vec&#45;&gt;right</title>
<path fill="none" stroke="#ff0000" stroke-width=".1677" stroke-dasharray="1,5" d="M577.3886,-209.2214C591.3752,-196.4999 617.1524,-173.0542 636.466,-155.4876"/>
<polygon fill="#ff0000" stroke="#ff0000" stroke-width=".1677" points="638.9904,-157.9228 644.0331,-148.605 634.2804,-152.7444 638.9904,-157.9228"/>
</g>
<!-- x&#45;other&#45;vec&#45;&gt;forward -->
<g id="edge9" class="edge">
<title>x&#45;other&#45;vec&#45;&gt;forward</title>
<path fill="none" stroke="#00ff00" stroke-width=".3836" stroke-dasharray="1,5" d="M563.1589,-209.2854C553.7031,-189.3451 529.049,-140.9165 498.3289,-108.1249 479.7222,-88.2635 454.9223,-70.3508 434.6751,-57.3524"/>
<polygon fill="#00ff00" stroke="#00ff00" stroke-width=".3836" points="436.3497,-54.2711 426.0203,-51.9144 432.6255,-60.1982 436.3497,-54.2711"/>
</g>
<!-- y&#45;other&#45;vec -->
<g id="node10" class="node">
<title>y&#45;other&#45;vec</title>
<polygon fill="#d3d3d3" stroke="#000000" points="448.3289,-227.3711 390.3289,-227.3711 390.3289,-209.3711 448.3289,-209.3711 448.3289,-227.3711"/>
<text text-anchor="middle" x="419.3289" y="-216.1711" font-family="Times,serif" font-size="9.00" fill="#000000">y&#45;other&#45;vec</text>
</g>
<!-- y&#45;other&#45;vec&#45;&gt;none -->
<g id="edge21" class="edge">
<title>y&#45;other&#45;vec&#45;&gt;none</title>
<path fill="none" stroke="#ff0000" stroke-width=".5167" d="M406.6522,-209.3236C399.4203,-204.366 390.0781,-198.2976 381.3289,-193.6224 344.9423,-174.1786 301.0006,-156.1633 271.7286,-144.8828"/>
<polygon fill="#ff0000" stroke="#ff0000" stroke-width=".5167" points="272.6138,-141.4746 262.023,-141.1823 270.12,-148.0153 272.6138,-141.4746"/>
</g>
<!-- y&#45;other&#45;vec&#45;&gt;right -->
<g id="edge37" class="edge">
<title>y&#45;other&#45;vec&#45;&gt;right</title>
<path fill="none" stroke="#00ff00" stroke-width=".2634" d="M431.8254,-209.1928C439.2409,-204.0709 448.9909,-197.8837 458.3289,-193.6224 515.7471,-167.4199 587.3795,-149.0535 628.3854,-139.7886"/>
<polygon fill="#00ff00" stroke="#00ff00" stroke-width=".2634" points="629.362,-143.1571 638.3681,-137.5768 627.8477,-136.3229 629.362,-143.1571"/>
</g>
<!-- y&#45;other&#45;vec&#45;&gt;forward -->
<g id="edge14" class="edge">
<title>y&#45;other&#45;vec&#45;&gt;forward</title>
<path fill="none" stroke="#00ff00" stroke-width=".3909" stroke-dasharray="1,5" d="M418.2586,-209.0798C415.5194,-185.2998 408.1214,-121.0745 403.1509,-77.9242"/>
<polygon fill="#00ff00" stroke="#00ff00" stroke-width=".3909" points="406.6274,-77.5182 402.006,-67.9844 399.6734,-78.3193 406.6274,-77.5182"/>
</g>
<!-- 164 -->
<g id="node19" class="node">
<title>164</title>
<ellipse fill="#ffffff" stroke="#000000" cx="682.3289" cy="-36.0624" rx="21.4286" ry="21.4286"/>
<text text-anchor="middle" x="682.3289" y="-33.8624" font-family="Times,serif" font-size="9.00" fill="#000000">164</text>
</g>
<!-- y&#45;other&#45;vec&#45;&gt;164 -->
<g id="edge32" class="edge">
<title>y&#45;other&#45;vec&#45;&gt;164</title>
<path fill="none" stroke="#ff0000" stroke-width=".5462" stroke-dasharray="1,5" d="M429.7418,-209.2494C452.3474,-189.6438 507.9435,-142.484 558.3289,-108.1249 590.0682,-86.481 628.5909,-64.7506 654.1915,-50.8997"/>
<polygon fill="#ff0000" stroke="#ff0000" stroke-width=".5462" points="656.1745,-53.8077 663.3294,-45.9937 652.8633,-47.6403 656.1745,-53.8077"/>
</g>
<!-- 1821 -->
<g id="node27" class="node">
<title>1821</title>
<ellipse fill="#ffffff" stroke="#000000" cx="345.3289" cy="-132.8736" rx="25" ry="25"/>
<text text-anchor="middle" x="345.3289" y="-130.6736" font-family="Times,serif" font-size="9.00" fill="#000000">1821</text>
</g>
<!-- y&#45;other&#45;vec&#45;&gt;1821 -->
<g id="edge50" class="edge">
<title>y&#45;other&#45;vec&#45;&gt;1821</title>
<path fill="none" stroke="#00ff00" stroke-width=".2462" d="M411.4096,-209.2214C401.2844,-197.523 383.3101,-176.756 368.6614,-159.8314"/>
<polygon fill="#00ff00" stroke="#00ff00" stroke-width=".2462" points="370.9772,-157.1588 361.7864,-151.8881 365.6843,-161.7398 370.9772,-157.1588"/>
</g>
<!-- x&#45;other&#45;vel -->
<g id="node11" class="node">
<title>x&#45;other&#45;vel</title>
<polygon fill="#d3d3d3" stroke="#000000" points="1062.3289,-227.3711 1006.3289,-227.3711 1006.3289,-209.3711 1062.3289,-209.3711 1062.3289,-227.3711"/>
<text text-anchor="middle" x="1034.3289" y="-216.1711" font-family="Times,serif" font-size="9.00" fill="#000000">x&#45;other&#45;vel</text>
</g>
<!-- x&#45;other&#45;vel&#45;&gt;left -->
<g id="edge23" class="edge">
<title>x&#45;other&#45;vel&#45;&gt;left</title>
<path fill="none" stroke="#00ff00" stroke-width=".4887" stroke-dasharray="1,5" d="M1015.9219,-209.2214C985.5033,-194.1009 924.6067,-163.8305 889.3162,-146.2884"/>
<polygon fill="#00ff00" stroke="#00ff00" stroke-width=".4887" points="890.6008,-143.0184 880.0881,-141.7013 887.4849,-149.2867 890.6008,-143.0184"/>
</g>
<!-- x&#45;other&#45;vel&#45;&gt;backward -->
<g id="edge6" class="edge">
<title>x&#45;other&#45;vel&#45;&gt;backward</title>
<path fill="none" stroke="#ff0000" stroke-width=".6855" stroke-dasharray="1,5" d="M1036.2146,-209.0798C1040.9045,-185.9715 1053.3456,-124.6707 1062.0808,-81.6301"/>
<polygon fill="#ff0000" stroke="#ff0000" stroke-width=".6855" points="1065.5454,-82.1561 1064.1044,-71.6597 1058.6852,-80.7638 1065.5454,-82.1561"/>
</g>
<!-- x&#45;other&#45;vel&#45;&gt;164 -->
<g id="edge40" class="edge">
<title>x&#45;other&#45;vel&#45;&gt;164</title>
<path fill="none" stroke="#00ff00" stroke-width=".2617" stroke-dasharray="1,5" d="M1033.4939,-209.3484C1031.0373,-188.2197 1021.886,-135.2737 990.3289,-108.1249 948.5534,-72.1851 782.9783,-48.3064 713.3908,-39.6667"/>
<polygon fill="#00ff00" stroke="#00ff00" stroke-width=".2617" points="713.8125,-36.1923 703.4626,-38.4571 712.9658,-43.1409 713.8125,-36.1923"/>
</g>
<!-- y&#45;other&#45;vel -->
<g id="node12" class="node">
<title>y&#45;other&#45;vel</title>
<polygon fill="#d3d3d3" stroke="#000000" points="140.3289,-227.3711 84.3289,-227.3711 84.3289,-209.3711 140.3289,-209.3711 140.3289,-227.3711"/>
<text text-anchor="middle" x="112.3289" y="-216.1711" font-family="Times,serif" font-size="9.00" fill="#000000">y&#45;other&#45;vel</text>
</g>
<!-- y&#45;other&#45;vel&#45;&gt;none -->
<g id="edge5" class="edge">
<title>y&#45;other&#45;vel&#45;&gt;none</title>
<path fill="none" stroke="#00ff00" stroke-width=".1095" d="M125.9201,-209.2214C146.0418,-195.6753 184.2252,-169.9699 210.6946,-152.1505"/>
<polygon fill="#00ff00" stroke="#00ff00" stroke-width=".1095" points="212.8383,-154.9266 219.1791,-146.4387 208.9291,-149.1198 212.8383,-154.9266"/>
</g>
<!-- left&#45;&gt;164 -->
<g id="edge45" class="edge">
<title>left&#45;&gt;164</title>
<path fill="none" stroke="#ff0000" stroke-width=".7371" d="M844.742,-123.4147C813.3448,-106.528 747.4318,-71.0774 709.9437,-50.9148"/>
<polygon fill="#ff0000" stroke="#ff0000" stroke-width=".7371" points="711.5284,-47.793 701.0635,-46.1387 708.2127,-53.9579 711.5284,-47.793"/>
</g>
<!-- 37&#45;&gt;left -->
<g id="edge28" class="edge">
<title>37&#45;&gt;left</title>
<path fill="none" stroke="#00ff00" stroke-width=".4453" stroke-dasharray="1,5" d="M887.8532,-201.0694C883.5746,-189.6379 877.8674,-174.3892 872.9347,-161.2102"/>
<polygon fill="#00ff00" stroke="#00ff00" stroke-width=".4453" points="876.1335,-159.7717 869.3502,-151.6331 869.5777,-162.2255 876.1335,-159.7717"/>
</g>
<!-- 1183&#45;&gt;backward -->
<g id="edge43" class="edge">
<title>1183&#45;&gt;backward</title>
<path fill="none" stroke="#ff0000" stroke-width=".221" stroke-dasharray="1,5" d="M1145.2125,-114.6642C1133.4626,-102.1639 1117.508,-85.1905 1103.4316,-70.2152"/>
<polygon fill="#ff0000" stroke="#ff0000" stroke-width=".221" points="1105.6733,-67.4898 1096.274,-62.6005 1100.5728,-72.2841 1105.6733,-67.4898"/>
</g>
<!-- 1255 -->
<g id="node21" class="node">
<title>1255</title>
<ellipse fill="#ffffff" stroke="#000000" cx="237.3289" cy="-218.3711" rx="25" ry="25"/>
<text text-anchor="middle" x="237.3289" y="-216.1711" font-family="Times,serif" font-size="9.00" fill="#000000">1255</text>
</g>
<!-- 1255&#45;&gt;none -->
<g id="edge44" class="edge">
<title>1255&#45;&gt;none</title>
<path fill="none" stroke="#00ff00" stroke-width=".5435" d="M237.9182,-193.1815C238.1082,-185.0571 238.3222,-175.9087 238.525,-167.239"/>
<polygon fill="#00ff00" stroke="#00ff00" stroke-width=".5435" points="242.0296,-167.0816 238.7645,-157.0024 235.0315,-166.9178 242.0296,-167.0816"/>
</g>
<!-- 1444&#45;&gt;1183 -->
<g id="edge47" class="edge">
<title>1444&#45;&gt;1183</title>
<path fill="none" stroke="#00ff00" stroke-width=".1836" d="M1175.9351,-194.0997C1174.0698,-185.7062 1171.943,-176.1359 1169.9341,-167.0959"/>
<polygon fill="#00ff00" stroke="#00ff00" stroke-width=".1836" points="1173.3223,-166.2083 1167.7362,-157.2058 1166.489,-167.7269 1173.3223,-166.2083"/>
</g>
<!-- 74&#45;&gt;none -->
<g id="edge30" class="edge">
<title>74&#45;&gt;none</title>
<path fill="none" stroke="#00ff00" stroke-width=".8107" stroke-dasharray="1,5" d="M187.3027,-203.4786C196.0258,-191.6404 208.4686,-174.7543 218.9985,-160.4641"/>
<polygon fill="#00ff00" stroke="#00ff00" stroke-width=".8107" points="221.8202,-162.5348 224.9347,-152.4081 216.1849,-158.3823 221.8202,-162.5348"/>
</g>
<!-- 497&#45;&gt;right -->
<g id="edge39" class="edge">
<title>497&#45;&gt;right</title>
<path fill="none" stroke="#ff0000" stroke-width=".3869" stroke-dasharray="1,5" d="M700.4797,-199.8194C694.0083,-188.7538 685.6508,-174.4629 678.3204,-161.9283"/>
<polygon fill="#ff0000" stroke="#ff0000" stroke-width=".3869" points="681.2755,-160.0481 673.2059,-153.1828 675.2329,-163.5819 681.2755,-160.0481"/>
</g>
<!-- 218&#45;&gt;forward -->
<g id="edge34" class="edge">
<title>218&#45;&gt;forward</title>
<path fill="none" stroke="#ff0000" stroke-width=".6858" stroke-dasharray="1,5" d="M437.6481,-113.7469C431.8921,-102.3746 424.3881,-87.5487 417.4805,-73.9009"/>
<polygon fill="#ff0000" stroke="#ff0000" stroke-width=".6858" points="420.4611,-72.0393 412.8223,-64.6977 414.2155,-75.2005 420.4611,-72.0393"/>
</g>
<!-- 218&#45;&gt;164 -->
<g id="edge35" class="edge">
<title>218&#45;&gt;164</title>
<path fill="none" stroke="#00ff00" stroke-width=".5312" d="M466.9607,-124.7861C508.3448,-107.7374 604.7103,-68.0384 653.2665,-48.0351"/>
<polygon fill="#00ff00" stroke="#00ff00" stroke-width=".5312" points="654.6748,-51.2403 662.5878,-44.1951 652.0084,-44.768 654.6748,-51.2403"/>
</g>
<!-- 1787&#45;&gt;1183 -->
<g id="edge49" class="edge">
<title>1787&#45;&gt;1183</title>
<path fill="none" stroke="#00ff00" stroke-width=".4108" d="M1230.5097,-200.656C1218.0561,-188.2752 1201.2518,-171.5691 1187.4424,-157.8404"/>
<polygon fill="#00ff00" stroke="#00ff00" stroke-width=".4108" points="1189.6847,-155.1343 1180.1253,-150.5661 1184.7495,-160.0985 1189.6847,-155.1343"/>
</g>
<!-- 1821&#45;&gt;forward -->
<g id="edge51" class="edge">
<title>1821&#45;&gt;forward</title>
<path fill="none" stroke="#00ff00" stroke-width=".2288" d="M357.3554,-110.9057C363.4504,-99.7725 371.0188,-85.9479 377.9861,-73.2212"/>
<polygon fill="#00ff00" stroke="#00ff00" stroke-width=".2288" points="381.1914,-74.6547 382.9235,-64.2024 375.0513,-71.2933 381.1914,-74.6547"/>
</g>
<!-- 922 -->
<g id="node28" class="node">
<title>922</title>
<ellipse fill="#ffffff" stroke="#000000" cx="1091.3289" cy="-300.333" rx="21.4286" ry="21.4286"/>
<text text-anchor="middle" x="1091.3289" y="-298.133" font-family="Times,serif" font-size="9.00" fill="#000000">922</text>
</g>
</g>
</svg>
