<?xml version="1.0" encoding="UTF-8" standalone="no"?>
<!DOCTYPE svg PUBLIC "-//W3C//DTD SVG 1.1//EN"
 "http://www.w3.org/Graphics/SVG/1.1/DTD/svg11.dtd">
<!-- Generated by graphviz version 2.40.1 (20161225.0304)
 -->
<!-- Title: %3 Pages: 1 -->
<svg width="796pt" height="213pt"
 viewBox="0.00 0.00 796.21 212.55" xmlns="http://www.w3.org/2000/svg" xmlns:xlink="http://www.w3.org/1999/xlink">
<g id="graph0" class="graph" transform="scale(1 1) rotate(0) translate(4 208.5513)">
<title>%3</title>
<polygon fill="#ffffff" stroke="transparent" points="-4,4 -4,-208.5513 792.2132,-208.5513 792.2132,4 -4,4"/>
<!-- x&#45;vel -->
<g id="node1" class="node">
<title>x&#45;vel</title>
<polygon fill="#d3d3d3" stroke="#000000" points="566.7132,-138.3381 531.7132,-138.3381 531.7132,-120.3381 566.7132,-120.3381 566.7132,-138.3381"/>
<text text-anchor="middle" x="549.2132" y="-127.1381" font-family="Times,serif" font-size="9.00" fill="#000000">x&#45;vel</text>
</g>
<!-- left -->
<g id="node15" class="node">
<title>left</title>
<ellipse fill="#add8e6" stroke="#000000" cx="288.2132" cy="-36.0624" rx="19.6" ry="19.6"/>
<text text-anchor="middle" x="288.2132" y="-33.8624" font-family="Times,serif" font-size="9.00" fill="#000000">left</text>
</g>
<!-- x&#45;vel&#45;&gt;left -->
<g id="edge2" class="edge">
<title>x&#45;vel&#45;&gt;left</title>
<path fill="none" stroke="#00ff00" stroke-width=".4248" d="M539.9734,-120.2217C535.0782,-115.9022 528.7378,-111.0578 522.2132,-108.1249 440.235,-71.2739 402.5318,-114.3977 323.2132,-72.1249 317.352,-69.0011 311.8817,-64.5464 307.0881,-59.8283"/>
<polygon fill="#00ff00" stroke="#00ff00" stroke-width=".4248" points="309.5198,-57.3032 300.1535,-52.3511 304.3873,-62.0633 309.5198,-57.3032"/>
</g>
<!-- backward -->
<g id="node17" class="node">
<title>backward</title>
<ellipse fill="#add8e6" stroke="#000000" cx="580.2132" cy="-36.0624" rx="36.125" ry="36.125"/>
<text text-anchor="middle" x="580.2132" y="-33.8624" font-family="Times,serif" font-size="9.00" fill="#000000">backward</text>
</g>
<!-- x&#45;vel&#45;&gt;backward -->
<g id="edge6" class="edge">
<title>x&#45;vel&#45;&gt;backward</title>
<path fill="none" stroke="#ff0000" stroke-width=".2136" stroke-dasharray="1,5" d="M552.2989,-120.0535C555.4396,-110.6035 560.5428,-95.2486 565.5324,-80.2354"/>
<polygon fill="#ff0000" stroke="#ff0000" stroke-width=".2136" points="568.9406,-81.0778 568.7731,-70.4843 562.2978,-78.8701 568.9406,-81.0778"/>
</g>
<!-- y&#45;vel -->
<g id="node2" class="node">
<title>y&#45;vel</title>
<polygon fill="#d3d3d3" stroke="#000000" points="438.7132,-138.3381 403.7132,-138.3381 403.7132,-120.3381 438.7132,-120.3381 438.7132,-138.3381"/>
<text text-anchor="middle" x="421.2132" y="-127.1381" font-family="Times,serif" font-size="9.00" fill="#000000">y&#45;vel</text>
</g>
<!-- right -->
<g id="node14" class="node">
<title>right</title>
<ellipse fill="#add8e6" stroke="#000000" cx="424.2132" cy="-36.0624" rx="23.1702" ry="23.1702"/>
<text text-anchor="middle" x="424.2132" y="-33.8624" font-family="Times,serif" font-size="9.00" fill="#000000">right</text>
</g>
<!-- y&#45;vel&#45;&gt;right -->
<g id="edge19" class="edge">
<title>y&#45;vel&#45;&gt;right</title>
<path fill="none" stroke="#00ff00" stroke-width=".3389" stroke-dasharray="1,5" d="M421.5118,-120.0535C421.8885,-108.3434 422.5567,-87.5663 423.1343,-69.6076"/>
<polygon fill="#00ff00" stroke="#00ff00" stroke-width=".3389" points="426.6377,-69.5567 423.461,-59.4494 419.6413,-69.3317 426.6377,-69.5567"/>
</g>
<!-- forward -->
<g id="node16" class="node">
<title>forward</title>
<ellipse fill="#add8e6" stroke="#000000" cx="217.2132" cy="-36.0624" rx="31.6406" ry="31.6406"/>
<text text-anchor="middle" x="217.2132" y="-33.8624" font-family="Times,serif" font-size="9.00" fill="#000000">forward</text>
</g>
<!-- y&#45;vel&#45;&gt;forward -->
<g id="edge22" class="edge">
<title>y&#45;vel&#45;&gt;forward</title>
<path fill="none" stroke="#ff0000" stroke-width=".8085" d="M411.7919,-119.9987C407.1362,-115.8382 401.2334,-111.1948 395.2132,-108.1249 339.5111,-79.7205 314.554,-101.2268 259.2132,-72.1249 255.3854,-70.112 251.6055,-67.6924 247.975,-65.0714"/>
<polygon fill="#ff0000" stroke="#ff0000" stroke-width=".8085" points="249.8536,-62.097 239.8227,-58.6865 245.5374,-67.608 249.8536,-62.097"/>
</g>
<!-- y&#45;vel&#45;&gt;backward -->
<g id="edge18" class="edge">
<title>y&#45;vel&#45;&gt;backward</title>
<path fill="none" stroke="#00ff00" stroke-width=".2936" d="M431.94,-120.2412C436.7741,-116.3193 442.6389,-111.7996 448.2132,-108.1249 477.3654,-88.9073 512.0818,-70.1025 538.5935,-56.5237"/>
<polygon fill="#00ff00" stroke="#00ff00" stroke-width=".2936" points="540.2751,-59.5952 547.6063,-51.9465 537.1054,-53.354 540.2751,-59.5952"/>
</g>
<!-- x&#45;pos -->
<g id="node3" class="node">
<title>x&#45;pos</title>
<polygon fill="#d3d3d3" stroke="#000000" points="88.2132,-204.5513 52.2132,-204.5513 52.2132,-186.5513 88.2132,-186.5513 88.2132,-204.5513"/>
<text text-anchor="middle" x="70.2132" y="-193.3513" font-family="Times,serif" font-size="9.00" fill="#000000">x&#45;pos</text>
</g>
<!-- x&#45;pos&#45;&gt;left -->
<g id="edge14" class="edge">
<title>x&#45;pos&#45;&gt;left</title>
<path fill="none" stroke="#00ff00" stroke-width=".2783" d="M87.926,-186.4368C103.2964,-178.1185 125.7591,-164.955 143.2132,-150.5513 162.9678,-134.2493 161.592,-123.3159 182.2132,-108.1249 212.3052,-85.9571 228.6785,-95.03 258.2132,-72.1249 262.527,-68.7794 266.6385,-64.7134 270.358,-60.5336"/>
<polygon fill="#00ff00" stroke="#00ff00" stroke-width=".2783" points="273.3104,-62.455 276.9775,-52.5151 267.9121,-57.9987 273.3104,-62.455"/>
</g>
<!-- x&#45;pos&#45;&gt;forward -->
<g id="edge13" class="edge">
<title>x&#45;pos&#45;&gt;forward</title>
<path fill="none" stroke="#ff0000" stroke-width=".4708" d="M69.8605,-186.3893C69.6685,-169.2978 71.4988,-132.1161 89.2132,-108.1249 110.9205,-78.726 148.4333,-59.6602 177.255,-48.571"/>
<polygon fill="#ff0000" stroke="#ff0000" stroke-width=".4708" points="178.4829,-51.8487 186.6607,-45.1127 176.0672,-45.2787 178.4829,-51.8487"/>
</g>
<!-- 206 -->
<g id="node18" class="node">
<title>206</title>
<ellipse fill="#ffffff" stroke="#000000" cx="21.2132" cy="-129.3381" rx="21.4286" ry="21.4286"/>
<text text-anchor="middle" x="21.2132" y="-127.1381" font-family="Times,serif" font-size="9.00" fill="#000000">206</text>
</g>
<!-- x&#45;pos&#45;&gt;206 -->
<g id="edge29" class="edge">
<title>x&#45;pos&#45;&gt;206</title>
<path fill="none" stroke="#00ff00" stroke-width=".2149" d="M63.4,-186.3446C57.3649,-178.1895 48.264,-165.8915 40.0582,-154.8032"/>
<polygon fill="#00ff00" stroke="#00ff00" stroke-width=".2149" points="42.7854,-152.6046 34.0234,-146.6483 37.1586,-156.7687 42.7854,-152.6046"/>
</g>
<!-- y&#45;pos -->
<g id="node4" class="node">
<title>y&#45;pos</title>
<polygon fill="#d3d3d3" stroke="#000000" points="134.2132,-138.3381 98.2132,-138.3381 98.2132,-120.3381 134.2132,-120.3381 134.2132,-138.3381"/>
<text text-anchor="middle" x="116.2132" y="-127.1381" font-family="Times,serif" font-size="9.00" fill="#000000">y&#45;pos</text>
</g>
<!-- y&#45;pos&#45;&gt;left -->
<g id="edge26" class="edge">
<title>y&#45;pos&#45;&gt;left</title>
<path fill="none" stroke="#00ff00" stroke-width=".4398" d="M128.2126,-120.267C134.0312,-116.1652 141.2539,-111.4939 148.2132,-108.1249 194.5138,-85.711 215.659,-101.0258 258.2132,-72.1249 262.7292,-69.0578 266.9371,-65.1245 270.6885,-60.9888"/>
<polygon fill="#00ff00" stroke="#00ff00" stroke-width=".4398" points="273.6448,-62.9048 277.3013,-52.9609 268.2418,-58.4542 273.6448,-62.9048"/>
</g>
<!-- x&#45;lm1&#45;vec -->
<g id="node5" class="node">
<title>x&#45;lm1&#45;vec</title>
<polygon fill="#d3d3d3" stroke="#000000" points="637.7132,-138.3381 584.7132,-138.3381 584.7132,-120.3381 637.7132,-120.3381 637.7132,-138.3381"/>
<text text-anchor="middle" x="611.2132" y="-127.1381" font-family="Times,serif" font-size="9.00" fill="#000000">x&#45;lm1&#45;vec</text>
</g>
<!-- none -->
<g id="node13" class="node">
<title>none</title>
<ellipse fill="#add8e6" stroke="#000000" cx="356.2132" cy="-36.0624" rx="24.0833" ry="24.0833"/>
<text text-anchor="middle" x="356.2132" y="-33.8624" font-family="Times,serif" font-size="9.00" fill="#000000">none</text>
</g>
<!-- x&#45;lm1&#45;vec&#45;&gt;none -->
<g id="edge15" class="edge">
<title>x&#45;lm1&#45;vec&#45;&gt;none</title>
<path fill="none" stroke="#00ff00" stroke-width=".2229" d="M598.4836,-120.1277C592.0801,-115.8927 584.033,-111.1493 576.2132,-108.1249 498.4953,-78.066 465.7468,-111.3221 392.2132,-72.1249 387.456,-69.5891 382.9238,-66.2171 378.779,-62.5508"/>
<polygon fill="#00ff00" stroke="#00ff00" stroke-width=".2229" points="380.9299,-59.7594 371.3285,-55.28 376.0409,-64.7692 380.9299,-59.7594"/>
</g>
<!-- x&#45;lm1&#45;vec&#45;&gt;right -->
<g id="edge3" class="edge">
<title>x&#45;lm1&#45;vec&#45;&gt;right</title>
<path fill="none" stroke="#00ff00" stroke-width=".5193" d="M597.1005,-120.3334C590.7956,-116.4286 583.2205,-111.8968 576.2132,-108.1249 535.1416,-86.017 486.1545,-63.4456 455.115,-49.5941"/>
<polygon fill="#00ff00" stroke="#00ff00" stroke-width=".5193" points="456.2607,-46.2734 445.7007,-45.415 453.4205,-52.6714 456.2607,-46.2734"/>
</g>
<!-- x&#45;lm1&#45;vec&#45;&gt;backward -->
<g id="edge21" class="edge">
<title>x&#45;lm1&#45;vec&#45;&gt;backward</title>
<path fill="none" stroke="#ff0000" stroke-width=".2517" stroke-dasharray="1,5" d="M608.1275,-120.0535C604.9868,-110.6035 599.8836,-95.2486 594.894,-80.2354"/>
<polygon fill="#ff0000" stroke="#ff0000" stroke-width=".2517" points="598.1286,-78.8701 591.6533,-70.4843 591.4858,-81.0778 598.1286,-78.8701"/>
</g>
<!-- y&#45;lm1&#45;vec -->
<g id="node6" class="node">
<title>y&#45;lm1&#45;vec</title>
<polygon fill="#d3d3d3" stroke="#000000" points="385.7132,-138.3381 332.7132,-138.3381 332.7132,-120.3381 385.7132,-120.3381 385.7132,-138.3381"/>
<text text-anchor="middle" x="359.2132" y="-127.1381" font-family="Times,serif" font-size="9.00" fill="#000000">y&#45;lm1&#45;vec</text>
</g>
<!-- y&#45;lm1&#45;vec&#45;&gt;none -->
<g id="edge4" class="edge">
<title>y&#45;lm1&#45;vec&#45;&gt;none</title>
<path fill="none" stroke="#00ff00" stroke-width=".4331" stroke-dasharray="1,5" d="M358.9146,-120.0535C358.5429,-108.4974 357.8872,-88.1115 357.315,-70.318"/>
<polygon fill="#00ff00" stroke="#00ff00" stroke-width=".4331" points="360.8102,-70.1096 356.9904,-60.2273 353.8138,-70.3347 360.8102,-70.1096"/>
</g>
<!-- y&#45;lm1&#45;vec&#45;&gt;right -->
<g id="edge27" class="edge">
<title>y&#45;lm1&#45;vec&#45;&gt;right</title>
<path fill="none" stroke="#00ff00" stroke-width=".1473" d="M365.6833,-120.0535C374.7613,-107.0265 391.6586,-82.7786 404.9727,-63.6727"/>
<polygon fill="#00ff00" stroke="#00ff00" stroke-width=".1473" points="407.9511,-65.5205 410.7969,-55.315 402.208,-61.5183 407.9511,-65.5205"/>
</g>
<!-- x&#45;lm2&#45;vec -->
<g id="node7" class="node">
<title>x&#45;lm2&#45;vec</title>
<polygon fill="#d3d3d3" stroke="#000000" points="243.7132,-138.3381 190.7132,-138.3381 190.7132,-120.3381 243.7132,-120.3381 243.7132,-138.3381"/>
<text text-anchor="middle" x="217.2132" y="-127.1381" font-family="Times,serif" font-size="9.00" fill="#000000">x&#45;lm2&#45;vec</text>
</g>
<!-- x&#45;lm2&#45;vec&#45;&gt;none -->
<g id="edge9" class="edge">
<title>x&#45;lm2&#45;vec&#45;&gt;none</title>
<path fill="none" stroke="#ff0000" stroke-width=".4409" d="M232.5898,-120.1858C238.9555,-116.4207 246.4236,-112.0344 253.2132,-108.1249 281.4955,-91.8399 290.8299,-91.3345 317.2132,-72.1249 322.0846,-68.578 327.0102,-64.4922 331.6448,-60.3738"/>
<polygon fill="#ff0000" stroke="#ff0000" stroke-width=".4409" points="334.123,-62.8496 339.1089,-53.5013 329.3815,-57.7 334.123,-62.8496"/>
</g>
<!-- x&#45;lm2&#45;vec&#45;&gt;right -->
<g id="edge7" class="edge">
<title>x&#45;lm2&#45;vec&#45;&gt;right</title>
<path fill="none" stroke="#00ff00" stroke-width=".4231" d="M230.7701,-120.154C237.3286,-116.0275 245.4482,-111.3679 253.2132,-108.1249 310.9096,-84.0281 335.2512,-103.7102 389.2132,-72.1249 394.0134,-69.3152 398.5933,-65.6686 402.765,-61.776"/>
<polygon fill="#00ff00" stroke="#00ff00" stroke-width=".4231" points="405.2752,-64.2152 409.7925,-54.6316 400.2847,-59.3064 405.2752,-64.2152"/>
</g>
<!-- x&#45;lm2&#45;vec&#45;&gt;left -->
<g id="edge1" class="edge">
<title>x&#45;lm2&#45;vec&#45;&gt;left</title>
<path fill="none" stroke="#ff0000" stroke-width=".2121" d="M224.2805,-120.0535C234.7911,-106.2453 254.898,-79.83 269.7681,-60.2945"/>
<polygon fill="#ff0000" stroke="#ff0000" stroke-width=".2121" points="272.7057,-62.2139 275.9776,-52.1369 267.1357,-57.9741 272.7057,-62.2139"/>
</g>
<!-- x&#45;lm2&#45;vec&#45;&gt;forward -->
<g id="edge5" class="edge">
<title>x&#45;lm2&#45;vec&#45;&gt;forward</title>
<path fill="none" stroke="#00ff00" stroke-width=".6069" stroke-dasharray="1,5" d="M217.2132,-120.0535C217.2132,-110.1499 217.2132,-93.761 217.2132,-78.0765"/>
<polygon fill="#00ff00" stroke="#00ff00" stroke-width=".6069" points="220.7133,-77.9465 217.2132,-67.9466 213.7133,-77.9466 220.7133,-77.9465"/>
</g>
<!-- y&#45;lm2&#45;vec -->
<g id="node8" class="node">
<title>y&#45;lm2&#45;vec</title>
<polygon fill="#d3d3d3" stroke="#000000" points="314.7132,-138.3381 261.7132,-138.3381 261.7132,-120.3381 314.7132,-120.3381 314.7132,-138.3381"/>
<text text-anchor="middle" x="288.2132" y="-127.1381" font-family="Times,serif" font-size="9.00" fill="#000000">y&#45;lm2&#45;vec</text>
</g>
<!-- y&#45;lm2&#45;vec&#45;&gt;none -->
<g id="edge24" class="edge">
<title>y&#45;lm2&#45;vec&#45;&gt;none</title>
<path fill="none" stroke="#ff0000" stroke-width=".2367" d="M294.9819,-120.0535C304.4631,-107.0481 322.0975,-82.859 336.0154,-63.7678"/>
<polygon fill="#ff0000" stroke="#ff0000" stroke-width=".2367" points="338.8488,-65.8225 341.9115,-55.68 333.1923,-61.6988 338.8488,-65.8225"/>
</g>
<!-- y&#45;lm2&#45;vec&#45;&gt;right -->
<g id="edge17" class="edge">
<title>y&#45;lm2&#45;vec&#45;&gt;right</title>
<path fill="none" stroke="#ff0000" stroke-width=".2814" d="M303.5769,-120.1633C309.9406,-116.3948 317.4107,-112.0119 324.2132,-108.1249 352.886,-91.7408 362.985,-92.191 389.2132,-72.1249 393.4358,-68.8944 397.6313,-65.1585 401.5733,-61.3408"/>
<polygon fill="#ff0000" stroke="#ff0000" stroke-width=".2814" points="404.2661,-63.5942 408.782,-54.01 399.275,-58.6862 404.2661,-63.5942"/>
</g>
<!-- y&#45;lm2&#45;vec&#45;&gt;left -->
<g id="edge12" class="edge">
<title>y&#45;lm2&#45;vec&#45;&gt;left</title>
<path fill="none" stroke="#ff0000" stroke-width=".1797" d="M288.2132,-120.0535C288.2132,-107.592 288.2132,-84.8629 288.2132,-66.1889"/>
<polygon fill="#ff0000" stroke="#ff0000" stroke-width=".1797" points="291.7133,-66.0473 288.2132,-56.0474 284.7133,-66.0474 291.7133,-66.0473"/>
</g>
<!-- y&#45;lm2&#45;vec&#45;&gt;forward -->
<g id="edge16" class="edge">
<title>y&#45;lm2&#45;vec&#45;&gt;forward</title>
<path fill="none" stroke="#00ff00" stroke-width="1.1627" d="M281.1459,-120.0535C272.2033,-108.3052 256.314,-87.4308 242.6137,-69.4322"/>
<polygon fill="#00ff00" stroke="#00ff00" stroke-width="1.1627" points="245.3477,-67.2452 236.5058,-61.408 239.7777,-71.485 245.3477,-67.2452"/>
</g>
<!-- x&#45;other&#45;vec -->
<g id="node9" class="node">
<title>x&#45;other&#45;vec</title>
<polygon fill="#d3d3d3" stroke="#000000" points="164.2132,-204.5513 106.2132,-204.5513 106.2132,-186.5513 164.2132,-186.5513 164.2132,-204.5513"/>
<text text-anchor="middle" x="135.2132" y="-193.3513" font-family="Times,serif" font-size="9.00" fill="#000000">x&#45;other&#45;vec</text>
</g>
<!-- y&#45;other&#45;vec -->
<g id="node10" class="node">
<title>y&#45;other&#45;vec</title>
<polygon fill="#d3d3d3" stroke="#000000" points="714.2132,-138.3381 656.2132,-138.3381 656.2132,-120.3381 714.2132,-120.3381 714.2132,-138.3381"/>
<text text-anchor="middle" x="685.2132" y="-127.1381" font-family="Times,serif" font-size="9.00" fill="#000000">y&#45;other&#45;vec</text>
</g>
<!-- y&#45;other&#45;vec&#45;&gt;right -->
<g id="edge25" class="edge">
<title>y&#45;other&#45;vec&#45;&gt;right</title>
<path fill="none" stroke="#00ff00" stroke-width=".1682" stroke-dasharray="1,5" d="M670.3997,-120.1679C663.5119,-116.1411 655.1124,-111.5588 647.2132,-108.1249 599.2621,-87.2797 584.9659,-88.2028 535.2132,-72.1249 508.6286,-63.5339 478.4806,-53.7356 456.3198,-46.5228"/>
<polygon fill="#00ff00" stroke="#00ff00" stroke-width=".1682" points="457.3337,-43.1722 446.7414,-43.4044 455.1666,-49.8283 457.3337,-43.1722"/>
</g>
<!-- y&#45;other&#45;vec&#45;&gt;backward -->
<g id="edge11" class="edge">
<title>y&#45;other&#45;vec&#45;&gt;backward</title>
<path fill="none" stroke="#00ff00" stroke-width=".1913" d="M674.7615,-120.0535C660.9627,-107.7954 635.9798,-85.6021 615.1593,-67.1065"/>
<polygon fill="#00ff00" stroke="#00ff00" stroke-width=".1913" points="617.2161,-64.252 607.4155,-60.2273 612.5672,-69.4853 617.2161,-64.252"/>
</g>
<!-- x&#45;other&#45;vel -->
<g id="node11" class="node">
<title>x&#45;other&#45;vel</title>
<polygon fill="#d3d3d3" stroke="#000000" points="788.2132,-138.3381 732.2132,-138.3381 732.2132,-120.3381 788.2132,-120.3381 788.2132,-138.3381"/>
<text text-anchor="middle" x="760.2132" y="-127.1381" font-family="Times,serif" font-size="9.00" fill="#000000">x&#45;other&#45;vel</text>
</g>
<!-- x&#45;other&#45;vel&#45;&gt;right -->
<g id="edge8" class="edge">
<title>x&#45;other&#45;vel&#45;&gt;right</title>
<path fill="none" stroke="#ff0000" stroke-width=".2703" d="M746.6919,-120.1378C739.9072,-115.9052 731.406,-111.161 723.2132,-108.1249 643.4409,-78.563 617.607,-93.3096 535.2132,-72.1249 508.155,-65.1678 478.0436,-55.2434 456.0174,-47.5664"/>
<polygon fill="#ff0000" stroke="#ff0000" stroke-width=".2703" points="457.101,-44.2373 446.5062,-44.2159 454.7752,-50.8397 457.101,-44.2373"/>
</g>
<!-- x&#45;other&#45;vel&#45;&gt;backward -->
<g id="edge28" class="edge">
<title>x&#45;other&#45;vel&#45;&gt;backward</title>
<path fill="none" stroke="#ff0000" stroke-width=".3015" stroke-dasharray="1,5" d="M744.8351,-120.275C738.2255,-116.4439 730.3856,-111.9845 723.2132,-108.1249 689.5614,-90.0159 650.8186,-70.5772 622.1547,-56.4579"/>
<polygon fill="#ff0000" stroke="#ff0000" stroke-width=".3015" points="623.3609,-53.151 612.8422,-51.8832 620.2744,-59.4339 623.3609,-53.151"/>
</g>
<!-- y&#45;other&#45;vel -->
<g id="node12" class="node">
<title>y&#45;other&#45;vel</title>
<polygon fill="#d3d3d3" stroke="#000000" points="513.2132,-138.3381 457.2132,-138.3381 457.2132,-120.3381 513.2132,-120.3381 513.2132,-138.3381"/>
<text text-anchor="middle" x="485.2132" y="-127.1381" font-family="Times,serif" font-size="9.00" fill="#000000">y&#45;other&#45;vel</text>
</g>
<!-- y&#45;other&#45;vel&#45;&gt;right -->
<g id="edge10" class="edge">
<title>y&#45;other&#45;vel&#45;&gt;right</title>
<path fill="none" stroke="#00ff00" stroke-width=".1174" d="M479.1413,-120.0535C470.7124,-107.1647 455.1002,-83.292 442.6686,-64.2827"/>
<polygon fill="#00ff00" stroke="#00ff00" stroke-width=".1174" points="445.4452,-62.1336 437.0426,-55.68 439.5867,-65.9649 445.4452,-62.1336"/>
</g>
<!-- y&#45;other&#45;vel&#45;&gt;left -->
<g id="edge20" class="edge">
<title>y&#45;other&#45;vel&#45;&gt;left</title>
<path fill="none" stroke="#00ff00" stroke-width=".3585" d="M471.2158,-120.2488C464.4611,-116.1431 456.1227,-111.4736 448.2132,-108.1249 394.9744,-85.5848 372.7892,-101.8678 323.2132,-72.1249 317.5179,-68.708 312.1148,-64.1344 307.3339,-59.3942"/>
<polygon fill="#00ff00" stroke="#00ff00" stroke-width=".3585" points="309.7644,-56.8688 300.3803,-51.9503 304.649,-61.6472 309.7644,-56.8688"/>
</g>
<!-- y&#45;other&#45;vel&#45;&gt;backward -->
<g id="edge23" class="edge">
<title>y&#45;other&#45;vel&#45;&gt;backward</title>
<path fill="none" stroke="#00ff00" stroke-width=".2061" d="M494.6695,-120.0535C506.8505,-108.0935 528.6644,-86.6756 547.2146,-68.4621"/>
<polygon fill="#00ff00" stroke="#00ff00" stroke-width=".2061" points="549.7157,-70.9115 554.3991,-61.408 544.8114,-65.9166 549.7157,-70.9115"/>
</g>
<!-- 206&#45;&gt;forward -->
<g id="edge30" class="edge">
<title>206&#45;&gt;forward</title>
<path fill="none" stroke="#ff0000" stroke-width=".2869" d="M39.133,-117.8924C44.5423,-114.5975 50.5495,-111.0941 56.2132,-108.1249 96.9443,-86.7711 145.2923,-65.6719 178.304,-51.8771"/>
<polygon fill="#ff0000" stroke="#ff0000" stroke-width=".2869" points="179.7169,-55.0802 187.6095,-48.0122 177.0319,-48.6156 179.7169,-55.0802"/>
</g>
</g>
</svg>
