<?xml version="1.0" encoding="UTF-8" standalone="no"?>
<!DOCTYPE svg PUBLIC "-//W3C//DTD SVG 1.1//EN"
 "http://www.w3.org/Graphics/SVG/1.1/DTD/svg11.dtd">
<!-- Generated by graphviz version 2.40.1 (20161225.0304)
 -->
<!-- Title: %3 Pages: 1 -->
<svg width="1834pt" height="332pt"
 viewBox="0.00 0.00 1834.37 331.99" xmlns="http://www.w3.org/2000/svg" xmlns:xlink="http://www.w3.org/1999/xlink">
<g id="graph0" class="graph" transform="scale(1 1) rotate(0) translate(4 327.9899)">
<title>%3</title>
<polygon fill="#ffffff" stroke="transparent" points="-4,4 -4,-327.9899 1830.3728,-327.9899 1830.3728,4 -4,4"/>
<!-- A_agent -->
<g id="node1" class="node">
<title>A_agent</title>
<polygon fill="#d3d3d3" stroke="#000000" points="896.3728,-260.6051 849.3728,-260.6051 849.3728,-242.6051 896.3728,-242.6051 896.3728,-260.6051"/>
<text text-anchor="middle" x="872.8728" y="-249.4051" font-family="Times,serif" font-size="9.00" fill="#000000">A_agent</text>
</g>
<!-- none -->
<g id="node18" class="node">
<title>none</title>
<ellipse fill="#add8e6" stroke="#000000" cx="988.8728" cy="-55.8614" rx="24.0833" ry="24.0833"/>
<text text-anchor="middle" x="988.8728" y="-53.6614" font-family="Times,serif" font-size="9.00" fill="#000000">none</text>
</g>
<!-- A_agent&#45;&gt;none -->
<g id="edge54" class="edge">
<title>A_agent&#45;&gt;none</title>
<path fill="none" stroke="#ff0000" stroke-width=".7315" stroke-dasharray="1,5" d="M872.6925,-242.3669C872.7077,-223.4255 874.7471,-179.3148 891.8728,-147.7229 908.2408,-117.5286 938.129,-91.529 960.4192,-74.9743"/>
<polygon fill="#ff0000" stroke="#ff0000" stroke-width=".7315" points="962.4898,-77.7963 968.5461,-69.103 958.3905,-72.1221 962.4898,-77.7963"/>
</g>
<!-- forward -->
<g id="node21" class="node">
<title>forward</title>
<ellipse fill="#add8e6" stroke="#000000" cx="347.8728" cy="-55.8614" rx="31.6406" ry="31.6406"/>
<text text-anchor="middle" x="347.8728" y="-53.6614" font-family="Times,serif" font-size="9.00" fill="#000000">forward</text>
</g>
<!-- A_agent&#45;&gt;forward -->
<g id="edge57" class="edge">
<title>A_agent&#45;&gt;forward</title>
<path fill="none" stroke="#ff0000" stroke-width=".1713" d="M849.1824,-245.7952C832.2005,-241.7989 808.7352,-236.6192 787.8728,-233.2203 715.9364,-221.5008 525.7983,-232.2308 461.8728,-197.2203 419.0304,-173.7566 386.2895,-126.9171 367.1153,-93.5905"/>
<polygon fill="#ff0000" stroke="#ff0000" stroke-width=".1713" points="370.0093,-91.5951 362.0698,-84.5797 363.9016,-95.015 370.0093,-91.5951"/>
</g>
<!-- backward -->
<g id="node22" class="node">
<title>backward</title>
<ellipse fill="#add8e6" stroke="#000000" cx="1211.8728" cy="-55.8614" rx="36.125" ry="36.125"/>
<text text-anchor="middle" x="1211.8728" y="-53.6614" font-family="Times,serif" font-size="9.00" fill="#000000">backward</text>
</g>
<!-- A_agent&#45;&gt;backward -->
<g id="edge9" class="edge">
<title>A_agent&#45;&gt;backward</title>
<path fill="none" stroke="#00ff00" stroke-width=".1657" d="M896.617,-250.2339C979.9353,-245.1838 1255.3355,-226.3875 1280.8728,-197.2203 1309.4804,-164.5465 1275.9216,-117.9193 1246.3913,-87.282"/>
<polygon fill="#00ff00" stroke="#00ff00" stroke-width=".1657" points="1248.5424,-84.4813 1239.0107,-79.8555 1243.5774,-89.4157 1248.5424,-84.4813"/>
</g>
<!-- counterclockwise -->
<g id="node23" class="node">
<title>counterclockwise</title>
<ellipse fill="#add8e6" stroke="#000000" cx="1580.8728" cy="-55.8614" rx="55.7232" ry="55.7232"/>
<text text-anchor="middle" x="1580.8728" y="-53.6614" font-family="Times,serif" font-size="9.00" fill="#000000">counterclockwise</text>
</g>
<!-- A_agent&#45;&gt;counterclockwise -->
<g id="edge37" class="edge">
<title>A_agent&#45;&gt;counterclockwise</title>
<path fill="none" stroke="#00ff00" stroke-width=".2565" d="M896.3839,-250.9913C1030.1107,-247.3887 1689.9281,-228.0855 1718.8728,-197.2203 1756.2425,-157.3712 1693.6831,-112.3849 1641.0806,-84.0815"/>
<polygon fill="#00ff00" stroke="#00ff00" stroke-width=".2565" points="1642.5519,-80.9008 1632.0724,-79.3411 1639.292,-87.0954 1642.5519,-80.9008"/>
</g>
<!-- 880 -->
<g id="node27" class="node">
<title>880</title>
<ellipse fill="#ffffff" stroke="#000000" cx="823.8728" cy="-172.4716" rx="21.4286" ry="21.4286"/>
<text text-anchor="middle" x="823.8728" y="-170.2716" font-family="Times,serif" font-size="9.00" fill="#000000">880</text>
</g>
<!-- A_agent&#45;&gt;880 -->
<g id="edge66" class="edge">
<title>A_agent&#45;&gt;880</title>
<path fill="none" stroke="#ff0000" stroke-width=".1745" d="M867.2519,-242.5275C860.7985,-232.1054 849.9108,-214.5222 840.6581,-199.5793"/>
<polygon fill="#ff0000" stroke="#ff0000" stroke-width=".1745" points="843.4028,-197.3635 835.1625,-190.704 837.4513,-201.0487 843.4028,-197.3635"/>
</g>
<!-- A_lm -->
<g id="node2" class="node">
<title>A_lm</title>
<polygon fill="#d3d3d3" stroke="#000000" points="230.3728,-323.9899 193.3728,-323.9899 193.3728,-305.9899 230.3728,-305.9899 230.3728,-323.9899"/>
<text text-anchor="middle" x="211.8728" y="-312.7899" font-family="Times,serif" font-size="9.00" fill="#000000">A_lm</text>
</g>
<!-- left -->
<g id="node20" class="node">
<title>left</title>
<ellipse fill="#add8e6" stroke="#000000" cx="706.8728" cy="-55.8614" rx="19.6" ry="19.6"/>
<text text-anchor="middle" x="706.8728" y="-53.6614" font-family="Times,serif" font-size="9.00" fill="#000000">left</text>
</g>
<!-- A_lm&#45;&gt;left -->
<g id="edge13" class="edge">
<title>A_lm&#45;&gt;left</title>
<path fill="none" stroke="#ff0000" stroke-width=".225" d="M212.6797,-305.6597C215.6249,-273.82 226.8483,-170.1783 249.8728,-147.7229 265.4721,-132.5091 578.3644,-77.862 677.2143,-60.9118"/>
<polygon fill="#ff0000" stroke="#ff0000" stroke-width=".225" points="677.8761,-64.3495 687.1425,-59.2128 676.6954,-57.4498 677.8761,-64.3495"/>
</g>
<!-- A_lm&#45;&gt;forward -->
<g id="edge36" class="edge">
<title>A_lm&#45;&gt;forward</title>
<path fill="none" stroke="#ff0000" stroke-width=".1179" stroke-dasharray="1,5" d="M209.4941,-305.9303C203.1014,-279.5772 187.9146,-201.4224 216.8728,-147.7229 236.5281,-111.2746 277.7155,-86.125 308.6918,-71.475"/>
<polygon fill="#ff0000" stroke="#ff0000" stroke-width=".1179" points="310.2906,-74.5929 317.9422,-67.2646 307.3907,-68.2218 310.2906,-74.5929"/>
</g>
<!-- A_lm&#45;&gt;backward -->
<g id="edge39" class="edge">
<title>A_lm&#45;&gt;backward</title>
<path fill="none" stroke="#00ff00" stroke-width=".2959" d="M230.6324,-314.6107C374.3204,-311.5143 1296.9673,-288.1458 1374.8728,-197.2203 1389.1863,-180.5148 1387.633,-165.6429 1374.8728,-147.7229 1346.5013,-107.8788 1312.683,-137.108 1270.8728,-111.7229 1261.0874,-105.7817 1251.5769,-97.9933 1243.1502,-90.1261"/>
<polygon fill="#00ff00" stroke="#00ff00" stroke-width=".2959" points="1245.3519,-87.3853 1235.7395,-82.9296 1240.4752,-92.4072 1245.3519,-87.3853"/>
</g>
<!-- 61 -->
<g id="node33" class="node">
<title>61</title>
<ellipse fill="#ffffff" stroke="#000000" cx="143.8728" cy="-251.6051" rx="18.2703" ry="18.2703"/>
<text text-anchor="middle" x="143.8728" y="-249.4051" font-family="Times,serif" font-size="9.00" fill="#000000">61</text>
</g>
<!-- A_lm&#45;&gt;61 -->
<g id="edge58" class="edge">
<title>A_lm&#45;&gt;61</title>
<path fill="none" stroke="#00ff00" stroke-width=".3514" d="M202.1301,-305.9084C192.3983,-296.8371 177.134,-282.6089 164.6713,-270.992"/>
<polygon fill="#00ff00" stroke="#00ff00" stroke-width=".3514" points="167.0495,-268.4241 157.3481,-264.1658 162.2766,-273.5445 167.0495,-268.4241"/>
</g>
<!-- B_agent -->
<g id="node3" class="node">
<title>B_agent</title>
<polygon fill="#d3d3d3" stroke="#000000" points="584.8728,-181.4716 538.8728,-181.4716 538.8728,-163.4716 584.8728,-163.4716 584.8728,-181.4716"/>
<text text-anchor="middle" x="561.8728" y="-170.2716" font-family="Times,serif" font-size="9.00" fill="#000000">B_agent</text>
</g>
<!-- B_agent&#45;&gt;none -->
<g id="edge31" class="edge">
<title>B_agent&#45;&gt;none</title>
<path fill="none" stroke="#ff0000" stroke-width=".3572" stroke-dasharray="1,5" d="M571.5042,-163.2339C577.5025,-157.9607 585.6256,-151.6399 593.8728,-147.7229 610.4836,-139.8337 863.1211,-83.6263 955.4294,-63.231"/>
<polygon fill="#ff0000" stroke="#ff0000" stroke-width=".3572" points="956.3547,-66.6111 965.3649,-61.0373 954.8455,-59.7757 956.3547,-66.6111"/>
</g>
<!-- B_agent&#45;&gt;left -->
<g id="edge26" class="edge">
<title>B_agent&#45;&gt;left</title>
<path fill="none" stroke="#ff0000" stroke-width=".2772" stroke-dasharray="1,5" d="M573.2507,-163.3214C596.9071,-144.2968 651.8184,-100.1366 683.3937,-74.7435"/>
<polygon fill="#ff0000" stroke="#ff0000" stroke-width=".2772" points="685.6614,-77.4113 691.2606,-68.4169 681.2745,-71.9564 685.6614,-77.4113"/>
</g>
<!-- B_agent&#45;&gt;forward -->
<g id="edge41" class="edge">
<title>B_agent&#45;&gt;forward</title>
<path fill="none" stroke="#ff0000" stroke-width=".5719" d="M551.2877,-163.4603C545.2258,-158.5141 537.3569,-152.4449 529.8728,-147.7229 482.6104,-117.9026 424.4156,-89.9228 386.752,-72.8566"/>
<polygon fill="#ff0000" stroke="#ff0000" stroke-width=".5719" points="387.7252,-69.4568 377.1693,-68.5493 384.8553,-75.8415 387.7252,-69.4568"/>
</g>
<!-- B_lm -->
<g id="node4" class="node">
<title>B_lm</title>
<polygon fill="#d3d3d3" stroke="#000000" points="778.3728,-260.6051 741.3728,-260.6051 741.3728,-242.6051 778.3728,-242.6051 778.3728,-260.6051"/>
<text text-anchor="middle" x="759.8728" y="-249.4051" font-family="Times,serif" font-size="9.00" fill="#000000">B_lm</text>
</g>
<!-- B_lm&#45;&gt;left -->
<g id="edge52" class="edge">
<title>B_lm&#45;&gt;left</title>
<path fill="none" stroke="#ff0000" stroke-width=".1964" stroke-dasharray="1,5" d="M752.2563,-242.2378C744.2798,-231.8868 732.0689,-214.3986 725.8728,-197.2203 712.612,-160.4552 708.4805,-115.2902 707.2619,-86.0586"/>
<polygon fill="#ff0000" stroke="#ff0000" stroke-width=".1964" points="710.7479,-85.5671 706.9245,-75.6862 703.7516,-85.7948 710.7479,-85.5671"/>
</g>
<!-- B_lm&#45;&gt;forward -->
<g id="edge7" class="edge">
<title>B_lm&#45;&gt;forward</title>
<path fill="none" stroke="#00ff00" stroke-width=".3409" d="M740.9664,-251.4029C673.2807,-250.2985 444.2351,-243.1717 390.8728,-197.2203 362.3707,-172.6765 352.4121,-129.8729 349.1052,-97.7792"/>
<polygon fill="#00ff00" stroke="#00ff00" stroke-width=".3409" points="352.5889,-97.4379 348.2503,-87.7722 345.6143,-98.0339 352.5889,-97.4379"/>
</g>
<!-- B_lm&#45;&gt;backward -->
<g id="edge38" class="edge">
<title>B_lm&#45;&gt;backward</title>
<path fill="none" stroke="#00ff00" stroke-width=".2563" stroke-dasharray="1,5" d="M778.4115,-246.755C794.7514,-242.6346 819.2534,-236.8301 840.8728,-233.2203 914.2877,-220.9625 1117.3271,-245.6206 1173.8728,-197.2203 1200.9316,-174.0594 1209.752,-133.888 1212.1938,-102.2745"/>
<polygon fill="#00ff00" stroke="#00ff00" stroke-width=".2563" points="1215.7095,-102.1043 1212.7945,-91.9184 1208.7212,-101.6989 1215.7095,-102.1043"/>
</g>
<!-- B_lm&#45;&gt;counterclockwise -->
<g id="edge22" class="edge">
<title>B_lm&#45;&gt;counterclockwise</title>
<path fill="none" stroke="#00ff00" stroke-width=".5505" stroke-dasharray="1,5" d="M778.6819,-246.3197C794.9873,-241.9833 819.2903,-236.1053 840.8728,-233.2203 887.4456,-226.9949 1653.3628,-231.1449 1685.8728,-197.2203 1717.4685,-164.2499 1676.4431,-121.6276 1636.7876,-91.8424"/>
<polygon fill="#00ff00" stroke="#00ff00" stroke-width=".5505" points="1638.5111,-88.7668 1628.373,-85.6895 1634.3793,-94.4173 1638.5111,-88.7668"/>
</g>
<!-- 1269 -->
<g id="node29" class="node">
<title>1269</title>
<ellipse fill="#ffffff" stroke="#000000" cx="759.8728" cy="-172.4716" rx="25" ry="25"/>
<text text-anchor="middle" x="759.8728" y="-170.2716" font-family="Times,serif" font-size="9.00" fill="#000000">1269</text>
</g>
<!-- B_lm&#45;&gt;1269 -->
<g id="edge73" class="edge">
<title>B_lm&#45;&gt;1269</title>
<path fill="none" stroke="#00ff00" stroke-width=".3464" d="M759.8728,-242.5275C759.8728,-233.8784 759.8728,-220.2973 759.8728,-207.3863"/>
<polygon fill="#00ff00" stroke="#00ff00" stroke-width=".3464" points="763.3729,-207.2826 759.8728,-197.2827 756.3729,-207.2827 763.3729,-207.2826"/>
</g>
<!-- C_agent -->
<g id="node5" class="node">
<title>C_agent</title>
<polygon fill="#d3d3d3" stroke="#000000" points="1271.8728,-181.4716 1225.8728,-181.4716 1225.8728,-163.4716 1271.8728,-163.4716 1271.8728,-181.4716"/>
<text text-anchor="middle" x="1248.8728" y="-170.2716" font-family="Times,serif" font-size="9.00" fill="#000000">C_agent</text>
</g>
<!-- C_agent&#45;&gt;left -->
<g id="edge16" class="edge">
<title>C_agent&#45;&gt;left</title>
<path fill="none" stroke="#00ff00" stroke-width=".3035" stroke-dasharray="1,5" d="M1225.7474,-166.9393C1203.9123,-161.771 1170.2296,-153.9411 1140.8728,-147.7229 1058.9264,-130.3655 1037.8587,-128.8927 955.8728,-111.7229 876.2188,-95.0414 782.6727,-73.5379 736.1824,-62.7213"/>
<polygon fill="#00ff00" stroke="#00ff00" stroke-width=".3035" points="736.7372,-59.2568 726.2037,-60.3954 735.1481,-66.0741 736.7372,-59.2568"/>
</g>
<!-- C_agent&#45;&gt;backward -->
<g id="edge68" class="edge">
<title>C_agent&#45;&gt;backward</title>
<path fill="none" stroke="#ff0000" stroke-width=".4322" stroke-dasharray="1,5" d="M1245.9695,-163.3214C1241.6615,-149.7443 1233.2916,-123.3655 1225.923,-100.1423"/>
<polygon fill="#ff0000" stroke="#ff0000" stroke-width=".4322" points="1229.2016,-98.9023 1222.841,-90.4292 1222.5294,-101.0194 1229.2016,-98.9023"/>
</g>
<!-- C_agent&#45;&gt;counterclockwise -->
<g id="edge18" class="edge">
<title>C_agent&#45;&gt;counterclockwise</title>
<path fill="none" stroke="#ff0000" stroke-width=".3866" d="M1271.937,-163.4208C1285.6918,-158.2786 1303.593,-152.028 1319.8728,-147.7229 1405.4978,-125.0798 1435.9602,-149.9109 1515.8728,-111.7229 1521.6877,-108.9441 1527.3955,-105.5066 1532.8661,-101.7128"/>
<polygon fill="#ff0000" stroke="#ff0000" stroke-width=".3866" points="1535.298,-104.267 1541.2488,-95.5012 1531.1304,-98.6427 1535.298,-104.267"/>
</g>
<!-- C_lm -->
<g id="node6" class="node">
<title>C_lm</title>
<polygon fill="#d3d3d3" stroke="#000000" points="1562.3728,-181.4716 1525.3728,-181.4716 1525.3728,-163.4716 1562.3728,-163.4716 1562.3728,-181.4716"/>
<text text-anchor="middle" x="1543.8728" y="-170.2716" font-family="Times,serif" font-size="9.00" fill="#000000">C_lm</text>
</g>
<!-- right -->
<g id="node19" class="node">
<title>right</title>
<ellipse fill="#add8e6" stroke="#000000" cx="1483.8728" cy="-55.8614" rx="23.1702" ry="23.1702"/>
<text text-anchor="middle" x="1483.8728" y="-53.6614" font-family="Times,serif" font-size="9.00" fill="#000000">right</text>
</g>
<!-- C_lm&#45;&gt;right -->
<g id="edge50" class="edge">
<title>C_lm&#45;&gt;right</title>
<path fill="none" stroke="#00ff00" stroke-width=".3483" d="M1539.1647,-163.3214C1530.7008,-146.8718 1512.568,-111.6307 1499.3685,-85.9773"/>
<polygon fill="#00ff00" stroke="#00ff00" stroke-width=".3483" points="1502.4432,-84.3031 1494.7557,-77.0125 1496.2188,-87.5058 1502.4432,-84.3031"/>
</g>
<!-- C_lm&#45;&gt;backward -->
<g id="edge32" class="edge">
<title>C_lm&#45;&gt;backward</title>
<path fill="none" stroke="#ff0000" stroke-width=".2299" stroke-dasharray="1,5" d="M1536.3414,-163.2128C1531.3955,-157.7928 1524.4539,-151.3255 1516.8728,-147.7229 1417.0705,-100.2963 1370.2887,-159.9542 1270.8728,-111.7229 1260.3699,-106.6274 1250.4918,-98.9886 1241.9321,-90.9833"/>
<polygon fill="#ff0000" stroke="#ff0000" stroke-width=".2299" points="1244.3419,-88.444 1234.7668,-83.9087 1239.4238,-93.4252 1244.3419,-88.444"/>
</g>
<!-- C_lm&#45;&gt;counterclockwise -->
<g id="edge28" class="edge">
<title>C_lm&#45;&gt;counterclockwise</title>
<path fill="none" stroke="#ff0000" stroke-width=".3508" stroke-dasharray="1,5" d="M1546.7761,-163.3214C1549.9384,-153.355 1555.2895,-136.4905 1560.8266,-119.0397"/>
<polygon fill="#ff0000" stroke="#ff0000" stroke-width=".3508" points="1564.2208,-119.9148 1563.9091,-109.3246 1557.5486,-117.7977 1564.2208,-119.9148"/>
</g>
<!-- clockwise -->
<g id="node24" class="node">
<title>clockwise</title>
<ellipse fill="#add8e6" stroke="#000000" cx="1316.8728" cy="-55.8614" rx="36.5405" ry="36.5405"/>
<text text-anchor="middle" x="1316.8728" y="-53.6614" font-family="Times,serif" font-size="9.00" fill="#000000">clockwise</text>
</g>
<!-- C_lm&#45;&gt;clockwise -->
<g id="edge40" class="edge">
<title>C_lm&#45;&gt;clockwise</title>
<path fill="none" stroke="#00ff00" stroke-width=".1003" d="M1535.7001,-163.0779C1530.7258,-157.8842 1523.9758,-151.697 1516.8728,-147.7229 1466.0466,-119.2854 1442.9959,-137.7071 1390.8728,-111.7229 1377.5417,-105.0771 1364.179,-95.9367 1352.5495,-86.9735"/>
<polygon fill="#00ff00" stroke="#00ff00" stroke-width=".1003" points="1354.4219,-83.9911 1344.413,-80.5164 1350.0705,-89.4743 1354.4219,-83.9911"/>
</g>
<!-- D_agent -->
<g id="node7" class="node">
<title>D_agent</title>
<polygon fill="#d3d3d3" stroke="#000000" points="1012.3728,-181.4716 965.3728,-181.4716 965.3728,-163.4716 1012.3728,-163.4716 1012.3728,-181.4716"/>
<text text-anchor="middle" x="988.8728" y="-170.2716" font-family="Times,serif" font-size="9.00" fill="#000000">D_agent</text>
</g>
<!-- D_agent&#45;&gt;none -->
<g id="edge47" class="edge">
<title>D_agent&#45;&gt;none</title>
<path fill="none" stroke="#00ff00" stroke-width=".1695" d="M988.8728,-163.3214C988.8728,-147.8181 988.8728,-115.6231 988.8728,-90.4944"/>
<polygon fill="#00ff00" stroke="#00ff00" stroke-width=".1695" points="992.3729,-90.2268 988.8728,-80.2269 985.3729,-90.2269 992.3729,-90.2268"/>
</g>
<!-- D_agent&#45;&gt;left -->
<g id="edge14" class="edge">
<title>D_agent&#45;&gt;left</title>
<path fill="none" stroke="#00ff00" stroke-width=".3621" d="M978.4112,-163.3839C972.174,-158.2923 963.924,-152.1051 955.8728,-147.7229 880.6532,-106.7811 783.4053,-76.8675 735.7645,-63.5496"/>
<polygon fill="#00ff00" stroke="#00ff00" stroke-width=".3621" points="736.6776,-60.1708 726.107,-60.8882 734.8178,-66.9193 736.6776,-60.1708"/>
</g>
<!-- D_agent&#45;&gt;forward -->
<g id="edge55" class="edge">
<title>D_agent&#45;&gt;forward</title>
<path fill="none" stroke="#ff0000" stroke-width=".2655" d="M979.589,-163.429C973.3873,-157.9483 964.7625,-151.3368 955.8728,-147.7229 840.4584,-100.8028 801.0937,-130.1233 677.8728,-111.7229 573.6224,-96.1553 451.4183,-74.6013 389.0499,-63.3615"/>
<polygon fill="#ff0000" stroke="#ff0000" stroke-width=".2655" points="389.6664,-59.9163 379.2035,-61.5831 388.4221,-66.8049 389.6664,-59.9163"/>
</g>
<!-- D_agent&#45;&gt;backward -->
<g id="edge56" class="edge">
<title>D_agent&#45;&gt;backward</title>
<path fill="none" stroke="#ff0000" stroke-width=".3955" stroke-dasharray="1,5" d="M999.7971,-163.4375C1006.0511,-158.4841 1014.1657,-152.4154 1021.8728,-147.7229 1070.1964,-118.3004 1129.3513,-90.9505 1168.6896,-73.8775"/>
<polygon fill="#ff0000" stroke="#ff0000" stroke-width=".3955" points="1170.4446,-76.9326 1178.2453,-69.7633 1167.6763,-70.5032 1170.4446,-76.9326"/>
</g>
<!-- D_agent&#45;&gt;counterclockwise -->
<g id="edge15" class="edge">
<title>D_agent&#45;&gt;counterclockwise</title>
<path fill="none" stroke="#00ff00" stroke-width=".2824" stroke-dasharray="1,5" d="M998.0901,-163.2584C1004.2651,-157.7096 1012.8854,-151.0864 1021.8728,-147.7229 1228.0452,-70.5633 1312.3775,-195.689 1515.8728,-111.7229 1522.0645,-109.168 1528.0886,-105.7844 1533.8124,-101.9425"/>
<polygon fill="#00ff00" stroke="#00ff00" stroke-width=".2824" points="1535.927,-104.7326 1541.9683,-96.0289 1531.8179,-99.0655 1535.927,-104.7326"/>
</g>
<!-- D_agent&#45;&gt;clockwise -->
<g id="edge42" class="edge">
<title>D_agent&#45;&gt;clockwise</title>
<path fill="none" stroke="#ff0000" stroke-width=".3602" stroke-dasharray="1,5" d="M998.4655,-163.2543C1004.6564,-157.8499 1013.1578,-151.3844 1021.8728,-147.7229 1119.2874,-106.7956 1161.7682,-157.7636 1256.8728,-111.7229 1267.3752,-106.6386 1277.3045,-99.0816 1285.9505,-91.1571"/>
<polygon fill="#ff0000" stroke="#ff0000" stroke-width=".3602" points="1288.4413,-93.6174 1293.2004,-84.1515 1283.5771,-88.5835 1288.4413,-93.6174"/>
</g>
<!-- D_lm -->
<g id="node8" class="node">
<title>D_lm</title>
<polygon fill="#d3d3d3" stroke="#000000" points="640.3728,-181.4716 603.3728,-181.4716 603.3728,-163.4716 640.3728,-163.4716 640.3728,-181.4716"/>
<text text-anchor="middle" x="621.8728" y="-170.2716" font-family="Times,serif" font-size="9.00" fill="#000000">D_lm</text>
</g>
<!-- D_lm&#45;&gt;left -->
<g id="edge34" class="edge">
<title>D_lm&#45;&gt;left</title>
<path fill="none" stroke="#00ff00" stroke-width=".1365" d="M628.5426,-163.3214C641.4822,-145.5698 670.3736,-105.9342 689.2192,-80.0801"/>
<polygon fill="#00ff00" stroke="#00ff00" stroke-width=".1365" points="692.1256,-82.0348 695.1877,-71.8921 686.4688,-77.9114 692.1256,-82.0348"/>
</g>
<!-- D_lm&#45;&gt;forward -->
<g id="edge5" class="edge">
<title>D_lm&#45;&gt;forward</title>
<path fill="none" stroke="#00ff00" stroke-width=".5185" d="M613.2129,-163.3027C607.9929,-158.184 600.9929,-151.9968 593.8728,-147.7229 526.9528,-107.5533 439.5167,-80.0268 388.9358,-66.1988"/>
<polygon fill="#00ff00" stroke="#00ff00" stroke-width=".5185" points="389.5909,-62.7507 379.0252,-63.5362 387.7746,-69.511 389.5909,-62.7507"/>
</g>
<!-- D_lm&#45;&gt;backward -->
<g id="edge8" class="edge">
<title>D_lm&#45;&gt;backward</title>
<path fill="none" stroke="#ff0000" stroke-width="1.0301" stroke-dasharray="1,5" d="M640.5273,-167.361C661.239,-161.8444 695.7294,-153.1248 725.8728,-147.7229 856.3196,-124.3458 892.0822,-138.5045 1021.8728,-111.7229 1072.7208,-101.2307 1129.6908,-83.6799 1167.8683,-71.0485"/>
<polygon fill="#ff0000" stroke="#ff0000" stroke-width="1.0301" points="1169.2577,-74.2746 1177.6352,-67.7886 1167.0414,-67.6347 1169.2577,-74.2746"/>
</g>
<!-- E_agent -->
<g id="node9" class="node">
<title>E_agent</title>
<polygon fill="#d3d3d3" stroke="#000000" points="946.8728,-181.4716 900.8728,-181.4716 900.8728,-163.4716 946.8728,-163.4716 946.8728,-181.4716"/>
<text text-anchor="middle" x="923.8728" y="-170.2716" font-family="Times,serif" font-size="9.00" fill="#000000">E_agent</text>
</g>
<!-- E_agent&#45;&gt;left -->
<g id="edge43" class="edge">
<title>E_agent&#45;&gt;left</title>
<path fill="none" stroke="#00ff00" stroke-width=".294" d="M906.8452,-163.3214C869.1606,-143.0707 778.478,-94.3402 733.3313,-70.0795"/>
<polygon fill="#00ff00" stroke="#00ff00" stroke-width=".294" points="734.8896,-66.9436 724.4241,-65.293 731.5761,-73.1097 734.8896,-66.9436"/>
</g>
<!-- E_agent&#45;&gt;forward -->
<g id="edge27" class="edge">
<title>E_agent&#45;&gt;forward</title>
<path fill="none" stroke="#00ff00" stroke-width=".3095" d="M901.1482,-163.395C887.5922,-158.2439 869.9432,-151.993 853.8728,-147.7229 808.9489,-135.786 502.2751,-82.4817 389.4314,-63.0115"/>
<polygon fill="#00ff00" stroke="#00ff00" stroke-width=".3095" points="389.8929,-59.5395 379.4436,-61.2892 388.7034,-66.4377 389.8929,-59.5395"/>
</g>
<!-- E_agent&#45;&gt;backward -->
<g id="edge53" class="edge">
<title>E_agent&#45;&gt;backward</title>
<path fill="none" stroke="#00ff00" stroke-width=".3658" d="M934.3219,-163.3607C940.5549,-158.2614 948.8049,-152.0742 956.8728,-147.7229 1026.519,-110.1599 1114.6977,-82.3081 1167.0095,-67.6175"/>
<polygon fill="#00ff00" stroke="#00ff00" stroke-width=".3658" points="1167.9606,-70.9859 1176.6624,-64.942 1166.0908,-64.2402 1167.9606,-70.9859"/>
</g>
<!-- E_agent&#45;&gt;counterclockwise -->
<g id="edge48" class="edge">
<title>E_agent&#45;&gt;counterclockwise</title>
<path fill="none" stroke="#ff0000" stroke-width=".1237" stroke-dasharray="1,5" d="M933.0805,-163.2325C939.2517,-157.6734 947.8713,-151.0485 956.8728,-147.7229 1190.404,-61.4453 1285.3367,-205.7109 1515.8728,-111.7229 1522.0753,-109.1942 1528.1062,-105.8275 1533.8342,-101.9958"/>
<polygon fill="#ff0000" stroke="#ff0000" stroke-width=".1237" points="1535.9437,-104.7897 1541.9944,-96.0925 1531.8407,-99.1181 1535.9437,-104.7897"/>
</g>
<!-- E_lm -->
<g id="node10" class="node">
<title>E_lm</title>
<polygon fill="#d3d3d3" stroke="#000000" points="1616.8728,-181.4716 1580.8728,-181.4716 1580.8728,-163.4716 1616.8728,-163.4716 1616.8728,-181.4716"/>
<text text-anchor="middle" x="1598.8728" y="-170.2716" font-family="Times,serif" font-size="9.00" fill="#000000">E_lm</text>
</g>
<!-- E_lm&#45;&gt;counterclockwise -->
<g id="edge30" class="edge">
<title>E_lm&#45;&gt;counterclockwise</title>
<path fill="none" stroke="#ff0000" stroke-width=".3408" stroke-dasharray="1,5" d="M1597.4604,-163.3214C1595.9985,-153.8508 1593.5751,-138.1514 1591.0263,-121.639"/>
<polygon fill="#ff0000" stroke="#ff0000" stroke-width=".3408" points="1594.4151,-120.65 1589.4305,-111.301 1587.4971,-121.718 1594.4151,-120.65"/>
</g>
<!-- E_lm&#45;&gt;clockwise -->
<g id="edge10" class="edge">
<title>E_lm&#45;&gt;clockwise</title>
<path fill="none" stroke="#ff0000" stroke-width="2.1922" d="M1591.275,-163.3481C1586.3041,-157.979 1579.3596,-151.5177 1571.8728,-147.7229 1498.7138,-110.6409 1465.7151,-145.278 1390.8728,-111.7229 1377.2806,-105.6289 1363.8456,-96.6413 1352.2302,-87.6484"/>
<polygon fill="#ff0000" stroke="#ff0000" stroke-width="2.1922" points="1354.1082,-84.6679 1344.1177,-81.1405 1349.7279,-90.1281 1354.1082,-84.6679"/>
</g>
<!-- F_agent -->
<g id="node11" class="node">
<title>F_agent</title>
<polygon fill="#d3d3d3" stroke="#000000" points="491.3728,-260.6051 446.3728,-260.6051 446.3728,-242.6051 491.3728,-242.6051 491.3728,-260.6051"/>
<text text-anchor="middle" x="468.8728" y="-249.4051" font-family="Times,serif" font-size="9.00" fill="#000000">F_agent</text>
</g>
<!-- F_agent&#45;&gt;none -->
<g id="edge21" class="edge">
<title>F_agent&#45;&gt;none</title>
<path fill="none" stroke="#00ff00" stroke-width=".4259" d="M491.4884,-246.9038C526.3321,-239.1943 594.7778,-222.1845 648.8728,-197.2203 685.8121,-180.1733 689.3052,-165.5531 725.8728,-147.7229 804.9768,-109.1521 904.503,-79.002 955.4535,-64.7889"/>
<polygon fill="#00ff00" stroke="#00ff00" stroke-width=".4259" points="956.5608,-68.1143 965.2698,-62.0808 954.6991,-61.3664 956.5608,-68.1143"/>
</g>
<!-- F_agent&#45;&gt;left -->
<g id="edge2" class="edge">
<title>F_agent&#45;&gt;left</title>
<path fill="none" stroke="#00ff00" stroke-width=".262" d="M464.8183,-242.5543C456.8225,-223.1952 441.486,-177.1395 461.8728,-147.7229 487.3201,-111.0043 618.292,-76.4816 677.6128,-62.4561"/>
<polygon fill="#00ff00" stroke="#00ff00" stroke-width=".262" points="678.5401,-65.8339 687.4847,-60.1554 676.9512,-59.0166 678.5401,-65.8339"/>
</g>
<!-- F_agent&#45;&gt;forward -->
<g id="edge12" class="edge">
<title>F_agent&#45;&gt;forward</title>
<path fill="none" stroke="#00ff00" stroke-width=".4869" stroke-dasharray="1,5" d="M445.9344,-248.095C418.5533,-242.5588 373.8397,-228.9538 352.8728,-197.2203 333.5583,-167.9877 334.2199,-127.4306 338.5905,-97.2524"/>
<polygon fill="#00ff00" stroke="#00ff00" stroke-width=".4869" points="342.0997,-97.481 340.2644,-87.0464 335.192,-96.348 342.0997,-97.481"/>
</g>
<!-- F_agent&#45;&gt;backward -->
<g id="edge4" class="edge">
<title>F_agent&#45;&gt;backward</title>
<path fill="none" stroke="#ff0000" stroke-width=".3327" d="M491.4914,-250.0789C607.0962,-242.2411 1127.0719,-206.5218 1140.8728,-197.2203 1149.965,-191.0924 1175.343,-137.6003 1193.1498,-98.222"/>
<polygon fill="#ff0000" stroke="#ff0000" stroke-width=".3327" points="1196.3629,-99.6106 1197.2742,-89.055 1189.9793,-96.7384 1196.3629,-99.6106"/>
</g>
<!-- 487 -->
<g id="node25" class="node">
<title>487</title>
<ellipse fill="#ffffff" stroke="#000000" cx="279.8728" cy="-172.4716" rx="21.4286" ry="21.4286"/>
<text text-anchor="middle" x="279.8728" y="-170.2716" font-family="Times,serif" font-size="9.00" fill="#000000">487</text>
</g>
<!-- F_agent&#45;&gt;487 -->
<g id="edge60" class="edge">
<title>F_agent&#45;&gt;487</title>
<path fill="none" stroke="#ff0000" stroke-width=".3973" d="M446.1401,-245.71C415.3633,-237.2586 359.195,-220.1531 314.8728,-197.2203 311.5721,-195.5125 308.2273,-193.5293 304.9812,-191.443"/>
<polygon fill="#ff0000" stroke="#ff0000" stroke-width=".3973" points="306.949,-188.5486 296.7173,-185.7984 303.0008,-194.3289 306.949,-188.5486"/>
</g>
<!-- 1046 -->
<g id="node30" class="node">
<title>1046</title>
<ellipse fill="#ffffff" stroke="#000000" cx="495.8728" cy="-172.4716" rx="25" ry="25"/>
<text text-anchor="middle" x="495.8728" y="-170.2716" font-family="Times,serif" font-size="9.00" fill="#000000">1046</text>
</g>
<!-- F_agent&#45;&gt;1046 -->
<g id="edge69" class="edge">
<title>F_agent&#45;&gt;1046</title>
<path fill="none" stroke="#ff0000" stroke-width=".1527" d="M471.9701,-242.5275C475.0687,-233.4458 480.0226,-218.9264 484.6191,-205.4547"/>
<polygon fill="#ff0000" stroke="#ff0000" stroke-width=".1527" points="487.9545,-206.5177 487.8713,-195.9231 481.3295,-204.2572 487.9545,-206.5177"/>
</g>
<!-- F_lm -->
<g id="node12" class="node">
<title>F_lm</title>
<polygon fill="#d3d3d3" stroke="#000000" points="1131.8728,-181.4716 1095.8728,-181.4716 1095.8728,-163.4716 1131.8728,-163.4716 1131.8728,-181.4716"/>
<text text-anchor="middle" x="1113.8728" y="-170.2716" font-family="Times,serif" font-size="9.00" fill="#000000">F_lm</text>
</g>
<!-- F_lm&#45;&gt;none -->
<g id="edge6" class="edge">
<title>F_lm&#45;&gt;none</title>
<path fill="none" stroke="#ff0000" stroke-width=".4214" stroke-dasharray="1,5" d="M1104.0643,-163.3214C1084.8098,-145.3593 1041.5369,-104.9908 1013.854,-79.1659"/>
<polygon fill="#ff0000" stroke="#ff0000" stroke-width=".4214" points="1016.1921,-76.5606 1006.4924,-72.2984 1011.4171,-81.6791 1016.1921,-76.5606"/>
</g>
<!-- F_lm&#45;&gt;right -->
<g id="edge3" class="edge">
<title>F_lm&#45;&gt;right</title>
<path fill="none" stroke="#00ff00" stroke-width=".4887" d="M1132.0061,-167.6306C1152.5023,-162.2721 1186.918,-153.6153 1216.8728,-147.7229 1320.1178,-127.4137 1363.7279,-170.6954 1450.8728,-111.7229 1459.7584,-105.7098 1466.6003,-96.4381 1471.6891,-87.165"/>
<polygon fill="#00ff00" stroke="#00ff00" stroke-width=".4887" points="1474.9191,-88.5287 1476.2044,-78.0121 1468.6414,-85.4317 1474.9191,-88.5287"/>
</g>
<!-- F_lm&#45;&gt;forward -->
<g id="edge44" class="edge">
<title>F_lm&#45;&gt;forward</title>
<path fill="none" stroke="#ff0000" stroke-width=".1895" d="M1106.4122,-163.0583C1101.4928,-157.5802 1094.5544,-151.106 1086.8728,-147.7229 1003.3721,-110.9476 768.3697,-123.3463 677.8728,-111.7229 573.3253,-98.2948 451.2451,-75.8482 388.9742,-63.9066"/>
<polygon fill="#ff0000" stroke="#ff0000" stroke-width=".1895" points="389.6252,-60.4677 379.1437,-62.0132 388.3013,-67.3414 389.6252,-60.4677"/>
</g>
<!-- F_lm&#45;&gt;clockwise -->
<g id="edge24" class="edge">
<title>F_lm&#45;&gt;clockwise</title>
<path fill="none" stroke="#00ff00" stroke-width=".149" d="M1132.0245,-167.0253C1160.1857,-158.0921 1215.4676,-138.5968 1256.8728,-111.7229 1266.3787,-105.5531 1275.7758,-97.8172 1284.2122,-90.0863"/>
<polygon fill="#00ff00" stroke="#00ff00" stroke-width=".149" points="1286.8079,-92.4486 1291.6654,-83.0329 1281.9964,-87.3644 1286.8079,-92.4486"/>
</g>
<!-- G_agent -->
<g id="node13" class="node">
<title>G_agent</title>
<polygon fill="#d3d3d3" stroke="#000000" points="1507.3728,-181.4716 1460.3728,-181.4716 1460.3728,-163.4716 1507.3728,-163.4716 1507.3728,-181.4716"/>
<text text-anchor="middle" x="1483.8728" y="-170.2716" font-family="Times,serif" font-size="9.00" fill="#000000">G_agent</text>
</g>
<!-- G_agent&#45;&gt;none -->
<g id="edge49" class="edge">
<title>G_agent&#45;&gt;none</title>
<path fill="none" stroke="#00ff00" stroke-width=".4678" d="M1460.1341,-166.708C1438.1044,-161.4484 1404.3673,-153.6196 1374.8728,-147.7229 1282.8745,-129.3301 1258.0529,-133.8176 1166.8728,-111.7229 1115.3033,-99.2266 1056.8397,-79.8468 1021.4257,-67.5116"/>
<polygon fill="#00ff00" stroke="#00ff00" stroke-width=".4678" points="1022.2357,-64.0866 1011.6409,-64.078 1019.9178,-70.6918 1022.2357,-64.0866"/>
</g>
<!-- G_agent&#45;&gt;right -->
<g id="edge23" class="edge">
<title>G_agent&#45;&gt;right</title>
<path fill="none" stroke="#00ff00" stroke-width=".7695" d="M1483.8728,-163.3214C1483.8728,-147.6302 1483.8728,-114.8402 1483.8728,-89.5838"/>
<polygon fill="#00ff00" stroke="#00ff00" stroke-width=".7695" points="1487.3729,-89.2927 1483.8728,-79.2927 1480.3729,-89.2927 1487.3729,-89.2927"/>
</g>
<!-- G_agent&#45;&gt;left -->
<g id="edge25" class="edge">
<title>G_agent&#45;&gt;left</title>
<path fill="none" stroke="#00ff00" stroke-width=".1468" d="M1460.2394,-166.1157C1438.2823,-160.4475 1404.5928,-152.3511 1374.8728,-147.7229 1190.1905,-118.9625 1140.5921,-140.2451 955.8728,-111.7229 875.4439,-99.304 782.235,-75.9459 735.9969,-63.7415"/>
<polygon fill="#00ff00" stroke="#00ff00" stroke-width=".1468" points="736.6387,-60.2906 726.0751,-61.103 734.8397,-67.0555 736.6387,-60.2906"/>
</g>
<!-- G_agent&#45;&gt;backward -->
<g id="edge19" class="edge">
<title>G_agent&#45;&gt;backward</title>
<path fill="none" stroke="#00ff00" stroke-width=".2056" stroke-dasharray="1,5" d="M1472.5284,-163.4586C1465.2872,-158.1311 1455.4845,-151.6747 1445.8728,-147.7229 1372.4315,-117.5276 1341.2882,-148.4251 1270.8728,-111.7229 1260.7213,-106.4316 1251.0766,-98.8812 1242.6378,-91.0357"/>
<polygon fill="#00ff00" stroke="#00ff00" stroke-width=".2056" points="1244.8423,-88.296 1235.2469,-83.804 1239.9468,-93.2994 1244.8423,-88.296"/>
</g>
<!-- G_agent&#45;&gt;counterclockwise -->
<g id="edge33" class="edge">
<title>G_agent&#45;&gt;counterclockwise</title>
<path fill="none" stroke="#00ff00" stroke-width=".2195" d="M1491.4842,-163.3214C1501.7069,-151.0321 1520.6542,-128.2542 1538.4824,-106.8217"/>
<polygon fill="#00ff00" stroke="#00ff00" stroke-width=".2195" points="1541.2776,-108.9345 1544.9818,-99.0084 1535.896,-104.458 1541.2776,-108.9345"/>
</g>
<!-- 571 -->
<g id="node32" class="node">
<title>571</title>
<ellipse fill="#ffffff" stroke="#000000" cx="1420.8728" cy="-55.8614" rx="21.4286" ry="21.4286"/>
<text text-anchor="middle" x="1420.8728" y="-53.6614" font-family="Times,serif" font-size="9.00" fill="#000000">571</text>
</g>
<!-- G_agent&#45;&gt;571 -->
<g id="edge63" class="edge">
<title>G_agent&#45;&gt;571</title>
<path fill="none" stroke="#00ff00" stroke-width="1.3775" d="M1478.9293,-163.3214C1469.7839,-146.3937 1449.8873,-109.5659 1435.9481,-83.7651"/>
<polygon fill="#00ff00" stroke="#00ff00" stroke-width="1.3775" points="1438.9458,-81.9502 1431.1131,-74.8158 1432.7871,-85.2775 1438.9458,-81.9502"/>
</g>
<!-- G_lm -->
<g id="node14" class="node">
<title>G_lm</title>
<polygon fill="#d3d3d3" stroke="#000000" points="1365.3728,-181.4716 1328.3728,-181.4716 1328.3728,-163.4716 1365.3728,-163.4716 1365.3728,-181.4716"/>
<text text-anchor="middle" x="1346.8728" y="-170.2716" font-family="Times,serif" font-size="9.00" fill="#000000">G_lm</text>
</g>
<!-- G_lm&#45;&gt;none -->
<g id="edge45" class="edge">
<title>G_lm&#45;&gt;none</title>
<path fill="none" stroke="#ff0000" stroke-width=".1177" d="M1328.194,-165.1603C1315.0309,-160.0835 1296.9552,-153.2634 1280.8728,-147.7229 1274.5443,-145.5427 1097.2347,-89.8709 1022.056,-66.2749"/>
<polygon fill="#ff0000" stroke="#ff0000" stroke-width=".1177" points="1022.7434,-62.8224 1012.1542,-63.1672 1020.6472,-69.5012 1022.7434,-62.8224"/>
</g>
<!-- G_lm&#45;&gt;right -->
<g id="edge29" class="edge">
<title>G_lm&#45;&gt;right</title>
<path fill="none" stroke="#ff0000" stroke-width=".3677" stroke-dasharray="1,5" d="M1365.6667,-164.9996C1388.0814,-155.3582 1425.6753,-136.7966 1450.8728,-111.7229 1458.221,-104.4108 1464.5507,-95.1366 1469.6446,-86.2561"/>
<polygon fill="#ff0000" stroke="#ff0000" stroke-width=".3677" points="1472.8384,-87.7072 1474.4965,-77.2429 1466.6747,-84.3892 1472.8384,-87.7072"/>
</g>
<!-- G_lm&#45;&gt;backward -->
<g id="edge1" class="edge">
<title>G_lm&#45;&gt;backward</title>
<path fill="none" stroke="#00ff00" stroke-width=".4941" d="M1334.7734,-163.3031C1319.5622,-151.6634 1292.788,-130.7973 1270.8728,-111.7229 1262.4007,-104.3489 1253.4909,-96.1579 1245.2355,-88.3714"/>
<polygon fill="#00ff00" stroke="#00ff00" stroke-width=".4941" points="1247.5286,-85.7222 1237.8692,-81.3694 1242.7059,-90.7958 1247.5286,-85.7222"/>
</g>
<!-- H_agent -->
<g id="node15" class="node">
<title>H_agent</title>
<polygon fill="#d3d3d3" stroke="#000000" points="1077.3728,-181.4716 1030.3728,-181.4716 1030.3728,-163.4716 1077.3728,-163.4716 1077.3728,-181.4716"/>
<text text-anchor="middle" x="1053.8728" y="-170.2716" font-family="Times,serif" font-size="9.00" fill="#000000">H_agent</text>
</g>
<!-- H_agent&#45;&gt;none -->
<g id="edge46" class="edge">
<title>H_agent&#45;&gt;none</title>
<path fill="none" stroke="#ff0000" stroke-width=".2315" d="M1048.7724,-163.3214C1039.6032,-146.8718 1019.9593,-111.6307 1005.6598,-85.9773"/>
<polygon fill="#ff0000" stroke="#ff0000" stroke-width=".2315" points="1008.5887,-84.043 1000.6627,-77.0125 1002.4744,-87.4512 1008.5887,-84.043"/>
</g>
<!-- H_agent&#45;&gt;backward -->
<g id="edge51" class="edge">
<title>H_agent&#45;&gt;backward</title>
<path fill="none" stroke="#ff0000" stroke-width=".52" stroke-dasharray="1,5" d="M1066.0756,-163.2758C1072.2906,-158.6035 1079.9728,-152.8454 1086.8728,-147.7229 1116.2084,-125.9442 1149.5561,-101.4504 1174.4252,-83.2353"/>
<polygon fill="#ff0000" stroke="#ff0000" stroke-width=".52" points="1176.515,-86.0432 1182.516,-77.3118 1172.3798,-80.3951 1176.515,-86.0432"/>
</g>
<!-- H_agent&#45;&gt;clockwise -->
<g id="edge35" class="edge">
<title>H_agent&#45;&gt;clockwise</title>
<path fill="none" stroke="#00ff00" stroke-width=".3626" d="M1063.541,-163.427C1069.7603,-158.0876 1078.265,-151.6298 1086.8728,-147.7229 1157.1989,-115.803 1188.3403,-147.3309 1256.8728,-111.7229 1267.0257,-106.4477 1276.7187,-98.9769 1285.2396,-91.2098"/>
<polygon fill="#00ff00" stroke="#00ff00" stroke-width=".3626" points="1287.9154,-93.4933 1292.7149,-84.0478 1283.0727,-88.4387 1287.9154,-93.4933"/>
</g>
<!-- H_lm -->
<g id="node16" class="node">
<title>H_lm</title>
<polygon fill="#d3d3d3" stroke="#000000" points="60.3728,-260.6051 23.3728,-260.6051 23.3728,-242.6051 60.3728,-242.6051 60.3728,-260.6051"/>
<text text-anchor="middle" x="41.8728" y="-249.4051" font-family="Times,serif" font-size="9.00" fill="#000000">H_lm</text>
</g>
<!-- H_lm&#45;&gt;forward -->
<g id="edge17" class="edge">
<title>H_lm&#45;&gt;forward</title>
<path fill="none" stroke="#00ff00" stroke-width=".3416" stroke-dasharray="1,5" d="M33.6659,-242.3249C17.5312,-222.9213 -14.8541,-177.405 7.8728,-147.7229 44.2329,-100.2352 223.5766,-71.6809 306.1366,-60.8547"/>
<polygon fill="#00ff00" stroke="#00ff00" stroke-width=".3416" points="306.7083,-64.3101 316.18,-59.5628 305.8151,-57.3673 306.7083,-64.3101"/>
</g>
<!-- H_lm&#45;&gt;clockwise -->
<g id="edge11" class="edge">
<title>H_lm&#45;&gt;clockwise</title>
<path fill="none" stroke="#ff0000" stroke-width=".1742" d="M60.4631,-245.8817C75.5128,-241.5327 97.3435,-235.863 116.8728,-233.2203 186.1589,-223.8448 1326.1459,-247.3616 1374.8728,-197.2203 1403.8456,-167.4066 1375.6086,-121.119 1349.3494,-89.7008"/>
<polygon fill="#ff0000" stroke="#ff0000" stroke-width=".1742" points="1351.934,-87.3386 1342.752,-82.0526 1346.6335,-91.9108 1351.934,-87.3386"/>
</g>
<!-- 1200 -->
<g id="node28" class="node">
<title>1200</title>
<ellipse fill="#ffffff" stroke="#000000" cx="41.8728" cy="-172.4716" rx="25" ry="25"/>
<text text-anchor="middle" x="41.8728" y="-170.2716" font-family="Times,serif" font-size="9.00" fill="#000000">1200</text>
</g>
<!-- H_lm&#45;&gt;1200 -->
<g id="edge71" class="edge">
<title>H_lm&#45;&gt;1200</title>
<path fill="none" stroke="#00ff00" stroke-width=".5973" d="M41.8728,-242.5275C41.8728,-233.8784 41.8728,-220.2973 41.8728,-207.3863"/>
<polygon fill="#00ff00" stroke="#00ff00" stroke-width=".5973" points="45.3729,-207.2826 41.8728,-197.2827 38.3729,-207.2827 45.3729,-207.2826"/>
</g>
<!-- no_stimuli -->
<g id="node17" class="node">
<title>no_stimuli</title>
<polygon fill="#d3d3d3" stroke="#000000" points="1826.3728,-181.4716 1771.3728,-181.4716 1771.3728,-163.4716 1826.3728,-163.4716 1826.3728,-181.4716"/>
<text text-anchor="middle" x="1798.8728" y="-170.2716" font-family="Times,serif" font-size="9.00" fill="#000000">no_stimuli</text>
</g>
<!-- no_stimuli&#45;&gt;counterclockwise -->
<g id="edge20" class="edge">
<title>no_stimuli&#45;&gt;counterclockwise</title>
<path fill="none" stroke="#00ff00" stroke-width=".4139" stroke-dasharray="1,5" d="M1783.8177,-163.347C1775.8624,-158.5899 1765.9005,-152.7343 1756.8728,-147.7229 1718.2825,-126.3007 1674.2606,-103.3245 1639.8973,-85.7093"/>
<polygon fill="#00ff00" stroke="#00ff00" stroke-width=".4139" points="1641.4239,-82.5589 1630.9271,-81.1203 1638.2357,-88.7907 1641.4239,-82.5589"/>
</g>
<!-- 487&#45;&gt;forward -->
<g id="edge61" class="edge">
<title>487&#45;&gt;forward</title>
<path fill="none" stroke="#00ff00" stroke-width=".142" d="M290.6476,-153.9944C300.3037,-137.4355 314.7473,-112.6669 326.7075,-92.1569"/>
<polygon fill="#00ff00" stroke="#00ff00" stroke-width=".142" points="329.8164,-93.7735 331.8304,-83.3718 323.7694,-90.2472 329.8164,-93.7735"/>
</g>
<!-- 613 -->
<g id="node26" class="node">
<title>613</title>
<ellipse fill="#ffffff" stroke="#000000" cx="143.8728" cy="-172.4716" rx="21.4286" ry="21.4286"/>
<text text-anchor="middle" x="143.8728" y="-170.2716" font-family="Times,serif" font-size="9.00" fill="#000000">613</text>
</g>
<!-- 613&#45;&gt;forward -->
<g id="edge65" class="edge">
<title>613&#45;&gt;forward</title>
<path fill="none" stroke="#ff0000" stroke-width=".538" stroke-dasharray="1,5" d="M161.0463,-159.7233C166.637,-155.7377 172.9335,-151.4191 178.8728,-147.7229 222.6706,-120.4659 275.1475,-92.6553 309.8815,-74.884"/>
<polygon fill="#ff0000" stroke="#ff0000" stroke-width=".538" points="311.8624,-77.803 319.1858,-70.1467 308.6863,-71.5651 311.8624,-77.803"/>
</g>
<!-- 880&#45;&gt;none -->
<g id="edge67" class="edge">
<title>880&#45;&gt;none</title>
<path fill="none" stroke="#ff0000" stroke-width=".5444" d="M841.2188,-160.2127C869.7462,-140.0516 926.8093,-99.7235 961.0399,-75.5317"/>
<polygon fill="#ff0000" stroke="#ff0000" stroke-width=".5444" points="963.073,-78.3808 969.2194,-69.751 959.033,-72.6643 963.073,-78.3808"/>
</g>
<!-- 1200&#45;&gt;forward -->
<g id="edge72" class="edge">
<title>1200&#45;&gt;forward</title>
<path fill="none" stroke="#ff0000" stroke-width=".5304" stroke-dasharray="1,5" d="M62.4045,-158.1807C68.2177,-154.4867 74.6582,-150.7127 80.8728,-147.7229 157.8552,-110.6867 253.7565,-81.5055 307.1454,-66.6476"/>
<polygon fill="#ff0000" stroke="#ff0000" stroke-width=".5304" points="308.2101,-69.9847 316.9218,-63.955 306.3513,-63.236 308.2101,-69.9847"/>
</g>
<!-- 1269&#45;&gt;left -->
<g id="edge74" class="edge">
<title>1269&#45;&gt;left</title>
<path fill="none" stroke="#ff0000" stroke-width=".134" d="M749.5281,-149.7112C740.8813,-130.6866 728.5236,-103.4974 719.3334,-83.2771"/>
<polygon fill="#ff0000" stroke="#ff0000" stroke-width=".134" points="722.4305,-81.6324 715.1063,-73.9768 716.0578,-84.5288 722.4305,-81.6324"/>
</g>
<!-- 1046&#45;&gt;left -->
<g id="edge70" class="edge">
<title>1046&#45;&gt;left</title>
<path fill="none" stroke="#00ff00" stroke-width=".1243" d="M515.6635,-157.3008C520.2403,-154.0089 525.1539,-150.6419 529.8728,-147.7229 581.0077,-116.092 644.2237,-85.1005 679.5949,-68.4384"/>
<polygon fill="#00ff00" stroke="#00ff00" stroke-width=".1243" points="681.2264,-71.5393 688.7999,-64.1302 678.2591,-65.1993 681.2264,-71.5393"/>
</g>
<!-- 537 -->
<g id="node31" class="node">
<title>537</title>
<ellipse fill="#ffffff" stroke="#000000" cx="1655.8728" cy="-172.4716" rx="21.4286" ry="21.4286"/>
<text text-anchor="middle" x="1655.8728" y="-170.2716" font-family="Times,serif" font-size="9.00" fill="#000000">537</text>
</g>
<!-- 537&#45;&gt;right -->
<g id="edge62" class="edge">
<title>537&#45;&gt;right</title>
<path fill="none" stroke="#ff0000" stroke-width=".1843" d="M1640.1724,-157.6708C1635.7799,-154.0615 1630.8418,-150.457 1625.8728,-147.7229 1580.8045,-122.9243 1555.7602,-144.2055 1515.8728,-111.7229 1507.8326,-105.1753 1501.4173,-96.037 1496.5051,-87.0456"/>
<polygon fill="#ff0000" stroke="#ff0000" stroke-width=".1843" points="1499.5142,-85.2365 1491.925,-77.8436 1493.2475,-88.3556 1499.5142,-85.2365"/>
</g>
<!-- 61&#45;&gt;forward -->
<g id="edge59" class="edge">
<title>61&#45;&gt;forward</title>
<path fill="none" stroke="#ff0000" stroke-width=".1148" d="M132.4781,-236.9563C117.4034,-215.6577 94.8395,-175.6421 113.8728,-147.7229 136.3449,-114.7593 246.0624,-82.0273 306.9517,-66.0079"/>
<polygon fill="#ff0000" stroke="#ff0000" stroke-width=".1148" points="307.8444,-69.3923 316.6434,-63.4908 306.0847,-62.6171 307.8444,-69.3923"/>
</g>
<!-- 61&#45;&gt;613 -->
<g id="edge64" class="edge">
<title>61&#45;&gt;613</title>
<path fill="none" stroke="#ff0000" stroke-width=".1688" d="M143.8728,-232.8516C143.8728,-224.2591 143.8728,-213.8359 143.8728,-204.0849"/>
<polygon fill="#ff0000" stroke="#ff0000" stroke-width=".1688" points="147.3729,-203.8862 143.8728,-193.8863 140.3729,-203.8863 147.3729,-203.8862"/>
</g>
</g>
</svg>
