<?xml version="1.0" encoding="UTF-8" standalone="no"?>
<!DOCTYPE svg PUBLIC "-//W3C//DTD SVG 1.1//EN"
 "http://www.w3.org/Graphics/SVG/1.1/DTD/svg11.dtd">
<!-- Generated by graphviz version 2.40.1 (20161225.0304)
 -->
<!-- Title: %3 Pages: 1 -->
<svg width="868pt" height="207pt"
 viewBox="0.00 0.00 868.29 206.89" xmlns="http://www.w3.org/2000/svg" xmlns:xlink="http://www.w3.org/1999/xlink">
<g id="graph0" class="graph" transform="scale(1 1) rotate(0) translate(4 202.8944)">
<title>%3</title>
<polygon fill="#ffffff" stroke="transparent" points="-4,4 -4,-202.8944 864.2878,-202.8944 864.2878,4 -4,4"/>
<!-- x&#45;vel -->
<g id="node1" class="node">
<title>x&#45;vel</title>
<polygon fill="#d3d3d3" stroke="#000000" points="604.5,-135.5097 569.5,-135.5097 569.5,-117.5097 604.5,-117.5097 604.5,-135.5097"/>
<text text-anchor="middle" x="587" y="-124.3097" font-family="Times,serif" font-size="9.00" fill="#000000">x&#45;vel</text>
</g>
<!-- right -->
<g id="node14" class="node">
<title>right</title>
<ellipse fill="#add8e6" stroke="#000000" cx="235" cy="-36.0624" rx="23.1702" ry="23.1702"/>
<text text-anchor="middle" x="235" y="-33.8624" font-family="Times,serif" font-size="9.00" fill="#000000">right</text>
</g>
<!-- x&#45;vel&#45;&gt;right -->
<g id="edge22" class="edge">
<title>x&#45;vel&#45;&gt;right</title>
<path fill="none" stroke="#00ff00" stroke-width=".1181" d="M569.4894,-120.9342C556.4888,-116.9475 538.2691,-111.6797 522,-108.1249 420.489,-85.9445 388.1216,-109.0551 291,-72.1249 280.8669,-68.2718 270.6453,-62.4044 261.759,-56.5148"/>
<polygon fill="#00ff00" stroke="#00ff00" stroke-width=".1181" points="263.5811,-53.5191 253.3705,-50.6916 259.5893,-59.2694 263.5811,-53.5191"/>
</g>
<!-- left -->
<g id="node15" class="node">
<title>left</title>
<ellipse fill="#add8e6" stroke="#000000" cx="652" cy="-36.0624" rx="19.6" ry="19.6"/>
<text text-anchor="middle" x="652" y="-33.8624" font-family="Times,serif" font-size="9.00" fill="#000000">left</text>
</g>
<!-- x&#45;vel&#45;&gt;left -->
<g id="edge23" class="edge">
<title>x&#45;vel&#45;&gt;left</title>
<path fill="none" stroke="#00ff00" stroke-width=".1925" d="M593.4701,-117.5066C602.9379,-104.3321 620.9112,-79.3224 634.4541,-60.4775"/>
<polygon fill="#00ff00" stroke="#00ff00" stroke-width=".1925" points="637.3246,-62.4806 640.3183,-52.3175 631.6403,-58.3955 637.3246,-62.4806"/>
</g>
<!-- backward -->
<g id="node17" class="node">
<title>backward</title>
<ellipse fill="#add8e6" stroke="#000000" cx="495" cy="-36.0624" rx="36.125" ry="36.125"/>
<text text-anchor="middle" x="495" y="-33.8624" font-family="Times,serif" font-size="9.00" fill="#000000">backward</text>
</g>
<!-- x&#45;vel&#45;&gt;backward -->
<g id="edge2" class="edge">
<title>x&#45;vel&#45;&gt;backward</title>
<path fill="none" stroke="#00ff00" stroke-width=".1579" d="M577.8423,-117.5066C566.3094,-106.1683 545.8599,-86.064 528.1649,-68.6675"/>
<polygon fill="#00ff00" stroke="#00ff00" stroke-width=".1579" points="530.3686,-65.926 520.7839,-61.4112 525.4612,-70.9177 530.3686,-65.926"/>
</g>
<!-- y&#45;vel -->
<g id="node2" class="node">
<title>y&#45;vel</title>
<polygon fill="#d3d3d3" stroke="#000000" points="842.5,-135.5097 807.5,-135.5097 807.5,-117.5097 842.5,-117.5097 842.5,-135.5097"/>
<text text-anchor="middle" x="825" y="-124.3097" font-family="Times,serif" font-size="9.00" fill="#000000">y&#45;vel</text>
</g>
<!-- y&#45;vel&#45;&gt;left -->
<g id="edge29" class="edge">
<title>y&#45;vel&#45;&gt;left</title>
<path fill="none" stroke="#00ff00" stroke-width=".5978" d="M810.6736,-117.4408C805.2631,-114.2416 798.9703,-110.7831 793,-108.1249 746.0068,-87.202 725.7864,-100.6809 683,-72.1249 678.193,-68.9167 673.697,-64.7666 669.7014,-60.4297"/>
<polygon fill="#00ff00" stroke="#00ff00" stroke-width=".5978" points="672.2108,-57.9761 663.0905,-52.5844 666.8579,-62.4868 672.2108,-57.9761"/>
</g>
<!-- x&#45;pos -->
<g id="node3" class="node">
<title>x&#45;pos</title>
<polygon fill="#d3d3d3" stroke="#000000" points="513,-135.5097 477,-135.5097 477,-117.5097 513,-117.5097 513,-135.5097"/>
<text text-anchor="middle" x="495" y="-124.3097" font-family="Times,serif" font-size="9.00" fill="#000000">x&#45;pos</text>
</g>
<!-- none -->
<g id="node13" class="node">
<title>none</title>
<ellipse fill="#add8e6" stroke="#000000" cx="324" cy="-36.0624" rx="24.0833" ry="24.0833"/>
<text text-anchor="middle" x="324" y="-33.8624" font-family="Times,serif" font-size="9.00" fill="#000000">none</text>
</g>
<!-- x&#45;pos&#45;&gt;none -->
<g id="edge6" class="edge">
<title>x&#45;pos&#45;&gt;none</title>
<path fill="none" stroke="#00ff00" stroke-width=".1001" d="M482.3176,-117.3603C477.8726,-114.2924 472.7926,-110.9387 468,-108.1249 430.313,-85.9979 384.9558,-64.0227 355.3496,-50.2651"/>
<polygon fill="#00ff00" stroke="#00ff00" stroke-width=".1001" points="356.4934,-46.9382 345.947,-45.9261 353.5604,-53.2941 356.4934,-46.9382"/>
</g>
<!-- x&#45;pos&#45;&gt;backward -->
<g id="edge4" class="edge">
<title>x&#45;pos&#45;&gt;backward</title>
<path fill="none" stroke="#ff0000" stroke-width=".2439" d="M495,-117.5066C495,-109.1034 495,-95.8852 495,-82.523"/>
<polygon fill="#ff0000" stroke="#ff0000" stroke-width=".2439" points="498.5001,-82.354 495,-72.354 491.5001,-82.3541 498.5001,-82.354"/>
</g>
<!-- y&#45;pos -->
<g id="node4" class="node">
<title>y&#45;pos</title>
<polygon fill="#d3d3d3" stroke="#000000" points="36,-135.5097 0,-135.5097 0,-117.5097 36,-117.5097 36,-135.5097"/>
<text text-anchor="middle" x="18" y="-124.3097" font-family="Times,serif" font-size="9.00" fill="#000000">y&#45;pos</text>
</g>
<!-- y&#45;pos&#45;&gt;right -->
<g id="edge8" class="edge">
<title>y&#45;pos&#45;&gt;right</title>
<path fill="none" stroke="#00ff00" stroke-width=".2054" d="M29.9871,-117.4557C34.5413,-114.2582 39.8697,-110.7968 45,-108.1249 97.9938,-80.525 164.0295,-57.9032 202.6555,-45.7529"/>
<polygon fill="#00ff00" stroke="#00ff00" stroke-width=".2054" points="203.8128,-49.0585 212.3251,-42.7504 201.737,-42.3733 203.8128,-49.0585"/>
</g>
<!-- 33 -->
<g id="node18" class="node">
<title>33</title>
<ellipse fill="#ffffff" stroke="#000000" cx="77" cy="-36.0624" rx="18.2703" ry="18.2703"/>
<text text-anchor="middle" x="77" y="-33.8624" font-family="Times,serif" font-size="9.00" fill="#000000">33</text>
</g>
<!-- y&#45;pos&#45;&gt;33 -->
<g id="edge33" class="edge">
<title>y&#45;pos&#45;&gt;33</title>
<path fill="none" stroke="#00ff00" stroke-width=".4154" d="M23.8728,-117.5066C32.5286,-104.2372 49.0165,-78.9613 61.3389,-60.071"/>
<polygon fill="#00ff00" stroke="#00ff00" stroke-width=".4154" points="64.3003,-61.9373 66.8324,-51.6495 58.4374,-58.1128 64.3003,-61.9373"/>
</g>
<!-- x&#45;lm1&#45;vec -->
<g id="node5" class="node">
<title>x&#45;lm1&#45;vec</title>
<polygon fill="#d3d3d3" stroke="#000000" points="686.5,-198.8944 633.5,-198.8944 633.5,-180.8944 686.5,-180.8944 686.5,-198.8944"/>
<text text-anchor="middle" x="660" y="-187.6944" font-family="Times,serif" font-size="9.00" fill="#000000">x&#45;lm1&#45;vec</text>
</g>
<!-- x&#45;lm1&#45;vec&#45;&gt;left -->
<g id="edge12" class="edge">
<title>x&#45;lm1&#45;vec&#45;&gt;left</title>
<path fill="none" stroke="#00ff00" stroke-width=".507" d="M686.9324,-185.9794C710.6981,-180.9441 743.9776,-169.6745 760,-144.8944 768.8732,-131.1712 768.7736,-121.912 760,-108.1249 739.718,-76.2532 713.0962,-94.9586 683,-72.1249 678.4781,-68.6941 674.1491,-64.5052 670.2357,-60.2127"/>
<polygon fill="#00ff00" stroke="#00ff00" stroke-width=".507" points="672.8336,-57.865 663.6882,-52.5159 667.5018,-62.4006 672.8336,-57.865"/>
</g>
<!-- forward -->
<g id="node16" class="node">
<title>forward</title>
<ellipse fill="#add8e6" stroke="#000000" cx="724" cy="-36.0624" rx="31.6406" ry="31.6406"/>
<text text-anchor="middle" x="724" y="-33.8624" font-family="Times,serif" font-size="9.00" fill="#000000">forward</text>
</g>
<!-- x&#45;lm1&#45;vec&#45;&gt;forward -->
<g id="edge13" class="edge">
<title>x&#45;lm1&#45;vec&#45;&gt;forward</title>
<path fill="none" stroke="#ff0000" stroke-width=".1945" d="M686.5448,-187.6563C734.3001,-183.0201 831.6357,-170.5835 852,-144.8944 883.7006,-104.905 812.2952,-68.7455 763.9018,-49.8572"/>
<polygon fill="#ff0000" stroke="#ff0000" stroke-width=".1945" points="764.86,-46.4774 754.2687,-46.2036 762.3776,-53.0224 764.86,-46.4774"/>
</g>
<!-- x&#45;lm1&#45;vec&#45;&gt;backward -->
<g id="edge15" class="edge">
<title>x&#45;lm1&#45;vec&#45;&gt;backward</title>
<path fill="none" stroke="#ff0000" stroke-width=".2991" d="M633.1629,-182.5312C611.7175,-175.589 581.8934,-163.4477 561,-144.8944 540.5423,-126.7282 524.435,-100.6769 513.2552,-78.6171"/>
<polygon fill="#ff0000" stroke="#ff0000" stroke-width=".2991" points="516.3053,-76.8869 508.7673,-69.4418 510.0172,-79.9627 516.3053,-76.8869"/>
</g>
<!-- 65 -->
<g id="node19" class="node">
<title>65</title>
<ellipse fill="#ffffff" stroke="#000000" cx="72" cy="-126.5097" rx="18.2703" ry="18.2703"/>
<text text-anchor="middle" x="72" y="-124.3097" font-family="Times,serif" font-size="9.00" fill="#000000">65</text>
</g>
<!-- x&#45;lm1&#45;vec&#45;&gt;65 -->
<g id="edge31" class="edge">
<title>x&#45;lm1&#45;vec&#45;&gt;65</title>
<path fill="none" stroke="#00ff00" stroke-width=".3858" d="M633.2264,-189.5548C535.6333,-188.0386 199.4439,-180.3035 99,-144.8944 97.7665,-144.4596 96.5362,-143.9539 95.3184,-143.3937"/>
<polygon fill="#00ff00" stroke="#00ff00" stroke-width=".3858" points="96.8067,-140.2134 86.3858,-138.3013 93.3398,-146.2946 96.8067,-140.2134"/>
</g>
<!-- y&#45;lm1&#45;vec -->
<g id="node6" class="node">
<title>y&#45;lm1&#45;vec</title>
<polygon fill="#d3d3d3" stroke="#000000" points="458.5,-135.5097 405.5,-135.5097 405.5,-117.5097 458.5,-117.5097 458.5,-135.5097"/>
<text text-anchor="middle" x="432" y="-124.3097" font-family="Times,serif" font-size="9.00" fill="#000000">y&#45;lm1&#45;vec</text>
</g>
<!-- y&#45;lm1&#45;vec&#45;&gt;right -->
<g id="edge9" class="edge">
<title>y&#45;lm1&#45;vec&#45;&gt;right</title>
<path fill="none" stroke="#ff0000" stroke-width=".1843" stroke-dasharray="1,5" d="M415.8755,-117.3656C410.0272,-114.2303 403.307,-110.8327 397,-108.1249 351.2815,-88.4965 335.8059,-93.7555 291,-72.1249 281.3152,-67.4495 271.2766,-61.4117 262.4192,-55.6185"/>
<polygon fill="#ff0000" stroke="#ff0000" stroke-width=".1843" points="264.2641,-52.6414 254.0126,-49.9664 260.3584,-58.4505 264.2641,-52.6414"/>
</g>
<!-- y&#45;lm1&#45;vec&#45;&gt;left -->
<g id="edge17" class="edge">
<title>y&#45;lm1&#45;vec&#45;&gt;left</title>
<path fill="none" stroke="#00ff00" stroke-width=".2108" stroke-dasharray="1,5" d="M449.0447,-117.369C454.9822,-114.3018 461.7279,-110.9463 468,-108.1249 522.194,-83.7462 587.2884,-59.3665 623.7216,-46.148"/>
<polygon fill="#00ff00" stroke="#00ff00" stroke-width=".2108" points="624.987,-49.4124 633.2047,-42.725 622.6104,-42.8282 624.987,-49.4124"/>
</g>
<!-- x&#45;lm2&#45;vec -->
<g id="node7" class="node">
<title>x&#45;lm2&#45;vec</title>
<polygon fill="#d3d3d3" stroke="#000000" points="387.5,-135.5097 334.5,-135.5097 334.5,-117.5097 387.5,-117.5097 387.5,-135.5097"/>
<text text-anchor="middle" x="361" y="-124.3097" font-family="Times,serif" font-size="9.00" fill="#000000">x&#45;lm2&#45;vec</text>
</g>
<!-- x&#45;lm2&#45;vec&#45;&gt;none -->
<g id="edge18" class="edge">
<title>x&#45;lm2&#45;vec&#45;&gt;none</title>
<path fill="none" stroke="#00ff00" stroke-width=".2462" d="M357.317,-117.5066C352.5977,-105.97 344.1658,-85.3581 336.9657,-67.7574"/>
<polygon fill="#00ff00" stroke="#00ff00" stroke-width=".2462" points="340.1495,-66.2961 333.1238,-58.3658 333.6707,-68.9465 340.1495,-66.2961"/>
</g>
<!-- y&#45;lm2&#45;vec -->
<g id="node8" class="node">
<title>y&#45;lm2&#45;vec</title>
<polygon fill="#d3d3d3" stroke="#000000" points="750.5,-135.5097 697.5,-135.5097 697.5,-117.5097 750.5,-117.5097 750.5,-135.5097"/>
<text text-anchor="middle" x="724" y="-124.3097" font-family="Times,serif" font-size="9.00" fill="#000000">y&#45;lm2&#45;vec</text>
</g>
<!-- y&#45;lm2&#45;vec&#45;&gt;right -->
<g id="edge3" class="edge">
<title>y&#45;lm2&#45;vec&#45;&gt;right</title>
<path fill="none" stroke="#00ff00" stroke-width=".1443" stroke-dasharray="1,5" d="M709.4647,-117.4821C703.1058,-113.9636 695.4162,-110.2679 688,-108.1249 517.795,-58.9426 458.5352,-129.7495 291,-72.1249 280.8305,-68.627 270.6592,-62.9113 261.8297,-57.0508"/>
<polygon fill="#00ff00" stroke="#00ff00" stroke-width=".1443" points="263.6967,-54.0854 253.497,-51.2187 259.6828,-59.8203 263.6967,-54.0854"/>
</g>
<!-- y&#45;lm2&#45;vec&#45;&gt;left -->
<g id="edge21" class="edge">
<title>y&#45;lm2&#45;vec&#45;&gt;left</title>
<path fill="none" stroke="#00ff00" stroke-width=".1825" d="M716.8331,-117.5066C706.1745,-104.1171 685.7845,-78.5029 670.7049,-59.5597"/>
<polygon fill="#00ff00" stroke="#00ff00" stroke-width=".1825" points="673.3744,-57.2934 664.408,-51.6495 667.8977,-61.6531 673.3744,-57.2934"/>
</g>
<!-- y&#45;lm2&#45;vec&#45;&gt;forward -->
<g id="edge25" class="edge">
<title>y&#45;lm2&#45;vec&#45;&gt;forward</title>
<path fill="none" stroke="#00ff00" stroke-width=".5715" d="M724,-117.5066C724,-108.2126 724,-93.0285 724,-78.2739"/>
<polygon fill="#00ff00" stroke="#00ff00" stroke-width=".5715" points="727.5001,-78.2054 724,-68.2054 720.5001,-78.2055 727.5001,-78.2054"/>
</g>
<!-- x&#45;other&#45;vec -->
<g id="node9" class="node">
<title>x&#45;other&#45;vec</title>
<polygon fill="#d3d3d3" stroke="#000000" points="316,-135.5097 258,-135.5097 258,-117.5097 316,-117.5097 316,-135.5097"/>
<text text-anchor="middle" x="287" y="-124.3097" font-family="Times,serif" font-size="9.00" fill="#000000">x&#45;other&#45;vec</text>
</g>
<!-- x&#45;other&#45;vec&#45;&gt;none -->
<g id="edge24" class="edge">
<title>x&#45;other&#45;vec&#45;&gt;none</title>
<path fill="none" stroke="#00ff00" stroke-width="1.2492" d="M290.683,-117.5066C295.4023,-105.97 303.8342,-85.3581 311.0343,-67.7574"/>
<polygon fill="#00ff00" stroke="#00ff00" stroke-width="1.2492" points="314.3293,-68.9465 314.8762,-58.3658 307.8505,-66.2961 314.3293,-68.9465"/>
</g>
<!-- x&#45;other&#45;vec&#45;&gt;right -->
<g id="edge27" class="edge">
<title>x&#45;other&#45;vec&#45;&gt;right</title>
<path fill="none" stroke="#00ff00" stroke-width=".1577" d="M281.8239,-117.5066C274.9112,-105.4827 262.3307,-83.6006 251.9496,-65.544"/>
<polygon fill="#00ff00" stroke="#00ff00" stroke-width=".1577" points="254.7816,-63.4476 246.7631,-56.5227 248.713,-66.9366 254.7816,-63.4476"/>
</g>
<!-- x&#45;other&#45;vec&#45;&gt;backward -->
<g id="edge10" class="edge">
<title>x&#45;other&#45;vec&#45;&gt;backward</title>
<path fill="none" stroke="#ff0000" stroke-width=".5658" d="M305.4678,-117.3473C311.6469,-114.3426 318.5925,-111.0308 325,-108.1249 367.9632,-88.6404 417.7096,-67.7436 452.2426,-53.4971"/>
<polygon fill="#ff0000" stroke="#ff0000" stroke-width=".5658" points="453.6457,-56.7046 461.561,-49.662 450.9815,-50.2314 453.6457,-56.7046"/>
</g>
<!-- y&#45;other&#45;vec -->
<g id="node10" class="node">
<title>y&#45;other&#45;vec</title>
<polygon fill="#d3d3d3" stroke="#000000" points="240,-135.5097 182,-135.5097 182,-117.5097 240,-117.5097 240,-135.5097"/>
<text text-anchor="middle" x="211" y="-124.3097" font-family="Times,serif" font-size="9.00" fill="#000000">y&#45;other&#45;vec</text>
</g>
<!-- y&#45;other&#45;vec&#45;&gt;none -->
<g id="edge7" class="edge">
<title>y&#45;other&#45;vec&#45;&gt;none</title>
<path fill="none" stroke="#ff0000" stroke-width=".6045" stroke-dasharray="1,5" d="M222.248,-117.5066C239.526,-103.6769 273.0978,-76.8055 296.9501,-57.7137"/>
<polygon fill="#ff0000" stroke="#ff0000" stroke-width=".6045" points="299.3189,-60.3007 304.9389,-51.3193 294.9447,-54.8358 299.3189,-60.3007"/>
</g>
<!-- y&#45;other&#45;vec&#45;&gt;right -->
<g id="edge16" class="edge">
<title>y&#45;other&#45;vec&#45;&gt;right</title>
<path fill="none" stroke="#00ff00" stroke-width=".3756" d="M213.389,-117.5066C216.402,-106.1516 221.748,-86.0045 226.3688,-68.5904"/>
<polygon fill="#00ff00" stroke="#00ff00" stroke-width=".3756" points="229.8006,-69.3034 228.9825,-58.7402 223.0348,-67.508 229.8006,-69.3034"/>
</g>
<!-- y&#45;other&#45;vec&#45;&gt;backward -->
<g id="edge5" class="edge">
<title>y&#45;other&#45;vec&#45;&gt;backward</title>
<path fill="none" stroke="#ff0000" stroke-width=".3157" d="M228.1367,-117.4729C234.5751,-114.2773 242.0246,-110.8127 249,-108.1249 317.5709,-81.7031 400.0303,-59.385 449.933,-46.8694"/>
<polygon fill="#ff0000" stroke="#ff0000" stroke-width=".3157" points="450.9082,-50.2336 459.7682,-44.4241 449.2191,-43.4404 450.9082,-50.2336"/>
</g>
<!-- x&#45;other&#45;vel -->
<g id="node11" class="node">
<title>x&#45;other&#45;vel</title>
<polygon fill="#d3d3d3" stroke="#000000" points="164,-135.5097 108,-135.5097 108,-117.5097 164,-117.5097 164,-135.5097"/>
<text text-anchor="middle" x="136" y="-124.3097" font-family="Times,serif" font-size="9.00" fill="#000000">x&#45;other&#45;vel</text>
</g>
<!-- x&#45;other&#45;vel&#45;&gt;none -->
<g id="edge14" class="edge">
<title>x&#45;other&#45;vel&#45;&gt;none</title>
<path fill="none" stroke="#ff0000" stroke-width=".4331" d="M153.5287,-117.3722C159.632,-114.3052 166.5629,-110.9491 173,-108.1249 213.9673,-90.1509 227.0117,-92.1828 267,-72.1249 276.6559,-67.2815 286.7544,-61.246 295.7227,-55.5064"/>
<polygon fill="#ff0000" stroke="#ff0000" stroke-width=".4331" points="297.806,-58.3258 304.2559,-49.9205 293.9722,-52.4691 297.806,-58.3258"/>
</g>
<!-- x&#45;other&#45;vel&#45;&gt;right -->
<g id="edge20" class="edge">
<title>x&#45;other&#45;vel&#45;&gt;right</title>
<path fill="none" stroke="#ff0000" stroke-width=".3841" d="M145.8544,-117.5066C160.6862,-103.9562 189.2222,-77.8854 210.0252,-58.8796"/>
<polygon fill="#ff0000" stroke="#ff0000" stroke-width=".3841" points="212.5528,-61.3112 217.5748,-51.9822 207.8313,-56.1432 212.5528,-61.3112"/>
</g>
<!-- x&#45;other&#45;vel&#45;&gt;backward -->
<g id="edge19" class="edge">
<title>x&#45;other&#45;vel&#45;&gt;backward</title>
<path fill="none" stroke="#ff0000" stroke-width=".1901" d="M151.8069,-117.4874C158.219,-114.1404 165.8001,-110.5684 173,-108.1249 251.9079,-81.3452 275.7611,-90.6679 357,-72.1249 388.3614,-64.9665 423.429,-55.7872 450.3661,-48.4811"/>
<polygon fill="#ff0000" stroke="#ff0000" stroke-width=".1901" points="451.5405,-51.7887 460.2672,-45.7808 449.6987,-45.0354 451.5405,-51.7887"/>
</g>
<!-- x&#45;other&#45;vel&#45;&gt;33 -->
<g id="edge30" class="edge">
<title>x&#45;other&#45;vel&#45;&gt;33</title>
<path fill="none" stroke="#00ff00" stroke-width=".4021" stroke-dasharray="1,5" d="M130.1272,-117.5066C121.4714,-104.2372 104.9835,-78.9613 92.6611,-60.071"/>
<polygon fill="#00ff00" stroke="#00ff00" stroke-width=".4021" points="95.5626,-58.1128 87.1676,-51.6495 89.6997,-61.9373 95.5626,-58.1128"/>
</g>
<!-- y&#45;other&#45;vel -->
<g id="node12" class="node">
<title>y&#45;other&#45;vel</title>
<polygon fill="#d3d3d3" stroke="#000000" points="679,-135.5097 623,-135.5097 623,-117.5097 679,-117.5097 679,-135.5097"/>
<text text-anchor="middle" x="651" y="-124.3097" font-family="Times,serif" font-size="9.00" fill="#000000">y&#45;other&#45;vel</text>
</g>
<!-- y&#45;other&#45;vel&#45;&gt;none -->
<g id="edge26" class="edge">
<title>y&#45;other&#45;vel&#45;&gt;none</title>
<path fill="none" stroke="#ff0000" stroke-width=".4051" d="M634.7995,-117.383C628.4619,-114.1018 621.0362,-110.6029 614,-108.1249 543.6133,-83.3358 522.3518,-90.4007 450,-72.1249 418.202,-64.0928 382.2666,-53.673 356.9336,-46.1006"/>
<polygon fill="#ff0000" stroke="#ff0000" stroke-width=".4051" points="357.6893,-42.6731 347.105,-43.1465 355.6744,-49.3768 357.6893,-42.6731"/>
</g>
<!-- y&#45;other&#45;vel&#45;&gt;left -->
<g id="edge28" class="edge">
<title>y&#45;other&#45;vel&#45;&gt;left</title>
<path fill="none" stroke="#ff0000" stroke-width=".1802" stroke-dasharray="1,5" d="M651.0995,-117.5066C651.2309,-105.6286 651.4686,-84.1302 651.6668,-66.203"/>
<polygon fill="#ff0000" stroke="#ff0000" stroke-width=".1802" points="655.1669,-66.1983 651.7778,-56.1602 648.1674,-66.1208 655.1669,-66.1983"/>
</g>
<!-- y&#45;other&#45;vel&#45;&gt;forward -->
<g id="edge1" class="edge">
<title>y&#45;other&#45;vel&#45;&gt;forward</title>
<path fill="none" stroke="#00ff00" stroke-width=".4638" d="M658.2664,-117.5066C667.3161,-106.294 683.2849,-86.5086 697.2167,-69.247"/>
<polygon fill="#00ff00" stroke="#00ff00" stroke-width=".4638" points="700.2961,-71.0044 703.8531,-61.0245 694.8489,-66.6079 700.2961,-71.0044"/>
</g>
<!-- y&#45;other&#45;vel&#45;&gt;backward -->
<g id="edge11" class="edge">
<title>y&#45;other&#45;vel&#45;&gt;backward</title>
<path fill="none" stroke="#ff0000" stroke-width=".1128" stroke-dasharray="1,5" d="M635.4718,-117.5066C612.2957,-104.0693 567.8838,-78.3197 535.1776,-59.357"/>
<polygon fill="#ff0000" stroke="#ff0000" stroke-width=".1128" points="536.6972,-56.1923 526.2905,-54.2044 533.1861,-62.2481 536.6972,-56.1923"/>
</g>
<!-- 65&#45;&gt;right -->
<g id="edge32" class="edge">
<title>65&#45;&gt;right</title>
<path fill="none" stroke="#00ff00" stroke-width=".1686" d="M87.2285,-115.7104C91.0209,-113.141 95.1147,-110.4673 99,-108.1249 134.4137,-86.7748 176.7101,-64.9036 204.6267,-50.9432"/>
<polygon fill="#00ff00" stroke="#00ff00" stroke-width=".1686" points="206.4706,-53.9352 213.8666,-46.349 203.3541,-47.6673 206.4706,-53.9352"/>
</g>
</g>
</svg>
