<?xml version="1.0" encoding="UTF-8" standalone="no"?>
<!DOCTYPE svg PUBLIC "-//W3C//DTD SVG 1.1//EN"
 "http://www.w3.org/Graphics/SVG/1.1/DTD/svg11.dtd">
<!-- Generated by graphviz version 2.40.1 (20161225.0304)
 -->
<!-- Title: %3 Pages: 1 -->
<svg width="869pt" height="213pt"
 viewBox="0.00 0.00 869.27 212.55" xmlns="http://www.w3.org/2000/svg" xmlns:xlink="http://www.w3.org/1999/xlink">
<g id="graph0" class="graph" transform="scale(1 1) rotate(0) translate(4 208.5513)">
<title>%3</title>
<polygon fill="#ffffff" stroke="transparent" points="-4,4 -4,-208.5513 865.2726,-208.5513 865.2726,4 -4,4"/>
<!-- x&#45;vel -->
<g id="node1" class="node">
<title>x&#45;vel</title>
<polygon fill="#d3d3d3" stroke="#000000" points="65.5594,-138.3381 30.5594,-138.3381 30.5594,-120.3381 65.5594,-120.3381 65.5594,-138.3381"/>
<text text-anchor="middle" x="48.0594" y="-127.1381" font-family="Times,serif" font-size="9.00" fill="#000000">x&#45;vel</text>
</g>
<!-- none -->
<g id="node13" class="node">
<title>none</title>
<ellipse fill="#add8e6" stroke="#000000" cx="72.0594" cy="-36.0624" rx="24.0833" ry="24.0833"/>
<text text-anchor="middle" x="72.0594" y="-33.8624" font-family="Times,serif" font-size="9.00" fill="#000000">none</text>
</g>
<!-- x&#45;vel&#45;&gt;none -->
<g id="edge2" class="edge">
<title>x&#45;vel&#45;&gt;none</title>
<path fill="none" stroke="#00ff00" stroke-width=".1799" stroke-dasharray="1,5" d="M50.4483,-120.0535C53.4754,-108.2886 58.8574,-87.3719 63.4929,-69.3561"/>
<polygon fill="#00ff00" stroke="#00ff00" stroke-width=".1799" points="66.9395,-70.0061 66.0419,-59.4494 60.1604,-68.2617 66.9395,-70.0061"/>
</g>
<!-- right -->
<g id="node14" class="node">
<title>right</title>
<ellipse fill="#add8e6" stroke="#000000" cx="342.0594" cy="-36.0624" rx="23.1702" ry="23.1702"/>
<text text-anchor="middle" x="342.0594" y="-33.8624" font-family="Times,serif" font-size="9.00" fill="#000000">right</text>
</g>
<!-- x&#45;vel&#45;&gt;right -->
<g id="edge37" class="edge">
<title>x&#45;vel&#45;&gt;right</title>
<path fill="none" stroke="#00ff00" stroke-width=".3376" stroke-dasharray="1,5" d="M57.9061,-120.0252C62.7547,-115.8705 68.8779,-111.2244 75.0594,-108.1249 80.4048,-105.4446 239.2057,-63.2738 309.3236,-44.7154"/>
<polygon fill="#00ff00" stroke="#00ff00" stroke-width=".3376" points="310.6161,-47.994 319.3882,-42.0525 308.8256,-41.2268 310.6161,-47.994"/>
</g>
<!-- left -->
<g id="node15" class="node">
<title>left</title>
<ellipse fill="#add8e6" stroke="#000000" cx="176.0594" cy="-36.0624" rx="19.6" ry="19.6"/>
<text text-anchor="middle" x="176.0594" y="-33.8624" font-family="Times,serif" font-size="9.00" fill="#000000">left</text>
</g>
<!-- x&#45;vel&#45;&gt;left -->
<g id="edge9" class="edge">
<title>x&#45;vel&#45;&gt;left</title>
<path fill="none" stroke="#00ff00" stroke-width=".4481" d="M59.5308,-120.1356C64.2957,-116.3628 69.9063,-111.9843 75.0594,-108.1249 100.7053,-88.9172 130.6479,-67.7009 151.2353,-53.2952"/>
<polygon fill="#00ff00" stroke="#00ff00" stroke-width=".4481" points="153.2493,-56.1578 159.4459,-47.564 149.2427,-50.4178 153.2493,-56.1578"/>
</g>
<!-- forward -->
<g id="node16" class="node">
<title>forward</title>
<ellipse fill="#add8e6" stroke="#000000" cx="543.0594" cy="-36.0624" rx="31.6406" ry="31.6406"/>
<text text-anchor="middle" x="543.0594" y="-33.8624" font-family="Times,serif" font-size="9.00" fill="#000000">forward</text>
</g>
<!-- x&#45;vel&#45;&gt;forward -->
<g id="edge25" class="edge">
<title>x&#45;vel&#45;&gt;forward</title>
<path fill="none" stroke="#ff0000" stroke-width=".3125" d="M57.2281,-120.0572C62.1053,-115.6959 68.451,-110.8636 75.0594,-108.1249 198.7099,-56.8803 242.0293,-94.1137 374.0594,-72.1249 418.0423,-64.7998 467.9179,-53.825 502.0192,-45.9073"/>
<polygon fill="#ff0000" stroke="#ff0000" stroke-width=".3125" points="503.1321,-49.2415 512.072,-43.5556 501.5376,-42.4255 503.1321,-49.2415"/>
</g>
<!-- y&#45;vel -->
<g id="node2" class="node">
<title>y&#45;vel</title>
<polygon fill="#d3d3d3" stroke="#000000" points="560.5594,-138.3381 525.5594,-138.3381 525.5594,-120.3381 560.5594,-120.3381 560.5594,-138.3381"/>
<text text-anchor="middle" x="543.0594" y="-127.1381" font-family="Times,serif" font-size="9.00" fill="#000000">y&#45;vel</text>
</g>
<!-- y&#45;vel&#45;&gt;right -->
<g id="edge18" class="edge">
<title>y&#45;vel&#45;&gt;right</title>
<path fill="none" stroke="#00ff00" stroke-width=".1868" d="M532.9547,-119.924C528.3413,-115.9434 522.6641,-111.4655 517.0594,-108.1249 470.106,-80.1396 410.2757,-58.0948 374.1325,-46.0877"/>
<polygon fill="#00ff00" stroke="#00ff00" stroke-width=".1868" points="375.1894,-42.751 364.5968,-42.9707 373.0144,-49.4046 375.1894,-42.751"/>
</g>
<!-- y&#45;vel&#45;&gt;forward -->
<g id="edge13" class="edge">
<title>y&#45;vel&#45;&gt;forward</title>
<path fill="none" stroke="#ff0000" stroke-width=".5044" d="M543.0594,-120.0535C543.0594,-110.1499 543.0594,-93.761 543.0594,-78.0765"/>
<polygon fill="#ff0000" stroke="#ff0000" stroke-width=".5044" points="546.5595,-77.9465 543.0594,-67.9466 539.5595,-77.9466 546.5595,-77.9465"/>
</g>
<!-- x&#45;pos -->
<g id="node3" class="node">
<title>x&#45;pos</title>
<polygon fill="#d3d3d3" stroke="#000000" points="194.0594,-138.3381 158.0594,-138.3381 158.0594,-120.3381 194.0594,-120.3381 194.0594,-138.3381"/>
<text text-anchor="middle" x="176.0594" y="-127.1381" font-family="Times,serif" font-size="9.00" fill="#000000">x&#45;pos</text>
</g>
<!-- x&#45;pos&#45;&gt;right -->
<g id="edge28" class="edge">
<title>x&#45;pos&#45;&gt;right</title>
<path fill="none" stroke="#ff0000" stroke-width=".7435" d="M186.7491,-120.1843C191.5764,-116.2518 197.446,-111.7397 203.0594,-108.1249 238.786,-85.1184 282.7126,-63.3379 311.5018,-49.8651"/>
<polygon fill="#ff0000" stroke="#ff0000" stroke-width=".7435" points="313.0499,-53.0054 320.6511,-45.6249 310.1064,-46.6543 313.0499,-53.0054"/>
</g>
<!-- x&#45;pos&#45;&gt;left -->
<g id="edge6" class="edge">
<title>x&#45;pos&#45;&gt;left</title>
<path fill="none" stroke="#00ff00" stroke-width=".1808" d="M176.0594,-120.0535C176.0594,-107.592 176.0594,-84.8629 176.0594,-66.1889"/>
<polygon fill="#00ff00" stroke="#00ff00" stroke-width=".1808" points="179.5595,-66.0473 176.0594,-56.0474 172.5595,-66.0474 179.5595,-66.0473"/>
</g>
<!-- y&#45;pos -->
<g id="node4" class="node">
<title>y&#45;pos</title>
<polygon fill="#d3d3d3" stroke="#000000" points="615.0594,-138.3381 579.0594,-138.3381 579.0594,-120.3381 615.0594,-120.3381 615.0594,-138.3381"/>
<text text-anchor="middle" x="597.0594" y="-127.1381" font-family="Times,serif" font-size="9.00" fill="#000000">y&#45;pos</text>
</g>
<!-- y&#45;pos&#45;&gt;right -->
<g id="edge22" class="edge">
<title>y&#45;pos&#45;&gt;right</title>
<path fill="none" stroke="#ff0000" stroke-width=".4274" d="M587.1523,-120.1425C582.2905,-116.0134 576.1736,-111.3551 570.0594,-108.1249 505.0177,-73.7629 420.7799,-52.4443 375.0823,-42.5756"/>
<polygon fill="#ff0000" stroke="#ff0000" stroke-width=".4274" points="375.6393,-39.1161 365.1323,-40.4771 374.1947,-45.9655 375.6393,-39.1161"/>
</g>
<!-- y&#45;pos&#45;&gt;left -->
<g id="edge10" class="edge">
<title>y&#45;pos&#45;&gt;left</title>
<path fill="none" stroke="#ff0000" stroke-width=".2627" stroke-dasharray="1,5" d="M587.8698,-120.1068C582.9873,-115.7581 576.6432,-110.9222 570.0594,-108.1249 462.6906,-62.5065 424.3864,-95.3287 310.0594,-72.1249 273.375,-64.6794 231.8592,-52.9875 204.8901,-44.9464"/>
<polygon fill="#ff0000" stroke="#ff0000" stroke-width=".2627" points="205.549,-41.4896 194.9644,-41.9557 203.5295,-48.192 205.549,-41.4896"/>
</g>
<!-- y&#45;pos&#45;&gt;forward -->
<g id="edge26" class="edge">
<title>y&#45;pos&#45;&gt;forward</title>
<path fill="none" stroke="#00ff00" stroke-width=".2592" stroke-dasharray="1,5" d="M591.6842,-120.0535C585.278,-108.9878 574.1844,-89.8256 564.2097,-72.596"/>
<polygon fill="#00ff00" stroke="#00ff00" stroke-width=".2592" points="567.1657,-70.7161 559.1264,-63.8154 561.1076,-74.2233 567.1657,-70.7161"/>
</g>
<!-- backward -->
<g id="node17" class="node">
<title>backward</title>
<ellipse fill="#add8e6" stroke="#000000" cx="654.0594" cy="-36.0624" rx="36.125" ry="36.125"/>
<text text-anchor="middle" x="654.0594" y="-33.8624" font-family="Times,serif" font-size="9.00" fill="#000000">backward</text>
</g>
<!-- y&#45;pos&#45;&gt;backward -->
<g id="edge12" class="edge">
<title>y&#45;pos&#45;&gt;backward</title>
<path fill="none" stroke="#00ff00" stroke-width=".492" d="M602.7331,-120.0535C609.0531,-109.7114 619.6949,-92.297 629.6551,-75.998"/>
<polygon fill="#00ff00" stroke="#00ff00" stroke-width=".492" points="632.8587,-77.4677 635.0866,-67.1097 626.8857,-73.8176 632.8587,-77.4677"/>
</g>
<!-- x&#45;lm1&#45;vec -->
<g id="node5" class="node">
<title>x&#45;lm1&#45;vec</title>
<polygon fill="#d3d3d3" stroke="#000000" points="616.5594,-204.5513 563.5594,-204.5513 563.5594,-186.5513 616.5594,-186.5513 616.5594,-204.5513"/>
<text text-anchor="middle" x="590.0594" y="-193.3513" font-family="Times,serif" font-size="9.00" fill="#000000">x&#45;lm1&#45;vec</text>
</g>
<!-- x&#45;lm1&#45;vec&#45;&gt;none -->
<g id="edge30" class="edge">
<title>x&#45;lm1&#45;vec&#45;&gt;none</title>
<path fill="none" stroke="#00ff00" stroke-width=".2774" d="M563.4229,-194.4867C451.9981,-189.907 28.1508,-171.1786 9.0594,-150.5513 -16.6079,-122.8191 17.7923,-82.7093 44.963,-58.0674"/>
<polygon fill="#00ff00" stroke="#00ff00" stroke-width=".2774" points="47.5253,-60.4754 52.7332,-51.2489 42.9083,-55.214 47.5253,-60.4754"/>
</g>
<!-- x&#45;lm1&#45;vec&#45;&gt;left -->
<g id="edge8" class="edge">
<title>x&#45;lm1&#45;vec&#45;&gt;left</title>
<path fill="none" stroke="#ff0000" stroke-width=".5243" d="M563.2311,-194.4337C452.9802,-189.7137 39.7004,-170.7248 21.0594,-150.5513 8.2624,-136.7023 10.1686,-123.5179 21.0594,-108.1249 48.8256,-68.8802 80.1629,-93.8275 123.0594,-72.1249 132.8909,-67.1509 143.0445,-60.6307 151.8009,-54.5042"/>
<polygon fill="#ff0000" stroke="#ff0000" stroke-width=".5243" points="153.9576,-57.2643 160.0278,-48.5807 149.8674,-51.5835 153.9576,-57.2643"/>
</g>
<!-- x&#45;lm1&#45;vec&#45;&gt;backward -->
<g id="edge1" class="edge">
<title>x&#45;lm1&#45;vec&#45;&gt;backward</title>
<path fill="none" stroke="#00ff00" stroke-width=".1737" d="M616.6737,-192.9352C662.4564,-187.825 753.0487,-174.8349 772.0594,-150.5513 801.5457,-112.8864 741.8634,-75.4731 697.1184,-54.1219"/>
<polygon fill="#00ff00" stroke="#00ff00" stroke-width=".1737" points="698.3788,-50.8484 687.8345,-49.8152 695.4331,-57.1984 698.3788,-50.8484"/>
</g>
<!-- 163 -->
<g id="node18" class="node">
<title>163</title>
<ellipse fill="#ffffff" stroke="#000000" cx="840.0594" cy="-129.3381" rx="21.4286" ry="21.4286"/>
<text text-anchor="middle" x="840.0594" y="-127.1381" font-family="Times,serif" font-size="9.00" fill="#000000">163</text>
</g>
<!-- x&#45;lm1&#45;vec&#45;&gt;163 -->
<g id="edge38" class="edge">
<title>x&#45;lm1&#45;vec&#45;&gt;163</title>
<path fill="none" stroke="#00ff00" stroke-width=".2843" d="M616.6992,-192.9058C658.1681,-188.1467 740.1371,-176.1518 805.0594,-150.5513 807.9409,-149.415 810.856,-148.0506 813.7097,-146.5687"/>
<polygon fill="#00ff00" stroke="#00ff00" stroke-width=".2843" points="815.537,-149.556 822.4995,-141.5701 812.0766,-143.4711 815.537,-149.556"/>
</g>
<!-- y&#45;lm1&#45;vec -->
<g id="node6" class="node">
<title>y&#45;lm1&#45;vec</title>
<polygon fill="#d3d3d3" stroke="#000000" points="507.5594,-138.3381 454.5594,-138.3381 454.5594,-120.3381 507.5594,-120.3381 507.5594,-138.3381"/>
<text text-anchor="middle" x="481.0594" y="-127.1381" font-family="Times,serif" font-size="9.00" fill="#000000">y&#45;lm1&#45;vec</text>
</g>
<!-- y&#45;lm1&#45;vec&#45;&gt;right -->
<g id="edge20" class="edge">
<title>y&#45;lm1&#45;vec&#45;&gt;right</title>
<path fill="none" stroke="#00ff00" stroke-width=".4094" d="M467.4784,-120.2246C445.0676,-105.1859 399.8845,-74.8659 370.3125,-55.0217"/>
<polygon fill="#00ff00" stroke="#00ff00" stroke-width=".4094" points="371.9327,-51.8939 361.6787,-49.228 368.0321,-57.7065 371.9327,-51.8939"/>
</g>
<!-- y&#45;lm1&#45;vec&#45;&gt;left -->
<g id="edge5" class="edge">
<title>y&#45;lm1&#45;vec&#45;&gt;left</title>
<path fill="none" stroke="#00ff00" stroke-width=".2787" d="M467.4998,-120.1604C460.9408,-116.0353 452.8215,-111.3751 445.0594,-108.1249 387.7813,-84.1412 370.041,-88.1936 310.0594,-72.1249 274.1074,-62.4936 232.7464,-51.3532 205.5983,-44.0329"/>
<polygon fill="#00ff00" stroke="#00ff00" stroke-width=".2787" points="206.1508,-40.5569 195.5844,-41.3321 204.328,-47.3154 206.1508,-40.5569"/>
</g>
<!-- y&#45;lm1&#45;vec&#45;&gt;forward -->
<g id="edge31" class="edge">
<title>y&#45;lm1&#45;vec&#45;&gt;forward</title>
<path fill="none" stroke="#00ff00" stroke-width=".1149" d="M487.2308,-120.0535C494.8116,-108.6486 508.109,-88.6435 519.8247,-71.0177"/>
<polygon fill="#00ff00" stroke="#00ff00" stroke-width=".1149" points="522.7962,-72.8699 525.4171,-62.6043 516.9666,-68.9949 522.7962,-72.8699"/>
</g>
<!-- y&#45;lm1&#45;vec&#45;&gt;backward -->
<g id="edge27" class="edge">
<title>y&#45;lm1&#45;vec&#45;&gt;backward</title>
<path fill="none" stroke="#ff0000" stroke-width=".3723" d="M495.5288,-120.2222C502.0051,-116.2967 509.8028,-111.7796 517.0594,-108.1249 553.701,-89.6708 566.1242,-91.9195 602.0594,-72.1249 606.8709,-69.4745 611.7865,-66.4838 616.5821,-63.3867"/>
<polygon fill="#ff0000" stroke="#ff0000" stroke-width=".3723" points="618.659,-66.2086 625.036,-57.7478 614.7746,-60.3852 618.659,-66.2086"/>
</g>
<!-- x&#45;lm2&#45;vec -->
<g id="node7" class="node">
<title>x&#45;lm2&#45;vec</title>
<polygon fill="#d3d3d3" stroke="#000000" points="762.5594,-138.3381 709.5594,-138.3381 709.5594,-120.3381 762.5594,-120.3381 762.5594,-138.3381"/>
<text text-anchor="middle" x="736.0594" y="-127.1381" font-family="Times,serif" font-size="9.00" fill="#000000">x&#45;lm2&#45;vec</text>
</g>
<!-- x&#45;lm2&#45;vec&#45;&gt;forward -->
<g id="edge19" class="edge">
<title>x&#45;lm2&#45;vec&#45;&gt;forward</title>
<path fill="none" stroke="#00ff00" stroke-width=".1515" stroke-dasharray="1,5" d="M721.631,-120.1396C715.1622,-116.1988 707.3591,-111.6925 700.0594,-108.1249 660.9824,-89.0266 648.4406,-90.5876 609.0594,-72.1249 599.2938,-67.5466 588.9589,-62.1683 579.4387,-56.9829"/>
<polygon fill="#00ff00" stroke="#00ff00" stroke-width=".1515" points="581.0515,-53.8753 570.606,-52.1029 577.6663,-60.0024 581.0515,-53.8753"/>
</g>
<!-- x&#45;lm2&#45;vec&#45;&gt;backward -->
<g id="edge23" class="edge">
<title>x&#45;lm2&#45;vec&#45;&gt;backward</title>
<path fill="none" stroke="#00ff00" stroke-width=".2742" d="M727.8971,-120.0535C717.9204,-108.7048 700.4571,-88.8403 685.0181,-71.2783"/>
<polygon fill="#00ff00" stroke="#00ff00" stroke-width=".2742" points="687.3323,-68.6097 678.1011,-63.4101 682.075,-73.2315 687.3323,-68.6097"/>
</g>
<!-- y&#45;lm2&#45;vec -->
<g id="node8" class="node">
<title>y&#45;lm2&#45;vec</title>
<polygon fill="#d3d3d3" stroke="#000000" points="345.5594,-204.5513 292.5594,-204.5513 292.5594,-186.5513 345.5594,-186.5513 345.5594,-204.5513"/>
<text text-anchor="middle" x="319.0594" y="-193.3513" font-family="Times,serif" font-size="9.00" fill="#000000">y&#45;lm2&#45;vec</text>
</g>
<!-- y&#45;lm2&#45;vec&#45;&gt;right -->
<g id="edge4" class="edge">
<title>y&#45;lm2&#45;vec&#45;&gt;right</title>
<path fill="none" stroke="#00ff00" stroke-width=".3181" d="M317.9911,-186.2594C317.0035,-177.1713 315.6085,-162.9315 315.0594,-150.5513 314.2238,-131.7136 311.6976,-126.679 315.0594,-108.1249 317.5967,-94.1212 322.6973,-79.2943 327.7887,-66.754"/>
<polygon fill="#00ff00" stroke="#00ff00" stroke-width=".3181" points="331.1386,-67.8194 331.8208,-57.2465 324.6942,-65.0863 331.1386,-67.8194"/>
</g>
<!-- 47 -->
<g id="node19" class="node">
<title>47</title>
<ellipse fill="#ffffff" stroke="#000000" cx="342.0594" cy="-129.3381" rx="18.2703" ry="18.2703"/>
<text text-anchor="middle" x="342.0594" y="-127.1381" font-family="Times,serif" font-size="9.00" fill="#000000">47</text>
</g>
<!-- y&#45;lm2&#45;vec&#45;&gt;47 -->
<g id="edge34" class="edge">
<title>y&#45;lm2&#45;vec&#45;&gt;47</title>
<path fill="none" stroke="#ff0000" stroke-width=".3132" d="M322.2574,-186.3446C324.9326,-178.6431 328.8913,-167.2468 332.5674,-156.6638"/>
<polygon fill="#ff0000" stroke="#ff0000" stroke-width=".3132" points="335.9792,-157.5084 335.9543,-146.9136 329.3667,-155.2115 335.9792,-157.5084"/>
</g>
<!-- x&#45;other&#45;vec -->
<g id="node9" class="node">
<title>x&#45;other&#45;vec</title>
<polygon fill="#d3d3d3" stroke="#000000" points="691.0594,-138.3381 633.0594,-138.3381 633.0594,-120.3381 691.0594,-120.3381 691.0594,-138.3381"/>
<text text-anchor="middle" x="662.0594" y="-127.1381" font-family="Times,serif" font-size="9.00" fill="#000000">x&#45;other&#45;vec</text>
</g>
<!-- x&#45;other&#45;vec&#45;&gt;right -->
<g id="edge36" class="edge">
<title>x&#45;other&#45;vec&#45;&gt;right</title>
<path fill="none" stroke="#00ff00" stroke-width=".1132" d="M647.699,-120.1587C640.7651,-116.0332 632.1997,-111.3731 624.0594,-108.1249 578.3787,-89.897 439.1136,-57.7228 375.0009,-43.3515"/>
<polygon fill="#00ff00" stroke="#00ff00" stroke-width=".1132" points="375.5438,-39.8866 365.0212,-41.1223 374.0177,-46.7182 375.5438,-39.8866"/>
</g>
<!-- x&#45;other&#45;vec&#45;&gt;forward -->
<g id="edge15" class="edge">
<title>x&#45;other&#45;vec&#45;&gt;forward</title>
<path fill="none" stroke="#00ff00" stroke-width=".4469" d="M650.2141,-120.0535C633.2069,-106.7226 601.2084,-81.6414 576.5897,-62.3445"/>
<polygon fill="#00ff00" stroke="#00ff00" stroke-width=".4469" points="578.5855,-59.4618 568.5559,-56.0474 574.2671,-64.9711 578.5855,-59.4618"/>
</g>
<!-- x&#45;other&#45;vec&#45;&gt;backward -->
<g id="edge17" class="edge">
<title>x&#45;other&#45;vec&#45;&gt;backward</title>
<path fill="none" stroke="#00ff00" stroke-width=".1342" stroke-dasharray="1,5" d="M661.2631,-120.0535C660.4934,-111.0801 659.2672,-96.7825 658.043,-82.5089"/>
<polygon fill="#00ff00" stroke="#00ff00" stroke-width=".1342" points="661.5003,-81.8605 657.1585,-72.1962 654.5259,-82.4587 661.5003,-81.8605"/>
</g>
<!-- y&#45;other&#45;vec -->
<g id="node10" class="node">
<title>y&#45;other&#45;vec</title>
<polygon fill="#d3d3d3" stroke="#000000" points="436.0594,-138.3381 378.0594,-138.3381 378.0594,-120.3381 436.0594,-120.3381 436.0594,-138.3381"/>
<text text-anchor="middle" x="407.0594" y="-127.1381" font-family="Times,serif" font-size="9.00" fill="#000000">y&#45;other&#45;vec</text>
</g>
<!-- y&#45;other&#45;vec&#45;&gt;none -->
<g id="edge11" class="edge">
<title>y&#45;other&#45;vec&#45;&gt;none</title>
<path fill="none" stroke="#00ff00" stroke-width=".1938" stroke-dasharray="1,5" d="M393.5304,-120.2619C386.507,-115.9527 377.6222,-111.1054 369.0594,-108.1249 274.6589,-75.2667 242.4173,-102.0912 147.0594,-72.1249 131.7535,-67.315 115.6141,-59.8923 102.2443,-53.0287"/>
<polygon fill="#00ff00" stroke="#00ff00" stroke-width=".1938" points="103.5274,-49.7483 93.05,-48.175 100.2595,-55.9387 103.5274,-49.7483"/>
</g>
<!-- y&#45;other&#45;vec&#45;&gt;backward -->
<g id="edge29" class="edge">
<title>y&#45;other&#45;vec&#45;&gt;backward</title>
<path fill="none" stroke="#ff0000" stroke-width=".3357" d="M421.4264,-120.3026C428.6049,-116.109 437.5554,-111.35 446.0594,-108.1249 512.5911,-82.8933 536.9891,-100.9168 602.0594,-72.1249 607.1455,-69.8744 612.2536,-67.1037 617.1761,-64.1066"/>
<polygon fill="#ff0000" stroke="#ff0000" stroke-width=".3357" points="619.2978,-66.9025 625.7911,-58.5306 615.4943,-61.026 619.2978,-66.9025"/>
</g>
<!-- x&#45;other&#45;vel -->
<g id="node11" class="node">
<title>x&#45;other&#45;vel</title>
<polygon fill="#d3d3d3" stroke="#000000" points="140.0594,-138.3381 84.0594,-138.3381 84.0594,-120.3381 140.0594,-120.3381 140.0594,-138.3381"/>
<text text-anchor="middle" x="112.0594" y="-127.1381" font-family="Times,serif" font-size="9.00" fill="#000000">x&#45;other&#45;vel</text>
</g>
<!-- x&#45;other&#45;vel&#45;&gt;none -->
<g id="edge33" class="edge">
<title>x&#45;other&#45;vel&#45;&gt;none</title>
<path fill="none" stroke="#ff0000" stroke-width=".4369" stroke-dasharray="1,5" d="M108.0778,-120.0535C102.8612,-107.889 93.4489,-85.9405 85.5542,-67.5308"/>
<polygon fill="#ff0000" stroke="#ff0000" stroke-width=".4369" points="88.7523,-66.108 81.5943,-58.2969 82.3189,-68.8669 88.7523,-66.108"/>
</g>
<!-- x&#45;other&#45;vel&#45;&gt;right -->
<g id="edge3" class="edge">
<title>x&#45;other&#45;vel&#45;&gt;right</title>
<path fill="none" stroke="#00ff00" stroke-width=".2829" d="M126.5297,-120.3097C133.2456,-116.3114 141.4186,-111.7124 149.0594,-108.1249 204.0408,-82.3103 271.0086,-59.0329 309.8642,-46.2866"/>
<polygon fill="#00ff00" stroke="#00ff00" stroke-width=".2829" points="311.1514,-49.5486 319.5788,-43.1276 308.9866,-42.8917 311.1514,-49.5486"/>
</g>
<!-- x&#45;other&#45;vel&#45;&gt;left -->
<g id="edge16" class="edge">
<title>x&#45;other&#45;vel&#45;&gt;left</title>
<path fill="none" stroke="#ff0000" stroke-width=".2204" d="M118.4299,-120.0535C127.8069,-106.3871 145.6573,-80.3714 159.0183,-60.8987"/>
<polygon fill="#ff0000" stroke="#ff0000" stroke-width=".2204" points="162.0229,-62.7059 164.7946,-52.4801 156.2509,-58.7455 162.0229,-62.7059"/>
</g>
<!-- x&#45;other&#45;vel&#45;&gt;backward -->
<g id="edge32" class="edge">
<title>x&#45;other&#45;vel&#45;&gt;backward</title>
<path fill="none" stroke="#ff0000" stroke-width=".2941" d="M124.7656,-120.1801C131.6216,-115.7368 140.4292,-110.7939 149.0594,-108.1249 342.0104,-48.4506 411.8444,-140.0172 602.0594,-72.1249 607.2975,-70.2553 612.4975,-67.7148 617.4695,-64.842"/>
<polygon fill="#ff0000" stroke="#ff0000" stroke-width=".2941" points="619.5365,-67.6765 626.1321,-59.3849 615.8054,-61.7537 619.5365,-67.6765"/>
</g>
<!-- y&#45;other&#45;vel -->
<g id="node12" class="node">
<title>y&#45;other&#45;vel</title>
<polygon fill="#d3d3d3" stroke="#000000" points="268.0594,-138.3381 212.0594,-138.3381 212.0594,-120.3381 268.0594,-120.3381 268.0594,-138.3381"/>
<text text-anchor="middle" x="240.0594" y="-127.1381" font-family="Times,serif" font-size="9.00" fill="#000000">y&#45;other&#45;vel</text>
</g>
<!-- y&#45;other&#45;vel&#45;&gt;left -->
<g id="edge7" class="edge">
<title>y&#45;other&#45;vel&#45;&gt;left</title>
<path fill="none" stroke="#ff0000" stroke-width=".3162" d="M233.6888,-120.0535C224.3118,-106.3871 206.4615,-80.3714 193.1005,-60.8987"/>
<polygon fill="#ff0000" stroke="#ff0000" stroke-width=".3162" points="195.8678,-58.7455 187.3241,-52.4801 190.0958,-62.7059 195.8678,-58.7455"/>
</g>
<!-- y&#45;other&#45;vel&#45;&gt;forward -->
<g id="edge14" class="edge">
<title>y&#45;other&#45;vel&#45;&gt;forward</title>
<path fill="none" stroke="#00ff00" stroke-width=".8693" d="M268.2928,-120.6467C322.2893,-104.0244 440.3525,-67.6798 502.6771,-48.4937"/>
<polygon fill="#00ff00" stroke="#00ff00" stroke-width=".8693" points="504.0194,-51.7427 512.547,-45.4554 501.9599,-45.0525 504.0194,-51.7427"/>
</g>
<!-- none&#45;&gt;none -->
<g id="edge21" class="edge">
<title>none&#45;&gt;none</title>
<path fill="none" stroke="#ff0000" stroke-width=".2914" d="M90.6465,-51.9479C102.5984,-56.092 114.101,-50.7968 114.101,-36.0624 114.101,-25.5872 108.2872,-19.8829 100.6314,-18.9494"/>
<polygon fill="#ff0000" stroke="#ff0000" stroke-width=".2914" points="100.1447,-15.4828 90.6465,-20.1769 100.9989,-22.4305 100.1447,-15.4828"/>
</g>
<!-- forward&#45;&gt;forward -->
<g id="edge24" class="edge">
<title>forward&#45;&gt;forward</title>
<path fill="none" stroke="#ff0000" stroke-width=".2896" d="M570.2194,-53.0429C582.3703,-54.6601 592.8792,-48.9999 592.8792,-36.0624 592.8792,-26.9658 587.6838,-21.4669 580.3752,-19.5658"/>
<polygon fill="#ff0000" stroke="#ff0000" stroke-width=".2896" points="580.3747,-16.0619 570.2194,-19.082 580.0415,-23.054 580.3747,-16.0619"/>
</g>
<!-- 163&#45;&gt;backward -->
<g id="edge39" class="edge">
<title>163&#45;&gt;backward</title>
<path fill="none" stroke="#ff0000" stroke-width=".1927" d="M822.0933,-117.9794C816.6828,-114.6869 810.6864,-111.1631 805.0594,-108.1249 769.1952,-88.7608 727.2825,-68.9749 696.726,-55.047"/>
<polygon fill="#ff0000" stroke="#ff0000" stroke-width=".1927" points="697.779,-51.6814 687.2262,-50.7387 694.8878,-58.0565 697.779,-51.6814"/>
</g>
<!-- 47&#45;&gt;right -->
<g id="edge35" class="edge">
<title>47&#45;&gt;right</title>
<path fill="none" stroke="#ff0000" stroke-width=".4977" d="M342.0594,-110.9098C342.0594,-99.1482 342.0594,-83.5523 342.0594,-69.6421"/>
<polygon fill="#ff0000" stroke="#ff0000" stroke-width=".4977" points="345.5595,-69.4249 342.0594,-59.4249 338.5595,-69.425 345.5595,-69.4249"/>
</g>
</g>
</svg>
