<?xml version="1.0" encoding="UTF-8" standalone="no"?>
<!DOCTYPE svg PUBLIC "-//W3C//DTD SVG 1.1//EN"
 "http://www.w3.org/Graphics/SVG/1.1/DTD/svg11.dtd">
<!-- Generated by graphviz version 2.40.1 (20161225.0304)
 -->
<!-- Title: %3 Pages: 1 -->
<svg width="1552pt" height="384pt"
 viewBox="0.00 0.00 1552.27 383.55" xmlns="http://www.w3.org/2000/svg" xmlns:xlink="http://www.w3.org/1999/xlink">
<g id="graph0" class="graph" transform="scale(1 1) rotate(0) translate(4 379.5462)">
<title>%3</title>
<polygon fill="#ffffff" stroke="transparent" points="-4,4 -4,-379.5462 1548.2746,-379.5462 1548.2746,4 -4,4"/>
<!-- x&#45;vel -->
<g id="node1" class="node">
<title>x&#45;vel</title>
<polygon fill="#d3d3d3" stroke="#000000" points="1378.7746,-375.5462 1343.7746,-375.5462 1343.7746,-357.5462 1378.7746,-357.5462 1378.7746,-375.5462"/>
<text text-anchor="middle" x="1361.2746" y="-364.3462" font-family="Times,serif" font-size="9.00" fill="#000000">x&#45;vel</text>
</g>
<!-- none -->
<g id="node13" class="node">
<title>none</title>
<ellipse fill="#add8e6" stroke="#000000" cx="799.2746" cy="-103.1751" rx="24.0833" ry="24.0833"/>
<text text-anchor="middle" x="799.2746" y="-100.9751" font-family="Times,serif" font-size="9.00" fill="#000000">none</text>
</g>
<!-- x&#45;vel&#45;&gt;none -->
<g id="edge3" class="edge">
<title>x&#45;vel&#45;&gt;none</title>
<path fill="none" stroke="#ff0000" stroke-width=".2392" stroke-dasharray="1,5" d="M1343.7214,-365.17C1310.4469,-361.9243 1236.7426,-351.6486 1183.2746,-321.5462 1096.2907,-272.5746 1109.8338,-213.6421 1023.2746,-163.9239 961.8479,-128.6414 879.1483,-113.1689 833.3634,-106.9374"/>
<polygon fill="#ff0000" stroke="#ff0000" stroke-width=".2392" points="833.7299,-103.4557 823.3636,-105.6444 832.8322,-110.3979 833.7299,-103.4557"/>
</g>
<!-- right -->
<g id="node14" class="node">
<title>right</title>
<ellipse fill="#add8e6" stroke="#000000" cx="1294.2746" cy="-199.9863" rx="23.1702" ry="23.1702"/>
<text text-anchor="middle" x="1294.2746" y="-197.7863" font-family="Times,serif" font-size="9.00" fill="#000000">right</text>
</g>
<!-- x&#45;vel&#45;&gt;right -->
<g id="edge18" class="edge">
<title>x&#45;vel&#45;&gt;right</title>
<path fill="none" stroke="#00ff00" stroke-width=".3009" stroke-dasharray="1,5" d="M1371.2067,-357.287C1379.4438,-348.8759 1390.543,-335.6575 1395.2746,-321.5462 1402.2682,-300.6886 1405.346,-291.6068 1395.2746,-272.0488 1380.8001,-243.9403 1349.7218,-224.3748 1325.8375,-212.796"/>
<polygon fill="#00ff00" stroke="#00ff00" stroke-width=".3009" points="1326.9841,-209.4707 1316.4372,-208.4635 1324.054,-215.828 1326.9841,-209.4707"/>
</g>
<!-- left -->
<g id="node15" class="node">
<title>left</title>
<ellipse fill="#add8e6" stroke="#000000" cx="1160.2746" cy="-21.2132" rx="19.6" ry="19.6"/>
<text text-anchor="middle" x="1160.2746" y="-19.0132" font-family="Times,serif" font-size="9.00" fill="#000000">left</text>
</g>
<!-- x&#45;vel&#45;&gt;left -->
<g id="edge23" class="edge">
<title>x&#45;vel&#45;&gt;left</title>
<path fill="none" stroke="#ff0000" stroke-width=".3031" stroke-dasharray="1,5" d="M1377.5033,-357.4649C1389.5925,-349.6869 1405.1834,-337.2602 1412.2746,-321.5462 1421.3233,-301.4945 1417.8528,-293.3287 1412.2746,-272.0488 1387.234,-176.5229 1377.5618,-143.4927 1303.2746,-78.4264 1270.3835,-49.6179 1221.1685,-34.2695 1189.9018,-26.9396"/>
<polygon fill="#ff0000" stroke="#ff0000" stroke-width=".3031" points="1190.5563,-23.4998 1180.0359,-24.7534 1189.0418,-30.334 1190.5563,-23.4998"/>
</g>
<!-- forward -->
<g id="node16" class="node">
<title>forward</title>
<ellipse fill="#add8e6" stroke="#000000" cx="382.2746" cy="-199.9863" rx="31.6406" ry="31.6406"/>
<text text-anchor="middle" x="382.2746" y="-197.7863" font-family="Times,serif" font-size="9.00" fill="#000000">forward</text>
</g>
<!-- x&#45;vel&#45;&gt;forward -->
<g id="edge15" class="edge">
<title>x&#45;vel&#45;&gt;forward</title>
<path fill="none" stroke="#ff0000" stroke-width=".6995" d="M1343.677,-366.0355C1214.4271,-362.2466 416.3922,-338.1996 398.2746,-321.5462 376.8302,-301.8351 373.7392,-268.4653 375.5081,-241.6699"/>
<polygon fill="#ff0000" stroke="#ff0000" stroke-width=".6995" points="379.0224,-241.6688 376.4379,-231.3941 372.0509,-241.038 379.0224,-241.6688"/>
</g>
<!-- 2713 -->
<g id="node22" class="node">
<title>2713</title>
<ellipse fill="#ffffff" stroke="#000000" cx="1361.2746" cy="-296.7975" rx="25" ry="25"/>
<text text-anchor="middle" x="1361.2746" y="-294.5975" font-family="Times,serif" font-size="9.00" fill="#000000">2713</text>
</g>
<!-- x&#45;vel&#45;&gt;2713 -->
<g id="edge62" class="edge">
<title>x&#45;vel&#45;&gt;2713</title>
<path fill="none" stroke="#00ff00" stroke-width=".2132" d="M1361.2746,-357.4278C1361.2746,-350.8111 1361.2746,-341.3996 1361.2746,-331.9599"/>
<polygon fill="#00ff00" stroke="#00ff00" stroke-width=".2132" points="1364.7747,-331.8367 1361.2746,-321.8368 1357.7747,-331.8368 1364.7747,-331.8367"/>
</g>
<!-- y&#45;vel -->
<g id="node2" class="node">
<title>y&#45;vel</title>
<polygon fill="#d3d3d3" stroke="#000000" points="992.7746,-305.7975 957.7746,-305.7975 957.7746,-287.7975 992.7746,-287.7975 992.7746,-305.7975"/>
<text text-anchor="middle" x="975.2746" y="-294.5975" font-family="Times,serif" font-size="9.00" fill="#000000">y&#45;vel</text>
</g>
<!-- y&#45;vel&#45;&gt;none -->
<g id="edge2" class="edge">
<title>y&#45;vel&#45;&gt;none</title>
<path fill="none" stroke="#00ff00" stroke-width=".1099" d="M981.7168,-287.6961C997.2165,-264.5826 1033.2333,-202.7088 1004.2746,-163.9239 983.7667,-136.4573 886.1528,-117.0036 833.3607,-108.2967"/>
<polygon fill="#00ff00" stroke="#00ff00" stroke-width=".1099" points="833.8652,-104.833 823.436,-106.6995 832.7528,-111.744 833.8652,-104.833"/>
</g>
<!-- y&#45;vel&#45;&gt;left -->
<g id="edge7" class="edge">
<title>y&#45;vel&#45;&gt;left</title>
<path fill="none" stroke="#ff0000" stroke-width=".3731" stroke-dasharray="1,5" d="M983.0662,-287.5586C992.8278,-275.8462 1009.8973,-254.9051 1023.2746,-236.0488 1071.2781,-168.3835 1078.5256,-148.2867 1123.2746,-78.4264 1129.9181,-68.0548 1137.2784,-56.6551 1143.6733,-46.7796"/>
<polygon fill="#ff0000" stroke="#ff0000" stroke-width=".3731" points="1146.7245,-48.507 1149.2265,-38.2118 1140.8505,-44.6997 1146.7245,-48.507"/>
</g>
<!-- 2610 -->
<g id="node26" class="node">
<title>2610</title>
<ellipse fill="#ffffff" stroke="#000000" cx="970.2746" cy="-199.9863" rx="25" ry="25"/>
<text text-anchor="middle" x="970.2746" y="-197.7863" font-family="Times,serif" font-size="9.00" fill="#000000">2610</text>
</g>
<!-- y&#45;vel&#45;&gt;2610 -->
<g id="edge58" class="edge">
<title>y&#45;vel&#45;&gt;2610</title>
<path fill="none" stroke="#00ff00" stroke-width=".2831" d="M974.7951,-287.5148C974.1723,-275.4555 973.0497,-253.72 972.0791,-234.9265"/>
<polygon fill="#00ff00" stroke="#00ff00" stroke-width=".2831" points="975.5709,-234.6746 971.5597,-224.8685 968.5802,-235.0357 975.5709,-234.6746"/>
</g>
<!-- 1138 -->
<g id="node31" class="node">
<title>1138</title>
<ellipse fill="#ffffff" stroke="#000000" cx="660.2746" cy="-199.9863" rx="25" ry="25"/>
<text text-anchor="middle" x="660.2746" y="-197.7863" font-family="Times,serif" font-size="9.00" fill="#000000">1138</text>
</g>
<!-- y&#45;vel&#45;&gt;1138 -->
<g id="edge35" class="edge">
<title>y&#45;vel&#45;&gt;1138</title>
<path fill="none" stroke="#ff0000" stroke-width=".2073" stroke-dasharray="1,5" d="M957.6576,-288.9962C944.7577,-283.5551 926.7084,-276.4994 910.2746,-272.0488 816.3343,-246.6079 780.1475,-281.851 694.2746,-236.0488 689.947,-233.7406 685.8609,-230.6724 682.1234,-227.2971"/>
<polygon fill="#ff0000" stroke="#ff0000" stroke-width=".2073" points="684.5001,-224.723 674.9755,-220.0827 679.5275,-229.6498 684.5001,-224.723"/>
</g>
<!-- x&#45;pos -->
<g id="node3" class="node">
<title>x&#45;pos</title>
<polygon fill="#d3d3d3" stroke="#000000" points="452.2746,-375.5462 416.2746,-375.5462 416.2746,-357.5462 452.2746,-357.5462 452.2746,-375.5462"/>
<text text-anchor="middle" x="434.2746" y="-364.3462" font-family="Times,serif" font-size="9.00" fill="#000000">x&#45;pos</text>
</g>
<!-- x&#45;pos&#45;&gt;none -->
<g id="edge12" class="edge">
<title>x&#45;pos&#45;&gt;none</title>
<path fill="none" stroke="#00ff00" stroke-width=".7849" d="M416.1954,-362.3004C386.1241,-354.8315 327.9666,-338.5185 316.2746,-321.5462 292.135,-286.5051 325.4407,-178.3157 341.2746,-163.9239 372.6253,-135.4285 664.1717,-112.591 765.0893,-105.4808"/>
<polygon fill="#00ff00" stroke="#00ff00" stroke-width=".7849" points="765.3348,-108.9723 775.0673,-104.7854 764.8481,-101.9892 765.3348,-108.9723"/>
</g>
<!-- x&#45;pos&#45;&gt;forward -->
<g id="edge17" class="edge">
<title>x&#45;pos&#45;&gt;forward</title>
<path fill="none" stroke="#00ff00" stroke-width=".1531" d="M416.0556,-364.8808C391.0998,-361.5098 347.1228,-351.4258 327.2746,-321.5462 307.8768,-292.3449 330.637,-255.1851 352.4883,-229.6826"/>
<polygon fill="#00ff00" stroke="#00ff00" stroke-width=".1531" points="355.1496,-231.957 359.1929,-222.164 349.9251,-227.2981 355.1496,-231.957"/>
</g>
<!-- backward -->
<g id="node17" class="node">
<title>backward</title>
<ellipse fill="#add8e6" stroke="#000000" cx="581.2746" cy="-199.9863" rx="36.125" ry="36.125"/>
<text text-anchor="middle" x="581.2746" y="-197.7863" font-family="Times,serif" font-size="9.00" fill="#000000">backward</text>
</g>
<!-- x&#45;pos&#45;&gt;backward -->
<g id="edge9" class="edge">
<title>x&#45;pos&#45;&gt;backward</title>
<path fill="none" stroke="#00ff00" stroke-width=".3531" stroke-dasharray="1,5" d="M452.397,-364.1229C476.9488,-359.8825 520.5445,-348.8059 545.2746,-321.5462 563.9266,-300.9863 572.9381,-271.1795 577.281,-246.2276"/>
<polygon fill="#00ff00" stroke="#00ff00" stroke-width=".3531" points="580.7581,-246.6441 578.8232,-236.2274 573.8398,-245.5771 580.7581,-246.6441"/>
</g>
<!-- 1231 -->
<g id="node28" class="node">
<title>1231</title>
<ellipse fill="#ffffff" stroke="#000000" cx="618.2746" cy="-296.7975" rx="25" ry="25"/>
<text text-anchor="middle" x="618.2746" y="-294.5975" font-family="Times,serif" font-size="9.00" fill="#000000">1231</text>
</g>
<!-- x&#45;pos&#45;&gt;1231 -->
<g id="edge37" class="edge">
<title>x&#45;pos&#45;&gt;1231</title>
<path fill="none" stroke="#00ff00" stroke-width=".2484" d="M452.7031,-362.4876C480.815,-355.9324 535.734,-341.6832 579.2746,-321.5462 582.5021,-320.0536 585.7816,-318.3354 588.9983,-316.5147"/>
<polygon fill="#00ff00" stroke="#00ff00" stroke-width=".2484" points="591.0405,-319.3707 597.8021,-311.214 587.4297,-313.3738 591.0405,-319.3707"/>
</g>
<!-- y&#45;pos -->
<g id="node4" class="node">
<title>y&#45;pos</title>
<polygon fill="#d3d3d3" stroke="#000000" points="1470.2746,-375.5462 1434.2746,-375.5462 1434.2746,-357.5462 1470.2746,-357.5462 1470.2746,-375.5462"/>
<text text-anchor="middle" x="1452.2746" y="-364.3462" font-family="Times,serif" font-size="9.00" fill="#000000">y&#45;pos</text>
</g>
<!-- y&#45;pos&#45;&gt;left -->
<g id="edge20" class="edge">
<title>y&#45;pos&#45;&gt;left</title>
<path fill="none" stroke="#00ff00" stroke-width=".2672" stroke-dasharray="1,5" d="M1452.0703,-357.4582C1450.607,-316.5763 1438.6666,-148.6588 1341.2746,-78.4264 1294.8509,-44.9489 1228.113,-30.5626 1189.9892,-24.7718"/>
<polygon fill="#00ff00" stroke="#00ff00" stroke-width=".2672" points="1190.4287,-21.2992 1180.0358,-23.3577 1189.444,-28.2296 1190.4287,-21.2992"/>
</g>
<!-- y&#45;pos&#45;&gt;1231 -->
<g id="edge41" class="edge">
<title>y&#45;pos&#45;&gt;1231</title>
<path fill="none" stroke="#ff0000" stroke-width=".2916" d="M1434.118,-363.558C1421.3337,-361.5607 1403.7997,-359.0353 1388.2746,-357.5462 1079.059,-327.8887 995.2422,-380.6105 690.2746,-321.5462 677.0951,-318.9937 663.0406,-314.5712 650.8798,-310.1643"/>
<polygon fill="#ff0000" stroke="#ff0000" stroke-width=".2916" points="651.7628,-306.7569 641.1709,-306.5074 649.2954,-313.3076 651.7628,-306.7569"/>
</g>
<!-- x&#45;lm1&#45;vec -->
<g id="node5" class="node">
<title>x&#45;lm1&#45;vec</title>
<polygon fill="#d3d3d3" stroke="#000000" points="900.7746,-305.7975 847.7746,-305.7975 847.7746,-287.7975 900.7746,-287.7975 900.7746,-305.7975"/>
<text text-anchor="middle" x="874.2746" y="-294.5975" font-family="Times,serif" font-size="9.00" fill="#000000">x&#45;lm1&#45;vec</text>
</g>
<!-- x&#45;lm1&#45;vec&#45;&gt;none -->
<g id="edge61" class="edge">
<title>x&#45;lm1&#45;vec&#45;&gt;none</title>
<path fill="none" stroke="#00ff00" stroke-width=".4142" d="M875.3358,-287.532C877.492,-265.063 880.5957,-206.4012 860.2746,-163.9239 852.7083,-148.1081 839.2681,-134.0313 826.9258,-123.4207"/>
<polygon fill="#00ff00" stroke="#00ff00" stroke-width=".4142" points="828.9999,-120.5953 819.0464,-116.9651 824.5635,-126.0101 828.9999,-120.5953"/>
</g>
<!-- x&#45;lm1&#45;vec&#45;&gt;right -->
<g id="edge16" class="edge">
<title>x&#45;lm1&#45;vec&#45;&gt;right</title>
<path fill="none" stroke="#00ff00" stroke-width="2.7495" d="M897.9313,-287.7176C912.5344,-282.4335 931.7631,-276.0466 949.2746,-272.0488 1069.4477,-244.6136 1106.6227,-272.8224 1224.2746,-236.0488 1238.5195,-231.5963 1253.3452,-224.383 1265.6657,-217.5733"/>
<polygon fill="#00ff00" stroke="#00ff00" stroke-width="2.7495" points="1267.6024,-220.4978 1274.5478,-212.497 1264.129,-214.4203 1267.6024,-220.4978"/>
</g>
<!-- x&#45;lm1&#45;vec&#45;&gt;backward -->
<g id="edge11" class="edge">
<title>x&#45;lm1&#45;vec&#45;&gt;backward</title>
<path fill="none" stroke="#00ff00" stroke-width=".8112" d="M847.6186,-290.9538C787.7445,-277.7298 646.2549,-245.8959 626.2746,-236.0488 622.935,-234.4029 619.6162,-232.4742 616.3824,-230.3797"/>
<polygon fill="#00ff00" stroke="#00ff00" stroke-width=".8112" points="618.2581,-227.4199 608.0656,-224.528 614.23,-233.1448 618.2581,-227.4199"/>
</g>
<!-- y&#45;lm1&#45;vec -->
<g id="node6" class="node">
<title>y&#45;lm1&#45;vec</title>
<polygon fill="#d3d3d3" stroke="#000000" points="536.7746,-305.7975 483.7746,-305.7975 483.7746,-287.7975 536.7746,-287.7975 536.7746,-305.7975"/>
<text text-anchor="middle" x="510.2746" y="-294.5975" font-family="Times,serif" font-size="9.00" fill="#000000">y&#45;lm1&#45;vec</text>
</g>
<!-- y&#45;lm1&#45;vec&#45;&gt;none -->
<g id="edge14" class="edge">
<title>y&#45;lm1&#45;vec&#45;&gt;none</title>
<path fill="none" stroke="#ff0000" stroke-width=".245" d="M509.0109,-287.5553C506.2919,-263.5612 502.618,-198.7366 536.2746,-163.9239 567.7462,-131.3711 701.5629,-113.3487 765.2812,-106.4687"/>
<polygon fill="#ff0000" stroke="#ff0000" stroke-width=".245" points="765.6616,-109.9481 775.2414,-105.4227 764.9305,-102.9863 765.6616,-109.9481"/>
</g>
<!-- y&#45;lm1&#45;vec&#45;&gt;forward -->
<g id="edge19" class="edge">
<title>y&#45;lm1&#45;vec&#45;&gt;forward</title>
<path fill="none" stroke="#00ff00" stroke-width="2.4754" d="M498.0014,-287.5148C479.2882,-273.3613 442.9522,-245.8791 415.9653,-225.4679"/>
<polygon fill="#00ff00" stroke="#00ff00" stroke-width="2.4754" points="418.007,-222.6238 407.92,-219.3829 413.7844,-228.2068 418.007,-222.6238"/>
</g>
<!-- y&#45;lm1&#45;vec&#45;&gt;backward -->
<g id="edge31" class="edge">
<title>y&#45;lm1&#45;vec&#45;&gt;backward</title>
<path fill="none" stroke="#ff0000" stroke-width="1.562" d="M517.0823,-287.5148C525.51,-276.0234 540.3814,-255.7457 553.6893,-237.5999"/>
<polygon fill="#ff0000" stroke="#ff0000" stroke-width="1.562" points="556.5733,-239.5856 559.6649,-229.4519 550.9286,-235.4459 556.5733,-239.5856"/>
</g>
<!-- 2591 -->
<g id="node23" class="node">
<title>2591</title>
<ellipse fill="#ffffff" stroke="#000000" cx="464.2746" cy="-199.9863" rx="25" ry="25"/>
<text text-anchor="middle" x="464.2746" y="-197.7863" font-family="Times,serif" font-size="9.00" fill="#000000">2591</text>
</g>
<!-- y&#45;lm1&#45;vec&#45;&gt;2591 -->
<g id="edge55" class="edge">
<title>y&#45;lm1&#45;vec&#45;&gt;2591</title>
<path fill="none" stroke="#ff0000" stroke-width=".2795" d="M505.8639,-287.5148C499.7959,-274.7441 488.5718,-251.122 479.312,-231.6339"/>
<polygon fill="#ff0000" stroke="#ff0000" stroke-width=".2795" points="482.4083,-229.995 474.9553,-222.4649 476.0857,-232.9992 482.4083,-229.995"/>
</g>
<!-- x&#45;lm2&#45;vec -->
<g id="node7" class="node">
<title>x&#45;lm2&#45;vec</title>
<polygon fill="#d3d3d3" stroke="#000000" points="234.7746,-305.7975 181.7746,-305.7975 181.7746,-287.7975 234.7746,-287.7975 234.7746,-305.7975"/>
<text text-anchor="middle" x="208.2746" y="-294.5975" font-family="Times,serif" font-size="9.00" fill="#000000">x&#45;lm2&#45;vec</text>
</g>
<!-- x&#45;lm2&#45;vec&#45;&gt;none -->
<g id="edge27" class="edge">
<title>x&#45;lm2&#45;vec&#45;&gt;none</title>
<path fill="none" stroke="#00ff00" stroke-width=".2594" stroke-dasharray="1,5" d="M216.7436,-287.6193C227.3477,-275.9695 245.8697,-255.0929 260.2746,-236.0488 283.5033,-205.339 275.5153,-184.1599 308.2746,-163.9239 385.0382,-116.5055 666.5029,-106.0025 764.9777,-103.7605"/>
<polygon fill="#00ff00" stroke="#00ff00" stroke-width=".2594" points="765.0714,-107.2594 774.9945,-103.5469 764.9222,-100.261 765.0714,-107.2594"/>
</g>
<!-- x&#45;lm2&#45;vec&#45;&gt;left -->
<g id="edge21" class="edge">
<title>x&#45;lm2&#45;vec&#45;&gt;left</title>
<path fill="none" stroke="#ff0000" stroke-width=".1183" stroke-dasharray="1,5" d="M208.8874,-287.6121C211.044,-263.1822 220.4855,-196.2698 260.2746,-163.9239 398.4587,-51.5893 989.6572,-26.4634 1130.2069,-22.0377"/>
<polygon fill="#ff0000" stroke="#ff0000" stroke-width=".1183" points="1130.369,-25.5344 1140.2582,-21.7327 1130.1566,-18.5377 1130.369,-25.5344"/>
</g>
<!-- x&#45;lm2&#45;vec&#45;&gt;forward -->
<g id="edge22" class="edge">
<title>x&#45;lm2&#45;vec&#45;&gt;forward</title>
<path fill="none" stroke="#ff0000" stroke-width=".3206" stroke-dasharray="1,5" d="M224.6441,-287.6897C252.0966,-272.4156 308.0693,-241.2731 345.3832,-220.5122"/>
<polygon fill="#ff0000" stroke="#ff0000" stroke-width=".3206" points="347.4023,-223.3941 354.4391,-215.4736 343.9989,-217.2772 347.4023,-223.3941"/>
</g>
<!-- x&#45;lm2&#45;vec&#45;&gt;backward -->
<g id="edge5" class="edge">
<title>x&#45;lm2&#45;vec&#45;&gt;backward</title>
<path fill="none" stroke="#ff0000" stroke-width=".5635" stroke-dasharray="1,5" d="M235.1315,-293.0425C286.8841,-285.3987 403.6728,-266.1632 498.2746,-236.0488 512.008,-231.677 526.5567,-225.8078 539.5729,-220.0756"/>
<polygon fill="#ff0000" stroke="#ff0000" stroke-width=".5635" points="541.0623,-223.2435 548.7464,-215.9493 538.1907,-216.8596 541.0623,-223.2435"/>
</g>
<!-- 1302 -->
<g id="node21" class="node">
<title>1302</title>
<ellipse fill="#ffffff" stroke="#000000" cx="200.2746" cy="-103.1751" rx="25" ry="25"/>
<text text-anchor="middle" x="200.2746" y="-100.9751" font-family="Times,serif" font-size="9.00" fill="#000000">1302</text>
</g>
<!-- x&#45;lm2&#45;vec&#45;&gt;1302 -->
<g id="edge39" class="edge">
<title>x&#45;lm2&#45;vec&#45;&gt;1302</title>
<path fill="none" stroke="#ff0000" stroke-width=".6523" d="M207.8994,-287.7184C206.8104,-261.3607 203.6061,-183.8074 201.7158,-138.0567"/>
<polygon fill="#ff0000" stroke="#ff0000" stroke-width=".6523" points="205.2095,-137.8305 201.2996,-127.9835 198.2155,-138.1195 205.2095,-137.8305"/>
</g>
<!-- 2858 -->
<g id="node25" class="node">
<title>2858</title>
<ellipse fill="#ffffff" stroke="#000000" cx="49.2746" cy="-199.9863" rx="25" ry="25"/>
<text text-anchor="middle" x="49.2746" y="-197.7863" font-family="Times,serif" font-size="9.00" fill="#000000">2858</text>
</g>
<!-- x&#45;lm2&#45;vec&#45;&gt;2858 -->
<g id="edge64" class="edge">
<title>x&#45;lm2&#45;vec&#45;&gt;2858</title>
<path fill="none" stroke="#00ff00" stroke-width=".4094" d="M186.0098,-287.7555C161.1101,-277.1483 120.1024,-258.1735 88.2746,-236.0488 83.542,-232.759 78.7957,-228.9261 74.3244,-225.0113"/>
<polygon fill="#00ff00" stroke="#00ff00" stroke-width=".4094" points="76.3759,-222.1443 66.6355,-217.9759 71.6505,-227.3087 76.3759,-222.1443"/>
</g>
<!-- 1468 -->
<g id="node27" class="node">
<title>1468</title>
<ellipse fill="#ffffff" stroke="#000000" cx="155.2746" cy="-199.9863" rx="25" ry="25"/>
<text text-anchor="middle" x="155.2746" y="-197.7863" font-family="Times,serif" font-size="9.00" fill="#000000">1468</text>
</g>
<!-- x&#45;lm2&#45;vec&#45;&gt;1468 -->
<g id="edge42" class="edge">
<title>x&#45;lm2&#45;vec&#45;&gt;1468</title>
<path fill="none" stroke="#00ff00" stroke-width=".3982" stroke-dasharray="1,5" d="M203.1927,-287.5148C196.1248,-274.6044 182.9854,-250.6036 172.2508,-230.9956"/>
<polygon fill="#00ff00" stroke="#00ff00" stroke-width=".3982" points="175.2375,-229.1625 167.3653,-222.0716 169.0974,-232.5239 175.2375,-229.1625"/>
</g>
<!-- 1902 -->
<g id="node30" class="node">
<title>1902</title>
<ellipse fill="#ffffff" stroke="#000000" cx="94.2746" cy="-103.1751" rx="25" ry="25"/>
<text text-anchor="middle" x="94.2746" y="-100.9751" font-family="Times,serif" font-size="9.00" fill="#000000">1902</text>
</g>
<!-- x&#45;lm2&#45;vec&#45;&gt;1902 -->
<g id="edge48" class="edge">
<title>x&#45;lm2&#45;vec&#45;&gt;1902</title>
<path fill="none" stroke="#00ff00" stroke-width=".1804" stroke-dasharray="1,5" d="M187.1911,-287.7886C167.0158,-278.0396 137.3476,-260.5358 121.2746,-236.0488 102.0893,-206.8203 96.0774,-166.7812 94.4109,-138.3141"/>
<polygon fill="#00ff00" stroke="#00ff00" stroke-width=".1804" points="97.8946,-137.8569 93.9666,-128.0171 90.9011,-138.1587 97.8946,-137.8569"/>
</g>
<!-- 630 -->
<g id="node32" class="node">
<title>630</title>
<ellipse fill="#ffffff" stroke="#000000" cx="94.2746" cy="-21.2132" rx="21.4286" ry="21.4286"/>
<text text-anchor="middle" x="94.2746" y="-19.0132" font-family="Times,serif" font-size="9.00" fill="#000000">630</text>
</g>
<!-- x&#45;lm2&#45;vec&#45;&gt;630 -->
<g id="edge30" class="edge">
<title>x&#45;lm2&#45;vec&#45;&gt;630</title>
<path fill="none" stroke="#00ff00" stroke-width=".1619" d="M181.482,-292.3364C133.2977,-283.7079 35.1697,-263.1684 15.2746,-236.0488 -29.4608,-175.0687 35.9769,-86.0247 72.5038,-44.3437"/>
<polygon fill="#00ff00" stroke="#00ff00" stroke-width=".1619" points="75.3193,-46.4461 79.3825,-36.6613 70.1043,-41.7766 75.3193,-46.4461"/>
</g>
<!-- y&#45;lm2&#45;vec -->
<g id="node8" class="node">
<title>y&#45;lm2&#45;vec</title>
<polygon fill="#d3d3d3" stroke="#000000" points="752.7746,-305.7975 699.7746,-305.7975 699.7746,-287.7975 752.7746,-287.7975 752.7746,-305.7975"/>
<text text-anchor="middle" x="726.2746" y="-294.5975" font-family="Times,serif" font-size="9.00" fill="#000000">y&#45;lm2&#45;vec</text>
</g>
<!-- y&#45;lm2&#45;vec&#45;&gt;none -->
<g id="edge10" class="edge">
<title>y&#45;lm2&#45;vec&#45;&gt;none</title>
<path fill="none" stroke="#00ff00" stroke-width=".3295" stroke-dasharray="1,5" d="M730.9518,-287.4614C736.7823,-275.6486 746.8801,-254.6041 754.2746,-236.0488 767.626,-202.5452 780.5882,-163.3422 789.1442,-136.2437"/>
<polygon fill="#00ff00" stroke="#00ff00" stroke-width=".3295" points="792.5508,-137.0767 792.1992,-126.4877 785.8707,-134.9848 792.5508,-137.0767"/>
</g>
<!-- y&#45;lm2&#45;vec&#45;&gt;backward -->
<g id="edge13" class="edge">
<title>y&#45;lm2&#45;vec&#45;&gt;backward</title>
<path fill="none" stroke="#ff0000" stroke-width=".6975" stroke-dasharray="1,5" d="M710.9763,-287.5751C683.9577,-271.2773 630.2477,-238.8301 626.2746,-236.0488 623.3988,-234.0357 620.4667,-231.8975 617.5475,-229.7063"/>
<polygon fill="#ff0000" stroke="#ff0000" stroke-width=".6975" points="619.4734,-226.7721 609.4127,-223.4505 615.2061,-232.3211 619.4734,-226.7721"/>
</g>
<!-- x&#45;other&#45;vec -->
<g id="node9" class="node">
<title>x&#45;other&#45;vec</title>
<polygon fill="#d3d3d3" stroke="#000000" points="1318.2746,-305.7975 1260.2746,-305.7975 1260.2746,-287.7975 1318.2746,-287.7975 1318.2746,-305.7975"/>
<text text-anchor="middle" x="1289.2746" y="-294.5975" font-family="Times,serif" font-size="9.00" fill="#000000">x&#45;other&#45;vec</text>
</g>
<!-- x&#45;other&#45;vec&#45;&gt;none -->
<g id="edge8" class="edge">
<title>x&#45;other&#45;vec&#45;&gt;none</title>
<path fill="none" stroke="#ff0000" stroke-width=".1639" stroke-dasharray="1,5" d="M1285.0485,-287.5679C1271.5188,-258.1008 1229.8298,-167.965 1224.2746,-163.9239 1162.011,-118.6308 923.439,-106.8779 833.6864,-104.0287"/>
<polygon fill="#ff0000" stroke="#ff0000" stroke-width=".1639" points="833.6009,-100.5246 823.5006,-103.7237 833.3913,-107.5215 833.6009,-100.5246"/>
</g>
<!-- x&#45;other&#45;vec&#45;&gt;right -->
<g id="edge6" class="edge">
<title>x&#45;other&#45;vec&#45;&gt;right</title>
<path fill="none" stroke="#00ff00" stroke-width=".3732" d="M1289.754,-287.5148C1290.3892,-275.2159 1291.5442,-252.8525 1292.5277,-233.8099"/>
<polygon fill="#00ff00" stroke="#00ff00" stroke-width=".3732" points="1296.0315,-233.8246 1293.052,-223.6574 1289.0408,-233.4635 1296.0315,-233.8246"/>
</g>
<!-- y&#45;other&#45;vec -->
<g id="node10" class="node">
<title>y&#45;other&#45;vec</title>
<polygon fill="#d3d3d3" stroke="#000000" points="465.2746,-305.7975 407.2746,-305.7975 407.2746,-287.7975 465.2746,-287.7975 465.2746,-305.7975"/>
<text text-anchor="middle" x="436.2746" y="-294.5975" font-family="Times,serif" font-size="9.00" fill="#000000">y&#45;other&#45;vec</text>
</g>
<!-- y&#45;other&#45;vec&#45;&gt;forward -->
<g id="edge24" class="edge">
<title>y&#45;other&#45;vec&#45;&gt;forward</title>
<path fill="none" stroke="#00ff00" stroke-width=".1653" stroke-dasharray="1,5" d="M431.0968,-287.5148C424.6087,-275.8829 413.0991,-255.2486 402.8842,-236.9353"/>
<polygon fill="#00ff00" stroke="#00ff00" stroke-width=".1653" points="405.9293,-235.2095 398.0013,-228.1812 399.816,-238.6195 405.9293,-235.2095"/>
</g>
<!-- y&#45;other&#45;vec&#45;&gt;backward -->
<g id="edge4" class="edge">
<title>y&#45;other&#45;vec&#45;&gt;backward</title>
<path fill="none" stroke="#00ff00" stroke-width=".2533" stroke-dasharray="1,5" d="M449.9158,-287.6897C470.988,-273.6206 512.2248,-246.0883 542.901,-225.607"/>
<polygon fill="#00ff00" stroke="#00ff00" stroke-width=".2533" points="544.8744,-228.4978 551.2477,-220.0342 540.9875,-222.6761 544.8744,-228.4978"/>
</g>
<!-- x&#45;other&#45;vel -->
<g id="node11" class="node">
<title>x&#45;other&#45;vel</title>
<polygon fill="#d3d3d3" stroke="#000000" points="957.2746,-375.5462 901.2746,-375.5462 901.2746,-357.5462 957.2746,-357.5462 957.2746,-375.5462"/>
<text text-anchor="middle" x="929.2746" y="-364.3462" font-family="Times,serif" font-size="9.00" fill="#000000">x&#45;other&#45;vel</text>
</g>
<!-- x&#45;other&#45;vel&#45;&gt;none -->
<g id="edge25" class="edge">
<title>x&#45;other&#45;vel&#45;&gt;none</title>
<path fill="none" stroke="#ff0000" stroke-width=".5594" d="M929.3376,-357.1385C929.0999,-326.4998 924.8046,-227.8787 881.2746,-163.9239 868.2861,-144.8411 847.2786,-129.4472 829.7788,-118.9301"/>
<polygon fill="#ff0000" stroke="#ff0000" stroke-width=".5594" points="831.4211,-115.837 821.0083,-113.8811 827.9287,-121.9036 831.4211,-115.837"/>
</g>
<!-- x&#45;other&#45;vel&#45;&gt;left -->
<g id="edge26" class="edge">
<title>x&#45;other&#45;vel&#45;&gt;left</title>
<path fill="none" stroke="#ff0000" stroke-width=".3809" stroke-dasharray="1,5" d="M957.4388,-360.7342C993.5995,-352.741 1053.567,-337.5199 1069.2746,-321.5462 1143.7149,-245.8451 1157.5548,-111.3661 1159.9199,-51.4594"/>
<polygon fill="#ff0000" stroke="#ff0000" stroke-width=".3809" points="1163.4272,-51.2764 1160.24,-41.1723 1156.4306,-51.0586 1163.4272,-51.2764"/>
</g>
<!-- x&#45;other&#45;vel&#45;&gt;forward -->
<g id="edge28" class="edge">
<title>x&#45;other&#45;vel&#45;&gt;forward</title>
<path fill="none" stroke="#ff0000" stroke-width=".325" d="M901.185,-365.3543C789.7116,-360.4909 383.6625,-341.4598 365.2746,-321.5462 344.7385,-299.3064 352.2279,-264.3182 362.9635,-237.5778"/>
<polygon fill="#ff0000" stroke="#ff0000" stroke-width=".325" points="366.2874,-238.7077 367.0197,-228.1382 359.856,-235.9441 366.2874,-238.7077"/>
</g>
<!-- x&#45;other&#45;vel&#45;&gt;backward -->
<g id="edge1" class="edge">
<title>x&#45;other&#45;vel&#45;&gt;backward</title>
<path fill="none" stroke="#00ff00" stroke-width=".6777" stroke-dasharray="1,5" d="M901.0057,-363.7704C845.6602,-357.9283 725.3468,-343.1014 690.2746,-321.5462 666.6462,-307.0244 670.486,-292.966 652.2746,-272.0488 640.5275,-258.5564 626.8881,-244.3923 614.722,-232.2272"/>
<polygon fill="#00ff00" stroke="#00ff00" stroke-width=".6777" points="616.9328,-229.4904 607.3673,-224.9349 612.0041,-234.4612 616.9328,-229.4904"/>
</g>
<!-- 1028 -->
<g id="node18" class="node">
<title>1028</title>
<ellipse fill="#ffffff" stroke="#000000" cx="1190.2746" cy="-199.9863" rx="25" ry="25"/>
<text text-anchor="middle" x="1190.2746" y="-197.7863" font-family="Times,serif" font-size="9.00" fill="#000000">1028</text>
</g>
<!-- x&#45;other&#45;vel&#45;&gt;1028 -->
<g id="edge32" class="edge">
<title>x&#45;other&#45;vel&#45;&gt;1028</title>
<path fill="none" stroke="#ff0000" stroke-width=".5413" stroke-dasharray="1,5" d="M957.4639,-363.7915C1008.3281,-358.305 1112.7371,-344.5225 1140.2746,-321.5462 1166.2987,-299.8327 1178.9559,-262.3968 1184.9967,-234.7909"/>
<polygon fill="#ff0000" stroke="#ff0000" stroke-width=".5413" points="1188.4766,-235.237 1187.002,-224.7453 1181.612,-233.8667 1188.4766,-235.237"/>
</g>
<!-- 2313 -->
<g id="node19" class="node">
<title>2313</title>
<ellipse fill="#ffffff" stroke="#000000" cx="826.2746" cy="-199.9863" rx="25" ry="25"/>
<text text-anchor="middle" x="826.2746" y="-197.7863" font-family="Times,serif" font-size="9.00" fill="#000000">2313</text>
</g>
<!-- x&#45;other&#45;vel&#45;&gt;2313 -->
<g id="edge53" class="edge">
<title>x&#45;other&#45;vel&#45;&gt;2313</title>
<path fill="none" stroke="#ff0000" stroke-width=".3125" d="M900.9057,-360.1088C880.3037,-353.8658 853.6203,-342.2105 839.2746,-321.5462 821.828,-296.4155 819.9067,-261.0469 821.5586,-234.9365"/>
<polygon fill="#ff0000" stroke="#ff0000" stroke-width=".3125" points="825.0672,-234.9795 822.4137,-224.7224 818.0916,-234.3955 825.0672,-234.9795"/>
</g>
<!-- 1810 -->
<g id="node20" class="node">
<title>1810</title>
<ellipse fill="#ffffff" stroke="#000000" cx="1217.2746" cy="-296.7975" rx="25" ry="25"/>
<text text-anchor="middle" x="1217.2746" y="-294.5975" font-family="Times,serif" font-size="9.00" fill="#000000">1810</text>
</g>
<!-- x&#45;other&#45;vel&#45;&gt;1810 -->
<g id="edge46" class="edge">
<title>x&#45;other&#45;vel&#45;&gt;1810</title>
<path fill="none" stroke="#00ff00" stroke-width=".126" d="M957.4912,-364.9838C1004.6817,-361.6038 1101.9537,-351.3352 1178.2746,-321.5462 1181.5871,-320.2533 1184.9223,-318.6657 1188.1728,-316.9244"/>
<polygon fill="#00ff00" stroke="#00ff00" stroke-width=".126" points="1190.1711,-319.8097 1197.0204,-311.7265 1186.6253,-313.7742 1190.1711,-319.8097"/>
</g>
<!-- x&#45;other&#45;vel&#45;&gt;1138 -->
<g id="edge44" class="edge">
<title>x&#45;other&#45;vel&#45;&gt;1138</title>
<path fill="none" stroke="#00ff00" stroke-width="1.0749" stroke-dasharray="1,5" d="M901.1154,-358.0834C877.8964,-350.4274 844.6156,-337.8595 818.2746,-321.5462 790.0342,-304.0566 789.5891,-290.9518 762.2746,-272.0488 734.1553,-252.5889 721.4798,-256.7674 694.2746,-236.0488 690.5544,-233.2156 686.8816,-229.9603 683.4036,-226.5896"/>
<polygon fill="#00ff00" stroke="#00ff00" stroke-width="1.0749" points="685.6412,-223.8704 676.1582,-219.1456 680.6249,-228.7528 685.6412,-223.8704"/>
</g>
<!-- 2169 -->
<g id="node33" class="node">
<title>2169</title>
<ellipse fill="#ffffff" stroke="#000000" cx="1035.2746" cy="-296.7975" rx="25" ry="25"/>
<text text-anchor="middle" x="1035.2746" y="-294.5975" font-family="Times,serif" font-size="9.00" fill="#000000">2169</text>
</g>
<!-- x&#45;other&#45;vel&#45;&gt;2169 -->
<g id="edge51" class="edge">
<title>x&#45;other&#45;vel&#45;&gt;2169</title>
<path fill="none" stroke="#00ff00" stroke-width=".2108" d="M944.9151,-357.4655C959.8764,-348.6487 982.9559,-334.7048 1002.2746,-321.5462 1003.917,-320.4275 1005.5912,-319.2605 1007.2708,-318.0689"/>
<polygon fill="#00ff00" stroke="#00ff00" stroke-width=".2108" points="1009.566,-320.7274 1015.5938,-312.0144 1005.4482,-315.0667 1009.566,-320.7274"/>
</g>
<!-- y&#45;other&#45;vel -->
<g id="node12" class="node">
<title>y&#45;other&#45;vel</title>
<polygon fill="#d3d3d3" stroke="#000000" points="1544.2746,-375.5462 1488.2746,-375.5462 1488.2746,-357.5462 1544.2746,-357.5462 1544.2746,-375.5462"/>
<text text-anchor="middle" x="1516.2746" y="-364.3462" font-family="Times,serif" font-size="9.00" fill="#000000">y&#45;other&#45;vel</text>
</g>
<!-- 1121 -->
<g id="node29" class="node">
<title>1121</title>
<ellipse fill="#ffffff" stroke="#000000" cx="1269.2746" cy="-103.1751" rx="25" ry="25"/>
<text text-anchor="middle" x="1269.2746" y="-100.9751" font-family="Times,serif" font-size="9.00" fill="#000000">1121</text>
</g>
<!-- right&#45;&gt;1121 -->
<g id="edge45" class="edge">
<title>right&#45;&gt;1121</title>
<path fill="none" stroke="#ff0000" stroke-width=".3573" d="M1288.3499,-177.0434C1285.2663,-165.1021 1281.4363,-150.2707 1278.0191,-137.0377"/>
<polygon fill="#ff0000" stroke="#ff0000" stroke-width=".3573" points="1281.3948,-136.1116 1275.5056,-127.3043 1274.6171,-137.8618 1281.3948,-136.1116"/>
</g>
<!-- 1028&#45;&gt;left -->
<g id="edge33" class="edge">
<title>1028&#45;&gt;left</title>
<path fill="none" stroke="#ff0000" stroke-width=".2485" d="M1186.1661,-175.5035C1180.7125,-143.005 1171.0915,-85.6725 1165.2381,-50.7914"/>
<polygon fill="#ff0000" stroke="#ff0000" stroke-width=".2485" points="1168.6581,-50.0223 1163.5513,-40.7394 1161.7546,-51.1808 1168.6581,-50.0223"/>
</g>
<!-- 2313&#45;&gt;none -->
<g id="edge54" class="edge">
<title>2313&#45;&gt;none</title>
<path fill="none" stroke="#00ff00" stroke-width=".488" stroke-dasharray="1,5" d="M819.6004,-176.0555C816.2734,-164.1263 812.1959,-149.5058 808.5685,-136.4994"/>
<polygon fill="#00ff00" stroke="#00ff00" stroke-width=".488" points="811.8366,-135.1888 805.7788,-126.4967 805.0939,-137.0693 811.8366,-135.1888"/>
</g>
<!-- 1810&#45;&gt;right -->
<g id="edge50" class="edge">
<title>1810&#45;&gt;right</title>
<path fill="none" stroke="#00ff00" stroke-width=".3798" d="M1232.8567,-277.2063C1244.4573,-262.6209 1260.4227,-242.5478 1273.1681,-226.5233"/>
<polygon fill="#00ff00" stroke="#00ff00" stroke-width=".3798" points="1276.0138,-228.5681 1279.4994,-218.563 1270.5353,-224.2107 1276.0138,-228.5681"/>
</g>
<!-- 1810&#45;&gt;1028 -->
<g id="edge47" class="edge">
<title>1810&#45;&gt;1028</title>
<path fill="none" stroke="#ff0000" stroke-width=".1418" stroke-dasharray="1,5" d="M1210.6004,-272.8667C1207.3227,-261.1142 1203.3165,-246.7496 1199.73,-233.8897"/>
<polygon fill="#ff0000" stroke="#ff0000" stroke-width=".1418" points="1203.0233,-232.6695 1196.9655,-223.9774 1196.2807,-234.5501 1203.0233,-232.6695"/>
</g>
<!-- 1302&#45;&gt;left -->
<g id="edge40" class="edge">
<title>1302&#45;&gt;left</title>
<path fill="none" stroke="#ff0000" stroke-width=".3361" stroke-dasharray="1,5" d="M219.9454,-88.003C225.8563,-84.2093 232.5623,-80.6043 239.2746,-78.4264 325.592,-50.4191 980.5907,-27.1704 1129.9989,-22.1967"/>
<polygon fill="#ff0000" stroke="#ff0000" stroke-width=".3361" points="1130.3702,-25.6864 1140.2491,-21.8579 1130.1388,-18.6903 1130.3702,-25.6864"/>
</g>
<!-- 2713&#45;&gt;right -->
<g id="edge63" class="edge">
<title>2713&#45;&gt;right</title>
<path fill="none" stroke="#00ff00" stroke-width=".1319" d="M1347.0656,-276.2663C1337.3682,-262.2542 1324.3993,-243.5148 1313.7426,-228.1166"/>
<polygon fill="#00ff00" stroke="#00ff00" stroke-width=".1319" points="1316.3464,-225.7285 1307.7776,-219.4974 1310.5904,-229.7121 1316.3464,-225.7285"/>
</g>
<!-- 2591&#45;&gt;none -->
<g id="edge56" class="edge">
<title>2591&#45;&gt;none</title>
<path fill="none" stroke="#00ff00" stroke-width=".6778" stroke-dasharray="1,5" d="M480.55,-181.2011C487.0158,-174.818 494.9068,-168.2203 503.2746,-163.9239 548.9015,-140.4966 697.5211,-117.4155 765.1767,-107.8198"/>
<polygon fill="#00ff00" stroke="#00ff00" stroke-width=".6778" points="765.8952,-111.2534 775.3117,-106.3976 764.9223,-104.3213 765.8952,-111.2534"/>
</g>
<!-- 297 -->
<g id="node24" class="node">
<title>297</title>
<ellipse fill="#ffffff" stroke="#000000" cx="724.2746" cy="-199.9863" rx="21.4286" ry="21.4286"/>
<text text-anchor="middle" x="724.2746" y="-197.7863" font-family="Times,serif" font-size="9.00" fill="#000000">297</text>
</g>
<!-- 297&#45;&gt;none -->
<g id="edge29" class="edge">
<title>297&#45;&gt;none</title>
<path fill="none" stroke="#ff0000" stroke-width=".1833" d="M737.3386,-183.1231C748.5914,-168.5977 765.0439,-147.3606 778.1642,-130.4248"/>
<polygon fill="#ff0000" stroke="#ff0000" stroke-width=".1833" points="780.9425,-132.5534 784.2999,-122.5046 775.4088,-128.2664 780.9425,-132.5534"/>
</g>
<!-- 2858&#45;&gt;1902 -->
<g id="edge65" class="edge">
<title>2858&#45;&gt;1902</title>
<path fill="none" stroke="#00ff00" stroke-width=".121" d="M59.7116,-177.5326C65.5761,-164.9158 72.9931,-148.9593 79.4512,-135.0654"/>
<polygon fill="#00ff00" stroke="#00ff00" stroke-width=".121" points="82.697,-136.3861 83.7383,-125.8425 76.3492,-133.4354 82.697,-136.3861"/>
</g>
<!-- 2610&#45;&gt;none -->
<g id="edge59" class="edge">
<title>2610&#45;&gt;none</title>
<path fill="none" stroke="#00ff00" stroke-width=".1924" stroke-dasharray="1,5" d="M953.0215,-181.8384C946.572,-175.6684 938.9435,-169.0454 931.2746,-163.9239 899.6979,-142.8363 859.6216,-125.5456 831.9561,-114.8768"/>
<polygon fill="#00ff00" stroke="#00ff00" stroke-width=".1924" points="832.9554,-111.5128 822.3638,-111.251 830.4803,-118.0607 832.9554,-111.5128"/>
</g>
<!-- 1468&#45;&gt;1902 -->
<g id="edge60" class="edge">
<title>1468&#45;&gt;1902</title>
<path fill="none" stroke="#00ff00" stroke-width=".1659" stroke-dasharray="1,5" d="M142.0385,-178.9797C133.5653,-165.5323 122.4416,-147.8782 113.061,-132.9905"/>
<polygon fill="#00ff00" stroke="#00ff00" stroke-width=".1659" points="115.777,-130.7355 107.4848,-124.1407 109.8546,-134.4672 115.777,-130.7355"/>
</g>
<!-- 1468&#45;&gt;630 -->
<g id="edge43" class="edge">
<title>1468&#45;&gt;630</title>
<path fill="none" stroke="#00ff00" stroke-width=".3724" stroke-dasharray="1,5" d="M152.1087,-175.0896C148.3808,-150.0274 141.0203,-110.582 128.2746,-78.4264 124.0479,-67.7631 117.9864,-56.7663 112.1488,-47.2982"/>
<polygon fill="#00ff00" stroke="#00ff00" stroke-width=".3724" points="115.0208,-45.2927 106.6877,-38.7498 109.1218,-49.0612 115.0208,-45.2927"/>
</g>
<!-- 1231&#45;&gt;backward -->
<g id="edge38" class="edge">
<title>1231&#45;&gt;backward</title>
<path fill="none" stroke="#ff0000" stroke-width=".1933" stroke-dasharray="1,5" d="M609.3179,-273.3622C605.8465,-264.2792 601.7577,-253.5809 597.7919,-243.2042"/>
<polygon fill="#ff0000" stroke="#ff0000" stroke-width=".1933" points="601.0451,-241.9122 594.2056,-233.8207 594.5064,-244.4113 601.0451,-241.9122"/>
</g>
<!-- 1121&#45;&gt;left -->
<g id="edge34" class="edge">
<title>1121&#45;&gt;left</title>
<path fill="none" stroke="#ff0000" stroke-width=".1901" stroke-dasharray="1,5" d="M1249.2823,-88.1421C1230.9726,-74.3742 1203.8355,-53.9686 1184.3427,-39.3111"/>
<polygon fill="#ff0000" stroke="#ff0000" stroke-width=".1901" points="1186.3405,-36.4343 1176.2445,-33.2217 1182.1335,-42.0291 1186.3405,-36.4343"/>
</g>
<!-- 1902&#45;&gt;630 -->
<g id="edge49" class="edge">
<title>1902&#45;&gt;630</title>
<path fill="none" stroke="#ff0000" stroke-width=".261" d="M94.2746,-78.1385C94.2746,-70.128 94.2746,-61.1546 94.2746,-52.7431"/>
<polygon fill="#ff0000" stroke="#ff0000" stroke-width=".261" points="97.7747,-52.5037 94.2746,-42.5037 90.7747,-52.5038 97.7747,-52.5037"/>
</g>
<!-- 1138&#45;&gt;none -->
<g id="edge36" class="edge">
<title>1138&#45;&gt;none</title>
<path fill="none" stroke="#ff0000" stroke-width=".3428" stroke-dasharray="1,5" d="M676.2702,-180.9714C681.6644,-175.1404 687.933,-168.9446 694.2746,-163.9239 717.288,-145.7039 746.3657,-129.3167 768.0831,-118.1671"/>
<polygon fill="#ff0000" stroke="#ff0000" stroke-width=".3428" points="769.8434,-121.1993 777.1974,-113.5724 766.6923,-114.9487 769.8434,-121.1993"/>
</g>
<!-- 2169&#45;&gt;1028 -->
<g id="edge52" class="edge">
<title>2169&#45;&gt;1028</title>
<path fill="none" stroke="#00ff00" stroke-width=".113" d="M1056.5017,-283.5393C1083.3662,-266.76 1129.8034,-237.7559 1160.2815,-218.7197"/>
<polygon fill="#00ff00" stroke="#00ff00" stroke-width=".113" points="1162.179,-221.6611 1168.8064,-213.3951 1158.4707,-215.724 1162.179,-221.6611"/>
</g>
<!-- 2169&#45;&gt;1138 -->
<g id="edge57" class="edge">
<title>2169&#45;&gt;1138</title>
<path fill="none" stroke="#00ff00" stroke-width=".1668" d="M1016.7697,-280.2909C1012.2909,-277.0683 1007.3291,-274.0671 1002.2746,-272.0488 874.281,-220.939 817.4252,-297.9236 694.2746,-236.0488 689.892,-233.8468 685.7754,-230.8376 682.0237,-227.4897"/>
<polygon fill="#00ff00" stroke="#00ff00" stroke-width=".1668" points="684.3998,-224.9155 674.8669,-220.2924 679.4361,-229.8513 684.3998,-224.9155"/>
</g>
</g>
</svg>
