<?xml version="1.0" encoding="UTF-8" standalone="no"?>
<!DOCTYPE svg PUBLIC "-//W3C//DTD SVG 1.1//EN"
 "http://www.w3.org/Graphics/SVG/1.1/DTD/svg11.dtd">
<!-- Generated by graphviz version 2.40.1 (20161225.0304)
 -->
<!-- Title: %3 Pages: 1 -->
<svg width="2490pt" height="405pt"
 viewBox="0.00 0.00 2489.98 404.76" xmlns="http://www.w3.org/2000/svg" xmlns:xlink="http://www.w3.org/1999/xlink">
<g id="graph0" class="graph" transform="scale(1 1) rotate(0) translate(4 400.7595)">
<title>%3</title>
<polygon fill="#ffffff" stroke="transparent" points="-4,4 -4,-400.7595 2485.9825,-400.7595 2485.9825,4 -4,4"/>
<!-- A_agent -->
<g id="node1" class="node">
<title>A_agent</title>
<polygon fill="#d3d3d3" stroke="#000000" points="1325.9825,-327.0107 1278.9825,-327.0107 1278.9825,-309.0107 1325.9825,-309.0107 1325.9825,-327.0107"/>
<text text-anchor="middle" x="1302.4825" y="-315.8107" font-family="Times,serif" font-size="9.00" fill="#000000">A_agent</text>
</g>
<!-- right -->
<g id="node32" class="node">
<title>right</title>
<ellipse fill="#add8e6" stroke="#000000" cx="1565.4825" cy="-221.1995" rx="23.1702" ry="23.1702"/>
<text text-anchor="middle" x="1565.4825" y="-218.9995" font-family="Times,serif" font-size="9.00" fill="#000000">right</text>
</g>
<!-- A_agent&#45;&gt;right -->
<g id="edge2" class="edge">
<title>A_agent&#45;&gt;right</title>
<path fill="none" stroke="#ff0000" stroke-width=".5508" stroke-dasharray="1,5" d="M1311.771,-308.8688C1317.7693,-303.4928 1326.0124,-297.0306 1334.4825,-293.262 1416.6007,-256.7242 1455.1277,-301.2955 1533.4825,-257.262 1537.7284,-254.8759 1541.6974,-251.7113 1545.296,-248.2456"/>
<polygon fill="#ff0000" stroke="#ff0000" stroke-width=".5508" points="1547.9071,-250.5772 1552.1324,-240.8613 1542.7704,-245.8216 1547.9071,-250.5772"/>
</g>
<!-- backward -->
<g id="node35" class="node">
<title>backward</title>
<ellipse fill="#add8e6" stroke="#000000" cx="1267.4825" cy="-221.1995" rx="36.125" ry="36.125"/>
<text text-anchor="middle" x="1267.4825" y="-218.9995" font-family="Times,serif" font-size="9.00" fill="#000000">backward</text>
</g>
<!-- A_agent&#45;&gt;backward -->
<g id="edge95" class="edge">
<title>A_agent&#45;&gt;backward</title>
<path fill="none" stroke="#00ff00" stroke-width=".1879" stroke-dasharray="1,5" d="M1299.1265,-308.7281C1295.4364,-298.5211 1289.2402,-281.3823 1283.3041,-264.9626"/>
<polygon fill="#00ff00" stroke="#00ff00" stroke-width=".1879" points="1286.5513,-263.6501 1279.8599,-255.4358 1279.9683,-266.0301 1286.5513,-263.6501"/>
</g>
<!-- no_turn -->
<g id="node36" class="node">
<title>no_turn</title>
<ellipse fill="#add8e6" stroke="#000000" cx="1493.4825" cy="-221.1995" rx="31.2258" ry="31.2258"/>
<text text-anchor="middle" x="1493.4825" y="-218.9995" font-family="Times,serif" font-size="9.00" fill="#000000">no_turn</text>
</g>
<!-- A_agent&#45;&gt;no_turn -->
<g id="edge113" class="edge">
<title>A_agent&#45;&gt;no_turn</title>
<path fill="none" stroke="#00ff00" stroke-width=".5153" stroke-dasharray="1,5" d="M1312.9924,-308.8774C1319.0307,-303.8929 1326.9011,-297.8263 1334.4825,-293.262 1373.4253,-269.8168 1421.3137,-249.108 1454.2985,-235.9769"/>
<polygon fill="#00ff00" stroke="#00ff00" stroke-width=".5153" points="1456.0046,-239.0669 1464.0303,-232.1503 1453.4431,-232.5524 1456.0046,-239.0669"/>
</g>
<!-- cw -->
<g id="node38" class="node">
<title>cw</title>
<ellipse fill="#add8e6" stroke="#000000" cx="695.4825" cy="-221.1995" rx="19.1842" ry="19.1842"/>
<text text-anchor="middle" x="695.4825" y="-218.9995" font-family="Times,serif" font-size="9.00" fill="#000000">cw</text>
</g>
<!-- A_agent&#45;&gt;cw -->
<g id="edge61" class="edge">
<title>A_agent&#45;&gt;cw</title>
<path fill="none" stroke="#ff0000" stroke-width=".4185" d="M1280.4996,-308.8923C1266.4401,-303.4542 1247.678,-296.917 1230.4825,-293.262 1051.9894,-255.3226 1000.9069,-290.5193 821.4825,-257.262 787.072,-250.8838 748.5269,-239.1521 723.2369,-230.8022"/>
<polygon fill="#ff0000" stroke="#ff0000" stroke-width=".4185" points="724.1779,-227.4262 713.584,-227.5663 721.953,-234.0633 724.1779,-227.4262"/>
</g>
<!-- A_lm -->
<g id="node2" class="node">
<title>A_lm</title>
<polygon fill="#d3d3d3" stroke="#000000" points="69.9825,-327.0107 32.9825,-327.0107 32.9825,-309.0107 69.9825,-309.0107 69.9825,-327.0107"/>
<text text-anchor="middle" x="51.4825" y="-315.8107" font-family="Times,serif" font-size="9.00" fill="#000000">A_lm</text>
</g>
<!-- forward -->
<g id="node34" class="node">
<title>forward</title>
<ellipse fill="#add8e6" stroke="#000000" cx="1240.4825" cy="-31.8198" rx="31.6406" ry="31.6406"/>
<text text-anchor="middle" x="1240.4825" y="-29.6198" font-family="Times,serif" font-size="9.00" fill="#000000">forward</text>
</g>
<!-- A_lm&#45;&gt;forward -->
<g id="edge3" class="edge">
<title>A_lm&#45;&gt;forward</title>
<path fill="none" stroke="#ff0000" stroke-width=".2321" d="M64.2637,-308.7955C113.3272,-273.9841 295.422,-149.9218 466.4825,-99.6396 605.6972,-58.7183 1057.5849,-38.678 1198.2726,-33.3237"/>
<polygon fill="#ff0000" stroke="#ff0000" stroke-width=".2321" points="1198.7619,-36.8079 1208.6235,-32.935 1198.4992,-29.8128 1198.7619,-36.8079"/>
</g>
<!-- ccw -->
<g id="node37" class="node">
<title>ccw</title>
<ellipse fill="#add8e6" stroke="#000000" cx="521.4825" cy="-221.1995" rx="21.8409" ry="21.8409"/>
<text text-anchor="middle" x="521.4825" y="-218.9995" font-family="Times,serif" font-size="9.00" fill="#000000">ccw</text>
</g>
<!-- A_lm&#45;&gt;ccw -->
<g id="edge40" class="edge">
<title>A_lm&#45;&gt;ccw</title>
<path fill="none" stroke="#00ff00" stroke-width=".4501" d="M61.09,-308.8284C67.2865,-303.4371 75.7885,-296.9732 84.4825,-293.262 158.1404,-261.8196 401.278,-233.8325 489.3068,-224.4966"/>
<polygon fill="#00ff00" stroke="#00ff00" stroke-width=".4501" points="489.909,-227.9527 499.4886,-223.4268 489.1776,-220.991 489.909,-227.9527"/>
</g>
<!-- A_lm&#45;&gt;cw -->
<g id="edge75" class="edge">
<title>A_lm&#45;&gt;cw</title>
<path fill="none" stroke="#ff0000" stroke-width="1.1714" d="M70.2458,-314.2634C97.3526,-308.9585 149.0896,-299.241 193.4825,-293.262 360.2941,-270.7952 405.1317,-288.7258 570.4825,-257.262 604.415,-250.8051 642.4143,-239.1933 667.5122,-230.8896"/>
<polygon fill="#ff0000" stroke="#ff0000" stroke-width="1.1714" points="668.7411,-234.1691 677.1069,-227.668 666.5129,-227.5332 668.7411,-234.1691"/>
</g>
<!-- A_wall -->
<g id="node3" class="node">
<title>A_wall</title>
<polygon fill="#d3d3d3" stroke="#000000" points="738.9825,-327.0107 695.9825,-327.0107 695.9825,-309.0107 738.9825,-309.0107 738.9825,-327.0107"/>
<text text-anchor="middle" x="717.4825" y="-315.8107" font-family="Times,serif" font-size="9.00" fill="#000000">A_wall</text>
</g>
<!-- no_move -->
<g id="node31" class="node">
<title>no_move</title>
<ellipse fill="#add8e6" stroke="#000000" cx="865.4825" cy="-221.1995" rx="35.2113" ry="35.2113"/>
<text text-anchor="middle" x="865.4825" y="-218.9995" font-family="Times,serif" font-size="9.00" fill="#000000">no_move</text>
</g>
<!-- A_wall&#45;&gt;no_move -->
<g id="edge96" class="edge">
<title>A_wall&#45;&gt;no_move</title>
<path fill="none" stroke="#00ff00" stroke-width=".1707" stroke-dasharray="1,5" d="M728.1373,-308.9745C734.0057,-304.1342 741.4972,-298.1742 748.4825,-293.262 773.4621,-275.6957 802.7142,-257.6789 825.7203,-244.0543"/>
<polygon fill="#00ff00" stroke="#00ff00" stroke-width=".1707" points="827.6836,-246.9601 834.5272,-238.8721 824.1336,-240.927 827.6836,-246.9601"/>
</g>
<!-- A_wall&#45;&gt;backward -->
<g id="edge5" class="edge">
<title>A_wall&#45;&gt;backward</title>
<path fill="none" stroke="#00ff00" stroke-width=".3454" d="M726.1167,-308.9881C731.9078,-303.5153 740.0039,-296.9053 748.4825,-293.262 791.583,-274.7415 1102.186,-239.2807 1221.2233,-226.2036"/>
<polygon fill="#00ff00" stroke="#00ff00" stroke-width=".3454" points="1221.9058,-229.6499 1231.4652,-225.0818 1221.1436,-222.6915 1221.9058,-229.6499"/>
</g>
<!-- A_wall&#45;&gt;cw -->
<g id="edge57" class="edge">
<title>A_wall&#45;&gt;cw</title>
<path fill="none" stroke="#00ff00" stroke-width=".4002" d="M715.373,-308.7281C712.3141,-295.2674 706.5157,-269.7512 701.9653,-249.7272"/>
<polygon fill="#00ff00" stroke="#00ff00" stroke-width=".4002" points="705.3497,-248.8253 699.7206,-239.8496 698.5237,-250.3766 705.3497,-248.8253"/>
</g>
<!-- B_agent -->
<g id="node4" class="node">
<title>B_agent</title>
<polygon fill="#d3d3d3" stroke="#000000" points="1948.4825,-327.0107 1902.4825,-327.0107 1902.4825,-309.0107 1948.4825,-309.0107 1948.4825,-327.0107"/>
<text text-anchor="middle" x="1925.4825" y="-315.8107" font-family="Times,serif" font-size="9.00" fill="#000000">B_agent</text>
</g>
<!-- B_agent&#45;&gt;right -->
<g id="edge4" class="edge">
<title>B_agent&#45;&gt;right</title>
<path fill="none" stroke="#ff0000" stroke-width=".1441" stroke-dasharray="1,5" d="M1914.128,-308.8C1907.1152,-303.5364 1897.7182,-297.2161 1888.4825,-293.262 1835.9828,-270.7851 1670.2446,-239.7617 1598.7953,-227.0193"/>
<polygon fill="#ff0000" stroke="#ff0000" stroke-width=".1441" points="1599.0228,-223.5051 1588.5653,-225.2051 1597.8004,-230.3976 1599.0228,-223.5051"/>
</g>
<!-- left -->
<g id="node33" class="node">
<title>left</title>
<ellipse fill="#add8e6" stroke="#000000" cx="1785.4825" cy="-221.1995" rx="19.6" ry="19.6"/>
<text text-anchor="middle" x="1785.4825" y="-218.9995" font-family="Times,serif" font-size="9.00" fill="#000000">left</text>
</g>
<!-- B_agent&#45;&gt;left -->
<g id="edge69" class="edge">
<title>B_agent&#45;&gt;left</title>
<path fill="none" stroke="#00ff00" stroke-width=".5888" stroke-dasharray="1,5" d="M1912.3116,-308.903C1889.0173,-292.7947 1840.2013,-259.0381 1810.3876,-238.4217"/>
<polygon fill="#00ff00" stroke="#00ff00" stroke-width=".5888" points="1812.3727,-235.539 1802.157,-232.7301 1808.3913,-241.2966 1812.3727,-235.539"/>
</g>
<!-- B_agent&#45;&gt;backward -->
<g id="edge8" class="edge">
<title>B_agent&#45;&gt;backward</title>
<path fill="none" stroke="#00ff00" stroke-width=".6751" d="M1902.4756,-311.8465C1880.7242,-306.2317 1847.0981,-298.0998 1817.4825,-293.262 1657.0419,-267.0535 1614.3425,-280.7588 1453.4825,-257.262 1405.2866,-250.222 1350.6144,-239.2605 1313.0836,-231.2695"/>
<polygon fill="#00ff00" stroke="#00ff00" stroke-width=".6751" points="1313.4839,-227.7758 1302.9722,-229.1002 1312.0155,-234.6201 1313.4839,-227.7758"/>
</g>
<!-- B_agent&#45;&gt;no_turn -->
<g id="edge107" class="edge">
<title>B_agent&#45;&gt;no_turn</title>
<path fill="none" stroke="#00ff00" stroke-width=".4784" stroke-dasharray="1,5" d="M1914.9215,-308.894C1907.9076,-303.3837 1898.2269,-296.7672 1888.4825,-293.262 1739.2562,-239.5836 1678.456,-321.5464 1533.4825,-257.262 1529.6361,-255.5564 1525.9061,-253.3362 1522.3702,-250.8349"/>
<polygon fill="#00ff00" stroke="#00ff00" stroke-width=".4784" points="1524.5185,-248.0716 1514.5091,-244.5985 1520.168,-253.5555 1524.5185,-248.0716"/>
</g>
<!-- B_agent&#45;&gt;cw -->
<g id="edge86" class="edge">
<title>B_agent&#45;&gt;cw</title>
<path fill="none" stroke="#ff0000" stroke-width=".4221" d="M1902.1192,-311.3081C1880.4003,-305.4008 1847.044,-297.1477 1817.4825,-293.262 1378.3046,-235.5336 1258.9594,-326.7146 821.4825,-257.262 786.9188,-251.7747 748.4045,-239.8634 723.1636,-231.2281"/>
<polygon fill="#ff0000" stroke="#ff0000" stroke-width=".4221" points="724.1265,-227.8572 713.5316,-227.8707 721.8225,-234.4672 724.1265,-227.8572"/>
</g>
<!-- B_lm -->
<g id="node5" class="node">
<title>B_lm</title>
<polygon fill="#d3d3d3" stroke="#000000" points="539.9825,-327.0107 502.9825,-327.0107 502.9825,-309.0107 539.9825,-309.0107 539.9825,-327.0107"/>
<text text-anchor="middle" x="521.4825" y="-315.8107" font-family="Times,serif" font-size="9.00" fill="#000000">B_lm</text>
</g>
<!-- B_lm&#45;&gt;left -->
<g id="edge82" class="edge">
<title>B_lm&#45;&gt;left</title>
<path fill="none" stroke="#00ff00" stroke-width=".4153" d="M528.7684,-308.9474C533.8955,-303.308 541.2855,-296.5273 549.4825,-293.262 657.7234,-250.1435 1481.6984,-270.2759 1597.4825,-257.262 1654.1433,-250.8934 1719.2959,-236.8641 1756.1101,-228.3024"/>
<polygon fill="#00ff00" stroke="#00ff00" stroke-width=".4153" points="1757.2164,-231.6378 1766.1483,-225.9395 1755.6124,-224.824 1757.2164,-231.6378"/>
</g>
<!-- B_lm&#45;&gt;ccw -->
<g id="edge46" class="edge">
<title>B_lm&#45;&gt;ccw</title>
<path fill="none" stroke="#00ff00" stroke-width=".5278" d="M521.4825,-308.7281C521.4825,-296.1097 521.4825,-272.8972 521.4825,-253.5463"/>
<polygon fill="#00ff00" stroke="#00ff00" stroke-width=".5278" points="524.9826,-253.2848 521.4825,-243.2848 517.9826,-253.2849 524.9826,-253.2848"/>
</g>
<!-- B_lm&#45;&gt;cw -->
<g id="edge94" class="edge">
<title>B_lm&#45;&gt;cw</title>
<path fill="none" stroke="#00ff00" stroke-width=".2847" stroke-dasharray="1,5" d="M530.5598,-308.8709C535.8061,-303.8845 542.6951,-297.818 549.4825,-293.262 588.2805,-267.2188 637.8521,-244.7608 668.1045,-232.1176"/>
<polygon fill="#00ff00" stroke="#00ff00" stroke-width=".2847" points="669.6663,-235.2596 677.5799,-228.2151 667.0005,-228.7871 669.6663,-235.2596"/>
</g>
<!-- B_wall -->
<g id="node6" class="node">
<title>B_wall</title>
<polygon fill="#d3d3d3" stroke="#000000" points="2241.4825,-327.0107 2199.4825,-327.0107 2199.4825,-309.0107 2241.4825,-309.0107 2241.4825,-327.0107"/>
<text text-anchor="middle" x="2220.4825" y="-315.8107" font-family="Times,serif" font-size="9.00" fill="#000000">B_wall</text>
</g>
<!-- B_wall&#45;&gt;right -->
<g id="edge67" class="edge">
<title>B_wall&#45;&gt;right</title>
<path fill="none" stroke="#00ff00" stroke-width=".4941" d="M2210.5955,-308.833C2204.0019,-303.2984 2194.8516,-296.6777 2185.4825,-293.262 2005.7196,-227.7249 1946.0741,-283.0455 1756.4825,-257.262 1700.5499,-249.6554 1636.1645,-236.5925 1598.2528,-228.4514"/>
<polygon fill="#00ff00" stroke="#00ff00" stroke-width=".4941" points="1598.805,-224.9899 1588.2908,-226.2943 1597.3236,-231.8314 1598.805,-224.9899"/>
</g>
<!-- B_wall&#45;&gt;left -->
<g id="edge119" class="edge">
<title>B_wall&#45;&gt;left</title>
<path fill="none" stroke="#00ff00" stroke-width=".1218" d="M2210.1794,-308.8888C2203.5647,-303.5203 2194.5424,-297.059 2185.4825,-293.262 2151.1616,-278.8781 1901.794,-239.2676 1815.0938,-225.7724"/>
<polygon fill="#00ff00" stroke="#00ff00" stroke-width=".1218" points="1815.5403,-222.2998 1805.1217,-224.2238 1814.4661,-229.2169 1815.5403,-222.2998"/>
</g>
<!-- B_wall&#45;&gt;forward -->
<g id="edge27" class="edge">
<title>B_wall&#45;&gt;forward</title>
<path fill="none" stroke="#ff0000" stroke-width=".1078" d="M2204.3913,-308.7759C2195.2317,-303.7598 2183.4326,-297.6952 2172.4825,-293.262 1840.3415,-158.7945 1414.9206,-66.9526 1282.0283,-40.0154"/>
<polygon fill="#ff0000" stroke="#ff0000" stroke-width=".1078" points="1282.3774,-36.5154 1271.883,-37.9702 1280.9941,-43.3774 1282.3774,-36.5154"/>
</g>
<!-- B_wall&#45;&gt;no_turn -->
<g id="edge54" class="edge">
<title>B_wall&#45;&gt;no_turn</title>
<path fill="none" stroke="#ff0000" stroke-width=".2017" d="M2199.1149,-313.6219C2171.0853,-308.0298 2120.3123,-298.467 2076.4825,-293.262 1956.3947,-279.0008 1644.8707,-304.3482 1533.4825,-257.262 1529.607,-255.6237 1525.858,-253.4471 1522.3108,-250.9721"/>
<polygon fill="#ff0000" stroke="#ff0000" stroke-width=".2017" points="1524.4569,-248.2071 1514.4357,-244.7681 1520.1251,-253.7058 1524.4569,-248.2071"/>
</g>
<!-- C_agent -->
<g id="node7" class="node">
<title>C_agent</title>
<polygon fill="#d3d3d3" stroke="#000000" points="1808.4825,-327.0107 1762.4825,-327.0107 1762.4825,-309.0107 1808.4825,-309.0107 1808.4825,-327.0107"/>
<text text-anchor="middle" x="1785.4825" y="-315.8107" font-family="Times,serif" font-size="9.00" fill="#000000">C_agent</text>
</g>
<!-- C_agent&#45;&gt;left -->
<g id="edge106" class="edge">
<title>C_agent&#45;&gt;left</title>
<path fill="none" stroke="#ff0000" stroke-width=".1766" d="M1785.4825,-308.7281C1785.4825,-295.6501 1785.4825,-271.1922 1785.4825,-251.4479"/>
<polygon fill="#ff0000" stroke="#ff0000" stroke-width=".1766" points="1788.9826,-251.3525 1785.4825,-241.3526 1781.9826,-251.3526 1788.9826,-251.3525"/>
</g>
<!-- C_agent&#45;&gt;cw -->
<g id="edge115" class="edge">
<title>C_agent&#45;&gt;cw</title>
<path fill="none" stroke="#ff0000" stroke-width=".3382" stroke-dasharray="1,5" d="M1776.8983,-308.9448C1770.9301,-303.3043 1762.46,-296.5233 1753.4825,-293.262 1558.6735,-222.4914 1026.144,-290.0136 821.4825,-257.262 786.9256,-251.7319 748.41,-239.8292 723.1669,-231.2076"/>
<polygon fill="#ff0000" stroke="#ff0000" stroke-width=".3382" points="724.1288,-227.8365 713.534,-227.8561 721.8285,-234.4478 724.1288,-227.8365"/>
</g>
<!-- C_lm -->
<g id="node8" class="node">
<title>C_lm</title>
<polygon fill="#d3d3d3" stroke="#000000" points="1156.9825,-327.0107 1119.9825,-327.0107 1119.9825,-309.0107 1156.9825,-309.0107 1156.9825,-327.0107"/>
<text text-anchor="middle" x="1138.4825" y="-315.8107" font-family="Times,serif" font-size="9.00" fill="#000000">C_lm</text>
</g>
<!-- C_lm&#45;&gt;no_move -->
<g id="edge93" class="edge">
<title>C_lm&#45;&gt;no_move</title>
<path fill="none" stroke="#00ff00" stroke-width=".3846" d="M1129.9335,-308.6494C1124.7505,-303.4665 1117.7505,-297.2794 1110.4825,-293.262 1045.8646,-257.5444 961.6432,-237.8022 910.6653,-228.3653"/>
<polygon fill="#00ff00" stroke="#00ff00" stroke-width=".3846" points="911.0812,-224.884 900.6198,-226.5597 909.8429,-231.7736 911.0812,-224.884"/>
</g>
<!-- C_lm&#45;&gt;left -->
<g id="edge102" class="edge">
<title>C_lm&#45;&gt;left</title>
<path fill="none" stroke="#ff0000" stroke-width=".3146" d="M1145.9376,-308.5848C1150.8549,-303.102 1157.793,-296.6272 1165.4825,-293.262 1253.7338,-254.6393 1502.0435,-270.3544 1597.4825,-257.262 1653.9711,-249.5128 1719.1823,-235.9534 1756.0539,-227.8519"/>
<polygon fill="#ff0000" stroke="#ff0000" stroke-width=".3146" points="1757.1033,-231.2043 1766.1089,-225.6231 1755.5884,-224.3702 1757.1033,-231.2043"/>
</g>
<!-- C_lm&#45;&gt;forward -->
<g id="edge15" class="edge">
<title>C_lm&#45;&gt;forward</title>
<path fill="none" stroke="#00ff00" stroke-width=".4152" d="M1141.7607,-308.8128C1154.631,-272.7012 1202.175,-139.3027 1226.2767,-71.6782"/>
<polygon fill="#00ff00" stroke="#00ff00" stroke-width=".4152" points="1229.5953,-72.7921 1229.6557,-62.1974 1223.0016,-70.442 1229.5953,-72.7921"/>
</g>
<!-- C_lm&#45;&gt;backward -->
<g id="edge19" class="edge">
<title>C_lm&#45;&gt;backward</title>
<path fill="none" stroke="#ff0000" stroke-width=".2923" stroke-dasharray="1,5" d="M1147.719,-309.0036C1152.8174,-304.1719 1159.344,-298.2107 1165.4825,-293.262 1185.7738,-276.9036 1209.4995,-260.0184 1228.96,-246.7082"/>
<polygon fill="#ff0000" stroke="#ff0000" stroke-width=".2923" points="1230.9886,-249.5614 1237.2943,-241.0473 1227.0555,-243.7708 1230.9886,-249.5614"/>
</g>
<!-- C_lm&#45;&gt;no_turn -->
<g id="edge18" class="edge">
<title>C_lm&#45;&gt;no_turn</title>
<path fill="none" stroke="#00ff00" stroke-width=".1609" d="M1146.1052,-308.9358C1151.0855,-303.585 1158.0311,-297.1258 1165.4825,-293.262 1232.1154,-258.7102 1257.1726,-273.369 1330.4825,-257.262 1372.118,-248.1142 1419.7166,-237.5739 1452.6825,-230.2608"/>
<polygon fill="#00ff00" stroke="#00ff00" stroke-width=".1609" points="1453.8411,-233.5889 1462.8455,-228.0057 1452.3247,-226.7551 1453.8411,-233.5889"/>
</g>
<!-- C_lm&#45;&gt;ccw -->
<g id="edge80" class="edge">
<title>C_lm&#45;&gt;ccw</title>
<path fill="none" stroke="#00ff00" stroke-width=".2342" d="M1130.6846,-308.5772C1125.5602,-303.0914 1118.3621,-296.6163 1110.4825,-293.262 1019.6052,-254.5756 764.9642,-273.1557 667.4825,-257.262 627.1433,-250.685 581.5452,-238.6668 552.2038,-230.3214"/>
<polygon fill="#00ff00" stroke="#00ff00" stroke-width=".2342" points="553.1167,-226.9421 542.5386,-227.5376 551.1792,-233.6686 553.1167,-226.9421"/>
</g>
<!-- C_wall -->
<g id="node9" class="node">
<title>C_wall</title>
<polygon fill="#d3d3d3" stroke="#000000" points="600.4825,-327.0107 558.4825,-327.0107 558.4825,-309.0107 600.4825,-309.0107 600.4825,-327.0107"/>
<text text-anchor="middle" x="579.4825" y="-315.8107" font-family="Times,serif" font-size="9.00" fill="#000000">C_wall</text>
</g>
<!-- C_wall&#45;&gt;no_move -->
<g id="edge109" class="edge">
<title>C_wall&#45;&gt;no_move</title>
<path fill="none" stroke="#00ff00" stroke-width=".2286" d="M588.479,-308.8838C594.0907,-303.6499 601.7054,-297.3314 609.4825,-293.262 628.3548,-283.3868 753.0295,-250.3066 821.1744,-232.605"/>
<polygon fill="#00ff00" stroke="#00ff00" stroke-width=".2286" points="822.3986,-235.9034 831.2001,-230.0057 820.6417,-229.1275 822.3986,-235.9034"/>
</g>
<!-- C_wall&#45;&gt;right -->
<g id="edge39" class="edge">
<title>C_wall&#45;&gt;right</title>
<path fill="none" stroke="#ff0000" stroke-width=".7288" d="M587.4224,-308.9519C592.9721,-303.3144 600.9027,-296.5342 609.4825,-293.262 801.4818,-220.036 1347.7393,-345.1555 1533.4825,-257.262 1537.9748,-255.1362 1542.1046,-252.0566 1545.7985,-248.58"/>
<polygon fill="#ff0000" stroke="#ff0000" stroke-width=".7288" points="1548.5276,-250.7838 1552.7448,-241.0645 1543.387,-246.0325 1548.5276,-250.7838"/>
</g>
<!-- C_wall&#45;&gt;ccw -->
<g id="edge88" class="edge">
<title>C_wall&#45;&gt;ccw</title>
<path fill="none" stroke="#ff0000" stroke-width=".4496" d="M573.9212,-308.7281C565.7581,-295.1025 550.1943,-269.1242 538.1341,-248.9938"/>
<polygon fill="#ff0000" stroke="#ff0000" stroke-width=".4496" points="541.0204,-247.0012 532.8787,-240.2216 535.0156,-250.5987 541.0204,-247.0012"/>
</g>
<!-- C_wall&#45;&gt;cw -->
<g id="edge23" class="edge">
<title>C_wall&#45;&gt;cw</title>
<path fill="none" stroke="#00ff00" stroke-width=".1558" stroke-dasharray="1,5" d="M590.605,-308.7281C609.4556,-292.9958 648.0384,-260.7954 672.7843,-240.1429"/>
<polygon fill="#00ff00" stroke="#00ff00" stroke-width=".1558" points="675.1626,-242.7169 680.5975,-233.6222 670.6773,-237.3426 675.1626,-242.7169"/>
</g>
<!-- D_agent -->
<g id="node10" class="node">
<title>D_agent</title>
<polygon fill="#d3d3d3" stroke="#000000" points="1390.9825,-327.0107 1343.9825,-327.0107 1343.9825,-309.0107 1390.9825,-309.0107 1390.9825,-327.0107"/>
<text text-anchor="middle" x="1367.4825" y="-315.8107" font-family="Times,serif" font-size="9.00" fill="#000000">D_agent</text>
</g>
<!-- D_agent&#45;&gt;no_move -->
<g id="edge47" class="edge">
<title>D_agent&#45;&gt;no_move</title>
<path fill="none" stroke="#00ff00" stroke-width=".5325" d="M1357.8892,-308.7948C1351.698,-303.3909 1343.1967,-296.9254 1334.4825,-293.262 1258.2177,-261.2003 1012.9252,-235.0894 910.7817,-225.3276"/>
<polygon fill="#00ff00" stroke="#00ff00" stroke-width=".5325" points="911.0625,-221.8386 900.777,-224.3801 910.4024,-228.8074 911.0625,-221.8386"/>
</g>
<!-- D_agent&#45;&gt;right -->
<g id="edge62" class="edge">
<title>D_agent&#45;&gt;right</title>
<path fill="none" stroke="#00ff00" stroke-width=".1698" d="M1377.163,-308.8744C1383.1788,-303.6371 1391.3029,-297.3184 1399.4825,-293.262 1454.7291,-265.8637 1481.0303,-289.691 1533.4825,-257.262 1537.6251,-254.7007 1541.5378,-251.4407 1545.111,-247.9319"/>
<polygon fill="#00ff00" stroke="#00ff00" stroke-width=".1698" points="1547.7334,-250.251 1551.9336,-240.5243 1542.5845,-245.5087 1547.7334,-250.251"/>
</g>
<!-- D_agent&#45;&gt;left -->
<g id="edge30" class="edge">
<title>D_agent&#45;&gt;left</title>
<path fill="none" stroke="#ff0000" stroke-width=".7587" stroke-dasharray="1,5" d="M1376.7722,-308.8714C1382.7709,-303.4964 1391.0141,-297.0344 1399.4825,-293.262 1481.1851,-256.8658 1509.5608,-273.6871 1597.4825,-257.262 1653.5305,-246.7914 1718.8916,-234.1582 1755.9101,-226.9637"/>
<polygon fill="#ff0000" stroke="#ff0000" stroke-width=".7587" points="1756.8602,-230.3446 1766.0079,-224.9995 1755.5236,-223.4734 1756.8602,-230.3446"/>
</g>
<!-- D_agent&#45;&gt;forward -->
<g id="edge92" class="edge">
<title>D_agent&#45;&gt;forward</title>
<path fill="none" stroke="#ff0000" stroke-width=".335" d="M1365.7596,-308.7124C1361.4886,-286.6529 1349.3724,-229.667 1330.4825,-185.1371 1312.3263,-142.3369 1284.3769,-96.8232 1264.4449,-66.6073"/>
<polygon fill="#ff0000" stroke="#ff0000" stroke-width=".335" points="1267.2506,-64.506 1258.7938,-58.1238 1261.4248,-68.3867 1267.2506,-64.506"/>
</g>
<!-- D_agent&#45;&gt;backward -->
<g id="edge65" class="edge">
<title>D_agent&#45;&gt;backward</title>
<path fill="none" stroke="#ff0000" stroke-width=".3004" d="M1357.894,-308.7281C1344.8898,-296.1385 1320.9925,-273.0032 1301.0318,-253.679"/>
<polygon fill="#ff0000" stroke="#ff0000" stroke-width=".3004" points="1303.2245,-250.9303 1293.6053,-246.4893 1298.3555,-255.9596 1303.2245,-250.9303"/>
</g>
<!-- D_agent&#45;&gt;no_turn -->
<g id="edge13" class="edge">
<title>D_agent&#45;&gt;no_turn</title>
<path fill="none" stroke="#ff0000" stroke-width=".2759" d="M1379.3267,-308.8312C1385.3562,-304.1631 1392.8048,-298.4038 1399.4825,-293.262 1419.8281,-277.5958 1442.6914,-260.0666 1460.775,-246.2196"/>
<polygon fill="#ff0000" stroke="#ff0000" stroke-width=".2759" points="1462.9083,-248.9944 1468.7212,-240.1365 1458.6532,-243.4361 1462.9083,-248.9944"/>
</g>
<!-- D_agent&#45;&gt;ccw -->
<g id="edge117" class="edge">
<title>D_agent&#45;&gt;ccw</title>
<path fill="none" stroke="#00ff00" stroke-width=".2059" d="M1358.561,-308.9885C1352.3771,-303.3665 1343.6357,-296.5897 1334.4825,-293.262 1194.9778,-242.5444 814.2969,-279.1563 667.4825,-257.262 627.0577,-251.2335 581.4787,-239.093 552.165,-230.5697"/>
<polygon fill="#00ff00" stroke="#00ff00" stroke-width=".2059" points="553.0915,-227.194 542.5098,-227.7218 551.111,-233.908 553.0915,-227.194"/>
</g>
<!-- D_lm -->
<g id="node11" class="node">
<title>D_lm</title>
<polygon fill="#d3d3d3" stroke="#000000" points="347.9825,-327.0107 310.9825,-327.0107 310.9825,-309.0107 347.9825,-309.0107 347.9825,-327.0107"/>
<text text-anchor="middle" x="329.4825" y="-315.8107" font-family="Times,serif" font-size="9.00" fill="#000000">D_lm</text>
</g>
<!-- D_lm&#45;&gt;no_move -->
<g id="edge100" class="edge">
<title>D_lm&#45;&gt;no_move</title>
<path fill="none" stroke="#ff0000" stroke-width=".3252" d="M348.1395,-312.9142C368.8534,-307.4101 403.3458,-298.7013 433.4825,-293.262 561.2956,-270.1934 595.8469,-281.2936 723.4825,-257.262 756.6531,-251.0165 793.591,-241.5557 821.4773,-233.8912"/>
<polygon fill="#ff0000" stroke="#ff0000" stroke-width=".3252" points="822.6193,-237.2066 831.3178,-231.158 820.7459,-230.4619 822.6193,-237.2066"/>
</g>
<!-- D_lm&#45;&gt;forward -->
<g id="edge120" class="edge">
<title>D_lm&#45;&gt;forward</title>
<path fill="none" stroke="#00ff00" stroke-width="1.4657" d="M335.0276,-308.7844C356.5501,-273.9327 438.5866,-149.744 543.4825,-99.6396 660.4429,-43.7725 1066.1067,-33.9207 1198.4041,-32.1882"/>
<polygon fill="#00ff00" stroke="#00ff00" stroke-width="1.4657" points="1198.5833,-35.6863 1208.5398,-32.0645 1198.4978,-28.6869 1198.5833,-35.6863"/>
</g>
<!-- D_lm&#45;&gt;backward -->
<g id="edge74" class="edge">
<title>D_lm&#45;&gt;backward</title>
<path fill="none" stroke="#00ff00" stroke-width=".3041" d="M348.0909,-312.6237C368.7622,-306.8651 403.2175,-297.9347 433.4825,-293.262 651.0425,-259.672 708.22,-276.8741 927.4825,-257.262 1032.7084,-247.85 1155.9587,-234.0944 1221.3111,-226.5841"/>
<polygon fill="#00ff00" stroke="#00ff00" stroke-width=".3041" points="1221.7575,-230.0559 1231.291,-225.434 1220.956,-223.1019 1221.7575,-230.0559"/>
</g>
<!-- D_lm&#45;&gt;ccw -->
<g id="edge77" class="edge">
<title>D_lm&#45;&gt;ccw</title>
<path fill="none" stroke="#ff0000" stroke-width=".222" d="M340.3622,-308.9024C346.6022,-303.9257 354.7177,-297.8586 362.4825,-293.262 405.2615,-267.9375 458.498,-245.4805 491.2275,-232.6134"/>
<polygon fill="#ff0000" stroke="#ff0000" stroke-width=".222" points="492.6391,-235.8199 500.6923,-228.9355 490.1036,-229.2952 492.6391,-235.8199"/>
</g>
<!-- D_wall -->
<g id="node12" class="node">
<title>D_wall</title>
<polygon fill="#d3d3d3" stroke="#000000" points="1451.9825,-327.0107 1408.9825,-327.0107 1408.9825,-309.0107 1451.9825,-309.0107 1451.9825,-327.0107"/>
<text text-anchor="middle" x="1430.4825" y="-315.8107" font-family="Times,serif" font-size="9.00" fill="#000000">D_wall</text>
</g>
<!-- D_wall&#45;&gt;no_move -->
<g id="edge36" class="edge">
<title>D_wall&#45;&gt;no_move</title>
<path fill="none" stroke="#ff0000" stroke-width=".1145" d="M1421.853,-308.977C1416.0638,-303.4998 1407.968,-296.889 1399.4825,-293.262 1354.8696,-274.1927 1031.8884,-238.7067 910.9961,-225.9338"/>
<polygon fill="#ff0000" stroke="#ff0000" stroke-width=".1145" points="911.2642,-222.4427 900.9525,-224.8758 910.5308,-229.4042 911.2642,-222.4427"/>
</g>
<!-- D_wall&#45;&gt;right -->
<g id="edge108" class="edge">
<title>D_wall&#45;&gt;right</title>
<path fill="none" stroke="#ff0000" stroke-width=".1393" stroke-dasharray="1,5" d="M1440.6894,-308.9614C1446.547,-304.0033 1454.171,-297.9349 1461.4825,-293.262 1491.6285,-273.995 1505.0949,-279.0369 1533.4825,-257.262 1537.1685,-254.4346 1540.7603,-251.1381 1544.1255,-247.709"/>
<polygon fill="#ff0000" stroke="#ff0000" stroke-width=".1393" points="1546.9037,-249.8578 1551.0791,-240.1204 1541.7427,-245.1286 1546.9037,-249.8578"/>
</g>
<!-- D_wall&#45;&gt;left -->
<g id="edge28" class="edge">
<title>D_wall&#45;&gt;left</title>
<path fill="none" stroke="#ff0000" stroke-width=".3753" stroke-dasharray="1,5" d="M1439.4845,-308.9779C1445.2967,-303.6429 1453.2824,-297.1856 1461.4825,-293.262 1488.1742,-280.4902 1680.608,-241.8231 1755.6389,-227.036"/>
<polygon fill="#ff0000" stroke="#ff0000" stroke-width=".3753" points="1756.6867,-230.3971 1765.8235,-225.0335 1755.3361,-223.5286 1756.6867,-230.3971"/>
</g>
<!-- D_wall&#45;&gt;backward -->
<g id="edge6" class="edge">
<title>D_wall&#45;&gt;backward</title>
<path fill="none" stroke="#ff0000" stroke-width=".7723" stroke-dasharray="1,5" d="M1419.9282,-308.8274C1414.0892,-303.944 1406.5938,-297.9897 1399.4825,-293.262 1370.4053,-273.931 1335.6856,-255.1313 1309.1535,-241.5832"/>
<polygon fill="#ff0000" stroke="#ff0000" stroke-width=".7723" points="1310.6358,-238.4107 1300.1329,-237.0178 1307.4748,-244.6564 1310.6358,-238.4107"/>
</g>
<!-- D_wall&#45;&gt;no_turn -->
<g id="edge29" class="edge">
<title>D_wall&#45;&gt;no_turn</title>
<path fill="none" stroke="#00ff00" stroke-width=".2688" d="M1436.5232,-308.7281C1444.4285,-296.58 1458.7237,-274.6128 1471.0148,-255.7253"/>
<polygon fill="#00ff00" stroke="#00ff00" stroke-width=".2688" points="1473.97,-257.6009 1476.4908,-247.3103 1468.1029,-253.7829 1473.97,-257.6009"/>
</g>
<!-- D_wall&#45;&gt;ccw -->
<g id="edge63" class="edge">
<title>D_wall&#45;&gt;ccw</title>
<path fill="none" stroke="#ff0000" stroke-width=".4909" stroke-dasharray="1,5" d="M1422.2086,-308.9781C1416.4447,-303.3517 1408.2432,-296.5739 1399.4825,-293.262 1247.1418,-235.6706 828.6213,-280.899 667.4825,-257.262 627.0434,-251.3301 581.4676,-239.1681 552.1585,-230.6135"/>
<polygon fill="#ff0000" stroke="#ff0000" stroke-width=".4909" points="553.0873,-227.2384 542.505,-227.7542 551.0993,-233.9501 553.0873,-227.2384"/>
</g>
<!-- E_agent -->
<g id="node13" class="node">
<title>E_agent</title>
<polygon fill="#d3d3d3" stroke="#000000" points="1516.4825,-327.0107 1470.4825,-327.0107 1470.4825,-309.0107 1516.4825,-309.0107 1516.4825,-327.0107"/>
<text text-anchor="middle" x="1493.4825" y="-315.8107" font-family="Times,serif" font-size="9.00" fill="#000000">E_agent</text>
</g>
<!-- E_agent&#45;&gt;left -->
<g id="edge37" class="edge">
<title>E_agent&#45;&gt;left</title>
<path fill="none" stroke="#00ff00" stroke-width=".2895" d="M1503.5255,-308.9144C1509.7505,-303.6913 1518.1298,-297.3735 1526.4825,-293.262 1604.5073,-254.8547 1706.1594,-234.1809 1755.7106,-225.7726"/>
<polygon fill="#00ff00" stroke="#00ff00" stroke-width=".2895" points="1756.4494,-229.1982 1765.7467,-224.1177 1755.3104,-222.2914 1756.4494,-229.1982"/>
</g>
<!-- E_agent&#45;&gt;backward -->
<g id="edge59" class="edge">
<title>E_agent&#45;&gt;backward</title>
<path fill="none" stroke="#00ff00" stroke-width=".3825" stroke-dasharray="1,5" d="M1483.0144,-308.9348C1476.775,-303.8471 1468.525,-297.66 1460.4825,-293.262 1412.1706,-266.8431 1352.1664,-246.1379 1312.0053,-233.8287"/>
<polygon fill="#00ff00" stroke="#00ff00" stroke-width=".3825" points="1312.8264,-230.4207 1302.2416,-230.8818 1310.8037,-237.1221 1312.8264,-230.4207"/>
</g>
<!-- E_agent&#45;&gt;no_turn -->
<g id="edge14" class="edge">
<title>E_agent&#45;&gt;no_turn</title>
<path fill="none" stroke="#00ff00" stroke-width=".6647" stroke-dasharray="1,5" d="M1493.4825,-308.7281C1493.4825,-298.0678 1493.4825,-279.8463 1493.4825,-262.7799"/>
<polygon fill="#00ff00" stroke="#00ff00" stroke-width=".6647" points="1496.9826,-262.3807 1493.4825,-252.3808 1489.9826,-262.3808 1496.9826,-262.3807"/>
</g>
<!-- E_agent&#45;&gt;cw -->
<g id="edge78" class="edge">
<title>E_agent&#45;&gt;cw</title>
<path fill="none" stroke="#ff0000" stroke-width=".2475" stroke-dasharray="1,5" d="M1484.5584,-308.9956C1478.3734,-303.3766 1469.6318,-296.6005 1460.4825,-293.262 1326.874,-244.5096 961.7167,-280.976 821.4825,-257.262 786.9758,-251.4268 748.4501,-239.5856 723.1909,-231.0617"/>
<polygon fill="#ff0000" stroke="#ff0000" stroke-width=".2475" points="724.1458,-227.6891 713.5511,-227.7518 721.8725,-234.3097 724.1458,-227.6891"/>
</g>
<!-- E_lm -->
<g id="node14" class="node">
<title>E_lm</title>
<polygon fill="#d3d3d3" stroke="#000000" points="292.4825,-327.0107 256.4825,-327.0107 256.4825,-309.0107 292.4825,-309.0107 292.4825,-327.0107"/>
<text text-anchor="middle" x="274.4825" y="-315.8107" font-family="Times,serif" font-size="9.00" fill="#000000">E_lm</text>
</g>
<!-- E_lm&#45;&gt;no_move -->
<g id="edge45" class="edge">
<title>E_lm&#45;&gt;no_move</title>
<path fill="none" stroke="#ff0000" stroke-width="1.6311" d="M281.9399,-308.5902C286.8581,-303.1093 293.7963,-296.6347 301.4825,-293.262 387.6681,-255.4426 630.6719,-272.8977 723.4825,-257.262 756.7669,-251.6545 793.7007,-242.1703 821.5564,-234.3352"/>
<polygon fill="#ff0000" stroke="#ff0000" stroke-width="1.6311" points="822.7275,-237.6409 831.3848,-231.5335 820.8084,-230.9091 822.7275,-237.6409"/>
</g>
<!-- E_lm&#45;&gt;cw -->
<g id="edge64" class="edge">
<title>E_lm&#45;&gt;cw</title>
<path fill="none" stroke="#ff0000" stroke-width=".2379" d="M281.9984,-308.7191C286.9385,-303.2868 293.8794,-296.818 301.4825,-293.262 410.744,-242.1597 452.435,-282.0474 570.4825,-257.262 604.2868,-250.1644 642.3111,-238.6773 667.4498,-230.578"/>
<polygon fill="#ff0000" stroke="#ff0000" stroke-width=".2379" points="668.6398,-233.8714 677.062,-227.4436 666.4696,-227.2163 668.6398,-233.8714"/>
</g>
<!-- 465 -->
<g id="node42" class="node">
<title>465</title>
<ellipse fill="#ffffff" stroke="#000000" cx="1398.4825" cy="-124.3883" rx="21.4286" ry="21.4286"/>
<text text-anchor="middle" x="1398.4825" y="-122.1883" font-family="Times,serif" font-size="9.00" fill="#000000">465</text>
</g>
<!-- E_lm&#45;&gt;465 -->
<g id="edge129" class="edge">
<title>E_lm&#45;&gt;465</title>
<path fill="none" stroke="#00ff00" stroke-width=".1534" d="M283.5363,-308.7656C288.5812,-303.8641 295.1149,-297.9123 301.4825,-293.262 379.6344,-236.1865 397.8385,-213.1089 490.4825,-185.1371 659.6325,-134.066 1226.3607,-125.8638 1366.7939,-124.6067"/>
<polygon fill="#00ff00" stroke="#00ff00" stroke-width=".1534" points="1366.9168,-128.1058 1376.8871,-124.5219 1366.858,-121.1061 1366.9168,-128.1058"/>
</g>
<!-- E_wall -->
<g id="node15" class="node">
<title>E_wall</title>
<polygon fill="#d3d3d3" stroke="#000000" points="484.4825,-327.0107 442.4825,-327.0107 442.4825,-309.0107 484.4825,-309.0107 484.4825,-327.0107"/>
<text text-anchor="middle" x="463.4825" y="-315.8107" font-family="Times,serif" font-size="9.00" fill="#000000">E_wall</text>
</g>
<!-- E_wall&#45;&gt;no_move -->
<g id="edge104" class="edge">
<title>E_wall&#45;&gt;no_move</title>
<path fill="none" stroke="#00ff00" stroke-width=".3282" d="M472.0581,-308.7886C477.6317,-303.3823 485.3537,-296.9166 493.4825,-293.262 587.8503,-250.8345 622.119,-278.0187 723.4825,-257.262 756.5498,-250.4906 793.4915,-241.0491 821.4053,-233.5252"/>
<polygon fill="#00ff00" stroke="#00ff00" stroke-width=".3282" points="822.5246,-236.8481 831.257,-230.8485 820.6892,-230.093 822.5246,-236.8481"/>
</g>
<!-- E_wall&#45;&gt;forward -->
<g id="edge33" class="edge">
<title>E_wall&#45;&gt;forward</title>
<path fill="none" stroke="#ff0000" stroke-width=".426" d="M462.5536,-308.9938C460.6552,-285.5433 458.8815,-221.9182 490.4825,-185.1371 584.0594,-76.2208 1054.0497,-41.9373 1198.3087,-33.8952"/>
<polygon fill="#ff0000" stroke="#ff0000" stroke-width=".426" points="1198.7209,-37.3781 1208.516,-33.34 1198.3406,-30.3884 1198.7209,-37.3781"/>
</g>
<!-- E_wall&#45;&gt;backward -->
<g id="edge17" class="edge">
<title>E_wall&#45;&gt;backward</title>
<path fill="none" stroke="#00ff00" stroke-width=".1892" d="M471.9686,-308.5795C477.5086,-303.0946 485.2266,-296.6196 493.4825,-293.262 583.1279,-256.8033 831.136,-266.3663 927.4825,-257.262 1032.66,-247.3232 1155.9292,-233.7734 1221.2976,-226.4373"/>
<polygon fill="#00ff00" stroke="#00ff00" stroke-width=".1892" points="1221.7338,-229.9104 1231.2801,-225.3148 1220.9515,-222.9542 1221.7338,-229.9104"/>
</g>
<!-- E_wall&#45;&gt;no_turn -->
<g id="edge91" class="edge">
<title>E_wall&#45;&gt;no_turn</title>
<path fill="none" stroke="#ff0000" stroke-width=".8171" d="M471.4268,-308.9633C476.9784,-303.3307 484.9093,-296.5515 493.4825,-293.262 667.2983,-226.5682 1145.8901,-281.4626 1330.4825,-257.262 1372.8791,-251.7037 1420.5454,-240.5747 1453.3266,-232.1419"/>
<polygon fill="#ff0000" stroke="#ff0000" stroke-width=".8171" points="1454.6282,-235.4196 1463.4212,-229.5092 1452.8616,-228.6461 1454.6282,-235.4196"/>
</g>
<!-- E_wall&#45;&gt;ccw -->
<g id="edge50" class="edge">
<title>E_wall&#45;&gt;ccw</title>
<path fill="none" stroke="#ff0000" stroke-width=".507" d="M469.0437,-308.7281C477.2069,-295.1025 492.7706,-269.1242 504.8308,-248.9938"/>
<polygon fill="#ff0000" stroke="#ff0000" stroke-width=".507" points="507.9493,-250.5987 510.0863,-240.2216 501.9445,-247.0012 507.9493,-250.5987"/>
</g>
<!-- E_wall&#45;&gt;cw -->
<g id="edge68" class="edge">
<title>E_wall&#45;&gt;cw</title>
<path fill="none" stroke="#ff0000" stroke-width=".7429" stroke-dasharray="1,5" d="M472.8453,-308.8358C478.4662,-303.715 485.9662,-297.5279 493.4825,-293.262 551.2733,-260.4623 626.6585,-238.3723 667.0213,-228.0002"/>
<polygon fill="#ff0000" stroke="#ff0000" stroke-width=".7429" points="667.8865,-231.3917 676.731,-225.5586 666.1794,-224.603 667.8865,-231.3917"/>
</g>
<!-- F_agent -->
<g id="node16" class="node">
<title>F_agent</title>
<polygon fill="#d3d3d3" stroke="#000000" points="849.9825,-396.7595 804.9825,-396.7595 804.9825,-378.7595 849.9825,-378.7595 849.9825,-396.7595"/>
<text text-anchor="middle" x="827.4825" y="-385.5595" font-family="Times,serif" font-size="9.00" fill="#000000">F_agent</text>
</g>
<!-- F_agent&#45;&gt;no_move -->
<g id="edge81" class="edge">
<title>F_agent&#45;&gt;no_move</title>
<path fill="none" stroke="#00ff00" stroke-width=".3406" d="M829.6344,-378.3272C834.477,-357.1013 846.4946,-304.4264 855.285,-265.8964"/>
<polygon fill="#00ff00" stroke="#00ff00" stroke-width=".3406" points="858.7448,-266.4665 857.5569,-255.9385 851.9202,-264.9095 858.7448,-266.4665"/>
</g>
<!-- F_agent&#45;&gt;right -->
<g id="edge25" class="edge">
<title>F_agent&#45;&gt;right</title>
<path fill="none" stroke="#00ff00" stroke-width=".2777" stroke-dasharray="1,5" d="M850.1195,-387.398C1019.8037,-384.6371 2086.7019,-366.3537 2109.4825,-342.7595 2124.7627,-326.9334 2124.2278,-309.5876 2109.4825,-293.262 2056.6302,-234.7456 1834.5163,-268.5869 1756.4825,-257.262 1700.6203,-249.1548 1636.2132,-236.2455 1598.2781,-228.271"/>
<polygon fill="#00ff00" stroke="#00ff00" stroke-width=".2777" points="1598.8177,-224.8077 1588.3096,-226.1607 1597.3679,-231.6559 1598.8177,-224.8077"/>
</g>
<!-- F_agent&#45;&gt;backward -->
<g id="edge85" class="edge">
<title>F_agent&#45;&gt;backward</title>
<path fill="none" stroke="#00ff00" stroke-width=".1629" d="M850.0875,-386.6721C930.7264,-382.6001 1201.0388,-367.2224 1230.4825,-342.7595 1252.5022,-324.4646 1261.7052,-293.4801 1265.4273,-267.3728"/>
<polygon fill="#00ff00" stroke="#00ff00" stroke-width=".1629" points="1268.9225,-267.6204 1266.6369,-257.275 1261.9722,-266.7877 1268.9225,-267.6204"/>
</g>
<!-- F_agent&#45;&gt;ccw -->
<g id="edge110" class="edge">
<title>F_agent&#45;&gt;ccw</title>
<path fill="none" stroke="#00ff00" stroke-width=".7472" d="M804.8487,-386.7376C685.5199,-381.2986 134.4535,-355.519 122.4825,-342.7595 107.4305,-326.7161 108.3768,-310.1434 122.4825,-293.262 169.3847,-237.13 403.1084,-224.6432 489.4019,-221.9314"/>
<polygon fill="#00ff00" stroke="#00ff00" stroke-width=".7472" points="489.5118,-225.4298 499.4059,-221.6407 489.3084,-218.4328 489.5118,-225.4298"/>
</g>
<!-- 398 -->
<g id="node41" class="node">
<title>398</title>
<ellipse fill="#ffffff" stroke="#000000" cx="778.4825" cy="-318.0107" rx="21.4286" ry="21.4286"/>
<text text-anchor="middle" x="778.4825" y="-315.8107" font-family="Times,serif" font-size="9.00" fill="#000000">398</text>
</g>
<!-- F_agent&#45;&gt;398 -->
<g id="edge124" class="edge">
<title>F_agent&#45;&gt;398</title>
<path fill="none" stroke="#00ff00" stroke-width=".4879" d="M821.0766,-378.641C814.8976,-369.8457 805.2495,-356.112 796.6972,-343.9383"/>
<polygon fill="#00ff00" stroke="#00ff00" stroke-width=".4879" points="799.3412,-341.6132 790.7287,-335.4426 793.6133,-345.6372 799.3412,-341.6132"/>
</g>
<!-- F_lm -->
<g id="node17" class="node">
<title>F_lm</title>
<polygon fill="#d3d3d3" stroke="#000000" points="238.4825,-327.0107 202.4825,-327.0107 202.4825,-309.0107 238.4825,-309.0107 238.4825,-327.0107"/>
<text text-anchor="middle" x="220.4825" y="-315.8107" font-family="Times,serif" font-size="9.00" fill="#000000">F_lm</text>
</g>
<!-- F_lm&#45;&gt;ccw -->
<g id="edge87" class="edge">
<title>F_lm&#45;&gt;ccw</title>
<path fill="none" stroke="#ff0000" stroke-width=".4543" d="M228.624,-308.5605C233.5879,-303.3481 240.3379,-297.1609 247.4825,-293.262 327.8656,-249.3955 436.246,-231.2196 489.3891,-224.568"/>
<polygon fill="#ff0000" stroke="#ff0000" stroke-width=".4543" points="490.045,-228.0146 499.559,-223.3527 489.2143,-221.064 490.045,-228.0146"/>
</g>
<!-- F_lm&#45;&gt;cw -->
<g id="edge105" class="edge">
<title>F_lm&#45;&gt;cw</title>
<path fill="none" stroke="#ff0000" stroke-width=".443" stroke-dasharray="1,5" d="M227.9711,-308.66C232.901,-303.2054 239.8407,-296.734 247.4825,-293.262 378.9899,-233.5125 428.8018,-285.3829 570.4825,-257.262 604.363,-250.5373 642.3724,-238.9776 667.4869,-230.7594"/>
<polygon fill="#ff0000" stroke="#ff0000" stroke-width=".443" points="668.6993,-234.0448 677.0887,-227.5742 666.4953,-227.4009 668.6993,-234.0448"/>
</g>
<!-- F_wall -->
<g id="node18" class="node">
<title>F_wall</title>
<polygon fill="#d3d3d3" stroke="#000000" points="1676.4825,-327.0107 1634.4825,-327.0107 1634.4825,-309.0107 1676.4825,-309.0107 1676.4825,-327.0107"/>
<text text-anchor="middle" x="1655.4825" y="-315.8107" font-family="Times,serif" font-size="9.00" fill="#000000">F_wall</text>
</g>
<!-- F_wall&#45;&gt;right -->
<g id="edge70" class="edge">
<title>F_wall&#45;&gt;right</title>
<path fill="none" stroke="#00ff00" stroke-width=".2748" stroke-dasharray="1,5" d="M1646.8529,-308.7281C1633.5106,-294.376 1607.4272,-266.3187 1588.3766,-245.8263"/>
<polygon fill="#00ff00" stroke="#00ff00" stroke-width=".2748" points="1590.833,-243.3281 1581.4609,-238.3872 1585.7062,-248.0943 1590.833,-243.3281"/>
</g>
<!-- F_wall&#45;&gt;backward -->
<g id="edge51" class="edge">
<title>F_wall&#45;&gt;backward</title>
<path fill="none" stroke="#00ff00" stroke-width=".3962" stroke-dasharray="1,5" d="M1634.2763,-309.501C1620.9774,-304.363 1603.3956,-297.9289 1587.4825,-293.262 1491.2022,-265.0255 1375.8721,-241.5215 1313.3207,-229.6109"/>
<polygon fill="#00ff00" stroke="#00ff00" stroke-width=".3962" points="1313.8533,-226.1497 1303.3771,-227.7307 1312.5526,-233.0278 1313.8533,-226.1497"/>
</g>
<!-- G_agent -->
<g id="node19" class="node">
<title>G_agent</title>
<polygon fill="#d3d3d3" stroke="#000000" points="1221.9825,-327.0107 1174.9825,-327.0107 1174.9825,-309.0107 1221.9825,-309.0107 1221.9825,-327.0107"/>
<text text-anchor="middle" x="1198.4825" y="-315.8107" font-family="Times,serif" font-size="9.00" fill="#000000">G_agent</text>
</g>
<!-- G_agent&#45;&gt;no_move -->
<g id="edge112" class="edge">
<title>G_agent&#45;&gt;no_move</title>
<path fill="none" stroke="#00ff00" stroke-width=".4023" d="M1188.4916,-308.8058C1182.2852,-303.5442 1173.907,-297.2241 1165.4825,-293.262 1080.4845,-253.2872 971.1705,-234.2647 910.7337,-226.2468"/>
<polygon fill="#00ff00" stroke="#00ff00" stroke-width=".4023" points="911.1141,-222.767 900.7496,-224.9638 910.2219,-229.7099 911.1141,-222.767"/>
</g>
<!-- G_agent&#45;&gt;right -->
<g id="edge83" class="edge">
<title>G_agent&#45;&gt;right</title>
<path fill="none" stroke="#ff0000" stroke-width=".1451" stroke-dasharray="1,5" d="M1220.841,-308.9248C1234.6518,-303.6385 1252.8539,-297.2514 1269.4825,-293.262 1384.634,-265.6353 1429.0124,-313.0214 1533.4825,-257.262 1537.8669,-254.9218 1541.939,-251.7273 1545.6076,-248.2006"/>
<polygon fill="#ff0000" stroke="#ff0000" stroke-width=".1451" points="1548.3479,-250.3914 1552.5425,-240.6622 1543.1963,-245.6521 1548.3479,-250.3914"/>
</g>
<!-- G_agent&#45;&gt;backward -->
<g id="edge42" class="edge">
<title>G_agent&#45;&gt;backward</title>
<path fill="none" stroke="#00ff00" stroke-width=".1395" stroke-dasharray="1,5" d="M1205.0985,-308.7281C1213.2887,-297.2366 1227.7412,-276.9589 1240.6742,-258.8131"/>
<polygon fill="#00ff00" stroke="#00ff00" stroke-width=".1395" points="1243.5277,-260.8398 1246.4816,-250.6651 1237.8274,-256.777 1243.5277,-260.8398"/>
</g>
<!-- G_agent&#45;&gt;no_turn -->
<g id="edge55" class="edge">
<title>G_agent&#45;&gt;no_turn</title>
<path fill="none" stroke="#00ff00" stroke-width=".2128" d="M1222.1002,-309.6179C1235.8894,-304.7579 1253.6394,-298.5708 1269.4825,-293.262 1333.9429,-271.6622 1409.2537,-247.693 1454.069,-233.5623"/>
<polygon fill="#00ff00" stroke="#00ff00" stroke-width=".2128" points="1455.2093,-236.8727 1463.696,-230.5303 1453.1065,-230.196 1455.2093,-236.8727"/>
</g>
<!-- G_agent&#45;&gt;ccw -->
<g id="edge53" class="edge">
<title>G_agent&#45;&gt;ccw</title>
<path fill="none" stroke="#ff0000" stroke-width=".1009" d="M1189.2659,-308.7957C1183.0911,-303.2462 1174.4708,-296.6229 1165.4825,-293.262 1061.5547,-254.4017 777.0705,-274.628 667.4825,-257.262 627.1144,-250.865 581.5227,-238.8067 552.1907,-230.4029"/>
<polygon fill="#ff0000" stroke="#ff0000" stroke-width=".1009" points="553.1082,-227.0248 542.5288,-227.598 551.1566,-233.7473 553.1082,-227.0248"/>
</g>
<!-- G_lm -->
<g id="node20" class="node">
<title>G_lm</title>
<polygon fill="#d3d3d3" stroke="#000000" points="590.9825,-396.7595 553.9825,-396.7595 553.9825,-378.7595 590.9825,-378.7595 590.9825,-396.7595"/>
<text text-anchor="middle" x="572.4825" y="-385.5595" font-family="Times,serif" font-size="9.00" fill="#000000">G_lm</text>
</g>
<!-- G_lm&#45;&gt;right -->
<g id="edge35" class="edge">
<title>G_lm&#45;&gt;right</title>
<path fill="none" stroke="#ff0000" stroke-width=".3797" stroke-dasharray="1,5" d="M591.2752,-386.9233C629.6473,-385.233 719.7768,-381.3508 795.4825,-378.7595 831.059,-377.5417 2051.6674,-368.2817 2076.4825,-342.7595 2091.818,-326.9869 2091.1427,-309.664 2076.4825,-293.262 2028.7944,-239.9081 1827.2459,-267.9076 1756.4825,-257.262 1700.6632,-248.8645 1636.243,-236.0443 1598.2936,-228.1664"/>
<polygon fill="#ff0000" stroke="#ff0000" stroke-width=".3797" points="1598.8254,-224.702 1588.321,-226.0832 1597.3941,-231.5541 1598.8254,-224.702"/>
</g>
<!-- G_lm&#45;&gt;forward -->
<g id="edge22" class="edge">
<title>G_lm&#45;&gt;forward</title>
<path fill="none" stroke="#00ff00" stroke-width=".1618" d="M553.806,-386.9722C458.3164,-382.8593 28.3979,-363.2471 9.4825,-342.7595 -5.4405,-326.5961 .0308,-313.1269 9.4825,-293.262 81.7209,-141.4359 171.4427,-140.72 334.4825,-99.6396 501.5664,-57.5403 1043.349,-37.9023 1198.57,-33.0502"/>
<polygon fill="#00ff00" stroke="#00ff00" stroke-width=".1618" points="1198.7609,-36.5461 1208.6481,-32.7391 1198.5448,-29.5495 1198.7609,-36.5461"/>
</g>
<!-- G_lm&#45;&gt;no_turn -->
<g id="edge90" class="edge">
<title>G_lm&#45;&gt;no_turn</title>
<path fill="none" stroke="#ff0000" stroke-width=".3397" stroke-dasharray="1,5" d="M591.3625,-386.9666C729.9918,-381.1399 1585.2415,-345.102 1587.4825,-342.7595 1602.6896,-326.8631 1597.8628,-312.6578 1587.4825,-293.262 1573.872,-267.8306 1556.2545,-274.9661 1533.4825,-257.262 1530.3337,-254.814 1527.1237,-252.1806 1523.9604,-249.4914"/>
<polygon fill="#ff0000" stroke="#ff0000" stroke-width=".3397" points="1526.09,-246.7046 1516.2543,-242.7662 1521.4872,-251.9786 1526.09,-246.7046"/>
</g>
<!-- G_lm&#45;&gt;ccw -->
<g id="edge79" class="edge">
<title>G_lm&#45;&gt;ccw</title>
<path fill="none" stroke="#ff0000" stroke-width=".3371" stroke-dasharray="1,5" d="M553.9617,-386.9402C460.2306,-382.7069 41.89,-362.7376 23.4825,-342.7595 8.5758,-326.581 9.0838,-309.8941 23.4825,-293.262 54.1971,-257.7829 384.1872,-231.0945 489.4279,-223.4347"/>
<polygon fill="#ff0000" stroke="#ff0000" stroke-width=".3371" points="489.7315,-226.922 499.4544,-222.7133 489.229,-219.9401 489.7315,-226.922"/>
</g>
<!-- G_lm&#45;&gt;cw -->
<g id="edge56" class="edge">
<title>G_lm&#45;&gt;cw</title>
<path fill="none" stroke="#ff0000" stroke-width=".2937" d="M553.7958,-385.7125C513.2438,-380.8457 419.2977,-367.1306 400.4825,-342.7595 387.0389,-325.3462 386.6316,-310.3531 400.4825,-293.262 449.1083,-233.2606 495.5535,-275.9782 570.4825,-257.262 603.9942,-248.8912 642.0755,-237.6521 667.3076,-229.9589"/>
<polygon fill="#ff0000" stroke="#ff0000" stroke-width=".2937" points="668.4259,-233.2769 676.9596,-226.9977 666.3728,-226.5847 668.4259,-233.2769"/>
</g>
<!-- G_lm&#45;&gt;398 -->
<g id="edge126" class="edge">
<title>G_lm&#45;&gt;398</title>
<path fill="none" stroke="#ff0000" stroke-width=".2163" d="M591.0049,-385.5992C623.9549,-381.2031 694.2868,-369.295 747.4825,-342.7595 749.855,-341.5759 752.2151,-340.1887 754.5128,-338.6857"/>
<polygon fill="#ff0000" stroke="#ff0000" stroke-width=".2163" points="756.9585,-341.2329 762.9599,-332.5017 752.8235,-335.5847 756.9585,-341.2329"/>
</g>
<!-- G_wall -->
<g id="node21" class="node">
<title>G_wall</title>
<polygon fill="#d3d3d3" stroke="#000000" points="974.9825,-327.0107 931.9825,-327.0107 931.9825,-309.0107 974.9825,-309.0107 974.9825,-327.0107"/>
<text text-anchor="middle" x="953.4825" y="-315.8107" font-family="Times,serif" font-size="9.00" fill="#000000">G_wall</text>
</g>
<!-- G_wall&#45;&gt;backward -->
<g id="edge89" class="edge">
<title>G_wall&#45;&gt;backward</title>
<path fill="none" stroke="#00ff00" stroke-width=".319" stroke-dasharray="1,5" d="M962.7936,-308.8238C968.5977,-303.5686 976.4665,-297.2488 984.4825,-293.262 1062.636,-254.3913 1163.6643,-235.2108 1221.4535,-226.8168"/>
<polygon fill="#00ff00" stroke="#00ff00" stroke-width=".319" points="1221.9662,-230.2792 1231.3808,-225.4196 1220.9906,-223.3475 1221.9662,-230.2792"/>
</g>
<!-- G_wall&#45;&gt;no_turn -->
<g id="edge34" class="edge">
<title>G_wall&#45;&gt;no_turn</title>
<path fill="none" stroke="#ff0000" stroke-width=".2349" stroke-dasharray="1,5" d="M962.075,-308.8887C967.8494,-303.3762 975.9427,-296.7593 984.4825,-293.262 1127.5569,-234.6674 1177.8667,-282.0013 1330.4825,-257.262 1372.6909,-250.4199 1420.3859,-239.4868 1453.2252,-231.4505"/>
<polygon fill="#ff0000" stroke="#ff0000" stroke-width=".2349" points="1454.4708,-234.7481 1463.3395,-228.9519 1452.792,-227.9524 1454.4708,-234.7481"/>
</g>
<!-- G_wall&#45;&gt;ccw -->
<g id="edge11" class="edge">
<title>G_wall&#45;&gt;ccw</title>
<path fill="none" stroke="#ff0000" stroke-width=".3249" d="M931.9027,-313.6793C884.1432,-304.038 765.9334,-279.8703 667.4825,-257.262 627.8751,-248.1665 582.4592,-236.8001 552.9394,-229.2865"/>
<polygon fill="#ff0000" stroke="#ff0000" stroke-width=".3249" points="553.7515,-225.8816 543.1965,-226.7996 552.0201,-232.6642 553.7515,-225.8816"/>
</g>
<!-- H_agent -->
<g id="node22" class="node">
<title>H_agent</title>
<polygon fill="#d3d3d3" stroke="#000000" points="2194.9825,-396.7595 2147.9825,-396.7595 2147.9825,-378.7595 2194.9825,-378.7595 2194.9825,-396.7595"/>
<text text-anchor="middle" x="2171.4825" y="-385.5595" font-family="Times,serif" font-size="9.00" fill="#000000">H_agent</text>
</g>
<!-- H_agent&#45;&gt;no_move -->
<g id="edge97" class="edge">
<title>H_agent&#45;&gt;no_move</title>
<path fill="none" stroke="#ff0000" stroke-width=".5311" d="M2147.9138,-387.2496C1978.2388,-383.5383 949.0525,-360.3262 922.4825,-342.7595 908.3588,-333.4216 891.9087,-295.5343 880.321,-264.5078"/>
<polygon fill="#ff0000" stroke="#ff0000" stroke-width=".5311" points="883.4626,-262.9081 876.7388,-254.7202 876.8891,-265.314 883.4626,-262.9081"/>
</g>
<!-- H_agent&#45;&gt;right -->
<g id="edge9" class="edge">
<title>H_agent&#45;&gt;right</title>
<path fill="none" stroke="#ff0000" stroke-width=".3926" stroke-dasharray="1,5" d="M2172.269,-378.7577C2173.3863,-359.6547 2172.9654,-315.0303 2147.4825,-293.262 2081.1372,-236.5876 1842.8947,-269.3699 1756.4825,-257.262 1700.5811,-249.4292 1636.1861,-236.4357 1598.264,-228.3698"/>
<polygon fill="#ff0000" stroke="#ff0000" stroke-width=".3926" points="1598.8106,-224.9076 1588.2991,-226.2339 1597.3435,-231.7521 1598.8106,-224.9076"/>
</g>
<!-- H_agent&#45;&gt;left -->
<g id="edge52" class="edge">
<title>H_agent&#45;&gt;left</title>
<path fill="none" stroke="#ff0000" stroke-width=".5187" stroke-dasharray="1,5" d="M2195.2315,-384.2507C2218.6459,-379.3903 2253.2126,-368.1335 2269.4825,-342.7595 2281.3568,-324.2405 2283.847,-309.9236 2269.4825,-293.262 2239.577,-258.5743 1916.6265,-231.1926 1815.5459,-223.4214"/>
<polygon fill="#ff0000" stroke="#ff0000" stroke-width=".5187" points="1815.6417,-219.9187 1805.4052,-222.6506 1815.1111,-226.8986 1815.6417,-219.9187"/>
</g>
<!-- H_agent&#45;&gt;forward -->
<g id="edge118" class="edge">
<title>H_agent&#45;&gt;forward</title>
<path fill="none" stroke="#00ff00" stroke-width=".2188" stroke-dasharray="1,5" d="M2195.3743,-386.9117C2249.865,-384.4249 2380.6946,-375.1378 2407.4825,-342.7595 2484.17,-250.0677 2398.1549,-149.0835 2288.4825,-99.6396 2195.6464,-57.7861 1466.6727,-37.3316 1282.5904,-32.8023"/>
<polygon fill="#00ff00" stroke="#00ff00" stroke-width=".2188" points="1282.5767,-29.301 1272.4944,-32.5565 1282.4063,-36.2989 1282.5767,-29.301"/>
</g>
<!-- H_agent&#45;&gt;ccw -->
<g id="edge48" class="edge">
<title>H_agent&#45;&gt;ccw</title>
<path fill="none" stroke="#00ff00" stroke-width=".2899" d="M2147.9186,-387.2514C1925.0125,-382.4418 195.7288,-345.0575 193.4825,-342.7595 102.964,-250.1583 390.7951,-227.4828 489.4966,-222.4907"/>
<polygon fill="#00ff00" stroke="#00ff00" stroke-width=".2899" points="489.6834,-225.9859 499.5051,-222.0129 489.3495,-218.9938 489.6834,-225.9859"/>
</g>
<!-- 366 -->
<g id="node40" class="node">
<title>366</title>
<ellipse fill="#ffffff" stroke="#000000" cx="1080.4825" cy="-318.0107" rx="21.4286" ry="21.4286"/>
<text text-anchor="middle" x="1080.4825" y="-315.8107" font-family="Times,serif" font-size="9.00" fill="#000000">366</text>
</g>
<!-- H_agent&#45;&gt;366 -->
<g id="edge122" class="edge">
<title>H_agent&#45;&gt;366</title>
<path fill="none" stroke="#ff0000" stroke-width=".1324" stroke-dasharray="1,5" d="M2147.5666,-387.1763C1994.8156,-383.3983 1160.5137,-361.9395 1110.4825,-342.7595 1108.2798,-341.915 1106.1197,-340.8402 1104.0314,-339.6135"/>
<polygon fill="#ff0000" stroke="#ff0000" stroke-width=".1324" points="1105.6082,-336.4407 1095.4275,-333.5072 1101.5568,-342.1492 1105.6082,-336.4407"/>
</g>
<!-- 1307 -->
<g id="node44" class="node">
<title>1307</title>
<ellipse fill="#ffffff" stroke="#000000" cx="2254.4825" cy="-124.3883" rx="25" ry="25"/>
<text text-anchor="middle" x="2254.4825" y="-122.1883" font-family="Times,serif" font-size="9.00" fill="#000000">1307</text>
</g>
<!-- H_agent&#45;&gt;1307 -->
<g id="edge136" class="edge">
<title>H_agent&#45;&gt;1307</title>
<path fill="none" stroke="#00ff00" stroke-width=".3645" d="M2195.154,-386.4404C2245.9117,-383.0663 2362.5573,-372.2107 2386.4825,-342.7595 2440.8359,-275.8519 2336.2929,-184.4896 2283.0088,-144.5071"/>
<polygon fill="#00ff00" stroke="#00ff00" stroke-width=".3645" points="2285.0535,-141.6661 2274.9294,-138.5429 2280.8961,-147.2979 2285.0535,-141.6661"/>
</g>
<!-- H_lm -->
<g id="node23" class="node">
<title>H_lm</title>
<polygon fill="#d3d3d3" stroke="#000000" points="2066.9825,-327.0107 2029.9825,-327.0107 2029.9825,-309.0107 2066.9825,-309.0107 2066.9825,-327.0107"/>
<text text-anchor="middle" x="2048.4825" y="-315.8107" font-family="Times,serif" font-size="9.00" fill="#000000">H_lm</text>
</g>
<!-- H_lm&#45;&gt;right -->
<g id="edge101" class="edge">
<title>H_lm&#45;&gt;right</title>
<path fill="none" stroke="#00ff00" stroke-width=".1217" stroke-dasharray="1,5" d="M2040.9641,-308.7244C2036.023,-303.2941 2029.082,-296.8255 2021.4825,-293.262 1913.8668,-242.7993 1873.8084,-276.2944 1756.4825,-257.262 1700.7634,-248.2233 1636.3124,-235.5999 1598.3297,-227.9353"/>
<polygon fill="#00ff00" stroke="#00ff00" stroke-width=".1217" points="1598.8438,-224.4684 1588.3478,-225.9121 1597.4532,-231.3289 1598.8438,-224.4684"/>
</g>
<!-- H_lm&#45;&gt;left -->
<g id="edge103" class="edge">
<title>H_lm&#45;&gt;left</title>
<path fill="none" stroke="#00ff00" stroke-width=".3117" stroke-dasharray="1,5" d="M2040.2826,-308.6649C2035.2993,-303.4873 2028.5493,-297.3001 2021.4825,-293.262 1953.3301,-254.3184 1861.839,-234.2055 1815.3304,-225.9176"/>
<polygon fill="#00ff00" stroke="#00ff00" stroke-width=".3117" points="1815.7621,-222.4405 1805.3132,-224.1928 1814.5742,-229.339 1815.7621,-222.4405"/>
</g>
<!-- H_lm&#45;&gt;no_turn -->
<g id="edge111" class="edge">
<title>H_lm&#45;&gt;no_turn</title>
<path fill="none" stroke="#00ff00" stroke-width=".6104" d="M2041.0385,-308.5591C2036.1255,-303.0665 2029.1878,-296.5906 2021.4825,-293.262 1821.8366,-207.0162 1733.4821,-342.684 1533.4825,-257.262 1529.6131,-255.6093 1525.8681,-253.4234 1522.3233,-250.9427"/>
<polygon fill="#00ff00" stroke="#00ff00" stroke-width=".6104" points="1524.4698,-248.1781 1514.4511,-244.7318 1520.134,-253.6736 1524.4698,-248.1781"/>
</g>
<!-- H_lm&#45;&gt;cw -->
<g id="edge71" class="edge">
<title>H_lm&#45;&gt;cw</title>
<path fill="none" stroke="#00ff00" stroke-width=".4467" d="M2041.5276,-308.9409C2036.6136,-303.2987 2029.4942,-296.5174 2021.4825,-293.262 1897.9017,-243.0467 953.2895,-277.7728 821.4825,-257.262 786.9021,-251.8808 748.3912,-239.9481 723.1556,-231.2788"/>
<polygon fill="#00ff00" stroke="#00ff00" stroke-width=".4467" points="724.1208,-227.9084 713.5259,-227.907 721.8074,-234.5151 724.1208,-227.9084"/>
</g>
<!-- H_wall -->
<g id="node24" class="node">
<title>H_wall</title>
<polygon fill="#d3d3d3" stroke="#000000" points="1577.9825,-327.0107 1534.9825,-327.0107 1534.9825,-309.0107 1577.9825,-309.0107 1577.9825,-327.0107"/>
<text text-anchor="middle" x="1556.4825" y="-315.8107" font-family="Times,serif" font-size="9.00" fill="#000000">H_wall</text>
</g>
<!-- H_wall&#45;&gt;right -->
<g id="edge116" class="edge">
<title>H_wall&#45;&gt;right</title>
<path fill="none" stroke="#00ff00" stroke-width=".2429" d="M1557.3454,-308.7281C1558.4962,-296.3493 1560.5948,-273.7748 1562.3725,-254.6526"/>
<polygon fill="#00ff00" stroke="#00ff00" stroke-width=".2429" points="1565.8783,-254.752 1563.319,-244.471 1558.9083,-254.104 1565.8783,-254.752"/>
</g>
<!-- H_wall&#45;&gt;left -->
<g id="edge72" class="edge">
<title>H_wall&#45;&gt;left</title>
<path fill="none" stroke="#00ff00" stroke-width=".6982" stroke-dasharray="1,5" d="M1578.0262,-308.903C1619.7255,-291.2743 1711.4233,-252.5085 1757.6615,-232.961"/>
<polygon fill="#00ff00" stroke="#00ff00" stroke-width=".6982" points="1759.2199,-236.1022 1767.0678,-228.9845 1756.4941,-229.6547 1759.2199,-236.1022"/>
</g>
<!-- H_wall&#45;&gt;backward -->
<g id="edge26" class="edge">
<title>H_wall&#45;&gt;backward</title>
<path fill="none" stroke="#ff0000" stroke-width=".4475" stroke-dasharray="1,5" d="M1547.1375,-308.8907C1541.3216,-303.6592 1533.452,-297.3409 1525.4825,-293.262 1456.01,-257.7052 1366.7549,-237.7992 1313.5055,-228.304"/>
<polygon fill="#ff0000" stroke="#ff0000" stroke-width=".4475" points="1313.8034,-224.8035 1303.3522,-226.5423 1312.6066,-231.7004 1313.8034,-224.8035"/>
</g>
<!-- H_wall&#45;&gt;no_turn -->
<g id="edge1" class="edge">
<title>H_wall&#45;&gt;no_turn</title>
<path fill="none" stroke="#ff0000" stroke-width=".2582" d="M1550.4418,-308.7281C1542.5364,-296.58 1528.2412,-274.6128 1515.9502,-255.7253"/>
<polygon fill="#ff0000" stroke="#ff0000" stroke-width=".2582" points="1518.862,-253.7829 1510.4741,-247.3103 1512.9949,-257.6009 1518.862,-253.7829"/>
</g>
<!-- H_wall&#45;&gt;ccw -->
<g id="edge121" class="edge">
<title>H_wall&#45;&gt;ccw</title>
<path fill="none" stroke="#00ff00" stroke-width=".2177" stroke-dasharray="1,5" d="M1548.2165,-308.9573C1542.4559,-303.3221 1534.2551,-296.5423 1525.4825,-293.262 1346.7358,-226.4232 856.3949,-284.2779 667.4825,-257.262 627.0223,-251.4759 581.4512,-239.2814 552.149,-230.6795"/>
<polygon fill="#00ff00" stroke="#00ff00" stroke-width=".2177" points="553.0811,-227.3052 542.4979,-227.8031 551.0817,-234.0136 553.0811,-227.3052"/>
</g>
<!-- right_t&#45;1 -->
<g id="node25" class="node">
<title>right_t&#45;1</title>
<polygon fill="#d3d3d3" stroke="#000000" points="2404.4825,-396.7595 2356.4825,-396.7595 2356.4825,-378.7595 2404.4825,-378.7595 2404.4825,-396.7595"/>
<text text-anchor="middle" x="2380.4825" y="-385.5595" font-family="Times,serif" font-size="9.00" fill="#000000">right_t&#45;1</text>
</g>
<!-- right_t&#45;1&#45;&gt;left -->
<g id="edge98" class="edge">
<title>right_t&#45;1&#45;&gt;left</title>
<path fill="none" stroke="#00ff00" stroke-width=".1062" d="M2384.8407,-378.5917C2392.9891,-359.9521 2407.8664,-317.3631 2386.4825,-293.262 2348.1392,-250.0465 1932.1948,-227.9014 1815.668,-222.5159"/>
<polygon fill="#00ff00" stroke="#00ff00" stroke-width=".1062" points="1815.4972,-219.0046 1805.3486,-222.0469 1815.1794,-225.9974 1815.4972,-219.0046"/>
</g>
<!-- right_t&#45;1&#45;&gt;forward -->
<g id="edge99" class="edge">
<title>right_t&#45;1&#45;&gt;forward</title>
<path fill="none" stroke="#ff0000" stroke-width=".4651" d="M2393.3914,-378.7411C2403.7241,-370.6676 2417.4502,-357.8039 2423.4825,-342.7595 2431.6696,-322.3408 2427.8122,-314.8306 2423.4825,-293.262 2405.1234,-201.8054 2418.5089,-153.689 2342.4825,-99.6396 2298.499,-68.3705 1478.8919,-39.6262 1282.5079,-33.1683"/>
<polygon fill="#ff0000" stroke="#ff0000" stroke-width=".4651" points="1282.419,-29.6636 1272.3098,-32.8346 1282.19,-36.6599 1282.419,-29.6636"/>
</g>
<!-- right_t&#45;1&#45;&gt;no_turn -->
<g id="edge12" class="edge">
<title>right_t&#45;1&#45;&gt;no_turn</title>
<path fill="none" stroke="#00ff00" stroke-width=".3908" d="M2356.2235,-386.3807C2263.7526,-381.0077 1936.4107,-360.874 1893.4825,-342.7595 1862.2597,-329.5843 1866.5279,-306.8497 1835.4825,-293.262 1711.6511,-239.0642 1656.565,-313.1394 1533.4825,-257.262 1529.6513,-255.5227 1525.931,-253.2806 1522.4011,-250.7661"/>
<polygon fill="#00ff00" stroke="#00ff00" stroke-width=".3908" points="1524.5507,-248.0038 1514.5473,-244.5134 1520.1907,-253.4802 1524.5507,-248.0038"/>
</g>
<!-- right_t&#45;1&#45;&gt;cw -->
<g id="edge31" class="edge">
<title>right_t&#45;1&#45;&gt;cw</title>
<path fill="none" stroke="#00ff00" stroke-width=".6132" stroke-dasharray="1,5" d="M2356.2941,-386.2866C2322.3782,-384.2752 2258.7548,-380.6982 2204.4825,-378.7595 2155.3092,-377.0028 467.92,-377.9041 433.4825,-342.7595 418.0858,-327.0466 420.0482,-310.6824 433.4825,-293.262 471.9283,-243.4084 509.7892,-273.9887 570.4825,-257.262 603.7824,-248.0847 641.9049,-237.0027 667.2046,-229.5667"/>
<polygon fill="#00ff00" stroke="#00ff00" stroke-width=".6132" points="668.2817,-232.8982 676.8854,-226.7153 666.3039,-226.1834 668.2817,-232.8982"/>
</g>
<!-- right_t&#45;1&#45;&gt;465 -->
<g id="edge127" class="edge">
<title>right_t&#45;1&#45;&gt;465</title>
<path fill="none" stroke="#00ff00" stroke-width=".2601" stroke-dasharray="1,5" d="M2387.6737,-378.5498C2401.0753,-360.2042 2426.6721,-318.68 2405.4825,-293.262 2234.4985,-88.1581 2077.9704,-228.4642 1814.4825,-185.1371 1671.2605,-161.5861 1499.5255,-137.9669 1429.9986,-128.5967"/>
<polygon fill="#00ff00" stroke="#00ff00" stroke-width=".2601" points="1430.1147,-125.0809 1419.7375,-127.2173 1429.1821,-132.0185 1430.1147,-125.0809"/>
</g>
<!-- 758 -->
<g id="node43" class="node">
<title>758</title>
<ellipse fill="#ffffff" stroke="#000000" cx="2356.4825" cy="-318.0107" rx="21.4286" ry="21.4286"/>
<text text-anchor="middle" x="2356.4825" y="-315.8107" font-family="Times,serif" font-size="9.00" fill="#000000">758</text>
</g>
<!-- right_t&#45;1&#45;&gt;758 -->
<g id="edge130" class="edge">
<title>right_t&#45;1&#45;&gt;758</title>
<path fill="none" stroke="#00ff00" stroke-width=".1696" d="M2377.3449,-378.641C2374.6325,-370.7584 2370.5554,-358.9094 2366.7229,-347.7716"/>
<polygon fill="#00ff00" stroke="#00ff00" stroke-width=".1696" points="2370.0218,-346.6016 2363.4585,-338.2845 2363.4027,-348.8792 2370.0218,-346.6016"/>
</g>
<!-- forward_t&#45;1 -->
<g id="node26" class="node">
<title>forward_t&#45;1</title>
<polygon fill="#d3d3d3" stroke="#000000" points="2481.9825,-396.7595 2422.9825,-396.7595 2422.9825,-378.7595 2481.9825,-378.7595 2481.9825,-396.7595"/>
<text text-anchor="middle" x="2452.4825" y="-385.5595" font-family="Times,serif" font-size="9.00" fill="#000000">forward_t&#45;1</text>
</g>
<!-- turn_t&#45;1 -->
<g id="node27" class="node">
<title>turn_t&#45;1</title>
<polygon fill="#d3d3d3" stroke="#000000" points="1741.9825,-396.7595 1696.9825,-396.7595 1696.9825,-378.7595 1741.9825,-378.7595 1741.9825,-396.7595"/>
<text text-anchor="middle" x="1719.4825" y="-385.5595" font-family="Times,serif" font-size="9.00" fill="#000000">turn_t&#45;1</text>
</g>
<!-- turn_t&#45;1&#45;&gt;no_move -->
<g id="edge32" class="edge">
<title>turn_t&#45;1&#45;&gt;no_move</title>
<path fill="none" stroke="#ff0000" stroke-width=".9166" d="M1696.9311,-387.3117C1567.2164,-384.6401 920.844,-369.9903 889.4825,-342.7595 868.1883,-324.2699 862.4097,-292.8387 861.84,-266.5695"/>
<polygon fill="#ff0000" stroke="#ff0000" stroke-width=".9166" points="865.3402,-266.4319 861.8643,-256.4235 858.3402,-266.4151 865.3402,-266.4319"/>
</g>
<!-- turn_t&#45;1&#45;&gt;left -->
<g id="edge76" class="edge">
<title>turn_t&#45;1&#45;&gt;left</title>
<path fill="none" stroke="#00ff00" stroke-width=".4186" stroke-dasharray="1,5" d="M1742.2646,-387.5992C1839.4052,-386.6841 2215.6238,-380.6972 2250.4825,-342.7595 2265.3668,-326.5604 2264.7974,-309.9662 2250.4825,-293.262 2221.9494,-259.9665 1914.2048,-231.8321 1815.6551,-223.6212"/>
<polygon fill="#00ff00" stroke="#00ff00" stroke-width=".4186" points="1815.7334,-220.1158 1805.4796,-222.7825 1815.1583,-227.0922 1815.7334,-220.1158"/>
</g>
<!-- turn_t&#45;1&#45;&gt;no_turn -->
<g id="edge43" class="edge">
<title>turn_t&#45;1&#45;&gt;no_turn</title>
<path fill="none" stroke="#ff0000" stroke-width=".3515" d="M1742.3641,-384.4288C1765.7843,-379.6678 1801.0105,-368.4487 1817.4825,-342.7595 1829.3568,-324.2405 1832.0271,-309.7667 1817.4825,-293.262 1775.4225,-245.5339 1591.3105,-283.7749 1533.4825,-257.262 1529.6578,-255.5084 1525.9417,-253.2571 1522.4143,-250.7371"/>
<polygon fill="#ff0000" stroke="#ff0000" stroke-width=".3515" points="1524.5645,-247.9752 1514.5637,-244.4775 1520.2005,-253.4484 1524.5645,-247.9752"/>
</g>
<!-- turn_t&#45;1&#45;&gt;ccw -->
<g id="edge73" class="edge">
<title>turn_t&#45;1&#45;&gt;ccw</title>
<path fill="none" stroke="#ff0000" stroke-width=".3172" d="M1696.9728,-387.543C1507.7354,-385.6719 188.5048,-371.6023 160.4825,-342.7595 61.3535,-240.7278 383.7101,-224.3366 489.2109,-221.7035"/>
<polygon fill="#ff0000" stroke="#ff0000" stroke-width=".3172" points="489.3683,-225.2009 499.2875,-221.4779 489.2116,-218.2027 489.3683,-225.2009"/>
</g>
<!-- 1259 -->
<g id="node39" class="node">
<title>1259</title>
<ellipse fill="#ffffff" stroke="#000000" cx="1719.4825" cy="-318.0107" rx="25" ry="25"/>
<text text-anchor="middle" x="1719.4825" y="-315.8107" font-family="Times,serif" font-size="9.00" fill="#000000">1259</text>
</g>
<!-- turn_t&#45;1&#45;&gt;1259 -->
<g id="edge134" class="edge">
<title>turn_t&#45;1&#45;&gt;1259</title>
<path fill="none" stroke="#00ff00" stroke-width=".2962" d="M1719.4825,-378.641C1719.4825,-372.0243 1719.4825,-362.6128 1719.4825,-353.1731"/>
<polygon fill="#00ff00" stroke="#00ff00" stroke-width=".2962" points="1722.9826,-353.0499 1719.4825,-343.05 1715.9826,-353.05 1722.9826,-353.0499"/>
</g>
<!-- right_t&#45;2 -->
<g id="node28" class="node">
<title>right_t&#45;2</title>
<polygon fill="#d3d3d3" stroke="#000000" points="1041.4825,-327.0107 993.4825,-327.0107 993.4825,-309.0107 1041.4825,-309.0107 1041.4825,-327.0107"/>
<text text-anchor="middle" x="1017.4825" y="-315.8107" font-family="Times,serif" font-size="9.00" fill="#000000">right_t&#45;2</text>
</g>
<!-- right_t&#45;2&#45;&gt;no_move -->
<g id="edge16" class="edge">
<title>right_t&#45;2&#45;&gt;no_move</title>
<path fill="none" stroke="#00ff00" stroke-width=".4639" d="M1005.3768,-308.8325C998.9591,-304.0608 990.8901,-298.2082 983.4825,-293.262 957.9282,-276.199 928.4262,-258.1822 905.3137,-244.4318"/>
<polygon fill="#00ff00" stroke="#00ff00" stroke-width=".4639" points="906.8591,-241.2793 896.4716,-239.1937 903.2913,-247.3018 906.8591,-241.2793"/>
</g>
<!-- right_t&#45;2&#45;&gt;left -->
<g id="edge20" class="edge">
<title>right_t&#45;2&#45;&gt;left</title>
<path fill="none" stroke="#ff0000" stroke-width=".1818" stroke-dasharray="1,5" d="M1026.6917,-308.7759C1032.8636,-303.2185 1041.4833,-296.5939 1050.4825,-293.262 1164.7222,-250.965 1476.6546,-272.7662 1597.4825,-257.262 1654.0364,-250.0052 1719.2254,-236.2782 1756.0752,-228.0126"/>
<polygon fill="#ff0000" stroke="#ff0000" stroke-width=".1818" points="1757.1444,-231.3591 1766.1238,-225.7359 1755.5976,-224.5321 1757.1444,-231.3591"/>
</g>
<!-- right_t&#45;2&#45;&gt;cw -->
<g id="edge60" class="edge">
<title>right_t&#45;2&#45;&gt;cw</title>
<path fill="none" stroke="#ff0000" stroke-width=".1338" stroke-dasharray="1,5" d="M1007.4619,-309.0065C1001.0316,-303.6823 992.2666,-297.2263 983.4825,-293.262 916.2553,-262.922 892.9693,-275.4176 821.4825,-257.262 787.5627,-248.6473 748.9187,-237.3665 723.4715,-229.733"/>
<polygon fill="#ff0000" stroke="#ff0000" stroke-width=".1338" points="724.3364,-226.3382 713.7517,-226.802 722.3154,-233.0401 724.3364,-226.3382"/>
</g>
<!-- forward_t&#45;2 -->
<g id="node29" class="node">
<title>forward_t&#45;2</title>
<polygon fill="#d3d3d3" stroke="#000000" points="677.9825,-327.0107 618.9825,-327.0107 618.9825,-309.0107 677.9825,-309.0107 677.9825,-327.0107"/>
<text text-anchor="middle" x="648.4825" y="-315.8107" font-family="Times,serif" font-size="9.00" fill="#000000">forward_t&#45;2</text>
</g>
<!-- forward_t&#45;2&#45;&gt;no_move -->
<g id="edge7" class="edge">
<title>forward_t&#45;2&#45;&gt;no_move</title>
<path fill="none" stroke="#00ff00" stroke-width="1.0145" d="M661.1207,-308.8902C668.3406,-303.9098 677.6835,-297.8429 686.4825,-293.262 731.353,-269.9017 785.57,-249.0267 822.4948,-235.8331"/>
<polygon fill="#00ff00" stroke="#00ff00" stroke-width="1.0145" points="823.7007,-239.1191 831.9605,-232.4838 821.3657,-232.52 823.7007,-239.1191"/>
</g>
<!-- forward_t&#45;2&#45;&gt;left -->
<g id="edge10" class="edge">
<title>forward_t&#45;2&#45;&gt;left</title>
<path fill="none" stroke="#ff0000" stroke-width=".2571" d="M658.9785,-308.9372C666.1933,-303.2935 676.2803,-296.5119 686.4825,-293.262 879.5271,-231.7678 1396.2068,-280.4109 1597.4825,-257.262 1654.1267,-250.7473 1719.2849,-236.7677 1756.1047,-228.2548"/>
<polygon fill="#ff0000" stroke="#ff0000" stroke-width=".2571" points="1757.2047,-231.592 1766.1445,-225.906 1755.6101,-224.776 1757.2047,-231.592"/>
</g>
<!-- forward_t&#45;2&#45;&gt;forward -->
<g id="edge66" class="edge">
<title>forward_t&#45;2&#45;&gt;forward</title>
<path fill="none" stroke="#ff0000" stroke-width=".206" d="M646.7279,-308.894C642.735,-285.2027 635.6244,-221.0462 667.4825,-185.1371 739.2124,-104.2861 1078.5735,-52.9421 1198.4333,-37.0763"/>
<polygon fill="#ff0000" stroke="#ff0000" stroke-width=".206" points="1199.2111,-40.5044 1208.6726,-35.7368 1198.3031,-33.5636 1199.2111,-40.5044"/>
</g>
<!-- forward_t&#45;2&#45;&gt;no_turn -->
<g id="edge44" class="edge">
<title>forward_t&#45;2&#45;&gt;no_turn</title>
<path fill="none" stroke="#ff0000" stroke-width=".4507" d="M658.9962,-308.9921C666.2185,-303.3716 676.3072,-296.5952 686.4825,-293.262 822.695,-248.6421 1188.4868,-276.8074 1330.4825,-257.262 1372.8425,-251.4312 1420.5143,-240.3438 1453.3068,-231.9951"/>
<polygon fill="#ff0000" stroke="#ff0000" stroke-width=".4507" points="1454.5962,-235.2772 1463.4053,-229.3909 1452.8481,-228.499 1454.5962,-235.2772"/>
</g>
<!-- forward_t&#45;2&#45;&gt;ccw -->
<g id="edge58" class="edge">
<title>forward_t&#45;2&#45;&gt;ccw</title>
<path fill="none" stroke="#ff0000" stroke-width=".1848" stroke-dasharray="1,5" d="M636.3052,-308.7281C615.9134,-293.1836 574.4311,-261.5619 547.3098,-240.8875"/>
<polygon fill="#ff0000" stroke="#ff0000" stroke-width=".1848" points="549.1284,-237.8729 539.0537,-234.594 544.8847,-243.4399 549.1284,-237.8729"/>
</g>
<!-- forward_t&#45;2&#45;&gt;cw -->
<g id="edge38" class="edge">
<title>forward_t&#45;2&#45;&gt;cw</title>
<path fill="none" stroke="#00ff00" stroke-width=".1721" stroke-dasharray="1,5" d="M652.989,-308.7281C659.7725,-294.7553 672.8626,-267.7923 682.7302,-247.4667"/>
<polygon fill="#00ff00" stroke="#00ff00" stroke-width=".1721" points="685.9194,-248.9117 687.1382,-238.3872 679.6222,-245.8545 685.9194,-248.9117"/>
</g>
<!-- turn_t&#45;2 -->
<g id="node30" class="node">
<title>turn_t&#45;2</title>
<polygon fill="#d3d3d3" stroke="#000000" points="2011.9825,-327.0107 1966.9825,-327.0107 1966.9825,-309.0107 2011.9825,-309.0107 2011.9825,-327.0107"/>
<text text-anchor="middle" x="1989.4825" y="-315.8107" font-family="Times,serif" font-size="9.00" fill="#000000">turn_t&#45;2</text>
</g>
<!-- turn_t&#45;2&#45;&gt;left -->
<g id="edge49" class="edge">
<title>turn_t&#45;2&#45;&gt;left</title>
<path fill="none" stroke="#00ff00" stroke-width=".271" stroke-dasharray="1,5" d="M1979.0228,-308.7926C1973.0001,-303.7816 1965.1287,-297.7167 1957.4825,-293.262 1909.7426,-265.4486 1849.2179,-242.6939 1814.1682,-230.6132"/>
<polygon fill="#00ff00" stroke="#00ff00" stroke-width=".271" points="1815.1646,-227.2553 1804.5702,-227.3531 1812.9132,-233.8834 1815.1646,-227.2553"/>
</g>
<!-- turn_t&#45;2&#45;&gt;backward -->
<g id="edge41" class="edge">
<title>turn_t&#45;2&#45;&gt;backward</title>
<path fill="none" stroke="#ff0000" stroke-width=".3896" stroke-dasharray="1,5" d="M1980.5968,-308.7934C1974.6297,-303.243 1966.2742,-296.6196 1957.4825,-293.262 1852.5864,-253.2019 1564.7997,-271.9747 1453.4825,-257.262 1405.1951,-250.8799 1350.5373,-239.8151 1313.0348,-231.6203"/>
<polygon fill="#ff0000" stroke="#ff0000" stroke-width=".3896" points="1313.4509,-228.128 1302.9317,-229.3913 1311.9428,-234.9636 1313.4509,-228.128"/>
</g>
<!-- turn_t&#45;2&#45;&gt;no_turn -->
<g id="edge24" class="edge">
<title>turn_t&#45;2&#45;&gt;no_turn</title>
<path fill="none" stroke="#00ff00" stroke-width=".6136" stroke-dasharray="1,5" d="M1980.5813,-308.8335C1974.6081,-303.2991 1966.2516,-296.6784 1957.4825,-293.262 1781.2616,-224.607 1706.9916,-332.5074 1533.4825,-257.262 1529.6223,-255.5879 1525.8833,-253.3881 1522.342,-250.8991"/>
<polygon fill="#00ff00" stroke="#00ff00" stroke-width=".6136" points="1524.4893,-248.135 1514.4743,-244.6779 1520.1475,-253.6259 1524.4893,-248.135"/>
</g>
<!-- no_move&#45;&gt;no_move -->
<g id="edge84" class="edge">
<title>no_move&#45;&gt;no_move</title>
<path fill="none" stroke="#ff0000" stroke-width=".3993" stroke-dasharray="1,5" d="M896.1868,-239.0897C908.5015,-240.1004 918.8378,-234.137 918.8378,-221.1995 918.8378,-212.1029 913.7277,-206.4541 906.4128,-204.2532"/>
<polygon fill="#ff0000" stroke="#ff0000" stroke-width=".3993" points="906.4662,-200.7433 896.1868,-203.3094 905.8228,-207.7137 906.4662,-200.7433"/>
</g>
<!-- right&#45;&gt;465 -->
<g id="edge132" class="edge">
<title>right&#45;&gt;465</title>
<path fill="none" stroke="#ff0000" stroke-width=".4817" d="M1551.5131,-202.4976C1546.3301,-196.4194 1540.0916,-189.9958 1533.4825,-185.1371 1500.881,-161.1701 1457.32,-143.7061 1428.6097,-133.8111"/>
<polygon fill="#ff0000" stroke="#ff0000" stroke-width=".4817" points="1429.7101,-130.4886 1419.1162,-130.6286 1427.4851,-137.1256 1429.7101,-130.4886"/>
</g>
<!-- backward&#45;&gt;backward -->
<g id="edge114" class="edge">
<title>backward&#45;&gt;backward</title>
<path fill="none" stroke="#ff0000" stroke-width=".2667" d="M1298.8646,-239.1105C1311.2229,-240.0136 1321.5449,-234.0433 1321.5449,-221.1995 1321.5449,-212.1688 1316.4419,-206.5361 1309.116,-204.3016"/>
<polygon fill="#ff0000" stroke="#ff0000" stroke-width=".2667" points="1309.1604,-200.789 1298.8646,-203.2885 1308.4719,-207.7551 1309.1604,-200.789"/>
</g>
<!-- ccw&#45;&gt;ccw -->
<g id="edge21" class="edge">
<title>ccw&#45;&gt;ccw</title>
<path fill="none" stroke="#ff0000" stroke-width=".4558" stroke-dasharray="1,5" d="M537.0533,-236.8748C549.108,-242.7371 561.4028,-237.512 561.4028,-221.1995 561.4028,-209.4749 555.0513,-203.4781 547.0026,-203.209"/>
<polygon fill="#ff0000" stroke="#ff0000" stroke-width=".4558" points="545.9998,-199.8488 537.0533,-205.5242 547.5864,-206.6666 545.9998,-199.8488"/>
</g>
<!-- 1259&#45;&gt;no_turn -->
<g id="edge135" class="edge">
<title>1259&#45;&gt;no_turn</title>
<path fill="none" stroke="#ff0000" stroke-width=".3047" d="M1700.1704,-301.9478C1695.5687,-298.7023 1690.524,-295.5795 1685.4825,-293.262 1622.4036,-264.2652 1594.9614,-289.5125 1533.4825,-257.262 1529.7565,-255.3074 1526.1045,-252.9257 1522.6155,-250.3274"/>
<polygon fill="#ff0000" stroke="#ff0000" stroke-width=".3047" points="1524.7762,-247.5732 1514.8126,-243.9707 1520.355,-253.0003 1524.7762,-247.5732"/>
</g>
<!-- 366&#45;&gt;no_move -->
<g id="edge123" class="edge">
<title>366&#45;&gt;no_move</title>
<path fill="none" stroke="#ff0000" stroke-width=".3188" stroke-dasharray="1,5" d="M1064.6774,-303.394C1060.2857,-299.7834 1055.3742,-296.1321 1050.4825,-293.262 1005.1803,-266.6815 948.2613,-246.2119 909.6065,-233.9961"/>
<polygon fill="#ff0000" stroke="#ff0000" stroke-width=".3188" points="910.2907,-230.5438 899.7026,-230.9205 908.2147,-237.2289 910.2907,-230.5438"/>
</g>
<!-- 366&#45;&gt;465 -->
<g id="edge133" class="edge">
<title>366&#45;&gt;465</title>
<path fill="none" stroke="#ff0000" stroke-width=".8004" d="M1094.0834,-301.357C1117.5621,-273.6012 1168.4045,-217.7211 1222.4825,-185.1371 1269.2275,-156.9714 1330.8664,-139.534 1367.4221,-130.9248"/>
<polygon fill="#ff0000" stroke="#ff0000" stroke-width=".8004" points="1368.5048,-134.2678 1377.476,-128.6315 1366.948,-127.4431 1368.5048,-134.2678"/>
</g>
<!-- 398&#45;&gt;right -->
<g id="edge125" class="edge">
<title>398&#45;&gt;right</title>
<path fill="none" stroke="#ff0000" stroke-width=".3257" d="M799.3633,-313.6692C827.2838,-308.0373 878.3818,-298.3349 922.4825,-293.262 1057.6047,-277.7187 1411.1243,-316.6597 1533.4825,-257.262 1537.9534,-255.0916 1542.0718,-251.9881 1545.7607,-248.501"/>
<polygon fill="#ff0000" stroke="#ff0000" stroke-width=".3257" points="1548.4921,-250.7021 1552.7047,-240.9808 1543.3493,-245.9533 1548.4921,-250.7021"/>
</g>
<!-- 398&#45;&gt;cw -->
<g id="edge138" class="edge">
<title>398&#45;&gt;cw</title>
<path fill="none" stroke="#ff0000" stroke-width=".2155" d="M764.4026,-301.588C750.6858,-285.5886 729.7348,-261.1515 714.5331,-243.4202"/>
<polygon fill="#ff0000" stroke="#ff0000" stroke-width=".2155" points="717.1656,-241.1134 707.9997,-235.7996 711.8513,-245.6695 717.1656,-241.1134"/>
</g>
<!-- 465&#45;&gt;forward -->
<g id="edge128" class="edge">
<title>465&#45;&gt;forward</title>
<path fill="none" stroke="#00ff00" stroke-width=".1618" d="M1381.2956,-111.6615C1375.7042,-107.677 1369.4106,-103.3537 1363.4825,-99.6396 1335.4475,-82.0751 1302.5824,-64.0802 1277.8802,-51.0439"/>
<polygon fill="#00ff00" stroke="#00ff00" stroke-width=".1618" points="1279.3212,-47.8475 1268.8397,-46.3017 1276.0695,-54.0465 1279.3212,-47.8475"/>
</g>
<!-- 758&#45;&gt;left -->
<g id="edge131" class="edge">
<title>758&#45;&gt;left</title>
<path fill="none" stroke="#00ff00" stroke-width=".4363" d="M2340.3485,-304.1558C2334.7156,-300.0096 2328.1315,-295.8758 2321.4825,-293.262 2227.6762,-256.3848 1914.2047,-230.6765 1815.506,-223.3415"/>
<polygon fill="#00ff00" stroke="#00ff00" stroke-width=".4363" points="1815.564,-219.8364 1805.3345,-222.5945 1815.0512,-226.8176 1815.564,-219.8364"/>
</g>
<!-- 1307&#45;&gt;forward -->
<g id="edge137" class="edge">
<title>1307&#45;&gt;forward</title>
<path fill="none" stroke="#00ff00" stroke-width=".3915" d="M2229.9108,-121.2809C2190.2928,-116.3274 2109.8244,-106.5015 2041.4825,-99.6396 1751.6761,-70.5415 1402.0364,-43.8132 1282.7298,-34.9298"/>
<polygon fill="#00ff00" stroke="#00ff00" stroke-width=".3915" points="1282.7966,-31.4252 1272.5648,-34.1747 1282.278,-38.406 1282.7966,-31.4252"/>
</g>
</g>
</svg>
