<?xml version="1.0" encoding="UTF-8" standalone="no"?>
<!DOCTYPE svg PUBLIC "-//W3C//DTD SVG 1.1//EN"
 "http://www.w3.org/Graphics/SVG/1.1/DTD/svg11.dtd">
<!-- Generated by graphviz version 2.40.1 (20161225.0304)
 -->
<!-- Title: %3 Pages: 1 -->
<svg width="1332pt" height="252pt"
 viewBox="0.00 0.00 1331.59 252.15" xmlns="http://www.w3.org/2000/svg" xmlns:xlink="http://www.w3.org/1999/xlink">
<g id="graph0" class="graph" transform="scale(1 1) rotate(0) translate(4 248.1493)">
<title>%3</title>
<polygon fill="#ffffff" stroke="transparent" points="-4,4 -4,-248.1493 1327.5932,-248.1493 1327.5932,4 -4,4"/>
<!-- A_agent -->
<g id="node1" class="node">
<title>A_agent</title>
<polygon fill="#d3d3d3" stroke="#000000" points="907.7132,-244.1493 860.7132,-244.1493 860.7132,-226.1493 907.7132,-226.1493 907.7132,-244.1493"/>
<text text-anchor="middle" x="884.2132" y="-232.9493" font-family="Times,serif" font-size="9.00" fill="#000000">A_agent</text>
</g>
<!-- no_move -->
<g id="node17" class="node">
<title>no_move</title>
<ellipse fill="#add8e6" stroke="#000000" cx="346.2132" cy="-55.8614" rx="35.2113" ry="35.2113"/>
<text text-anchor="middle" x="346.2132" y="-53.6614" font-family="Times,serif" font-size="9.00" fill="#000000">no_move</text>
</g>
<!-- A_agent&#45;&gt;no_move -->
<g id="edge29" class="edge">
<title>A_agent&#45;&gt;no_move</title>
<path fill="none" stroke="#ff0000" stroke-width=".1419" d="M860.3649,-234.6413C734.5778,-231.8489 152.9741,-217.487 127.2132,-190.1493 114.2815,-176.426 115.2987,-162.3379 127.2132,-147.7229 177.3873,-86.1766 234.6527,-153.4476 302.2132,-111.7229 309.5362,-107.2002 316.134,-100.9978 321.8583,-94.366"/>
<polygon fill="#ff0000" stroke="#ff0000" stroke-width=".1419" points="324.6667,-96.458 328.1682,-86.4585 319.1952,-92.092 324.6667,-96.458"/>
</g>
<!-- backward -->
<g id="node21" class="node">
<title>backward</title>
<ellipse fill="#add8e6" stroke="#000000" cx="1121.2132" cy="-55.8614" rx="36.125" ry="36.125"/>
<text text-anchor="middle" x="1121.2132" y="-53.6614" font-family="Times,serif" font-size="9.00" fill="#000000">backward</text>
</g>
<!-- A_agent&#45;&gt;backward -->
<g id="edge65" class="edge">
<title>A_agent&#45;&gt;backward</title>
<path fill="none" stroke="#ff0000" stroke-width=".2092" d="M907.7271,-233.3172C974.6388,-227.8679 1162.426,-210.845 1180.2132,-190.1493 1205.8106,-160.3663 1179.1559,-117.733 1153.9148,-88.5403"/>
<polygon fill="#ff0000" stroke="#ff0000" stroke-width=".2092" points="1156.4954,-86.1755 1147.2202,-81.0549 1151.2777,-90.842 1156.4954,-86.1755"/>
</g>
<!-- no_turn -->
<g id="node22" class="node">
<title>no_turn</title>
<ellipse fill="#add8e6" stroke="#000000" cx="619.2132" cy="-55.8614" rx="31.2258" ry="31.2258"/>
<text text-anchor="middle" x="619.2132" y="-53.6614" font-family="Times,serif" font-size="9.00" fill="#000000">no_turn</text>
</g>
<!-- A_agent&#45;&gt;no_turn -->
<g id="edge57" class="edge">
<title>A_agent&#45;&gt;no_turn</title>
<path fill="none" stroke="#ff0000" stroke-width=".7597" d="M860.4618,-234.2288C804.8642,-231.5579 668.6637,-221.8546 638.2132,-190.1493 614.7964,-165.7675 611.6692,-126.4963 613.4389,-96.7052"/>
<polygon fill="#ff0000" stroke="#ff0000" stroke-width=".7597" points="616.9384,-96.8496 614.2438,-86.6031 609.9605,-96.2935 616.9384,-96.8496"/>
</g>
<!-- 281 -->
<g id="node27" class="node">
<title>281</title>
<ellipse fill="#ffffff" stroke="#000000" cx="1150.2132" cy="-168.9361" rx="21.4286" ry="21.4286"/>
<text text-anchor="middle" x="1150.2132" y="-166.7361" font-family="Times,serif" font-size="9.00" fill="#000000">281</text>
</g>
<!-- A_agent&#45;&gt;281 -->
<g id="edge66" class="edge">
<title>A_agent&#45;&gt;281</title>
<path fill="none" stroke="#00ff00" stroke-width=".3541" stroke-dasharray="1,5" d="M907.9507,-233.947C951.6109,-231.0256 1046.8957,-221.3159 1120.2132,-190.1493 1121.7872,-189.4802 1123.3606,-188.7185 1124.9163,-187.8911"/>
<polygon fill="#00ff00" stroke="#00ff00" stroke-width=".3541" points="1126.8183,-190.8304 1133.5124,-182.6182 1123.1582,-184.8635 1126.8183,-190.8304"/>
</g>
<!-- A_lm -->
<g id="node2" class="node">
<title>A_lm</title>
<polygon fill="#d3d3d3" stroke="#000000" points="395.7132,-177.9361 358.7132,-177.9361 358.7132,-159.9361 395.7132,-159.9361 395.7132,-177.9361"/>
<text text-anchor="middle" x="377.2132" y="-166.7361" font-family="Times,serif" font-size="9.00" fill="#000000">A_lm</text>
</g>
<!-- forward -->
<g id="node20" class="node">
<title>forward</title>
<ellipse fill="#add8e6" stroke="#000000" cx="465.2132" cy="-55.8614" rx="31.6406" ry="31.6406"/>
<text text-anchor="middle" x="465.2132" y="-53.6614" font-family="Times,serif" font-size="9.00" fill="#000000">forward</text>
</g>
<!-- A_lm&#45;&gt;forward -->
<g id="edge35" class="edge">
<title>A_lm&#45;&gt;forward</title>
<path fill="none" stroke="#ff0000" stroke-width=".2469" stroke-dasharray="1,5" d="M384.4146,-159.6827C396.2899,-144.4237 420.5413,-113.2622 439.3916,-89.0406"/>
<polygon fill="#ff0000" stroke="#ff0000" stroke-width=".2469" points="442.1719,-91.1668 445.5516,-81.1254 436.6477,-86.8676 442.1719,-91.1668"/>
</g>
<!-- A_lm&#45;&gt;no_turn -->
<g id="edge55" class="edge">
<title>A_lm&#45;&gt;no_turn</title>
<path fill="none" stroke="#00ff00" stroke-width=".1892" d="M395.9614,-162.9164C409.3823,-158.6277 427.8898,-152.7552 444.2132,-147.7229 497.4236,-131.3187 516.5209,-140.4612 564.2132,-111.7229 574.6719,-105.4207 584.5551,-96.6748 592.9817,-87.972"/>
<polygon fill="#00ff00" stroke="#00ff00" stroke-width=".1892" points="595.7674,-90.1148 599.9898,-80.3977 590.6293,-85.3608 595.7674,-90.1148"/>
</g>
<!-- counterclockwise -->
<g id="node23" class="node">
<title>counterclockwise</title>
<ellipse fill="#add8e6" stroke="#000000" cx="817.2132" cy="-55.8614" rx="55.7232" ry="55.7232"/>
<text text-anchor="middle" x="817.2132" y="-53.6614" font-family="Times,serif" font-size="9.00" fill="#000000">counterclockwise</text>
</g>
<!-- A_lm&#45;&gt;counterclockwise -->
<g id="edge18" class="edge">
<title>A_lm&#45;&gt;counterclockwise</title>
<path fill="none" stroke="#ff0000" stroke-width=".4798" d="M395.7868,-162.2795C409.1253,-157.6906 427.6063,-151.7212 444.2132,-147.7229 538.4074,-125.0444 565.4085,-135.9621 659.2132,-111.7229 691.6078,-103.3521 726.7819,-91.2292 755.7011,-80.4145"/>
<polygon fill="#ff0000" stroke="#ff0000" stroke-width=".4798" points="757.1383,-83.613 765.2557,-76.8043 754.664,-77.0649 757.1383,-83.613"/>
</g>
<!-- clockwise -->
<g id="node24" class="node">
<title>clockwise</title>
<ellipse fill="#add8e6" stroke="#000000" cx="256.2132" cy="-55.8614" rx="36.5405" ry="36.5405"/>
<text text-anchor="middle" x="256.2132" y="-53.6614" font-family="Times,serif" font-size="9.00" fill="#000000">clockwise</text>
</g>
<!-- A_lm&#45;&gt;clockwise -->
<g id="edge20" class="edge">
<title>A_lm&#45;&gt;clockwise</title>
<path fill="none" stroke="#ff0000" stroke-width=".1041" d="M365.1077,-159.7575C344.2485,-143.9341 303.6137,-113.0722 302.2132,-111.7229 296.3608,-106.0843 290.5289,-99.7285 285.0809,-93.3781"/>
<polygon fill="#ff0000" stroke="#ff0000" stroke-width=".1041" points="287.5084,-90.8245 278.4126,-85.3913 282.135,-95.3108 287.5084,-90.8245"/>
</g>
<!-- B_agent -->
<g id="node3" class="node">
<title>B_agent</title>
<polygon fill="#d3d3d3" stroke="#000000" points="1055.2132,-177.9361 1009.2132,-177.9361 1009.2132,-159.9361 1055.2132,-159.9361 1055.2132,-177.9361"/>
<text text-anchor="middle" x="1032.2132" y="-166.7361" font-family="Times,serif" font-size="9.00" fill="#000000">B_agent</text>
</g>
<!-- B_agent&#45;&gt;no_move -->
<g id="edge45" class="edge">
<title>B_agent&#45;&gt;no_move</title>
<path fill="none" stroke="#00ff00" stroke-width=".5758" stroke-dasharray="1,5" d="M1021.7129,-159.9306C1015.8012,-155.4127 1008.0485,-150.3534 1000.2132,-147.7229 757.052,-66.0856 665.8614,-197.7355 424.2132,-111.7229 408.5091,-106.1331 393.1629,-96.3767 380.2949,-86.5656"/>
<polygon fill="#00ff00" stroke="#00ff00" stroke-width=".5758" points="382.226,-83.6299 372.2177,-80.1536 377.8738,-89.1124 382.226,-83.6299"/>
</g>
<!-- right -->
<g id="node18" class="node">
<title>right</title>
<ellipse fill="#add8e6" stroke="#000000" cx="914.2132" cy="-55.8614" rx="23.1702" ry="23.1702"/>
<text text-anchor="middle" x="914.2132" y="-53.6614" font-family="Times,serif" font-size="9.00" fill="#000000">right</text>
</g>
<!-- B_agent&#45;&gt;right -->
<g id="edge3" class="edge">
<title>B_agent&#45;&gt;right</title>
<path fill="none" stroke="#ff0000" stroke-width=".7255" d="M1022.5568,-159.6827C1004.3213,-142.2084 964.3223,-103.8789 938.3596,-78.9999"/>
<polygon fill="#ff0000" stroke="#ff0000" stroke-width=".7255" points="940.7576,-76.4503 931.1158,-72.0585 935.9144,-81.5044 940.7576,-76.4503"/>
</g>
<!-- B_agent&#45;&gt;backward -->
<g id="edge12" class="edge">
<title>B_agent&#45;&gt;backward</title>
<path fill="none" stroke="#00ff00" stroke-width=".4626" d="M1039.4964,-159.6827C1050.9345,-145.1506 1073.7253,-116.195 1092.3384,-92.5469"/>
<polygon fill="#00ff00" stroke="#00ff00" stroke-width=".4626" points="1095.2877,-94.4587 1098.7224,-84.436 1089.7872,-90.1292 1095.2877,-94.4587"/>
</g>
<!-- B_agent&#45;&gt;counterclockwise -->
<g id="edge47" class="edge">
<title>B_agent&#45;&gt;counterclockwise</title>
<path fill="none" stroke="#00ff00" stroke-width=".3246" stroke-dasharray="1,5" d="M1020.244,-159.8019C1014.432,-155.6863 1007.2061,-151.0215 1000.2132,-147.7229 950.6226,-124.3307 930.2521,-138.1555 882.2132,-111.7229 876.6524,-108.6631 871.14,-105.0721 865.8144,-101.2118"/>
<polygon fill="#00ff00" stroke="#00ff00" stroke-width=".3246" points="867.6931,-98.2428 857.6191,-94.9616 863.4481,-103.8088 867.6931,-98.2428"/>
</g>
<!-- B_lm -->
<g id="node4" class="node">
<title>B_lm</title>
<polygon fill="#d3d3d3" stroke="#000000" points="786.7132,-177.9361 749.7132,-177.9361 749.7132,-159.9361 786.7132,-159.9361 786.7132,-177.9361"/>
<text text-anchor="middle" x="768.2132" y="-166.7361" font-family="Times,serif" font-size="9.00" fill="#000000">B_lm</text>
</g>
<!-- B_lm&#45;&gt;right -->
<g id="edge30" class="edge">
<title>B_lm&#45;&gt;right</title>
<path fill="none" stroke="#00ff00" stroke-width=".11" d="M778.9395,-159.7983C783.9765,-155.778 790.188,-151.1919 796.2132,-147.7229 832.1226,-127.048 851.1576,-139.1543 882.2132,-111.7229 889.9225,-104.9133 896.2244,-95.7803 901.1346,-86.8745"/>
<polygon fill="#00ff00" stroke="#00ff00" stroke-width=".11" points="904.344,-88.2843 905.7484,-77.7829 898.1018,-85.1165 904.344,-88.2843"/>
</g>
<!-- left -->
<g id="node19" class="node">
<title>left</title>
<ellipse fill="#add8e6" stroke="#000000" cx="535.2132" cy="-55.8614" rx="19.6" ry="19.6"/>
<text text-anchor="middle" x="535.2132" y="-53.6614" font-family="Times,serif" font-size="9.00" fill="#000000">left</text>
</g>
<!-- B_lm&#45;&gt;left -->
<g id="edge44" class="edge">
<title>B_lm&#45;&gt;left</title>
<path fill="none" stroke="#ff0000" stroke-width=".2601" d="M749.4783,-162.7699C736.2895,-158.4646 718.2061,-152.6325 702.2132,-147.7229 647.7613,-131.0067 626.4108,-143.6106 579.2132,-111.7229 567.8649,-104.0557 558.0893,-92.5433 550.6545,-81.9582"/>
<polygon fill="#ff0000" stroke="#ff0000" stroke-width=".2601" points="553.418,-79.7923 544.9767,-73.3896 547.5828,-83.6589 553.418,-79.7923"/>
</g>
<!-- B_lm&#45;&gt;forward -->
<g id="edge42" class="edge">
<title>B_lm&#45;&gt;forward</title>
<path fill="none" stroke="#ff0000" stroke-width=".277" stroke-dasharray="1,5" d="M749.6235,-162.2495C736.5013,-157.7055 718.4378,-151.8021 702.2132,-147.7229 616.3181,-126.127 581.2699,-158.7425 506.2132,-111.7229 498.5193,-106.903 491.7986,-100.0702 486.1459,-92.8301"/>
<polygon fill="#ff0000" stroke="#ff0000" stroke-width=".277" points="488.6686,-90.3406 480.0063,-84.2401 482.9736,-94.4109 488.6686,-90.3406"/>
</g>
<!-- B_lm&#45;&gt;no_turn -->
<g id="edge62" class="edge">
<title>B_lm&#45;&gt;no_turn</title>
<path fill="none" stroke="#00ff00" stroke-width=".4826" d="M756.2718,-159.8738C733.9265,-142.9162 685.0826,-105.8491 652.1587,-80.8635"/>
<polygon fill="#00ff00" stroke="#00ff00" stroke-width=".4826" points="654.2388,-78.0483 644.157,-74.7911 650.0071,-83.6244 654.2388,-78.0483"/>
</g>
<!-- B_lm&#45;&gt;counterclockwise -->
<g id="edge11" class="edge">
<title>B_lm&#45;&gt;counterclockwise</title>
<path fill="none" stroke="#ff0000" stroke-width=".1961" d="M772.2231,-159.6827C776.4659,-149.8919 783.5458,-133.5539 790.848,-116.7031"/>
<polygon fill="#ff0000" stroke="#ff0000" stroke-width=".1961" points="794.1462,-117.8942 794.911,-107.327 787.7234,-115.1109 794.1462,-117.8942"/>
</g>
<!-- C_agent -->
<g id="node5" class="node">
<title>C_agent</title>
<polygon fill="#d3d3d3" stroke="#000000" points="340.2132,-177.9361 294.2132,-177.9361 294.2132,-159.9361 340.2132,-159.9361 340.2132,-177.9361"/>
<text text-anchor="middle" x="317.2132" y="-166.7361" font-family="Times,serif" font-size="9.00" fill="#000000">C_agent</text>
</g>
<!-- C_agent&#45;&gt;no_move -->
<g id="edge17" class="edge">
<title>C_agent&#45;&gt;no_move</title>
<path fill="none" stroke="#ff0000" stroke-width=".261" stroke-dasharray="1,5" d="M319.5864,-159.6827C322.9297,-146.6468 329.2496,-122.0046 334.8934,-99.9986"/>
<polygon fill="#ff0000" stroke="#ff0000" stroke-width=".261" points="338.3318,-100.6804 337.4259,-90.1244 331.5512,-98.9414 338.3318,-100.6804"/>
</g>
<!-- C_agent&#45;&gt;left -->
<g id="edge23" class="edge">
<title>C_agent&#45;&gt;left</title>
<path fill="none" stroke="#ff0000" stroke-width=".5501" stroke-dasharray="1,5" d="M329.1872,-159.8113C335.2181,-155.5965 342.8079,-150.8455 350.2132,-147.7229 415.7779,-120.0754 449.9737,-155.3144 506.2132,-111.7229 515.1142,-104.8236 521.5486,-94.4256 526.0598,-84.4642"/>
<polygon fill="#ff0000" stroke="#ff0000" stroke-width=".5501" points="529.3116,-85.7587 529.8133,-75.1758 522.8215,-83.136 529.3116,-85.7587"/>
</g>
<!-- C_agent&#45;&gt;forward -->
<g id="edge51" class="edge">
<title>C_agent&#45;&gt;forward</title>
<path fill="none" stroke="#ff0000" stroke-width=".1729" stroke-dasharray="1,5" d="M329.0745,-159.8738C351.1434,-143.0128 399.2338,-106.2709 431.9283,-81.2917"/>
<polygon fill="#ff0000" stroke="#ff0000" stroke-width=".1729" points="434.0621,-84.0661 439.8835,-75.2138 429.8124,-78.5037 434.0621,-84.0661"/>
</g>
<!-- C_agent&#45;&gt;no_turn -->
<g id="edge4" class="edge">
<title>C_agent&#45;&gt;no_turn</title>
<path fill="none" stroke="#ff0000" stroke-width=".1161" d="M328.804,-159.8322C334.863,-155.516 342.5904,-150.6706 350.2132,-147.7229 440.1691,-112.9369 478.661,-156.2531 564.2132,-111.7229 575.2482,-105.9791 585.4149,-97.2153 593.9264,-88.3204"/>
<polygon fill="#ff0000" stroke="#ff0000" stroke-width=".1161" points="596.5468,-90.6411 600.6696,-80.8813 591.3604,-85.9398 596.5468,-90.6411"/>
</g>
<!-- C_agent&#45;&gt;clockwise -->
<g id="edge13" class="edge">
<title>C_agent&#45;&gt;clockwise</title>
<path fill="none" stroke="#00ff00" stroke-width=".7239" stroke-dasharray="1,5" d="M312.2213,-159.6827C304.8863,-146.086 290.7398,-119.8628 278.5,-97.1742"/>
<polygon fill="#00ff00" stroke="#00ff00" stroke-width=".7239" points="281.5753,-95.5028 273.747,-88.3635 275.4145,-98.8263 281.5753,-95.5028"/>
</g>
<!-- C_lm -->
<g id="node6" class="node">
<title>C_lm</title>
<polygon fill="#d3d3d3" stroke="#000000" points="1110.7132,-177.9361 1073.7132,-177.9361 1073.7132,-159.9361 1110.7132,-159.9361 1110.7132,-177.9361"/>
<text text-anchor="middle" x="1092.2132" y="-166.7361" font-family="Times,serif" font-size="9.00" fill="#000000">C_lm</text>
</g>
<!-- C_lm&#45;&gt;right -->
<g id="edge41" class="edge">
<title>C_lm&#45;&gt;right</title>
<path fill="none" stroke="#ff0000" stroke-width=".1359" d="M1080.6861,-159.7972C1075.7029,-155.9533 1069.7541,-151.5048 1064.2132,-147.7229 1023.2986,-119.7962 974.0064,-90.3765 943.3824,-72.5694"/>
<polygon fill="#ff0000" stroke="#ff0000" stroke-width=".1359" points="944.9154,-69.4127 934.5077,-67.4304 941.4076,-75.4704 944.9154,-69.4127"/>
</g>
<!-- C_lm&#45;&gt;left -->
<g id="edge14" class="edge">
<title>C_lm&#45;&gt;left</title>
<path fill="none" stroke="#00ff00" stroke-width=".2614" stroke-dasharray="1,5" d="M1082.9506,-159.7456C1077.8588,-155.2935 1071.1734,-150.3524 1064.2132,-147.7229 963.1135,-109.5273 674.6288,-162.4764 579.2132,-111.7229 566.8289,-105.1354 556.77,-93.3908 549.412,-82.3649"/>
<polygon fill="#00ff00" stroke="#00ff00" stroke-width=".2614" points="552.34,-80.4451 544.0973,-73.7885 546.3898,-84.1324 552.34,-80.4451"/>
</g>
<!-- C_lm&#45;&gt;backward -->
<g id="edge60" class="edge">
<title>C_lm&#45;&gt;backward</title>
<path fill="none" stroke="#ff0000" stroke-width=".6192" d="M1094.5864,-159.6827C1097.8945,-146.784 1104.1169,-122.5221 1109.715,-100.6944"/>
<polygon fill="#ff0000" stroke="#ff0000" stroke-width=".6192" points="1113.1364,-101.4423 1112.2305,-90.8863 1106.3558,-99.7033 1113.1364,-101.4423"/>
</g>
<!-- C_lm&#45;&gt;counterclockwise -->
<g id="edge58" class="edge">
<title>C_lm&#45;&gt;counterclockwise</title>
<path fill="none" stroke="#ff0000" stroke-width=".1555" stroke-dasharray="1,5" d="M1082.5556,-159.8733C1077.4598,-155.5676 1070.8901,-150.7192 1064.2132,-147.7229 988.9847,-113.9636 956.3669,-147.7818 882.2132,-111.7229 876.4174,-108.9045 870.7222,-105.4408 865.2594,-101.6308"/>
<polygon fill="#ff0000" stroke="#ff0000" stroke-width=".1555" points="866.9978,-98.5618 856.8852,-95.4016 862.8198,-104.1783 866.9978,-98.5618"/>
</g>
<!-- D_agent -->
<g id="node7" class="node">
<title>D_agent</title>
<polygon fill="#d3d3d3" stroke="#000000" points="275.7132,-177.9361 228.7132,-177.9361 228.7132,-159.9361 275.7132,-159.9361 275.7132,-177.9361"/>
<text text-anchor="middle" x="252.2132" y="-166.7361" font-family="Times,serif" font-size="9.00" fill="#000000">D_agent</text>
</g>
<!-- D_agent&#45;&gt;no_move -->
<g id="edge56" class="edge">
<title>D_agent&#45;&gt;no_move</title>
<path fill="none" stroke="#ff0000" stroke-width=".5569" stroke-dasharray="1,5" d="M260.5015,-159.7465C270.5422,-148.5472 287.892,-128.9798 302.2132,-111.7229 307.424,-105.4439 312.877,-98.6836 318.0999,-92.1091"/>
<polygon fill="#ff0000" stroke="#ff0000" stroke-width=".5569" points="321.1071,-93.9484 324.5568,-83.9309 315.613,-89.6107 321.1071,-93.9484"/>
</g>
<!-- D_agent&#45;&gt;left -->
<g id="edge21" class="edge">
<title>D_agent&#45;&gt;left</title>
<path fill="none" stroke="#00ff00" stroke-width=".6071" stroke-dasharray="1,5" d="M263.7975,-159.8155C269.8549,-155.495 277.5828,-150.6508 285.2132,-147.7229 378.1246,-112.0707 425.6087,-170.0883 506.2132,-111.7229 515.4019,-105.0694 521.9072,-94.625 526.3945,-84.5589"/>
<polygon fill="#00ff00" stroke="#00ff00" stroke-width=".6071" points="529.6884,-85.7466 530.1,-75.1598 523.1762,-83.1792 529.6884,-85.7466"/>
</g>
<!-- D_agent&#45;&gt;forward -->
<g id="edge53" class="edge">
<title>D_agent&#45;&gt;forward</title>
<path fill="none" stroke="#ff0000" stroke-width=".7523" d="M264.6464,-159.9307C270.6597,-155.8433 278.102,-151.165 285.2132,-147.7229 329.618,-126.2288 346.5747,-134.7328 390.2132,-111.7229 405.175,-103.8338 420.38,-93.1144 433.1525,-83.1749"/>
<polygon fill="#ff0000" stroke="#ff0000" stroke-width=".7523" points="435.5245,-85.7603 441.1676,-76.7934 431.1643,-80.284 435.5245,-85.7603"/>
</g>
<!-- D_lm -->
<g id="node8" class="node">
<title>D_lm</title>
<polygon fill="#d3d3d3" stroke="#000000" points="489.7132,-177.9361 452.7132,-177.9361 452.7132,-159.9361 489.7132,-159.9361 489.7132,-177.9361"/>
<text text-anchor="middle" x="471.2132" y="-166.7361" font-family="Times,serif" font-size="9.00" fill="#000000">D_lm</text>
</g>
<!-- D_lm&#45;&gt;no_move -->
<g id="edge59" class="edge">
<title>D_lm&#45;&gt;no_move</title>
<path fill="none" stroke="#ff0000" stroke-width=".5603" d="M460.9839,-159.6827C443.5772,-143.9366 407.4506,-111.2566 380.3518,-86.7431"/>
<polygon fill="#ff0000" stroke="#ff0000" stroke-width=".5603" points="382.3814,-83.8595 372.6174,-79.7466 377.6855,-89.0507 382.3814,-83.8595"/>
</g>
<!-- D_lm&#45;&gt;forward -->
<g id="edge37" class="edge">
<title>D_lm&#45;&gt;forward</title>
<path fill="none" stroke="#00ff00" stroke-width=".7424" d="M470.7222,-159.6827C470.0086,-146.2352 468.6397,-120.4367 467.445,-97.9222"/>
<polygon fill="#00ff00" stroke="#00ff00" stroke-width=".7424" points="470.9364,-97.6654 466.9114,-87.8649 463.9463,-98.0364 470.9364,-97.6654"/>
</g>
<!-- D_lm&#45;&gt;no_turn -->
<g id="edge49" class="edge">
<title>D_lm&#45;&gt;no_turn</title>
<path fill="none" stroke="#00ff00" stroke-width=".4226" stroke-dasharray="1,5" d="M482.3908,-159.8884C487.4139,-155.9756 493.4888,-151.4494 499.2132,-147.7229 526.8892,-129.706 537.9131,-131.6947 564.2132,-111.7229 573.8539,-104.4019 583.4349,-95.4247 591.8337,-86.826"/>
<polygon fill="#00ff00" stroke="#00ff00" stroke-width=".4226" points="594.5246,-89.0755 598.8821,-79.4182 589.4533,-84.2503 594.5246,-89.0755"/>
</g>
<!-- D_lm&#45;&gt;counterclockwise -->
<g id="edge32" class="edge">
<title>D_lm&#45;&gt;counterclockwise</title>
<path fill="none" stroke="#ff0000" stroke-width=".3199" d="M481.1607,-159.7319C486.2276,-155.4983 492.6865,-150.7544 499.2132,-147.7229 565.319,-117.0176 589.1745,-131.9065 659.2132,-111.7229 691.3635,-102.4579 726.5128,-90.2442 755.4788,-79.6007"/>
<polygon fill="#ff0000" stroke="#ff0000" stroke-width=".3199" points="756.8882,-82.8112 765.0517,-76.0579 754.4586,-76.2463 756.8882,-82.8112"/>
</g>
<!-- E_agent -->
<g id="node9" class="node">
<title>E_agent</title>
<polygon fill="#d3d3d3" stroke="#000000" points="693.2132,-177.9361 647.2132,-177.9361 647.2132,-159.9361 693.2132,-159.9361 693.2132,-177.9361"/>
<text text-anchor="middle" x="670.2132" y="-166.7361" font-family="Times,serif" font-size="9.00" fill="#000000">E_agent</text>
</g>
<!-- E_agent&#45;&gt;right -->
<g id="edge36" class="edge">
<title>E_agent&#45;&gt;right</title>
<path fill="none" stroke="#00ff00" stroke-width=".1661" d="M693.4886,-161.7239C707.3161,-157.5038 725.2195,-152.1519 741.2132,-147.7229 803.5443,-130.4617 830.7359,-150.8789 882.2132,-111.7229 890.466,-105.4454 896.9399,-96.3814 901.8403,-87.375"/>
<polygon fill="#00ff00" stroke="#00ff00" stroke-width=".1661" points="905.1146,-88.6478 906.386,-78.1295 898.8328,-85.5592 905.1146,-88.6478"/>
</g>
<!-- E_agent&#45;&gt;forward -->
<g id="edge5" class="edge">
<title>E_agent&#45;&gt;forward</title>
<path fill="none" stroke="#00ff00" stroke-width=".2587" d="M646.9731,-165.3348C613.2068,-159.1681 549.8586,-143.9921 506.2132,-111.7229 498.9825,-106.3768 492.4787,-99.3901 486.8939,-92.1766"/>
<polygon fill="#00ff00" stroke="#00ff00" stroke-width=".2587" points="489.4603,-89.7516 480.7715,-83.6891 483.7832,-93.8468 489.4603,-89.7516"/>
</g>
<!-- E_agent&#45;&gt;no_turn -->
<g id="edge16" class="edge">
<title>E_agent&#45;&gt;no_turn</title>
<path fill="none" stroke="#00ff00" stroke-width=".265" d="M666.0397,-159.6827C659.5997,-145.4044 646.8797,-117.2021 636.3205,-93.7909"/>
<polygon fill="#00ff00" stroke="#00ff00" stroke-width=".265" points="639.4032,-92.1127 632.1012,-84.436 633.0222,-94.9908 639.4032,-92.1127"/>
</g>
<!-- E_agent&#45;&gt;counterclockwise -->
<g id="edge50" class="edge">
<title>E_agent&#45;&gt;counterclockwise</title>
<path fill="none" stroke="#ff0000" stroke-width=".6891" d="M681.9943,-159.8738C699.805,-146.1736 734.6796,-119.3476 764.5495,-96.3712"/>
<polygon fill="#ff0000" stroke="#ff0000" stroke-width=".6891" points="767.0309,-98.8781 772.8233,-90.0068 762.763,-93.3297 767.0309,-98.8781"/>
</g>
<!-- E_agent&#45;&gt;clockwise -->
<g id="edge2" class="edge">
<title>E_agent&#45;&gt;clockwise</title>
<path fill="none" stroke="#00ff00" stroke-width=".4303" d="M647.1077,-164.0059C625.2867,-159.4429 591.6135,-152.6416 562.2132,-147.7229 447.1544,-128.4731 404.0402,-168.647 302.2132,-111.7229 294.7255,-107.537 287.9596,-101.6101 282.0631,-95.1685"/>
<polygon fill="#00ff00" stroke="#00ff00" stroke-width=".4303" points="284.6716,-92.8325 275.5494,-87.4439 279.3202,-97.345 284.6716,-92.8325"/>
</g>
<!-- E_lm -->
<g id="node10" class="node">
<title>E_lm</title>
<polygon fill="#d3d3d3" stroke="#000000" points="172.2132,-177.9361 136.2132,-177.9361 136.2132,-159.9361 172.2132,-159.9361 172.2132,-177.9361"/>
<text text-anchor="middle" x="154.2132" y="-166.7361" font-family="Times,serif" font-size="9.00" fill="#000000">E_lm</text>
</g>
<!-- E_lm&#45;&gt;no_move -->
<g id="edge28" class="edge">
<title>E_lm&#45;&gt;no_move</title>
<path fill="none" stroke="#ff0000" stroke-width="1.1365" d="M166.1896,-159.8169C172.0031,-155.7046 179.2282,-151.0383 186.2132,-147.7229 234.9799,-124.5759 257.7299,-142.3041 302.2132,-111.7229 309.2327,-106.8971 315.6647,-100.6146 321.316,-94.0111"/>
<polygon fill="#ff0000" stroke="#ff0000" stroke-width="1.1365" points="324.0668,-96.1754 327.5799,-86.1799 318.6003,-91.8029 324.0668,-96.1754"/>
</g>
<!-- E_lm&#45;&gt;counterclockwise -->
<g id="edge63" class="edge">
<title>E_lm&#45;&gt;counterclockwise</title>
<path fill="none" stroke="#00ff00" stroke-width=".4943" stroke-dasharray="1,5" d="M172.3978,-161.7328C185.2645,-156.9517 203.0374,-150.9774 219.2132,-147.7229 411.5675,-109.0215 467.3449,-152.7659 659.2132,-111.7229 691.9317,-104.724 727.1386,-92.7405 755.9959,-81.663"/>
<polygon fill="#00ff00" stroke="#00ff00" stroke-width=".4943" points="757.4791,-84.8415 765.526,-77.9496 754.9376,-78.3191 757.4791,-84.8415"/>
</g>
<!-- E_lm&#45;&gt;clockwise -->
<g id="edge48" class="edge">
<title>E_lm&#45;&gt;clockwise</title>
<path fill="none" stroke="#00ff00" stroke-width=".347" d="M162.5603,-159.6827C175.9553,-144.8333 202.9356,-114.9236 224.511,-91.0057"/>
<polygon fill="#00ff00" stroke="#00ff00" stroke-width=".347" points="227.2027,-93.2471 231.302,-83.4774 222.005,-88.5584 227.2027,-93.2471"/>
</g>
<!-- F_agent -->
<g id="node11" class="node">
<title>F_agent</title>
<polygon fill="#d3d3d3" stroke="#000000" points="552.7132,-177.9361 507.7132,-177.9361 507.7132,-159.9361 552.7132,-159.9361 552.7132,-177.9361"/>
<text text-anchor="middle" x="530.2132" y="-166.7361" font-family="Times,serif" font-size="9.00" fill="#000000">F_agent</text>
</g>
<!-- F_agent&#45;&gt;no_move -->
<g id="edge43" class="edge">
<title>F_agent&#45;&gt;no_move</title>
<path fill="none" stroke="#00ff00" stroke-width=".5442" d="M517.8256,-159.8189C512.262,-155.8932 505.5378,-151.3762 499.2132,-147.7229 467.1964,-129.2287 456.0304,-130.5583 424.2132,-111.7229 410.1041,-103.3704 395.3127,-93.1819 382.4498,-83.8043"/>
<polygon fill="#00ff00" stroke="#00ff00" stroke-width=".5442" points="384.4253,-80.9122 374.3021,-77.7863 380.2665,-86.5429 384.4253,-80.9122"/>
</g>
<!-- F_agent&#45;&gt;right -->
<g id="edge27" class="edge">
<title>F_agent&#45;&gt;right</title>
<path fill="none" stroke="#ff0000" stroke-width=".1615" d="M552.9105,-164.1524C574.7251,-159.632 608.6468,-152.8047 638.2132,-147.7229 746.2474,-129.1539 791.6505,-173.4853 882.2132,-111.7229 890.9391,-105.7719 897.5833,-96.6025 902.4937,-87.4016"/>
<polygon fill="#ff0000" stroke="#ff0000" stroke-width=".1615" points="905.6853,-88.8402 906.839,-78.3084 899.3694,-85.8221 905.6853,-88.8402"/>
</g>
<!-- F_agent&#45;&gt;left -->
<g id="edge26" class="edge">
<title>F_agent&#45;&gt;left</title>
<path fill="none" stroke="#00ff00" stroke-width=".2286" d="M530.6224,-159.6827C531.3253,-143.7854 532.7915,-110.6273 533.8788,-86.0391"/>
<polygon fill="#00ff00" stroke="#00ff00" stroke-width=".2286" points="537.3876,-85.9149 534.3329,-75.77 530.3944,-85.6056 537.3876,-85.9149"/>
</g>
<!-- F_agent&#45;&gt;forward -->
<g id="edge61" class="edge">
<title>F_agent&#45;&gt;forward</title>
<path fill="none" stroke="#00ff00" stroke-width=".4677" d="M524.894,-159.6827C516.5057,-145.0904 499.7575,-115.955 486.1329,-92.2535"/>
<polygon fill="#00ff00" stroke="#00ff00" stroke-width=".4677" points="489.1061,-90.4028 481.088,-83.4774 483.0373,-93.8914 489.1061,-90.4028"/>
</g>
<!-- F_agent&#45;&gt;no_turn -->
<g id="edge7" class="edge">
<title>F_agent&#45;&gt;no_turn</title>
<path fill="none" stroke="#00ff00" stroke-width=".2133" d="M537.4964,-159.6827C549.5813,-144.3289 574.3388,-112.8744 593.4528,-88.5901"/>
<polygon fill="#00ff00" stroke="#00ff00" stroke-width=".2133" points="596.2574,-90.6857 599.6921,-80.663 590.7569,-86.3563 596.2574,-90.6857"/>
</g>
<!-- F_agent&#45;&gt;counterclockwise -->
<g id="edge52" class="edge">
<title>F_agent&#45;&gt;counterclockwise</title>
<path fill="none" stroke="#00ff00" stroke-width=".7378" d="M552.7336,-160.0633C595.9714,-143.0281 691.9612,-105.2093 755.6199,-80.1285"/>
<polygon fill="#00ff00" stroke="#00ff00" stroke-width=".7378" points="757.1356,-83.2932 765.1565,-76.3712 754.5696,-76.7805 757.1356,-83.2932"/>
</g>
<!-- F_lm -->
<g id="node12" class="node">
<title>F_lm</title>
<polygon fill="#d3d3d3" stroke="#000000" points="991.2132,-177.9361 955.2132,-177.9361 955.2132,-159.9361 991.2132,-159.9361 991.2132,-177.9361"/>
<text text-anchor="middle" x="973.2132" y="-166.7361" font-family="Times,serif" font-size="9.00" fill="#000000">F_lm</text>
</g>
<!-- F_lm&#45;&gt;right -->
<g id="edge25" class="edge">
<title>F_lm&#45;&gt;right</title>
<path fill="none" stroke="#00ff00" stroke-width=".712" d="M968.385,-159.6827C960.0389,-143.6873 942.5751,-110.2175 929.7224,-85.585"/>
<polygon fill="#00ff00" stroke="#00ff00" stroke-width=".712" points="932.7798,-83.8785 925.0508,-76.6319 926.5738,-87.1167 932.7798,-83.8785"/>
</g>
<!-- F_lm&#45;&gt;backward -->
<g id="edge10" class="edge">
<title>F_lm&#45;&gt;backward</title>
<path fill="none" stroke="#ff0000" stroke-width=".4139" d="M984.7425,-159.8097C989.5163,-156.0486 995.1179,-151.6582 1000.2132,-147.7229 1028.2218,-126.0906 1060.1109,-101.8986 1084.1182,-83.7731"/>
<polygon fill="#ff0000" stroke="#ff0000" stroke-width=".4139" points="1086.3869,-86.4458 1092.2618,-77.629 1082.1709,-80.8578 1086.3869,-86.4458"/>
</g>
<!-- F_lm&#45;&gt;counterclockwise -->
<g id="edge40" class="edge">
<title>F_lm&#45;&gt;counterclockwise</title>
<path fill="none" stroke="#ff0000" stroke-width=".1151" stroke-dasharray="1,5" d="M962.4642,-159.8726C957.626,-155.9569 951.7641,-151.4328 946.2132,-147.7229 919.0798,-129.5883 908.9413,-130.4498 882.2132,-111.7229 877.0151,-108.0808 871.7446,-104.1016 866.5701,-99.9986"/>
<polygon fill="#ff0000" stroke="#ff0000" stroke-width=".1151" points="868.5115,-97.0664 858.5421,-93.4798 864.0989,-102.5005 868.5115,-97.0664"/>
</g>
<!-- F_lm&#45;&gt;clockwise -->
<g id="edge64" class="edge">
<title>F_lm&#45;&gt;clockwise</title>
<path fill="none" stroke="#ff0000" stroke-width=".3019" stroke-dasharray="1,5" d="M964.5966,-159.9143C959.6798,-155.3916 953.1289,-150.333 946.2132,-147.7229 812.112,-97.11 430.0786,-176.4934 302.2132,-111.7229 294.4802,-107.8057 287.574,-101.9419 281.6107,-95.4655"/>
<polygon fill="#ff0000" stroke="#ff0000" stroke-width=".3019" points="284.1642,-93.0639 275.0503,-87.6612 278.8058,-97.5682 284.1642,-93.0639"/>
</g>
<!-- G_agent -->
<g id="node13" class="node">
<title>G_agent</title>
<polygon fill="#d3d3d3" stroke="#000000" points="936.7132,-177.9361 889.7132,-177.9361 889.7132,-159.9361 936.7132,-159.9361 936.7132,-177.9361"/>
<text text-anchor="middle" x="913.2132" y="-166.7361" font-family="Times,serif" font-size="9.00" fill="#000000">G_agent</text>
</g>
<!-- G_agent&#45;&gt;no_move -->
<g id="edge19" class="edge">
<title>G_agent&#45;&gt;no_move</title>
<path fill="none" stroke="#00ff00" stroke-width=".3267" d="M889.5236,-160.5328C875.8624,-156.023 858.2632,-150.7784 842.2132,-147.7229 659.0375,-112.8508 599.1357,-176.31 424.2132,-111.7229 408.5758,-105.949 393.2442,-96.1524 380.3691,-86.3607"/>
<polygon fill="#00ff00" stroke="#00ff00" stroke-width=".3267" points="382.2998,-83.4254 372.2846,-79.9692 377.9585,-88.9166 382.2998,-83.4254"/>
</g>
<!-- G_agent&#45;&gt;right -->
<g id="edge22" class="edge">
<title>G_agent&#45;&gt;right</title>
<path fill="none" stroke="#00ff00" stroke-width=".4525" d="M913.295,-159.6827C913.4291,-144.5205 913.7021,-113.657 913.9157,-89.5026"/>
<polygon fill="#00ff00" stroke="#00ff00" stroke-width=".4525" points="917.4173,-89.3233 914.006,-79.2927 910.4176,-89.2613 917.4173,-89.3233"/>
</g>
<!-- G_agent&#45;&gt;backward -->
<g id="edge33" class="edge">
<title>G_agent&#45;&gt;backward</title>
<path fill="none" stroke="#00ff00" stroke-width=".1352" d="M926.8536,-159.7858C932.7359,-155.9399 939.7392,-151.4931 946.2132,-147.7229 990.989,-121.6471 1043.8312,-94.3713 1079.6443,-76.384"/>
<polygon fill="#00ff00" stroke="#00ff00" stroke-width=".1352" points="1081.4434,-79.3975 1088.8194,-71.7919 1078.3103,-73.1378 1081.4434,-79.3975"/>
</g>
<!-- G_agent&#45;&gt;no_turn -->
<g id="edge15" class="edge">
<title>G_agent&#45;&gt;no_turn</title>
<path fill="none" stroke="#00ff00" stroke-width=".1705" d="M889.597,-161.0086C858.0813,-150.3237 800.6205,-130.4727 752.2132,-111.7229 719.8703,-99.1953 683.597,-83.8735 657.1115,-72.4472"/>
<polygon fill="#00ff00" stroke="#00ff00" stroke-width=".1705" points="658.3895,-69.1866 647.822,-68.4261 655.6088,-75.6106 658.3895,-69.1866"/>
</g>
<!-- G_agent&#45;&gt;counterclockwise -->
<g id="edge39" class="edge">
<title>G_agent&#45;&gt;counterclockwise</title>
<path fill="none" stroke="#ff0000" stroke-width=".2926" d="M905.3571,-159.6827C895.3508,-147.8966 877.2896,-126.6231 860.1103,-106.3882"/>
<polygon fill="#ff0000" stroke="#ff0000" stroke-width=".2926" points="862.7281,-104.0638 853.588,-98.7058 857.3919,-108.5942 862.7281,-104.0638"/>
</g>
<!-- G_lm -->
<g id="node14" class="node">
<title>G_lm</title>
<polygon fill="#d3d3d3" stroke="#000000" points="1255.7132,-244.1493 1218.7132,-244.1493 1218.7132,-226.1493 1255.7132,-226.1493 1255.7132,-244.1493"/>
<text text-anchor="middle" x="1237.2132" y="-232.9493" font-family="Times,serif" font-size="9.00" fill="#000000">G_lm</text>
</g>
<!-- G_lm&#45;&gt;no_move -->
<g id="edge9" class="edge">
<title>G_lm&#45;&gt;no_move</title>
<path fill="none" stroke="#ff0000" stroke-width=".3886" stroke-dasharray="1,5" d="M1218.4103,-234.4955C1080.3315,-229.6734 228.2042,-199.5465 219.2132,-190.1493 206.1776,-176.5247 208.8673,-163.4873 219.2132,-147.7229 241.2749,-114.1064 270.3604,-136.2625 302.2132,-111.7229 308.7457,-106.6902 314.8648,-100.4807 320.3415,-94.0511"/>
<polygon fill="#ff0000" stroke="#ff0000" stroke-width=".3886" points="323.3858,-95.8499 326.9179,-85.8612 317.9276,-91.4671 323.3858,-95.8499"/>
</g>
<!-- G_lm&#45;&gt;right -->
<g id="edge6" class="edge">
<title>G_lm&#45;&gt;right</title>
<path fill="none" stroke="#ff0000" stroke-width=".1081" stroke-dasharray="1,5" d="M1233.6785,-226.0551C1226.3688,-208.4066 1207.9225,-169.3517 1180.2132,-147.7229 1179.9114,-147.4873 1016.7001,-91.1978 946.1162,-66.8605"/>
<polygon fill="#ff0000" stroke="#ff0000" stroke-width=".1081" points="946.9994,-63.4629 936.4047,-63.5121 944.7176,-70.0806 946.9994,-63.4629"/>
</g>
<!-- G_lm&#45;&gt;backward -->
<g id="edge46" class="edge">
<title>G_lm&#45;&gt;backward</title>
<path fill="none" stroke="#ff0000" stroke-width=".3357" stroke-dasharray="1,5" d="M1255.797,-230.4546C1274.7921,-224.5544 1303.2843,-212.3932 1316.2132,-190.1493 1325.6887,-173.8468 1326.3135,-163.6458 1316.2132,-147.7229 1283.6253,-96.3484 1213.7871,-73.1781 1167.1519,-63.1085"/>
<polygon fill="#ff0000" stroke="#ff0000" stroke-width=".3357" points="1167.7825,-59.6651 1157.2849,-61.0975 1166.3845,-66.5241 1167.7825,-59.6651"/>
</g>
<!-- G_lm&#45;&gt;no_turn -->
<g id="edge1" class="edge">
<title>G_lm&#45;&gt;no_turn</title>
<path fill="none" stroke="#00ff00" stroke-width=".1053" d="M1218.5054,-234.2553C1133.3515,-230.0785 784.6563,-211.7756 741.2132,-190.1493 740.4367,-189.7627 682.9014,-126.256 647.1296,-86.7258"/>
<polygon fill="#00ff00" stroke="#00ff00" stroke-width=".1053" points="649.5934,-84.2322 640.2887,-79.1653 644.4027,-88.9288 649.5934,-84.2322"/>
</g>
<!-- 597 -->
<g id="node26" class="node">
<title>597</title>
<ellipse fill="#ffffff" stroke="#000000" cx="1286.2132" cy="-168.9361" rx="21.4286" ry="21.4286"/>
<text text-anchor="middle" x="1286.2132" y="-166.7361" font-family="Times,serif" font-size="9.00" fill="#000000">597</text>
</g>
<!-- G_lm&#45;&gt;597 -->
<g id="edge73" class="edge">
<title>G_lm&#45;&gt;597</title>
<path fill="none" stroke="#00ff00" stroke-width=".7373" stroke-dasharray="1,5" d="M1244.0264,-225.9426C1250.0615,-217.7875 1259.1624,-205.4895 1267.3682,-194.4012"/>
<polygon fill="#00ff00" stroke="#00ff00" stroke-width=".7373" points="1270.2678,-196.3667 1273.403,-186.2463 1264.641,-192.2026 1270.2678,-196.3667"/>
</g>
<!-- H_agent -->
<g id="node15" class="node">
<title>H_agent</title>
<polygon fill="#d3d3d3" stroke="#000000" points="447.7132,-244.1493 400.7132,-244.1493 400.7132,-226.1493 447.7132,-226.1493 447.7132,-244.1493"/>
<text text-anchor="middle" x="424.2132" y="-232.9493" font-family="Times,serif" font-size="9.00" fill="#000000">H_agent</text>
</g>
<!-- H_agent&#45;&gt;left -->
<g id="edge54" class="edge">
<title>H_agent&#45;&gt;left</title>
<path fill="none" stroke="#00ff00" stroke-width=".3599" stroke-dasharray="1,5" d="M424.0141,-226.0022C424.099,-208.9357 426.4847,-171.7938 444.2132,-147.7229 463.1093,-122.0666 484.2202,-134.7797 506.2132,-111.7229 513.793,-103.7764 519.8909,-93.4599 524.5022,-83.859"/>
<polygon fill="#00ff00" stroke="#00ff00" stroke-width=".3599" points="527.7497,-85.17 528.6178,-74.6108 521.3543,-82.3239 527.7497,-85.17"/>
</g>
<!-- H_agent&#45;&gt;no_turn -->
<g id="edge8" class="edge">
<title>H_agent&#45;&gt;no_turn</title>
<path fill="none" stroke="#00ff00" stroke-width=".2677" d="M447.9334,-233.3494C478.0601,-229.8682 529.9938,-219.7046 562.2132,-190.1493 589.0095,-165.5687 603.6777,-126.3216 611.3931,-96.5902"/>
<polygon fill="#00ff00" stroke="#00ff00" stroke-width=".2677" points="614.8822,-97.0539 613.8407,-86.5103 608.0799,-95.4021 614.8822,-97.0539"/>
</g>
<!-- H_agent&#45;&gt;counterclockwise -->
<g id="edge24" class="edge">
<title>H_agent&#45;&gt;counterclockwise</title>
<path fill="none" stroke="#00ff00" stroke-width=".1191" d="M447.9324,-234.4055C532.5093,-231.5131 815.6942,-219.6764 842.2132,-190.1493 860.5597,-169.7217 857.1973,-140.3033 848.0099,-114.2051"/>
<polygon fill="#00ff00" stroke="#00ff00" stroke-width=".1191" points="851.2381,-112.848 844.3909,-104.763 844.7017,-115.3533 851.2381,-112.848"/>
</g>
<!-- H_agent&#45;&gt;clockwise -->
<g id="edge38" class="edge">
<title>H_agent&#45;&gt;clockwise</title>
<path fill="none" stroke="#00ff00" stroke-width=".1311" stroke-dasharray="1,5" d="M400.6164,-233.6975C328.4579,-229.0202 114.4134,-213.291 94.2132,-190.1493 50.7728,-140.3832 149.5281,-93.9212 211.2724,-70.9255"/>
<polygon fill="#00ff00" stroke="#00ff00" stroke-width=".1311" points="212.64,-74.1524 220.8368,-67.4394 210.2428,-67.5756 212.64,-74.1524"/>
</g>
<!-- 337 -->
<g id="node25" class="node">
<title>337</title>
<ellipse fill="#ffffff" stroke="#000000" cx="21.2132" cy="-168.9361" rx="21.4286" ry="21.4286"/>
<text text-anchor="middle" x="21.2132" y="-166.7361" font-family="Times,serif" font-size="9.00" fill="#000000">337</text>
</g>
<!-- H_agent&#45;&gt;337 -->
<g id="edge68" class="edge">
<title>H_agent&#45;&gt;337</title>
<path fill="none" stroke="#00ff00" stroke-width=".1952" d="M400.5508,-233.5613C329.7566,-228.6059 120.5335,-212.4168 56.2132,-190.1493 53.2862,-189.1359 50.3411,-187.8526 47.469,-186.4206"/>
<polygon fill="#00ff00" stroke="#00ff00" stroke-width=".1952" points="49.0904,-183.3172 38.6546,-181.4882 45.6721,-189.4258 49.0904,-183.3172"/>
</g>
<!-- &#45;16 -->
<g id="node16" class="node">
<title>&#45;16</title>
<polygon fill="#d3d3d3" stroke="#000000" points="833.2132,-177.9361 805.2132,-177.9361 805.2132,-159.9361 833.2132,-159.9361 833.2132,-177.9361"/>
<text text-anchor="middle" x="819.2132" y="-166.7361" font-family="Times,serif" font-size="9.00" fill="#000000">&#45;16</text>
</g>
<!-- &#45;16&#45;&gt;right -->
<g id="edge31" class="edge">
<title>&#45;16&#45;&gt;right</title>
<path fill="none" stroke="#ff0000" stroke-width=".4198" d="M831.402,-159.7832C844.9223,-149.2225 866.8515,-130.8419 882.2132,-111.7229 888.5519,-103.8338 894.4099,-94.537 899.3343,-85.8152"/>
<polygon fill="#ff0000" stroke="#ff0000" stroke-width=".4198" points="902.4151,-87.4761 904.109,-77.0175 896.2628,-84.137 902.4151,-87.4761"/>
</g>
<!-- &#45;16&#45;&gt;left -->
<g id="edge34" class="edge">
<title>&#45;16&#45;&gt;left</title>
<path fill="none" stroke="#ff0000" stroke-width=".653" d="M811.5948,-159.7604C807.4891,-155.4258 802.0694,-150.5858 796.2132,-147.7229 708.3841,-104.7859 663.3645,-161.4832 579.2132,-111.7229 567.3414,-104.7028 557.4517,-93.1713 550.0751,-82.4029"/>
<polygon fill="#ff0000" stroke="#ff0000" stroke-width=".653" points="552.8165,-80.1931 544.4814,-73.6527 546.9186,-83.9634 552.8165,-80.1931"/>
</g>
<!-- &#45;16&#45;&gt;no_turn -->
<g id="edge72" class="edge">
<title>&#45;16&#45;&gt;no_turn</title>
<path fill="none" stroke="#ff0000" stroke-width="1.1596" d="M810.2955,-159.6682C806.2183,-155.7146 801.1934,-151.2175 796.2132,-147.7229 751.4668,-116.3243 694.5864,-88.7131 657.5608,-72.1612"/>
<polygon fill="#ff0000" stroke="#ff0000" stroke-width="1.1596" points="658.6946,-68.8357 648.1332,-67.994 655.8645,-75.2382 658.6946,-68.8357"/>
</g>
<!-- &#45;16&#45;&gt;counterclockwise -->
<g id="edge71" class="edge">
<title>&#45;16&#45;&gt;counterclockwise</title>
<path fill="none" stroke="#ff0000" stroke-width="1.1128" stroke-dasharray="1,5" d="M819.0495,-159.6827C818.8957,-150.983 818.6504,-137.1143 818.3885,-122.3096"/>
<polygon fill="#ff0000" stroke="#ff0000" stroke-width="1.1128" points="821.8819,-121.8992 818.2055,-111.9627 814.883,-122.023 821.8819,-121.8992"/>
</g>
<!-- 337&#45;&gt;clockwise -->
<g id="edge69" class="edge">
<title>337&#45;&gt;clockwise</title>
<path fill="none" stroke="#ff0000" stroke-width=".2907" stroke-dasharray="1,5" d="M39.1513,-157.5251C44.5611,-154.2311 50.564,-150.7196 56.2132,-147.7229 108.8681,-119.7909 171.6143,-91.7907 212.6021,-74.1768"/>
<polygon fill="#ff0000" stroke="#ff0000" stroke-width=".2907" points="214.2066,-77.2973 222.024,-70.1462 211.4534,-70.8615 214.2066,-77.2973"/>
</g>
<!-- 597&#45;&gt;backward -->
<g id="edge74" class="edge">
<title>597&#45;&gt;backward</title>
<path fill="none" stroke="#ff0000" stroke-width=".3855" d="M1268.5553,-156.8351C1242.6507,-139.0827 1193.7049,-105.5401 1159.3572,-82.0015"/>
<polygon fill="#ff0000" stroke="#ff0000" stroke-width=".3855" points="1161.1895,-79.0143 1150.9621,-76.2484 1157.2324,-84.7885 1161.1895,-79.0143"/>
</g>
<!-- 281&#45;&gt;backward -->
<g id="edge67" class="edge">
<title>281&#45;&gt;backward</title>
<path fill="none" stroke="#00ff00" stroke-width=".179" d="M1144.8942,-148.1964C1141.5089,-134.9967 1136.9893,-117.3745 1132.8064,-101.0647"/>
<polygon fill="#00ff00" stroke="#00ff00" stroke-width=".179" points="1136.1332,-99.9473 1130.2585,-91.1303 1129.3526,-101.6863 1136.1332,-99.9473"/>
</g>
<!-- 281&#45;&gt;counterclockwise -->
<g id="edge70" class="edge">
<title>281&#45;&gt;counterclockwise</title>
<path fill="none" stroke="#00ff00" stroke-width=".6638" d="M1133.8835,-155.3457C1129.6518,-152.4154 1124.947,-149.629 1120.2132,-147.7229 1020.9753,-107.7633 979.4541,-156.3227 882.2132,-111.7229 876.3553,-109.0361 870.6189,-105.6595 865.1307,-101.9033"/>
<polygon fill="#00ff00" stroke="#00ff00" stroke-width=".6638" points="866.8604,-98.8312 856.7287,-95.7329 862.717,-104.4731 866.8604,-98.8312"/>
</g>
</g>
</svg>
