<?xml version="1.0" encoding="utf-8" standalone="no"?>
<!DOCTYPE svg PUBLIC "-//W3C//DTD SVG 1.1//EN"
  "http://www.w3.org/Graphics/SVG/1.1/DTD/svg11.dtd">
<!-- Created with matplotlib (https://matplotlib.org/) -->
<svg height="345.6pt" version="1.1" viewBox="0 0 460.8 345.6" width="460.8pt" xmlns="http://www.w3.org/2000/svg" xmlns:xlink="http://www.w3.org/1999/xlink">
 <metadata>
  <rdf:RDF xmlns:cc="http://creativecommons.org/ns#" xmlns:dc="http://purl.org/dc/elements/1.1/" xmlns:rdf="http://www.w3.org/1999/02/22-rdf-syntax-ns#">
   <cc:Work>
    <dc:type rdf:resource="http://purl.org/dc/dcmitype/StillImage"/>
    <dc:date>2021-04-14T22:10:33.743568</dc:date>
    <dc:format>image/svg+xml</dc:format>
    <dc:creator>
     <cc:Agent>
      <dc:title>Matplotlib v3.3.4, https://matplotlib.org/</dc:title>
     </cc:Agent>
    </dc:creator>
   </cc:Work>
  </rdf:RDF>
 </metadata>
 <defs>
  <style type="text/css">*{stroke-linecap:butt;stroke-linejoin:round;}</style>
 </defs>
 <g id="figure_1">
  <g id="patch_1">
   <path d="M 0 345.6 
L 460.8 345.6 
L 460.8 0 
L 0 0 
z
" style="fill:#ffffff;"/>
  </g>
  <g id="axes_1">
   <g id="patch_2">
    <path d="M 57.6 307.584 
L 414.72 307.584 
L 414.72 41.472 
L 57.6 41.472 
z
" style="fill:#ffffff;"/>
   </g>
   <g id="matplotlib.axis_1">
    <g id="xtick_1">
     <g id="line2d_1">
      <path clip-path="url(#pa2bacae2e3)" d="M 73.832727 307.584 
L 73.832727 41.472 
" style="fill:none;stroke:#b0b0b0;stroke-linecap:square;stroke-width:0.8;"/>
     </g>
     <g id="line2d_2">
      <defs>
       <path d="M 0 0 
L 0 3.5 
" id="mae17cbbc17" style="stroke:#000000;stroke-width:0.8;"/>
      </defs>
      <g>
       <use style="stroke:#000000;stroke-width:0.8;" x="73.832727" xlink:href="#mae17cbbc17" y="307.584"/>
      </g>
     </g>
     <g id="text_1">
      <!-- 0 -->
      <g transform="translate(70.651477 322.182437)scale(0.1 -0.1)">
       <defs>
        <path d="M 31.78125 66.40625 
Q 24.171875 66.40625 20.328125 58.90625 
Q 16.5 51.421875 16.5 36.375 
Q 16.5 21.390625 20.328125 13.890625 
Q 24.171875 6.390625 31.78125 6.390625 
Q 39.453125 6.390625 43.28125 13.890625 
Q 47.125 21.390625 47.125 36.375 
Q 47.125 51.421875 43.28125 58.90625 
Q 39.453125 66.40625 31.78125 66.40625 
z
M 31.78125 74.21875 
Q 44.046875 74.21875 50.515625 64.515625 
Q 56.984375 54.828125 56.984375 36.375 
Q 56.984375 17.96875 50.515625 8.265625 
Q 44.046875 -1.421875 31.78125 -1.421875 
Q 19.53125 -1.421875 13.0625 8.265625 
Q 6.59375 17.96875 6.59375 36.375 
Q 6.59375 54.828125 13.0625 64.515625 
Q 19.53125 74.21875 31.78125 74.21875 
z
" id="DejaVuSans-48"/>
       </defs>
       <use xlink:href="#DejaVuSans-48"/>
      </g>
     </g>
    </g>
    <g id="xtick_2">
     <g id="line2d_3">
      <path clip-path="url(#pa2bacae2e3)" d="M 132.014545 307.584 
L 132.014545 41.472 
" style="fill:none;stroke:#b0b0b0;stroke-linecap:square;stroke-width:0.8;"/>
     </g>
     <g id="line2d_4">
      <g>
       <use style="stroke:#000000;stroke-width:0.8;" x="132.014545" xlink:href="#mae17cbbc17" y="307.584"/>
      </g>
     </g>
     <g id="text_2">
      <!-- 50 -->
      <g transform="translate(125.652045 322.182437)scale(0.1 -0.1)">
       <defs>
        <path d="M 10.796875 72.90625 
L 49.515625 72.90625 
L 49.515625 64.59375 
L 19.828125 64.59375 
L 19.828125 46.734375 
Q 21.96875 47.46875 24.109375 47.828125 
Q 26.265625 48.1875 28.421875 48.1875 
Q 40.625 48.1875 47.75 41.5 
Q 54.890625 34.8125 54.890625 23.390625 
Q 54.890625 11.625 47.5625 5.09375 
Q 40.234375 -1.421875 26.90625 -1.421875 
Q 22.3125 -1.421875 17.546875 -0.640625 
Q 12.796875 0.140625 7.71875 1.703125 
L 7.71875 11.625 
Q 12.109375 9.234375 16.796875 8.0625 
Q 21.484375 6.890625 26.703125 6.890625 
Q 35.15625 6.890625 40.078125 11.328125 
Q 45.015625 15.765625 45.015625 23.390625 
Q 45.015625 31 40.078125 35.4375 
Q 35.15625 39.890625 26.703125 39.890625 
Q 22.75 39.890625 18.8125 39.015625 
Q 14.890625 38.140625 10.796875 36.28125 
z
" id="DejaVuSans-53"/>
       </defs>
       <use xlink:href="#DejaVuSans-53"/>
       <use x="63.623047" xlink:href="#DejaVuSans-48"/>
      </g>
     </g>
    </g>
    <g id="xtick_3">
     <g id="line2d_5">
      <path clip-path="url(#pa2bacae2e3)" d="M 190.196364 307.584 
L 190.196364 41.472 
" style="fill:none;stroke:#b0b0b0;stroke-linecap:square;stroke-width:0.8;"/>
     </g>
     <g id="line2d_6">
      <g>
       <use style="stroke:#000000;stroke-width:0.8;" x="190.196364" xlink:href="#mae17cbbc17" y="307.584"/>
      </g>
     </g>
     <g id="text_3">
      <!-- 100 -->
      <g transform="translate(180.652614 322.182437)scale(0.1 -0.1)">
       <defs>
        <path d="M 12.40625 8.296875 
L 28.515625 8.296875 
L 28.515625 63.921875 
L 10.984375 60.40625 
L 10.984375 69.390625 
L 28.421875 72.90625 
L 38.28125 72.90625 
L 38.28125 8.296875 
L 54.390625 8.296875 
L 54.390625 0 
L 12.40625 0 
z
" id="DejaVuSans-49"/>
       </defs>
       <use xlink:href="#DejaVuSans-49"/>
       <use x="63.623047" xlink:href="#DejaVuSans-48"/>
       <use x="127.246094" xlink:href="#DejaVuSans-48"/>
      </g>
     </g>
    </g>
    <g id="xtick_4">
     <g id="line2d_7">
      <path clip-path="url(#pa2bacae2e3)" d="M 248.378182 307.584 
L 248.378182 41.472 
" style="fill:none;stroke:#b0b0b0;stroke-linecap:square;stroke-width:0.8;"/>
     </g>
     <g id="line2d_8">
      <g>
       <use style="stroke:#000000;stroke-width:0.8;" x="248.378182" xlink:href="#mae17cbbc17" y="307.584"/>
      </g>
     </g>
     <g id="text_4">
      <!-- 150 -->
      <g transform="translate(238.834432 322.182437)scale(0.1 -0.1)">
       <use xlink:href="#DejaVuSans-49"/>
       <use x="63.623047" xlink:href="#DejaVuSans-53"/>
       <use x="127.246094" xlink:href="#DejaVuSans-48"/>
      </g>
     </g>
    </g>
    <g id="xtick_5">
     <g id="line2d_9">
      <path clip-path="url(#pa2bacae2e3)" d="M 306.56 307.584 
L 306.56 41.472 
" style="fill:none;stroke:#b0b0b0;stroke-linecap:square;stroke-width:0.8;"/>
     </g>
     <g id="line2d_10">
      <g>
       <use style="stroke:#000000;stroke-width:0.8;" x="306.56" xlink:href="#mae17cbbc17" y="307.584"/>
      </g>
     </g>
     <g id="text_5">
      <!-- 200 -->
      <g transform="translate(297.01625 322.182437)scale(0.1 -0.1)">
       <defs>
        <path d="M 19.1875 8.296875 
L 53.609375 8.296875 
L 53.609375 0 
L 7.328125 0 
L 7.328125 8.296875 
Q 12.9375 14.109375 22.625 23.890625 
Q 32.328125 33.6875 34.8125 36.53125 
Q 39.546875 41.84375 41.421875 45.53125 
Q 43.3125 49.21875 43.3125 52.78125 
Q 43.3125 58.59375 39.234375 62.25 
Q 35.15625 65.921875 28.609375 65.921875 
Q 23.96875 65.921875 18.8125 64.3125 
Q 13.671875 62.703125 7.8125 59.421875 
L 7.8125 69.390625 
Q 13.765625 71.78125 18.9375 73 
Q 24.125 74.21875 28.421875 74.21875 
Q 39.75 74.21875 46.484375 68.546875 
Q 53.21875 62.890625 53.21875 53.421875 
Q 53.21875 48.921875 51.53125 44.890625 
Q 49.859375 40.875 45.40625 35.40625 
Q 44.1875 33.984375 37.640625 27.21875 
Q 31.109375 20.453125 19.1875 8.296875 
z
" id="DejaVuSans-50"/>
       </defs>
       <use xlink:href="#DejaVuSans-50"/>
       <use x="63.623047" xlink:href="#DejaVuSans-48"/>
       <use x="127.246094" xlink:href="#DejaVuSans-48"/>
      </g>
     </g>
    </g>
    <g id="xtick_6">
     <g id="line2d_11">
      <path clip-path="url(#pa2bacae2e3)" d="M 364.741818 307.584 
L 364.741818 41.472 
" style="fill:none;stroke:#b0b0b0;stroke-linecap:square;stroke-width:0.8;"/>
     </g>
     <g id="line2d_12">
      <g>
       <use style="stroke:#000000;stroke-width:0.8;" x="364.741818" xlink:href="#mae17cbbc17" y="307.584"/>
      </g>
     </g>
     <g id="text_6">
      <!-- 250 -->
      <g transform="translate(355.198068 322.182437)scale(0.1 -0.1)">
       <use xlink:href="#DejaVuSans-50"/>
       <use x="63.623047" xlink:href="#DejaVuSans-53"/>
       <use x="127.246094" xlink:href="#DejaVuSans-48"/>
      </g>
     </g>
    </g>
    <g id="text_7">
     <!-- Generations -->
     <g transform="translate(205.662344 335.860562)scale(0.1 -0.1)">
      <defs>
       <path d="M 59.515625 10.40625 
L 59.515625 29.984375 
L 43.40625 29.984375 
L 43.40625 38.09375 
L 69.28125 38.09375 
L 69.28125 6.78125 
Q 63.578125 2.734375 56.6875 0.65625 
Q 49.8125 -1.421875 42 -1.421875 
Q 24.90625 -1.421875 15.25 8.5625 
Q 5.609375 18.5625 5.609375 36.375 
Q 5.609375 54.25 15.25 64.234375 
Q 24.90625 74.21875 42 74.21875 
Q 49.125 74.21875 55.546875 72.453125 
Q 61.96875 70.703125 67.390625 67.28125 
L 67.390625 56.78125 
Q 61.921875 61.421875 55.765625 63.765625 
Q 49.609375 66.109375 42.828125 66.109375 
Q 29.4375 66.109375 22.71875 58.640625 
Q 16.015625 51.171875 16.015625 36.375 
Q 16.015625 21.625 22.71875 14.15625 
Q 29.4375 6.6875 42.828125 6.6875 
Q 48.046875 6.6875 52.140625 7.59375 
Q 56.25 8.5 59.515625 10.40625 
z
" id="DejaVuSans-71"/>
       <path d="M 56.203125 29.59375 
L 56.203125 25.203125 
L 14.890625 25.203125 
Q 15.484375 15.921875 20.484375 11.0625 
Q 25.484375 6.203125 34.421875 6.203125 
Q 39.59375 6.203125 44.453125 7.46875 
Q 49.3125 8.734375 54.109375 11.28125 
L 54.109375 2.78125 
Q 49.265625 0.734375 44.1875 -0.34375 
Q 39.109375 -1.421875 33.890625 -1.421875 
Q 20.796875 -1.421875 13.15625 6.1875 
Q 5.515625 13.8125 5.515625 26.8125 
Q 5.515625 40.234375 12.765625 48.109375 
Q 20.015625 56 32.328125 56 
Q 43.359375 56 49.78125 48.890625 
Q 56.203125 41.796875 56.203125 29.59375 
z
M 47.21875 32.234375 
Q 47.125 39.59375 43.09375 43.984375 
Q 39.0625 48.390625 32.421875 48.390625 
Q 24.90625 48.390625 20.390625 44.140625 
Q 15.875 39.890625 15.1875 32.171875 
z
" id="DejaVuSans-101"/>
       <path d="M 54.890625 33.015625 
L 54.890625 0 
L 45.90625 0 
L 45.90625 32.71875 
Q 45.90625 40.484375 42.875 44.328125 
Q 39.84375 48.1875 33.796875 48.1875 
Q 26.515625 48.1875 22.3125 43.546875 
Q 18.109375 38.921875 18.109375 30.90625 
L 18.109375 0 
L 9.078125 0 
L 9.078125 54.6875 
L 18.109375 54.6875 
L 18.109375 46.1875 
Q 21.34375 51.125 25.703125 53.5625 
Q 30.078125 56 35.796875 56 
Q 45.21875 56 50.046875 50.171875 
Q 54.890625 44.34375 54.890625 33.015625 
z
" id="DejaVuSans-110"/>
       <path d="M 41.109375 46.296875 
Q 39.59375 47.171875 37.8125 47.578125 
Q 36.03125 48 33.890625 48 
Q 26.265625 48 22.1875 43.046875 
Q 18.109375 38.09375 18.109375 28.8125 
L 18.109375 0 
L 9.078125 0 
L 9.078125 54.6875 
L 18.109375 54.6875 
L 18.109375 46.1875 
Q 20.953125 51.171875 25.484375 53.578125 
Q 30.03125 56 36.53125 56 
Q 37.453125 56 38.578125 55.875 
Q 39.703125 55.765625 41.0625 55.515625 
z
" id="DejaVuSans-114"/>
       <path d="M 34.28125 27.484375 
Q 23.390625 27.484375 19.1875 25 
Q 14.984375 22.515625 14.984375 16.5 
Q 14.984375 11.71875 18.140625 8.90625 
Q 21.296875 6.109375 26.703125 6.109375 
Q 34.1875 6.109375 38.703125 11.40625 
Q 43.21875 16.703125 43.21875 25.484375 
L 43.21875 27.484375 
z
M 52.203125 31.203125 
L 52.203125 0 
L 43.21875 0 
L 43.21875 8.296875 
Q 40.140625 3.328125 35.546875 0.953125 
Q 30.953125 -1.421875 24.3125 -1.421875 
Q 15.921875 -1.421875 10.953125 3.296875 
Q 6 8.015625 6 15.921875 
Q 6 25.140625 12.171875 29.828125 
Q 18.359375 34.515625 30.609375 34.515625 
L 43.21875 34.515625 
L 43.21875 35.40625 
Q 43.21875 41.609375 39.140625 45 
Q 35.0625 48.390625 27.6875 48.390625 
Q 23 48.390625 18.546875 47.265625 
Q 14.109375 46.140625 10.015625 43.890625 
L 10.015625 52.203125 
Q 14.9375 54.109375 19.578125 55.046875 
Q 24.21875 56 28.609375 56 
Q 40.484375 56 46.34375 49.84375 
Q 52.203125 43.703125 52.203125 31.203125 
z
" id="DejaVuSans-97"/>
       <path d="M 18.3125 70.21875 
L 18.3125 54.6875 
L 36.8125 54.6875 
L 36.8125 47.703125 
L 18.3125 47.703125 
L 18.3125 18.015625 
Q 18.3125 11.328125 20.140625 9.421875 
Q 21.96875 7.515625 27.59375 7.515625 
L 36.8125 7.515625 
L 36.8125 0 
L 27.59375 0 
Q 17.1875 0 13.234375 3.875 
Q 9.28125 7.765625 9.28125 18.015625 
L 9.28125 47.703125 
L 2.6875 47.703125 
L 2.6875 54.6875 
L 9.28125 54.6875 
L 9.28125 70.21875 
z
" id="DejaVuSans-116"/>
       <path d="M 9.421875 54.6875 
L 18.40625 54.6875 
L 18.40625 0 
L 9.421875 0 
z
M 9.421875 75.984375 
L 18.40625 75.984375 
L 18.40625 64.59375 
L 9.421875 64.59375 
z
" id="DejaVuSans-105"/>
       <path d="M 30.609375 48.390625 
Q 23.390625 48.390625 19.1875 42.75 
Q 14.984375 37.109375 14.984375 27.296875 
Q 14.984375 17.484375 19.15625 11.84375 
Q 23.34375 6.203125 30.609375 6.203125 
Q 37.796875 6.203125 41.984375 11.859375 
Q 46.1875 17.53125 46.1875 27.296875 
Q 46.1875 37.015625 41.984375 42.703125 
Q 37.796875 48.390625 30.609375 48.390625 
z
M 30.609375 56 
Q 42.328125 56 49.015625 48.375 
Q 55.71875 40.765625 55.71875 27.296875 
Q 55.71875 13.875 49.015625 6.21875 
Q 42.328125 -1.421875 30.609375 -1.421875 
Q 18.84375 -1.421875 12.171875 6.21875 
Q 5.515625 13.875 5.515625 27.296875 
Q 5.515625 40.765625 12.171875 48.375 
Q 18.84375 56 30.609375 56 
z
" id="DejaVuSans-111"/>
       <path d="M 44.28125 53.078125 
L 44.28125 44.578125 
Q 40.484375 46.53125 36.375 47.5 
Q 32.28125 48.484375 27.875 48.484375 
Q 21.1875 48.484375 17.84375 46.4375 
Q 14.5 44.390625 14.5 40.28125 
Q 14.5 37.15625 16.890625 35.375 
Q 19.28125 33.59375 26.515625 31.984375 
L 29.59375 31.296875 
Q 39.15625 29.25 43.1875 25.515625 
Q 47.21875 21.78125 47.21875 15.09375 
Q 47.21875 7.46875 41.1875 3.015625 
Q 35.15625 -1.421875 24.609375 -1.421875 
Q 20.21875 -1.421875 15.453125 -0.5625 
Q 10.6875 0.296875 5.421875 2 
L 5.421875 11.28125 
Q 10.40625 8.6875 15.234375 7.390625 
Q 20.0625 6.109375 24.8125 6.109375 
Q 31.15625 6.109375 34.5625 8.28125 
Q 37.984375 10.453125 37.984375 14.40625 
Q 37.984375 18.0625 35.515625 20.015625 
Q 33.0625 21.96875 24.703125 23.78125 
L 21.578125 24.515625 
Q 13.234375 26.265625 9.515625 29.90625 
Q 5.8125 33.546875 5.8125 39.890625 
Q 5.8125 47.609375 11.28125 51.796875 
Q 16.75 56 26.8125 56 
Q 31.78125 56 36.171875 55.265625 
Q 40.578125 54.546875 44.28125 53.078125 
z
" id="DejaVuSans-115"/>
      </defs>
      <use xlink:href="#DejaVuSans-71"/>
      <use x="77.490234" xlink:href="#DejaVuSans-101"/>
      <use x="139.013672" xlink:href="#DejaVuSans-110"/>
      <use x="202.392578" xlink:href="#DejaVuSans-101"/>
      <use x="263.916016" xlink:href="#DejaVuSans-114"/>
      <use x="305.029297" xlink:href="#DejaVuSans-97"/>
      <use x="366.308594" xlink:href="#DejaVuSans-116"/>
      <use x="405.517578" xlink:href="#DejaVuSans-105"/>
      <use x="433.300781" xlink:href="#DejaVuSans-111"/>
      <use x="494.482422" xlink:href="#DejaVuSans-110"/>
      <use x="557.861328" xlink:href="#DejaVuSans-115"/>
     </g>
    </g>
   </g>
   <g id="matplotlib.axis_2">
    <g id="ytick_1">
     <g id="line2d_13">
      <path clip-path="url(#pa2bacae2e3)" d="M 57.6 200.807848 
L 414.72 200.807848 
" style="fill:none;stroke:#b0b0b0;stroke-linecap:square;stroke-width:0.8;"/>
     </g>
     <g id="line2d_14">
      <defs>
       <path d="M 0 0 
L -3.5 0 
" id="m1f737c3aef" style="stroke:#000000;stroke-width:0.8;"/>
      </defs>
      <g>
       <use style="stroke:#000000;stroke-width:0.8;" x="57.6" xlink:href="#m1f737c3aef" y="200.807848"/>
      </g>
     </g>
     <g id="text_8">
      <!-- $\mathdefault{-10^{4}}$ -->
      <g transform="translate(24.6 204.607066)scale(0.1 -0.1)">
       <defs>
        <path d="M 10.59375 35.5 
L 73.1875 35.5 
L 73.1875 27.203125 
L 10.59375 27.203125 
z
" id="DejaVuSans-8722"/>
        <path d="M 37.796875 64.3125 
L 12.890625 25.390625 
L 37.796875 25.390625 
z
M 35.203125 72.90625 
L 47.609375 72.90625 
L 47.609375 25.390625 
L 58.015625 25.390625 
L 58.015625 17.1875 
L 47.609375 17.1875 
L 47.609375 0 
L 37.796875 0 
L 37.796875 17.1875 
L 4.890625 17.1875 
L 4.890625 26.703125 
z
" id="DejaVuSans-52"/>
       </defs>
       <use transform="translate(0 0.684375)" xlink:href="#DejaVuSans-8722"/>
       <use transform="translate(83.789062 0.684375)" xlink:href="#DejaVuSans-49"/>
       <use transform="translate(147.412109 0.684375)" xlink:href="#DejaVuSans-48"/>
       <use transform="translate(211.992188 38.965625)scale(0.7)" xlink:href="#DejaVuSans-52"/>
      </g>
     </g>
    </g>
    <g id="text_9">
     <!-- Fitness -->
     <g transform="translate(18.520312 191.845187)rotate(-90)scale(0.1 -0.1)">
      <defs>
       <path d="M 9.8125 72.90625 
L 51.703125 72.90625 
L 51.703125 64.59375 
L 19.671875 64.59375 
L 19.671875 43.109375 
L 48.578125 43.109375 
L 48.578125 34.8125 
L 19.671875 34.8125 
L 19.671875 0 
L 9.8125 0 
z
" id="DejaVuSans-70"/>
      </defs>
      <use xlink:href="#DejaVuSans-70"/>
      <use x="50.269531" xlink:href="#DejaVuSans-105"/>
      <use x="78.052734" xlink:href="#DejaVuSans-116"/>
      <use x="117.261719" xlink:href="#DejaVuSans-110"/>
      <use x="180.640625" xlink:href="#DejaVuSans-101"/>
      <use x="242.164062" xlink:href="#DejaVuSans-115"/>
      <use x="294.263672" xlink:href="#DejaVuSans-115"/>
     </g>
    </g>
   </g>
   <g id="line2d_15">
    <path clip-path="url(#pa2bacae2e3)" d="M 73.832727 295.488 
L 74.996364 256.717289 
L 76.16 234.462568 
L 77.323636 230.30946 
L 78.487273 217.332038 
L 79.650909 217.825249 
L 80.814545 205.054987 
L 81.978182 202.544759 
L 83.141818 202.951298 
L 84.305455 202.019832 
L 85.469091 203.416949 
L 86.632727 197.940816 
L 88.96 182.797652 
L 90.123636 183.157198 
L 91.287273 190.663559 
L 92.450909 196.107969 
L 93.614545 192.786136 
L 94.778182 197.058495 
L 95.941818 196.879311 
L 97.105455 194.614953 
L 98.269091 187.521303 
L 99.432727 189.723201 
L 100.596364 193.822597 
L 101.76 195.695317 
L 102.923636 189.839598 
L 104.087273 185.338939 
L 105.250909 191.161518 
L 106.414545 186.80986 
L 107.578182 187.792477 
L 108.741818 183.162725 
L 109.905455 184.664323 
L 111.069091 187.063677 
L 112.232727 181.782997 
L 113.396364 181.835973 
L 114.56 185.339725 
L 115.723636 189.718749 
L 116.887273 190.543244 
L 118.050909 173.536469 
L 119.214545 181.444424 
L 120.378182 192.233375 
L 121.541818 201.656855 
L 122.705455 184.446716 
L 123.869091 181.309539 
L 125.032727 177.065233 
L 126.196364 169.682302 
L 127.36 179.565207 
L 128.523636 194.366947 
L 129.687273 171.272294 
L 130.850909 175.381738 
L 132.014545 176.41123 
L 133.178182 174.26032 
L 134.341818 196.279924 
L 135.505455 185.016166 
L 136.669091 179.480067 
L 137.832727 170.241863 
L 138.996364 180.09883 
L 140.16 191.636994 
L 141.323636 178.978647 
L 142.487273 190.255261 
L 143.650909 186.916604 
L 144.814545 189.227168 
L 145.978182 181.099351 
L 147.141818 189.983241 
L 148.305455 185.005714 
L 149.469091 183.508714 
L 150.632727 187.369619 
L 151.796364 173.612691 
L 152.96 170.891219 
L 154.123636 174.169433 
L 155.287273 185.834686 
L 156.450909 191.021592 
L 157.614545 185.368367 
L 158.778182 173.69802 
L 159.941818 166.414301 
L 161.105455 183.269103 
L 162.269091 159.480345 
L 163.432727 166.048017 
L 164.596364 150.302695 
L 165.76 172.658927 
L 166.923636 169.307392 
L 168.087273 158.577229 
L 169.250909 163.066206 
L 170.414545 168.23295 
L 172.741818 183.319792 
L 173.905455 186.130443 
L 175.069091 171.033858 
L 176.232727 184.630561 
L 177.396364 173.244752 
L 178.56 164.09474 
L 179.723636 184.730342 
L 180.887273 178.468611 
L 182.050909 173.076161 
L 183.214545 177.986393 
L 184.378182 167.782364 
L 185.541818 193.501782 
L 186.705455 190.970525 
L 187.869091 189.157981 
L 189.032727 182.446926 
L 190.196364 185.055057 
L 191.36 185.254085 
L 192.523636 183.326389 
L 193.687273 163.483824 
L 194.850909 192.196456 
L 196.014545 183.709995 
L 197.178182 195.948261 
L 198.341818 195.828391 
L 199.505455 188.96559 
L 200.669091 172.936111 
L 201.832727 173.844563 
L 202.996364 182.90641 
L 204.16 186.757677 
L 205.323636 173.917816 
L 206.487273 186.511132 
L 207.650909 166.581783 
L 208.814545 181.6981 
L 209.978182 180.249066 
L 211.141818 195.183694 
L 212.305455 194.522357 
L 213.469091 172.961945 
L 214.632727 176.211082 
L 215.796364 191.099274 
L 216.96 194.38461 
L 218.123636 183.461266 
L 219.287273 181.274775 
L 220.450909 183.945932 
L 221.614545 190.750257 
L 222.778182 194.188503 
L 223.941818 187.265402 
L 225.105455 191.948777 
L 226.269091 190.731589 
L 227.432727 188.845812 
L 228.596364 164.15631 
L 229.76 192.000651 
L 230.923636 187.06059 
L 232.087273 176.989353 
L 233.250909 157.177333 
L 234.414545 170.747236 
L 235.578182 186.411175 
L 236.741818 181.284067 
L 237.905455 182.149884 
L 239.069091 188.570807 
L 240.232727 188.06586 
L 241.396364 178.266059 
L 242.56 189.847956 
L 243.723636 185.558158 
L 244.887273 186.566494 
L 246.050909 186.541517 
L 247.214545 168.548893 
L 248.378182 169.797183 
L 249.541818 173.988588 
L 250.705455 180.354765 
L 251.869091 171.043535 
L 253.032727 175.146661 
L 254.196364 180.114828 
L 255.36 175.081417 
L 256.523636 171.756454 
L 257.687273 180.232112 
L 258.850909 178.091528 
L 260.014545 191.969493 
L 261.178182 186.227595 
L 262.341818 186.939707 
L 263.505455 188.716221 
L 264.669091 183.65475 
L 265.832727 184.194517 
L 266.996364 189.594984 
L 268.16 193.21377 
L 269.323636 193.632994 
L 270.487273 201.312897 
L 271.650909 196.430396 
L 272.814545 190.243193 
L 273.978182 185.583052 
L 275.141818 178.512081 
L 276.305455 187.567162 
L 277.469091 182.905113 
L 278.632727 195.446661 
L 279.796364 196.507061 
L 280.96 190.559831 
L 283.287273 195.971995 
L 284.450909 195.558772 
L 285.614545 194.389028 
L 286.778182 192.551799 
L 287.941818 189.892932 
L 289.105455 190.057971 
L 290.269091 186.895402 
L 291.432727 201.059701 
L 292.596364 198.743222 
L 293.76 205.48066 
L 294.923636 198.17303 
L 296.087273 198.115315 
L 297.250909 204.022551 
L 298.414545 192.813572 
L 299.578182 193.750342 
L 300.741818 190.920852 
L 301.905455 203.772087 
L 303.069091 204.671518 
L 304.232727 187.856592 
L 305.396364 192.340168 
L 306.56 199.969607 
L 307.723636 196.004064 
L 308.887273 189.395461 
L 310.050909 214.916813 
L 311.214545 204.480703 
L 312.378182 199.287734 
L 313.541818 211.00739 
L 314.705455 208.477047 
L 315.869091 203.562403 
L 317.032727 203.635533 
L 318.196364 207.032902 
L 319.36 205.160068 
L 320.523636 219.184244 
L 321.687273 219.994936 
L 322.850909 212.504845 
L 324.014545 207.247014 
L 325.178182 207.768342 
L 326.341818 193.695142 
L 327.505455 208.923643 
L 328.669091 198.768007 
L 329.832727 198.769233 
L 330.996364 205.663373 
L 332.16 206.771482 
L 333.323636 205.518944 
L 334.487273 198.666062 
L 335.650909 203.131379 
L 336.814545 204.201035 
L 337.978182 200.825182 
L 339.141818 192.735371 
L 340.305455 182.556957 
L 341.469091 190.304773 
L 342.632727 193.28812 
L 343.796364 193.226417 
L 344.96 199.370786 
L 346.123636 196.918497 
L 347.287273 190.95603 
L 348.450909 198.414569 
L 349.614545 180.813294 
L 350.778182 203.500469 
L 351.941818 183.967984 
L 353.105455 194.696556 
L 354.269091 189.280902 
L 355.432727 186.025225 
L 356.596364 190.998069 
L 357.76 179.137986 
L 358.923636 180.847398 
L 360.087273 198.766651 
L 361.250909 194.585215 
L 362.414545 192.897777 
L 363.578182 197.595237 
L 364.741818 198.204723 
L 365.905455 198.267628 
L 367.069091 207.619813 
L 368.232727 201.140946 
L 369.396364 204.436005 
L 370.56 200.383085 
L 371.723636 199.692163 
L 372.887273 210.399827 
L 374.050909 202.290275 
L 375.214545 201.376698 
L 376.378182 204.99684 
L 377.541818 196.573459 
L 378.705455 185.526635 
L 379.869091 194.243278 
L 381.032727 188.852532 
L 382.196364 201.103758 
L 383.36 190.783648 
L 384.523636 200.228075 
L 385.687273 193.524321 
L 386.850909 183.850649 
L 388.014545 191.271461 
L 389.178182 200.73664 
L 390.341818 184.478286 
L 391.505455 187.542183 
L 392.669091 200.145832 
L 393.832727 188.716639 
L 394.996364 184.173295 
L 396.16 196.346453 
L 397.323636 198.379081 
L 398.487273 191.576231 
L 398.487273 191.576231 
" style="fill:none;stroke:#0000ff;stroke-linecap:square;stroke-width:1.5;"/>
   </g>
   <g id="line2d_16">
    <path clip-path="url(#pa2bacae2e3)" d="M 73.832727 243.415845 
L 74.996364 209.792392 
L 76.16 193.724903 
L 77.323636 189.410431 
L 78.487273 180.162974 
L 79.650909 176.861862 
L 80.814545 147.457647 
L 81.978182 139.874652 
L 83.141818 127.265178 
L 84.305455 144.045081 
L 85.469091 148.725011 
L 86.632727 130.785088 
L 87.796364 116.748913 
L 88.96 126.275488 
L 90.123636 123.180139 
L 91.287273 57.54323 
L 92.450909 138.102306 
L 93.614545 94.058525 
L 94.778182 131.812047 
L 95.941818 118.490973 
L 97.105455 88.046233 
L 98.269091 53.568 
L 99.432727 109.822626 
L 100.596364 104.34204 
L 101.76 94.28165 
L 102.923636 130.461194 
L 104.087273 61.679888 
L 105.250909 122.7894 
L 106.414545 112.606891 
L 107.578182 101.236688 
L 108.741818 90.969315 
L 109.905455 112.4834 
L 111.069091 118.103053 
L 112.232727 113.021608 
L 113.396364 99.827022 
L 114.56 122.669527 
L 115.723636 117.778348 
L 116.887273 116.816279 
L 118.050909 117.241698 
L 119.214545 108.330261 
L 120.378182 126.369692 
L 121.541818 133.940584 
L 122.705455 125.816695 
L 123.869091 114.868432 
L 125.032727 93.257582 
L 126.196364 93.847636 
L 127.36 89.205206 
L 128.523636 130.550769 
L 129.687273 100.472485 
L 130.850909 120.895901 
L 132.014545 112.32557 
L 133.178182 91.651633 
L 134.341818 120.728291 
L 135.505455 86.20287 
L 136.669091 92.382859 
L 137.832727 101.14298 
L 138.996364 90.444284 
L 140.16 125.305104 
L 141.323636 96.52871 
L 142.487273 133.80569 
L 143.650909 114.877714 
L 144.814545 135.481956 
L 145.978182 118.684917 
L 147.141818 118.989353 
L 148.305455 122.38346 
L 149.469091 109.350894 
L 150.632727 89.43766 
L 151.796364 55.722873 
L 152.96 81.2082 
L 154.123636 90.79521 
L 156.450909 103.404303 
L 157.614545 121.803612 
L 158.778182 89.751968 
L 159.941818 74.640026 
L 161.105455 105.599257 
L 162.269091 92.306824 
L 163.432727 94.922706 
L 164.596364 82.574304 
L 165.76 67.375386 
L 166.923636 55.814352 
L 168.087273 82.512205 
L 169.250909 94.337004 
L 170.414545 71.487615 
L 171.578182 53.784387 
L 172.741818 110.701926 
L 173.905455 94.919117 
L 175.069091 68.523927 
L 176.232727 95.905763 
L 177.396364 78.632318 
L 178.56 75.258038 
L 179.723636 101.443366 
L 180.887273 60.055072 
L 182.050909 81.59872 
L 184.378182 106.81358 
L 185.541818 126.649674 
L 186.705455 94.340898 
L 187.869091 126.318823 
L 189.032727 90.610288 
L 190.196364 124.747674 
L 191.36 91.186655 
L 192.523636 99.625433 
L 193.687273 81.827799 
L 194.850909 122.660666 
L 196.014545 108.281851 
L 197.178182 130.034432 
L 198.341818 106.971012 
L 199.505455 115.722169 
L 200.669091 102.884473 
L 201.832727 102.613557 
L 202.996364 104.455849 
L 204.16 129.091218 
L 205.323636 93.484146 
L 206.487273 105.824464 
L 207.650909 96.37034 
L 209.978182 120.883316 
L 211.141818 128.019469 
L 212.305455 133.440749 
L 213.469091 103.395303 
L 214.632727 96.091994 
L 215.796364 125.294622 
L 216.96 116.283723 
L 218.123636 79.959865 
L 219.287273 112.552249 
L 220.450909 103.654387 
L 221.614545 121.041799 
L 222.778182 111.136663 
L 223.941818 124.483092 
L 225.105455 103.44576 
L 226.269091 90.374338 
L 227.432727 103.825749 
L 228.596364 104.143455 
L 229.76 103.419568 
L 230.923636 129.541916 
L 232.087273 106.229419 
L 233.250909 89.184499 
L 234.414545 108.158973 
L 235.578182 103.95152 
L 236.741818 125.736144 
L 237.905455 107.010667 
L 239.069091 125.662641 
L 240.232727 125.818638 
L 241.396364 85.59977 
L 242.56 115.204459 
L 243.723636 101.495736 
L 244.887273 102.259484 
L 246.050909 100.802337 
L 247.214545 79.407854 
L 248.378182 94.971292 
L 249.541818 100.366247 
L 250.705455 104.514199 
L 251.869091 84.051292 
L 253.032727 105.122949 
L 254.196364 115.571233 
L 255.36 103.959237 
L 256.523636 115.928476 
L 257.687273 103.335989 
L 258.850909 106.79655 
L 261.178182 126.462247 
L 262.341818 125.780731 
L 263.505455 123.021201 
L 264.669091 118.669665 
L 265.832727 120.266336 
L 266.996364 128.183061 
L 268.16 122.626699 
L 269.323636 126.269568 
L 270.487273 138.061908 
L 271.650909 103.141262 
L 272.814545 109.153278 
L 273.978182 118.033317 
L 275.141818 121.34022 
L 276.305455 120.810132 
L 277.469091 137.884972 
L 278.632727 142.496223 
L 279.796364 103.161749 
L 280.96 116.432899 
L 282.123636 87.128047 
L 283.287273 114.796068 
L 284.450909 135.186229 
L 285.614545 110.977177 
L 286.778182 106.059944 
L 287.941818 113.135871 
L 289.105455 132.070593 
L 290.269091 111.662276 
L 291.432727 130.120006 
L 292.596364 138.730976 
L 293.76 127.021288 
L 294.923636 119.500328 
L 296.087273 132.342977 
L 297.250909 115.162222 
L 298.414545 115.754517 
L 299.578182 118.321767 
L 300.741818 139.97141 
L 301.905455 119.395664 
L 303.069091 126.973373 
L 304.232727 113.22179 
L 305.396364 129.283032 
L 306.56 118.095551 
L 307.723636 139.718015 
L 308.887273 109.332735 
L 310.050909 133.27911 
L 311.214545 134.704228 
L 312.378182 139.657831 
L 313.541818 148.355624 
L 314.705455 143.624815 
L 315.869091 145.269911 
L 317.032727 156.09232 
L 318.196364 137.93235 
L 319.36 131.559324 
L 320.523636 146.350773 
L 321.687273 153.299099 
L 322.850909 150.29414 
L 324.014545 145.928923 
L 325.178182 148.171526 
L 326.341818 141.043375 
L 327.505455 138.753653 
L 328.669091 119.010741 
L 329.832727 135.076849 
L 330.996364 118.90166 
L 332.16 133.003696 
L 333.323636 127.129825 
L 334.487273 133.11019 
L 335.650909 142.349815 
L 336.814545 137.830248 
L 337.978182 117.880383 
L 339.141818 116.17426 
L 340.305455 122.319819 
L 341.469091 104.517813 
L 342.632727 118.795213 
L 343.796364 116.7674 
L 344.96 131.10613 
L 346.123636 127.017947 
L 347.287273 113.687794 
L 348.450909 117.827798 
L 349.614545 125.936277 
L 350.778182 136.17656 
L 351.941818 118.946618 
L 353.105455 132.79551 
L 354.269091 105.779253 
L 355.432727 115.877543 
L 356.596364 120.360435 
L 357.76 101.299119 
L 358.923636 120.318038 
L 360.087273 120.458412 
L 361.250909 109.607254 
L 362.414545 96.477953 
L 363.578182 129.10023 
L 364.741818 112.716167 
L 365.905455 137.074259 
L 367.069091 144.104089 
L 368.232727 133.288069 
L 369.396364 124.931419 
L 370.56 135.797139 
L 371.723636 147.773525 
L 372.887273 153.923642 
L 374.050909 149.075462 
L 375.214545 124.204189 
L 376.378182 134.325338 
L 377.541818 127.580558 
L 378.705455 130.148484 
L 379.869091 115.928217 
L 381.032727 107.347393 
L 382.196364 129.175678 
L 383.36 109.553594 
L 384.523636 136.137939 
L 385.687273 115.04439 
L 386.850909 86.589687 
L 389.178182 133.738018 
L 390.341818 103.856167 
L 391.505455 118.236966 
L 392.669091 125.18471 
L 393.832727 112.730238 
L 394.996364 73.961325 
L 396.16 110.95049 
L 397.323636 98.586706 
L 398.487273 112.609962 
L 398.487273 112.609962 
" style="fill:none;stroke:#ff0000;stroke-linecap:square;stroke-width:1.5;"/>
   </g>
   <g id="patch_3">
    <path d="M 57.6 307.584 
L 57.6 41.472 
" style="fill:none;stroke:#000000;stroke-linecap:square;stroke-linejoin:miter;stroke-width:0.8;"/>
   </g>
   <g id="patch_4">
    <path d="M 414.72 307.584 
L 414.72 41.472 
" style="fill:none;stroke:#000000;stroke-linecap:square;stroke-linejoin:miter;stroke-width:0.8;"/>
   </g>
   <g id="patch_5">
    <path d="M 57.6 307.584 
L 414.72 307.584 
" style="fill:none;stroke:#000000;stroke-linecap:square;stroke-linejoin:miter;stroke-width:0.8;"/>
   </g>
   <g id="patch_6">
    <path d="M 57.6 41.472 
L 414.72 41.472 
" style="fill:none;stroke:#000000;stroke-linecap:square;stroke-linejoin:miter;stroke-width:0.8;"/>
   </g>
   <g id="text_10">
    <!-- Population's average and best fitness -->
    <g transform="translate(123.529687 35.472)scale(0.12 -0.12)">
     <defs>
      <path d="M 19.671875 64.796875 
L 19.671875 37.40625 
L 32.078125 37.40625 
Q 38.96875 37.40625 42.71875 40.96875 
Q 46.484375 44.53125 46.484375 51.125 
Q 46.484375 57.671875 42.71875 61.234375 
Q 38.96875 64.796875 32.078125 64.796875 
z
M 9.8125 72.90625 
L 32.078125 72.90625 
Q 44.34375 72.90625 50.609375 67.359375 
Q 56.890625 61.8125 56.890625 51.125 
Q 56.890625 40.328125 50.609375 34.8125 
Q 44.34375 29.296875 32.078125 29.296875 
L 19.671875 29.296875 
L 19.671875 0 
L 9.8125 0 
z
" id="DejaVuSans-80"/>
      <path d="M 18.109375 8.203125 
L 18.109375 -20.796875 
L 9.078125 -20.796875 
L 9.078125 54.6875 
L 18.109375 54.6875 
L 18.109375 46.390625 
Q 20.953125 51.265625 25.265625 53.625 
Q 29.59375 56 35.59375 56 
Q 45.5625 56 51.78125 48.09375 
Q 58.015625 40.1875 58.015625 27.296875 
Q 58.015625 14.40625 51.78125 6.484375 
Q 45.5625 -1.421875 35.59375 -1.421875 
Q 29.59375 -1.421875 25.265625 0.953125 
Q 20.953125 3.328125 18.109375 8.203125 
z
M 48.6875 27.296875 
Q 48.6875 37.203125 44.609375 42.84375 
Q 40.53125 48.484375 33.40625 48.484375 
Q 26.265625 48.484375 22.1875 42.84375 
Q 18.109375 37.203125 18.109375 27.296875 
Q 18.109375 17.390625 22.1875 11.75 
Q 26.265625 6.109375 33.40625 6.109375 
Q 40.53125 6.109375 44.609375 11.75 
Q 48.6875 17.390625 48.6875 27.296875 
z
" id="DejaVuSans-112"/>
      <path d="M 8.5 21.578125 
L 8.5 54.6875 
L 17.484375 54.6875 
L 17.484375 21.921875 
Q 17.484375 14.15625 20.5 10.265625 
Q 23.53125 6.390625 29.59375 6.390625 
Q 36.859375 6.390625 41.078125 11.03125 
Q 45.3125 15.671875 45.3125 23.6875 
L 45.3125 54.6875 
L 54.296875 54.6875 
L 54.296875 0 
L 45.3125 0 
L 45.3125 8.40625 
Q 42.046875 3.421875 37.71875 1 
Q 33.40625 -1.421875 27.6875 -1.421875 
Q 18.265625 -1.421875 13.375 4.4375 
Q 8.5 10.296875 8.5 21.578125 
z
M 31.109375 56 
z
" id="DejaVuSans-117"/>
      <path d="M 9.421875 75.984375 
L 18.40625 75.984375 
L 18.40625 0 
L 9.421875 0 
z
" id="DejaVuSans-108"/>
      <path d="M 17.921875 72.90625 
L 17.921875 45.796875 
L 9.625 45.796875 
L 9.625 72.90625 
z
" id="DejaVuSans-39"/>
      <path id="DejaVuSans-32"/>
      <path d="M 2.984375 54.6875 
L 12.5 54.6875 
L 29.59375 8.796875 
L 46.6875 54.6875 
L 56.203125 54.6875 
L 35.6875 0 
L 23.484375 0 
z
" id="DejaVuSans-118"/>
      <path d="M 45.40625 27.984375 
Q 45.40625 37.75 41.375 43.109375 
Q 37.359375 48.484375 30.078125 48.484375 
Q 22.859375 48.484375 18.828125 43.109375 
Q 14.796875 37.75 14.796875 27.984375 
Q 14.796875 18.265625 18.828125 12.890625 
Q 22.859375 7.515625 30.078125 7.515625 
Q 37.359375 7.515625 41.375 12.890625 
Q 45.40625 18.265625 45.40625 27.984375 
z
M 54.390625 6.78125 
Q 54.390625 -7.171875 48.1875 -13.984375 
Q 42 -20.796875 29.203125 -20.796875 
Q 24.46875 -20.796875 20.265625 -20.09375 
Q 16.0625 -19.390625 12.109375 -17.921875 
L 12.109375 -9.1875 
Q 16.0625 -11.328125 19.921875 -12.34375 
Q 23.78125 -13.375 27.78125 -13.375 
Q 36.625 -13.375 41.015625 -8.765625 
Q 45.40625 -4.15625 45.40625 5.171875 
L 45.40625 9.625 
Q 42.625 4.78125 38.28125 2.390625 
Q 33.9375 0 27.875 0 
Q 17.828125 0 11.671875 7.65625 
Q 5.515625 15.328125 5.515625 27.984375 
Q 5.515625 40.671875 11.671875 48.328125 
Q 17.828125 56 27.875 56 
Q 33.9375 56 38.28125 53.609375 
Q 42.625 51.21875 45.40625 46.390625 
L 45.40625 54.6875 
L 54.390625 54.6875 
z
" id="DejaVuSans-103"/>
      <path d="M 45.40625 46.390625 
L 45.40625 75.984375 
L 54.390625 75.984375 
L 54.390625 0 
L 45.40625 0 
L 45.40625 8.203125 
Q 42.578125 3.328125 38.25 0.953125 
Q 33.9375 -1.421875 27.875 -1.421875 
Q 17.96875 -1.421875 11.734375 6.484375 
Q 5.515625 14.40625 5.515625 27.296875 
Q 5.515625 40.1875 11.734375 48.09375 
Q 17.96875 56 27.875 56 
Q 33.9375 56 38.25 53.625 
Q 42.578125 51.265625 45.40625 46.390625 
z
M 14.796875 27.296875 
Q 14.796875 17.390625 18.875 11.75 
Q 22.953125 6.109375 30.078125 6.109375 
Q 37.203125 6.109375 41.296875 11.75 
Q 45.40625 17.390625 45.40625 27.296875 
Q 45.40625 37.203125 41.296875 42.84375 
Q 37.203125 48.484375 30.078125 48.484375 
Q 22.953125 48.484375 18.875 42.84375 
Q 14.796875 37.203125 14.796875 27.296875 
z
" id="DejaVuSans-100"/>
      <path d="M 48.6875 27.296875 
Q 48.6875 37.203125 44.609375 42.84375 
Q 40.53125 48.484375 33.40625 48.484375 
Q 26.265625 48.484375 22.1875 42.84375 
Q 18.109375 37.203125 18.109375 27.296875 
Q 18.109375 17.390625 22.1875 11.75 
Q 26.265625 6.109375 33.40625 6.109375 
Q 40.53125 6.109375 44.609375 11.75 
Q 48.6875 17.390625 48.6875 27.296875 
z
M 18.109375 46.390625 
Q 20.953125 51.265625 25.265625 53.625 
Q 29.59375 56 35.59375 56 
Q 45.5625 56 51.78125 48.09375 
Q 58.015625 40.1875 58.015625 27.296875 
Q 58.015625 14.40625 51.78125 6.484375 
Q 45.5625 -1.421875 35.59375 -1.421875 
Q 29.59375 -1.421875 25.265625 0.953125 
Q 20.953125 3.328125 18.109375 8.203125 
L 18.109375 0 
L 9.078125 0 
L 9.078125 75.984375 
L 18.109375 75.984375 
z
" id="DejaVuSans-98"/>
      <path d="M 37.109375 75.984375 
L 37.109375 68.5 
L 28.515625 68.5 
Q 23.6875 68.5 21.796875 66.546875 
Q 19.921875 64.59375 19.921875 59.515625 
L 19.921875 54.6875 
L 34.71875 54.6875 
L 34.71875 47.703125 
L 19.921875 47.703125 
L 19.921875 0 
L 10.890625 0 
L 10.890625 47.703125 
L 2.296875 47.703125 
L 2.296875 54.6875 
L 10.890625 54.6875 
L 10.890625 58.5 
Q 10.890625 67.625 15.140625 71.796875 
Q 19.390625 75.984375 28.609375 75.984375 
z
" id="DejaVuSans-102"/>
     </defs>
     <use xlink:href="#DejaVuSans-80"/>
     <use x="56.677734" xlink:href="#DejaVuSans-111"/>
     <use x="117.859375" xlink:href="#DejaVuSans-112"/>
     <use x="181.335938" xlink:href="#DejaVuSans-117"/>
     <use x="244.714844" xlink:href="#DejaVuSans-108"/>
     <use x="272.498047" xlink:href="#DejaVuSans-97"/>
     <use x="333.777344" xlink:href="#DejaVuSans-116"/>
     <use x="372.986328" xlink:href="#DejaVuSans-105"/>
     <use x="400.769531" xlink:href="#DejaVuSans-111"/>
     <use x="461.951172" xlink:href="#DejaVuSans-110"/>
     <use x="525.330078" xlink:href="#DejaVuSans-39"/>
     <use x="552.820312" xlink:href="#DejaVuSans-115"/>
     <use x="604.919922" xlink:href="#DejaVuSans-32"/>
     <use x="636.707031" xlink:href="#DejaVuSans-97"/>
     <use x="697.986328" xlink:href="#DejaVuSans-118"/>
     <use x="757.166016" xlink:href="#DejaVuSans-101"/>
     <use x="818.689453" xlink:href="#DejaVuSans-114"/>
     <use x="859.802734" xlink:href="#DejaVuSans-97"/>
     <use x="921.082031" xlink:href="#DejaVuSans-103"/>
     <use x="984.558594" xlink:href="#DejaVuSans-101"/>
     <use x="1046.082031" xlink:href="#DejaVuSans-32"/>
     <use x="1077.869141" xlink:href="#DejaVuSans-97"/>
     <use x="1139.148438" xlink:href="#DejaVuSans-110"/>
     <use x="1202.527344" xlink:href="#DejaVuSans-100"/>
     <use x="1266.003906" xlink:href="#DejaVuSans-32"/>
     <use x="1297.791016" xlink:href="#DejaVuSans-98"/>
     <use x="1361.267578" xlink:href="#DejaVuSans-101"/>
     <use x="1422.791016" xlink:href="#DejaVuSans-115"/>
     <use x="1474.890625" xlink:href="#DejaVuSans-116"/>
     <use x="1514.099609" xlink:href="#DejaVuSans-32"/>
     <use x="1545.886719" xlink:href="#DejaVuSans-102"/>
     <use x="1581.091797" xlink:href="#DejaVuSans-105"/>
     <use x="1608.875" xlink:href="#DejaVuSans-116"/>
     <use x="1648.083984" xlink:href="#DejaVuSans-110"/>
     <use x="1711.462891" xlink:href="#DejaVuSans-101"/>
     <use x="1772.986328" xlink:href="#DejaVuSans-115"/>
     <use x="1825.085938" xlink:href="#DejaVuSans-115"/>
    </g>
   </g>
   <g id="legend_1">
    <g id="patch_7">
     <path d="M 334.779375 302.584 
L 407.72 302.584 
Q 409.72 302.584 409.72 300.584 
L 409.72 272.22775 
Q 409.72 270.22775 407.72 270.22775 
L 334.779375 270.22775 
Q 332.779375 270.22775 332.779375 272.22775 
L 332.779375 300.584 
Q 332.779375 302.584 334.779375 302.584 
z
" style="fill:#ffffff;opacity:0.8;stroke:#cccccc;stroke-linejoin:miter;"/>
    </g>
    <g id="line2d_17">
     <path d="M 336.779375 278.326187 
L 356.779375 278.326187 
" style="fill:none;stroke:#0000ff;stroke-linecap:square;stroke-width:1.5;"/>
    </g>
    <g id="line2d_18"/>
    <g id="text_11">
     <!-- average -->
     <g transform="translate(364.779375 281.826187)scale(0.1 -0.1)">
      <use xlink:href="#DejaVuSans-97"/>
      <use x="61.279297" xlink:href="#DejaVuSans-118"/>
      <use x="120.458984" xlink:href="#DejaVuSans-101"/>
      <use x="181.982422" xlink:href="#DejaVuSans-114"/>
      <use x="223.095703" xlink:href="#DejaVuSans-97"/>
      <use x="284.375" xlink:href="#DejaVuSans-103"/>
      <use x="347.851562" xlink:href="#DejaVuSans-101"/>
     </g>
    </g>
    <g id="line2d_19">
     <path d="M 336.779375 293.004312 
L 356.779375 293.004312 
" style="fill:none;stroke:#ff0000;stroke-linecap:square;stroke-width:1.5;"/>
    </g>
    <g id="line2d_20"/>
    <g id="text_12">
     <!-- best -->
     <g transform="translate(364.779375 296.504312)scale(0.1 -0.1)">
      <use xlink:href="#DejaVuSans-98"/>
      <use x="63.476562" xlink:href="#DejaVuSans-101"/>
      <use x="125" xlink:href="#DejaVuSans-115"/>
      <use x="177.099609" xlink:href="#DejaVuSans-116"/>
     </g>
    </g>
   </g>
  </g>
 </g>
 <defs>
  <clipPath id="pa2bacae2e3">
   <rect height="266.112" width="357.12" x="57.6" y="41.472"/>
  </clipPath>
 </defs>
</svg>
