<?xml version="1.0" encoding="UTF-8" standalone="no"?>
<!DOCTYPE svg PUBLIC "-//W3C//DTD SVG 1.1//EN"
 "http://www.w3.org/Graphics/SVG/1.1/DTD/svg11.dtd">
<!-- Generated by graphviz version 2.40.1 (20161225.0304)
 -->
<!-- Title: %3 Pages: 1 -->
<svg width="929pt" height="391pt"
 viewBox="0.00 0.00 928.50 390.62" xmlns="http://www.w3.org/2000/svg" xmlns:xlink="http://www.w3.org/1999/xlink">
<g id="graph0" class="graph" transform="scale(1 1) rotate(0) translate(4 386.6173)">
<title>%3</title>
<polygon fill="#ffffff" stroke="transparent" points="-4,4 -4,-386.6173 924.5,-386.6173 924.5,4 -4,4"/>
<!-- x&#45;vel -->
<g id="node1" class="node">
<title>x&#45;vel</title>
<polygon fill="#d3d3d3" stroke="#000000" points="106,-237.9777 71,-237.9777 71,-219.9777 106,-219.9777 106,-237.9777"/>
<text text-anchor="middle" x="88.5" y="-226.7777" font-family="Times,serif" font-size="9.00" fill="#000000">x&#45;vel</text>
</g>
<!-- right -->
<g id="node14" class="node">
<title>right</title>
<ellipse fill="#add8e6" stroke="#000000" cx="286.5" cy="-139.9447" rx="23.1702" ry="23.1702"/>
<text text-anchor="middle" x="286.5" y="-137.7447" font-family="Times,serif" font-size="9.00" fill="#000000">right</text>
</g>
<!-- x&#45;vel&#45;&gt;right -->
<g id="edge6" class="edge">
<title>x&#45;vel&#45;&gt;right</title>
<path fill="none" stroke="#00ff00" stroke-width=".3292" stroke-dasharray="1,5" d="M98.0107,-219.807C102.686,-215.6834 108.5794,-211.0225 114.5,-207.7645 158.8283,-183.3718 175.7332,-191.0742 222.5,-171.7645 233.9435,-167.0396 246.1884,-161.1643 256.8718,-155.753"/>
<polygon fill="#00ff00" stroke="#00ff00" stroke-width=".3292" points="258.5097,-158.8465 265.799,-151.1577 255.3059,-152.6227 258.5097,-158.8465"/>
</g>
<!-- left -->
<g id="node15" class="node">
<title>left</title>
<ellipse fill="#add8e6" stroke="#000000" cx="193.5" cy="-139.9447" rx="19.6" ry="19.6"/>
<text text-anchor="middle" x="193.5" y="-137.7447" font-family="Times,serif" font-size="9.00" fill="#000000">left</text>
</g>
<!-- x&#45;vel&#45;&gt;left -->
<g id="edge24" class="edge">
<title>x&#45;vel&#45;&gt;left</title>
<path fill="none" stroke="#00ff00" stroke-width=".2379" d="M99.2621,-219.9536C103.8993,-216.129 109.4148,-211.664 114.5,-207.7645 136.2295,-191.1015 144.0562,-189.982 164.5,-171.7645 167.5517,-169.0451 170.623,-166.0355 173.5662,-162.9837"/>
<polygon fill="#00ff00" stroke="#00ff00" stroke-width=".2379" points="176.3123,-165.1694 180.5346,-155.4522 171.1742,-160.4155 176.3123,-165.1694"/>
</g>
<!-- y&#45;vel -->
<g id="node2" class="node">
<title>y&#45;vel</title>
<polygon fill="#d3d3d3" stroke="#000000" points="775,-237.9777 740,-237.9777 740,-219.9777 775,-219.9777 775,-237.9777"/>
<text text-anchor="middle" x="757.5" y="-226.7777" font-family="Times,serif" font-size="9.00" fill="#000000">y&#45;vel</text>
</g>
<!-- none -->
<g id="node13" class="node">
<title>none</title>
<ellipse fill="#add8e6" stroke="#000000" cx="537.5" cy="-139.9447" rx="24.0833" ry="24.0833"/>
<text text-anchor="middle" x="537.5" y="-137.7447" font-family="Times,serif" font-size="9.00" fill="#000000">none</text>
</g>
<!-- y&#45;vel&#45;&gt;none -->
<g id="edge5" class="edge">
<title>y&#45;vel&#45;&gt;none</title>
<path fill="none" stroke="#00ff00" stroke-width="1.0358" d="M747.6236,-219.7232C742.7685,-215.5813 736.6484,-210.9291 730.5,-207.7645 679.8547,-181.6974 660.8947,-191.6 607.5,-171.7645 594.466,-166.9225 580.4506,-160.7533 568.4099,-155.1383"/>
<polygon fill="#00ff00" stroke="#00ff00" stroke-width="1.0358" points="569.7689,-151.9092 559.2334,-150.7899 566.7714,-158.235 569.7689,-151.9092"/>
</g>
<!-- y&#45;vel&#45;&gt;right -->
<g id="edge31" class="edge">
<title>y&#45;vel&#45;&gt;right</title>
<path fill="none" stroke="#ff0000" stroke-width="1.1359" d="M748.2937,-219.7854C743.407,-215.4466 737.0641,-210.6078 730.5,-207.7645 720.9977,-203.6485 421.3963,-159.6438 319.8075,-144.8013"/>
<polygon fill="#ff0000" stroke="#ff0000" stroke-width="1.1359" points="320.1885,-141.3199 309.7877,-143.3382 319.177,-148.2465 320.1885,-141.3199"/>
</g>
<!-- forward -->
<g id="node16" class="node">
<title>forward</title>
<ellipse fill="#add8e6" stroke="#000000" cx="648.5" cy="-139.9447" rx="31.6406" ry="31.6406"/>
<text text-anchor="middle" x="648.5" y="-137.7447" font-family="Times,serif" font-size="9.00" fill="#000000">forward</text>
</g>
<!-- y&#45;vel&#45;&gt;forward -->
<g id="edge1" class="edge">
<title>y&#45;vel&#45;&gt;forward</title>
<path fill="none" stroke="#00ff00" stroke-width=".9434" stroke-dasharray="1,5" d="M746.2456,-219.7849C731.0342,-207.36 703.2786,-184.6888 681.2203,-166.6712"/>
<polygon fill="#00ff00" stroke="#00ff00" stroke-width=".9434" points="683.344,-163.8867 673.3851,-160.2713 678.9158,-169.308 683.344,-163.8867"/>
</g>
<!-- backward -->
<g id="node17" class="node">
<title>backward</title>
<ellipse fill="#add8e6" stroke="#000000" cx="485.5" cy="-36.0624" rx="36.125" ry="36.125"/>
<text text-anchor="middle" x="485.5" y="-33.8624" font-family="Times,serif" font-size="9.00" fill="#000000">backward</text>
</g>
<!-- y&#45;vel&#45;&gt;backward -->
<g id="edge3" class="edge">
<title>y&#45;vel&#45;&gt;backward</title>
<path fill="none" stroke="#00ff00" stroke-width=".1532" d="M752.597,-219.8584C737.8126,-192.4157 694.384,-112.2296 689.5,-108.1249 643.7495,-69.674 576.0678,-51.1825 531.3881,-42.693"/>
<polygon fill="#00ff00" stroke="#00ff00" stroke-width=".1532" points="531.85,-39.2198 521.3871,-40.8865 530.6056,-46.1084 531.85,-39.2198"/>
</g>
<!-- 354 -->
<g id="node19" class="node">
<title>354</title>
<ellipse fill="#ffffff" stroke="#000000" cx="757.5" cy="-139.9447" rx="21.4286" ry="21.4286"/>
<text text-anchor="middle" x="757.5" y="-137.7447" font-family="Times,serif" font-size="9.00" fill="#000000">354</text>
</g>
<!-- y&#45;vel&#45;&gt;354 -->
<g id="edge37" class="edge">
<title>y&#45;vel&#45;&gt;354</title>
<path fill="none" stroke="#ff0000" stroke-width=".1138" d="M757.5,-219.7849C757.5,-208.4527 757.5,-188.5971 757.5,-171.5226"/>
<polygon fill="#ff0000" stroke="#ff0000" stroke-width=".1138" points="761.0001,-171.3517 757.5,-161.3517 754.0001,-171.3518 761.0001,-171.3517"/>
</g>
<!-- x&#45;pos -->
<g id="node3" class="node">
<title>x&#45;pos</title>
<polygon fill="#d3d3d3" stroke="#000000" points="231.5,-237.9777 195.5,-237.9777 195.5,-219.9777 231.5,-219.9777 231.5,-237.9777"/>
<text text-anchor="middle" x="213.5" y="-226.7777" font-family="Times,serif" font-size="9.00" fill="#000000">x&#45;pos</text>
</g>
<!-- x&#45;pos&#45;&gt;none -->
<g id="edge29" class="edge">
<title>x&#45;pos&#45;&gt;none</title>
<path fill="none" stroke="#00ff00" stroke-width=".9333" d="M231.848,-223.9358C284.563,-209.4501 436.9937,-167.5631 504.5725,-148.993"/>
<polygon fill="#00ff00" stroke="#00ff00" stroke-width=".9333" points="505.5689,-152.349 514.2841,-146.3243 503.7141,-145.5992 505.5689,-152.349"/>
</g>
<!-- x&#45;pos&#45;&gt;right -->
<g id="edge23" class="edge">
<title>x&#45;pos&#45;&gt;right</title>
<path fill="none" stroke="#00ff00" stroke-width=".1165" d="M221.0373,-219.7849C231.3358,-207.2247 250.2195,-184.1935 265.0679,-166.0839"/>
<polygon fill="#00ff00" stroke="#00ff00" stroke-width=".1165" points="267.9269,-168.1171 271.5609,-158.1649 262.5138,-163.6788 267.9269,-168.1171"/>
</g>
<!-- x&#45;pos&#45;&gt;left -->
<g id="edge8" class="edge">
<title>x&#45;pos&#45;&gt;left</title>
<path fill="none" stroke="#00ff00" stroke-width=".2051" d="M211.435,-219.7849C208.7819,-207.9744 204.0491,-186.9058 200.1114,-169.3762"/>
<polygon fill="#00ff00" stroke="#00ff00" stroke-width=".2051" points="203.5132,-168.5506 197.9065,-159.5608 196.6834,-170.0848 203.5132,-168.5506"/>
</g>
<!-- 329 -->
<g id="node20" class="node">
<title>329</title>
<ellipse fill="#ffffff" stroke="#000000" cx="134.5" cy="-139.9447" rx="21.4286" ry="21.4286"/>
<text text-anchor="middle" x="134.5" y="-137.7447" font-family="Times,serif" font-size="9.00" fill="#000000">329</text>
</g>
<!-- x&#45;pos&#45;&gt;329 -->
<g id="edge39" class="edge">
<title>x&#45;pos&#45;&gt;329</title>
<path fill="none" stroke="#ff0000" stroke-width=".2782" d="M205.3432,-219.7849C193.788,-206.7623 172.2454,-182.4838 155.9376,-164.1049"/>
<polygon fill="#ff0000" stroke="#ff0000" stroke-width=".2782" points="158.1229,-161.2943 148.8679,-156.1373 152.8869,-165.9402 158.1229,-161.2943"/>
</g>
<!-- y&#45;pos -->
<g id="node4" class="node">
<title>y&#45;pos</title>
<polygon fill="#d3d3d3" stroke="#000000" points="509.5,-237.9777 473.5,-237.9777 473.5,-219.9777 509.5,-219.9777 509.5,-237.9777"/>
<text text-anchor="middle" x="491.5" y="-226.7777" font-family="Times,serif" font-size="9.00" fill="#000000">y&#45;pos</text>
</g>
<!-- y&#45;pos&#45;&gt;none -->
<g id="edge13" class="edge">
<title>y&#45;pos&#45;&gt;none</title>
<path fill="none" stroke="#00ff00" stroke-width=".38" d="M496.2496,-219.7849C502.215,-208.2389 512.7518,-187.8448 521.6827,-170.5591"/>
<polygon fill="#00ff00" stroke="#00ff00" stroke-width=".38" points="524.9591,-171.8426 526.4398,-161.3517 518.7401,-168.6294 524.9591,-171.8426"/>
</g>
<!-- y&#45;pos&#45;&gt;left -->
<g id="edge20" class="edge">
<title>y&#45;pos&#45;&gt;left</title>
<path fill="none" stroke="#00ff00" stroke-width=".3613" stroke-dasharray="1,5" d="M482.2716,-219.8359C477.3792,-215.51 471.038,-210.6674 464.5,-207.7645 377.9528,-169.3367 344.2288,-202.0276 254.5,-171.7645 242.4197,-167.6901 229.809,-161.4819 219.2101,-155.6275"/>
<polygon fill="#00ff00" stroke="#00ff00" stroke-width=".3613" points="220.8964,-152.56 210.4777,-150.6363 217.4227,-158.6373 220.8964,-152.56"/>
</g>
<!-- y&#45;pos&#45;&gt;forward -->
<g id="edge14" class="edge">
<title>y&#45;pos&#45;&gt;forward</title>
<path fill="none" stroke="#ff0000" stroke-width=".2855" d="M507.418,-219.9508C531.7168,-206.1712 578.7172,-179.5178 611.7732,-160.7721"/>
<polygon fill="#ff0000" stroke="#ff0000" stroke-width=".2855" points="613.7243,-163.6893 620.6964,-155.7118 610.2712,-157.6002 613.7243,-163.6893"/>
</g>
<!-- y&#45;pos&#45;&gt;backward -->
<g id="edge11" class="edge">
<title>y&#45;pos&#45;&gt;backward</title>
<path fill="none" stroke="#ff0000" stroke-width=".3488" d="M491.2187,-219.9318C490.4669,-195.7619 488.3714,-128.3851 486.9371,-82.2694"/>
<polygon fill="#ff0000" stroke="#ff0000" stroke-width=".3488" points="490.4332,-82.0852 486.6239,-72.1989 483.4366,-82.3029 490.4332,-82.0852"/>
</g>
<!-- x&#45;lm1&#45;vec -->
<g id="node5" class="node">
<title>x&#45;lm1&#45;vec</title>
<polygon fill="#d3d3d3" stroke="#000000" points="177,-237.9777 124,-237.9777 124,-219.9777 177,-219.9777 177,-237.9777"/>
<text text-anchor="middle" x="150.5" y="-226.7777" font-family="Times,serif" font-size="9.00" fill="#000000">x&#45;lm1&#45;vec</text>
</g>
<!-- x&#45;lm1&#45;vec&#45;&gt;right -->
<g id="edge7" class="edge">
<title>x&#45;lm1&#45;vec&#45;&gt;right</title>
<path fill="none" stroke="#00ff00" stroke-width=".619" d="M164.2888,-219.9508C186.198,-205.6079 229.4128,-177.3171 258.1347,-158.5142"/>
<polygon fill="#00ff00" stroke="#00ff00" stroke-width=".619" points="260.0939,-161.4149 266.5434,-153.0093 256.2598,-155.5583 260.0939,-161.4149"/>
</g>
<!-- x&#45;lm1&#45;vec&#45;&gt;left -->
<g id="edge18" class="edge">
<title>x&#45;lm1&#45;vec&#45;&gt;left</title>
<path fill="none" stroke="#00ff00" stroke-width=".1424" stroke-dasharray="1,5" d="M154.9398,-219.7849C160.8783,-207.4892 171.663,-185.1589 180.32,-167.2344"/>
<polygon fill="#00ff00" stroke="#00ff00" stroke-width=".1424" points="183.6688,-168.3483 184.8662,-157.8213 177.3654,-165.3039 183.6688,-168.3483"/>
</g>
<!-- y&#45;lm1&#45;vec -->
<g id="node6" class="node">
<title>y&#45;lm1&#45;vec</title>
<polygon fill="#d3d3d3" stroke="#000000" points="846,-237.9777 793,-237.9777 793,-219.9777 846,-219.9777 846,-237.9777"/>
<text text-anchor="middle" x="819.5" y="-226.7777" font-family="Times,serif" font-size="9.00" fill="#000000">y&#45;lm1&#45;vec</text>
</g>
<!-- y&#45;lm1&#45;vec&#45;&gt;forward -->
<g id="edge2" class="edge">
<title>y&#45;lm1&#45;vec&#45;&gt;forward</title>
<path fill="none" stroke="#ff0000" stroke-width=".3934" stroke-dasharray="1,5" d="M805.0121,-219.8298C798.7697,-215.9844 791.345,-211.5372 784.5,-207.7645 752.0486,-189.8784 714.2721,-171.2058 686.7798,-157.9926"/>
<polygon fill="#ff0000" stroke="#ff0000" stroke-width=".3934" points="688.0412,-154.7162 677.5099,-153.5569 685.0197,-161.0305 688.0412,-154.7162"/>
</g>
<!-- x&#45;lm2&#45;vec -->
<g id="node7" class="node">
<title>x&#45;lm2&#45;vec</title>
<polygon fill="#d3d3d3" stroke="#000000" points="53,-237.9777 0,-237.9777 0,-219.9777 53,-219.9777 53,-237.9777"/>
<text text-anchor="middle" x="26.5" y="-226.7777" font-family="Times,serif" font-size="9.00" fill="#000000">x&#45;lm2&#45;vec</text>
</g>
<!-- x&#45;lm2&#45;vec&#45;&gt;none -->
<g id="edge15" class="edge">
<title>x&#45;lm2&#45;vec&#45;&gt;none</title>
<path fill="none" stroke="#ff0000" stroke-width=".1948" stroke-dasharray="1,5" d="M38.8375,-219.7993C45.275,-215.4641 53.4675,-210.6243 61.5,-207.7645 170.1566,-169.0804 204.3191,-188.0565 318.5,-171.7645 384.0317,-162.414 460.553,-151.2366 503.5881,-144.9268"/>
<polygon fill="#ff0000" stroke="#ff0000" stroke-width=".1948" points="504.1392,-148.3835 513.5253,-143.4691 503.1231,-141.4576 504.1392,-148.3835"/>
</g>
<!-- x&#45;lm2&#45;vec&#45;&gt;right -->
<g id="edge12" class="edge">
<title>x&#45;lm2&#45;vec&#45;&gt;right</title>
<path fill="none" stroke="#00ff00" stroke-width=".1423" d="M39.2655,-219.8583C45.6775,-215.6448 53.7214,-210.8934 61.5,-207.7645 129.5256,-180.4019 153.3917,-196.2642 222.5,-171.7645 234.169,-167.6277 246.4636,-161.8821 257.1238,-156.4101"/>
<polygon fill="#00ff00" stroke="#00ff00" stroke-width=".1423" points="258.8032,-159.4814 266.0142,-151.7192 255.5365,-153.2903 258.8032,-159.4814"/>
</g>
<!-- x&#45;lm2&#45;vec&#45;&gt;left -->
<g id="edge17" class="edge">
<title>x&#45;lm2&#45;vec&#45;&gt;left</title>
<path fill="none" stroke="#ff0000" stroke-width="1.4664" d="M40.0969,-219.8263C46.4314,-215.8032 54.1734,-211.2188 61.5,-207.7645 105.3628,-187.0845 124.0434,-198.5015 164.5,-171.7645 168.0777,-169.4001 171.5084,-166.4972 174.6783,-163.4159"/>
<polygon fill="#ff0000" stroke="#ff0000" stroke-width="1.4664" points="177.2725,-165.7661 181.5478,-156.0721 172.1604,-160.9841 177.2725,-165.7661"/>
</g>
<!-- x&#45;lm2&#45;vec&#45;&gt;backward -->
<g id="edge21" class="edge">
<title>x&#45;lm2&#45;vec&#45;&gt;backward</title>
<path fill="none" stroke="#00ff00" stroke-width=".1722" d="M29.4966,-219.9022C37.5598,-197.0087 62.0276,-136.7038 104.5,-108.1249 158.7618,-71.6132 350.1459,-49.0121 439.2378,-40.2392"/>
<polygon fill="#00ff00" stroke="#00ff00" stroke-width=".1722" points="439.7084,-43.7101 449.3243,-39.2622 439.0334,-36.7427 439.7084,-43.7101"/>
</g>
<!-- x&#45;lm2&#45;vec&#45;&gt;329 -->
<g id="edge35" class="edge">
<title>x&#45;lm2&#45;vec&#45;&gt;329</title>
<path fill="none" stroke="#ff0000" stroke-width=".574" d="M37.6511,-219.7849C54.6429,-205.7772 87.4323,-178.7464 110.1203,-160.0428"/>
<polygon fill="#ff0000" stroke="#ff0000" stroke-width=".574" points="112.4843,-162.63 117.974,-153.5684 108.0316,-157.2287 112.4843,-162.63"/>
</g>
<!-- y&#45;lm2&#45;vec -->
<g id="node8" class="node">
<title>y&#45;lm2&#45;vec</title>
<polygon fill="#d3d3d3" stroke="#000000" points="455,-237.9777 402,-237.9777 402,-219.9777 455,-219.9777 455,-237.9777"/>
<text text-anchor="middle" x="428.5" y="-226.7777" font-family="Times,serif" font-size="9.00" fill="#000000">y&#45;lm2&#45;vec</text>
</g>
<!-- y&#45;lm2&#45;vec&#45;&gt;none -->
<g id="edge4" class="edge">
<title>y&#45;lm2&#45;vec&#45;&gt;none</title>
<path fill="none" stroke="#ff0000" stroke-width=".1879" d="M439.7544,-219.7849C456.4191,-206.1729 488.1395,-180.2632 510.9302,-161.6473"/>
<polygon fill="#ff0000" stroke="#ff0000" stroke-width=".1879" points="513.3477,-164.1919 518.8783,-155.1552 508.9194,-158.7706 513.3477,-164.1919"/>
</g>
<!-- y&#45;lm2&#45;vec&#45;&gt;right -->
<g id="edge32" class="edge">
<title>y&#45;lm2&#45;vec&#45;&gt;right</title>
<path fill="none" stroke="#ff0000" stroke-width=".1416" d="M414.1028,-219.9508C390.9715,-205.4476 345.0946,-176.6831 315.1172,-157.8875"/>
<polygon fill="#ff0000" stroke="#ff0000" stroke-width=".1416" points="316.6988,-154.7481 306.3671,-152.4012 312.9803,-160.6787 316.6988,-154.7481"/>
</g>
<!-- y&#45;lm2&#45;vec&#45;&gt;backward -->
<g id="edge10" class="edge">
<title>y&#45;lm2&#45;vec&#45;&gt;backward</title>
<path fill="none" stroke="#ff0000" stroke-width="1.3116" d="M431.1728,-219.9318C438.3907,-195.5029 458.6498,-126.9363 472.2832,-80.7944"/>
<polygon fill="#ff0000" stroke="#ff0000" stroke-width="1.3116" points="475.6924,-81.6078 475.1695,-71.0259 468.9793,-79.6243 475.6924,-81.6078"/>
</g>
<!-- x&#45;other&#45;vec -->
<g id="node9" class="node">
<title>x&#45;other&#45;vec</title>
<polygon fill="#d3d3d3" stroke="#000000" points="623.5,-237.9777 565.5,-237.9777 565.5,-219.9777 623.5,-219.9777 623.5,-237.9777"/>
<text text-anchor="middle" x="594.5" y="-226.7777" font-family="Times,serif" font-size="9.00" fill="#000000">x&#45;other&#45;vec</text>
</g>
<!-- x&#45;other&#45;vec&#45;&gt;none -->
<g id="edge22" class="edge">
<title>x&#45;other&#45;vec&#45;&gt;none</title>
<path fill="none" stroke="#00ff00" stroke-width=".1841" d="M588.6147,-219.7849C581.009,-207.905 567.4063,-186.6578 556.1448,-169.0675"/>
<polygon fill="#00ff00" stroke="#00ff00" stroke-width=".1841" points="558.8528,-166.806 550.5133,-160.2713 552.9575,-170.5803 558.8528,-166.806"/>
</g>
<!-- x&#45;other&#45;vec&#45;&gt;right -->
<g id="edge16" class="edge">
<title>x&#45;other&#45;vec&#45;&gt;right</title>
<path fill="none" stroke="#00ff00" stroke-width=".425" d="M565.2464,-220.5214C507.4735,-203.8211 379.1259,-166.7199 318.8933,-149.3086"/>
<polygon fill="#00ff00" stroke="#00ff00" stroke-width=".425" points="319.7291,-145.9069 309.1504,-146.4922 317.7851,-152.6316 319.7291,-145.9069"/>
</g>
<!-- x&#45;other&#45;vec&#45;&gt;forward -->
<g id="edge19" class="edge">
<title>x&#45;other&#45;vec&#45;&gt;forward</title>
<path fill="none" stroke="#00ff00" stroke-width=".6648" stroke-dasharray="1,5" d="M600.0756,-219.7849C606.3509,-209.4385 616.9355,-191.987 626.6112,-176.0341"/>
<polygon fill="#00ff00" stroke="#00ff00" stroke-width=".6648" points="629.6666,-177.7456 631.8599,-167.3802 623.6814,-174.1154 629.6666,-177.7456"/>
</g>
<!-- y&#45;other&#45;vec -->
<g id="node10" class="node">
<title>y&#45;other&#45;vec</title>
<polygon fill="#d3d3d3" stroke="#000000" points="383.5,-237.9777 325.5,-237.9777 325.5,-219.9777 383.5,-219.9777 383.5,-237.9777"/>
<text text-anchor="middle" x="354.5" y="-226.7777" font-family="Times,serif" font-size="9.00" fill="#000000">y&#45;other&#45;vec</text>
</g>
<!-- y&#45;other&#45;vec&#45;&gt;none -->
<g id="edge26" class="edge">
<title>y&#45;other&#45;vec&#45;&gt;none</title>
<path fill="none" stroke="#ff0000" stroke-width=".6353" stroke-dasharray="1,5" d="M370.7071,-219.8891C377.6737,-216.0536 385.9377,-211.5979 393.5,-207.7645 431.8103,-188.3445 476.683,-167.5058 506.0272,-154.1299"/>
<polygon fill="#ff0000" stroke="#ff0000" stroke-width=".6353" points="507.6954,-157.2163 515.3515,-149.8927 504.7994,-150.8435 507.6954,-157.2163"/>
</g>
<!-- y&#45;other&#45;vec&#45;&gt;right -->
<g id="edge28" class="edge">
<title>y&#45;other&#45;vec&#45;&gt;right</title>
<path fill="none" stroke="#ff0000" stroke-width=".1423" stroke-dasharray="1,5" d="M347.4789,-219.7849C338.0306,-207.4142 320.8246,-184.8862 307.0928,-166.907"/>
<polygon fill="#ff0000" stroke="#ff0000" stroke-width=".1423" points="309.5313,-164.3335 300.68,-158.5107 303.9683,-168.5824 309.5313,-164.3335"/>
</g>
<!-- x&#45;other&#45;vel -->
<g id="node11" class="node">
<title>x&#45;other&#45;vel</title>
<polygon fill="#d3d3d3" stroke="#000000" points="507.5,-382.6173 451.5,-382.6173 451.5,-364.6173 507.5,-364.6173 507.5,-382.6173"/>
<text text-anchor="middle" x="479.5" y="-371.4173" font-family="Times,serif" font-size="9.00" fill="#000000">x&#45;other&#45;vel</text>
</g>
<!-- x&#45;other&#45;vel&#45;&gt;none -->
<g id="edge30" class="edge">
<title>x&#45;other&#45;vel&#45;&gt;none</title>
<path fill="none" stroke="#ff0000" stroke-width=".4618" stroke-dasharray="1,5" d="M482.869,-364.4484C490.2318,-344.1244 507.9412,-293.6467 518.5,-250.1909 524.6477,-224.8893 529.5671,-195.8535 532.8588,-173.9333"/>
<polygon fill="#ff0000" stroke="#ff0000" stroke-width=".4618" points="536.358,-174.1929 534.3422,-163.7916 529.4317,-173.1797 536.358,-174.1929"/>
</g>
<!-- x&#45;other&#45;vel&#45;&gt;right -->
<g id="edge9" class="edge">
<title>x&#45;other&#45;vel&#45;&gt;right</title>
<path fill="none" stroke="#ff0000" stroke-width=".5423" stroke-dasharray="1,5" d="M451.456,-371.3737C419.9212,-367.5019 368.7824,-356.9998 335.5,-328.6173 290.6339,-290.3564 284.142,-216.7795 284.572,-173.6821"/>
<polygon fill="#ff0000" stroke="#ff0000" stroke-width=".5423" points="288.0771,-173.5008 284.8113,-163.4219 281.079,-173.3375 288.0771,-173.5008"/>
</g>
<!-- 162 -->
<g id="node18" class="node">
<title>162</title>
<ellipse fill="#ffffff" stroke="#000000" cx="651.5" cy="-307.4041" rx="21.4286" ry="21.4286"/>
<text text-anchor="middle" x="651.5" y="-305.2041" font-family="Times,serif" font-size="9.00" fill="#000000">162</text>
</g>
<!-- x&#45;other&#45;vel&#45;&gt;162 -->
<g id="edge33" class="edge">
<title>x&#45;other&#45;vel&#45;&gt;162</title>
<path fill="none" stroke="#00ff00" stroke-width=".2149" d="M503.0552,-364.5495C533.989,-352.6412 588.3088,-331.7302 621.9612,-318.7754"/>
<polygon fill="#00ff00" stroke="#00ff00" stroke-width=".2149" points="623.6177,-321.8881 631.6927,-315.0291 621.1029,-315.3555 623.6177,-321.8881"/>
</g>
<!-- 492 -->
<g id="node21" class="node">
<title>492</title>
<ellipse fill="#ffffff" stroke="#000000" cx="365.5" cy="-307.4041" rx="21.4286" ry="21.4286"/>
<text text-anchor="middle" x="365.5" y="-305.2041" font-family="Times,serif" font-size="9.00" fill="#000000">492</text>
</g>
<!-- x&#45;other&#45;vel&#45;&gt;492 -->
<g id="edge40" class="edge">
<title>x&#45;other&#45;vel&#45;&gt;492</title>
<path fill="none" stroke="#00ff00" stroke-width=".2753" d="M463.6488,-364.4107C445.3407,-353.777 414.9053,-336.0996 392.773,-323.2448"/>
<polygon fill="#00ff00" stroke="#00ff00" stroke-width=".2753" points="394.2608,-320.0614 383.8556,-318.0654 390.745,-326.1144 394.2608,-320.0614"/>
</g>
<!-- y&#45;other&#45;vel -->
<g id="node12" class="node">
<title>y&#45;other&#45;vel</title>
<polygon fill="#d3d3d3" stroke="#000000" points="920.5,-237.9777 864.5,-237.9777 864.5,-219.9777 920.5,-219.9777 920.5,-237.9777"/>
<text text-anchor="middle" x="892.5" y="-226.7777" font-family="Times,serif" font-size="9.00" fill="#000000">y&#45;other&#45;vel</text>
</g>
<!-- y&#45;other&#45;vel&#45;&gt;forward -->
<g id="edge25" class="edge">
<title>y&#45;other&#45;vel&#45;&gt;forward</title>
<path fill="none" stroke="#ff0000" stroke-width=".3505" stroke-dasharray="1,5" d="M878.5119,-219.8663C871.7593,-215.7557 863.4199,-211.0885 855.5,-207.7645 801.0086,-184.8945 783.4354,-190.8322 727.5,-171.7645 714.2286,-167.2404 699.9495,-161.7019 687.2301,-156.5213"/>
<polygon fill="#ff0000" stroke="#ff0000" stroke-width=".3505" points="688.4292,-153.2299 677.8502,-152.6521 685.7599,-159.7009 688.4292,-153.2299"/>
</g>
<!-- y&#45;other&#45;vel&#45;&gt;backward -->
<g id="edge27" class="edge">
<title>y&#45;other&#45;vel&#45;&gt;backward</title>
<path fill="none" stroke="#00ff00" stroke-width=".2202" stroke-dasharray="1,5" d="M887.2652,-219.6819C873.8752,-196.8063 835.9902,-137.5124 787.5,-108.1249 706.4475,-59.0031 594.2698,-43.3635 531.9575,-38.3855"/>
<polygon fill="#00ff00" stroke="#00ff00" stroke-width=".2202" points="531.8901,-34.8711 521.6593,-37.6242 531.374,-41.852 531.8901,-34.8711"/>
</g>
<!-- 162&#45;&gt;none -->
<g id="edge34" class="edge">
<title>162&#45;&gt;none</title>
<path fill="none" stroke="#00ff00" stroke-width=".2074" stroke-dasharray="1,5" d="M651.899,-285.8876C651.3187,-264.4819 647.6958,-231.4921 632.5,-207.7645 617.1727,-183.8315 590.1272,-165.7669 568.803,-154.3236"/>
<polygon fill="#00ff00" stroke="#00ff00" stroke-width=".2074" points="570.2627,-151.1387 559.7686,-149.6809 567.0631,-157.3647 570.2627,-151.1387"/>
</g>
<!-- 499 -->
<g id="node22" class="node">
<title>499</title>
<ellipse fill="#ffffff" stroke="#000000" cx="700.5" cy="-228.9777" rx="21.4286" ry="21.4286"/>
<text text-anchor="middle" x="700.5" y="-226.7777" font-family="Times,serif" font-size="9.00" fill="#000000">499</text>
</g>
<!-- 162&#45;&gt;499 -->
<g id="edge42" class="edge">
<title>162&#45;&gt;499</title>
<path fill="none" stroke="#00ff00" stroke-width=".3708" d="M662.8647,-289.2144C669.111,-279.217 676.9745,-266.6311 683.8964,-255.5524"/>
<polygon fill="#00ff00" stroke="#00ff00" stroke-width=".3708" points="686.8664,-257.4041 689.1969,-247.0688 680.9299,-253.695 686.8664,-257.4041"/>
</g>
<!-- 354&#45;&gt;backward -->
<g id="edge38" class="edge">
<title>354&#45;&gt;backward</title>
<path fill="none" stroke="#ff0000" stroke-width=".2181" stroke-dasharray="1,5" d="M742.9902,-124.0734C737.0954,-118.385 729.9265,-112.3427 722.5,-108.1249 661.0543,-73.2277 580.85,-53.4404 531.2809,-43.7431"/>
<polygon fill="#ff0000" stroke="#ff0000" stroke-width=".2181" points="531.6637,-40.2533 521.1861,-41.8251 530.3571,-47.1303 531.6637,-40.2533"/>
</g>
<!-- 329&#45;&gt;backward -->
<g id="edge36" class="edge">
<title>329&#45;&gt;backward</title>
<path fill="none" stroke="#ff0000" stroke-width=".2073" d="M147.2889,-122.7527C152.1233,-117.3342 158.035,-111.8079 164.5,-108.1249 211.2238,-81.5071 362.8768,-55.0596 439.8238,-42.9322"/>
<polygon fill="#ff0000" stroke="#ff0000" stroke-width=".2073" points="440.38,-46.3878 449.7201,-41.3866 439.2998,-39.4717 440.38,-46.3878"/>
</g>
<!-- 492&#45;&gt;right -->
<g id="edge41" class="edge">
<title>492&#45;&gt;right</title>
<path fill="none" stroke="#ff0000" stroke-width=".3826" d="M349.7125,-292.7753C338.9188,-281.9656 325.0674,-266.3717 316.5,-250.1909 303.7594,-226.1286 296.0567,-196.1752 291.6521,-173.5658"/>
<polygon fill="#ff0000" stroke="#ff0000" stroke-width=".3826" points="295.0405,-172.6373 289.8008,-163.4289 288.1545,-173.895 295.0405,-172.6373"/>
</g>
<!-- 499&#45;&gt;none -->
<g id="edge43" class="edge">
<title>499&#45;&gt;none</title>
<path fill="none" stroke="#ff0000" stroke-width=".7587" d="M682.452,-217.7671C677.0391,-214.4788 671.062,-210.9201 665.5,-207.7645 632.5768,-189.0857 594.1201,-168.9269 568.0179,-155.4855"/>
<polygon fill="#ff0000" stroke="#ff0000" stroke-width=".7587" points="569.4881,-152.306 558.9935,-150.8525 566.2911,-158.5333 569.4881,-152.306"/>
</g>
</g>
</svg>
