<?xml version="1.0" encoding="utf-8" standalone="no"?>
<!DOCTYPE svg PUBLIC "-//W3C//DTD SVG 1.1//EN"
  "http://www.w3.org/Graphics/SVG/1.1/DTD/svg11.dtd">
<!-- Created with matplotlib (https://matplotlib.org/) -->
<svg height="345.6pt" version="1.1" viewBox="0 0 460.8 345.6" width="460.8pt" xmlns="http://www.w3.org/2000/svg" xmlns:xlink="http://www.w3.org/1999/xlink">
 <metadata>
  <rdf:RDF xmlns:cc="http://creativecommons.org/ns#" xmlns:dc="http://purl.org/dc/elements/1.1/" xmlns:rdf="http://www.w3.org/1999/02/22-rdf-syntax-ns#">
   <cc:Work>
    <dc:type rdf:resource="http://purl.org/dc/dcmitype/StillImage"/>
    <dc:date>2021-03-07T03:32:44.229983</dc:date>
    <dc:format>image/svg+xml</dc:format>
    <dc:creator>
     <cc:Agent>
      <dc:title>Matplotlib v3.3.4, https://matplotlib.org/</dc:title>
     </cc:Agent>
    </dc:creator>
   </cc:Work>
  </rdf:RDF>
 </metadata>
 <defs>
  <style type="text/css">*{stroke-linecap:butt;stroke-linejoin:round;}</style>
 </defs>
 <g id="figure_1">
  <g id="patch_1">
   <path d="M 0 345.6 
L 460.8 345.6 
L 460.8 0 
L 0 0 
z
" style="fill:#ffffff;"/>
  </g>
  <g id="axes_1">
   <g id="patch_2">
    <path d="M 57.6 307.584 
L 414.72 307.584 
L 414.72 41.472 
L 57.6 41.472 
z
" style="fill:#ffffff;"/>
   </g>
   <g id="matplotlib.axis_1">
    <g id="xtick_1">
     <g id="line2d_1">
      <path clip-path="url(#p071ce9225f)" d="M 73.832727 307.584 
L 73.832727 41.472 
" style="fill:none;stroke:#b0b0b0;stroke-linecap:square;stroke-width:0.8;"/>
     </g>
     <g id="line2d_2">
      <defs>
       <path d="M 0 0 
L 0 3.5 
" id="m938e1a9e9e" style="stroke:#000000;stroke-width:0.8;"/>
      </defs>
      <g>
       <use style="stroke:#000000;stroke-width:0.8;" x="73.832727" xlink:href="#m938e1a9e9e" y="307.584"/>
      </g>
     </g>
     <g id="text_1">
      <!-- 0 -->
      <g transform="translate(70.651477 322.182437)scale(0.1 -0.1)">
       <defs>
        <path d="M 31.78125 66.40625 
Q 24.171875 66.40625 20.328125 58.90625 
Q 16.5 51.421875 16.5 36.375 
Q 16.5 21.390625 20.328125 13.890625 
Q 24.171875 6.390625 31.78125 6.390625 
Q 39.453125 6.390625 43.28125 13.890625 
Q 47.125 21.390625 47.125 36.375 
Q 47.125 51.421875 43.28125 58.90625 
Q 39.453125 66.40625 31.78125 66.40625 
z
M 31.78125 74.21875 
Q 44.046875 74.21875 50.515625 64.515625 
Q 56.984375 54.828125 56.984375 36.375 
Q 56.984375 17.96875 50.515625 8.265625 
Q 44.046875 -1.421875 31.78125 -1.421875 
Q 19.53125 -1.421875 13.0625 8.265625 
Q 6.59375 17.96875 6.59375 36.375 
Q 6.59375 54.828125 13.0625 64.515625 
Q 19.53125 74.21875 31.78125 74.21875 
z
" id="DejaVuSans-48"/>
       </defs>
       <use xlink:href="#DejaVuSans-48"/>
      </g>
     </g>
    </g>
    <g id="xtick_2">
     <g id="line2d_3">
      <path clip-path="url(#p071ce9225f)" d="M 150.312008 307.584 
L 150.312008 41.472 
" style="fill:none;stroke:#b0b0b0;stroke-linecap:square;stroke-width:0.8;"/>
     </g>
     <g id="line2d_4">
      <g>
       <use style="stroke:#000000;stroke-width:0.8;" x="150.312008" xlink:href="#m938e1a9e9e" y="307.584"/>
      </g>
     </g>
     <g id="text_2">
      <!-- 200 -->
      <g transform="translate(140.768258 322.182437)scale(0.1 -0.1)">
       <defs>
        <path d="M 19.1875 8.296875 
L 53.609375 8.296875 
L 53.609375 0 
L 7.328125 0 
L 7.328125 8.296875 
Q 12.9375 14.109375 22.625 23.890625 
Q 32.328125 33.6875 34.8125 36.53125 
Q 39.546875 41.84375 41.421875 45.53125 
Q 43.3125 49.21875 43.3125 52.78125 
Q 43.3125 58.59375 39.234375 62.25 
Q 35.15625 65.921875 28.609375 65.921875 
Q 23.96875 65.921875 18.8125 64.3125 
Q 13.671875 62.703125 7.8125 59.421875 
L 7.8125 69.390625 
Q 13.765625 71.78125 18.9375 73 
Q 24.125 74.21875 28.421875 74.21875 
Q 39.75 74.21875 46.484375 68.546875 
Q 53.21875 62.890625 53.21875 53.421875 
Q 53.21875 48.921875 51.53125 44.890625 
Q 49.859375 40.875 45.40625 35.40625 
Q 44.1875 33.984375 37.640625 27.21875 
Q 31.109375 20.453125 19.1875 8.296875 
z
" id="DejaVuSans-50"/>
       </defs>
       <use xlink:href="#DejaVuSans-50"/>
       <use x="63.623047" xlink:href="#DejaVuSans-48"/>
       <use x="127.246094" xlink:href="#DejaVuSans-48"/>
      </g>
     </g>
    </g>
    <g id="xtick_3">
     <g id="line2d_5">
      <path clip-path="url(#p071ce9225f)" d="M 226.791288 307.584 
L 226.791288 41.472 
" style="fill:none;stroke:#b0b0b0;stroke-linecap:square;stroke-width:0.8;"/>
     </g>
     <g id="line2d_6">
      <g>
       <use style="stroke:#000000;stroke-width:0.8;" x="226.791288" xlink:href="#m938e1a9e9e" y="307.584"/>
      </g>
     </g>
     <g id="text_3">
      <!-- 400 -->
      <g transform="translate(217.247538 322.182437)scale(0.1 -0.1)">
       <defs>
        <path d="M 37.796875 64.3125 
L 12.890625 25.390625 
L 37.796875 25.390625 
z
M 35.203125 72.90625 
L 47.609375 72.90625 
L 47.609375 25.390625 
L 58.015625 25.390625 
L 58.015625 17.1875 
L 47.609375 17.1875 
L 47.609375 0 
L 37.796875 0 
L 37.796875 17.1875 
L 4.890625 17.1875 
L 4.890625 26.703125 
z
" id="DejaVuSans-52"/>
       </defs>
       <use xlink:href="#DejaVuSans-52"/>
       <use x="63.623047" xlink:href="#DejaVuSans-48"/>
       <use x="127.246094" xlink:href="#DejaVuSans-48"/>
      </g>
     </g>
    </g>
    <g id="xtick_4">
     <g id="line2d_7">
      <path clip-path="url(#p071ce9225f)" d="M 303.270569 307.584 
L 303.270569 41.472 
" style="fill:none;stroke:#b0b0b0;stroke-linecap:square;stroke-width:0.8;"/>
     </g>
     <g id="line2d_8">
      <g>
       <use style="stroke:#000000;stroke-width:0.8;" x="303.270569" xlink:href="#m938e1a9e9e" y="307.584"/>
      </g>
     </g>
     <g id="text_4">
      <!-- 600 -->
      <g transform="translate(293.726819 322.182437)scale(0.1 -0.1)">
       <defs>
        <path d="M 33.015625 40.375 
Q 26.375 40.375 22.484375 35.828125 
Q 18.609375 31.296875 18.609375 23.390625 
Q 18.609375 15.53125 22.484375 10.953125 
Q 26.375 6.390625 33.015625 6.390625 
Q 39.65625 6.390625 43.53125 10.953125 
Q 47.40625 15.53125 47.40625 23.390625 
Q 47.40625 31.296875 43.53125 35.828125 
Q 39.65625 40.375 33.015625 40.375 
z
M 52.59375 71.296875 
L 52.59375 62.3125 
Q 48.875 64.0625 45.09375 64.984375 
Q 41.3125 65.921875 37.59375 65.921875 
Q 27.828125 65.921875 22.671875 59.328125 
Q 17.53125 52.734375 16.796875 39.40625 
Q 19.671875 43.65625 24.015625 45.921875 
Q 28.375 48.1875 33.59375 48.1875 
Q 44.578125 48.1875 50.953125 41.515625 
Q 57.328125 34.859375 57.328125 23.390625 
Q 57.328125 12.15625 50.6875 5.359375 
Q 44.046875 -1.421875 33.015625 -1.421875 
Q 20.359375 -1.421875 13.671875 8.265625 
Q 6.984375 17.96875 6.984375 36.375 
Q 6.984375 53.65625 15.1875 63.9375 
Q 23.390625 74.21875 37.203125 74.21875 
Q 40.921875 74.21875 44.703125 73.484375 
Q 48.484375 72.75 52.59375 71.296875 
z
" id="DejaVuSans-54"/>
       </defs>
       <use xlink:href="#DejaVuSans-54"/>
       <use x="63.623047" xlink:href="#DejaVuSans-48"/>
       <use x="127.246094" xlink:href="#DejaVuSans-48"/>
      </g>
     </g>
    </g>
    <g id="xtick_5">
     <g id="line2d_9">
      <path clip-path="url(#p071ce9225f)" d="M 379.749849 307.584 
L 379.749849 41.472 
" style="fill:none;stroke:#b0b0b0;stroke-linecap:square;stroke-width:0.8;"/>
     </g>
     <g id="line2d_10">
      <g>
       <use style="stroke:#000000;stroke-width:0.8;" x="379.749849" xlink:href="#m938e1a9e9e" y="307.584"/>
      </g>
     </g>
     <g id="text_5">
      <!-- 800 -->
      <g transform="translate(370.206099 322.182437)scale(0.1 -0.1)">
       <defs>
        <path d="M 31.78125 34.625 
Q 24.75 34.625 20.71875 30.859375 
Q 16.703125 27.09375 16.703125 20.515625 
Q 16.703125 13.921875 20.71875 10.15625 
Q 24.75 6.390625 31.78125 6.390625 
Q 38.8125 6.390625 42.859375 10.171875 
Q 46.921875 13.96875 46.921875 20.515625 
Q 46.921875 27.09375 42.890625 30.859375 
Q 38.875 34.625 31.78125 34.625 
z
M 21.921875 38.8125 
Q 15.578125 40.375 12.03125 44.71875 
Q 8.5 49.078125 8.5 55.328125 
Q 8.5 64.0625 14.71875 69.140625 
Q 20.953125 74.21875 31.78125 74.21875 
Q 42.671875 74.21875 48.875 69.140625 
Q 55.078125 64.0625 55.078125 55.328125 
Q 55.078125 49.078125 51.53125 44.71875 
Q 48 40.375 41.703125 38.8125 
Q 48.828125 37.15625 52.796875 32.3125 
Q 56.78125 27.484375 56.78125 20.515625 
Q 56.78125 9.90625 50.3125 4.234375 
Q 43.84375 -1.421875 31.78125 -1.421875 
Q 19.734375 -1.421875 13.25 4.234375 
Q 6.78125 9.90625 6.78125 20.515625 
Q 6.78125 27.484375 10.78125 32.3125 
Q 14.796875 37.15625 21.921875 38.8125 
z
M 18.3125 54.390625 
Q 18.3125 48.734375 21.84375 45.5625 
Q 25.390625 42.390625 31.78125 42.390625 
Q 38.140625 42.390625 41.71875 45.5625 
Q 45.3125 48.734375 45.3125 54.390625 
Q 45.3125 60.0625 41.71875 63.234375 
Q 38.140625 66.40625 31.78125 66.40625 
Q 25.390625 66.40625 21.84375 63.234375 
Q 18.3125 60.0625 18.3125 54.390625 
z
" id="DejaVuSans-56"/>
       </defs>
       <use xlink:href="#DejaVuSans-56"/>
       <use x="63.623047" xlink:href="#DejaVuSans-48"/>
       <use x="127.246094" xlink:href="#DejaVuSans-48"/>
      </g>
     </g>
    </g>
    <g id="text_6">
     <!-- Generations -->
     <g transform="translate(205.662344 335.860562)scale(0.1 -0.1)">
      <defs>
       <path d="M 59.515625 10.40625 
L 59.515625 29.984375 
L 43.40625 29.984375 
L 43.40625 38.09375 
L 69.28125 38.09375 
L 69.28125 6.78125 
Q 63.578125 2.734375 56.6875 0.65625 
Q 49.8125 -1.421875 42 -1.421875 
Q 24.90625 -1.421875 15.25 8.5625 
Q 5.609375 18.5625 5.609375 36.375 
Q 5.609375 54.25 15.25 64.234375 
Q 24.90625 74.21875 42 74.21875 
Q 49.125 74.21875 55.546875 72.453125 
Q 61.96875 70.703125 67.390625 67.28125 
L 67.390625 56.78125 
Q 61.921875 61.421875 55.765625 63.765625 
Q 49.609375 66.109375 42.828125 66.109375 
Q 29.4375 66.109375 22.71875 58.640625 
Q 16.015625 51.171875 16.015625 36.375 
Q 16.015625 21.625 22.71875 14.15625 
Q 29.4375 6.6875 42.828125 6.6875 
Q 48.046875 6.6875 52.140625 7.59375 
Q 56.25 8.5 59.515625 10.40625 
z
" id="DejaVuSans-71"/>
       <path d="M 56.203125 29.59375 
L 56.203125 25.203125 
L 14.890625 25.203125 
Q 15.484375 15.921875 20.484375 11.0625 
Q 25.484375 6.203125 34.421875 6.203125 
Q 39.59375 6.203125 44.453125 7.46875 
Q 49.3125 8.734375 54.109375 11.28125 
L 54.109375 2.78125 
Q 49.265625 0.734375 44.1875 -0.34375 
Q 39.109375 -1.421875 33.890625 -1.421875 
Q 20.796875 -1.421875 13.15625 6.1875 
Q 5.515625 13.8125 5.515625 26.8125 
Q 5.515625 40.234375 12.765625 48.109375 
Q 20.015625 56 32.328125 56 
Q 43.359375 56 49.78125 48.890625 
Q 56.203125 41.796875 56.203125 29.59375 
z
M 47.21875 32.234375 
Q 47.125 39.59375 43.09375 43.984375 
Q 39.0625 48.390625 32.421875 48.390625 
Q 24.90625 48.390625 20.390625 44.140625 
Q 15.875 39.890625 15.1875 32.171875 
z
" id="DejaVuSans-101"/>
       <path d="M 54.890625 33.015625 
L 54.890625 0 
L 45.90625 0 
L 45.90625 32.71875 
Q 45.90625 40.484375 42.875 44.328125 
Q 39.84375 48.1875 33.796875 48.1875 
Q 26.515625 48.1875 22.3125 43.546875 
Q 18.109375 38.921875 18.109375 30.90625 
L 18.109375 0 
L 9.078125 0 
L 9.078125 54.6875 
L 18.109375 54.6875 
L 18.109375 46.1875 
Q 21.34375 51.125 25.703125 53.5625 
Q 30.078125 56 35.796875 56 
Q 45.21875 56 50.046875 50.171875 
Q 54.890625 44.34375 54.890625 33.015625 
z
" id="DejaVuSans-110"/>
       <path d="M 41.109375 46.296875 
Q 39.59375 47.171875 37.8125 47.578125 
Q 36.03125 48 33.890625 48 
Q 26.265625 48 22.1875 43.046875 
Q 18.109375 38.09375 18.109375 28.8125 
L 18.109375 0 
L 9.078125 0 
L 9.078125 54.6875 
L 18.109375 54.6875 
L 18.109375 46.1875 
Q 20.953125 51.171875 25.484375 53.578125 
Q 30.03125 56 36.53125 56 
Q 37.453125 56 38.578125 55.875 
Q 39.703125 55.765625 41.0625 55.515625 
z
" id="DejaVuSans-114"/>
       <path d="M 34.28125 27.484375 
Q 23.390625 27.484375 19.1875 25 
Q 14.984375 22.515625 14.984375 16.5 
Q 14.984375 11.71875 18.140625 8.90625 
Q 21.296875 6.109375 26.703125 6.109375 
Q 34.1875 6.109375 38.703125 11.40625 
Q 43.21875 16.703125 43.21875 25.484375 
L 43.21875 27.484375 
z
M 52.203125 31.203125 
L 52.203125 0 
L 43.21875 0 
L 43.21875 8.296875 
Q 40.140625 3.328125 35.546875 0.953125 
Q 30.953125 -1.421875 24.3125 -1.421875 
Q 15.921875 -1.421875 10.953125 3.296875 
Q 6 8.015625 6 15.921875 
Q 6 25.140625 12.171875 29.828125 
Q 18.359375 34.515625 30.609375 34.515625 
L 43.21875 34.515625 
L 43.21875 35.40625 
Q 43.21875 41.609375 39.140625 45 
Q 35.0625 48.390625 27.6875 48.390625 
Q 23 48.390625 18.546875 47.265625 
Q 14.109375 46.140625 10.015625 43.890625 
L 10.015625 52.203125 
Q 14.9375 54.109375 19.578125 55.046875 
Q 24.21875 56 28.609375 56 
Q 40.484375 56 46.34375 49.84375 
Q 52.203125 43.703125 52.203125 31.203125 
z
" id="DejaVuSans-97"/>
       <path d="M 18.3125 70.21875 
L 18.3125 54.6875 
L 36.8125 54.6875 
L 36.8125 47.703125 
L 18.3125 47.703125 
L 18.3125 18.015625 
Q 18.3125 11.328125 20.140625 9.421875 
Q 21.96875 7.515625 27.59375 7.515625 
L 36.8125 7.515625 
L 36.8125 0 
L 27.59375 0 
Q 17.1875 0 13.234375 3.875 
Q 9.28125 7.765625 9.28125 18.015625 
L 9.28125 47.703125 
L 2.6875 47.703125 
L 2.6875 54.6875 
L 9.28125 54.6875 
L 9.28125 70.21875 
z
" id="DejaVuSans-116"/>
       <path d="M 9.421875 54.6875 
L 18.40625 54.6875 
L 18.40625 0 
L 9.421875 0 
z
M 9.421875 75.984375 
L 18.40625 75.984375 
L 18.40625 64.59375 
L 9.421875 64.59375 
z
" id="DejaVuSans-105"/>
       <path d="M 30.609375 48.390625 
Q 23.390625 48.390625 19.1875 42.75 
Q 14.984375 37.109375 14.984375 27.296875 
Q 14.984375 17.484375 19.15625 11.84375 
Q 23.34375 6.203125 30.609375 6.203125 
Q 37.796875 6.203125 41.984375 11.859375 
Q 46.1875 17.53125 46.1875 27.296875 
Q 46.1875 37.015625 41.984375 42.703125 
Q 37.796875 48.390625 30.609375 48.390625 
z
M 30.609375 56 
Q 42.328125 56 49.015625 48.375 
Q 55.71875 40.765625 55.71875 27.296875 
Q 55.71875 13.875 49.015625 6.21875 
Q 42.328125 -1.421875 30.609375 -1.421875 
Q 18.84375 -1.421875 12.171875 6.21875 
Q 5.515625 13.875 5.515625 27.296875 
Q 5.515625 40.765625 12.171875 48.375 
Q 18.84375 56 30.609375 56 
z
" id="DejaVuSans-111"/>
       <path d="M 44.28125 53.078125 
L 44.28125 44.578125 
Q 40.484375 46.53125 36.375 47.5 
Q 32.28125 48.484375 27.875 48.484375 
Q 21.1875 48.484375 17.84375 46.4375 
Q 14.5 44.390625 14.5 40.28125 
Q 14.5 37.15625 16.890625 35.375 
Q 19.28125 33.59375 26.515625 31.984375 
L 29.59375 31.296875 
Q 39.15625 29.25 43.1875 25.515625 
Q 47.21875 21.78125 47.21875 15.09375 
Q 47.21875 7.46875 41.1875 3.015625 
Q 35.15625 -1.421875 24.609375 -1.421875 
Q 20.21875 -1.421875 15.453125 -0.5625 
Q 10.6875 0.296875 5.421875 2 
L 5.421875 11.28125 
Q 10.40625 8.6875 15.234375 7.390625 
Q 20.0625 6.109375 24.8125 6.109375 
Q 31.15625 6.109375 34.5625 8.28125 
Q 37.984375 10.453125 37.984375 14.40625 
Q 37.984375 18.0625 35.515625 20.015625 
Q 33.0625 21.96875 24.703125 23.78125 
L 21.578125 24.515625 
Q 13.234375 26.265625 9.515625 29.90625 
Q 5.8125 33.546875 5.8125 39.890625 
Q 5.8125 47.609375 11.28125 51.796875 
Q 16.75 56 26.8125 56 
Q 31.78125 56 36.171875 55.265625 
Q 40.578125 54.546875 44.28125 53.078125 
z
" id="DejaVuSans-115"/>
      </defs>
      <use xlink:href="#DejaVuSans-71"/>
      <use x="77.490234" xlink:href="#DejaVuSans-101"/>
      <use x="139.013672" xlink:href="#DejaVuSans-110"/>
      <use x="202.392578" xlink:href="#DejaVuSans-101"/>
      <use x="263.916016" xlink:href="#DejaVuSans-114"/>
      <use x="305.029297" xlink:href="#DejaVuSans-97"/>
      <use x="366.308594" xlink:href="#DejaVuSans-116"/>
      <use x="405.517578" xlink:href="#DejaVuSans-105"/>
      <use x="433.300781" xlink:href="#DejaVuSans-111"/>
      <use x="494.482422" xlink:href="#DejaVuSans-110"/>
      <use x="557.861328" xlink:href="#DejaVuSans-115"/>
     </g>
    </g>
   </g>
   <g id="matplotlib.axis_2">
    <g id="ytick_1">
     <g id="line2d_11">
      <path clip-path="url(#p071ce9225f)" d="M 57.6 282.058424 
L 414.72 282.058424 
" style="fill:none;stroke:#b0b0b0;stroke-linecap:square;stroke-width:0.8;"/>
     </g>
     <g id="line2d_12">
      <defs>
       <path d="M 0 0 
L -3.5 0 
" id="mad52dcf993" style="stroke:#000000;stroke-width:0.8;"/>
      </defs>
      <g>
       <use style="stroke:#000000;stroke-width:0.8;" x="57.6" xlink:href="#mad52dcf993" y="282.058424"/>
      </g>
     </g>
     <g id="text_7">
      <!-- $\mathdefault{-10^{3}}$ -->
      <g transform="translate(24.6 285.857643)scale(0.1 -0.1)">
       <defs>
        <path d="M 10.59375 35.5 
L 73.1875 35.5 
L 73.1875 27.203125 
L 10.59375 27.203125 
z
" id="DejaVuSans-8722"/>
        <path d="M 12.40625 8.296875 
L 28.515625 8.296875 
L 28.515625 63.921875 
L 10.984375 60.40625 
L 10.984375 69.390625 
L 28.421875 72.90625 
L 38.28125 72.90625 
L 38.28125 8.296875 
L 54.390625 8.296875 
L 54.390625 0 
L 12.40625 0 
z
" id="DejaVuSans-49"/>
        <path d="M 40.578125 39.3125 
Q 47.65625 37.796875 51.625 33 
Q 55.609375 28.21875 55.609375 21.1875 
Q 55.609375 10.40625 48.1875 4.484375 
Q 40.765625 -1.421875 27.09375 -1.421875 
Q 22.515625 -1.421875 17.65625 -0.515625 
Q 12.796875 0.390625 7.625 2.203125 
L 7.625 11.71875 
Q 11.71875 9.328125 16.59375 8.109375 
Q 21.484375 6.890625 26.8125 6.890625 
Q 36.078125 6.890625 40.9375 10.546875 
Q 45.796875 14.203125 45.796875 21.1875 
Q 45.796875 27.640625 41.28125 31.265625 
Q 36.765625 34.90625 28.71875 34.90625 
L 20.21875 34.90625 
L 20.21875 43.015625 
L 29.109375 43.015625 
Q 36.375 43.015625 40.234375 45.921875 
Q 44.09375 48.828125 44.09375 54.296875 
Q 44.09375 59.90625 40.109375 62.90625 
Q 36.140625 65.921875 28.71875 65.921875 
Q 24.65625 65.921875 20.015625 65.03125 
Q 15.375 64.15625 9.8125 62.3125 
L 9.8125 71.09375 
Q 15.4375 72.65625 20.34375 73.4375 
Q 25.25 74.21875 29.59375 74.21875 
Q 40.828125 74.21875 47.359375 69.109375 
Q 53.90625 64.015625 53.90625 55.328125 
Q 53.90625 49.265625 50.4375 45.09375 
Q 46.96875 40.921875 40.578125 39.3125 
z
" id="DejaVuSans-51"/>
       </defs>
       <use transform="translate(0 0.765625)" xlink:href="#DejaVuSans-8722"/>
       <use transform="translate(83.789062 0.765625)" xlink:href="#DejaVuSans-49"/>
       <use transform="translate(147.412109 0.765625)" xlink:href="#DejaVuSans-48"/>
       <use transform="translate(211.992188 39.046875)scale(0.7)" xlink:href="#DejaVuSans-51"/>
      </g>
     </g>
    </g>
    <g id="ytick_2">
     <g id="line2d_13">
      <path clip-path="url(#p071ce9225f)" d="M 57.6 255.836849 
L 414.72 255.836849 
" style="fill:none;stroke:#b0b0b0;stroke-linecap:square;stroke-width:0.8;"/>
     </g>
     <g id="line2d_14">
      <g>
       <use style="stroke:#000000;stroke-width:0.8;" x="57.6" xlink:href="#mad52dcf993" y="255.836849"/>
      </g>
     </g>
     <g id="text_8">
      <!-- $\mathdefault{-10^{2}}$ -->
      <g transform="translate(24.6 259.636068)scale(0.1 -0.1)">
       <use transform="translate(0 0.765625)" xlink:href="#DejaVuSans-8722"/>
       <use transform="translate(83.789062 0.765625)" xlink:href="#DejaVuSans-49"/>
       <use transform="translate(147.412109 0.765625)" xlink:href="#DejaVuSans-48"/>
       <use transform="translate(211.992188 39.046875)scale(0.7)" xlink:href="#DejaVuSans-50"/>
      </g>
     </g>
    </g>
    <g id="ytick_3">
     <g id="line2d_15">
      <path clip-path="url(#p071ce9225f)" d="M 57.6 229.615275 
L 414.72 229.615275 
" style="fill:none;stroke:#b0b0b0;stroke-linecap:square;stroke-width:0.8;"/>
     </g>
     <g id="line2d_16">
      <g>
       <use style="stroke:#000000;stroke-width:0.8;" x="57.6" xlink:href="#mad52dcf993" y="229.615275"/>
      </g>
     </g>
     <g id="text_9">
      <!-- $\mathdefault{-10^{1}}$ -->
      <g transform="translate(24.6 233.414494)scale(0.1 -0.1)">
       <use transform="translate(0 0.684375)" xlink:href="#DejaVuSans-8722"/>
       <use transform="translate(83.789062 0.684375)" xlink:href="#DejaVuSans-49"/>
       <use transform="translate(147.412109 0.684375)" xlink:href="#DejaVuSans-48"/>
       <use transform="translate(211.992188 38.965625)scale(0.7)" xlink:href="#DejaVuSans-49"/>
      </g>
     </g>
    </g>
    <g id="ytick_4">
     <g id="line2d_17">
      <path clip-path="url(#p071ce9225f)" d="M 57.6 196.71964 
L 414.72 196.71964 
" style="fill:none;stroke:#b0b0b0;stroke-linecap:square;stroke-width:0.8;"/>
     </g>
     <g id="line2d_18">
      <g>
       <use style="stroke:#000000;stroke-width:0.8;" x="57.6" xlink:href="#mad52dcf993" y="196.71964"/>
      </g>
     </g>
     <g id="text_10">
      <!-- $\mathdefault{-10^{0}}$ -->
      <g transform="translate(24.6 200.518858)scale(0.1 -0.1)">
       <use transform="translate(0 0.765625)" xlink:href="#DejaVuSans-8722"/>
       <use transform="translate(83.789062 0.765625)" xlink:href="#DejaVuSans-49"/>
       <use transform="translate(147.412109 0.765625)" xlink:href="#DejaVuSans-48"/>
       <use transform="translate(211.992188 39.046875)scale(0.7)" xlink:href="#DejaVuSans-48"/>
      </g>
     </g>
    </g>
    <g id="ytick_5">
     <g id="line2d_19">
      <path clip-path="url(#p071ce9225f)" d="M 57.6 182.152098 
L 414.72 182.152098 
" style="fill:none;stroke:#b0b0b0;stroke-linecap:square;stroke-width:0.8;"/>
     </g>
     <g id="line2d_20">
      <g>
       <use style="stroke:#000000;stroke-width:0.8;" x="57.6" xlink:href="#mad52dcf993" y="182.152098"/>
      </g>
     </g>
     <g id="text_11">
      <!-- $\mathdefault{0}$ -->
      <g transform="translate(44.2 185.951317)scale(0.1 -0.1)">
       <use transform="translate(0 0.78125)" xlink:href="#DejaVuSans-48"/>
      </g>
     </g>
    </g>
    <g id="ytick_6">
     <g id="line2d_21">
      <path clip-path="url(#p071ce9225f)" d="M 57.6 167.584557 
L 414.72 167.584557 
" style="fill:none;stroke:#b0b0b0;stroke-linecap:square;stroke-width:0.8;"/>
     </g>
     <g id="line2d_22">
      <g>
       <use style="stroke:#000000;stroke-width:0.8;" x="57.6" xlink:href="#mad52dcf993" y="167.584557"/>
      </g>
     </g>
     <g id="text_12">
      <!-- $\mathdefault{10^{0}}$ -->
      <g transform="translate(33 171.383776)scale(0.1 -0.1)">
       <use transform="translate(0 0.765625)" xlink:href="#DejaVuSans-49"/>
       <use transform="translate(63.623047 0.765625)" xlink:href="#DejaVuSans-48"/>
       <use transform="translate(128.203125 39.046875)scale(0.7)" xlink:href="#DejaVuSans-48"/>
      </g>
     </g>
    </g>
    <g id="ytick_7">
     <g id="line2d_23">
      <path clip-path="url(#p071ce9225f)" d="M 57.6 134.688922 
L 414.72 134.688922 
" style="fill:none;stroke:#b0b0b0;stroke-linecap:square;stroke-width:0.8;"/>
     </g>
     <g id="line2d_24">
      <g>
       <use style="stroke:#000000;stroke-width:0.8;" x="57.6" xlink:href="#mad52dcf993" y="134.688922"/>
      </g>
     </g>
     <g id="text_13">
      <!-- $\mathdefault{10^{1}}$ -->
      <g transform="translate(33 138.48814)scale(0.1 -0.1)">
       <use transform="translate(0 0.684375)" xlink:href="#DejaVuSans-49"/>
       <use transform="translate(63.623047 0.684375)" xlink:href="#DejaVuSans-48"/>
       <use transform="translate(128.203125 38.965625)scale(0.7)" xlink:href="#DejaVuSans-49"/>
      </g>
     </g>
    </g>
    <g id="ytick_8">
     <g id="line2d_25">
      <path clip-path="url(#p071ce9225f)" d="M 57.6 108.467347 
L 414.72 108.467347 
" style="fill:none;stroke:#b0b0b0;stroke-linecap:square;stroke-width:0.8;"/>
     </g>
     <g id="line2d_26">
      <g>
       <use style="stroke:#000000;stroke-width:0.8;" x="57.6" xlink:href="#mad52dcf993" y="108.467347"/>
      </g>
     </g>
     <g id="text_14">
      <!-- $\mathdefault{10^{2}}$ -->
      <g transform="translate(33 112.266566)scale(0.1 -0.1)">
       <use transform="translate(0 0.765625)" xlink:href="#DejaVuSans-49"/>
       <use transform="translate(63.623047 0.765625)" xlink:href="#DejaVuSans-48"/>
       <use transform="translate(128.203125 39.046875)scale(0.7)" xlink:href="#DejaVuSans-50"/>
      </g>
     </g>
    </g>
    <g id="ytick_9">
     <g id="line2d_27">
      <path clip-path="url(#p071ce9225f)" d="M 57.6 82.245773 
L 414.72 82.245773 
" style="fill:none;stroke:#b0b0b0;stroke-linecap:square;stroke-width:0.8;"/>
     </g>
     <g id="line2d_28">
      <g>
       <use style="stroke:#000000;stroke-width:0.8;" x="57.6" xlink:href="#mad52dcf993" y="82.245773"/>
      </g>
     </g>
     <g id="text_15">
      <!-- $\mathdefault{10^{3}}$ -->
      <g transform="translate(33 86.044992)scale(0.1 -0.1)">
       <use transform="translate(0 0.765625)" xlink:href="#DejaVuSans-49"/>
       <use transform="translate(63.623047 0.765625)" xlink:href="#DejaVuSans-48"/>
       <use transform="translate(128.203125 39.046875)scale(0.7)" xlink:href="#DejaVuSans-51"/>
      </g>
     </g>
    </g>
    <g id="ytick_10">
     <g id="line2d_29">
      <path clip-path="url(#p071ce9225f)" d="M 57.6 56.024198 
L 414.72 56.024198 
" style="fill:none;stroke:#b0b0b0;stroke-linecap:square;stroke-width:0.8;"/>
     </g>
     <g id="line2d_30">
      <g>
       <use style="stroke:#000000;stroke-width:0.8;" x="57.6" xlink:href="#mad52dcf993" y="56.024198"/>
      </g>
     </g>
     <g id="text_16">
      <!-- $\mathdefault{10^{4}}$ -->
      <g transform="translate(33 59.823417)scale(0.1 -0.1)">
       <use transform="translate(0 0.684375)" xlink:href="#DejaVuSans-49"/>
       <use transform="translate(63.623047 0.684375)" xlink:href="#DejaVuSans-48"/>
       <use transform="translate(128.203125 38.965625)scale(0.7)" xlink:href="#DejaVuSans-52"/>
      </g>
     </g>
    </g>
    <g id="text_17">
     <!-- Fitness -->
     <g transform="translate(18.520312 191.845187)rotate(-90)scale(0.1 -0.1)">
      <defs>
       <path d="M 9.8125 72.90625 
L 51.703125 72.90625 
L 51.703125 64.59375 
L 19.671875 64.59375 
L 19.671875 43.109375 
L 48.578125 43.109375 
L 48.578125 34.8125 
L 19.671875 34.8125 
L 19.671875 0 
L 9.8125 0 
z
" id="DejaVuSans-70"/>
      </defs>
      <use xlink:href="#DejaVuSans-70"/>
      <use x="50.269531" xlink:href="#DejaVuSans-105"/>
      <use x="78.052734" xlink:href="#DejaVuSans-116"/>
      <use x="117.261719" xlink:href="#DejaVuSans-110"/>
      <use x="180.640625" xlink:href="#DejaVuSans-101"/>
      <use x="242.164062" xlink:href="#DejaVuSans-115"/>
      <use x="294.263672" xlink:href="#DejaVuSans-115"/>
     </g>
    </g>
   </g>
   <g id="line2d_31">
    <path clip-path="url(#p071ce9225f)" d="M 73.832727 295.488 
L 74.215124 292.19289 
L 74.59752 291.157715 
L 74.979916 292.183639 
L 75.362313 291.297891 
L 75.744709 288.778653 
L 76.127106 288.700397 
L 76.509502 288.163212 
L 76.891898 287.284697 
L 77.274295 284.283254 
L 77.656691 286.08465 
L 78.039088 280.943478 
L 78.421484 287.159202 
L 79.186277 281.077088 
L 79.568673 281.202686 
L 79.95107 284.661335 
L 80.333466 279.17442 
L 80.715863 282.758837 
L 81.098259 284.185544 
L 81.480655 282.591826 
L 81.863052 282.119193 
L 82.245448 282.069333 
L 82.627845 280.821215 
L 83.392637 283.269745 
L 83.775034 281.436726 
L 84.15743 283.638724 
L 84.539827 276.505509 
L 84.922223 280.928246 
L 85.304619 278.458513 
L 85.687016 279.529375 
L 86.069412 282.800283 
L 86.451809 283.349923 
L 86.834205 279.941633 
L 87.216601 265.846998 
L 87.598998 265.416671 
L 87.981394 271.367851 
L 88.363791 272.074235 
L 88.746187 273.388563 
L 89.128583 283.318712 
L 89.51098 282.497662 
L 89.893376 276.820124 
L 90.275773 275.438826 
L 90.658169 278.11371 
L 91.040565 274.180064 
L 91.805358 280.141946 
L 92.187755 275.232858 
L 92.570151 275.111924 
L 92.952547 96.677936 
L 93.334944 283.839671 
L 93.71734 275.244753 
L 94.099737 276.967081 
L 94.482133 263.544848 
L 94.864529 280.369076 
L 95.246926 270.345699 
L 95.629322 277.356735 
L 96.011719 270.157873 
L 96.394115 84.332136 
L 96.776511 106.113747 
L 97.158908 279.813086 
L 97.541304 264.277686 
L 97.923701 87.25627 
L 98.306097 278.531972 
L 98.688493 264.969206 
L 99.07089 273.679594 
L 99.453286 261.316443 
L 99.835683 277.334575 
L 100.218079 106.048891 
L 100.600475 272.11203 
L 100.982872 274.400652 
L 101.365268 111.489835 
L 101.747665 249.056931 
L 102.512457 282.595056 
L 102.894854 281.830259 
L 103.27725 280.7766 
L 103.659647 272.53919 
L 104.042043 281.307315 
L 104.424439 256.888793 
L 104.806836 278.994997 
L 105.189232 278.965412 
L 105.571629 283.826143 
L 106.336421 277.839186 
L 106.718818 277.298325 
L 107.101214 283.335372 
L 107.483611 278.647898 
L 107.866007 92.525724 
L 108.248403 267.388754 
L 108.6308 275.96167 
L 109.013196 87.829017 
L 109.395593 86.95391 
L 109.777989 92.906679 
L 110.160385 268.359106 
L 110.542782 258.594931 
L 110.925178 259.800321 
L 111.307575 268.234043 
L 111.689971 281.580831 
L 112.072367 273.432928 
L 112.454764 285.463365 
L 112.83716 289.335079 
L 113.219557 288.168122 
L 113.601953 279.136607 
L 113.98435 281.902209 
L 114.366746 281.298556 
L 114.749142 283.859516 
L 115.131539 282.684312 
L 115.513935 135.195344 
L 115.896332 78.145542 
L 116.278728 88.999125 
L 116.661124 74.333225 
L 117.043521 130.315443 
L 117.425917 78.52814 
L 117.808314 100.304487 
L 118.19071 261.039956 
L 118.573106 275.581902 
L 118.955503 258.885925 
L 119.337899 250.884946 
L 119.720296 274.878851 
L 120.102692 277.047236 
L 120.485088 276.057141 
L 120.867485 262.683389 
L 121.632278 278.064155 
L 122.014674 274.633377 
L 122.39707 285.135826 
L 122.779467 95.567159 
L 123.161863 265.978105 
L 123.54426 258.414759 
L 123.926656 258.476319 
L 124.309052 262.136193 
L 124.691449 278.393799 
L 125.073845 273.249416 
L 125.456242 276.538277 
L 125.838638 113.083057 
L 126.221034 281.455205 
L 126.603431 273.576952 
L 126.985827 279.805995 
L 127.368224 283.681802 
L 127.75062 272.616117 
L 128.133016 256.033436 
L 128.515413 281.665725 
L 128.897809 270.368138 
L 129.280206 88.725515 
L 129.662602 91.505107 
L 130.044998 254.895879 
L 130.427395 272.431397 
L 130.809791 254.142713 
L 131.192188 278.449106 
L 131.574584 99.865971 
L 131.95698 86.372472 
L 132.339377 101.575355 
L 132.721773 76.086245 
L 133.10417 109.233048 
L 133.486566 123.572362 
L 133.868962 274.576649 
L 134.251359 277.388327 
L 134.633755 274.973756 
L 135.016152 88.928333 
L 135.398548 101.688556 
L 135.780944 281.526361 
L 136.163341 259.853101 
L 136.545737 272.173247 
L 136.928134 116.758037 
L 137.31053 252.379789 
L 137.692926 267.794899 
L 138.075323 105.999317 
L 138.457719 86.240318 
L 138.840116 270.098546 
L 139.222512 85.646567 
L 139.604908 278.873371 
L 139.987305 276.845831 
L 140.369701 280.670651 
L 140.752098 128.876334 
L 141.134494 78.808369 
L 141.51689 90.243334 
L 141.899287 93.07963 
L 142.281683 100.151865 
L 142.66408 87.86457 
L 143.046476 248.931339 
L 143.428872 272.769908 
L 143.811269 278.401316 
L 144.193665 86.16563 
L 144.576062 97.759109 
L 144.958458 277.552553 
L 145.340854 234.475227 
L 145.723251 255.693905 
L 146.105647 92.598401 
L 146.488044 279.063342 
L 146.87044 89.642635 
L 147.252836 93.828504 
L 147.635233 78.930262 
L 148.017629 81.322933 
L 148.400026 85.626661 
L 148.782422 94.542215 
L 149.164819 254.269685 
L 149.547215 96.24028 
L 149.929611 107.015953 
L 150.312008 89.232505 
L 150.694404 95.366009 
L 151.076801 245.980731 
L 151.459197 81.175132 
L 152.22399 109.92509 
L 152.606386 274.335074 
L 152.988783 283.3742 
L 153.753575 247.966438 
L 154.135972 269.907388 
L 154.900765 259.459203 
L 155.283161 95.43903 
L 155.665557 250.494959 
L 156.047954 79.068361 
L 156.43035 79.209521 
L 156.812747 248.342568 
L 157.195143 276.794184 
L 157.577539 269.952422 
L 157.959936 270.233431 
L 158.342332 271.813352 
L 158.724729 274.232772 
L 159.107125 90.40952 
L 159.489521 92.547315 
L 159.871918 256.382049 
L 160.254314 227.948083 
L 160.636711 87.545367 
L 161.019107 91.177279 
L 161.401503 274.401509 
L 161.7839 118.328024 
L 162.166296 278.486355 
L 162.548693 271.397606 
L 162.931089 90.767441 
L 163.313485 255.008864 
L 163.695882 268.614259 
L 164.078278 276.76222 
L 164.460675 276.609359 
L 164.843071 282.516688 
L 165.225467 260.854628 
L 165.607864 286.63709 
L 165.99026 276.62564 
L 166.372657 273.117622 
L 166.755053 279.345614 
L 167.137449 277.091239 
L 167.519846 280.417965 
L 167.902242 281.289324 
L 168.284639 277.767714 
L 168.667035 276.279418 
L 169.049431 94.624162 
L 169.431828 278.474421 
L 169.814224 113.129919 
L 170.196621 270.582073 
L 170.579017 268.547663 
L 170.961413 277.399755 
L 171.34381 273.093593 
L 171.726206 240.362628 
L 172.108603 267.900094 
L 172.490999 274.539592 
L 173.255792 256.918151 
L 173.638188 91.148257 
L 174.020585 275.947334 
L 174.402981 276.691535 
L 174.785377 281.666504 
L 175.167774 271.987599 
L 175.55017 265.265721 
L 175.932567 288.825008 
L 176.314963 254.007099 
L 176.697359 262.54888 
L 177.079756 106.194791 
L 177.462152 280.407458 
L 177.844549 252.118002 
L 178.226945 278.91221 
L 178.609341 92.644587 
L 178.991738 99.532091 
L 179.374134 87.554283 
L 179.756531 91.789815 
L 180.138927 104.521615 
L 180.521323 98.769019 
L 180.90372 261.367357 
L 181.286116 258.016618 
L 181.668513 281.509522 
L 182.050909 263.758678 
L 182.433305 87.753424 
L 182.815702 100.631274 
L 183.198098 243.714209 
L 183.580495 94.461271 
L 183.962891 271.233987 
L 184.345288 90.673047 
L 184.727684 116.584637 
L 185.11008 84.572177 
L 185.492477 88.248988 
L 185.874873 279.53733 
L 186.25727 277.041123 
L 186.639666 98.867809 
L 187.022062 274.640033 
L 187.404459 108.714061 
L 187.786855 84.969675 
L 188.169252 86.257832 
L 188.551648 85.55395 
L 188.934044 77.867019 
L 189.316441 265.570205 
L 189.698837 82.299162 
L 190.081234 93.071118 
L 190.46363 99.253673 
L 190.846026 83.564635 
L 191.228423 250.944979 
L 191.610819 142.300508 
L 191.993216 105.218362 
L 192.375612 83.412686 
L 192.758008 92.375725 
L 193.140405 95.933094 
L 193.522801 250.644152 
L 193.905198 272.741037 
L 194.287594 99.878022 
L 194.66999 81.955576 
L 195.052387 88.03858 
L 195.434783 270.076066 
L 195.81718 96.886187 
L 196.199576 80.832668 
L 196.581972 252.590039 
L 196.964369 95.46423 
L 197.346765 84.191804 
L 197.729162 277.256587 
L 198.111558 280.887011 
L 198.493954 265.0148 
L 198.876351 141.22087 
L 199.258747 94.80297 
L 199.641144 274.293318 
L 200.02354 91.951952 
L 200.405936 264.595203 
L 200.788333 268.393262 
L 201.170729 283.824242 
L 201.553126 272.052537 
L 201.935522 281.983884 
L 202.317918 273.881475 
L 202.700315 281.442809 
L 203.082711 282.976365 
L 203.465108 283.962314 
L 203.847504 277.521978 
L 204.2299 278.41789 
L 204.612297 282.568724 
L 204.994693 283.462126 
L 205.37709 276.537446 
L 205.759486 274.028021 
L 206.141882 262.072922 
L 206.524279 272.781803 
L 207.289072 281.527948 
L 207.671468 274.488145 
L 208.053864 89.543747 
L 208.436261 280.846927 
L 208.818657 274.528737 
L 209.201054 270.603111 
L 209.58345 270.435009 
L 209.965846 256.967797 
L 210.348243 263.183997 
L 210.730639 277.258872 
L 211.113036 286.271815 
L 212.260225 262.885137 
L 212.642621 281.400546 
L 213.025018 271.514549 
L 213.407414 275.901059 
L 213.78981 97.318364 
L 214.172207 89.249606 
L 214.554603 101.378927 
L 214.937 88.559557 
L 215.319396 280.155197 
L 216.084189 259.772579 
L 216.466585 111.183251 
L 216.848982 242.138379 
L 217.231378 95.232707 
L 217.613774 278.626674 
L 217.996171 274.388604 
L 218.378567 273.846465 
L 218.760964 278.798535 
L 219.14336 266.141166 
L 219.908153 280.82267 
L 220.290549 272.182288 
L 220.672946 286.004081 
L 221.055342 282.879865 
L 221.437739 287.227123 
L 221.820135 282.900643 
L 222.202531 102.362811 
L 222.584928 286.094955 
L 222.967324 278.577024 
L 223.349721 274.671873 
L 223.732117 277.348634 
L 224.114513 280.841372 
L 224.49691 277.142173 
L 224.879306 284.126398 
L 225.261703 278.833301 
L 225.644099 98.243175 
L 226.026495 259.710846 
L 226.408892 146.917067 
L 226.791288 282.652661 
L 227.173685 276.011156 
L 227.556081 277.075428 
L 227.938477 276.061944 
L 228.320874 277.919649 
L 228.70327 276.234402 
L 229.085667 279.298756 
L 229.468063 277.755197 
L 230.232856 262.102824 
L 230.615252 265.036254 
L 230.997649 275.93606 
L 231.380045 262.454412 
L 231.762441 274.653457 
L 232.144838 86.174609 
L 232.527234 278.586228 
L 232.909631 91.071981 
L 233.292027 85.258913 
L 233.674423 95.22415 
L 234.05682 280.283143 
L 234.439216 273.281967 
L 234.821613 234.752405 
L 235.204009 277.078745 
L 235.586405 282.513018 
L 236.351198 271.931731 
L 236.733595 281.442335 
L 237.115991 282.484111 
L 237.498387 278.279008 
L 237.880784 116.180581 
L 238.26318 279.928301 
L 238.645577 287.825311 
L 239.027973 277.421583 
L 239.410369 273.742015 
L 239.792766 284.117159 
L 240.175162 282.776949 
L 240.557559 280.135193 
L 240.939955 288.408725 
L 241.322351 273.506016 
L 241.704748 284.011925 
L 242.087144 282.695483 
L 242.469541 275.744794 
L 242.851937 285.102754 
L 243.234333 255.233179 
L 243.61673 278.037903 
L 243.999126 272.887 
L 244.381523 273.150388 
L 244.763919 261.790724 
L 245.146315 280.265035 
L 245.528712 275.921777 
L 245.911108 100.737993 
L 246.293505 248.480305 
L 246.675901 275.150201 
L 247.058297 280.320629 
L 247.440694 279.637715 
L 247.82309 285.069043 
L 248.205487 287.649621 
L 248.587883 263.361602 
L 248.970279 286.137572 
L 249.352676 277.64162 
L 249.735072 282.793091 
L 250.117469 279.119315 
L 250.499865 115.063445 
L 250.882261 265.925874 
L 251.264658 216.12494 
L 251.647054 283.743652 
L 252.029451 259.076449 
L 252.411847 100.043633 
L 252.794243 107.114774 
L 253.17664 256.792766 
L 253.559036 91.558122 
L 253.941433 274.816926 
L 254.323829 280.632572 
L 254.706226 280.641749 
L 255.088622 279.348671 
L 255.471018 282.248103 
L 255.853415 275.624706 
L 256.235811 266.28267 
L 256.618208 265.452971 
L 257.000604 250.926757 
L 257.383 266.696378 
L 258.147793 276.571143 
L 258.53019 253.999962 
L 258.912586 88.792256 
L 259.294982 103.587612 
L 259.677379 274.159803 
L 260.059775 98.546995 
L 260.442172 277.774918 
L 260.824568 270.64165 
L 261.206964 266.562645 
L 261.589361 94.552976 
L 261.971757 85.694243 
L 262.354154 90.289043 
L 262.73655 264.500492 
L 263.118946 261.905793 
L 263.501343 282.291671 
L 263.883739 277.130674 
L 264.266136 129.180963 
L 264.648532 265.08673 
L 265.030928 277.195762 
L 265.413325 111.324795 
L 265.795721 273.600277 
L 266.178118 80.435885 
L 266.560514 86.34562 
L 266.94291 87.770957 
L 267.325307 261.776679 
L 267.707703 252.142099 
L 268.0901 283.727054 
L 268.472496 275.882809 
L 268.854892 94.68727 
L 269.237289 266.418006 
L 269.619685 281.161821 
L 270.002082 276.185623 
L 270.384478 257.143018 
L 270.766874 109.431439 
L 271.149271 269.682733 
L 271.531667 280.494454 
L 271.914064 223.691047 
L 272.29646 267.507471 
L 272.678856 282.036802 
L 273.061253 96.224571 
L 273.443649 266.479742 
L 273.826046 86.176604 
L 274.208442 76.424908 
L 274.590838 86.526587 
L 274.973235 79.879987 
L 275.355631 84.048583 
L 275.738028 242.822974 
L 276.120424 268.485734 
L 276.50282 282.643234 
L 276.885217 283.625889 
L 277.267613 277.824122 
L 277.65001 265.911362 
L 278.032406 260.094253 
L 278.414802 262.484987 
L 278.797199 91.086701 
L 279.179595 195.482444 
L 279.561992 100.784554 
L 279.944388 274.230325 
L 280.326784 266.421436 
L 280.709181 216.311901 
L 281.091577 262.116739 
L 281.473974 259.689441 
L 281.85637 281.891884 
L 282.238766 281.470151 
L 282.621163 88.517425 
L 283.003559 96.720839 
L 283.385956 275.429972 
L 283.768352 249.364416 
L 284.150748 264.99649 
L 284.533145 265.57427 
L 284.915541 85.972003 
L 285.297938 86.158112 
L 285.680334 279.660093 
L 286.06273 282.215769 
L 286.445127 275.236526 
L 286.827523 98.030496 
L 287.20992 99.554131 
L 287.592316 252.388118 
L 287.974712 264.026652 
L 288.357109 92.100863 
L 288.739505 98.023461 
L 289.121902 98.773425 
L 289.504298 267.197635 
L 289.886695 106.262789 
L 290.269091 260.787869 
L 290.651487 260.459051 
L 291.033884 256.98806 
L 291.41628 93.6498 
L 291.798677 95.025921 
L 292.181073 267.421991 
L 292.563469 281.466479 
L 292.945866 108.305054 
L 293.328262 97.163608 
L 293.710659 271.432854 
L 294.093055 269.809697 
L 294.475451 124.591135 
L 294.857848 278.908493 
L 295.240244 257.048755 
L 295.622641 267.555989 
L 296.005037 93.337832 
L 296.387433 281.989557 
L 296.76983 278.283087 
L 297.152226 277.024051 
L 297.534623 277.066777 
L 297.917019 277.847328 
L 298.299415 285.9803 
L 298.681812 279.881762 
L 299.064208 282.652915 
L 299.446605 273.860383 
L 299.829001 277.149279 
L 300.211397 281.607212 
L 300.593794 92.046981 
L 300.97619 287.891802 
L 301.358587 277.065246 
L 301.740983 273.518901 
L 302.123379 99.926741 
L 302.505776 275.500668 
L 302.888172 273.857841 
L 303.270569 283.424355 
L 303.652965 283.890383 
L 304.035361 283.005084 
L 304.417758 280.437406 
L 304.800154 276.371543 
L 305.182551 109.558643 
L 305.564947 269.035063 
L 305.947343 267.453698 
L 306.32974 252.939751 
L 306.712136 255.793052 
L 307.094533 98.847186 
L 307.476929 265.012093 
L 308.241722 286.371003 
L 309.006515 278.955846 
L 309.388911 275.873367 
L 309.771307 275.313599 
L 310.153704 277.34687 
L 310.5361 270.281109 
L 310.918497 97.708702 
L 311.300893 264.698942 
L 311.683289 139.946326 
L 312.065686 267.339352 
L 312.448082 112.194935 
L 312.830479 245.295856 
L 313.212875 244.128119 
L 313.595271 274.313998 
L 313.977668 281.766151 
L 314.360064 274.097368 
L 314.742461 282.660642 
L 315.124857 277.732463 
L 315.507253 288.444678 
L 315.88965 285.308199 
L 316.272046 263.634374 
L 316.654443 288.04372 
L 317.036839 283.811041 
L 317.419235 281.942223 
L 317.801632 278.136718 
L 318.184028 287.145239 
L 318.566425 286.887204 
L 318.948821 279.784786 
L 319.331217 280.85652 
L 319.713614 280.855653 
L 320.09601 279.502057 
L 320.478407 270.464219 
L 320.860803 288.31744 
L 321.243199 286.655895 
L 321.625596 279.310948 
L 322.007992 281.696925 
L 322.390389 282.671524 
L 322.772785 271.985128 
L 323.155181 268.099032 
L 323.537578 281.311266 
L 323.919974 286.344727 
L 324.302371 278.671132 
L 324.684767 280.773115 
L 325.067164 283.672886 
L 325.44956 275.405685 
L 325.831956 279.570233 
L 326.214353 254.567995 
L 326.596749 98.925335 
L 326.979146 270.332865 
L 327.361542 222.558099 
L 327.743938 281.730333 
L 328.126335 281.080584 
L 328.508731 284.777009 
L 328.891128 285.033589 
L 329.273524 276.235888 
L 329.65592 284.020402 
L 330.038317 282.939036 
L 330.420713 278.143169 
L 330.80311 286.016264 
L 331.185506 278.820921 
L 331.567902 287.161286 
L 331.950299 284.818729 
L 332.332695 284.596815 
L 332.715092 279.35438 
L 333.097488 286.925455 
L 333.479884 280.407793 
L 333.862281 270.96457 
L 334.244677 278.764945 
L 334.627074 280.690611 
L 335.00947 270.568366 
L 335.391866 271.678622 
L 335.774263 277.867879 
L 336.156659 287.291848 
L 336.539056 282.725709 
L 336.921452 284.955359 
L 337.303848 278.873365 
L 337.686245 275.413395 
L 338.068641 278.534719 
L 338.451038 270.214994 
L 338.833434 287.19149 
L 339.21583 274.173061 
L 339.598227 287.017347 
L 339.980623 280.929111 
L 340.36302 280.071709 
L 340.745416 283.684289 
L 341.127812 277.911061 
L 341.510209 287.840579 
L 341.892605 280.42174 
L 342.275002 278.888569 
L 342.657398 284.766945 
L 343.039794 281.390884 
L 343.422191 285.196184 
L 343.804587 277.632472 
L 344.186984 282.610983 
L 344.56938 277.007151 
L 344.951776 274.342672 
L 345.334173 273.483339 
L 345.716569 286.358029 
L 346.098966 109.904223 
L 346.481362 267.323058 
L 346.863758 92.893853 
L 347.246155 270.365802 
L 347.628551 268.934573 
L 348.010948 89.053467 
L 348.393344 251.999162 
L 348.77574 275.560621 
L 349.158137 283.428399 
L 349.540533 103.73127 
L 349.92293 152.564492 
L 350.305326 97.805366 
L 350.687722 283.922145 
L 351.070119 105.845564 
L 351.452515 279.040389 
L 351.834912 288.475514 
L 352.217308 279.069522 
L 352.599704 91.949632 
L 352.982101 276.631477 
L 353.364497 280.436361 
L 353.746894 277.748351 
L 354.12929 103.84356 
L 354.511686 262.335991 
L 354.894083 271.079803 
L 355.276479 264.160091 
L 355.658876 95.109005 
L 356.041272 106.416548 
L 356.423668 271.881318 
L 356.806065 270.283252 
L 357.188461 283.888944 
L 357.570858 281.402558 
L 357.953254 286.817366 
L 358.33565 284.116663 
L 359.100443 286.176028 
L 359.48284 286.663192 
L 359.865236 280.910906 
L 360.247633 286.575566 
L 360.630029 274.875181 
L 361.012425 275.645545 
L 361.394822 263.773691 
L 361.777218 283.905514 
L 362.159615 273.350141 
L 362.542011 269.294757 
L 362.924407 274.146482 
L 363.306804 275.342991 
L 363.6892 268.442523 
L 364.071597 275.553957 
L 364.453993 259.235015 
L 364.836389 93.211557 
L 365.218786 267.711831 
L 365.601182 90.343466 
L 365.983579 281.281824 
L 366.365975 257.178216 
L 366.748371 272.28127 
L 367.130768 281.372519 
L 367.513164 279.950272 
L 367.895561 284.462932 
L 368.277957 276.823999 
L 368.660353 271.997796 
L 369.04275 278.473165 
L 369.425146 272.274581 
L 369.807543 102.577489 
L 370.189939 273.333763 
L 370.572335 282.08125 
L 370.954732 280.752778 
L 371.337128 271.333327 
L 371.719525 279.855978 
L 372.101921 266.963984 
L 372.484317 98.468901 
L 373.24911 81.967722 
L 373.631507 277.860969 
L 374.013903 96.738016 
L 374.396299 273.441559 
L 374.778696 268.011633 
L 375.161092 281.56659 
L 375.543489 287.537097 
L 375.925885 272.139963 
L 376.308281 274.103996 
L 376.690678 257.246861 
L 377.455471 277.921407 
L 377.837867 276.754661 
L 378.220263 270.995923 
L 378.60266 281.235378 
L 378.985056 283.382497 
L 379.367453 279.503327 
L 379.749849 267.866513 
L 380.132245 277.535706 
L 380.514642 278.087274 
L 380.897038 273.351619 
L 381.279435 283.503233 
L 381.661831 283.955078 
L 382.044227 280.700945 
L 382.426624 279.704366 
L 383.191417 285.014298 
L 383.573813 271.688805 
L 383.956209 274.538146 
L 384.338606 280.08652 
L 384.721002 277.41881 
L 385.103399 283.231897 
L 385.485795 275.458933 
L 385.868191 278.310895 
L 386.250588 276.216158 
L 386.632984 262.089297 
L 387.015381 274.084897 
L 387.397777 217.501334 
L 387.780173 260.988045 
L 388.16257 125.762932 
L 388.544966 278.075133 
L 388.927363 286.395195 
L 389.309759 275.638157 
L 389.692155 279.812097 
L 390.074552 281.175716 
L 390.456948 285.918903 
L 391.221741 273.056305 
L 391.986534 283.891912 
L 392.36893 278.005025 
L 393.133723 274.410595 
L 393.898516 284.367046 
L 394.280912 280.243615 
L 394.663309 280.719742 
L 395.045705 286.623899 
L 395.428102 289.752571 
L 395.810498 282.596235 
L 396.192894 286.839501 
L 396.575291 281.838817 
L 396.957687 285.057659 
L 397.340084 272.932543 
L 397.72248 281.177558 
L 398.104876 282.537044 
L 398.487273 285.440023 
L 398.487273 285.440023 
" style="fill:none;stroke:#0000ff;stroke-linecap:square;stroke-width:1.5;"/>
   </g>
   <g id="line2d_32">
    <path clip-path="url(#p071ce9225f)" d="M 73.832727 282.4582 
L 74.215124 130.877184 
L 74.59752 281.202788 
L 74.979916 279.983878 
L 75.362313 94.145777 
L 75.744709 238.537276 
L 76.127106 90.368274 
L 76.509502 87.699725 
L 76.891898 94.122677 
L 77.274295 76.513871 
L 77.656691 76.641927 
L 78.039088 76.963974 
L 78.421484 87.991832 
L 78.803881 65.8176 
L 79.186277 72.205491 
L 79.568673 76.154738 
L 79.95107 84.956385 
L 80.333466 77.49912 
L 80.715863 78.717197 
L 81.098259 72.993468 
L 81.480655 73.114291 
L 81.863052 69.958625 
L 82.245448 76.812352 
L 82.627845 71.119483 
L 83.010241 72.421878 
L 83.392637 70.220493 
L 83.775034 73.124537 
L 84.15743 78.336617 
L 84.539827 69.650753 
L 84.922223 78.613382 
L 85.304619 65.878372 
L 85.687016 72.32892 
L 86.069412 75.585765 
L 86.451809 74.776578 
L 86.834205 75.025531 
L 87.216601 64.176601 
L 87.598998 64.698473 
L 87.981394 66.936547 
L 88.363791 62.947096 
L 88.746187 61.496266 
L 89.128583 76.460986 
L 89.51098 70.07167 
L 89.893376 69.483036 
L 90.275773 66.873061 
L 90.658169 67.293032 
L 91.040565 66.299145 
L 91.422962 71.141525 
L 91.805358 62.482142 
L 92.187755 63.838078 
L 92.570151 66.889815 
L 92.952547 62.855279 
L 93.334944 73.311217 
L 93.71734 67.918694 
L 94.099737 66.805426 
L 94.482133 68.349623 
L 95.246926 66.463247 
L 95.629322 65.799415 
L 96.011719 70.091741 
L 96.394115 60.62344 
L 96.776511 63.249785 
L 97.158908 62.990002 
L 97.541304 61.721309 
L 97.923701 63.388723 
L 98.306097 64.306591 
L 98.688493 62.747479 
L 99.07089 59.655759 
L 99.453286 60.708896 
L 99.835683 65.964877 
L 100.218079 61.546469 
L 100.600475 69.180628 
L 100.982872 70.763334 
L 101.365268 63.644427 
L 101.747665 62.515769 
L 102.130061 66.196279 
L 102.512457 65.541734 
L 102.894854 71.519722 
L 103.27725 70.543739 
L 103.659647 63.679565 
L 104.042043 70.052228 
L 104.424439 64.088743 
L 105.189232 75.179699 
L 105.954025 64.000642 
L 106.336421 64.057885 
L 106.718818 69.556745 
L 107.101214 61.563453 
L 107.483611 70.934637 
L 107.866007 63.81015 
L 108.248403 61.157374 
L 108.6308 65.950456 
L 109.013196 57.267214 
L 109.395593 58.355741 
L 109.777989 57.422644 
L 110.542782 65.918331 
L 110.925178 66.004185 
L 111.307575 62.06417 
L 111.689971 65.379289 
L 112.072367 64.078077 
L 112.454764 60.186197 
L 112.83716 68.333257 
L 113.219557 70.738215 
L 113.601953 72.353716 
L 113.98435 64.097384 
L 114.366746 62.360071 
L 114.749142 66.25271 
L 115.131539 66.601126 
L 115.513935 63.057529 
L 116.661124 58.19877 
L 117.043521 59.005818 
L 117.425917 62.830194 
L 117.808314 61.280458 
L 118.573106 67.20006 
L 118.955503 62.000881 
L 119.337899 59.113255 
L 119.720296 59.774203 
L 120.102692 62.658643 
L 120.485088 69.08253 
L 120.867485 65.026599 
L 121.249881 65.274057 
L 121.632278 64.800971 
L 122.014674 61.915669 
L 122.39707 67.144394 
L 122.779467 63.814019 
L 123.161863 62.957791 
L 123.54426 67.117259 
L 123.926656 65.550701 
L 124.309052 64.471402 
L 124.691449 64.362745 
L 125.073845 68.779066 
L 125.456242 62.806149 
L 125.838638 62.890452 
L 126.221034 68.904207 
L 126.603431 61.47114 
L 127.368224 70.840963 
L 127.75062 64.281617 
L 128.133016 62.370935 
L 128.515413 65.442784 
L 128.897809 57.521129 
L 129.280206 59.640341 
L 129.662602 58.409616 
L 130.044998 65.388492 
L 130.427395 62.40154 
L 130.809791 60.437242 
L 131.192188 61.449617 
L 131.574584 60.781954 
L 131.95698 59.194189 
L 132.339377 61.070991 
L 132.721773 57.457558 
L 133.10417 62.884502 
L 133.486566 60.622173 
L 133.868962 62.521586 
L 134.633755 64.452352 
L 135.016152 59.154875 
L 135.398548 63.823263 
L 135.780944 66.420762 
L 136.163341 61.311466 
L 136.545737 64.607492 
L 136.928134 64.263023 
L 137.31053 61.963998 
L 137.692926 61.252267 
L 138.075323 58.530847 
L 138.457719 58.592276 
L 138.840116 64.94154 
L 139.222512 60.505006 
L 139.604908 58.948189 
L 140.369701 64.240162 
L 140.752098 59.338619 
L 141.134494 59.172241 
L 141.51689 59.467086 
L 141.899287 60.439071 
L 142.281683 60.911082 
L 142.66408 60.843474 
L 143.046476 58.912622 
L 143.428872 59.213394 
L 143.811269 65.871722 
L 144.193665 57.762873 
L 144.576062 56.149071 
L 144.958458 60.167176 
L 145.340854 62.728312 
L 145.723251 63.748313 
L 146.105647 62.364297 
L 146.488044 61.431879 
L 147.252836 57.583635 
L 147.635233 58.547102 
L 148.017629 57.365354 
L 148.400026 61.380843 
L 148.782422 62.090932 
L 149.547215 58.604893 
L 149.929611 61.500913 
L 150.312008 61.359599 
L 150.694404 62.663964 
L 151.459197 59.217537 
L 151.841593 58.711925 
L 152.22399 59.717746 
L 152.606386 62.930102 
L 152.988783 76.137288 
L 153.371179 63.712395 
L 153.753575 62.760972 
L 154.135972 65.335862 
L 154.518368 63.181025 
L 154.900765 63.032633 
L 155.283161 64.948693 
L 155.665557 65.717594 
L 156.047954 60.554403 
L 156.43035 61.187337 
L 157.195143 70.268935 
L 157.577539 69.325842 
L 157.959936 62.084748 
L 158.342332 63.232092 
L 159.107125 61.648039 
L 159.489521 60.538235 
L 159.871918 63.45326 
L 160.254314 61.949337 
L 160.636711 63.265492 
L 161.019107 60.968992 
L 161.401503 66.026023 
L 161.7839 63.227912 
L 162.166296 61.419792 
L 162.548693 60.644693 
L 162.931089 62.761046 
L 163.313485 63.640212 
L 163.695882 65.74451 
L 164.078278 70.308043 
L 164.843071 63.300721 
L 165.225467 66.124598 
L 165.607864 67.215023 
L 165.99026 69.004159 
L 166.372657 63.039808 
L 166.755053 62.459188 
L 167.137449 60.61767 
L 167.519846 70.262385 
L 167.902242 55.518592 
L 168.284639 62.449855 
L 168.667035 66.568803 
L 169.049431 61.760202 
L 169.431828 64.363448 
L 169.814224 63.82021 
L 170.196621 61.716888 
L 170.579017 62.820764 
L 170.961413 59.286189 
L 171.34381 62.703556 
L 171.726206 61.802383 
L 172.108603 59.702226 
L 172.873395 65.930334 
L 173.255792 60.208559 
L 173.638188 58.806024 
L 174.402981 66.363353 
L 174.785377 58.035747 
L 175.167774 62.202689 
L 175.55017 56.835325 
L 175.932567 60.953628 
L 176.314963 60.563953 
L 176.697359 58.146474 
L 177.079756 57.157732 
L 177.462152 66.043993 
L 177.844549 62.908443 
L 178.226945 62.418238 
L 178.609341 58.718037 
L 178.991738 57.845808 
L 179.374134 53.568 
L 179.756531 53.839406 
L 180.138927 60.008964 
L 180.521323 60.574775 
L 181.286116 56.870406 
L 182.050909 63.092829 
L 182.433305 58.34564 
L 182.815702 60.725529 
L 183.198098 60.118901 
L 183.580495 63.56653 
L 183.962891 60.577861 
L 184.345288 59.292946 
L 184.727684 60.307057 
L 185.11008 61.978641 
L 185.492477 62.789419 
L 185.874873 69.54609 
L 186.25727 62.187344 
L 186.639666 61.126012 
L 187.022062 62.052192 
L 187.404459 58.475777 
L 187.786855 59.142667 
L 188.169252 57.742281 
L 188.551648 59.79323 
L 188.934044 56.410983 
L 189.316441 59.792014 
L 189.698837 56.886522 
L 190.081234 55.541499 
L 190.46363 57.01501 
L 190.846026 56.605608 
L 191.228423 58.694716 
L 191.610819 58.008705 
L 191.993216 59.450814 
L 192.375612 54.865613 
L 192.758008 58.308711 
L 193.140405 57.683245 
L 193.522801 59.69834 
L 193.905198 60.826545 
L 194.287594 58.558649 
L 194.66999 57.987112 
L 195.052387 60.027881 
L 195.434783 56.971549 
L 195.81718 59.428331 
L 196.199576 56.023042 
L 196.581972 55.713101 
L 196.964369 62.725807 
L 197.346765 60.12694 
L 197.729162 67.919857 
L 198.111558 63.945959 
L 198.493954 54.30484 
L 198.876351 60.26604 
L 199.641144 60.969647 
L 200.02354 59.492948 
L 200.405936 61.41932 
L 200.788333 66.209273 
L 201.170729 63.006376 
L 201.553126 62.112318 
L 201.935522 66.335786 
L 202.317918 64.25196 
L 202.700315 63.344543 
L 203.082711 69.022449 
L 203.465108 70.89493 
L 203.847504 64.318538 
L 204.2299 63.624122 
L 204.612297 66.971716 
L 204.994693 67.431756 
L 205.37709 62.971823 
L 205.759486 67.297739 
L 206.141882 56.901558 
L 206.524279 67.008828 
L 206.906675 65.217251 
L 207.289072 70.413912 
L 207.671468 62.569119 
L 208.053864 58.743918 
L 208.436261 59.421011 
L 208.818657 63.729728 
L 209.201054 62.810393 
L 209.58345 63.23551 
L 209.965846 62.705961 
L 210.348243 60.161354 
L 210.730639 65.434732 
L 211.113036 65.335446 
L 211.495432 67.142257 
L 211.877828 64.500203 
L 212.260225 64.772919 
L 212.642621 62.429384 
L 213.025018 62.213801 
L 213.407414 59.410848 
L 213.78981 65.903788 
L 214.554603 58.813606 
L 214.937 63.309016 
L 215.319396 64.657159 
L 215.701792 61.341052 
L 216.084189 62.791787 
L 216.466585 63.344535 
L 216.848982 58.362582 
L 217.231378 58.718818 
L 217.613774 62.117376 
L 217.996171 63.146894 
L 218.378567 64.680578 
L 218.760964 64.400926 
L 219.14336 59.175236 
L 219.525757 58.237522 
L 219.908153 63.954504 
L 220.290549 61.885143 
L 220.672946 73.546522 
L 221.055342 67.771048 
L 221.437739 63.887742 
L 221.820135 64.65119 
L 222.202531 60.166388 
L 222.967324 64.787716 
L 223.349721 63.57593 
L 223.732117 67.223126 
L 224.114513 67.317866 
L 224.49691 62.268267 
L 224.879306 64.867969 
L 225.261703 63.312203 
L 225.644099 59.02527 
L 226.026495 61.093917 
L 226.408892 60.561395 
L 226.791288 62.608489 
L 227.173685 57.166142 
L 227.556081 68.384355 
L 227.938477 63.411477 
L 228.320874 65.254943 
L 228.70327 59.393528 
L 229.085667 62.957254 
L 229.468063 60.391867 
L 229.850459 59.480194 
L 230.232856 59.31154 
L 230.615252 62.973231 
L 230.997649 58.7318 
L 231.380045 62.666322 
L 231.762441 59.834784 
L 232.144838 61.272531 
L 232.527234 57.411507 
L 232.909631 60.293576 
L 233.292027 56.665188 
L 233.674423 58.583879 
L 234.05682 71.584691 
L 234.439216 65.585602 
L 234.821613 66.148338 
L 235.204009 62.431362 
L 235.586405 63.174113 
L 235.968802 62.812018 
L 236.351198 61.236032 
L 236.733595 68.556706 
L 237.115991 63.196286 
L 237.498387 69.090581 
L 237.880784 61.062239 
L 238.645577 70.595784 
L 239.027973 62.757958 
L 239.410369 68.075627 
L 239.792766 71.065502 
L 240.175162 71.076102 
L 240.557559 65.110907 
L 240.939955 69.742408 
L 241.322351 63.837525 
L 241.704748 67.828519 
L 242.087144 63.561809 
L 242.469541 63.247378 
L 242.851937 66.107127 
L 243.234333 63.768136 
L 243.61673 66.294048 
L 243.999126 64.130389 
L 244.763919 64.040723 
L 245.146315 69.480328 
L 245.528712 61.310527 
L 245.911108 57.488066 
L 246.293505 58.871724 
L 246.675901 58.472562 
L 247.058297 55.14159 
L 247.440694 60.759802 
L 247.82309 58.829374 
L 248.587883 58.719769 
L 248.970279 61.996363 
L 249.352676 61.383046 
L 249.735072 62.811358 
L 250.117469 66.026001 
L 250.499865 58.011159 
L 250.882261 57.862469 
L 251.264658 61.684452 
L 251.647054 60.144389 
L 252.029451 63.152683 
L 252.411847 61.704274 
L 252.794243 55.921748 
L 253.17664 61.004942 
L 253.559036 60.718788 
L 253.941433 63.127122 
L 254.323829 68.693437 
L 254.706226 69.849508 
L 255.088622 66.142262 
L 255.471018 68.862043 
L 255.853415 61.704985 
L 256.235811 63.712258 
L 256.618208 61.922883 
L 257.000604 58.797377 
L 257.383 64.250868 
L 257.765397 61.976415 
L 258.147793 62.299712 
L 258.53019 65.256888 
L 258.912586 63.412767 
L 259.677379 57.770485 
L 260.059775 62.183877 
L 260.442172 63.316688 
L 260.824568 65.846881 
L 261.206964 66.303741 
L 261.589361 65.481935 
L 261.971757 60.716085 
L 262.354154 58.728234 
L 262.73655 61.975046 
L 263.118946 57.287157 
L 263.501343 64.791286 
L 263.883739 63.22045 
L 264.266136 58.651977 
L 264.648532 61.071886 
L 265.030928 61.543222 
L 265.413325 60.7529 
L 265.795721 61.729959 
L 266.178118 57.415836 
L 266.560514 57.623128 
L 267.325307 62.267794 
L 267.707703 60.752779 
L 268.0901 55.053272 
L 268.472496 59.588329 
L 268.854892 56.707351 
L 269.237289 58.474558 
L 269.619685 56.490467 
L 270.002082 64.743555 
L 270.384478 58.015925 
L 270.766874 59.955627 
L 271.149271 61.079026 
L 271.531667 62.805219 
L 271.914064 60.103859 
L 272.29646 63.586301 
L 272.678856 59.933862 
L 273.061253 62.502519 
L 273.443649 60.180306 
L 273.826046 59.639064 
L 274.208442 55.984565 
L 274.590838 56.570822 
L 276.120424 64.677707 
L 276.50282 62.667907 
L 276.885217 64.325936 
L 277.267613 61.573102 
L 278.032406 62.809851 
L 278.414802 61.712353 
L 278.797199 61.573939 
L 279.179595 61.23194 
L 279.561992 61.210358 
L 279.944388 63.893487 
L 280.709181 57.094886 
L 281.091577 64.356591 
L 281.85637 65.426369 
L 282.238766 67.858469 
L 282.621163 65.001046 
L 283.003559 58.798275 
L 283.385956 61.121978 
L 283.768352 59.666897 
L 284.150748 60.913158 
L 284.533145 60.339539 
L 284.915541 58.333702 
L 285.297938 58.81658 
L 285.680334 56.833823 
L 286.06273 67.363541 
L 286.445127 58.333892 
L 286.827523 60.46413 
L 287.20992 60.263872 
L 288.357109 58.492236 
L 288.739505 65.026629 
L 289.121902 60.763669 
L 289.504298 62.974176 
L 289.886695 58.454856 
L 290.269091 61.222513 
L 290.651487 58.618908 
L 291.033884 61.516015 
L 291.41628 59.329094 
L 291.798677 60.256431 
L 292.181073 59.639734 
L 292.563469 63.548065 
L 292.945866 58.809573 
L 293.328262 59.981009 
L 293.710659 60.022043 
L 294.093055 61.654875 
L 294.475451 58.306094 
L 294.857848 58.680891 
L 295.240244 63.472715 
L 295.622641 61.691527 
L 296.005037 65.507965 
L 296.387433 67.30935 
L 296.76983 66.899392 
L 297.534623 59.060382 
L 297.917019 60.485863 
L 298.299415 59.791405 
L 298.681812 67.004555 
L 299.064208 60.99563 
L 299.446605 70.075747 
L 299.829001 60.976688 
L 300.211397 65.469494 
L 300.593794 58.672046 
L 300.97619 63.986448 
L 301.358587 66.413398 
L 302.123379 59.1702 
L 302.505776 63.772145 
L 302.888172 57.089639 
L 303.270569 66.690178 
L 303.652965 63.103616 
L 304.035361 66.387367 
L 304.417758 64.03426 
L 304.800154 60.587045 
L 305.182551 62.97856 
L 305.564947 64.246198 
L 305.947343 64.20137 
L 306.32974 61.458991 
L 306.712136 66.491007 
L 307.094533 62.259693 
L 307.476929 67.48513 
L 307.859325 66.309419 
L 308.241722 68.068133 
L 308.624118 62.819526 
L 309.006515 65.404314 
L 309.388911 66.599398 
L 309.771307 60.460678 
L 310.153704 65.579205 
L 310.5361 60.718565 
L 310.918497 61.658262 
L 311.300893 65.661585 
L 311.683289 64.110046 
L 312.065686 64.421347 
L 312.448082 65.517623 
L 312.830479 63.284302 
L 313.212875 63.452078 
L 313.595271 62.20152 
L 313.977668 65.371861 
L 314.360064 66.042572 
L 314.742461 65.475043 
L 315.124857 62.806685 
L 315.507253 65.968284 
L 315.88965 66.139881 
L 316.272046 59.189243 
L 316.654443 69.638331 
L 317.036839 70.419137 
L 317.419235 68.415634 
L 317.801632 64.693265 
L 318.184028 75.839223 
L 318.948821 63.316335 
L 319.331217 63.277718 
L 319.713614 67.018376 
L 320.09601 64.50643 
L 320.478407 66.006415 
L 320.860803 62.648765 
L 321.243199 66.947551 
L 321.625596 67.028143 
L 322.007992 59.452306 
L 322.390389 63.356157 
L 322.772785 62.099054 
L 323.155181 58.934784 
L 323.537578 69.194529 
L 323.919974 62.922137 
L 324.302371 63.225787 
L 324.684767 63.312609 
L 325.067164 66.203467 
L 325.44956 58.548086 
L 326.214353 69.975223 
L 326.596749 62.686088 
L 326.979146 66.061844 
L 327.361542 63.102889 
L 327.743938 64.010182 
L 328.126335 63.636928 
L 328.508731 65.897818 
L 328.891128 70.447761 
L 329.273524 63.820464 
L 329.65592 66.245112 
L 330.038317 62.194615 
L 330.420713 66.072279 
L 330.80311 63.450684 
L 331.185506 64.47546 
L 331.567902 69.623264 
L 331.950299 64.376765 
L 332.332695 62.576829 
L 332.715092 63.236492 
L 333.097488 62.66509 
L 333.479884 64.388923 
L 333.862281 65.495946 
L 334.244677 65.545634 
L 334.627074 66.099434 
L 335.00947 58.584346 
L 335.391866 66.482466 
L 335.774263 61.985541 
L 336.156659 66.006928 
L 336.539056 60.40217 
L 336.921452 66.012895 
L 337.303848 62.200486 
L 337.686245 63.339307 
L 338.068641 58.460313 
L 338.451038 62.47104 
L 338.833434 60.910986 
L 339.21583 57.378699 
L 339.598227 69.921913 
L 339.980623 60.417736 
L 340.36302 62.499567 
L 340.745416 65.425153 
L 341.127812 61.603964 
L 341.510209 70.140888 
L 342.275002 63.317946 
L 342.657398 66.012736 
L 343.039794 69.976908 
L 343.422191 69.671965 
L 343.804587 59.585318 
L 344.186984 65.331268 
L 344.56938 60.858599 
L 344.951776 60.744437 
L 345.334173 65.039485 
L 345.716569 60.233385 
L 346.098966 60.402536 
L 346.481362 62.922666 
L 346.863758 57.214896 
L 347.246155 60.303854 
L 347.628551 59.606967 
L 348.010948 60.759796 
L 348.393344 61.550526 
L 348.77574 66.310978 
L 349.158137 58.339922 
L 349.540533 56.81249 
L 349.92293 62.78924 
L 350.305326 54.035215 
L 350.687722 62.700309 
L 351.070119 59.87216 
L 351.452515 58.622629 
L 351.834912 60.128448 
L 352.217308 60.804128 
L 352.599704 55.891763 
L 352.982101 59.344628 
L 353.364497 60.994849 
L 353.746894 61.452026 
L 354.12929 57.293506 
L 354.511686 61.176917 
L 354.894083 57.334227 
L 355.276479 60.382819 
L 355.658876 60.363373 
L 356.041272 62.964545 
L 356.423668 56.63171 
L 356.806065 63.660922 
L 357.188461 65.252756 
L 357.570858 62.635869 
L 357.953254 66.130841 
L 358.33565 66.508065 
L 358.718047 66.324052 
L 359.100443 67.234333 
L 359.48284 60.716215 
L 359.865236 65.112279 
L 360.247633 66.808 
L 360.630029 65.737141 
L 361.012425 63.356923 
L 361.394822 57.206621 
L 361.777218 69.533815 
L 362.159615 67.543213 
L 362.542011 63.991159 
L 362.924407 63.641139 
L 363.306804 69.722894 
L 363.6892 65.396355 
L 364.071597 65.744017 
L 364.453993 60.387496 
L 364.836389 59.482304 
L 365.218786 62.46283 
L 365.601182 58.857087 
L 365.983579 63.438382 
L 366.365975 63.165904 
L 367.130768 69.766426 
L 367.513164 71.398716 
L 367.895561 62.973178 
L 368.277957 59.996499 
L 368.660353 66.824219 
L 369.04275 58.693485 
L 369.425146 61.150952 
L 369.807543 59.930283 
L 370.189939 69.110673 
L 370.572335 70.269319 
L 370.954732 62.924257 
L 371.337128 60.949156 
L 371.719525 65.604488 
L 372.484317 57.229824 
L 372.866714 59.175817 
L 373.631507 65.437395 
L 374.396299 60.894426 
L 374.778696 57.002542 
L 375.161092 62.998977 
L 375.543489 60.692463 
L 375.925885 65.911569 
L 376.690678 54.574541 
L 377.073074 66.199731 
L 377.455471 65.63364 
L 377.837867 66.36518 
L 378.220263 63.310979 
L 378.60266 62.786483 
L 378.985056 59.187499 
L 379.367453 60.750737 
L 379.749849 63.674232 
L 380.132245 60.889983 
L 380.514642 66.400762 
L 380.897038 60.692256 
L 381.279435 70.65383 
L 381.661831 63.993221 
L 382.044227 66.048399 
L 382.426624 63.321876 
L 382.80902 58.522667 
L 383.191417 62.92851 
L 383.573813 61.480155 
L 383.956209 65.765067 
L 385.103399 61.302732 
L 385.485795 58.5627 
L 385.868191 60.840605 
L 386.250588 65.868471 
L 386.632984 62.509416 
L 387.015381 60.950544 
L 387.397777 65.840489 
L 387.780173 62.801209 
L 388.544966 69.407549 
L 388.927363 64.030231 
L 389.309759 62.683127 
L 389.692155 66.06967 
L 390.074552 63.38081 
L 390.456948 66.675364 
L 390.839345 64.430723 
L 391.221741 61.096161 
L 391.604137 67.879676 
L 391.986534 69.686878 
L 392.36893 66.120605 
L 392.751327 63.753187 
L 393.133723 66.710945 
L 393.516119 67.139442 
L 393.898516 65.913289 
L 394.280912 63.274529 
L 394.663309 69.556003 
L 395.045705 63.860552 
L 395.428102 70.182539 
L 395.810498 67.917999 
L 396.192894 63.336639 
L 396.575291 69.611399 
L 396.957687 67.431926 
L 397.340084 64.197293 
L 397.72248 66.651661 
L 398.104876 59.810603 
L 398.487273 68.250187 
L 398.487273 68.250187 
" style="fill:none;stroke:#ff0000;stroke-linecap:square;stroke-width:1.5;"/>
   </g>
   <g id="patch_3">
    <path d="M 57.6 307.584 
L 57.6 41.472 
" style="fill:none;stroke:#000000;stroke-linecap:square;stroke-linejoin:miter;stroke-width:0.8;"/>
   </g>
   <g id="patch_4">
    <path d="M 414.72 307.584 
L 414.72 41.472 
" style="fill:none;stroke:#000000;stroke-linecap:square;stroke-linejoin:miter;stroke-width:0.8;"/>
   </g>
   <g id="patch_5">
    <path d="M 57.6 307.584 
L 414.72 307.584 
" style="fill:none;stroke:#000000;stroke-linecap:square;stroke-linejoin:miter;stroke-width:0.8;"/>
   </g>
   <g id="patch_6">
    <path d="M 57.6 41.472 
L 414.72 41.472 
" style="fill:none;stroke:#000000;stroke-linecap:square;stroke-linejoin:miter;stroke-width:0.8;"/>
   </g>
   <g id="text_18">
    <!-- Population's average and best fitness -->
    <g transform="translate(123.529687 35.472)scale(0.12 -0.12)">
     <defs>
      <path d="M 19.671875 64.796875 
L 19.671875 37.40625 
L 32.078125 37.40625 
Q 38.96875 37.40625 42.71875 40.96875 
Q 46.484375 44.53125 46.484375 51.125 
Q 46.484375 57.671875 42.71875 61.234375 
Q 38.96875 64.796875 32.078125 64.796875 
z
M 9.8125 72.90625 
L 32.078125 72.90625 
Q 44.34375 72.90625 50.609375 67.359375 
Q 56.890625 61.8125 56.890625 51.125 
Q 56.890625 40.328125 50.609375 34.8125 
Q 44.34375 29.296875 32.078125 29.296875 
L 19.671875 29.296875 
L 19.671875 0 
L 9.8125 0 
z
" id="DejaVuSans-80"/>
      <path d="M 18.109375 8.203125 
L 18.109375 -20.796875 
L 9.078125 -20.796875 
L 9.078125 54.6875 
L 18.109375 54.6875 
L 18.109375 46.390625 
Q 20.953125 51.265625 25.265625 53.625 
Q 29.59375 56 35.59375 56 
Q 45.5625 56 51.78125 48.09375 
Q 58.015625 40.1875 58.015625 27.296875 
Q 58.015625 14.40625 51.78125 6.484375 
Q 45.5625 -1.421875 35.59375 -1.421875 
Q 29.59375 -1.421875 25.265625 0.953125 
Q 20.953125 3.328125 18.109375 8.203125 
z
M 48.6875 27.296875 
Q 48.6875 37.203125 44.609375 42.84375 
Q 40.53125 48.484375 33.40625 48.484375 
Q 26.265625 48.484375 22.1875 42.84375 
Q 18.109375 37.203125 18.109375 27.296875 
Q 18.109375 17.390625 22.1875 11.75 
Q 26.265625 6.109375 33.40625 6.109375 
Q 40.53125 6.109375 44.609375 11.75 
Q 48.6875 17.390625 48.6875 27.296875 
z
" id="DejaVuSans-112"/>
      <path d="M 8.5 21.578125 
L 8.5 54.6875 
L 17.484375 54.6875 
L 17.484375 21.921875 
Q 17.484375 14.15625 20.5 10.265625 
Q 23.53125 6.390625 29.59375 6.390625 
Q 36.859375 6.390625 41.078125 11.03125 
Q 45.3125 15.671875 45.3125 23.6875 
L 45.3125 54.6875 
L 54.296875 54.6875 
L 54.296875 0 
L 45.3125 0 
L 45.3125 8.40625 
Q 42.046875 3.421875 37.71875 1 
Q 33.40625 -1.421875 27.6875 -1.421875 
Q 18.265625 -1.421875 13.375 4.4375 
Q 8.5 10.296875 8.5 21.578125 
z
M 31.109375 56 
z
" id="DejaVuSans-117"/>
      <path d="M 9.421875 75.984375 
L 18.40625 75.984375 
L 18.40625 0 
L 9.421875 0 
z
" id="DejaVuSans-108"/>
      <path d="M 17.921875 72.90625 
L 17.921875 45.796875 
L 9.625 45.796875 
L 9.625 72.90625 
z
" id="DejaVuSans-39"/>
      <path id="DejaVuSans-32"/>
      <path d="M 2.984375 54.6875 
L 12.5 54.6875 
L 29.59375 8.796875 
L 46.6875 54.6875 
L 56.203125 54.6875 
L 35.6875 0 
L 23.484375 0 
z
" id="DejaVuSans-118"/>
      <path d="M 45.40625 27.984375 
Q 45.40625 37.75 41.375 43.109375 
Q 37.359375 48.484375 30.078125 48.484375 
Q 22.859375 48.484375 18.828125 43.109375 
Q 14.796875 37.75 14.796875 27.984375 
Q 14.796875 18.265625 18.828125 12.890625 
Q 22.859375 7.515625 30.078125 7.515625 
Q 37.359375 7.515625 41.375 12.890625 
Q 45.40625 18.265625 45.40625 27.984375 
z
M 54.390625 6.78125 
Q 54.390625 -7.171875 48.1875 -13.984375 
Q 42 -20.796875 29.203125 -20.796875 
Q 24.46875 -20.796875 20.265625 -20.09375 
Q 16.0625 -19.390625 12.109375 -17.921875 
L 12.109375 -9.1875 
Q 16.0625 -11.328125 19.921875 -12.34375 
Q 23.78125 -13.375 27.78125 -13.375 
Q 36.625 -13.375 41.015625 -8.765625 
Q 45.40625 -4.15625 45.40625 5.171875 
L 45.40625 9.625 
Q 42.625 4.78125 38.28125 2.390625 
Q 33.9375 0 27.875 0 
Q 17.828125 0 11.671875 7.65625 
Q 5.515625 15.328125 5.515625 27.984375 
Q 5.515625 40.671875 11.671875 48.328125 
Q 17.828125 56 27.875 56 
Q 33.9375 56 38.28125 53.609375 
Q 42.625 51.21875 45.40625 46.390625 
L 45.40625 54.6875 
L 54.390625 54.6875 
z
" id="DejaVuSans-103"/>
      <path d="M 45.40625 46.390625 
L 45.40625 75.984375 
L 54.390625 75.984375 
L 54.390625 0 
L 45.40625 0 
L 45.40625 8.203125 
Q 42.578125 3.328125 38.25 0.953125 
Q 33.9375 -1.421875 27.875 -1.421875 
Q 17.96875 -1.421875 11.734375 6.484375 
Q 5.515625 14.40625 5.515625 27.296875 
Q 5.515625 40.1875 11.734375 48.09375 
Q 17.96875 56 27.875 56 
Q 33.9375 56 38.25 53.625 
Q 42.578125 51.265625 45.40625 46.390625 
z
M 14.796875 27.296875 
Q 14.796875 17.390625 18.875 11.75 
Q 22.953125 6.109375 30.078125 6.109375 
Q 37.203125 6.109375 41.296875 11.75 
Q 45.40625 17.390625 45.40625 27.296875 
Q 45.40625 37.203125 41.296875 42.84375 
Q 37.203125 48.484375 30.078125 48.484375 
Q 22.953125 48.484375 18.875 42.84375 
Q 14.796875 37.203125 14.796875 27.296875 
z
" id="DejaVuSans-100"/>
      <path d="M 48.6875 27.296875 
Q 48.6875 37.203125 44.609375 42.84375 
Q 40.53125 48.484375 33.40625 48.484375 
Q 26.265625 48.484375 22.1875 42.84375 
Q 18.109375 37.203125 18.109375 27.296875 
Q 18.109375 17.390625 22.1875 11.75 
Q 26.265625 6.109375 33.40625 6.109375 
Q 40.53125 6.109375 44.609375 11.75 
Q 48.6875 17.390625 48.6875 27.296875 
z
M 18.109375 46.390625 
Q 20.953125 51.265625 25.265625 53.625 
Q 29.59375 56 35.59375 56 
Q 45.5625 56 51.78125 48.09375 
Q 58.015625 40.1875 58.015625 27.296875 
Q 58.015625 14.40625 51.78125 6.484375 
Q 45.5625 -1.421875 35.59375 -1.421875 
Q 29.59375 -1.421875 25.265625 0.953125 
Q 20.953125 3.328125 18.109375 8.203125 
L 18.109375 0 
L 9.078125 0 
L 9.078125 75.984375 
L 18.109375 75.984375 
z
" id="DejaVuSans-98"/>
      <path d="M 37.109375 75.984375 
L 37.109375 68.5 
L 28.515625 68.5 
Q 23.6875 68.5 21.796875 66.546875 
Q 19.921875 64.59375 19.921875 59.515625 
L 19.921875 54.6875 
L 34.71875 54.6875 
L 34.71875 47.703125 
L 19.921875 47.703125 
L 19.921875 0 
L 10.890625 0 
L 10.890625 47.703125 
L 2.296875 47.703125 
L 2.296875 54.6875 
L 10.890625 54.6875 
L 10.890625 58.5 
Q 10.890625 67.625 15.140625 71.796875 
Q 19.390625 75.984375 28.609375 75.984375 
z
" id="DejaVuSans-102"/>
     </defs>
     <use xlink:href="#DejaVuSans-80"/>
     <use x="56.677734" xlink:href="#DejaVuSans-111"/>
     <use x="117.859375" xlink:href="#DejaVuSans-112"/>
     <use x="181.335938" xlink:href="#DejaVuSans-117"/>
     <use x="244.714844" xlink:href="#DejaVuSans-108"/>
     <use x="272.498047" xlink:href="#DejaVuSans-97"/>
     <use x="333.777344" xlink:href="#DejaVuSans-116"/>
     <use x="372.986328" xlink:href="#DejaVuSans-105"/>
     <use x="400.769531" xlink:href="#DejaVuSans-111"/>
     <use x="461.951172" xlink:href="#DejaVuSans-110"/>
     <use x="525.330078" xlink:href="#DejaVuSans-39"/>
     <use x="552.820312" xlink:href="#DejaVuSans-115"/>
     <use x="604.919922" xlink:href="#DejaVuSans-32"/>
     <use x="636.707031" xlink:href="#DejaVuSans-97"/>
     <use x="697.986328" xlink:href="#DejaVuSans-118"/>
     <use x="757.166016" xlink:href="#DejaVuSans-101"/>
     <use x="818.689453" xlink:href="#DejaVuSans-114"/>
     <use x="859.802734" xlink:href="#DejaVuSans-97"/>
     <use x="921.082031" xlink:href="#DejaVuSans-103"/>
     <use x="984.558594" xlink:href="#DejaVuSans-101"/>
     <use x="1046.082031" xlink:href="#DejaVuSans-32"/>
     <use x="1077.869141" xlink:href="#DejaVuSans-97"/>
     <use x="1139.148438" xlink:href="#DejaVuSans-110"/>
     <use x="1202.527344" xlink:href="#DejaVuSans-100"/>
     <use x="1266.003906" xlink:href="#DejaVuSans-32"/>
     <use x="1297.791016" xlink:href="#DejaVuSans-98"/>
     <use x="1361.267578" xlink:href="#DejaVuSans-101"/>
     <use x="1422.791016" xlink:href="#DejaVuSans-115"/>
     <use x="1474.890625" xlink:href="#DejaVuSans-116"/>
     <use x="1514.099609" xlink:href="#DejaVuSans-32"/>
     <use x="1545.886719" xlink:href="#DejaVuSans-102"/>
     <use x="1581.091797" xlink:href="#DejaVuSans-105"/>
     <use x="1608.875" xlink:href="#DejaVuSans-116"/>
     <use x="1648.083984" xlink:href="#DejaVuSans-110"/>
     <use x="1711.462891" xlink:href="#DejaVuSans-101"/>
     <use x="1772.986328" xlink:href="#DejaVuSans-115"/>
     <use x="1825.085938" xlink:href="#DejaVuSans-115"/>
    </g>
   </g>
   <g id="legend_1">
    <g id="patch_7">
     <path d="M 334.779375 190.706125 
L 407.72 190.706125 
Q 409.72 190.706125 409.72 188.706125 
L 409.72 160.349875 
Q 409.72 158.349875 407.72 158.349875 
L 334.779375 158.349875 
Q 332.779375 158.349875 332.779375 160.349875 
L 332.779375 188.706125 
Q 332.779375 190.706125 334.779375 190.706125 
z
" style="fill:#ffffff;opacity:0.8;stroke:#cccccc;stroke-linejoin:miter;"/>
    </g>
    <g id="line2d_33">
     <path d="M 336.779375 166.448312 
L 356.779375 166.448312 
" style="fill:none;stroke:#0000ff;stroke-linecap:square;stroke-width:1.5;"/>
    </g>
    <g id="line2d_34"/>
    <g id="text_19">
     <!-- average -->
     <g transform="translate(364.779375 169.948312)scale(0.1 -0.1)">
      <use xlink:href="#DejaVuSans-97"/>
      <use x="61.279297" xlink:href="#DejaVuSans-118"/>
      <use x="120.458984" xlink:href="#DejaVuSans-101"/>
      <use x="181.982422" xlink:href="#DejaVuSans-114"/>
      <use x="223.095703" xlink:href="#DejaVuSans-97"/>
      <use x="284.375" xlink:href="#DejaVuSans-103"/>
      <use x="347.851562" xlink:href="#DejaVuSans-101"/>
     </g>
    </g>
    <g id="line2d_35">
     <path d="M 336.779375 181.126437 
L 356.779375 181.126437 
" style="fill:none;stroke:#ff0000;stroke-linecap:square;stroke-width:1.5;"/>
    </g>
    <g id="line2d_36"/>
    <g id="text_20">
     <!-- best -->
     <g transform="translate(364.779375 184.626437)scale(0.1 -0.1)">
      <use xlink:href="#DejaVuSans-98"/>
      <use x="63.476562" xlink:href="#DejaVuSans-101"/>
      <use x="125" xlink:href="#DejaVuSans-115"/>
      <use x="177.099609" xlink:href="#DejaVuSans-116"/>
     </g>
    </g>
   </g>
  </g>
 </g>
 <defs>
  <clipPath id="p071ce9225f">
   <rect height="266.112" width="357.12" x="57.6" y="41.472"/>
  </clipPath>
 </defs>
</svg>
