<?xml version="1.0" encoding="UTF-8" standalone="no"?>
<!DOCTYPE svg PUBLIC "-//W3C//DTD SVG 1.1//EN"
 "http://www.w3.org/Graphics/SVG/1.1/DTD/svg11.dtd">
<!-- Generated by graphviz version 2.40.1 (20161225.0304)
 -->
<!-- Title: %3 Pages: 1 -->
<svg width="851pt" height="207pt"
 viewBox="0.00 0.00 851.00 206.89" xmlns="http://www.w3.org/2000/svg" xmlns:xlink="http://www.w3.org/1999/xlink">
<g id="graph0" class="graph" transform="scale(1 1) rotate(0) translate(4 202.8944)">
<title>%3</title>
<polygon fill="#ffffff" stroke="transparent" points="-4,4 -4,-202.8944 847,-202.8944 847,4 -4,4"/>
<!-- x&#45;vel -->
<g id="node1" class="node">
<title>x&#45;vel</title>
<polygon fill="#d3d3d3" stroke="#000000" points="127.5,-135.5097 92.5,-135.5097 92.5,-117.5097 127.5,-117.5097 127.5,-135.5097"/>
<text text-anchor="middle" x="110" y="-124.3097" font-family="Times,serif" font-size="9.00" fill="#000000">x&#45;vel</text>
</g>
<!-- none -->
<g id="node13" class="node">
<title>none</title>
<ellipse fill="#add8e6" stroke="#000000" cx="149" cy="-36.0624" rx="24.0833" ry="24.0833"/>
<text text-anchor="middle" x="149" y="-33.8624" font-family="Times,serif" font-size="9.00" fill="#000000">none</text>
</g>
<!-- x&#45;vel&#45;&gt;none -->
<g id="edge20" class="edge">
<title>x&#45;vel&#45;&gt;none</title>
<path fill="none" stroke="#00ff00" stroke-width=".2937" d="M113.8821,-117.5066C118.8565,-105.97 127.7442,-85.3581 135.3334,-67.7574"/>
<polygon fill="#00ff00" stroke="#00ff00" stroke-width=".2937" points="138.6374,-68.9344 139.383,-58.3658 132.2095,-66.1627 138.6374,-68.9344"/>
</g>
<!-- forward -->
<g id="node16" class="node">
<title>forward</title>
<ellipse fill="#add8e6" stroke="#000000" cx="344" cy="-36.0624" rx="31.6406" ry="31.6406"/>
<text text-anchor="middle" x="344" y="-33.8624" font-family="Times,serif" font-size="9.00" fill="#000000">forward</text>
</g>
<!-- x&#45;vel&#45;&gt;forward -->
<g id="edge21" class="edge">
<title>x&#45;vel&#45;&gt;forward</title>
<path fill="none" stroke="#00ff00" stroke-width=".3928" d="M121.2884,-117.4852C125.9336,-114.1378 131.5068,-110.5662 137,-108.1249 198.8617,-80.6321 222.4812,-98.0886 285,-72.1249 293.1281,-68.7493 301.4394,-64.3496 309.1625,-59.7891"/>
<polygon fill="#00ff00" stroke="#00ff00" stroke-width=".3928" points="311.2241,-62.6304 317.9123,-54.4134 307.5597,-56.6661 311.2241,-62.6304"/>
</g>
<!-- y&#45;vel -->
<g id="node2" class="node">
<title>y&#45;vel</title>
<polygon fill="#d3d3d3" stroke="#000000" points="289.5,-135.5097 254.5,-135.5097 254.5,-117.5097 289.5,-117.5097 289.5,-135.5097"/>
<text text-anchor="middle" x="272" y="-124.3097" font-family="Times,serif" font-size="9.00" fill="#000000">y&#45;vel</text>
</g>
<!-- y&#45;vel&#45;&gt;none -->
<g id="edge5" class="edge">
<title>y&#45;vel&#45;&gt;none</title>
<path fill="none" stroke="#00ff00" stroke-width=".2562" d="M259.7566,-117.5066C240.5398,-103.3757 202.8063,-75.6286 176.7624,-56.4773"/>
<polygon fill="#00ff00" stroke="#00ff00" stroke-width=".2562" points="178.5517,-53.4486 168.4218,-50.3442 174.4047,-59.0881 178.5517,-53.4486"/>
</g>
<!-- right -->
<g id="node14" class="node">
<title>right</title>
<ellipse fill="#add8e6" stroke="#000000" cx="235" cy="-36.0624" rx="23.1702" ry="23.1702"/>
<text text-anchor="middle" x="235" y="-33.8624" font-family="Times,serif" font-size="9.00" fill="#000000">right</text>
</g>
<!-- y&#45;vel&#45;&gt;right -->
<g id="edge25" class="edge">
<title>y&#45;vel&#45;&gt;right</title>
<path fill="none" stroke="#00ff00" stroke-width=".1869" stroke-dasharray="1,5" d="M268.317,-117.5066C263.5668,-105.8946 255.0554,-85.0883 247.8247,-67.4127"/>
<polygon fill="#00ff00" stroke="#00ff00" stroke-width=".1869" points="250.9971,-65.9236 243.9714,-57.9933 244.5183,-68.574 250.9971,-65.9236"/>
</g>
<!-- y&#45;vel&#45;&gt;forward -->
<g id="edge6" class="edge">
<title>y&#45;vel&#45;&gt;forward</title>
<path fill="none" stroke="#00ff00" stroke-width=".1775" d="M279.1669,-117.5066C288.0926,-106.294 303.8427,-86.5086 317.5836,-69.247"/>
<polygon fill="#00ff00" stroke="#00ff00" stroke-width=".1775" points="320.6394,-71.0281 324.1291,-61.0245 315.1627,-66.6684 320.6394,-71.0281"/>
</g>
<!-- backward -->
<g id="node17" class="node">
<title>backward</title>
<ellipse fill="#add8e6" stroke="#000000" cx="483" cy="-36.0624" rx="36.125" ry="36.125"/>
<text text-anchor="middle" x="483" y="-33.8624" font-family="Times,serif" font-size="9.00" fill="#000000">backward</text>
</g>
<!-- y&#45;vel&#45;&gt;backward -->
<g id="edge1" class="edge">
<title>y&#45;vel&#45;&gt;backward</title>
<path fill="none" stroke="#00ff00" stroke-width=".2976" d="M283.9452,-117.3739C288.4949,-114.1675 293.8311,-110.7215 299,-108.1249 342.7081,-86.1682 357.5467,-90.1939 403,-72.1249 415.3997,-67.1957 428.6791,-61.418 440.7848,-55.9496"/>
<polygon fill="#00ff00" stroke="#00ff00" stroke-width=".2976" points="442.5578,-58.9878 450.2025,-51.6523 439.6519,-52.6194 442.5578,-58.9878"/>
</g>
<!-- x&#45;pos -->
<g id="node3" class="node">
<title>x&#45;pos</title>
<polygon fill="#d3d3d3" stroke="#000000" points="36,-135.5097 0,-135.5097 0,-117.5097 36,-117.5097 36,-135.5097"/>
<text text-anchor="middle" x="18" y="-124.3097" font-family="Times,serif" font-size="9.00" fill="#000000">x&#45;pos</text>
</g>
<!-- x&#45;pos&#45;&gt;none -->
<g id="edge2" class="edge">
<title>x&#45;pos&#45;&gt;none</title>
<path fill="none" stroke="#00ff00" stroke-width=".284" d="M31.0397,-117.5066C51.7121,-103.2336 92.5042,-75.0692 120.2648,-55.9023"/>
<polygon fill="#00ff00" stroke="#00ff00" stroke-width=".284" points="122.5375,-58.5863 128.7781,-50.0244 118.5603,-52.8259 122.5375,-58.5863"/>
</g>
<!-- x&#45;pos&#45;&gt;right -->
<g id="edge22" class="edge">
<title>x&#45;pos&#45;&gt;right</title>
<path fill="none" stroke="#00ff00" stroke-width=".2374" d="M31.9395,-117.4667C37.4118,-114.1957 43.8467,-110.6821 50,-108.1249 106.1534,-84.7887 126.7736,-97.5773 182,-72.1249 191.0558,-67.9513 200.2646,-62.282 208.4101,-56.6751"/>
<polygon fill="#00ff00" stroke="#00ff00" stroke-width=".2374" points="210.6789,-59.3554 216.7739,-50.6892 206.605,-53.663 210.6789,-59.3554"/>
</g>
<!-- y&#45;pos -->
<g id="node4" class="node">
<title>y&#45;pos</title>
<polygon fill="#d3d3d3" stroke="#000000" points="236,-135.5097 200,-135.5097 200,-117.5097 236,-117.5097 236,-135.5097"/>
<text text-anchor="middle" x="218" y="-124.3097" font-family="Times,serif" font-size="9.00" fill="#000000">y&#45;pos</text>
</g>
<!-- y&#45;pos&#45;&gt;right -->
<g id="edge14" class="edge">
<title>y&#45;pos&#45;&gt;right</title>
<path fill="none" stroke="#ff0000" stroke-width=".4708" d="M219.6922,-117.5066C221.7925,-106.3317 225.4934,-86.6415 228.7301,-69.4212"/>
<polygon fill="#ff0000" stroke="#ff0000" stroke-width=".4708" points="232.2594,-69.5909 230.6669,-59.1165 225.3798,-68.2978 232.2594,-69.5909"/>
</g>
<!-- y&#45;pos&#45;&gt;forward -->
<g id="edge8" class="edge">
<title>y&#45;pos&#45;&gt;forward</title>
<path fill="none" stroke="#00ff00" stroke-width=".1386" d="M230.542,-117.5066C248.8527,-104.3625 283.5749,-79.4377 309.8063,-60.6079"/>
<polygon fill="#00ff00" stroke="#00ff00" stroke-width=".1386" points="311.9103,-63.406 317.993,-54.7312 307.8283,-57.7194 311.9103,-63.406"/>
</g>
<!-- x&#45;lm1&#45;vec -->
<g id="node5" class="node">
<title>x&#45;lm1&#45;vec</title>
<polygon fill="#d3d3d3" stroke="#000000" points="621.5,-135.5097 568.5,-135.5097 568.5,-117.5097 621.5,-117.5097 621.5,-135.5097"/>
<text text-anchor="middle" x="595" y="-124.3097" font-family="Times,serif" font-size="9.00" fill="#000000">x&#45;lm1&#45;vec</text>
</g>
<!-- left -->
<g id="node15" class="node">
<title>left</title>
<ellipse fill="#add8e6" stroke="#000000" cx="595" cy="-36.0624" rx="19.6" ry="19.6"/>
<text text-anchor="middle" x="595" y="-33.8624" font-family="Times,serif" font-size="9.00" fill="#000000">left</text>
</g>
<!-- x&#45;lm1&#45;vec&#45;&gt;left -->
<g id="edge24" class="edge">
<title>x&#45;lm1&#45;vec&#45;&gt;left</title>
<path fill="none" stroke="#00ff00" stroke-width=".1702" d="M595,-117.5066C595,-105.6286 595,-84.1302 595,-66.203"/>
<polygon fill="#00ff00" stroke="#00ff00" stroke-width=".1702" points="598.5001,-66.1601 595,-56.1602 591.5001,-66.1602 598.5001,-66.1601"/>
</g>
<!-- x&#45;lm1&#45;vec&#45;&gt;forward -->
<g id="edge18" class="edge">
<title>x&#45;lm1&#45;vec&#45;&gt;forward</title>
<path fill="none" stroke="#ff0000" stroke-width=".2212" d="M568.2373,-117.5378C536.9126,-106.9675 483.5249,-88.7374 438,-72.1249 420.0187,-65.5633 400.2205,-58.0166 383.4502,-51.5281"/>
<polygon fill="#ff0000" stroke="#ff0000" stroke-width=".2212" points="384.5514,-48.2012 373.9626,-47.8456 382.0185,-54.7269 384.5514,-48.2012"/>
</g>
<!-- y&#45;lm1&#45;vec -->
<g id="node6" class="node">
<title>y&#45;lm1&#45;vec</title>
<polygon fill="#d3d3d3" stroke="#000000" points="692.5,-135.5097 639.5,-135.5097 639.5,-117.5097 692.5,-117.5097 692.5,-135.5097"/>
<text text-anchor="middle" x="666" y="-124.3097" font-family="Times,serif" font-size="9.00" fill="#000000">y&#45;lm1&#45;vec</text>
</g>
<!-- y&#45;lm1&#45;vec&#45;&gt;backward -->
<g id="edge28" class="edge">
<title>y&#45;lm1&#45;vec&#45;&gt;backward</title>
<path fill="none" stroke="#00ff00" stroke-width=".2385" d="M648.9642,-117.4279C643.2712,-114.4286 636.8795,-111.0996 631,-108.1249 595.4494,-90.1382 554.7272,-70.3706 525.0093,-56.096"/>
<polygon fill="#00ff00" stroke="#00ff00" stroke-width=".2385" points="526.2979,-52.8324 515.7677,-51.6636 523.2707,-59.144 526.2979,-52.8324"/>
</g>
<!-- x&#45;lm2&#45;vec -->
<g id="node7" class="node">
<title>x&#45;lm2&#45;vec</title>
<polygon fill="#d3d3d3" stroke="#000000" points="435.5,-135.5097 382.5,-135.5097 382.5,-117.5097 435.5,-117.5097 435.5,-135.5097"/>
<text text-anchor="middle" x="409" y="-124.3097" font-family="Times,serif" font-size="9.00" fill="#000000">x&#45;lm2&#45;vec</text>
</g>
<!-- x&#45;lm2&#45;vec&#45;&gt;right -->
<g id="edge11" class="edge">
<title>x&#45;lm2&#45;vec&#45;&gt;right</title>
<path fill="none" stroke="#00ff00" stroke-width=".141" d="M391.3101,-117.4704C365.713,-104.3843 319.5961,-80.7825 303,-72.1249 290.4728,-65.5899 276.6936,-58.3012 264.8337,-51.9963"/>
<polygon fill="#00ff00" stroke="#00ff00" stroke-width=".141" points="266.2661,-48.7938 255.7942,-47.184 262.9765,-54.9728 266.2661,-48.7938"/>
</g>
<!-- x&#45;lm2&#45;vec&#45;&gt;forward -->
<g id="edge4" class="edge">
<title>x&#45;lm2&#45;vec&#45;&gt;forward</title>
<path fill="none" stroke="#00ff00" stroke-width=".1655" d="M402.5299,-117.5066C394.6376,-106.5244 380.8349,-87.318 368.615,-70.3141"/>
<polygon fill="#00ff00" stroke="#00ff00" stroke-width=".1655" points="371.4542,-68.2674 362.7762,-62.1894 365.7698,-72.3525 371.4542,-68.2674"/>
</g>
<!-- x&#45;lm2&#45;vec&#45;&gt;backward -->
<g id="edge30" class="edge">
<title>x&#45;lm2&#45;vec&#45;&gt;backward</title>
<path fill="none" stroke="#00ff00" stroke-width=".2163" d="M416.3659,-117.5066C425.0369,-106.9084 439.9742,-88.6511 453.5112,-72.1054"/>
<polygon fill="#00ff00" stroke="#00ff00" stroke-width=".2163" points="456.3871,-74.1175 460.0105,-64.1615 450.9694,-69.6849 456.3871,-74.1175"/>
</g>
<!-- y&#45;lm2&#45;vec -->
<g id="node8" class="node">
<title>y&#45;lm2&#45;vec</title>
<polygon fill="#d3d3d3" stroke="#000000" points="190.5,-198.8944 137.5,-198.8944 137.5,-180.8944 190.5,-180.8944 190.5,-198.8944"/>
<text text-anchor="middle" x="164" y="-187.6944" font-family="Times,serif" font-size="9.00" fill="#000000">y&#45;lm2&#45;vec</text>
</g>
<!-- y&#45;lm2&#45;vec&#45;&gt;right -->
<g id="edge13" class="edge">
<title>y&#45;lm2&#45;vec&#45;&gt;right</title>
<path fill="none" stroke="#00ff00" stroke-width=".1971" stroke-dasharray="1,5" d="M137.4056,-182.9205C118.5732,-176.4389 94.6661,-164.7212 83,-144.8944 74.7125,-130.8097 73.6246,-121.5101 83,-108.1249 109.8598,-69.7771 140.3242,-93.4586 182,-72.1249 190.7304,-67.6558 199.7306,-61.9902 207.7804,-56.4814"/>
<polygon fill="#00ff00" stroke="#00ff00" stroke-width=".1971" points="209.9264,-59.2509 216.0844,-50.6294 205.894,-53.529 209.9264,-59.2509"/>
</g>
<!-- y&#45;lm2&#45;vec&#45;&gt;backward -->
<g id="edge35" class="edge">
<title>y&#45;lm2&#45;vec&#45;&gt;backward</title>
<path fill="none" stroke="#ff0000" stroke-width=".3776" stroke-dasharray="1,5" d="M190.6309,-188.5337C269.7308,-184.2224 499.1529,-169.6682 521,-144.8944 538.9583,-124.5304 527.2102,-95.1848 512.1981,-72.0966"/>
<polygon fill="#ff0000" stroke="#ff0000" stroke-width=".3776" points="514.8929,-69.8386 506.3398,-63.5859 509.1268,-73.8076 514.8929,-69.8386"/>
</g>
<!-- 24 -->
<g id="node18" class="node">
<title>24</title>
<ellipse fill="#ffffff" stroke="#000000" cx="164" cy="-126.5097" rx="18.2703" ry="18.2703"/>
<text text-anchor="middle" x="164" y="-124.3097" font-family="Times,serif" font-size="9.00" fill="#000000">24</text>
</g>
<!-- y&#45;lm2&#45;vec&#45;&gt;24 -->
<g id="edge33" class="edge">
<title>y&#45;lm2&#45;vec&#45;&gt;24</title>
<path fill="none" stroke="#00ff00" stroke-width=".4211" d="M164,-180.813C164,-174.048 164,-164.415 164,-155.1359"/>
<polygon fill="#00ff00" stroke="#00ff00" stroke-width=".4211" points="167.5001,-154.9815 164,-144.9816 160.5001,-154.9816 167.5001,-154.9815"/>
</g>
<!-- x&#45;other&#45;vec -->
<g id="node9" class="node">
<title>x&#45;other&#45;vec</title>
<polygon fill="#d3d3d3" stroke="#000000" points="512,-135.5097 454,-135.5097 454,-117.5097 512,-117.5097 512,-135.5097"/>
<text text-anchor="middle" x="483" y="-124.3097" font-family="Times,serif" font-size="9.00" fill="#000000">x&#45;other&#45;vec</text>
</g>
<!-- x&#45;other&#45;vec&#45;&gt;right -->
<g id="edge26" class="edge">
<title>x&#45;other&#45;vec&#45;&gt;right</title>
<path fill="none" stroke="#ff0000" stroke-width=".4099" d="M465.4402,-117.3602C458.8353,-114.1523 451.1846,-110.7088 444,-108.1249 383.1394,-86.2365 363.3282,-95.4406 303,-72.1249 289.7224,-66.9934 275.7208,-59.8883 263.8966,-53.3407"/>
<polygon fill="#ff0000" stroke="#ff0000" stroke-width=".4099" points="265.3609,-50.1475 254.936,-48.2574 261.9069,-56.236 265.3609,-50.1475"/>
</g>
<!-- x&#45;other&#45;vec&#45;&gt;left -->
<g id="edge9" class="edge">
<title>x&#45;other&#45;vec&#45;&gt;left</title>
<path fill="none" stroke="#00ff00" stroke-width=".1055" d="M494.1485,-117.5066C512.0655,-103.0374 547.6603,-74.2923 571.4048,-55.1171"/>
<polygon fill="#00ff00" stroke="#00ff00" stroke-width=".1055" points="573.68,-57.7785 579.2609,-48.7727 569.282,-52.3326 573.68,-57.7785"/>
</g>
<!-- x&#45;other&#45;vec&#45;&gt;backward -->
<g id="edge27" class="edge">
<title>x&#45;other&#45;vec&#45;&gt;backward</title>
<path fill="none" stroke="#ff0000" stroke-width=".7931" d="M483,-117.5066C483,-109.1034 483,-95.8852 483,-82.523"/>
<polygon fill="#ff0000" stroke="#ff0000" stroke-width=".7931" points="486.5001,-82.354 483,-72.354 479.5001,-82.3541 486.5001,-82.354"/>
</g>
<!-- y&#45;other&#45;vec -->
<g id="node10" class="node">
<title>y&#45;other&#45;vec</title>
<polygon fill="#d3d3d3" stroke="#000000" points="843,-135.5097 785,-135.5097 785,-117.5097 843,-117.5097 843,-135.5097"/>
<text text-anchor="middle" x="814" y="-124.3097" font-family="Times,serif" font-size="9.00" fill="#000000">y&#45;other&#45;vec</text>
</g>
<!-- y&#45;other&#45;vec&#45;&gt;left -->
<g id="edge16" class="edge">
<title>y&#45;other&#45;vec&#45;&gt;left</title>
<path fill="none" stroke="#00ff00" stroke-width=".2705" d="M795.9543,-117.4521C789.6826,-114.3916 782.5733,-111.0191 776,-108.1249 722.7515,-84.6798 659.339,-60.2051 623.4645,-46.6704"/>
<polygon fill="#00ff00" stroke="#00ff00" stroke-width=".2705" points="624.2741,-43.2357 613.682,-42.9936 621.8113,-49.7881 624.2741,-43.2357"/>
</g>
<!-- y&#45;other&#45;vec&#45;&gt;backward -->
<g id="edge7" class="edge">
<title>y&#45;other&#45;vec&#45;&gt;backward</title>
<path fill="none" stroke="#ff0000" stroke-width=".1114" d="M797.7692,-117.4131C791.1842,-114.0558 783.3977,-110.4962 776,-108.1249 685.8246,-79.2198 656.7454,-99.1875 566,-72.1249 552.1886,-68.006 537.6179,-62.2084 524.6054,-56.464"/>
<polygon fill="#ff0000" stroke="#ff0000" stroke-width=".1114" points="525.9924,-53.25 515.4388,-52.3154 523.1061,-59.6273 525.9924,-53.25"/>
</g>
<!-- x&#45;other&#45;vel -->
<g id="node11" class="node">
<title>x&#45;other&#45;vel</title>
<polygon fill="#d3d3d3" stroke="#000000" points="364,-135.5097 308,-135.5097 308,-117.5097 364,-117.5097 364,-135.5097"/>
<text text-anchor="middle" x="336" y="-124.3097" font-family="Times,serif" font-size="9.00" fill="#000000">x&#45;other&#45;vel</text>
</g>
<!-- x&#45;other&#45;vel&#45;&gt;none -->
<g id="edge29" class="edge">
<title>x&#45;other&#45;vel&#45;&gt;none</title>
<path fill="none" stroke="#ff0000" stroke-width=".4129" d="M317.9816,-117.3894C311.7121,-114.3238 304.5972,-110.9642 298,-108.1249 256.5259,-90.2752 243.1428,-92.7954 203,-72.1249 194.1675,-67.5768 185.017,-61.8866 176.814,-56.3795"/>
<polygon fill="#ff0000" stroke="#ff0000" stroke-width=".4129" points="178.5639,-53.3347 168.3448,-50.5383 174.5896,-59.0971 178.5639,-53.3347"/>
</g>
<!-- x&#45;other&#45;vel&#45;&gt;right -->
<g id="edge19" class="edge">
<title>x&#45;other&#45;vel&#45;&gt;right</title>
<path fill="none" stroke="#ff0000" stroke-width=".3947" d="M325.9465,-117.5066C310.7266,-103.8769 281.3616,-77.58 260.1078,-58.5469"/>
<polygon fill="#ff0000" stroke="#ff0000" stroke-width=".3947" points="262.1901,-55.7133 252.4056,-51.6495 257.5203,-60.928 262.1901,-55.7133"/>
</g>
<!-- x&#45;other&#45;vel&#45;&gt;left -->
<g id="edge32" class="edge">
<title>x&#45;other&#45;vel&#45;&gt;left</title>
<path fill="none" stroke="#ff0000" stroke-width=".4391" d="M352.1863,-117.3424C358.5221,-114.0561 365.9504,-110.5645 373,-108.1249 447.2176,-82.4413 474.2837,-104.1353 546,-72.1249 555.2082,-68.0148 564.3631,-61.9549 572.2238,-55.9711"/>
<polygon fill="#ff0000" stroke="#ff0000" stroke-width=".4391" points="574.5624,-58.5825 580.1868,-49.6037 570.1908,-53.1153 574.5624,-58.5825"/>
</g>
<!-- x&#45;other&#45;vel&#45;&gt;backward -->
<g id="edge31" class="edge">
<title>x&#45;other&#45;vel&#45;&gt;backward</title>
<path fill="none" stroke="#ff0000" stroke-width=".141" stroke-dasharray="1,5" d="M350.6323,-117.5066C372.0476,-104.3301 412.7043,-79.3145 443.3339,-60.4685"/>
<polygon fill="#ff0000" stroke="#ff0000" stroke-width=".141" points="445.4004,-63.3065 452.0832,-55.0852 441.7321,-57.3447 445.4004,-63.3065"/>
</g>
<!-- y&#45;other&#45;vel -->
<g id="node12" class="node">
<title>y&#45;other&#45;vel</title>
<polygon fill="#d3d3d3" stroke="#000000" points="767,-135.5097 711,-135.5097 711,-117.5097 767,-117.5097 767,-135.5097"/>
<text text-anchor="middle" x="739" y="-124.3097" font-family="Times,serif" font-size="9.00" fill="#000000">y&#45;other&#45;vel</text>
</g>
<!-- y&#45;other&#45;vel&#45;&gt;left -->
<g id="edge10" class="edge">
<title>y&#45;other&#45;vel&#45;&gt;left</title>
<path fill="none" stroke="#00ff00" stroke-width=".1835" d="M724.6663,-117.5066C700.4257,-102.2809 651.018,-71.2477 620.6788,-52.1914"/>
<polygon fill="#00ff00" stroke="#00ff00" stroke-width=".1835" points="622.2541,-49.0478 611.9243,-46.6927 618.5309,-54.9755 622.2541,-49.0478"/>
</g>
<!-- y&#45;other&#45;vel&#45;&gt;forward -->
<g id="edge23" class="edge">
<title>y&#45;other&#45;vel&#45;&gt;forward</title>
<path fill="none" stroke="#00ff00" stroke-width=".1658" d="M723.6237,-117.4635C717.1467,-114.0298 709.4045,-110.4019 702,-108.1249 588.8119,-73.3174 552.7106,-101.5286 438,-72.1249 419.3168,-67.3358 399.2757,-59.9753 382.5183,-53.1498"/>
<polygon fill="#00ff00" stroke="#00ff00" stroke-width=".1658" points="383.6436,-49.8272 373.0664,-49.2164 380.9541,-56.2899 383.6436,-49.8272"/>
</g>
<!-- right&#45;&gt;right -->
<g id="edge3" class="edge">
<title>right&#45;&gt;right</title>
<path fill="none" stroke="#00ff00" stroke-width=".5484" d="M252.8444,-51.4502C264.7479,-55.7815 276.3345,-50.6523 276.3345,-36.0624 276.3345,-25.69 270.4783,-20.0992 262.8153,-19.2901"/>
<polygon fill="#00ff00" stroke="#00ff00" stroke-width=".5484" points="262.2679,-15.8325 252.8444,-20.6747 263.2308,-22.7659 262.2679,-15.8325"/>
</g>
<!-- left&#45;&gt;left -->
<g id="edge15" class="edge">
<title>left&#45;&gt;left</title>
<path fill="none" stroke="#ff0000" stroke-width=".2945" d="M608.9568,-50.3625C620.6161,-56.4737 632.799,-51.707 632.799,-36.0624 632.799,-24.8179 626.5053,-19.1929 618.6359,-19.1874"/>
<polygon fill="#ff0000" stroke="#ff0000" stroke-width=".2945" points="617.7208,-15.8091 608.9568,-21.7624 619.5205,-22.5738 617.7208,-15.8091"/>
</g>
<!-- forward&#45;&gt;forward -->
<g id="edge12" class="edge">
<title>forward&#45;&gt;forward</title>
<path fill="none" stroke="#ff0000" stroke-width=".4522" d="M371.1601,-52.6738C383.3109,-54.2558 393.8198,-48.7187 393.8198,-36.0624 393.8198,-27.1635 388.6244,-21.7842 381.3158,-19.9245"/>
<polygon fill="#ff0000" stroke="#ff0000" stroke-width=".4522" points="381.3122,-16.4206 371.1601,-19.4511 380.9862,-23.413 381.3122,-16.4206"/>
</g>
<!-- backward&#45;&gt;backward -->
<g id="edge17" class="edge">
<title>backward&#45;&gt;backward</title>
<path fill="none" stroke="#00ff00" stroke-width=".1639" d="M514.9221,-52.887C527.0396,-53.5359 537.0624,-47.9277 537.0624,-36.0624 537.0624,-27.7197 532.1073,-22.4704 524.953,-20.3144"/>
<polygon fill="#00ff00" stroke="#00ff00" stroke-width=".1639" points="525.2385,-16.825 514.9221,-19.2379 524.4915,-23.7851 525.2385,-16.825"/>
</g>
<!-- 24&#45;&gt;right -->
<g id="edge34" class="edge">
<title>24&#45;&gt;right</title>
<path fill="none" stroke="#00ff00" stroke-width=".5727" d="M175.4074,-111.9778C185.8221,-98.7103 201.4751,-78.77 214.1253,-62.6548"/>
<polygon fill="#00ff00" stroke="#00ff00" stroke-width=".5727" points="217.0016,-64.659 220.4232,-54.6319 211.4954,-60.3367 217.0016,-64.659"/>
</g>
</g>
</svg>
