<?xml version="1.0" encoding="utf-8" standalone="no"?>
<!DOCTYPE svg PUBLIC "-//W3C//DTD SVG 1.1//EN"
  "http://www.w3.org/Graphics/SVG/1.1/DTD/svg11.dtd">
<!-- Created with matplotlib (https://matplotlib.org/) -->
<svg height="345.6pt" version="1.1" viewBox="0 0 460.8 345.6" width="460.8pt" xmlns="http://www.w3.org/2000/svg" xmlns:xlink="http://www.w3.org/1999/xlink">
 <metadata>
  <rdf:RDF xmlns:cc="http://creativecommons.org/ns#" xmlns:dc="http://purl.org/dc/elements/1.1/" xmlns:rdf="http://www.w3.org/1999/02/22-rdf-syntax-ns#">
   <cc:Work>
    <dc:type rdf:resource="http://purl.org/dc/dcmitype/StillImage"/>
    <dc:date>2021-04-15T02:28:39.883822</dc:date>
    <dc:format>image/svg+xml</dc:format>
    <dc:creator>
     <cc:Agent>
      <dc:title>Matplotlib v3.3.4, https://matplotlib.org/</dc:title>
     </cc:Agent>
    </dc:creator>
   </cc:Work>
  </rdf:RDF>
 </metadata>
 <defs>
  <style type="text/css">*{stroke-linecap:butt;stroke-linejoin:round;}</style>
 </defs>
 <g id="figure_1">
  <g id="patch_1">
   <path d="M 0 345.6 
L 460.8 345.6 
L 460.8 0 
L 0 0 
z
" style="fill:#ffffff;"/>
  </g>
  <g id="axes_1">
   <g id="patch_2">
    <path d="M 57.6 307.584 
L 414.72 307.584 
L 414.72 41.472 
L 57.6 41.472 
z
" style="fill:#ffffff;"/>
   </g>
   <g id="matplotlib.axis_1">
    <g id="xtick_1">
     <g id="line2d_1">
      <path clip-path="url(#p48793c6bdc)" d="M 73.832727 307.584 
L 73.832727 41.472 
" style="fill:none;stroke:#b0b0b0;stroke-linecap:square;stroke-width:0.8;"/>
     </g>
     <g id="line2d_2">
      <defs>
       <path d="M 0 0 
L 0 3.5 
" id="mab2db20cea" style="stroke:#000000;stroke-width:0.8;"/>
      </defs>
      <g>
       <use style="stroke:#000000;stroke-width:0.8;" x="73.832727" xlink:href="#mab2db20cea" y="307.584"/>
      </g>
     </g>
     <g id="text_1">
      <!-- 0 -->
      <g transform="translate(70.651477 322.182437)scale(0.1 -0.1)">
       <defs>
        <path d="M 31.78125 66.40625 
Q 24.171875 66.40625 20.328125 58.90625 
Q 16.5 51.421875 16.5 36.375 
Q 16.5 21.390625 20.328125 13.890625 
Q 24.171875 6.390625 31.78125 6.390625 
Q 39.453125 6.390625 43.28125 13.890625 
Q 47.125 21.390625 47.125 36.375 
Q 47.125 51.421875 43.28125 58.90625 
Q 39.453125 66.40625 31.78125 66.40625 
z
M 31.78125 74.21875 
Q 44.046875 74.21875 50.515625 64.515625 
Q 56.984375 54.828125 56.984375 36.375 
Q 56.984375 17.96875 50.515625 8.265625 
Q 44.046875 -1.421875 31.78125 -1.421875 
Q 19.53125 -1.421875 13.0625 8.265625 
Q 6.59375 17.96875 6.59375 36.375 
Q 6.59375 54.828125 13.0625 64.515625 
Q 19.53125 74.21875 31.78125 74.21875 
z
" id="DejaVuSans-48"/>
       </defs>
       <use xlink:href="#DejaVuSans-48"/>
      </g>
     </g>
    </g>
    <g id="xtick_2">
     <g id="line2d_3">
      <path clip-path="url(#p48793c6bdc)" d="M 135.789702 307.584 
L 135.789702 41.472 
" style="fill:none;stroke:#b0b0b0;stroke-linecap:square;stroke-width:0.8;"/>
     </g>
     <g id="line2d_4">
      <g>
       <use style="stroke:#000000;stroke-width:0.8;" x="135.789702" xlink:href="#mab2db20cea" y="307.584"/>
      </g>
     </g>
     <g id="text_2">
      <!-- 100 -->
      <g transform="translate(126.245952 322.182437)scale(0.1 -0.1)">
       <defs>
        <path d="M 12.40625 8.296875 
L 28.515625 8.296875 
L 28.515625 63.921875 
L 10.984375 60.40625 
L 10.984375 69.390625 
L 28.421875 72.90625 
L 38.28125 72.90625 
L 38.28125 8.296875 
L 54.390625 8.296875 
L 54.390625 0 
L 12.40625 0 
z
" id="DejaVuSans-49"/>
       </defs>
       <use xlink:href="#DejaVuSans-49"/>
       <use x="63.623047" xlink:href="#DejaVuSans-48"/>
       <use x="127.246094" xlink:href="#DejaVuSans-48"/>
      </g>
     </g>
    </g>
    <g id="xtick_3">
     <g id="line2d_5">
      <path clip-path="url(#p48793c6bdc)" d="M 197.746676 307.584 
L 197.746676 41.472 
" style="fill:none;stroke:#b0b0b0;stroke-linecap:square;stroke-width:0.8;"/>
     </g>
     <g id="line2d_6">
      <g>
       <use style="stroke:#000000;stroke-width:0.8;" x="197.746676" xlink:href="#mab2db20cea" y="307.584"/>
      </g>
     </g>
     <g id="text_3">
      <!-- 200 -->
      <g transform="translate(188.202926 322.182437)scale(0.1 -0.1)">
       <defs>
        <path d="M 19.1875 8.296875 
L 53.609375 8.296875 
L 53.609375 0 
L 7.328125 0 
L 7.328125 8.296875 
Q 12.9375 14.109375 22.625 23.890625 
Q 32.328125 33.6875 34.8125 36.53125 
Q 39.546875 41.84375 41.421875 45.53125 
Q 43.3125 49.21875 43.3125 52.78125 
Q 43.3125 58.59375 39.234375 62.25 
Q 35.15625 65.921875 28.609375 65.921875 
Q 23.96875 65.921875 18.8125 64.3125 
Q 13.671875 62.703125 7.8125 59.421875 
L 7.8125 69.390625 
Q 13.765625 71.78125 18.9375 73 
Q 24.125 74.21875 28.421875 74.21875 
Q 39.75 74.21875 46.484375 68.546875 
Q 53.21875 62.890625 53.21875 53.421875 
Q 53.21875 48.921875 51.53125 44.890625 
Q 49.859375 40.875 45.40625 35.40625 
Q 44.1875 33.984375 37.640625 27.21875 
Q 31.109375 20.453125 19.1875 8.296875 
z
" id="DejaVuSans-50"/>
       </defs>
       <use xlink:href="#DejaVuSans-50"/>
       <use x="63.623047" xlink:href="#DejaVuSans-48"/>
       <use x="127.246094" xlink:href="#DejaVuSans-48"/>
      </g>
     </g>
    </g>
    <g id="xtick_4">
     <g id="line2d_7">
      <path clip-path="url(#p48793c6bdc)" d="M 259.70365 307.584 
L 259.70365 41.472 
" style="fill:none;stroke:#b0b0b0;stroke-linecap:square;stroke-width:0.8;"/>
     </g>
     <g id="line2d_8">
      <g>
       <use style="stroke:#000000;stroke-width:0.8;" x="259.70365" xlink:href="#mab2db20cea" y="307.584"/>
      </g>
     </g>
     <g id="text_4">
      <!-- 300 -->
      <g transform="translate(250.1599 322.182437)scale(0.1 -0.1)">
       <defs>
        <path d="M 40.578125 39.3125 
Q 47.65625 37.796875 51.625 33 
Q 55.609375 28.21875 55.609375 21.1875 
Q 55.609375 10.40625 48.1875 4.484375 
Q 40.765625 -1.421875 27.09375 -1.421875 
Q 22.515625 -1.421875 17.65625 -0.515625 
Q 12.796875 0.390625 7.625 2.203125 
L 7.625 11.71875 
Q 11.71875 9.328125 16.59375 8.109375 
Q 21.484375 6.890625 26.8125 6.890625 
Q 36.078125 6.890625 40.9375 10.546875 
Q 45.796875 14.203125 45.796875 21.1875 
Q 45.796875 27.640625 41.28125 31.265625 
Q 36.765625 34.90625 28.71875 34.90625 
L 20.21875 34.90625 
L 20.21875 43.015625 
L 29.109375 43.015625 
Q 36.375 43.015625 40.234375 45.921875 
Q 44.09375 48.828125 44.09375 54.296875 
Q 44.09375 59.90625 40.109375 62.90625 
Q 36.140625 65.921875 28.71875 65.921875 
Q 24.65625 65.921875 20.015625 65.03125 
Q 15.375 64.15625 9.8125 62.3125 
L 9.8125 71.09375 
Q 15.4375 72.65625 20.34375 73.4375 
Q 25.25 74.21875 29.59375 74.21875 
Q 40.828125 74.21875 47.359375 69.109375 
Q 53.90625 64.015625 53.90625 55.328125 
Q 53.90625 49.265625 50.4375 45.09375 
Q 46.96875 40.921875 40.578125 39.3125 
z
" id="DejaVuSans-51"/>
       </defs>
       <use xlink:href="#DejaVuSans-51"/>
       <use x="63.623047" xlink:href="#DejaVuSans-48"/>
       <use x="127.246094" xlink:href="#DejaVuSans-48"/>
      </g>
     </g>
    </g>
    <g id="xtick_5">
     <g id="line2d_9">
      <path clip-path="url(#p48793c6bdc)" d="M 321.660625 307.584 
L 321.660625 41.472 
" style="fill:none;stroke:#b0b0b0;stroke-linecap:square;stroke-width:0.8;"/>
     </g>
     <g id="line2d_10">
      <g>
       <use style="stroke:#000000;stroke-width:0.8;" x="321.660625" xlink:href="#mab2db20cea" y="307.584"/>
      </g>
     </g>
     <g id="text_5">
      <!-- 400 -->
      <g transform="translate(312.116875 322.182437)scale(0.1 -0.1)">
       <defs>
        <path d="M 37.796875 64.3125 
L 12.890625 25.390625 
L 37.796875 25.390625 
z
M 35.203125 72.90625 
L 47.609375 72.90625 
L 47.609375 25.390625 
L 58.015625 25.390625 
L 58.015625 17.1875 
L 47.609375 17.1875 
L 47.609375 0 
L 37.796875 0 
L 37.796875 17.1875 
L 4.890625 17.1875 
L 4.890625 26.703125 
z
" id="DejaVuSans-52"/>
       </defs>
       <use xlink:href="#DejaVuSans-52"/>
       <use x="63.623047" xlink:href="#DejaVuSans-48"/>
       <use x="127.246094" xlink:href="#DejaVuSans-48"/>
      </g>
     </g>
    </g>
    <g id="xtick_6">
     <g id="line2d_11">
      <path clip-path="url(#p48793c6bdc)" d="M 383.617599 307.584 
L 383.617599 41.472 
" style="fill:none;stroke:#b0b0b0;stroke-linecap:square;stroke-width:0.8;"/>
     </g>
     <g id="line2d_12">
      <g>
       <use style="stroke:#000000;stroke-width:0.8;" x="383.617599" xlink:href="#mab2db20cea" y="307.584"/>
      </g>
     </g>
     <g id="text_6">
      <!-- 500 -->
      <g transform="translate(374.073849 322.182437)scale(0.1 -0.1)">
       <defs>
        <path d="M 10.796875 72.90625 
L 49.515625 72.90625 
L 49.515625 64.59375 
L 19.828125 64.59375 
L 19.828125 46.734375 
Q 21.96875 47.46875 24.109375 47.828125 
Q 26.265625 48.1875 28.421875 48.1875 
Q 40.625 48.1875 47.75 41.5 
Q 54.890625 34.8125 54.890625 23.390625 
Q 54.890625 11.625 47.5625 5.09375 
Q 40.234375 -1.421875 26.90625 -1.421875 
Q 22.3125 -1.421875 17.546875 -0.640625 
Q 12.796875 0.140625 7.71875 1.703125 
L 7.71875 11.625 
Q 12.109375 9.234375 16.796875 8.0625 
Q 21.484375 6.890625 26.703125 6.890625 
Q 35.15625 6.890625 40.078125 11.328125 
Q 45.015625 15.765625 45.015625 23.390625 
Q 45.015625 31 40.078125 35.4375 
Q 35.15625 39.890625 26.703125 39.890625 
Q 22.75 39.890625 18.8125 39.015625 
Q 14.890625 38.140625 10.796875 36.28125 
z
" id="DejaVuSans-53"/>
       </defs>
       <use xlink:href="#DejaVuSans-53"/>
       <use x="63.623047" xlink:href="#DejaVuSans-48"/>
       <use x="127.246094" xlink:href="#DejaVuSans-48"/>
      </g>
     </g>
    </g>
    <g id="text_7">
     <!-- Generations -->
     <g transform="translate(205.662344 335.860562)scale(0.1 -0.1)">
      <defs>
       <path d="M 59.515625 10.40625 
L 59.515625 29.984375 
L 43.40625 29.984375 
L 43.40625 38.09375 
L 69.28125 38.09375 
L 69.28125 6.78125 
Q 63.578125 2.734375 56.6875 0.65625 
Q 49.8125 -1.421875 42 -1.421875 
Q 24.90625 -1.421875 15.25 8.5625 
Q 5.609375 18.5625 5.609375 36.375 
Q 5.609375 54.25 15.25 64.234375 
Q 24.90625 74.21875 42 74.21875 
Q 49.125 74.21875 55.546875 72.453125 
Q 61.96875 70.703125 67.390625 67.28125 
L 67.390625 56.78125 
Q 61.921875 61.421875 55.765625 63.765625 
Q 49.609375 66.109375 42.828125 66.109375 
Q 29.4375 66.109375 22.71875 58.640625 
Q 16.015625 51.171875 16.015625 36.375 
Q 16.015625 21.625 22.71875 14.15625 
Q 29.4375 6.6875 42.828125 6.6875 
Q 48.046875 6.6875 52.140625 7.59375 
Q 56.25 8.5 59.515625 10.40625 
z
" id="DejaVuSans-71"/>
       <path d="M 56.203125 29.59375 
L 56.203125 25.203125 
L 14.890625 25.203125 
Q 15.484375 15.921875 20.484375 11.0625 
Q 25.484375 6.203125 34.421875 6.203125 
Q 39.59375 6.203125 44.453125 7.46875 
Q 49.3125 8.734375 54.109375 11.28125 
L 54.109375 2.78125 
Q 49.265625 0.734375 44.1875 -0.34375 
Q 39.109375 -1.421875 33.890625 -1.421875 
Q 20.796875 -1.421875 13.15625 6.1875 
Q 5.515625 13.8125 5.515625 26.8125 
Q 5.515625 40.234375 12.765625 48.109375 
Q 20.015625 56 32.328125 56 
Q 43.359375 56 49.78125 48.890625 
Q 56.203125 41.796875 56.203125 29.59375 
z
M 47.21875 32.234375 
Q 47.125 39.59375 43.09375 43.984375 
Q 39.0625 48.390625 32.421875 48.390625 
Q 24.90625 48.390625 20.390625 44.140625 
Q 15.875 39.890625 15.1875 32.171875 
z
" id="DejaVuSans-101"/>
       <path d="M 54.890625 33.015625 
L 54.890625 0 
L 45.90625 0 
L 45.90625 32.71875 
Q 45.90625 40.484375 42.875 44.328125 
Q 39.84375 48.1875 33.796875 48.1875 
Q 26.515625 48.1875 22.3125 43.546875 
Q 18.109375 38.921875 18.109375 30.90625 
L 18.109375 0 
L 9.078125 0 
L 9.078125 54.6875 
L 18.109375 54.6875 
L 18.109375 46.1875 
Q 21.34375 51.125 25.703125 53.5625 
Q 30.078125 56 35.796875 56 
Q 45.21875 56 50.046875 50.171875 
Q 54.890625 44.34375 54.890625 33.015625 
z
" id="DejaVuSans-110"/>
       <path d="M 41.109375 46.296875 
Q 39.59375 47.171875 37.8125 47.578125 
Q 36.03125 48 33.890625 48 
Q 26.265625 48 22.1875 43.046875 
Q 18.109375 38.09375 18.109375 28.8125 
L 18.109375 0 
L 9.078125 0 
L 9.078125 54.6875 
L 18.109375 54.6875 
L 18.109375 46.1875 
Q 20.953125 51.171875 25.484375 53.578125 
Q 30.03125 56 36.53125 56 
Q 37.453125 56 38.578125 55.875 
Q 39.703125 55.765625 41.0625 55.515625 
z
" id="DejaVuSans-114"/>
       <path d="M 34.28125 27.484375 
Q 23.390625 27.484375 19.1875 25 
Q 14.984375 22.515625 14.984375 16.5 
Q 14.984375 11.71875 18.140625 8.90625 
Q 21.296875 6.109375 26.703125 6.109375 
Q 34.1875 6.109375 38.703125 11.40625 
Q 43.21875 16.703125 43.21875 25.484375 
L 43.21875 27.484375 
z
M 52.203125 31.203125 
L 52.203125 0 
L 43.21875 0 
L 43.21875 8.296875 
Q 40.140625 3.328125 35.546875 0.953125 
Q 30.953125 -1.421875 24.3125 -1.421875 
Q 15.921875 -1.421875 10.953125 3.296875 
Q 6 8.015625 6 15.921875 
Q 6 25.140625 12.171875 29.828125 
Q 18.359375 34.515625 30.609375 34.515625 
L 43.21875 34.515625 
L 43.21875 35.40625 
Q 43.21875 41.609375 39.140625 45 
Q 35.0625 48.390625 27.6875 48.390625 
Q 23 48.390625 18.546875 47.265625 
Q 14.109375 46.140625 10.015625 43.890625 
L 10.015625 52.203125 
Q 14.9375 54.109375 19.578125 55.046875 
Q 24.21875 56 28.609375 56 
Q 40.484375 56 46.34375 49.84375 
Q 52.203125 43.703125 52.203125 31.203125 
z
" id="DejaVuSans-97"/>
       <path d="M 18.3125 70.21875 
L 18.3125 54.6875 
L 36.8125 54.6875 
L 36.8125 47.703125 
L 18.3125 47.703125 
L 18.3125 18.015625 
Q 18.3125 11.328125 20.140625 9.421875 
Q 21.96875 7.515625 27.59375 7.515625 
L 36.8125 7.515625 
L 36.8125 0 
L 27.59375 0 
Q 17.1875 0 13.234375 3.875 
Q 9.28125 7.765625 9.28125 18.015625 
L 9.28125 47.703125 
L 2.6875 47.703125 
L 2.6875 54.6875 
L 9.28125 54.6875 
L 9.28125 70.21875 
z
" id="DejaVuSans-116"/>
       <path d="M 9.421875 54.6875 
L 18.40625 54.6875 
L 18.40625 0 
L 9.421875 0 
z
M 9.421875 75.984375 
L 18.40625 75.984375 
L 18.40625 64.59375 
L 9.421875 64.59375 
z
" id="DejaVuSans-105"/>
       <path d="M 30.609375 48.390625 
Q 23.390625 48.390625 19.1875 42.75 
Q 14.984375 37.109375 14.984375 27.296875 
Q 14.984375 17.484375 19.15625 11.84375 
Q 23.34375 6.203125 30.609375 6.203125 
Q 37.796875 6.203125 41.984375 11.859375 
Q 46.1875 17.53125 46.1875 27.296875 
Q 46.1875 37.015625 41.984375 42.703125 
Q 37.796875 48.390625 30.609375 48.390625 
z
M 30.609375 56 
Q 42.328125 56 49.015625 48.375 
Q 55.71875 40.765625 55.71875 27.296875 
Q 55.71875 13.875 49.015625 6.21875 
Q 42.328125 -1.421875 30.609375 -1.421875 
Q 18.84375 -1.421875 12.171875 6.21875 
Q 5.515625 13.875 5.515625 27.296875 
Q 5.515625 40.765625 12.171875 48.375 
Q 18.84375 56 30.609375 56 
z
" id="DejaVuSans-111"/>
       <path d="M 44.28125 53.078125 
L 44.28125 44.578125 
Q 40.484375 46.53125 36.375 47.5 
Q 32.28125 48.484375 27.875 48.484375 
Q 21.1875 48.484375 17.84375 46.4375 
Q 14.5 44.390625 14.5 40.28125 
Q 14.5 37.15625 16.890625 35.375 
Q 19.28125 33.59375 26.515625 31.984375 
L 29.59375 31.296875 
Q 39.15625 29.25 43.1875 25.515625 
Q 47.21875 21.78125 47.21875 15.09375 
Q 47.21875 7.46875 41.1875 3.015625 
Q 35.15625 -1.421875 24.609375 -1.421875 
Q 20.21875 -1.421875 15.453125 -0.5625 
Q 10.6875 0.296875 5.421875 2 
L 5.421875 11.28125 
Q 10.40625 8.6875 15.234375 7.390625 
Q 20.0625 6.109375 24.8125 6.109375 
Q 31.15625 6.109375 34.5625 8.28125 
Q 37.984375 10.453125 37.984375 14.40625 
Q 37.984375 18.0625 35.515625 20.015625 
Q 33.0625 21.96875 24.703125 23.78125 
L 21.578125 24.515625 
Q 13.234375 26.265625 9.515625 29.90625 
Q 5.8125 33.546875 5.8125 39.890625 
Q 5.8125 47.609375 11.28125 51.796875 
Q 16.75 56 26.8125 56 
Q 31.78125 56 36.171875 55.265625 
Q 40.578125 54.546875 44.28125 53.078125 
z
" id="DejaVuSans-115"/>
      </defs>
      <use xlink:href="#DejaVuSans-71"/>
      <use x="77.490234" xlink:href="#DejaVuSans-101"/>
      <use x="139.013672" xlink:href="#DejaVuSans-110"/>
      <use x="202.392578" xlink:href="#DejaVuSans-101"/>
      <use x="263.916016" xlink:href="#DejaVuSans-114"/>
      <use x="305.029297" xlink:href="#DejaVuSans-97"/>
      <use x="366.308594" xlink:href="#DejaVuSans-116"/>
      <use x="405.517578" xlink:href="#DejaVuSans-105"/>
      <use x="433.300781" xlink:href="#DejaVuSans-111"/>
      <use x="494.482422" xlink:href="#DejaVuSans-110"/>
      <use x="557.861328" xlink:href="#DejaVuSans-115"/>
     </g>
    </g>
   </g>
   <g id="matplotlib.axis_2">
    <g id="ytick_1">
     <g id="line2d_13">
      <path clip-path="url(#p48793c6bdc)" d="M 57.6 210.337983 
L 414.72 210.337983 
" style="fill:none;stroke:#b0b0b0;stroke-linecap:square;stroke-width:0.8;"/>
     </g>
     <g id="line2d_14">
      <defs>
       <path d="M 0 0 
L -3.5 0 
" id="mf08fa5a099" style="stroke:#000000;stroke-width:0.8;"/>
      </defs>
      <g>
       <use style="stroke:#000000;stroke-width:0.8;" x="57.6" xlink:href="#mf08fa5a099" y="210.337983"/>
      </g>
     </g>
     <g id="text_8">
      <!-- $\mathdefault{-10^{4}}$ -->
      <g transform="translate(24.6 214.137202)scale(0.1 -0.1)">
       <defs>
        <path d="M 10.59375 35.5 
L 73.1875 35.5 
L 73.1875 27.203125 
L 10.59375 27.203125 
z
" id="DejaVuSans-8722"/>
       </defs>
       <use transform="translate(0 0.684375)" xlink:href="#DejaVuSans-8722"/>
       <use transform="translate(83.789062 0.684375)" xlink:href="#DejaVuSans-49"/>
       <use transform="translate(147.412109 0.684375)" xlink:href="#DejaVuSans-48"/>
       <use transform="translate(211.992188 38.965625)scale(0.7)" xlink:href="#DejaVuSans-52"/>
      </g>
     </g>
    </g>
    <g id="text_9">
     <!-- Fitness -->
     <g transform="translate(18.520312 191.845187)rotate(-90)scale(0.1 -0.1)">
      <defs>
       <path d="M 9.8125 72.90625 
L 51.703125 72.90625 
L 51.703125 64.59375 
L 19.671875 64.59375 
L 19.671875 43.109375 
L 48.578125 43.109375 
L 48.578125 34.8125 
L 19.671875 34.8125 
L 19.671875 0 
L 9.8125 0 
z
" id="DejaVuSans-70"/>
      </defs>
      <use xlink:href="#DejaVuSans-70"/>
      <use x="50.269531" xlink:href="#DejaVuSans-105"/>
      <use x="78.052734" xlink:href="#DejaVuSans-116"/>
      <use x="117.261719" xlink:href="#DejaVuSans-110"/>
      <use x="180.640625" xlink:href="#DejaVuSans-101"/>
      <use x="242.164062" xlink:href="#DejaVuSans-115"/>
      <use x="294.263672" xlink:href="#DejaVuSans-115"/>
     </g>
    </g>
   </g>
   <g id="line2d_15">
    <path clip-path="url(#p48793c6bdc)" d="M 73.832727 295.488 
L 74.452297 260.619798 
L 75.071867 240.60515 
L 75.691437 236.870078 
L 76.311006 225.198913 
L 76.930576 225.642479 
L 77.550146 214.157622 
L 78.169715 211.900064 
L 78.789285 212.265682 
L 79.408855 211.427974 
L 80.028425 212.684463 
L 80.647994 207.759536 
L 81.887134 194.140623 
L 82.506704 194.463979 
L 83.126273 201.214779 
L 83.745843 206.111176 
L 84.365413 203.123706 
L 84.984983 206.966026 
L 85.604552 206.804878 
L 86.224122 204.768441 
L 86.843692 198.388811 
L 87.463262 200.369074 
L 88.082831 204.055841 
L 88.702401 205.74006 
L 89.321971 200.473754 
L 89.941541 196.426114 
L 90.56111 201.662616 
L 91.18068 197.748978 
L 91.80025 198.632689 
L 92.41982 194.46895 
L 93.039389 195.819403 
L 93.658959 197.977247 
L 94.278529 193.2281 
L 94.898099 193.275743 
L 95.517668 196.426822 
L 96.137238 200.36507 
L 96.756808 201.106574 
L 97.376378 185.811636 
L 97.995947 192.923606 
L 99.235087 211.101533 
L 99.854656 195.6237 
L 100.474226 192.802298 
L 101.093796 188.985208 
L 101.713366 182.345414 
L 102.332935 191.233544 
L 102.952505 204.545398 
L 103.572075 183.775364 
L 104.191645 187.471167 
L 104.811214 188.397034 
L 105.430784 186.462626 
L 106.050354 206.265823 
L 106.669924 196.135831 
L 107.289493 191.156974 
L 107.909063 182.848651 
L 109.148203 202.090232 
L 109.767772 190.706025 
L 110.387342 200.847579 
L 111.006912 197.844978 
L 111.626482 199.92297 
L 112.246051 192.613267 
L 112.865621 200.602939 
L 113.485191 196.126431 
L 114.104761 194.780113 
L 114.72433 198.252394 
L 115.3439 185.880185 
L 115.96347 183.432646 
L 116.58304 186.380888 
L 117.202609 196.871962 
L 117.822179 201.536774 
L 118.441749 196.452581 
L 119.061319 185.956925 
L 119.680888 179.406357 
L 120.300458 194.564621 
L 120.920028 173.170346 
L 121.539598 179.076942 
L 122.159167 164.916482 
L 122.778737 185.022424 
L 123.398307 182.008241 
L 124.017876 172.358134 
L 125.257016 181.041948 
L 126.496155 194.610207 
L 127.115725 197.137949 
L 127.735295 183.560928 
L 128.354865 195.789039 
L 128.974434 185.549281 
L 129.594004 177.320274 
L 130.213574 195.878776 
L 131.452713 185.39766 
L 132.072283 189.813648 
L 132.691853 180.636716 
L 133.311423 203.767318 
L 133.930992 201.490847 
L 134.550562 199.860747 
L 135.170132 193.8252 
L 135.789702 196.170807 
L 136.409271 196.349801 
L 137.028841 194.61614 
L 137.648411 176.77085 
L 138.267981 202.593381 
L 138.88755 194.961134 
L 139.50712 205.967543 
L 140.12669 205.859739 
L 140.74626 199.687721 
L 141.365829 185.271707 
L 141.985399 186.088717 
L 142.604969 194.238434 
L 143.224539 197.702048 
L 143.844108 186.154597 
L 144.463678 197.480319 
L 145.083248 179.556981 
L 145.702817 193.151748 
L 146.322387 191.848569 
L 146.941957 205.279935 
L 147.561527 204.685166 
L 148.181096 185.294941 
L 148.800666 188.217032 
L 149.420236 201.606636 
L 150.039806 204.561284 
L 150.659375 194.737441 
L 151.278945 192.771034 
L 151.898515 195.173322 
L 152.518085 201.29275 
L 153.137654 204.384916 
L 153.757224 198.158668 
L 154.376794 202.370633 
L 154.996364 201.275961 
L 155.615933 199.58 
L 156.235503 177.375647 
L 156.855073 202.417285 
L 157.474643 197.974471 
L 158.094212 188.916966 
L 158.713782 171.099147 
L 159.952922 197.390424 
L 160.572491 192.77939 
L 161.192061 193.558058 
L 161.811631 199.332675 
L 162.431201 198.878555 
L 163.05077 190.065163 
L 163.67034 200.481271 
L 164.28991 196.623268 
L 164.90948 197.530109 
L 165.529049 197.507646 
L 166.148619 181.32609 
L 166.768189 182.448731 
L 167.387759 186.218246 
L 168.007328 191.943628 
L 168.626898 183.56963 
L 169.246468 187.259752 
L 169.866037 191.727842 
L 170.485607 187.201075 
L 171.105177 184.21079 
L 171.724747 191.833321 
L 172.344316 189.9082 
L 172.963886 202.389263 
L 173.583456 197.225322 
L 174.203026 197.865755 
L 174.822595 199.463453 
L 175.442165 194.911449 
L 176.061735 195.396886 
L 176.681305 200.253763 
L 177.300874 203.508296 
L 177.920444 203.885323 
L 178.540014 210.792196 
L 179.159584 206.401149 
L 179.779153 200.836726 
L 180.398723 196.645656 
L 181.018293 190.286421 
L 181.637863 198.430053 
L 182.257432 194.237268 
L 182.877002 205.516433 
L 183.496572 206.470097 
L 184.116142 201.121492 
L 185.355281 205.988889 
L 185.974851 205.617259 
L 186.594421 204.565257 
L 187.21399 202.912956 
L 187.83356 200.52172 
L 188.45313 200.670147 
L 189.0727 197.82591 
L 189.692269 210.564486 
L 190.311839 208.481175 
L 190.931409 214.540448 
L 191.550978 207.968376 
L 192.170548 207.91647 
L 192.790118 213.229107 
L 193.409688 203.148381 
L 194.029257 203.990859 
L 194.648827 201.446174 
L 195.268397 213.003854 
L 195.887967 213.812752 
L 196.507536 198.69035 
L 197.127106 202.722627 
L 197.746676 209.584116 
L 198.366246 206.017729 
L 198.985815 200.074323 
L 199.605385 223.026795 
L 200.224955 213.641143 
L 200.844525 208.970878 
L 201.464094 219.51088 
L 202.083664 217.235231 
L 202.703234 212.815275 
L 203.322804 212.881045 
L 203.942373 215.936448 
L 204.561943 214.252126 
L 205.181513 226.864683 
L 205.801083 227.593773 
L 206.420652 220.857607 
L 207.040222 216.129008 
L 207.659792 216.597861 
L 208.279362 203.941215 
L 208.898931 217.636874 
L 209.518501 208.503465 
L 210.138071 208.504567 
L 210.757641 214.70477 
L 211.37721 215.701341 
L 211.99678 214.574879 
L 212.61635 208.411781 
L 213.23592 212.427637 
L 213.855489 213.389626 
L 214.475059 210.353573 
L 215.094629 203.078051 
L 215.714198 193.924156 
L 216.333768 200.892107 
L 216.953338 203.575162 
L 217.572908 203.51967 
L 218.192477 209.045571 
L 218.812047 206.840119 
L 219.431617 201.477811 
L 220.051187 208.185603 
L 220.670756 192.356003 
L 221.290326 212.759576 
L 221.909896 195.193154 
L 222.529466 204.841831 
L 223.149035 199.971295 
L 223.768605 197.043322 
L 224.388175 201.515619 
L 225.007745 190.849325 
L 225.627314 192.386674 
L 226.246884 208.502245 
L 226.866454 204.741696 
L 227.486024 203.224109 
L 228.105593 207.448741 
L 228.725163 207.996879 
L 229.344733 208.053452 
L 229.964303 216.464282 
L 230.583872 210.637553 
L 231.203442 213.600944 
L 231.823012 209.955975 
L 232.442582 209.334599 
L 233.062151 218.964471 
L 233.681721 211.671196 
L 234.301291 210.849576 
L 234.920861 214.105328 
L 235.54043 206.529812 
L 236.16 196.594917 
L 236.77957 204.434178 
L 237.399139 199.586043 
L 238.018709 210.604108 
L 238.638279 201.322781 
L 239.257849 209.816568 
L 239.877418 203.787587 
L 240.496988 195.08763 
L 241.116558 201.761492 
L 241.736128 210.273943 
L 242.355697 195.652092 
L 242.975267 198.407589 
L 243.594837 209.742603 
L 244.214407 199.463828 
L 244.833976 195.377799 
L 245.453546 206.325655 
L 246.073116 208.153687 
L 246.692686 202.035585 
L 247.312255 211.739919 
L 247.931825 201.512044 
L 248.551395 203.112162 
L 249.170965 202.97518 
L 249.790534 210.265695 
L 250.410104 203.133884 
L 251.029674 202.196674 
L 251.649244 196.242243 
L 252.268813 205.64098 
L 252.888383 184.252834 
L 253.507953 189.536849 
L 254.127523 188.882261 
L 254.747092 190.162728 
L 255.366662 192.03191 
L 255.986232 184.162467 
L 256.605802 201.932099 
L 257.225371 196.663217 
L 257.844941 196.866085 
L 258.464511 193.009289 
L 259.08408 194.467167 
L 259.70365 200.21242 
L 260.32322 196.279524 
L 261.562359 206.375231 
L 262.181929 199.873187 
L 262.801499 204.638759 
L 263.421069 205.431285 
L 264.040638 191.521621 
L 265.279778 198.048892 
L 265.899348 205.063399 
L 266.518917 202.08876 
L 267.138487 198.188423 
L 267.758057 197.530145 
L 268.377627 195.533853 
L 268.997196 195.185373 
L 269.616766 202.982899 
L 270.236336 183.284604 
L 270.855906 204.004204 
L 271.475475 195.941669 
L 272.095045 202.278169 
L 273.334185 191.004649 
L 273.953754 205.005099 
L 274.573324 211.351058 
L 275.192894 188.146832 
L 275.812464 190.278041 
L 276.432033 198.924857 
L 277.051603 201.153517 
L 277.671173 208.142859 
L 278.290743 200.249463 
L 278.910312 189.058757 
L 279.529882 192.30012 
L 280.149452 205.423211 
L 280.769022 208.263807 
L 281.388591 204.152961 
L 282.008161 198.481285 
L 282.627731 202.345121 
L 283.2473 213.5443 
L 283.86687 201.665506 
L 284.48644 194.591972 
L 285.10601 195.776221 
L 285.725579 204.679676 
L 286.345149 198.585869 
L 286.964719 204.171968 
L 287.584289 203.486778 
L 288.203858 205.804743 
L 288.823428 219.319627 
L 289.442998 210.632406 
L 290.062568 204.722969 
L 290.682137 201.637082 
L 291.301707 209.822602 
L 291.921277 198.30508 
L 292.540847 204.080931 
L 293.160416 195.027309 
L 293.779986 190.377523 
L 294.399556 190.010486 
L 295.019126 181.662889 
L 295.638695 190.493452 
L 296.258265 186.351993 
L 296.877835 188.694134 
L 297.497405 194.843017 
L 298.116974 190.551162 
L 298.736544 195.169495 
L 299.356114 196.372829 
L 299.975684 202.611222 
L 300.595253 207.216119 
L 301.214823 198.786153 
L 301.834393 192.803893 
L 302.453963 190.562589 
L 303.073532 201.547431 
L 303.693102 187.087484 
L 304.312672 192.80413 
L 304.932241 205.320768 
L 305.551811 188.396421 
L 306.171381 167.216088 
L 306.790951 170.202197 
L 307.41052 188.890902 
L 308.03009 175.417361 
L 308.64966 173.958953 
L 309.26923 178.928443 
L 309.888799 179.616038 
L 310.508369 180.075541 
L 311.127939 179.337615 
L 311.747509 192.095674 
L 312.367078 173.92109 
L 312.986648 183.095388 
L 313.606218 184.145715 
L 314.225788 189.561096 
L 314.845357 193.991634 
L 315.464927 189.605517 
L 316.084497 193.218173 
L 316.704067 176.708874 
L 317.323636 180.132526 
L 318.562776 203.662293 
L 319.182346 204.317789 
L 319.801915 197.495751 
L 320.421485 199.089208 
L 321.041055 197.708676 
L 321.660625 198.177303 
L 322.280194 206.234595 
L 322.899764 208.834668 
L 323.519334 206.689305 
L 324.138904 200.08852 
L 324.758473 210.279682 
L 325.378043 203.662776 
L 325.997613 208.310627 
L 326.617183 214.573254 
L 327.236752 211.699835 
L 327.856322 216.013837 
L 328.475892 205.28547 
L 329.095461 214.081969 
L 329.715031 212.444093 
L 330.334601 208.530654 
L 330.954171 202.186681 
L 331.57374 211.166025 
L 332.81288 210.141327 
L 333.43245 198.503343 
L 334.052019 211.430516 
L 335.291159 209.918699 
L 335.910729 199.81952 
L 336.530298 208.38797 
L 337.149868 202.808645 
L 337.769438 199.506062 
L 338.389008 207.749479 
L 339.008577 210.537801 
L 339.628147 200.026532 
L 340.247717 200.205027 
L 340.867287 192.813274 
L 342.725996 189.632582 
L 343.345566 176.408323 
L 343.965135 190.304662 
L 344.584705 185.604191 
L 345.204275 195.227846 
L 345.823845 194.35354 
L 346.443414 194.95037 
L 347.062984 204.685135 
L 347.682554 201.859051 
L 348.302124 193.350468 
L 348.921693 198.036439 
L 349.541263 197.921979 
L 350.160833 188.168628 
L 350.780402 201.203317 
L 351.399972 187.861456 
L 352.019542 185.196719 
L 352.639112 191.031263 
L 353.258681 190.959183 
L 353.878251 191.500274 
L 354.497821 198.066008 
L 355.117391 198.470142 
L 355.73696 202.965774 
L 356.35653 199.660884 
L 356.9761 198.838045 
L 357.59567 192.006669 
L 358.215239 195.270106 
L 358.834809 191.860234 
L 359.454379 195.605003 
L 360.073949 206.276014 
L 360.693518 198.76564 
L 361.313088 199.388696 
L 361.932658 195.664353 
L 362.552228 200.789219 
L 363.171797 199.323605 
L 363.791367 201.80666 
L 364.410937 192.963748 
L 365.030507 188.498371 
L 366.269646 219.728332 
L 366.889216 194.951485 
L 367.508786 203.246365 
L 368.128355 214.740884 
L 368.747925 209.054462 
L 369.367495 211.328028 
L 369.987065 211.425013 
L 370.606634 207.073797 
L 371.226204 194.942092 
L 371.845774 201.219514 
L 372.465344 192.772989 
L 373.084913 192.558929 
L 373.704483 192.626294 
L 374.324053 190.578804 
L 374.943622 185.513274 
L 375.563192 196.880539 
L 376.182762 201.888063 
L 376.802332 188.011775 
L 377.421901 187.780611 
L 378.041471 188.734355 
L 378.661041 186.673399 
L 379.280611 182.105326 
L 379.90018 188.487421 
L 380.51975 170.850013 
L 381.13932 177.126913 
L 381.75889 189.48605 
L 382.378459 184.179035 
L 382.998029 184.972395 
L 383.617599 179.175279 
L 384.237169 187.860037 
L 384.856738 188.850361 
L 385.476308 182.232284 
L 386.095878 187.795998 
L 386.715448 197.780701 
L 387.335017 202.564817 
L 388.574157 188.086697 
L 389.193727 187.197565 
L 389.813296 185.494484 
L 390.432866 196.223288 
L 391.052436 194.856108 
L 391.672006 182.01049 
L 392.291575 178.042089 
L 392.911145 187.377117 
L 393.530715 175.899084 
L 394.150285 173.557363 
L 394.769854 178.235629 
L 395.389424 174.778126 
L 396.008994 160.995688 
L 396.628563 166.686437 
L 397.248133 185.292667 
L 397.867703 197.851003 
L 398.487273 180.0736 
L 398.487273 180.0736 
" style="fill:none;stroke:#0000ff;stroke-linecap:square;stroke-width:1.5;"/>
   </g>
   <g id="line2d_16">
    <path clip-path="url(#p48793c6bdc)" d="M 73.832727 248.657225 
L 74.452297 218.418179 
L 75.071867 203.96798 
L 75.691437 200.087786 
L 76.311006 191.771142 
L 76.930576 188.802307 
L 77.550146 162.357806 
L 78.169715 155.538086 
L 78.789285 144.197832 
L 79.408855 159.288736 
L 80.028425 163.497602 
L 80.647994 147.363442 
L 81.267564 134.740094 
L 81.887134 143.30776 
L 82.506704 140.523977 
L 83.126273 81.493824 
L 83.745843 153.944137 
L 84.365413 114.333632 
L 84.984983 148.287031 
L 85.604552 136.306805 
L 86.843692 77.918725 
L 87.463262 128.51098 
L 88.082831 123.582048 
L 88.702401 114.534298 
L 89.321971 147.07215 
L 89.941541 85.214103 
L 90.56111 140.172569 
L 92.41982 111.555369 
L 93.039389 130.903931 
L 93.658959 135.957931 
L 94.278529 131.387965 
L 94.898099 119.521494 
L 95.517668 140.064761 
L 96.137238 135.66591 
L 96.756808 134.800679 
L 97.376378 135.183277 
L 97.995947 127.16883 
L 98.615517 143.392482 
L 99.235087 150.201318 
L 99.854656 142.895148 
L 100.474226 133.048894 
L 101.093796 113.613308 
L 101.713366 114.14397 
L 102.332935 109.968829 
L 102.952505 147.152709 
L 103.572075 120.101987 
L 104.191645 138.469662 
L 104.811214 130.761987 
L 105.430784 112.169008 
L 106.050354 138.318923 
L 106.669924 107.268697 
L 107.289493 112.826632 
L 107.909063 120.704993 
L 108.528633 111.083186 
L 109.148203 142.435052 
L 109.767772 116.555177 
L 110.387342 150.080002 
L 111.006912 133.057242 
L 111.626482 151.587542 
L 112.246051 136.481227 
L 112.865621 136.755019 
L 113.485191 139.807489 
L 114.104761 128.08673 
L 114.72433 110.177885 
L 115.3439 79.856698 
L 115.96347 102.776771 
L 116.58304 111.398789 
L 117.822179 122.7387 
L 118.441749 139.286007 
L 119.061319 110.460556 
L 119.680888 96.869723 
L 120.300458 124.712718 
L 120.920028 112.75825 
L 121.539598 115.110827 
L 122.159167 104.005368 
L 122.778737 90.336314 
L 123.398307 79.938969 
L 124.017876 103.949519 
L 124.637446 114.58408 
L 125.257016 94.034622 
L 125.876586 78.113332 
L 126.496155 129.301773 
L 127.115725 115.1076 
L 127.735295 91.369247 
L 128.354865 115.994934 
L 128.974434 100.460166 
L 129.594004 97.425529 
L 130.213574 120.975143 
L 130.833144 83.752833 
L 131.452713 103.127983 
L 132.691853 125.804813 
L 133.311423 143.644282 
L 133.930992 114.587582 
L 134.550562 143.346733 
L 135.170132 111.232481 
L 135.789702 141.93373 
L 136.409271 111.750833 
L 137.028841 119.340197 
L 137.648411 103.334003 
L 138.267981 140.056793 
L 138.88755 127.125293 
L 139.50712 146.688344 
L 140.12669 125.946398 
L 140.74626 133.816698 
L 141.365829 122.271195 
L 141.985399 122.027547 
L 142.604969 123.684401 
L 143.224539 145.84007 
L 143.844108 113.817067 
L 144.463678 124.915257 
L 145.083248 116.412748 
L 146.322387 138.458344 
L 146.941957 144.876199 
L 147.561527 149.751795 
L 148.181096 122.730606 
L 148.800666 116.162419 
L 149.420236 142.425624 
L 150.039806 134.321728 
L 150.659375 101.654088 
L 151.278945 130.965849 
L 151.898515 122.963612 
L 152.518085 138.600874 
L 153.137654 129.692751 
L 153.757224 141.69578 
L 154.376794 122.775984 
L 154.996364 111.020281 
L 155.615933 123.117725 
L 156.235503 123.403452 
L 156.855073 122.752429 
L 157.474643 146.245402 
L 158.094212 125.279451 
L 158.713782 109.950206 
L 159.333352 127.014784 
L 159.952922 123.230836 
L 160.572491 142.822705 
L 161.192061 125.982061 
L 161.811631 142.7566 
L 162.431201 142.896895 
L 163.05077 106.726302 
L 163.67034 133.351099 
L 164.28991 121.022242 
L 164.90948 121.709114 
L 165.529049 120.398637 
L 166.148619 101.15764 
L 166.768189 115.154523 
L 167.387759 120.006443 
L 168.007328 123.736878 
L 168.626898 105.333688 
L 169.246468 124.284354 
L 169.866037 133.680955 
L 170.485607 123.237777 
L 171.105177 134.002239 
L 171.724747 122.677262 
L 172.344316 125.789496 
L 173.583456 143.475721 
L 174.203026 142.862804 
L 174.822595 140.381037 
L 175.442165 136.46751 
L 176.061735 137.903466 
L 176.681305 145.023325 
L 177.300874 140.026244 
L 177.920444 143.302436 
L 178.540014 153.907806 
L 179.159584 122.502136 
L 179.779153 127.909006 
L 180.398723 135.895215 
L 181.018293 138.869257 
L 181.637863 138.392526 
L 182.257432 153.74868 
L 182.877002 157.895779 
L 183.496572 122.52056 
L 184.116142 134.455888 
L 184.735711 108.100748 
L 185.355281 132.983815 
L 185.974851 151.321581 
L 186.594421 129.549318 
L 187.21399 125.127034 
L 187.83356 131.490726 
L 188.45313 148.519553 
L 189.0727 130.165458 
L 189.692269 146.765305 
L 190.311839 154.509528 
L 190.931409 143.978491 
L 191.550978 137.214562 
L 192.170548 148.76452 
L 192.790118 133.313113 
L 193.409688 133.84579 
L 194.029257 136.15463 
L 194.648827 155.625105 
L 195.268397 137.120433 
L 195.887967 143.935399 
L 196.507536 131.567997 
L 197.127106 146.012577 
L 197.746676 135.951184 
L 198.366246 155.397215 
L 198.985815 128.0704 
L 199.605385 149.606426 
L 200.224955 150.888096 
L 200.844525 155.343089 
L 201.464094 163.165396 
L 202.083664 158.910772 
L 202.703234 160.390279 
L 203.322804 170.123346 
L 203.942373 153.791289 
L 204.561943 148.059746 
L 205.181513 161.362346 
L 205.801083 167.61128 
L 206.420652 164.908788 
L 207.040222 160.982957 
L 207.659792 162.999828 
L 208.279362 156.58917 
L 208.898931 154.529922 
L 209.518501 136.774255 
L 210.138071 151.223211 
L 210.757641 136.676154 
L 211.37721 149.358733 
L 211.99678 144.076103 
L 212.61635 149.454508 
L 213.23592 157.764108 
L 213.855489 153.699463 
L 214.475059 135.757674 
L 215.094629 134.223283 
L 215.714198 139.750254 
L 216.333768 123.740128 
L 216.953338 136.580421 
L 217.572908 134.75672 
L 218.192477 147.652169 
L 218.812047 143.975486 
L 219.431617 131.987095 
L 220.051187 135.710382 
L 220.670756 143.002694 
L 221.290326 152.212229 
L 221.909896 136.716586 
L 222.529466 149.171503 
L 223.149035 124.874597 
L 223.768605 133.956432 
L 224.388175 137.988094 
L 225.007745 120.845416 
L 225.627314 137.949965 
L 226.246884 138.076209 
L 226.866454 128.317286 
L 227.486024 116.50953 
L 228.105593 145.848175 
L 228.725163 131.113268 
L 229.344733 153.019569 
L 229.964303 159.341804 
L 230.583872 149.614483 
L 231.203442 142.09898 
L 232.442582 162.641889 
L 233.062151 168.172959 
L 233.681721 163.812778 
L 234.301291 141.44495 
L 234.920861 150.547344 
L 235.54043 144.481467 
L 236.16 146.790916 
L 236.77957 134.002006 
L 237.399139 126.284894 
L 238.018709 145.916028 
L 238.638279 128.269027 
L 239.257849 152.177496 
L 239.877418 133.207141 
L 240.496988 107.616578 
L 241.736128 150.019141 
L 242.355697 123.145081 
L 242.975267 136.078365 
L 243.594837 142.326776 
L 244.214407 131.125923 
L 244.833976 96.259338 
L 245.453546 129.525318 
L 246.073116 118.406023 
L 246.692686 131.017753 
L 247.312255 132.71452 
L 247.931825 104.229298 
L 248.551395 115.345865 
L 249.170965 113.176534 
L 249.790534 124.201894 
L 250.410104 116.971322 
L 251.029674 119.050728 
L 251.649244 128.843357 
L 252.888383 120.145732 
L 253.507953 118.376621 
L 254.127523 97.164242 
L 254.747092 106.765794 
L 255.366662 98.959108 
L 255.986232 111.289098 
L 256.605802 115.534158 
L 257.225371 71.213879 
L 257.844941 128.267547 
L 258.464511 103.764757 
L 259.08408 136.331932 
L 259.70365 124.422684 
L 260.32322 122.645311 
L 260.94279 77.783364 
L 261.562359 92.241684 
L 262.181929 119.150849 
L 262.801499 116.073186 
L 263.421069 129.817239 
L 264.040638 134.235972 
L 264.660208 111.933209 
L 265.279778 115.85884 
L 265.899348 110.943569 
L 266.518917 141.631178 
L 267.138487 113.098392 
L 267.758057 111.040676 
L 268.377627 101.663995 
L 268.997196 108.399413 
L 269.616766 119.505198 
L 270.236336 105.846483 
L 270.855906 123.84023 
L 271.475475 133.281501 
L 272.095045 128.896911 
L 272.714615 120.68713 
L 273.334185 131.545888 
L 273.953754 122.45635 
L 274.573324 117.834095 
L 275.192894 79.061383 
L 275.812464 101.276819 
L 276.432033 101.692052 
L 277.051603 119.379368 
L 277.671173 120.450343 
L 278.290743 112.502684 
L 278.910312 120.82629 
L 279.529882 109.926006 
L 280.149452 133.689791 
L 280.769022 124.8389 
L 281.388591 124.292845 
L 282.008161 105.543229 
L 282.627731 115.443276 
L 283.2473 136.880258 
L 283.86687 97.94503 
L 284.48644 108.873043 
L 285.10601 104.746477 
L 285.725579 114.177514 
L 286.964719 106.179394 
L 287.584289 139.316221 
L 288.203858 132.729262 
L 288.823428 127.816519 
L 289.442998 132.025455 
L 290.062568 124.01704 
L 291.301707 134.002416 
L 291.921277 125.668263 
L 292.540847 120.634019 
L 293.160416 128.164937 
L 293.779986 116.779229 
L 294.399556 95.146497 
L 295.019126 95.51443 
L 295.638695 105.168959 
L 296.258265 81.965417 
L 296.877835 109.793811 
L 297.497405 106.579878 
L 298.116974 106.197114 
L 298.736544 126.146537 
L 299.356114 113.434404 
L 299.975684 103.099346 
L 300.595253 118.582964 
L 301.214823 126.541269 
L 301.834393 100.95831 
L 302.453963 104.732531 
L 303.073532 121.416906 
L 303.693102 97.706877 
L 304.312672 112.523191 
L 304.932241 122.889707 
L 305.551811 98.237505 
L 306.171381 53.568 
L 306.790951 59.10883 
L 307.41052 106.753017 
L 308.03009 66.827549 
L 308.64966 75.284834 
L 309.26923 90.134248 
L 309.888799 96.257771 
L 310.508369 85.75525 
L 311.127939 81.961777 
L 311.747509 87.64077 
L 312.367078 77.547381 
L 312.986648 85.696708 
L 313.606218 103.45244 
L 314.225788 105.267739 
L 314.845357 121.346336 
L 315.464927 94.321369 
L 316.084497 100.440645 
L 316.704067 90.940822 
L 317.323636 91.193742 
L 318.562776 146.012597 
L 319.182346 123.702035 
L 319.801915 118.332621 
L 320.421485 111.285724 
L 321.041055 116.430909 
L 321.660625 142.417778 
L 322.280194 141.780277 
L 322.899764 138.258457 
L 324.138904 116.834096 
L 324.758473 131.165881 
L 325.378043 131.098103 
L 325.997613 151.813025 
L 326.617183 142.95228 
L 327.236752 140.949907 
L 327.856322 135.879765 
L 328.475892 147.924698 
L 329.095461 137.035901 
L 329.715031 133.64682 
L 330.334601 133.193991 
L 330.954171 105.882015 
L 331.57374 140.77105 
L 332.19331 125.749054 
L 332.81288 125.090204 
L 333.43245 98.552119 
L 334.052019 132.838712 
L 334.671589 135.810811 
L 335.291159 126.277261 
L 335.910729 133.586117 
L 336.530298 135.859118 
L 337.149868 123.487158 
L 337.769438 117.334488 
L 338.389008 126.586021 
L 339.008577 125.389088 
L 339.628147 115.20313 
L 340.247717 120.230135 
L 340.867287 118.416874 
L 341.486856 124.24974 
L 342.106426 121.120477 
L 343.345566 82.003916 
L 343.965135 105.006831 
L 344.584705 70.069797 
L 345.204275 140.478115 
L 345.823845 110.470454 
L 346.443414 107.107775 
L 347.062984 130.951039 
L 347.682554 110.780258 
L 348.302124 110.382371 
L 348.921693 86.759552 
L 349.541263 118.673027 
L 350.160833 119.91119 
L 350.780402 112.224238 
L 351.399972 110.800904 
L 352.019542 107.809321 
L 352.639112 89.37886 
L 353.258681 66.956295 
L 353.878251 104.780927 
L 354.497821 118.212141 
L 355.117391 121.466593 
L 355.73696 133.630622 
L 356.35653 141.335593 
L 356.9761 104.448754 
L 357.59567 113.31673 
L 358.215239 115.549483 
L 358.834809 124.125111 
L 359.454379 118.217001 
L 360.073949 114.68354 
L 360.693518 59.803372 
L 361.313088 124.034237 
L 361.932658 119.531194 
L 362.552228 132.72678 
L 363.171797 111.174526 
L 363.791367 133.229666 
L 364.410937 118.359011 
L 365.030507 110.567105 
L 365.650076 120.404069 
L 366.269646 112.531505 
L 366.889216 116.702456 
L 367.508786 112.964992 
L 368.128355 115.966939 
L 368.747925 110.740768 
L 369.367495 124.482968 
L 369.987065 117.704209 
L 370.606634 123.594229 
L 371.226204 96.485049 
L 371.845774 95.681772 
L 372.465344 109.705367 
L 373.084913 102.751281 
L 373.704483 123.944635 
L 374.324053 116.843196 
L 374.943622 111.987443 
L 375.563192 128.300282 
L 376.182762 118.893994 
L 376.802332 103.390219 
L 377.421901 84.222151 
L 378.041471 108.227307 
L 378.661041 100.508713 
L 379.280611 89.027968 
L 379.90018 86.935414 
L 380.51975 83.462062 
L 381.13932 89.627334 
L 381.75889 80.719999 
L 382.378459 89.469719 
L 382.998029 95.258611 
L 383.617599 105.370258 
L 384.237169 85.363373 
L 384.856738 96.736715 
L 385.476308 90.899658 
L 386.095878 109.889563 
L 386.715448 106.051589 
L 387.335017 106.733269 
L 387.954587 109.20895 
L 388.574157 78.799135 
L 389.193727 99.244824 
L 389.813296 92.790835 
L 390.432866 101.832442 
L 391.052436 56.949644 
L 391.672006 82.496824 
L 392.291575 91.424326 
L 392.911145 88.458415 
L 393.530715 78.925174 
L 394.150285 83.045085 
L 394.769854 68.007118 
L 395.389424 68.669833 
L 396.008994 59.746621 
L 396.628563 60.338308 
L 397.248133 100.782565 
L 397.867703 73.093912 
L 398.487273 76.419888 
L 398.487273 76.419888 
" style="fill:none;stroke:#ff0000;stroke-linecap:square;stroke-width:1.5;"/>
   </g>
   <g id="patch_3">
    <path d="M 57.6 307.584 
L 57.6 41.472 
" style="fill:none;stroke:#000000;stroke-linecap:square;stroke-linejoin:miter;stroke-width:0.8;"/>
   </g>
   <g id="patch_4">
    <path d="M 414.72 307.584 
L 414.72 41.472 
" style="fill:none;stroke:#000000;stroke-linecap:square;stroke-linejoin:miter;stroke-width:0.8;"/>
   </g>
   <g id="patch_5">
    <path d="M 57.6 307.584 
L 414.72 307.584 
" style="fill:none;stroke:#000000;stroke-linecap:square;stroke-linejoin:miter;stroke-width:0.8;"/>
   </g>
   <g id="patch_6">
    <path d="M 57.6 41.472 
L 414.72 41.472 
" style="fill:none;stroke:#000000;stroke-linecap:square;stroke-linejoin:miter;stroke-width:0.8;"/>
   </g>
   <g id="text_10">
    <!-- Population's average and best fitness -->
    <g transform="translate(123.529687 35.472)scale(0.12 -0.12)">
     <defs>
      <path d="M 19.671875 64.796875 
L 19.671875 37.40625 
L 32.078125 37.40625 
Q 38.96875 37.40625 42.71875 40.96875 
Q 46.484375 44.53125 46.484375 51.125 
Q 46.484375 57.671875 42.71875 61.234375 
Q 38.96875 64.796875 32.078125 64.796875 
z
M 9.8125 72.90625 
L 32.078125 72.90625 
Q 44.34375 72.90625 50.609375 67.359375 
Q 56.890625 61.8125 56.890625 51.125 
Q 56.890625 40.328125 50.609375 34.8125 
Q 44.34375 29.296875 32.078125 29.296875 
L 19.671875 29.296875 
L 19.671875 0 
L 9.8125 0 
z
" id="DejaVuSans-80"/>
      <path d="M 18.109375 8.203125 
L 18.109375 -20.796875 
L 9.078125 -20.796875 
L 9.078125 54.6875 
L 18.109375 54.6875 
L 18.109375 46.390625 
Q 20.953125 51.265625 25.265625 53.625 
Q 29.59375 56 35.59375 56 
Q 45.5625 56 51.78125 48.09375 
Q 58.015625 40.1875 58.015625 27.296875 
Q 58.015625 14.40625 51.78125 6.484375 
Q 45.5625 -1.421875 35.59375 -1.421875 
Q 29.59375 -1.421875 25.265625 0.953125 
Q 20.953125 3.328125 18.109375 8.203125 
z
M 48.6875 27.296875 
Q 48.6875 37.203125 44.609375 42.84375 
Q 40.53125 48.484375 33.40625 48.484375 
Q 26.265625 48.484375 22.1875 42.84375 
Q 18.109375 37.203125 18.109375 27.296875 
Q 18.109375 17.390625 22.1875 11.75 
Q 26.265625 6.109375 33.40625 6.109375 
Q 40.53125 6.109375 44.609375 11.75 
Q 48.6875 17.390625 48.6875 27.296875 
z
" id="DejaVuSans-112"/>
      <path d="M 8.5 21.578125 
L 8.5 54.6875 
L 17.484375 54.6875 
L 17.484375 21.921875 
Q 17.484375 14.15625 20.5 10.265625 
Q 23.53125 6.390625 29.59375 6.390625 
Q 36.859375 6.390625 41.078125 11.03125 
Q 45.3125 15.671875 45.3125 23.6875 
L 45.3125 54.6875 
L 54.296875 54.6875 
L 54.296875 0 
L 45.3125 0 
L 45.3125 8.40625 
Q 42.046875 3.421875 37.71875 1 
Q 33.40625 -1.421875 27.6875 -1.421875 
Q 18.265625 -1.421875 13.375 4.4375 
Q 8.5 10.296875 8.5 21.578125 
z
M 31.109375 56 
z
" id="DejaVuSans-117"/>
      <path d="M 9.421875 75.984375 
L 18.40625 75.984375 
L 18.40625 0 
L 9.421875 0 
z
" id="DejaVuSans-108"/>
      <path d="M 17.921875 72.90625 
L 17.921875 45.796875 
L 9.625 45.796875 
L 9.625 72.90625 
z
" id="DejaVuSans-39"/>
      <path id="DejaVuSans-32"/>
      <path d="M 2.984375 54.6875 
L 12.5 54.6875 
L 29.59375 8.796875 
L 46.6875 54.6875 
L 56.203125 54.6875 
L 35.6875 0 
L 23.484375 0 
z
" id="DejaVuSans-118"/>
      <path d="M 45.40625 27.984375 
Q 45.40625 37.75 41.375 43.109375 
Q 37.359375 48.484375 30.078125 48.484375 
Q 22.859375 48.484375 18.828125 43.109375 
Q 14.796875 37.75 14.796875 27.984375 
Q 14.796875 18.265625 18.828125 12.890625 
Q 22.859375 7.515625 30.078125 7.515625 
Q 37.359375 7.515625 41.375 12.890625 
Q 45.40625 18.265625 45.40625 27.984375 
z
M 54.390625 6.78125 
Q 54.390625 -7.171875 48.1875 -13.984375 
Q 42 -20.796875 29.203125 -20.796875 
Q 24.46875 -20.796875 20.265625 -20.09375 
Q 16.0625 -19.390625 12.109375 -17.921875 
L 12.109375 -9.1875 
Q 16.0625 -11.328125 19.921875 -12.34375 
Q 23.78125 -13.375 27.78125 -13.375 
Q 36.625 -13.375 41.015625 -8.765625 
Q 45.40625 -4.15625 45.40625 5.171875 
L 45.40625 9.625 
Q 42.625 4.78125 38.28125 2.390625 
Q 33.9375 0 27.875 0 
Q 17.828125 0 11.671875 7.65625 
Q 5.515625 15.328125 5.515625 27.984375 
Q 5.515625 40.671875 11.671875 48.328125 
Q 17.828125 56 27.875 56 
Q 33.9375 56 38.28125 53.609375 
Q 42.625 51.21875 45.40625 46.390625 
L 45.40625 54.6875 
L 54.390625 54.6875 
z
" id="DejaVuSans-103"/>
      <path d="M 45.40625 46.390625 
L 45.40625 75.984375 
L 54.390625 75.984375 
L 54.390625 0 
L 45.40625 0 
L 45.40625 8.203125 
Q 42.578125 3.328125 38.25 0.953125 
Q 33.9375 -1.421875 27.875 -1.421875 
Q 17.96875 -1.421875 11.734375 6.484375 
Q 5.515625 14.40625 5.515625 27.296875 
Q 5.515625 40.1875 11.734375 48.09375 
Q 17.96875 56 27.875 56 
Q 33.9375 56 38.25 53.625 
Q 42.578125 51.265625 45.40625 46.390625 
z
M 14.796875 27.296875 
Q 14.796875 17.390625 18.875 11.75 
Q 22.953125 6.109375 30.078125 6.109375 
Q 37.203125 6.109375 41.296875 11.75 
Q 45.40625 17.390625 45.40625 27.296875 
Q 45.40625 37.203125 41.296875 42.84375 
Q 37.203125 48.484375 30.078125 48.484375 
Q 22.953125 48.484375 18.875 42.84375 
Q 14.796875 37.203125 14.796875 27.296875 
z
" id="DejaVuSans-100"/>
      <path d="M 48.6875 27.296875 
Q 48.6875 37.203125 44.609375 42.84375 
Q 40.53125 48.484375 33.40625 48.484375 
Q 26.265625 48.484375 22.1875 42.84375 
Q 18.109375 37.203125 18.109375 27.296875 
Q 18.109375 17.390625 22.1875 11.75 
Q 26.265625 6.109375 33.40625 6.109375 
Q 40.53125 6.109375 44.609375 11.75 
Q 48.6875 17.390625 48.6875 27.296875 
z
M 18.109375 46.390625 
Q 20.953125 51.265625 25.265625 53.625 
Q 29.59375 56 35.59375 56 
Q 45.5625 56 51.78125 48.09375 
Q 58.015625 40.1875 58.015625 27.296875 
Q 58.015625 14.40625 51.78125 6.484375 
Q 45.5625 -1.421875 35.59375 -1.421875 
Q 29.59375 -1.421875 25.265625 0.953125 
Q 20.953125 3.328125 18.109375 8.203125 
L 18.109375 0 
L 9.078125 0 
L 9.078125 75.984375 
L 18.109375 75.984375 
z
" id="DejaVuSans-98"/>
      <path d="M 37.109375 75.984375 
L 37.109375 68.5 
L 28.515625 68.5 
Q 23.6875 68.5 21.796875 66.546875 
Q 19.921875 64.59375 19.921875 59.515625 
L 19.921875 54.6875 
L 34.71875 54.6875 
L 34.71875 47.703125 
L 19.921875 47.703125 
L 19.921875 0 
L 10.890625 0 
L 10.890625 47.703125 
L 2.296875 47.703125 
L 2.296875 54.6875 
L 10.890625 54.6875 
L 10.890625 58.5 
Q 10.890625 67.625 15.140625 71.796875 
Q 19.390625 75.984375 28.609375 75.984375 
z
" id="DejaVuSans-102"/>
     </defs>
     <use xlink:href="#DejaVuSans-80"/>
     <use x="56.677734" xlink:href="#DejaVuSans-111"/>
     <use x="117.859375" xlink:href="#DejaVuSans-112"/>
     <use x="181.335938" xlink:href="#DejaVuSans-117"/>
     <use x="244.714844" xlink:href="#DejaVuSans-108"/>
     <use x="272.498047" xlink:href="#DejaVuSans-97"/>
     <use x="333.777344" xlink:href="#DejaVuSans-116"/>
     <use x="372.986328" xlink:href="#DejaVuSans-105"/>
     <use x="400.769531" xlink:href="#DejaVuSans-111"/>
     <use x="461.951172" xlink:href="#DejaVuSans-110"/>
     <use x="525.330078" xlink:href="#DejaVuSans-39"/>
     <use x="552.820312" xlink:href="#DejaVuSans-115"/>
     <use x="604.919922" xlink:href="#DejaVuSans-32"/>
     <use x="636.707031" xlink:href="#DejaVuSans-97"/>
     <use x="697.986328" xlink:href="#DejaVuSans-118"/>
     <use x="757.166016" xlink:href="#DejaVuSans-101"/>
     <use x="818.689453" xlink:href="#DejaVuSans-114"/>
     <use x="859.802734" xlink:href="#DejaVuSans-97"/>
     <use x="921.082031" xlink:href="#DejaVuSans-103"/>
     <use x="984.558594" xlink:href="#DejaVuSans-101"/>
     <use x="1046.082031" xlink:href="#DejaVuSans-32"/>
     <use x="1077.869141" xlink:href="#DejaVuSans-97"/>
     <use x="1139.148438" xlink:href="#DejaVuSans-110"/>
     <use x="1202.527344" xlink:href="#DejaVuSans-100"/>
     <use x="1266.003906" xlink:href="#DejaVuSans-32"/>
     <use x="1297.791016" xlink:href="#DejaVuSans-98"/>
     <use x="1361.267578" xlink:href="#DejaVuSans-101"/>
     <use x="1422.791016" xlink:href="#DejaVuSans-115"/>
     <use x="1474.890625" xlink:href="#DejaVuSans-116"/>
     <use x="1514.099609" xlink:href="#DejaVuSans-32"/>
     <use x="1545.886719" xlink:href="#DejaVuSans-102"/>
     <use x="1581.091797" xlink:href="#DejaVuSans-105"/>
     <use x="1608.875" xlink:href="#DejaVuSans-116"/>
     <use x="1648.083984" xlink:href="#DejaVuSans-110"/>
     <use x="1711.462891" xlink:href="#DejaVuSans-101"/>
     <use x="1772.986328" xlink:href="#DejaVuSans-115"/>
     <use x="1825.085938" xlink:href="#DejaVuSans-115"/>
    </g>
   </g>
   <g id="legend_1">
    <g id="patch_7">
     <path d="M 334.779375 302.584 
L 407.72 302.584 
Q 409.72 302.584 409.72 300.584 
L 409.72 272.22775 
Q 409.72 270.22775 407.72 270.22775 
L 334.779375 270.22775 
Q 332.779375 270.22775 332.779375 272.22775 
L 332.779375 300.584 
Q 332.779375 302.584 334.779375 302.584 
z
" style="fill:#ffffff;opacity:0.8;stroke:#cccccc;stroke-linejoin:miter;"/>
    </g>
    <g id="line2d_17">
     <path d="M 336.779375 278.326187 
L 356.779375 278.326187 
" style="fill:none;stroke:#0000ff;stroke-linecap:square;stroke-width:1.5;"/>
    </g>
    <g id="line2d_18"/>
    <g id="text_11">
     <!-- average -->
     <g transform="translate(364.779375 281.826187)scale(0.1 -0.1)">
      <use xlink:href="#DejaVuSans-97"/>
      <use x="61.279297" xlink:href="#DejaVuSans-118"/>
      <use x="120.458984" xlink:href="#DejaVuSans-101"/>
      <use x="181.982422" xlink:href="#DejaVuSans-114"/>
      <use x="223.095703" xlink:href="#DejaVuSans-97"/>
      <use x="284.375" xlink:href="#DejaVuSans-103"/>
      <use x="347.851562" xlink:href="#DejaVuSans-101"/>
     </g>
    </g>
    <g id="line2d_19">
     <path d="M 336.779375 293.004312 
L 356.779375 293.004312 
" style="fill:none;stroke:#ff0000;stroke-linecap:square;stroke-width:1.5;"/>
    </g>
    <g id="line2d_20"/>
    <g id="text_12">
     <!-- best -->
     <g transform="translate(364.779375 296.504312)scale(0.1 -0.1)">
      <use xlink:href="#DejaVuSans-98"/>
      <use x="63.476562" xlink:href="#DejaVuSans-101"/>
      <use x="125" xlink:href="#DejaVuSans-115"/>
      <use x="177.099609" xlink:href="#DejaVuSans-116"/>
     </g>
    </g>
   </g>
  </g>
 </g>
 <defs>
  <clipPath id="p48793c6bdc">
   <rect height="266.112" width="357.12" x="57.6" y="41.472"/>
  </clipPath>
 </defs>
</svg>
