<?xml version="1.0" encoding="UTF-8" standalone="no"?>
<!DOCTYPE svg PUBLIC "-//W3C//DTD SVG 1.1//EN"
 "http://www.w3.org/Graphics/SVG/1.1/DTD/svg11.dtd">
<!-- Generated by graphviz version 2.40.1 (20161225.0304)
 -->
<!-- Title: %3 Pages: 1 -->
<svg width="1678pt" height="413pt"
 viewBox="0.00 0.00 1677.88 413.24" xmlns="http://www.w3.org/2000/svg" xmlns:xlink="http://www.w3.org/1999/xlink">
<g id="graph0" class="graph" transform="scale(1 1) rotate(0) translate(4 409.2447)">
<title>%3</title>
<polygon fill="#ffffff" stroke="transparent" points="-4,4 -4,-409.2447 1673.8835,-409.2447 1673.8835,4 -4,4"/>
<!-- A_agent -->
<g id="node1" class="node">
<title>A_agent</title>
<polygon fill="#d3d3d3" stroke="#000000" points="666.1703,-257.0696 619.1703,-257.0696 619.1703,-239.0696 666.1703,-239.0696 666.1703,-257.0696"/>
<text text-anchor="middle" x="642.6703" y="-245.8696" font-family="Times,serif" font-size="9.00" fill="#000000">A_agent</text>
</g>
<!-- none -->
<g id="node18" class="node">
<title>none</title>
<ellipse fill="#add8e6" stroke="#000000" cx="577.6703" cy="-131.4594" rx="24.0833" ry="24.0833"/>
<text text-anchor="middle" x="577.6703" y="-129.2594" font-family="Times,serif" font-size="9.00" fill="#000000">none</text>
</g>
<!-- A_agent&#45;&gt;none -->
<g id="edge13" class="edge">
<title>A_agent&#45;&gt;none</title>
<path fill="none" stroke="#00ff00" stroke-width=".2444" d="M637.5699,-238.9194C628.4007,-222.4698 608.7568,-187.2286 594.4573,-161.5753"/>
<polygon fill="#00ff00" stroke="#00ff00" stroke-width=".2444" points="597.3862,-159.641 589.4602,-152.6104 591.2719,-163.0492 597.3862,-159.641"/>
</g>
<!-- right -->
<g id="node19" class="node">
<title>right</title>
<ellipse fill="#add8e6" stroke="#000000" cx="1000.6703" cy="-131.4594" rx="23.1702" ry="23.1702"/>
<text text-anchor="middle" x="1000.6703" y="-129.2594" font-family="Times,serif" font-size="9.00" fill="#000000">right</text>
</g>
<!-- A_agent&#45;&gt;right -->
<g id="edge7" class="edge">
<title>A_agent&#45;&gt;right</title>
<path fill="none" stroke="#00ff00" stroke-width=".2438" d="M652.7195,-238.9857C658.9467,-233.767 667.3261,-227.4495 675.6703,-223.3209 728.1392,-197.3598 896.4861,-156.0096 968.0197,-139.0719"/>
<polygon fill="#00ff00" stroke="#00ff00" stroke-width=".2438" points="968.9163,-142.4566 977.846,-136.7548 967.3096,-135.6434 968.9163,-142.4566"/>
</g>
<!-- forward -->
<g id="node21" class="node">
<title>forward</title>
<ellipse fill="#add8e6" stroke="#000000" cx="354.6703" cy="-131.4594" rx="31.6406" ry="31.6406"/>
<text text-anchor="middle" x="354.6703" y="-129.2594" font-family="Times,serif" font-size="9.00" fill="#000000">forward</text>
</g>
<!-- A_agent&#45;&gt;forward -->
<g id="edge38" class="edge">
<title>A_agent&#45;&gt;forward</title>
<path fill="none" stroke="#ff0000" stroke-width=".4455" stroke-dasharray="1,5" d="M632.2212,-238.9587C625.9882,-233.8594 617.7382,-227.6722 609.6703,-223.3209 538.2276,-184.7889 447.2838,-156.4756 395.5578,-142.1049"/>
<polygon fill="#ff0000" stroke="#ff0000" stroke-width=".4455" points="396.3224,-138.6855 385.7529,-139.4178 394.4722,-145.4366 396.3224,-138.6855"/>
</g>
<!-- backward -->
<g id="node22" class="node">
<title>backward</title>
<ellipse fill="#add8e6" stroke="#000000" cx="258.6703" cy="-131.4594" rx="36.125" ry="36.125"/>
<text text-anchor="middle" x="258.6703" y="-129.2594" font-family="Times,serif" font-size="9.00" fill="#000000">backward</text>
</g>
<!-- A_agent&#45;&gt;backward -->
<g id="edge61" class="edge">
<title>A_agent&#45;&gt;backward</title>
<path fill="none" stroke="#ff0000" stroke-width=".6541" stroke-dasharray="1,5" d="M633.396,-239.0035C627.1981,-233.5134 618.5739,-226.9003 609.6703,-223.3209 486.7101,-173.8876 432.5899,-245.8102 313.6703,-187.3209 304.1444,-182.6356 295.3175,-175.6196 287.6479,-168.1281"/>
<polygon fill="#ff0000" stroke="#ff0000" stroke-width=".6541" points="289.8275,-165.344 280.381,-160.5467 284.7741,-170.1879 289.8275,-165.344"/>
</g>
<!-- counterclockwise -->
<g id="node23" class="node">
<title>counterclockwise</title>
<ellipse fill="#add8e6" stroke="#000000" cx="1365.6703" cy="-131.4594" rx="55.7232" ry="55.7232"/>
<text text-anchor="middle" x="1365.6703" y="-129.2594" font-family="Times,serif" font-size="9.00" fill="#000000">counterclockwise</text>
</g>
<!-- A_agent&#45;&gt;counterclockwise -->
<g id="edge21" class="edge">
<title>A_agent&#45;&gt;counterclockwise</title>
<path fill="none" stroke="#00ff00" stroke-width=".2744" stroke-dasharray="1,5" d="M651.8959,-238.8786C658.0743,-233.3386 666.6952,-226.717 675.6703,-223.3209 862.9099,-152.4707 926.8401,-218.0071 1124.6703,-187.3209 1185.4212,-177.8975 1253.5806,-161.5479 1301.871,-148.9636"/>
<polygon fill="#00ff00" stroke="#00ff00" stroke-width=".2744" points="1302.7765,-152.3445 1311.5599,-146.4197 1300.9989,-145.574 1302.7765,-152.3445"/>
</g>
<!-- clockwise -->
<g id="node24" class="node">
<title>clockwise</title>
<ellipse fill="#add8e6" stroke="#000000" cx="723.6703" cy="-131.4594" rx="36.5405" ry="36.5405"/>
<text text-anchor="middle" x="723.6703" y="-129.2594" font-family="Times,serif" font-size="9.00" fill="#000000">clockwise</text>
</g>
<!-- A_agent&#45;&gt;clockwise -->
<g id="edge50" class="edge">
<title>A_agent&#45;&gt;clockwise</title>
<path fill="none" stroke="#ff0000" stroke-width=".3114" d="M649.0262,-238.9194C659.2349,-224.2227 679.8628,-194.5261 696.8514,-170.0687"/>
<polygon fill="#ff0000" stroke="#ff0000" stroke-width=".3114" points="699.8553,-171.8793 702.6857,-161.6695 694.1061,-167.8858 699.8553,-171.8793"/>
</g>
<!-- A_lm -->
<g id="node2" class="node">
<title>A_lm</title>
<polygon fill="#d3d3d3" stroke="#000000" points="1332.1703,-339.0315 1295.1703,-339.0315 1295.1703,-321.0315 1332.1703,-321.0315 1332.1703,-339.0315"/>
<text text-anchor="middle" x="1313.6703" y="-327.8315" font-family="Times,serif" font-size="9.00" fill="#000000">A_lm</text>
</g>
<!-- A_lm&#45;&gt;right -->
<g id="edge55" class="edge">
<title>A_lm&#45;&gt;right</title>
<path fill="none" stroke="#00ff00" stroke-width=".2864" stroke-dasharray="1,5" d="M1294.8389,-323.278C1268.8296,-313.6254 1220.8042,-294.6217 1182.6703,-272.8183 1126.4477,-240.6725 1115.3405,-227.6553 1064.6703,-187.3209 1051.4511,-176.7981 1037.2464,-164.5064 1025.5856,-154.1362"/>
<polygon fill="#00ff00" stroke="#00ff00" stroke-width=".2864" points="1027.7469,-151.3734 1017.9625,-147.3092 1023.0769,-156.5879 1027.7469,-151.3734"/>
</g>
<!-- A_lm&#45;&gt;counterclockwise -->
<g id="edge56" class="edge">
<title>A_lm&#45;&gt;counterclockwise</title>
<path fill="none" stroke="#00ff00" stroke-width=".1409" d="M1332.5086,-328.1351C1362.3118,-324.0059 1419.528,-311.2346 1444.6703,-272.8183 1465.516,-240.967 1442.2111,-203.2643 1415.6273,-174.8101"/>
<polygon fill="#00ff00" stroke="#00ff00" stroke-width=".1409" points="1417.9268,-172.1539 1408.4512,-167.4143 1412.903,-177.0284 1417.9268,-172.1539"/>
</g>
<!-- 803 -->
<g id="node25" class="node">
<title>803</title>
<ellipse fill="#ffffff" stroke="#000000" cx="1212.6703" cy="-248.0696" rx="21.4286" ry="21.4286"/>
<text text-anchor="middle" x="1212.6703" y="-245.8696" font-family="Times,serif" font-size="9.00" fill="#000000">803</text>
</g>
<!-- A_lm&#45;&gt;803 -->
<g id="edge72" class="edge">
<title>A_lm&#45;&gt;803</title>
<path fill="none" stroke="#ff0000" stroke-width=".1933" d="M1302.4756,-320.947C1286.7874,-308.2159 1257.8547,-284.7369 1237.0643,-267.8654"/>
<polygon fill="#ff0000" stroke="#ff0000" stroke-width=".1933" points="1239.2357,-265.1201 1229.2653,-261.5365 1234.8248,-270.5555 1239.2357,-265.1201"/>
</g>
<!-- 136 -->
<g id="node26" class="node">
<title>136</title>
<ellipse fill="#ffffff" stroke="#000000" cx="1414.6703" cy="-248.0696" rx="21.4286" ry="21.4286"/>
<text text-anchor="middle" x="1414.6703" y="-245.8696" font-family="Times,serif" font-size="9.00" fill="#000000">136</text>
</g>
<!-- A_lm&#45;&gt;136 -->
<g id="edge63" class="edge">
<title>A_lm&#45;&gt;136</title>
<path fill="none" stroke="#00ff00" stroke-width=".241" stroke-dasharray="1,5" d="M1324.865,-320.947C1340.5532,-308.2159 1369.4859,-284.7369 1390.2764,-267.8654"/>
<polygon fill="#00ff00" stroke="#00ff00" stroke-width=".241" points="1392.5158,-270.5555 1398.0753,-261.5365 1388.1049,-265.1201 1392.5158,-270.5555"/>
</g>
<!-- B_agent -->
<g id="node3" class="node">
<title>B_agent</title>
<polygon fill="#d3d3d3" stroke="#000000" points="600.6703,-257.0696 554.6703,-257.0696 554.6703,-239.0696 600.6703,-239.0696 600.6703,-257.0696"/>
<text text-anchor="middle" x="577.6703" y="-245.8696" font-family="Times,serif" font-size="9.00" fill="#000000">B_agent</text>
</g>
<!-- B_agent&#45;&gt;none -->
<g id="edge53" class="edge">
<title>B_agent&#45;&gt;none</title>
<path fill="none" stroke="#ff0000" stroke-width=".1173" d="M577.6703,-238.9194C577.6703,-223.4161 577.6703,-191.2211 577.6703,-166.0924"/>
<polygon fill="#ff0000" stroke="#ff0000" stroke-width=".1173" points="581.1704,-165.8248 577.6703,-155.8249 574.1704,-165.8249 581.1704,-165.8248"/>
</g>
<!-- B_agent&#45;&gt;clockwise -->
<g id="edge17" class="edge">
<title>B_agent&#45;&gt;clockwise</title>
<path fill="none" stroke="#ff0000" stroke-width=".155" d="M589.1267,-238.9194C609.949,-222.2886 654.8203,-186.4499 687.0212,-160.731"/>
<polygon fill="#ff0000" stroke="#ff0000" stroke-width=".155" points="689.2832,-163.4038 694.9126,-154.4282 684.9146,-157.9342 689.2832,-163.4038"/>
</g>
<!-- B_lm -->
<g id="node4" class="node">
<title>B_lm</title>
<polygon fill="#d3d3d3" stroke="#000000" points="498.1703,-257.0696 461.1703,-257.0696 461.1703,-239.0696 498.1703,-239.0696 498.1703,-257.0696"/>
<text text-anchor="middle" x="479.6703" y="-245.8696" font-family="Times,serif" font-size="9.00" fill="#000000">B_lm</text>
</g>
<!-- B_lm&#45;&gt;none -->
<g id="edge52" class="edge">
<title>B_lm&#45;&gt;none</title>
<path fill="none" stroke="#00ff00" stroke-width=".2365" stroke-dasharray="1,5" d="M487.3602,-238.9194C501.855,-221.672 533.7115,-183.766 555.438,-157.9136"/>
<polygon fill="#00ff00" stroke="#00ff00" stroke-width=".2365" points="558.347,-159.8923 562.1013,-149.985 552.9881,-155.3887 558.347,-159.8923"/>
</g>
<!-- left -->
<g id="node20" class="node">
<title>left</title>
<ellipse fill="#add8e6" stroke="#000000" cx="479.6703" cy="-19.799" rx="19.6" ry="19.6"/>
<text text-anchor="middle" x="479.6703" y="-17.599" font-family="Times,serif" font-size="9.00" fill="#000000">left</text>
</g>
<!-- B_lm&#45;&gt;left -->
<g id="edge54" class="edge">
<title>B_lm&#45;&gt;left</title>
<path fill="none" stroke="#00ff00" stroke-width=".195" d="M479.6703,-238.8384C479.6703,-207.2228 479.6703,-102.3712 479.6703,-50.0457"/>
<polygon fill="#00ff00" stroke="#00ff00" stroke-width=".195" points="483.1704,-49.7224 479.6703,-39.7225 476.1704,-49.7225 483.1704,-49.7224"/>
</g>
<!-- B_lm&#45;&gt;backward -->
<g id="edge39" class="edge">
<title>B_lm&#45;&gt;backward</title>
<path fill="none" stroke="#00ff00" stroke-width=".1673" d="M471.1672,-238.6237C465.9995,-233.4127 458.9995,-227.2255 451.6703,-223.3209 395.7282,-193.5171 368.5459,-219.0455 313.6703,-187.3209 304.5682,-182.0588 295.9512,-174.8858 288.3554,-167.4344"/>
<polygon fill="#00ff00" stroke="#00ff00" stroke-width=".1673" points="290.5869,-164.7071 281.1197,-159.9506 285.5544,-169.5727 290.5869,-164.7071"/>
</g>
<!-- B_lm&#45;&gt;clockwise -->
<g id="edge19" class="edge">
<title>B_lm&#45;&gt;clockwise</title>
<path fill="none" stroke="#00ff00" stroke-width=".725" d="M498.3953,-239.5636C523.8814,-227.946 570.8768,-206.3799 610.6703,-187.3209 634.2248,-176.0395 660.3751,-163.1366 681.5822,-152.5757"/>
<polygon fill="#00ff00" stroke="#00ff00" stroke-width=".725" points="683.2615,-155.6494 690.6479,-148.0539 680.1371,-149.3854 683.2615,-155.6494"/>
</g>
<!-- C_agent -->
<g id="node5" class="node">
<title>C_agent</title>
<polygon fill="#d3d3d3" stroke="#000000" points="442.6703,-257.0696 396.6703,-257.0696 396.6703,-239.0696 442.6703,-239.0696 442.6703,-257.0696"/>
<text text-anchor="middle" x="419.6703" y="-245.8696" font-family="Times,serif" font-size="9.00" fill="#000000">C_agent</text>
</g>
<!-- C_agent&#45;&gt;left -->
<g id="edge20" class="edge">
<title>C_agent&#45;&gt;left</title>
<path fill="none" stroke="#ff0000" stroke-width=".3054" stroke-dasharray="1,5" d="M422.0967,-238.8384C430.4651,-207.0006 458.3549,-100.8937 472.008,-48.9502"/>
<polygon fill="#ff0000" stroke="#ff0000" stroke-width=".3054" points="475.459,-49.5889 474.6161,-39.0277 468.6889,-47.8094 475.459,-49.5889"/>
</g>
<!-- C_agent&#45;&gt;forward -->
<g id="edge3" class="edge">
<title>C_agent&#45;&gt;forward</title>
<path fill="none" stroke="#00ff00" stroke-width=".5237" d="M414.5699,-238.9194C406.2003,-223.9044 389.1034,-193.2324 375.3099,-168.4869"/>
<polygon fill="#00ff00" stroke="#00ff00" stroke-width=".5237" points="378.3258,-166.7088 370.3998,-159.6782 372.2115,-170.117 378.3258,-166.7088"/>
</g>
<!-- C_agent&#45;&gt;backward -->
<g id="edge32" class="edge">
<title>C_agent&#45;&gt;backward</title>
<path fill="none" stroke="#00ff00" stroke-width=".3252" stroke-dasharray="1,5" d="M409.1118,-239.0158C403.0582,-234.0563 395.1888,-227.988 387.6703,-223.3209 356.5963,-204.0314 343.374,-208.6602 313.6703,-187.3209 305.2146,-181.2462 296.901,-173.8137 289.3998,-166.3775"/>
<polygon fill="#00ff00" stroke="#00ff00" stroke-width=".3252" points="291.6822,-163.7048 282.1942,-158.9901 286.6712,-168.5926 291.6822,-163.7048"/>
</g>
<!-- C_agent&#45;&gt;counterclockwise -->
<g id="edge44" class="edge">
<title>C_agent&#45;&gt;counterclockwise</title>
<path fill="none" stroke="#ff0000" stroke-width=".3505" stroke-dasharray="1,5" d="M428.5914,-239.0462C434.775,-233.4236 443.5164,-226.6467 452.6703,-223.3209 593.228,-172.2524 976.5995,-208.2845 1124.6703,-187.3209 1185.5407,-178.7029 1253.6859,-162.258 1301.9407,-149.4332"/>
<polygon fill="#ff0000" stroke="#ff0000" stroke-width=".3505" points="1302.8693,-152.8079 1311.6219,-146.8378 1301.0566,-146.0466 1302.8693,-152.8079"/>
</g>
<!-- C_lm -->
<g id="node6" class="node">
<title>C_lm</title>
<polygon fill="#d3d3d3" stroke="#000000" points="378.1703,-257.0696 341.1703,-257.0696 341.1703,-239.0696 378.1703,-239.0696 378.1703,-257.0696"/>
<text text-anchor="middle" x="359.6703" y="-245.8696" font-family="Times,serif" font-size="9.00" fill="#000000">C_lm</text>
</g>
<!-- C_lm&#45;&gt;forward -->
<g id="edge37" class="edge">
<title>C_lm&#45;&gt;forward</title>
<path fill="none" stroke="#ff0000" stroke-width=".2462" d="M359.278,-238.9194C358.6784,-224.9352 357.4964,-197.3701 356.4798,-173.6602"/>
<polygon fill="#ff0000" stroke="#ff0000" stroke-width=".2462" points="359.967,-173.285 356.0418,-163.4441 352.9734,-173.5849 359.967,-173.285"/>
</g>
<!-- C_lm&#45;&gt;backward -->
<g id="edge26" class="edge">
<title>C_lm&#45;&gt;backward</title>
<path fill="none" stroke="#00ff00" stroke-width=".3931" d="M351.745,-238.9194C338.485,-223.6099 311.1268,-192.0234 289.4861,-167.038"/>
<polygon fill="#00ff00" stroke="#00ff00" stroke-width=".3931" points="291.8786,-164.4543 282.6859,-159.1868 286.5874,-169.0372 291.8786,-164.4543"/>
</g>
<!-- C_lm&#45;&gt;clockwise -->
<g id="edge12" class="edge">
<title>C_lm&#45;&gt;clockwise</title>
<path fill="none" stroke="#00ff00" stroke-width=".474" d="M367.5657,-238.8532C372.7268,-233.4491 379.9292,-226.9836 387.6703,-223.3209 478.4188,-180.3822 515.0488,-217.9073 610.6703,-187.3209 635.5454,-179.364 661.7851,-166.6861 682.7113,-155.418"/>
<polygon fill="#00ff00" stroke="#00ff00" stroke-width=".474" points="684.5446,-158.4044 691.6307,-150.528 681.1794,-152.2663 684.5446,-158.4044"/>
</g>
<!-- D_agent -->
<g id="node7" class="node">
<title>D_agent</title>
<polygon fill="#d3d3d3" stroke="#000000" points="97.1703,-339.0315 50.1703,-339.0315 50.1703,-321.0315 97.1703,-321.0315 97.1703,-339.0315"/>
<text text-anchor="middle" x="73.6703" y="-327.8315" font-family="Times,serif" font-size="9.00" fill="#000000">D_agent</text>
</g>
<!-- D_agent&#45;&gt;forward -->
<g id="edge10" class="edge">
<title>D_agent&#45;&gt;forward</title>
<path fill="none" stroke="#00ff00" stroke-width=".6318" d="M97.3396,-324.2038C127.1195,-316.0913 178.9257,-299.3314 216.6703,-272.8183 240.7562,-255.8996 239.551,-243.8232 260.6703,-223.3209 278.554,-205.9597 285.6719,-204.563 303.6703,-187.3209 311.4225,-179.8944 319.4244,-171.5145 326.7259,-163.5474"/>
<polygon fill="#00ff00" stroke="#00ff00" stroke-width=".6318" points="329.6485,-165.5336 333.7588,-155.7685 324.4561,-160.8391 329.6485,-165.5336"/>
</g>
<!-- D_agent&#45;&gt;backward -->
<g id="edge47" class="edge">
<title>D_agent&#45;&gt;backward</title>
<path fill="none" stroke="#ff0000" stroke-width=".3023" stroke-dasharray="1,5" d="M65.9427,-321.0177C50.35,-301.6822 18.3531,-255.3791 39.6703,-223.3209 78.0883,-165.5453 160.6297,-144.0331 212.685,-136.0742"/>
<polygon fill="#ff0000" stroke="#ff0000" stroke-width=".3023" points="213.259,-139.5279 222.6674,-134.6564 212.2746,-132.5974 213.259,-139.5279"/>
</g>
<!-- 1025 -->
<g id="node28" class="node">
<title>1025</title>
<ellipse fill="#ffffff" stroke="#000000" cx="73.6703" cy="-248.0696" rx="25" ry="25"/>
<text text-anchor="middle" x="73.6703" y="-245.8696" font-family="Times,serif" font-size="9.00" fill="#000000">1025</text>
</g>
<!-- D_agent&#45;&gt;1025 -->
<g id="edge78" class="edge">
<title>D_agent&#45;&gt;1025</title>
<path fill="none" stroke="#00ff00" stroke-width=".4888" d="M73.6703,-320.947C73.6703,-311.7802 73.6703,-297.041 73.6703,-283.2085"/>
<polygon fill="#00ff00" stroke="#00ff00" stroke-width=".4888" points="77.1704,-282.9146 73.6703,-272.9146 70.1704,-282.9147 77.1704,-282.9146"/>
</g>
<!-- D_lm -->
<g id="node8" class="node">
<title>D_lm</title>
<polygon fill="#d3d3d3" stroke="#000000" points="153.1703,-257.0696 116.1703,-257.0696 116.1703,-239.0696 153.1703,-239.0696 153.1703,-257.0696"/>
<text text-anchor="middle" x="134.6703" y="-245.8696" font-family="Times,serif" font-size="9.00" fill="#000000">D_lm</text>
</g>
<!-- D_lm&#45;&gt;none -->
<g id="edge5" class="edge">
<title>D_lm&#45;&gt;none</title>
<path fill="none" stroke="#00ff00" stroke-width=".7647" stroke-dasharray="1,5" d="M142.211,-238.8304C147.1605,-233.4177 154.1025,-226.9512 161.6703,-223.3209 256.5425,-177.8096 293.1043,-210.8201 395.6703,-187.3209 448.9723,-175.1086 509.3944,-155.3498 545.4712,-142.8993"/>
<polygon fill="#00ff00" stroke="#00ff00" stroke-width=".7647" points="546.6798,-146.1847 554.975,-139.5938 544.3802,-139.5732 546.6798,-146.1847"/>
</g>
<!-- D_lm&#45;&gt;left -->
<g id="edge18" class="edge">
<title>D_lm&#45;&gt;left</title>
<path fill="none" stroke="#00ff00" stroke-width=".103" stroke-dasharray="1,5" d="M133.9093,-238.9125C132.0637,-210.103 130.6063,-120.568 178.6703,-75.598 217.719,-39.063 381.3681,-25.4875 449.5994,-21.3513"/>
<polygon fill="#00ff00" stroke="#00ff00" stroke-width=".103" points="449.9162,-24.8389 459.6971,-20.7664 449.5114,-17.8506 449.9162,-24.8389"/>
</g>
<!-- D_lm&#45;&gt;forward -->
<g id="edge15" class="edge">
<title>D_lm&#45;&gt;forward</title>
<path fill="none" stroke="#00ff00" stroke-width="1.2318" d="M142.7989,-238.5956C147.7585,-233.3752 154.5085,-227.188 161.6703,-223.3209 218.9598,-192.3866 247.8126,-220.7713 303.6703,-187.3209 313.1472,-181.6456 321.9026,-173.6687 329.3873,-165.5156"/>
<polygon fill="#00ff00" stroke="#00ff00" stroke-width="1.2318" points="332.2463,-167.561 336.1561,-157.7139 326.959,-162.9736 332.2463,-167.561"/>
</g>
<!-- D_lm&#45;&gt;backward -->
<g id="edge27" class="edge">
<title>D_lm&#45;&gt;backward</title>
<path fill="none" stroke="#00ff00" stroke-width=".3749" d="M144.4004,-238.9194C161.5177,-222.8222 197.7707,-188.7297 224.8792,-163.2367"/>
<polygon fill="#00ff00" stroke="#00ff00" stroke-width=".3749" points="227.3722,-165.6969 232.2593,-156.2965 222.5767,-160.5975 227.3722,-165.6969"/>
</g>
<!-- E_agent -->
<g id="node9" class="node">
<title>E_agent</title>
<polygon fill="#d3d3d3" stroke="#000000" points="961.6703,-257.0696 915.6703,-257.0696 915.6703,-239.0696 961.6703,-239.0696 961.6703,-257.0696"/>
<text text-anchor="middle" x="938.6703" y="-245.8696" font-family="Times,serif" font-size="9.00" fill="#000000">E_agent</text>
</g>
<!-- E_agent&#45;&gt;right -->
<g id="edge2" class="edge">
<title>E_agent&#45;&gt;right</title>
<path fill="none" stroke="#00ff00" stroke-width=".5123" stroke-dasharray="1,5" d="M943.5353,-238.9194C952.3322,-222.3742 971.2368,-186.8182 984.8955,-161.1288"/>
<polygon fill="#00ff00" stroke="#00ff00" stroke-width=".5123" points="988.0576,-162.6369 989.6619,-152.1642 981.8769,-159.3507 988.0576,-162.6369"/>
</g>
<!-- E_agent&#45;&gt;forward -->
<g id="edge11" class="edge">
<title>E_agent&#45;&gt;forward</title>
<path fill="none" stroke="#00ff00" stroke-width=".2374" d="M929.7522,-238.9354C923.7722,-233.4181 915.4145,-226.8004 906.6703,-223.3209 756.4445,-163.5425 703.3653,-218.2586 544.6703,-187.3209 491.8518,-177.0238 432.5982,-158.4373 394.521,-145.5463"/>
<polygon fill="#00ff00" stroke="#00ff00" stroke-width=".2374" points="395.4346,-142.1598 384.8401,-142.2368 393.1703,-148.7835 395.4346,-142.1598"/>
</g>
<!-- E_agent&#45;&gt;counterclockwise -->
<g id="edge28" class="edge">
<title>E_agent&#45;&gt;counterclockwise</title>
<path fill="none" stroke="#00ff00" stroke-width=".3543" d="M948.3017,-238.8319C954.3,-233.5587 962.4231,-227.2378 970.6703,-223.3209 971.6156,-222.8719 1189.3294,-172.3517 1301.0872,-146.4336"/>
<polygon fill="#00ff00" stroke="#00ff00" stroke-width=".3543" points="1301.957,-149.8248 1310.9077,-144.1561 1300.3755,-143.0058 1301.957,-149.8248"/>
</g>
<!-- E_agent&#45;&gt;clockwise -->
<g id="edge24" class="edge">
<title>E_agent&#45;&gt;clockwise</title>
<path fill="none" stroke="#00ff00" stroke-width=".4922" stroke-dasharray="1,5" d="M928.0892,-239.0519C922.0285,-234.1037 914.1596,-228.0347 906.6703,-223.3209 860.7686,-194.4296 804.58,-167.3472 766.6698,-150.1795"/>
<polygon fill="#00ff00" stroke="#00ff00" stroke-width=".4922" points="767.9989,-146.9396 757.4429,-146.0334 765.1297,-153.3246 767.9989,-146.9396"/>
</g>
<!-- E_lm -->
<g id="node10" class="node">
<title>E_lm</title>
<polygon fill="#d3d3d3" stroke="#000000" points="1018.6703,-339.0315 982.6703,-339.0315 982.6703,-321.0315 1018.6703,-321.0315 1018.6703,-339.0315"/>
<text text-anchor="middle" x="1000.6703" y="-327.8315" font-family="Times,serif" font-size="9.00" fill="#000000">E_lm</text>
</g>
<!-- E_lm&#45;&gt;none -->
<g id="edge1" class="edge">
<title>E_lm&#45;&gt;none</title>
<path fill="none" stroke="#00ff00" stroke-width=".3969" stroke-dasharray="1,5" d="M982.5021,-329.1404C901.4032,-324.9809 575.1642,-306.2531 545.6703,-272.8183 518.097,-241.5608 539.6053,-191.5686 558.2219,-160.1742"/>
<polygon fill="#00ff00" stroke="#00ff00" stroke-width=".3969" points="561.3283,-161.805 563.6005,-151.4567 555.3709,-158.1294 561.3283,-161.805"/>
</g>
<!-- E_lm&#45;&gt;right -->
<g id="edge36" class="edge">
<title>E_lm&#45;&gt;right</title>
<path fill="none" stroke="#ff0000" stroke-width=".1477" stroke-dasharray="1,5" d="M1007.2707,-320.8834C1014.6527,-310.0361 1026.1646,-291.1138 1030.6703,-272.8183 1040.0082,-234.9021 1026.9012,-190.8365 1015.1905,-162.1156"/>
<polygon fill="#ff0000" stroke="#ff0000" stroke-width=".1477" points="1018.2882,-160.457 1011.1455,-152.6318 1011.8494,-163.2033 1018.2882,-160.457"/>
</g>
<!-- E_lm&#45;&gt;counterclockwise -->
<g id="edge34" class="edge">
<title>E_lm&#45;&gt;counterclockwise</title>
<path fill="none" stroke="#00ff00" stroke-width=".3231" d="M1018.9789,-325.5845C1037.8765,-321.0686 1068.2421,-314.0192 1094.6703,-308.8183 1189.3028,-290.1954 1233.499,-333.2451 1308.6703,-272.8183 1321.7632,-262.2935 1335.8898,-227.4371 1346.8041,-194.9731"/>
<polygon fill="#00ff00" stroke="#00ff00" stroke-width=".3231" points="1350.135,-196.048 1349.9382,-185.4549 1343.4861,-193.8586 1350.135,-196.048"/>
</g>
<!-- E_lm&#45;&gt;clockwise -->
<g id="edge23" class="edge">
<title>E_lm&#45;&gt;clockwise</title>
<path fill="none" stroke="#00ff00" stroke-width=".157" stroke-dasharray="1,5" d="M982.4269,-327.5015C935.0037,-320.5955 809.4027,-300.0998 778.6703,-272.8183 751.4225,-248.6301 737.562,-209.2963 730.5773,-178.2537"/>
<polygon fill="#00ff00" stroke="#00ff00" stroke-width=".157" points="733.9241,-177.1566 728.4627,-168.0779 727.0705,-178.5808 733.9241,-177.1566"/>
</g>
<!-- 534 -->
<g id="node29" class="node">
<title>534</title>
<ellipse fill="#ffffff" stroke="#000000" cx="1000.6703" cy="-248.0696" rx="21.4286" ry="21.4286"/>
<text text-anchor="middle" x="1000.6703" y="-245.8696" font-family="Times,serif" font-size="9.00" fill="#000000">534</text>
</g>
<!-- E_lm&#45;&gt;534 -->
<g id="edge67" class="edge">
<title>E_lm&#45;&gt;534</title>
<path fill="none" stroke="#ff0000" stroke-width=".1446" stroke-dasharray="1,5" d="M1000.6703,-320.947C1000.6703,-311.0195 1000.6703,-294.5566 1000.6703,-279.7875"/>
<polygon fill="#ff0000" stroke="#ff0000" stroke-width=".1446" points="1004.1704,-279.4502 1000.6703,-269.4503 997.1704,-279.4503 1004.1704,-279.4502"/>
</g>
<!-- F_agent -->
<g id="node11" class="node">
<title>F_agent</title>
<polygon fill="#d3d3d3" stroke="#000000" points="1148.1703,-339.0315 1103.1703,-339.0315 1103.1703,-321.0315 1148.1703,-321.0315 1148.1703,-339.0315"/>
<text text-anchor="middle" x="1125.6703" y="-327.8315" font-family="Times,serif" font-size="9.00" fill="#000000">F_agent</text>
</g>
<!-- F_agent&#45;&gt;right -->
<g id="edge4" class="edge">
<title>F_agent&#45;&gt;right</title>
<path fill="none" stroke="#00ff00" stroke-width=".1466" stroke-dasharray="1,5" d="M1119.9745,-320.9833C1102.1984,-292.7447 1047.2229,-205.4118 1018.5239,-159.8212"/>
<polygon fill="#00ff00" stroke="#00ff00" stroke-width=".1466" points="1021.4426,-157.8879 1013.1533,-151.2896 1015.5186,-161.617 1021.4426,-157.8879"/>
</g>
<!-- F_agent&#45;&gt;forward -->
<g id="edge9" class="edge">
<title>F_agent&#45;&gt;forward</title>
<path fill="none" stroke="#ff0000" stroke-width=".5509" d="M1102.8851,-324.0051C1083.1399,-319.0466 1053.726,-312.2901 1027.6703,-308.8183 951.022,-298.6055 385.9149,-328.8923 332.6703,-272.8183 306.4423,-245.1966 319.5344,-199.9383 334.2486,-168.0873"/>
<polygon fill="#ff0000" stroke="#ff0000" stroke-width=".5509" points="337.4039,-169.602 338.6172,-159.0768 331.1051,-166.5481 337.4039,-169.602"/>
</g>
<!-- F_agent&#45;&gt;counterclockwise -->
<g id="edge22" class="edge">
<title>F_agent&#45;&gt;counterclockwise</title>
<path fill="none" stroke="#ff0000" stroke-width=".3269" d="M1148.401,-327.1285C1198.3901,-320.2715 1315.5119,-301.4653 1341.6703,-272.8183 1360.0449,-252.6957 1367.0935,-223.9346 1369.1426,-197.6024"/>
<polygon fill="#ff0000" stroke="#ff0000" stroke-width=".3269" points="1372.6563,-197.447 1369.7091,-187.2704 1365.6668,-197.0637 1372.6563,-197.447"/>
</g>
<!-- F_agent&#45;&gt;136 -->
<g id="edge77" class="edge">
<title>F_agent&#45;&gt;136</title>
<path fill="none" stroke="#00ff00" stroke-width=".1477" stroke-dasharray="1,5" d="M1148.3442,-327.936C1193.9149,-323.0858 1299.1337,-308.6405 1379.6703,-272.8183 1382.9661,-271.3524 1386.2684,-269.5544 1389.4568,-267.6027"/>
<polygon fill="#00ff00" stroke="#00ff00" stroke-width=".1477" points="1391.6868,-270.3213 1398.0404,-261.843 1387.7864,-264.5086 1391.6868,-270.3213"/>
</g>
<!-- 713 -->
<g id="node27" class="node">
<title>713</title>
<ellipse fill="#ffffff" stroke="#000000" cx="1094.6703" cy="-131.4594" rx="21.4286" ry="21.4286"/>
<text text-anchor="middle" x="1094.6703" y="-129.2594" font-family="Times,serif" font-size="9.00" fill="#000000">713</text>
</g>
<!-- F_agent&#45;&gt;713 -->
<g id="edge76" class="edge">
<title>F_agent&#45;&gt;713</title>
<path fill="none" stroke="#ff0000" stroke-width=".3218" d="M1124.2578,-320.9833C1119.9392,-293.3204 1106.7674,-208.9481 1099.5413,-162.6608"/>
<polygon fill="#ff0000" stroke="#ff0000" stroke-width=".3218" points="1102.9686,-161.9227 1097.9679,-152.5823 1096.0523,-163.0025 1102.9686,-161.9227"/>
</g>
<!-- F_lm -->
<g id="node12" class="node">
<title>F_lm</title>
<polygon fill="#d3d3d3" stroke="#000000" points="823.6703,-257.0696 787.6703,-257.0696 787.6703,-239.0696 823.6703,-239.0696 823.6703,-257.0696"/>
<text text-anchor="middle" x="805.6703" y="-245.8696" font-family="Times,serif" font-size="9.00" fill="#000000">F_lm</text>
</g>
<!-- F_lm&#45;&gt;none -->
<g id="edge33" class="edge">
<title>F_lm&#45;&gt;none</title>
<path fill="none" stroke="#ff0000" stroke-width=".2494" stroke-dasharray="1,5" d="M787.2546,-239.7949C762.2167,-228.4394 716.1446,-207.1693 677.6703,-187.3209 653.7171,-174.9637 627.0971,-160.0331 607.3482,-148.7178"/>
<polygon fill="#ff0000" stroke="#ff0000" stroke-width=".2494" points="608.9334,-145.5919 598.5202,-143.6383 605.4423,-151.6592 608.9334,-145.5919"/>
</g>
<!-- F_lm&#45;&gt;right -->
<g id="edge31" class="edge">
<title>F_lm&#45;&gt;right</title>
<path fill="none" stroke="#ff0000" stroke-width=".1036" stroke-dasharray="1,5" d="M814.8271,-239.0455C820.0984,-234.0952 826.9858,-228.0264 833.6703,-223.3209 878.684,-191.6338 935.7172,-162.3373 970.1394,-145.7057"/>
<polygon fill="#ff0000" stroke="#ff0000" stroke-width=".1036" points="971.7111,-148.8337 979.2199,-141.3591 968.6888,-142.5198 971.7111,-148.8337"/>
</g>
<!-- F_lm&#45;&gt;left -->
<g id="edge8" class="edge">
<title>F_lm&#45;&gt;left</title>
<path fill="none" stroke="#00ff00" stroke-width=".1665" d="M806.8943,-238.9749C810.1899,-210.3508 816.1005,-121.3054 769.6703,-75.598 733.1564,-39.6524 576.8819,-25.8224 510.112,-21.4859"/>
<polygon fill="#00ff00" stroke="#00ff00" stroke-width=".1665" points="510.0267,-17.9739 499.8291,-20.8477 509.593,-24.9605 510.0267,-17.9739"/>
</g>
<!-- F_lm&#45;&gt;forward -->
<g id="edge59" class="edge">
<title>F_lm&#45;&gt;forward</title>
<path fill="none" stroke="#00ff00" stroke-width=".2891" stroke-dasharray="1,5" d="M787.4783,-240.1194C774.6081,-234.7496 756.8343,-227.8418 740.6703,-223.3209 655.3755,-199.4643 630.829,-207.8399 544.6703,-187.3209 492.3215,-174.8537 432.9633,-156.7506 394.7338,-144.5631"/>
<polygon fill="#00ff00" stroke="#00ff00" stroke-width=".2891" points="395.6025,-141.1662 385.0113,-141.4458 393.4652,-147.8319 395.6025,-141.1662"/>
</g>
<!-- F_lm&#45;&gt;clockwise -->
<g id="edge60" class="edge">
<title>F_lm&#45;&gt;clockwise</title>
<path fill="none" stroke="#ff0000" stroke-width=".9756" d="M799.2359,-238.9194C788.9013,-224.2227 768.0187,-194.5261 750.8203,-170.0687"/>
<polygon fill="#ff0000" stroke="#ff0000" stroke-width=".9756" points="753.5292,-167.8363 744.914,-161.6695 747.8032,-171.8628 753.5292,-167.8363"/>
</g>
<!-- F_lm&#45;&gt;713 -->
<g id="edge70" class="edge">
<title>F_lm&#45;&gt;713</title>
<path fill="none" stroke="#00ff00" stroke-width=".7076" d="M813.5903,-238.9046C818.7607,-233.5199 825.9642,-227.0567 833.6703,-223.3209 914.5476,-184.1125 951.9807,-226.9138 1032.6703,-187.3209 1048.3112,-179.6461 1062.9381,-166.856 1074.0525,-155.4496"/>
<polygon fill="#00ff00" stroke="#00ff00" stroke-width=".7076" points="1076.8817,-157.5484 1081.1553,-147.8537 1071.7688,-152.7674 1076.8817,-157.5484"/>
</g>
<!-- G_agent -->
<g id="node13" class="node">
<title>G_agent</title>
<polygon fill="#d3d3d3" stroke="#000000" points="731.1703,-257.0696 684.1703,-257.0696 684.1703,-239.0696 731.1703,-239.0696 731.1703,-257.0696"/>
<text text-anchor="middle" x="707.6703" y="-245.8696" font-family="Times,serif" font-size="9.00" fill="#000000">G_agent</text>
</g>
<!-- G_agent&#45;&gt;none -->
<g id="edge35" class="edge">
<title>G_agent&#45;&gt;none</title>
<path fill="none" stroke="#00ff00" stroke-width=".666" stroke-dasharray="1,5" d="M697.4694,-238.9194C677.4448,-220.9572 632.4409,-180.5887 603.6508,-154.7639"/>
<polygon fill="#00ff00" stroke="#00ff00" stroke-width=".666" points="605.7758,-151.9683 595.9946,-147.8964 601.1016,-157.1791 605.7758,-151.9683"/>
</g>
<!-- G_agent&#45;&gt;backward -->
<g id="edge58" class="edge">
<title>G_agent&#45;&gt;backward</title>
<path fill="none" stroke="#00ff00" stroke-width=".2029" stroke-dasharray="1,5" d="M698.7522,-238.9354C692.7722,-233.4181 684.4145,-226.8004 675.6703,-223.3209 525.4445,-163.5425 459.5269,-257.0854 313.6703,-187.3209 304.0937,-182.7402 295.2469,-175.7651 287.5743,-168.2798"/>
<polygon fill="#00ff00" stroke="#00ff00" stroke-width=".2029" points="289.754,-165.4955 280.3095,-160.6942 284.6985,-170.3372 289.754,-165.4955"/>
</g>
<!-- G_agent&#45;&gt;counterclockwise -->
<g id="edge40" class="edge">
<title>G_agent&#45;&gt;counterclockwise</title>
<path fill="none" stroke="#00ff00" stroke-width=".2728" d="M729.3562,-239.0384C743.2236,-233.6341 761.7255,-227.1018 778.6703,-223.3209 929.5673,-189.6505 972.1806,-212.8254 1124.6703,-187.3209 1185.3055,-177.1793 1253.4785,-160.9147 1301.8035,-148.5448"/>
<polygon fill="#00ff00" stroke="#00ff00" stroke-width=".2728" points="1302.6891,-151.931 1311.4998,-146.0469 1300.9428,-145.1523 1302.6891,-151.931"/>
</g>
<!-- G_agent&#45;&gt;clockwise -->
<g id="edge57" class="edge">
<title>G_agent&#45;&gt;clockwise</title>
<path fill="none" stroke="#00ff00" stroke-width=".4163" d="M708.9258,-238.9194C710.721,-225.836 714.1472,-200.8649 717.2454,-178.2854"/>
<polygon fill="#00ff00" stroke="#00ff00" stroke-width=".4163" points="720.7468,-178.5136 718.6387,-168.1306 713.8117,-177.5619 720.7468,-178.5136"/>
</g>
<!-- G_lm -->
<g id="node14" class="node">
<title>G_lm</title>
<polygon fill="#d3d3d3" stroke="#000000" points="208.1703,-257.0696 171.1703,-257.0696 171.1703,-239.0696 208.1703,-239.0696 208.1703,-257.0696"/>
<text text-anchor="middle" x="189.6703" y="-245.8696" font-family="Times,serif" font-size="9.00" fill="#000000">G_lm</text>
</g>
<!-- G_lm&#45;&gt;none -->
<g id="edge42" class="edge">
<title>G_lm&#45;&gt;none</title>
<path fill="none" stroke="#ff0000" stroke-width=".3104" stroke-dasharray="1,5" d="M208.4371,-242.6105C244.668,-232.0547 326.7594,-208.0564 395.6703,-187.3209 448.0342,-171.5644 508.7308,-152.8424 545.1191,-141.5689"/>
<polygon fill="#ff0000" stroke="#ff0000" stroke-width=".3104" points="546.1956,-144.8995 554.7107,-138.5953 544.1228,-138.2135 546.1956,-144.8995"/>
</g>
<!-- G_lm&#45;&gt;left -->
<g id="edge51" class="edge">
<title>G_lm&#45;&gt;left</title>
<path fill="none" stroke="#00ff00" stroke-width=".3176" stroke-dasharray="1,5" d="M187.6771,-238.6875C182.1756,-209.9802 169.9299,-122.4425 213.6703,-75.598 245.5583,-41.4471 387.3006,-26.7411 449.8456,-21.8327"/>
<polygon fill="#00ff00" stroke="#00ff00" stroke-width=".3176" points="450.1601,-25.319 459.8687,-21.0774 449.634,-18.3388 450.1601,-25.319"/>
</g>
<!-- G_lm&#45;&gt;forward -->
<g id="edge6" class="edge">
<title>G_lm&#45;&gt;forward</title>
<path fill="none" stroke="#ff0000" stroke-width=".1285" d="M200.5371,-238.9393C206.7731,-233.9558 214.8889,-227.889 222.6703,-223.3209 256.644,-203.3762 271.7115,-210.3564 303.6703,-187.3209 312.5507,-180.92 321.0553,-172.7647 328.4873,-164.6761"/>
<polygon fill="#ff0000" stroke="#ff0000" stroke-width=".1285" points="331.2681,-166.8146 335.2614,-157.0011 326.0199,-162.1825 331.2681,-166.8146"/>
</g>
<!-- G_lm&#45;&gt;backward -->
<g id="edge14" class="edge">
<title>G_lm&#45;&gt;backward</title>
<path fill="none" stroke="#00ff00" stroke-width=".1806" stroke-dasharray="1,5" d="M195.0846,-238.9194C203.6297,-224.4782 220.7446,-195.5539 235.0672,-171.3487"/>
<polygon fill="#00ff00" stroke="#00ff00" stroke-width=".1806" points="238.1163,-173.0687 240.1966,-162.6801 232.0919,-169.5039 238.1163,-173.0687"/>
</g>
<!-- H_agent -->
<g id="node15" class="node">
<title>H_agent</title>
<polygon fill="#d3d3d3" stroke="#000000" points="1299.1703,-257.0696 1252.1703,-257.0696 1252.1703,-239.0696 1299.1703,-239.0696 1299.1703,-257.0696"/>
<text text-anchor="middle" x="1275.6703" y="-245.8696" font-family="Times,serif" font-size="9.00" fill="#000000">H_agent</text>
</g>
<!-- H_agent&#45;&gt;left -->
<g id="edge25" class="edge">
<title>H_agent&#45;&gt;left</title>
<path fill="none" stroke="#00ff00" stroke-width=".2338" stroke-dasharray="1,5" d="M1270.9453,-238.7742C1255.1156,-208.7504 1200.6408,-114.0917 1124.6703,-75.598 1069.3729,-47.5792 630.3764,-26.413 510.0669,-21.0967"/>
<polygon fill="#00ff00" stroke="#00ff00" stroke-width=".2338" points="509.8959,-17.5859 499.7524,-20.6454 509.5898,-24.5793 509.8959,-17.5859"/>
</g>
<!-- H_agent&#45;&gt;counterclockwise -->
<g id="edge41" class="edge">
<title>H_agent&#45;&gt;counterclockwise</title>
<path fill="none" stroke="#ff0000" stroke-width=".8051" d="M1282.7325,-238.9194C1292.0288,-226.8744 1309.1016,-204.7538 1325.3512,-183.6996"/>
<polygon fill="#ff0000" stroke="#ff0000" stroke-width=".8051" points="1328.1817,-185.7607 1331.5209,-175.7058 1322.6402,-181.4837 1328.1817,-185.7607"/>
</g>
<!-- H_agent&#45;&gt;clockwise -->
<g id="edge29" class="edge">
<title>H_agent&#45;&gt;clockwise</title>
<path fill="none" stroke="#00ff00" stroke-width=".1024" d="M1266.3842,-239.0326C1260.1816,-233.5541 1251.5566,-226.9431 1242.6703,-223.3209 1128.932,-176.9589 1089.5669,-208.9965 968.6703,-187.3209 898.7132,-174.7782 818.5755,-155.5768 769.5454,-143.271"/>
<polygon fill="#00ff00" stroke="#00ff00" stroke-width=".1024" points="770.1223,-139.807 759.5699,-140.7547 768.4101,-146.5944 770.1223,-139.807"/>
</g>
<!-- H_lm -->
<g id="node16" class="node">
<title>H_lm</title>
<polygon fill="#d3d3d3" stroke="#000000" points="293.1703,-405.2447 256.1703,-405.2447 256.1703,-387.2447 293.1703,-387.2447 293.1703,-405.2447"/>
<text text-anchor="middle" x="274.6703" y="-394.0447" font-family="Times,serif" font-size="9.00" fill="#000000">H_lm</text>
</g>
<!-- H_lm&#45;&gt;left -->
<g id="edge62" class="edge">
<title>H_lm&#45;&gt;left</title>
<path fill="none" stroke="#ff0000" stroke-width=".1422" stroke-dasharray="1,5" d="M256.1523,-395.8177C203.2536,-394.1759 53.305,-386.445 22.6703,-351.2447 -14.6649,-308.3454 1.6619,-277.265 19.6703,-223.3209 45.6752,-145.4231 60.3365,-117.9945 130.6703,-75.598 184.3892,-43.2168 374.8937,-26.968 449.4448,-21.7367"/>
<polygon fill="#ff0000" stroke="#ff0000" stroke-width=".1422" points="449.8348,-25.2183 459.5727,-21.0442 449.3572,-18.2346 449.8348,-25.2183"/>
</g>
<!-- H_lm&#45;&gt;forward -->
<g id="edge46" class="edge">
<title>H_lm&#45;&gt;forward</title>
<path fill="none" stroke="#00ff00" stroke-width=".3106" stroke-dasharray="1,5" d="M276.0803,-387.0712C280.2286,-360.9908 293.3878,-284.3602 313.6703,-223.3209 319.7471,-205.033 328.2026,-185.4437 335.8572,-169.0725"/>
<polygon fill="#00ff00" stroke="#00ff00" stroke-width=".3106" points="339.1141,-170.3735 340.2476,-159.8395 332.7924,-167.3675 339.1141,-170.3735"/>
</g>
<!-- H_lm&#45;&gt;backward -->
<g id="edge48" class="edge">
<title>H_lm&#45;&gt;backward</title>
<path fill="none" stroke="#00ff00" stroke-width=".2203" d="M255.8612,-395.341C205.6833,-392.526 70.4354,-382.1677 40.6703,-351.2447 16.2166,-325.8397 31.3447,-307.9786 28.6703,-272.8183 27.0018,-250.8828 16.3324,-241.5342 28.6703,-223.3209 69.6756,-162.7886 157.6817,-142.1416 212.1594,-135.1008"/>
<polygon fill="#00ff00" stroke="#00ff00" stroke-width=".2203" points="212.7358,-138.5571 222.2532,-133.902 211.9102,-131.6059 212.7358,-138.5571"/>
</g>
<!-- H_lm&#45;&gt;counterclockwise -->
<g id="edge16" class="edge">
<title>H_lm&#45;&gt;counterclockwise</title>
<path fill="none" stroke="#ff0000" stroke-width=".1524" d="M293.3627,-396.0492C427.2461,-394.5709 1237.9998,-384.2947 1341.6703,-351.2447 1402.7285,-331.7795 1432.0663,-329.1246 1462.6703,-272.8183 1482.6057,-236.1406 1451.5808,-197.2212 1419.4513,-169.526"/>
<polygon fill="#ff0000" stroke="#ff0000" stroke-width=".1524" points="1421.6507,-166.8028 1411.7283,-163.0884 1417.1687,-172.1798 1421.6507,-166.8028"/>
</g>
<!-- 220 -->
<g id="node31" class="node">
<title>220</title>
<ellipse fill="#ffffff" stroke="#000000" cx="1550.6703" cy="-330.0315" rx="21.4286" ry="21.4286"/>
<text text-anchor="middle" x="1550.6703" y="-327.8315" font-family="Times,serif" font-size="9.00" fill="#000000">220</text>
</g>
<!-- H_lm&#45;&gt;220 -->
<g id="edge65" class="edge">
<title>H_lm&#45;&gt;220</title>
<path fill="none" stroke="#00ff00" stroke-width=".3455" d="M293.5112,-396.1339C439.9427,-395.1981 1393.6733,-387.7254 1515.6703,-351.2447 1518.638,-350.3573 1521.6098,-349.157 1524.4984,-347.7761"/>
<polygon fill="#00ff00" stroke="#00ff00" stroke-width=".3455" points="1526.2623,-350.8004 1533.3347,-342.9116 1522.8864,-344.6682 1526.2623,-350.8004"/>
</g>
<!-- no_stimuli -->
<g id="node17" class="node">
<title>no_stimuli</title>
<polygon fill="#d3d3d3" stroke="#000000" points="897.1703,-257.0696 842.1703,-257.0696 842.1703,-239.0696 897.1703,-239.0696 897.1703,-257.0696"/>
<text text-anchor="middle" x="869.6703" y="-245.8696" font-family="Times,serif" font-size="9.00" fill="#000000">no_stimuli</text>
</g>
<!-- no_stimuli&#45;&gt;none -->
<g id="edge30" class="edge">
<title>no_stimuli&#45;&gt;none</title>
<path fill="none" stroke="#ff0000" stroke-width=".2839" stroke-dasharray="1,5" d="M858.3033,-238.888C851.286,-233.6348 841.8887,-227.3151 832.6703,-223.3209 767.7775,-195.2032 743.637,-212.8176 677.6703,-187.3209 652.53,-177.6039 625.9799,-162.5179 606.5596,-150.4717"/>
<polygon fill="#ff0000" stroke="#ff0000" stroke-width=".2839" points="608.2283,-147.3861 597.9032,-145.0105 604.4933,-153.3064 608.2283,-147.3861"/>
</g>
<!-- no_stimuli&#45;&gt;right -->
<g id="edge45" class="edge">
<title>no_stimuli&#45;&gt;right</title>
<path fill="none" stroke="#00ff00" stroke-width=".3676" d="M879.9497,-238.9194C900.3489,-220.7609 946.4726,-179.7037 975.4353,-153.9225"/>
<polygon fill="#00ff00" stroke="#00ff00" stroke-width=".3676" points="977.9713,-156.3509 983.1135,-147.0876 973.317,-151.1223 977.9713,-156.3509"/>
</g>
<!-- no_stimuli&#45;&gt;left -->
<g id="edge49" class="edge">
<title>no_stimuli&#45;&gt;left</title>
<path fill="none" stroke="#ff0000" stroke-width=".3512" stroke-dasharray="1,5" d="M869.1168,-238.7732C866.8435,-209.5501 855.6287,-118.922 802.6703,-75.598 757.9472,-39.0111 580.9257,-25.3578 509.6432,-21.2763"/>
<polygon fill="#ff0000" stroke="#ff0000" stroke-width=".3512" points="509.7103,-17.7748 499.5336,-20.7216 509.3268,-24.7643 509.7103,-17.7748"/>
</g>
<!-- no_stimuli&#45;&gt;clockwise -->
<g id="edge43" class="edge">
<title>no_stimuli&#45;&gt;clockwise</title>
<path fill="none" stroke="#ff0000" stroke-width=".1903" stroke-dasharray="1,5" d="M858.2139,-238.9194C837.3916,-222.2886 792.5204,-186.4499 760.3194,-160.731"/>
<polygon fill="#ff0000" stroke="#ff0000" stroke-width=".1903" points="762.426,-157.9342 752.4281,-154.4282 758.0575,-163.4038 762.426,-157.9342"/>
</g>
<!-- 803&#45;&gt;right -->
<g id="edge73" class="edge">
<title>803&#45;&gt;right</title>
<path fill="none" stroke="#00ff00" stroke-width=".158" stroke-dasharray="1,5" d="M1195.8849,-234.6264C1190.3149,-230.6037 1183.9326,-226.4387 1177.6703,-223.3209 1130.4857,-199.8287 1110.5944,-213.1907 1064.6703,-187.3209 1049.8449,-178.9695 1035.3833,-166.7994 1023.9687,-155.949"/>
<polygon fill="#00ff00" stroke="#00ff00" stroke-width=".158" points="1026.1772,-153.2127 1016.5862,-148.7112 1021.2766,-158.2112 1026.1772,-153.2127"/>
</g>
<!-- 803&#45;&gt;713 -->
<g id="edge80" class="edge">
<title>803&#45;&gt;713</title>
<path fill="none" stroke="#00ff00" stroke-width=".3398" d="M1197.2439,-232.8248C1176.8377,-212.659 1140.7192,-176.9659 1117.2426,-153.7659"/>
<polygon fill="#00ff00" stroke="#00ff00" stroke-width=".3398" points="1119.6736,-151.2475 1110.1005,-146.7079 1114.7532,-156.2265 1119.6736,-151.2475"/>
</g>
<!-- 136&#45;&gt;counterclockwise -->
<g id="edge64" class="edge">
<title>136&#45;&gt;counterclockwise</title>
<path fill="none" stroke="#00ff00" stroke-width=".3948" d="M1406.3581,-228.2883C1402.1396,-218.249 1396.7621,-205.4515 1391.3091,-192.4747"/>
<polygon fill="#00ff00" stroke="#00ff00" stroke-width=".3948" points="1394.4414,-190.8939 1387.3407,-183.0307 1387.988,-193.6057 1394.4414,-190.8939"/>
</g>
<!-- 713&#45;&gt;left -->
<g id="edge71" class="edge">
<title>713&#45;&gt;left</title>
<path fill="none" stroke="#ff0000" stroke-width=".562" d="M1081.345,-114.6584C1069.9349,-101.5956 1052.2761,-84.282 1032.6703,-75.598 937.6491,-33.5099 611.0225,-22.7444 509.8139,-20.3884"/>
<polygon fill="#ff0000" stroke="#ff0000" stroke-width=".562" points="509.7458,-16.8861 499.6705,-20.1632 509.5904,-23.8844 509.7458,-16.8861"/>
</g>
<!-- 1025&#45;&gt;backward -->
<g id="edge79" class="edge">
<title>1025&#45;&gt;backward</title>
<path fill="none" stroke="#ff0000" stroke-width=".2499" d="M93.3312,-232.8234C97.6666,-229.6032 102.2773,-226.2848 106.6703,-223.3209 143.6594,-198.3642 187.4017,-172.2683 218.4419,-154.2963"/>
<polygon fill="#ff0000" stroke="#ff0000" stroke-width=".2499" points="220.3297,-157.248 227.2441,-149.2205 216.8328,-151.184 220.3297,-157.248"/>
</g>
<!-- 534&#45;&gt;right -->
<g id="edge68" class="edge">
<title>534&#45;&gt;right</title>
<path fill="none" stroke="#00ff00" stroke-width=".4642" d="M1000.6703,-226.6815C1000.6703,-209.5154 1000.6703,-185.0966 1000.6703,-165.2851"/>
<polygon fill="#00ff00" stroke="#00ff00" stroke-width=".4642" points="1004.1704,-165.1186 1000.6703,-155.1187 997.1704,-165.1187 1004.1704,-165.1186"/>
</g>
<!-- 832 -->
<g id="node30" class="node">
<title>832</title>
<ellipse fill="#ffffff" stroke="#000000" cx="1648.6703" cy="-248.0696" rx="21.4286" ry="21.4286"/>
<text text-anchor="middle" x="1648.6703" y="-245.8696" font-family="Times,serif" font-size="9.00" fill="#000000">832</text>
</g>
<!-- 832&#45;&gt;counterclockwise -->
<g id="edge75" class="edge">
<title>832&#45;&gt;counterclockwise</title>
<path fill="none" stroke="#00ff00" stroke-width=".1111" stroke-dasharray="1,5" d="M1632.9098,-233.3759C1628.5178,-229.7659 1623.595,-226.1342 1618.6703,-223.3209 1558.2527,-188.8057 1482.5241,-163.3636 1429.7365,-148.1171"/>
<polygon fill="#00ff00" stroke="#00ff00" stroke-width=".1111" points="1430.4024,-144.6677 1419.8263,-145.2965 1428.4862,-151.4003 1430.4024,-144.6677"/>
</g>
<!-- 220&#45;&gt;counterclockwise -->
<g id="edge66" class="edge">
<title>220&#45;&gt;counterclockwise</title>
<path fill="none" stroke="#00ff00" stroke-width=".3703" stroke-dasharray="1,5" d="M1548.1113,-308.7317C1544.3969,-285.5901 1535.6254,-248.5543 1515.6703,-223.3209 1492.5818,-194.1252 1457.4741,-171.9063 1427.027,-156.6392"/>
<polygon fill="#00ff00" stroke="#00ff00" stroke-width=".3703" points="1428.2695,-153.3515 1417.746,-152.1242 1425.2073,-159.6462 1428.2695,-153.3515"/>
</g>
<!-- 220&#45;&gt;832 -->
<g id="edge74" class="edge">
<title>220&#45;&gt;832</title>
<path fill="none" stroke="#00ff00" stroke-width=".2637" d="M1567.2947,-316.1278C1583.017,-302.9785 1606.7884,-283.0973 1624.5853,-268.213"/>
<polygon fill="#00ff00" stroke="#00ff00" stroke-width=".2637" points="1626.866,-270.8683 1632.2915,-261.768 1622.3752,-265.4987 1626.866,-270.8683"/>
</g>
<!-- 639 -->
<g id="node32" class="node">
<title>639</title>
<ellipse fill="#ffffff" stroke="#000000" cx="1588.6703" cy="-248.0696" rx="21.4286" ry="21.4286"/>
<text text-anchor="middle" x="1588.6703" y="-245.8696" font-family="Times,serif" font-size="9.00" fill="#000000">639</text>
</g>
<!-- 639&#45;&gt;counterclockwise -->
<g id="edge69" class="edge">
<title>639&#45;&gt;counterclockwise</title>
<path fill="none" stroke="#00ff00" stroke-width=".2496" d="M1571.5914,-235.1655C1566.0058,-231.1716 1559.6884,-226.8874 1553.6703,-223.3209 1512.4727,-198.9054 1463.8515,-175.276 1426.377,-158.0976"/>
<polygon fill="#00ff00" stroke="#00ff00" stroke-width=".2496" points="1427.6523,-154.8325 1417.101,-153.8726 1424.7507,-161.2029 1427.6523,-154.8325"/>
</g>
</g>
</svg>
