<?xml version="1.0" encoding="UTF-8" standalone="no"?>
<!DOCTYPE svg PUBLIC "-//W3C//DTD SVG 1.1//EN"
 "http://www.w3.org/Graphics/SVG/1.1/DTD/svg11.dtd">
<!-- Generated by graphviz version 2.40.1 (20161225.0304)
 -->
<!-- Title: %3 Pages: 1 -->
<svg width="1437pt" height="298pt"
 viewBox="0.00 0.00 1436.94 298.05" xmlns="http://www.w3.org/2000/svg" xmlns:xlink="http://www.w3.org/1999/xlink">
<g id="graph0" class="graph" transform="scale(1 1) rotate(0) translate(4 294.0488)">
<title>%3</title>
<polygon fill="#ffffff" stroke="transparent" points="-4,4 -4,-294.0488 1432.9408,-294.0488 1432.9408,4 -4,4"/>
<!-- x&#45;vel -->
<g id="node1" class="node">
<title>x&#45;vel</title>
<polygon fill="#d3d3d3" stroke="#000000" points="541.2276,-290.0488 506.2276,-290.0488 506.2276,-272.0488 541.2276,-272.0488 541.2276,-290.0488"/>
<text text-anchor="middle" x="523.7276" y="-278.8488" font-family="Times,serif" font-size="9.00" fill="#000000">x&#45;vel</text>
</g>
<!-- right -->
<g id="node14" class="node">
<title>right</title>
<ellipse fill="#add8e6" stroke="#000000" cx="447.7276" cy="-114.4889" rx="23.1702" ry="23.1702"/>
<text text-anchor="middle" x="447.7276" y="-112.2889" font-family="Times,serif" font-size="9.00" fill="#000000">right</text>
</g>
<!-- x&#45;vel&#45;&gt;right -->
<g id="edge5" class="edge">
<title>x&#45;vel&#45;&gt;right</title>
<path fill="none" stroke="#ff0000" stroke-width=".1336" d="M519.4238,-271.6166C508.4815,-247.6357 479.2228,-183.513 461.6488,-144.9981"/>
<polygon fill="#ff0000" stroke="#ff0000" stroke-width=".1336" points="464.7863,-143.4427 457.4508,-135.798 458.4179,-146.3486 464.7863,-143.4427"/>
</g>
<!-- backward -->
<g id="node17" class="node">
<title>backward</title>
<ellipse fill="#add8e6" stroke="#000000" cx="625.7276" cy="-114.4889" rx="36.125" ry="36.125"/>
<text text-anchor="middle" x="625.7276" y="-112.2889" font-family="Times,serif" font-size="9.00" fill="#000000">backward</text>
</g>
<!-- x&#45;vel&#45;&gt;backward -->
<g id="edge20" class="edge">
<title>x&#45;vel&#45;&gt;backward</title>
<path fill="none" stroke="#ff0000" stroke-width=".1526" stroke-dasharray="1,5" d="M529.5038,-271.6166C543.0423,-249.5091 577.4725,-193.2866 601.2483,-154.4621"/>
<polygon fill="#ff0000" stroke="#ff0000" stroke-width=".1526" points="604.5072,-155.8423 606.7449,-145.4865 598.5376,-152.1866 604.5072,-155.8423"/>
</g>
<!-- 1607 -->
<g id="node18" class="node">
<title>1607</title>
<ellipse fill="#ffffff" stroke="#000000" cx="1305.7276" cy="-211.3" rx="25" ry="25"/>
<text text-anchor="middle" x="1305.7276" y="-209.1" font-family="Times,serif" font-size="9.00" fill="#000000">1607</text>
</g>
<!-- x&#45;vel&#45;&gt;1607 -->
<g id="edge39" class="edge">
<title>x&#45;vel&#45;&gt;1607</title>
<path fill="none" stroke="#ff0000" stroke-width=".2421" d="M541.5387,-279.1212C560.2451,-277.1446 590.5278,-274.0801 616.7276,-272.0488 890.5943,-250.8153 964.228,-289.1882 1233.7276,-236.0488 1246.8984,-233.4518 1260.9511,-229.0201 1273.1129,-224.6182"/>
<polygon fill="#ff0000" stroke="#ff0000" stroke-width=".2421" points="1274.6939,-227.7631 1282.8232,-220.9686 1272.2311,-221.2106 1274.6939,-227.7631"/>
</g>
<!-- y&#45;vel -->
<g id="node2" class="node">
<title>y&#45;vel</title>
<polygon fill="#d3d3d3" stroke="#000000" points="968.2276,-290.0488 933.2276,-290.0488 933.2276,-272.0488 968.2276,-272.0488 968.2276,-290.0488"/>
<text text-anchor="middle" x="950.7276" y="-278.8488" font-family="Times,serif" font-size="9.00" fill="#000000">y&#45;vel</text>
</g>
<!-- forward -->
<g id="node16" class="node">
<title>forward</title>
<ellipse fill="#add8e6" stroke="#000000" cx="931.7276" cy="-114.4889" rx="31.6406" ry="31.6406"/>
<text text-anchor="middle" x="931.7276" y="-112.2889" font-family="Times,serif" font-size="9.00" fill="#000000">forward</text>
</g>
<!-- y&#45;vel&#45;&gt;forward -->
<g id="edge10" class="edge">
<title>y&#45;vel&#45;&gt;forward</title>
<path fill="none" stroke="#ff0000" stroke-width=".3823" d="M956.776,-271.864C962.1692,-263.0847 969.6698,-249.2657 972.7276,-236.0488 977.6863,-214.616 978.3542,-207.8185 972.7276,-186.5513 969.2998,-173.5949 962.9418,-160.5305 956.2386,-149.1506"/>
<polygon fill="#ff0000" stroke="#ff0000" stroke-width=".3823" points="959.0751,-147.0829 950.838,-140.4195 953.1219,-150.7653 959.0751,-147.0829"/>
</g>
<!-- 1746 -->
<g id="node25" class="node">
<title>1746</title>
<ellipse fill="#ffffff" stroke="#000000" cx="905.7276" cy="-211.3" rx="25" ry="25"/>
<text text-anchor="middle" x="905.7276" y="-209.1" font-family="Times,serif" font-size="9.00" fill="#000000">1746</text>
</g>
<!-- y&#45;vel&#45;&gt;1746 -->
<g id="edge37" class="edge">
<title>y&#45;vel&#45;&gt;1746</title>
<path fill="none" stroke="#00ff00" stroke-width=".2236" d="M944.8447,-271.9303C939.7315,-264.0051 932.0314,-252.0702 924.8118,-240.88"/>
<polygon fill="#00ff00" stroke="#00ff00" stroke-width=".2236" points="927.5458,-238.6615 919.1834,-232.1561 921.6637,-242.4565 927.5458,-238.6615"/>
</g>
<!-- x&#45;pos -->
<g id="node3" class="node">
<title>x&#45;pos</title>
<polygon fill="#d3d3d3" stroke="#000000" points="232.7276,-290.0488 196.7276,-290.0488 196.7276,-272.0488 232.7276,-272.0488 232.7276,-290.0488"/>
<text text-anchor="middle" x="214.7276" y="-278.8488" font-family="Times,serif" font-size="9.00" fill="#000000">x&#45;pos</text>
</g>
<!-- none -->
<g id="node13" class="node">
<title>none</title>
<ellipse fill="#add8e6" stroke="#000000" cx="1225.7276" cy="-114.4889" rx="24.0833" ry="24.0833"/>
<text text-anchor="middle" x="1225.7276" y="-112.2889" font-family="Times,serif" font-size="9.00" fill="#000000">none</text>
</g>
<!-- x&#45;pos&#45;&gt;none -->
<g id="edge1" class="edge">
<title>x&#45;pos&#45;&gt;none</title>
<path fill="none" stroke="#00ff00" stroke-width=".182" stroke-dasharray="1,5" d="M232.9345,-278.4424C247.8891,-276.3962 269.6395,-273.6362 288.7276,-272.0488 377.511,-264.6654 1012.1426,-279.8388 1089.7276,-236.0488 1112.753,-223.0529 1104.243,-205.4558 1122.7276,-186.5513 1144.3553,-164.4324 1173.6114,-144.7144 1195.4171,-131.5201"/>
<polygon fill="#00ff00" stroke="#00ff00" stroke-width=".182" points="1197.4448,-134.3869 1204.2622,-126.2768 1193.8753,-128.3653 1197.4448,-134.3869"/>
</g>
<!-- x&#45;pos&#45;&gt;right -->
<g id="edge7" class="edge">
<title>x&#45;pos&#45;&gt;right</title>
<path fill="none" stroke="#00ff00" stroke-width=".4747" stroke-dasharray="1,5" d="M207.5834,-272.0098C194.2474,-253.9709 168.655,-212.9712 188.7276,-186.5513 216.1427,-150.4671 350.9953,-127.6615 414.5168,-118.7525"/>
<polygon fill="#00ff00" stroke="#00ff00" stroke-width=".4747" points="414.9992,-122.2191 424.4315,-117.3939 414.0489,-115.2839 414.9992,-122.2191"/>
</g>
<!-- left -->
<g id="node15" class="node">
<title>left</title>
<ellipse fill="#add8e6" stroke="#000000" cx="399.7276" cy="-211.3" rx="19.6" ry="19.6"/>
<text text-anchor="middle" x="399.7276" y="-209.1" font-family="Times,serif" font-size="9.00" fill="#000000">left</text>
</g>
<!-- x&#45;pos&#45;&gt;left -->
<g id="edge3" class="edge">
<title>x&#45;pos&#45;&gt;left</title>
<path fill="none" stroke="#00ff00" stroke-width=".3368" stroke-dasharray="1,5" d="M232.803,-274.234C265.1026,-262.0564 332.9431,-236.4792 371.4538,-221.9598"/>
<polygon fill="#00ff00" stroke="#00ff00" stroke-width=".3368" points="372.9067,-225.1526 381.0291,-218.3498 370.4372,-218.6027 372.9067,-225.1526"/>
</g>
<!-- x&#45;pos&#45;&gt;backward -->
<g id="edge12" class="edge">
<title>x&#45;pos&#45;&gt;backward</title>
<path fill="none" stroke="#ff0000" stroke-width=".4919" stroke-dasharray="1,5" d="M223.5241,-271.9686C242.3151,-253.1099 288.5219,-209.5464 335.7276,-186.5513 337.1271,-185.8696 499.6142,-145.6601 580.7239,-125.6093"/>
<polygon fill="#ff0000" stroke="#ff0000" stroke-width=".4919" points="581.7976,-128.9494 590.6655,-123.1519 580.1178,-122.1539 581.7976,-128.9494"/>
</g>
<!-- 717 -->
<g id="node22" class="node">
<title>717</title>
<ellipse fill="#ffffff" stroke="#000000" cx="85.7276" cy="-21.2132" rx="21.4286" ry="21.4286"/>
<text text-anchor="middle" x="85.7276" y="-19.0132" font-family="Times,serif" font-size="9.00" fill="#000000">717</text>
</g>
<!-- x&#45;pos&#45;&gt;717 -->
<g id="edge32" class="edge">
<title>x&#45;pos&#45;&gt;717</title>
<path fill="none" stroke="#00ff00" stroke-width=".9427" stroke-dasharray="1,5" d="M205.954,-271.985C197.872,-263.2911 185.9259,-249.5299 177.7276,-236.0488 140.0593,-174.1075 110.1557,-93.9759 95.5277,-51.2198"/>
<polygon fill="#00ff00" stroke="#00ff00" stroke-width=".9427" points="98.8237,-50.0404 92.308,-41.686 92.1916,-52.2802 98.8237,-50.0404"/>
</g>
<!-- 1997 -->
<g id="node23" class="node">
<title>1997</title>
<ellipse fill="#ffffff" stroke="#000000" cx="40.7276" cy="-211.3" rx="25" ry="25"/>
<text text-anchor="middle" x="40.7276" y="-209.1" font-family="Times,serif" font-size="9.00" fill="#000000">1997</text>
</g>
<!-- x&#45;pos&#45;&gt;1997 -->
<g id="edge40" class="edge">
<title>x&#45;pos&#45;&gt;1997</title>
<path fill="none" stroke="#ff0000" stroke-width=".2222" d="M196.7175,-276.5519C170.3177,-269.6286 119.893,-255.135 79.7276,-236.0488 76.5159,-234.5226 73.2466,-232.7825 70.0361,-230.9485"/>
<polygon fill="#ff0000" stroke="#ff0000" stroke-width=".2222" points="71.6088,-227.8094 61.2404,-225.6305 67.987,-233.7996 71.6088,-227.8094"/>
</g>
<!-- x&#45;pos&#45;&gt;1746 -->
<g id="edge44" class="edge">
<title>x&#45;pos&#45;&gt;1746</title>
<path fill="none" stroke="#ff0000" stroke-width=".578" d="M232.942,-278.5278C247.9009,-276.5311 269.6535,-273.796 288.7276,-272.0488 417.9887,-260.2079 749.5932,-280.0013 871.7276,-236.0488 873.9045,-235.2654 876.0633,-234.2968 878.1753,-233.2008"/>
<polygon fill="#ff0000" stroke="#ff0000" stroke-width=".578" points="880.3513,-235.972 887.045,-227.7595 876.6909,-230.0053 880.3513,-235.972"/>
</g>
<!-- 1176 -->
<g id="node26" class="node">
<title>1176</title>
<ellipse fill="#ffffff" stroke="#000000" cx="59.7276" cy="-114.4889" rx="25" ry="25"/>
<text text-anchor="middle" x="59.7276" y="-112.2889" font-family="Times,serif" font-size="9.00" fill="#000000">1176</text>
</g>
<!-- x&#45;pos&#45;&gt;1176 -->
<g id="edge33" class="edge">
<title>x&#45;pos&#45;&gt;1176</title>
<path fill="none" stroke="#00ff00" stroke-width=".1791" stroke-dasharray="1,5" d="M196.4614,-276.6344C175.1607,-270.6568 140.0317,-258.1129 117.7276,-236.0488 93.2583,-211.8428 77.7528,-175.2846 68.9927,-148.5814"/>
<polygon fill="#00ff00" stroke="#00ff00" stroke-width=".1791" points="72.2835,-147.3775 65.9609,-138.876 65.6019,-149.4647 72.2835,-147.3775"/>
</g>
<!-- y&#45;pos -->
<g id="node4" class="node">
<title>y&#45;pos</title>
<polygon fill="#d3d3d3" stroke="#000000" points="333.7276,-290.0488 297.7276,-290.0488 297.7276,-272.0488 333.7276,-272.0488 333.7276,-290.0488"/>
<text text-anchor="middle" x="315.7276" y="-278.8488" font-family="Times,serif" font-size="9.00" fill="#000000">y&#45;pos</text>
</g>
<!-- y&#45;pos&#45;&gt;right -->
<g id="edge19" class="edge">
<title>y&#45;pos&#45;&gt;right</title>
<path fill="none" stroke="#00ff00" stroke-width=".2363" stroke-dasharray="1,5" d="M315.6807,-271.8192C316.0286,-253.7951 319.013,-213.3401 337.7276,-186.5513 357.2345,-158.6284 391.3658,-138.7762 416.45,-127.0715"/>
<polygon fill="#00ff00" stroke="#00ff00" stroke-width=".2363" points="418.2068,-130.1199 425.9056,-122.8412 415.3481,-123.7302 418.2068,-130.1199"/>
</g>
<!-- y&#45;pos&#45;&gt;left -->
<g id="edge26" class="edge">
<title>y&#45;pos&#45;&gt;left</title>
<path fill="none" stroke="#00ff00" stroke-width=".654" stroke-dasharray="1,5" d="M326.7092,-271.9303C339.282,-261.4906 360.2337,-244.0935 376.4773,-230.6057"/>
<polygon fill="#00ff00" stroke="#00ff00" stroke-width=".654" points="379.0156,-233.0474 384.4733,-223.9664 374.5438,-227.6619 379.0156,-233.0474"/>
</g>
<!-- y&#45;pos&#45;&gt;backward -->
<g id="edge6" class="edge">
<title>y&#45;pos&#45;&gt;backward</title>
<path fill="none" stroke="#ff0000" stroke-width=".1928" stroke-dasharray="1,5" d="M320.0144,-271.7769C330.0917,-250.3435 355.5766,-198.2993 370.7276,-186.5513 387.4344,-173.597 511.6166,-142.0933 580.3212,-125.3568"/>
<polygon fill="#ff0000" stroke="#ff0000" stroke-width=".1928" points="581.5491,-128.6604 590.4414,-122.9005 579.898,-121.8579 581.5491,-128.6604"/>
</g>
<!-- 2442 -->
<g id="node21" class="node">
<title>2442</title>
<ellipse fill="#ffffff" stroke="#000000" cx="222.7276" cy="-211.3" rx="25" ry="25"/>
<text text-anchor="middle" x="222.7276" y="-209.1" font-family="Times,serif" font-size="9.00" fill="#000000">2442</text>
</g>
<!-- y&#45;pos&#45;&gt;2442 -->
<g id="edge48" class="edge">
<title>y&#45;pos&#45;&gt;2442</title>
<path fill="none" stroke="#00ff00" stroke-width=".3013" d="M303.5695,-271.9303C290.2835,-261.966 268.5466,-245.6636 250.9571,-232.4717"/>
<polygon fill="#00ff00" stroke="#00ff00" stroke-width=".3013" points="252.8106,-229.4869 242.7106,-226.287 248.6107,-235.087 252.8106,-229.4869"/>
</g>
<!-- x&#45;lm1&#45;vec -->
<g id="node5" class="node">
<title>x&#45;lm1&#45;vec</title>
<polygon fill="#d3d3d3" stroke="#000000" points="119.2276,-290.0488 66.2276,-290.0488 66.2276,-272.0488 119.2276,-272.0488 119.2276,-290.0488"/>
<text text-anchor="middle" x="92.7276" y="-278.8488" font-family="Times,serif" font-size="9.00" fill="#000000">x&#45;lm1&#45;vec</text>
</g>
<!-- x&#45;lm1&#45;vec&#45;&gt;left -->
<g id="edge16" class="edge">
<title>x&#45;lm1&#45;vec&#45;&gt;left</title>
<path fill="none" stroke="#ff0000" stroke-width=".6862" stroke-dasharray="1,5" d="M119.4348,-274.981C176.6841,-261.9743 310.842,-231.4944 370.3774,-217.9683"/>
<polygon fill="#ff0000" stroke="#ff0000" stroke-width=".6862" points="371.2853,-221.3513 380.2613,-215.7227 369.7344,-214.5252 371.2853,-221.3513"/>
</g>
<!-- x&#45;lm1&#45;vec&#45;&gt;1176 -->
<g id="edge45" class="edge">
<title>x&#45;lm1&#45;vec&#45;&gt;1176</title>
<path fill="none" stroke="#ff0000" stroke-width=".3442" d="M66.2084,-275.0466C46.0081,-268.9316 19.5558,-257.2394 6.7276,-236.0488 -12.3149,-204.5928 13.0327,-165.0715 34.7937,-139.7922"/>
<polygon fill="#ff0000" stroke="#ff0000" stroke-width=".3442" points="37.6069,-141.8973 41.6721,-132.1134 32.3928,-137.2268 37.6069,-141.8973"/>
</g>
<!-- y&#45;lm1&#45;vec -->
<g id="node6" class="node">
<title>y&#45;lm1&#45;vec</title>
<polygon fill="#d3d3d3" stroke="#000000" points="408.2276,-290.0488 355.2276,-290.0488 355.2276,-272.0488 408.2276,-272.0488 408.2276,-290.0488"/>
<text text-anchor="middle" x="381.7276" y="-278.8488" font-family="Times,serif" font-size="9.00" fill="#000000">y&#45;lm1&#45;vec</text>
</g>
<!-- y&#45;lm1&#45;vec&#45;&gt;left -->
<g id="edge21" class="edge">
<title>y&#45;lm1&#45;vec&#45;&gt;left</title>
<path fill="none" stroke="#00ff00" stroke-width=".2557" stroke-dasharray="1,5" d="M384.0808,-271.9303C386.1383,-263.9577 389.2429,-251.9276 392.1457,-240.6797"/>
<polygon fill="#00ff00" stroke="#00ff00" stroke-width=".2557" points="395.6089,-241.2661 394.7189,-230.7087 388.831,-239.5168 395.6089,-241.2661"/>
</g>
<!-- x&#45;lm2&#45;vec -->
<g id="node7" class="node">
<title>x&#45;lm2&#45;vec</title>
<polygon fill="#d3d3d3" stroke="#000000" points="679.2276,-290.0488 626.2276,-290.0488 626.2276,-272.0488 679.2276,-272.0488 679.2276,-290.0488"/>
<text text-anchor="middle" x="652.7276" y="-278.8488" font-family="Times,serif" font-size="9.00" fill="#000000">x&#45;lm2&#45;vec</text>
</g>
<!-- x&#45;lm2&#45;vec&#45;&gt;none -->
<g id="edge25" class="edge">
<title>x&#45;lm2&#45;vec&#45;&gt;none</title>
<path fill="none" stroke="#ff0000" stroke-width=".4286" stroke-dasharray="1,5" d="M679.3641,-279.9842C790.7889,-275.4045 1214.6362,-256.676 1233.7276,-236.0488 1255.7348,-212.2712 1248.5397,-173.4233 1239.2109,-146.0548"/>
<polygon fill="#ff0000" stroke="#ff0000" stroke-width=".4286" points="1242.4522,-144.7275 1235.7276,-136.5403 1235.8789,-147.134 1242.4522,-144.7275"/>
</g>
<!-- x&#45;lm2&#45;vec&#45;&gt;right -->
<g id="edge14" class="edge">
<title>x&#45;lm2&#45;vec&#45;&gt;right</title>
<path fill="none" stroke="#00ff00" stroke-width="2.7176" d="M641.4139,-271.8565C609.6482,-246.0473 519.0224,-172.415 473.9045,-135.7573"/>
<polygon fill="#00ff00" stroke="#00ff00" stroke-width="2.7176" points="476.0024,-132.9521 466.0341,-129.3626 471.5882,-138.385 476.0024,-132.9521"/>
</g>
<!-- x&#45;lm2&#45;vec&#45;&gt;left -->
<g id="edge28" class="edge">
<title>x&#45;lm2&#45;vec&#45;&gt;left</title>
<path fill="none" stroke="#ff0000" stroke-width="1.8229" d="M626.1304,-273.7163C578.2791,-260.5243 478.0656,-232.8968 428.6043,-219.2609"/>
<polygon fill="#ff0000" stroke="#ff0000" stroke-width="1.8229" points="429.4278,-215.8575 418.8572,-216.5738 427.5673,-222.6057 429.4278,-215.8575"/>
</g>
<!-- x&#45;lm2&#45;vec&#45;&gt;forward -->
<g id="edge24" class="edge">
<title>x&#45;lm2&#45;vec&#45;&gt;forward</title>
<path fill="none" stroke="#ff0000" stroke-width=".4109" stroke-dasharray="1,5" d="M679.3633,-278.8283C747.2935,-272.8973 922.8435,-255.7865 939.7276,-236.0488 958.8062,-213.7457 954.8499,-179.9026 947.2259,-153.5843"/>
<polygon fill="#ff0000" stroke="#ff0000" stroke-width=".4109" points="950.5175,-152.3847 944.1647,-143.9057 943.8433,-154.4957 950.5175,-152.3847"/>
</g>
<!-- x&#45;lm2&#45;vec&#45;&gt;backward -->
<g id="edge4" class="edge">
<title>x&#45;lm2&#45;vec&#45;&gt;backward</title>
<path fill="none" stroke="#ff0000" stroke-width=".1863" d="M642.7955,-271.7895C634.5584,-263.3785 623.4592,-250.1601 618.7276,-236.0488 610.532,-211.6064 611.7334,-182.8652 615.2386,-159.4679"/>
<polygon fill="#ff0000" stroke="#ff0000" stroke-width=".1863" points="618.7141,-159.9053 616.9231,-149.463 611.8113,-158.7431 618.7141,-159.9053"/>
</g>
<!-- 2411 -->
<g id="node20" class="node">
<title>2411</title>
<ellipse fill="#ffffff" stroke="#000000" cx="652.7276" cy="-211.3" rx="25" ry="25"/>
<text text-anchor="middle" x="652.7276" y="-209.1" font-family="Times,serif" font-size="9.00" fill="#000000">2411</text>
</g>
<!-- x&#45;lm2&#45;vec&#45;&gt;2411 -->
<g id="edge46" class="edge">
<title>x&#45;lm2&#45;vec&#45;&gt;2411</title>
<path fill="none" stroke="#00ff00" stroke-width=".4518" d="M652.7276,-271.9303C652.7276,-265.3136 652.7276,-255.9021 652.7276,-246.4625"/>
<polygon fill="#00ff00" stroke="#00ff00" stroke-width=".4518" points="656.2277,-246.3393 652.7276,-236.3393 649.2277,-246.3393 656.2277,-246.3393"/>
</g>
<!-- 2126 -->
<g id="node24" class="node">
<title>2126</title>
<ellipse fill="#ffffff" stroke="#000000" cx="1199.7276" cy="-211.3" rx="25" ry="25"/>
<text text-anchor="middle" x="1199.7276" y="-209.1" font-family="Times,serif" font-size="9.00" fill="#000000">2126</text>
</g>
<!-- x&#45;lm2&#45;vec&#45;&gt;2126 -->
<g id="edge42" class="edge">
<title>x&#45;lm2&#45;vec&#45;&gt;2126</title>
<path fill="none" stroke="#ff0000" stroke-width=".719" d="M679.4262,-280.3452C770.7757,-277.6805 1070.1688,-266.7547 1160.7276,-236.0488 1164.278,-234.8449 1167.8323,-233.2554 1171.2706,-231.4613"/>
<polygon fill="#ff0000" stroke="#ff0000" stroke-width=".719" points="1173.1445,-234.4202 1180.019,-226.3584 1169.6176,-228.3736 1173.1445,-234.4202"/>
</g>
<!-- y&#45;lm2&#45;vec -->
<g id="node8" class="node">
<title>y&#45;lm2&#45;vec</title>
<polygon fill="#d3d3d3" stroke="#000000" points="863.2276,-220.3 810.2276,-220.3 810.2276,-202.3 863.2276,-202.3 863.2276,-220.3"/>
<text text-anchor="middle" x="836.7276" y="-209.1" font-family="Times,serif" font-size="9.00" fill="#000000">y&#45;lm2&#45;vec</text>
</g>
<!-- y&#45;lm2&#45;vec&#45;&gt;forward -->
<g id="edge27" class="edge">
<title>y&#45;lm2&#45;vec&#45;&gt;forward</title>
<path fill="none" stroke="#00ff00" stroke-width="2.1965" d="M845.8366,-202.0174C858.6848,-188.9243 882.7259,-164.4249 902.1125,-144.6686"/>
<polygon fill="#00ff00" stroke="#00ff00" stroke-width="2.1965" points="904.7758,-146.9517 909.2816,-137.3628 899.7795,-142.0489 904.7758,-146.9517"/>
</g>
<!-- y&#45;lm2&#45;vec&#45;&gt;backward -->
<g id="edge18" class="edge">
<title>y&#45;lm2&#45;vec&#45;&gt;backward</title>
<path fill="none" stroke="#ff0000" stroke-width="1.8878" d="M824.8063,-202.157C817.9826,-197.1695 809.1304,-191.103 800.7276,-186.5513 757.815,-163.3058 705.7857,-142.7752 669.6656,-129.6348"/>
<polygon fill="#ff0000" stroke="#ff0000" stroke-width="1.8878" points="670.515,-126.2208 659.9206,-126.1283 668.145,-132.8074 670.515,-126.2208"/>
</g>
<!-- x&#45;other&#45;vec -->
<g id="node9" class="node">
<title>x&#45;other&#45;vec</title>
<polygon fill="#d3d3d3" stroke="#000000" points="1360.7276,-290.0488 1302.7276,-290.0488 1302.7276,-272.0488 1360.7276,-272.0488 1360.7276,-290.0488"/>
<text text-anchor="middle" x="1331.7276" y="-278.8488" font-family="Times,serif" font-size="9.00" fill="#000000">x&#45;other&#45;vec</text>
</g>
<!-- x&#45;other&#45;vec&#45;&gt;none -->
<g id="edge2" class="edge">
<title>x&#45;other&#45;vec&#45;&gt;none</title>
<path fill="none" stroke="#00ff00" stroke-width=".1121" stroke-dasharray="1,5" d="M1335.6201,-272.0282C1342.5989,-254.3704 1355.1403,-214.5278 1339.7276,-186.5513 1322.6215,-155.5008 1285.8734,-135.972 1258.7007,-125.1975"/>
<polygon fill="#00ff00" stroke="#00ff00" stroke-width=".1121" points="1259.7691,-121.86 1249.1771,-121.6189 1257.3069,-128.4127 1259.7691,-121.86"/>
</g>
<!-- x&#45;other&#45;vec&#45;&gt;backward -->
<g id="edge8" class="edge">
<title>x&#45;other&#45;vec&#45;&gt;backward</title>
<path fill="none" stroke="#00ff00" stroke-width=".4966" stroke-dasharray="1,5" d="M1302.5167,-280.2783C1188.3321,-277.0781 775.928,-263.6899 724.7276,-236.0488 700.3228,-222.8735 704.1364,-208.1411 686.7276,-186.5513 676.9468,-174.4214 666.0185,-161.3633 656.1437,-149.7389"/>
<polygon fill="#00ff00" stroke="#00ff00" stroke-width=".4966" points="658.6539,-147.2884 649.5027,-141.9494 653.3271,-151.8299 658.6539,-147.2884"/>
</g>
<!-- x&#45;other&#45;vec&#45;&gt;1607 -->
<g id="edge35" class="edge">
<title>x&#45;other&#45;vec&#45;&gt;1607</title>
<path fill="none" stroke="#00ff00" stroke-width=".1155" d="M1328.3286,-271.9303C1325.6582,-264.7667 1321.7667,-254.327 1317.9627,-244.1225"/>
<polygon fill="#00ff00" stroke="#00ff00" stroke-width=".1155" points="1321.1578,-242.673 1314.3853,-234.5254 1314.5986,-245.118 1321.1578,-242.673"/>
</g>
<!-- 490 -->
<g id="node19" class="node">
<title>490</title>
<ellipse fill="#ffffff" stroke="#000000" cx="1407.7276" cy="-211.3" rx="21.4286" ry="21.4286"/>
<text text-anchor="middle" x="1407.7276" y="-209.1" font-family="Times,serif" font-size="9.00" fill="#000000">490</text>
</g>
<!-- x&#45;other&#45;vec&#45;&gt;490 -->
<g id="edge29" class="edge">
<title>x&#45;other&#45;vec&#45;&gt;490</title>
<path fill="none" stroke="#00ff00" stroke-width=".2461" stroke-dasharray="1,5" d="M1341.6633,-271.9303C1352.4591,-262.0226 1370.0828,-245.8484 1384.4134,-232.6966"/>
<polygon fill="#00ff00" stroke="#00ff00" stroke-width=".2461" points="1386.9707,-235.1002 1391.9717,-225.76 1382.2376,-229.9429 1386.9707,-235.1002"/>
</g>
<!-- y&#45;other&#45;vec -->
<g id="node10" class="node">
<title>y&#45;other&#45;vec</title>
<polygon fill="#d3d3d3" stroke="#000000" points="791.7276,-220.3 733.7276,-220.3 733.7276,-202.3 791.7276,-202.3 791.7276,-220.3"/>
<text text-anchor="middle" x="762.7276" y="-209.1" font-family="Times,serif" font-size="9.00" fill="#000000">y&#45;other&#45;vec</text>
</g>
<!-- y&#45;other&#45;vec&#45;&gt;right -->
<g id="edge17" class="edge">
<title>y&#45;other&#45;vec&#45;&gt;right</title>
<path fill="none" stroke="#ff0000" stroke-width=".2845" stroke-dasharray="1,5" d="M735.3355,-202.2193C720.8992,-197.4743 702.8814,-191.6161 686.7276,-186.5513 612.9122,-163.4074 525.8379,-137.5031 479.8821,-123.94"/>
<polygon fill="#ff0000" stroke="#ff0000" stroke-width=".2845" points="480.7658,-120.5517 470.1842,-121.0809 478.7863,-127.266 480.7658,-120.5517"/>
</g>
<!-- y&#45;other&#45;vec&#45;&gt;forward -->
<g id="edge13" class="edge">
<title>y&#45;other&#45;vec&#45;&gt;forward</title>
<path fill="none" stroke="#00ff00" stroke-width=".6589" stroke-dasharray="1,5" d="M776.2914,-202.116C783.4733,-197.3427 792.4897,-191.4904 800.7276,-186.5513 831.794,-167.9252 867.9167,-148.1928 894.3523,-134.0948"/>
<polygon fill="#00ff00" stroke="#00ff00" stroke-width=".6589" points="896.086,-137.1371 903.2748,-129.3542 892.8016,-130.9555 896.086,-137.1371"/>
</g>
<!-- y&#45;other&#45;vec&#45;&gt;backward -->
<g id="edge9" class="edge">
<title>y&#45;other&#45;vec&#45;&gt;backward</title>
<path fill="none" stroke="#ff0000" stroke-width=".6143" stroke-dasharray="1,5" d="M749.839,-202.1923C730.257,-188.3546 692.2448,-161.4932 663.4227,-141.1261"/>
<polygon fill="#ff0000" stroke="#ff0000" stroke-width=".6143" points="665.3692,-138.216 655.1826,-135.3033 661.3295,-143.9327 665.3692,-138.216"/>
</g>
<!-- x&#45;other&#45;vel -->
<g id="node11" class="node">
<title>x&#45;other&#45;vel</title>
<polygon fill="#d3d3d3" stroke="#000000" points="482.7276,-290.0488 426.7276,-290.0488 426.7276,-272.0488 482.7276,-272.0488 482.7276,-290.0488"/>
<text text-anchor="middle" x="454.7276" y="-278.8488" font-family="Times,serif" font-size="9.00" fill="#000000">x&#45;other&#45;vel</text>
</g>
<!-- x&#45;other&#45;vel&#45;&gt;none -->
<g id="edge31" class="edge">
<title>x&#45;other&#45;vel&#45;&gt;none</title>
<path fill="none" stroke="#ff0000" stroke-width=".1666" d="M483.0902,-274.3535C487.6309,-273.4603 492.2936,-272.6477 496.7276,-272.0488 634.8144,-253.3958 998.0354,-298.2399 1122.7276,-236.0488 1125.4776,-234.6772 1174.0653,-176.606 1203.5114,-141.2335"/>
<polygon fill="#ff0000" stroke="#ff0000" stroke-width=".1666" points="1206.4859,-143.1308 1210.1908,-133.2048 1201.1046,-138.6539 1206.4859,-143.1308"/>
</g>
<!-- x&#45;other&#45;vel&#45;&gt;right -->
<g id="edge22" class="edge">
<title>x&#45;other&#45;vel&#45;&gt;right</title>
<path fill="none" stroke="#ff0000" stroke-width=".3159" stroke-dasharray="1,5" d="M454.3312,-271.6166C453.3504,-248.2793 450.7719,-186.9257 449.1424,-148.153"/>
<polygon fill="#ff0000" stroke="#ff0000" stroke-width=".3159" points="452.627,-147.7104 448.7101,-137.8662 445.6332,-148.0044 452.627,-147.7104"/>
</g>
<!-- x&#45;other&#45;vel&#45;&gt;left -->
<g id="edge11" class="edge">
<title>x&#45;other&#45;vel&#45;&gt;left</title>
<path fill="none" stroke="#00ff00" stroke-width=".2002" d="M447.5373,-271.9303C440.1805,-262.6007 428.4422,-247.7146 418.4381,-235.0279"/>
<polygon fill="#00ff00" stroke="#00ff00" stroke-width=".2002" points="421.1182,-232.7742 412.1779,-227.089 415.6216,-237.1086 421.1182,-232.7742"/>
</g>
<!-- y&#45;other&#45;vel -->
<g id="node12" class="node">
<title>y&#45;other&#45;vel</title>
<polygon fill="#d3d3d3" stroke="#000000" points="1080.7276,-220.3 1024.7276,-220.3 1024.7276,-202.3 1080.7276,-202.3 1080.7276,-220.3"/>
<text text-anchor="middle" x="1052.7276" y="-209.1" font-family="Times,serif" font-size="9.00" fill="#000000">y&#45;other&#45;vel</text>
</g>
<!-- y&#45;other&#45;vel&#45;&gt;none -->
<g id="edge15" class="edge">
<title>y&#45;other&#45;vel&#45;&gt;none</title>
<path fill="none" stroke="#00ff00" stroke-width=".58" stroke-dasharray="1,5" d="M1067.8282,-202.2563C1075.796,-197.5214 1085.7553,-191.6611 1094.7276,-186.5513 1129.0281,-167.0169 1168.8032,-145.262 1195.4455,-130.8176"/>
<polygon fill="#00ff00" stroke="#00ff00" stroke-width=".58" points="1197.1632,-133.8678 1204.2909,-126.029 1193.8306,-127.7119 1197.1632,-133.8678"/>
</g>
<!-- y&#45;other&#45;vel&#45;&gt;forward -->
<g id="edge23" class="edge">
<title>y&#45;other&#45;vel&#45;&gt;forward</title>
<path fill="none" stroke="#ff0000" stroke-width=".3565" stroke-dasharray="1,5" d="M1041.1256,-202.0174C1023.7255,-188.0957 990.2077,-161.2784 964.8365,-140.979"/>
<polygon fill="#ff0000" stroke="#ff0000" stroke-width=".3565" points="966.911,-138.1564 956.916,-134.6419 962.5378,-143.6223 966.911,-138.1564"/>
</g>
<!-- 1607&#45;&gt;none -->
<g id="edge36" class="edge">
<title>1607&#45;&gt;none</title>
<path fill="none" stroke="#ff0000" stroke-width=".2452" d="M1289.9222,-192.1733C1277.9014,-177.6264 1261.211,-157.4287 1247.8618,-141.2743"/>
<polygon fill="#ff0000" stroke="#ff0000" stroke-width=".2452" points="1250.2961,-138.7256 1241.228,-133.2465 1244.9,-143.1846 1250.2961,-138.7256"/>
</g>
<!-- 490&#45;&gt;none -->
<g id="edge30" class="edge">
<title>490&#45;&gt;none</title>
<path fill="none" stroke="#00ff00" stroke-width=".6088" d="M1390.646,-198.4006C1385.0602,-194.4069 1378.7434,-190.1217 1372.7276,-186.5513 1334.242,-163.7095 1287.4869,-141.7041 1257.1948,-128.1477"/>
<polygon fill="#00ff00" stroke="#00ff00" stroke-width=".6088" points="1258.5295,-124.9109 1247.9695,-124.0527 1255.6895,-131.3089 1258.5295,-124.9109"/>
</g>
<!-- 2411&#45;&gt;backward -->
<g id="edge47" class="edge">
<title>2411&#45;&gt;backward</title>
<path fill="none" stroke="#ff0000" stroke-width=".1281" d="M646.0535,-187.3692C643.6891,-178.8914 640.9456,-169.0545 638.254,-159.4036"/>
<polygon fill="#ff0000" stroke="#ff0000" stroke-width=".1281" points="641.5438,-158.1705 635.486,-149.4784 634.8011,-160.0511 641.5438,-158.1705"/>
</g>
<!-- 2442&#45;&gt;right -->
<g id="edge49" class="edge">
<title>2442&#45;&gt;right</title>
<path fill="none" stroke="#00ff00" stroke-width=".2645" d="M243.3365,-197.1656C249.15,-193.4723 255.5714,-189.6595 261.7276,-186.5513 313.721,-160.301 377.6793,-137.4386 415.4394,-124.8429"/>
<polygon fill="#00ff00" stroke="#00ff00" stroke-width=".2645" points="416.9637,-128.0256 425.3632,-121.5682 414.7701,-121.3782 416.9637,-128.0256"/>
</g>
<!-- 1997&#45;&gt;1176 -->
<g id="edge41" class="edge">
<title>1997&#45;&gt;1176</title>
<path fill="none" stroke="#ff0000" stroke-width=".2776" d="M45.5221,-186.8705C47.7723,-175.405 50.4937,-161.5385 52.95,-149.0232"/>
<polygon fill="#ff0000" stroke="#ff0000" stroke-width=".2776" points="56.4432,-149.3975 54.9347,-138.9106 49.5743,-148.0493 56.4432,-149.3975"/>
</g>
<!-- 2126&#45;&gt;none -->
<g id="edge43" class="edge">
<title>2126&#45;&gt;none</title>
<path fill="none" stroke="#00ff00" stroke-width=".1933" d="M1206.1546,-187.3692C1209.3584,-175.44 1213.2849,-160.8196 1216.7779,-147.8131"/>
<polygon fill="#00ff00" stroke="#00ff00" stroke-width=".1933" points="1220.2507,-148.376 1219.4643,-137.8104 1213.4903,-146.5603 1220.2507,-148.376"/>
</g>
<!-- 1746&#45;&gt;forward -->
<g id="edge38" class="edge">
<title>1746&#45;&gt;forward</title>
<path fill="none" stroke="#00ff00" stroke-width=".1483" d="M912.1546,-187.3692C914.7566,-177.6806 917.8354,-166.2168 920.7715,-155.2842"/>
<polygon fill="#00ff00" stroke="#00ff00" stroke-width=".1483" points="924.1964,-156.0252 923.41,-145.4596 917.436,-154.2095 924.1964,-156.0252"/>
</g>
<!-- 1176&#45;&gt;717 -->
<g id="edge34" class="edge">
<title>1176&#45;&gt;717</title>
<path fill="none" stroke="#00ff00" stroke-width=".6433" stroke-dasharray="1,5" d="M66.4233,-90.4681C69.7475,-78.5422 73.7975,-64.013 77.3278,-51.3479"/>
<polygon fill="#00ff00" stroke="#00ff00" stroke-width=".6433" points="80.7102,-52.2483 80.0238,-41.6757 73.9672,-50.3687 80.7102,-52.2483"/>
</g>
</g>
</svg>
