<?xml version="1.0" encoding="UTF-8" standalone="no"?>
<!DOCTYPE svg PUBLIC "-//W3C//DTD SVG 1.1//EN"
 "http://www.w3.org/Graphics/SVG/1.1/DTD/svg11.dtd">
<!-- Generated by graphviz version 2.40.1 (20161225.0304)
 -->
<!-- Title: %3 Pages: 1 -->
<svg width="2493pt" height="319pt"
 viewBox="0.00 0.00 2493.28 319.26" xmlns="http://www.w3.org/2000/svg" xmlns:xlink="http://www.w3.org/1999/xlink">
<g id="graph0" class="graph" transform="scale(1 1) rotate(0) translate(4 315.262)">
<title>%3</title>
<polygon fill="#ffffff" stroke="transparent" points="-4,4 -4,-315.262 2489.2768,-315.262 2489.2768,4 -4,4"/>
<!-- A_agent -->
<g id="node1" class="node">
<title>A_agent</title>
<polygon fill="#d3d3d3" stroke="#000000" points="391.8896,-311.262 344.8896,-311.262 344.8896,-293.262 391.8896,-293.262 391.8896,-311.262"/>
<text text-anchor="middle" x="368.3896" y="-300.062" font-family="Times,serif" font-size="9.00" fill="#000000">A_agent</text>
</g>
<!-- no_move -->
<g id="node26" class="node">
<title>no_move</title>
<ellipse fill="#add8e6" stroke="#000000" cx="750.3896" cy="-36.0624" rx="35.2113" ry="35.2113"/>
<text text-anchor="middle" x="750.3896" y="-33.8624" font-family="Times,serif" font-size="9.00" fill="#000000">no_move</text>
</g>
<!-- A_agent&#45;&gt;no_move -->
<g id="edge87" class="edge">
<title>A_agent&#45;&gt;no_move</title>
<path fill="none" stroke="#00ff00" stroke-width=".3048" stroke-dasharray="1,5" d="M344.8383,-300.9874C270.0954,-296.7048 41.8821,-281.7126 20.3896,-257.262 5.8657,-240.7391 13.3484,-228.6061 20.3896,-207.7645 38.2163,-154.9986 47.9032,-135.5311 96.3896,-108.1249 200.8349,-49.0887 574.2164,-38.417 704.8583,-36.488"/>
<polygon fill="#00ff00" stroke="#00ff00" stroke-width=".3048" points="704.9769,-39.9868 714.9279,-36.3498 704.8807,-32.9875 704.9769,-39.9868"/>
</g>
<!-- backward -->
<g id="node30" class="node">
<title>backward</title>
<ellipse fill="#add8e6" stroke="#000000" cx="2158.3896" cy="-36.0624" rx="36.125" ry="36.125"/>
<text text-anchor="middle" x="2158.3896" y="-33.8624" font-family="Times,serif" font-size="9.00" fill="#000000">backward</text>
</g>
<!-- A_agent&#45;&gt;backward -->
<g id="edge41" class="edge">
<title>A_agent&#45;&gt;backward</title>
<path fill="none" stroke="#ff0000" stroke-width=".5802" d="M392.1315,-301.3987C538.3661,-296.0516 1311.2907,-267.3503 1333.3896,-257.262 1416.6475,-219.2541 1393.2794,-148.5524 1475.3896,-108.1249 1587.9857,-52.6875 1977.2593,-39.6953 2112.032,-36.8285"/>
<polygon fill="#ff0000" stroke="#ff0000" stroke-width=".5802" points="2112.1112,-40.3277 2122.0377,-36.6245 2111.9684,-33.3292 2112.1112,-40.3277"/>
</g>
<!-- no_turn -->
<g id="node31" class="node">
<title>no_turn</title>
<ellipse fill="#add8e6" stroke="#000000" cx="316.3896" cy="-139.9447" rx="31.2258" ry="31.2258"/>
<text text-anchor="middle" x="316.3896" y="-137.7447" font-family="Times,serif" font-size="9.00" fill="#000000">no_turn</text>
</g>
<!-- A_agent&#45;&gt;no_turn -->
<g id="edge22" class="edge">
<title>A_agent&#45;&gt;no_turn</title>
<path fill="none" stroke="#00ff00" stroke-width=".102" d="M344.7652,-300.8488C271.9885,-296.2575 54.8731,-280.6903 34.3896,-257.262 19.9098,-240.7004 20.024,-224.4252 34.3896,-207.7645 69.8938,-166.588 226.5226,-193.4284 276.3896,-171.7645 279.401,-170.4563 282.3775,-168.8615 285.2663,-167.0903"/>
<polygon fill="#00ff00" stroke="#00ff00" stroke-width=".102" points="287.3531,-169.9031 293.6165,-161.3579 283.3913,-164.1321 287.3531,-169.9031"/>
</g>
<!-- cw -->
<g id="node33" class="node">
<title>cw</title>
<ellipse fill="#add8e6" stroke="#000000" cx="591.3896" cy="-139.9447" rx="19.1842" ry="19.1842"/>
<text text-anchor="middle" x="591.3896" y="-137.7447" font-family="Times,serif" font-size="9.00" fill="#000000">cw</text>
</g>
<!-- A_agent&#45;&gt;cw -->
<g id="edge37" class="edge">
<title>A_agent&#45;&gt;cw</title>
<path fill="none" stroke="#00ff00" stroke-width=".29" stroke-dasharray="1,5" d="M367.4507,-293.1713C366.0668,-274.6739 365.6609,-232.3334 387.3896,-207.7645 388.9063,-206.0496 508.0241,-167.0948 563.5145,-149.0142"/>
<polygon fill="#00ff00" stroke="#00ff00" stroke-width=".29" points="564.6681,-152.3195 573.0926,-145.8947 562.5003,-145.6636 564.6681,-152.3195"/>
</g>
<!-- 517 -->
<g id="node34" class="node">
<title>517</title>
<ellipse fill="#ffffff" stroke="#000000" cx="2098.3896" cy="-232.5132" rx="21.4286" ry="21.4286"/>
<text text-anchor="middle" x="2098.3896" y="-230.3132" font-family="Times,serif" font-size="9.00" fill="#000000">517</text>
</g>
<!-- A_agent&#45;&gt;517 -->
<g id="edge100" class="edge">
<title>A_agent&#45;&gt;517</title>
<path fill="none" stroke="#00ff00" stroke-width=".1342" stroke-dasharray="1,5" d="M392.0968,-301.5176C442.1893,-299.9495 562.4916,-296.2079 663.3896,-293.262 1237.146,-276.5101 1383.2017,-314.0186 1954.3896,-257.262 1993.732,-253.3527 2038.5454,-245.03 2067.585,-239.1169"/>
<polygon fill="#00ff00" stroke="#00ff00" stroke-width=".1342" points="2068.4469,-242.5128 2077.5308,-237.06 2067.0292,-235.6579 2068.4469,-242.5128"/>
</g>
<!-- A_lm -->
<g id="node2" class="node">
<title>A_lm</title>
<polygon fill="#d3d3d3" stroke="#000000" points="1305.8896,-241.5132 1268.8896,-241.5132 1268.8896,-223.5132 1305.8896,-223.5132 1305.8896,-241.5132"/>
<text text-anchor="middle" x="1287.3896" y="-230.3132" font-family="Times,serif" font-size="9.00" fill="#000000">A_lm</text>
</g>
<!-- right -->
<g id="node27" class="node">
<title>right</title>
<ellipse fill="#add8e6" stroke="#000000" cx="1857.3896" cy="-139.9447" rx="23.1702" ry="23.1702"/>
<text text-anchor="middle" x="1857.3896" y="-137.7447" font-family="Times,serif" font-size="9.00" fill="#000000">right</text>
</g>
<!-- A_lm&#45;&gt;right -->
<g id="edge82" class="edge">
<title>A_lm&#45;&gt;right</title>
<path fill="none" stroke="#ff0000" stroke-width=".4382" d="M1306.209,-229.1382C1333.384,-224.2864 1385.2033,-215.1154 1429.3896,-207.7645 1576.2148,-183.3384 1751.7271,-156.1604 1823.893,-145.0728"/>
<polygon fill="#ff0000" stroke="#ff0000" stroke-width=".4382" points="1824.8188,-148.4718 1834.172,-143.495 1823.7567,-141.5528 1824.8188,-148.4718"/>
</g>
<!-- forward -->
<g id="node29" class="node">
<title>forward</title>
<ellipse fill="#add8e6" stroke="#000000" cx="954.3896" cy="-139.9447" rx="31.6406" ry="31.6406"/>
<text text-anchor="middle" x="954.3896" y="-137.7447" font-family="Times,serif" font-size="9.00" fill="#000000">forward</text>
</g>
<!-- A_lm&#45;&gt;forward -->
<g id="edge32" class="edge">
<title>A_lm&#45;&gt;forward</title>
<path fill="none" stroke="#ff0000" stroke-width=".3848" d="M1279.4162,-223.4557C1274.2257,-218.1115 1267.0198,-211.6531 1259.3896,-207.7645 1172.5838,-163.5259 1057.4502,-147.9791 996.4677,-142.6399"/>
<polygon fill="#ff0000" stroke="#ff0000" stroke-width=".3848" points="996.6977,-139.1471 986.4436,-141.8122 996.1216,-146.1233 996.6977,-139.1471"/>
</g>
<!-- ccw -->
<g id="node32" class="node">
<title>ccw</title>
<ellipse fill="#add8e6" stroke="#000000" cx="1252.3896" cy="-139.9447" rx="21.8409" ry="21.8409"/>
<text text-anchor="middle" x="1252.3896" y="-137.7447" font-family="Times,serif" font-size="9.00" fill="#000000">ccw</text>
</g>
<!-- A_lm&#45;&gt;ccw -->
<g id="edge80" class="edge">
<title>A_lm&#45;&gt;ccw</title>
<path fill="none" stroke="#ff0000" stroke-width=".4289" d="M1283.9058,-223.299C1279.245,-210.9721 1270.7563,-188.521 1263.7621,-170.0228"/>
<polygon fill="#ff0000" stroke="#ff0000" stroke-width=".4289" points="1266.9773,-168.6297 1260.1668,-160.5138 1260.4297,-171.1054 1266.9773,-168.6297"/>
</g>
<!-- A_wall -->
<g id="node3" class="node">
<title>A_wall</title>
<polygon fill="#d3d3d3" stroke="#000000" points="180.8896,-241.5132 137.8896,-241.5132 137.8896,-223.5132 180.8896,-223.5132 180.8896,-241.5132"/>
<text text-anchor="middle" x="159.3896" y="-230.3132" font-family="Times,serif" font-size="9.00" fill="#000000">A_wall</text>
</g>
<!-- A_wall&#45;&gt;no_move -->
<g id="edge10" class="edge">
<title>A_wall&#45;&gt;no_move</title>
<path fill="none" stroke="#ff0000" stroke-width=".1188" d="M159.9574,-223.5032C161.9506,-200.1772 170.7309,-137.5856 208.3896,-108.1249 247.3016,-77.6838 581.3586,-49.0969 704.7964,-39.4797"/>
<polygon fill="#ff0000" stroke="#ff0000" stroke-width=".1188" points="705.3398,-42.9482 715.0402,-38.6875 704.8001,-35.969 705.3398,-42.9482"/>
</g>
<!-- A_wall&#45;&gt;forward -->
<g id="edge55" class="edge">
<title>A_wall&#45;&gt;forward</title>
<path fill="none" stroke="#00ff00" stroke-width=".1552" stroke-dasharray="1,5" d="M180.4247,-223.3999C193.886,-217.9638 211.8645,-211.4269 228.3896,-207.7645 398.7683,-170.0046 445.6352,-188.0154 619.3896,-171.7645 724.9065,-161.8957 849.0928,-150.0358 912.5089,-143.9619"/>
<polygon fill="#00ff00" stroke="#00ff00" stroke-width=".1552" points="912.9007,-147.4404 922.5213,-143.0026 912.2331,-140.4724 912.9007,-147.4404"/>
</g>
<!-- A_wall&#45;&gt;no_turn -->
<g id="edge84" class="edge">
<title>A_wall&#45;&gt;no_turn</title>
<path fill="none" stroke="#ff0000" stroke-width=".1377" stroke-dasharray="1,5" d="M171.3601,-223.4596C178.1992,-218.5 187.0505,-212.4318 195.3896,-207.7645 229.7671,-188.5242 242.7037,-192.1914 276.3896,-171.7645 279.0358,-170.1599 281.7034,-168.4019 284.3374,-166.5622"/>
<polygon fill="#ff0000" stroke="#ff0000" stroke-width=".1377" points="286.5957,-169.2457 292.5688,-160.4951 282.4425,-163.6109 286.5957,-169.2457"/>
</g>
<!-- B_agent -->
<g id="node4" class="node">
<title>B_agent</title>
<polygon fill="#d3d3d3" stroke="#000000" points="799.3896,-241.5132 753.3896,-241.5132 753.3896,-223.5132 799.3896,-223.5132 799.3896,-241.5132"/>
<text text-anchor="middle" x="776.3896" y="-230.3132" font-family="Times,serif" font-size="9.00" fill="#000000">B_agent</text>
</g>
<!-- B_agent&#45;&gt;no_move -->
<g id="edge40" class="edge">
<title>B_agent&#45;&gt;no_move</title>
<path fill="none" stroke="#00ff00" stroke-width=".1005" stroke-dasharray="1,5" d="M775.1705,-223.3015C771.8688,-198.3543 762.5845,-128.2046 756.3654,-81.2143"/>
<polygon fill="#00ff00" stroke="#00ff00" stroke-width=".1005" points="759.8314,-80.7259 755.0495,-71.2716 752.8919,-81.6444 759.8314,-80.7259"/>
</g>
<!-- B_agent&#45;&gt;forward -->
<g id="edge45" class="edge">
<title>B_agent&#45;&gt;forward</title>
<path fill="none" stroke="#00ff00" stroke-width=".3835" d="M786.9161,-223.4072C792.9596,-218.4313 800.8297,-212.3641 808.3896,-207.7645 842.969,-186.7258 885.1503,-167.7859 915.2653,-155.3035"/>
<polygon fill="#00ff00" stroke="#00ff00" stroke-width=".3835" points="916.6663,-158.5119 924.5939,-151.4832 914.0134,-152.0341 916.6663,-158.5119"/>
</g>
<!-- B_agent&#45;&gt;ccw -->
<g id="edge89" class="edge">
<title>B_agent&#45;&gt;ccw</title>
<path fill="none" stroke="#ff0000" stroke-width=".4588" stroke-dasharray="1,5" d="M785.3215,-223.4134C791.307,-217.9098 799.6656,-211.2944 808.3896,-207.7645 942.698,-153.4206 989.9739,-198.4056 1132.3896,-171.7645 1163.162,-166.008 1197.6458,-156.5403 1221.723,-149.4258"/>
<polygon fill="#ff0000" stroke="#ff0000" stroke-width=".4588" points="1222.7881,-152.7605 1231.3635,-146.5385 1220.7797,-146.0548 1222.7881,-152.7605"/>
</g>
<!-- B_agent&#45;&gt;cw -->
<g id="edge15" class="edge">
<title>B_agent&#45;&gt;cw</title>
<path fill="none" stroke="#ff0000" stroke-width=".1212" d="M765.5203,-223.3873C759.2835,-218.4051 751.1678,-212.3383 743.3896,-207.7645 701.9881,-183.4189 650.2733,-162.0978 619.0896,-150.1365"/>
<polygon fill="#ff0000" stroke="#ff0000" stroke-width=".1212" points="619.9374,-146.7151 609.3459,-146.4481 617.4591,-153.2618 619.9374,-146.7151"/>
</g>
<!-- B_lm -->
<g id="node5" class="node">
<title>B_lm</title>
<polygon fill="#d3d3d3" stroke="#000000" points="274.8896,-241.5132 237.8896,-241.5132 237.8896,-223.5132 274.8896,-223.5132 274.8896,-241.5132"/>
<text text-anchor="middle" x="256.3896" y="-230.3132" font-family="Times,serif" font-size="9.00" fill="#000000">B_lm</text>
</g>
<!-- B_lm&#45;&gt;no_move -->
<g id="edge28" class="edge">
<title>B_lm&#45;&gt;no_move</title>
<path fill="none" stroke="#00ff00" stroke-width=".2819" d="M265.3318,-223.1103C270.3441,-218.1625 276.8821,-212.2169 283.3896,-207.7645 313.2455,-187.3374 326.0203,-191.4202 356.3896,-171.7645 393.6619,-147.6411 393.5501,-127.72 433.3896,-108.1249 523.3404,-63.8826 641.0656,-46.3431 704.7272,-39.7499"/>
<polygon fill="#00ff00" stroke="#00ff00" stroke-width=".2819" points="705.2364,-43.2167 714.8426,-38.7479 704.5463,-36.2508 705.2364,-43.2167"/>
</g>
<!-- B_lm&#45;&gt;backward -->
<g id="edge86" class="edge">
<title>B_lm&#45;&gt;backward</title>
<path fill="none" stroke="#ff0000" stroke-width=".405" stroke-dasharray="1,5" d="M263.3668,-223.4975C268.2902,-217.8782 275.4117,-211.102 283.3896,-207.7645 429.5403,-146.6231 839.0524,-197.3955 995.3896,-171.7645 1098.3657,-154.8819 1118.6439,-126.3569 1221.3896,-108.1249 1395.6775,-77.1978 1947.6787,-46.9268 2111.8797,-38.4185"/>
<polygon fill="#ff0000" stroke="#ff0000" stroke-width=".405" points="2112.3201,-41.9005 2122.1264,-37.8897 2111.9593,-34.9098 2112.3201,-41.9005"/>
</g>
<!-- B_lm&#45;&gt;no_turn -->
<g id="edge30" class="edge">
<title>B_lm&#45;&gt;no_turn</title>
<path fill="none" stroke="#00ff00" stroke-width=".5577" stroke-dasharray="1,5" d="M262.362,-223.299C269.6315,-212.0835 282.3332,-192.4874 293.5949,-175.1126"/>
<polygon fill="#00ff00" stroke="#00ff00" stroke-width=".5577" points="296.8144,-176.5805 299.3165,-166.2854 290.9403,-172.7731 296.8144,-176.5805"/>
</g>
<!-- B_lm&#45;&gt;cw -->
<g id="edge12" class="edge">
<title>B_lm&#45;&gt;cw</title>
<path fill="none" stroke="#ff0000" stroke-width=".8962" stroke-dasharray="1,5" d="M264.015,-223.4433C268.9963,-218.0944 275.942,-211.6355 283.3896,-207.7645 308.2278,-194.8547 489.9294,-159.2921 562.028,-145.5067"/>
<polygon fill="#ff0000" stroke="#ff0000" stroke-width=".8962" points="563.0614,-148.8728 572.229,-143.5618 561.7504,-141.9966 563.0614,-148.8728"/>
</g>
<!-- 1710 -->
<g id="node41" class="node">
<title>1710</title>
<ellipse fill="#ffffff" stroke="#000000" cx="242.3896" cy="-139.9447" rx="25" ry="25"/>
<text text-anchor="middle" x="242.3896" y="-137.7447" font-family="Times,serif" font-size="9.00" fill="#000000">1710</text>
</g>
<!-- B_lm&#45;&gt;1710 -->
<g id="edge122" class="edge">
<title>B_lm&#45;&gt;1710</title>
<path fill="none" stroke="#00ff00" stroke-width=".4033" d="M254.9961,-223.299C253.2847,-211.9835 250.2832,-192.1371 247.6382,-174.6482"/>
<polygon fill="#00ff00" stroke="#00ff00" stroke-width=".4033" points="251.0906,-174.0699 246.1345,-164.7057 244.1693,-175.1167 251.0906,-174.0699"/>
</g>
<!-- B_wall -->
<g id="node6" class="node">
<title>B_wall</title>
<polygon fill="#d3d3d3" stroke="#000000" points="1718.3896,-241.5132 1676.3896,-241.5132 1676.3896,-223.5132 1718.3896,-223.5132 1718.3896,-241.5132"/>
<text text-anchor="middle" x="1697.3896" y="-230.3132" font-family="Times,serif" font-size="9.00" fill="#000000">B_wall</text>
</g>
<!-- left -->
<g id="node28" class="node">
<title>left</title>
<ellipse fill="#add8e6" stroke="#000000" cx="1504.3896" cy="-139.9447" rx="19.6" ry="19.6"/>
<text text-anchor="middle" x="1504.3896" y="-137.7447" font-family="Times,serif" font-size="9.00" fill="#000000">left</text>
</g>
<!-- B_wall&#45;&gt;left -->
<g id="edge106" class="edge">
<title>B_wall&#45;&gt;left</title>
<path fill="none" stroke="#ff0000" stroke-width=".2911" stroke-dasharray="1,5" d="M1685.8089,-223.3932C1679.1777,-218.4129 1670.5712,-212.3459 1662.3896,-207.7645 1619.1463,-183.5494 1565.5353,-162.2172 1533.1941,-150.214"/>
<polygon fill="#ff0000" stroke="#ff0000" stroke-width=".2911" points="1534.0749,-146.8091 1523.4812,-146.6528 1531.6652,-153.3813 1534.0749,-146.8091"/>
</g>
<!-- C_agent -->
<g id="node7" class="node">
<title>C_agent</title>
<polygon fill="#d3d3d3" stroke="#000000" points="1037.3896,-241.5132 991.3896,-241.5132 991.3896,-223.5132 1037.3896,-223.5132 1037.3896,-241.5132"/>
<text text-anchor="middle" x="1014.3896" y="-230.3132" font-family="Times,serif" font-size="9.00" fill="#000000">C_agent</text>
</g>
<!-- C_agent&#45;&gt;no_move -->
<g id="edge6" class="edge">
<title>C_agent&#45;&gt;no_move</title>
<path fill="none" stroke="#ff0000" stroke-width=".3922" d="M1015.986,-223.3554C1019.3676,-200.7459 1024.7133,-141.6834 995.3896,-108.1249 969.1366,-78.0804 858.6999,-54.6626 795.4263,-43.404"/>
<polygon fill="#ff0000" stroke="#ff0000" stroke-width=".3922" points="795.7734,-39.9116 785.3201,-41.6377 794.5682,-46.8071 795.7734,-39.9116"/>
</g>
<!-- C_agent&#45;&gt;left -->
<g id="edge61" class="edge">
<title>C_agent&#45;&gt;left</title>
<path fill="none" stroke="#00ff00" stroke-width=".3928" d="M1023.3335,-223.443C1029.3239,-217.9512 1037.6833,-211.3378 1046.3896,-207.7645 1169.3982,-157.278 1212.0771,-192.6693 1343.3896,-171.7645 1389.3992,-164.4398 1442.3179,-153.4903 1474.5485,-146.5349"/>
<polygon fill="#00ff00" stroke="#00ff00" stroke-width=".3928" points="1475.6175,-149.8844 1484.6459,-144.3403 1474.1307,-143.0441 1475.6175,-149.8844"/>
</g>
<!-- C_agent&#45;&gt;forward -->
<g id="edge57" class="edge">
<title>C_agent&#45;&gt;forward</title>
<path fill="none" stroke="#ff0000" stroke-width=".2163" d="M1008.4173,-223.299C1001.1982,-212.1614 988.6223,-192.7591 977.4192,-175.4749"/>
<polygon fill="#ff0000" stroke="#ff0000" stroke-width=".2163" points="980.0976,-173.1722 971.7215,-166.6844 974.2236,-176.9796 980.0976,-173.1722"/>
</g>
<!-- C_agent&#45;&gt;no_turn -->
<g id="edge81" class="edge">
<title>C_agent&#45;&gt;no_turn</title>
<path fill="none" stroke="#ff0000" stroke-width=".1884" d="M991.183,-228.2076C962.4291,-222.9588 911.9048,-214.0167 868.3896,-207.7645 733.2805,-188.3522 698.8582,-188.4848 563.3896,-171.7645 491.0306,-162.8336 406.8278,-151.8621 357.7796,-145.4133"/>
<polygon fill="#ff0000" stroke="#ff0000" stroke-width=".1884" points="357.9405,-141.9044 347.5692,-144.0694 357.0269,-148.8445 357.9405,-141.9044"/>
</g>
<!-- C_agent&#45;&gt;ccw -->
<g id="edge95" class="edge">
<title>C_agent&#45;&gt;ccw</title>
<path fill="none" stroke="#ff0000" stroke-width=".1048" d="M1024.4349,-223.3011C1030.45,-218.168 1038.45,-211.9808 1046.3896,-207.7645 1104.4829,-176.9141 1179.219,-156.5866 1220.8312,-146.7865"/>
<polygon fill="#ff0000" stroke="#ff0000" stroke-width=".1048" points="1221.707,-150.1765 1230.6666,-144.5218 1220.1362,-143.355 1221.707,-150.1765"/>
</g>
<!-- C_lm -->
<g id="node8" class="node">
<title>C_lm</title>
<polygon fill="#d3d3d3" stroke="#000000" points="1475.8896,-241.5132 1438.8896,-241.5132 1438.8896,-223.5132 1475.8896,-223.5132 1475.8896,-241.5132"/>
<text text-anchor="middle" x="1457.3896" y="-230.3132" font-family="Times,serif" font-size="9.00" fill="#000000">C_lm</text>
</g>
<!-- C_lm&#45;&gt;no_move -->
<g id="edge70" class="edge">
<title>C_lm&#45;&gt;no_move</title>
<path fill="none" stroke="#ff0000" stroke-width="1.2429" d="M1452.1835,-223.2895C1438.1698,-199.4479 1397.0539,-135.7188 1343.3896,-108.1249 1247.722,-58.9331 917.6872,-42.1451 795.9557,-37.547"/>
<polygon fill="#ff0000" stroke="#ff0000" stroke-width="1.2429" points="795.9756,-34.0454 785.8537,-37.1755 795.7183,-41.0407 795.9756,-34.0454"/>
</g>
<!-- C_lm&#45;&gt;right -->
<g id="edge11" class="edge">
<title>C_lm&#45;&gt;right</title>
<path fill="none" stroke="#ff0000" stroke-width=".3861" d="M1476.1663,-227.9949C1496.9849,-222.9969 1531.5685,-214.7289 1561.3896,-207.7645 1656.8863,-185.4622 1769.8817,-159.7638 1824.528,-147.3794"/>
<polygon fill="#ff0000" stroke="#ff0000" stroke-width=".3861" points="1825.3667,-150.7781 1834.3463,-145.1552 1823.8201,-143.9511 1825.3667,-150.7781"/>
</g>
<!-- C_lm&#45;&gt;left -->
<g id="edge63" class="edge">
<title>C_lm&#45;&gt;left</title>
<path fill="none" stroke="#ff0000" stroke-width=".557" d="M1462.068,-223.299C1468.7023,-210.2325 1481.1122,-185.7907 1490.7853,-166.7391"/>
<polygon fill="#ff0000" stroke="#ff0000" stroke-width=".557" points="1494.0062,-168.1263 1495.4127,-157.6252 1487.7646,-164.9572 1494.0062,-168.1263"/>
</g>
<!-- C_lm&#45;&gt;ccw -->
<g id="edge36" class="edge">
<title>C_lm&#45;&gt;ccw</title>
<path fill="none" stroke="#00ff00" stroke-width=".1547" d="M1438.8218,-226.046C1394.0561,-210.4518 1283.8197,-172.0385 1283.3896,-171.7645 1279.9746,-169.5891 1276.6564,-166.9678 1273.5391,-164.1748"/>
<polygon fill="#00ff00" stroke="#00ff00" stroke-width=".1547" points="1275.852,-161.5408 1266.263,-157.035 1270.9493,-166.5371 1275.852,-161.5408"/>
</g>
<!-- C_wall -->
<g id="node9" class="node">
<title>C_wall</title>
<polygon fill="#d3d3d3" stroke="#000000" points="859.3896,-241.5132 817.3896,-241.5132 817.3896,-223.5132 859.3896,-223.5132 859.3896,-241.5132"/>
<text text-anchor="middle" x="838.3896" y="-230.3132" font-family="Times,serif" font-size="9.00" fill="#000000">C_wall</text>
</g>
<!-- C_wall&#45;&gt;right -->
<g id="edge38" class="edge">
<title>C_wall&#45;&gt;right</title>
<path fill="none" stroke="#ff0000" stroke-width=".3381" stroke-dasharray="1,5" d="M859.7564,-228.1179C887.7852,-222.5188 938.5574,-212.9485 982.3896,-207.7645 1226.1021,-178.9406 1288.7946,-191.7603 1533.3896,-171.7645 1639.4535,-163.0937 1764.7616,-149.9652 1823.6344,-143.6262"/>
<polygon fill="#ff0000" stroke="#ff0000" stroke-width=".3381" points="1824.2684,-147.0782 1833.8345,-142.5242 1823.5164,-140.1187 1824.2684,-147.0782"/>
</g>
<!-- C_wall&#45;&gt;forward -->
<g id="edge2" class="edge">
<title>C_wall&#45;&gt;forward</title>
<path fill="none" stroke="#00ff00" stroke-width=".2856" stroke-dasharray="1,5" d="M849.9363,-223.299C866.4118,-210.1514 897.3196,-185.4869 921.2567,-166.385"/>
<polygon fill="#00ff00" stroke="#00ff00" stroke-width=".2856" points="923.4431,-169.1181 929.0763,-160.1449 919.0769,-163.6466 923.4431,-169.1181"/>
</g>
<!-- C_wall&#45;&gt;no_turn -->
<g id="edge25" class="edge">
<title>C_wall&#45;&gt;no_turn</title>
<path fill="none" stroke="#00ff00" stroke-width=".2164" d="M829.8373,-223.2387C824.2724,-217.8127 816.5514,-211.3447 808.3896,-207.7645 798.0302,-203.2203 473.8562,-160.5287 357.4755,-145.3052"/>
<polygon fill="#00ff00" stroke="#00ff00" stroke-width=".2164" points="357.8895,-141.8296 347.5201,-144.0037 356.982,-148.7706 357.8895,-141.8296"/>
</g>
<!-- C_wall&#45;&gt;ccw -->
<g id="edge53" class="edge">
<title>C_wall&#45;&gt;ccw</title>
<path fill="none" stroke="#ff0000" stroke-width=".1851" stroke-dasharray="1,5" d="M859.5111,-228.566C907.9458,-219.4233 1030.6765,-195.7388 1132.3896,-171.7645 1162.8608,-164.5823 1197.3852,-155.3067 1221.5539,-148.6253"/>
<polygon fill="#ff0000" stroke="#ff0000" stroke-width=".1851" points="1222.5383,-151.9844 1231.2359,-145.9343 1220.6638,-145.2401 1222.5383,-151.9844"/>
</g>
<!-- C_wall&#45;&gt;cw -->
<g id="edge4" class="edge">
<title>C_wall&#45;&gt;cw</title>
<path fill="none" stroke="#00ff00" stroke-width=".13" d="M829.3504,-223.4666C823.7235,-218.2612 816.1079,-211.9445 808.3896,-207.7645 745.6772,-173.8015 663.3884,-153.9957 620.399,-145.2818"/>
<polygon fill="#00ff00" stroke="#00ff00" stroke-width=".13" points="620.8399,-141.8015 610.352,-143.3035 619.4874,-148.6696 620.8399,-141.8015"/>
</g>
<!-- D_agent -->
<g id="node10" class="node">
<title>D_agent</title>
<polygon fill="#d3d3d3" stroke="#000000" points="1944.8896,-241.5132 1897.8896,-241.5132 1897.8896,-223.5132 1944.8896,-223.5132 1944.8896,-241.5132"/>
<text text-anchor="middle" x="1921.3896" y="-230.3132" font-family="Times,serif" font-size="9.00" fill="#000000">D_agent</text>
</g>
<!-- D_agent&#45;&gt;no_move -->
<g id="edge83" class="edge">
<title>D_agent&#45;&gt;no_move</title>
<path fill="none" stroke="#00ff00" stroke-width=".3825" d="M1922.255,-223.4822C1923.9365,-200.1057 1924.7846,-137.4026 1889.3896,-108.1249 1846.5503,-72.6894 1003.1112,-43.9911 796.012,-37.4598"/>
<polygon fill="#00ff00" stroke="#00ff00" stroke-width=".3825" points="795.8991,-33.9547 785.7942,-37.1393 795.6795,-40.9512 795.8991,-33.9547"/>
</g>
<!-- D_agent&#45;&gt;right -->
<g id="edge21" class="edge">
<title>D_agent&#45;&gt;right</title>
<path fill="none" stroke="#ff0000" stroke-width=".4704" stroke-dasharray="1,5" d="M1915.0191,-223.299C1906.1356,-210.4501 1889.6472,-186.6015 1876.5758,-167.6952"/>
<polygon fill="#ff0000" stroke="#ff0000" stroke-width=".4704" points="1879.4159,-165.6486 1870.85,-159.4136 1873.6581,-169.6295 1879.4159,-165.6486"/>
</g>
<!-- D_agent&#45;&gt;left -->
<g id="edge14" class="edge">
<title>D_agent&#45;&gt;left</title>
<path fill="none" stroke="#ff0000" stroke-width=".1105" d="M1912.1072,-223.3576C1906.1112,-217.9764 1897.8683,-211.5137 1889.3896,-207.7645 1825.2154,-179.3875 1613.536,-152.6058 1534.5022,-143.3555"/>
<polygon fill="#ff0000" stroke="#ff0000" stroke-width=".1105" points="1534.5962,-139.843 1524.2597,-142.1682 1533.7902,-146.7965 1534.5962,-139.843"/>
</g>
<!-- D_agent&#45;&gt;backward -->
<g id="edge27" class="edge">
<title>D_agent&#45;&gt;backward</title>
<path fill="none" stroke="#00ff00" stroke-width=".249" stroke-dasharray="1,5" d="M1933.1885,-223.3494C1948.0178,-211.7145 1974.1065,-190.8533 1995.3896,-171.7645 2025.4873,-144.77 2029.5831,-134.3074 2060.3896,-108.1249 2079.368,-91.9952 2101.6593,-75.4328 2120.1831,-62.2597"/>
<polygon fill="#00ff00" stroke="#00ff00" stroke-width=".249" points="2122.2506,-65.0845 2128.4035,-56.4594 2118.2149,-59.3649 2122.2506,-65.0845"/>
</g>
<!-- D_agent&#45;&gt;no_turn -->
<g id="edge79" class="edge">
<title>D_agent&#45;&gt;no_turn</title>
<path fill="none" stroke="#ff0000" stroke-width=".3881" stroke-dasharray="1,5" d="M1912.8177,-223.4133C1906.8547,-217.7585 1898.3857,-210.9744 1889.3896,-207.7645 1750.5738,-158.2341 710.3334,-183.1949 563.3896,-171.7645 490.7012,-166.1103 406.6029,-154.0988 357.6645,-146.5584"/>
<polygon fill="#ff0000" stroke="#ff0000" stroke-width=".3881" points="357.8971,-143.0526 347.4782,-144.975 356.8219,-149.9695 357.8971,-143.0526"/>
</g>
<!-- D_agent&#45;&gt;ccw -->
<g id="edge94" class="edge">
<title>D_agent&#45;&gt;ccw</title>
<path fill="none" stroke="#00ff00" stroke-width=".5233" stroke-dasharray="1,5" d="M1912.7829,-223.5085C1906.8052,-217.8939 1898.3329,-211.1187 1889.3896,-207.7645 1763.0775,-160.39 1406.0751,-227.8662 1283.3896,-171.7645 1279.6306,-170.0456 1276.0868,-167.6518 1272.8329,-164.941"/>
<polygon fill="#00ff00" stroke="#00ff00" stroke-width=".5233" points="1275.0106,-162.1786 1265.3841,-157.7536 1270.15,-167.216 1275.0106,-162.1786"/>
</g>
<!-- 1799 -->
<g id="node37" class="node">
<title>1799</title>
<ellipse fill="#ffffff" stroke="#000000" cx="1961.3896" cy="-139.9447" rx="25" ry="25"/>
<text text-anchor="middle" x="1961.3896" y="-137.7447" font-family="Times,serif" font-size="9.00" fill="#000000">1799</text>
</g>
<!-- D_agent&#45;&gt;1799 -->
<g id="edge124" class="edge">
<title>D_agent&#45;&gt;1799</title>
<path fill="none" stroke="#00ff00" stroke-width=".3232" d="M1925.3712,-223.299C1930.4732,-211.4919 1939.5888,-190.3966 1947.3726,-172.383"/>
<polygon fill="#00ff00" stroke="#00ff00" stroke-width=".3232" points="1950.7722,-173.3391 1951.5261,-162.7711 1944.3465,-170.5624 1950.7722,-173.3391"/>
</g>
<!-- D_lm -->
<g id="node11" class="node">
<title>D_lm</title>
<polygon fill="#d3d3d3" stroke="#000000" points="1832.8896,-311.262 1795.8896,-311.262 1795.8896,-293.262 1832.8896,-293.262 1832.8896,-311.262"/>
<text text-anchor="middle" x="1814.3896" y="-300.062" font-family="Times,serif" font-size="9.00" fill="#000000">D_lm</text>
</g>
<!-- D_lm&#45;&gt;right -->
<g id="edge102" class="edge">
<title>D_lm&#45;&gt;right</title>
<path fill="none" stroke="#00ff00" stroke-width=".3652" d="M1832.9564,-301.1921C1879.8735,-298.0625 2001.18,-287.1793 2025.3896,-257.262 2039.2282,-240.1609 2037.9808,-225.8037 2025.3896,-207.7645 1998.8316,-169.7151 1970.3182,-189.3777 1927.3896,-171.7645 1914.3311,-166.4067 1900.1183,-160.0466 1887.9323,-154.4261"/>
<polygon fill="#00ff00" stroke="#00ff00" stroke-width=".3652" points="1889.198,-151.1548 1878.6548,-150.1104 1886.2456,-157.5017 1889.198,-151.1548"/>
</g>
<!-- D_lm&#45;&gt;left -->
<g id="edge71" class="edge">
<title>D_lm&#45;&gt;left</title>
<path fill="none" stroke="#00ff00" stroke-width=".4367" stroke-dasharray="1,5" d="M1815.5109,-293.0024C1817.2312,-274.1934 1818.225,-231.3084 1795.3896,-207.7645 1793.0714,-205.3744 1607.1432,-163.1609 1533.7318,-146.5663"/>
<polygon fill="#00ff00" stroke="#00ff00" stroke-width=".4367" points="1534.2777,-143.1015 1523.7522,-144.3116 1532.735,-149.9294 1534.2777,-143.1015"/>
</g>
<!-- D_lm&#45;&gt;backward -->
<g id="edge69" class="edge">
<title>D_lm&#45;&gt;backward</title>
<path fill="none" stroke="#ff0000" stroke-width=".1394" stroke-dasharray="1,5" d="M1832.9392,-302.0442C1919.7564,-300.8367 2283.139,-293.6266 2316.3896,-257.262 2361.1177,-208.3451 2352.2387,-163.877 2316.3896,-108.1249 2291.8715,-69.9945 2241.6471,-51.7957 2204.3723,-43.2691"/>
<polygon fill="#ff0000" stroke="#ff0000" stroke-width=".1394" points="2204.7439,-39.7699 2194.2345,-41.1122 2203.2871,-46.6167 2204.7439,-39.7699"/>
</g>
<!-- D_lm&#45;&gt;cw -->
<g id="edge49" class="edge">
<title>D_lm&#45;&gt;cw</title>
<path fill="none" stroke="#00ff00" stroke-width=".3853" stroke-dasharray="1,5" d="M1795.6789,-299.7212C1779.4911,-297.6275 1755.4405,-294.7666 1734.3896,-293.262 1669.3582,-288.6138 606.7785,-304.0652 561.3896,-257.262 537.0384,-232.1519 557.0129,-190.1252 573.9819,-163.7781"/>
<polygon fill="#00ff00" stroke="#00ff00" stroke-width=".3853" points="577.0986,-165.4158 579.7811,-155.1661 571.2923,-161.5058 577.0986,-165.4158"/>
</g>
<!-- 714 -->
<g id="node43" class="node">
<title>714</title>
<ellipse fill="#ffffff" stroke="#000000" cx="591.3896" cy="-232.5132" rx="21.4286" ry="21.4286"/>
<text text-anchor="middle" x="591.3896" y="-230.3132" font-family="Times,serif" font-size="9.00" fill="#000000">714</text>
</g>
<!-- D_lm&#45;&gt;714 -->
<g id="edge103" class="edge">
<title>D_lm&#45;&gt;714</title>
<path fill="none" stroke="#00ff00" stroke-width=".2267" stroke-dasharray="1,5" d="M1795.6783,-299.73C1779.4901,-297.6418 1755.4392,-294.784 1734.3896,-293.262 1610.9805,-284.3386 737.1434,-300.9714 621.3896,-257.262 619.1828,-256.4287 617.0195,-255.3618 614.9291,-254.1408"/>
<polygon fill="#00ff00" stroke="#00ff00" stroke-width=".2267" points="616.5049,-250.968 606.321,-248.0459 612.4598,-256.681 616.5049,-250.968"/>
</g>
<!-- D_wall -->
<g id="node12" class="node">
<title>D_wall</title>
<polygon fill="#d3d3d3" stroke="#000000" points="1302.8896,-311.262 1259.8896,-311.262 1259.8896,-293.262 1302.8896,-293.262 1302.8896,-311.262"/>
<text text-anchor="middle" x="1281.3896" y="-300.062" font-family="Times,serif" font-size="9.00" fill="#000000">D_wall</text>
</g>
<!-- D_wall&#45;&gt;left -->
<g id="edge47" class="edge">
<title>D_wall&#45;&gt;left</title>
<path fill="none" stroke="#00ff00" stroke-width=".1555" d="M1302.9891,-301.5359C1356.1654,-299.2487 1491.0789,-290.2462 1518.3896,-257.262 1539.1532,-232.185 1528.7877,-193.1057 1517.9121,-167.0272"/>
<polygon fill="#00ff00" stroke="#00ff00" stroke-width=".1555" points="1521.0392,-165.445 1513.7828,-157.7252 1514.6412,-168.2852 1521.0392,-165.445"/>
</g>
<!-- D_wall&#45;&gt;forward -->
<g id="edge29" class="edge">
<title>D_wall&#45;&gt;forward</title>
<path fill="none" stroke="#00ff00" stroke-width=".3035" stroke-dasharray="1,5" d="M1259.8651,-301.2767C1184.3344,-297.6022 934.6659,-283.5406 911.3896,-257.262 889.9749,-233.0849 908.0138,-197.348 926.8583,-171.6752"/>
<polygon fill="#00ff00" stroke="#00ff00" stroke-width=".3035" points="929.6497,-173.7867 932.9559,-163.7209 924.0942,-169.528 929.6497,-173.7867"/>
</g>
<!-- D_wall&#45;&gt;backward -->
<g id="edge18" class="edge">
<title>D_wall&#45;&gt;backward</title>
<path fill="none" stroke="#00ff00" stroke-width=".3857" stroke-dasharray="1,5" d="M1302.9532,-301.6C1438.947,-297.3757 2172.6134,-273.8403 2188.3896,-257.262 2234.194,-209.1288 2205.1894,-126.2521 2181.0343,-76.7588"/>
<polygon fill="#00ff00" stroke="#00ff00" stroke-width=".3857" points="2184.0619,-74.9886 2176.4457,-67.6236 2177.8067,-78.1306 2184.0619,-74.9886"/>
</g>
<!-- D_wall&#45;&gt;no_turn -->
<g id="edge109" class="edge">
<title>D_wall&#45;&gt;no_turn</title>
<path fill="none" stroke="#ff0000" stroke-width=".7182" d="M1259.8064,-301.7502C1111.3641,-298.181 246.904,-276.5844 228.3896,-257.262 213.1698,-241.3778 218.5514,-227.4409 228.3896,-207.7645 240.3153,-183.9131 255.2864,-188.0667 276.3896,-171.7645 278.7597,-169.9336 281.2001,-168.0325 283.651,-166.1113"/>
<polygon fill="#ff0000" stroke="#ff0000" stroke-width=".7182" points="286.2533,-168.5166 291.9381,-159.576 281.9187,-163.0201 286.2533,-168.5166"/>
</g>
<!-- D_wall&#45;&gt;cw -->
<g id="edge76" class="edge">
<title>D_wall&#45;&gt;cw</title>
<path fill="none" stroke="#00ff00" stroke-width=".28" stroke-dasharray="1,5" d="M1259.8159,-301.8612C1135.7348,-299.4537 517.5761,-286.039 490.3896,-257.262 475.2823,-241.2708 480.0416,-227.1776 490.3896,-207.7645 505.7581,-178.9331 539.4305,-160.1823 563.6754,-149.8565"/>
<polygon fill="#00ff00" stroke="#00ff00" stroke-width=".28" points="565.12,-153.0479 573.0872,-146.0639 562.5037,-146.5552 565.12,-153.0479"/>
</g>
<!-- 1379 -->
<g id="node44" class="node">
<title>1379</title>
<ellipse fill="#ffffff" stroke="#000000" cx="1595.3896" cy="-232.5132" rx="25" ry="25"/>
<text text-anchor="middle" x="1595.3896" y="-230.3132" font-family="Times,serif" font-size="9.00" fill="#000000">1379</text>
</g>
<!-- D_wall&#45;&gt;1379 -->
<g id="edge114" class="edge">
<title>D_wall&#45;&gt;1379</title>
<path fill="none" stroke="#00ff00" stroke-width=".2199" stroke-dasharray="1,5" d="M1303.1955,-301.6432C1350.7364,-299.6685 1466.6453,-291.435 1556.3896,-257.262 1559.7128,-255.9966 1563.0549,-254.427 1566.3096,-252.6965"/>
<polygon fill="#00ff00" stroke="#00ff00" stroke-width=".2199" points="1568.3016,-255.5861 1575.1627,-247.5129 1564.7647,-249.5454 1568.3016,-255.5861"/>
</g>
<!-- E_agent -->
<g id="node13" class="node">
<title>E_agent</title>
<polygon fill="#d3d3d3" stroke="#000000" points="718.3896,-311.262 672.3896,-311.262 672.3896,-293.262 718.3896,-293.262 718.3896,-311.262"/>
<text text-anchor="middle" x="695.3896" y="-300.062" font-family="Times,serif" font-size="9.00" fill="#000000">E_agent</text>
</g>
<!-- E_agent&#45;&gt;right -->
<g id="edge66" class="edge">
<title>E_agent&#45;&gt;right</title>
<path fill="none" stroke="#00ff00" stroke-width=".2179" d="M718.423,-301.8791C887.5941,-299.0142 1932.0603,-280.4037 1954.3896,-257.262 1969.6649,-241.431 1964.5544,-227.2742 1954.3896,-207.7645 1940.6821,-181.4548 1911.5842,-163.2501 1888.815,-152.3764"/>
<polygon fill="#00ff00" stroke="#00ff00" stroke-width=".2179" points="1890.061,-149.0986 1879.5076,-148.1629 1887.1741,-155.4756 1890.061,-149.0986"/>
</g>
<!-- E_agent&#45;&gt;left -->
<g id="edge60" class="edge">
<title>E_agent&#45;&gt;left</title>
<path fill="none" stroke="#00ff00" stroke-width=".3421" stroke-dasharray="1,5" d="M718.4735,-301.749C845.5377,-298.8251 1455.0775,-283.4653 1484.3896,-257.262 1508.4594,-235.7451 1510.597,-196.7868 1508.6088,-169.6954"/>
<polygon fill="#00ff00" stroke="#00ff00" stroke-width=".3421" points="1512.0796,-169.2227 1507.6406,-159.6026 1505.1116,-169.8912 1512.0796,-169.2227"/>
</g>
<!-- E_agent&#45;&gt;no_turn -->
<g id="edge31" class="edge">
<title>E_agent&#45;&gt;no_turn</title>
<path fill="none" stroke="#00ff00" stroke-width=".1707" stroke-dasharray="1,5" d="M672.2552,-301.2954C568.1275,-296.8354 147.1722,-277.5942 128.3896,-257.262 113.4621,-241.1028 114.7961,-225.0609 128.3896,-207.7645 170.2202,-154.5393 215.5901,-201.5324 276.3896,-171.7645 279.3385,-170.3207 282.2704,-168.6296 285.1289,-166.7928"/>
<polygon fill="#00ff00" stroke="#00ff00" stroke-width=".1707" points="287.2675,-169.5675 293.4268,-160.947 283.236,-163.845 287.2675,-169.5675"/>
</g>
<!-- 299 -->
<g id="node39" class="node">
<title>299</title>
<ellipse fill="#ffffff" stroke="#000000" cx="417.3896" cy="-232.5132" rx="21.4286" ry="21.4286"/>
<text text-anchor="middle" x="417.3896" y="-230.3132" font-family="Times,serif" font-size="9.00" fill="#000000">299</text>
</g>
<!-- E_agent&#45;&gt;299 -->
<g id="edge127" class="edge">
<title>E_agent&#45;&gt;299</title>
<path fill="none" stroke="#ff0000" stroke-width=".2059" d="M672.3444,-301.2764C628.0548,-298.6836 528.6819,-289.4545 452.3896,-257.262 449.0663,-255.8597 445.7468,-254.1012 442.5488,-252.1717"/>
<polygon fill="#ff0000" stroke="#ff0000" stroke-width=".2059" points="444.2156,-249.0762 433.9553,-246.4348 440.329,-254.8981 444.2156,-249.0762"/>
</g>
<!-- E_lm -->
<g id="node14" class="node">
<title>E_lm</title>
<polygon fill="#d3d3d3" stroke="#000000" points="142.3896,-311.262 106.3896,-311.262 106.3896,-293.262 142.3896,-293.262 142.3896,-311.262"/>
<text text-anchor="middle" x="124.3896" y="-300.062" font-family="Times,serif" font-size="9.00" fill="#000000">E_lm</text>
</g>
<!-- E_lm&#45;&gt;no_move -->
<g id="edge13" class="edge">
<title>E_lm&#45;&gt;no_move</title>
<path fill="none" stroke="#ff0000" stroke-width=".7265" d="M105.9831,-297.8725C76.0291,-290.3153 18.9097,-274.0355 7.3896,-257.262 -14.8416,-224.8927 20.0755,-117.2048 30.3896,-108.1249 81.0348,-63.5399 553.7789,-43.0348 704.4728,-37.5941"/>
<polygon fill="#ff0000" stroke="#ff0000" stroke-width=".7265" points="704.8868,-41.0817 714.756,-37.2283 704.6379,-34.0861 704.8868,-41.0817"/>
</g>
<!-- E_lm&#45;&gt;no_turn -->
<g id="edge19" class="edge">
<title>E_lm&#45;&gt;no_turn</title>
<path fill="none" stroke="#00ff00" stroke-width=".7022" stroke-dasharray="1,5" d="M106.2524,-300.3655C81.9058,-296.7364 39.5081,-286.3659 20.3896,-257.262 8.3114,-238.8754 5.9578,-224.3679 20.3896,-207.7645 58.0776,-164.4059 223.6077,-194.4451 276.3896,-171.7645 279.4062,-170.4683 282.3864,-168.882 285.2776,-167.1167"/>
<polygon fill="#00ff00" stroke="#00ff00" stroke-width=".7022" points="287.3598,-169.9329 293.6323,-161.3943 283.4041,-164.1577 287.3598,-169.9329"/>
</g>
<!-- E_lm&#45;&gt;ccw -->
<g id="edge9" class="edge">
<title>E_lm&#45;&gt;ccw</title>
<path fill="none" stroke="#ff0000" stroke-width=".2757" d="M142.452,-301.4558C178.9181,-299.836 263.9487,-296.0991 335.3896,-293.262 389.7724,-291.1023 1276.6186,-296.4474 1314.3896,-257.262 1329.6567,-241.4232 1322.3509,-228.2723 1314.3896,-207.7645 1312.2619,-202.2835 1292.0241,-180.6246 1275.2399,-163.238"/>
<polygon fill="#ff0000" stroke="#ff0000" stroke-width=".2757" points="1277.3253,-160.3613 1267.8487,-155.6237 1272.3025,-165.237 1277.3253,-160.3613"/>
</g>
<!-- E_lm&#45;&gt;299 -->
<g id="edge96" class="edge">
<title>E_lm&#45;&gt;299</title>
<path fill="none" stroke="#ff0000" stroke-width=".1952" d="M142.6031,-299.5302C181.0409,-293.563 273.1065,-278.2042 348.3896,-257.262 361.6084,-253.5848 375.9311,-248.6154 388.0834,-244.0944"/>
<polygon fill="#ff0000" stroke="#ff0000" stroke-width=".1952" points="389.6022,-247.2616 397.709,-240.4404 387.1178,-240.7173 389.6022,-247.2616"/>
</g>
<!-- E_wall -->
<g id="node15" class="node">
<title>E_wall</title>
<polygon fill="#d3d3d3" stroke="#000000" points="1187.3896,-241.5132 1145.3896,-241.5132 1145.3896,-223.5132 1187.3896,-223.5132 1187.3896,-241.5132"/>
<text text-anchor="middle" x="1166.3896" y="-230.3132" font-family="Times,serif" font-size="9.00" fill="#000000">E_wall</text>
</g>
<!-- E_wall&#45;&gt;no_move -->
<g id="edge85" class="edge">
<title>E_wall&#45;&gt;no_move</title>
<path fill="none" stroke="#ff0000" stroke-width=".2637" d="M1161.2882,-223.2731C1147.9026,-199.9463 1109.3326,-138.3863 1059.3896,-108.1249 1015.2378,-81.3724 870.0948,-55.1642 795.5131,-43.0444"/>
<polygon fill="#ff0000" stroke="#ff0000" stroke-width=".2637" points="795.9046,-39.5624 785.4755,-41.4291 794.7924,-46.4735 795.9046,-39.5624"/>
</g>
<!-- E_wall&#45;&gt;left -->
<g id="edge52" class="edge">
<title>E_wall&#45;&gt;left</title>
<path fill="none" stroke="#00ff00" stroke-width=".3446" stroke-dasharray="1,5" d="M1175.047,-223.4657C1180.6514,-218.1252 1188.3771,-211.6672 1196.3896,-207.7645 1221.4974,-195.5351 1402.2181,-159.7215 1474.5637,-145.6836"/>
<polygon fill="#00ff00" stroke="#00ff00" stroke-width=".3446" points="1475.66,-149.0365 1484.8128,-143.7 1474.3299,-142.164 1475.66,-149.0365"/>
</g>
<!-- E_wall&#45;&gt;forward -->
<g id="edge65" class="edge">
<title>E_wall&#45;&gt;forward</title>
<path fill="none" stroke="#00ff00" stroke-width=".1817" d="M1156.6397,-223.4016C1150.8064,-218.3019 1143.0564,-212.1148 1135.3896,-207.7645 1089.8436,-181.9208 1032.5669,-162.3834 994.7862,-151.0673"/>
<polygon fill="#00ff00" stroke="#00ff00" stroke-width=".1817" points="995.7284,-147.6963 985.1471,-148.232 993.753,-154.4118 995.7284,-147.6963"/>
</g>
<!-- E_wall&#45;&gt;ccw -->
<g id="edge23" class="edge">
<title>E_wall&#45;&gt;ccw</title>
<path fill="none" stroke="#ff0000" stroke-width=".5224" stroke-dasharray="1,5" d="M1174.9501,-223.299C1187.7207,-209.553 1212.1872,-183.2177 1230.2152,-163.8128"/>
<polygon fill="#ff0000" stroke="#ff0000" stroke-width=".5224" points="1233.0104,-165.9463 1237.2526,-156.2378 1227.8821,-161.1819 1233.0104,-165.9463"/>
</g>
<!-- E_wall&#45;&gt;cw -->
<g id="edge73" class="edge">
<title>E_wall&#45;&gt;cw</title>
<path fill="none" stroke="#00ff00" stroke-width=".1532" d="M1157.7726,-223.4503C1151.9884,-217.9614 1143.8934,-211.3486 1135.3896,-207.7645 1087.5882,-187.6174 726.6711,-152.5995 620.6121,-142.6506"/>
<polygon fill="#00ff00" stroke="#00ff00" stroke-width=".1532" points="620.8919,-139.1616 610.6096,-141.7159 620.2406,-146.1313 620.8919,-139.1616"/>
</g>
<!-- 954 -->
<g id="node42" class="node">
<title>954</title>
<ellipse fill="#ffffff" stroke="#000000" cx="1313.3896" cy="-139.9447" rx="21.4286" ry="21.4286"/>
<text text-anchor="middle" x="1313.3896" y="-137.7447" font-family="Times,serif" font-size="9.00" fill="#000000">954</text>
</g>
<!-- E_wall&#45;&gt;954 -->
<g id="edge107" class="edge">
<title>E_wall&#45;&gt;954</title>
<path fill="none" stroke="#00ff00" stroke-width="1.185" d="M1175.8337,-223.4773C1181.4817,-218.4029 1188.9817,-212.2157 1196.3896,-207.7645 1232.2588,-186.2119 1248.9373,-195.5163 1283.3896,-171.7645 1286.6713,-169.5021 1289.8688,-166.8293 1292.8784,-164.0097"/>
<polygon fill="#00ff00" stroke="#00ff00" stroke-width="1.185" points="1295.4025,-166.4347 1299.9141,-156.8484 1290.4091,-161.529 1295.4025,-166.4347"/>
</g>
<!-- F_agent -->
<g id="node16" class="node">
<title>F_agent</title>
<polygon fill="#d3d3d3" stroke="#000000" points="1250.8896,-241.5132 1205.8896,-241.5132 1205.8896,-223.5132 1250.8896,-223.5132 1250.8896,-241.5132"/>
<text text-anchor="middle" x="1228.3896" y="-230.3132" font-family="Times,serif" font-size="9.00" fill="#000000">F_agent</text>
</g>
<!-- F_agent&#45;&gt;right -->
<g id="edge8" class="edge">
<title>F_agent&#45;&gt;right</title>
<path fill="none" stroke="#ff0000" stroke-width=".1278" d="M1236.9932,-223.4181C1242.7721,-217.9164 1250.8662,-211.3014 1259.3896,-207.7645 1285.7076,-196.8438 1701.4724,-155.2817 1823.7901,-143.2352"/>
<polygon fill="#ff0000" stroke="#ff0000" stroke-width=".1278" points="1824.4351,-146.6888 1834.0445,-142.2268 1823.7499,-139.7224 1824.4351,-146.6888"/>
</g>
<!-- F_agent&#45;&gt;left -->
<g id="edge16" class="edge">
<title>F_agent&#45;&gt;left</title>
<path fill="none" stroke="#00ff00" stroke-width=".3068" d="M1237.7311,-223.3865C1243.5459,-218.1526 1251.4154,-211.8342 1259.3896,-207.7645 1331.935,-170.741 1427.2042,-151.853 1474.7367,-144.1931"/>
<polygon fill="#00ff00" stroke="#00ff00" stroke-width=".3068" points="1475.33,-147.643 1484.6717,-142.6449 1474.252,-140.7265 1475.33,-147.643"/>
</g>
<!-- F_agent&#45;&gt;forward -->
<g id="edge74" class="edge">
<title>F_agent&#45;&gt;forward</title>
<path fill="none" stroke="#ff0000" stroke-width=".4402" stroke-dasharray="1,5" d="M1218.6931,-223.4089C1212.6717,-218.183 1204.5472,-211.865 1196.3896,-207.7645 1130.3313,-174.5596 1045.6974,-155.5987 996.0195,-146.573"/>
<polygon fill="#ff0000" stroke="#ff0000" stroke-width=".4402" points="996.4253,-143.0905 985.9687,-144.7963 995.2067,-149.9836 996.4253,-143.0905"/>
</g>
<!-- F_agent&#45;&gt;cw -->
<g id="edge35" class="edge">
<title>F_agent&#45;&gt;cw</title>
<path fill="none" stroke="#ff0000" stroke-width=".2075" stroke-dasharray="1,5" d="M1219.4566,-223.4163C1213.4707,-217.9138 1205.1119,-211.2987 1196.3896,-207.7645 1169.3171,-196.795 737.7301,-154.1857 620.5505,-142.7711"/>
<polygon fill="#ff0000" stroke="#ff0000" stroke-width=".2075" points="620.809,-139.2798 610.5171,-141.7952 620.1313,-146.247 620.809,-139.2798"/>
</g>
<!-- F_lm -->
<g id="node17" class="node">
<title>F_lm</title>
<polygon fill="#d3d3d3" stroke="#000000" points="2407.3896,-311.262 2371.3896,-311.262 2371.3896,-293.262 2407.3896,-293.262 2407.3896,-311.262"/>
<text text-anchor="middle" x="2389.3896" y="-300.062" font-family="Times,serif" font-size="9.00" fill="#000000">F_lm</text>
</g>
<!-- F_lm&#45;&gt;forward -->
<g id="edge48" class="edge">
<title>F_lm&#45;&gt;forward</title>
<path fill="none" stroke="#ff0000" stroke-width=".2918" d="M2371.2158,-301.9866C2208.7157,-299.4882 1010.6342,-280.3011 982.3896,-257.262 960.57,-239.4637 953.9475,-207.9931 952.5771,-182.1249"/>
<polygon fill="#ff0000" stroke="#ff0000" stroke-width=".2918" points="956.0665,-181.6987 952.2837,-171.8022 949.0693,-181.8976 956.0665,-181.6987"/>
</g>
<!-- F_lm&#45;&gt;backward -->
<g id="edge34" class="edge">
<title>F_lm&#45;&gt;backward</title>
<path fill="none" stroke="#00ff00" stroke-width=".2691" stroke-dasharray="1,5" d="M2402.85,-293.0227C2413.862,-284.8144 2429.0857,-271.8768 2438.3896,-257.262 2474.564,-200.4388 2507.226,-160.9186 2465.3896,-108.1249 2433.3364,-67.6765 2281.9843,-47.7205 2204.4374,-40.0114"/>
<polygon fill="#00ff00" stroke="#00ff00" stroke-width=".2691" points="2204.7465,-36.5251 2194.4561,-39.0464 2204.0728,-43.4926 2204.7465,-36.5251"/>
</g>
<!-- F_lm&#45;&gt;ccw -->
<g id="edge20" class="edge">
<title>F_lm&#45;&gt;ccw</title>
<path fill="none" stroke="#00ff00" stroke-width=".1453" stroke-dasharray="1,5" d="M2371.013,-301.9295C2246.0158,-299.5986 1522.8683,-284.9844 1429.3896,-257.262 1393.3432,-246.5719 1312.997,-194.9383 1283.3896,-171.7645 1280.2676,-169.3208 1277.1493,-166.5755 1274.1593,-163.7482"/>
<polygon fill="#00ff00" stroke="#00ff00" stroke-width=".1453" points="1276.616,-161.2552 1267.0617,-156.6764 1271.6753,-166.214 1276.616,-161.2552"/>
</g>
<!-- 1554 -->
<g id="node38" class="node">
<title>1554</title>
<ellipse fill="#ffffff" stroke="#000000" cx="2431.3896" cy="-139.9447" rx="25" ry="25"/>
<text text-anchor="middle" x="2431.3896" y="-137.7447" font-family="Times,serif" font-size="9.00" fill="#000000">1554</text>
</g>
<!-- F_lm&#45;&gt;1554 -->
<g id="edge117" class="edge">
<title>F_lm&#45;&gt;1554</title>
<path fill="none" stroke="#ff0000" stroke-width=".4572" d="M2397.5534,-293.004C2404.6368,-284.3902 2414.4998,-270.8699 2419.3896,-257.262 2428.9187,-230.7433 2431.6701,-198.8292 2432.1773,-174.9861"/>
<polygon fill="#ff0000" stroke="#ff0000" stroke-width=".4572" points="2435.6771,-175.0069 2432.2697,-164.975 2428.6774,-174.9422 2435.6771,-175.0069"/>
</g>
<!-- 376 -->
<g id="node45" class="node">
<title>376</title>
<ellipse fill="#ffffff" stroke="#000000" cx="2389.3896" cy="-232.5132" rx="21.4286" ry="21.4286"/>
<text text-anchor="middle" x="2389.3896" y="-230.3132" font-family="Times,serif" font-size="9.00" fill="#000000">376</text>
</g>
<!-- F_lm&#45;&gt;376 -->
<g id="edge98" class="edge">
<title>F_lm&#45;&gt;376</title>
<path fill="none" stroke="#ff0000" stroke-width=".4993" stroke-dasharray="1,5" d="M2389.3896,-293.1435C2389.3896,-285.7214 2389.3896,-274.7826 2389.3896,-264.2321"/>
<polygon fill="#ff0000" stroke="#ff0000" stroke-width=".4993" points="2392.8897,-263.9557 2389.3896,-253.9558 2385.8897,-263.9558 2392.8897,-263.9557"/>
</g>
<!-- F_wall -->
<g id="node18" class="node">
<title>F_wall</title>
<polygon fill="#d3d3d3" stroke="#000000" points="2179.3896,-241.5132 2137.3896,-241.5132 2137.3896,-223.5132 2179.3896,-223.5132 2179.3896,-241.5132"/>
<text text-anchor="middle" x="2158.3896" y="-230.3132" font-family="Times,serif" font-size="9.00" fill="#000000">F_wall</text>
</g>
<!-- F_wall&#45;&gt;right -->
<g id="edge1" class="edge">
<title>F_wall&#45;&gt;right</title>
<path fill="none" stroke="#ff0000" stroke-width=".3578" d="M2149.7854,-223.3538C2144.2011,-217.9711 2136.4777,-211.5082 2128.3896,-207.7645 2046.0295,-169.6429 2014.039,-198.7522 1927.3896,-171.7645 1913.8127,-167.5358 1899.4145,-161.3169 1887.2293,-155.4961"/>
<polygon fill="#ff0000" stroke="#ff0000" stroke-width=".3578" points="1888.5084,-152.2251 1877.9894,-150.9591 1885.423,-158.5084 1888.5084,-152.2251"/>
</g>
<!-- F_wall&#45;&gt;backward -->
<g id="edge68" class="edge">
<title>F_wall&#45;&gt;backward</title>
<path fill="none" stroke="#ff0000" stroke-width="1.1843" d="M2158.3896,-223.3015C2158.3896,-198.6182 2158.3896,-129.6836 2158.3896,-82.7131"/>
<polygon fill="#ff0000" stroke="#ff0000" stroke-width="1.1843" points="2161.8897,-82.4614 2158.3896,-72.4615 2154.8897,-82.4615 2161.8897,-82.4614"/>
</g>
<!-- F_wall&#45;&gt;ccw -->
<g id="edge17" class="edge">
<title>F_wall&#45;&gt;ccw</title>
<path fill="none" stroke="#ff0000" stroke-width=".1232" d="M2150.4457,-223.4647C2144.8944,-217.8316 2136.9634,-211.0523 2128.3896,-207.7645 1952.9019,-140.4701 1454.9637,-248.4903 1283.3896,-171.7645 1279.6163,-170.0771 1276.0642,-167.7017 1272.8061,-165.0002"/>
<polygon fill="#ff0000" stroke="#ff0000" stroke-width=".1232" points="1274.9838,-162.238 1265.3543,-157.8195 1270.1266,-167.2787 1274.9838,-162.238"/>
</g>
<!-- 1669 -->
<g id="node36" class="node">
<title>1669</title>
<ellipse fill="#ffffff" stroke="#000000" cx="2105.3896" cy="-139.9447" rx="25" ry="25"/>
<text text-anchor="middle" x="2105.3896" y="-137.7447" font-family="Times,serif" font-size="9.00" fill="#000000">1669</text>
</g>
<!-- F_wall&#45;&gt;1669 -->
<g id="edge120" class="edge">
<title>F_wall&#45;&gt;1669</title>
<path fill="none" stroke="#ff0000" stroke-width=".1678" d="M2153.114,-223.299C2146.0937,-211.0374 2133.3382,-188.7589 2122.7795,-170.3174"/>
<polygon fill="#ff0000" stroke="#ff0000" stroke-width=".1678" points="2125.8136,-168.5725 2117.8074,-161.6333 2119.7388,-172.0506 2125.8136,-168.5725"/>
</g>
<!-- G_agent -->
<g id="node19" class="node">
<title>G_agent</title>
<polygon fill="#d3d3d3" stroke="#000000" points="1724.8896,-311.262 1677.8896,-311.262 1677.8896,-293.262 1724.8896,-293.262 1724.8896,-311.262"/>
<text text-anchor="middle" x="1701.3896" y="-300.062" font-family="Times,serif" font-size="9.00" fill="#000000">G_agent</text>
</g>
<!-- G_agent&#45;&gt;right -->
<g id="edge39" class="edge">
<title>G_agent&#45;&gt;right</title>
<path fill="none" stroke="#00ff00" stroke-width=".2228" stroke-dasharray="1,5" d="M1724.9433,-299.3967C1791.8553,-291.1471 1978.8156,-267.2906 1987.3896,-257.262 2001.6853,-240.5412 1998.7938,-226.5766 1987.3896,-207.7645 1981.6962,-198.3726 1924.5998,-170.8224 1887.9927,-153.8643"/>
<polygon fill="#00ff00" stroke="#00ff00" stroke-width=".2228" points="1889.2681,-150.5983 1878.7211,-149.5924 1886.3387,-156.9559 1889.2681,-150.5983"/>
</g>
<!-- G_agent&#45;&gt;left -->
<g id="edge51" class="edge">
<title>G_agent&#45;&gt;left</title>
<path fill="none" stroke="#ff0000" stroke-width=".2079" stroke-dasharray="1,5" d="M1694.3382,-292.9546C1676.4051,-269.2911 1630.3979,-208.6284 1629.3896,-207.7645 1599.9627,-182.5525 1559.6342,-162.7631 1532.8321,-151.2238"/>
<polygon fill="#ff0000" stroke="#ff0000" stroke-width=".2079" points="1533.8483,-147.8546 1523.2731,-147.211 1531.1389,-154.3089 1533.8483,-147.8546"/>
</g>
<!-- G_agent&#45;&gt;forward -->
<g id="edge54" class="edge">
<title>G_agent&#45;&gt;forward</title>
<path fill="none" stroke="#00ff00" stroke-width=".1785" stroke-dasharray="1,5" d="M1677.6987,-301.7478C1552.7415,-298.9237 974.9757,-284.4248 949.3896,-257.262 930.2628,-236.9563 933.0116,-204.8397 939.7151,-179.3399"/>
<polygon fill="#00ff00" stroke="#00ff00" stroke-width=".1785" points="943.1222,-180.1574 942.5517,-169.5779 936.4003,-178.2041 943.1222,-180.1574"/>
</g>
<!-- G_agent&#45;&gt;backward -->
<g id="edge75" class="edge">
<title>G_agent&#45;&gt;backward</title>
<path fill="none" stroke="#00ff00" stroke-width=".3291" d="M1725.103,-299.6418C1742.3665,-297.768 1766.3151,-295.2385 1787.3896,-293.262 1883.7425,-284.2251 2137.0746,-304.7646 2221.3896,-257.262 2283.9298,-222.0272 2319.3009,-170.2791 2283.3896,-108.1249 2266.1824,-78.3431 2231.4725,-59.7776 2202.9862,-48.9642"/>
<polygon fill="#00ff00" stroke="#00ff00" stroke-width=".3291" points="2203.8032,-45.5389 2193.2086,-45.457 2201.4397,-52.1279 2203.8032,-45.5389"/>
</g>
<!-- G_agent&#45;&gt;cw -->
<g id="edge62" class="edge">
<title>G_agent&#45;&gt;cw</title>
<path fill="none" stroke="#00ff00" stroke-width=".2457" stroke-dasharray="1,5" d="M1677.651,-301.5755C1512.2962,-296.7669 538.7344,-268.0112 528.3896,-257.262 500.2298,-228.0011 540.3774,-183.6594 568.3497,-158.71"/>
<polygon fill="#00ff00" stroke="#00ff00" stroke-width=".2457" points="570.9252,-161.11 576.2,-151.9216 566.3465,-155.8151 570.9252,-161.11"/>
</g>
<!-- 1324 -->
<g id="node40" class="node">
<title>1324</title>
<ellipse fill="#ffffff" stroke="#000000" cx="1761.3896" cy="-232.5132" rx="25" ry="25"/>
<text text-anchor="middle" x="1761.3896" y="-230.3132" font-family="Times,serif" font-size="9.00" fill="#000000">1324</text>
</g>
<!-- G_agent&#45;&gt;1324 -->
<g id="edge112" class="edge">
<title>G_agent&#45;&gt;1324</title>
<path fill="none" stroke="#00ff00" stroke-width=".9129" d="M1709.2336,-293.1435C1716.686,-284.4803 1728.2597,-271.0261 1738.6131,-258.9905"/>
<polygon fill="#00ff00" stroke="#00ff00" stroke-width=".9129" points="1741.3168,-261.2144 1745.1849,-251.3509 1736.0101,-256.6494 1741.3168,-261.2144"/>
</g>
<!-- G_lm -->
<g id="node20" class="node">
<title>G_lm</title>
<polygon fill="#d3d3d3" stroke="#000000" points="80.8896,-241.5132 43.8896,-241.5132 43.8896,-223.5132 80.8896,-223.5132 80.8896,-241.5132"/>
<text text-anchor="middle" x="62.3896" y="-230.3132" font-family="Times,serif" font-size="9.00" fill="#000000">G_lm</text>
</g>
<!-- G_lm&#45;&gt;no_move -->
<g id="edge3" class="edge">
<title>G_lm&#45;&gt;no_move</title>
<path fill="none" stroke="#00ff00" stroke-width=".3862" d="M66.9137,-223.305C79.1541,-199.5008 115.4629,-135.854 166.3896,-108.1249 259.3446,-57.5118 584.4318,-41.6208 704.9678,-37.402"/>
<polygon fill="#00ff00" stroke="#00ff00" stroke-width=".3862" points="705.0996,-40.8996 714.975,-37.0623 704.862,-33.9037 705.0996,-40.8996"/>
</g>
<!-- G_lm&#45;&gt;cw -->
<g id="edge92" class="edge">
<title>G_lm&#45;&gt;cw</title>
<path fill="none" stroke="#00ff00" stroke-width=".1153" d="M81.1065,-224.271C94.1346,-218.8395 112.0358,-211.9769 128.3896,-207.7645 170.5742,-196.8986 467.0773,-156.6337 562.137,-143.8598"/>
<polygon fill="#00ff00" stroke="#00ff00" stroke-width=".1153" points="562.7584,-147.3079 572.204,-142.5087 561.8272,-140.3701 562.7584,-147.3079"/>
</g>
<!-- G_wall -->
<g id="node21" class="node">
<title>G_wall</title>
<polygon fill="#d3d3d3" stroke="#000000" points="734.8896,-241.5132 691.8896,-241.5132 691.8896,-223.5132 734.8896,-223.5132 734.8896,-241.5132"/>
<text text-anchor="middle" x="713.3896" y="-230.3132" font-family="Times,serif" font-size="9.00" fill="#000000">G_wall</text>
</g>
<!-- G_wall&#45;&gt;no_move -->
<g id="edge50" class="edge">
<title>G_wall&#45;&gt;no_move</title>
<path fill="none" stroke="#ff0000" stroke-width=".2406" stroke-dasharray="1,5" d="M715.1246,-223.3015C719.8365,-198.2836 733.1103,-127.8068 741.9607,-80.8155"/>
<polygon fill="#ff0000" stroke="#ff0000" stroke-width=".2406" points="745.421,-81.3531 743.8324,-70.8781 738.5419,-80.0575 745.421,-81.3531"/>
</g>
<!-- G_wall&#45;&gt;ccw -->
<g id="edge58" class="edge">
<title>G_wall&#45;&gt;ccw</title>
<path fill="none" stroke="#00ff00" stroke-width=".2715" d="M721.969,-223.3587C727.7381,-217.8333 735.8305,-211.2142 744.3896,-207.7645 905.019,-143.0243 961.8756,-202.064 1132.3896,-171.7645 1163.213,-166.2874 1197.6899,-156.7819 1221.7516,-149.5826"/>
<polygon fill="#00ff00" stroke="#00ff00" stroke-width=".2715" points="1222.8338,-152.9119 1231.3851,-146.6569 1220.7995,-146.214 1222.8338,-152.9119"/>
</g>
<!-- G_wall&#45;&gt;cw -->
<g id="edge77" class="edge">
<title>G_wall&#45;&gt;cw</title>
<path fill="none" stroke="#00ff00" stroke-width=".3033" stroke-dasharray="1,5" d="M702.2685,-223.4877C696.3942,-218.7578 689.0419,-212.8965 682.3896,-207.7645 659.7639,-190.3094 633.5675,-170.8649 615.1081,-157.2873"/>
<polygon fill="#00ff00" stroke="#00ff00" stroke-width=".3033" points="617.0972,-154.4056 606.9649,-151.3091 612.9546,-160.0483 617.0972,-154.4056"/>
</g>
<!-- H_agent -->
<g id="node22" class="node">
<title>H_agent</title>
<polygon fill="#d3d3d3" stroke="#000000" points="339.8896,-241.5132 292.8896,-241.5132 292.8896,-223.5132 339.8896,-223.5132 339.8896,-241.5132"/>
<text text-anchor="middle" x="316.3896" y="-230.3132" font-family="Times,serif" font-size="9.00" fill="#000000">H_agent</text>
</g>
<!-- H_agent&#45;&gt;no_move -->
<g id="edge90" class="edge">
<title>H_agent&#45;&gt;no_move</title>
<path fill="none" stroke="#ff0000" stroke-width=".1829" stroke-dasharray="1,5" d="M334.5371,-223.3394C343.7727,-218.6727 355.1775,-212.913 365.3896,-207.7645 453.357,-163.4155 473.3181,-148.0275 563.3896,-108.1249 611.8636,-86.6504 668.8871,-65.2082 707.1068,-51.3685"/>
<polygon fill="#ff0000" stroke="#ff0000" stroke-width=".1829" points="708.6615,-54.5287 716.8829,-47.8459 706.2885,-47.9431 708.6615,-54.5287"/>
</g>
<!-- H_agent&#45;&gt;left -->
<g id="edge72" class="edge">
<title>H_agent&#45;&gt;left</title>
<path fill="none" stroke="#ff0000" stroke-width=".1123" stroke-dasharray="1,5" d="M337.0663,-223.4676C350.9967,-217.8357 369.9444,-211.0567 387.3896,-207.7645 805.2049,-128.9165 921.0759,-221.1371 1343.3896,-171.7645 1389.6635,-166.3546 1442.5088,-154.8739 1474.652,-147.2847"/>
<polygon fill="#ff0000" stroke="#ff0000" stroke-width=".1123" points="1475.8093,-150.6066 1484.7197,-144.8745 1474.1796,-143.7989 1475.8093,-150.6066"/>
</g>
<!-- H_agent&#45;&gt;no_turn -->
<g id="edge42" class="edge">
<title>H_agent&#45;&gt;no_turn</title>
<path fill="none" stroke="#00ff00" stroke-width=".1682" d="M316.3896,-223.299C316.3896,-213.3954 316.3896,-196.9571 316.3896,-181.2839"/>
<polygon fill="#00ff00" stroke="#00ff00" stroke-width=".1682" points="319.8897,-181.1712 316.3896,-171.1713 312.8897,-181.1713 319.8897,-181.1712"/>
</g>
<!-- H_agent&#45;&gt;cw -->
<g id="edge43" class="edge">
<title>H_agent&#45;&gt;cw</title>
<path fill="none" stroke="#ff0000" stroke-width=".2463" d="M328.1386,-223.4303C335.3721,-218.2119 345.0249,-211.8944 354.3896,-207.7645 412.7798,-182.014 432.1243,-189.6266 493.3896,-171.7645 517.2269,-164.8147 544.0255,-156.0467 563.5663,-149.4754"/>
<polygon fill="#ff0000" stroke="#ff0000" stroke-width=".2463" points="564.7182,-152.7806 573.0692,-146.2605 562.4749,-146.1498 564.7182,-152.7806"/>
</g>
<!-- H_lm -->
<g id="node23" class="node">
<title>H_lm</title>
<polygon fill="#d3d3d3" stroke="#000000" points="1879.8896,-241.5132 1842.8896,-241.5132 1842.8896,-223.5132 1879.8896,-223.5132 1879.8896,-241.5132"/>
<text text-anchor="middle" x="1861.3896" y="-230.3132" font-family="Times,serif" font-size="9.00" fill="#000000">H_lm</text>
</g>
<!-- H_lm&#45;&gt;no_move -->
<g id="edge5" class="edge">
<title>H_lm&#45;&gt;no_move</title>
<path fill="none" stroke="#ff0000" stroke-width=".3067" d="M1847.02,-223.3435C1838.8287,-218.3477 1828.2578,-212.2818 1818.3896,-207.7645 1696.3806,-151.9135 1664.512,-136.6286 1533.3896,-108.1249 1391.0493,-77.1826 941.8895,-47.7501 796.3764,-38.8132"/>
<polygon fill="#ff0000" stroke="#ff0000" stroke-width=".3067" points="796.2269,-35.2977 786.0321,-38.1811 795.7999,-42.2846 796.2269,-35.2977"/>
</g>
<!-- H_lm&#45;&gt;right -->
<g id="edge26" class="edge">
<title>H_lm&#45;&gt;right</title>
<path fill="none" stroke="#00ff00" stroke-width=".256" d="M1860.9915,-223.299C1860.4926,-211.7541 1859.61,-191.329 1858.8434,-173.5877"/>
<polygon fill="#00ff00" stroke="#00ff00" stroke-width=".256" points="1862.3377,-173.379 1858.4092,-163.5394 1855.3443,-173.6812 1862.3377,-173.379"/>
</g>
<!-- H_lm&#45;&gt;left -->
<g id="edge33" class="edge">
<title>H_lm&#45;&gt;left</title>
<path fill="none" stroke="#ff0000" stroke-width=".119" stroke-dasharray="1,5" d="M1851.7398,-223.428C1845.5273,-218.0733 1837.0234,-211.6137 1828.3896,-207.7645 1753.079,-174.1889 1727.0709,-188.7808 1646.3896,-171.7645 1607.4204,-163.5456 1562.5995,-153.3831 1533.9104,-146.7872"/>
<polygon fill="#ff0000" stroke="#ff0000" stroke-width=".119" points="1534.6419,-143.3641 1524.1113,-144.5287 1533.0697,-150.1853 1534.6419,-143.3641"/>
</g>
<!-- H_lm&#45;&gt;forward -->
<g id="edge64" class="edge">
<title>H_lm&#45;&gt;forward</title>
<path fill="none" stroke="#00ff00" stroke-width=".2551" stroke-dasharray="1,5" d="M1842.775,-223.8372C1829.7925,-218.2121 1811.9038,-211.2964 1795.3896,-207.7645 1545.4299,-154.3059 1475.953,-194.8979 1221.3896,-171.7645 1141.4113,-164.4965 1048.3515,-152.6275 995.9083,-145.6232"/>
<polygon fill="#00ff00" stroke="#00ff00" stroke-width=".2551" points="996.3539,-142.1517 985.9771,-144.2901 995.4225,-149.0895 996.3539,-142.1517"/>
</g>
<!-- H_lm&#45;&gt;backward -->
<g id="edge24" class="edge">
<title>H_lm&#45;&gt;backward</title>
<path fill="none" stroke="#ff0000" stroke-width=".5887" stroke-dasharray="1,5" d="M1853.7148,-223.2936C1836.1614,-201.0476 1796.7344,-143.6445 1825.3896,-108.1249 1860.9174,-64.0864 2029.326,-45.6234 2112.1602,-39.1048"/>
<polygon fill="#ff0000" stroke="#ff0000" stroke-width=".5887" points="2112.5965,-42.5819 2122.302,-38.3329 2112.0652,-35.602 2112.5965,-42.5819"/>
</g>
<!-- H_lm&#45;&gt;ccw -->
<g id="edge46" class="edge">
<title>H_lm&#45;&gt;ccw</title>
<path fill="none" stroke="#ff0000" stroke-width=".2724" d="M1842.7664,-223.877C1829.7801,-218.2697 1811.8904,-211.3588 1795.3896,-207.7645 1683.9443,-183.4888 1386.8586,-219.7599 1283.3896,-171.7645 1279.64,-170.0252 1276.1017,-167.6195 1272.8505,-164.9028"/>
<polygon fill="#ff0000" stroke="#ff0000" stroke-width=".2724" points="1275.0283,-162.1402 1265.4037,-157.711 1270.1655,-167.1754 1275.0283,-162.1402"/>
</g>
<!-- H_wall -->
<g id="node24" class="node">
<title>H_wall</title>
<polygon fill="#d3d3d3" stroke="#000000" points="673.8896,-241.5132 630.8896,-241.5132 630.8896,-223.5132 673.8896,-223.5132 673.8896,-241.5132"/>
<text text-anchor="middle" x="652.3896" y="-230.3132" font-family="Times,serif" font-size="9.00" fill="#000000">H_wall</text>
</g>
<!-- H_wall&#45;&gt;left -->
<g id="edge44" class="edge">
<title>H_wall&#45;&gt;left</title>
<path fill="none" stroke="#ff0000" stroke-width=".2624" stroke-dasharray="1,5" d="M660.3465,-223.4981C665.9033,-217.8791 673.8355,-211.103 682.3896,-207.7645 819.4295,-154.2817 1197.4266,-190.0709 1343.3896,-171.7645 1389.6165,-165.9668 1442.4748,-154.5936 1474.6336,-147.1328"/>
<polygon fill="#ff0000" stroke="#ff0000" stroke-width=".2624" points="1475.7721,-150.4607 1484.7066,-144.7663 1474.1711,-143.6462 1475.7721,-150.4607"/>
</g>
<!-- H_wall&#45;&gt;forward -->
<g id="edge56" class="edge">
<title>H_wall&#45;&gt;forward</title>
<path fill="none" stroke="#ff0000" stroke-width=".1505" stroke-dasharray="1,5" d="M661.3424,-223.3011C666.9386,-218.037 674.5523,-211.7167 682.3896,-207.7645 758.3227,-169.473 857.3221,-151.8574 912.5215,-144.5323"/>
<polygon fill="#ff0000" stroke="#ff0000" stroke-width=".1505" points="913.1544,-147.98 922.6305,-143.2414 912.2677,-141.0363 913.1544,-147.98"/>
</g>
<!-- H_wall&#45;&gt;no_turn -->
<g id="edge78" class="edge">
<title>H_wall&#45;&gt;no_turn</title>
<path fill="none" stroke="#ff0000" stroke-width=".2305" d="M643.3877,-223.4803C637.5755,-218.1453 629.5898,-211.6879 621.3896,-207.7645 533.4536,-165.6908 418.6766,-149.2668 358.0771,-143.2143"/>
<polygon fill="#ff0000" stroke="#ff0000" stroke-width=".2305" points="358.0518,-139.6962 347.7651,-142.233 357.3885,-146.6647 358.0518,-139.6962"/>
</g>
<!-- H_wall&#45;&gt;cw -->
<g id="edge67" class="edge">
<title>H_wall&#45;&gt;cw</title>
<path fill="none" stroke="#00ff00" stroke-width=".1986" d="M646.3177,-223.299C637.328,-209.6569 620.1674,-183.6154 607.409,-164.2543"/>
<polygon fill="#00ff00" stroke="#00ff00" stroke-width=".1986" points="610.327,-162.3215 601.902,-155.8973 604.4819,-166.1732 610.327,-162.3215"/>
</g>
<!-- hunger_change -->
<g id="node25" class="node">
<title>hunger_change</title>
<polygon fill="#d3d3d3" stroke="#000000" points="1126.8896,-241.5132 1055.8896,-241.5132 1055.8896,-223.5132 1126.8896,-223.5132 1126.8896,-241.5132"/>
<text text-anchor="middle" x="1091.3896" y="-230.3132" font-family="Times,serif" font-size="9.00" fill="#000000">hunger_change</text>
</g>
<!-- hunger_change&#45;&gt;no_move -->
<g id="edge93" class="edge">
<title>hunger_change&#45;&gt;no_move</title>
<path fill="none" stroke="#ff0000" stroke-width="1.2992" d="M1088.9437,-223.3738C1082.2784,-200.2835 1061.5496,-139.2326 1021.3896,-108.1249 986.1539,-80.8315 862.6883,-55.7161 795.2285,-43.6254"/>
<polygon fill="#ff0000" stroke="#ff0000" stroke-width="1.2992" points="795.7588,-40.1649 785.3017,-41.8678 794.5384,-47.0577 795.7588,-40.1649"/>
</g>
<!-- hunger_change&#45;&gt;left -->
<g id="edge7" class="edge">
<title>hunger_change&#45;&gt;left</title>
<path fill="none" stroke="#00ff00" stroke-width=".3814" stroke-dasharray="1,5" d="M1105.0188,-223.4618C1113.6673,-218.1198 1125.2844,-211.6617 1136.3896,-207.7645 1224.5023,-176.8428 1251.5792,-188.8183 1343.3896,-171.7645 1389.1951,-163.2561 1442.1704,-152.6351 1474.4686,-146.0715"/>
<polygon fill="#00ff00" stroke="#00ff00" stroke-width=".3814" points="1475.4888,-149.4356 1484.589,-144.01 1474.0916,-142.5765 1475.4888,-149.4356"/>
</g>
<!-- hunger_change&#45;&gt;forward -->
<g id="edge91" class="edge">
<title>hunger_change&#45;&gt;forward</title>
<path fill="none" stroke="#00ff00" stroke-width=".6994" d="M1078.0041,-223.4688C1057.6853,-209.7398 1018.3738,-183.1777 989.5179,-163.6802"/>
<polygon fill="#00ff00" stroke="#00ff00" stroke-width=".6994" points="991.1763,-160.5767 980.9309,-157.8781 987.2572,-166.3769 991.1763,-160.5767"/>
</g>
<!-- hunger_change&#45;&gt;ccw -->
<g id="edge88" class="edge">
<title>hunger_change&#45;&gt;ccw</title>
<path fill="none" stroke="#00ff00" stroke-width=".1998" d="M1107.1201,-223.4688C1134.3143,-207.8333 1190.4574,-175.5533 1224.431,-156.0198"/>
<polygon fill="#00ff00" stroke="#00ff00" stroke-width=".1998" points="1226.4583,-158.8915 1233.383,-150.8728 1222.9692,-152.823 1226.4583,-158.8915"/>
</g>
<!-- hunger_change&#45;&gt;cw -->
<g id="edge59" class="edge">
<title>hunger_change&#45;&gt;cw</title>
<path fill="none" stroke="#ff0000" stroke-width=".6911" stroke-dasharray="1,5" d="M1077.7931,-223.3669C1069.1569,-217.9893 1057.5413,-211.5269 1046.3896,-207.7645 891.9931,-155.6733 694.6937,-143.5358 620.9454,-140.7545"/>
<polygon fill="#ff0000" stroke="#ff0000" stroke-width=".6911" points="620.7022,-137.2441 610.5871,-140.396 620.4601,-144.2399 620.7022,-137.2441"/>
</g>
<!-- 517&#45;&gt;right -->
<g id="edge105" class="edge">
<title>517&#45;&gt;right</title>
<path fill="none" stroke="#00ff00" stroke-width=".3362" stroke-dasharray="1,5" d="M2081.6948,-218.8822C2076.1298,-214.8494 2069.7274,-210.726 2063.3896,-207.7645 2006.7426,-181.2948 1986.2799,-192.7758 1927.3896,-171.7645 1914.0955,-167.0213 1899.8417,-160.7681 1887.6888,-155.0614"/>
<polygon fill="#00ff00" stroke="#00ff00" stroke-width=".3362" points="1888.9826,-151.8004 1878.4514,-150.6411 1885.9611,-158.1148 1888.9826,-151.8004"/>
</g>
<!-- 517&#45;&gt;backward -->
<g id="edge101" class="edge">
<title>517&#45;&gt;backward</title>
<path fill="none" stroke="#00ff00" stroke-width=".1236" d="M2087.2791,-213.9748C2073.8083,-188.9154 2054.8407,-143.3211 2071.3896,-108.1249 2081.1431,-87.3812 2100.1244,-70.5582 2117.8747,-58.3996"/>
<polygon fill="#00ff00" stroke="#00ff00" stroke-width=".1236" points="2119.9812,-61.2043 2126.4438,-52.8088 2116.1562,-55.3418 2119.9812,-61.2043"/>
</g>
<!-- 1153 -->
<g id="node35" class="node">
<title>1153</title>
<ellipse fill="#ffffff" stroke="#000000" cx="2249.3896" cy="-139.9447" rx="25" ry="25"/>
<text text-anchor="middle" x="2249.3896" y="-137.7447" font-family="Times,serif" font-size="9.00" fill="#000000">1153</text>
</g>
<!-- 1153&#45;&gt;backward -->
<g id="edge111" class="edge">
<title>1153&#45;&gt;backward</title>
<path fill="none" stroke="#00ff00" stroke-width=".2931" d="M2232.6988,-120.8911C2220.5287,-106.9981 2203.687,-87.7723 2189.114,-71.1362"/>
<polygon fill="#00ff00" stroke="#00ff00" stroke-width=".2931" points="2191.3946,-68.428 2182.1725,-63.2121 2186.1291,-73.0405 2191.3946,-68.428"/>
</g>
<!-- 1669&#45;&gt;backward -->
<g id="edge121" class="edge">
<title>1669&#45;&gt;backward</title>
<path fill="none" stroke="#00ff00" stroke-width=".5365" d="M2116.7595,-117.6593C2122.6907,-106.034 2130.1426,-91.4279 2137.0965,-77.7979"/>
<polygon fill="#00ff00" stroke="#00ff00" stroke-width=".5365" points="2140.3794,-79.0647 2141.8064,-68.5664 2134.144,-75.8834 2140.3794,-79.0647"/>
</g>
<!-- 1799&#45;&gt;backward -->
<g id="edge125" class="edge">
<title>1799&#45;&gt;backward</title>
<path fill="none" stroke="#ff0000" stroke-width=".1475" d="M1980.0954,-123.0542C1986.302,-117.9032 1993.4133,-112.4612 2000.3896,-108.1249 2037.0536,-85.3355 2082.133,-65.4951 2114.7437,-52.4343"/>
<polygon fill="#ff0000" stroke="#ff0000" stroke-width=".1475" points="2116.4266,-55.5328 2124.4408,-48.6029 2113.8543,-49.0225 2116.4266,-55.5328"/>
</g>
<!-- 1554&#45;&gt;backward -->
<g id="edge118" class="edge">
<title>1554&#45;&gt;backward</title>
<path fill="none" stroke="#ff0000" stroke-width=".3551" stroke-dasharray="1,5" d="M2413.3964,-122.833C2407.1187,-117.549 2399.7854,-112.0844 2392.3896,-108.1249 2331.1635,-75.3456 2252.7786,-55.0548 2204.0736,-44.6632"/>
<polygon fill="#ff0000" stroke="#ff0000" stroke-width=".3551" points="2204.6515,-41.2085 2194.1478,-42.5951 2203.2236,-48.0614 2204.6515,-41.2085"/>
</g>
<!-- 299&#45;&gt;cw -->
<g id="edge97" class="edge">
<title>299&#45;&gt;cw</title>
<path fill="none" stroke="#00ff00" stroke-width=".1951" d="M434.4673,-219.607C440.0528,-215.613 446.3706,-211.3293 452.3896,-207.7645 490.0028,-185.4879 535.9925,-164.1162 564.4922,-151.5079"/>
<polygon fill="#00ff00" stroke="#00ff00" stroke-width=".1951" points="566.0481,-154.6474 573.8011,-147.4266 563.2373,-148.2365 566.0481,-154.6474"/>
</g>
<!-- 1324&#45;&gt;left -->
<g id="edge113" class="edge">
<title>1324&#45;&gt;left</title>
<path fill="none" stroke="#ff0000" stroke-width=".2149" stroke-dasharray="1,5" d="M1741.9662,-216.683C1737.3703,-213.4253 1732.3561,-210.2389 1727.3896,-207.7645 1661.9738,-175.173 1577.8656,-154.8121 1533.9996,-145.6462"/>
<polygon fill="#ff0000" stroke="#ff0000" stroke-width=".2149" points="1534.5006,-142.1764 1524.0028,-143.6067 1533.1013,-149.0351 1534.5006,-142.1764"/>
</g>
<!-- 1710&#45;&gt;no_move -->
<g id="edge123" class="edge">
<title>1710&#45;&gt;no_move</title>
<path fill="none" stroke="#00ff00" stroke-width=".3838" stroke-dasharray="1,5" d="M258.8286,-120.831C263.9704,-115.9597 269.9884,-111.2295 276.3896,-108.1249 351.6926,-71.6025 601.1708,-47.9926 704.7218,-39.5451"/>
<polygon fill="#00ff00" stroke="#00ff00" stroke-width=".3838" points="705.1746,-43.02 714.8614,-38.7285 704.6126,-36.0426 705.1746,-43.02"/>
</g>
<!-- 954&#45;&gt;no_move -->
<g id="edge108" class="edge">
<title>954&#45;&gt;no_move</title>
<path fill="none" stroke="#ff0000" stroke-width=".3827" stroke-dasharray="1,5" d="M1300.7757,-122.4296C1295.9553,-116.9851 1290.0078,-111.5251 1283.3896,-108.1249 1198.4183,-64.4687 908.7815,-44.5629 795.9259,-38.3305"/>
<polygon fill="#ff0000" stroke="#ff0000" stroke-width=".3827" points="796.0595,-34.8327 785.8848,-37.7865 795.6807,-41.8225 796.0595,-34.8327"/>
</g>
<!-- 714&#45;&gt;cw -->
<g id="edge104" class="edge">
<title>714&#45;&gt;cw</title>
<path fill="none" stroke="#ff0000" stroke-width=".1771" d="M591.3896,-211.0435C591.3896,-198.6533 591.3896,-182.8948 591.3896,-169.3639"/>
<polygon fill="#ff0000" stroke="#ff0000" stroke-width=".1771" points="594.8897,-169.0968 591.3896,-159.0969 587.8897,-169.0969 594.8897,-169.0968"/>
</g>
<!-- 1379&#45;&gt;right -->
<g id="edge116" class="edge">
<title>1379&#45;&gt;right</title>
<path fill="none" stroke="#00ff00" stroke-width=".307" stroke-dasharray="1,5" d="M1619.1025,-224.1351C1666.3191,-207.4528 1772.1193,-170.072 1825.4159,-151.2415"/>
<polygon fill="#00ff00" stroke="#00ff00" stroke-width=".307" points="1826.7738,-154.4738 1835.0366,-147.8423 1824.4419,-147.8737 1826.7738,-154.4738"/>
</g>
<!-- 1379&#45;&gt;cw -->
<g id="edge115" class="edge">
<title>1379&#45;&gt;cw</title>
<path fill="none" stroke="#00ff00" stroke-width=".5875" stroke-dasharray="1,5" d="M1571.3382,-226.0068C1548.989,-220.2348 1514.6884,-212.0704 1484.3896,-207.7645 1232.6375,-171.987 1166.8431,-192.2708 913.3896,-171.7645 805.2926,-163.0186 677.1084,-149.3675 620.61,-143.1834"/>
<polygon fill="#00ff00" stroke="#00ff00" stroke-width=".5875" points="620.9265,-139.6972 610.6041,-142.0841 620.162,-146.6553 620.9265,-139.6972"/>
</g>
<!-- 1379&#45;&gt;1153 -->
<g id="edge119" class="edge">
<title>1379&#45;&gt;1153</title>
<path fill="none" stroke="#00ff00" stroke-width=".4841" d="M1618.3161,-222.9539C1632.2574,-217.5667 1650.5614,-211.2389 1667.3896,-207.7645 1873.4311,-165.2246 1932.3586,-209.1928 2139.3896,-171.7645 2165.5667,-167.0321 2194.4313,-158.5535 2216.0223,-151.5379"/>
<polygon fill="#00ff00" stroke="#00ff00" stroke-width=".4841" points="2217.3007,-154.8015 2225.6935,-148.3354 2215.1002,-148.1563 2217.3007,-154.8015"/>
</g>
<!-- 1379&#45;&gt;954 -->
<g id="edge126" class="edge">
<title>1379&#45;&gt;954</title>
<path fill="none" stroke="#ff0000" stroke-width=".3482" d="M1571.8315,-224.7801C1520.738,-208.0083 1399.8053,-168.3113 1343.3681,-149.7853"/>
<polygon fill="#ff0000" stroke="#ff0000" stroke-width=".3482" points="1344.2048,-146.3763 1333.612,-146.5828 1342.0216,-153.0272 1344.2048,-146.3763"/>
</g>
<!-- 376&#45;&gt;backward -->
<g id="edge99" class="edge">
<title>376&#45;&gt;backward</title>
<path fill="none" stroke="#ff0000" stroke-width=".354" d="M2389.0751,-211.2231C2387.5379,-183.9479 2380.8937,-136.7824 2354.3896,-108.1249 2315.2233,-65.7762 2249.0317,-48.2319 2204.5368,-41.0178"/>
<polygon fill="#ff0000" stroke="#ff0000" stroke-width=".354" points="2204.967,-37.5432 2194.557,-39.5132 2203.9234,-44.465 2204.967,-37.5432"/>
</g>
<!-- 376&#45;&gt;1153 -->
<g id="edge110" class="edge">
<title>376&#45;&gt;1153</title>
<path fill="none" stroke="#ff0000" stroke-width=".3504" stroke-dasharray="1,5" d="M2371.6585,-220.7894C2348.2883,-205.3369 2306.8591,-177.9437 2278.7711,-159.3718"/>
<polygon fill="#ff0000" stroke="#ff0000" stroke-width=".3504" points="2280.4321,-156.2742 2270.1602,-153.6782 2276.5712,-162.1132 2280.4321,-156.2742"/>
</g>
</g>
</svg>
