<?xml version="1.0" encoding="UTF-8" standalone="no"?>
<!DOCTYPE svg PUBLIC "-//W3C//DTD SVG 1.1//EN"
 "http://www.w3.org/Graphics/SVG/1.1/DTD/svg11.dtd">
<!-- Generated by graphviz version 2.40.1 (20161225.0304)
 -->
<!-- Title: %3 Pages: 1 -->
<svg width="791pt" height="312pt"
 viewBox="0.00 0.00 790.50 312.19" xmlns="http://www.w3.org/2000/svg" xmlns:xlink="http://www.w3.org/1999/xlink">
<g id="graph0" class="graph" transform="scale(1 1) rotate(0) translate(4 308.1909)">
<title>%3</title>
<polygon fill="#ffffff" stroke="transparent" points="-4,4 -4,-308.1909 786.5,-308.1909 786.5,4 -4,4"/>
<!-- x&#45;vel -->
<g id="node1" class="node">
<title>x&#45;vel</title>
<polygon fill="#d3d3d3" stroke="#000000" points="359,-304.1909 324,-304.1909 324,-286.1909 359,-286.1909 359,-304.1909"/>
<text text-anchor="middle" x="341.5" y="-292.9909" font-family="Times,serif" font-size="9.00" fill="#000000">x&#45;vel</text>
</g>
<!-- none -->
<g id="node13" class="node">
<title>none</title>
<ellipse fill="#add8e6" stroke="#000000" cx="610.5" cy="-214.1285" rx="24.0833" ry="24.0833"/>
<text text-anchor="middle" x="610.5" y="-211.9285" font-family="Times,serif" font-size="9.00" fill="#000000">none</text>
</g>
<!-- x&#45;vel&#45;&gt;none -->
<g id="edge19" class="edge">
<title>x&#45;vel&#45;&gt;none</title>
<path fill="none" stroke="#ff0000" stroke-width=".285" d="M359.1602,-289.0976C362.2605,-288.0871 365.4653,-287.0801 368.5,-286.1909 430.981,-267.8841 448.2466,-269.2573 510.5,-250.1909 533.4914,-243.1493 558.9824,-233.9343 578.4734,-226.5821"/>
<polygon fill="#ff0000" stroke="#ff0000" stroke-width=".285" points="579.9728,-229.7564 588.074,-222.9285 577.483,-223.2141 579.9728,-229.7564"/>
</g>
<!-- right -->
<g id="node14" class="node">
<title>right</title>
<ellipse fill="#add8e6" stroke="#000000" cx="216.5" cy="-214.1285" rx="23.1702" ry="23.1702"/>
<text text-anchor="middle" x="216.5" y="-211.9285" font-family="Times,serif" font-size="9.00" fill="#000000">right</text>
</g>
<!-- x&#45;vel&#45;&gt;right -->
<g id="edge16" class="edge">
<title>x&#45;vel&#45;&gt;right</title>
<path fill="none" stroke="#ff0000" stroke-width=".5693" stroke-dasharray="1,5" d="M327.1609,-285.892C307.1981,-272.9461 270.6026,-249.214 244.9793,-232.5973"/>
<polygon fill="#ff0000" stroke="#ff0000" stroke-width=".5693" points="246.7135,-229.5504 236.4189,-227.0459 242.9047,-235.4235 246.7135,-229.5504"/>
</g>
<!-- left -->
<g id="node15" class="node">
<title>left</title>
<ellipse fill="#add8e6" stroke="#000000" cx="356.5" cy="-214.1285" rx="19.6" ry="19.6"/>
<text text-anchor="middle" x="356.5" y="-211.9285" font-family="Times,serif" font-size="9.00" fill="#000000">left</text>
</g>
<!-- x&#45;vel&#45;&gt;left -->
<g id="edge20" class="edge">
<title>x&#45;vel&#45;&gt;left</title>
<path fill="none" stroke="#00ff00" stroke-width=".5508" d="M343.2207,-285.892C345.1214,-275.6201 348.2788,-258.5573 351.0379,-243.6465"/>
<polygon fill="#00ff00" stroke="#00ff00" stroke-width=".5508" points="354.4861,-244.2472 352.8641,-233.7773 347.6029,-242.9735 354.4861,-244.2472"/>
</g>
<!-- y&#45;vel -->
<g id="node2" class="node">
<title>y&#45;vel</title>
<polygon fill="#d3d3d3" stroke="#000000" points="106,-304.1909 71,-304.1909 71,-286.1909 106,-286.1909 106,-304.1909"/>
<text text-anchor="middle" x="88.5" y="-292.9909" font-family="Times,serif" font-size="9.00" fill="#000000">y&#45;vel</text>
</g>
<!-- y&#45;vel&#45;&gt;right -->
<g id="edge11" class="edge">
<title>y&#45;vel&#45;&gt;right</title>
<path fill="none" stroke="#ff0000" stroke-width=".3438" stroke-dasharray="1,5" d="M103.1832,-285.892C123.7426,-272.8717 161.5303,-248.9408 187.7885,-232.3115"/>
<polygon fill="#ff0000" stroke="#ff0000" stroke-width=".3438" points="189.9726,-235.0712 196.5483,-226.7639 186.2274,-229.1573 189.9726,-235.0712"/>
</g>
<!-- y&#45;vel&#45;&gt;left -->
<g id="edge25" class="edge">
<title>y&#45;vel&#45;&gt;left</title>
<path fill="none" stroke="#ff0000" stroke-width=".1202" d="M106.1724,-289.1387C109.2713,-288.1236 112.4725,-287.1044 115.5,-286.1909 174.1276,-268.501 189.877,-267.8961 248.5,-250.1909 275.6182,-242.0007 306.2184,-231.6796 327.9046,-224.1796"/>
<polygon fill="#ff0000" stroke="#ff0000" stroke-width=".1202" points="329.1916,-227.4378 337.488,-220.8483 326.8932,-220.8258 329.1916,-227.4378"/>
</g>
<!-- x&#45;pos -->
<g id="node3" class="node">
<title>x&#45;pos</title>
<polygon fill="#d3d3d3" stroke="#000000" points="234.5,-304.1909 198.5,-304.1909 198.5,-286.1909 234.5,-286.1909 234.5,-304.1909"/>
<text text-anchor="middle" x="216.5" y="-292.9909" font-family="Times,serif" font-size="9.00" fill="#000000">x&#45;pos</text>
</g>
<!-- x&#45;pos&#45;&gt;right -->
<g id="edge2" class="edge">
<title>x&#45;pos&#45;&gt;right</title>
<path fill="none" stroke="#00ff00" stroke-width=".3074" stroke-dasharray="1,5" d="M216.5,-285.892C216.5,-276.6129 216.5,-261.7925 216.5,-248.0226"/>
<polygon fill="#00ff00" stroke="#00ff00" stroke-width=".3074" points="220.0001,-247.8066 216.5,-237.8066 213.0001,-247.8067 220.0001,-247.8066"/>
</g>
<!-- x&#45;pos&#45;&gt;left -->
<g id="edge5" class="edge">
<title>x&#45;pos&#45;&gt;left</title>
<path fill="none" stroke="#ff0000" stroke-width=".1604" stroke-dasharray="1,5" d="M232.2876,-286.0496C256.1628,-272.2255 301.7175,-245.8485 330.526,-229.1679"/>
<polygon fill="#ff0000" stroke="#ff0000" stroke-width=".1604" points="332.342,-232.1608 339.2423,-224.121 328.8344,-226.103 332.342,-232.1608"/>
</g>
<!-- backward -->
<g id="node17" class="node">
<title>backward</title>
<ellipse fill="#add8e6" stroke="#000000" cx="447.5" cy="-214.1285" rx="36.125" ry="36.125"/>
<text text-anchor="middle" x="447.5" y="-211.9285" font-family="Times,serif" font-size="9.00" fill="#000000">backward</text>
</g>
<!-- x&#45;pos&#45;&gt;backward -->
<g id="edge14" class="edge">
<title>x&#45;pos&#45;&gt;backward</title>
<path fill="none" stroke="#ff0000" stroke-width=".5181" d="M234.7427,-288.9082C237.6604,-287.9617 240.655,-287.0245 243.5,-286.1909 305.981,-267.8841 325.2209,-274.7968 385.5,-250.1909 393.0387,-247.1136 400.7714,-243.2555 408.1071,-239.2162"/>
<polygon fill="#ff0000" stroke="#ff0000" stroke-width=".5181" points="410.1998,-242.0514 417.1422,-234.048 406.7241,-235.9752 410.1998,-242.0514"/>
</g>
<!-- y&#45;pos -->
<g id="node4" class="node">
<title>y&#45;pos</title>
<polygon fill="#d3d3d3" stroke="#000000" points="563.5,-304.1909 527.5,-304.1909 527.5,-286.1909 563.5,-286.1909 563.5,-304.1909"/>
<text text-anchor="middle" x="545.5" y="-292.9909" font-family="Times,serif" font-size="9.00" fill="#000000">y&#45;pos</text>
</g>
<!-- y&#45;pos&#45;&gt;none -->
<g id="edge18" class="edge">
<title>y&#45;pos&#45;&gt;none</title>
<path fill="none" stroke="#ff0000" stroke-width=".2406" d="M552.9563,-285.892C561.6222,-275.0846 576.3158,-256.7601 588.6855,-241.3336"/>
<polygon fill="#ff0000" stroke="#ff0000" stroke-width=".2406" points="591.7403,-243.1188 595.2655,-233.1276 586.2792,-238.7397 591.7403,-243.1188"/>
</g>
<!-- y&#45;pos&#45;&gt;left -->
<g id="edge24" class="edge">
<title>y&#45;pos&#45;&gt;left</title>
<path fill="none" stroke="#00ff00" stroke-width=".3535" d="M527.217,-289.0394C524.3045,-288.0759 521.3221,-287.0991 518.5,-286.1909 467.1139,-269.6548 450.3085,-275.2573 402.5,-250.1909 394.3609,-245.9235 386.2236,-240.1623 379.1055,-234.4982"/>
<polygon fill="#00ff00" stroke="#00ff00" stroke-width=".3535" points="381.2051,-231.6922 371.2785,-227.9891 376.7292,-237.0743 381.2051,-231.6922"/>
</g>
<!-- y&#45;pos&#45;&gt;backward -->
<g id="edge12" class="edge">
<title>y&#45;pos&#45;&gt;backward</title>
<path fill="none" stroke="#ff0000" stroke-width=".1555" d="M534.2582,-285.892C521.8761,-275.6499 501.332,-258.6566 483.3431,-243.7767"/>
<polygon fill="#ff0000" stroke="#ff0000" stroke-width=".1555" points="485.2326,-240.7974 475.2962,-237.1206 480.7709,-246.1913 485.2326,-240.7974"/>
</g>
<!-- x&#45;lm1&#45;vec -->
<g id="node5" class="node">
<title>x&#45;lm1&#45;vec</title>
<polygon fill="#d3d3d3" stroke="#000000" points="53,-304.1909 0,-304.1909 0,-286.1909 53,-286.1909 53,-304.1909"/>
<text text-anchor="middle" x="26.5" y="-292.9909" font-family="Times,serif" font-size="9.00" fill="#000000">x&#45;lm1&#45;vec</text>
</g>
<!-- x&#45;lm1&#45;vec&#45;&gt;right -->
<g id="edge4" class="edge">
<title>x&#45;lm1&#45;vec&#45;&gt;right</title>
<path fill="none" stroke="#ff0000" stroke-width=".6083" stroke-dasharray="1,5" d="M47.9261,-286.0496C81.5662,-271.6972 146.9202,-243.8143 185.6291,-227.2994"/>
<polygon fill="#ff0000" stroke="#ff0000" stroke-width=".6083" points="187.0363,-230.5043 194.8607,-223.3607 184.2893,-224.0658 187.0363,-230.5043"/>
</g>
<!-- y&#45;lm1&#45;vec -->
<g id="node6" class="node">
<title>y&#45;lm1&#45;vec</title>
<polygon fill="#d3d3d3" stroke="#000000" points="635,-304.1909 582,-304.1909 582,-286.1909 635,-286.1909 635,-304.1909"/>
<text text-anchor="middle" x="608.5" y="-292.9909" font-family="Times,serif" font-size="9.00" fill="#000000">y&#45;lm1&#45;vec</text>
</g>
<!-- y&#45;lm1&#45;vec&#45;&gt;none -->
<g id="edge9" class="edge">
<title>y&#45;lm1&#45;vec&#45;&gt;none</title>
<path fill="none" stroke="#ff0000" stroke-width=".2961" stroke-dasharray="1,5" d="M608.7294,-285.892C608.9551,-276.7455 609.3136,-262.2148 609.6492,-248.6133"/>
<polygon fill="#ff0000" stroke="#ff0000" stroke-width=".2961" points="613.1509,-248.5813 609.8987,-238.4979 606.1531,-248.4085 613.1509,-248.5813"/>
</g>
<!-- y&#45;lm1&#45;vec&#45;&gt;left -->
<g id="edge28" class="edge">
<title>y&#45;lm1&#45;vec&#45;&gt;left</title>
<path fill="none" stroke="#00ff00" stroke-width=".4984" d="M581.7896,-288.3988C578.6619,-287.6374 575.5131,-286.8863 572.5,-286.1909 497.2472,-268.8224 472.4804,-282.8618 402.5,-250.1909 394.0406,-246.2416 385.7205,-240.4733 378.532,-234.7036"/>
<polygon fill="#00ff00" stroke="#00ff00" stroke-width=".4984" points="380.5633,-231.8371 370.6728,-228.0386 376.0358,-237.1758 380.5633,-231.8371"/>
</g>
<!-- forward -->
<g id="node16" class="node">
<title>forward</title>
<ellipse fill="#add8e6" stroke="#000000" cx="558.5" cy="-31.8198" rx="31.6406" ry="31.6406"/>
<text text-anchor="middle" x="558.5" y="-29.6198" font-family="Times,serif" font-size="9.00" fill="#000000">forward</text>
</g>
<!-- y&#45;lm1&#45;vec&#45;&gt;forward -->
<g id="edge8" class="edge">
<title>y&#45;lm1&#45;vec&#45;&gt;forward</title>
<path fill="none" stroke="#00ff00" stroke-width=".3684" d="M600.0109,-286.0001C592.6556,-277.4315 582.4411,-263.9397 577.5,-250.1909 556.4698,-191.6733 554.5453,-118.8918 555.9047,-73.8956"/>
<polygon fill="#00ff00" stroke="#00ff00" stroke-width=".3684" points="559.4123,-73.7544 556.2868,-63.6311 552.4171,-73.4939 559.4123,-73.7544"/>
</g>
<!-- x&#45;lm2&#45;vec -->
<g id="node7" class="node">
<title>x&#45;lm2&#45;vec</title>
<polygon fill="#d3d3d3" stroke="#000000" points="306,-304.1909 253,-304.1909 253,-286.1909 306,-286.1909 306,-304.1909"/>
<text text-anchor="middle" x="279.5" y="-292.9909" font-family="Times,serif" font-size="9.00" fill="#000000">x&#45;lm2&#45;vec</text>
</g>
<!-- x&#45;lm2&#45;vec&#45;&gt;right -->
<g id="edge1" class="edge">
<title>x&#45;lm2&#45;vec&#45;&gt;right</title>
<path fill="none" stroke="#00ff00" stroke-width="2.0719" d="M272.2731,-285.892C263.8193,-275.0144 249.4472,-256.5218 237.41,-241.0334"/>
<polygon fill="#00ff00" stroke="#00ff00" stroke-width="2.0719" points="239.9153,-238.5534 231.0153,-232.8053 234.3882,-242.8489 239.9153,-238.5534"/>
</g>
<!-- x&#45;lm2&#45;vec&#45;&gt;backward -->
<g id="edge22" class="edge">
<title>x&#45;lm2&#45;vec&#45;&gt;backward</title>
<path fill="none" stroke="#ff0000" stroke-width=".2544" d="M303.0397,-286.1823C324.7764,-277.6336 357.7901,-264.0631 385.5,-250.1909 392.7812,-246.5458 400.3879,-242.4099 407.6788,-238.2718"/>
<polygon fill="#ff0000" stroke="#ff0000" stroke-width=".2544" points="409.7861,-241.0967 416.6967,-233.0658 406.2863,-235.0344 409.7861,-241.0967"/>
</g>
<!-- y&#45;lm2&#45;vec -->
<g id="node8" class="node">
<title>y&#45;lm2&#45;vec</title>
<polygon fill="#d3d3d3" stroke="#000000" points="706,-304.1909 653,-304.1909 653,-286.1909 706,-286.1909 706,-304.1909"/>
<text text-anchor="middle" x="679.5" y="-292.9909" font-family="Times,serif" font-size="9.00" fill="#000000">y&#45;lm2&#45;vec</text>
</g>
<!-- y&#45;lm2&#45;vec&#45;&gt;none -->
<g id="edge29" class="edge">
<title>y&#45;lm2&#45;vec&#45;&gt;none</title>
<path fill="none" stroke="#ff0000" stroke-width=".6224" stroke-dasharray="1,5" d="M671.5848,-285.892C662.1799,-274.8429 646.0869,-255.9366 632.7796,-240.3029"/>
<polygon fill="#ff0000" stroke="#ff0000" stroke-width=".6224" points="635.2719,-237.8311 626.1248,-232.4848 629.9414,-242.3683 635.2719,-237.8311"/>
</g>
<!-- x&#45;other&#45;vec -->
<g id="node9" class="node">
<title>x&#45;other&#45;vec</title>
<polygon fill="#d3d3d3" stroke="#000000" points="782.5,-304.1909 724.5,-304.1909 724.5,-286.1909 782.5,-286.1909 782.5,-304.1909"/>
<text text-anchor="middle" x="753.5" y="-292.9909" font-family="Times,serif" font-size="9.00" fill="#000000">x&#45;other&#45;vec</text>
</g>
<!-- x&#45;other&#45;vec&#45;&gt;none -->
<g id="edge3" class="edge">
<title>x&#45;other&#45;vec&#45;&gt;none</title>
<path fill="none" stroke="#ff0000" stroke-width=".4382" d="M735.967,-286.1686C718.863,-277.2804 692.1817,-263.1843 669.5,-250.1909 659.7115,-244.5835 649.1595,-238.2337 639.7235,-232.4421"/>
<polygon fill="#ff0000" stroke="#ff0000" stroke-width=".4382" points="641.4269,-229.3804 631.0798,-227.1027 637.7482,-235.3359 641.4269,-229.3804"/>
</g>
<!-- x&#45;other&#45;vec&#45;&gt;forward -->
<g id="edge27" class="edge">
<title>x&#45;other&#45;vec&#45;&gt;forward</title>
<path fill="none" stroke="#ff0000" stroke-width=".3018" stroke-dasharray="1,5" d="M746.7877,-286.1251C721.2029,-251.5698 628.9699,-126.998 583.7928,-65.9807"/>
<polygon fill="#ff0000" stroke="#ff0000" stroke-width=".3018" points="586.5057,-63.7629 577.7422,-57.8087 580.8798,-67.9283 586.5057,-63.7629"/>
</g>
<!-- 518 -->
<g id="node19" class="node">
<title>518</title>
<ellipse fill="#ffffff" stroke="#000000" cx="738.5" cy="-120.8528" rx="21.4286" ry="21.4286"/>
<text text-anchor="middle" x="738.5" y="-118.6528" font-family="Times,serif" font-size="9.00" fill="#000000">518</text>
</g>
<!-- x&#45;other&#45;vec&#45;&gt;518 -->
<g id="edge35" class="edge">
<title>x&#45;other&#45;vec&#45;&gt;518</title>
<path fill="none" stroke="#00ff00" stroke-width=".3739" d="M752.6935,-285.8177C750.5597,-261.0166 744.6909,-192.8066 741.2042,-152.282"/>
<polygon fill="#00ff00" stroke="#00ff00" stroke-width=".3739" points="744.6753,-151.7951 740.3309,-142.132 737.7011,-152.3952 744.6753,-151.7951"/>
</g>
<!-- y&#45;other&#45;vec -->
<g id="node10" class="node">
<title>y&#45;other&#45;vec</title>
<polygon fill="#d3d3d3" stroke="#000000" points="435.5,-304.1909 377.5,-304.1909 377.5,-286.1909 435.5,-286.1909 435.5,-304.1909"/>
<text text-anchor="middle" x="406.5" y="-292.9909" font-family="Times,serif" font-size="9.00" fill="#000000">y&#45;other&#45;vec</text>
</g>
<!-- y&#45;other&#45;vec&#45;&gt;left -->
<g id="edge21" class="edge">
<title>y&#45;other&#45;vec&#45;&gt;left</title>
<path fill="none" stroke="#ff0000" stroke-width=".4131" stroke-dasharray="1,5" d="M400.7644,-285.892C393.9027,-274.7675 382.1283,-255.6783 372.4476,-239.9834"/>
<polygon fill="#ff0000" stroke="#ff0000" stroke-width=".4131" points="375.2713,-237.8944 367.0426,-231.2207 369.3135,-241.5693 375.2713,-237.8944"/>
</g>
<!-- y&#45;other&#45;vec&#45;&gt;backward -->
<g id="edge23" class="edge">
<title>y&#45;other&#45;vec&#45;&gt;backward</title>
<path fill="none" stroke="#ff0000" stroke-width=".4173" d="M411.2032,-285.892C415.0537,-278.279 420.7909,-266.9359 426.5733,-255.5032"/>
<polygon fill="#ff0000" stroke="#ff0000" stroke-width=".4173" points="429.7951,-256.8881 431.1853,-246.3848 423.5486,-253.7287 429.7951,-256.8881"/>
</g>
<!-- x&#45;other&#45;vel -->
<g id="node11" class="node">
<title>x&#45;other&#45;vel</title>
<polygon fill="#d3d3d3" stroke="#000000" points="509.5,-304.1909 453.5,-304.1909 453.5,-286.1909 509.5,-286.1909 509.5,-304.1909"/>
<text text-anchor="middle" x="481.5" y="-292.9909" font-family="Times,serif" font-size="9.00" fill="#000000">x&#45;other&#45;vel</text>
</g>
<!-- x&#45;other&#45;vel&#45;&gt;left -->
<g id="edge7" class="edge">
<title>x&#45;other&#45;vel&#45;&gt;left</title>
<path fill="none" stroke="#00ff00" stroke-width=".3373" d="M463.7974,-286.0733C447.4877,-277.4495 422.8113,-263.8298 402.5,-250.1909 394.8705,-245.0678 386.8823,-239.0563 379.744,-233.4261"/>
<polygon fill="#00ff00" stroke="#00ff00" stroke-width=".3373" points="381.8155,-230.6008 371.827,-227.068 377.4323,-236.0586 381.8155,-230.6008"/>
</g>
<!-- x&#45;other&#45;vel&#45;&gt;backward -->
<g id="edge26" class="edge">
<title>x&#45;other&#45;vel&#45;&gt;backward</title>
<path fill="none" stroke="#ff0000" stroke-width=".2947" d="M477.5998,-285.892C474.52,-278.5493 469.9849,-267.7367 465.3644,-256.7206"/>
<polygon fill="#ff0000" stroke="#ff0000" stroke-width=".2947" points="468.5887,-255.3588 461.4932,-247.4908 462.1335,-258.0663 468.5887,-255.3588"/>
</g>
<!-- y&#45;other&#45;vel -->
<g id="node12" class="node">
<title>y&#45;other&#45;vel</title>
<polygon fill="#d3d3d3" stroke="#000000" points="180.5,-304.1909 124.5,-304.1909 124.5,-286.1909 180.5,-286.1909 180.5,-304.1909"/>
<text text-anchor="middle" x="152.5" y="-292.9909" font-family="Times,serif" font-size="9.00" fill="#000000">y&#45;other&#45;vel</text>
</g>
<!-- y&#45;other&#45;vel&#45;&gt;right -->
<g id="edge13" class="edge">
<title>y&#45;other&#45;vel&#45;&gt;right</title>
<path fill="none" stroke="#00ff00" stroke-width=".121" stroke-dasharray="1,5" d="M159.8416,-285.892C168.485,-274.9443 183.2185,-256.2829 195.4945,-240.734"/>
<polygon fill="#00ff00" stroke="#00ff00" stroke-width=".121" points="198.5578,-242.5023 202.0074,-232.4848 193.0637,-238.1646 198.5578,-242.5023"/>
</g>
<!-- y&#45;other&#45;vel&#45;&gt;left -->
<g id="edge17" class="edge">
<title>y&#45;other&#45;vel&#45;&gt;left</title>
<path fill="none" stroke="#00ff00" stroke-width=".3603" stroke-dasharray="1,5" d="M175.5048,-286.0496C213.2405,-271.0548 288.1434,-241.291 328.7579,-225.1522"/>
<polygon fill="#00ff00" stroke="#00ff00" stroke-width=".3603" points="330.0641,-228.3994 338.0648,-221.454 327.4791,-221.8942 330.0641,-228.3994"/>
</g>
<!-- none&#45;&gt;none -->
<g id="edge10" class="edge">
<title>none&#45;&gt;none</title>
<path fill="none" stroke="#ff0000" stroke-width=".3075" d="M630.3966,-228.3045C641.8653,-231.1976 652.5416,-226.4722 652.5416,-214.1285 652.5416,-205.6421 647.4954,-200.7567 640.6147,-199.4721"/>
<polygon fill="#ff0000" stroke="#ff0000" stroke-width=".3075" points="640.2212,-195.9867 630.3966,-199.9524 640.5499,-202.979 640.2212,-195.9867"/>
</g>
<!-- 320 -->
<g id="node18" class="node">
<title>320</title>
<ellipse fill="#ffffff" stroke="#000000" cx="387.5" cy="-120.8528" rx="21.4286" ry="21.4286"/>
<text text-anchor="middle" x="387.5" y="-118.6528" font-family="Times,serif" font-size="9.00" fill="#000000">320</text>
</g>
<!-- right&#45;&gt;320 -->
<g id="edge32" class="edge">
<title>right&#45;&gt;320</title>
<path fill="none" stroke="#00ff00" stroke-width=".6732" d="M237.1266,-202.8772C267.7374,-186.1799 325.2616,-154.8021 359.6045,-136.069"/>
<polygon fill="#00ff00" stroke="#00ff00" stroke-width=".6732" points="361.5317,-139.0047 368.6346,-131.1434 358.1797,-132.8594 361.5317,-139.0047"/>
</g>
<!-- forward&#45;&gt;forward -->
<g id="edge6" class="edge">
<title>forward&#45;&gt;forward</title>
<path fill="none" stroke="#ff0000" stroke-width=".4593" stroke-dasharray="1,5" d="M585.913,-48.0932C597.9564,-49.5333 608.3198,-44.1089 608.3198,-31.8198 608.3198,-23.1791 603.1963,-17.9321 595.9677,-16.0788"/>
<polygon fill="#ff0000" stroke="#ff0000" stroke-width=".4593" points="596.0841,-12.5802 585.913,-15.5464 595.7139,-19.5704 596.0841,-12.5802"/>
</g>
<!-- forward&#45;&gt;320 -->
<g id="edge30" class="edge">
<title>forward&#45;&gt;320</title>
<path fill="none" stroke="#ff0000" stroke-width=".3749" d="M530.4258,-46.8305C503.1424,-59.637 461.265,-79.1812 426.5,-99.6396 422.9128,-101.7506 419.2053,-104.1636 415.5228,-106.5875"/>
<polygon fill="#ff0000" stroke="#ff0000" stroke-width=".3749" points="413.502,-103.7269 407.0441,-112.1261 417.3303,-109.5873 413.502,-103.7269"/>
</g>
<!-- backward&#45;&gt;backward -->
<g id="edge15" class="edge">
<title>backward&#45;&gt;backward</title>
<path fill="none" stroke="#ff0000" stroke-width=".3477" stroke-dasharray="1,5" d="M480.4935,-229.1202C492.1247,-229.3601 501.5624,-224.3628 501.5624,-214.1285 501.5624,-207.0923 497.1016,-202.5316 490.5341,-200.4461"/>
<polygon fill="#ff0000" stroke="#ff0000" stroke-width=".3477" points="490.8622,-196.9594 480.4935,-199.1367 489.9569,-203.9006 490.8622,-196.9594"/>
</g>
<!-- 432 -->
<g id="node20" class="node">
<title>432</title>
<ellipse fill="#ffffff" stroke="#000000" cx="447.5" cy="-120.8528" rx="21.4286" ry="21.4286"/>
<text text-anchor="middle" x="447.5" y="-118.6528" font-family="Times,serif" font-size="9.00" fill="#000000">432</text>
</g>
<!-- backward&#45;&gt;432 -->
<g id="edge33" class="edge">
<title>backward&#45;&gt;432</title>
<path fill="none" stroke="#00ff00" stroke-width=".1551" d="M440.9231,-178.5989C440.6399,-169.668 440.7042,-160.1602 441.1162,-151.4915"/>
<polygon fill="#00ff00" stroke="#00ff00" stroke-width=".1551" points="444.6139,-151.6408 441.7911,-141.429 437.6296,-151.1723 444.6139,-151.6408"/>
</g>
<!-- 320&#45;&gt;forward -->
<g id="edge31" class="edge">
<title>320&#45;&gt;forward</title>
<path fill="none" stroke="#00ff00" stroke-width=".2476" d="M401.215,-104.2328C403.6074,-102.6239 406.0811,-101.0631 408.5,-99.6396 444.3062,-78.5685 487.657,-58.4672 518.6759,-45.6982"/>
<polygon fill="#00ff00" stroke="#00ff00" stroke-width=".2476" points="520.3254,-48.8068 528.2884,-41.8181 517.7052,-42.3156 520.3254,-48.8068"/>
</g>
<!-- 518&#45;&gt;forward -->
<g id="edge36" class="edge">
<title>518&#45;&gt;forward</title>
<path fill="none" stroke="#ff0000" stroke-width=".3001" d="M719.3581,-110.8306C712.4835,-107.2626 704.6609,-103.2384 697.5,-99.6396 663.443,-82.5237 624.4165,-63.5366 596.4033,-50.0162"/>
<polygon fill="#ff0000" stroke="#ff0000" stroke-width=".3001" points="597.8764,-46.8408 587.3485,-45.6511 594.8366,-53.1464 597.8764,-46.8408"/>
</g>
<!-- 432&#45;&gt;backward -->
<g id="edge34" class="edge">
<title>432&#45;&gt;backward</title>
<path fill="none" stroke="#00ff00" stroke-width=".3735" d="M453.2089,-141.429C453.9265,-149.4368 454.2731,-158.9543 454.2488,-168.4207"/>
<polygon fill="#00ff00" stroke="#00ff00" stroke-width=".3735" points="450.7464,-168.5411 454.0769,-178.5989 457.7454,-168.6594 450.7464,-168.5411"/>
</g>
</g>
</svg>
