<?xml version="1.0" encoding="utf-8" standalone="no"?>
<!DOCTYPE svg PUBLIC "-//W3C//DTD SVG 1.1//EN"
  "http://www.w3.org/Graphics/SVG/1.1/DTD/svg11.dtd">
<!-- Created with matplotlib (https://matplotlib.org/) -->
<svg height="345.6pt" version="1.1" viewBox="0 0 460.8 345.6" width="460.8pt" xmlns="http://www.w3.org/2000/svg" xmlns:xlink="http://www.w3.org/1999/xlink">
 <metadata>
  <rdf:RDF xmlns:cc="http://creativecommons.org/ns#" xmlns:dc="http://purl.org/dc/elements/1.1/" xmlns:rdf="http://www.w3.org/1999/02/22-rdf-syntax-ns#">
   <cc:Work>
    <dc:type rdf:resource="http://purl.org/dc/dcmitype/StillImage"/>
    <dc:date>2021-04-14T23:49:12.238154</dc:date>
    <dc:format>image/svg+xml</dc:format>
    <dc:creator>
     <cc:Agent>
      <dc:title>Matplotlib v3.3.4, https://matplotlib.org/</dc:title>
     </cc:Agent>
    </dc:creator>
   </cc:Work>
  </rdf:RDF>
 </metadata>
 <defs>
  <style type="text/css">*{stroke-linecap:butt;stroke-linejoin:round;}</style>
 </defs>
 <g id="figure_1">
  <g id="patch_1">
   <path d="M 0 345.6 
L 460.8 345.6 
L 460.8 0 
L 0 0 
z
" style="fill:#ffffff;"/>
  </g>
  <g id="axes_1">
   <g id="patch_2">
    <path d="M 57.6 307.584 
L 414.72 307.584 
L 414.72 41.472 
L 57.6 41.472 
z
" style="fill:#ffffff;"/>
   </g>
   <g id="matplotlib.axis_1">
    <g id="xtick_1">
     <g id="line2d_1">
      <path clip-path="url(#p34abcc845a)" d="M 73.832727 307.584 
L 73.832727 41.472 
" style="fill:none;stroke:#b0b0b0;stroke-linecap:square;stroke-width:0.8;"/>
     </g>
     <g id="line2d_2">
      <defs>
       <path d="M 0 0 
L 0 3.5 
" id="m75b0197091" style="stroke:#000000;stroke-width:0.8;"/>
      </defs>
      <g>
       <use style="stroke:#000000;stroke-width:0.8;" x="73.832727" xlink:href="#m75b0197091" y="307.584"/>
      </g>
     </g>
     <g id="text_1">
      <!-- 0 -->
      <g transform="translate(70.651477 322.182437)scale(0.1 -0.1)">
       <defs>
        <path d="M 31.78125 66.40625 
Q 24.171875 66.40625 20.328125 58.90625 
Q 16.5 51.421875 16.5 36.375 
Q 16.5 21.390625 20.328125 13.890625 
Q 24.171875 6.390625 31.78125 6.390625 
Q 39.453125 6.390625 43.28125 13.890625 
Q 47.125 21.390625 47.125 36.375 
Q 47.125 51.421875 43.28125 58.90625 
Q 39.453125 66.40625 31.78125 66.40625 
z
M 31.78125 74.21875 
Q 44.046875 74.21875 50.515625 64.515625 
Q 56.984375 54.828125 56.984375 36.375 
Q 56.984375 17.96875 50.515625 8.265625 
Q 44.046875 -1.421875 31.78125 -1.421875 
Q 19.53125 -1.421875 13.0625 8.265625 
Q 6.59375 17.96875 6.59375 36.375 
Q 6.59375 54.828125 13.0625 64.515625 
Q 19.53125 74.21875 31.78125 74.21875 
z
" id="DejaVuSans-48"/>
       </defs>
       <use xlink:href="#DejaVuSans-48"/>
      </g>
     </g>
    </g>
    <g id="xtick_2">
     <g id="line2d_3">
      <path clip-path="url(#p34abcc845a)" d="M 117.235741 307.584 
L 117.235741 41.472 
" style="fill:none;stroke:#b0b0b0;stroke-linecap:square;stroke-width:0.8;"/>
     </g>
     <g id="line2d_4">
      <g>
       <use style="stroke:#000000;stroke-width:0.8;" x="117.235741" xlink:href="#m75b0197091" y="307.584"/>
      </g>
     </g>
     <g id="text_2">
      <!-- 50 -->
      <g transform="translate(110.873241 322.182437)scale(0.1 -0.1)">
       <defs>
        <path d="M 10.796875 72.90625 
L 49.515625 72.90625 
L 49.515625 64.59375 
L 19.828125 64.59375 
L 19.828125 46.734375 
Q 21.96875 47.46875 24.109375 47.828125 
Q 26.265625 48.1875 28.421875 48.1875 
Q 40.625 48.1875 47.75 41.5 
Q 54.890625 34.8125 54.890625 23.390625 
Q 54.890625 11.625 47.5625 5.09375 
Q 40.234375 -1.421875 26.90625 -1.421875 
Q 22.3125 -1.421875 17.546875 -0.640625 
Q 12.796875 0.140625 7.71875 1.703125 
L 7.71875 11.625 
Q 12.109375 9.234375 16.796875 8.0625 
Q 21.484375 6.890625 26.703125 6.890625 
Q 35.15625 6.890625 40.078125 11.328125 
Q 45.015625 15.765625 45.015625 23.390625 
Q 45.015625 31 40.078125 35.4375 
Q 35.15625 39.890625 26.703125 39.890625 
Q 22.75 39.890625 18.8125 39.015625 
Q 14.890625 38.140625 10.796875 36.28125 
z
" id="DejaVuSans-53"/>
       </defs>
       <use xlink:href="#DejaVuSans-53"/>
       <use x="63.623047" xlink:href="#DejaVuSans-48"/>
      </g>
     </g>
    </g>
    <g id="xtick_3">
     <g id="line2d_5">
      <path clip-path="url(#p34abcc845a)" d="M 160.638755 307.584 
L 160.638755 41.472 
" style="fill:none;stroke:#b0b0b0;stroke-linecap:square;stroke-width:0.8;"/>
     </g>
     <g id="line2d_6">
      <g>
       <use style="stroke:#000000;stroke-width:0.8;" x="160.638755" xlink:href="#m75b0197091" y="307.584"/>
      </g>
     </g>
     <g id="text_3">
      <!-- 100 -->
      <g transform="translate(151.095005 322.182437)scale(0.1 -0.1)">
       <defs>
        <path d="M 12.40625 8.296875 
L 28.515625 8.296875 
L 28.515625 63.921875 
L 10.984375 60.40625 
L 10.984375 69.390625 
L 28.421875 72.90625 
L 38.28125 72.90625 
L 38.28125 8.296875 
L 54.390625 8.296875 
L 54.390625 0 
L 12.40625 0 
z
" id="DejaVuSans-49"/>
       </defs>
       <use xlink:href="#DejaVuSans-49"/>
       <use x="63.623047" xlink:href="#DejaVuSans-48"/>
       <use x="127.246094" xlink:href="#DejaVuSans-48"/>
      </g>
     </g>
    </g>
    <g id="xtick_4">
     <g id="line2d_7">
      <path clip-path="url(#p34abcc845a)" d="M 204.04177 307.584 
L 204.04177 41.472 
" style="fill:none;stroke:#b0b0b0;stroke-linecap:square;stroke-width:0.8;"/>
     </g>
     <g id="line2d_8">
      <g>
       <use style="stroke:#000000;stroke-width:0.8;" x="204.04177" xlink:href="#m75b0197091" y="307.584"/>
      </g>
     </g>
     <g id="text_4">
      <!-- 150 -->
      <g transform="translate(194.49802 322.182437)scale(0.1 -0.1)">
       <use xlink:href="#DejaVuSans-49"/>
       <use x="63.623047" xlink:href="#DejaVuSans-53"/>
       <use x="127.246094" xlink:href="#DejaVuSans-48"/>
      </g>
     </g>
    </g>
    <g id="xtick_5">
     <g id="line2d_9">
      <path clip-path="url(#p34abcc845a)" d="M 247.444784 307.584 
L 247.444784 41.472 
" style="fill:none;stroke:#b0b0b0;stroke-linecap:square;stroke-width:0.8;"/>
     </g>
     <g id="line2d_10">
      <g>
       <use style="stroke:#000000;stroke-width:0.8;" x="247.444784" xlink:href="#m75b0197091" y="307.584"/>
      </g>
     </g>
     <g id="text_5">
      <!-- 200 -->
      <g transform="translate(237.901034 322.182437)scale(0.1 -0.1)">
       <defs>
        <path d="M 19.1875 8.296875 
L 53.609375 8.296875 
L 53.609375 0 
L 7.328125 0 
L 7.328125 8.296875 
Q 12.9375 14.109375 22.625 23.890625 
Q 32.328125 33.6875 34.8125 36.53125 
Q 39.546875 41.84375 41.421875 45.53125 
Q 43.3125 49.21875 43.3125 52.78125 
Q 43.3125 58.59375 39.234375 62.25 
Q 35.15625 65.921875 28.609375 65.921875 
Q 23.96875 65.921875 18.8125 64.3125 
Q 13.671875 62.703125 7.8125 59.421875 
L 7.8125 69.390625 
Q 13.765625 71.78125 18.9375 73 
Q 24.125 74.21875 28.421875 74.21875 
Q 39.75 74.21875 46.484375 68.546875 
Q 53.21875 62.890625 53.21875 53.421875 
Q 53.21875 48.921875 51.53125 44.890625 
Q 49.859375 40.875 45.40625 35.40625 
Q 44.1875 33.984375 37.640625 27.21875 
Q 31.109375 20.453125 19.1875 8.296875 
z
" id="DejaVuSans-50"/>
       </defs>
       <use xlink:href="#DejaVuSans-50"/>
       <use x="63.623047" xlink:href="#DejaVuSans-48"/>
       <use x="127.246094" xlink:href="#DejaVuSans-48"/>
      </g>
     </g>
    </g>
    <g id="xtick_6">
     <g id="line2d_11">
      <path clip-path="url(#p34abcc845a)" d="M 290.847798 307.584 
L 290.847798 41.472 
" style="fill:none;stroke:#b0b0b0;stroke-linecap:square;stroke-width:0.8;"/>
     </g>
     <g id="line2d_12">
      <g>
       <use style="stroke:#000000;stroke-width:0.8;" x="290.847798" xlink:href="#m75b0197091" y="307.584"/>
      </g>
     </g>
     <g id="text_6">
      <!-- 250 -->
      <g transform="translate(281.304048 322.182437)scale(0.1 -0.1)">
       <use xlink:href="#DejaVuSans-50"/>
       <use x="63.623047" xlink:href="#DejaVuSans-53"/>
       <use x="127.246094" xlink:href="#DejaVuSans-48"/>
      </g>
     </g>
    </g>
    <g id="xtick_7">
     <g id="line2d_13">
      <path clip-path="url(#p34abcc845a)" d="M 334.250812 307.584 
L 334.250812 41.472 
" style="fill:none;stroke:#b0b0b0;stroke-linecap:square;stroke-width:0.8;"/>
     </g>
     <g id="line2d_14">
      <g>
       <use style="stroke:#000000;stroke-width:0.8;" x="334.250812" xlink:href="#m75b0197091" y="307.584"/>
      </g>
     </g>
     <g id="text_7">
      <!-- 300 -->
      <g transform="translate(324.707062 322.182437)scale(0.1 -0.1)">
       <defs>
        <path d="M 40.578125 39.3125 
Q 47.65625 37.796875 51.625 33 
Q 55.609375 28.21875 55.609375 21.1875 
Q 55.609375 10.40625 48.1875 4.484375 
Q 40.765625 -1.421875 27.09375 -1.421875 
Q 22.515625 -1.421875 17.65625 -0.515625 
Q 12.796875 0.390625 7.625 2.203125 
L 7.625 11.71875 
Q 11.71875 9.328125 16.59375 8.109375 
Q 21.484375 6.890625 26.8125 6.890625 
Q 36.078125 6.890625 40.9375 10.546875 
Q 45.796875 14.203125 45.796875 21.1875 
Q 45.796875 27.640625 41.28125 31.265625 
Q 36.765625 34.90625 28.71875 34.90625 
L 20.21875 34.90625 
L 20.21875 43.015625 
L 29.109375 43.015625 
Q 36.375 43.015625 40.234375 45.921875 
Q 44.09375 48.828125 44.09375 54.296875 
Q 44.09375 59.90625 40.109375 62.90625 
Q 36.140625 65.921875 28.71875 65.921875 
Q 24.65625 65.921875 20.015625 65.03125 
Q 15.375 64.15625 9.8125 62.3125 
L 9.8125 71.09375 
Q 15.4375 72.65625 20.34375 73.4375 
Q 25.25 74.21875 29.59375 74.21875 
Q 40.828125 74.21875 47.359375 69.109375 
Q 53.90625 64.015625 53.90625 55.328125 
Q 53.90625 49.265625 50.4375 45.09375 
Q 46.96875 40.921875 40.578125 39.3125 
z
" id="DejaVuSans-51"/>
       </defs>
       <use xlink:href="#DejaVuSans-51"/>
       <use x="63.623047" xlink:href="#DejaVuSans-48"/>
       <use x="127.246094" xlink:href="#DejaVuSans-48"/>
      </g>
     </g>
    </g>
    <g id="xtick_8">
     <g id="line2d_15">
      <path clip-path="url(#p34abcc845a)" d="M 377.653826 307.584 
L 377.653826 41.472 
" style="fill:none;stroke:#b0b0b0;stroke-linecap:square;stroke-width:0.8;"/>
     </g>
     <g id="line2d_16">
      <g>
       <use style="stroke:#000000;stroke-width:0.8;" x="377.653826" xlink:href="#m75b0197091" y="307.584"/>
      </g>
     </g>
     <g id="text_8">
      <!-- 350 -->
      <g transform="translate(368.110076 322.182437)scale(0.1 -0.1)">
       <use xlink:href="#DejaVuSans-51"/>
       <use x="63.623047" xlink:href="#DejaVuSans-53"/>
       <use x="127.246094" xlink:href="#DejaVuSans-48"/>
      </g>
     </g>
    </g>
    <g id="text_9">
     <!-- Generations -->
     <g transform="translate(205.662344 335.860562)scale(0.1 -0.1)">
      <defs>
       <path d="M 59.515625 10.40625 
L 59.515625 29.984375 
L 43.40625 29.984375 
L 43.40625 38.09375 
L 69.28125 38.09375 
L 69.28125 6.78125 
Q 63.578125 2.734375 56.6875 0.65625 
Q 49.8125 -1.421875 42 -1.421875 
Q 24.90625 -1.421875 15.25 8.5625 
Q 5.609375 18.5625 5.609375 36.375 
Q 5.609375 54.25 15.25 64.234375 
Q 24.90625 74.21875 42 74.21875 
Q 49.125 74.21875 55.546875 72.453125 
Q 61.96875 70.703125 67.390625 67.28125 
L 67.390625 56.78125 
Q 61.921875 61.421875 55.765625 63.765625 
Q 49.609375 66.109375 42.828125 66.109375 
Q 29.4375 66.109375 22.71875 58.640625 
Q 16.015625 51.171875 16.015625 36.375 
Q 16.015625 21.625 22.71875 14.15625 
Q 29.4375 6.6875 42.828125 6.6875 
Q 48.046875 6.6875 52.140625 7.59375 
Q 56.25 8.5 59.515625 10.40625 
z
" id="DejaVuSans-71"/>
       <path d="M 56.203125 29.59375 
L 56.203125 25.203125 
L 14.890625 25.203125 
Q 15.484375 15.921875 20.484375 11.0625 
Q 25.484375 6.203125 34.421875 6.203125 
Q 39.59375 6.203125 44.453125 7.46875 
Q 49.3125 8.734375 54.109375 11.28125 
L 54.109375 2.78125 
Q 49.265625 0.734375 44.1875 -0.34375 
Q 39.109375 -1.421875 33.890625 -1.421875 
Q 20.796875 -1.421875 13.15625 6.1875 
Q 5.515625 13.8125 5.515625 26.8125 
Q 5.515625 40.234375 12.765625 48.109375 
Q 20.015625 56 32.328125 56 
Q 43.359375 56 49.78125 48.890625 
Q 56.203125 41.796875 56.203125 29.59375 
z
M 47.21875 32.234375 
Q 47.125 39.59375 43.09375 43.984375 
Q 39.0625 48.390625 32.421875 48.390625 
Q 24.90625 48.390625 20.390625 44.140625 
Q 15.875 39.890625 15.1875 32.171875 
z
" id="DejaVuSans-101"/>
       <path d="M 54.890625 33.015625 
L 54.890625 0 
L 45.90625 0 
L 45.90625 32.71875 
Q 45.90625 40.484375 42.875 44.328125 
Q 39.84375 48.1875 33.796875 48.1875 
Q 26.515625 48.1875 22.3125 43.546875 
Q 18.109375 38.921875 18.109375 30.90625 
L 18.109375 0 
L 9.078125 0 
L 9.078125 54.6875 
L 18.109375 54.6875 
L 18.109375 46.1875 
Q 21.34375 51.125 25.703125 53.5625 
Q 30.078125 56 35.796875 56 
Q 45.21875 56 50.046875 50.171875 
Q 54.890625 44.34375 54.890625 33.015625 
z
" id="DejaVuSans-110"/>
       <path d="M 41.109375 46.296875 
Q 39.59375 47.171875 37.8125 47.578125 
Q 36.03125 48 33.890625 48 
Q 26.265625 48 22.1875 43.046875 
Q 18.109375 38.09375 18.109375 28.8125 
L 18.109375 0 
L 9.078125 0 
L 9.078125 54.6875 
L 18.109375 54.6875 
L 18.109375 46.1875 
Q 20.953125 51.171875 25.484375 53.578125 
Q 30.03125 56 36.53125 56 
Q 37.453125 56 38.578125 55.875 
Q 39.703125 55.765625 41.0625 55.515625 
z
" id="DejaVuSans-114"/>
       <path d="M 34.28125 27.484375 
Q 23.390625 27.484375 19.1875 25 
Q 14.984375 22.515625 14.984375 16.5 
Q 14.984375 11.71875 18.140625 8.90625 
Q 21.296875 6.109375 26.703125 6.109375 
Q 34.1875 6.109375 38.703125 11.40625 
Q 43.21875 16.703125 43.21875 25.484375 
L 43.21875 27.484375 
z
M 52.203125 31.203125 
L 52.203125 0 
L 43.21875 0 
L 43.21875 8.296875 
Q 40.140625 3.328125 35.546875 0.953125 
Q 30.953125 -1.421875 24.3125 -1.421875 
Q 15.921875 -1.421875 10.953125 3.296875 
Q 6 8.015625 6 15.921875 
Q 6 25.140625 12.171875 29.828125 
Q 18.359375 34.515625 30.609375 34.515625 
L 43.21875 34.515625 
L 43.21875 35.40625 
Q 43.21875 41.609375 39.140625 45 
Q 35.0625 48.390625 27.6875 48.390625 
Q 23 48.390625 18.546875 47.265625 
Q 14.109375 46.140625 10.015625 43.890625 
L 10.015625 52.203125 
Q 14.9375 54.109375 19.578125 55.046875 
Q 24.21875 56 28.609375 56 
Q 40.484375 56 46.34375 49.84375 
Q 52.203125 43.703125 52.203125 31.203125 
z
" id="DejaVuSans-97"/>
       <path d="M 18.3125 70.21875 
L 18.3125 54.6875 
L 36.8125 54.6875 
L 36.8125 47.703125 
L 18.3125 47.703125 
L 18.3125 18.015625 
Q 18.3125 11.328125 20.140625 9.421875 
Q 21.96875 7.515625 27.59375 7.515625 
L 36.8125 7.515625 
L 36.8125 0 
L 27.59375 0 
Q 17.1875 0 13.234375 3.875 
Q 9.28125 7.765625 9.28125 18.015625 
L 9.28125 47.703125 
L 2.6875 47.703125 
L 2.6875 54.6875 
L 9.28125 54.6875 
L 9.28125 70.21875 
z
" id="DejaVuSans-116"/>
       <path d="M 9.421875 54.6875 
L 18.40625 54.6875 
L 18.40625 0 
L 9.421875 0 
z
M 9.421875 75.984375 
L 18.40625 75.984375 
L 18.40625 64.59375 
L 9.421875 64.59375 
z
" id="DejaVuSans-105"/>
       <path d="M 30.609375 48.390625 
Q 23.390625 48.390625 19.1875 42.75 
Q 14.984375 37.109375 14.984375 27.296875 
Q 14.984375 17.484375 19.15625 11.84375 
Q 23.34375 6.203125 30.609375 6.203125 
Q 37.796875 6.203125 41.984375 11.859375 
Q 46.1875 17.53125 46.1875 27.296875 
Q 46.1875 37.015625 41.984375 42.703125 
Q 37.796875 48.390625 30.609375 48.390625 
z
M 30.609375 56 
Q 42.328125 56 49.015625 48.375 
Q 55.71875 40.765625 55.71875 27.296875 
Q 55.71875 13.875 49.015625 6.21875 
Q 42.328125 -1.421875 30.609375 -1.421875 
Q 18.84375 -1.421875 12.171875 6.21875 
Q 5.515625 13.875 5.515625 27.296875 
Q 5.515625 40.765625 12.171875 48.375 
Q 18.84375 56 30.609375 56 
z
" id="DejaVuSans-111"/>
       <path d="M 44.28125 53.078125 
L 44.28125 44.578125 
Q 40.484375 46.53125 36.375 47.5 
Q 32.28125 48.484375 27.875 48.484375 
Q 21.1875 48.484375 17.84375 46.4375 
Q 14.5 44.390625 14.5 40.28125 
Q 14.5 37.15625 16.890625 35.375 
Q 19.28125 33.59375 26.515625 31.984375 
L 29.59375 31.296875 
Q 39.15625 29.25 43.1875 25.515625 
Q 47.21875 21.78125 47.21875 15.09375 
Q 47.21875 7.46875 41.1875 3.015625 
Q 35.15625 -1.421875 24.609375 -1.421875 
Q 20.21875 -1.421875 15.453125 -0.5625 
Q 10.6875 0.296875 5.421875 2 
L 5.421875 11.28125 
Q 10.40625 8.6875 15.234375 7.390625 
Q 20.0625 6.109375 24.8125 6.109375 
Q 31.15625 6.109375 34.5625 8.28125 
Q 37.984375 10.453125 37.984375 14.40625 
Q 37.984375 18.0625 35.515625 20.015625 
Q 33.0625 21.96875 24.703125 23.78125 
L 21.578125 24.515625 
Q 13.234375 26.265625 9.515625 29.90625 
Q 5.8125 33.546875 5.8125 39.890625 
Q 5.8125 47.609375 11.28125 51.796875 
Q 16.75 56 26.8125 56 
Q 31.78125 56 36.171875 55.265625 
Q 40.578125 54.546875 44.28125 53.078125 
z
" id="DejaVuSans-115"/>
      </defs>
      <use xlink:href="#DejaVuSans-71"/>
      <use x="77.490234" xlink:href="#DejaVuSans-101"/>
      <use x="139.013672" xlink:href="#DejaVuSans-110"/>
      <use x="202.392578" xlink:href="#DejaVuSans-101"/>
      <use x="263.916016" xlink:href="#DejaVuSans-114"/>
      <use x="305.029297" xlink:href="#DejaVuSans-97"/>
      <use x="366.308594" xlink:href="#DejaVuSans-116"/>
      <use x="405.517578" xlink:href="#DejaVuSans-105"/>
      <use x="433.300781" xlink:href="#DejaVuSans-111"/>
      <use x="494.482422" xlink:href="#DejaVuSans-110"/>
      <use x="557.861328" xlink:href="#DejaVuSans-115"/>
     </g>
    </g>
   </g>
   <g id="matplotlib.axis_2">
    <g id="ytick_1">
     <g id="line2d_17">
      <path clip-path="url(#p34abcc845a)" d="M 57.6 203.638383 
L 414.72 203.638383 
" style="fill:none;stroke:#b0b0b0;stroke-linecap:square;stroke-width:0.8;"/>
     </g>
     <g id="line2d_18">
      <defs>
       <path d="M 0 0 
L -3.5 0 
" id="m0ae9dedc1c" style="stroke:#000000;stroke-width:0.8;"/>
      </defs>
      <g>
       <use style="stroke:#000000;stroke-width:0.8;" x="57.6" xlink:href="#m0ae9dedc1c" y="203.638383"/>
      </g>
     </g>
     <g id="text_10">
      <!-- $\mathdefault{-10^{4}}$ -->
      <g transform="translate(24.6 207.437602)scale(0.1 -0.1)">
       <defs>
        <path d="M 10.59375 35.5 
L 73.1875 35.5 
L 73.1875 27.203125 
L 10.59375 27.203125 
z
" id="DejaVuSans-8722"/>
        <path d="M 37.796875 64.3125 
L 12.890625 25.390625 
L 37.796875 25.390625 
z
M 35.203125 72.90625 
L 47.609375 72.90625 
L 47.609375 25.390625 
L 58.015625 25.390625 
L 58.015625 17.1875 
L 47.609375 17.1875 
L 47.609375 0 
L 37.796875 0 
L 37.796875 17.1875 
L 4.890625 17.1875 
L 4.890625 26.703125 
z
" id="DejaVuSans-52"/>
       </defs>
       <use transform="translate(0 0.684375)" xlink:href="#DejaVuSans-8722"/>
       <use transform="translate(83.789062 0.684375)" xlink:href="#DejaVuSans-49"/>
       <use transform="translate(147.412109 0.684375)" xlink:href="#DejaVuSans-48"/>
       <use transform="translate(211.992188 38.965625)scale(0.7)" xlink:href="#DejaVuSans-52"/>
      </g>
     </g>
    </g>
    <g id="text_11">
     <!-- Fitness -->
     <g transform="translate(18.520312 191.845187)rotate(-90)scale(0.1 -0.1)">
      <defs>
       <path d="M 9.8125 72.90625 
L 51.703125 72.90625 
L 51.703125 64.59375 
L 19.671875 64.59375 
L 19.671875 43.109375 
L 48.578125 43.109375 
L 48.578125 34.8125 
L 19.671875 34.8125 
L 19.671875 0 
L 9.8125 0 
z
" id="DejaVuSans-70"/>
      </defs>
      <use xlink:href="#DejaVuSans-70"/>
      <use x="50.269531" xlink:href="#DejaVuSans-105"/>
      <use x="78.052734" xlink:href="#DejaVuSans-116"/>
      <use x="117.261719" xlink:href="#DejaVuSans-110"/>
      <use x="180.640625" xlink:href="#DejaVuSans-101"/>
      <use x="242.164062" xlink:href="#DejaVuSans-115"/>
      <use x="294.263672" xlink:href="#DejaVuSans-115"/>
     </g>
    </g>
   </g>
   <g id="line2d_19">
    <path clip-path="url(#p34abcc845a)" d="M 73.832727 295.488 
L 74.700788 257.876369 
L 75.568848 236.28697 
L 76.436908 232.258022 
L 77.304968 219.66857 
L 78.173029 220.147036 
L 79.041089 207.758552 
L 79.909149 205.323368 
L 80.77721 205.717753 
L 81.64527 204.814135 
L 82.51333 206.169484 
L 83.38139 200.857064 
L 85.117511 186.166616 
L 85.985571 186.515413 
L 86.853632 193.797366 
L 87.721692 199.079011 
L 88.589752 195.856487 
L 89.457812 200.001121 
L 90.325873 199.827293 
L 91.193933 197.63063 
L 92.061993 190.74905 
L 92.930053 192.88512 
L 93.798114 196.861962 
L 94.666174 198.678695 
L 95.534234 192.998037 
L 96.402295 188.631929 
L 97.270355 194.280438 
L 98.138415 190.058876 
L 99.006475 191.012117 
L 99.874536 186.520775 
L 100.742596 187.977482 
L 101.610656 190.305105 
L 102.478717 185.182295 
L 103.346777 185.233687 
L 104.214837 188.632692 
L 105.082897 192.880802 
L 105.950958 193.680648 
L 106.819018 177.182304 
L 107.687078 184.853844 
L 109.423199 204.462009 
L 110.291259 187.76638 
L 111.159319 184.722991 
L 112.02738 180.605572 
L 112.89544 173.44336 
L 113.7635 183.030807 
L 114.631561 197.390038 
L 115.499621 174.985818 
L 116.367681 178.972407 
L 117.235741 179.971121 
L 118.103802 177.884514 
L 118.971862 199.245826 
L 119.839922 188.318806 
L 120.707982 182.948213 
L 121.576043 173.986192 
L 122.444103 183.548478 
L 123.312163 194.741699 
L 124.180224 182.461784 
L 125.048284 193.401275 
L 125.916344 190.162429 
L 126.784404 192.403917 
L 127.652465 184.519087 
L 128.520525 193.137386 
L 129.388585 188.308667 
L 130.256646 186.85642 
L 131.124706 190.601901 
L 131.992766 177.256247 
L 132.860826 174.616135 
L 133.728887 177.796345 
L 134.596947 189.112856 
L 135.465007 194.144696 
L 136.333068 188.660478 
L 137.201128 177.339025 
L 138.069188 170.273058 
L 138.937248 186.623973 
L 139.805309 163.546398 
L 140.673369 169.917724 
L 141.541429 154.643121 
L 142.40949 176.330997 
L 143.27755 173.079658 
L 144.14561 162.670281 
L 145.01367 167.025056 
L 145.881731 172.037337 
L 147.617851 186.673146 
L 148.485912 189.399771 
L 149.353972 174.75451 
L 150.222032 187.944729 
L 151.090092 176.899307 
L 151.958153 168.022842 
L 152.826213 188.041527 
L 153.694273 181.966995 
L 154.562333 176.735756 
L 155.430394 181.499194 
L 156.298454 171.600222 
L 157.166514 196.550738 
L 158.034575 194.095155 
L 158.902635 192.336798 
L 159.770695 185.826375 
L 160.638755 188.356534 
L 161.506816 188.549612 
L 162.374876 186.679547 
L 163.242936 167.43019 
L 164.110997 195.284436 
L 164.979057 187.051684 
L 165.847117 198.924078 
L 166.715177 198.807791 
L 167.583238 192.150159 
L 168.451298 176.599894 
L 169.319358 177.481186 
L 170.187419 186.272123 
L 171.055479 190.008253 
L 171.923539 177.552249 
L 172.791599 189.769079 
L 173.65966 170.435533 
L 174.52772 185.099936 
L 175.39578 183.694222 
L 176.263841 198.182368 
L 177.131901 197.540802 
L 177.999961 176.624955 
L 178.868021 179.776957 
L 179.736082 194.220055 
L 180.604142 197.407174 
L 181.472202 186.810391 
L 182.340263 184.689267 
L 183.208323 187.280568 
L 184.076383 193.881472 
L 184.944443 197.216929 
L 185.812504 190.5008 
L 186.680564 195.044162 
L 187.548624 193.863362 
L 188.416684 192.033962 
L 189.284745 168.082572 
L 190.152805 195.094485 
L 191.020865 190.302111 
L 191.888926 180.531961 
L 192.756986 161.312237 
L 193.625046 174.476457 
L 194.493106 189.67211 
L 195.361167 184.698281 
L 196.229227 185.538214 
L 197.097287 191.767178 
L 197.965348 191.277328 
L 198.833408 181.770498 
L 199.701468 193.006146 
L 200.569528 188.844595 
L 201.437589 189.822786 
L 202.305649 189.798555 
L 203.173709 172.343835 
L 204.04177 173.554806 
L 204.90983 177.620906 
L 205.77789 183.796761 
L 206.64595 174.763897 
L 207.514011 178.744358 
L 208.382071 183.563997 
L 209.250131 178.681064 
L 210.118192 175.455503 
L 210.986252 183.677775 
L 211.854312 181.601186 
L 212.722372 195.064258 
L 213.590433 189.494019 
L 214.458493 190.184841 
L 215.326553 191.908245 
L 216.194614 186.99809 
L 217.062674 187.521721 
L 217.930734 192.760737 
L 218.798794 196.271337 
L 219.666855 196.678028 
L 220.534915 204.128334 
L 221.402975 199.391799 
L 222.271035 193.389567 
L 223.139096 188.868744 
L 224.007156 182.009165 
L 224.875216 190.793538 
L 225.743277 186.270864 
L 226.611337 198.437474 
L 227.479397 199.466172 
L 228.347457 193.696739 
L 230.083578 198.947102 
L 230.951638 198.546233 
L 231.819699 197.411459 
L 232.687759 195.629156 
L 233.555819 193.049777 
L 234.423879 193.209882 
L 235.29194 190.141861 
L 236.16 203.882707 
L 237.02806 201.635481 
L 237.896121 208.171498 
L 238.764181 201.082336 
L 239.632241 201.026346 
L 240.500301 206.756981 
L 241.368362 195.883103 
L 242.236422 196.791867 
L 243.104482 194.046967 
L 243.972543 206.514005 
L 244.840603 207.386547 
L 245.708663 191.074315 
L 246.576723 195.423852 
L 247.444784 202.825202 
L 248.312844 198.978212 
L 249.180904 192.567178 
L 250.048965 217.32555 
L 250.917025 207.201436 
L 251.785085 202.163714 
L 252.653145 213.533003 
L 253.521206 211.078306 
L 254.389266 206.310589 
L 255.257326 206.381533 
L 256.125386 209.677335 
L 256.993447 207.860491 
L 257.861507 221.465403 
L 258.729567 222.251858 
L 259.597628 214.98569 
L 260.465688 209.885046 
L 261.333748 210.390788 
L 262.201808 196.738318 
L 263.069869 211.511551 
L 263.937929 201.659525 
L 264.805989 201.660714 
L 265.67405 208.348749 
L 266.54211 209.42373 
L 267.41017 208.208638 
L 268.27823 201.560628 
L 269.146291 205.892451 
L 270.014351 206.930129 
L 270.882411 203.655199 
L 271.750472 195.80724 
L 272.618532 185.933117 
L 273.486592 193.449307 
L 274.354652 196.343463 
L 275.222713 196.283605 
L 276.090773 202.244284 
L 276.958833 199.865308 
L 277.826894 194.081093 
L 278.694954 201.316654 
L 279.563014 184.241582 
L 280.431074 206.250507 
L 281.299135 187.30196 
L 282.167195 197.709794 
L 283.035255 192.456044 
L 283.903316 189.297698 
L 284.771376 194.121876 
L 285.639436 182.616358 
L 286.507496 184.274666 
L 287.375557 201.658209 
L 288.243617 197.601781 
L 289.111677 195.96479 
L 289.979737 200.521816 
L 290.847798 201.113081 
L 291.715858 201.174105 
L 292.583918 210.246699 
L 293.451979 203.961524 
L 294.320039 207.158074 
L 295.188099 203.226319 
L 296.056159 202.556053 
L 296.92422 212.943603 
L 297.79228 205.076493 
L 298.66034 204.190228 
L 299.528401 207.702143 
L 300.396461 199.530585 
L 301.264521 188.814014 
L 302.132581 197.270067 
L 303.000642 192.040481 
L 303.868702 203.925447 
L 304.736762 193.913865 
L 305.604823 203.075943 
L 306.472883 196.572603 
L 307.340943 187.188133 
L 308.209003 194.387094 
L 309.077064 203.569304 
L 309.945124 187.797006 
L 310.813184 190.769306 
L 311.681245 202.996159 
L 312.549305 191.90865 
L 313.417365 187.501133 
L 314.285425 199.310366 
L 315.153486 201.282227 
L 316.021546 194.682753 
L 316.889606 205.150624 
L 317.757667 194.11802 
L 318.625727 195.844035 
L 319.493787 195.696275 
L 320.361847 203.560408 
L 321.229908 195.867465 
L 322.097968 194.856516 
L 322.966028 188.433591 
L 323.834088 198.571821 
L 324.702149 175.500855 
L 325.570209 181.200616 
L 326.438269 180.494526 
L 327.30633 181.87574 
L 328.17439 183.89199 
L 329.04245 175.403379 
L 329.91051 194.571124 
L 330.778571 188.887687 
L 331.646631 189.106517 
L 332.514691 184.946269 
L 333.382752 186.518851 
L 334.250812 192.716142 
L 335.118872 188.473805 
L 336.854993 199.363842 
L 337.723053 192.350217 
L 338.591113 197.490745 
L 339.459174 198.345626 
L 340.327234 183.341551 
L 342.063354 190.382387 
L 342.931415 197.948795 
L 343.799475 194.740112 
L 344.667535 190.532897 
L 345.535596 189.822825 
L 346.403656 187.669465 
L 347.271716 187.293566 
L 348.139776 195.704601 
L 349.007837 174.456446 
L 349.875897 196.806263 
L 350.743957 188.109368 
L 351.612018 194.944424 
L 353.348138 182.783903 
L 354.216198 197.885908 
L 355.084259 204.731167 
L 355.952319 179.701234 
L 356.820379 182.000126 
L 357.688439 191.327273 
L 358.5565 193.731284 
L 359.42456 201.270547 
L 360.29262 192.756098 
L 361.160681 180.684909 
L 362.028741 184.181301 
L 362.896801 198.336917 
L 363.764861 201.401011 
L 364.632922 196.966724 
L 365.500982 190.848801 
L 366.369042 195.016643 
L 367.237103 207.096973 
L 368.105163 194.283556 
L 368.973223 186.653477 
L 369.841283 187.930902 
L 370.709344 197.534881 
L 371.577404 190.961614 
L 372.445464 196.987227 
L 373.313525 196.248125 
L 374.181585 198.748468 
L 375.049645 213.326703 
L 375.917705 203.955971 
L 376.785766 197.58158 
L 377.653826 194.252896 
L 378.521886 203.082452 
L 379.389947 190.658731 
L 380.258007 196.889027 
L 381.126067 187.123066 
L 381.994127 182.107435 
L 382.862188 181.711519 
L 383.730248 172.707134 
L 384.598308 182.232485 
L 385.466368 177.765176 
L 386.334429 180.291597 
L 387.202489 186.924274 
L 388.070549 182.294735 
L 388.93861 187.276439 
L 389.80667 188.574451 
L 390.67473 195.303681 
L 391.54279 200.270891 
L 392.410851 191.177655 
L 393.278911 184.724712 
L 394.146971 182.307062 
L 395.015032 194.156191 
L 395.883092 178.558536 
L 396.751152 184.724967 
L 397.619212 198.226414 
L 398.487273 179.97046 
L 398.487273 179.97046 
" style="fill:none;stroke:#0000ff;stroke-linecap:square;stroke-width:1.5;"/>
   </g>
   <g id="line2d_20">
    <path clip-path="url(#p34abcc845a)" d="M 73.832727 244.972582 
L 74.700788 212.354328 
L 75.568848 196.767189 
L 76.436908 192.581701 
L 77.304968 183.610704 
L 78.173029 180.408281 
L 79.041089 151.883127 
L 79.909149 144.526833 
L 80.77721 132.294328 
L 81.64527 148.572583 
L 82.51333 153.112602 
L 83.38139 135.709007 
L 84.249451 122.092455 
L 85.117511 131.334225 
L 85.985571 128.331414 
L 86.853632 64.656771 
L 87.721692 142.807471 
L 88.589752 100.080413 
L 89.457812 136.705265 
L 90.325873 123.782435 
L 91.193933 94.247863 
L 92.061993 60.800384 
L 92.930053 115.373235 
L 93.798114 110.056494 
L 94.666174 100.296868 
L 95.534234 135.394796 
L 96.402295 68.669761 
L 97.270355 127.952357 
L 99.874536 97.083557 
L 100.742596 117.954463 
L 101.610656 123.406112 
L 102.478717 118.476581 
L 103.346777 105.676457 
L 104.214837 127.836067 
L 105.082897 123.091114 
L 105.950958 122.157807 
L 106.819018 122.570508 
L 107.687078 113.925485 
L 108.555139 131.425613 
L 109.423199 138.770168 
L 110.291259 130.889148 
L 111.159319 120.268192 
L 112.02738 99.303415 
L 112.89544 99.875829 
L 113.7635 95.372188 
L 114.631561 135.481694 
L 115.499621 106.302623 
L 116.367681 126.115466 
L 117.235741 117.801351 
L 118.103802 97.745477 
L 118.971862 125.952866 
L 119.839922 92.45961 
L 120.707982 98.454843 
L 121.576043 106.953073 
L 122.444103 96.574223 
L 123.312163 130.392852 
L 124.180224 102.47675 
L 125.048284 138.639306 
L 125.916344 120.277197 
L 126.784404 140.26546 
L 127.652465 123.97058 
L 128.520525 124.265915 
L 129.388585 127.558553 
L 130.256646 114.915605 
L 131.124706 95.597693 
L 131.992766 62.890836 
L 132.860826 87.614259 
L 133.728887 96.914658 
L 135.465007 109.146793 
L 136.333068 126.99604 
L 137.201128 95.902604 
L 138.069188 81.242445 
L 138.937248 111.276126 
L 139.805309 98.381081 
L 140.673369 100.918759 
L 141.541429 88.939522 
L 142.40949 74.194988 
L 143.27755 62.97958 
L 144.14561 88.879279 
L 145.01367 100.350567 
L 145.881731 78.184278 
L 146.749791 61.010302 
L 147.617851 116.226248 
L 148.485912 100.915277 
L 149.353972 75.309192 
L 150.222032 101.872427 
L 151.090092 85.115384 
L 151.958153 81.841982 
L 152.826213 107.244479 
L 153.694273 67.093519 
L 154.562333 87.993104 
L 156.298454 112.454146 
L 157.166514 131.697225 
L 158.034575 100.354345 
L 158.902635 131.376265 
L 159.770695 96.735264 
L 160.638755 129.852087 
L 161.506816 97.2944 
L 162.374876 105.480895 
L 163.242936 88.215334 
L 164.110997 127.827472 
L 164.979057 113.878522 
L 165.847117 134.980793 
L 166.715177 112.606872 
L 167.583238 121.096407 
L 168.451298 108.642503 
L 169.319358 108.379686 
L 170.187419 110.166901 
L 171.055479 134.065777 
L 171.923539 99.523205 
L 172.791599 111.494601 
L 173.65966 102.323115 
L 175.39578 126.103257 
L 176.263841 133.026069 
L 177.131901 138.285276 
L 177.999961 109.138061 
L 178.868021 102.05309 
L 179.736082 130.382683 
L 180.604142 121.641172 
L 181.472202 86.403244 
L 182.340263 118.021253 
L 183.208323 109.3894 
L 184.076383 126.257001 
L 184.944443 116.647987 
L 185.812504 129.595415 
L 186.680564 109.18701 
L 187.548624 96.506368 
L 188.416684 109.555639 
L 189.284745 109.863846 
L 190.152805 109.161601 
L 191.020865 134.503001 
L 191.888926 111.887449 
L 192.756986 95.3521 
L 193.625046 113.759318 
L 194.493106 109.67765 
L 195.361167 130.811006 
L 196.229227 112.645341 
L 197.097287 130.7397 
L 197.965348 130.891033 
L 198.833408 91.874539 
L 199.701468 120.594174 
L 200.569528 107.295283 
L 201.437589 108.036199 
L 202.305649 106.622614 
L 203.173709 85.867736 
L 204.04177 100.965893 
L 204.90983 106.199561 
L 205.77789 110.223507 
L 206.64595 90.372354 
L 207.514011 110.814058 
L 208.382071 120.949983 
L 209.250131 109.685136 
L 210.118192 121.296546 
L 210.986252 109.08052 
L 211.854312 112.437625 
L 213.590433 131.515401 
L 214.458493 130.85426 
L 215.326553 128.177228 
L 216.194614 123.955785 
L 217.062674 125.504721 
L 217.930734 133.184771 
L 218.798794 127.79452 
L 219.666855 131.328482 
L 220.534915 142.768282 
L 221.402975 108.891615 
L 222.271035 114.723897 
L 223.139096 123.338461 
L 224.007156 126.546501 
L 224.875216 126.03226 
L 225.743277 142.596636 
L 226.611337 147.070029 
L 227.479397 108.911489 
L 228.347457 121.785888 
L 229.215518 93.357127 
L 230.083578 120.197992 
L 230.951638 139.978573 
L 231.819699 116.493269 
L 232.687759 111.72304 
L 233.555819 118.587427 
L 234.423879 136.956082 
L 235.29194 117.157887 
L 236.16 135.063809 
L 237.02806 143.417348 
L 237.896121 132.057729 
L 238.764181 124.761615 
L 239.632241 137.220322 
L 240.500301 120.553199 
L 241.368362 121.127787 
L 242.236422 123.618287 
L 243.104482 144.620698 
L 243.972543 124.66008 
L 244.840603 132.011247 
L 245.708663 118.670778 
L 246.576723 134.251856 
L 247.444784 123.398834 
L 248.312844 144.374878 
L 249.180904 114.89799 
L 250.048965 138.128469 
L 250.917025 139.510982 
L 251.785085 144.316493 
L 252.653145 152.754259 
L 253.521206 148.164882 
L 254.389266 149.760796 
L 255.257326 160.25966 
L 256.125386 142.642597 
L 256.993447 136.460097 
L 257.861507 150.809345 
L 258.729567 157.549945 
L 259.597628 154.634821 
L 260.465688 150.400106 
L 261.333748 152.575664 
L 262.201808 145.660615 
L 263.069869 143.439346 
L 263.937929 124.286664 
L 264.805989 139.872463 
L 265.67405 124.180844 
L 266.54211 137.861288 
L 267.41017 132.163021 
L 268.27823 137.964599 
L 269.146291 146.927998 
L 270.014351 142.543547 
L 270.882411 123.190099 
L 271.750472 121.534982 
L 272.618532 127.496814 
L 273.486592 110.227013 
L 274.354652 124.077579 
L 275.222713 122.110389 
L 276.090773 136.020452 
L 276.958833 132.054488 
L 277.826894 119.122851 
L 278.694954 123.139086 
L 279.563014 131.005156 
L 280.431074 140.939297 
L 281.299135 124.224458 
L 282.167195 137.659327 
L 283.035255 111.450741 
L 283.903316 121.247135 
L 284.771376 125.596008 
L 285.639436 107.104544 
L 286.507496 125.554878 
L 287.375557 125.691055 
L 288.243617 115.164301 
L 289.111677 102.427511 
L 289.979737 134.07452 
L 290.847798 118.180271 
L 291.715858 141.810159 
L 292.583918 148.629827 
L 293.451979 138.137161 
L 294.320039 130.030338 
L 296.056159 152.189563 
L 296.92422 158.155816 
L 297.79228 153.452577 
L 298.66034 129.324849 
L 299.528401 139.143419 
L 300.396461 132.60028 
L 301.264521 135.091435 
L 302.132581 121.296294 
L 303.000642 112.972 
L 303.868702 134.147712 
L 304.736762 115.112245 
L 305.604823 140.901831 
L 306.472883 120.43889 
L 307.340943 92.834862 
L 309.077064 138.573657 
L 309.945124 109.585147 
L 310.813184 123.536022 
L 311.681245 130.276057 
L 312.549305 118.193922 
L 313.417365 80.584035 
L 314.285425 116.46738 
L 315.153486 104.473221 
L 316.021546 118.077241 
L 316.889606 119.90751 
L 317.757667 89.181071 
L 318.625727 101.172289 
L 319.493787 98.832276 
L 320.361847 110.72511 
L 321.229908 102.925637 
L 322.097968 105.16865 
L 322.966028 115.731763 
L 324.702149 106.34981 
L 325.570209 104.441505 
L 326.438269 81.560136 
L 327.30633 91.917138 
L 328.17439 83.496223 
L 329.04245 96.796336 
L 329.91051 101.375397 
L 330.778571 53.568 
L 331.646631 115.110649 
L 332.514691 88.67998 
L 333.382752 123.809539 
L 334.250812 110.963272 
L 335.118872 109.046056 
L 335.986932 60.654372 
L 336.854993 76.250272 
L 337.723053 105.276649 
L 338.591113 101.956836 
L 339.459174 116.78227 
L 340.327234 121.548669 
L 341.195294 97.491126 
L 342.063354 101.725625 
L 342.931415 96.423621 
L 343.799475 129.52573 
L 344.667535 98.747985 
L 345.535596 96.528368 
L 346.403656 86.41393 
L 347.271716 93.679291 
L 348.139776 105.658878 
L 349.007837 90.925496 
L 349.875897 110.33499 
L 350.743957 120.5191 
L 351.612018 115.789531 
L 352.480078 106.933805 
L 353.348138 118.646929 
L 354.216198 108.842226 
L 355.084259 103.856293 
L 355.952319 62.032945 
L 356.820379 85.996292 
L 357.688439 86.444195 
L 358.5565 105.523148 
L 359.42456 106.678387 
L 360.29262 98.105407 
L 361.160681 107.083914 
L 362.028741 95.325995 
L 362.896801 120.959514 
L 363.764861 111.412236 
L 364.632922 110.823217 
L 365.500982 90.598382 
L 366.369042 101.277365 
L 367.237103 124.401008 
L 368.105163 82.402357 
L 368.973223 94.190186 
L 369.841283 89.738942 
L 370.709344 99.912012 
L 372.445464 91.2846 
L 373.313525 127.028631 
L 374.181585 119.923411 
L 375.049645 114.624133 
L 375.917705 119.164228 
L 376.785766 110.525712 
L 378.521886 121.296737 
L 379.389947 112.306853 
L 380.258007 106.876515 
L 381.126067 114.999965 
L 381.994127 102.71843 
L 382.862188 79.383635 
L 383.730248 79.780518 
L 384.598308 90.194665 
L 385.466368 65.165469 
L 386.334429 95.183399 
L 387.202489 91.716595 
L 388.070549 91.303715 
L 388.93861 112.822758 
L 389.80667 99.110435 
L 390.67473 87.962215 
L 391.54279 104.664083 
L 392.410851 113.248547 
L 393.278911 85.652722 
L 394.146971 89.723898 
L 395.015032 107.721 
L 395.883092 82.145466 
L 396.751152 98.127528 
L 397.619212 109.30968 
L 398.487273 82.717844 
L 398.487273 82.717844 
" style="fill:none;stroke:#ff0000;stroke-linecap:square;stroke-width:1.5;"/>
   </g>
   <g id="patch_3">
    <path d="M 57.6 307.584 
L 57.6 41.472 
" style="fill:none;stroke:#000000;stroke-linecap:square;stroke-linejoin:miter;stroke-width:0.8;"/>
   </g>
   <g id="patch_4">
    <path d="M 414.72 307.584 
L 414.72 41.472 
" style="fill:none;stroke:#000000;stroke-linecap:square;stroke-linejoin:miter;stroke-width:0.8;"/>
   </g>
   <g id="patch_5">
    <path d="M 57.6 307.584 
L 414.72 307.584 
" style="fill:none;stroke:#000000;stroke-linecap:square;stroke-linejoin:miter;stroke-width:0.8;"/>
   </g>
   <g id="patch_6">
    <path d="M 57.6 41.472 
L 414.72 41.472 
" style="fill:none;stroke:#000000;stroke-linecap:square;stroke-linejoin:miter;stroke-width:0.8;"/>
   </g>
   <g id="text_12">
    <!-- Population's average and best fitness -->
    <g transform="translate(123.529687 35.472)scale(0.12 -0.12)">
     <defs>
      <path d="M 19.671875 64.796875 
L 19.671875 37.40625 
L 32.078125 37.40625 
Q 38.96875 37.40625 42.71875 40.96875 
Q 46.484375 44.53125 46.484375 51.125 
Q 46.484375 57.671875 42.71875 61.234375 
Q 38.96875 64.796875 32.078125 64.796875 
z
M 9.8125 72.90625 
L 32.078125 72.90625 
Q 44.34375 72.90625 50.609375 67.359375 
Q 56.890625 61.8125 56.890625 51.125 
Q 56.890625 40.328125 50.609375 34.8125 
Q 44.34375 29.296875 32.078125 29.296875 
L 19.671875 29.296875 
L 19.671875 0 
L 9.8125 0 
z
" id="DejaVuSans-80"/>
      <path d="M 18.109375 8.203125 
L 18.109375 -20.796875 
L 9.078125 -20.796875 
L 9.078125 54.6875 
L 18.109375 54.6875 
L 18.109375 46.390625 
Q 20.953125 51.265625 25.265625 53.625 
Q 29.59375 56 35.59375 56 
Q 45.5625 56 51.78125 48.09375 
Q 58.015625 40.1875 58.015625 27.296875 
Q 58.015625 14.40625 51.78125 6.484375 
Q 45.5625 -1.421875 35.59375 -1.421875 
Q 29.59375 -1.421875 25.265625 0.953125 
Q 20.953125 3.328125 18.109375 8.203125 
z
M 48.6875 27.296875 
Q 48.6875 37.203125 44.609375 42.84375 
Q 40.53125 48.484375 33.40625 48.484375 
Q 26.265625 48.484375 22.1875 42.84375 
Q 18.109375 37.203125 18.109375 27.296875 
Q 18.109375 17.390625 22.1875 11.75 
Q 26.265625 6.109375 33.40625 6.109375 
Q 40.53125 6.109375 44.609375 11.75 
Q 48.6875 17.390625 48.6875 27.296875 
z
" id="DejaVuSans-112"/>
      <path d="M 8.5 21.578125 
L 8.5 54.6875 
L 17.484375 54.6875 
L 17.484375 21.921875 
Q 17.484375 14.15625 20.5 10.265625 
Q 23.53125 6.390625 29.59375 6.390625 
Q 36.859375 6.390625 41.078125 11.03125 
Q 45.3125 15.671875 45.3125 23.6875 
L 45.3125 54.6875 
L 54.296875 54.6875 
L 54.296875 0 
L 45.3125 0 
L 45.3125 8.40625 
Q 42.046875 3.421875 37.71875 1 
Q 33.40625 -1.421875 27.6875 -1.421875 
Q 18.265625 -1.421875 13.375 4.4375 
Q 8.5 10.296875 8.5 21.578125 
z
M 31.109375 56 
z
" id="DejaVuSans-117"/>
      <path d="M 9.421875 75.984375 
L 18.40625 75.984375 
L 18.40625 0 
L 9.421875 0 
z
" id="DejaVuSans-108"/>
      <path d="M 17.921875 72.90625 
L 17.921875 45.796875 
L 9.625 45.796875 
L 9.625 72.90625 
z
" id="DejaVuSans-39"/>
      <path id="DejaVuSans-32"/>
      <path d="M 2.984375 54.6875 
L 12.5 54.6875 
L 29.59375 8.796875 
L 46.6875 54.6875 
L 56.203125 54.6875 
L 35.6875 0 
L 23.484375 0 
z
" id="DejaVuSans-118"/>
      <path d="M 45.40625 27.984375 
Q 45.40625 37.75 41.375 43.109375 
Q 37.359375 48.484375 30.078125 48.484375 
Q 22.859375 48.484375 18.828125 43.109375 
Q 14.796875 37.75 14.796875 27.984375 
Q 14.796875 18.265625 18.828125 12.890625 
Q 22.859375 7.515625 30.078125 7.515625 
Q 37.359375 7.515625 41.375 12.890625 
Q 45.40625 18.265625 45.40625 27.984375 
z
M 54.390625 6.78125 
Q 54.390625 -7.171875 48.1875 -13.984375 
Q 42 -20.796875 29.203125 -20.796875 
Q 24.46875 -20.796875 20.265625 -20.09375 
Q 16.0625 -19.390625 12.109375 -17.921875 
L 12.109375 -9.1875 
Q 16.0625 -11.328125 19.921875 -12.34375 
Q 23.78125 -13.375 27.78125 -13.375 
Q 36.625 -13.375 41.015625 -8.765625 
Q 45.40625 -4.15625 45.40625 5.171875 
L 45.40625 9.625 
Q 42.625 4.78125 38.28125 2.390625 
Q 33.9375 0 27.875 0 
Q 17.828125 0 11.671875 7.65625 
Q 5.515625 15.328125 5.515625 27.984375 
Q 5.515625 40.671875 11.671875 48.328125 
Q 17.828125 56 27.875 56 
Q 33.9375 56 38.28125 53.609375 
Q 42.625 51.21875 45.40625 46.390625 
L 45.40625 54.6875 
L 54.390625 54.6875 
z
" id="DejaVuSans-103"/>
      <path d="M 45.40625 46.390625 
L 45.40625 75.984375 
L 54.390625 75.984375 
L 54.390625 0 
L 45.40625 0 
L 45.40625 8.203125 
Q 42.578125 3.328125 38.25 0.953125 
Q 33.9375 -1.421875 27.875 -1.421875 
Q 17.96875 -1.421875 11.734375 6.484375 
Q 5.515625 14.40625 5.515625 27.296875 
Q 5.515625 40.1875 11.734375 48.09375 
Q 17.96875 56 27.875 56 
Q 33.9375 56 38.25 53.625 
Q 42.578125 51.265625 45.40625 46.390625 
z
M 14.796875 27.296875 
Q 14.796875 17.390625 18.875 11.75 
Q 22.953125 6.109375 30.078125 6.109375 
Q 37.203125 6.109375 41.296875 11.75 
Q 45.40625 17.390625 45.40625 27.296875 
Q 45.40625 37.203125 41.296875 42.84375 
Q 37.203125 48.484375 30.078125 48.484375 
Q 22.953125 48.484375 18.875 42.84375 
Q 14.796875 37.203125 14.796875 27.296875 
z
" id="DejaVuSans-100"/>
      <path d="M 48.6875 27.296875 
Q 48.6875 37.203125 44.609375 42.84375 
Q 40.53125 48.484375 33.40625 48.484375 
Q 26.265625 48.484375 22.1875 42.84375 
Q 18.109375 37.203125 18.109375 27.296875 
Q 18.109375 17.390625 22.1875 11.75 
Q 26.265625 6.109375 33.40625 6.109375 
Q 40.53125 6.109375 44.609375 11.75 
Q 48.6875 17.390625 48.6875 27.296875 
z
M 18.109375 46.390625 
Q 20.953125 51.265625 25.265625 53.625 
Q 29.59375 56 35.59375 56 
Q 45.5625 56 51.78125 48.09375 
Q 58.015625 40.1875 58.015625 27.296875 
Q 58.015625 14.40625 51.78125 6.484375 
Q 45.5625 -1.421875 35.59375 -1.421875 
Q 29.59375 -1.421875 25.265625 0.953125 
Q 20.953125 3.328125 18.109375 8.203125 
L 18.109375 0 
L 9.078125 0 
L 9.078125 75.984375 
L 18.109375 75.984375 
z
" id="DejaVuSans-98"/>
      <path d="M 37.109375 75.984375 
L 37.109375 68.5 
L 28.515625 68.5 
Q 23.6875 68.5 21.796875 66.546875 
Q 19.921875 64.59375 19.921875 59.515625 
L 19.921875 54.6875 
L 34.71875 54.6875 
L 34.71875 47.703125 
L 19.921875 47.703125 
L 19.921875 0 
L 10.890625 0 
L 10.890625 47.703125 
L 2.296875 47.703125 
L 2.296875 54.6875 
L 10.890625 54.6875 
L 10.890625 58.5 
Q 10.890625 67.625 15.140625 71.796875 
Q 19.390625 75.984375 28.609375 75.984375 
z
" id="DejaVuSans-102"/>
     </defs>
     <use xlink:href="#DejaVuSans-80"/>
     <use x="56.677734" xlink:href="#DejaVuSans-111"/>
     <use x="117.859375" xlink:href="#DejaVuSans-112"/>
     <use x="181.335938" xlink:href="#DejaVuSans-117"/>
     <use x="244.714844" xlink:href="#DejaVuSans-108"/>
     <use x="272.498047" xlink:href="#DejaVuSans-97"/>
     <use x="333.777344" xlink:href="#DejaVuSans-116"/>
     <use x="372.986328" xlink:href="#DejaVuSans-105"/>
     <use x="400.769531" xlink:href="#DejaVuSans-111"/>
     <use x="461.951172" xlink:href="#DejaVuSans-110"/>
     <use x="525.330078" xlink:href="#DejaVuSans-39"/>
     <use x="552.820312" xlink:href="#DejaVuSans-115"/>
     <use x="604.919922" xlink:href="#DejaVuSans-32"/>
     <use x="636.707031" xlink:href="#DejaVuSans-97"/>
     <use x="697.986328" xlink:href="#DejaVuSans-118"/>
     <use x="757.166016" xlink:href="#DejaVuSans-101"/>
     <use x="818.689453" xlink:href="#DejaVuSans-114"/>
     <use x="859.802734" xlink:href="#DejaVuSans-97"/>
     <use x="921.082031" xlink:href="#DejaVuSans-103"/>
     <use x="984.558594" xlink:href="#DejaVuSans-101"/>
     <use x="1046.082031" xlink:href="#DejaVuSans-32"/>
     <use x="1077.869141" xlink:href="#DejaVuSans-97"/>
     <use x="1139.148438" xlink:href="#DejaVuSans-110"/>
     <use x="1202.527344" xlink:href="#DejaVuSans-100"/>
     <use x="1266.003906" xlink:href="#DejaVuSans-32"/>
     <use x="1297.791016" xlink:href="#DejaVuSans-98"/>
     <use x="1361.267578" xlink:href="#DejaVuSans-101"/>
     <use x="1422.791016" xlink:href="#DejaVuSans-115"/>
     <use x="1474.890625" xlink:href="#DejaVuSans-116"/>
     <use x="1514.099609" xlink:href="#DejaVuSans-32"/>
     <use x="1545.886719" xlink:href="#DejaVuSans-102"/>
     <use x="1581.091797" xlink:href="#DejaVuSans-105"/>
     <use x="1608.875" xlink:href="#DejaVuSans-116"/>
     <use x="1648.083984" xlink:href="#DejaVuSans-110"/>
     <use x="1711.462891" xlink:href="#DejaVuSans-101"/>
     <use x="1772.986328" xlink:href="#DejaVuSans-115"/>
     <use x="1825.085938" xlink:href="#DejaVuSans-115"/>
    </g>
   </g>
   <g id="legend_1">
    <g id="patch_7">
     <path d="M 334.779375 302.584 
L 407.72 302.584 
Q 409.72 302.584 409.72 300.584 
L 409.72 272.22775 
Q 409.72 270.22775 407.72 270.22775 
L 334.779375 270.22775 
Q 332.779375 270.22775 332.779375 272.22775 
L 332.779375 300.584 
Q 332.779375 302.584 334.779375 302.584 
z
" style="fill:#ffffff;opacity:0.8;stroke:#cccccc;stroke-linejoin:miter;"/>
    </g>
    <g id="line2d_21">
     <path d="M 336.779375 278.326187 
L 356.779375 278.326187 
" style="fill:none;stroke:#0000ff;stroke-linecap:square;stroke-width:1.5;"/>
    </g>
    <g id="line2d_22"/>
    <g id="text_13">
     <!-- average -->
     <g transform="translate(364.779375 281.826187)scale(0.1 -0.1)">
      <use xlink:href="#DejaVuSans-97"/>
      <use x="61.279297" xlink:href="#DejaVuSans-118"/>
      <use x="120.458984" xlink:href="#DejaVuSans-101"/>
      <use x="181.982422" xlink:href="#DejaVuSans-114"/>
      <use x="223.095703" xlink:href="#DejaVuSans-97"/>
      <use x="284.375" xlink:href="#DejaVuSans-103"/>
      <use x="347.851562" xlink:href="#DejaVuSans-101"/>
     </g>
    </g>
    <g id="line2d_23">
     <path d="M 336.779375 293.004312 
L 356.779375 293.004312 
" style="fill:none;stroke:#ff0000;stroke-linecap:square;stroke-width:1.5;"/>
    </g>
    <g id="line2d_24"/>
    <g id="text_14">
     <!-- best -->
     <g transform="translate(364.779375 296.504312)scale(0.1 -0.1)">
      <use xlink:href="#DejaVuSans-98"/>
      <use x="63.476562" xlink:href="#DejaVuSans-101"/>
      <use x="125" xlink:href="#DejaVuSans-115"/>
      <use x="177.099609" xlink:href="#DejaVuSans-116"/>
     </g>
    </g>
   </g>
  </g>
 </g>
 <defs>
  <clipPath id="p34abcc845a">
   <rect height="266.112" width="357.12" x="57.6" y="41.472"/>
  </clipPath>
 </defs>
</svg>
