<?xml version="1.0" encoding="UTF-8" standalone="no"?>
<!DOCTYPE svg PUBLIC "-//W3C//DTD SVG 1.1//EN"
 "http://www.w3.org/Graphics/SVG/1.1/DTD/svg11.dtd">
<!-- Generated by graphviz version 2.40.1 (20161225.0304)
 -->
<!-- Title: %3 Pages: 1 -->
<svg width="871pt" height="697pt"
 viewBox="0.00 0.00 871.00 697.25" xmlns="http://www.w3.org/2000/svg" xmlns:xlink="http://www.w3.org/1999/xlink">
<g id="graph0" class="graph" transform="scale(1 1) rotate(0) translate(4 693.2519)">
<title>%3</title>
<polygon fill="#ffffff" stroke="transparent" points="-4,4 -4,-693.2519 867,-693.2519 867,4 -4,4"/>
<!-- x&#45;vel -->
<g id="node1" class="node">
<title>x&#45;vel</title>
<polygon fill="#d3d3d3" stroke="#000000" points="478.5,-625.8671 443.5,-625.8671 443.5,-607.8671 478.5,-607.8671 478.5,-625.8671"/>
<text text-anchor="middle" x="461" y="-614.6671" font-family="Times,serif" font-size="9.00" fill="#000000">x&#45;vel</text>
</g>
<!-- none -->
<g id="node13" class="node">
<title>none</title>
<ellipse fill="#add8e6" stroke="#000000" cx="445" cy="-538.4407" rx="24.0833" ry="24.0833"/>
<text text-anchor="middle" x="445" y="-536.2407" font-family="Times,serif" font-size="9.00" fill="#000000">none</text>
</g>
<!-- x&#45;vel&#45;&gt;none -->
<g id="edge5" class="edge">
<title>x&#45;vel&#45;&gt;none</title>
<path fill="none" stroke="#ff0000" stroke-width=".2686" stroke-dasharray="1,5" d="M459.1018,-607.5626C457.3121,-598.7902 454.5193,-585.1011 451.8898,-572.2119"/>
<polygon fill="#ff0000" stroke="#ff0000" stroke-width=".2686" points="455.2666,-571.2542 449.8382,-562.1557 448.4078,-572.6536 455.2666,-571.2542"/>
</g>
<!-- right -->
<g id="node14" class="node">
<title>right</title>
<ellipse fill="#add8e6" stroke="#000000" cx="586" cy="-538.4407" rx="23.1702" ry="23.1702"/>
<text text-anchor="middle" x="586" y="-536.2407" font-family="Times,serif" font-size="9.00" fill="#000000">right</text>
</g>
<!-- x&#45;vel&#45;&gt;right -->
<g id="edge23" class="edge">
<title>x&#45;vel&#45;&gt;right</title>
<path fill="none" stroke="#00ff00" stroke-width=".5509" d="M474.0987,-607.7623C478.4876,-604.7614 483.4276,-601.4373 488,-598.4823 511.0026,-583.6166 537.5119,-567.431 557.1546,-555.6147"/>
<polygon fill="#00ff00" stroke="#00ff00" stroke-width=".5509" points="559.1537,-558.497 565.9292,-550.3519 555.5532,-552.4939 559.1537,-558.497"/>
</g>
<!-- left -->
<g id="node15" class="node">
<title>left</title>
<ellipse fill="#add8e6" stroke="#000000" cx="665" cy="-538.4407" rx="19.6" ry="19.6"/>
<text text-anchor="middle" x="665" y="-536.2407" font-family="Times,serif" font-size="9.00" fill="#000000">left</text>
</g>
<!-- x&#45;vel&#45;&gt;left -->
<g id="edge30" class="edge">
<title>x&#45;vel&#45;&gt;left</title>
<path fill="none" stroke="#00ff00" stroke-width=".6221" d="M472.2884,-607.8426C476.9336,-604.4953 482.5068,-600.9236 488,-598.4823 549.8617,-570.9896 575.5042,-592.8628 636,-562.4823 638.3012,-561.3267 640.5806,-559.9578 642.7904,-558.4686"/>
<polygon fill="#00ff00" stroke="#00ff00" stroke-width=".6221" points="645.0269,-561.1649 650.8675,-552.3253 640.7893,-555.5932 645.0269,-561.1649"/>
</g>
<!-- backward -->
<g id="node17" class="node">
<title>backward</title>
<ellipse fill="#add8e6" stroke="#000000" cx="573" cy="-356.8391" rx="36.125" ry="36.125"/>
<text text-anchor="middle" x="573" y="-354.6391" font-family="Times,serif" font-size="9.00" fill="#000000">backward</text>
</g>
<!-- x&#45;vel&#45;&gt;backward -->
<g id="edge4" class="edge">
<title>x&#45;vel&#45;&gt;backward</title>
<path fill="none" stroke="#ff0000" stroke-width=".3674" d="M464.9861,-607.6126C479.1821,-574.654 527.86,-461.6398 554.7636,-399.1781"/>
<polygon fill="#ff0000" stroke="#ff0000" stroke-width=".3674" points="557.9857,-400.5449 558.7272,-389.9761 551.5567,-397.7758 557.9857,-400.5449"/>
</g>
<!-- y&#45;vel -->
<g id="node2" class="node">
<title>y&#45;vel</title>
<polygon fill="#d3d3d3" stroke="#000000" points="644.5,-625.8671 609.5,-625.8671 609.5,-607.8671 644.5,-607.8671 644.5,-625.8671"/>
<text text-anchor="middle" x="627" y="-614.6671" font-family="Times,serif" font-size="9.00" fill="#000000">y&#45;vel</text>
</g>
<!-- y&#45;vel&#45;&gt;right -->
<g id="edge20" class="edge">
<title>y&#45;vel&#45;&gt;right</title>
<path fill="none" stroke="#ff0000" stroke-width=".4288" stroke-dasharray="1,5" d="M622.1358,-607.5626C617.0549,-597.8436 608.819,-582.0898 601.4922,-568.0748"/>
<polygon fill="#ff0000" stroke="#ff0000" stroke-width=".4288" points="604.5858,-566.4376 596.8511,-559.197 598.3823,-569.6806 604.5858,-566.4376"/>
</g>
<!-- x&#45;pos -->
<g id="node3" class="node">
<title>x&#45;pos</title>
<polygon fill="#d3d3d3" stroke="#000000" points="351,-625.8671 315,-625.8671 315,-607.8671 351,-607.8671 351,-625.8671"/>
<text text-anchor="middle" x="333" y="-614.6671" font-family="Times,serif" font-size="9.00" fill="#000000">x&#45;pos</text>
</g>
<!-- x&#45;pos&#45;&gt;right -->
<g id="edge6" class="edge">
<title>x&#45;pos&#45;&gt;right</title>
<path fill="none" stroke="#ff0000" stroke-width=".3929" d="M344.5793,-607.7128C349.1742,-604.4281 354.636,-600.9342 360,-598.4823 394.5138,-582.7063 499.1454,-557.9515 553.0774,-545.7453"/>
<polygon fill="#ff0000" stroke="#ff0000" stroke-width=".3929" points="553.8537,-549.1583 562.8409,-543.5475 552.3164,-542.3291 553.8537,-549.1583"/>
</g>
<!-- forward -->
<g id="node16" class="node">
<title>forward</title>
<ellipse fill="#add8e6" stroke="#000000" cx="200" cy="-356.8391" rx="31.6406" ry="31.6406"/>
<text text-anchor="middle" x="200" y="-354.6391" font-family="Times,serif" font-size="9.00" fill="#000000">forward</text>
</g>
<!-- x&#45;pos&#45;&gt;forward -->
<g id="edge13" class="edge">
<title>x&#45;pos&#45;&gt;forward</title>
<path fill="none" stroke="#ff0000" stroke-width=".4325" d="M314.6645,-615.1765C266.4508,-610.3148 138.1026,-594.546 113,-562.4823 98.7937,-544.3366 115.9251,-444.7992 124,-428.9016 133.5183,-410.1622 149.9362,-393.6533 165.0823,-381.1813"/>
<polygon fill="#ff0000" stroke="#ff0000" stroke-width=".4325" points="167.6361,-383.6243 173.314,-374.6793 163.2972,-378.1312 167.6361,-383.6243"/>
</g>
<!-- y&#45;pos -->
<g id="node4" class="node">
<title>y&#45;pos</title>
<polygon fill="#d3d3d3" stroke="#000000" points="863,-625.8671 827,-625.8671 827,-607.8671 863,-607.8671 863,-625.8671"/>
<text text-anchor="middle" x="845" y="-614.6671" font-family="Times,serif" font-size="9.00" fill="#000000">y&#45;pos</text>
</g>
<!-- y&#45;pos&#45;&gt;left -->
<g id="edge29" class="edge">
<title>y&#45;pos&#45;&gt;left</title>
<path fill="none" stroke="#00ff00" stroke-width=".374" stroke-dasharray="1,5" d="M832.9962,-607.845C828.4402,-604.6509 823.1149,-601.1836 818,-598.4823 776.5149,-576.5735 725.208,-558.0406 693.8069,-547.5841"/>
<polygon fill="#00ff00" stroke="#00ff00" stroke-width=".374" points="694.5567,-544.1465 683.9639,-544.3544 692.3743,-550.7977 694.5567,-544.1465"/>
</g>
<!-- y&#45;pos&#45;&gt;forward -->
<g id="edge19" class="edge">
<title>y&#45;pos&#45;&gt;forward</title>
<path fill="none" stroke="#ff0000" stroke-width=".222" stroke-dasharray="1,5" d="M835.124,-607.8257C823.6014,-597.1902 804.0779,-578.8988 788,-562.4823 767.7315,-541.787 769.8975,-527.3771 744,-514.3991 599.8477,-442.1596 526.6278,-551.6757 383,-478.3991 356.7809,-465.0225 362.231,-446.9762 339,-428.9016 308.2568,-404.9821 268.3774,-385.2613 239.2232,-372.5335"/>
<polygon fill="#ff0000" stroke="#ff0000" stroke-width=".222" points="240.3464,-369.2072 229.776,-368.4892 237.5916,-375.6423 240.3464,-369.2072"/>
</g>
<!-- y&#45;pos&#45;&gt;backward -->
<g id="edge10" class="edge">
<title>y&#45;pos&#45;&gt;backward</title>
<path fill="none" stroke="#00ff00" stroke-width=".2101" stroke-dasharray="1,5" d="M847.8348,-607.5859C852.9881,-588.9608 862.1194,-546.1016 848,-514.3991 807.2767,-422.9624 685.5699,-381.9156 618.5349,-365.8155"/>
<polygon fill="#00ff00" stroke="#00ff00" stroke-width=".2101" points="619.1936,-362.3755 608.6618,-363.5298 617.6147,-369.1951 619.1936,-362.3755"/>
</g>
<!-- x&#45;lm1&#45;vec -->
<g id="node5" class="node">
<title>x&#45;lm1&#45;vec</title>
<polygon fill="#d3d3d3" stroke="#000000" points="444.5,-462.6503 391.5,-462.6503 391.5,-444.6503 444.5,-444.6503 444.5,-462.6503"/>
<text text-anchor="middle" x="418" y="-451.4503" font-family="Times,serif" font-size="9.00" fill="#000000">x&#45;lm1&#45;vec</text>
</g>
<!-- x&#45;lm1&#45;vec&#45;&gt;forward -->
<g id="edge28" class="edge">
<title>x&#45;lm1&#45;vec&#45;&gt;forward</title>
<path fill="none" stroke="#ff0000" stroke-width=".3582" stroke-dasharray="1,5" d="M404.264,-444.6192C396.4429,-439.6667 386.3644,-433.598 377,-428.9016 331.186,-405.925 276.2132,-384.4383 239.8167,-371.0096"/>
<polygon fill="#ff0000" stroke="#ff0000" stroke-width=".3582" points="240.6604,-367.5914 230.0666,-367.4411 238.2545,-374.165 240.6604,-367.5914"/>
</g>
<!-- x&#45;lm1&#45;vec&#45;&gt;backward -->
<g id="edge22" class="edge">
<title>x&#45;lm1&#45;vec&#45;&gt;backward</title>
<path fill="none" stroke="#ff0000" stroke-width=".1686" stroke-dasharray="1,5" d="M432.582,-444.5426C455.4805,-430.2405 500.6538,-402.0257 533.5994,-381.4483"/>
<polygon fill="#ff0000" stroke="#ff0000" stroke-width=".1686" points="535.4867,-384.3962 542.1141,-376.1301 531.7784,-378.4591 535.4867,-384.3962"/>
</g>
<!-- 576 -->
<g id="node18" class="node">
<title>576</title>
<ellipse fill="#ffffff" stroke="#000000" cx="418" cy="-356.8391" rx="21.4286" ry="21.4286"/>
<text text-anchor="middle" x="418" y="-354.6391" font-family="Times,serif" font-size="9.00" fill="#000000">576</text>
</g>
<!-- x&#45;lm1&#45;vec&#45;&gt;576 -->
<g id="edge46" class="edge">
<title>x&#45;lm1&#45;vec&#45;&gt;576</title>
<path fill="none" stroke="#00ff00" stroke-width=".3755" d="M418,-444.3677C418,-431.5304 418,-407.7283 418,-388.1824"/>
<polygon fill="#00ff00" stroke="#00ff00" stroke-width=".3755" points="421.5001,-388.1446 418,-378.1447 414.5001,-388.1447 421.5001,-388.1446"/>
</g>
<!-- y&#45;lm1&#45;vec -->
<g id="node6" class="node">
<title>y&#45;lm1&#45;vec</title>
<polygon fill="#d3d3d3" stroke="#000000" points="175.5,-547.4407 122.5,-547.4407 122.5,-529.4407 175.5,-529.4407 175.5,-547.4407"/>
<text text-anchor="middle" x="149" y="-536.2407" font-family="Times,serif" font-size="9.00" fill="#000000">y&#45;lm1&#45;vec</text>
</g>
<!-- y&#45;lm1&#45;vec&#45;&gt;forward -->
<g id="edge17" class="edge">
<title>y&#45;lm1&#45;vec&#45;&gt;forward</title>
<path fill="none" stroke="#ff0000" stroke-width=".6354" stroke-dasharray="1,5" d="M144.6352,-529.2827C136.0908,-510.0104 119.1498,-464.1388 133,-428.9016 139.9477,-411.2253 153.4978,-395.3106 166.605,-382.9614"/>
<polygon fill="#ff0000" stroke="#ff0000" stroke-width=".6354" points="169.1221,-385.4049 174.2179,-376.116 164.4417,-380.1997 169.1221,-385.4049"/>
</g>
<!-- 1193 -->
<g id="node20" class="node">
<title>1193</title>
<ellipse fill="#ffffff" stroke="#000000" cx="167" cy="-453.6503" rx="25" ry="25"/>
<text text-anchor="middle" x="167" y="-451.4503" font-family="Times,serif" font-size="9.00" fill="#000000">1193</text>
</g>
<!-- y&#45;lm1&#45;vec&#45;&gt;1193 -->
<g id="edge51" class="edge">
<title>y&#45;lm1&#45;vec&#45;&gt;1193</title>
<path fill="none" stroke="#00ff00" stroke-width=".2271" stroke-dasharray="1,5" d="M150.9263,-529.3666C153.0191,-519.5086 156.4903,-503.1571 159.6724,-488.1674"/>
<polygon fill="#00ff00" stroke="#00ff00" stroke-width=".2271" points="163.1558,-488.6129 161.8088,-478.1041 156.3084,-487.1593 163.1558,-488.6129"/>
</g>
<!-- x&#45;lm2&#45;vec -->
<g id="node7" class="node">
<title>x&#45;lm2&#45;vec</title>
<polygon fill="#d3d3d3" stroke="#000000" points="808.5,-625.8671 755.5,-625.8671 755.5,-607.8671 808.5,-607.8671 808.5,-625.8671"/>
<text text-anchor="middle" x="782" y="-614.6671" font-family="Times,serif" font-size="9.00" fill="#000000">x&#45;lm2&#45;vec</text>
</g>
<!-- x&#45;lm2&#45;vec&#45;&gt;right -->
<g id="edge25" class="edge">
<title>x&#45;lm2&#45;vec&#45;&gt;right</title>
<path fill="none" stroke="#00ff00" stroke-width=".3745" stroke-dasharray="1,5" d="M755.6052,-607.8553C726.1422,-597.6069 677.1901,-580.0132 636,-562.4823 629.5691,-559.7453 622.7667,-556.6283 616.3201,-553.5666"/>
<polygon fill="#00ff00" stroke="#00ff00" stroke-width=".3745" points="617.7416,-550.3664 607.2144,-549.1713 614.6986,-556.6704 617.7416,-550.3664"/>
</g>
<!-- x&#45;lm2&#45;vec&#45;&gt;left -->
<g id="edge16" class="edge">
<title>x&#45;lm2&#45;vec&#45;&gt;left</title>
<path fill="none" stroke="#ff0000" stroke-width=".3676" d="M768.1191,-607.5626C748.9037,-594.6823 713.8755,-571.2025 690.0293,-555.2181"/>
<polygon fill="#ff0000" stroke="#ff0000" stroke-width=".3676" points="691.7491,-552.1574 681.4938,-549.4967 687.8516,-557.972 691.7491,-552.1574"/>
</g>
<!-- x&#45;lm2&#45;vec&#45;&gt;forward -->
<g id="edge11" class="edge">
<title>x&#45;lm2&#45;vec&#45;&gt;forward</title>
<path fill="none" stroke="#00ff00" stroke-width=".1792" d="M777.0341,-607.6281C764.456,-584.5939 730.9955,-525.661 712,-514.3991 572.5426,-431.7185 494.9987,-548.889 349,-478.3991 321.404,-465.0754 324.2346,-448.882 301,-428.9016 280.3712,-411.162 255.5115,-393.3849 235.6177,-379.9259"/>
<polygon fill="#00ff00" stroke="#00ff00" stroke-width=".1792" points="237.3982,-376.9059 227.142,-374.2485 233.5025,-382.7217 237.3982,-376.9059"/>
</g>
<!-- 460 -->
<g id="node21" class="node">
<title>460</title>
<ellipse fill="#ffffff" stroke="#000000" cx="818" cy="-538.4407" rx="21.4286" ry="21.4286"/>
<text text-anchor="middle" x="818" y="-536.2407" font-family="Times,serif" font-size="9.00" fill="#000000">460</text>
</g>
<!-- x&#45;lm2&#45;vec&#45;&gt;460 -->
<g id="edge35" class="edge">
<title>x&#45;lm2&#45;vec&#45;&gt;460</title>
<path fill="none" stroke="#ff0000" stroke-width=".2201" stroke-dasharray="1,5" d="M786.271,-607.5626C790.8109,-597.6725 798.2194,-581.533 804.7362,-567.336"/>
<polygon fill="#ff0000" stroke="#ff0000" stroke-width=".2201" points="808.0683,-568.4667 809.0592,-557.9183 801.7065,-565.5464 808.0683,-568.4667"/>
</g>
<!-- y&#45;lm2&#45;vec -->
<g id="node8" class="node">
<title>y&#45;lm2&#45;vec</title>
<polygon fill="#d3d3d3" stroke="#000000" points="657.5,-689.2519 604.5,-689.2519 604.5,-671.2519 657.5,-671.2519 657.5,-689.2519"/>
<text text-anchor="middle" x="631" y="-678.0519" font-family="Times,serif" font-size="9.00" fill="#000000">y&#45;lm2&#45;vec</text>
</g>
<!-- y&#45;lm2&#45;vec&#45;&gt;right -->
<g id="edge9" class="edge">
<title>y&#45;lm2&#45;vec&#45;&gt;right</title>
<path fill="none" stroke="#ff0000" stroke-width=".4776" stroke-dasharray="1,5" d="M623.0033,-670.9314C616.0323,-662.2756 606.2405,-648.7286 601,-635.2519 593.1467,-615.0557 589.3949,-590.9833 587.6074,-571.8951"/>
<polygon fill="#ff0000" stroke="#ff0000" stroke-width=".4776" points="591.0909,-571.5479 586.8028,-561.8597 584.1133,-572.1074 591.0909,-571.5479"/>
</g>
<!-- y&#45;lm2&#45;vec&#45;&gt;left -->
<g id="edge49" class="edge">
<title>y&#45;lm2&#45;vec&#45;&gt;left</title>
<path fill="none" stroke="#00ff00" stroke-width=".1242" d="M657.837,-672.3425C675.508,-665.5814 697.2882,-653.9189 708,-635.2519 722.2395,-610.4372 703.2939,-580.0313 686.2369,-559.993"/>
<polygon fill="#00ff00" stroke="#00ff00" stroke-width=".1242" points="688.6645,-557.4573 679.3859,-552.3426 683.4498,-562.1271 688.6645,-557.4573"/>
</g>
<!-- y&#45;lm2&#45;vec&#45;&gt;forward -->
<g id="edge12" class="edge">
<title>y&#45;lm2&#45;vec&#45;&gt;forward</title>
<path fill="none" stroke="#00ff00" stroke-width=".1037" d="M604.3334,-678.3386C530.5164,-672.7989 327.5086,-655.8235 306,-635.2519 238.6084,-570.796 310.1714,-512.0747 268,-428.9016 259.4164,-411.9725 245.5989,-396.2491 232.6541,-383.8371"/>
<polygon fill="#00ff00" stroke="#00ff00" stroke-width=".1037" points="234.8985,-381.1455 225.1794,-376.9277 230.1469,-386.2858 234.8985,-381.1455"/>
</g>
<!-- 73 -->
<g id="node19" class="node">
<title>73</title>
<ellipse fill="#ffffff" stroke="#000000" cx="681" cy="-616.8671" rx="18.2703" ry="18.2703"/>
<text text-anchor="middle" x="681" y="-614.6671" font-family="Times,serif" font-size="9.00" fill="#000000">73</text>
</g>
<!-- y&#45;lm2&#45;vec&#45;&gt;73 -->
<g id="edge31" class="edge">
<title>y&#45;lm2&#45;vec&#45;&gt;73</title>
<path fill="none" stroke="#ff0000" stroke-width=".511" d="M638.1638,-671.1704C644.7052,-662.8778 654.6461,-650.2758 663.3052,-639.2987"/>
<polygon fill="#ff0000" stroke="#ff0000" stroke-width=".511" points="666.1541,-641.3385 669.5995,-631.3195 660.6582,-637.0031 666.1541,-641.3385"/>
</g>
<!-- x&#45;other&#45;vec -->
<g id="node9" class="node">
<title>x&#45;other&#45;vec</title>
<polygon fill="#d3d3d3" stroke="#000000" points="67,-625.8671 9,-625.8671 9,-607.8671 67,-607.8671 67,-625.8671"/>
<text text-anchor="middle" x="38" y="-614.6671" font-family="Times,serif" font-size="9.00" fill="#000000">x&#45;other&#45;vec</text>
</g>
<!-- x&#45;other&#45;vec&#45;&gt;none -->
<g id="edge18" class="edge">
<title>x&#45;other&#45;vec&#45;&gt;none</title>
<path fill="none" stroke="#00ff00" stroke-width=".3781" d="M67.2704,-611.2269C140.7324,-597.0712 332.6058,-560.0984 410.9428,-545.0033"/>
<polygon fill="#00ff00" stroke="#00ff00" stroke-width=".3781" points="412.0617,-548.3522 421.2188,-543.0232 410.7372,-541.4786 412.0617,-548.3522"/>
</g>
<!-- x&#45;other&#45;vec&#45;&gt;forward -->
<g id="edge3" class="edge">
<title>x&#45;other&#45;vec&#45;&gt;forward</title>
<path fill="none" stroke="#ff0000" stroke-width=".1131" stroke-dasharray="1,5" d="M39.6259,-607.8167C45.121,-579.1785 65.1603,-488.8915 109,-428.9016 123.6786,-408.8155 145.3615,-391.344 163.8802,-378.6363"/>
<polygon fill="#ff0000" stroke="#ff0000" stroke-width=".1131" points="166.0147,-381.4201 172.4001,-372.9657 162.1362,-375.5927 166.0147,-381.4201"/>
</g>
<!-- 601 -->
<g id="node27" class="node">
<title>601</title>
<ellipse fill="#ffffff" stroke="#000000" cx="145" cy="-99.6396" rx="21.4286" ry="21.4286"/>
<text text-anchor="middle" x="145" y="-97.4396" font-family="Times,serif" font-size="9.00" fill="#000000">601</text>
</g>
<!-- x&#45;other&#45;vec&#45;&gt;601 -->
<g id="edge39" class="edge">
<title>x&#45;other&#45;vec&#45;&gt;601</title>
<path fill="none" stroke="#00ff00" stroke-width=".3992" d="M34.3564,-607.8364C24.8453,-583.4201 0,-513.8751 0,-453.6503 0,-453.6503 0,-453.6503 0,-263.5635 0,-193.4759 75.2862,-139.282 117.3613,-114.4674"/>
<polygon fill="#00ff00" stroke="#00ff00" stroke-width=".3992" points="119.1124,-117.4979 126.0438,-109.485 115.6284,-111.4265 119.1124,-117.4979"/>
</g>
<!-- y&#45;other&#45;vec -->
<g id="node10" class="node">
<title>y&#45;other&#45;vec</title>
<polygon fill="#d3d3d3" stroke="#000000" points="734,-689.2519 676,-689.2519 676,-671.2519 734,-671.2519 734,-689.2519"/>
<text text-anchor="middle" x="705" y="-678.0519" font-family="Times,serif" font-size="9.00" fill="#000000">y&#45;other&#45;vec</text>
</g>
<!-- x&#45;other&#45;vel -->
<g id="node11" class="node">
<title>x&#45;other&#45;vel</title>
<polygon fill="#d3d3d3" stroke="#000000" points="553,-625.8671 497,-625.8671 497,-607.8671 553,-607.8671 553,-625.8671"/>
<text text-anchor="middle" x="525" y="-614.6671" font-family="Times,serif" font-size="9.00" fill="#000000">x&#45;other&#45;vel</text>
</g>
<!-- x&#45;other&#45;vel&#45;&gt;none -->
<g id="edge27" class="edge">
<title>x&#45;other&#45;vel&#45;&gt;none</title>
<path fill="none" stroke="#00ff00" stroke-width=".2972" d="M515.5088,-607.5626C504.2691,-596.544 485.1169,-577.7685 469.6076,-562.5643"/>
<polygon fill="#00ff00" stroke="#00ff00" stroke-width=".2972" points="471.9284,-559.9381 462.3372,-555.4369 467.028,-564.9368 471.9284,-559.9381"/>
</g>
<!-- x&#45;other&#45;vel&#45;&gt;right -->
<g id="edge38" class="edge">
<title>x&#45;other&#45;vel&#45;&gt;right</title>
<path fill="none" stroke="#ff0000" stroke-width=".1388" d="M532.237,-607.5626C540.3098,-597.1837 553.7356,-579.9224 565.1507,-565.2462"/>
<polygon fill="#ff0000" stroke="#ff0000" stroke-width=".1388" points="568.2069,-567.0177 571.5837,-556.9754 562.6814,-562.72 568.2069,-567.0177"/>
</g>
<!-- x&#45;other&#45;vel&#45;&gt;left -->
<g id="edge2" class="edge">
<title>x&#45;other&#45;vel&#45;&gt;left</title>
<path fill="none" stroke="#ff0000" stroke-width=".3612" stroke-dasharray="1,5" d="M547.5256,-607.7067C570.5624,-597.914 606.985,-581.2394 636,-562.4823 637.9635,-561.213 639.9441,-559.8294 641.8988,-558.3881"/>
<polygon fill="#ff0000" stroke="#ff0000" stroke-width=".3612" points="644.4774,-560.8125 650.1687,-551.8761 640.1468,-555.3129 644.4774,-560.8125"/>
</g>
<!-- x&#45;other&#45;vel&#45;&gt;backward -->
<g id="edge21" class="edge">
<title>x&#45;other&#45;vel&#45;&gt;backward</title>
<path fill="none" stroke="#00ff00" stroke-width=".3158" d="M526.7083,-607.6126C532.6883,-575.2179 552.9448,-465.4832 564.5846,-402.4276"/>
<polygon fill="#00ff00" stroke="#00ff00" stroke-width=".3158" points="568.071,-402.8213 566.4445,-392.3521 561.1873,-401.5505 568.071,-402.8213"/>
</g>
<!-- y&#45;other&#45;vel -->
<g id="node12" class="node">
<title>y&#45;other&#45;vel</title>
<polygon fill="#d3d3d3" stroke="#000000" points="425,-625.8671 369,-625.8671 369,-607.8671 425,-607.8671 425,-625.8671"/>
<text text-anchor="middle" x="397" y="-614.6671" font-family="Times,serif" font-size="9.00" fill="#000000">y&#45;other&#45;vel</text>
</g>
<!-- y&#45;other&#45;vel&#45;&gt;none -->
<g id="edge26" class="edge">
<title>y&#45;other&#45;vel&#45;&gt;none</title>
<path fill="none" stroke="#ff0000" stroke-width="1.476" d="M402.6947,-607.5626C408.6431,-597.8436 418.2851,-582.0898 426.8628,-568.0748"/>
<polygon fill="#ff0000" stroke="#ff0000" stroke-width="1.476" points="430.0613,-569.5534 432.2963,-559.197 424.0908,-565.8992 430.0613,-569.5534"/>
</g>
<!-- y&#45;other&#45;vel&#45;&gt;left -->
<g id="edge24" class="edge">
<title>y&#45;other&#45;vel&#45;&gt;left</title>
<path fill="none" stroke="#ff0000" stroke-width="1.3253" d="M413.2399,-607.7988C419.8262,-604.4455 427.6111,-600.8811 435,-598.4823 521.3197,-570.4583 553.6859,-600.7032 636,-562.4823 638.3356,-561.3978 640.6387,-560.0782 642.8642,-558.6214"/>
<polygon fill="#ff0000" stroke="#ff0000" stroke-width="1.3253" points="645.0765,-561.3371 650.9667,-552.5305 640.8702,-555.7418 645.0765,-561.3371"/>
</g>
<!-- y&#45;other&#45;vel&#45;&gt;backward -->
<g id="edge8" class="edge">
<title>y&#45;other&#45;vel&#45;&gt;backward</title>
<path fill="none" stroke="#00ff00" stroke-width=".6882" stroke-dasharray="1,5" d="M396.2824,-607.7052C395.2335,-588.9303 394.9892,-545.2606 412,-514.3991 423.868,-492.8678 436.0502,-495.1994 454,-478.3991 484.4834,-449.8677 517.5902,-415.7762 541.1262,-390.967"/>
<polygon fill="#00ff00" stroke="#00ff00" stroke-width=".6882" points="543.7819,-393.2527 548.1098,-383.5821 538.6959,-388.4431 543.7819,-393.2527"/>
</g>
<!-- none&#45;&gt;1193 -->
<g id="edge55" class="edge">
<title>none&#45;&gt;1193</title>
<path fill="none" stroke="#00ff00" stroke-width=".3607" d="M420.9699,-535.8015C375.8156,-530.1521 276.0062,-514.3582 200,-478.3991 198.2036,-477.5492 196.409,-476.5928 194.6367,-475.5629"/>
<polygon fill="#00ff00" stroke="#00ff00" stroke-width=".3607" points="196.3436,-472.4972 186.0584,-469.9543 192.513,-478.3561 196.3436,-472.4972"/>
</g>
<!-- right&#45;&gt;right -->
<g id="edge14" class="edge">
<title>right&#45;&gt;right</title>
<path fill="none" stroke="#ff0000" stroke-width=".1512" d="M605.1334,-552.1516C616.5703,-555.1985 627.3345,-550.6282 627.3345,-538.4407 627.3345,-530.0618 622.2468,-525.2832 615.3505,-524.1049"/>
<polygon fill="#ff0000" stroke="#ff0000" stroke-width=".1512" points="614.901,-520.6258 605.1334,-524.7298 615.3284,-527.6127 614.901,-520.6258"/>
</g>
<!-- 341 -->
<g id="node26" class="node">
<title>341</title>
<ellipse fill="#ffffff" stroke="#000000" cx="598" cy="-453.6503" rx="21.4286" ry="21.4286"/>
<text text-anchor="middle" x="598" y="-451.4503" font-family="Times,serif" font-size="9.00" fill="#000000">341</text>
</g>
<!-- right&#45;&gt;341 -->
<g id="edge37" class="edge">
<title>right&#45;&gt;341</title>
<path fill="none" stroke="#00ff00" stroke-width=".3867" d="M589.2791,-515.2714C590.6078,-505.8823 592.1625,-494.8972 593.5883,-484.823"/>
<polygon fill="#00ff00" stroke="#00ff00" stroke-width=".3867" points="597.0766,-485.1514 595.0125,-474.7596 590.1457,-484.1704 597.0766,-485.1514"/>
</g>
<!-- left&#45;&gt;left -->
<g id="edge1" class="edge">
<title>left&#45;&gt;left</title>
<path fill="none" stroke="#ff0000" stroke-width=".1745" d="M680.1371,-551.3375C691.4236,-555.8412 702.799,-551.5423 702.799,-538.4407 702.799,-529.4334 697.4223,-524.5867 690.3944,-523.9005"/>
<polygon fill="#ff0000" stroke="#ff0000" stroke-width=".1745" points="689.4575,-520.5059 680.1371,-525.5438 690.5649,-527.4178 689.4575,-520.5059"/>
</g>
<!-- forward&#45;&gt;forward -->
<g id="edge7" class="edge">
<title>forward&#45;&gt;forward</title>
<path fill="none" stroke="#00ff00" stroke-width=".4418" d="M227.1601,-373.8196C239.3109,-375.4368 249.8198,-369.7766 249.8198,-356.8391 249.8198,-347.7425 244.6244,-342.2436 237.3158,-340.3425"/>
<polygon fill="#00ff00" stroke="#00ff00" stroke-width=".4418" points="237.3153,-336.8386 227.1601,-339.8587 236.9821,-343.8307 237.3153,-336.8386"/>
</g>
<!-- 721 -->
<g id="node23" class="node">
<title>721</title>
<ellipse fill="#ffffff" stroke="#000000" cx="200" cy="-263.5635" rx="21.4286" ry="21.4286"/>
<text text-anchor="middle" x="200" y="-261.3635" font-family="Times,serif" font-size="9.00" fill="#000000">721</text>
</g>
<!-- forward&#45;&gt;721 -->
<g id="edge42" class="edge">
<title>forward&#45;&gt;721</title>
<path fill="none" stroke="#00ff00" stroke-width=".2725" stroke-dasharray="1,5" d="M200,-324.9998C200,-315.3105 200,-304.6705 200,-295.0074"/>
<polygon fill="#00ff00" stroke="#00ff00" stroke-width=".2725" points="203.5001,-294.9966 200,-284.9966 196.5001,-294.9967 203.5001,-294.9966"/>
</g>
<!-- forward&#45;&gt;601 -->
<g id="edge41" class="edge">
<title>forward&#45;&gt;601</title>
<path fill="none" stroke="#00ff00" stroke-width=".4457" d="M179.8219,-332.057C172.5664,-318.4111 165.3907,-300.997 161,-284.7767 146.6538,-231.7776 140.349,-167.9134 140.3265,-130.7304"/>
<polygon fill="#00ff00" stroke="#00ff00" stroke-width=".4457" points="143.8292,-130.5939 140.5017,-120.5352 136.8303,-130.4735 143.8292,-130.5939"/>
</g>
<!-- backward&#45;&gt;backward -->
<g id="edge15" class="edge">
<title>backward&#45;&gt;backward</title>
<path fill="none" stroke="#00ff00" stroke-width=".1748" stroke-dasharray="1,5" d="M604.9221,-374.0376C617.0396,-374.7009 627.0624,-368.968 627.0624,-356.8391 627.0624,-348.311 622.1073,-342.945 614.953,-340.7411"/>
<polygon fill="#00ff00" stroke="#00ff00" stroke-width=".1748" points="615.2441,-337.2522 604.9221,-339.6407 614.4808,-344.2104 615.2441,-337.2522"/>
</g>
<!-- 73&#45;&gt;right -->
<g id="edge32" class="edge">
<title>73&#45;&gt;right</title>
<path fill="none" stroke="#ff0000" stroke-width=".2201" d="M666.5715,-604.9558C652.2081,-593.0982 629.8353,-574.6286 612.3064,-560.1577"/>
<polygon fill="#ff0000" stroke="#ff0000" stroke-width=".2201" points="614.0866,-557.0888 604.1467,-553.4215 609.6302,-562.487 614.0866,-557.0888"/>
</g>
<!-- 73&#45;&gt;left -->
<g id="edge33" class="edge">
<title>73&#45;&gt;left</title>
<path fill="none" stroke="#ff0000" stroke-width=".8404" d="M677.2891,-598.6774C675.4197,-589.5143 673.1067,-578.1767 670.9934,-567.8181"/>
<polygon fill="#ff0000" stroke="#ff0000" stroke-width=".8404" points="674.3989,-567.0011 668.9705,-557.9026 667.5401,-568.4004 674.3989,-567.0011"/>
</g>
<!-- 1193&#45;&gt;forward -->
<g id="edge52" class="edge">
<title>1193&#45;&gt;forward</title>
<path fill="none" stroke="#00ff00" stroke-width=".5039" d="M174.9884,-430.215C178.4112,-420.1737 182.5069,-408.1582 186.3834,-396.7857"/>
<polygon fill="#00ff00" stroke="#00ff00" stroke-width=".5039" points="189.7976,-397.6174 189.7113,-387.0229 183.172,-395.3589 189.7976,-397.6174"/>
</g>
<!-- 460&#45;&gt;backward -->
<g id="edge36" class="edge">
<title>460&#45;&gt;backward</title>
<path fill="none" stroke="#00ff00" stroke-width=".1826" d="M804.8509,-521.55C786.2605,-498.474 750.3728,-456.783 713,-428.9016 682.8812,-406.432 644.7422,-387.3155 615.88,-374.4298"/>
<polygon fill="#00ff00" stroke="#00ff00" stroke-width=".1826" points="617.0362,-371.1151 606.4725,-370.3028 614.224,-377.5254 617.0362,-371.1151"/>
</g>
<!-- 941 -->
<g id="node22" class="node">
<title>941</title>
<ellipse fill="#ffffff" stroke="#000000" cx="683" cy="-453.6503" rx="21.4286" ry="21.4286"/>
<text text-anchor="middle" x="683" y="-451.4503" font-family="Times,serif" font-size="9.00" fill="#000000">941</text>
</g>
<!-- 460&#45;&gt;941 -->
<g id="edge47" class="edge">
<title>460&#45;&gt;941</title>
<path fill="none" stroke="#00ff00" stroke-width=".1219" d="M800.3242,-526.0156C794.8177,-522.2217 788.6955,-518.0811 783,-514.3991 758.7387,-498.7147 730.571,-481.7083 710.325,-469.6893"/>
<polygon fill="#00ff00" stroke="#00ff00" stroke-width=".1219" points="712.0114,-466.6204 701.6227,-464.5407 708.447,-472.645 712.0114,-466.6204"/>
</g>
<!-- 941&#45;&gt;backward -->
<g id="edge48" class="edge">
<title>941&#45;&gt;backward</title>
<path fill="none" stroke="#00ff00" stroke-width=".1257" d="M666.7691,-439.3655C651.3635,-425.807 627.7011,-404.9816 608.0012,-387.6438"/>
<polygon fill="#00ff00" stroke="#00ff00" stroke-width=".1257" points="610.2134,-384.9282 600.3942,-380.9489 605.5887,-390.183 610.2134,-384.9282"/>
</g>
<!-- 1204 -->
<g id="node25" class="node">
<title>1204</title>
<ellipse fill="#ffffff" stroke="#000000" cx="221" cy="-181.6016" rx="25" ry="25"/>
<text text-anchor="middle" x="221" y="-179.4016" font-family="Times,serif" font-size="9.00" fill="#000000">1204</text>
</g>
<!-- 721&#45;&gt;1204 -->
<g id="edge53" class="edge">
<title>721&#45;&gt;1204</title>
<path fill="none" stroke="#00ff00" stroke-width=".2823" d="M205.2992,-242.881C207.4229,-234.5924 209.9263,-224.8216 212.3027,-215.5466"/>
<polygon fill="#00ff00" stroke="#00ff00" stroke-width=".2823" points="215.716,-216.3261 214.8076,-205.7703 208.935,-214.5886 215.716,-216.3261"/>
</g>
<!-- 721&#45;&gt;601 -->
<g id="edge43" class="edge">
<title>721&#45;&gt;601</title>
<path fill="none" stroke="#ff0000" stroke-width=".4129" stroke-dasharray="1,5" d="M193.1454,-243.1339C183.5418,-214.511 166.0221,-162.2945 154.9734,-129.3647"/>
<polygon fill="#ff0000" stroke="#ff0000" stroke-width=".4129" points="158.2674,-128.179 151.7682,-119.8118 151.631,-130.4057 158.2674,-128.179"/>
</g>
<!-- 785 -->
<g id="node24" class="node">
<title>785</title>
<ellipse fill="#ffffff" stroke="#000000" cx="198" cy="-21.2132" rx="21.4286" ry="21.4286"/>
<text text-anchor="middle" x="198" y="-19.0132" font-family="Times,serif" font-size="9.00" fill="#000000">785</text>
</g>
<!-- 785&#45;&gt;forward -->
<g id="edge45" class="edge">
<title>785&#45;&gt;forward</title>
<path fill="none" stroke="#00ff00" stroke-width=".2101" d="M208.6176,-39.7615C222.5064,-65.1983 246.1165,-112.783 255,-156.8528 266.6597,-214.6948 240.8584,-280.4262 220.7759,-320.2483"/>
<polygon fill="#00ff00" stroke="#00ff00" stroke-width=".2101" points="217.574,-318.8201 216.0784,-329.3088 223.7885,-322.042 217.574,-318.8201"/>
</g>
<!-- 1204&#45;&gt;601 -->
<g id="edge54" class="edge">
<title>1204&#45;&gt;601</title>
<path fill="none" stroke="#00ff00" stroke-width=".3864" d="M204.1331,-163.4115C193.0515,-151.4605 178.4539,-135.7179 166.5354,-122.8644"/>
<polygon fill="#00ff00" stroke="#00ff00" stroke-width=".3864" points="168.8818,-120.2473 159.5159,-115.2943 163.7489,-125.0068 168.8818,-120.2473"/>
</g>
<!-- 341&#45;&gt;backward -->
<g id="edge34" class="edge">
<title>341&#45;&gt;backward</title>
<path fill="none" stroke="#00ff00" stroke-width=".6535" d="M592.5754,-432.6437C590.2225,-423.5322 587.3708,-412.4894 584.5806,-401.6845"/>
<polygon fill="#00ff00" stroke="#00ff00" stroke-width=".6535" points="587.9408,-400.6979 582.0515,-391.8907 581.1631,-402.4482 587.9408,-400.6979"/>
</g>
<!-- 601&#45;&gt;forward -->
<g id="edge40" class="edge">
<title>601&#45;&gt;forward</title>
<path fill="none" stroke="#00ff00" stroke-width=".1834" stroke-dasharray="1,5" d="M151.5078,-119.9793C157.1178,-154.4316 163.1529,-226.2328 179,-284.7767 181.8175,-295.1852 185.7818,-306.0853 189.6375,-316.1658"/>
<polygon fill="#00ff00" stroke="#00ff00" stroke-width=".1834" points="186.3898,-317.4714 193.2601,-325.5367 192.9189,-314.9474 186.3898,-317.4714"/>
</g>
<!-- 601&#45;&gt;785 -->
<g id="edge44" class="edge">
<title>601&#45;&gt;785</title>
<path fill="none" stroke="#ff0000" stroke-width=".5272" stroke-dasharray="1,5" d="M157.0265,-81.8434C163.9384,-71.6156 172.7453,-58.5836 180.4215,-47.2248"/>
<polygon fill="#ff0000" stroke="#ff0000" stroke-width=".5272" points="183.3217,-49.1841 186.0211,-38.9389 177.5219,-45.2646 183.3217,-49.1841"/>
</g>
<!-- 1054 -->
<g id="node28" class="node">
<title>1054</title>
<ellipse fill="#ffffff" stroke="#000000" cx="234" cy="-453.6503" rx="25" ry="25"/>
<text text-anchor="middle" x="234" y="-451.4503" font-family="Times,serif" font-size="9.00" fill="#000000">1054</text>
</g>
<!-- 1054&#45;&gt;forward -->
<g id="edge50" class="edge">
<title>1054&#45;&gt;forward</title>
<path fill="none" stroke="#ff0000" stroke-width=".1239" d="M225.7695,-430.215C222.243,-420.1737 218.0232,-408.1582 214.0292,-396.7857"/>
<polygon fill="#ff0000" stroke="#ff0000" stroke-width=".1239" points="217.2164,-395.2982 210.6005,-387.0229 210.6119,-397.6177 217.2164,-395.2982"/>
</g>
</g>
</svg>
