<?xml version="1.0" encoding="utf-8" standalone="no"?>
<!DOCTYPE svg PUBLIC "-//W3C//DTD SVG 1.1//EN"
  "http://www.w3.org/Graphics/SVG/1.1/DTD/svg11.dtd">
<!-- Created with matplotlib (https://matplotlib.org/) -->
<svg height="345.6pt" version="1.1" viewBox="0 0 460.8 345.6" width="460.8pt" xmlns="http://www.w3.org/2000/svg" xmlns:xlink="http://www.w3.org/1999/xlink">
 <metadata>
  <rdf:RDF xmlns:cc="http://creativecommons.org/ns#" xmlns:dc="http://purl.org/dc/elements/1.1/" xmlns:rdf="http://www.w3.org/1999/02/22-rdf-syntax-ns#">
   <cc:Work>
    <dc:type rdf:resource="http://purl.org/dc/dcmitype/StillImage"/>
    <dc:date>2021-04-15T01:27:16.768960</dc:date>
    <dc:format>image/svg+xml</dc:format>
    <dc:creator>
     <cc:Agent>
      <dc:title>Matplotlib v3.3.4, https://matplotlib.org/</dc:title>
     </cc:Agent>
    </dc:creator>
   </cc:Work>
  </rdf:RDF>
 </metadata>
 <defs>
  <style type="text/css">*{stroke-linecap:butt;stroke-linejoin:round;}</style>
 </defs>
 <g id="figure_1">
  <g id="patch_1">
   <path d="M 0 345.6 
L 460.8 345.6 
L 460.8 0 
L 0 0 
z
" style="fill:#ffffff;"/>
  </g>
  <g id="axes_1">
   <g id="patch_2">
    <path d="M 57.6 307.584 
L 414.72 307.584 
L 414.72 41.472 
L 57.6 41.472 
z
" style="fill:#ffffff;"/>
   </g>
   <g id="matplotlib.axis_1">
    <g id="xtick_1">
     <g id="line2d_1">
      <path clip-path="url(#pee0d415c0f)" d="M 73.832727 307.584 
L 73.832727 41.472 
" style="fill:none;stroke:#b0b0b0;stroke-linecap:square;stroke-width:0.8;"/>
     </g>
     <g id="line2d_2">
      <defs>
       <path d="M 0 0 
L 0 3.5 
" id="mf102b1d87f" style="stroke:#000000;stroke-width:0.8;"/>
      </defs>
      <g>
       <use style="stroke:#000000;stroke-width:0.8;" x="73.832727" xlink:href="#mf102b1d87f" y="307.584"/>
      </g>
     </g>
     <g id="text_1">
      <!-- 0 -->
      <g transform="translate(70.651477 322.182437)scale(0.1 -0.1)">
       <defs>
        <path d="M 31.78125 66.40625 
Q 24.171875 66.40625 20.328125 58.90625 
Q 16.5 51.421875 16.5 36.375 
Q 16.5 21.390625 20.328125 13.890625 
Q 24.171875 6.390625 31.78125 6.390625 
Q 39.453125 6.390625 43.28125 13.890625 
Q 47.125 21.390625 47.125 36.375 
Q 47.125 51.421875 43.28125 58.90625 
Q 39.453125 66.40625 31.78125 66.40625 
z
M 31.78125 74.21875 
Q 44.046875 74.21875 50.515625 64.515625 
Q 56.984375 54.828125 56.984375 36.375 
Q 56.984375 17.96875 50.515625 8.265625 
Q 44.046875 -1.421875 31.78125 -1.421875 
Q 19.53125 -1.421875 13.0625 8.265625 
Q 6.59375 17.96875 6.59375 36.375 
Q 6.59375 54.828125 13.0625 64.515625 
Q 19.53125 74.21875 31.78125 74.21875 
z
" id="DejaVuSans-48"/>
       </defs>
       <use xlink:href="#DejaVuSans-48"/>
      </g>
     </g>
    </g>
    <g id="xtick_2">
     <g id="line2d_3">
      <path clip-path="url(#pee0d415c0f)" d="M 143.055445 307.584 
L 143.055445 41.472 
" style="fill:none;stroke:#b0b0b0;stroke-linecap:square;stroke-width:0.8;"/>
     </g>
     <g id="line2d_4">
      <g>
       <use style="stroke:#000000;stroke-width:0.8;" x="143.055445" xlink:href="#mf102b1d87f" y="307.584"/>
      </g>
     </g>
     <g id="text_2">
      <!-- 100 -->
      <g transform="translate(133.511695 322.182437)scale(0.1 -0.1)">
       <defs>
        <path d="M 12.40625 8.296875 
L 28.515625 8.296875 
L 28.515625 63.921875 
L 10.984375 60.40625 
L 10.984375 69.390625 
L 28.421875 72.90625 
L 38.28125 72.90625 
L 38.28125 8.296875 
L 54.390625 8.296875 
L 54.390625 0 
L 12.40625 0 
z
" id="DejaVuSans-49"/>
       </defs>
       <use xlink:href="#DejaVuSans-49"/>
       <use x="63.623047" xlink:href="#DejaVuSans-48"/>
       <use x="127.246094" xlink:href="#DejaVuSans-48"/>
      </g>
     </g>
    </g>
    <g id="xtick_3">
     <g id="line2d_5">
      <path clip-path="url(#pee0d415c0f)" d="M 212.278162 307.584 
L 212.278162 41.472 
" style="fill:none;stroke:#b0b0b0;stroke-linecap:square;stroke-width:0.8;"/>
     </g>
     <g id="line2d_6">
      <g>
       <use style="stroke:#000000;stroke-width:0.8;" x="212.278162" xlink:href="#mf102b1d87f" y="307.584"/>
      </g>
     </g>
     <g id="text_3">
      <!-- 200 -->
      <g transform="translate(202.734412 322.182437)scale(0.1 -0.1)">
       <defs>
        <path d="M 19.1875 8.296875 
L 53.609375 8.296875 
L 53.609375 0 
L 7.328125 0 
L 7.328125 8.296875 
Q 12.9375 14.109375 22.625 23.890625 
Q 32.328125 33.6875 34.8125 36.53125 
Q 39.546875 41.84375 41.421875 45.53125 
Q 43.3125 49.21875 43.3125 52.78125 
Q 43.3125 58.59375 39.234375 62.25 
Q 35.15625 65.921875 28.609375 65.921875 
Q 23.96875 65.921875 18.8125 64.3125 
Q 13.671875 62.703125 7.8125 59.421875 
L 7.8125 69.390625 
Q 13.765625 71.78125 18.9375 73 
Q 24.125 74.21875 28.421875 74.21875 
Q 39.75 74.21875 46.484375 68.546875 
Q 53.21875 62.890625 53.21875 53.421875 
Q 53.21875 48.921875 51.53125 44.890625 
Q 49.859375 40.875 45.40625 35.40625 
Q 44.1875 33.984375 37.640625 27.21875 
Q 31.109375 20.453125 19.1875 8.296875 
z
" id="DejaVuSans-50"/>
       </defs>
       <use xlink:href="#DejaVuSans-50"/>
       <use x="63.623047" xlink:href="#DejaVuSans-48"/>
       <use x="127.246094" xlink:href="#DejaVuSans-48"/>
      </g>
     </g>
    </g>
    <g id="xtick_4">
     <g id="line2d_7">
      <path clip-path="url(#pee0d415c0f)" d="M 281.50088 307.584 
L 281.50088 41.472 
" style="fill:none;stroke:#b0b0b0;stroke-linecap:square;stroke-width:0.8;"/>
     </g>
     <g id="line2d_8">
      <g>
       <use style="stroke:#000000;stroke-width:0.8;" x="281.50088" xlink:href="#mf102b1d87f" y="307.584"/>
      </g>
     </g>
     <g id="text_4">
      <!-- 300 -->
      <g transform="translate(271.95713 322.182437)scale(0.1 -0.1)">
       <defs>
        <path d="M 40.578125 39.3125 
Q 47.65625 37.796875 51.625 33 
Q 55.609375 28.21875 55.609375 21.1875 
Q 55.609375 10.40625 48.1875 4.484375 
Q 40.765625 -1.421875 27.09375 -1.421875 
Q 22.515625 -1.421875 17.65625 -0.515625 
Q 12.796875 0.390625 7.625 2.203125 
L 7.625 11.71875 
Q 11.71875 9.328125 16.59375 8.109375 
Q 21.484375 6.890625 26.8125 6.890625 
Q 36.078125 6.890625 40.9375 10.546875 
Q 45.796875 14.203125 45.796875 21.1875 
Q 45.796875 27.640625 41.28125 31.265625 
Q 36.765625 34.90625 28.71875 34.90625 
L 20.21875 34.90625 
L 20.21875 43.015625 
L 29.109375 43.015625 
Q 36.375 43.015625 40.234375 45.921875 
Q 44.09375 48.828125 44.09375 54.296875 
Q 44.09375 59.90625 40.109375 62.90625 
Q 36.140625 65.921875 28.71875 65.921875 
Q 24.65625 65.921875 20.015625 65.03125 
Q 15.375 64.15625 9.8125 62.3125 
L 9.8125 71.09375 
Q 15.4375 72.65625 20.34375 73.4375 
Q 25.25 74.21875 29.59375 74.21875 
Q 40.828125 74.21875 47.359375 69.109375 
Q 53.90625 64.015625 53.90625 55.328125 
Q 53.90625 49.265625 50.4375 45.09375 
Q 46.96875 40.921875 40.578125 39.3125 
z
" id="DejaVuSans-51"/>
       </defs>
       <use xlink:href="#DejaVuSans-51"/>
       <use x="63.623047" xlink:href="#DejaVuSans-48"/>
       <use x="127.246094" xlink:href="#DejaVuSans-48"/>
      </g>
     </g>
    </g>
    <g id="xtick_5">
     <g id="line2d_9">
      <path clip-path="url(#pee0d415c0f)" d="M 350.723598 307.584 
L 350.723598 41.472 
" style="fill:none;stroke:#b0b0b0;stroke-linecap:square;stroke-width:0.8;"/>
     </g>
     <g id="line2d_10">
      <g>
       <use style="stroke:#000000;stroke-width:0.8;" x="350.723598" xlink:href="#mf102b1d87f" y="307.584"/>
      </g>
     </g>
     <g id="text_5">
      <!-- 400 -->
      <g transform="translate(341.179848 322.182437)scale(0.1 -0.1)">
       <defs>
        <path d="M 37.796875 64.3125 
L 12.890625 25.390625 
L 37.796875 25.390625 
z
M 35.203125 72.90625 
L 47.609375 72.90625 
L 47.609375 25.390625 
L 58.015625 25.390625 
L 58.015625 17.1875 
L 47.609375 17.1875 
L 47.609375 0 
L 37.796875 0 
L 37.796875 17.1875 
L 4.890625 17.1875 
L 4.890625 26.703125 
z
" id="DejaVuSans-52"/>
       </defs>
       <use xlink:href="#DejaVuSans-52"/>
       <use x="63.623047" xlink:href="#DejaVuSans-48"/>
       <use x="127.246094" xlink:href="#DejaVuSans-48"/>
      </g>
     </g>
    </g>
    <g id="text_6">
     <!-- Generations -->
     <g transform="translate(205.662344 335.860562)scale(0.1 -0.1)">
      <defs>
       <path d="M 59.515625 10.40625 
L 59.515625 29.984375 
L 43.40625 29.984375 
L 43.40625 38.09375 
L 69.28125 38.09375 
L 69.28125 6.78125 
Q 63.578125 2.734375 56.6875 0.65625 
Q 49.8125 -1.421875 42 -1.421875 
Q 24.90625 -1.421875 15.25 8.5625 
Q 5.609375 18.5625 5.609375 36.375 
Q 5.609375 54.25 15.25 64.234375 
Q 24.90625 74.21875 42 74.21875 
Q 49.125 74.21875 55.546875 72.453125 
Q 61.96875 70.703125 67.390625 67.28125 
L 67.390625 56.78125 
Q 61.921875 61.421875 55.765625 63.765625 
Q 49.609375 66.109375 42.828125 66.109375 
Q 29.4375 66.109375 22.71875 58.640625 
Q 16.015625 51.171875 16.015625 36.375 
Q 16.015625 21.625 22.71875 14.15625 
Q 29.4375 6.6875 42.828125 6.6875 
Q 48.046875 6.6875 52.140625 7.59375 
Q 56.25 8.5 59.515625 10.40625 
z
" id="DejaVuSans-71"/>
       <path d="M 56.203125 29.59375 
L 56.203125 25.203125 
L 14.890625 25.203125 
Q 15.484375 15.921875 20.484375 11.0625 
Q 25.484375 6.203125 34.421875 6.203125 
Q 39.59375 6.203125 44.453125 7.46875 
Q 49.3125 8.734375 54.109375 11.28125 
L 54.109375 2.78125 
Q 49.265625 0.734375 44.1875 -0.34375 
Q 39.109375 -1.421875 33.890625 -1.421875 
Q 20.796875 -1.421875 13.15625 6.1875 
Q 5.515625 13.8125 5.515625 26.8125 
Q 5.515625 40.234375 12.765625 48.109375 
Q 20.015625 56 32.328125 56 
Q 43.359375 56 49.78125 48.890625 
Q 56.203125 41.796875 56.203125 29.59375 
z
M 47.21875 32.234375 
Q 47.125 39.59375 43.09375 43.984375 
Q 39.0625 48.390625 32.421875 48.390625 
Q 24.90625 48.390625 20.390625 44.140625 
Q 15.875 39.890625 15.1875 32.171875 
z
" id="DejaVuSans-101"/>
       <path d="M 54.890625 33.015625 
L 54.890625 0 
L 45.90625 0 
L 45.90625 32.71875 
Q 45.90625 40.484375 42.875 44.328125 
Q 39.84375 48.1875 33.796875 48.1875 
Q 26.515625 48.1875 22.3125 43.546875 
Q 18.109375 38.921875 18.109375 30.90625 
L 18.109375 0 
L 9.078125 0 
L 9.078125 54.6875 
L 18.109375 54.6875 
L 18.109375 46.1875 
Q 21.34375 51.125 25.703125 53.5625 
Q 30.078125 56 35.796875 56 
Q 45.21875 56 50.046875 50.171875 
Q 54.890625 44.34375 54.890625 33.015625 
z
" id="DejaVuSans-110"/>
       <path d="M 41.109375 46.296875 
Q 39.59375 47.171875 37.8125 47.578125 
Q 36.03125 48 33.890625 48 
Q 26.265625 48 22.1875 43.046875 
Q 18.109375 38.09375 18.109375 28.8125 
L 18.109375 0 
L 9.078125 0 
L 9.078125 54.6875 
L 18.109375 54.6875 
L 18.109375 46.1875 
Q 20.953125 51.171875 25.484375 53.578125 
Q 30.03125 56 36.53125 56 
Q 37.453125 56 38.578125 55.875 
Q 39.703125 55.765625 41.0625 55.515625 
z
" id="DejaVuSans-114"/>
       <path d="M 34.28125 27.484375 
Q 23.390625 27.484375 19.1875 25 
Q 14.984375 22.515625 14.984375 16.5 
Q 14.984375 11.71875 18.140625 8.90625 
Q 21.296875 6.109375 26.703125 6.109375 
Q 34.1875 6.109375 38.703125 11.40625 
Q 43.21875 16.703125 43.21875 25.484375 
L 43.21875 27.484375 
z
M 52.203125 31.203125 
L 52.203125 0 
L 43.21875 0 
L 43.21875 8.296875 
Q 40.140625 3.328125 35.546875 0.953125 
Q 30.953125 -1.421875 24.3125 -1.421875 
Q 15.921875 -1.421875 10.953125 3.296875 
Q 6 8.015625 6 15.921875 
Q 6 25.140625 12.171875 29.828125 
Q 18.359375 34.515625 30.609375 34.515625 
L 43.21875 34.515625 
L 43.21875 35.40625 
Q 43.21875 41.609375 39.140625 45 
Q 35.0625 48.390625 27.6875 48.390625 
Q 23 48.390625 18.546875 47.265625 
Q 14.109375 46.140625 10.015625 43.890625 
L 10.015625 52.203125 
Q 14.9375 54.109375 19.578125 55.046875 
Q 24.21875 56 28.609375 56 
Q 40.484375 56 46.34375 49.84375 
Q 52.203125 43.703125 52.203125 31.203125 
z
" id="DejaVuSans-97"/>
       <path d="M 18.3125 70.21875 
L 18.3125 54.6875 
L 36.8125 54.6875 
L 36.8125 47.703125 
L 18.3125 47.703125 
L 18.3125 18.015625 
Q 18.3125 11.328125 20.140625 9.421875 
Q 21.96875 7.515625 27.59375 7.515625 
L 36.8125 7.515625 
L 36.8125 0 
L 27.59375 0 
Q 17.1875 0 13.234375 3.875 
Q 9.28125 7.765625 9.28125 18.015625 
L 9.28125 47.703125 
L 2.6875 47.703125 
L 2.6875 54.6875 
L 9.28125 54.6875 
L 9.28125 70.21875 
z
" id="DejaVuSans-116"/>
       <path d="M 9.421875 54.6875 
L 18.40625 54.6875 
L 18.40625 0 
L 9.421875 0 
z
M 9.421875 75.984375 
L 18.40625 75.984375 
L 18.40625 64.59375 
L 9.421875 64.59375 
z
" id="DejaVuSans-105"/>
       <path d="M 30.609375 48.390625 
Q 23.390625 48.390625 19.1875 42.75 
Q 14.984375 37.109375 14.984375 27.296875 
Q 14.984375 17.484375 19.15625 11.84375 
Q 23.34375 6.203125 30.609375 6.203125 
Q 37.796875 6.203125 41.984375 11.859375 
Q 46.1875 17.53125 46.1875 27.296875 
Q 46.1875 37.015625 41.984375 42.703125 
Q 37.796875 48.390625 30.609375 48.390625 
z
M 30.609375 56 
Q 42.328125 56 49.015625 48.375 
Q 55.71875 40.765625 55.71875 27.296875 
Q 55.71875 13.875 49.015625 6.21875 
Q 42.328125 -1.421875 30.609375 -1.421875 
Q 18.84375 -1.421875 12.171875 6.21875 
Q 5.515625 13.875 5.515625 27.296875 
Q 5.515625 40.765625 12.171875 48.375 
Q 18.84375 56 30.609375 56 
z
" id="DejaVuSans-111"/>
       <path d="M 44.28125 53.078125 
L 44.28125 44.578125 
Q 40.484375 46.53125 36.375 47.5 
Q 32.28125 48.484375 27.875 48.484375 
Q 21.1875 48.484375 17.84375 46.4375 
Q 14.5 44.390625 14.5 40.28125 
Q 14.5 37.15625 16.890625 35.375 
Q 19.28125 33.59375 26.515625 31.984375 
L 29.59375 31.296875 
Q 39.15625 29.25 43.1875 25.515625 
Q 47.21875 21.78125 47.21875 15.09375 
Q 47.21875 7.46875 41.1875 3.015625 
Q 35.15625 -1.421875 24.609375 -1.421875 
Q 20.21875 -1.421875 15.453125 -0.5625 
Q 10.6875 0.296875 5.421875 2 
L 5.421875 11.28125 
Q 10.40625 8.6875 15.234375 7.390625 
Q 20.0625 6.109375 24.8125 6.109375 
Q 31.15625 6.109375 34.5625 8.28125 
Q 37.984375 10.453125 37.984375 14.40625 
Q 37.984375 18.0625 35.515625 20.015625 
Q 33.0625 21.96875 24.703125 23.78125 
L 21.578125 24.515625 
Q 13.234375 26.265625 9.515625 29.90625 
Q 5.8125 33.546875 5.8125 39.890625 
Q 5.8125 47.609375 11.28125 51.796875 
Q 16.75 56 26.8125 56 
Q 31.78125 56 36.171875 55.265625 
Q 40.578125 54.546875 44.28125 53.078125 
z
" id="DejaVuSans-115"/>
      </defs>
      <use xlink:href="#DejaVuSans-71"/>
      <use x="77.490234" xlink:href="#DejaVuSans-101"/>
      <use x="139.013672" xlink:href="#DejaVuSans-110"/>
      <use x="202.392578" xlink:href="#DejaVuSans-101"/>
      <use x="263.916016" xlink:href="#DejaVuSans-114"/>
      <use x="305.029297" xlink:href="#DejaVuSans-97"/>
      <use x="366.308594" xlink:href="#DejaVuSans-116"/>
      <use x="405.517578" xlink:href="#DejaVuSans-105"/>
      <use x="433.300781" xlink:href="#DejaVuSans-111"/>
      <use x="494.482422" xlink:href="#DejaVuSans-110"/>
      <use x="557.861328" xlink:href="#DejaVuSans-115"/>
     </g>
    </g>
   </g>
   <g id="matplotlib.axis_2">
    <g id="ytick_1">
     <g id="line2d_11">
      <path clip-path="url(#pee0d415c0f)" d="M 57.6 210.337983 
L 414.72 210.337983 
" style="fill:none;stroke:#b0b0b0;stroke-linecap:square;stroke-width:0.8;"/>
     </g>
     <g id="line2d_12">
      <defs>
       <path d="M 0 0 
L -3.5 0 
" id="ma6c55f6316" style="stroke:#000000;stroke-width:0.8;"/>
      </defs>
      <g>
       <use style="stroke:#000000;stroke-width:0.8;" x="57.6" xlink:href="#ma6c55f6316" y="210.337983"/>
      </g>
     </g>
     <g id="text_7">
      <!-- $\mathdefault{-10^{4}}$ -->
      <g transform="translate(24.6 214.137202)scale(0.1 -0.1)">
       <defs>
        <path d="M 10.59375 35.5 
L 73.1875 35.5 
L 73.1875 27.203125 
L 10.59375 27.203125 
z
" id="DejaVuSans-8722"/>
       </defs>
       <use transform="translate(0 0.684375)" xlink:href="#DejaVuSans-8722"/>
       <use transform="translate(83.789062 0.684375)" xlink:href="#DejaVuSans-49"/>
       <use transform="translate(147.412109 0.684375)" xlink:href="#DejaVuSans-48"/>
       <use transform="translate(211.992188 38.965625)scale(0.7)" xlink:href="#DejaVuSans-52"/>
      </g>
     </g>
    </g>
    <g id="text_8">
     <!-- Fitness -->
     <g transform="translate(18.520312 191.845187)rotate(-90)scale(0.1 -0.1)">
      <defs>
       <path d="M 9.8125 72.90625 
L 51.703125 72.90625 
L 51.703125 64.59375 
L 19.671875 64.59375 
L 19.671875 43.109375 
L 48.578125 43.109375 
L 48.578125 34.8125 
L 19.671875 34.8125 
L 19.671875 0 
L 9.8125 0 
z
" id="DejaVuSans-70"/>
      </defs>
      <use xlink:href="#DejaVuSans-70"/>
      <use x="50.269531" xlink:href="#DejaVuSans-105"/>
      <use x="78.052734" xlink:href="#DejaVuSans-116"/>
      <use x="117.261719" xlink:href="#DejaVuSans-110"/>
      <use x="180.640625" xlink:href="#DejaVuSans-101"/>
      <use x="242.164062" xlink:href="#DejaVuSans-115"/>
      <use x="294.263672" xlink:href="#DejaVuSans-115"/>
     </g>
    </g>
   </g>
   <g id="line2d_13">
    <path clip-path="url(#pee0d415c0f)" d="M 73.832727 295.488 
L 74.524954 260.619798 
L 75.217182 240.60515 
L 75.909409 236.870078 
L 76.601636 225.198913 
L 77.293863 225.642479 
L 77.98609 214.157622 
L 78.678318 211.900064 
L 79.370545 212.265682 
L 80.062772 211.427974 
L 80.754999 212.684463 
L 81.447226 207.759536 
L 82.831681 194.140623 
L 83.523908 194.463979 
L 84.216135 201.214779 
L 84.908362 206.111176 
L 85.600589 203.123706 
L 86.292816 206.966026 
L 86.985044 206.804878 
L 87.677271 204.768441 
L 88.369498 198.388811 
L 89.061725 200.369074 
L 89.753952 204.055841 
L 90.446179 205.74006 
L 91.138407 200.473754 
L 91.830634 196.426114 
L 92.522861 201.662616 
L 93.215088 197.748978 
L 93.907315 198.632689 
L 94.599543 194.46895 
L 95.29177 195.819403 
L 95.983997 197.977247 
L 96.676224 193.2281 
L 97.368451 193.275743 
L 98.060678 196.426822 
L 98.752906 200.36507 
L 99.445133 201.106574 
L 100.13736 185.811636 
L 100.829587 192.923606 
L 102.214041 211.101533 
L 102.906269 195.6237 
L 103.598496 192.802298 
L 104.290723 188.985208 
L 104.98295 182.345414 
L 105.675177 191.233544 
L 106.367405 204.545398 
L 107.059632 183.775364 
L 107.751859 187.471167 
L 108.444086 188.397034 
L 109.136313 186.462626 
L 109.82854 206.265823 
L 110.520768 196.135831 
L 111.212995 191.156974 
L 111.905222 182.848651 
L 112.597449 191.713455 
L 113.289676 202.090232 
L 113.981903 190.706025 
L 114.674131 200.847579 
L 115.366358 197.844978 
L 116.058585 199.92297 
L 116.750812 192.613267 
L 117.443039 200.602939 
L 118.135267 196.126431 
L 118.827494 194.780113 
L 119.519721 198.252394 
L 120.211948 185.880185 
L 120.904175 183.432646 
L 121.596402 186.380888 
L 122.28863 196.871962 
L 122.980857 201.536774 
L 123.673084 196.452581 
L 124.365311 185.956925 
L 125.057538 179.406357 
L 125.749765 194.564621 
L 126.441993 173.170346 
L 127.13422 179.076942 
L 127.826447 164.916482 
L 128.518674 185.022424 
L 129.210901 182.008241 
L 129.903129 172.358134 
L 131.287583 181.041948 
L 132.672037 194.610207 
L 133.364264 197.137949 
L 134.056492 183.560928 
L 134.748719 195.789039 
L 135.440946 185.549281 
L 136.133173 177.320274 
L 136.8254 195.878776 
L 138.209855 185.39766 
L 138.902082 189.813648 
L 139.594309 180.636716 
L 140.286536 203.767318 
L 140.978763 201.490847 
L 141.670991 199.860747 
L 142.363218 193.8252 
L 143.055445 196.170807 
L 143.747672 196.349801 
L 144.439899 194.61614 
L 145.132126 176.77085 
L 145.824354 202.593381 
L 146.516581 194.961134 
L 147.208808 205.967543 
L 147.901035 205.859739 
L 148.593262 199.687721 
L 149.285489 185.271707 
L 149.977717 186.088717 
L 150.669944 194.238434 
L 151.362171 197.702048 
L 152.054398 186.154597 
L 152.746625 197.480319 
L 153.438852 179.556981 
L 154.13108 193.151748 
L 154.823307 191.848569 
L 155.515534 205.279935 
L 156.207761 204.685166 
L 156.899988 185.294941 
L 157.592216 188.217032 
L 158.284443 201.606636 
L 158.97667 204.561284 
L 159.668897 194.737441 
L 160.361124 192.771034 
L 161.053351 195.173322 
L 161.745579 201.29275 
L 162.437806 204.384916 
L 163.130033 198.158668 
L 163.82226 202.370633 
L 164.514487 201.275961 
L 165.206714 199.58 
L 165.898942 177.375647 
L 166.591169 202.417285 
L 167.283396 197.974471 
L 167.975623 188.916966 
L 168.66785 171.099147 
L 170.052305 197.390424 
L 170.744532 192.77939 
L 171.436759 193.558058 
L 172.128986 199.332675 
L 172.821213 198.878555 
L 173.513441 190.065163 
L 174.205668 200.481271 
L 174.897895 196.623268 
L 175.590122 197.530109 
L 176.282349 197.507646 
L 176.974576 181.32609 
L 177.666804 182.448731 
L 178.359031 186.218246 
L 179.051258 191.943628 
L 179.743485 183.56963 
L 180.435712 187.259752 
L 181.12794 191.727842 
L 181.820167 187.201075 
L 182.512394 184.21079 
L 183.204621 191.833321 
L 183.896848 189.9082 
L 184.589075 202.389263 
L 185.281303 197.225322 
L 185.97353 197.865755 
L 186.665757 199.463453 
L 187.357984 194.911449 
L 188.050211 195.396886 
L 188.742438 200.253763 
L 189.434666 203.508296 
L 190.126893 203.885323 
L 190.81912 210.792196 
L 191.511347 206.401149 
L 192.203574 200.836726 
L 192.895802 196.645656 
L 193.588029 190.286421 
L 194.280256 198.430053 
L 194.972483 194.237268 
L 195.66471 205.516433 
L 196.356937 206.470097 
L 197.049165 201.121492 
L 198.433619 205.988889 
L 199.125846 205.617259 
L 199.818073 204.565257 
L 200.5103 202.912956 
L 201.202528 200.52172 
L 201.894755 200.670147 
L 202.586982 197.82591 
L 203.279209 210.564486 
L 203.971436 208.481175 
L 204.663664 214.540448 
L 205.355891 207.968376 
L 206.048118 207.91647 
L 206.740345 213.229107 
L 207.432572 203.148381 
L 208.124799 203.990859 
L 208.817027 201.446174 
L 209.509254 213.003854 
L 210.201481 213.812752 
L 210.893708 198.69035 
L 211.585935 202.722627 
L 212.278162 209.584116 
L 212.97039 206.017729 
L 213.662617 200.074323 
L 214.354844 223.026795 
L 215.047071 213.641143 
L 215.739298 208.970878 
L 216.431525 219.51088 
L 217.123753 217.235231 
L 217.81598 212.815275 
L 218.508207 212.881045 
L 219.200434 215.936448 
L 219.892661 214.252126 
L 220.584889 226.864683 
L 221.277116 227.593773 
L 221.969343 220.857607 
L 222.66157 216.129008 
L 223.353797 216.597861 
L 224.046024 203.941215 
L 224.738252 217.636874 
L 225.430479 208.503465 
L 226.122706 208.504567 
L 226.814933 214.70477 
L 227.50716 215.701341 
L 228.199387 214.574879 
L 228.891615 208.411781 
L 229.583842 212.427637 
L 230.276069 213.389626 
L 230.968296 210.353573 
L 231.660523 203.078051 
L 232.352751 193.924156 
L 233.044978 200.892107 
L 233.737205 203.575162 
L 234.429432 203.51967 
L 235.121659 209.045571 
L 235.813886 206.840119 
L 236.506114 201.477811 
L 237.198341 208.185603 
L 237.890568 192.356003 
L 238.582795 212.759576 
L 239.275022 195.193154 
L 239.967249 204.841831 
L 240.659477 199.971295 
L 241.351704 197.043322 
L 242.043931 201.515619 
L 242.736158 190.849325 
L 243.428385 192.386674 
L 244.120613 208.502245 
L 244.81284 204.741696 
L 245.505067 203.224109 
L 246.197294 207.448741 
L 246.889521 207.996879 
L 247.581748 208.053452 
L 248.273976 216.464282 
L 248.966203 210.637553 
L 249.65843 213.600944 
L 250.350657 209.955975 
L 251.042884 209.334599 
L 251.735111 218.964471 
L 252.427339 211.671196 
L 253.119566 210.849576 
L 253.811793 214.105328 
L 254.50402 206.529812 
L 255.196247 196.594917 
L 255.888475 204.434178 
L 256.580702 199.586043 
L 257.272929 210.604108 
L 257.965156 201.322781 
L 258.657383 209.816568 
L 259.34961 203.787587 
L 260.041838 195.08763 
L 260.734065 201.761492 
L 261.426292 210.273943 
L 262.118519 195.652092 
L 262.810746 198.407589 
L 263.502973 209.742603 
L 264.195201 199.463828 
L 264.887428 195.377799 
L 265.579655 206.325655 
L 266.271882 208.153687 
L 266.964109 202.035585 
L 267.656336 211.739919 
L 268.348564 201.512044 
L 269.040791 203.112162 
L 269.733018 202.97518 
L 270.425245 210.265695 
L 271.117472 203.133884 
L 271.8097 202.196674 
L 272.501927 196.242243 
L 273.194154 205.64098 
L 273.886381 184.252834 
L 274.578608 189.536849 
L 275.270835 188.882261 
L 275.963063 190.162728 
L 276.65529 192.03191 
L 277.347517 184.162467 
L 278.039744 201.932099 
L 278.731971 196.663217 
L 279.424198 196.866085 
L 280.116426 193.009289 
L 280.808653 194.467167 
L 281.50088 200.21242 
L 282.193107 196.279524 
L 283.577562 206.375231 
L 284.269789 199.873187 
L 284.962016 204.638759 
L 285.654243 205.431285 
L 286.34647 191.521621 
L 287.730925 198.048892 
L 288.423152 205.063399 
L 289.115379 202.08876 
L 289.807606 198.188423 
L 290.499833 197.530145 
L 291.19206 195.533853 
L 291.884288 195.185373 
L 292.576515 202.982899 
L 293.268742 183.284604 
L 293.960969 204.004204 
L 294.653196 195.941669 
L 295.345424 202.278169 
L 296.729878 191.004649 
L 297.422105 205.005099 
L 298.114332 211.351058 
L 298.806559 188.146832 
L 299.498787 190.278041 
L 300.191014 198.924857 
L 300.883241 201.153517 
L 301.575468 208.142859 
L 302.267695 200.249463 
L 302.959922 189.058757 
L 303.65215 192.30012 
L 304.344377 205.423211 
L 305.036604 208.263807 
L 305.728831 204.152961 
L 306.421058 198.481285 
L 307.113286 202.345121 
L 307.805513 213.5443 
L 308.49774 201.665506 
L 309.189967 194.591972 
L 309.882194 195.776221 
L 310.574421 204.679676 
L 311.266649 198.585869 
L 311.958876 204.171968 
L 312.651103 203.486778 
L 313.34333 205.804743 
L 314.035557 219.319627 
L 314.727784 210.632406 
L 315.420012 204.722969 
L 316.112239 201.637082 
L 316.804466 209.822602 
L 317.496693 198.30508 
L 318.18892 204.080931 
L 318.881148 195.027309 
L 319.573375 190.377523 
L 320.265602 190.010486 
L 320.957829 181.662889 
L 321.650056 190.493452 
L 322.342283 186.351993 
L 323.034511 188.694134 
L 323.726738 194.843017 
L 324.418965 190.551162 
L 325.111192 195.169495 
L 325.803419 196.372829 
L 326.495646 202.611222 
L 327.187874 207.216119 
L 327.880101 198.786153 
L 328.572328 192.803893 
L 329.264555 190.562589 
L 329.956782 201.547431 
L 330.649009 187.087484 
L 331.341237 192.80413 
L 332.033464 205.320768 
L 332.725691 188.396421 
L 333.417918 167.216088 
L 334.110145 170.202197 
L 334.802373 188.890902 
L 335.4946 175.417361 
L 336.186827 173.958953 
L 336.879054 178.928443 
L 337.571281 179.616038 
L 338.263508 180.075541 
L 338.955736 179.337615 
L 339.647963 192.095674 
L 340.34019 173.92109 
L 341.032417 183.095388 
L 341.724644 184.145715 
L 342.416871 189.561096 
L 343.109099 193.991634 
L 343.801326 189.605517 
L 344.493553 193.218173 
L 345.18578 176.708874 
L 345.878007 180.132526 
L 347.262462 203.662293 
L 347.954689 204.317789 
L 348.646916 197.495751 
L 349.339143 199.089208 
L 350.03137 197.708676 
L 350.723598 198.177303 
L 351.415825 206.234595 
L 352.108052 208.834668 
L 352.800279 206.689305 
L 353.492506 200.08852 
L 354.184733 210.279682 
L 354.876961 203.662776 
L 355.569188 208.310627 
L 356.261415 214.573254 
L 356.953642 211.699835 
L 357.645869 216.013837 
L 358.338097 205.28547 
L 359.030324 214.081969 
L 359.722551 212.444093 
L 360.414778 208.530654 
L 361.107005 202.186681 
L 361.799232 211.166025 
L 363.183687 210.141327 
L 363.875914 198.503343 
L 364.568141 211.430516 
L 365.952595 209.918699 
L 366.644823 199.81952 
L 367.33705 208.38797 
L 368.029277 202.808645 
L 368.721504 199.506062 
L 369.413731 207.749479 
L 370.105959 210.537801 
L 370.798186 200.026532 
L 371.490413 200.205027 
L 372.18264 192.813274 
L 374.259322 189.632582 
L 374.951549 176.408323 
L 375.643776 190.304662 
L 376.336003 185.604191 
L 377.02823 195.227846 
L 377.720457 194.35354 
L 378.412685 194.95037 
L 379.104912 204.685135 
L 379.797139 201.859051 
L 380.489366 193.350468 
L 381.181593 198.036439 
L 381.873821 197.921979 
L 382.566048 188.168628 
L 383.258275 201.203317 
L 383.950502 187.861456 
L 384.642729 185.196719 
L 385.334956 191.031263 
L 386.027184 190.959183 
L 386.719411 191.500274 
L 387.411638 198.066008 
L 388.103865 198.470142 
L 388.796092 202.965774 
L 389.488319 199.660884 
L 390.180547 198.838045 
L 390.872774 192.006669 
L 391.565001 195.270106 
L 392.257228 191.860234 
L 392.949455 195.605003 
L 393.641682 206.276014 
L 394.33391 198.76564 
L 395.026137 199.388696 
L 395.718364 195.664353 
L 396.410591 200.789219 
L 397.102818 199.323605 
L 397.795046 201.80666 
L 398.487273 192.963748 
L 398.487273 192.963748 
" style="fill:none;stroke:#0000ff;stroke-linecap:square;stroke-width:1.5;"/>
   </g>
   <g id="line2d_14">
    <path clip-path="url(#pee0d415c0f)" d="M 73.832727 248.657225 
L 74.524954 218.418179 
L 75.217182 203.96798 
L 75.909409 200.087786 
L 76.601636 191.771142 
L 77.293863 188.802307 
L 77.98609 162.357806 
L 78.678318 155.538086 
L 79.370545 144.197832 
L 80.062772 159.288736 
L 80.754999 163.497602 
L 81.447226 147.363442 
L 82.139453 134.740094 
L 82.831681 143.30776 
L 83.523908 140.523977 
L 84.216135 81.493824 
L 84.908362 153.944137 
L 85.600589 114.333632 
L 86.292816 148.287031 
L 86.985044 136.306805 
L 88.369498 77.918725 
L 89.061725 128.51098 
L 89.753952 123.582048 
L 90.446179 114.534298 
L 91.138407 147.07215 
L 91.830634 85.214103 
L 92.522861 140.172569 
L 94.599543 111.555369 
L 95.29177 130.903931 
L 95.983997 135.957931 
L 96.676224 131.387965 
L 97.368451 119.521494 
L 98.060678 140.064761 
L 98.752906 135.66591 
L 99.445133 134.800679 
L 100.13736 135.183277 
L 100.829587 127.16883 
L 101.521814 143.392482 
L 102.214041 150.201318 
L 102.906269 142.895148 
L 103.598496 133.048894 
L 104.290723 113.613308 
L 104.98295 114.14397 
L 105.675177 109.968829 
L 106.367405 147.152709 
L 107.059632 120.101987 
L 107.751859 138.469662 
L 108.444086 130.761987 
L 109.136313 112.169008 
L 109.82854 138.318923 
L 110.520768 107.268697 
L 111.212995 112.826632 
L 111.905222 120.704993 
L 112.597449 111.083186 
L 113.289676 142.435052 
L 113.981903 116.555177 
L 114.674131 150.080002 
L 115.366358 133.057242 
L 116.058585 151.587542 
L 116.750812 136.481227 
L 117.443039 136.755019 
L 118.135267 139.807489 
L 118.827494 128.08673 
L 119.519721 110.177885 
L 120.211948 79.856698 
L 120.904175 102.776771 
L 121.596402 111.398789 
L 122.980857 122.7387 
L 123.673084 139.286007 
L 124.365311 110.460556 
L 125.057538 96.869723 
L 125.749765 124.712718 
L 126.441993 112.75825 
L 127.13422 115.110827 
L 127.826447 104.005368 
L 128.518674 90.336314 
L 129.210901 79.938969 
L 129.903129 103.949519 
L 130.595356 114.58408 
L 131.287583 94.034622 
L 131.97981 78.113332 
L 132.672037 129.301773 
L 133.364264 115.1076 
L 134.056492 91.369247 
L 134.748719 115.994934 
L 135.440946 100.460166 
L 136.133173 97.425529 
L 136.8254 120.975143 
L 137.517627 83.752833 
L 138.209855 103.127983 
L 139.594309 125.804813 
L 140.286536 143.644282 
L 140.978763 114.587582 
L 141.670991 143.346733 
L 142.363218 111.232481 
L 143.055445 141.93373 
L 143.747672 111.750833 
L 144.439899 119.340197 
L 145.132126 103.334003 
L 145.824354 140.056793 
L 146.516581 127.125293 
L 147.208808 146.688344 
L 147.901035 125.946398 
L 148.593262 133.816698 
L 149.285489 122.271195 
L 149.977717 122.027547 
L 150.669944 123.684401 
L 151.362171 145.84007 
L 152.054398 113.817067 
L 152.746625 124.915257 
L 153.438852 116.412748 
L 154.823307 138.458344 
L 155.515534 144.876199 
L 156.207761 149.751795 
L 156.899988 122.730606 
L 157.592216 116.162419 
L 158.284443 142.425624 
L 158.97667 134.321728 
L 159.668897 101.654088 
L 160.361124 130.965849 
L 161.053351 122.963612 
L 161.745579 138.600874 
L 162.437806 129.692751 
L 163.130033 141.69578 
L 163.82226 122.775984 
L 164.514487 111.020281 
L 165.206714 123.117725 
L 165.898942 123.403452 
L 166.591169 122.752429 
L 167.283396 146.245402 
L 167.975623 125.279451 
L 168.66785 109.950206 
L 169.360078 127.014784 
L 170.052305 123.230836 
L 170.744532 142.822705 
L 171.436759 125.982061 
L 172.128986 142.7566 
L 172.821213 142.896895 
L 173.513441 106.726302 
L 174.205668 133.351099 
L 174.897895 121.022242 
L 175.590122 121.709114 
L 176.282349 120.398637 
L 176.974576 101.15764 
L 177.666804 115.154523 
L 178.359031 120.006443 
L 179.051258 123.736878 
L 179.743485 105.333688 
L 180.435712 124.284354 
L 181.12794 133.680955 
L 181.820167 123.237777 
L 182.512394 134.002239 
L 183.204621 122.677262 
L 183.896848 125.789496 
L 185.281303 143.475721 
L 185.97353 142.862804 
L 186.665757 140.381037 
L 187.357984 136.46751 
L 188.050211 137.903466 
L 188.742438 145.023325 
L 189.434666 140.026244 
L 190.126893 143.302436 
L 190.81912 153.907806 
L 191.511347 122.502136 
L 192.203574 127.909006 
L 192.895802 135.895215 
L 193.588029 138.869257 
L 194.280256 138.392526 
L 194.972483 153.74868 
L 195.66471 157.895779 
L 196.356937 122.52056 
L 197.049165 134.455888 
L 197.741392 108.100748 
L 198.433619 132.983815 
L 199.125846 151.321581 
L 199.818073 129.549318 
L 200.5103 125.127034 
L 201.202528 131.490726 
L 201.894755 148.519553 
L 202.586982 130.165458 
L 203.279209 146.765305 
L 203.971436 154.509528 
L 204.663664 143.978491 
L 205.355891 137.214562 
L 206.048118 148.76452 
L 206.740345 133.313113 
L 207.432572 133.84579 
L 208.124799 136.15463 
L 208.817027 155.625105 
L 209.509254 137.120433 
L 210.201481 143.935399 
L 210.893708 131.567997 
L 211.585935 146.012577 
L 212.278162 135.951184 
L 212.97039 155.397215 
L 213.662617 128.0704 
L 214.354844 149.606426 
L 215.047071 150.888096 
L 215.739298 155.343089 
L 216.431525 163.165396 
L 217.123753 158.910772 
L 217.81598 160.390279 
L 218.508207 170.123346 
L 219.200434 153.791289 
L 219.892661 148.059746 
L 220.584889 161.362346 
L 221.277116 167.61128 
L 221.969343 164.908788 
L 222.66157 160.982957 
L 223.353797 162.999828 
L 224.046024 156.58917 
L 224.738252 154.529922 
L 225.430479 136.774255 
L 226.122706 151.223211 
L 226.814933 136.676154 
L 227.50716 149.358733 
L 228.199387 144.076103 
L 228.891615 149.454508 
L 229.583842 157.764108 
L 230.276069 153.699463 
L 230.968296 135.757674 
L 231.660523 134.223283 
L 232.352751 139.750254 
L 233.044978 123.740128 
L 233.737205 136.580421 
L 234.429432 134.75672 
L 235.121659 147.652169 
L 235.813886 143.975486 
L 236.506114 131.987095 
L 237.198341 135.710382 
L 237.890568 143.002694 
L 238.582795 152.212229 
L 239.275022 136.716586 
L 239.967249 149.171503 
L 240.659477 124.874597 
L 241.351704 133.956432 
L 242.043931 137.988094 
L 242.736158 120.845416 
L 243.428385 137.949965 
L 244.120613 138.076209 
L 244.81284 128.317286 
L 245.505067 116.50953 
L 246.197294 145.848175 
L 246.889521 131.113268 
L 247.581748 153.019569 
L 248.273976 159.341804 
L 248.966203 149.614483 
L 249.65843 142.09898 
L 251.042884 162.641889 
L 251.735111 168.172959 
L 252.427339 163.812778 
L 253.119566 141.44495 
L 253.811793 150.547344 
L 254.50402 144.481467 
L 255.196247 146.790916 
L 255.888475 134.002006 
L 256.580702 126.284894 
L 257.272929 145.916028 
L 257.965156 128.269027 
L 258.657383 152.177496 
L 259.34961 133.207141 
L 260.041838 107.616578 
L 261.426292 150.019141 
L 262.118519 123.145081 
L 262.810746 136.078365 
L 263.502973 142.326776 
L 264.195201 131.125923 
L 264.887428 96.259338 
L 265.579655 129.525318 
L 266.271882 118.406023 
L 266.964109 131.017753 
L 267.656336 132.71452 
L 268.348564 104.229298 
L 269.040791 115.345865 
L 269.733018 113.176534 
L 270.425245 124.201894 
L 271.117472 116.971322 
L 271.8097 119.050728 
L 272.501927 128.843357 
L 273.886381 120.145732 
L 274.578608 118.376621 
L 275.270835 97.164242 
L 275.963063 106.765794 
L 276.65529 98.959108 
L 277.347517 111.289098 
L 278.039744 115.534158 
L 278.731971 71.213879 
L 279.424198 128.267547 
L 280.116426 103.764757 
L 280.808653 136.331932 
L 281.50088 124.422684 
L 282.193107 122.645311 
L 282.885334 77.783364 
L 283.577562 92.241684 
L 284.269789 119.150849 
L 284.962016 116.073186 
L 285.654243 129.817239 
L 286.34647 134.235972 
L 287.038697 111.933209 
L 287.730925 115.85884 
L 288.423152 110.943569 
L 289.115379 141.631178 
L 289.807606 113.098392 
L 290.499833 111.040676 
L 291.19206 101.663995 
L 291.884288 108.399413 
L 292.576515 119.505198 
L 293.268742 105.846483 
L 293.960969 123.84023 
L 294.653196 133.281501 
L 295.345424 128.896911 
L 296.037651 120.68713 
L 296.729878 131.545888 
L 297.422105 122.45635 
L 298.114332 117.834095 
L 298.806559 79.061383 
L 299.498787 101.276819 
L 300.191014 101.692052 
L 300.883241 119.379368 
L 301.575468 120.450343 
L 302.267695 112.502684 
L 302.959922 120.82629 
L 303.65215 109.926006 
L 304.344377 133.689791 
L 305.036604 124.8389 
L 305.728831 124.292845 
L 306.421058 105.543229 
L 307.113286 115.443276 
L 307.805513 136.880258 
L 308.49774 97.94503 
L 309.189967 108.873043 
L 309.882194 104.746477 
L 310.574421 114.177514 
L 311.958876 106.179394 
L 312.651103 139.316221 
L 313.34333 132.729262 
L 314.035557 127.816519 
L 314.727784 132.025455 
L 315.420012 124.01704 
L 316.804466 134.002416 
L 317.496693 125.668263 
L 318.18892 120.634019 
L 318.881148 128.164937 
L 319.573375 116.779229 
L 320.265602 95.146497 
L 320.957829 95.51443 
L 321.650056 105.168959 
L 322.342283 81.965417 
L 323.034511 109.793811 
L 323.726738 106.579878 
L 324.418965 106.197114 
L 325.111192 126.146537 
L 325.803419 113.434404 
L 326.495646 103.099346 
L 327.187874 118.582964 
L 327.880101 126.541269 
L 328.572328 100.95831 
L 329.264555 104.732531 
L 329.956782 121.416906 
L 330.649009 97.706877 
L 331.341237 112.523191 
L 332.033464 122.889707 
L 332.725691 98.237505 
L 333.417918 53.568 
L 334.110145 59.10883 
L 334.802373 106.753017 
L 335.4946 66.827549 
L 336.186827 75.284834 
L 336.879054 90.134248 
L 337.571281 96.257771 
L 338.263508 85.75525 
L 338.955736 81.961777 
L 339.647963 87.64077 
L 340.34019 77.547381 
L 341.032417 85.696708 
L 341.724644 103.45244 
L 342.416871 105.267739 
L 343.109099 121.346336 
L 343.801326 94.321369 
L 344.493553 100.440645 
L 345.18578 90.940822 
L 345.878007 91.193742 
L 347.262462 146.012597 
L 347.954689 123.702035 
L 348.646916 118.332621 
L 349.339143 111.285724 
L 350.03137 116.430909 
L 350.723598 142.417778 
L 351.415825 141.780277 
L 352.108052 138.258457 
L 353.492506 116.834096 
L 354.184733 131.165881 
L 354.876961 131.098103 
L 355.569188 151.813025 
L 356.261415 142.95228 
L 356.953642 140.949907 
L 357.645869 135.879765 
L 358.338097 147.924698 
L 359.030324 137.035901 
L 359.722551 133.64682 
L 360.414778 133.193991 
L 361.107005 105.882015 
L 361.799232 140.77105 
L 362.49146 125.749054 
L 363.183687 125.090204 
L 363.875914 98.552119 
L 364.568141 132.838712 
L 365.260368 135.810811 
L 365.952595 126.277261 
L 366.644823 133.586117 
L 367.33705 135.859118 
L 368.029277 123.487158 
L 368.721504 117.334488 
L 369.413731 126.586021 
L 370.105959 125.389088 
L 370.798186 115.20313 
L 371.490413 120.230135 
L 372.18264 118.416874 
L 372.874867 124.24974 
L 373.567094 121.120477 
L 374.259322 99.720221 
L 374.951549 82.003916 
L 375.643776 105.006831 
L 376.336003 70.069797 
L 377.02823 140.478115 
L 377.720457 110.470454 
L 378.412685 107.107775 
L 379.104912 130.951039 
L 379.797139 110.780258 
L 380.489366 110.382371 
L 381.181593 86.759552 
L 381.873821 118.673027 
L 382.566048 119.91119 
L 383.258275 112.224238 
L 383.950502 110.800904 
L 384.642729 107.809321 
L 385.334956 89.37886 
L 386.027184 66.956295 
L 386.719411 104.780927 
L 387.411638 118.212141 
L 388.103865 121.466593 
L 388.796092 133.630622 
L 389.488319 141.335593 
L 390.180547 104.448754 
L 390.872774 113.31673 
L 391.565001 115.549483 
L 392.257228 124.125111 
L 392.949455 118.217001 
L 393.641682 114.68354 
L 394.33391 59.803372 
L 395.026137 124.034237 
L 395.718364 119.531194 
L 396.410591 132.72678 
L 397.102818 111.174526 
L 397.795046 133.229666 
L 398.487273 118.359011 
L 398.487273 118.359011 
" style="fill:none;stroke:#ff0000;stroke-linecap:square;stroke-width:1.5;"/>
   </g>
   <g id="patch_3">
    <path d="M 57.6 307.584 
L 57.6 41.472 
" style="fill:none;stroke:#000000;stroke-linecap:square;stroke-linejoin:miter;stroke-width:0.8;"/>
   </g>
   <g id="patch_4">
    <path d="M 414.72 307.584 
L 414.72 41.472 
" style="fill:none;stroke:#000000;stroke-linecap:square;stroke-linejoin:miter;stroke-width:0.8;"/>
   </g>
   <g id="patch_5">
    <path d="M 57.6 307.584 
L 414.72 307.584 
" style="fill:none;stroke:#000000;stroke-linecap:square;stroke-linejoin:miter;stroke-width:0.8;"/>
   </g>
   <g id="patch_6">
    <path d="M 57.6 41.472 
L 414.72 41.472 
" style="fill:none;stroke:#000000;stroke-linecap:square;stroke-linejoin:miter;stroke-width:0.8;"/>
   </g>
   <g id="text_9">
    <!-- Population's average and best fitness -->
    <g transform="translate(123.529687 35.472)scale(0.12 -0.12)">
     <defs>
      <path d="M 19.671875 64.796875 
L 19.671875 37.40625 
L 32.078125 37.40625 
Q 38.96875 37.40625 42.71875 40.96875 
Q 46.484375 44.53125 46.484375 51.125 
Q 46.484375 57.671875 42.71875 61.234375 
Q 38.96875 64.796875 32.078125 64.796875 
z
M 9.8125 72.90625 
L 32.078125 72.90625 
Q 44.34375 72.90625 50.609375 67.359375 
Q 56.890625 61.8125 56.890625 51.125 
Q 56.890625 40.328125 50.609375 34.8125 
Q 44.34375 29.296875 32.078125 29.296875 
L 19.671875 29.296875 
L 19.671875 0 
L 9.8125 0 
z
" id="DejaVuSans-80"/>
      <path d="M 18.109375 8.203125 
L 18.109375 -20.796875 
L 9.078125 -20.796875 
L 9.078125 54.6875 
L 18.109375 54.6875 
L 18.109375 46.390625 
Q 20.953125 51.265625 25.265625 53.625 
Q 29.59375 56 35.59375 56 
Q 45.5625 56 51.78125 48.09375 
Q 58.015625 40.1875 58.015625 27.296875 
Q 58.015625 14.40625 51.78125 6.484375 
Q 45.5625 -1.421875 35.59375 -1.421875 
Q 29.59375 -1.421875 25.265625 0.953125 
Q 20.953125 3.328125 18.109375 8.203125 
z
M 48.6875 27.296875 
Q 48.6875 37.203125 44.609375 42.84375 
Q 40.53125 48.484375 33.40625 48.484375 
Q 26.265625 48.484375 22.1875 42.84375 
Q 18.109375 37.203125 18.109375 27.296875 
Q 18.109375 17.390625 22.1875 11.75 
Q 26.265625 6.109375 33.40625 6.109375 
Q 40.53125 6.109375 44.609375 11.75 
Q 48.6875 17.390625 48.6875 27.296875 
z
" id="DejaVuSans-112"/>
      <path d="M 8.5 21.578125 
L 8.5 54.6875 
L 17.484375 54.6875 
L 17.484375 21.921875 
Q 17.484375 14.15625 20.5 10.265625 
Q 23.53125 6.390625 29.59375 6.390625 
Q 36.859375 6.390625 41.078125 11.03125 
Q 45.3125 15.671875 45.3125 23.6875 
L 45.3125 54.6875 
L 54.296875 54.6875 
L 54.296875 0 
L 45.3125 0 
L 45.3125 8.40625 
Q 42.046875 3.421875 37.71875 1 
Q 33.40625 -1.421875 27.6875 -1.421875 
Q 18.265625 -1.421875 13.375 4.4375 
Q 8.5 10.296875 8.5 21.578125 
z
M 31.109375 56 
z
" id="DejaVuSans-117"/>
      <path d="M 9.421875 75.984375 
L 18.40625 75.984375 
L 18.40625 0 
L 9.421875 0 
z
" id="DejaVuSans-108"/>
      <path d="M 17.921875 72.90625 
L 17.921875 45.796875 
L 9.625 45.796875 
L 9.625 72.90625 
z
" id="DejaVuSans-39"/>
      <path id="DejaVuSans-32"/>
      <path d="M 2.984375 54.6875 
L 12.5 54.6875 
L 29.59375 8.796875 
L 46.6875 54.6875 
L 56.203125 54.6875 
L 35.6875 0 
L 23.484375 0 
z
" id="DejaVuSans-118"/>
      <path d="M 45.40625 27.984375 
Q 45.40625 37.75 41.375 43.109375 
Q 37.359375 48.484375 30.078125 48.484375 
Q 22.859375 48.484375 18.828125 43.109375 
Q 14.796875 37.75 14.796875 27.984375 
Q 14.796875 18.265625 18.828125 12.890625 
Q 22.859375 7.515625 30.078125 7.515625 
Q 37.359375 7.515625 41.375 12.890625 
Q 45.40625 18.265625 45.40625 27.984375 
z
M 54.390625 6.78125 
Q 54.390625 -7.171875 48.1875 -13.984375 
Q 42 -20.796875 29.203125 -20.796875 
Q 24.46875 -20.796875 20.265625 -20.09375 
Q 16.0625 -19.390625 12.109375 -17.921875 
L 12.109375 -9.1875 
Q 16.0625 -11.328125 19.921875 -12.34375 
Q 23.78125 -13.375 27.78125 -13.375 
Q 36.625 -13.375 41.015625 -8.765625 
Q 45.40625 -4.15625 45.40625 5.171875 
L 45.40625 9.625 
Q 42.625 4.78125 38.28125 2.390625 
Q 33.9375 0 27.875 0 
Q 17.828125 0 11.671875 7.65625 
Q 5.515625 15.328125 5.515625 27.984375 
Q 5.515625 40.671875 11.671875 48.328125 
Q 17.828125 56 27.875 56 
Q 33.9375 56 38.28125 53.609375 
Q 42.625 51.21875 45.40625 46.390625 
L 45.40625 54.6875 
L 54.390625 54.6875 
z
" id="DejaVuSans-103"/>
      <path d="M 45.40625 46.390625 
L 45.40625 75.984375 
L 54.390625 75.984375 
L 54.390625 0 
L 45.40625 0 
L 45.40625 8.203125 
Q 42.578125 3.328125 38.25 0.953125 
Q 33.9375 -1.421875 27.875 -1.421875 
Q 17.96875 -1.421875 11.734375 6.484375 
Q 5.515625 14.40625 5.515625 27.296875 
Q 5.515625 40.1875 11.734375 48.09375 
Q 17.96875 56 27.875 56 
Q 33.9375 56 38.25 53.625 
Q 42.578125 51.265625 45.40625 46.390625 
z
M 14.796875 27.296875 
Q 14.796875 17.390625 18.875 11.75 
Q 22.953125 6.109375 30.078125 6.109375 
Q 37.203125 6.109375 41.296875 11.75 
Q 45.40625 17.390625 45.40625 27.296875 
Q 45.40625 37.203125 41.296875 42.84375 
Q 37.203125 48.484375 30.078125 48.484375 
Q 22.953125 48.484375 18.875 42.84375 
Q 14.796875 37.203125 14.796875 27.296875 
z
" id="DejaVuSans-100"/>
      <path d="M 48.6875 27.296875 
Q 48.6875 37.203125 44.609375 42.84375 
Q 40.53125 48.484375 33.40625 48.484375 
Q 26.265625 48.484375 22.1875 42.84375 
Q 18.109375 37.203125 18.109375 27.296875 
Q 18.109375 17.390625 22.1875 11.75 
Q 26.265625 6.109375 33.40625 6.109375 
Q 40.53125 6.109375 44.609375 11.75 
Q 48.6875 17.390625 48.6875 27.296875 
z
M 18.109375 46.390625 
Q 20.953125 51.265625 25.265625 53.625 
Q 29.59375 56 35.59375 56 
Q 45.5625 56 51.78125 48.09375 
Q 58.015625 40.1875 58.015625 27.296875 
Q 58.015625 14.40625 51.78125 6.484375 
Q 45.5625 -1.421875 35.59375 -1.421875 
Q 29.59375 -1.421875 25.265625 0.953125 
Q 20.953125 3.328125 18.109375 8.203125 
L 18.109375 0 
L 9.078125 0 
L 9.078125 75.984375 
L 18.109375 75.984375 
z
" id="DejaVuSans-98"/>
      <path d="M 37.109375 75.984375 
L 37.109375 68.5 
L 28.515625 68.5 
Q 23.6875 68.5 21.796875 66.546875 
Q 19.921875 64.59375 19.921875 59.515625 
L 19.921875 54.6875 
L 34.71875 54.6875 
L 34.71875 47.703125 
L 19.921875 47.703125 
L 19.921875 0 
L 10.890625 0 
L 10.890625 47.703125 
L 2.296875 47.703125 
L 2.296875 54.6875 
L 10.890625 54.6875 
L 10.890625 58.5 
Q 10.890625 67.625 15.140625 71.796875 
Q 19.390625 75.984375 28.609375 75.984375 
z
" id="DejaVuSans-102"/>
     </defs>
     <use xlink:href="#DejaVuSans-80"/>
     <use x="56.677734" xlink:href="#DejaVuSans-111"/>
     <use x="117.859375" xlink:href="#DejaVuSans-112"/>
     <use x="181.335938" xlink:href="#DejaVuSans-117"/>
     <use x="244.714844" xlink:href="#DejaVuSans-108"/>
     <use x="272.498047" xlink:href="#DejaVuSans-97"/>
     <use x="333.777344" xlink:href="#DejaVuSans-116"/>
     <use x="372.986328" xlink:href="#DejaVuSans-105"/>
     <use x="400.769531" xlink:href="#DejaVuSans-111"/>
     <use x="461.951172" xlink:href="#DejaVuSans-110"/>
     <use x="525.330078" xlink:href="#DejaVuSans-39"/>
     <use x="552.820312" xlink:href="#DejaVuSans-115"/>
     <use x="604.919922" xlink:href="#DejaVuSans-32"/>
     <use x="636.707031" xlink:href="#DejaVuSans-97"/>
     <use x="697.986328" xlink:href="#DejaVuSans-118"/>
     <use x="757.166016" xlink:href="#DejaVuSans-101"/>
     <use x="818.689453" xlink:href="#DejaVuSans-114"/>
     <use x="859.802734" xlink:href="#DejaVuSans-97"/>
     <use x="921.082031" xlink:href="#DejaVuSans-103"/>
     <use x="984.558594" xlink:href="#DejaVuSans-101"/>
     <use x="1046.082031" xlink:href="#DejaVuSans-32"/>
     <use x="1077.869141" xlink:href="#DejaVuSans-97"/>
     <use x="1139.148438" xlink:href="#DejaVuSans-110"/>
     <use x="1202.527344" xlink:href="#DejaVuSans-100"/>
     <use x="1266.003906" xlink:href="#DejaVuSans-32"/>
     <use x="1297.791016" xlink:href="#DejaVuSans-98"/>
     <use x="1361.267578" xlink:href="#DejaVuSans-101"/>
     <use x="1422.791016" xlink:href="#DejaVuSans-115"/>
     <use x="1474.890625" xlink:href="#DejaVuSans-116"/>
     <use x="1514.099609" xlink:href="#DejaVuSans-32"/>
     <use x="1545.886719" xlink:href="#DejaVuSans-102"/>
     <use x="1581.091797" xlink:href="#DejaVuSans-105"/>
     <use x="1608.875" xlink:href="#DejaVuSans-116"/>
     <use x="1648.083984" xlink:href="#DejaVuSans-110"/>
     <use x="1711.462891" xlink:href="#DejaVuSans-101"/>
     <use x="1772.986328" xlink:href="#DejaVuSans-115"/>
     <use x="1825.085938" xlink:href="#DejaVuSans-115"/>
    </g>
   </g>
   <g id="legend_1">
    <g id="patch_7">
     <path d="M 334.779375 302.584 
L 407.72 302.584 
Q 409.72 302.584 409.72 300.584 
L 409.72 272.22775 
Q 409.72 270.22775 407.72 270.22775 
L 334.779375 270.22775 
Q 332.779375 270.22775 332.779375 272.22775 
L 332.779375 300.584 
Q 332.779375 302.584 334.779375 302.584 
z
" style="fill:#ffffff;opacity:0.8;stroke:#cccccc;stroke-linejoin:miter;"/>
    </g>
    <g id="line2d_15">
     <path d="M 336.779375 278.326187 
L 356.779375 278.326187 
" style="fill:none;stroke:#0000ff;stroke-linecap:square;stroke-width:1.5;"/>
    </g>
    <g id="line2d_16"/>
    <g id="text_10">
     <!-- average -->
     <g transform="translate(364.779375 281.826187)scale(0.1 -0.1)">
      <use xlink:href="#DejaVuSans-97"/>
      <use x="61.279297" xlink:href="#DejaVuSans-118"/>
      <use x="120.458984" xlink:href="#DejaVuSans-101"/>
      <use x="181.982422" xlink:href="#DejaVuSans-114"/>
      <use x="223.095703" xlink:href="#DejaVuSans-97"/>
      <use x="284.375" xlink:href="#DejaVuSans-103"/>
      <use x="347.851562" xlink:href="#DejaVuSans-101"/>
     </g>
    </g>
    <g id="line2d_17">
     <path d="M 336.779375 293.004312 
L 356.779375 293.004312 
" style="fill:none;stroke:#ff0000;stroke-linecap:square;stroke-width:1.5;"/>
    </g>
    <g id="line2d_18"/>
    <g id="text_11">
     <!-- best -->
     <g transform="translate(364.779375 296.504312)scale(0.1 -0.1)">
      <use xlink:href="#DejaVuSans-98"/>
      <use x="63.476562" xlink:href="#DejaVuSans-101"/>
      <use x="125" xlink:href="#DejaVuSans-115"/>
      <use x="177.099609" xlink:href="#DejaVuSans-116"/>
     </g>
    </g>
   </g>
  </g>
 </g>
 <defs>
  <clipPath id="pee0d415c0f">
   <rect height="266.112" width="357.12" x="57.6" y="41.472"/>
  </clipPath>
 </defs>
</svg>
