<?xml version="1.0" encoding="UTF-8" standalone="no"?>
<!DOCTYPE svg PUBLIC "-//W3C//DTD SVG 1.1//EN"
 "http://www.w3.org/Graphics/SVG/1.1/DTD/svg11.dtd">
<!-- Generated by graphviz version 2.40.1 (20161225.0304)
 -->
<!-- Title: %3 Pages: 1 -->
<svg width="1293pt" height="660pt"
 viewBox="0.00 0.00 1293.04 659.84" xmlns="http://www.w3.org/2000/svg" xmlns:xlink="http://www.w3.org/1999/xlink">
<g id="graph0" class="graph" transform="scale(1 1) rotate(0) translate(4 655.8377)">
<title>%3</title>
<polygon fill="#ffffff" stroke="transparent" points="-4,4 -4,-655.8377 1289.0422,-655.8377 1289.0422,4 -4,4"/>
<!-- x&#45;vel -->
<g id="node1" class="node">
<title>x&#45;vel</title>
<polygon fill="#d3d3d3" stroke="#000000" points="107.5,-582.0889 72.5,-582.0889 72.5,-564.0889 107.5,-564.0889 107.5,-582.0889"/>
<text text-anchor="middle" x="90" y="-570.8889" font-family="Times,serif" font-size="9.00" fill="#000000">x&#45;vel</text>
</g>
<!-- none -->
<g id="node13" class="node">
<title>none</title>
<ellipse fill="#add8e6" stroke="#000000" cx="720" cy="-24.0416" rx="24.0833" ry="24.0833"/>
<text text-anchor="middle" x="720" y="-21.8416" font-family="Times,serif" font-size="9.00" fill="#000000">none</text>
</g>
<!-- x&#45;vel&#45;&gt;none -->
<g id="edge3" class="edge">
<title>x&#45;vel&#45;&gt;none</title>
<path fill="none" stroke="#ff0000" stroke-width=".2312" d="M81.6943,-563.8437C59.4141,-538.0473 0,-462.2879 0,-387.9518 0,-387.9518 0,-387.9518 0,-194.3295 0,-139.1696 11.2259,-114.8622 57,-84.0833 109.5322,-48.7601 557.7515,-29.9212 685.9049,-25.2232"/>
<polygon fill="#ff0000" stroke="#ff0000" stroke-width=".2312" points="686.0712,-28.7196 695.9382,-24.8605 685.8183,-21.7241 686.0712,-28.7196"/>
</g>
<!-- left -->
<g id="node15" class="node">
<title>left</title>
<ellipse fill="#add8e6" stroke="#000000" cx="495" cy="-480.5204" rx="19.6" ry="19.6"/>
<text text-anchor="middle" x="495" y="-478.3204" font-family="Times,serif" font-size="9.00" fill="#000000">left</text>
</g>
<!-- x&#45;vel&#45;&gt;left -->
<g id="edge13" class="edge">
<title>x&#45;vel&#45;&gt;left</title>
<path fill="none" stroke="#ff0000" stroke-width=".6797" stroke-dasharray="1,5" d="M107.7956,-568.4977C128.2746,-563.2878 162.9509,-554.6908 193,-548.3402 280.0819,-529.9361 303.4929,-533.2806 390,-512.3402 416.2511,-505.9857 445.6354,-496.9084 466.6282,-490.0741"/>
<polygon fill="#ff0000" stroke="#ff0000" stroke-width=".6797" points="467.8044,-493.3717 476.2091,-486.921 465.6161,-486.7225 467.8044,-493.3717"/>
</g>
<!-- forward -->
<g id="node16" class="node">
<title>forward</title>
<ellipse fill="#add8e6" stroke="#000000" cx="349" cy="-480.5204" rx="31.6406" ry="31.6406"/>
<text text-anchor="middle" x="349" y="-478.3204" font-family="Times,serif" font-size="9.00" fill="#000000">forward</text>
</g>
<!-- x&#45;vel&#45;&gt;forward -->
<g id="edge20" class="edge">
<title>x&#45;vel&#45;&gt;forward</title>
<path fill="none" stroke="#ff0000" stroke-width=".3216" d="M107.8021,-566.7263C149.0726,-551.9759 252.1082,-515.1502 309.2547,-494.7257"/>
<polygon fill="#ff0000" stroke="#ff0000" stroke-width=".3216" points="310.4524,-498.0145 318.6911,-491.353 308.0965,-491.4228 310.4524,-498.0145"/>
</g>
<!-- 5660 -->
<g id="node21" class="node">
<title>5660</title>
<ellipse fill="#ffffff" stroke="#000000" cx="91" cy="-480.5204" rx="25" ry="25"/>
<text text-anchor="middle" x="91" y="-478.3204" font-family="Times,serif" font-size="9.00" fill="#000000">5660</text>
</g>
<!-- x&#45;vel&#45;&gt;5660 -->
<g id="edge58" class="edge">
<title>x&#45;vel&#45;&gt;5660</title>
<path fill="none" stroke="#00ff00" stroke-width=".3593" d="M90.0995,-563.8747C90.2206,-552.6649 90.4322,-533.083 90.6198,-515.7149"/>
<polygon fill="#00ff00" stroke="#00ff00" stroke-width=".3593" points="94.1242,-515.3187 90.7325,-505.2814 87.1246,-515.243 94.1242,-515.3187"/>
</g>
<!-- 1499 -->
<g id="node31" class="node">
<title>1499</title>
<ellipse fill="#ffffff" stroke="#000000" cx="91" cy="-194.3295" rx="25" ry="25"/>
<text text-anchor="middle" x="91" y="-192.1295" font-family="Times,serif" font-size="9.00" fill="#000000">1499</text>
</g>
<!-- x&#45;vel&#45;&gt;1499 -->
<g id="edge24" class="edge">
<title>x&#45;vel&#45;&gt;1499</title>
<path fill="none" stroke="#00ff00" stroke-width=".1329" d="M83.0307,-563.8232C74.9282,-552.4158 62.0245,-532.1158 57,-512.3402 31.2026,-410.8064 61.8983,-286.2 79.8286,-227.6799"/>
<polygon fill="#00ff00" stroke="#00ff00" stroke-width=".1329" points="83.2513,-228.4622 82.9052,-217.873 76.5723,-226.3668 83.2513,-228.4622"/>
</g>
<!-- y&#45;vel -->
<g id="node2" class="node">
<title>y&#45;vel</title>
<polygon fill="#d3d3d3" stroke="#000000" points="842.5,-651.8377 807.5,-651.8377 807.5,-633.8377 842.5,-633.8377 842.5,-651.8377"/>
<text text-anchor="middle" x="825" y="-640.6377" font-family="Times,serif" font-size="9.00" fill="#000000">y&#45;vel</text>
</g>
<!-- y&#45;vel&#45;&gt;none -->
<g id="edge23" class="edge">
<title>y&#45;vel&#45;&gt;none</title>
<path fill="none" stroke="#ff0000" stroke-width=".5757" d="M807.4525,-642.2379C707.6437,-638.7459 215.152,-620.4083 193,-597.8377 127.5699,-531.171 182,-481.3625 182,-387.9518 182,-387.9518 182,-387.9518 182,-194.3295 182,-88.1744 567.53,-39.7164 685.8712,-27.3424"/>
<polygon fill="#ff0000" stroke="#ff0000" stroke-width=".5757" points="686.2475,-30.8223 695.8381,-26.3201 685.5331,-23.8588 686.2475,-30.8223"/>
</g>
<!-- right -->
<g id="node14" class="node">
<title>right</title>
<ellipse fill="#add8e6" stroke="#000000" cx="948" cy="-387.9518" rx="23.1702" ry="23.1702"/>
<text text-anchor="middle" x="948" y="-385.7518" font-family="Times,serif" font-size="9.00" fill="#000000">right</text>
</g>
<!-- y&#45;vel&#45;&gt;right -->
<g id="edge6" class="edge">
<title>y&#45;vel&#45;&gt;right</title>
<path fill="none" stroke="#ff0000" stroke-width=".2603" d="M842.6132,-639.756C864.5454,-634.9244 901.3861,-623.3391 920,-597.8377 958.2233,-545.471 957.0704,-465.6447 952.654,-421.0465"/>
<polygon fill="#ff0000" stroke="#ff0000" stroke-width=".2603" points="956.1247,-420.587 951.5475,-411.0319 949.167,-421.3558 956.1247,-420.587"/>
</g>
<!-- 5763 -->
<g id="node19" class="node">
<title>5763</title>
<ellipse fill="#ffffff" stroke="#000000" cx="1030" cy="-573.0889" rx="25" ry="25"/>
<text text-anchor="middle" x="1030" y="-570.8889" font-family="Times,serif" font-size="9.00" fill="#000000">5763</text>
</g>
<!-- y&#45;vel&#45;&gt;5763 -->
<g id="edge60" class="edge">
<title>y&#45;vel&#45;&gt;5763</title>
<path fill="none" stroke="#ff0000" stroke-width=".3259" stroke-dasharray="1,5" d="M842.5477,-639.8807C873.4887,-634.278 939.3578,-620.5963 991,-597.8377 994.254,-596.4036 997.5508,-594.7238 1000.7781,-592.9264"/>
<polygon fill="#ff0000" stroke="#ff0000" stroke-width=".3259" points="1002.8078,-595.7909 1009.5955,-587.656 999.2163,-589.7824 1002.8078,-595.7909"/>
</g>
<!-- 2598 -->
<g id="node22" class="node">
<title>2598</title>
<ellipse fill="#ffffff" stroke="#000000" cx="596" cy="-480.5204" rx="25" ry="25"/>
<text text-anchor="middle" x="596" y="-478.3204" font-family="Times,serif" font-size="9.00" fill="#000000">2598</text>
</g>
<!-- y&#45;vel&#45;&gt;2598 -->
<g id="edge28" class="edge">
<title>y&#45;vel&#45;&gt;2598</title>
<path fill="none" stroke="#ff0000" stroke-width=".645" stroke-dasharray="1,5" d="M807.4986,-641.9636C776.2432,-639.5805 710.0742,-630.7199 667,-597.8377 651.6942,-586.1534 627.3819,-542.3916 611.557,-511.7571"/>
<polygon fill="#ff0000" stroke="#ff0000" stroke-width=".645" points="614.606,-510.0321 606.9377,-502.7213 608.3733,-513.2184 614.606,-510.0321"/>
</g>
<!-- 4913 -->
<g id="node23" class="node">
<title>4913</title>
<ellipse fill="#ffffff" stroke="#000000" cx="772" cy="-573.0889" rx="25" ry="25"/>
<text text-anchor="middle" x="772" y="-570.8889" font-family="Times,serif" font-size="9.00" fill="#000000">4913</text>
</g>
<!-- y&#45;vel&#45;&gt;4913 -->
<g id="edge49" class="edge">
<title>y&#45;vel&#45;&gt;4913</title>
<path fill="none" stroke="#00ff00" stroke-width=".6544" d="M818.0712,-633.7192C811.7943,-625.4587 802.2074,-612.8423 793.4012,-601.2533"/>
<polygon fill="#00ff00" stroke="#00ff00" stroke-width=".6544" points="796.0224,-598.9178 787.1855,-593.0732 790.4489,-603.1529 796.0224,-598.9178"/>
</g>
<!-- 4405 -->
<g id="node25" class="node">
<title>4405</title>
<ellipse fill="#ffffff" stroke="#000000" cx="773" cy="-194.3295" rx="25" ry="25"/>
<text text-anchor="middle" x="773" y="-192.1295" font-family="Times,serif" font-size="9.00" fill="#000000">4405</text>
</g>
<!-- y&#45;vel&#45;&gt;4405 -->
<g id="edge39" class="edge">
<title>y&#45;vel&#45;&gt;4405</title>
<path fill="none" stroke="#00ff00" stroke-width=".1664" stroke-dasharray="1,5" d="M823.9139,-633.4699C817.8471,-581.143 788.032,-323.9832 777.0612,-229.3577"/>
<polygon fill="#00ff00" stroke="#00ff00" stroke-width=".1664" points="780.5076,-228.6928 775.8791,-219.1625 773.5542,-229.499 780.5076,-228.6928"/>
</g>
<!-- 5580 -->
<g id="node29" class="node">
<title>5580</title>
<ellipse fill="#ffffff" stroke="#000000" cx="1001" cy="-480.5204" rx="25" ry="25"/>
<text text-anchor="middle" x="1001" y="-478.3204" font-family="Times,serif" font-size="9.00" fill="#000000">5580</text>
</g>
<!-- y&#45;vel&#45;&gt;5580 -->
<g id="edge55" class="edge">
<title>y&#45;vel&#45;&gt;5580</title>
<path fill="none" stroke="#ff0000" stroke-width=".2809" d="M842.6684,-641.1934C869.7765,-637.7738 921.7622,-627.5425 953,-597.8377 976.2295,-575.7482 988.5643,-540.8138 994.8819,-514.8037"/>
<polygon fill="#ff0000" stroke="#ff0000" stroke-width=".2809" points="998.3143,-515.4923 997.091,-504.9683 991.4845,-513.9582 998.3143,-515.4923"/>
</g>
<!-- x&#45;pos -->
<g id="node3" class="node">
<title>x&#45;pos</title>
<polygon fill="#d3d3d3" stroke="#000000" points="319,-651.8377 283,-651.8377 283,-633.8377 319,-633.8377 319,-651.8377"/>
<text text-anchor="middle" x="301" y="-640.6377" font-family="Times,serif" font-size="9.00" fill="#000000">x&#45;pos</text>
</g>
<!-- x&#45;pos&#45;&gt;left -->
<g id="edge15" class="edge">
<title>x&#45;pos&#45;&gt;left</title>
<path fill="none" stroke="#00ff00" stroke-width=".1965" d="M319.1262,-641.9311C366.7956,-639.1307 493.7374,-628.8476 519,-597.8377 540.167,-571.8551 525.1597,-532.0761 511.1429,-506.1786"/>
<polygon fill="#00ff00" stroke="#00ff00" stroke-width=".1965" points="514.0848,-504.2718 506.0925,-497.3167 508.0031,-507.7378 514.0848,-504.2718"/>
</g>
<!-- 3514 -->
<g id="node26" class="node">
<title>3514</title>
<ellipse fill="#ffffff" stroke="#000000" cx="522" cy="-291.1407" rx="25" ry="25"/>
<text text-anchor="middle" x="522" y="-288.9407" font-family="Times,serif" font-size="9.00" fill="#000000">3514</text>
</g>
<!-- x&#45;pos&#45;&gt;3514 -->
<g id="edge57" class="edge">
<title>x&#45;pos&#45;&gt;3514</title>
<path fill="none" stroke="#00ff00" stroke-width=".4338" d="M282.6169,-641.2291C257.4352,-637.9257 213.0559,-627.9215 193,-597.8377 180.7972,-579.5335 184.4766,-568.6208 193,-548.3402 249.0712,-414.9246 417.7273,-333.1932 489.3061,-303.6606"/>
<polygon fill="#00ff00" stroke="#00ff00" stroke-width=".4338" points="490.7852,-306.8378 498.74,-299.8399 488.1575,-300.3496 490.7852,-306.8378"/>
</g>
<!-- 4971 -->
<g id="node32" class="node">
<title>4971</title>
<ellipse fill="#ffffff" stroke="#000000" cx="301" cy="-573.0889" rx="25" ry="25"/>
<text text-anchor="middle" x="301" y="-570.8889" font-family="Times,serif" font-size="9.00" fill="#000000">4971</text>
</g>
<!-- x&#45;pos&#45;&gt;4971 -->
<g id="edge54" class="edge">
<title>x&#45;pos&#45;&gt;4971</title>
<path fill="none" stroke="#00ff00" stroke-width=".2886" d="M301,-633.7192C301,-627.1025 301,-617.691 301,-608.2513"/>
<polygon fill="#00ff00" stroke="#00ff00" stroke-width=".2886" points="304.5001,-608.1282 301,-598.1282 297.5001,-608.1282 304.5001,-608.1282"/>
</g>
<!-- y&#45;pos -->
<g id="node4" class="node">
<title>y&#45;pos</title>
<polygon fill="#d3d3d3" stroke="#000000" points="1253,-582.0889 1217,-582.0889 1217,-564.0889 1253,-564.0889 1253,-582.0889"/>
<text text-anchor="middle" x="1235" y="-570.8889" font-family="Times,serif" font-size="9.00" fill="#000000">y&#45;pos</text>
</g>
<!-- y&#45;pos&#45;&gt;none -->
<g id="edge11" class="edge">
<title>y&#45;pos&#45;&gt;none</title>
<path fill="none" stroke="#ff0000" stroke-width=".1482" d="M1233.8916,-563.8584C1230.7479,-536.8497 1222,-455.6159 1222,-387.9518 1222,-387.9518 1222,-387.9518 1222,-194.3295 1222,-95.3678 867.7147,-42.4989 754.4056,-28.1208"/>
<polygon fill="#ff0000" stroke="#ff0000" stroke-width=".1482" points="754.5689,-24.6141 744.2125,-26.8492 753.7023,-31.5602 754.5689,-24.6141"/>
</g>
<!-- 4170 -->
<g id="node28" class="node">
<title>4170</title>
<ellipse fill="#ffffff" stroke="#000000" cx="1155" cy="-480.5204" rx="25" ry="25"/>
<text text-anchor="middle" x="1155" y="-478.3204" font-family="Times,serif" font-size="9.00" fill="#000000">4170</text>
</g>
<!-- y&#45;pos&#45;&gt;4170 -->
<g id="edge35" class="edge">
<title>y&#45;pos&#45;&gt;4170</title>
<path fill="none" stroke="#00ff00" stroke-width=".1372" d="M1227.0368,-563.8747C1215.6941,-550.75 1194.4328,-526.1483 1177.9365,-507.0604"/>
<polygon fill="#00ff00" stroke="#00ff00" stroke-width=".1372" points="1180.3881,-504.5444 1171.2012,-499.2669 1175.0919,-509.1216 1180.3881,-504.5444"/>
</g>
<!-- x&#45;lm1&#45;vec -->
<g id="node5" class="node">
<title>x&#45;lm1&#45;vec</title>
<polygon fill="#d3d3d3" stroke="#000000" points="691.5,-489.5204 638.5,-489.5204 638.5,-471.5204 691.5,-471.5204 691.5,-489.5204"/>
<text text-anchor="middle" x="665" y="-478.3204" font-family="Times,serif" font-size="9.00" fill="#000000">x&#45;lm1&#45;vec</text>
</g>
<!-- x&#45;lm1&#45;vec&#45;&gt;right -->
<g id="edge9" class="edge">
<title>x&#45;lm1&#45;vec&#45;&gt;right</title>
<path fill="none" stroke="#ff0000" stroke-width=".2153" d="M691.624,-471.8118C743.8259,-454.7366 859.4329,-416.9219 915.8177,-398.4786"/>
<polygon fill="#ff0000" stroke="#ff0000" stroke-width=".2153" points="917.2118,-401.7051 925.6282,-395.2696 915.0356,-395.052 917.2118,-401.7051"/>
</g>
<!-- backward -->
<g id="node17" class="node">
<title>backward</title>
<ellipse fill="#add8e6" stroke="#000000" cx="307" cy="-291.1407" rx="36.125" ry="36.125"/>
<text text-anchor="middle" x="307" y="-288.9407" font-family="Times,serif" font-size="9.00" fill="#000000">backward</text>
</g>
<!-- x&#45;lm1&#45;vec&#45;&gt;backward -->
<g id="edge1" class="edge">
<title>x&#45;lm1&#45;vec&#45;&gt;backward</title>
<path fill="none" stroke="#ff0000" stroke-width=".2092" d="M659.0982,-471.3222C644.4381,-449.2249 604.0578,-392.7948 556,-363.2031 491.8722,-323.7163 405.1841,-305.0607 352.8327,-296.8752"/>
<polygon fill="#ff0000" stroke="#ff0000" stroke-width=".2092" points="353.2459,-293.3981 342.8371,-295.3746 352.2066,-300.3205 353.2459,-293.3981"/>
</g>
<!-- 2612 -->
<g id="node24" class="node">
<title>2612</title>
<ellipse fill="#ffffff" stroke="#000000" cx="666" cy="-387.9518" rx="25" ry="25"/>
<text text-anchor="middle" x="666" y="-385.7518" font-family="Times,serif" font-size="9.00" fill="#000000">2612</text>
</g>
<!-- x&#45;lm1&#45;vec&#45;&gt;2612 -->
<g id="edge29" class="edge">
<title>x&#45;lm1&#45;vec&#45;&gt;2612</title>
<path fill="none" stroke="#ff0000" stroke-width=".315" stroke-dasharray="1,5" d="M665.0995,-471.3061C665.2206,-460.0964 665.4322,-440.5145 665.6198,-423.1463"/>
<polygon fill="#ff0000" stroke="#ff0000" stroke-width=".315" points="669.1242,-422.7501 665.7325,-412.7129 662.1246,-422.6745 669.1242,-422.7501"/>
</g>
<!-- y&#45;lm1&#45;vec -->
<g id="node6" class="node">
<title>y&#45;lm1&#45;vec</title>
<polygon fill="#d3d3d3" stroke="#000000" points="619.5,-582.0889 566.5,-582.0889 566.5,-564.0889 619.5,-564.0889 619.5,-582.0889"/>
<text text-anchor="middle" x="593" y="-570.8889" font-family="Times,serif" font-size="9.00" fill="#000000">y&#45;lm1&#45;vec</text>
</g>
<!-- y&#45;lm1&#45;vec&#45;&gt;left -->
<g id="edge8" class="edge">
<title>y&#45;lm1&#45;vec&#45;&gt;left</title>
<path fill="none" stroke="#ff0000" stroke-width=".287" d="M583.2451,-563.8747C567.8763,-549.3577 537.6426,-520.7996 516.8847,-501.1922"/>
<polygon fill="#ff0000" stroke="#ff0000" stroke-width=".287" points="519.1168,-498.486 509.4438,-494.1636 514.3101,-503.5748 519.1168,-498.486"/>
</g>
<!-- y&#45;lm1&#45;vec&#45;&gt;forward -->
<g id="edge12" class="edge">
<title>y&#45;lm1&#45;vec&#45;&gt;forward</title>
<path fill="none" stroke="#00ff00" stroke-width=".267" d="M569.16,-564.0445C527.1397,-548.1029 439.5117,-514.8587 388.3873,-495.4631"/>
<polygon fill="#00ff00" stroke="#00ff00" stroke-width=".267" points="389.5706,-492.1687 378.9793,-491.8939 387.0876,-498.7135 389.5706,-492.1687"/>
</g>
<!-- 4595 -->
<g id="node34" class="node">
<title>4595</title>
<ellipse fill="#ffffff" stroke="#000000" cx="522" cy="-387.9518" rx="25" ry="25"/>
<text text-anchor="middle" x="522" y="-385.7518" font-family="Times,serif" font-size="9.00" fill="#000000">4595</text>
</g>
<!-- y&#45;lm1&#45;vec&#45;&gt;4595 -->
<g id="edge63" class="edge">
<title>y&#45;lm1&#45;vec&#45;&gt;4595</title>
<path fill="none" stroke="#00ff00" stroke-width=".2629" d="M587.6874,-563.8398C581.0935,-552.1169 569.7709,-531.165 562,-512.3402 549.6759,-482.4853 538.6872,-447.3618 531.3607,-422.0655"/>
<polygon fill="#00ff00" stroke="#00ff00" stroke-width=".2629" points="534.6576,-420.864 528.547,-412.2089 527.9264,-422.7855 534.6576,-420.864"/>
</g>
<!-- x&#45;lm2&#45;vec -->
<g id="node7" class="node">
<title>x&#45;lm2&#45;vec</title>
<polygon fill="#d3d3d3" stroke="#000000" points="729.5,-582.0889 676.5,-582.0889 676.5,-564.0889 729.5,-564.0889 729.5,-582.0889"/>
<text text-anchor="middle" x="703" y="-570.8889" font-family="Times,serif" font-size="9.00" fill="#000000">x&#45;lm2&#45;vec</text>
</g>
<!-- x&#45;lm2&#45;vec&#45;&gt;none -->
<g id="edge27" class="edge">
<title>x&#45;lm2&#45;vec&#45;&gt;none</title>
<path fill="none" stroke="#00ff00" stroke-width=".2407" d="M704.4494,-563.8698C708.5605,-536.892 720,-455.7337 720,-387.9518 720,-387.9518 720,-387.9518 720,-194.3295 720,-147.3784 720,-93.1456 720,-58.7347"/>
<polygon fill="#00ff00" stroke="#00ff00" stroke-width=".2407" points="723.5001,-58.2932 720,-48.2932 716.5001,-58.2933 723.5001,-58.2932"/>
</g>
<!-- x&#45;lm2&#45;vec&#45;&gt;left -->
<g id="edge42" class="edge">
<title>x&#45;lm2&#45;vec&#45;&gt;left</title>
<path fill="none" stroke="#ff0000" stroke-width="1.0454" stroke-dasharray="1,5" d="M681.3935,-564.0695C653.6316,-552.4143 604.0082,-531.3573 562,-512.3402 548.7632,-506.3479 534.1787,-499.4562 522.0061,-493.6222"/>
<polygon fill="#ff0000" stroke="#ff0000" stroke-width="1.0454" points="523.3614,-490.3902 512.8328,-489.2075 520.3258,-496.6978 523.3614,-490.3902"/>
</g>
<!-- y&#45;lm2&#45;vec -->
<g id="node8" class="node">
<title>y&#45;lm2&#45;vec</title>
<polygon fill="#d3d3d3" stroke="#000000" points="435.5,-582.0889 382.5,-582.0889 382.5,-564.0889 435.5,-564.0889 435.5,-582.0889"/>
<text text-anchor="middle" x="409" y="-570.8889" font-family="Times,serif" font-size="9.00" fill="#000000">y&#45;lm2&#45;vec</text>
</g>
<!-- y&#45;lm2&#45;vec&#45;&gt;left -->
<g id="edge32" class="edge">
<title>y&#45;lm2&#45;vec&#45;&gt;left</title>
<path fill="none" stroke="#ff0000" stroke-width=".5341" stroke-dasharray="1,5" d="M417.5604,-563.8747C430.7044,-549.7267 456.2384,-522.2426 474.39,-502.7046"/>
<polygon fill="#ff0000" stroke="#ff0000" stroke-width=".5341" points="477.1783,-504.8455 481.4205,-495.1371 472.0499,-500.0811 477.1783,-504.8455"/>
</g>
<!-- y&#45;lm2&#45;vec&#45;&gt;forward -->
<g id="edge19" class="edge">
<title>y&#45;lm2&#45;vec&#45;&gt;forward</title>
<path fill="none" stroke="#00ff00" stroke-width="2.4477" d="M403.0276,-563.8747C395.8086,-552.7371 383.2326,-533.3348 372.0296,-516.0506"/>
<polygon fill="#00ff00" stroke="#00ff00" stroke-width="2.4477" points="374.708,-513.7479 366.3318,-507.2601 368.8339,-517.5553 374.708,-513.7479"/>
</g>
<!-- y&#45;lm2&#45;vec&#45;&gt;backward -->
<g id="edge16" class="edge">
<title>y&#45;lm2&#45;vec&#45;&gt;backward</title>
<path fill="none" stroke="#ff0000" stroke-width="1.8455" d="M408.6326,-563.7937C407.5771,-542.7765 403.6696,-490.1985 390,-448.7006 375.9576,-406.071 351.1511,-361.123 332.3041,-330.1944"/>
<polygon fill="#ff0000" stroke="#ff0000" stroke-width="1.8455" points="335.144,-328.1318 326.913,-321.4608 329.1874,-331.8086 335.144,-328.1318"/>
</g>
<!-- x&#45;other&#45;vec -->
<g id="node9" class="node">
<title>x&#45;other&#45;vec</title>
<polygon fill="#d3d3d3" stroke="#000000" points="911,-582.0889 853,-582.0889 853,-564.0889 911,-564.0889 911,-582.0889"/>
<text text-anchor="middle" x="882" y="-570.8889" font-family="Times,serif" font-size="9.00" fill="#000000">x&#45;other&#45;vec</text>
</g>
<!-- x&#45;other&#45;vec&#45;&gt;none -->
<g id="edge26" class="edge">
<title>x&#45;other&#45;vec&#45;&gt;none</title>
<path fill="none" stroke="#ff0000" stroke-width=".1052" d="M881.1474,-563.8518C878.7291,-536.8253 872,-455.5481 872,-387.9518 872,-387.9518 872,-387.9518 872,-194.3295 872,-122.001 794.7367,-66.2479 750.3813,-40.2003"/>
<polygon fill="#ff0000" stroke="#ff0000" stroke-width=".1052" points="751.8741,-37.0222 741.4555,-35.0977 748.4,-43.0993 751.8741,-37.0222"/>
</g>
<!-- x&#45;other&#45;vec&#45;&gt;right -->
<g id="edge7" class="edge">
<title>x&#45;other&#45;vec&#45;&gt;right</title>
<path fill="none" stroke="#00ff00" stroke-width="2.0558" d="M885.273,-563.9079C894.5392,-537.915 921.2791,-462.9067 936.6902,-419.6771"/>
<polygon fill="#00ff00" stroke="#00ff00" stroke-width="2.0558" points="940.0104,-420.7863 940.0717,-410.1917 933.4169,-418.4357 940.0104,-420.7863"/>
</g>
<!-- x&#45;other&#45;vec&#45;&gt;left -->
<g id="edge5" class="edge">
<title>x&#45;other&#45;vec&#45;&gt;left</title>
<path fill="none" stroke="#ff0000" stroke-width="3.4974" d="M857.6534,-564.0016C842.8856,-558.7817 823.5616,-552.4641 806,-548.3402 699.2844,-523.2805 666.8852,-544.2038 562,-512.3402 548.0974,-508.1166 533.434,-501.4345 521.3814,-495.2817"/>
<polygon fill="#ff0000" stroke="#ff0000" stroke-width="3.4974" points="522.8182,-492.0826 512.3396,-490.5177 519.5552,-498.2756 522.8182,-492.0826"/>
</g>
<!-- 6028 -->
<g id="node20" class="node">
<title>6028</title>
<ellipse fill="#ffffff" stroke="#000000" cx="773" cy="-108.832" rx="25" ry="25"/>
<text text-anchor="middle" x="773" y="-106.632" font-family="Times,serif" font-size="9.00" fill="#000000">6028</text>
</g>
<!-- x&#45;other&#45;vec&#45;&gt;6028 -->
<g id="edge66" class="edge">
<title>x&#45;other&#45;vec&#45;&gt;6028</title>
<path fill="none" stroke="#00ff00" stroke-width=".1427" d="M877.9075,-564.0584C866.2998,-537.592 834,-457.6814 834,-387.9518 834,-387.9518 834,-387.9518 834,-291.1407 834,-235.7974 826.724,-221.2899 807,-169.5807 802.985,-159.0549 797.3863,-148.1404 791.8894,-138.5158"/>
<polygon fill="#00ff00" stroke="#00ff00" stroke-width=".1427" points="794.8044,-136.5688 786.7055,-129.7381 788.7771,-140.1285 794.8044,-136.5688"/>
</g>
<!-- y&#45;other&#45;vec -->
<g id="node10" class="node">
<title>y&#45;other&#45;vec</title>
<polygon fill="#d3d3d3" stroke="#000000" points="1131,-651.8377 1073,-651.8377 1073,-633.8377 1131,-633.8377 1131,-651.8377"/>
<text text-anchor="middle" x="1102" y="-640.6377" font-family="Times,serif" font-size="9.00" fill="#000000">y&#45;other&#45;vec</text>
</g>
<!-- y&#45;other&#45;vec&#45;&gt;none -->
<g id="edge18" class="edge">
<title>y&#45;other&#45;vec&#45;&gt;none</title>
<path fill="none" stroke="#00ff00" stroke-width=".1189" d="M1131.0168,-638.4743C1172.2308,-631.6696 1244.6606,-617.268 1262,-597.8377 1297.169,-558.4278 1281,-533.3408 1281,-480.5204 1281,-480.5204 1281,-480.5204 1281,-194.3295 1281,-110.5152 1205.671,-115.5801 1128,-84.0833 1060.078,-56.5398 839.826,-34.6483 754.3503,-26.9862"/>
<polygon fill="#00ff00" stroke="#00ff00" stroke-width=".1189" points="754.4149,-23.4783 744.145,-26.0818 753.797,-30.451 754.4149,-23.4783"/>
</g>
<!-- y&#45;other&#45;vec&#45;&gt;right -->
<g id="edge4" class="edge">
<title>y&#45;other&#45;vec&#45;&gt;right</title>
<path fill="none" stroke="#ff0000" stroke-width=".5502" d="M1100.8945,-633.7927C1096.9065,-604.3418 1080.9809,-509.5917 1035,-448.7006 1020.0899,-428.9555 996.878,-413.2076 978.1792,-402.6975"/>
<polygon fill="#ff0000" stroke="#ff0000" stroke-width=".5502" points="979.6126,-399.4939 969.1501,-397.8249 976.2882,-405.6542 979.6126,-399.4939"/>
</g>
<!-- y&#45;other&#45;vec&#45;&gt;forward -->
<g id="edge21" class="edge">
<title>y&#45;other&#45;vec&#45;&gt;forward</title>
<path fill="none" stroke="#00ff00" stroke-width=".2853" d="M1072.6643,-641.512C938.1671,-635.374 386.4458,-609.5199 373,-597.8377 351.9655,-579.5622 346.3781,-548.2642 345.8285,-522.5899"/>
<polygon fill="#00ff00" stroke="#00ff00" stroke-width=".2853" points="349.3291,-522.3579 345.861,-512.3468 342.3292,-522.3356 349.3291,-522.3579"/>
</g>
<!-- y&#45;other&#45;vec&#45;&gt;4170 -->
<g id="edge41" class="edge">
<title>y&#45;other&#45;vec&#45;&gt;4170</title>
<path fill="none" stroke="#00ff00" stroke-width=".1063" d="M1105.0014,-633.6457C1112.3988,-610.9904 1131.8003,-551.5716 1144.1452,-513.7641"/>
<polygon fill="#00ff00" stroke="#00ff00" stroke-width=".1063" points="1147.4952,-514.7803 1147.2721,-504.1878 1140.8409,-512.6075 1147.4952,-514.7803"/>
</g>
<!-- 5976 -->
<g id="node30" class="node">
<title>5976</title>
<ellipse fill="#ffffff" stroke="#000000" cx="1174" cy="-573.0889" rx="25" ry="25"/>
<text text-anchor="middle" x="1174" y="-570.8889" font-family="Times,serif" font-size="9.00" fill="#000000">5976</text>
</g>
<!-- y&#45;other&#45;vec&#45;&gt;5976 -->
<g id="edge64" class="edge">
<title>y&#45;other&#45;vec&#45;&gt;5976</title>
<path fill="none" stroke="#ff0000" stroke-width=".1561" d="M1111.4127,-633.7192C1120.8446,-624.5823 1135.7777,-610.1161 1148.6919,-597.6057"/>
<polygon fill="#ff0000" stroke="#ff0000" stroke-width=".1561" points="1151.2583,-599.9926 1156.0055,-590.5208 1146.3877,-594.9648 1151.2583,-599.9926"/>
</g>
<!-- y&#45;other&#45;vec&#45;&gt;4971 -->
<g id="edge51" class="edge">
<title>y&#45;other&#45;vec&#45;&gt;4971</title>
<path fill="none" stroke="#00ff00" stroke-width="1.0588" stroke-dasharray="1,5" d="M1072.7453,-641.5215C937.2172,-635.3719 375.4699,-609.2867 340,-597.8377 336.4323,-596.6861 332.8671,-595.1298 329.4224,-593.3549"/>
<polygon fill="#00ff00" stroke="#00ff00" stroke-width="1.0588" points="331.0726,-590.2659 320.6666,-588.2743 327.5593,-596.3205 331.0726,-590.2659"/>
</g>
<!-- x&#45;other&#45;vel -->
<g id="node11" class="node">
<title>x&#45;other&#45;vel</title>
<polygon fill="#d3d3d3" stroke="#000000" points="258,-582.0889 202,-582.0889 202,-564.0889 258,-564.0889 258,-582.0889"/>
<text text-anchor="middle" x="230" y="-570.8889" font-family="Times,serif" font-size="9.00" fill="#000000">x&#45;other&#45;vel</text>
</g>
<!-- x&#45;other&#45;vel&#45;&gt;left -->
<g id="edge14" class="edge">
<title>x&#45;other&#45;vel&#45;&gt;left</title>
<path fill="none" stroke="#ff0000" stroke-width=".2075" stroke-dasharray="1,5" d="M241.7786,-563.8554C248.7881,-558.7151 258.0381,-552.5279 267,-548.3402 318.604,-524.2265 335.4101,-528.6002 390,-512.3402 415.8854,-504.63 445.3091,-495.6988 466.4098,-489.2647"/>
<polygon fill="#ff0000" stroke="#ff0000" stroke-width=".2075" points="467.5051,-492.5899 476.0478,-486.323 465.4616,-485.8948 467.5051,-492.5899"/>
</g>
<!-- x&#45;other&#45;vel&#45;&gt;forward -->
<g id="edge22" class="edge">
<title>x&#45;other&#45;vel&#45;&gt;forward</title>
<path fill="none" stroke="#ff0000" stroke-width=".3268" d="M241.8452,-563.8747C258.8525,-550.6449 290.8509,-525.7538 315.4697,-506.6032"/>
<polygon fill="#ff0000" stroke="#ff0000" stroke-width=".3268" points="317.7593,-509.2564 323.5035,-500.3538 313.4613,-503.7312 317.7593,-509.2564"/>
</g>
<!-- x&#45;other&#45;vel&#45;&gt;backward -->
<g id="edge2" class="edge">
<title>x&#45;other&#45;vel&#45;&gt;backward</title>
<path fill="none" stroke="#ff0000" stroke-width=".1019" stroke-dasharray="1,5" d="M232.5571,-564.0381C235.9035,-552.1739 241.9379,-530.7117 247,-512.3402 263.8529,-451.1772 282.9873,-380.3972 295.0241,-335.7048"/>
<polygon fill="#ff0000" stroke="#ff0000" stroke-width=".1019" points="298.4093,-336.5937 297.6293,-326.0276 291.65,-334.774 298.4093,-336.5937"/>
</g>
<!-- 4229 -->
<g id="node18" class="node">
<title>4229</title>
<ellipse fill="#ffffff" stroke="#000000" cx="235" cy="-387.9518" rx="25" ry="25"/>
<text text-anchor="middle" x="235" y="-385.7518" font-family="Times,serif" font-size="9.00" fill="#000000">4229</text>
</g>
<!-- x&#45;other&#45;vel&#45;&gt;4229 -->
<g id="edge37" class="edge">
<title>x&#45;other&#45;vel&#45;&gt;4229</title>
<path fill="none" stroke="#00ff00" stroke-width=".2356" d="M230.248,-563.9079C230.9324,-538.5637 232.8754,-466.62 234.0542,-422.9718"/>
<polygon fill="#00ff00" stroke="#00ff00" stroke-width=".2356" points="237.5577,-422.885 234.3291,-412.7941 230.5603,-422.6959 237.5577,-422.885"/>
</g>
<!-- y&#45;other&#45;vel -->
<g id="node12" class="node">
<title>y&#45;other&#45;vel</title>
<polygon fill="#d3d3d3" stroke="#000000" points="510,-582.0889 454,-582.0889 454,-564.0889 510,-564.0889 510,-582.0889"/>
<text text-anchor="middle" x="482" y="-570.8889" font-family="Times,serif" font-size="9.00" fill="#000000">y&#45;other&#45;vel</text>
</g>
<!-- y&#45;other&#45;vel&#45;&gt;left -->
<g id="edge10" class="edge">
<title>y&#45;other&#45;vel&#45;&gt;left</title>
<path fill="none" stroke="#ff0000" stroke-width=".1343" d="M483.294,-563.8747C485.0308,-551.5077 488.1986,-528.9509 490.8012,-510.4184"/>
<polygon fill="#ff0000" stroke="#ff0000" stroke-width=".1343" points="494.2899,-510.7434 492.2147,-500.3538 487.3579,-509.7698 494.2899,-510.7434"/>
</g>
<!-- y&#45;other&#45;vel&#45;&gt;forward -->
<g id="edge17" class="edge">
<title>y&#45;other&#45;vel&#45;&gt;forward</title>
<path fill="none" stroke="#ff0000" stroke-width=".1156" stroke-dasharray="1,5" d="M468.7612,-563.8747C449.0519,-550.1569 411.3288,-523.9015 383.4649,-504.5081"/>
<polygon fill="#ff0000" stroke="#ff0000" stroke-width=".1156" points="385.372,-501.5712 375.1649,-498.7313 381.3732,-507.3166 385.372,-501.5712"/>
</g>
<!-- 3182 -->
<g id="node33" class="node">
<title>3182</title>
<ellipse fill="#ffffff" stroke="#000000" cx="455" cy="-387.9518" rx="25" ry="25"/>
<text text-anchor="middle" x="455" y="-385.7518" font-family="Times,serif" font-size="9.00" fill="#000000">3182</text>
</g>
<!-- y&#45;other&#45;vel&#45;&gt;3182 -->
<g id="edge30" class="edge">
<title>y&#45;other&#45;vel&#45;&gt;3182</title>
<path fill="none" stroke="#00ff00" stroke-width=".2397" stroke-dasharray="1,5" d="M479.0047,-563.7282C475.3402,-551.8902 469.2267,-530.8195 466,-512.3402 460.7794,-482.4413 457.979,-448.0432 456.5131,-423.0089"/>
<polygon fill="#00ff00" stroke="#00ff00" stroke-width=".2397" points="460.001,-422.6889 455.9634,-412.8935 453.0113,-423.0688 460.001,-422.6889"/>
</g>
<!-- left&#45;&gt;3182 -->
<g id="edge40" class="edge">
<title>left&#45;&gt;3182</title>
<path fill="none" stroke="#ff0000" stroke-width=".314" stroke-dasharray="1,5" d="M487.0973,-462.2318C481.9176,-450.2448 475.0038,-434.2449 468.9197,-420.1649"/>
<polygon fill="#ff0000" stroke="#ff0000" stroke-width=".314" points="472.0512,-418.5881 464.8716,-410.7968 465.6254,-421.3648 472.0512,-418.5881"/>
</g>
<!-- forward&#45;&gt;3514 -->
<g id="edge34" class="edge">
<title>forward&#45;&gt;3514</title>
<path fill="none" stroke="#ff0000" stroke-width=".6819" stroke-dasharray="1,5" d="M362.7246,-451.316C375.4833,-426.1413 396.2199,-389.7622 421,-363.2031 441.5726,-341.1536 469.8502,-321.6688 491.2528,-308.538"/>
<polygon fill="#ff0000" stroke="#ff0000" stroke-width=".6819" points="493.1891,-311.458 499.9619,-303.3106 489.5866,-305.4561 493.1891,-311.458"/>
</g>
<!-- forward&#45;&gt;4595 -->
<g id="edge45" class="edge">
<title>forward&#45;&gt;4595</title>
<path fill="none" stroke="#ff0000" stroke-width=".3852" d="M378.5471,-468.1947C407.4892,-455.666 452.446,-434.9762 489,-412.7006 490.697,-411.6664 492.4139,-410.5657 494.1263,-409.425"/>
<polygon fill="#ff0000" stroke="#ff0000" stroke-width=".3852" points="496.3715,-412.125 502.5398,-403.5108 492.346,-406.3982 496.3715,-412.125"/>
</g>
<!-- 4229&#45;&gt;backward -->
<g id="edge38" class="edge">
<title>4229&#45;&gt;backward</title>
<path fill="none" stroke="#ff0000" stroke-width=".3923" stroke-dasharray="1,5" d="M249.9184,-367.8925C258.3778,-356.518 269.2351,-341.9193 279.2055,-328.5132"/>
<polygon fill="#ff0000" stroke="#ff0000" stroke-width=".3923" points="282.1102,-330.4724 285.2695,-320.3595 276.4933,-326.295 282.1102,-330.4724"/>
</g>
<!-- 5763&#45;&gt;5580 -->
<g id="edge61" class="edge">
<title>5763&#45;&gt;5580</title>
<path fill="none" stroke="#ff0000" stroke-width=".695" d="M1022.5318,-549.2502C1019.1829,-538.5607 1015.1738,-525.7635 1011.5278,-514.1253"/>
<polygon fill="#ff0000" stroke="#ff0000" stroke-width=".695" points="1014.7725,-512.7746 1008.4429,-504.2783 1008.0926,-514.8673 1014.7725,-512.7746"/>
</g>
<!-- 6028&#45;&gt;none -->
<g id="edge67" class="edge">
<title>6028&#45;&gt;none</title>
<path fill="none" stroke="#ff0000" stroke-width=".5001" stroke-dasharray="1,5" d="M759.6259,-87.4358C753.141,-77.0613 745.2532,-64.4422 738.2276,-53.2025"/>
<polygon fill="#ff0000" stroke="#ff0000" stroke-width=".5001" points="741.0897,-51.1781 732.8214,-44.5535 735.1539,-54.8884 741.0897,-51.1781"/>
</g>
<!-- 5660&#45;&gt;4229 -->
<g id="edge62" class="edge">
<title>5660&#45;&gt;4229</title>
<path fill="none" stroke="#ff0000" stroke-width=".7857" d="M109.967,-464.0285C116.1876,-458.8988 123.2411,-453.3687 130,-448.7006 153.8503,-432.2281 182.405,-415.9087 203.7119,-404.3391"/>
<polygon fill="#ff0000" stroke="#ff0000" stroke-width=".7857" points="205.5062,-407.3482 212.6562,-399.5297 202.1911,-401.1829 205.5062,-407.3482"/>
</g>
<!-- 5660&#45;&gt;1499 -->
<g id="edge59" class="edge">
<title>5660&#45;&gt;1499</title>
<path fill="none" stroke="#00ff00" stroke-width=".5886" d="M91,-455.6235C91,-404.6696 91,-288.3618 91,-229.6386"/>
<polygon fill="#00ff00" stroke="#00ff00" stroke-width=".5886" points="94.5001,-229.3726 91,-219.3726 87.5001,-229.3727 94.5001,-229.3726"/>
</g>
<!-- 2598&#45;&gt;4405 -->
<g id="edge47" class="edge">
<title>2598&#45;&gt;4405</title>
<path fill="none" stroke="#00ff00" stroke-width=".4457" stroke-dasharray="1,5" d="M612.9508,-462.309C617.8681,-457.5603 623.4224,-452.6676 629,-448.7006 657.8315,-428.1945 676.8825,-439.4837 700,-412.7006 746.0156,-359.3887 763.2694,-276.0331 769.5554,-229.2337"/>
<polygon fill="#00ff00" stroke="#00ff00" stroke-width=".4457" points="773.0332,-229.6285 770.8011,-219.2715 766.0873,-228.7599 773.0332,-229.6285"/>
</g>
<!-- 2598&#45;&gt;3514 -->
<g id="edge50" class="edge">
<title>2598&#45;&gt;3514</title>
<path fill="none" stroke="#ff0000" stroke-width=".2938" stroke-dasharray="1,5" d="M588.6543,-456.4143C581.1613,-432.4924 568.8409,-394.9172 556,-363.2031 550.4976,-349.6135 543.7237,-334.9248 537.6742,-322.3763"/>
<polygon fill="#ff0000" stroke="#ff0000" stroke-width=".2938" points="540.7528,-320.7041 533.2224,-313.2513 534.4615,-323.7734 540.7528,-320.7041"/>
</g>
<!-- 2598&#45;&gt;4595 -->
<g id="edge68" class="edge">
<title>2598&#45;&gt;4595</title>
<path fill="none" stroke="#00ff00" stroke-width=".8397" d="M580.3065,-460.889C569.8088,-447.7571 555.8398,-430.2829 544.2066,-415.7306"/>
<polygon fill="#00ff00" stroke="#00ff00" stroke-width=".8397" points="546.6489,-413.1805 537.6709,-407.5549 541.1812,-417.5514 546.6489,-413.1805"/>
</g>
<!-- 2612&#45;&gt;none -->
<g id="edge31" class="edge">
<title>2612&#45;&gt;none</title>
<path fill="none" stroke="#ff0000" stroke-width=".4305" d="M668.4447,-363.0083C673.7325,-310.9333 687.283,-186.9521 706,-84.0833 707.5837,-75.379 709.6042,-66.0363 711.6144,-57.3748"/>
<polygon fill="#ff0000" stroke="#ff0000" stroke-width=".4305" points="715.0305,-58.1378 713.9426,-47.5989 708.221,-56.516 715.0305,-58.1378"/>
</g>
<!-- 2612&#45;&gt;3514 -->
<g id="edge48" class="edge">
<title>2612&#45;&gt;3514</title>
<path fill="none" stroke="#ff0000" stroke-width=".3183" d="M645.3683,-374.0812C620.6672,-357.4746 579.1353,-329.5527 551.161,-310.7456"/>
<polygon fill="#ff0000" stroke="#ff0000" stroke-width=".3183" points="552.8451,-307.6604 542.5934,-304.9856 548.9395,-313.4696 552.8451,-307.6604"/>
</g>
<!-- 4405&#45;&gt;6028 -->
<g id="edge69" class="edge">
<title>4405&#45;&gt;6028</title>
<path fill="none" stroke="#00ff00" stroke-width=".3722" d="M773,-169.1398C773,-161.2256 773,-152.3395 773,-143.871"/>
<polygon fill="#00ff00" stroke="#00ff00" stroke-width=".3722" points="776.5001,-143.8416 773,-133.8416 769.5001,-143.8416 776.5001,-143.8416"/>
</g>
<!-- 3514&#45;&gt;4405 -->
<g id="edge53" class="edge">
<title>3514&#45;&gt;4405</title>
<path fill="none" stroke="#00ff00" stroke-width="1.1716" stroke-dasharray="1,5" d="M545.1636,-282.2064C589.9916,-264.9162 688.7204,-226.8363 740.2465,-206.9626"/>
<polygon fill="#00ff00" stroke="#00ff00" stroke-width="1.1716" points="741.8219,-210.1063 749.8924,-203.2421 739.3028,-203.5753 741.8219,-210.1063"/>
</g>
<!-- 3514&#45;&gt;1499 -->
<g id="edge33" class="edge">
<title>3514&#45;&gt;1499</title>
<path fill="none" stroke="#00ff00" stroke-width=".3137" stroke-dasharray="1,5" d="M497.5927,-285.6583C424.8548,-269.3199 209.3975,-220.9239 125.2324,-202.0187"/>
<polygon fill="#00ff00" stroke="#00ff00" stroke-width=".3137" points="125.9301,-198.5883 115.4061,-199.8116 124.3959,-205.4182 125.9301,-198.5883"/>
</g>
<!-- 4547 -->
<g id="node27" class="node">
<title>4547</title>
<ellipse fill="#ffffff" stroke="#000000" cx="91" cy="-108.832" rx="25" ry="25"/>
<text text-anchor="middle" x="91" y="-106.632" font-family="Times,serif" font-size="9.00" fill="#000000">4547</text>
</g>
<!-- 4547&#45;&gt;none -->
<g id="edge44" class="edge">
<title>4547&#45;&gt;none</title>
<path fill="none" stroke="#00ff00" stroke-width=".2124" d="M110.7279,-93.83C116.6397,-90.0391 123.3319,-86.3929 130,-84.0833 234.0397,-48.0469 576.054,-30.3157 685.7869,-25.4564"/>
<polygon fill="#00ff00" stroke="#00ff00" stroke-width=".2124" points="686.1208,-28.9453 695.9591,-25.0136 685.8163,-21.9519 686.1208,-28.9453"/>
</g>
<!-- 4170&#45;&gt;none -->
<g id="edge36" class="edge">
<title>4170&#45;&gt;none</title>
<path fill="none" stroke="#ff0000" stroke-width=".204" stroke-dasharray="1,5" d="M1140.5116,-460.3506C1117.9546,-426.9057 1077,-357.1006 1077,-291.1407 1077,-291.1407 1077,-291.1407 1077,-194.3295 1077,-122.9914 841.8374,-55.2796 753.2351,-32.2995"/>
<polygon fill="#ff0000" stroke="#ff0000" stroke-width=".204" points="753.9798,-28.8773 743.4238,-29.7829 752.2405,-35.6578 753.9798,-28.8773"/>
</g>
<!-- 5580&#45;&gt;right -->
<g id="edge56" class="edge">
<title>5580&#45;&gt;right</title>
<path fill="none" stroke="#00ff00" stroke-width=".2416" stroke-dasharray="1,5" d="M988.4397,-458.5829C981.3763,-446.246 972.4656,-430.6829 964.8075,-417.3074"/>
<polygon fill="#00ff00" stroke="#00ff00" stroke-width=".2416" points="967.7501,-415.4027 959.7439,-408.4635 961.6753,-418.8808 967.7501,-415.4027"/>
</g>
<!-- 5976&#45;&gt;4170 -->
<g id="edge65" class="edge">
<title>5976&#45;&gt;4170</title>
<path fill="none" stroke="#ff0000" stroke-width=".2854" d="M1169.008,-548.7676C1166.8867,-538.4325 1164.3749,-526.1953 1162.0683,-514.9572"/>
<polygon fill="#ff0000" stroke="#ff0000" stroke-width=".2854" points="1165.4639,-514.0927 1160.0247,-505.0006 1158.6068,-515.5002 1165.4639,-514.0927"/>
</g>
<!-- 1499&#45;&gt;none -->
<g id="edge25" class="edge">
<title>1499&#45;&gt;none</title>
<path fill="none" stroke="#00ff00" stroke-width=".19" stroke-dasharray="1,5" d="M103.3937,-172.321C120.2189,-143.2842 150.2229,-94.6125 168,-84.0833 212.5942,-57.6705 571.835,-33.2616 685.5886,-26.1304"/>
<polygon fill="#00ff00" stroke="#00ff00" stroke-width=".19" points="686.0483,-29.6087 695.8118,-25.4948 685.6139,-22.6222 686.0483,-29.6087"/>
</g>
<!-- 1499&#45;&gt;4547 -->
<g id="edge43" class="edge">
<title>1499&#45;&gt;4547</title>
<path fill="none" stroke="#ff0000" stroke-width=".297" d="M91,-169.1398C91,-161.2256 91,-152.3395 91,-143.871"/>
<polygon fill="#ff0000" stroke="#ff0000" stroke-width=".297" points="94.5001,-143.8416 91,-133.8416 87.5001,-143.8416 94.5001,-143.8416"/>
</g>
<!-- 4971&#45;&gt;forward -->
<g id="edge52" class="edge">
<title>4971&#45;&gt;forward</title>
<path fill="none" stroke="#00ff00" stroke-width=".1564" stroke-dasharray="1,5" d="M312.6195,-550.6807C317.6917,-540.8988 323.7799,-529.1576 329.5119,-518.1034"/>
<polygon fill="#00ff00" stroke="#00ff00" stroke-width=".1564" points="332.7167,-519.5262 334.2129,-509.0375 326.5024,-516.3038 332.7167,-519.5262"/>
</g>
<!-- 4595&#45;&gt;3514 -->
<g id="edge46" class="edge">
<title>4595&#45;&gt;3514</title>
<path fill="none" stroke="#ff0000" stroke-width=".4251" d="M522,-363.0206C522,-351.8411 522,-338.4574 522,-326.2858"/>
<polygon fill="#ff0000" stroke="#ff0000" stroke-width=".4251" points="525.5001,-325.9874 522,-315.9875 518.5001,-325.9875 525.5001,-325.9874"/>
</g>
</g>
</svg>
