<?xml version="1.0" encoding="UTF-8" standalone="no"?>
<!DOCTYPE svg PUBLIC "-//W3C//DTD SVG 1.1//EN"
 "http://www.w3.org/Graphics/SVG/1.1/DTD/svg11.dtd">
<!-- Generated by graphviz version 2.40.1 (20161225.0304)
 -->
<!-- Title: %3 Pages: 1 -->
<svg width="1027pt" height="398pt"
 viewBox="0.00 0.00 1026.68 397.69" xmlns="http://www.w3.org/2000/svg" xmlns:xlink="http://www.w3.org/1999/xlink">
<g id="graph0" class="graph" transform="scale(1 1) rotate(0) translate(4 393.6884)">
<title>%3</title>
<polygon fill="#ffffff" stroke="transparent" points="-4,4 -4,-393.6884 1022.6816,-393.6884 1022.6816,4 -4,4"/>
<!-- x&#45;vel -->
<g id="node1" class="node">
<title>x&#45;vel</title>
<polygon fill="#d3d3d3" stroke="#000000" points="641.4232,-241.5132 606.4232,-241.5132 606.4232,-223.5132 641.4232,-223.5132 641.4232,-241.5132"/>
<text text-anchor="middle" x="623.9232" y="-230.3132" font-family="Times,serif" font-size="9.00" fill="#000000">x&#45;vel</text>
</g>
<!-- right -->
<g id="node14" class="node">
<title>right</title>
<ellipse fill="#add8e6" stroke="#000000" cx="371.9232" cy="-135.7021" rx="23.1702" ry="23.1702"/>
<text text-anchor="middle" x="371.9232" y="-133.5021" font-family="Times,serif" font-size="9.00" fill="#000000">right</text>
</g>
<!-- x&#45;vel&#45;&gt;right -->
<g id="edge17" class="edge">
<title>x&#45;vel&#45;&gt;right</title>
<path fill="none" stroke="#00ff00" stroke-width=".8535" stroke-dasharray="1,5" d="M606.3748,-225.6171C593.133,-220.4905 574.4794,-213.4324 557.9232,-207.7645 506.8518,-190.2806 491.8853,-192.2035 441.9232,-171.7645 428.2106,-166.1548 413.563,-158.8318 401.2296,-152.2513"/>
<polygon fill="#00ff00" stroke="#00ff00" stroke-width=".8535" points="402.7613,-149.1004 392.3031,-147.4047 399.4212,-155.2522 402.7613,-149.1004"/>
</g>
<!-- backward -->
<g id="node17" class="node">
<title>backward</title>
<ellipse fill="#add8e6" stroke="#000000" cx="585.9232" cy="-135.7021" rx="36.125" ry="36.125"/>
<text text-anchor="middle" x="585.9232" y="-133.5021" font-family="Times,serif" font-size="9.00" fill="#000000">backward</text>
</g>
<!-- x&#45;vel&#45;&gt;backward -->
<g id="edge30" class="edge">
<title>x&#45;vel&#45;&gt;backward</title>
<path fill="none" stroke="#00ff00" stroke-width=".1301" d="M620.2796,-223.2306C616.2421,-212.9445 609.4414,-195.6187 602.951,-179.0834"/>
<polygon fill="#00ff00" stroke="#00ff00" stroke-width=".1301" points="606.1005,-177.5279 599.1887,-169.4982 599.5845,-180.0856 606.1005,-177.5279"/>
</g>
<!-- 577 -->
<g id="node18" class="node">
<title>577</title>
<ellipse fill="#ffffff" stroke="#000000" cx="724.9232" cy="-135.7021" rx="21.4286" ry="21.4286"/>
<text text-anchor="middle" x="724.9232" y="-133.5021" font-family="Times,serif" font-size="9.00" fill="#000000">577</text>
</g>
<!-- x&#45;vel&#45;&gt;577 -->
<g id="edge40" class="edge">
<title>x&#45;vel&#45;&gt;577</title>
<path fill="none" stroke="#ff0000" stroke-width=".4482" d="M633.6075,-223.2306C649.2621,-208.2252 680.5464,-178.2384 702.0993,-157.5794"/>
<polygon fill="#ff0000" stroke="#ff0000" stroke-width=".4482" points="704.7553,-159.8817 709.5525,-150.4352 699.9114,-154.8283 704.7553,-159.8817"/>
</g>
<!-- y&#45;vel -->
<g id="node2" class="node">
<title>y&#45;vel</title>
<polygon fill="#d3d3d3" stroke="#000000" points="818.4232,-389.6884 783.4232,-389.6884 783.4232,-371.6884 818.4232,-371.6884 818.4232,-389.6884"/>
<text text-anchor="middle" x="800.9232" y="-378.4884" font-family="Times,serif" font-size="9.00" fill="#000000">y&#45;vel</text>
</g>
<!-- none -->
<g id="node13" class="node">
<title>none</title>
<ellipse fill="#add8e6" stroke="#000000" cx="246.9232" cy="-135.7021" rx="24.0833" ry="24.0833"/>
<text text-anchor="middle" x="246.9232" y="-133.5021" font-family="Times,serif" font-size="9.00" fill="#000000">none</text>
</g>
<!-- y&#45;vel&#45;&gt;none -->
<g id="edge13" class="edge">
<title>y&#45;vel&#45;&gt;none</title>
<path fill="none" stroke="#00ff00" stroke-width=".1333" d="M798.5383,-371.5419C793.1873,-353.0709 778.3263,-311.5257 748.9232,-293.262 661.0706,-238.6925 365.8179,-321.6975 284.9232,-257.262 259.0053,-236.6175 250.4096,-198.4886 247.7372,-170.4191"/>
<polygon fill="#00ff00" stroke="#00ff00" stroke-width=".1333" points="251.2102,-169.9245 246.9792,-160.2112 244.2294,-170.4429 251.2102,-169.9245"/>
</g>
<!-- left -->
<g id="node15" class="node">
<title>left</title>
<ellipse fill="#add8e6" stroke="#000000" cx="956.9232" cy="-135.7021" rx="19.6" ry="19.6"/>
<text text-anchor="middle" x="956.9232" y="-133.5021" font-family="Times,serif" font-size="9.00" fill="#000000">left</text>
</g>
<!-- y&#45;vel&#45;&gt;left -->
<g id="edge5" class="edge">
<title>y&#45;vel&#45;&gt;left</title>
<path fill="none" stroke="#00ff00" stroke-width=".3181" d="M818.683,-379.4044C862.9741,-375.7963 976.3816,-363.9278 998.9232,-335.6884 1034.3922,-291.2537 1013.7508,-262.652 998.9232,-207.7645 994.2898,-190.6134 984.451,-173.3503 975.4603,-160.0219"/>
<polygon fill="#00ff00" stroke="#00ff00" stroke-width=".3181" points="978.0625,-157.6377 969.4459,-151.4728 972.3373,-161.6655 978.0625,-157.6377"/>
</g>
<!-- 276 -->
<g id="node20" class="node">
<title>276</title>
<ellipse fill="#ffffff" stroke="#000000" cx="861.9232" cy="-232.5132" rx="21.4286" ry="21.4286"/>
<text text-anchor="middle" x="861.9232" y="-230.3132" font-family="Times,serif" font-size="9.00" fill="#000000">276</text>
</g>
<!-- y&#45;vel&#45;&gt;276 -->
<g id="edge27" class="edge">
<title>y&#45;vel&#45;&gt;276</title>
<path fill="none" stroke="#ff0000" stroke-width=".1017" d="M804.739,-371.4194C813.6175,-349.8525 835.9666,-295.5644 849.9502,-261.5967"/>
<polygon fill="#ff0000" stroke="#ff0000" stroke-width=".1017" points="853.2554,-262.7621 853.8258,-252.1826 846.7824,-260.0973 853.2554,-262.7621"/>
</g>
<!-- 153 -->
<g id="node21" class="node">
<title>153</title>
<ellipse fill="#ffffff" stroke="#000000" cx="718.9232" cy="-314.4752" rx="21.4286" ry="21.4286"/>
<text text-anchor="middle" x="718.9232" y="-312.2752" font-family="Times,serif" font-size="9.00" fill="#000000">153</text>
</g>
<!-- y&#45;vel&#45;&gt;153 -->
<g id="edge25" class="edge">
<title>y&#45;vel&#45;&gt;153</title>
<path fill="none" stroke="#ff0000" stroke-width="1.5193" stroke-dasharray="1,5" d="M789.5214,-371.4817C777.7139,-361.9474 758.8937,-346.7505 743.6534,-334.4443"/>
<polygon fill="#ff0000" stroke="#ff0000" stroke-width="1.5193" points="745.6012,-331.5185 735.6221,-327.9592 741.2035,-336.9647 745.6012,-331.5185"/>
</g>
<!-- x&#45;pos -->
<g id="node3" class="node">
<title>x&#45;pos</title>
<polygon fill="#d3d3d3" stroke="#000000" points="55.9232,-241.5132 19.9232,-241.5132 19.9232,-223.5132 55.9232,-223.5132 55.9232,-241.5132"/>
<text text-anchor="middle" x="37.9232" y="-230.3132" font-family="Times,serif" font-size="9.00" fill="#000000">x&#45;pos</text>
</g>
<!-- x&#45;pos&#45;&gt;none -->
<g id="edge14" class="edge">
<title>x&#45;pos&#45;&gt;none</title>
<path fill="none" stroke="#00ff00" stroke-width=".102" stroke-dasharray="1,5" d="M48.0804,-223.5034C54.1328,-218.4378 62.1328,-212.2506 69.9232,-207.7645 117.6233,-180.2963 177.8346,-158.1654 214.3082,-145.9901"/>
<polygon fill="#00ff00" stroke="#00ff00" stroke-width=".102" points="215.53,-149.2728 223.936,-142.8239 213.3431,-142.6231 215.53,-149.2728"/>
</g>
<!-- forward -->
<g id="node16" class="node">
<title>forward</title>
<ellipse fill="#add8e6" stroke="#000000" cx="448.9232" cy="-31.8198" rx="31.6406" ry="31.6406"/>
<text text-anchor="middle" x="448.9232" y="-29.6198" font-family="Times,serif" font-size="9.00" fill="#000000">forward</text>
</g>
<!-- x&#45;pos&#45;&gt;forward -->
<g id="edge18" class="edge">
<title>x&#45;pos&#45;&gt;forward</title>
<path fill="none" stroke="#ff0000" stroke-width=".3265" d="M47.3647,-223.3143C72.3881,-199.4245 143.341,-134.8303 213.9232,-99.6396 277.6511,-67.8663 358.7271,-48.6181 407.0773,-39.1197"/>
<polygon fill="#ff0000" stroke="#ff0000" stroke-width=".3265" points="408.0095,-42.5048 417.172,-37.1852 406.692,-35.6299 408.0095,-42.5048"/>
</g>
<!-- y&#45;pos -->
<g id="node4" class="node">
<title>y&#45;pos</title>
<polygon fill="#d3d3d3" stroke="#000000" points="477.9232,-241.5132 441.9232,-241.5132 441.9232,-223.5132 477.9232,-223.5132 477.9232,-241.5132"/>
<text text-anchor="middle" x="459.9232" y="-230.3132" font-family="Times,serif" font-size="9.00" fill="#000000">y&#45;pos</text>
</g>
<!-- y&#45;pos&#45;&gt;none -->
<g id="edge20" class="edge">
<title>y&#45;pos&#45;&gt;none</title>
<path fill="none" stroke="#00ff00" stroke-width=".6426" d="M451.6093,-223.3588C446.588,-218.2449 439.838,-212.0578 432.9232,-207.7645 395.2685,-184.3857 381.2518,-187.7766 339.9232,-171.7645 319.6225,-163.8994 296.8321,-155.0621 278.8931,-148.1043"/>
<polygon fill="#00ff00" stroke="#00ff00" stroke-width=".6426" points="280.0617,-144.8035 269.4728,-144.4503 277.5303,-151.3298 280.0617,-144.8035"/>
</g>
<!-- y&#45;pos&#45;&gt;backward -->
<g id="edge1" class="edge">
<title>y&#45;pos&#45;&gt;backward</title>
<path fill="none" stroke="#00ff00" stroke-width=".5001" d="M469.6862,-223.0706C474.7149,-218.3354 481.0167,-212.5955 486.9232,-207.7645 506.3304,-191.8912 528.8676,-175.3489 547.532,-162.123"/>
<polygon fill="#00ff00" stroke="#00ff00" stroke-width=".5001" points="549.6488,-164.9132 555.8098,-156.2939 545.6184,-159.1898 549.6488,-164.9132"/>
</g>
<!-- x&#45;lm1&#45;vec -->
<g id="node5" class="node">
<title>x&#45;lm1&#45;vec</title>
<polygon fill="#d3d3d3" stroke="#000000" points="347.4232,-241.5132 294.4232,-241.5132 294.4232,-223.5132 347.4232,-223.5132 347.4232,-241.5132"/>
<text text-anchor="middle" x="320.9232" y="-230.3132" font-family="Times,serif" font-size="9.00" fill="#000000">x&#45;lm1&#45;vec</text>
</g>
<!-- x&#45;lm1&#45;vec&#45;&gt;none -->
<g id="edge10" class="edge">
<title>x&#45;lm1&#45;vec&#45;&gt;none</title>
<path fill="none" stroke="#ff0000" stroke-width=".3945" stroke-dasharray="1,5" d="M313.8277,-223.2306C303.3356,-209.5041 283.2608,-183.2411 267.8272,-163.0499"/>
<polygon fill="#ff0000" stroke="#ff0000" stroke-width=".3945" points="270.603,-160.918 261.7494,-155.0987 265.0416,-165.1691 270.603,-160.918"/>
</g>
<!-- x&#45;lm1&#45;vec&#45;&gt;right -->
<g id="edge11" class="edge">
<title>x&#45;lm1&#45;vec&#45;&gt;right</title>
<path fill="none" stroke="#00ff00" stroke-width=".8516" d="M325.8132,-223.2306C332.7436,-210.075 345.7403,-185.404 356.1733,-165.5993"/>
<polygon fill="#00ff00" stroke="#00ff00" stroke-width=".8516" points="359.3388,-167.0998 360.903,-156.6211 353.1456,-163.8372 359.3388,-167.0998"/>
</g>
<!-- x&#45;lm1&#45;vec&#45;&gt;forward -->
<g id="edge23" class="edge">
<title>x&#45;lm1&#45;vec&#45;&gt;forward</title>
<path fill="none" stroke="#ff0000" stroke-width=".1513" stroke-dasharray="1,5" d="M319.741,-223.2214C317.3047,-200.1896 313.9459,-139.4523 339.9232,-99.6396 356.266,-74.5926 385.4242,-57.1696 409.4726,-46.2599"/>
<polygon fill="#ff0000" stroke="#ff0000" stroke-width=".1513" points="410.9457,-49.4362 418.7374,-42.257 408.1693,-43.0103 410.9457,-49.4362"/>
</g>
<!-- y&#45;lm1&#45;vec -->
<g id="node6" class="node">
<title>y&#45;lm1&#45;vec</title>
<polygon fill="#d3d3d3" stroke="#000000" points="822.4232,-241.5132 769.4232,-241.5132 769.4232,-223.5132 822.4232,-223.5132 822.4232,-241.5132"/>
<text text-anchor="middle" x="795.9232" y="-230.3132" font-family="Times,serif" font-size="9.00" fill="#000000">y&#45;lm1&#45;vec</text>
</g>
<!-- y&#45;lm1&#45;vec&#45;&gt;577 -->
<g id="edge34" class="edge">
<title>y&#45;lm1&#45;vec&#45;&gt;577</title>
<path fill="none" stroke="#00ff00" stroke-width=".1202" d="M789.1154,-223.2306C778.7289,-209.0682 758.555,-181.5604 743.5828,-161.1452"/>
<polygon fill="#00ff00" stroke="#00ff00" stroke-width=".1202" points="746.2646,-158.8837 737.5283,-152.8897 740.6199,-163.0234 746.2646,-158.8837"/>
</g>
<!-- x&#45;lm2&#45;vec -->
<g id="node7" class="node">
<title>x&#45;lm2&#45;vec</title>
<polygon fill="#d3d3d3" stroke="#000000" points="549.4232,-241.5132 496.4232,-241.5132 496.4232,-223.5132 549.4232,-223.5132 549.4232,-241.5132"/>
<text text-anchor="middle" x="522.9232" y="-230.3132" font-family="Times,serif" font-size="9.00" fill="#000000">x&#45;lm2&#45;vec</text>
</g>
<!-- x&#45;lm2&#45;vec&#45;&gt;none -->
<g id="edge16" class="edge">
<title>x&#45;lm2&#45;vec&#45;&gt;none</title>
<path fill="none" stroke="#00ff00" stroke-width=".342" stroke-dasharray="1,5" d="M511.8842,-223.3587C505.064,-218.1149 495.9211,-211.7959 486.9232,-207.7645 425.5386,-180.2622 404.0818,-191.9663 339.9232,-171.7645 319.1572,-165.2259 296.3585,-156.4123 278.5316,-149.135"/>
<polygon fill="#00ff00" stroke="#00ff00" stroke-width=".342" points="279.7626,-145.8567 269.1838,-145.2743 277.0905,-152.3266 279.7626,-145.8567"/>
</g>
<!-- x&#45;lm2&#45;vec&#45;&gt;backward -->
<g id="edge9" class="edge">
<title>x&#45;lm2&#45;vec&#45;&gt;backward</title>
<path fill="none" stroke="#ff0000" stroke-width=".1526" stroke-dasharray="1,5" d="M528.9639,-223.2306C536.2687,-212.0054 549.0293,-192.3962 560.6233,-174.58"/>
<polygon fill="#ff0000" stroke="#ff0000" stroke-width=".1526" points="563.6713,-176.3131 566.1921,-166.0225 557.8042,-172.4951 563.6713,-176.3131"/>
</g>
<!-- y&#45;lm2&#45;vec -->
<g id="node8" class="node">
<title>y&#45;lm2&#45;vec</title>
<polygon fill="#d3d3d3" stroke="#000000" points="751.4232,-241.5132 698.4232,-241.5132 698.4232,-223.5132 751.4232,-223.5132 751.4232,-241.5132"/>
<text text-anchor="middle" x="724.9232" y="-230.3132" font-family="Times,serif" font-size="9.00" fill="#000000">y&#45;lm2&#45;vec</text>
</g>
<!-- y&#45;lm2&#45;vec&#45;&gt;forward -->
<g id="edge3" class="edge">
<title>y&#45;lm2&#45;vec&#45;&gt;forward</title>
<path fill="none" stroke="#00ff00" stroke-width="1.3613" d="M720.8457,-223.3497C709.8103,-199.5456 677.0546,-135.1401 630.9232,-99.6396 588.7633,-67.1955 529.4448,-48.9828 490.1287,-39.7826"/>
<polygon fill="#00ff00" stroke="#00ff00" stroke-width="1.3613" points="490.8649,-36.3608 480.3407,-37.5815 489.3291,-43.1903 490.8649,-36.3608"/>
</g>
<!-- y&#45;lm2&#45;vec&#45;&gt;backward -->
<g id="edge21" class="edge">
<title>y&#45;lm2&#45;vec&#45;&gt;backward</title>
<path fill="none" stroke="#ff0000" stroke-width=".1899" d="M711.8464,-223.4055C691.917,-209.525 653.1723,-182.54 623.8972,-162.1503"/>
<polygon fill="#ff0000" stroke="#ff0000" stroke-width=".1899" points="625.738,-159.1672 615.5317,-156.3239 621.7373,-164.9113 625.738,-159.1672"/>
</g>
<!-- y&#45;lm2&#45;vec&#45;&gt;577 -->
<g id="edge31" class="edge">
<title>y&#45;lm2&#45;vec&#45;&gt;577</title>
<path fill="none" stroke="#ff0000" stroke-width=".1198" d="M724.9232,-223.2306C724.9232,-210.3933 724.9232,-186.5912 724.9232,-167.0453"/>
<polygon fill="#ff0000" stroke="#ff0000" stroke-width=".1198" points="728.4233,-167.0075 724.9232,-157.0076 721.4233,-167.0076 728.4233,-167.0075"/>
</g>
<!-- x&#45;other&#45;vec -->
<g id="node9" class="node">
<title>x&#45;other&#45;vec</title>
<polygon fill="#d3d3d3" stroke="#000000" points="698.9232,-389.6884 640.9232,-389.6884 640.9232,-371.6884 698.9232,-371.6884 698.9232,-389.6884"/>
<text text-anchor="middle" x="669.9232" y="-378.4884" font-family="Times,serif" font-size="9.00" fill="#000000">x&#45;other&#45;vec</text>
</g>
<!-- x&#45;other&#45;vec&#45;&gt;none -->
<g id="edge19" class="edge">
<title>x&#45;other&#45;vec&#45;&gt;none</title>
<path fill="none" stroke="#ff0000" stroke-width=".6453" stroke-dasharray="1,5" d="M640.589,-380.3788C534.2695,-378.9676 173.5001,-371.5521 137.9232,-335.6884 97.8383,-295.2803 104.3605,-257.5632 131.9232,-207.7645 141.2033,-190.9976 185.1243,-166.4419 215.9148,-150.7662"/>
<polygon fill="#ff0000" stroke="#ff0000" stroke-width=".6453" points="217.6309,-153.821 224.9961,-146.2048 214.489,-147.5657 217.6309,-153.821"/>
</g>
<!-- x&#45;other&#45;vec&#45;&gt;left -->
<g id="edge6" class="edge">
<title>x&#45;other&#45;vec&#45;&gt;left</title>
<path fill="none" stroke="#ff0000" stroke-width="1.6935" d="M699.2051,-378.6789C761.1508,-372.6636 904.7845,-348.9966 965.9232,-257.262 984.3654,-229.5905 976.7757,-190.0879 968.1637,-163.7051"/>
<polygon fill="#ff0000" stroke="#ff0000" stroke-width="1.6935" points="971.354,-162.2262 964.7386,-153.9506 964.7493,-164.5454 971.354,-162.2262"/>
</g>
<!-- x&#45;other&#45;vec&#45;&gt;forward -->
<g id="edge22" class="edge">
<title>x&#45;other&#45;vec&#45;&gt;forward</title>
<path fill="none" stroke="#ff0000" stroke-width="1.0321" stroke-dasharray="1,5" d="M640.9015,-379.3583C532.9967,-374.2769 158.5957,-355.3829 108.9232,-335.6884 57.0649,-315.1273 35.0847,-307.5438 10.9232,-257.262 -24.5032,-183.5375 35.0449,-140.4636 105.9232,-99.6396 156.8926,-70.2826 327.2612,-46.5068 407.0423,-36.6862"/>
<polygon fill="#ff0000" stroke="#ff0000" stroke-width="1.0321" points="407.717,-40.1301 417.2215,-35.4486 406.8721,-33.1812 407.717,-40.1301"/>
</g>
<!-- x&#45;other&#45;vec&#45;&gt;backward -->
<g id="edge2" class="edge">
<title>x&#45;other&#45;vec&#45;&gt;backward</title>
<path fill="none" stroke="#ff0000" stroke-width=".1273" stroke-dasharray="1,5" d="M670.7285,-371.5564C672.6957,-344.9465 675.8412,-265.6965 649.9232,-207.7645 643.1406,-192.6042 631.9964,-178.3667 620.8924,-166.6156"/>
<polygon fill="#ff0000" stroke="#ff0000" stroke-width=".1273" points="623.1609,-163.9312 613.6476,-159.2677 618.1763,-168.8459 623.1609,-163.9312"/>
</g>
<!-- x&#45;other&#45;vec&#45;&gt;153 -->
<g id="edge33" class="edge">
<title>x&#45;other&#45;vec&#45;&gt;153</title>
<path fill="none" stroke="#ff0000" stroke-width=".1143" stroke-dasharray="1,5" d="M676.7364,-371.4817C682.7715,-363.3266 691.8724,-351.0286 700.0781,-339.9403"/>
<polygon fill="#ff0000" stroke="#ff0000" stroke-width=".1143" points="702.9777,-341.9058 706.113,-331.7854 697.3509,-337.7417 702.9777,-341.9058"/>
</g>
<!-- y&#45;other&#45;vec -->
<g id="node10" class="node">
<title>y&#45;other&#45;vec</title>
<polygon fill="#d3d3d3" stroke="#000000" points="423.9232,-241.5132 365.9232,-241.5132 365.9232,-223.5132 423.9232,-223.5132 423.9232,-241.5132"/>
<text text-anchor="middle" x="394.9232" y="-230.3132" font-family="Times,serif" font-size="9.00" fill="#000000">y&#45;other&#45;vec</text>
</g>
<!-- y&#45;other&#45;vec&#45;&gt;none -->
<g id="edge7" class="edge">
<title>y&#45;other&#45;vec&#45;&gt;none</title>
<path fill="none" stroke="#ff0000" stroke-width=".6298" d="M380.9997,-223.4055C356.9921,-207.7014 307.3413,-175.2233 275.6609,-154.5002"/>
<polygon fill="#ff0000" stroke="#ff0000" stroke-width=".6298" points="277.5227,-151.5359 267.2382,-148.9907 273.6908,-157.3939 277.5227,-151.5359"/>
</g>
<!-- y&#45;other&#45;vec&#45;&gt;right -->
<g id="edge15" class="edge">
<title>y&#45;other&#45;vec&#45;&gt;right</title>
<path fill="none" stroke="#ff0000" stroke-width=".596" stroke-dasharray="1,5" d="M392.7178,-223.2306C389.7442,-210.7143 384.2943,-187.7745 379.7197,-168.519"/>
<polygon fill="#ff0000" stroke="#ff0000" stroke-width=".596" points="383.0742,-167.4962 377.3574,-158.576 376.2637,-169.1142 383.0742,-167.4962"/>
</g>
<!-- y&#45;other&#45;vec&#45;&gt;forward -->
<g id="edge24" class="edge">
<title>y&#45;other&#45;vec&#45;&gt;forward</title>
<path fill="none" stroke="#00ff00" stroke-width=".3073" stroke-dasharray="1,5" d="M397.3837,-223.3684C404.4339,-197.1663 425.0289,-120.624 437.9497,-72.6031"/>
<polygon fill="#00ff00" stroke="#00ff00" stroke-width=".3073" points="441.3642,-73.3832 440.5828,-62.8172 434.6046,-71.5643 441.3642,-73.3832"/>
</g>
<!-- 1061 -->
<g id="node19" class="node">
<title>1061</title>
<ellipse fill="#ffffff" stroke="#000000" cx="475.9232" cy="-135.7021" rx="25" ry="25"/>
<text text-anchor="middle" x="475.9232" y="-133.5021" font-family="Times,serif" font-size="9.00" fill="#000000">1061</text>
</g>
<!-- y&#45;other&#45;vec&#45;&gt;1061 -->
<g id="edge35" class="edge">
<title>y&#45;other&#45;vec&#45;&gt;1061</title>
<path fill="none" stroke="#ff0000" stroke-width=".2999" d="M402.6898,-223.2306C414.2954,-209.3595 436.6122,-182.6865 453.5738,-162.414"/>
<polygon fill="#ff0000" stroke="#ff0000" stroke-width=".2999" points="456.2751,-164.6397 460.0078,-154.7241 450.9064,-160.1478 456.2751,-164.6397"/>
</g>
<!-- x&#45;other&#45;vel -->
<g id="node11" class="node">
<title>x&#45;other&#45;vel</title>
<polygon fill="#d3d3d3" stroke="#000000" points="956.9232,-241.5132 900.9232,-241.5132 900.9232,-223.5132 956.9232,-223.5132 956.9232,-241.5132"/>
<text text-anchor="middle" x="928.9232" y="-230.3132" font-family="Times,serif" font-size="9.00" fill="#000000">x&#45;other&#45;vel</text>
</g>
<!-- x&#45;other&#45;vel&#45;&gt;left -->
<g id="edge12" class="edge">
<title>x&#45;other&#45;vel&#45;&gt;left</title>
<path fill="none" stroke="#ff0000" stroke-width=".128" stroke-dasharray="1,5" d="M931.6079,-223.2306C935.4777,-209.8505 942.7927,-184.5588 948.5681,-164.5901"/>
<polygon fill="#ff0000" stroke="#ff0000" stroke-width=".128" points="952.0053,-165.3029 951.4215,-154.7241 945.2809,-163.358 952.0053,-165.3029"/>
</g>
<!-- x&#45;other&#45;vel&#45;&gt;forward -->
<g id="edge41" class="edge">
<title>x&#45;other&#45;vel&#45;&gt;forward</title>
<path fill="none" stroke="#00ff00" stroke-width=".5505" stroke-dasharray="1,5" d="M920.081,-223.418C896.0009,-199.212 826.2699,-132.8058 754.9232,-99.6396 666.2979,-58.4414 551.4056,-41.6688 490.7291,-35.3272"/>
<polygon fill="#00ff00" stroke="#00ff00" stroke-width=".5505" points="491.0575,-31.8427 480.7584,-34.3286 490.3599,-38.8078 491.0575,-31.8427"/>
</g>
<!-- y&#45;other&#45;vel -->
<g id="node12" class="node">
<title>y&#45;other&#45;vel</title>
<polygon fill="#d3d3d3" stroke="#000000" points="202.9232,-323.4752 146.9232,-323.4752 146.9232,-305.4752 202.9232,-305.4752 202.9232,-323.4752"/>
<text text-anchor="middle" x="174.9232" y="-312.2752" font-family="Times,serif" font-size="9.00" fill="#000000">y&#45;other&#45;vel</text>
</g>
<!-- y&#45;other&#45;vel&#45;&gt;none -->
<g id="edge8" class="edge">
<title>y&#45;other&#45;vel&#45;&gt;none</title>
<path fill="none" stroke="#ff0000" stroke-width=".6114" d="M167.2573,-305.1881C152.4955,-286.1046 123.0931,-241.4461 140.9232,-207.7645 156.3642,-178.5958 189.4918,-159.0375 214.6301,-147.7443"/>
<polygon fill="#ff0000" stroke="#ff0000" stroke-width=".6114" points="216.333,-150.8231 224.1585,-143.6808 213.587,-144.3842 216.333,-150.8231"/>
</g>
<!-- y&#45;other&#45;vel&#45;&gt;backward -->
<g id="edge4" class="edge">
<title>y&#45;other&#45;vel&#45;&gt;backward</title>
<path fill="none" stroke="#ff0000" stroke-width=".1992" d="M202.9546,-312.1039C286.8512,-304.7595 531.7936,-281.4264 557.9232,-257.262 578.3259,-238.3936 585.3099,-207.8986 587.2013,-182.1734"/>
<polygon fill="#ff0000" stroke="#ff0000" stroke-width=".1992" points="590.7133,-182.0164 587.7148,-171.8548 583.722,-181.6684 590.7133,-182.0164"/>
</g>
<!-- 1082 -->
<g id="node22" class="node">
<title>1082</title>
<ellipse fill="#ffffff" stroke="#000000" cx="174.9232" cy="-232.5132" rx="25" ry="25"/>
<text text-anchor="middle" x="174.9232" y="-230.3132" font-family="Times,serif" font-size="9.00" fill="#000000">1082</text>
</g>
<!-- y&#45;other&#45;vel&#45;&gt;1082 -->
<g id="edge37" class="edge">
<title>y&#45;other&#45;vel&#45;&gt;1082</title>
<path fill="none" stroke="#00ff00" stroke-width=".3758" d="M174.9232,-305.3907C174.9232,-296.2238 174.9232,-281.4847 174.9232,-267.6521"/>
<polygon fill="#00ff00" stroke="#00ff00" stroke-width=".3758" points="178.4232,-267.3582 174.9232,-257.3583 171.4232,-267.3583 178.4232,-267.3582"/>
</g>
<!-- 577&#45;&gt;forward -->
<g id="edge32" class="edge">
<title>577&#45;&gt;forward</title>
<path fill="none" stroke="#ff0000" stroke-width=".4371" stroke-dasharray="1,5" d="M708.4192,-122.26C698.5846,-114.7741 685.5846,-105.7585 672.9232,-99.6396 640.3769,-83.911 544.8668,-57.2851 489.6371,-42.5074"/>
<polygon fill="#ff0000" stroke="#ff0000" stroke-width=".4371" points="490.3815,-39.0837 479.8175,-39.8913 488.5794,-45.8478 490.3815,-39.0837"/>
</g>
<!-- 1061&#45;&gt;forward -->
<g id="edge36" class="edge">
<title>1061&#45;&gt;forward</title>
<path fill="none" stroke="#00ff00" stroke-width=".4802" d="M469.6609,-111.6083C466.6568,-100.0497 462.9737,-85.8791 459.5493,-72.7038"/>
<polygon fill="#00ff00" stroke="#00ff00" stroke-width=".4802" points="462.8997,-71.6803 456.9966,-62.8824 456.1247,-73.4413 462.8997,-71.6803"/>
</g>
<!-- 276&#45;&gt;left -->
<g id="edge28" class="edge">
<title>276&#45;&gt;left</title>
<path fill="none" stroke="#00ff00" stroke-width=".2038" stroke-dasharray="1,5" d="M877.1865,-216.9588C893.0657,-200.7769 918.0455,-175.3209 935.8112,-157.2165"/>
<polygon fill="#00ff00" stroke="#00ff00" stroke-width=".2038" points="938.43,-159.5449 942.9359,-149.956 933.4337,-154.6421 938.43,-159.5449"/>
</g>
<!-- 276&#45;&gt;577 -->
<g id="edge39" class="edge">
<title>276&#45;&gt;577</title>
<path fill="none" stroke="#00ff00" stroke-width=".1843" d="M845.3741,-218.9171C840.7524,-215.2259 835.6898,-211.2795 830.9232,-207.7645 804.3208,-188.1476 772.9038,-167.0349 751.2148,-152.7663"/>
<polygon fill="#00ff00" stroke="#00ff00" stroke-width=".1843" points="753.1247,-149.8333 742.8421,-147.2801 749.2882,-155.6883 753.1247,-149.8333"/>
</g>
<!-- 153&#45;&gt;none -->
<g id="edge26" class="edge">
<title>153&#45;&gt;none</title>
<path fill="none" stroke="#ff0000" stroke-width=".2365" stroke-dasharray="1,5" d="M697.7312,-313.4644C610.538,-309.0971 282.6236,-290.5488 251.9232,-257.262 230.4637,-233.9946 232.4145,-196.3135 237.7214,-169.0663"/>
<polygon fill="#ff0000" stroke="#ff0000" stroke-width=".2365" points="241.1649,-169.7026 239.8779,-159.1863 234.3259,-168.2099 241.1649,-169.7026"/>
</g>
<!-- 153&#45;&gt;276 -->
<g id="edge29" class="edge">
<title>153&#45;&gt;276</title>
<path fill="none" stroke="#00ff00" stroke-width=".2344" d="M738.6011,-305.8914C761.4979,-295.5743 800.1001,-277.1495 830.9232,-257.262 833.1004,-255.8572 835.3073,-254.3307 837.4881,-252.7487"/>
<polygon fill="#00ff00" stroke="#00ff00" stroke-width=".2344" points="839.8303,-255.3639 845.6517,-246.5116 835.5806,-249.8015 839.8303,-255.3639"/>
</g>
<!-- 1082&#45;&gt;none -->
<g id="edge38" class="edge">
<title>1082&#45;&gt;none</title>
<path fill="none" stroke="#ff0000" stroke-width=".7773" d="M189.8416,-212.4539C200.4068,-198.2479 214.7124,-179.0127 226.359,-163.3526"/>
<polygon fill="#ff0000" stroke="#ff0000" stroke-width=".7773" points="229.3559,-165.1879 232.5151,-155.0751 223.739,-161.0105 229.3559,-165.1879"/>
</g>
</g>
</svg>
