<?xml version="1.0" encoding="UTF-8" standalone="no"?>
<!DOCTYPE svg PUBLIC "-//W3C//DTD SVG 1.1//EN"
 "http://www.w3.org/Graphics/SVG/1.1/DTD/svg11.dtd">
<!-- Generated by graphviz version 2.40.1 (20161225.0304)
 -->
<!-- Title: %3 Pages: 1 -->
<svg width="791pt" height="134pt"
 viewBox="0.00 0.00 790.50 134.12" xmlns="http://www.w3.org/2000/svg" xmlns:xlink="http://www.w3.org/1999/xlink">
<g id="graph0" class="graph" transform="scale(1 1) rotate(0) translate(4 130.1249)">
<title>%3</title>
<polygon fill="#ffffff" stroke="transparent" points="-4,4 -4,-130.1249 786.5,-130.1249 786.5,4 -4,4"/>
<!-- x&#45;vel -->
<g id="node1" class="node">
<title>x&#45;vel</title>
<polygon fill="#d3d3d3" stroke="#000000" points="382.5,-126.1249 347.5,-126.1249 347.5,-108.1249 382.5,-108.1249 382.5,-126.1249"/>
<text text-anchor="middle" x="365" y="-114.9249" font-family="Times,serif" font-size="9.00" fill="#000000">x&#45;vel</text>
</g>
<!-- none -->
<g id="node13" class="node">
<title>none</title>
<ellipse fill="#add8e6" stroke="#000000" cx="366" cy="-36.0624" rx="24.0833" ry="24.0833"/>
<text text-anchor="middle" x="366" y="-33.8624" font-family="Times,serif" font-size="9.00" fill="#000000">none</text>
</g>
<!-- x&#45;vel&#45;&gt;none -->
<g id="edge2" class="edge">
<title>x&#45;vel&#45;&gt;none</title>
<path fill="none" stroke="#ff0000" stroke-width=".422" d="M365.1147,-107.826C365.2275,-98.6795 365.4068,-84.1487 365.5746,-70.5473"/>
<polygon fill="#ff0000" stroke="#ff0000" stroke-width=".422" points="369.0757,-70.4744 365.6994,-60.4319 362.0762,-70.388 369.0757,-70.4744"/>
</g>
<!-- left -->
<g id="node15" class="node">
<title>left</title>
<ellipse fill="#add8e6" stroke="#000000" cx="466" cy="-36.0624" rx="19.6" ry="19.6"/>
<text text-anchor="middle" x="466" y="-33.8624" font-family="Times,serif" font-size="9.00" fill="#000000">left</text>
</g>
<!-- x&#45;vel&#45;&gt;left -->
<g id="edge5" class="edge">
<title>x&#45;vel&#45;&gt;left</title>
<path fill="none" stroke="#ff0000" stroke-width=".1948" d="M376.586,-107.826C392.5253,-95.0332 421.588,-71.7075 442.2509,-55.1235"/>
<polygon fill="#ff0000" stroke="#ff0000" stroke-width=".1948" points="444.6488,-57.6868 450.2569,-48.6979 440.2673,-52.2276 444.6488,-57.6868"/>
</g>
<!-- forward -->
<g id="node16" class="node">
<title>forward</title>
<ellipse fill="#add8e6" stroke="#000000" cx="175" cy="-36.0624" rx="31.6406" ry="31.6406"/>
<text text-anchor="middle" x="175" y="-33.8624" font-family="Times,serif" font-size="9.00" fill="#000000">forward</text>
</g>
<!-- x&#45;vel&#45;&gt;forward -->
<g id="edge14" class="edge">
<title>x&#45;vel&#45;&gt;forward</title>
<path fill="none" stroke="#ff0000" stroke-width=".2124" d="M347.3803,-111.0179C344.5775,-110.0487 341.7097,-109.0584 339,-108.1249 292.357,-92.0561 278.6456,-93.1141 234,-72.1249 226.1133,-68.4171 217.9551,-63.9123 210.3137,-59.3607"/>
<polygon fill="#ff0000" stroke="#ff0000" stroke-width=".2124" points="211.9836,-56.2792 201.6279,-54.0409 208.3275,-62.2485 211.9836,-56.2792"/>
</g>
<!-- backward -->
<g id="node17" class="node">
<title>backward</title>
<ellipse fill="#add8e6" stroke="#000000" cx="279" cy="-36.0624" rx="36.125" ry="36.125"/>
<text text-anchor="middle" x="279" y="-33.8624" font-family="Times,serif" font-size="9.00" fill="#000000">backward</text>
</g>
<!-- x&#45;vel&#45;&gt;backward -->
<g id="edge27" class="edge">
<title>x&#45;vel&#45;&gt;backward</title>
<path fill="none" stroke="#ff0000" stroke-width=".3645" d="M355.1347,-107.826C344.8217,-98.1051 328.0564,-82.3024 312.88,-67.9973"/>
<polygon fill="#ff0000" stroke="#ff0000" stroke-width=".3645" points="315.2702,-65.4405 305.5926,-61.1283 310.4688,-70.5343 315.2702,-65.4405"/>
</g>
<!-- y&#45;vel -->
<g id="node2" class="node">
<title>y&#45;vel</title>
<polygon fill="#d3d3d3" stroke="#000000" points="640.5,-126.1249 605.5,-126.1249 605.5,-108.1249 640.5,-108.1249 640.5,-126.1249"/>
<text text-anchor="middle" x="623" y="-114.9249" font-family="Times,serif" font-size="9.00" fill="#000000">y&#45;vel</text>
</g>
<!-- right -->
<g id="node14" class="node">
<title>right</title>
<ellipse fill="#add8e6" stroke="#000000" cx="569" cy="-36.0624" rx="23.1702" ry="23.1702"/>
<text text-anchor="middle" x="569" y="-33.8624" font-family="Times,serif" font-size="9.00" fill="#000000">right</text>
</g>
<!-- y&#45;vel&#45;&gt;right -->
<g id="edge15" class="edge">
<title>y&#45;vel&#45;&gt;right</title>
<path fill="none" stroke="#ff0000" stroke-width=".3987" d="M616.8055,-107.826C609.7654,-97.2577 597.9369,-79.5013 587.8077,-64.2957"/>
<polygon fill="#ff0000" stroke="#ff0000" stroke-width=".3987" points="590.5461,-62.0933 582.0891,-55.7113 584.7203,-65.9742 590.5461,-62.0933"/>
</g>
<!-- y&#45;vel&#45;&gt;left -->
<g id="edge23" class="edge">
<title>y&#45;vel&#45;&gt;left</title>
<path fill="none" stroke="#ff0000" stroke-width=".3495" d="M605.2953,-107.9836C577.9691,-93.8745 525.318,-66.6896 493.1543,-50.0828"/>
<polygon fill="#ff0000" stroke="#ff0000" stroke-width=".3495" points="494.3722,-46.7726 483.8809,-45.2947 491.1607,-52.9925 494.3722,-46.7726"/>
</g>
<!-- y&#45;vel&#45;&gt;backward -->
<g id="edge17" class="edge">
<title>y&#45;vel&#45;&gt;backward</title>
<path fill="none" stroke="#ff0000" stroke-width=".1014" d="M605.4159,-110.742C602.3072,-109.7637 599.0798,-108.8424 596,-108.1249 481.0983,-81.3555 443.3152,-113.9529 333,-72.1249 327.3276,-69.9741 321.6539,-67.1341 316.23,-63.9896"/>
<polygon fill="#ff0000" stroke="#ff0000" stroke-width=".1014" points="317.7208,-60.7947 307.3823,-58.4781 314.0197,-66.7363 317.7208,-60.7947"/>
</g>
<!-- x&#45;pos -->
<g id="node3" class="node">
<title>x&#45;pos</title>
<polygon fill="#d3d3d3" stroke="#000000" points="587,-126.1249 551,-126.1249 551,-108.1249 587,-108.1249 587,-126.1249"/>
<text text-anchor="middle" x="569" y="-114.9249" font-family="Times,serif" font-size="9.00" fill="#000000">x&#45;pos</text>
</g>
<!-- x&#45;pos&#45;&gt;right -->
<g id="edge7" class="edge">
<title>x&#45;pos&#45;&gt;right</title>
<path fill="none" stroke="#ff0000" stroke-width=".1326" d="M569,-107.826C569,-98.5469 569,-83.7264 569,-69.9566"/>
<polygon fill="#ff0000" stroke="#ff0000" stroke-width=".1326" points="572.5001,-69.7406 569,-59.7406 565.5001,-69.7406 572.5001,-69.7406"/>
</g>
<!-- x&#45;pos&#45;&gt;backward -->
<g id="edge22" class="edge">
<title>x&#45;pos&#45;&gt;backward</title>
<path fill="none" stroke="#ff0000" stroke-width=".2194" d="M550.8105,-110.6467C547.8859,-109.7255 544.8753,-108.8473 542,-108.1249 450.5846,-85.156 420.5438,-107.0594 333,-72.1249 327.3656,-69.8765 321.7139,-66.9798 316.3011,-63.8069"/>
<polygon fill="#ff0000" stroke="#ff0000" stroke-width=".2194" points="317.7955,-60.6131 307.4626,-58.2718 314.0802,-66.5457 317.7955,-60.6131"/>
</g>
<!-- y&#45;pos -->
<g id="node4" class="node">
<title>y&#45;pos</title>
<polygon fill="#d3d3d3" stroke="#000000" points="182,-126.1249 146,-126.1249 146,-108.1249 182,-108.1249 182,-126.1249"/>
<text text-anchor="middle" x="164" y="-114.9249" font-family="Times,serif" font-size="9.00" fill="#000000">y&#45;pos</text>
</g>
<!-- y&#45;pos&#45;&gt;none -->
<g id="edge9" class="edge">
<title>y&#45;pos&#45;&gt;none</title>
<path fill="none" stroke="#00ff00" stroke-width=".1594" d="M182.2546,-110.8823C185.1708,-109.9306 188.1618,-108.9813 191,-108.1249 249.6276,-90.435 269.8788,-100.7782 324,-72.1249 330.1633,-68.8619 336.2071,-64.5513 341.7038,-60.0492"/>
<polygon fill="#00ff00" stroke="#00ff00" stroke-width=".1594" points="344.0764,-62.6242 349.3161,-53.4157 339.4775,-57.3467 344.0764,-62.6242"/>
</g>
<!-- y&#45;pos&#45;&gt;forward -->
<g id="edge18" class="edge">
<title>y&#45;pos&#45;&gt;forward</title>
<path fill="none" stroke="#00ff00" stroke-width=".1254" d="M165.2618,-107.826C166.2729,-100.3754 167.7687,-89.3523 169.2862,-78.1689"/>
<polygon fill="#00ff00" stroke="#00ff00" stroke-width=".1254" points="172.7962,-78.3312 170.6727,-67.9514 165.8598,-77.3899 172.7962,-78.3312"/>
</g>
<!-- y&#45;pos&#45;&gt;backward -->
<g id="edge13" class="edge">
<title>y&#45;pos&#45;&gt;backward</title>
<path fill="none" stroke="#00ff00" stroke-width=".2251" d="M177.192,-107.826C192.677,-96.9107 219.0402,-78.3275 241.0592,-62.8065"/>
<polygon fill="#00ff00" stroke="#00ff00" stroke-width=".2251" points="243.0968,-65.6525 249.2538,-57.0303 239.0638,-59.931 243.0968,-65.6525"/>
</g>
<!-- x&#45;lm1&#45;vec -->
<g id="node5" class="node">
<title>x&#45;lm1&#45;vec</title>
<polygon fill="#d3d3d3" stroke="#000000" points="711.5,-126.1249 658.5,-126.1249 658.5,-108.1249 711.5,-108.1249 711.5,-126.1249"/>
<text text-anchor="middle" x="685" y="-114.9249" font-family="Times,serif" font-size="9.00" fill="#000000">x&#45;lm1&#45;vec</text>
</g>
<!-- x&#45;lm1&#45;vec&#45;&gt;none -->
<g id="edge25" class="edge">
<title>x&#45;lm1&#45;vec&#45;&gt;none</title>
<path fill="none" stroke="#00ff00" stroke-width=".4407" d="M658.3017,-110.0126C655.5061,-109.3419 652.7002,-108.6992 650,-108.1249 556.0912,-88.152 528.1746,-102.2075 437,-72.1249 422.876,-67.4647 408.0846,-60.3529 395.6809,-53.6729"/>
<polygon fill="#00ff00" stroke="#00ff00" stroke-width=".4407" points="397.1541,-50.4877 386.7118,-48.6966 393.758,-56.6087 397.1541,-50.4877"/>
</g>
<!-- x&#45;lm1&#45;vec&#45;&gt;right -->
<g id="edge16" class="edge">
<title>x&#45;lm1&#45;vec&#45;&gt;right</title>
<path fill="none" stroke="#ff0000" stroke-width=".1425" d="M671.6933,-107.826C653.4608,-95.0848 620.2772,-71.8957 596.5642,-55.3247"/>
<polygon fill="#ff0000" stroke="#ff0000" stroke-width=".1425" points="598.5033,-52.4099 588.3016,-49.5506 594.4936,-58.1477 598.5033,-52.4099"/>
</g>
<!-- y&#45;lm1&#45;vec -->
<g id="node6" class="node">
<title>y&#45;lm1&#45;vec</title>
<polygon fill="#d3d3d3" stroke="#000000" points="329.5,-126.1249 276.5,-126.1249 276.5,-108.1249 329.5,-108.1249 329.5,-126.1249"/>
<text text-anchor="middle" x="303" y="-114.9249" font-family="Times,serif" font-size="9.00" fill="#000000">y&#45;lm1&#45;vec</text>
</g>
<!-- y&#45;lm1&#45;vec&#45;&gt;none -->
<g id="edge11" class="edge">
<title>y&#45;lm1&#45;vec&#45;&gt;none</title>
<path fill="none" stroke="#00ff00" stroke-width=".1141" d="M310.2269,-107.826C318.6262,-97.0186 332.8676,-78.6941 344.8568,-63.2676"/>
<polygon fill="#00ff00" stroke="#00ff00" stroke-width=".1141" points="347.8613,-65.1052 351.2343,-55.0616 342.3342,-60.8096 347.8613,-65.1052"/>
</g>
<!-- y&#45;lm1&#45;vec&#45;&gt;backward -->
<g id="edge8" class="edge">
<title>y&#45;lm1&#45;vec&#45;&gt;backward</title>
<path fill="none" stroke="#00ff00" stroke-width=".3177" stroke-dasharray="1,5" d="M300.2469,-107.826C298.2128,-100.9557 295.2794,-91.0476 292.2387,-80.7774"/>
<polygon fill="#00ff00" stroke="#00ff00" stroke-width=".3177" points="295.5113,-79.5019 289.3164,-70.907 288.7993,-81.4892 295.5113,-79.5019"/>
</g>
<!-- x&#45;lm2&#45;vec -->
<g id="node7" class="node">
<title>x&#45;lm2&#45;vec</title>
<polygon fill="#d3d3d3" stroke="#000000" points="127.5,-126.1249 74.5,-126.1249 74.5,-108.1249 127.5,-108.1249 127.5,-126.1249"/>
<text text-anchor="middle" x="101" y="-114.9249" font-family="Times,serif" font-size="9.00" fill="#000000">x&#45;lm2&#45;vec</text>
</g>
<!-- x&#45;lm2&#45;vec&#45;&gt;forward -->
<g id="edge24" class="edge">
<title>x&#45;lm2&#45;vec&#45;&gt;forward</title>
<path fill="none" stroke="#00ff00" stroke-width=".25" d="M109.4887,-107.826C118.5407,-97.9101 133.3694,-81.6662 146.6314,-67.1386"/>
<polygon fill="#00ff00" stroke="#00ff00" stroke-width=".25" points="149.2276,-69.4858 153.3848,-59.7406 144.0578,-64.7664 149.2276,-69.4858"/>
</g>
<!-- x&#45;lm2&#45;vec&#45;&gt;backward -->
<g id="edge19" class="edge">
<title>x&#45;lm2&#45;vec&#45;&gt;backward</title>
<path fill="none" stroke="#ff0000" stroke-width=".1083" stroke-dasharray="1,5" d="M127.4997,-108.0108C151.1143,-99.5951 186.4127,-86.2875 216,-72.1249 223.6801,-68.4486 231.6945,-64.201 239.3318,-59.9396"/>
<polygon fill="#ff0000" stroke="#ff0000" stroke-width=".1083" points="241.1186,-62.9499 248.0814,-54.9643 237.6584,-56.8649 241.1186,-62.9499"/>
</g>
<!-- y&#45;lm2&#45;vec -->
<g id="node8" class="node">
<title>y&#45;lm2&#45;vec</title>
<polygon fill="#d3d3d3" stroke="#000000" points="782.5,-126.1249 729.5,-126.1249 729.5,-108.1249 782.5,-108.1249 782.5,-126.1249"/>
<text text-anchor="middle" x="756" y="-114.9249" font-family="Times,serif" font-size="9.00" fill="#000000">y&#45;lm2&#45;vec</text>
</g>
<!-- x&#45;other&#45;vec -->
<g id="node9" class="node">
<title>x&#45;other&#45;vec</title>
<polygon fill="#d3d3d3" stroke="#000000" points="533,-126.1249 475,-126.1249 475,-108.1249 533,-108.1249 533,-126.1249"/>
<text text-anchor="middle" x="504" y="-114.9249" font-family="Times,serif" font-size="9.00" fill="#000000">x&#45;other&#45;vec</text>
</g>
<!-- x&#45;other&#45;vec&#45;&gt;none -->
<g id="edge26" class="edge">
<title>x&#45;other&#45;vec&#45;&gt;none</title>
<path fill="none" stroke="#00ff00" stroke-width=".2645" d="M488.4379,-107.9836C466.0487,-94.832 424.3183,-70.3192 395.8602,-53.6026"/>
<polygon fill="#00ff00" stroke="#00ff00" stroke-width=".2645" points="397.5235,-50.5205 387.1283,-48.4734 393.978,-56.5562 397.5235,-50.5205"/>
</g>
<!-- x&#45;other&#45;vec&#45;&gt;left -->
<g id="edge21" class="edge">
<title>x&#45;other&#45;vec&#45;&gt;left</title>
<path fill="none" stroke="#ff0000" stroke-width=".5729" d="M499.6409,-107.826C494.5716,-97.0121 485.9743,-78.672 478.74,-63.2397"/>
<polygon fill="#ff0000" stroke="#ff0000" stroke-width=".5729" points="481.8692,-61.6689 474.4556,-54.1 475.531,-64.6401 481.8692,-61.6689"/>
</g>
<!-- y&#45;other&#45;vec -->
<g id="node10" class="node">
<title>y&#45;other&#45;vec</title>
<polygon fill="#d3d3d3" stroke="#000000" points="258,-126.1249 200,-126.1249 200,-108.1249 258,-108.1249 258,-126.1249"/>
<text text-anchor="middle" x="229" y="-114.9249" font-family="Times,serif" font-size="9.00" fill="#000000">y&#45;other&#45;vec</text>
</g>
<!-- y&#45;other&#45;vec&#45;&gt;right -->
<g id="edge28" class="edge">
<title>y&#45;other&#45;vec&#45;&gt;right</title>
<path fill="none" stroke="#00ff00" stroke-width=".5008" stroke-dasharray="1,5" d="M258.3407,-110.1238C261.593,-109.4164 264.8623,-108.735 268,-108.1249 368.2719,-88.6284 397.5762,-102.8359 495,-72.1249 510.2458,-67.3189 526.2958,-59.8283 539.5367,-52.9165"/>
<polygon fill="#00ff00" stroke="#00ff00" stroke-width=".5008" points="541.4764,-55.8476 548.6301,-48.0325 538.1643,-49.6808 541.4764,-55.8476"/>
</g>
<!-- y&#45;other&#45;vec&#45;&gt;forward -->
<g id="edge20" class="edge">
<title>y&#45;other&#45;vec&#45;&gt;forward</title>
<path fill="none" stroke="#00ff00" stroke-width=".8713" d="M222.8055,-107.826C216.8515,-98.8881 207.4725,-84.8087 198.593,-71.4792"/>
<polygon fill="#00ff00" stroke="#00ff00" stroke-width=".8713" points="201.328,-69.2718 192.8711,-62.8897 195.5023,-73.1526 201.328,-69.2718"/>
</g>
<!-- y&#45;other&#45;vec&#45;&gt;backward -->
<g id="edge4" class="edge">
<title>y&#45;other&#45;vec&#45;&gt;backward</title>
<path fill="none" stroke="#ff0000" stroke-width=".8326" d="M234.7356,-107.826C239.6895,-99.7945 247.204,-87.6116 254.6427,-75.5517"/>
<polygon fill="#ff0000" stroke="#ff0000" stroke-width=".8326" points="257.7371,-77.2018 260.008,-66.8532 251.7793,-73.5269 257.7371,-77.2018"/>
</g>
<!-- x&#45;other&#45;vel -->
<g id="node11" class="node">
<title>x&#45;other&#45;vel</title>
<polygon fill="#d3d3d3" stroke="#000000" points="457,-126.1249 401,-126.1249 401,-108.1249 457,-108.1249 457,-126.1249"/>
<text text-anchor="middle" x="429" y="-114.9249" font-family="Times,serif" font-size="9.00" fill="#000000">x&#45;other&#45;vel</text>
</g>
<!-- x&#45;other&#45;vel&#45;&gt;none -->
<g id="edge6" class="edge">
<title>x&#45;other&#45;vel&#45;&gt;none</title>
<path fill="none" stroke="#ff0000" stroke-width=".477" stroke-dasharray="1,5" d="M421.7731,-107.826C413.3738,-97.0186 399.1324,-78.6941 387.1432,-63.2676"/>
<polygon fill="#ff0000" stroke="#ff0000" stroke-width=".477" points="389.6658,-60.8096 380.7657,-55.0616 384.1387,-65.1052 389.6658,-60.8096"/>
</g>
<!-- x&#45;other&#45;vel&#45;&gt;right -->
<g id="edge3" class="edge">
<title>x&#45;other&#45;vel&#45;&gt;right</title>
<path fill="none" stroke="#00ff00" stroke-width=".2551" d="M444.7876,-107.9836C467.7594,-94.6825 510.8012,-69.7606 539.686,-53.0358"/>
<polygon fill="#00ff00" stroke="#00ff00" stroke-width=".2551" points="541.6231,-55.9586 548.5234,-47.9188 538.1155,-49.9007 541.6231,-55.9586"/>
</g>
<!-- x&#45;other&#45;vel&#45;&gt;left -->
<g id="edge1" class="edge">
<title>x&#45;other&#45;vel&#45;&gt;left</title>
<path fill="none" stroke="#ff0000" stroke-width=".1959" stroke-dasharray="1,5" d="M433.2444,-107.826C438.1802,-97.0121 446.5514,-78.672 453.5952,-63.2397"/>
<polygon fill="#ff0000" stroke="#ff0000" stroke-width=".1959" points="456.7986,-64.6505 457.767,-54.1 450.4306,-61.7439 456.7986,-64.6505"/>
</g>
<!-- x&#45;other&#45;vel&#45;&gt;forward -->
<g id="edge12" class="edge">
<title>x&#45;other&#45;vel&#45;&gt;forward</title>
<path fill="none" stroke="#ff0000" stroke-width=".1649" d="M400.7284,-110.2031C397.7824,-109.4953 394.8313,-108.7918 392,-108.1249 321.8963,-91.6132 300.7138,-99.2621 234,-72.1249 225.8475,-68.8087 217.5257,-64.4343 209.8002,-59.8798"/>
<polygon fill="#ff0000" stroke="#ff0000" stroke-width=".1649" points="211.4032,-56.7569 201.0508,-54.5031 207.7382,-62.7208 211.4032,-56.7569"/>
</g>
<!-- y&#45;other&#45;vel -->
<g id="node12" class="node">
<title>y&#45;other&#45;vel</title>
<polygon fill="#d3d3d3" stroke="#000000" points="56,-126.1249 0,-126.1249 0,-108.1249 56,-108.1249 56,-126.1249"/>
<text text-anchor="middle" x="28" y="-114.9249" font-family="Times,serif" font-size="9.00" fill="#000000">y&#45;other&#45;vel</text>
</g>
<!-- y&#45;other&#45;vel&#45;&gt;forward -->
<g id="edge29" class="edge">
<title>y&#45;other&#45;vel&#45;&gt;forward</title>
<path fill="none" stroke="#ff0000" stroke-width=".2202" d="M44.577,-107.9836C67.1006,-95.5631 108,-73.0093 138.012,-56.4593"/>
<polygon fill="#ff0000" stroke="#ff0000" stroke-width=".2202" points="139.8774,-59.4276 146.9441,-51.5337 136.4972,-53.2978 139.8774,-59.4276"/>
</g>
<!-- y&#45;other&#45;vel&#45;&gt;backward -->
<g id="edge10" class="edge">
<title>y&#45;other&#45;vel&#45;&gt;backward</title>
<path fill="none" stroke="#ff0000" stroke-width=".284" d="M56.2785,-110.2323C59.2232,-109.5187 62.172,-108.8059 65,-108.1249 132.0744,-91.9717 151.8522,-97.521 216,-72.1249 223.9168,-68.9906 232.0429,-64.9989 239.7165,-60.8206"/>
<polygon fill="#ff0000" stroke="#ff0000" stroke-width=".284" points="241.4927,-63.8371 248.477,-55.8702 238.0489,-57.7428 241.4927,-63.8371"/>
</g>
</g>
</svg>
