<?xml version="1.0" encoding="UTF-8" standalone="no"?>
<!DOCTYPE svg PUBLIC "-//W3C//DTD SVG 1.1//EN"
 "http://www.w3.org/Graphics/SVG/1.1/DTD/svg11.dtd">
<!-- Generated by graphviz version 2.40.1 (20161225.0304)
 -->
<!-- Title: %3 Pages: 1 -->
<svg width="792pt" height="295pt"
 viewBox="0.00 0.00 792.38 295.22" xmlns="http://www.w3.org/2000/svg" xmlns:xlink="http://www.w3.org/1999/xlink">
<g id="graph0" class="graph" transform="scale(1 1) rotate(0) translate(4 291.2203)">
<title>%3</title>
<polygon fill="#ffffff" stroke="transparent" points="-4,4 -4,-291.2203 788.378,-291.2203 788.378,4 -4,4"/>
<!-- x&#45;vel -->
<g id="node1" class="node">
<title>x&#45;vel</title>
<polygon fill="#d3d3d3" stroke="#000000" points="59.6436,-287.2203 24.6436,-287.2203 24.6436,-269.2203 59.6436,-269.2203 59.6436,-287.2203"/>
<text text-anchor="middle" x="42.1436" y="-276.0203" font-family="Times,serif" font-size="9.00" fill="#000000">x&#45;vel</text>
</g>
<!-- y&#45;vel -->
<g id="node2" class="node">
<title>y&#45;vel</title>
<polygon fill="#d3d3d3" stroke="#000000" points="112.6436,-287.2203 77.6436,-287.2203 77.6436,-269.2203 112.6436,-269.2203 112.6436,-287.2203"/>
<text text-anchor="middle" x="95.1436" y="-276.0203" font-family="Times,serif" font-size="9.00" fill="#000000">y&#45;vel</text>
</g>
<!-- none -->
<g id="node13" class="node">
<title>none</title>
<ellipse fill="#add8e6" stroke="#000000" cx="218.1436" cy="-111.6604" rx="24.0833" ry="24.0833"/>
<text text-anchor="middle" x="218.1436" y="-109.4604" font-family="Times,serif" font-size="9.00" fill="#000000">none</text>
</g>
<!-- y&#45;vel&#45;&gt;none -->
<g id="edge29" class="edge">
<title>y&#45;vel&#45;&gt;none</title>
<path fill="none" stroke="#ff0000" stroke-width=".1935" d="M94.9362,-269.0513C94.9638,-251.1332 97.1944,-210.8555 115.1436,-183.7229 132.6054,-157.327 163.3365,-137.7117 186.6998,-125.6653"/>
<polygon fill="#ff0000" stroke="#ff0000" stroke-width=".1935" points="188.4738,-128.6925 195.883,-121.1193 185.3682,-122.4191 188.4738,-128.6925"/>
</g>
<!-- left -->
<g id="node15" class="node">
<title>left</title>
<ellipse fill="#add8e6" stroke="#000000" cx="618.1436" cy="-19.799" rx="19.6" ry="19.6"/>
<text text-anchor="middle" x="618.1436" y="-17.599" font-family="Times,serif" font-size="9.00" fill="#000000">left</text>
</g>
<!-- y&#45;vel&#45;&gt;left -->
<g id="edge28" class="edge">
<title>y&#45;vel&#45;&gt;left</title>
<path fill="none" stroke="#ff0000" stroke-width=".3357" d="M112.683,-271.6268C115.7967,-270.6719 119.0373,-269.813 122.1436,-269.2203 193.1947,-255.6634 722.4308,-285.7626 772.1436,-233.2203 796.6309,-207.3392 778.3139,-106.9541 753.1436,-75.598 727.1846,-43.2595 679.3101,-29.4675 648.1071,-23.7229"/>
<polygon fill="#ff0000" stroke="#ff0000" stroke-width=".3357" points="648.6607,-20.2669 638.2201,-22.0681 647.5051,-27.1709 648.6607,-20.2669"/>
</g>
<!-- forward -->
<g id="node16" class="node">
<title>forward</title>
<ellipse fill="#add8e6" stroke="#000000" cx="523.1436" cy="-111.6604" rx="31.6406" ry="31.6406"/>
<text text-anchor="middle" x="523.1436" y="-109.4604" font-family="Times,serif" font-size="9.00" fill="#000000">forward</text>
</g>
<!-- y&#45;vel&#45;&gt;forward -->
<g id="edge22" class="edge">
<title>y&#45;vel&#45;&gt;forward</title>
<path fill="none" stroke="#00ff00" stroke-width=".1407" stroke-dasharray="1,5" d="M112.7023,-271.7228C115.8138,-270.7573 119.0487,-269.87 122.1436,-269.2203 207.3224,-251.3411 450.6559,-294.8189 512.1436,-233.2203 532.5623,-212.7648 534.3457,-179.5995 531.5551,-153.0744"/>
<polygon fill="#00ff00" stroke="#00ff00" stroke-width=".1407" points="534.9936,-152.3736 530.2349,-142.9076 528.0518,-153.2751 534.9936,-152.3736"/>
</g>
<!-- 1064 -->
<g id="node18" class="node">
<title>1064</title>
<ellipse fill="#ffffff" stroke="#000000" cx="42.1436" cy="-208.4716" rx="25" ry="25"/>
<text text-anchor="middle" x="42.1436" y="-206.2716" font-family="Times,serif" font-size="9.00" fill="#000000">1064</text>
</g>
<!-- y&#45;vel&#45;&gt;1064 -->
<g id="edge35" class="edge">
<title>y&#45;vel&#45;&gt;1064</title>
<path fill="none" stroke="#00ff00" stroke-width=".3" d="M88.2147,-269.1019C81.9378,-260.8414 72.351,-248.225 63.5448,-236.6359"/>
<polygon fill="#00ff00" stroke="#00ff00" stroke-width=".3" points="66.166,-234.3004 57.329,-228.4559 60.5925,-238.5356 66.166,-234.3004"/>
</g>
<!-- 985 -->
<g id="node20" class="node">
<title>985</title>
<ellipse fill="#ffffff" stroke="#000000" cx="42.1436" cy="-111.6604" rx="21.4286" ry="21.4286"/>
<text text-anchor="middle" x="42.1436" y="-109.4604" font-family="Times,serif" font-size="9.00" fill="#000000">985</text>
</g>
<!-- y&#45;vel&#45;&gt;985 -->
<g id="edge33" class="edge">
<title>y&#45;vel&#45;&gt;985</title>
<path fill="none" stroke="#ff0000" stroke-width=".1787" stroke-dasharray="1,5" d="M77.6372,-271.6819C54.5622,-262.6666 15.9677,-246.0761 8.1436,-233.2203 -10.099,-203.2461 7.7802,-163.2118 23.7317,-137.4284"/>
<polygon fill="#ff0000" stroke="#ff0000" stroke-width=".1787" points="26.7296,-139.238 29.2311,-128.9427 20.8554,-135.431 26.7296,-139.238"/>
</g>
<!-- x&#45;pos -->
<g id="node3" class="node">
<title>x&#45;pos</title>
<polygon fill="#d3d3d3" stroke="#000000" points="431.1436,-217.4716 395.1436,-217.4716 395.1436,-199.4716 431.1436,-199.4716 431.1436,-217.4716"/>
<text text-anchor="middle" x="413.1436" y="-206.2716" font-family="Times,serif" font-size="9.00" fill="#000000">x&#45;pos</text>
</g>
<!-- right -->
<g id="node14" class="node">
<title>right</title>
<ellipse fill="#add8e6" stroke="#000000" cx="442.1436" cy="-111.6604" rx="23.1702" ry="23.1702"/>
<text text-anchor="middle" x="442.1436" y="-109.4604" font-family="Times,serif" font-size="9.00" fill="#000000">right</text>
</g>
<!-- x&#45;pos&#45;&gt;right -->
<g id="edge21" class="edge">
<title>x&#45;pos&#45;&gt;right</title>
<path fill="none" stroke="#ff0000" stroke-width=".4594" stroke-dasharray="1,5" d="M415.9242,-199.1889C419.7149,-186.5343 426.6974,-163.2247 432.5039,-143.8406"/>
<polygon fill="#ff0000" stroke="#ff0000" stroke-width=".4594" points="435.8933,-144.7228 435.4101,-134.139 429.1876,-142.714 435.8933,-144.7228"/>
</g>
<!-- x&#45;pos&#45;&gt;forward -->
<g id="edge10" class="edge">
<title>x&#45;pos&#45;&gt;forward</title>
<path fill="none" stroke="#ff0000" stroke-width=".1377" stroke-dasharray="1,5" d="M423.5092,-199.2971C428.7855,-194.6302 435.3029,-188.8705 441.1436,-183.7229 457.7311,-169.1035 476.2299,-152.8429 491.453,-139.473"/>
<polygon fill="#ff0000" stroke="#ff0000" stroke-width=".1377" points="493.8829,-141.9973 499.0877,-132.769 489.2641,-136.7373 493.8829,-141.9973"/>
</g>
<!-- backward -->
<g id="node17" class="node">
<title>backward</title>
<ellipse fill="#add8e6" stroke="#000000" cx="360.1436" cy="-111.6604" rx="36.125" ry="36.125"/>
<text text-anchor="middle" x="360.1436" y="-109.4604" font-family="Times,serif" font-size="9.00" fill="#000000">backward</text>
</g>
<!-- x&#45;pos&#45;&gt;backward -->
<g id="edge9" class="edge">
<title>x&#45;pos&#45;&gt;backward</title>
<path fill="none" stroke="#00ff00" stroke-width=".2861" stroke-dasharray="1,5" d="M408.0617,-199.1889C402.1487,-188.3882 391.9865,-169.8256 382.5379,-152.5666"/>
<polygon fill="#00ff00" stroke="#00ff00" stroke-width=".2861" points="385.5604,-150.7989 377.6883,-143.7081 379.4203,-154.1604 385.5604,-150.7989"/>
</g>
<!-- y&#45;pos -->
<g id="node4" class="node">
<title>y&#45;pos</title>
<polygon fill="#d3d3d3" stroke="#000000" points="377.1436,-217.4716 341.1436,-217.4716 341.1436,-199.4716 377.1436,-199.4716 377.1436,-217.4716"/>
<text text-anchor="middle" x="359.1436" y="-206.2716" font-family="Times,serif" font-size="9.00" fill="#000000">y&#45;pos</text>
</g>
<!-- y&#45;pos&#45;&gt;none -->
<g id="edge5" class="edge">
<title>y&#45;pos&#45;&gt;none</title>
<path fill="none" stroke="#00ff00" stroke-width=".406" d="M350.0068,-199.3375C344.9376,-194.4685 338.4071,-188.5123 332.1436,-183.7229 305.0503,-163.0059 271.8804,-142.5338 248.3208,-128.7353"/>
<polygon fill="#00ff00" stroke="#00ff00" stroke-width=".406" points="249.8895,-125.599 239.4834,-123.6081 246.3767,-131.6538 249.8895,-125.599"/>
</g>
<!-- y&#45;pos&#45;&gt;right -->
<g id="edge14" class="edge">
<title>y&#45;pos&#45;&gt;right</title>
<path fill="none" stroke="#00ff00" stroke-width=".1245" stroke-dasharray="1,5" d="M367.1019,-199.1889C379.209,-185.0672 402.6921,-157.6766 420.1792,-137.2796"/>
<polygon fill="#00ff00" stroke="#00ff00" stroke-width=".1245" points="422.9338,-139.444 426.7855,-129.574 417.6196,-134.8878 422.9338,-139.444"/>
</g>
<!-- y&#45;pos&#45;&gt;forward -->
<g id="edge23" class="edge">
<title>y&#45;pos&#45;&gt;forward</title>
<path fill="none" stroke="#ff0000" stroke-width=".5097" stroke-dasharray="1,5" d="M367.4882,-199.3663C372.5198,-194.2688 379.2698,-188.0816 386.1436,-183.7229 421.8309,-161.0934 437.2924,-168.4031 474.1436,-147.7229 479.3954,-144.7756 484.7384,-141.3524 489.8715,-137.8114"/>
<polygon fill="#ff0000" stroke="#ff0000" stroke-width=".5097" points="492.1669,-140.4725 498.2588,-131.8041 488.0909,-134.7816 492.1669,-140.4725"/>
</g>
<!-- y&#45;pos&#45;&gt;backward -->
<g id="edge8" class="edge">
<title>y&#45;pos&#45;&gt;backward</title>
<path fill="none" stroke="#ff0000" stroke-width=".2886" stroke-dasharray="1,5" d="M359.2394,-199.1889C359.3389,-189.561 359.502,-173.7653 359.6626,-158.2233"/>
<polygon fill="#ff0000" stroke="#ff0000" stroke-width=".2886" points="363.1634,-158.1497 359.767,-148.114 356.1638,-158.0773 363.1634,-158.1497"/>
</g>
<!-- x&#45;lm1&#45;vec -->
<g id="node5" class="node">
<title>x&#45;lm1&#45;vec</title>
<polygon fill="#d3d3d3" stroke="#000000" points="612.6436,-217.4716 559.6436,-217.4716 559.6436,-199.4716 612.6436,-199.4716 612.6436,-217.4716"/>
<text text-anchor="middle" x="586.1436" y="-206.2716" font-family="Times,serif" font-size="9.00" fill="#000000">x&#45;lm1&#45;vec</text>
</g>
<!-- x&#45;lm1&#45;vec&#45;&gt;right -->
<g id="edge12" class="edge">
<title>x&#45;lm1&#45;vec&#45;&gt;right</title>
<path fill="none" stroke="#ff0000" stroke-width=".2819" stroke-dasharray="1,5" d="M568.1585,-199.4171C546.8588,-188.3709 510.6734,-168.5756 482.1436,-147.7229 476.8925,-143.8849 471.5417,-139.4699 466.5332,-135.075"/>
<polygon fill="#ff0000" stroke="#ff0000" stroke-width=".2819" points="468.7727,-132.3813 459.0077,-128.2709 464.078,-137.5737 468.7727,-132.3813"/>
</g>
<!-- x&#45;lm1&#45;vec&#45;&gt;left -->
<g id="edge16" class="edge">
<title>x&#45;lm1&#45;vec&#45;&gt;left</title>
<path fill="none" stroke="#00ff00" stroke-width=".2451" stroke-dasharray="1,5" d="M587.687,-199.3715C592.2312,-172.5785 605.7071,-93.1247 613.1186,-49.4259"/>
<polygon fill="#00ff00" stroke="#00ff00" stroke-width=".2451" points="616.5983,-49.84 614.8199,-39.3955 609.6969,-48.6694 616.5983,-49.84"/>
</g>
<!-- x&#45;lm1&#45;vec&#45;&gt;forward -->
<g id="edge26" class="edge">
<title>x&#45;lm1&#45;vec&#45;&gt;forward</title>
<path fill="none" stroke="#ff0000" stroke-width=".1611" stroke-dasharray="1,5" d="M580.1028,-199.1889C572.3394,-187.259 558.4136,-165.8595 546.2753,-147.2066"/>
<polygon fill="#ff0000" stroke="#ff0000" stroke-width=".1611" points="549.0622,-145.0721 540.6743,-138.5996 543.1951,-148.8902 549.0622,-145.0721"/>
</g>
<!-- y&#45;lm1&#45;vec -->
<g id="node6" class="node">
<title>y&#45;lm1&#45;vec</title>
<polygon fill="#d3d3d3" stroke="#000000" points="502.6436,-217.4716 449.6436,-217.4716 449.6436,-199.4716 502.6436,-199.4716 502.6436,-217.4716"/>
<text text-anchor="middle" x="476.1436" y="-206.2716" font-family="Times,serif" font-size="9.00" fill="#000000">y&#45;lm1&#45;vec</text>
</g>
<!-- y&#45;lm1&#45;vec&#45;&gt;right -->
<g id="edge2" class="edge">
<title>y&#45;lm1&#45;vec&#45;&gt;right</title>
<path fill="none" stroke="#00ff00" stroke-width=".2517" d="M472.8835,-199.1889C468.3904,-186.3953 460.0726,-162.7112 453.2213,-143.2031"/>
<polygon fill="#00ff00" stroke="#00ff00" stroke-width=".2517" points="456.5158,-142.021 449.8999,-133.7457 449.9113,-144.3406 456.5158,-142.021"/>
</g>
<!-- y&#45;lm1&#45;vec&#45;&gt;forward -->
<g id="edge30" class="edge">
<title>y&#45;lm1&#45;vec&#45;&gt;forward</title>
<path fill="none" stroke="#00ff00" stroke-width=".3022" stroke-dasharray="1,5" d="M480.6501,-199.1889C486.1676,-187.824 495.8573,-167.865 504.5917,-149.8738"/>
<polygon fill="#00ff00" stroke="#00ff00" stroke-width=".3022" points="507.8262,-151.2253 509.045,-140.7008 501.529,-148.1681 507.8262,-151.2253"/>
</g>
<!-- x&#45;lm2&#45;vec -->
<g id="node7" class="node">
<title>x&#45;lm2&#45;vec</title>
<polygon fill="#d3d3d3" stroke="#000000" points="176.6436,-217.4716 123.6436,-217.4716 123.6436,-199.4716 176.6436,-199.4716 176.6436,-217.4716"/>
<text text-anchor="middle" x="150.1436" y="-206.2716" font-family="Times,serif" font-size="9.00" fill="#000000">x&#45;lm2&#45;vec</text>
</g>
<!-- x&#45;lm2&#45;vec&#45;&gt;none -->
<g id="edge25" class="edge">
<title>x&#45;lm2&#45;vec&#45;&gt;none</title>
<path fill="none" stroke="#00ff00" stroke-width="1.1122" stroke-dasharray="1,5" d="M156.6637,-199.1889C166.2041,-185.6063 184.3666,-159.7485 198.4873,-139.645"/>
<polygon fill="#00ff00" stroke="#00ff00" stroke-width="1.1122" points="201.3709,-141.6289 204.2546,-131.434 195.6427,-137.6054 201.3709,-141.6289"/>
</g>
<!-- x&#45;lm2&#45;vec&#45;&gt;right -->
<g id="edge17" class="edge">
<title>x&#45;lm2&#45;vec&#45;&gt;right</title>
<path fill="none" stroke="#00ff00" stroke-width="1.8588" d="M160.7629,-199.3078C167.5749,-193.9236 176.8559,-187.4604 186.1436,-183.7229 277.6514,-146.8978 317.0991,-192.1971 405.1436,-147.7229 410.4779,-145.0283 415.5417,-141.2937 420.1146,-137.2429"/>
<polygon fill="#00ff00" stroke="#00ff00" stroke-width="1.8588" points="422.5739,-139.7334 427.3079,-130.255 417.6964,-134.7125 422.5739,-139.7334"/>
</g>
<!-- x&#45;lm2&#45;vec&#45;&gt;left -->
<g id="edge19" class="edge">
<title>x&#45;lm2&#45;vec&#45;&gt;left</title>
<path fill="none" stroke="#ff0000" stroke-width=".9232" d="M149.4217,-199.3127C148.0568,-174.9485 148.042,-108.1845 185.1436,-75.598 215.4434,-48.9854 494.6231,-28.0568 587.9331,-21.7543"/>
<polygon fill="#ff0000" stroke="#ff0000" stroke-width=".9232" points="588.3707,-25.233 598.1155,-21.075 587.9047,-18.2485 588.3707,-25.233"/>
</g>
<!-- x&#45;lm2&#45;vec&#45;&gt;backward -->
<g id="edge20" class="edge">
<title>x&#45;lm2&#45;vec&#45;&gt;backward</title>
<path fill="none" stroke="#ff0000" stroke-width=".1527" d="M162.0684,-199.3351C168.8932,-194.3497 177.7454,-188.2831 186.1436,-183.7229 228.6919,-160.619 280.2349,-140.1323 316.1312,-126.9652"/>
<polygon fill="#ff0000" stroke="#ff0000" stroke-width=".1527" points="317.6139,-130.1506 325.8203,-123.4495 315.2262,-123.5704 317.6139,-130.1506"/>
</g>
<!-- y&#45;lm2&#45;vec -->
<g id="node8" class="node">
<title>y&#45;lm2&#45;vec</title>
<polygon fill="#d3d3d3" stroke="#000000" points="322.6436,-217.4716 269.6436,-217.4716 269.6436,-199.4716 322.6436,-199.4716 322.6436,-217.4716"/>
<text text-anchor="middle" x="296.1436" y="-206.2716" font-family="Times,serif" font-size="9.00" fill="#000000">y&#45;lm2&#45;vec</text>
</g>
<!-- y&#45;lm2&#45;vec&#45;&gt;right -->
<g id="edge4" class="edge">
<title>y&#45;lm2&#45;vec&#45;&gt;right</title>
<path fill="none" stroke="#ff0000" stroke-width=".5439" d="M308.5157,-199.3109C315.3303,-194.4341 324.0301,-188.479 332.1436,-183.7229 363.3519,-165.4286 375.6042,-168.6051 405.1436,-147.7229 409.813,-144.4219 414.4513,-140.5287 418.7844,-136.5428"/>
<polygon fill="#ff0000" stroke="#ff0000" stroke-width=".5439" points="421.4398,-138.8439 426.1952,-129.3762 416.5736,-133.8119 421.4398,-138.8439"/>
</g>
<!-- y&#45;lm2&#45;vec&#45;&gt;left -->
<g id="edge27" class="edge">
<title>y&#45;lm2&#45;vec&#45;&gt;left</title>
<path fill="none" stroke="#ff0000" stroke-width=".2997" d="M294.2288,-199.2071C289.8496,-175.159 281.8866,-110.2155 315.1436,-75.598 352.5168,-36.6958 519.1059,-24.4561 588.0836,-21.0144"/>
<polygon fill="#ff0000" stroke="#ff0000" stroke-width=".2997" points="588.4567,-24.5008 598.2812,-20.5348 588.1278,-17.5085 588.4567,-24.5008"/>
</g>
<!-- y&#45;lm2&#45;vec&#45;&gt;backward -->
<g id="edge15" class="edge">
<title>y&#45;lm2&#45;vec&#45;&gt;backward</title>
<path fill="none" stroke="#ff0000" stroke-width="1.9502" d="M302.2801,-199.1889C309.7009,-187.9637 322.6641,-168.3546 334.4421,-150.5384"/>
<polygon fill="#ff0000" stroke="#ff0000" stroke-width="1.9502" points="337.5042,-152.253 340.0993,-141.9809 331.6649,-148.3927 337.5042,-152.253"/>
</g>
<!-- x&#45;other&#45;vec -->
<g id="node9" class="node">
<title>x&#45;other&#45;vec</title>
<polygon fill="#d3d3d3" stroke="#000000" points="189.1436,-287.2203 131.1436,-287.2203 131.1436,-269.2203 189.1436,-269.2203 189.1436,-287.2203"/>
<text text-anchor="middle" x="160.1436" y="-276.0203" font-family="Times,serif" font-size="9.00" fill="#000000">x&#45;other&#45;vec</text>
</g>
<!-- y&#45;other&#45;vec -->
<g id="node10" class="node">
<title>y&#45;other&#45;vec</title>
<polygon fill="#d3d3d3" stroke="#000000" points="689.1436,-217.4716 631.1436,-217.4716 631.1436,-199.4716 689.1436,-199.4716 689.1436,-217.4716"/>
<text text-anchor="middle" x="660.1436" y="-206.2716" font-family="Times,serif" font-size="9.00" fill="#000000">y&#45;other&#45;vec</text>
</g>
<!-- y&#45;other&#45;vec&#45;&gt;right -->
<g id="edge11" class="edge">
<title>y&#45;other&#45;vec&#45;&gt;right</title>
<path fill="none" stroke="#00ff00" stroke-width=".2336" stroke-dasharray="1,5" d="M648.3972,-199.3827C641.1647,-194.1623 631.5118,-187.8447 622.1436,-183.7229 563.3372,-157.8497 538.749,-178.1109 482.1436,-147.7229 476.3049,-144.5884 470.6332,-140.4254 465.4835,-136.0436"/>
<polygon fill="#00ff00" stroke="#00ff00" stroke-width=".2336" points="467.6169,-133.252 457.872,-129.0942 462.8971,-138.4215 467.6169,-133.252"/>
</g>
<!-- y&#45;other&#45;vec&#45;&gt;left -->
<g id="edge18" class="edge">
<title>y&#45;other&#45;vec&#45;&gt;left</title>
<path fill="none" stroke="#ff0000" stroke-width=".1778" d="M658.1178,-199.3715C652.1535,-172.5785 634.4664,-93.1247 624.7387,-49.4259"/>
<polygon fill="#ff0000" stroke="#ff0000" stroke-width=".1778" points="628.0952,-48.3961 622.5059,-39.3955 621.2625,-49.9171 628.0952,-48.3961"/>
</g>
<!-- y&#45;other&#45;vec&#45;&gt;forward -->
<g id="edge24" class="edge">
<title>y&#45;other&#45;vec&#45;&gt;forward</title>
<path fill="none" stroke="#ff0000" stroke-width=".1883" stroke-dasharray="1,5" d="M647.2549,-199.3638C626.9454,-185.0121 586.8108,-156.6509 557.6657,-136.0556"/>
<polygon fill="#ff0000" stroke="#ff0000" stroke-width=".1883" points="559.5723,-133.1172 549.3857,-130.2044 555.5325,-138.8339 559.5723,-133.1172"/>
</g>
<!-- x&#45;other&#45;vel -->
<g id="node11" class="node">
<title>x&#45;other&#45;vel</title>
<polygon fill="#d3d3d3" stroke="#000000" points="251.1436,-217.4716 195.1436,-217.4716 195.1436,-199.4716 251.1436,-199.4716 251.1436,-217.4716"/>
<text text-anchor="middle" x="223.1436" y="-206.2716" font-family="Times,serif" font-size="9.00" fill="#000000">x&#45;other&#45;vel</text>
</g>
<!-- x&#45;other&#45;vel&#45;&gt;none -->
<g id="edge6" class="edge">
<title>x&#45;other&#45;vel&#45;&gt;none</title>
<path fill="none" stroke="#00ff00" stroke-width=".4309" stroke-dasharray="1,5" d="M222.6641,-199.1889C222.0331,-186.9699 220.8889,-164.8166 219.9096,-145.8554"/>
<polygon fill="#00ff00" stroke="#00ff00" stroke-width=".4309" points="223.3981,-145.5393 219.3868,-135.7332 216.4074,-145.9004 223.3981,-145.5393"/>
</g>
<!-- x&#45;other&#45;vel&#45;&gt;forward -->
<g id="edge7" class="edge">
<title>x&#45;other&#45;vel&#45;&gt;forward</title>
<path fill="none" stroke="#ff0000" stroke-width=".3988" stroke-dasharray="1,5" d="M234.4397,-199.3383C241.6628,-193.9655 251.4633,-187.5037 261.1436,-183.7229 350.5736,-148.7938 385.7486,-185.1943 474.1436,-147.7229 479.7505,-145.346 485.3173,-142.2106 490.5777,-138.7788"/>
<polygon fill="#ff0000" stroke="#ff0000" stroke-width=".3988" points="492.9172,-141.4131 499.0942,-132.8052 488.8975,-135.6822 492.9172,-141.4131"/>
</g>
<!-- y&#45;other&#45;vel -->
<g id="node12" class="node">
<title>y&#45;other&#45;vel</title>
<polygon fill="#d3d3d3" stroke="#000000" points="763.1436,-217.4716 707.1436,-217.4716 707.1436,-199.4716 763.1436,-199.4716 763.1436,-217.4716"/>
<text text-anchor="middle" x="735.1436" y="-206.2716" font-family="Times,serif" font-size="9.00" fill="#000000">y&#45;other&#45;vel</text>
</g>
<!-- y&#45;other&#45;vel&#45;&gt;right -->
<g id="edge3" class="edge">
<title>y&#45;other&#45;vel&#45;&gt;right</title>
<path fill="none" stroke="#00ff00" stroke-width=".1403" stroke-dasharray="1,5" d="M724.1855,-199.3226C717.1678,-193.944 707.627,-187.4815 698.1436,-183.7229 607.6664,-147.8636 569.8037,-190.0041 482.1436,-147.7229 476.1747,-144.8439 470.445,-140.7949 465.2794,-136.4444"/>
<polygon fill="#00ff00" stroke="#00ff00" stroke-width=".1403" points="467.4135,-133.6531 457.6731,-129.4846 462.688,-138.8174 467.4135,-133.6531"/>
</g>
<!-- y&#45;other&#45;vel&#45;&gt;left -->
<g id="edge13" class="edge">
<title>y&#45;other&#45;vel&#45;&gt;left</title>
<path fill="none" stroke="#ff0000" stroke-width=".6614" stroke-dasharray="1,5" d="M728.3026,-199.1938C719.7372,-187.4413 704.7765,-166.4588 693.1436,-147.7229 673.8085,-116.5819 671.7779,-107.1632 653.1436,-75.598 647.2403,-65.5982 640.5132,-54.7519 634.5447,-45.3041"/>
<polygon fill="#ff0000" stroke="#ff0000" stroke-width=".6614" points="637.4244,-43.3099 629.1064,-36.7477 631.5166,-47.0647 637.4244,-43.3099"/>
</g>
<!-- y&#45;other&#45;vel&#45;&gt;forward -->
<g id="edge1" class="edge">
<title>y&#45;other&#45;vel&#45;&gt;forward</title>
<path fill="none" stroke="#ff0000" stroke-width=".157" d="M722.8564,-199.353C715.8323,-194.3732 706.7349,-188.3063 698.1436,-183.7229 653.4939,-159.9027 599.2256,-138.6604 563.0743,-125.5163"/>
<polygon fill="#ff0000" stroke="#ff0000" stroke-width=".157" points="563.9757,-122.121 553.3813,-122.0283 561.6055,-128.7075 563.9757,-122.121"/>
</g>
<!-- 761 -->
<g id="node19" class="node">
<title>761</title>
<ellipse fill="#ffffff" stroke="#000000" cx="723.1436" cy="-111.6604" rx="21.4286" ry="21.4286"/>
<text text-anchor="middle" x="723.1436" y="-109.4604" font-family="Times,serif" font-size="9.00" fill="#000000">761</text>
</g>
<!-- y&#45;other&#45;vel&#45;&gt;761 -->
<g id="edge31" class="edge">
<title>y&#45;other&#45;vel&#45;&gt;761</title>
<path fill="none" stroke="#ff0000" stroke-width=".3448" d="M733.9929,-199.1889C732.4017,-186.3517 729.4514,-162.5496 727.0286,-143.0037"/>
<polygon fill="#ff0000" stroke="#ff0000" stroke-width=".3448" points="730.488,-142.4594 725.7844,-132.9659 723.5412,-143.3206 730.488,-142.4594"/>
</g>
<!-- 1064&#45;&gt;985 -->
<g id="edge36" class="edge">
<title>1064&#45;&gt;985</title>
<path fill="none" stroke="#00ff00" stroke-width=".1299" d="M42.1436,-183.5403C42.1436,-171.1624 42.1436,-156.0825 42.1436,-142.9373"/>
<polygon fill="#00ff00" stroke="#00ff00" stroke-width=".1299" points="45.6437,-142.8985 42.1436,-132.8986 38.6437,-142.8986 45.6437,-142.8985"/>
</g>
<!-- 761&#45;&gt;left -->
<g id="edge32" class="edge">
<title>761&#45;&gt;left</title>
<path fill="none" stroke="#ff0000" stroke-width=".2183" d="M707.8252,-96.6913C700.9807,-90.1158 692.7557,-82.3671 685.1436,-75.598 671.0389,-63.0556 654.7796,-49.4939 641.8106,-38.8813"/>
<polygon fill="#ff0000" stroke="#ff0000" stroke-width=".2183" points="643.7832,-35.974 633.8189,-32.3735 639.3631,-41.4019 643.7832,-35.974"/>
</g>
<!-- 985&#45;&gt;left -->
<g id="edge34" class="edge">
<title>985&#45;&gt;left</title>
<path fill="none" stroke="#ff0000" stroke-width=".5625" d="M61.6587,-103.107C81.5247,-94.764 113.4018,-82.3701 142.1436,-75.598 307.3318,-36.6762 511.4636,-24.3545 587.6182,-20.9536"/>
<polygon fill="#ff0000" stroke="#ff0000" stroke-width=".5625" points="588.0641,-24.4378 597.9057,-20.5144 587.7655,-17.4442 588.0641,-24.4378"/>
</g>
</g>
</svg>
