<?xml version="1.0" encoding="UTF-8" standalone="no"?>
<!DOCTYPE svg PUBLIC "-//W3C//DTD SVG 1.1//EN"
 "http://www.w3.org/Graphics/SVG/1.1/DTD/svg11.dtd">
<!-- Generated by graphviz version 2.40.1 (20161225.0304)
 -->
<!-- Title: %3 Pages: 1 -->
<svg width="949pt" height="476pt"
 viewBox="0.00 0.00 949.17 476.11" xmlns="http://www.w3.org/2000/svg" xmlns:xlink="http://www.w3.org/1999/xlink">
<g id="graph0" class="graph" transform="scale(1 1) rotate(0) translate(4 472.1148)">
<title>%3</title>
<polygon fill="#ffffff" stroke="transparent" points="-4,4 -4,-472.1148 945.1689,-472.1148 945.1689,4 -4,4"/>
<!-- x&#45;vel -->
<g id="node1" class="node">
<title>x&#45;vel</title>
<polygon fill="#d3d3d3" stroke="#000000" points="253.6689,-312.8686 218.6689,-312.8686 218.6689,-294.8686 253.6689,-294.8686 253.6689,-312.8686"/>
<text text-anchor="middle" x="236.1689" y="-301.6686" font-family="Times,serif" font-size="9.00" fill="#000000">x&#45;vel</text>
</g>
<!-- right -->
<g id="node14" class="node">
<title>right</title>
<ellipse fill="#add8e6" stroke="#000000" cx="296.1689" cy="-218.3711" rx="23.1702" ry="23.1702"/>
<text text-anchor="middle" x="296.1689" y="-216.1711" font-family="Times,serif" font-size="9.00" fill="#000000">right</text>
</g>
<!-- x&#45;vel&#45;&gt;right -->
<g id="edge19" class="edge">
<title>x&#45;vel&#45;&gt;right</title>
<path fill="none" stroke="#ff0000" stroke-width="1.2839" d="M242.59,-294.7189C250.6735,-283.2002 264.9271,-262.8894 276.7014,-246.1115"/>
<polygon fill="#ff0000" stroke="#ff0000" stroke-width="1.2839" points="279.7073,-247.9211 282.5868,-237.7251 273.9774,-243.9 279.7073,-247.9211"/>
</g>
<!-- y&#45;vel -->
<g id="node2" class="node">
<title>y&#45;vel</title>
<polygon fill="#d3d3d3" stroke="#000000" points="454.6689,-312.8686 419.6689,-312.8686 419.6689,-294.8686 454.6689,-294.8686 454.6689,-312.8686"/>
<text text-anchor="middle" x="437.1689" y="-301.6686" font-family="Times,serif" font-size="9.00" fill="#000000">y&#45;vel</text>
</g>
<!-- y&#45;vel&#45;&gt;right -->
<g id="edge12" class="edge">
<title>y&#45;vel&#45;&gt;right</title>
<path fill="none" stroke="#ff0000" stroke-width="1.0678" stroke-dasharray="1,5" d="M428.1702,-294.5468C423.1414,-289.6229 416.6056,-283.674 410.1689,-279.1198 383.6197,-260.3353 350.5669,-243.3386 326.8986,-232.1321"/>
<polygon fill="#ff0000" stroke="#ff0000" stroke-width="1.0678" points="328.2341,-228.8931 317.6917,-227.8404 325.2766,-235.2377 328.2341,-228.8931"/>
</g>
<!-- left -->
<g id="node15" class="node">
<title>left</title>
<ellipse fill="#add8e6" stroke="#000000" cx="471.1689" cy="-218.3711" rx="19.6" ry="19.6"/>
<text text-anchor="middle" x="471.1689" y="-216.1711" font-family="Times,serif" font-size="9.00" fill="#000000">left</text>
</g>
<!-- y&#45;vel&#45;&gt;left -->
<g id="edge10" class="edge">
<title>y&#45;vel&#45;&gt;left</title>
<path fill="none" stroke="#00ff00" stroke-width="1.988" d="M440.8075,-294.7189C445.3614,-283.2675 453.3709,-263.1265 460.0202,-246.406"/>
<polygon fill="#00ff00" stroke="#00ff00" stroke-width="1.988" points="463.2986,-247.6336 463.7416,-237.048 456.794,-245.0469 463.2986,-247.6336"/>
</g>
<!-- forward -->
<g id="node16" class="node">
<title>forward</title>
<ellipse fill="#add8e6" stroke="#000000" cx="153.1689" cy="-36.0624" rx="31.6406" ry="31.6406"/>
<text text-anchor="middle" x="153.1689" y="-33.8624" font-family="Times,serif" font-size="9.00" fill="#000000">forward</text>
</g>
<!-- y&#45;vel&#45;&gt;forward -->
<g id="edge17" class="edge">
<title>y&#45;vel&#45;&gt;forward</title>
<path fill="none" stroke="#ff0000" stroke-width=".12" stroke-dasharray="1,5" d="M428.4525,-294.559C401.4201,-265.8311 316.2427,-176.3924 240.1689,-108.1249 222.7324,-92.4776 202.6258,-75.7428 186.1372,-62.3422"/>
<polygon fill="#ff0000" stroke="#ff0000" stroke-width=".12" points="188.3368,-59.6197 178.3611,-56.0509 183.9339,-65.0617 188.3368,-59.6197"/>
</g>
<!-- backward -->
<g id="node17" class="node">
<title>backward</title>
<ellipse fill="#add8e6" stroke="#000000" cx="642.1689" cy="-36.0624" rx="36.125" ry="36.125"/>
<text text-anchor="middle" x="642.1689" y="-33.8624" font-family="Times,serif" font-size="9.00" fill="#000000">backward</text>
</g>
<!-- y&#45;vel&#45;&gt;backward -->
<g id="edge2" class="edge">
<title>y&#45;vel&#45;&gt;backward</title>
<path fill="none" stroke="#ff0000" stroke-width=".2497" d="M435.1538,-294.6524C431.325,-274.8635 424.8385,-227.3685 442.1689,-193.6224 476.1503,-127.453 551.8779,-80.1936 599.7845,-55.5755"/>
<polygon fill="#ff0000" stroke="#ff0000" stroke-width=".2497" points="601.6123,-58.574 608.9742,-50.9548 598.4677,-52.32 601.6123,-58.574"/>
</g>
<!-- x&#45;pos -->
<g id="node3" class="node">
<title>x&#45;pos</title>
<polygon fill="#d3d3d3" stroke="#000000" points="647.1689,-312.8686 611.1689,-312.8686 611.1689,-294.8686 647.1689,-294.8686 647.1689,-312.8686"/>
<text text-anchor="middle" x="629.1689" y="-301.6686" font-family="Times,serif" font-size="9.00" fill="#000000">x&#45;pos</text>
</g>
<!-- x&#45;pos&#45;&gt;right -->
<g id="edge20" class="edge">
<title>x&#45;pos&#45;&gt;right</title>
<path fill="none" stroke="#ff0000" stroke-width=".6817" d="M621.5716,-294.7441C616.6008,-289.3747 609.6563,-282.9133 602.1689,-279.1198 577.9351,-266.8419 403.7351,-236.4959 329.5174,-223.9438"/>
<polygon fill="#ff0000" stroke="#ff0000" stroke-width=".6817" points="329.7651,-220.4363 319.3224,-222.2252 328.6015,-227.3389 329.7651,-220.4363"/>
</g>
<!-- x&#45;pos&#45;&gt;left -->
<g id="edge18" class="edge">
<title>x&#45;pos&#45;&gt;left</title>
<path fill="none" stroke="#00ff00" stroke-width=".279" stroke-dasharray="1,5" d="M620.2689,-294.4032C615.269,-289.4372 608.7292,-283.494 602.1689,-279.1198 569.1022,-257.0723 526.7528,-239.0349 499.2981,-228.4959"/>
<polygon fill="#00ff00" stroke="#00ff00" stroke-width=".279" points="500.4939,-225.2063 489.9019,-224.9588 498.0277,-231.7575 500.4939,-225.2063"/>
</g>
<!-- x&#45;pos&#45;&gt;forward -->
<g id="edge11" class="edge">
<title>x&#45;pos&#45;&gt;forward</title>
<path fill="none" stroke="#00ff00" stroke-width=".2202" d="M629.8469,-294.7405C630.8684,-274.2911 630.5379,-224.2048 606.1689,-193.6224 553.1166,-127.0431 295.8066,-66.3019 194.3833,-44.5492"/>
<polygon fill="#00ff00" stroke="#00ff00" stroke-width=".2202" points="195.0091,-41.1041 184.4998,-42.4473 193.553,-47.951 195.0091,-41.1041"/>
</g>
<!-- x&#45;pos&#45;&gt;backward -->
<g id="edge9" class="edge">
<title>x&#45;pos&#45;&gt;backward</title>
<path fill="none" stroke="#ff0000" stroke-width=".4334" stroke-dasharray="1,5" d="M631.1232,-294.8685C633.5783,-283.0591 637.6535,-261.6561 639.1689,-243.1198 640.9615,-221.1941 640.3855,-215.5876 639.1689,-193.6224 638.2787,-177.5485 636.0592,-173.6962 635.1689,-157.6224 633.9524,-135.6572 634.1042,-130.098 635.1689,-108.1249 635.5799,-99.6424 636.2616,-90.618 637.0423,-81.9285"/>
<polygon fill="#ff0000" stroke="#ff0000" stroke-width=".4334" points="640.5302,-82.221 637.9942,-71.9342 633.5618,-81.5573 640.5302,-82.221"/>
</g>
<!-- 2852 -->
<g id="node18" class="node">
<title>2852</title>
<ellipse fill="#ffffff" stroke="#000000" cx="572.1689" cy="-218.3711" rx="25" ry="25"/>
<text text-anchor="middle" x="572.1689" y="-216.1711" font-family="Times,serif" font-size="9.00" fill="#000000">2852</text>
</g>
<!-- x&#45;pos&#45;&gt;2852 -->
<g id="edge51" class="edge">
<title>x&#45;pos&#45;&gt;2852</title>
<path fill="none" stroke="#ff0000" stroke-width=".4046" d="M623.0689,-294.7189C615.6539,-283.5966 602.7738,-264.2771 591.8261,-247.856"/>
<polygon fill="#ff0000" stroke="#ff0000" stroke-width=".4046" points="594.4491,-245.4807 585.9897,-239.1017 588.6247,-249.3637 594.4491,-245.4807"/>
</g>
<!-- 2057 -->
<g id="node22" class="node">
<title>2057</title>
<ellipse fill="#ffffff" stroke="#000000" cx="773.1689" cy="-218.3711" rx="25" ry="25"/>
<text text-anchor="middle" x="773.1689" y="-216.1711" font-family="Times,serif" font-size="9.00" fill="#000000">2057</text>
</g>
<!-- x&#45;pos&#45;&gt;2057 -->
<g id="edge39" class="edge">
<title>x&#45;pos&#45;&gt;2057</title>
<path fill="none" stroke="#ff0000" stroke-width=".2589" d="M638.2887,-294.7914C643.5484,-289.8245 650.4366,-283.7567 657.1689,-279.1198 683.9909,-260.6463 717.1206,-243.8243 741.0984,-232.5907"/>
<polygon fill="#ff0000" stroke="#ff0000" stroke-width=".2589" points="742.8345,-235.6443 750.4476,-228.276 739.9012,-229.2885 742.8345,-235.6443"/>
</g>
<!-- 4078 -->
<g id="node25" class="node">
<title>4078</title>
<ellipse fill="#ffffff" stroke="#000000" cx="669.1689" cy="-132.8736" rx="25" ry="25"/>
<text text-anchor="middle" x="669.1689" y="-130.6736" font-family="Times,serif" font-size="9.00" fill="#000000">4078</text>
</g>
<!-- x&#45;pos&#45;&gt;4078 -->
<g id="edge43" class="edge">
<title>x&#45;pos&#45;&gt;4078</title>
<path fill="none" stroke="#00ff00" stroke-width=".1731" d="M639.6582,-294.8305C651.4024,-283.9475 669.7586,-264.4512 677.1689,-243.1198 685.7041,-218.5506 682.9592,-189.0948 678.486,-166.8136"/>
<polygon fill="#00ff00" stroke="#00ff00" stroke-width=".1731" points="681.8508,-165.8201 676.2686,-156.8152 675.0168,-167.3358 681.8508,-165.8201"/>
</g>
<!-- y&#45;pos -->
<g id="node4" class="node">
<title>y&#45;pos</title>
<polygon fill="#d3d3d3" stroke="#000000" points="179.1689,-227.3711 143.1689,-227.3711 143.1689,-209.3711 179.1689,-209.3711 179.1689,-227.3711"/>
<text text-anchor="middle" x="161.1689" y="-216.1711" font-family="Times,serif" font-size="9.00" fill="#000000">y&#45;pos</text>
</g>
<!-- y&#45;pos&#45;&gt;forward -->
<g id="edge8" class="edge">
<title>y&#45;pos&#45;&gt;forward</title>
<path fill="none" stroke="#00ff00" stroke-width=".3021" stroke-dasharray="1,5" d="M160.7612,-209.0798C159.7199,-185.3499 156.9113,-121.3453 155.0179,-78.1976"/>
<polygon fill="#00ff00" stroke="#00ff00" stroke-width=".3021" points="158.5048,-77.8213 154.5697,-67.9844 151.5115,-78.1283 158.5048,-77.8213"/>
</g>
<!-- y&#45;pos&#45;&gt;backward -->
<g id="edge7" class="edge">
<title>y&#45;pos&#45;&gt;backward</title>
<path fill="none" stroke="#00ff00" stroke-width=".628" stroke-dasharray="1,5" d="M172.5759,-209.24C178.6197,-204.4812 186.2133,-198.6259 193.1689,-193.6224 220.9369,-173.6473 289.728,-121.5984 321.1689,-108.1249 414.1645,-68.273 532.1561,-49.0691 596.0263,-41.0192"/>
<polygon fill="#00ff00" stroke="#00ff00" stroke-width=".628" points="596.6757,-44.4659 606.1764,-39.7769 595.8253,-37.5178 596.6757,-44.4659"/>
</g>
<!-- 3581 -->
<g id="node28" class="node">
<title>3581</title>
<ellipse fill="#ffffff" stroke="#000000" cx="206.1689" cy="-132.8736" rx="25" ry="25"/>
<text text-anchor="middle" x="206.1689" y="-130.6736" font-family="Times,serif" font-size="9.00" fill="#000000">3581</text>
</g>
<!-- y&#45;pos&#45;&gt;3581 -->
<g id="edge36" class="edge">
<title>y&#45;pos&#45;&gt;3581</title>
<path fill="none" stroke="#ff0000" stroke-width=".1813" d="M165.9847,-209.2214C171.6328,-198.4902 181.2974,-180.1281 189.733,-164.1009"/>
<polygon fill="#ff0000" stroke="#ff0000" stroke-width=".1813" points="192.9577,-165.4888 194.5181,-155.0095 186.7633,-162.2285 192.9577,-165.4888"/>
</g>
<!-- x&#45;lm1&#45;vec -->
<g id="node5" class="node">
<title>x&#45;lm1&#45;vec</title>
<polygon fill="#d3d3d3" stroke="#000000" points="125.6689,-312.8686 72.6689,-312.8686 72.6689,-294.8686 125.6689,-294.8686 125.6689,-312.8686"/>
<text text-anchor="middle" x="99.1689" y="-301.6686" font-family="Times,serif" font-size="9.00" fill="#000000">x&#45;lm1&#45;vec</text>
</g>
<!-- x&#45;lm1&#45;vec&#45;&gt;right -->
<g id="edge23" class="edge">
<title>x&#45;lm1&#45;vec&#45;&gt;right</title>
<path fill="none" stroke="#00ff00" stroke-width=".6437" stroke-dasharray="1,5" d="M110.7158,-294.8664C117.5648,-289.8032 126.5648,-283.616 135.1689,-279.1198 158.2356,-267.0661 224.4822,-243.2799 264.4471,-229.3151"/>
<polygon fill="#00ff00" stroke="#00ff00" stroke-width=".6437" points="265.706,-232.583 273.9991,-225.9895 263.4043,-225.9722 265.706,-232.583"/>
</g>
<!-- x&#45;lm1&#45;vec&#45;&gt;left -->
<g id="edge24" class="edge">
<title>x&#45;lm1&#45;vec&#45;&gt;left</title>
<path fill="none" stroke="#ff0000" stroke-width=".2299" stroke-dasharray="1,5" d="M109.8094,-294.7568C116.6294,-289.3921 125.9114,-282.9313 135.1689,-279.1198 142.3165,-276.177 360.9782,-237.6828 441.6505,-223.5385"/>
<polygon fill="#ff0000" stroke="#ff0000" stroke-width=".2299" points="442.4048,-226.9597 451.6505,-221.786 441.1964,-220.0648 442.4048,-226.9597"/>
</g>
<!-- x&#45;lm1&#45;vec&#45;&gt;forward -->
<g id="edge3" class="edge">
<title>x&#45;lm1&#45;vec&#45;&gt;forward</title>
<path fill="none" stroke="#ff0000" stroke-width=".6129" stroke-dasharray="1,5" d="M82.4811,-294.6923C65.6796,-284.478 40.5312,-266.3112 28.1689,-243.1198 -.1313,-190.0295 -12.775,-159.7191 18.1689,-108.1249 38.3291,-74.5109 80.0892,-55.7069 111.8575,-45.8068"/>
<polygon fill="#ff0000" stroke="#ff0000" stroke-width=".6129" points="113.1692,-49.0697 121.7807,-42.8979 111.2,-42.3523 113.1692,-49.0697"/>
</g>
<!-- x&#45;lm1&#45;vec&#45;&gt;backward -->
<g id="edge1" class="edge">
<title>x&#45;lm1&#45;vec&#45;&gt;backward</title>
<path fill="none" stroke="#ff0000" stroke-width=".7589" stroke-dasharray="1,5" d="M112.4919,-294.6833C119.2747,-290.0137 127.6545,-284.2548 135.1689,-279.1198 158.6795,-263.0539 168.1207,-263.3419 188.1689,-243.1198 206.7838,-224.3436 201.1624,-210.9082 221.1689,-193.6224 249.4504,-169.1868 265.8794,-178.0651 297.1689,-157.6224 325.2573,-139.2711 324.4105,-123.6222 354.1689,-108.1249 433.3029,-66.9144 537.1023,-48.4867 596.0264,-40.8737"/>
<polygon fill="#ff0000" stroke="#ff0000" stroke-width=".7589" points="596.6478,-44.3235 606.1397,-39.6168 595.7844,-37.3769 596.6478,-44.3235"/>
</g>
<!-- 3907 -->
<g id="node19" class="node">
<title>3907</title>
<ellipse fill="#ffffff" stroke="#000000" cx="62.1689" cy="-218.3711" rx="25" ry="25"/>
<text text-anchor="middle" x="62.1689" y="-216.1711" font-family="Times,serif" font-size="9.00" fill="#000000">3907</text>
</g>
<!-- x&#45;lm1&#45;vec&#45;&gt;3907 -->
<g id="edge40" class="edge">
<title>x&#45;lm1&#45;vec&#45;&gt;3907</title>
<path fill="none" stroke="#ff0000" stroke-width=".5149" d="M95.2093,-294.7189C90.6704,-284.2307 82.977,-266.4532 76.1555,-250.6906"/>
<polygon fill="#ff0000" stroke="#ff0000" stroke-width=".5149" points="79.2407,-249.007 72.0569,-241.2197 72.8165,-251.7872 79.2407,-249.007"/>
</g>
<!-- y&#45;lm1&#45;vec -->
<g id="node6" class="node">
<title>y&#45;lm1&#45;vec</title>
<polygon fill="#d3d3d3" stroke="#000000" points="718.6689,-312.8686 665.6689,-312.8686 665.6689,-294.8686 718.6689,-294.8686 718.6689,-312.8686"/>
<text text-anchor="middle" x="692.1689" y="-301.6686" font-family="Times,serif" font-size="9.00" fill="#000000">y&#45;lm1&#45;vec</text>
</g>
<!-- y&#45;lm1&#45;vec&#45;&gt;2057 -->
<g id="edge30" class="edge">
<title>y&#45;lm1&#45;vec&#45;&gt;2057</title>
<path fill="none" stroke="#ff0000" stroke-width=".1078" stroke-dasharray="1,5" d="M700.8373,-294.7189C712.2335,-282.6899 732.7134,-261.0729 748.9792,-243.9039"/>
<polygon fill="#ff0000" stroke="#ff0000" stroke-width=".1078" points="751.7716,-246.0455 756.1084,-236.3789 746.69,-241.2312 751.7716,-246.0455"/>
</g>
<!-- x&#45;lm2&#45;vec -->
<g id="node7" class="node">
<title>x&#45;lm2&#45;vec</title>
<polygon fill="#d3d3d3" stroke="#000000" points="401.6689,-312.8686 348.6689,-312.8686 348.6689,-294.8686 401.6689,-294.8686 401.6689,-312.8686"/>
<text text-anchor="middle" x="375.1689" y="-301.6686" font-family="Times,serif" font-size="9.00" fill="#000000">x&#45;lm2&#45;vec</text>
</g>
<!-- none -->
<g id="node13" class="node">
<title>none</title>
<ellipse fill="#add8e6" stroke="#000000" cx="387.1689" cy="-132.8736" rx="24.0833" ry="24.0833"/>
<text text-anchor="middle" x="387.1689" y="-130.6736" font-family="Times,serif" font-size="9.00" fill="#000000">none</text>
</g>
<!-- x&#45;lm2&#45;vec&#45;&gt;none -->
<g id="edge38" class="edge">
<title>x&#45;lm2&#45;vec&#45;&gt;none</title>
<path fill="none" stroke="#00ff00" stroke-width=".7234" stroke-dasharray="1,5" d="M375.8141,-294.6751C377.472,-271.0501 381.9483,-207.2653 384.76,-167.1997"/>
<polygon fill="#00ff00" stroke="#00ff00" stroke-width=".7234" points="388.262,-167.2931 385.4707,-157.0725 381.2791,-166.803 388.262,-167.2931"/>
</g>
<!-- x&#45;lm2&#45;vec&#45;&gt;right -->
<g id="edge16" class="edge">
<title>x&#45;lm2&#45;vec&#45;&gt;right</title>
<path fill="none" stroke="#00ff00" stroke-width="5.9082" d="M366.7145,-294.7189C355.4617,-282.5405 335.1279,-260.5343 319.172,-243.2662"/>
<polygon fill="#00ff00" stroke="#00ff00" stroke-width="5.9082" points="322.7808,-239.5541 312.1974,-235.7179 315.1869,-246.5709 322.7808,-239.5541"/>
</g>
<!-- y&#45;lm2&#45;vec -->
<g id="node8" class="node">
<title>y&#45;lm2&#45;vec</title>
<polygon fill="#d3d3d3" stroke="#000000" points="525.6689,-312.8686 472.6689,-312.8686 472.6689,-294.8686 525.6689,-294.8686 525.6689,-312.8686"/>
<text text-anchor="middle" x="499.1689" y="-301.6686" font-family="Times,serif" font-size="9.00" fill="#000000">y&#45;lm2&#45;vec</text>
</g>
<!-- y&#45;lm2&#45;vec&#45;&gt;left -->
<g id="edge13" class="edge">
<title>y&#45;lm2&#45;vec&#45;&gt;left</title>
<path fill="none" stroke="#00ff00" stroke-width=".1587" d="M496.1724,-294.7189C492.4806,-283.4458 486.0309,-263.7518 480.6069,-247.1898"/>
<polygon fill="#00ff00" stroke="#00ff00" stroke-width=".1587" points="483.8346,-245.7996 477.3961,-237.3856 477.1822,-247.9783 483.8346,-245.7996"/>
</g>
<!-- y&#45;lm2&#45;vec&#45;&gt;backward -->
<g id="edge4" class="edge">
<title>y&#45;lm2&#45;vec&#45;&gt;backward</title>
<path fill="none" stroke="#ff0000" stroke-width="3.3208" d="M501.5895,-294.7061C506.8612,-275.4128 520.3515,-229.4299 538.1689,-193.6224 559.8568,-150.0365 591.389,-103.9865 614.0406,-73.005"/>
<polygon fill="#ff0000" stroke="#ff0000" stroke-width="3.3208" points="617.0608,-74.8065 620.1785,-64.6807 611.4268,-70.6522 617.0608,-74.8065"/>
</g>
<!-- x&#45;other&#45;vec -->
<g id="node9" class="node">
<title>x&#45;other&#45;vec</title>
<polygon fill="#d3d3d3" stroke="#000000" points="843.1689,-468.1148 785.1689,-468.1148 785.1689,-450.1148 843.1689,-450.1148 843.1689,-468.1148"/>
<text text-anchor="middle" x="814.1689" y="-456.9148" font-family="Times,serif" font-size="9.00" fill="#000000">x&#45;other&#45;vec</text>
</g>
<!-- x&#45;other&#45;vec&#45;&gt;right -->
<g id="edge28" class="edge">
<title>x&#45;other&#45;vec&#45;&gt;right</title>
<path fill="none" stroke="#00ff00" stroke-width=".2825" d="M785.0036,-457.4459C729.4245,-453.7065 604.8983,-442.632 504.1689,-414.1148 411.9401,-388.0042 362.3937,-406.249 306.1689,-328.6173 290.2343,-306.6158 288.8477,-275.2995 290.8016,-251.6625"/>
<polygon fill="#00ff00" stroke="#00ff00" stroke-width=".2825" points="294.3154,-251.7181 291.8942,-241.4037 287.3548,-250.9768 294.3154,-251.7181"/>
</g>
<!-- x&#45;other&#45;vec&#45;&gt;backward -->
<g id="edge5" class="edge">
<title>x&#45;other&#45;vec&#45;&gt;backward</title>
<path fill="none" stroke="#00ff00" stroke-width=".2935" stroke-dasharray="1,5" d="M829.7416,-450.0763C863.6543,-429.0927 941.1689,-373.5127 941.1689,-303.8686 941.1689,-303.8686 941.1689,-303.8686 941.1689,-218.3711 941.1689,-166.3973 940.1771,-143.5743 902.1689,-108.1249 871.1986,-79.2395 754.2575,-55.2063 688.249,-43.5824"/>
<polygon fill="#00ff00" stroke="#00ff00" stroke-width=".2935" points="688.5644,-40.0849 678.1133,-41.8246 687.3681,-46.982 688.5644,-40.0849"/>
</g>
<!-- 2665 -->
<g id="node23" class="node">
<title>2665</title>
<ellipse fill="#ffffff" stroke="#000000" cx="814.1689" cy="-389.3661" rx="25" ry="25"/>
<text text-anchor="middle" x="814.1689" y="-387.1661" font-family="Times,serif" font-size="9.00" fill="#000000">2665</text>
</g>
<!-- x&#45;other&#45;vec&#45;&gt;2665 -->
<g id="edge26" class="edge">
<title>x&#45;other&#45;vec&#45;&gt;2665</title>
<path fill="none" stroke="#ff0000" stroke-width=".7828" d="M814.1689,-449.9964C814.1689,-443.3796 814.1689,-433.9681 814.1689,-424.5285"/>
<polygon fill="#ff0000" stroke="#ff0000" stroke-width=".7828" points="817.669,-424.4053 814.1689,-414.4053 810.669,-424.4054 817.669,-424.4053"/>
</g>
<!-- y&#45;other&#45;vec -->
<g id="node10" class="node">
<title>y&#45;other&#45;vec</title>
<polygon fill="#d3d3d3" stroke="#000000" points="875.1689,-141.8736 817.1689,-141.8736 817.1689,-123.8736 875.1689,-123.8736 875.1689,-141.8736"/>
<text text-anchor="middle" x="846.1689" y="-130.6736" font-family="Times,serif" font-size="9.00" fill="#000000">y&#45;other&#45;vec</text>
</g>
<!-- y&#45;other&#45;vec&#45;&gt;backward -->
<g id="edge22" class="edge">
<title>y&#45;other&#45;vec&#45;&gt;backward</title>
<path fill="none" stroke="#ff0000" stroke-width="1.9412" d="M831.2507,-123.7893C823.0699,-118.9349 812.684,-112.9768 803.1689,-108.1249 763.8127,-88.0565 717.6868,-67.7224 684.9183,-53.7948"/>
<polygon fill="#ff0000" stroke="#ff0000" stroke-width="1.9412" points="686.1977,-50.5358 675.6241,-49.864 683.4709,-56.9829 686.1977,-50.5358"/>
</g>
<!-- x&#45;other&#45;vel -->
<g id="node11" class="node">
<title>x&#45;other&#45;vel</title>
<polygon fill="#d3d3d3" stroke="#000000" points="569.1689,-398.3661 513.1689,-398.3661 513.1689,-380.3661 569.1689,-380.3661 569.1689,-398.3661"/>
<text text-anchor="middle" x="541.1689" y="-387.1661" font-family="Times,serif" font-size="9.00" fill="#000000">x&#45;other&#45;vel</text>
</g>
<!-- x&#45;other&#45;vel&#45;&gt;right -->
<g id="edge21" class="edge">
<title>x&#45;other&#45;vel&#45;&gt;right</title>
<path fill="none" stroke="#ff0000" stroke-width=".5766" d="M512.9097,-384.0405C463.6191,-374.249 364.7303,-352.2172 339.1689,-328.6173 317.376,-308.4967 306.4876,-276.0063 301.1355,-251.4977"/>
<polygon fill="#ff0000" stroke="#ff0000" stroke-width=".5766" points="304.5401,-250.6722 299.165,-241.5421 297.6733,-252.0314 304.5401,-250.6722"/>
</g>
<!-- 3150 -->
<g id="node24" class="node">
<title>3150</title>
<ellipse fill="#ffffff" stroke="#000000" cx="761.1689" cy="-303.8686" rx="25" ry="25"/>
<text text-anchor="middle" x="761.1689" y="-301.6686" font-family="Times,serif" font-size="9.00" fill="#000000">3150</text>
</g>
<!-- x&#45;other&#45;vel&#45;&gt;3150 -->
<g id="edge33" class="edge">
<title>x&#45;other&#45;vel&#45;&gt;3150</title>
<path fill="none" stroke="#00ff00" stroke-width=".1453" d="M569.2393,-383.3104C606.844,-374.5254 674.9977,-356.2171 728.1689,-328.6173 729.9327,-327.7018 731.7019,-326.6939 733.4545,-325.6245"/>
<polygon fill="#00ff00" stroke="#00ff00" stroke-width=".1453" points="735.6235,-328.3841 741.9788,-319.9071 731.7243,-322.5707 735.6235,-328.3841"/>
</g>
<!-- y&#45;other&#45;vel -->
<g id="node12" class="node">
<title>y&#45;other&#45;vel</title>
<polygon fill="#d3d3d3" stroke="#000000" points="200.1689,-312.8686 144.1689,-312.8686 144.1689,-294.8686 200.1689,-294.8686 200.1689,-312.8686"/>
<text text-anchor="middle" x="172.1689" y="-301.6686" font-family="Times,serif" font-size="9.00" fill="#000000">y&#45;other&#45;vel</text>
</g>
<!-- y&#45;other&#45;vel&#45;&gt;none -->
<g id="edge6" class="edge">
<title>y&#45;other&#45;vel&#45;&gt;none</title>
<path fill="none" stroke="#00ff00" stroke-width=".868" stroke-dasharray="1,5" d="M179.5036,-294.8466C200.3719,-269.2091 258.9123,-197.5198 264.1689,-193.6224 297.1249,-169.1875 312.9498,-176.8924 349.1689,-157.6224 352.3227,-155.9444 355.5523,-154.0838 358.7318,-152.1579"/>
<polygon fill="#00ff00" stroke="#00ff00" stroke-width=".868" points="360.8645,-154.9508 367.455,-146.6553 357.1298,-149.0303 360.8645,-154.9508"/>
</g>
<!-- y&#45;other&#45;vel&#45;&gt;right -->
<g id="edge15" class="edge">
<title>y&#45;other&#45;vel&#45;&gt;right</title>
<path fill="none" stroke="#00ff00" stroke-width=".3431" stroke-dasharray="1,5" d="M185.4391,-294.7189C205.1977,-281.0954 242.7935,-255.1732 268.6529,-237.3433"/>
<polygon fill="#00ff00" stroke="#00ff00" stroke-width=".3431" points="270.684,-240.1942 276.93,-231.6363 266.7104,-234.4313 270.684,-240.1942"/>
</g>
<!-- y&#45;other&#45;vel&#45;&gt;forward -->
<g id="edge14" class="edge">
<title>y&#45;other&#45;vel&#45;&gt;forward</title>
<path fill="none" stroke="#ff0000" stroke-width=".3266" stroke-dasharray="1,5" d="M164.16,-294.7897C154.8458,-283.5663 140.0029,-263.4473 134.1689,-243.1198 117.9892,-186.7448 130.0002,-118.5254 140.9356,-76.2041"/>
<polygon fill="#ff0000" stroke="#ff0000" stroke-width=".3266" points="144.3163,-77.1099 143.5299,-66.5443 137.5559,-75.2943 144.3163,-77.1099"/>
</g>
<!-- 2852&#45;&gt;none -->
<g id="edge29" class="edge">
<title>2852&#45;&gt;none</title>
<path fill="none" stroke="#ff0000" stroke-width=".199" stroke-dasharray="1,5" d="M549.4843,-207.8874C516.6247,-192.7014 455.6631,-164.5281 418.5234,-147.364"/>
<polygon fill="#ff0000" stroke="#ff0000" stroke-width=".199" points="419.7203,-144.0616 409.1745,-143.0435 416.7837,-150.4158 419.7203,-144.0616"/>
</g>
<!-- 3907&#45;&gt;forward -->
<g id="edge41" class="edge">
<title>3907&#45;&gt;forward</title>
<path fill="none" stroke="#00ff00" stroke-width=".2954" d="M46.9107,-198.5743C31.2381,-175.635 11.3348,-137.2609 28.1689,-108.1249 46.2394,-76.8489 83.6128,-57.943 112.8098,-47.3948"/>
<polygon fill="#00ff00" stroke="#00ff00" stroke-width=".2954" points="114.027,-50.6776 122.3582,-44.1322 111.7637,-44.0536 114.027,-50.6776"/>
</g>
<!-- 3528 -->
<g id="node21" class="node">
<title>3528</title>
<ellipse fill="#ffffff" stroke="#000000" cx="736.1689" cy="-132.8736" rx="25" ry="25"/>
<text text-anchor="middle" x="736.1689" y="-130.6736" font-family="Times,serif" font-size="9.00" fill="#000000">3528</text>
</g>
<!-- 3907&#45;&gt;3528 -->
<g id="edge50" class="edge">
<title>3907&#45;&gt;3528</title>
<path fill="none" stroke="#00ff00" stroke-width=".557" stroke-dasharray="1,5" d="M85.0793,-208.7326C99.0149,-203.3173 117.3185,-196.9878 134.1689,-193.6224 258.4123,-168.8077 584.2983,-201.4627 703.1689,-157.6224 705.0838,-156.9161 706.9813,-156.0604 708.8416,-155.0973"/>
<polygon fill="#00ff00" stroke="#00ff00" stroke-width=".557" points="711.0856,-157.8242 717.7409,-149.5806 707.3974,-151.8746 711.0856,-157.8242"/>
</g>
<!-- 4440 -->
<g id="node26" class="node">
<title>4440</title>
<ellipse fill="#ffffff" stroke="#000000" cx="62.1689" cy="-132.8736" rx="25" ry="25"/>
<text text-anchor="middle" x="62.1689" y="-130.6736" font-family="Times,serif" font-size="9.00" fill="#000000">4440</text>
</g>
<!-- 3907&#45;&gt;4440 -->
<g id="edge48" class="edge">
<title>3907&#45;&gt;4440</title>
<path fill="none" stroke="#00ff00" stroke-width=".1694" d="M62.1689,-193.1815C62.1689,-185.2672 62.1689,-176.3812 62.1689,-167.9126"/>
<polygon fill="#00ff00" stroke="#00ff00" stroke-width=".1694" points="65.669,-167.8832 62.1689,-157.8832 58.669,-167.8833 65.669,-167.8832"/>
</g>
<!-- 4038 -->
<g id="node20" class="node">
<title>4038</title>
<ellipse fill="#ffffff" stroke="#000000" cx="568.1689" cy="-303.8686" rx="25" ry="25"/>
<text text-anchor="middle" x="568.1689" y="-301.6686" font-family="Times,serif" font-size="9.00" fill="#000000">4038</text>
</g>
<!-- 4038&#45;&gt;2852 -->
<g id="edge42" class="edge">
<title>4038&#45;&gt;2852</title>
<path fill="none" stroke="#ff0000" stroke-width=".1283" d="M569.3259,-279.1392C569.6999,-271.1451 570.122,-262.122 570.5243,-253.5226"/>
<polygon fill="#ff0000" stroke="#ff0000" stroke-width=".1283" points="574.0294,-253.4938 571.0007,-243.3411 567.0371,-253.1666 574.0294,-253.4938"/>
</g>
<!-- 3528&#45;&gt;backward -->
<g id="edge35" class="edge">
<title>3528&#45;&gt;backward</title>
<path fill="none" stroke="#ff0000" stroke-width=".2277" d="M718.9279,-115.117C706.5387,-102.3572 689.4629,-84.7708 674.5621,-69.4244"/>
<polygon fill="#ff0000" stroke="#ff0000" stroke-width=".2277" points="676.9291,-66.8379 667.4519,-62.1016 671.907,-71.7142 676.9291,-66.8379"/>
</g>
<!-- 2057&#45;&gt;forward -->
<g id="edge45" class="edge">
<title>2057&#45;&gt;forward</title>
<path fill="none" stroke="#ff0000" stroke-width=".2264" d="M780.6086,-194.4113C786.6897,-169.552 791.2332,-131.154 770.1689,-108.1249 750.6603,-86.7966 331.0063,-50.6439 195.1797,-39.461"/>
<polygon fill="#ff0000" stroke="#ff0000" stroke-width=".2264" points="195.4067,-35.968 185.154,-38.6385 194.8343,-42.9445 195.4067,-35.968"/>
</g>
<!-- 2057&#45;&gt;backward -->
<g id="edge25" class="edge">
<title>2057&#45;&gt;backward</title>
<path fill="none" stroke="#00ff00" stroke-width=".1039" stroke-dasharray="1,5" d="M797.3063,-212.8927C823.9268,-205.4182 865.4639,-189.1824 884.1689,-157.6224 895.3852,-138.6976 897.3187,-125.761 884.1689,-108.1249 860.7124,-76.6657 751.7051,-53.9635 688.2789,-43.1562"/>
<polygon fill="#00ff00" stroke="#00ff00" stroke-width=".1039" points="688.5723,-39.6568 678.1325,-41.4624 687.4197,-46.5613 688.5723,-39.6568"/>
</g>
<!-- 2057&#45;&gt;3528 -->
<g id="edge34" class="edge">
<title>2057&#45;&gt;3528</title>
<path fill="none" stroke="#ff0000" stroke-width=".5076" d="M763.2536,-195.4593C759.2306,-186.1633 754.5117,-175.2591 750.1498,-165.18"/>
<polygon fill="#ff0000" stroke="#ff0000" stroke-width=".5076" points="753.2954,-163.636 746.1116,-155.8486 746.8712,-166.4162 753.2954,-163.636"/>
</g>
<!-- 2665&#45;&gt;2057 -->
<g id="edge27" class="edge">
<title>2665&#45;&gt;2057</title>
<path fill="none" stroke="#ff0000" stroke-width=".6825" stroke-dasharray="1,5" d="M811.1728,-364.5768C808.1503,-342.0547 802.831,-308.0319 795.1689,-279.1198 792.7,-269.8036 789.4101,-259.8978 786.1284,-250.8475"/>
<polygon fill="#ff0000" stroke="#ff0000" stroke-width=".6825" points="789.3888,-249.5736 782.6099,-241.4313 782.8316,-252.0238 789.3888,-249.5736"/>
</g>
<!-- 2665&#45;&gt;3150 -->
<g id="edge31" class="edge">
<title>2665&#45;&gt;3150</title>
<path fill="none" stroke="#00ff00" stroke-width=".2042" d="M801.0678,-368.2318C794.6338,-357.8528 786.7698,-345.167 779.7295,-333.8098"/>
<polygon fill="#00ff00" stroke="#00ff00" stroke-width=".2042" points="782.5466,-331.7113 774.303,-325.056 776.597,-335.3995 782.5466,-331.7113"/>
</g>
<!-- 4316 -->
<g id="node27" class="node">
<title>4316</title>
<ellipse fill="#ffffff" stroke="#000000" cx="867.1689" cy="-303.8686" rx="25" ry="25"/>
<text text-anchor="middle" x="867.1689" y="-301.6686" font-family="Times,serif" font-size="9.00" fill="#000000">4316</text>
</g>
<!-- 2665&#45;&gt;4316 -->
<g id="edge46" class="edge">
<title>2665&#45;&gt;4316</title>
<path fill="none" stroke="#00ff00" stroke-width=".2745" d="M827.27,-368.2318C833.704,-357.8528 841.568,-345.167 848.6083,-333.8098"/>
<polygon fill="#00ff00" stroke="#00ff00" stroke-width=".2745" points="851.7408,-335.3995 854.0348,-325.056 845.7912,-331.7113 851.7408,-335.3995"/>
</g>
<!-- 3150&#45;&gt;2057 -->
<g id="edge32" class="edge">
<title>3150&#45;&gt;2057</title>
<path fill="none" stroke="#00ff00" stroke-width=".1008" d="M764.6398,-279.1392C765.7841,-270.9863 767.0786,-261.7632 768.307,-253.0109"/>
<polygon fill="#00ff00" stroke="#00ff00" stroke-width=".1008" points="771.7818,-253.4344 769.7058,-243.0449 764.8498,-252.4614 771.7818,-253.4344"/>
</g>
<!-- 4078&#45;&gt;backward -->
<g id="edge44" class="edge">
<title>4078&#45;&gt;backward</title>
<path fill="none" stroke="#00ff00" stroke-width=".2535" stroke-dasharray="1,5" d="M662.4947,-108.9428C660.1304,-100.465 657.3869,-90.6281 654.6953,-80.9772"/>
<polygon fill="#00ff00" stroke="#00ff00" stroke-width=".2535" points="657.9851,-79.7441 651.9273,-71.052 651.2424,-81.6247 657.9851,-79.7441"/>
</g>
<!-- 4440&#45;&gt;forward -->
<g id="edge49" class="edge">
<title>4440&#45;&gt;forward</title>
<path fill="none" stroke="#00ff00" stroke-width=".178" d="M79.2853,-114.6642C91.9394,-101.202 109.4703,-82.5516 124.2798,-66.7964"/>
<polygon fill="#00ff00" stroke="#00ff00" stroke-width=".178" points="126.9992,-69.0136 131.298,-59.33 121.8987,-64.2193 126.9992,-69.0136"/>
</g>
<!-- 4316&#45;&gt;2057 -->
<g id="edge47" class="edge">
<title>4316&#45;&gt;2057</title>
<path fill="none" stroke="#ff0000" stroke-width=".3138" d="M848.5975,-286.977C834.5642,-274.2131 815.1147,-256.5228 799.4806,-242.3029"/>
<polygon fill="#ff0000" stroke="#ff0000" stroke-width=".3138" points="801.4545,-239.367 791.7017,-235.2276 796.7444,-244.5454 801.4545,-239.367"/>
</g>
<!-- 3581&#45;&gt;forward -->
<g id="edge37" class="edge">
<title>3581&#45;&gt;forward</title>
<path fill="none" stroke="#ff0000" stroke-width=".3373" stroke-dasharray="1,5" d="M194.1424,-110.9057C188.0475,-99.7725 180.479,-85.9479 173.5117,-73.2212"/>
<polygon fill="#ff0000" stroke="#ff0000" stroke-width=".3373" points="176.4465,-71.2933 168.5744,-64.2024 170.3064,-74.6547 176.4465,-71.2933"/>
</g>
</g>
</svg>
