<?xml version="1.0" encoding="UTF-8" standalone="no"?>
<!DOCTYPE svg PUBLIC "-//W3C//DTD SVG 1.1//EN"
 "http://www.w3.org/Graphics/SVG/1.1/DTD/svg11.dtd">
<!-- Generated by graphviz version 2.40.1 (20161225.0304)
 -->
<!-- Title: %3 Pages: 1 -->
<svg width="928pt" height="654pt"
 viewBox="0.00 0.00 927.75 654.18" xmlns="http://www.w3.org/2000/svg" xmlns:xlink="http://www.w3.org/1999/xlink">
<g id="graph0" class="graph" transform="scale(1 1) rotate(0) translate(4 650.1808)">
<title>%3</title>
<polygon fill="#ffffff" stroke="transparent" points="-4,4 -4,-650.1808 923.7487,-650.1808 923.7487,4 -4,4"/>
<!-- x&#45;vel -->
<g id="node1" class="node">
<title>x&#45;vel</title>
<polygon fill="#d3d3d3" stroke="#000000" points="853.2487,-412.5082 818.2487,-412.5082 818.2487,-394.5082 853.2487,-394.5082 853.2487,-412.5082"/>
<text text-anchor="middle" x="835.7487" y="-401.3082" font-family="Times,serif" font-size="9.00" fill="#000000">x&#45;vel</text>
</g>
<!-- left -->
<g id="node15" class="node">
<title>left</title>
<ellipse fill="#add8e6" stroke="#000000" cx="595.7487" cy="-318.0107" rx="19.6" ry="19.6"/>
<text text-anchor="middle" x="595.7487" y="-315.8107" font-family="Times,serif" font-size="9.00" fill="#000000">left</text>
</g>
<!-- x&#45;vel&#45;&gt;left -->
<g id="edge42" class="edge">
<title>x&#45;vel&#45;&gt;left</title>
<path fill="none" stroke="#00ff00" stroke-width=".5307" d="M818.101,-397.2214C776.8821,-382.5376 673.9948,-345.885 623.9599,-328.0606"/>
<polygon fill="#00ff00" stroke="#00ff00" stroke-width=".5307" points="625.0034,-324.717 614.4087,-324.6581 622.6542,-331.311 625.0034,-324.717"/>
</g>
<!-- forward -->
<g id="node16" class="node">
<title>forward</title>
<ellipse fill="#add8e6" stroke="#000000" cx="211.7487" cy="-117.3173" rx="31.6406" ry="31.6406"/>
<text text-anchor="middle" x="211.7487" y="-115.1173" font-family="Times,serif" font-size="9.00" fill="#000000">forward</text>
</g>
<!-- x&#45;vel&#45;&gt;forward -->
<g id="edge60" class="edge">
<title>x&#45;vel&#45;&gt;forward</title>
<path fill="none" stroke="#00ff00" stroke-width=".2573" d="M837.5244,-394.1558C843.6191,-358.8486 859.6517,-233.2293 789.7487,-185.1371 701.9892,-124.7597 416.3221,-169.4243 311.7487,-149.1371 291.3762,-145.1848 269.3353,-138.45 251.144,-132.1914"/>
<polygon fill="#00ff00" stroke="#00ff00" stroke-width=".2573" points="252.0636,-128.8046 241.4688,-128.784 249.7384,-135.4071 252.0636,-128.8046"/>
</g>
<!-- backward -->
<g id="node17" class="node">
<title>backward</title>
<ellipse fill="#add8e6" stroke="#000000" cx="726.7487" cy="-221.1995" rx="36.125" ry="36.125"/>
<text text-anchor="middle" x="726.7487" y="-218.9995" font-family="Times,serif" font-size="9.00" fill="#000000">backward</text>
</g>
<!-- x&#45;vel&#45;&gt;backward -->
<g id="edge17" class="edge">
<title>x&#45;vel&#45;&gt;backward</title>
<path fill="none" stroke="#00ff00" stroke-width=".2685" d="M836.6054,-394.4905C838.0494,-374.686 839.1339,-326.5111 819.7487,-293.262 807.5262,-272.2981 786.6187,-255.272 767.7196,-243.0437"/>
<polygon fill="#00ff00" stroke="#00ff00" stroke-width=".2685" points="769.5582,-240.0656 759.216,-237.766 765.8669,-246.0132 769.5582,-240.0656"/>
</g>
<!-- y&#45;vel -->
<g id="node2" class="node">
<title>y&#45;vel</title>
<polygon fill="#d3d3d3" stroke="#000000" points="459.2487,-327.0107 424.2487,-327.0107 424.2487,-309.0107 459.2487,-309.0107 459.2487,-327.0107"/>
<text text-anchor="middle" x="441.7487" y="-315.8107" font-family="Times,serif" font-size="9.00" fill="#000000">y&#45;vel</text>
</g>
<!-- y&#45;vel&#45;&gt;backward -->
<g id="edge15" class="edge">
<title>y&#45;vel&#45;&gt;backward</title>
<path fill="none" stroke="#ff0000" stroke-width=".1154" d="M451.4516,-308.9189C457.4753,-303.6975 465.5999,-297.3798 473.7487,-293.262 541.7702,-258.8893 628.6149,-238.7082 680.8395,-228.8224"/>
<polygon fill="#ff0000" stroke="#ff0000" stroke-width=".1154" points="681.6091,-232.2396 690.807,-226.9814 680.3376,-225.356 681.6091,-232.2396"/>
</g>
<!-- 1432 -->
<g id="node29" class="node">
<title>1432</title>
<ellipse fill="#ffffff" stroke="#000000" cx="345.7487" cy="-117.3173" rx="25" ry="25"/>
<text text-anchor="middle" x="345.7487" y="-115.1173" font-family="Times,serif" font-size="9.00" fill="#000000">1432</text>
</g>
<!-- y&#45;vel&#45;&gt;1432 -->
<g id="edge53" class="edge">
<title>y&#45;vel&#45;&gt;1432</title>
<path fill="none" stroke="#ff0000" stroke-width=".2125" d="M453.1137,-308.876C471.8954,-293.6556 507.6595,-264.0977 510.7487,-257.262 523.9499,-228.0509 528.5941,-211.766 510.7487,-185.1371 481.7847,-141.9167 419.7836,-126.2156 380.5757,-120.5282"/>
<polygon fill="#ff0000" stroke="#ff0000" stroke-width=".2125" points="381.0198,-117.0565 370.6505,-119.2309 380.1125,-123.9975 381.0198,-117.0565"/>
</g>
<!-- x&#45;pos -->
<g id="node3" class="node">
<title>x&#45;pos</title>
<polygon fill="#d3d3d3" stroke="#000000" points="491.7487,-412.5082 455.7487,-412.5082 455.7487,-394.5082 491.7487,-394.5082 491.7487,-412.5082"/>
<text text-anchor="middle" x="473.7487" y="-401.3082" font-family="Times,serif" font-size="9.00" fill="#000000">x&#45;pos</text>
</g>
<!-- none -->
<g id="node13" class="node">
<title>none</title>
<ellipse fill="#add8e6" stroke="#000000" cx="325.7487" cy="-318.0107" rx="24.0833" ry="24.0833"/>
<text text-anchor="middle" x="325.7487" y="-315.8107" font-family="Times,serif" font-size="9.00" fill="#000000">none</text>
</g>
<!-- x&#45;pos&#45;&gt;none -->
<g id="edge8" class="edge">
<title>x&#45;pos&#45;&gt;none</title>
<path fill="none" stroke="#00ff00" stroke-width=".5056" stroke-dasharray="1,5" d="M464.7939,-394.1237C459.7779,-389.1814 453.2403,-383.235 446.7487,-378.7595 431.2073,-368.0445 387.5366,-346.8615 357.1517,-332.5639"/>
<polygon fill="#00ff00" stroke="#00ff00" stroke-width=".5056" points="358.3462,-329.2585 347.8058,-328.1857 355.3766,-335.5974 358.3462,-329.2585"/>
</g>
<!-- x&#45;pos&#45;&gt;left -->
<g id="edge41" class="edge">
<title>x&#45;pos&#45;&gt;left</title>
<path fill="none" stroke="#00ff00" stroke-width=".3713" d="M482.7652,-394.2114C487.7992,-389.2947 494.3343,-383.3449 500.7487,-378.7595 527.9307,-359.3279 539.2266,-361.7061 566.7487,-342.7595 568.8954,-341.2816 571.0678,-339.6729 573.2072,-338.0086"/>
<polygon fill="#00ff00" stroke="#00ff00" stroke-width=".3713" points="575.6612,-340.5224 581.1708,-331.4728 571.2204,-335.1114 575.6612,-340.5224"/>
</g>
<!-- x&#45;pos&#45;&gt;forward -->
<g id="edge24" class="edge">
<title>x&#45;pos&#45;&gt;forward</title>
<path fill="none" stroke="#00ff00" stroke-width=".4356" stroke-dasharray="1,5" d="M464.1855,-394.2731C448.3828,-378.9013 418.298,-349.1211 415.7487,-342.7595 407.5659,-322.3391 404.7728,-312.3271 415.7487,-293.262 431.6466,-265.6474 461.8508,-284.8766 477.7487,-257.262 493.7422,-229.4813 497.8705,-210.0904 477.7487,-185.1371 430.3606,-126.3704 384.6884,-168.6042 311.7487,-149.1371 291.8467,-143.8254 270.0187,-136.9989 251.8478,-131.0317"/>
<polygon fill="#00ff00" stroke="#00ff00" stroke-width=".4356" points="252.758,-127.6462 242.1646,-127.8201 250.5543,-134.2903 252.758,-127.6462"/>
</g>
<!-- x&#45;pos&#45;&gt;backward -->
<g id="edge3" class="edge">
<title>x&#45;pos&#45;&gt;backward</title>
<path fill="none" stroke="#00ff00" stroke-width=".1572" d="M473.7826,-394.4109C474.3617,-373.5826 478.7201,-322.0204 506.7487,-293.262 531.2271,-268.1463 624.5751,-243.7837 681.5162,-230.8198"/>
<polygon fill="#00ff00" stroke="#00ff00" stroke-width=".1572" points="682.366,-234.2162 691.3562,-228.6103 680.8323,-227.3863 682.366,-234.2162"/>
</g>
<!-- y&#45;pos -->
<g id="node4" class="node">
<title>y&#45;pos</title>
<polygon fill="#d3d3d3" stroke="#000000" points="114.7487,-498.0057 78.7487,-498.0057 78.7487,-480.0057 114.7487,-480.0057 114.7487,-498.0057"/>
<text text-anchor="middle" x="96.7487" y="-486.8057" font-family="Times,serif" font-size="9.00" fill="#000000">y&#45;pos</text>
</g>
<!-- right -->
<g id="node14" class="node">
<title>right</title>
<ellipse fill="#add8e6" stroke="#000000" cx="166.7487" cy="-318.0107" rx="23.1702" ry="23.1702"/>
<text text-anchor="middle" x="166.7487" y="-315.8107" font-family="Times,serif" font-size="9.00" fill="#000000">right</text>
</g>
<!-- y&#45;pos&#45;&gt;right -->
<g id="edge7" class="edge">
<title>y&#45;pos&#45;&gt;right</title>
<path fill="none" stroke="#ff0000" stroke-width=".3804" d="M99.3498,-479.97C104.9455,-460.9166 118.9105,-415.3625 134.7487,-378.7595 139.2688,-368.3133 144.8688,-357.2084 150.1144,-347.3895"/>
<polygon fill="#ff0000" stroke="#ff0000" stroke-width=".3804" points="153.2827,-348.8896 154.9881,-338.4329 147.134,-345.5437 153.2827,-348.8896"/>
</g>
<!-- y&#45;pos&#45;&gt;forward -->
<g id="edge4" class="edge">
<title>y&#45;pos&#45;&gt;forward</title>
<path fill="none" stroke="#ff0000" stroke-width=".2022" d="M93.7578,-479.9931C81.5116,-441.3565 38.5291,-287.061 96.7487,-185.1371 112.7216,-157.1738 145.23,-139.5869 171.6206,-129.3499"/>
<polygon fill="#ff0000" stroke="#ff0000" stroke-width=".2022" points="172.8386,-132.6313 181.0247,-125.9054 170.431,-126.0583 172.8386,-132.6313"/>
</g>
<!-- 583 -->
<g id="node20" class="node">
<title>583</title>
<ellipse fill="#ffffff" stroke="#000000" cx="164.7487" cy="-403.5082" rx="21.4286" ry="21.4286"/>
<text text-anchor="middle" x="164.7487" y="-401.3082" font-family="Times,serif" font-size="9.00" fill="#000000">583</text>
</g>
<!-- y&#45;pos&#45;&gt;583 -->
<g id="edge29" class="edge">
<title>y&#45;pos&#45;&gt;583</title>
<path fill="none" stroke="#ff0000" stroke-width=".1001" d="M104.0259,-479.8559C113.7424,-467.6392 131.3248,-445.5327 145.0783,-428.2402"/>
<polygon fill="#ff0000" stroke="#ff0000" stroke-width=".1001" points="147.9857,-430.2074 151.4712,-420.2023 142.5072,-425.8501 147.9857,-430.2074"/>
</g>
<!-- 1590 -->
<g id="node28" class="node">
<title>1590</title>
<ellipse fill="#ffffff" stroke="#000000" cx="24.7487" cy="-221.1995" rx="25" ry="25"/>
<text text-anchor="middle" x="24.7487" y="-218.9995" font-family="Times,serif" font-size="9.00" fill="#000000">1590</text>
</g>
<!-- y&#45;pos&#45;&gt;1590 -->
<g id="edge51" class="edge">
<title>y&#45;pos&#45;&gt;1590</title>
<path fill="none" stroke="#ff0000" stroke-width=".2406" d="M90.6571,-479.9582C83.1877,-468.4433 70.6702,-447.706 63.7487,-428.2569 42.9455,-369.8002 32.5882,-297.9045 27.9673,-256.0436"/>
<polygon fill="#ff0000" stroke="#ff0000" stroke-width=".2406" points="31.4454,-255.6511 26.9133,-246.0746 24.4842,-256.3872 31.4454,-255.6511"/>
</g>
<!-- x&#45;lm1&#45;vec -->
<g id="node5" class="node">
<title>x&#45;lm1&#45;vec</title>
<polygon fill="#d3d3d3" stroke="#000000" points="710.2487,-646.1808 657.2487,-646.1808 657.2487,-628.1808 710.2487,-628.1808 710.2487,-646.1808"/>
<text text-anchor="middle" x="683.7487" y="-634.9808" font-family="Times,serif" font-size="9.00" fill="#000000">x&#45;lm1&#45;vec</text>
</g>
<!-- x&#45;lm1&#45;vec&#45;&gt;backward -->
<g id="edge22" class="edge">
<title>x&#45;lm1&#45;vec&#45;&gt;backward</title>
<path fill="none" stroke="#00ff00" stroke-width=".1756" stroke-dasharray="1,5" d="M710.3622,-633.3072C772.0822,-622.6667 919.7487,-586.9724 919.7487,-489.0057 919.7487,-489.0057 919.7487,-489.0057 919.7487,-403.5082 919.7487,-349.521 906.2237,-332.1238 868.7487,-293.262 841.8223,-265.339 801.7535,-246.3766 771.0383,-234.9406"/>
<polygon fill="#00ff00" stroke="#00ff00" stroke-width=".1756" points="772.0176,-231.5736 761.423,-231.4903 769.6533,-238.1622 772.0176,-231.5736"/>
</g>
<!-- 653 -->
<g id="node23" class="node">
<title>653</title>
<ellipse fill="#ffffff" stroke="#000000" cx="659.7487" cy="-570.9676" rx="21.4286" ry="21.4286"/>
<text text-anchor="middle" x="659.7487" y="-568.7676" font-family="Times,serif" font-size="9.00" fill="#000000">653</text>
</g>
<!-- x&#45;lm1&#45;vec&#45;&gt;653 -->
<g id="edge31" class="edge">
<title>x&#45;lm1&#45;vec&#45;&gt;653</title>
<path fill="none" stroke="#ff0000" stroke-width=".2408" stroke-dasharray="1,5" d="M680.4116,-627.9741C677.8228,-620.8317 674.082,-610.5115 670.4929,-600.6094"/>
<polygon fill="#ff0000" stroke="#ff0000" stroke-width=".2408" points="673.7007,-599.1885 667.0024,-590.9797 667.1197,-601.5739 673.7007,-599.1885"/>
</g>
<!-- y&#45;lm1&#45;vec -->
<g id="node6" class="node">
<title>y&#45;lm1&#45;vec</title>
<polygon fill="#d3d3d3" stroke="#000000" points="751.2487,-412.5082 698.2487,-412.5082 698.2487,-394.5082 751.2487,-394.5082 751.2487,-412.5082"/>
<text text-anchor="middle" x="724.7487" y="-401.3082" font-family="Times,serif" font-size="9.00" fill="#000000">y&#45;lm1&#45;vec</text>
</g>
<!-- y&#45;lm1&#45;vec&#45;&gt;left -->
<g id="edge9" class="edge">
<title>y&#45;lm1&#45;vec&#45;&gt;left</title>
<path fill="none" stroke="#ff0000" stroke-width=".1747" stroke-dasharray="1,5" d="M711.802,-394.4987C704.9715,-389.7731 696.4351,-383.9109 688.7487,-378.7595 666.0328,-363.5351 639.949,-346.5385 621.1975,-334.4037"/>
<polygon fill="#ff0000" stroke="#ff0000" stroke-width=".1747" points="622.9267,-331.354 612.6281,-328.8663 619.1275,-337.2333 622.9267,-331.354"/>
</g>
<!-- y&#45;lm1&#45;vec&#45;&gt;backward -->
<g id="edge19" class="edge">
<title>y&#45;lm1&#45;vec&#45;&gt;backward</title>
<path fill="none" stroke="#00ff00" stroke-width=".1933" d="M723.5756,-394.4717C722.1019,-382.623 719.6561,-361.1776 718.7487,-342.7595 717.6663,-320.7872 717.5332,-315.2272 718.7487,-293.262 719.2186,-284.7704 719.9977,-275.7417 720.8901,-267.0508"/>
<polygon fill="#00ff00" stroke="#00ff00" stroke-width=".1933" points="724.3752,-267.3761 721.9779,-257.0561 717.4163,-266.6186 724.3752,-267.3761"/>
</g>
<!-- 1823 -->
<g id="node30" class="node">
<title>1823</title>
<ellipse fill="#ffffff" stroke="#000000" cx="752.7487" cy="-318.0107" rx="25" ry="25"/>
<text text-anchor="middle" x="752.7487" y="-315.8107" font-family="Times,serif" font-size="9.00" fill="#000000">1823</text>
</g>
<!-- y&#45;lm1&#45;vec&#45;&gt;1823 -->
<g id="edge58" class="edge">
<title>y&#45;lm1&#45;vec&#45;&gt;1823</title>
<path fill="none" stroke="#00ff00" stroke-width=".3005" d="M727.7452,-394.3585C731.1014,-384.1106 736.7366,-366.9036 741.8085,-351.4167"/>
<polygon fill="#00ff00" stroke="#00ff00" stroke-width=".3005" points="745.2443,-352.171 745.0305,-341.5784 738.5919,-349.9924 745.2443,-352.171"/>
</g>
<!-- x&#45;lm2&#45;vec -->
<g id="node7" class="node">
<title>x&#45;lm2&#45;vec</title>
<polygon fill="#d3d3d3" stroke="#000000" points="265.2487,-230.1995 212.2487,-230.1995 212.2487,-212.1995 265.2487,-212.1995 265.2487,-230.1995"/>
<text text-anchor="middle" x="238.7487" y="-218.9995" font-family="Times,serif" font-size="9.00" fill="#000000">x&#45;lm2&#45;vec</text>
</g>
<!-- x&#45;lm2&#45;vec&#45;&gt;forward -->
<g id="edge26" class="edge">
<title>x&#45;lm2&#45;vec&#45;&gt;forward</title>
<path fill="none" stroke="#ff0000" stroke-width=".4139" d="M236.3527,-211.9807C233.2171,-199.9166 227.5173,-177.9867 222.3928,-158.2704"/>
<polygon fill="#ff0000" stroke="#ff0000" stroke-width=".4139" points="225.763,-157.323 219.8599,-148.525 218.9881,-159.0839 225.763,-157.323"/>
</g>
<!-- y&#45;lm2&#45;vec -->
<g id="node8" class="node">
<title>y&#45;lm2&#45;vec</title>
<polygon fill="#d3d3d3" stroke="#000000" points="363.2487,-412.5082 310.2487,-412.5082 310.2487,-394.5082 363.2487,-394.5082 363.2487,-412.5082"/>
<text text-anchor="middle" x="336.7487" y="-401.3082" font-family="Times,serif" font-size="9.00" fill="#000000">y&#45;lm2&#45;vec</text>
</g>
<!-- y&#45;lm2&#45;vec&#45;&gt;right -->
<g id="edge47" class="edge">
<title>y&#45;lm2&#45;vec&#45;&gt;right</title>
<path fill="none" stroke="#ff0000" stroke-width=".1113" stroke-dasharray="1,5" d="M322.5375,-394.4356C314.741,-389.5846 304.8376,-383.626 295.7487,-378.7595 277.8007,-369.1493 229.6617,-346.8097 197.5375,-332.0658"/>
<polygon fill="#ff0000" stroke="#ff0000" stroke-width=".1113" points="198.6824,-328.7405 188.1333,-327.7565 195.7663,-335.1042 198.6824,-328.7405"/>
</g>
<!-- y&#45;lm2&#45;vec&#45;&gt;left -->
<g id="edge18" class="edge">
<title>y&#45;lm2&#45;vec&#45;&gt;left</title>
<path fill="none" stroke="#00ff00" stroke-width=".4273" stroke-dasharray="1,5" d="M347.3955,-394.4114C354.2177,-389.0524 363.5,-382.5923 372.7487,-378.7595 453.7618,-345.1863 487.594,-380.506 566.7487,-342.7595 569.1011,-341.6377 571.416,-340.2755 573.6491,-338.7734"/>
<polygon fill="#00ff00" stroke="#00ff00" stroke-width=".4273" points="575.9936,-341.3849 581.7639,-332.4993 571.7119,-335.847 575.9936,-341.3849"/>
</g>
<!-- x&#45;other&#45;vec -->
<g id="node9" class="node">
<title>x&#45;other&#45;vec</title>
<polygon fill="#d3d3d3" stroke="#000000" points="586.7487,-498.0057 528.7487,-498.0057 528.7487,-480.0057 586.7487,-480.0057 586.7487,-498.0057"/>
<text text-anchor="middle" x="557.7487" y="-486.8057" font-family="Times,serif" font-size="9.00" fill="#000000">x&#45;other&#45;vec</text>
</g>
<!-- x&#45;other&#45;vec&#45;&gt;right -->
<g id="edge13" class="edge">
<title>x&#45;other&#45;vec&#45;&gt;right</title>
<path fill="none" stroke="#00ff00" stroke-width=".4579" stroke-dasharray="1,5" d="M528.7164,-482.6537C463.7216,-468.3605 311.422,-434.433 301.7487,-428.2569 278.1428,-413.1852 283.5473,-397.5162 262.7487,-378.7595 242.6442,-360.6285 216.5001,-344.4759 196.5728,-333.3926"/>
<polygon fill="#00ff00" stroke="#00ff00" stroke-width=".4579" points="198.0781,-330.227 187.6216,-328.5205 194.7316,-336.3753 198.0781,-330.227"/>
</g>
<!-- x&#45;other&#45;vec&#45;&gt;left -->
<g id="edge5" class="edge">
<title>x&#45;other&#45;vec&#45;&gt;left</title>
<path fill="none" stroke="#00ff00" stroke-width=".2767" stroke-dasharray="1,5" d="M561.1025,-479.6439C565.2446,-467.8047 572.2881,-446.7329 576.7487,-428.2569 583.2511,-401.3239 588.4066,-370.1731 591.6972,-347.8688"/>
<polygon fill="#00ff00" stroke="#00ff00" stroke-width=".2767" points="595.2022,-348.0836 593.1605,-337.6873 588.2734,-347.0877 595.2022,-348.0836"/>
</g>
<!-- x&#45;other&#45;vec&#45;&gt;backward -->
<g id="edge1" class="edge">
<title>x&#45;other&#45;vec&#45;&gt;backward</title>
<path fill="none" stroke="#00ff00" stroke-width=".1145" stroke-dasharray="1,5" d="M587.1224,-483.7406C637.2061,-474.207 736.1123,-452.7841 760.7487,-428.2569 804.0491,-385.1485 807.5366,-350.7174 786.7487,-293.262 781.2965,-278.1927 771.1659,-264.0574 760.7609,-252.3659"/>
<polygon fill="#00ff00" stroke="#00ff00" stroke-width=".1145" points="763.3132,-249.9709 753.9301,-245.0506 758.1969,-254.7483 763.3132,-249.9709"/>
</g>
<!-- 1892 -->
<g id="node19" class="node">
<title>1892</title>
<ellipse fill="#ffffff" stroke="#000000" cx="228.7487" cy="-403.5082" rx="25" ry="25"/>
<text text-anchor="middle" x="228.7487" y="-401.3082" font-family="Times,serif" font-size="9.00" fill="#000000">1892</text>
</g>
<!-- x&#45;other&#45;vec&#45;&gt;1892 -->
<g id="edge61" class="edge">
<title>x&#45;other&#45;vec&#45;&gt;1892</title>
<path fill="none" stroke="#ff0000" stroke-width=".1158" d="M528.7187,-482.6027C505.6923,-477.5483 472.6817,-470.3563 443.7487,-464.2569 365.624,-447.7873 341.7876,-458.1395 267.7487,-428.2569 264.4512,-426.926 261.1259,-425.3136 257.8814,-423.5572"/>
<polygon fill="#ff0000" stroke="#ff0000" stroke-width=".1158" points="259.4325,-420.4085 249.0416,-418.3398 255.8745,-426.4369 259.4325,-420.4085"/>
</g>
<!-- y&#45;other&#45;vec -->
<g id="node10" class="node">
<title>y&#45;other&#45;vec</title>
<polygon fill="#d3d3d3" stroke="#000000" points="567.7487,-412.5082 509.7487,-412.5082 509.7487,-394.5082 567.7487,-394.5082 567.7487,-412.5082"/>
<text text-anchor="middle" x="538.7487" y="-401.3082" font-family="Times,serif" font-size="9.00" fill="#000000">y&#45;other&#45;vec</text>
</g>
<!-- y&#45;other&#45;vec&#45;&gt;left -->
<g id="edge21" class="edge">
<title>y&#45;other&#45;vec&#45;&gt;left</title>
<path fill="none" stroke="#ff0000" stroke-width=".9291" d="M544.8487,-394.3585C552.9194,-382.2528 567.4642,-360.4363 578.9451,-343.2155"/>
<polygon fill="#ff0000" stroke="#ff0000" stroke-width=".9291" points="581.984,-344.9668 584.619,-334.7048 576.1597,-341.0837 581.984,-344.9668"/>
</g>
<!-- y&#45;other&#45;vec&#45;&gt;backward -->
<g id="edge25" class="edge">
<title>y&#45;other&#45;vec&#45;&gt;backward</title>
<path fill="none" stroke="#00ff00" stroke-width=".4742" d="M560.0546,-394.4541C582.4227,-384.2204 617.7497,-365.9271 642.7487,-342.7595 667.9109,-319.4407 689.7071,-287.3121 704.7874,-261.9416"/>
<polygon fill="#00ff00" stroke="#00ff00" stroke-width=".4742" points="707.8266,-263.6776 709.8359,-253.2751 701.778,-260.1541 707.8266,-263.6776"/>
</g>
<!-- 713 -->
<g id="node21" class="node">
<title>713</title>
<ellipse fill="#ffffff" stroke="#000000" cx="536.7487" cy="-318.0107" rx="21.4286" ry="21.4286"/>
<text text-anchor="middle" x="536.7487" y="-315.8107" font-family="Times,serif" font-size="9.00" fill="#000000">713</text>
</g>
<!-- y&#45;other&#45;vec&#45;&gt;713 -->
<g id="edge33" class="edge">
<title>y&#45;other&#45;vec&#45;&gt;713</title>
<path fill="none" stroke="#00ff00" stroke-width=".5285" stroke-dasharray="1,5" d="M538.5347,-394.3585C538.2851,-383.6865 537.8589,-365.4677 537.4854,-349.5036"/>
<polygon fill="#00ff00" stroke="#00ff00" stroke-width=".5285" points="540.983,-349.3559 537.25,-339.4405 533.9849,-349.5197 540.983,-349.3559"/>
</g>
<!-- x&#45;other&#45;vel -->
<g id="node11" class="node">
<title>x&#45;other&#45;vel</title>
<polygon fill="#d3d3d3" stroke="#000000" points="437.7487,-412.5082 381.7487,-412.5082 381.7487,-394.5082 437.7487,-394.5082 437.7487,-412.5082"/>
<text text-anchor="middle" x="409.7487" y="-401.3082" font-family="Times,serif" font-size="9.00" fill="#000000">x&#45;other&#45;vel</text>
</g>
<!-- x&#45;other&#45;vel&#45;&gt;right -->
<g id="edge23" class="edge">
<title>x&#45;other&#45;vel&#45;&gt;right</title>
<path fill="none" stroke="#00ff00" stroke-width=".3464" d="M398.3733,-394.3462C391.3529,-389.0998 381.9555,-382.7806 372.7487,-378.7595 309.524,-351.1454 287.053,-365.0139 221.7487,-342.7595 213.5752,-339.9741 204.96,-336.4149 197.036,-332.8696"/>
<polygon fill="#00ff00" stroke="#00ff00" stroke-width=".3464" points="198.336,-329.6149 187.7894,-328.6049 195.4042,-335.9714 198.336,-329.6149"/>
</g>
<!-- x&#45;other&#45;vel&#45;&gt;left -->
<g id="edge6" class="edge">
<title>x&#45;other&#45;vel&#45;&gt;left</title>
<path fill="none" stroke="#00ff00" stroke-width=".3314" d="M421.5379,-394.2972C428.551,-389.1645 437.801,-382.9773 446.7487,-378.7595 497.115,-355.0174 517.8558,-369.4039 566.7487,-342.7595 569.0372,-341.5124 571.3077,-340.0634 573.5117,-338.5042"/>
<polygon fill="#00ff00" stroke="#00ff00" stroke-width=".3314" points="575.8973,-341.0802 581.5795,-332.138 571.5611,-335.585 575.8973,-341.0802"/>
</g>
<!-- x&#45;other&#45;vel&#45;&gt;forward -->
<g id="edge12" class="edge">
<title>x&#45;other&#45;vel&#45;&gt;forward</title>
<path fill="none" stroke="#ff0000" stroke-width=".4781" stroke-dasharray="1,5" d="M397.4036,-394.4963C390.3613,-389.5498 381.2651,-383.4807 372.7487,-378.7595 291.8425,-333.9071 240.0055,-342.3678 203.7487,-257.262 190.3108,-225.719 194.087,-186.5085 200.1999,-157.6239"/>
<polygon fill="#ff0000" stroke="#ff0000" stroke-width=".4781" points="203.6135,-158.3963 202.4351,-147.8672 196.7903,-156.833 203.6135,-158.3963"/>
</g>
<!-- x&#45;other&#45;vel&#45;&gt;713 -->
<g id="edge35" class="edge">
<title>x&#45;other&#45;vel&#45;&gt;713</title>
<path fill="none" stroke="#ff0000" stroke-width=".59" d="M423.34,-394.3585C444.0365,-380.4254 483.8416,-353.6282 510.3538,-335.78"/>
<polygon fill="#ff0000" stroke="#ff0000" stroke-width=".59" points="512.4477,-338.5896 518.7885,-330.1017 508.5385,-332.7829 512.4477,-338.5896"/>
</g>
<!-- y&#45;other&#45;vel -->
<g id="node12" class="node">
<title>y&#45;other&#45;vel</title>
<polygon fill="#d3d3d3" stroke="#000000" points="679.7487,-412.5082 623.7487,-412.5082 623.7487,-394.5082 679.7487,-394.5082 679.7487,-412.5082"/>
<text text-anchor="middle" x="651.7487" y="-401.3082" font-family="Times,serif" font-size="9.00" fill="#000000">y&#45;other&#45;vel</text>
</g>
<!-- y&#45;other&#45;vel&#45;&gt;left -->
<g id="edge14" class="edge">
<title>y&#45;other&#45;vel&#45;&gt;left</title>
<path fill="none" stroke="#00ff00" stroke-width=".4315" stroke-dasharray="1,5" d="M645.7558,-394.3585C637.8267,-382.2528 623.5371,-360.4363 612.2576,-343.2155"/>
<polygon fill="#00ff00" stroke="#00ff00" stroke-width=".4315" points="615.0903,-341.1524 606.6832,-334.7048 609.2346,-344.9879 615.0903,-341.1524"/>
</g>
<!-- none&#45;&gt;none -->
<g id="edge11" class="edge">
<title>none&#45;&gt;none</title>
<path fill="none" stroke="#00ff00" stroke-width=".1589" d="M345.2094,-332.7763C356.842,-336.0576 367.7904,-331.1357 367.7904,-318.0107 367.7904,-308.9873 362.6156,-303.8411 355.6013,-302.5722"/>
<polygon fill="#00ff00" stroke="#00ff00" stroke-width=".1589" points="354.9623,-299.1061 345.2094,-303.2451 355.4147,-306.0915 354.9623,-299.1061"/>
</g>
<!-- 1104 -->
<g id="node25" class="node">
<title>1104</title>
<ellipse fill="#ffffff" stroke="#000000" cx="307.7487" cy="-221.1995" rx="25" ry="25"/>
<text text-anchor="middle" x="307.7487" y="-218.9995" font-family="Times,serif" font-size="9.00" fill="#000000">1104</text>
</g>
<!-- none&#45;&gt;1104 -->
<g id="edge37" class="edge">
<title>none&#45;&gt;1104</title>
<path fill="none" stroke="#ff0000" stroke-width=".2743" stroke-dasharray="1,5" d="M315.9034,-296.0428C312.7498,-284.3334 309.7656,-269.6468 307.7707,-256.3917"/>
<polygon fill="#ff0000" stroke="#ff0000" stroke-width=".2743" points="311.1958,-255.5989 306.3984,-246.1524 304.2578,-256.5288 311.1958,-255.5989"/>
</g>
<!-- 500 -->
<g id="node27" class="node">
<title>500</title>
<ellipse fill="#ffffff" stroke="#000000" cx="447.7487" cy="-221.1995" rx="21.4286" ry="21.4286"/>
<text text-anchor="middle" x="447.7487" y="-218.9995" font-family="Times,serif" font-size="9.00" fill="#000000">500</text>
</g>
<!-- none&#45;&gt;500 -->
<g id="edge27" class="edge">
<title>none&#45;&gt;500</title>
<path fill="none" stroke="#ff0000" stroke-width=".2972" stroke-dasharray="1,5" d="M343.8746,-301.9398C360.2729,-290.3386 384.2458,-273.8549 403.7487,-257.262 410.0097,-251.9352 416.403,-245.6446 422.4318,-239.8211"/>
<polygon fill="#ff0000" stroke="#ff0000" stroke-width=".2972" points="424.9865,-242.222 429.836,-232.8022 420.1706,-237.1418 424.9865,-242.222"/>
</g>
<!-- right&#45;&gt;right -->
<g id="edge10" class="edge">
<title>right&#45;&gt;right</title>
<path fill="none" stroke="#ff0000" stroke-width="1.2251" d="M185.4529,-332.6494C197.0483,-336.1794 208.0833,-331.2998 208.0833,-318.0107 208.0833,-308.8745 202.8675,-303.713 195.8397,-302.5264"/>
<polygon fill="#ff0000" stroke="#ff0000" stroke-width="1.2251" points="195.1359,-299.072 185.4529,-303.372 195.704,-306.049 195.1359,-299.072"/>
</g>
<!-- 1452 -->
<g id="node22" class="node">
<title>1452</title>
<ellipse fill="#ffffff" stroke="#000000" cx="130.7487" cy="-221.1995" rx="25" ry="25"/>
<text text-anchor="middle" x="130.7487" y="-218.9995" font-family="Times,serif" font-size="9.00" fill="#000000">1452</text>
</g>
<!-- right&#45;&gt;1452 -->
<g id="edge55" class="edge">
<title>right&#45;&gt;1452</title>
<path fill="none" stroke="#00ff00" stroke-width=".1912" d="M153.915,-298.4195C148.1673,-286.1193 141.8284,-269.9162 137.025,-255.5298"/>
<polygon fill="#00ff00" stroke="#00ff00" stroke-width=".1912" points="140.3381,-254.3988 133.9711,-245.9305 133.6676,-256.521 140.3381,-254.3988"/>
</g>
<!-- left&#45;&gt;left -->
<g id="edge16" class="edge">
<title>left&#45;&gt;left</title>
<path fill="none" stroke="#ff0000" stroke-width=".2846" d="M610.4922,-331.7266C621.9063,-336.8561 633.5477,-332.2842 633.5477,-318.0107 633.5477,-307.9747 627.7924,-302.735 620.4074,-302.2915"/>
<polygon fill="#ff0000" stroke="#ff0000" stroke-width=".2846" points="619.6009,-298.8836 610.4922,-304.2948 620.9873,-305.745 619.6009,-298.8836"/>
</g>
<!-- 1571 -->
<g id="node18" class="node">
<title>1571</title>
<ellipse fill="#ffffff" stroke="#000000" cx="595.7487" cy="-24.7487" rx="25" ry="25"/>
<text text-anchor="middle" x="595.7487" y="-22.5487" font-family="Times,serif" font-size="9.00" fill="#000000">1571</text>
</g>
<!-- left&#45;&gt;1571 -->
<g id="edge49" class="edge">
<title>left&#45;&gt;1571</title>
<path fill="none" stroke="#00ff00" stroke-width=".1903" stroke-dasharray="1,5" d="M592.153,-298.3136C588.2899,-249.2678 587.9752,-121.1828 591.2089,-59.2592"/>
<polygon fill="#00ff00" stroke="#00ff00" stroke-width=".1903" points="594.7069,-59.3944 591.8057,-49.2045 587.7192,-58.9795 594.7069,-59.3944"/>
</g>
<!-- forward&#45;&gt;forward -->
<g id="edge20" class="edge">
<title>forward&#45;&gt;forward</title>
<path fill="none" stroke="#00ff00" stroke-width=".5032" d="M238.9088,-134.2977C251.0597,-135.9149 261.5685,-130.2548 261.5685,-117.3173 261.5685,-108.2206 256.3731,-102.7217 249.0645,-100.8207"/>
<polygon fill="#00ff00" stroke="#00ff00" stroke-width=".5032" points="249.0641,-97.3168 238.9088,-100.3368 248.7309,-104.3088 249.0641,-97.3168"/>
</g>
<!-- forward&#45;&gt;1571 -->
<g id="edge54" class="edge">
<title>forward&#45;&gt;1571</title>
<path fill="none" stroke="#00ff00" stroke-width=".5265" d="M242.1586,-106.7917C261.8597,-100.1841 288.1523,-91.7594 311.7487,-85.4975 400.8407,-61.8545 507.5167,-40.9998 561.23,-31.008"/>
<polygon fill="#00ff00" stroke="#00ff00" stroke-width=".5265" points="562.0482,-34.4161 571.2455,-29.1569 560.7759,-27.5327 562.0482,-34.4161"/>
</g>
<!-- backward&#45;&gt;backward -->
<g id="edge2" class="edge">
<title>backward&#45;&gt;backward</title>
<path fill="none" stroke="#ff0000" stroke-width=".3684" d="M758.1309,-239.1105C770.4891,-240.0136 780.8112,-234.0433 780.8112,-221.1995 780.8112,-212.1688 775.7081,-206.5361 768.3823,-204.3016"/>
<polygon fill="#ff0000" stroke="#ff0000" stroke-width=".3684" points="768.4267,-200.789 758.1309,-203.2885 767.7382,-207.7551 768.4267,-200.789"/>
</g>
<!-- 1571&#45;&gt;left -->
<g id="edge50" class="edge">
<title>1571&#45;&gt;left</title>
<path fill="none" stroke="#00ff00" stroke-width=".3398" stroke-dasharray="1,5" d="M599.6917,-49.2045C603.3209,-102.7649 603.431,-230.2717 600.0219,-288.3171"/>
<polygon fill="#00ff00" stroke="#00ff00" stroke-width=".3398" points="596.5287,-288.0998 599.3445,-298.3136 603.5127,-288.5732 596.5287,-288.0998"/>
</g>
<!-- 1892&#45;&gt;right -->
<g id="edge62" class="edge">
<title>1892&#45;&gt;right</title>
<path fill="none" stroke="#00ff00" stroke-width=".8603" stroke-dasharray="1,5" d="M214.0556,-383.2465C205.7927,-371.852 195.3689,-357.4777 186.4103,-345.1239"/>
<polygon fill="#00ff00" stroke="#00ff00" stroke-width=".8603" points="189.1909,-342.9963 180.4869,-336.9555 183.5241,-347.1057 189.1909,-342.9963"/>
</g>
<!-- 583&#45;&gt;right -->
<g id="edge30" class="edge">
<title>583&#45;&gt;right</title>
<path fill="none" stroke="#00ff00" stroke-width=".3858" d="M165.2534,-381.9336C165.4681,-372.7548 165.7236,-361.8337 165.9621,-351.6385"/>
<polygon fill="#00ff00" stroke="#00ff00" stroke-width=".3858" points="169.4671,-351.4595 166.2021,-341.3803 162.4691,-351.2957 169.4671,-351.4595"/>
</g>
<!-- 583&#45;&gt;1452 -->
<g id="edge45" class="edge">
<title>583&#45;&gt;1452</title>
<path fill="none" stroke="#00ff00" stroke-width=".2221" stroke-dasharray="1,5" d="M153.2636,-385.4215C146.5042,-373.7376 138.5555,-357.9335 134.7487,-342.7595 127.6323,-314.3926 127.0454,-281.1381 128.0058,-256.5881"/>
<polygon fill="#00ff00" stroke="#00ff00" stroke-width=".2221" points="131.5161,-256.4667 128.5177,-246.3051 124.5247,-256.1187 131.5161,-256.4667"/>
</g>
<!-- 713&#45;&gt;backward -->
<g id="edge34" class="edge">
<title>713&#45;&gt;backward</title>
<path fill="none" stroke="#ff0000" stroke-width=".3105" stroke-dasharray="1,5" d="M552.6566,-303.5641C557.0474,-299.9521 561.9329,-296.2577 566.7487,-293.262 604.0667,-270.0482 650.1341,-250.1137 683.2397,-237.1341"/>
<polygon fill="#ff0000" stroke="#ff0000" stroke-width=".3105" points="684.5794,-240.3687 692.6437,-233.4972 682.0544,-233.84 684.5794,-240.3687"/>
</g>
<!-- 1452&#45;&gt;right -->
<g id="edge46" class="edge">
<title>1452&#45;&gt;right</title>
<path fill="none" stroke="#ff0000" stroke-width=".1248" d="M144.1958,-242.113C149.9151,-254.5359 156.1383,-270.5729 160.8122,-284.7028"/>
<polygon fill="#ff0000" stroke="#ff0000" stroke-width=".1248" points="157.5772,-286.0833 163.9124,-294.5754 164.2556,-283.9862 157.5772,-286.0833"/>
</g>
<!-- 1452&#45;&gt;forward -->
<g id="edge48" class="edge">
<title>1452&#45;&gt;forward</title>
<path fill="none" stroke="#00ff00" stroke-width=".7167" d="M145.9842,-201.6601C157.169,-187.3156 172.6341,-167.4817 185.7573,-150.6512"/>
<polygon fill="#00ff00" stroke="#00ff00" stroke-width=".7167" points="188.5936,-152.7057 191.9825,-142.6674 183.0733,-148.4014 188.5936,-152.7057"/>
</g>
<!-- 653&#45;&gt;backward -->
<g id="edge32" class="edge">
<title>653&#45;&gt;backward</title>
<path fill="none" stroke="#00ff00" stroke-width=".7696" d="M679.9064,-564.0886C722.9929,-548.15 823.3336,-504.1465 862.7487,-428.2569 890.7675,-374.3099 876.5364,-342.4003 840.7487,-293.262 822.8422,-268.6754 793.7543,-250.4855 769.4435,-238.5314"/>
<polygon fill="#00ff00" stroke="#00ff00" stroke-width=".7696" points="770.9301,-235.3628 760.3934,-234.2548 767.9394,-241.6918 770.9301,-235.3628"/>
</g>
<!-- 653&#45;&gt;583 -->
<g id="edge36" class="edge">
<title>653&#45;&gt;583</title>
<path fill="none" stroke="#ff0000" stroke-width=".1298" stroke-dasharray="1,5" d="M638.632,-568.4952C590.863,-562.5202 471.2331,-545.4015 375.7487,-513.7544 291.2988,-485.7645 269.8642,-475.9317 194.7487,-428.2569 192.8034,-427.0222 190.8436,-425.677 188.9078,-424.2725"/>
<polygon fill="#ff0000" stroke="#ff0000" stroke-width=".1298" points="190.7391,-421.2633 180.6936,-417.8959 186.4466,-426.7928 190.7391,-421.2633"/>
</g>
<!-- 1167 -->
<g id="node24" class="node">
<title>1167</title>
<ellipse fill="#ffffff" stroke="#000000" cx="409.7487" cy="-489.0057" rx="25" ry="25"/>
<text text-anchor="middle" x="409.7487" y="-486.8057" font-family="Times,serif" font-size="9.00" fill="#000000">1167</text>
</g>
<!-- 653&#45;&gt;1167 -->
<g id="edge39" class="edge">
<title>653&#45;&gt;1167</title>
<path fill="none" stroke="#ff0000" stroke-width=".2399" d="M639.2902,-564.2603C596.1255,-550.1089 495.4041,-517.0876 442.9055,-499.876"/>
<polygon fill="#ff0000" stroke="#ff0000" stroke-width=".2399" points="443.977,-496.5441 433.3842,-496.7545 441.7962,-503.1957 443.977,-496.5441"/>
</g>
<!-- 1167&#45;&gt;583 -->
<g id="edge40" class="edge">
<title>1167&#45;&gt;583</title>
<path fill="none" stroke="#ff0000" stroke-width=".6449" d="M384.9823,-485.4272C343.6493,-478.7258 258.827,-461.8267 194.7487,-428.2569 192.4984,-427.078 190.2616,-425.7111 188.0828,-424.2368"/>
<polygon fill="#ff0000" stroke="#ff0000" stroke-width=".6449" points="190.154,-421.415 180.062,-418.1897 185.9399,-427.0045 190.154,-421.415"/>
</g>
<!-- 1104&#45;&gt;none -->
<g id="edge38" class="edge">
<title>1104&#45;&gt;none</title>
<path fill="none" stroke="#ff0000" stroke-width=".1116" stroke-dasharray="1,5" d="M317.8057,-243.9586C320.9314,-255.7242 323.8716,-270.3319 325.8222,-283.4563"/>
<polygon fill="#ff0000" stroke="#ff0000" stroke-width=".1116" points="322.3801,-284.1254 327.159,-293.5812 329.3199,-283.209 322.3801,-284.1254"/>
</g>
<!-- 1104&#45;&gt;1432 -->
<g id="edge43" class="edge">
<title>1104&#45;&gt;1432</title>
<path fill="none" stroke="#ff0000" stroke-width=".2903" d="M316.2767,-197.8863C321.3745,-183.9501 327.9351,-166.0152 333.5718,-150.606"/>
<polygon fill="#ff0000" stroke="#ff0000" stroke-width=".2903" points="336.9693,-151.5059 337.1178,-140.9121 330.3954,-149.1011 336.9693,-151.5059"/>
</g>
<!-- 1752 -->
<g id="node26" class="node">
<title>1752</title>
<ellipse fill="#ffffff" stroke="#000000" cx="372.7487" cy="-24.7487" rx="25" ry="25"/>
<text text-anchor="middle" x="372.7487" y="-22.5487" font-family="Times,serif" font-size="9.00" fill="#000000">1752</text>
</g>
<!-- 1752&#45;&gt;none -->
<g id="edge57" class="edge">
<title>1752&#45;&gt;none</title>
<path fill="none" stroke="#00ff00" stroke-width=".4342" d="M376.2545,-49.5206C377.642,-60.5151 379.0671,-73.6266 379.7487,-85.4975 384.161,-162.3343 383.6164,-184.7759 357.7487,-257.262 353.9839,-267.8118 348.6713,-278.8018 343.4546,-288.4873"/>
<polygon fill="#00ff00" stroke="#00ff00" stroke-width=".4342" points="340.3449,-286.8776 338.5359,-297.3168 346.4601,-290.2842 340.3449,-286.8776"/>
</g>
<!-- 500&#45;&gt;none -->
<g id="edge28" class="edge">
<title>500&#45;&gt;none</title>
<path fill="none" stroke="#ff0000" stroke-width=".5327" stroke-dasharray="1,5" d="M438.8377,-240.606C433.8307,-246.206 427.7293,-252.1737 421.7487,-257.262 401.5206,-274.4719 376.4841,-291.5642 356.8627,-303.2133"/>
<polygon fill="#ff0000" stroke="#ff0000" stroke-width=".5327" points="354.912,-300.2976 347.9884,-308.3173 358.402,-306.3656 354.912,-300.2976"/>
</g>
<!-- 1590&#45;&gt;forward -->
<g id="edge52" class="edge">
<title>1590&#45;&gt;forward</title>
<path fill="none" stroke="#00ff00" stroke-width=".2482" d="M41.9972,-203.0446C48.4462,-196.874 56.0756,-190.2523 63.7487,-185.1371 98.0199,-162.2905 141.2323,-143.478 172.1008,-131.5101"/>
<polygon fill="#00ff00" stroke="#00ff00" stroke-width=".2482" points="173.5629,-134.6986 181.6623,-127.8685 171.0714,-128.157 173.5629,-134.6986"/>
</g>
<!-- 1432&#45;&gt;none -->
<g id="edge44" class="edge">
<title>1432&#45;&gt;none</title>
<path fill="none" stroke="#ff0000" stroke-width=".8205" d="M346.7461,-142.2378C347.4751,-170.3395 347.5009,-217.3264 341.7487,-257.262 340.427,-266.4385 338.2188,-276.2191 335.8586,-285.1908"/>
<polygon fill="#ff0000" stroke="#ff0000" stroke-width=".8205" points="332.4654,-284.3297 333.1685,-294.9011 339.2113,-286.1986 332.4654,-284.3297"/>
</g>
<!-- 1432&#45;&gt;1752 -->
<g id="edge56" class="edge">
<title>1432&#45;&gt;1752</title>
<path fill="none" stroke="#00ff00" stroke-width=".1961" d="M352.7019,-93.4786C355.7956,-82.8719 359.4946,-70.1902 362.868,-58.6246"/>
<polygon fill="#00ff00" stroke="#00ff00" stroke-width=".1961" points="366.2851,-59.4084 365.7253,-48.8284 359.5651,-57.4483 366.2851,-59.4084"/>
</g>
<!-- 1823&#45;&gt;backward -->
<g id="edge59" class="edge">
<title>1823&#45;&gt;backward</title>
<path fill="none" stroke="#00ff00" stroke-width=".5059" d="M746.3218,-294.0799C744.045,-285.6021 741.4031,-275.7652 738.8112,-266.1142"/>
<polygon fill="#00ff00" stroke="#00ff00" stroke-width=".5059" points="742.1197,-264.939 736.1457,-256.1891 735.3593,-266.7547 742.1197,-264.939"/>
</g>
</g>
</svg>
