<?xml version="1.0" encoding="UTF-8" standalone="no"?>
<!DOCTYPE svg PUBLIC "-//W3C//DTD SVG 1.1//EN"
 "http://www.w3.org/Graphics/SVG/1.1/DTD/svg11.dtd">
<!-- Generated by graphviz version 2.43.0 (0)
 -->
<!-- Title: %3 Pages: 1 -->
<svg width="981pt" height="218pt"
 viewBox="0.00 0.00 980.66 218.21" xmlns="http://www.w3.org/2000/svg" xmlns:xlink="http://www.w3.org/1999/xlink">
<g id="graph0" class="graph" transform="scale(1 1) rotate(0) translate(4 214.21)">
<title>%3</title>
<polygon fill="white" stroke="transparent" points="-4,4 -4,-214.21 976.66,-214.21 976.66,4 -4,4"/>
<!-- x&#45;vel -->
<g id="node1" class="node">
<title>x&#45;vel</title>
<polygon fill="lightgray" stroke="black" points="341.4,-148.94 303.4,-148.94 303.4,-130.94 341.4,-130.94 341.4,-148.94"/>
<text text-anchor="middle" x="322.4" y="-137.74" font-family="Times,serif" font-size="9.00">x&#45;vel</text>
</g>
<!-- none -->
<g id="node13" class="node">
<title>none</title>
<ellipse fill="lightblue" stroke="black" cx="356.4" cy="-43.84" rx="27.65" ry="27.65"/>
<text text-anchor="middle" x="356.4" y="-41.64" font-family="Times,serif" font-size="9.00">none</text>
</g>
<!-- x&#45;vel&#45;&gt;none -->
<g id="edge17" class="edge">
<title>x&#45;vel&#45;&gt;none</title>
<path fill="none" stroke="red" stroke-width="0.54" d="M325.29,-130.92C329.4,-119.57 337.15,-98.11 343.89,-79.46"/>
<polygon fill="red" stroke="red" stroke-width="0.54" points="347.19,-80.63 347.29,-70.04 340.6,-78.25 347.19,-80.63"/>
</g>
<!-- right -->
<g id="node14" class="node">
<title>right</title>
<ellipse fill="lightblue" stroke="black" cx="584.4" cy="-43.84" rx="28.07" ry="28.07"/>
<text text-anchor="middle" x="584.4" y="-41.64" font-family="Times,serif" font-size="9.00">right</text>
</g>
<!-- x&#45;vel&#45;&gt;right -->
<g id="edge23" class="edge">
<title>x&#45;vel&#45;&gt;right</title>
<path fill="none" stroke="red" stroke-width="0.3" d="M335.76,-130.85C340.3,-128.33 345.47,-125.68 350.4,-123.68 405.55,-101.29 423.08,-106.96 479.4,-87.68 503.09,-79.57 529.16,-68.95 549.39,-60.31"/>
<polygon fill="red" stroke="red" stroke-width="0.3" points="551.02,-63.41 558.82,-56.24 548.25,-56.99 551.02,-63.41"/>
</g>
<!-- backward -->
<g id="node17" class="node">
<title>backward</title>
<ellipse fill="lightblue" stroke="black" cx="236.4" cy="-43.84" rx="43.68" ry="43.68"/>
<text text-anchor="middle" x="236.4" y="-41.64" font-family="Times,serif" font-size="9.00">backward</text>
</g>
<!-- x&#45;vel&#45;&gt;backward -->
<g id="edge14" class="edge">
<title>x&#45;vel&#45;&gt;backward</title>
<path fill="none" stroke="green" stroke-width="0.11" d="M315.06,-130.92C305.62,-120.59 288.54,-101.9 272.71,-84.57"/>
<polygon fill="green" stroke="green" stroke-width="0.11" points="274.88,-81.76 265.55,-76.74 269.71,-86.48 274.88,-81.76"/>
</g>
<!-- y&#45;vel -->
<g id="node2" class="node">
<title>y&#45;vel</title>
<polygon fill="lightgray" stroke="black" points="556.4,-148.94 518.4,-148.94 518.4,-130.94 556.4,-130.94 556.4,-148.94"/>
<text text-anchor="middle" x="537.4" y="-137.74" font-family="Times,serif" font-size="9.00">y&#45;vel</text>
</g>
<!-- y&#45;vel&#45;&gt;none -->
<g id="edge6" class="edge">
<title>y&#45;vel&#45;&gt;none</title>
<path fill="none" stroke="green" stroke-width="0.17" d="M523.34,-130.81C518.94,-128.39 514.02,-125.82 509.4,-123.68 468.78,-104.93 454.72,-109.01 415.4,-87.68 405.17,-82.14 394.69,-75.05 385.45,-68.25"/>
<polygon fill="green" stroke="green" stroke-width="0.17" points="387.44,-65.37 377.35,-62.14 383.22,-70.96 387.44,-65.37"/>
</g>
<!-- y&#45;vel&#45;&gt;right -->
<g id="edge28" class="edge">
<title>y&#45;vel&#45;&gt;right</title>
<path fill="none" stroke="green" stroke-width="0.26" d="M541.4,-130.92C547.14,-119.44 558.03,-97.63 567.42,-78.83"/>
<polygon fill="green" stroke="green" stroke-width="0.26" points="570.68,-80.14 572.01,-69.63 564.41,-77.01 570.68,-80.14"/>
</g>
<!-- x&#45;pos -->
<g id="node3" class="node">
<title>x&#45;pos</title>
<polygon fill="lightgray" stroke="black" points="883.9,-148.94 842.9,-148.94 842.9,-130.94 883.9,-130.94 883.9,-148.94"/>
<text text-anchor="middle" x="863.4" y="-137.74" font-family="Times,serif" font-size="9.00">x&#45;pos</text>
</g>
<!-- x&#45;pos&#45;&gt;right -->
<g id="edge2" class="edge">
<title>x&#45;pos&#45;&gt;right</title>
<path fill="none" stroke="red" stroke-width="0.61" d="M848.67,-130.84C843.87,-128.37 838.48,-125.76 833.4,-123.68 760.14,-93.68 670.99,-67.93 621.7,-54.59"/>
<polygon fill="red" stroke="red" stroke-width="0.61" points="622.38,-51.15 611.81,-51.93 620.56,-57.91 622.38,-51.15"/>
</g>
<!-- forward -->
<g id="node16" class="node">
<title>forward</title>
<ellipse fill="lightblue" stroke="black" cx="826.4" cy="-43.84" rx="37.45" ry="37.45"/>
<text text-anchor="middle" x="826.4" y="-41.64" font-family="Times,serif" font-size="9.00">forward</text>
</g>
<!-- x&#45;pos&#45;&gt;forward -->
<g id="edge20" class="edge">
<title>x&#45;pos&#45;&gt;forward</title>
<path fill="none" stroke="green" stroke-width="0.12" d="M860.24,-130.92C856.47,-121.34 849.87,-104.55 843.5,-88.33"/>
<polygon fill="green" stroke="green" stroke-width="0.12" points="846.71,-86.94 839.79,-78.91 840.19,-89.5 846.71,-86.94"/>
</g>
<!-- y&#45;pos -->
<g id="node4" class="node">
<title>y&#45;pos</title>
<polygon fill="lightgray" stroke="black" points="737.9,-148.94 696.9,-148.94 696.9,-130.94 737.9,-130.94 737.9,-148.94"/>
<text text-anchor="middle" x="717.4" y="-137.74" font-family="Times,serif" font-size="9.00">y&#45;pos</text>
</g>
<!-- y&#45;pos&#45;&gt;right -->
<g id="edge8" class="edge">
<title>y&#45;pos&#45;&gt;right</title>
<path fill="none" stroke="green" stroke-width="0.4" d="M706.06,-130.92C686.16,-116.84 644.32,-87.24 615.3,-66.71"/>
<polygon fill="green" stroke="green" stroke-width="0.4" points="617.3,-63.84 607.12,-60.92 613.26,-69.55 617.3,-63.84"/>
</g>
<!-- x&#45;lm1&#45;vec -->
<g id="node5" class="node">
<title>x&#45;lm1&#45;vec</title>
<polygon fill="lightgray" stroke="black" points="420.9,-148.94 359.9,-148.94 359.9,-130.94 420.9,-130.94 420.9,-148.94"/>
<text text-anchor="middle" x="390.4" y="-137.74" font-family="Times,serif" font-size="9.00">x&#45;lm1&#45;vec</text>
</g>
<!-- x&#45;lm1&#45;vec&#45;&gt;none -->
<g id="edge5" class="edge">
<title>x&#45;lm1&#45;vec&#45;&gt;none</title>
<path fill="none" stroke="green" stroke-width="0.28" d="M387.5,-130.92C383.39,-119.57 375.64,-98.11 368.9,-79.46"/>
<polygon fill="green" stroke="green" stroke-width="0.28" points="372.19,-78.25 365.5,-70.04 365.6,-80.63 372.19,-78.25"/>
</g>
<!-- x&#45;lm1&#45;vec&#45;&gt;right -->
<g id="edge1" class="edge">
<title>x&#45;lm1&#45;vec&#45;&gt;right</title>
<path fill="none" stroke="green" stroke-width="0.5" d="M406.94,-130.92C438.54,-115.59 508.1,-81.85 550.13,-61.46"/>
<polygon fill="green" stroke="green" stroke-width="0.5" points="551.7,-64.59 559.17,-57.08 548.64,-58.29 551.7,-64.59"/>
</g>
<!-- left -->
<g id="node15" class="node">
<title>left</title>
<ellipse fill="lightblue" stroke="black" cx="447.4" cy="-43.84" rx="22.76" ry="22.76"/>
<text text-anchor="middle" x="447.4" y="-41.64" font-family="Times,serif" font-size="9.00">left</text>
</g>
<!-- x&#45;lm1&#45;vec&#45;&gt;left -->
<g id="edge25" class="edge">
<title>x&#45;lm1&#45;vec&#45;&gt;left</title>
<path fill="none" stroke="red" stroke-width="0.4" d="M395.26,-130.92C403.01,-118.12 418.53,-92.5 430.63,-72.52"/>
<polygon fill="red" stroke="red" stroke-width="0.4" points="433.72,-74.17 435.91,-63.81 427.73,-70.55 433.72,-74.17"/>
</g>
<!-- x&#45;lm1&#45;vec&#45;&gt;backward -->
<g id="edge9" class="edge">
<title>x&#45;lm1&#45;vec&#45;&gt;backward</title>
<path fill="none" stroke="green" stroke-width="0.13" d="M377.27,-130.92C356.46,-118.21 314.92,-92.82 282.31,-72.9"/>
<polygon fill="green" stroke="green" stroke-width="0.13" points="283.74,-69.67 273.38,-67.44 280.09,-75.64 283.74,-69.67"/>
</g>
<!-- y&#45;lm1&#45;vec -->
<g id="node6" class="node">
<title>y&#45;lm1&#45;vec</title>
<polygon fill="lightgray" stroke="black" points="499.9,-148.94 438.9,-148.94 438.9,-130.94 499.9,-130.94 499.9,-148.94"/>
<text text-anchor="middle" x="469.4" y="-137.74" font-family="Times,serif" font-size="9.00">y&#45;lm1&#45;vec</text>
</g>
<!-- y&#45;lm1&#45;vec&#45;&gt;none -->
<g id="edge15" class="edge">
<title>y&#45;lm1&#45;vec&#45;&gt;none</title>
<path fill="none" stroke="red" stroke-width="0.14" d="M459.76,-130.92C443.46,-117.34 409.81,-89.33 385.33,-68.93"/>
<polygon fill="red" stroke="red" stroke-width="0.14" points="387.33,-66.05 377.41,-62.34 382.85,-71.43 387.33,-66.05"/>
</g>
<!-- y&#45;lm1&#45;vec&#45;&gt;right -->
<g id="edge18" class="edge">
<title>y&#45;lm1&#45;vec&#45;&gt;right</title>
<path fill="none" stroke="green" stroke-width="0.42" d="M479.2,-130.92C495.69,-117.42 529.63,-89.66 554.51,-69.29"/>
<polygon fill="green" stroke="green" stroke-width="0.42" points="557.04,-71.75 562.57,-62.7 552.61,-66.33 557.04,-71.75"/>
</g>
<!-- y&#45;lm1&#45;vec&#45;&gt;left -->
<g id="edge10" class="edge">
<title>y&#45;lm1&#45;vec&#45;&gt;left</title>
<path fill="none" stroke="red" stroke-width="0.32" d="M467.52,-130.92C464.7,-118.87 459.22,-95.42 454.69,-76.04"/>
<polygon fill="red" stroke="red" stroke-width="0.32" points="458.04,-75.02 452.36,-66.08 451.23,-76.61 458.04,-75.02"/>
</g>
<!-- y&#45;lm1&#45;vec&#45;&gt;forward -->
<g id="edge21" class="edge">
<title>y&#45;lm1&#45;vec&#45;&gt;forward</title>
<path fill="none" stroke="green" stroke-width="0.81" d="M489.17,-130.86C495.57,-128.39 502.73,-125.77 509.4,-123.68 604.22,-93.92 717.77,-67.96 779.97,-54.54"/>
<polygon fill="green" stroke="green" stroke-width="0.81" points="780.83,-57.94 789.87,-52.42 779.36,-51.09 780.83,-57.94"/>
</g>
<!-- y&#45;lm1&#45;vec&#45;&gt;backward -->
<g id="edge29" class="edge">
<title>y&#45;lm1&#45;vec&#45;&gt;backward</title>
<path fill="none" stroke="red" stroke-width="0.79" d="M449.24,-130.79C443.21,-128.42 436.56,-125.88 430.4,-123.68 381.56,-106.22 367.26,-107.64 319.4,-87.68 307.59,-82.76 295.17,-76.8 283.65,-70.91"/>
<polygon fill="red" stroke="red" stroke-width="0.79" points="285.11,-67.73 274.62,-66.22 281.88,-73.94 285.11,-67.73"/>
</g>
<!-- x&#45;lm2&#45;vec -->
<g id="node7" class="node">
<title>x&#45;lm2&#45;vec</title>
<polygon fill="lightgray" stroke="black" points="200.9,-148.94 139.9,-148.94 139.9,-130.94 200.9,-130.94 200.9,-148.94"/>
<text text-anchor="middle" x="170.4" y="-137.74" font-family="Times,serif" font-size="9.00">x&#45;lm2&#45;vec</text>
</g>
<!-- x&#45;lm2&#45;vec&#45;&gt;left -->
<g id="edge22" class="edge">
<title>x&#45;lm2&#45;vec&#45;&gt;left</title>
<path fill="none" stroke="red" stroke-width="0.25" d="M189.7,-130.82C196.2,-128.29 203.54,-125.65 210.4,-123.68 290.07,-100.82 318.13,-122.42 393.4,-87.68 404.38,-82.61 415.1,-74.87 424.06,-67.35"/>
<polygon fill="red" stroke="red" stroke-width="0.25" points="426.55,-69.83 431.76,-60.6 421.93,-64.57 426.55,-69.83"/>
</g>
<!-- x&#45;lm2&#45;vec&#45;&gt;backward -->
<g id="edge13" class="edge">
<title>x&#45;lm2&#45;vec&#45;&gt;backward</title>
<path fill="none" stroke="green" stroke-width="0.2" stroke-dasharray="1,5" d="M176.02,-130.92C182.71,-121.38 194.4,-104.72 205.72,-88.58"/>
<polygon fill="green" stroke="green" stroke-width="0.2" points="208.7,-90.42 211.58,-80.22 202.97,-86.4 208.7,-90.42"/>
</g>
<!-- y&#45;lm2&#45;vec -->
<g id="node8" class="node">
<title>y&#45;lm2&#45;vec</title>
<polygon fill="lightgray" stroke="black" points="82.9,-148.94 21.9,-148.94 21.9,-130.94 82.9,-130.94 82.9,-148.94"/>
<text text-anchor="middle" x="52.4" y="-137.74" font-family="Times,serif" font-size="9.00">y&#45;lm2&#45;vec</text>
</g>
<!-- y&#45;lm2&#45;vec&#45;&gt;none -->
<g id="edge16" class="edge">
<title>y&#45;lm2&#45;vec&#45;&gt;none</title>
<path fill="none" stroke="green" stroke-width="0.38" d="M74.18,-130.86C81.49,-128.34 89.73,-125.69 97.4,-123.68 181.38,-101.68 208.68,-119.65 289.4,-87.68 302.26,-82.59 315.32,-74.92 326.45,-67.47"/>
<polygon fill="green" stroke="green" stroke-width="0.38" points="328.7,-70.17 334.92,-61.59 324.71,-64.41 328.7,-70.17"/>
</g>
<!-- y&#45;lm2&#45;vec&#45;&gt;backward -->
<g id="edge24" class="edge">
<title>y&#45;lm2&#45;vec&#45;&gt;backward</title>
<path fill="none" stroke="red" stroke-width="0.48" d="M68.08,-130.92C94.45,-117.44 148.66,-89.71 188.46,-69.35"/>
<polygon fill="red" stroke="red" stroke-width="0.48" points="190.17,-72.41 197.48,-64.74 186.99,-66.18 190.17,-72.41"/>
</g>
<!-- x&#45;other&#45;vec -->
<g id="node9" class="node">
<title>x&#45;other&#45;vec</title>
<polygon fill="lightgray" stroke="black" points="824.4,-148.94 756.4,-148.94 756.4,-130.94 824.4,-130.94 824.4,-148.94"/>
<text text-anchor="middle" x="790.4" y="-137.74" font-family="Times,serif" font-size="9.00">x&#45;other&#45;vec</text>
</g>
<!-- x&#45;other&#45;vec&#45;&gt;right -->
<g id="edge4" class="edge">
<title>x&#45;other&#45;vec&#45;&gt;right</title>
<path fill="none" stroke="red" stroke-width="0.24" d="M772.83,-130.92C738.84,-115.39 663.5,-80.98 619.07,-60.68"/>
<polygon fill="red" stroke="red" stroke-width="0.24" points="620.36,-57.42 609.81,-56.45 617.45,-63.79 620.36,-57.42"/>
</g>
<!-- x&#45;other&#45;vec&#45;&gt;left -->
<g id="edge30" class="edge">
<title>x&#45;other&#45;vec&#45;&gt;left</title>
<path fill="none" stroke="red" stroke-width="0.39" d="M769.61,-130.8C762.63,-128.27 754.75,-125.63 747.4,-123.68 660.1,-100.5 633.9,-113.63 547.4,-87.68 522.68,-80.27 495.86,-68.56 476.22,-59.26"/>
<polygon fill="red" stroke="red" stroke-width="0.39" points="477.73,-56.1 467.2,-54.92 474.69,-62.41 477.73,-56.1"/>
</g>
<!-- x&#45;other&#45;vec&#45;&gt;forward -->
<g id="edge3" class="edge">
<title>x&#45;other&#45;vec&#45;&gt;forward</title>
<path fill="none" stroke="green" stroke-width="0.14" d="M793.46,-130.92C797.1,-121.41 803.45,-104.81 809.61,-88.71"/>
<polygon fill="green" stroke="green" stroke-width="0.14" points="812.89,-89.94 813.19,-79.35 806.35,-87.44 812.89,-89.94"/>
</g>
<!-- y&#45;other&#45;vec -->
<g id="node10" class="node">
<title>y&#45;other&#45;vec</title>
<polygon fill="lightgray" stroke="black" points="618.4,-210.21 550.4,-210.21 550.4,-192.21 618.4,-192.21 618.4,-210.21"/>
<text text-anchor="middle" x="584.4" y="-199.01" font-family="Times,serif" font-size="9.00">y&#45;other&#45;vec</text>
</g>
<!-- y&#45;other&#45;vec&#45;&gt;none -->
<g id="edge33" class="edge">
<title>y&#45;other&#45;vec&#45;&gt;none</title>
<path fill="none" stroke="green" stroke-width="0.46" stroke-dasharray="1,5" d="M550.2,-199.48C449.37,-197 158.51,-187.17 130.4,-156.21 48.48,-65.97 104.95,-164.75 289.4,-87.68 302.16,-82.35 315.2,-74.62 326.34,-67.2"/>
<polygon fill="green" stroke="green" stroke-width="0.46" points="328.57,-69.91 334.83,-61.36 324.6,-64.15 328.57,-69.91"/>
</g>
<!-- y&#45;other&#45;vec&#45;&gt;right -->
<g id="edge7" class="edge">
<title>y&#45;other&#45;vec&#45;&gt;right</title>
<path fill="none" stroke="red" stroke-width="0.33" d="M584.4,-191.85C584.4,-171.6 584.4,-118.88 584.4,-82.41"/>
<polygon fill="red" stroke="red" stroke-width="0.33" points="587.9,-82.13 584.4,-72.13 580.9,-82.13 587.9,-82.13"/>
</g>
<!-- y&#45;other&#45;vec&#45;&gt;forward -->
<g id="edge27" class="edge">
<title>y&#45;other&#45;vec&#45;&gt;forward</title>
<path fill="none" stroke="green" stroke-width="0.3" d="M618.55,-200.69C691.36,-200.92 858.1,-196.88 893.4,-156.21 915.33,-130.92 889.34,-97.54 863.61,-73.94"/>
<polygon fill="green" stroke="green" stroke-width="0.3" points="865.85,-71.25 856.04,-67.26 861.22,-76.5 865.85,-71.25"/>
</g>
<!-- y&#45;other&#45;vec&#45;&gt;backward -->
<g id="edge12" class="edge">
<title>y&#45;other&#45;vec&#45;&gt;backward</title>
<path fill="none" stroke="red" stroke-width="0.38" d="M550.36,-200.21C432.8,-199.88 49.02,-195.76 12.4,-156.21 -42.49,-96.94 100.62,-65.01 182.99,-51.97"/>
<polygon fill="red" stroke="red" stroke-width="0.38" points="183.61,-55.42 192.96,-50.44 182.54,-48.5 183.61,-55.42"/>
</g>
<!-- 5 -->
<g id="node18" class="node">
<title>5</title>
<ellipse fill="white" stroke="black" cx="956.4" cy="-139.94" rx="16.03" ry="16.03"/>
<text text-anchor="middle" x="956.4" y="-137.74" font-family="Times,serif" font-size="9.00">5</text>
</g>
<!-- y&#45;other&#45;vec&#45;&gt;5 -->
<g id="edge31" class="edge">
<title>y&#45;other&#45;vec&#45;&gt;5</title>
<path fill="none" stroke="green" stroke-width="0.15" d="M618.7,-199.64C681.25,-197.78 817.42,-189.83 926.4,-156.21 928.84,-155.45 931.32,-154.51 933.76,-153.47"/>
<polygon fill="green" stroke="green" stroke-width="0.15" points="935.29,-156.62 942.77,-149.12 932.25,-150.31 935.29,-156.62"/>
</g>
<!-- x&#45;other&#45;vel -->
<g id="node11" class="node">
<title>x&#45;other&#45;vel</title>
<polygon fill="lightgray" stroke="black" points="678.4,-148.94 612.4,-148.94 612.4,-130.94 678.4,-130.94 678.4,-148.94"/>
<text text-anchor="middle" x="645.4" y="-137.74" font-family="Times,serif" font-size="9.00">x&#45;other&#45;vel</text>
</g>
<!-- x&#45;other&#45;vel&#45;&gt;none -->
<g id="edge26" class="edge">
<title>x&#45;other&#45;vel&#45;&gt;none</title>
<path fill="none" stroke="green" stroke-width="0.39" d="M612.35,-132.36C553.09,-120.42 433.25,-95.73 415.4,-87.68 404.71,-82.86 394.03,-75.92 384.75,-69.02"/>
<polygon fill="green" stroke="green" stroke-width="0.39" points="386.71,-66.12 376.66,-62.76 382.43,-71.65 386.71,-66.12"/>
</g>
<!-- x&#45;other&#45;vel&#45;&gt;right -->
<g id="edge19" class="edge">
<title>x&#45;other&#45;vel&#45;&gt;right</title>
<path fill="none" stroke="red" stroke-width="0.25" d="M640.19,-130.92C632.45,-118.97 617.45,-95.84 604.96,-76.56"/>
<polygon fill="red" stroke="red" stroke-width="0.25" points="607.8,-74.52 599.43,-68.03 601.93,-78.33 607.8,-74.52"/>
</g>
<!-- x&#45;other&#45;vel&#45;&gt;forward -->
<g id="edge34" class="edge">
<title>x&#45;other&#45;vel&#45;&gt;forward</title>
<path fill="none" stroke="red" stroke-width="0.39" d="M660.83,-130.92C687.89,-116.85 744.8,-87.26 784.29,-66.73"/>
<polygon fill="red" stroke="red" stroke-width="0.39" points="786.17,-69.7 793.43,-61.98 782.94,-63.49 786.17,-69.7"/>
</g>
<!-- y&#45;other&#45;vel -->
<g id="node12" class="node">
<title>y&#45;other&#45;vel</title>
<polygon fill="lightgray" stroke="black" points="285.4,-148.94 219.4,-148.94 219.4,-130.94 285.4,-130.94 285.4,-148.94"/>
<text text-anchor="middle" x="252.4" y="-137.74" font-family="Times,serif" font-size="9.00">y&#45;other&#45;vel</text>
</g>
<!-- y&#45;other&#45;vel&#45;&gt;none -->
<g id="edge11" class="edge">
<title>y&#45;other&#45;vel&#45;&gt;none</title>
<path fill="none" stroke="green" stroke-width="0.48" d="M261.26,-130.92C276.03,-117.56 306.24,-90.22 328.68,-69.92"/>
<polygon fill="green" stroke="green" stroke-width="0.48" points="331.18,-72.37 336.25,-63.07 326.49,-67.18 331.18,-72.37"/>
</g>
<!-- 5&#45;&gt;forward -->
<g id="edge32" class="edge">
<title>5&#45;&gt;forward</title>
<path fill="none" stroke="red" stroke-width="0.22" stroke-dasharray="1,5" d="M943.46,-129.58C925.26,-116.41 891.35,-91.86 864.7,-72.57"/>
<polygon fill="red" stroke="red" stroke-width="0.22" points="866.48,-69.54 856.33,-66.51 862.38,-75.21 866.48,-69.54"/>
</g>
</g>
</svg>
